g liangshi
v -0.376691878 1.07112825 -1.32338607
v 0.438126832 1.07112825 -0.352182329
v 0.542046487 1.26343203 -0.36792177
v -0.34319517 1.26343203 -1.42306924
v 0.596731544 1.41194701 -0.410297155
v -0.291940898 1.41194701 -1.4694804
v -0.178132936 1.56308651 -1.44344985
v 0.590880096 1.56308651 -0.527132154
v 0.255509019 1.70393431 -1.02655649
v -0.0524188168 1.67568421 -1.3607167
v 0.53115052 1.67568421 -0.665154874
v 0.243199453 0.517221391 -0.182882532
v 0.438126832 1.07112825 -0.352182329
v -0.376691878 1.07112825 -1.32338607
v -0.57747072 0.517221391 -1.16094697
v -0.66726625 0.154810488 -0.990033031
v 0.0593713373 0.154810488 -0.123960562
v -0.66726625 0.154810488 -0.990033031
v 0.00387877994 0.132008657 -0.0345686078
v 0.0593713373 0.154810488 -0.123960562
v -0.764931023 0.132008657 -0.950886071
v -0.0711859092 0.17781432 0.0283891093
v -0.840198338 0.17781432 -0.887928426
v -0.128291011 0.269022197 0.0334337987
v -0.854927957 0.269022197 -0.832638621
v 0.0436315909 0.638898909 -0.0153987892
v 0.114459224 0.566658914 -0.0264970884
v -0.0711859092 0.17781432 0.0283891093
v 0.00387877994 0.132008657 -0.0345686078
v 0.194569081 0.5178262 -0.0936923847
v 0.0593713373 0.154810488 -0.123960562
v 0.243199453 0.517221391 -0.182882532
v 0.400795877 1.10381746 -0.272879809
v 0.438126832 1.07112825 -0.352182329
v 0.320686638 1.15265048 -0.205482766
v 0.510770857 1.30742121 -0.289426386
v 0.542046487 1.26343203 -0.36792177
v 0.238558948 1.1926043 -0.184698611
v 0.430660397 1.35625422 -0.22223109
v 0.568480849 1.46441281 -0.334223181
v 0.596731544 1.41194701 -0.410297155
v 0.342479229 1.38510978 -0.200438082
v 0.488372177 1.51324522 -0.267027974
v 0.562427938 1.62443054 -0.457919031
v 0.590880096 1.56308651 -0.527132154
v 0.53115052 1.67568421 -0.665154874
v 0.397163063 1.53342402 -0.242813483
v 0.482318103 1.6730603 -0.390521944
v 0.391311646 1.68456292 -0.359446704
v -0.491710812 1.53342402 -1.30199671
v -0.542965055 1.38510978 -1.25558543
v -0.576461196 1.1926043 -1.15590239
v -0.77703917 0.638898909 -0.993261456
v -0.753832996 0.566658914 -1.0610621
v -0.840198338 0.17781432 -0.887928426
v -0.541552126 1.15265048 -1.23318708
v -0.506239593 1.35625422 -1.33852005
v -0.673723102 0.5178262 -1.12845933
v -0.764931023 0.132008657 -0.950886071
v -0.66726625 0.154810488 -0.990033031
v -0.57747072 0.517221391 -1.16094697
v -0.376691878 1.07112825 -1.32338607
v -0.461442262 1.10381746 -1.30038226
v -0.34319517 1.26343203 -1.42306924
v -0.425927728 1.30742121 -1.40591705
v -0.291940898 1.41194701 -1.4694804
v -0.371647328 1.46441281 -1.45495164
v -0.178132936 1.56308651 -1.44344985
v -0.451958597 1.51324522 -1.38775611
v -0.251179814 1.62443054 -1.42730665
v -0.0524188168 1.67568421 -1.3607167
v -0.331491679 1.6730603 -1.36011147
v -0.114569701 1.74126518 -1.34295952
v 0.255509019 1.70393431 -1.02655649
v 0.208088979 1.77294612 -0.986804307
v -0.37770018 1.68456292 -1.27596593
v -0.189634398 1.78686881 -1.28000164
v 0.502900362 1.74126518 -0.607040107
v -0.240081176 1.78989553 -1.20312071
v 0.128786013 1.82117307 -0.920012653
v 0.427835673 1.78686881 -0.544082344
v 0.0577563457 1.8241992 -0.860485375
v 0.343488753 1.78989553 -0.507558763
v -1.3035022 0.172568053 -0.763223708
v -0.576663196 0.172568053 0.102848768
v -0.346827984 0.498656601 0.00518352957
v -1.16749692 0.498656601 -0.972881019
v -0.896092534 0.999291956 -1.19464564
v -0.0810729936 0.999291956 -0.223643601
v 0.0472637899 1.17303097 -0.259763628
v -0.837978482 1.17303097 -1.31491101
v 0.120916747 1.30721986 -0.318281978
v -0.767756343 1.30721986 -1.37746501
v -0.63477844 1.44362855 -1.36737597
v 0.134234622 1.44362855 -0.451058269
v -0.183177486 1.57135987 -0.965414882
v -0.494536132 1.54714537 -1.29674995
v 0.0890338123 1.54714537 -0.601188183
v -1.3035022 0.172568053 -0.763223708
v -0.634172976 0.167523488 0.193855003
v -0.576663196 0.172568053 0.102848768
v -1.40318596 0.167523488 -0.722462595
v -0.701973259 0.229472041 0.250557333
v -1.47098625 0.229472041 -0.665760159
v -0.746367157 0.327540874 0.244907185
v -1.4730047 0.327540874 -0.621165276
v -0.527225316 0.663517416 0.156524211
v -0.466689438 0.581793189 0.154102832
v -0.701973259 0.229472041 0.250557333
v -0.634172976 0.167523488 0.193855003
v -0.394248039 0.515606701 0.0933647454
v -0.576663196 0.172568053 0.102848768
v -0.346827984 0.498656601 0.00518352957
v -0.113156736 1.04529965 -0.148578644
v -0.0810729936 0.999291956 -0.223643601
v -0.185800165 1.1114856 -0.0878405347
v 0.0226458684 1.22932982 -0.186918274
v 0.0472637899 1.17303097 -0.259763628
v -0.261672974 1.1641525 -0.0721011385
v -0.0497955307 1.29551578 -0.126180172
v 0.100535884 1.37118649 -0.248867065
v 0.120916747 1.30721986 -0.318281978
v -0.133133531 1.33809257 -0.108422861
v 0.0280938689 1.43737245 -0.187927201
v 0.114661239 1.51546502 -0.389311254
v 0.134234622 1.44362855 -0.451058269
v 0.0890338123 1.54714537 -0.601188183
v -0.0594824217 1.47208071 -0.166739494
v 0.0422192365 1.58185244 -0.328573138
v -0.0461639389 1.60869014 -0.299717575
v -0.948356926 1.47208071 -1.2259227
v -1.01857781 1.33809257 -1.16357028
v -1.07649171 1.1641525 -1.04330492
v -1.3478955 0.663517416 -0.821540296
v -1.33498049 0.581793189 -0.880664051
v -1.47098625 0.229472041 -0.665760159
v -1.04783809 1.1114856 -1.11534309
v -0.986494124 1.29551578 -1.24246919
v -1.26274168 0.515606701 -0.941402137
v -1.40318596 0.167523488 -0.722462595
v -1.3035022 0.172568053 -0.763223708
v -1.16749692 0.498656601 -0.972881019
v -0.896092534 0.999291956 -1.19464564
v -0.975394905 1.04529965 -1.17608118
v -0.837978482 1.17303097 -1.31491101
v -0.914051473 1.22932982 -1.30340922
v -0.767756343 1.30721986 -1.37746501
v -0.839794278 1.37118649 -1.36939371
v -0.63477844 1.44362855 -1.36737597
v -0.912236929 1.43737245 -1.3086555
v -0.698947132 1.51546502 -1.35890079
v -0.494536132 1.54714537 -1.29674995
v -0.771388531 1.58185244 -1.297961
v -0.54720211 1.62200868 -1.28706431
v -0.183177486 1.57135987 -0.965414882
v -0.220507801 1.65005672 -0.934137762
v -0.815176368 1.60869014 -1.21603501
v -0.61520505 1.68395686 -1.23016024
v 0.0702679381 1.62200868 -0.550943136
v -0.664239466 1.70231926 -1.15448987
v -0.292344958 1.7156378 -0.87400496
v 0.00246764999 1.68395686 -0.494039059
v -0.361759037 1.73460627 -0.815688431
v -0.0804669186 1.70231926 -0.458927989
v 0.621061385 0.563430786 -0.429663271
v 0.558305025 0.161469415 -0.472845793
v -0.166112661 0.161469415 -1.33589137
v -0.197591543 0.563430786 -1.40550828
v -0.154005125 1.17101312 -1.4363817
v 0.658997178 1.17101312 -0.467397541
v -0.174990848 1.38208306 -1.49005699
v 0.708232999 1.38208306 -0.4373312
v -0.165910646 1.54492545 -1.50115538
v 0.720945418 1.54492545 -0.444393754
v 0.672315061 1.71039116 -0.524907053
v -0.0948815867 1.71039116 -1.43940842
v 0.300622553 1.86395133 -0.992247164
v 0.0169091802 1.82783198 -1.34477019
v 0.598662734 1.82783198 -0.651427805
v 0.125873417 1.81128538 -1.43839967
v -0.0948815867 1.71039116 -1.43940842
v 0.415640861 1.85588014 -1.08870173
v 0.00520507991 1.68859804 -1.55321681
v -0.165910646 1.54492545 -1.50115538
v 0.709847987 1.81128538 -0.742434084
v 0.672315061 1.71039116 -0.524907053
v -0.0682464615 1.52414179 -1.61819243
v -0.174990848 1.38208306 -1.49005699
v 0.801862776 1.68859804 -0.603805959
v 0.720945418 1.54492545 -0.444393754
v -0.0771240145 1.36150026 -1.60689235
v -0.154005125 1.17101312 -1.4363817
v 0.853117049 1.52414179 -0.520467639
v 0.708232999 1.38208306 -0.4373312
v 0.840404034 1.36150026 -0.513405085
v 0.658997178 1.17101312 -0.467397541
v 0.947149634 1.7079699 -0.990632772
v 1.04118347 1.5905298 -0.877631843
v 1.08759463 1.44019771 -0.801759601
v 0.68765074 1.74287963 -1.31692338
v 1.00163269 1.63007987 -1.09374619
v 1.07952273 1.52515006 -1.00939906
v 1.07609189 1.29168153 -0.795504153
v 0.411404401 1.7079699 -1.62929058
v 0.772805154 1.65227592 -1.38835609
v 1.11927426 1.38995302 -0.943616211
v 0.316563725 1.5905298 -1.74128282
v 0.522387087 1.63007987 -1.665007
v 0.452972412 1.52515006 -1.75621498
v 0.249771729 1.44019771 -1.80040646
v 0.395057976 1.38995302 -1.80686367
v 0.241498411 1.29168153 -1.79011536
v 0.387592167 1.25717652 -1.79778314
v -0.0547247306 1.15123773 -1.55160248
v 0.261677235 1.09978235 -1.73966837
v -0.098311767 0.544664323 -1.52093077
v -0.197591543 0.563430786 -1.40550828
v 1.10898376 1.25717652 -0.937966228
v -0.06279663 0.134429932 -1.43496919
v -0.166112661 0.161469415 -1.33589137
v 0.222127065 0.546480715 -1.71182191
v 0.238673702 0.169541016 -1.62565839
v 0.37144959 0.257117003 -1.65794444
v 0.404542834 1.08525324 -1.7537936
v 0.369229734 0.589864492 -1.72877192
v 1.03008485 1.09978235 -0.824158072
v 1.0379535 0.589864492 -0.93171078
v 1.06882691 1.08525324 -0.962382615
v 0.789755821 1.15123773 -0.545085728
v 0.968741417 0.257117003 -0.946239531
v 0.238673702 0.169541016 -1.62565839
v 0.995578587 0.546480715 -0.78985405
v 0.913854957 0.169541016 -0.82113117
v 0.673727393 0.134429932 -0.557394803
v -0.06279663 0.134429932 -1.43496919
v 0.558305025 0.161469415 -0.472845793
v -0.166112661 0.161469415 -1.33589137
v 0.913854957 0.169541016 -0.82113117
v 0.752020836 0.544664323 -0.507351458
v 0.621061385 0.563430786 -0.429663271
v 0.673727393 0.134429932 -0.557394803
v 0.558305025 0.161469415 -0.472845793
vt 0.766869009 0.909901977
vt 0.774932981 0.614634991
vt 0.821959972 0.612550974
vt 0.816703975 0.914599001
vt 0.858453989 0.61818397
vt 0.853622973 0.911257029
vt 0.890625 0.889539003
vt 0.894621015 0.639052987
vt 0.925037026 0.765237987
vt 0.918259978 0.859166026
vt 0.920553982 0.66960597
vt 0.633291006 0.607951999
vt 0.774932981 0.614634991
vt 0.766869009 0.909901977
vt 0.621958017 0.906193018
vt 0.526966989 0.888806999
vt 0.537846982 0.616746008
vt 0.461802989 0.885731995
vt 0.493734986 0.615055978
vt 0.474615991 0.614153981
vt 0.48131299 0.886653006
vt 0.518725991 0.615844011
vt 0.507457018 0.887887001
vt 0.537846982 0.616746008
vt 0.526966989 0.888806999
vt 0.633291006 0.607951999
vt 0.633467972 0.587625027
vt 0.536816001 0.597144008
vt 0.534927011 0.570852995
vt 0.633176982 0.560627997
vt 0.533896983 0.551250994
vt 0.633354008 0.540300012
vt 0.779928982 0.566769004
vt 0.782074988 0.546144009
vt 0.777079999 0.594008982
vt 0.835411012 0.56782198
vt 0.84138602 0.548942029
vt 0.774932981 0.614634991
vt 0.827934027 0.593671024
vt 0.879006982 0.580438018
vt 0.887974024 0.564436018
vt 0.821959972 0.612550974
vt 0.867421985 0.602181971
vt 0.924077988 0.611503005
vt 0.936762989 0.599587977
vt 0.977383971 0.650386989
vt 0.858453989 0.61818397
vt 0.907306015 0.627137005
vt 0.894621015 0.639052987
vt 0.853622973 0.911257029
vt 0.816703975 0.914599001
vt 0.766869009 0.909901977
vt 0.621958017 0.906193018
vt 0.619849026 0.92603898
vt 0.524114013 0.907835007
vt 0.767844975 0.930674016
vt 0.821264982 0.933977008
vt 0.617407978 0.952907026
vt 0.520168006 0.933458984
vt 0.517314017 0.952486992
vt 0.615297973 0.972751975
vt 0.770244002 0.979279995
vt 0.76926899 0.958507001
vt 0.831671 0.97865802
vt 0.827111006 0.959281027
vt 0.880847991 0.964161992
vt 0.872609973 0.948131025
vt 0.938174009 0.934408009
vt 0.861860991 0.927287996
vt 0.92395401 0.920831978
vt 0.979510009 0.878871977
vt 0.904844999 0.903114974
vt 0.961019993 0.87291503
vt 0.978716016 0.763077974
vt 0.962643981 0.763884008
vt 0.890625 0.889539003
vt 0.936749995 0.86512202
vt 0.960292995 0.656229019
vt 0.918259978 0.859166026
vt 0.941109002 0.764432013
vt 0.937645972 0.663764
vt 0.925037026 0.765237987
vt 0.920553982 0.66960597
vt 0.526966989 0.888806999
vt 0.537846982 0.616746008
vt 0.633291006 0.607951999
vt 0.621958017 0.906193018
vt 0.766870022 0.909901977
vt 0.774932981 0.614634991
vt 0.821959972 0.612550974
vt 0.816704988 0.914599001
vt 0.858453989 0.61818397
vt 0.853622019 0.911257029
vt 0.890625 0.889539003
vt 0.894621015 0.639052987
vt 0.925037026 0.765237987
vt 0.918259978 0.859166026
vt 0.920553982 0.66960597
vt 0.461802989 0.885731995
vt 0.493734986 0.615055978
vt 0.474615991 0.614153981
vt 0.48131299 0.886653006
vt 0.518725991 0.615844011
vt 0.507457018 0.887887001
vt 0.537846982 0.616746008
vt 0.526966989 0.888806999
vt 0.633291006 0.607951999
vt 0.633467972 0.587625027
vt 0.536816001 0.597144008
vt 0.534927011 0.570852995
vt 0.633176982 0.560627997
vt 0.533896983 0.551250994
vt 0.633354008 0.540300012
vt 0.779928982 0.566769004
vt 0.782074988 0.546144009
vt 0.777079999 0.594008982
vt 0.835411012 0.56782198
vt 0.84138602 0.548942029
vt 0.774932981 0.614634991
vt 0.827934027 0.593671024
vt 0.879006982 0.580438018
vt 0.887974024 0.564436018
vt 0.821959972 0.612550974
vt 0.867421985 0.602181971
vt 0.924077988 0.611503005
vt 0.936762989 0.599587977
vt 0.977383971 0.650386989
vt 0.858453989 0.61818397
vt 0.907306015 0.627137005
vt 0.894621015 0.639052987
vt 0.853622973 0.911257029
vt 0.816703975 0.914599001
vt 0.766869009 0.909901977
vt 0.621958017 0.906193018
vt 0.619849026 0.92603898
vt 0.524114013 0.907835007
vt 0.767844975 0.930674016
vt 0.821264982 0.933977008
vt 0.617407978 0.952907026
vt 0.520168006 0.933458984
vt 0.517314017 0.952486992
vt 0.615297973 0.972751975
vt 0.770244002 0.979279995
vt 0.76926899 0.958507001
vt 0.831671 0.97865802
vt 0.827111006 0.959281027
vt 0.880847991 0.964161992
vt 0.872609973 0.948131025
vt 0.938174009 0.934408009
vt 0.861860991 0.927287996
vt 0.92395401 0.920831978
vt 0.979510009 0.878871977
vt 0.904844999 0.903114974
vt 0.961019993 0.87291503
vt 0.978716016 0.763077974
vt 0.962643981 0.763884008
vt 0.890625 0.889539003
vt 0.936749995 0.86512202
vt 0.960292995 0.656229019
vt 0.918259978 0.859166026
vt 0.941109002 0.764432013
vt 0.937645972 0.663764
vt 0.925037026 0.765237987
vt 0.920553982 0.66960597
vt 0.893184006 0.460803002
vt 0.992187977 0.442214012
vt 0.992187977 0.162580997
vt 0.89399302 0.143992007
vt 0.76670301 0.142780006
vt 0.765491009 0.461611003
vt 0.714574993 0.127424002
vt 0.713361979 0.476561993
vt 0.674569011 0.125
vt 0.67295301 0.478583008
vt 0.639412999 0.462015003
vt 0.639412999 0.144396007
vt 0.613955021 0.303609997
vt 0.613550007 0.183998004
vt 0.611934006 0.422818005
vt 0.58041501 0.191676006
vt 0.58041501 0.123787999
vt 0.584456027 0.303205997
vt 0.548491001 0.138739005
vt 0.531922996 0.0785290003
vt 0.578395009 0.414332002
vt 0.576373994 0.482219994
vt 0.505657017 0.101562001
vt 0.484239995 0.0506459996
vt 0.544854999 0.46645999
vt 0.526265979 0.526669979
vt 0.464035004 0.0797410011
vt 0.417968988 0.0259969998
vt 0.500808001 0.502424002
vt 0.476965994 0.553340018
vt 0.457569987 0.523437977
vt 0.410290986 0.575969994
vt 0.500808001 0.388065994
vt 0.474541992 0.418372989
vt 0.442214012 0.440194011
vt 0.508081973 0.302397996
vt 0.476563007 0.377963006
vt 0.453529 0.400187999
vt 0.410290986 0.448276013
vt 0.502829015 0.216325
vt 0.481411994 0.301993012
vt 0.423626006 0.418776989
vt 0.477371007 0.184806004
vt 0.478583008 0.226023003
vt 0.455953985 0.202585995
vt 0.446254998 0.162176996
vt 0.427666992 0.183190003
vt 0.415140003 0.153689995
vt 0.399379998 0.178745002
vt 0.404228985 0.0611529984
vt 0.371497989 0.150861993
vt 0.246631995 0.0445850007
vt 0.247439995 0.00781199988
vt 0.394531012 0.422818005
vt 0.143184006 0.0470100008
vt 0.142376006 0.0106410002
vt 0.244611993 0.137931004
vt 0.155306995 0.143184006
vt 0.162176996 0.176320001
vt 0.360991001 0.181169003
vt 0.244207993 0.169854
vt 0.367053002 0.449488014
vt 0.242996007 0.426858991
vt 0.356950015 0.418776989
vt 0.397763997 0.540005028
vt 0.162984997 0.418372989
vt 0.132678002 0.169046
vt 0.242186993 0.458781987
vt 0.133082002 0.425646007
vt 0.0437770002 0.43898201
vt 0.0433729999 0.156114995
vt 0.00781199988 0.440598011
vt 0.00781199988 0.154902995
vt 0.154498994 0.451103985
vt 0.240571007 0.552128017
vt 0.240167007 0.588900983
vt 0.137931004 0.545662999
vt 0.135506004 0.582031012
vn 0.651921093 -0.425178468 -0.627871096
vn 0.731578529 -0.425177604 -0.532932222
vn 0.735091865 -0.431916267 -0.522578478
vn 0.642335653 -0.431931138 -0.633119583
vn 0.751107037 -0.401550472 -0.524018526
vn 0.646612406 -0.401573002 -0.64856118
vn 0.661129117 -0.358082145 -0.659306824
vn 0.764063418 -0.358073622 -0.536647379
vn 0.765203118 -0.0462138355 -0.64212811
vn 0.617678046 0.295478195 -0.728811681
vn 0.824825823 0.295991749 -0.48171705
vn 0.737340152 -0.431380749 -0.51984632
vn 0.731578529 -0.425177604 -0.532932222
vn 0.651921093 -0.425178468 -0.627871096
vn 0.639976859 -0.431376845 -0.635880172
vn 0.569212258 -0.59365356 -0.568834603
vn 0.659053504 -0.59367919 -0.461728781
vn 0.569212258 -0.59365356 -0.568834603
vn 0.0983131602 -0.948800504 0.300186813
vn 0.659053504 -0.59367919 -0.461728781
vn -0.278672069 -0.948770106 -0.148919851
vn -0.310413361 -0.699577451 0.643610895
vn -0.68782866 -0.699524939 0.193795428
vn -0.698070943 0.232681453 0.677167952
vn -0.788058281 0.232644916 0.56994772
vn -0.647012889 0.411384791 0.64197886
vn 0.473840088 0.0119284689 0.880530119
vn -0.310413361 -0.699577451 0.643610895
vn 0.0983131602 -0.948800504 0.300186813
vn 0.7365219 -0.147995725 0.660024822
vn 0.659053504 -0.59367919 -0.461728781
vn 0.737340152 -0.431380749 -0.51984632
vn 0.737164736 -0.131033853 0.662886381
vn 0.731578529 -0.425177604 -0.532932222
vn 0.486144394 0.0217181221 0.873608589
vn 0.703797936 -0.206573784 0.67970258
vn 0.735091865 -0.431916267 -0.522578478
vn -0.654263794 0.418314904 0.630040944
vn 0.454109401 -0.0546403788 0.889268816
vn 0.830507815 0.155021459 0.535000145
vn 0.751107037 -0.401550472 -0.524018526
vn -0.649864912 0.410638422 0.639571548
vn 0.553642988 0.323690802 0.767270267
vn 0.831645012 0.476020485 0.285956264
vn 0.764063418 -0.358073622 -0.536647379
vn 0.824825823 0.295991749 -0.48171705
vn -0.632691562 0.440328896 0.637033701
vn 0.541004598 0.652919888 0.530103326
vn -0.616479754 0.482985348 0.621834219
vn -0.73716116 0.440349817 0.512528419
vn -0.742684901 0.410615295 0.528974593
vn -0.734049261 0.418310016 0.534965754
vn -0.744520009 0.41140151 0.525774419
vn -0.784954011 0.0120801963 -0.619436264
vn -0.68782866 -0.699524939 0.193795428
vn -0.775975525 0.0216409266 -0.630391777
vn -0.796776175 -0.054893855 -0.601775944
vn -0.522454917 -0.147804737 -0.839758694
vn -0.278672069 -0.948770106 -0.148919851
vn 0.569212258 -0.59365356 -0.568834603
vn 0.639976859 -0.431376845 -0.635880172
vn 0.651921093 -0.425178468 -0.627871096
vn -0.525181472 -0.130821079 -0.840874672
vn 0.642335653 -0.431931138 -0.633119583
vn -0.547038853 -0.206599846 -0.811212122
vn 0.646612406 -0.401573002 -0.64856118
vn -0.382305533 0.155174136 -0.910913527
vn 0.661129117 -0.358082145 -0.659306824
vn -0.659141183 0.323617816 -0.678825796
vn -0.137413889 0.476200551 -0.868533552
vn 0.617678046 0.295478195 -0.728811681
vn -0.428296477 0.652974367 -0.624649227
vn 0.270738184 0.783127248 -0.559832633
vn 0.765203118 -0.0462138355 -0.64212811
vn 0.443392038 0.815445542 -0.372091621
vn -0.719383955 0.482976973 0.499219447
vn 0.0156725962 0.938148201 -0.345878869
vn 0.598342717 0.783088088 -0.169584587
vn -0.393588662 0.91143024 0.119928703
vn 0.192835435 0.967812955 -0.161717385
vn 0.343263954 0.938187957 0.0444201082
vn -0.519282281 0.735197723 0.435695201
vn -0.186404839 0.911326289 0.367066324
vn 0.48082599 -0.723859131 -0.494807422
vn 0.570783675 -0.723816037 -0.387680829
vn 0.669468105 -0.58094418 -0.462943107
vn 0.572072268 -0.580935836 -0.579005003
vn 0.584757984 -0.575578928 -0.571635425
vn 0.664410651 -0.575588644 -0.476713866
vn 0.667025208 -0.581820905 -0.465361923
vn 0.574174166 -0.581858814 -0.575989842
vn 0.686824024 -0.554228187 -0.47021693
vn 0.582321405 -0.554228067 -0.594754577
vn 0.602923214 -0.513667226 -0.610433936
vn 0.705828369 -0.513679564 -0.487790376
vn 0.7474733 -0.218872681 -0.627198875
vn 0.646457076 0.125857562 -0.752497971
vn 0.853312075 0.12693812 -0.505712688
vn 0.48082599 -0.723859131 -0.494807422
vn -0.025817994 -0.914073825 0.404725224
vn 0.570783675 -0.723816037 -0.387680829
vn -0.402962118 -0.914131463 -0.0445541702
vn -0.396239311 -0.575250804 0.715598345
vn -0.773544431 -0.575229704 0.265969664
vn -0.65591681 0.397452921 0.641719878
vn -0.745883703 0.397452593 0.534498751
vn -0.581831038 0.56273371 0.587199509
vn 0.47737205 0.047397349 0.877422035
vn -0.396239311 -0.575250804 0.715598345
vn -0.025817994 -0.914073825 0.404725224
vn 0.715003252 -0.169654697 0.678223908
vn 0.570783675 -0.723816037 -0.387680829
vn 0.669468105 -0.58094418 -0.462943107
vn 0.717902243 -0.152879179 0.679149806
vn 0.664410651 -0.575588644 -0.476713866
vn 0.491020828 0.054500591 0.86944133
vn 0.675028861 -0.220791981 0.703979373
vn 0.667025208 -0.581820905 -0.465361923
vn -0.588168323 0.569230735 0.574486136
vn 0.449420333 -0.0149265025 0.893195689
vn 0.847930789 0.102258645 0.520150483
vn 0.686824024 -0.554228187 -0.47021693
vn -0.584548712 0.562438965 0.584778011
vn 0.597843051 0.330884933 0.730136156
vn 0.889783204 0.38978374 0.237391204
vn 0.705828369 -0.513679564 -0.487790376
vn 0.853312075 0.12693812 -0.505712688
vn -0.56353718 0.589147449 0.57907778
vn 0.627088368 0.630137801 0.457915395
vn -0.542254567 0.626833558 0.559499621
vn -0.668111265 0.589120507 0.454493523
vn -0.677415967 0.562416017 0.474126458
vn -0.667921603 0.569231689 0.47943303
vn -0.679332316 0.562748134 0.470980018
vn -0.780927181 0.0472963341 -0.62282902
vn -0.773544431 -0.575229704 0.265969664
vn -0.770773172 0.0542973168 -0.634791732
vn -0.801671088 -0.0154361371 -0.597565949
vn -0.543326974 -0.170044318 -0.822119653
vn -0.402962118 -0.914131463 -0.0445541702
vn 0.48082599 -0.723859131 -0.494807422
vn 0.572072268 -0.580935836 -0.579005003
vn 0.584757984 -0.575578928 -0.571635425
vn -0.543994486 -0.152902573 -0.825039923
vn 0.574174166 -0.581858814 -0.575989842
vn -0.576138854 -0.221405119 -0.786793351
vn 0.582321405 -0.554228067 -0.594754577
vn -0.365448326 0.102101922 -0.925214887
vn 0.602923214 -0.513667226 -0.610433936
vn -0.615457535 0.330810875 -0.715385377
vn -0.0791636929 0.390102655 -0.917361915
vn 0.646457076 0.125857562 -0.752497971
vn -0.342044264 0.630456984 -0.696799636
vn 0.368637323 0.672103465 -0.642170906
vn 0.7474733 -0.218872681 -0.627198875
vn 0.545680702 0.701910675 -0.457770646
vn -0.645103037 0.62686944 0.436894208
vn 0.137706444 0.882963479 -0.448790073
vn 0.696456254 0.672086835 -0.251491606
vn -0.268283099 0.963225126 0.0148848537
vn 0.318852037 0.909244299 -0.26759699
vn 0.46590969 0.882930815 -0.0579780452
vn -0.413149357 0.842068672 0.346739143
vn -0.0612711757 0.963211477 0.261666715
vn -0.678686857 0.0649749115 0.731547832
vn -0.667055011 -0.255282015 0.69990623
vn -0.805058897 -0.255255759 0.53546685
vn -0.838354111 0.0649456009 0.541243553
vn -0.828414142 0.0798350647 0.554397225
vn -0.689932585 0.0798468217 0.719456434
vn -0.8361727 0.0676724389 0.544275343
vn -0.681238294 0.0676735565 0.728927016
vn -0.839521945 0.126142204 0.528480053
vn -0.66609025 0.126157746 0.735124469
vn -0.655310035 0.209414974 0.725750744
vn -0.828514993 0.209509492 0.519296288
vn -0.541978538 0.706779659 0.454666704
vn -0.370662868 0.928767443 -0.000174819332
vn -0.0642171502 0.928791523 0.364996672
vn 0.0164457671 0.934784353 -0.354835004
vn -0.828514993 0.209509492 0.519296288
vn 0.18106845 0.971666515 -0.151915267
vn -0.328935713 0.638480008 -0.695805013
vn -0.839521945 0.126142204 0.528480053
vn 0.352365732 0.934757888 0.0454546027
vn -0.655310035 0.209414974 0.725750744
vn -0.518606961 0.268274516 -0.811834753
vn -0.8361727 0.0676724389 0.544275343
vn 0.628233373 0.63825804 0.444915205
vn -0.66609025 0.126157746 0.735124469
vn -0.601511657 -0.154114902 -0.783857346
vn -0.828414142 0.0798350647 0.554397225
vn 0.709585786 0.267900884 0.651703358
vn -0.681238294 0.0676735565 0.728927016
vn 0.667536795 -0.153984725 0.728480101
vn -0.689932585 0.0798468217 0.719456434
vn 0.456412494 0.888022065 -0.0557167977
vn 0.749700904 0.590800166 0.298167378
vn 0.843477488 0.224500179 0.488001525
vn 0.295682371 0.9225142 -0.248071447
vn 0.697212517 0.620831072 -0.358417988
vn 0.84173125 0.0306850448 -0.539023995
vn 0.801984668 -0.17605339 0.570811629
vn 0.134003669 0.888013303 -0.439858377
vn 0.697942317 0.412358075 -0.585523069
vn 0.844733298 -0.0509074368 -0.532760859
vn -0.163397864 0.591010749 -0.78994137
vn 0.474186927 0.620691717 -0.62441057
vn 0.677143395 0.0306141153 -0.735213995
vn -0.333896399 0.224968627 -0.915370107
vn 0.671474934 -0.0508008823 -0.73928386
vn -0.422905624 -0.176238775 -0.888870418
vn 0.678003311 -0.10755644 -0.727147222
vn -0.600486577 -0.070722051 -0.796501279
vn -0.418332666 -0.0818817765 -0.904595613
vn -0.589178801 -0.0871701017 -0.80328685
vn -0.838354111 0.0649456009 0.541243553
vn 0.833803594 -0.107471526 -0.541499138
vn -0.180992439 -0.947154701 -0.264839232
vn -0.805058897 -0.255255759 0.53546685
vn -0.414515942 -0.0993044525 -0.904607713
vn -0.00318113249 -0.919080734 -0.39405641
vn 0.637798369 -0.38428697 -0.667485476
vn 0.691128731 -0.0926191732 -0.716772437
vn 0.67620641 -0.107842736 -0.728776157
vn 0.818206072 -0.0817825943 0.569078624
vn 0.835141718 -0.107842848 -0.539359033
vn 0.825835884 -0.0926035047 -0.556255162
vn 0.68008846 -0.0706318021 0.729719698
vn 0.76813513 -0.384240448 -0.512179315
vn -0.00318113249 -0.919080734 -0.39405641
vn 0.818800986 -0.0991219506 0.565455317
vn 0.387534142 -0.919077814 0.0715062395
vn 0.22941184 -0.947159827 0.224184066
vn -0.180992439 -0.947154701 -0.264839232
vn -0.667055011 -0.255282015 0.69990623
vn -0.805058897 -0.255255759 0.53546685
vn 0.387534142 -0.919077814 0.0715062395
vn 0.688770831 -0.0869712979 0.71974355
vn -0.678686857 0.0649749115 0.731547832
vn 0.22941184 -0.947159827 0.224184066
vn -0.667055011 -0.255282015 0.69990623
g liangshi_0
f 3/3/3 2/2/2 1/1/1
f 4/4/4 3/3/3 1/1/1
f 5/5/5 3/3/3 4/4/4
f 6/6/6 5/5/5 4/4/4
f 6/6/6 7/7/7 5/5/5
f 7/7/7 8/8/8 5/5/5
f 9/9/9 8/8/8 7/7/7
f 10/10/10 9/9/9 7/7/7
f 11/11/11 8/8/8 9/9/9
f 14/14/14 13/13/13 12/12/12
f 15/15/15 14/14/14 12/12/12
f 15/15/15 12/12/12 16/16/16
f 12/12/12 17/17/17 16/16/16
f 20/20/20 19/19/19 18/18/18
f 19/19/19 21/21/21 18/18/18
f 21/21/21 19/19/19 22/22/22
f 23/23/23 21/21/21 22/22/22
f 23/23/23 22/22/22 24/24/24
f 25/25/25 23/23/23 24/24/24
f 25/25/25 24/24/24 26/26/26
f 26/26/26 24/24/24 27/27/27
f 24/24/24 28/28/28 27/27/27
f 27/27/27 28/28/28 29/29/29
f 30/30/30 27/27/27 29/29/29
f 30/30/30 29/29/29 31/31/31
f 32/32/32 30/30/30 31/31/31
f 33/33/33 30/30/30 32/32/32
f 34/34/34 33/33/33 32/32/32
f 27/27/27 30/30/30 35/35/35
f 30/30/30 33/33/33 35/35/35
f 36/36/36 33/33/33 34/34/34
f 37/37/37 36/36/36 34/34/34
f 26/26/26 27/27/27 38/38/38
f 27/27/27 35/35/35 38/38/38
f 35/35/35 33/33/33 39/39/39
f 33/33/33 36/36/36 39/39/39
f 40/40/40 36/36/36 37/37/37
f 41/41/41 40/40/40 37/37/37
f 38/38/38 35/35/35 42/42/42
f 35/35/35 39/39/39 42/42/42
f 43/43/43 39/39/39 36/36/36
f 40/40/40 43/43/43 36/36/36
f 44/44/44 40/40/40 41/41/41
f 45/45/45 44/44/44 41/41/41
f 45/45/45 46/46/46 44/44/44
f 42/42/42 39/39/39 47/47/47
f 39/39/39 43/43/43 47/47/47
f 43/43/43 40/40/40 48/48/48
f 40/40/40 44/44/44 48/48/48
f 47/47/47 43/43/43 49/49/49
f 43/43/43 48/48/48 49/49/49
f 47/47/47 50/50/50 42/42/42
f 47/47/47 49/49/49 50/50/50
f 42/42/42 51/51/51 38/38/38
f 50/50/50 51/51/51 42/42/42
f 51/51/51 52/52/52 38/38/38
f 26/26/26 38/38/38 52/52/52
f 53/53/53 26/26/26 52/52/52
f 53/53/53 25/25/25 26/26/26
f 53/53/53 54/54/54 25/25/25
f 54/54/54 55/55/55 25/25/25
f 52/52/52 56/56/56 53/53/53
f 56/56/56 54/54/54 53/53/53
f 51/51/51 57/57/57 52/52/52
f 57/57/57 56/56/56 52/52/52
f 54/54/54 58/58/58 55/55/55
f 58/58/58 59/59/59 55/55/55
f 60/60/60 59/59/59 58/58/58
f 61/61/61 60/60/60 58/58/58
f 61/61/61 58/58/58 62/62/62
f 58/58/58 54/54/54 63/63/63
f 58/58/58 63/63/63 62/62/62
f 54/54/54 56/56/56 63/63/63
f 62/62/62 63/63/63 64/64/64
f 65/65/65 63/63/63 56/56/56
f 63/63/63 65/65/65 64/64/64
f 57/57/57 65/65/65 56/56/56
f 64/64/64 65/65/65 66/66/66
f 65/65/65 67/67/67 66/66/66
f 65/65/65 57/57/57 67/67/67
f 66/66/66 67/67/67 68/68/68
f 57/57/57 69/69/69 67/67/67
f 69/69/69 57/57/57 51/51/51
f 50/50/50 69/69/69 51/51/51
f 67/67/67 70/70/70 68/68/68
f 70/70/70 67/67/67 69/69/69
f 68/68/68 70/70/70 71/71/71
f 72/72/72 69/69/69 50/50/50
f 72/72/72 70/70/70 69/69/69
f 70/70/70 73/73/73 71/71/71
f 73/73/73 70/70/70 72/72/72
f 71/71/71 73/73/73 74/74/74
f 73/73/73 75/75/75 74/74/74
f 74/74/74 75/75/75 46/46/46
f 76/76/76 72/72/72 50/50/50
f 49/49/49 76/76/76 50/50/50
f 77/77/77 73/73/73 72/72/72
f 75/75/75 73/73/73 77/77/77
f 75/75/75 78/78/78 46/46/46
f 46/46/46 78/78/78 44/44/44
f 76/76/76 79/79/79 72/72/72
f 79/79/79 77/77/77 72/72/72
f 80/80/80 75/75/75 77/77/77
f 75/75/75 80/80/80 78/78/78
f 80/80/80 77/77/77 79/79/79
f 78/78/78 81/81/81 44/44/44
f 80/80/80 81/81/81 78/78/78
f 81/81/81 48/48/48 44/44/44
f 79/79/79 76/76/76 82/82/82
f 82/82/82 80/80/80 79/79/79
f 82/82/82 76/76/76 49/49/49
f 81/81/81 80/80/80 82/82/82
f 48/48/48 81/81/81 83/83/83
f 49/49/49 48/48/48 83/83/83
f 83/83/83 82/82/82 49/49/49
f 83/83/83 81/81/81 82/82/82
f 86/86/86 85/85/85 84/84/84
f 87/87/87 86/86/86 84/84/84
f 87/87/87 88/88/88 86/86/86
f 88/88/88 89/89/89 86/86/86
f 90/90/90 89/89/89 88/88/88
f 91/91/91 90/90/90 88/88/88
f 92/92/92 90/90/90 91/91/91
f 93/93/93 92/92/92 91/91/91
f 93/93/93 94/94/94 92/92/92
f 94/94/94 95/95/95 92/92/92
f 96/96/96 95/95/95 94/94/94
f 97/97/97 96/96/96 94/94/94
f 98/98/98 95/95/95 96/96/96
f 101/101/101 100/100/100 99/99/99
f 100/100/100 102/102/102 99/99/99
f 102/102/102 100/100/100 103/103/103
f 104/104/104 102/102/102 103/103/103
f 104/104/104 103/103/103 105/105/105
f 106/106/106 104/104/104 105/105/105
f 106/106/106 105/105/105 107/107/107
f 107/107/107 105/105/105 108/108/108
f 105/105/105 109/109/109 108/108/108
f 108/108/108 109/109/109 110/110/110
f 111/111/111 108/108/108 110/110/110
f 111/111/111 110/110/110 112/112/112
f 113/113/113 111/111/111 112/112/112
f 114/114/114 111/111/111 113/113/113
f 115/115/115 114/114/114 113/113/113
f 108/108/108 111/111/111 116/116/116
f 111/111/111 114/114/114 116/116/116
f 117/117/117 114/114/114 115/115/115
f 118/118/118 117/117/117 115/115/115
f 107/107/107 108/108/108 119/119/119
f 108/108/108 116/116/116 119/119/119
f 116/116/116 114/114/114 120/120/120
f 114/114/114 117/117/117 120/120/120
f 121/121/121 117/117/117 118/118/118
f 122/122/122 121/121/121 118/118/118
f 119/119/119 116/116/116 123/123/123
f 116/116/116 120/120/120 123/123/123
f 124/124/124 120/120/120 117/117/117
f 121/121/121 124/124/124 117/117/117
f 125/125/125 121/121/121 122/122/122
f 126/126/126 125/125/125 122/122/122
f 126/126/126 127/127/127 125/125/125
f 123/123/123 120/120/120 128/128/128
f 120/120/120 124/124/124 128/128/128
f 124/124/124 121/121/121 129/129/129
f 121/121/121 125/125/125 129/129/129
f 128/128/128 124/124/124 130/130/130
f 124/124/124 129/129/129 130/130/130
f 128/128/128 131/131/131 123/123/123
f 128/128/128 130/130/130 131/131/131
f 123/123/123 132/132/132 119/119/119
f 131/131/131 132/132/132 123/123/123
f 132/132/132 133/133/133 119/119/119
f 107/107/107 119/119/119 133/133/133
f 134/134/134 107/107/107 133/133/133
f 134/134/134 106/106/106 107/107/107
f 134/134/134 135/135/135 106/106/106
f 135/135/135 136/136/136 106/106/106
f 133/133/133 137/137/137 134/134/134
f 137/137/137 135/135/135 134/134/134
f 132/132/132 138/138/138 133/133/133
f 138/138/138 137/137/137 133/133/133
f 135/135/135 139/139/139 136/136/136
f 139/139/139 140/140/140 136/136/136
f 141/141/141 140/140/140 139/139/139
f 142/142/142 141/141/141 139/139/139
f 142/142/142 139/139/139 143/143/143
f 139/139/139 135/135/135 144/144/144
f 139/139/139 144/144/144 143/143/143
f 135/135/135 137/137/137 144/144/144
f 143/143/143 144/144/144 145/145/145
f 146/146/146 144/144/144 137/137/137
f 144/144/144 146/146/146 145/145/145
f 138/138/138 146/146/146 137/137/137
f 145/145/145 146/146/146 147/147/147
f 146/146/146 148/148/148 147/147/147
f 146/146/146 138/138/138 148/148/148
f 147/147/147 148/148/148 149/149/149
f 138/138/138 150/150/150 148/148/148
f 150/150/150 138/138/138 132/132/132
f 131/131/131 150/150/150 132/132/132
f 148/148/148 151/151/151 149/149/149
f 151/151/151 148/148/148 150/150/150
f 149/149/149 151/151/151 152/152/152
f 153/153/153 150/150/150 131/131/131
f 153/153/153 151/151/151 150/150/150
f 151/151/151 154/154/154 152/152/152
f 154/154/154 151/151/151 153/153/153
f 152/152/152 154/154/154 155/155/155
f 154/154/154 156/156/156 155/155/155
f 155/155/155 156/156/156 127/127/127
f 157/157/157 153/153/153 131/131/131
f 130/130/130 157/157/157 131/131/131
f 158/158/158 154/154/154 153/153/153
f 156/156/156 154/154/154 158/158/158
f 156/156/156 159/159/159 127/127/127
f 127/127/127 159/159/159 125/125/125
f 157/157/157 160/160/160 153/153/153
f 160/160/160 158/158/158 153/153/153
f 161/161/161 156/156/156 158/158/158
f 156/156/156 161/161/161 159/159/159
f 161/161/161 158/158/158 160/160/160
f 159/159/159 162/162/162 125/125/125
f 161/161/161 162/162/162 159/159/159
f 162/162/162 129/129/129 125/125/125
f 160/160/160 157/157/157 163/163/163
f 163/163/163 161/161/161 160/160/160
f 163/163/163 157/157/157 130/130/130
f 162/162/162 161/161/161 163/163/163
f 129/129/129 162/162/162 164/164/164
f 130/130/130 129/129/129 164/164/164
f 164/164/164 163/163/163 130/130/130
f 164/164/164 162/162/162 163/163/163
f 167/167/167 166/166/166 165/165/165
f 168/168/168 167/167/167 165/165/165
f 168/168/168 165/165/165 169/169/169
f 165/165/165 170/170/170 169/169/169
f 171/171/171 169/169/169 170/170/170
f 172/172/172 171/171/171 170/170/170
f 173/173/173 171/171/171 172/172/172
f 174/174/174 173/173/173 172/172/172
f 174/174/174 175/175/175 173/173/173
f 175/175/175 176/176/176 173/173/173
f 177/177/177 176/176/176 175/175/175
f 178/178/178 176/176/176 177/177/177
f 179/179/179 177/177/177 175/175/175
f 180/180/180 178/178/178 177/177/177
f 178/178/178 180/180/180 181/181/181
f 182/182/182 177/177/177 179/179/179
f 182/182/182 180/180/180 177/177/177
f 180/180/180 183/183/183 181/181/181
f 181/181/181 183/183/183 184/184/184
f 185/185/185 182/182/182 179/179/179
f 185/185/185 179/179/179 186/186/186
f 183/183/183 187/187/187 184/184/184
f 184/184/184 187/187/187 188/188/188
f 189/189/189 185/185/185 186/186/186
f 189/189/189 186/186/186 190/190/190
f 187/187/187 191/191/191 188/188/188
f 188/188/188 191/191/191 192/192/192
f 193/193/193 189/189/189 190/190/190
f 193/193/193 190/190/190 194/194/194
f 195/195/195 193/193/193 194/194/194
f 195/195/195 194/194/194 196/196/196
f 185/185/185 197/197/197 182/182/182
f 189/189/189 198/198/198 185/185/185
f 198/198/198 197/197/197 185/185/185
f 193/193/193 199/199/199 189/189/189
f 199/199/199 198/198/198 189/189/189
f 197/197/197 200/200/200 182/182/182
f 182/182/182 200/200/200 180/180/180
f 197/197/197 198/198/198 201/201/201
f 200/200/200 197/197/197 201/201/201
f 198/198/198 202/202/202 201/201/201
f 198/198/198 199/199/199 202/202/202
f 203/203/203 199/199/199 193/193/193
f 195/195/195 203/203/203 193/193/193
f 200/200/200 204/204/204 180/180/180
f 180/180/180 204/204/204 183/183/183
f 205/205/205 200/200/200 201/201/201
f 201/201/201 202/202/202 205/205/205
f 199/199/199 206/206/206 202/202/202
f 199/199/199 203/203/203 206/206/206
f 204/204/204 207/207/207 183/183/183
f 183/183/183 207/207/207 187/187/187
f 204/204/204 200/200/200 208/208/208
f 200/200/200 205/205/205 208/208/208
f 207/207/207 204/204/204 208/208/208
f 205/205/205 202/202/202 209/209/209
f 208/208/208 205/205/205 209/209/209
f 209/209/209 202/202/202 206/206/206
f 209/209/209 207/207/207 208/208/208
f 207/207/207 210/210/210 187/187/187
f 187/187/187 210/210/210 191/191/191
f 207/207/207 209/209/209 211/211/211
f 210/210/210 207/207/207 211/211/211
f 211/211/211 209/209/209 206/206/206
f 210/210/210 212/212/212 191/191/191
f 212/212/212 210/210/210 211/211/211
f 211/211/211 206/206/206 213/213/213
f 213/213/213 212/212/212 211/211/211
f 191/191/191 212/212/212 214/214/214
f 191/191/191 214/214/214 192/192/192
f 212/212/212 215/215/215 214/214/214
f 215/215/215 212/212/212 213/213/213
f 214/214/214 216/216/216 192/192/192
f 214/214/214 215/215/215 216/216/216
f 216/216/216 217/217/217 192/192/192
f 206/206/206 218/218/218 213/213/213
f 203/203/203 218/218/218 206/206/206
f 216/216/216 219/219/219 217/217/217
f 219/219/219 220/220/220 217/217/217
f 216/216/216 221/221/221 219/219/219
f 215/215/215 221/221/221 216/216/216
f 221/221/221 222/222/222 219/219/219
f 222/222/222 221/221/221 223/223/223
f 224/224/224 215/215/215 213/213/213
f 213/213/213 218/218/218 224/224/224
f 221/221/221 215/215/215 225/225/225
f 221/221/221 225/225/225 223/223/223
f 215/215/215 224/224/224 225/225/225
f 203/203/203 226/226/226 218/218/218
f 226/226/226 203/203/203 195/195/195
f 225/225/225 227/227/227 223/223/223
f 225/225/225 224/224/224 227/227/227
f 218/218/218 228/228/228 224/224/224
f 226/226/226 228/228/228 218/218/218
f 224/224/224 228/228/228 227/227/227
f 228/228/228 226/226/226 227/227/227
f 229/229/229 226/226/226 195/195/195
f 229/229/229 195/195/195 196/196/196
f 227/227/227 230/230/230 223/223/223
f 231/231/231 223/223/223 230/230/230
f 226/226/226 232/232/232 227/227/227
f 232/232/232 226/226/226 229/229/229
f 227/227/227 232/232/232 230/230/230
f 233/233/233 231/231/231 230/230/230
f 231/231/231 233/233/233 234/234/234
f 235/235/235 231/231/231 234/234/234
f 235/235/235 234/234/234 236/236/236
f 237/237/237 235/235/235 236/236/236
f 232/232/232 238/238/238 230/230/230
f 239/239/239 229/229/229 196/196/196
f 239/239/239 232/232/232 229/229/229
f 238/238/238 232/232/232 239/239/239
f 240/240/240 239/239/239 196/196/196
f 241/241/241 238/238/238 239/239/239
f 241/241/241 239/239/239 240/240/240
f 242/242/242 241/241/241 240/240/240
