g Plane010
v -0.0110952212 -0.00068147853 -5.00000006E-08
v -0.010961039 -0.000372825627 -5.00000006E-08
v -0.0120154135 -0.000290012365 -5.00000006E-08
v -0.0118745277 3.40404513E-05 -5.00000006E-08
v -0.0108268727 -8.01963834E-05 -5.00000006E-08
v -0.0117307231 0.000347650552 -5.00000006E-08
v -0.0106928656 0.000192590727 -5.00000006E-08
v -0.0115831271 0.000648042711 -5.00000006E-08
v -0.0105594695 0.000441532145 -5.00000006E-08
v -0.0114305764 0.000932626775 -5.00000006E-08
v -0.0104276082 0.000662399339 -5.00000006E-08
v -0.0112714171 0.00119904138 -5.00000006E-08
v -0.0102990139 0.000850751938 -5.00000006E-08
v -0.0111031979 0.00144513324 -5.00000006E-08
v -0.010176735 0.00100214768 -5.00000006E-08
v -0.0109221442 0.00166875462 -5.00000006E-08
v -0.0100658135 0.00111286354 -5.00000006E-08
v -0.0107224928 0.00186703308 -5.00000006E-08
v -0.00997354649 0.00118187338 -5.00000006E-08
v -0.0104962215 0.00203440478 -5.00000006E-08
v -0.00990705565 0.00121446617 -5.00000006E-08
v -0.0102354912 0.00215899106 -5.00000006E-08
v -0.00986459292 0.00122389232 -5.00000006E-08
v -0.00994131807 0.00222094543 -5.00000006E-08
v -0.0099264821 0.00123528298 -5.00000006E-08
v -0.00955049414 0.00216190726 -5.00000006E-08
v -0.00990393106 0.00121648028 -5.00000006E-08
v -0.00924658589 0.00197006995 -5.00000006E-08
v -0.00980463997 0.00110808376 -5.00000006E-08
v -0.00901951827 0.00172742666 -5.00000006E-08
v -0.00967328437 0.000918746984 -5.00000006E-08
v -0.00882588141 0.00144969951 -5.00000006E-08
v -0.00952876452 0.000668083201 -5.00000006E-08
v -0.00864800252 0.00114164362 -5.00000006E-08
v -0.00937893335 0.000373548537 -5.00000006E-08
v -0.00847929064 0.00081017497 -5.00000006E-08
v -0.00922747795 5.0298695E-05 -5.00000006E-08
v -0.00831729639 0.000464509998 -5.00000006E-08
v -0.0090763662 -0.000287984876 -5.00000006E-08
v -0.00816130918 0.000115341194 -5.00000006E-08
v -0.00892668217 -0.000628639245 -5.00000006E-08
v -0.00801148638 -0.000225629818 -5.00000006E-08
v -0.008778858 -0.000959917088 -5.00000006E-08
v -0.00786864664 -0.000545772607 -5.00000006E-08
v -0.00863245595 -0.00127128221 -5.00000006E-08
v -0.00773447286 -0.00083125307 -5.00000006E-08
v -0.00848518312 -0.00155436713 -5.00000006E-08
v -0.00761250639 -0.00106606865 -5.00000006E-08
v -0.00832927506 -0.00180546392 -5.00000006E-08
v -0.00751176151 -0.00122955523 -5.00000006E-08
v -0.00813617185 -0.00203026598 -5.00000006E-08
v -0.00746204564 -0.00129164895 -5.00000006E-08
v -0.0077975872 -0.00221558777 -5.00000006E-08
v -0.00757288933 -0.00124115951 -5.00000006E-08
v -0.00733178854 -0.00214460585 -5.00000006E-08
v -0.00782448705 -0.00127440644 -5.00000006E-08
v -0.00708259875 -0.00192923937 -5.00000006E-08
v -0.00785113871 -0.00128943636 -5.00000006E-08
v -0.00692052348 -0.0016953412 -5.00000006E-08
v -0.00777978869 -0.00118380936 -5.00000006E-08
v -0.00677976431 -0.00143359578 -5.00000006E-08
v -0.00767611433 -0.000990249682 -5.00000006E-08
v -0.00664345501 -0.00114159775 -5.00000006E-08
v -0.00755686872 -0.0007345677 -5.00000006E-08
v -0.00650635222 -0.000824754767 -5.00000006E-08
v -0.00742717274 -0.000434768706 -5.00000006E-08
v -0.00636656117 -0.000491970102 -5.00000006E-08
v -0.00728880148 -0.00010535241 -5.00000006E-08
v -0.00622346345 -0.000153860106 -5.00000006E-08
v -0.00714225601 0.000240882888 -5.00000006E-08
v -0.00607716292 0.000177917493 -5.00000006E-08
v -0.0069873156 0.000592189841 -5.00000006E-08
v -0.00592846796 0.000490814215 -5.00000006E-08
v -0.00682305358 0.000937709876 -5.00000006E-08
v -0.00577930082 0.000771259365 -5.00000006E-08
v -0.00664742617 0.00126760302 -5.00000006E-08
v -0.00563383894 0.00100432977 -5.00000006E-08
v -0.00645613903 0.00157338532 -5.00000006E-08
v -0.00550133036 0.00117370801 -5.00000006E-08
v -0.006239824 0.00184796727 -5.00000006E-08
v -0.00540207233 0.00126493839 -5.00000006E-08
v -0.00597806694 0.00208239187 -5.00000006E-08
v -0.00536974519 0.00128383457 -5.00000006E-08
v -0.00563707156 0.0022474404 -5.00000006E-08
v -0.00538535509 0.00128153421 -5.00000006E-08
v -0.00522679184 0.00226888293 -5.00000006E-08
v -0.00535878213 0.00127034576 -5.00000006E-08
v -0.00485114008 0.00213191425 -5.00000006E-08
v -0.00528593967 0.00120916369 -5.00000006E-08
v -0.00456289202 0.00189996348 -5.00000006E-08
v -0.00517989974 0.00107224274 -5.00000006E-08
v -0.00434411503 0.00162129977 -5.00000006E-08
v -0.00506240362 0.000865182898 -5.00000006E-08
v -0.00416819658 0.00131283572 -5.00000006E-08
v -0.00494466163 0.000603288703 -5.00000006E-08
v -0.00401906483 0.000981798163 -5.00000006E-08
v -0.00483068638 0.000302028668 -5.00000006E-08
v -0.00388783426 0.000635240576 -5.00000006E-08
v -0.00472103618 -2.45876327E-05 -5.00000006E-08
v -0.00376908807 0.000281671528 -5.00000006E-08
v -0.0046146051 -0.000363889703 -5.00000006E-08
v -0.0036590579 -6.90517481E-05 -5.00000006E-08
v -0.00450935122 -0.000704368635 -5.00000006E-08
v -0.00355492416 -0.00040592195 -5.00000006E-08
v -0.00440241955 -0.00103573035 -5.00000006E-08
v -0.00345467241 -0.000716707262 -5.00000006E-08
v -0.004289723 -0.00134940725 -5.00000006E-08
v -0.00335752568 -0.000987455365 -5.00000006E-08
v -0.00416430272 -0.00163977244 -5.00000006E-08
v -0.00326557411 -0.00120126735 -5.00000006E-08
v -0.0040108934 -0.00190620054 -5.00000006E-08
v -0.0031892159 -0.00133624848 -5.00000006E-08
v -0.00378902117 -0.00214961264 -5.00000006E-08
v -0.00316406321 -0.00136895373 -5.00000006E-08
v -0.00342402258 -0.00231665629 -5.00000006E-08
v -0.00325990585 -0.00133021548 -5.00000006E-08
v -0.00299698464 -0.0022590314 -5.00000006E-08
v -0.00340944412 -0.00134805497 -5.00000006E-08
v -0.00271141017 -0.00205409247 -5.00000006E-08
v -0.00342426985 -0.00135278516 -5.00000006E-08
v -0.00251806248 -0.00181122974 -5.00000006E-08
v -0.00335092819 -0.00125775533 -5.00000006E-08
v -0.00235957629 -0.00154046447 -5.00000006E-08
v -0.00324502145 -0.00107571983 -5.00000006E-08
v -0.00221489184 -0.00124188047 -5.00000006E-08
v -0.00312584871 -0.000829378143 -5.00000006E-08
v -0.00207604817 -0.000920215622 -5.00000006E-08
v -0.00299961073 -0.000536767999 -5.00000006E-08
v -0.00193944795 -0.000583490415 -5.00000006E-08
v -0.00286814617 -0.000212654122 -5.00000006E-08
v -0.00180319906 -0.000241567628 -5.00000006E-08
v -0.00273158401 0.000130052576 -5.00000006E-08
v -0.00166629895 9.45034044E-05 -5.00000006E-08
v -0.00258916942 0.000479614275 -5.00000006E-08
v -0.00152848032 0.000412706402 -5.00000006E-08
v -0.00243940717 0.000825275434 -5.00000006E-08
v -0.00139051606 0.000699934026 -5.00000006E-08
v -0.00227976334 0.00115736015 -5.00000006E-08
v -0.00125520467 0.000941629463 -5.00000006E-08
v -0.00210568216 0.00146764005 -5.00000006E-08
v -0.00112990127 0.00112152298 -5.00000006E-08
v -0.00190804608 0.00174960913 -5.00000006E-08
v -0.00103227037 0.00122386171 -5.00000006E-08
v -0.00166743132 0.00199624081 -5.00000006E-08
v -0.000995277776 0.00124904444 -5.00000006E-08
v -0.00134911074 0.00218435307 -5.00000006E-08
v -0.00102660025 0.00124584581 -5.00000006E-08
v -0.00094364601 0.00224239752 -5.00000006E-08
v -0.00103609927 0.00124743092 -5.00000006E-08
v -0.000553352584 0.00212319195 -5.00000006E-08
v -0.000992609188 0.00120978546 -5.00000006E-08
v -0.000261791196 0.00189235702 -5.00000006E-08
v -0.000905764115 0.00109151087 -5.00000006E-08
v -5.35738327E-05 0.00161474233 -5.00000006E-08
v -0.000803607458 0.000895816833 -5.00000006E-08
v 0.000106387604 0.00131043443 -5.00000006E-08
v -0.000699772267 0.000640136772 -5.00000006E-08
v 0.000238766152 0.000985311577 -5.00000006E-08
v -0.000598185055 0.000341642386 -5.00000006E-08
v 0.000354532822 0.000645498279 -5.00000006E-08
v -0.000498466601 1.53064739E-05 -5.00000006E-08
v 0.000460350711 0.000299331674 -5.00000006E-08
v -0.000398281991 -0.00032572748 -5.00000006E-08
v 0.000560928951 -4.30374166E-05 -5.00000006E-08
v -0.000294154655 -0.000669803645 -5.00000006E-08
v 0.000659830752 -0.000369949354 -5.00000006E-08
v -0.000181466865 -0.00100678834 -5.00000006E-08
v 0.000759485527 -0.000668249151 -5.00000006E-08
v -5.36526604E-05 -0.00132848741 -5.00000006E-08
v 0.000860367611 -0.000922819192 -5.00000006E-08
v 0.00010028424 -0.0016292535 -5.00000006E-08
v 0.000958521676 -0.00111600116 -5.00000006E-08
v 0.000301902241 -0.00190444768 -5.00000006E-08
v 0.00103943644 -0.00122913753 -5.00000006E-08
v 0.000590140291 -0.00213483442 -5.00000006E-08
v 0.00107121095 -0.00125815393 -5.00000006E-08
v 0.00098306546 -0.00224919128 -5.00000006E-08
v 0.00104282668 -0.00125097856 -5.00000006E-08
v 0.00138621638 -0.00218433188 -5.00000006E-08
v 0.00101936993 -0.00125405123 -5.00000006E-08
v 0.00170284032 -0.00198936462 -5.00000006E-08
v 0.00104913174 -0.00123261835 -5.00000006E-08
v 0.0019348663 -0.0017368031 -5.00000006E-08
v 0.00113483169 -0.00113684847 -5.00000006E-08
v 0.00211768574 -0.00145301444 -5.00000006E-08
v 0.00124595419 -0.000963031838 -5.00000006E-08
v 0.00227345689 -0.0011451398 -5.00000006E-08
v 0.00136521622 -0.000726692262 -5.00000006E-08
v 0.00241342559 -0.000819147157 -5.00000006E-08
v 0.00148625695 -0.0004445019 -5.00000006E-08
v 0.00254383194 -0.000482917822 -5.00000006E-08
v 0.00160770782 -0.000131248482 -5.00000006E-08
v 0.0026686748 -0.000146034246 -5.00000006E-08
v 0.00173045532 0.0002000065 -5.00000006E-08
v 0.00279072579 0.000180576331 -5.00000006E-08
v 0.00185660203 0.000537525222 -5.00000006E-08
v 0.00291174138 0.000484752672 -5.00000006E-08
v 0.00198927289 0.00087082485 -5.00000006E-08
v 0.00303202262 0.000752872496 -5.00000006E-08
v 0.00213304139 0.00119086076 -5.00000006E-08
v 0.00314894062 0.000969430956 -5.00000006E-08
v 0.00229542027 0.00149049005 -5.00000006E-08
v 0.00325316004 0.00111726962 -5.00000006E-08
v 0.00249062129 0.00176421367 -5.00000006E-08
v 0.00332172564 0.00118389132 -5.00000006E-08
v 0.00274647446 0.00200186926 -5.00000006E-08
v 0.00332522253 0.00118821335 -5.00000006E-08
v 0.00309727574 0.00216188817 -5.00000006E-08
v 0.00329170655 0.00118839846 -5.00000006E-08
v 0.00351327169 0.00216354383 -5.00000006E-08
v 0.00328312744 0.00118967064 -5.00000006E-08
v 0.0038741047 0.00199635886 -5.00000006E-08
v 0.00334147946 0.00112870417 -5.00000006E-08
v 0.0041286312 0.0017454644 -5.00000006E-08
v 0.00343593047 0.000980852172 -5.00000006E-08
v 0.00431401562 0.00145935442 -5.00000006E-08
v 0.00354083301 0.000759679824 -5.00000006E-08
v 0.00446221931 0.00114832888 -5.00000006E-08
v 0.00364642916 0.000484169024 -5.00000006E-08
v 0.00458932715 0.000817251217 -5.00000006E-08
v 0.00375054241 0.000171129228 -5.00000006E-08
v 0.00470383605 0.000473173161 -5.00000006E-08
v 0.0038541574 -0.000164911282 -5.00000006E-08
v 0.00481108623 0.000125410079 -5.00000006E-08
v 0.00395975448 -0.00051110459 -5.00000006E-08
v 0.00491491565 -0.000215017324 -5.00000006E-08
v 0.00407084869 -0.000856052444 -5.00000006E-08
v 0.0050181374 -0.00053567125 -5.00000006E-08
v 0.00419223448 -0.00118994911 -5.00000006E-08
v 0.00512227509 -0.000822490721 -5.00000006E-08
v 0.00433125161 -0.00150518038 -5.00000006E-08
v 0.00522631127 -0.00105923275 -5.00000006E-08
v 0.00450135628 -0.00179681787 -5.00000006E-08
v 0.00532311201 -0.00122697838 -5.00000006E-08
v 0.00473032705 -0.00205860729 -5.00000006E-08
v 0.00539122615 -0.0013081322 -5.00000006E-08
v 0.00506160827 -0.00225634384 -5.00000006E-08
v 0.00539352791 -0.00131303607 -5.00000006E-08
v 0.0054798997 -0.002299099 -5.00000006E-08
v 0.00534019293 -0.00130890473 -5.00000006E-08
v 0.00585352303 -0.00215436565 -5.00000006E-08
v 0.00529978424 -0.0013216763 -5.00000006E-08
v 0.0061131916 -0.00191555801 -5.00000006E-08
v 0.00534211611 -0.00127881241 -5.00000006E-08
v 0.00629999489 -0.00164056791 -5.00000006E-08
v 0.00543120597 -0.00114538393 -5.00000006E-08
v 0.00645032153 -0.00133912289 -5.00000006E-08
v 0.00553578231 -0.000934625685 -5.00000006E-08
v 0.00658119097 -0.00101468852 -5.00000006E-08
v 0.00564394146 -0.000666028995 -5.00000006E-08
v 0.00670093019 -0.000673358969 -5.00000006E-08
v 0.00575247407 -0.000356451055 -5.00000006E-08
v 0.00681444583 -0.0003237114 -5.00000006E-08
v 0.00586159155 -2.02827468E-05 -5.00000006E-08
v 0.00692512328 2.40039844E-05 -5.00000006E-08
v 0.00597301545 0.000329769158 -5.00000006E-08
v 0.00703544356 0.000358261139 -5.00000006E-08
v 0.00608938746 0.000682264334 -5.00000006E-08
v 0.00714694709 0.000666286505 -5.00000006E-08
v 0.00621427828 0.00102702144 -5.00000006E-08
v 0.00725958636 0.000933729229 -5.00000006E-08
v 0.00635285629 0.0013554421 -5.00000006E-08
v 0.0073698163 0.00114411546 -5.00000006E-08
v 0.00651377905 0.00166102988 -5.00000006E-08
v 0.00746584963 0.00127949531 -5.00000006E-08
v 0.00671394914 0.00193877227 -5.00000006E-08
v 0.00752010895 0.00133006671 -5.00000006E-08
v 0.00698605925 0.00217551994 -5.00000006E-08
v 0.00750728045 0.00132748415 -5.00000006E-08
v 0.00736054219 0.00231665815 -5.00000006E-08
v 0.00749688968 0.00132528308 -5.00000006E-08
v 0.00777180912 0.00228675082 -5.00000006E-08
v 0.00754439598 0.00130107882 -5.00000006E-08
v 0.00811083987 0.0021251794 -5.00000006E-08
v 0.00762963574 0.00122330105 -5.00000006E-08
v 0.00837331451 0.00189183815 -5.00000006E-08
v 0.00773894787 0.00107746897 -5.00000006E-08
v 0.00857853703 0.00162069139 -5.00000006E-08
v 0.00785673317 0.000870431948 -5.00000006E-08
v 0.00874776486 0.00132437143 -5.00000006E-08
v 0.00797528028 0.000615228666 -5.00000006E-08
v 0.00889435131 0.00100932317 -5.00000006E-08
v 0.00809222553 0.000324924476 -5.00000006E-08
v 0.00902631134 0.000681970618 -5.00000006E-08
v 0.00820794608 1.14097602E-05 -5.00000006E-08
v 0.00914891809 0.000349897397 -5.00000006E-08
v 0.00832426827 -0.000314559962 -5.00000006E-08
v 0.00926599186 2.18276982E-05 -5.00000006E-08
v 0.00844396092 -0.000643259089 -5.00000006E-08
v 0.00938041694 -0.000292478566 -5.00000006E-08
v 0.00857072882 -0.000966026331 -5.00000006E-08
v 0.00949413143 -0.000582193374 -5.00000006E-08
v 0.00870975666 -0.00127550133 -5.00000006E-08
v 0.00960760843 -0.000835203216 -5.00000006E-08
v 0.00886914879 -0.00156586082 -5.00000006E-08
v 0.00971838646 -0.00103785133 -5.00000006E-08
v 0.00906321779 -0.001831976 -5.00000006E-08
v 0.009817807 -0.00117577938 -5.00000006E-08
v 0.00931687839 -0.00206259545 -5.00000006E-08
v 0.00988660008 -0.00124075706 -5.00000006E-08
v 0.00965519715 -0.00221961411 -5.00000006E-08
v 0.00990534481 -0.0012514058 -5.00000006E-08
v 0.0100625632 -0.00223759096 -5.00000006E-08
v 0.0098963948 -0.00125149346 -5.00000006E-08
v 0.0104358466 -0.00209660153 -5.00000006E-08
v 0.0099207256 -0.00123948487 -5.00000006E-08
v 0.0107230796 -0.00186704646 -5.00000006E-08
v 0.0100122159 -0.00116371538 -5.00000006E-08
v 0.010953838 -0.00159039698 -5.00000006E-08
v 0.0101413317 -0.00100744446 -5.00000006E-08
v 0.0111519741 -0.0012795697 -5.00000006E-08
v 0.0102842851 -0.000782463118 -5.00000006E-08
v 0.0113291182 -0.000942377141 -5.00000006E-08
v 0.0104295136 -0.000505672477 -5.00000006E-08
v 0.0114906374 -0.000587501563 -5.00000006E-08
v 0.010571694 -0.000193111424 -5.00000006E-08
v 0.0116391061 -0.000224992764 -5.00000006E-08
v 0.0107083088 0.000140541088 -5.00000006E-08
v 0.0117757916 0.000134058006 -5.00000006E-08
v 0.0108381528 0.000481668481 -5.00000006E-08
v 0.0119012315 0.000477695488 -5.00000006E-08
v 0.0109607428 0.000817518274 -5.00000006E-08
v 0.0120154079 0.000793033629 -5.00000006E-08
v 0.0110761495 0.00113624393 -5.00000006E-08
vt 0.999998808 1.78813934E-07
vt 0.993787646 1.78813934E-07
vt 0.999998689 1.00000024
vt 0.993787527 1.00000024
vt 0.987576485 1.78813934E-07
vt 0.987576306 1.00000024
vt 0.981365263 1.78813934E-07
vt 0.981365144 1.00000024
vt 0.975154102 1.78813934E-07
vt 0.975153983 1.00000024
vt 0.96894294 1.78813934E-07
vt 0.968942761 1.00000024
vt 0.962731719 1.78813934E-07
vt 0.9627316 1.00000024
vt 0.956520557 1.78813934E-07
vt 0.956520438 1.00000024
vt 0.950309396 1.78813934E-07
vt 0.950309277 1.00000024
vt 0.944098175 1.78813934E-07
vt 0.944098055 1.00000024
vt 0.937887013 1.78813934E-07
vt 0.937886894 1.00000024
vt 0.931675851 1.78813934E-07
vt 0.931675673 1.00000024
vt 0.92546469 1.78813934E-07
vt 0.925464511 1.00000024
vt 0.919253469 1.78813934E-07
vt 0.919253349 1.00000024
vt 0.913042307 1.78813934E-07
vt 0.913042188 1.00000024
vt 0.906831145 1.78813934E-07
vt 0.906831026 1.00000024
vt 0.900619924 1.78813934E-07
vt 0.900619805 1.00000024
vt 0.894408762 1.78813934E-07
vt 0.894408643 1.00000024
vt 0.888197601 1.78813934E-07
vt 0.888197482 1.00000024
vt 0.881986439 1.78813934E-07
vt 0.88198626 1.00000024
vt 0.875775278 1.78813934E-07
vt 0.875775099 1.00000024
vt 0.869564056 1.78813934E-07
vt 0.869563937 1.00000024
vt 0.863352895 1.78813934E-07
vt 0.863352776 1.00000024
vt 0.857141733 1.78813934E-07
vt 0.857141614 1.00000024
vt 0.850930512 1.78813934E-07
vt 0.850930393 1.00000024
vt 0.84471935 1.78813934E-07
vt 0.844719231 1.00000024
vt 0.838508189 1.78813934E-07
vt 0.83850807 1.00000024
vt 0.832297027 1.78813934E-07
vt 0.832296848 1.00000024
vt 0.826085865 1.78813934E-07
vt 0.826085687 1.00000024
vt 0.819874644 1.78813934E-07
vt 0.819874525 1.00000024
vt 0.813663483 1.78813934E-07
vt 0.813663363 1.00000024
vt 0.807452321 1.78813934E-07
vt 0.807452202 1.00000024
vt 0.8012411 1.78813934E-07
vt 0.801240981 1.00000024
vt 0.795029938 1.78813934E-07
vt 0.795029819 1.00000024
vt 0.788818777 1.78813934E-07
vt 0.788818657 1.00000024
vt 0.782607615 1.78813934E-07
vt 0.782607436 1.00000024
vt 0.776396453 1.78813934E-07
vt 0.776396275 1.00000024
vt 0.770185232 1.78813934E-07
vt 0.770185113 1.00000024
vt 0.763974071 1.78813934E-07
vt 0.763973951 1.00000024
vt 0.757762909 1.78813934E-07
vt 0.75776279 1.00000024
vt 0.751551688 1.78813934E-07
vt 0.751551569 1.00000024
vt 0.745340526 1.78813934E-07
vt 0.745340407 1.00000024
vt 0.739129364 1.78813934E-07
vt 0.739129186 1.00000024
vt 0.732918203 1.78813934E-07
vt 0.732918024 1.00000024
vt 0.726706982 1.78813934E-07
vt 0.726706862 1.00000024
vt 0.72049576 1.78813934E-07
vt 0.720495641 1.00000024
vt 0.714284599 1.78813934E-07
vt 0.71428442 1.00000024
vt 0.708073437 1.78813934E-07
vt 0.708073258 1.00000024
vt 0.701862216 1.78813934E-07
vt 0.701862097 1.00000024
vt 0.695650995 1.78813934E-07
vt 0.695650876 1.00000012
vt 0.689439833 1.78813934E-07
vt 0.689439654 1.00000012
vt 0.683228672 1.78813934E-07
vt 0.683228493 1.00000012
vt 0.67701745 1.78813934E-07
vt 0.677017331 1.00000012
vt 0.670806229 1.78813934E-07
vt 0.67080611 1.00000012
vt 0.664595068 1.78813934E-07
vt 0.664594889 1.00000012
vt 0.658383906 1.78813934E-07
vt 0.658383727 1.00000012
vt 0.652172685 1.78813934E-07
vt 0.652172565 1.00000012
vt 0.645961463 1.78813934E-07
vt 0.645961344 1.00000012
vt 0.639750302 1.78813934E-07
vt 0.639750123 1.00000012
vt 0.63353914 1.78813934E-07
vt 0.633538961 1.00000012
vt 0.627327919 1.78813934E-07
vt 0.6273278 1.00000012
vt 0.621116698 1.78813934E-07
vt 0.621116579 1.00000012
vt 0.614905536 1.78813934E-07
vt 0.614905357 1.00000012
vt 0.608694375 1.78813934E-07
vt 0.608694196 1.00000012
vt 0.602483153 1.78813934E-07
vt 0.602483034 1.00000012
vt 0.596271932 1.78813934E-07
vt 0.596271813 1.00000012
vt 0.590060771 1.78813934E-07
vt 0.590060592 1.00000012
vt 0.583849609 1.78813934E-07
vt 0.58384943 1.00000012
vt 0.577638388 1.78813934E-07
vt 0.577638268 1.00000012
vt 0.571427166 1.78813934E-07
vt 0.571427047 1.00000012
vt 0.565216005 1.78813934E-07
vt 0.565215826 1.00000012
vt 0.559004843 1.78813934E-07
vt 0.559004664 1.00000012
vt 0.552793622 1.78813934E-07
vt 0.552793503 1.00000012
vt 0.546582401 1.78813934E-07
vt 0.546582282 1.00000012
vt 0.540371239 1.78813934E-07
vt 0.54037106 1.00000012
vt 0.534160078 1.78813934E-07
vt 0.534159899 1.00000012
vt 0.527948856 1.78813934E-07
vt 0.527948737 1.00000012
vt 0.521737635 1.78813934E-07
vt 0.521737516 1.00000012
vt 0.515526474 1.78813934E-07
vt 0.515526295 1.00000012
vt 0.509315312 1.78813934E-07
vt 0.509315133 1.00000012
vt 0.503104091 1.78813934E-07
vt 0.503103971 1.00000012
vt 0.496892899 1.78813934E-07
vt 0.49689275 1.00000012
vt 0.490681738 1.78813934E-07
vt 0.490681589 1.00000012
vt 0.484470576 1.78813934E-07
vt 0.484470427 1.00000012
vt 0.478259414 1.78813934E-07
vt 0.478259265 1.00000012
vt 0.472048253 1.78813934E-07
vt 0.472048104 1.00000012
vt 0.465837091 1.78813934E-07
vt 0.465836942 1.00000012
vt 0.45962593 1.78813934E-07
vt 0.459625781 1.00000012
vt 0.453414768 1.78813934E-07
vt 0.453414619 1.00000012
vt 0.447203606 1.78813934E-07
vt 0.447203457 1.00000012
vt 0.440992445 1.78813934E-07
vt 0.440992296 1.00000012
vt 0.434781283 1.78813934E-07
vt 0.434781134 1.00000012
vt 0.428570122 1.78813934E-07
vt 0.428569973 1.00000012
vt 0.42235896 1.78813934E-07
vt 0.422358811 1.00000012
vt 0.416147798 1.78813934E-07
vt 0.416147649 1.00000012
vt 0.409936637 1.78813934E-07
vt 0.409936488 1.00000012
vt 0.403725475 1.78813934E-07
vt 0.403725326 1.00000012
vt 0.397514313 1.78813934E-07
vt 0.397514164 1.00000012
vt 0.391303152 1.1920929E-07
vt 0.391303003 1.00000012
vt 0.38509199 1.1920929E-07
vt 0.385091841 1.00000012
vt 0.378880829 1.1920929E-07
vt 0.37888068 1.00000012
vt 0.372669667 1.1920929E-07
vt 0.372669518 1.00000012
vt 0.366458505 1.1920929E-07
vt 0.366458356 1.00000012
vt 0.360247344 1.1920929E-07
vt 0.360247195 1.00000012
vt 0.354036182 1.1920929E-07
vt 0.354036033 1.00000012
vt 0.347825021 1.1920929E-07
vt 0.347824872 1.00000012
vt 0.341613859 1.1920929E-07
vt 0.34161371 1.00000012
vt 0.335402697 1.1920929E-07
vt 0.335402548 1.00000012
vt 0.329191536 1.1920929E-07
vt 0.329191387 1.00000012
vt 0.322980374 1.1920929E-07
vt 0.322980225 1.00000012
vt 0.316769212 1.1920929E-07
vt 0.316769063 1.00000012
vt 0.310558051 1.1920929E-07
vt 0.310557902 1.00000012
vt 0.304346889 1.1920929E-07
vt 0.30434674 1.00000012
vt 0.298135728 1.1920929E-07
vt 0.298135579 1.00000012
vt 0.291924566 1.1920929E-07
vt 0.291924417 1.00000012
vt 0.285713404 1.1920929E-07
vt 0.285713255 1.00000012
vt 0.279502243 1.1920929E-07
vt 0.279502094 1.00000012
vt 0.273291081 1.1920929E-07
vt 0.273290932 1.00000012
vt 0.26707992 1.1920929E-07
vt 0.267079771 1.00000012
vt 0.260868758 1.1920929E-07
vt 0.260868609 1.00000012
vt 0.254657596 1.1920929E-07
vt 0.254657447 1.00000012
vt 0.24844642 1.1920929E-07
vt 0.248446286 1.00000012
vt 0.242235258 1.1920929E-07
vt 0.242235124 1.00000012
vt 0.236024097 1.1920929E-07
vt 0.236023962 1.00000012
vt 0.229812935 1.1920929E-07
vt 0.229812801 1.00000012
vt 0.223601773 1.1920929E-07
vt 0.223601639 1.00000012
vt 0.217390612 1.1920929E-07
vt 0.217390478 1.00000012
vt 0.21117945 1.1920929E-07
vt 0.211179316 1.00000012
vt 0.204968289 0
vt 0.204968154 1.00000012
vt 0.198757127 0
vt 0.198756993 1.00000012
vt 0.192545965 0
vt 0.192545831 1.00000012
vt 0.186334804 0
vt 0.18633467 1.00000012
vt 0.180123642 0
vt 0.180123508 1.00000012
vt 0.17391248 0
vt 0.173912346 1.00000012
vt 0.167701319 0
vt 0.167701185 1.00000012
vt 0.161490157 0
vt 0.161490023 1.00000012
vt 0.155278996 0
vt 0.155278862 1.00000012
vt 0.149067834 0
vt 0.1490677 1.00000012
vt 0.142856672 0
vt 0.142856538 1.00000012
vt 0.136645511 0
vt 0.136645377 1.00000012
vt 0.130434349 0
vt 0.130434215 1.00000012
vt 0.124223188 0
vt 0.124223053 1.00000012
vt 0.118012026 0
vt 0.118011892 1.00000012
vt 0.111800864 0
vt 0.11180073 1.00000012
vt 0.105589703 0
vt 0.105589569 1.00000012
vt 0.0993785411 0
vt 0.099378407 1.00000012
vt 0.0931673795 0
vt 0.0931672454 1.00000012
vt 0.0869562179 0
vt 0.0869560838 1.00000012
vt 0.0807450563 0
vt 0.0807449222 1.00000012
vt 0.0745338947 0
vt 0.0745337605 1.00000012
vt 0.068322733 0
vt 0.0683225989 1.00000012
vt 0.0621115714 0
vt 0.0621114373 1.00000012
vt 0.0559004098 0
vt 0.0559002757 1.00000012
vt 0.0496892482 0
vt 0.0496891141 1.00000012
vt 0.0434780866 0
vt 0.0434779525 1.00000012
vt 0.037266925 0
vt 0.0372667909 1.00000012
vt 0.0310557652 0
vt 0.0310556293 1.00000012
vt 0.0248446036 0
vt 0.0248444676 1.00000012
vt 0.018633442 0
vt 0.018633306 1.00000012
vt 0.0124222795 0
vt 0.0124221444 1.00000012
vt 0.00621111784 0
vt 0.0062109828 1.00000012
vt -4.37114522E-08 0
vt -1.78813991E-07 1.00000012
vn -0 0 -1
vn -0 0 -1
vn -0 0 -1
vn -0 0 -1
vn -0 0 -1
vn -0 0 -1
vn -0 0 -1
vn -0 0 -1
vn -0 0 -1
vn -0 0 -1
vn -0 0 -1
vn -0 0 -1
vn -0 0 -1
vn -0 0 -1
vn -0 0 -1
vn -0 0 -1
vn -0 0 -1
vn -0 0 -1
vn -0 0 -1
vn -0 0 -1
vn -0 0 -1
vn -0 0 -1
vn -0 0 -1
vn -0 0 -1
vn -0 0 -1
vn -0 0 -1
vn -0 0 -1
vn -0 0 -1
vn -0 0 -1
vn -0 0 -1
vn -0 0 -1
vn -0 0 -1
vn -0 0 -1
vn -0 0 -1
vn -0 0 -1
vn -0 0 -1
vn -0 0 -1
vn -0 0 -1
vn -0 0 -1
vn -0 0 -1
vn -0 0 -1
vn -0 0 -1
vn -0 0 -1
vn -0 0 -1
vn -0 0 -1
vn -0 0 -1
vn -0 0 -1
vn -0 0 -1
vn -0 0 -1
vn -0 0 -1
vn -0 0 -1
vn -0 0 -1
vn -0 0 -1
vn -0 0 1
vn -0 0 -1
vn -0 0 1
vn -0 0 -1
vn -0 0 -1
vn -0 0 -1
vn -0 0 -1
vn -0 0 -1
vn -0 0 -1
vn -0 0 -1
vn -0 0 -1
vn -0 0 -1
vn -0 0 -1
vn -0 0 -1
vn -0 0 -1
vn -0 0 -1
vn -0 0 -1
vn -0 0 -1
vn -0 0 -1
vn -0 0 -1
vn -0 0 -1
vn -0 0 -1
vn -0 0 -1
vn -0 0 -1
vn -0 0 -1
vn -0 0 -1
vn -0 0 -1
vn -0 0 -1
vn -0 0 -1
vn -0 0 -1
vn -0 0 -1
vn -0 0 -1
vn -0 0 -1
vn -0 0 -1
vn -0 0 -1
vn -0 0 -1
vn -0 0 -1
vn -0 0 -1
vn -0 0 -1
vn -0 0 -1
vn -0 0 -1
vn -0 0 -1
vn -0 0 -1
vn -0 0 -1
vn -0 0 -1
vn -0 0 -1
vn -0 0 -1
vn -0 0 -1
vn -0 0 -1
vn -0 0 -1
vn -0 0 -1
vn -0 0 -1
vn -0 0 -1
vn -0 0 -1
vn -0 0 -1
vn -0 0 -1
vn -0 0 -1
vn -0 0 -1
vn -0 0 -1
vn -0 0 -1
vn -0 0 -1
vn -0 0 -1
vn -0 0 1
vn -0 0 -1
vn -0 0 1
vn -0 0 -1
vn -0 0 -1
vn -0 0 -1
vn -0 0 -1
vn -0 0 -1
vn -0 0 -1
vn -0 0 -1
vn -0 0 -1
vn -0 0 -1
vn -0 0 -1
vn -0 0 -1
vn -0 0 -1
vn -0 0 -1
vn -0 0 -1
vn -0 0 -1
vn -0 0 -1
vn -0 0 -1
vn -0 0 -1
vn -0 0 -1
vn -0 0 -1
vn -0 0 -1
vn -0 0 -1
vn -0 0 -1
vn -0 0 -1
vn -0 0 -1
vn -0 0 -1
vn -0 0 -1
vn -0 0 -1
vn -0 0 1
vn -0 0 -1
vn -0 0 -1
vn -0 0 -1
vn -0 0 -1
vn -0 0 -1
vn -0 0 -1
vn -0 0 -1
vn -0 0 -1
vn -0 0 -1
vn -0 0 -1
vn -0 0 -1
vn -0 0 -1
vn -0 0 -1
vn -0 0 -1
vn -0 0 -1
vn -0 0 -1
vn -0 0 -1
vn -0 0 -1
vn -0 0 -1
vn -0 0 -1
vn -0 0 -1
vn -0 0 -1
vn -0 0 -1
vn -0 0 -1
vn -0 0 -1
vn -0 0 -1
vn -0 0 -1
vn -0 0 -1
vn -0 0 -1
vn -0 0 -1
vn -0 0 1
vn -0 0 -1
vn -0 0 -1
vn -0 0 -1
vn -0 0 -1
vn -0 0 -1
vn -0 0 -1
vn -0 0 -1
vn -0 0 -1
vn -0 0 -1
vn -0 0 -1
vn -0 0 -1
vn -0 0 -1
vn -0 0 -1
vn -0 0 -1
vn -0 0 -1
vn -0 0 -1
vn -0 0 -1
vn -0 0 -1
vn -0 0 -1
vn -0 0 -1
vn -0 0 -1
vn -0 0 -1
vn -0 0 -1
vn -0 0 -1
vn -0 0 -1
vn -0 0 -1
vn -0 0 -1
vn -0 0 -1
vn -0 0 -1
vn -0 0 -1
vn -0 0 1
vn -0 0 -1
vn -0 0 -1
vn -0 0 -1
vn -0 0 -1
vn -0 0 -1
vn -0 0 -1
vn -0 0 -1
vn -0 0 -1
vn -0 0 -1
vn -0 0 -1
vn -0 0 -1
vn -0 0 -1
vn -0 0 -1
vn -0 0 -1
vn -0 0 -1
vn -0 0 -1
vn -0 0 -1
vn -0 0 -1
vn -0 0 -1
vn -0 0 -1
vn -0 0 -1
vn -0 0 -1
vn -0 0 -1
vn -0 0 -1
vn -0 0 -1
vn -0 0 -1
vn -0 0 -1
vn -0 0 -1
vn -0 0 -1
vn -0 0 -1
vn -0 0 1
vn -0 0 -1
vn -0 0 -1
vn -0 0 -1
vn -0 0 -1
vn -0 0 -1
vn -0 0 -1
vn -0 0 -1
vn -0 0 -1
vn -0 0 -1
vn -0 0 -1
vn -0 0 -1
vn -0 0 -1
vn -0 0 -1
vn -0 0 -1
vn -0 0 -1
vn -0 0 -1
vn -0 0 -1
vn -0 0 -1
vn -0 0 -1
vn -0 0 -1
vn -0 0 -1
vn -0 0 -1
vn -0 0 -1
vn -0 0 -1
vn -0 0 -1
vn -0 0 -1
vn -0 0 -1
vn -0 0 -1
vn -0 0 1
vn -0 0 -1
vn -0 0 -1
vn -0 0 -1
vn -0 0 -1
vn -0 0 -1
vn -0 0 -1
vn -0 0 -1
vn -0 0 -1
vn -0 0 -1
vn -0 0 -1
vn -0 0 -1
vn -0 0 -1
vn -0 0 -1
vn -0 0 -1
vn -0 0 -1
vn -0 0 -1
vn -0 0 -1
vn -0 0 -1
vn -0 0 -1
vn -0 0 -1
vn -0 0 -1
vn -0 0 -1
vn -0 0 -1
vn -0 0 -1
vn -0 0 -1
vn -0 0 -1
vn -0 0 -1
vn -0 0 -1
vn -0 0 -1
vn -0 0 -1
vn -0 0 -1
vn -0 0 -1
vn -0 0 -1
vn -0 0 -1
vn -0 0 -1
vn -0 0 -1
vn -0 0 -1
vn -0 0 -1
vn -0 0 -1
vn -0 0 -1
vn -0 0 -1
vn -0 0 -1
vn -0 0 -1
vn -0 0 -1
vn -0 0 -1
vn -0 0 -1
vn -0 0 -1
vn -0 0 -1
vn -0 0 -1
vn -0 0 -1
vn -0 0 -1
vn -0 0 -1
vn -0 0 -1
vn -0 0 -1
vn -0 0 -1
g Plane010_0
f 3/3/3 2/2/2 1/1/1
f 2/2/2 3/3/3 4/4/4
f 4/4/4 5/5/5 2/2/2
f 5/5/5 4/4/4 6/6/6
f 6/6/6 7/7/7 5/5/5
f 7/7/7 6/6/6 8/8/8
f 8/8/8 9/9/9 7/7/7
f 9/9/9 8/8/8 10/10/10
f 10/10/10 11/11/11 9/9/9
f 11/11/11 10/10/10 12/12/12
f 12/12/12 13/13/13 11/11/11
f 13/13/13 12/12/12 14/14/14
f 14/14/14 15/15/15 13/13/13
f 15/15/15 14/14/14 16/16/16
f 16/16/16 17/17/17 15/15/15
f 17/17/17 16/16/16 18/18/18
f 18/18/18 19/19/19 17/17/17
f 19/19/19 18/18/18 20/20/20
f 20/20/20 21/21/21 19/19/19
f 21/21/21 20/20/20 22/22/22
f 22/22/22 23/23/23 21/21/21
f 23/23/23 22/22/22 24/24/24
f 24/24/24 25/25/25 23/23/23
f 25/25/25 24/24/24 26/26/26
f 26/26/26 27/27/27 25/25/25
f 27/27/27 26/26/26 28/28/28
f 28/28/28 29/29/29 27/27/27
f 29/29/29 28/28/28 30/30/30
f 30/30/30 31/31/31 29/29/29
f 31/31/31 30/30/30 32/32/32
f 32/32/32 33/33/33 31/31/31
f 33/33/33 32/32/32 34/34/34
f 34/34/34 35/35/35 33/33/33
f 35/35/35 34/34/34 36/36/36
f 36/36/36 37/37/37 35/35/35
f 37/37/37 36/36/36 38/38/38
f 38/38/38 39/39/39 37/37/37
f 39/39/39 38/38/38 40/40/40
f 40/40/40 41/41/41 39/39/39
f 41/41/41 40/40/40 42/42/42
f 42/42/42 43/43/43 41/41/41
f 43/43/43 42/42/42 44/44/44
f 44/44/44 45/45/45 43/43/43
f 45/45/45 44/44/44 46/46/46
f 46/46/46 47/47/47 45/45/45
f 47/47/47 46/46/46 48/48/48
f 48/48/48 49/49/49 47/47/47
f 49/49/49 48/48/48 50/50/50
f 50/50/50 51/51/51 49/49/49
f 51/51/51 50/50/50 52/52/52
f 52/52/52 53/53/53 51/51/51
f 53/53/53 52/52/52 54/54/54
f 54/54/54 55/55/55 53/53/53
f 55/55/55 54/54/54 56/56/56
f 56/56/56 57/57/57 55/55/55
f 57/57/57 56/56/56 58/58/58
f 58/58/58 59/59/59 57/57/57
f 59/59/59 58/58/58 60/60/60
f 60/60/60 61/61/61 59/59/59
f 61/61/61 60/60/60 62/62/62
f 62/62/62 63/63/63 61/61/61
f 63/63/63 62/62/62 64/64/64
f 64/64/64 65/65/65 63/63/63
f 65/65/65 64/64/64 66/66/66
f 66/66/66 67/67/67 65/65/65
f 67/67/67 66/66/66 68/68/68
f 68/68/68 69/69/69 67/67/67
f 69/69/69 68/68/68 70/70/70
f 70/70/70 71/71/71 69/69/69
f 71/71/71 70/70/70 72/72/72
f 72/72/72 73/73/73 71/71/71
f 73/73/73 72/72/72 74/74/74
f 74/74/74 75/75/75 73/73/73
f 75/75/75 74/74/74 76/76/76
f 76/76/76 77/77/77 75/75/75
f 77/77/77 76/76/76 78/78/78
f 78/78/78 79/79/79 77/77/77
f 79/79/79 78/78/78 80/80/80
f 80/80/80 81/81/81 79/79/79
f 81/81/81 80/80/80 82/82/82
f 82/82/82 83/83/83 81/81/81
f 83/83/83 82/82/82 84/84/84
f 84/84/84 85/85/85 83/83/83
f 85/85/85 84/84/84 86/86/86
f 86/86/86 87/87/87 85/85/85
f 87/87/87 86/86/86 88/88/88
f 88/88/88 89/89/89 87/87/87
f 89/89/89 88/88/88 90/90/90
f 90/90/90 91/91/91 89/89/89
f 91/91/91 90/90/90 92/92/92
f 92/92/92 93/93/93 91/91/91
f 93/93/93 92/92/92 94/94/94
f 94/94/94 95/95/95 93/93/93
f 95/95/95 94/94/94 96/96/96
f 96/96/96 97/97/97 95/95/95
f 97/97/97 96/96/96 98/98/98
f 98/98/98 99/99/99 97/97/97
f 99/99/99 98/98/98 100/100/100
f 100/100/100 101/101/101 99/99/99
f 101/101/101 100/100/100 102/102/102
f 102/102/102 103/103/103 101/101/101
f 103/103/103 102/102/102 104/104/104
f 104/104/104 105/105/105 103/103/103
f 105/105/105 104/104/104 106/106/106
f 106/106/106 107/107/107 105/105/105
f 107/107/107 106/106/106 108/108/108
f 108/108/108 109/109/109 107/107/107
f 109/109/109 108/108/108 110/110/110
f 110/110/110 111/111/111 109/109/109
f 111/111/111 110/110/110 112/112/112
f 112/112/112 113/113/113 111/111/111
f 113/113/113 112/112/112 114/114/114
f 114/114/114 115/115/115 113/113/113
f 115/115/115 114/114/114 116/116/116
f 116/116/116 117/117/117 115/115/115
f 117/117/117 116/116/116 118/118/118
f 118/118/118 119/119/119 117/117/117
f 119/119/119 118/118/118 120/120/120
f 120/120/120 121/121/121 119/119/119
f 121/121/121 120/120/120 122/122/122
f 122/122/122 123/123/123 121/121/121
f 123/123/123 122/122/122 124/124/124
f 124/124/124 125/125/125 123/123/123
f 125/125/125 124/124/124 126/126/126
f 126/126/126 127/127/127 125/125/125
f 127/127/127 126/126/126 128/128/128
f 128/128/128 129/129/129 127/127/127
f 129/129/129 128/128/128 130/130/130
f 130/130/130 131/131/131 129/129/129
f 131/131/131 130/130/130 132/132/132
f 132/132/132 133/133/133 131/131/131
f 133/133/133 132/132/132 134/134/134
f 134/134/134 135/135/135 133/133/133
f 135/135/135 134/134/134 136/136/136
f 136/136/136 137/137/137 135/135/135
f 137/137/137 136/136/136 138/138/138
f 138/138/138 139/139/139 137/137/137
f 139/139/139 138/138/138 140/140/140
f 140/140/140 141/141/141 139/139/139
f 141/141/141 140/140/140 142/142/142
f 142/142/142 143/143/143 141/141/141
f 143/143/143 142/142/142 144/144/144
f 144/144/144 145/145/145 143/143/143
f 145/145/145 144/144/144 146/146/146
f 146/146/146 147/147/147 145/145/145
f 147/147/147 146/146/146 148/148/148
f 148/148/148 149/149/149 147/147/147
f 149/149/149 148/148/148 150/150/150
f 150/150/150 151/151/151 149/149/149
f 151/151/151 150/150/150 152/152/152
f 152/152/152 153/153/153 151/151/151
f 153/153/153 152/152/152 154/154/154
f 154/154/154 155/155/155 153/153/153
f 155/155/155 154/154/154 156/156/156
f 156/156/156 157/157/157 155/155/155
f 157/157/157 156/156/156 158/158/158
f 158/158/158 159/159/159 157/157/157
f 159/159/159 158/158/158 160/160/160
f 160/160/160 161/161/161 159/159/159
f 161/161/161 160/160/160 162/162/162
f 162/162/162 163/163/163 161/161/161
f 163/163/163 162/162/162 164/164/164
f 164/164/164 165/165/165 163/163/163
f 165/165/165 164/164/164 166/166/166
f 166/166/166 167/167/167 165/165/165
f 167/167/167 166/166/166 168/168/168
f 168/168/168 169/169/169 167/167/167
f 169/169/169 168/168/168 170/170/170
f 170/170/170 171/171/171 169/169/169
f 171/171/171 170/170/170 172/172/172
f 172/172/172 173/173/173 171/171/171
f 173/173/173 172/172/172 174/174/174
f 174/174/174 175/175/175 173/173/173
f 175/175/175 174/174/174 176/176/176
f 176/176/176 177/177/177 175/175/175
f 177/177/177 176/176/176 178/178/178
f 178/178/178 179/179/179 177/177/177
f 179/179/179 178/178/178 180/180/180
f 180/180/180 181/181/181 179/179/179
f 181/181/181 180/180/180 182/182/182
f 182/182/182 183/183/183 181/181/181
f 183/183/183 182/182/182 184/184/184
f 184/184/184 185/185/185 183/183/183
f 185/185/185 184/184/184 186/186/186
f 186/186/186 187/187/187 185/185/185
f 187/187/187 186/186/186 188/188/188
f 188/188/188 189/189/189 187/187/187
f 189/189/189 188/188/188 190/190/190
f 190/190/190 191/191/191 189/189/189
f 191/191/191 190/190/190 192/192/192
f 192/192/192 193/193/193 191/191/191
f 193/193/193 192/192/192 194/194/194
f 194/194/194 195/195/195 193/193/193
f 195/195/195 194/194/194 196/196/196
f 196/196/196 197/197/197 195/195/195
f 197/197/197 196/196/196 198/198/198
f 198/198/198 199/199/199 197/197/197
f 199/199/199 198/198/198 200/200/200
f 200/200/200 201/201/201 199/199/199
f 201/201/201 200/200/200 202/202/202
f 202/202/202 203/203/203 201/201/201
f 203/203/203 202/202/202 204/204/204
f 204/204/204 205/205/205 203/203/203
f 205/205/205 204/204/204 206/206/206
f 206/206/206 207/207/207 205/205/205
f 207/207/207 206/206/206 208/208/208
f 208/208/208 209/209/209 207/207/207
f 209/209/209 208/208/208 210/210/210
f 210/210/210 211/211/211 209/209/209
f 211/211/211 210/210/210 212/212/212
f 212/212/212 213/213/213 211/211/211
f 213/213/213 212/212/212 214/214/214
f 214/214/214 215/215/215 213/213/213
f 215/215/215 214/214/214 216/216/216
f 216/216/216 217/217/217 215/215/215
f 217/217/217 216/216/216 218/218/218
f 218/218/218 219/219/219 217/217/217
f 219/219/219 218/218/218 220/220/220
f 220/220/220 221/221/221 219/219/219
f 221/221/221 220/220/220 222/222/222
f 222/222/222 223/223/223 221/221/221
f 223/223/223 222/222/222 224/224/224
f 224/224/224 225/225/225 223/223/223
f 225/225/225 224/224/224 226/226/226
f 226/226/226 227/227/227 225/225/225
f 227/227/227 226/226/226 228/228/228
f 228/228/228 229/229/229 227/227/227
f 229/229/229 228/228/228 230/230/230
f 230/230/230 231/231/231 229/229/229
f 231/231/231 230/230/230 232/232/232
f 232/232/232 233/233/233 231/231/231
f 233/233/233 232/232/232 234/234/234
f 234/234/234 235/235/235 233/233/233
f 235/235/235 234/234/234 236/236/236
f 236/236/236 237/237/237 235/235/235
f 237/237/237 236/236/236 238/238/238
f 238/238/238 239/239/239 237/237/237
f 239/239/239 238/238/238 240/240/240
f 240/240/240 241/241/241 239/239/239
f 241/241/241 240/240/240 242/242/242
f 242/242/242 243/243/243 241/241/241
f 243/243/243 242/242/242 244/244/244
f 244/244/244 245/245/245 243/243/243
f 245/245/245 244/244/244 246/246/246
f 246/246/246 247/247/247 245/245/245
f 247/247/247 246/246/246 248/248/248
f 248/248/248 249/249/249 247/247/247
f 249/249/249 248/248/248 250/250/250
f 250/250/250 251/251/251 249/249/249
f 251/251/251 250/250/250 252/252/252
f 252/252/252 253/253/253 251/251/251
f 253/253/253 252/252/252 254/254/254
f 254/254/254 255/255/255 253/253/253
f 255/255/255 254/254/254 256/256/256
f 256/256/256 257/257/257 255/255/255
f 257/257/257 256/256/256 258/258/258
f 258/258/258 259/259/259 257/257/257
f 259/259/259 258/258/258 260/260/260
f 260/260/260 261/261/261 259/259/259
f 261/261/261 260/260/260 262/262/262
f 262/262/262 263/263/263 261/261/261
f 263/263/263 262/262/262 264/264/264
f 264/264/264 265/265/265 263/263/263
f 265/265/265 264/264/264 266/266/266
f 266/266/266 267/267/267 265/265/265
f 267/267/267 266/266/266 268/268/268
f 268/268/268 269/269/269 267/267/267
f 269/269/269 268/268/268 270/270/270
f 270/270/270 271/271/271 269/269/269
f 271/271/271 270/270/270 272/272/272
f 272/272/272 273/273/273 271/271/271
f 273/273/273 272/272/272 274/274/274
f 274/274/274 275/275/275 273/273/273
f 275/275/275 274/274/274 276/276/276
f 276/276/276 277/277/277 275/275/275
f 277/277/277 276/276/276 278/278/278
f 278/278/278 279/279/279 277/277/277
f 279/279/279 278/278/278 280/280/280
f 280/280/280 281/281/281 279/279/279
f 281/281/281 280/280/280 282/282/282
f 282/282/282 283/283/283 281/281/281
f 283/283/283 282/282/282 284/284/284
f 284/284/284 285/285/285 283/283/283
f 285/285/285 284/284/284 286/286/286
f 286/286/286 287/287/287 285/285/285
f 287/287/287 286/286/286 288/288/288
f 288/288/288 289/289/289 287/287/287
f 289/289/289 288/288/288 290/290/290
f 290/290/290 291/291/291 289/289/289
f 291/291/291 290/290/290 292/292/292
f 292/292/292 293/293/293 291/291/291
f 293/293/293 292/292/292 294/294/294
f 294/294/294 295/295/295 293/293/293
f 295/295/295 294/294/294 296/296/296
f 296/296/296 297/297/297 295/295/295
f 297/297/297 296/296/296 298/298/298
f 298/298/298 299/299/299 297/297/297
f 299/299/299 298/298/298 300/300/300
f 300/300/300 301/301/301 299/299/299
f 301/301/301 300/300/300 302/302/302
f 302/302/302 303/303/303 301/301/301
f 303/303/303 302/302/302 304/304/304
f 304/304/304 305/305/305 303/303/303
f 305/305/305 304/304/304 306/306/306
f 306/306/306 307/307/307 305/305/305
f 307/307/307 306/306/306 308/308/308
f 308/308/308 309/309/309 307/307/307
f 309/309/309 308/308/308 310/310/310
f 310/310/310 311/311/311 309/309/309
f 311/311/311 310/310/310 312/312/312
f 312/312/312 313/313/313 311/311/311
f 313/313/313 312/312/312 314/314/314
f 314/314/314 315/315/315 313/313/313
f 315/315/315 314/314/314 316/316/316
f 316/316/316 317/317/317 315/315/315
f 317/317/317 316/316/316 318/318/318
f 318/318/318 319/319/319 317/317/317
f 319/319/319 318/318/318 320/320/320
f 320/320/320 321/321/321 319/319/319
f 321/321/321 320/320/320 322/322/322
f 322/322/322 323/323/323 321/321/321
f 323/323/323 322/322/322 324/324/324
