g default001
v -1.56206787 7.1082902 -0.0862653106
v -1.39020324 7.13295031 -0.161226898
v -1.62688136 7.46641397 -0.0456228927
v -1.36271286 7.49422598 -0.155417815
v -1.33195341 7.12471104 0.0208975021
v -1.29741681 7.44356871 0.101065099
v -1.23407328 7.92918301 -0.127590105
v -1.54445839 7.94961882 0.0835166946
v -1.1080426 7.74269819 0.288547277
v -1.05585814 8.26160145 -0.0485976413
v -1.31692231 8.28949165 0.239203185
v -1.06020963 8.40175056 0.36787954
v -0.894349515 8.06508255 -0.00683807349
v -0.68767333 7.8890624 -0.138418838
v -1.0351578 7.67192125 0.286629647
v -1.0195955 7.47777128 0.2332059
v -0.577215135 7.58782959 -0.226992682
v -0.225156859 7.61902571 -0.294601351
v -0.761585832 8.3569231 0.046642378
v -0.754773974 8.48677731 0.514960945
v -0.308499277 8.37537384 0.250503391
v -0.315697253 8.42731667 0.69609642
v -0.474159956 8.20087624 -0.0299379732
v -0.0847306773 8.03217983 -0.123254925
v 0.162794381 8.14168835 0.252658814
v 0.119326398 8.21332359 0.81008029
v -0.391423345 7.99042082 -0.186929733
v 0.118031688 7.65598631 -0.260131806
v 0.431174397 7.66443205 -0.0428664945
v 0.448907614 7.99348021 0.297500998
v 0.669864535 7.66132355 0.259755403
v 0.461379409 7.9281683 0.952722609
v 0.732216179 7.62670994 0.6423648
v 0.644865572 7.57348061 0.973410249
v -1.50389612 7.08165169 0.092005305
v -1.64794886 6.99124432 -0.149278402
v -1.56206787 7.1082902 -0.0862653106
v -1.65688515 6.96059322 0.04717182
v -1.66260111 6.82387018 -0.190620989
v -1.6802907 6.79225016 0.0101603316
v -1.60363328 6.69641829 -0.190484151
v -1.62189388 6.67418575 -0.0172863007
v -1.50003338 6.61257553 -0.161172867
v -1.59833479 6.78136206 0.147874072
v -1.52617621 6.95603514 0.187145114
v -1.48903573 6.59174728 -0.0478379056
v -1.39381361 6.58691978 -0.118604504
v -1.32086015 6.9814291 0.178289026
v -1.33195341 7.12471104 0.0208975021
v -1.20628667 7.01368284 0.0545163341
v -1.42578578 6.7919817 0.218919069
v -1.4837178 6.65590477 0.0984903723
v -1.39121413 6.5879631 -0.0061167907
v -1.29542053 6.60691404 -0.0700913221
v -1.28644943 6.81463051 0.187022552
v -1.15382349 6.85259485 0.0447397605
v -1.27751124 6.67681742 0.0980638862
v -1.18983531 6.70434427 -0.0022642517
v -1.64794886 6.99124432 -0.149278402
v -1.39020324 7.13295031 -0.161226898
v -1.56206787 7.1082902 -0.0862653106
v -1.50764132 7.02793312 -0.285243034
v -1.66260111 6.82387018 -0.190620989
v -1.31777835 7.05006647 -0.277028143
v -1.18944979 7.04072237 -0.114406355
v -1.33195341 7.12471104 0.0208975021
v -1.20628667 7.01368284 0.0545163341
v -1.13495529 6.88298607 -0.150406033
v -1.15382349 6.85259485 0.0447397605
v -1.20255542 6.89270496 -0.278290004
v -1.17247522 6.72421074 -0.135886908
v -1.18983531 6.70434427 -0.0022642517
v -1.29542053 6.60691404 -0.0700913221
v -1.36866987 6.88498878 -0.363668323
v -1.52493012 6.86235046 -0.335880965
v -1.48765564 6.73475504 -0.316280276
v -1.60363328 6.69641829 -0.190484151
v -1.50003338 6.61257553 -0.161172867
v -1.3081578 6.73511887 -0.292541474
v -1.31105196 6.62413311 -0.18466492
v -1.39381361 6.58691978 -0.118604504
v -1.40771985 6.62843752 -0.228957281
v 0.644865572 7.57348061 0.973410249
v 0.451830089 7.52061367 1.26777875
v 0.461379409 7.9281683 0.952722609
v -0.0304462817 7.77491236 1.3619473
v 0.141358107 7.45876217 1.47437358
v 0.119326398 8.21332359 0.81008029
v -0.239815667 7.40726042 1.49920869
v -0.688818812 7.77770853 1.2806555
v -0.609872699 7.37700176 1.4127444
v -0.866531134 7.37320518 1.17941058
v -0.326568872 8.0497818 1.14821351
v -0.315697253 8.42731667 0.69609642
v -0.623138964 8.25478172 0.973610818
v -0.754773974 8.48677731 0.514960945
v -1.07882535 8.2353344 0.775724769
v -1.06020963 8.40175056 0.36787954
v -0.906980097 8.0349884 0.964773238
v -1.10568571 7.72884989 0.822260737
v -1.05700254 7.4039402 0.875658691
v -1.0195955 7.47777128 0.2332059
v -1.0351578 7.67192125 0.286629647
v -1.1080426 7.74269819 0.288547277
v -0.933708727 7.75664234 1.1037873
v -1.33952546 8.15287971 0.603329122
v -1.31692231 8.28949165 0.239203185
v -1.54445839 7.94961882 0.0835166946
v -1.19452035 7.95003605 0.683017135
v -1.47913849 7.83525658 0.435620606
v -1.29741681 7.44356871 0.101065099
v -1.62688136 7.46641397 -0.0456228927
v -1.53411758 7.41688585 0.226358622
v -1.33195341 7.12471104 0.0208975021
v -1.50389612 7.08165169 0.092005305
v -1.56206787 7.1082902 -0.0862653106
v -1.02319229 7.03157568 0.139917299
v -0.956264794 6.84744072 0.209868163
v -0.581754804 6.94633913 -0.285168648
v -0.632846653 7.13630342 -0.327922851
v -1.02919805 7.32009363 0.129758462
v -0.112782896 7.02716255 -0.413034469
v -0.651115239 7.40383482 -0.290704459
v -1.0195955 7.47777128 0.2332059
v -0.577215135 7.58782959 -0.226992682
v -0.149034873 7.23235512 -0.476235151
v 0.314365 7.09006739 -0.365343302
v -0.175069496 7.48046303 -0.411377937
v -0.225156859 7.61902571 -0.294601351
v 0.118031688 7.65598631 -0.260131806
v 0.319055259 7.27280951 -0.382487893
v 0.70332706 7.10603189 -0.022982711
v 0.286081314 7.53565407 -0.302751184
v 0.431174397 7.66443205 -0.0428664945
v 0.710200787 7.29452801 -0.0598218516
v 0.850552261 7.08959818 0.379066139
v 0.633101642 7.56406641 -0.00977193844
v 0.669864535 7.66132355 0.259755403
v 0.808694959 7.55729771 0.394233853
v 0.732216179 7.62670994 0.6423648
v 0.893718064 7.264678 0.389583796
v 0.763612211 7.02436638 0.933029592
v 0.817319632 7.18355131 0.983420253
v 0.825728118 7.52771711 0.670678973
v 0.644865572 7.57348061 0.973410249
v 0.740230024 7.48393917 0.999807954
v -0.866531134 7.37320518 1.17941058
v -0.89888072 7.2030468 1.25209117
v -1.05700254 7.4039402 0.875658691
v -0.609872699 7.37700176 1.4127444
v -1.12167263 7.22348309 0.79073447
v -1.0195955 7.47777128 0.2332059
v -1.02919805 7.32009363 0.129758462
v -1.02319229 7.03157568 0.139917299
v -1.11365128 6.95202494 0.777066529
v -0.956264794 6.84744072 0.209868163
v -1.02489543 6.77649498 0.733261168
v -0.802883804 6.76266575 1.17296147
v -0.897851288 6.94535494 1.24470115
v -0.482026726 6.78483343 1.46493089
v -0.51318264 6.95383596 1.53016841
v 0.0288069155 6.847507 1.52720535
v -0.510111034 7.23049593 1.5270648
v -0.239815667 7.40726042 1.49920869
v -0.0156124877 7.01634455 1.60824823
v 0.419649184 6.9244442 1.36937129
v -0.0649621561 7.29651833 1.59452438
v 0.141358107 7.45876217 1.47437358
v 0.345669359 7.37983274 1.45836306
v 0.451830089 7.52061367 1.26777875
v 0.444939941 7.09631634 1.44152141
v 0.763612211 7.02436638 0.933029592
v 0.817319632 7.18355131 0.983420253
v 0.558585644 7.42532873 1.28462815
v 0.644865572 7.57348061 0.973410249
v 0.740230024 7.48393917 0.999807954
v -0.956264794 6.84744072 0.209868163
v -1.02489543 6.77649498 0.733261168
v -0.902154207 6.76219606 0.686157763
v -0.802883804 6.76266575 1.17296147
v -0.844549716 6.82182741 0.246234432
v -0.529700637 6.9049468 -0.169818267
v -0.581754804 6.94633913 -0.285168648
v -0.112782896 7.02716255 -0.413034469
v -0.0788094848 7.33664513 0.618862033
v -0.715261042 6.75235224 1.05616176
v -0.135228872 6.9746623 -0.276873231
v -0.445837855 6.76916552 1.30121887
v -0.482026726 6.78483343 1.46493089
v 0.0288069155 6.847507 1.52720535
v 0.223583221 7.02573538 -0.237250254
v 0.314365 7.09006739 -0.365343302
v 0.70332706 7.10603189 -0.022982711
v 0.550524831 7.03915882 0.0504607372
v 0.850552261 7.08959818 0.379066139
v 0.667155802 7.03049707 0.386191249
v 0.763612211 7.02436638 0.933029592
v 0.610122919 6.96410608 0.856885612
v 0.419649184 6.9244442 1.36937129
v 0.304955125 6.89167595 1.21860409
v -0.0164673608 6.82184601 1.35352707
vt 0.146519482 0.00995526835
vt 0.112050742 0.0256315153
vt 0.194219977 0.0905035734
vt 0.142050475 0.113400728
vt 0.0757099316 0.0368783511
vt 0.0886206403 0.120189339
vt 0.175310656 0.215205073
vt 0.241391733 0.177324817
vt 0.0861979425 0.222625107
vt 0.21670343 0.299092412
vt 0.287562758 0.2676889
vt 0.313214749 0.337980062
vt 0.162868455 0.300757587
vt 0.0889271647 0.337304771
vt 0.054232724 0.230203539
vt 0.0151071288 0.231173247
vt 0.0151071288 0.352170885
vt 0.0151071288 0.417641461
vt 0.235193044 0.366648287
vt 0.320869803 0.4174757
vt 0.231409878 0.469237894
vt 0.29383412 0.528662324
vt 0.19048591 0.411265433
vt 0.0966668874 0.462982655
vt 0.155101985 0.554538608
vt 0.215539426 0.648798108
vt 0.0954388082 0.39974606
vt 0.0151071288 0.480908334
vt 0.0151071288 0.550562918
vt 0.0877677575 0.598978877
vt 0.0151071288 0.618542373
vt 0.121158272 0.722185612
vt 0.0151071288 0.690305173
vt 0.0151071288 0.750105023
vt 0.861239612 0.938861191
vt 0.759640634 0.916133285
vt 0.796229303 0.945837557
vt 0.81267041 0.903196216
vt 0.746291816 0.85101819
vt 0.801343501 0.852237582
vt 0.764371574 0.797186852
vt 0.809842646 0.813452601
vt 0.805213034 0.757918358
vt 0.842516005 0.855023503
vt 0.865435064 0.904346585
vt 0.837359488 0.774150729
vt 0.854238808 0.742102027
vt 0.923667848 0.904897332
vt 0.930384099 0.95156461
vt 0.971270561 0.91232574
vt 0.89074403 0.855192065
vt 0.861527503 0.81051755
vt 0.873028576 0.770550013
vt 0.902194917 0.749385595
vt 0.927874744 0.852582932
vt 0.97875452 0.846772075
vt 0.920529664 0.803005576
vt 0.95555377 0.788114071
vt 0.707526147 0.917535424
vt 0.605499327 0.940547287
vt 0.670778334 0.947359383
vt 0.654103041 0.9048388
vt 0.721742392 0.852007866
vt 0.601283669 0.906014919
vt 0.543017089 0.906441212
vt 0.536147058 0.953063786
vt 0.495364457 0.913675666
vt 0.538894415 0.854105234
vt 0.488039523 0.848095298
vt 0.575984657 0.856790543
vt 0.546371937 0.804566622
vt 0.511387169 0.789548397
vt 0.564691782 0.751000881
vt 0.624005973 0.85661304
vt 0.664529622 0.854158878
vt 0.657883346 0.81488049
vt 0.700725138 0.798945069
vt 0.660996616 0.759393096
vt 0.605490863 0.812168717
vt 0.593806028 0.772226214
vt 0.612434745 0.743783474
vt 0.629409552 0.775854468
vt 0.989403844 0.732993066
vt 0.989403844 0.672277391
vt 0.884434819 0.705600441
vt 0.917603314 0.584062278
vt 0.989403844 0.603510857
vt 0.790617943 0.633386791
vt 0.989403844 0.536381423
vt 0.906525016 0.449604094
vt 0.989403844 0.467581838
vt 0.989403844 0.405117959
vt 0.851143897 0.539941132
vt 0.713950634 0.513708651
vt 0.775764287 0.455381453
vt 0.687694073 0.402776688
vt 0.772698402 0.354081035
vt 0.696945906 0.323138803
vt 0.816473305 0.398534983
vt 0.917254329 0.326051056
vt 0.989403844 0.340275794
vt 0.989403844 0.219340995
vt 0.949940085 0.218577757
vt 0.916089118 0.225562334
vt 0.909092784 0.387042642
vt 0.792713404 0.287347764
vt 0.724796414 0.253009439
vt 0.778045774 0.165079623
vt 0.845069349 0.291080892
vt 0.840031803 0.207532644
vt 0.935563385 0.124255829
vt 0.833783329 0.0838525221
vt 0.883671939 0.112080723
vt 0.956291378 0.0433729701
vt 0.921601415 0.0287705287
vt 0.889224768 0.00995526742
vt 0.441063344 0.653123915
vt 0.497050375 0.653123915
vt 0.497050375 0.536891758
vt 0.44113028 0.531983316
vt 0.379367888 0.653123915
vt 0.497050375 0.435389251
vt 0.384282976 0.531549215
vt 0.338174403 0.653123915
vt 0.338174403 0.518050075
vt 0.436773449 0.430111498
vt 0.497050375 0.344056845
vt 0.382314593 0.430965424
vt 0.338174403 0.437363237
vt 0.338174403 0.357512444
vt 0.440902054 0.333614588
vt 0.497050375 0.232409045
vt 0.381278783 0.330757558
vt 0.338174403 0.270245284
vt 0.43824169 0.230581433
vt 0.497050375 0.140675545
vt 0.377809823 0.234681636
vt 0.338174403 0.181752488
vt 0.374557316 0.146138772
vt 0.338174403 0.0981775522
vt 0.437959552 0.136655822
vt 0.497050375 0.0225349702
vt 0.439440042 0.0225349702
vt 0.372900754 0.0895478129
vt 0.338174403 0.0225349702
vt 0.372369379 0.0225349702
vt 0.513640285 0.270647228
vt 0.558047593 0.276810586
vt 0.513640285 0.190704748
vt 0.513640285 0.350250125
vt 0.558860064 0.177627861
vt 0.513640285 0.0531589575
vt 0.554818034 0.0531589575
vt 0.617949367 0.0531589575
vt 0.616296113 0.174224421
vt 0.672546446 0.0531590246
vt 0.672546446 0.165482625
vt 0.672546446 0.270458668
vt 0.612601817 0.27678293
vt 0.672546446 0.363054395
vt 0.616516232 0.373821199
vt 0.672546446 0.475494087
vt 0.556841314 0.376927704
vt 0.513640285 0.437630892
vt 0.613750517 0.477312773
vt 0.672546446 0.567237914
vt 0.553306401 0.473291844
vt 0.513640285 0.526445925
vt 0.550111771 0.56219393
vt 0.513640285 0.607708395
vt 0.612100422 0.573425055
vt 0.672546446 0.686227858
vt 0.615104973 0.686227858
vt 0.548793733 0.619045675
vt 0.513640285 0.686227858
vt 0.547647119 0.686227858
vt 0.301591456 0.66426307
vt 0.219418064 0.688918948
vt 0.229464516 0.702385247
vt 0.168729365 0.753874838
vt 0.302979141 0.680467367
vt 0.391045243 0.703078806
vt 0.399596035 0.689353228
vt 0.449918568 0.754493356
vt 0.295697212 0.830009937
vt 0.184017584 0.761055291
vt 0.435718119 0.762168527
vt 0.16467163 0.82380861
vt 0.147154704 0.824674368
vt 0.171530768 0.909703255
vt 0.454623252 0.825735748
vt 0.471177578 0.8254233
vt 0.44643575 0.910272956
vt 0.431995809 0.901578665
vt 0.396662474 0.961015463
vt 0.38733533 0.945338309
vt 0.308855116 0.985623717
vt 0.308532923 0.969717562
vt 0.221103653 0.960656047
vt 0.230134174 0.944292963
vt 0.186440289 0.900198281
vn -0.918477356 0.119199716 -0.37708199
vn 0.338347465 -0.00413523568 -0.941012204
vn -0.913910508 0.142342269 -0.380140007
vn 0.391425878 -0.0257612374 -0.919848979
vn 0.867660999 -0.386144221 0.31314072
vn 0.864297092 -0.398749202 0.306577325
vn 0.150556087 -0.0439943485 -0.987622082
vn -0.885024011 0.329074889 -0.329305857
vn -0.343449622 -0.930856228 -0.124696262
vn -0.208398938 0.502835453 -0.838884056
vn -0.723394334 0.659360588 -0.204802945
vn -0.466512591 0.882754445 -0.0557728596
vn 0.0139803309 -0.0417292193 -0.999031186
vn -0.437719971 0.0789768472 -0.895636082
vn -0.876920283 -0.195914984 -0.438894242
vn -0.919687152 0.149256244 -0.363177866
vn -0.466809779 0.395029873 -0.791226864
vn -0.0777824968 0.581938922 -0.809504151
vn -0.0595555082 0.753276885 -0.655001521
vn -0.117013417 0.986609399 0.1136216
vn 0.342126995 0.874046803 -0.344951242
vn 0.266195923 0.925277174 0.27018854
vn 0.158644214 0.573668659 -0.803577185
vn 0.31882605 0.519964933 -0.792456031
vn 0.595455766 0.733444929 -0.32785821
vn 0.540869474 0.760108411 0.360132366
vn -0.068944864 0.336681932 -0.939090908
vn 0.217597321 0.659052134 -0.719931662
vn 0.441617668 0.739122689 -0.508597493
vn 0.716155291 0.635595262 -0.288340539
vn 0.639324069 0.734799802 -0.22657004
vn 0.69102037 0.600209534 0.402789474
vn 0.649820924 0.751532495 0.113717675
vn 0.620082915 0.68103832 0.389466226
vn -0.138006911 0.715258121 0.68509841
vn -0.697806895 0.691070259 -0.188381046
vn -0.540192842 0.836091816 -0.0956145898
vn -0.701114535 0.589042604 0.401829809
vn -0.911122084 0.192699596 -0.364312351
vn -0.971209228 0.0581350811 0.231025904
vn -0.847836792 -0.320580691 -0.422375202
vn -0.871143103 -0.470014572 0.1421123
vn -0.602834582 -0.701907516 -0.379363298
vn -0.650664628 -0.182332754 0.737150073
vn -0.220400378 0.351849079 0.909739494
vn -0.556309283 -0.829362512 0.0517468452
vn -0.222199142 -0.941420138 -0.253684133
vn 0.480811983 0.244839191 0.841946304
vn 0.637296975 0.665633976 0.3883093
vn 0.877182901 0.232023001 0.420375526
vn -0.0560376085 -0.344599038 0.937075913
vn -0.393189758 -0.727995753 0.561626136
vn -0.16035904 -0.963256717 0.215456218
vn 0.206540719 -0.975722134 -0.0728507116
vn 0.492021859 -0.364552051 0.790579677
vn 0.891279936 -0.30310294 0.337266684
vn 0.288561851 -0.812389255 0.506710708
vn 0.642764211 -0.75031203 0.154551104
vn -0.697806895 0.691070259 -0.188381046
vn 0.309479088 0.88676697 -0.343317807
vn -0.540192842 0.836091816 -0.0956145898
vn -0.265892208 0.755794168 -0.59839493
vn -0.911122084 0.192699596 -0.364312351
vn 0.45662272 0.61128813 -0.646391869
vn 0.90401566 0.407041281 -0.130664006
vn 0.637296975 0.665633976 0.3883093
vn 0.877182901 0.232023001 0.420375526
vn 0.947674513 -0.189913273 -0.256605059
vn 0.891279936 -0.30310294 0.337266684
vn 0.672413707 -0.0653487816 -0.737285078
vn 0.657948613 -0.67081368 -0.342217207
vn 0.642764211 -0.75031203 0.154551104
vn 0.206540719 -0.975722134 -0.0728507116
vn 0.100551575 0.105599135 -0.989311993
vn -0.510670245 0.234587222 -0.827154577
vn -0.442415297 -0.305673033 -0.843108892
vn -0.847836792 -0.320580691 -0.422375202
vn -0.602834582 -0.701907516 -0.379363298
vn 0.217467874 -0.493851662 -0.841913402
vn 0.158435687 -0.841071725 -0.517200649
vn -0.222199142 -0.941420138 -0.253684133
vn -0.247347355 -0.710946143 -0.658312082
vn 0.620082915 0.68103832 0.389466226
vn 0.434328169 0.671517313 0.600352883
vn 0.69102037 0.600209534 0.402789474
vn 0.21275799 0.442434847 0.871197641
vn 0.191885814 0.564390838 0.8028965
vn 0.540869474 0.760108411 0.360132366
vn -0.147517115 0.513118684 0.845545828
vn -0.407861888 0.24359563 0.879948795
vn -0.443482816 0.406276554 0.79891324
vn -0.701266825 0.343933523 0.624447346
vn 0.0894850567 0.539596319 0.837154865
vn 0.266195923 0.925277174 0.27018854
vn -0.114282116 0.699454665 0.705480576
vn -0.117013417 0.986609399 0.1136216
vn -0.599165499 0.546459615 0.585134745
vn -0.466512591 0.882754445 -0.0557728596
vn -0.533881783 0.308860779 0.787130952
vn -0.947384238 -0.122199826 0.295855343
vn -0.934402823 0.21581465 0.283399582
vn -0.919687152 0.149256244 -0.363177866
vn -0.876920283 -0.195914984 -0.438894242
vn -0.343449622 -0.930856228 -0.124696262
vn -0.759620309 0.0741861388 0.64612186
vn -0.803314328 0.274821132 0.528355479
vn -0.723394334 0.659360588 -0.204802945
vn -0.885024011 0.329074889 -0.329305857
vn -0.698262691 -0.286208302 0.656135798
vn -0.631041944 -0.307902753 0.712026715
vn 0.864297092 -0.398749202 0.306577325
vn -0.913910508 0.142342269 -0.380140007
vn -0.390823543 -0.321651638 0.862436712
vn 0.867660999 -0.386144221 0.31314072
vn -0.441037118 -0.298031688 0.846559763
vn -0.918477356 0.119199716 -0.37708199
vn -0.858456075 -0.267350078 -0.437695324
vn -0.831984341 -0.413600892 -0.369778603
vn -0.473854631 -0.365402013 -0.801213562
vn -0.514713883 -0.211600333 -0.830839872
vn -0.903370857 0.129273921 -0.408912271
vn -0.0210821871 -0.246773884 -0.968843818
vn -0.577558219 0.260667533 -0.773614228
vn -0.919687152 0.149256244 -0.363177866
vn -0.466809779 0.395029873 -0.791226864
vn -0.036706645 -0.109144129 -0.993347943
vn 0.414274067 -0.16475457 -0.89511615
vn -0.0829825699 0.406437665 -0.909902334
vn -0.0777824968 0.581938922 -0.809504151
vn 0.217597321 0.659052134 -0.719931662
vn 0.432144046 -0.0333447605 -0.901187837
vn 0.817359328 -0.14624843 -0.557256818
vn 0.370478302 0.491778195 -0.787972152
vn 0.441617668 0.739122689 -0.508597493
vn 0.807213843 -0.00795737468 -0.590205491
vn 0.963386595 -0.229946181 -0.137880459
vn 0.664492667 0.546025932 -0.510201156
vn 0.639324069 0.734799802 -0.22657004
vn 0.826902807 0.542523801 -0.147985816
vn 0.649820924 0.751532495 0.113717675
vn 0.986602306 -0.0759951025 -0.144362763
vn 0.881166577 -0.345403969 0.322864473
vn 0.913775921 -0.176334932 0.365950197
vn 0.856520116 0.494675338 0.147206202
vn 0.620082915 0.68103832 0.389466226
vn 0.765912473 0.489974469 0.416297048
vn -0.701266825 0.343933523 0.624447346
vn -0.756198704 0.148412839 0.637288928
vn -0.934402823 0.21581465 0.283399582
vn -0.443482816 0.406276554 0.79891324
vn -0.98305285 0.107824482 0.148260519
vn -0.919687152 0.149256244 -0.363177866
vn -0.903370857 0.129273921 -0.408912271
vn -0.858456075 -0.267350078 -0.437695324
vn -0.932806432 -0.343999773 0.107407346
vn -0.831984341 -0.413600892 -0.369778603
vn -0.875485063 -0.475458235 0.0864017829
vn -0.676552415 -0.501550853 0.539187789
vn -0.721955776 -0.373497903 0.582476795
vn -0.333889514 -0.455639184 0.82517314
vn -0.342254698 -0.332244217 0.878905833
vn 0.182438269 -0.393688887 0.900958002
vn -0.366809785 0.209196404 0.906469762
vn -0.147517115 0.513118684 0.845545828
vn 0.134538442 -0.267455816 0.954131424
vn 0.587724805 -0.379639596 0.714460194
vn 0.0272013526 0.302653611 0.952712417
vn 0.191885814 0.564390838 0.8028965
vn 0.395230293 0.385191739 0.833918691
vn 0.434328169 0.671517313 0.600352883
vn 0.591125727 -0.227550238 0.773816049
vn 0.881166577 -0.345403969 0.322864473
vn 0.913775921 -0.176334932 0.365950197
vn 0.63455081 0.419450819 0.64915812
vn 0.620082915 0.68103832 0.389466226
vn 0.765912473 0.489974469 0.416297048
vn -0.149915531 -0.96427983 -0.218379587
vn -0.133164555 -0.989395082 -0.058005359
vn 0.153570041 -0.981449187 -0.114777096
vn -0.0490526073 -0.997018337 0.0595674329
vn 0.145956472 -0.983844459 -0.10366632
vn 0.13641201 -0.986643851 -0.0890258923
vn -0.0178215597 -0.945083261 -0.326343626
vn 0.127957627 -0.929978073 -0.344626606
vn 0.093455188 -0.987896681 -0.123799562
vn 0.1949016 -0.970967293 -0.138692945
vn 0.150971845 -0.987871766 -0.0362885855
vn 0.16252394 -0.97454989 -0.154397011
vn 0.0578224473 -0.992752552 0.105351709
vn 0.175914615 -0.980568767 0.0868278891
vn 0.117429771 -0.991800606 -0.0504152663
vn 0.232817188 -0.926058471 -0.29700473
vn 0.299285829 -0.933317184 -0.198360994
vn 0.0595061369 -0.997149289 -0.0463920981
vn 0.332467616 -0.937127829 -0.106097743
vn 0.0266986433 -0.996305466 -0.0816248655
vn 0.323245227 -0.946158051 -0.0172444899
vn 0.0448913351 -0.988383889 -0.145196378
vn 0.265365899 -0.962872386 0.0495755188
vn 0.078987062 -0.976383865 -0.201085746
vn 0.126673982 -0.971554697 -0.20008792
g default001_0
f 3/3/3 2/2/2 1/1/1
f 4/4/4 2/2/2 3/3/3
f 4/4/4 5/5/5 2/2/2
f 6/6/6 5/5/5 4/4/4
f 4/4/4 3/3/3 7/7/7
f 7/7/7 6/6/6 4/4/4
f 7/7/7 3/3/3 8/8/8
f 9/9/9 6/6/6 7/7/7
f 7/7/7 8/8/8 10/10/10
f 10/10/10 8/8/8 11/11/11
f 11/11/11 12/12/12 10/10/10
f 13/13/13 9/9/9 7/7/7
f 10/10/10 13/13/13 7/7/7
f 14/14/14 9/9/9 13/13/13
f 9/9/9 14/14/14 15/15/15
f 16/16/16 15/15/15 14/14/14
f 17/17/17 16/16/16 14/14/14
f 17/17/17 14/14/14 18/18/18
f 12/12/12 19/19/19 10/10/10
f 13/13/13 10/10/10 19/19/19
f 13/13/13 19/19/19 14/14/14
f 20/20/20 19/19/19 12/12/12
f 20/20/20 21/21/21 19/19/19
f 22/22/22 21/21/21 20/20/20
f 14/14/14 19/19/19 23/23/23
f 23/23/23 19/19/19 21/21/21
f 23/23/23 21/21/21 24/24/24
f 25/25/25 21/21/21 22/22/22
f 21/21/21 25/25/25 24/24/24
f 26/26/26 25/25/25 22/22/22
f 14/14/14 23/23/23 27/27/27
f 14/14/14 27/27/27 18/18/18
f 24/24/24 27/27/27 23/23/23
f 24/24/24 18/18/18 27/27/27
f 28/28/28 18/18/18 24/24/24
f 24/24/24 29/29/29 28/28/28
f 30/30/30 25/25/25 26/26/26
f 25/25/25 30/30/30 24/24/24
f 30/30/30 29/29/29 24/24/24
f 31/31/31 29/29/29 30/30/30
f 32/32/32 30/30/30 26/26/26
f 30/30/30 33/33/33 31/31/31
f 32/32/32 33/33/33 30/30/30
f 32/32/32 34/34/34 33/33/33
f 37/37/37 36/36/36 35/35/35
f 35/35/35 36/36/36 38/38/38
f 36/36/36 39/39/39 38/38/38
f 38/38/38 39/39/39 40/40/40
f 40/40/40 39/39/39 41/41/41
f 42/42/42 40/40/40 41/41/41
f 41/41/41 43/43/43 42/42/42
f 38/38/38 40/40/40 44/44/44
f 40/40/40 42/42/42 44/44/44
f 38/38/38 45/45/45 35/35/35
f 45/45/45 38/38/38 44/44/44
f 46/46/46 42/42/42 43/43/43
f 47/47/47 46/46/46 43/43/43
f 45/45/45 48/48/48 35/35/35
f 35/35/35 48/48/48 49/49/49
f 48/48/48 50/50/50 49/49/49
f 44/44/44 51/51/51 45/45/45
f 45/45/45 51/51/51 48/48/48
f 44/44/44 42/42/42 52/52/52
f 46/46/46 52/52/52 42/42/42
f 44/44/44 52/52/52 51/51/51
f 47/47/47 53/53/53 46/46/46
f 53/53/53 52/52/52 46/46/46
f 53/53/53 47/47/47 54/54/54
f 48/48/48 55/55/55 50/50/50
f 51/51/51 55/55/55 48/48/48
f 50/50/50 55/55/55 56/56/56
f 52/52/52 53/53/53 57/57/57
f 54/54/54 57/57/57 53/53/53
f 51/51/51 52/52/52 57/57/57
f 51/51/51 57/57/57 55/55/55
f 55/55/55 57/57/57 56/56/56
f 58/58/58 57/57/57 54/54/54
f 57/57/57 58/58/58 56/56/56
f 61/61/61 60/60/60 59/59/59
f 59/59/59 60/60/60 62/62/62
f 59/59/59 62/62/62 63/63/63
f 62/62/62 60/60/60 64/64/64
f 64/64/64 60/60/60 65/65/65
f 60/60/60 66/66/66 65/65/65
f 65/65/65 66/66/66 67/67/67
f 65/65/65 67/67/67 68/68/68
f 67/67/67 69/69/69 68/68/68
f 64/64/64 65/65/65 70/70/70
f 70/70/70 65/65/65 68/68/68
f 68/68/68 69/69/69 71/71/71
f 70/70/70 68/68/68 71/71/71
f 69/69/69 72/72/72 71/71/71
f 72/72/72 73/73/73 71/71/71
f 64/64/64 74/74/74 62/62/62
f 74/74/74 64/64/64 70/70/70
f 75/75/75 63/63/63 62/62/62
f 62/62/62 74/74/74 75/75/75
f 75/75/75 76/76/76 63/63/63
f 75/75/75 74/74/74 76/76/76
f 76/76/76 77/77/77 63/63/63
f 77/77/77 76/76/76 78/78/78
f 74/74/74 70/70/70 79/79/79
f 70/70/70 71/71/71 79/79/79
f 74/74/74 79/79/79 76/76/76
f 73/73/73 80/80/80 71/71/71
f 79/79/79 71/71/71 80/80/80
f 73/73/73 81/81/81 80/80/80
f 81/81/81 78/78/78 82/82/82
f 82/82/82 78/78/78 76/76/76
f 79/79/79 82/82/82 76/76/76
f 80/80/80 82/82/82 79/79/79
f 80/80/80 81/81/81 82/82/82
f 85/85/85 84/84/84 83/83/83
f 85/85/85 86/86/86 84/84/84
f 86/86/86 87/87/87 84/84/84
f 85/85/85 88/88/88 86/86/86
f 87/87/87 86/86/86 89/89/89
f 86/86/86 90/90/90 89/89/89
f 90/90/90 91/91/91 89/89/89
f 92/92/92 91/91/91 90/90/90
f 88/88/88 93/93/93 86/86/86
f 90/90/90 86/86/86 93/93/93
f 88/88/88 94/94/94 93/93/93
f 94/94/94 95/95/95 93/93/93
f 93/93/93 95/95/95 90/90/90
f 94/94/94 96/96/96 95/95/95
f 96/96/96 97/97/97 95/95/95
f 97/97/97 96/96/96 98/98/98
f 95/95/95 99/99/99 90/90/90
f 99/99/99 95/95/95 97/97/97
f 99/99/99 97/97/97 100/100/100
f 101/101/101 92/92/92 100/100/100
f 101/101/101 100/100/100 102/102/102
f 100/100/100 103/103/103 102/102/102
f 104/104/104 103/103/103 100/100/100
f 90/90/90 99/99/99 105/105/105
f 90/90/90 105/105/105 92/92/92
f 100/100/100 105/105/105 99/99/99
f 100/100/100 92/92/92 105/105/105
f 106/106/106 97/97/97 98/98/98
f 107/107/107 106/106/106 98/98/98
f 107/107/107 108/108/108 106/106/106
f 100/100/100 97/97/97 109/109/109
f 100/100/100 109/109/109 104/104/104
f 97/97/97 106/106/106 109/109/109
f 106/106/106 108/108/108 110/110/110
f 106/106/106 110/110/110 109/109/109
f 109/109/109 110/110/110 104/104/104
f 110/110/110 111/111/111 104/104/104
f 108/108/108 112/112/112 110/110/110
f 113/113/113 111/111/111 110/110/110
f 110/110/110 112/112/112 113/113/113
f 113/113/113 114/114/114 111/111/111
f 115/115/115 114/114/114 113/113/113
f 112/112/112 115/115/115 113/113/113
f 116/116/116 115/115/115 112/112/112
f 119/119/119 118/118/118 117/117/117
f 120/120/120 119/119/119 117/117/117
f 120/120/120 117/117/117 121/121/121
f 119/119/119 120/120/120 122/122/122
f 123/123/123 120/120/120 121/121/121
f 123/123/123 121/121/121 124/124/124
f 123/123/123 124/124/124 125/125/125
f 120/120/120 126/126/126 122/122/122
f 126/126/126 120/120/120 123/123/123
f 127/127/127 122/122/122 126/126/126
f 123/123/123 125/125/125 128/128/128
f 128/128/128 126/126/126 123/123/123
f 125/125/125 129/129/129 128/128/128
f 130/130/130 128/128/128 129/129/129
f 131/131/131 127/127/127 126/126/126
f 131/131/131 126/126/126 128/128/128
f 127/127/127 131/131/131 132/132/132
f 133/133/133 128/128/128 130/130/130
f 133/133/133 131/131/131 128/128/128
f 133/133/133 130/130/130 134/134/134
f 131/131/131 135/135/135 132/132/132
f 135/135/135 131/131/131 133/133/133
f 136/136/136 132/132/132 135/135/135
f 137/137/137 133/133/133 134/134/134
f 137/137/137 135/135/135 133/133/133
f 138/138/138 137/137/137 134/134/134
f 139/139/139 137/137/137 138/138/138
f 135/135/135 137/137/137 139/139/139
f 139/139/139 138/138/138 140/140/140
f 141/141/141 136/136/136 135/135/135
f 141/141/141 135/135/135 139/139/139
f 142/142/142 136/136/136 141/141/141
f 143/143/143 142/142/142 141/141/141
f 144/144/144 139/139/139 140/140/140
f 139/139/139 144/144/144 141/141/141
f 143/143/143 141/141/141 144/144/144
f 140/140/140 145/145/145 144/144/144
f 146/146/146 143/143/143 144/144/144
f 145/145/145 146/146/146 144/144/144
f 149/149/149 148/148/148 147/147/147
f 148/148/148 150/150/150 147/147/147
f 151/151/151 148/148/148 149/149/149
f 151/151/151 149/149/149 152/152/152
f 151/151/151 152/152/152 153/153/153
f 153/153/153 154/154/154 151/151/151
f 154/154/154 155/155/155 151/151/151
f 154/154/154 156/156/156 155/155/155
f 156/156/156 157/157/157 155/155/155
f 157/157/157 158/158/158 155/155/155
f 151/151/151 155/155/155 159/159/159
f 158/158/158 159/159/159 155/155/155
f 148/148/148 151/151/151 159/159/159
f 159/159/159 158/158/158 160/160/160
f 161/161/161 159/159/159 160/160/160
f 159/159/159 161/161/161 148/148/148
f 160/160/160 162/162/162 161/161/161
f 148/148/148 163/163/163 150/150/150
f 161/161/161 163/163/163 148/148/148
f 150/150/150 163/163/163 164/164/164
f 162/162/162 165/165/165 161/161/161
f 163/163/163 161/161/161 165/165/165
f 165/165/165 162/162/162 166/166/166
f 167/167/167 164/164/164 163/163/163
f 167/167/167 163/163/163 165/165/165
f 168/168/168 164/164/164 167/167/167
f 169/169/169 168/168/168 167/167/167
f 169/169/169 167/167/167 165/165/165
f 170/170/170 168/168/168 169/169/169
f 171/171/171 165/165/165 166/166/166
f 171/171/171 169/169/169 165/165/165
f 166/166/166 172/172/172 171/171/171
f 172/172/172 173/173/173 171/171/171
f 174/174/174 170/170/170 169/169/169
f 169/169/169 171/171/171 174/174/174
f 173/173/173 174/174/174 171/171/171
f 170/170/170 174/174/174 175/175/175
f 176/176/176 174/174/174 173/173/173
f 174/174/174 176/176/176 175/175/175
f 179/179/179 178/178/178 177/177/177
f 178/178/178 179/179/179 180/180/180
f 181/181/181 179/179/179 177/177/177
f 182/182/182 181/181/181 177/177/177
f 183/183/183 182/182/182 177/177/177
f 182/182/182 183/183/183 184/184/184
f 181/181/181 185/185/185 179/179/179
f 182/182/182 185/185/185 181/181/181
f 179/179/179 185/185/185 186/186/186
f 179/179/179 186/186/186 180/180/180
f 187/187/187 185/185/185 182/182/182
f 187/187/187 182/182/182 184/184/184
f 186/186/186 185/185/185 188/188/188
f 186/186/186 188/188/188 180/180/180
f 188/188/188 189/189/189 180/180/180
f 189/189/189 188/188/188 190/190/190
f 191/191/191 187/187/187 184/184/184
f 191/191/191 185/185/185 187/187/187
f 192/192/192 191/191/191 184/184/184
f 191/191/191 192/192/192 193/193/193
f 194/194/194 191/191/191 193/193/193
f 194/194/194 185/185/185 191/191/191
f 194/194/194 193/193/193 195/195/195
f 196/196/196 194/194/194 195/195/195
f 196/196/196 185/185/185 194/194/194
f 196/196/196 195/195/195 197/197/197
f 198/198/198 196/196/196 197/197/197
f 198/198/198 185/185/185 196/196/196
f 198/198/198 197/197/197 199/199/199
f 200/200/200 198/198/198 199/199/199
f 200/200/200 199/199/199 190/190/190
f 200/200/200 185/185/185 198/198/198
f 188/188/188 201/201/201 190/190/190
f 188/188/188 185/185/185 201/201/201
f 201/201/201 200/200/200 190/190/190
f 201/201/201 185/185/185 200/200/200
