g default001
v -0.886166751 7.46971178 -0.331231683
v -0.764638424 7.46146631 -0.342368782
v -0.908479452 7.68605566 -0.334726542
v -0.724686027 7.71233892 -0.348120719
v -0.75842464 7.46427584 -0.218908072
v -0.726106882 7.69153309 -0.17609863
v -0.629357219 7.94180965 -0.337224722
v -0.861637473 7.94946623 -0.273626089
v -0.61490804 7.83954287 -0.0496362299
v -0.544332862 8.17426205 -0.265936881
v -0.759226084 8.19210052 -0.145667106
v -0.640290916 8.31088161 -0.0188269038
v -0.442351609 8.05241966 -0.19887206
v -0.282792836 7.93955803 -0.229002073
v -0.566000402 7.79567289 -0.032774657
v -0.539266169 7.74543095 -0.0540747046
v -0.186131135 7.82099247 -0.247640371
v 0.0454074182 7.85516453 -0.217247918
v -0.395348579 8.28218365 -0.151004642
v -0.477357388 8.38708687 0.130589589
v -0.146895513 8.32299519 0.0663757324
v -0.230671555 8.37451649 0.334442735
v -0.17989485 8.14218807 -0.131567985
v 0.12864612 8.0628624 -0.118277587
v 0.157942668 8.19904423 0.174990848
v 0.0188073125 8.24799919 0.545506597
v -0.0923910663 8.0186348 -0.201432496
v 0.223874718 7.89672756 -0.100482784
v 0.332427353 7.8998313 0.0633453354
v 0.303498417 8.06300831 0.26285705
v 0.37906462 7.92036009 0.301086426
v 0.161406547 8.05351162 0.641445935
v 0.353307575 7.91498899 0.548742056
v 0.243221372 7.88841248 0.734723508
v -0.881637335 7.46015835 -0.209373161
v -0.943735421 7.39719534 -0.382586658
v -0.886166751 7.46971178 -0.331231683
v -0.984211504 7.39366579 -0.263374031
v -0.966705322 7.28576088 -0.403887331
v -1.01341796 7.28287935 -0.283806145
v -0.945714414 7.19588709 -0.386304319
v -0.987254918 7.19703102 -0.283553451
v -0.89634192 7.13212681 -0.343497306
v -0.985770404 7.27788067 -0.182406619
v -0.925906062 7.38776159 -0.150762931
v -0.910057068 7.12629271 -0.271246344
v -0.840340853 7.10728359 -0.294478148
v -0.79403168 7.38165712 -0.114693604
v -0.75842464 7.46427584 -0.218908072
v -0.699366987 7.38066673 -0.167777091
v -0.888712645 7.27195644 -0.103789061
v -0.922152281 7.17940521 -0.183578491
v -0.85645932 7.11662483 -0.225388795
v -0.784562945 7.11367893 -0.245346069
v -0.794445634 7.26931095 -0.0953234807
v -0.684945822 7.26865482 -0.156191409
v -0.791611791 7.17093658 -0.141999513
v -0.717931628 7.17159891 -0.186160877
v -0.943735421 7.39719534 -0.382586658
v -0.764638424 7.46146631 -0.342368782
v -0.886166751 7.46971178 -0.331231683
v -0.830629706 7.39537954 -0.43795836
v -0.966705322 7.28576088 -0.403887331
v -0.711449444 7.39015627 -0.394544661
v -0.658801258 7.38316679 -0.26841858
v -0.75842464 7.46427584 -0.218908072
v -0.699366987 7.38066673 -0.167777091
v -0.63854748 7.2710495 -0.272539675
v -0.684945822 7.26865482 -0.156191409
v -0.658993065 7.27452135 -0.364923686
v -0.683521926 7.17214441 -0.264870614
v -0.717931628 7.17159891 -0.186160877
v -0.784562945 7.11367893 -0.245346069
v -0.749428451 7.28051901 -0.451067507
v -0.85354048 7.28466415 -0.465547472
v -0.849114656 7.19857359 -0.440582871
v -0.945714414 7.19588709 -0.386304319
v -0.89634192 7.13212681 -0.343497306
v -0.741488457 7.18142033 -0.388947755
v -0.773967505 7.11754322 -0.319163203
v -0.840340853 7.10728359 -0.294478148
v -0.826376498 7.12722874 -0.366369635
v 0.243221372 7.88841248 0.734723508
v 0.146448538 7.8810401 0.851802945
v 0.161406547 8.05351162 0.641445935
v -0.12628065 7.97776556 0.83954525
v -0.024544267 7.84428835 0.917964458
v 0.0188073125 8.24799919 0.545506597
v -0.266149014 7.79361486 0.882326007
v -0.524931014 7.92039156 0.640700042
v -0.482334971 7.74272871 0.754216909
v -0.602922738 7.71947241 0.558937967
v -0.266545743 8.11977863 0.683190882
v -0.230671555 8.37451649 0.334442735
v -0.464947492 8.25642776 0.44715026
v -0.477357388 8.38708687 0.130589589
v -0.716028869 8.21506691 0.23291564
v -0.640290916 8.31088161 -0.0188269038
v -0.61740917 8.06947613 0.392227173
v -0.705338478 7.85112095 0.276873171
v -0.671121895 7.71948576 0.332994372
v -0.539266169 7.74543095 -0.0540747046
v -0.566000402 7.79567289 -0.032774657
v -0.61490804 7.83954287 -0.0496362299
v -0.647225499 7.88836432 0.483005971
v -0.806227863 8.11424923 0.0773547366
v -0.759226084 8.19210052 -0.145667106
v -0.861637473 7.94946623 -0.273626089
v -0.745777905 7.98891401 0.164392084
v -0.877080142 7.88996267 -0.0406488031
v -0.726106882 7.69153309 -0.17609863
v -0.908479452 7.68605566 -0.334726542
v -0.895383 7.6678524 -0.147612303
v -0.75842464 7.46427584 -0.218908072
v -0.881637335 7.46015835 -0.209373161
v -0.886166751 7.46971178 -0.331231683
v -0.507650435 7.44463539 -0.093195796
v -0.470433861 7.32782221 -0.0290417466
v -0.153437689 7.3915143 -0.257443845
v -0.185653761 7.51398373 -0.301976323
v -0.521115243 7.63602352 -0.112602539
v 0.15998216 7.46170902 -0.241640612
v -0.214192927 7.69267941 -0.294162601
v -0.539266169 7.74543095 -0.0540747046
v -0.186131135 7.82099247 -0.247640371
v 0.140022025 7.59419775 -0.296198726
v 0.395572513 7.52487707 -0.114121698
v 0.102589332 7.76068258 -0.272334576
v 0.0454074182 7.85516453 -0.217247918
v 0.223874718 7.89672756 -0.100482784
v 0.394233227 7.64607 -0.131185293
v 0.492938846 7.54128647 0.155119628
v 0.349280536 7.82262564 -0.100296021
v 0.332427353 7.8998313 0.0633453354
v 0.539713681 7.66564608 0.172255859
v 0.494548947 7.55263472 0.434976786
v 0.471930981 7.84349775 0.175626829
v 0.37906462 7.92036009 0.301086426
v 0.460373968 7.86264706 0.412726432
v 0.353307575 7.91498899 0.548742056
v 0.493867248 7.67155218 0.487066031
v 0.346578896 7.52672911 0.757471323
v 0.388262779 7.63709021 0.747310758
v 0.41105032 7.85444784 0.589480579
v 0.243221372 7.88841248 0.734723508
v 0.302083969 7.83417273 0.774284661
v -0.602922738 7.71947241 0.558937967
v -0.629071951 7.60754919 0.603615701
v -0.671121895 7.71948576 0.332994372
v -0.482334971 7.74272871 0.754216909
v -0.689853728 7.59312582 0.275301516
v -0.539266169 7.74543095 -0.0540747046
v -0.521115243 7.63602352 -0.112602539
v -0.507650435 7.44463539 -0.093195796
v -0.671673059 7.41226196 0.279889524
v -0.470433861 7.32782221 -0.0290417466
v -0.601384163 7.29776096 0.278840929
v -0.537603199 7.31570721 0.593513191
v -0.616915643 7.43577433 0.610012174
v -0.387591004 7.35638857 0.837080657
v -0.425165176 7.46999741 0.863397837
v -0.080104664 7.42377806 0.978250086
v -0.433681548 7.66836548 0.850665271
v -0.266149014 7.79361486 0.882326007
v -0.128738835 7.53728485 1.01146543
v 0.110028833 7.48666668 0.963181734
v -0.168471143 7.73960066 0.98125428
v -0.024544267 7.84428835 0.917964458
v 0.0300806761 7.78988266 0.983234823
v 0.146448538 7.8810401 0.851802945
v 0.106587119 7.60502291 1.00528562
v 0.346578896 7.52672911 0.757471323
v 0.388262779 7.63709021 0.747310758
v 0.21434623 7.82312584 0.888139009
v 0.243221372 7.88841248 0.734723508
v 0.302083969 7.83417273 0.774284661
v -0.470433861 7.32782221 -0.0290417466
v -0.601384163 7.29776096 0.278840929
v -0.515584886 7.29200411 0.2761316
v -0.537603199 7.31570721 0.593513191
v -0.405569077 7.31726742 0.0173327625
v -0.139091954 7.3708024 -0.174608156
v -0.153437689 7.3915143 -0.257443845
v 0.15998216 7.46170902 -0.241640612
v -0.0097359987 7.70926762 0.381784648
v -0.461939454 7.30830288 0.540866077
v 0.124383464 7.43101788 -0.16108337
v -0.335883856 7.34126043 0.745397925
v -0.387591004 7.35638857 0.837080657
v -0.080104664 7.42377806 0.978250086
v 0.340797126 7.48288631 -0.064729616
v 0.395572513 7.52487707 -0.114121698
v 0.492938846 7.54128647 0.155119628
v 0.365085274 7.49266195 0.17455627
v 0.494548947 7.55263472 0.434976786
v 0.380502313 7.50522089 0.403790891
v 0.346578896 7.52672911 0.757471323
v 0.265782893 7.47667646 0.681752324
v 0.110028833 7.48666668 0.963181734
v 0.145003006 7.4537878 0.845431507
v -0.0774268135 7.39790249 0.864033163
vt 0.146519482 0.00995526835
vt 0.112050742 0.0256315153
vt 0.194219977 0.0905035734
vt 0.142050475 0.113400728
vt 0.0757099316 0.0368783511
vt 0.0886206403 0.120189339
vt 0.175310656 0.215205073
vt 0.241391733 0.177324817
vt 0.0861979425 0.222625107
vt 0.21670343 0.299092412
vt 0.287562758 0.2676889
vt 0.313214749 0.337980062
vt 0.162868455 0.300757587
vt 0.0889271647 0.337304771
vt 0.054232724 0.230203539
vt 0.0151071288 0.231173247
vt 0.0151071288 0.352170885
vt 0.0151071288 0.417641461
vt 0.235193044 0.366648287
vt 0.320869803 0.4174757
vt 0.231409878 0.469237894
vt 0.29383412 0.528662324
vt 0.19048591 0.411265433
vt 0.0966668874 0.462982655
vt 0.155101985 0.554538608
vt 0.215539426 0.648798108
vt 0.0954388082 0.39974606
vt 0.0151071288 0.480908334
vt 0.0151071288 0.550562918
vt 0.0877677575 0.598978877
vt 0.0151071288 0.618542373
vt 0.121158272 0.722185612
vt 0.0151071288 0.690305173
vt 0.0151071288 0.750105023
vt 0.861239612 0.938861191
vt 0.759640634 0.916133285
vt 0.796229303 0.945837557
vt 0.81267041 0.903196216
vt 0.746291816 0.85101819
vt 0.801343501 0.852237582
vt 0.764371574 0.797186852
vt 0.809842646 0.813452601
vt 0.805213034 0.757918358
vt 0.842516005 0.855023503
vt 0.865435064 0.904346585
vt 0.837359488 0.774150729
vt 0.854238808 0.742102027
vt 0.923667848 0.904897332
vt 0.930384099 0.95156461
vt 0.971270561 0.91232574
vt 0.89074403 0.855192065
vt 0.861527503 0.81051755
vt 0.873028576 0.770550013
vt 0.902194917 0.749385595
vt 0.927874744 0.852582932
vt 0.97875452 0.846772075
vt 0.920529664 0.803005576
vt 0.95555377 0.788114071
vt 0.707526147 0.917535424
vt 0.605499327 0.940547287
vt 0.670778334 0.947359383
vt 0.654103041 0.9048388
vt 0.721742392 0.852007866
vt 0.601283669 0.906014919
vt 0.543017089 0.906441212
vt 0.536147058 0.953063786
vt 0.495364457 0.913675666
vt 0.538894415 0.854105234
vt 0.488039523 0.848095298
vt 0.575984657 0.856790543
vt 0.546371937 0.804566622
vt 0.511387169 0.789548397
vt 0.564691782 0.751000881
vt 0.624005973 0.85661304
vt 0.664529622 0.854158878
vt 0.657883346 0.81488049
vt 0.700725138 0.798945069
vt 0.660996616 0.759393096
vt 0.605490863 0.812168717
vt 0.593806028 0.772226214
vt 0.612434745 0.743783474
vt 0.629409552 0.775854468
vt 0.989403844 0.732993066
vt 0.989403844 0.672277391
vt 0.884434819 0.705600441
vt 0.917603314 0.584062278
vt 0.989403844 0.603510857
vt 0.790617943 0.633386791
vt 0.989403844 0.536381423
vt 0.906525016 0.449604094
vt 0.989403844 0.467581838
vt 0.989403844 0.405117959
vt 0.851143897 0.539941132
vt 0.713950634 0.513708651
vt 0.775764287 0.455381453
vt 0.687694073 0.402776688
vt 0.772698402 0.354081035
vt 0.696945906 0.323138803
vt 0.816473305 0.398534983
vt 0.917254329 0.326051056
vt 0.989403844 0.340275794
vt 0.989403844 0.219340995
vt 0.949940085 0.218577757
vt 0.916089118 0.225562334
vt 0.909092784 0.387042642
vt 0.792713404 0.287347764
vt 0.724796414 0.253009439
vt 0.778045774 0.165079623
vt 0.845069349 0.291080892
vt 0.840031803 0.207532644
vt 0.935563385 0.124255829
vt 0.833783329 0.0838525221
vt 0.883671939 0.112080723
vt 0.956291378 0.0433729701
vt 0.921601415 0.0287705287
vt 0.889224768 0.00995526742
vt 0.441063344 0.653123915
vt 0.497050375 0.653123915
vt 0.497050375 0.536891758
vt 0.44113028 0.531983316
vt 0.379367888 0.653123915
vt 0.497050375 0.435389251
vt 0.384282976 0.531549215
vt 0.338174403 0.653123915
vt 0.338174403 0.518050075
vt 0.436773449 0.430111498
vt 0.497050375 0.344056845
vt 0.382314593 0.430965424
vt 0.338174403 0.437363237
vt 0.338174403 0.357512444
vt 0.440902054 0.333614588
vt 0.497050375 0.232409045
vt 0.381278783 0.330757558
vt 0.338174403 0.270245284
vt 0.43824169 0.230581433
vt 0.497050375 0.140675545
vt 0.377809823 0.234681636
vt 0.338174403 0.181752488
vt 0.374557316 0.146138772
vt 0.338174403 0.0981775522
vt 0.437959552 0.136655822
vt 0.497050375 0.0225349702
vt 0.439440042 0.0225349702
vt 0.372900754 0.0895478129
vt 0.338174403 0.0225349702
vt 0.372369379 0.0225349702
vt 0.513640285 0.270647228
vt 0.558047593 0.276810586
vt 0.513640285 0.190704748
vt 0.513640285 0.350250125
vt 0.558860064 0.177627861
vt 0.513640285 0.0531589575
vt 0.554818034 0.0531589575
vt 0.617949367 0.0531589575
vt 0.616296113 0.174224421
vt 0.672546446 0.0531590246
vt 0.672546446 0.165482625
vt 0.672546446 0.270458668
vt 0.612601817 0.27678293
vt 0.672546446 0.363054395
vt 0.616516232 0.373821199
vt 0.672546446 0.475494087
vt 0.556841314 0.376927704
vt 0.513640285 0.437630892
vt 0.613750517 0.477312773
vt 0.672546446 0.567237914
vt 0.553306401 0.473291844
vt 0.513640285 0.526445925
vt 0.550111771 0.56219393
vt 0.513640285 0.607708395
vt 0.612100422 0.573425055
vt 0.672546446 0.686227858
vt 0.615104973 0.686227858
vt 0.548793733 0.619045675
vt 0.513640285 0.686227858
vt 0.547647119 0.686227858
vt 0.301591456 0.66426307
vt 0.219418064 0.688918948
vt 0.229464516 0.702385247
vt 0.168729365 0.753874838
vt 0.302979141 0.680467367
vt 0.391045243 0.703078806
vt 0.399596035 0.689353228
vt 0.449918568 0.754493356
vt 0.295697212 0.830009937
vt 0.184017584 0.761055291
vt 0.435718119 0.762168527
vt 0.16467163 0.82380861
vt 0.147154704 0.824674368
vt 0.171530768 0.909703255
vt 0.454623252 0.825735748
vt 0.471177578 0.8254233
vt 0.44643575 0.910272956
vt 0.431995809 0.901578665
vt 0.396662474 0.961015463
vt 0.38733533 0.945338309
vt 0.308855116 0.985623717
vt 0.308532923 0.969717562
vt 0.221103653 0.960656047
vt 0.230134174 0.944292963
vt 0.186440289 0.900198281
vn -0.772592783 -0.048811391 -0.633022726
vn 0.603259087 -0.120957084 -0.788319647
vn -0.766640604 -0.0263175126 -0.641537011
vn 0.646256864 -0.132379636 -0.751550198
vn 0.756071568 -0.229262874 0.613020658
vn 0.754839182 -0.243253529 0.609135032
vn 0.451329976 -0.18531999 -0.872901976
vn -0.764924586 0.169019341 -0.621548891
vn -0.247963145 -0.968558431 -0.0202185363
vn 0.051484175 0.313862771 -0.948071539
vn -0.665119588 0.530875325 -0.525154591
vn -0.475692093 0.803374171 -0.358199596
vn 0.330736995 -0.201226965 -0.922020018
vn -0.127014399 -0.121293023 -0.984456837
vn -0.696062863 -0.363096893 -0.61940062
vn -0.779006481 -0.016785644 -0.626791179
vn -0.203539938 0.194669619 -0.959518194
vn 0.159909159 0.404580742 -0.900412917
vn 0.120182186 0.599003255 -0.791676283
vn -0.197963268 0.972651899 -0.121486127
vn 0.397070915 0.814934909 -0.422156096
vn 0.125121355 0.981515884 0.144814596
vn 0.375426263 0.418920785 -0.826777101
vn 0.5195207 0.386087745 -0.762256265
vn 0.635159016 0.706876695 -0.311285138
vn 0.369274467 0.865470707 0.338521481
vn 0.21874924 0.15199925 -0.96386981
vn 0.401161075 0.52033627 -0.75387001
vn 0.542452276 0.659850121 -0.519945443
vn 0.741298199 0.632945836 -0.223286048
vn 0.646915436 0.734550297 -0.204783455
vn 0.508460522 0.732556939 0.452579468
vn 0.55507195 0.822307646 0.125320375
vn 0.439672619 0.801973403 0.404384375
vn -0.386834562 0.786258399 0.481826454
vn -0.647199035 0.567443967 -0.509058654
vn -0.531856537 0.743607163 -0.405187696
vn -0.82534498 0.557222307 0.0911540911
vn -0.772198796 0.0259434357 -0.634851158
vn -0.999387264 -0.00991758332 -0.0335672013
vn -0.667856276 -0.479329973 -0.569395185
vn -0.854377031 -0.519491792 0.0129682226
vn -0.426518649 -0.817939162 -0.38607949
vn -0.819152534 -0.115932189 0.561737299
vn -0.508048713 0.454650193 0.731559634
vn -0.5135566 -0.854655862 0.0763085708
vn -0.0873608291 -0.98958081 -0.114446513
vn 0.171668813 0.429553509 0.88657409
vn 0.457748026 0.788470984 0.410828829
vn 0.700751305 0.396342248 0.593178213
vn -0.331105977 -0.17241925 0.927707136
vn -0.511849105 -0.63466239 0.57897687
vn -0.18076852 -0.913758159 0.363825262
vn 0.271137029 -0.944975495 0.183046103
vn 0.226548716 -0.162474334 0.960352957
vn 0.766786695 -0.141912743 0.626018345
vn 0.148410365 -0.666892886 0.730224788
vn 0.607544303 -0.638436377 0.472534478
vn -0.647199035 0.567443967 -0.509058654
vn 0.365077943 0.824763477 -0.431837231
vn -0.531856537 0.743607163 -0.405187696
vn -0.0923236161 0.594381034 -0.798866332
vn -0.772198796 0.0259434357 -0.634851158
vn 0.600447655 0.511181593 -0.614943802
vn 0.884484529 0.466080278 0.0213588346
vn 0.457748026 0.788470984 0.410828829
vn 0.700751305 0.396342248 0.593178213
vn 0.991885424 -0.123604178 0.0297565628
vn 0.766786695 -0.141912743 0.626018345
vn 0.8532722 -0.110616423 -0.509598374
vn 0.772840738 -0.633988738 -0.0278466791
vn 0.607544303 -0.638436377 0.472534478
vn 0.271137029 -0.944975495 0.183046103
vn 0.398340404 -0.0526541919 -0.915725112
vn -0.227321967 0.0297501907 -0.973365188
vn -0.13120608 -0.48286882 -0.865807474
vn -0.667856276 -0.479329973 -0.569395185
vn -0.426518649 -0.817939162 -0.38607949
vn 0.494921029 -0.581541717 -0.645648718
vn 0.361328453 -0.88519752 -0.293030888
vn -0.0873608291 -0.98958081 -0.114446513
vn 0.0129709067 -0.82784909 -0.560801029
vn 0.439672619 0.801973403 0.404384375
vn 0.189097419 0.803997695 0.563763976
vn 0.508460522 0.732556939 0.452579468
vn -0.101467468 0.589922726 0.801059067
vn -0.105250396 0.696681738 0.709617436
vn 0.369274467 0.865470707 0.338521481
vn -0.432555944 0.60940218 0.664472938
vn -0.662562251 0.327085257 0.673814774
vn -0.683315277 0.465177059 0.562752664
vn -0.868539393 0.352832198 0.348064214
vn -0.210958555 0.663775563 0.717564285
vn 0.125121355 0.981515884 0.144814596
vn -0.370424509 0.776327372 0.510001302
vn -0.197963268 0.972651899 -0.121486127
vn -0.777631223 0.55288893 0.2993384
vn -0.475692093 0.803374171 -0.358199596
vn -0.756134033 0.361280978 0.545653045
vn -0.98344028 -0.16748561 0.0692375526
vn -0.987981737 0.154395998 -0.00734310737
vn -0.779006481 -0.016785644 -0.626791179
vn -0.696062863 -0.363096893 -0.61940062
vn -0.247963145 -0.968558431 -0.0202185363
vn -0.909329772 0.0962396264 0.404792875
vn -0.93283546 0.262193114 0.247128934
vn -0.665119588 0.530875325 -0.525154591
vn -0.764924586 0.169019341 -0.621548891
vn -0.836803794 -0.230559647 0.496589988
vn -0.788199008 -0.234890729 0.568830907
vn 0.754839182 -0.243253529 0.609135032
vn -0.766640604 -0.0263175126 -0.641537011
vn -0.610922575 -0.196585894 0.766894758
vn 0.756071568 -0.229262874 0.613020658
vn -0.653841138 -0.182343096 0.734331489
vn -0.772592783 -0.048811391 -0.633022726
vn -0.675066233 -0.430974483 -0.598787546
vn -0.664527595 -0.560003757 -0.494771689
vn -0.172936976 -0.538746893 -0.824526906
vn -0.209011048 -0.399714559 -0.892492473
vn -0.747012436 -0.0423485115 -0.663459957
vn 0.300223917 -0.393304795 -0.869009137
vn -0.310087115 0.0577837601 -0.94895041
vn -0.779006481 -0.016785644 -0.626791179
vn -0.203539938 0.194669619 -0.959518194
vn 0.285889655 -0.267961979 -0.920034528
vn 0.667815447 -0.255531877 -0.699089408
vn 0.193379432 0.221318394 -0.955835998
vn 0.159909159 0.404580742 -0.900412917
vn 0.401161075 0.52033627 -0.75387001
vn 0.677018285 -0.132543012 -0.723932743
vn 0.944635391 -0.143450275 -0.295103163
vn 0.565989137 0.365137339 -0.73914212
vn 0.542452276 0.659850121 -0.519945443
vn 0.935146272 -0.0202214438 -0.353684455
vn 0.977204323 -0.141317025 0.158433348
vn 0.756087065 0.497731924 -0.424965173
vn 0.646915436 0.734550297 -0.204783455
vn 0.810182214 0.584607065 -0.0428883508
vn 0.55507195 0.822307646 0.125320375
vn 0.991919518 0.00877467263 0.126565099
vn 0.76422739 -0.185429126 0.617715478
vn 0.773597717 -0.00972719025 0.63360244
vn 0.755333602 0.600070596 0.263413042
vn 0.439672619 0.801973403 0.404384375
vn 0.58205694 0.635194421 0.507678747
vn -0.868539393 0.352832198 0.348064214
vn -0.908808827 0.164440215 0.383439511
vn -0.987981737 0.154395998 -0.00734310737
vn -0.683315277 0.465177059 0.562752664
vn -0.991415203 0.0230872277 -0.128696993
vn -0.779006481 -0.016785644 -0.626791179
vn -0.747012436 -0.0423485115 -0.663459957
vn -0.675066233 -0.430974483 -0.598787546
vn -0.908918917 -0.412104309 -0.0635327473
vn -0.664527595 -0.560003757 -0.494771689
vn -0.842194557 -0.537432969 -0.0432921574
vn -0.776675701 -0.451280653 0.439454973
vn -0.835340858 -0.327270567 0.441700816
vn -0.544759452 -0.320828199 0.7747944
vn -0.572641075 -0.198383346 0.795440853
vn -0.100373894 -0.201796845 0.974270582
vn -0.630979359 0.303091347 0.714143395
vn -0.432555944 0.60940218 0.664472938
vn -0.165563062 -0.0783945024 0.98307842
vn 0.345852882 -0.181224629 0.920621157
vn -0.292507797 0.444054872 0.846908808
vn -0.105250396 0.696681738 0.709617436
vn 0.0862485319 0.552820206 0.828825057
vn 0.189097419 0.803997695 0.563763976
vn 0.321252435 -0.024029566 0.946688652
vn 0.76422739 -0.185429126 0.617715478
vn 0.773597717 -0.00972719025 0.63360244
vn 0.378633142 0.588741124 0.714157403
vn 0.439672619 0.801973403 0.404384375
vn 0.58205694 0.635194421 0.507678747
vn -0.0274692159 -0.998048186 -0.0560829863
vn -0.0625580773 -0.99177438 0.11166998
vn 0.233868107 -0.963704467 0.128760993
vn -0.0209842212 -0.96794486 0.250284553
vn 0.222363457 -0.96497339 0.139215529
vn 0.209299803 -0.966116369 0.151039124
vn 0.135810241 -0.981953859 -0.131613865
vn 0.281747252 -0.952637732 -0.114453867
vn 0.178370774 -0.978275776 0.105642915
vn 0.281499922 -0.952827752 0.113477267
vn 0.205318466 -0.95669055 0.206367463
vn 0.254802853 -0.962758064 0.0904016048
vn 0.0671285987 -0.943995893 0.3230564
vn 0.18704322 -0.924437881 0.332309276
vn 0.177744329 -0.966532469 0.184991404
vn 0.366999507 -0.929325104 -0.0408201106
vn 0.399464816 -0.913771033 0.0738265887
vn 0.119767264 -0.97720933 0.175264522
vn 0.401657075 -0.899055719 0.174270689
vn 0.0995816439 -0.986277997 0.131678596
vn 0.364295065 -0.893762589 0.261682093
vn 0.138674185 -0.987695813 0.0722936913
vn 0.286171824 -0.904764473 0.315446973
vn 0.189142942 -0.981673717 0.0232732575
vn 0.23519823 -0.971313477 0.0350985192
g default001_0
f 3/3/3 2/2/2 1/1/1
f 4/4/4 2/2/2 3/3/3
f 4/4/4 5/5/5 2/2/2
f 6/6/6 5/5/5 4/4/4
f 4/4/4 3/3/3 7/7/7
f 7/7/7 6/6/6 4/4/4
f 7/7/7 3/3/3 8/8/8
f 9/9/9 6/6/6 7/7/7
f 7/7/7 8/8/8 10/10/10
f 10/10/10 8/8/8 11/11/11
f 11/11/11 12/12/12 10/10/10
f 13/13/13 9/9/9 7/7/7
f 10/10/10 13/13/13 7/7/7
f 14/14/14 9/9/9 13/13/13
f 9/9/9 14/14/14 15/15/15
f 16/16/16 15/15/15 14/14/14
f 17/17/17 16/16/16 14/14/14
f 17/17/17 14/14/14 18/18/18
f 12/12/12 19/19/19 10/10/10
f 13/13/13 10/10/10 19/19/19
f 13/13/13 19/19/19 14/14/14
f 20/20/20 19/19/19 12/12/12
f 20/20/20 21/21/21 19/19/19
f 22/22/22 21/21/21 20/20/20
f 14/14/14 19/19/19 23/23/23
f 23/23/23 19/19/19 21/21/21
f 23/23/23 21/21/21 24/24/24
f 25/25/25 21/21/21 22/22/22
f 21/21/21 25/25/25 24/24/24
f 26/26/26 25/25/25 22/22/22
f 14/14/14 23/23/23 27/27/27
f 14/14/14 27/27/27 18/18/18
f 24/24/24 27/27/27 23/23/23
f 24/24/24 18/18/18 27/27/27
f 28/28/28 18/18/18 24/24/24
f 24/24/24 29/29/29 28/28/28
f 30/30/30 25/25/25 26/26/26
f 25/25/25 30/30/30 24/24/24
f 30/30/30 29/29/29 24/24/24
f 31/31/31 29/29/29 30/30/30
f 32/32/32 30/30/30 26/26/26
f 30/30/30 33/33/33 31/31/31
f 32/32/32 33/33/33 30/30/30
f 32/32/32 34/34/34 33/33/33
f 37/37/37 36/36/36 35/35/35
f 35/35/35 36/36/36 38/38/38
f 36/36/36 39/39/39 38/38/38
f 38/38/38 39/39/39 40/40/40
f 40/40/40 39/39/39 41/41/41
f 42/42/42 40/40/40 41/41/41
f 41/41/41 43/43/43 42/42/42
f 38/38/38 40/40/40 44/44/44
f 40/40/40 42/42/42 44/44/44
f 38/38/38 45/45/45 35/35/35
f 45/45/45 38/38/38 44/44/44
f 46/46/46 42/42/42 43/43/43
f 47/47/47 46/46/46 43/43/43
f 45/45/45 48/48/48 35/35/35
f 35/35/35 48/48/48 49/49/49
f 48/48/48 50/50/50 49/49/49
f 44/44/44 51/51/51 45/45/45
f 45/45/45 51/51/51 48/48/48
f 44/44/44 42/42/42 52/52/52
f 46/46/46 52/52/52 42/42/42
f 44/44/44 52/52/52 51/51/51
f 47/47/47 53/53/53 46/46/46
f 53/53/53 52/52/52 46/46/46
f 53/53/53 47/47/47 54/54/54
f 48/48/48 55/55/55 50/50/50
f 51/51/51 55/55/55 48/48/48
f 50/50/50 55/55/55 56/56/56
f 52/52/52 53/53/53 57/57/57
f 54/54/54 57/57/57 53/53/53
f 51/51/51 52/52/52 57/57/57
f 51/51/51 57/57/57 55/55/55
f 55/55/55 57/57/57 56/56/56
f 58/58/58 57/57/57 54/54/54
f 57/57/57 58/58/58 56/56/56
f 61/61/61 60/60/60 59/59/59
f 59/59/59 60/60/60 62/62/62
f 59/59/59 62/62/62 63/63/63
f 62/62/62 60/60/60 64/64/64
f 64/64/64 60/60/60 65/65/65
f 60/60/60 66/66/66 65/65/65
f 65/65/65 66/66/66 67/67/67
f 65/65/65 67/67/67 68/68/68
f 67/67/67 69/69/69 68/68/68
f 64/64/64 65/65/65 70/70/70
f 70/70/70 65/65/65 68/68/68
f 68/68/68 69/69/69 71/71/71
f 70/70/70 68/68/68 71/71/71
f 69/69/69 72/72/72 71/71/71
f 72/72/72 73/73/73 71/71/71
f 64/64/64 74/74/74 62/62/62
f 74/74/74 64/64/64 70/70/70
f 75/75/75 63/63/63 62/62/62
f 62/62/62 74/74/74 75/75/75
f 75/75/75 76/76/76 63/63/63
f 75/75/75 74/74/74 76/76/76
f 76/76/76 77/77/77 63/63/63
f 77/77/77 76/76/76 78/78/78
f 74/74/74 70/70/70 79/79/79
f 70/70/70 71/71/71 79/79/79
f 74/74/74 79/79/79 76/76/76
f 73/73/73 80/80/80 71/71/71
f 79/79/79 71/71/71 80/80/80
f 73/73/73 81/81/81 80/80/80
f 81/81/81 78/78/78 82/82/82
f 82/82/82 78/78/78 76/76/76
f 79/79/79 82/82/82 76/76/76
f 80/80/80 82/82/82 79/79/79
f 80/80/80 81/81/81 82/82/82
f 85/85/85 84/84/84 83/83/83
f 85/85/85 86/86/86 84/84/84
f 86/86/86 87/87/87 84/84/84
f 85/85/85 88/88/88 86/86/86
f 87/87/87 86/86/86 89/89/89
f 86/86/86 90/90/90 89/89/89
f 90/90/90 91/91/91 89/89/89
f 92/92/92 91/91/91 90/90/90
f 88/88/88 93/93/93 86/86/86
f 90/90/90 86/86/86 93/93/93
f 88/88/88 94/94/94 93/93/93
f 94/94/94 95/95/95 93/93/93
f 93/93/93 95/95/95 90/90/90
f 94/94/94 96/96/96 95/95/95
f 96/96/96 97/97/97 95/95/95
f 97/97/97 96/96/96 98/98/98
f 95/95/95 99/99/99 90/90/90
f 99/99/99 95/95/95 97/97/97
f 99/99/99 97/97/97 100/100/100
f 101/101/101 92/92/92 100/100/100
f 101/101/101 100/100/100 102/102/102
f 100/100/100 103/103/103 102/102/102
f 104/104/104 103/103/103 100/100/100
f 90/90/90 99/99/99 105/105/105
f 90/90/90 105/105/105 92/92/92
f 100/100/100 105/105/105 99/99/99
f 100/100/100 92/92/92 105/105/105
f 106/106/106 97/97/97 98/98/98
f 107/107/107 106/106/106 98/98/98
f 107/107/107 108/108/108 106/106/106
f 100/100/100 97/97/97 109/109/109
f 100/100/100 109/109/109 104/104/104
f 97/97/97 106/106/106 109/109/109
f 106/106/106 108/108/108 110/110/110
f 106/106/106 110/110/110 109/109/109
f 109/109/109 110/110/110 104/104/104
f 110/110/110 111/111/111 104/104/104
f 108/108/108 112/112/112 110/110/110
f 113/113/113 111/111/111 110/110/110
f 110/110/110 112/112/112 113/113/113
f 113/113/113 114/114/114 111/111/111
f 115/115/115 114/114/114 113/113/113
f 112/112/112 115/115/115 113/113/113
f 116/116/116 115/115/115 112/112/112
f 119/119/119 118/118/118 117/117/117
f 120/120/120 119/119/119 117/117/117
f 120/120/120 117/117/117 121/121/121
f 119/119/119 120/120/120 122/122/122
f 123/123/123 120/120/120 121/121/121
f 123/123/123 121/121/121 124/124/124
f 123/123/123 124/124/124 125/125/125
f 120/120/120 126/126/126 122/122/122
f 126/126/126 120/120/120 123/123/123
f 127/127/127 122/122/122 126/126/126
f 123/123/123 125/125/125 128/128/128
f 128/128/128 126/126/126 123/123/123
f 125/125/125 129/129/129 128/128/128
f 130/130/130 128/128/128 129/129/129
f 131/131/131 127/127/127 126/126/126
f 131/131/131 126/126/126 128/128/128
f 127/127/127 131/131/131 132/132/132
f 133/133/133 128/128/128 130/130/130
f 133/133/133 131/131/131 128/128/128
f 133/133/133 130/130/130 134/134/134
f 131/131/131 135/135/135 132/132/132
f 135/135/135 131/131/131 133/133/133
f 136/136/136 132/132/132 135/135/135
f 137/137/137 133/133/133 134/134/134
f 137/137/137 135/135/135 133/133/133
f 138/138/138 137/137/137 134/134/134
f 139/139/139 137/137/137 138/138/138
f 135/135/135 137/137/137 139/139/139
f 139/139/139 138/138/138 140/140/140
f 141/141/141 136/136/136 135/135/135
f 141/141/141 135/135/135 139/139/139
f 142/142/142 136/136/136 141/141/141
f 143/143/143 142/142/142 141/141/141
f 144/144/144 139/139/139 140/140/140
f 139/139/139 144/144/144 141/141/141
f 143/143/143 141/141/141 144/144/144
f 140/140/140 145/145/145 144/144/144
f 146/146/146 143/143/143 144/144/144
f 145/145/145 146/146/146 144/144/144
f 149/149/149 148/148/148 147/147/147
f 148/148/148 150/150/150 147/147/147
f 151/151/151 148/148/148 149/149/149
f 151/151/151 149/149/149 152/152/152
f 151/151/151 152/152/152 153/153/153
f 153/153/153 154/154/154 151/151/151
f 154/154/154 155/155/155 151/151/151
f 154/154/154 156/156/156 155/155/155
f 156/156/156 157/157/157 155/155/155
f 157/157/157 158/158/158 155/155/155
f 151/151/151 155/155/155 159/159/159
f 158/158/158 159/159/159 155/155/155
f 148/148/148 151/151/151 159/159/159
f 159/159/159 158/158/158 160/160/160
f 161/161/161 159/159/159 160/160/160
f 159/159/159 161/161/161 148/148/148
f 160/160/160 162/162/162 161/161/161
f 148/148/148 163/163/163 150/150/150
f 161/161/161 163/163/163 148/148/148
f 150/150/150 163/163/163 164/164/164
f 162/162/162 165/165/165 161/161/161
f 163/163/163 161/161/161 165/165/165
f 165/165/165 162/162/162 166/166/166
f 167/167/167 164/164/164 163/163/163
f 167/167/167 163/163/163 165/165/165
f 168/168/168 164/164/164 167/167/167
f 169/169/169 168/168/168 167/167/167
f 169/169/169 167/167/167 165/165/165
f 170/170/170 168/168/168 169/169/169
f 171/171/171 165/165/165 166/166/166
f 171/171/171 169/169/169 165/165/165
f 166/166/166 172/172/172 171/171/171
f 172/172/172 173/173/173 171/171/171
f 174/174/174 170/170/170 169/169/169
f 169/169/169 171/171/171 174/174/174
f 173/173/173 174/174/174 171/171/171
f 170/170/170 174/174/174 175/175/175
f 176/176/176 174/174/174 173/173/173
f 174/174/174 176/176/176 175/175/175
f 179/179/179 178/178/178 177/177/177
f 178/178/178 179/179/179 180/180/180
f 181/181/181 179/179/179 177/177/177
f 182/182/182 181/181/181 177/177/177
f 183/183/183 182/182/182 177/177/177
f 182/182/182 183/183/183 184/184/184
f 181/181/181 185/185/185 179/179/179
f 182/182/182 185/185/185 181/181/181
f 179/179/179 185/185/185 186/186/186
f 179/179/179 186/186/186 180/180/180
f 187/187/187 185/185/185 182/182/182
f 187/187/187 182/182/182 184/184/184
f 186/186/186 185/185/185 188/188/188
f 186/186/186 188/188/188 180/180/180
f 188/188/188 189/189/189 180/180/180
f 189/189/189 188/188/188 190/190/190
f 191/191/191 187/187/187 184/184/184
f 191/191/191 185/185/185 187/187/187
f 192/192/192 191/191/191 184/184/184
f 191/191/191 192/192/192 193/193/193
f 194/194/194 191/191/191 193/193/193
f 194/194/194 185/185/185 191/191/191
f 194/194/194 193/193/193 195/195/195
f 196/196/196 194/194/194 195/195/195
f 196/196/196 185/185/185 194/194/194
f 196/196/196 195/195/195 197/197/197
f 198/198/198 196/196/196 197/197/197
f 198/198/198 185/185/185 196/196/196
f 198/198/198 197/197/197 199/199/199
f 200/200/200 198/198/198 199/199/199
f 200/200/200 199/199/199 190/190/190
f 200/200/200 185/185/185 198/198/198
f 188/188/188 201/201/201 190/190/190
f 188/188/188 185/185/185 201/201/201
f 201/201/201 200/200/200 190/190/190
f 201/201/201 185/185/185 200/200/200
