g O_env_lajitong_03
v 0.512440801 1.34868515 0.515333712
v 0.512440801 1.34868515 -0.515333712
v -0.512440681 1.34868515 0.515333712
v -0.512440681 1.34868515 -0.515333712
v 0.512440801 1.34868515 -0.515333712
v 0.512440801 1.34868515 0.515333712
v 0.512440801 1.41174221 -0.515333712
v 0.512440801 1.41174221 0.515333712
v 0.483285993 1.46961665 0.515333712
v 0.483286053 1.46961665 -0.515333712
v 0.425411642 1.49877131 0.515333712
v 0.425411642 1.49877131 -0.515333712
v 0.377937466 1.49877131 -0.310077131
v 0.353010327 1.49877131 -0.351089239
v 0.277783006 1.49877131 -0.375665784
v -0.277707279 1.49877131 -0.375665814
v -0.425411493 1.49877143 -0.515333712
v 0.312652647 1.61330843 -0.310773373
v 0.377937466 1.49877131 0.311441183
v 0.312652618 1.61330843 0.310773373
v 0.352433592 1.49877131 0.35210216
v 0.279081792 1.49877131 0.375665814
v -0.312652528 1.61330843 0.310773373
v -0.276859283 1.49877143 0.375665814
v -0.425411493 1.49877143 0.515333712
v -0.312652498 1.61330843 -0.310773373
v -0.353482366 1.49877143 0.348929733
v -0.377937317 1.49877143 0.31432417
v -0.35217306 1.49877143 -0.350011289
v -0.377937317 1.49877143 -0.310330331
v -0.483285904 1.46961665 0.515333712
v -0.483285844 1.46961665 -0.515333712
v -0.512440681 1.41174221 0.515333712
v -0.512440681 1.41174221 -0.515333712
v -0.512440681 1.34868515 -0.515333712
v -0.512440681 1.34868515 0.515333712
v -0.512440681 1.34868515 -0.515333712
v 0.512440801 1.34868515 -0.515333712
v -0.512440681 1.41174221 -0.515333712
v 0.512440801 1.41174221 -0.515333712
v 0.483286053 1.46961665 -0.515333712
v -0.483285844 1.46961665 -0.515333712
v 0.425411642 1.49877131 -0.515333712
v -0.425411493 1.49877143 -0.515333712
v 0.512440801 1.34868515 0.515333712
v -0.512440681 1.34868515 0.515333712
v 0.512440801 1.41174221 0.515333712
v -0.512440681 1.41174221 0.515333712
v -0.483285904 1.46961665 0.515333712
v 0.483285993 1.46961665 0.515333712
v -0.425411493 1.49877143 0.515333712
v 0.425411642 1.49877131 0.515333712
v 0.406750083 -0.00188568106 0.419030815
v 0.406750083 -0.00188568106 0.302798927
v 0.289546281 -0.00188568106 0.419030815
v 0.289546311 -0.00188568106 0.302798927
v 0.406750083 -0.00188568106 0.302798927
v 0.406750083 -0.00188568106 0.419030815
v 0.479934901 1.35394084 0.361508995
v 0.479934901 1.35394084 0.492440641
v 0.289546311 -0.00188568106 0.302798927
v 0.406750083 -0.00188568106 0.302798927
v 0.349467665 1.35394084 0.361509055
v 0.479934901 1.35394084 0.361508995
v 0.349467605 1.35394084 0.492440641
v 0.289546281 -0.00188568106 0.419030815
v 0.349467665 1.35394084 0.361509055
v 0.289546311 -0.00188568106 0.302798927
v 0.479934901 1.35394084 0.492440641
v 0.406750083 -0.00188568106 0.419030815
v 0.349467605 1.35394084 0.492440641
v 0.289546281 -0.00188568106 0.419030815
v 0.406750083 -0.00188568106 -0.419030815
v 0.289546311 -0.00188568106 -0.419030786
v 0.406750083 -0.00188568106 -0.302798927
v 0.289546311 -0.00188568106 -0.302798927
v 0.479934901 1.35394084 -0.492440641
v 0.406750083 -0.00188568106 -0.419030815
v 0.479934901 1.35394084 -0.361508995
v 0.406750083 -0.00188568106 -0.302798927
v 0.479934901 1.35394084 -0.361508995
v 0.406750083 -0.00188568106 -0.302798927
v 0.349467605 1.35394084 -0.361509085
v 0.289546311 -0.00188568106 -0.302798927
v 0.349467605 1.35394084 -0.492440641
v 0.349467605 1.35394084 -0.361509085
v 0.289546311 -0.00188568106 -0.419030786
v 0.289546311 -0.00188568106 -0.302798927
v 0.479934901 1.35394084 -0.492440641
v 0.349467605 1.35394084 -0.492440641
v 0.406750083 -0.00188568106 -0.419030815
v 0.289546311 -0.00188568106 -0.419030786
v -0.406749934 -0.00188568106 0.419030815
v -0.289546192 -0.00188568106 0.419030815
v -0.406749934 -0.00188568106 0.302798927
v -0.289546192 -0.00188568106 0.302798927
v -0.479934752 1.35394084 0.492440641
v -0.406749934 -0.00188568106 0.419030815
v -0.479934752 1.35394084 0.361508995
v -0.406749934 -0.00188568106 0.302798927
v -0.479934752 1.35394084 0.361508995
v -0.406749934 -0.00188568106 0.302798927
v -0.349467456 1.35394084 0.361509085
v -0.289546192 -0.00188568106 0.302798927
v -0.349467456 1.35394084 0.492440641
v -0.349467456 1.35394084 0.361509085
v -0.289546192 -0.00188568106 0.419030815
v -0.289546192 -0.00188568106 0.302798927
v -0.479934752 1.35394084 0.492440641
v -0.349467456 1.35394084 0.492440641
v -0.406749934 -0.00188568106 0.419030815
v -0.289546192 -0.00188568106 0.419030815
v -0.406749934 -0.00188568106 -0.419030815
v -0.406749934 -0.00188568106 -0.302798927
v -0.289546192 -0.00188568106 -0.419030815
v -0.289546192 -0.00188568106 -0.302798927
v -0.406749934 -0.00188568106 -0.302798927
v -0.406749934 -0.00188568106 -0.419030815
v -0.479934752 1.35394084 -0.361508995
v -0.479934752 1.35394084 -0.492440641
v -0.289546192 -0.00188568106 -0.302798927
v -0.406749934 -0.00188568106 -0.302798927
v -0.349467486 1.35394084 -0.361509055
v -0.479934752 1.35394084 -0.361508995
v -0.349467456 1.35394084 -0.492440641
v -0.289546192 -0.00188568106 -0.419030815
v -0.349467486 1.35394084 -0.361509055
v -0.289546192 -0.00188568106 -0.302798927
v -0.479934752 1.35394084 -0.492440641
v -0.406749934 -0.00188568106 -0.419030815
v -0.349467456 1.35394084 -0.492440641
v -0.289546192 -0.00188568106 -0.419030815
v 0.402171671 0.140692443 0.351335257
v 0.402171671 0.140692905 -0.354792744
v 0.304916799 0.140692443 0.351335257
v 0.304916799 0.140692905 -0.354792655
v 0.304916799 0.140692443 0.351335257
v 0.304916799 0.140692905 -0.354792655
v 0.304916829 0.239148557 0.3513349
v 0.304916799 0.239149019 -0.354792714
v 0.304916829 0.239148557 0.3513349
v 0.304916799 0.239149019 -0.354792714
v 0.402171701 0.239148557 0.3513349
v 0.402171671 0.239149019 -0.354792744
v 0.402171701 0.239148557 0.3513349
v 0.402171671 0.239149019 -0.354792744
v 0.402171671 0.140692443 0.351335257
v 0.402171671 0.140692905 -0.354792744
v 0.314245433 0.23142235 0.351335049
v 0.314245462 0.23142235 -0.354792863
v 0.362389416 0.975116313 0.351335108
v 0.362389416 0.975116193 -0.354792744
v 0.451279491 0.974799693 0.351335108
v 0.451279491 0.974799633 -0.354792744
v 0.352740973 0.974799693 0.351335108
v 0.352740973 0.974799633 -0.354792744
v 0.352740973 0.974799693 0.351335108
v 0.352740973 0.974799633 -0.354792744
v 0.352740973 1.07289326 0.351335108
v 0.352740973 1.07289314 -0.354792744
v 0.352740973 1.07289326 0.351335108
v 0.352740973 1.07289314 -0.354792744
v 0.451279491 1.07289326 0.351335108
v 0.451279491 1.07289314 -0.354792744
v 0.451279491 1.07289326 0.351335108
v 0.451279491 1.07289314 -0.354792744
v 0.451279491 0.974799693 0.351335108
v 0.451279491 0.974799633 -0.354792744
v 0.440220505 0.975116313 0.351335108
v 0.440220505 0.975116074 -0.354792744
v 0.393500865 0.23142235 0.351334959
v 0.393500894 0.231422424 -0.354792863
v -0.403106868 0.140692443 -0.351335257
v -0.403106868 0.140692905 0.354792744
v -0.304916799 0.140692443 -0.351335257
v -0.304916829 0.140692905 0.354792714
v -0.304916799 0.140692443 -0.351335257
v -0.304916829 0.140692905 0.354792714
v -0.304916829 0.239148557 -0.3513349
v -0.304916799 0.239149019 0.354792714
v -0.304916829 0.239148557 -0.3513349
v -0.304916799 0.239149019 0.354792714
v -0.403106898 0.239148557 -0.3513349
v -0.403106868 0.239149019 0.354792744
v -0.403106898 0.239148557 -0.3513349
v -0.403106868 0.239149019 0.354792744
v -0.403106868 0.140692443 -0.351335257
v -0.403106868 0.140692905 0.354792744
v -0.314245433 0.23142235 -0.351335049
v -0.314245462 0.23142235 0.354792863
v -0.362389416 0.975116313 -0.351335108
v -0.362389416 0.975116193 0.354792744
v -0.451279491 0.974799693 -0.351335108
v -0.451279491 0.974799633 0.354792744
v -0.352740973 0.974799693 -0.351335108
v -0.352740973 0.974799633 0.354792744
v -0.352740973 0.974799693 -0.351335108
v -0.352740973 0.974799633 0.354792744
v -0.352740973 1.07289326 -0.351335108
v -0.352740973 1.07289314 0.354792744
v -0.352740973 1.07289326 -0.351335108
v -0.352740973 1.07289314 0.354792744
v -0.451279491 1.07289326 -0.351335108
v -0.451279491 1.07289314 0.354792744
v -0.451279491 1.07289326 -0.351335108
v -0.451279491 1.07289314 0.354792744
v -0.451279491 0.974799693 -0.351335108
v -0.451279491 0.974799633 0.354792744
v -0.440220505 0.975116313 -0.351335108
v -0.440220505 0.975116074 0.354792744
v -0.394436061 0.23142235 -0.351334959
v -0.394436091 0.231422424 0.354792863
v 0.339004159 0.140692443 -0.405001104
v -0.342340231 0.140692905 -0.405001044
v 0.339004159 0.140692443 -0.3148022
v -0.342340231 0.140692905 -0.314802229
v 0.339004159 0.140692443 -0.3148022
v -0.342340231 0.140692905 -0.314802229
v 0.339003831 0.239148557 -0.314802229
v -0.342340231 0.239149019 -0.314802229
v 0.339003831 0.239148557 -0.314802229
v -0.342340231 0.239149019 -0.314802229
v 0.339003831 0.239148557 -0.405001044
v -0.342340231 0.239149019 -0.405001044
v 0.339003831 0.239148557 -0.405001044
v -0.342340231 0.239149019 -0.405001044
v 0.339004159 0.140692443 -0.405001104
v -0.342340231 0.140692905 -0.405001044
v 0.33900398 0.23142235 -0.324130923
v -0.34234041 0.23142235 -0.324130893
v 0.33900401 0.975116313 -0.372274816
v -0.34234035 0.975116193 -0.372274816
v 0.33900401 0.974799693 -0.461164892
v -0.34234035 0.974799633 -0.461164892
v 0.33900401 0.974799693 -0.362626374
v -0.34234035 0.974799633 -0.362626374
v 0.33900401 0.974799693 -0.362626374
v -0.34234035 0.974799633 -0.362626374
v 0.33900401 1.07289326 -0.362626374
v -0.34234035 1.07289314 -0.362626374
v 0.33900401 1.07289326 -0.362626374
v -0.34234035 1.07289314 -0.362626374
v 0.33900401 1.07289326 -0.461164892
v -0.34234035 1.07289314 -0.461164892
v 0.33900401 1.07289326 -0.461164892
v -0.34234035 1.07289314 -0.461164892
v 0.33900401 0.974799693 -0.461164892
v -0.34234035 0.974799633 -0.461164892
v 0.33900401 0.975116313 -0.450105935
v -0.34234035 0.975116074 -0.450105935
v 0.339003861 0.23142235 -0.396330297
v -0.34234038 0.231422424 -0.396330267
v -0.339004159 0.140692443 0.405001104
v 0.342340231 0.140692905 0.405001044
v -0.339004159 0.140692443 0.314802289
v 0.34234032 0.140692905 0.314802259
v -0.339004159 0.140692443 0.314802289
v 0.34234032 0.140692905 0.314802259
v -0.339003831 0.239148557 0.314802229
v 0.342340231 0.239149019 0.314802229
v -0.339003831 0.239148557 0.314802229
v 0.342340231 0.239149019 0.314802229
v -0.339003831 0.239148557 0.405001044
v 0.342340231 0.239149019 0.405001044
v -0.339003831 0.239148557 0.405001044
v 0.342340231 0.239149019 0.405001044
v -0.339004159 0.140692443 0.405001104
v 0.342340231 0.140692905 0.405001044
v -0.33900398 0.23142235 0.324130923
v 0.34234041 0.23142235 0.324130893
v -0.33900401 0.975116313 0.372274816
v 0.34234035 0.975116193 0.372274816
v -0.33900401 0.974799693 0.461164892
v 0.34234035 0.974799633 0.461164892
v -0.33900401 0.974799693 0.362626374
v 0.34234035 0.974799633 0.362626374
v -0.33900401 0.974799693 0.362626374
v 0.34234035 0.974799633 0.362626374
v -0.33900401 1.07289326 0.362626374
v 0.34234035 1.07289314 0.362626374
v -0.33900401 1.07289326 0.362626374
v 0.34234035 1.07289314 0.362626374
v -0.33900401 1.07289326 0.461164892
v 0.34234035 1.07289314 0.461164892
v -0.33900401 1.07289326 0.461164892
v 0.34234035 1.07289314 0.461164892
v -0.33900401 0.974799693 0.461164892
v 0.34234035 0.974799633 0.461164892
v -0.33900401 0.975116313 0.450105935
v 0.34234035 0.975116074 0.450105935
v -0.339003861 0.23142235 0.396330297
v 0.34234041 0.231422424 0.396330297
vt 0.0921406895 0.988484919
vt 0.357545465 0.988484919
vt 0.0921407044 0.724570036
vt 0.357545495 0.724570036
vt 0.011808604 0.445270121
vt 0.372844815 0.445270121
vt 0.011808604 0.424303651
vt 0.372844815 0.424242973
vt 0.372844845 0.402651608
vt 0.0118085891 0.402738333
vt 0.372844875 0.381052554
vt 0.011808604 0.381180823
vt 0.0834148899 0.36636126
vt 0.068449907 0.355966628
vt 0.0564044639 0.327881068
vt 0.0557715148 0.129689172
vt 0.011808604 0.0766406357
vt 0.0953550041 0.328594863
vt 0.301953375 0.366054058
vt 0.28928858 0.328594863
vt 0.316963047 0.35551998
vt 0.32918027 0.328370124
vt 0.28928858 0.129140317
vt 0.327916563 0.129876077
vt 0.372844815 0.076570034
vt 0.0953550041 0.129140317
vt 0.315350443 0.101283349
vt 0.302709043 0.0912516117
vt 0.0685159788 0.102227263
vt 0.0831111297 0.0917550549
vt 0.372844845 0.0550147593
vt 0.0118086338 0.0550394058
vt 0.372844815 0.033450067
vt 0.011808604 0.0334476233
vt 0.011808604 0.0124520063
vt 0.372844815 0.0124520063
vt 0.944927752 0.369005978
vt 0.945466161 0.719642758
vt 0.966501057 0.368972898
vt 0.967039764 0.719609678
vt 0.986824691 0.709604681
vt 0.986316741 0.378916979
vt 0.996768773 0.689789116
vt 0.996321738 0.398701906
vt 0.995782435 0.358575344
vt 0.995815933 0.00793807209
vt 0.97420907 0.358573318
vt 0.974242449 0.00793598592
vt 0.954441249 0.0179086775
vt 0.954409719 0.348596811
vt 0.944464803 0.0377079993
vt 0.944437087 0.328795612
vt 0.731814265 0.920166314
vt 0.731814265 0.959270775
vt 0.77124548 0.920166314
vt 0.77124548 0.959270775
vt 0.830319583 0.453495979
vt 0.787343562 0.453495979
vt 0.830319583 0.895436287
vt 0.787343562 0.895436287
vt 0.672593117 0.453496903
vt 0.629543841 0.453496903
vt 0.672593117 0.895362318
vt 0.629543841 0.895362318
vt 0.529717028 0.958443224
vt 0.529717028 0.516388655
vt 0.486772716 0.958443224
vt 0.486772716 0.516388655
vt 0.777808785 0.447794348
vt 0.777808785 0.005859375
vt 0.734743655 0.447794348
vt 0.734743655 0.005859375
vt 0.820088267 0.920166314
vt 0.780657053 0.920166314
vt 0.820088267 0.959270775
vt 0.780657053 0.959270775
vt 0.935519457 0.895440996
vt 0.935519457 0.453501642
vt 0.892543316 0.895440996
vt 0.892543316 0.453501642
vt 0.882992625 0.44772613
vt 0.882992625 0.005859375
vt 0.839943469 0.44772613
vt 0.839943469 0.005859375
vt 0.539372563 0.958446264
vt 0.582316577 0.958446264
vt 0.539372563 0.516388655
vt 0.582316577 0.516388655
vt 0.629543841 0.447794348
vt 0.672609031 0.447794348
vt 0.629543841 0.005859375
vt 0.672609031 0.005859375
vt 0.722402811 0.920166314
vt 0.682971478 0.920166314
vt 0.722402811 0.959270656
vt 0.682971478 0.959270656
vt 0.935519457 0.447799116
vt 0.935519457 0.00585938059
vt 0.892543375 0.447799116
vt 0.892543375 0.00585938059
vt 0.77779299 0.8953619
vt 0.77779299 0.453496873
vt 0.734743714 0.8953619
vt 0.734743714 0.453496873
vt 0.381572872 0.958445013
vt 0.424517035 0.958445013
vt 0.381572872 0.516388655
vt 0.424517035 0.516388655
vt 0.787343621 0.447793484
vt 0.830408812 0.447793484
vt 0.787343621 0.005859375
vt 0.830408812 0.005859375
vt 0.634128749 0.920166314
vt 0.634128749 0.959270537
vt 0.673560202 0.920166314
vt 0.673560202 0.959270537
vt 0.882919312 0.453428656
vt 0.839943409 0.453428656
vt 0.882919312 0.895370543
vt 0.839943409 0.895370543
vt 0.725193083 0.453495383
vt 0.682143807 0.453495383
vt 0.725193083 0.895360172
vt 0.682143807 0.895360172
vt 0.477116823 0.958446383
vt 0.477116823 0.516388655
vt 0.434172809 0.958446383
vt 0.434172809 0.516388655
vt 0.725208998 0.447792858
vt 0.725208998 0.005859375
vt 0.682143748 0.447792858
vt 0.682143748 0.005859375
vt 0.0330233872 0.724942684
vt 0.0330233872 0.944500625
vt 0.0683780909 0.724942684
vt 0.0683780909 0.944500625
vt 0.243518338 0.462227613
vt 0.243518338 0.681785524
vt 0.274428755 0.462227613
vt 0.274428755 0.681785524
vt 0.283453494 0.462227613
vt 0.283453494 0.681785524
vt 0.318808615 0.462227613
vt 0.318808615 0.681785524
vt 0.327833354 0.462227613
vt 0.327833354 0.681785524
vt 0.35874337 0.462227613
vt 0.35874337 0.681785524
vt 0.3890872 0.5106861
vt 0.618314505 0.5106861
vt 0.3890872 0.261189252
vt 0.618314505 0.261189252
vt 0.00585997105 0.498322845
vt 0.230011046 0.498322845
vt 0.00585991144 0.46222797
vt 0.230011046 0.46222797
vt 0.005859375 0.624604821
vt 0.230011046 0.624604821
vt 0.005859375 0.593048096
vt 0.230011046 0.593048096
vt 0.005859375 0.584688187
vt 0.230011046 0.584688187
vt 0.00585997105 0.548593223
vt 0.230011046 0.548593223
vt 0.00585997105 0.540248454
vt 0.230011046 0.540248454
vt 0.00585997105 0.50869143
vt 0.230011046 0.50869143
vt 0.618314445 0.005859375
vt 0.3890872 0.00586003065
vt 0.618314445 0.255486727
vt 0.3890872 0.255486727
vt 0.0330233872 0.724942684
vt 0.0330233872 0.944500625
vt 0.0683780909 0.724942684
vt 0.0683780909 0.944500625
vt 0.243518338 0.462227613
vt 0.243518338 0.681785524
vt 0.274428755 0.462227613
vt 0.274428755 0.681785524
vt 0.283453494 0.462227613
vt 0.283453494 0.681785524
vt 0.318808615 0.462227613
vt 0.318808615 0.681785524
vt 0.327833354 0.462227613
vt 0.327833354 0.681785524
vt 0.35874337 0.462227613
vt 0.35874337 0.681785524
vt 0.3890872 0.5106861
vt 0.618314505 0.5106861
vt 0.3890872 0.261189252
vt 0.618314505 0.261189252
vt 0.00585997105 0.498322845
vt 0.230011046 0.498322845
vt 0.00585991144 0.46222797
vt 0.230011046 0.46222797
vt 0.005859375 0.624604821
vt 0.230011046 0.624604821
vt 0.005859375 0.593048096
vt 0.230011046 0.593048096
vt 0.005859375 0.584688187
vt 0.230011046 0.584688187
vt 0.00585997105 0.548593223
vt 0.230011046 0.548593223
vt 0.00585997105 0.540248454
vt 0.230011046 0.540248454
vt 0.00585997105 0.50869143
vt 0.230011046 0.50869143
vt 0.618314445 0.005859375
vt 0.3890872 0.00586003065
vt 0.618314445 0.255486727
vt 0.3890872 0.255486727
vt 0.0330233872 0.724942684
vt 0.0330233872 0.944500625
vt 0.0683780909 0.724942684
vt 0.0683780909 0.944500625
vt 0.243518338 0.462227613
vt 0.243518338 0.681785524
vt 0.274428755 0.462227613
vt 0.274428755 0.681785524
vt 0.283453494 0.462227613
vt 0.283453494 0.681785524
vt 0.318808615 0.462227613
vt 0.318808615 0.681785524
vt 0.327833354 0.462227613
vt 0.327833354 0.681785524
vt 0.35874337 0.462227613
vt 0.35874337 0.681785524
vt 0.3890872 0.5106861
vt 0.618314505 0.5106861
vt 0.3890872 0.261189252
vt 0.618314505 0.261189252
vt 0.00585997105 0.498322845
vt 0.230011046 0.498322845
vt 0.00585991144 0.46222797
vt 0.230011046 0.46222797
vt 0.005859375 0.624604821
vt 0.230011046 0.624604821
vt 0.005859375 0.593048096
vt 0.230011046 0.593048096
vt 0.005859375 0.584688187
vt 0.230011046 0.584688187
vt 0.00585997105 0.548593223
vt 0.230011046 0.548593223
vt 0.00585997105 0.540248454
vt 0.230011046 0.540248454
vt 0.00585997105 0.50869143
vt 0.230011046 0.50869143
vt 0.618314445 0.005859375
vt 0.3890872 0.00586003065
vt 0.618314445 0.255486727
vt 0.3890872 0.255486727
vt 0.0330233872 0.724942684
vt 0.0330233872 0.944500625
vt 0.0683780909 0.724942684
vt 0.0683780909 0.944500625
vt 0.243518338 0.462227583
vt 0.243518338 0.681785583
vt 0.274428755 0.462227583
vt 0.274428755 0.681785583
vt 0.283453494 0.462227583
vt 0.283453494 0.681785583
vt 0.318808615 0.462227583
vt 0.318808615 0.681785583
vt 0.327833354 0.462227583
vt 0.327833354 0.681785583
vt 0.35874337 0.462227583
vt 0.35874337 0.681785583
vt 0.3890872 0.5106861
vt 0.618314505 0.5106861
vt 0.3890872 0.261189252
vt 0.618314505 0.261189252
vt 0.00585997105 0.498322845
vt 0.230011046 0.498322845
vt 0.00585991144 0.462227941
vt 0.230011046 0.462227941
vt 0.005859375 0.624604881
vt 0.230011046 0.624604881
vt 0.005859375 0.593048155
vt 0.230011046 0.593048155
vt 0.005859375 0.584688246
vt 0.230011046 0.584688246
vt 0.00585997105 0.548593283
vt 0.230011046 0.548593283
vt 0.00585997105 0.540248454
vt 0.230011046 0.540248454
vt 0.00585997105 0.50869143
vt 0.230011046 0.50869143
vt 0.618314445 0.005859375
vt 0.3890872 0.00586003065
vt 0.618314445 0.255486727
vt 0.3890872 0.255486727
vn -0 -1 0
vn -0 -1 0
vn -0 -1 0
vn -0 -1 0
vn 1 0 0
vn 1 0 0
vn 0.972147465 0.234370127 0
vn 0.972147465 0.234370127 0
vn 0.707106769 0.707106829 0
vn 0.707106769 0.707106829 0
vn 0.25249514 0.9675982 0
vn 0.252993464 0.967468083 2.17859267E-07
vn 0.365355223 0.93079704 -0.0115123801
vn 0.20601441 0.929314315 -0.306484789
vn 0.00578840682 0.974903405 -0.222553268
vn -0.00589955086 0.970595002 -0.240646079
vn -0.25297147 0.967473745 2.05897152E-07
vn 0.085468784 0.994013369 -0.068062678
vn 0.363633484 0.931466937 0.0118279206
vn 0.085515745 0.993545711 0.0745249763
vn 0.204541013 0.929332137 0.307416201
vn 0.00552050211 0.970692039 0.240263388
vn -0.0869201124 0.993904889 0.0678076893
vn -0.00619943347 0.974839866 0.222819954
vn -0.252976567 0.967472434 0
vn -0.0855526701 0.993568778 -0.0741746798
vn -0.200306907 0.926220119 0.31936413
vn -0.358363628 0.933512926 0.0113665657
vn -0.207688823 0.927607536 -0.310499191
vn -0.364967436 0.930945992 -0.0117672058
vn -0.707107067 0.707106411 0
vn -0.707107067 0.707106411 0
vn -0.972147465 0.234370127 0
vn -0.972147465 0.234370127 0
vn -1 0 0
vn -1 0 0
vn -0 0 -1
vn -0 0 -1
vn -0 0 -1
vn -0 0 -1
vn -0 3.70698757E-07 -1
vn -0 3.70698757E-07 -1
vn -0 -1.03672619E-06 -1
vn -0 -1.03672619E-06 -1
vn -0 0 1
vn -0 0 1
vn -0 0 1
vn -0 0 1
vn -0 3.70698757E-07 1
vn -0 3.70698757E-07 1
vn -0 -1.03672619E-06 1
vn -0 -1.03672619E-06 1
vn -0 -1 0
vn -0 -1 0
vn -0 -1 0
vn -0 -1 0
vn 0.998546362 -0.0538995303 0
vn 0.998546362 -0.0538995303 0
vn 0.998546362 -0.0538995303 0
vn 0.998546362 -0.053899534 0
vn -1.63431721E-07 0.0432615392 -0.99906379
vn -1.63431736E-07 0.0432615392 -0.99906379
vn -1.63431721E-07 0.0432615429 -0.99906379
vn -1.63431721E-07 0.0432615429 -0.99906379
vn -0.999024749 0.0441522971 0
vn -0.999024749 0.0441522971 0
vn -0.999024749 0.0441522934 0
vn -0.999024749 0.0441522934 0
vn -0 -0.0540647693 0.998537421
vn -0 -0.0540647693 0.998537421
vn -0 -0.0540647656 0.998537421
vn -0 -0.0540647693 0.998537421
vn -0 -1 0
vn -0 -1 0
vn -0 -1 0
vn -0 -1 0
vn 0.998546362 -0.053899534 0
vn 0.998546362 -0.0538995303 0
vn 0.998546362 -0.0538995303 0
vn 0.998546362 -0.0538995303 0
vn -1.63431721E-07 0.0432615429 0.99906379
vn -1.63431736E-07 0.0432615392 0.99906379
vn -1.63431721E-07 0.0432615429 0.99906379
vn -1.63431721E-07 0.0432615392 0.99906379
vn -0.999024749 0.0441522971 0
vn -0.999024749 0.0441522934 0
vn -0.999024749 0.0441522971 0
vn -0.999024749 0.0441522934 0
vn -0 -0.0540647507 -0.998537421
vn -0 -0.0540647507 -0.998537421
vn -0 -0.0540647507 -0.998537421
vn -0 -0.0540647469 -0.998537421
vn -0 -1 0
vn -0 -1 0
vn -0 -1 0
vn -0 -1 0
vn -0.998546362 -0.053899534 0
vn -0.998546362 -0.0538995303 0
vn -0.998546362 -0.0538995303 0
vn -0.998546362 -0.0538995303 0
vn 1.63431721E-07 0.0432615429 -0.99906379
vn 1.63431736E-07 0.0432615392 -0.99906379
vn 1.63431721E-07 0.0432615429 -0.99906379
vn 1.63431721E-07 0.0432615392 -0.99906379
vn 0.999024749 0.0441522598 0
vn 0.999024749 0.0441522524 0
vn 0.999024749 0.0441522561 0
vn 0.999024749 0.0441522524 0
vn -0 -0.054064732 0.998537421
vn -0 -0.0540647283 0.998537421
vn -0 -0.0540647283 0.998537421
vn -0 -0.0540647283 0.998537421
vn -0 -1 0
vn -0 -1 0
vn -0 -1 0
vn -0 -1 0
vn -0.998546362 -0.0538995303 0
vn -0.998546362 -0.0538995303 0
vn -0.998546362 -0.0538995303 0
vn -0.998546362 -0.053899534 0
vn 1.63431721E-07 0.0432615392 0.99906379
vn 1.63431736E-07 0.0432615392 0.99906379
vn 1.63431721E-07 0.0432615429 0.99906379
vn 1.63431721E-07 0.0432615429 0.99906379
vn 0.999024749 0.0441522598 0
vn 0.999024749 0.0441522561 0
vn 0.999024749 0.0441522524 0
vn 0.999024749 0.0441522524 0
vn -0 -0.0540647134 -0.998537421
vn -0 -0.0540647171 -0.998537421
vn -0 -0.054064706 -0.998537421
vn -0 -0.054064706 -0.998537421
vn -0 -1 -6.48273044E-07
vn -0 -1 -6.48273044E-07
vn -0 -1 -6.48273101E-07
vn -0 -1 -6.48273044E-07
vn -1 2.90588616E-07 0
vn -1 2.90588645E-07 0
vn -1 2.90588588E-07 0
vn -1 2.90588616E-07 0
vn -0 1 6.48273499E-07
vn -0 1 6.48273499E-07
vn -0 1 6.48273499E-07
vn -0 1 6.48273499E-07
vn 1 0 0
vn 1 0 0
vn 1 0 0
vn 1 0 0
vn -0.997911155 0.0646009892 0
vn -0.997911155 0.0646009967 0
vn -0.997911155 0.0646009967 0
vn -0.997911155 0.0646009967 0
vn -0 -1 1.08045498E-07
vn -0 -1 1.08045498E-07
vn -0 -1 1.08045498E-07
vn -0 -1 1.08045498E-07
vn -1 0 0
vn -1 0 0
vn -1 0 0
vn -1 0 0
vn -0 1 -1.08045498E-07
vn -0 1 -1.08045498E-07
vn -0 1 -1.08045498E-07
vn -0 1 -1.08045498E-07
vn 1 0 0
vn 1 0 0
vn 1 0 0
vn 1 0 0
vn 0.998032629 -0.0626974404 0
vn 0.998032629 -0.0626974404 0
vn 0.998032629 -0.0626974404 0
vn 0.998032629 -0.0626974404 0
vn -0 -1 6.48272987E-07
vn -0 -1 6.48272987E-07
vn -0 -1 6.48272987E-07
vn -0 -1 6.48272987E-07
vn 1 0 0
vn 1 0 0
vn 1 0 0
vn 1 0 0
vn -0 1 -6.48273442E-07
vn -0 1 -6.48273442E-07
vn -0 1 -6.48273442E-07
vn -0 1 -6.48273442E-07
vn -1 0 0
vn -1 0 0
vn -1 0 0
vn -1 0 0
vn 0.997911155 0.0646009892 0
vn 0.997911155 0.0646009967 0
vn 0.997911155 0.0646009967 0
vn 0.997911155 0.0646009967 0
vn -0 -1 -1.08045498E-07
vn -0 -1 -1.08045498E-07
vn -0 -1 -1.08045498E-07
vn -0 -1 -1.08045498E-07
vn 1 0 0
vn 1 0 0
vn 1 0 0
vn 1 0 0
vn -0 1 1.08045498E-07
vn -0 1 1.08045498E-07
vn -0 1 1.08045498E-07
vn -0 1 1.08045498E-07
vn -1 0 0
vn -1 0 0
vn -1 0 0
vn -1 0 0
vn -0.998110414 -0.061447192 0
vn -0.998110414 -0.0614471808 0
vn -0.998110414 -0.0614471808 0
vn -0.998110414 -0.0614471808 0
vn -6.82786833E-07 -1 0
vn -6.82786833E-07 -1 0
vn -6.82786947E-07 -1 0
vn -6.82786833E-07 -1 0
vn -0 0 1
vn -0 0 1
vn -0 0 1
vn -0 0 1
vn 6.70372856E-07 1 0
vn 6.70372856E-07 1 0
vn 6.70372856E-07 1 0
vn 6.70372856E-07 1 0
vn -0 -3.63940813E-07 -1
vn -0 -3.63940813E-07 -1
vn -0 -3.63940813E-07 -1
vn -0 -3.63940785E-07 -1
vn -0 0.0646009296 0.997911155
vn -0 0.0646009222 0.997911155
vn -0 0.0646009296 0.997911155
vn -0 0.0646009296 0.997911155
vn -0 -1 0
vn -0 -1 0
vn -0 -1 0
vn -0 -1 0
vn -0 0 1
vn -0 0 1
vn -0 0 1
vn -0 0 1
vn -1.81818166E-07 1 0
vn -1.81818166E-07 1 0
vn -1.81818166E-07 1 0
vn -1.81818166E-07 1 0
vn -0 0 -1
vn -0 0 -1
vn -0 0 -1
vn -0 0 -1
vn -0 -0.0721205771 -0.997395992
vn -0 -0.0721205771 -0.997395992
vn -0 -0.0721205845 -0.997395992
vn -0 -0.0721205845 -0.997395992
vn 6.82786833E-07 -1 0
vn 6.82786833E-07 -1 0
vn 6.82786947E-07 -1 0
vn 6.82786833E-07 -1 0
vn -0 0 -1
vn -0 0 -1
vn -0 0 -1
vn -0 0 -1
vn -6.70372856E-07 1 0
vn -6.70372856E-07 1 0
vn -6.70372856E-07 1 0
vn -6.70372856E-07 1 0
vn -0 -3.63940813E-07 1
vn -0 -3.63940813E-07 1
vn -0 -3.63940813E-07 1
vn -0 -3.63940785E-07 1
vn -0 0.0646009296 -0.997911155
vn -0 0.0646009222 -0.997911155
vn -0 0.0646009296 -0.997911155
vn -0 0.0646009296 -0.997911155
vn -0 -1 0
vn -0 -1 0
vn -0 -1 0
vn -0 -1 0
vn -0 0 -1
vn -0 0 -1
vn -0 0 -1
vn -0 0 -1
vn 1.81818166E-07 1 0
vn 1.81818166E-07 1 0
vn 1.81818166E-07 1 0
vn 1.81818166E-07 1 0
vn -0 0 1
vn -0 0 1
vn -0 0 1
vn -0 0 1
vn -0 -0.0721205324 0.997395992
vn -0 -0.0721205324 0.997395992
vn -0 -0.0721205324 0.997395992
vn -0 -0.0721205324 0.997395992
g O_env_lajitong_03_0
f 3/3/3 2/2/2 1/1/1
f 3/3/3 4/4/4 2/2/2
f 7/7/7 6/6/6 5/5/5
f 7/7/7 8/8/8 6/6/6
f 7/7/7 9/9/9 8/8/8
f 7/7/7 10/10/10 9/9/9
f 11/11/11 9/9/9 10/10/10
f 11/11/11 10/10/10 12/12/12
f 13/13/13 11/11/11 12/12/12
f 12/12/12 14/14/14 13/13/13
f 15/15/15 14/14/14 12/12/12
f 16/16/16 15/15/15 12/12/12
f 16/16/16 12/12/12 17/17/17
f 18/18/18 14/14/14 15/15/15
f 13/13/13 14/14/14 18/18/18
f 18/18/18 15/15/15 16/16/16
f 13/13/13 19/19/19 11/11/11
f 20/20/20 19/19/19 13/13/13
f 20/20/20 13/13/13 18/18/18
f 19/19/19 21/21/21 11/11/11
f 20/20/20 21/21/21 19/19/19
f 21/21/21 22/22/22 11/11/11
f 22/22/22 21/21/21 20/20/20
f 18/18/18 23/23/23 20/20/20
f 23/23/23 22/22/22 20/20/20
f 24/24/24 11/11/11 22/22/22
f 23/23/23 24/24/24 22/22/22
f 24/24/24 25/25/25 11/11/11
f 18/18/18 16/16/16 26/26/26
f 18/18/18 26/26/26 23/23/23
f 23/23/23 27/27/27 24/24/24
f 24/24/24 27/27/27 25/25/25
f 28/28/28 27/27/27 23/23/23
f 26/26/26 28/28/28 23/23/23
f 25/25/25 27/27/27 28/28/28
f 16/16/16 29/29/29 26/26/26
f 29/29/29 16/16/16 17/17/17
f 26/26/26 30/30/30 28/28/28
f 26/26/26 29/29/29 30/30/30
f 25/25/25 28/28/28 30/30/30
f 30/30/30 29/29/29 17/17/17
f 25/25/25 30/30/30 17/17/17
f 17/17/17 31/31/31 25/25/25
f 17/17/17 32/32/32 31/31/31
f 33/33/33 31/31/31 32/32/32
f 33/33/33 32/32/32 34/34/34
f 33/33/33 34/34/34 35/35/35
f 33/33/33 35/35/35 36/36/36
f 39/39/39 38/38/38 37/37/37
f 39/39/39 40/40/40 38/38/38
f 41/41/41 40/40/40 39/39/39
f 41/41/41 39/39/39 42/42/42
f 43/43/43 41/41/41 42/42/42
f 43/43/43 42/42/42 44/44/44
f 47/47/47 46/46/46 45/45/45
f 47/47/47 48/48/48 46/46/46
f 49/49/49 48/48/48 47/47/47
f 49/49/49 47/47/47 50/50/50
f 51/51/51 49/49/49 50/50/50
f 51/51/51 50/50/50 52/52/52
f 55/55/55 54/54/54 53/53/53
f 55/55/55 56/56/56 54/54/54
f 59/59/59 58/58/58 57/57/57
f 59/59/59 60/60/60 58/58/58
f 63/63/63 62/62/62 61/61/61
f 63/63/63 64/64/64 62/62/62
f 67/67/67 66/66/66 65/65/65
f 67/67/67 68/68/68 66/66/66
f 71/71/71 70/70/70 69/69/69
f 71/71/71 72/72/72 70/70/70
f 75/75/75 74/74/74 73/73/73
f 75/75/75 76/76/76 74/74/74
f 79/79/79 78/78/78 77/77/77
f 79/79/79 80/80/80 78/78/78
f 83/83/83 82/82/82 81/81/81
f 83/83/83 84/84/84 82/82/82
f 87/87/87 86/86/86 85/85/85
f 87/87/87 88/88/88 86/86/86
f 91/91/91 90/90/90 89/89/89
f 91/91/91 92/92/92 90/90/90
f 95/95/95 94/94/94 93/93/93
f 95/95/95 96/96/96 94/94/94
f 99/99/99 98/98/98 97/97/97
f 99/99/99 100/100/100 98/98/98
f 103/103/103 102/102/102 101/101/101
f 103/103/103 104/104/104 102/102/102
f 107/107/107 106/106/106 105/105/105
f 107/107/107 108/108/108 106/106/106
f 111/111/111 110/110/110 109/109/109
f 111/111/111 112/112/112 110/110/110
f 115/115/115 114/114/114 113/113/113
f 115/115/115 116/116/116 114/114/114
f 119/119/119 118/118/118 117/117/117
f 119/119/119 120/120/120 118/118/118
f 123/123/123 122/122/122 121/121/121
f 123/123/123 124/124/124 122/122/122
f 127/127/127 126/126/126 125/125/125
f 127/127/127 128/128/128 126/126/126
f 131/131/131 130/130/130 129/129/129
f 131/131/131 132/132/132 130/130/130
f 135/135/135 134/134/134 133/133/133
f 135/135/135 136/136/136 134/134/134
f 139/139/139 138/138/138 137/137/137
f 139/139/139 140/140/140 138/138/138
f 143/143/143 142/142/142 141/141/141
f 143/143/143 144/144/144 142/142/142
f 147/147/147 146/146/146 145/145/145
f 147/147/147 148/148/148 146/146/146
f 151/151/151 150/150/150 149/149/149
f 151/151/151 152/152/152 150/150/150
f 155/155/155 154/154/154 153/153/153
f 155/155/155 156/156/156 154/154/154
f 159/159/159 158/158/158 157/157/157
f 159/159/159 160/160/160 158/158/158
f 163/163/163 162/162/162 161/161/161
f 163/163/163 164/164/164 162/162/162
f 167/167/167 166/166/166 165/165/165
f 167/167/167 168/168/168 166/166/166
f 171/171/171 170/170/170 169/169/169
f 171/171/171 172/172/172 170/170/170
f 175/175/175 174/174/174 173/173/173
f 175/175/175 176/176/176 174/174/174
f 179/179/179 178/178/178 177/177/177
f 179/179/179 180/180/180 178/178/178
f 183/183/183 182/182/182 181/181/181
f 183/183/183 184/184/184 182/182/182
f 187/187/187 186/186/186 185/185/185
f 187/187/187 188/188/188 186/186/186
f 191/191/191 190/190/190 189/189/189
f 191/191/191 192/192/192 190/190/190
f 195/195/195 194/194/194 193/193/193
f 195/195/195 196/196/196 194/194/194
f 199/199/199 198/198/198 197/197/197
f 199/199/199 200/200/200 198/198/198
f 203/203/203 202/202/202 201/201/201
f 203/203/203 204/204/204 202/202/202
f 207/207/207 206/206/206 205/205/205
f 207/207/207 208/208/208 206/206/206
f 211/211/211 210/210/210 209/209/209
f 211/211/211 212/212/212 210/210/210
f 215/215/215 214/214/214 213/213/213
f 215/215/215 216/216/216 214/214/214
f 219/219/219 218/218/218 217/217/217
f 219/219/219 220/220/220 218/218/218
f 223/223/223 222/222/222 221/221/221
f 223/223/223 224/224/224 222/222/222
f 227/227/227 226/226/226 225/225/225
f 227/227/227 228/228/228 226/226/226
f 231/231/231 230/230/230 229/229/229
f 231/231/231 232/232/232 230/230/230
f 235/235/235 234/234/234 233/233/233
f 235/235/235 236/236/236 234/234/234
f 239/239/239 238/238/238 237/237/237
f 239/239/239 240/240/240 238/238/238
f 243/243/243 242/242/242 241/241/241
f 243/243/243 244/244/244 242/242/242
f 247/247/247 246/246/246 245/245/245
f 247/247/247 248/248/248 246/246/246
f 251/251/251 250/250/250 249/249/249
f 251/251/251 252/252/252 250/250/250
f 255/255/255 254/254/254 253/253/253
f 255/255/255 256/256/256 254/254/254
f 259/259/259 258/258/258 257/257/257
f 259/259/259 260/260/260 258/258/258
f 263/263/263 262/262/262 261/261/261
f 263/263/263 264/264/264 262/262/262
f 267/267/267 266/266/266 265/265/265
f 267/267/267 268/268/268 266/266/266
f 271/271/271 270/270/270 269/269/269
f 271/271/271 272/272/272 270/270/270
f 275/275/275 274/274/274 273/273/273
f 275/275/275 276/276/276 274/274/274
f 279/279/279 278/278/278 277/277/277
f 279/279/279 280/280/280 278/278/278
f 283/283/283 282/282/282 281/281/281
f 283/283/283 284/284/284 282/282/282
f 287/287/287 286/286/286 285/285/285
f 287/287/287 288/288/288 286/286/286
f 291/291/291 290/290/290 289/289/289
f 291/291/291 292/292/292 290/290/290
