g langyabang
v 2.15860415 0.494868845 0.00584290037
v 2.15860415 0.433445811 -0.241182253
v 2.15860415 0.256737888 -0.424401224
v 2.15860415 0.0120938681 -0.494721681
v 2.15860415 -0.234931126 -0.43329528
v 2.15860415 0.424549937 0.250485837
v 2.15860415 0.241330922 0.427194804
v 2.15860415 -0.418151081 -0.256589353
v 2.15860415 -0.00569620123 0.488617539
v 2.15860415 -0.488469929 -0.0119464099
v 2.15860295 -0.250338137 0.418300778
v 2.15860295 -0.42704612 0.235080555
v -2.15860415 0.0120808976 -0.493897706
v -2.15860415 0.256312907 -0.423695683
v -2.15860415 0.43272391 -0.240783691
v -2.15860415 0.494043946 0.00582642015
v -2.15860415 -0.234529123 -0.432574451
v -2.15860415 0.42384392 0.250058591
v -2.15860415 0.240932822 0.426469713
v -2.15860415 -0.417442083 -0.256164551
v -2.15860415 -0.487641901 -0.0119335903
v -2.15860415 -0.00567911146 0.487789303
v -2.15860415 -0.426321089 0.234678343
v -2.15860415 -0.249910146 0.41759032
v 2.15860415 -0.00569620123 0.488617539
v 1.72956789 0.255247861 0.452336431
v 2.15860415 0.241330922 0.427194804
v 1.72956789 -0.0062151528 0.517349839
v 2.15860295 -0.250338137 0.418300778
v 1.72956789 -0.26515314 0.442921758
v 2.15860295 -0.42704612 0.235080555
v 1.72956789 -0.452188015 0.248995349
v 2.15860415 -0.488469929 -0.0119464099
v 1.72956789 -0.517201662 -0.0124676498
v 2.15860415 -0.418151081 -0.256589353
v 1.72956789 -0.442773193 -0.271405637
v 2.15860415 -0.234931126 -0.43329528
v 1.72956789 -0.248847142 -0.45843932
v 1.72956789 0.0126138879 -0.523454249
v 2.15860415 0.0120938681 -0.494721681
v 2.15860415 0.256737888 -0.424401224
v 1.72956789 0.271553844 -0.449025273
v 2.15860415 0.433445811 -0.241182253
v 1.72956789 0.458588928 -0.255098253
v 2.15860415 0.494868845 0.00584290037
v 1.72956789 0.52360189 0.0063622999
v 2.15860415 0.424549937 0.250485837
v 1.72956789 0.449173957 0.265300274
v 2.15860415 0.241330922 0.427194804
v 1.72956789 0.255247861 0.452336431
v -1.80857992 0.25511694 0.452097774
v -2.15860415 -0.00567911146 0.487789303
v -2.15860415 0.240932822 0.426469713
v -1.80857992 -0.00620920165 0.517075777
v -2.15860415 -0.249910146 0.41759032
v -1.80857992 -0.265011162 0.442688584
v -2.15860415 -0.426321089 0.234678343
v -1.80857992 -0.451948702 0.248862296
v -2.15860415 -0.487641901 -0.0119335903
v -1.80857992 -0.516928136 -0.0124621606
v -2.15860415 -0.417442083 -0.256164551
v -1.80857992 -0.442538977 -0.271265239
v -2.15860415 -0.234529123 -0.432574451
v -1.80857992 -0.248714149 -0.458202511
v -2.15860415 0.0120808976 -0.493897706
v -1.80857992 0.0126099205 -0.523183286
v -2.15860415 0.256312907 -0.423695683
v -1.80857992 0.271414846 -0.4487921
v -2.15860415 0.43272391 -0.240783691
v -1.80857992 0.458350897 -0.25496766
v -2.15860415 0.494043946 0.00582642015
v -1.80857992 0.523330927 0.00635680975
v -2.15860415 0.42384392 0.250058591
v -1.80857992 0.448940963 0.265160531
v -2.15860415 0.240932822 0.426469713
v -1.80857992 0.25511694 0.452097774
v 1.70748198 0.420565873 0.751024783
v -1.78649199 0.420566916 0.751023531
v -1.78649199 0.741687834 0.441313475
v 1.70748198 0.74168694 0.441314697
v -1.78649199 0.864932895 0.0125378389
v 1.70748198 0.864931822 0.0125378389
v -1.78649199 0.757276833 -0.420416236
v 1.70748198 0.757275879 -0.420416236
v -1.78649199 0.447567821 -0.741538346
v 1.70748198 0.447566897 -0.741537452
v -1.78649199 0.0187907983 -0.864783287
v 1.70748198 0.0187898818 -0.864783287
v -1.78649199 -0.414163113 -0.757128298
v 1.70748198 -0.414164126 -0.757127345
v -1.78649199 -0.735284567 -0.447418213
v 1.70748198 -0.735285461 -0.447417587
v -1.78649199 -0.858529329 -0.0186425801
v 1.70748198 -0.858530343 -0.0186413601
v -1.78649199 -0.750873625 0.41431272
v 1.70748198 -0.75087446 0.414313346
v -1.78649199 -0.441164464 0.73543334
v 1.70748198 -0.441165537 0.735434532
v -1.78649199 -0.0123880953 0.858679771
v 1.70748198 -0.0123880953 0.858679771
v -1.78649199 0.420566916 0.751023531
v 1.70748198 0.420565873 0.751024783
v 1.11448014 0.819305956 -0.135588378
v 1.11448014 0.556823969 -0.614188552
v 1.34112704 1.18435276 -0.647699237
v 1.56778502 0.819305956 -0.135588378
v 1.56778502 0.556823969 -0.614188552
v 1.34112704 -0.605082214 1.19679141
v 1.56778502 -0.106900118 0.813738406
v 1.56778502 -0.594299674 0.567982793
v 1.11448014 -0.106900118 0.813738406
v 1.1144799 -0.594299674 0.567982793
v -1.69556606 0.102499902 -0.821681499
v -1.24226201 0.102499902 -0.821681499
v -1.46891999 0.595511854 -1.2113663
v -1.69556606 0.593143821 -0.582469463
v -1.24226201 0.593143821 -0.582469463
v 0.40492788 -1.19676411 0.605137289
v 0.631585896 -0.568508387 0.590623736
v 0.631585896 -0.816393316 0.104302369
v 0.178280905 -0.568508267 0.590623736
v 0.178280905 -0.816393316 0.104302369
v -1.46891999 0.199461877 1.32780027
v -1.24226201 0.385046899 0.727405369
v -1.24226201 -0.154797152 0.808169544
v -1.69556606 0.385046899 0.727405369
v -1.69556606 -0.154797152 0.808169544
v -1.46891999 1.32781065 0.233030394
v -1.24226201 0.81732887 -0.133471683
v -1.24226201 0.722623825 0.404102772
v -1.69556606 0.81732887 -0.133471683
v -1.69556606 0.722623825 0.404102772
v -1.46891999 -0.954474032 -0.948241234
v -1.24226201 -0.741361201 -0.357057482
v -1.24226201 -0.358827114 -0.746444404
v -1.69556606 -0.741361082 -0.357057482
v -1.69556606 -0.358827114 -0.746444404
v -1.46891999 -1.19676375 0.605137289
v -1.24226201 -0.56850791 0.590623736
v -1.24226201 -0.816393018 0.104302369
v -1.69556606 -0.56850791 0.590623736
v -1.69556606 -0.816392899 0.104302369
v 0.404928058 -0.95447439 -0.948241234
v 0.631586075 -0.741361618 -0.357057482
v 0.631586075 -0.358827114 -0.74644345
v 0.178281024 -0.74136132 -0.357057482
v 0.178281024 -0.358827114 -0.74644345
v 0.404928058 0.199461877 1.32780027
v 0.631586075 0.385046899 0.727406621
v 0.631586075 -0.154797152 0.808169544
v 0.178281024 0.385046899 0.727406621
v 0.178281024 -0.154797152 0.808169544
v 1.34112704 0.948285878 0.954430521
v 1.56778502 0.743101895 0.360447377
v 1.56778502 0.35539192 0.744680762
v 1.11448014 0.743101895 0.360447377
v 1.11448014 0.35539192 0.744680762
v -0.575165987 -0.233093128 -1.32780027
v -0.348507911 -0.400431126 -0.722066343
v -0.348507911 0.136722922 -0.819121361
v -0.801811934 -0.400431126 -0.722066343
v -0.801811934 0.136722922 -0.819121361
v 1.34112704 -0.233093128 -1.32780027
v 1.56778502 -0.40043211 -0.722065389
v 1.56778502 0.136721849 -0.819121361
v 1.11448014 -0.400431126 -0.722066343
v 1.11448014 0.136722922 -0.819121361
v -0.57516557 1.18435395 -0.647699237
v -0.348507911 0.556824863 -0.614188552
v -0.348507911 0.819305956 -0.135588378
v -0.801811934 0.556824863 -0.614188552
v -0.801811934 0.819305956 -0.135588378
v 0.404928207 0.595511854 -1.2113663
v 0.631586075 0.102499902 -0.821681499
v 0.631586194 0.593143821 -0.582469463
v 0.178281024 0.102499902 -0.821681499
v 0.178281203 0.593143821 -0.582469463
v 1.34112704 -1.32781065 -0.199400634
v 1.56778502 -0.806476414 0.151492313
v 1.56778502 -0.728074729 -0.388699323
v 1.1144799 -0.806476414 0.151492313
v 1.11448014 -0.728074551 -0.388699323
v 0.404928207 1.32781065 0.233031616
v 0.631586194 0.81732887 -0.133470461
v 0.631586075 0.722622871 0.404102772
v 0.178281203 0.81732887 -0.133470461
v 0.178281024 0.722622871 0.404102772
v -0.575165987 0.948285878 0.954429328
v -0.348507911 0.743102908 0.360447377
v -0.348507911 0.35539192 0.744680762
v -0.801811934 0.743102908 0.360447377
v -0.801811934 0.35539192 0.744680762
v -0.575165987 -1.32781029 -0.199401245
v -0.348507911 -0.806476116 0.151492313
v -0.348507911 -0.728074312 -0.388700545
v -0.801811934 -0.806476057 0.151492313
v -0.801811934 -0.728074312 -0.388700545
v -0.575165987 -0.605081975 1.19679141
v -0.348507911 -0.106900118 0.81373775
v -0.348507911 -0.594299376 0.567982793
v -0.801811934 -0.106900118 0.81373775
v -0.801811934 -0.594299376 0.567982793
v 1.70748198 -0.858530343 -0.0186413601
v 1.72956789 -0.517201662 -0.0124676498
v 1.72956789 -0.442773193 -0.271405637
v 1.70748198 -0.735285461 -0.447417587
v 1.70748198 -0.75087446 0.414313346
v 1.72956789 -0.248847142 -0.45843932
v 1.72956789 -0.452188015 0.248995349
v 1.70748198 -0.414164126 -0.757127345
v 1.70748198 -0.441165537 0.735434532
v 1.72956789 0.0126138879 -0.523454249
v 1.72956789 -0.26515314 0.442921758
v 1.70748198 0.0187898818 -0.864783287
v 1.70748198 -0.0123880953 0.858679771
v 1.72956789 0.271553844 -0.449025273
v 1.72956789 -0.0062151528 0.517349839
v 1.70748198 0.447566897 -0.741537452
v 1.70748198 0.420565873 0.751024783
v 1.72956789 0.458588928 -0.255098253
v 1.72956789 0.255247861 0.452336431
v 1.70748198 0.757275879 -0.420416236
v 1.70748198 0.74168694 0.441314697
v 1.72956789 0.52360189 0.0063622999
v 1.72956789 0.449173957 0.265300274
v 1.70748198 0.864931822 0.0125378389
v -1.80857992 0.448940963 0.265160531
v -1.80857992 0.523330927 0.00635680975
v -1.78649199 0.864932895 0.0125378389
v -1.78649199 0.741687834 0.441313475
v -1.78649199 0.757276833 -0.420416236
v -1.80857992 0.25511694 0.452097774
v -1.80857992 0.458350897 -0.25496766
v -1.78649199 0.420566916 0.751023531
v -1.78649199 0.447567821 -0.741538346
v -1.80857992 -0.00620920165 0.517075777
v -1.80857992 0.271414846 -0.4487921
v -1.78649199 -0.0123880953 0.858679771
v -1.78649199 0.0187907983 -0.864783287
v -1.80857992 -0.265011162 0.442688584
v -1.80857992 0.0126099205 -0.523183286
v -1.78649199 -0.441164464 0.73543334
v -1.78649199 -0.414163113 -0.757128298
v -1.80857992 -0.451948702 0.248862296
v -1.80857992 -0.248714149 -0.458202511
v -1.78649199 -0.750873625 0.41431272
v -1.78649199 -0.735284567 -0.447418213
v -1.80857992 -0.516928136 -0.0124621606
v -1.80857992 -0.442538977 -0.271265239
v -1.78649199 -0.858529329 -0.0186425801
vt 0.720421016 0.250539988
vt 0.70559603 0.224861994
vt 0.679917991 0.210036993
vt 0.650268018 0.210036993
vt 0.624590993 0.224862993
vt 0.720421016 0.280189991
vt 0.70559603 0.305868
vt 0.609766006 0.250539988
vt 0.679919004 0.320692986
vt 0.609766006 0.280189991
vt 0.650268972 0.320692986
vt 0.624590993 0.305868
vt 0.578536987 0.447447985
vt 0.578536987 0.477048993
vt 0.593336999 0.502682984
vt 0.61897099 0.517482996
vt 0.593336999 0.421813995
vt 0.648572028 0.517482996
vt 0.674206018 0.502682984
vt 0.618972003 0.407014012
vt 0.648572028 0.407014012
vt 0.689005971 0.477048993
vt 0.674206018 0.421813995
vt 0.689005971 0.447447985
vt 0.488570988 0.650875986
vt 0.53865099 0.620360017
vt 0.488570988 0.620360017
vt 0.53865099 0.650875986
vt 0.488570988 0.681392014
vt 0.53865099 0.681392014
vt 0.488570988 0.711907983
vt 0.53865099 0.711907983
vt 0.488570988 0.742424011
vt 0.53865099 0.742424011
vt 0.488570988 0.77293998
vt 0.53865099 0.77293998
vt 0.488570988 0.803456008
vt 0.53865099 0.803456008
vt 0.53865099 0.833971977
vt 0.488570988 0.833971977
vt 0.488570988 0.864489019
vt 0.53865099 0.864489019
vt 0.488570988 0.895003974
vt 0.53865099 0.895003974
vt 0.488570988 0.925520003
vt 0.53865099 0.925520003
vt 0.488570988 0.956035972
vt 0.53865099 0.956035972
vt 0.488570988 0.986552
vt 0.53865099 0.986552
vt 0.551276982 0.623842001
vt 0.592181981 0.654325008
vt 0.592181981 0.623842001
vt 0.551276982 0.654325008
vt 0.592181981 0.684808016
vt 0.551276982 0.684808016
vt 0.592181981 0.715291023
vt 0.551276982 0.715291023
vt 0.592181981 0.745773971
vt 0.551276982 0.745773971
vt 0.592181981 0.776256979
vt 0.551276982 0.776256979
vt 0.592181981 0.806739986
vt 0.551276982 0.806739986
vt 0.592181981 0.837222993
vt 0.551276982 0.837222993
vt 0.592181981 0.867707014
vt 0.551276982 0.867707014
vt 0.592181981 0.898190022
vt 0.551276982 0.898190022
vt 0.592181981 0.928672016
vt 0.551276982 0.928672016
vt 0.592181981 0.959155023
vt 0.551276982 0.959155023
vt 0.592181981 0.989637971
vt 0.551276982 0.989637971
vt 0.416570991 0.365471005
vt 0.00958999991 0.365471005
vt 0.00958999991 0.417438
vt 0.416570991 0.417438
vt 0.00958999991 0.469404012
vt 0.416570991 0.469404012
vt 0.00958999991 0.521369994
vt 0.416570991 0.521369994
vt 0.00958999991 0.573337018
vt 0.416570991 0.573337018
vt 0.00958999991 0.62530297
vt 0.416570991 0.62530297
vt 0.00958999991 0.677269995
vt 0.416570991 0.677269995
vt 0.00958999991 0.72923702
vt 0.416570991 0.72923702
vt 0.00958999991 0.781202972
vt 0.416570991 0.781202972
vt 0.00958999991 0.833168983
vt 0.416570991 0.833168983
vt 0.00958999991 0.885134995
vt 0.416570991 0.885134995
vt 0.00958999991 0.93710202
vt 0.416570991 0.93710202
vt 0.00958999991 0.989068985
vt 0.416570991 0.989068985
vt 0.195436999 0.0926730037
vt 0.272401005 0.0926730037
vt 0.233962998 0.0541919991
vt 0.195436999 0.0157089997
vt 0.272401005 0.0157089997
vt 0.774245977 0.224536002
vt 0.812684 0.186052993
vt 0.735719979 0.186052993
vt 0.812684 0.263016999
vt 0.735719979 0.263016999
vt 0.99119699 0.175488994
vt 0.99119699 0.0985250026
vt 0.952758014 0.137007996
vt 0.914233029 0.175488994
vt 0.914233029 0.0985250026
vt 0.571581006 0.142940998
vt 0.610019982 0.104457997
vt 0.533056021 0.104457997
vt 0.610019982 0.181422994
vt 0.533056021 0.181422994
vt 0.953049004 0.226412997
vt 0.991487026 0.187930003
vt 0.914523005 0.187930003
vt 0.991487026 0.264894009
vt 0.914523005 0.264894009
vt 0.41237101 0.0553670004
vt 0.450809002 0.0168849993
vt 0.373845011 0.0168849993
vt 0.450809002 0.0938490033
vt 0.373845011 0.0938490033
vt 0.774971008 0.0509190001
vt 0.813408971 0.0124369999
vt 0.73644501 0.0124369999
vt 0.813408971 0.0894009992
vt 0.73644501 0.0894009992
vt 0.863568008 0.226466
vt 0.90200597 0.187983006
vt 0.825042009 0.187983006
vt 0.90200597 0.26494801
vt 0.825042009 0.26494801
vt 0.325259 0.0535239987
vt 0.363696992 0.0150420005
vt 0.286733001 0.0150420005
vt 0.363696992 0.0920059979
vt 0.286733001 0.0920059979
vt 0.866065979 0.0489530005
vt 0.904504001 0.0104700001
vt 0.82753998 0.0104700001
vt 0.904504001 0.0874340013
vt 0.82753998 0.0874340013
vt 0.594395995 0.0549089983
vt 0.632834017 0.0164260007
vt 0.555869997 0.0164260007
vt 0.632834017 0.0933900028
vt 0.555869997 0.0933900028
vt 0.050131999 0.0562650003
vt 0.0885699987 0.0177820008
vt 0.0116060004 0.0177820008
vt 0.0885699987 0.0947460011
vt 0.0116060004 0.0947460011
vt 0.774528027 0.137798995
vt 0.812965989 0.0993160009
vt 0.736002028 0.0993160009
vt 0.812965989 0.176280007
vt 0.736002028 0.176280007
vt 0.685378015 0.0537649989
vt 0.723816991 0.0152820004
vt 0.646852016 0.0152820004
vt 0.723816991 0.0922460034
vt 0.646852016 0.0922460034
vt 0.950856984 0.0494449995
vt 0.989296019 0.0109620001
vt 0.912330985 0.0109620001
vt 0.989296019 0.0879260004
vt 0.912331998 0.0879260004
vt 0.773590028 0.313010991
vt 0.812029004 0.274527997
vt 0.73506403 0.274527997
vt 0.812029004 0.351491988
vt 0.735064983 0.351491988
vt 0.139879003 0.0548069999
vt 0.178316996 0.0163240004
vt 0.101352997 0.0163240004
vt 0.178316996 0.0932879969
vt 0.101352997 0.0932890028
vt 0.672402978 0.144316003
vt 0.710841 0.105834
vt 0.633876979 0.105834
vt 0.710841 0.182797998
vt 0.633876979 0.182797998
vt 0.505693972 0.0549560003
vt 0.544131994 0.0164730009
vt 0.467168003 0.0164730009
vt 0.544131994 0.0934370011
vt 0.467168003 0.0934370011
vt 0.86322099 0.136267006
vt 0.901659012 0.0977839977
vt 0.824694991 0.0977850035
vt 0.901659012 0.174749002
vt 0.824694991 0.174749002
vt 0.820183992 0.510159016
vt 0.848380029 0.482055992
vt 0.832735002 0.454887003
vt 0.794275999 0.465169013
vt 0.865086973 0.536216974
vt 0.832735002 0.423534989
vt 0.875496984 0.497792989
vt 0.794275999 0.413251996
vt 0.917002976 0.536391973
vt 0.848380029 0.396364987
vt 0.90684998 0.497898996
vt 0.820183992 0.368261993
vt 0.962080002 0.510635018
vt 0.875496984 0.38062799
vt 0.934072018 0.482344002
vt 0.865086973 0.342204005
vt 0.988287985 0.465820014
vt 0.90684998 0.380522996
vt 0.949899018 0.455280006
vt 0.917002976 0.342029989
vt 0.988287985 0.412602007
vt 0.934072018 0.396077007
vt 0.949899018 0.423141986
vt 0.962080002 0.36778599
vt 0.692098975 0.56170702
vt 0.719307005 0.546160996
vt 0.70914501 0.507637024
vt 0.664068997 0.533393979
vt 0.761061013 0.50781101
vt 0.676279008 0.588756979
vt 0.750643015 0.546266019
vt 0.63786 0.578208983
vt 0.805963993 0.533869028
vt 0.676280022 0.620877981
vt 0.777745008 0.561995029
vt 0.63786 0.631425023
vt 0.831871986 0.578859985
vt 0.692098975 0.647927999
vt 0.793383002 0.589148998
vt 0.664068997 0.676240981
vt 0.831871986 0.630774975
vt 0.719307005 0.663474023
vt 0.793383002 0.620485008
vt 0.70914501 0.701997995
vt 0.805963993 0.675764978
vt 0.750643015 0.663369
vt 0.777745008 0.64763999
vt 0.761062026 0.701824009
vn 1 0 4.5043825E-07
vn 1 0 -6.05764683E-07
vn 1 0 -6.05764683E-07
vn 1 0 4.50439046E-07
vn 1 0 1.79485994E-07
vn 1 0 1.79485355E-07
vn 1 0 0
vn 1 0 0
vn 1 -4.64664225E-07 2.01925161E-07
vn 1 -4.64659962E-07 2.01920841E-07
vn 1 -6.04055685E-06 5.85568796E-06
vn 1 -6.04055685E-06 5.85568796E-06
vn -1 0 4.98710676E-07
vn -1 0 0
vn -1 0 0
vn -1 0 4.98710619E-07
vn -1 0 0
vn -1 0 0
vn -1 0 -3.6018065E-07
vn -1 0 -3.60180422E-07
vn -1 0 -2.49356162E-07
vn -1 0 -2.49355992E-07
vn -1 0 0
vn -1 0 0
vn 0.0668286681 -0.0180468671 0.997601211
vn 0.0668297261 0.483172506 0.872970939
vn 0.0668297261 0.483171642 0.872971356
vn 0.0668286756 -0.0180465598 0.997601211
vn 0.0668270513 -0.514430285 0.854924321
vn 0.0668270588 -0.514430523 0.854924142
vn 0.066827327 -0.872972071 0.483170569
vn 0.066827327 -0.872972071 0.483170539
vn 0.0668289512 -0.997601211 -0.018048007
vn 0.0668289512 -0.997601211 -0.0180487353
vn 0.0668303892 -0.854922414 -0.514432967
vn 0.0668303818 -0.854922295 -0.514433086
vn 0.0668315738 -0.483173102 -0.872970343
vn 0.0668315589 -0.483172655 -0.872970581
vn 0.066832304 0.0180464238 -0.997600973
vn 0.0668323115 0.0180462189 -0.997600973
vn 0.0668317676 0.514432013 -0.85492295
vn 0.0668317452 0.514431357 -0.854923248
vn 0.0668316483 0.872971177 -0.483171642
vn 0.0668316409 0.872971177 -0.483171552
vn 0.0668317005 0.997600973 0.0180492699
vn 0.0668317005 0.997600973 0.018048944
vn 0.0668305233 0.854924083 0.514430225
vn 0.0668305233 0.854924917 0.514428914
vn 0.0668297261 0.483171642 0.872971356
vn 0.0668297261 0.483172506 0.872970939
vn -0.0833916739 0.482565522 0.871880949
vn -0.0833922252 -0.0180240758 0.996353865
vn -0.0833916813 0.48256579 0.87188077
vn -0.0833922178 -0.018024303 0.996353745
vn -0.0833915919 -0.513787389 0.853854895
vn -0.0833915994 -0.513786674 0.853855431
vn -0.0833913758 -0.871879935 0.4825674
vn -0.0833913758 -0.871880114 0.482567132
vn -0.0833905265 -0.996353984 -0.0180247854
vn -0.0833905339 -0.996353984 -0.0180236436
vn -0.0833899528 -0.85385412 -0.513789177
vn -0.0833899602 -0.853854418 -0.51378864
vn -0.0833911598 -0.482569993 -0.871878505
vn -0.0833911672 -0.482570261 -0.871878326
vn -0.0833902806 0.0180250388 -0.996353984
vn -0.0833902583 0.0180243421 -0.996353984
vn -0.0833886191 0.513789594 -0.853853941
vn -0.083388634 0.513790011 -0.853853703
vn -0.083389923 0.871879935 -0.482567519
vn -0.0833899304 0.871880054 -0.482567459
vn -0.0833916217 0.996353865 0.0180253517
vn -0.0833916292 0.996353865 0.0180258676
vn -0.08339151 0.853855729 0.513786316
vn -0.08339151 0.85385555 0.513786554
vn -0.0833916813 0.48256579 0.87188077
vn -0.0833916739 0.482565522 0.871880949
vn -0 0.484254599 0.874927163
vn -0 0.484254688 0.874927044
vn -0 0.856840074 0.515582323
vn -0 0.856839895 0.515582561
vn 2.27784795E-07 0.999836445 0.0180874038
vn 2.27784767E-07 0.999836445 0.018087402
vn 2.75648972E-07 0.874927521 -0.484253913
vn 2.75648972E-07 0.874927521 -0.484253973
vn 2.47618829E-07 0.515583456 -0.856839359
vn 2.47618829E-07 0.515583456 -0.856839359
vn 1.3411632E-07 0.0180884395 -0.999836326
vn 1.34116291E-07 0.0180883557 -0.999836326
vn -0 -0.48425433 -0.874927223
vn -0 -0.484254539 -0.874927223
vn -0 -0.856839716 -0.51558286
vn -0 -0.856839776 -0.5155828
vn -2.57739629E-07 -0.999836445 -0.0180874541
vn -2.57739657E-07 -0.999836445 -0.0180873312
vn -3.66294387E-07 -0.8749277 0.484253645
vn -3.6629433E-07 -0.8749277 0.484253645
vn -3.06557752E-07 -0.515583217 0.856839538
vn -3.06557752E-07 -0.515583217 0.856839538
vn -1.74684189E-07 -0.0180888027 0.999836326
vn -1.74684189E-07 -0.0180888027 0.999836326
vn -0 0.484254688 0.874927044
vn -0 0.484254599 0.874927163
vn -0.636513531 0.73276639 0.240632102
vn -0.637322307 0.190307885 -0.746728361
vn -3.98925704E-06 0.876636028 -0.481154174
vn 0.63651377 0.732769907 0.240620837
vn 0.637322605 0.190319493 -0.746725082
vn -4.0536047E-06 -0.449930876 0.893063426
vn 0.637322485 0.266102284 0.723194003
vn 0.636513293 -0.740184724 0.216742679
vn -0.637322247 0.26611346 0.723190129
vn -0.636513174 -0.740188122 0.216731638
vn -0.637322843 -0.27576676 -0.719564021
vn 0.637323022 -0.275754601 -0.719568372
vn -4.37533663E-06 0.437940896 -0.899003804
vn -0.636513412 0.737222016 -0.226615295
vn 0.636513531 0.737218022 -0.226627424
vn -4.24662448E-06 -0.890789151 0.454416782
vn 0.637322903 -0.212819725 0.740626276
vn 0.636513591 -0.725156367 -0.26267606
vn -0.637322903 -0.2128084 0.740629554
vn -0.63651365 -0.725152373 -0.262687087
vn -4.50401694E-06 0.148283735 0.988944829
vn 0.637321949 0.634825706 0.436825991
vn 0.636515319 -0.479195654 0.604334235
vn -0.63732183 0.634833097 0.436815679
vn -0.636514962 -0.479205906 0.604326367
vn -4.56835141E-06 0.984890997 0.173175722
vn 0.63732338 0.615684927 -0.463412285
vn 0.636514425 0.421054214 0.646191001
vn -0.63732326 0.615677297 -0.463422567
vn -0.636514187 0.421043456 0.646198094
vn -4.50401831E-06 -0.71358645 -0.700567245
vn 0.63732338 -0.769881666 0.0331826992
vn 0.636514068 0.0190057531 -0.771030903
vn -0.637323439 -0.76988107 0.0331954286
vn -0.636513948 0.0190185476 -0.771030784
vn -4.37532435E-06 -0.890789151 0.454416811
vn 0.637323618 -0.212820008 0.74062556
vn 0.636514306 -0.72515589 -0.262675434
vn -0.637323499 -0.212807611 0.740629196
vn -0.636514306 -0.725151539 -0.262687624
vn -3.92492484E-06 -0.713585615 -0.700567961
vn 0.637323201 -0.769881845 0.0331829488
vn 0.636512816 0.0190075561 -0.771031797
vn -0.637323618 -0.76988101 0.0331947915
vn -0.636512637 0.0190192722 -0.771031678
vn -4.1179419E-06 0.14828229 0.988945067
vn 0.637322068 0.634824872 0.436827004
vn 0.636513412 -0.479197532 0.604334712
vn -0.63732183 0.634831786 0.436817348
vn -0.636513174 -0.47920686 0.60432744
vn -3.98926795E-06 0.704148412 0.710052729
vn 0.63732326 0.770256877 -0.022879336
vn 0.636513829 -0.0293220486 0.770707726
vn -0.637322962 0.770256639 -0.0228912197
vn -0.636513531 -0.029333869 0.770707428
vn -4.43968111E-06 -0.178128615 -0.98400718
vn 0.637324154 -0.647746861 -0.41742301
vn 0.63651365 0.460698426 -0.618552506
vn -0.637324035 -0.647754014 -0.417412192
vn -0.636513472 0.460708946 -0.618544936
vn -3.60320837E-06 -0.178128704 -0.98400718
vn 0.637322426 -0.647748172 -0.417423397
vn 0.636514723 0.460697889 -0.61855185
vn -0.637322962 -0.647754431 -0.417413116
vn -0.636512637 0.460708946 -0.618545711
vn -4.31099079E-06 0.876636565 -0.48115316
vn 0.63732338 0.190319449 -0.746724486
vn 0.636513829 0.73276943 0.240622342
vn -0.637323201 0.190307915 -0.746727526
vn -0.63651365 0.732765913 0.240633696
vn -4.11795281E-06 0.437941134 -0.899003685
vn 0.637322426 -0.275755495 -0.71956861
vn 0.636512995 0.737218678 -0.226627141
vn -0.637322366 -0.275766104 -0.719564676
vn -0.636512578 0.737222373 -0.226615861
vn -4.05361016E-06 -0.989678383 -0.14330627
vn 0.637322843 -0.601385772 0.481824428
vn 0.636513114 -0.440406173 -0.633161604
vn -0.637322783 -0.60137856 0.481833577
vn -0.636512935 -0.440396398 -0.633168399
vn -4.05360788E-06 0.98489064 0.173177421
vn 0.637323141 0.615685105 -0.463412404
vn 0.636512935 0.421052456 0.646193504
vn -0.637322843 0.615678072 -0.46342209
vn -0.636512935 0.421042979 0.646199763
vn -4.31098078E-06 0.704148054 0.710053265
vn 0.637324095 0.770256221 -0.0228771977
vn 0.636512756 -0.0293207467 0.770708561
vn -0.637323916 0.770255923 -0.0228903145
vn -0.636512637 -0.029333856 0.770708203
vn -4.5683546E-06 -0.989678383 -0.143306509
vn 0.637323618 -0.60138613 0.481823146
vn 0.636514008 -0.440406948 -0.633160055
vn -0.637323439 -0.601378083 0.48183322
vn -0.636513889 -0.440396219 -0.633167624
vn -4.56836869E-06 -0.449930251 0.893063664
vn 0.637322962 0.266102552 0.723193586
vn 0.636514127 -0.740183949 0.216743097
vn -0.637322724 0.266114891 0.723189294
vn -0.636514008 -0.740187645 0.216730639
vn 0.997913778 -0.0645494685 -0.00116752833
vn 0.997913778 -0.0645494536 -0.00116762437
vn 0.997913778 -0.0553175211 -0.0332860053
vn 0.997913778 -0.0553175397 -0.0332859792
vn 0.997913778 -0.0564852692 0.0312635228
vn 0.997913778 -0.0312635079 -0.0564851426
vn 0.997913778 -0.056485299 0.0312634595
vn 0.997913778 -0.031263452 -0.0564851798
vn 0.997913778 -0.0332859941 0.055317428
vn 0.997913778 0.00116770365 -0.0645494536
vn 0.997913778 -0.0332860053 0.0553174205
vn 0.997913778 0.0011677813 -0.0645494536
vn 0.997913778 -0.00116770575 0.0645492449
vn 0.997913778 0.0332860388 -0.0553173199
vn 0.997913778 -0.00116785883 0.0645492449
vn 0.997913778 0.0332860462 -0.0553173088
vn 0.997913778 0.0312633067 0.0564849079
vn 0.997913778 0.0564851984 -0.0312632546
vn 0.997913778 0.0312633142 0.0564848967
vn 0.997913778 0.0564851649 -0.0312633067
vn 0.997913778 0.0553173013 0.0332858264
vn 0.997913778 0.0645492375 0.00116756477
vn 0.997913778 0.0553173721 0.0332857184
vn 0.997913778 0.0645492226 0.00116760063
vn -0.997916758 0.0552788265 0.0332627669
vn -0.997916758 0.0645041913 0.00116684788
vn -0.997916758 0.0645041913 0.00116692181
vn -0.997916758 0.055278834 0.0332627557
vn -0.997916758 0.0564458258 -0.0312415138
vn -0.997916758 0.0312414467 0.0564455651
vn -0.997916758 0.0564458035 -0.0312415436
vn -0.997916758 0.0312414803 0.0564455464
vn -0.997916758 0.03326286 -0.0552787185
vn -0.997916758 -0.00116698851 0.0645037815
vn -0.997916758 0.0332629085 -0.0552786961
vn -0.997916758 -0.00116689829 0.0645037889
vn -0.997916758 0.0011670338 -0.064504236
vn -0.997916758 -0.0332627557 0.0552786589
vn -0.997916758 0.00116697443 -0.064504236
vn -0.997916758 -0.0332628153 0.0552786291
vn -0.997916758 -0.0312417243 -0.0564459786
vn -0.997916758 -0.0564459041 0.0312416311
vn -0.997916758 -0.0312417578 -0.05644596
vn -0.997916758 -0.0564458556 0.0312417243
vn -0.997916758 -0.0552789308 -0.0332631208
vn -0.997916758 -0.0645043775 -0.00116696651
vn -0.997916758 -0.0552789383 -0.0332630984
vn -0.997916758 -0.0645043775 -0.00116699596
g langyabang_0
f 3/3/3 2/2/2 1/1/1
f 4/4/4 3/3/3 1/1/1
f 4/4/4 1/1/1 5/5/5
f 1/1/1 6/6/6 5/5/5
f 6/6/6 7/7/7 5/5/5
f 7/7/7 8/8/8 5/5/5
f 7/7/7 9/9/9 8/8/8
f 9/9/9 10/10/10 8/8/8
f 9/9/9 11/11/11 10/10/10
f 11/11/11 12/12/12 10/10/10
f 15/15/15 14/14/14 13/13/13
f 16/16/16 15/15/15 13/13/13
f 16/16/16 13/13/13 17/17/17
f 18/18/18 16/16/16 17/17/17
f 19/19/19 18/18/18 17/17/17
f 20/20/20 19/19/19 17/17/17
f 20/20/20 21/21/21 19/19/19
f 21/21/21 22/22/22 19/19/19
f 21/21/21 23/23/23 22/22/22
f 23/23/23 24/24/24 22/22/22
f 27/27/27 26/26/26 25/25/25
f 26/26/26 28/28/28 25/25/25
f 29/29/29 25/25/25 28/28/28
f 30/30/30 29/29/29 28/28/28
f 31/31/31 29/29/29 30/30/30
f 32/32/32 31/31/31 30/30/30
f 33/33/33 31/31/31 32/32/32
f 34/34/34 33/33/33 32/32/32
f 35/35/35 33/33/33 34/34/34
f 36/36/36 35/35/35 34/34/34
f 37/37/37 35/35/35 36/36/36
f 38/38/38 37/37/37 36/36/36
f 38/38/38 39/39/39 37/37/37
f 39/39/39 40/40/40 37/37/37
f 40/40/40 39/39/39 41/41/41
f 39/39/39 42/42/42 41/41/41
f 41/41/41 42/42/42 43/43/43
f 42/42/42 44/44/44 43/43/43
f 43/43/43 44/44/44 45/45/45
f 44/44/44 46/46/46 45/45/45
f 45/45/45 46/46/46 47/47/47
f 46/46/46 48/48/48 47/47/47
f 47/47/47 48/48/48 49/49/49
f 48/48/48 50/50/50 49/49/49
f 53/53/53 52/52/52 51/51/51
f 52/52/52 54/54/54 51/51/51
f 52/52/52 55/55/55 54/54/54
f 55/55/55 56/56/56 54/54/54
f 55/55/55 57/57/57 56/56/56
f 57/57/57 58/58/58 56/56/56
f 57/57/57 59/59/59 58/58/58
f 59/59/59 60/60/60 58/58/58
f 59/59/59 61/61/61 60/60/60
f 61/61/61 62/62/62 60/60/60
f 61/61/61 63/63/63 62/62/62
f 63/63/63 64/64/64 62/62/62
f 63/63/63 65/65/65 64/64/64
f 65/65/65 66/66/66 64/64/64
f 65/65/65 67/67/67 66/66/66
f 67/67/67 68/68/68 66/66/66
f 67/67/67 69/69/69 68/68/68
f 69/69/69 70/70/70 68/68/68
f 69/69/69 71/71/71 70/70/70
f 71/71/71 72/72/72 70/70/70
f 71/71/71 73/73/73 72/72/72
f 73/73/73 74/74/74 72/72/72
f 73/73/73 75/75/75 74/74/74
f 75/75/75 76/76/76 74/74/74
f 79/79/79 78/78/78 77/77/77
f 80/80/80 79/79/79 77/77/77
f 81/81/81 79/79/79 80/80/80
f 82/82/82 81/81/81 80/80/80
f 83/83/83 81/81/81 82/82/82
f 84/84/84 83/83/83 82/82/82
f 85/85/85 83/83/83 84/84/84
f 86/86/86 85/85/85 84/84/84
f 87/87/87 85/85/85 86/86/86
f 88/88/88 87/87/87 86/86/86
f 89/89/89 87/87/87 88/88/88
f 90/90/90 89/89/89 88/88/88
f 91/91/91 89/89/89 90/90/90
f 92/92/92 91/91/91 90/90/90
f 93/93/93 91/91/91 92/92/92
f 94/94/94 93/93/93 92/92/92
f 95/95/95 93/93/93 94/94/94
f 96/96/96 95/95/95 94/94/94
f 97/97/97 95/95/95 96/96/96
f 98/98/98 97/97/97 96/96/96
f 99/99/99 97/97/97 98/98/98
f 100/100/100 99/99/99 98/98/98
f 101/101/101 99/99/99 100/100/100
f 102/102/102 101/101/101 100/100/100
f 105/105/105 104/104/104 103/103/103
f 103/103/103 106/106/106 105/105/105
f 105/105/105 107/107/107 104/104/104
f 106/106/106 107/107/107 105/105/105
f 110/110/110 109/109/109 108/108/108
f 108/108/108 109/109/109 111/111/111
f 112/112/112 110/110/110 108/108/108
f 108/108/108 111/111/111 112/112/112
f 115/115/115 114/114/114 113/113/113
f 115/115/115 113/113/113 116/116/116
f 117/117/117 114/114/114 115/115/115
f 116/116/116 117/117/117 115/115/115
f 120/120/120 119/119/119 118/118/118
f 118/118/118 119/119/119 121/121/121
f 122/122/122 120/120/120 118/118/118
f 118/118/118 121/121/121 122/122/122
f 125/125/125 124/124/124 123/123/123
f 123/123/123 124/124/124 126/126/126
f 127/127/127 125/125/125 123/123/123
f 123/123/123 126/126/126 127/127/127
f 130/130/130 129/129/129 128/128/128
f 128/128/128 129/129/129 131/131/131
f 132/132/132 130/130/130 128/128/128
f 128/128/128 131/131/131 132/132/132
f 135/135/135 134/134/134 133/133/133
f 133/133/133 134/134/134 136/136/136
f 137/137/137 135/135/135 133/133/133
f 133/133/133 136/136/136 137/137/137
f 140/140/140 139/139/139 138/138/138
f 138/138/138 139/139/139 141/141/141
f 142/142/142 140/140/140 138/138/138
f 138/138/138 141/141/141 142/142/142
f 145/145/145 144/144/144 143/143/143
f 143/143/143 144/144/144 146/146/146
f 147/147/147 145/145/145 143/143/143
f 143/143/143 146/146/146 147/147/147
f 150/150/150 149/149/149 148/148/148
f 148/148/148 149/149/149 151/151/151
f 152/152/152 150/150/150 148/148/148
f 148/148/148 151/151/151 152/152/152
f 155/155/155 154/154/154 153/153/153
f 153/153/153 154/154/154 156/156/156
f 157/157/157 155/155/155 153/153/153
f 153/153/153 156/156/156 157/157/157
f 160/160/160 159/159/159 158/158/158
f 158/158/158 159/159/159 161/161/161
f 162/162/162 160/160/160 158/158/158
f 158/158/158 161/161/161 162/162/162
f 165/165/165 164/164/164 163/163/163
f 163/163/163 164/164/164 166/166/166
f 167/167/167 165/165/165 163/163/163
f 163/163/163 166/166/166 167/167/167
f 170/170/170 169/169/169 168/168/168
f 168/168/168 169/169/169 171/171/171
f 172/172/172 170/170/170 168/168/168
f 168/168/168 171/171/171 172/172/172
f 175/175/175 174/174/174 173/173/173
f 173/173/173 174/174/174 176/176/176
f 177/177/177 175/175/175 173/173/173
f 173/173/173 176/176/176 177/177/177
f 180/180/180 179/179/179 178/178/178
f 178/178/178 179/179/179 181/181/181
f 182/182/182 180/180/180 178/178/178
f 178/178/178 181/181/181 182/182/182
f 185/185/185 184/184/184 183/183/183
f 183/183/183 184/184/184 186/186/186
f 187/187/187 185/185/185 183/183/183
f 183/183/183 186/186/186 187/187/187
f 190/190/190 189/189/189 188/188/188
f 188/188/188 189/189/189 191/191/191
f 192/192/192 190/190/190 188/188/188
f 188/188/188 191/191/191 192/192/192
f 195/195/195 194/194/194 193/193/193
f 193/193/193 194/194/194 196/196/196
f 197/197/197 195/195/195 193/193/193
f 193/193/193 196/196/196 197/197/197
f 200/200/200 199/199/199 198/198/198
f 198/198/198 199/199/199 201/201/201
f 202/202/202 200/200/200 198/198/198
f 198/198/198 201/201/201 202/202/202
f 205/205/205 204/204/204 203/203/203
f 206/206/206 205/205/205 203/203/203
f 203/203/203 204/204/204 207/207/207
f 208/208/208 205/205/205 206/206/206
f 204/204/204 209/209/209 207/207/207
f 210/210/210 208/208/208 206/206/206
f 207/207/207 209/209/209 211/211/211
f 212/212/212 208/208/208 210/210/210
f 209/209/209 213/213/213 211/211/211
f 214/214/214 212/212/212 210/210/210
f 211/211/211 213/213/213 215/215/215
f 216/216/216 212/212/212 214/214/214
f 213/213/213 217/217/217 215/215/215
f 218/218/218 216/216/216 214/214/214
f 215/215/215 217/217/217 219/219/219
f 220/220/220 216/216/216 218/218/218
f 217/217/217 221/221/221 219/219/219
f 222/222/222 220/220/220 218/218/218
f 219/219/219 221/221/221 223/223/223
f 224/224/224 220/220/220 222/222/222
f 221/221/221 225/225/225 223/223/223
f 226/226/226 224/224/224 222/222/222
f 223/223/223 225/225/225 226/226/226
f 225/225/225 224/224/224 226/226/226
f 229/229/229 228/228/228 227/227/227
f 230/230/230 229/229/229 227/227/227
f 229/229/229 231/231/231 228/228/228
f 230/230/230 227/227/227 232/232/232
f 231/231/231 233/233/233 228/228/228
f 234/234/234 230/230/230 232/232/232
f 231/231/231 235/235/235 233/233/233
f 234/234/234 232/232/232 236/236/236
f 235/235/235 237/237/237 233/233/233
f 238/238/238 234/234/234 236/236/236
f 235/235/235 239/239/239 237/237/237
f 238/238/238 236/236/236 240/240/240
f 239/239/239 241/241/241 237/237/237
f 242/242/242 238/238/238 240/240/240
f 239/239/239 243/243/243 241/241/241
f 242/242/242 240/240/240 244/244/244
f 243/243/243 245/245/245 241/241/241
f 246/246/246 242/242/242 244/244/244
f 243/243/243 247/247/247 245/245/245
f 246/246/246 244/244/244 248/248/248
f 247/247/247 249/249/249 245/245/245
f 250/250/250 246/246/246 248/248/248
f 250/250/250 248/248/248 249/249/249
f 247/247/247 250/250/250 249/249/249
