g A_Hero_David_01_light_01
v 0.33447203 1.24823594 1.49376523
v 0.432527006 1.36872923 1.53538108
v 0.40288803 1.22077346 1.48071039
v 0.286981344 1.30768418 1.50307465
v 0.475317359 1.23044252 1.46805847
v 0.274322361 1.38283062 1.50506639
v 0.534933746 1.27474225 1.45517814
v 0.302007884 1.45689631 1.50112236
v 0.566426694 1.34730875 1.44939172
v 0.364108562 1.50636232 1.49077666
v 0.55864501 1.42208123 1.45066583
v 0.444169462 1.5177443 1.47349083
v 0.513187528 1.48598802 1.46036398
v -0.470654815 1.24823594 1.49376523
v -0.539070666 1.22077346 1.48071039
v -0.568709731 1.36872923 1.53538108
v -0.42316404 1.30768418 1.50307465
v -0.611500144 1.23044252 1.46805847
v -0.410505056 1.38283062 1.50506639
v -0.671116471 1.27474225 1.45517814
v -0.43819052 1.45689631 1.50112236
v -0.702609301 1.34730875 1.44939172
v -0.500291228 1.50636232 1.49077666
v -0.694827616 1.42208123 1.45066583
v -0.580352247 1.5177443 1.47349083
v -0.649370313 1.48598802 1.46036398
vt 0.576019526 0.910637259
vt 0.560624838 0.924144864
vt 0.566633701 0.905117929
vt 0.581653357 0.920195937
vt 0.555779576 0.904762387
vt 0.581940651 0.931251049
vt 0.545878649 0.90981555
vt 0.576375008 0.94132179
vt 0.539611101 0.919677496
vt 0.566258669 0.947218716
vt 0.539092541 0.930848837
vt 0.554130197 0.947320879
vt 0.544540048 0.941219032
vt 0.576019585 0.910637259
vt 0.566633761 0.905117929
vt 0.560624778 0.924144864
vt 0.581653297 0.920195937
vt 0.555779576 0.904762387
vt 0.581940711 0.931251049
vt 0.545878649 0.90981555
vt 0.576375008 0.94132179
vt 0.539611101 0.919677496
vt 0.566258729 0.947218716
vt 0.539092541 0.930848837
vt 0.554130197 0.947320879
vt 0.544540048 0.941219032
vn -0.0391868278 -0.29756698 0.953896403
vn 0.188874751 0.00262425258 0.981997669
vn 0.121799812 -0.36539796 0.922848284
vn -0.153788 -0.150185391 0.976623595
vn 0.30950582 -0.33709383 0.889142215
vn -0.185414121 0.0312542692 0.98216337
vn 0.464263827 -0.225123376 0.856608689
vn -0.120755717 0.19912371 0.972505987
vn 0.532709897 -0.0590782948 0.844233334
vn 0.0432525463 0.327401489 0.943894863
vn 0.514346778 0.130099118 0.847656608
vn 0.234282061 0.357220322 0.904160142
vn 0.405335188 0.278267562 0.870787263
vn 0.0391865037 -0.29756701 0.953896403
vn -0.121799447 -0.365398347 0.922848284
vn -0.188874707 0.0026242109 0.981997669
vn 0.153787524 -0.150185317 0.976623595
vn -0.309505433 -0.33709383 0.889142454
vn 0.185413733 0.0312541649 0.98216337
vn -0.464264035 -0.225122884 0.856608808
vn 0.120755091 0.199123576 0.972506106
vn -0.532709718 -0.0590778552 0.844233513
vn -0.0432527587 0.32740131 0.943894863
vn -0.514347076 0.130098909 0.84765631
vn -0.234281674 0.357219905 0.90416044
vn -0.405335397 0.278266937 0.870787323
g A_Hero_David_01_light_01_0
f 3/3/3 2/2/2 1/1/1
f 1/1/1 2/2/2 4/4/4
f 5/5/5 2/2/2 3/3/3
f 4/4/4 2/2/2 6/6/6
f 7/7/7 2/2/2 5/5/5
f 6/6/6 2/2/2 8/8/8
f 9/9/9 2/2/2 7/7/7
f 8/8/8 2/2/2 10/10/10
f 11/11/11 2/2/2 9/9/9
f 2/2/2 12/12/12 10/10/10
f 13/13/13 2/2/2 11/11/11
f 13/13/13 12/12/12 2/2/2
f 16/16/16 15/15/15 14/14/14
f 16/16/16 14/14/14 17/17/17
f 16/16/16 18/18/18 15/15/15
f 16/16/16 17/17/17 19/19/19
f 16/16/16 20/20/20 18/18/18
f 16/16/16 19/19/19 21/21/21
f 16/16/16 22/22/22 20/20/20
f 16/16/16 21/21/21 23/23/23
f 16/16/16 24/24/24 22/22/22
f 25/25/25 16/16/16 23/23/23
f 16/16/16 26/26/26 24/24/24
f 25/25/25 26/26/26 16/16/16
