g O_build_road_A_01
v -2.00636766 0.036049112 7.47310519
v -1.99049457 0.198205849 7.43199503
v -1.99266427 0.155953741 7.47390456
v -0.498652591 0.333412593 6.78816427
v -0.498652591 0.330671915 -0.00985723175
v -0.00510229818 0.334554541 -0.00985723175
v -0.0027042056 0.331357085 6.78816427
v -0.0111546271 0.0119539913 -0.00985723175
v -0.00510229818 0.334554541 -0.00985723175
v -0.498652591 0.330671915 -0.00985723175
v -0.498652591 0.0109262373 -0.00985723175
v -0.498652591 0.333412593 6.78816427
v -0.0027042056 0.331357085 6.78816427
v -0.0027042056 0.0508944471 6.78816427
v -0.498652591 0.0498666931 6.78816427
v -0.00510229818 0.334554541 -0.00985723175
v -0.0111546271 0.0119539913 -0.00985723175
v -0.0027042056 0.0508944471 6.78816427
v -0.0027042056 0.331357085 6.78816427
v -0.498652591 0.0498666931 6.78816427
v -0.498652591 0.0109262373 -0.00985723175
v -0.498652591 0.330671915 -0.00985723175
v -0.498652591 0.333412593 6.78816427
v -0.408781217 0.218075759 0.735606977
v -0.370640125 0.168058399 0.698379445
v -0.435731209 0.171712635 7.46568252
v -0.487689882 0.206542075 7.41646453
v -1.99266427 0.155953741 7.47390456
v -1.99049457 0.198205849 7.43199503
v -0.487689882 0.206542075 7.41646453
v -0.435731209 0.171712635 7.46568252
v -0.425567865 0.036049112 7.46431219
v -2.00636766 0.036049112 7.47310519
v -1.99266427 0.155953741 7.47390456
v -0.435731209 0.171712635 7.46568252
v -1.98786809 0.197863264 0.735150198
v -2.00351279 0.036049112 0.698950419
v -1.99163652 0.154355013 0.697694276
v -2.00636766 0.036049112 7.47310519
v -1.99049457 0.198205849 7.43199503
v -0.370640125 0.168058399 0.698379445
v -0.408781217 0.218075759 0.735606977
v -1.98786809 0.197863264 0.735150198
v -1.99163652 0.154355013 0.697694276
v -1.98786809 0.197863264 0.735150198
v -0.408781217 0.218075759 0.735606977
v -0.487689882 0.206542075 7.41646453
v -1.99049457 0.198205849 7.43199503
v -0.352254749 0.036049112 0.699064614
v -0.425567865 0.036049112 7.46431219
v -0.435731209 0.171712635 7.46568252
v -0.370640125 0.168058399 0.698379445
v -2.00351279 0.036049112 0.698950419
v -0.352254749 0.036049112 0.699064614
v -0.370640125 0.168058399 0.698379445
v -1.99163652 0.154355013 0.697694276
vt 0.546504732 0.959916115
vt 0.532506603 0.956183281
vt 0.536239438 0.959916115
vt 0.607163287 0.217082117
vt 0.607163287 0.763009113
vt 0.64355842 0.763942321
vt 0.64355842 0.216148908
vt 0.0313736174 0.805936706
vt 0.00524377823 0.805003497
vt 0.00524377823 0.84139863
vt 0.0313736174 0.84139863
vt 0.824600876 0.777007241
vt 0.824600876 0.812469165
vt 0.846997881 0.812469165
vt 0.846997881 0.776074032
vt 0.787272535 0.763942321
vt 0.813402374 0.763942321
vt 0.813402374 0.216148908
vt 0.791005369 0.216148908
vt 0.849797507 0.76487553
vt 0.849797507 0.216148908
vt 0.824600876 0.218015325
vt 0.827400502 0.763942321
vt 0.898324351 0.75181061
vt 0.902990394 0.754610236
vt 0.902990394 0.216148908
vt 0.898324351 0.219881742
vt 0.232946662 0.739678899
vt 0.228280619 0.740612108
vt 0.228280619 0.867528469
vt 0.232946662 0.871261303
vt 0.75834307 0.890858683
vt 0.75834307 0.75834307
vt 0.748077776 0.759276279
vt 0.747144568 0.889925474
vt 0.533439812 0.423321204
vt 0.546504732 0.420521579
vt 0.536239438 0.420521579
vt 0.546504732 0.959916115
vt 0.532506603 0.956183281
vt 0.204017197 0.741545316
vt 0.199351155 0.744344942
vt 0.200284363 0.873127721
vt 0.204950406 0.874060929
vt 0.134026557 0.00524377823
vt 0.00524377823 0.00524377823
vt 0.00804340385 0.536239438
vt 0.134026557 0.537172646
vt 0.914188896 0.754610236
vt 0.914188896 0.216148908
vt 0.902990394 0.216148908
vt 0.902990394 0.754610236
vt 0.214282491 0.874994138
vt 0.214282491 0.739678899
vt 0.204017197 0.741545316
vt 0.204950406 0.874060929
vn -0.992149652 0.113751842 0.0519575418
vn -0.992149652 0.113751842 0.0519575418
vn -0.992149652 0.113751842 0.0519575418
vn -0.00395211401 0.99999219 -0
vn -0.00395211401 0.99999219 -0
vn -0.00395211401 0.99999219 -0
vn -0.00395211401 0.99999219 -0
vn 0.00389072241 -0.00389072241 -0.999984862
vn 0.00389072241 -0.00389072241 -0.999984862
vn 0.00389072241 -0.00389072241 -0.999984862
vn 0.00389072241 -0.00389072241 -0.999984862
vn 0.00389072241 -0.00389072241 0.999984862
vn 0.00389072241 -0.00389072241 0.999984862
vn 0.00389072241 -0.00389072241 0.999984862
vn 0.00389072241 -0.00389072241 0.999984862
vn 0.999931097 -0.01173356 -0.00035321495
vn 0.999931097 -0.01173356 -0.00035321495
vn 0.999931097 -0.01173356 -0.00035321495
vn 0.999931097 -0.01173356 -0.00035321495
vn -0.999992431 -0.00389072218 -0
vn -0.999992431 -0.00389072218 -0
vn -0.999992431 -0.00389072218 -0
vn -0.999992431 -0.00389072218 -0
vn 0.686217593 0.725493174 0.0525839261
vn 0.686217593 0.725493174 0.0525839261
vn 0.686217593 0.725493174 0.0525839261
vn 0.686217593 0.725493174 0.0525839261
vn -0.00395211519 0.764707362 0.644365604
vn -0.00395211519 0.764707362 0.644365604
vn -0.00395211519 0.764707362 0.644365604
vn -0.00395211519 0.764707362 0.644365604
vn 0.00389072241 -0.01173356 0.99992359
vn 0.00389072241 -0.01173356 0.99992359
vn 0.00389072241 -0.01173356 0.99992359
vn 0.00389072241 -0.01173356 0.99992359
vn -0.992149652 0.0980661663 -0.077602156
vn -0.992149652 0.0980661663 -0.077602156
vn -0.992149652 0.0980661663 -0.077602156
vn -0.992149652 0.0980661663 -0.077602156
vn -0.992149652 0.0980661663 -0.077602156
vn -0.00395211519 0.623536285 -0.781784422
vn -0.00395211519 0.623536285 -0.781784422
vn -0.00395211519 0.623536285 -0.781784422
vn -0.00395211519 0.623536285 -0.781784422
vn -0.011794221 0.999930446 -0
vn -0.011794221 0.999930446 -0
vn -0.011794221 0.999930446 -0
vn -0.011794221 0.999930446 -0
vn 0.992088259 0.105909004 0.0674104471
vn 0.992088259 0.105909004 0.0674104471
vn 0.992088259 0.105909004 0.0674104471
vn 0.992088259 0.105909004 0.0674104471
vn 0.00389072241 -0.00389072241 -0.999984862
vn 0.00389072241 -0.00389072241 -0.999984862
vn 0.00389072241 -0.00389072241 -0.999984862
vn 0.00389072241 -0.00389072241 -0.999984862
g O_build_road_A_01_0
f 3/3/3 2/2/2 1/1/1
f 6/6/6 5/5/5 4/4/4
f 7/7/7 6/6/6 4/4/4
f 10/10/10 9/9/9 8/8/8
f 11/11/11 10/10/10 8/8/8
f 14/14/14 13/13/13 12/12/12
f 15/15/15 14/14/14 12/12/12
f 18/18/18 17/17/17 16/16/16
f 19/19/19 18/18/18 16/16/16
f 22/22/22 21/21/21 20/20/20
f 23/23/23 22/22/22 20/20/20
f 26/26/26 25/25/25 24/24/24
f 27/27/27 26/26/26 24/24/24
f 30/30/30 29/29/29 28/28/28
f 31/31/31 30/30/30 28/28/28
f 34/34/34 33/33/33 32/32/32
f 35/35/35 34/34/34 32/32/32
f 38/38/38 37/37/37 36/36/36
f 36/36/36 37/37/37 39/39/39
f 40/40/40 36/36/36 39/39/39
f 43/43/43 42/42/42 41/41/41
f 44/44/44 43/43/43 41/41/41
f 47/47/47 46/46/46 45/45/45
f 48/48/48 47/47/47 45/45/45
f 51/51/51 50/50/50 49/49/49
f 52/52/52 51/51/51 49/49/49
f 55/55/55 54/54/54 53/53/53
f 56/56/56 55/55/55 53/53/53
