g O_build_road_A_06
v 5.03331518 -0.234224362 -1.89645454
v 4.99829119 0.0890429746 -1.9081292
v 5.04297696 0.0218130303 -1.91618069
v 5.03331518 -0.234224362 2.34990146
v 4.99829119 0.0890429746 2.3382268
v 5.04297696 0.0218130303 2.33017531
v -7.79351407 -0.246301598 -2.40249071
v -7.79915012 0.0536164171 -2.39323149
v -7.80076042 0.0882378255 -2.35297404
v -6.10109081 -0.235432086 -1.9097395
v -6.14295856 0.087835251 -1.92101159
v -6.08941614 0.0206053068 -1.92906308
v -7.79351407 -0.246301598 1.84386529
v -7.79915012 0.0536164171 1.85312451
v -7.80076042 0.0882378255 1.89338196
v -6.10109081 -0.235432086 2.3366165
v -6.14295856 0.087835251 2.32534441
v -6.08941614 0.0206053068 2.31689035
v 11.5240241 0.0902506981 2.35835552
v 11.5240241 -0.244288725 2.35835552
v 11.5240241 -0.245093874 1.8595657
v 11.5240241 0.0902506981 1.8595657
v 12.3641971 0.0890429746 1.86318887
v 11.5240241 0.0902506981 2.35835552
v 11.5240241 0.0902506981 1.8595657
v 12.352925 0.0890429746 2.3619787
v 13.1230501 0.0890429746 1.81326963
v 13.2257066 0.0890429746 2.30038479
v 13.8017907 0.0890429746 2.09064347
v 13.5582331 0.0890429746 1.64539606
v 13.986975 0.0890429746 1.33581625
v 14.3138655 0.0890429746 1.74241651
v 14.8090322 0.0890429746 1.24000352
v 14.3766671 0.0890429746 0.987186721
v 14.624653 0.0914584217 0.534692964
v 15.1258583 0.0914584217 0.534692964
v 13.8017907 0.0890429746 2.09064347
v 14.3138655 0.0890429746 1.74241651
v 14.3263453 -0.225770297 1.73275473
v 13.8134654 -0.228990894 2.08460485
v 13.2369787 -0.23221149 2.29756677
v 13.2257066 0.0890429746 2.30038479
v 12.352925 0.0890429746 2.3619787
v 12.360574 -0.238652682 2.3619787
v 11.5240241 -0.244288725 2.35835552
v 11.5240241 0.0902506981 2.35835552
v 14.8090322 0.0890429746 1.24000352
v 15.1258583 0.0914584217 0.534692964
v 15.1258583 -0.204031274 0.534692964
v 14.8154734 -0.222549701 1.22551084
v 14.3138655 0.0890429746 1.74241651
v 14.3263453 -0.225770297 1.73275473
v 14.624653 0.0914584217 0.534692964
v 14.3810955 -0.22335485 0.977524933
v 14.624653 -0.218121382 0.52181058
v 14.3766671 0.0890429746 0.987186721
v 13.9954291 -0.226575446 1.32897249
v 13.986975 0.0890429746 1.33581625
v 13.5666872 -0.229796043 1.64096774
v 13.5582331 0.0890429746 1.64539606
v 13.1230501 0.0890429746 1.81326963
v 13.1315042 -0.233016639 1.81125676
v 12.3641971 0.0890429746 1.86318887
v 12.3706383 -0.239457831 1.86318887
v 11.5240241 -0.245093874 1.8595657
v 11.5240241 0.0902506981 1.8595657
v 11.5240241 0.0902506981 -2.38799803
v 11.5240241 0.0902506981 -1.88961077
v 11.5240241 -0.245093874 -1.88961077
v 11.5240241 -0.244288725 -2.38799803
v 12.3641971 0.0890429746 -1.89323395
v 11.5240241 0.0902506981 -1.88961077
v 11.5240241 0.0902506981 -2.38799803
v 12.352925 0.0890429746 -2.3916212
v 13.1230501 0.0890429746 -1.84291213
v 13.2257066 0.0890429746 -2.3300273
v 13.8017907 0.0890429746 -2.12068855
v 13.5582331 0.0890429746 -1.67503856
v 13.986975 0.0890429746 -1.36586133
v 14.3138655 0.0890429746 -1.77205902
v 14.7599181 0.0890429746 -1.26964602
v 14.3303711 0.0890429746 -1.0172318
v 14.5320609 0.0890429746 -0.554271103
v 15.0280327 0.0890429746 -0.647668391
v 15.1258583 0.0890429746 0.00530747512
v 14.616199 0.0890429746 0.0105409438
v 15.1258583 0.0914584217 0.534692964
v 14.624653 0.0914584217 0.534692964
v 13.8017907 0.0890429746 -2.12068855
v 14.3263453 -0.225770297 -1.76239723
v 14.3138655 0.0890429746 -1.77205902
v 13.8134654 -0.228990894 -2.11424735
v 13.2369787 -0.23221149 -2.32761185
v 13.2257066 0.0890429746 -2.3300273
v 12.352925 0.0890429746 -2.3916212
v 12.360574 -0.238652682 -2.3916212
v 11.5240241 -0.244288725 -2.38799803
v 11.5240241 0.0902506981 -2.38799803
v 15.1258583 -0.204031274 0.534692964
v 15.1258583 0.0914584217 0.534692964
v 15.1258583 0.0890429746 0.00530747512
v 15.1258583 -0.212485338 0.0282542226
v 15.0280327 0.0890429746 -0.647668391
v 15.0280327 -0.219329105 -0.628344814
v 14.7599181 0.0890429746 -1.26964602
v 14.7659567 -0.222549701 -1.25515334
v 14.3138655 0.0890429746 -1.77205902
v 14.3263453 -0.225770297 -1.76239723
v 14.624653 0.0914584217 0.534692964
v 14.624653 -0.204836423 0.534692964
v 14.616199 -0.213693062 0.0258387755
v 14.616199 0.0890429746 0.0105409438
v 14.5320609 0.0890429746 -0.554271103
v 14.5320609 -0.220134254 -0.541388718
v 14.3343968 -0.22335485 -1.00716743
v 14.3303711 0.0890429746 -1.0172318
v 13.9954291 -0.226575446 -1.35901756
v 13.986975 0.0890429746 -1.36586133
v 13.5666872 -0.229796043 -1.67061024
v 13.5582331 0.0890429746 -1.67503856
v 13.1230501 0.0890429746 -1.84291213
v 13.1315042 -0.233016639 -1.84089926
v 12.3641971 0.0890429746 -1.89323395
v 12.3706383 -0.239457831 -1.89323395
v 11.5240241 -0.245093874 -1.88961077
v 11.5240241 0.0902506981 -1.88961077
v 0.686315544 0.0882378255 -1.90450603
v -6.11155774 0.0894455491 -1.90450603
v -6.11155774 0.0894455491 -2.39806239
v 0.686315544 0.086224953 -2.40007526
v -6.11155774 -0.233419213 -2.3916212
v -6.11155774 0.0894455491 -2.39806239
v -6.11155774 0.0894455491 -1.90450603
v -6.11155774 -0.234224362 -1.90450603
v 0.686315544 0.0882378255 -1.90450603
v 0.686315544 0.086224953 -2.40007526
v 0.686315544 -0.194369485 -2.40007526
v 0.686315544 -0.195174634 -1.90450603
v -6.11155774 0.0894455491 -2.39806239
v -6.11155774 -0.233419213 -2.3916212
v 0.686315544 -0.194369485 -2.40007526
v 0.686315544 0.086224953 -2.40007526
v 0.686315544 -0.195174634 -1.90450603
v -6.11155774 -0.234224362 -1.90450603
v -6.11155774 0.0894455491 -1.90450603
v 0.686315544 0.0882378255 -1.90450603
v 5.0550542 -0.279715283 -1.88840305
v 5.02808171 -0.279715283 -2.38799803
v 5.02808171 0.0608627584 -2.38799803
v 5.02808171 0.0834069313 -1.88840305
v 11.5654893 -0.279715283 -1.88840305
v 11.5429451 0.0858223784 -1.88840305
v 11.5393219 0.0902506981 -2.38799803
v 11.5489837 -0.279715283 -2.38799803
v 5.02808171 0.0608627584 -2.38799803
v 5.02808171 -0.279715283 -2.38799803
v 11.5489837 -0.279715283 -2.38799803
v 11.5393219 0.0902506981 -2.38799803
v 5.02808171 0.0608627584 -2.38799803
v 11.5393219 0.0902506981 -2.38799803
v 11.5429451 0.0858223784 -1.88840305
v 5.02808171 0.0834069313 -1.88840305
v 11.5654893 -0.279715283 -1.88840305
v 5.0550542 -0.279715283 -1.88840305
v 5.02808171 0.0834069313 -1.88840305
v 11.5429451 0.0858223784 -1.88840305
v 0.64404522 -0.245093874 -2.38920575
v 5.03412032 -0.234224362 -2.39242635
v 5.00714783 0.0660962271 -2.38719288
v 0.639616901 0.0548241407 -2.38034911
v 4.99829119 0.0890429746 -1.9081292
v 5.03331518 -0.234224362 -1.89645454
v 0.643240071 -0.245093874 -1.8924288
v 0.652499285 0.0894455491 -1.90370088
v 0.64404522 -0.245093874 -2.38920575
v 0.639616901 0.0548241407 -2.38034911
v 0.638409177 0.0894455491 -2.33968908
v 0.652499285 0.0894455491 -1.90370088
v 0.643240071 -0.245093874 -1.8924288
v 5.03412032 -0.234224362 -2.39242635
v 5.04378211 0.0326825423 -2.27608231
v 5.00714783 0.0660962271 -2.38719288
v 4.98218821 0.0926661452 -2.3062754
v 5.04297696 0.0218130303 -1.91618069
v 4.99829119 0.0890429746 -1.9081292
v 5.03412032 -0.234224362 -2.39242635
v 5.03331518 -0.234224362 -1.89645454
v 0.652499285 0.0894455491 -1.90370088
v 4.98218821 0.0926661452 -2.3062754
v 4.99829119 0.0890429746 -1.9081292
v 0.638409177 0.0894455491 -2.33968908
v 5.00714783 0.0660962271 -2.38719288
v 0.639616901 0.0548241407 -2.38034911
v -7.79109863 0.0902506981 -2.40852933
v -7.79109863 -0.244288725 -2.40852933
v -7.79109863 -0.245093874 -1.9097395
v -7.79109863 0.0902506981 -1.9097395
v -8.49520146 0.0890429746 -1.91336267
v -7.79109863 0.0902506981 -2.40852933
v -7.79109863 0.0902506981 -1.9097395
v -8.48392937 0.0890429746 -2.4121525
v -9.25405442 0.0890429746 -1.86344343
v -9.35671092 0.0890429746 -2.3505586
v -9.93279506 0.0890429746 -2.14081727
v -9.68923747 0.0890429746 -1.69556986
v -10.1179793 0.0890429746 -1.38599005
v -10.4448698 0.0890429746 -1.79259032
v -10.9400365 0.0890429746 -1.29017732
v -10.5076715 0.0890429746 -1.03736052
v -10.7089587 0.0918609962 -0.585269341
v -11.1650757 0.0914584217 -0.584866766
v -9.93279506 0.0890429746 -2.14081727
v -10.4448698 0.0890429746 -1.79259032
v -10.4573497 -0.225770297 -1.78292853
v -9.94446972 -0.228990894 -2.13477866
v -9.36798301 -0.23221149 -2.34774057
v -9.35671092 0.0890429746 -2.3505586
v -8.48392937 0.0890429746 -2.4121525
v -8.49157829 -0.238652682 -2.4121525
v -7.79109863 -0.244288725 -2.40852933
v -7.79109863 0.0902506981 -2.40852933
v -10.9400365 0.0890429746 -1.29017732
v -11.1650757 0.0914584217 -0.584866766
v -11.1650757 -0.204031274 -0.584866766
v -10.9464777 -0.222549701 -1.27568464
v -10.4448698 0.0890429746 -1.79259032
v -10.4573497 -0.225770297 -1.78292853
v -10.7089587 0.0918609962 -0.585269341
v -10.5120998 -0.22335485 -1.02769873
v -10.6638704 -0.218121382 -0.571984382
v -10.5076715 0.0890429746 -1.03736052
v -10.1264334 -0.226575446 -1.37914629
v -10.1179793 0.0890429746 -1.38599005
v -9.69769154 -0.229796043 -1.69114154
v -9.68923747 0.0890429746 -1.69556986
v -9.25405442 0.0890429746 -1.86344343
v -9.26250849 -0.233016639 -1.86143056
v -8.49520146 0.0890429746 -1.91336267
v -8.50164265 -0.239457831 -1.91336267
v -7.79109863 -0.245093874 -1.9097395
v -7.79109863 0.0902506981 -1.9097395
v -7.79109863 0.0902506981 2.33782422
v -7.79109863 0.0902506981 1.83943697
v -7.79109863 -0.245093874 1.83943697
v -7.79109863 -0.244288725 2.33782422
v -8.49520146 0.0890429746 1.84306014
v -7.79109863 0.0902506981 1.83943697
v -7.79109863 0.0902506981 2.33782422
v -8.48392937 0.0890429746 2.3414474
v -9.25405442 0.0890429746 1.79273833
v -9.35671092 0.0890429746 2.27985349
v -9.93279506 0.0890429746 2.07011217
v -9.68923747 0.0890429746 1.62486476
v -10.1179793 0.0890429746 1.31528495
v -10.4448698 0.0890429746 1.72188521
v -10.8909224 0.0890429746 1.21947222
v -10.4613754 0.0890429746 0.967057995
v -10.6630652 0.0890429746 0.504097301
v -11.159037 0.0890429746 0.597494589
v -11.2568626 0.0890429746 -0.021262443
v -10.7472033 0.0890429746 -0.0260933372
v -11.1650757 0.0914584217 -0.584866766
v -10.7089587 0.0918609962 -0.585269341
v -9.93279506 0.0890429746 2.07011217
v -10.4573497 -0.225770297 1.71222343
v -10.4448698 0.0890429746 1.72188521
v -9.94446972 -0.228990894 2.06407355
v -9.36798301 -0.23221149 2.27703547
v -9.35671092 0.0890429746 2.27985349
v -8.48392937 0.0890429746 2.3414474
v -8.49157829 -0.238652682 2.3414474
v -7.79109863 -0.244288725 2.33782422
v -7.79109863 0.0902506981 2.33782422
v -11.1650757 -0.204031274 -0.584866766
v -11.1650757 0.0914584217 -0.584866766
v -11.2568626 0.0890429746 -0.021262443
v -11.2568626 -0.212485338 -0.0438066159
v -11.159037 0.0890429746 0.597494589
v -11.159037 -0.219329105 0.578171012
v -10.8909224 0.0890429746 1.21947222
v -10.896961 -0.222549701 1.20497953
v -10.4448698 0.0890429746 1.72188521
v -10.4573497 -0.225770297 1.71222343
v -10.7089587 0.0918609962 -0.585269341
v -10.6638704 -0.204836423 -0.584866766
v -10.7472033 -0.213693062 -0.0413911688
v -10.7472033 0.0890429746 -0.0260933372
v -10.6630652 0.0890429746 0.504097301
v -10.6630652 -0.220134254 0.491214917
v -10.4654011 -0.22335485 0.956993632
v -10.4613754 0.0890429746 0.967057995
v -10.1264334 -0.226575446 1.30884376
v -10.1179793 0.0890429746 1.31528495
v -9.69769154 -0.229796043 1.62043644
v -9.68923747 0.0890429746 1.62486476
v -9.25405442 0.0890429746 1.79273833
v -9.26250849 -0.233016639 1.79072546
v -8.49520146 0.0890429746 1.84306014
v -8.50164265 -0.239457831 1.84306014
v -7.79109863 -0.245093874 1.83943697
v -7.79109863 0.0902506981 1.83943697
v 0.686315544 0.0882378255 2.34184997
v -6.11155774 0.0894455491 2.34184997
v -6.11155774 0.0894455491 1.84829361
v 0.686315544 0.086224953 1.84587817
v -6.11155774 -0.233419213 1.85433223
v -6.11155774 0.0894455491 1.84829361
v -6.11155774 0.0894455491 2.34184997
v -6.11155774 -0.234224362 2.34184997
v 0.686315544 0.0882378255 2.34184997
v 0.686315544 0.086224953 1.84587817
v 0.686315544 -0.194369485 1.84587817
v 0.686315544 -0.195174634 2.34184997
v -6.11155774 0.0894455491 1.84829361
v -6.11155774 -0.233419213 1.85433223
v 0.686315544 -0.194369485 1.84587817
v 0.686315544 0.086224953 1.84587817
v 0.686315544 -0.195174634 2.34184997
v -6.11155774 -0.234224362 2.34184997
v -6.11155774 0.0894455491 2.34184997
v 0.686315544 0.0882378255 2.34184997
v 5.0550542 -0.279715283 2.35795295
v 5.02808171 -0.279715283 1.8579554
v 5.02808171 0.0608627584 1.8579554
v 5.02808171 0.0834069313 2.35795295
v 11.5654893 -0.279715283 2.35795295
v 11.5429451 0.0858223784 2.35795295
v 11.5393219 0.0902506981 1.85835798
v 11.5489837 -0.279715283 1.85835798
v 5.02808171 0.0608627584 1.8579554
v 5.02808171 -0.279715283 1.8579554
v 11.5489837 -0.279715283 1.85835798
v 11.5393219 0.0902506981 1.85835798
v 5.02808171 0.0608627584 1.8579554
v 11.5393219 0.0902506981 1.85835798
v 11.5429451 0.0858223784 2.35795295
v 5.02808171 0.0834069313 2.35795295
v 11.5654893 -0.279715283 2.35795295
v 5.0550542 -0.279715283 2.35795295
v 5.02808171 0.0834069313 2.35795295
v 11.5429451 0.0858223784 2.35795295
v 0.64404522 -0.245093874 1.85674768
v 5.03412032 -0.234224362 1.85392966
v 5.00714783 0.0660962271 1.85916312
v 0.639616901 0.0548241407 1.86600689
v 4.99829119 0.0890429746 2.3382268
v 5.03331518 -0.234224362 2.34990146
v 0.643240071 -0.245093874 2.35352463
v 0.652499285 0.0894455491 2.34225254
v 0.64404522 -0.245093874 1.85674768
v 0.639616901 0.0548241407 1.86600689
v 0.638409177 0.0894455491 1.90626434
v 0.652499285 0.0894455491 2.34225254
v 0.643240071 -0.245093874 2.35352463
v 5.03412032 -0.234224362 1.85392966
v 5.04378211 0.0326825423 1.97027369
v 5.00714783 0.0660962271 1.85916312
v 4.98218821 0.0926661452 1.9400806
v 5.04297696 0.0218130303 2.33017531
v 4.99829119 0.0890429746 2.3382268
v 5.03412032 -0.234224362 1.85392966
v 5.03331518 -0.234224362 2.34990146
v 0.652499285 0.0894455491 2.34225254
v 4.98218821 0.0926661452 1.9400806
v 4.99829119 0.0890429746 2.3382268
v 0.638409177 0.0894455491 1.90626434
v 5.00714783 0.0660962271 1.85916312
v 0.639616901 0.0548241407 1.86600689
v -7.79351407 -0.246301598 -2.40249071
v -6.09988308 -0.235432086 -2.40530873
v -6.13249162 0.0648885036 -2.40007526
v -7.79915012 0.0536164171 -2.39323149
v -6.14295856 0.087835251 -1.92101159
v -6.10109081 -0.235432086 -1.9097395
v -7.79431922 -0.246301598 -1.90571376
v -7.78344971 0.0882378255 -1.91698584
v -6.09988308 -0.235432086 -2.40530873
v -6.088611 0.0314748187 -2.28936727
v -6.13249162 0.0648885036 -2.40007526
v -6.16228213 0.0914584217 -2.31915778
v -6.08941614 0.0206053068 -1.92906308
v -6.14295856 0.087835251 -1.92101159
v -6.09988308 -0.235432086 -2.40530873
v -6.10109081 -0.235432086 -1.9097395
v -7.78344971 0.0882378255 -1.91698584
v -7.79431922 -0.246301598 -1.90571376
v -7.79351407 -0.246301598 -2.40249071
v -7.80076042 0.0882378255 -2.35297404
v -7.78344971 0.0882378255 -1.91698584
v -6.16228213 0.0914584217 -2.31915778
v -6.14295856 0.087835251 -1.92101159
v -7.80076042 0.0882378255 -2.35297404
v -6.13249162 0.0648885036 -2.40007526
v -7.79915012 0.0536164171 -2.39323149
v -7.79351407 -0.246301598 1.84386529
v -6.09988308 -0.235432086 1.84104727
v -6.13249162 0.0648885036 1.84587817
v -7.79915012 0.0536164171 1.85312451
v -6.14295856 0.087835251 2.32534441
v -6.10109081 -0.235432086 2.3366165
v -7.79431922 -0.246301598 2.34064225
v -7.78344971 0.0882378255 2.32937016
v -6.09988308 -0.235432086 1.84104727
v -6.088611 0.0314748187 1.95698873
v -6.13249162 0.0648885036 1.84587817
v -6.16228213 0.0914584217 1.92679564
v -6.08941614 0.0206053068 2.31689035
v -6.14295856 0.087835251 2.32534441
v -6.09988308 -0.235432086 1.84104727
v -6.10109081 -0.235432086 2.3366165
v -7.78344971 0.0882378255 2.32937016
v -7.79431922 -0.246301598 2.34064225
v -7.79351407 -0.246301598 1.84386529
v -7.80076042 0.0882378255 1.89338196
v -7.78344971 0.0882378255 2.32937016
v -6.16228213 0.0914584217 1.92679564
v -6.14295856 0.087835251 2.32534441
v -7.80076042 0.0882378255 1.89338196
v -6.13249162 0.0648885036 1.84587817
v -7.79915012 0.0536164171 1.85312451
v -9.22023816 0.152649748 1.98516895
v -9.22023816 0.0419417561 1.98516895
v -9.7298975 0.0363057129 1.74523454
v 0.187525718 0.0419417561 1.96826082
v -9.7298975 0.147013705 1.74523454
v -10.2476083 0.143793109 1.33943942
v -10.2476083 0.0330851168 1.33943942
v -10.7407621 0.140169938 0.568911798
v -10.7407621 0.0294619461 0.568911798
v -10.7826299 0.140169938 0.0310722442
v -10.7826299 0.0294619461 0.0310722442
v -10.7383467 0.140572513 -0.541791293
v -10.7383467 0.0298645206 -0.541791293
v -10.4694269 0.149831727 -1.19194914
v -10.4694269 0.0391237345 -1.19194914
v -9.83295658 0.140169938 -1.74146335
v -9.72063828 0.0294619461 -1.74146335
v -9.22023816 0.140169938 -1.97777459
v -9.22023816 0.0294619461 -1.97777459
v 0.187525718 0.140169938 -1.97777459
v 0.187525718 0.0294619461 -1.97777459
v 13.1206346 0.0294619461 -1.97777459
v 13.1206346 0.140169938 -1.97777459
v 13.6210348 0.0294619461 -1.74146335
v 0.187525718 0.181635113 -1.96046389
v -9.20574548 0.181635113 -1.96046389
v -9.84422866 0.181635113 -1.71167284
v -10.4641934 0.191296902 -1.17544358
v 13.6210348 0.140169938 -1.74146335
v 14.2220785 0.0294619461 -1.27850266
v 13.106142 0.181635113 -1.96046389
v 0.187525718 0.198945818 -1.91899871
v -9.17152664 0.198945818 -1.91899871
v 0.187525718 0.198945818 -0.747506871
v -9.8720063 0.198945818 -1.64041715
v -10.7202308 0.182037688 -0.547829911
v 14.2220785 0.140169938 -1.27850266
v 14.5940574 0.0294619461 -0.540986144
v 13.6327094 0.181635113 -1.71167284
v 13.0719231 0.198945818 -1.91899871
v 13.6600845 0.198945818 -1.64041715
v -10.4525188 0.208607606 -1.13599128
v -10.7653192 0.181635113 0.0310722442
v 14.5940574 0.140169938 -0.540986144
v 14.6834289 0.0294619461 0.0310722442
v 14.2172476 0.181635113 -1.2619971
v -10.1063047 0.198945818 -0.74026053
v -10.6759476 0.199348392 -0.562725168
v -10.7226463 0.181635113 0.574547842
v -10.7226463 0.198945818 0.0310722442
v -10.2439852 0.185258284 1.32293387
v -10.1747423 0.198945818 0.0310722442
v -10.6791682 0.198945818 0.588235375
v -9.74076701 0.18847888 1.71785947
v -10.2343234 0.202166414 1.28348157
v -10.1119407 0.198945818 0.76778361
v -9.76693435 0.204984435 1.6510321
v -9.20936865 0.193712349 1.96785824
v 0.187525718 0.198945818 0.0274490735
v 0.187525718 0.152649748 1.96826082
v 13.1206346 0.152649748 1.98516895
v 13.1206346 0.0419417561 1.98516895
v 13.630294 0.0363057129 1.74523454
v 0.187525718 0.211023053 1.90908236
v -9.18279873 0.210217904 1.92599049
v 0.187525718 0.194114923 1.95095011
v 13.1097651 0.193712349 1.96785824
v 0.187525718 0.198945818 0.76778361
v 13.0831952 0.210217904 1.92599049
v 13.6673308 0.204984435 1.6510321
v 13.6411635 0.18847888 1.71785947
v 13.630294 0.147013705 1.74523454
v 14.0123372 0.198945818 0.76778361
v 14.170549 0.143793109 1.35634755
v 14.170549 0.0330851168 1.35634755
v 14.1669258 0.185258284 1.339842
v 14.157264 0.202166414 1.29998712
v 14.0751388 0.198945818 0.0310722442
v 14.5795647 0.198945818 0.588235375
v 14.6411586 0.140169938 0.568911798
v 14.6411586 0.0294619461 0.568911798
v 14.6230427 0.181635113 0.574547842
v 14.0067012 0.198945818 -0.74026053
v 14.6230427 0.198945818 0.0310722442
v 14.6834289 0.140169938 0.0310722442
v 14.6657156 0.181635113 0.0310722442
v 14.5759415 0.181635113 -0.547427336
v 14.2051704 0.198945818 -1.2225448
v 14.5316583 0.198945818 -0.562322593
vt 0.736317053 0.783175541
vt 0.736317053 0.756817641
vt 0.733388397 0.762674953
vt 0.736317053 0.783175541
vt 0.736317053 0.756817641
vt 0.733388397 0.762674953
vt 0.365354021 0.793913945
vt 0.340948558 0.794890163
vt 0.338996121 0.799771256
vt 0.736317053 0.783175541
vt 0.736317053 0.756817641
vt 0.733388397 0.762674953
vt 0.365354021 0.793913945
vt 0.340948558 0.794890163
vt 0.338996121 0.799771256
vt 0.736317053 0.783175541
vt 0.736317053 0.756817641
vt 0.733388397 0.762674953
vt 0.887630921 0.712887809
vt 0.860296803 0.712887809
vt 0.860296803 0.677743943
vt 0.887630921 0.677743943
vt 0.695315876 0.284327885
vt 0.662124446 0.215992589
vt 0.696292094 0.216968808
vt 0.661148228 0.280423011
vt 0.690434783 0.349734524
vt 0.654314698 0.347782087
vt 0.657243354 0.389759483
vt 0.689458565 0.39171192
vt 0.691411002 0.438570409
vt 0.657243354 0.434665535
vt 0.654314698 0.484452678
vt 0.687506128 0.482500241
vt 0.686529909 0.523501419
vt 0.65333848 0.52935873
vt 0.0422256951 0.599646462
vt 0.0422256951 0.5488831
vt 0.0676073762 0.547906881
vt 0.0676073762 0.598670244
vt 0.0676073762 0.644552513
vt 0.0422256951 0.645528732
vt 0.0412494766 0.716792683
vt 0.0685835947 0.715816464
vt 0.0685835947 0.782199323
vt 0.0412494766 0.782199323
vt 0.030511073 0.602575118
vt 0.0314872915 0.652362261
vt 0.00610561035 0.65333848
vt 0.00610561035 0.603551336
vt 0.0314872915 0.547906881
vt 0.00512939185 0.5488831
vt 0.887630921 0.390735702
vt 0.86224924 0.426855786
vt 0.863225459 0.388783265
vt 0.887630921 0.427832005
vt 0.86224924 0.465904527
vt 0.887630921 0.466880745
vt 0.86224924 0.509834359
vt 0.887630921 0.509834359
vt 0.887630921 0.547906881
vt 0.861273022 0.547906881
vt 0.887630921 0.611361084
vt 0.861273022 0.610384866
vt 0.860296803 0.677743943
vt 0.887630921 0.677743943
vt 0.887630921 0.712887809
vt 0.887630921 0.677743943
vt 0.860296803 0.677743943
vt 0.860296803 0.712887809
vt 0.695315876 0.284327885
vt 0.696292094 0.216968808
vt 0.662124446 0.215992589
vt 0.661148228 0.280423011
vt 0.690434783 0.349734524
vt 0.654314698 0.347782087
vt 0.657243354 0.389759483
vt 0.689458565 0.39171192
vt 0.691411002 0.438570409
vt 0.657243354 0.434665535
vt 0.654314698 0.484452678
vt 0.687506128 0.482500241
vt 0.686529909 0.523501419
vt 0.65333848 0.531311167
vt 0.657243354 0.600622681
vt 0.693363439 0.597694025
vt 0.661148228 0.668957976
vt 0.696292094 0.667005539
vt 0.0422256951 0.599646462
vt 0.0676073762 0.547906881
vt 0.0422256951 0.5488831
vt 0.0676073762 0.598670244
vt 0.0676073762 0.644552513
vt 0.0422256951 0.645528732
vt 0.0412494766 0.716792683
vt 0.0685835947 0.715816464
vt 0.0685835947 0.782199323
vt 0.0412494766 0.782199323
vt 0.00708182886 0.794890163
vt 0.030511073 0.794890163
vt 0.030511073 0.725578649
vt 0.00610561035 0.727531086
vt 0.0314872915 0.654314698
vt 0.00610561035 0.656267135
vt 0.030511073 0.602575118
vt 0.00610561035 0.603551336
vt 0.0314872915 0.547906881
vt 0.00512939185 0.5488831
vt 0.887630921 0.250160237
vt 0.864201677 0.250160237
vt 0.863225459 0.317519314
vt 0.887630921 0.318495532
vt 0.887630921 0.390735702
vt 0.863225459 0.388783265
vt 0.86224924 0.426855786
vt 0.887630921 0.427832005
vt 0.86224924 0.465904527
vt 0.887630921 0.466880745
vt 0.86224924 0.509834359
vt 0.887630921 0.509834359
vt 0.887630921 0.547906881
vt 0.861273022 0.547906881
vt 0.887630921 0.611361084
vt 0.861273022 0.610384866
vt 0.860296803 0.677743943
vt 0.887630921 0.677743943
vt 0.60745621 0.216968808
vt 0.606479992 0.762674953
vt 0.643576295 0.763651171
vt 0.643576295 0.215992589
vt 0.0314872915 0.805628567
vt 0.00512939185 0.805628567
vt 0.00512939185 0.841748652
vt 0.0314872915 0.841748652
vt 0.824176718 0.776342012
vt 0.824176718 0.812462096
vt 0.847605963 0.812462096
vt 0.847605963 0.775365793
vt 0.787080415 0.76462739
vt 0.813438315 0.763651171
vt 0.813438315 0.215992589
vt 0.790985289 0.216968808
vt 0.850534618 0.765603608
vt 0.850534618 0.215992589
vt 0.824176718 0.217945026
vt 0.827105374 0.763651171
vt 0.133014016 0.828081592
vt 0.132037798 0.790985289
vt 0.104703679 0.790985289
vt 0.102751242 0.828081592
vt 0.613313521 0.811485878
vt 0.643576295 0.813438315
vt 0.643576295 0.774389575
vt 0.613313521 0.774389575
vt 0.708982935 0.746079238
vt 0.736317053 0.746079238
vt 0.736317053 0.215992589
vt 0.707030498 0.216968808
vt 0.596717807 0.745103019
vt 0.596717807 0.216968808
vt 0.556692848 0.215992589
vt 0.559621503 0.745103019
vt 0.77731823 0.748031675
vt 0.77731823 0.217945026
vt 0.748031675 0.215992589
vt 0.747055456 0.746079238
vt 0.168157882 0.890559577
vt 0.168157882 0.536192259
vt 0.14375242 0.539120915
vt 0.14375242 0.891535795
vt 0.466880745 0.772437138
vt 0.493238645 0.775365793
vt 0.493238645 0.420998475
vt 0.465904527 0.421974694
vt 0.360472928 0.802699911
vt 0.336067465 0.80367613
vt 0.33313881 0.808557222
vt 0.33313881 0.839796215
vt 0.360472928 0.840772433
vt 0.839796215 0.188658471
vt 0.818319407 0.178896286
vt 0.814414533 0.187682252
vt 0.811485878 0.180848723
vt 0.818319407 0.151562168
vt 0.811485878 0.151562168
vt 0.839796215 0.188658471
vt 0.839796215 0.149609731
vt 0.41806982 0.772437138
vt 0.448332594 0.422950912
vt 0.41806982 0.420998475
vt 0.449308812 0.773413356
vt 0.455166123 0.420998475
vt 0.455166123 0.773413356
vt 0.887630921 0.712887809
vt 0.860296803 0.712887809
vt 0.860296803 0.677743943
vt 0.887630921 0.677743943
vt 0.695315876 0.284327885
vt 0.662124446 0.215992589
vt 0.696292094 0.216968808
vt 0.661148228 0.280423011
vt 0.690434783 0.349734524
vt 0.654314698 0.347782087
vt 0.657243354 0.389759483
vt 0.689458565 0.39171192
vt 0.691411002 0.438570409
vt 0.657243354 0.434665535
vt 0.654314698 0.484452678
vt 0.687506128 0.482500241
vt 0.686529909 0.523501419
vt 0.65333848 0.52935873
vt 0.0422256951 0.599646462
vt 0.0422256951 0.5488831
vt 0.0676073762 0.547906881
vt 0.0676073762 0.598670244
vt 0.0676073762 0.644552513
vt 0.0422256951 0.645528732
vt 0.0412494766 0.716792683
vt 0.0685835947 0.715816464
vt 0.0685835947 0.782199323
vt 0.0412494766 0.782199323
vt 0.030511073 0.602575118
vt 0.0314872915 0.652362261
vt 0.00610561035 0.65333848
vt 0.00610561035 0.603551336
vt 0.0314872915 0.547906881
vt 0.00512939185 0.5488831
vt 0.887630921 0.390735702
vt 0.86224924 0.426855786
vt 0.863225459 0.388783265
vt 0.887630921 0.427832005
vt 0.86224924 0.465904527
vt 0.887630921 0.466880745
vt 0.86224924 0.509834359
vt 0.887630921 0.509834359
vt 0.887630921 0.547906881
vt 0.861273022 0.547906881
vt 0.887630921 0.611361084
vt 0.861273022 0.610384866
vt 0.860296803 0.677743943
vt 0.887630921 0.677743943
vt 0.887630921 0.712887809
vt 0.887630921 0.677743943
vt 0.860296803 0.677743943
vt 0.860296803 0.712887809
vt 0.695315876 0.284327885
vt 0.696292094 0.216968808
vt 0.662124446 0.215992589
vt 0.661148228 0.280423011
vt 0.690434783 0.349734524
vt 0.654314698 0.347782087
vt 0.657243354 0.389759483
vt 0.689458565 0.39171192
vt 0.691411002 0.438570409
vt 0.657243354 0.434665535
vt 0.654314698 0.484452678
vt 0.687506128 0.482500241
vt 0.686529909 0.523501419
vt 0.65333848 0.531311167
vt 0.657243354 0.600622681
vt 0.693363439 0.597694025
vt 0.661148228 0.668957976
vt 0.696292094 0.667005539
vt 0.0422256951 0.599646462
vt 0.0676073762 0.547906881
vt 0.0422256951 0.5488831
vt 0.0676073762 0.598670244
vt 0.0676073762 0.644552513
vt 0.0422256951 0.645528732
vt 0.0412494766 0.716792683
vt 0.0685835947 0.715816464
vt 0.0685835947 0.782199323
vt 0.0412494766 0.782199323
vt 0.00708182886 0.794890163
vt 0.030511073 0.794890163
vt 0.030511073 0.725578649
vt 0.00610561035 0.727531086
vt 0.0314872915 0.654314698
vt 0.00610561035 0.656267135
vt 0.030511073 0.602575118
vt 0.00610561035 0.603551336
vt 0.0314872915 0.547906881
vt 0.00512939185 0.5488831
vt 0.887630921 0.250160237
vt 0.864201677 0.250160237
vt 0.863225459 0.317519314
vt 0.887630921 0.318495532
vt 0.887630921 0.390735702
vt 0.863225459 0.388783265
vt 0.86224924 0.426855786
vt 0.887630921 0.427832005
vt 0.86224924 0.465904527
vt 0.887630921 0.466880745
vt 0.86224924 0.509834359
vt 0.887630921 0.509834359
vt 0.887630921 0.547906881
vt 0.861273022 0.547906881
vt 0.887630921 0.611361084
vt 0.861273022 0.610384866
vt 0.860296803 0.677743943
vt 0.887630921 0.677743943
vt 0.60745621 0.216968808
vt 0.606479992 0.762674953
vt 0.643576295 0.763651171
vt 0.643576295 0.215992589
vt 0.0314872915 0.805628567
vt 0.00512939185 0.805628567
vt 0.00512939185 0.841748652
vt 0.0314872915 0.841748652
vt 0.824176718 0.776342012
vt 0.824176718 0.812462096
vt 0.847605963 0.812462096
vt 0.847605963 0.775365793
vt 0.787080415 0.76462739
vt 0.813438315 0.763651171
vt 0.813438315 0.215992589
vt 0.790985289 0.216968808
vt 0.850534618 0.765603608
vt 0.850534618 0.215992589
vt 0.824176718 0.217945026
vt 0.827105374 0.763651171
vt 0.133014016 0.828081592
vt 0.132037798 0.790985289
vt 0.104703679 0.790985289
vt 0.102751242 0.828081592
vt 0.613313521 0.811485878
vt 0.643576295 0.813438315
vt 0.643576295 0.774389575
vt 0.613313521 0.774389575
vt 0.708982935 0.746079238
vt 0.736317053 0.746079238
vt 0.736317053 0.215992589
vt 0.707030498 0.216968808
vt 0.596717807 0.745103019
vt 0.596717807 0.216968808
vt 0.556692848 0.215992589
vt 0.559621503 0.745103019
vt 0.77731823 0.748031675
vt 0.77731823 0.217945026
vt 0.748031675 0.215992589
vt 0.747055456 0.746079238
vt 0.168157882 0.890559577
vt 0.168157882 0.536192259
vt 0.14375242 0.539120915
vt 0.14375242 0.891535795
vt 0.466880745 0.772437138
vt 0.493238645 0.775365793
vt 0.493238645 0.420998475
vt 0.465904527 0.421974694
vt 0.360472928 0.802699911
vt 0.336067465 0.80367613
vt 0.33313881 0.808557222
vt 0.33313881 0.839796215
vt 0.360472928 0.840772433
vt 0.839796215 0.188658471
vt 0.818319407 0.178896286
vt 0.814414533 0.187682252
vt 0.811485878 0.180848723
vt 0.818319407 0.151562168
vt 0.811485878 0.151562168
vt 0.839796215 0.188658471
vt 0.839796215 0.149609731
vt 0.41806982 0.772437138
vt 0.448332594 0.422950912
vt 0.41806982 0.420998475
vt 0.449308812 0.773413356
vt 0.455166123 0.420998475
vt 0.455166123 0.773413356
vt 0.169134101 0.650409824
vt 0.168157882 0.536192259
vt 0.14375242 0.539120915
vt 0.144728638 0.650409824
vt 0.466880745 0.772437138
vt 0.493238645 0.775365793
vt 0.493238645 0.661148228
vt 0.465904527 0.662124446
vt 0.839796215 0.188658471
vt 0.818319407 0.178896286
vt 0.814414533 0.187682252
vt 0.811485878 0.180848723
vt 0.818319407 0.151562168
vt 0.811485878 0.151562168
vt 0.839796215 0.188658471
vt 0.839796215 0.149609731
vt 0.332162591 0.844677307
vt 0.35949671 0.845653526
vt 0.35949671 0.807581004
vt 0.332162591 0.813438315
vt 0.41806982 0.531311167
vt 0.448332594 0.422950912
vt 0.41806982 0.420998475
vt 0.450285031 0.532287385
vt 0.455166123 0.420998475
vt 0.455166123 0.532287385
vt 0.169134101 0.650409824
vt 0.168157882 0.536192259
vt 0.14375242 0.539120915
vt 0.144728638 0.650409824
vt 0.466880745 0.772437138
vt 0.493238645 0.775365793
vt 0.493238645 0.661148228
vt 0.465904527 0.662124446
vt 0.839796215 0.188658471
vt 0.818319407 0.178896286
vt 0.814414533 0.187682252
vt 0.811485878 0.180848723
vt 0.818319407 0.151562168
vt 0.811485878 0.151562168
vt 0.839796215 0.188658471
vt 0.839796215 0.149609731
vt 0.332162591 0.844677307
vt 0.35949671 0.845653526
vt 0.35949671 0.807581004
vt 0.332162591 0.813438315
vt 0.41806982 0.531311167
vt 0.448332594 0.422950912
vt 0.41806982 0.420998475
vt 0.450285031 0.532287385
vt 0.455166123 0.420998475
vt 0.455166123 0.532287385
vt 0.157419479 0.0588214097
vt 0.161324353 0.0578451912
vt 0.152538386 0.0383208211
vt 0.168157882 0.501048393
vt 0.149609731 0.0412494766
vt 0.134966453 0.0236775435
vt 0.137895109 0.0207488879
vt 0.109584772 0.00805804736
vt 0.11056099 0.00415317334
vt 0.0812744353 0.00512939185
vt 0.0812744353 0.00122451782
vt 0.0529640986 0.00805804736
vt 0.0519878801 0.00415317334
vt 0.03246351 0.0187964509
vt 0.0295348545 0.0158677954
vt 0.0148915769 0.0392970396
vt 0.00903426587 0.0392970396
vt 0.00610561035 0.0597976282
vt 0.00220073633 0.0588214097
vt 0.00512939185 0.502024611
vt 0.00122451782 0.502024611
vt 0.00903426587 0.942299158
vt 0.0129391399 0.941322939
vt 0.0178202324 0.960847309
vt 0.00708182886 0.502024611
vt 0.00708182886 0.0597976282
vt 0.0158677954 0.0392970396
vt 0.0334397285 0.0197726694
vt 0.0207488879 0.958894872
vt 0.034415947 0.981347898
vt 0.0139153584 0.941322939
vt 0.00805804736 0.502024611
vt 0.00903426587 0.0617500652
vt 0.0490592246 0.502024611
vt 0.0187964509 0.0383208211
vt 0.0529640986 0.0100104844
vt 0.036368384 0.978419242
vt 0.0597976282 0.995014957
vt 0.022701325 0.958894872
vt 0.0158677954 0.939370502
vt 0.024653762 0.959871091
vt 0.034415947 0.0197726694
vt 0.0812744353 0.00708182886
vt 0.0607738467 0.991110083
vt 0.0890841834 0.998919831
vt 0.0383208211 0.977443024
vt 0.0471067876 0.030511073
vt 0.0519878801 0.0109867029
vt 0.109584772 0.0100104844
vt 0.0812744353 0.00805804736
vt 0.133990235 0.024653762
vt 0.0812744353 0.026606199
vt 0.109584772 0.0109867029
vt 0.147657294 0.0412494766
vt 0.133014016 0.024653762
vt 0.115442083 0.0295348545
vt 0.144728638 0.0402732581
vt 0.15644326 0.0588214097
vt 0.0851793093 0.501048393
vt 0.164253008 0.501048393
vt 0.164253008 0.940346721
vt 0.168157882 0.941322939
vt 0.160348134 0.959871091
vt 0.161324353 0.501048393
vt 0.154490823 0.0597976282
vt 0.16327679 0.501048393
vt 0.16327679 0.939370502
vt 0.121299394 0.501048393
vt 0.161324353 0.939370502
vt 0.152538386 0.958894872
vt 0.154490823 0.957918654
vt 0.15644326 0.957918654
vt 0.123251831 0.970609494
vt 0.142776201 0.976466805
vt 0.145704857 0.979395461
vt 0.141799983 0.975490587
vt 0.140823764 0.974514368
vt 0.0890841834 0.97353815
vt 0.118370739 0.988181427
vt 0.11739452 0.992086301
vt 0.119346957 0.995014957
vt 0.11739452 0.990133864
vt 0.0549165357 0.970609494
vt 0.0890841834 0.992086301
vt 0.0890841834 0.995014957
vt 0.0890841834 0.99306252
vt 0.0607738467 0.989157646
vt 0.0392970396 0.977443024
vt 0.0607738467 0.988181427
vn 0.270586171 0.066666158 0.960384687
vn 0.270586171 0.066666158 0.960384687
vn 0.270586171 0.066666158 0.960384687
vn 0.270586171 0.066666158 0.960384687
vn 0.270586171 0.066666158 0.960384687
vn 0.270586171 0.066666158 0.960384687
vn -0.999992311 0.00392153847 -0
vn -0.999807822 -0.0196040749 -0
vn -0.999992311 -0.00392153847 -0
vn 0.231370784 0.066666158 0.970578788
vn 0.231370784 0.066666158 0.970578788
vn 0.231370784 0.066666158 0.970578788
vn -0.999992311 0.00392153847 -0
vn -0.999807822 -0.0196040749 -0
vn -0.999992311 -0.00392153847 -0
vn 0.231370784 0.066666158 0.970578788
vn 0.231370784 0.066666158 0.970578788
vn 0.231370784 0.066666158 0.970578788
vn -0.999992311 0.00392153847 -0
vn -0.999992311 0.00392153847 -0
vn -0.999992311 0.00392153847 -0
vn -0.999992311 0.00392153847 -0
vn 0.00392153847 0.999992311 -0
vn 0.00392153847 0.999992311 -0
vn 0.00392153847 0.999992311 -0
vn 0.00392153847 0.999992311 -0
vn -0.00392153847 0.999992311 -0
vn -0.00392153847 0.999992311 -0
vn -0.00392153847 0.999992311 -0
vn -0.00392153847 0.999992311 -0
vn -0.00392153847 0.999992311 -0
vn -0.00392153847 0.999992311 -0
vn -0.00392153847 0.999992311 -0
vn -0.00392153847 0.999992311 -0
vn -0.00392153847 0.999992311 -0
vn -0.00392153847 0.999992311 -0
vn 0.450976951 -0.00392153871 0.89252698
vn 0.639210809 -0.00392153871 0.769021562
vn 0.647053887 -0.00392153871 0.762434187
vn 0.458820029 -0.00392153871 0.88852057
vn 0.215684629 -0.00392153871 0.976455202
vn 0.207841552 -0.00392153871 0.978154646
vn 0.0352938484 -0.00392153871 0.999369284
vn 0.0352938484 -0.00392153871 0.999369284
vn -0.00392153871 -0.00392153871 0.999984621
vn -0.00392153871 -0.00392153871 0.999984621
vn 0.827444667 -0.00392153871 0.561533564
vn 0.913718519 -0.00392153871 0.406328795
vn 0.913718519 -0.00392153871 0.406328795
vn 0.827444667 -0.00392153871 0.561533564
vn 0.639210809 -0.00392153871 0.769021562
vn 0.647053887 -0.00392153871 0.762434187
vn -0.882346209 0.0117646161 -0.470453782
vn -0.78822928 0.0117646161 -0.615269206
vn -0.882346209 0.0117646161 -0.470453782
vn -0.780386203 0.0117646161 -0.625187146
vn -0.631367732 0.00392153871 -0.775473667
vn -0.631367732 0.00392153871 -0.775473667
vn -0.482349261 -0.00392153871 -0.875970212
vn -0.474506184 -0.00392153871 -0.880243434
vn -0.215684629 0.00392153871 -0.976455202
vn -0.215684629 0.00392153871 -0.976455202
vn -0.027450771 0.00392153871 -0.999615464
vn -0.0352938484 0.00392153871 -0.999369284
vn 0.00392153871 0.00392153871 -0.999984621
vn 0.00392153871 0.00392153871 -0.999984621
vn -0.999992311 0.00392153847 -0
vn -0.999992311 0.00392153847 -0
vn -0.999992311 0.00392153847 -0
vn -0.999992311 0.00392153847 -0
vn 0.00392153847 0.999992311 -0
vn 0.00392153847 0.999992311 -0
vn 0.00392153847 0.999992311 -0
vn 0.00392153847 0.999992311 -0
vn -0.00392153847 0.999992311 -0
vn -0.00392153847 0.999992311 -0
vn -0.00392153847 0.999992311 -0
vn -0.00392153847 0.999992311 -0
vn -0.00392153847 0.999992311 -0
vn -0.00392153847 0.999992311 -0
vn -0.00392153847 0.999992311 -0
vn -0.00392153847 0.999992311 -0
vn -0.00392153847 0.999992311 -0
vn -0.00392153847 0.999992311 -0
vn -0.00392153847 0.999992311 -0
vn -0.00392153847 0.999992311 -0
vn -0.00392153847 0.999992311 -0
vn -0.00392153847 0.999992311 -0
vn 0.450976951 -0.00392153871 -0.89252698
vn 0.662740042 -0.00392153871 -0.748839274
vn 0.662740042 -0.00392153871 -0.748839274
vn 0.458820029 -0.00392153871 -0.88852057
vn 0.215684629 -0.00392153871 -0.976455202
vn 0.207841552 -0.00392153871 -0.978154646
vn 0.0352938484 -0.00392153871 -0.999369284
vn 0.0352938484 -0.00392153871 -0.999369284
vn -0.00392153871 -0.00392153871 -0.999984621
vn -0.00392153871 -0.00392153871 -0.999984621
vn 0.999992311 0.00392153847 -0
vn 0.999992311 0.00392153847 -0
vn 0.999992311 -0.00392153847 -0
vn 0.999992311 -0.00392153847 -0
vn 0.960776984 -0.0117646161 -0.277072521
vn 0.960776984 -0.0117646161 -0.277072521
vn 0.843130822 -0.00392153871 -0.537694186
vn 0.8509739 -0.0117646161 -0.5250762
vn 0.662740042 -0.00392153871 -0.748839274
vn 0.662740042 -0.00392153871 -0.748839274
vn -0.999992311 0.00392153847 -0
vn -0.999992311 0.00392153847 -0
vn -0.999992311 0.00392153847 -0
vn -0.999992311 0.00392153847 -0
vn -0.960776984 0.00392153871 0.277294445
vn -0.960776984 0.00392153871 0.277294445
vn -0.835287745 0.00392153871 0.549799059
vn -0.827444667 0.00392153871 0.561533564
vn -0.654896964 0.00392153871 0.755708004
vn -0.654896964 0.00392153871 0.755708004
vn -0.482349261 -0.00392153871 0.875970212
vn -0.474506184 -0.00392153871 0.880243434
vn -0.215684629 0.00392153871 0.976455202
vn -0.215684629 0.00392153871 0.976455202
vn -0.027450771 0.00392153871 0.999615464
vn -0.0352938484 0.00392153871 0.999369284
vn 0.00392153871 0.00392153871 0.999984621
vn 0.00392153871 0.00392153871 0.999984621
vn 0.00392153847 0.999992311 -0
vn 0.00392153847 0.999992311 -0
vn 0.00392153847 0.999992311 -0
vn 0.00392153847 0.999992311 -0
vn -0.999992311 0.00392153847 -0
vn -0.999992311 0.00392153847 -0
vn -0.999992311 0.00392153847 -0
vn -0.999992311 0.00392153847 -0
vn 0.999992311 0.00392153847 -0
vn 0.999992311 0.00392153847 -0
vn 0.999992311 0.00392153847 -0
vn 0.999992311 0.00392153847 -0
vn -0.00392153871 -0.0117646161 -0.999923105
vn -0.00392153871 -0.0117646161 -0.999923105
vn -0.00392153871 -0.0117646161 -0.999923105
vn -0.00392153871 -0.0117646161 -0.999923105
vn -0.00392153871 0.00392153871 0.999984621
vn -0.00392153871 0.00392153871 0.999984621
vn -0.00392153871 0.00392153871 0.999984621
vn -0.00392153871 0.00392153871 0.999984621
vn -0.999377744 -0.0352721557 -0
vn -0.999377744 -0.0352721557 -0
vn -0.999377744 -0.0352721557 -0
vn -0.999377744 -0.0352721557 -0
vn 0.999070885 0.0430971754 -0
vn 0.999070885 0.0430971754 -0
vn 0.999070885 0.0430971754 -0
vn 0.999070885 0.0430971754 -0
vn -0.00392153871 0.00392153871 -0.999984621
vn -0.00392153871 0.00392153871 -0.999984621
vn -0.00392153871 0.00392153871 -0.999984621
vn -0.00392153871 0.00392153871 -0.999984621
vn -0.00392153847 0.999992311 -0
vn -0.00392153847 0.999992311 -0
vn -0.00392153847 0.999992311 -0
vn -0.00392153847 0.999992311 -0
vn -0.00392153871 0.00392153871 0.999984621
vn -0.00392153871 0.00392153871 0.999984621
vn -0.00392153871 0.00392153871 0.999984621
vn -0.00392153871 0.00392153871 0.999984621
vn -0.00392153871 0.027450771 -0.999615464
vn -0.00392153871 0.027450771 -0.999615464
vn -0.00392153871 0.027450771 -0.999615464
vn -0.00392153871 0.027450771 -0.999615464
vn 0.00392153871 0.0352938484 0.999369284
vn 0.00392153871 0.0352938484 0.999369284
vn 0.00392153871 0.0352938484 0.999369284
vn 0.00392153871 0.0352938484 0.999369284
vn -0.999992311 0.00392153847 -0
vn -0.999930803 -0.0117638918 -0
vn -0.999992311 -0.00392153847 -0
vn -0.999992311 0.00392153847 -0
vn -0.999992311 0.00392153847 -0
vn 0.952933906 0.0901953903 -0.289450794
vn 0.945090829 0.325487713 -0.0293440684
vn 0.913718519 0.356860022 -0.194343491
vn 0.733327738 0.678426197 -0.0443657964
vn 0.945090829 0.317644635 -0.0768453717
vn 0.764700048 0.639210809 -0.0815069169
vn 0.999377744 -0.0352721557 -0
vn 0.999377744 -0.0352721557 -0
vn -0.00392153847 0.999992311 -0
vn -0.00392153871 0.968620061 -0.248515189
vn -0.00392153847 0.999992311 -0
vn -0.00392153871 0.976463138 -0.215648698
vn -0.00392153871 0.898032364 -0.439911917
vn -0.00392153871 0.898032364 -0.439911917
vn 0.999992311 0.00392153847 -0
vn 0.999992311 0.00392153847 -0
vn 0.999992311 0.00392153847 -0
vn 0.999992311 0.00392153847 -0
vn -0.00392153847 0.999992311 -0
vn -0.00392153847 0.999992311 -0
vn -0.00392153847 0.999992311 -0
vn -0.00392153847 0.999992311 -0
vn -0.00392153847 0.999992311 -0
vn -0.00392153847 0.999992311 -0
vn -0.00392153847 0.999992311 -0
vn -0.00392153847 0.999992311 -0
vn -0.00392153847 0.999992311 -0
vn -0.00392153847 0.999992311 -0
vn 0.00392153847 0.999992311 -0
vn 0.00392153847 0.999992311 -0
vn 0.00392153847 0.999992311 -0
vn 0.00392153847 0.999992311 -0
vn -0.450976951 -0.00392153871 -0.89252698
vn -0.639210809 -0.00392153871 -0.769021562
vn -0.647053887 -0.00392153871 -0.762434187
vn -0.458820029 -0.00392153871 -0.88852057
vn -0.215684629 -0.00392153871 -0.976455202
vn -0.207841552 -0.00392153871 -0.978154646
vn -0.0352938484 -0.00392153871 -0.999369284
vn -0.0352938484 -0.00392153871 -0.999369284
vn 0.00392153871 -0.00392153871 -0.999984621
vn 0.00392153871 -0.00392153871 -0.999984621
vn -0.8509739 -0.00392153871 -0.525193339
vn -0.952933906 0.00392153871 -0.303152754
vn -0.952933906 0.00392153871 -0.303152754
vn -0.858816977 -0.00392153871 -0.512267529
vn -0.639210809 -0.00392153871 -0.769021562
vn -0.647053887 -0.00392153871 -0.762434187
vn 0.929404674 0.0745092355 0.361462759
vn 0.827444667 0.0431369258 0.55988796
vn 0.929404674 0.0745092355 0.361462759
vn 0.81960159 0.0431369258 0.571307657
vn 0.631367732 0.00392153871 0.775473667
vn 0.631367732 0.00392153871 0.775473667
vn 0.482349261 -0.00392153871 0.875970212
vn 0.474506184 -0.00392153871 0.880243434
vn 0.215684629 0.00392153871 0.976455202
vn 0.215684629 0.00392153871 0.976455202
vn 0.027450771 0.00392153871 0.999615464
vn 0.027450771 0.00392153871 0.999615464
vn -0.00392153871 0.00392153871 0.999984621
vn -0.00392153871 0.00392153871 0.999984621
vn 0.999992311 0.00392153847 -0
vn 0.999992311 0.00392153847 -0
vn 0.999992311 0.00392153847 -0
vn 0.999992311 0.00392153847 -0
vn -0.00392153847 0.999992311 -0
vn -0.00392153847 0.999992311 -0
vn -0.00392153847 0.999992311 -0
vn -0.00392153847 0.999992311 -0
vn -0.00392153847 0.999992311 -0
vn -0.00392153847 0.999992311 -0
vn -0.00392153847 0.999992311 -0
vn -0.00392153847 0.999992311 -0
vn -0.00392153847 0.999992311 -0
vn -0.00392153847 0.999992311 -0
vn -0.00392153847 0.999992311 -0
vn -0.00392153847 0.999992311 -0
vn -0.00392153847 0.999992311 -0
vn -0.00392153847 0.999992311 -0
vn -0.00392153847 0.999992311 -0
vn -0.00392153847 0.999992311 -0
vn -0.00392153847 0.999992311 -0
vn -0.00392153847 0.999992311 -0
vn -0.450976951 -0.00392153871 0.89252698
vn -0.662740042 -0.00392153871 0.748839274
vn -0.662740042 -0.00392153871 0.748839274
vn -0.458820029 -0.00392153871 0.88852057
vn -0.215684629 -0.00392153871 0.976455202
vn -0.207841552 -0.00392153871 0.978154646
vn -0.0352938484 -0.00392153871 0.999369284
vn -0.0352938484 -0.00392153871 0.999369284
vn 0.00392153871 -0.00392153871 0.999984621
vn 0.00392153871 -0.00392153871 0.999984621
vn -0.984306216 0.00392153871 -0.176425325
vn -0.984306216 0.00392153871 -0.176425325
vn -0.999992311 -0.00392153847 -0
vn -0.999992311 -0.00392153847 -0
vn -0.960776984 -0.0117646161 0.277072521
vn -0.960776984 -0.0117646161 0.277072521
vn -0.843130822 -0.00392153871 0.537694186
vn -0.8509739 -0.0117646161 0.5250762
vn -0.662740042 -0.00392153871 0.748839274
vn -0.662740042 -0.00392153871 0.748839274
vn 0.992149293 0.0745092355 0.100439802
vn 0.992149293 0.0745092355 0.100439802
vn 0.999070885 0.0430971754 -0
vn 0.999377744 0.0352721557 -0
vn 0.960776984 0.00392153871 -0.277294445
vn 0.960776984 0.00392153871 -0.277294445
vn 0.835287745 0.00392153871 -0.549799059
vn 0.827444667 0.00392153871 -0.561533564
vn 0.654896964 0.00392153871 -0.755708004
vn 0.654896964 0.00392153871 -0.755708004
vn 0.482349261 -0.00392153871 -0.875970212
vn 0.474506184 -0.00392153871 -0.880243434
vn 0.215684629 0.00392153871 -0.976455202
vn 0.215684629 0.00392153871 -0.976455202
vn 0.027450771 0.00392153871 -0.999615464
vn 0.027450771 0.00392153871 -0.999615464
vn -0.00392153871 0.00392153871 -0.999984621
vn -0.00392153871 0.00392153871 -0.999984621
vn 0.00392153847 0.999992311 -0
vn 0.00392153847 0.999992311 -0
vn 0.00392153847 0.999992311 -0
vn 0.00392153847 0.999992311 -0
vn -0.999992311 0.00392153847 -0
vn -0.999992311 0.00392153847 -0
vn -0.999992311 0.00392153847 -0
vn -0.999992311 0.00392153847 -0
vn 0.999992311 0.00392153847 -0
vn 0.999992311 0.00392153847 -0
vn 0.999992311 0.00392153847 -0
vn 0.999992311 0.00392153847 -0
vn -0.00392153871 -0.0117646161 -0.999923105
vn -0.00392153871 -0.0117646161 -0.999923105
vn -0.00392153871 -0.0117646161 -0.999923105
vn -0.00392153871 -0.0117646161 -0.999923105
vn -0.00392153871 0.00392153871 0.999984621
vn -0.00392153871 0.00392153871 0.999984621
vn -0.00392153871 0.00392153871 0.999984621
vn -0.00392153871 0.00392153871 0.999984621
vn -0.999377744 -0.0352721557 -0
vn -0.999377744 -0.0352721557 -0
vn -0.999377744 -0.0352721557 -0
vn -0.999377744 -0.0352721557 -0
vn 0.999070885 0.0430971754 -0
vn 0.999070885 0.0430971754 -0
vn 0.999070885 0.0430971754 -0
vn 0.999070885 0.0430971754 -0
vn -0.00392153871 0.00392153871 -0.999984621
vn -0.00392153871 0.00392153871 -0.999984621
vn -0.00392153871 0.00392153871 -0.999984621
vn -0.00392153871 0.00392153871 -0.999984621
vn -0.00392153847 0.999992311 -0
vn -0.00392153847 0.999992311 -0
vn -0.00392153847 0.999992311 -0
vn -0.00392153847 0.999992311 -0
vn -0.00392153871 0.00392153871 0.999984621
vn -0.00392153871 0.00392153871 0.999984621
vn -0.00392153871 0.00392153871 0.999984621
vn -0.00392153871 0.00392153871 0.999984621
vn -0.00392153871 0.027450771 -0.999615464
vn -0.00392153871 0.027450771 -0.999615464
vn -0.00392153871 0.027450771 -0.999615464
vn -0.00392153871 0.027450771 -0.999615464
vn 0.00392153871 0.0352938484 0.999369284
vn 0.00392153871 0.0352938484 0.999369284
vn 0.00392153871 0.0352938484 0.999369284
vn 0.00392153871 0.0352938484 0.999369284
vn -0.999992311 0.00392153847 -0
vn -0.999930803 -0.0117638918 -0
vn -0.999992311 -0.00392153847 -0
vn -0.999992311 0.00392153847 -0
vn -0.999992311 0.00392153847 -0
vn 0.952933906 0.0901953903 -0.289450794
vn 0.945090829 0.325487713 -0.0293440684
vn 0.913718519 0.356860022 -0.194343491
vn 0.733327738 0.678426197 -0.0443657964
vn 0.945090829 0.317644635 -0.0768453717
vn 0.764700048 0.639210809 -0.0815069169
vn 0.999377744 -0.0352721557 -0
vn 0.999377744 -0.0352721557 -0
vn -0.00392153847 0.999992311 -0
vn -0.00392153871 0.968620061 -0.248515189
vn -0.00392153847 0.999992311 -0
vn -0.00392153871 0.976463138 -0.215648698
vn -0.00392153871 0.898032364 -0.439911917
vn -0.00392153871 0.898032364 -0.439911917
vn -0.00392153871 0.027450771 -0.999615464
vn -0.00392153871 0.027450771 -0.999615464
vn -0.00392153871 0.027450771 -0.999615464
vn -0.00392153871 0.027450771 -0.999615464
vn 0.00392153871 0.0352938484 0.999369284
vn 0.00392153871 0.0352938484 0.999369284
vn 0.00392153871 0.0352938484 0.999369284
vn 0.00392153871 0.0352938484 0.999369284
vn 0.937247751 0.105881545 -0.332198361
vn 0.929404674 0.3647031 -0.056556177
vn 0.882346209 0.419604642 -0.213065979
vn 0.670583119 0.741170816 -0.0313704013
vn 0.929404674 0.356860022 -0.0941162929
vn 0.707106781 0.707106781 -0
vn 0.999070885 -0.0430971754 -0
vn 0.999070885 -0.0430971754 -0
vn -0.999992311 0.00392153847 -0
vn -0.999992311 0.00392153847 -0
vn -0.999992311 0.00392153847 -0
vn -0.999992311 -0.00392153847 -0
vn -0.00392153847 0.999992311 -0
vn -0.00392153871 0.968620061 -0.248515189
vn -0.00392153847 0.999992311 -0
vn -0.00392153871 0.976463138 -0.215648698
vn -0.00392153871 0.890189287 -0.455573984
vn -0.00392153871 0.890189287 -0.455573984
vn -0.00392153871 0.027450771 -0.999615464
vn -0.00392153871 0.027450771 -0.999615464
vn -0.00392153871 0.027450771 -0.999615464
vn -0.00392153871 0.027450771 -0.999615464
vn 0.00392153871 0.0352938484 0.999369284
vn 0.00392153871 0.0352938484 0.999369284
vn 0.00392153871 0.0352938484 0.999369284
vn 0.00392153871 0.0352938484 0.999369284
vn 0.937247751 0.105881545 -0.332198361
vn 0.929404674 0.3647031 -0.056556177
vn 0.882346209 0.419604642 -0.213065979
vn 0.670583119 0.741170816 -0.0313704013
vn 0.929404674 0.356860022 -0.0941162929
vn 0.707106781 0.707106781 -0
vn 0.999070885 -0.0430971754 -0
vn 0.999070885 -0.0430971754 -0
vn -0.999992311 0.00392153847 -0
vn -0.999992311 0.00392153847 -0
vn -0.999992311 0.00392153847 -0
vn -0.999992311 -0.00392153847 -0
vn -0.00392153847 0.999992311 -0
vn -0.00392153871 0.968620061 -0.248515189
vn -0.00392153847 0.999992311 -0
vn -0.00392153871 0.976463138 -0.215648698
vn -0.00392153871 0.890189287 -0.455573984
vn -0.00392153871 0.890189287 -0.455573984
vn -0.223527706 0.215684629 0.950534326
vn -0.215684629 0.00392153871 0.976455202
vn -0.521564648 0.00392153871 0.853202754
vn 0.00392153871 0.00392153871 0.999984621
vn -0.498035416 0.207841552 0.841880404
vn -0.725484661 0.160783087 0.669194146
vn -0.741170816 0.00392153871 0.67130503
vn -0.937247751 0.176469242 0.30070793
vn -0.945090829 0.00392153871 0.326784252
vn -0.976463138 0.199998474 0.0807486828
vn -0.999992311 0.00392153847 -0
vn -0.960776984 0.176469242 -0.21393035
vn -0.976463138 0.00392153871 -0.215648698
vn -0.796072358 0.0901953903 -0.598442639
vn -0.796072358 -0.160783087 -0.583453169
vn -0.513721571 0.0823523129 -0.853995459
vn -0.450976951 -0.231370784 -0.862025144
vn -0.199998474 0.168626164 -0.965176578
vn -0.199998474 -0.0980384677 -0.974879002
vn -0.00392153871 0.192155397 -0.981356676
vn -0.00392153871 0.00392153871 -0.999984621
vn 0.215684629 0.00392153871 -0.976455202
vn 0.223527706 0.215684629 -0.950534326
vn 0.521564648 0.00392153871 -0.853202754
vn -0.00392153871 0.709798506 -0.704393854
vn -0.1215677 0.725484661 -0.677416638
vn -0.372546177 0.709798506 -0.597825582
vn -0.623524655 0.639210809 -0.450140585
vn 0.498035416 0.215684629 -0.839905272
vn 0.772543126 0.00392153871 -0.634950188
vn 0.145096932 0.717641584 -0.681129531
vn -0.00392153871 0.984306216 -0.176425325
vn -0.0196076935 0.976463138 -0.214791242
vn -0.00392153847 0.999992311 -0
vn -0.1215677 0.976463138 -0.178160135
vn -0.733327738 0.662740042 -0.151677504
vn 0.749013893 0.168626164 -0.640736611
vn 0.952933906 0.00392153871 -0.303152754
vn 0.372546177 0.717641584 -0.588387545
vn 0.027450771 0.976463138 -0.21393035
vn 0.1215677 0.976463138 -0.178160135
vn -0.231370784 0.968620061 -0.0907895256
vn -0.709798506 0.701955429 0.0586911971
vn 0.937247751 0.176469242 -0.30070793
vn 0.999992311 0.00392153847 -0
vn 0.592152345 0.647053887 -0.480288317
vn 0.00392153847 0.999992311 -0
vn -0.239213861 0.968620061 -0.0674678157
vn -0.717641584 0.654896964 0.236855491
vn -0.199998474 0.976463138 0.0807486828
vn -0.57646619 0.631367732 0.518711402
vn 0.00392153847 0.999992311 -0
vn -0.239213861 0.960776984 0.140300807
vn -0.380389255 0.709798506 0.592866001
vn -0.207841552 0.960776984 0.183601409
vn 0.00392153847 0.999992311 -0
vn -0.129410777 0.976463138 0.172547356
vn -0.15294001 0.717641584 0.679411445
vn -0.00392153847 0.999992311 -0
vn 0.00392153871 0.199998474 0.979788361
vn 0.223527706 0.215684629 0.950534326
vn 0.215684629 0.00392153871 0.976455202
vn 0.505878493 0.00392153871 0.862595833
vn 0.00392153871 0.984306216 0.176425325
vn -0.0352938484 0.984306216 0.172903493
vn 0.00392153871 0.709798506 0.704393854
vn 0.15294001 0.717641584 0.679411445
vn -0.00392153847 0.999992311 -0
vn 0.0352938484 0.984306216 0.172903493
vn 0.1215677 0.976463138 0.178160135
vn 0.3647031 0.709798506 0.60264229
vn 0.490192339 0.207841552 0.846471122
vn -0.00392153847 0.999992311 -0
vn 0.717641584 0.160783087 0.677598226
vn 0.733327738 0.00392153871 0.679863993
vn 0.568623113 0.639210809 0.517761815
vn 0.215684629 0.960776984 0.174320764
vn -0.00392153847 0.999992311 -0
vn 0.247056939 0.960776984 0.125978002
vn 0.945090829 0.176469242 0.275067141
vn 0.952933906 0.00392153871 0.303152754
vn 0.717641584 0.654896964 0.236855491
vn -0.00392153847 0.999992311 -0
vn 0.207841552 0.976463138 -0.0576335743
vn 0.976463138 0.192155397 -0.0979593944
vn 0.717641584 0.694112351 -0.056556177
vn 0.717641584 0.654896964 -0.236855491
vn 0.215684629 0.960776984 -0.174320764
vn 0.239213861 0.968620061 -0.0674678157
g O_build_road_A_06_0
f 3/3/3 2/2/2 1/1/1
f 6/6/6 5/5/5 4/4/4
f 9/9/9 8/8/8 7/7/7
f 12/12/12 11/11/11 10/10/10
f 15/15/15 14/14/14 13/13/13
f 18/18/18 17/17/17 16/16/16
f 21/21/21 20/20/20 19/19/19
f 22/22/22 21/21/21 19/19/19
f 25/25/25 24/24/24 23/23/23
f 24/24/24 26/26/26 23/23/23
f 23/23/23 26/26/26 27/27/27
f 26/26/26 28/28/28 27/27/27
f 28/28/28 29/29/29 27/27/27
f 29/29/29 30/30/30 27/27/27
f 31/31/31 30/30/30 29/29/29
f 32/32/32 31/31/31 29/29/29
f 32/32/32 33/33/33 31/31/31
f 33/33/33 34/34/34 31/31/31
f 34/34/34 33/33/33 35/35/35
f 33/33/33 36/36/36 35/35/35
f 39/39/39 38/38/38 37/37/37
f 40/40/40 39/39/39 37/37/37
f 41/41/41 40/40/40 37/37/37
f 42/42/42 41/41/41 37/37/37
f 42/42/42 43/43/43 41/41/41
f 43/43/43 44/44/44 41/41/41
f 44/44/44 43/43/43 45/45/45
f 43/43/43 46/46/46 45/45/45
f 49/49/49 48/48/48 47/47/47
f 50/50/50 49/49/49 47/47/47
f 50/50/50 47/47/47 51/51/51
f 52/52/52 50/50/50 51/51/51
f 55/55/55 54/54/54 53/53/53
f 54/54/54 56/56/56 53/53/53
f 54/54/54 57/57/57 56/56/56
f 57/57/57 58/58/58 56/56/56
f 57/57/57 59/59/59 58/58/58
f 59/59/59 60/60/60 58/58/58
f 61/61/61 60/60/60 59/59/59
f 62/62/62 61/61/61 59/59/59
f 63/63/63 61/61/61 62/62/62
f 64/64/64 63/63/63 62/62/62
f 64/64/64 65/65/65 63/63/63
f 65/65/65 66/66/66 63/63/63
f 69/69/69 68/68/68 67/67/67
f 70/70/70 69/69/69 67/67/67
f 73/73/73 72/72/72 71/71/71
f 74/74/74 73/73/73 71/71/71
f 74/74/74 71/71/71 75/75/75
f 76/76/76 74/74/74 75/75/75
f 77/77/77 76/76/76 75/75/75
f 78/78/78 77/77/77 75/75/75
f 78/78/78 79/79/79 77/77/77
f 79/79/79 80/80/80 77/77/77
f 81/81/81 80/80/80 79/79/79
f 82/82/82 81/81/81 79/79/79
f 81/81/81 82/82/82 83/83/83
f 84/84/84 81/81/81 83/83/83
f 85/85/85 84/84/84 83/83/83
f 86/86/86 85/85/85 83/83/83
f 87/87/87 85/85/85 86/86/86
f 88/88/88 87/87/87 86/86/86
f 91/91/91 90/90/90 89/89/89
f 90/90/90 92/92/92 89/89/89
f 92/92/92 93/93/93 89/89/89
f 93/93/93 94/94/94 89/89/89
f 95/95/95 94/94/94 93/93/93
f 96/96/96 95/95/95 93/93/93
f 95/95/95 96/96/96 97/97/97
f 98/98/98 95/95/95 97/97/97
f 101/101/101 100/100/100 99/99/99
f 102/102/102 101/101/101 99/99/99
f 103/103/103 101/101/101 102/102/102
f 104/104/104 103/103/103 102/102/102
f 103/103/103 104/104/104 105/105/105
f 104/104/104 106/106/106 105/105/105
f 105/105/105 106/106/106 107/107/107
f 106/106/106 108/108/108 107/107/107
f 111/111/111 110/110/110 109/109/109
f 112/112/112 111/111/111 109/109/109
f 111/111/111 112/112/112 113/113/113
f 114/114/114 111/111/111 113/113/113
f 115/115/115 114/114/114 113/113/113
f 116/116/116 115/115/115 113/113/113
f 117/117/117 115/115/115 116/116/116
f 118/118/118 117/117/117 116/116/116
f 119/119/119 117/117/117 118/118/118
f 120/120/120 119/119/119 118/118/118
f 120/120/120 121/121/121 119/119/119
f 121/121/121 122/122/122 119/119/119
f 121/121/121 123/123/123 122/122/122
f 123/123/123 124/124/124 122/122/122
f 125/125/125 124/124/124 123/123/123
f 126/126/126 125/125/125 123/123/123
f 129/129/129 128/128/128 127/127/127
f 130/130/130 129/129/129 127/127/127
f 133/133/133 132/132/132 131/131/131
f 134/134/134 133/133/133 131/131/131
f 137/137/137 136/136/136 135/135/135
f 138/138/138 137/137/137 135/135/135
f 141/141/141 140/140/140 139/139/139
f 142/142/142 141/141/141 139/139/139
f 145/145/145 144/144/144 143/143/143
f 146/146/146 145/145/145 143/143/143
f 149/149/149 148/148/148 147/147/147
f 150/150/150 149/149/149 147/147/147
f 153/153/153 152/152/152 151/151/151
f 154/154/154 153/153/153 151/151/151
f 157/157/157 156/156/156 155/155/155
f 158/158/158 157/157/157 155/155/155
f 161/161/161 160/160/160 159/159/159
f 162/162/162 161/161/161 159/159/159
f 165/165/165 164/164/164 163/163/163
f 166/166/166 165/165/165 163/163/163
f 169/169/169 168/168/168 167/167/167
f 170/170/170 169/169/169 167/167/167
f 173/173/173 172/172/172 171/171/171
f 174/174/174 173/173/173 171/171/171
f 177/177/177 176/176/176 175/175/175
f 177/177/177 175/175/175 178/178/178
f 175/175/175 179/179/179 178/178/178
f 182/182/182 181/181/181 180/180/180
f 182/182/182 183/183/183 181/181/181
f 181/181/181 183/183/183 184/184/184
f 183/183/183 185/185/185 184/184/184
f 186/186/186 181/181/181 184/184/184
f 187/187/187 186/186/186 184/184/184
f 190/190/190 189/189/189 188/188/188
f 189/189/189 191/191/191 188/188/188
f 191/191/191 189/189/189 192/192/192
f 193/193/193 191/191/191 192/192/192
f 196/196/196 195/195/195 194/194/194
f 197/197/197 196/196/196 194/194/194
f 200/200/200 199/199/199 198/198/198
f 199/199/199 201/201/201 198/198/198
f 198/198/198 201/201/201 202/202/202
f 201/201/201 203/203/203 202/202/202
f 203/203/203 204/204/204 202/202/202
f 204/204/204 205/205/205 202/202/202
f 206/206/206 205/205/205 204/204/204
f 207/207/207 206/206/206 204/204/204
f 207/207/207 208/208/208 206/206/206
f 208/208/208 209/209/209 206/206/206
f 209/209/209 208/208/208 210/210/210
f 208/208/208 211/211/211 210/210/210
f 214/214/214 213/213/213 212/212/212
f 215/215/215 214/214/214 212/212/212
f 216/216/216 215/215/215 212/212/212
f 217/217/217 216/216/216 212/212/212
f 217/217/217 218/218/218 216/216/216
f 218/218/218 219/219/219 216/216/216
f 219/219/219 218/218/218 220/220/220
f 218/218/218 221/221/221 220/220/220
f 224/224/224 223/223/223 222/222/222
f 225/225/225 224/224/224 222/222/222
f 225/225/225 222/222/222 226/226/226
f 227/227/227 225/225/225 226/226/226
f 230/230/230 229/229/229 228/228/228
f 229/229/229 231/231/231 228/228/228
f 229/229/229 232/232/232 231/231/231
f 232/232/232 233/233/233 231/231/231
f 232/232/232 234/234/234 233/233/233
f 234/234/234 235/235/235 233/233/233
f 236/236/236 235/235/235 234/234/234
f 237/237/237 236/236/236 234/234/234
f 238/238/238 236/236/236 237/237/237
f 239/239/239 238/238/238 237/237/237
f 239/239/239 240/240/240 238/238/238
f 240/240/240 241/241/241 238/238/238
f 244/244/244 243/243/243 242/242/242
f 245/245/245 244/244/244 242/242/242
f 248/248/248 247/247/247 246/246/246
f 249/249/249 248/248/248 246/246/246
f 249/249/249 246/246/246 250/250/250
f 251/251/251 249/249/249 250/250/250
f 252/252/252 251/251/251 250/250/250
f 253/253/253 252/252/252 250/250/250
f 253/253/253 254/254/254 252/252/252
f 254/254/254 255/255/255 252/252/252
f 256/256/256 255/255/255 254/254/254
f 257/257/257 256/256/256 254/254/254
f 256/256/256 257/257/257 258/258/258
f 259/259/259 256/256/256 258/258/258
f 260/260/260 259/259/259 258/258/258
f 261/261/261 260/260/260 258/258/258
f 262/262/262 260/260/260 261/261/261
f 263/263/263 262/262/262 261/261/261
f 266/266/266 265/265/265 264/264/264
f 265/265/265 267/267/267 264/264/264
f 267/267/267 268/268/268 264/264/264
f 268/268/268 269/269/269 264/264/264
f 270/270/270 269/269/269 268/268/268
f 271/271/271 270/270/270 268/268/268
f 270/270/270 271/271/271 272/272/272
f 273/273/273 270/270/270 272/272/272
f 276/276/276 275/275/275 274/274/274
f 277/277/277 276/276/276 274/274/274
f 278/278/278 276/276/276 277/277/277
f 279/279/279 278/278/278 277/277/277
f 278/278/278 279/279/279 280/280/280
f 279/279/279 281/281/281 280/280/280
f 280/280/280 281/281/281 282/282/282
f 281/281/281 283/283/283 282/282/282
f 286/286/286 285/285/285 284/284/284
f 287/287/287 286/286/286 284/284/284
f 286/286/286 287/287/287 288/288/288
f 289/289/289 286/286/286 288/288/288
f 290/290/290 289/289/289 288/288/288
f 291/291/291 290/290/290 288/288/288
f 292/292/292 290/290/290 291/291/291
f 293/293/293 292/292/292 291/291/291
f 294/294/294 292/292/292 293/293/293
f 295/295/295 294/294/294 293/293/293
f 295/295/295 296/296/296 294/294/294
f 296/296/296 297/297/297 294/294/294
f 296/296/296 298/298/298 297/297/297
f 298/298/298 299/299/299 297/297/297
f 300/300/300 299/299/299 298/298/298
f 301/301/301 300/300/300 298/298/298
f 304/304/304 303/303/303 302/302/302
f 305/305/305 304/304/304 302/302/302
f 308/308/308 307/307/307 306/306/306
f 309/309/309 308/308/308 306/306/306
f 312/312/312 311/311/311 310/310/310
f 313/313/313 312/312/312 310/310/310
f 316/316/316 315/315/315 314/314/314
f 317/317/317 316/316/316 314/314/314
f 320/320/320 319/319/319 318/318/318
f 321/321/321 320/320/320 318/318/318
f 324/324/324 323/323/323 322/322/322
f 325/325/325 324/324/324 322/322/322
f 328/328/328 327/327/327 326/326/326
f 329/329/329 328/328/328 326/326/326
f 332/332/332 331/331/331 330/330/330
f 333/333/333 332/332/332 330/330/330
f 336/336/336 335/335/335 334/334/334
f 337/337/337 336/336/336 334/334/334
f 340/340/340 339/339/339 338/338/338
f 341/341/341 340/340/340 338/338/338
f 344/344/344 343/343/343 342/342/342
f 345/345/345 344/344/344 342/342/342
f 348/348/348 347/347/347 346/346/346
f 349/349/349 348/348/348 346/346/346
f 352/352/352 351/351/351 350/350/350
f 352/352/352 350/350/350 353/353/353
f 350/350/350 354/354/354 353/353/353
f 357/357/357 356/356/356 355/355/355
f 357/357/357 358/358/358 356/356/356
f 356/356/356 358/358/358 359/359/359
f 358/358/358 360/360/360 359/359/359
f 361/361/361 356/356/356 359/359/359
f 362/362/362 361/361/361 359/359/359
f 365/365/365 364/364/364 363/363/363
f 364/364/364 366/366/366 363/363/363
f 366/366/366 364/364/364 367/367/367
f 368/368/368 366/366/366 367/367/367
f 371/371/371 370/370/370 369/369/369
f 372/372/372 371/371/371 369/369/369
f 375/375/375 374/374/374 373/373/373
f 376/376/376 375/375/375 373/373/373
f 379/379/379 378/378/378 377/377/377
f 379/379/379 380/380/380 378/378/378
f 378/378/378 380/380/380 381/381/381
f 380/380/380 382/382/382 381/381/381
f 383/383/383 378/378/378 381/381/381
f 384/384/384 383/383/383 381/381/381
f 387/387/387 386/386/386 385/385/385
f 388/388/388 387/387/387 385/385/385
f 391/391/391 390/390/390 389/389/389
f 390/390/390 392/392/392 389/389/389
f 392/392/392 390/390/390 393/393/393
f 394/394/394 392/392/392 393/393/393
f 397/397/397 396/396/396 395/395/395
f 398/398/398 397/397/397 395/395/395
f 401/401/401 400/400/400 399/399/399
f 402/402/402 401/401/401 399/399/399
f 405/405/405 404/404/404 403/403/403
f 405/405/405 406/406/406 404/404/404
f 404/404/404 406/406/406 407/407/407
f 406/406/406 408/408/408 407/407/407
f 409/409/409 404/404/404 407/407/407
f 410/410/410 409/409/409 407/407/407
f 413/413/413 412/412/412 411/411/411
f 414/414/414 413/413/413 411/411/411
f 417/417/417 416/416/416 415/415/415
f 416/416/416 418/418/418 415/415/415
f 418/418/418 416/416/416 419/419/419
f 420/420/420 418/418/418 419/419/419
g O_build_road_A_06_1
f 423/423/423 422/422/422 421/421/421
f 422/422/422 424/424/424 421/421/421
f 425/425/425 423/423/423 421/421/421
f 423/423/423 425/425/425 426/426/426
f 427/427/427 423/423/423 426/426/426
f 427/427/427 426/426/426 428/428/428
f 429/429/429 427/427/427 428/428/428
f 429/429/429 428/428/428 430/430/430
f 431/431/431 429/429/429 430/430/430
f 431/431/431 430/430/430 432/432/432
f 433/433/433 431/431/431 432/432/432
f 433/433/433 432/432/432 434/434/434
f 435/435/435 433/433/433 434/434/434
f 435/435/435 434/434/434 436/436/436
f 437/437/437 435/435/435 436/436/436
f 437/437/437 436/436/436 438/438/438
f 439/439/439 437/437/437 438/438/438
f 439/439/439 438/438/438 440/440/440
f 441/441/441 439/439/439 440/440/440
f 442/442/442 441/441/441 440/440/440
f 443/443/443 442/442/442 440/440/440
f 444/444/444 442/442/442 443/443/443
f 445/445/445 440/440/440 438/438/438
f 440/440/440 445/445/445 443/443/443
f 446/446/446 438/438/438 436/436/436
f 446/446/446 445/445/445 438/438/438
f 447/447/447 436/436/436 434/434/434
f 447/447/447 446/446/446 436/436/436
f 448/448/448 434/434/434 432/432/432
f 448/448/448 447/447/447 434/434/434
f 449/449/449 444/444/444 443/443/443
f 450/450/450 444/444/444 449/449/449
f 445/445/445 451/451/451 443/443/443
f 443/443/443 451/451/451 449/449/449
f 452/452/452 445/445/445 446/446/446
f 445/445/445 452/452/452 451/451/451
f 453/453/453 446/446/446 447/447/447
f 453/453/453 452/452/452 446/446/446
f 454/454/454 452/452/452 453/453/453
f 453/453/453 455/455/455 454/454/454
f 455/455/455 453/453/453 447/447/447
f 455/455/455 447/447/447 448/448/448
f 456/456/456 448/448/448 432/432/432
f 456/456/456 432/432/432 430/430/430
f 457/457/457 450/450/450 449/449/449
f 458/458/458 450/450/450 457/457/457
f 451/451/451 459/459/459 449/449/449
f 449/449/449 459/459/459 457/457/457
f 452/452/452 460/460/460 451/451/451
f 451/451/451 460/460/460 459/459/459
f 461/461/461 460/460/460 452/452/452
f 460/460/460 461/461/461 459/459/459
f 452/452/452 454/454/454 461/461/461
f 462/462/462 455/455/455 448/448/448
f 462/462/462 448/448/448 456/456/456
f 463/463/463 456/456/456 430/430/430
f 463/463/463 430/430/430 428/428/428
f 464/464/464 458/458/458 457/457/457
f 465/465/465 458/458/458 464/464/464
f 459/459/459 466/466/466 457/457/457
f 459/459/459 461/461/461 466/466/466
f 457/457/457 466/466/466 464/464/464
f 462/462/462 467/467/467 455/455/455
f 455/455/455 467/467/467 454/454/454
f 468/468/468 462/462/462 456/456/456
f 468/468/468 456/456/456 463/463/463
f 468/468/468 467/467/467 462/462/462
f 469/469/469 463/463/463 428/428/428
f 469/469/469 428/428/428 426/426/426
f 470/470/470 468/468/468 463/463/463
f 468/468/468 470/470/470 467/467/467
f 470/470/470 463/463/463 469/469/469
f 471/471/471 469/469/469 426/426/426
f 471/471/471 426/426/426 425/425/425
f 470/470/470 472/472/472 467/467/467
f 467/467/467 472/472/472 454/454/454
f 473/473/473 470/470/470 469/469/469
f 473/473/473 469/469/469 471/471/471
f 470/470/470 473/473/473 472/472/472
f 474/474/474 471/471/471 425/425/425
f 474/474/474 425/425/425 421/421/421
f 475/475/475 473/473/473 471/471/471
f 475/475/475 471/471/471 474/474/474
f 473/473/473 476/476/476 472/472/472
f 475/475/475 476/476/476 473/473/473
f 477/477/477 475/475/475 474/474/474
f 477/477/477 476/476/476 475/475/475
f 478/478/478 474/474/474 421/421/421
f 477/477/477 474/474/474 478/478/478
f 472/472/472 479/479/479 454/454/454
f 472/472/472 476/476/476 479/479/479
f 478/478/478 421/421/421 480/480/480
f 424/424/424 480/480/480 421/421/421
f 480/480/480 424/424/424 481/481/481
f 424/424/424 482/482/482 481/481/481
f 482/482/482 483/483/483 481/481/481
f 476/476/476 477/477/477 484/484/484
f 485/485/485 477/477/477 478/478/478
f 477/477/477 485/485/485 484/484/484
f 485/485/485 478/478/478 486/486/486
f 486/486/486 478/478/478 480/480/480
f 484/484/484 485/485/485 486/486/486
f 487/487/487 486/486/486 480/480/480
f 481/481/481 487/487/487 480/480/480
f 476/476/476 488/488/488 479/479/479
f 484/484/484 488/488/488 476/476/476
f 489/489/489 484/484/484 486/486/486
f 487/487/487 489/489/489 486/486/486
f 484/484/484 489/489/489 490/490/490
f 488/488/488 484/484/484 490/490/490
f 490/490/490 489/489/489 487/487/487
f 491/491/491 487/487/487 481/481/481
f 491/491/491 490/490/490 487/487/487
f 483/483/483 492/492/492 481/481/481
f 492/492/492 491/491/491 481/481/481
f 488/488/488 493/493/493 479/479/479
f 490/490/490 493/493/493 488/488/488
f 492/492/492 483/483/483 494/494/494
f 483/483/483 495/495/495 494/494/494
f 496/496/496 491/491/491 492/492/492
f 494/494/494 496/496/496 492/492/492
f 497/497/497 490/490/490 491/491/491
f 493/493/493 490/490/490 497/497/497
f 496/496/496 497/497/497 491/491/491
f 493/493/493 498/498/498 479/479/479
f 479/479/479 498/498/498 454/454/454
f 493/493/493 497/497/497 499/499/499
f 499/499/499 497/497/497 496/496/496
f 493/493/493 499/499/499 498/498/498
f 494/494/494 495/495/495 500/500/500
f 495/495/495 501/501/501 500/500/500
f 502/502/502 496/496/496 494/494/494
f 502/502/502 499/499/499 496/496/496
f 500/500/500 502/502/502 494/494/494
f 498/498/498 503/503/503 454/454/454
f 454/454/454 503/503/503 461/461/461
f 499/499/499 504/504/504 498/498/498
f 504/504/504 499/499/499 502/502/502
f 498/498/498 504/504/504 503/503/503
f 500/500/500 501/501/501 505/505/505
f 501/501/501 465/465/465 505/505/505
f 505/505/505 465/465/465 464/464/464
f 506/506/506 502/502/502 500/500/500
f 506/506/506 504/504/504 502/502/502
f 505/505/505 506/506/506 500/500/500
f 464/464/464 507/507/507 505/505/505
f 507/507/507 506/506/506 505/505/505
f 466/466/466 507/507/507 464/464/464
f 461/461/461 508/508/508 466/466/466
f 503/503/503 508/508/508 461/461/461
f 466/466/466 508/508/508 507/507/507
f 504/504/504 509/509/509 503/503/503
f 509/509/509 504/504/504 506/506/506
f 507/507/507 509/509/509 506/506/506
f 503/503/503 509/509/509 508/508/508
f 508/508/508 509/509/509 507/507/507
