g O_build_Ground_army_02
v -0.0600012187 1.55471522E-06 0.0600012187
v -0.102376528 1.55471522E-06 0.102376528
v -0.102376528 1.55471522E-06 -0.102376543
v -0.0600012187 1.55471522E-06 -0.0600012336
v -0.102376528 1.55471522E-06 -0.102376543
v 0.102376543 1.55471522E-06 -0.102376543
v 0.0600012336 1.55471522E-06 -0.0600012336
v 0.0600012336 1.55471522E-06 0.0600012187
v -0.0600012187 1.55471522E-06 0.0600012187
v -0.102376528 1.55471522E-06 0.102376528
v 0.102376543 1.55471522E-06 0.102376528
v 0.102376543 1.55471522E-06 -0.102376543
v 0.102376543 1.55471522E-06 0.102376528
v 0.0600012336 1.55471522E-06 0.0600012187
vt 0.999793012 0.999793012
vt 1.29696965 1.24690185
vt 1.29696965 -0.302777422
vt 0.999793012 5.20344181E-05
vt 1.29696965 -0.302777422
vt -0.356075406 -0.302777422
vt 5.20344181E-05 5.20344181E-05
vt 5.20344181E-05 0.999793012
vt 0.999793012 0.999793012
vt 1.29696965 1.24690185
vt -0.356075406 1.24690185
vt -0.356075406 -0.302777422
vt -0.356075406 1.24690185
vt 5.20344181E-05 0.999793012
vn -0 1 -0
vn -0 1 -0
vn -0 1 -0
vn -0 1 -0
vn -0 1 -0
vn -0 1 -0
vn -0 1 -0
vn -0 1 -0
vn -0 1 -0
vn -0 1 -0
vn -0 1 -0
vn -0 1 -0
vn -0 1 -0
vn -0 1 -0
g O_build_Ground_army_02_0
f 3/3/3 2/2/2 1/1/1
f 4/4/4 3/3/3 1/1/1
f 6/6/6 5/5/5 4/4/4
f 7/7/7 6/6/6 4/4/4
f 8/8/8 7/7/7 4/4/4
f 9/9/9 8/8/8 4/4/4
f 9/9/9 10/10/10 8/8/8
f 10/10/10 11/11/11 8/8/8
f 13/13/13 12/12/12 7/7/7
f 14/14/14 13/13/13 7/7/7
