g Object457
v -6.14840026 1.63128205 0.921468502
v -6.14862559 1.63128205 -0.537818015
v -10.028489 -3.9099957 -0.536916664
v -10.028489 -3.9099957 0.921693839
v -6.98733227 0.494228348 1.00664613
v -10.0571069 -3.88994066 1.00664613
v -6.77416286 0.798659491 1.00664613
v -6.17701813 1.6513371 1.00664613
v -6.77416286 0.798659491 1.06005115
v -6.98733227 0.494228348 1.06005115
v -10.4410822 -3.71395196 1.22927971
v -10.3518485 -3.58641086 1.22927971
v -10.0429106 -3.99269462 1.22927971
v -9.95367688 -3.86515352 1.22927971
v -10.0429106 -3.99269462 1.22927971
v -10.0431359 -3.99269462 -0.570942647
v -10.4410822 -3.71395196 1.22927971
v -10.7748072 -3.48027684 0.306071424
v -10.7748072 -3.48027684 -0.570942647
v -10.0429106 -3.99269462 1.22927971
v -9.95367688 -3.86515352 1.22927971
v -10.0431359 -3.99269462 -0.570942647
v -9.95367688 -3.86515352 -0.571843998
v -9.95367688 -3.86515352 1.22927971
v -10.3518485 -3.58641086 1.22927971
v -9.95367688 -3.86515352 -0.571843998
v -10.6853482 -3.35273574 0.305395411
v -10.6853482 -3.35273574 -0.571843998
v -9.65487917 -3.43836404 1.22927971
v -9.74411288 -3.56590514 1.22927971
v -10.0530508 -3.15962138 1.22927971
v -10.1422845 -3.28716248 1.22927971
v -9.74411288 -3.56590514 1.22927971
v -9.74411288 -3.56590514 -0.570942647
v -10.1422845 -3.28716248 1.22927971
v -10.4760095 -3.05348736 0.306071424
v -10.4760095 -3.05348736 -0.570942647
v -9.65487917 -3.43836404 -0.571843998
v -9.74411288 -3.56590514 -0.570942647
v -9.65487917 -3.43836404 1.22927971
v -9.74411288 -3.56590514 1.22927971
v -9.65487917 -3.43836404 1.22927971
v -10.0530508 -3.15962138 1.22927971
v -9.65487917 -3.43836404 -0.571843998
v -10.3865505 -2.92594626 0.305395411
v -10.3865505 -2.92594626 -0.571843998
v -10.7748072 -3.48027684 -0.570942647
v -10.6853482 -3.35273574 -0.571843998
v -10.6853482 -3.35273574 0.305395411
v -10.7748072 -3.48027684 0.306071424
v -10.4410822 -3.71395196 1.22927971
v -10.3518485 -3.58641086 1.22927971
v -10.4760095 -3.05348736 -0.570942647
v -10.3865505 -2.92594626 -0.571843998
v -10.3865505 -2.92594626 0.305395411
v -10.4760095 -3.05348736 0.306071424
v -10.1422845 -3.28716248 1.22927971
v -10.0530508 -3.15962138 1.22927971
v -6.1193317 1.61077632 0.457272976
v -9.99919508 -3.93027609 0.457498314
v -6.1193317 1.61077632 0.658724821
v -9.99919508 -3.93027609 0.658950158
v -6.1193317 1.61077632 0.658724821
v -9.99919508 -3.93027609 0.658950158
v -6.14840026 1.63128205 0.658724821
v -10.028489 -3.9099957 0.658950158
v -6.4683797 1.85526766 1.00664613
v -6.17701813 1.6513371 1.00664613
v -6.77416286 0.798659491 1.00664613
v -7.06552442 1.00259005 1.00664613
v -8.25057504 -1.21270423 0.962930626
v -8.81301777 -2.01603289 0.962930626
v -8.44864682 -1.07389625 0.962930626
v -9.01108955 -1.87722491 0.962930626
v -9.37726321 -1.6651822 -0.16691227
v -8.77380903 -0.803265748 -0.167137607
v -9.37726321 -1.6651822 0.249737015
v -8.77380903 -0.803265748 0.249737015
v -9.18324751 -1.80106079 0.769365599
v -8.57956799 -0.939144341 0.769365599
v -8.23029465 -1.2041414 1.00664613
v -8.81414446 -2.03789064 1.00664613
v -8.25057504 -1.21270423 0.962930626
v -8.81301777 -2.01603289 0.962930626
v -8.81414446 -2.03789064 1.00664613
v -9.0311446 -1.88578774 1.00664613
v -8.81301777 -2.01603289 0.962930626
v -9.01108955 -1.87722491 0.962930626
v -9.0311446 -1.88578774 1.00664613
v -8.44752013 -1.0520385 1.00664613
v -9.01108955 -1.87722491 0.962930626
v -8.44864682 -1.07389625 0.962930626
v -8.44752013 -1.0520385 1.00664613
v -8.23029465 -1.2041414 1.00664613
v -8.44864682 -1.07389625 0.962930626
v -8.25057504 -1.21270423 0.962930626
v -9.17693805 -1.82742529 0.773421676
v -9.18324751 -1.80106079 0.769365599
v -8.55230213 -0.935088263 0.773421676
v -8.57956799 -0.939144341 0.769365599
v -9.37523517 -1.68861731 -0.173897736
v -9.37726321 -1.6651822 -0.16691227
v -9.37726321 -1.6651822 0.249737015
v -9.37523517 -1.68861731 0.242751549
v -9.17693805 -1.82742529 0.773421676
v -9.18324751 -1.80106079 0.769365599
v -8.75037391 -0.796280281 -0.173897736
v -8.77380903 -0.803265748 -0.167137607
v -9.37726321 -1.6651822 -0.16691227
v -9.37523517 -1.68861731 -0.173897736
v -7.27869383 0.698158906 1.06005115
v -7.06552442 1.00259005 1.06005115
v -6.98733227 0.494228348 1.06005115
v -6.77416286 0.798659491 1.06005115
v -7.11352134 1.23671585 0.760126756
v -7.20771247 1.10218928 0.760126756
v -7.34674579 1.40008564 0.262130585
v -7.44093692 1.26555907 0.262355923
v -7.28883402 1.35952486 -0.177503138
v -7.38302515 1.22499829 -0.177503138
v -6.98733227 0.494228348 1.00664613
v -7.27869383 0.698158906 1.00664613
v -6.98733227 0.494228348 1.06005115
v -7.27869383 0.698158906 1.06005115
v -7.06552442 1.00259005 1.00664613
v -6.77416286 0.798659491 1.00664613
v -7.06552442 1.00259005 1.06005115
v -6.77416286 0.798659491 1.06005115
v -7.15250475 1.06365655 0.773421676
v -7.35080187 1.20246453 0.242526211
v -7.20771247 1.10218928 0.760126756
v -7.44093692 1.26555907 0.262355923
v -7.35080187 1.20246453 -0.174348412
v -7.38302515 1.22499829 -0.177503138
v -7.05831362 1.19818312 0.773421676
v -7.11352134 1.23671585 0.760126756
v -7.25661074 1.3369911 0.242300873
v -7.34674579 1.40008564 0.262130585
v -7.25661074 1.3369911 -0.174348412
v -7.28883402 1.35952486 -0.177503138
v -7.05831362 1.19818312 0.773421676
v -7.15250475 1.06365655 0.773421676
v -7.11352134 1.23671585 0.760126756
v -7.20771247 1.10218928 0.760126756
v -6.14862559 1.63128205 -0.537818015
v -6.75388248 2.05514214 0.242300873
v -6.75388248 2.05514214 -0.537592677
v -6.14840026 1.63128205 0.921468502
v -6.4683797 1.85526766 1.00664613
v -6.17701813 1.6513371 1.00664613
v -8.75037391 -0.796280281 -0.173897736
v -8.77380903 -0.803265748 0.249737015
v -8.77380903 -0.803265748 -0.167137607
v -8.75037391 -0.796280281 0.242751549
v -8.55230213 -0.935088263 0.773421676
v -8.57956799 -0.939144341 0.769365599
v -7.27869383 0.698158906 1.06005115
v -7.06552442 1.00259005 1.00664613
v -7.06552442 1.00259005 1.06005115
v -7.27869383 0.698158906 1.00664613
v -7.15250475 1.06365655 0.773421676
v -8.55230213 -0.935088263 0.773421676
v -10.3484684 -3.68578476 1.00664613
v -9.17693805 -1.82742529 0.773421676
v -10.6337459 -3.48613562 0.242976886
v -9.37523517 -1.68861731 0.242751549
v -9.37523517 -1.68861731 -0.173897736
v -10.6337459 -3.48613562 -0.536916664
v -8.75037391 -0.796280281 -0.173897736
v -8.75037391 -0.796280281 0.242751549
v -6.75388248 2.05514214 -0.537592677
v -7.35080187 1.20246453 0.242526211
v -7.05831362 1.19818312 0.773421676
v -6.4683797 1.85526766 1.00664613
v -7.35080187 1.20246453 -0.174348412
v -7.25661074 1.3369911 -0.174348412
v -6.75388248 2.05514214 0.242300873
v -7.25661074 1.3369911 0.242300873
v -10.3484684 -3.68578476 1.00664613
v -7.27869383 0.698158906 1.00664613
v -9.0311446 -1.88578774 1.00664613
v -10.0571069 -3.88994066 1.00664613
v -8.44752013 -1.0520385 1.00664613
v -8.81414446 -2.03789064 1.00664613
v -8.23029465 -1.2041414 1.00664613
v -6.98733227 0.494228348 1.00664613
vt 0.992181211 0.472598751
vt 0.992181211 0.259954819
vt 0.00786110666 0.259954819
vt 0.00786110666 0.472598751
vt 0.786272606 0.486069407
vt 0.00786110666 0.486069407
vt 0.841117422 0.486069407
vt 0.992181211 0.486069407
vt 0.841117422 0.493766925
vt 0.786272606 0.493766925
vt 0.881529391 0.654452612
vt 0.881529391 0.677545166
vt 0.951769242 0.654452612
vt 0.951769242 0.677545166
vt 0.00786110666 0.784348227
vt 0.270538906 0.784348227
vt 0.00786110666 0.714108376
vt 0.14256767 0.654452612
vt 0.270538906 0.654452612
vt 0.29170708 0.922903549
vt 0.29170708 0.945996103
vt 0.553422689 0.922903549
vt 0.553422689 0.945996103
vt 0.169508983 0.502426633
vt 0.169508983 0.572666484
vt 0.431224592 0.502426633
vt 0.303253357 0.632322248
vt 0.431224592 0.632322248
vt 0.447581818 0.891151288
vt 0.447581818 0.914243842
vt 0.517821669 0.891151288
vt 0.518783859 0.913281652
vt 0.4398843 0.632322248
vt 0.701599909 0.632322248
vt 0.4398843 0.562082397
vt 0.574590864 0.502426633
vt 0.701599909 0.502426633
vt 0.789159176 0.913281652
vt 0.788196986 0.891151288
vt 0.526481377 0.913281652
vt 0.526481377 0.891151288
vt 0.710259617 0.502426633
vt 0.710259617 0.572666484
vt 0.971975226 0.502426633
vt 0.844966181 0.632322248
vt 0.971975226 0.632322248
vt 0.43892211 0.913281652
vt 0.43892211 0.891151288
vt 0.310950875 0.891151288
vt 0.310950875 0.913281652
vt 0.164698034 0.913281652
vt 0.164698034 0.891151288
vt 0.283047372 0.945996103
vt 0.283047372 0.922903549
vt 0.155076137 0.922903549
vt 0.155076137 0.945996103
vt 0.00786110666 0.945996103
vt 0.00786110666 0.922903549
vt 0.992181211 0.852663698
vt 0.00786110666 0.852663698
vt 0.992181211 0.88249158
vt 0.00786110666 0.88249158
vt 0.992181211 0.954655811
vt 0.00786110666 0.954655811
vt 0.992181211 0.95946676
vt 0.00786110666 0.95946676
vt 0.664074509 0.706410858
vt 0.66311232 0.654452612
vt 0.51204853 0.655414802
vt 0.51204853 0.706410858
vt 0.654452612 0.715070566
vt 0.51204853 0.715070566
vt 0.654452612 0.750671586
vt 0.51204853 0.750671586
vt 0.160849275 0.502426633
vt 0.00786110666 0.502426633
vt 0.160849275 0.563044587
vt 0.00786110666 0.563044587
vt 0.160849275 0.645792904
vt 0.00786110666 0.645792904
vt 0.528405756 0.777612899
vt 0.676582976 0.777612899
vt 0.531292325 0.770877571
vt 0.673696407 0.770877571
vt 0.325383721 0.777612899
vt 0.36387131 0.777612899
vt 0.3273081 0.770877571
vt 0.361946931 0.770877571
vt 0.372531018 0.777612899
vt 0.520708238 0.777612899
vt 0.375417587 0.770877571
vt 0.517821669 0.770877571
vt 0.278236424 0.777612899
vt 0.316724013 0.777612899
vt 0.280160803 0.770877571
vt 0.315761823 0.770877571
vt 0.3273081 0.643868525
vt 0.325383721 0.640981956
vt 0.169508983 0.643868525
vt 0.172395552 0.640981956
vt 0.805516401 0.718919325
vt 0.804554211 0.715070566
vt 0.743936258 0.716032755
vt 0.744898448 0.719881514
vt 0.66311232 0.744898448
vt 0.664074509 0.741049689
vt 0.494729115 0.642906335
vt 0.491842546 0.640981956
vt 0.338854377 0.640981956
vt 0.335967808 0.642906335
vt 0.671772027 0.706410858
vt 0.726616843 0.706410858
vt 0.671772027 0.654452612
vt 0.726616843 0.654452612
vt 0.00786110666 0.891151288
vt 0.00786110666 0.915206032
vt 0.091571614 0.891151288
vt 0.091571614 0.915206032
vt 0.156038327 0.891151288
vt 0.156038327 0.915206032
vt 0.992181211 0.685242684
vt 0.940222965 0.685242684
vt 0.992181211 0.692940202
vt 0.940222965 0.692940202
vt 0.932525447 0.685242684
vt 0.880567201 0.685242684
vt 0.932525447 0.692940202
vt 0.880567201 0.692940202
vt 0.872869683 0.654452612
vt 0.795894504 0.690053632
vt 0.870945304 0.664074509
vt 0.798781073 0.705448668
vt 0.73527655 0.690053632
vt 0.73431436 0.695826771
vt 0.00786110666 0.793007935
vt 0.00978548614 0.802629832
vt 0.0848362859 0.828608955
vt 0.0819497166 0.844003991
vt 0.145454239 0.828608955
vt 0.146416429 0.834382093
vt 0.960428949 0.665036699
vt 0.984483693 0.665036699
vt 0.960428949 0.654452612
vt 0.984483693 0.654452612
vt 0.503388823 0.654452612
vt 0.389850433 0.762217863
vt 0.503388823 0.762217863
vt 0.29074489 0.654452612
vt 0.279198613 0.711221807
vt 0.279198613 0.66022575
vt 0.955618001 0.738163119
vt 0.894037857 0.742011878
vt 0.954655811 0.742011878
vt 0.895000047 0.738163119
vt 0.813213919 0.715070566
vt 0.814176109 0.718919325
vt 0.213769711 0.251295111
vt 0.158924896 0.243597593
vt 0.158924896 0.251295111
vt 0.213769711 0.243597593
vt 0.158924896 0.207034383
vt 0.51397291 0.207034383
vt 0.992181211 0.243597593
vt 0.672734217 0.207034383
vt 0.992181211 0.121399496
vt 0.672734217 0.121399496
vt 0.672734217 0.0607815424
vt 0.992181211 0.00786110666
vt 0.51397291 0.0607815424
vt 0.51397291 0.121399496
vt 0.00786110666 0.00786110666
vt 0.158924896 0.121399496
vt 0.135832342 0.207034383
vt 0.00786110666 0.243597593
vt 0.158924896 0.0607815424
vt 0.135832342 0.0607815424
vt 0.00786110666 0.121399496
vt 0.135832342 0.121399496
vt 0.155076137 0.844003991
vt 0.933487637 0.844966181
vt 0.479334079 0.837268663
vt 0.154113947 0.793007935
vt 0.627511299 0.839193042
vt 0.479334079 0.797818883
vt 0.627511299 0.799743263
vt 0.933487637 0.793970124
vn 0.803702134 -0.561817553 0.196020196
vn 0.817587492 -0.575804388 -0
vn 0.817587492 -0.575804388 -0
vn 0.803702134 -0.561817553 0.196020196
vn 0.789473629 -0.5547033 0.262746336
vn 0.753902367 -0.526246291 0.393314203
vn 0.789473629 -0.5547033 0.262746336
vn 0.753902367 -0.526246291 0.393314203
vn 0.817587492 -0.575804388 -0
vn 0.817587492 -0.575804388 -0
vn -0.000208386019 0.000208386019 0.999999957
vn -0.000208386019 0.000208386019 0.999999957
vn -0.000208386019 0.000208386019 0.999999957
vn -0.000208386019 0.000208386019 0.999999957
vn -0.576082762 -0.81739137 -0
vn -0.576082762 -0.81739137 -0
vn -0.576082762 -0.81739137 -0
vn -0.576082762 -0.81739137 -0
vn -0.576082762 -0.81739137 -0
vn 0.817587492 -0.575804388 -0
vn 0.817587492 -0.575804388 -0
vn 0.817587492 -0.575804388 -0
vn 0.817587492 -0.575804388 -0
vn 0.575608317 0.817725544 -0
vn 0.575608317 0.817725544 -0
vn 0.575608317 0.817725544 -0
vn 0.575608317 0.817725544 -0
vn 0.575608317 0.817725544 -0
vn -0.000208386019 0.000208386019 0.999999957
vn -0.000208386019 0.000208386019 0.999999957
vn -0.000208386019 0.000208386019 0.999999957
vn -0.000208386019 0.000208386019 0.999999957
vn -0.576082762 -0.81739137 -0
vn -0.576082762 -0.81739137 -0
vn -0.576082762 -0.81739137 -0
vn -0.576082762 -0.81739137 -0
vn -0.576082762 -0.81739137 -0
vn 0.817587492 -0.575804388 -0
vn 0.817587492 -0.575804388 -0
vn 0.817587492 -0.575804388 -0
vn 0.817587492 -0.575804388 -0
vn 0.575608317 0.817725544 -0
vn 0.575608317 0.817725544 -0
vn 0.575608317 0.817725544 -0
vn 0.575608317 0.817725544 -0
vn 0.575608317 0.817725544 -0
vn -0.817529522 0.57588669 -0
vn -0.817529522 0.57588669 -0
vn -0.804118906 0.562234325 0.193094145
vn -0.804118906 0.562234325 0.193094145
vn -0.747204887 0.526663063 0.405352779
vn -0.747204887 0.526663063 0.405352779
vn -0.817529522 0.57588669 -0
vn -0.817529522 0.57588669 -0
vn -0.804118906 0.562234325 0.193094145
vn -0.804118906 0.562234325 0.193094145
vn -0.747204887 0.526663063 0.405352779
vn -0.747204887 0.526663063 0.405352779
vn 0.817587492 -0.575804388 -0
vn 0.817587492 -0.575804388 -0
vn 0.817587492 -0.575804388 -0
vn 0.817587492 -0.575804388 -0
vn -0.000208386019 0.000208386019 0.999999957
vn -0.000208386019 0.000208386019 0.999999957
vn -0.000208386019 0.000208386019 0.999999957
vn -0.000208386019 0.000208386019 0.999999957
vn -0.000208386019 0.000208386019 0.999999957
vn -0.000208386019 0.000208386019 0.999999957
vn -0.000208386019 0.000208386019 0.999999957
vn -0.000208386019 0.000208386019 0.999999957
vn -0.000208386019 0.000208386019 0.999999957
vn -0.000208386019 0.000208386019 0.999999957
vn -0.000208386019 0.000208386019 0.999999957
vn -0.000208386019 0.000208386019 0.999999957
vn -0.817529522 0.57588669 -0
vn -0.817529522 0.57588669 -0
vn -0.804118906 0.562234325 0.193094145
vn -0.804118906 0.562234325 0.193094145
vn -0.747204887 0.51954881 0.414432009
vn -0.747204887 0.51954881 0.414432009
vn -0.789890401 0.555120072 0.260604795
vn -0.789890401 0.555120072 0.260604795
vn -0.789890401 0.555120072 0.260604795
vn -0.789890401 0.555120072 0.260604795
vn 0.526246291 0.754319139 0.392514302
vn 0.526246291 0.754319139 0.392514302
vn 0.526246291 0.754319139 0.392514302
vn 0.526246291 0.754319139 0.392514302
vn 0.789473629 -0.5547033 0.262746336
vn 0.789473629 -0.5547033 0.262746336
vn 0.789473629 -0.5547033 0.262746336
vn 0.789473629 -0.5547033 0.262746336
vn -0.526663063 -0.753902367 0.392755953
vn -0.526663063 -0.753902367 0.392755953
vn -0.526663063 -0.753902367 0.392755953
vn -0.526663063 -0.753902367 0.392755953
vn -0.163836191 0.114036424 0.979874174
vn -0.163836191 0.114036424 0.979874174
vn -0.163836191 0.114036424 0.979874174
vn -0.163836191 0.114036424 0.979874174
vn -0.996203721 -0.0851626427 0.0180408265
vn -0.996203721 -0.0851626427 0.0180408265
vn -0.974860963 -0.134962409 0.177288607
vn -0.981975216 -0.127848157 0.13921036
vn -0.939289701 -0.170533671 0.297746744
vn -0.939289701 -0.170533671 0.297746744
vn -0.341692501 0.234978715 -0.909962218
vn -0.341692501 0.234978715 -0.909962218
vn -0.341692501 0.234978715 -0.909962218
vn -0.341692501 0.234978715 -0.909962218
vn -0.000208386019 0.000208386019 0.999999957
vn -0.000208386019 0.000208386019 0.999999957
vn -0.000208386019 0.000208386019 0.999999957
vn -0.000208386019 0.000208386019 0.999999957
vn -0.711633625 0.498206053 0.495346659
vn -0.711633625 0.498206053 0.495346659
vn -0.804118906 0.562234325 0.193094145
vn -0.804118906 0.562234325 0.193094145
vn -0.811233158 0.569348577 -0.133202704
vn -0.811233158 0.569348577 -0.133202704
vn -0.576082762 -0.81739137 -0
vn -0.576082762 -0.81739137 -0
vn -0.576082762 -0.81739137 -0
vn -0.576082762 -0.81739137 -0
vn 0.575608317 0.817725544 -0
vn 0.575608317 0.817725544 -0
vn 0.575608317 0.817725544 -0
vn 0.575608317 0.817725544 -0
vn -0.576082762 -0.81739137 -0
vn -0.576082762 -0.81739137 -0
vn -0.576082762 -0.81739137 -0
vn -0.576082762 -0.81739137 -0
vn -0.576082762 -0.81739137 -0
vn -0.576082762 -0.81739137 -0
vn 0.575608317 0.817725544 -0
vn 0.575608317 0.817725544 -0
vn 0.575608317 0.817725544 -0
vn 0.575608317 0.817725544 -0
vn 0.575608317 0.817725544 -0
vn 0.575608317 0.817725544 -0
vn -0.156721939 0.114036424 0.981037169
vn -0.156721939 0.114036424 0.981037169
vn -0.156721939 0.114036424 0.981037169
vn -0.156721939 0.114036424 0.981037169
vn 0.575608317 0.817725544 -0
vn 0.575608317 0.817725544 -0
vn 0.575608317 0.817725544 -0
vn 0.575608317 0.817725544 -0
vn 0.575608317 0.817725544 -0
vn 0.575608317 0.817725544 -0
vn -0.284222871 0.958758238 -0
vn -0.234978715 0.953518206 0.18864791
vn -0.284222871 0.958758238 -0
vn -0.242092967 0.960632459 0.136294808
vn -0.185178948 0.932175449 0.31105898
vn -0.185178948 0.932175449 0.31105898
vn -0.817529522 0.57588669 -0
vn -0.782776149 0.54800582 0.294874756
vn -0.817529522 0.57588669 -0
vn -0.782776149 0.54800582 0.294874756
vn -0.747204887 0.51954881 0.414432009
vn -0.747204887 0.51954881 0.414432009
vn -0.747204887 0.51954881 0.414432009
vn -0.747204887 0.51954881 0.414432009
vn -0.804118906 0.562234325 0.193094145
vn -0.804118906 0.562234325 0.193094145
vn -0.817529522 0.57588669 -0
vn -0.817529522 0.57588669 -0
vn -0.817529522 0.57588669 -0
vn -0.804118906 0.562234325 0.193094145
vn -0.817529522 0.57588669 -0
vn -0.804118906 0.562234325 0.193094145
vn -0.747204887 0.51954881 0.414432009
vn -0.747204887 0.51954881 0.414432009
vn -0.817529522 0.57588669 -0
vn -0.817529522 0.57588669 -0
vn -0.804118906 0.562234325 0.193094145
vn -0.804118906 0.562234325 0.193094145
vn -0.000208386019 0.000208386019 0.999999957
vn -0.000208386019 0.000208386019 0.999999957
vn -0.000208386019 0.000208386019 0.999999957
vn -0.000208386019 0.000208386019 0.999999957
vn -0.000208386019 0.000208386019 0.999999957
vn -0.000208386019 0.000208386019 0.999999957
vn -0.000208386019 0.000208386019 0.999999957
vn -0.000208386019 0.000208386019 0.999999957
g Object457_0
f 3/3/3 2/2/2 1/1/1
f 4/4/4 3/3/3 1/1/1
f 4/4/4 1/1/1 5/5/5
f 6/6/6 4/4/4 5/5/5
f 5/5/5 1/1/1 7/7/7
f 7/7/7 1/1/1 8/8/8
f 7/7/7 9/9/9 5/5/5
f 5/5/5 9/9/9 10/10/10
f 13/13/13 12/12/12 11/11/11
f 14/14/14 12/12/12 13/13/13
f 17/17/17 16/16/16 15/15/15
f 18/18/18 16/16/16 17/17/17
f 19/19/19 16/16/16 18/18/18
f 22/22/22 21/21/21 20/20/20
f 23/23/23 21/21/21 22/22/22
f 26/26/26 25/25/25 24/24/24
f 27/27/27 25/25/25 26/26/26
f 28/28/28 27/27/27 26/26/26
f 31/31/31 30/30/30 29/29/29
f 32/32/32 30/30/30 31/31/31
f 35/35/35 34/34/34 33/33/33
f 36/36/36 34/34/34 35/35/35
f 37/37/37 34/34/34 36/36/36
f 40/40/40 39/39/39 38/38/38
f 41/41/41 39/39/39 40/40/40
f 44/44/44 43/43/43 42/42/42
f 45/45/45 43/43/43 44/44/44
f 46/46/46 45/45/45 44/44/44
f 49/49/49 48/48/48 47/47/47
f 50/50/50 49/49/49 47/47/47
f 51/51/51 49/49/49 50/50/50
f 52/52/52 49/49/49 51/51/51
f 55/55/55 54/54/54 53/53/53
f 56/56/56 55/55/55 53/53/53
f 57/57/57 55/55/55 56/56/56
f 58/58/58 55/55/55 57/57/57
f 61/61/61 60/60/60 59/59/59
f 62/62/62 60/60/60 61/61/61
f 65/65/65 64/64/64 63/63/63
f 66/66/66 64/64/64 65/65/65
f 69/69/69 68/68/68 67/67/67
f 70/70/70 69/69/69 67/67/67
f 73/73/73 72/72/72 71/71/71
f 74/74/74 72/72/72 73/73/73
f 77/77/77 76/76/76 75/75/75
f 78/78/78 76/76/76 77/77/77
f 79/79/79 78/78/78 77/77/77
f 80/80/80 78/78/78 79/79/79
f 83/83/83 82/82/82 81/81/81
f 84/84/84 82/82/82 83/83/83
f 87/87/87 86/86/86 85/85/85
f 88/88/88 86/86/86 87/87/87
f 91/91/91 90/90/90 89/89/89
f 92/92/92 90/90/90 91/91/91
f 95/95/95 94/94/94 93/93/93
f 96/96/96 94/94/94 95/95/95
f 99/99/99 98/98/98 97/97/97
f 100/100/100 98/98/98 99/99/99
f 103/103/103 102/102/102 101/101/101
f 104/104/104 103/103/103 101/101/101
f 105/105/105 103/103/103 104/104/104
f 106/106/106 103/103/103 105/105/105
f 109/109/109 108/108/108 107/107/107
f 110/110/110 109/109/109 107/107/107
f 113/113/113 112/112/112 111/111/111
f 114/114/114 112/112/112 113/113/113
f 117/117/117 116/116/116 115/115/115
f 118/118/118 116/116/116 117/117/117
f 119/119/119 118/118/118 117/117/117
f 120/120/120 118/118/118 119/119/119
f 123/123/123 122/122/122 121/121/121
f 124/124/124 122/122/122 123/123/123
f 127/127/127 126/126/126 125/125/125
f 128/128/128 126/126/126 127/127/127
f 131/131/131 130/130/130 129/129/129
f 132/132/132 130/130/130 131/131/131
f 132/132/132 133/133/133 130/130/130
f 134/134/134 133/133/133 132/132/132
f 137/137/137 136/136/136 135/135/135
f 138/138/138 136/136/136 137/137/137
f 138/138/138 137/137/137 139/139/139
f 140/140/140 138/138/138 139/139/139
f 143/143/143 142/142/142 141/141/141
f 144/144/144 142/142/142 143/143/143
f 147/147/147 146/146/146 145/145/145
f 146/146/146 148/148/148 145/145/145
f 149/149/149 148/148/148 146/146/146
f 150/150/150 148/148/148 149/149/149
f 153/153/153 152/152/152 151/151/151
f 151/151/151 152/152/152 154/154/154
f 155/155/155 154/154/154 152/152/152
f 156/156/156 155/155/155 152/152/152
f 159/159/159 158/158/158 157/157/157
f 157/157/157 158/158/158 160/160/160
f 160/160/160 158/158/158 161/161/161
f 162/162/162 160/160/160 161/161/161
f 163/163/163 160/160/160 162/162/162
f 164/164/164 163/163/163 162/162/162
f 165/165/165 163/163/163 164/164/164
f 166/166/166 165/165/165 164/164/164
f 166/166/166 167/167/167 165/165/165
f 165/165/165 167/167/167 168/168/168
f 167/167/167 169/169/169 168/168/168
f 170/170/170 162/162/162 161/161/161
f 169/169/169 171/171/171 168/168/168
f 172/172/172 170/170/170 161/161/161
f 161/161/161 158/158/158 173/173/173
f 158/158/158 174/174/174 173/173/173
f 172/172/172 175/175/175 170/170/170
f 170/170/170 175/175/175 169/169/169
f 175/175/175 171/171/171 169/169/169
f 176/176/176 171/171/171 175/175/175
f 174/174/174 177/177/177 173/173/173
f 177/177/177 171/171/171 176/176/176
f 177/177/177 178/178/178 173/173/173
f 178/178/178 177/177/177 176/176/176
f 181/181/181 180/180/180 179/179/179
f 182/182/182 181/181/181 179/179/179
f 183/183/183 180/180/180 181/181/181
f 184/184/184 181/181/181 182/182/182
f 185/185/185 180/180/180 183/183/183
f 184/184/184 182/182/182 185/185/185
f 186/186/186 180/180/180 185/185/185
f 182/182/182 186/186/186 185/185/185
