g Object649
v 6.76241636 5.96889845 0.921410503
v 6.76241636 5.96889845 -0.537761822
v -0.0019888619 5.96889845 -0.536932393
v -0.0019888619 5.96889845 0.92161786
v 5.3498994 6.00394181 1.00663429
v -0.0019888619 6.00394181 1.00663429
v 5.72148343 6.00394181 1.00663429
v 6.76241636 6.00394181 1.00663429
v 5.72148343 6.00394181 1.05992508
v 5.3498994 6.00394181 1.05992508
v -0.0782962962 6.41948556 1.22933588
v 0.0774289298 6.41948556 1.22933588
v -0.0782962962 5.93344038 1.22933588
v 0.0774289298 5.93344038 1.22912853
v -0.0782962962 5.93344038 1.22933588
v -0.0782962962 5.93344038 -0.570938967
v -0.0782962962 6.41948556 1.22933588
v -0.0782962962 6.82673502 0.305974456
v -0.0782962962 6.82673502 -0.570938967
v -0.0782962962 5.93344038 1.22933588
v 0.0774289298 5.93344038 1.22912853
v -0.0782962962 5.93344038 -0.570938967
v 0.0774289298 5.93344038 -0.571975753
v 0.0774289298 5.93344038 1.22912853
v 0.0774289298 6.41948556 1.22933588
v 0.0774289298 5.93344038 -0.571975753
v 0.0774289298 6.82673502 0.305352385
v 0.0774289298 6.82673502 -0.571975753
v 0.598517469 5.93344038 1.22912853
v 0.442792243 5.93344038 1.22933588
v 0.598517469 6.41948556 1.22933588
v 0.442792243 6.41948556 1.22933588
v 0.442792243 5.93344038 1.22933588
v 0.442792243 5.93344038 -0.570938967
v 0.442792243 6.41948556 1.22933588
v 0.442792243 6.82673502 0.305974456
v 0.442792243 6.82673502 -0.570938967
v 0.598517469 5.93344038 -0.571975753
v 0.442792243 5.93344038 -0.570938967
v 0.598517469 5.93344038 1.22912853
v 0.442792243 5.93344038 1.22933588
v 0.598517469 5.93344038 1.22912853
v 0.598517469 6.41948556 1.22933588
v 0.598517469 5.93344038 -0.571975753
v 0.598517469 6.82673502 0.305352385
v 0.598517469 6.82673502 -0.571975753
v -0.0782962962 6.82673502 -0.570938967
v 0.0774289298 6.82673502 -0.571975753
v 0.0774289298 6.82673502 0.305352385
v -0.0782962962 6.82673502 0.305974456
v -0.0782962962 6.41948556 1.22933588
v 0.0774289298 6.41948556 1.22933588
v 0.442792243 6.82673502 -0.570938967
v 0.598517469 6.82673502 -0.571975753
v 0.598517469 6.82673502 0.305352385
v 0.442792243 6.82673502 0.305974456
v 0.442792243 6.41948556 1.22933588
v 0.598517469 6.41948556 1.22933588
v 6.76241636 5.93323302 0.457137825
v -0.0019888619 5.93323302 0.457345182
v 6.76241636 5.93323302 0.658688983
v -0.0019888619 5.93323302 0.65889634
v 6.76241636 5.93323302 0.658688983
v -0.0019888619 5.93323302 0.65889634
v 6.76241636 5.96889845 0.658688983
v -0.0019888619 5.96889845 0.65889634
v 6.76241636 6.35955934 1.00663429
v 6.76241636 6.00394181 1.00663429
v 5.72148343 6.00394181 1.00663429
v 5.72148343 6.35955934 1.00663429
v 3.22718417 6.05951353 0.962881934
v 2.24638481 6.05951353 0.962881934
v 3.22718417 6.30149934 0.962881934
v 2.24638481 6.30149934 0.962881934
v 2.21030466 6.72305644 -0.167007222
v 3.26243488 6.72305644 -0.167007222
v 2.21030466 6.72305644 0.249573309
v 3.26243488 6.72305644 0.249573309
v 2.21030466 6.48604721 0.769210348
v 3.26243488 6.48604721 0.769210348
v 3.24563895 6.04810889 1.00663429
v 2.22793002 6.04810889 1.00663429
v 3.22718417 6.05951353 0.962881934
v 2.24638481 6.05951353 0.962881934
v 2.22793002 6.04810889 1.00663429
v 2.22793002 6.31311134 1.00663429
v 2.24638481 6.05951353 0.962881934
v 2.24638481 6.30149934 0.962881934
v 2.22793002 6.31311134 1.00663429
v 3.24563895 6.31311134 1.00663429
v 2.24638481 6.30149934 0.962881934
v 3.22718417 6.30149934 0.962881934
v 3.24563895 6.31311134 1.00663429
v 3.24563895 6.04810889 1.00663429
v 3.22718417 6.30149934 0.962881934
v 3.22718417 6.05951353 0.962881934
v 2.19226459 6.46593356 0.773357492
v 2.21030466 6.48604721 0.769210348
v 3.28151174 6.46593356 0.773357492
v 3.26243488 6.48604721 0.769210348
v 2.19205723 6.70791937 -0.173850009
v 2.21030466 6.72305644 -0.167007222
v 2.21030466 6.72305644 0.249573309
v 2.19226459 6.70791937 0.242730523
v 2.19226459 6.46593356 0.773357492
v 2.21030466 6.48604721 0.769210348
v 3.28151174 6.70791937 -0.174057366
v 3.26243488 6.72305644 -0.167007222
v 2.21030466 6.72305644 -0.167007222
v 2.19205723 6.70791937 -0.173850009
v 5.3498994 6.35955934 1.05992508
v 5.72148343 6.35955934 1.05992508
v 5.3498994 6.00394181 1.05992508
v 5.72148343 6.00394181 1.05992508
v 5.8857103 6.53311728 0.759879276
v 5.72148343 6.53332464 0.759879276
v 5.8857103 6.81781866 0.262222096
v 5.72148343 6.81781866 0.262222096
v 5.8857103 6.74731723 -0.177582437
v 5.72148343 6.74731723 -0.177582437
v 5.3498994 6.00394181 1.00663429
v 5.3498994 6.35955934 1.00663429
v 5.3498994 6.00394181 1.05992508
v 5.3498994 6.35955934 1.05992508
v 5.72148343 6.35955934 1.00663429
v 5.72148343 6.00394181 1.00663429
v 5.72148343 6.35955934 1.05992508
v 5.72148343 6.00394181 1.05992508
v 5.72148343 6.46593356 0.773357492
v 5.72148343 6.70791937 0.242315809
v 5.72148343 6.53332464 0.759879276
v 5.72148343 6.81781866 0.262222096
v 5.72148343 6.70791937 -0.17447208
v 5.72148343 6.74731723 -0.177582437
v 5.8857103 6.46593356 0.773357492
v 5.8857103 6.53311728 0.759879276
v 5.8857103 6.70791937 0.242315809
v 5.8857103 6.81781866 0.262222096
v 5.8857103 6.70791937 -0.17447208
v 5.8857103 6.74731723 -0.177582437
v 5.8857103 6.46593356 0.773357492
v 5.72148343 6.46593356 0.773357492
v 5.8857103 6.53311728 0.759879276
v 5.72148343 6.53332464 0.759879276
v 6.76241636 5.96889845 -0.537761822
v 6.76241636 6.70791937 0.242315809
v 6.76241636 6.70791937 -0.537761822
v 6.76241636 5.96889845 0.921410503
v 6.76241636 6.35955934 1.00663429
v 6.76241636 6.00394181 1.00663429
v 3.28151174 6.70791937 -0.174057366
v 3.26243488 6.72305644 0.249573309
v 3.26243488 6.72305644 -0.167007222
v 3.28151174 6.70791937 0.242730523
v 3.28151174 6.46593356 0.773357492
v 3.26243488 6.48604721 0.769210348
v 5.3498994 6.35955934 1.05992508
v 5.72148343 6.35955934 1.00663429
v 5.72148343 6.35955934 1.05992508
v 5.3498994 6.35955934 1.00663429
v 5.72148343 6.46593356 0.773357492
v 3.28151174 6.46593356 0.773357492
v -0.0019888619 6.35955934 1.00663429
v 2.19226459 6.46593356 0.773357492
v -0.0019888619 6.70791937 0.24293788
v 2.19226459 6.70791937 0.242730523
v 2.19205723 6.70791937 -0.173850009
v -0.00219621906 6.70791937 -0.536932393
v 3.28151174 6.70791937 -0.174057366
v 3.28151174 6.70791937 0.242730523
v 6.76241636 6.70791937 -0.537761822
v 5.72148343 6.70791937 0.242315809
v 5.8857103 6.46593356 0.773357492
v 6.76241636 6.35955934 1.00663429
v 5.72148343 6.70791937 -0.17447208
v 5.8857103 6.70791937 -0.17447208
v 6.76241636 6.70791937 0.242315809
v 5.8857103 6.70791937 0.242315809
v -0.0019888619 6.35955934 1.00663429
v 5.3498994 6.35955934 1.00663429
v 2.22793002 6.31311134 1.00663429
v -0.0019888619 6.00394181 1.00663429
v 3.24563895 6.31311134 1.00663429
v 2.22793002 6.04810889 1.00663429
v 3.24563895 6.04810889 1.00663429
v 5.3498994 6.00394181 1.00663429
vt 0.992181211 0.472598751
vt 0.992181211 0.259954819
vt 0.00786110666 0.259954819
vt 0.00786110666 0.472598751
vt 0.786272606 0.486069407
vt 0.00786110666 0.486069407
vt 0.841117422 0.486069407
vt 0.992181211 0.486069407
vt 0.841117422 0.493766925
vt 0.786272606 0.493766925
vt 0.881529391 0.654452612
vt 0.881529391 0.677545166
vt 0.951769242 0.654452612
vt 0.951769242 0.677545166
vt 0.00786110666 0.784348227
vt 0.270538906 0.784348227
vt 0.00786110666 0.714108376
vt 0.14256767 0.654452612
vt 0.270538906 0.654452612
vt 0.29170708 0.922903549
vt 0.29170708 0.945996103
vt 0.553422689 0.922903549
vt 0.553422689 0.945996103
vt 0.169508983 0.502426633
vt 0.169508983 0.572666484
vt 0.431224592 0.502426633
vt 0.303253357 0.632322248
vt 0.431224592 0.632322248
vt 0.447581818 0.891151288
vt 0.447581818 0.914243842
vt 0.517821669 0.891151288
vt 0.518783859 0.913281652
vt 0.4398843 0.632322248
vt 0.701599909 0.632322248
vt 0.4398843 0.562082397
vt 0.574590864 0.502426633
vt 0.701599909 0.502426633
vt 0.789159176 0.913281652
vt 0.788196986 0.891151288
vt 0.526481377 0.913281652
vt 0.526481377 0.891151288
vt 0.710259617 0.502426633
vt 0.710259617 0.572666484
vt 0.971975226 0.502426633
vt 0.844966181 0.632322248
vt 0.971975226 0.632322248
vt 0.43892211 0.913281652
vt 0.43892211 0.891151288
vt 0.310950875 0.891151288
vt 0.310950875 0.913281652
vt 0.164698034 0.913281652
vt 0.164698034 0.891151288
vt 0.283047372 0.945996103
vt 0.283047372 0.922903549
vt 0.155076137 0.922903549
vt 0.155076137 0.945996103
vt 0.00786110666 0.945996103
vt 0.00786110666 0.922903549
vt 0.992181211 0.852663698
vt 0.00786110666 0.852663698
vt 0.992181211 0.88249158
vt 0.00786110666 0.88249158
vt 0.992181211 0.954655811
vt 0.00786110666 0.954655811
vt 0.992181211 0.95946676
vt 0.00786110666 0.95946676
vt 0.664074509 0.706410858
vt 0.66311232 0.654452612
vt 0.51204853 0.655414802
vt 0.51204853 0.706410858
vt 0.654452612 0.715070566
vt 0.51204853 0.715070566
vt 0.654452612 0.750671586
vt 0.51204853 0.750671586
vt 0.160849275 0.502426633
vt 0.00786110666 0.502426633
vt 0.160849275 0.563044587
vt 0.00786110666 0.563044587
vt 0.160849275 0.645792904
vt 0.00786110666 0.645792904
vt 0.528405756 0.777612899
vt 0.676582976 0.777612899
vt 0.531292325 0.770877571
vt 0.673696407 0.770877571
vt 0.325383721 0.777612899
vt 0.36387131 0.777612899
vt 0.3273081 0.770877571
vt 0.361946931 0.770877571
vt 0.372531018 0.777612899
vt 0.520708238 0.777612899
vt 0.375417587 0.770877571
vt 0.517821669 0.770877571
vt 0.278236424 0.777612899
vt 0.316724013 0.777612899
vt 0.280160803 0.770877571
vt 0.315761823 0.770877571
vt 0.3273081 0.643868525
vt 0.325383721 0.640981956
vt 0.169508983 0.643868525
vt 0.172395552 0.640981956
vt 0.805516401 0.718919325
vt 0.804554211 0.715070566
vt 0.743936258 0.716032755
vt 0.744898448 0.719881514
vt 0.66311232 0.744898448
vt 0.664074509 0.741049689
vt 0.494729115 0.642906335
vt 0.491842546 0.640981956
vt 0.338854377 0.640981956
vt 0.335967808 0.642906335
vt 0.671772027 0.706410858
vt 0.726616843 0.706410858
vt 0.671772027 0.654452612
vt 0.726616843 0.654452612
vt 0.00786110666 0.891151288
vt 0.00786110666 0.915206032
vt 0.091571614 0.891151288
vt 0.091571614 0.915206032
vt 0.156038327 0.891151288
vt 0.156038327 0.915206032
vt 0.992181211 0.685242684
vt 0.940222965 0.685242684
vt 0.992181211 0.692940202
vt 0.940222965 0.692940202
vt 0.932525447 0.685242684
vt 0.880567201 0.685242684
vt 0.932525447 0.692940202
vt 0.880567201 0.692940202
vt 0.872869683 0.654452612
vt 0.795894504 0.690053632
vt 0.870945304 0.664074509
vt 0.798781073 0.705448668
vt 0.73527655 0.690053632
vt 0.73431436 0.695826771
vt 0.00786110666 0.793007935
vt 0.00978548614 0.802629832
vt 0.0848362859 0.828608955
vt 0.0819497166 0.844003991
vt 0.145454239 0.828608955
vt 0.146416429 0.834382093
vt 0.960428949 0.665036699
vt 0.984483693 0.665036699
vt 0.960428949 0.654452612
vt 0.984483693 0.654452612
vt 0.503388823 0.654452612
vt 0.389850433 0.762217863
vt 0.503388823 0.762217863
vt 0.29074489 0.654452612
vt 0.279198613 0.711221807
vt 0.279198613 0.66022575
vt 0.955618001 0.738163119
vt 0.894037857 0.742011878
vt 0.954655811 0.742011878
vt 0.895000047 0.738163119
vt 0.813213919 0.715070566
vt 0.814176109 0.718919325
vt 0.213769711 0.251295111
vt 0.158924896 0.243597593
vt 0.158924896 0.251295111
vt 0.213769711 0.243597593
vt 0.158924896 0.207034383
vt 0.51397291 0.207034383
vt 0.992181211 0.243597593
vt 0.672734217 0.207034383
vt 0.992181211 0.121399496
vt 0.672734217 0.121399496
vt 0.672734217 0.0607815424
vt 0.992181211 0.00786110666
vt 0.51397291 0.0607815424
vt 0.51397291 0.121399496
vt 0.00786110666 0.00786110666
vt 0.158924896 0.121399496
vt 0.135832342 0.207034383
vt 0.00786110666 0.243597593
vt 0.158924896 0.0607815424
vt 0.135832342 0.0607815424
vt 0.00786110666 0.121399496
vt 0.135832342 0.121399496
vt 0.155076137 0.844003991
vt 0.933487637 0.844966181
vt 0.479334079 0.837268663
vt 0.154113947 0.793007935
vt 0.627511299 0.839193042
vt 0.479334079 0.797818883
vt 0.627511299 0.799743263
vt 0.933487637 0.793970124
vn 0.00392153871 -0.984306216 0.176425325
vn -0.00392153847 -0.999992311 -0
vn -0.00392153847 -0.999992311 -0
vn 0.00392153871 -0.984306216 0.176425325
vn 0.00392153871 -0.968620061 0.248515189
vn 0.00392153871 -0.921561596 0.388212372
vn 0.00392153871 -0.968620061 0.248515189
vn 0.00392153871 -0.921561596 0.388212372
vn 0.00392153847 -0.999992311 -0
vn 0.00392153847 -0.999992311 -0
vn -0.00392153871 0.00392153871 0.999984621
vn -0.00392153871 0.00392153871 0.999984621
vn 0.00392153871 -0.00392153871 0.999984621
vn 0.00392153871 -0.00392153871 0.999984621
vn -0.999992311 0.00392153847 -0
vn -0.999992311 0.00392153847 -0
vn -0.999992311 0.00392153847 -0
vn -0.999992311 -0.00392153847 -0
vn -0.999992311 -0.00392153847 -0
vn -0.00392153847 -0.999992311 -0
vn -0.00392153847 -0.999992311 -0
vn -0.00392153847 -0.999992311 -0
vn -0.00392153847 -0.999992311 -0
vn 0.999992311 -0.00392153847 -0
vn 0.999992311 -0.00392153847 -0
vn 0.999992311 0.00392153847 -0
vn 0.999992311 0.00392153847 -0
vn 0.999992311 0.00392153847 -0
vn 0.00392153871 -0.00392153871 0.999984621
vn 0.00392153871 -0.00392153871 0.999984621
vn -0.00392153871 0.00392153871 0.999984621
vn -0.00392153871 0.00392153871 0.999984621
vn -0.999992311 -0.00392153847 -0
vn -0.999992311 -0.00392153847 -0
vn -0.999992311 -0.00392153847 -0
vn -0.999992311 -0.00392153847 -0
vn -0.999992311 -0.00392153847 -0
vn -0.00392153847 -0.999992311 -0
vn -0.00392153847 -0.999992311 -0
vn -0.00392153847 -0.999992311 -0
vn -0.00392153847 -0.999992311 -0
vn 0.999992311 -0.00392153847 -0
vn 0.999992311 -0.00392153847 -0
vn 0.999992311 0.00392153847 -0
vn 0.999992311 -0.00392153847 -0
vn 0.999992311 0.00392153847 -0
vn 0.00392153847 0.999992311 -0
vn 0.00392153847 0.999992311 -0
vn 0.00392153871 0.976463138 0.215648698
vn 0.00392153871 0.976463138 0.215648698
vn 0.00392153871 0.913718519 0.406328795
vn -0.00392153871 0.913718519 0.406328795
vn 0.00392153847 0.999992311 -0
vn 0.00392153847 0.999992311 -0
vn 0.00392153871 0.976463138 0.215648698
vn 0.00392153871 0.976463138 0.215648698
vn 0.00392153871 0.913718519 0.406328795
vn -0.00392153871 0.913718519 0.406328795
vn -0.00392153847 -0.999992311 -0
vn -0.00392153847 -0.999992311 -0
vn -0.00392153847 -0.999992311 -0
vn -0.00392153847 -0.999992311 -0
vn 0.00392153871 -0.00392153871 0.999984621
vn 0.00392153871 -0.00392153871 0.999984621
vn 0.00392153871 -0.00392153871 0.999984621
vn 0.00392153871 -0.00392153871 0.999984621
vn 0.00392153871 -0.00392153871 0.999984621
vn 0.00392153871 -0.00392153871 0.999984621
vn -0.00392153871 -0.00392153871 0.999984621
vn -0.00392153871 -0.00392153871 0.999984621
vn 0.00392153871 0.00392153871 0.999984621
vn -0.00392153871 0.00392153871 0.999984621
vn 0.00392153871 0.00392153871 0.999984621
vn -0.00392153871 0.00392153871 0.999984621
vn 0.00392153847 0.999992311 -0
vn 0.00392153847 0.999992311 -0
vn 0.00392153871 0.976463138 0.215648698
vn 0.00392153871 0.976463138 0.215648698
vn 0.00392153871 0.913718519 0.406328795
vn 0.00392153871 0.913718519 0.406328795
vn 0.00392153871 0.968620061 0.248515189
vn -0.00392153871 0.968620061 0.248515189
vn 0.00392153871 0.968620061 0.248515189
vn -0.00392153871 0.968620061 0.248515189
vn 0.921561596 -0.00392153871 0.388212372
vn 0.921561596 -0.00392153871 0.388212372
vn 0.921561596 -0.00392153871 0.388212372
vn 0.921561596 -0.00392153871 0.388212372
vn -0.00392153871 -0.968620061 0.248515189
vn -0.00392153871 -0.968620061 0.248515189
vn -0.00392153871 -0.968620061 0.248515189
vn -0.00392153871 -0.968620061 0.248515189
vn -0.921561596 0.00392153871 0.388212372
vn -0.921561596 0.00392153871 0.388212372
vn -0.921561596 0.00392153871 0.388212372
vn -0.921561596 0.00392153871 0.388212372
vn 0.00392153871 0.192155397 0.981356676
vn 0.00392153871 0.192155397 0.981356676
vn 0.00392153871 0.192155397 0.981356676
vn 0.00392153871 0.192155397 0.981356676
vn -0.639210809 0.764700048 0.0815069169
vn -0.639210809 0.764700048 0.0815069169
vn -0.670583119 0.725484661 0.154887982
vn -0.670583119 0.733327738 0.112021018
vn -0.678426197 0.670583119 0.300093612
vn -0.678426197 0.670583119 0.300093612
vn -0.00392153871 0.411761564 -0.911283181
vn -0.00392153871 0.411761564 -0.911283181
vn -0.00392153871 0.411761564 -0.911283181
vn -0.00392153871 0.411761564 -0.911283181
vn -0.00392153871 -0.00392153871 0.999984621
vn -0.00392153871 -0.00392153871 0.999984621
vn -0.00392153871 -0.00392153871 0.999984621
vn 0.00392153871 -0.00392153871 0.999984621
vn 0.00392153871 0.866660055 0.498883725
vn 0.00392153871 0.866660055 0.498883725
vn 0.00392153871 0.984306216 0.176425325
vn 0.00392153871 0.984306216 0.176425325
vn -0.00392153871 0.984306216 -0.176425325
vn -0.00392153871 0.984306216 -0.176425325
vn -0.999992311 0.00392153847 -0
vn -0.999992311 0.00392153847 -0
vn -0.999992311 0.00392153847 -0
vn -0.999992311 0.00392153847 -0
vn 0.999992311 -0.00392153847 -0
vn 0.999992311 -0.00392153847 -0
vn 0.999992311 -0.00392153847 -0
vn 0.999992311 -0.00392153847 -0
vn -0.999992311 0.00392153847 -0
vn -0.999992311 0.00392153847 -0
vn -0.999992311 0.00392153847 -0
vn -0.999992311 0.00392153847 -0
vn -0.999992311 0.00392153847 -0
vn -0.999992311 0.00392153847 -0
vn 0.999992311 -0.00392153847 -0
vn 0.999992311 -0.00392153847 -0
vn 0.999992311 -0.00392153847 -0
vn 0.999992311 -0.00392153847 -0
vn 0.999992311 -0.00392153847 -0
vn 0.999992311 -0.00392153847 -0
vn 0.00392153871 0.192155397 0.981356676
vn 0.00392153871 0.192155397 0.981356676
vn 0.00392153871 0.192155397 0.981356676
vn 0.00392153871 0.192155397 0.981356676
vn 0.999992311 -0.00392153847 -0
vn 0.999992311 -0.00392153847 -0
vn 0.999992311 -0.00392153847 -0
vn 0.999992311 -0.00392153847 -0
vn 0.999992311 -0.00392153847 -0
vn 0.999992311 -0.00392153847 -0
vn 0.623524655 0.780386203 -0.0470571923
vn 0.647053887 0.741170816 0.178849348
vn 0.623524655 0.780386203 -0.0470571923
vn 0.647053887 0.749013893 0.142476157
vn 0.662740042 0.686269274 0.299683368
vn 0.662740042 0.686269274 0.299683368
vn 0.00392153847 0.999992311 -0
vn 0.00392153871 0.960776984 0.277294445
vn 0.00392153847 0.999992311 -0
vn 0.00392153871 0.960776984 0.277294445
vn 0.00392153871 0.913718519 0.406328795
vn 0.00392153871 0.905875442 0.423526039
vn 0.00392153871 0.905875442 0.423526039
vn 0.00392153871 0.905875442 0.423526039
vn 0.00392153871 0.976463138 0.215648698
vn 0.00392153871 0.976463138 0.215648698
vn 0.00392153847 0.999992311 -0
vn 0.00392153847 0.999992311 -0
vn 0.00392153847 0.999992311 -0
vn 0.00392153871 0.976463138 0.215648698
vn 0.00392153847 0.999992311 -0
vn 0.00392153871 0.976463138 0.215648698
vn 0.00392153871 0.913718519 0.406328795
vn 0.00392153871 0.913718519 0.406328795
vn 0.00392153847 0.999992311 -0
vn 0.00392153847 0.999992311 -0
vn 0.00392153871 0.976463138 0.215648698
vn 0.00392153871 0.976463138 0.215648698
vn -0.00392153871 0.00392153871 0.999984621
vn 0.00392153871 -0.00392153871 0.999984621
vn -0.00392153871 -0.00392153871 0.999984621
vn -0.00392153871 0.00392153871 0.999984621
vn -0.00392153871 -0.00392153871 0.999984621
vn 0.00392153871 0.00392153871 0.999984621
vn -0.00392153871 -0.00392153871 0.999984621
vn 0.00392153871 -0.00392153871 0.999984621
g Object649_0
f 3/3/3 2/2/2 1/1/1
f 4/4/4 3/3/3 1/1/1
f 4/4/4 1/1/1 5/5/5
f 6/6/6 4/4/4 5/5/5
f 5/5/5 1/1/1 7/7/7
f 7/7/7 1/1/1 8/8/8
f 7/7/7 9/9/9 5/5/5
f 5/5/5 9/9/9 10/10/10
f 13/13/13 12/12/12 11/11/11
f 14/14/14 12/12/12 13/13/13
f 17/17/17 16/16/16 15/15/15
f 18/18/18 16/16/16 17/17/17
f 19/19/19 16/16/16 18/18/18
f 22/22/22 21/21/21 20/20/20
f 23/23/23 21/21/21 22/22/22
f 26/26/26 25/25/25 24/24/24
f 27/27/27 25/25/25 26/26/26
f 28/28/28 27/27/27 26/26/26
f 31/31/31 30/30/30 29/29/29
f 32/32/32 30/30/30 31/31/31
f 35/35/35 34/34/34 33/33/33
f 36/36/36 34/34/34 35/35/35
f 37/37/37 34/34/34 36/36/36
f 40/40/40 39/39/39 38/38/38
f 41/41/41 39/39/39 40/40/40
f 44/44/44 43/43/43 42/42/42
f 45/45/45 43/43/43 44/44/44
f 46/46/46 45/45/45 44/44/44
f 49/49/49 48/48/48 47/47/47
f 50/50/50 49/49/49 47/47/47
f 51/51/51 49/49/49 50/50/50
f 52/52/52 49/49/49 51/51/51
f 55/55/55 54/54/54 53/53/53
f 56/56/56 55/55/55 53/53/53
f 57/57/57 55/55/55 56/56/56
f 58/58/58 55/55/55 57/57/57
f 61/61/61 60/60/60 59/59/59
f 62/62/62 60/60/60 61/61/61
f 65/65/65 64/64/64 63/63/63
f 66/66/66 64/64/64 65/65/65
f 69/69/69 68/68/68 67/67/67
f 70/70/70 69/69/69 67/67/67
f 73/73/73 72/72/72 71/71/71
f 74/74/74 72/72/72 73/73/73
f 77/77/77 76/76/76 75/75/75
f 78/78/78 76/76/76 77/77/77
f 79/79/79 78/78/78 77/77/77
f 80/80/80 78/78/78 79/79/79
f 83/83/83 82/82/82 81/81/81
f 84/84/84 82/82/82 83/83/83
f 87/87/87 86/86/86 85/85/85
f 88/88/88 86/86/86 87/87/87
f 91/91/91 90/90/90 89/89/89
f 92/92/92 90/90/90 91/91/91
f 95/95/95 94/94/94 93/93/93
f 96/96/96 94/94/94 95/95/95
f 99/99/99 98/98/98 97/97/97
f 100/100/100 98/98/98 99/99/99
f 103/103/103 102/102/102 101/101/101
f 104/104/104 103/103/103 101/101/101
f 105/105/105 103/103/103 104/104/104
f 106/106/106 103/103/103 105/105/105
f 109/109/109 108/108/108 107/107/107
f 110/110/110 109/109/109 107/107/107
f 113/113/113 112/112/112 111/111/111
f 114/114/114 112/112/112 113/113/113
f 117/117/117 116/116/116 115/115/115
f 118/118/118 116/116/116 117/117/117
f 119/119/119 118/118/118 117/117/117
f 120/120/120 118/118/118 119/119/119
f 123/123/123 122/122/122 121/121/121
f 124/124/124 122/122/122 123/123/123
f 127/127/127 126/126/126 125/125/125
f 128/128/128 126/126/126 127/127/127
f 131/131/131 130/130/130 129/129/129
f 132/132/132 130/130/130 131/131/131
f 132/132/132 133/133/133 130/130/130
f 134/134/134 133/133/133 132/132/132
f 137/137/137 136/136/136 135/135/135
f 138/138/138 136/136/136 137/137/137
f 138/138/138 137/137/137 139/139/139
f 140/140/140 138/138/138 139/139/139
f 143/143/143 142/142/142 141/141/141
f 144/144/144 142/142/142 143/143/143
f 147/147/147 146/146/146 145/145/145
f 146/146/146 148/148/148 145/145/145
f 149/149/149 148/148/148 146/146/146
f 150/150/150 148/148/148 149/149/149
f 153/153/153 152/152/152 151/151/151
f 151/151/151 152/152/152 154/154/154
f 155/155/155 154/154/154 152/152/152
f 156/156/156 155/155/155 152/152/152
f 159/159/159 158/158/158 157/157/157
f 157/157/157 158/158/158 160/160/160
f 160/160/160 158/158/158 161/161/161
f 162/162/162 160/160/160 161/161/161
f 163/163/163 160/160/160 162/162/162
f 164/164/164 163/163/163 162/162/162
f 165/165/165 163/163/163 164/164/164
f 166/166/166 165/165/165 164/164/164
f 166/166/166 167/167/167 165/165/165
f 165/165/165 167/167/167 168/168/168
f 167/167/167 169/169/169 168/168/168
f 170/170/170 162/162/162 161/161/161
f 169/169/169 171/171/171 168/168/168
f 172/172/172 170/170/170 161/161/161
f 161/161/161 158/158/158 173/173/173
f 158/158/158 174/174/174 173/173/173
f 172/172/172 175/175/175 170/170/170
f 170/170/170 175/175/175 169/169/169
f 175/175/175 171/171/171 169/169/169
f 176/176/176 171/171/171 175/175/175
f 174/174/174 177/177/177 173/173/173
f 177/177/177 171/171/171 176/176/176
f 177/177/177 178/178/178 173/173/173
f 178/178/178 177/177/177 176/176/176
f 181/181/181 180/180/180 179/179/179
f 182/182/182 181/181/181 179/179/179
f 183/183/183 180/180/180 181/181/181
f 184/184/184 181/181/181 182/182/182
f 185/185/185 180/180/180 183/183/183
f 184/184/184 182/182/182 185/185/185
f 186/186/186 180/180/180 185/185/185
f 182/182/182 186/186/186 185/185/185
