g Plane088
v 3.88192478 -5.54393348 3.58076438E-05
v 5.04456908 2.46086994 3.58076438E-05
v 8.42322499 -2.3641302 3.58076438E-05
v -1.72325014 2.46086994 3.58076438E-05
v -8.49133205 2.46086994 3.58076438E-05
v -0.659375439 -8.72373676 3.58076438E-05
vt 0.912686355 0.44613465
vt 0.555293195 0.110573198
vt 0.911877774 0.109764616
vt 0.319995887 0.44613465
vt 0.0855071619 0.782504684
vt 0.912686355 0.781696102
vn 1.91946015E-10 -1.54294697E-07 1
vn -1.15726053E-07 -2.32027944E-07 1
vn -1.15726053E-07 -2.32027944E-07 1
vn 1.91946015E-10 -1.24292392E-07 1
vn 1.91946015E-10 -1.91946015E-10 1
vn 1.91946015E-10 -1.91946015E-10 1
g Plane088_0
f 3/3/3 2/2/2 1/1/1
f 2/2/2 4/4/4 1/1/1
f 1/1/1 4/4/4 5/5/5
f 6/6/6 1/1/1 5/5/5
