g pSphere1
v 38.1605186 0.921031117 -15.0587111
v 17.3934898 0.921031117 -8.31168079
v 14.795722 0.921031117 -13.4097509
v 32.4611511 0.921031117 -26.2442818
v 40.1243782 0.921031117 -2.65976954
v 10.7497663 0.921031117 -17.4554138
v 18.2885208 0.921031117 -2.65977812
v 23.5844669 0.921031117 -35.120945
v 38.1605186 0.921031117 9.73916721
v 5.65149117 0.921031117 -20.0532837
v 17.3933868 0.921031117 2.99213338
v 12.3989401 0.921031117 -40.8203392
v 32.4611282 0.921031117 20.9246483
v 2.20043034E-06 0.921031117 -20.9483986
v 14.795722 0.921031117 8.09019279
v 4.97817973E-06 0.921031117 -42.784214
v 23.5844669 0.921031117 29.8013096
v -5.65145683 0.921031117 -20.0532837
v 10.7497663 0.921031117 12.135747
v -12.3989429 0.921031117 -40.8203392
v 12.3989401 0.921031117 35.5006981
v -10.7497663 0.921031117 -17.4554138
v 5.65149784 0.921031117 14.7337255
v -23.5844669 0.921031117 -35.120945
v 3.7820937E-06 0.921031117 37.4646034
v -14.7957211 0.921031117 -13.4097509
v 1.65538768E-06 0.921031117 15.6288233
v -32.4611282 0.921031117 -26.2442818
v -12.3989429 0.921031117 35.5006981
v -17.3934155 0.921031117 -8.31168079
v -5.65145206 0.921031117 14.7337255
v -38.1605186 0.921031117 -15.058713
v -23.5844669 0.921031117 29.8013096
v -18.2885208 0.921031117 -2.65977812
v -10.7497683 0.921031117 12.135747
v -40.1243782 0.921031117 -2.65976954
v -32.4611282 0.921031117 20.9246483
v -17.3934155 0.921031117 2.99213338
v -14.7957211 0.921031117 8.09019279
v -38.1605186 0.921031117 9.73916721
vt 0.878566623 0.623001933
vt 0.672549725 0.556068778
vt 0.646778941 0.606643617
vt 0.82202667 0.733967066
vt 0.898048818 0.499999702
vt 0.606641471 0.646778107
vt 0.68142873 0.499999762
vt 0.733966589 0.822026968
vt 0.878566623 0.37699753
vt 0.556064606 0.672550023
vt 0.672548711 0.443930656
vt 0.623001873 0.8785671
vt 0.822026432 0.266033292
vt 0.499999702 0.681429863
vt 0.646778941 0.393355966
vt 0.499999732 0.898049474
vt 0.733966589 0.177973419
vt 0.443935066 0.672550023
vt 0.606641471 0.353222549
vt 0.376997411 0.8785671
vt 0.623001873 0.121433288
vt 0.393357903 0.646778107
vt 0.556064665 0.32744959
vt 0.266032755 0.822026968
vt 0.499999702 0.101950645
vt 0.353220493 0.606643617
vt 0.499999702 0.318569899
vt 0.177972913 0.733967066
vt 0.376997411 0.121433288
vt 0.327450335 0.556068778
vt 0.443935126 0.32744959
vt 0.121432751 0.623001933
vt 0.266032755 0.177973419
vt 0.318570554 0.499999762
vt 0.393357873 0.353222549
vt 0.101950556 0.499999702
vt 0.177972913 0.266033292
vt 0.327450335 0.443930656
vt 0.353220493 0.393355966
vt 0.121432751 0.37699753
vn -0 1 0
vn -0 1 0
vn -0 1 0
vn -0 1 0
vn -0 1 0
vn -0 1 0
vn -0 1 0
vn -0 1 0
vn -0 1 0
vn -0 1 0
vn -0 1 0
vn -0 1 0
vn -0 1 0
vn -0 1 0
vn -0 1 0
vn -0 1 0
vn -0 1 0
vn -0 1 0
vn -0 1 0
vn -0 1 0
vn -0 1 0
vn -0 1 0
vn -0 1 0
vn -0 1 0
vn -0 1 0
vn -0 1 0
vn -0 1 0
vn -0 1 0
vn -0 1 0
vn -0 1 0
vn -0 1 0
vn -0 1 0
vn -0 1 0
vn -0 1 0
vn -0 1 0
vn -0 1 0
vn -0 1 0
vn -0 1 0
vn -0 1 0
vn -0 1 0
g pSphere1_0
f 3/3/3 2/2/2 1/1/1
f 4/4/4 3/3/3 1/1/1
f 1/1/1 2/2/2 5/5/5
f 6/6/6 3/3/3 4/4/4
f 2/2/2 7/7/7 5/5/5
f 8/8/8 6/6/6 4/4/4
f 5/5/5 7/7/7 9/9/9
f 10/10/10 6/6/6 8/8/8
f 7/7/7 11/11/11 9/9/9
f 12/12/12 10/10/10 8/8/8
f 9/9/9 11/11/11 13/13/13
f 14/14/14 10/10/10 12/12/12
f 11/11/11 15/15/15 13/13/13
f 16/16/16 14/14/14 12/12/12
f 13/13/13 15/15/15 17/17/17
f 18/18/18 14/14/14 16/16/16
f 15/15/15 19/19/19 17/17/17
f 20/20/20 18/18/18 16/16/16
f 17/17/17 19/19/19 21/21/21
f 22/22/22 18/18/18 20/20/20
f 19/19/19 23/23/23 21/21/21
f 24/24/24 22/22/22 20/20/20
f 21/21/21 23/23/23 25/25/25
f 26/26/26 22/22/22 24/24/24
f 23/23/23 27/27/27 25/25/25
f 28/28/28 26/26/26 24/24/24
f 25/25/25 27/27/27 29/29/29
f 30/30/30 26/26/26 28/28/28
f 27/27/27 31/31/31 29/29/29
f 32/32/32 30/30/30 28/28/28
f 29/29/29 31/31/31 33/33/33
f 34/34/34 30/30/30 32/32/32
f 31/31/31 35/35/35 33/33/33
f 36/36/36 34/34/34 32/32/32
f 33/33/33 35/35/35 37/37/37
f 38/38/38 34/34/34 36/36/36
f 35/35/35 39/39/39 37/37/37
f 40/40/40 38/38/38 36/36/36
f 37/37/37 39/39/39 40/40/40
f 39/39/39 38/38/38 40/40/40
