g V_pcylinder_uv
v 0.769571185 0 -11.7416134
v -9.91821253E-07 0 -11.1899557
v -1.03332275E-06 0 -11.766943
v 0.731835604 0 -11.1658678
v -9.27225756E-07 0 -10.6129675
v 0.694099963 0 -10.5901222
v 1.53586543 0 -11.6660585
v 1.46055496 0 -11.094017
v 1.38524425 0 -10.5219765
v 2.07047582 0 -10.4089193
v 2.1830399 0 -10.9748135
v 2.29560399 0 -11.5407076
v 2.74683809 0 -10.2513399
v 2.89617372 0 -10.8086672
v 3.04550886 0 -11.3659935
v 3.78230238 0 -11.1423483
v 3.59683895 0 -10.5959873
v 3.41137505 0 -10.0496264
v 4.50293016 0 -10.8710346
v 4.28213072 0 -10.3379784
v 4.06133127 0 -9.80492115
v 4.69395304 0 -9.51836491
v 4.94914532 0 -10.0358429
v 5.2043376 0 -10.5533209
v 5.30648375 0 -9.19110012
v 5.59497738 0 -9.69078541
v 5.88347054 0 -10.1904707
v 6.53727484 0 -9.78374958
v 6.21672249 0 -9.30400753
v 5.89616919 0 -8.82426453
v 7.16312742 0 -9.33516884
v 6.81188631 0 -8.87742329
v 6.46064425 0 -8.41967678
v 6.99754381 0 -7.9791503
v 7.37797356 0 -8.4129467
v 7.75840425 0 -8.84674263
v 7.50450134 0 -7.50450134
v 7.91249228 0 -7.91249228
v 8.32048416 0 -8.32048416
v 8.84674263 0 -7.75840425
v 8.4129467 0 -7.37797403
v 7.9791503 0 -6.99754381
v 9.33516884 0 -7.16312742
v 8.87742329 0 -6.81188583
v 8.41967678 0 -6.46064425
v 8.82426453 0 -5.89616919
v 9.30400753 0 -6.21672249
v 9.78374863 0 -6.53727531
v 9.19110012 0 -5.30648375
v 9.69078541 0 -5.59497786
v 10.1904697 0 -5.88347149
v 10.5533199 0 -5.20433807
v 10.0358419 0 -4.94914532
v 9.51836491 0 -4.69395304
v 10.8710346 0 -4.50293016
v 10.3379784 0 -4.28213072
v 9.80492115 0 -4.06133127
v 10.0496264 0 -3.41137505
v 10.5959873 0 -3.59683871
v 11.1423483 0 -3.78230214
v 10.2513399 0 -2.74683809
v 10.8086672 0 -2.89617372
v 11.3659935 0 -3.04550886
v 11.5407076 0 -2.29560399
v 10.9748144 0 -2.1830399
v 10.4089193 0 -2.07047582
v 11.6660585 0 -1.53586555
v 11.094017 0 -1.46055508
v 10.5219765 0 -1.38524437
v 10.5901222 0 -0.69410038
v 11.1658678 0 -0.731836081
v 11.7416134 0 -0.769571722
v 10.6129675 0 0
v 11.1899557 0 0
v 11.766943 0 0
v 11.7416134 0 0.769571722
v 11.1658678 0 0.731836081
v 10.5901222 0 0.69410038
v 11.6660585 0 1.53586555
v 11.094017 0 1.46055508
v 10.5219765 0 1.38524437
v 10.4089193 0 2.07047582
v 10.9748135 0 2.1830399
v 11.5407076 0 2.29560399
v 10.2513399 0 2.74683809
v 10.8086672 0 2.89617324
v 11.3659935 0 3.04550886
v 11.1423483 0 3.78230214
v 10.5959873 0 3.59683895
v 10.0496264 0 3.41137505
v 10.8710346 0 4.50293016
v 10.3379784 0 4.28213072
v 9.80492115 0 4.06133127
v 9.51836491 0 4.69395304
v 10.0358429 0 4.94914532
v 10.5533199 0 5.20433807
v 9.19110012 0 5.30648375
v 9.69078541 0 5.59497786
v 10.1904697 0 5.88347149
v 9.78374863 0 6.53727531
v 9.30400658 0 6.21672249
v 8.82426453 0 5.89616919
v 9.33516884 0 7.16312742
v 8.87742329 0 6.81188631
v 8.41967678 0 6.46064425
v 7.9791503 0 6.99754381
v 8.4129467 0 7.37797451
v 8.84674263 0 7.75840425
v 7.50450134 0 7.50450134
v 7.91249228 0 7.91249228
v 8.32048416 0 8.32048416
v 7.75840425 0 8.84674263
v 7.37797403 0 8.4129467
v 6.99754381 0 7.9791503
v 7.16312742 0 9.33516884
v 6.81188583 0 8.87742329
v 6.46064425 0 8.41967678
v 5.89616919 0 8.82426453
v 6.21672249 0 9.30400753
v 6.53727484 0 9.78374958
v 5.30648375 0 9.19110012
v 5.59497738 0 9.69078541
v 5.88347054 0 10.1904707
v 5.2043376 0 10.5533209
v 4.94914532 0 10.0358429
v 4.69395304 0 9.51836491
v 4.50293016 0 10.8710346
v 4.28213024 0 10.3379784
v 4.06133175 0 9.80492115
v 3.41137505 0 10.0496264
v 3.59683895 0 10.5959873
v 3.78230238 0 11.1423483
v 2.74683833 0 10.2513399
v 2.89617395 0 10.8086672
v 3.04550886 0 11.3659935
v 2.29560447 0 11.5407076
v 2.18304038 0 10.9748144
v 2.07047629 0 10.4089193
v 1.53586626 0 11.6660585
v 1.46055555 0 11.094017
v 1.38524508 0 10.5219765
v 0.694101036 0 10.5901222
v 0.731836855 0 11.1658678
v 0.769572496 0 11.7416134
v 7.95262281E-07 0 10.6129675
v 8.67843596E-07 0 11.1899557
v 9.18881824E-07 0 11.766943
v -0.769570649 0 11.7416134
v -0.731835067 0 11.1658678
v -0.694099486 0 10.5901222
v -1.53586435 0 11.6660585
v -1.46055388 0 11.094017
v -1.3852433 0 10.5219765
v -2.07047439 0 10.4089193
v -2.18303847 0 10.9748135
v -2.29560256 0 11.5407076
v -2.74683642 0 10.2513399
v -2.89617181 0 10.8086672
v -3.04550719 0 11.3659945
v -3.78230095 0 11.1423483
v -3.59683704 0 10.5959883
v -3.41137314 0 10.0496273
v -4.50292826 0 10.8710365
v -4.28212881 0 10.3379793
v -4.06132984 0 9.8049221
v -4.69395065 0 9.51836586
v -4.94914341 0 10.0358429
v -5.20433664 0 10.5533228
v -5.30648184 0 9.19110107
v -5.59497547 0 9.69078732
v -5.8834691 0 10.1904726
v -6.53727341 0 9.78375053
v -6.21672058 0 9.30400848
v -5.89616728 0 8.82426643
v -7.16312551 0 9.3351717
v -6.81188393 0 8.87742519
v -6.46064329 0 8.41967773
v -6.99754238 0 7.97915125
v -7.37797308 0 8.41294861
v -7.7584033 0 8.84674549
v -7.50449944 0 7.50450277
v -7.91249132 0 7.91249418
v -8.32048225 0 8.32048607
v -8.84674168 0 7.75840664
v -8.41294575 0 7.37797642
v -7.97914839 0 6.9975462
v -9.33516788 0 7.16312981
v -8.87742043 0 6.81188822
v -8.41967392 0 6.46064663
v -8.82426262 0 5.89617157
v -9.30400467 0 6.21672487
v -9.78374863 0 6.5372777
v -9.19109726 0 5.30648613
v -9.69078445 0 5.59498024
v -10.1904697 0 5.88347387
v -10.5533199 0 5.20434093
v -10.035841 0 4.9491477
v -9.518363 0 4.69395542
v -10.8710346 0 4.50293398
v -10.3379774 0 4.28213406
v -9.8049202 0 4.06133413
v -10.0496254 0 3.41137815
v -10.5959864 0 3.59684205
v -11.1423483 0 3.78230572
v -10.251338 0 2.74684143
v -10.8086672 0 2.89617658
v -11.3659935 0 3.04551268
v -11.5407076 0 2.29560781
v -10.9748135 0 2.18304348
v -10.4089184 0 2.07047939
v -11.6660585 0 1.53586984
v -11.094017 0 1.46055901
v -10.5219765 0 1.38524818
v -10.5901222 0 0.694104373
v -11.1658678 0 0.731840253
v -11.7416134 0 0.769576192
v -10.6129675 0 4.08454889E-06
v -11.1899557 0 4.33921787E-06
v -11.766943 0 4.5869092E-06
v -11.7416134 0 -0.769567013
v -11.1658678 0 -0.73183167
v -10.5901222 0 -0.694096267
v -11.6660585 0 -1.5358609
v -11.094017 0 -1.46055055
v -10.5219765 0 -1.38524032
v -10.4089193 0 -2.07047153
v -10.9748144 0 -2.18303514
v -11.5407076 0 -2.29559898
v -10.2513399 0 -2.7468338
v -10.8086672 0 -2.89616871
v -11.3659954 0 -3.04550409
v -11.1423492 0 -3.78229737
v -10.5959883 0 -3.59683394
v -10.0496273 0 -3.41137052
v -10.8710375 0 -4.5029254
v -10.3379793 0 -4.28212595
v -9.8049221 0 -4.06132698
v -9.51836681 0 -4.69394779
v -10.0358458 0 -4.94914055
v -10.5533237 0 -5.20433331
v -9.19110203 0 -5.30647945
v -9.69078732 0 -5.59497309
v -10.1904736 0 -5.88346672
v -9.78375244 0 -6.53727055
v -9.30401039 0 -6.2167182
v -8.82426739 0 -5.89616585
v -9.33517361 0 -7.16312313
v -8.87742805 0 -6.81188202
v -8.41967964 0 -6.46064091
v -7.97915411 0 -6.99754
v -8.41295147 0 -7.37797022
v -8.8467474 0 -7.75840092
v -7.50450468 0 -7.50449705
v -7.91249657 0 -7.91248941
v -8.32048893 0 -8.3204813
v -7.75840902 0 -8.84674072
v -7.37797832 0 -8.41294384
v -6.99754763 0 -7.97914648
v -7.16313219 0 -9.33516598
v -6.81189013 0 -8.87741947
v -6.46064854 0 -8.41967392
v -5.896173 0 -8.82426167
v -6.21672678 0 -9.30400467
v -6.53727961 0 -9.78374577
v -5.30648708 0 -9.19109726
v -5.59498167 0 -9.69078255
v -5.8834753 0 -10.1904688
v -5.20434189 0 -10.553319
v -4.94914913 0 -10.035841
v -4.69395638 0 -9.518363
v -4.50293446 0 -10.8710337
v -4.28213501 0 -10.3379774
v -4.06133461 0 -9.8049202
v -3.41137815 0 -10.0496254
v -3.59684253 0 -10.5959864
v -3.78230643 0 -11.1423464
v -2.74684143 0 -10.251338
v -2.89617705 0 -10.8086653
v -3.04551268 0 -11.3659906
v -2.29560733 0 -11.5407057
v -2.18304276 0 -10.9748116
v -2.07047868 0 -10.4089184
v -1.53586817 0 -11.6660566
v -1.46055734 0 -11.094017
v -1.38524675 0 -10.5219765
v -0.69410193 0 -10.5901222
v -0.731837749 0 -11.1658678
v -9.27225756E-07 0 -10.6129675
v -0.76957351 0 -11.7416134
v -9.91821253E-07 0 -11.1899557
v -1.03332275E-06 0 -11.766943
vt 0.0230187029 0.801821411
vt 0.0129443109 0.500796914
vt 0.0129443109 0.801821411
vt 0.0230187029 0.500796914
vt 0.0129443109 0.199772447
vt 0.0230187029 0.199772447
vt 0.0330930948 0.801821411
vt 0.0330931135 0.500796914
vt 0.0330930948 0.199772447
vt 0.0431675613 0.199772447
vt 0.0431675613 0.500796914
vt 0.0431675613 0.801821411
vt 0.0532420278 0.199772447
vt 0.0532420017 0.500796914
vt 0.0532420278 0.801821411
vt 0.0633163899 0.801821411
vt 0.0633163899 0.500796914
vt 0.0633163899 0.199772447
vt 0.0733907521 0.801821411
vt 0.0733907819 0.500796914
vt 0.0733907521 0.199772447
vt 0.0834652334 0.199772447
vt 0.0834652334 0.500796914
vt 0.0834652334 0.801821411
vt 0.0935397148 0.199772447
vt 0.0935397148 0.500796914
vt 0.0935397148 0.801821411
vt 0.103614211 0.801821411
vt 0.103614211 0.500796914
vt 0.103614211 0.199772447
vt 0.113688707 0.801821411
vt 0.113688678 0.500796914
vt 0.113688707 0.199772447
vt 0.123763084 0.199772447
vt 0.123763084 0.500796914
vt 0.123763084 0.801821411
vt 0.133837461 0.199772447
vt 0.133837491 0.500796914
vt 0.133837461 0.801821411
vt 0.143911928 0.801821411
vt 0.143911928 0.500796914
vt 0.143911928 0.199772447
vt 0.153986394 0.801821411
vt 0.15398638 0.500796914
vt 0.153986394 0.199772447
vt 0.164060786 0.199772447
vt 0.164060786 0.500796914
vt 0.164060786 0.801821411
vt 0.174135178 0.199772447
vt 0.174135193 0.500796914
vt 0.174135178 0.801821411
vt 0.18420966 0.801821411
vt 0.18420966 0.500796974
vt 0.18420966 0.199772567
vt 0.194284141 0.801821411
vt 0.194284141 0.500797033
vt 0.194284141 0.199772686
vt 0.204358622 0.199772686
vt 0.204358608 0.500797033
vt 0.204358622 0.801821411
vt 0.214433104 0.199772686
vt 0.214433074 0.500797033
vt 0.214433104 0.801821411
vt 0.224507481 0.801821411
vt 0.224507481 0.500797033
vt 0.224507481 0.199772686
vt 0.234581858 0.801821411
vt 0.234581903 0.500797033
vt 0.234581858 0.199772686
vt 0.244656369 0.199772686
vt 0.244656369 0.500797033
vt 0.244656369 0.801821411
vt 0.25473088 0.199772686
vt 0.25473085 0.500797033
vt 0.25473088 0.801821411
vt 0.264805228 0.801821411
vt 0.264805228 0.500797033
vt 0.264805228 0.199772686
vt 0.274879575 0.801821411
vt 0.274879605 0.500797033
vt 0.274879575 0.199772686
vt 0.284954071 0.199772686
vt 0.284954071 0.500797033
vt 0.284954071 0.801821411
vt 0.295028567 0.199772686
vt 0.295028567 0.500797033
vt 0.295028567 0.801821411
vt 0.305103034 0.801821411
vt 0.305103034 0.500797033
vt 0.305103034 0.199772686
vt 0.3151775 0.801821411
vt 0.3151775 0.500797033
vt 0.3151775 0.199772686
vt 0.325251877 0.199772686
vt 0.325251877 0.500797033
vt 0.325251877 0.801821411
vt 0.335326254 0.199772686
vt 0.335326284 0.500797033
vt 0.335326254 0.801821411
vt 0.345400751 0.801821411
vt 0.345400751 0.500797033
vt 0.345400751 0.199772686
vt 0.355475247 0.801821411
vt 0.355475187 0.500797033
vt 0.355475247 0.199772686
vt 0.365549624 0.199772686
vt 0.365549594 0.500797033
vt 0.365549624 0.801821411
vt 0.375623971 0.199772686
vt 0.375624001 0.500797033
vt 0.375623971 0.801821411
vt 0.385698467 0.801821411
vt 0.385698467 0.500797033
vt 0.385698467 0.199772686
vt 0.395772964 0.801821411
vt 0.395772964 0.500797033
vt 0.395772964 0.199772686
vt 0.40584743 0.199772686
vt 0.40584743 0.500797033
vt 0.40584743 0.801821411
vt 0.415921926 0.199772686
vt 0.415921897 0.500797033
vt 0.415921926 0.801821411
vt 0.425996304 0.801821411
vt 0.425996304 0.500797033
vt 0.425996304 0.199772686
vt 0.436070681 0.801821411
vt 0.43607071 0.500797033
vt 0.436070681 0.199772686
vt 0.446145177 0.199772686
vt 0.446145177 0.500797033
vt 0.446145177 0.801821411
vt 0.456219643 0.199772686
vt 0.456219643 0.500797033
vt 0.456219643 0.801821411
vt 0.46629414 0.801821411
vt 0.46629414 0.500797033
vt 0.46629414 0.199772686
vt 0.476368636 0.801821411
vt 0.476368606 0.500797033
vt 0.476368636 0.199772686
vt 0.486442983 0.199772686
vt 0.486442983 0.500797033
vt 0.486442983 0.801821411
vt 0.49651736 0.199772686
vt 0.49651736 0.500797033
vt 0.49651736 0.801821411
vt 0.506591797 0.801821411
vt 0.506591797 0.500797033
vt 0.506591797 0.199772686
vt 0.516666293 0.801821411
vt 0.516666293 0.500797033
vt 0.516666293 0.199772686
vt 0.52674067 0.199772686
vt 0.52674067 0.500797033
vt 0.52674067 0.801821411
vt 0.536815047 0.199772686
vt 0.536815047 0.500797033
vt 0.536815047 0.801821411
vt 0.546889544 0.801821411
vt 0.546889544 0.500797033
vt 0.546889544 0.199772686
vt 0.55696404 0.801821411
vt 0.55696404 0.500797033
vt 0.55696404 0.199772686
vt 0.567038536 0.199772686
vt 0.567038536 0.500797033
vt 0.567038536 0.801821411
vt 0.577113032 0.199772686
vt 0.577113032 0.500797033
vt 0.577113032 0.801821411
vt 0.587187529 0.801821411
vt 0.587187529 0.500797033
vt 0.587187529 0.199772686
vt 0.597262025 0.801821411
vt 0.597261965 0.500797033
vt 0.597262025 0.199772686
vt 0.607336402 0.199772686
vt 0.607336342 0.500797033
vt 0.607336402 0.801821411
vt 0.617410719 0.199772686
vt 0.617410779 0.500797033
vt 0.617410719 0.801821411
vt 0.627485216 0.801821411
vt 0.627485216 0.500797033
vt 0.627485216 0.199772686
vt 0.637559712 0.801821411
vt 0.637559652 0.500797033
vt 0.637559712 0.199772686
vt 0.647634208 0.199772686
vt 0.647634149 0.500797033
vt 0.647634089 0.801821411
vt 0.657708704 0.199772686
vt 0.657708585 0.500797033
vt 0.657708466 0.801821411
vt 0.667782962 0.801821411
vt 0.667783022 0.500797033
vt 0.667783082 0.199772686
vt 0.677857459 0.801821411
vt 0.677857518 0.500797033
vt 0.677857459 0.199772686
vt 0.687931895 0.199772686
vt 0.687931895 0.500797033
vt 0.687931776 0.801821411
vt 0.698006392 0.199772686
vt 0.698006272 0.500797033
vt 0.698006153 0.801821411
vt 0.708080649 0.801821411
vt 0.708080709 0.500797033
vt 0.708080769 0.199772686
vt 0.718155146 0.801821411
vt 0.718155146 0.500797033
vt 0.718155146 0.199772686
vt 0.728229642 0.199772686
vt 0.728229582 0.500797033
vt 0.728229523 0.801821411
vt 0.738304079 0.199772686
vt 0.738304019 0.500797033
vt 0.7383039 0.801821411
vt 0.748378396 0.801821411
vt 0.748378456 0.500797033
vt 0.748378515 0.199772686
vt 0.758452892 0.801821411
vt 0.758452892 0.500797033
vt 0.758452892 0.199772686
vt 0.768527389 0.199772686
vt 0.768527389 0.500797033
vt 0.768527389 0.801821411
vt 0.778601885 0.199772686
vt 0.778601885 0.500797033
vt 0.778601885 0.801821411
vt 0.788676381 0.801821411
vt 0.788676381 0.500797033
vt 0.788676381 0.199772686
vt 0.798750818 0.801821411
vt 0.798750818 0.500797033
vt 0.798750818 0.199772686
vt 0.808825314 0.199772686
vt 0.808825314 0.500797033
vt 0.808825314 0.801821411
vt 0.81889981 0.199772686
vt 0.81889981 0.500797033
vt 0.81889981 0.801821411
vt 0.828974187 0.801821411
vt 0.828974187 0.500797033
vt 0.828974187 0.199772686
vt 0.839048564 0.801821411
vt 0.839048505 0.500797033
vt 0.839048564 0.199772686
vt 0.849122882 0.199772686
vt 0.849122882 0.500797033
vt 0.849122882 0.801821411
vt 0.859197259 0.199772686
vt 0.859197259 0.500797033
vt 0.859197259 0.801821411
vt 0.869271755 0.801821411
vt 0.869271755 0.500797033
vt 0.869271755 0.199772686
vt 0.879346311 0.801821411
vt 0.879346311 0.500797033
vt 0.879346311 0.199772686
vt 0.889420748 0.199772686
vt 0.889420748 0.500797033
vt 0.889420748 0.801821411
vt 0.899495244 0.199772686
vt 0.899495244 0.500797033
vt 0.899495244 0.801821411
vt 0.909569621 0.801821411
vt 0.909569621 0.500797033
vt 0.909569621 0.199772686
vt 0.919643998 0.801821411
vt 0.919643998 0.500797033
vt 0.919643998 0.199772686
vt 0.929718494 0.199772686
vt 0.929718494 0.500797033
vt 0.929718494 0.801821411
vt 0.939792991 0.199772686
vt 0.939792991 0.500797033
vt 0.939792991 0.801821411
vt 0.949867487 0.801821411
vt 0.949867487 0.500797033
vt 0.949867487 0.199772686
vt 0.959941924 0.801821411
vt 0.959941924 0.500797033
vt 0.959941924 0.199772686
vt 0.970016241 0.199772686
vt 0.970016241 0.500797033
vt 0.980090618 0.199772686
vt 0.970016241 0.801821411
vt 0.980090618 0.500797033
vt 0.980090618 0.801821411
vn -0 1 0
vn -0 1 0
vn -0 1 0
vn -0 1 0
vn -0 1 -2.15134776E-07
vn -0 1 -1.11268385E-07
vn -0 1 0
vn -0 1 0
vn -0 1 0
vn -0 1 0
vn -0 1 0
vn -0 1 -1.12738128E-07
vn -0 1 0
vn -0 1 0
vn -0 1 -1.69093255E-07
vn -0 1 0
vn -0 1 0
vn -0 1 1.18699447E-07
vn -0 1 0
vn -0 1 0
vn -0 1 0
vn -0 1 -1.1870474E-07
vn -0 1 0
vn -0 1 1.12738363E-07
vn -0 1 0
vn -0 1 0
vn -0 1 1.12729097E-07
vn -0 1 0
vn -0 1 0
vn -0 1 0
vn -0 1 0
vn -0 1 0
vn -0 1 0
vn -0 1 0
vn -0 1 0
vn -0 1 0
vn -0 1 0
vn -0 1 0
vn -0 1 0
vn -0 1 0
vn -0 1 0
vn -0 1 -1.1869426E-07
vn -0 1 0
vn -0 1 0
vn -0 1 0
vn -0 1 0
vn -0 1 0
vn -0 1 0
vn -0 1 0
vn -0 1 0
vn -0 1 0
vn -0 1 0
vn -0 1 0
vn -0 1 0
vn -0 1 0
vn -0 1 0
vn -0 1 0
vn -0 1 0
vn -0 1 0
vn -0 1 0
vn -0 1 0
vn -0 1 0
vn -0 1 0
vn -0 1 -1.69097092E-07
vn -0 1 -1.4506378E-07
vn -0 1 -1.18694082E-07
vn -0 1 0
vn -0 1 0
vn -0 1 0
vn -0 1 0
vn -0 1 0
vn -0 1 0
vn -0 1 0
vn -0 1 0
vn -0 1 0
vn -0 1 0
vn -0 1 0
vn -0 1 0
vn -0 1 0
vn -0 1 0
vn -0 1 0
vn -0 1 1.18694132E-07
vn -0 1 0
vn -0 1 0
vn -0 1 0
vn -0 1 0
vn -0 1 0
vn -0 1 0
vn -0 1 0
vn -0 1 0
vn -0 1 0
vn -0 1 0
vn -0 1 0
vn -0 1 0
vn -0 1 0
vn -0 1 0
vn -0 1 0
vn -0 1 0
vn -0 1 -1.12729033E-07
vn -0 1 0
vn -0 1 0
vn -0 1 0
vn -0 1 0
vn -0 1 0
vn -0 1 0
vn -0 1 -1.18694246E-07
vn -0 1 0
vn -0 1 0
vn -0 1 0
vn -0 1 0
vn -0 1 0
vn -0 1 0
vn -0 1 0
vn -0 1 0
vn -0 1 0
vn -0 1 0
vn -0 1 0
vn -0 1 -1.78036061E-07
vn -0 1 0
vn -0 1 0
vn -0 1 0
vn -0 1 0
vn -0 1 0
vn -0 1 0
vn -0 1 0
vn -0 1 0
vn -0 1 0
vn -0 1 0
vn -0 1 0
vn -0 1 0
vn -0 1 0
vn -0 1 1.1273832E-07
vn -0 1 0
vn -0 1 0
vn -0 1 1.83184511E-07
vn -0 1 0
vn -0 1 0
vn -0 1 -1.11277743E-07
vn -0 1 0
vn -0 1 0
vn -0 1 -1.85457907E-07
vn -0 1 -1.18704648E-07
vn -0 1 0
vn -0 1 0
vn -0 1 0
vn -0 1 0
vn -0 1 0
vn -0 1 0
vn -0 1 0
vn -0 1 -1.40956544E-07
vn -0 1 0
vn -0 1 -1.0594799E-07
vn -0 1 -2.29967924E-07
vn -0 1 0
vn -0 1 0
vn -0 1 -1.12738192E-07
vn -0 1 0
vn -0 1 0
vn -0 1 -1.40910998E-07
vn -0 1 0
vn -0 1 0
vn -0 1 0
vn -0 1 0
vn -0 1 0
vn -0 1 1.18693066E-07
vn -0 1 1.18704904E-07
vn -0 1 0
vn -0 1 -1.12738164E-07
vn -0 1 0
vn -0 1 0
vn -0 1 0
vn -0 1 0
vn -0 1 0
vn -0 1 0
vn -0 1 -1.12726738E-07
vn -0 1 0
vn -0 1 0
vn -0 1 0
vn -0 1 0
vn -0 1 0
vn -0 1 0
vn -0 1 0
vn -0 1 0
vn -0 1 0
vn -0 1 0
vn -0 1 0
vn -0 1 0
vn -0 1 0
vn -0 1 0
vn -0 1 0
vn -0 1 0
vn -0 1 0
vn -0 1 0
vn -0 1 0
vn -0 1 0
vn -0 1 0
vn -0 1 0
vn -0 1 0
vn -0 1 0
vn -0 1 0
vn -0 1 0
vn -0 1 0
vn -0 1 0
vn -0 1 0
vn -0 1 -1.18694963E-07
vn -0 1 0
vn -0 1 0
vn -0 1 0
vn -0 1 0
vn -0 1 0
vn -0 1 0
vn -0 1 0
vn -0 1 0
vn -0 1 0
vn -0 1 0
vn -0 1 0
vn -0 1 0
vn -0 1 0
vn -0 1 0
vn -0 1 0
vn -0 1 0
vn -0 1 0
vn -0 1 0
vn -0 1 0
vn -0 1 0
vn -0 1 0
vn -0 1 0
vn -0 1 0
vn -0 1 1.48369054E-07
vn -0 1 0
vn -0 1 0
vn -0 1 0
vn -0 1 0
vn -0 1 0
vn -0 1 0
vn -0 1 0
vn -0 1 0
vn -0 1 0
vn -0 1 0
vn -0 1 -1.12727683E-07
vn -0 1 0
vn -0 1 0
vn -0 1 0
vn -0 1 0
vn -0 1 0
vn -0 1 0
vn -0 1 0
vn -0 1 0
vn -0 1 0
vn -0 1 0
vn -0 1 0
vn -0 1 0
vn -0 1 0
vn -0 1 0
vn -0 1 0
vn -0 1 0
vn -0 1 0
vn -0 1 0
vn -0 1 0
vn -0 1 0
vn -0 1 0
vn -0 1 1.1868363E-07
vn -0 1 0
vn -0 1 0
vn -0 1 1.78042754E-07
vn -0 1 0
vn -0 1 0
vn -0 1 0
vn -0 1 0
vn -0 1 0
vn -0 1 1.40908497E-07
vn -0 1 0
vn -0 1 -1.48366183E-07
vn -0 1 -1.18704484E-07
vn -0 1 0
vn -0 1 1.12717572E-07
vn -0 1 0
vn -0 1 0
vn -0 1 0
vn -0 1 0
vn -0 1 0
vn -0 1 0
vn -0 1 0
vn -0 1 0
vn -0 1 0
vn -0 1 -1.18683438E-07
vn -0 1 0
vn -0 1 -2.15134776E-07
vn -0 1 0
vn -0 1 0
vn -0 1 0
g V_pcylinder_uv_0
f 3/3/3 2/2/2 1/1/1
f 2/2/2 4/4/4 1/1/1
f 2/2/2 5/5/5 4/4/4
f 5/5/5 6/6/6 4/4/4
f 1/1/1 4/4/4 7/7/7
f 4/4/4 6/6/6 8/8/8
f 4/4/4 8/8/8 7/7/7
f 6/6/6 9/9/9 8/8/8
f 9/9/9 10/10/10 8/8/8
f 8/8/8 11/11/11 7/7/7
f 10/10/10 11/11/11 8/8/8
f 11/11/11 12/12/12 7/7/7
f 10/10/10 13/13/13 11/11/11
f 11/11/11 14/14/14 12/12/12
f 13/13/13 14/14/14 11/11/11
f 14/14/14 15/15/15 12/12/12
f 15/15/15 14/14/14 16/16/16
f 14/14/14 13/13/13 17/17/17
f 14/14/14 17/17/17 16/16/16
f 13/13/13 18/18/18 17/17/17
f 16/16/16 17/17/17 19/19/19
f 17/17/17 18/18/18 20/20/20
f 17/17/17 20/20/20 19/19/19
f 18/18/18 21/21/21 20/20/20
f 21/21/21 22/22/22 20/20/20
f 20/20/20 23/23/23 19/19/19
f 22/22/22 23/23/23 20/20/20
f 23/23/23 24/24/24 19/19/19
f 22/22/22 25/25/25 23/23/23
f 23/23/23 26/26/26 24/24/24
f 25/25/25 26/26/26 23/23/23
f 26/26/26 27/27/27 24/24/24
f 27/27/27 26/26/26 28/28/28
f 26/26/26 25/25/25 29/29/29
f 26/26/26 29/29/29 28/28/28
f 25/25/25 30/30/30 29/29/29
f 28/28/28 29/29/29 31/31/31
f 29/29/29 30/30/30 32/32/32
f 29/29/29 32/32/32 31/31/31
f 30/30/30 33/33/33 32/32/32
f 33/33/33 34/34/34 32/32/32
f 32/32/32 35/35/35 31/31/31
f 34/34/34 35/35/35 32/32/32
f 35/35/35 36/36/36 31/31/31
f 34/34/34 37/37/37 35/35/35
f 35/35/35 38/38/38 36/36/36
f 37/37/37 38/38/38 35/35/35
f 38/38/38 39/39/39 36/36/36
f 39/39/39 38/38/38 40/40/40
f 38/38/38 37/37/37 41/41/41
f 38/38/38 41/41/41 40/40/40
f 37/37/37 42/42/42 41/41/41
f 40/40/40 41/41/41 43/43/43
f 41/41/41 42/42/42 44/44/44
f 41/41/41 44/44/44 43/43/43
f 42/42/42 45/45/45 44/44/44
f 45/45/45 46/46/46 44/44/44
f 44/44/44 47/47/47 43/43/43
f 46/46/46 47/47/47 44/44/44
f 47/47/47 48/48/48 43/43/43
f 46/46/46 49/49/49 47/47/47
f 47/47/47 50/50/50 48/48/48
f 49/49/49 50/50/50 47/47/47
f 50/50/50 51/51/51 48/48/48
f 51/51/51 50/50/50 52/52/52
f 50/50/50 49/49/49 53/53/53
f 50/50/50 53/53/53 52/52/52
f 49/49/49 54/54/54 53/53/53
f 52/52/52 53/53/53 55/55/55
f 53/53/53 54/54/54 56/56/56
f 53/53/53 56/56/56 55/55/55
f 54/54/54 57/57/57 56/56/56
f 57/57/57 58/58/58 56/56/56
f 56/56/56 59/59/59 55/55/55
f 58/58/58 59/59/59 56/56/56
f 59/59/59 60/60/60 55/55/55
f 58/58/58 61/61/61 59/59/59
f 59/59/59 62/62/62 60/60/60
f 61/61/61 62/62/62 59/59/59
f 62/62/62 63/63/63 60/60/60
f 63/63/63 62/62/62 64/64/64
f 62/62/62 61/61/61 65/65/65
f 62/62/62 65/65/65 64/64/64
f 61/61/61 66/66/66 65/65/65
f 64/64/64 65/65/65 67/67/67
f 65/65/65 66/66/66 68/68/68
f 65/65/65 68/68/68 67/67/67
f 66/66/66 69/69/69 68/68/68
f 69/69/69 70/70/70 68/68/68
f 68/68/68 71/71/71 67/67/67
f 70/70/70 71/71/71 68/68/68
f 71/71/71 72/72/72 67/67/67
f 70/70/70 73/73/73 71/71/71
f 71/71/71 74/74/74 72/72/72
f 73/73/73 74/74/74 71/71/71
f 74/74/74 75/75/75 72/72/72
f 75/75/75 74/74/74 76/76/76
f 74/74/74 73/73/73 77/77/77
f 74/74/74 77/77/77 76/76/76
f 73/73/73 78/78/78 77/77/77
f 76/76/76 77/77/77 79/79/79
f 77/77/77 78/78/78 80/80/80
f 77/77/77 80/80/80 79/79/79
f 78/78/78 81/81/81 80/80/80
f 81/81/81 82/82/82 80/80/80
f 80/80/80 83/83/83 79/79/79
f 82/82/82 83/83/83 80/80/80
f 83/83/83 84/84/84 79/79/79
f 82/82/82 85/85/85 83/83/83
f 83/83/83 86/86/86 84/84/84
f 85/85/85 86/86/86 83/83/83
f 86/86/86 87/87/87 84/84/84
f 87/87/87 86/86/86 88/88/88
f 86/86/86 85/85/85 89/89/89
f 86/86/86 89/89/89 88/88/88
f 85/85/85 90/90/90 89/89/89
f 88/88/88 89/89/89 91/91/91
f 89/89/89 90/90/90 92/92/92
f 89/89/89 92/92/92 91/91/91
f 90/90/90 93/93/93 92/92/92
f 93/93/93 94/94/94 92/92/92
f 92/92/92 95/95/95 91/91/91
f 94/94/94 95/95/95 92/92/92
f 95/95/95 96/96/96 91/91/91
f 94/94/94 97/97/97 95/95/95
f 95/95/95 98/98/98 96/96/96
f 97/97/97 98/98/98 95/95/95
f 98/98/98 99/99/99 96/96/96
f 99/99/99 98/98/98 100/100/100
f 98/98/98 97/97/97 101/101/101
f 98/98/98 101/101/101 100/100/100
f 97/97/97 102/102/102 101/101/101
f 100/100/100 101/101/101 103/103/103
f 101/101/101 102/102/102 104/104/104
f 101/101/101 104/104/104 103/103/103
f 102/102/102 105/105/105 104/104/104
f 105/105/105 106/106/106 104/104/104
f 104/104/104 107/107/107 103/103/103
f 106/106/106 107/107/107 104/104/104
f 107/107/107 108/108/108 103/103/103
f 106/106/106 109/109/109 107/107/107
f 107/107/107 110/110/110 108/108/108
f 109/109/109 110/110/110 107/107/107
f 110/110/110 111/111/111 108/108/108
f 111/111/111 110/110/110 112/112/112
f 110/110/110 109/109/109 113/113/113
f 110/110/110 113/113/113 112/112/112
f 109/109/109 114/114/114 113/113/113
f 112/112/112 113/113/113 115/115/115
f 113/113/113 114/114/114 116/116/116
f 113/113/113 116/116/116 115/115/115
f 114/114/114 117/117/117 116/116/116
f 117/117/117 118/118/118 116/116/116
f 116/116/116 119/119/119 115/115/115
f 118/118/118 119/119/119 116/116/116
f 119/119/119 120/120/120 115/115/115
f 118/118/118 121/121/121 119/119/119
f 119/119/119 122/122/122 120/120/120
f 121/121/121 122/122/122 119/119/119
f 122/122/122 123/123/123 120/120/120
f 123/123/123 122/122/122 124/124/124
f 122/122/122 121/121/121 125/125/125
f 122/122/122 125/125/125 124/124/124
f 121/121/121 126/126/126 125/125/125
f 124/124/124 125/125/125 127/127/127
f 125/125/125 126/126/126 128/128/128
f 125/125/125 128/128/128 127/127/127
f 126/126/126 129/129/129 128/128/128
f 129/129/129 130/130/130 128/128/128
f 128/128/128 131/131/131 127/127/127
f 130/130/130 131/131/131 128/128/128
f 131/131/131 132/132/132 127/127/127
f 130/130/130 133/133/133 131/131/131
f 131/131/131 134/134/134 132/132/132
f 133/133/133 134/134/134 131/131/131
f 134/134/134 135/135/135 132/132/132
f 135/135/135 134/134/134 136/136/136
f 134/134/134 133/133/133 137/137/137
f 134/134/134 137/137/137 136/136/136
f 133/133/133 138/138/138 137/137/137
f 136/136/136 137/137/137 139/139/139
f 137/137/137 138/138/138 140/140/140
f 137/137/137 140/140/140 139/139/139
f 138/138/138 141/141/141 140/140/140
f 141/141/141 142/142/142 140/140/140
f 140/140/140 143/143/143 139/139/139
f 142/142/142 143/143/143 140/140/140
f 143/143/143 144/144/144 139/139/139
f 142/142/142 145/145/145 143/143/143
f 143/143/143 146/146/146 144/144/144
f 145/145/145 146/146/146 143/143/143
f 146/146/146 147/147/147 144/144/144
f 147/147/147 146/146/146 148/148/148
f 146/146/146 145/145/145 149/149/149
f 146/146/146 149/149/149 148/148/148
f 145/145/145 150/150/150 149/149/149
f 148/148/148 149/149/149 151/151/151
f 149/149/149 150/150/150 152/152/152
f 149/149/149 152/152/152 151/151/151
f 150/150/150 153/153/153 152/152/152
f 153/153/153 154/154/154 152/152/152
f 152/152/152 155/155/155 151/151/151
f 154/154/154 155/155/155 152/152/152
f 155/155/155 156/156/156 151/151/151
f 154/154/154 157/157/157 155/155/155
f 155/155/155 158/158/158 156/156/156
f 157/157/157 158/158/158 155/155/155
f 158/158/158 159/159/159 156/156/156
f 159/159/159 158/158/158 160/160/160
f 158/158/158 157/157/157 161/161/161
f 158/158/158 161/161/161 160/160/160
f 157/157/157 162/162/162 161/161/161
f 160/160/160 161/161/161 163/163/163
f 161/161/161 162/162/162 164/164/164
f 161/161/161 164/164/164 163/163/163
f 162/162/162 165/165/165 164/164/164
f 165/165/165 166/166/166 164/164/164
f 164/164/164 167/167/167 163/163/163
f 166/166/166 167/167/167 164/164/164
f 167/167/167 168/168/168 163/163/163
f 166/166/166 169/169/169 167/167/167
f 167/167/167 170/170/170 168/168/168
f 169/169/169 170/170/170 167/167/167
f 170/170/170 171/171/171 168/168/168
f 171/171/171 170/170/170 172/172/172
f 170/170/170 169/169/169 173/173/173
f 170/170/170 173/173/173 172/172/172
f 169/169/169 174/174/174 173/173/173
f 172/172/172 173/173/173 175/175/175
f 173/173/173 174/174/174 176/176/176
f 173/173/173 176/176/176 175/175/175
f 174/174/174 177/177/177 176/176/176
f 177/177/177 178/178/178 176/176/176
f 176/176/176 179/179/179 175/175/175
f 178/178/178 179/179/179 176/176/176
f 179/179/179 180/180/180 175/175/175
f 178/178/178 181/181/181 179/179/179
f 179/179/179 182/182/182 180/180/180
f 181/181/181 182/182/182 179/179/179
f 182/182/182 183/183/183 180/180/180
f 183/183/183 182/182/182 184/184/184
f 182/182/182 181/181/181 185/185/185
f 182/182/182 185/185/185 184/184/184
f 181/181/181 186/186/186 185/185/185
f 184/184/184 185/185/185 187/187/187
f 185/185/185 186/186/186 188/188/188
f 185/185/185 188/188/188 187/187/187
f 186/186/186 189/189/189 188/188/188
f 189/189/189 190/190/190 188/188/188
f 188/188/188 191/191/191 187/187/187
f 190/190/190 191/191/191 188/188/188
f 191/191/191 192/192/192 187/187/187
f 190/190/190 193/193/193 191/191/191
f 191/191/191 194/194/194 192/192/192
f 193/193/193 194/194/194 191/191/191
f 194/194/194 195/195/195 192/192/192
f 195/195/195 194/194/194 196/196/196
f 194/194/194 193/193/193 197/197/197
f 194/194/194 197/197/197 196/196/196
f 193/193/193 198/198/198 197/197/197
f 196/196/196 197/197/197 199/199/199
f 197/197/197 198/198/198 200/200/200
f 197/197/197 200/200/200 199/199/199
f 198/198/198 201/201/201 200/200/200
f 201/201/201 202/202/202 200/200/200
f 200/200/200 203/203/203 199/199/199
f 202/202/202 203/203/203 200/200/200
f 203/203/203 204/204/204 199/199/199
f 202/202/202 205/205/205 203/203/203
f 203/203/203 206/206/206 204/204/204
f 205/205/205 206/206/206 203/203/203
f 206/206/206 207/207/207 204/204/204
f 207/207/207 206/206/206 208/208/208
f 206/206/206 205/205/205 209/209/209
f 206/206/206 209/209/209 208/208/208
f 205/205/205 210/210/210 209/209/209
f 208/208/208 209/209/209 211/211/211
f 209/209/209 210/210/210 212/212/212
f 209/209/209 212/212/212 211/211/211
f 210/210/210 213/213/213 212/212/212
f 213/213/213 214/214/214 212/212/212
f 212/212/212 215/215/215 211/211/211
f 214/214/214 215/215/215 212/212/212
f 215/215/215 216/216/216 211/211/211
f 214/214/214 217/217/217 215/215/215
f 215/215/215 218/218/218 216/216/216
f 217/217/217 218/218/218 215/215/215
f 218/218/218 219/219/219 216/216/216
f 219/219/219 218/218/218 220/220/220
f 218/218/218 217/217/217 221/221/221
f 218/218/218 221/221/221 220/220/220
f 217/217/217 222/222/222 221/221/221
f 220/220/220 221/221/221 223/223/223
f 221/221/221 222/222/222 224/224/224
f 221/221/221 224/224/224 223/223/223
f 222/222/222 225/225/225 224/224/224
f 225/225/225 226/226/226 224/224/224
f 224/224/224 227/227/227 223/223/223
f 226/226/226 227/227/227 224/224/224
f 227/227/227 228/228/228 223/223/223
f 226/226/226 229/229/229 227/227/227
f 227/227/227 230/230/230 228/228/228
f 229/229/229 230/230/230 227/227/227
f 230/230/230 231/231/231 228/228/228
f 231/231/231 230/230/230 232/232/232
f 230/230/230 229/229/229 233/233/233
f 230/230/230 233/233/233 232/232/232
f 229/229/229 234/234/234 233/233/233
f 232/232/232 233/233/233 235/235/235
f 233/233/233 234/234/234 236/236/236
f 233/233/233 236/236/236 235/235/235
f 234/234/234 237/237/237 236/236/236
f 237/237/237 238/238/238 236/236/236
f 236/236/236 239/239/239 235/235/235
f 238/238/238 239/239/239 236/236/236
f 239/239/239 240/240/240 235/235/235
f 238/238/238 241/241/241 239/239/239
f 239/239/239 242/242/242 240/240/240
f 241/241/241 242/242/242 239/239/239
f 242/242/242 243/243/243 240/240/240
f 243/243/243 242/242/242 244/244/244
f 242/242/242 241/241/241 245/245/245
f 242/242/242 245/245/245 244/244/244
f 241/241/241 246/246/246 245/245/245
f 244/244/244 245/245/245 247/247/247
f 245/245/245 246/246/246 248/248/248
f 245/245/245 248/248/248 247/247/247
f 246/246/246 249/249/249 248/248/248
f 249/249/249 250/250/250 248/248/248
f 248/248/248 251/251/251 247/247/247
f 250/250/250 251/251/251 248/248/248
f 251/251/251 252/252/252 247/247/247
f 250/250/250 253/253/253 251/251/251
f 251/251/251 254/254/254 252/252/252
f 253/253/253 254/254/254 251/251/251
f 254/254/254 255/255/255 252/252/252
f 255/255/255 254/254/254 256/256/256
f 254/254/254 253/253/253 257/257/257
f 254/254/254 257/257/257 256/256/256
f 253/253/253 258/258/258 257/257/257
f 256/256/256 257/257/257 259/259/259
f 257/257/257 258/258/258 260/260/260
f 257/257/257 260/260/260 259/259/259
f 258/258/258 261/261/261 260/260/260
f 261/261/261 262/262/262 260/260/260
f 260/260/260 263/263/263 259/259/259
f 262/262/262 263/263/263 260/260/260
f 263/263/263 264/264/264 259/259/259
f 262/262/262 265/265/265 263/263/263
f 263/263/263 266/266/266 264/264/264
f 265/265/265 266/266/266 263/263/263
f 266/266/266 267/267/267 264/264/264
f 267/267/267 266/266/266 268/268/268
f 266/266/266 265/265/265 269/269/269
f 266/266/266 269/269/269 268/268/268
f 265/265/265 270/270/270 269/269/269
f 268/268/268 269/269/269 271/271/271
f 269/269/269 270/270/270 272/272/272
f 269/269/269 272/272/272 271/271/271
f 270/270/270 273/273/273 272/272/272
f 273/273/273 274/274/274 272/272/272
f 272/272/272 275/275/275 271/271/271
f 274/274/274 275/275/275 272/272/272
f 275/275/275 276/276/276 271/271/271
f 274/274/274 277/277/277 275/275/275
f 275/275/275 278/278/278 276/276/276
f 277/277/277 278/278/278 275/275/275
f 278/278/278 279/279/279 276/276/276
f 279/279/279 278/278/278 280/280/280
f 278/278/278 277/277/277 281/281/281
f 278/278/278 281/281/281 280/280/280
f 277/277/277 282/282/282 281/281/281
f 280/280/280 281/281/281 283/283/283
f 281/281/281 282/282/282 284/284/284
f 281/281/281 284/284/284 283/283/283
f 282/282/282 285/285/285 284/284/284
f 285/285/285 286/286/286 284/284/284
f 284/284/284 287/287/287 283/283/283
f 286/286/286 287/287/287 284/284/284
f 286/286/286 288/288/288 287/287/287
f 287/287/287 289/289/289 283/283/283
f 288/288/288 290/290/290 287/287/287
f 287/287/287 290/290/290 289/289/289
f 290/290/290 291/291/291 289/289/289
