g O_env_suo
v 0.318478853 8.58306848E-08 0.659999967
v -0.318478853 8.58306848E-08 0.659999967
v -0.318478853 0.284609437 0.659999967
v 0.318478853 0.284609437 0.659999967
v 0.464320272 0.284609437 0.636901021
v 0.464320272 8.58306848E-08 0.636901021
v 0.595885813 0.284609437 0.569865048
v 0.595885813 8.58306848E-08 0.569865048
v 0.7002967 0.284609437 0.465454102
v 0.7002967 8.58306848E-08 0.465454102
v 0.767332673 0.284609437 0.33388862
v 0.767332673 8.58306848E-08 0.33388862
v 0.790431678 0.284609437 0.1880472
v 0.790431678 8.58306848E-08 0.1880472
v 0.790431678 0.284609437 -0.219585568
v 0.790431678 8.58306848E-08 -0.219585568
v 0.774481118 0.284609437 -0.29977423
v 0.774481118 8.58306848E-08 -0.29977423
v 0.729057908 0.284609437 -0.367754936
v 0.729057908 8.58306848E-08 -0.367754936
v 0.661077261 0.284609437 -0.413178176
v 0.661077261 8.58306848E-08 -0.413178176
v 0.580888569 0.284609437 -0.429128677
v 0.580888569 8.58306848E-08 -0.429128677
v -0.464320272 0.284609437 0.636901021
v -0.318478853 0.284609437 0.659999967
v -0.318478853 8.58306848E-08 0.659999967
v -0.464320272 8.58306848E-08 0.636901021
v -0.595885813 0.284609437 0.569865048
v -0.595885813 8.58306848E-08 0.569865048
v -0.7002967 0.284609437 0.465454102
v -0.7002967 8.58306848E-08 0.465454102
v -0.767332673 0.284609437 0.33388862
v -0.767332673 8.58306848E-08 0.33388862
v -0.790431678 0.284609437 0.1880472
v -0.790431678 8.58306848E-08 0.1880472
v -0.790431678 0.284609437 -0.219585568
v -0.790431678 8.58306848E-08 -0.219585568
v -0.774481118 0.284609437 -0.29977423
v -0.774481118 8.58306848E-08 -0.29977423
v -0.729057908 0.284609437 -0.367754936
v -0.729057908 8.58306848E-08 -0.367754936
v -0.661077261 0.284609437 -0.413178176
v -0.661077261 8.58306848E-08 -0.413178176
v -0.580888569 0.284609437 -0.429128677
v -0.580888569 8.58306848E-08 -0.429128677
v 0.580888569 8.58306848E-08 -0.429128677
v 0.580888569 0.284609437 -0.429128677
v -0.222492054 0.330159485 -0.00647256942
v -0.215382859 -8.58306848E-08 -0.00999963656
v -0.110084578 -8.58306848E-08 0.0699999705
v -0.117193773 0.330159485 0.0735270306
v -0.110084578 -8.58306848E-08 0.197444782
v -0.117193773 0.330159485 0.197820202
v -0.104039609 -8.58306848E-08 0.254520208
v -0.111004226 0.330159485 0.256260663
v -0.0859047323 -8.58306848E-08 0.299369007
v -0.0919229984 0.330159485 0.303449899
v -0.0487779416 -8.58306848E-08 0.334892064
v -0.052481968 0.330159485 0.341187209
v 3.53883541E-18 -8.58306848E-08 0.349999964
v -2.77501311E-18 0.330159485 0.357442319
v 0.052481968 0.330159485 0.341187209
v 0.0487779416 -8.58306848E-08 0.334892064
v 0.0919229984 0.330159485 0.303449899
v 0.0859047323 -8.58306848E-08 0.299369007
v 0.111004226 0.330159485 0.256260663
v 0.104039609 -8.58306848E-08 0.254520208
v 0.117193773 0.330159485 0.197820202
v 0.110084578 -8.58306848E-08 0.197444782
v 0.117193773 0.330159485 0.0735270306
v 0.110084578 -8.58306848E-08 0.0699999705
v 0.222492054 0.330159485 -0.00647256942
v 0.215382859 -8.58306848E-08 -0.00999963656
v 0.218302652 0.330159485 -0.189416766
v 0.211381853 -8.58306848E-08 -0.187768698
v 0.191975623 0.330159485 -0.247407615
v 0.186589122 -8.58306848E-08 -0.242568165
v 0.130632773 -8.58306848E-08 -0.273744136
v 0.132698044 0.330159485 -0.280550271
v -0.132698044 0.330159485 -0.280550271
v -0.130632773 -8.58306848E-08 -0.273744136
v -0.186589122 -8.58306848E-08 -0.242568165
v -0.191975623 0.330159485 -0.247407615
v -0.211381853 -8.58306848E-08 -0.187768698
v -0.218302652 0.330159485 -0.189416766
v -0.215382859 -8.58306848E-08 -0.00999963656
v -0.222492054 0.330159485 -0.00647256942
v -1.02369664E-17 0.129436672 -1.28555381
v -8.25792934E-18 0.0533016659 -1.24339497
v 0.196027562 0.0532654002 -1.22253525
v -0.196027562 0.0532654002 -1.22253525
v 0.211012945 0.129417852 -1.26273251
v 0.366678834 0.0532634705 -1.14174426
v -0.211012945 0.129417852 -1.26273251
v -0.366678834 0.0532634705 -1.14174426
v 2.04668918E-17 0.21669285 -1.28029931
v 0.395168841 0.129416868 -1.1753093
v 0.49366802 0.0532652847 -1.00436485
v -0.395168841 0.129416868 -1.1753093
v -0.49366802 0.0532652847 -1.00436485
v 0.207299456 0.216647238 -1.25775683
v 2.69940632E-17 0.285014689 -1.21475756
v -0.207299456 0.216647238 -1.25775683
v 0.532517016 0.129417822 -1.02715516
v 0.570150852 0.0532635488 -0.838344991
v -0.532517016 0.129417822 -1.02715516
v -0.570150852 0.0532635488 -0.838344991
v 0.38845557 0.21661371 -1.17168033
v -0.38845557 0.21661371 -1.17168033
v 0.615385711 0.129416883 -0.847930431
v 0.593025923 0.053249862 -0.66422087
v -0.615385711 0.129416883 -0.847930431
v -0.593025923 0.053249862 -0.66422087
v 0.187534153 0.284687191 -1.19569075
v 0.523679316 0.216649964 -1.02597332
v 0.640328526 0.12940979 -0.6598683
v 0.593008995 0.0532593131 -0.39827472
v 0.640327036 0.129414707 -0.398274451
v 0.629958689 0.216722414 -0.39827472
v 0.605358243 0.216657311 -0.849643826
v 0.350293219 0.28444764 -1.11923897
v 0.629947245 0.21672371 -0.664575577
v 0.470739901 0.284705728 -0.987972617
v 0.564176977 0.285233706 -0.663969934
v 0.564184427 0.285226822 -0.39827472
v 0.466665834 0.285017431 -0.39827472
v 0.543224156 0.284758955 -0.829790354
v 0.466658354 0.285023659 -0.663105369
v 0.40137893 0.215728164 -0.663732111
v 0.401458859 0.215387031 -0.398274809
v 0.384701937 0.133418858 -0.398274899
v 0.449202061 0.284539372 -0.799824178
v 0.390418231 0.284483761 -0.93042773
v 0.384693056 0.133414701 -0.664186239
v 0.438780993 0.0532592461 -0.39827472
v 0.438759714 0.0532493778 -0.662834287
v 0.423207164 0.0532655045 -0.791489601
v 0.371322811 0.13342151 -0.776982784
v 0.368314356 0.053268183 -0.914527416
v 0.38714695 0.215471566 -0.781369388
v 0.323503792 0.133422658 -0.884903848
v 0.275962025 0.0532650463 -1.01710582
v 0.29178229 0.284228355 -1.03885257
v 0.33716023 0.215447351 -0.893886983
v 0.242865354 0.133421317 -0.974984467
v 0.149340659 0.053268414 -1.0755738
v 0.157568917 0.284327626 -1.10131907
v 0.252913654 0.215312287 -0.987669826
v 0.131831318 0.133422762 -1.02597702
v -7.37205448E-18 0.0532978512 -1.08907402
v 0.137204811 0.215387374 -1.04095602
v -1.75749948E-18 0.13343519 -1.03744411
v -2.45057737E-18 0.284815848 -1.11675751
v -0.131831318 0.133422762 -1.02597702
v -0.149340659 0.053268414 -1.0755738
v -2.59466809E-18 0.215724081 -1.05326903
v -0.137204811 0.215387374 -1.04095602
v -0.157568917 0.284327626 -1.10131907
v -0.242865354 0.133421317 -0.974984467
v -0.275962025 0.0532650463 -1.01710582
v -0.252913654 0.215312287 -0.987669826
v -0.187534153 0.284687191 -1.19569075
v -0.323503792 0.133422658 -0.884903848
v -0.368314356 0.053268183 -0.914527416
v -0.33716023 0.215447351 -0.893886983
v -0.29178229 0.284228355 -1.03885257
v -0.350293219 0.28444764 -1.11923897
v -0.371322811 0.13342151 -0.776982784
v -0.423207164 0.0532655045 -0.791489601
v -0.38714695 0.215471566 -0.781369388
v -0.40137893 0.215728164 -0.663732111
v -0.390418231 0.284483761 -0.93042773
v -0.384693056 0.133414701 -0.664186239
v -0.438759714 0.0532493778 -0.662834287
v -0.438780993 0.0532592461 -0.39827472
v -0.384701937 0.133418858 -0.398274899
v -0.401458859 0.215387031 -0.398274809
v -0.466665834 0.285017431 -0.39827472
v -0.449202061 0.284539372 -0.799824178
v -0.470739901 0.284705728 -0.987972617
v -0.466658354 0.285023659 -0.663105369
v -0.564176977 0.285233706 -0.663969934
v -0.564184427 0.285226822 -0.39827472
v -0.629958689 0.216722414 -0.39827472
v -0.543224156 0.284758955 -0.829790354
v -0.523679316 0.216649964 -1.02597332
v -0.605358243 0.216657311 -0.849643826
v -0.629947245 0.21672371 -0.664575577
v -0.640328526 0.12940979 -0.6598683
v -0.640327036 0.129414707 -0.398274451
v -0.593008995 0.0532593131 -0.39827472
v 0.739801168 0.330159485 0.185134992
v 0.790431678 0.284609437 -0.219585568
v 0.790431678 0.284609437 0.1880472
v 0.730202317 0.330159485 -0.285231858
v 0.774481118 0.284609437 -0.29977423
v 0.767332673 0.284609437 0.33388862
v 0.729057908 0.284609437 -0.367754936
v 0.71782726 0.330159485 0.320253789
v 0.7002967 0.284609437 0.465454102
v 0.356510758 0.330159485 0.18043147
v 0.656568587 0.330159485 0.439137459
v 0.595885813 0.284609437 0.569865048
v 0.560304999 0.330159485 0.531413019
v 0.441061467 0.330159485 0.59172219
v 0.30770725 0.330159485 0.612047851
v 0.464320272 0.284609437 0.636901021
v 0.318478853 0.284609437 0.659999967
v -0.318478853 0.284609437 0.659999967
v -0.30770725 0.330159485 0.612047791
v -0.464320272 0.284609437 0.636901021
v 0.218302652 0.330159485 -0.189416766
v 0.222492054 0.330159485 -0.00647256942
v 0.191975623 0.330159485 -0.247407615
v 0.117193773 0.330159485 0.0735270306
v 0.117193773 0.330159485 0.197820202
v 0.111004226 0.330159485 0.256260663
v 0.0919229984 0.330159485 0.303449899
v 0.052481968 0.330159485 0.341187209
v -2.77501311E-18 0.330159485 0.357442319
v -0.052481968 0.330159485 0.341187209
v 0.132698044 0.330159485 -0.280550271
v -0.0919229984 0.330159485 0.303449899
v 0.629024088 0.330159485 -0.382119715
v 0.661077261 0.284609437 -0.413178176
v 0.580888569 0.284609437 -0.429128677
v -0.132698044 0.330159485 -0.280550271
v -0.629024088 0.330159485 -0.382119715
v -0.580888569 0.284609437 -0.429128677
v -0.661077261 0.284609437 -0.413178176
v -0.730202317 0.330159485 -0.285231858
v -0.191975623 0.330159485 -0.247407615
v -0.729057908 0.284609437 -0.367754936
v -0.774481118 0.284609437 -0.29977423
v -0.218302652 0.330159485 -0.189416766
v -0.790431678 0.284609437 -0.219585568
v -0.363058716 0.330159485 0.185460582
v -0.222492054 0.330159485 -0.00647256942
v -0.117193773 0.330159485 0.0735270306
v -0.117193773 0.330159485 0.197820202
v -0.111004226 0.330159485 0.256260663
v -0.739801168 0.330159485 0.185134992
v -0.790431678 0.284609437 0.1880472
v -0.71782726 0.330159485 0.320253789
v -0.767332673 0.284609437 0.33388862
v -0.656568587 0.330159485 0.439137459
v -0.7002967 0.284609437 0.465454102
v -0.560304999 0.330159485 0.531413019
v -0.595885813 0.284609437 0.569865048
v -0.441061467 0.330159485 0.59172219
vt 0.472304374 0.177996755
vt 0.672419846 0.177996755
vt 0.672419846 0.0993127227
vt 0.472304553 0.0993127227
vt 0.425464511 0.0993127227
vt 0.425464422 0.177996755
vt 0.37838006 0.0993127227
vt 0.378380001 0.177996904
vt 0.331138343 0.0993127227
vt 0.331138283 0.177996904
vt 0.283986032 0.0993127227
vt 0.283985972 0.177996755
vt 0.237360492 0.0993127227
vt 0.237360433 0.177996755
vt 0.109562024 0.0993127525
vt 0.109561816 0.177996755
vt 0.0840377957 0.0993127525
vt 0.0840377361 0.177996755
vt 0.0587622672 0.0993127525
vt 0.0587622076 0.177996755
vt 0.0333537012 0.0993127525
vt 0.0333536416 0.177996755
vt 0.00783111155 0.0993127227
vt 0.00783105195 0.177996904
vt 0.0537697226 0.0101184249
vt 0.00703205215 0.0101184249
vt 0.00703211175 0.0887600482
vt 0.053769812 0.0887600482
vt 0.100789204 0.0101184249
vt 0.100789174 0.0887602866
vt 0.14797689 0.0101184249
vt 0.147976801 0.0887602866
vt 0.194833949 0.0101183057
vt 0.194834009 0.0887600183
vt 0.241253331 0.0101184249
vt 0.241253272 0.0887600482
vt 0.369628578 0.0101183057
vt 0.369628519 0.0887599289
vt 0.39584738 0.0101184249
vt 0.39584744 0.0887602866
vt 0.422008306 0.0101183057
vt 0.422008216 0.0887599289
vt 0.448096335 0.0101183057
vt 0.448096395 0.0887599289
vt 0.474121332 0.0101183057
vt 0.474121273 0.0887599289
vt 0.83738035 0.0887599289
vt 0.83738035 0.0101183057
vt 0.304612309 0.417752773
vt 0.21350649 0.417752713
vt 0.21350649 0.46007058
vt 0.304612309 0.46007058
vt 0.21350649 0.50201875
vt 0.304612428 0.502018869
vt 0.21350655 0.521066725
vt 0.304612368 0.521066725
vt 0.21350655 0.536973119
vt 0.304612368 0.536973119
vt 0.213506281 0.553782701
vt 0.304612488 0.553782701
vt 0.21350649 0.570407331
vt 0.304612309 0.570407331
vt 0.304612309 0.587015986
vt 0.21350649 0.587015986
vt 0.304612368 0.603867233
vt 0.21350655 0.603867233
vt 0.304612309 0.619619906
vt 0.21350649 0.619619906
vt 0.304612368 0.638395011
vt 0.21350655 0.638394952
vt 0.304612428 0.679783106
vt 0.21350649 0.679783225
vt 0.304612309 0.72151494
vt 0.21350649 0.72151494
vt 0.304612428 0.778125882
vt 0.21350649 0.778125882
vt 0.304612249 0.796579897
vt 0.213506281 0.796579897
vt 0.21350649 0.816488981
vt 0.304612249 0.816488981
vt 0.304612428 0.898387372
vt 0.21350649 0.898387372
vt 0.213506281 0.918052197
vt 0.304612249 0.918052197
vt 0.213506281 0.93662715
vt 0.304612249 0.93662715
vt 0.21350649 0.993355751
vt 0.304612309 0.993355751
vt 0.171902806 0.684026301
vt 0.198555946 0.684026301
vt 0.198556006 0.633560061
vt 0.198555946 0.734492421
vt 0.171902806 0.633559942
vt 0.198555827 0.585859954
vt 0.171902508 0.73449254
vt 0.198555857 0.782192409
vt 0.145259649 0.684026301
vt 0.171902508 0.585859954
vt 0.198555827 0.53853035
vt 0.171902508 0.782192409
vt 0.198556095 0.829522133
vt 0.145259708 0.633560061
vt 0.116773576 0.684026301
vt 0.145259649 0.73449254
vt 0.171902567 0.53853035
vt 0.198555827 0.49274233
vt 0.171902865 0.829522133
vt 0.198556006 0.875310063
vt 0.145259649 0.585859954
vt 0.145259649 0.782192409
vt 0.171902686 0.492742479
vt 0.198555827 0.45083487
vt 0.171902865 0.875310063
vt 0.198556006 0.917217612
vt 0.116773576 0.633560061
vt 0.145259649 0.538530469
vt 0.171902567 0.45083487
vt 0.198556006 0.372480214
vt 0.171902567 0.372480035
vt 0.145259708 0.372480154
vt 0.145259649 0.492742479
vt 0.116773635 0.585859954
vt 0.145259768 0.45083499
vt 0.116773635 0.538530469
vt 0.116773456 0.45083487
vt 0.116773456 0.372480035
vt 0.0873464942 0.372480035
vt 0.116773456 0.49274233
vt 0.0873464942 0.45083487
vt 0.0589074492 0.45083487
vt 0.0589073002 0.372480154
vt 0.0342008471 0.372480035
vt 0.0873466134 0.492742479
vt 0.0873464942 0.53853035
vt 0.0342008471 0.45083487
vt 0.00607347488 0.372480154
vt 0.00607341528 0.45083499
vt 0.00607341528 0.492742479
vt 0.0342008471 0.49274233
vt 0.0060736537 0.538530469
vt 0.0589074492 0.492742479
vt 0.0342008471 0.538530469
vt 0.00607341528 0.585859954
vt 0.0873466134 0.585860133
vt 0.0589074492 0.538530469
vt 0.0342008471 0.585860133
vt 0.00607341528 0.633560061
vt 0.0873466134 0.633560061
vt 0.0589074492 0.585860133
vt 0.0342008471 0.633560061
vt 0.0060736537 0.684026301
vt 0.0589074492 0.633559942
vt 0.0342008471 0.684026301
vt 0.0873465538 0.684026122
vt 0.0342008471 0.734492421
vt 0.0060736537 0.734492421
vt 0.0589074492 0.684026301
vt 0.0589073896 0.73449254
vt 0.0873465538 0.734492421
vt 0.0342009068 0.782192409
vt 0.00607377291 0.782192409
vt 0.0589073896 0.782192409
vt 0.116773695 0.734492421
vt 0.0342009068 0.829522133
vt 0.00607347488 0.829522133
vt 0.0589075089 0.829522133
vt 0.0873464942 0.782192409
vt 0.116773397 0.782192409
vt 0.0342009068 0.875310063
vt 0.00607377291 0.875310063
vt 0.0589073896 0.875310063
vt 0.0589073896 0.917217612
vt 0.0873464942 0.829522133
vt 0.0342009068 0.917217493
vt 0.00607347488 0.917217493
vt 0.0060737133 0.995572507
vt 0.0342009664 0.995572507
vt 0.0589075387 0.995572507
vt 0.0873465836 0.995572388
vt 0.0873466134 0.875310063
vt 0.116773397 0.829522133
vt 0.0873465538 0.917217612
vt 0.116773754 0.917217493
vt 0.116773456 0.995572507
vt 0.145259708 0.995572507
vt 0.116773397 0.875310063
vt 0.145259708 0.829522133
vt 0.145259768 0.875310063
vt 0.145259768 0.917217612
vt 0.171902567 0.917217612
vt 0.171902508 0.995572388
vt 0.198556006 0.995572507
vt 0.76946491 0.809181094
vt 0.789141834 0.928087354
vt 0.789560258 0.808113575
vt 0.766652048 0.946969867
vt 0.784851015 0.953328371
vt 0.782644212 0.764017701
vt 0.770290554 0.975022435
vt 0.762992442 0.769655228
vt 0.762376726 0.723895669
vt 0.65703541 0.810561419
vt 0.745089829 0.734807372
vt 0.730612099 0.692025661
vt 0.716929972 0.707673907
vt 0.6819821 0.68990469
vt 0.642887533 0.683788657
vt 0.690597236 0.671416163
vt 0.646280587 0.664194703
vt 0.458083272 0.664060593
vt 0.461450875 0.683662891
vt 0.413721979 0.671230316
vt 0.614588678 0.918504238
vt 0.615664899 0.865857244
vt 0.607421458 0.934474111
vt 0.586707175 0.841793656
vt 0.585221827 0.805909514
vt 0.583235443 0.789072275
vt 0.577833354 0.775754094
vt 0.566762388 0.765177846
vt 0.552124441 0.760661244
vt 0.53748399 0.765144229
vt 0.591012657 0.943345904
vt 0.526414931 0.77568841
vt 0.737123191 0.975208998
vt 0.749031246 0.989859104
vt 0.723140538 0.994534254
vt 0.513369501 0.943335891
vt 0.367255896 0.975214243
vt 0.381245553 0.994534254
vt 0.355356842 0.98989141
vt 0.337689519 0.946984053
vt 0.496958852 0.934454441
vt 0.334072798 0.97506392
vt 0.319483101 0.953368664
vt 0.489776313 0.918459654
vt 0.31517145 0.928110957
vt 0.445330828 0.809006333
vt 0.488662124 0.865784883
vt 0.517628849 0.841701984
vt 0.519055068 0.805793643
vt 0.521018207 0.788978577
vt 0.334770203 0.809119463
vt 0.314658821 0.808062434
vt 0.341232955 0.769550085
vt 0.321555912 0.763911128
vt 0.359149396 0.73465991
vt 0.341842115 0.723730445
vt 0.387342751 0.707508683
vt 0.37365216 0.691836834
vt 0.422328353 0.689747095
vn 0.0294953287 0 0.999564946
vn -0.0294953287 0 0.999564946
vn -0.0294953287 0 0.999564946
vn 0.0294953287 0 0.999564946
vn 0.309016854 0 0.95105654
vn 0.309016854 0 0.95105654
vn 0.587785363 0 0.809016883
vn 0.587785363 0 0.809016883
vn 0.809017122 0 0.587785125
vn 0.809017122 0 0.587785125
vn 0.95105654 0 0.309017032
vn 0.95105654 0 0.309017032
vn 0.999130309 0 0.0416982286
vn 0.999130309 0 0.0416982286
vn 0.999465883 0 -0.0326800384
vn 0.999465883 0 -0.0326800384
vn 0.923879504 0 -0.382683307
vn 0.923879504 0 -0.382683307
vn 0.707107067 0 -0.707106471
vn 0.707107067 0 -0.707106471
vn 0.382683307 0 -0.923879504
vn 0.382683307 0 -0.923879504
vn 0.0128418822 0 -0.999917507
vn 0.0128418822 0 -0.999917507
vn -0.309016854 0 0.95105654
vn -0.0294953287 0 0.999564946
vn -0.0294953287 0 0.999564946
vn -0.309016854 0 0.95105654
vn -0.587785363 0 0.809016883
vn -0.587785363 0 0.809016883
vn -0.809017122 0 0.587785125
vn -0.809017122 0 0.587785125
vn -0.95105654 0 0.309017032
vn -0.95105654 0 0.309017032
vn -0.999130309 0 0.0416982286
vn -0.999130309 0 0.0416982286
vn -0.999465883 0 -0.0326800384
vn -0.999465883 0 -0.0326800384
vn -0.923879504 0 -0.382683307
vn -0.923879504 0 -0.382683307
vn -0.707107067 0 -0.707106471
vn -0.707107067 0 -0.707106471
vn -0.382683307 0 -0.923879504
vn -0.382683307 0 -0.923879504
vn -0.0128418822 0 -0.999917507
vn -0.0128418822 0 -0.999917507
vn 0.0128418822 0 -0.999917507
vn 0.0128418822 0 -0.999917507
vn 0.931767404 0.0238642059 -0.362270743
vn 0.931822896 0.0238638576 -0.36212799
vn 0.890043378 0.0240282528 -0.455242127
vn 0.890043378 0.0240282528 -0.455242127
vn 0.999213338 0.0215535276 -0.0332873054
vn 0.999213338 0.0215535276 -0.0332873017
vn 0.972541511 0.0217369813 -0.231712267
vn 0.972541511 0.0217369795 -0.231712282
vn 0.823513389 0.0220179614 -0.566869259
vn 0.823513389 0.0220179632 -0.566869318
vn 0.506963968 0.0221172385 -0.861683428
vn 0.506964028 0.0221172366 -0.861683428
vn -0 0.0225359909 -0.999746025
vn -0 0.0225359891 -0.999746025
vn -0.506964028 0.0221172441 -0.861683428
vn -0.506964028 0.0221172441 -0.861683428
vn -0.823513389 0.0220179651 -0.566869438
vn -0.823513389 0.0220179651 -0.566869378
vn -0.972541511 0.0217369776 -0.231712267
vn -0.972541511 0.0217369776 -0.231712267
vn -0.999213338 0.021553494 -0.0332873017
vn -0.999213338 0.0215534959 -0.0332873054
vn -0.890043378 0.0240282137 -0.455242127
vn -0.890043378 0.0240282174 -0.455242127
vn -0.931767344 0.023864191 -0.362270772
vn -0.931822777 0.0238638427 -0.362128019
vn -0.992015362 0.0214646682 0.124277271
vn -0.992020309 0.0214645993 0.124237619
vn -0.728749394 0.0220645368 0.684424937
vn -0.728679717 0.0220644921 0.684499085
vn -0.0995930135 0.0211000368 0.994804442
vn -0.0997652486 0.0211007074 0.994787216
vn 0.0997652411 0.0211007074 0.994787216
vn 0.0995930061 0.0211000368 0.994804442
vn 0.728679776 0.0220645089 0.684499085
vn 0.728749394 0.0220645498 0.684424937
vn 0.992020309 0.0214646086 0.124237634
vn 0.992015362 0.0214646831 0.124277301
vn 0.931822896 0.0238638576 -0.36212799
vn 0.931767404 0.0238642059 -0.362270743
vn -0 -0.210886165 -0.977510631
vn -0 -0.482823759 -0.87571758
vn 0.230156362 -0.489713281 -0.840957165
vn -0.230156362 -0.489713311 -0.840957165
vn 0.265829653 -0.210039154 -0.940860331
vn 0.508940876 -0.500496626 -0.700344443
vn -0.265829653 -0.210039109 -0.940860331
vn -0.508940816 -0.500496626 -0.700344443
vn -0 0.39301914 -0.919530272
vn 0.581519842 -0.20947963 -0.786099851
vn 0.713555038 -0.508233786 -0.482221454
vn -0.581519783 -0.20947963 -0.786099851
vn -0.713555098 -0.508233786 -0.482221454
vn 0.246167004 0.391901791 -0.886461973
vn -0 0.901349545 -0.433092147
vn -0.246166959 0.391901791 -0.886461973
vn 0.813601971 -0.209208012 -0.542479336
vn 0.820262909 -0.517674744 -0.243272811
vn -0.813601971 -0.209207997 -0.542479336
vn -0.820262909 -0.517674744 -0.243272737
vn 0.540693581 0.395931929 -0.742218554
vn -0.540693581 0.395931959 -0.742218614
vn 0.939614236 -0.208829612 -0.271137059
vn 0.849940717 -0.524642646 -0.0484857373
vn -0.939614236 -0.208829671 -0.271137059
vn -0.849940717 -0.524642706 -0.0484857298
vn 0.118351348 0.895447433 -0.429146677
vn 0.757724226 0.403051496 -0.513228476
vn 0.975225151 -0.215440989 -0.0502105206
vn 0.849439383 -0.527686298 4.39884825E-05
vn 0.975437701 -0.22027567 1.32673276E-05
vn 0.89788729 0.440225571 -1.81019441E-05
vn 0.874351084 0.409999311 -0.259636104
vn 0.265930861 0.893167257 -0.362674832
vn 0.901376128 0.430244237 -0.0491028987
vn 0.369246691 0.895938039 -0.246884406
vn 0.407345921 0.913000226 -0.0223591905
vn 0.386418551 0.922323525 5.63465392E-06
vn -0.393434167 0.91935271 0.000319663261
vn 0.426950097 0.895663202 -0.124502935
vn -0.371969908 0.928146124 0.0135323582
vn -0.876262844 0.480650693 0.0337387174
vn -0.879886031 0.47518459 0.000455338304
vn -0.974606216 -0.22392568 0.000182173244
vn -0.313816279 0.945471168 0.0871988386
vn -0.270033538 0.946565866 0.176337525
vn -0.972974062 -0.227939397 0.0369475894
vn -0.829025388 -0.559210956 6.19559287E-05
vn -0.829100788 -0.558305264 0.0297859721
vn -0.799542427 -0.557725847 0.222876266
vn -0.935132504 -0.240636066 0.260041267
vn -0.696089566 -0.556601763 0.453490674
vn -0.836811423 0.495378017 0.233124927
vn -0.813850224 -0.240978301 0.528750598
vn -0.49391067 -0.556642652 0.667982876
vn -0.185295671 0.950095177 0.250967473
vn -0.728509128 0.494684815 0.473879129
vn -0.573671699 -0.243453994 0.782068372
vn -0.213915303 -0.54778266 0.808810413
vn -0.0820305198 0.946484387 0.312151134
vn -0.513704181 0.498099327 0.698573589
vn -0.240248188 -0.236169979 0.941543698
vn -1.07660334E-07 -0.539785564 0.841802537
vn -0.21805419 0.4896622 0.844205737
vn -0 -0.227320507 0.973819971
vn -0 0.93914634 0.343517512
vn 0.240248144 -0.236169919 0.941543698
vn 0.213915274 -0.54778266 0.808810472
vn -0 0.478564978 0.878052235
vn 0.218054265 0.4896622 0.844205737
vn 0.0820305571 0.946484327 0.312151134
vn 0.573671639 -0.243454024 0.782068372
vn 0.493910581 -0.556642711 0.667982996
vn 0.513704181 0.498099327 0.698573589
vn -0.118351348 0.895447433 -0.429146707
vn 0.813850105 -0.240978315 0.528750718
vn 0.696089447 -0.556601822 0.453490824
vn 0.728509068 0.494684666 0.473879218
vn 0.185295731 0.950095177 0.250967592
vn -0.265930891 0.893167257 -0.362674832
vn 0.935132504 -0.240635976 0.260041296
vn 0.799542427 -0.557725847 0.222876295
vn 0.836811364 0.495378107 0.233124956
vn 0.876262844 0.480650812 0.0337387212
vn 0.270033449 0.946565866 0.176337555
vn 0.972974062 -0.227939397 0.0369475782
vn 0.829100728 -0.558305323 0.0297859628
vn 0.829025269 -0.559211195 6.19498169E-05
vn 0.974606216 -0.22392574 0.000182170697
vn 0.879886031 0.475184619 0.00045534494
vn 0.393434167 0.91935271 0.000319680927
vn 0.3138161 0.945471168 0.0871987715
vn -0.369246781 0.895937979 -0.246884421
vn 0.371969819 0.928146124 0.0135323405
vn -0.407345891 0.913000226 -0.0223591831
vn -0.386418611 0.922323525 5.65878508E-06
vn -0.89788729 0.440225542 -1.80894422E-05
vn -0.426950067 0.895663202 -0.124502964
vn -0.757724285 0.403051436 -0.513228476
vn -0.874351084 0.409999311 -0.259636134
vn -0.901376128 0.430244237 -0.0491028838
vn -0.975225151 -0.215441003 -0.0502105206
vn -0.975437701 -0.220275611 1.32654777E-05
vn -0.849439383 -0.527686298 4.39847208E-05
vn 0.186768159 0.982386947 0.00578597747
vn 0.638916254 0.769207656 -0.0102796778
vn 0.643382132 0.765302479 0.019275751
vn 0.115897916 0.992931604 -0.0255856775
vn 0.648486197 0.714352846 -0.262993723
vn 0.63192898 0.74780792 0.20359017
vn 0.437399745 0.756131053 -0.486772269
vn 0.204827115 0.976460278 0.0676111281
vn 0.537040055 0.748400152 0.389210939
vn -0 1 0
vn 0.172100976 0.976661801 0.128502637
vn 0.391982824 0.748084128 0.535461962
vn 0.119898573 0.978078306 0.17025584
vn 0.0608070083 0.978625238 0.196456432
vn 0.0073662037 0.957144439 0.289517492
vn 0.214129373 0.741339564 0.636053622
vn 0.021758588 0.726694703 0.686615944
vn -0.021758642 0.726694703 0.686615944
vn -0.00735754939 0.957247615 0.289176136
vn -0.21412918 0.741339505 0.636053801
vn -0 1 0
vn -0 1 0
vn -0 1 -6.90553634E-07
vn -0 1 0
vn -0 1 0
vn -0 1 -7.05048137E-07
vn -0 1 0
vn -0 1 3.27960095E-07
vn -0 1 0
vn -0 1 1.88886972E-07
vn -0 1 4.25251869E-07
vn -0 1 0
vn 0.0349825844 0.922457814 -0.384509981
vn 0.376232386 0.746426523 -0.548904955
vn 0.00165446533 0.717314839 -0.696747243
vn -0 1 4.21107387E-07
vn -0.0349825881 0.922457814 -0.384509921
vn -0.00165446533 0.717314839 -0.696747243
vn -0.376232386 0.746426523 -0.548904836
vn -0.115398154 0.99299264 -0.0254753567
vn -0 1 -8.83659652E-07
vn -0.437399834 0.756131113 -0.48677212
vn -0.648486376 0.714352548 -0.262993813
vn -0 1 0
vn -0.638916194 0.769207656 -0.0102796583
vn -0 1 0
vn -0 1 0
vn -0 1 0
vn -0 1 -2.4070053E-07
vn -0 1 0
vn -0.188540772 0.982048035 0.00584078766
vn -0.643382192 0.76530236 0.0192757677
vn -0.207824796 0.975757539 0.0686007813
vn -0.63192898 0.74780792 0.203590184
vn -0.174714878 0.975938737 0.130454421
vn -0.537039936 0.74840039 0.38921079
vn -0.121609539 0.977441013 0.172685385
vn -0.391982824 0.748084128 0.535461962
vn -0.0615254007 0.978111386 0.198777691
g O_env_suo_0
f 3/3/3 2/2/2 1/1/1
f 4/4/4 3/3/3 1/1/1
f 4/4/4 1/1/1 5/5/5
f 1/1/1 6/6/6 5/5/5
f 5/5/5 6/6/6 7/7/7
f 6/6/6 8/8/8 7/7/7
f 7/7/7 8/8/8 9/9/9
f 8/8/8 10/10/10 9/9/9
f 9/9/9 10/10/10 11/11/11
f 10/10/10 12/12/12 11/11/11
f 11/11/11 12/12/12 13/13/13
f 12/12/12 14/14/14 13/13/13
f 13/13/13 14/14/14 15/15/15
f 14/14/14 16/16/16 15/15/15
f 15/15/15 16/16/16 17/17/17
f 16/16/16 18/18/18 17/17/17
f 17/17/17 18/18/18 19/19/19
f 18/18/18 20/20/20 19/19/19
f 19/19/19 20/20/20 21/21/21
f 20/20/20 22/22/22 21/21/21
f 21/21/21 22/22/22 23/23/23
f 22/22/22 24/24/24 23/23/23
f 27/27/27 26/26/26 25/25/25
f 28/28/28 27/27/27 25/25/25
f 28/28/28 25/25/25 29/29/29
f 30/30/30 28/28/28 29/29/29
f 30/30/30 29/29/29 31/31/31
f 32/32/32 30/30/30 31/31/31
f 32/32/32 31/31/31 33/33/33
f 34/34/34 32/32/32 33/33/33
f 34/34/34 33/33/33 35/35/35
f 36/36/36 34/34/34 35/35/35
f 36/36/36 35/35/35 37/37/37
f 38/38/38 36/36/36 37/37/37
f 38/38/38 37/37/37 39/39/39
f 40/40/40 38/38/38 39/39/39
f 40/40/40 39/39/39 41/41/41
f 42/42/42 40/40/40 41/41/41
f 42/42/42 41/41/41 43/43/43
f 44/44/44 42/42/42 43/43/43
f 44/44/44 43/43/43 45/45/45
f 46/46/46 44/44/44 45/45/45
f 46/46/46 45/45/45 47/47/47
f 45/45/45 48/48/48 47/47/47
f 51/51/51 50/50/50 49/49/49
f 52/52/52 51/51/51 49/49/49
f 53/53/53 51/51/51 52/52/52
f 54/54/54 53/53/53 52/52/52
f 55/55/55 53/53/53 54/54/54
f 56/56/56 55/55/55 54/54/54
f 57/57/57 55/55/55 56/56/56
f 58/58/58 57/57/57 56/56/56
f 59/59/59 57/57/57 58/58/58
f 60/60/60 59/59/59 58/58/58
f 61/61/61 59/59/59 60/60/60
f 62/62/62 61/61/61 60/60/60
f 61/61/61 62/62/62 63/63/63
f 64/64/64 61/61/61 63/63/63
f 64/64/64 63/63/63 65/65/65
f 66/66/66 64/64/64 65/65/65
f 66/66/66 65/65/65 67/67/67
f 68/68/68 66/66/66 67/67/67
f 68/68/68 67/67/67 69/69/69
f 70/70/70 68/68/68 69/69/69
f 70/70/70 69/69/69 71/71/71
f 72/72/72 70/70/70 71/71/71
f 72/72/72 71/71/71 73/73/73
f 74/74/74 72/72/72 73/73/73
f 74/74/74 73/73/73 75/75/75
f 76/76/76 74/74/74 75/75/75
f 76/76/76 75/75/75 77/77/77
f 78/78/78 76/76/76 77/77/77
f 78/78/78 77/77/77 79/79/79
f 77/77/77 80/80/80 79/79/79
f 80/80/80 81/81/81 79/79/79
f 81/81/81 82/82/82 79/79/79
f 83/83/83 82/82/82 81/81/81
f 84/84/84 83/83/83 81/81/81
f 85/85/85 83/83/83 84/84/84
f 86/86/86 85/85/85 84/84/84
f 87/87/87 85/85/85 86/86/86
f 88/88/88 87/87/87 86/86/86
f 91/91/91 90/90/90 89/89/89
f 90/90/90 92/92/92 89/89/89
f 93/93/93 91/91/91 89/89/89
f 94/94/94 91/91/91 93/93/93
f 92/92/92 95/95/95 89/89/89
f 92/92/92 96/96/96 95/95/95
f 93/93/93 89/89/89 97/97/97
f 89/89/89 95/95/95 97/97/97
f 98/98/98 94/94/94 93/93/93
f 99/99/99 94/94/94 98/98/98
f 96/96/96 100/100/100 95/95/95
f 96/96/96 101/101/101 100/100/100
f 102/102/102 93/93/93 97/97/97
f 98/98/98 93/93/93 102/102/102
f 102/102/102 97/97/97 103/103/103
f 95/95/95 104/104/104 97/97/97
f 95/95/95 100/100/100 104/104/104
f 97/97/97 104/104/104 103/103/103
f 105/105/105 99/99/99 98/98/98
f 106/106/106 99/99/99 105/105/105
f 101/101/101 107/107/107 100/100/100
f 101/101/101 108/108/108 107/107/107
f 109/109/109 98/98/98 102/102/102
f 105/105/105 98/98/98 109/109/109
f 100/100/100 110/110/110 104/104/104
f 100/100/100 107/107/107 110/110/110
f 111/111/111 106/106/106 105/105/105
f 112/112/112 106/106/106 111/111/111
f 108/108/108 113/113/113 107/107/107
f 108/108/108 114/114/114 113/113/113
f 109/109/109 102/102/102 115/115/115
f 115/115/115 102/102/102 103/103/103
f 116/116/116 105/105/105 109/109/109
f 111/111/111 105/105/105 116/116/116
f 117/117/117 112/112/112 111/111/111
f 118/118/118 112/112/112 117/117/117
f 119/119/119 118/118/118 117/117/117
f 119/119/119 117/117/117 120/120/120
f 117/117/117 111/111/111 121/121/121
f 121/121/121 111/111/111 116/116/116
f 116/116/116 109/109/109 122/122/122
f 122/122/122 109/109/109 115/115/115
f 117/117/117 123/123/123 120/120/120
f 123/123/123 117/117/117 121/121/121
f 121/121/121 116/116/116 124/124/124
f 124/124/124 116/116/116 122/122/122
f 120/120/120 123/123/123 125/125/125
f 126/126/126 120/120/120 125/125/125
f 127/127/127 126/126/126 125/125/125
f 123/123/123 121/121/121 128/128/128
f 125/125/125 123/123/123 128/128/128
f 128/128/128 121/121/121 124/124/124
f 129/129/129 127/127/127 125/125/125
f 129/129/129 125/125/125 128/128/128
f 127/127/127 129/129/129 130/130/130
f 131/131/131 127/127/127 130/130/130
f 131/131/131 130/130/130 132/132/132
f 133/133/133 129/129/129 128/128/128
f 128/128/128 124/124/124 133/133/133
f 130/130/130 129/129/129 133/133/133
f 124/124/124 122/122/122 134/134/134
f 124/124/124 134/134/134 133/133/133
f 130/130/130 135/135/135 132/132/132
f 132/132/132 135/135/135 136/136/136
f 135/135/135 137/137/137 136/136/136
f 137/137/137 135/135/135 138/138/138
f 135/135/135 139/139/139 138/138/138
f 139/139/139 135/135/135 130/130/130
f 138/138/138 139/139/139 140/140/140
f 141/141/141 130/130/130 133/133/133
f 141/141/141 139/139/139 130/130/130
f 141/141/141 133/133/133 134/134/134
f 139/139/139 142/142/142 140/140/140
f 142/142/142 139/139/139 141/141/141
f 140/140/140 142/142/142 143/143/143
f 122/122/122 144/144/144 134/134/134
f 122/122/122 115/115/115 144/144/144
f 145/145/145 141/141/141 134/134/134
f 145/145/145 142/142/142 141/141/141
f 145/145/145 134/134/134 144/144/144
f 142/142/142 146/146/146 143/143/143
f 146/146/146 142/142/142 145/145/145
f 143/143/143 146/146/146 147/147/147
f 115/115/115 148/148/148 144/144/144
f 115/115/115 103/103/103 148/148/148
f 149/149/149 145/145/145 144/144/144
f 149/149/149 146/146/146 145/145/145
f 149/149/149 144/144/144 148/148/148
f 146/146/146 150/150/150 147/147/147
f 150/150/150 146/146/146 149/149/149
f 147/147/147 150/150/150 151/151/151
f 152/152/152 149/149/149 148/148/148
f 152/152/152 150/150/150 149/149/149
f 150/150/150 153/153/153 151/151/151
f 153/153/153 150/150/150 152/152/152
f 152/152/152 148/148/148 154/154/154
f 103/103/103 154/154/154 148/148/148
f 153/153/153 155/155/155 151/151/151
f 155/155/155 156/156/156 151/151/151
f 157/157/157 153/153/153 152/152/152
f 157/157/157 152/152/152 154/154/154
f 153/153/153 157/157/157 158/158/158
f 158/158/158 157/157/157 154/154/154
f 155/155/155 153/153/153 158/158/158
f 154/154/154 103/103/103 159/159/159
f 159/159/159 158/158/158 154/154/154
f 155/155/155 160/160/160 156/156/156
f 160/160/160 161/161/161 156/156/156
f 155/155/155 158/158/158 162/162/162
f 162/162/162 158/158/158 159/159/159
f 160/160/160 155/155/155 162/162/162
f 103/103/103 163/163/163 159/159/159
f 104/104/104 163/163/163 103/103/103
f 104/104/104 110/110/110 163/163/163
f 160/160/160 164/164/164 161/161/161
f 164/164/164 165/165/165 161/161/161
f 160/160/160 162/162/162 166/166/166
f 164/164/164 160/160/160 166/166/166
f 167/167/167 162/162/162 159/159/159
f 159/159/159 163/163/163 167/167/167
f 166/166/166 162/162/162 167/167/167
f 110/110/110 168/168/168 163/163/163
f 163/163/163 168/168/168 167/167/167
f 164/164/164 169/169/169 165/165/165
f 169/169/169 170/170/170 165/165/165
f 164/164/164 166/166/166 171/171/171
f 169/169/169 164/164/164 171/171/171
f 169/169/169 171/171/171 172/172/172
f 173/173/173 166/166/166 167/167/167
f 171/171/171 166/166/166 173/173/173
f 167/167/167 168/168/168 173/173/173
f 169/169/169 174/174/174 170/170/170
f 174/174/174 169/169/169 172/172/172
f 174/174/174 175/175/175 170/170/170
f 175/175/175 174/174/174 176/176/176
f 174/174/174 177/177/177 176/176/176
f 174/174/174 172/172/172 177/177/177
f 172/172/172 178/178/178 177/177/177
f 179/179/179 178/178/178 172/172/172
f 172/172/172 171/171/171 180/180/180
f 180/180/180 171/171/171 173/173/173
f 168/168/168 181/181/181 173/173/173
f 173/173/173 181/181/181 180/180/180
f 182/182/182 179/179/179 172/172/172
f 182/182/182 172/172/172 180/180/180
f 179/179/179 182/182/182 183/183/183
f 184/184/184 179/179/179 183/183/183
f 185/185/185 184/184/184 183/183/183
f 182/182/182 180/180/180 186/186/186
f 183/183/183 182/182/182 186/186/186
f 181/181/181 186/186/186 180/180/180
f 187/187/187 181/181/181 168/168/168
f 110/110/110 187/187/187 168/168/168
f 107/107/107 187/187/187 110/110/110
f 107/107/107 113/113/113 187/187/187
f 187/187/187 188/188/188 181/181/181
f 188/188/188 186/186/186 181/181/181
f 113/113/113 188/188/188 187/187/187
f 189/189/189 183/183/183 186/186/186
f 189/189/189 185/185/185 183/183/183
f 188/188/188 189/189/189 186/186/186
f 113/113/113 190/190/190 188/188/188
f 190/190/190 189/189/189 188/188/188
f 189/189/189 190/190/190 185/185/185
f 114/114/114 190/190/190 113/113/113
f 190/190/190 191/191/191 185/185/185
f 114/114/114 192/192/192 190/190/190
f 192/192/192 191/191/191 190/190/190
f 195/195/195 194/194/194 193/193/193
f 194/194/194 196/196/196 193/193/193
f 194/194/194 197/197/197 196/196/196
f 195/195/195 193/193/193 198/198/198
f 197/197/197 199/199/199 196/196/196
f 193/193/193 200/200/200 198/198/198
f 198/198/198 200/200/200 201/201/201
f 193/193/193 202/202/202 200/200/200
f 196/196/196 202/202/202 193/193/193
f 200/200/200 203/203/203 201/201/201
f 200/200/200 202/202/202 203/203/203
f 201/201/201 203/203/203 204/204/204
f 203/203/203 202/202/202 205/205/205
f 203/203/203 205/205/205 204/204/204
f 205/205/205 202/202/202 206/206/206
f 204/204/204 205/205/205 206/206/206
f 206/206/206 202/202/202 207/207/207
f 208/208/208 204/204/204 206/206/206
f 209/209/209 208/208/208 206/206/206
f 207/207/207 209/209/209 206/206/206
f 209/209/209 207/207/207 210/210/210
f 207/207/207 211/211/211 210/210/210
f 210/210/210 211/211/211 212/212/212
f 202/202/202 196/196/196 213/213/213
f 214/214/214 202/202/202 213/213/213
f 213/213/213 196/196/196 215/215/215
f 216/216/216 202/202/202 214/214/214
f 216/216/216 217/217/217 202/202/202
f 218/218/218 202/202/202 217/217/217
f 219/219/219 202/202/202 218/218/218
f 207/207/207 202/202/202 219/219/219
f 207/207/207 219/219/219 220/220/220
f 207/207/207 220/220/220 221/221/221
f 207/207/207 221/221/221 211/211/211
f 211/211/211 221/221/221 222/222/222
f 215/215/215 196/196/196 223/223/223
f 224/224/224 211/211/211 222/222/222
f 225/225/225 223/223/223 196/196/196
f 225/225/225 196/196/196 199/199/199
f 226/226/226 225/225/225 199/199/199
f 227/227/227 225/225/225 226/226/226
f 223/223/223 225/225/225 228/228/228
f 225/225/225 227/227/227 229/229/229
f 225/225/225 229/229/229 228/228/228
f 227/227/227 230/230/230 229/229/229
f 230/230/230 231/231/231 229/229/229
f 228/228/228 229/229/229 232/232/232
f 229/229/229 231/231/231 232/232/232
f 232/232/232 233/233/233 228/228/228
f 231/231/231 234/234/234 232/232/232
f 232/232/232 234/234/234 235/235/235
f 232/232/232 236/236/236 233/233/233
f 237/237/237 232/232/232 235/235/235
f 232/232/232 238/238/238 236/236/236
f 238/238/238 239/239/239 236/236/236
f 238/238/238 240/240/240 239/239/239
f 241/241/241 240/240/240 238/238/238
f 238/238/238 242/242/242 241/241/241
f 238/238/238 224/224/224 242/242/242
f 224/224/224 238/238/238 211/211/211
f 232/232/232 237/237/237 243/243/243
f 238/238/238 232/232/232 243/243/243
f 237/237/237 244/244/244 243/243/243
f 243/243/243 244/244/244 245/245/245
f 238/238/238 243/243/243 245/245/245
f 244/244/244 246/246/246 245/245/245
f 245/245/245 246/246/246 247/247/247
f 238/238/238 245/245/245 247/247/247
f 246/246/246 248/248/248 247/247/247
f 247/247/247 248/248/248 249/249/249
f 238/238/238 247/247/247 249/249/249
f 248/248/248 250/250/250 249/249/249
f 249/249/249 250/250/250 212/212/212
f 211/211/211 251/251/251 212/212/212
f 238/238/238 251/251/251 211/211/211
f 251/251/251 249/249/249 212/212/212
f 238/238/238 249/249/249 251/251/251
