g A_build_feixu_2_shadow
v 1.44966233 5.31764002E-16 -2.34355736
v 3.51688933 5.42933561E-16 -2.39302492
v 3.51688933 4.29280771E-16 -1.88117826
v 1.70299041 4.52970986E-16 -2.00110865
v 1.79287946 4.52970986E-16 -1.97976518
v 1.44966233 4.55672491E-16 -2.00110865
v 1.81730926 4.4408921E-16 -1.97296584
v 1.89101481 4.4408921E-16 -1.92430937
v 1.91103542 4.35207408E-16 -1.91208887
v 1.96082723 4.17443856E-16 -1.83217204
v 1.97495973 4.08562054E-16 -1.80999947
v 1.99594915 3.90798503E-16 -1.71346629
v 2.10928655 2.68806541E-16 -1.16312981
v 2.0010488 3.819167E-16 -1.68745184
v 2.0010488 2.6872692E-16 -1.16312981
vt 0.0250559151 0.731854796
vt 0.974944115 0.754584789
vt 0.974944115 0.519392073
vt 0.141459912 0.574500203
vt 0.182763606 0.564692795
vt 0.0250559151 0.574499965
vt 0.193989098 0.561568499
vt 0.227856934 0.539210796
vt 0.237056196 0.533595443
vt 0.259935319 0.496873826
vt 0.266429186 0.486685425
vt 0.276074171 0.442328662
vt 0.328152478 0.189449936
vt 0.278417289 0.430375069
vt 0.27841711 0.189449936
vn -0 1 0
vn -0 1 0
vn -0 1 0
vn -0 1 0
vn -0 1 0
vn -0 1 0
vn -0 1 0
vn -0 1 0
vn -0 1 0
vn -0 1 0
vn -0 1 0
vn -0 1 0
vn -0 1 0
vn -0 1 0
vn -0 1 0
g A_build_feixu_2_shadow_0
f 3/3/3 2/2/2 1/1/1
f 1/1/1 4/4/4 3/3/3
f 4/4/4 5/5/5 3/3/3
f 1/1/1 6/6/6 4/4/4
f 5/5/5 7/7/7 3/3/3
f 7/7/7 8/8/8 3/3/3
f 8/8/8 9/9/9 3/3/3
f 9/9/9 10/10/10 3/3/3
f 10/10/10 11/11/11 3/3/3
f 11/11/11 12/12/12 3/3/3
f 12/12/12 13/13/13 3/3/3
f 12/12/12 14/14/14 13/13/13
f 14/14/14 15/15/15 13/13/13
