g O_env_xiangzi_03
v -1.13455858 -1.50555612E-05 1.13455858
v -1.13455858 -1.50555612E-05 -1.13453817
v -1.13455858 2.175982 -1.13453817
v -1.13455858 2.175982 1.13455858
v -1.13455858 -1.50555612E-05 -1.13453817
v 1.13453817 -1.50555612E-05 -1.13453817
v 1.13453817 2.175982 -1.13453817
v -1.13455858 2.175982 -1.13453817
v 1.13453817 2.175982 1.13455858
v 1.13453817 2.175982 -1.13453817
v 1.13453817 -1.50555612E-05 -1.13453817
v 1.13453817 -1.50555612E-05 1.13455858
v -1.13455858 2.175982 1.13455858
v 1.13453817 2.175982 1.13455858
v 1.13453817 -1.50555612E-05 1.13455858
v -1.13455858 -1.50555612E-05 1.13455858
v 1.13453817 -1.50555612E-05 1.13455858
v 1.13453817 -1.50555612E-05 -1.13453817
v -1.13455858 -1.50555612E-05 -1.13453817
v -1.13455858 -1.50555612E-05 1.13455858
v -1.13455858 2.175982 1.13455858
v -1.13455858 2.175982 -1.13453817
v 1.13453817 2.175982 -1.13453817
v 1.13453817 2.175982 1.13455858
vt 0.671786259 0.526095248
vt 0.671786259 0.415868496
vt 0.566351975 0.415868496
vt 0.566351975 0.526095248
vt 0.566351975 0.179120603
vt 0.566351975 0.289347355
vt 0.671786259 0.289347355
vt 0.671786259 0.179120603
vt 0.671786259 0.408200548
vt 0.671786259 0.297015303
vt 0.566351975 0.297015303
vt 0.566351975 0.408200548
vt 0.566351975 0.533763196
vt 0.566351975 0.644948441
vt 0.671786259 0.644948441
vt 0.671786259 0.533763196
vt 0.853900023 0.168577175
vt 0.915243607 0.168577175
vt 0.915243607 0.107233591
vt 0.853900023 0.107233591
vt 0.345898471 0.0171352024
vt 0.345898471 0.134071409
vt 0.454208236 0.134071409
vt 0.454208236 0.0171352024
g O_env_xiangzi_03_0
f 3/3/3 2/2/2 1/1/1
f 4/4/4 3/3/3 1/1/1
f 7/7/7 6/6/6 5/5/5
f 8/8/8 7/7/7 5/5/5
f 11/11/11 10/10/10 9/9/9
f 12/12/12 11/11/11 9/9/9
f 15/15/15 14/14/14 13/13/13
f 16/16/16 15/15/15 13/13/13
f 19/19/19 18/18/18 17/17/17
f 20/20/20 19/19/19 17/17/17
f 23/23/23 22/22/22 21/21/21
f 24/24/24 23/23/23 21/21/21
