g O_env_th_songshu2_1
v -0.133097678 2.85141253 0.234728307
v -0.150305629 2.91393852 0.179127231
v -0.072052002 3.02832937 0.202601328
v -0.0691328421 2.79985476 0.287293702
v 0.0186241139 3.02832937 0.212542161
v 0.0271031186 2.78099179 0.307346284
v 0.119081266 2.8059411 0.276926905
v 0.106015623 3.02832937 0.186880872
v 0.161950827 2.84836483 0.226865783
v 0.179127187 2.91393852 0.150305718
v -0.0967929065 2.46287799 0.307043463
v 0.0321855173 2.28761435 0.367882848
v -0.0669564828 2.21485043 0.489306986
v -0.221052855 2.17610312 0.484911054
v -0.206914052 2.46287799 0.246590272
v -0.348713309 2.15001798 0.409908623
v -0.438342214 2.16744995 0.289669633
v -0.285518408 2.46287799 0.148597449
v -0.47107473 2.18720174 0.151337117
v -0.372441918 2.27068734 0.0325843804
v -0.26865989 2.3109839 -0.34107399
v -0.131943047 2.39958644 -0.313014686
v -0.229724273 2.5756433 -0.192761838
v -0.366069555 2.27820635 -0.259321809
v -0.286004871 2.5756433 -0.0901768282
v -0.433203638 2.25741982 -0.137715951
v -0.454190582 2.28499722 -0.00221672049
v -0.299016654 2.57423759 0.0261605065
v -0.412818521 2.33694792 0.127317727
v -0.312932342 2.43640709 0.20158802
v 0.345835119 2.46464443 0.190023318
v 0.234529257 2.54335999 0.196805835
v 0.265007019 2.68840837 0.0835564807
v 0.408121794 2.409091 0.094641909
v 0.276810139 2.68840837 -0.0242175665
v 0.420906365 2.3883884 -0.0352906026
v 0.388754278 2.41337466 -0.160468176
v 0.246471554 2.68840837 -0.12830469
v 0.298198074 2.487921 -0.242552862
v 0.192035362 2.58132052 -0.228892669
v 0.0781599432 3.27054334 -0.179788679
v 0.108757168 3.31535697 -0.120541833
v 0.0436808765 3.41828871 -0.13900651
v 0.00168472284 3.2503829 -0.205338717
v -0.0674592555 3.41828823 -0.129282936
v -0.0981590226 3.24702883 -0.187596887
v -0.173241422 3.25626731 -0.120934844
v -0.139171749 3.41828823 -0.0438194461
v -0.190920249 3.29689527 -0.0302251615
v -0.14941299 3.33911729 0.0281169694
v 0.444742888 2.182091 0.042049218
v 0.360078275 2.25704622 0.113532327
v 0.320676118 2.46287799 -0.0280553438
v 0.463572234 2.13657045 -0.0755940601
v 0.285529792 2.46287799 -0.148637116
v 0.422715306 2.11412597 -0.21965088
v 0.337687522 2.14562058 -0.340112001
v 0.206913903 2.46287799 -0.246590227
v 0.204699546 2.21982646 -0.396105409
v 0.10748291 2.33145165 -0.340892017
v 0.701493204 1.50759995 -0.197877496
v 0.597173154 1.61645722 -0.0957954749
v 0.479921103 1.77550018 -0.24983108
v 0.69354111 1.48126876 -0.343890905
v 0.615551293 1.47011912 -0.499388635
v 0.347281337 1.77446306 -0.413873881
v 0.479871064 1.47960138 -0.608550608
v 0.338634342 1.50550151 -0.647999704
v 0.19675827 1.57557797 -0.600899398
v 0.29638657 1.15858471 -0.87041837
v 0.476440877 1.34859538 -0.567800462
v 0.235004723 1.2834518 -0.733793497
v 0.455311418 1.06848431 -0.880616724
v 0.664764524 1.0304147 -0.783128738
v 0.789294899 1.05065262 -0.60330075
v 0.810248554 1.14070141 -0.438786447
v 0.682918668 1.28773963 -0.3555049
v 0.0711824 1.9205358 0.530257046
v 0.037238922 2.07316184 0.425644636
v 0.180438533 2.20766664 0.346784711
v 0.216596976 1.82846081 0.553808749
v 0.378366679 1.81358302 0.475194126
v 0.299449444 2.20766664 0.251268148
v 0.49057892 1.82667065 0.334266156
v 0.504936337 1.91247129 0.186534464
v 0.413154125 2.05121398 0.130267143
v 0.0196298212 1.95490646 -0.537401021
v 0.130460352 2.04883718 -0.413767189
v -0.0340695195 2.20766664 -0.38941595
v -0.110152736 1.89812756 -0.591984749
v -0.180498809 2.20766664 -0.346735597
v -0.282536238 1.86261022 -0.553083718
v -0.415329516 1.89649105 -0.435660243
v -0.299449384 2.20766664 -0.25126791
v -0.45196861 1.94371641 -0.301502138
v -0.412932664 2.05207515 -0.130197257
v -0.186586142 2.6912539 -0.25614199
v -0.12230926 2.77273989 -0.234855175
v -0.179180145 2.91393852 -0.150371641
v -0.266254485 2.65984035 -0.19316797
v -0.223064721 2.91393852 -0.0704001188
v -0.319496691 2.65267944 -0.0988423899
v -0.333059609 2.66624117 0.00730415341
v -0.232997283 2.91393852 0.020313777
v -0.29606986 2.71562743 0.108699739
v -0.233932495 2.76101398 0.121715464
v -0.111790769 3.71761274 -0.0647834092
v -0.0775831565 3.7470634 -0.0727364793
v -0.0951187089 3.80298758 -0.0247086622
v -0.137261808 3.70547533 -0.0355456136
v -0.144161224 3.70034409 0.0109768389
v -0.0893829316 3.80298758 0.0408504084
v -0.129745945 3.70488453 0.0558045581
v -0.09987396 3.71659088 0.0807879791
v -0.0581692494 3.74333906 0.09135212
v 0.07654953 3.75850201 0.0945963264
v 0.0457508825 3.79750824 0.0881919861
v 0.066538088 3.84744096 0.05377784
v 0.110661775 3.7378509 0.078423962
v 0.0875665247 3.85285997 0.0276708789
v 0.130749971 3.73010302 0.0389826484
v 0.131333455 3.73713827 -0.0053299237
v 0.0841395557 3.84595227 -0.0165130328
v 0.110099941 3.76191616 -0.0368748456
v 0.0877047703 3.79861903 -0.0446017832
v -0.158852682 3.24823451 0.144731119
v -0.157039031 3.28016353 0.0816835016
v -0.0915226713 3.41828847 0.108452663
v -0.12932159 3.23088121 0.204451308
v -0.0439846776 3.41828847 0.139033124
v -0.0782780424 3.2276752 0.240809366
v -0.0162977595 3.2352376 0.245204017
v 0.0127224727 3.41828847 0.142955571
v 0.0482891835 3.26443696 0.20856826
v 0.0782775879 3.31103802 0.150675192
v 0.0456944257 3.55811405 0.160709396
v 0.00716369599 3.60082388 0.128014997
v 0.0533532687 3.67494535 0.102796018
v 0.0923927277 3.53737378 0.149380177
v 0.137632743 3.52927685 0.11708869
v 0.110360257 3.67494535 0.0348577313
v 0.162195891 3.53651857 0.0671867356
v 0.165887594 3.55663562 0.0191813074
v 0.127788693 3.59522724 -0.0184690468
v 0.114455566 3.84773064 -0.0222712327
v 0.0971810892 3.87347198 0.00871211942
v 0.0727789328 3.92229247 -0.0357116126
v 0.105302274 3.83619976 -0.058201205
v 0.0801141337 3.83190584 -0.093323946
v 0.0223658755 3.92229247 -0.0780133009
v 0.041324921 3.83568406 -0.11247877
v 0.00429290766 3.84683871 -0.11573036
v -0.0237493888 3.87246156 -0.093771033
v 0.232733607 3.01287556 0.0371053293
v 0.18790634 3.0820961 0.0857534781
v 0.176909178 3.19386387 -0.0232868381
v 0.262354881 2.98050928 -0.0557544492
v 0.163925022 3.19386387 -0.085453853
v 0.249479368 2.97479081 -0.128820688
v 0.202009276 2.98579574 -0.184812963
v 0.120470881 3.19386387 -0.131703675
v 0.107541807 3.03807545 -0.210357368
v 0.0286956783 3.08206177 -0.205358043
v 0.0774595588 3.51920128 -0.147907242
v 0.0881944224 3.56244397 -0.0987189338
v 0.0342028812 3.6383996 -0.11609517
v 0.0395376571 3.50082779 -0.176640168
v -0.0152853392 3.49273133 -0.185796186
v -0.0110845948 3.64144945 -0.124977462
v -0.0541468784 3.6383996 -0.108365484
v -0.0679400638 3.49997282 -0.167878896
v -0.10449554 3.52008986 -0.136544392
v -0.104008332 3.56279898 -0.0848213732
v -0.0193444826 4.15256548 0.0100041889
v -0.00665847771 4.15256548 0.0206490606
v -0.0139234923 4.09149694 0.0436906703
v -0.0407743827 4.09149694 0.0211599339
v -0.0207878109 4.15256548 -0.0064931321
v -0.0559524521 4.03042793 0.0290611126
v -0.0190690607 4.03042793 0.0600101128
v -0.026007995 3.89745831 0.0820180327
v -0.0893829316 3.80298758 0.0408504084
v -0.0438294969 4.09149694 -0.0137581294
v -0.0101429746 4.15256548 -0.0191790499
v -0.0601489246 4.03042793 -0.0189036373
v -0.0212986749 4.09149694 -0.0406090282
v 0.00635437015 4.15256548 -0.0206224695
v -0.0291998293 4.03042793 -0.0557870455
v 0.0136193847 4.09149694 -0.0436641052
v 0.0190403741 4.15256548 -0.00997759122
v 0.0187649541 4.03042793 -0.0599835627
v 0.040470276 4.09149694 -0.0211333372
v 0.0204837024 4.15256548 0.00651975023
v -0.0951187089 3.80298758 -0.0247086622
v -0.139171749 3.41828823 -0.0438194461
v -0.129448235 3.41828847 0.0673206374
v -0.0398551933 3.89745831 -0.0762557238
v 0.0435253903 4.09149694 0.0137847513
v 0.009838867 4.15256548 0.0192056466
v 0.0209947191 4.09149694 0.0406356454
v -0.00665847771 4.15256548 0.0206490606
v -0.0139234923 4.09149694 0.0436906703
v -0.0190690607 4.03042793 0.0600101128
v 0.0288958736 4.03042793 0.0558136739
v 0.059844818 4.03042793 0.0189302675
v 0.0556483455 4.03042793 -0.0290345084
v 0.0395510867 3.89745831 0.076282382
v -0.026007995 3.89745831 0.0820180327
v 0.0223658755 3.92229247 -0.0780133009
v 0.0727789328 3.92229247 -0.0357116126
v 0.0818527192 3.89745831 0.025869349
v 0.0457508825 3.79750824 0.0881919861
v 0.00716369599 3.60082388 0.128014997
v 0.066538088 3.84744096 0.05377784
v 0.110360257 3.67494535 0.0348577313
v 0.0875665247 3.85285997 0.0276708789
v 0.0533532687 3.67494535 0.102796018
v 0.0671553016 3.41828847 0.129309639
v 0.0127224727 3.41828847 0.142955571
v 0.0841395557 3.84595227 -0.0165130328
v 0.0877047703 3.79861903 -0.0446017832
v 0.0782775879 3.31103802 0.150675192
v 0.0186241139 3.02832937 0.212542161
v 0.138867944 3.41828847 0.0438461676
v 0.0342028812 3.6383996 -0.11609517
v 0.102630615 3.67494535 -0.0534919053
v 0.127788693 3.59522724 -0.0184690468
v 0.163925022 3.19386387 -0.085453853
v 0.176909178 3.19386387 -0.0232868381
v 0.18790634 3.0820961 0.0857534781
v -0.0110845948 3.64144945 -0.124977462
v 0.0881944224 3.56244397 -0.0987189338
v 0.0436808765 3.41828871 -0.13900651
v -0.0674592555 3.41828823 -0.129282936
v -0.0541468784 3.6383996 -0.108365484
v 0.108757168 3.31535697 -0.120541833
v -0.0775831565 3.7470634 -0.0727364793
v -0.104008332 3.56279898 -0.0848213732
v 0.0286956783 3.08206177 -0.205358043
v 0.120470881 3.19386387 -0.131703675
v 0.150252536 2.91393852 -0.179193258
v -0.028055571 2.46287799 -0.32067588
v 0.0967974812 2.46287799 -0.307002246
v 0.246471554 2.68840837 -0.12830469
v 0.192035362 2.58132052 -0.228892669
v 0.276810139 2.68840837 -0.0242175665
v 0.206913903 2.46287799 -0.246590227
v 0.285529792 2.46287799 -0.148637116
v 0.10748291 2.33145165 -0.340892017
v 0.320676118 2.46287799 -0.0280553438
v 0.458155811 1.9524554 -0.0400832742
v 0.407941729 1.9524554 -0.212361068
v 0.360078275 2.25704622 0.113532327
v 0.307002395 2.46287799 0.096797578
v 0.265007019 2.68840837 0.0835564807
v 0.295621932 1.9524554 -0.352308452
v 0.347281337 1.77446306 -0.413873881
v 0.479921103 1.77550018 -0.24983108
v 0.476440877 1.34859538 -0.567800462
v 0.178994447 2.91393852 0.150262743
v 0.106015623 3.02832937 0.186880872
v 0.148637235 2.46287799 0.285530031
v 0.0280554201 2.46287799 0.320676148
v 0.0321855173 2.28761435 0.367882848
v 0.234529257 2.54335999 0.196805835
v 0.246590272 2.46287799 0.206914037
v 0.299449444 2.20766664 0.251268148
v 0.180438533 2.20766664 0.346784711
v 0.352308661 1.9524554 0.2956222
v 0.037238922 2.07316184 0.425644636
v 0.413154125 2.05121398 0.130267143
v 0.212360829 1.9524554 0.407942027
v 0.0400833115 1.9524554 0.458156347
v 0.0528388955 1.62832153 0.603954196
v 0.291203141 1.57429957 0.559396565
v 0.333045185 1.37602019 0.639774323
v 0.114176787 1.20050657 0.806672394
v 0.43862015 1.9524554 0.1382965
v 0.483108371 1.57429957 0.405376554
v 0.513680279 1.77815211 0.161962807
v 0.38622269 1.15083158 0.741927445
v 0.0823751837 0.938254476 0.941555917
v 0.436422259 0.938254476 0.838359714
v 0.539165318 1.41223276 0.452413887
v 0.578201413 1.62832165 0.182306439
v 0.62825346 1.57429957 -0.0549650565
v 0.68568635 1.03656089 0.575359762
v 0.724027872 0.938254476 0.607531965
v 0.640536964 1.1523205 0.537474811
v 0.689483762 1.3725431 0.217393488
v 0.809675753 1.19826865 -0.0708374009
v 0.774253368 1.19882822 0.244121239
v 0.863278151 1.01639223 0.27219069
v 0.901407778 0.938254476 0.284212947
v 0.941555619 0.938254476 -0.0823755637
v 0.838360548 0.938254476 -0.436422795
v 0.682918668 1.28773963 -0.3555049
v 0.733039379 1.1714648 -0.381596059
v 0.597173154 1.61645722 -0.0957954749
v 0.570901155 1.05018318 -0.680373847
v 0.607531548 0.938254476 -0.724028468
v 0.284212798 0.938254476 -0.901408136
v 0.534270465 1.16211128 -0.636719048
v 0.264091939 1.06908536 -0.837592423
v -0.0823754892 0.938254476 -0.941555679
v -0.0708171055 1.19872737 -0.809443355
v -0.436422646 0.938254476 -0.838360727
v 0.243970945 1.19991636 -0.773776889
v 0.235004723 1.2834518 -0.733793497
v 0.219127804 1.43137217 -0.662992716
v 0.19675827 1.57557797 -0.600899398
v -0.0591517612 1.46790767 -0.676109731
v -0.381260902 1.17181265 -0.732396543
v -0.331068635 1.43072915 -0.615143716
v -0.680579722 1.04965484 -0.571074426
v -0.724028528 0.938254476 -0.607532501
v -0.838101089 1.06862915 -0.264252454
v -0.901407957 0.938254476 -0.284213245
v -0.941555977 0.938254476 0.0823747963
v -0.809496999 1.19862187 0.0708211511
v -0.838360786 0.938254476 0.436422259
v -0.774794817 1.19900393 -0.244291991
v -0.637131274 1.16105461 -0.534616709
v -0.539165854 1.41223359 -0.452414095
v -0.671255708 1.41223359 -0.211646259
v -0.701152861 1.41223276 0.0613423921
v -0.601465046 1.57429957 -0.189641416
v -0.464422822 1.62832165 -0.389697343
v -0.291202933 1.57429957 -0.559396565
v -0.0400834642 1.9524554 -0.458156079
v 0.1382965 1.9524554 -0.43862015
v 0.300423115 1.74632537 -0.45379436
v 0.130460352 2.04883718 -0.413767189
v -0.0340695195 2.20766664 -0.38941595
v -0.21236068 1.9524554 -0.40794155
v -0.369033426 1.77386856 -0.383607298
v -0.352308273 1.9524554 -0.295622051
v -0.438620508 1.9524554 -0.138296738
v -0.131943047 2.39958644 -0.313014686
v -0.180498809 2.20766664 -0.346735597
v -0.299449384 2.20766664 -0.25126791
v -0.412932664 2.05207515 -0.130197257
v -0.458156347 1.9524554 0.040083237
v -0.12230926 2.77273989 -0.234855175
v -0.229724273 2.5756433 -0.192761838
v -0.179180145 2.91393852 -0.150371641
v -0.286004871 2.5756433 -0.0901768282
v -0.579654753 1.68234396 0.0507129282
v -0.407942116 1.9524554 0.212360725
v -0.372441918 2.27068734 0.0325843804
v -0.223064721 2.91393852 -0.0704001188
v -0.502742827 1.71575487 0.261710882
v -0.299016654 2.57423759 0.0261605065
v -0.232997283 2.91393852 0.020313777
v -0.233932495 2.76101398 0.121715464
v -0.624305964 1.41223359 0.324992657
v -0.374018162 1.68234396 0.445737004
v -0.706705213 1.22977817 0.367886811
v -0.513522267 1.22551155 0.611991227
v -0.560527563 1.08188343 0.668009937
v -0.607532561 0.938254476 0.724028409
v -0.311502904 1.20011628 0.756795049
v -0.297857881 1.06918538 0.829100907
v -0.284213185 0.938254476 0.901407123
v 0.0823751837 0.938254476 0.941555917
v 0.114176787 1.20050657 0.806672394
v -0.189641267 1.57429957 0.601465225
v -0.138296664 1.9524554 0.438620567
v 0.0528388955 1.62832153 0.603954196
v 0.00371170044 1.76634061 0.537086487
v 0.0400833115 1.9524554 0.458156347
v 0.037238922 2.07316184 0.425644636
v 0.0321855173 2.28761435 0.367882848
v -0.0967929065 2.46287799 0.307043463
v 0.0280554201 2.46287799 0.320676148
v -0.29562217 1.9524554 0.352308661
v -0.072052002 3.02832937 0.202601328
v -0.150305629 2.91393852 0.179127231
v -0.0439846776 3.41828847 0.139033124
v 0.0186241139 3.02832937 0.212542161
v 0.0127224727 3.41828847 0.142955571
v 0.00716369599 3.60082388 0.128014997
v -0.0581692494 3.74333906 0.09135212
v -0.0915226713 3.41828847 0.108452663
v -0.157039031 3.28016353 0.0816835016
v -0.206914052 2.46287799 0.246590272
v -0.14941299 3.33911729 0.0281169694
v -0.207466274 2.91393852 0.107906319
v -0.285518408 2.46287799 0.148597449
v -0.451925874 1.75201178 0.299375296
v -0.297857881 1.06918538 0.829100907
v -0.686839521 0.952461541 0.704885066
v -0.560527563 1.08188343 0.668009937
v -0.257305533 0.938457906 0.943395674
v -0.710200429 0.873644769 0.783103228
v -0.315550745 0.860896409 1.00240541
v -0.636269152 0.828337371 0.879856348
v -0.438943386 0.821968973 0.9895069
v -0.54433769 0.811681867 0.945946097
v -0.838101089 1.06862915 -0.264252454
v -0.702728152 0.950097501 -0.671057642
v -0.680579722 1.04965484 -0.571074426
v -0.957736433 0.942123592 -0.250950009
v -0.780213535 0.871183455 -0.696440041
v -1.01467335 0.86397475 -0.310459524
v -0.87989068 0.82705313 -0.625751495
v -0.997119665 0.823454797 -0.432760596
v -0.949540019 0.811725974 -0.536249101
v 0.264091939 1.06908536 -0.837592423
v 0.683226168 0.945019662 -0.69840467
v 0.570901155 1.05018318 -0.680373847
v 0.26091826 0.945899665 -0.94987607
v 0.706475973 0.865949214 -0.776398599
v 0.318474412 0.866876304 -1.00760913
v 0.634140134 0.823540032 -0.875639915
v 0.440138847 0.824009478 -0.99124378
v 0.543785095 0.810161889 -0.944586456
v 0.863278151 1.01639223 0.27219069
v 0.704885244 0.952461541 0.686839104
v 0.68568635 1.03656089 0.575359762
v 0.943395376 0.938458025 0.257305205
v 0.783103168 0.87364459 0.71020025
v 1.00240552 0.860896409 0.315550596
v 0.879856646 0.828337371 0.636268854
v 0.989506841 0.821968973 0.438943326
v 0.945946336 0.811681986 0.544337511
v 0.534270465 1.16211128 -0.636719048
v 0.914718926 1.05355132 -0.29785949
v 0.733039379 1.1714648 -0.381596059
v 0.503173053 1.03206396 -0.827979267
v 0.987107456 0.945935905 -0.383939207
v 0.609091938 0.926379681 -0.871226013
v 0.956638455 0.896290243 -0.553557754
v 0.767626047 0.886540055 -0.797198832
v 0.881320298 0.879306555 -0.689733863
v 0.809675753 1.19826865 -0.0708374009
v 0.861872852 1.07951748 0.457468182
v 0.774253368 1.19882822 0.244121239
v 0.941636801 1.07626367 -0.258662492
v 0.992713392 0.976633072 0.443315268
v 1.06622553 0.973869324 -0.214741886
v 1.10046387 0.936341703 0.289021611
v 1.13721108 0.934988379 -0.0400086194
v 1.14550519 0.925192416 0.127566442
v -0.886170566 1.16942644 -0.201389074
v -0.75900501 1.24598658 -0.266817927
v -0.671255708 1.41223359 -0.211646259
v -0.948548496 1.14168906 -0.0754399821
v -0.701152861 1.41223276 0.0613423921
v -0.97440356 1.12656295 0.0792178363
v -0.927844167 1.14667618 0.227670208
v -0.624305964 1.41223359 0.324992657
v -0.828970253 1.19017541 0.343723893
v -0.69511646 1.26797891 0.38944456
v 0.216455996 1.2258271 -0.887824476
v 0.278963149 1.29783845 -0.749055445
v 0.219127804 1.43137217 -0.662992716
v -0.0591517612 1.46790767 -0.676109731
v 0.0842219517 1.19356513 -0.948438227
v -0.078301847 1.17364717 -0.97064513
v -0.234841451 1.19881499 -0.926644742
v -0.357346714 1.24766839 -0.827612579
v -0.331068635 1.43072915 -0.615143716
v -0.401005477 1.32008815 -0.682802618
v 0.471272737 1.14536047 0.776901543
v 0.337969214 1.2372365 0.739732444
v 0.333045185 1.37602019 0.639774323
v 0.539165318 1.41223276 0.452413887
v 0.596449435 1.0992403 0.71637249
v 0.727073789 1.07932234 0.617153704
v 0.806650817 1.10449016 0.47535041
v 0.834436774 1.16720116 0.328585893
v 0.689483762 1.3725431 0.217393488
v 0.778886259 1.26038635 0.203706965
v -0.530863583 1.66172171 0.425706714
v -0.451925874 1.75201178 0.299375296
v -0.29562217 1.9524554 0.352308661
v -0.524836659 1.58013809 0.59680289
v -0.39443627 1.57140636 0.71510011
v -0.138296664 1.9524554 0.438620567
v -0.224647671 1.57846606 0.762215316
v -0.0692207292 1.65532267 0.674430966
v 0.00371170044 1.76634061 0.537086487
v 0.238622129 1.66194785 -0.607887685
v 0.300423115 1.74632537 -0.45379436
v 0.1382965 1.9524554 -0.43862015
v 0.10522598 1.63636243 -0.681516886
v -0.0400834642 1.9524554 -0.458156079
v -0.057397306 1.6157881 -0.702356696
v -0.213699028 1.641307 -0.65771699
v -0.21236068 1.9524554 -0.40794155
v -0.334820181 1.68355668 -0.544258118
v -0.369033426 1.77386856 -0.383607298
v -0.400832444 1.34132028 -0.717206717
v -0.26850149 1.43514001 -0.681440115
v -0.291202933 1.57429957 -0.559396565
v -0.464422822 1.62832165 -0.389697343
v -0.525195837 1.29425621 -0.655735791
v -0.655167162 1.27368319 -0.55579567
v -0.734469235 1.29920077 -0.41390112
v -0.762419045 1.3629297 -0.267606795
v -0.601465046 1.57429957 -0.189641416
v -0.707496226 1.45793116 -0.143824086
v 0.672127187 1.36090624 0.518621981
v 0.526994169 1.44041491 0.533032417
v 0.483108371 1.57429957 0.405376554
v 0.578201413 1.62832165 0.182306439
v 0.768196702 1.3200264 0.415862709
v 0.85206753 1.30310631 0.274500638
v 0.868599832 1.32465172 0.112215191
v 0.832208216 1.37954164 -0.0357959755
v 0.62825346 1.57429957 -0.0549650565
v 0.724825561 1.46022463 -0.132352903
v -0.235320434 1.3533622 0.836094975
v -0.307733059 1.4334228 0.699099541
v -0.189641267 1.57429957 0.601465225
v 0.0528388955 1.62832153 0.603954196
v -0.0969728082 1.31192958 0.889037132
v 0.073884733 1.29503226 0.91403228
v 0.237925872 1.31670654 0.864334226
v 0.36680451 1.37221813 0.768191814
v 0.291203141 1.57429957 0.559396565
v 0.41720596 1.45350826 0.62320745
v -0.774072766 1.44601846 0.0740288496
v -0.690388083 1.53983748 -0.0345414728
v -0.579654753 1.68234396 0.0507129282
v -0.502742827 1.71575487 0.261710882
v -0.764872968 1.39895356 0.212449417
v -0.722278357 1.37838042 0.370773077
v -0.621532202 1.40389884 0.498339385
v -0.497069627 1.46762693 0.580145776
v -0.374018162 1.68234396 0.445737004
v -0.361690909 1.56262839 0.576773643
v -0.0708171055 1.19872737 -0.809443355
v 0.456135094 1.06922686 -0.849391103
v 0.243970945 1.19991636 -0.773776889
v -0.259995937 1.06591249 -0.929148972
v 0.440861642 0.954237282 -0.969594538
v -0.217193753 0.951394796 -1.04312181
v 0.286132336 0.90529567 -1.07305312
v -0.042896118 0.90390408 -1.10980988
v 0.124562375 0.891545534 -1.11694884
v -0.637131274 1.16105461 -0.534616709
v -0.28644675 1.04557669 -0.930988848
v -0.381260902 1.17181265 -0.732396543
v -0.851813257 1.03211761 -0.501250446
v -0.380115569 0.935870051 -1.01038766
v -0.899792969 0.923709393 -0.615661383
v -0.561329842 0.888208151 -0.9807266
v -0.821165085 0.882156968 -0.783358455
v -0.706611514 0.873189628 -0.902700484
v -0.809496999 1.19862187 0.0708211511
v -0.850172043 1.0698117 -0.456218481
v -0.774794817 1.19900393 -0.244291991
v -0.929930329 1.06650102 0.259912103
v -0.97105062 0.955522239 -0.441016465
v -1.04457605 0.952684462 0.217038497
v -1.07479143 0.907089114 -0.286315769
v -1.11154807 0.905700386 0.0427125543
v -1.11876273 0.89349246 -0.124754101
v -0.513522267 1.22551155 0.611991227
v -0.903941572 1.09585106 0.265408486
v -0.706705213 1.22977817 0.367886811
v -0.467493504 1.07303154 0.827597022
v -0.986836433 0.971735537 0.345597386
v -0.57102406 0.950179935 0.881615281
v -0.951281667 0.912587881 0.530409515
v -0.743371785 0.901840925 0.798416257
v -0.867881656 0.892535508 0.679719985
v 0.114176787 1.20050657 0.806672394
v -0.457468182 1.07951748 0.861873329
v -0.311502904 1.20011628 0.756795049
v 0.258662552 1.07626367 0.94163692
v -0.443315357 0.976633072 0.992714643
v 0.214741975 0.973869085 1.06622553
v -0.289021224 0.936341047 1.10046387
v 0.0400086977 0.934988379 1.13721108
v -0.127566367 0.925192416 1.14550519
v 0.640536964 1.1523205 0.537474811
v 0.294555187 1.02984345 0.944004238
v 0.38622269 1.15083158 0.741927445
v 0.857335865 1.02656054 0.494023055
v 0.393960267 0.921048164 1.02266097
v 0.911262512 0.918246448 0.609331965
v 0.578017592 0.876573026 0.98823607
v 0.836663663 0.875201762 0.781565249
v 0.723703921 0.864168167 0.905518293
v -0.164066002 3.01113552E-08 0.114880219
v -0.0826484635 0.0797648653 0.177240729
v -0.0846450776 3.01113552E-08 0.181522205
v -0.160196379 0.0797648653 0.112170599
v -0.199525297 3.01113552E-08 0.0174562074
v -0.154246822 0.202396601 0.108004779
v -0.0795791596 0.202396601 0.170658335
v -0.194819182 0.0797648653 0.0170444753
v -0.181522205 3.01113552E-08 -0.0846451148
v -0.118257135 0.944232106 0.0828045532
v -0.0610115044 0.944232106 0.130839437
v -0.14381592 0.944232106 0.0125822537
v -0.187583849 0.202396601 0.0164114702
v -0.130839378 0.944232106 -0.0610114262
v -0.177240595 0.0797648653 -0.0826486349
v -0.114880219 3.01113552E-08 -0.164065972
v -0.170658186 0.202396601 -0.0795792192
v -0.112170562 0.0797648579 -0.16019623
v -0.0174562074 3.01113552E-08 -0.199525326
v -0.108004756 0.202396631 -0.154246822
v -0.0828045607 0.944232106 -0.118257135
v -0.0125822444 0.944232106 -0.143815979
v -0.0164114367 0.202396601 -0.187583998
v 0.0610115044 0.944232106 -0.130839437
v -0.0170445256 0.0797648653 -0.194819242
v 0.0846450776 3.01113552E-08 -0.181522205
v 0.0795791596 0.202396601 -0.170658335
v 0.118257135 0.944232106 -0.0828045532
v 0.0826484635 0.0797648653 -0.177240729
v 0.164066002 3.01113552E-08 -0.114880219
v 0.154246897 0.202396601 -0.108004779
v 0.14381592 0.944232106 -0.0125822537
v 0.160196379 0.0797648653 -0.112170599
v 0.199525297 3.01113552E-08 -0.0174562074
v 0.187584072 0.202396601 -0.0164114702
v 0.130839378 0.944232106 0.0610114262
v 0.194819331 0.0797648653 -0.0170444753
v 0.181522205 3.01113552E-08 0.0846451148
v 0.170658335 0.202396601 0.0795792192
v 0.0828045607 0.944232106 0.118257135
v 0.177240744 0.0797648653 0.0826486349
v 0.114880219 3.01113552E-08 0.164065972
v 0.108004987 0.202396601 0.154246822
v 0.0125822444 0.944232106 0.143815979
v 0.112170711 0.0797648653 0.16019623
v 0.0174562074 3.01113552E-08 0.199525326
v 0.0164114367 0.202396601 0.187583998
v -0.0610115044 0.944232106 0.130839437
v -0.0795791596 0.202396601 0.170658335
v 0.0170445256 0.0797648653 0.194819242
v -0.0846450776 3.01113552E-08 0.181522205
v -0.0826484635 0.0797648653 0.177240729
v -0.00015197754 4.15732908 1.33022386E-05
v -0.00665847771 4.15256548 0.0206490606
v -0.0193444826 4.15256548 0.0100041889
v 0.009838867 4.15256548 0.0192056466
v -0.0207878109 4.15256548 -0.0064931321
v 0.0204837024 4.15256548 0.00651975023
v -0.0101429746 4.15256548 -0.0191790499
v 0.0190403741 4.15256548 -0.00997759122
v 0.00635437015 4.15256548 -0.0206224695
vt 0.907714844 0.490478516
vt 0.901367188 0.506347656
vt 0.920898438 0.525878906
vt 0.921875 0.477294922
vt 0.939453125 0.525390625
vt 0.940917969 0.472412109
vt 0.959472656 0.479492188
vt 0.95703125 0.52734375
vt 0.970214844 0.490966797
vt 0.979003906 0.509277344
vt 0.756835938 0.899414062
vt 0.796386719 0.877441406
vt 0.785644531 0.844726562
vt 0.759277344 0.827148438
vt 0.731933594 0.895507812
vt 0.729980469 0.8203125
vt 0.701171875 0.827148438
vt 0.70703125 0.8984375
vt 0.67578125 0.840820312
vt 0.666015625 0.874023438
vt 0.0235748291 0.318603516
vt 0.0111618042 0.348876953
vt 0.050994873 0.372802734
vt 0.0465393066 0.306640625
vt 0.0741577148 0.370849609
vt 0.0737915039 0.300537109
vt 0.100830078 0.307128906
vt 0.0974121094 0.372558594
vt 0.124694824 0.323486328
vt 0.137207031 0.352783203
vt 0.268554688 0.854492188
vt 0.260986328 0.880371094
vt 0.291992188 0.900878906
vt 0.288330078 0.838378906
vt 0.313720703 0.899414062
vt 0.313964844 0.833007812
vt 0.339355469 0.83984375
vt 0.334228516 0.901855469
vt 0.358154297 0.861328125
vt 0.362792969 0.889160156
vt 0.672851562 0.0193939209
vt 0.666015625 0.0337219238
vt 0.686035156 0.0480957031
vt 0.687011719 0.011100769
vt 0.708007812 0.0445556641
vt 0.70703125 0.00798034668
vt 0.7265625 0.0107116699
vt 0.729492188 0.0469665527
vt 0.741699219 0.0234527588
vt 0.749511719 0.0382995605
vt 0.677734375 0.407226562
vt 0.666503906 0.431152344
vt 0.704589844 0.463134766
vt 0.698242188 0.392333984
vt 0.729003906 0.460449219
vt 0.727539062 0.385009766
vt 0.757324219 0.392089844
vt 0.753417969 0.463378906
vt 0.781738281 0.413330078
vt 0.786621094 0.444824219
vt 0.762207031 0.487548828
vt 0.755371094 0.522949219
vt 0.799804688 0.546875
vt 0.787597656 0.472900391
vt 0.821777344 0.466552734
vt 0.841796875 0.546875
vt 0.855957031 0.473876953
vt 0.881347656 0.489257812
vt 0.895996094 0.518066406
vt 0.80078125 0.684082031
vt 0.733886719 0.729003906
vt 0.792480469 0.724609375
vt 0.776367188 0.656738281
vt 0.731445312 0.64453125
vt 0.689941406 0.655761719
vt 0.666015625 0.684082031
vt 0.674804688 0.725097656
vt 0.00712585449 0.614746094
vt 0.012588501 0.651855469
vt 0.0497436523 0.672363281
vt 0.0292510986 0.588378906
vt 0.0646362305 0.58203125
vt 0.0802612305 0.671875
vt 0.0999145508 0.588378906
vt 0.122619629 0.613769531
vt 0.118347168 0.647949219
vt 0.618652344 0.494628906
vt 0.603027344 0.529296875
vt 0.64453125 0.547851562
vt 0.640136719 0.473144531
vt 0.674804688 0.544921875
vt 0.674316406 0.462402344
vt 0.708496094 0.473144531
vt 0.704589844 0.548339844
vt 0.729980469 0.492675781
vt 0.74609375 0.530273438
vt 0.894042969 0.802246094
vt 0.890625 0.823242188
vt 0.916992188 0.845703125
vt 0.912109375 0.791503906
vt 0.935058594 0.843261719
vt 0.93359375 0.788085938
vt 0.955078125 0.791503906
vt 0.952636719 0.845214844
vt 0.974121094 0.805175781
vt 0.979492188 0.819824219
vt 0.0121612549 0.176269531
vt 0.00840759277 0.185058594
vt 0.0216064453 0.193603516
vt 0.0191650391 0.17199707
vt 0.0286712646 0.170654297
vt 0.0351257324 0.193725586
vt 0.037689209 0.172729492
vt 0.0440979004 0.177246094
vt 0.0493469238 0.185668945
vt 0.930664062 0.405273438
vt 0.928710938 0.415039062
vt 0.938964844 0.422851562
vt 0.936523438 0.399169922
vt 0.9453125 0.422851562
vt 0.9453125 0.396972656
vt 0.954101562 0.398925781
vt 0.954589844 0.422607422
vt 0.959960938 0.405517578
vt 0.961425781 0.4140625
vt 0.170776367 0.0182952881
vt 0.162719727 0.0298614502
vt 0.182739258 0.0532226562
vt 0.182250977 0.0108566284
vt 0.193847656 0.0520019531
vt 0.194580078 0.00874328613
vt 0.206665039 0.0117416382
vt 0.204956055 0.0540466309
vt 0.218261719 0.0225372314
vt 0.223999023 0.0374755859
vt 0.920410156 0.364257812
vt 0.916503906 0.376708984
vt 0.931152344 0.387939453
vt 0.928710938 0.358154297
vt 0.939453125 0.35546875
vt 0.948730469 0.387939453
vt 0.950195312 0.357910156
vt 0.958984375 0.363769531
vt 0.963867188 0.375976562
vt 0.238891602 0.0150985718
vt 0.235351562 0.02293396
vt 0.247192383 0.0298156738
vt 0.245361328 0.0111846924
vt 0.25390625 0.00942993164
vt 0.260009766 0.0304107666
vt 0.262207031 0.0111999512
vt 0.268798828 0.0151824951
vt 0.272460938 0.0232543945
vt 0.0147781372 0.119384766
vt 0.00769424438 0.137207031
vt 0.0342712402 0.154052734
vt 0.0317382812 0.107849121
vt 0.0469055176 0.152587891
vt 0.0463562012 0.105041504
vt 0.060760498 0.108459473
vt 0.0583190918 0.154174805
vt 0.0762939453 0.124145508
vt 0.0869750977 0.138671875
vt 0.919921875 0.439697266
vt 0.915527344 0.451904297
vt 0.930664062 0.463134766
vt 0.927734375 0.433349609
vt 0.938476562 0.430664062
vt 0.939941406 0.463134766
vt 0.948730469 0.462890625
vt 0.94921875 0.432617188
vt 0.958007812 0.438232422
vt 0.962890625 0.450927734
vt 0.479003906 0.721191406
vt 0.482421875 0.723632812
vt 0.493164062 0.711914062
vt 0.486328125 0.708007812
vt 0.475341797 0.719726562
vt 0.491455078 0.695800781
vt 0.500976562 0.69921875
vt 0.51171875 0.673339844
vt 0.501953125 0.650390625
vt 0.479492188 0.705566406
vt 0.471435547 0.719238281
vt 0.482177734 0.693359375
vt 0.472412109 0.704589844
vt 0.467285156 0.719238281
vt 0.472900391 0.692382812
vt 0.465332031 0.705078125
vt 0.463378906 0.720214844
vt 0.463623047 0.692871094
vt 0.458496094 0.706542969
vt 0.459716797 0.721679688
vt 0.489013672 0.647949219
vt 0.498046875 0.567382812
vt 0.521484375 0.572265625
vt 0.472900391 0.666015625
vt 0.451904297 0.709472656
vt 0.456542969 0.724121094
vt 0.445800781 0.713867188
vt 0.454101562 0.727539062
vt 0.440429688 0.719238281
vt 0.4296875 0.709472656
vt 0.437744141 0.703125
vt 0.446044922 0.698242188
vt 0.454589844 0.694824219
vt 0.423095703 0.679199219
vt 0.411621094 0.687011719
vt 0.461181641 0.671875
vt 0.448486328 0.674316406
vt 0.435058594 0.673339844
vt 0.413330078 0.661132812
vt 0.384277344 0.62890625
vt 0.425048828 0.666992188
vt 0.418701172 0.630371094
vt 0.431884766 0.665039062
vt 0.401367188 0.637695312
vt 0.376953125 0.588378906
vt 0.365722656 0.594726562
vt 0.439941406 0.660644531
vt 0.442382812 0.649902344
vt 0.365722656 0.566894531
vt 0.320800781 0.518066406
vt 0.399414062 0.577636719
vt 0.454345703 0.613769531
vt 0.436523438 0.625
vt 0.423828125 0.610351562
vt 0.413085938 0.520996094
vt 0.399414062 0.524414062
vt 0.368896484 0.5078125
vt 0.463378906 0.61328125
vt 0.440917969 0.598632812
vt 0.44921875 0.565917969
vt 0.473632812 0.564941406
vt 0.472412109 0.612792969
vt 0.431640625 0.544921875
vt 0.479980469 0.635253906
vt 0.484130859 0.596679688
vt 0.449707031 0.489746094
vt 0.427001953 0.518066406
vt 0.418701172 0.455322266
vt 0.458007812 0.350097656
vt 0.429931641 0.351318359
vt 0.387451172 0.409667969
vt 0.406738281 0.381103516
vt 0.364501953 0.416015625
vt 0.401855469 0.354492188
vt 0.374755859 0.360595703
vt 0.427001953 0.320800781
vt 0.348632812 0.368896484
vt 0.305175781 0.263916016
vt 0.341552734 0.25
vt 0.303466797 0.339111328
vt 0.323242188 0.37890625
vt 0.342529297 0.423828125
vt 0.379638672 0.239990234
vt 0.370361328 0.19909668
vt 0.328125 0.21081543
vt 0.349853516 0.106750488
vt 0.342041016 0.477294922
vt 0.337646484 0.5078125
vt 0.277587891 0.403320312
vt 0.256103516 0.416992188
vt 0.236816406 0.390869141
vt 0.307861328 0.405761719
vt 0.299560547 0.390625
vt 0.271972656 0.344970703
vt 0.248168945 0.362304688
vt 0.241333008 0.302490234
vt 0.210571289 0.363769531
vt 0.281982422 0.300048828
vt 0.215454102 0.325683594
vt 0.194702148 0.350830078
vt 0.140625 0.317138672
vt 0.156982422 0.274902344
vt 0.125610352 0.25
vt 0.0695800781 0.269042969
vt 0.271484375 0.281738281
vt 0.189208984 0.241699219
vt 0.250732422 0.249389648
vt 0.0889892578 0.221923828
vt 0.0193786621 0.251708984
vt 0.0546875 0.196044922
vt 0.166137695 0.217041016
vt 0.232788086 0.222167969
vt 0.268066406 0.187988281
vt 0.112426758 0.160888672
vt 0.0985717773 0.146606445
vt 0.12890625 0.177856445
vt 0.201904297 0.177612305
vt 0.230834961 0.116455078
vt 0.180664062 0.147583008
vt 0.158691406 0.11706543
vt 0.149414062 0.104187012
vt 0.205932617 0.0690307617
vt 0.267089844 0.0421447754
vt 0.291748047 0.110168457
vt 0.283447266 0.0873413086
vt 0.280517578 0.192993164
vt 0.3359375 0.046081543
vt 0.330810547 0.0240020752
vt 0.395507812 0.0136947632
vt 0.340820312 0.0686035156
vt 0.398193359 0.0399169922
vt 0.460693359 0.0106506348
vt 0.459960938 0.0635375977
vt 0.525878906 0.0156402588
vt 0.401123047 0.0668334961
vt 0.40234375 0.0842895508
vt 0.404541016 0.116027832
vt 0.407958984 0.147460938
vt 0.459472656 0.120849609
vt 0.51953125 0.0623779297
vt 0.514160156 0.116760254
vt 0.583496094 0.0494995117
vt 0.588867188 0.0281982422
vt 0.640625 0.0714111328
vt 0.649902344 0.0473632812
vt 0.708496094 0.0732421875
vt 0.684082031 0.119445801
vt 0.763671875 0.106750488
vt 0.631347656 0.0960693359
vt 0.578125 0.0712890625
vt 0.564941406 0.122558594
vt 0.615722656 0.137939453
vt 0.663574219 0.159057617
vt 0.603515625 0.170288086
vt 0.554199219 0.16809082
vt 0.508789062 0.147827148
vt 0.458496094 0.231811523
vt 0.418945312 0.233764648
vt 0.381591797 0.190917969
vt 0.420898438 0.255859375
vt 0.458251953 0.290771484
vt 0.498046875 0.23425293
vt 0.534667969 0.198730469
vt 0.537597656 0.240844727
vt 0.575195312 0.251220703
vt 0.481689453 0.336425781
vt 0.4921875 0.292724609
vt 0.525878906 0.297851562
vt 0.568359375 0.272460938
vt 0.610839844 0.265380859
vt 0.481445312 0.420654297
vt 0.510742188 0.379882812
vt 0.499511719 0.454589844
vt 0.535644531 0.385253906
vt 0.638183594 0.210571289
vt 0.64453125 0.282958984
vt 0.584472656 0.329833984
vt 0.519042969 0.458007812
vt 0.672851562 0.238525391
vt 0.560058594 0.392333984
vt 0.537597656 0.462890625
vt 0.568359375 0.438720703
vt 0.708496094 0.185668945
vt 0.711914062 0.258544922
vt 0.729980469 0.154418945
vt 0.774414062 0.189086914
vt 0.793945312 0.16809082
vt 0.813476562 0.147460938
vt 0.809570312 0.217163086
vt 0.833496094 0.205932617
vt 0.857421875 0.194702148
vt 0.893554688 0.248657227
vt 0.852050781 0.280029297
vt 0.758300781 0.273925781
vt 0.702148438 0.325195312
vt 0.774902344 0.314941406
vt 0.748535156 0.323486328
vt 0.724609375 0.349609375
vt 0.709472656 0.365234375
vt 0.680175781 0.395263672
vt 0.637207031 0.405273438
vt 0.657714844 0.419433594
vt 0.675292969 0.302978516
vt 0.578125 0.505371094
vt 0.573730469 0.4765625
vt 0.543945312 0.580078125
vt 0.594238281 0.514648438
vt 0.554199219 0.584960938
vt 0.540039062 0.618652344
vt 0.516601562 0.641113281
vt 0.532714844 0.575683594
vt 0.53125 0.543945312
vt 0.616210938 0.391845703
vt 0.517089844 0.553710938
vt 0.556152344 0.469238281
vt 0.593261719 0.379638672
vt 0.677734375 0.251953125
vt 0.958007812 0.627929688
vt 0.880371094 0.595214844
vt 0.896972656 0.627929688
vt 0.978027344 0.598632812
vt 0.884765625 0.573242188
vt 0.974609375 0.576171875
vt 0.907714844 0.561523438
vt 0.952636719 0.562988281
vt 0.930175781 0.558105469
vt 0.214599609 0.674316406
vt 0.129272461 0.650878906
vt 0.145996094 0.673828125
vt 0.2265625 0.641601562
vt 0.131103516 0.628417969
vt 0.220458984 0.620117188
vt 0.15222168 0.613769531
vt 0.196899414 0.609375
vt 0.174194336 0.607910156
vt 0.890136719 0.895507812
vt 0.802246094 0.872070312
vt 0.821777344 0.895996094
vt 0.899414062 0.863769531
vt 0.804199219 0.849609375
vt 0.893554688 0.842285156
vt 0.825683594 0.834960938
vt 0.870117188 0.831054688
vt 0.84765625 0.829101562
vt 0.883300781 0.458251953
vt 0.796875 0.435058594
vt 0.812988281 0.458007812
vt 0.89453125 0.438964844
vt 0.801757812 0.413085938
vt 0.891601562 0.416748047
vt 0.824707031 0.401123047
vt 0.869628906 0.403076172
vt 0.847167969 0.3984375
vt 0.465820312 0.896972656
vt 0.366943359 0.866699219
vt 0.401611328 0.896972656
vt 0.500488281 0.865722656
vt 0.372070312 0.836425781
vt 0.494628906 0.835449219
vt 0.402587891 0.817871094
vt 0.463867188 0.817382812
vt 0.433105469 0.812011719
vt 0.812988281 0.642578125
vt 0.709960938 0.610351562
vt 0.75 0.642578125
vt 0.853027344 0.609863281
vt 0.715332031 0.577636719
vt 0.847167969 0.577148438
vt 0.748046875 0.558105469
vt 0.813964844 0.557617188
vt 0.78125 0.552246094
vt 0.526855469 0.8359375
vt 0.512695312 0.864746094
vt 0.528808594 0.900390625
vt 0.551757812 0.822265625
vt 0.583007812 0.893066406
vt 0.582519531 0.814453125
vt 0.612304688 0.822265625
vt 0.637207031 0.900878906
vt 0.638183594 0.840820312
vt 0.651855469 0.870117188
vt 0.770019531 0.330810547
vt 0.756835938 0.361572266
vt 0.772949219 0.391357422
vt 0.829101562 0.390625
vt 0.795410156 0.315917969
vt 0.827148438 0.307861328
vt 0.858886719 0.315429688
vt 0.885742188 0.334716797
vt 0.884765625 0.390625
vt 0.899414062 0.365234375
vt 0.573242188 0.575195312
vt 0.559082031 0.604980469
vt 0.574707031 0.635253906
vt 0.630859375 0.637695312
vt 0.598632812 0.561523438
vt 0.630859375 0.5546875
vt 0.662597656 0.562988281
vt 0.688476562 0.58203125
vt 0.686523438 0.636230469
vt 0.701660156 0.611816406
vt 0.86328125 0.680175781
vt 0.859375 0.714355469
vt 0.899902344 0.74609375
vt 0.883300781 0.647949219
vt 0.917480469 0.641113281
vt 0.935546875 0.746582031
vt 0.952148438 0.647460938
vt 0.973632812 0.6796875
vt 0.977050781 0.717285156
vt 0.0306243896 0.0305938721
vt 0.0138626099 0.0631713867
vt 0.0539550781 0.0959472656
vt 0.0576477051 0.0166473389
vt 0.0889892578 0.092590332
vt 0.0894165039 0.0090713501
vt 0.12121582 0.0162506104
vt 0.127075195 0.0938110352
vt 0.149902344 0.0346374512
vt 0.165771484 0.0679321289
vt 0.441894531 0.747070312
vt 0.427001953 0.776855469
vt 0.448974609 0.806640625
vt 0.498046875 0.813964844
vt 0.467773438 0.733886719
vt 0.5 0.727539062
vt 0.53125 0.736328125
vt 0.556640625 0.755859375
vt 0.547363281 0.810058594
vt 0.569335938 0.786132812
vt 0.531738281 0.665039062
vt 0.517578125 0.694824219
vt 0.540039062 0.725585938
vt 0.589355469 0.730957031
vt 0.557128906 0.651367188
vt 0.589355469 0.644042969
vt 0.620605469 0.65234375
vt 0.646972656 0.670898438
vt 0.638671875 0.7265625
vt 0.66015625 0.701171875
vt 0.208374023 0.544921875
vt 0.193725586 0.576171875
vt 0.219604492 0.608398438
vt 0.268798828 0.613769531
vt 0.235229492 0.530273438
vt 0.268798828 0.522949219
vt 0.302001953 0.53125
vt 0.329345703 0.551269531
vt 0.317871094 0.609863281
vt 0.343261719 0.582519531
vt 0.738769531 0.917480469
vt 0.725097656 0.947753906
vt 0.751464844 0.977050781
vt 0.796386719 0.979492188
vt 0.764160156 0.903808594
vt 0.796386719 0.896484375
vt 0.828125 0.904785156
vt 0.854003906 0.923828125
vt 0.841796875 0.978027344
vt 0.8671875 0.953613281
vt 0.679199219 0.996582031
vt 0.576171875 0.962890625
vt 0.616210938 0.99609375
vt 0.719726562 0.964355469
vt 0.582519531 0.930175781
vt 0.713867188 0.931640625
vt 0.615722656 0.911132812
vt 0.681152344 0.911621094
vt 0.6484375 0.905761719
vt 0.692382812 0.8203125
vt 0.590332031 0.786621094
vt 0.627929688 0.819824219
vt 0.731445312 0.788574219
vt 0.596191406 0.754394531
vt 0.726074219 0.756347656
vt 0.62890625 0.735351562
vt 0.693847656 0.736816406
vt 0.661621094 0.73046875
vt 0.338378906 0.70703125
vt 0.235107422 0.675292969
vt 0.275390625 0.70703125
vt 0.378417969 0.674316406
vt 0.240722656 0.642089844
vt 0.372314453 0.641601562
vt 0.2734375 0.622558594
vt 0.339355469 0.622070312
vt 0.306396484 0.616699219
vt 0.854492188 0.821777344
vt 0.752441406 0.7890625
vt 0.792480469 0.821777344
vt 0.894042969 0.786132812
vt 0.755371094 0.755371094
vt 0.890136719 0.752929688
vt 0.788574219 0.734863281
vt 0.855957031 0.733398438
vt 0.822265625 0.728027344
vt 0.379882812 0.807617188
vt 0.268554688 0.7734375
vt 0.294677734 0.807128906
vt 0.411621094 0.7734375
vt 0.274169922 0.740722656
vt 0.405761719 0.740722656
vt 0.307128906 0.721191406
vt 0.373046875 0.721191406
vt 0.340087891 0.715332031
vt 0.515136719 0.994628906
vt 0.410888672 0.963867188
vt 0.450683594 0.994628906
vt 0.554199219 0.962402344
vt 0.416503906 0.931152344
vt 0.547851562 0.9296875
vt 0.44921875 0.911132812
vt 0.515136719 0.910644531
vt 0.481933594 0.905273438
vt 0.212768555 0.390625
vt 0.228393555 0.409667969
vt 0.231323242 0.395996094
vt 0.210327148 0.404541016
vt 0.194091797 0.386230469
vt 0.206665039 0.426269531
vt 0.223999023 0.430908203
vt 0.192138672 0.400390625
vt 0.175048828 0.3828125
vt 0.183959961 0.557128906
vt 0.196899414 0.559570312
vt 0.170898438 0.555175781
vt 0.189086914 0.422363281
vt 0.157836914 0.553222656
vt 0.173583984 0.397216797
vt 0.156005859 0.380371094
vt 0.171386719 0.419433594
vt 0.155029297 0.395019531
vt 0.13671875 0.379150391
vt 0.153564453 0.417236328
vt 0.14465332 0.552246094
vt 0.131591797 0.551757812
vt 0.135620117 0.416015625
vt 0.118408203 0.551269531
vt 0.136352539 0.393554688
vt 0.117492676 0.378662109
vt 0.117675781 0.415771484
vt 0.105285645 0.551757812
vt 0.117553711 0.393310547
vt 0.0982666016 0.379150391
vt 0.0997314453 0.416259766
vt 0.0921630859 0.552246094
vt 0.098815918 0.393798828
vt 0.0790405273 0.380859375
vt 0.0818481445 0.417724609
vt 0.0790405273 0.553710938
vt 0.0801391602 0.395263672
vt 0.0599365234 0.383300781
vt 0.0640258789 0.419921875
vt 0.0659790039 0.555664062
vt 0.0615539551 0.397705078
vt 0.0409851074 0.386962891
vt 0.0463562012 0.423095703
vt 0.052947998 0.557617188
vt 0.0431213379 0.401123047
vt 0.022277832 0.391601562
vt 0.0288543701 0.427246094
vt 0.0400085449 0.560546875
vt 0.0115737915 0.432128906
vt 0.0248565674 0.405517578
vt 0.00381278992 0.397216797
vt 0.00687026978 0.410888672
vt 0.018661499 0.269775391
vt 0.0202636719 0.273925781
vt 0.0226593018 0.271484375
vt 0.0169219971 0.273681641
vt 0.0227203369 0.268310547
vt 0.0145950317 0.271484375
vt 0.0203094482 0.265869141
vt 0.0146560669 0.268066406
vt 0.0171508789 0.265625
vn -0.501464844 0.319091797 0.804199219
vn -0.573242188 0.19128418 0.796875
vn -0.255859375 0.200683594 0.945800781
vn -0.198486328 0.343505859 0.91796875
vn 0.0786132812 0.208251953 0.975097656
vn 0.0374450684 0.358886719 0.932617188
vn 0.279541016 0.360107422 0.890136719
vn 0.379882812 0.203491211 0.90234375
vn 0.631347656 0.350097656 0.691894531
vn 0.799316406 0.355957031 0.484130859
vn -0.322265625 0.280761719 0.903808594
vn 0.109741211 0.326416016 0.938964844
vn -0.0001475811 0.592285156 0.805664062
vn -0.376708984 0.581054688 0.721679688
vn -0.600097656 0.304443359 0.739746094
vn -0.562988281 0.568359375 0.600097656
vn -0.697265625 0.563964844 0.442382812
vn -0.836425781 0.297607422 0.459960938
vn -0.824707031 0.556152344 0.104858398
vn -0.958007812 0.285400391 0.0205993652
vn -0.503417969 0.477539062 -0.720214844
vn -0.407226562 0.281005859 -0.869140625
vn -0.760253906 0.263427734 -0.59375
vn -0.762695312 0.442138672 -0.471923828
vn -0.916503906 0.26953125 -0.294677734
vn -0.847167969 0.437011719 -0.302734375
vn -0.884765625 0.455078125 -0.102478027
vn -0.961914062 0.264892578 0.0642700195
vn -0.85546875 0.486328125 0.178710938
vn -0.778808594 0.521972656 0.348388672
vn 0.76953125 0.479003906 0.422607422
vn 0.702148438 0.237792969 0.670898438
vn 0.927734375 0.257324219 0.270751953
vn 0.890136719 0.442382812 0.11126709
vn 0.960449219 0.264648438 -0.0870361328
vn 0.898925781 0.434082031 -0.0600280762
vn 0.862792969 0.446533203 -0.237304688
vn 0.873535156 0.256347656 -0.413574219
vn 0.708984375 0.478271484 -0.518066406
vn 0.524414062 0.227783203 -0.820800781
vn 0.376953125 0.327148438 -0.866699219
vn 0.59375 0.161865234 -0.788085938
vn 0.116821289 0.190307617 -0.974609375
vn -0.039276123 0.350097656 -0.936035156
vn -0.453369141 0.220947266 -0.863769531
vn -0.393310547 0.358642578 -0.846679688
vn -0.703613281 0.375976562 -0.602539062
vn -0.939941406 0.191894531 -0.282470703
vn -0.914550781 0.371826172 -0.16027832
vn -0.971191406 0.216430664 0.0998535156
vn 0.895019531 0.427490234 0.127929688
vn 0.916503906 0.295166016 0.269287109
vn 0.950683594 0.270263672 -0.150878906
vn 0.888183594 0.407714844 -0.212036133
vn 0.856933594 0.285888672 -0.428710938
vn 0.831542969 0.404541016 -0.380859375
vn 0.716796875 0.425048828 -0.552734375
vn 0.673828125 0.300048828 -0.674804688
vn 0.470214844 0.459228516 -0.753417969
vn 0.27734375 0.298828125 -0.913085938
vn 0.775878906 0.625488281 -0.0834960938
vn 0.866699219 0.466308594 -0.177978516
vn 0.754394531 0.47265625 -0.455078125
vn 0.723632812 0.621582031 -0.30078125
vn 0.600585938 0.631835938 -0.490234375
vn 0.614746094 0.478271484 -0.626953125
vn 0.441650391 0.624023438 -0.64453125
vn 0.217773438 0.63671875 -0.739746094
vn 0.239868164 0.451904297 -0.859375
vn 0.307617188 0.712402344 -0.630371094
vn 0.603027344 0.489990234 -0.629394531
vn 0.284179688 0.514648438 -0.80859375
vn 0.385009766 0.674316406 -0.629882812
vn 0.498291016 0.668457031 -0.551757812
vn 0.583984375 0.66796875 -0.4609375
vn 0.591308594 0.6875 -0.421386719
vn 0.752929688 0.471191406 -0.459228516
vn 0.139282227 0.495117188 0.857421875
vn 0.0483093262 0.338134766 0.939941406
vn 0.484619141 0.337646484 0.807128906
vn 0.342041016 0.475097656 0.810546875
vn 0.552734375 0.472900391 0.686035156
vn 0.685546875 0.335449219 0.645996094
vn 0.720703125 0.472167969 0.5078125
vn 0.809082031 0.493164062 0.319335938
vn 0.900878906 0.328125 0.284667969
vn 0.215332031 0.526855469 -0.822265625
vn 0.326660156 0.323974609 -0.887695312
vn -0.102905273 0.344482422 -0.933105469
vn -0.191894531 0.556640625 -0.808105469
vn -0.439453125 0.3515625 -0.826660156
vn -0.381347656 0.5546875 -0.739257812
vn -0.553222656 0.554199219 -0.622070312
vn -0.735351562 0.311279297 -0.602050781
vn -0.796875 0.519042969 -0.309082031
vn -0.907714844 0.296630859 -0.297119141
vn -0.591796875 0.361816406 -0.720214844
vn -0.400634766 0.204833984 -0.893066406
vn -0.770507812 0.20715332 -0.602539062
vn -0.770019531 0.351318359 -0.532714844
vn -0.930175781 0.21887207 -0.294921875
vn -0.881347656 0.358886719 -0.306884766
vn -0.9296875 0.365478516 -0.0431518555
vn -0.976074219 0.215942383 0.0145721436
vn -0.871582031 0.402099609 0.280273438
vn -0.841796875 0.225219727 0.490478516
vn -0.704101562 0.409667969 -0.580078125
vn -0.725585938 0.179931641 -0.6640625
vn -0.986328125 0.157592773 -0.0433959961
vn -0.881347656 0.407470703 -0.239379883
vn -0.904296875 0.420166016 0.0772094727
vn -0.958984375 0.15612793 0.236083984
vn -0.831542969 0.400878906 0.384277344
vn -0.59375 0.395751953 0.700195312
vn -0.59765625 0.147338867 0.788085938
vn 0.540039062 0.400390625 0.740234375
vn 0.387451172 0.178833008 0.904296875
vn 0.735839844 0.186889648 0.650878906
vn 0.787109375 0.366455078 0.49609375
vn 0.948242188 0.212036133 0.235839844
vn 0.913085938 0.341796875 0.222167969
vn 0.935546875 0.350585938 -0.0419921875
vn 0.9765625 0.183105469 -0.112548828
vn 0.872070312 0.351806641 -0.33984375
vn 0.784667969 0.14855957 -0.6015625
vn -0.817871094 0.409912109 0.404052734
vn -0.860839844 0.216674805 0.460449219
vn -0.623046875 0.202514648 0.755859375
vn -0.595214844 0.460449219 0.658691406
vn -0.334472656 0.236694336 0.912109375
vn -0.315185547 0.490478516 0.8125
vn 0.0175628662 0.476806641 0.87890625
vn 0.0654296875 0.226196289 0.971679688
vn 0.368896484 0.435546875 0.821289062
vn 0.556152344 0.217651367 0.801757812
vn 0.232177734 0.419677734 0.877441406
vn -0.0405883789 0.157226562 0.986816406
vn 0.675292969 0.177368164 0.715820312
vn 0.517089844 0.402587891 0.755371094
vn 0.693847656 0.422363281 0.583496094
vn 0.847167969 0.185791016 0.497558594
vn 0.832519531 0.401123047 0.382568359
vn 0.906738281 0.418212891 0.0547790527
vn 0.97265625 0.173095703 -0.15612793
vn 0.869628906 0.449707031 -0.202880859
vn 0.865234375 0.496337891 0.0701293945
vn 0.8515625 0.218261719 -0.476318359
vn 0.766601562 0.417236328 -0.488037109
vn 0.578613281 0.439697266 -0.686523438
vn 0.296875 0.209350586 -0.931640625
vn 0.353515625 0.411621094 -0.83984375
vn 0.0517272949 0.436523438 -0.897949219
vn -0.227172852 0.478515625 -0.848144531
vn 0.913574219 0.350830078 0.206787109
vn 0.923339844 0.211547852 0.320556641
vn 0.979492188 0.198608398 -0.0401611328
vn 0.92578125 0.376464844 -0.0386962891
vn 0.888671875 0.232299805 -0.395996094
vn 0.837402344 0.400634766 -0.371826172
vn 0.63671875 0.399169922 -0.659667969
vn 0.576660156 0.236938477 -0.781738281
vn 0.351806641 0.3984375 -0.847167969
vn 0.116394043 0.209716797 -0.970703125
vn 0.534179688 0.393554688 -0.748046875
vn 0.685058594 0.169311523 -0.708496094
vn 0.390136719 0.194335938 -0.899902344
vn 0.202880859 0.401123047 -0.893554688
vn -0.0785522461 0.404052734 -0.911132812
vn -0.0807495117 0.180053711 -0.98046875
vn -0.467529297 0.183959961 -0.864746094
vn -0.317871094 0.401123047 -0.858886719
vn -0.583007812 0.414550781 -0.698730469
vn -0.825195312 0.147460938 -0.544921875
vn -0.803710938 0.422607422 0.418457031
vn -0.272460938 0.422607422 0.864257812
vn -0.286376953 0.304931641 0.908203125
vn -0.844726562 0.304931641 0.439697266
vn -0.864257812 0.422607422 -0.272460938
vn -0.890625 0.17565918 0.419433594
vn -0.366699219 0.184204102 0.911621094
vn -0.385742188 0.161865234 0.908203125
vn -0.958984375 0.15612793 0.236083984
vn -0.908203125 0.304931641 -0.286376953
vn -0.418457031 0.422607422 -0.803710938
vn -0.950195312 0.17565918 -0.258300781
vn -0.439697266 0.304931641 -0.844726562
vn 0.272460938 0.422607422 -0.864257812
vn -0.537597656 0.184814453 -0.822753906
vn 0.286376953 0.304931641 -0.908203125
vn 0.803710938 0.422607422 -0.418457031
vn 0.286376953 0.194091797 -0.937988281
vn 0.844726562 0.304931641 -0.439697266
vn 0.864257812 0.422607422 0.272460938
vn -0.986328125 0.157592773 -0.0433959961
vn -0.939941406 0.191894531 -0.282470703
vn -0.955566406 0.133544922 0.263427734
vn -0.517089844 0.169555664 -0.838867188
vn 0.908203125 0.304931641 0.286376953
vn 0.418457031 0.422607422 0.803710938
vn 0.439697266 0.304931641 0.844726562
vn -0.272460938 0.422607422 0.864257812
vn -0.286376953 0.304931641 0.908203125
vn -0.366699219 0.184204102 0.911621094
vn 0.452880859 0.194458008 0.870117188
vn 0.928710938 0.195922852 0.315429688
vn 0.874023438 0.194091797 -0.445068359
vn 0.435058594 0.160400391 0.885742188
vn -0.385742188 0.161865234 0.908203125
vn 0.296875 0.209350586 -0.931640625
vn 0.8515625 0.218261719 -0.476318359
vn 0.935058594 0.158081055 0.317382812
vn 0.387451172 0.178833008 0.904296875
vn -0.0405883789 0.157226562 0.986816406
vn 0.735839844 0.186889648 0.650878906
vn 0.847167969 0.185791016 0.497558594
vn 0.948242188 0.212036133 0.235839844
vn 0.675292969 0.177368164 0.715820312
vn 0.672851562 0.133178711 0.728027344
vn 0.0654296875 0.226196289 0.971679688
vn 0.9765625 0.183105469 -0.112548828
vn 0.784667969 0.14855957 -0.6015625
vn 0.556152344 0.217651367 0.801757812
vn 0.0786132812 0.208251953 0.975097656
vn 0.882324219 0.136230469 0.450195312
vn 0.390136719 0.194335938 -0.899902344
vn 0.854492188 0.169189453 -0.490722656
vn 0.97265625 0.173095703 -0.15612793
vn 0.888671875 0.232299805 -0.395996094
vn 0.979492188 0.198608398 -0.0401611328
vn 0.923339844 0.211547852 0.320556641
vn -0.0807495117 0.180053711 -0.98046875
vn 0.685058594 0.169311523 -0.708496094
vn 0.116821289 0.190307617 -0.974609375
vn -0.453369141 0.220947266 -0.863769531
vn -0.467529297 0.183959961 -0.864746094
vn 0.59375 0.161865234 -0.788085938
vn -0.725585938 0.179931641 -0.6640625
vn -0.825195312 0.147460938 -0.544921875
vn 0.116394043 0.209716797 -0.970703125
vn 0.576660156 0.236938477 -0.781738281
vn 0.555664062 0.190185547 -0.809082031
vn -0.0400085449 0.21496582 -0.975585938
vn 0.250976562 0.210449219 -0.944824219
vn 0.873535156 0.256347656 -0.413574219
vn 0.524414062 0.227783203 -0.820800781
vn 0.960449219 0.264648438 -0.0870361328
vn 0.673828125 0.300048828 -0.674804688
vn 0.856933594 0.285888672 -0.428710938
vn 0.27734375 0.298828125 -0.913085938
vn 0.950683594 0.270263672 -0.150878906
vn 0.937011719 0.317871094 -0.143920898
vn 0.847167969 0.292236328 -0.443359375
vn 0.916503906 0.295166016 0.269287109
vn 0.934082031 0.220092773 0.281738281
vn 0.927734375 0.257324219 0.270751953
vn 0.670898438 0.301269531 -0.677246094
vn 0.614746094 0.478271484 -0.626953125
vn 0.754394531 0.47265625 -0.455078125
vn 0.603027344 0.489990234 -0.629394531
vn 0.760742188 0.178710938 0.624023438
vn 0.379882812 0.203491211 0.90234375
vn 0.430419922 0.216186523 0.876464844
vn 0.0857543945 0.200439453 0.976074219
vn 0.109741211 0.326416016 0.938964844
vn 0.702148438 0.237792969 0.670898438
vn 0.731933594 0.240356445 0.637207031
vn 0.685546875 0.335449219 0.645996094
vn 0.484619141 0.337646484 0.807128906
vn 0.671386719 0.356445312 0.649902344
vn 0.0483093262 0.338134766 0.939941406
vn 0.900878906 0.328125 0.284667969
vn 0.451416016 0.374511719 0.810058594
vn 0.177246094 0.384277344 0.90625
vn 0.0595397949 0.484375 0.872558594
vn 0.428955078 0.473632812 0.769042969
vn 0.456054688 0.478271484 0.750488281
vn 0.0196685791 0.52734375 0.849609375
vn 0.880859375 0.333496094 0.335449219
vn 0.663085938 0.468017578 0.583984375
vn 0.869140625 0.411621094 0.274169922
vn 0.44140625 0.517089844 0.733398438
vn 0.112609863 0.452880859 0.884277344
vn 0.358642578 0.441162109 0.822753906
vn 0.669921875 0.481689453 0.564941406
vn 0.807617188 0.519042969 0.279785156
vn 0.862792969 0.504882812 -0.0296478271
vn 0.710449219 0.512695312 0.482177734
vn 0.712890625 0.453613281 0.534667969
vn 0.623535156 0.525390625 0.579101562
vn 0.822753906 0.475341797 0.311523438
vn 0.842773438 0.536621094 -0.0453186035
vn 0.801757812 0.553222656 0.227050781
vn 0.798828125 0.509277344 0.3203125
vn 0.827636719 0.453857422 0.330322266
vn 0.880859375 0.452880859 -0.139038086
vn 0.821289062 0.452636719 -0.346923828
vn 0.752929688 0.471191406 -0.459228516
vn 0.745605469 0.505371094 -0.434326172
vn 0.866699219 0.466308594 -0.177978516
vn 0.490234375 0.506347656 -0.709472656
vn 0.5234375 0.453369141 -0.721679688
vn 0.315185547 0.454345703 -0.833007812
vn 0.589355469 0.513671875 -0.623535156
vn 0.335205078 0.499755859 -0.798828125
vn -0.142700195 0.453369141 -0.879882812
vn -0.067199707 0.50390625 -0.860839844
vn -0.346923828 0.453613281 -0.820800781
vn 0.209838867 0.529296875 -0.822265625
vn 0.284179688 0.514648438 -0.80859375
vn 0.235961914 0.541015625 -0.807128906
vn 0.239868164 0.451904297 -0.859375
vn -0.100524902 0.513671875 -0.852050781
vn -0.416015625 0.506835938 -0.755371094
vn -0.411621094 0.488525391 -0.76953125
vn -0.709472656 0.505859375 -0.490722656
vn -0.721679688 0.452880859 -0.5234375
vn -0.798339844 0.5 -0.335449219
vn -0.833496094 0.453125 -0.315673828
vn -0.87890625 0.452392578 0.150024414
vn -0.861816406 0.504882812 0.0523376465
vn -0.819335938 0.452636719 0.352050781
vn -0.829589844 0.515136719 -0.21472168
vn -0.62109375 0.521484375 -0.584960938
vn -0.689453125 0.437011719 -0.577636719
vn -0.832519531 0.483886719 -0.270019531
vn -0.849121094 0.520019531 0.0936279297
vn -0.828125 0.456787109 -0.324707031
vn -0.708007812 0.465332031 -0.53125
vn -0.414306641 0.467041016 -0.78125
vn -0.0971679688 0.441650391 -0.892089844
vn 0.238037109 0.466064453 -0.852050781
vn 0.5234375 0.466308594 -0.712890625
vn 0.326660156 0.323974609 -0.887695312
vn -0.102905273 0.344482422 -0.933105469
vn -0.408203125 0.397705078 -0.821777344
vn -0.607910156 0.443603516 -0.658691406
vn -0.753417969 0.349365234 -0.557128906
vn -0.858398438 0.375 -0.350585938
vn -0.407226562 0.281005859 -0.869140625
vn -0.439453125 0.3515625 -0.826660156
vn -0.735351562 0.311279297 -0.602050781
vn -0.907714844 0.296630859 -0.297119141
vn -0.924804688 0.361816406 0.116333008
vn -0.400634766 0.204833984 -0.893066406
vn -0.760253906 0.263427734 -0.59375
vn -0.770507812 0.20715332 -0.602539062
vn -0.916503906 0.26953125 -0.294677734
vn -0.880859375 0.452880859 0.138061523
vn -0.834472656 0.324707031 0.445068359
vn -0.958007812 0.285400391 0.0205993652
vn -0.930175781 0.21887207 -0.294921875
vn -0.812988281 0.469726562 0.34375
vn -0.961914062 0.264892578 0.0642700195
vn -0.976074219 0.215942383 0.0145721436
vn -0.841796875 0.225219727 0.490478516
vn -0.80078125 0.474609375 0.365478516
vn -0.551757812 0.462158203 0.693847656
vn -0.763671875 0.491455078 0.418457031
vn -0.616210938 0.485595703 0.620117188
vn -0.515625 0.479736328 0.709960938
vn -0.545898438 0.4375 0.714355469
vn -0.201904297 0.533691406 0.821289062
vn -0.339599609 0.488037109 0.804199219
vn -0.303222656 0.451660156 0.839355469
vn 0.112609863 0.452880859 0.884277344
vn 0.0196685791 0.52734375 0.849609375
vn -0.212768555 0.471191406 0.855957031
vn -0.343994141 0.431884766 0.833984375
vn 0.0595397949 0.484375 0.872558594
vn 0.0221710205 0.480712891 0.876464844
vn 0.177246094 0.384277344 0.90625
vn 0.0483093262 0.338134766 0.939941406
vn 0.109741211 0.326416016 0.938964844
vn -0.322265625 0.280761719 0.903808594
vn 0.0857543945 0.200439453 0.976074219
vn -0.562011719 0.401611328 0.723144531
vn -0.255859375 0.200683594 0.945800781
vn -0.573242188 0.19128418 0.796875
vn -0.334472656 0.236694336 0.912109375
vn 0.0786132812 0.208251953 0.975097656
vn 0.0654296875 0.226196289 0.971679688
vn -0.0405883789 0.157226562 0.986816406
vn -0.59765625 0.147338867 0.788085938
vn -0.623046875 0.202514648 0.755859375
vn -0.860839844 0.216674805 0.460449219
vn -0.600097656 0.304443359 0.739746094
vn -0.971191406 0.216430664 0.0998535156
vn -0.875 0.165039062 0.455566406
vn -0.836425781 0.297607422 0.459960938
vn -0.776855469 0.507324219 0.373046875
vn -0.339599609 0.488037109 0.804199219
vn -0.361083984 0.642089844 0.676757812
vn -0.515625 0.479736328 0.709960938
vn -0.359863281 0.644042969 0.675292969
vn -0.319824219 0.71875 0.617675781
vn -0.319824219 0.71875 0.617675781
vn -0.299560547 0.755371094 0.583007812
vn -0.299560547 0.755371094 0.583007812
vn -0.330810547 0.697265625 0.636230469
vn -0.798339844 0.5 -0.335449219
vn -0.649414062 0.659179688 -0.378662109
vn -0.709472656 0.505859375 -0.490722656
vn -0.651367188 0.656738281 -0.379638672
vn -0.602539062 0.715820312 -0.352539062
vn -0.602539062 0.715820312 -0.352539062
vn -0.568847656 0.752929688 -0.331298828
vn -0.568847656 0.752929688 -0.331298828
vn -0.620605469 0.694335938 -0.364013672
vn 0.335205078 0.499755859 -0.798828125
vn 0.383300781 0.658203125 -0.647949219
vn 0.490234375 0.506347656 -0.709472656
vn 0.385498047 0.651855469 -0.652832031
vn 0.360839844 0.711425781 -0.603027344
vn 0.360839844 0.711425781 -0.603027344
vn 0.340576172 0.749023438 -0.568359375
vn 0.340576172 0.749023438 -0.568359375
vn 0.371826172 0.689941406 -0.62109375
vn 0.798828125 0.509277344 0.3203125
vn 0.645019531 0.686035156 0.3359375
vn 0.710449219 0.512695312 0.482177734
vn 0.647460938 0.683105469 0.337402344
vn 0.617675781 0.71875 0.319824219
vn 0.617675781 0.71875 0.319824219
vn 0.583007812 0.755371094 0.299560547
vn 0.583007812 0.755371094 0.299560547
vn 0.635742188 0.697265625 0.330810547
vn 0.589355469 0.513671875 -0.623535156
vn 0.562011719 0.684570312 -0.463867188
vn 0.745605469 0.505371094 -0.434326172
vn 0.562011719 0.684570312 -0.463867188
vn 0.518066406 0.73828125 -0.431884766
vn 0.518066406 0.73828125 -0.431884766
vn 0.369140625 0.872070312 -0.321289062
vn 0.369140625 0.872070312 -0.321289062
vn 0.339355469 0.892089844 -0.298828125
vn 0.842773438 0.536621094 -0.0453186035
vn 0.651855469 0.754882812 0.0695800781
vn 0.801757812 0.553222656 0.227050781
vn 0.651855469 0.754882812 0.0695800781
vn 0.596679688 0.799804688 0.0631103516
vn 0.597167969 0.799804688 0.0631103516
vn 0.400390625 0.915527344 0.0409240723
vn 0.400390625 0.915527344 0.0409240723
vn 0.361572266 0.931640625 0.0365600586
vn -0.7265625 0.631835938 -0.270019531
vn -0.6171875 0.521484375 -0.589355469
vn -0.832519531 0.483886719 -0.270019531
vn -0.723632812 0.684082031 -0.0919189453
vn -0.849121094 0.520019531 0.0936279297
vn -0.721191406 0.691894531 0.0368652344
vn -0.697265625 0.692382812 0.185180664
vn -0.80078125 0.474609375 0.365478516
vn -0.668457031 0.646972656 0.3671875
vn -0.537597656 0.549804688 0.639160156
vn 0.156982422 0.728027344 -0.666992188
vn 0.551757812 0.612304688 -0.56640625
vn 0.235961914 0.541015625 -0.807128906
vn -0.100524902 0.513671875 -0.852050781
vn 0.0679931641 0.720703125 -0.689941406
vn -0.0360107422 0.708007812 -0.705078125
vn -0.149536133 0.724121094 -0.672851562
vn -0.247436523 0.740722656 -0.624511719
vn -0.411621094 0.488525391 -0.76953125
vn -0.561035156 0.66015625 -0.499267578
vn 0.46875 0.620605469 0.628417969
vn 0.177490234 0.579101562 0.795410156
vn 0.456054688 0.478271484 0.750488281
vn 0.669921875 0.481689453 0.564941406
vn 0.528808594 0.6015625 0.598632812
vn 0.595703125 0.600097656 0.533691406
vn 0.663574219 0.609375 0.433837891
vn 0.6875 0.634765625 0.352783203
vn 0.822753906 0.475341797 0.311523438
vn 0.783691406 0.611816406 0.107727051
vn -0.711914062 0.645507812 0.275878906
vn -0.776855469 0.507324219 0.373046875
vn -0.562011719 0.401611328 0.723144531
vn -0.533203125 0.668457031 0.518066406
vn -0.352294922 0.676757812 0.646484375
vn -0.343994141 0.431884766 0.833984375
vn -0.135009766 0.666015625 0.733886719
vn 0.155029297 0.636230469 0.755859375
vn 0.0221710205 0.480712891 0.876464844
vn 0.420166016 0.560546875 -0.713378906
vn 0.5234375 0.466308594 -0.712890625
vn 0.238037109 0.466064453 -0.852050781
vn 0.130737305 0.584472656 -0.80078125
vn -0.0971679688 0.441650391 -0.892089844
vn -0.050201416 0.587890625 -0.807128906
vn -0.243041992 0.589355469 -0.770507812
vn -0.408203125 0.397705078 -0.821777344
vn -0.526367188 0.562988281 -0.637207031
vn -0.607910156 0.443603516 -0.658691406
vn -0.468017578 0.607910156 -0.641601562
vn -0.236083984 0.618652344 -0.749511719
vn -0.414306641 0.467041016 -0.78125
vn -0.708007812 0.465332031 -0.53125
vn -0.540039062 0.58203125 -0.607910156
vn -0.608886719 0.580566406 -0.540039062
vn -0.679199219 0.589355469 -0.437255859
vn -0.705078125 0.6171875 -0.348388672
vn -0.828125 0.456787109 -0.324707031
vn -0.759277344 0.633300781 -0.149047852
vn 0.606933594 0.689453125 0.395019531
vn 0.436035156 0.691894531 0.575683594
vn 0.663085938 0.468017578 0.583984375
vn 0.807617188 0.519042969 0.279785156
vn 0.667480469 0.665039062 0.334960938
vn 0.706542969 0.6640625 0.244628906
vn 0.731445312 0.671386719 0.120483398
vn 0.717285156 0.696289062 0.0243225098
vn 0.862792969 0.504882812 -0.0296478271
vn 0.688476562 0.703125 -0.177734375
vn -0.135375977 0.706542969 0.694335938
vn -0.353027344 0.714355469 0.604003906
vn -0.212768555 0.471191406 0.855957031
vn 0.0595397949 0.484375 0.872558594
vn -0.0552368164 0.682617188 0.728515625
vn 0.043182373 0.682128906 0.729980469
vn 0.167602539 0.688964844 0.705078125
vn 0.251708984 0.713378906 0.654296875
vn 0.428955078 0.473632812 0.769042969
vn 0.415527344 0.724121094 0.550292969
vn -0.766601562 0.613769531 0.188964844
vn -0.773925781 0.631347656 -0.0506591797
vn -0.880859375 0.452880859 0.138061523
vn -0.812988281 0.469726562 0.34375
vn -0.762695312 0.589355469 0.266845703
vn -0.727539062 0.587890625 0.353515625
vn -0.661132812 0.596679688 0.454833984
vn -0.591796875 0.623535156 0.510742188
vn -0.551757812 0.462158203 0.693847656
vn -0.436035156 0.643554688 0.62890625
vn -0.067199707 0.50390625 -0.860839844
vn 0.0776977539 0.686523438 -0.723144531
vn 0.209838867 0.529296875 -0.822265625
vn 0.0776977539 0.686523438 -0.723144531
vn 0.0716552734 0.737304688 -0.671875
vn 0.0716552734 0.737304688 -0.671875
vn 0.0507507324 0.871582031 -0.487792969
vn 0.0507507324 0.871582031 -0.487792969
vn 0.0465698242 0.891601562 -0.450683594
vn -0.62109375 0.521484375 -0.584960938
vn -0.437988281 0.709472656 -0.552246094
vn -0.416015625 0.506835938 -0.755371094
vn -0.437988281 0.709472656 -0.551757812
vn -0.404785156 0.759765625 -0.509277344
vn -0.404785156 0.759765625 -0.509277344
vn -0.291503906 0.887695312 -0.356689453
vn -0.291503906 0.887695312 -0.356689453
vn -0.268798828 0.90625 -0.326171875
vn -0.861816406 0.504882812 0.0523376465
vn -0.71875 0.690917969 -0.0771484375
vn -0.829589844 0.515136719 -0.21472168
vn -0.719238281 0.690429688 -0.0771484375
vn -0.667480469 0.741210938 -0.0711669922
vn -0.667480469 0.741210938 -0.0711669922
vn -0.482666016 0.874511719 -0.0501708984
vn -0.482666016 0.874511719 -0.0501708984
vn -0.445556641 0.894042969 -0.0459899902
vn -0.616210938 0.485595703 0.620117188
vn -0.589355469 0.647460938 0.483154297
vn -0.763671875 0.491455078 0.418457031
vn -0.589355469 0.647460938 0.483398438
vn -0.547851562 0.703125 0.453369141
vn -0.547851562 0.703125 0.453369141
vn -0.405029297 0.845214844 0.348144531
vn -0.405029297 0.845214844 0.348144531
vn -0.375976562 0.8671875 0.326416016
vn 0.0196685791 0.52734375 0.849609375
vn -0.0706787109 0.752929688 0.654296875
vn -0.201904297 0.533691406 0.821289062
vn -0.0703735352 0.754882812 0.65234375
vn -0.0631103516 0.799804688 0.596679688
vn -0.0631103516 0.799804688 0.597167969
vn -0.0409240723 0.915527344 0.400390625
vn -0.0409240723 0.915527344 0.400390625
vn -0.0365600586 0.931640625 0.361572266
vn 0.623535156 0.525390625 0.579101562
vn 0.434082031 0.722167969 0.538085938
vn 0.44140625 0.517089844 0.733398438
vn 0.434326172 0.722167969 0.538574219
vn 0.400390625 0.770996094 0.495605469
vn 0.400390625 0.770996094 0.495605469
vn 0.280761719 0.895507812 0.345214844
vn 0.280761719 0.895507812 0.345214844
vn 0.256835938 0.913574219 0.315429688
vn -0.817871094 0.0591125488 0.572753906
vn -0.421875 0.0591125488 0.904785156
vn -0.421875 0.0591125488 0.904785156
vn -0.817871094 0.0591125488 0.572753906
vn -0.994628906 0.0591125488 0.0869750977
vn -0.817871094 0.0591125488 0.572753906
vn -0.421875 0.0591125488 0.904785156
vn -0.994628906 0.0591125488 0.0869750977
vn -0.904785156 0.0591125488 -0.421875
vn -0.817871094 0.0591125488 0.572753906
vn -0.421875 0.0591125488 0.904785156
vn -0.994628906 0.0591125488 0.0869750977
vn -0.994628906 0.0591125488 0.0869750977
vn -0.904785156 0.0591125488 -0.421875
vn -0.904785156 0.0591125488 -0.421875
vn -0.572753906 0.0591125488 -0.817871094
vn -0.904785156 0.0591125488 -0.421875
vn -0.572753906 0.0591125488 -0.817871094
vn -0.0869750977 0.0591125488 -0.994628906
vn -0.572753906 0.0591125488 -0.817871094
vn -0.572753906 0.0591125488 -0.817871094
vn -0.0869750977 0.0591125488 -0.994628906
vn -0.0869750977 0.0591125488 -0.994628906
vn 0.421875 0.0591125488 -0.904785156
vn -0.0869750977 0.0591125488 -0.994628906
vn 0.421875 0.0591125488 -0.904785156
vn 0.421875 0.0591125488 -0.904785156
vn 0.817871094 0.0591125488 -0.572753906
vn 0.421875 0.0591125488 -0.904785156
vn 0.817871094 0.0591125488 -0.572753906
vn 0.817871094 0.0591125488 -0.572753906
vn 0.994628906 0.0591125488 -0.0869750977
vn 0.817871094 0.0591125488 -0.572753906
vn 0.994628906 0.0591125488 -0.0869750977
vn 0.994628906 0.0591125488 -0.0869750977
vn 0.904785156 0.0591125488 0.421875
vn 0.994628906 0.0591125488 -0.0869750977
vn 0.904785156 0.0591125488 0.421875
vn 0.904785156 0.0591125488 0.421875
vn 0.572753906 0.0591125488 0.817871094
vn 0.904785156 0.0591125488 0.421875
vn 0.572753906 0.0591125488 0.817871094
vn 0.572753906 0.0591125488 0.817871094
vn 0.0869750977 0.0591125488 0.994628906
vn 0.572753906 0.0591125488 0.817871094
vn 0.0869750977 0.0591125488 0.994628906
vn 0.0869750977 0.0591125488 0.994628906
vn -0.421875 0.0591125488 0.904785156
vn -0.421875 0.0591125488 0.904785156
vn 0.0869750977 0.0591125488 0.994628906
vn -0.421875 0.0591125488 0.904785156
vn -0.421875 0.0591125488 0.904785156
vn 4.17232513E-07 1 0
vn -0.272460938 0.422607422 0.864257812
vn -0.803710938 0.422607422 0.418457031
vn 0.418457031 0.422607422 0.803710938
vn -0.864257812 0.422607422 -0.272460938
vn 0.864257812 0.422607422 0.272460938
vn -0.418457031 0.422607422 -0.803710938
vn 0.803710938 0.422607422 -0.418457031
vn 0.272460938 0.422607422 -0.864257812
g O_env_th_songshu2_1_0
f 3/3/3 2/2/2 1/1/1
f 3/3/3 1/1/1 4/4/4
f 4/4/4 5/5/5 3/3/3
f 5/5/5 4/4/4 6/6/6
f 5/5/5 6/6/6 7/7/7
f 8/8/8 5/5/5 7/7/7
f 7/7/7 9/9/9 8/8/8
f 9/9/9 10/10/10 8/8/8
f 13/13/13 12/12/12 11/11/11
f 14/14/14 13/13/13 11/11/11
f 11/11/11 15/15/15 14/14/14
f 15/15/15 16/16/16 14/14/14
f 15/15/15 17/17/17 16/16/16
f 17/17/17 15/15/15 18/18/18
f 18/18/18 19/19/19 17/17/17
f 18/18/18 20/20/20 19/19/19
f 23/23/23 22/22/22 21/21/21
f 23/23/23 21/21/21 24/24/24
f 24/24/24 25/25/25 23/23/23
f 25/25/25 24/24/24 26/26/26
f 25/25/25 26/26/26 27/27/27
f 28/28/28 25/25/25 27/27/27
f 27/27/27 29/29/29 28/28/28
f 29/29/29 30/30/30 28/28/28
f 33/33/33 32/32/32 31/31/31
f 33/33/33 31/31/31 34/34/34
f 34/34/34 35/35/35 33/33/33
f 35/35/35 34/34/34 36/36/36
f 35/35/35 36/36/36 37/37/37
f 38/38/38 35/35/35 37/37/37
f 37/37/37 39/39/39 38/38/38
f 39/39/39 40/40/40 38/38/38
f 43/43/43 42/42/42 41/41/41
f 43/43/43 41/41/41 44/44/44
f 44/44/44 45/45/45 43/43/43
f 45/45/45 44/44/44 46/46/46
f 45/45/45 46/46/46 47/47/47
f 48/48/48 45/45/45 47/47/47
f 47/47/47 49/49/49 48/48/48
f 49/49/49 50/50/50 48/48/48
f 53/53/53 52/52/52 51/51/51
f 53/53/53 51/51/51 54/54/54
f 54/54/54 55/55/55 53/53/53
f 55/55/55 54/54/54 56/56/56
f 55/55/55 56/56/56 57/57/57
f 58/58/58 55/55/55 57/57/57
f 57/57/57 59/59/59 58/58/58
f 59/59/59 60/60/60 58/58/58
f 63/63/63 62/62/62 61/61/61
f 63/63/63 61/61/61 64/64/64
f 63/63/63 64/64/64 65/65/65
f 66/66/66 63/63/63 65/65/65
f 66/66/66 65/65/65 67/67/67
f 68/68/68 66/66/66 67/67/67
f 68/68/68 69/69/69 66/66/66
f 72/72/72 71/71/71 70/70/70
f 71/71/71 73/73/73 70/70/70
f 71/71/71 74/74/74 73/73/73
f 71/71/71 75/75/75 74/74/74
f 76/76/76 75/75/75 71/71/71
f 76/76/76 71/71/71 77/77/77
f 80/80/80 79/79/79 78/78/78
f 80/80/80 78/78/78 81/81/81
f 80/80/80 81/81/81 82/82/82
f 83/83/83 80/80/80 82/82/82
f 83/83/83 82/82/82 84/84/84
f 85/85/85 83/83/83 84/84/84
f 85/85/85 86/86/86 83/83/83
f 89/89/89 88/88/88 87/87/87
f 89/89/89 87/87/87 90/90/90
f 91/91/91 89/89/89 90/90/90
f 90/90/90 92/92/92 91/91/91
f 91/91/91 92/92/92 93/93/93
f 93/93/93 94/94/94 91/91/91
f 95/95/95 94/94/94 93/93/93
f 95/95/95 96/96/96 94/94/94
f 99/99/99 98/98/98 97/97/97
f 99/99/99 97/97/97 100/100/100
f 100/100/100 101/101/101 99/99/99
f 101/101/101 100/100/100 102/102/102
f 101/101/101 102/102/102 103/103/103
f 104/104/104 101/101/101 103/103/103
f 103/103/103 105/105/105 104/104/104
f 105/105/105 106/106/106 104/104/104
f 109/109/109 108/108/108 107/107/107
f 109/109/109 107/107/107 110/110/110
f 109/109/109 110/110/110 111/111/111
f 112/112/112 109/109/109 111/111/111
f 112/112/112 111/111/111 113/113/113
f 114/114/114 112/112/112 113/113/113
f 114/114/114 115/115/115 112/112/112
f 118/118/118 117/117/117 116/116/116
f 118/118/118 116/116/116 119/119/119
f 120/120/120 118/118/118 119/119/119
f 119/119/119 121/121/121 120/120/120
f 120/120/120 121/121/121 122/122/122
f 122/122/122 123/123/123 120/120/120
f 124/124/124 123/123/123 122/122/122
f 124/124/124 125/125/125 123/123/123
f 128/128/128 127/127/127 126/126/126
f 128/128/128 126/126/126 129/129/129
f 129/129/129 130/130/130 128/128/128
f 130/130/130 129/129/129 131/131/131
f 130/130/130 131/131/131 132/132/132
f 133/133/133 130/130/130 132/132/132
f 132/132/132 134/134/134 133/133/133
f 134/134/134 135/135/135 133/133/133
f 138/138/138 137/137/137 136/136/136
f 138/138/138 136/136/136 139/139/139
f 138/138/138 139/139/139 140/140/140
f 141/141/141 138/138/138 140/140/140
f 141/141/141 140/140/140 142/142/142
f 143/143/143 141/141/141 142/142/142
f 143/143/143 144/144/144 141/141/141
f 147/147/147 146/146/146 145/145/145
f 147/147/147 145/145/145 148/148/148
f 147/147/147 148/148/148 149/149/149
f 150/150/150 147/147/147 149/149/149
f 150/150/150 149/149/149 151/151/151
f 152/152/152 150/150/150 151/151/151
f 152/152/152 153/153/153 150/150/150
f 156/156/156 155/155/155 154/154/154
f 156/156/156 154/154/154 157/157/157
f 157/157/157 158/158/158 156/156/156
f 158/158/158 157/157/157 159/159/159
f 158/158/158 159/159/159 160/160/160
f 161/161/161 158/158/158 160/160/160
f 160/160/160 162/162/162 161/161/161
f 162/162/162 163/163/163 161/161/161
f 166/166/166 165/165/165 164/164/164
f 166/166/166 164/164/164 167/167/167
f 166/166/166 167/167/167 168/168/168
f 169/169/169 166/166/166 168/168/168
f 170/170/170 169/169/169 168/168/168
f 170/170/170 168/168/168 171/171/171
f 172/172/172 170/170/170 171/171/171
f 172/172/172 173/173/173 170/170/170
f 176/176/176 175/175/175 174/174/174
f 177/177/177 176/176/176 174/174/174
f 177/177/177 174/174/174 178/178/178
f 177/177/177 179/179/179 176/176/176
f 179/179/179 180/180/180 176/176/176
f 181/181/181 180/180/180 179/179/179
f 182/182/182 181/181/181 179/179/179
f 183/183/183 177/177/177 178/178/178
f 183/183/183 178/178/178 184/184/184
f 185/185/185 179/179/179 177/177/177
f 182/182/182 179/179/179 185/185/185
f 183/183/183 185/185/185 177/177/177
f 186/186/186 183/183/183 184/184/184
f 186/186/186 184/184/184 187/187/187
f 188/188/188 185/185/185 183/183/183
f 186/186/186 188/188/188 183/183/183
f 189/189/189 186/186/186 187/187/187
f 189/189/189 187/187/187 190/190/190
f 189/189/189 191/191/191 186/186/186
f 191/191/191 188/188/188 186/186/186
f 192/192/192 189/189/189 190/190/190
f 191/191/191 189/189/189 192/192/192
f 192/192/192 190/190/190 193/193/193
f 194/194/194 185/185/185 188/188/188
f 194/194/194 182/182/182 185/185/185
f 182/182/182 194/194/194 195/195/195
f 196/196/196 182/182/182 195/195/195
f 197/197/197 188/188/188 191/191/191
f 197/197/197 194/194/194 188/188/188
f 198/198/198 192/192/192 193/193/193
f 198/198/198 193/193/193 199/199/199
f 200/200/200 198/198/198 199/199/199
f 200/200/200 199/199/199 201/201/201
f 202/202/202 200/200/200 201/201/201
f 202/202/202 203/203/203 200/200/200
f 200/200/200 204/204/204 198/198/198
f 203/203/203 204/204/204 200/200/200
f 198/198/198 205/205/205 192/192/192
f 204/204/204 205/205/205 198/198/198
f 206/206/206 191/191/191 192/192/192
f 205/205/205 206/206/206 192/192/192
f 207/207/207 204/204/204 203/203/203
f 208/208/208 207/207/207 203/203/203
f 209/209/209 191/191/191 206/206/206
f 209/209/209 197/197/197 191/191/191
f 210/210/210 206/206/206 205/205/205
f 210/210/210 209/209/209 206/206/206
f 211/211/211 205/205/205 204/204/204
f 207/207/207 211/211/211 204/204/204
f 211/211/211 210/210/210 205/205/205
f 212/212/212 207/207/207 208/208/208
f 212/212/212 208/208/208 213/213/213
f 207/207/207 214/214/214 211/211/211
f 214/214/214 207/207/207 212/212/212
f 214/214/214 212/212/212 215/215/215
f 214/214/214 215/215/215 216/216/216
f 214/214/214 216/216/216 211/211/211
f 210/210/210 211/211/211 216/216/216
f 212/212/212 217/217/217 215/215/215
f 213/213/213 217/217/217 212/212/212
f 218/218/218 217/217/217 213/213/213
f 217/217/217 218/218/218 215/215/215
f 213/213/213 219/219/219 218/218/218
f 220/220/220 210/210/210 216/216/216
f 220/220/220 216/216/216 215/215/215
f 221/221/221 210/210/210 220/220/220
f 221/221/221 220/220/220 215/215/215
f 209/209/209 210/210/210 221/221/221
f 219/219/219 222/222/222 218/218/218
f 219/219/219 223/223/223 222/222/222
f 218/218/218 224/224/224 215/215/215
f 224/224/224 218/218/218 222/222/222
f 209/209/209 221/221/221 225/225/225
f 226/226/226 221/221/221 215/215/215
f 221/221/221 226/226/226 225/225/225
f 227/227/227 215/215/215 224/224/224
f 226/226/226 215/215/215 227/227/227
f 228/228/228 226/226/226 227/227/227
f 227/227/227 229/229/229 228/228/228
f 224/224/224 229/229/229 227/227/227
f 229/229/229 224/224/224 230/230/230
f 222/222/222 230/230/230 224/224/224
f 209/209/209 225/225/225 231/231/231
f 209/209/209 231/231/231 197/197/197
f 226/226/226 232/232/232 225/225/225
f 226/226/226 228/228/228 232/232/232
f 233/233/233 225/225/225 232/232/232
f 231/231/231 225/225/225 233/233/233
f 231/231/231 233/233/233 234/234/234
f 231/231/231 234/234/234 235/235/235
f 231/231/231 235/235/235 197/197/197
f 236/236/236 233/233/233 232/232/232
f 236/236/236 232/232/232 228/228/228
f 237/237/237 197/197/197 235/235/235
f 237/237/237 194/194/194 197/197/197
f 237/237/237 235/235/235 238/238/238
f 238/238/238 194/194/194 237/237/237
f 234/234/234 238/238/238 235/235/235
f 238/238/238 195/195/195 194/194/194
f 234/234/234 195/195/195 238/238/238
f 236/236/236 239/239/239 233/233/233
f 234/234/234 233/233/233 239/239/239
f 240/240/240 236/236/236 228/228/228
f 236/236/236 240/240/240 239/239/239
f 240/240/240 228/228/228 241/241/241
f 239/239/239 240/240/240 241/241/241
f 239/239/239 242/242/242 234/234/234
f 239/239/239 241/241/241 243/243/243
f 239/239/239 243/243/243 242/242/242
f 228/228/228 244/244/244 241/241/241
f 241/241/241 245/245/245 243/243/243
f 245/245/245 241/241/241 244/244/244
f 244/244/244 228/228/228 246/246/246
f 229/229/229 246/246/246 228/228/228
f 229/229/229 230/230/230 246/246/246
f 245/245/245 247/247/247 243/243/243
f 248/248/248 245/245/245 244/244/244
f 248/248/248 247/247/247 245/245/245
f 242/242/242 243/243/243 249/249/249
f 247/247/247 249/249/249 243/243/243
f 244/244/244 246/246/246 250/250/250
f 248/248/248 244/244/244 250/250/250
f 250/250/250 251/251/251 248/248/248
f 251/251/251 252/252/252 248/248/248
f 248/248/248 252/252/252 247/247/247
f 253/253/253 251/251/251 250/250/250
f 250/250/250 246/246/246 254/254/254
f 254/254/254 253/253/253 250/250/250
f 255/255/255 246/246/246 230/230/230
f 246/246/246 255/255/255 254/254/254
f 247/247/247 256/256/256 249/249/249
f 252/252/252 256/256/256 247/247/247
f 257/257/257 256/256/256 252/252/252
f 258/258/258 252/252/252 251/251/251
f 257/257/257 252/252/252 258/258/258
f 257/257/257 258/258/258 259/259/259
f 255/255/255 230/230/230 260/260/260
f 222/222/222 260/260/260 230/230/230
f 222/222/222 261/261/261 260/260/260
f 223/223/223 261/261/261 222/222/222
f 262/262/262 261/261/261 223/223/223
f 263/263/263 262/262/262 223/223/223
f 262/262/262 263/263/263 264/264/264
f 265/265/265 260/260/260 261/261/261
f 265/265/265 255/255/255 260/260/260
f 262/262/262 265/265/265 261/261/261
f 265/265/265 266/266/266 255/255/255
f 262/262/262 266/266/266 265/265/265
f 266/266/266 254/254/254 255/255/255
f 266/266/266 267/267/267 254/254/254
f 267/267/267 266/266/266 262/262/262
f 267/267/267 253/253/253 254/254/254
f 262/262/262 264/264/264 268/268/268
f 268/268/268 267/267/267 262/262/262
f 269/269/269 267/267/267 268/268/268
f 264/264/264 270/270/270 268/268/268
f 267/267/267 271/271/271 253/253/253
f 267/267/267 269/269/269 271/271/271
f 253/253/253 271/271/271 251/251/251
f 270/270/270 272/272/272 268/268/268
f 272/272/272 269/269/269 268/268/268
f 270/270/270 273/273/273 272/272/272
f 272/272/272 273/273/273 274/274/274
f 275/275/275 272/272/272 274/274/274
f 269/269/269 272/272/272 275/275/275
f 276/276/276 275/275/275 274/274/274
f 277/277/277 276/276/276 274/274/274
f 271/271/271 278/278/278 251/251/251
f 269/269/269 278/278/278 271/271/271
f 279/279/279 269/269/269 275/275/275
f 279/279/279 275/275/275 276/276/276
f 280/280/280 278/278/278 269/269/269
f 278/278/278 280/280/280 251/251/251
f 280/280/280 269/269/269 279/279/279
f 277/277/277 281/281/281 276/276/276
f 281/281/281 277/277/277 282/282/282
f 283/283/283 281/281/281 282/282/282
f 284/284/284 279/279/279 276/276/276
f 284/284/284 276/276/276 281/281/281
f 279/279/279 285/285/285 280/280/280
f 285/285/285 279/279/279 284/284/284
f 280/280/280 286/286/286 251/251/251
f 280/280/280 285/285/285 286/286/286
f 287/287/287 281/281/281 283/283/283
f 288/288/288 287/287/287 283/283/283
f 289/289/289 284/284/284 281/281/281
f 287/287/287 289/289/289 281/281/281
f 290/290/290 285/285/285 284/284/284
f 290/290/290 284/284/284 289/289/289
f 286/286/286 285/285/285 290/290/290
f 291/291/291 286/286/286 290/290/290
f 292/292/292 290/290/290 289/289/289
f 292/292/292 289/289/289 287/287/287
f 291/291/291 290/290/290 292/292/292
f 293/293/293 287/287/287 288/288/288
f 293/293/293 292/292/292 287/287/287
f 291/291/291 292/292/292 293/293/293
f 294/294/294 293/293/293 288/288/288
f 293/293/293 294/294/294 295/295/295
f 291/291/291 293/293/293 295/295/295
f 295/295/295 296/296/296 291/291/291
f 291/291/291 297/297/297 286/286/286
f 296/296/296 298/298/298 291/291/291
f 291/291/291 298/298/298 297/297/297
f 297/297/297 299/299/299 286/286/286
f 299/299/299 251/251/251 286/286/286
f 299/299/299 258/258/258 251/251/251
f 297/297/297 258/258/258 299/299/299
f 258/258/258 297/297/297 259/259/259
f 297/297/297 298/298/298 259/259/259
f 300/300/300 298/298/298 296/296/296
f 301/301/301 300/300/300 296/296/296
f 300/300/300 301/301/301 302/302/302
f 298/298/298 303/303/303 259/259/259
f 300/300/300 303/303/303 298/298/298
f 304/304/304 300/300/300 302/302/302
f 302/302/302 305/305/305 304/304/304
f 305/305/305 306/306/306 304/304/304
f 305/305/305 307/307/307 306/306/306
f 304/304/304 308/308/308 300/300/300
f 308/308/308 303/303/303 300/300/300
f 306/306/306 308/308/308 304/304/304
f 308/308/308 309/309/309 303/303/303
f 309/309/309 259/259/259 303/303/303
f 306/306/306 309/309/309 308/308/308
f 309/309/309 310/310/310 259/259/259
f 311/311/311 259/259/259 310/310/310
f 311/311/311 257/257/257 259/259/259
f 312/312/312 310/310/310 309/309/309
f 306/306/306 312/312/312 309/309/309
f 312/312/312 311/311/311 310/310/310
f 307/307/307 313/313/313 306/306/306
f 314/314/314 312/312/312 306/306/306
f 313/313/313 314/314/314 306/306/306
f 315/315/315 313/313/313 307/307/307
f 316/316/316 315/315/315 307/307/307
f 317/317/317 315/315/315 316/316/316
f 318/318/318 317/317/317 316/316/316
f 318/318/318 319/319/319 317/317/317
f 319/319/319 320/320/320 317/317/317
f 319/319/319 321/321/321 320/320/320
f 317/317/317 322/322/322 315/315/315
f 320/320/320 322/322/322 317/317/317
f 315/315/315 323/323/323 313/313/313
f 322/322/322 323/323/323 315/315/315
f 323/323/323 324/324/324 313/313/313
f 324/324/324 314/314/314 313/313/313
f 322/322/322 325/325/325 323/323/323
f 325/325/325 324/324/324 323/323/323
f 326/326/326 325/325/325 322/322/322
f 320/320/320 326/326/326 322/322/322
f 325/325/325 327/327/327 324/324/324
f 326/326/326 327/327/327 325/325/325
f 324/324/324 328/328/328 314/314/314
f 327/327/327 328/328/328 324/324/324
f 328/328/328 329/329/329 314/314/314
f 314/314/314 329/329/329 312/312/312
f 329/329/329 330/330/330 312/312/312
f 312/312/312 330/330/330 311/311/311
f 330/330/330 331/331/331 311/311/311
f 311/311/311 331/331/331 257/257/257
f 331/331/331 332/332/332 257/257/257
f 332/332/332 331/331/331 257/257/257
f 331/331/331 256/256/256 257/257/257
f 256/256/256 331/331/331 333/333/333
f 330/330/330 333/333/333 331/331/331
f 256/256/256 333/333/333 249/249/249
f 334/334/334 249/249/249 333/333/333
f 330/330/330 334/334/334 333/333/333
f 334/334/334 242/242/242 249/249/249
f 329/329/329 335/335/335 330/330/330
f 334/334/334 330/330/330 335/335/335
f 328/328/328 336/336/336 329/329/329
f 336/336/336 335/335/335 329/329/329
f 336/336/336 328/328/328 337/337/337
f 336/336/336 337/337/337 335/335/335
f 338/338/338 337/337/337 328/328/328
f 327/327/327 338/338/338 328/328/328
f 339/339/339 242/242/242 334/334/334
f 340/340/340 334/334/334 335/335/335
f 340/340/340 339/339/339 334/334/334
f 341/341/341 340/340/340 335/335/335
f 337/337/337 341/341/341 335/335/335
f 340/340/340 341/341/341 339/339/339
f 337/337/337 338/338/338 342/342/342
f 341/341/341 337/337/337 342/342/342
f 343/343/343 338/338/338 327/327/327
f 342/342/342 338/338/338 343/343/343
f 242/242/242 339/339/339 344/344/344
f 242/242/242 344/344/344 234/234/234
f 341/341/341 345/345/345 339/339/339
f 344/344/344 339/339/339 345/345/345
f 344/344/344 346/346/346 234/234/234
f 345/345/345 346/346/346 344/344/344
f 346/346/346 195/195/195 234/234/234
f 347/347/347 345/345/345 341/341/341
f 342/342/342 347/347/347 341/341/341
f 345/345/345 347/347/347 346/346/346
f 348/348/348 343/343/343 327/327/327
f 349/349/349 343/343/343 348/348/348
f 326/326/326 348/348/348 327/327/327
f 343/343/343 350/350/350 342/342/342
f 347/347/347 342/342/342 350/350/350
f 350/350/350 343/343/343 349/349/349
f 347/347/347 351/351/351 346/346/346
f 346/346/346 351/351/351 195/195/195
f 352/352/352 348/348/348 326/326/326
f 352/352/352 349/349/349 348/348/348
f 347/347/347 353/353/353 351/351/351
f 353/353/353 347/347/347 350/350/350
f 195/195/195 351/351/351 354/354/354
f 353/353/353 354/354/354 351/351/351
f 355/355/355 353/353/353 350/350/350
f 355/355/355 354/354/354 353/353/353
f 356/356/356 352/352/352 326/326/326
f 357/357/357 352/352/352 356/356/356
f 356/356/356 326/326/326 320/320/320
f 358/358/358 356/356/356 320/320/320
f 321/321/321 358/358/358 320/320/320
f 358/358/358 359/359/359 356/356/356
f 359/359/359 357/357/357 356/356/356
f 360/360/360 358/358/358 321/321/321
f 360/360/360 359/359/359 358/358/358
f 361/361/361 360/360/360 321/321/321
f 362/362/362 359/359/359 360/360/360
f 359/359/359 362/362/362 357/357/357
f 363/363/363 360/360/360 361/361/361
f 363/363/363 362/362/362 360/360/360
f 364/364/364 363/363/363 361/361/361
f 364/364/364 365/365/365 363/363/363
f 365/365/365 366/366/366 363/363/363
f 366/366/366 362/362/362 363/363/363
f 362/362/362 366/366/366 367/367/367
f 362/362/362 367/367/367 357/357/357
f 367/367/367 368/368/368 357/357/357
f 366/366/366 369/369/369 367/367/367
f 367/367/367 369/369/369 370/370/370
f 367/367/367 370/370/370 368/368/368
f 369/369/369 371/371/371 370/370/370
f 370/370/370 371/371/371 368/368/368
f 368/368/368 371/371/371 372/372/372
f 368/368/368 372/372/372 373/373/373
f 374/374/374 368/368/368 373/373/373
f 374/374/374 373/373/373 375/375/375
f 368/368/368 376/376/376 357/357/357
f 376/376/376 368/368/368 374/374/374
f 374/374/374 375/375/375 377/377/377
f 374/374/374 377/377/377 378/378/378
f 378/378/378 377/377/377 379/379/379
f 375/375/375 380/380/380 377/377/377
f 379/379/379 377/377/377 380/380/380
f 381/381/381 379/379/379 380/380/380
f 381/381/381 382/382/382 379/379/379
f 382/382/382 181/181/181 379/379/379
f 383/383/383 379/379/379 181/181/181
f 383/383/383 181/181/181 182/182/182
f 383/383/383 384/384/384 379/379/379
f 384/384/384 383/383/383 182/182/182
f 384/384/384 378/378/378 379/379/379
f 384/384/384 182/182/182 196/196/196
f 385/385/385 384/384/384 196/196/196
f 385/385/385 378/378/378 384/384/384
f 386/386/386 376/376/376 374/374/374
f 386/386/386 374/374/374 378/378/378
f 387/387/387 385/385/385 196/196/196
f 387/387/387 196/196/196 195/195/195
f 354/354/354 387/387/387 195/195/195
f 354/354/354 385/385/385 387/387/387
f 354/354/354 388/388/388 385/385/385
f 385/385/385 388/388/388 378/378/378
f 355/355/355 388/388/388 354/354/354
f 355/355/355 378/378/378 388/388/388
f 355/355/355 386/386/386 378/378/378
f 355/355/355 389/389/389 386/386/386
f 389/389/389 355/355/355 350/350/350
f 350/350/350 349/349/349 389/389/389
f 389/389/389 349/349/349 386/386/386
f 349/349/349 376/376/376 386/386/386
f 349/349/349 390/390/390 376/376/376
f 357/357/357 376/376/376 390/390/390
f 349/349/349 352/352/352 390/390/390
f 357/357/357 390/390/390 352/352/352
f 393/393/393 392/392/392 391/391/391
f 392/392/392 394/394/394 391/391/391
f 392/392/392 395/395/395 394/394/394
f 395/395/395 396/396/396 394/394/394
f 395/395/395 397/397/397 396/396/396
f 397/397/397 398/398/398 396/396/396
f 397/397/397 399/399/399 398/398/398
f 402/402/402 401/401/401 400/400/400
f 401/401/401 403/403/403 400/400/400
f 401/401/401 404/404/404 403/403/403
f 404/404/404 405/405/405 403/403/403
f 404/404/404 406/406/406 405/405/405
f 406/406/406 407/407/407 405/405/405
f 406/406/406 408/408/408 407/407/407
f 411/411/411 410/410/410 409/409/409
f 410/410/410 412/412/412 409/409/409
f 410/410/410 413/413/413 412/412/412
f 413/413/413 414/414/414 412/412/412
f 413/413/413 415/415/415 414/414/414
f 415/415/415 416/416/416 414/414/414
f 415/415/415 417/417/417 416/416/416
f 420/420/420 419/419/419 418/418/418
f 419/419/419 421/421/421 418/418/418
f 419/419/419 422/422/422 421/421/421
f 422/422/422 423/423/423 421/421/421
f 422/422/422 424/424/424 423/423/423
f 424/424/424 425/425/425 423/423/423
f 424/424/424 426/426/426 425/425/425
f 429/429/429 428/428/428 427/427/427
f 428/428/428 430/430/430 427/427/427
f 428/428/428 431/431/431 430/430/430
f 431/431/431 432/432/432 430/430/430
f 431/431/431 433/433/433 432/432/432
f 433/433/433 434/434/434 432/432/432
f 433/433/433 435/435/435 434/434/434
f 438/438/438 437/437/437 436/436/436
f 437/437/437 439/439/439 436/436/436
f 437/437/437 440/440/440 439/439/439
f 440/440/440 441/441/441 439/439/439
f 440/440/440 442/442/442 441/441/441
f 442/442/442 443/443/443 441/441/441
f 442/442/442 444/444/444 443/443/443
f 447/447/447 446/446/446 445/445/445
f 447/447/447 445/445/445 448/448/448
f 448/448/448 449/449/449 447/447/447
f 449/449/449 448/448/448 450/450/450
f 449/449/449 450/450/450 451/451/451
f 452/452/452 449/449/449 451/451/451
f 451/451/451 453/453/453 452/452/452
f 453/453/453 454/454/454 452/452/452
f 457/457/457 456/456/456 455/455/455
f 455/455/455 458/458/458 457/457/457
f 455/455/455 459/459/459 458/458/458
f 458/458/458 459/459/459 460/460/460
f 458/458/458 460/460/460 461/461/461
f 458/458/458 461/461/461 462/462/462
f 463/463/463 458/458/458 462/462/462
f 462/462/462 464/464/464 463/463/463
f 467/467/467 466/466/466 465/465/465
f 465/465/465 468/468/468 467/467/467
f 465/465/465 469/469/469 468/468/468
f 468/468/468 469/469/469 470/470/470
f 468/468/468 470/470/470 471/471/471
f 468/468/468 471/471/471 472/472/472
f 473/473/473 468/468/468 472/472/472
f 472/472/472 474/474/474 473/473/473
f 477/477/477 476/476/476 475/475/475
f 477/477/477 475/475/475 478/478/478
f 477/477/477 478/478/478 479/479/479
f 480/480/480 477/477/477 479/479/479
f 480/480/480 479/479/479 481/481/481
f 482/482/482 480/480/480 481/481/481
f 482/482/482 483/483/483 480/480/480
f 486/486/486 485/485/485 484/484/484
f 486/486/486 484/484/484 487/487/487
f 487/487/487 488/488/488 486/486/486
f 488/488/488 487/487/487 489/489/489
f 488/488/488 489/489/489 490/490/490
f 491/491/491 488/488/488 490/490/490
f 490/490/490 492/492/492 491/491/491
f 492/492/492 493/493/493 491/491/491
f 496/496/496 495/495/495 494/494/494
f 494/494/494 497/497/497 496/496/496
f 494/494/494 498/498/498 497/497/497
f 497/497/497 498/498/498 499/499/499
f 497/497/497 499/499/499 500/500/500
f 497/497/497 500/500/500 501/501/501
f 502/502/502 497/497/497 501/501/501
f 501/501/501 503/503/503 502/502/502
f 506/506/506 505/505/505 504/504/504
f 504/504/504 507/507/507 506/506/506
f 504/504/504 508/508/508 507/507/507
f 507/507/507 508/508/508 509/509/509
f 507/507/507 509/509/509 510/510/510
f 507/507/507 510/510/510 511/511/511
f 512/512/512 507/507/507 511/511/511
f 511/511/511 513/513/513 512/512/512
f 516/516/516 515/515/515 514/514/514
f 514/514/514 517/517/517 516/516/516
f 514/514/514 518/518/518 517/517/517
f 517/517/517 518/518/518 519/519/519
f 517/517/517 519/519/519 520/520/520
f 517/517/517 520/520/520 521/521/521
f 522/522/522 517/517/517 521/521/521
f 521/521/521 523/523/523 522/522/522
f 526/526/526 525/525/525 524/524/524
f 524/524/524 527/527/527 526/526/526
f 524/524/524 528/528/528 527/527/527
f 527/527/527 528/528/528 529/529/529
f 527/527/527 529/529/529 530/530/530
f 527/527/527 530/530/530 531/531/531
f 532/532/532 527/527/527 531/531/531
f 531/531/531 533/533/533 532/532/532
f 536/536/536 535/535/535 534/534/534
f 535/535/535 537/537/537 534/534/534
f 535/535/535 538/538/538 537/537/537
f 538/538/538 539/539/539 537/537/537
f 538/538/538 540/540/540 539/539/539
f 540/540/540 541/541/541 539/539/539
f 540/540/540 542/542/542 541/541/541
f 545/545/545 544/544/544 543/543/543
f 544/544/544 546/546/546 543/543/543
f 544/544/544 547/547/547 546/546/546
f 547/547/547 548/548/548 546/546/546
f 547/547/547 549/549/549 548/548/548
f 549/549/549 550/550/550 548/548/548
f 549/549/549 551/551/551 550/550/550
f 554/554/554 553/553/553 552/552/552
f 553/553/553 555/555/555 552/552/552
f 553/553/553 556/556/556 555/555/555
f 556/556/556 557/557/557 555/555/555
f 556/556/556 558/558/558 557/557/557
f 558/558/558 559/559/559 557/557/557
f 558/558/558 560/560/560 559/559/559
f 563/563/563 562/562/562 561/561/561
f 562/562/562 564/564/564 561/561/561
f 562/562/562 565/565/565 564/564/564
f 565/565/565 566/566/566 564/564/564
f 565/565/565 567/567/567 566/566/566
f 567/567/567 568/568/568 566/566/566
f 567/567/567 569/569/569 568/568/568
f 572/572/572 571/571/571 570/570/570
f 571/571/571 573/573/573 570/570/570
f 571/571/571 574/574/574 573/573/573
f 574/574/574 575/575/575 573/573/573
f 574/574/574 576/576/576 575/575/575
f 576/576/576 577/577/577 575/575/575
f 576/576/576 578/578/578 577/577/577
f 581/581/581 580/580/580 579/579/579
f 580/580/580 582/582/582 579/579/579
f 580/580/580 583/583/583 582/582/582
f 583/583/583 584/584/584 582/582/582
f 583/583/583 585/585/585 584/584/584
f 585/585/585 586/586/586 584/584/584
f 585/585/585 587/587/587 586/586/586
f 590/590/590 589/589/589 588/588/588
f 589/589/589 591/591/591 588/588/588
f 588/588/588 591/591/591 592/592/592
f 591/591/591 589/589/589 593/593/593
f 589/589/589 594/594/594 593/593/593
f 591/591/591 595/595/595 592/592/592
f 592/592/592 595/595/595 596/596/596
f 593/593/593 594/594/594 597/597/597
f 594/594/594 598/598/598 597/597/597
f 593/593/593 597/597/597 599/599/599
f 591/591/591 593/593/593 600/600/600
f 600/600/600 593/593/593 599/599/599
f 595/595/595 591/591/591 600/600/600
f 600/600/600 599/599/599 601/601/601
f 595/595/595 602/602/602 596/596/596
f 596/596/596 602/602/602 603/603/603
f 595/595/595 600/600/600 604/604/604
f 604/604/604 600/600/600 601/601/601
f 602/602/602 595/595/595 604/604/604
f 602/602/602 605/605/605 603/603/603
f 602/602/602 604/604/604 605/605/605
f 603/603/603 605/605/605 606/606/606
f 604/604/604 601/601/601 607/607/607
f 604/604/604 607/607/607 605/605/605
f 601/601/601 608/608/608 607/607/607
f 607/607/607 608/608/608 609/609/609
f 610/610/610 607/607/607 609/609/609
f 605/605/605 607/607/607 610/610/610
f 610/610/610 609/609/609 611/611/611
f 605/605/605 612/612/612 606/606/606
f 612/612/612 605/605/605 610/610/610
f 606/606/606 612/612/612 613/613/613
f 614/614/614 610/610/610 611/611/611
f 612/612/612 610/610/610 614/614/614
f 614/614/614 611/611/611 615/615/615
f 612/612/612 616/616/616 613/613/613
f 616/616/616 612/612/612 614/614/614
f 613/613/613 616/616/616 617/617/617
f 618/618/618 614/614/614 615/615/615
f 616/616/616 614/614/614 618/618/618
f 618/618/618 615/615/615 619/619/619
f 616/616/616 620/620/620 617/617/617
f 620/620/620 616/616/616 618/618/618
f 617/617/617 620/620/620 621/621/621
f 622/622/622 618/618/618 619/619/619
f 620/620/620 618/618/618 622/622/622
f 622/622/622 619/619/619 623/623/623
f 620/620/620 624/624/624 621/621/621
f 624/624/624 620/620/620 622/622/622
f 621/621/621 624/624/624 625/625/625
f 626/626/626 622/622/622 623/623/623
f 624/624/624 622/622/622 626/626/626
f 626/626/626 623/623/623 627/627/627
f 624/624/624 628/628/628 625/625/625
f 628/628/628 624/624/624 626/626/626
f 625/625/625 628/628/628 629/629/629
f 630/630/630 626/626/626 627/627/627
f 628/628/628 626/626/626 630/630/630
f 630/630/630 627/627/627 631/631/631
f 628/628/628 632/632/632 629/629/629
f 632/632/632 628/628/628 630/630/630
f 629/629/629 632/632/632 633/633/633
f 634/634/634 630/630/630 631/631/631
f 632/632/632 630/630/630 634/634/634
f 634/634/634 631/631/631 635/635/635
f 636/636/636 634/634/634 635/635/635
f 632/632/632 637/637/637 633/633/633
f 637/637/637 632/632/632 634/634/634
f 637/637/637 634/634/634 636/636/636
f 633/633/633 637/637/637 638/638/638
f 639/639/639 637/637/637 636/636/636
f 637/637/637 639/639/639 638/638/638
f 642/642/642 641/641/641 640/640/640
f 641/641/641 643/643/643 640/640/640
f 644/644/644 642/642/642 640/640/640
f 643/643/643 645/645/645 640/640/640
f 646/646/646 644/644/644 640/640/640
f 645/645/645 647/647/647 640/640/640
f 648/648/648 646/646/646 640/640/640
f 647/647/647 648/648/648 640/640/640
