g O_env_massif_kushu_7
v 0.265349092 8.12645734E-06 0.00357428427
v 0.201216713 8.12645734E-06 0.102315933
v 0.262952166 0.373694696 0.039002016
v 0.203555177 0.412220893 0.10623286
v 0.0537180872 8.12645734E-06 0.107285169
v 0.23757983 0.429291681 0.0902143807
v 0.267570633 0.412337816 0.0483558725
v 0.18870593 0.481556354 0.104946705
v 0.222145967 0.485648667 0.100620546
v 0.226530587 0.527097944 0.0682328177
v 0.0883273564 0.433793224 0.108746709
v 0.198995172 0.546331811 0.0973466963
v 0.253364463 0.545221041 0.0257896936
v 0.0209211276 0.439580923 0.009069675
v -0.0293558514 8.12645734E-06 -0.0171211234
v 0.186075157 0.744107416 0.102082086
v 0.24231522 1.00461232 -0.0349519124
v 0.0957519801 0.678455035 0.117808258
v 0.179468996 0.835190594 0.0906236119
v 0.0254811327 0.736916639 0.00462659313
v 0.0734196475 0.42999322 -0.102241218
v 0.0421426897 8.12645734E-06 -0.159650513
v 0.186776697 1.13556631 0.0539681865
v 0.239625986 1.36789273 -0.0426688441
v 0.103351989 0.873775252 0.0878174549
v 0.19566286 1.37841581 0.0294727746
v 0.253656771 1.46078821 -0.0391611479
v 0.206069026 1.49036978 0.032512778
v 0.0846442754 1.15404018 0.0511035679
v 0.191745933 0.410876276 -0.0989673683
v 0.193207473 0.898972203 -0.120130469
v 0.0765765741 0.907449136 -0.140007414
v 0.202795176 8.12645734E-06 -0.141410492
v 0.0965704425 1.37274504 0.0419250962
v 0.136967411 0.986664609 -0.171401295
v 0.144392034 1.05635084 -0.150530503
v 0.014665736 0.870209095 0.00439274672
v 0.0411488424 0.835132132 0.0442050987
v 0.0271765192 1.00472924 -0.0173549698
v 0.0233765149 1.00893848 -0.108438148
v 0.0264165183 1.07570163 -0.106918146
v 0.0255395943 1.14872017 -0.0413242272
v 0.0754073421 1.12480938 -0.140708953
v 0.182918231 1.09628012 -0.136616641
v 0.0803181167 1.36952965 -0.153687429
v 0.0271180576 1.37344658 -0.0778627294
v 0.200573635 1.36947119 -0.145970497
v 0.24231522 1.00461232 -0.0349519124
v 0.239625986 1.36789273 -0.0426688441
v 0.253364463 0.545221041 0.0257896936
v 0.253656771 1.46078821 -0.0391611479
v 0.246816764 0.497867142 -0.0504442374
v 0.278619876 0.494125599 -0.0123272719
v 0.280022954 0.433559378 0.00433428512
v 0.202619791 1.50124364 -0.133518176
v 0.249389074 1.53731445 -0.101188909
v 0.250382921 1.61191146 -0.0869242779
v 0.254650618 0.427362448 -0.0288719057
v 0.262952166 0.373694696 0.039002016
v 0.267570633 0.412337816 0.0483558725
v 0.265349092 8.12645734E-06 0.00357428427
v 0.109841227 1.57654219 -0.135447409
v 0.217410577 1.66522844 -0.120598162
v 0.261841396 1.66633921 -0.0417334584
v 0.293644508 2.04785964 -0.0352442205
v 0.245121377 2.07200428 -0.0933550543
v 0.302179902 2.22306906 -0.0388103783
v 0.0630134821 1.57771142 -0.0467611563
v 0.178475149 2.06639196 -0.0803765784
v 0.251727538 2.22523214 -0.0804935016
v 0.198644402 2.98669453 -0.0540688568
v 0.186718235 2.98757145 -0.0825981193
v 0.151933581 2.98757145 -0.0858135075
v 0.204607486 2.21675521 -0.0727765699
v 0.132524329 1.99916112 -0.0153088137
v 0.118084313 1.58478527 0.0374235527
v 0.173622836 2.21786598 -0.027644212
v 0.138487412 2.98774683 -0.0532503943
v 0.160235129 2.98745453 -0.0296903681
v 0.15883205 2.10608739 -0.0154841985
v 0.14024126 2.06837966 -0.0223826677
v 0.129601248 2.03441347 0.0107650615
v 0.192564395 2.20167211 0.032512778
v 0.175785915 2.1156751 0.0282450809
v 0.174733606 1.98641649 0.0447897147
v 0.15117358 2.03078885 0.0463097164
v 0.198644402 2.06113042 0.0570666515
v 0.273182947 2.21459213 0.0443804835
v 0.185139772 2.98640222 -0.0333149875
v 0.259853701 2.06925658 0.0447312531
v 0.302179902 2.22306906 -0.0388103783
v 0.198644402 2.98669453 -0.0540688568
v 0.293644508 2.04785964 -0.0352442205
v 0.221269043 1.66914537 0.0374235527
v 0.261841396 1.66633921 -0.0417334584
v 0.234715212 1.59682836 0.0143312193
v 0.203262869 1.58145296 0.0391774008
v 0.0663457935 0.951821493 -0.162807439
v 0.0765765741 0.907449136 -0.140007414
v 0.136967411 0.986664609 -0.171401295
v -0.140959052 1.32106498 -0.491420113
v -0.089863611 1.35321886 -0.500657046
v 0.144392034 1.05635084 -0.150530503
v -0.123420571 1.37315427 -0.530940156
v -0.166331388 1.34778193 -0.52415861
v -0.0789897528 1.40349584 -0.467684702
v 0.0754073421 1.12480938 -0.140708953
v -0.108980555 1.41577278 -0.424423115
v -0.120614414 1.41600662 -0.513284752
v -0.152417527 1.39829276 -0.414660027
v 0.0264165183 1.07570163 -0.106918146
v -0.170482162 1.33106191 -0.447456987
v 0.0233765149 1.00893848 -0.108438148
v -0.183109869 1.40495738 -0.476103172
v -0.244611475 1.45406513 -0.691592643
v -0.276823819 1.43471434 -0.67908186
v -0.379248548 1.74578853 -0.840845117
v -0.366620842 1.75455777 -0.84353435
v -0.239525316 1.47850208 -0.671248005
v -0.362820838 1.76993317 -0.83330357
v -0.163408308 1.42880972 -0.501124739
v -0.260922263 1.48762209 -0.653884909
v -0.372467002 1.7730901 -0.821494326
v -0.387140865 1.76432086 -0.819682016
v -0.280214592 1.47563746 -0.643829513
v -0.389070098 1.74958853 -0.831958953
v -0.189657568 1.3574281 -0.491653959
v -0.295414609 1.45102513 -0.656749527
v -0.379248548 1.74578853 -0.840845117
v -0.276823819 1.43471434 -0.67908186
v -0.166331388 1.34778193 -0.52415861
v -0.140959052 1.32106498 -0.491420113
v 0.0663457935 0.951821493 -0.162807439
v 0.0765765741 0.907449136 -0.140007414
v 0.253656771 1.46078821 -0.0391611479
v 0.303115288 1.52638213 -0.0237272846
v 0.249389074 1.53731445 -0.101188909
v 0.288324502 1.56642833 -0.0832996585
v 0.250382921 1.61191146 -0.0869242779
v 0.538657088 1.69042539 0.0112327543
v 0.54894633 1.67048998 0.059346654
v 0.649617212 2.12169664 0.0760666726
v 0.274469102 1.61354838 -0.0786811918
v 0.261841396 1.66633921 -0.0417334584
v 0.507555515 1.7257362 0.00959582943
v 0.266810632 1.64277918 -0.0311519082
v 0.234715212 1.59682836 0.0143312193
v 0.639737201 2.12286587 0.0365466286
v 0.731697303 2.52326939 0.102491317
v 0.734795768 2.51502631 0.129851348
v 0.605712547 2.13397358 0.0335650869
v 0.70498035 2.53654018 0.0959436178
v 0.490718573 1.73842237 0.0366050902
v 0.588349451 2.13455819 0.0585866532
v 0.690306488 2.54098326 0.113715945
v 0.596007921 2.13970281 0.0888113022
v 0.694223415 2.53776787 0.137042125
v 0.71702344 2.52484786 0.145694442
v 0.491361651 1.71930542 0.0824389874
v 0.625589493 2.12368434 0.0989251596
v 0.734795768 2.51502631 0.129851348
v 0.649617212 2.12169664 0.0760666726
v 0.527490922 1.68457923 0.0899805342
v 0.54894633 1.67048998 0.059346654
v 0.303115288 1.52638213 -0.0237272846
v 0.268096787 1.53877599 0.0205281493
v 0.206069026 1.49036978 0.032512778
v 0.253656771 1.46078821 -0.0391611479
v 0.198644402 2.98669453 -0.0540688568
v 0.185139772 2.98640222 -0.0333149875
v 0.160235129 2.98745453 -0.0296903681
v 0.138487412 2.98774683 -0.0532503943
v 0.151933581 2.98757145 -0.0858135075
v 0.186718235 2.98757145 -0.0825981193
v 0.595072536 1.12100937 0.210703745
v 0.60980486 1.11586475 0.204156046
v 0.589284837 1.12165245 0.224851454
v 0.623426413 1.10738782 0.211756054
v 0.594078688 1.11557244 0.24040224
v 0.625297185 1.10259397 0.230756075
v 0.608869474 1.10428935 0.245313015
v -0.0660112768 1.59782221 0.557147208
v -0.0433281746 1.60244068 0.55539336
v -0.0753651334 1.58729912 0.574568766
v -0.0281866193 1.59478221 0.571236454
v -0.0361373974 1.58297296 0.592808786
v -0.0619774262 1.57964065 0.594094941
v -0.235900697 2.70713114 -0.594078688
v -0.222396066 2.71268499 -0.573441742
v -0.258408414 2.70227882 -0.591506378
v -0.230054536 2.70941114 -0.551050948
v -0.255543795 2.70455883 -0.548361714
v -0.269223811 2.70070036 -0.572506357
v -0.379248548 1.74578853 -0.840845117
v -0.366620842 1.75455777 -0.84353435
v -0.389070098 1.74958853 -0.831958953
v -0.387140865 1.76432086 -0.819682016
v -0.362820838 1.76993317 -0.83330357
v -0.372467002 1.7730901 -0.821494326
v 0.15117358 2.03078885 0.0463097164
v 0.129601248 2.03441347 0.0107650615
v -0.018657378 2.24826601 0.154755991
v -0.0358450894 2.24861678 0.128974424
v -0.0556051114 2.56810944 0.171826779
v -0.0670051241 2.56933714 0.156392916
v -0.0292389282 2.26352449 0.102666702
v 0.14024126 2.06837966 -0.0223826677
v -0.0638481975 2.57413099 0.142420593
v 0.15883205 2.10608739 -0.0154841985
v -0.00836813576 2.27925066 0.0998605452
v -0.0469527941 2.58447869 0.139497512
v 0.175785915 2.1156751 0.0282450809
v 0.0144318896 2.28065374 0.117399026
v -0.0340912413 2.58465408 0.15218368
v -0.0391189392 2.57611868 0.17077447
v 0.00858572926 2.26726603 0.156217531
v 0.198644402 2.06113042 0.0570666515
v -0.0556051114 2.56810944 0.171826779
v 0.15117358 2.03078885 0.0463097164
v -0.018657378 2.24826601 0.154755991
v -0.0556051114 2.56810944 0.171826779
v -0.0670051241 2.56933714 0.156392916
v -0.0638481975 2.57413099 0.142420593
v -0.0391189392 2.57611868 0.17077447
v -0.0340912413 2.58465408 0.15218368
v -0.0469527941 2.58447869 0.139497512
v 0.734795768 2.51502631 0.129851348
v 0.71702344 2.52484786 0.145694442
v 0.731697303 2.52326939 0.102491317
v 0.694223415 2.53776787 0.137042125
v 0.70498035 2.53654018 0.0959436178
v 0.690306488 2.54098326 0.113715945
v 0.0254811327 0.736916639 0.00462659313
v 0.0925365919 0.728732014 0.15072214
v 0.0957519801 0.678455035 0.117808258
v 0.0267672879 0.774916681 0.0639066591
v 0.0411488424 0.835132132 0.0442050987
v -0.0530328008 1.02583388 0.400528572
v -0.0166696835 0.988476918 0.443439389
v -0.0619774262 1.57964065 0.594094941
v -0.0753651334 1.58729912 0.574568766
v -0.0243281535 1.05284314 0.364223916
v -0.0660112768 1.59782221 0.557147208
v 0.103351989 0.873775252 0.0878174549
v 0.0164780457 1.06921239 0.370128538
v -0.0433281746 1.60244068 0.55539336
v -0.0281866193 1.59478221 0.571236454
v 0.0503857758 1.05442161 0.39351318
v 0.179468996 0.835190594 0.0906236119
v -0.0361373974 1.58297296 0.592808786
v 0.164561287 0.78473823 0.143355978
v 0.186075157 0.744107416 0.102082086
v 0.0957519801 0.678455035 0.117808258
v 0.0925365919 0.728732014 0.15072214
v -0.0166696835 0.988476918 0.443439389
v 0.0542442416 1.02524927 0.429350143
v -0.0619774262 1.57964065 0.594094941
v 0.267570633 0.412337816 0.0483558725
v 0.479318561 0.549839507 0.159783689
v 0.486567799 0.556211822 0.126226728
v 0.280022954 0.433559378 0.00433428512
v 0.625297185 1.10259397 0.230756075
v 0.623426413 1.10738782 0.211756054
v 0.278619876 0.494125599 -0.0123272719
v 0.472186245 0.587313395 0.102549779
v 0.60980486 1.11586475 0.204156046
v 0.425533885 0.606781109 0.119328259
v 0.595072536 1.12100937 0.210703745
v 0.253364463 0.545221041 0.0257896936
v 0.589284837 1.12165245 0.224851454
v 0.415186182 0.600291871 0.160426766
v 0.226530587 0.527097944 0.0682328177
v 0.594078688 1.11557244 0.24040224
v 0.222145967 0.485648667 0.100620546
v 0.433192355 0.585208777 0.184337562
v 0.608869474 1.10428935 0.245313015
v 0.456810843 0.561414905 0.182700637
v 0.23757983 0.429291681 0.0902143807
v 0.625297185 1.10259397 0.230756075
v 0.267570633 0.412337816 0.0483558725
v 0.479318561 0.549839507 0.159783689
v -0.192697572 1.98840418 -0.487737032
v -0.163408308 1.42880972 -0.501124739
v -0.153937528 1.99547804 -0.498143197
v -0.253848409 2.29912761 -0.598171001
v -0.120614414 1.41600662 -0.513284752
v -0.227540687 2.30444761 -0.603315622
v -0.258408414 2.70227882 -0.591506378
v -0.235900697 2.70713114 -0.594078688
v -0.209066821 2.32046609 -0.57993098
v -0.222396066 2.71268499 -0.573441742
v -0.0846020667 1.45032359 -0.466457008
v -0.0789897528 1.40349584 -0.467684702
v -0.108980555 1.41577278 -0.424423115
v -0.219882217 2.32420764 -0.555727876
v -0.230054536 2.70941114 -0.551050948
v -0.255543795 2.70455883 -0.548361714
v -0.125408266 2.01295806 -0.456226227
v -0.113949792 1.45576052 -0.428515427
v -0.247651479 2.32046609 -0.547660175
v -0.269223811 2.70070036 -0.572506357
v -0.145285211 2.02114268 -0.427287733
v -0.153762144 1.44816051 -0.418869263
v -0.152417527 1.39829276 -0.414660027
v -0.183109869 1.40495738 -0.476103172
v -0.209651437 1.99723189 -0.457512383
v -0.163408308 1.42880972 -0.501124739
v -0.192697572 1.98840418 -0.487737032
v -0.253848409 2.29912761 -0.598171001
v -0.194276035 2.01073652 -0.426176963
v -0.268639195 2.30725377 -0.575487898
v -0.258408414 2.70227882 -0.591506378
vt 0.520620764 0.190114324
vt 0.491372406 0.197913886
vt 0.517695928 0.288583794
vt 0.495272187 0.304182918
vt 0.458224268 0.203763557
vt 0.505996585 0.307107754
vt 0.519645819 0.296383356
vt 0.491372406 0.324656768
vt 0.500146914 0.324656768
vt 0.504046695 0.340255892
vt 0.463098994 0.31198248
vt 0.492347352 0.343180728
vt 0.514771092 0.3490304
vt 0.428000965 0.312957425
vt 0.426051075 0.201813667
vt 0.477723173 0.396802717
vt 0.499171968 0.470898556
vt 0.459199213 0.375353921
vt 0.473823392 0.420201403
vt 0.424101184 0.3899781
vt 0.392902936 0.31003259
vt 0.392902936 0.198888831
vt 0.465048885 0.500146914
vt 0.481622954 0.563518355
vt 0.452374596 0.429950856
vt 0.459199213 0.565468245
vt 0.481622954 0.585942096
vt 0.458224268 0.596666493
vt 0.436775472 0.503071749
vt 0.359754797 0.303207973
vt 0.35098029 0.42897591
vt 0.383153483 0.433850637
vt 0.358779852 0.194014105
vt 0.433850637 0.561568464
vt 0.365604469 0.452374596
vt 0.361704688 0.471873501
vt 0.423126239 0.425076129
vt 0.435800527 0.416301622
vt 0.416301622 0.462124049
vt 0.394852826 0.463098994
vt 0.392902936 0.480648009
vt 0.407527115 0.500146914
vt 0.378278757 0.492347352
vt 0.35098029 0.480648009
vt 0.373404031 0.555718793
vt 0.397777662 0.557668683
vt 0.343180728 0.553768902
vt 0.322706878 0.452374596
vt 0.314907316 0.549869121
vt 0.317832152 0.334406221
vt 0.313932371 0.576192643
vt 0.338306002 0.322706878
vt 0.324656768 0.319782042
vt 0.320756987 0.304182918
vt 0.343180728 0.588866931
vt 0.329531495 0.599591329
vt 0.329531495 0.620065179
vt 0.333431276 0.304182918
vt 0.318807097 0.287608849
vt 0.312957425 0.292483575
vt 0.319782042 0.191089269
vt 0.37145414 0.607390891
vt 0.344155673 0.632739468
vt 0.320756987 0.635664303
vt 0.324656768 0.734133774
vt 0.345130619 0.7390085
vt 0.326606659 0.77800631
vt 0.399727553 0.609340782
vt 0.362679633 0.736083664
vt 0.344155673 0.778981255
vt 0.323681823 0.978845032
vt 0.33245633 0.978845032
vt 0.341230838 0.979819977
vt 0.356829962 0.777031365
vt 0.385103374 0.719509595
vt 0.42702602 0.617140344
vt 0.37145414 0.778981255
vt 0.350005345 0.980794922
vt 0.358779852 0.980794922
vt 0.381203593 0.755582569
vt 0.379253702 0.7390085
vt 0.38802821 0.730233993
vt 0.389003155 0.777031365
vt 0.390953045 0.755582569
vt 0.404602279 0.722434431
vt 0.396802717 0.731208938
vt 0.403627334 0.743883226
vt 0.409477005 0.784830927
vt 0.364629524 0.981769867
vt 0.417276567 0.750707843
vt 0.430925801 0.793605434
vt 0.370479195 0.983719758
vt 0.440675253 0.751682788
vt 0.444575034 0.647363646
vt 0.466998775 0.655163208
vt 0.457249323 0.631764522
vt 0.448474815 0.622990015
vt 0.897924576 0.152091459
vt 0.902799302 0.140392116
vt 0.878425671 0.148191678
vt 0.868676218 0.282734123
vt 0.85405204 0.279809287
vt 0.860876656 0.153066404
vt 0.850152259 0.292483575
vt 0.862826547 0.295408411
vt 0.840402806 0.277859396
vt 0.841377751 0.166715638
vt 0.829678408 0.272009725
vt 0.838452916 0.29150863
vt 0.818954011 0.273959615
vt 0.823828737 0.156966185
vt 0.802379941 0.27298467
vt 0.811154449 0.146241788
vt 0.81700412 0.288583794
vt 0.838452916 0.343180728
vt 0.848202368 0.344155673
vt 0.828703463 0.428000965
vt 0.824803682 0.428000965
vt 0.830653354 0.343180728
vt 0.820903901 0.429950856
vt 0.826753573 0.294433466
vt 0.822853792 0.343180728
vt 0.81700412 0.42897591
vt 0.813104339 0.428000965
vt 0.81700412 0.341230838
vt 0.808229613 0.42702602
vt 0.804329832 0.286633904
vt 0.809204558 0.340255892
vt 0.805304777 0.426051075
vt 0.801404996 0.339280947
vt 0.794580379 0.289558739
vt 0.789705653 0.275909506
vt 0.789705653 0.140392116
vt 0.788730708 0.127717828
vt 0.805304777 0.441650199
vt 0.81700412 0.460174158
vt 0.830653354 0.440675253
vt 0.83552808 0.454324487
vt 0.847227423 0.44749987
vt 0.841377751 0.527445381
vt 0.826753573 0.528420326
vt 0.83552808 0.64248892
vt 0.848202368 0.454324487
vt 0.859901711 0.451399651
vt 0.852102149 0.530370216
vt 0.862826547 0.456274377
vt 0.878425671 0.452374596
vt 0.846252478 0.64053903
vt 0.851127204 0.751682788
vt 0.843327642 0.751682788
vt 0.85600193 0.641513975
vt 0.858926766 0.753632679
vt 0.861851602 0.531345162
vt 0.863801492 0.64053903
vt 0.864776437 0.753632679
vt 0.871601054 0.643463865
vt 0.871601054 0.753632679
vt 0.878425671 0.752657733
vt 0.87452589 0.529395271
vt 0.881350507 0.641513975
vt 0.885250288 0.750707843
vt 0.890125014 0.64248892
vt 0.887200178 0.528420326
vt 0.897924576 0.528420326
vt 0.910598864 0.459199213
vt 0.895974685 0.453349542
vt 0.897924576 0.431900746
vt 0.920348317 0.440675253
vt 0.961296017 0.910598864
vt 0.95252151 0.904749193
vt 0.941797112 0.907674028
vt 0.937897331 0.920348317
vt 0.948621729 0.931072714
vt 0.961296017 0.923273152
vt 0.979819977 0.997368991
vt 0.986644594 0.996394046
vt 0.974945251 0.99346921
vt 0.990544375 0.990544375
vt 0.973970305 0.985669648
vt 0.988594484 0.982744813
vt 0.978845032 0.979819977
vt 0.951546565 0.834553135
vt 0.961296017 0.830653354
vt 0.943747003 0.828703463
vt 0.962270962 0.820903901
vt 0.953496455 0.814079284
vt 0.943747003 0.818954011
vt 0.961296017 0.856976875
vt 0.962270962 0.846252478
vt 0.95252151 0.860876656
vt 0.953496455 0.840402806
vt 0.943747003 0.845277532
vt 0.944721948 0.856976875
vt 0.981769867 0.953496455
vt 0.986644594 0.949596674
vt 0.975920196 0.951546565
vt 0.973970305 0.943747003
vt 0.985669648 0.941797112
vt 0.979819977 0.939847222
vt 0.978845032 0.127717828
vt 0.978845032 0.116018485
vt 0.894024795 0.125767937
vt 0.894024795 0.116018485
vt 0.804329832 0.118943321
vt 0.804329832 0.114068594
vt 0.89304985 0.107243978
vt 0.975920196 0.102369251
vt 0.803354887 0.109193868
vt 0.970070524 0.0916448536
vt 0.891099959 0.100419361
vt 0.801404996 0.104319142
vt 0.964220853 0.0789705653
vt 0.891099959 0.0916448536
vt 0.801404996 0.0994444156
vt 0.802379941 0.0935947441
vt 0.889150069 0.0799455106
vt 0.973970305 0.0633714413
vt 0.803354887 0.0877450726
vt 0.969095579 0.046797372
vt 0.890125014 0.070196058
vt 0.974945251 0.962270962
vt 0.973970305 0.970070524
vt 0.977870086 0.974945251
vt 0.981769867 0.959346127
vt 0.988594484 0.965195798
vt 0.986644594 0.972020415
vt 0.962270962 0.867701273
vt 0.951546565 0.866726328
vt 0.966170743 0.878425671
vt 0.943747003 0.875500835
vt 0.957396236 0.888175123
vt 0.947646784 0.885250288
vt 0.886225233 0.409477005
vt 0.858926766 0.379253702
vt 0.853077094 0.393877881
vt 0.887200178 0.391927991
vt 0.902799302 0.389003155
vt 0.905724138 0.284684013
vt 0.888175123 0.284684013
vt 0.924248098 0.139417171
vt 0.930097769 0.140392116
vt 0.918398426 0.286633904
vt 0.935947441 0.140392116
vt 0.922298207 0.380228648
vt 0.930097769 0.285658958
vt 0.941797112 0.140392116
vt 0.947646784 0.141367061
vt 0.941797112 0.287608849
vt 0.939847222 0.391927991
vt 0.9544714 0.143316952
vt 0.957396236 0.38802821
vt 0.958371181 0.404602279
vt 0.986644594 0.404602279
vt 0.980794922 0.3899781
vt 0.97299536 0.29150863
vt 0.953496455 0.289558739
vt 0.960321072 0.142342007
vt 0.843327642 0.760457295
vt 0.844302587 0.830653354
vt 0.85405204 0.831628299
vt 0.856976875 0.761432241
vt 0.832603244 0.987619539
vt 0.83747797 0.988594484
vt 0.873550945 0.768256857
vt 0.863801492 0.836503025
vt 0.842352697 0.990544375
vt 0.879400616 0.83747797
vt 0.847227423 0.99151932
vt 0.889150069 0.776056419
vt 0.851127204 0.992494265
vt 0.892074904 0.840402806
vt 0.902799302 0.775081474
vt 0.85600193 0.99346921
vt 0.916448536 0.775081474
vt 0.900849412 0.843327642
vt 0.861851602 0.99346921
vt 0.909623919 0.844302587
vt 0.933022605 0.774106529
vt 0.867701273 0.995419101
vt 0.947646784 0.778981255
vt 0.919373371 0.846252478
vt 0.917423481 0.609340782
vt 0.909623919 0.75948235
vt 0.928147879 0.609340782
vt 0.929122824 0.519645819
vt 0.921323262 0.764357076
vt 0.935947441 0.519645819
vt 0.937897331 0.415326677
vt 0.943747003 0.414351732
vt 0.944721948 0.516720983
vt 0.950571619 0.413376786
vt 0.937897331 0.756557514
vt 0.936922386 0.769231803
vt 0.950571619 0.765332022
vt 0.951546565 0.516720983
vt 0.956421291 0.414351732
vt 0.963245908 0.416301622
vt 0.941797112 0.607390891
vt 0.950571619 0.754607624
vt 0.960321072 0.517695928
vt 0.97104547 0.417276567
vt 0.950571619 0.606415946
vt 0.962270962 0.755582569
vt 0.962270962 0.769231803
vt 0.979819977 0.766306967
vt 0.97299536 0.609340782
vt 0.987619539 0.760457295
vt 0.982744813 0.610315727
vt 0.976895141 0.520620764
vt 0.964220853 0.607390891
vt 0.970070524 0.519645819
vt 0.976895141 0.416301622
vn 0.999845743 0.0117796561 -0.0130280293
vn 0.403849384 -0.0274306307 0.914414149
vn 0.999845743 0.0117796561 0.0130280293
vn 0.270534409 -0.0117465159 0.962638641
vn -0.497987212 0.0353058282 0.866465368
vn 0.497954072 -0.223482065 0.83791259
vn 0.874372825 -0.20779795 0.438511316
vn 0.0823250322 0.0902002297 0.992515243
vn 0.0980091469 0.23919932 0.966011332
vn 0.709689621 0.168620803 0.684037767
vn -0.50582927 0.0196217135 0.862410423
vn 0.396007327 -0.00390445859 0.91823905
vn 0.992003686 0.0902002297 0.0882757378
vn -0.992036826 0.0666740576 0.10685273
vn -0.992036826 0.105884344 0.0682014769
vn 0.788110194 0.074516115 0.611007095
vn 0.99980749 0.0196209628 -0
vn -0.521513384 0.00393759877 0.853234015
vn 0.62342699 0.113726402 0.773566477
vn -0.984194769 -0.0195885733 -0.176002685
vn -0.50582927 0.0588320003 -0.86062509
vn -0.497987212 0.145094631 -0.854959814
vn 0.568532588 0.074516115 0.819278978
vn 0.998703826 -0.0508986053 -0
vn -0.32546195 0.121568459 0.937707646
vn 0.50579613 0.00393759877 0.862644058
vn 0.992003686 -0.113693262 -0.0547953427
vn 0.247008237 -0.0274306307 0.968625052
vn -0.458776926 0.0980422871 0.883125949
vn 0.427375556 0.0431478856 -0.90304396
vn 0.62342699 -0.0666409175 -0.779036441
vn -0.435250754 -0.121535319 -0.892068354
vn 0.552848474 0.0902002297 -0.828385468
vn -0.552881614 0.0666740576 0.830588039
vn 0.521480244 -0.152903548 -0.839451523
vn 0.372481154 0.0509899429 -0.926637909
vn -0.999377181 0.035288113 -0
vn -0.788143335 0.0902002297 0.608846452
vn -0.929300367 0.0117796561 0.369136922
vn -0.952826539 -0.301902638 0.0312471312
vn -0.976352711 0.145094631 -0.16025895
vn -0.992036826 0.0588320003 0.111363062
vn -0.443092811 0.0196217135 -0.896260983
vn 0.678321391 -0.0117465159 -0.734671429
vn -0.411724581 0.0196217135 -0.911097063
vn -0.997234516 0.0743190431 -0
vn 0.568532588 -0.035272688 -0.821904212
vn 0.99980749 0.0196209628 -0
vn 0.998703826 -0.0508986053 -0
vn 0.992003686 0.0902002297 0.0882757378
vn 0.992003686 -0.113693262 -0.0547953427
vn 0.827320481 0.0196217135 -0.561387397
vn 0.748899908 0.270567549 -0.604931508
vn 0.819478424 -0.309744696 -0.482196367
vn 0.364639097 0.0353058282 -0.930479354
vn 0.639111105 -0.152903548 -0.753762231
vn 0.74105785 0.0666740576 -0.668122618
vn 0.748899908 -0.333270868 -0.572782207
vn 0.999845743 0.0117796561 0.0130280293
vn 0.874372825 -0.20779795 0.438511316
vn 0.999845743 0.0117796561 -0.0130280293
vn -0.529355442 0.168620803 -0.831474498
vn 0.35679704 0.0588320003 -0.932327554
vn 0.997786182 -0.0665036452 -0
vn 0.992003686 -0.0587988601 -0.111675339
vn 0.372481154 0.0353058282 -0.927367936
vn 0.984161628 0.105884344 -0.142177335
vn -0.984194769 0.160778746 0.0742351145
vn -0.529355442 0.137252574 -0.837224311
vn 0.333270868 0.0353058282 -0.942169851
vn 0.992003686 0.113726402 -0.0547265279
vn 0.537164359 0.0431478856 -0.842373261
vn -0.545039557 -0.035272688 -0.837668025
vn -0.560723671 -0.0195885733 -0.827771256
vn -0.984194769 0.152936689 -0.0892806063
vn -0.599933958 0.0666740576 0.797266465
vn -0.999623901 -0.0274236355 -0
vn -0.992036826 -0.0431147454 0.118338728
vn -0.435250754 0.0431478856 0.899274731
vn -0.944984482 0.20783109 -0.252607536
vn -0.835195679 0.176462861 -0.520873341
vn -0.952826539 -0.239166179 0.186871948
vn -0.545039557 0.0509899429 0.836858356
vn -0.372514295 0.105884344 0.921966163
vn -0.333304008 0.0117796561 0.942745818
vn -0.482303098 -0.286218524 0.827926735
vn 0.145061491 0.074516115 0.986612646
vn 0.513638187 0.105884344 0.851448365
vn 0.568532588 0.137252574 0.811130339
vn 0.678321391 -0.0509568027 0.732996244
vn 0.984161628 0.105884344 -0.142177335
vn 0.992003686 0.113726402 -0.0547265279
vn 0.992003686 -0.0587988601 -0.111675339
vn 0.435217613 -0.0431147454 0.899292359
vn 0.997786182 -0.0665036452 -0
vn 0.764584022 -0.0431147454 0.643080393
vn 0.17642972 -0.035272688 0.983681041
vn -0.403882524 -0.701847564 -0.586761369
vn -0.47446104 -0.490112015 -0.731216065
vn 0.497954072 -0.388165269 -0.775480152
vn -0.192146975 -0.733215793 -0.652283789
vn 0.646953162 -0.231324122 -0.726595318
vn 0.905741055 0.262725492 -0.332578498
vn 0.631269047 -0.317586753 -0.707557803
vn -0.0902002297 -0.882214883 -0.46212641
vn 0.89005694 0.419566639 -0.17822031
vn 0.380323212 0.756775105 0.531644331
vn 0.364639097 0.756775105 0.542521676
vn 0.756741965 0.521513384 -0.394164164
vn -0.65482836 0.301935778 0.692845297
vn -0.678354532 0.278409606 0.679943542
vn -0.913616252 -0.35679704 0.194939005
vn -0.896774255 -0.442488346 -0
vn -0.819511564 0.199989033 0.537033689
vn 0.443059671 -0.372481154 -0.815448293
vn -0.372514295 -0.717531678 -0.58854175
vn -0.301935778 -0.513638187 -0.803125519
vn 0.686163449 -0.0901670895 -0.721837667
vn 0.866530768 0.466618983 -0.177175486
vn 0.913583112 0.396040467 0.0922921761
vn 0.035272688 0.944984482 0.325207882
vn 0.341112925 0.733248933 0.588207425
vn 0.333270868 0.568565729 0.75210607
vn -0.599933958 0.231357262 0.765867523
vn -0.599933958 0.364672237 0.712104912
vn -0.951011748 -0.309154744 -0
vn -0.858721851 -0.458743785 0.228365764
vn -0.929300367 -0.333270868 0.159158275
vn -0.301935778 -0.513638187 -0.803125519
vn -0.372514295 -0.717531678 -0.58854175
vn -0.0902002297 -0.882214883 -0.46212641
vn -0.192146975 -0.733215793 -0.652283789
vn -0.403882524 -0.701847564 -0.586761369
vn -0.47446104 -0.490112015 -0.731216065
vn 0.788085572 -0.6155657 -0
vn 0.584198375 -0.811610904 -0
vn 0.654795219 -0.341112925 -0.674451772
vn 0.497954072 -0.341112925 -0.797297758
vn 0.278376466 0.333304008 -0.900785758
vn 0.701847564 -0.286218524 -0.652295144
vn 0.843004596 -0.529322302 0.0957139076
vn 0.952793399 -0.223482065 0.205524951
vn 0.121535319 0.490145155 -0.863126233
vn 0.888867709 0.45816394 -0
vn -0.0823581724 0.270567549 -0.959171691
vn -0.341146065 0.937142424 0.0733719184
vn -0.341146065 0.309777836 0.887500453
vn 0.678321391 -0.0823250322 -0.730138808
vn 0.678321391 -0.0431147454 -0.73349929
vn 0.905741055 -0.239166179 0.349903816
vn -0.341146065 0.184304918 -0.921765187
vn -0.247041377 0.199989033 -0.948142893
vn -0.835195679 0.529355442 -0.149100618
vn -0.944984482 0.254883434 -0.205033568
vn -0.937142424 0.262725492 -0.229650587
vn -0.725406876 0.129410517 0.676045696
vn -0.764617163 0.113726402 0.634371264
vn 0.00390445859 -0.113693262 0.993508227
vn -0.497987212 0.231357262 0.835752687
vn 0.199955893 -0.105851204 0.97407041
vn 0.905741055 -0.239166179 0.349903816
vn 0.952793399 -0.223482065 0.205524951
vn 0.294060581 -0.301902638 0.906853446
vn 0.843004596 -0.529322302 0.0957139076
vn 0.584198375 -0.811610904 -0
vn 0.121535319 -0.396007327 0.910168865
vn 0.466585843 -0.403849384 0.786894737
vn 0.788085572 -0.6155657 -0
vn 0.0117465159 0.999878883 0.0102096998
vn 0.0508969227 0.998703912 -0
vn 0.0195871876 0.999808153 -0
vn 0.0195871876 0.999808153 -0
vn 0.0117465159 0.999878883 0.0102096998
vn -0.00393759877 0.999878883 0.0150570224
vn 0.364639097 0.92145831 0.133988478
vn 0.435217613 0.882248023 0.179510599
vn 0.435217613 0.874405966 0.214475724
vn 0.435217613 0.882248023 0.179510599
vn 0.443059671 0.866563908 0.229706598
vn 0.427375556 0.874405966 0.229704901
vn 0.458743785 0.780301277 0.425069472
vn -0.145094631 0.882248023 0.447868255
vn -0.105884344 0.858721851 0.501383375
vn -0.105884344 0.882248023 0.458723153
vn -0.105884344 0.874405966 0.473500489
vn -0.105884344 0.89009008 0.443314961
vn -0.0980422871 0.905774195 0.412263044
vn -0.223515205 0.968510654 -0.109672542
vn -0.285563689 0.958359734 -0
vn -0.23057569 0.973054393 -0
vn -0.23919932 0.968510654 -0.069070969
vn -0.191615043 0.98147016 -0
vn -0.20783109 0.976352711 -0.0595115212
vn -0.482303098 0.47446104 -0.736390143
vn -0.490145155 0.568565729 -0.660674458
vn -0.466618983 0.592091901 -0.657034174
vn -0.482303098 0.599933958 -0.63832826
vn -0.497987212 0.576407786 -0.647891041
vn -0.47446104 0.670512474 -0.570350544
vn -0.278409606 -0.584216703 0.762350926
vn -0.819511564 -0.560690531 -0.118435318
vn -0.419566639 -0.380323212 0.824207553
vn -0.913616252 -0.380323212 0.14373447
vn -0.411724581 -0.0901670895 0.90683668
vn -0.976352711 -0.113693262 0.183872851
vn -0.764617163 -0.0823250322 -0.639205119
vn -0.65482836 -0.0901670895 -0.750379714
vn -0.576407786 0.0431478856 -0.816022257
vn 0.0509568027 0.592091901 -0.804257785
vn 0.129377376 0.333304008 -0.933900387
vn 0.333270868 0.168620803 -0.927630074
vn 0.733215793 0.678354532 0.0472200205
vn 0.882214883 0.450934868 -0.135479316
vn 0.952793399 0.184304918 -0.241280824
vn 0.764584022 0.074516115 0.640202016
vn 0.560690531 0.0666740576 0.825336718
vn 0.364639097 -0.105851204 0.925112886
vn -0.411724581 -0.0901670895 0.90683668
vn -0.278409606 -0.584216703 0.762350926
vn -0.419566639 -0.380323212 0.824207553
vn -0.388198409 0.874405966 0.291060479
vn -0.254883434 0.929300367 0.26727376
vn -0.388198409 0.866563908 0.313638307
vn -0.403882524 0.866563908 0.293165311
vn -0.403882524 0.858721851 0.315397669
vn -0.419566639 0.803827449 0.421693333
vn 0.592058761 0.788143335 0.16821566
vn 0.482269957 0.866563908 0.128384894
vn 0.458743785 0.882248023 0.105794921
vn 0.435217613 0.89009008 0.13537089
vn 0.419533499 0.905774195 0.0597055367
vn 0.364639097 0.929300367 0.0586443221
vn -0.92145831 -0.294060581 0.253856176
vn -0.348988123 -0.733215793 0.583611079
vn -0.576407786 -0.482269957 0.659673974
vn -0.92145831 -0.364639097 0.133988478
vn -0.764617163 0.458776926 -0.4526415
vn -0.976352711 -0.184271778 0.113045544
vn -0.223515205 -0.521480244 0.823467855
vn -0.411724581 -0.262692351 0.872625692
vn -0.998703912 -0.0508969227 -0
vn -0.62346013 0.388198409 -0.678674783
vn -0.537197499 0.23919932 -0.808827876
vn 0.168587663 0.843037736 -0.510750012
vn 0.301902638 0.537197499 -0.787574532
vn 0.333270868 0.341146065 -0.878948173
vn 0.968477514 0.192146975 -0.158527112
vn 0.905741055 0.372514295 -0.202154005
vn 0.882214883 0.466618983 0.0629573294
vn 0.631269047 -0.137219434 0.763328381
vn 0.756741965 -0.294060581 0.583840709
vn 0.646953162 -0.341112925 0.681977697
vn -0.576407786 -0.482269957 0.659673974
vn -0.348988123 -0.733215793 0.583611079
vn -0.223515205 -0.521480244 0.823467855
vn 0.631269047 -0.239166179 0.737766175
vn -0.411724581 -0.262692351 0.872625692
vn 0.458743785 -0.866530768 0.196668674
vn 0.748899908 -0.513638187 0.418717973
vn 0.882214883 -0.396007327 -0.254705905
vn 0.639111105 -0.545006416 -0.542683151
vn 0.897898998 -0.270534409 0.347258584
vn 0.819478424 -0.105851204 -0.563250065
vn 0.4744279 0.145094631 -0.868254407
vn 0.372481154 0.105884344 -0.921979552
vn 0.0509568027 0.184304918 -0.9815473
vn -0.490145155 0.552881614 -0.673854323
vn -0.639144245 0.333304008 -0.693111155
vn -0.0980422871 0.897932138 -0.429075269
vn -0.944984482 0.32546195 0.0328458193
vn -0.835195679 0.450934868 0.314810932
vn -0.497987212 0.748933048 0.43715904
vn -0.701880704 0.152936689 0.695682289
vn -0.388198409 0.0588320003 0.919696032
vn -0.364672237 -0.00390445859 0.931127765
vn 0.192113835 -0.152903548 0.969387837
vn 0.294060581 -0.380323212 0.876859527
vn 0.035272688 -0.607742875 0.793350134
vn 0.897898998 -0.270534409 0.347258584
vn 0.458743785 -0.866530768 0.196668674
vn 0.748899908 -0.513638187 0.418717973
vn -0.599933958 -0.137219434 -0.788194185
vn -0.537197499 -0.00390445859 -0.843447451
vn 0.490112015 -0.035272688 -0.870945492
vn -0.552881614 -0.192113835 -0.810810826
vn 0.364639097 0.0431478856 -0.930148692
vn 0.35679704 -0.0823250322 -0.930547399
vn -0.50582927 0.0117796561 -0.862553181
vn 0.50579613 0.0353058282 -0.86193026
vn 0.960635456 0.0902002297 -0.262761181
vn 0.992003686 0.0353058282 -0.12117007
vn 0.968477514 0.074516115 -0.237694455
vn 0.984161628 0.121568459 -0.129023249
vn 0.552848474 0.121568459 0.824366226
vn 0.639111105 0.215673147 0.738256114
vn 0.646953162 0.00393759877 0.762519574
vn -0.419566639 -0.0117465159 0.907648531
vn 0.992003686 0.113726402 -0.0547265279
vn 0.560690531 0.0431478856 0.826900471
vn -0.450934868 0.129410517 0.883125508
vn -0.999878883 -0.0117465159 0.0102096998
vn 0.380323212 0.184304918 0.906303455
vn -0.639144245 -0.0274306307 0.768597551
vn -0.615618073 0.0509899429 0.786393295
vn -0.992036826 -0.0431147454 0.118338728
vn -0.992036826 -0.0901670895 0.0879365215
vn -0.537197499 -0.00390445859 -0.843447451
vn -0.599933958 -0.137219434 -0.788194185
vn -0.552881614 -0.192113835 -0.810810826
vn -0.396040467 0.0823581724 0.914532165
vn -0.992036826 -0.0587988601 0.111380563
vn -0.50582927 0.0117796561 -0.862553181
g O_env_massif_kushu_7_0
f 3/3/3 2/2/2 1/1/1
f 3/3/3 4/4/4 2/2/2
f 4/4/4 5/5/5 2/2/2
f 4/4/4 3/3/3 6/6/6
f 3/3/3 7/7/7 6/6/6
f 6/6/6 8/8/8 4/4/4
f 6/6/6 9/9/9 8/8/8
f 10/10/10 8/8/8 9/9/9
f 4/4/4 11/11/11 5/5/5
f 4/4/4 8/8/8 11/11/11
f 10/10/10 12/12/12 8/8/8
f 11/11/11 8/8/8 12/12/12
f 13/13/13 12/12/12 10/10/10
f 5/5/5 11/11/11 14/14/14
f 5/5/5 14/14/14 15/15/15
f 13/13/13 16/16/16 12/12/12
f 13/13/13 17/17/17 16/16/16
f 11/11/11 12/12/12 18/18/18
f 16/16/16 18/18/18 12/12/12
f 18/18/18 14/14/14 11/11/11
f 17/17/17 19/19/19 16/16/16
f 18/18/18 20/20/20 14/14/14
f 15/15/15 14/14/14 21/21/21
f 21/21/21 14/14/14 20/20/20
f 15/15/15 21/21/21 22/22/22
f 17/17/17 23/23/23 19/19/19
f 24/24/24 23/23/23 17/17/17
f 23/23/23 25/25/25 19/19/19
f 24/24/24 26/26/26 23/23/23
f 27/27/27 26/26/26 24/24/24
f 27/27/27 28/28/28 26/26/26
f 26/26/26 29/29/29 23/23/23
f 23/23/23 29/29/29 25/25/25
f 22/22/22 21/21/21 30/30/30
f 21/21/21 31/31/31 30/30/30
f 21/21/21 32/32/32 31/31/31
f 22/22/22 30/30/30 33/33/33
f 32/32/32 21/21/21 20/20/20
f 28/28/28 34/34/34 26/26/26
f 26/26/26 34/34/34 29/29/29
f 35/35/35 31/31/31 32/32/32
f 35/35/35 36/36/36 31/31/31
f 37/37/37 32/32/32 20/20/20
f 37/37/37 20/20/20 38/38/38
f 38/38/38 25/25/25 37/37/37
f 37/37/37 39/39/39 32/32/32
f 25/25/25 39/39/39 37/37/37
f 25/25/25 29/29/29 39/39/39
f 32/32/32 39/39/39 40/40/40
f 41/41/41 40/40/40 39/39/39
f 29/29/29 42/42/42 39/39/39
f 41/41/41 39/39/39 42/42/42
f 34/34/34 42/42/42 29/29/29
f 41/41/41 42/42/42 43/43/43
f 36/36/36 44/44/44 31/31/31
f 43/43/43 44/44/44 36/36/36
f 45/45/45 43/43/43 42/42/42
f 34/34/34 46/46/46 42/42/42
f 45/45/45 42/42/42 46/46/46
f 47/47/47 44/44/44 43/43/43
f 47/47/47 43/43/43 45/45/45
f 31/31/31 44/44/44 48/48/48
f 44/44/44 49/49/49 48/48/48
f 44/44/44 47/47/47 49/49/49
f 31/31/31 48/48/48 50/50/50
f 47/47/47 51/51/51 49/49/49
f 31/31/31 50/50/50 52/52/52
f 53/53/53 52/52/52 50/50/50
f 52/52/52 30/30/30 31/31/31
f 54/54/54 52/52/52 53/53/53
f 47/47/47 55/55/55 51/51/51
f 45/45/45 55/55/55 47/47/47
f 51/51/51 55/55/55 56/56/56
f 57/57/57 56/56/56 55/55/55
f 30/30/30 52/52/52 58/58/58
f 54/54/54 58/58/58 52/52/52
f 58/58/58 59/59/59 30/30/30
f 59/59/59 58/58/58 54/54/54
f 60/60/60 59/59/59 54/54/54
f 59/59/59 33/33/33 30/30/30
f 59/59/59 61/61/61 33/33/33
f 45/45/45 62/62/62 55/55/55
f 46/46/46 62/62/62 45/45/45
f 57/57/57 55/55/55 63/63/63
f 62/62/62 63/63/63 55/55/55
f 57/57/57 63/63/63 64/64/64
f 63/63/63 65/65/65 64/64/64
f 63/63/63 66/66/66 65/65/65
f 66/66/66 67/67/67 65/65/65
f 46/46/46 68/68/68 62/62/62
f 34/34/34 68/68/68 46/46/46
f 69/69/69 63/63/63 62/62/62
f 69/69/69 66/66/66 63/63/63
f 66/66/66 70/70/70 67/67/67
f 70/70/70 71/71/71 67/67/67
f 70/70/70 72/72/72 71/71/71
f 73/73/73 72/72/72 70/70/70
f 74/74/74 70/70/70 66/66/66
f 73/73/73 70/70/70 74/74/74
f 74/74/74 66/66/66 69/69/69
f 75/75/75 62/62/62 68/68/68
f 75/75/75 69/69/69 62/62/62
f 34/34/34 76/76/76 68/68/68
f 76/76/76 75/75/75 68/68/68
f 28/28/28 76/76/76 34/34/34
f 77/77/77 73/73/73 74/74/74
f 77/77/77 78/78/78 73/73/73
f 79/79/79 78/78/78 77/77/77
f 80/80/80 74/74/74 69/69/69
f 80/80/80 77/77/77 74/74/74
f 81/81/81 80/80/80 69/69/69
f 75/75/75 81/81/81 69/69/69
f 81/81/81 75/75/75 82/82/82
f 83/83/83 77/77/77 80/80/80
f 79/79/79 77/77/77 83/83/83
f 83/83/83 80/80/80 84/84/84
f 82/82/82 75/75/75 85/85/85
f 76/76/76 85/85/85 75/75/75
f 82/82/82 85/85/85 86/86/86
f 86/86/86 85/85/85 87/87/87
f 88/88/88 79/79/79 83/83/83
f 88/88/88 83/83/83 84/84/84
f 88/88/88 89/89/89 79/79/79
f 90/90/90 84/84/84 87/87/87
f 90/90/90 87/87/87 85/85/85
f 88/88/88 84/84/84 90/90/90
f 91/91/91 89/89/89 88/88/88
f 91/91/91 88/88/88 90/90/90
f 91/91/91 92/92/92 89/89/89
f 91/91/91 90/90/90 93/93/93
f 94/94/94 90/90/90 85/85/85
f 93/93/93 90/90/90 94/94/94
f 94/94/94 85/85/85 76/76/76
f 93/93/93 94/94/94 95/95/95
f 95/95/95 94/94/94 96/96/96
f 97/97/97 94/94/94 76/76/76
f 96/96/96 94/94/94 97/97/97
f 28/28/28 97/97/97 76/76/76
f 96/96/96 97/97/97 28/28/28
f 100/100/100 99/99/99 98/98/98
f 101/101/101 100/100/100 98/98/98
f 101/101/101 102/102/102 100/100/100
f 103/103/103 100/100/100 102/102/102
f 104/104/104 102/102/102 101/101/101
f 104/104/104 101/101/101 105/105/105
f 103/103/103 102/102/102 106/106/106
f 106/106/106 107/107/107 103/103/103
f 106/106/106 108/108/108 107/107/107
f 106/106/106 102/102/102 109/109/109
f 104/104/104 109/109/109 102/102/102
f 107/107/107 108/108/108 110/110/110
f 107/107/107 110/110/110 111/111/111
f 111/111/111 110/110/110 112/112/112
f 111/111/111 112/112/112 113/113/113
f 112/112/112 110/110/110 114/114/114
f 105/105/105 115/115/115 104/104/104
f 105/105/105 116/116/116 115/115/115
f 117/117/117 115/115/115 116/116/116
f 117/117/117 118/118/118 115/115/115
f 104/104/104 119/119/119 109/109/109
f 104/104/104 115/115/115 119/119/119
f 118/118/118 119/119/119 115/115/115
f 118/118/118 120/120/120 119/119/119
f 119/119/119 121/121/121 109/109/109
f 122/122/122 119/119/119 120/120/120
f 119/119/119 122/122/122 121/121/121
f 122/122/122 120/120/120 123/123/123
f 122/122/122 123/123/123 124/124/124
f 121/121/121 122/122/122 125/125/125
f 122/122/122 124/124/124 125/125/125
f 121/121/121 125/125/125 114/114/114
f 126/126/126 125/125/125 124/124/124
f 125/125/125 127/127/127 114/114/114
f 127/127/127 112/112/112 114/114/114
f 126/126/126 128/128/128 125/125/125
f 125/125/125 128/128/128 127/127/127
f 128/128/128 126/126/126 129/129/129
f 128/128/128 129/129/129 130/130/130
f 131/131/131 128/128/128 130/130/130
f 131/131/131 127/127/127 128/128/128
f 132/132/132 127/127/127 131/131/131
f 132/132/132 112/112/112 127/127/127
f 132/132/132 113/113/113 112/112/112
f 132/132/132 133/133/133 113/113/113
f 133/133/133 134/134/134 113/113/113
f 137/137/137 136/136/136 135/135/135
f 137/137/137 138/138/138 136/136/136
f 139/139/139 138/138/138 137/137/137
f 140/140/140 136/136/136 138/138/138
f 140/140/140 141/141/141 136/136/136
f 142/142/142 141/141/141 140/140/140
f 139/139/139 143/143/143 138/138/138
f 143/143/143 139/139/139 144/144/144
f 138/138/138 145/145/145 140/140/140
f 138/138/138 143/143/143 145/145/145
f 143/143/143 144/144/144 146/146/146
f 146/146/146 145/145/145 143/143/143
f 146/146/146 144/144/144 147/147/147
f 142/142/142 140/140/140 148/148/148
f 145/145/145 148/148/148 140/140/140
f 142/142/142 148/148/148 149/149/149
f 142/142/142 149/149/149 150/150/150
f 151/151/151 149/149/149 148/148/148
f 145/145/145 151/151/151 148/148/148
f 151/151/151 152/152/152 149/149/149
f 146/146/146 153/153/153 145/145/145
f 151/151/151 145/145/145 153/153/153
f 152/152/152 151/151/151 154/154/154
f 151/151/151 153/153/153 154/154/154
f 152/152/152 154/154/154 155/155/155
f 155/155/155 154/154/154 156/156/156
f 153/153/153 156/156/156 154/154/154
f 155/155/155 156/156/156 157/157/157
f 158/158/158 157/157/157 156/156/156
f 146/146/146 159/159/159 153/153/153
f 153/153/153 159/159/159 156/156/156
f 146/146/146 147/147/147 159/159/159
f 158/158/158 156/156/156 160/160/160
f 160/160/160 156/156/156 159/159/159
f 160/160/160 161/161/161 158/158/158
f 160/160/160 162/162/162 161/161/161
f 162/162/162 160/160/160 163/163/163
f 160/160/160 159/159/159 163/163/163
f 162/162/162 163/163/163 164/164/164
f 165/165/165 164/164/164 163/163/163
f 166/166/166 159/159/159 147/147/147
f 166/166/166 163/163/163 159/159/159
f 165/165/165 163/163/163 166/166/166
f 166/166/166 147/147/147 167/167/167
f 166/166/166 168/168/168 165/165/165
f 166/166/166 167/167/167 168/168/168
f 171/171/171 170/170/170 169/169/169
f 171/171/171 169/169/169 172/172/172
f 173/173/173 172/172/172 169/169/169
f 173/173/173 169/169/169 174/174/174
f 177/177/177 176/176/176 175/175/175
f 177/177/177 178/178/178 176/176/176
f 177/177/177 179/179/179 178/178/178
f 180/180/180 178/178/178 179/179/179
f 180/180/180 179/179/179 181/181/181
f 184/184/184 183/183/183 182/182/182
f 184/184/184 185/185/185 183/183/183
f 186/186/186 185/185/185 184/184/184
f 186/186/186 184/184/184 187/187/187
f 190/190/190 189/189/189 188/188/188
f 190/190/190 191/191/191 189/189/189
f 190/190/190 192/192/192 191/191/191
f 190/190/190 193/193/193 192/192/192
f 196/196/196 195/195/195 194/194/194
f 196/196/196 197/197/197 195/195/195
f 198/198/198 195/195/195 197/197/197
f 198/198/198 197/197/197 199/199/199
f 202/202/202 201/201/201 200/200/200
f 202/202/202 203/203/203 201/201/201
f 203/203/203 202/202/202 204/204/204
f 203/203/203 204/204/204 205/205/205
f 206/206/206 201/201/201 203/203/203
f 206/206/206 203/203/203 205/205/205
f 206/206/206 207/207/207 201/201/201
f 206/206/206 205/205/205 208/208/208
f 206/206/206 209/209/209 207/207/207
f 208/208/208 210/210/210 206/206/206
f 206/206/206 210/210/210 209/209/209
f 208/208/208 211/211/211 210/210/210
f 212/212/212 209/209/209 210/210/210
f 211/211/211 213/213/213 210/210/210
f 212/212/212 210/210/210 213/213/213
f 211/211/211 214/214/214 213/213/213
f 213/213/213 214/214/214 215/215/215
f 216/216/216 212/212/212 213/213/213
f 213/213/213 215/215/215 216/216/216
f 216/216/216 217/217/217 212/212/212
f 216/216/216 215/215/215 218/218/218
f 219/219/219 217/217/217 216/216/216
f 216/216/216 218/218/218 220/220/220
f 219/219/219 216/216/216 220/220/220
f 223/223/223 222/222/222 221/221/221
f 223/223/223 221/221/221 224/224/224
f 223/223/223 224/224/224 225/225/225
f 223/223/223 225/225/225 226/226/226
f 229/229/229 228/228/228 227/227/227
f 229/229/229 230/230/230 228/228/228
f 230/230/230 229/229/229 231/231/231
f 230/230/230 231/231/231 232/232/232
f 235/235/235 234/234/234 233/233/233
f 234/234/234 236/236/236 233/233/233
f 236/236/236 237/237/237 233/233/233
f 234/234/234 238/238/238 236/236/236
f 234/234/234 239/239/239 238/238/238
f 240/240/240 238/238/238 239/239/239
f 240/240/240 241/241/241 238/238/238
f 236/236/236 242/242/242 237/237/237
f 236/236/236 238/238/238 242/242/242
f 241/241/241 242/242/242 238/238/238
f 241/241/241 243/243/243 242/242/242
f 244/244/244 237/237/237 242/242/242
f 243/243/243 245/245/245 242/242/242
f 244/244/244 242/242/242 245/245/245
f 243/243/243 246/246/246 245/245/245
f 245/245/245 246/246/246 247/247/247
f 248/248/248 244/244/244 245/245/245
f 245/245/245 247/247/247 248/248/248
f 248/248/248 249/249/249 244/244/244
f 248/248/248 247/247/247 250/250/250
f 251/251/251 249/249/249 248/248/248
f 251/251/251 252/252/252 249/249/249
f 251/251/251 253/253/253 252/252/252
f 251/251/251 254/254/254 253/253/253
f 251/251/251 255/255/255 254/254/254
f 248/248/248 250/250/250 256/256/256
f 251/251/251 248/248/248 256/256/256
f 251/251/251 256/256/256 255/255/255
f 257/257/257 256/256/256 250/250/250
f 257/257/257 255/255/255 256/256/256
f 260/260/260 259/259/259 258/258/258
f 260/260/260 258/258/258 261/261/261
f 262/262/262 259/259/259 260/260/260
f 262/262/262 260/260/260 263/263/263
f 260/260/260 261/261/261 264/264/264
f 263/263/263 260/260/260 265/265/265
f 260/260/260 264/264/264 265/265/265
f 263/263/263 265/265/265 266/266/266
f 267/267/267 265/265/265 264/264/264
f 267/267/267 266/266/266 265/265/265
f 267/267/267 268/268/268 266/266/266
f 267/267/267 264/264/264 269/269/269
f 270/270/270 268/268/268 267/267/267
f 269/269/269 271/271/271 267/267/267
f 270/270/270 267/267/267 271/271/271
f 269/269/269 272/272/272 271/271/271
f 273/273/273 270/270/270 271/271/271
f 274/274/274 271/271/271 272/272/272
f 273/273/273 271/271/271 275/275/275
f 274/274/274 275/275/275 271/271/271
f 275/275/275 276/276/276 273/273/273
f 274/274/274 277/277/277 275/275/275
f 275/275/275 277/277/277 276/276/276
f 274/274/274 278/278/278 277/277/277
f 279/279/279 276/276/276 277/277/277
f 280/280/280 277/277/277 278/278/278
f 279/279/279 277/277/277 281/281/281
f 280/280/280 281/281/281 277/277/277
f 284/284/284 283/283/283 282/282/282
f 284/284/284 282/282/282 285/285/285
f 284/284/284 286/286/286 283/283/283
f 284/284/284 285/285/285 287/287/287
f 287/287/287 285/285/285 288/288/288
f 287/287/287 288/288/288 289/289/289
f 290/290/290 287/287/287 289/289/289
f 284/284/284 287/287/287 290/290/290
f 290/290/290 289/289/289 291/291/291
f 292/292/292 286/286/286 284/284/284
f 292/292/292 293/293/293 286/286/286
f 294/294/294 293/293/293 292/292/292
f 291/291/291 295/295/295 290/290/290
f 291/291/291 296/296/296 295/295/295
f 295/295/295 296/296/296 297/297/297
f 284/284/284 290/290/290 298/298/298
f 292/292/292 284/284/284 298/298/298
f 295/295/295 298/298/298 290/290/290
f 294/294/294 292/292/292 299/299/299
f 299/299/299 292/292/292 298/298/298
f 295/295/295 297/297/297 300/300/300
f 300/300/300 297/297/297 301/301/301
f 295/295/295 302/302/302 298/298/298
f 299/299/299 298/298/298 302/302/302
f 300/300/300 302/302/302 295/295/295
f 303/303/303 294/294/294 299/299/299
f 303/303/303 304/304/304 294/294/294
f 303/303/303 305/305/305 304/304/304
f 303/303/303 306/306/306 305/305/305
f 306/306/306 307/307/307 305/305/305
f 306/306/306 308/308/308 307/307/307
f 309/309/309 308/308/308 306/306/306
f 299/299/299 302/302/302 310/310/310
f 299/299/299 310/310/310 303/303/303
f 300/300/300 310/310/310 302/302/302
f 303/303/303 310/310/310 306/306/306
f 306/306/306 310/310/310 300/300/300
f 300/300/300 301/301/301 311/311/311
f 306/306/306 300/300/300 311/311/311
f 309/309/309 306/306/306 311/311/311
f 311/311/311 301/301/301 312/312/312
f 311/311/311 312/312/312 309/309/309
