g O_env_massif_kushu_05
v 0.135687393 0.445051586 -0.262986063
v -0.132619034 -0.000860965621 -0.354604384
v 0.192114976 -0.000983368188 -0.369476296
v -0.111749396 0.445051586 -0.251663825
v -0.349761187 0.00801322048 -0.191380561
v 0.0430286499 0.946351298 -0.29621836
v -0.277237666 0.451844928 -0.127241616
v -0.353372063 -0.000860965621 0.128090139
v -0.175949542 0.946351298 -0.286181349
v -0.0843312209 1.18093582 -0.290710244
v 0.00379862723 1.28577362 -0.284957323
v -0.182192073 1.16636991 -0.265372913
v -0.251288322 1.18442429 -0.211026173
v -0.324117849 0.952349024 -0.166716444
v -0.285561041 1.26802524 -0.165859626
v -0.309490743 1.29287297 -0.0746697135
v -0.265793026 1.40101563 -0.161514335
v -0.33366525 0.946351298 0.0329833441
v -0.279930523 0.445051586 0.116155888
v -0.242781344 1.84735659 -0.114144541
v -0.22448216 1.48449418 -0.18085394
v -0.12007277 1.84233809 -0.206436077
v -0.135556695 1.49324597 -0.234037856
v -0.0547097998 1.47298834 -0.251602624
v -0.0238643529 1.8476626 -0.211515783
v -0.0269244171 1.89870447 -0.229692564
v -0.159914806 0.445051586 0.283541399
v -0.195839959 -0.000860965621 0.347802746
v -0.244800986 1.84233809 0.0663380436
v -0.218545636 0.946351298 0.187394182
v 0.0519640373 0.445051586 0.318487331
v 0.0822586726 -0.000860965621 0.393581306
v -0.109852156 1.94662508 -0.206619681
v -0.0679904783 1.97343124 -0.222409612
v -0.0675620693 2.07918705 -0.148784468
v -0.321975805 2.23506672 -0.139053464
v -0.402516694 2.23525033 -0.0890520151
v -0.418673832 2.2385552 0.00568757171
v -0.0310861043 0.946351298 0.21830083
v -0.000301858764 1.87422396 0.20826382
v -0.15581432 1.87422396 0.190454246
v -0.386910366 2.31903488 0.0633391807
v 0.163533977 0.946351298 0.0787619041
v -0.430914089 2.37907334 0.00372913064
v -0.288315099 2.3340904 0.0659096346
v -0.47149054 2.55778109 -0.089908833
v -0.43189331 2.5627996 -0.0478635513
v -0.424549156 2.4578394 0.00507555887
v -0.376200142 2.48880725 0.00354552679
v -0.314264443 2.47173209 -0.0100411581
v -0.373690889 2.57100057 -0.0565541336
v -0.561640031 2.98453764 -0.133116939
v -0.535751888 3.00014397 -0.135197783
v -0.644200562 3.08809021 -0.118428631
v -0.631531896 3.10547138 -0.120325871
v -0.650932703 3.08135807 -0.132321322
v -0.574737105 2.9779279 -0.153864174
v -0.648484652 3.09029346 -0.156618232
v -0.568984185 2.98398683 -0.180915142
v -0.636550402 3.10559378 -0.157413849
v -0.457353044 2.56035155 -0.153068558
v -0.54205562 2.99800192 -0.184832024
v -0.627370209 3.11440676 -0.13838025
v -0.392234878 2.56610447 -0.170143716
v -0.526388091 3.00730452 -0.159984303
v -0.341988624 2.5724082 -0.113899736
v -0.631531896 3.10547138 -0.120325871
v -0.535751888 3.00014397 -0.135197783
v -0.373690889 2.57100057 -0.0565541336
v -0.314264443 2.47173209 -0.0100411581
v -0.24926868 2.38605029 0.00819682433
v -0.234274365 2.25997565 -0.107596004
v -0.185741748 2.2722771 -0.0365413139
v -0.203796126 2.28366054 0.0406335046
v -0.0170710104 2.08751043 0.00372913064
v -0.644200562 3.08809021 -0.118428631
v -0.627370209 3.11440676 -0.13838025
v -0.631531896 3.10547138 -0.120325871
v -0.650932703 3.08135807 -0.132321322
v -0.648484652 3.09029346 -0.156618232
v -0.636550402 3.10559378 -0.157413849
v -0.279440913 1.41203186 -0.494571719
v -0.120562381 1.29354618 -0.411582779
v -0.202449698 1.46956107 -0.539493461
v -0.23213232 1.26239473 -0.39401801
v -0.317691715 1.32463643 -0.337223219
v -0.353861673 1.45505637 -0.424557451
v -0.182192073 1.16636991 -0.265372913
v -0.0843312209 1.18093582 -0.290710244
v 0.00379862723 1.28577362 -0.284957323
v -0.251288322 1.18442429 -0.211026173
v -0.285561041 1.26802524 -0.165859626
v -0.303248212 1.41668316 -0.274063495
v -0.265793026 1.40101563 -0.161514335
v -0.346517519 1.55573248 -0.375229216
v -0.22448216 1.48449418 -0.18085394
v -0.23733443 1.50065132 -0.250990611
v -0.295230844 1.63755859 -0.379819313
v -0.135556695 1.49324597 -0.234037856
v -0.225400179 1.66950566 -0.426577093
v -0.15440669 1.51650245 -0.290771445
v -0.0735597951 1.47715003 -0.324493353
v -0.0547097998 1.47298834 -0.251602624
v -0.167320161 1.64392353 -0.491695259
v -0.00207669598 1.41753998 -0.272900671
v -0.156732339 1.56068978 -0.536066189
v -0.0592386947 1.38589892 -0.385449831
v 0.00379862723 1.28577362 -0.284957323
v -0.202449698 1.46956107 -0.539493461
v -0.120562381 1.29354618 -0.411582779
v 0.154047778 1.88738223 -0.0673867607
v 0.32388134 2.12276237 -0.340160881
v 0.072405266 1.87661081 -0.198602312
v 0.386061844 2.12827048 -0.260109602
v 0.387163467 2.19540829 -0.316659588
v 0.355216397 2.18879855 -0.363662174
v 0.399281321 2.25324351 -0.300869657
v 0.395364439 2.14185717 -0.214086237
v 0.374066392 2.26854383 -0.253928273
v 0.348484256 2.46879443 -0.410848363
v 0.388020285 2.28433376 -0.346831821
v 0.368864283 2.28500697 -0.384960221
v 0.138013042 1.9287543 0.00893123973
v 0.33581559 2.46952884 -0.459503384
v 0.359867694 2.18598329 -0.187708484
v 0.0681211761 2.00745915 0.0464476265
v -0.0170710104 2.08751043 0.00372913064
v 0.273084274 2.22986461 -0.198724715
v 0.215371464 2.21780796 -0.274553105
v -0.0675620693 2.07918705 -0.148784468
v 0.537351416 2.70631661 -0.436308097
v 0.525478367 2.70380735 -0.458034553
v 0.573398972 2.75313559 -0.479148996
v 0.564585987 2.75111595 -0.495183732
v 0.565504007 2.76256059 -0.466602733
v 0.526763594 2.71916888 -0.419294141
v 0.549102063 2.7681299 -0.47027481
v 0.319536049 2.4914389 -0.379941715
v 0.504486327 2.72651303 -0.424312646
v 0.540901091 2.76470263 -0.485024319
v 0.278531189 2.50924847 -0.398730509
v 0.493470096 2.72198414 -0.444264264
v 0.54659281 2.75699127 -0.495979349
v 0.501120257 2.71157992 -0.459013774
v 0.564585987 2.75111595 -0.495183732
v 0.525478367 2.70380735 -0.458034553
v 0.26665814 2.50533159 -0.444019459
v 0.288690602 2.48715481 -0.471498835
v 0.33581559 2.46952884 -0.459503384
v 0.298176801 2.30306135 -0.253010253
v 0.24952178 2.29290194 -0.323575333
v 0.342853738 2.24069724 -0.398546905
v 0.368864283 2.28500697 -0.384960221
v 0.231344999 2.16505246 -0.335142376
v -0.0679904783 1.97343124 -0.222409612
v -0.0269244171 1.89870447 -0.229692564
v 0.269473399 2.25734399 -0.383736195
v 0.277613169 2.14387681 -0.358337662
v 0.072405266 1.87661081 -0.198602312
v 0.355216397 2.18879855 -0.363662174
v 0.32388134 2.12276237 -0.340160881
v 0.564585987 2.75111595 -0.495183732
v 0.540901091 2.76470263 -0.485024319
v 0.54659281 2.75699127 -0.495979349
v 0.549102063 2.7681299 -0.47027481
v 0.565504007 2.76256059 -0.466602733
v 0.573398972 2.75313559 -0.479148996
v -0.435381783 2.81855976 0.177601977
v -0.402027083 2.82308866 0.157527956
v -0.413104516 2.82217064 0.178030386
v -0.445418793 2.81966138 0.158445975
v -0.43238292 2.82241544 0.141126012
v -0.411329678 2.82388427 0.142350038
v -0.405331953 2.57981355 0.168054577
v -0.437095419 2.59413465 0.15104062
v -0.428404836 2.72259615 0.174541913
v -0.401047863 2.72700264 0.175031523
v -0.435381783 2.81855976 0.177601977
v -0.413104516 2.82217064 0.178030386
v -0.369223195 2.53942071 0.161383637
v -0.402027083 2.82308866 0.157527956
v -0.387461178 2.72816546 0.150000198
v -0.335746093 2.56928693 0.123561244
v -0.368305176 2.58409764 0.0754570348
v -0.398844617 2.72914469 0.131333807
v -0.411329678 2.82388427 0.142350038
v -0.424671558 2.72730865 0.129864976
v -0.43238292 2.82241544 0.141126012
v -0.445418793 2.81966138 0.158445975
v -0.440645093 2.72400378 0.15104062
v -0.435381783 2.81855976 0.177601977
v -0.428404836 2.72259615 0.174541913
v -0.437095419 2.59413465 0.15104062
v -0.446520416 2.56322801 0.113646636
v -0.424671558 2.5771207 0.077660281
v -0.424549156 2.4578394 0.00507555887
v -0.430914089 2.37907334 0.00372913064
v -0.376200142 2.48880725 0.00354552679
v -0.435626588 2.50912607 0.114258649
v -0.386910366 2.31903488 0.0633391807
v -0.413226918 2.50643321 0.152203444
v -0.314264443 2.47173209 -0.0100411581
v -0.24926868 2.38605029 0.00819682433
v -0.288315099 2.3340904 0.0659096346
v -0.386910366 2.31903488 0.0633391807
v -0.413226918 2.50643321 0.152203444
v -0.510169751 2.68177489 0.26022371
v -0.490646542 2.58011956 0.240333292
v -0.528958545 2.68018366 0.260162508
v -0.46384038 2.59486907 0.233907158
v -0.413226918 2.50643321 0.152203444
v -0.503315207 2.68758901 0.248901472
v -0.369223195 2.53942071 0.161383637
v -0.463289568 2.61206663 0.217260409
v -0.511026569 2.69217911 0.234274365
v -0.405331953 2.57981355 0.168054577
v -0.485260829 2.61904358 0.200613659
v -0.528346532 2.69034307 0.231214301
v -0.437095419 2.59413465 0.15104062
v -0.511454978 2.6060077 0.201837685
v -0.537649127 2.68336613 0.244372577
v -0.446520416 2.56322801 0.113646636
v -0.514025432 2.58483206 0.221483297
v -0.528958545 2.68018366 0.260162508
v -0.435626588 2.50912607 0.114258649
v -0.490646542 2.58011956 0.240333292
v -0.413226918 2.50643321 0.152203444
v -0.511026569 2.69217911 0.234274365
v -0.537649127 2.68336613 0.244372577
v -0.528346532 2.69034307 0.231214301
v -0.503315207 2.68758901 0.248901472
v -0.510169751 2.68177489 0.26022371
v -0.528958545 2.68018366 0.260162508
v 0.510178046 2.26015925 -0.472845264
v 0.342853738 2.24069724 -0.398546905
v 0.355216397 2.18879855 -0.363662174
v 0.48600354 2.27962126 -0.482821073
v 0.608895717 2.42650434 -0.495795745
v 0.368864283 2.28500697 -0.384960221
v 0.5985527 2.43054362 -0.50509834
v 0.474252893 2.29443197 -0.46648033
v 0.388020285 2.28433376 -0.346831821
v 0.588944098 2.43458291 -0.501365062
v 0.479087794 2.29424837 -0.437226117
v 0.399281321 2.25324351 -0.300869657
v 0.585516826 2.43513372 -0.488635195
v 0.499100614 2.27576558 -0.423394627
v 0.387163467 2.19540829 -0.316659588
v 0.593472993 2.43072723 -0.478475782
v 0.514400935 2.25697678 -0.441571408
v 0.355216397 2.18879855 -0.363662174
v 0.605346042 2.42564752 -0.48220906
v 0.510178046 2.26015925 -0.472845264
v 0.608895717 2.42650434 -0.495795745
v 0.608895717 2.42650434 -0.495795745
v 0.605346042 2.42564752 -0.48220906
v 0.593472993 2.43072723 -0.478475782
v 0.585516826 2.43513372 -0.488635195
v 0.588944098 2.43458291 -0.501365062
v 0.5985527 2.43054362 -0.50509834
v -0.24926868 2.38605029 0.00819682433
v -0.203796126 2.28366054 0.0406335046
v 0.0362965087 1.97496127 0.132986241
v -0.0170710104 2.08751043 0.00372913064
v 0.0681211761 2.00745915 0.0464476265
v 0.138013042 1.9287543 0.00893123973
v 0.136299406 1.84221569 0.0928994006
v 0.154047778 1.88738223 -0.0673867607
v 0.191258158 0.946351298 -0.0894804241
v 0.0987830191 1.33553026 -0.241749217
v 0.072405266 1.87661081 -0.198602312
v 0.303195306 0.445051586 -0.0293807637
v 0.27192145 0.445051586 0.160771624
v 0.370883925 -0.000860965621 0.186659767
v 0.412011188 -0.000860965621 -0.0628578658
v 0.135687393 0.445051586 -0.262986063
v 0.192114976 -0.000983368188 -0.369476296
v 0.0430286499 0.946351298 -0.29621836
v 0.00379862723 1.28577362 -0.284957323
v 0.0250966739 1.42237488 -0.256804733
v -0.00207669598 1.41753998 -0.272900671
v -0.0547097998 1.47298834 -0.251602624
v -0.0238643529 1.8476626 -0.211515783
v -0.0269244171 1.89870447 -0.229692564
v -0.202449698 1.46956107 -0.539493461
v -0.353861673 1.45505637 -0.424557451
v -0.279440913 1.41203186 -0.494571719
v -0.156732339 1.56068978 -0.536066189
v -0.346517519 1.55573248 -0.375229216
v -0.295230844 1.63755859 -0.379819313
v -0.167320161 1.64392353 -0.491695259
v -0.225400179 1.66950566 -0.426577093
v 0.218798736 0.049140483 -0.803332194
v 0.165247613 0.0523229497 -0.799109306
v 0.177304266 -4.1476529E-06 -0.896419346
v 0.145724404 0.100549561 -0.70443092
v 0.216901496 0.094062225 -0.69010982
v 0.262006842 0.0710505424 -0.740600879
v 0.257355545 0.100365957 -0.655225088
v 0.339854875 0.0780274887 -0.704124914
v 0.260660414 0.14388007 -0.598001888
v 0.402708593 0.0840864158 -0.671933039
v 0.42070177 0.0517109369 -0.717589196
v 0.517399798 -4.1476529E-06 -0.776097623
v 0.444570271 0.0466312303 -0.644270059
v 0.371679542 0.0583206755 -0.496468959
v 0.307724201 0.148531367 -0.546898817
v 0.291995471 0.198226809 -0.43740972
v 0.409930344 0.0687860949 -0.39016233
v 0.430065566 0.183110092 -0.301665274
v 0.505955158 0.054342592 -0.286181349
v 0.18513803 0.253797575 -0.481107437
v 0.533985346 0.0716625553 -0.215371464
v 0.500141036 0.08953333 -0.140399892
v 0.606937276 0.0238643529 -0.203314811
v 0.599348316 0.0465700291 -0.164451996
v 0.695801539 -4.1476529E-06 -0.126874408
v 0.624073635 0.0230075349 -0.108636426
v 0.574684199 0.0266796119 -0.0581453669
v 0.169960112 0.329197556 -0.387836681
v 0.0427838448 0.3503732 -0.468071563
v 0.519909051 0.0310249031 -0.0090619376
v 0.538697845 0.0225791259 -0.00141177717
v 0.519113434 -4.1476529E-06 0.0837192081
v 0.490165227 0.025394385 -0.0145088518
v 0.431718001 0.0749674246 -0.0995786358
v 0.366049024 0.182253274 -0.174244202
v 0.400076938 0.19969564 -0.246951326
v 0.265801322 0.308572723 -0.218247924
v 0.26096642 0.338744956 -0.281101643
v 0.0667135466 0.536608706 -0.276450345
v 0.0444974807 0.551909026 -0.309743843
v -0.0379406481 0.646403808 -0.271982651
v -0.104282839 0.697568081 -0.277001157
v 0.240708795 0.3503732 -0.338141239
v 0.0621846516 0.428527239 -0.391508758
v -0.016336595 0.524246046 -0.359622889
v -0.17631675 0.673883184 -0.304725338
v -0.279196107 0.778720983 -0.183179589
v -0.0676232706 0.502703195 -0.391753563
v -0.255327607 0.640528485 -0.303807319
v -0.116584297 0.468491677 -0.390468336
v -0.326871907 0.716418076 -0.212127796
v -0.353004855 0.760666604 -0.142847943
v -0.323261032 0.82290831 -0.0845843214
v -0.00427994219 0.314325644 -0.473396075
v 0.0927852934 0.261876144 -0.515747363
v 0.0471291359 0.235681995 -0.531720898
v 0.142174729 0.236538813 -0.527559211
v 0.191686567 0.199328433 -0.547816836
v 0.10882003 0.211079079 -0.542247519
v 0.127731226 0.218484434 -0.529089243
v 0.109064835 0.182192073 -0.570155304
v 0.159800699 0.19492194 -0.534291352
v 0.187708484 0.152081042 -0.560485501
v 0.205518057 0.112055402 -0.58998452
v 0.202519195 0.101283976 -0.625481265
v 0.177549071 0.1071593 -0.647880934
v 0.154231382 0.127110918 -0.633315029
v 0.107167595 0.153672275 -0.622482402
v 0.132443725 0.153305067 -0.607916496
v 0.252704247 1.76877415 -0.321739295
v 0.3172104 1.79013339 -0.258028759
v 0.272900671 1.80323047 -0.335019973
v 0.270758626 1.74380402 -0.233058635
v 0.180976343 1.73835711 -0.305826961
v 0.356195617 1.83529994 -0.191380561
v 0.218186723 1.72513763 -0.204722441
v 0.0771789661 1.74129477 -0.264148887
v 0.123814344 1.72727968 -0.163839983
v 0.177916279 1.77299703 -0.100925064
v 0.257477947 1.78487008 -0.118612235
v 0.241749217 1.87202071 -0.067019553
v 0.290587841 1.79876277 -0.134340965
v 0.317087997 1.87599879 -0.0885012035
v 0.367150647 1.92991712 -0.127119213
v 0.30913183 1.94992994 -0.0713036429
v 0.362376947 2.01774097 -0.114022139
v 0.267882165 2.02967522 -0.0593693926
v 0.239362367 2.00690834 -0.0612666324
v 0.223817241 2.08585799 -0.0608382234
v 0.291322257 2.01315087 -0.0734456878
v 0.240708795 2.09589501 -0.0655507222
v 0.307540597 2.03977343 -0.0744861096
v 0.179079103 2.16835732 -0.0992114281
v 0.30246089 2.12239516 -0.0938869165
v 0.190829749 2.17772112 -0.10312831
v 0.335264778 2.12784208 -0.125221974
v 0.141807521 2.19149141 -0.143827164
v 0.157352647 2.20005959 -0.147499241
v 0.265495315 2.20097761 -0.130485284
v 0.143521157 2.21046381 -0.193339002
v 0.128771648 2.19436787 -0.190340139
v 0.182077966 2.21548231 -0.186362056
v 0.285630538 2.20673053 -0.159066283
v 0.296830372 2.19363346 -0.17656985
v 0.242238828 2.25067305 -0.1979903
v 0.216350685 2.24149286 -0.167879268
v 0.259130382 2.24081964 -0.232079414
v 0.136544211 2.19289904 -0.245054087
v 0.115858177 2.16646009 -0.236730712
v 0.129077654 2.14926252 -0.2743083
v 0.147988851 2.13077974 -0.305643357
v 0.200071143 2.25495714 -0.259925998
v 0.219227145 2.25642597 -0.266352133
v 0.223144027 2.22600893 -0.287099368
v 0.176631052 2.2102802 -0.249705384
v 0.195297443 2.2337203 -0.30197128
v 0.209128933 2.15048655 -0.332449519
v 0.176692253 2.18757453 -0.287466576
v 0.158943881 2.08310394 -0.325533774
v 0.209251336 2.08928527 -0.354604384
v 0.209373738 2.01706775 -0.374188795
v 0.161147127 2.00837717 -0.339426466
v 0.152884954 1.91994132 -0.352217534
v 0.218186723 1.94197378 -0.384042201
v 0.242912042 1.8668798 -0.38110454
v 0.160473913 1.82232527 -0.352156333
v 0.0990278243 1.85347672 -0.32057647
v 0.252704247 1.76877415 -0.321739295
v 0.272900671 1.80323047 -0.335019973
v 0.180976343 1.73835711 -0.305826961
v 0.0771789661 1.74129477 -0.264148887
v 0.0673867607 1.81198225 -0.302644494
v 0.0645715017 1.90237655 -0.291995471
v -0.85246853 0.14577731 0.224176154
v -0.84726642 0.184946131 0.304900646
v -0.99935161 -4.1476529E-06 0.107281702
v -0.755525697 0.265731825 0.319466552
v -0.935702275 0.0439383739 0.221422096
v -0.75044599 0.256123224 0.283418996
v -0.906203256 0.0634615833 0.296577272
v -0.92829692 0.0503645086 0.351536024
v -0.968077754 -4.1476529E-06 0.422529513
v -0.847756031 0.133047443 0.364510697
v -0.731534793 0.248840271 0.343335052
v -0.670455913 0.353310862 0.278033283
v -0.575349118 0.436361003 0.339295768
v -0.620515665 0.44621441 0.310714768
v -0.59640236 0.45147772 0.237640436
v -0.508394914 0.58165285 0.218729239
v -0.532141012 0.574859508 0.306797886
v -0.493278197 0.525102864 0.354290082
v -0.399762636 0.615068751 0.379627414
v -0.404964745 0.552276234 0.380545433
v -0.316345286 0.547686138 0.441991521
v -0.328646744 0.507476895 0.439971879
v -0.264691403 0.440216684 0.515433062
v -0.235620794 0.485934043 0.534772667
v -0.17490912 0.290824351 0.659806889
v -0.468063268 0.68037052 0.282562178
v -0.420387468 0.746835114 0.222829725
v -0.427915226 0.673699581 0.323261032
v -0.414512145 0.777068548 0.276013641
v -0.351903232 0.918198708 0.191494668
v -0.107404105 0.332686029 0.684287403
v -0.145532504 0.202327295 0.782760268
v -0.033166948 0.217015603 0.833985742
v -0.182069671 0.105323261 0.975360707
v -0.147552147 0.113952642 0.992864274
v -0.292537987 -4.1476529E-06 1.21116925
v -0.110219364 0.0837804094 0.985458918
v -0.0315145133 0.10146758 0.93356023
v 0.105147953 0.100549561 0.920524357
v 0.0760161417 0.0721521655 0.947575324
v 0.241504412 -4.1476529E-06 1.02860582
v 0.126874408 0.094919043 0.904367218
v 0.03635771 0.205754567 0.779394197
v -0.018050231 0.309980353 0.660051694
v -0.0391646738 0.4504985 0.562802855
v -0.106730891 0.458944277 0.594749925
v -0.040939511 0.604603332 0.47289817
v -0.106057677 0.62455495 0.510904167
v -0.0412455174 0.735880085 0.408759225
v -0.106547287 0.771744037 0.448478857
v -0.0416739264 0.880804724 0.351903232
v -0.202755704 0.654788384 0.471857748
v -0.103242418 0.927684907 0.381647056
v -0.0387974661 1.02468894 0.297189285
v -0.101222775 1.07309916 0.323811843
v -0.0330445454 1.20364149 0.246453421
v -0.183232495 0.758891767 0.435626588
v -0.243148551 0.577919572 0.470450118
v -0.0828011889 1.28051031 0.261753742
v -0.0255779888 1.35236061 0.221544498
v -0.0622987589 1.47721123 0.222829725
v -0.0184786399 1.50701626 0.210344664
v -0.0108896808 1.65891784 0.20826382
v -0.0690921014 1.5712776 0.197920803
v -0.145593706 1.42115086 0.194371129
v -0.155691917 1.28357037 0.226624205
v -0.275156823 1.08803227 0.208325021
v -0.220565278 1.05810484 0.271790752
v -0.358268166 0.911038158 0.242964948
v -0.286662664 0.988274177 0.251104718
v -0.318732137 0.900144329 0.257408451
v -0.228337841 0.855712198 0.248473063
v -0.295475649 0.830803275 0.258448872
v -0.34939398 0.771070823 0.284765424
v -0.391072054 0.687408668 0.321914603
v -0.367570761 0.627125404 0.363041866
v -0.328218335 0.585569732 0.394682929
v -0.281521756 0.574063891 0.418735034
v -0.232621931 0.61929164 0.405943965
v -0.209793852 0.700566944 0.363470275
v -0.199328433 0.806567567 0.295475649
v -0.173011881 0.902592381 0.373140078
v -0.180478437 0.996781156 0.325770284
v 0.209251336 2.08928527 -0.354604384
v 0.274614306 2.12374159 -0.278408786
v 0.209128933 2.15048655 -0.332449519
v 0.223144027 2.22600893 -0.287099368
v 0.259130382 2.24081964 -0.232079414
v 0.281040441 2.04730119 -0.31053946
v 0.209373738 2.01706775 -0.374188795
v 0.218186723 1.94197378 -0.384042201
v 0.343404549 2.09822065 -0.209557342
v 0.296830372 2.19363346 -0.17656985
v 0.335264778 2.12784208 -0.125221974
v 0.362376947 2.01774097 -0.114022139
v 0.378656488 1.9666991 -0.199153124
v 0.367150647 1.92991712 -0.127119213
v 0.356195617 1.83529994 -0.191380561
v 0.288323394 1.92300138 -0.335754389
v 0.242912042 1.8668798 -0.38110454
v 0.272900671 1.80323047 -0.335019973
v 0.331898708 1.87183711 -0.275593527
v 0.3172104 1.79013339 -0.258028759
vt 0.170070624 0.605483734
vt 0.069441816 0.482600478
vt 0.0326735978 0.575488608
vt 0.205871257 0.534850051
vt 0.110080373 0.411966796
vt 0.309402819 0.663538815
vt 0.240704306 0.475827385
vt 0.158459607 0.332624851
vt 0.344235868 0.606451318
vt 0.392615102 0.668376738
vt 0.405193703 0.709015295
vt 0.404226118 0.638381613
vt 0.422610227 0.618062335
vt 0.376166162 0.558072084
vt 0.452605353 0.616127165
vt 0.475827385 0.595807887
vt 0.485503232 0.639349198
vt 0.406161288 0.503887341
vt 0.280375278 0.405193703
vt 0.607418903 0.713853219
vt 0.500017002 0.6645064
vt 0.572585854 0.748686267
vt 0.483568063 0.690631186
vt 0.464216369 0.709015295
vt 0.55323416 0.772875885
vt 0.562910007 0.783519316
vt 0.316175912 0.349073791
vt 0.200065749 0.264893923
vt 0.641284367 0.665473984
vt 0.440026752 0.454540522
vt 0.355846884 0.293921464
vt 0.250380153 0.19813058
vt 0.590002379 0.776746223
vt 0.582261701 0.791259994
vt 0.605483734 0.81931995
vt 0.698371864 0.811579272
vt 0.720626312 0.791259994
vt 0.738042836 0.767070377
vt 0.47679497 0.407128872
vt 0.703209787 0.591937548
vt 0.676117416 0.63160852
vt 0.769005546 0.759329699
vt 0.528076958 0.349073791
vt 0.778681393 0.784486901
vt 0.78835724 0.736107667
vt 0.818352365 0.83383372
vt 0.829963381 0.811579272
vt 0.80287101 0.791259994
vt 0.81738478 0.782551732
vt 0.825125458 0.763200038
vt 0.846412321 0.791259994
vt 0.929624604 0.913175665
vt 0.942203205 0.904467402
vt 0.958652145 0.945105959
vt 0.966392822 0.942203205
vt 0.953814222 0.948976298
vt 0.920916342 0.922851511
vt 0.949943883 0.95768456
vt 0.914143249 0.935430112
vt 0.948008713 0.965425238
vt 0.803838595 0.858023337
vt 0.907370156 0.948976298
vt 0.947041129 0.975101085
vt 0.783519316 0.878342616
vt 0.901564648 0.963490068
vt 0.763200038 0.903499818
vt 0.944138375 0.982841762
vt 0.894791555 0.976068669
vt 0.753524191 0.929624604
vt 0.719658727 0.917046003
vt 0.692566356 0.898661894
vt 0.680955339 0.837704059
vt 0.666441569 0.862861261
vt 0.66257123 0.888986047
vt 0.588067209 0.863828845
vt 0.325851759 0.0597659691
vt 0.319078666 0.0723445701
vt 0.325851759 0.0684742313
vt 0.32004625 0.056863215
vt 0.311337988 0.0607335538
vt 0.311337988 0.0684742313
vt 0.334560021 0.946073544
vt 0.288115956 0.89575914
vt 0.308435234 0.966392822
vt 0.323916589 0.889953632
vt 0.359717223 0.893823971
vt 0.36939307 0.942203205
vt 0.319078666 0.838671644
vt 0.286180786 0.842541982
vt 0.246509814 0.858023337
vt 0.346171037 0.832866135
vt 0.378101332 0.840606813
vt 0.395517856 0.896726725
vt 0.41293438 0.862861261
vt 0.402290949 0.951879052
vt 0.434221244 0.88124537
vt 0.432286074 0.903499818
vt 0.427448151 0.966392822
vt 0.459378446 0.891888801
vt 0.453572937 0.978971423
vt 0.457443276 0.911240495
vt 0.49130874 0.902532233
vt 0.479697724 0.88124537
vt 0.481632893 0.981874177
vt 0.500017002 0.870601938
vt 0.510660434 0.976068669
vt 0.526141789 0.900597064
vt 0.536785221 0.852217829
vt 0.541623144 0.969295577
vt 0.561942423 0.900597064
vt 0.253282907 0.657733307
vt 0.247477399 0.783519316
vt 0.298759387 0.675149831
vt 0.218449858 0.7719083
vt 0.213611935 0.796097917
vt 0.231028459 0.803838595
vt 0.194260241 0.799000671
vt 0.205871257 0.764167623
vt 0.178778886 0.789324824
vt 0.172005793 0.869634354
vt 0.19813058 0.815449611
vt 0.206838842 0.825125458
vt 0.22909329 0.644187121
vt 0.189422317 0.877375031
vt 0.187487148 0.760297284
vt 0.19619541 0.63160852
vt 0.157492023 0.630640935
vt 0.157492023 0.752556606
vt 0.124594143 0.752556606
vt 0.111047958 0.642251952
vt 0.15071893 0.966392822
vt 0.160394777 0.966392822
vt 0.147816176 0.98864727
vt 0.153621684 0.99058244
vt 0.141043083 0.986712101
vt 0.142978252 0.965425238
vt 0.13426999 0.984776932
vt 0.153621684 0.865764015
vt 0.135237575 0.961554899
vt 0.127496897 0.983809347
vt 0.137172744 0.86479643
vt 0.127496897 0.95961973
vt 0.122658974 0.985744516
vt 0.120723804 0.95961973
vt 0.116853466 0.98864727
vt 0.112983127 0.965425238
vt 0.120723804 0.865764015
vt 0.107177619 0.8667316
vt 0.0897610944 0.870601938
vt 0.153621684 0.78835724
vt 0.126529313 0.790292409
vt 0.0791176629 0.799968256
vt 0.069441816 0.812546857
vt 0.0965341873 0.75545936
vt 0.0713769854 0.639349198
vt 0.0462197835 0.643219536
vt 0.102339695 0.793195163
vt 0.0820204169 0.765135207
vt 0.0220301662 0.666441569
vt 0.0675066466 0.789324824
vt 0.0655714772 0.770940715
vt 0.332624851 0.0520252916
vt 0.337462775 0.0607335538
vt 0.338430359 0.0558956303
vt 0.332624851 0.0636363079
vt 0.326819343 0.0607335538
vt 0.326819343 0.0549280457
vt 0.432286074 0.742880759
vt 0.438091582 0.756426945
vt 0.439059167 0.747718683
vt 0.425512981 0.746751098
vt 0.425512981 0.754491776
vt 0.43131849 0.758362114
vt 0.794162748 0.128464482
vt 0.803838595 0.121691389
vt 0.787389655 0.084923171
vt 0.776746223 0.0868583404
vt 0.780616562 0.056863215
vt 0.772875885 0.0578307997
vt 0.78835724 0.143945837
vt 0.765135207 0.0587983844
vt 0.765135207 0.0897610944
vt 0.769005546 0.142978252
vt 0.750621437 0.141043083
vt 0.756426945 0.0897610944
vt 0.758362114 0.0587983844
vt 0.745783513 0.0878259251
vt 0.751589022 0.0578307997
vt 0.744815929 0.0558956303
vt 0.736107667 0.0839555863
vt 0.737075251 0.0529928763
vt 0.725464235 0.0800852476
vt 0.713853219 0.116853466
vt 0.719658727 0.130399651
vt 0.732237328 0.13620516
vt 0.713853219 0.176843716
vt 0.694501525 0.191357487
vt 0.731269743 0.174908547
vt 0.705144956 0.140075498
vt 0.6645064 0.187487148
vt 0.69546911 0.130399651
vt 0.744815929 0.189422317
vt 0.765135207 0.216514689
vt 0.792227578 0.218449858
vt 0.822222704 0.210709181
vt 0.804806179 0.147816176
vt 0.905434987 0.273602185
vt 0.921883927 0.299726972
vt 0.910272911 0.269731847
vt 0.913175665 0.304564895
vt 0.934462528 0.338430359
vt 0.901564648 0.275537355
vt 0.918981173 0.345203452
vt 0.905434987 0.304564895
vt 0.89575914 0.275537355
vt 0.908337741 0.331657267
vt 0.89575914 0.302629726
vt 0.890921217 0.27456977
vt 0.89769431 0.326819343
vt 0.886083293 0.301662141
vt 0.886083293 0.272634601
vt 0.888018463 0.339397944
vt 0.876407446 0.301662141
vt 0.880277785 0.271667016
vt 0.872537108 0.348106206
vt 0.867699184 0.300694557
vt 0.859958507 0.343268283
vt 0.427448151 0.804806179
vt 0.419707473 0.799968256
vt 0.421642643 0.804806179
vt 0.430350905 0.799968256
vt 0.428415736 0.796097917
vt 0.422610227 0.795130333
vt 0.13426999 0.100404526
vt 0.141043083 0.153621684
vt 0.160394777 0.153621684
vt 0.124594143 0.104274865
vt 0.116853466 0.0452521988
vt 0.124594143 0.15071893
vt 0.111047958 0.0471873681
vt 0.11782105 0.108145204
vt 0.112983127 0.154589269
vt 0.107177619 0.0500901222
vt 0.108145204 0.112015542
vt 0.100404526 0.1652327
vt 0.102339695 0.0529928763
vt 0.0984693566 0.113950712
vt 0.0829880016 0.168135454
vt 0.097501772 0.053960461
vt 0.0887935098 0.112015542
vt 0.0655714772 0.164265115
vt 0.0916962638 0.0520252916
vt 0.0800852476 0.107177619
vt 0.0858907557 0.0500901222
vt 0.0171922428 0.153621684
vt 0.0162246581 0.147816176
vt 0.01041915 0.145881006
vt 0.00654881122 0.15071893
vt 0.00848398059 0.156524438
vt 0.0123543193 0.157492023
vt 0.815449611 0.735140082
vt 0.794162748 0.706112541
vt 0.742880759 0.595807887
vt 0.791259994 0.621932673
vt 0.7719083 0.587099624
vt 0.769973131 0.549363822
vt 0.733204912 0.545493483
vt 0.778681393 0.520336281
vt 0.568715515 0.312305573
vt 0.69546911 0.360684807
vt 0.810611688 0.483568063
vt 0.458410861 0.193292656
vt 0.411966796 0.231028459
vt 0.32198142 0.118788635
vt 0.382939255 0.0704094007
vt 0.535817636 0.14878376
vt 0.486470817 0.0152570734
vt 0.63354369 0.261991169
vt 0.709015295 0.327786928
vt 0.730302158 0.364555146
vt 0.736107667 0.356814469
vt 0.760297284 0.361652392
vt 0.828028212 0.457443276
vt 0.839639228 0.469054292
vt 0.168135454 0.056863215
vt 0.22715812 0.0529928763
vt 0.19619541 0.0394466906
vt 0.157492023 0.0868583404
vt 0.234898798 0.0878259251
vt 0.221352612 0.113950712
vt 0.168135454 0.114918296
vt 0.194260241 0.126529313
vt 0.966392822 0.0713769854
vt 0.971230746 0.0781500782
vt 0.981874177 0.0675066466
vt 0.960587314 0.0897610944
vt 0.952846637 0.0820204169
vt 0.954781806 0.0723445701
vt 0.944138375 0.0810528323
vt 0.944138375 0.0665390619
vt 0.934462528 0.0868583404
vt 0.934462528 0.0607335538
vt 0.940268036 0.053960461
vt 0.941235621 0.0355763519
vt 0.927689435 0.0549280457
vt 0.911240495 0.0723445701
vt 0.923819096 0.084923171
vt 0.910272911 0.097501772
vt 0.894791555 0.0752473241
vt 0.88124537 0.0907286791
vt 0.874472277 0.0704094007
vt 0.923819096 0.112015542
vt 0.862861261 0.0733121547
vt 0.853185414 0.0820204169
vt 0.857055753 0.0607335538
vt 0.852217829 0.0646038925
vt 0.842541982 0.0510577069
vt 0.842541982 0.0626687232
vt 0.836736474 0.0713769854
vt 0.91220808 0.125561728
vt 0.932527358 0.13620516
vt 0.830930966 0.0800852476
vt 0.828995797 0.0771824935
vt 0.816417196 0.0810528323
vt 0.831898551 0.084923171
vt 0.846412321 0.0916962638
vt 0.86479643 0.104274865
vt 0.875439862 0.0984693566
vt 0.8793102 0.123626559
vt 0.889953632 0.124594143
vt 0.902532233 0.163297531
vt 0.908337741 0.1652327
vt 0.908337741 0.184584394
vt 0.914143249 0.19619541
vt 0.898661894 0.124594143
vt 0.919948757 0.146848591
vt 0.920916342 0.1652327
vt 0.925754266 0.19813058
vt 0.924786681 0.22715812
vt 0.930592189 0.166200285
vt 0.938332866 0.202968503
vt 0.939300451 0.16716787
vt 0.936397697 0.223287781
vt 0.933494943 0.235866382
vt 0.922851511 0.244574645
vt 0.941235621 0.137172744
vt 0.936397697 0.11975622
vt 0.944138375 0.121691389
vt 0.933494943 0.112015542
vt 0.932527358 0.102339695
vt 0.941235621 0.112015542
vt 0.937365282 0.112015542
vt 0.945105959 0.108145204
vt 0.936397697 0.106210034
vt 0.938332866 0.0984693566
vt 0.942203205 0.0926638485
vt 0.946073544 0.0897610944
vt 0.950911467 0.0907286791
vt 0.950911467 0.0955666026
vt 0.952846637 0.10330728
vt 0.948976298 0.101372111
vt 0.810611688 0.351976545
vt 0.825125458 0.356814469
vt 0.814482026 0.347138622
vt 0.81738478 0.363587561
vt 0.800935841 0.359717223
vt 0.837704059 0.362619977
vt 0.812546857 0.371328239
vt 0.790292409 0.373263408
vt 0.803838595 0.38390684
vt 0.818352365 0.388744763
vt 0.826093043 0.379068916
vt 0.837704059 0.389712348
vt 0.829963381 0.375198578
vt 0.842541982 0.379068916
vt 0.853185414 0.372295824
vt 0.852217829 0.384874425
vt 0.86479643 0.378101332
vt 0.861893676 0.395517856
vt 0.857055753 0.397453025
vt 0.867699184 0.404226118
vt 0.860926091 0.390679933
vt 0.869634354 0.402290949
vt 0.86479643 0.388744763
vt 0.88124537 0.413901965
vt 0.876407446 0.391647517
vt 0.883180539 0.411966796
vt 0.880277785 0.386809594
vt 0.888986047 0.420675058
vt 0.889953632 0.417772304
vt 0.888018463 0.399388195
vt 0.896726725 0.420675058
vt 0.89575914 0.423577812
vt 0.896726725 0.41486955
vt 0.891888801 0.396485441
vt 0.892856386 0.392615102
vt 0.899629479 0.403258534
vt 0.894791555 0.407128872
vt 0.904467402 0.40035578
vt 0.904467402 0.423577812
vt 0.904467402 0.428415736
vt 0.911240495 0.428415736
vt 0.917046003 0.428415736
vt 0.907370156 0.410031626
vt 0.909305326 0.407128872
vt 0.915110834 0.407128872
vt 0.906402572 0.416804719
vt 0.913175665 0.411966796
vt 0.923819096 0.419707473
vt 0.913175665 0.419707473
vt 0.923819096 0.432286074
vt 0.930592189 0.426480566
vt 0.938332866 0.434221244
vt 0.931559774 0.440994336
vt 0.939300451 0.451637768
vt 0.946073544 0.441961921
vt 0.955749391 0.449702599
vt 0.948976298 0.4622812
vt 0.938332866 0.465183954
vt 0.965425238 0.464216369
vt 0.965425238 0.457443276
vt 0.958652145 0.473892216
vt 0.945105959 0.483568063
vt 0.938332866 0.473892216
vt 0.92865702 0.464216369
vt 0.806741349 0.587099624
vt 0.81931995 0.583229286
vt 0.775778639 0.572585854
vt 0.830930966 0.596775471
vt 0.796097917 0.570650685
vt 0.826093043 0.598710641
vt 0.807708934 0.567747931
vt 0.812546857 0.560974838
vt 0.81738478 0.548396237
vt 0.825125458 0.573553439
vt 0.835768889 0.593872717
vt 0.834801305 0.614191996
vt 0.854152999 0.622900258
vt 0.846412321 0.624835427
vt 0.838671644 0.632576105
vt 0.84834749 0.653862968
vt 0.858023337 0.644187121
vt 0.8667316 0.636446444
vt 0.880277785 0.649992629
vt 0.8793102 0.640316782
vt 0.89575914 0.638381613
vt 0.893823971 0.632576105
vt 0.906402572 0.620965089
vt 0.91220808 0.625803012
vt 0.923819096 0.592905133
vt 0.863828845 0.66257123
vt 0.861893676 0.677085001
vt 0.872537108 0.659668476
vt 0.871569523 0.677085001
vt 0.872537108 0.703209787
vt 0.935430112 0.596775471
vt 0.930592189 0.572585854
vt 0.948976298 0.5696831
vt 0.930592189 0.540655559
vt 0.936397697 0.539687975
vt 0.919948757 0.500984587
vt 0.94317079 0.537752805
vt 0.953814222 0.547428652
vt 0.973165915 0.552266576
vt 0.970263161 0.546461068
vt 0.996387948 0.534850051
vt 0.977036254 0.55516933
vt 0.95961973 0.576456193
vt 0.948976298 0.598710641
vt 0.94317079 0.621932673
vt 0.932527358 0.619997504
vt 0.942203205 0.64805746
vt 0.930592189 0.647089875
vt 0.94317079 0.669344323
vt 0.930592189 0.671279492
vt 0.941235621 0.69353394
vt 0.916078419 0.652895383
vt 0.92865702 0.697404279
vt 0.944138375 0.716755973
vt 0.921883927 0.718691142
vt 0.936397697 0.742880759
vt 0.918013588 0.669344323
vt 0.908337741 0.642251952
vt 0.918013588 0.748686267
vt 0.929624604 0.763200038
vt 0.921883927 0.782551732
vt 0.933494943 0.789324824
vt 0.92672185 0.798033087
vt 0.913175665 0.798033087
vt 0.904467402 0.775778639
vt 0.908337741 0.751589022
vt 0.889953632 0.72449665
vt 0.903499818 0.717723557
vt 0.878342616 0.698371864
vt 0.890921217 0.709015295
vt 0.884148124 0.696436694
vt 0.89575914 0.689663601
vt 0.888018463 0.686760847
vt 0.880277785 0.677085001
vt 0.877375031 0.66257123
vt 0.884148124 0.653862968
vt 0.891888801 0.647089875
vt 0.899629479 0.645154706
vt 0.904467402 0.651927799
vt 0.904467402 0.6645064
vt 0.901564648 0.681922924
vt 0.916078419 0.691598771
vt 0.91220808 0.707080126
vt 0.616127165 0.0684742313
vt 0.618062335 0.0839555863
vt 0.624835427 0.0733121547
vt 0.635478859 0.0820204169
vt 0.635478859 0.0916962638
vt 0.606451318 0.0791176629
vt 0.605483734 0.0646038925
vt 0.593872717 0.0617011385
vt 0.611289242 0.097501772
vt 0.627738181 0.101372111
vt 0.616127165 0.110080373
vt 0.598710641 0.112015542
vt 0.591937548 0.0984693566
vt 0.585164455 0.109112788
vt 0.571618269 0.0965341873
vt 0.588067209 0.0742797394
vt 0.581294116 0.0636363079
vt 0.570650685 0.0704094007
vt 0.579358947 0.0839555863
vt 0.566780346 0.0829880016
vn 0.450737443 0.149126092 -0.880112019
vn -0.320515674 0.227030448 -0.9196341
vn 0.419575701 0.25819219 -0.870225847
vn -0.32830611 0.0634313015 -0.942439159
vn -0.865846161 0.203659141 -0.45698291
vn 0.40399483 0.0011078173 -0.914760597
vn -0.897007903 0.040059995 -0.440195432
vn -0.943750516 0.164706963 0.286716897
vn -0.367258287 -0.0378443603 -0.92934878
vn -0.0712217371 0.040059995 -0.996655738
vn 0.310509604 0.0868026081 -0.946598697
vn -0.452953078 0.0712217371 -0.888684969
vn -0.671085273 0.0712217371 -0.737951232
vn -0.889217468 -0.0222634893 -0.456942701
vn -0.92037921 0.125754786 -0.370253756
vn -0.99049313 0.110173915 -0.0823715297
vn -0.904798339 0.102383479 -0.413349234
vn -0.959331387 0.0011078173 0.282280112
vn -0.943750516 0.0634313015 0.324517231
vn -0.865846161 -0.10795828 -0.48852373
vn -0.577600046 0.110173915 -0.808850972
vn -0.343886981 0.0011078173 -0.939010393
vn -0.351677416 0.0868026081 -0.932088141
vn -0.0166886884 0.156916528 -0.987470856
vn 0.0612156669 -0.100167845 -0.993085618
vn -0.055640866 -0.201443506 -0.977918508
vn -0.507486127 0.133545221 0.851248204
vn -0.523066998 0.164706963 0.836225168
vn -0.928169645 -0.10795828 0.356154628
vn -0.546438304 0.0634313015 0.835093797
vn 0.232605249 0.203659141 0.951008808
vn 0.232605249 0.180287834 0.955714965
vn -0.265982625 0.125754786 -0.955740015
vn -0.468533949 0.234820883 -0.851666068
vn 0.372833088 0.538647869 -0.755548782
vn -0.18807827 -0.00668261823 -0.982131308
vn -0.819103548 -0.255976555 -0.513366712
vn -0.928169645 -0.24818612 0.277317074
vn 0.209233942 0.11796435 0.97072425
vn 0.302719168 0.180287834 0.935872535
vn -0.429581771 0.040059995 0.902138957
vn -0.616552224 -0.00668261823 0.787285652
vn 0.848049655 0.141335657 0.510721073
vn -0.935960081 -0.0456347959 0.349136352
vn 0.232605249 0.390629594 0.890675765
vn -0.967121823 -0.123539151 0.22229138
vn -0.367258287 0.25819219 0.893564851
vn -0.834684419 0.195868706 0.514720673
vn 0.100167845 0.616552224 0.780915974
vn 0.590965283 0.62434266 0.510838798
vn 0.458527879 0.476324385 0.750244803
vn -0.367258287 -0.146910458 0.918443612
vn 0.520851363 0.343886981 0.781316582
vn -0.211449577 -0.287138297 0.934259426
vn 0.513060928 0.351677416 0.783001583
vn -0.772360935 -0.606546154 0.18857452
vn -0.897007903 -0.419575701 0.139043348
vn -0.55422874 -0.232605249 -0.799202917
vn -0.55422874 -0.217024378 -0.803573844
vn 0.263766991 0.445162642 -0.855720279
vn -0.671085273 -0.232605249 -0.703945562
vn 0.341671346 0.265982625 -0.901395548
vn 0.723402687 0.686666144 -0.071959429
vn 0.263766991 0.0322695594 -0.964046498
vn 0.832468784 0.538647869 -0.129823713
vn 0.887001833 0.429581771 -0.169373108
vn 0.513060928 0.351677416 0.783001583
vn 0.520851363 0.343886981 0.781316582
vn 0.458527879 0.476324385 0.750244803
vn 0.590965283 0.62434266 0.510838798
vn 0.816887913 0.507486127 0.274138593
vn 0.505270492 0.351677416 -0.78805122
vn 0.793516607 0.569809611 -0.213654867
vn 0.684450509 0.569809611 0.454801614
vn 0.723402687 0.678875708 0.125762972
vn -0.803522677 0.593180918 0.0498769178
vn -0.795732241 0.600971353 0.0751241172
vn -0.795732241 0.593180918 0.122256285
vn -0.795732241 0.593180918 0.122256285
vn -0.787941806 0.600971353 0.134093786
vn -0.78015137 0.616552224 0.105958456
vn -0.359467852 -0.606546154 -0.709143587
vn 0.372833088 -0.520851363 -0.767925352
vn 0.419575701 -0.411785266 -0.808943215
vn -0.336096545 -0.723402687 -0.603098387
vn -0.912588774 -0.388413959 -0.127735373
vn -0.959331387 -0.279347862 -0.0405963211
vn -0.320515674 -0.762354865 -0.562214161
vn 0.240395684 -0.676660074 -0.695946161
vn 0.754564429 -0.240395684 -0.610608252
vn -0.748989628 -0.598755718 -0.283736016
vn -0.974912258 -0.1780722 0.133552911
vn -0.912588774 0.172497399 0.370710637
vn -0.897007903 0.297144367 0.327233932
vn -0.764570499 0.234820883 0.600242538
vn -0.538647869 0.78015137 0.318154543
vn -0.375048723 0.748989628 0.546216983
vn -0.133545221 0.647713966 0.750088189
vn 0.209233942 0.951540952 0.22536853
vn 0.442947008 0.725618322 0.526570033
vn 0.341671346 0.819103548 0.46079287
vn 0.746773994 0.663294837 -0.0486678688
vn 0.481899186 0.873636597 -0.0673221518
vn 0.847626866 0.530592778 -0
vn 0.824678349 0.382839158 -0.416340966
vn 0.879211397 0.0712217371 -0.471078319
vn 0.809097478 0.0166886884 -0.587437451
vn 0.754564429 -0.240395684 -0.610608252
vn 0.419575701 -0.411785266 -0.808943215
vn 0.372833088 -0.520851363 -0.767925352
vn 0.738983558 -0.668869638 0.0807261304
vn 0.419575701 -0.606546154 -0.67532066
vn 0.341671346 -0.70003138 -0.627069978
vn 0.816887913 -0.528641799 -0.23072058
vn 0.887001833 -0.326090475 -0.326944568
vn 0.450737443 -0.520851363 -0.724948008
vn 0.957115753 0.219240012 0.189375956
vn 0.918163575 -0.193653071 0.345650311
vn 0.622127025 0.468533949 0.627243097
vn 0.972696624 -0.115748716 0.201155444
vn 0.964906188 0.125754786 -0.230525013
vn 0.801307042 -0.0690061025 -0.594260197
vn 0.70003138 -0.131329587 0.701932052
vn 0.528641799 -0.287138297 -0.798805012
vn 0.536432234 0.375048723 0.756028382
vn 0.388413959 0.429581771 0.815226409
vn -0.0868026081 0.865846161 0.492722775
vn -0.11796435 0.756780064 0.642937281
vn -0.733408757 0.663294837 -0.148833981
vn -0.538647869 0.772360935 -0.336625994
vn 0.824678349 -0.497480057 0.269108183
vn 0.411785266 -0.606546154 -0.680099006
vn 0.832468784 -0.54422267 0.104006773
vn 0.310509604 -0.731193122 -0.607404646
vn 0.598755718 0.281563496 0.749809034
vn 0.40399483 0.172497399 0.898350057
vn -0.273773061 0.826893983 0.491217519
vn 0.162491329 0.312725238 0.935841596
vn -0.351677416 0.678875708 0.644554705
vn -0.764570499 0.569809611 -0.301245679
vn -0.678875708 0.507486127 0.530646402
vn -0.702247015 0.686666144 -0.187986002
vn -0.445162642 -0.24818612 -0.860368451
vn -0.406210465 0.141335657 -0.90278308
vn 0.310509604 -0.731193122 -0.607404646
vn 0.411785266 -0.606546154 -0.680099006
vn -0.881427032 0.351677416 -0.315292534
vn -0.4140009 -0.00668261823 -0.910251942
vn 0.528641799 -0.287138297 -0.798805012
vn -0.234820883 0.608761789 0.757804881
vn -0.959331387 0.265982625 0.0945332333
vn 0.0300539248 -0.326090475 -0.944860711
vn 0.801307042 -0.0690061025 -0.594260197
vn -0.62434266 0.133545221 -0.769650516
vn -0.445162642 0.180287834 -0.877112603
vn -0.133545221 -0.302719168 -0.943677264
vn -0.663294837 -0.131329587 -0.736744527
vn -0.133545221 -0.349461782 -0.927384568
vn 0.341671346 -0.70003138 -0.627069978
vn 0.450737443 -0.520851363 -0.724948008
vn 0.419575701 -0.606546154 -0.67532066
vn 0.365042653 0.85026529 -0.379200209
vn 0.318300039 0.858055726 -0.403020417
vn 0.294928733 0.842474854 -0.45083607
vn 0.349461782 0.858055726 -0.376320123
vn 0.388413959 0.85026529 -0.355223216
vn 0.442947008 0.826893983 -0.34647408
vn -0.102383479 0.99049313 0.0918748256
vn -0.0945930437 0.99049313 0.0998775074
vn -0.156916528 0.982702694 -0.0983494713
vn -0.0790121726 0.99049313 0.112607446
vn -0.0790121726 0.99049313 0.112607446
vn -0.0790121726 0.99049313 0.112607446
vn -0.0712217371 -0.076796538 0.994499752
vn -0.826893983 -0.0690061025 0.558107963
vn -0.515276562 -0.0534252314 0.855357124
vn 0.481899186 0.055640866 0.874458272
vn -0.523066998 -0.0612156669 0.850090323
vn 0.497480057 0.040059995 0.866549935
vn 0.528641799 -0.115748716 0.840916217
vn 0.988277495 0.149126092 -0.0326955905
vn 0.972074904 0.234670792 -0
vn 0.933744446 0.281563496 0.221005219
vn 0.411785266 0.546438304 -0.729272291
vn 0.497480057 0.289353932 -0.817794531
vn 0.497480057 0.164706963 -0.851695491
vn -0.437372207 0.195868706 -0.877690722
vn -0.429581771 0.0712217371 -0.900214955
vn -0.998283565 -0.0456347959 -0.0367068
vn -0.998283565 0.0244791239 -0.0532042879
vn -0.523066998 -0.0612156669 0.850090323
vn -0.515276562 -0.0534252314 0.855357124
vn -0.826893983 -0.0690061025 0.558107963
vn -0.959331387 0.102383479 -0.263060663
vn -0.569809611 0.367258287 -0.735145127
vn -0.842474854 0.234820883 -0.484866242
vn -0.951540952 -0.224814813 0.20982878
vn -0.156916528 0.562019175 -0.812103226
vn -0.92037921 -0.255976555 0.295597892
vn -0.421791336 -0.442947008 0.791132111
vn -0.281563496 -0.442947008 0.851187374
vn 0.645498332 0.632133095 -0.428648637
vn 0.91037314 0.219240012 0.350933845
vn 0.497480057 -0.209233942 0.841863855
vn -0.421791336 -0.442947008 0.791132111
vn -0.281563496 -0.442947008 0.851187374
vn 0.411785266 0.0011078173 0.911280236
vn -0.133545221 -0.583174847 0.801294435
vn -0.538647869 -0.302719168 0.786269406
vn 0.606546154 -0.0300539248 0.794480034
vn -0.156916528 -0.809097478 0.566337774
vn 0.887001833 0.429581771 0.169373108
vn 0.466318314 -0.302719168 0.83120896
vn 0.754564429 0.647713966 0.105352458
vn 0.47410875 0.546438304 -0.690381107
vn 0.645498332 0.694456579 0.317902443
vn 0.115748716 0.686666144 -0.717698991
vn -0.452953078 0.25819219 -0.853328953
vn 0.0612156669 0.928169645 -0.367088207
vn -0.756780064 0.0634313015 -0.650584664
vn -0.982702694 -0.162491329 -0.0888368352
vn -0.795732241 0.0945930437 -0.598215978
vn -0.834684419 -0.536432234 0.124669078
vn -0.538647869 -0.302719168 0.786269406
vn -0.764098377 -0.645099737 -0
vn -0.133545221 -0.583174847 0.801294435
vn -0.156916528 -0.809097478 0.566337774
vn -0.164706963 0.912588774 0.374237018
vn -0.141335657 0.928169645 0.344275096
vn -0.164706963 0.912588774 0.374237018
vn -0.164706963 0.912588774 0.374237018
vn -0.141335657 0.928169645 0.344275096
vn -0.0790121726 0.967121823 0.241728062
vn 0.388413959 -0.692240945 -0.608224523
vn -0.437372207 -0.217024378 -0.872700391
vn 0.100167845 -0.894792269 -0.435101366
vn -0.304934803 -0.162491329 -0.938408938
vn 0.746773994 -0.54422267 -0.382296074
vn -0.351677416 0.858055726 -0.374250407
vn 0.123539151 -0.271557426 -0.954460393
vn -0.647713966 0.600971353 -0.468294833
vn 0.217024378 0.928169645 0.302326858
vn -0.608761789 0.281563496 -0.741708219
vn -0.156916528 0.889217468 0.429731891
vn 0.754564429 0.125754786 0.64406386
vn -0.772360935 0.608761789 0.181294433
vn 0.552013105 0.227030448 0.80233329
vn 0.629917461 -0.731193122 0.261840812
vn -0.0945930437 0.343886981 0.934234393
vn 0.731193122 -0.629917461 0.261840812
vn 0.100167845 -0.894792269 -0.435101366
vn 0.746773994 -0.302719168 0.592190601
vn 0.388413959 -0.692240945 -0.608224523
vn 0.746773994 -0.54422267 -0.382296074
vn 0.388413959 0.92037921 0.0451298857
vn 0.427366137 0.889217468 0.163249748
vn 0.388413959 0.912588774 0.127735373
vn 0.365042653 0.928169645 0.0724221747
vn 0.365042653 0.928169645 0.0724221747
vn 0.379416404 0.925226022 -0
vn 0.816887913 0.507486127 0.274138593
vn 0.684450509 0.569809611 0.454801614
vn 0.575384412 0.507486127 0.641397388
vn 0.723402687 0.678875708 0.125762972
vn 0.629917461 0.616552224 0.472300061
vn 0.902582704 0.289353932 0.318776982
vn 0.863630526 0.156916528 0.479081952
vn 0.988277495 0.0712217371 -0.135037244
vn 0.964906188 0.0945930437 -0.24496572
vn 0.676660074 0.0712217371 -0.732842827
vn 0.528641799 0.0322695594 -0.84823141
vn 0.957115753 0.219240012 -0.189375956
vn 0.816887913 0.234820883 0.526833266
vn 0.84025922 0.211449577 0.499252962
vn 0.941534882 0.250401754 -0.225413016
vn 0.450737443 0.149126092 -0.880112019
vn 0.419575701 0.25819219 -0.870225847
vn 0.40399483 0.0011078173 -0.914760597
vn 0.310509604 0.0868026081 -0.946598697
vn 0.310509604 0.180287834 -0.933316711
vn 0.419575701 0.375048723 -0.826616408
vn -0.0166886884 0.156916528 -0.987470856
vn 0.0612156669 -0.100167845 -0.993085618
vn -0.055640866 -0.201443506 -0.977918508
vn -0.593180918 0.297144367 -0.74822565
vn -0.600971353 0.336096545 -0.725170701
vn -0.600971353 0.211449577 -0.770793428
vn -0.608761789 0.32830611 -0.722235546
vn -0.608761789 0.367258287 -0.70322858
vn -0.616552224 0.336096545 -0.711970833
vn -0.632133095 0.304934803 -0.712335957
vn -0.62434266 0.351677416 -0.697509311
vn 0.0456347959 0.904798339 -0.423388039
vn 0.0144730538 0.889217468 -0.457255756
vn 0.0144730538 0.881427032 -0.47209842
vn 0.217024378 0.92037921 -0.325273008
vn 0.10795828 0.959331387 -0.260822351
vn 0.076796538 0.935960081 -0.343629188
vn -0.102383479 0.904798339 -0.413349234
vn 0.100167845 0.889217468 -0.446384025
vn -0.040059995 0.811313112 -0.583237714
vn 0.442947008 0.873636597 -0.201387798
vn 0.131329587 0.834684419 -0.534840593
vn 0.497480057 0.858055726 -0.12749104
vn 0.661079203 0.733408757 0.158385236
vn 0.769136122 0.639084991 -0
vn 0.575384412 0.795732241 -0.189058136
vn 0.629917461 0.663294837 -0.404034592
vn 0.723402687 0.437372207 -0.534222898
vn 0.731193122 0.616552224 -0.291924601
vn 0.738983558 0.468533949 -0.484127297
vn 0.450737443 0.733408757 -0.508868698
vn 0.61433659 0.764570499 -0.194993607
vn 0.396204395 0.858055726 0.326745236
vn 0.536432234 0.764570499 -0.357312762
vn 0.473707992 0.880681973 -0
vn 0.435156572 0.897007903 -0.0775601651
vn 0.33388091 0.912588774 0.236019632
vn 0.372833088 0.881427032 0.289968749
vn 0.481899186 0.585390482 -0.651990152
vn 0.139120022 0.530857433 -0.835964117
vn 0.100167845 0.935960081 0.337557595
vn 0.294928733 0.912588774 0.283193877
vn -0.00889825283 0.951540952 0.307393295
vn -0.0945930437 0.912588774 0.397786231
vn 0.1780722 0.842474854 0.508454925
vn 0.489689621 0.725618322 0.483406792
vn 0.622127025 0.733408757 0.273988248
vn 0.653288767 0.678875708 0.335173924
vn 0.692240945 0.717827886 0.0743343826
vn 0.707821816 0.694456579 -0.129299406
vn 0.583174847 0.655504402 -0.479813585
vn 0.575384412 0.678875708 -0.456136549
vn 0.170281764 0.616552224 -0.768679046
vn 0.606546154 0.600971353 -0.520514357
vn 0.435156572 0.55422874 -0.709555679
vn 0.310509604 0.538647869 -0.783225548
vn -0.055640866 0.569809611 -0.819890908
vn -0.367258287 0.671085273 -0.644023219
vn 0.0300539248 0.445162642 -0.89494524
vn -0.242611319 0.507486127 -0.8267996
vn -0.219240012 0.297144367 -0.929321818
vn -0.382839158 0.616552224 -0.68796623
vn -0.468533949 0.686666144 -0.555846692
vn -0.460743514 0.71003745 -0.532505618
vn -0.164706963 0.406210465 -0.898812925
vn 0.0144730538 0.48411482 -0.874884776
vn 0.0534252314 0.593180918 -0.803294556
vn 0.10795828 0.468533949 -0.876824354
vn -0.0244791239 0.577600046 -0.815952792
vn 0.185862635 0.593180918 -0.783320803
vn 0.0534252314 0.289353932 -0.955730112
vn 0.341671346 0.787941806 -0.51225814
vn -0.351677416 0.0945930437 -0.931329776
vn -0.406210465 0.312725238 -0.858601178
vn -0.367258287 0.671085273 -0.644023219
vn -0.0011078173 0.982702694 -0.1851869
vn 0.310509604 0.928169645 -0.205146035
vn 0.40399483 0.826893983 -0.391196265
vn 0.341671346 0.819103548 -0.46079287
vn 0.302719168 0.811313112 -0.500132121
vn 0.326090475 -0.723402687 -0.608566804
vn 0.793516607 -0.54422267 -0.272310633
vn 0.590965283 -0.427366137 -0.684191654
vn 0.519877918 -0.854240569 -0
vn -0.040059995 -0.824678349 -0.564181547
vn 0.894792269 -0.442947008 0.0560780203
vn 0.232605249 -0.964906188 0.121864048
vn -0.234820883 -0.832468784 -0.501851448
vn 0.0456347959 -0.988277495 0.145688223
vn 0.232605249 -0.754564429 0.613618221
vn 0.372833088 -0.684450509 0.626516551
vn 0.240395684 -0.318300039 0.917003272
vn 0.590965283 -0.661079203 0.462314095
vn 0.559803541 -0.349461782 0.751329794
vn 0.887001833 -0.154700893 0.435080891
vn 0.435156572 -0.0690061025 0.897706475
vn 0.871420962 0.141335657 0.46973369
vn 0.123539151 0.0322695594 0.991814879
vn -0.00889825283 -0.0144730538 0.999855665
vn 0.0144730538 0.211449577 0.977281744
vn 0.326090475 0.125754786 0.93693689
vn 0.00668261823 0.250401754 0.968118951
vn 0.54422267 0.133545221 0.828243539
vn -0.156916528 0.585390482 0.795421389
vn 0.61433659 0.390629594 0.685564786
vn -0.172497399 0.600971353 0.780434546
vn 0.824678349 0.421791336 0.376825809
vn -0.460743514 0.772360935 0.437234492
vn -0.390629594 0.811313112 0.43494776
vn 0.481899186 0.686666144 0.544300268
vn -0.468533949 0.881427032 0.0596852214
vn -0.71003745 0.702247015 0.0519225284
vn -0.491905256 0.865846161 0.0913216561
vn 0.629917461 0.702247015 0.331742555
vn 0.824678349 0.562019175 -0.0635615253
vn 0.302719168 0.928169645 0.216476823
vn -0.11796435 0.92037921 0.372808962
vn 0.70003138 0.663294837 -0.26456762
vn -0.600971353 0.717827886 -0.351506129
vn -0.78015137 0.530857433 -0.330989766
vn -0.608761789 0.515276562 -0.60324054
vn -0.515276562 0.406210465 -0.754641056
vn -0.538647869 0.842474854 -0.0097258942
vn 0.271557426 0.889217468 -0.368169607
vn 0.622127025 0.406210465 -0.669291434
vn -0.694456579 0.694456579 -0.188308573
vn -0.32830611 0.585390482 -0.741304986
vn 0.092377409 0.382839158 -0.919184744
vn -0.702247015 0.429581771 -0.567722319
vn -0.515276562 0.234820883 -0.824226436
vn 0.076796538 0.312725238 -0.946733974
vn 0.0144730538 0.203659141 -0.978934873
vn -0.593180918 0.149126092 -0.791137035
vn -0.429581771 -0.00668261823 -0.903003236
vn 0.076796538 0.0945930437 -0.992549469
vn 0.263766991 -0.162491329 -0.950801526
vn -0.281563496 -0.318300039 -0.905211071
vn -0.507486127 0.00889825283 -0.861613981
vn 0.326090475 -0.723402687 -0.608566804
vn 0.590965283 -0.427366137 -0.684191654
vn -0.040059995 -0.824678349 -0.564181547
vn -0.234820883 -0.832468784 -0.501851448
vn -0.452953078 -0.255976555 -0.853996202
vn -0.569809611 0.0790121726 -0.817969488
vn -0.530857433 0.772360935 -0.348782127
vn -0.71003745 0.702247015 0.0519225284
vn -0.819103548 0.55422874 0.147986086
vn -0.671085273 0.671085273 0.315101751
vn -0.873636597 0.351677416 0.336276809
vn -0.678875708 0.678875708 -0.279741926
vn -0.897007903 0.437372207 0.0638934602
vn -0.865846161 0.460743514 -0.195002154
vn -0.78015137 0.608761789 0.144128152
vn -0.491905256 0.647713966 0.581803951
vn -0.421791336 0.452953078 0.785446101
vn -0.764570499 0.546438304 -0.341814469
vn -0.476324385 0.359467852 0.802432517
vn -0.772360935 0.538647869 0.336625994
vn -0.819103548 0.530857433 -0.217393108
vn -0.842474854 0.499695691 -0.201346308
vn -0.78015137 0.515276562 0.354758938
vn -0.48411482 0.304934803 0.820150966
vn -0.273773061 0.460743514 0.844253354
vn -0.437372207 0.0634313015 0.897040703
vn -0.48411482 0.468533949 0.738991732
vn -0.632133095 0.133545221 0.763264976
vn -0.71003745 0.172497399 0.682708918
vn -0.530857433 0.336096545 0.777964972
vn -0.562019175 0.460743514 0.686913285
vn -0.819103548 0.515276562 0.252109981
vn -0.889217468 0.429581771 -0.157327038
vn -0.375048723 0.507486127 0.775755301
vn -0.686666144 0.491905256 0.535274534
vn -0.92037921 0.390629594 -0.0176247193
vn -0.11796435 0.655504402 0.74592117
vn -0.382839158 0.741199193 0.551414486
vn 0.115748716 0.819103548 0.56184661
vn -0.351677416 0.889217468 0.292600906
vn 0.0845869735 0.819103548 0.567375027
vn 0.154700893 0.834684419 0.528554211
vn 0.489689621 0.421791336 0.763083314
vn 0.263766991 0.616552224 0.741815563
vn 0.255976555 0.787941806 0.560021173
vn 0.0300539248 0.671085273 0.74077076
vn 0.131329587 0.803522677 0.580606448
vn 0.450737443 0.834684419 0.316445379
vn 0.458527879 0.787941806 0.410974324
vn 0.365042653 0.717827886 0.592846513
vn 0.442947008 0.476324385 0.759547911
vn 0.100167845 0.530857433 0.841520522
vn 0.536432234 0.375048723 0.756028382
vn 0.154700893 0.421791336 0.893397841
vn 0.590965283 0.320515674 0.740290306
vn 0.193653071 0.382839158 0.903289913
vn 0.590965283 0.289353932 0.753016824
vn -0.647713966 0.4140009 0.639585704
vn 0.193653071 0.367258287 0.909736137
vn 0.552013105 0.265982625 0.790275126
vn 0.076796538 0.336096545 0.938691325
vn 0.528641799 0.180287834 0.829478237
vn -0.678875708 0.351677416 0.644554705
vn -0.671085273 0.530857433 0.517527721
vn 0.0378443603 0.227030448 0.973152085
vn 0.435156572 0.11796435 0.892593507
vn -0.110173915 0.149126092 0.982661242
vn 0.263766991 0.0166886884 0.964442047
vn -0.180287834 0.125754786 0.975541916
vn -0.452953078 0.195868706 0.86975224
vn -0.460743514 0.234820883 0.8559057
vn -0.468533949 0.250401754 0.84721597
vn -0.756780064 0.359467852 0.545954942
vn -0.55422874 0.25819219 0.791307334
vn -0.756780064 0.4140009 0.505852933
vn -0.359467852 0.18807827 0.914007346
vn -0.055640866 0.156916528 0.986043253
vn -0.491905256 0.0011078173 0.87064803
vn 0.240395684 0.0945930437 0.966054901
vn -0.040059995 0.297144367 0.953991835
vn -0.0945930437 0.530857433 0.842165389
vn 0.0456347959 0.647713966 0.760515669
vn 0.10795828 0.772360935 0.625942167
vn -0.406210465 0.803522677 0.435137181
vn -0.85026529 0.476324385 0.223973251
vn -0.951540952 0.234820883 0.198567293
vn -0.951540952 0.102383479 0.289978344
vn -0.694456579 0.289353932 0.658790074
vn -0.632133095 0.250401754 0.733284877
vn 0.076796538 0.312725238 -0.946733974
vn 0.70003138 0.312725238 -0.6419961
vn 0.092377409 0.382839158 -0.919184744
vn 0.622127025 0.406210465 -0.669291434
vn 0.70003138 0.663294837 -0.26456762
vn 0.70003138 0.227030448 -0.677062215
vn 0.0144730538 0.203659141 -0.978934873
vn 0.076796538 0.0945930437 -0.992549469
vn 0.894792269 0.312725238 -0.31866867
vn 0.824678349 0.562019175 -0.0635615253
vn 0.824678349 0.421791336 0.376825809
vn 0.871420962 0.141335657 0.46973369
vn 0.972696624 0.055640866 -0.225311722
vn 0.887001833 -0.154700893 0.435080891
vn 0.894792269 -0.442947008 0.0560780203
vn 0.723402687 0.0790121726 -0.685890391
vn 0.263766991 -0.162491329 -0.950801526
vn 0.590965283 -0.427366137 -0.684191654
vn 0.855840091 -0.123539151 -0.502270661
vn 0.793516607 -0.54422267 -0.272310633
g O_env_massif_kushu_05_0
f 3/3/3 2/2/2 1/1/1
f 4/4/4 1/1/1 2/2/2
f 2/2/2 5/5/5 4/4/4
f 1/1/1 4/4/4 6/6/6
f 7/7/7 4/4/4 5/5/5
f 5/5/5 8/8/8 7/7/7
f 9/9/9 6/6/6 4/4/4
f 4/4/4 7/7/7 9/9/9
f 6/6/6 9/9/9 10/10/10
f 10/10/10 11/11/11 6/6/6
f 12/12/12 10/10/10 9/9/9
f 12/12/12 9/9/9 13/13/13
f 14/14/14 13/13/13 9/9/9
f 14/14/14 9/9/9 7/7/7
f 13/13/13 14/14/14 15/15/15
f 14/14/14 16/16/16 15/15/15
f 15/15/15 16/16/16 17/17/17
f 14/14/14 7/7/7 18/18/18
f 18/18/18 16/16/16 14/14/14
f 19/19/19 7/7/7 8/8/8
f 19/19/19 18/18/18 7/7/7
f 17/17/17 16/16/16 20/20/20
f 21/21/21 17/17/17 20/20/20
f 20/20/20 22/22/22 21/21/21
f 23/23/23 21/21/21 22/22/22
f 23/23/23 22/22/22 24/24/24
f 25/25/25 24/24/24 22/22/22
f 25/25/25 22/22/22 26/26/26
f 19/19/19 8/8/8 27/27/27
f 28/28/28 27/27/27 8/8/8
f 18/18/18 29/29/29 16/16/16
f 16/16/16 29/29/29 20/20/20
f 18/18/18 19/19/19 30/30/30
f 27/27/27 30/30/30 19/19/19
f 18/18/18 30/30/30 29/29/29
f 27/27/27 28/28/28 31/31/31
f 32/32/32 31/31/31 28/28/28
f 26/26/26 22/22/22 33/33/33
f 33/33/33 34/34/34 26/26/26
f 35/35/35 34/34/34 33/33/33
f 22/22/22 36/36/36 33/33/33
f 33/33/33 36/36/36 35/35/35
f 22/22/22 20/20/20 37/37/37
f 36/36/36 22/22/22 37/37/37
f 20/20/20 29/29/29 38/38/38
f 37/37/37 20/20/20 38/38/38
f 30/30/30 27/27/27 39/39/39
f 31/31/31 39/39/39 27/27/27
f 39/39/39 40/40/40 30/30/30
f 41/41/41 30/30/30 40/40/40
f 41/41/41 29/29/29 30/30/30
f 41/41/41 42/42/42 29/29/29
f 38/38/38 29/29/29 42/42/42
f 41/41/41 40/40/40 42/42/42
f 39/39/39 31/31/31 43/43/43
f 39/39/39 43/43/43 40/40/40
f 42/42/42 44/44/44 38/38/38
f 45/45/45 42/42/42 40/40/40
f 38/38/38 44/44/44 46/46/46
f 38/38/38 46/46/46 37/37/37
f 47/47/47 46/46/46 44/44/44
f 44/44/44 48/48/48 47/47/47
f 49/49/49 47/47/47 48/48/48
f 49/49/49 50/50/50 47/47/47
f 51/51/51 47/47/47 50/50/50
f 47/47/47 51/51/51 52/52/52
f 53/53/53 52/52/52 51/51/51
f 52/52/52 53/53/53 54/54/54
f 55/55/55 54/54/54 53/53/53
f 54/54/54 56/56/56 52/52/52
f 52/52/52 57/57/57 47/47/47
f 57/57/57 52/52/52 56/56/56
f 46/46/46 47/47/47 57/57/57
f 56/56/56 58/58/58 57/57/57
f 59/59/59 57/57/57 58/58/58
f 57/57/57 59/59/59 46/46/46
f 58/58/58 60/60/60 59/59/59
f 61/61/61 46/46/46 59/59/59
f 61/61/61 37/37/37 46/46/46
f 62/62/62 59/59/59 60/60/60
f 59/59/59 62/62/62 61/61/61
f 60/60/60 63/63/63 62/62/62
f 61/61/61 64/64/64 37/37/37
f 64/64/64 61/61/61 62/62/62
f 36/36/36 37/37/37 64/64/64
f 65/65/65 62/62/62 63/63/63
f 62/62/62 65/65/65 64/64/64
f 66/66/66 64/64/64 65/65/65
f 63/63/63 67/67/67 65/65/65
f 68/68/68 65/65/65 67/67/67
f 65/65/65 68/68/68 66/66/66
f 69/69/69 66/66/66 68/68/68
f 66/66/66 69/69/69 70/70/70
f 71/71/71 66/66/66 70/70/70
f 72/72/72 36/36/36 64/64/64
f 66/66/66 72/72/72 64/64/64
f 35/35/35 36/36/36 72/72/72
f 73/73/73 66/66/66 71/71/71
f 73/73/73 72/72/72 66/66/66
f 72/72/72 73/73/73 35/35/35
f 71/71/71 74/74/74 73/73/73
f 75/75/75 35/35/35 73/73/73
f 73/73/73 74/74/74 75/75/75
f 78/78/78 77/77/77 76/76/76
f 76/76/76 77/77/77 79/79/79
f 79/79/79 77/77/77 80/80/80
f 80/80/80 77/77/77 81/81/81
f 84/84/84 83/83/83 82/82/82
f 85/85/85 82/82/82 83/83/83
f 85/85/85 86/86/86 82/82/82
f 87/87/87 82/82/82 86/86/86
f 85/85/85 83/83/83 88/88/88
f 85/85/85 88/88/88 86/86/86
f 89/89/89 88/88/88 83/83/83
f 90/90/90 89/89/89 83/83/83
f 91/91/91 86/86/86 88/88/88
f 92/92/92 86/86/86 91/91/91
f 86/86/86 93/93/93 87/87/87
f 92/92/92 93/93/93 86/86/86
f 94/94/94 93/93/93 92/92/92
f 95/95/95 87/87/87 93/93/93
f 96/96/96 93/93/93 94/94/94
f 93/93/93 97/97/97 95/95/95
f 97/97/97 93/93/93 96/96/96
f 98/98/98 95/95/95 97/97/97
f 96/96/96 99/99/99 97/97/97
f 98/98/98 97/97/97 100/100/100
f 101/101/101 97/97/97 99/99/99
f 101/101/101 100/100/100 97/97/97
f 101/101/101 99/99/99 102/102/102
f 102/102/102 100/100/100 101/101/101
f 103/103/103 102/102/102 99/99/99
f 104/104/104 100/100/100 102/102/102
f 103/103/103 105/105/105 102/102/102
f 104/104/104 102/102/102 106/106/106
f 102/102/102 105/105/105 107/107/107
f 107/107/107 106/106/106 102/102/102
f 108/108/108 107/107/107 105/105/105
f 106/106/106 107/107/107 109/109/109
f 110/110/110 107/107/107 108/108/108
f 110/110/110 109/109/109 107/107/107
f 113/113/113 112/112/112 111/111/111
f 114/114/114 111/111/111 112/112/112
f 114/114/114 112/112/112 115/115/115
f 116/116/116 115/115/115 112/112/112
f 115/115/115 117/117/117 114/114/114
f 114/114/114 118/118/118 111/111/111
f 118/118/118 114/114/114 117/117/117
f 117/117/117 119/119/119 118/118/118
f 117/117/117 120/120/120 119/119/119
f 121/121/121 120/120/120 117/117/117
f 121/121/121 122/122/122 120/120/120
f 123/123/123 111/111/111 118/118/118
f 124/124/124 120/120/120 122/122/122
f 118/118/118 125/125/125 123/123/123
f 125/125/125 118/118/118 119/119/119
f 126/126/126 123/123/123 125/125/125
f 126/126/126 125/125/125 127/127/127
f 128/128/128 127/127/127 125/125/125
f 125/125/125 119/119/119 128/128/128
f 128/128/128 129/129/129 127/127/127
f 130/130/130 127/127/127 129/129/129
f 120/120/120 124/124/124 131/131/131
f 132/132/132 131/131/131 124/124/124
f 131/131/131 132/132/132 133/133/133
f 134/134/134 133/133/133 132/132/132
f 133/133/133 135/135/135 131/131/131
f 136/136/136 131/131/131 135/135/135
f 131/131/131 136/136/136 120/120/120
f 135/135/135 137/137/137 136/136/136
f 138/138/138 120/120/120 136/136/136
f 120/120/120 138/138/138 119/119/119
f 139/139/139 136/136/136 137/137/137
f 136/136/136 139/139/139 138/138/138
f 137/137/137 140/140/140 139/139/139
f 138/138/138 141/141/141 119/119/119
f 141/141/141 138/138/138 139/139/139
f 142/142/142 139/139/139 140/140/140
f 139/139/139 142/142/142 141/141/141
f 140/140/140 143/143/143 142/142/142
f 144/144/144 142/142/142 143/143/143
f 143/143/143 145/145/145 144/144/144
f 146/146/146 144/144/144 145/145/145
f 142/142/142 144/144/144 147/147/147
f 147/147/147 141/141/141 142/142/142
f 144/144/144 146/146/146 148/148/148
f 148/148/148 147/147/147 144/144/144
f 149/149/149 148/148/148 146/146/146
f 150/150/150 119/119/119 141/141/141
f 150/150/150 128/128/128 119/119/119
f 128/128/128 150/150/150 129/129/129
f 147/147/147 151/151/151 141/141/141
f 150/150/150 141/141/141 151/151/151
f 151/151/151 129/129/129 150/150/150
f 147/147/147 148/148/148 151/151/151
f 152/152/152 148/148/148 149/149/149
f 153/153/153 152/152/152 149/149/149
f 129/129/129 151/151/151 154/154/154
f 129/129/129 154/154/154 130/130/130
f 155/155/155 130/130/130 154/154/154
f 155/155/155 154/154/154 156/156/156
f 157/157/157 151/151/151 148/148/148
f 157/157/157 148/148/148 152/152/152
f 157/157/157 154/154/154 151/151/151
f 158/158/158 156/156/156 154/154/154
f 154/154/154 157/157/157 158/158/158
f 152/152/152 158/158/158 157/157/157
f 156/156/156 158/158/158 159/159/159
f 152/152/152 160/160/160 158/158/158
f 161/161/161 159/159/159 158/158/158
f 161/161/161 158/158/158 160/160/160
f 164/164/164 163/163/163 162/162/162
f 163/163/163 165/165/165 162/162/162
f 165/165/165 166/166/166 162/162/162
f 166/166/166 167/167/167 162/162/162
f 170/170/170 169/169/169 168/168/168
f 168/168/168 169/169/169 171/171/171
f 171/171/171 169/169/169 172/172/172
f 172/172/172 169/169/169 173/173/173
f 176/176/176 175/175/175 174/174/174
f 174/174/174 177/177/177 176/176/176
f 176/176/176 177/177/177 178/178/178
f 179/179/179 178/178/178 177/177/177
f 180/180/180 177/177/177 174/174/174
f 179/179/179 177/177/177 181/181/181
f 182/182/182 181/181/181 177/177/177
f 180/180/180 183/183/183 177/177/177
f 182/182/182 177/177/177 183/183/183
f 183/183/183 184/184/184 182/182/182
f 182/182/182 185/185/185 181/181/181
f 185/185/185 182/182/182 184/184/184
f 186/186/186 181/181/181 185/185/185
f 185/185/185 187/187/187 186/186/186
f 185/185/185 184/184/184 187/187/187
f 188/188/188 186/186/186 187/187/187
f 188/188/188 187/187/187 189/189/189
f 190/190/190 189/189/189 187/187/187
f 189/189/189 190/190/190 191/191/191
f 192/192/192 191/191/191 190/190/190
f 192/192/192 190/190/190 193/193/193
f 194/194/194 193/193/193 190/190/190
f 187/187/187 195/195/195 190/190/190
f 195/195/195 187/187/187 184/184/184
f 194/194/194 190/190/190 195/195/195
f 195/195/195 196/196/196 194/194/194
f 194/194/194 196/196/196 197/197/197
f 198/198/198 196/196/196 195/195/195
f 195/195/195 184/184/184 198/198/198
f 197/197/197 199/199/199 194/194/194
f 197/197/197 200/200/200 199/199/199
f 201/201/201 199/199/199 200/200/200
f 198/198/198 184/184/184 202/202/202
f 202/202/202 184/184/184 203/203/203
f 183/183/183 203/203/203 184/184/184
f 203/203/203 183/183/183 204/204/204
f 180/180/180 204/204/204 183/183/183
f 204/204/204 180/180/180 205/205/205
f 206/206/206 205/205/205 180/180/180
f 209/209/209 208/208/208 207/207/207
f 210/210/210 207/207/207 208/208/208
f 208/208/208 211/211/211 210/210/210
f 207/207/207 210/210/210 212/212/212
f 213/213/213 210/210/210 211/211/211
f 214/214/214 212/212/212 210/210/210
f 210/210/210 213/213/213 214/214/214
f 212/212/212 214/214/214 215/215/215
f 216/216/216 214/214/214 213/213/213
f 217/217/217 215/215/215 214/214/214
f 214/214/214 216/216/216 217/217/217
f 215/215/215 217/217/217 218/218/218
f 219/219/219 217/217/217 216/216/216
f 220/220/220 218/218/218 217/217/217
f 217/217/217 219/219/219 220/220/220
f 218/218/218 220/220/220 221/221/221
f 222/222/222 220/220/220 219/219/219
f 223/223/223 221/221/221 220/220/220
f 220/220/220 222/222/222 223/223/223
f 221/221/221 223/223/223 224/224/224
f 225/225/225 223/223/223 222/222/222
f 226/226/226 224/224/224 223/223/223
f 223/223/223 225/225/225 226/226/226
f 227/227/227 226/226/226 225/225/225
f 230/230/230 229/229/229 228/228/228
f 228/228/228 229/229/229 231/231/231
f 231/231/231 229/229/229 232/232/232
f 232/232/232 229/229/229 233/233/233
f 236/236/236 235/235/235 234/234/234
f 237/237/237 234/234/234 235/235/235
f 234/234/234 237/237/237 238/238/238
f 235/235/235 239/239/239 237/237/237
f 240/240/240 238/238/238 237/237/237
f 241/241/241 237/237/237 239/239/239
f 237/237/237 241/241/241 240/240/240
f 239/239/239 242/242/242 241/241/241
f 243/243/243 240/240/240 241/241/241
f 244/244/244 241/241/241 242/242/242
f 241/241/241 244/244/244 243/243/243
f 242/242/242 245/245/245 244/244/244
f 246/246/246 243/243/243 244/244/244
f 247/247/247 244/244/244 245/245/245
f 244/244/244 247/247/247 246/246/246
f 245/245/245 248/248/248 247/247/247
f 249/249/249 246/246/246 247/247/247
f 250/250/250 247/247/247 248/248/248
f 247/247/247 250/250/250 249/249/249
f 248/248/248 251/251/251 250/250/250
f 252/252/252 249/249/249 250/250/250
f 253/253/253 250/250/250 251/251/251
f 250/250/250 253/253/253 252/252/252
f 254/254/254 252/252/252 253/253/253
f 257/257/257 256/256/256 255/255/255
f 258/258/258 257/257/257 255/255/255
f 259/259/259 258/258/258 255/255/255
f 260/260/260 259/259/259 255/255/255
f 45/45/45 262/262/262 261/261/261
f 45/45/45 40/40/40 262/262/262
f 263/263/263 262/262/262 40/40/40
f 262/262/262 263/263/263 264/264/264
f 263/263/263 265/265/265 264/264/264
f 265/265/265 263/263/263 266/266/266
f 40/40/40 267/267/267 263/263/263
f 267/267/267 266/266/266 263/263/263
f 267/267/267 40/40/40 43/43/43
f 268/268/268 266/266/266 267/267/267
f 268/268/268 267/267/267 269/269/269
f 43/43/43 269/269/269 267/267/267
f 270/270/270 268/268/268 269/269/269
f 271/271/271 268/268/268 270/270/270
f 269/269/269 43/43/43 272/272/272
f 273/273/273 272/272/272 43/43/43
f 273/273/273 43/43/43 31/31/31
f 31/31/31 32/32/32 273/273/273
f 274/274/274 273/273/273 32/32/32
f 273/273/273 274/274/274 272/272/272
f 275/275/275 272/272/272 274/274/274
f 272/272/272 275/275/275 276/276/276
f 272/272/272 276/276/276 269/269/269
f 277/277/277 276/276/276 275/275/275
f 278/278/278 269/269/269 276/276/276
f 269/269/269 278/278/278 270/270/270
f 278/278/278 279/279/279 270/270/270
f 280/280/280 270/270/270 279/279/279
f 270/270/270 280/280/280 271/271/271
f 280/280/280 279/279/279 281/281/281
f 280/280/280 281/281/281 282/282/282
f 280/280/280 282/282/282 271/271/271
f 271/271/271 282/282/282 283/283/283
f 271/271/271 283/283/283 284/284/284
f 287/287/287 286/286/286 285/285/285
f 286/286/286 288/288/288 285/285/285
f 289/289/289 288/288/288 286/286/286
f 290/290/290 288/288/288 289/289/289
f 291/291/291 288/288/288 290/290/290
f 292/292/292 291/291/291 290/290/290
f 295/295/295 294/294/294 293/293/293
f 293/293/293 294/294/294 296/296/296
f 293/293/293 296/296/296 297/297/297
f 298/298/298 293/293/293 297/297/297
f 297/297/297 299/299/299 298/298/298
f 298/298/298 299/299/299 300/300/300
f 300/300/300 299/299/299 301/301/301
f 300/300/300 301/301/301 302/302/302
f 303/303/303 300/300/300 302/302/302
f 304/304/304 303/303/303 302/302/302
f 304/304/304 302/302/302 305/305/305
f 305/305/305 302/302/302 306/306/306
f 302/302/302 307/307/307 306/306/306
f 302/302/302 301/301/301 307/307/307
f 306/306/306 307/307/307 308/308/308
f 306/306/306 308/308/308 309/309/309
f 309/309/309 308/308/308 310/310/310
f 311/311/311 309/309/309 310/310/310
f 307/307/307 312/312/312 308/308/308
f 307/307/307 301/301/301 312/312/312
f 310/310/310 313/313/313 311/311/311
f 313/313/313 310/310/310 314/314/314
f 311/311/311 313/313/313 315/315/315
f 315/315/315 313/313/313 316/316/316
f 316/316/316 313/313/313 314/314/314
f 317/317/317 315/315/315 316/316/316
f 317/317/317 316/316/316 318/318/318
f 318/318/318 316/316/316 319/319/319
f 316/316/316 314/314/314 319/319/319
f 308/308/308 312/312/312 320/320/320
f 308/308/308 320/320/320 310/310/310
f 312/312/312 321/321/321 320/320/320
f 314/314/314 322/322/322 319/319/319
f 319/319/319 322/322/322 323/323/323
f 323/323/323 322/322/322 324/324/324
f 324/324/324 322/322/322 325/325/325
f 325/325/325 322/322/322 326/326/326
f 322/322/322 314/314/314 326/326/326
f 327/327/327 326/326/326 314/314/314
f 328/328/328 327/327/327 314/314/314
f 314/314/314 310/310/310 328/328/328
f 329/329/329 327/327/327 328/328/328
f 330/330/330 329/329/329 328/328/328
f 328/328/328 310/310/310 330/330/330
f 330/330/330 331/331/331 329/329/329
f 332/332/332 331/331/331 330/330/330
f 331/331/331 332/332/332 333/333/333
f 332/332/332 334/334/334 333/333/333
f 310/310/310 335/335/335 330/330/330
f 335/335/335 332/332/332 330/330/330
f 310/310/310 320/320/320 335/335/335
f 335/335/335 320/320/320 332/332/332
f 320/320/320 336/336/336 332/332/332
f 321/321/321 336/336/336 320/320/320
f 332/332/332 337/337/337 334/334/334
f 336/336/336 337/337/337 332/332/332
f 337/337/337 338/338/338 334/334/334
f 338/338/338 339/339/339 334/334/334
f 336/336/336 340/340/340 337/337/337
f 337/337/337 340/340/340 338/338/338
f 321/321/321 340/340/340 336/336/336
f 340/340/340 341/341/341 338/338/338
f 341/341/341 339/339/339 338/338/338
f 342/342/342 341/341/341 340/340/340
f 342/342/342 340/340/340 321/321/321
f 343/343/343 339/339/339 341/341/341
f 343/343/343 344/344/344 339/339/339
f 344/344/344 345/345/345 339/339/339
f 321/321/321 346/346/346 342/342/342
f 347/347/347 346/346/346 321/321/321
f 348/348/348 346/346/346 347/347/347
f 349/349/349 347/347/347 321/321/321
f 349/349/349 321/321/321 312/312/312
f 350/350/350 349/349/349 312/312/312
f 301/301/301 350/350/350 312/312/312
f 351/351/351 348/348/348 347/347/347
f 352/352/352 351/351/351 347/347/347
f 352/352/352 347/347/347 349/349/349
f 351/351/351 353/353/353 348/348/348
f 354/354/354 352/352/352 349/349/349
f 350/350/350 354/354/354 349/349/349
f 355/355/355 354/354/354 350/350/350
f 301/301/301 355/355/355 350/350/350
f 356/356/356 355/355/355 301/301/301
f 299/299/299 356/356/356 301/301/301
f 356/356/356 299/299/299 357/357/357
f 357/357/357 299/299/299 297/297/297
f 297/297/297 358/358/358 357/357/357
f 296/296/296 358/358/358 297/297/297
f 359/359/359 358/358/358 296/296/296
f 348/348/348 353/353/353 360/360/360
f 360/360/360 359/359/359 296/296/296
f 353/353/353 361/361/361 360/360/360
f 361/361/361 359/359/359 360/360/360
f 364/364/364 363/363/363 362/362/362
f 363/363/363 365/365/365 362/362/362
f 362/362/362 365/365/365 366/366/366
f 363/363/363 367/367/367 365/365/365
f 365/365/365 368/368/368 366/366/366
f 366/366/366 368/368/368 369/369/369
f 369/369/369 368/368/368 370/370/370
f 370/370/370 368/368/368 371/371/371
f 368/368/368 372/372/372 371/371/371
f 372/372/372 368/368/368 365/365/365
f 371/371/371 372/372/372 373/373/373
f 367/367/367 374/374/374 365/365/365
f 374/374/374 372/372/372 365/365/365
f 367/367/367 375/375/375 374/374/374
f 374/374/374 375/375/375 372/372/372
f 372/372/372 375/375/375 373/373/373
f 376/376/376 375/375/375 367/367/367
f 376/376/376 377/377/377 375/375/375
f 375/375/375 377/377/377 373/373/373
f 378/378/378 377/377/377 376/376/376
f 377/377/377 379/379/379 373/373/373
f 373/373/373 379/379/379 380/380/380
f 380/380/380 379/379/379 381/381/381
f 382/382/382 379/379/379 377/377/377
f 379/379/379 383/383/383 381/381/381
f 384/384/384 382/382/382 377/377/377
f 384/384/384 377/377/377 378/378/378
f 381/381/381 383/383/383 385/385/385
f 386/386/386 384/384/384 378/378/378
f 383/383/383 387/387/387 385/385/385
f 388/388/388 386/386/386 378/378/378
f 385/385/385 387/387/387 389/389/389
f 387/387/387 390/390/390 389/389/389
f 391/391/391 386/386/386 388/388/388
f 390/390/390 392/392/392 389/389/389
f 392/392/392 393/393/393 389/389/389
f 394/394/394 392/392/392 390/390/390
f 395/395/395 391/391/391 388/388/388
f 396/396/396 395/395/395 388/388/388
f 395/395/395 397/397/397 391/391/391
f 397/397/397 395/395/395 396/396/396
f 397/397/397 398/398/398 391/391/391
f 399/399/399 397/397/397 396/396/396
f 392/392/392 400/400/400 393/393/393
f 400/400/400 401/401/401 393/393/393
f 401/401/401 400/400/400 402/402/402
f 400/400/400 403/403/403 402/402/402
f 404/404/404 394/394/394 398/398/398
f 397/397/397 404/404/404 398/398/398
f 399/399/399 405/405/405 397/397/397
f 405/405/405 404/404/404 397/397/397
f 406/406/406 405/405/405 399/399/399
f 392/392/392 394/394/394 407/407/407
f 400/400/400 392/392/392 407/407/407
f 407/407/407 394/394/394 404/404/404
f 405/405/405 408/408/408 404/404/404
f 406/406/406 408/408/408 405/405/405
f 404/404/404 408/408/408 407/407/407
f 409/409/409 408/408/408 406/406/406
f 407/407/407 410/410/410 400/400/400
f 408/408/408 410/410/410 407/407/407
f 410/410/410 403/403/403 400/400/400
f 408/408/408 409/409/409 410/410/410
f 409/409/409 403/403/403 410/410/410
f 411/411/411 403/403/403 409/409/409
f 412/412/412 411/411/411 409/409/409
f 413/413/413 411/411/411 412/412/412
f 414/414/414 411/411/411 413/413/413
f 413/413/413 415/415/415 414/414/414
f 416/416/416 415/415/415 413/413/413
f 415/415/415 416/416/416 417/417/417
f 418/418/418 415/415/415 417/417/417
f 415/415/415 418/418/418 419/419/419
f 417/417/417 420/420/420 418/418/418
f 421/421/421 420/420/420 417/417/417
f 420/420/420 422/422/422 418/418/418
f 418/418/418 422/422/422 423/423/423
f 424/424/424 418/418/418 423/423/423
f 419/419/419 418/418/418 424/424/424
f 425/425/425 419/419/419 424/424/424
f 428/428/428 427/427/427 426/426/426
f 427/427/427 429/429/429 426/426/426
f 430/430/430 427/427/427 428/428/428
f 426/426/426 429/429/429 431/431/431
f 432/432/432 427/427/427 430/430/430
f 433/433/433 427/427/427 432/432/432
f 434/434/434 427/427/427 433/433/433
f 435/435/435 427/427/427 434/434/434
f 435/435/435 429/429/429 427/427/427
f 436/436/436 429/429/429 435/435/435
f 431/431/431 429/429/429 437/437/437
f 436/436/436 438/438/438 429/429/429
f 429/429/429 439/439/439 437/437/437
f 438/438/438 439/439/439 429/429/429
f 437/437/437 439/439/439 440/440/440
f 440/440/440 439/439/439 441/441/441
f 442/442/442 439/439/439 438/438/438
f 439/439/439 442/442/442 441/441/441
f 443/443/443 442/442/442 438/438/438
f 443/443/443 444/444/444 442/442/442
f 445/445/445 444/444/444 443/443/443
f 446/446/446 444/444/444 445/445/445
f 447/447/447 446/446/446 445/445/445
f 448/448/448 446/446/446 447/447/447
f 449/449/449 446/446/446 448/448/448
f 450/450/450 449/449/449 448/448/448
f 442/442/442 451/451/451 441/441/441
f 451/451/451 452/452/452 441/441/441
f 453/453/453 451/451/451 442/442/442
f 444/444/444 453/453/453 442/442/442
f 454/454/454 452/452/452 451/451/451
f 454/454/454 451/451/451 453/453/453
f 452/452/452 454/454/454 455/455/455
f 450/450/450 456/456/456 449/449/449
f 457/457/457 456/456/456 450/450/450
f 458/458/458 456/456/456 457/457/457
f 459/459/459 458/458/458 457/457/457
f 460/460/460 458/458/458 459/459/459
f 461/461/461 460/460/460 459/459/459
f 462/462/462 460/460/460 461/461/461
f 462/462/462 463/463/463 460/460/460
f 463/463/463 458/458/458 460/460/460
f 458/458/458 463/463/463 464/464/464
f 464/464/464 463/463/463 465/465/465
f 464/464/464 465/465/465 466/466/466
f 467/467/467 464/464/464 466/466/466
f 467/467/467 468/468/468 464/464/464
f 464/464/464 468/468/468 458/458/458
f 468/468/468 469/469/469 458/458/458
f 469/469/469 456/456/456 458/458/458
f 469/469/469 470/470/470 456/456/456
f 470/470/470 471/471/471 456/456/456
f 470/470/470 472/472/472 471/471/471
f 456/456/456 471/471/471 449/449/449
f 472/472/472 473/473/473 471/471/471
f 471/471/471 473/473/473 449/449/449
f 472/472/472 474/474/474 473/473/473
f 474/474/474 475/475/475 473/473/473
f 474/474/474 476/476/476 475/475/475
f 473/473/473 477/477/477 449/449/449
f 477/477/477 473/473/473 475/475/475
f 476/476/476 478/478/478 475/475/475
f 476/476/476 479/479/479 478/478/478
f 478/478/478 479/479/479 480/480/480
f 480/480/480 479/479/479 481/481/481
f 475/475/475 478/478/478 482/482/482
f 482/482/482 477/477/477 475/475/475
f 477/477/477 483/483/483 449/449/449
f 483/483/483 446/446/446 449/449/449
f 481/481/481 484/484/484 480/480/480
f 481/481/481 485/485/485 484/484/484
f 485/485/485 486/486/486 484/484/484
f 487/487/487 486/486/486 485/485/485
f 486/486/486 487/487/487 488/488/488
f 486/486/486 488/488/488 489/489/489
f 490/490/490 486/486/486 489/489/489
f 484/484/484 486/486/486 491/491/491
f 491/491/491 486/486/486 490/490/490
f 480/480/480 484/484/484 491/491/491
f 491/491/491 490/490/490 492/492/492
f 492/492/492 490/490/490 455/455/455
f 493/493/493 480/480/480 491/491/491
f 493/493/493 491/491/491 492/492/492
f 494/494/494 492/492/492 455/455/455
f 454/454/454 494/494/494 455/455/455
f 494/494/494 495/495/495 492/492/492
f 495/495/495 493/493/493 492/492/492
f 454/454/454 496/496/496 494/494/494
f 496/496/496 495/495/495 494/494/494
f 493/493/493 495/495/495 497/497/497
f 497/497/497 495/495/495 496/496/496
f 497/497/497 496/496/496 498/498/498
f 498/498/498 496/496/496 499/499/499
f 499/499/499 496/496/496 454/454/454
f 499/499/499 454/454/454 453/453/453
f 500/500/500 499/499/499 453/453/453
f 500/500/500 453/453/453 444/444/444
f 501/501/501 500/500/500 444/444/444
f 444/444/444 502/502/502 501/501/501
f 446/446/446 502/502/502 444/444/444
f 503/503/503 502/502/502 446/446/446
f 503/503/503 446/446/446 483/483/483
f 504/504/504 503/503/503 483/483/483
f 504/504/504 483/483/483 477/477/477
f 505/505/505 504/504/504 477/477/477
f 482/482/482 505/505/505 477/477/477
f 505/505/505 482/482/482 506/506/506
f 482/482/482 507/507/507 506/506/506
f 478/478/478 507/507/507 482/482/482
f 478/478/478 480/480/480 507/507/507
f 506/506/506 507/507/507 508/508/508
f 507/507/507 480/480/480 508/508/508
f 506/506/506 508/508/508 497/497/497
f 508/508/508 480/480/480 493/493/493
f 497/497/497 508/508/508 493/493/493
f 511/511/511 510/510/510 509/509/509
f 512/512/512 510/510/510 511/511/511
f 513/513/513 510/510/510 512/512/512
f 510/510/510 514/514/514 509/509/509
f 509/509/509 514/514/514 515/515/515
f 515/515/515 514/514/514 516/516/516
f 517/517/517 510/510/510 513/513/513
f 517/517/517 514/514/514 510/510/510
f 518/518/518 517/517/517 513/513/513
f 519/519/519 517/517/517 518/518/518
f 520/520/520 517/517/517 519/519/519
f 521/521/521 517/517/517 520/520/520
f 521/521/521 514/514/514 517/517/517
f 522/522/522 521/521/521 520/520/520
f 523/523/523 521/521/521 522/522/522
f 514/514/514 524/524/524 516/516/516
f 524/524/524 514/514/514 521/521/521
f 516/516/516 524/524/524 525/525/525
f 525/525/525 524/524/524 526/526/526
f 527/527/527 521/521/521 523/523/523
f 527/527/527 524/524/524 521/521/521
f 524/524/524 527/527/527 526/526/526
f 528/528/528 527/527/527 523/523/523
f 526/526/526 527/527/527 528/528/528
