g A_Hero_Monica_motorcycle_02_lod
v 0.173136577 0.0294881426 0.516474009
v 0.25361526 0.105163112 0.501105189
v 0.25361526 -0.0358968712 0.501105189
v 0.334092945 0.0294881426 0.485736519
v 0.25361526 0.105163112 0.501105189
v 0.173136577 0.0294881426 0.516474009
v 0.179895431 0.0348141864 0.369238734
v 0.227519795 0.0795441791 0.360144049
v 0.334092945 0.0294881426 0.485736519
v 0.271455824 0.0310591888 0.351753682
v 0.162736505 0.0858192444 0.011828308
v 0.104113869 0.0341482535 0.0230233762
v 0.21612671 0.0322832465 0.00163238519
v 0.25361526 -0.0358968712 0.501105189
v 0.334092945 0.0294881426 0.485736519
v 0.271455824 0.0310591888 0.351753682
v 0.22383146 -0.0136708068 0.360848367
v 0.173136577 0.0294881426 0.516474009
v 0.21612671 0.0322832465 0.00163238519
v 0.179895431 0.0348141864 0.369238734
v 0.160904616 -0.0193877406 0.0121780392
v 0.104113869 0.0341482535 0.0230233762
v 0.0885531381 0.122930296 -0.345567465
v 0.16573219 0.128591225 0.0216935724
v 0.066830419 0.0419142134 0.0405805968
v 0.0549158119 0.0341600031 -0.124983363
v 0.0756129324 -0.0589067079 -0.343096316
v 0.157778934 -0.0627657697 0.0232122801
v 0.256000936 0.0388822183 0.00445510866
v 0.157778934 -0.0627657697 0.0232122801
v 0.16573219 0.128591225 0.0216935724
v 0.066830419 0.0419142134 0.0405805968
v 0.0405287035 -0.273896694 -0.332959294
v 0.145956308 -0.18449074 -0.193847954
v 0.117392592 -0.231045693 -0.343437344
v 0.0750064701 -0.217706755 -0.152416915
v -0.034729667 -0.227900714 -0.314079344
v -0.00659692334 -0.182052761 -0.166762456
v 0.159980029 -0.04388275 -0.120412976
v 0.0919320583 -0.0480107479 -0.0637866184
v 0.00721406378 -0.0435797498 -0.0944415256
v 0.0813906863 0.135784298 -0.118986048
v -0.00138543663 0.106393278 -0.139472574
v 0.151247904 0.108402252 -0.166138753
v -0.0273568202 0.180027306 -0.275482088
v 0.0495607778 0.226023257 -0.285662979
v 0.124877162 0.1831723 -0.304244518
v 0.0963076204 0.136614308 -0.453832775
v 0.0150843859 0.169832304 -0.466198504
v -0.0554915741 0.134175256 -0.422798693
v -0.0693036243 -0.00429065712 -0.495125562
v -0.00184253266 0.000137329102 -0.554835737
v 0.082285367 -0.00398868555 -0.527276158
v -0.0607030243 -0.154270664 -0.450088501
v 0.0086976476 -0.183661684 -0.499642164
v 0.0910185799 -0.156280667 -0.481544554
v 0.117392592 -0.231045693 -0.343437344
v 0.0405287035 -0.273896694 -0.332959294
v -0.034729667 -0.227900714 -0.314079344
v 0.151247904 0.108402252 -0.166138753
v 0.124877162 0.1831723 -0.304244518
v 0.0963076204 0.136614308 -0.453832775
v 0.159980029 -0.04388275 -0.120412976
v 0.082285367 -0.00398868555 -0.527276158
v 0.0910185799 -0.156280667 -0.481544554
v 0.145956308 -0.18449074 -0.193847954
v 0.117392592 -0.231045693 -0.343437344
v -0.00659692334 -0.182052761 -0.166762456
v -0.034729667 -0.227900714 -0.314079344
v -0.0607030243 -0.154270664 -0.450088501
v -0.0693036243 -0.00429065712 -0.495125562
v 0.00721406378 -0.0435797498 -0.0944415256
v -0.00138543663 0.106393278 -0.139472574
v -0.0554915741 0.134175256 -0.422798693
v -0.0273568202 0.180027306 -0.275482088
v -0.0514996275 0.0807693452 -0.454273432
v 0.000177406706 0.0448586643 -0.496385038
v -0.0126798581 0.128241494 -0.582205653
v -0.0635548905 0.163589552 -0.540753841
v -0.0423430465 0.216898337 -0.493167251
v -0.0299539417 0.134922251 -0.405934453
v 0.0297402423 0.234852284 -0.487036109
v 0.043270763 0.153164744 -0.399702519
v 0.0806148723 0.199503779 -0.528488994
v 0.094947353 0.117254026 -0.441812426
v 0.0734015331 0.0631003901 -0.490151882
v 0.0594046041 0.146195367 -0.576073349
v -0.0126798581 0.128241494 -0.582205653
v 0.000177406706 0.0448586643 -0.496385038
v -0.0423430465 0.216898337 -0.493167251
v -0.0635548905 0.163589552 -0.540753841
v 0.0297402423 0.234852284 -0.487036109
v 0.0806148723 0.199503779 -0.528488994
v 0.0594046041 0.146195367 -0.576073349
v -0.0126798581 0.128241494 -0.582205653
v -0.156655952 0.0716151819 0.582205653
v -0.238588959 0.00623016339 0.582205653
v -0.238588959 0.147290155 0.582205653
v -0.320520937 0.0716151819 0.582205653
v -0.238588959 0.147290155 0.582205653
v -0.190912962 0.076941222 0.438851625
v -0.156655952 0.0716151819 0.582205653
v -0.239397958 0.121671215 0.438851625
v -0.320520937 0.0716151819 0.582205653
v -0.284127951 0.0731862262 0.438851625
v -0.241100952 0.127946272 0.0845666453
v -0.18141897 0.0762752891 0.0845666453
v -0.295455962 0.0744102821 0.0845666453
v -0.238588959 0.00623016339 0.582205653
v -0.284127951 0.0731862262 0.438851625
v -0.320520937 0.0716151819 0.582205653
v -0.235642955 0.0284562297 0.438851625
v -0.156655952 0.0716151819 0.582205653
v -0.295455962 0.0744102821 0.0845666453
v -0.190912962 0.076941222 0.438851625
v -0.239235967 0.0227392949 0.0845666453
v -0.18141897 0.0762752891 0.0845666453
v -0.334092945 0.0810092539 0.0948187262
v -0.242192969 0.170718268 0.0948187262
v -0.234095976 -0.0206387322 0.0948187262
v -0.14150396 0.0840412527 0.0948187262
v -0.14150396 0.0840412527 0.0948187262
v -0.22209996 -0.0167796705 -0.280400395
v -0.234095976 -0.0206387322 0.0948187262
v -0.160856962 0.0762870386 -0.070041351
v -0.235273972 0.165057331 -0.280400395
v -0.242192969 0.170718268 0.0948187262
v -0.185736954 -0.231769666 -0.277024388
v -0.263201952 -0.188918665 -0.272898406
v -0.263198972 -0.142363697 -0.120606385
v -0.185736954 -0.175579712 -0.0932193771
v -0.10827297 -0.185773671 -0.272596359
v -0.10827297 -0.139925718 -0.122617416
v -0.263198972 -0.00175571442 -0.0458443426
v -0.185736954 -0.00588371279 -0.0029873657
v -0.10827297 -0.00145271292 -0.0489894077
v -0.185736954 0.177911341 -0.0591844171
v -0.10827297 0.148520321 -0.094834365
v -0.263198972 0.15052928 -0.0923963934
v -0.108274952 0.222154349 -0.233301312
v -0.185736954 0.2681503 -0.228873283
v -0.263201952 0.225299329 -0.232997283
v -0.263198972 0.178741336 -0.385289371
v -0.185736954 0.211959332 -0.412671268
v -0.10827297 0.176302299 -0.383280396
v -0.10827297 0.0378363803 -0.456914365
v -0.185736954 0.0422643647 -0.502910376
v -0.263201952 0.0381383523 -0.460059345
v -0.10827297 -0.112143628 -0.411063373
v -0.185736954 -0.141534656 -0.446719348
v -0.263201952 -0.114153631 -0.413501352
v -0.263201952 -0.188918665 -0.272898406
v -0.185736954 -0.231769666 -0.277024388
v -0.10827297 -0.185773671 -0.272596359
v -0.263198972 0.15052928 -0.0923963934
v -0.263198972 0.178741336 -0.385289371
v -0.263201952 0.225299329 -0.232997283
v -0.263198972 -0.00175571442 -0.0458443426
v -0.263201952 0.0381383523 -0.460059345
v -0.263201952 -0.114153631 -0.413501352
v -0.263198972 -0.142363697 -0.120606385
v -0.263201952 -0.188918665 -0.272898406
v -0.10827297 -0.139925718 -0.122617416
v -0.10827297 -0.112143628 -0.411063373
v -0.10827297 -0.185773671 -0.272596359
v -0.10827297 0.0378363803 -0.456914365
v -0.10827297 -0.00145271292 -0.0489894077
v -0.10827297 0.148520321 -0.094834365
v -0.10827297 0.176302299 -0.383280396
v -0.108274952 0.222154349 -0.233301312
v -0.121999048 0.102698363 -0.424412906
v -0.190361306 0.162986472 -0.536421537
v -0.191622019 0.0788899213 -0.44735685
v -0.121821187 0.18642123 -0.51383841
v -0.115734309 0.241878778 -0.462416381
v -0.115813367 0.159034222 -0.372176796
v -0.178183973 0.273896754 -0.433579862
v -0.179251283 0.191563278 -0.342882454
v -0.246723786 0.250463068 -0.456164956
v -0.248873442 0.167754203 -0.365825176
v -0.255059361 0.111418128 -0.418062478
v -0.252812088 0.195004687 -0.507586181
v -0.190361306 0.162986472 -0.536421537
v -0.191622019 0.0788899213 -0.44735685
v -0.115734309 0.241878778 -0.462416381
v -0.178183973 0.273896754 -0.433579862
v -0.121821187 0.18642123 -0.51383841
v -0.246723786 0.250463068 -0.456164956
v -0.252812088 0.195004687 -0.507586181
v -0.190361306 0.162986472 -0.536421537
v 0.085597001 0.0284743104 -0.501751304
v 0.0920390487 -0.030990677 -0.462153852
v 0.122742862 -0.00694667781 -0.469111711
v 0.0756129324 -0.0589067079 -0.343096316
v 0.151993811 -0.0307226945 -0.359676033
v 0.157778934 -0.0627657697 0.0232122801
v 0.256000936 0.0388822183 0.00445510866
v 0.18341963 0.0388822928 -0.364783466
v 0.134170383 0.036813315 -0.471293867
v 0.152700022 0.0989222676 -0.360599816
v 0.16573219 0.128591225 0.0216935724
v 0.0885531381 0.122930296 -0.345567465
v 0.114706092 0.0768993348 -0.467576832
v 0.091610752 0.0969933271 -0.462072045
v -0.261666954 0.0706013441 -0.434366375
v -0.29203096 0.0351803564 -0.395338356
v -0.26056698 0.0111363595 -0.394263387
v -0.22209996 -0.0167796705 -0.280400395
v -0.300234973 0.011404342 -0.282358378
v -0.234095976 -0.0206387322 0.0948187262
v -0.334092945 0.0810092539 0.0948187262
v -0.332060963 0.0810093284 -0.281480402
v -0.303664953 0.0789403543 -0.395338356
v -0.301101953 0.141049311 -0.283133388
v -0.242192969 0.170718268 0.0948187262
v -0.235273972 0.165057331 -0.280400395
v -0.283848971 0.11902637 -0.395338356
v -0.260130972 0.13912037 -0.394263387
vt 0.859631002 0.992129982
vt 0.859631002 0.968285978
vt 0.836618006 0.992129982
vt 0.836618006 0.968285978
vt 0.527046978 0.343867987
vt 0.527046978 0.324858993
vt 0.496560007 0.324858993
vt 0.496560007 0.343867987
vt 0.527046978 0.358951986
vt 0.496560007 0.358951986
vt 0.424941987 0.343867987
vt 0.424941987 0.324858993
vt 0.424941987 0.358951986
vt 0.527611971 0.383834004
vt 0.527611971 0.366149008
vt 0.496787012 0.366149008
vt 0.496787012 0.383834004
vt 0.527611971 0.399455011
vt 0.424376011 0.366149008
vt 0.496787012 0.399455011
vt 0.424376011 0.383834004
vt 0.424376011 0.399455011
vt 0.600423038 0.396986991
vt 0.600423038 0.324975014
vt 0.567212999 0.324975014
vt 0.565865993 0.357234001
vt 0.534965992 0.397089005
vt 0.534803987 0.324975014
vt 0.636716008 0.974354982
vt 0.667807996 0.974354982
vt 0.636716008 0.945532024
vt 0.667807996 0.945532024
vt 0.818683028 0.592374027
vt 0.783981025 0.612700999
vt 0.818683028 0.612700999
vt 0.783981025 0.592374027
vt 0.818683028 0.572048008
vt 0.783981025 0.572048008
vt 0.749588013 0.612700999
vt 0.749588013 0.592374027
vt 0.749588013 0.572048008
vt 0.715040028 0.592374027
vt 0.715040028 0.572048008
vt 0.715040028 0.612700999
vt 0.680492997 0.572048008
vt 0.680491984 0.592374027
vt 0.680491984 0.612700999
vt 0.64586699 0.612700999
vt 0.64586699 0.592374027
vt 0.64586699 0.572048008
vt 0.611320019 0.572048008
vt 0.611320019 0.592374027
vt 0.611320019 0.612700999
vt 0.576927006 0.572048008
vt 0.576927006 0.592374027
vt 0.576927006 0.612700999
vt 0.542302012 0.612700999
vt 0.542302012 0.592374027
vt 0.542302012 0.572048008
vt 0.890119016 0.878048003
vt 0.877076983 0.909470022
vt 0.890119016 0.940891027
vt 0.921540976 0.865005016
vt 0.921540976 0.953934014
vt 0.953047991 0.940891027
vt 0.953047991 0.878048003
vt 0.966090977 0.909470022
vt 0.845366001 0.856666028
vt 0.876329005 0.869518995
vt 0.907290995 0.856666028
vt 0.920143008 0.825703979
vt 0.832513988 0.825703979
vt 0.845366001 0.794740975
vt 0.907290995 0.794741988
vt 0.876327991 0.781889021
vt 0.939595997 0.0826919973
vt 0.939595997 0.0976610035
vt 0.965313971 0.0976610035
vt 0.965313971 0.0826919973
vt 0.965313971 0.0677239969
vt 0.939595997 0.0677239969
vt 0.965313971 0.0527549982
vt 0.939595997 0.0527549982
vt 0.965313971 0.0377870016
vt 0.939595997 0.0377870016
vt 0.939595997 0.0228179991
vt 0.965313971 0.0228179991
vt 0.965313971 0.0078499997
vt 0.939595997 0.0078499997
vt 0.617157996 0.409364998
vt 0.604965985 0.402375996
vt 0.617157996 0.423420012
vt 0.604965985 0.430487007
vt 0.592773974 0.423420012
vt 0.592773974 0.409364998
vt 0.859631062 0.992129982
vt 0.836617947 0.992129982
vt 0.859631062 0.968285978
vt 0.836617947 0.968285978
vt 0.527046919 0.343867987
vt 0.496559978 0.324858993
vt 0.527046919 0.324858993
vt 0.496559978 0.343867987
vt 0.527046919 0.358951986
vt 0.496559978 0.358951986
vt 0.424942017 0.343867987
vt 0.424942017 0.324858993
vt 0.424942017 0.358951986
vt 0.527611971 0.383834004
vt 0.496787071 0.366149008
vt 0.527611971 0.366149008
vt 0.496787071 0.383834004
vt 0.527611971 0.399455011
vt 0.424376011 0.366149008
vt 0.496787071 0.399455011
vt 0.424376011 0.383834004
vt 0.424376011 0.399455011
vt 0.636716008 0.974354982
vt 0.636716008 0.945532024
vt 0.667808056 0.974354982
vt 0.667808056 0.945532024
vt 0.567213058 0.324975014
vt 0.534965992 0.397089005
vt 0.534803987 0.324975014
vt 0.565865993 0.357234001
vt 0.600423098 0.396986991
vt 0.600423098 0.324975014
vt 0.818683028 0.592374027
vt 0.818683028 0.612700999
vt 0.783981085 0.612700999
vt 0.783981085 0.592374027
vt 0.818683028 0.572048008
vt 0.783981085 0.572048008
vt 0.749588013 0.612700999
vt 0.749588013 0.592374027
vt 0.749588013 0.572048008
vt 0.715039968 0.592374027
vt 0.715039968 0.572048008
vt 0.715039968 0.612700999
vt 0.680492997 0.572048008
vt 0.680491924 0.592374027
vt 0.680491924 0.612700999
vt 0.64586699 0.612700999
vt 0.64586699 0.592374027
vt 0.64586699 0.572048008
vt 0.611320019 0.572048008
vt 0.611320019 0.592374027
vt 0.611320019 0.612700999
vt 0.576926947 0.572048008
vt 0.576926947 0.592374027
vt 0.576926947 0.612700999
vt 0.542302012 0.612700999
vt 0.542302012 0.592374027
vt 0.542302012 0.572048008
vt 0.890119076 0.878048003
vt 0.890119076 0.940891027
vt 0.877076983 0.909470022
vt 0.921540976 0.865005016
vt 0.921540976 0.953934014
vt 0.953047991 0.940891027
vt 0.953047991 0.878048003
vt 0.966090918 0.909470022
vt 0.845366001 0.856666028
vt 0.907290936 0.856666028
vt 0.876328945 0.869518995
vt 0.920143008 0.825703979
vt 0.832514048 0.825703979
vt 0.845366001 0.794740975
vt 0.907290936 0.794741988
vt 0.876327991 0.781889021
vt 0.939595938 0.0826919973
vt 0.965313911 0.0976610035
vt 0.939595938 0.0976610035
vt 0.965313911 0.0826919973
vt 0.965313911 0.0677239969
vt 0.939595938 0.0677239969
vt 0.965313911 0.0527549982
vt 0.939595938 0.0527549982
vt 0.965313911 0.0377870016
vt 0.939595938 0.0377870016
vt 0.939595938 0.0228179991
vt 0.965313911 0.0228179991
vt 0.965313911 0.0078499997
vt 0.939595938 0.0078499997
vt 0.617157936 0.409364998
vt 0.617157936 0.423420012
vt 0.604965925 0.402375996
vt 0.604965925 0.430487007
vt 0.592773914 0.423420012
vt 0.592773914 0.409364998
vt 0.843083024 0.372738004
vt 0.859380007 0.36501801
vt 0.850988984 0.362540007
vt 0.876066029 0.343277991
vt 0.857882977 0.341881007
vt 0.876066029 0.270301014
vt 0.841166973 0.270301014
vt 0.841049016 0.340903014
vt 0.841247022 0.361764997
vt 0.826139987 0.341944993
vt 0.81080699 0.270301014
vt 0.81080699 0.343059003
vt 0.831834018 0.363168001
vt 0.825088978 0.365051001
vt 0.843083024 0.372738004
vt 0.850988984 0.362540007
vt 0.859380007 0.36501801
vt 0.876065969 0.343277991
vt 0.857882977 0.341881007
vt 0.876065969 0.270301014
vt 0.841166973 0.270301014
vt 0.841048956 0.340903014
vt 0.841247082 0.361764997
vt 0.826139927 0.341944993
vt 0.81080699 0.270301014
vt 0.81080699 0.343059003
vt 0.831834078 0.363168001
vt 0.825088978 0.365051001
vn -0 -1.62920685E-07 1
vn -0 -1.62920685E-07 1
vn -0 -1.62920685E-07 1
vn -0 -1.62920685E-07 1
vn 0.0112800933 0.981557369 -0.190834612
vn -0.67224282 0.728147507 -0.133756697
vn -0.670783937 0.738861799 -0.0642824098
vn 0.0263883192 0.995720804 -0.0885653868
vn 0.692597568 0.706554413 -0.145222813
vn 0.706812441 0.704272985 -0.0664507747
vn 0.0378591605 0.999009013 0.023401577
vn -0.665278792 0.746477902 0.013224178
vn 0.717201889 0.696562052 0.0205617528
vn -0.00646505784 -0.981193066 -0.192920506
vn 0.637810111 -0.755403519 -0.150212735
vn 0.659151256 -0.748775959 -0.0696728677
vn -0.0248227585 -0.995444417 -0.0920562595
vn -0.661683619 -0.736021817 -0.142991871
vn 0.677210629 -0.735545754 0.0189246144
vn -0.684990585 -0.725343585 -0.0682978332
vn -0.0148076117 -0.999656916 0.0216017477
vn -0.705233216 -0.708869398 0.0122588081
vn -0.751689017 0.657925904 -0.045795422
vn -0.652404547 0.757870734 0.000596242025
vn -0.997209251 0.0730841458 -0.0152459778
vn -0.992928803 0.0176588837 -0.117391065
vn -0.808263421 -0.588618219 -0.0154516781
vn -0.748920441 -0.662438333 0.0171304438
vn -0 -1.62920685E-07 1
vn -0 -1.62920685E-07 1
vn -0 -1.62920685E-07 1
vn -0 -1.62920685E-07 1
vn -0.0137308519 -0.995300055 -0.0958603621
vn 0.485788286 -0.674478769 0.555956841
vn 0.485755563 -0.870067716 -0.0838072225
vn -0.013728491 -0.77155447 0.636015117
vn -0.5122931 -0.854853809 -0.0823443457
vn -0.512320817 -0.662688434 0.546233892
vn 0.485790372 -0.0837743506 0.870051563
vn -0.0137258489 -0.0958415493 0.995301962
vn -0.512317657 -0.0823107585 0.854842305
vn -0.0137285721 0.63600409 0.77156347
vn -0.51228255 0.546247184 0.662707031
vn 0.48575002 0.555965185 0.674499512
vn -0.512296617 0.854851246 0.0823495388
vn -0.0137306228 0.995299578 0.095865123
vn 0.485758811 0.870064735 0.0838206708
vn 0.485759139 0.674489856 -0.55596894
vn -0.0137301208 0.771571279 -0.635994613
vn -0.512294769 0.662693977 -0.546251595
vn -0.512296677 0.0823471397 -0.854851484
vn -0.0137298051 0.095864296 -0.995299697
vn 0.485760868 0.0838087201 -0.870064616
vn -0.512291133 -0.546257675 -0.662691772
vn -0.0137323942 -0.636001468 -0.771565616
vn 0.485750526 -0.555981636 -0.674485564
vn 0.485755563 -0.870067716 -0.0838072225
vn -0.0137308519 -0.995300055 -0.0958603621
vn -0.5122931 -0.854853809 -0.0823443457
vn 1 0 3.52445613E-06
vn 1 -4.89087106E-05 -4.7109952E-06
vn 1 0 3.52451366E-06
vn 1 4.45888782E-06 6.78182687E-06
vn 1 4.45886189E-06 6.78183551E-06
vn 1 3.23993436E-06 9.07420235E-06
vn 1 3.23991844E-06 9.07419962E-06
vn 1 2.34800082E-05 1.24853941E-05
vn -1 0 0
vn -1 0 0
vn -1 0 0
vn -1 0 0
vn -1 0 0
vn -1 5.50966206E-06 5.30669695E-07
vn -1 5.50945833E-06 5.30650084E-07
vn -1 3.30557923E-05 3.18380853E-06
vn 0.00979995076 -0.59334594 -0.80488795
vn 0.00981965568 -0.99372673 0.111403793
vn 0.00981965568 -0.993726969 0.111401856
vn 0.00979995076 -0.593337536 -0.804894209
vn 0.00980196334 0.400391757 -0.916291654
vn 0.00980196334 0.400397748 -0.916288972
vn 0.00982019585 0.993726373 -0.111406825
vn 0.00982019491 0.99372673 -0.11140316
vn 0.00980451703 0.593341649 0.80489099
vn 0.00980452076 0.59334743 0.804886878
vn 0.00980605464 -0.400396407 0.916289568
vn 0.00980605558 -0.400390357 0.916292131
vn 0.00981965568 -0.993726969 0.111401856
vn 0.00981965568 -0.99372673 0.111403793
vn 1 0 0
vn 1 0 0
vn 1 0 0
vn 1 0 0
vn 1 0 0
vn 1 0 0
vn -0 -1.62920685E-07 1
vn -0 -1.62920685E-07 1
vn -0 -1.62920685E-07 1
vn -0 -1.62920685E-07 1
vn -0.0112800654 0.981557369 -0.190834612
vn 0.670783937 0.738861799 -0.0642824098
vn 0.67224282 0.728147447 -0.133756682
vn -0.0263882913 0.995720804 -0.0885653868
vn -0.692597568 0.706554413 -0.145222783
vn -0.706812322 0.704273045 -0.0664507523
vn -0.0378591605 0.999009013 0.023401577
vn 0.665278912 0.746477842 0.0132241771
vn -0.717201829 0.696561992 0.020561751
vn 0.00646511093 -0.981193066 -0.192920506
vn -0.659151256 -0.748775959 -0.0696728751
vn -0.637810111 -0.755403519 -0.15021275
vn 0.0248228088 -0.995444417 -0.0920562595
vn 0.661683619 -0.736021757 -0.142991856
vn -0.677210629 -0.735545754 0.0189246144
vn 0.684990585 -0.725343585 -0.0682978183
vn 0.0148076639 -0.999656916 0.0216017477
vn 0.705233276 -0.708869338 0.0122588044
vn -0 -1.62920685E-07 1
vn -0 -1.62920685E-07 1
vn -0 -1.62920685E-07 1
vn -0 -1.62920685E-07 1
vn 0.997209251 0.0730841383 -0.0152459778
vn 0.808263421 -0.588618219 -0.0154516781
vn 0.748920441 -0.662438333 0.0171304438
vn 0.992928803 0.0176588837 -0.117391065
vn 0.751689017 0.657925904 -0.045795422
vn 0.652404547 0.757870734 0.000596242025
vn 0.0137308519 -0.995300055 -0.0958603621
vn -0.485755563 -0.870067716 -0.0838072449
vn -0.485788286 -0.674478769 0.5559569
vn 0.013728464 -0.77155447 0.636015117
vn 0.51229316 -0.854853809 -0.0823443308
vn 0.512320817 -0.662688375 0.546233833
vn -0.485790372 -0.0837743506 0.870051563
vn 0.0137257706 -0.0958415419 0.995301962
vn 0.512317717 -0.0823107362 0.854842424
vn 0.0137285208 0.63600409 0.77156347
vn 0.51228255 0.546247184 0.662707031
vn -0.485750049 0.555965185 0.674499452
vn 0.512296677 0.854851246 0.0823495388
vn 0.0137306359 0.995299578 0.0958651155
vn -0.485758811 0.870064735 0.0838206485
vn -0.485759139 0.674489856 -0.55596894
vn 0.0137301479 0.771571338 -0.635994494
vn 0.512294829 0.662693977 -0.546251476
vn 0.512296796 0.082347177 -0.854851484
vn 0.0137298424 0.0958643332 -0.995299697
vn -0.485760868 0.083808735 -0.870064616
vn 0.512291133 -0.546257675 -0.662691772
vn 0.0137324352 -0.636001468 -0.771565616
vn -0.485750526 -0.555981636 -0.674485564
vn -0.485755563 -0.870067716 -0.0838072449
vn 0.0137308519 -0.995300055 -0.0958603621
vn 0.51229316 -0.854853809 -0.0823443308
vn -1 0 3.52445613E-06
vn -1 0 3.52451411E-06
vn -1 -4.89087106E-05 -4.7109952E-06
vn -1 4.45888827E-06 6.78182732E-06
vn -1 4.45886235E-06 6.78183551E-06
vn -1 3.23993436E-06 9.07420326E-06
vn -1 3.23991912E-06 9.07420053E-06
vn -1 2.34800082E-05 1.24853941E-05
vn 1 0 0
vn 1 0 0
vn 1 0 0
vn 1 0 0
vn 1 0 0
vn 1 5.50966206E-06 5.30669695E-07
vn 1 5.50945833E-06 5.30650084E-07
vn 1 3.30557923E-05 3.18380853E-06
vn -0.00979994982 -0.59334594 -0.804887831
vn -0.00981965289 -0.993726969 0.111401886
vn -0.00981965382 -0.99372673 0.111403793
vn -0.00979994889 -0.593337476 -0.80489409
vn -0.00980196241 0.400391757 -0.916291654
vn -0.00980196148 0.400397748 -0.916288972
vn -0.00982019585 0.993726373 -0.111406825
vn -0.00982019491 0.99372673 -0.11140316
vn -0.00980452076 0.593341649 0.80489099
vn -0.00980452169 0.59334743 0.804886758
vn -0.00980605371 -0.400396407 0.916289568
vn -0.00980605464 -0.400390416 0.916292131
vn -0.00981965289 -0.993726969 0.111401886
vn -0.00981965382 -0.99372673 0.111403793
vn -1 0 0
vn -1 0 0
vn -1 0 0
vn -1 0 0
vn -1 0 0
vn -1 0 0
vn 0.591295779 -0.0184907801 -0.806242704
vn 0.431829244 -0.818741798 -0.378398448
vn 0.679301739 -0.55914557 -0.475295007
vn 0.375543386 -0.923767984 -0.0749653578
vn 0.696537912 -0.711957216 -0.0891740695
vn 0.668894291 -0.741370976 0.0543092415
vn 0.997424841 0.0141844954 0.070302926
vn 0.9933002 0.0369988047 -0.109479755
vn 0.87632519 0.0641486719 -0.477429718
vn 0.677660167 0.727451742 -0.10766051
vn 0.662654877 0.747595787 0.0445980616
vn 0.38190642 0.919970274 -0.0883307159
vn 0.619799793 0.592182398 -0.514944971
vn 0.436786622 0.802646637 -0.406172007
vn -0.591295779 -0.0184907801 -0.806242704
vn -0.679301739 -0.55914557 -0.475295007
vn -0.431829184 -0.818741798 -0.378398478
vn -0.375543356 -0.923767984 -0.0749653578
vn -0.696537912 -0.711957216 -0.0891740695
vn -0.668894291 -0.741370976 0.0543092415
vn -0.997424841 0.0141844954 0.070302926
vn -0.9933002 0.0369988158 -0.109479755
vn -0.87632519 0.0641486868 -0.477429718
vn -0.677660167 0.727451742 -0.10766051
vn -0.662654877 0.747595787 0.0445980616
vn -0.38190639 0.919970274 -0.0883307159
vn -0.619799793 0.592182398 -0.514944971
vn -0.436786622 0.802646577 -0.406172067
g A_Hero_Monica_motorcycle_02_lod_0
f 3/3/3 2/2/2 1/1/1
f 3/3/3 4/4/4 2/2/2
f 7/7/7 6/6/6 5/5/5
f 8/8/8 7/7/7 5/5/5
f 8/8/8 5/5/5 9/9/9
f 10/10/10 8/8/8 9/9/9
f 7/7/7 8/8/8 11/11/11
f 8/8/8 10/10/10 11/11/11
f 12/12/12 7/7/7 11/11/11
f 10/10/10 13/13/13 11/11/11
f 16/16/16 15/15/15 14/14/14
f 17/17/17 16/16/16 14/14/14
f 17/17/17 14/14/14 18/18/18
f 16/16/16 17/17/17 19/19/19
f 20/20/20 17/17/17 18/18/18
f 17/17/17 21/21/21 19/19/19
f 17/17/17 20/20/20 22/22/22
f 21/21/21 17/17/17 22/22/22
f 25/25/25 24/24/24 23/23/23
f 26/26/26 25/25/25 23/23/23
f 27/27/27 25/25/25 26/26/26
f 27/27/27 28/28/28 25/25/25
f 31/31/31 30/30/30 29/29/29
f 32/32/32 30/30/30 31/31/31
f 35/35/35 34/34/34 33/33/33
f 34/34/34 36/36/36 33/33/33
f 33/33/33 36/36/36 37/37/37
f 36/36/36 38/38/38 37/37/37
f 36/36/36 34/34/34 39/39/39
f 38/38/38 36/36/36 40/40/40
f 40/40/40 36/36/36 39/39/39
f 41/41/41 38/38/38 40/40/40
f 40/40/40 39/39/39 42/42/42
f 41/41/41 40/40/40 42/42/42
f 43/43/43 41/41/41 42/42/42
f 39/39/39 44/44/44 42/42/42
f 45/45/45 43/43/43 42/42/42
f 46/46/46 42/42/42 44/44/44
f 46/46/46 45/45/45 42/42/42
f 47/47/47 46/46/46 44/44/44
f 46/46/46 47/47/47 48/48/48
f 45/45/45 46/46/46 49/49/49
f 49/49/49 46/46/46 48/48/48
f 50/50/50 45/45/45 49/49/49
f 51/51/51 50/50/50 49/49/49
f 49/49/49 48/48/48 52/52/52
f 52/52/52 51/51/51 49/49/49
f 48/48/48 53/53/53 52/52/52
f 54/54/54 51/51/51 52/52/52
f 55/55/55 52/52/52 53/53/53
f 55/55/55 54/54/54 52/52/52
f 56/56/56 55/55/55 53/53/53
f 55/55/55 56/56/56 57/57/57
f 58/58/58 55/55/55 57/57/57
f 55/55/55 58/58/58 54/54/54
f 58/58/58 59/59/59 54/54/54
f 62/62/62 61/61/61 60/60/60
f 60/60/60 63/63/63 62/62/62
f 63/63/63 64/64/64 62/62/62
f 65/65/65 64/64/64 63/63/63
f 66/66/66 65/65/65 63/63/63
f 67/67/67 65/65/65 66/66/66
f 70/70/70 69/69/69 68/68/68
f 71/71/71 70/70/70 68/68/68
f 72/72/72 71/71/71 68/68/68
f 71/71/71 72/72/72 73/73/73
f 74/74/74 71/71/71 73/73/73
f 75/75/75 74/74/74 73/73/73
f 78/78/78 77/77/77 76/76/76
f 79/79/79 78/78/78 76/76/76
f 80/80/80 79/79/79 76/76/76
f 81/81/81 80/80/80 76/76/76
f 82/82/82 80/80/80 81/81/81
f 83/83/83 82/82/82 81/81/81
f 82/82/82 83/83/83 84/84/84
f 83/83/83 85/85/85 84/84/84
f 85/85/85 86/86/86 84/84/84
f 86/86/86 87/87/87 84/84/84
f 87/87/87 86/86/86 88/88/88
f 86/86/86 89/89/89 88/88/88
f 92/92/92 91/91/91 90/90/90
f 93/93/93 91/91/91 92/92/92
f 94/94/94 91/91/91 93/93/93
f 95/95/95 91/91/91 94/94/94
f 98/98/98 97/97/97 96/96/96
f 99/99/99 97/97/97 98/98/98
f 102/102/102 101/101/101 100/100/100
f 101/101/101 103/103/103 100/100/100
f 100/100/100 103/103/103 104/104/104
f 103/103/103 105/105/105 104/104/104
f 103/103/103 101/101/101 106/106/106
f 105/105/105 103/103/103 106/106/106
f 101/101/101 107/107/107 106/106/106
f 108/108/108 105/105/105 106/106/106
f 111/111/111 110/110/110 109/109/109
f 110/110/110 112/112/112 109/109/109
f 109/109/109 112/112/112 113/113/113
f 112/112/112 110/110/110 114/114/114
f 112/112/112 115/115/115 113/113/113
f 116/116/116 112/112/112 114/114/114
f 115/115/115 112/112/112 117/117/117
f 112/112/112 116/116/116 117/117/117
f 120/120/120 119/119/119 118/118/118
f 121/121/121 119/119/119 120/120/120
f 124/124/124 123/123/123 122/122/122
f 122/122/122 123/123/123 125/125/125
f 122/122/122 125/125/125 126/126/126
f 127/127/127 122/122/122 126/126/126
f 130/130/130 129/129/129 128/128/128
f 131/131/131 130/130/130 128/128/128
f 131/131/131 128/128/128 132/132/132
f 133/133/133 131/131/131 132/132/132
f 130/130/130 131/131/131 134/134/134
f 131/131/131 133/133/133 135/135/135
f 131/131/131 135/135/135 134/134/134
f 133/133/133 136/136/136 135/135/135
f 134/134/134 135/135/135 137/137/137
f 135/135/135 136/136/136 137/137/137
f 136/136/136 138/138/138 137/137/137
f 139/139/139 134/134/134 137/137/137
f 138/138/138 140/140/140 137/137/137
f 137/137/137 141/141/141 139/139/139
f 140/140/140 141/141/141 137/137/137
f 141/141/141 142/142/142 139/139/139
f 142/142/142 141/141/141 143/143/143
f 141/141/141 140/140/140 144/144/144
f 141/141/141 144/144/144 143/143/143
f 140/140/140 145/145/145 144/144/144
f 145/145/145 146/146/146 144/144/144
f 143/143/143 144/144/144 147/147/147
f 146/146/146 147/147/147 144/144/144
f 148/148/148 143/143/143 147/147/147
f 146/146/146 149/149/149 147/147/147
f 147/147/147 150/150/150 148/148/148
f 149/149/149 150/150/150 147/147/147
f 150/150/150 151/151/151 148/148/148
f 151/151/151 150/150/150 152/152/152
f 150/150/150 153/153/153 152/152/152
f 153/153/153 150/150/150 149/149/149
f 154/154/154 153/153/153 149/149/149
f 157/157/157 156/156/156 155/155/155
f 158/158/158 155/155/155 156/156/156
f 159/159/159 158/158/158 156/156/156
f 159/159/159 160/160/160 158/158/158
f 160/160/160 161/161/161 158/158/158
f 160/160/160 162/162/162 161/161/161
f 165/165/165 164/164/164 163/163/163
f 164/164/164 166/166/166 163/163/163
f 166/166/166 167/167/167 163/163/163
f 167/167/167 166/166/166 168/168/168
f 166/166/166 169/169/169 168/168/168
f 169/169/169 170/170/170 168/168/168
f 173/173/173 172/172/172 171/171/171
f 172/172/172 174/174/174 171/171/171
f 174/174/174 175/175/175 171/171/171
f 175/175/175 176/176/176 171/171/171
f 175/175/175 177/177/177 176/176/176
f 177/177/177 178/178/178 176/176/176
f 178/178/178 177/177/177 179/179/179
f 180/180/180 178/178/178 179/179/179
f 181/181/181 180/180/180 179/179/179
f 182/182/182 181/181/181 179/179/179
f 181/181/181 182/182/182 183/183/183
f 184/184/184 181/181/181 183/183/183
f 187/187/187 186/186/186 185/185/185
f 187/187/187 188/188/188 186/186/186
f 187/187/187 189/189/189 188/188/188
f 187/187/187 190/190/190 189/189/189
f 193/193/193 192/192/192 191/191/191
f 194/194/194 192/192/192 193/193/193
f 195/195/195 194/194/194 193/193/193
f 194/194/194 195/195/195 196/196/196
f 195/195/195 197/197/197 196/196/196
f 195/195/195 193/193/193 198/198/198
f 195/195/195 198/198/198 197/197/197
f 199/199/199 193/193/193 191/191/191
f 193/193/193 199/199/199 198/198/198
f 198/198/198 200/200/200 197/197/197
f 198/198/198 199/199/199 200/200/200
f 200/200/200 201/201/201 197/197/197
f 200/200/200 202/202/202 201/201/201
f 191/191/191 203/203/203 199/199/199
f 199/199/199 203/203/203 200/200/200
f 202/202/202 200/200/200 203/203/203
f 191/191/191 204/204/204 203/203/203
f 204/204/204 202/202/202 203/203/203
f 207/207/207 206/206/206 205/205/205
f 207/207/207 208/208/208 206/206/206
f 208/208/208 209/209/209 206/206/206
f 209/209/209 208/208/208 210/210/210
f 211/211/211 209/209/209 210/210/210
f 206/206/206 209/209/209 212/212/212
f 212/212/212 209/209/209 211/211/211
f 206/206/206 213/213/213 205/205/205
f 213/213/213 206/206/206 212/212/212
f 214/214/214 212/212/212 211/211/211
f 213/213/213 212/212/212 214/214/214
f 215/215/215 214/214/214 211/211/211
f 216/216/216 214/214/214 215/215/215
f 217/217/217 205/205/205 213/213/213
f 217/217/217 213/213/213 214/214/214
f 214/214/214 216/216/216 217/217/217
f 218/218/218 205/205/205 217/217/217
f 216/216/216 218/218/218 217/217/217
