g A_soldier_bubing11_maozi
v -0.180664942 1.06699014 -0.0398485512
v -0.22335209 1.02197778 -0.0867668241
v -0.251053929 1.03886294 -0.0501398705
v -0.238066494 1.10153949 0.0943882763
v -0.15931429 1.12406242 0.0754457489
v -0.149215996 1.14387894 0.215791285
v -0.0962931216 1.17370296 0.179606929
v -2.00715722E-15 1.16002238 0.26228413
v -2.17026634E-15 1.18809009 0.206106275
v 0.0962931216 1.17370296 0.179606929
v 0.149215996 1.14387894 0.215791285
v 0.15931429 1.12406242 0.0754457489
v 0.238066494 1.10153949 0.0943882763
v 0.180664942 1.06699014 -0.0398485512
v 0.251053929 1.03886294 -0.0501398705
v 0.22335209 1.02197778 -0.0867668241
v -0.209692627 1.01365101 -0.104827151
v -0.103513412 1.04541826 -0.169053897
v -0.152445659 0.978757083 -0.180514425
v -0.0762219205 0.970884144 -0.198270559
v -1.53965009E-15 1.02561474 -0.19293192
v -1.27446684E-15 0.96301198 -0.216025755
v 0.0762228295 0.970884025 -0.198270604
v 0.103513412 1.04541826 -0.169053897
v 0.152445659 0.978757083 -0.180514425
v 0.209692627 1.01365101 -0.104827151
v -0.141456082 1.1123594 -0.223376349
v -0.165991917 0.983895719 -0.188799828
v -0.082958065 0.969459236 -0.221521065
v -0.237221688 1.01087606 -0.129093215
v -1.8804718E-15 1.09364414 -0.270358294
v -2.48953719E-15 1.22909248 -0.265340507
v 2.89759888E-13 0.963319123 -0.235313892
v 0.0829328075 0.969459236 -0.221521065
v 0.141456082 1.1123594 -0.223376349
v 0.165991917 0.983956337 -0.188664436
v 0.241412386 1.01325178 -0.123815164
v 0.234012216 1.16742969 -0.0934687406
v 0.269434631 1.0433538 -0.0567023084
v 0.273662686 1.07799089 0.023937609
v -0.234012216 1.16742969 -0.0934687406
v -0.269434631 1.0433538 -0.0567023084
v -0.273687959 1.07799089 0.023937609
v -0.225535825 1.23109651 0.0547963455
v -0.257523417 1.11045754 0.0999512821
v -0.22087726 1.13551676 0.170356482
v -0.126902476 1.2489419 -0.211801142
v -0.199880883 1.2788105 -0.127261326
v 0.126902476 1.2492218 -0.213033035
v 0.225535825 1.23109651 0.0547963455
v 0.257523417 1.11045754 0.0999512821
v 0.219356403 1.13624442 0.172444239
v -0.130163312 1.27370691 0.180478707
v -0.164867207 1.15551841 0.229243562
v -0.0824336037 1.1624577 0.271806419
v -0.0997642279 1.32411873 -0.184666499
v 0.130163312 1.27370691 0.180478707
v 0.164867207 1.15551841 0.229243562
v 0.0824336037 1.1624577 0.271806419
v -2.58510051E-15 1.28840923 0.225955933
v -3.14341889E-15 1.40332794 0.137110874
v 2.89018917E-13 1.16939616 0.287636459
v 0.107386157 1.39011216 0.0928211734
v 0.193283319 1.34740937 0.0111327004
v -0.107386157 1.39011216 0.0928211734
v -0.194222063 1.3470943 0.0111182202
v -0.088222146 1.41159999 0.00794010237
v -0.104407124 1.38567805 -0.103829652
v -3.31179443E-15 1.41465998 -0.121347912
v 0.0911806673 1.41166759 0.00793165714
v -3.41383522E-15 1.44189346 0.00770723168
v 0.204286203 1.28497541 -0.127007931
v 0.115990229 1.3857553 -0.103792258
v 0.0997642279 1.32428145 -0.18462427
v -3.02241684E-15 1.34959424 -0.208822072
v -0.164867207 1.15551841 0.229243562
v -0.149215996 1.14387894 0.215791285
v -0.22087726 1.13551676 0.170356482
v -0.0824336037 1.1624577 0.271806419
v -0.238066494 1.10153949 0.0943882763
v -0.257523417 1.11045754 0.0999512821
v -0.273687959 1.07799089 0.023937609
v -0.251053929 1.03886294 -0.0501398705
v -2.00715722E-15 1.16002238 0.26228413
v 2.89018917E-13 1.16939616 0.287636459
v 0.0824336037 1.1624577 0.271806419
v -0.269434631 1.0433538 -0.0567023084
v -0.22335209 1.02197778 -0.0867668241
v 0.149215996 1.14387894 0.215791285
v 0.164867207 1.15551841 0.229243562
v 0.219356403 1.13624442 0.172444239
v -0.209692627 1.01365101 -0.104827151
v -0.237221688 1.01087606 -0.129093215
v -0.165991917 0.983895719 -0.188799828
v -0.152445659 0.978757083 -0.180514425
v 0.238066494 1.10153949 0.0943882763
v 0.257523417 1.11045754 0.0999512821
v 0.273662686 1.07799089 0.023937609
v 0.251053929 1.03886294 -0.0501398705
v -0.082958065 0.969459236 -0.221521065
v -0.0762219205 0.970884144 -0.198270559
v -1.27446684E-15 0.96301198 -0.216025755
v 2.89759888E-13 0.963319123 -0.235313892
v 0.0762228295 0.970884025 -0.198270604
v 0.0829328075 0.969459236 -0.221521065
v 0.152445659 0.978757083 -0.180514425
v 0.165991917 0.983956337 -0.188664436
v 0.269434631 1.0433538 -0.0567023084
v 0.22335209 1.02197778 -0.0867668241
v 0.209692627 1.01365101 -0.104827151
v 0.241412386 1.01325178 -0.123815164
vt 0.800449967 0.240799993
vt 0.744350016 0.221799999
vt 0.744350016 0.231299996
vt 0.744350016 0.252999991
vt 0.800449967 0.267399997
vt 0.744350016 0.298500001
vt 0.800449967 0.308899999
vt 0.744350016 0.357300013
vt 0.800449967 0.351999998
vt 0.800449967 0.395000011
vt 0.744350016 0.416000009
vt 0.800449967 0.436500013
vt 0.744350016 0.457300007
vt 0.800449967 0.463099986
vt 0.744350016 0.484899998
vt 0.744350016 0.493400007
vt 0.738200009 0.0137
vt 0.800000012 0.0732999966
vt 0.779500008 0.0137
vt 0.82060051 0.0137
vt 0.860899985 0.0732999966
vt 0.861699998 0.0137
vt 0.902899981 0.0137
vt 0.921800017 0.0732999966
vt 0.944000006 0.0137
vt 0.985300004 0.0137
vt 0.608500004 0.246800005
vt 0.644999981 0.202800006
vt 0.585600019 0.184300005
vt 0.677999973 0.251399994
vt 0.530600011 0.222599998
vt 0.530499995 0.270599991
vt 0.530600011 0.168799996
vt 0.475699991 0.184300005
vt 0.452800006 0.246800005
vt 0.416500002 0.203099996
vt 0.380499989 0.255199999
vt 0.399699986 0.324299991
vt 0.345499992 0.30340001
vt 0.34709999 0.363900006
vt 0.661599994 0.324299991
vt 0.715799987 0.30340001
vt 0.71420002 0.363900006
vt 0.657999992 0.407299995
vt 0.712599993 0.424400002
vt 0.67869997 0.469199985
vt 0.591300011 0.291900009
vt 0.61619997 0.324800014
vt 0.469500005 0.292100012
vt 0.403299987 0.407299995
vt 0.3486 0.424400002
vt 0.383700013 0.470699996
vt 0.609300017 0.4745
vt 0.6426 0.516900003
vt 0.586600006 0.538299978
vt 0.578299999 0.317699999
vt 0.453599989 0.475300014
vt 0.41870001 0.516900003
vt 0.474700004 0.538299978
vt 0.530600011 0.502300024
vt 0.530799985 0.453000009
vt 0.530600011 0.559599996
vt 0.478500009 0.439399987
vt 0.447100013 0.395200014
vt 0.582899988 0.439599991
vt 0.614700019 0.395000011
vt 0.57069999 0.396800011
vt 0.566399992 0.356099993
vt 0.530099988 0.351599991
vt 0.490700006 0.397700012
vt 0.530200005 0.397500008
vt 0.444099993 0.325300008
vt 0.49000001 0.356099993
vt 0.481999993 0.317999989
vt 0.529900014 0.315499991
vt 0.6426 0.516900003
vt 0.646200001 0.525300026
vt 0.67869997 0.469199985
vt 0.586600006 0.538299978
vt 0.721400023 0.426400006
vt 0.712599993 0.424400002
vt 0.71420002 0.363900006
vt 0.72390002 0.304100007
vt 0.530600011 0.569800019
vt 0.530600011 0.559599996
vt 0.474700004 0.538299978
vt 0.715799987 0.30340001
vt 0.700900018 0.267500013
vt 0.415100008 0.525300026
vt 0.41870001 0.516900003
vt 0.383700013 0.470699996
vt 0.690800011 0.254099995
vt 0.677999973 0.251399994
vt 0.644999981 0.202800006
vt 0.643400013 0.194199994
vt 0.3398 0.426400006
vt 0.3486 0.424400002
vt 0.34709999 0.363900006
vt 0.337399989 0.304100007
vt 0.585600019 0.184300005
vt 0.587000012 0.177499995
vt 0.530600011 0.160799995
vt 0.530600011 0.168799996
vt 0.474299997 0.177499995
vt 0.475699991 0.184300005
vt 0.417899996 0.194199994
vt 0.416500002 0.203099996
vt 0.345499992 0.30340001
vt 0.360399991 0.267500013
vt 0.370499998 0.254099995
vt 0.380499989 0.255199999
vn 0.315019637 -0.873427451 0.371331573
vn -0.0772770792 -0.915943086 0.393797487
vn 0.216823205 -0.895145178 0.389490247
vn 0.281053692 -0.915498853 0.287872761
vn 0.368676186 -0.903257847 0.219552398
vn 0.286026925 -0.957279623 0.0424757786
vn 0.325634569 -0.928133905 -0.180359662
vn -0 -0.961531222 -0.274695843
vn -0 -0.903391898 -0.428815871
vn -0.325634569 -0.928133905 -0.180359662
vn -0.28640753 -0.957182288 0.0421056002
vn -0.368676215 -0.903257847 0.2195521
vn -0.280712277 -0.915549517 0.288044602
vn -0.315019697 -0.873427689 0.371331036
vn -0.216840386 -0.895139456 0.389494061
vn 0.0703278556 -0.914043903 0.3994717
vn 0.0893308073 -0.87923491 0.467937976
vn 0.261634171 -0.361100882 0.895071864
vn 0.281340629 -0.565944433 0.774954319
vn 0.171182081 -0.30900088 0.935529351
vn -0 -0.32066527 0.94719255
vn 0.0139019508 -0.721232474 0.69255358
vn -0.124719627 -0.530584812 0.838406146
vn -0.261634499 -0.361102015 0.895071387
vn -0.24458392 -0.652184844 0.717518985
vn -0.0921929702 -0.880288064 0.465395868
vn -0.570201516 0.0400403701 -0.820528388
vn -0.540117025 -0.12100447 -0.83284539
vn -0.307371169 -0.182502851 -0.933924794
vn -0.780255854 0.0913262069 -0.618757129
vn 5.34766832E-06 -0.0704858452 -0.997512817
vn -0.00180940412 0.195944443 -0.980613351
vn -5.35601032E-07 -0.259675652 -0.965695858
vn 0.30778563 -0.182702556 -0.933749318
vn 0.570410073 0.0363957398 -0.820553243
vn 0.550837278 -0.118098848 -0.826214731
vn 0.781875789 0.0930236951 -0.616455078
vn 0.911074579 0.202105343 -0.359299988
vn 0.939101875 0.181669384 -0.291691542
vn 0.956269801 0.285698771 -0.0626449361
vn -0.908599615 0.214665487 -0.358281016
vn -0.935213208 0.175939783 -0.30728066
vn -0.956242621 0.285779566 -0.0626907274
vn -0.903293371 0.379806399 0.199520364
vn -0.926139832 0.320187449 0.199361071
vn -0.791412473 0.43739742 0.427024484
vn -0.555583119 0.224058986 -0.800702751
vn -0.846175551 0.368986756 -0.384494245
vn 0.551211238 0.216849163 -0.805693865
vn 0.904548883 0.376803637 0.199525192
vn 0.924948215 0.321274668 0.20310919
vn 0.790891707 0.437639564 0.427740514
vn -0.584028661 0.523844421 0.620078623
vn -0.595084131 0.449587643 0.666142523
vn -0.332691252 0.476978004 0.8135162
vn -0.427779257 0.57483989 -0.697541475
vn 0.583974481 0.524074793 0.619934916
vn 0.591145396 0.449812144 0.669489503
vn 0.332691252 0.476978004 0.8135162
vn -0 0.568497717 0.822684824
vn 0.00024982763 0.770088375 0.637937188
vn -0 0.460141271 0.887845635
vn 0.534127116 0.699943662 0.47411713
vn 0.831213236 0.543336928 0.117768906
vn -0.53313005 0.703527153 0.469916791
vn -0.829173267 0.552720606 0.0834966823
vn -0.394033134 0.919095933 0.000720314507
vn -0.488450319 0.80023253 -0.347913951
vn 0.000390954228 0.914432824 -0.404737502
vn 0.386644214 0.922138155 0.012943699
vn -9.29661255E-05 0.999149084 0.0412447974
vn 0.855416179 0.346350014 -0.385103613
vn 0.47854194 0.806990802 -0.346068531
vn 0.40103063 0.572053671 -0.715492129
vn -0.000309616618 0.618353546 -0.785899937
vn -0.201012671 -0.84433502 0.496681213
vn 0.286026925 -0.957279623 0.0424757786
vn -0.177290529 -0.881784856 0.437062472
vn -0.000102107595 -0.948333561 0.317275137
vn 0.281053692 -0.915498853 0.287872761
vn -0.269305676 -0.859078348 0.435268551
vn -0.219183698 -0.888016343 0.404209614
vn 0.216823205 -0.895145178 0.389490247
vn -0 -0.961531222 -0.274695843
vn -0 -0.937940717 0.346795648
vn 0.000102102837 -0.948333561 0.317275137
vn -0.287446678 -0.903960407 0.316591173
vn -0.0772770792 -0.915943086 0.393797487
vn -0.28640753 -0.957182288 0.0421056002
vn 0.200487524 -0.844181001 0.49715516
vn 0.177209899 -0.881779492 0.437106073
vn 0.0893308073 -0.87923491 0.467937976
vn -0.171262607 -0.942395449 0.287332416
vn -0.308616549 -0.947224915 0.0867222548
vn 0.281340629 -0.565944433 0.774954319
vn -0.280712277 -0.915549517 0.288044602
vn 0.269016594 -0.858845949 0.435905427
vn 0.219350174 -0.887976646 0.404206663
vn -0.216840386 -0.895139456 0.389494061
vn -0.0882330909 -0.993768454 0.0681121424
vn -0.0827916712 -0.99294889 0.084841609
vn 0.0139019508 -0.721232474 0.69255358
vn 0.0309585072 -0.999285519 0.0216826443
vn -0.124719627 -0.530584812 0.838406146
vn 0.111180641 -0.993755937 0.00937777571
vn -0.24458392 -0.652184844 0.717518985
vn 0.254325747 -0.963375449 0.0850066543
vn 0.285494 -0.903791845 0.318831444
vn 0.0703278556 -0.914043903 0.3994717
vn -0.0921929702 -0.880288064 0.465395868
vn 0.175321192 -0.94061321 0.290704787
g A_soldier_bubing11_maozi_0
f 3/3/3 2/2/2 1/1/1
f 3/3/3 1/1/1 4/4/4
f 1/1/1 5/5/5 4/4/4
f 4/4/4 5/5/5 6/6/6
f 5/5/5 7/7/7 6/6/6
f 6/6/6 7/7/7 8/8/8
f 7/7/7 9/9/9 8/8/8
f 8/8/8 9/9/9 10/10/10
f 11/11/11 8/8/8 10/10/10
f 10/10/10 12/12/12 11/11/11
f 12/12/12 13/13/13 11/11/11
f 12/12/12 14/14/14 13/13/13
f 14/14/14 15/15/15 13/13/13
f 14/14/14 16/16/16 15/15/15
f 19/19/19 18/18/18 17/17/17
f 19/19/19 20/20/20 18/18/18
f 20/20/20 21/21/21 18/18/18
f 20/20/20 22/22/22 21/21/21
f 21/21/21 22/22/22 23/23/23
f 21/21/21 23/23/23 24/24/24
f 23/23/23 25/25/25 24/24/24
f 25/25/25 26/26/26 24/24/24
f 29/29/29 28/28/28 27/27/27
f 28/28/28 30/30/30 27/27/27
f 31/31/31 29/29/29 27/27/27
f 32/32/32 31/31/31 27/27/27
f 33/33/33 29/29/29 31/31/31
f 31/31/31 34/34/34 33/33/33
f 35/35/35 34/34/34 31/31/31
f 35/35/35 31/31/31 32/32/32
f 36/36/36 34/34/34 35/35/35
f 36/36/36 35/35/35 37/37/37
f 35/35/35 38/38/38 37/37/37
f 37/37/37 38/38/38 39/39/39
f 39/39/39 38/38/38 40/40/40
f 41/41/41 27/27/27 30/30/30
f 42/42/42 41/41/41 30/30/30
f 42/42/42 43/43/43 41/41/41
f 41/41/41 43/43/43 44/44/44
f 44/44/44 43/43/43 45/45/45
f 45/45/45 46/46/46 44/44/44
f 47/47/47 27/27/27 41/41/41
f 32/32/32 27/27/27 47/47/47
f 47/47/47 41/41/41 48/48/48
f 48/48/48 41/41/41 44/44/44
f 49/49/49 35/35/35 32/32/32
f 38/38/38 35/35/35 49/49/49
f 38/38/38 50/50/50 40/40/40
f 40/40/40 50/50/50 51/51/51
f 52/52/52 51/51/51 50/50/50
f 44/44/44 46/46/46 53/53/53
f 54/54/54 53/53/53 46/46/46
f 54/54/54 55/55/55 53/53/53
f 56/56/56 47/47/47 48/48/48
f 47/47/47 56/56/56 32/32/32
f 57/57/57 52/52/52 50/50/50
f 58/58/58 52/52/52 57/57/57
f 57/57/57 59/59/59 58/58/58
f 55/55/55 60/60/60 53/53/53
f 59/59/59 57/57/57 60/60/60
f 61/61/61 53/53/53 60/60/60
f 61/61/61 60/60/60 57/57/57
f 55/55/55 62/62/62 60/60/60
f 62/62/62 59/59/59 60/60/60
f 63/63/63 57/57/57 50/50/50
f 61/61/61 57/57/57 63/63/63
f 63/63/63 50/50/50 64/64/64
f 64/64/64 50/50/50 38/38/38
f 61/61/61 65/65/65 53/53/53
f 44/44/44 53/53/53 65/65/65
f 66/66/66 44/44/44 65/65/65
f 48/48/48 44/44/44 66/66/66
f 65/65/65 67/67/67 66/66/66
f 61/61/61 67/67/67 65/65/65
f 68/68/68 48/48/48 66/66/66
f 67/67/67 68/68/68 66/66/66
f 68/68/68 67/67/67 69/69/69
f 56/56/56 48/48/48 68/68/68
f 56/56/56 68/68/68 69/69/69
f 63/63/63 70/70/70 61/61/61
f 64/64/64 70/70/70 63/63/63
f 71/71/71 67/67/67 61/61/61
f 69/69/69 67/67/67 71/71/71
f 61/61/61 70/70/70 71/71/71
f 70/70/70 69/69/69 71/71/71
f 64/64/64 38/38/38 72/72/72
f 72/72/72 38/38/38 49/49/49
f 64/64/64 73/73/73 70/70/70
f 64/64/64 72/72/72 73/73/73
f 73/73/73 69/69/69 70/70/70
f 72/72/72 49/49/49 74/74/74
f 73/73/73 72/72/72 74/74/74
f 74/74/74 69/69/69 73/73/73
f 49/49/49 32/32/32 74/74/74
f 32/32/32 56/56/56 75/75/75
f 75/75/75 56/56/56 69/69/69
f 74/74/74 32/32/32 75/75/75
f 75/75/75 69/69/69 74/74/74
f 78/78/78 77/77/77 76/76/76
f 77/77/77 79/79/79 76/76/76
f 80/80/80 77/77/77 78/78/78
f 81/81/81 80/80/80 78/78/78
f 81/81/81 82/82/82 80/80/80
f 82/82/82 83/83/83 80/80/80
f 84/84/84 79/79/79 77/77/77
f 85/85/85 79/79/79 84/84/84
f 85/85/85 84/84/84 86/86/86
f 87/87/87 83/83/83 82/82/82
f 83/83/83 87/87/87 88/88/88
f 84/84/84 89/89/89 86/86/86
f 86/86/86 89/89/89 90/90/90
f 89/89/89 91/91/91 90/90/90
f 88/88/88 87/87/87 92/92/92
f 87/87/87 93/93/93 92/92/92
f 93/93/93 94/94/94 92/92/92
f 94/94/94 95/95/95 92/92/92
f 91/91/91 89/89/89 96/96/96
f 97/97/97 91/91/91 96/96/96
f 97/97/97 96/96/96 98/98/98
f 99/99/99 98/98/98 96/96/96
f 94/94/94 100/100/100 95/95/95
f 100/100/100 101/101/101 95/95/95
f 100/100/100 102/102/102 101/101/101
f 103/103/103 102/102/102 100/100/100
f 102/102/102 103/103/103 104/104/104
f 103/103/103 105/105/105 104/104/104
f 104/104/104 105/105/105 106/106/106
f 105/105/105 107/107/107 106/106/106
f 98/98/98 99/99/99 108/108/108
f 109/109/109 108/108/108 99/99/99
f 110/110/110 106/106/106 107/107/107
f 109/109/109 110/110/110 108/108/108
f 107/107/107 111/111/111 110/110/110
f 110/110/110 111/111/111 108/108/108
