g jianglidaoju_AK_lod1
v -0.0274474379 0.109518364 0.156200975
v 4.21825028E-08 0.125630036 0.153073072
v 4.28395488E-08 0.139575675 0.15415889
v 0.0274475124 0.109518364 0.156200975
v 4.28395488E-08 0.139575675 0.15415889
v 4.21825028E-08 0.125630036 0.153073072
v 0.0271512177 0.0475264117 0.118366554
v -0.0271511525 0.0475264117 0.118366554
v 2.59897401E-08 0.0237581395 0.113271087
v -0.0222558714 0.0802370086 0.548256755
v 7.82506646E-08 0.0980429426 0.548256755
v 7.64381909E-08 0.0565784685 0.548256755
v -4.16801305E-09 0.0461843498 -0.141537324
v -0.0208287332 0.0366999507 -0.108552627
v -4.27649205E-09 0.0371844992 -0.135019198
v 7.82506646E-08 0.0980429426 0.548256755
v 0.022270048 0.0802370086 0.548256755
v 7.64381909E-08 0.0565784685 0.548256755
v -4.16801305E-09 0.0461843498 -0.141537324
v -4.27649205E-09 0.0371844992 -0.135019198
v 0.0208287481 0.0366999507 -0.108552605
v -0.0271511525 0.0475264117 0.118366554
v 2.66794231E-08 0.0235635079 0.129243851
v 2.59897401E-08 0.0237581395 0.113271087
v 3.80025931E-08 0.0319408998 0.151136965
v -0.0344633907 0.0748986006 0.14098309
v -0.0293468889 0.109518558 0.114393495
v -0.0274474379 0.109518364 0.156200975
v -0.0245120544 0.0475264192 -0.145111457
v -0.0215137787 0.124445789 0.150528386
v -0.0280496515 0.109520286 -0.145111486
v -0.0162355099 0.130031362 0.0877960697
v -0.0165362302 0.129668295 -0.127777502
v -0.0154983168 0.147730172 0.14985238
v -0.0151691008 0.142375931 0.0877929255
v 5.8880044E-08 0.131109595 0.300815314
v -0.0274474379 0.109518364 0.156200975
v 4.28395488E-08 0.139575675 0.15415889
v -0.02326864 0.109517902 0.300815314
v -0.0344633907 0.0748986006 0.14098309
v -0.0300611723 0.0749342665 0.300815314
v 3.80025931E-08 0.0319408998 0.151136965
v 5.46775958E-08 0.0349688902 0.300815314
v 4.21825028E-08 0.125630036 0.153073072
v -0.0274474379 0.109518364 0.156200975
v -0.0215137787 0.124445789 0.150528386
v -0.0154983168 0.147730172 0.14985238
v 0.0155761726 0.147730172 0.14985238
v 0.0215138718 0.124445789 0.150528386
v 0.0274475124 0.109518364 0.156200975
v 0.0271512177 0.0475264117 0.118366554
v 2.59897401E-08 0.0237581395 0.113271087
v 2.66794231E-08 0.0235635079 0.129243851
v 3.80025931E-08 0.0319408998 0.151136965
v 0.0344634615 0.0748986006 0.14098309
v 0.0293469597 0.109518558 0.114393495
v 0.0274475124 0.109518364 0.156200975
v 0.0245120637 0.0475264192 -0.145111457
v 0.0215138718 0.124445789 0.150528386
v 0.0280496571 0.109520286 -0.145111486
v 0.0162356086 0.130031362 0.0877960697
v 0.0165362488 0.129668295 -0.127777502
v 0.0155761726 0.147730172 0.14985238
v 0.0151691996 0.142375931 0.0877929255
v 0.0274475124 0.109518364 0.156200975
v 5.8880044E-08 0.131109595 0.300815314
v 4.28395488E-08 0.139575675 0.15415889
v 0.0232687388 0.109517902 0.300815314
v 0.0344634615 0.0748986006 0.14098309
v 0.0300613064 0.0749342665 0.300815314
v 3.80025931E-08 0.0319408998 0.151136965
v 5.46775958E-08 0.0349688902 0.300815314
v -0.0271511525 0.0475264117 0.118366554
v 0.0271512177 0.0475264117 0.118366554
v 0.0245120637 0.0475264192 -0.145111457
v -0.0245120544 0.0475264192 -0.145111457
v 6.07859576E-08 0.107843034 0.367684096
v 4.78123638E-08 0.107927784 0.299571425
v -0.0120645482 0.116613157 0.376453668
v -0.0153852319 0.11671371 0.299571425
v 7.1944342E-08 0.125872403 0.376155525
v 5.85938551E-08 0.125806212 0.299571425
v 7.1944342E-08 0.125872403 0.376155525
v 7.14007271E-08 0.103718787 0.385872781
v -0.0120645482 0.116613157 0.376453668
v -0.0121851787 0.10136611 0.38039124
v 7.13816775E-08 0.0896691382 0.399486572
v -0.0165362302 0.129668295 -0.127777502
v -0.0280496515 0.109520286 -0.145111486
v 0.0280496571 0.109520286 -0.145111486
v 0.0165362488 0.129668295 -0.127777502
v 5.79288937E-08 0.109349899 0.300815284
v -0.02326864 0.109517902 0.300815314
v 5.8880044E-08 0.131109595 0.300815314
v -0.0300611723 0.0749342665 0.300815314
v 5.46775958E-08 0.0349688902 0.300815314
v 7.82506646E-08 0.0980429426 0.548256755
v -0.0193467941 0.0778014064 0.309613168
v 5.76786583E-08 0.0948272571 0.309613168
v -0.0222558714 0.0802370086 0.548256755
v 5.60654421E-08 0.0579211377 0.309613168
v 7.64381909E-08 0.0565784685 0.548256755
v 6.07859576E-08 0.107843034 0.367684096
v -0.0120645482 0.116613157 0.376453668
v -0.0121851787 0.10136611 0.38039124
v 5.99627512E-08 0.0890102386 0.367684096
v 7.13816775E-08 0.0896691382 0.399486572
v -0.0208287332 0.0366999507 -0.108552627
v -0.00375116197 0.029578371 -0.0784481391
v 7.51808393E-09 0.0240817405 -0.0808613151
v 7.24176052E-09 0.0229051076 -0.0860062391
v -0.0208287332 0.056589298 -0.108939558
v -4.16801305E-09 0.0461843498 -0.141537324
v -3.72222786E-09 0.0564670488 -0.141621649
v -0.0208287332 0.0366999507 -0.108552627
v -0.00388967083 0.0564919189 -0.0783874318
v -0.00375116197 0.029578371 -0.0784481391
v -7.13826909E-09 -0.0455557592 -0.117748752
v -0.02006175 -0.0383714512 -0.15764831
v -6.45004494E-09 -0.0297442377 -0.117815539
v -0.0208287332 0.0366999507 -0.108552627
v 7.24176052E-09 0.0229051076 -0.0860062391
v -1.8991873E-08 -0.0246757288 -0.181034282
v -4.27649205E-09 0.0371844992 -0.135019198
v -8.15841084E-09 -0.0492802598 -0.137362376
v -0.02006175 -0.0383714512 -0.15764831
v -7.13826909E-09 -0.0455557592 -0.117748752
v -1.8991873E-08 -0.0246757288 -0.181034282
v 0.0153853269 0.11671371 0.299571425
v 7.1944342E-08 0.125872403 0.376155525
v 5.85938551E-08 0.125806212 0.299571425
v 0.0120647121 0.116613157 0.376453668
v 4.78123638E-08 0.107927784 0.299571425
v 6.07859576E-08 0.107843034 0.367684096
v 5.99627512E-08 0.0890102386 0.367684096
v 7.13816775E-08 0.0896691382 0.399486572
v 0.0121852811 0.101366095 0.380391181
v 6.07859576E-08 0.107843034 0.367684096
v 0.0120647121 0.116613157 0.376453668
v 7.1944342E-08 0.125872403 0.376155525
v 0.0120647121 0.116613157 0.376453668
v 7.14007271E-08 0.103718787 0.385872781
v 0.0121852811 0.101366095 0.380391181
v 7.13816775E-08 0.0896691382 0.399486572
v 5.79288937E-08 0.109349899 0.300815284
v 5.8880044E-08 0.131109595 0.300815314
v 0.0232687388 0.109517902 0.300815314
v 0.0300613064 0.0749342665 0.300815314
v 5.46775958E-08 0.0349688902 0.300815314
v 0.0193328559 0.0778014064 0.309613168
v 7.82506646E-08 0.0980429426 0.548256755
v 5.76786583E-08 0.0948272571 0.309613168
v 0.022270048 0.0802370086 0.548256755
v 5.60654421E-08 0.0579211377 0.309613168
v 7.64381909E-08 0.0565784685 0.548256755
v 0.0208287481 0.0366999507 -0.108552605
v 7.51808393E-09 0.0240817405 -0.0808613151
v 0.00375116779 0.029578371 -0.0784481466
v 7.24176052E-09 0.0229051076 -0.0860062391
v 0.0208287574 0.056589298 -0.108939558
v -3.72222786E-09 0.0564670488 -0.141621649
v -4.16801305E-09 0.0461843498 -0.141537324
v 0.0208287481 0.0366999507 -0.108552605
v 0.00388968899 0.0564919189 -0.0783874393
v 0.00375116779 0.029578371 -0.0784481466
v -7.13826909E-09 -0.0455557592 -0.117748752
v -6.45004494E-09 -0.0297442377 -0.117815539
v 0.0200617183 -0.0383714512 -0.15764834
v 0.0208287481 0.0366999507 -0.108552605
v 7.24176052E-09 0.0229051076 -0.0860062391
v -1.8991873E-08 -0.0246757288 -0.181034282
v -4.27649205E-09 0.0371844992 -0.135019198
v -8.15841084E-09 -0.0492802598 -0.137362376
v -7.13826909E-09 -0.0455557592 -0.117748752
v 0.0200617183 -0.0383714512 -0.15764834
v -1.8991873E-08 -0.0246757288 -0.181034282
v -0.0245120544 0.0475264192 -0.145111457
v 0.0245120637 0.0475264192 -0.145111457
v 0.0280496571 0.109520286 -0.145111486
v -0.0280496515 0.109520286 -0.145111486
v -0.00388967083 0.0564919189 -0.0783874318
v 0.00388968899 0.0564919189 -0.0783874393
v 0.00375116779 0.029578371 -0.0784481466
v -0.00375116197 0.029578371 -0.0784481391
v 0.0274101067 0.0788411573 0.534811914
v 0.013262487 0.0975578353 0.534811914
v 0.0132624954 0.0977543071 0.502383232
v 0.0274101067 0.0789393783 0.502411842
v 0.0220366642 0.0617990382 0.502440572
v 0.0220366661 0.0617990382 0.534811914
v 4.83856202E-05 0.0513677299 0.534811914
v 4.83842014E-05 0.0513677299 0.502308369
v 0.00780017814 0.136525527 0.516591311
v 0.00780014927 0.136703789 0.534811914
v -0.00770904031 0.136703789 0.534811914
v -0.00770908082 0.136525527 0.516591311
v 4.83856202E-05 0.0513677299 0.534811914
v 4.83842014E-05 0.0513677299 0.502308369
v -0.0219427254 0.0617990382 0.502440572
v -0.0219427217 0.0617990382 0.534811914
v -0.0273176022 0.0788411498 0.534811914
v -0.0273176022 0.0789393708 0.502411842
v -0.0131713729 0.0977542922 0.502383173
v -0.013171372 0.0975578353 0.534811914
v 4.83842014E-05 0.0513677299 0.502308369
v 0.0220366642 0.0617990382 0.502440572
v -0.0219427254 0.0617990382 0.502440572
v 0.0274101067 0.0789393783 0.502411842
v -0.0273176022 0.0789393708 0.502411842
v 0.0132624954 0.0977543071 0.502383232
v -0.0131713729 0.0977542922 0.502383173
v 0.0274101067 0.0788411573 0.534811914
v -0.013171372 0.0975578353 0.534811914
v 0.013262487 0.0975578353 0.534811914
v -0.0273176022 0.0788411498 0.534811914
v 0.0220366661 0.0617990382 0.534811914
v -0.0219427217 0.0617990382 0.534811914
v 4.83856202E-05 0.0513677299 0.534811914
v 0.0219628513 -0.0782513097 0.13339445
v 0.0220223367 -0.0954393446 0.0485315695
v 0.0220223367 -0.136562407 0.0959526151
v 0.0223997831 -0.0486553386 0.101484247
v 0.0222291015 -0.0151212011 0.079519935
v 0.0220223404 -0.0410647579 0.0154997492
v 0.0220691338 0.0215809606 0.0670810789
v 0.0220223404 0.00888003875 -0.000376060983
v 0.0207062233 0.0558631271 0.0615933612
v 0.0220223516 0.0558631271 -0.00995562132
v 0.0219628513 -0.0782513097 0.13339445
v 0.0220223367 -0.136562407 0.0959526151
v -0.0219353624 -0.136562407 0.0959526151
v -0.0218757987 -0.0782513097 0.13339445
v -0.0219353605 0.00888004061 -0.000376049022
v 0.0220223516 0.0558631271 -0.00995562132
v -0.0219353475 0.0558631271 -0.00995561853
v 0.0220223404 0.00888003875 -0.000376060983
v 0.0220223404 -0.0410647579 0.0154997492
v -0.0219353605 -0.0410647579 0.0154997511
v -0.0219353624 -0.0954393446 0.0485315695
v 0.0220223367 -0.0954393446 0.0485315695
v -0.0219353624 -0.136562407 0.0959526151
v 0.0220223367 -0.136562407 0.0959526151
v -0.0219353624 -0.0954393446 0.0485315695
v -0.0218757987 -0.0782513097 0.13339445
v -0.0219353624 -0.136562407 0.0959526151
v -0.0223127678 -0.0486553386 0.101484247
v -0.0221420974 -0.0151211983 0.079519935
v -0.0219353605 -0.0410647579 0.0154997511
v -0.0219821259 0.0215809606 0.0670810789
v -0.0219353605 0.00888004061 -0.000376049022
v -0.0206191745 0.0558631271 0.0615933612
v -0.0219353475 0.0558631271 -0.00995561853
v 0.011241653 0.0564469099 -0.0104952091
v 0.0112416511 0.0564469099 -0.0255011283
v 0.0112416502 0.0243326202 -0.0255011283
v 0.0112416511 0.02435215 -0.0103804506
v 7.51808393E-09 0.0240817405 -0.0808613151
v 0.00745819742 0.0227369089 -0.073169224
v 0.00375116779 0.029578371 -0.0784481466
v 4.34874928E-05 0.0176856983 -0.0750264898
v 0.00745819928 0.0225896798 -0.0297612175
v 4.34995636E-05 0.0176128391 -0.0276463497
v 4.35003312E-05 0.0247791409 -0.0171924196
v 0.00745821046 0.0285346601 -0.0203538612
v -0.00737119885 0.0285346601 -0.0203538612
v 0.00745819928 0.0225896798 -0.0297612175
v 0.00745821046 0.0285346601 -0.0203538612
v -0.00737120025 0.0225896798 -0.0297612175
v 0.00745819742 0.0227369089 -0.073169224
v -0.00737121189 0.0227369089 -0.073169224
v 0.00375116779 0.029578371 -0.0784481466
v -0.00375116197 0.029578371 -0.0784481391
v -0.0111546684 0.02435215 -0.0103804506
v 0.0112416511 0.02435215 -0.0103804506
v 0.0112416502 0.0243326202 -0.0255011283
v -0.0111546693 0.0243350603 -0.0255011283
v -0.0111546693 0.0243350603 -0.0255011283
v 0.0112416502 0.0243326202 -0.0255011283
v 0.0112416511 0.0564469099 -0.0255011283
v -0.0111546684 0.0564469099 -0.0255011283
v -0.0111546665 0.0564469099 -0.0104952091
v -0.0111546684 0.02435215 -0.0103804506
v -0.0111546693 0.0243350603 -0.0255011283
v -0.0111546684 0.0564469099 -0.0255011283
v 4.35003312E-05 0.0247791409 -0.0171924196
v -0.00737120025 0.0225896798 -0.0297612175
v -0.00737119885 0.0285346601 -0.0203538612
v 4.34995636E-05 0.0176128391 -0.0276463497
v 4.34874928E-05 0.0176856983 -0.0750264898
v -0.00737121189 0.0227369089 -0.073169224
v 7.51808393E-09 0.0240817405 -0.0808613151
v -0.00375116197 0.029578371 -0.0784481391
v -0.0111546665 0.0564469099 -0.0104952091
v 0.011241653 0.0564469099 -0.0104952091
v 0.0112416511 0.02435215 -0.0103804506
v -0.0111546684 0.02435215 -0.0103804506
v -0.0223127678 -0.0486553386 0.101484247
v 0.0219628513 -0.0782513097 0.13339445
v -0.0218757987 -0.0782513097 0.13339445
v 0.0223997831 -0.0486553386 0.101484247
v -0.0221420974 -0.0151211983 0.079519935
v 0.0222291015 -0.0151212011 0.079519935
v 0.0220691338 0.0215809606 0.0670810789
v -0.0219821259 0.0215809606 0.0670810789
v -0.0206191745 0.0558631271 0.0615933612
v 0.0207062233 0.0558631271 0.0615933612
v -0.0145991212 0.086947985 0.312519073
v -0.0241371728 0.0774490312 0.312519073
v -0.0241371728 0.0774490312 0.298523992
v -0.014599123 0.086947985 0.298523992
v -0.0121786818 0.0987624079 0.298523992
v -0.0121786818 0.0987624079 0.312519073
v 0.000438115356 0.0530466065 0.298523992
v -0.0241371728 0.0774490312 0.298523992
v -0.0241371728 0.0774490312 0.312519073
v 0.000438115967 0.0530466065 0.312519073
v 0.0154753774 0.086947985 0.312519073
v 0.0250133872 0.0774490312 0.298523992
v 0.0250133872 0.0774490312 0.312519073
v 0.015475356 0.086947985 0.298523992
v 0.0130549269 0.0987624079 0.312519073
v 0.0130549269 0.0987624079 0.298523992
v 0.0250133872 0.0774490312 0.312519073
v 0.0250133872 0.0774490312 0.298523992
v 0.000438115356 0.0530466065 0.298523992
v 0.000438115967 0.0530466065 0.312519073
v 0.0130549269 0.0987624079 0.312519073
v -0.0145991212 0.086947985 0.312519073
v -0.0121786818 0.0987624079 0.312519073
v 0.0154753774 0.086947985 0.312519073
v -0.0241371728 0.0774490312 0.312519073
v 0.0250133872 0.0774490312 0.312519073
v 0.000438115967 0.0530466065 0.312519073
v -0.0121786818 0.0987624079 0.298523992
v 0.0130549269 0.0987624079 0.298523992
v 0.0130549269 0.0987624079 0.312519073
v -0.0121786818 0.0987624079 0.312519073
v 8.08458633E-09 0.101379879 -0.145199403
v -0.0203025416 0.0717821494 -0.145199403
v -4.64198591E-09 0.0942331553 -0.200429365
v -0.0215989556 0.0621808991 -0.201232448
v -3.93652311E-09 0.0550763495 -0.145133451
v -7.22692262E-09 0.0358496495 -0.201182306
v -0.0247165561 0.00570694124 -0.369330049
v -3.70981184E-08 -0.0218304303 -0.369328827
v -0.0288006533 0.0332443118 -0.36933127
v -0.0240549725 0.0611801557 -0.369333476
v -0.0163536463 0.0939745679 -0.217470646
v -5.07457276E-09 0.103595875 -0.219688505
v -2.20509691E-08 0.0936421379 -0.369336039
v -0.0240549725 0.0611801557 -0.369333476
v -3.46908315E-08 0.0332443081 -0.36933127
v -2.20509691E-08 0.0936421379 -0.369336039
v -0.0288006533 0.0332443118 -0.36933127
v -0.0247165561 0.00570694124 -0.369330049
v -3.70981184E-08 -0.0218304303 -0.369328827
v 8.08458633E-09 0.101379879 -0.145199403
v -4.64198591E-09 0.0942331553 -0.200429365
v 0.020302536 0.0717821494 -0.145199403
v 0.0215989314 0.0621808991 -0.201232448
v -3.93652311E-09 0.0550763495 -0.145133451
v -7.22692262E-09 0.0358496495 -0.201182306
v 0.0247164927 0.00570693891 -0.369330049
v -3.70981184E-08 -0.0218304303 -0.369328827
v 0.0288005937 0.0332443081 -0.36933127
v 0.0240549147 0.0611801557 -0.369333476
v 0.0146035748 0.0951908007 -0.217407241
v -5.07457276E-09 0.103595875 -0.219688505
v -2.20509691E-08 0.0936421379 -0.369336039
v 0.0240549147 0.0611801557 -0.369333476
v -2.20509691E-08 0.0936421379 -0.369336039
v -3.46908315E-08 0.0332443081 -0.36933127
v 0.0288005937 0.0332443081 -0.36933127
v 0.0247164927 0.00570693891 -0.369330049
v -3.70981184E-08 -0.0218304303 -0.369328827
v -0.0151691008 0.142375931 0.0877929255
v 0.0151691996 0.142375931 0.0877929255
v 0.0155761726 0.147730172 0.14985238
v -0.0154983168 0.147730172 0.14985238
v -0.0165362302 0.129668295 -0.127777502
v 0.0165362488 0.129668295 -0.127777502
v 0.0162356086 0.130031362 0.0877960697
v -0.0162355099 0.130031362 0.0877960697
v -0.0162355099 0.130031362 0.0877960697
v 0.0162356086 0.130031362 0.0877960697
v 0.0151691996 0.142375931 0.0877929255
v -0.0151691008 0.142375931 0.0877929255
v 0.013262487 0.0975578353 0.534811914
v -0.013171372 0.0975578353 0.534811914
v -0.00770904031 0.136703789 0.534811914
v 0.00780014927 0.136703789 0.534811914
v -0.0131713729 0.0977542922 0.502383173
v 0.0132624954 0.0977543071 0.502383232
v 0.00780017814 0.136525527 0.516591311
v -0.00770908082 0.136525527 0.516591311
v 0.00780017814 0.136525527 0.516591311
v 0.0132624954 0.0977543071 0.502383232
v 0.013262487 0.0975578353 0.534811914
v 0.00780014927 0.136703789 0.534811914
v -0.013171372 0.0975578353 0.534811914
v -0.0131713729 0.0977542922 0.502383173
v -0.00770908082 0.136525527 0.516591311
v -0.00770904031 0.136703789 0.534811914
vt 0.411376953 0.730957031
vt 0.386474609 0.677734375
vt 0.411376953 0.662109375
vt 0.411376953 0.730957031
vt 0.411376953 0.662109375
vt 0.386474609 0.677734375
vt 0.848144531 0.719726562
vt 0.943359375 0.719726562
vt 0.895996094 0.685058594
vt 0.947265625 0.53515625
vt 0.978515625 0.563964844
vt 0.978515625 0.506347656
vt 0.886230469 0.819824219
vt 0.90234375 0.899902344
vt 0.874023438 0.841308594
vt 0.978515625 0.563964844
vt 0.947265625 0.53515625
vt 0.978515625 0.506347656
vt 0.886230469 0.819824219
vt 0.874023438 0.841308594
vt 0.90234375 0.899902344
vt 0.705566406 0.123168945
vt 0.673339844 0.0977783203
vt 0.673339844 0.124816895
vt 0.673339844 0.0379333496
vt 0.741699219 0.0607910156
vt 0.829589844 0.119262695
vt 0.829589844 0.0249328613
vt 0.705566406 0.718261719
vt 0.861816406 0.0352478027
vt 0.829589844 0.718261719
vt 0.881347656 0.181640625
vt 0.881347656 0.678222656
vt 0.897460938 0.0352478027
vt 0.897460938 0.181640625
vt 0.691894531 0.662109375
vt 0.411376953 0.730957031
vt 0.411376953 0.662109375
vt 0.691894531 0.730957031
vt 0.368652344 0.836425781
vt 0.691894531 0.836425781
vt 0.398193359 0.888183594
vt 0.691894531 0.888183594
vt 0.639160156 0.209960938
vt 0.596191406 0.166259766
vt 0.604492188 0.209960938
vt 0.615234375 0.251708984
vt 0.663085938 0.251708984
vt 0.673828125 0.209960938
vt 0.682617188 0.166381836
vt 0.705566406 0.123168945
vt 0.673339844 0.124816895
vt 0.673339844 0.0977783203
vt 0.673339844 0.0379333496
vt 0.741699219 0.0607910156
vt 0.829589844 0.119262695
vt 0.829589844 0.0249328613
vt 0.705566406 0.718261719
vt 0.861816406 0.0352478027
vt 0.829589844 0.718261719
vt 0.881347656 0.181640625
vt 0.881347656 0.678222656
vt 0.897460938 0.0352478027
vt 0.897460938 0.181640625
vt 0.411376953 0.730957031
vt 0.691894531 0.662109375
vt 0.411376953 0.662109375
vt 0.691894531 0.730957031
vt 0.368652344 0.836425781
vt 0.691894531 0.836425781
vt 0.398193359 0.888183594
vt 0.691894531 0.888183594
vt 0.654785156 0.0786743164
vt 0.654785156 0.0170440674
vt 0.0244140625 0.0170440674
vt 0.0244140625 0.0786743164
vt 0.393798828 0.641601562
vt 0.577636719 0.641601562
vt 0.370361328 0.609863281
vt 0.577636719 0.609863281
vt 0.370849609 0.577148438
vt 0.577636719 0.577148438
vt 0.370849609 0.577148438
vt 0.330566406 0.628417969
vt 0.370361328 0.609863281
vt 0.344482422 0.637207031
vt 0.292480469 0.658203125
vt 0.908691406 0.741699219
vt 0.841796875 0.73046875
vt 0.841796875 0.808105469
vt 0.908691406 0.792480469
vt 0.214477539 0.915527344
vt 0.214477539 0.965332031
vt 0.177734375 0.915527344
vt 0.307861328 0.965332031
vt 0.348144531 0.915527344
vt 0.582519531 0.248901367
vt 0.0296478271 0.202392578
vt 0.0296478271 0.248901367
vt 0.582519531 0.202392578
vt 0.0296478271 0.163208008
vt 0.582519531 0.163208008
vt 0.393798828 0.641601562
vt 0.370361328 0.609863281
vt 0.344482422 0.637207031
vt 0.380371094 0.673828125
vt 0.292480469 0.658203125
vt 0.90234375 0.899902344
vt 0.923339844 0.969726562
vt 0.909667969 0.97265625
vt 0.900878906 0.96484375
vt 0.94140625 0.878417969
vt 0.886230469 0.819824219
vt 0.906738281 0.809570312
vt 0.90234375 0.899902344
vt 0.975097656 0.940917969
vt 0.923339844 0.969726562
vt 0.734863281 0.982421875
vt 0.702636719 0.890625
vt 0.765136719 0.965332031
vt 0.90234375 0.899902344
vt 0.900878906 0.96484375
vt 0.705566406 0.819824219
vt 0.874023438 0.841308594
vt 0.365722656 0.95703125
vt 0.419433594 0.916992188
vt 0.330566406 0.95703125
vt 0.476318359 0.95703125
vt 0.577636719 0.609863281
vt 0.370849609 0.577148438
vt 0.577636719 0.577148438
vt 0.370361328 0.609863281
vt 0.577636719 0.641601562
vt 0.393798828 0.641601562
vt 0.380371094 0.673828125
vt 0.292480469 0.658203125
vt 0.344482422 0.637207031
vt 0.393798828 0.641601562
vt 0.370361328 0.609863281
vt 0.370849609 0.577148438
vt 0.370361328 0.609863281
vt 0.330566406 0.628417969
vt 0.344482422 0.637207031
vt 0.292480469 0.658203125
vt 0.214477539 0.915527344
vt 0.177734375 0.915527344
vt 0.214477539 0.965332031
vt 0.307861328 0.965332031
vt 0.348144531 0.915527344
vt 0.0296478271 0.202392578
vt 0.582519531 0.248901367
vt 0.0296478271 0.248901367
vt 0.582519531 0.202392578
vt 0.0296478271 0.163208008
vt 0.582519531 0.163208008
vt 0.90234375 0.899902344
vt 0.909667969 0.97265625
vt 0.923339844 0.969726562
vt 0.900878906 0.96484375
vt 0.94140625 0.878417969
vt 0.906738281 0.809570312
vt 0.886230469 0.819824219
vt 0.90234375 0.899902344
vt 0.975097656 0.940917969
vt 0.923339844 0.969726562
vt 0.734863281 0.982421875
vt 0.765136719 0.965332031
vt 0.702636719 0.890625
vt 0.90234375 0.899902344
vt 0.900878906 0.96484375
vt 0.705566406 0.819824219
vt 0.874023438 0.841308594
vt 0.365722656 0.95703125
vt 0.330566406 0.95703125
vt 0.419433594 0.916992188
vt 0.476318359 0.95703125
vt 0.704101562 0.73046875
vt 0.704101562 0.808105469
vt 0.841796875 0.808105469
vt 0.841796875 0.73046875
vt 0.942871094 0.736328125
vt 0.921386719 0.736328125
vt 0.921386719 0.800292969
vt 0.942871094 0.800292969
vt 0.974121094 0.630859375
vt 0.974121094 0.661132812
vt 0.894042969 0.661132812
vt 0.894042969 0.630859375
vt 0.894042969 0.599609375
vt 0.974121094 0.599609375
vt 0.974121094 0.569335938
vt 0.922851562 0.569335938
vt 0.913574219 0.176757812
vt 0.913574219 0.137573242
vt 0.969238281 0.137573242
vt 0.969238281 0.176757812
vt 0.974121094 0.569335938
vt 0.922851562 0.569335938
vt 0.894042969 0.599609375
vt 0.974121094 0.599609375
vt 0.974121094 0.630859375
vt 0.894042969 0.630859375
vt 0.894042969 0.661132812
vt 0.974121094 0.661132812
vt 0.938476562 0.312255859
vt 0.912597656 0.297119141
vt 0.96484375 0.297119141
vt 0.899414062 0.273925781
vt 0.978027344 0.273925781
vt 0.913574219 0.250732422
vt 0.969238281 0.250732422
vt 0.978027344 0.273925781
vt 0.913574219 0.250732422
vt 0.969238281 0.250732422
vt 0.899414062 0.273925781
vt 0.96484375 0.297119141
vt 0.912597656 0.297119141
vt 0.938476562 0.312255859
vt 0.219360352 0.476074219
vt 0.343994141 0.321533203
vt 0.219360352 0.321533203
vt 0.343994141 0.476074219
vt 0.476074219 0.476074219
vt 0.476074219 0.321533203
vt 0.59375 0.476074219
vt 0.59375 0.321533203
vt 0.689941406 0.476074219
vt 0.689941406 0.321533203
vt 0.490966797 0.907226562
vt 0.642089844 0.907226562
vt 0.642089844 0.95703125
vt 0.490966797 0.95703125
vt 0.159301758 0.152587891
vt 0.0294342041 0.0887451172
vt 0.0294342041 0.152587891
vt 0.159301758 0.0887451172
vt 0.289550781 0.0887451172
vt 0.289550781 0.152587891
vt 0.433349609 0.152587891
vt 0.433349609 0.0887451172
vt 0.596679688 0.152587891
vt 0.596679688 0.0887451172
vt 0.343994141 0.321533203
vt 0.219360352 0.476074219
vt 0.219360352 0.321533203
vt 0.343994141 0.476074219
vt 0.476074219 0.476074219
vt 0.476074219 0.321533203
vt 0.59375 0.476074219
vt 0.59375 0.321533203
vt 0.689941406 0.476074219
vt 0.689941406 0.321533203
vt 0.691894531 0.899414062
vt 0.657714844 0.899414062
vt 0.657714844 0.976074219
vt 0.691894531 0.976074219
vt 0.960449219 0.866210938
vt 0.95703125 0.84375
vt 0.944335938 0.86328125
vt 0.973632812 0.848144531
vt 0.95703125 0.731933594
vt 0.973632812 0.7265625
vt 0.961425781 0.697265625
vt 0.946777344 0.705078125
vt 0.0378417969 0.360351562
vt 0.0498657227 0.327148438
vt 0.0378417969 0.327148438
vt 0.0498657227 0.360351562
vt 0.141601562 0.327148438
vt 0.141601562 0.360351562
vt 0.165649414 0.327148438
vt 0.165649414 0.360351562
vt 0.341552734 0.801757812
vt 0.374023438 0.801757812
vt 0.374023438 0.762695312
vt 0.341552734 0.762695312
vt 0.6171875 0.170898438
vt 0.653808594 0.170898438
vt 0.653808594 0.0951538086
vt 0.6171875 0.0951538086
vt 0.691894531 0.899414062
vt 0.691894531 0.976074219
vt 0.657714844 0.976074219
vt 0.657714844 0.899414062
vt 0.961425781 0.697265625
vt 0.95703125 0.731933594
vt 0.946777344 0.705078125
vt 0.973632812 0.7265625
vt 0.973632812 0.848144531
vt 0.95703125 0.84375
vt 0.960449219 0.866210938
vt 0.944335938 0.86328125
vt 0.653808594 0.0951538086
vt 0.6171875 0.0951538086
vt 0.6171875 0.170898438
vt 0.653808594 0.170898438
vt 0.567382812 0.487792969
vt 0.69140625 0.563476562
vt 0.69140625 0.487792969
vt 0.567382812 0.563476562
vt 0.451416016 0.487792969
vt 0.451416016 0.563476562
vt 0.349609375 0.563476562
vt 0.349609375 0.487792969
vt 0.247314453 0.487792969
vt 0.247314453 0.563476562
vt 0.914550781 0.104064941
vt 0.914550781 0.0728149414
vt 0.966796875 0.0728149414
vt 0.966796875 0.104064941
vt 0.966796875 0.131713867
vt 0.914550781 0.131713867
vt 0.966796875 0.0288848877
vt 0.966796875 0.0728149414
vt 0.914550781 0.0728149414
vt 0.914550781 0.0288848877
vt 0.966796875 0.104064941
vt 0.914550781 0.0728149414
vt 0.966796875 0.0728149414
vt 0.914550781 0.104064941
vt 0.966796875 0.131713867
vt 0.914550781 0.131713867
vt 0.966796875 0.0728149414
vt 0.914550781 0.0728149414
vt 0.914550781 0.0288848877
vt 0.966796875 0.0288848877
vt 0.127319336 0.958007812
vt 0.0968017578 0.932617188
vt 0.127319336 0.932617188
vt 0.0968017578 0.958007812
vt 0.0631103516 0.909179688
vt 0.0631103516 0.978027344
vt 0.022354126 0.943359375
vt 0.142211914 0.914550781
vt 0.166015625 0.914550781
vt 0.166015625 0.966796875
vt 0.142211914 0.966796875
vt 0.0372009277 0.37890625
vt 0.112243652 0.37890625
vt 0.0466003418 0.507324219
vt 0.132446289 0.509765625
vt 0.159790039 0.37890625
vt 0.205444336 0.508789062
vt 0.284667969 0.90234375
vt 0.37109375 0.90234375
vt 0.215942383 0.90234375
vt 0.149291992 0.90234375
vt 0.0500793457 0.552246094
vt 0.0240020752 0.560058594
vt 0.0450439453 0.90234375
vt 0.96875 0.382568359
vt 0.892578125 0.447998047
vt 0.892578125 0.306396484
vt 0.981445312 0.447998047
vt 0.956054688 0.512207031
vt 0.892578125 0.576660156
vt 0.0372009277 0.37890625
vt 0.0466003418 0.507324219
vt 0.112243652 0.37890625
vt 0.132446289 0.509765625
vt 0.159790039 0.37890625
vt 0.205444336 0.508789062
vt 0.284667969 0.90234375
vt 0.37109375 0.90234375
vt 0.215942383 0.90234375
vt 0.149291992 0.90234375
vt 0.0500793457 0.552246094
vt 0.0240020752 0.560058594
vt 0.0450439453 0.90234375
vt 0.96875 0.382568359
vt 0.892578125 0.306396484
vt 0.892578125 0.447998047
vt 0.981445312 0.447998047
vt 0.956054688 0.512207031
vt 0.892578125 0.576660156
vt 0.544433594 0.307617188
vt 0.544433594 0.261230469
vt 0.688964844 0.261230469
vt 0.688964844 0.307617188
vt 0.0311279297 0.307617188
vt 0.0311279297 0.261230469
vt 0.532226562 0.261230469
vt 0.532226562 0.307617188
vt 0.532226562 0.307617188
vt 0.532226562 0.261230469
vt 0.544433594 0.261230469
vt 0.544433594 0.307617188
vt 0.913574219 0.250244141
vt 0.969238281 0.250244141
vt 0.969238281 0.176635742
vt 0.913574219 0.176635742
vt 0.969238281 0.250244141
vt 0.913574219 0.250244141
vt 0.913574219 0.176757812
vt 0.969238281 0.176757812
vt 0.586914062 0.615234375
vt 0.694335938 0.650878906
vt 0.694335938 0.572265625
vt 0.586914062 0.572265625
vt 0.694335938 0.572265625
vt 0.694335938 0.650878906
vt 0.586914062 0.615234375
vt 0.586914062 0.572265625
vn -0.157202616 0.0766604245 -0.984586477
vn -0 0.0776255727 -0.996982515
vn -0 0.0776255727 -0.996982515
vn 0.157202601 0.076660417 -0.984586477
vn -0 0.0776255727 -0.996982515
vn -0 0.0776255727 -0.996982515
vn -0 0.209618062 -0.977783382
vn -0 0.209618062 -0.977783382
vn -0 0.209618062 -0.977783382
vn -0 0 1
vn -0 0 1
vn -0 0 1
vn -0 -0.586569011 -0.809899271
vn -0.78258431 -0.60765022 -0.135362923
vn -0 -0.58656913 -0.809899211
vn -0 0 1
vn -0 0 1
vn -0 0 1
vn -0 -0.586569011 -0.809899271
vn -0 -0.58656913 -0.809899211
vn 0.78258431 -0.60765022 -0.135362506
vn -0.925483644 -0.36063692 0.115849413
vn -0.686256409 -0.713564157 0.140990943
vn -0.659622014 -0.751541734 -0.00915763061
vn -0.765261829 -0.622221649 0.164968416
vn -0.984064221 -0.17775622 0.00451714499
vn -0.963572383 0.266138762 -0.026426293
vn -0.926248133 0.37518698 0.0360441729
vn -0.998893201 -0.0464315303 -0.00751852617
vn -0.944504261 0.328468353 -0.00450510951
vn -0.985349476 0.170449704 -0.0057672346
vn -0.912861049 0.407758504 -0.0204392094
vn -0.855585456 0.517656922 -0.00218837685
vn -0.980035365 0.193966478 -0.0436780564
vn -0.980035365 0.193966478 -0.0436780564
vn -0.712581694 0.700921595 0.0305973962
vn -0.926248133 0.37518698 0.0360441729
vn -0.712581754 0.700921595 0.0305973962
vn -0.883036494 0.468333334 0.0301736183
vn -0.984064221 -0.17775622 0.00451714499
vn -0.973392487 -0.228027791 0.0225914326
vn -0.765261829 -0.622221649 0.164968416
vn -0.7991032 -0.601070881 0.0121597452
vn -7.10899476E-05 0.168706879 0.985666215
vn -0.129330128 0.396751374 0.908769548
vn -0.127682671 0.267131567 0.955163717
vn -0.0571876094 0.10458862 0.992869914
vn 0.0572250821 0.104364187 0.992891431
vn 0.127675131 0.266778827 0.955263376
vn 0.129330203 0.396751225 0.908769548
vn 0.925483584 -0.360637069 0.115849197
vn 0.659621656 -0.751541972 -0.00915768836
vn 0.686256111 -0.713564515 0.140990555
vn 0.765261769 -0.622221887 0.164968088
vn 0.984064221 -0.177756205 0.00451695127
vn 0.963572502 0.266138256 -0.0264264271
vn 0.926248252 0.375186652 0.0360440463
vn 0.998893201 -0.0464315489 -0.00751875062
vn 0.944791615 0.327637255 -0.00477170944
vn 0.985349596 0.170449376 -0.00576748
vn 0.913158357 0.407080531 -0.0206707995
vn 0.855585992 0.517656147 -0.00218863226
vn 0.980415642 0.19189018 -0.0443098284
vn 0.980415642 0.191890165 -0.0443098284
vn 0.926248252 0.375186652 0.0360440463
vn 0.712581992 0.700921297 0.0305972416
vn 0.712581933 0.700921297 0.0305972453
vn 0.883036375 0.468333572 0.0301733483
vn 0.984064221 -0.177756205 0.00451695127
vn 0.973392606 -0.228027433 0.0225911103
vn 0.765261769 -0.622221887 0.164968088
vn 0.799102962 -0.601071179 0.0121595822
vn -0 -1 0
vn -0 -1 0
vn -0 -1 0
vn -0 -1 0
vn -9.20732873E-07 -0.999999285 -0.00124430563
vn -1.3083573E-07 -0.999789178 0.0205358379
vn -0.972667456 0.230380058 0.0290328804
vn -0.999646306 -0.0139013845 0.0226737633
vn -0 0.999580562 0.0289593488
vn 3.30091865E-07 0.999999642 -0.000864333531
vn -0 0.401687533 0.915776789
vn 1.57219881E-06 0.528055668 0.849209666
vn -0.330007285 0.335710287 0.882266283
vn -0.439421892 0.385463119 0.811373353
vn 1.37940049E-06 0.695879221 0.718158901
vn -0 0.652184248 -0.758060515
vn -0 0.652184248 -0.758060515
vn -0 0.652184248 -0.758060515
vn -0 0.652184248 -0.758060515
vn -0 -7.25947757E-07 1
vn 1.18655919E-06 -3.22823183E-07 1
vn -0 -1.75310208E-06 1
vn 9.78611752E-07 2.91806799E-07 1
vn -0 2.91806714E-07 1
vn 8.3900801E-07 0.999856114 -0.016965678
vn -0.998634756 0.0509458818 -0.0115365935
vn 9.28695329E-07 0.999856114 -0.016965678
vn -0.998143911 0.059785746 -0.0115982564
vn 5.03958574E-07 -0.999991536 -0.0041195713
vn 5.06801598E-07 -0.999991536 -0.0041195727
vn -0.699422538 -0.077977106 -0.710441828
vn -0.661478162 -0.182616234 -0.727391243
vn -0.791797996 -0.404742688 -0.457426816
vn -0.823996663 -0.402413547 -0.398864478
vn -0.704327106 -0.709723175 0.0147047304
vn -0.78258431 -0.60765022 -0.135362923
vn -0.524684966 0.0634357408 0.848929644
vn -0 -0.945701003 0.325038046
vn -0 -0.97483182 0.222941637
vn -0.999416947 -0.00445501925 -0.0338509455
vn -2.89034176E-07 -0.01561769 -0.999878049
vn -1.8616312E-07 -0.0156176882 -0.999878049
vn -0.996838808 -0.0170349367 0.0776023045
vn -0.872163475 0.000828858349 0.489213735
vn -0.958965361 -0.254425555 -0.125111938
vn 4.20739752E-07 0.00422383239 0.999991059
vn -0.990322411 0.0989494771 -0.0973172933
vn 1.91381957E-07 -0.384764552 0.9230147
vn -0.996838808 -0.0170349367 0.0776023045
vn -0 -0.517119467 0.855913222
vn -2.40289978E-07 0.55197525 -0.833860576
vn -0 0.596840143 -0.802360237
vn 1.41530137E-07 -0.999965906 -0.00826335978
vn -0.0856740102 -0.910370886 -0.404826939
vn -0 -0.982443571 0.186559856
vn -3.97864625E-07 -0.871242106 -0.490853518
vn 0.999646306 -0.0139013045 0.0226731226
vn -0 0.999580562 0.0289593488
vn 3.30091865E-07 0.999999642 -0.000864333531
vn 0.972667575 0.230379805 0.0290321913
vn -1.3083573E-07 -0.999789178 0.0205358379
vn -9.20732873E-07 -0.999999285 -0.00124430563
vn 0.823996484 -0.402413547 -0.398864776
vn 0.704327524 -0.709722817 0.0147042125
vn 0.791797519 -0.40474242 -0.45742777
vn 0.699421823 -0.0779776126 -0.710442543
vn 0.66147697 -0.182617143 -0.727391958
vn -0 0.401687533 0.915776789
vn 0.330008209 0.335708976 0.882266462
vn 1.57219881E-06 0.528055668 0.849209666
vn 0.439425528 0.38545981 0.811372876
vn 1.37940049E-06 0.695879221 0.718158901
vn -0 -7.25947757E-07 1
vn -0 -1.75310208E-06 1
vn -1.09913663E-06 -3.22823325E-07 1
vn -8.91188733E-07 2.918066E-07 1
vn -0 2.91806714E-07 1
vn 0.99863404 0.0509461984 -0.0115954839
vn 8.3900801E-07 0.999856114 -0.016965678
vn 9.28695329E-07 0.999856114 -0.016965678
vn 0.998143554 0.0597803667 -0.0116570788
vn 5.03958574E-07 -0.999991536 -0.0041195713
vn 5.06801598E-07 -0.999991536 -0.0041195727
vn 0.78258431 -0.60765022 -0.135362506
vn -0 -0.945701003 0.325038046
vn 0.523347378 0.0654632449 0.84960103
vn -0 -0.97483182 0.222941637
vn 0.999416947 -0.00445554499 -0.0338512883
vn -1.8616312E-07 -0.0156176882 -0.999878049
vn -2.89034176E-07 -0.01561769 -0.999878049
vn 0.996838808 -0.0170353502 0.0776023567
vn 0.872163296 0.000828635821 0.489214092
vn 0.958815753 -0.252730995 -0.12961252
vn 4.20739752E-07 0.00422383239 0.999991059
vn 1.91381957E-07 -0.384764552 0.9230147
vn 0.990322292 0.0989494845 -0.0973180085
vn 0.996838808 -0.0170353502 0.0776023567
vn -0 -0.517119467 0.855913222
vn -2.40289978E-07 0.55197525 -0.833860576
vn -0 0.596840143 -0.802360237
vn 1.41530137E-07 -0.999965906 -0.00826335978
vn -0 -0.982443571 0.186559856
vn 0.0856731534 -0.910370886 -0.404827118
vn -3.97864625E-07 -0.871242106 -0.490853518
vn -0 -4.61500917E-07 -1
vn -0 -4.61500974E-07 -1
vn -0 -4.61500974E-07 -1
vn -0 -4.61500917E-07 -1
vn 1.29176033E-06 -0.0022555925 0.999997497
vn 1.29176044E-06 -0.0022555925 0.999997497
vn 1.29176021E-06 -0.0022555925 0.999997497
vn 1.29176033E-06 -0.0022555925 0.999997497
vn 0.985639036 0.168860629 0.00137164793
vn 0.923557699 0.383456707 0.00144430529
vn 0.911539793 0.411208719 0.00160561991
vn 0.985169947 0.171577886 0.00103394291
vn 0.754036725 -0.656832159 -0.00033568521
vn 0.754019618 -0.656851947 0
vn 2.48613796E-05 -1 0
vn 2.47792104E-05 -1 0
vn -0 0.999952197 -0.00978299044
vn -0 0.999952197 -0.00978299044
vn -0 0.999952197 -0.00978299044
vn -0 0.999952197 -0.00978299044
vn 2.48613796E-05 -1 0
vn 2.47792104E-05 -1 0
vn -0.753995299 -0.656879663 -0.000335696328
vn -0.753977954 -0.656899631 0
vn -0.985649407 0.168799475 0.00137148809
vn -0.985180616 0.171517313 0.00103370042
vn -0.911550879 0.411184281 0.00160546426
vn -0.923566937 0.383434623 0.00144417339
vn -0 0.012670381 -0.999919772
vn -0 0.00106816576 -0.999999404
vn -0 0.00106782606 -0.999999404
vn 1.54936529E-07 -0.00161029655 -0.999998689
vn 1.5494922E-07 -0.00161029259 -0.999998689
vn 5.65742141E-07 0.136600837 -0.990626216
vn 5.65744017E-07 0.136602566 -0.990625978
vn -0 0 1
vn -0 -3.82341426E-07 1
vn -0 -3.82336367E-07 1
vn -0 0 1
vn -0 0 1
vn -0 0 1
vn -0 0 1
vn 0.999989152 -0.00439373683 0.00159085845
vn 0.999995589 -0.00265083276 -0.00138892164
vn 0.999989152 -0.00439373683 0.00159085845
vn 0.999995589 -0.00259948033 -0.00147671578
vn 0.999994278 8.94129262E-05 -0.00340418587
vn 0.999994516 0.000157124348 -0.00332787354
vn 0.999953389 0.00933981035 0.00244184514
vn 0.999945879 0.0100155016 0.00282742153
vn 0.999807298 0.0181529559 0.00747110927
vn 0.999807298 0.0181529559 0.00747110927
vn -0 -0.540309548 0.841466308
vn -0 -0.540309548 0.841466308
vn -0 -0.540309668 0.841466308
vn -0 -0.540309608 0.841466308
vn -1.62940054E-07 -0.251714975 -0.967801452
vn -1.61849755E-07 -0.1997834 -0.9798401
vn -1.61849769E-07 -0.1997834 -0.9798401
vn -1.62940069E-07 -0.251714975 -0.967801452
vn -1.12607424E-07 -0.41399318 -0.910279989
vn -1.12607424E-07 -0.41399318 -0.910279989
vn -0 -0.645101666 -0.764096677
vn -0 -0.645101666 -0.764096677
vn -0 -0.755493402 -0.655156314
vn -0 -0.755493402 -0.655156314
vn -0.999995589 -0.00265054381 -0.00138827018
vn -0.999989152 -0.00439334428 0.00159169885
vn -0.999989152 -0.00439334428 0.00159169885
vn -0.999995589 -0.00259919395 -0.00147607015
vn -0.999994278 8.95913618E-05 -0.00340377958
vn -0.999994516 0.000157302435 -0.00332747074
vn -0.999953389 0.00934032816 0.00244224165
vn -0.999945879 0.0100160474 0.00282782177
vn -0.999807298 0.0181538407 0.00747155352
vn -0.999807298 0.0181538407 0.00747155398
vn 1 0 0
vn 1 0 0
vn 1 0 0
vn 1 0 0
vn -0.00256082485 -0.502795935 -0.86440134
vn 0.645368278 -0.682065189 -0.343928605
vn 0.958815753 -0.252730995 -0.12961252
vn 0.00067846704 -0.882204175 -0.470866472
vn 0.579921365 -0.783478379 0.223277465
vn -1.77187871E-07 -0.954645097 0.297746122
vn -0 -0.834554851 0.550924897
vn 0.566501081 -0.687724113 0.453995585
vn -0 0.845347345 -0.534217179
vn -0 0.961029232 -0.276446879
vn -0 0.845347345 -0.534217119
vn -0 0.961029232 -0.27644679
vn 2.17654531E-07 0.926364839 0.376627326
vn 2.18389459E-07 0.925709069 0.378236294
vn 0.523347378 0.0654632449 0.84960103
vn -0.524684966 0.0634357408 0.848929644
vn -5.44950162E-05 -0.999999285 0.00121088116
vn -5.44950162E-05 -0.999999285 0.00121088116
vn -5.4495009E-05 -0.999999285 0.00121088105
vn -5.44950162E-05 -0.999999285 0.00121088105
vn -0 0 -1
vn -0 0 -1
vn -0 0 -1
vn -0 0 -1
vn -1 0 0
vn -1 0 0
vn -1 0 0
vn -1 0 0
vn -0 -0.834554851 0.550924897
vn -0.579921722 -0.783478141 0.223277614
vn -0.566501319 -0.687723875 0.453995794
vn -1.77187871E-07 -0.954645097 0.297746122
vn 0.00067846704 -0.882204175 -0.470866472
vn -0.645698667 -0.682643771 -0.342155963
vn -0.00256082485 -0.502795935 -0.86440134
vn -0.958965361 -0.254425555 -0.125111938
vn -0 0.00357561442 0.999993682
vn -0 0.00357561442 0.999993682
vn -0 0.00357561442 0.999993682
vn -0 0.00357561442 0.999993682
vn -0 0.645144641 0.764060438
vn -0 0.733193517 0.680019975
vn -0 0.733193457 0.680020034
vn -0 0.645144641 0.764060438
vn -0 0.438255668 0.898850441
vn -0 0.438255668 0.898850441
vn -0 0.241510317 0.970398188
vn -0 0.241510347 0.970398188
vn -0 0.158062741 0.987429082
vn -0 0.158062726 0.987429082
vn -0.880080998 0.474823684 0
vn -0.705653071 0.708557487 0
vn -0.705653071 0.708557487 0
vn -0.880080998 0.474823684 0
vn -0.632177532 0.774823487 0
vn -0.632177532 0.774823487 0
vn 1.70187178E-07 -1 0
vn -0.704606712 -0.709598064 0
vn -0.704606712 -0.709598064 0
vn 1.70187178E-07 -1 0
vn 0.880081236 0.474823028 -6.7372747E-07
vn 0.705654263 0.708556294 -5.41021222E-07
vn 0.705654263 0.708556294 -5.41021222E-07
vn 0.880081415 0.474822849 -6.73727584E-07
vn 0.632177651 0.774823487 -4.83419228E-07
vn 0.632177651 0.774823487 -4.83419228E-07
vn 0.704606831 -0.709597886 0
vn 0.704606831 -0.709597886 0
vn 1.70187178E-07 -1 0
vn 1.70187178E-07 -1 0
vn -0 0 1
vn -0 0 1
vn -0 0 1
vn -0 0 1
vn -0 0 1
vn -0 0 1
vn -0 0 1
vn -0.632177532 0.774823487 0
vn 0.632177651 0.774823487 -4.83419228E-07
vn 0.632177651 0.774823487 -4.83419228E-07
vn -0.632177532 0.774823487 0
vn 2.52340698E-07 0.991731584 -0.128329441
vn -0.998074412 -0.0194613859 0.0588949062
vn 0.00426044129 0.917865515 0.396868736
vn -0.974967539 -0.138161093 0.174211994
vn -0 -0.965649188 0.259849429
vn -0 -0.953016639 0.302917868
vn -0.871547103 -0.461259484 0.166268796
vn -1.25049922E-07 -0.94589442 0.324474543
vn -0.999014735 -0.00644109072 0.0439086184
vn -0.926513016 0.375978827 -0.0146165788
vn -0.772789598 0.602069259 0.200770795
vn -0.00467371242 0.994128108 0.108108886
vn 1.63825035E-07 0.997795224 -0.066367887
vn 1.51721053E-07 -7.903191E-05 -1
vn -0 -6.17078258E-05 -1
vn -0 -7.89493788E-05 -1
vn -0 -6.16348116E-05 -1
vn -0 -4.43289646E-05 -1
vn -0 -4.43289719E-05 -1
vn 2.52340698E-07 0.991731584 -0.128329441
vn 0.00426044129 0.917865515 0.396868736
vn 0.998074532 -0.0194616411 0.0588946231
vn 0.977156043 -0.130925089 0.167405918
vn -0 -0.965649188 0.259849429
vn -0 -0.953016639 0.302917868
vn 0.871547043 -0.461259633 0.166268602
vn -1.25049922E-07 -0.94589442 0.324474543
vn 0.999014854 -0.00644117408 0.0439083986
vn 0.926486194 0.37606895 -0.0139836548
vn 0.756191611 0.624326527 0.195935458
vn -0.00467371242 0.994128108 0.108108886
vn 1.63825035E-07 0.997795224 -0.066367887
vn -2.39150722E-07 -7.90319027E-05 -1
vn -0 -7.89493788E-05 -1
vn -0 -6.17078258E-05 -1
vn -0 -6.16348116E-05 -1
vn -0 -4.43289646E-05 -1
vn -0 -4.43289719E-05 -1
vn -0 0.99629885 -0.0859565437
vn -0 0.99629885 -0.0859565437
vn -0 0.99629885 -0.0859565511
vn -0 0.99629885 -0.0859565437
vn -0 0.999998569 -0.00168417348
vn -0 0.999998569 -0.00168417348
vn -0 0.999998569 -0.00168417348
vn -0 0.999998569 -0.00168417348
vn -0 -0.000254167506 -1
vn -0 -0.000254167506 -1
vn -0 -0.000254167477 -1
vn -0 -0.000254167477 -1
vn -0 -3.82336367E-07 1
vn -0 -3.82341426E-07 1
vn -0 -9.7448094E-07 1
vn -0 -9.7448094E-07 1
vn 5.65744017E-07 0.136602566 -0.990625978
vn 5.65742141E-07 0.136600837 -0.990626216
vn 7.58659098E-07 0.344083339 -0.938939154
vn 7.58659041E-07 0.344083309 -0.938939154
vn 0.990314662 0.138841376 5.06339529E-05
vn 0.911539793 0.411208719 0.00160561991
vn 0.923557699 0.383456707 0.00144430529
vn 0.990314662 0.138841376 5.06339529E-05
vn -0.923566937 0.383434623 0.00144417339
vn -0.911550879 0.411184281 0.00160546426
vn -0.990314662 0.138840958 5.07055302E-05
vn -0.990314662 0.138840958 5.07055229E-05
g jianglidaoju_AK_lod1_0
f 3/3/3 2/2/2 1/1/1
f 6/6/6 5/5/5 4/4/4
f 9/9/9 8/8/8 7/7/7
f 12/12/12 11/11/11 10/10/10
f 15/15/15 14/14/14 13/13/13
f 18/18/18 17/17/17 16/16/16
f 21/21/21 20/20/20 19/19/19
f 24/24/24 23/23/23 22/22/22
f 25/25/25 22/22/22 23/23/23
f 25/25/25 26/26/26 22/22/22
f 27/27/27 22/22/22 26/26/26
f 27/27/27 26/26/26 28/28/28
f 22/22/22 27/27/27 29/29/29
f 27/27/27 28/28/28 30/30/30
f 27/27/27 31/31/31 29/29/29
f 27/27/27 30/30/30 32/32/32
f 31/31/31 27/27/27 32/32/32
f 33/33/33 31/31/31 32/32/32
f 30/30/30 34/34/34 32/32/32
f 34/34/34 35/35/35 32/32/32
f 38/38/38 37/37/37 36/36/36
f 37/37/37 39/39/39 36/36/36
f 37/37/37 40/40/40 39/39/39
f 40/40/40 41/41/41 39/39/39
f 40/40/40 42/42/42 41/41/41
f 42/42/42 43/43/43 41/41/41
f 46/46/46 45/45/45 44/44/44
f 47/47/47 46/46/46 44/44/44
f 44/44/44 48/48/48 47/47/47
f 48/48/48 44/44/44 49/49/49
f 50/50/50 49/49/49 44/44/44
f 53/53/53 52/52/52 51/51/51
f 51/51/51 54/54/54 53/53/53
f 55/55/55 54/54/54 51/51/51
f 51/51/51 56/56/56 55/55/55
f 55/55/55 56/56/56 57/57/57
f 56/56/56 51/51/51 58/58/58
f 57/57/57 56/56/56 59/59/59
f 60/60/60 56/56/56 58/58/58
f 56/56/56 61/61/61 59/59/59
f 56/56/56 60/60/60 61/61/61
f 60/60/60 62/62/62 61/61/61
f 59/59/59 61/61/61 63/63/63
f 61/61/61 64/64/64 63/63/63
f 67/67/67 66/66/66 65/65/65
f 66/66/66 68/68/68 65/65/65
f 69/69/69 65/65/65 68/68/68
f 70/70/70 69/69/69 68/68/68
f 71/71/71 69/69/69 70/70/70
f 72/72/72 71/71/71 70/70/70
f 75/75/75 74/74/74 73/73/73
f 76/76/76 75/75/75 73/73/73
f 79/79/79 78/78/78 77/77/77
f 79/79/79 80/80/80 78/78/78
f 79/79/79 81/81/81 80/80/80
f 81/81/81 82/82/82 80/80/80
f 85/85/85 84/84/84 83/83/83
f 86/86/86 84/84/84 85/85/85
f 87/87/87 84/84/84 86/86/86
f 90/90/90 89/89/89 88/88/88
f 91/91/91 90/90/90 88/88/88
f 94/94/94 93/93/93 92/92/92
f 92/92/92 93/93/93 95/95/95
f 96/96/96 92/92/92 95/95/95
f 99/99/99 98/98/98 97/97/97
f 98/98/98 100/100/100 97/97/97
f 98/98/98 101/101/101 100/100/100
f 101/101/101 102/102/102 100/100/100
f 105/105/105 104/104/104 103/103/103
f 105/105/105 103/103/103 106/106/106
f 107/107/107 105/105/105 106/106/106
f 110/110/110 109/109/109 108/108/108
f 111/111/111 110/110/110 108/108/108
f 114/114/114 113/113/113 112/112/112
f 113/113/113 115/115/115 112/112/112
f 116/116/116 112/112/112 115/115/115
f 117/117/117 116/116/116 115/115/115
f 120/120/120 119/119/119 118/118/118
f 119/119/119 120/120/120 121/121/121
f 120/120/120 122/122/122 121/121/121
f 119/119/119 121/121/121 123/123/123
f 123/123/123 121/121/121 124/124/124
f 127/127/127 126/126/126 125/125/125
f 125/125/125 126/126/126 128/128/128
f 131/131/131 130/130/130 129/129/129
f 130/130/130 132/132/132 129/129/129
f 133/133/133 129/129/129 132/132/132
f 133/133/133 132/132/132 134/134/134
f 137/137/137 136/136/136 135/135/135
f 138/138/138 137/137/137 135/135/135
f 139/139/139 137/137/137 138/138/138
f 142/142/142 141/141/141 140/140/140
f 143/143/143 141/141/141 142/142/142
f 144/144/144 143/143/143 142/142/142
f 147/147/147 146/146/146 145/145/145
f 147/147/147 145/145/145 148/148/148
f 145/145/145 149/149/149 148/148/148
f 152/152/152 151/151/151 150/150/150
f 151/151/151 153/153/153 150/150/150
f 150/150/150 153/153/153 154/154/154
f 153/153/153 155/155/155 154/154/154
f 158/158/158 157/157/157 156/156/156
f 157/157/157 159/159/159 156/156/156
f 162/162/162 161/161/161 160/160/160
f 163/163/163 162/162/162 160/160/160
f 160/160/160 164/164/164 163/163/163
f 164/164/164 165/165/165 163/163/163
f 168/168/168 167/167/167 166/166/166
f 167/167/167 168/168/168 169/169/169
f 170/170/170 167/167/167 169/169/169
f 168/168/168 171/171/171 169/169/169
f 169/169/169 171/171/171 172/172/172
f 175/175/175 174/174/174 173/173/173
f 175/175/175 173/173/173 176/176/176
f 179/179/179 178/178/178 177/177/177
f 180/180/180 179/179/179 177/177/177
f 183/183/183 182/182/182 181/181/181
f 184/184/184 183/183/183 181/181/181
f 187/187/187 186/186/186 185/185/185
f 188/188/188 187/187/187 185/185/185
f 189/189/189 188/188/188 185/185/185
f 190/190/190 189/189/189 185/185/185
f 189/189/189 190/190/190 191/191/191
f 192/192/192 189/189/189 191/191/191
f 195/195/195 194/194/194 193/193/193
f 196/196/196 195/195/195 193/193/193
f 199/199/199 198/198/198 197/197/197
f 200/200/200 199/199/199 197/197/197
f 201/201/201 199/199/199 200/200/200
f 202/202/202 199/199/199 201/201/201
f 202/202/202 201/201/201 203/203/203
f 201/201/201 204/204/204 203/203/203
f 207/207/207 206/206/206 205/205/205
f 206/206/206 207/207/207 208/208/208
f 207/207/207 209/209/209 208/208/208
f 208/208/208 209/209/209 210/210/210
f 209/209/209 211/211/211 210/210/210
f 214/214/214 213/213/213 212/212/212
f 213/213/213 215/215/215 212/212/212
f 212/212/212 215/215/215 216/216/216
f 215/215/215 217/217/217 216/216/216
f 218/218/218 216/216/216 217/217/217
f 221/221/221 220/220/220 219/219/219
f 220/220/220 222/222/222 219/219/219
f 223/223/223 222/222/222 220/220/220
f 224/224/224 223/223/223 220/220/220
f 223/223/223 224/224/224 225/225/225
f 224/224/224 226/226/226 225/225/225
f 227/227/227 225/225/225 226/226/226
f 228/228/228 227/227/227 226/226/226
f 231/231/231 230/230/230 229/229/229
f 232/232/232 231/231/231 229/229/229
f 235/235/235 234/234/234 233/233/233
f 234/234/234 236/236/236 233/233/233
f 233/233/233 236/236/236 237/237/237
f 238/238/238 233/233/233 237/237/237
f 238/238/238 237/237/237 239/239/239
f 237/237/237 240/240/240 239/239/239
f 239/239/239 240/240/240 241/241/241
f 240/240/240 242/242/242 241/241/241
f 245/245/245 244/244/244 243/243/243
f 244/244/244 246/246/246 243/243/243
f 243/243/243 246/246/246 247/247/247
f 248/248/248 243/243/243 247/247/247
f 248/248/248 247/247/247 249/249/249
f 250/250/250 248/248/248 249/249/249
f 250/250/250 249/249/249 251/251/251
f 252/252/252 250/250/250 251/251/251
f 255/255/255 254/254/254 253/253/253
f 256/256/256 255/255/255 253/253/253
f 259/259/259 258/258/258 257/257/257
f 258/258/258 260/260/260 257/257/257
f 258/258/258 261/261/261 260/260/260
f 261/261/261 262/262/262 260/260/260
f 262/262/262 261/261/261 263/263/263
f 261/261/261 264/264/264 263/263/263
f 267/267/267 266/266/266 265/265/265
f 266/266/266 268/268/268 265/265/265
f 266/266/266 269/269/269 268/268/268
f 269/269/269 270/270/270 268/268/268
f 269/269/269 271/271/271 270/270/270
f 271/271/271 272/272/272 270/270/270
f 275/275/275 274/274/274 273/273/273
f 276/276/276 275/275/275 273/273/273
f 279/279/279 278/278/278 277/277/277
f 280/280/280 279/279/279 277/277/277
f 283/283/283 282/282/282 281/281/281
f 284/284/284 283/283/283 281/281/281
f 287/287/287 286/286/286 285/285/285
f 286/286/286 288/288/288 285/285/285
f 289/289/289 288/288/288 286/286/286
f 290/290/290 289/289/289 286/286/286
f 289/289/289 290/290/290 291/291/291
f 290/290/290 292/292/292 291/291/291
f 295/295/295 294/294/294 293/293/293
f 296/296/296 295/295/295 293/293/293
f 299/299/299 298/298/298 297/297/297
f 298/298/298 300/300/300 297/297/297
f 301/301/301 297/297/297 300/300/300
f 302/302/302 301/301/301 300/300/300
f 302/302/302 303/303/303 301/301/301
f 303/303/303 304/304/304 301/301/301
f 304/304/304 303/303/303 305/305/305
f 303/303/303 306/306/306 305/305/305
f 309/309/309 308/308/308 307/307/307
f 310/310/310 309/309/309 307/307/307
f 310/310/310 307/307/307 311/311/311
f 307/307/307 312/312/312 311/311/311
f 315/315/315 314/314/314 313/313/313
f 316/316/316 315/315/315 313/313/313
f 319/319/319 318/318/318 317/317/317
f 318/318/318 320/320/320 317/317/317
f 317/317/317 320/320/320 321/321/321
f 320/320/320 322/322/322 321/321/321
f 325/325/325 324/324/324 323/323/323
f 326/326/326 325/325/325 323/323/323
f 329/329/329 328/328/328 327/327/327
f 328/328/328 330/330/330 327/327/327
f 328/328/328 331/331/331 330/330/330
f 331/331/331 332/332/332 330/330/330
f 333/333/333 332/332/332 331/331/331
f 336/336/336 335/335/335 334/334/334
f 337/337/337 336/336/336 334/334/334
f 340/340/340 339/339/339 338/338/338
f 340/340/340 341/341/341 339/339/339
f 339/339/339 341/341/341 342/342/342
f 341/341/341 343/343/343 342/342/342
f 343/343/343 341/341/341 344/344/344
f 345/345/345 343/343/343 344/344/344
f 344/344/344 341/341/341 346/346/346
f 347/347/347 346/346/346 341/341/341
f 348/348/348 341/341/341 340/340/340
f 347/347/347 341/341/341 348/348/348
f 349/349/349 348/348/348 340/340/340
f 347/347/347 348/348/348 349/349/349
f 350/350/350 347/347/347 349/349/349
f 353/353/353 352/352/352 351/351/351
f 351/351/351 352/352/352 354/354/354
f 355/355/355 354/354/354 352/352/352
f 356/356/356 355/355/355 352/352/352
f 359/359/359 358/358/358 357/357/357
f 360/360/360 358/358/358 359/359/359
f 359/359/359 361/361/361 360/360/360
f 361/361/361 362/362/362 360/360/360
f 360/360/360 362/362/362 363/363/363
f 362/362/362 364/364/364 363/363/363
f 360/360/360 363/363/363 365/365/365
f 366/366/366 360/360/360 365/365/365
f 367/367/367 358/358/358 360/360/360
f 366/366/366 367/367/367 360/360/360
f 358/358/358 367/367/367 368/368/368
f 368/368/368 367/367/367 366/366/366
f 366/366/366 369/369/369 368/368/368
f 372/372/372 371/371/371 370/370/370
f 372/372/372 370/370/370 373/373/373
f 373/373/373 374/374/374 372/372/372
f 374/374/374 375/375/375 372/372/372
f 378/378/378 377/377/377 376/376/376
f 379/379/379 378/378/378 376/376/376
f 382/382/382 381/381/381 380/380/380
f 383/383/383 382/382/382 380/380/380
f 386/386/386 385/385/385 384/384/384
f 387/387/387 386/386/386 384/384/384
f 390/390/390 389/389/389 388/388/388
f 391/391/391 390/390/390 388/388/388
f 394/394/394 393/393/393 392/392/392
f 395/395/395 394/394/394 392/392/392
f 398/398/398 397/397/397 396/396/396
f 399/399/399 398/398/398 396/396/396
f 402/402/402 401/401/401 400/400/400
f 403/403/403 402/402/402 400/400/400
