g 1
v -0.159122825 -0.148958176 0.260790884
v -0.185089692 -0.161560565 0.233097911
v -0.162370786 -0.167221159 0.221339256
v -0.139179513 -0.156607106 0.250401676
v -0.107189097 -0.123753391 0.316176862
v -0.11883802 -0.163305342 0.240287825
v -0.139285102 -0.171852008 0.210047424
v -0.0927969888 -0.135379001 0.308526516
v -0.0552553535 -0.0985486209 0.371562839
v -0.046414461 -0.114150897 0.366651386
v -0.0779438689 -0.146211952 0.300768763
v -0.0370496847 -0.129118547 0.361249596
v -0.0266371742 -0.142816991 0.354867309
v -0.0977001637 -0.16810213 0.230724856
v -0.115465917 -0.174423411 0.199689224
v -0.0621686727 -0.155459553 0.292796105
v -0.0765271336 -0.170717254 0.221941024
v -0.092083551 -0.174628496 0.190646932
v -0.0454143137 -0.16289486 0.284529209
v -0.0143014807 -0.155072421 0.347117364
v 0.000832831836 -0.16571106 0.337612718
v -0.0560800917 -0.170870602 0.214164734
v -0.0703083202 -0.172160491 0.18330276
v -0.0276236366 -0.168290839 0.275888741
v -0.0362083875 -0.168960452 0.207162067
v -0.0497212783 -0.167615771 0.177265778
v -0.00918261521 -0.171649858 0.26695466
v 0.0178431608 -0.17433919 0.326747239
v 0.035806898 -0.180563137 0.314914912
v -0.0167613328 -0.165385261 0.200699031
v -0.0299033951 -0.161590785 0.172145084
v 0.00952278078 -0.172974214 0.257806987
v 0.00177025551 -0.160278812 0.194869041
v -0.0115223546 -0.154366046 0.168097302
v 0.0283554699 -0.172104418 0.248412475
v 0.0549406894 -0.18392995 0.301955879
v 0.075461179 -0.183986664 0.287710249
v 0.0188955739 -0.153775036 0.189765319
v 0.00475417124 -0.146222129 0.16527912
v 0.0471783727 -0.168880865 0.238737792
v 0.0350629799 -0.145748362 0.185022414
v 0.019854933 -0.136958018 0.163082197
v 0.0654790699 -0.16332908 0.228902817
v 0.0958951563 -0.180909738 0.272783279
v 0.114769436 -0.174875706 0.257780194
v 0.050720837 -0.136073306 0.180274695
v 0.0347086862 -0.12637271 0.160898313
v 0.0827451423 -0.155474514 0.219027445
v 0.0651680455 -0.125337973 0.175783932
v 0.0483028777 -0.115332946 0.159163654
v 0.0988983884 -0.145348057 0.209024459
v 0.132628739 -0.165358126 0.242265031
v 0.150017709 -0.151830569 0.225801691
v 0.0777035132 -0.11413046 0.171811819
v 0.0596249625 -0.104705423 0.158314347
v 0.113860615 -0.132980511 0.198806763
v 0.0888726488 -0.101775542 0.16779992
v 0.0697701499 -0.0932832062 0.157420874
v 0.127077609 -0.118760221 0.188558042
v 0.165282607 -0.13574487 0.209316149
v 0.176769599 -0.118552819 0.193734318
v 0.0992208719 -0.0875980183 0.163189843
v 0.0798336864 -0.0798593238 0.155553713
v 0.137995243 -0.103075422 0.178462058
v 0.108036429 -0.0725530237 0.158360466
v 0.0888000727 -0.0658462793 0.153345451
v 0.146509156 -0.08596652 0.168390542
v 0.184981883 -0.099379994 0.178420573
v 0.190422595 -0.0773520097 0.162739366
v 0.11460758 -0.0575956702 0.153690785
v 0.0956538245 -0.0526565872 0.151428655
v 0.152515084 -0.0674738362 0.158215076
v 0.119135417 -0.0424012542 0.148838043
v 0.10080523 -0.0395095199 0.149232388
v 0.155795753 -0.0481847227 0.148049355
v 0.192456082 -0.0539681949 0.147260681
v 0.190446779 -0.0307278913 0.132554501
v 0.121821001 -0.0266450588 0.143459454
v 0.104664549 -0.0256243516 0.146185696
v 0.15613389 -0.028686475 0.138006985
v 0.122372597 -0.0105541414 0.137490898
v 0.106815077 -0.0110993264 0.142182857
v 0.153487608 -0.0094637759 0.128106937
v 0.184602603 -0.00837340858 0.118723027
v 0.175131589 0.0123529499 0.105868451
v 0.120498404 0.00564443553 0.130868196
v 0.106840111 0.00396730658 0.137118131
v 0.147814989 0.00899869297 0.11836832
v 0.116009623 0.021463152 0.123574235
v 0.104387395 0.0191053394 0.130963832
v 0.139254093 0.0261787698 0.108795002
v 0.162498564 0.0308943931 0.0940157846
v 0.147168398 0.046694126 0.0831900686
v 0.108717412 0.0364144817 0.115591787
v 0.0991046578 0.0338445716 0.123692222
v 0.127942905 0.041554302 0.099390924
v 0.0987152234 0.0498357005 0.106951632
v 0.0909625515 0.047436893 0.115354799
v 0.114220604 0.0546333119 0.0901453197
v 0.129725963 0.0594309233 0.0733390152
v 0.110756077 0.0687835664 0.0644103512
v 0.0860965624 0.0610640906 0.0976844952
v 0.0799316838 0.0591342188 0.106003031
v 0.0984263197 0.0649238303 0.0810474157
v 0.0713413581 0.069351919 0.0878588557
v 0.0664552003 0.0680562705 0.0957504883
v 0.0811136886 0.0719432235 0.0720755607
v 0.0908860192 0.0745345205 0.0562922657
v 0.0707430467 0.0764662623 0.0488729551
v 0.0549295805 0.0739514679 0.0775431842
v 0.0509762168 0.073322773 0.0847107396
v 0.0628363118 0.0752088651 0.0632080734
v 0.0378312729 0.0743127912 0.0668118969
v 0.0344907194 0.0742462054 0.0730027482
v 0.0445123725 0.0744459778 0.0544302016
v 0.0511934757 0.0745791644 0.0420485027
v 0.0331036448 0.0688735768 0.0357149877
v 0.021016473 0.0698859617 0.0557393879
v 0.0179946814 0.0701390505 0.0607454851
v 0.0270600598 0.0693797693 0.0457271859
v 0.00623935927 0.0608049333 0.0445440412
v 0.00345825194 0.0611378066 0.0482820831
v 0.0118015725 0.0601391792 0.0370679647
v 0.0173637886 0.0594734214 0.0295918845
v 0.00486413948 0.0465026051 0.023398675
v -0.00474590296 0.0472037084 0.0334442705
v -0.00714841345 0.0473789833 0.0359556712
v 5.91182688E-05 0.0468531549 0.0284214728
v -0.00978701096 0.0310627762 0.0228131749
v -0.0116951531 0.0310257711 0.0242566597
v -0.00597071648 0.0311367884 0.019926209
v -0.00215442409 0.0312107932 0.0170392394
v -0.00145102735 0.0148476707 0.0104174521
v -0.00673165545 0.0143626463 0.013023858
v -0.00805180985 0.0142413899 0.0136754597
v -0.00409134151 0.0146051599 0.0117206546
v 0.000371930597 -0.00261708489 0.00365542877
v -0.000313422672 -0.00275857863 0.00365316402
v 0.00174263946 -0.00233409787 0.00365995872
v 0.0031133485 -0.00205111085 0.00366448844
vt 0.99999994 0.199999988
vt 0.99999994 0
vt 0.970588148 0
vt 0.970588148 0.199999988
vt 0.99999994 0.600000024
vt 0.941176414 0.199999928
vt 0.941176355 0
vt 0.970588207 0.600000024
vt 1 1
vt 0.970588207 1
vt 0.941176414 0.600000024
vt 0.941176474 1
vt 0.911764681 1
vt 0.911764622 0.199999988
vt 0.911764622 0
vt 0.911764681 0.600000024
vt 0.882352889 0.199999928
vt 0.882352829 0
vt 0.882352889 0.600000024
vt 0.882352948 1
vt 0.852941155 1
vt 0.852941096 0.199999988
vt 0.852941096 0
vt 0.852941155 0.600000024
vt 0.823529363 0.199999928
vt 0.823529303 0
vt 0.823529363 0.600000024
vt 0.823529422 1
vt 0.79411763 1
vt 0.79411757 0.199999988
vt 0.79411757 0
vt 0.79411763 0.600000024
vt 0.764705777 0.199999928
vt 0.764705777 0
vt 0.764705837 0.600000024
vt 0.764705896 1
vt 0.735294104 1
vt 0.735294044 0.199999988
vt 0.735293984 0
vt 0.735294104 0.600000024
vt 0.705882311 0.199999928
vt 0.705882251 0
vt 0.705882311 0.600000024
vt 0.705882311 1
vt 0.676470578 1
vt 0.676470518 0.199999988
vt 0.676470518 0
vt 0.676470518 0.600000024
vt 0.647058725 0.199999988
vt 0.647058725 5.96046448E-08
vt 0.647058725 0.600000024
vt 0.647058785 1
vt 0.617647052 1
vt 0.617646992 0.200000048
vt 0.617646933 5.96046448E-08
vt 0.617647052 0.600000024
vt 0.588235259 0.199999988
vt 0.588235259 5.96046448E-08
vt 0.588235259 0.600000024
vt 0.588235259 1
vt 0.558823526 1
vt 0.558823466 0.200000048
vt 0.558823466 5.96046448E-08
vt 0.558823466 0.600000024
vt 0.529411674 0.199999988
vt 0.529411674 5.96046448E-08
vt 0.529411733 0.600000024
vt 0.529411793 1
vt 0.5 1
vt 0.49999994 0.200000048
vt 0.49999994 5.96046448E-08
vt 0.49999994 0.600000024
vt 0.470588148 0.199999988
vt 0.470588148 5.96046448E-08
vt 0.470588148 0.600000083
vt 0.470588207 1
vt 0.441176414 1
vt 0.441176355 0.200000048
vt 0.441176355 5.96046448E-08
vt 0.441176355 0.600000083
vt 0.411764562 0.199999988
vt 0.411764622 5.96046448E-08
vt 0.411764562 0.600000083
vt 0.411764681 1
vt 0.382352948 1
vt 0.382352889 0.200000048
vt 0.382352889 5.96046448E-08
vt 0.382352889 0.600000083
vt 0.352941036 0.199999988
vt 0.352941096 5.96046448E-08
vt 0.352941036 0.600000083
vt 0.352941155 1
vt 0.323529363 1
vt 0.323529303 0.200000048
vt 0.323529303 5.96046448E-08
vt 0.323529303 0.600000083
vt 0.29411751 0.199999988
vt 0.29411757 5.96046448E-08
vt 0.29411751 0.600000083
vt 0.29411757 1.00000012
vt 0.264705896 1.00000012
vt 0.264705837 0.200000048
vt 0.264705837 5.96046448E-08
vt 0.264705837 0.600000083
vt 0.235294044 0.199999988
vt 0.235294044 5.96046448E-08
vt 0.235294044 0.600000083
vt 0.235294104 1.00000012
vt 0.205882311 1.00000012
vt 0.205882251 0.200000048
vt 0.205882251 5.96046448E-08
vt 0.205882251 0.600000083
vt 0.176470637 0.199999988
vt 0.176470578 5.96046448E-08
vt 0.176470518 0.600000083
vt 0.176470578 1.00000012
vt 0.147058845 1.00000012
vt 0.147058785 0.200000048
vt 0.147058785 5.96046448E-08
vt 0.147058785 0.600000143
vt 0.117647052 0.199999988
vt 0.117646992 5.96046448E-08
vt 0.117647052 0.600000143
vt 0.117647052 1.00000012
vt 0.0882352591 1.00000012
vt 0.0882351995 0.200000048
vt 0.0882351995 5.96046448E-08
vt 0.0882351995 0.600000143
vt 0.0588234663 0.199999988
vt 0.0588234663 5.96046448E-08
vt 0.0588234663 0.600000143
vt 0.0588235855 1.00000012
vt 0.0294117928 1.00000012
vt 0.0294117332 0.200000048
vt 0.0294117332 5.96046448E-08
vt 0.0294117332 0.600000143
vt -1.1920929E-07 0.199999988
vt -1.1920929E-07 5.96046448E-08
vt 0 0.600000143
vt 0 1.00000012
vn 0.124766149 0.875777841 -0.466311783
vn 0.0621022992 0.903770983 -0.423487008
vn 0.0655531585 0.917805195 -0.391581953
vn 0.135589331 0.890739977 -0.433817685
vn 0.312585473 0.753157139 -0.578830361
vn 0.127619207 0.928238571 -0.349408656
vn 0.0572563708 0.948760808 -0.310764879
vn 0.323248863 0.776123047 -0.541427076
vn 0.421503276 0.650941551 -0.631355882
vn 0.433220506 0.674913049 -0.597337842
vn 0.322571576 0.830809414 -0.453545183
vn 0.440067381 0.737891555 -0.511719465
vn 0.412015915 0.814501822 -0.408447802
vn 0.0936161131 0.963533103 -0.250679076
vn 0.0220801178 0.976373911 -0.214956746
vn 0.291285634 0.890476763 -0.349576682
vn 0.0399334952 0.988859177 -0.143397272
vn -0.0343949944 0.99339664 -0.109453022
vn 0.238322929 0.941719532 -0.237416357
vn 0.357814461 0.885973334 -0.294991791
vn 0.292916238 0.939205527 -0.179145172
vn -0.0229244512 0.99925667 -0.0309937969
vn -0.102128454 0.994767785 0.00263395533
vn 0.17683655 0.976531208 -0.122945905
vn -0.078542836 0.993722379 0.0796662346
vn -0.159887016 0.9807356 0.112222552
vn 0.119026035 0.99284029 -0.0100472132
vn 0.231825992 0.970535934 -0.0657021105
vn 0.167747065 0.984638274 0.048460871
vn -0.129652292 0.973493934 0.188413903
vn -0.209775195 0.952947378 0.218828082
vn 0.0605289377 0.992873907 0.102653332
vn -0.182798967 0.936989546 0.297716618
vn -0.262372464 0.908020079 0.32658869
vn -0.00145569514 0.976604283 0.215039343
vn 0.0971406251 0.981754005 0.163470894
vn 0.0318606384 0.961019576 0.274638653
vn -0.231865913 0.883606851 0.406788826
vn -0.311502308 0.844875574 0.434915721
vn -0.058597438 0.94400394 0.324688822
vn -0.265891671 0.81763494 0.510661244
vn -0.34160167 0.771089554 0.537335157
vn -0.104577981 0.896347702 0.430841297
vn -0.0202999488 0.924329758 0.381054282
vn -0.0628193989 0.873213291 0.483272552
vn -0.283170462 0.744058728 0.605137229
vn -0.351343691 0.693241119 0.629264951
vn -0.138469294 0.836048305 0.530894935
vn -0.287495404 0.662793577 0.691412389
vn -0.351667881 0.605186224 0.714198411
vn -0.158107698 0.767911792 0.620736182
vn -0.0939452723 0.811360359 0.576947629
vn -0.10527803 0.745895207 0.657690585
vn -0.273205429 0.577061832 0.769648254
vn -0.335196614 0.509045064 0.792790234
vn -0.158838928 0.6970222 0.699235499
vn -0.233437583 0.499656975 0.834176064
vn -0.286874175 0.427850187 0.857115746
vn -0.138396248 0.62719202 0.766470194
vn -0.0934948772 0.681785047 0.725553513
vn -0.065014936 0.620027661 0.781881511
vn -0.176169112 0.434356034 0.883345544
vn -0.217801288 0.366278738 0.904655993
vn -0.100632653 0.56204164 0.820964277
vn -0.108217664 0.376838505 0.919935644
vn -0.142928123 0.305777371 0.941313863
vn -0.0491611883 0.506749511 0.860690475
vn -0.0235727336 0.564847589 0.824858487
vn 0.030636929 0.524405479 0.85091728
vn -0.025639195 0.335281789 0.941768944
vn -0.0536714084 0.257934064 0.964670658
vn 0.0151617387 0.468052536 0.883570552
vn 0.0693485662 0.321766555 0.944275975
vn 0.0513872616 0.244692042 0.968238115
vn 0.0888818428 0.451135963 0.88801831
vn 0.0944653451 0.505014122 0.857925951
vn 0.161167711 0.508085847 0.846093178
vn 0.165520146 0.337496489 0.92666018
vn 0.158432394 0.265308708 0.951057553
vn 0.164670408 0.457695216 0.873726964
vn 0.253076196 0.380040288 0.88967514
vn 0.25594312 0.314071685 0.91424942
vn 0.234917447 0.48875007 0.840200663
vn 0.223636538 0.534545958 0.815013647
vn 0.274239242 0.58322984 0.76461482
vn 0.323852569 0.448103309 0.833260357
vn 0.335359693 0.389830828 0.857651234
vn 0.29182753 0.543083847 0.787335157
vn 0.369573921 0.538159847 0.757495224
vn 0.388042748 0.488799959 0.781343281
vn 0.327332497 0.617608011 0.715131998
vn 0.305231631 0.650921583 0.695078909
vn 0.310135484 0.731533229 0.607186258
vn 0.383646965 0.642501712 0.66332984
vn 0.406983376 0.602963328 0.686148524
vn 0.334874064 0.705604255 0.624485314
vn 0.360881031 0.751955628 0.551658928
vn 0.387084991 0.722245753 0.573172033
vn 0.309266269 0.798512995 0.516460598
vn 0.284090519 0.816785455 0.502149403
vn 0.223724484 0.897185266 0.380796403
vn 0.298826396 0.855154395 0.4235726
vn 0.325912595 0.834933698 0.443471134
vn 0.247472599 0.886037886 0.392038494
vn 0.196718886 0.939649403 0.279929698
vn 0.223395318 0.927962244 0.298296124
vn 0.148548409 0.956188023 0.252265513
vn 0.127978027 0.961265147 0.244112417
vn 0.00182599132 0.995422184 0.0955582932
vn 0.0606129766 0.99038434 0.124357894
vn 0.0852639675 0.986334264 0.140978292
vn 0.0184231047 0.994715512 0.101003319
vn -0.0995234326 0.994294345 -0.0383915678
vn -0.0775877088 0.996714115 -0.0232615191
vn -0.133404836 0.989410698 -0.0571799725
vn -0.145199358 0.987573028 -0.0601386391
vn -0.298416764 0.928413093 -0.221351504
vn -0.263600737 0.942699194 -0.204531103
vn -0.245569944 0.950436234 -0.19069989
vn -0.2900379 0.931346714 -0.220162302
vn -0.411518186 0.831134558 -0.373989403
vn -0.39669621 0.844371617 -0.360095561
vn -0.430048078 0.815966249 -0.3863388
vn -0.436111361 0.812562943 -0.386714816
vn -0.532281458 0.641933262 -0.551904082
vn -0.514452338 0.666892886 -0.539066553
vn -0.504697919 0.686119616 -0.523946404
vn -0.526340663 0.64904654 -0.549275875
vn -0.53783536 0.468259275 -0.701046646
vn -0.537166417 0.499998361 -0.679304004
vn -0.544924259 0.445431948 -0.71038568
vn -0.548713505 0.425747931 -0.719480515
vn -0.418058991 0.303663075 -0.856163144
vn -0.428098738 0.351665437 -0.832503974
vn -0.452881575 0.364017457 -0.813873172
vn -0.430217654 0.323267221 -0.842858911
vn -0.32970956 0.340684921 -0.880468965
vn -0.329744101 0.355138868 -0.874725759
vn -0.329363585 0.30921492 -0.892135501
vn -0.329021633 0.292033881 -0.898031771
g 1_0
f 3/3/3 2/2/2 1/1/1
f 4/4/4 3/3/3 1/1/1
f 4/4/4 1/1/1 5/5/5
f 3/3/3 4/4/4 6/6/6
f 7/7/7 3/3/3 6/6/6
f 8/8/8 4/4/4 5/5/5
f 4/4/4 8/8/8 6/6/6
f 8/8/8 5/5/5 9/9/9
f 10/10/10 8/8/8 9/9/9
f 8/8/8 10/10/10 11/11/11
f 8/8/8 11/11/11 6/6/6
f 10/10/10 12/12/12 11/11/11
f 11/11/11 12/12/12 13/13/13
f 6/6/6 14/14/14 7/7/7
f 14/14/14 15/15/15 7/7/7
f 6/6/6 11/11/11 16/16/16
f 16/16/16 11/11/11 13/13/13
f 14/14/14 6/6/6 16/16/16
f 15/15/15 14/14/14 17/17/17
f 14/14/14 16/16/16 17/17/17
f 18/18/18 15/15/15 17/17/17
f 16/16/16 13/13/13 19/19/19
f 16/16/16 19/19/19 17/17/17
f 13/13/13 20/20/20 19/19/19
f 19/19/19 20/20/20 21/21/21
f 17/17/17 22/22/22 18/18/18
f 22/22/22 23/23/23 18/18/18
f 17/17/17 19/19/19 24/24/24
f 24/24/24 19/19/19 21/21/21
f 22/22/22 17/17/17 24/24/24
f 23/23/23 22/22/22 25/25/25
f 22/22/22 24/24/24 25/25/25
f 26/26/26 23/23/23 25/25/25
f 24/24/24 21/21/21 27/27/27
f 24/24/24 27/27/27 25/25/25
f 21/21/21 28/28/28 27/27/27
f 27/27/27 28/28/28 29/29/29
f 25/25/25 30/30/30 26/26/26
f 30/30/30 31/31/31 26/26/26
f 25/25/25 27/27/27 32/32/32
f 32/32/32 27/27/27 29/29/29
f 30/30/30 25/25/25 32/32/32
f 31/31/31 30/30/30 33/33/33
f 30/30/30 32/32/32 33/33/33
f 34/34/34 31/31/31 33/33/33
f 32/32/32 29/29/29 35/35/35
f 32/32/32 35/35/35 33/33/33
f 29/29/29 36/36/36 35/35/35
f 35/35/35 36/36/36 37/37/37
f 33/33/33 38/38/38 34/34/34
f 38/38/38 39/39/39 34/34/34
f 33/33/33 35/35/35 40/40/40
f 40/40/40 35/35/35 37/37/37
f 38/38/38 33/33/33 40/40/40
f 39/39/39 38/38/38 41/41/41
f 38/38/38 40/40/40 41/41/41
f 42/42/42 39/39/39 41/41/41
f 40/40/40 37/37/37 43/43/43
f 40/40/40 43/43/43 41/41/41
f 37/37/37 44/44/44 43/43/43
f 43/43/43 44/44/44 45/45/45
f 41/41/41 46/46/46 42/42/42
f 46/46/46 47/47/47 42/42/42
f 41/41/41 43/43/43 48/48/48
f 48/48/48 43/43/43 45/45/45
f 46/46/46 41/41/41 48/48/48
f 47/47/47 46/46/46 49/49/49
f 46/46/46 48/48/48 49/49/49
f 50/50/50 47/47/47 49/49/49
f 48/48/48 45/45/45 51/51/51
f 48/48/48 51/51/51 49/49/49
f 45/45/45 52/52/52 51/51/51
f 51/51/51 52/52/52 53/53/53
f 49/49/49 54/54/54 50/50/50
f 54/54/54 55/55/55 50/50/50
f 49/49/49 51/51/51 56/56/56
f 56/56/56 51/51/51 53/53/53
f 54/54/54 49/49/49 56/56/56
f 55/55/55 54/54/54 57/57/57
f 54/54/54 56/56/56 57/57/57
f 58/58/58 55/55/55 57/57/57
f 56/56/56 53/53/53 59/59/59
f 56/56/56 59/59/59 57/57/57
f 53/53/53 60/60/60 59/59/59
f 59/59/59 60/60/60 61/61/61
f 57/57/57 62/62/62 58/58/58
f 62/62/62 63/63/63 58/58/58
f 57/57/57 59/59/59 64/64/64
f 64/64/64 59/59/59 61/61/61
f 62/62/62 57/57/57 64/64/64
f 63/63/63 62/62/62 65/65/65
f 62/62/62 64/64/64 65/65/65
f 66/66/66 63/63/63 65/65/65
f 64/64/64 61/61/61 67/67/67
f 64/64/64 67/67/67 65/65/65
f 61/61/61 68/68/68 67/67/67
f 67/67/67 68/68/68 69/69/69
f 65/65/65 70/70/70 66/66/66
f 70/70/70 71/71/71 66/66/66
f 65/65/65 67/67/67 72/72/72
f 72/72/72 67/67/67 69/69/69
f 70/70/70 65/65/65 72/72/72
f 71/71/71 70/70/70 73/73/73
f 70/70/70 72/72/72 73/73/73
f 74/74/74 71/71/71 73/73/73
f 72/72/72 69/69/69 75/75/75
f 72/72/72 75/75/75 73/73/73
f 69/69/69 76/76/76 75/75/75
f 75/75/75 76/76/76 77/77/77
f 73/73/73 78/78/78 74/74/74
f 78/78/78 79/79/79 74/74/74
f 73/73/73 75/75/75 80/80/80
f 80/80/80 75/75/75 77/77/77
f 78/78/78 73/73/73 80/80/80
f 79/79/79 78/78/78 81/81/81
f 78/78/78 80/80/80 81/81/81
f 82/82/82 79/79/79 81/81/81
f 80/80/80 77/77/77 83/83/83
f 80/80/80 83/83/83 81/81/81
f 77/77/77 84/84/84 83/83/83
f 83/83/83 84/84/84 85/85/85
f 81/81/81 86/86/86 82/82/82
f 86/86/86 87/87/87 82/82/82
f 81/81/81 83/83/83 88/88/88
f 88/88/88 83/83/83 85/85/85
f 86/86/86 81/81/81 88/88/88
f 87/87/87 86/86/86 89/89/89
f 86/86/86 88/88/88 89/89/89
f 90/90/90 87/87/87 89/89/89
f 88/88/88 85/85/85 91/91/91
f 88/88/88 91/91/91 89/89/89
f 85/85/85 92/92/92 91/91/91
f 91/91/91 92/92/92 93/93/93
f 89/89/89 94/94/94 90/90/90
f 94/94/94 95/95/95 90/90/90
f 89/89/89 91/91/91 96/96/96
f 96/96/96 91/91/91 93/93/93
f 94/94/94 89/89/89 96/96/96
f 95/95/95 94/94/94 97/97/97
f 94/94/94 96/96/96 97/97/97
f 98/98/98 95/95/95 97/97/97
f 96/96/96 93/93/93 99/99/99
f 96/96/96 99/99/99 97/97/97
f 93/93/93 100/100/100 99/99/99
f 99/99/99 100/100/100 101/101/101
f 97/97/97 102/102/102 98/98/98
f 102/102/102 103/103/103 98/98/98
f 97/97/97 99/99/99 104/104/104
f 104/104/104 99/99/99 101/101/101
f 102/102/102 97/97/97 104/104/104
f 103/103/103 102/102/102 105/105/105
f 102/102/102 104/104/104 105/105/105
f 106/106/106 103/103/103 105/105/105
f 104/104/104 101/101/101 107/107/107
f 104/104/104 107/107/107 105/105/105
f 101/101/101 108/108/108 107/107/107
f 107/107/107 108/108/108 109/109/109
f 105/105/105 110/110/110 106/106/106
f 110/110/110 111/111/111 106/106/106
f 105/105/105 107/107/107 112/112/112
f 112/112/112 107/107/107 109/109/109
f 110/110/110 105/105/105 112/112/112
f 111/111/111 110/110/110 113/113/113
f 110/110/110 112/112/112 113/113/113
f 114/114/114 111/111/111 113/113/113
f 112/112/112 109/109/109 115/115/115
f 112/112/112 115/115/115 113/113/113
f 109/109/109 116/116/116 115/115/115
f 115/115/115 116/116/116 117/117/117
f 113/113/113 118/118/118 114/114/114
f 118/118/118 119/119/119 114/114/114
f 113/113/113 115/115/115 120/120/120
f 120/120/120 115/115/115 117/117/117
f 118/118/118 113/113/113 120/120/120
f 119/119/119 118/118/118 121/121/121
f 118/118/118 120/120/120 121/121/121
f 122/122/122 119/119/119 121/121/121
f 120/120/120 117/117/117 123/123/123
f 120/120/120 123/123/123 121/121/121
f 117/117/117 124/124/124 123/123/123
f 123/123/123 124/124/124 125/125/125
f 121/121/121 126/126/126 122/122/122
f 126/126/126 127/127/127 122/122/122
f 121/121/121 123/123/123 128/128/128
f 128/128/128 123/123/123 125/125/125
f 126/126/126 121/121/121 128/128/128
f 127/127/127 126/126/126 129/129/129
f 126/126/126 128/128/128 129/129/129
f 130/130/130 127/127/127 129/129/129
f 128/128/128 125/125/125 131/131/131
f 128/128/128 131/131/131 129/129/129
f 125/125/125 132/132/132 131/131/131
f 131/131/131 132/132/132 133/133/133
f 129/129/129 134/134/134 130/130/130
f 134/134/134 135/135/135 130/130/130
f 129/129/129 131/131/131 136/136/136
f 136/136/136 131/131/131 133/133/133
f 134/134/134 129/129/129 136/136/136
f 135/135/135 134/134/134 137/137/137
f 134/134/134 136/136/136 137/137/137
f 138/138/138 135/135/135 137/137/137
f 136/136/136 139/139/139 137/137/137
f 136/136/136 133/133/133 139/139/139
f 133/133/133 140/140/140 139/139/139
