g 777_guiji_02
v -0.0728078634 0.630174041 0.0480505563
v -0.204361916 0.650596738 0.0154588418
v -0.198863268 0.633105814 0.030917678
v -0.0765515715 0.662880838 0.02402528
v -0.209860548 0.66808778 0
v 0.0481474772 0.600800633 0.061154604
v -0.0802952722 0.695587754 0
v -0.215359181 0.685578763 -0.0154588362
v 0.05199017 0.649377525 0.0305772964
v 0.151970893 0.548520684 0.0699810758
v -0.0840389803 0.728294671 -0.02402528
v -0.220857829 0.703069746 -0.0309176724
v -0.0877826884 0.761001468 -0.0480505489
v 0.169465885 0.611688435 0.0349905379
v 0.235051394 0.479368657 0.0743217543
v 0.0558328554 0.697954297 0
v 0.0596755445 0.746531188 -0.0305773076
v 0.0635182336 0.79510802 -0.0611545928
v 0.271778166 0.553964794 0.0371608771
v 0.296877891 0.399121672 0.0740107
v 0.186960861 0.674856246 0
v 0.204455853 0.738024056 -0.0349905379
v 0.221950829 0.801191866 -0.0699810758
v 0.357454032 0.480312496 0.03700535
v 0.337576598 0.313146591 0.068925865
v 0.308504909 0.628560901 0
v 0.345231652 0.703157008 -0.0371608734
v 0.381958425 0.777753174 -0.0743217468
v 0.425339222 0.394632399 0.0344629325
v 0.357898772 0.226456672 0.0589902066
v 0.418030143 0.561503291 0
v 0.478606284 0.642694056 -0.03700535
v 0.539182425 0.723884881 -0.0740107
v 0.474591821 0.30064854 0.0294951033
v 0.35942176 0.143514231 0.0441726632
v 0.513101876 0.476118177 0
v 0.60086453 0.557603955 -0.0344629288
v 0.688627124 0.639089823 -0.068925865
v 0.504783034 0.201809615 0.0220863316
v 0.344667047 0.0676192567 0.0244885813
v 0.591284871 0.374840379 0
v 0.707977951 0.449032277 -0.0294951107
v 0.82467103 0.523224115 -0.0589902066
v 0.515956461 0.100982934 0.0122442907
v 0.316733539 9.52871204E-09 3.13674562E-08
v 0.650144339 0.260104984 0
v 0.795505643 0.318400383 -0.0220863335
v 0.940866888 0.376695782 -0.044172667
v 0.508443832 8.52481534E-08 1.56837281E-08
v 0.278974801 -0.054823637 -0.0291843712
v 0.687245846 0.134346604 0
v 0.85853529 0.167710274 -0.0122442935
v 1.02982461 0.201073959 -0.0244885851
v 0.483110309 -0.0945849046 -0.0145921875
v 0.236101449 -0.0940579399 -0.0629099831
v 0.700154126 1.60967588E-07 0
v 0.891864479 2.36687043E-07 -1.56837316E-08
v 1.08357465 3.12406485E-07 -3.13674597E-08
v 0.443123013 -0.177081257 -0.0314549915
v 0.191784173 -0.120843351 -0.100976914
v 0.687245846 -0.134346172 0
v 0.891381383 -0.174107447 0.0145921856
v 1.09551692 -0.213868722 0.029184375
v 0.391534597 -0.247841761 -0.0504884534
v 0.148581311 -0.137668297 -0.143141061
v 0.650144577 -0.260104597 0
v 0.857166111 -0.343127936 0.0314549915
v 1.06418777 -0.426151276 0.0629099905
v 0.33084166 -0.30689311 -0.0715705305
v 0.108455747 -0.14657715 -0.189115882
v 0.59128499 -0.37484017 3.97882882E-09
v 0.791035473 -0.501838565 0.0504884571
v 0.990785778 -0.628836989 0.100976907
v 0.263243228 -0.354040056 -0.0945579335
v 0.0727180839 -0.149651408 -0.238573894
v 0.513101995 -0.476117939 0
v 0.695362389 -0.645342767 0.0715705454
v 0.877622724 -0.814567566 0.143141061
v 0.190611795 -0.389106125 -0.119286932
v 0.0413888842 -0.149250224 -0.291148871
v 0.418030679 -0.561502993 0
v 0.57281822 -0.7689659 0.0945579633
v 0.727605641 -0.976428807 0.189115897
v 0.114175186 -0.412053138 -0.145574436
v 0.0122954315 -0.147582322 -0.346438348
v 0.308505476 -0.628560781 7.78258968E-09
v 0.426399171 -0.868015409 0.119286947
v 0.544292867 -1.10747027 0.238573909
v 0.0340644717 -0.422768325 -0.173219174
v -0.0173414331 -0.145592719 -0.404006124
v 0.186961472 -0.674856067 8.98231178E-09
v 0.259747773 -0.937659144 0.145574465
v 0.332534105 -1.20046198 0.291148901
v -0.0488179997 -0.420590341 -0.202003032
v -0.0450363532 -0.143787682 -0.463385582
v -0.127448186 -0.405937821 -0.231692791
v 0.0558335111 -0.697954297 1.01379767E-08
v 0.0776025578 -0.973140419 0.173219204
v 0.0993715823 -1.2483263 0.346438348
v -0.0802945569 -0.695587933 1.12439142E-08
v -0.209860012 -0.668087959 1.22947048E-08
v -0.111771122 -0.970585525 0.202003092
v -0.143247694 -1.24558318 0.404006183
v -0.292271882 -0.930238187 0.231692806
v -0.374683678 -1.1923883 0.463385582
v -0.0812837929 0.704223931 0.0810451284
v -0.211126208 0.672113776 0.0236079358
v -0.212391868 0.676139832 0.0472158603
v -0.0807895362 0.699905813 0.0405225679
v -0.209860548 0.66808778 0
v 0.0561666563 0.702174008 0.114977702
v -0.0802952722 0.695587754 0
v -0.208594888 0.664061725 -0.0236079264
v 0.0559997559 0.700064123 0.0574888438
v 0.185642213 0.670095146 0.148519069
v -0.0798010156 0.691269696 -0.0405225679
v -0.207329229 0.66003567 -0.0472158529
v -0.0793067589 0.686951578 -0.0810451284
v 0.186301544 0.672475696 0.0742595345
v 0.300208509 0.611710012 0.181175858
v 0.0558328554 0.697954297 0
v 0.0556659587 0.695844471 -0.0574888662
v 0.0554990582 0.693734646 -0.114977688
v 0.304356724 0.620135486 0.0905879289
v 0.39578265 0.531684697 0.212459743
v 0.186960861 0.674856246 0
v 0.187620178 0.677236795 -0.0742595345
v 0.18827951 0.679617345 -0.148519069
v 0.406906396 0.546594024 0.106229872
v 0.469082832 0.435247421 0.241891608
v 0.308504909 0.628560901 0
v 0.312653124 0.636986375 -0.0905879214
v 0.316801339 0.645411849 -0.181175843
v 0.491092354 0.455682814 0.120945804
v 0.517703295 0.328058183 0.269005269
v 0.418030143 0.561503291 0
v 0.429153919 0.576412559 -0.106229872
v 0.440277666 0.591321826 -0.212459743
v 0.554494083 0.351449281 0.134502634
v 0.540288925 0.216048807 0.293351442
v 0.513101876 0.476118177 0
v 0.535111368 0.49655357 -0.120945781
v 0.557120919 0.516988993 -0.241891608
v 0.595216632 0.238076895 0.146675721
v 0.536772966 0.10503757 0.314501792
v 0.591284871 0.374840379 0
v 0.628075719 0.398231506 -0.134502649
v 0.664866567 0.421622574 -0.269005269
v 0.612009406 0.119692087 0.157250896
v 0.508443832 8.52481676E-08 0.332051963
v 0.650144339 0.260104984 0
v 0.705072105 0.282133102 -0.146675736
v 0.759999752 0.304161191 -0.293351471
v 0.604299009 1.23107867E-07 0.166025981
v 0.45830214 -0.0897528082 0.345625579
v 0.687245846 0.134346604 0
v 0.762482285 0.149001122 -0.157250941
v 0.837718725 0.163655639 -0.314501822
v 0.572773993 -0.112049483 0.172812805
v 0.39255622 -0.156802103 0.354876965
v 0.700154126 1.60967588E-07 0
v 0.796009183 1.98827308E-07 -0.166026011
v 0.891864359 2.36687029E-07 -0.332051992
v 0.521350384 -0.208453342 0.177438483
v 0.317738295 -0.20092313 0.359495074
v 0.687245846 -0.134346172 0
v 0.801717639 -0.156642869 -0.17281279
v 0.916189551 -0.178939551 -0.345625609
v 0.454511672 -0.287881643 0.179747522
v 0.239997596 -0.222546369 0.359205097
v 0.650144577 -0.260104597 0
v 0.778938711 -0.311755836 -0.177438483
v 0.907732964 -0.363407075 -0.354876995
v 0.37654984 -0.349332154 0.179602548
v 0.165303931 -0.222771257 0.353772342
v 0.59128499 -0.37484017 -1.41653107E-08
v 0.728058398 -0.461798668 -0.179747537
v 0.864831686 -0.548757136 -0.359495044
v 0.291667312 -0.39213714 0.176886171
v 0.0993498042 -0.203743249 0.343003452
v 0.513101995 -0.476117939 0
v 0.649654269 -0.602903724 -0.179602578
v 0.786206484 -0.729689479 -0.359205097
v 0.203927666 -0.41615203 0.171501726
v 0.046875 -0.169058412 0.326749325
v 0.418030679 -0.561502993 0
v 0.544394076 -0.730868876 -0.176886216
v 0.670757413 -0.900234759 -0.353772372
v 0.116918236 -0.421957225 0.163374662
v 0.0104044583 -0.123678282 0.304905981
v 0.308505476 -0.628560781 -1.11892184E-08
v 0.413083345 -0.840969503 -0.171501726
v 0.517661214 -1.05337822 -0.343003482
v 0.0331189856 -0.410816312 0.15245299
v -0.00903013721 -0.0729804188 0.277416766
v 0.186961472 -0.674856067 -1.00806323E-08
v 0.257004738 -0.927754939 -0.163374692
v 0.327048004 -1.18065381 -0.326749325
v -0.0446623489 -0.384284198 0.138708368
v -0.0070977211 -0.0231057741 0.244272888
v -0.108478867 -0.34559688 0.122136444
v 0.0558335111 -0.697954297 -8.92259777E-09
v 0.0785480365 -0.985092342 -0.15245302
v 0.101262569 -1.27223039 -0.304905981
v -0.0802945569 -0.695587933 -7.72079911E-09
v -0.209860012 -0.668087959 -6.48113208E-09
v -0.11592678 -1.00689173 -0.138708413
v -0.15155898 -1.31819546 -0.277416825
v -0.31124118 -0.990579128 -0.122136429
v -0.412622303 -1.31307018 -0.244272888
vt 0.950000167 0
vt 1.00000012 0.25
vt 1.00000012 0
vt 0.950000167 0.25
vt 1.00000012 0.5
vt 0.900000155 0
vt 0.950000167 0.5
vt 1.00000012 0.75
vt 0.900000155 0.25
vt 0.850000143 0
vt 0.950000167 0.75
vt 1.00000012 1
vt 0.950000167 1
vt 0.850000143 0.25
vt 0.800000131 0
vt 0.900000155 0.5
vt 0.900000155 0.75
vt 0.900000155 1
vt 0.800000131 0.25
vt 0.750000119 0
vt 0.850000143 0.5
vt 0.850000143 0.75
vt 0.850000143 1
vt 0.750000119 0.25
vt 0.700000107 0
vt 0.800000131 0.5
vt 0.800000131 0.75
vt 0.800000131 1
vt 0.700000107 0.25
vt 0.650000095 0
vt 0.750000119 0.5
vt 0.750000119 0.75
vt 0.750000119 1
vt 0.650000095 0.25
vt 0.600000083 0
vt 0.700000107 0.5
vt 0.700000107 0.75
vt 0.700000107 1
vt 0.600000083 0.25
vt 0.550000072 0
vt 0.650000095 0.5
vt 0.650000095 0.75
vt 0.650000095 1
vt 0.550000072 0.25
vt 0.50000006 0
vt 0.600000083 0.5
vt 0.600000083 0.75
vt 0.600000083 1
vt 0.50000006 0.25
vt 0.450000048 0
vt 0.550000072 0.5
vt 0.550000072 0.75
vt 0.550000072 1
vt 0.450000048 0.25
vt 0.400000036 0
vt 0.50000006 0.5
vt 0.50000006 0.75
vt 0.50000006 1
vt 0.400000036 0.25
vt 0.350000024 0
vt 0.450000048 0.5
vt 0.450000048 0.75
vt 0.450000048 1
vt 0.350000024 0.25
vt 0.300000012 0
vt 0.400000036 0.5
vt 0.400000036 0.75
vt 0.400000036 1
vt 0.300000012 0.25
vt 0.25 0
vt 0.350000024 0.5
vt 0.350000024 0.75
vt 0.350000024 1
vt 0.25 0.25
vt 0.200000003 0
vt 0.300000012 0.5
vt 0.300000012 0.75
vt 0.300000012 1
vt 0.200000003 0.25
vt 0.150000006 0
vt 0.25 0.5
vt 0.25 0.75
vt 0.25 1
vt 0.150000006 0.25
vt 0.100000001 0
vt 0.200000003 0.5
vt 0.200000003 0.75
vt 0.200000003 1
vt 0.100000001 0.25
vt 0.0500000007 0
vt 0.150000006 0.5
vt 0.150000006 0.75
vt 0.150000006 1
vt 0.0500000007 0.25
vt 0 0
vt 0 0.25
vt 0.100000001 0.5
vt 0.100000001 0.75
vt 0.100000001 1
vt 0.0500000007 0.5
vt 0 0.5
vt 0.0500000007 0.75
vt 0.0500000007 1
vt 0 0.75
vt 0 1
vt 0.950000167 0
vt 1.00000012 0.25
vt 1.00000012 0
vt 0.950000167 0.25
vt 1.00000012 0.5
vt 0.900000155 0
vt 0.950000167 0.5
vt 1.00000012 0.75
vt 0.900000155 0.25
vt 0.850000143 0
vt 0.950000167 0.75
vt 1.00000012 1
vt 0.950000167 1
vt 0.850000143 0.25
vt 0.800000131 0
vt 0.900000155 0.5
vt 0.900000155 0.75
vt 0.900000155 1
vt 0.800000131 0.25
vt 0.750000119 0
vt 0.850000143 0.5
vt 0.850000143 0.75
vt 0.850000143 1
vt 0.750000119 0.25
vt 0.700000107 0
vt 0.800000131 0.5
vt 0.800000131 0.75
vt 0.800000131 1
vt 0.700000107 0.25
vt 0.650000095 0
vt 0.750000119 0.5
vt 0.750000119 0.75
vt 0.750000119 1
vt 0.650000095 0.25
vt 0.600000083 0
vt 0.700000107 0.5
vt 0.700000107 0.75
vt 0.700000107 1
vt 0.600000083 0.25
vt 0.550000072 0
vt 0.650000095 0.5
vt 0.650000095 0.75
vt 0.650000095 1
vt 0.550000072 0.25
vt 0.50000006 0
vt 0.600000083 0.5
vt 0.600000083 0.75
vt 0.600000083 1
vt 0.50000006 0.25
vt 0.450000048 0
vt 0.550000072 0.5
vt 0.550000072 0.75
vt 0.550000072 1
vt 0.450000048 0.25
vt 0.400000036 0
vt 0.50000006 0.5
vt 0.50000006 0.75
vt 0.50000006 1
vt 0.400000036 0.25
vt 0.350000024 0
vt 0.450000048 0.5
vt 0.450000048 0.75
vt 0.450000048 1
vt 0.350000024 0.25
vt 0.300000012 0
vt 0.400000036 0.5
vt 0.400000036 0.75
vt 0.400000036 1
vt 0.300000012 0.25
vt 0.25 0
vt 0.350000024 0.5
vt 0.350000024 0.75
vt 0.350000024 1
vt 0.25 0.25
vt 0.200000003 0
vt 0.300000012 0.5
vt 0.300000012 0.75
vt 0.300000012 1
vt 0.200000003 0.25
vt 0.150000006 0
vt 0.25 0.5
vt 0.25 0.75
vt 0.25 1
vt 0.150000006 0.25
vt 0.100000001 0
vt 0.200000003 0.5
vt 0.200000003 0.75
vt 0.200000003 1
vt 0.100000001 0.25
vt 0.0500000007 0
vt 0.150000006 0.5
vt 0.150000006 0.75
vt 0.150000006 1
vt 0.0500000007 0.25
vt 0 0
vt 0 0.25
vt 0.100000001 0.5
vt 0.100000001 0.75
vt 0.100000001 1
vt 0.0500000007 0.5
vt 0 0.5
vt 0.0500000007 0.75
vt 0.0500000007 1
vt 0 0.75
vt 0 1
vn 0.0114144813 -0.594259143 -0.804192543
vn 0.103992172 -0.634655058 -0.76576668
vn 0.0883166566 -0.643919349 -0.75997895
vn 0.0422316566 -0.586088121 -0.809145987
vn 0.124827437 -0.629370928 -0.767013967
vn -0.118530922 -0.527802408 -0.84105593
vn 0.0643322542 -0.583856165 -0.809304178
vn 0.143914357 -0.624433517 -0.767705262
vn -0.0752613321 -0.524404824 -0.848136365
vn -0.226033762 -0.432246119 -0.872967362
vn 0.08418376 -0.581670046 -0.809056938
vn 0.152844012 -0.618390083 -0.770864725
vn 0.08541096 -0.576850593 -0.812372088
vn -0.167652652 -0.438960969 -0.882726371
vn -0.302810431 -0.314644605 -0.899613619
vn -0.0429842435 -0.527463734 -0.848489463
vn -0.0151559096 -0.529741645 -0.848023593
vn -0.00800262205 -0.523859918 -0.851766765
vn -0.229293987 -0.338130414 -0.9127388
vn -0.344960511 -0.183267295 -0.920551658
vn -0.12543714 -0.451422423 -0.883449733
vn -0.0906127766 -0.461106062 -0.882706404
vn -0.0772061124 -0.45634371 -0.886447728
vn -0.258279502 -0.230904624 -0.938069761
vn -0.351729035 -0.0455581248 -0.934992552
vn -0.179155111 -0.363918662 -0.914038658
vn -0.139584556 -0.383394867 -0.912975609
vn -0.120437548 -0.382025242 -0.916270435
vn -0.255689561 -0.125478595 -0.958581269
vn -0.323027909 0.091588825 -0.941947103
vn -0.203551933 -0.273271263 -0.940153897
vn -0.162252843 -0.304066032 -0.938732028
vn -0.138807967 -0.30799371 -0.941207826
vn -0.223979458 -0.0292589143 -0.974154592
vn -0.258459717 0.219349205 -0.940789282
vn -0.200617671 -0.186910167 -0.961674094
vn -0.160978764 -0.229645848 -0.959869087
vn -0.135298893 -0.240128264 -0.96126622
vn -0.166572407 0.0504626483 -0.984737098
vn -0.158923343 0.322968632 -0.932970881
vn -0.173706055 -0.111264318 -0.978492022
vn -0.139317736 -0.165593162 -0.976303995
vn -0.113790512 -0.183140069 -0.976479113
vn -0.0884561464 0.106020831 -0.990421653
vn -0.0317191482 0.405994803 -0.913324833
vn -0.127128169 -0.0520324409 -0.990520597
vn -0.101544879 -0.1165407 -0.98798126
vn -0.0785753354 -0.140918911 -0.986898065
vn 0.00312026194 0.134670928 -0.990885437
vn 0.118953384 0.473428637 -0.872763097
vn -0.0662879422 -0.0142106479 -0.99769932
vn -0.052643761 -0.0863912404 -0.994869471
vn -0.0343598425 -0.116746984 -0.992567182
vn 0.100422062 0.137070775 -0.985457778
vn 0.282774299 0.497974843 -0.819792509
vn 0.00235497369 -0.00142558455 -0.999996185
vn 0.00169785938 -0.0793187693 -0.996847808
vn 0.0136101674 -0.115100905 -0.993260562
vn 0.195318326 0.109856755 -0.974567711
vn 0.443575591 0.471737146 -0.762039959
vn 0.0708282366 -0.0152782276 -0.997371554
vn 0.0537941121 -0.097811453 -0.993750036
vn 0.0578053147 -0.13841325 -0.988686204
vn 0.279077619 0.0525590405 -0.958829105
vn 0.590039313 0.404403418 -0.698792934
vn 0.131190047 -0.0542445481 -0.989872158
vn 0.0960442871 -0.138635024 -0.985675275
vn 0.0908349082 -0.182385132 -0.979022324
vn 0.344479233 -0.0298542771 -0.938319147
vn 0.714482367 0.303899735 -0.630206287
vn 0.177021965 -0.114433669 -0.977531672
vn 0.123085387 -0.196299523 -0.972788036
vn 0.107801765 -0.240847304 -0.964557588
vn 0.385614216 -0.131924003 -0.913180053
vn 0.807827234 0.172117874 -0.563729167
vn 0.202980548 -0.19083637 -0.960406363
vn 0.130683154 -0.265639067 -0.955174148
vn 0.105140127 -0.308336526 -0.945449114
vn 0.396593422 -0.248045534 -0.883847833
vn 0.855961978 0.00543834828 -0.517010272
vn 0.204773813 -0.277741224 -0.938577294
vn 0.115635663 -0.340941131 -0.932945669
vn 0.0803485811 -0.379062355 -0.921876192
vn 0.370812833 -0.371388078 -0.851216018
vn 0.848776221 -0.187853083 -0.494257182
vn 0.179047301 -0.368670255 -0.912153602
vn 0.0757055879 -0.415944129 -0.90623343
vn 0.0318185464 -0.446939081 -0.893998325
vn 0.305888742 -0.491357356 -0.815475345
vn 0.814213812 -0.365587622 -0.451000541
vn 0.123839952 -0.456093967 -0.881272912
vn 0.0100470437 -0.483687013 -0.875183344
vn -0.0408454835 -0.505388618 -0.861924529
vn 0.214998186 -0.595573962 -0.773994446
vn 0.731383026 -0.473470062 -0.490820616
vn 0.127058223 -0.649409473 -0.749748945
vn 0.0399482399 -0.531598866 -0.84605372
vn -0.0803686827 -0.536777258 -0.8398875
vn -0.13673386 -0.547447741 -0.825593591
vn -0.0685596317 -0.587094486 -0.806609929
vn -0.150483891 -0.607415497 -0.780000687
vn -0.193916604 -0.567517638 -0.800200105
vn -0.255031765 -0.565269172 -0.784493208
vn -0.27089256 -0.574382067 -0.772465169
vn -0.324568123 -0.567050636 -0.757039726
vn 0.0572182685 -0.992280245 0.11002703
vn 0.17683585 -0.969701231 0.168548778
vn 0.163027793 -0.971094549 0.174348012
vn 0.0893532559 -0.990516245 0.104371212
vn 0.196100414 -0.965990245 0.168545187
vn -0.149382964 -0.987870932 0.0423758477
vn 0.10964068 -0.988493502 0.104209349
vn 0.215456933 -0.961840451 0.168645009
vn -0.109933265 -0.993338346 0.0345488898
vn -0.35185504 -0.935713589 -0.0252604913
vn 0.130037352 -0.986035109 0.104043387
vn 0.226538762 -0.960098267 0.163986415
vn 0.126846105 -0.987137318 0.0973137692
vn -0.305174172 -0.951640904 -0.03533208
vn -0.535699725 -0.83931905 -0.0925697759
vn -0.0807187632 -0.996144533 0.0343588367
vn -0.0514029227 -0.998092949 0.0341785736
vn -0.0495020077 -0.998467982 0.0247205701
vn -0.483730972 -0.868902326 -0.104942843
vn -0.690878212 -0.705231845 -0.159170613
vn -0.267520815 -0.962896407 -0.0355396047
vn -0.229893297 -0.972562551 -0.0356532335
vn -0.22220999 -0.97383219 -0.0476836562
vn -0.636442244 -0.751445055 -0.173987418
vn -0.811059177 -0.540149927 -0.224546462
vn -0.439701259 -0.891962528 -0.105192587
vn -0.395960838 -0.912227631 -0.10514617
vn -0.382323623 -0.916311204 -0.119174562
vn -0.757828116 -0.605869174 -0.242113665
vn -0.8910532 -0.350731015 -0.288118243
vn -0.589225411 -0.788932621 -0.174352333
vn -0.542615354 -0.821747661 -0.174067095
vn -0.523917913 -0.830461264 -0.189325213
vn -0.843912899 -0.438581377 -0.308962017
vn -0.925722659 -0.14501743 -0.349295795
vn -0.711349905 -0.659605265 -0.24269776
vn -0.665647686 -0.705903113 -0.242103115
vn -0.643664002 -0.720573485 -0.257818997
vn -0.89113903 -0.256640196 -0.374175131
vn -0.910809457 0.0652170256 -0.407642901
vn -0.80276221 -0.509449244 -0.309894264
vn -0.762066543 -0.569048703 -0.308930874
vn -0.739135861 -0.590285361 -0.324409336
vn -0.896592975 -0.0692058355 -0.437414795
vn -0.843879759 0.27289778 -0.461945504
vn -0.860484362 -0.344222367 -0.37560305
vn -0.828955948 -0.415666014 -0.374237567
vn -0.807614923 -0.443280548 -0.388922155
vn -0.859360695 0.114089511 -0.498480499
vn -0.720450282 0.471310973 -0.508741021
vn -0.881787896 -0.171171933 -0.43948859
vn -0.863182604 -0.251611978 -0.437729597
vn -0.845763147 -0.284705222 -0.45125109
vn -0.780756891 0.284023196 -0.556551576
vn -0.54472506 0.636367857 -0.546178102
vn -0.865204096 -0.000521398499 -0.501419663
vn -0.862069607 -0.0875456929 -0.499170989
vn -0.850159049 -0.125868112 -0.511260033
vn -0.666408718 0.42732355 -0.610977769
vn -0.328790486 0.75069344 -0.573023796
vn -0.812908471 0.156765372 -0.560896158
vn -0.827347755 0.0643251762 -0.557994664
vn -0.822377145 0.0211014133 -0.568551242
vn -0.526308119 0.533808053 -0.661852539
vn -0.0815092921 0.807300031 -0.584485114
vn -0.730723917 0.291243732 -0.617429972
vn -0.764576972 0.19652392 -0.613840759
vn -0.767870903 0.149965033 -0.622803867
vn -0.369905978 0.600639522 -0.708803117
vn 0.188905388 0.797785938 -0.572584033
vn -0.626573384 0.396510839 -0.670958281
vn -0.680297613 0.304542094 -0.666670322
vn -0.692623973 0.257085055 -0.673928261
vn -0.205616385 0.626984477 -0.751406908
vn 0.465177745 0.710443437 -0.528090596
vn -0.508563221 0.470330983 -0.721215785
vn -0.581323862 0.386075795 -0.71624583
vn -0.602651715 0.340371281 -0.72177434
vn -0.0420523509 0.612557173 -0.78930676
vn 0.708346546 0.542209089 -0.451945215
vn -0.383976847 0.512654841 -0.76794976
vn -0.473764837 0.440863937 -0.762355447
vn -0.503306329 0.399492204 -0.766217232
vn 0.109838173 0.558024943 -0.822522759
vn 0.881232202 0.312754601 -0.354421139
vn -0.259494662 0.524469793 -0.810921609
vn -0.363152057 0.469472378 -0.804808259
vn -0.399524122 0.434625208 -0.807143927
vn 0.239050642 0.467281103 -0.851177514
vn 0.981502891 0.0292629041 -0.189197913
vn -0.141865 0.507472813 -0.849909306
vn -0.255155206 0.472797036 -0.843420863
vn -0.296683788 0.446029097 -0.844415009
vn 0.348334938 0.344567746 -0.871743023
vn 0.968439579 -0.0283460133 -0.24763152
vn 0.355335593 0.275065452 -0.89335084
vn -0.0384981632 0.464496434 -0.88473779
vn -0.156999245 0.452338696 -0.877918601
vn -0.202254951 0.434504032 -0.87766695
vn 0.0435007215 0.400452286 -0.915284514
vn 0.0554291308 0.362839222 -0.93020165
vn -0.0783438981 0.412030935 -0.907795548
vn -0.126724944 0.403665572 -0.906087697
vn -0.0601296537 0.385077566 -0.920923233
vn -0.109020792 0.381857634 -0.917768598
g 777_guiji_02_0
f 3/3/3 2/2/2 1/1/1
f 4/4/4 1/1/1 2/2/2
f 2/2/2 5/5/5 4/4/4
f 1/1/1 4/4/4 6/6/6
f 7/7/7 4/4/4 5/5/5
f 5/5/5 8/8/8 7/7/7
f 9/9/9 6/6/6 4/4/4
f 4/4/4 7/7/7 9/9/9
f 6/6/6 9/9/9 10/10/10
f 11/11/11 7/7/7 8/8/8
f 8/8/8 12/12/12 11/11/11
f 13/13/13 11/11/11 12/12/12
f 14/14/14 10/10/10 9/9/9
f 10/10/10 14/14/14 15/15/15
f 16/16/16 9/9/9 7/7/7
f 7/7/7 11/11/11 16/16/16
f 9/9/9 16/16/16 14/14/14
f 11/11/11 13/13/13 17/17/17
f 17/17/17 16/16/16 11/11/11
f 18/18/18 17/17/17 13/13/13
f 19/19/19 15/15/15 14/14/14
f 15/15/15 19/19/19 20/20/20
f 21/21/21 14/14/14 16/16/16
f 16/16/16 17/17/17 21/21/21
f 14/14/14 21/21/21 19/19/19
f 17/17/17 18/18/18 22/22/22
f 22/22/22 21/21/21 17/17/17
f 23/23/23 22/22/22 18/18/18
f 24/24/24 20/20/20 19/19/19
f 20/20/20 24/24/24 25/25/25
f 26/26/26 19/19/19 21/21/21
f 21/21/21 22/22/22 26/26/26
f 19/19/19 26/26/26 24/24/24
f 22/22/22 23/23/23 27/27/27
f 27/27/27 26/26/26 22/22/22
f 28/28/28 27/27/27 23/23/23
f 29/29/29 25/25/25 24/24/24
f 25/25/25 29/29/29 30/30/30
f 31/31/31 24/24/24 26/26/26
f 26/26/26 27/27/27 31/31/31
f 24/24/24 31/31/31 29/29/29
f 27/27/27 28/28/28 32/32/32
f 32/32/32 31/31/31 27/27/27
f 33/33/33 32/32/32 28/28/28
f 34/34/34 30/30/30 29/29/29
f 30/30/30 34/34/34 35/35/35
f 36/36/36 29/29/29 31/31/31
f 31/31/31 32/32/32 36/36/36
f 29/29/29 36/36/36 34/34/34
f 32/32/32 33/33/33 37/37/37
f 37/37/37 36/36/36 32/32/32
f 38/38/38 37/37/37 33/33/33
f 39/39/39 35/35/35 34/34/34
f 35/35/35 39/39/39 40/40/40
f 41/41/41 34/34/34 36/36/36
f 36/36/36 37/37/37 41/41/41
f 34/34/34 41/41/41 39/39/39
f 37/37/37 38/38/38 42/42/42
f 42/42/42 41/41/41 37/37/37
f 43/43/43 42/42/42 38/38/38
f 44/44/44 40/40/40 39/39/39
f 40/40/40 44/44/44 45/45/45
f 46/46/46 39/39/39 41/41/41
f 41/41/41 42/42/42 46/46/46
f 39/39/39 46/46/46 44/44/44
f 42/42/42 43/43/43 47/47/47
f 47/47/47 46/46/46 42/42/42
f 48/48/48 47/47/47 43/43/43
f 49/49/49 45/45/45 44/44/44
f 45/45/45 49/49/49 50/50/50
f 51/51/51 44/44/44 46/46/46
f 46/46/46 47/47/47 51/51/51
f 44/44/44 51/51/51 49/49/49
f 47/47/47 48/48/48 52/52/52
f 52/52/52 51/51/51 47/47/47
f 53/53/53 52/52/52 48/48/48
f 54/54/54 50/50/50 49/49/49
f 50/50/50 54/54/54 55/55/55
f 56/56/56 49/49/49 51/51/51
f 51/51/51 52/52/52 56/56/56
f 49/49/49 56/56/56 54/54/54
f 52/52/52 53/53/53 57/57/57
f 57/57/57 56/56/56 52/52/52
f 58/58/58 57/57/57 53/53/53
f 59/59/59 55/55/55 54/54/54
f 55/55/55 59/59/59 60/60/60
f 61/61/61 54/54/54 56/56/56
f 56/56/56 57/57/57 61/61/61
f 54/54/54 61/61/61 59/59/59
f 57/57/57 58/58/58 62/62/62
f 62/62/62 61/61/61 57/57/57
f 63/63/63 62/62/62 58/58/58
f 64/64/64 60/60/60 59/59/59
f 60/60/60 64/64/64 65/65/65
f 66/66/66 59/59/59 61/61/61
f 61/61/61 62/62/62 66/66/66
f 59/59/59 66/66/66 64/64/64
f 62/62/62 63/63/63 67/67/67
f 67/67/67 66/66/66 62/62/62
f 68/68/68 67/67/67 63/63/63
f 69/69/69 65/65/65 64/64/64
f 65/65/65 69/69/69 70/70/70
f 71/71/71 64/64/64 66/66/66
f 66/66/66 67/67/67 71/71/71
f 64/64/64 71/71/71 69/69/69
f 67/67/67 68/68/68 72/72/72
f 72/72/72 71/71/71 67/67/67
f 73/73/73 72/72/72 68/68/68
f 74/74/74 70/70/70 69/69/69
f 70/70/70 74/74/74 75/75/75
f 76/76/76 69/69/69 71/71/71
f 71/71/71 72/72/72 76/76/76
f 69/69/69 76/76/76 74/74/74
f 72/72/72 73/73/73 77/77/77
f 77/77/77 76/76/76 72/72/72
f 78/78/78 77/77/77 73/73/73
f 79/79/79 75/75/75 74/74/74
f 75/75/75 79/79/79 80/80/80
f 81/81/81 74/74/74 76/76/76
f 76/76/76 77/77/77 81/81/81
f 74/74/74 81/81/81 79/79/79
f 77/77/77 78/78/78 82/82/82
f 82/82/82 81/81/81 77/77/77
f 83/83/83 82/82/82 78/78/78
f 84/84/84 80/80/80 79/79/79
f 80/80/80 84/84/84 85/85/85
f 86/86/86 79/79/79 81/81/81
f 81/81/81 82/82/82 86/86/86
f 79/79/79 86/86/86 84/84/84
f 82/82/82 83/83/83 87/87/87
f 87/87/87 86/86/86 82/82/82
f 88/88/88 87/87/87 83/83/83
f 89/89/89 85/85/85 84/84/84
f 85/85/85 89/89/89 90/90/90
f 91/91/91 84/84/84 86/86/86
f 86/86/86 87/87/87 91/91/91
f 84/84/84 91/91/91 89/89/89
f 87/87/87 88/88/88 92/92/92
f 92/92/92 91/91/91 87/87/87
f 93/93/93 92/92/92 88/88/88
f 94/94/94 90/90/90 89/89/89
f 90/90/90 94/94/94 95/95/95
f 96/96/96 95/95/95 94/94/94
f 97/97/97 89/89/89 91/91/91
f 91/91/91 92/92/92 97/97/97
f 89/89/89 97/97/97 94/94/94
f 92/92/92 93/93/93 98/98/98
f 98/98/98 97/97/97 92/92/92
f 99/99/99 98/98/98 93/93/93
f 94/94/94 100/100/100 96/96/96
f 100/100/100 94/94/94 97/97/97
f 97/97/97 98/98/98 100/100/100
f 101/101/101 96/96/96 100/100/100
f 98/98/98 99/99/99 102/102/102
f 102/102/102 100/100/100 98/98/98
f 100/100/100 102/102/102 101/101/101
f 103/103/103 102/102/102 99/99/99
f 104/104/104 101/101/101 102/102/102
f 102/102/102 103/103/103 104/104/104
f 105/105/105 104/104/104 103/103/103
f 108/108/108 107/107/107 106/106/106
f 109/109/109 106/106/106 107/107/107
f 107/107/107 110/110/110 109/109/109
f 106/106/106 109/109/109 111/111/111
f 112/112/112 109/109/109 110/110/110
f 110/110/110 113/113/113 112/112/112
f 114/114/114 111/111/111 109/109/109
f 109/109/109 112/112/112 114/114/114
f 111/111/111 114/114/114 115/115/115
f 116/116/116 112/112/112 113/113/113
f 113/113/113 117/117/117 116/116/116
f 118/118/118 116/116/116 117/117/117
f 119/119/119 115/115/115 114/114/114
f 115/115/115 119/119/119 120/120/120
f 121/121/121 114/114/114 112/112/112
f 112/112/112 116/116/116 121/121/121
f 114/114/114 121/121/121 119/119/119
f 116/116/116 118/118/118 122/122/122
f 122/122/122 121/121/121 116/116/116
f 123/123/123 122/122/122 118/118/118
f 124/124/124 120/120/120 119/119/119
f 120/120/120 124/124/124 125/125/125
f 126/126/126 119/119/119 121/121/121
f 121/121/121 122/122/122 126/126/126
f 119/119/119 126/126/126 124/124/124
f 122/122/122 123/123/123 127/127/127
f 127/127/127 126/126/126 122/122/122
f 128/128/128 127/127/127 123/123/123
f 129/129/129 125/125/125 124/124/124
f 125/125/125 129/129/129 130/130/130
f 131/131/131 124/124/124 126/126/126
f 126/126/126 127/127/127 131/131/131
f 124/124/124 131/131/131 129/129/129
f 127/127/127 128/128/128 132/132/132
f 132/132/132 131/131/131 127/127/127
f 133/133/133 132/132/132 128/128/128
f 134/134/134 130/130/130 129/129/129
f 130/130/130 134/134/134 135/135/135
f 136/136/136 129/129/129 131/131/131
f 131/131/131 132/132/132 136/136/136
f 129/129/129 136/136/136 134/134/134
f 132/132/132 133/133/133 137/137/137
f 137/137/137 136/136/136 132/132/132
f 138/138/138 137/137/137 133/133/133
f 139/139/139 135/135/135 134/134/134
f 135/135/135 139/139/139 140/140/140
f 141/141/141 134/134/134 136/136/136
f 136/136/136 137/137/137 141/141/141
f 134/134/134 141/141/141 139/139/139
f 137/137/137 138/138/138 142/142/142
f 142/142/142 141/141/141 137/137/137
f 143/143/143 142/142/142 138/138/138
f 144/144/144 140/140/140 139/139/139
f 140/140/140 144/144/144 145/145/145
f 146/146/146 139/139/139 141/141/141
f 141/141/141 142/142/142 146/146/146
f 139/139/139 146/146/146 144/144/144
f 142/142/142 143/143/143 147/147/147
f 147/147/147 146/146/146 142/142/142
f 148/148/148 147/147/147 143/143/143
f 149/149/149 145/145/145 144/144/144
f 145/145/145 149/149/149 150/150/150
f 151/151/151 144/144/144 146/146/146
f 146/146/146 147/147/147 151/151/151
f 144/144/144 151/151/151 149/149/149
f 147/147/147 148/148/148 152/152/152
f 152/152/152 151/151/151 147/147/147
f 153/153/153 152/152/152 148/148/148
f 154/154/154 150/150/150 149/149/149
f 150/150/150 154/154/154 155/155/155
f 156/156/156 149/149/149 151/151/151
f 151/151/151 152/152/152 156/156/156
f 149/149/149 156/156/156 154/154/154
f 152/152/152 153/153/153 157/157/157
f 157/157/157 156/156/156 152/152/152
f 158/158/158 157/157/157 153/153/153
f 159/159/159 155/155/155 154/154/154
f 155/155/155 159/159/159 160/160/160
f 161/161/161 154/154/154 156/156/156
f 156/156/156 157/157/157 161/161/161
f 154/154/154 161/161/161 159/159/159
f 157/157/157 158/158/158 162/162/162
f 162/162/162 161/161/161 157/157/157
f 163/163/163 162/162/162 158/158/158
f 164/164/164 160/160/160 159/159/159
f 160/160/160 164/164/164 165/165/165
f 166/166/166 159/159/159 161/161/161
f 161/161/161 162/162/162 166/166/166
f 159/159/159 166/166/166 164/164/164
f 162/162/162 163/163/163 167/167/167
f 167/167/167 166/166/166 162/162/162
f 168/168/168 167/167/167 163/163/163
f 169/169/169 165/165/165 164/164/164
f 165/165/165 169/169/169 170/170/170
f 171/171/171 164/164/164 166/166/166
f 166/166/166 167/167/167 171/171/171
f 164/164/164 171/171/171 169/169/169
f 167/167/167 168/168/168 172/172/172
f 172/172/172 171/171/171 167/167/167
f 173/173/173 172/172/172 168/168/168
f 174/174/174 170/170/170 169/169/169
f 170/170/170 174/174/174 175/175/175
f 176/176/176 169/169/169 171/171/171
f 171/171/171 172/172/172 176/176/176
f 169/169/169 176/176/176 174/174/174
f 172/172/172 173/173/173 177/177/177
f 177/177/177 176/176/176 172/172/172
f 178/178/178 177/177/177 173/173/173
f 179/179/179 175/175/175 174/174/174
f 175/175/175 179/179/179 180/180/180
f 181/181/181 174/174/174 176/176/176
f 176/176/176 177/177/177 181/181/181
f 174/174/174 181/181/181 179/179/179
f 177/177/177 178/178/178 182/182/182
f 182/182/182 181/181/181 177/177/177
f 183/183/183 182/182/182 178/178/178
f 184/184/184 180/180/180 179/179/179
f 180/180/180 184/184/184 185/185/185
f 186/186/186 179/179/179 181/181/181
f 181/181/181 182/182/182 186/186/186
f 179/179/179 186/186/186 184/184/184
f 182/182/182 183/183/183 187/187/187
f 187/187/187 186/186/186 182/182/182
f 188/188/188 187/187/187 183/183/183
f 189/189/189 185/185/185 184/184/184
f 185/185/185 189/189/189 190/190/190
f 191/191/191 184/184/184 186/186/186
f 186/186/186 187/187/187 191/191/191
f 184/184/184 191/191/191 189/189/189
f 187/187/187 188/188/188 192/192/192
f 192/192/192 191/191/191 187/187/187
f 193/193/193 192/192/192 188/188/188
f 194/194/194 190/190/190 189/189/189
f 190/190/190 194/194/194 195/195/195
f 196/196/196 189/189/189 191/191/191
f 191/191/191 192/192/192 196/196/196
f 189/189/189 196/196/196 194/194/194
f 192/192/192 193/193/193 197/197/197
f 197/197/197 196/196/196 192/192/192
f 198/198/198 197/197/197 193/193/193
f 199/199/199 195/195/195 194/194/194
f 195/195/195 199/199/199 200/200/200
f 201/201/201 200/200/200 199/199/199
f 202/202/202 194/194/194 196/196/196
f 196/196/196 197/197/197 202/202/202
f 194/194/194 202/202/202 199/199/199
f 197/197/197 198/198/198 203/203/203
f 203/203/203 202/202/202 197/197/197
f 204/204/204 203/203/203 198/198/198
f 199/199/199 205/205/205 201/201/201
f 205/205/205 199/199/199 202/202/202
f 202/202/202 203/203/203 205/205/205
f 206/206/206 201/201/201 205/205/205
f 203/203/203 204/204/204 207/207/207
f 207/207/207 205/205/205 203/203/203
f 205/205/205 207/207/207 206/206/206
f 208/208/208 207/207/207 204/204/204
f 209/209/209 206/206/206 207/207/207
f 207/207/207 208/208/208 209/209/209
f 210/210/210 209/209/209 208/208/208
