g A_Build_wanshengjielihedui_01_light
v -0.937393367 8.94033146 -5.92359066
v -0.9000386 8.62996483 -5.88623524
v -1.06920242 8.68694973 -5.79114246
v -1.21334481 8.82452393 -5.82582617
v -0.80494523 8.68694973 -6.05539799
v -1.24802744 8.96209717 -5.96996737
v -0.839629054 8.82452393 -6.19954157
v -1.15293527 9.01908207 -6.13913202
v -0.983770907 8.96209717 -6.23422432
v -3.03505921 7.61191225 -5.43175936
v -2.81951809 7.53316212 -5.21621752
v -3.13015199 7.55492783 -5.26259375
v -2.86589527 7.55492783 -5.52685165
v -3.09546924 7.41735411 -5.11845255
v -2.7217536 7.41735458 -5.4921689
v -2.95132613 7.27977943 -5.08376884
v -2.68706965 7.27977943 -5.34802532
v -2.78216362 7.22279453 -5.17886257
v -3.45627737 3.93411851 -4.84878063
v -3.24073625 3.85536861 -4.63323832
v -3.55137014 3.87713432 -4.67961597
v -3.28711367 3.87713432 -4.94387245
v -3.51668763 3.73956037 -4.53547478
v -3.14297175 3.73956108 -4.90919018
v -3.37254453 3.60198593 -4.50079107
v -3.10828781 3.60198593 -4.76504707
v -3.20338178 3.54500103 -4.59588385
v -3.75570965 1.8781054 -4.72468472
v -3.540169 1.79935515 -4.50914335
v -3.85080242 1.82112122 -4.55552053
v -3.58654594 1.82112122 -4.81977701
v -3.81611991 1.68354738 -4.41137934
v -3.44240403 1.68354797 -4.78509426
v -3.6719768 1.54597282 -4.37669563
v -3.40772033 1.54597282 -4.64095163
v -3.50281429 1.48898804 -4.47178841
v 3.45346642 5.65681553 -5.53883362
v 3.66900849 5.57806492 -5.32329082
v 3.35837436 5.59983158 -5.36966801
v 3.62263083 5.59983158 -5.63392544
v 3.39305663 5.46225739 -5.22552776
v 3.76677275 5.46225834 -5.59924316
v 3.53719926 5.32468319 -5.19084263
v 3.80145645 5.32468319 -5.45509958
v 3.7063632 5.26769829 -5.2859354
v 2.85042572 7.50836658 -6.04235315
v 3.06596756 7.42961693 -5.82681084
v 2.75533342 7.45138216 -5.87318897
v 3.01959014 7.45138216 -6.13744545
v 2.79001617 7.31380844 -5.72904778
v 3.16373181 7.31380892 -6.1027627
v 2.93415856 7.17623377 -5.69436407
v 3.19841576 7.17623377 -5.95861912
v 3.10332227 7.11924934 -5.78945684
v 3.6754415 2.64389634 -4.34039927
v 3.8909831 2.56514645 -4.1248579
v 3.58034945 2.58691287 -4.17123508
v 3.84460592 2.58691287 -4.43549204
v 3.61503196 2.44933844 -4.02709341
v 3.98874784 2.44933963 -4.40080929
v 3.75917435 2.31176376 -3.99241018
v 4.02343178 2.31176376 -4.25666618
v 3.92833829 2.2547791 -4.08750248
v 6.31487465 0.76860106 -4.83447886
v 6.53041744 0.689851046 -4.61893654
v 6.21978331 0.71161741 -4.6653142
v 6.48403978 0.71161741 -4.92957163
v 6.25446558 0.574042976 -4.521173
v 6.62818146 0.574044168 -4.89488888
v 6.39860773 0.436468482 -4.4864893
v 6.66286564 0.436468482 -4.7507453
v 6.56777143 0.37948364 -4.58158159
v 7.70851851 0.582243025 -4.06647825
v 7.92406034 0.503492713 -3.85093641
v 7.61342573 0.52525878 -3.89731383
v 7.87768221 0.52525878 -4.16157055
v 7.64810848 0.387684941 -3.75317264
v 8.02182388 0.387685537 -4.1268878
v 7.79225159 0.250110477 -3.71848869
v 8.05650806 0.250110477 -3.98274469
v 7.96141529 0.193125606 -3.81358123
vt 0.527518094 0.823267162
vt 0.527531445 0.817515254
vt 0.523453414 0.819426715
vt 0.521956086 0.823388815
vt 0.531502724 0.819401979
vt 0.523554087 0.827143848
vt 0.533127069 0.823299706
vt 0.527492106 0.829014301
vt 0.531466365 0.827175319
vt 0.540121734 0.913064539
vt 0.540147781 0.90731746
vt 0.536183774 0.911194146
vt 0.544096053 0.911225617
vt 0.534585774 0.907439113
vt 0.545756757 0.907350004
vt 0.536083043 0.903477013
vt 0.544132411 0.903452218
vt 0.540161073 0.901565611
vt 0.540217519 0.929394901
vt 0.540243506 0.923647881
vt 0.536279559 0.927524447
vt 0.544191778 0.927556038
vt 0.534681499 0.923769474
vt 0.545852542 0.923680305
vt 0.536178887 0.919807374
vt 0.544228196 0.919782579
vt 0.540256917 0.917895973
vt 0.540064812 0.899115324
vt 0.540090799 0.893368304
vt 0.536126792 0.89724493
vt 0.544039011 0.897276402
vt 0.534528732 0.893489897
vt 0.545699716 0.893400788
vt 0.53602612 0.889527798
vt 0.544075489 0.889503002
vt 0.540104151 0.887616277
vt 0.527184606 0.904250383
vt 0.527210653 0.898503304
vt 0.523246646 0.90237999
vt 0.531158864 0.902411461
vt 0.521648645 0.898624897
vt 0.532819569 0.898535848
vt 0.523145914 0.894662857
vt 0.531195283 0.894638181
vt 0.527224064 0.892751396
vt 0.527369022 0.843443871
vt 0.52739501 0.837696731
vt 0.523431003 0.841573358
vt 0.531343281 0.841604948
vt 0.521833003 0.837818384
vt 0.533003986 0.837729335
vt 0.523330331 0.833856344
vt 0.53137964 0.833831489
vt 0.527408361 0.831944823
vt 0.539903581 0.868739128
vt 0.539929628 0.862991989
vt 0.535965562 0.866868615
vt 0.54387784 0.866900086
vt 0.534367561 0.863113642
vt 0.545538545 0.863024473
vt 0.53586483 0.859151483
vt 0.543914258 0.859126687
vt 0.53994292 0.857240081
vt 0.527602851 0.8589468
vt 0.527628779 0.853199661
vt 0.523664832 0.857076287
vt 0.53157711 0.857107878
vt 0.522066832 0.853321195
vt 0.533237815 0.853232145
vt 0.52356416 0.849359155
vt 0.531613469 0.849334359
vt 0.52764219 0.847447753
vt 0.527362883 0.873857498
vt 0.527388871 0.868110478
vt 0.523424864 0.871987104
vt 0.531337142 0.872018635
vt 0.521826863 0.868232071
vt 0.532997847 0.868143022
vt 0.523324192 0.864270031
vt 0.531373501 0.864245176
vt 0.527402222 0.86235857
vn 0.520606637 0.676710486 0.520607054
vn 0.697079301 0.167798311 0.69708252
vn 0.349112421 0.285017192 0.892684579
vn 0.0526134223 0.56800437 0.821342051
vn 0.892683566 0.285017192 0.349115014
vn -0.0187282003 0.850992799 0.524843156
vn 0.821340561 0.568006694 0.0526133664
vn 0.17687352 0.968210518 0.176873296
vn 0.524841368 0.850993931 -0.0187287163
vn 0.176872924 0.968210876 0.176871911
vn 0.52060616 0.676710963 0.520606875
vn -0.0187299028 0.850992799 0.524843276
vn 0.524841785 0.850993752 -0.0187301151
vn 0.0526123792 0.568004191 0.821342289
vn 0.821340799 0.568006396 0.0526130386
vn 0.349113941 0.285016596 0.892684102
vn 0.892683268 0.285016537 0.349116147
vn 0.697079837 0.167797163 0.6970824
vn 0.17687279 0.968210876 0.176871866
vn 0.520605862 0.676710904 0.520607173
vn -0.0187303964 0.850992918 0.524843156
vn 0.524841726 0.850993752 -0.0187300947
vn 0.0526116565 0.568003953 0.821342528
vn 0.821340859 0.568006158 0.052613128
vn 0.349113077 0.285016239 0.892684579
vn 0.892683446 0.285016477 0.349115819
vn 0.697079659 0.167797178 0.697082639
vn 0.176873654 0.968210638 0.176872715
vn 0.520605862 0.676711023 0.520606995
vn -0.0187290926 0.850992799 0.524843335
vn 0.524841964 0.850993693 -0.0187287852
vn 0.0526128896 0.56800437 0.821342051
vn 0.821340442 0.568006694 0.0526143685
vn 0.349113762 0.285017431 0.892683923
vn 0.89268291 0.28501761 0.349116504
vn 0.697079539 0.167798653 0.697082341
vn 0.176873162 0.968210638 0.176873162
vn 0.52060616 0.676710486 0.520607471
vn -0.0187291894 0.850992978 0.524842978
vn 0.52484107 0.85099417 -0.0187287983
vn 0.0526111946 0.568004966 0.821341813
vn 0.821340561 0.568006635 0.0526131801
vn 0.34911111 0.285017967 0.892684758
vn 0.892683625 0.285016984 0.349114954
vn 0.69707936 0.167798132 0.697082579
vn 0.176870748 0.968211532 0.176870361
vn 0.520605564 0.67671138 0.520606995
vn -0.0187324584 0.850993097 0.52484262
vn 0.524841011 0.85099411 -0.0187321026
vn 0.0526101962 0.56800288 0.821343362
vn 0.821341395 0.568005621 0.0526112579
vn 0.349111497 0.285014749 0.892685711
vn 0.8926844 0.285015523 0.349114239
vn 0.697079718 0.16779618 0.697082758
vn 0.176872104 0.968210995 0.176872313
vn 0.520605862 0.676710546 0.52060771
vn -0.0187286139 0.850993156 0.52484268
vn 0.524840176 0.850994706 -0.018728124
vn 0.0526135452 0.568002462 0.821343541
vn 0.821340859 0.568006098 0.0526143983
vn 0.349111885 0.285015464 0.892685354
vn 0.892683566 0.285016686 0.349115431
vn 0.697078884 0.167798474 0.697083056
vn 0.176871374 0.968211114 0.176872045
vn 0.520606339 0.676710248 0.52060765
vn -0.018728599 0.850993216 0.52484262
vn 0.524839461 0.850995243 -0.0187284835
vn 0.0526125841 0.568002462 0.821343541
vn 0.821341097 0.568005919 0.0526136681
vn 0.349111378 0.285015583 0.892685473
vn 0.892683744 0.285015315 0.349116147
vn 0.697078466 0.167796507 0.69708389
vn 0.176872686 0.968210876 0.176872075
vn 0.520606875 0.676710665 0.520606577
vn -0.0187298246 0.850992799 0.524843216
vn 0.524841249 0.850993991 -0.0187310334
vn 0.052611731 0.568004191 0.821342289
vn 0.821341395 0.568005562 0.0526112281
vn 0.349111021 0.285016626 0.892685235
vn 0.892684877 0.285015792 0.349112779
vn 0.697080135 0.167797923 0.697081804
g A_Build_wanshengjielihedui_01_light_0
f 3/3/3 2/2/2 1/1/1
f 4/4/4 3/3/3 1/1/1
f 1/1/1 2/2/2 5/5/5
f 6/6/6 4/4/4 1/1/1
f 7/7/7 1/1/1 5/5/5
f 6/6/6 1/1/1 8/8/8
f 9/9/9 1/1/1 7/7/7
f 8/8/8 1/1/1 9/9/9
f 12/12/12 11/11/11 10/10/10
f 10/10/10 11/11/11 13/13/13
f 14/14/14 11/11/11 12/12/12
f 13/13/13 11/11/11 15/15/15
f 14/14/14 16/16/16 11/11/11
f 15/15/15 11/11/11 17/17/17
f 16/16/16 18/18/18 11/11/11
f 11/11/11 18/18/18 17/17/17
f 21/21/21 20/20/20 19/19/19
f 19/19/19 20/20/20 22/22/22
f 23/23/23 20/20/20 21/21/21
f 22/22/22 20/20/20 24/24/24
f 23/23/23 25/25/25 20/20/20
f 24/24/24 20/20/20 26/26/26
f 25/25/25 27/27/27 20/20/20
f 20/20/20 27/27/27 26/26/26
f 30/30/30 29/29/29 28/28/28
f 28/28/28 29/29/29 31/31/31
f 32/32/32 29/29/29 30/30/30
f 31/31/31 29/29/29 33/33/33
f 32/32/32 34/34/34 29/29/29
f 33/33/33 29/29/29 35/35/35
f 34/34/34 36/36/36 29/29/29
f 29/29/29 36/36/36 35/35/35
f 39/39/39 38/38/38 37/37/37
f 37/37/37 38/38/38 40/40/40
f 41/41/41 38/38/38 39/39/39
f 40/40/40 38/38/38 42/42/42
f 41/41/41 43/43/43 38/38/38
f 42/42/42 38/38/38 44/44/44
f 43/43/43 45/45/45 38/38/38
f 38/38/38 45/45/45 44/44/44
f 48/48/48 47/47/47 46/46/46
f 46/46/46 47/47/47 49/49/49
f 50/50/50 47/47/47 48/48/48
f 49/49/49 47/47/47 51/51/51
f 50/50/50 52/52/52 47/47/47
f 51/51/51 47/47/47 53/53/53
f 52/52/52 54/54/54 47/47/47
f 47/47/47 54/54/54 53/53/53
f 57/57/57 56/56/56 55/55/55
f 55/55/55 56/56/56 58/58/58
f 59/59/59 56/56/56 57/57/57
f 58/58/58 56/56/56 60/60/60
f 59/59/59 61/61/61 56/56/56
f 60/60/60 56/56/56 62/62/62
f 61/61/61 63/63/63 56/56/56
f 56/56/56 63/63/63 62/62/62
f 66/66/66 65/65/65 64/64/64
f 64/64/64 65/65/65 67/67/67
f 68/68/68 65/65/65 66/66/66
f 67/67/67 65/65/65 69/69/69
f 68/68/68 70/70/70 65/65/65
f 69/69/69 65/65/65 71/71/71
f 70/70/70 72/72/72 65/65/65
f 65/65/65 72/72/72 71/71/71
f 75/75/75 74/74/74 73/73/73
f 73/73/73 74/74/74 76/76/76
f 77/77/77 74/74/74 75/75/75
f 76/76/76 74/74/74 78/78/78
f 77/77/77 79/79/79 74/74/74
f 78/78/78 74/74/74 80/80/80
f 79/79/79 81/81/81 74/74/74
f 74/74/74 81/81/81 80/80/80
