g bend_heng_alpha
v 0.137887046 0.951250911 0
v -0.00914205518 0.773953259 3.83502874E-09
v -0.0114191249 0.963001549 0
v 0.110860527 0.764508843 3.83502785E-09
v 0.283517003 0.916288316 0
v -0.00686491048 0.584905267 7.67005748E-09
v 0.227908328 0.736408293 3.83502785E-09
v 0.421884477 0.858974516 0
v 0.0838340893 0.577766895 7.6700557E-09
v -0.00458776485 0.395856827 1.15050867E-08
v 0.339119136 0.690343201 3.83502785E-09
v 0.54958266 0.780721009 0
v 0.172299743 0.556528211 7.6700557E-09
v 0.0568073429 0.391024649 1.15050867E-08
v -0.00231061922 0.206808522 1.5340115E-08
v 0.441754609 0.62744832 3.83502874E-09
v 0.663467109 0.683454633 0
v 0.256353855 0.521711946 7.67005748E-09
v 0.116691068 0.376648128 1.15050867E-08
v 0.0297809038 0.20428288 1.53401114E-08
v -3.3493292E-05 0.000588308903 1.91751397E-08
v 6.81341626E-05 0.000580307678 1.91751397E-08
v 0.0610823967 0.196768001 1.53401114E-08
v 0.000167267368 0.000556511281 1.91751397E-08
v 0.533287346 0.549271762 3.83502829E-09
v 0.760733485 0.569570243 0
v 0.33392638 0.474175304 7.67005748E-09
v 0.173588112 0.353080481 1.15050867E-08
v 0.0908227712 0.184449121 1.53401114E-08
v 0.00026144844 0.000517499575 1.91751397E-08
v 0.611463904 0.457739025 3.83502874E-09
v 0.838986933 0.441872001 0
v 0.403107613 0.415089011 7.67005659E-09
v 0.226098195 0.320902288 1.15050867E-08
v 0.118269973 0.167629436 1.5340115E-08
v 0.000348366273 0.00046423098 1.91751397E-08
v 0.674358845 0.355103493 3.83502785E-09
v 0.896300793 0.303504527 0
v 0.462193936 0.345907778 7.67005748E-09
v 0.272927791 0.280906111 1.15050867E-08
v 0.142748117 0.146723285 1.53401132E-08
v 0.000425884704 0.000398027885 1.91751397E-08
v 0.720423877 0.243892714 3.83502829E-09
v 0.931263387 0.157874793 0
v 0.509730518 0.268335074 7.67005748E-09
v 0.312924117 0.234076336 1.15050867E-08
v 0.163654268 0.12224514 1.5340115E-08
v 0.000492093095 0.000320504914 1.91751397E-08
v 0.748524427 0.126845285 3.83502874E-09
v 0.943014026 0.0085685458 0
v 0.544546962 0.184281051 7.6700557E-09
v 0.345102102 0.181566432 1.15050867E-08
v 0.180473953 0.094798103 1.53401114E-08
v 0.000545360963 0.000233587067 1.91751397E-08
v 0.757968903 0.00684262346 3.83502829E-09
v 0.931263566 -0.140735731 0
v 0.565785527 0.0958155543 7.67005748E-09
v 0.368669748 0.124669306 1.15050867E-08
v 0.192792833 0.0650575757 1.53401132E-08
v 0.000584373367 0.000139402226 1.91751397E-08
v 0.748524427 -0.113158435 3.83502785E-09
v 0.89630127 -0.286365747 0
v 0.572923601 0.00511662615 7.67005659E-09
v 0.383046567 0.0647858977 1.15050867E-08
v 0.200307563 0.0337562263 1.5340115E-08
v 0.000608172035 4.02750666E-05 1.91751397E-08
v 0.720424175 -0.230206326 3.83502785E-09
v 0.838987827 -0.424733311 0
v 0.565785646 -0.0855811536 7.6700557E-09
v 0.387878567 0.00339062838 1.15050867E-08
v 0.202833191 0.00166463014 1.53401132E-08
v 0.000616167265 -6.13554148E-05 1.91751397E-08
v 0.674359441 -0.341417104 3.83502874E-09
v 0.760734737 -0.552431703 0
v 0.544547141 -0.174046814 7.67005659E-09
v 0.383046567 -0.0580038652 1.15050867E-08
v 0.200307712 -0.0304265097 1.53401114E-08
v 0.000608172035 -0.000162982877 1.91751397E-08
v 0.611464679 -0.444052637 3.83502874E-09
v 0.663468301 -0.666316211 0
v 0.509730995 -0.258100897 7.67005659E-09
v 0.368670046 -0.117887378 1.15050867E-08
v 0.192792907 -0.0617279299 1.53401114E-08
v 0.000584373367 -0.000262110028 1.91751397E-08
v 0.5332883 -0.535585642 3.83502829E-09
v 0.549584031 -0.763583004 0
v 0.462194651 -0.33567363 7.67005748E-09
v 0.345102549 -0.174784571 1.15050867E-08
v 0.180474028 -0.0914684534 1.5340115E-08
v 0.000545355666 -0.000356295612 1.91751397E-08
v 0.441755682 -0.613762259 3.83502874E-09
v 0.421885818 -0.841836691 0
v 0.403108388 -0.404854953 7.67005748E-09
v 0.312924564 -0.227294654 1.15050867E-08
v 0.163654566 -0.118915588 1.5340115E-08
v 0.000492095365 -0.000443216501 1.91751397E-08
v 0.339120179 -0.676657379 3.83502874E-09
v 0.283518612 -0.89915061 0
v 0.333927155 -0.463941485 7.67005659E-09
v 0.272928327 -0.274124384 1.15050867E-08
v 0.142748341 -0.143393725 1.53401132E-08
v 0.000425884704 -0.000520735688 1.91751397E-08
v 0.227909699 -0.72272259 3.83502829E-09
v 0.137888655 -0.934113503 0
v 0.256354541 -0.511478245 7.6700557E-09
v 0.226098642 -0.31412077 1.15050867E-08
v 0.118270278 -0.164300025 1.5340115E-08
v 0.000348370057 -0.000586941838 1.91751397E-08
v 0.110861912 -0.750823498 3.83502874E-09
v -0.0114175985 -0.94586432 0
v 0.172300667 -0.546294689 7.67005659E-09
v 0.173588797 -0.346298993 1.15050867E-08
v 0.0908231512 -0.181119725 1.5340115E-08
v 0.00026144844 -0.000640205108 1.91751397E-08
v -0.00914083421 -0.760268092 3.83502829E-09
v -0.160723865 -0.934113979 0
v 0.0838350058 -0.567533553 7.6700557E-09
v 0.11669153 -0.369866669 1.15050867E-08
v 0.0610827766 -0.193438664 1.53401132E-08
v 0.000167261314 -0.00067921984 1.91751397E-08
v -0.129143283 -0.750823855 3.83502829E-09
v -0.306353807 -0.899151504 0
v -0.00686399452 -0.574671865 7.67005659E-09
v 0.0568081066 -0.384243488 1.15050867E-08
v 0.0297813583 -0.200953543 1.5340115E-08
v 6.81364327E-05 -0.000703018508 1.91751397E-08
v -0.246191144 -0.722723365 3.83502874E-09
v -0.44472149 -0.841837943 0
v -0.0975628495 -0.567533791 7.6700557E-09
v -0.00458723074 -0.389075577 1.15050867E-08
v -0.00231031422 -0.203479275 1.53401132E-08
v -3.3493292E-05 -0.000711017463 1.91751397E-08
v -0.357402056 -0.676658452 3.83502829E-09
v -0.572419643 -0.763584554 0
v -0.186028495 -0.546295285 7.67005659E-09
v -0.0659823418 -0.384243667 1.15050867E-08
v -0.0344018377 -0.200953543 1.53401132E-08
v -0.000135123773 -0.000703018508 1.91751397E-08
v -0.46003747 -0.613763571 3.83502785E-09
v -0.686304212 -0.666318178 0
v -0.270082593 -0.51147902 7.67005659E-09
v -0.125865906 -0.369866997 1.15050867E-08
v -0.0657031834 -0.193438888 1.5340115E-08
v -0.000234250925 -0.00067922438 1.91751397E-08
v -0.551570415 -0.535587192 3.83502829E-09
v -0.783570826 -0.552433968 0
v -0.347655386 -0.463942498 7.6700557E-09
v -0.182763264 -0.346299499 1.15050849E-08
v -0.0954437777 -0.181120098 1.53401132E-08
v -0.000328433496 -0.000640213431 1.91751397E-08
v -0.629747033 -0.444054484 3.83502785E-09
v -0.861824632 -0.424735785 0
v -0.416836709 -0.404856205 7.67005659E-09
v -0.235273182 -0.314121455 1.15050867E-08
v -0.122890987 -0.164300412 1.53401114E-08
v -0.000415356626 -0.000586941838 1.91751397E-08
v -0.692642152 -0.341419071 3.83502829E-09
v -0.919138432 -0.286368281 0
v -0.475923181 -0.33567515 7.67005659E-09
v -0.282102853 -0.274125248 1.15050867E-08
v -0.147369057 -0.143394187 1.53401132E-08
v -0.000492879597 -0.000520737958 1.91751397E-08
v -0.738707304 -0.230208308 3.83502874E-09
v -0.954101145 -0.140738472 0
v -0.523459852 -0.258102357 7.67005748E-09
v -0.322099209 -0.227295548 1.15050867E-08
v -0.168275356 -0.118916117 1.53401114E-08
v -0.000559081207 -0.000443216501 1.91751397E-08
v -0.766808033 -0.113160655 3.83502785E-09
v -0.965851903 0.00856778212 0
v -0.558276236 -0.174048409 7.6700557E-09
v -0.354277432 -0.174785569 1.15050867E-08
v -0.185095042 -0.0914689079 1.53401132E-08
v -0.000612348318 -0.000356295612 1.91751397E-08
v -0.776252568 0.00684201345 3.83502829E-09
v -0.954101562 0.157874033 0
v -0.57951504 -0.0855827555 7.67005659E-09
v -0.377844989 -0.117888361 1.15050867E-08
v -0.197413921 -0.0617284626 1.5340115E-08
v -0.000651357695 -0.000262107758 1.91751397E-08
v -0.766808391 0.126844451 3.83502829E-09
v -0.919138849 0.30350399 0
v -0.586653233 0.00511616841 7.67005659E-09
v -0.392221898 -0.0580050088 1.15050867E-08
v -0.204928786 -0.0304271206 1.53401114E-08
v -0.000675162417 -0.00016298893 1.91751397E-08
v -0.738707721 0.243892401 3.83502829E-09
v -0.861825287 0.441871524 0
v -0.579515278 0.0958150998 7.67005659E-09
v -0.397053897 0.003390247 1.15050867E-08
v -0.207454517 0.0016644015 1.53401132E-08
v -0.000683157647 -6.13554148E-05 1.91751397E-08
v -0.692642689 0.355103016 3.83502785E-09
v -0.78357172 0.569569707 0
v -0.558276534 0.184280589 7.67005659E-09
v -0.392222047 0.0647855848 1.15050867E-08
v -0.20492886 0.0337560773 1.53401132E-08
v -0.000675158633 4.02750666E-05 1.91751397E-08
v -0.629747689 0.457738727 3.83502829E-09
v -0.686305285 0.683454156 0
v -0.523460209 0.268334866 7.67005659E-09
v -0.377845258 0.124669157 1.15050849E-08
v -0.19741407 0.0650575012 1.53401132E-08
v -0.000651360722 0.000139402226 1.91751397E-08
v -0.551571369 0.549271584 3.83502874E-09
v -0.572420895 0.78072083 0
v -0.475923747 0.34590748 7.6700557E-09
v -0.35427776 0.181566209 1.15050849E-08
v -0.185095191 0.0947979465 1.53401114E-08
v -0.000612348318 0.000233581755 1.91751397E-08
v -0.460038483 0.627448022 3.83502829E-09
v -0.444722801 0.858974278 0
v -0.416837335 0.415088713 7.6700557E-09
v -0.322099656 0.234076038 1.15050849E-08
v -0.168275654 0.12224514 1.53401132E-08
v -0.000559083477 0.000320504914 1.91751397E-08
v -0.3574031 0.690342903 3.83502874E-09
v -0.306355268 0.916288316 0
v -0.347656101 0.474175155 7.67005659E-09
v -0.28210333 0.280906111 1.15050867E-08
v -0.14736928 0.146723285 1.5340115E-08
v -0.000492879597 0.000398027885 1.91751397E-08
v -0.246192217 0.736408293 3.83502829E-09
v -0.16072537 0.951250911 0
v -0.270083368 0.521711826 7.67005659E-09
v -0.235273644 0.320902288 1.15050849E-08
v -0.12289121 0.167629436 1.53401132E-08
v -0.000415359653 0.00046423098 1.91751397E-08
v -0.129144654 0.764508843 3.83502785E-09
v -0.0114191249 0.963001549 0
v -0.00914205518 0.773953259 3.83502874E-09
v -0.186029419 0.556528211 7.67005748E-09
v -0.182763726 0.353080332 1.15050867E-08
v -0.0954440087 0.184449121 1.5340115E-08
v -0.000328433496 0.000517499575 1.91751397E-08
v -0.097563833 0.577766895 7.67005659E-09
v -0.00686491048 0.584905267 7.67005748E-09
v -0.125866532 0.376648128 1.15050867E-08
v -0.0657035634 0.196768001 1.53401132E-08
v -0.000234253952 0.000556508254 1.91751397E-08
v -0.0659829527 0.391024649 1.15050867E-08
v -0.00458776485 0.395856827 1.15050867E-08
v -0.0344022177 0.20428288 1.53401114E-08
v -0.000135123773 0.000580312219 1.91751397E-08
v -0.00231061922 0.206808522 1.5340115E-08
v -3.3493292E-05 0.000588308903 1.91751397E-08
vt -1.28162831E-08 0.0249999166
vt 0.199999973 0
vt -1.39090659E-08 0
vt 0.199999973 0.0249999166
vt -1.17234968E-08 0.0500000119
vt 0.400000006 0
vt 0.199999973 0.0500000119
vt -1.06307105E-08 0.0750000477
vt 0.400000006 0.0250000358
vt 0.600000024 0
vt 0.199999973 0.0750000477
vt -9.53792778E-09 0.0999999642
vt 0.400000006 0.0500000119
vt 0.600000024 0.0249999166
vt 0.799999952 0
vt 0.199999973 0.0999999642
vt -8.44514148E-09 0.125
vt 0.400000006 0.0750000477
vt 0.600000024 0.0500000119
vt 0.799999952 0.0249998569
vt 1 0
vt 1 0.0249998569
vt 0.799999952 0.0499999523
vt 1 0.0499999523
vt 0.199999973 0.125
vt -7.35235872E-09 0.149999976
vt 0.400000006 0.0999999642
vt 0.600000024 0.0750000477
vt 0.799999952 0.0749999881
vt 1 0.0749999881
vt 0.199999988 0.149999976
vt -6.25957242E-09 0.175000012
vt 0.400000006 0.125
vt 0.600000024 0.0999999642
vt 0.799999952 0.0999999046
vt 1 0.0999999046
vt 0.199999988 0.175000012
vt -5.16678966E-09 0.199999988
vt 0.400000006 0.149999976
vt 0.600000024 0.125
vt 0.799999952 0.12499994
vt 1 0.12499994
vt 0.199999988 0.199999988
vt -4.07400336E-09 0.225000024
vt 0.400000006 0.175000012
vt 0.600000024 0.149999976
vt 0.799999952 0.149999917
vt 1 0.149999917
vt 0.199999988 0.225000024
vt -2.98121705E-09 0.25
vt 0.400000006 0.199999988
vt 0.600000024 0.175000012
vt 0.799999952 0.174999952
vt 1 0.174999952
vt 0.199999988 0.25
vt -1.88844851E-09 0.274999678
vt 0.400000006 0.225000024
vt 0.600000024 0.199999988
vt 0.799999952 0.199999928
vt 1 0.199999928
vt 0.199999988 0.274999678
vt -7.95662203E-10 0.299999714
vt 0.400000006 0.25
vt 0.600000024 0.225000024
vt 0.799999952 0.224999964
vt 1 0.224999964
vt 0.199999988 0.299999714
vt 2.97124103E-10 0.32499975
vt 0.400000006 0.274999678
vt 0.600000024 0.25
vt 0.799999952 0.24999994
vt 1 0.24999994
vt 0.199999988 0.32499975
vt 1.38990508E-09 0.349999666
vt 0.400000006 0.299999714
vt 0.600000024 0.274999678
vt 0.799999952 0.274999619
vt 1 0.274999619
vt 0.199999988 0.349999666
vt 2.48269139E-09 0.374999702
vt 0.400000006 0.32499975
vt 0.600000024 0.299999714
vt 0.799999952 0.299999654
vt 1 0.299999654
vt 0.199999988 0.374999702
vt 3.57547769E-09 0.399999738
vt 0.400000006 0.349999666
vt 0.600000024 0.32499975
vt 0.800000072 0.32499969
vt 1 0.32499969
vt 0.199999988 0.399999738
vt 4.668264E-09 0.424999774
vt 0.400000006 0.374999762
vt 0.600000024 0.349999666
vt 0.800000072 0.349999607
vt 1 0.349999607
vt 0.199999988 0.424999774
vt 5.76104853E-09 0.44999975
vt 0.400000006 0.399999678
vt 0.600000024 0.374999702
vt 0.800000072 0.374999642
vt 1 0.374999642
vt 0.199999988 0.44999975
vt 6.85383483E-09 0.474999785
vt 0.400000006 0.424999774
vt 0.600000024 0.399999738
vt 0.800000072 0.399999678
vt 1 0.399999678
vt 0.199999988 0.474999785
vt 7.94661759E-09 0.499999762
vt 0.400000006 0.44999975
vt 0.600000024 0.424999774
vt 0.800000072 0.424999714
vt 1 0.424999714
vt 0.200000003 0.499999762
vt 9.03940389E-09 0.524999797
vt 0.400000006 0.474999785
vt 0.600000024 0.44999975
vt 0.800000072 0.44999969
vt 1 0.44999969
vt 0.200000003 0.524999797
vt 1.01321884E-08 0.549999833
vt 0.400000006 0.499999762
vt 0.600000024 0.474999785
vt 0.800000072 0.474999726
vt 1 0.474999726
vt 0.200000003 0.549999833
vt 1.12249747E-08 0.574999809
vt 0.400000006 0.524999738
vt 0.600000024 0.499999762
vt 0.800000072 0.499999702
vt 1 0.499999702
vt 0.200000003 0.574999809
vt 1.23177593E-08 0.599999785
vt 0.400000006 0.549999774
vt 0.600000024 0.524999738
vt 0.800000072 0.524999738
vt 1 0.524999738
vt 0.200000003 0.599999785
vt 1.3410542E-08 0.624999762
vt 0.400000006 0.574999809
vt 0.600000024 0.549999774
vt 0.800000072 0.549999774
vt 1 0.549999774
vt 0.200000003 0.624999762
vt 1.45033283E-08 0.649999797
vt 0.400000006 0.599999785
vt 0.600000024 0.574999809
vt 0.800000072 0.574999809
vt 1 0.574999809
vt 0.200000003 0.649999797
vt 1.55961146E-08 0.674999833
vt 0.400000006 0.624999762
vt 0.600000024 0.599999785
vt 0.800000072 0.599999785
vt 1 0.599999785
vt 0.200000003 0.674999833
vt 1.66888992E-08 0.699999809
vt 0.400000006 0.649999738
vt 0.600000024 0.624999762
vt 0.800000072 0.624999762
vt 1 0.624999762
vt 0.200000003 0.699999809
vt 1.77816837E-08 0.724999845
vt 0.400000036 0.674999833
vt 0.600000024 0.649999738
vt 0.800000072 0.649999738
vt 1 0.649999738
vt 0.200000003 0.724999845
vt 1.887447E-08 0.749999881
vt 0.400000036 0.699999809
vt 0.600000024 0.674999833
vt 0.800000072 0.674999833
vt 1 0.674999833
vt 0.200000003 0.749999881
vt 1.99672527E-08 0.774999857
vt 0.400000036 0.724999785
vt 0.600000024 0.699999809
vt 0.800000072 0.699999809
vt 1 0.699999809
vt 0.200000003 0.774999857
vt 2.1060039E-08 0.799999893
vt 0.400000036 0.749999881
vt 0.600000024 0.724999785
vt 0.800000072 0.724999785
vt 1 0.724999785
vt 0.200000003 0.799999893
vt 2.21528254E-08 0.824999928
vt 0.400000036 0.774999857
vt 0.600000024 0.749999881
vt 0.800000072 0.749999881
vt 1 0.749999881
vt 0.200000003 0.824999869
vt 2.32456099E-08 0.849999905
vt 0.400000036 0.799999893
vt 0.600000024 0.774999857
vt 0.800000072 0.774999857
vt 1 0.774999797
vt 0.200000018 0.849999905
vt 2.43383944E-08 0.874999881
vt 0.400000036 0.824999869
vt 0.600000024 0.799999833
vt 0.800000072 0.799999833
vt 1 0.799999833
vt 0.200000018 0.874999881
vt 2.54311807E-08 0.899999917
vt 0.400000036 0.849999905
vt 0.600000024 0.824999869
vt 0.800000072 0.824999869
vt 1 0.824999869
vt 0.200000018 0.899999917
vt 2.65239652E-08 0.924999952
vt 0.400000036 0.874999881
vt 0.600000024 0.849999905
vt 0.800000072 0.849999905
vt 1 0.849999845
vt 0.200000018 0.924999952
vt 2.76167498E-08 0.949999928
vt 0.400000036 0.899999917
vt 0.600000024 0.874999881
vt 0.800000072 0.874999881
vt 1 0.874999881
vt 0.200000018 0.949999928
vt 2.87095361E-08 0.974999964
vt 0.400000036 0.924999952
vt 0.600000024 0.899999917
vt 0.800000072 0.899999857
vt 1 0.899999857
vt 0.200000018 0.974999964
vt 2.98023206E-08 0.99999994
vt 0.200000018 0.99999994
vt 0.400000036 0.949999928
vt 0.600000024 0.924999893
vt 0.800000072 0.924999893
vt 1 0.924999893
vt 0.400000036 0.974999964
vt 0.400000036 0.99999994
vt 0.600000024 0.949999928
vt 0.800000072 0.949999928
vt 1 0.949999928
vt 0.600000024 0.974999905
vt 0.600000024 0.99999994
vt 0.800000072 0.974999905
vt 1 0.974999905
vt 0.800000072 0.99999994
vt 1 0.99999994
vn -0 0 1
vn -0 0 1
vn -0 0 1
vn -0 0 1
vn -0 0 1
vn -0 0 1
vn -0 0 1
vn -0 0 1
vn -0 0 1
vn -0 0 1
vn -0 0 1
vn -0 0 1
vn -0 0 1
vn -0 0 1
vn -0 0 1
vn -0 0 1
vn -0 0 1
vn -0 0 1
vn -0 0 1
vn -0 0 1
vn -0 0 1
vn -0 0 1
vn -0 0 1
vn -0 0 1
vn -0 0 1
vn -0 0 1
vn -0 0 1
vn -0 0 1
vn -0 0 1
vn -0 0 1
vn -0 0 1
vn -0 0 1
vn -0 0 1
vn -0 0 1
vn -0 0 1
vn -0 0 1
vn -0 0 1
vn -0 0 1
vn -0 0 1
vn -0 0 1
vn -0 0 1
vn -0 0 1
vn -0 0 1
vn -0 0 1
vn -0 0 1
vn -0 0 1
vn -0 0 1
vn -0 0 1
vn -0 0 1
vn -0 0 1
vn -0 0 1
vn -0 0 1
vn -0 0 1
vn -0 0 1
vn -0 0 1
vn -0 0 1
vn -0 0 1
vn -0 0 1
vn -0 0 1
vn -0 0 1
vn -0 0 1
vn -0 0 1
vn -0 0 1
vn -0 0 1
vn -0 0 1
vn -0 0 1
vn -0 0 1
vn -0 0 1
vn -0 0 1
vn -0 0 1
vn -0 0 1
vn -0 0 1
vn -0 0 1
vn -0 0 1
vn -0 0 1
vn -0 0 1
vn -0 0 1
vn -0 0 1
vn -0 0 1
vn -0 0 1
vn -0 0 1
vn -0 0 1
vn -0 0 1
vn -0 0 1
vn -0 0 1
vn -0 0 1
vn -0 0 1
vn -0 0 1
vn -0 0 1
vn -0 0 1
vn -0 0 1
vn -0 0 1
vn -0 0 1
vn -0 0 1
vn -0 0 1
vn -0 0 1
vn -0 0 1
vn -0 0 1
vn -0 0 1
vn -0 0 1
vn -0 0 1
vn -0 0 1
vn -0 0 1
vn -0 0 1
vn -0 0 1
vn -0 0 1
vn -0 0 1
vn -0 0 1
vn -0 0 1
vn -0 0 1
vn -0 0 1
vn -0 0 1
vn -0 0 1
vn -0 0 1
vn -0 0 1
vn -0 0 1
vn -0 0 1
vn -0 0 1
vn -0 0 1
vn -0 0 1
vn -0 0 1
vn -0 0 1
vn -0 0 1
vn -0 0 1
vn -0 0 1
vn -0 0 1
vn -0 0 1
vn -0 0 1
vn -0 0 1
vn -0 0 1
vn -0 0 1
vn -0 0 1
vn -0 0 1
vn -0 0 1
vn -0 0 1
vn -0 0 1
vn -0 0 1
vn -0 0 1
vn -0 0 1
vn -0 0 1
vn -0 0 1
vn -0 0 1
vn -0 0 1
vn -0 0 1
vn -0 0 1
vn -0 0 1
vn -0 0 1
vn -0 0 1
vn -0 0 1
vn -0 0 1
vn -0 0 1
vn -0 0 1
vn -0 0 1
vn -0 0 1
vn -0 0 1
vn -0 0 1
vn -0 0 1
vn -0 0 1
vn -0 0 1
vn -0 0 1
vn -0 0 1
vn -0 0 1
vn -0 0 1
vn -0 0 1
vn -0 0 1
vn -0 0 1
vn -0 0 1
vn -0 0 1
vn -0 0 1
vn -0 0 1
vn -0 0 1
vn -0 0 1
vn -0 0 1
vn -0 0 1
vn -0 0 1
vn -0 0 1
vn -0 0 1
vn -0 0 1
vn -0 0 1
vn -0 0 1
vn -0 0 1
vn -0 0 1
vn -0 0 1
vn -0 0 1
vn -0 0 1
vn -0 0 1
vn -0 0 1
vn -0 0 1
vn -0 0 1
vn -0 0 1
vn -0 0 1
vn -0 0 1
vn -0 0 1
vn -0 0 1
vn -0 0 1
vn -0 0 1
vn -0 0 1
vn -0 0 1
vn -0 0 1
vn -0 0 1
vn -0 0 1
vn -0 0 1
vn -0 0 1
vn -0 0 1
vn -0 0 1
vn -0 0 1
vn -0 0 1
vn -0 0 1
vn -0 0 1
vn -0 0 1
vn -0 0 1
vn -0 0 1
vn -0 0 1
vn -0 0 1
vn -0 0 1
vn -0 0 1
vn -0 0 1
vn -0 0 1
vn -0 0 1
vn -0 0 1
vn -0 0 1
vn -0 0 1
vn -0 0 1
vn -0 0 1
vn -0 0 1
vn -0 0 1
vn -0 0 1
vn -0 0 1
vn -0 0 1
vn -0 0 1
vn -0 0 1
vn -0 0 1
vn -0 0 1
vn -0 0 1
vn -0 0 1
vn -0 0 1
vn -0 0 1
vn -0 0 1
vn -0 0 1
vn -0 0 1
vn -0 0 1
vn -0 0 1
vn -0 0 1
vn -0 0 1
vn -0 0 1
vn -0 0 1
g bend_heng_alpha_0
f 3/3/3 2/2/2 1/1/1
f 2/2/2 4/4/4 1/1/1
f 1/1/1 4/4/4 5/5/5
f 2/2/2 6/6/6 4/4/4
f 4/4/4 7/7/7 5/5/5
f 5/5/5 7/7/7 8/8/8
f 6/6/6 9/9/9 4/4/4
f 4/4/4 9/9/9 7/7/7
f 6/6/6 10/10/10 9/9/9
f 7/7/7 11/11/11 8/8/8
f 8/8/8 11/11/11 12/12/12
f 9/9/9 13/13/13 7/7/7
f 7/7/7 13/13/13 11/11/11
f 10/10/10 14/14/14 9/9/9
f 9/9/9 14/14/14 13/13/13
f 10/10/10 15/15/15 14/14/14
f 11/11/11 16/16/16 12/12/12
f 12/12/12 16/16/16 17/17/17
f 13/13/13 18/18/18 11/11/11
f 11/11/11 18/18/18 16/16/16
f 14/14/14 19/19/19 13/13/13
f 13/13/13 19/19/19 18/18/18
f 15/15/15 20/20/20 14/14/14
f 14/14/14 20/20/20 19/19/19
f 15/15/15 21/21/21 20/20/20
f 21/21/21 22/22/22 20/20/20
f 20/20/20 22/22/22 23/23/23
f 20/20/20 23/23/23 19/19/19
f 22/22/22 24/24/24 23/23/23
f 16/16/16 25/25/25 17/17/17
f 17/17/17 25/25/25 26/26/26
f 18/18/18 27/27/27 16/16/16
f 16/16/16 27/27/27 25/25/25
f 19/19/19 28/28/28 18/18/18
f 19/19/19 23/23/23 28/28/28
f 18/18/18 28/28/28 27/27/27
f 23/23/23 24/24/24 29/29/29
f 23/23/23 29/29/29 28/28/28
f 24/24/24 30/30/30 29/29/29
f 25/25/25 31/31/31 26/26/26
f 26/26/26 31/31/31 32/32/32
f 27/27/27 33/33/33 25/25/25
f 25/25/25 33/33/33 31/31/31
f 28/28/28 34/34/34 27/27/27
f 28/28/28 29/29/29 34/34/34
f 27/27/27 34/34/34 33/33/33
f 29/29/29 30/30/30 35/35/35
f 29/29/29 35/35/35 34/34/34
f 30/30/30 36/36/36 35/35/35
f 31/31/31 37/37/37 32/32/32
f 32/32/32 37/37/37 38/38/38
f 33/33/33 39/39/39 31/31/31
f 31/31/31 39/39/39 37/37/37
f 34/34/34 40/40/40 33/33/33
f 34/34/34 35/35/35 40/40/40
f 33/33/33 40/40/40 39/39/39
f 35/35/35 36/36/36 41/41/41
f 35/35/35 41/41/41 40/40/40
f 36/36/36 42/42/42 41/41/41
f 37/37/37 43/43/43 38/38/38
f 38/38/38 43/43/43 44/44/44
f 39/39/39 45/45/45 37/37/37
f 37/37/37 45/45/45 43/43/43
f 40/40/40 46/46/46 39/39/39
f 40/40/40 41/41/41 46/46/46
f 39/39/39 46/46/46 45/45/45
f 41/41/41 42/42/42 47/47/47
f 41/41/41 47/47/47 46/46/46
f 42/42/42 48/48/48 47/47/47
f 43/43/43 49/49/49 44/44/44
f 44/44/44 49/49/49 50/50/50
f 45/45/45 51/51/51 43/43/43
f 43/43/43 51/51/51 49/49/49
f 46/46/46 52/52/52 45/45/45
f 46/46/46 47/47/47 52/52/52
f 45/45/45 52/52/52 51/51/51
f 47/47/47 48/48/48 53/53/53
f 47/47/47 53/53/53 52/52/52
f 48/48/48 54/54/54 53/53/53
f 49/49/49 55/55/55 50/50/50
f 50/50/50 55/55/55 56/56/56
f 51/51/51 57/57/57 49/49/49
f 49/49/49 57/57/57 55/55/55
f 52/52/52 58/58/58 51/51/51
f 52/52/52 53/53/53 58/58/58
f 51/51/51 58/58/58 57/57/57
f 53/53/53 54/54/54 59/59/59
f 53/53/53 59/59/59 58/58/58
f 54/54/54 60/60/60 59/59/59
f 55/55/55 61/61/61 56/56/56
f 56/56/56 61/61/61 62/62/62
f 57/57/57 63/63/63 55/55/55
f 55/55/55 63/63/63 61/61/61
f 58/58/58 64/64/64 57/57/57
f 58/58/58 59/59/59 64/64/64
f 57/57/57 64/64/64 63/63/63
f 59/59/59 60/60/60 65/65/65
f 59/59/59 65/65/65 64/64/64
f 60/60/60 66/66/66 65/65/65
f 61/61/61 67/67/67 62/62/62
f 62/62/62 67/67/67 68/68/68
f 63/63/63 69/69/69 61/61/61
f 61/61/61 69/69/69 67/67/67
f 64/64/64 70/70/70 63/63/63
f 64/64/64 65/65/65 70/70/70
f 63/63/63 70/70/70 69/69/69
f 65/65/65 66/66/66 71/71/71
f 65/65/65 71/71/71 70/70/70
f 66/66/66 72/72/72 71/71/71
f 67/67/67 73/73/73 68/68/68
f 68/68/68 73/73/73 74/74/74
f 69/69/69 75/75/75 67/67/67
f 67/67/67 75/75/75 73/73/73
f 70/70/70 76/76/76 69/69/69
f 70/70/70 71/71/71 76/76/76
f 69/69/69 76/76/76 75/75/75
f 71/71/71 72/72/72 77/77/77
f 71/71/71 77/77/77 76/76/76
f 72/72/72 78/78/78 77/77/77
f 73/73/73 79/79/79 74/74/74
f 74/74/74 79/79/79 80/80/80
f 75/75/75 81/81/81 73/73/73
f 73/73/73 81/81/81 79/79/79
f 76/76/76 82/82/82 75/75/75
f 76/76/76 77/77/77 82/82/82
f 75/75/75 82/82/82 81/81/81
f 77/77/77 78/78/78 83/83/83
f 77/77/77 83/83/83 82/82/82
f 78/78/78 84/84/84 83/83/83
f 79/79/79 85/85/85 80/80/80
f 80/80/80 85/85/85 86/86/86
f 81/81/81 87/87/87 79/79/79
f 79/79/79 87/87/87 85/85/85
f 82/82/82 88/88/88 81/81/81
f 82/82/82 83/83/83 88/88/88
f 81/81/81 88/88/88 87/87/87
f 83/83/83 84/84/84 89/89/89
f 83/83/83 89/89/89 88/88/88
f 84/84/84 90/90/90 89/89/89
f 85/85/85 91/91/91 86/86/86
f 86/86/86 91/91/91 92/92/92
f 87/87/87 93/93/93 85/85/85
f 85/85/85 93/93/93 91/91/91
f 88/88/88 94/94/94 87/87/87
f 88/88/88 89/89/89 94/94/94
f 87/87/87 94/94/94 93/93/93
f 89/89/89 90/90/90 95/95/95
f 89/89/89 95/95/95 94/94/94
f 90/90/90 96/96/96 95/95/95
f 91/91/91 97/97/97 92/92/92
f 92/92/92 97/97/97 98/98/98
f 93/93/93 99/99/99 91/91/91
f 91/91/91 99/99/99 97/97/97
f 94/94/94 100/100/100 93/93/93
f 94/94/94 95/95/95 100/100/100
f 93/93/93 100/100/100 99/99/99
f 95/95/95 96/96/96 101/101/101
f 95/95/95 101/101/101 100/100/100
f 96/96/96 102/102/102 101/101/101
f 97/97/97 103/103/103 98/98/98
f 98/98/98 103/103/103 104/104/104
f 99/99/99 105/105/105 97/97/97
f 97/97/97 105/105/105 103/103/103
f 100/100/100 106/106/106 99/99/99
f 100/100/100 101/101/101 106/106/106
f 99/99/99 106/106/106 105/105/105
f 101/101/101 102/102/102 107/107/107
f 101/101/101 107/107/107 106/106/106
f 102/102/102 108/108/108 107/107/107
f 103/103/103 109/109/109 104/104/104
f 104/104/104 109/109/109 110/110/110
f 105/105/105 111/111/111 103/103/103
f 103/103/103 111/111/111 109/109/109
f 106/106/106 112/112/112 105/105/105
f 106/106/106 107/107/107 112/112/112
f 105/105/105 112/112/112 111/111/111
f 107/107/107 108/108/108 113/113/113
f 107/107/107 113/113/113 112/112/112
f 108/108/108 114/114/114 113/113/113
f 109/109/109 115/115/115 110/110/110
f 110/110/110 115/115/115 116/116/116
f 111/111/111 117/117/117 109/109/109
f 109/109/109 117/117/117 115/115/115
f 112/112/112 118/118/118 111/111/111
f 112/112/112 113/113/113 118/118/118
f 111/111/111 118/118/118 117/117/117
f 113/113/113 114/114/114 119/119/119
f 113/113/113 119/119/119 118/118/118
f 114/114/114 120/120/120 119/119/119
f 115/115/115 121/121/121 116/116/116
f 116/116/116 121/121/121 122/122/122
f 117/117/117 123/123/123 115/115/115
f 115/115/115 123/123/123 121/121/121
f 118/118/118 124/124/124 117/117/117
f 118/118/118 119/119/119 124/124/124
f 117/117/117 124/124/124 123/123/123
f 119/119/119 120/120/120 125/125/125
f 119/119/119 125/125/125 124/124/124
f 120/120/120 126/126/126 125/125/125
f 121/121/121 127/127/127 122/122/122
f 122/122/122 127/127/127 128/128/128
f 123/123/123 129/129/129 121/121/121
f 121/121/121 129/129/129 127/127/127
f 124/124/124 130/130/130 123/123/123
f 124/124/124 125/125/125 130/130/130
f 123/123/123 130/130/130 129/129/129
f 125/125/125 126/126/126 131/131/131
f 125/125/125 131/131/131 130/130/130
f 126/126/126 132/132/132 131/131/131
f 127/127/127 133/133/133 128/128/128
f 128/128/128 133/133/133 134/134/134
f 129/129/129 135/135/135 127/127/127
f 127/127/127 135/135/135 133/133/133
f 130/130/130 136/136/136 129/129/129
f 130/130/130 131/131/131 136/136/136
f 129/129/129 136/136/136 135/135/135
f 131/131/131 132/132/132 137/137/137
f 131/131/131 137/137/137 136/136/136
f 132/132/132 138/138/138 137/137/137
f 133/133/133 139/139/139 134/134/134
f 134/134/134 139/139/139 140/140/140
f 135/135/135 141/141/141 133/133/133
f 133/133/133 141/141/141 139/139/139
f 136/136/136 142/142/142 135/135/135
f 136/136/136 137/137/137 142/142/142
f 135/135/135 142/142/142 141/141/141
f 137/137/137 138/138/138 143/143/143
f 137/137/137 143/143/143 142/142/142
f 138/138/138 144/144/144 143/143/143
f 139/139/139 145/145/145 140/140/140
f 140/140/140 145/145/145 146/146/146
f 141/141/141 147/147/147 139/139/139
f 139/139/139 147/147/147 145/145/145
f 142/142/142 148/148/148 141/141/141
f 142/142/142 143/143/143 148/148/148
f 141/141/141 148/148/148 147/147/147
f 143/143/143 144/144/144 149/149/149
f 143/143/143 149/149/149 148/148/148
f 144/144/144 150/150/150 149/149/149
f 145/145/145 151/151/151 146/146/146
f 146/146/146 151/151/151 152/152/152
f 147/147/147 153/153/153 145/145/145
f 145/145/145 153/153/153 151/151/151
f 148/148/148 154/154/154 147/147/147
f 148/148/148 149/149/149 154/154/154
f 147/147/147 154/154/154 153/153/153
f 149/149/149 150/150/150 155/155/155
f 149/149/149 155/155/155 154/154/154
f 150/150/150 156/156/156 155/155/155
f 151/151/151 157/157/157 152/152/152
f 152/152/152 157/157/157 158/158/158
f 153/153/153 159/159/159 151/151/151
f 151/151/151 159/159/159 157/157/157
f 154/154/154 160/160/160 153/153/153
f 154/154/154 155/155/155 160/160/160
f 153/153/153 160/160/160 159/159/159
f 155/155/155 156/156/156 161/161/161
f 155/155/155 161/161/161 160/160/160
f 156/156/156 162/162/162 161/161/161
f 157/157/157 163/163/163 158/158/158
f 158/158/158 163/163/163 164/164/164
f 159/159/159 165/165/165 157/157/157
f 157/157/157 165/165/165 163/163/163
f 160/160/160 166/166/166 159/159/159
f 160/160/160 161/161/161 166/166/166
f 159/159/159 166/166/166 165/165/165
f 161/161/161 162/162/162 167/167/167
f 161/161/161 167/167/167 166/166/166
f 162/162/162 168/168/168 167/167/167
f 163/163/163 169/169/169 164/164/164
f 164/164/164 169/169/169 170/170/170
f 165/165/165 171/171/171 163/163/163
f 163/163/163 171/171/171 169/169/169
f 166/166/166 172/172/172 165/165/165
f 166/166/166 167/167/167 172/172/172
f 165/165/165 172/172/172 171/171/171
f 167/167/167 168/168/168 173/173/173
f 167/167/167 173/173/173 172/172/172
f 168/168/168 174/174/174 173/173/173
f 169/169/169 175/175/175 170/170/170
f 170/170/170 175/175/175 176/176/176
f 171/171/171 177/177/177 169/169/169
f 169/169/169 177/177/177 175/175/175
f 172/172/172 178/178/178 171/171/171
f 172/172/172 173/173/173 178/178/178
f 171/171/171 178/178/178 177/177/177
f 173/173/173 174/174/174 179/179/179
f 173/173/173 179/179/179 178/178/178
f 174/174/174 180/180/180 179/179/179
f 175/175/175 181/181/181 176/176/176
f 176/176/176 181/181/181 182/182/182
f 177/177/177 183/183/183 175/175/175
f 175/175/175 183/183/183 181/181/181
f 178/178/178 184/184/184 177/177/177
f 178/178/178 179/179/179 184/184/184
f 177/177/177 184/184/184 183/183/183
f 179/179/179 180/180/180 185/185/185
f 179/179/179 185/185/185 184/184/184
f 180/180/180 186/186/186 185/185/185
f 181/181/181 187/187/187 182/182/182
f 182/182/182 187/187/187 188/188/188
f 183/183/183 189/189/189 181/181/181
f 181/181/181 189/189/189 187/187/187
f 184/184/184 190/190/190 183/183/183
f 184/184/184 185/185/185 190/190/190
f 183/183/183 190/190/190 189/189/189
f 185/185/185 186/186/186 191/191/191
f 185/185/185 191/191/191 190/190/190
f 186/186/186 192/192/192 191/191/191
f 187/187/187 193/193/193 188/188/188
f 188/188/188 193/193/193 194/194/194
f 189/189/189 195/195/195 187/187/187
f 187/187/187 195/195/195 193/193/193
f 190/190/190 196/196/196 189/189/189
f 190/190/190 191/191/191 196/196/196
f 189/189/189 196/196/196 195/195/195
f 191/191/191 192/192/192 197/197/197
f 191/191/191 197/197/197 196/196/196
f 192/192/192 198/198/198 197/197/197
f 193/193/193 199/199/199 194/194/194
f 194/194/194 199/199/199 200/200/200
f 195/195/195 201/201/201 193/193/193
f 193/193/193 201/201/201 199/199/199
f 196/196/196 202/202/202 195/195/195
f 196/196/196 197/197/197 202/202/202
f 195/195/195 202/202/202 201/201/201
f 197/197/197 198/198/198 203/203/203
f 197/197/197 203/203/203 202/202/202
f 198/198/198 204/204/204 203/203/203
f 199/199/199 205/205/205 200/200/200
f 200/200/200 205/205/205 206/206/206
f 201/201/201 207/207/207 199/199/199
f 199/199/199 207/207/207 205/205/205
f 202/202/202 208/208/208 201/201/201
f 202/202/202 203/203/203 208/208/208
f 201/201/201 208/208/208 207/207/207
f 203/203/203 204/204/204 209/209/209
f 203/203/203 209/209/209 208/208/208
f 204/204/204 210/210/210 209/209/209
f 205/205/205 211/211/211 206/206/206
f 206/206/206 211/211/211 212/212/212
f 207/207/207 213/213/213 205/205/205
f 205/205/205 213/213/213 211/211/211
f 208/208/208 214/214/214 207/207/207
f 208/208/208 209/209/209 214/214/214
f 207/207/207 214/214/214 213/213/213
f 209/209/209 210/210/210 215/215/215
f 209/209/209 215/215/215 214/214/214
f 210/210/210 216/216/216 215/215/215
f 211/211/211 217/217/217 212/212/212
f 212/212/212 217/217/217 218/218/218
f 213/213/213 219/219/219 211/211/211
f 211/211/211 219/219/219 217/217/217
f 214/214/214 220/220/220 213/213/213
f 214/214/214 215/215/215 220/220/220
f 213/213/213 220/220/220 219/219/219
f 215/215/215 216/216/216 221/221/221
f 215/215/215 221/221/221 220/220/220
f 216/216/216 222/222/222 221/221/221
f 217/217/217 223/223/223 218/218/218
f 218/218/218 223/223/223 224/224/224
f 219/219/219 225/225/225 217/217/217
f 217/217/217 225/225/225 223/223/223
f 220/220/220 226/226/226 219/219/219
f 220/220/220 221/221/221 226/226/226
f 219/219/219 226/226/226 225/225/225
f 221/221/221 222/222/222 227/227/227
f 221/221/221 227/227/227 226/226/226
f 222/222/222 228/228/228 227/227/227
f 223/223/223 229/229/229 224/224/224
f 224/224/224 229/229/229 230/230/230
f 229/229/229 231/231/231 230/230/230
f 225/225/225 232/232/232 223/223/223
f 223/223/223 232/232/232 229/229/229
f 226/226/226 233/233/233 225/225/225
f 226/226/226 227/227/227 233/233/233
f 225/225/225 233/233/233 232/232/232
f 227/227/227 228/228/228 234/234/234
f 227/227/227 234/234/234 233/233/233
f 228/228/228 235/235/235 234/234/234
f 229/229/229 236/236/236 231/231/231
f 232/232/232 236/236/236 229/229/229
f 236/236/236 237/237/237 231/231/231
f 233/233/233 238/238/238 232/232/232
f 233/233/233 234/234/234 238/238/238
f 232/232/232 238/238/238 236/236/236
f 234/234/234 235/235/235 239/239/239
f 234/234/234 239/239/239 238/238/238
f 235/235/235 240/240/240 239/239/239
f 236/236/236 241/241/241 237/237/237
f 238/238/238 241/241/241 236/236/236
f 238/238/238 239/239/239 241/241/241
f 241/241/241 242/242/242 237/237/237
f 239/239/239 240/240/240 243/243/243
f 239/239/239 243/243/243 241/241/241
f 241/241/241 243/243/243 242/242/242
f 240/240/240 244/244/244 243/243/243
f 243/243/243 245/245/245 242/242/242
f 243/243/243 244/244/244 245/245/245
f 244/244/244 246/246/246 245/245/245
