g bing
v -0.000180015559 -0.000180015559 0.160335988
v 0.0252610017 0 -0.045787964
v -0 -0.025308989 -0.045787964
v -0.0252610017 0 -0.045787964
v -0 -0.025308989 -0.045787964
v 0.000406990031 0.000406990031 -0.160336077
v -0.000180015559 -0.000180015559 0.160335988
v -0 -0.025308989 -0.045787964
v -0.0252610017 0 -0.045787964
v 0.000406990031 0.000406990031 -0.160336077
v -0 -0.025308989 -0.045787964
v 0.0252610017 0 -0.045787964
v -0.000180015559 -0.000180015559 0.160335988
v -0 0.025308989 -0.045787964
v 0.0252610017 0 -0.045787964
v -0.0252610017 0 -0.045787964
v 0.000406990031 0.000406990031 -0.160336077
v -0 0.025308989 -0.045787964
v -0.000180015559 -0.000180015559 0.160335988
v -0.0252610017 0 -0.045787964
v -0 0.025308989 -0.045787964
v 0.000406990031 0.000406990031 -0.160336077
v 0.0252610017 0 -0.045787964
v -0 0.025308989 -0.045787964
vt 0.891644597 0.758633971
vt 0.90038085 0.706026316
vt 0.89173162 0.706026316
vt 0.883082747 0.706026316
vt 0.89173162 0.706026316
vt 0.891834617 0.67667222
vt 0.891644597 0.758633971
vt 0.89173162 0.706026316
vt 0.883082747 0.706026316
vt 0.891834617 0.67667222
vt 0.89173162 0.706026316
vt 0.90038085 0.706026316
vt 0.866582394 0.795514345
vt 0.866495371 0.745006919
vt 0.857867002 0.745006919
vt 0.875124216 0.745006919
vt 0.866393089 0.716895938
vt 0.866495371 0.745006919
vt 0.866582394 0.795514345
vt 0.875124216 0.745006919
vt 0.866495371 0.745006919
vt 0.866393089 0.716895938
vt 0.857867002 0.745006919
vt 0.866495371 0.745006919
vn 0.705129743 -0.703792691 0.0864165574
vn 0.705129743 -0.703792691 0.0864165574
vn 0.705129743 -0.703792691 0.0864165574
vn -0.698766887 -0.697441995 -0.159058034
vn -0.698766828 -0.697441995 -0.159058005
vn -0.698766828 -0.697441995 -0.15905802
vn -0.705204308 -0.703867197 0.0851939395
vn -0.705204308 -0.703867197 0.0851939246
vn -0.705204308 -0.703867197 0.0851939395
vn 0.699310839 -0.697984874 -0.15421252
vn 0.699310839 -0.697984874 -0.15421252
vn 0.699310839 -0.697984874 -0.15421252
vn 0.705054343 0.70371753 0.0876364931
vn 0.705054343 0.70371747 0.0876364708
vn 0.705054343 0.70371753 0.0876364931
vn -0.699309826 0.697983861 -0.154221714
vn -0.699309826 0.697983861 -0.154221714
vn -0.699309826 0.697983861 -0.154221714
vn -0.705129862 0.70379287 0.0864142478
vn -0.705129862 0.70379287 0.0864142552
vn -0.705129862 0.70379287 0.0864142478
vn 0.699837685 0.698510766 -0.149365082
vn 0.699837685 0.698510766 -0.149365082
vn 0.699837685 0.698510766 -0.149365082
g bing_0
f 3/3/3 2/2/2 1/1/1
f 6/6/6 5/5/5 4/4/4
f 9/9/9 8/8/8 7/7/7
f 12/12/12 11/11/11 10/10/10
f 15/15/15 14/14/14 13/13/13
f 18/18/18 17/17/17 16/16/16
f 21/21/21 20/20/20 19/19/19
f 24/24/24 23/23/23 22/22/22
