g Cylinder001
v 0.0428923778 0.243254885 0
v -0.0345206633 0.195776135 0.0504401922
v -0.0428924374 0.24325493 0
v 0.0345205665 0.195776179 0.050440181
v 0.12350376 0.213914827 0
v -0.0279604327 0.158571467 0.101451941
v 0.099398151 0.172162741 0.0504402071
v 0.189218715 0.158773422 0
v 0.0279604904 0.158571541 0.101451956
v -0.0231241025 0.131143332 0.152574673
v 0.152286828 0.127783924 0.0504402071
v 0.232111081 0.084481582 0
v 0.0805087611 0.139445409 0.101451918
v 0.0231241789 0.131143227 0.152574629
v -0.019862175 0.112644993 0.203347921
v 0.186807439 0.0679923594 0.0504401959
v 0.247007474 5.72204577E-08 0
v 0.123346746 0.10350021 0.101451941
v 0.0665832534 0.11532554 0.152574703
v 0.0198623464 0.112644807 0.203347772
v -0.0180436131 0.102330357 0.253310859
v 0.198796377 3.81469718E-08 0.0504402071
v 0.232111052 -0.0844816789 0
v 0.151307181 0.0550713539 0.101451948
v 0.10201145 0.0855977982 0.152574703
v 0.0571912006 0.099058114 0.203347772
v 0.0180436317 0.102330588 0.253310889
v -0.0176151656 0.0999005139 0.302003324
v 0.186807439 -0.0679925531 0.0504401959
v 0.189218447 -0.158773497 0
v 0.161017761 9.5367426E-08 0.101451941
v 0.125135422 0.045545537 0.152574643
v 0.0876222178 0.0735237896 0.203347906
v 0.0519545935 0.0899879411 0.253310919
v 0.0176152028 0.0999005139 0.302003443
v -0.0186428633 0.105729103 0.348964751
v 0.152286753 -0.127784014 0.0504401848
v 0.12350376 -0.213914827 0
v 0.151306987 -0.0550714284 0.101451918
v 0.133166417 5.72204577E-08 0.152574643
v 0.107484549 0.0391212068 0.203347862
v 0.0795989558 0.0667914376 0.253310889
v 0.0507207289 0.0878509879 0.302003413
v 0.0186428837 0.105729103 0.348964721
v -0.0213317685 0.120978467 0.393734396
v 0.0213318821 0.120978504 0.393734425
v -0.0260227006 0.147581741 0.435851812
v 0.0536800958 0.0929766446 0.348964691
v 0.0777088925 0.0652054772 0.302003443
v 0.0976427421 0.0355390534 0.253310889
v 0.114382513 5.72204577E-08 0.203347892
v 0.0260227192 0.147581741 0.435851723
v -0.0331588723 0.188052788 0.474856406
v 0.0331587419 0.188052714 0.474856406
v 0.0614225008 0.106386639 0.393734396
v 0.0749292374 0.129781187 0.435851783
v 0.0954769105 0.165370822 0.474856466
v 0.0822426602 0.0690098181 0.348964751
v 0.0953239799 0.0346951485 0.302003503
v 0.0941047296 0.0789632425 0.393734455
v 0.11479824 0.0963271707 0.435851842
v 0.146278992 0.12274269 0.474856436
v 0.100885577 0.0367192626 0.348964691
v 0.103909187 5.72204577E-08 0.253310978
v 0.115436286 0.0420153812 0.393734515
v 0.140820771 0.051254537 0.435851842
v 0.179437831 0.0653100759 0.474856555
v 0.101441763 3.81469718E-08 0.302003503
v 0.107360154 -1.90734859E-08 0.348964721
v 0.122844733 0 0.393734425
v 0.149858326 -1.90734859E-08 0.435851723
v 0.190953821 3.81469718E-08 0.474856436
v 0.140820771 -0.0512547083 0.435851842
v 0.179437861 -0.0653101727 0.474856526
v 0.115436286 -0.0420154929 0.393734396
v 0.100885615 -0.036719434 0.348964751
v 0.0953239426 -0.0346950889 0.302003443
v 0.0976423994 -0.0355391689 0.253310829
v 0.114798158 -0.0963271633 0.435851902
v 0.146279022 -0.122742809 0.474856466
v 0.0941044614 -0.0789631456 0.393734396
v 0.0822425857 -0.069009833 0.348964751
v 0.0777087361 -0.0652055368 0.302003443
v 0.0749292001 -0.129781246 0.435851812
v 0.0954769105 -0.165370941 0.474856526
v 0.061422307 -0.106386729 0.393734515
v 0.0536800362 -0.0929767042 0.34896481
v 0.0260225665 -0.147581741 0.435851783
v 0.0331586823 -0.188052788 0.474856466
v 0.0213317107 -0.120978504 0.393734366
v -0.026022682 -0.147581607 0.435851634
v -0.0331587791 -0.188052744 0.474856466
v 0.0795990005 -0.0667915493 0.253310949
v 0.0507208258 -0.0878510475 0.302003443
v 0.0186428837 -0.105729111 0.348964721
v -0.0213318635 -0.120978422 0.393734396
v -0.0749292001 -0.129781127 0.435851991
v -0.0954769626 -0.165370792 0.474856317
v 0.0519546121 -0.0899879709 0.253310859
v 0.0176150315 -0.0999005362 0.302003413
v -0.018643016 -0.105729133 0.348964483
v -0.0614223666 -0.106386729 0.393734425
v -0.114798203 -0.0963270441 0.435851812
v -0.146279126 -0.122742653 0.474856526
v 0.0180435553 -0.10233058 0.253310889
v -0.0176151656 -0.0999005288 0.302003354
v -0.0536800958 -0.0929766148 0.348964572
v -0.0941044614 -0.0789630264 0.393734396
v -0.140820831 -0.0512545779 0.435851663
v -0.179437906 -0.0653100163 0.474856466
v -0.0180436131 -0.102330491 0.2533108
v -0.0507208444 -0.0878510997 0.302003384
v -0.0822426751 -0.0690097213 0.34896481
v -0.115436211 -0.0420153029 0.393734515
v -0.149858415 3.81469718E-08 0.435851842
v -0.190953791 3.81469718E-08 0.474856466
v -0.0519546494 -0.0899879783 0.253310919
v -0.0777087957 -0.0652053803 0.302003264
v -0.100885496 -0.0367192067 0.348964632
v -0.122844644 3.81469718E-08 0.393734425
v -0.140820801 0.0512544811 0.435851783
v -0.179437906 0.0653100014 0.474856466
v -0.0795989782 -0.066791378 0.253310949
v -0.0953239724 -0.034695033 0.302003443
v -0.10736011 0 0.348964751
v -0.115436256 0.0420154184 0.393734455
v -0.114798203 0.0963270962 0.435851902
v -0.146279052 0.12274269 0.474856436
v -0.0976425335 -0.0355390161 0.253310889
v -0.101441652 3.81469718E-08 0.302003354
v -0.100885525 0.0367192626 0.348964632
v -0.0941045284 0.0789631233 0.393734396
v -0.0749291629 0.129781336 0.435851991
v -0.0954768136 0.165370673 0.474856406
v -0.0260227006 0.147581741 0.435851812
v -0.0331588723 0.188052788 0.474856406
v -0.0213317685 0.120978467 0.393734396
v -0.061422348 0.10638649 0.393734396
v -0.0186428633 0.105729103 0.348964751
v -0.0536800548 0.0929764509 0.348964721
v -0.0176151656 0.0999005139 0.302003324
v -0.0822426602 0.0690097064 0.34896481
v -0.050720863 0.0878509134 0.302003413
v -0.0180436131 0.102330357 0.253310859
v -0.0777087212 0.0652053654 0.302003264
v -0.0519545935 0.0899879783 0.253310889
v -0.019862175 0.112644993 0.203347921
v -0.0953239724 0.0346950702 0.302003443
v -0.0571912564 0.0990581885 0.203347757
v -0.0231241025 0.131143332 0.152574673
v -0.0795989782 0.0667914599 0.253310889
v -0.0976425931 0.035538882 0.253310889
v -0.0665831342 0.11532554 0.152574703
v -0.0279604327 0.158571467 0.101451941
v -0.0876220688 0.0735237449 0.203347817
v -0.103909098 3.81469718E-08 0.253310949
v -0.0805088207 0.139445499 0.101451918
v -0.0345206633 0.195776135 0.0504401922
v -0.102011375 0.085597612 0.152574643
v -0.107484452 0.0391210914 0.203347787
v -0.114382528 5.72204577E-08 0.203347832
v -0.0993982777 0.172162667 0.0504401922
v -0.0428924374 0.24325493 0
v -0.123503774 0.213914678 0
v -0.123346686 0.10350021 0.101451926
v -0.125135452 0.0455456525 0.152574643
v -0.152286902 0.127783924 0.0504402108
v -0.189218715 0.158773303 0
v -0.107484445 -0.0391210914 0.203347787
v -0.151307136 0.0550712943 0.101451911
v -0.186807558 0.0679923445 0.0504402183
v -0.232111126 0.0844816193 0
v -0.133166298 5.72204577E-08 0.152574703
v -0.0876221135 -0.0735236928 0.203347787
v -0.198796466 -1.90734859E-08 0.0504401997
v -0.247007474 5.72204577E-08 0
v -0.161017686 5.72204577E-08 0.101451963
v -0.125135422 -0.045545537 0.152574673
v -0.0571913123 -0.0990582481 0.203347757
v -0.186807573 -0.0679923967 0.0504402071
v -0.232111126 -0.0844814777 0
v -0.151307195 -0.0550712757 0.101451918
v -0.102011375 -0.0855976641 0.152574599
v -0.019862365 -0.112644762 0.203347862
v -0.152287006 -0.127783909 0.0504401997
v -0.18921876 -0.158773318 0
v -0.123346716 -0.103500098 0.101451918
v -0.0665832534 -0.115325488 0.152574614
v 0.0198622886 -0.112644851 0.203347817
v -0.0993982852 -0.172162741 0.050440181
v -0.123503819 -0.213914707 0
v -0.0805088803 -0.139445409 0.101451889
v -0.0231241602 -0.131143287 0.152574599
v 0.0571913123 -0.0990582258 0.203347862
v -0.0345207602 -0.195776284 0.0504401959
v -0.0428925306 -0.243254885 0
v -0.0279604532 -0.158571482 0.101451941
v 0.0231240653 -0.131143257 0.152574673
v 0.0876222178 -0.0735237896 0.203347862
v 0.0345205292 -0.195776328 0.0504401922
v 0.0428922661 -0.24325493 0
v 0.0279604327 -0.158571482 0.101451926
v 0.0665833652 -0.115325451 0.152574673
v 0.107484475 -0.0391211696 0.203347832
v 0.0993980765 -0.172162831 0.0504402108
v 0.0805087239 -0.139445439 0.101451948
v 0.102011293 -0.0855978057 0.152574614
v 0.125135422 -0.0455456898 0.152574673
v 0.123346552 -0.103500269 0.101451926
vt 0.972222209 0
vt 1.02777779 0.099999994
vt 1.02777779 0
vt 0.972222209 0.099999994
vt 0.916666687 0
vt 1.02777779 0.199999988
vt 0.916666687 0.099999994
vt 0.861111045 0
vt 0.972222209 0.199999988
vt 1.02777779 0.300000012
vt 0.861111045 0.099999994
vt 0.805555522 0
vt 0.916666687 0.199999988
vt 0.972222209 0.300000012
vt 1.02777779 0.400000006
vt 0.805555522 0.099999994
vt 0.75 0
vt 0.861111045 0.199999988
vt 0.916666687 0.300000012
vt 0.972222209 0.400000006
vt 1.02777779 0.5
vt 0.75 0.099999994
vt 0.694444299 0
vt 0.805555522 0.199999988
vt 0.861111045 0.300000012
vt 0.916666687 0.400000006
vt 0.972222209 0.5
vt 1.02777779 0.600000024
vt 0.694444358 0.099999994
vt 0.638888836 0
vt 0.75 0.199999988
vt 0.805555522 0.300000012
vt 0.861111045 0.400000006
vt 0.916666687 0.5
vt 0.972222209 0.600000024
vt 1.02777779 0.699999988
vt 0.638888836 0.099999994
vt 0.583333254 0
vt 0.694444299 0.199999988
vt 0.75 0.300000012
vt 0.805555522 0.400000006
vt 0.861111045 0.5
vt 0.916666687 0.600000024
vt 0.972222209 0.699999988
vt 1.02777779 0.800000012
vt 0.972222209 0.800000012
vt 1.02777779 0.899999976
vt 0.916666687 0.699999988
vt 0.861111045 0.600000024
vt 0.805555522 0.5
vt 0.75 0.400000006
vt 0.972222209 0.899999976
vt 1.02777779 1
vt 0.972222209 1
vt 0.916666687 0.800000012
vt 0.916666687 0.899999976
vt 0.916666687 1
vt 0.861111045 0.699999988
vt 0.805555522 0.600000024
vt 0.861111045 0.800000012
vt 0.861111045 0.899999976
vt 0.861111045 1
vt 0.805555522 0.699999988
vt 0.75 0.5
vt 0.805555522 0.800000012
vt 0.805555522 0.899999976
vt 0.805555522 1
vt 0.75 0.600000024
vt 0.75 0.699999988
vt 0.75 0.800000012
vt 0.75 0.899999976
vt 0.75 1
vt 0.694444299 0.899999976
vt 0.694444299 1
vt 0.694444299 0.800000012
vt 0.694444299 0.699999988
vt 0.694444299 0.600000024
vt 0.694444299 0.5
vt 0.638888836 0.899999976
vt 0.638888836 1
vt 0.638888836 0.800000012
vt 0.638888836 0.699999988
vt 0.638888836 0.600000024
vt 0.583333254 0.899999976
vt 0.583333254 1
vt 0.583333254 0.800000012
vt 0.583333254 0.699999988
vt 0.527777672 0.899999976
vt 0.527777672 1
vt 0.527777672 0.800000012
vt 0.472222149 0.899999976
vt 0.472222149 1
vt 0.638888836 0.5
vt 0.583333254 0.600000024
vt 0.527777672 0.699999988
vt 0.472222149 0.800000012
vt 0.416666657 0.899999976
vt 0.416666657 1
vt 0.583333254 0.5
vt 0.527777672 0.600000024
vt 0.472222149 0.699999988
vt 0.416666657 0.800000012
vt 0.361111075 0.899999976
vt 0.361111075 1
vt 0.527777672 0.5
vt 0.472222149 0.600000024
vt 0.416666657 0.699999988
vt 0.361111075 0.800000012
vt 0.305555522 0.899999976
vt 0.305555522 1
vt 0.472222149 0.5
vt 0.416666657 0.600000024
vt 0.361111075 0.699999988
vt 0.305555522 0.800000012
vt 0.249999985 0.899999976
vt 0.249999985 1
vt 0.416666657 0.5
vt 0.361111075 0.600000024
vt 0.305555522 0.699999988
vt 0.249999985 0.800000012
vt 0.194444433 0.899999976
vt 0.194444433 1
vt 0.361111075 0.5
vt 0.305555522 0.600000024
vt 0.249999985 0.699999988
vt 0.194444433 0.800000012
vt 0.138888896 0.899999976
vt 0.138888896 1
vt 0.305555522 0.5
vt 0.249999985 0.600000024
vt 0.194444433 0.699999988
vt 0.138888896 0.800000012
vt 0.0833333507 0.899999976
vt 0.0833333507 1
vt 0.0277778096 0.899999976
vt 0.0277778096 1
vt 0.0277778096 0.800000012
vt 0.0833333507 0.800000012
vt 0.0277778096 0.699999988
vt 0.0833333507 0.699999988
vt 0.0277778096 0.600000024
vt 0.138888896 0.699999988
vt 0.0833333507 0.600000024
vt 0.0277778096 0.5
vt 0.138888896 0.600000024
vt 0.0833333507 0.5
vt 0.0277778096 0.400000006
vt 0.194444433 0.600000024
vt 0.0833333507 0.400000006
vt 0.0277778096 0.300000012
vt 0.138888896 0.5
vt 0.194444433 0.5
vt 0.0833333507 0.300000012
vt 0.0277778096 0.199999988
vt 0.138888896 0.400000006
vt 0.249999985 0.5
vt 0.0833333507 0.199999988
vt 0.0277778096 0.099999994
vt 0.138888896 0.300000012
vt 0.194444433 0.400000006
vt 0.249999985 0.400000006
vt 0.0833333507 0.099999994
vt 0.0277778096 0
vt 0.0833333507 0
vt 0.138888896 0.199999988
vt 0.194444433 0.300000012
vt 0.138888925 0.099999994
vt 0.138888896 0
vt 0.305555552 0.400000006
vt 0.194444433 0.199999988
vt 0.194444448 0.099999994
vt 0.194444433 0
vt 0.249999985 0.300000012
vt 0.361111104 0.400000006
vt 0.249999985 0.099999994
vt 0.249999985 0
vt 0.249999985 0.199999988
vt 0.305555522 0.300000012
vt 0.416666597 0.400000006
vt 0.305555522 0.099999994
vt 0.305555522 0
vt 0.305555522 0.199999988
vt 0.361111075 0.300000012
vt 0.472222149 0.400000006
vt 0.361111075 0.099999994
vt 0.361111075 0
vt 0.361111075 0.199999988
vt 0.416666657 0.300000012
vt 0.527777672 0.400000006
vt 0.416666597 0.099999994
vt 0.416666657 0
vt 0.416666657 0.199999988
vt 0.472222149 0.300000012
vt 0.583333254 0.400000006
vt 0.472222149 0.099999994
vt 0.472222149 0
vt 0.472222149 0.199999988
vt 0.527777672 0.300000012
vt 0.638888836 0.400000006
vt 0.527777672 0.099999994
vt 0.527777672 0
vt 0.527777672 0.199999988
vt 0.583333254 0.300000012
vt 0.694444299 0.400000006
vt 0.583333254 0.099999994
vt 0.583333254 0.199999988
vt 0.638888836 0.300000012
vt 0.694444299 0.300000012
vt 0.638888836 0.199999988
vn 0.124603428 0.710602164 0.692472816
vn -0.132135883 0.748769999 0.649525642
vn -0.125354752 0.710534394 0.692406714
vn 0.132946789 0.749129593 0.648945332
vn 0.360580385 0.62500602 0.692350507
vn -0.145421192 0.824240565 0.547247827
vn 0.380091131 0.659279764 0.648753345
vn 0.552732587 0.463409781 0.692631245
vn 0.145413741 0.824198365 0.547313392
vn -0.156590521 0.887529433 0.43332535
vn 0.582727075 0.488579661 0.649399042
vn 0.678094506 0.246510416 0.692402065
vn 0.41920045 0.724243641 0.54748702
vn 0.156202495 0.887830138 0.432849199
vn -0.165730461 0.934762478 0.314249098
vn 0.714947641 0.260567099 0.648810208
vn 0.721552253 -0.000190785897 0.692359865
vn 0.641439021 0.537775874 0.547131717
vn 0.450821698 0.780423164 0.433242887
vn 0.165184066 0.934743226 0.31459409
vn -0.170112491 0.965723336 0.196061864
vn 0.760744452 0.00018971182 0.649051547
vn 0.677601993 -0.247086138 0.692678809
vn 0.7861678 0.286338866 0.54767698
vn 0.690413415 0.579434514 0.433110833
vn 0.475163132 0.822009146 0.313880593
vn 0.170924425 0.965519488 0.196359619
vn -0.172732279 0.981273174 0.0852445066
vn 0.714182019 -0.260220587 0.649791718
vn 0.553042471 -0.463888228 0.692063451
vn 0.837081611 -0.000374198309 0.547077954
vn 0.847020507 0.308157265 0.433122993
vn 0.727369308 0.610280573 0.313833237
vn 0.490263999 0.849225402 0.19610557
vn 0.172908783 0.981365561 0.0838102773
vn -0.1734346 0.984651208 -0.0195546392
vn 0.583361506 -0.488442004 0.648932755
vn 0.360205501 -0.625208378 0.692362845
vn 0.786411643 -0.286342174 0.547325253
vn 0.90117538 0 0.433454722
vn 0.892095804 0.325043619 0.31386584
vn 0.751297832 0.630093396 0.196300283
vn 0.498357922 0.862838328 0.0845542997
vn 0.173873246 0.984579802 -0.0192524008
vn -0.17240411 0.978141069 -0.11626263
vn 0.172271892 0.978197277 -0.115985028
vn -0.169379622 0.962153137 -0.213476017
vn 0.49964419 0.866029918 -0.018650176
vn 0.763669252 0.640077949 0.0843177959
vn 0.921410739 0.33527419 0.196452364
vn 0.949565291 0.000354315416 0.313569129
vn 0.169484109 0.96192199 -0.214432463
vn -0.167535484 0.952683866 -0.253624588
vn 0.167715222 0.952420771 -0.254491895
vn 0.496384114 0.86032331 -0.11596033
vn 0.48777163 0.84638679 -0.213795096
vn 0.483877987 0.837501466 -0.253876776
vn 0.766005814 0.642553687 -0.0189694837
vn 0.936491251 0.340323627 0.0846400782
vn 0.760856271 0.638311744 -0.116857961
vn 0.748357058 0.627982378 -0.213541478
vn 0.740313649 0.62227726 -0.25437507
vn 0.939477324 0.342120081 -0.0183385983
vn 0.980717361 0 0.19543156
vn 0.933463097 0.339040816 -0.117037974
vn 0.917472422 0.334950268 -0.214598969
vn 0.908810318 0.330621213 -0.254466891
vn 0.996467948 0 0.0839738175
vn 0.999831676 0 -0.0183482952
vn 0.993287623 0 -0.115670413
vn 0.976969838 0.000412455585 -0.213377044
vn 0.967170715 0.000132634479 -0.254127681
vn 0.917733908 -0.334246576 -0.214578047
vn 0.908893108 -0.330784023 -0.253959358
vn 0.933226705 -0.339871854 -0.116511241
vn 0.939631283 -0.341711462 -0.0180640426
vn 0.936209738 -0.341182888 0.0842941329
vn 0.921524405 -0.33514601 0.196137562
vn 0.748124003 -0.628041983 -0.214181781
vn 0.740750015 -0.621625125 -0.254699171
vn 0.761083603 -0.638213694 -0.115909696
vn 0.765635431 -0.642995298 -0.0189603101
vn 0.763727903 -0.63991046 0.0850544274
vn 0.488150895 -0.846086979 -0.214115724
vn 0.483782232 -0.837529719 -0.253965795
vn 0.496581793 -0.860173464 -0.116224296
vn 0.500408947 -0.865594506 -0.0183608662
vn 0.16932942 -0.961892724 -0.21468547
vn 0.167434648 -0.952334404 -0.254999548
vn 0.172649592 -0.978134513 -0.11595232
vn -0.169570312 -0.962043524 -0.213817999
vn -0.168327257 -0.9522627 -0.254679561
vn 0.751175165 -0.630274951 0.196187258
vn 0.498141348 -0.862969339 0.0844932348
vn 0.173448458 -0.984654665 -0.0192553345
vn -0.172434703 -0.978076816 -0.116755612
vn -0.488149524 -0.845645249 -0.21585682
vn -0.483154863 -0.837724984 -0.254515529
vn 0.490685761 -0.848989844 0.19607076
vn 0.173407033 -0.981304288 0.0834982023
vn -0.173331186 -0.984692574 -0.0183562525
vn -0.496688396 -0.86007911 -0.11646682
vn -0.748309493 -0.627829492 -0.214156181
vn -0.740789533 -0.621780276 -0.254204869
vn 0.170179561 -0.965764701 0.195799813
vn -0.172994673 -0.98129189 0.0844932273
vn -0.500195503 -0.865711451 -0.0186595209
vn -0.76062429 -0.638620675 -0.116680644
vn -0.918368459 -0.333927125 -0.212349042
vn -0.908730567 -0.330857545 -0.254444569
vn -0.169693008 -0.965638041 0.196843892
vn -0.498496264 -0.862677276 0.0853787065
vn -0.765903652 -0.642666876 -0.0192604456
vn -0.933512449 -0.339471996 -0.115383536
vn -0.976682544 0 -0.214688733
vn -0.967088282 0 -0.254441082
vn -0.4903346 -0.849178135 0.196133837
vn -0.763194144 -0.640512168 0.0853160992
vn -0.939451337 -0.342206627 -0.0180504601
vn -0.993254006 -0.000284213194 -0.115958989
vn -0.917961121 0.334053993 -0.213904545
vn -0.908582985 0.331033081 -0.254742891
vn -0.751119792 -0.630398035 0.196003273
vn -0.936201394 -0.341092288 0.0847523808
vn -0.999802768 0 -0.019860642
vn -0.933333457 0.339768618 -0.11595618
vn -0.748380959 0.627395093 -0.215177566
vn -0.740880013 0.621678531 -0.254190356
vn -0.921591997 -0.33487761 0.196278319
vn -0.996390522 0 0.0848877952
vn -0.939638555 0.341659367 -0.0186633337
vn -0.761403501 0.637771368 -0.116242632
vn -0.487979442 0.845995903 -0.21486482
vn -0.483666182 0.83744365 -0.254470348
vn -0.169379622 0.962153137 -0.213476017
vn -0.167535484 0.952683866 -0.253624588
vn -0.17240411 0.978141069 -0.11626263
vn -0.49651587 0.860059261 -0.117345378
vn -0.1734346 0.984651208 -0.0195546392
vn -0.499994367 0.865814567 -0.0192536954
vn -0.172732279 0.981273174 0.0852445066
vn -0.766143262 0.642363191 -0.0198529474
vn -0.497979552 0.863057733 0.0845444277
vn -0.170112491 0.965723336 0.196061864
vn -0.763223231 0.640588045 0.084481962
vn -0.489719748 0.849503458 0.196261078
vn -0.165730461 0.934762478 0.314249098
vn -0.936449528 0.340599954 0.0839879438
vn -0.474449188 0.822354972 0.314054519
vn -0.156590521 0.887529433 0.43332535
vn -0.751662016 0.62949574 0.196823463
vn -0.921488345 0.335441411 0.195801422
vn -0.452028781 0.779777169 0.433148444
vn -0.145421192 0.824240565 0.547247827
vn -0.727734387 0.60993433 0.313660234
vn -0.980645895 0.000169661929 0.195789844
vn -0.418531895 0.724806726 0.54725337
vn -0.132135883 0.748769999 0.649525642
vn -0.69081986 0.578948438 0.433112741
vn -0.891828537 0.325413674 0.314241409
vn -0.94920516 0.000532115344 0.314657569
vn -0.380028188 0.659600019 0.648464561
vn -0.125354752 0.710534394 0.692406714
vn -0.361247301 0.62462306 0.692348421
vn -0.64124918 0.537556231 0.547569931
vn -0.846999705 0.308549225 0.432884485
vn -0.582427204 0.490205586 0.64844197
vn -0.552969217 0.464112788 0.691971481
vn -0.891979873 -0.324856341 0.314388573
vn -0.786641359 0.286136448 0.54710263
vn -0.714828134 0.26066184 0.648903847
vn -0.678300619 0.246446699 0.692222774
vn -0.901344419 0.000366028224 0.433102846
vn -0.727167845 -0.610363364 0.314139336
vn -0.760744214 0.0005691353 0.649051487
vn -0.721735358 0 0.69216913
vn -0.837536156 -0.000187117112 0.54638195
vn -0.847198784 -0.308122218 0.432799131
vn -0.475301594 -0.821894109 0.313972086
vn -0.71486783 -0.259796649 0.649206996
vn -0.678173125 -0.247163206 0.692092061
vn -0.786392152 -0.286794126 0.547116399
vn -0.690198541 -0.579466581 0.433410257
vn -0.16541636 -0.935143232 0.313280523
vn -0.582834423 -0.488510549 0.649354577
vn -0.553018093 -0.463963032 0.692032754
vn -0.641047239 -0.538244009 0.547130466
vn -0.450614095 -0.780704558 0.432951957
vn 0.165180579 -0.93475163 0.314570516
vn -0.380813956 -0.658623278 0.648996174
vn -0.360869467 -0.625036597 0.692172348
vn -0.418384492 -0.724781871 0.547398865
vn -0.156852946 -0.887399673 0.433496147
vn 0.47482866 -0.822084844 0.314188331
vn -0.131679758 -0.749094665 0.649243891
vn -0.125866979 -0.710766971 0.692075014
vn -0.145559564 -0.824151516 0.547345102
vn 0.156162903 -0.887821794 0.43288058
vn 0.726631105 -0.611087143 0.313974231
vn 0.131497368 -0.749136448 0.649232686
vn 0.125508562 -0.710706532 0.692202032
vn 0.145955771 -0.824088752 0.547334194
vn 0.450757205 -0.78049475 0.433180958
vn 0.892264903 -0.324540496 0.313905686
vn 0.379909068 -0.659053028 0.64909035
vn 0.419051498 -0.724547565 0.547198951
vn 0.690586805 -0.579181194 0.433172971
vn 0.84668684 -0.308535308 0.433505863
vn 0.641811788 -0.537180781 0.547279179
g Cylinder001_0
f 3/3/3 2/2/2 1/1/1
f 2/2/2 4/4/4 1/1/1
f 1/1/1 4/4/4 5/5/5
f 2/2/2 6/6/6 4/4/4
f 4/4/4 7/7/7 5/5/5
f 5/5/5 7/7/7 8/8/8
f 6/6/6 9/9/9 4/4/4
f 4/4/4 9/9/9 7/7/7
f 6/6/6 10/10/10 9/9/9
f 7/7/7 11/11/11 8/8/8
f 8/8/8 11/11/11 12/12/12
f 9/9/9 13/13/13 7/7/7
f 7/7/7 13/13/13 11/11/11
f 10/10/10 14/14/14 9/9/9
f 9/9/9 14/14/14 13/13/13
f 10/10/10 15/15/15 14/14/14
f 11/11/11 16/16/16 12/12/12
f 12/12/12 16/16/16 17/17/17
f 13/13/13 18/18/18 11/11/11
f 11/11/11 18/18/18 16/16/16
f 14/14/14 19/19/19 13/13/13
f 13/13/13 19/19/19 18/18/18
f 15/15/15 20/20/20 14/14/14
f 14/14/14 20/20/20 19/19/19
f 15/15/15 21/21/21 20/20/20
f 16/16/16 22/22/22 17/17/17
f 17/17/17 22/22/22 23/23/23
f 18/18/18 24/24/24 16/16/16
f 16/16/16 24/24/24 22/22/22
f 19/19/19 25/25/25 18/18/18
f 18/18/18 25/25/25 24/24/24
f 20/20/20 26/26/26 19/19/19
f 19/19/19 26/26/26 25/25/25
f 21/21/21 27/27/27 20/20/20
f 20/20/20 27/27/27 26/26/26
f 21/21/21 28/28/28 27/27/27
f 22/22/22 29/29/29 23/23/23
f 23/23/23 29/29/29 30/30/30
f 24/24/24 31/31/31 22/22/22
f 22/22/22 31/31/31 29/29/29
f 25/25/25 32/32/32 24/24/24
f 24/24/24 32/32/32 31/31/31
f 26/26/26 33/33/33 25/25/25
f 25/25/25 33/33/33 32/32/32
f 27/27/27 34/34/34 26/26/26
f 26/26/26 34/34/34 33/33/33
f 28/28/28 35/35/35 27/27/27
f 27/27/27 35/35/35 34/34/34
f 28/28/28 36/36/36 35/35/35
f 29/29/29 37/37/37 30/30/30
f 30/30/30 37/37/37 38/38/38
f 31/31/31 39/39/39 29/29/29
f 29/29/29 39/39/39 37/37/37
f 32/32/32 40/40/40 31/31/31
f 31/31/31 40/40/40 39/39/39
f 33/33/33 41/41/41 32/32/32
f 32/32/32 41/41/41 40/40/40
f 34/34/34 42/42/42 33/33/33
f 33/33/33 42/42/42 41/41/41
f 35/35/35 43/43/43 34/34/34
f 34/34/34 43/43/43 42/42/42
f 36/36/36 44/44/44 35/35/35
f 35/35/35 44/44/44 43/43/43
f 36/36/36 45/45/45 44/44/44
f 45/45/45 46/46/46 44/44/44
f 45/45/45 47/47/47 46/46/46
f 44/44/44 48/48/48 43/43/43
f 44/44/44 46/46/46 48/48/48
f 43/43/43 49/49/49 42/42/42
f 43/43/43 48/48/48 49/49/49
f 42/42/42 50/50/50 41/41/41
f 42/42/42 49/49/49 50/50/50
f 41/41/41 51/51/51 40/40/40
f 41/41/41 50/50/50 51/51/51
f 47/47/47 52/52/52 46/46/46
f 47/47/47 53/53/53 52/52/52
f 53/53/53 54/54/54 52/52/52
f 46/46/46 55/55/55 48/48/48
f 46/46/46 52/52/52 55/55/55
f 52/52/52 54/54/54 56/56/56
f 52/52/52 56/56/56 55/55/55
f 54/54/54 57/57/57 56/56/56
f 48/48/48 58/58/58 49/49/49
f 48/48/48 55/55/55 58/58/58
f 49/49/49 59/59/59 50/50/50
f 49/49/49 58/58/58 59/59/59
f 55/55/55 56/56/56 60/60/60
f 55/55/55 60/60/60 58/58/58
f 56/56/56 57/57/57 61/61/61
f 56/56/56 61/61/61 60/60/60
f 57/57/57 62/62/62 61/61/61
f 58/58/58 60/60/60 63/63/63
f 58/58/58 63/63/63 59/59/59
f 50/50/50 59/59/59 64/64/64
f 50/50/50 64/64/64 51/51/51
f 60/60/60 61/61/61 65/65/65
f 60/60/60 65/65/65 63/63/63
f 61/61/61 62/62/62 66/66/66
f 61/61/61 66/66/66 65/65/65
f 62/62/62 67/67/67 66/66/66
f 59/59/59 63/63/63 68/68/68
f 59/59/59 68/68/68 64/64/64
f 63/63/63 65/65/65 69/69/69
f 63/63/63 69/69/69 68/68/68
f 65/65/65 66/66/66 70/70/70
f 65/65/65 70/70/70 69/69/69
f 66/66/66 67/67/67 71/71/71
f 66/66/66 71/71/71 70/70/70
f 67/67/67 72/72/72 71/71/71
f 71/71/71 72/72/72 73/73/73
f 72/72/72 74/74/74 73/73/73
f 70/70/70 71/71/71 75/75/75
f 71/71/71 73/73/73 75/75/75
f 69/69/69 70/70/70 76/76/76
f 70/70/70 75/75/75 76/76/76
f 68/68/68 69/69/69 77/77/77
f 69/69/69 76/76/76 77/77/77
f 64/64/64 68/68/68 78/78/78
f 68/68/68 77/77/77 78/78/78
f 73/73/73 74/74/74 79/79/79
f 74/74/74 80/80/80 79/79/79
f 75/75/75 73/73/73 81/81/81
f 73/73/73 79/79/79 81/81/81
f 76/76/76 75/75/75 82/82/82
f 75/75/75 81/81/81 82/82/82
f 77/77/77 76/76/76 83/83/83
f 76/76/76 82/82/82 83/83/83
f 79/79/79 80/80/80 84/84/84
f 80/80/80 85/85/85 84/84/84
f 81/81/81 79/79/79 86/86/86
f 79/79/79 84/84/84 86/86/86
f 82/82/82 81/81/81 87/87/87
f 81/81/81 86/86/86 87/87/87
f 84/84/84 85/85/85 88/88/88
f 85/85/85 89/89/89 88/88/88
f 86/86/86 84/84/84 90/90/90
f 84/84/84 88/88/88 90/90/90
f 88/88/88 89/89/89 91/91/91
f 89/89/89 92/92/92 91/91/91
f 77/77/77 83/83/83 93/93/93
f 78/78/78 77/77/77 93/93/93
f 83/83/83 82/82/82 94/94/94
f 82/82/82 87/87/87 94/94/94
f 87/87/87 86/86/86 95/95/95
f 86/86/86 90/90/90 95/95/95
f 90/90/90 88/88/88 96/96/96
f 88/88/88 91/91/91 96/96/96
f 91/91/91 92/92/92 97/97/97
f 92/92/92 98/98/98 97/97/97
f 93/93/93 83/83/83 99/99/99
f 83/83/83 94/94/94 99/99/99
f 94/94/94 87/87/87 100/100/100
f 87/87/87 95/95/95 100/100/100
f 95/95/95 90/90/90 101/101/101
f 90/90/90 96/96/96 101/101/101
f 96/96/96 91/91/91 102/102/102
f 91/91/91 97/97/97 102/102/102
f 97/97/97 98/98/98 103/103/103
f 98/98/98 104/104/104 103/103/103
f 99/99/99 94/94/94 105/105/105
f 94/94/94 100/100/100 105/105/105
f 100/100/100 95/95/95 106/106/106
f 95/95/95 101/101/101 106/106/106
f 101/101/101 96/96/96 107/107/107
f 96/96/96 102/102/102 107/107/107
f 102/102/102 97/97/97 108/108/108
f 97/97/97 103/103/103 108/108/108
f 103/103/103 104/104/104 109/109/109
f 104/104/104 110/110/110 109/109/109
f 105/105/105 100/100/100 111/111/111
f 100/100/100 106/106/106 111/111/111
f 106/106/106 101/101/101 112/112/112
f 101/101/101 107/107/107 112/112/112
f 107/107/107 102/102/102 113/113/113
f 102/102/102 108/108/108 113/113/113
f 108/108/108 103/103/103 114/114/114
f 103/103/103 109/109/109 114/114/114
f 109/109/109 110/110/110 115/115/115
f 110/110/110 116/116/116 115/115/115
f 111/111/111 106/106/106 117/117/117
f 106/106/106 112/112/112 117/117/117
f 112/112/112 107/107/107 118/118/118
f 107/107/107 113/113/113 118/118/118
f 113/113/113 108/108/108 119/119/119
f 108/108/108 114/114/114 119/119/119
f 114/114/114 109/109/109 120/120/120
f 109/109/109 115/115/115 120/120/120
f 115/115/115 116/116/116 121/121/121
f 116/116/116 122/122/122 121/121/121
f 117/117/117 112/112/112 123/123/123
f 112/112/112 118/118/118 123/123/123
f 118/118/118 113/113/113 124/124/124
f 113/113/113 119/119/119 124/124/124
f 119/119/119 114/114/114 125/125/125
f 114/114/114 120/120/120 125/125/125
f 120/120/120 115/115/115 126/126/126
f 115/115/115 121/121/121 126/126/126
f 121/121/121 122/122/122 127/127/127
f 122/122/122 128/128/128 127/127/127
f 123/123/123 118/118/118 129/129/129
f 118/118/118 124/124/124 129/129/129
f 124/124/124 119/119/119 130/130/130
f 119/119/119 125/125/125 130/130/130
f 125/125/125 120/120/120 131/131/131
f 120/120/120 126/126/126 131/131/131
f 126/126/126 121/121/121 132/132/132
f 121/121/121 127/127/127 132/132/132
f 127/127/127 128/128/128 133/133/133
f 128/128/128 134/134/134 133/133/133
f 133/133/133 134/134/134 135/135/135
f 134/134/134 136/136/136 135/135/135
f 133/133/133 135/135/135 137/137/137
f 127/127/127 133/133/133 138/138/138
f 138/138/138 133/133/133 137/137/137
f 132/132/132 127/127/127 138/138/138
f 138/138/138 137/137/137 139/139/139
f 140/140/140 138/138/138 139/139/139
f 132/132/132 138/138/138 140/140/140
f 140/140/140 139/139/139 141/141/141
f 126/126/126 132/132/132 142/142/142
f 142/142/142 132/132/132 140/140/140
f 131/131/131 126/126/126 142/142/142
f 143/143/143 140/140/140 141/141/141
f 142/142/142 140/140/140 143/143/143
f 143/143/143 141/141/141 144/144/144
f 131/131/131 142/142/142 145/145/145
f 145/145/145 142/142/142 143/143/143
f 146/146/146 143/143/143 144/144/144
f 145/145/145 143/143/143 146/146/146
f 146/146/146 144/144/144 147/147/147
f 148/148/148 131/131/131 145/145/145
f 125/125/125 131/131/131 148/148/148
f 130/130/130 125/125/125 148/148/148
f 149/149/149 146/146/146 147/147/147
f 149/149/149 147/147/147 150/150/150
f 151/151/151 145/145/145 146/146/146
f 148/148/148 145/145/145 151/151/151
f 151/151/151 146/146/146 149/149/149
f 130/130/130 148/148/148 152/152/152
f 152/152/152 148/148/148 151/151/151
f 153/153/153 149/149/149 150/150/150
f 153/153/153 150/150/150 154/154/154
f 155/155/155 151/151/151 149/149/149
f 152/152/152 151/151/151 155/155/155
f 155/155/155 149/149/149 153/153/153
f 156/156/156 130/130/130 152/152/152
f 124/124/124 130/130/130 156/156/156
f 129/129/129 124/124/124 156/156/156
f 157/157/157 153/153/153 154/154/154
f 157/157/157 154/154/154 158/158/158
f 159/159/159 155/155/155 153/153/153
f 159/159/159 153/153/153 157/157/157
f 160/160/160 152/152/152 155/155/155
f 156/156/156 152/152/152 160/160/160
f 160/160/160 155/155/155 159/159/159
f 129/129/129 156/156/156 161/161/161
f 161/161/161 156/156/156 160/160/160
f 162/162/162 157/157/157 158/158/158
f 162/162/162 158/158/158 163/163/163
f 164/164/164 162/162/162 163/163/163
f 165/165/165 159/159/159 157/157/157
f 165/165/165 157/157/157 162/162/162
f 166/166/166 160/160/160 159/159/159
f 161/161/161 160/160/160 166/166/166
f 166/166/166 159/159/159 165/165/165
f 167/167/167 162/162/162 164/164/164
f 167/167/167 165/165/165 162/162/162
f 168/168/168 167/167/167 164/164/164
f 169/169/169 129/129/129 161/161/161
f 123/123/123 129/129/129 169/169/169
f 170/170/170 166/166/166 165/165/165
f 170/170/170 165/165/165 167/167/167
f 171/171/171 167/167/167 168/168/168
f 171/171/171 170/170/170 167/167/167
f 172/172/172 171/171/171 168/168/168
f 173/173/173 161/161/161 166/166/166
f 173/173/173 166/166/166 170/170/170
f 169/169/169 161/161/161 173/173/173
f 174/174/174 123/123/123 169/169/169
f 117/117/117 123/123/123 174/174/174
f 175/175/175 171/171/171 172/172/172
f 176/176/176 175/175/175 172/172/172
f 177/177/177 170/170/170 171/171/171
f 177/177/177 173/173/173 170/170/170
f 175/175/175 177/177/177 171/171/171
f 178/178/178 169/169/169 173/173/173
f 178/178/178 173/173/173 177/177/177
f 174/174/174 169/169/169 178/178/178
f 179/179/179 117/117/117 174/174/174
f 111/111/111 117/117/117 179/179/179
f 180/180/180 175/175/175 176/176/176
f 181/181/181 180/180/180 176/176/176
f 182/182/182 177/177/177 175/175/175
f 182/182/182 178/178/178 177/177/177
f 180/180/180 182/182/182 175/175/175
f 183/183/183 174/174/174 178/178/178
f 183/183/183 178/178/178 182/182/182
f 179/179/179 174/174/174 183/183/183
f 184/184/184 111/111/111 179/179/179
f 105/105/105 111/111/111 184/184/184
f 185/185/185 180/180/180 181/181/181
f 186/186/186 185/185/185 181/181/181
f 187/187/187 182/182/182 180/180/180
f 187/187/187 183/183/183 182/182/182
f 185/185/185 187/187/187 180/180/180
f 188/188/188 179/179/179 183/183/183
f 188/188/188 183/183/183 187/187/187
f 184/184/184 179/179/179 188/188/188
f 189/189/189 105/105/105 184/184/184
f 99/99/99 105/105/105 189/189/189
f 190/190/190 185/185/185 186/186/186
f 191/191/191 190/190/190 186/186/186
f 192/192/192 187/187/187 185/185/185
f 192/192/192 188/188/188 187/187/187
f 190/190/190 192/192/192 185/185/185
f 193/193/193 184/184/184 188/188/188
f 193/193/193 188/188/188 192/192/192
f 189/189/189 184/184/184 193/193/193
f 194/194/194 99/99/99 189/189/189
f 93/93/93 99/99/99 194/194/194
f 195/195/195 190/190/190 191/191/191
f 196/196/196 195/195/195 191/191/191
f 197/197/197 192/192/192 190/190/190
f 197/197/197 193/193/193 192/192/192
f 195/195/195 197/197/197 190/190/190
f 198/198/198 189/189/189 193/193/193
f 198/198/198 193/193/193 197/197/197
f 194/194/194 189/189/189 198/198/198
f 199/199/199 93/93/93 194/194/194
f 78/78/78 93/93/93 199/199/199
f 200/200/200 195/195/195 196/196/196
f 201/201/201 200/200/200 196/196/196
f 202/202/202 197/197/197 195/195/195
f 202/202/202 198/198/198 197/197/197
f 200/200/200 202/202/202 195/195/195
f 203/203/203 194/194/194 198/198/198
f 203/203/203 198/198/198 202/202/202
f 199/199/199 194/194/194 203/203/203
f 204/204/204 78/78/78 199/199/199
f 64/64/64 78/78/78 204/204/204
f 51/51/51 64/64/64 204/204/204
f 205/205/205 200/200/200 201/201/201
f 38/38/38 205/205/205 201/201/201
f 37/37/37 205/205/205 38/38/38
f 206/206/206 202/202/202 200/200/200
f 206/206/206 203/203/203 202/202/202
f 205/205/205 206/206/206 200/200/200
f 207/207/207 199/199/199 203/203/203
f 204/204/204 199/199/199 207/207/207
f 207/207/207 203/203/203 206/206/206
f 51/51/51 204/204/204 208/208/208
f 208/208/208 204/204/204 207/207/207
f 40/40/40 51/51/51 208/208/208
f 40/40/40 208/208/208 39/39/39
f 37/37/37 209/209/209 205/205/205
f 209/209/209 206/206/206 205/205/205
f 209/209/209 207/207/207 206/206/206
f 39/39/39 209/209/209 37/37/37
f 208/208/208 207/207/207 209/209/209
f 39/39/39 208/208/208 209/209/209
