g Cylinder001
v 0.0770229325 0.237052247 0
v 0.0195514485 0.186020032 0.000851477962
v 0.0260538664 0.247886017 0
v 0.0577999875 0.177890062 0.00085147802
v 0.124625735 0.215858132 0
v 0.0130491061 0.124154031 0.00170295592
v 0.0935223401 0.161985457 0.00085147802
v 0.166781768 0.185229972 0
v 0.0385770015 0.118727893 0.00170295604
v 0.00654674508 0.0622879975 0.00255443458
v 0.125157312 0.139001325 0.000851477962
v 0.201648667 0.146506324 0
v 0.0624189377 0.108112812 0.00170295604
v 0.0193540752 0.0595656969 0.00255443458
v 4.43649296E-05 0.000422000885 0.00340591185
v 0.000131130219 0.000403556827 0.00340591208
v 0.0313155167 0.0542401113 0.00255443458
v 0.00021215438 0.000367469765 0.00340591208
v 0.15132229 0.109942108 0.000851478137
v 0.227702513 0.101379715 0
v 0.0835328624 0.0927726552 0.00170295592
v 0.0419083573 0.0465439595 0.00255443412
v 0.000283908827 0.000315322861 0.00340591185
v 0.170873791 0.0760779381 0.000851477962
v 0.243804693 0.0518222973 0
v 0.10099598 0.0733778924 0.00170295627
v 0.0506696105 0.0368136391 0.00255443458
v 0.000343284599 0.000249423989 0.00340591255
v 0.182957307 0.0388887785 0.000851478137
v 0.24925147 0 0
v 0.114045106 0.0507761575 0.00170295592
v 0.0572163388 0.025474377 0.00255443458
v 0.000387611391 0.000172595974 0.00340591185
v 0.187044635 0 0.000851477962
v 0.243804663 -0.0518227741 0
v 0.122109905 0.0259552561 0.00170295627
v 0.0612624548 0.013021755 0.00255443458
v 0.000415039045 8.82339446E-05 0.00340591255
v 0.182957232 -0.0388891399 0.000851478137
v 0.227702409 -0.10138011 0
v 0.124837875 1.90734859E-08 0.00170295592
v 0.062631093 0 0.00255443458
v 0.000424308761 0 0.00340591185
v 0.170873716 -0.0760782212 0.000851478137
v 0.201648474 -0.146506637 0
v 0.12210983 -0.0259554852 0.00170295627
v 0.0612624139 -0.0130218314 0.00255443458
v 0.000415039045 -8.81957967E-05 0.00340591255
v 0.151322171 -0.109942332 0.000851478137
v 0.16678153 -0.185230181 0
v 0.114045024 -0.0507763289 0.00170295627
v 0.0572162978 -0.0254744329 0.00255443458
v 0.000387611391 -0.000172557833 0.00340591255
v 0.125157163 -0.139001459 0.00085147802
v 0.124625511 -0.215858251 0
v 0.100995861 -0.0733780116 0.00170295627
v 0.0506695546 -0.0368136764 0.00255443458
v 0.000343284599 -0.000249385834 0.00340591255
v 0.0935221463 -0.161985546 0.000851477962
v 0.0770227388 -0.237052307 0
v 0.0835327134 -0.0927727297 0.00170295604
v 0.0419083014 -0.0465440154 0.00255443458
v 0.000283908827 -0.000315303798 0.00340591208
v 0.057799872 -0.177890107 0.00085147802
v 0.0260537136 -0.247886062 0
v 0.0624188222 -0.108112857 0.00170295592
v 0.0313154981 -0.0542401485 0.00255443412
v 0.00021215438 -0.000367450702 0.00340591185
v 0.0195513722 -0.186020046 0.000851478137
v -0.0260539614 -0.247886047 0
v 0.0385769457 -0.118727908 0.00170295604
v 0.0193540379 -0.0595657155 0.00255443412
v 0.000131130219 -0.00040349958 0.00340591208
v -0.0195515435 -0.186020032 0.00085147802
v -0.0770229548 -0.237052232 0
v 0.0130490297 -0.124154009 0.00170295627
v 0.0065466878 -0.0622879788 0.00255443458
v 4.43649296E-05 -0.00042196273 0.00340591255
v -0.0577999875 -0.177890062 0.00085147802
v -0.12462572 -0.215858117 0
v -0.0130491639 -0.124154009 0.00170295604
v -0.00654672598 -0.0622879788 0.00255443458
v -4.43267818E-05 -0.00042196273 0.00340591208
v -0.0935223103 -0.161985457 0.000851478137
v -0.166781783 -0.185229942 0
v -0.0385770202 -0.11872787 0.00170295604
v -0.0193540566 -0.0595656559 0.00255443458
v -0.000131111141 -0.00040349958 0.00340591208
v -0.125157312 -0.13900128 0.00085147802
v -0.201648667 -0.146506369 0
v -0.0624189377 -0.108112782 0.00170295627
v -0.0313155167 -0.0542401113 0.00255443458
v -0.000212135317 -0.000367431639 0.00340591255
v -0.15132232 -0.109942138 0.000851477962
v -0.227702558 -0.101379722 0
v -0.0835328251 -0.0927726328 0.00170295604
v -0.04190832 -0.0465439409 0.00255443458
v -0.000283908827 -0.000315284735 0.00340591208
v -0.170873806 -0.0760779381 0.000851477962
v -0.243804723 -0.0518223196 0
v -0.100995988 -0.0733778924 0.00170295592
v -0.0506695919 -0.0368136019 0.00255443412
v -0.000343265536 -0.000249385834 0.00340591185
v -0.182957307 -0.0388887972 0.00085147802
v -0.24925147 -1.90734859E-08 0
v -0.114045061 -0.0507761389 0.00170295592
v -0.0572163388 -0.0254743379 0.00255443412
v -0.000387611391 -0.000172557833 0.00340591185
v -0.18704468 -1.90734859E-08 0.00085147802
v -0.243804738 0.0518222786 0
v -0.122109868 -0.0259552766 0.00170295604
v -0.0612624362 -0.013021755 0.00255443412
v -0.000415000919 -8.82148743E-05 0.00340591208
v -0.182957307 0.0388887785 0.00085147802
v -0.227702558 0.101379715 0
v -0.124837883 1.90734859E-08 0.00170295604
v -0.0626310706 1.90734859E-08 0.00255443458
v -0.000424289698 1.90734859E-08 0.00340591208
v -0.170873836 0.0760779753 0.00085147802
v -0.201648682 0.146506324 0
v -0.122109868 0.0259552561 0.00170295604
v -0.0612624548 0.0130217168 0.00255443412
v -0.000415019982 8.82339446E-05 0.00340591208
v -0.15132232 0.109942071 0.000851478137
v -0.166781798 0.185229972 0
v -0.114045084 0.0507761389 0.00170295604
v -0.0572163388 0.0254744142 0.00255443458
v -0.000387611391 0.000172595974 0.00340591208
v -0.125157326 0.139001325 0.00085147802
v -0.124625765 0.215858132 0
v -0.100995965 0.0733778924 0.00170295627
v -0.0506695919 0.0368136391 0.00255443412
v -0.000343265536 0.000249423989 0.00340591255
v -0.0935223773 0.161985457 0.00085147802
v -0.0770229548 0.237052247 0
v -0.0835328475 0.0927726552 0.00170295604
v -0.0419083573 0.0465439595 0.00255443412
v -0.000283889764 0.000315322861 0.00340591208
v -0.0578000061 0.177890033 0.000851477962
v -0.026053885 0.247886017 0
v -0.0624189563 0.108112812 0.00170295604
v -0.0313155539 0.0542401113 0.00255443458
v -0.00021215438 0.000367469765 0.00340591208
v -0.0195515063 0.186020032 0.000851477962
v 0.0260538664 0.247886017 0
v 0.0195514485 0.186020032 0.000851477962
v -0.0385770425 0.118727893 0.00170295592
v -0.0193540752 0.0595656969 0.00255443458
v -0.000131111141 0.000403556827 0.00340591185
v -0.0130491061 0.124154031 0.00170295592
v 0.0130491061 0.124154031 0.00170295592
v -0.00654674508 0.0622879602 0.00255443458
v -4.43649296E-05 0.000422000885 0.00340591185
v 0.00654674508 0.0622879975 0.00255443458
v 4.43649296E-05 0.000422000885 0.00340591185
vt 0.989994764 0.958096623
vt 0.74458611 0.990817845
vt 0.989994764 0.990817845
vt 0.74458611 0.958096623
vt 0.989994764 0.925375462
vt 0.499177158 0.990817845
vt 0.74458611 0.925375462
vt 0.989994764 0.8926543
vt 0.499177158 0.958096623
vt 0.253768295 0.990817845
vt 0.74458611 0.8926543
vt 0.989994764 0.859933197
vt 0.499177158 0.925375462
vt 0.253768295 0.958096623
vt 0.00835964177 0.990817845
vt 0.00835964177 0.958096623
vt 0.253768295 0.925375462
vt 0.00835964177 0.925375462
vt 0.74458611 0.859933197
vt 0.989994764 0.827211916
vt 0.499177158 0.8926543
vt 0.253768295 0.892654181
vt 0.00835964177 0.892654181
vt 0.74458611 0.827211916
vt 0.989994764 0.794490755
vt 0.499177158 0.859933197
vt 0.253768295 0.859933078
vt 0.00835964177 0.859933078
vt 0.74458611 0.794490755
vt 0.989994764 0.761769593
vt 0.499177158 0.827211916
vt 0.253768295 0.827211916
vt 0.00835964177 0.827211916
vt 0.74458611 0.761769593
vt 0.989994764 0.729048133
vt 0.499177158 0.794490755
vt 0.253768295 0.794490755
vt 0.00835964177 0.794490755
vt 0.74458611 0.729048133
vt 0.989994764 0.696326971
vt 0.499177158 0.761769593
vt 0.253768295 0.761769474
vt 0.00835964177 0.761769474
vt 0.74458611 0.696326971
vt 0.989994884 0.663605809
vt 0.499177158 0.729048133
vt 0.253768295 0.729048133
vt 0.00835964177 0.729048133
vt 0.74458611 0.663605809
vt 0.989994884 0.630884707
vt 0.499177158 0.696326971
vt 0.253768295 0.696326971
vt 0.00835964177 0.696326971
vt 0.74458611 0.630884707
vt 0.989994884 0.598163545
vt 0.499177217 0.663605809
vt 0.253768355 0.663605809
vt 0.00835964177 0.663605809
vt 0.74458611 0.598163545
vt 0.989994884 0.565442383
vt 0.499177217 0.630884707
vt 0.253768355 0.630884707
vt 0.00835964177 0.630884707
vt 0.74458611 0.565442383
vt 0.989994884 0.532721281
vt 0.499177217 0.598163545
vt 0.253768355 0.598163426
vt 0.00835964177 0.598163426
vt 0.74458611 0.532721281
vt 0.989994884 0.500000179
vt 0.499177217 0.565442383
vt 0.253768355 0.565442383
vt 0.00835964177 0.565442383
vt 0.74458611 0.500000179
vt 0.989994884 0.467279047
vt 0.499177217 0.532721281
vt 0.253768355 0.532721281
vt 0.00835964177 0.532721281
vt 0.74458611 0.467279047
vt 0.989994884 0.434557885
vt 0.499177217 0.500000119
vt 0.253768355 0.500000119
vt 0.00835964177 0.500000119
vt 0.74458611 0.434557885
vt 0.989994884 0.401836723
vt 0.499177217 0.467279017
vt 0.253768355 0.467279017
vt 0.00835964177 0.467279017
vt 0.74458611 0.401836723
vt 0.989994884 0.369115561
vt 0.499177217 0.434557855
vt 0.253768355 0.434557855
vt 0.00835964177 0.434557855
vt 0.74458611 0.369115561
vt 0.989994884 0.33639437
vt 0.499177217 0.401836693
vt 0.253768355 0.401836693
vt 0.00835964177 0.401836693
vt 0.74458611 0.33639437
vt 0.989994884 0.303673208
vt 0.499177217 0.369115531
vt 0.253768355 0.369115531
vt 0.00835964177 0.369115531
vt 0.74458611 0.303673208
vt 0.989994884 0.270952016
vt 0.499177217 0.33639434
vt 0.253768355 0.33639434
vt 0.00835964177 0.33639434
vt 0.74458611 0.270952016
vt 0.989994884 0.238230854
vt 0.499177217 0.303673178
vt 0.253768355 0.303673178
vt 0.00835964177 0.303673178
vt 0.74458611 0.238230839
vt 0.989994884 0.205509678
vt 0.499177217 0.270951986
vt 0.253768355 0.270951986
vt 0.00835964177 0.270951986
vt 0.74458611 0.205509663
vt 0.989994884 0.172788501
vt 0.499177217 0.238230839
vt 0.253768355 0.238230824
vt 0.00835964177 0.23823081
vt 0.74458611 0.172788486
vt 0.989994884 0.140067324
vt 0.499177217 0.205509663
vt 0.253768355 0.205509648
vt 0.00835964177 0.205509633
vt 0.74458611 0.140067324
vt 0.989994884 0.107346162
vt 0.499177217 0.172788486
vt 0.253768355 0.172788471
vt 0.00835964177 0.172788456
vt 0.74458611 0.107346155
vt 0.989994884 0.0746249855
vt 0.499177217 0.140067309
vt 0.253768355 0.140067294
vt 0.00835964177 0.140067294
vt 0.74458611 0.074624978
vt 0.989994884 0.0419038199
vt 0.499177217 0.10734614
vt 0.253768355 0.107346132
vt 0.00835964177 0.107346117
vt 0.74458611 0.041903805
vt 0.989994884 0.00918263942
vt 0.74458611 0.00918262824
vt 0.499177217 0.0746249631
vt 0.253768355 0.0746249482
vt 0.00835964177 0.0746249408
vt 0.499177217 0.0419037975
vt 0.499177217 0.00918261707
vt 0.253768355 0.0419037826
vt 0.00835964177 0.0419037752
vt 0.253768355 0.00918260682
vt 0.00835964177 0.00918259844
vn 0.00422938028 0.0130167101 0.999906301
vn 0.00143063383 0.0136116073 0.999906301
vn 0.00143063429 0.0136116063 0.999906301
vn 0.00422938121 0.013016711 0.999906301
vn 0.00684328843 0.0118529266 0.999906301
vn 0.00143063534 0.0136116073 0.999906301
vn 0.0068432861 0.0118529256 0.999906301
vn 0.00915811304 0.0101711089 0.999906301
vn 0.00422938354 0.0130167138 0.999906301
vn 0.00143062661 0.0136116035 0.999906301
vn 0.00915811211 0.0101711117 0.999906301
vn 0.0110726785 0.00804476719 0.999906301
vn 0.00684328796 0.0118529266 0.999906301
vn 0.00422939099 0.0130167101 0.999906301
vn 0.00143062405 0.0136116017 0.999906301
vn 0.00422945572 0.0130166877 0.999906301
vn 0.00684330566 0.0118529145 0.999906301
vn 0.00684342161 0.0118528502 0.999906301
vn 0.0110726822 0.00804476999 0.999906301
vn 0.0125033138 0.00556683633 0.999906301
vn 0.00915810652 0.0101711135 0.999906301
vn 0.00915809814 0.0101711266 0.999906301
vn 0.00915802829 0.010171202 0.999906301
vn 0.0125033176 0.00556683913 0.999906301
vn 0.0133874957 0.00284560071 0.999906301
vn 0.0110726776 0.00804477278 0.999906301
vn 0.0110726617 0.00804477837 0.999906301
vn 0.0110726412 0.00804479979 0.999906301
vn 0.0133874984 0.00284559885 0.999906301
vn 0.0136865769 0 0.999906301
vn 0.0125033176 0.00556684006 0.999906301
vn 0.0125033148 0.0055668368 0.999906301
vn 0.0125033353 0.0055667921 0.999906301
vn 0.0136865815 0 0.999906301
vn 0.0133874891 -0.00284561049 0.999906301
vn 0.0133874975 0.00284559489 0.999906301
vn 0.0133874901 0.00284560141 0.999906301
vn 0.0133874705 0.00284566451 0.999906301
vn 0.013387491 -0.002845607 0.999906301
vn 0.0125033036 -0.00556685403 0.999906301
vn 0.013686589 0 0.999906301
vn 0.0136865834 0 0.999906301
vn 0.0136865815 0 0.999906301
vn 0.0125033017 -0.00556685403 0.999906301
vn 0.0110726636 -0.00804478861 0.999906301
vn 0.0133874947 -0.00284560584 0.999906301
vn 0.0133874919 -0.00284560747 0.999906301
vn 0.0133874752 -0.00284568104 0.999906301
vn 0.0110726608 -0.00804478768 0.999906301
vn 0.00915809441 -0.0101711256 0.999906301
vn 0.0125033017 -0.00556685217 0.999906301
vn 0.0125033055 -0.00556685217 0.999906301
vn 0.0125033269 -0.0055668056 0.999906301
vn 0.00915809255 -0.0101711228 0.999906301
vn 0.00684327586 -0.0118529331 0.999906301
vn 0.011072658 -0.00804479141 0.999906301
vn 0.0110726599 -0.00804479141 0.999906301
vn 0.0110726859 -0.00804475415 0.999906301
vn 0.00684327586 -0.0118529331 0.999906301
vn 0.00422937609 -0.0130167147 0.999906301
vn 0.00915809255 -0.0101711247 0.999906301
vn 0.00915808789 -0.0101711312 0.999906301
vn 0.00915806182 -0.0101711527 0.999906301
vn 0.00422937796 -0.0130167147 0.999906301
vn 0.00143062882 -0.0136116045 0.999906301
vn 0.00684327818 -0.0118529331 0.999906301
vn 0.00684327353 -0.0118529331 0.999906301
vn 0.00684321951 -0.0118529592 0.999906301
vn 0.00143062894 -0.0136116035 0.999906301
vn -0.00143064267 -0.0136116035 0.999906301
vn 0.00422937749 -0.013016711 0.999906301
vn 0.00422938587 -0.013016711 0.999906301
vn 0.00422938261 -0.013016711 0.999906301
vn -0.00143064267 -0.0136116035 0.999906301
vn -0.00422938867 -0.0130167129 0.999906301
vn 0.00143063092 -0.0136116035 0.999906301
vn 0.00143063942 -0.0136115998 0.999906301
vn 0.00143074465 -0.0136115858 0.999906301
vn -0.00422938727 -0.013016711 0.999906301
vn -0.00684329029 -0.0118529266 0.999906301
vn -0.00143064675 -0.0136115998 0.999906301
vn -0.00143066165 -0.0136115989 0.999906301
vn -0.00143075327 -0.0136115858 0.999906301
vn -0.00684328889 -0.0118529256 0.999906301
vn -0.00915810745 -0.0101711126 0.999906301
vn -0.0042293868 -0.0130167101 0.999906301
vn -0.00422938541 -0.0130167147 0.999906301
vn -0.00422943104 -0.013016698 0.999906301
vn -0.00915810838 -0.0101711135 0.999906301
vn -0.0110726738 -0.00804476999 0.999906301
vn -0.00684328889 -0.0118529228 0.999906301
vn -0.00684328657 -0.0118529219 0.999906301
vn -0.00684326282 -0.0118529312 0.999906301
vn -0.0110726766 -0.00804476999 0.999906301
vn -0.012503312 -0.00556683214 0.999906301
vn -0.00915810745 -0.0101711098 0.999906301
vn -0.00915812328 -0.0101711014 0.999906301
vn -0.00915808138 -0.0101711415 0.999906301
vn -0.0125033129 -0.00556683121 0.999906301
vn -0.0133874938 -0.00284560071 0.999906301
vn -0.0110726729 -0.00804476812 0.999906301
vn -0.0110726738 -0.00804476906 0.999906301
vn -0.0110726571 -0.00804479793 0.999906301
vn -0.0133874938 -0.00284560164 0.999906301
vn -0.0136865806 0 0.999906301
vn -0.0125033138 -0.00556683261 0.999906301
vn -0.012503312 -0.00556683913 0.999906301
vn -0.0125033548 -0.00556673855 0.999906301
vn -0.0136865806 0 0.999906301
vn -0.0133874975 0.00284559652 0.999906301
vn -0.0133874947 -0.0028456063 0.999906301
vn -0.0133874938 -0.00284561678 0.999906301
vn -0.0133874873 -0.00284562609 0.999906301
vn -0.0133874947 0.00284559675 0.999906301
vn -0.0125033138 0.00556683494 0.999906301
vn -0.0136865815 0 0.999906301
vn -0.0136865806 0 0.999906301
vn -0.0136865769 0 0.999906301
vn -0.012503312 0.00556683447 0.999906301
vn -0.0110726766 0.00804476906 0.999906301
vn -0.0133874984 0.00284559652 0.999906301
vn -0.0133875003 0.00284558977 0.999906301
vn -0.0133875022 0.00284556346 0.999906301
vn -0.0110726785 0.00804476999 0.999906301
vn -0.00915811397 0.0101711079 0.999906301
vn -0.0125033138 0.00556683261 0.999906301
vn -0.0125033138 0.00556683261 0.999906301
vn -0.0125033353 0.00556677813 0.999906301
vn -0.0091581149 0.0101711098 0.999906301
vn -0.00684328517 0.0118529266 0.999906301
vn -0.0110726738 0.00804477278 0.999906301
vn -0.0110726599 0.00804479141 0.999906301
vn -0.0110725919 0.00804488827 0.999906301
vn -0.00684328424 0.0118529266 0.999906301
vn -0.00422937935 0.0130167101 0.999906301
vn -0.00915811211 0.010171107 0.999906301
vn -0.0091581149 0.0101711098 0.999906301
vn -0.00915809255 0.0101711387 0.999906301
vn -0.00422938168 0.013016711 0.999906301
vn -0.00143063662 0.0136116026 0.999906301
vn -0.00684328657 0.0118529266 0.999906301
vn -0.00684329914 0.0118529173 0.999906301
vn -0.00684341742 0.0118528446 0.999906301
vn -0.00143063883 0.0136116045 0.999906301
vn 0.00143063429 0.0136116063 0.999906301
vn 0.00143063383 0.0136116073 0.999906301
vn -0.00422938121 0.0130167184 0.999906301
vn -0.00422937283 0.0130167147 0.999906301
vn -0.00422941055 0.0130167026 0.999906301
vn -0.00143064151 0.0136116073 0.999906301
vn 0.00143063534 0.0136116073 0.999906301
vn -0.00143064675 0.0136116035 0.999906301
vn -0.00143067737 0.0136115998 0.999906301
vn 0.00143062661 0.0136116035 0.999906301
vn 0.00143062405 0.0136116017 0.999906301
g Cylinder001_0
f 3/3/3 2/2/2 1/1/1
f 2/2/2 4/4/4 1/1/1
f 1/1/1 4/4/4 5/5/5
f 2/2/2 6/6/6 4/4/4
f 4/4/4 7/7/7 5/5/5
f 5/5/5 7/7/7 8/8/8
f 6/6/6 9/9/9 4/4/4
f 4/4/4 9/9/9 7/7/7
f 6/6/6 10/10/10 9/9/9
f 7/7/7 11/11/11 8/8/8
f 8/8/8 11/11/11 12/12/12
f 9/9/9 13/13/13 7/7/7
f 7/7/7 13/13/13 11/11/11
f 10/10/10 14/14/14 9/9/9
f 9/9/9 14/14/14 13/13/13
f 10/10/10 15/15/15 14/14/14
f 15/15/15 16/16/16 14/14/14
f 14/14/14 16/16/16 17/17/17
f 14/14/14 17/17/17 13/13/13
f 16/16/16 18/18/18 17/17/17
f 11/11/11 19/19/19 12/12/12
f 12/12/12 19/19/19 20/20/20
f 13/13/13 21/21/21 11/11/11
f 13/13/13 17/17/17 21/21/21
f 11/11/11 21/21/21 19/19/19
f 17/17/17 18/18/18 22/22/22
f 17/17/17 22/22/22 21/21/21
f 18/18/18 23/23/23 22/22/22
f 19/19/19 24/24/24 20/20/20
f 20/20/20 24/24/24 25/25/25
f 21/21/21 26/26/26 19/19/19
f 21/21/21 22/22/22 26/26/26
f 19/19/19 26/26/26 24/24/24
f 22/22/22 23/23/23 27/27/27
f 22/22/22 27/27/27 26/26/26
f 23/23/23 28/28/28 27/27/27
f 24/24/24 29/29/29 25/25/25
f 25/25/25 29/29/29 30/30/30
f 26/26/26 31/31/31 24/24/24
f 26/26/26 27/27/27 31/31/31
f 24/24/24 31/31/31 29/29/29
f 27/27/27 28/28/28 32/32/32
f 27/27/27 32/32/32 31/31/31
f 28/28/28 33/33/33 32/32/32
f 29/29/29 34/34/34 30/30/30
f 30/30/30 34/34/34 35/35/35
f 31/31/31 36/36/36 29/29/29
f 31/31/31 32/32/32 36/36/36
f 29/29/29 36/36/36 34/34/34
f 32/32/32 33/33/33 37/37/37
f 32/32/32 37/37/37 36/36/36
f 33/33/33 38/38/38 37/37/37
f 34/34/34 39/39/39 35/35/35
f 35/35/35 39/39/39 40/40/40
f 36/36/36 41/41/41 34/34/34
f 36/36/36 37/37/37 41/41/41
f 34/34/34 41/41/41 39/39/39
f 37/37/37 38/38/38 42/42/42
f 37/37/37 42/42/42 41/41/41
f 38/38/38 43/43/43 42/42/42
f 39/39/39 44/44/44 40/40/40
f 40/40/40 44/44/44 45/45/45
f 41/41/41 46/46/46 39/39/39
f 41/41/41 42/42/42 46/46/46
f 39/39/39 46/46/46 44/44/44
f 42/42/42 43/43/43 47/47/47
f 42/42/42 47/47/47 46/46/46
f 43/43/43 48/48/48 47/47/47
f 44/44/44 49/49/49 45/45/45
f 45/45/45 49/49/49 50/50/50
f 46/46/46 51/51/51 44/44/44
f 46/46/46 47/47/47 51/51/51
f 44/44/44 51/51/51 49/49/49
f 47/47/47 48/48/48 52/52/52
f 47/47/47 52/52/52 51/51/51
f 48/48/48 53/53/53 52/52/52
f 49/49/49 54/54/54 50/50/50
f 50/50/50 54/54/54 55/55/55
f 51/51/51 56/56/56 49/49/49
f 51/51/51 52/52/52 56/56/56
f 49/49/49 56/56/56 54/54/54
f 52/52/52 53/53/53 57/57/57
f 52/52/52 57/57/57 56/56/56
f 53/53/53 58/58/58 57/57/57
f 54/54/54 59/59/59 55/55/55
f 55/55/55 59/59/59 60/60/60
f 56/56/56 61/61/61 54/54/54
f 56/56/56 57/57/57 61/61/61
f 54/54/54 61/61/61 59/59/59
f 57/57/57 58/58/58 62/62/62
f 57/57/57 62/62/62 61/61/61
f 58/58/58 63/63/63 62/62/62
f 59/59/59 64/64/64 60/60/60
f 60/60/60 64/64/64 65/65/65
f 61/61/61 66/66/66 59/59/59
f 61/61/61 62/62/62 66/66/66
f 59/59/59 66/66/66 64/64/64
f 62/62/62 63/63/63 67/67/67
f 62/62/62 67/67/67 66/66/66
f 63/63/63 68/68/68 67/67/67
f 64/64/64 69/69/69 65/65/65
f 65/65/65 69/69/69 70/70/70
f 66/66/66 71/71/71 64/64/64
f 66/66/66 67/67/67 71/71/71
f 64/64/64 71/71/71 69/69/69
f 67/67/67 68/68/68 72/72/72
f 67/67/67 72/72/72 71/71/71
f 68/68/68 73/73/73 72/72/72
f 69/69/69 74/74/74 70/70/70
f 70/70/70 74/74/74 75/75/75
f 71/71/71 76/76/76 69/69/69
f 71/71/71 72/72/72 76/76/76
f 69/69/69 76/76/76 74/74/74
f 72/72/72 73/73/73 77/77/77
f 72/72/72 77/77/77 76/76/76
f 73/73/73 78/78/78 77/77/77
f 74/74/74 79/79/79 75/75/75
f 75/75/75 79/79/79 80/80/80
f 76/76/76 81/81/81 74/74/74
f 76/76/76 77/77/77 81/81/81
f 74/74/74 81/81/81 79/79/79
f 77/77/77 78/78/78 82/82/82
f 77/77/77 82/82/82 81/81/81
f 78/78/78 83/83/83 82/82/82
f 79/79/79 84/84/84 80/80/80
f 80/80/80 84/84/84 85/85/85
f 81/81/81 86/86/86 79/79/79
f 81/81/81 82/82/82 86/86/86
f 79/79/79 86/86/86 84/84/84
f 82/82/82 83/83/83 87/87/87
f 82/82/82 87/87/87 86/86/86
f 83/83/83 88/88/88 87/87/87
f 84/84/84 89/89/89 85/85/85
f 85/85/85 89/89/89 90/90/90
f 86/86/86 91/91/91 84/84/84
f 86/86/86 87/87/87 91/91/91
f 84/84/84 91/91/91 89/89/89
f 87/87/87 88/88/88 92/92/92
f 87/87/87 92/92/92 91/91/91
f 88/88/88 93/93/93 92/92/92
f 89/89/89 94/94/94 90/90/90
f 90/90/90 94/94/94 95/95/95
f 91/91/91 96/96/96 89/89/89
f 91/91/91 92/92/92 96/96/96
f 89/89/89 96/96/96 94/94/94
f 92/92/92 93/93/93 97/97/97
f 92/92/92 97/97/97 96/96/96
f 93/93/93 98/98/98 97/97/97
f 94/94/94 99/99/99 95/95/95
f 95/95/95 99/99/99 100/100/100
f 96/96/96 101/101/101 94/94/94
f 96/96/96 97/97/97 101/101/101
f 94/94/94 101/101/101 99/99/99
f 97/97/97 98/98/98 102/102/102
f 97/97/97 102/102/102 101/101/101
f 98/98/98 103/103/103 102/102/102
f 99/99/99 104/104/104 100/100/100
f 100/100/100 104/104/104 105/105/105
f 101/101/101 106/106/106 99/99/99
f 101/101/101 102/102/102 106/106/106
f 99/99/99 106/106/106 104/104/104
f 102/102/102 103/103/103 107/107/107
f 102/102/102 107/107/107 106/106/106
f 103/103/103 108/108/108 107/107/107
f 104/104/104 109/109/109 105/105/105
f 105/105/105 109/109/109 110/110/110
f 106/106/106 111/111/111 104/104/104
f 106/106/106 107/107/107 111/111/111
f 104/104/104 111/111/111 109/109/109
f 107/107/107 108/108/108 112/112/112
f 107/107/107 112/112/112 111/111/111
f 108/108/108 113/113/113 112/112/112
f 109/109/109 114/114/114 110/110/110
f 110/110/110 114/114/114 115/115/115
f 111/111/111 116/116/116 109/109/109
f 111/111/111 112/112/112 116/116/116
f 109/109/109 116/116/116 114/114/114
f 112/112/112 113/113/113 117/117/117
f 112/112/112 117/117/117 116/116/116
f 113/113/113 118/118/118 117/117/117
f 114/114/114 119/119/119 115/115/115
f 115/115/115 119/119/119 120/120/120
f 116/116/116 121/121/121 114/114/114
f 116/116/116 117/117/117 121/121/121
f 114/114/114 121/121/121 119/119/119
f 117/117/117 118/118/118 122/122/122
f 117/117/117 122/122/122 121/121/121
f 118/118/118 123/123/123 122/122/122
f 119/119/119 124/124/124 120/120/120
f 120/120/120 124/124/124 125/125/125
f 121/121/121 126/126/126 119/119/119
f 121/121/121 122/122/122 126/126/126
f 119/119/119 126/126/126 124/124/124
f 122/122/122 123/123/123 127/127/127
f 122/122/122 127/127/127 126/126/126
f 123/123/123 128/128/128 127/127/127
f 124/124/124 129/129/129 125/125/125
f 125/125/125 129/129/129 130/130/130
f 126/126/126 131/131/131 124/124/124
f 126/126/126 127/127/127 131/131/131
f 124/124/124 131/131/131 129/129/129
f 127/127/127 128/128/128 132/132/132
f 127/127/127 132/132/132 131/131/131
f 128/128/128 133/133/133 132/132/132
f 129/129/129 134/134/134 130/130/130
f 130/130/130 134/134/134 135/135/135
f 131/131/131 136/136/136 129/129/129
f 131/131/131 132/132/132 136/136/136
f 129/129/129 136/136/136 134/134/134
f 132/132/132 133/133/133 137/137/137
f 132/132/132 137/137/137 136/136/136
f 133/133/133 138/138/138 137/137/137
f 134/134/134 139/139/139 135/135/135
f 135/135/135 139/139/139 140/140/140
f 136/136/136 141/141/141 134/134/134
f 136/136/136 137/137/137 141/141/141
f 134/134/134 141/141/141 139/139/139
f 137/137/137 138/138/138 142/142/142
f 137/137/137 142/142/142 141/141/141
f 138/138/138 143/143/143 142/142/142
f 139/139/139 144/144/144 140/140/140
f 140/140/140 144/144/144 145/145/145
f 144/144/144 146/146/146 145/145/145
f 141/141/141 147/147/147 139/139/139
f 141/141/141 142/142/142 147/147/147
f 139/139/139 147/147/147 144/144/144
f 142/142/142 143/143/143 148/148/148
f 142/142/142 148/148/148 147/147/147
f 143/143/143 149/149/149 148/148/148
f 144/144/144 150/150/150 146/146/146
f 147/147/147 150/150/150 144/144/144
f 147/147/147 148/148/148 150/150/150
f 150/150/150 151/151/151 146/146/146
f 148/148/148 149/149/149 152/152/152
f 148/148/148 152/152/152 150/150/150
f 150/150/150 152/152/152 151/151/151
f 149/149/149 153/153/153 152/152/152
f 152/152/152 154/154/154 151/151/151
f 152/152/152 153/153/153 154/154/154
f 153/153/153 155/155/155 154/154/154
