g daodan
v -0.121118158 -0.0394757651 0.922326624
v -0.121118158 0.0397478491 0.922320545
v 0.000779418915 0.000191612242 0.9718678
v -0.121118158 0.0397478491 0.922320545
v -0.0745465085 0.103845671 0.922320545
v 0.000779418915 0.000191612242 0.9718678
v -0.0745465085 0.103845671 0.922320545
v 0.000798034656 0.128325492 0.922320545
v 0.000779418915 0.000191612242 0.9718678
v 0.000798034656 0.128325492 0.922320545
v 0.0761489868 0.103845671 0.922326624
v 0.000779418915 0.000191612242 0.9718678
v 0.0761489868 0.103845671 0.922326624
v 0.122720636 0.0397478491 0.922332883
v 0.000779418915 0.000191612242 0.9718678
v 0.122720636 0.0397478491 0.922332883
v 0.122720636 -0.0394757651 0.922339022
v 0.000779418915 0.000191612242 0.9718678
v 0.122720636 -0.0394757651 0.922339022
v 0.0761550888 -0.103579678 0.922339022
v 0.000779418915 0.000191612242 0.9718678
v 0.0761550888 -0.103579678 0.922339022
v 0.000798034656 -0.128059372 0.922339022
v 0.000779418915 0.000191612242 0.9718678
v 0.000798034656 -0.128059372 0.922339022
v -0.074552916 -0.103579678 0.922332883
v 0.000779418915 0.000191612242 0.9718678
v -0.074552916 -0.103579678 0.922332883
v -0.121118158 -0.0394757651 0.922326624
v 0.000779418915 0.000191612242 0.9718678
v 0.160822749 0.0517681316 0.100612141
v 0.0997442603 0.135835871 0.100612164
v 0.0993606523 0.135303795 0.086228542
v 0.160198063 0.0515639111 0.0862223953
v 0.160822749 0.0517681316 0.100612141
v 0.160198063 0.0515639111 0.0862223953
v 0.160198063 -0.0519476309 0.0862223804
v 0.160822749 -0.0521393754 0.100605756
v 0.0993606523 -0.135681063 0.0862223953
v 0.0997439548 -0.136213154 0.100605756
v 0.160822749 -0.0521393754 0.100605756
v 0.160198063 -0.0519476309 0.0862223804
v 0.000915527344 -0.168320805 0.100605883
v 0.0997439548 -0.136213154 0.100605756
v 0.0993606523 -0.135681063 0.0862223953
v 0.000921936007 -0.167671219 0.0862223953
v -0.0975231901 -0.135687336 0.0862223953
v -0.0979129001 -0.13620697 0.100605883
v 0.000915527344 -0.168320805 0.100605883
v 0.000921936007 -0.167671219 0.0862223953
v -0.0979129001 -0.13620697 0.100605883
v -0.0975231901 -0.135687336 0.0862223953
v -0.158360586 -0.0519476309 0.0862223804
v -0.158985585 -0.0521393754 0.100612007
v -0.158360586 -0.0519476309 0.0862223804
v -0.158360586 0.0515639111 0.0862285197
v -0.158985585 0.0517681316 0.100612029
v -0.158985585 -0.0521393754 0.100612007
v -0.158360586 0.0515639111 0.0862285197
v -0.0975231901 0.135303795 0.086228542
v -0.0979064927 0.135835871 0.100612007
v -0.158985585 0.0517681316 0.100612029
v 0.000921936007 0.167287678 0.086228542
v 0.000915527344 0.167949677 0.100612007
v -0.0979064927 0.135835871 0.100612007
v -0.0975231901 0.135303795 0.086228542
v 0.000915527344 0.167949677 0.100612007
v 0.000921936007 0.167287678 0.086228542
v 0.0993606523 0.135303795 0.086228542
v 0.0997442603 0.135835871 0.100612164
v 0.185073853 0.0596434772 0.078594476
v 0.184114993 0.0593093857 0.0094362637
v 0.184114993 -0.0597302057 0.0094362637
v 0.185073853 -0.0600271598 0.078594476
v 0.184114993 -0.0597302057 0.0094362637
v 0.114140011 -0.156040698 0.0094362637
v 0.114733882 -0.156838715 0.0785944536
v 0.185073853 -0.0600271598 0.078594476
v 0.000921936007 -0.193821371 0.078594476
v 0.114733882 -0.156838715 0.0785944536
v 0.114140011 -0.156040698 0.0094362637
v 0.000928039546 -0.192825392 0.00943614915
v 0.000928039546 -0.192825392 0.00943614915
v -0.11229004 -0.156040698 0.00943614915
v -0.112890318 -0.156844899 0.0785944536
v 0.000921936007 -0.193821371 0.078594476
v -0.183229983 -0.0600271598 0.078594476
v -0.112890318 -0.156844899 0.0785944536
v -0.11229004 -0.156040698 0.00943614915
v -0.182258904 -0.0597302057 0.00943611097
v -0.182258904 0.0593093857 0.00943614915
v -0.183229983 0.0596434772 0.078594476
v -0.183229983 -0.0600271598 0.078594476
v -0.182258904 -0.0597302057 0.00943611097
v -0.182258904 0.0593093857 0.00943614915
v -0.11229004 0.155613929 0.00943611097
v -0.112890318 0.156455263 0.078594476
v -0.183229983 0.0596434772 0.078594476
v 0.000928039546 0.192404583 0.00943611097
v 0.000921936007 0.193437725 0.078594476
v -0.112890318 0.156455263 0.078594476
v -0.11229004 0.155613929 0.00943611097
v 0.114140011 0.155613929 0.0094362637
v 0.114733882 0.156455263 0.078594476
v 0.000921936007 0.193437725 0.078594476
v 0.000928039546 0.192404583 0.00943611097
v 0.184114993 0.0593093857 0.0094362637
v 0.185073853 0.0596434772 0.078594476
v 0.114733882 0.156455263 0.078594476
v 0.114140011 0.155613929 0.0094362637
v 0.115476072 0.157488436 0.107039809
v 0.0997442603 0.135835871 0.100612164
v 0.160822749 0.0517681316 0.100612141
v 0.186273798 0.0600394048 0.107039675
v 0.0993606523 0.135303795 0.086228542
v 0.114733882 0.156455263 0.078594476
v 0.185073853 0.0596434772 0.078594476
v 0.160198063 0.0515639111 0.0862223953
v 0.160198063 0.0515639111 0.0862223953
v 0.185073853 0.0596434772 0.078594476
v 0.185073853 -0.0600271598 0.078594476
v 0.160198063 -0.0519476309 0.0862223804
v 0.186273798 0.0600394048 0.107039675
v 0.160822749 0.0517681316 0.100612141
v 0.160822749 -0.0521393754 0.100605756
v 0.186273798 -0.0604106523 0.107039697
v 0.0993606523 -0.135681063 0.0862223953
v 0.160198063 -0.0519476309 0.0862223804
v 0.185073853 -0.0600271598 0.078594476
v 0.114733882 -0.156838715 0.0785944536
v 0.160822749 -0.0521393754 0.100605756
v 0.0997439548 -0.136213154 0.100605756
v 0.115476072 -0.157859519 0.107039794
v 0.186273798 -0.0604106523 0.107039697
v 0.000921936007 -0.193821371 0.078594476
v 0.000921936007 -0.167671219 0.0862223953
v 0.0993606523 -0.135681063 0.0862223953
v 0.114733882 -0.156838715 0.0785944536
v 0.0997439548 -0.136213154 0.100605756
v 0.000915527344 -0.168320805 0.100605883
v 0.000915527344 -0.19508341 0.107039794
v 0.115476072 -0.157859519 0.107039794
v 0.000921936007 -0.167671219 0.0862223953
v 0.000921936007 -0.193821371 0.078594476
v -0.112890318 -0.156844899 0.0785944536
v -0.0975231901 -0.135687336 0.0862223953
v 0.000915527344 -0.19508341 0.107039794
v 0.000915527344 -0.168320805 0.100605883
v -0.0979129001 -0.13620697 0.100605883
v -0.113645017 -0.157859519 0.107039794
v -0.112890318 -0.156844899 0.0785944536
v -0.183229983 -0.0600271598 0.078594476
v -0.158360586 -0.0519476309 0.0862223804
v -0.0975231901 -0.135687336 0.0862223953
v -0.158985585 -0.0521393754 0.100612007
v -0.184442744 -0.0604106523 0.107039809
v -0.113645017 -0.157859519 0.107039794
v -0.0979129001 -0.13620697 0.100605883
v -0.158360586 0.0515639111 0.0862285197
v -0.158360586 -0.0519476309 0.0862223804
v -0.183229983 -0.0600271598 0.078594476
v -0.183229983 0.0596434772 0.078594476
v -0.158985585 -0.0521393754 0.100612007
v -0.158985585 0.0517681316 0.100612029
v -0.184442744 0.0600394048 0.107039794
v -0.184442744 -0.0604106523 0.107039809
v -0.158360586 0.0515639111 0.0862285197
v -0.183229983 0.0596434772 0.078594476
v -0.112890318 0.156455263 0.078594476
v -0.0975231901 0.135303795 0.086228542
v -0.0979064927 0.135835871 0.100612007
v -0.113638915 0.157488436 0.107039809
v -0.184442744 0.0600394048 0.107039794
v -0.158985585 0.0517681316 0.100612029
v -0.112890318 0.156455263 0.078594476
v 0.000921936007 0.193437725 0.078594476
v 0.000921936007 0.167287678 0.086228542
v -0.0975231901 0.135303795 0.086228542
v -0.113638915 0.157488436 0.107039809
v -0.0979064927 0.135835871 0.100612007
v 0.000915527344 0.167949677 0.100612007
v 0.000915527344 0.194712222 0.107039794
v 0.114733882 0.156455263 0.078594476
v 0.0993606523 0.135303795 0.086228542
v 0.000921936007 0.167287678 0.086228542
v 0.000921936007 0.193437725 0.078594476
v 0.000915527344 0.194712222 0.107039794
v 0.000915527344 0.167949677 0.100612007
v 0.0997442603 0.135835871 0.100612164
v 0.115476072 0.157488436 0.107039809
v 0.229968861 0.0744476691 0.732000589
v 0.186273798 0.0600394048 0.107039675
v 0.186273798 -0.0604106523 0.107039697
v 0.229968861 -0.074447684 0.732000589
v 0.142455444 -0.194903955 0.73199445
v 0.229968861 -0.074447684 0.732000589
v 0.186273798 -0.0604106523 0.107039697
v 0.115476072 -0.157859519 0.107039794
v 0.0008474731 -0.240912408 0.73199445
v 0.142455444 -0.194903955 0.73199445
v 0.115476072 -0.157859519 0.107039794
v 0.000915527344 -0.19508341 0.107039794
v 0.000915527344 -0.19508341 0.107039794
v -0.113645017 -0.157859519 0.107039794
v -0.140754089 -0.194903955 0.732000589
v 0.0008474731 -0.240912408 0.73199445
v -0.184442744 -0.0604106523 0.107039809
v -0.228267506 -0.074447684 0.732000589
v -0.140754089 -0.194903955 0.732000589
v -0.113645017 -0.157859519 0.107039794
v -0.228267506 0.0744476691 0.732000589
v -0.228267506 -0.074447684 0.732000589
v -0.184442744 -0.0604106523 0.107039809
v -0.184442744 0.0600394048 0.107039794
v -0.184442744 0.0600394048 0.107039794
v -0.113638915 0.157488436 0.107039809
v -0.140754089 0.19490391 0.732000589
v -0.228267506 0.0744476691 0.732000589
v 0.0008474731 0.240912542 0.732000589
v -0.140754089 0.19490391 0.732000589
v -0.113638915 0.157488436 0.107039809
v 0.000915527344 0.194712222 0.107039794
v 0.115476072 0.157488436 0.107039809
v 0.142455444 0.19490391 0.732000589
v 0.0008474731 0.240912542 0.732000589
v 0.000915527344 0.194712222 0.107039794
v 0.142455444 0.19490391 0.732000589
v 0.115476072 0.157488436 0.107039809
v 0.186273798 0.0600394048 0.107039675
v 0.229968861 0.0744476691 0.732000589
v -0.11229004 0.155613929 0.00943611097
v 0.114140011 0.155613929 0.0094362637
v 0.000928039546 0.192404583 0.00943611097
v -0.182258904 0.0593093857 0.00943614915
v -0.182258904 -0.0597302057 0.00943611097
v -0.11229004 -0.156040698 0.00943614915
v 0.000928039546 -0.192825392 0.00943614915
v 0.114140011 -0.156040698 0.0094362637
v 0.184114993 -0.0597302057 0.0094362637
v 0.184114993 0.0593093857 0.0094362637
v -0.125993043 0.174618602 0.823454857
v 0.000823059061 0.215826571 0.823454857
v 0.000798034656 0.128325492 0.922320545
v -0.0745465085 0.103845671 0.922320545
v -0.121118158 0.0397478491 0.922320545
v -0.204369202 0.0667454153 0.823448777
v -0.125993043 0.174618602 0.823454857
v -0.0745465085 0.103845671 0.922320545
v -0.121118158 -0.0394757651 0.922326624
v -0.204375297 -0.0666032955 0.823448598
v -0.204369202 0.0667454153 0.823448777
v -0.121118158 0.0397478491 0.922320545
v -0.074552916 -0.103579678 0.922332883
v -0.125999451 -0.174488619 0.823448777
v -0.204375297 -0.0666032955 0.823448598
v -0.121118158 -0.0394757651 0.922326624
v 0.000798034656 -0.128059372 0.922339022
v 0.000823059061 -0.215702772 0.823448777
v -0.125999451 -0.174488619 0.823448777
v -0.074552916 -0.103579678 0.922332883
v 0.000823059061 -0.215702772 0.823448777
v 0.000798034656 -0.128059372 0.922339022
v 0.0761550888 -0.103579678 0.922339022
v 0.127651364 -0.174494818 0.823448777
v 0.122720636 -0.0394757651 0.922339022
v 0.206033319 -0.0666032955 0.823448598
v 0.127651364 -0.174494818 0.823448777
v 0.0761550888 -0.103579678 0.922339022
v 0.122720636 -0.0394757651 0.922339022
v 0.122720636 0.0397478491 0.922332883
v 0.20602721 0.0667454153 0.823448777
v 0.206033319 -0.0666032955 0.823448598
v 0.127644956 0.174624786 0.823454857
v 0.20602721 0.0667454153 0.823448777
v 0.122720636 0.0397478491 0.922332883
v 0.0761489868 0.103845671 0.922326624
v 0.000823059061 0.215826571 0.823454857
v 0.127644956 0.174624786 0.823454857
v 0.0761489868 0.103845671 0.922326624
v 0.000798034656 0.128325492 0.922320545
v 0.206033319 -0.0666032955 0.823448598
v 0.229968861 -0.074447684 0.732000589
v 0.142455444 -0.194903955 0.73199445
v 0.127651364 -0.174494818 0.823448777
v 0.20602721 0.0667454153 0.823448777
v 0.229968861 0.0744476691 0.732000589
v 0.229968861 -0.074447684 0.732000589
v 0.206033319 -0.0666032955 0.823448598
v 0.127644956 0.174624786 0.823454857
v 0.142455444 0.19490391 0.732000589
v 0.229968861 0.0744476691 0.732000589
v 0.20602721 0.0667454153 0.823448777
v 0.000823059061 0.215826571 0.823454857
v 0.0008474731 0.240912542 0.732000589
v 0.142455444 0.19490391 0.732000589
v 0.127644956 0.174624786 0.823454857
v -0.125993043 0.174618602 0.823454857
v -0.140754089 0.19490391 0.732000589
v 0.0008474731 0.240912542 0.732000589
v 0.000823059061 0.215826571 0.823454857
v -0.228267506 0.0744476691 0.732000589
v -0.140754089 0.19490391 0.732000589
v -0.125993043 0.174618602 0.823454857
v -0.204369202 0.0667454153 0.823448777
v -0.228267506 -0.074447684 0.732000589
v -0.228267506 0.0744476691 0.732000589
v -0.204369202 0.0667454153 0.823448777
v -0.204375297 -0.0666032955 0.823448598
v -0.228267506 -0.074447684 0.732000589
v -0.204375297 -0.0666032955 0.823448598
v -0.125999451 -0.174488619 0.823448777
v -0.140754089 -0.194903955 0.732000589
v 0.000823059061 -0.215702772 0.823448777
v 0.0008474731 -0.240912408 0.73199445
v -0.140754089 -0.194903955 0.732000589
v -0.125999451 -0.174488619 0.823448777
v 0.127651364 -0.174494818 0.823448777
v 0.142455444 -0.194903955 0.73199445
v 0.0008474731 -0.240912408 0.73199445
v 0.000823059061 -0.215702772 0.823448777
v 0.22104156 0.225071177 0.199390918
v 0.109543458 0.130975336 0.406482339
v 0.0863134712 0.154205427 0.123340949
v 0.213587031 0.232532039 0.0651390478
v 0.158403933 0.0821147934 0.123341061
v 0.135173649 0.105344884 0.406482339
v 0.229269713 0.216843262 0.199390918
v 0.23673065 0.209388569 0.0651390329
v 0.229269713 0.216843262 0.199390918
v 0.22104156 0.225071177 0.199390918
v 0.213587031 0.232532039 0.0651390478
v 0.23673065 0.209388569 0.0651390329
v 0.229269713 0.216843262 0.199390918
v 0.135173649 0.105344884 0.406482339
v 0.109543458 0.130975336 0.406482339
v 0.22104156 0.225071177 0.199390918
v 0.213587031 0.232532039 0.0651390478
v 0.0863134712 0.154205427 0.123340949
v 0.158403933 0.0821147934 0.123341061
v 0.23673065 0.209388569 0.0651390329
v -0.229269713 0.216842875 0.199391037
v -0.135173947 0.105344579 0.406482339
v -0.158403933 0.0821144879 0.123340949
v -0.23673065 0.209388271 0.0651389211
v -0.0863131732 0.154205084 0.123340949
v -0.109543458 0.130975038 0.406482339
v -0.22104156 0.225070789 0.199391037
v -0.213587031 0.232531726 0.0651389286
v -0.22104156 0.225070789 0.199391037
v -0.229269713 0.216842875 0.199391037
v -0.23673065 0.209388271 0.0651389211
v -0.213587031 0.232531726 0.0651389286
v -0.22104156 0.225070789 0.199391037
v -0.109543458 0.130975038 0.406482339
v -0.135173947 0.105344579 0.406482339
v -0.229269713 0.216842875 0.199391037
v -0.23673065 0.209388271 0.0651389211
v -0.158403933 0.0821144879 0.123340949
v -0.0863131732 0.154205084 0.123340949
v -0.213587031 0.232531726 0.0651389286
v 0.22104156 -0.22468774 0.199390903
v 0.213587031 -0.232148588 0.0651390478
v 0.0863134712 -0.153821975 0.123340949
v 0.109543458 -0.130591884 0.406482339
v 0.158403933 -0.0817313567 0.123341061
v 0.23673065 -0.209005088 0.0651390553
v 0.229269713 -0.216459811 0.199390903
v 0.135173649 -0.104961447 0.406482339
v 0.229269713 -0.216459811 0.199390903
v 0.23673065 -0.209005088 0.0651390553
v 0.213587031 -0.232148588 0.0651390478
v 0.22104156 -0.22468774 0.199390903
v 0.229269713 -0.216459811 0.199390903
v 0.22104156 -0.22468774 0.199390903
v 0.109543458 -0.130591884 0.406482339
v 0.135173649 -0.104961447 0.406482339
v 0.213587031 -0.232148588 0.0651390478
v 0.23673065 -0.209005088 0.0651390553
v 0.158403933 -0.0817313567 0.123341061
v 0.0863134712 -0.153821975 0.123340949
v -0.229269713 -0.216459438 0.199391022
v -0.23673065 -0.209004849 0.065138936
v -0.158403933 -0.0817310661 0.123340949
v -0.135173947 -0.104961164 0.406482339
v -0.0863131732 -0.153821692 0.123340949
v -0.213587031 -0.232148275 0.0651389286
v -0.22104156 -0.224687383 0.199391022
v -0.109543458 -0.130591601 0.406482339
v -0.22104156 -0.224687383 0.199391022
v -0.213587031 -0.232148275 0.0651389286
v -0.23673065 -0.209004849 0.065138936
v -0.229269713 -0.216459438 0.199391022
v -0.22104156 -0.224687383 0.199391022
v -0.229269713 -0.216459438 0.199391022
v -0.135173947 -0.104961164 0.406482339
v -0.109543458 -0.130591601 0.406482339
v -0.23673065 -0.209004849 0.065138936
v -0.213587031 -0.232148275 0.0651389286
v -0.0863131732 -0.153821692 0.123340949
v -0.158403933 -0.0817310661 0.123340949
vt 0.627945185 0.931193113
vt 0.631971359 0.916713178
vt 0.652878284 0.931193113
vt 0.631971359 0.916713178
vt 0.644288063 0.906673014
vt 0.652878284 0.931193113
vt 0.644288063 0.906673014
vt 0.660064101 0.906673014
vt 0.652878284 0.931193113
vt 0.660064101 0.906673014
vt 0.672771215 0.915580451
vt 0.652878284 0.931193113
vt 0.672771215 0.915580451
vt 0.678683281 0.931193113
vt 0.652878284 0.931193113
vt 0.678683281 0.931193113
vt 0.673769236 0.944769323
vt 0.652878284 0.931193113
vt 0.673769236 0.944769323
vt 0.661712408 0.955017984
vt 0.652878284 0.931193113
vt 0.661712408 0.955017984
vt 0.645967007 0.955017984
vt 0.652878284 0.931193113
vt 0.645967007 0.955017984
vt 0.632605672 0.946887553
vt 0.652878284 0.931193113
vt 0.632605672 0.946887553
vt 0.627945185 0.931193113
vt 0.652878284 0.931193113
vt 0.806182623 0.971970201
vt 0.834871888 0.971970201
vt 0.834871888 0.975285411
vt 0.806182623 0.975285411
vt 0.806182623 0.971970201
vt 0.806182623 0.975285411
vt 0.777748227 0.975285411
vt 0.777748227 0.971970201
vt 0.750589132 0.975285411
vt 0.750589132 0.971970201
vt 0.777748227 0.971970201
vt 0.777748227 0.975285411
vt 0.725469947 0.971970201
vt 0.750589132 0.971970201
vt 0.750589132 0.975285411
vt 0.725469947 0.975285411
vt 0.971050262 0.975285411
vt 0.971050262 0.971970201
vt 0.997571945 0.971970201
vt 0.997571945 0.975285411
vt 0.971050262 0.971970201
vt 0.971050262 0.975285411
vt 0.943763614 0.975285411
vt 0.943763614 0.971970201
vt 0.943763614 0.975285411
vt 0.916349411 0.975285411
vt 0.916349411 0.971970201
vt 0.943763614 0.971970201
vt 0.916349411 0.975285411
vt 0.889827847 0.975285411
vt 0.889827847 0.971970201
vt 0.916349411 0.971970201
vt 0.863051057 0.975285411
vt 0.863051057 0.971970201
vt 0.889827847 0.971970201
vt 0.889827847 0.975285411
vt 0.863051057 0.971970201
vt 0.863051057 0.975285411
vt 0.834871888 0.975285411
vt 0.834871888 0.971970201
vt 0.806182623 0.981405854
vt 0.806182623 0.99657923
vt 0.777748227 0.99657923
vt 0.777748227 0.981405854
vt 0.777748227 0.99657923
vt 0.750589132 0.99657923
vt 0.750589132 0.981405854
vt 0.777748227 0.981405854
vt 0.725469947 0.981405854
vt 0.750589132 0.981405854
vt 0.750589132 0.99657923
vt 0.725469947 0.99657923
vt 0.997571945 0.99657923
vt 0.971050262 0.99657923
vt 0.971050262 0.981405854
vt 0.997571945 0.981405854
vt 0.943763614 0.981405854
vt 0.971050262 0.981405854
vt 0.971050262 0.99657923
vt 0.943763614 0.99657923
vt 0.916349411 0.99657923
vt 0.916349411 0.981405854
vt 0.943763614 0.981405854
vt 0.943763614 0.99657923
vt 0.916349411 0.99657923
vt 0.889827847 0.99657923
vt 0.889827847 0.981405854
vt 0.916349411 0.981405854
vt 0.863051057 0.99657923
vt 0.863051057 0.981405854
vt 0.889827847 0.981405854
vt 0.889827847 0.99657923
vt 0.834871888 0.99657923
vt 0.834871888 0.981405854
vt 0.863051057 0.981405854
vt 0.863051057 0.99657923
vt 0.806182623 0.99657923
vt 0.806182623 0.981405854
vt 0.834871888 0.981405854
vt 0.834871888 0.99657923
vt 0.834871888 0.96597743
vt 0.834871888 0.971970201
vt 0.806182623 0.971970201
vt 0.806182623 0.96597743
vt 0.834871888 0.975285411
vt 0.834871888 0.981405854
vt 0.806182623 0.981405854
vt 0.806182623 0.975285411
vt 0.806182623 0.975285411
vt 0.806182623 0.981405854
vt 0.777748227 0.981405854
vt 0.777748227 0.975285411
vt 0.806182623 0.96597743
vt 0.806182623 0.971970201
vt 0.777748227 0.971970201
vt 0.777748227 0.96597743
vt 0.750589132 0.975285411
vt 0.777748227 0.975285411
vt 0.777748227 0.981405854
vt 0.750589132 0.981405854
vt 0.777748227 0.971970201
vt 0.750589132 0.971970201
vt 0.750589132 0.96597743
vt 0.777748227 0.96597743
vt 0.725469947 0.981405854
vt 0.725469947 0.975285411
vt 0.750589132 0.975285411
vt 0.750589132 0.981405854
vt 0.750589132 0.971970201
vt 0.725469947 0.971970201
vt 0.725469947 0.96597743
vt 0.750589132 0.96597743
vt 0.997571945 0.975285411
vt 0.997571945 0.981405854
vt 0.971050262 0.981405854
vt 0.971050262 0.975285411
vt 0.997571945 0.96597743
vt 0.997571945 0.971970201
vt 0.971050262 0.971970201
vt 0.971050262 0.96597743
vt 0.971050262 0.981405854
vt 0.943763614 0.981405854
vt 0.943763614 0.975285411
vt 0.971050262 0.975285411
vt 0.943763614 0.971970201
vt 0.943763614 0.96597743
vt 0.971050262 0.96597743
vt 0.971050262 0.971970201
vt 0.916349411 0.975285411
vt 0.943763614 0.975285411
vt 0.943763614 0.981405854
vt 0.916349411 0.981405854
vt 0.943763614 0.971970201
vt 0.916349411 0.971970201
vt 0.916349411 0.96597743
vt 0.943763614 0.96597743
vt 0.916349411 0.975285411
vt 0.916349411 0.981405854
vt 0.889827847 0.981405854
vt 0.889827847 0.975285411
vt 0.889827847 0.971970201
vt 0.889827847 0.96597743
vt 0.916349411 0.96597743
vt 0.916349411 0.971970201
vt 0.889827847 0.981405854
vt 0.863051057 0.981405854
vt 0.863051057 0.975285411
vt 0.889827847 0.975285411
vt 0.889827847 0.96597743
vt 0.889827847 0.971970201
vt 0.863051057 0.971970201
vt 0.863051057 0.96597743
vt 0.834871888 0.981405854
vt 0.834871888 0.975285411
vt 0.863051057 0.975285411
vt 0.863051057 0.981405854
vt 0.863051057 0.96597743
vt 0.863051057 0.971970201
vt 0.834871888 0.971970201
vt 0.834871888 0.96597743
vt 0.806182623 0.831456423
vt 0.806182623 0.96597743
vt 0.777748227 0.96597743
vt 0.777748227 0.831456423
vt 0.750589132 0.831456423
vt 0.777748227 0.831456423
vt 0.777748227 0.96597743
vt 0.750589132 0.96597743
vt 0.725469947 0.831456423
vt 0.750589132 0.831456423
vt 0.750589132 0.96597743
vt 0.725469947 0.96597743
vt 0.997571945 0.96597743
vt 0.971050262 0.96597743
vt 0.971050262 0.831456423
vt 0.997571945 0.831456423
vt 0.943763614 0.96597743
vt 0.943763614 0.831456423
vt 0.971050262 0.831456423
vt 0.971050262 0.96597743
vt 0.916349411 0.831456423
vt 0.943763614 0.831456423
vt 0.943763614 0.96597743
vt 0.916349411 0.96597743
vt 0.916349411 0.96597743
vt 0.889827847 0.96597743
vt 0.889827847 0.831456423
vt 0.916349411 0.831456423
vt 0.863051057 0.831456423
vt 0.889827847 0.831456423
vt 0.889827847 0.96597743
vt 0.863051057 0.96597743
vt 0.834871888 0.96597743
vt 0.834871888 0.831456423
vt 0.863051057 0.831456423
vt 0.863051057 0.96597743
vt 0.834871888 0.831456423
vt 0.834871888 0.96597743
vt 0.806182623 0.96597743
vt 0.806182623 0.831456423
vt 0.685639024 0.532023489
vt 0.657333732 0.570829272
vt 0.665180326 0.54682678
vt 0.710906148 0.532023489
vt 0.731279016 0.546883762
vt 0.738996863 0.570943415
vt 0.73115015 0.594945908
vt 0.710691571 0.609749138
vt 0.685495257 0.609652162
vt 0.665122151 0.59479183
vt 0.6360147 0.882871568
vt 0.667051077 0.882871568
vt 0.660064101 0.906673014
vt 0.644288063 0.906673014
vt 0.631971359 0.916713178
vt 0.611077547 0.902222574
vt 0.6360147 0.882871568
vt 0.644288063 0.906673014
vt 0.627945185 0.931193113
vt 0.602011919 0.931193113
vt 0.611077547 0.902222574
vt 0.631971359 0.916713178
vt 0.632605672 0.946887553
vt 0.612702608 0.962059081
vt 0.602011919 0.931193113
vt 0.627945185 0.931193113
vt 0.645967007 0.955017984
vt 0.638870716 0.979129136
vt 0.612702608 0.962059081
vt 0.632605672 0.946887553
vt 0.638870716 0.979129136
vt 0.645967007 0.955017984
vt 0.661712408 0.955017984
vt 0.670234442 0.979129136
vt 0.673769236 0.944769323
vt 0.695180893 0.959493697
vt 0.670234442 0.979129136
vt 0.661712408 0.955017984
vt 0.673769236 0.944769323
vt 0.678683281 0.931193113
vt 0.703557014 0.931193113
vt 0.695180893 0.959493697
vt 0.693180561 0.899470389
vt 0.703557014 0.931193113
vt 0.678683281 0.931193113
vt 0.672771215 0.915580451
vt 0.667051077 0.882871568
vt 0.693180561 0.899470389
vt 0.672771215 0.915580451
vt 0.660064101 0.906673014
vt 0.695180893 0.959493697
vt 0.710933208 0.970879018
vt 0.676368475 0.997674227
vt 0.670234442 0.979129136
vt 0.703557014 0.931193113
vt 0.723108768 0.931193113
vt 0.710933208 0.970879018
vt 0.695180893 0.959493697
vt 0.693180561 0.899470389
vt 0.708894014 0.888056874
vt 0.723108768 0.931193113
vt 0.703557014 0.931193113
vt 0.667051077 0.882871568
vt 0.672914028 0.863867879
vt 0.708894014 0.888056874
vt 0.693180561 0.899470389
vt 0.6360147 0.882871568
vt 0.629058242 0.863867879
vt 0.672914028 0.863867879
vt 0.667051077 0.882871568
vt 0.594732523 0.891545355
vt 0.629058242 0.863867879
vt 0.6360147 0.882871568
vt 0.611077547 0.902222574
vt 0.58265841 0.931193113
vt 0.594732523 0.891545355
vt 0.611077547 0.902222574
vt 0.602011919 0.931193113
vt 0.58265841 0.931193113
vt 0.602011919 0.931193113
vt 0.612702608 0.962059081
vt 0.597990513 0.973511636
vt 0.638870716 0.979129136
vt 0.633149147 0.997674227
vt 0.597990513 0.973511636
vt 0.612702608 0.962059081
vt 0.670234442 0.979129136
vt 0.676368475 0.997674227
vt 0.633149147 0.997674227
vt 0.638870716 0.979129136
vt 0.551122665 0.248807386
vt 0.592690706 0.284054935
vt 0.531918764 0.284054935
vt 0.522438526 0.248807386
vt 0.528365135 0.208598435
vt 0.588658094 0.208598435
vt 0.551526546 0.244137123
vt 0.523095608 0.244137123
vt 0.661300302 0.261295229
vt 0.663848281 0.261295229
vt 0.66617465 0.291351587
vt 0.658787251 0.291351587
vt 0.661300302 0.261295229
vt 0.658787251 0.204621807
vt 0.666938782 0.204621807
vt 0.663848281 0.261295229
vt 0.635874033 0.20749861
vt 0.644804955 0.243484095
vt 0.622620583 0.243484095
vt 0.628685713 0.20749861
vt 0.599755764 0.28391403
vt 0.55850172 0.248605683
vt 0.619169235 0.248605683
vt 0.628390789 0.28391403
vt 0.618858576 0.243302166
vt 0.55862999 0.243302166
vt 0.596013308 0.207751572
vt 0.62447834 0.207751572
vt 0.65359664 0.234797612
vt 0.650940418 0.234797612
vt 0.648747206 0.20490028
vt 0.656094313 0.20490028
vt 0.65359664 0.234797612
vt 0.656094313 0.291111141
vt 0.647993326 0.291111141
vt 0.650940418 0.234797612
vt 0.632857561 0.284613192
vt 0.623368979 0.248529986
vt 0.645566463 0.248529986
vt 0.639926195 0.284613192
vt 0.551122665 0.248807386
vt 0.522438526 0.248807386
vt 0.531918764 0.284054935
vt 0.592690706 0.284054935
vt 0.528365135 0.208598435
vt 0.523095608 0.244137123
vt 0.551526546 0.244137123
vt 0.588658094 0.208598435
vt 0.661300302 0.261295229
vt 0.658787251 0.291351587
vt 0.66617465 0.291351587
vt 0.663848281 0.261295229
vt 0.661300302 0.261295229
vt 0.663848281 0.261295229
vt 0.666938782 0.204621807
vt 0.658787251 0.204621807
vt 0.635874033 0.20749861
vt 0.628685713 0.20749861
vt 0.622620583 0.243484095
vt 0.644804955 0.243484095
vt 0.599755764 0.28391403
vt 0.628390789 0.28391403
vt 0.619169235 0.248605683
vt 0.55850172 0.248605683
vt 0.618858576 0.243302166
vt 0.62447834 0.207751572
vt 0.596013308 0.207751572
vt 0.55862999 0.243302166
vt 0.65359664 0.234797612
vt 0.656094313 0.20490028
vt 0.648747206 0.20490028
vt 0.650940418 0.234797612
vt 0.65359664 0.234797612
vt 0.650940418 0.234797612
vt 0.647993326 0.291111141
vt 0.656094313 0.291111141
vt 0.632857561 0.284613192
vt 0.639926195 0.284613192
vt 0.645566463 0.248529986
vt 0.623368979 0.248529986
vn -0.376529306 7.13717309E-05 0.926404774
vn -0.376529247 7.13717236E-05 0.926404774
vn -0.376529276 7.13717236E-05 0.926404774
vn -0.304695934 0.221383408 0.926363707
vn -0.304695964 0.221383423 0.926363707
vn -0.304695934 0.221383408 0.926363707
vn -0.116387561 0.358223021 0.926353216
vn -0.116387546 0.358223021 0.926353216
vn -0.116387561 0.358223051 0.926353216
vn 0.116294347 0.35819754 0.926374793
vn 0.116294362 0.3581976 0.926374793
vn 0.116294362 0.35819757 0.926374793
vn 0.304528534 0.221352175 0.926426232
vn 0.304528564 0.22135219 0.926426232
vn 0.304528534 0.221352205 0.926426232
vn 0.376332998 7.13778645E-05 0.926484466
vn 0.376332998 7.13778645E-05 0.926484466
vn 0.376332998 7.13778645E-05 0.926484466
vn 0.304397404 -0.221116483 0.926525593
vn 0.304397434 -0.221116483 0.926525593
vn 0.304397434 -0.221116513 0.926525593
vn 0.116230845 -0.357799143 0.92653662
vn 0.116230845 -0.357799143 0.92653662
vn 0.116230845 -0.357799143 0.92653662
vn -0.116323583 -0.357824624 0.926515281
vn -0.116323583 -0.357824624 0.926515281
vn -0.116323568 -0.357824624 0.926515281
vn -0.304565281 -0.221146554 0.926463306
vn -0.30456534 -0.221146584 0.926463306
vn -0.30456534 -0.221146598 0.926463306
vn 0.808263659 0.587222695 -0.0433505476
vn 0.808263719 0.587222636 -0.0433505513
vn 0.808263659 0.587222695 -0.0433505513
vn 0.808263659 0.587222755 -0.0433505513
vn 0.999058545 1.34039487E-06 -0.0433812365
vn 0.999058545 1.34039487E-06 -0.0433812365
vn 0.999058545 1.34039499E-06 -0.0433812402
vn 0.999058545 1.34039487E-06 -0.0433812402
vn 0.808271885 -0.587230027 -0.0430981591
vn 0.808271885 -0.587230027 -0.0430981554
vn 0.808271885 -0.587230086 -0.0430981629
vn 0.808271885 -0.587229967 -0.0430981554
vn 0.308738053 -0.950171173 -0.0430759564
vn 0.308738023 -0.950171173 -0.0430759564
vn 0.308737993 -0.950171173 -0.0430759527
vn 0.308738053 -0.950171173 -0.0430759564
vn -0.308731318 -0.950182557 -0.0428710319
vn -0.308731347 -0.950182557 -0.0428710394
vn -0.308731318 -0.950182557 -0.0428710319
vn -0.308731318 -0.950182557 -0.0428710319
vn -0.808289409 -0.58721137 -0.0430231988
vn -0.808289409 -0.58721137 -0.0430231988
vn -0.808289409 -0.58721137 -0.0430231988
vn -0.808289349 -0.58721137 -0.0430231951
vn -0.99905771 1.28913189E-06 -0.0434023663
vn -0.99905771 1.289132E-06 -0.0434023701
vn -0.99905771 1.28913189E-06 -0.0434023663
vn -0.99905771 1.28913189E-06 -0.0434023663
vn -0.808262706 0.58722347 -0.0433601514
vn -0.808262706 0.58722347 -0.0433601476
vn -0.808262646 0.58722347 -0.0433601514
vn -0.808262706 0.58722347 -0.0433601514
vn -0.308730155 0.950148761 -0.0436218046
vn -0.308730215 0.950148761 -0.0436218046
vn -0.308730125 0.950148761 -0.0436217971
vn -0.308730125 0.950148761 -0.0436217971
vn 0.308731616 0.950154483 -0.0434875637
vn 0.308731616 0.950154483 -0.0434875712
vn 0.308731616 0.950154603 -0.0434875637
vn 0.308731616 0.950154483 -0.0434875637
vn 0.999903917 0 -0.0138634332
vn 0.999903917 0 -0.0138634332
vn 0.999903917 0 -0.0138634332
vn 0.999903917 0 -0.0138634322
vn 0.808933556 -0.587739527 -0.0137338936
vn 0.808933556 -0.587739527 -0.0137338936
vn 0.808933556 -0.587739527 -0.0137338936
vn 0.808933556 -0.587739527 -0.0137338936
vn 0.308998823 -0.95096451 -0.0136473598
vn 0.308998823 -0.95096451 -0.0136473598
vn 0.308998823 -0.95096451 -0.0136473598
vn 0.308998823 -0.95096451 -0.0136473598
vn -0.308967143 -0.95097363 -0.0137314014
vn -0.308967143 -0.95097363 -0.0137314023
vn -0.308967143 -0.95097363 -0.0137314033
vn -0.308967143 -0.95097357 -0.0137314023
vn -0.808953881 -0.587708652 -0.0138689782
vn -0.808953881 -0.587708592 -0.013868981
vn -0.808953881 -0.587708592 -0.013868981
vn -0.808953881 -0.587708652 -0.013868981
vn -0.999901414 0 -0.0140398638
vn -0.999901414 0 -0.014039862
vn -0.999901414 0 -0.014039861
vn -0.999901414 0 -0.014039862
vn -0.80893302 0.587729692 -0.0141844572
vn -0.80893302 0.587729692 -0.0141844572
vn -0.80893302 0.587729692 -0.0141844563
vn -0.80893302 0.587729692 -0.0141844563
vn -0.309010267 0.950952113 -0.0142419972
vn -0.309010267 0.950952113 -0.0142419953
vn -0.309010297 0.950952113 -0.0142419981
vn -0.309010267 0.950952113 -0.0142419972
vn 0.309018314 0.950950027 -0.0142004192
vn 0.309018373 0.950950027 -0.0142004211
vn 0.309018373 0.950950027 -0.0142004211
vn 0.309018314 0.950950027 -0.0142004192
vn 0.808921576 0.58774817 -0.0140756406
vn 0.808921576 0.58774811 -0.0140756406
vn 0.808921576 0.58774811 -0.0140756406
vn 0.808921576 0.58774811 -0.0140756406
vn 0.198080972 0.143911317 -0.969563484
vn 0.198080972 0.143911302 -0.969563484
vn 0.198080987 0.143911317 -0.969563484
vn 0.198080972 0.143911302 -0.969563484
vn 0.237314925 0.172385409 0.95601511
vn 0.23731491 0.17238538 0.95601511
vn 0.23731491 0.17238538 0.95601511
vn 0.237314925 0.172385409 0.95601511
vn 0.293166697 0 0.956061304
vn 0.293166727 0 0.956061304
vn 0.293166697 0 0.956061304
vn 0.293166727 0 0.956061304
vn 0.24497208 2.75293405E-05 -0.969530106
vn 0.24497208 2.75293405E-05 -0.969530106
vn 0.24497208 2.75293387E-05 -0.969530106
vn 0.24497208 2.75293387E-05 -0.969530106
vn 0.237193376 -0.172336012 0.956054211
vn 0.237193331 -0.172335997 0.956054211
vn 0.237193361 -0.172335997 0.956054211
vn 0.237193361 -0.172336012 0.956054211
vn 0.198280975 -0.144051999 -0.969501734
vn 0.198280975 -0.144051999 -0.969501734
vn 0.198280975 -0.144051999 -0.969501734
vn 0.198281005 -0.144051999 -0.969501734
vn 0.0906180888 -0.278859586 0.956046939
vn 0.0906180814 -0.278859586 0.956046939
vn 0.0906180888 -0.278859586 0.956046939
vn 0.0906180814 -0.278859586 0.956046939
vn 0.0757343918 -0.233097583 -0.969499826
vn 0.0757343918 -0.233097583 -0.969499826
vn 0.0757343918 -0.233097583 -0.969499826
vn 0.0757343918 -0.233097598 -0.969499826
vn -0.0906039849 -0.278875411 0.956043661
vn -0.09060397 -0.278875411 0.956043661
vn -0.09060397 -0.278875411 0.956043661
vn -0.0906039625 -0.278875411 0.956043661
vn -0.0757320747 -0.233067855 -0.969507098
vn -0.0757320747 -0.233067825 -0.969507098
vn -0.0757320896 -0.233067855 -0.969507098
vn -0.0757320896 -0.23306784 -0.969507098
vn -0.237243593 -0.172360212 0.956037343
vn -0.237243608 -0.172360227 0.956037343
vn -0.237243608 -0.172360227 0.956037343
vn -0.237243593 -0.172360227 0.956037343
vn -0.198175415 -0.143940255 -0.96953994
vn -0.198175415 -0.14394024 -0.96953994
vn -0.198175415 -0.143940225 -0.96953994
vn -0.19817543 -0.143940225 -0.96953994
vn -0.293343365 -2.63085858E-05 0.956007123
vn -0.293343395 -2.63085858E-05 0.956007123
vn -0.293343365 -2.6308584E-05 0.956007123
vn -0.293343395 -2.63085858E-05 0.956007123
vn -0.244811013 0 -0.969570756
vn -0.244811013 0 -0.969570756
vn -0.244811013 0 -0.969570756
vn -0.244811013 0 -0.969570756
vn -0.237430811 0.172501639 0.955965281
vn -0.237430811 0.172501653 0.955965281
vn -0.237430811 0.172501639 0.955965281
vn -0.237430811 0.172501639 0.955965281
vn -0.198063552 0.143905163 -0.969568074
vn -0.198063567 0.143905148 -0.969568074
vn -0.198063537 0.143905133 -0.969568074
vn -0.198063552 0.143905148 -0.969568074
vn -0.0906873867 0.279108196 0.955967784
vn -0.0906873792 0.279108196 0.955967784
vn -0.0906873792 0.279108196 0.955967784
vn -0.0906873718 0.279108196 0.955967784
vn -0.0756682903 0.232858121 -0.969562471
vn -0.0756682903 0.232858092 -0.969562471
vn -0.0756682977 0.232858121 -0.969562471
vn -0.0756682903 0.232858092 -0.969562471
vn 0.0906868353 0.279097676 0.955970943
vn 0.0906868353 0.279097676 0.955970943
vn 0.0906868204 0.279097676 0.955970943
vn 0.0906868204 0.279097676 0.955970943
vn 0.0756642297 0.232857466 -0.969562948
vn 0.0756642297 0.232857451 -0.969562948
vn 0.0756642297 0.232857451 -0.969562948
vn 0.0756642297 0.232857421 -0.969562948
vn 0.997564793 0 -0.0697462186
vn 0.997564793 0 -0.0697462186
vn 0.997564793 0 -0.0697462186
vn 0.997564793 0 -0.0697462186
vn 0.807067096 -0.586343706 -0.0695969537
vn 0.807067096 -0.586343646 -0.0695969537
vn 0.807067096 -0.586343706 -0.0695969537
vn 0.807067096 -0.586343706 -0.0695969462
vn 0.308262676 -0.94875598 -0.0695429817
vn 0.308262706 -0.94875598 -0.0695429891
vn 0.308262706 -0.94875598 -0.0695429891
vn 0.308262706 -0.94875598 -0.0695429891
vn -0.30826965 -0.948748887 -0.0696078837
vn -0.30826968 -0.948748887 -0.0696078911
vn -0.30826965 -0.948748887 -0.0696078762
vn -0.30826965 -0.948748887 -0.0696078762
vn -0.807056785 -0.586338162 -0.0697633103
vn -0.807056785 -0.586338222 -0.0697633028
vn -0.807056785 -0.586338162 -0.0697632954
vn -0.807056785 -0.586338162 -0.0697633028
vn -0.997550309 0 -0.069952257
vn -0.997550309 0 -0.069952257
vn -0.997550309 0 -0.069952257
vn -0.997550309 0 -0.0699522421
vn -0.807026267 0.586338222 -0.0701137036
vn -0.807026327 0.586338162 -0.0701137036
vn -0.807026267 0.586338222 -0.0701136962
vn -0.807026267 0.586338222 -0.0701137036
vn -0.308262944 0.948709726 -0.0701697618
vn -0.308262944 0.948709726 -0.0701697618
vn -0.308262974 0.948709726 -0.0701697692
vn -0.308262944 0.948709726 -0.0701697618
vn 0.308250785 0.948718607 -0.0701030344
vn 0.308250785 0.948718607 -0.0701030344
vn 0.308250755 0.948718607 -0.0701030269
vn 0.308250785 0.948718607 -0.0701030344
vn 0.807046771 0.586330593 -0.0699431077
vn 0.807046771 0.586330473 -0.0699431077
vn 0.807046771 0.586330593 -0.0699431077
vn 0.807046771 0.586330593 -0.0699431077
vn 6.73885381E-07 -8.85710733E-07 -1
vn 2.81983233E-07 3.20456166E-07 -1
vn 6.73885324E-07 -2.0737873E-06 -1
vn 2.81983233E-07 3.20456195E-07 -1
vn 2.81983233E-07 3.20456166E-07 -1
vn 5.2530595E-07 0 -1
vn -0 2.97077776E-07 -1
vn -0 0 -1
vn -0 0 -1
vn -0 0 -1
vn -0.236430958 0.72764039 0.643925369
vn -0.236430973 0.727640331 0.643925428
vn -0.236430973 0.727640331 0.643925428
vn -0.236430973 0.727640331 0.643925428
vn -0.618946671 0.449681044 0.64396584
vn -0.618946731 0.449681014 0.64396584
vn -0.618946671 0.449681014 0.64396584
vn -0.618946731 0.449681014 0.6439659
vn -0.764945447 3.99982564E-05 0.644095123
vn -0.764945447 3.99982528E-05 0.644095004
vn -0.764945447 3.99982564E-05 0.644095063
vn -0.764945447 3.99982564E-05 0.644095063
vn -0.618764818 -0.449476242 0.644283533
vn -0.618764818 -0.449476242 0.644283533
vn -0.618764818 -0.449476212 0.644283533
vn -0.618764699 -0.449476153 0.644283533
vn -0.236320511 -0.727218747 0.644441962
vn -0.236320466 -0.727218747 0.644441962
vn -0.236320511 -0.727218747 0.644441962
vn -0.236320511 -0.727218747 0.644442022
vn 0.236251593 -0.727177918 0.644513428
vn 0.236251563 -0.727177918 0.644513428
vn 0.236251563 -0.727177918 0.644513428
vn 0.236251593 -0.727177918 0.644513428
vn 0.618637443 -0.449414015 0.644449294
vn 0.618637443 -0.449413985 0.644449294
vn 0.618637443 -0.449413985 0.644449294
vn 0.618637443 -0.449414015 0.644449294
vn 0.764773369 3.99981363E-05 0.644299328
vn 0.764773428 3.99981363E-05 0.644299269
vn 0.764773369 3.99981363E-05 0.644299269
vn 0.764773428 3.999814E-05 0.644299269
vn 0.618820131 0.449618399 0.644131124
vn 0.618820131 0.44961834 0.644131124
vn 0.618820131 0.44961831 0.644131124
vn 0.618820131 0.44961834 0.644131064
vn 0.236361772 0.72759968 0.643996775
vn 0.236361802 0.727599621 0.643996775
vn 0.236361802 0.727599621 0.643996775
vn 0.236361787 0.72759968 0.643996775
vn 0.782584786 -0.568556905 0.253582299
vn 0.782584786 -0.568556905 0.253582299
vn 0.782584786 -0.568556905 0.253582239
vn 0.782584786 -0.568556905 0.253582299
vn 0.967403591 2.07817993E-05 0.253239542
vn 0.967403591 2.07817993E-05 0.253239542
vn 0.967403591 2.07817957E-05 0.253239572
vn 0.967403591 2.07817993E-05 0.253239542
vn 0.782733321 0.568682909 0.252840191
vn 0.782733321 0.568682849 0.252840221
vn 0.782733321 0.568682849 0.252840221
vn 0.782733321 0.568682849 0.252840221
vn 0.298980743 0.920249581 0.252489865
vn 0.298980743 0.920249581 0.252489865
vn 0.298980713 0.920249581 0.252489865
vn 0.298980743 0.920249581 0.252489835
vn -0.299022019 0.920269489 0.252368569
vn -0.299022019 0.920269489 0.25236854
vn -0.299022019 0.920269489 0.252368569
vn -0.299022019 0.920269489 0.252368569
vn -0.782810748 0.568733573 0.252486497
vn -0.782810748 0.568733513 0.252486497
vn -0.782810748 0.568733573 0.252486527
vn -0.782810748 0.568733573 0.252486497
vn -0.967515826 2.07842095E-05 0.252810508
vn -0.967515826 2.07842095E-05 0.252810508
vn -0.967515826 2.07842095E-05 0.252810508
vn -0.967515826 2.07842095E-05 0.252810508
vn -0.782663822 -0.568602145 0.2532368
vn -0.782663822 -0.568602204 0.2532368
vn -0.782663822 -0.568602145 0.253236771
vn -0.782663882 -0.568602145 0.253236771
vn -0.298932552 -0.919970632 0.253561407
vn -0.298932552 -0.919970632 0.253561407
vn -0.298932552 -0.919970632 0.253561407
vn -0.298932552 -0.919970632 0.253561407
vn 0.298897088 -0.919950902 0.253674597
vn 0.298897088 -0.919950962 0.253674597
vn 0.298897117 -0.919950902 0.253674597
vn 0.298897088 -0.919950902 0.253674597
vn -0.506901622 0.856158376 0.10021808
vn -0.506901562 0.856158376 0.100218087
vn -0.506901622 0.856158376 0.10021808
vn -0.506901622 0.856158257 0.100218073
vn 0.856158614 -0.506900907 0.100218929
vn 0.856158614 -0.506900907 0.100218929
vn 0.856158733 -0.506900966 0.100218937
vn 0.856158614 -0.506900907 0.100218929
vn 0.707102418 0.707111061 3.31512783E-05
vn 0.707102478 0.707111061 3.3151282E-05
vn 0.707102478 0.707111061 3.3151282E-05
vn 0.707102537 0.707111001 3.3151282E-05
vn 0.578741968 0.578741312 0.574557424
vn 0.578741968 0.578741312 0.574557424
vn 0.578741968 0.578741312 0.574557424
vn 0.578741968 0.578741312 0.574557424
vn -0.262804687 -0.262805641 -0.928367794
vn -0.262804687 -0.262805611 -0.928367794
vn -0.262804687 -0.262805611 -0.928367794
vn -0.262804687 -0.262805641 -0.928367794
vn -0.856158733 -0.506900966 0.100218147
vn -0.856158733 -0.506900966 0.100218147
vn -0.856158733 -0.506900966 0.100218147
vn -0.856158733 -0.506900966 0.100218147
vn 0.506900668 0.856158793 0.100218423
vn 0.506900668 0.856158793 0.10021843
vn 0.506900728 0.856158793 0.100218423
vn 0.506900787 0.856158793 0.100218423
vn -0.707102478 0.707111061 3.35542645E-05
vn -0.707102478 0.707111061 3.35542682E-05
vn -0.707102478 0.707111061 3.35542645E-05
vn -0.707102418 0.707111061 3.35542609E-05
vn -0.578739464 0.578743994 0.574557245
vn -0.578739464 0.578743994 0.574557185
vn -0.578739464 0.578743994 0.574557304
vn -0.578739464 0.578743994 0.574557185
vn 0.262804896 -0.262805581 -0.928367794
vn 0.262804896 -0.262805611 -0.928367794
vn 0.262804896 -0.262805581 -0.928367794
vn 0.262804896 -0.262805611 -0.928367794
vn -0.506901622 -0.856158376 0.10021802
vn -0.506901681 -0.856158376 0.100218035
vn -0.506901622 -0.856158376 0.100218035
vn -0.506901681 -0.856158376 0.100218043
vn 0.856158555 0.506901026 0.100218996
vn 0.856158555 0.506901026 0.100218982
vn 0.856158555 0.506901026 0.100218982
vn 0.856158555 0.506901026 0.100218982
vn 0.707103074 -0.707110465 3.3024673E-05
vn 0.707103014 -0.707110465 3.3024673E-05
vn 0.707103074 -0.707110465 3.30246803E-05
vn 0.707103014 -0.707110465 3.3024673E-05
vn 0.578742027 -0.578741372 0.574557364
vn 0.578742027 -0.578741372 0.574557364
vn 0.578742027 -0.578741372 0.574557364
vn 0.578742027 -0.578741372 0.574557364
vn -0.262804627 0.26280576 -0.928367794
vn -0.262804568 0.26280573 -0.928367794
vn -0.262804627 0.26280573 -0.928367794
vn -0.262804598 0.26280573 -0.928367794
vn -0.856158733 0.506901085 0.100218117
vn -0.856158733 0.506901085 0.100218125
vn -0.856158614 0.506901085 0.100218117
vn -0.856158733 0.506901085 0.100218132
vn 0.506900609 -0.856158912 0.100218438
vn 0.506900609 -0.856158912 0.10021843
vn 0.506900668 -0.856158912 0.100218438
vn 0.506900609 -0.856158912 0.100218438
vn -0.707102239 -0.707111299 3.35152508E-05
vn -0.707102239 -0.707111299 3.35152508E-05
vn -0.707102239 -0.707111299 3.35152508E-05
vn -0.707102239 -0.707111299 3.35152508E-05
vn -0.578739464 -0.578744113 0.574557245
vn -0.578739464 -0.578744113 0.574557245
vn -0.578739464 -0.578744054 0.574557185
vn -0.578739464 -0.578744113 0.574557245
vn 0.262804687 0.2628057 -0.928367794
vn 0.262804657 0.2628057 -0.928367794
vn 0.262804687 0.2628057 -0.928367794
vn 0.262804717 0.2628057 -0.928367794
g daodan_0
f 3/3/3 2/2/2 1/1/1
f 6/6/6 5/5/5 4/4/4
f 9/9/9 8/8/8 7/7/7
f 12/12/12 11/11/11 10/10/10
f 15/15/15 14/14/14 13/13/13
f 18/18/18 17/17/17 16/16/16
f 21/21/21 20/20/20 19/19/19
f 24/24/24 23/23/23 22/22/22
f 27/27/27 26/26/26 25/25/25
f 30/30/30 29/29/29 28/28/28
f 33/33/33 32/32/32 31/31/31
f 34/34/34 33/33/33 31/31/31
f 37/37/37 36/36/36 35/35/35
f 38/38/38 37/37/37 35/35/35
f 41/41/41 40/40/40 39/39/39
f 42/42/42 41/41/41 39/39/39
f 45/45/45 44/44/44 43/43/43
f 46/46/46 45/45/45 43/43/43
f 49/49/49 48/48/48 47/47/47
f 50/50/50 49/49/49 47/47/47
f 53/53/53 52/52/52 51/51/51
f 54/54/54 53/53/53 51/51/51
f 57/57/57 56/56/56 55/55/55
f 58/58/58 57/57/57 55/55/55
f 61/61/61 60/60/60 59/59/59
f 62/62/62 61/61/61 59/59/59
f 65/65/65 64/64/64 63/63/63
f 66/66/66 65/65/65 63/63/63
f 69/69/69 68/68/68 67/67/67
f 70/70/70 69/69/69 67/67/67
f 73/73/73 72/72/72 71/71/71
f 74/74/74 73/73/73 71/71/71
f 77/77/77 76/76/76 75/75/75
f 78/78/78 77/77/77 75/75/75
f 81/81/81 80/80/80 79/79/79
f 82/82/82 81/81/81 79/79/79
f 85/85/85 84/84/84 83/83/83
f 86/86/86 85/85/85 83/83/83
f 89/89/89 88/88/88 87/87/87
f 90/90/90 89/89/89 87/87/87
f 93/93/93 92/92/92 91/91/91
f 94/94/94 93/93/93 91/91/91
f 97/97/97 96/96/96 95/95/95
f 98/98/98 97/97/97 95/95/95
f 101/101/101 100/100/100 99/99/99
f 102/102/102 101/101/101 99/99/99
f 105/105/105 104/104/104 103/103/103
f 106/106/106 105/105/105 103/103/103
f 109/109/109 108/108/108 107/107/107
f 110/110/110 109/109/109 107/107/107
f 113/113/113 112/112/112 111/111/111
f 114/114/114 113/113/113 111/111/111
f 117/117/117 116/116/116 115/115/115
f 118/118/118 117/117/117 115/115/115
f 121/121/121 120/120/120 119/119/119
f 122/122/122 121/121/121 119/119/119
f 125/125/125 124/124/124 123/123/123
f 126/126/126 125/125/125 123/123/123
f 129/129/129 128/128/128 127/127/127
f 130/130/130 129/129/129 127/127/127
f 133/133/133 132/132/132 131/131/131
f 134/134/134 133/133/133 131/131/131
f 137/137/137 136/136/136 135/135/135
f 138/138/138 137/137/137 135/135/135
f 141/141/141 140/140/140 139/139/139
f 142/142/142 141/141/141 139/139/139
f 145/145/145 144/144/144 143/143/143
f 146/146/146 145/145/145 143/143/143
f 149/149/149 148/148/148 147/147/147
f 150/150/150 149/149/149 147/147/147
f 153/153/153 152/152/152 151/151/151
f 154/154/154 153/153/153 151/151/151
f 157/157/157 156/156/156 155/155/155
f 158/158/158 157/157/157 155/155/155
f 161/161/161 160/160/160 159/159/159
f 162/162/162 161/161/161 159/159/159
f 165/165/165 164/164/164 163/163/163
f 166/166/166 165/165/165 163/163/163
f 169/169/169 168/168/168 167/167/167
f 170/170/170 169/169/169 167/167/167
f 173/173/173 172/172/172 171/171/171
f 174/174/174 173/173/173 171/171/171
f 177/177/177 176/176/176 175/175/175
f 178/178/178 177/177/177 175/175/175
f 181/181/181 180/180/180 179/179/179
f 182/182/182 181/181/181 179/179/179
f 185/185/185 184/184/184 183/183/183
f 186/186/186 185/185/185 183/183/183
f 189/189/189 188/188/188 187/187/187
f 190/190/190 189/189/189 187/187/187
f 193/193/193 192/192/192 191/191/191
f 194/194/194 193/193/193 191/191/191
f 197/197/197 196/196/196 195/195/195
f 198/198/198 197/197/197 195/195/195
f 201/201/201 200/200/200 199/199/199
f 202/202/202 201/201/201 199/199/199
f 205/205/205 204/204/204 203/203/203
f 206/206/206 205/205/205 203/203/203
f 209/209/209 208/208/208 207/207/207
f 210/210/210 209/209/209 207/207/207
f 213/213/213 212/212/212 211/211/211
f 214/214/214 213/213/213 211/211/211
f 217/217/217 216/216/216 215/215/215
f 218/218/218 217/217/217 215/215/215
f 221/221/221 220/220/220 219/219/219
f 222/222/222 221/221/221 219/219/219
f 225/225/225 224/224/224 223/223/223
f 226/226/226 225/225/225 223/223/223
f 229/229/229 228/228/228 227/227/227
f 230/230/230 229/229/229 227/227/227
f 233/233/233 232/232/232 231/231/231
f 231/231/231 232/232/232 234/234/234
f 232/232/232 235/235/235 234/234/234
f 236/236/236 235/235/235 232/232/232
f 237/237/237 236/236/236 232/232/232
f 238/238/238 237/237/237 232/232/232
f 239/239/239 238/238/238 232/232/232
f 240/240/240 239/239/239 232/232/232
f 243/243/243 242/242/242 241/241/241
f 244/244/244 243/243/243 241/241/241
f 247/247/247 246/246/246 245/245/245
f 248/248/248 247/247/247 245/245/245
f 251/251/251 250/250/250 249/249/249
f 252/252/252 251/251/251 249/249/249
f 255/255/255 254/254/254 253/253/253
f 256/256/256 255/255/255 253/253/253
f 259/259/259 258/258/258 257/257/257
f 260/260/260 259/259/259 257/257/257
f 263/263/263 262/262/262 261/261/261
f 264/264/264 263/263/263 261/261/261
f 267/267/267 266/266/266 265/265/265
f 268/268/268 267/267/267 265/265/265
f 271/271/271 270/270/270 269/269/269
f 272/272/272 271/271/271 269/269/269
f 275/275/275 274/274/274 273/273/273
f 276/276/276 275/275/275 273/273/273
f 279/279/279 278/278/278 277/277/277
f 280/280/280 279/279/279 277/277/277
f 283/283/283 282/282/282 281/281/281
f 284/284/284 283/283/283 281/281/281
f 287/287/287 286/286/286 285/285/285
f 288/288/288 287/287/287 285/285/285
f 291/291/291 290/290/290 289/289/289
f 292/292/292 291/291/291 289/289/289
f 295/295/295 294/294/294 293/293/293
f 296/296/296 295/295/295 293/293/293
f 299/299/299 298/298/298 297/297/297
f 300/300/300 299/299/299 297/297/297
f 303/303/303 302/302/302 301/301/301
f 304/304/304 303/303/303 301/301/301
f 307/307/307 306/306/306 305/305/305
f 308/308/308 307/307/307 305/305/305
f 311/311/311 310/310/310 309/309/309
f 312/312/312 311/311/311 309/309/309
f 315/315/315 314/314/314 313/313/313
f 316/316/316 315/315/315 313/313/313
f 319/319/319 318/318/318 317/317/317
f 320/320/320 319/319/319 317/317/317
f 323/323/323 322/322/322 321/321/321
f 324/324/324 323/323/323 321/321/321
f 327/327/327 326/326/326 325/325/325
f 328/328/328 327/327/327 325/325/325
f 331/331/331 330/330/330 329/329/329
f 332/332/332 331/331/331 329/329/329
f 335/335/335 334/334/334 333/333/333
f 336/336/336 335/335/335 333/333/333
f 339/339/339 338/338/338 337/337/337
f 340/340/340 339/339/339 337/337/337
f 343/343/343 342/342/342 341/341/341
f 344/344/344 343/343/343 341/341/341
f 347/347/347 346/346/346 345/345/345
f 348/348/348 347/347/347 345/345/345
f 351/351/351 350/350/350 349/349/349
f 352/352/352 351/351/351 349/349/349
f 355/355/355 354/354/354 353/353/353
f 356/356/356 355/355/355 353/353/353
f 359/359/359 358/358/358 357/357/357
f 360/360/360 359/359/359 357/357/357
f 363/363/363 362/362/362 361/361/361
f 364/364/364 363/363/363 361/361/361
f 367/367/367 366/366/366 365/365/365
f 368/368/368 367/367/367 365/365/365
f 371/371/371 370/370/370 369/369/369
f 372/372/372 371/371/371 369/369/369
f 375/375/375 374/374/374 373/373/373
f 376/376/376 375/375/375 373/373/373
f 379/379/379 378/378/378 377/377/377
f 380/380/380 379/379/379 377/377/377
f 383/383/383 382/382/382 381/381/381
f 384/384/384 383/383/383 381/381/381
f 387/387/387 386/386/386 385/385/385
f 388/388/388 387/387/387 385/385/385
f 391/391/391 390/390/390 389/389/389
f 392/392/392 391/391/391 389/389/389
f 395/395/395 394/394/394 393/393/393
f 396/396/396 395/395/395 393/393/393
f 399/399/399 398/398/398 397/397/397
f 400/400/400 399/399/399 397/397/397
