g fx_015
v 0.149306029 0.942682385 0
v 0.00227691652 0.765384734 3.83502874E-09
v -1.52587887E-07 0.954433024 0
v 0.12227951 0.755940318 3.83502829E-09
v 0.294935971 0.907719791 0
v 0.00455406168 0.576336741 7.67005748E-09
v 0.239327312 0.727839708 3.83502829E-09
v 0.433303446 0.850405931 0
v 0.0952530652 0.56919837 7.67005659E-09
v 0.00683120731 0.387288272 1.15050858E-08
v 0.350538105 0.681774676 3.83502829E-09
v 0.561001658 0.772152483 0
v 0.183718711 0.547959685 7.67005659E-09
v 0.0682263151 0.382456124 1.15050858E-08
v 0.00910835247 0.198239967 1.5340115E-08
v 0.453173578 0.618879735 3.83502874E-09
v 0.674886107 0.674886107 0
v 0.267772824 0.513143361 7.67005748E-09
v 0.128110036 0.368079603 1.15050858E-08
v 0.0411998741 0.19571434 1.53401132E-08
v 0.0113854976 0.00919174217 1.91751433E-08
v 0.014173355 0.00897224434 1.91751433E-08
v 0.0725013688 0.188199461 1.53401132E-08
v 0.0168927759 0.00831947289 1.91751433E-08
v 0.544706345 0.540703177 3.83502829E-09
v 0.772152483 0.561001658 0
v 0.345345378 0.465606749 7.67005748E-09
v 0.185007095 0.344511926 1.15050858E-08
v 0.10224174 0.175880581 1.53401132E-08
v 0.0194763951 0.00724929804 1.91751433E-08
v 0.622882903 0.44917044 3.83502874E-09
v 0.850405931 0.433303446 0
v 0.414526582 0.406520456 7.67005659E-09
v 0.237517163 0.312333763 1.15050858E-08
v 0.129688948 0.159060895 1.5340115E-08
v 0.0218607318 0.00578803988 1.91751433E-08
v 0.685777783 0.346534938 3.83502829E-09
v 0.907719791 0.294935971 0
v 0.473612875 0.337339252 7.67005748E-09
v 0.284346759 0.272337556 1.15050858E-08
v 0.154167101 0.138154745 1.53401132E-08
v 0.0239871982 0.00397193898 1.91751433E-08
v 0.731842875 0.235324174 3.83502829E-09
v 0.942682385 0.149306253 0
v 0.521149516 0.259766549 7.67005748E-09
v 0.324343115 0.225507811 1.15050858E-08
v 0.175073236 0.1136766 1.5340115E-08
v 0.0258034505 0.00184532162 1.91751433E-08
v 0.759943426 0.118276745 3.83502874E-09
v 0.954433024 0 0
v 0.55596596 0.175712511 7.67005659E-09
v 0.35652107 0.172997892 1.15050858E-08
v 0.191892922 0.0862295479 1.53401132E-08
v 0.0272647087 -0.000539016735 1.91751433E-08
v 0.769387901 -0.00172592164 3.83502829E-09
v 0.942682564 -0.149304271 0
v 0.577204525 0.0872470066 7.67005748E-09
v 0.380088717 0.116100766 1.15050858E-08
v 0.204211801 0.056489028 1.53401132E-08
v 0.028334884 -0.00312271109 1.91751433E-08
v 0.759943426 -0.12172699 3.83502829E-09
v 0.907720268 -0.294934303 0
v 0.584342539 -0.00345191942 7.67005659E-09
v 0.394465566 0.0562173463 1.15050858E-08
v 0.211726531 0.0251876824 1.5340115E-08
v 0.0289877318 -0.00584197976 1.91751433E-08
v 0.731843174 -0.238774866 3.83502829E-09
v 0.850406885 -0.433301926 0
v 0.577204645 -0.0941497013 7.67005659E-09
v 0.399297565 -0.00517791742 1.15050858E-08
v 0.214252159 -0.0069039152 1.53401132E-08
v 0.0292070769 -0.00862991344 1.91751433E-08
v 0.685778439 -0.349985659 3.83502874E-09
v 0.772153676 -0.561000228 0
v 0.555966079 -0.182615355 7.67005659E-09
v 0.394465566 -0.0665724203 1.15050858E-08
v 0.21172668 -0.0389950536 1.53401132E-08
v 0.0289877318 -0.0114177698 1.91751433E-08
v 0.622883677 -0.452621222 3.83502874E-09
v 0.6748873 -0.674884796 0
v 0.521149993 -0.266669452 7.67005659E-09
v 0.380089015 -0.126455918 1.15050858E-08
v 0.204211876 -0.0702964738 1.53401132E-08
v 0.028334884 -0.014137039 1.91751433E-08
v 0.544707239 -0.544154167 3.83502829E-09
v 0.561003029 -0.772151649 0
v 0.47361365 -0.344242156 7.67005748E-09
v 0.356521517 -0.183353111 1.15050858E-08
v 0.191892996 -0.100037001 1.5340115E-08
v 0.0272645559 -0.0167207327 1.91751433E-08
v 0.453174651 -0.622330844 3.83502874E-09
v 0.433304816 -0.850405276 0
v 0.414527357 -0.413423538 7.67005748E-09
v 0.324343562 -0.235863179 1.15050858E-08
v 0.175073549 -0.127484128 1.5340115E-08
v 0.0258035269 -0.0191051476 1.91751433E-08
v 0.350539148 -0.685225964 3.83502874E-09
v 0.294937581 -0.907719254 0
v 0.345346153 -0.47251007 7.67005659E-09
v 0.284347296 -0.282692939 1.15050858E-08
v 0.154167324 -0.15196228 1.53401132E-08
v 0.0239871982 -0.0212316886 1.91751433E-08
v 0.239328682 -0.731291175 3.83502829E-09
v 0.149307624 -0.942682087 0
v 0.267773509 -0.52004683 7.67005659E-09
v 0.237517625 -0.322689325 1.15050858E-08
v 0.129689246 -0.17286858 1.5340115E-08
v 0.0218608081 -0.0230478663 1.91751433E-08
v 0.122280881 -0.759392083 3.83502874E-09
v 1.37329096E-06 -0.954432964 0
v 0.183719635 -0.554863274 7.67005659E-09
v 0.185007781 -0.354867548 1.15050858E-08
v 0.102242127 -0.189688265 1.5340115E-08
v 0.0194763951 -0.0245089717 1.91751433E-08
v 0.00227813725 -0.768836677 3.83502829E-09
v -0.149304882 -0.942682564 0
v 0.0952539816 -0.576102138 7.67005659E-09
v 0.128110498 -0.378435194 1.15050858E-08
v 0.0725017563 -0.202007219 1.53401132E-08
v 0.0168926232 -0.0255792234 1.91751433E-08
v -0.117724299 -0.75939244 3.83502829E-09
v -0.294934839 -0.907720089 0
v 0.00455497717 -0.583240449 7.67005659E-09
v 0.0682270825 -0.392812043 1.15050858E-08
v 0.0412003323 -0.209522083 1.5340115E-08
v 0.0141734313 -0.0262320712 1.91751433E-08
v -0.234772176 -0.73129195 3.83502874E-09
v -0.433302522 -0.850406528 0
v -0.0861438736 -0.576102376 7.67005659E-09
v 0.00683174096 -0.397644103 1.15050858E-08
v 0.00910865795 -0.2120478 1.53401132E-08
v 0.0113854976 -0.0264514908 1.91751433E-08
v -0.345983088 -0.685227036 3.83502829E-09
v -0.561000705 -0.772153139 0
v -0.174609527 -0.55486387 7.67005659E-09
v -0.0545633696 -0.392812222 1.15050858E-08
v -0.0229828637 -0.209522083 1.53401132E-08
v 0.00859756488 -0.0262320712 1.91751433E-08
v -0.448618501 -0.622332096 3.83502829E-09
v -0.674885213 -0.674886763 0
v -0.258663625 -0.520047605 7.67005659E-09
v -0.114446945 -0.378435552 1.15050858E-08
v -0.0542842075 -0.202007443 1.5340115E-08
v 0.00587829575 -0.0255793761 1.91751433E-08
v -0.540151477 -0.544155777 3.83502829E-09
v -0.772151828 -0.561002553 0
v -0.336236417 -0.472511083 7.67005659E-09
v -0.171344295 -0.354868054 1.15050849E-08
v -0.0840248093 -0.189688638 1.53401132E-08
v 0.00329467771 -0.0245092008 1.91751433E-08
v -0.618328035 -0.452623039 3.83502829E-09
v -0.850405633 -0.433304369 0
v -0.40541777 -0.41342479 7.67005659E-09
v -0.223854214 -0.32269001 1.15050858E-08
v -0.111472011 -0.172868952 1.53401132E-08
v 0.000910186733 -0.0230478663 1.91751433E-08
v -0.681223214 -0.349987626 3.83502829E-09
v -0.907719493 -0.294936836 0
v -0.464504182 -0.344243705 7.67005659E-09
v -0.270683885 -0.282693774 1.15050875E-08
v -0.135950089 -0.151962727 1.53401132E-08
v -0.00121643068 -0.0212317649 1.91751433E-08
v -0.727288365 -0.238776848 3.83502874E-09
v -0.942682147 -0.149307013 0
v -0.512040913 -0.266670913 7.67005748E-09
v -0.31068024 -0.235864103 1.15050858E-08
v -0.156856388 -0.127484664 1.53401132E-08
v -0.00303245545 -0.0191051476 1.91751397E-08
v -0.755389094 -0.121729203 3.83502829E-09
v -0.954432964 -7.62939408E-07 0
v -0.546857238 -0.182616949 7.67005659E-09
v -0.342858464 -0.18335411 1.15050875E-08
v -0.173676074 -0.100037456 1.53401132E-08
v -0.00449371338 -0.0167207327 1.91751433E-08
v -0.76483357 -0.00172653189 3.83502829E-09
v -0.942682564 0.149305493 0
v -0.568096101 -0.0941513032 7.67005659E-09
v -0.366425991 -0.126456901 1.15050858E-08
v -0.185994938 -0.0702970102 1.5340115E-08
v -0.00556381233 -0.0141369626 1.91751433E-08
v -0.755389392 0.118275903 3.83502829E-09
v -0.907719851 0.294935435 0
v -0.575234294 -0.00345237716 7.67005659E-09
v -0.380802959 -0.0665735602 1.15050858E-08
v -0.193509817 -0.0389956646 1.53401132E-08
v -0.00621681195 -0.0114179226 1.91751397E-08
v -0.727288723 0.235323861 3.83502829E-09
v -0.850406349 0.433302999 0
v -0.56809628 0.0872465521 7.67005659E-09
v -0.385634899 -0.0051782988 1.15050858E-08
v -0.196035534 -0.00690414431 1.53401132E-08
v -0.00643615704 -0.00862991344 1.91751433E-08
v -0.68122375 0.346534491 3.83502829E-09
v -0.772152781 0.561001182 0
v -0.546857536 0.175712049 7.67005659E-09
v -0.380803049 0.0562170409 1.15050858E-08
v -0.193509892 0.0251875296 1.53401132E-08
v -0.00621673558 -0.00584197976 1.91751433E-08
v -0.61832875 0.449170142 3.83502829E-09
v -0.674886286 0.674885631 0
v -0.512041211 0.25976631 7.67005659E-09
v -0.366426259 0.116100617 1.15050849E-08
v -0.185995102 0.0564889498 1.53401132E-08
v -0.00556388823 -0.00312271109 1.91751433E-08
v -0.540152371 0.540703058 3.83502874E-09
v -0.561001956 0.772152305 0
v -0.464504778 0.337338924 7.67005659E-09
v -0.342858791 0.172997668 1.15050849E-08
v -0.173676223 0.0862293988 1.53401132E-08
v -0.00449371338 -0.000539169298 1.91751433E-08
v -0.448619515 0.618879437 3.83502829E-09
v -0.433303833 0.850405812 0
v -0.405418396 0.406520158 7.67005659E-09
v -0.310680687 0.225507498 1.15050849E-08
v -0.156856686 0.1136766 1.53401132E-08
v -0.00303253159 0.00184532162 1.91751433E-08
v -0.345984161 0.681774378 3.83502874E-09
v -0.294936299 0.907719791 0
v -0.336237133 0.4656066 7.67005659E-09
v -0.270684361 0.272337556 1.15050875E-08
v -0.135950312 0.138154745 1.5340115E-08
v -0.00121643068 0.00397193898 1.91751433E-08
v -0.234773248 0.727839708 3.83502829E-09
v -0.149306402 0.942682385 0
v -0.258664399 0.513143241 7.67005659E-09
v -0.223854676 0.312333763 1.15050849E-08
v -0.111472242 0.159060895 1.53401132E-08
v 0.000910110481 0.00578803988 1.91751433E-08
v -0.117725678 0.755940318 3.83502829E-09
v -1.52587887E-07 0.954433024 0
v 0.00227691652 0.765384734 3.83502874E-09
v -0.174610436 0.547959685 7.67005748E-09
v -0.171344757 0.344511777 1.15050858E-08
v -0.0840250403 0.175880581 1.5340115E-08
v 0.00329467771 0.00724929804 1.91751433E-08
v -0.0861448646 0.56919837 7.67005659E-09
v 0.00455406168 0.576336741 7.67005748E-09
v -0.114447556 0.368079603 1.15050858E-08
v -0.0542845912 0.188199461 1.53401132E-08
v 0.00587821938 0.00831939653 1.91751433E-08
v -0.0545639805 0.382456124 1.15050858E-08
v 0.00683120731 0.387288272 1.15050858E-08
v -0.0229832456 0.19571434 1.53401132E-08
v 0.00859756488 0.00897239707 1.91751433E-08
v 0.00910835247 0.198239967 1.5340115E-08
v 0.0113854976 0.00919174217 1.91751433E-08
vt 0.975000083 0
vt 1 0.199999988
vt 1 0
vt 0.975000083 0.199999988
vt 0.949999988 0
vt 1 0.400000006
vt 0.949999988 0.199999988
vt 0.924999952 0
vt 0.974999964 0.400000006
vt 1 0.600000024
vt 0.924999952 0.199999988
vt 0.900000036 0
vt 0.949999988 0.400000006
vt 0.975000083 0.600000024
vt 1 0.800000012
vt 0.900000036 0.199999988
vt 0.875 0
vt 0.924999952 0.400000006
vt 0.949999988 0.600000024
vt 0.975000083 0.800000012
vt 1 1
vt 0.975000083 1
vt 0.949999988 0.800000012
vt 0.949999988 1
vt 0.875 0.199999988
vt 0.850000024 0
vt 0.900000036 0.400000006
vt 0.924999952 0.600000024
vt 0.924999952 0.800000012
vt 0.924999952 1
vt 0.850000024 0.199999988
vt 0.824999988 0
vt 0.875 0.400000006
vt 0.900000036 0.600000024
vt 0.900000036 0.800000012
vt 0.900000036 1
vt 0.824999988 0.199999988
vt 0.800000012 0
vt 0.850000024 0.400000006
vt 0.875 0.600000024
vt 0.875 0.800000012
vt 0.875 1
vt 0.800000012 0.199999988
vt 0.774999976 0
vt 0.824999988 0.400000006
vt 0.850000024 0.600000024
vt 0.850000024 0.800000012
vt 0.850000024 1
vt 0.774999976 0.199999988
vt 0.75 0
vt 0.800000012 0.400000006
vt 0.824999988 0.600000024
vt 0.824999988 0.800000012
vt 0.824999988 1
vt 0.75 0.199999988
vt 0.725000322 0
vt 0.774999976 0.400000006
vt 0.800000012 0.600000024
vt 0.800000012 0.800000012
vt 0.800000012 1
vt 0.725000322 0.199999988
vt 0.700000286 0
vt 0.75 0.400000006
vt 0.774999976 0.600000024
vt 0.774999976 0.800000012
vt 0.774999976 1
vt 0.700000286 0.199999988
vt 0.67500025 0
vt 0.725000322 0.400000006
vt 0.75 0.600000024
vt 0.75 0.800000012
vt 0.75 1
vt 0.67500025 0.199999988
vt 0.650000334 0
vt 0.700000286 0.400000006
vt 0.725000322 0.600000024
vt 0.725000322 0.800000012
vt 0.725000322 1
vt 0.650000334 0.199999988
vt 0.625000298 0
vt 0.67500025 0.400000006
vt 0.700000286 0.600000024
vt 0.700000286 0.800000012
vt 0.700000286 1
vt 0.625000298 0.199999988
vt 0.600000262 0
vt 0.650000334 0.400000006
vt 0.67500025 0.600000024
vt 0.67500025 0.800000012
vt 0.67500025 1
vt 0.600000262 0.199999988
vt 0.575000226 0
vt 0.625000238 0.400000006
vt 0.650000334 0.600000024
vt 0.650000334 0.800000012
vt 0.650000334 1
vt 0.575000226 0.199999988
vt 0.55000025 0
vt 0.600000322 0.400000006
vt 0.625000298 0.600000024
vt 0.625000298 0.800000012
vt 0.625000298 1
vt 0.55000025 0.199999988
vt 0.525000215 0
vt 0.575000226 0.400000006
vt 0.600000262 0.600000024
vt 0.600000262 0.800000012
vt 0.600000262 1
vt 0.525000215 0.199999988
vt 0.500000238 0
vt 0.55000025 0.400000006
vt 0.575000226 0.600000024
vt 0.575000226 0.800000012
vt 0.575000226 1
vt 0.500000238 0.199999988
vt 0.475000203 0
vt 0.525000215 0.400000006
vt 0.55000025 0.600000024
vt 0.55000025 0.800000012
vt 0.55000025 1
vt 0.475000203 0.199999988
vt 0.450000197 0
vt 0.500000238 0.400000006
vt 0.525000215 0.600000024
vt 0.525000215 0.800000012
vt 0.525000215 1
vt 0.450000197 0.199999988
vt 0.425000191 0
vt 0.475000203 0.400000006
vt 0.500000238 0.600000024
vt 0.500000238 0.800000012
vt 0.500000238 1
vt 0.425000191 0.199999988
vt 0.400000185 0
vt 0.450000197 0.400000006
vt 0.475000203 0.600000024
vt 0.475000203 0.800000012
vt 0.475000203 1
vt 0.400000185 0.199999988
vt 0.375000209 0
vt 0.425000191 0.400000006
vt 0.450000197 0.600000024
vt 0.450000197 0.800000012
vt 0.450000197 1
vt 0.375000209 0.199999988
vt 0.350000203 0
vt 0.400000185 0.400000006
vt 0.425000191 0.600000024
vt 0.425000191 0.800000012
vt 0.425000191 1
vt 0.350000203 0.199999988
vt 0.325000167 0
vt 0.375000209 0.400000006
vt 0.400000185 0.600000024
vt 0.400000185 0.800000012
vt 0.400000185 1
vt 0.325000167 0.199999988
vt 0.300000161 0
vt 0.350000203 0.400000006
vt 0.375000209 0.600000024
vt 0.375000209 0.800000012
vt 0.375000209 1
vt 0.300000161 0.199999988
vt 0.275000155 0
vt 0.325000167 0.400000006
vt 0.350000203 0.600000024
vt 0.350000203 0.800000012
vt 0.350000203 1
vt 0.275000155 0.199999988
vt 0.250000119 0
vt 0.300000161 0.400000006
vt 0.325000167 0.600000024
vt 0.325000167 0.800000012
vt 0.325000167 1
vt 0.250000119 0.199999988
vt 0.225000143 0
vt 0.275000155 0.400000006
vt 0.300000161 0.600000024
vt 0.300000161 0.800000012
vt 0.300000161 1
vt 0.225000143 0.199999988
vt 0.200000107 0
vt 0.250000119 0.400000006
vt 0.275000155 0.600000024
vt 0.275000155 0.800000012
vt 0.275000155 1
vt 0.200000107 0.199999988
vt 0.175000101 0
vt 0.225000143 0.400000006
vt 0.250000119 0.600000024
vt 0.250000119 0.800000012
vt 0.250000119 1
vt 0.175000101 0.199999988
vt 0.150000095 0
vt 0.200000107 0.400000006
vt 0.225000143 0.600000024
vt 0.225000143 0.800000012
vt 0.225000143 1
vt 0.150000095 0.199999988
vt 0.125000089 0
vt 0.175000101 0.400000006
vt 0.200000107 0.600000024
vt 0.200000107 0.800000012
vt 0.200000107 1
vt 0.125000089 0.199999988
vt 0.100000076 0
vt 0.150000095 0.400000006
vt 0.175000101 0.600000024
vt 0.175000101 0.800000012
vt 0.175000101 1
vt 0.100000076 0.199999988
vt 0.0750000626 0
vt 0.125000089 0.400000006
vt 0.150000095 0.600000024
vt 0.150000095 0.800000012
vt 0.150000095 1
vt 0.0750000626 0.199999988
vt 0.0500000566 0
vt 0.100000076 0.400000006
vt 0.125000089 0.600000024
vt 0.125000089 0.800000012
vt 0.125000089 1
vt 0.0500000566 0.199999988
vt 0.0250000469 0
vt 0.0750000626 0.400000006
vt 0.100000076 0.600000024
vt 0.100000076 0.800000012
vt 0.100000076 1
vt 0.0250000469 0.199999988
vt 3.79454939E-08 0
vt 3.79454939E-08 0.199999988
vt 0.0500000566 0.400000006
vt 0.0750000626 0.600000024
vt 0.0750000626 0.800000012
vt 0.0750000626 1
vt 0.0250000469 0.400000006
vt 3.79454939E-08 0.400000006
vt 0.0500000566 0.600000024
vt 0.0500000566 0.800000012
vt 0.0500000566 1
vt 0.0250000469 0.600000024
vt 3.79454939E-08 0.600000024
vt 0.0250000469 0.800000012
vt 0.0250000469 1
vt 3.79454939E-08 0.800000012
vt 3.79454939E-08 1
vn -0 0 1
vn -0 0 1
vn -0 0 1
vn -0 0 1
vn -0 0 1
vn -0 0 1
vn -0 0 1
vn -0 0 1
vn -0 0 1
vn -0 0 1
vn -0 0 1
vn -0 0 1
vn -0 0 1
vn -0 0 1
vn -0 0 1
vn -0 0 1
vn -0 0 1
vn -0 0 1
vn -0 0 1
vn -0 0 1
vn -0 0 1
vn -0 0 1
vn -0 0 1
vn -0 0 1
vn -0 0 1
vn -0 0 1
vn -0 0 1
vn -0 0 1
vn -0 0 1
vn -0 0 1
vn -0 0 1
vn -0 0 1
vn -0 0 1
vn -0 0 1
vn -0 0 1
vn -0 0 1
vn -0 0 1
vn -0 0 1
vn -0 0 1
vn -0 0 1
vn -0 0 1
vn -0 0 1
vn -0 0 1
vn -0 0 1
vn -0 0 1
vn -0 0 1
vn -0 0 1
vn -0 0 1
vn -0 0 1
vn -0 0 1
vn -0 0 1
vn -0 0 1
vn -0 0 1
vn -0 0 1
vn -0 0 1
vn -0 0 1
vn -0 0 1
vn -0 0 1
vn -0 0 1
vn -0 0 1
vn -0 0 1
vn -0 0 1
vn -0 0 1
vn -0 0 1
vn -0 0 1
vn -0 0 1
vn -0 0 1
vn -0 0 1
vn -0 0 1
vn -0 0 1
vn -0 0 1
vn -0 0 1
vn -0 0 1
vn -0 0 1
vn -0 0 1
vn -0 0 1
vn -0 0 1
vn -0 0 1
vn -0 0 1
vn -0 0 1
vn -0 0 1
vn -0 0 1
vn -0 0 1
vn -0 0 1
vn -0 0 1
vn -0 0 1
vn -0 0 1
vn -0 0 1
vn -0 0 1
vn -0 0 1
vn -0 0 1
vn -0 0 1
vn -0 0 1
vn -0 0 1
vn -0 0 1
vn -0 0 1
vn -0 0 1
vn -0 0 1
vn -0 0 1
vn -0 0 1
vn -0 0 1
vn -0 0 1
vn -0 0 1
vn -0 0 1
vn -0 0 1
vn -0 0 1
vn -0 0 1
vn -0 0 1
vn -0 0 1
vn -0 0 1
vn -0 0 1
vn -0 0 1
vn -0 0 1
vn -0 0 1
vn -0 0 1
vn -0 0 1
vn -0 0 1
vn -0 0 1
vn -0 0 1
vn -0 0 1
vn -0 0 1
vn -0 0 1
vn -0 0 1
vn -0 0 1
vn -0 0 1
vn -0 0 1
vn -0 0 1
vn -0 0 1
vn -0 0 1
vn -0 0 1
vn -0 0 1
vn -0 0 1
vn -0 0 1
vn -0 0 1
vn -0 0 1
vn -0 0 1
vn -0 0 1
vn -0 0 1
vn -0 0 1
vn -0 0 1
vn -0 0 1
vn -0 0 1
vn -0 0 1
vn -0 0 1
vn -0 0 1
vn -0 0 1
vn -0 0 1
vn -0 0 1
vn -0 0 1
vn -0 0 1
vn -0 0 1
vn -0 0 1
vn -0 0 1
vn -0 0 1
vn -0 0 1
vn -0 0 1
vn -0 0 1
vn -0 0 1
vn -0 0 1
vn -0 0 1
vn -0 0 1
vn -0 0 1
vn -0 0 1
vn -0 0 1
vn -0 0 1
vn -0 0 1
vn -0 0 1
vn -0 0 1
vn -0 0 1
vn -0 0 1
vn -0 0 1
vn -0 0 1
vn -0 0 1
vn -0 0 1
vn -0 0 1
vn -0 0 1
vn -0 0 1
vn -0 0 1
vn -0 0 1
vn -0 0 1
vn -0 0 1
vn -0 0 1
vn -0 0 1
vn -0 0 1
vn -0 0 1
vn -0 0 1
vn -0 0 1
vn -0 0 1
vn -0 0 1
vn -0 0 1
vn -0 0 1
vn -0 0 1
vn -0 0 1
vn -0 0 1
vn -0 0 1
vn -0 0 1
vn -0 0 1
vn -0 0 1
vn -0 0 1
vn -0 0 1
vn -0 0 1
vn -0 0 1
vn -0 0 1
vn -0 0 1
vn -0 0 1
vn -0 0 1
vn -0 0 1
vn -0 0 1
vn -0 0 1
vn -0 0 1
vn -0 0 1
vn -0 0 1
vn -0 0 1
vn -0 0 1
vn -0 0 1
vn -0 0 1
vn -0 0 1
vn -0 0 1
vn -0 0 1
vn -0 0 1
vn -0 0 1
vn -0 0 1
vn -0 0 1
vn -0 0 1
vn -0 0 1
vn -0 0 1
vn -0 0 1
vn -0 0 1
vn -0 0 1
vn -0 0 1
vn -0 0 1
vn -0 0 1
vn -0 0 1
vn -0 0 1
vn -0 0 1
vn -0 0 1
vn -0 0 1
vn -0 0 1
vn -0 0 1
vn -0 0 1
vn -0 0 1
vn -0 0 1
vn -0 0 1
vn -0 0 1
vn -0 0 1
vn -0 0 1
g fx_015_0
f 3/3/3 2/2/2 1/1/1
f 2/2/2 4/4/4 1/1/1
f 1/1/1 4/4/4 5/5/5
f 2/2/2 6/6/6 4/4/4
f 4/4/4 7/7/7 5/5/5
f 5/5/5 7/7/7 8/8/8
f 6/6/6 9/9/9 4/4/4
f 4/4/4 9/9/9 7/7/7
f 6/6/6 10/10/10 9/9/9
f 7/7/7 11/11/11 8/8/8
f 8/8/8 11/11/11 12/12/12
f 9/9/9 13/13/13 7/7/7
f 7/7/7 13/13/13 11/11/11
f 10/10/10 14/14/14 9/9/9
f 9/9/9 14/14/14 13/13/13
f 10/10/10 15/15/15 14/14/14
f 11/11/11 16/16/16 12/12/12
f 12/12/12 16/16/16 17/17/17
f 13/13/13 18/18/18 11/11/11
f 11/11/11 18/18/18 16/16/16
f 14/14/14 19/19/19 13/13/13
f 13/13/13 19/19/19 18/18/18
f 15/15/15 20/20/20 14/14/14
f 14/14/14 20/20/20 19/19/19
f 15/15/15 21/21/21 20/20/20
f 21/21/21 22/22/22 20/20/20
f 20/20/20 22/22/22 23/23/23
f 20/20/20 23/23/23 19/19/19
f 22/22/22 24/24/24 23/23/23
f 16/16/16 25/25/25 17/17/17
f 17/17/17 25/25/25 26/26/26
f 18/18/18 27/27/27 16/16/16
f 16/16/16 27/27/27 25/25/25
f 19/19/19 28/28/28 18/18/18
f 19/19/19 23/23/23 28/28/28
f 18/18/18 28/28/28 27/27/27
f 23/23/23 24/24/24 29/29/29
f 23/23/23 29/29/29 28/28/28
f 24/24/24 30/30/30 29/29/29
f 25/25/25 31/31/31 26/26/26
f 26/26/26 31/31/31 32/32/32
f 27/27/27 33/33/33 25/25/25
f 25/25/25 33/33/33 31/31/31
f 28/28/28 34/34/34 27/27/27
f 28/28/28 29/29/29 34/34/34
f 27/27/27 34/34/34 33/33/33
f 29/29/29 30/30/30 35/35/35
f 29/29/29 35/35/35 34/34/34
f 30/30/30 36/36/36 35/35/35
f 31/31/31 37/37/37 32/32/32
f 32/32/32 37/37/37 38/38/38
f 33/33/33 39/39/39 31/31/31
f 31/31/31 39/39/39 37/37/37
f 34/34/34 40/40/40 33/33/33
f 34/34/34 35/35/35 40/40/40
f 33/33/33 40/40/40 39/39/39
f 35/35/35 36/36/36 41/41/41
f 35/35/35 41/41/41 40/40/40
f 36/36/36 42/42/42 41/41/41
f 37/37/37 43/43/43 38/38/38
f 38/38/38 43/43/43 44/44/44
f 39/39/39 45/45/45 37/37/37
f 37/37/37 45/45/45 43/43/43
f 40/40/40 46/46/46 39/39/39
f 40/40/40 41/41/41 46/46/46
f 39/39/39 46/46/46 45/45/45
f 41/41/41 42/42/42 47/47/47
f 41/41/41 47/47/47 46/46/46
f 42/42/42 48/48/48 47/47/47
f 43/43/43 49/49/49 44/44/44
f 44/44/44 49/49/49 50/50/50
f 45/45/45 51/51/51 43/43/43
f 43/43/43 51/51/51 49/49/49
f 46/46/46 52/52/52 45/45/45
f 46/46/46 47/47/47 52/52/52
f 45/45/45 52/52/52 51/51/51
f 47/47/47 48/48/48 53/53/53
f 47/47/47 53/53/53 52/52/52
f 48/48/48 54/54/54 53/53/53
f 49/49/49 55/55/55 50/50/50
f 50/50/50 55/55/55 56/56/56
f 51/51/51 57/57/57 49/49/49
f 49/49/49 57/57/57 55/55/55
f 52/52/52 58/58/58 51/51/51
f 52/52/52 53/53/53 58/58/58
f 51/51/51 58/58/58 57/57/57
f 53/53/53 54/54/54 59/59/59
f 53/53/53 59/59/59 58/58/58
f 54/54/54 60/60/60 59/59/59
f 55/55/55 61/61/61 56/56/56
f 56/56/56 61/61/61 62/62/62
f 57/57/57 63/63/63 55/55/55
f 55/55/55 63/63/63 61/61/61
f 58/58/58 64/64/64 57/57/57
f 58/58/58 59/59/59 64/64/64
f 57/57/57 64/64/64 63/63/63
f 59/59/59 60/60/60 65/65/65
f 59/59/59 65/65/65 64/64/64
f 60/60/60 66/66/66 65/65/65
f 61/61/61 67/67/67 62/62/62
f 62/62/62 67/67/67 68/68/68
f 63/63/63 69/69/69 61/61/61
f 61/61/61 69/69/69 67/67/67
f 64/64/64 70/70/70 63/63/63
f 64/64/64 65/65/65 70/70/70
f 63/63/63 70/70/70 69/69/69
f 65/65/65 66/66/66 71/71/71
f 65/65/65 71/71/71 70/70/70
f 66/66/66 72/72/72 71/71/71
f 67/67/67 73/73/73 68/68/68
f 68/68/68 73/73/73 74/74/74
f 69/69/69 75/75/75 67/67/67
f 67/67/67 75/75/75 73/73/73
f 70/70/70 76/76/76 69/69/69
f 70/70/70 71/71/71 76/76/76
f 69/69/69 76/76/76 75/75/75
f 71/71/71 72/72/72 77/77/77
f 71/71/71 77/77/77 76/76/76
f 72/72/72 78/78/78 77/77/77
f 73/73/73 79/79/79 74/74/74
f 74/74/74 79/79/79 80/80/80
f 75/75/75 81/81/81 73/73/73
f 73/73/73 81/81/81 79/79/79
f 76/76/76 82/82/82 75/75/75
f 76/76/76 77/77/77 82/82/82
f 75/75/75 82/82/82 81/81/81
f 77/77/77 78/78/78 83/83/83
f 77/77/77 83/83/83 82/82/82
f 78/78/78 84/84/84 83/83/83
f 79/79/79 85/85/85 80/80/80
f 80/80/80 85/85/85 86/86/86
f 81/81/81 87/87/87 79/79/79
f 79/79/79 87/87/87 85/85/85
f 82/82/82 88/88/88 81/81/81
f 82/82/82 83/83/83 88/88/88
f 81/81/81 88/88/88 87/87/87
f 83/83/83 84/84/84 89/89/89
f 83/83/83 89/89/89 88/88/88
f 84/84/84 90/90/90 89/89/89
f 85/85/85 91/91/91 86/86/86
f 86/86/86 91/91/91 92/92/92
f 87/87/87 93/93/93 85/85/85
f 85/85/85 93/93/93 91/91/91
f 88/88/88 94/94/94 87/87/87
f 88/88/88 89/89/89 94/94/94
f 87/87/87 94/94/94 93/93/93
f 89/89/89 90/90/90 95/95/95
f 89/89/89 95/95/95 94/94/94
f 90/90/90 96/96/96 95/95/95
f 91/91/91 97/97/97 92/92/92
f 92/92/92 97/97/97 98/98/98
f 93/93/93 99/99/99 91/91/91
f 91/91/91 99/99/99 97/97/97
f 94/94/94 100/100/100 93/93/93
f 94/94/94 95/95/95 100/100/100
f 93/93/93 100/100/100 99/99/99
f 95/95/95 96/96/96 101/101/101
f 95/95/95 101/101/101 100/100/100
f 96/96/96 102/102/102 101/101/101
f 97/97/97 103/103/103 98/98/98
f 98/98/98 103/103/103 104/104/104
f 99/99/99 105/105/105 97/97/97
f 97/97/97 105/105/105 103/103/103
f 100/100/100 106/106/106 99/99/99
f 100/100/100 101/101/101 106/106/106
f 99/99/99 106/106/106 105/105/105
f 101/101/101 102/102/102 107/107/107
f 101/101/101 107/107/107 106/106/106
f 102/102/102 108/108/108 107/107/107
f 103/103/103 109/109/109 104/104/104
f 104/104/104 109/109/109 110/110/110
f 105/105/105 111/111/111 103/103/103
f 103/103/103 111/111/111 109/109/109
f 106/106/106 112/112/112 105/105/105
f 106/106/106 107/107/107 112/112/112
f 105/105/105 112/112/112 111/111/111
f 107/107/107 108/108/108 113/113/113
f 107/107/107 113/113/113 112/112/112
f 108/108/108 114/114/114 113/113/113
f 109/109/109 115/115/115 110/110/110
f 110/110/110 115/115/115 116/116/116
f 111/111/111 117/117/117 109/109/109
f 109/109/109 117/117/117 115/115/115
f 112/112/112 118/118/118 111/111/111
f 112/112/112 113/113/113 118/118/118
f 111/111/111 118/118/118 117/117/117
f 113/113/113 114/114/114 119/119/119
f 113/113/113 119/119/119 118/118/118
f 114/114/114 120/120/120 119/119/119
f 115/115/115 121/121/121 116/116/116
f 116/116/116 121/121/121 122/122/122
f 117/117/117 123/123/123 115/115/115
f 115/115/115 123/123/123 121/121/121
f 118/118/118 124/124/124 117/117/117
f 118/118/118 119/119/119 124/124/124
f 117/117/117 124/124/124 123/123/123
f 119/119/119 120/120/120 125/125/125
f 119/119/119 125/125/125 124/124/124
f 120/120/120 126/126/126 125/125/125
f 121/121/121 127/127/127 122/122/122
f 122/122/122 127/127/127 128/128/128
f 123/123/123 129/129/129 121/121/121
f 121/121/121 129/129/129 127/127/127
f 124/124/124 130/130/130 123/123/123
f 124/124/124 125/125/125 130/130/130
f 123/123/123 130/130/130 129/129/129
f 125/125/125 126/126/126 131/131/131
f 125/125/125 131/131/131 130/130/130
f 126/126/126 132/132/132 131/131/131
f 127/127/127 133/133/133 128/128/128
f 128/128/128 133/133/133 134/134/134
f 129/129/129 135/135/135 127/127/127
f 127/127/127 135/135/135 133/133/133
f 130/130/130 136/136/136 129/129/129
f 130/130/130 131/131/131 136/136/136
f 129/129/129 136/136/136 135/135/135
f 131/131/131 132/132/132 137/137/137
f 131/131/131 137/137/137 136/136/136
f 132/132/132 138/138/138 137/137/137
f 133/133/133 139/139/139 134/134/134
f 134/134/134 139/139/139 140/140/140
f 135/135/135 141/141/141 133/133/133
f 133/133/133 141/141/141 139/139/139
f 136/136/136 142/142/142 135/135/135
f 136/136/136 137/137/137 142/142/142
f 135/135/135 142/142/142 141/141/141
f 137/137/137 138/138/138 143/143/143
f 137/137/137 143/143/143 142/142/142
f 138/138/138 144/144/144 143/143/143
f 139/139/139 145/145/145 140/140/140
f 140/140/140 145/145/145 146/146/146
f 141/141/141 147/147/147 139/139/139
f 139/139/139 147/147/147 145/145/145
f 142/142/142 148/148/148 141/141/141
f 142/142/142 143/143/143 148/148/148
f 141/141/141 148/148/148 147/147/147
f 143/143/143 144/144/144 149/149/149
f 143/143/143 149/149/149 148/148/148
f 144/144/144 150/150/150 149/149/149
f 145/145/145 151/151/151 146/146/146
f 146/146/146 151/151/151 152/152/152
f 147/147/147 153/153/153 145/145/145
f 145/145/145 153/153/153 151/151/151
f 148/148/148 154/154/154 147/147/147
f 148/148/148 149/149/149 154/154/154
f 147/147/147 154/154/154 153/153/153
f 149/149/149 150/150/150 155/155/155
f 149/149/149 155/155/155 154/154/154
f 150/150/150 156/156/156 155/155/155
f 151/151/151 157/157/157 152/152/152
f 152/152/152 157/157/157 158/158/158
f 153/153/153 159/159/159 151/151/151
f 151/151/151 159/159/159 157/157/157
f 154/154/154 160/160/160 153/153/153
f 154/154/154 155/155/155 160/160/160
f 153/153/153 160/160/160 159/159/159
f 155/155/155 156/156/156 161/161/161
f 155/155/155 161/161/161 160/160/160
f 156/156/156 162/162/162 161/161/161
f 157/157/157 163/163/163 158/158/158
f 158/158/158 163/163/163 164/164/164
f 159/159/159 165/165/165 157/157/157
f 157/157/157 165/165/165 163/163/163
f 160/160/160 166/166/166 159/159/159
f 160/160/160 161/161/161 166/166/166
f 159/159/159 166/166/166 165/165/165
f 161/161/161 162/162/162 167/167/167
f 161/161/161 167/167/167 166/166/166
f 162/162/162 168/168/168 167/167/167
f 163/163/163 169/169/169 164/164/164
f 164/164/164 169/169/169 170/170/170
f 165/165/165 171/171/171 163/163/163
f 163/163/163 171/171/171 169/169/169
f 166/166/166 172/172/172 165/165/165
f 166/166/166 167/167/167 172/172/172
f 165/165/165 172/172/172 171/171/171
f 167/167/167 168/168/168 173/173/173
f 167/167/167 173/173/173 172/172/172
f 168/168/168 174/174/174 173/173/173
f 169/169/169 175/175/175 170/170/170
f 170/170/170 175/175/175 176/176/176
f 171/171/171 177/177/177 169/169/169
f 169/169/169 177/177/177 175/175/175
f 172/172/172 178/178/178 171/171/171
f 172/172/172 173/173/173 178/178/178
f 171/171/171 178/178/178 177/177/177
f 173/173/173 174/174/174 179/179/179
f 173/173/173 179/179/179 178/178/178
f 174/174/174 180/180/180 179/179/179
f 175/175/175 181/181/181 176/176/176
f 176/176/176 181/181/181 182/182/182
f 177/177/177 183/183/183 175/175/175
f 175/175/175 183/183/183 181/181/181
f 178/178/178 184/184/184 177/177/177
f 178/178/178 179/179/179 184/184/184
f 177/177/177 184/184/184 183/183/183
f 179/179/179 180/180/180 185/185/185
f 179/179/179 185/185/185 184/184/184
f 180/180/180 186/186/186 185/185/185
f 181/181/181 187/187/187 182/182/182
f 182/182/182 187/187/187 188/188/188
f 183/183/183 189/189/189 181/181/181
f 181/181/181 189/189/189 187/187/187
f 184/184/184 190/190/190 183/183/183
f 184/184/184 185/185/185 190/190/190
f 183/183/183 190/190/190 189/189/189
f 185/185/185 186/186/186 191/191/191
f 185/185/185 191/191/191 190/190/190
f 186/186/186 192/192/192 191/191/191
f 187/187/187 193/193/193 188/188/188
f 188/188/188 193/193/193 194/194/194
f 189/189/189 195/195/195 187/187/187
f 187/187/187 195/195/195 193/193/193
f 190/190/190 196/196/196 189/189/189
f 190/190/190 191/191/191 196/196/196
f 189/189/189 196/196/196 195/195/195
f 191/191/191 192/192/192 197/197/197
f 191/191/191 197/197/197 196/196/196
f 192/192/192 198/198/198 197/197/197
f 193/193/193 199/199/199 194/194/194
f 194/194/194 199/199/199 200/200/200
f 195/195/195 201/201/201 193/193/193
f 193/193/193 201/201/201 199/199/199
f 196/196/196 202/202/202 195/195/195
f 196/196/196 197/197/197 202/202/202
f 195/195/195 202/202/202 201/201/201
f 197/197/197 198/198/198 203/203/203
f 197/197/197 203/203/203 202/202/202
f 198/198/198 204/204/204 203/203/203
f 199/199/199 205/205/205 200/200/200
f 200/200/200 205/205/205 206/206/206
f 201/201/201 207/207/207 199/199/199
f 199/199/199 207/207/207 205/205/205
f 202/202/202 208/208/208 201/201/201
f 202/202/202 203/203/203 208/208/208
f 201/201/201 208/208/208 207/207/207
f 203/203/203 204/204/204 209/209/209
f 203/203/203 209/209/209 208/208/208
f 204/204/204 210/210/210 209/209/209
f 205/205/205 211/211/211 206/206/206
f 206/206/206 211/211/211 212/212/212
f 207/207/207 213/213/213 205/205/205
f 205/205/205 213/213/213 211/211/211
f 208/208/208 214/214/214 207/207/207
f 208/208/208 209/209/209 214/214/214
f 207/207/207 214/214/214 213/213/213
f 209/209/209 210/210/210 215/215/215
f 209/209/209 215/215/215 214/214/214
f 210/210/210 216/216/216 215/215/215
f 211/211/211 217/217/217 212/212/212
f 212/212/212 217/217/217 218/218/218
f 213/213/213 219/219/219 211/211/211
f 211/211/211 219/219/219 217/217/217
f 214/214/214 220/220/220 213/213/213
f 214/214/214 215/215/215 220/220/220
f 213/213/213 220/220/220 219/219/219
f 215/215/215 216/216/216 221/221/221
f 215/215/215 221/221/221 220/220/220
f 216/216/216 222/222/222 221/221/221
f 217/217/217 223/223/223 218/218/218
f 218/218/218 223/223/223 224/224/224
f 219/219/219 225/225/225 217/217/217
f 217/217/217 225/225/225 223/223/223
f 220/220/220 226/226/226 219/219/219
f 220/220/220 221/221/221 226/226/226
f 219/219/219 226/226/226 225/225/225
f 221/221/221 222/222/222 227/227/227
f 221/221/221 227/227/227 226/226/226
f 222/222/222 228/228/228 227/227/227
f 223/223/223 229/229/229 224/224/224
f 224/224/224 229/229/229 230/230/230
f 229/229/229 231/231/231 230/230/230
f 225/225/225 232/232/232 223/223/223
f 223/223/223 232/232/232 229/229/229
f 226/226/226 233/233/233 225/225/225
f 226/226/226 227/227/227 233/233/233
f 225/225/225 233/233/233 232/232/232
f 227/227/227 228/228/228 234/234/234
f 227/227/227 234/234/234 233/233/233
f 228/228/228 235/235/235 234/234/234
f 229/229/229 236/236/236 231/231/231
f 232/232/232 236/236/236 229/229/229
f 236/236/236 237/237/237 231/231/231
f 233/233/233 238/238/238 232/232/232
f 233/233/233 234/234/234 238/238/238
f 232/232/232 238/238/238 236/236/236
f 234/234/234 235/235/235 239/239/239
f 234/234/234 239/239/239 238/238/238
f 235/235/235 240/240/240 239/239/239
f 236/236/236 241/241/241 237/237/237
f 238/238/238 241/241/241 236/236/236
f 238/238/238 239/239/239 241/241/241
f 241/241/241 242/242/242 237/237/237
f 239/239/239 240/240/240 243/243/243
f 239/239/239 243/243/243 241/241/241
f 241/241/241 243/243/243 242/242/242
f 240/240/240 244/244/244 243/243/243
f 243/243/243 245/245/245 242/242/242
f 243/243/243 244/244/244 245/245/245
f 244/244/244 246/246/246 245/245/245
