g JT_Plane_02
v 0.49999994 2.90679935E-07 1
v -0.5 9.68933094E-08 1
v -0.49999994 -1.93786619E-07 0
v 0.5 0 0
v -2.42233284E-07 0.50000006 0.999999881
v -2.42233273E-08 -0.499999791 1
v 1.93786619E-07 -0.5 8.94069672E-08
v -2.42233273E-08 0.499999911 -5.96046448E-08
vt 0 1
vt 1 1
vt 1 0
vt 0 0
vt 0 1
vt 1 1
vt 1 0
vt 0 0
vn -0 1 0
vn -0 1 0
vn -4.84465636E-06 1 -2.98022229E-07
vn -0 1 -2.9802365E-07
vn -1 0 0
vn -1 0 0
vn -1 0 0
vn -1 0 0
g JT_Plane_02_0
f 3/3/3 2/2/2 1/1/1
f 4/4/4 3/3/3 1/1/1
f 7/7/7 6/6/6 5/5/5
f 8/8/8 7/7/7 5/5/5
