g nurbsToSubd1
v -1.13336647 0.827197671 5.52874517
v -1.25320423 0.50641793 -6.79232645
v -1.25321698 0.767585397 -6.79232645
v -1.1333555 0.602918506 5.52874517
v -1.13339686 0.29909271 5.5287447
v -1.25325227 0.15262042 -6.79232788
v -1.25007629 -0.30230695 -6.79225492
v -1.13066947 -0.0915789008 5.52880716
v -1.12016594 -0.561768234 5.5290904
v -1.2378453 -0.849830747 -6.79192495
v -1.20349026 -1.44689834 -6.79079294
v -1.09066331 -1.0745039 5.5300622
v -1.20349026 -1.44689834 -6.79079294
v -1.09066331 -1.0745039 5.5300622
v -1.02799737 -1.59144258 5.53238916
v -1.13051736 -2.04886055 -6.78808355
v -1.02799737 -1.59144258 5.53238916
v -0.912454605 -2.09839606 5.53720856
v -0.995970547 -2.63919497 -6.78247166
v -1.13051736 -2.04886055 -6.78808355
v -0.912454605 -2.09839606 5.53720856
v -0.724854112 -2.58432102 5.54576111
v -0.777514517 -3.2050426 -6.77251148
v -0.995970547 -2.63919497 -6.78247166
v -0.724854112 -2.58432102 5.54576111
v -0.453694493 -3.02660084 5.55922174
v -0.461755961 -3.72006655 -6.75683832
v -0.777514517 -3.2050426 -6.77251148
v -0.453694493 -3.02660084 5.55922174
v -0.094561398 -3.4013505 5.57847309
v -0.0435544513 -4.15645266 -6.7344203
v -0.461755961 -3.72006655 -6.75683832
v -0.094561398 -3.4013505 5.57847309
v 0.33629033 -3.69118667 5.60330343
v 0.458161592 -4.49396038 -6.70550537
v -0.0435544513 -4.15645266 -6.7344203
v 0.33629033 -3.69118667 5.60330343
v 0.817397118 -3.88391161 5.63316298
v 1.01839852 -4.71838331 -6.67073536
v 0.458161592 -4.49396038 -6.70550537
v 0.817397118 -3.88391161 5.63316298
v 1.32712877 -3.98156667 5.66724253
v 1.61196804 -4.83210039 -6.63105011
v 1.01839852 -4.71838331 -6.67073536
v 1.32712877 -3.98156667 5.66724253
v 1.84544969 -3.99023175 5.7047286
v 2.21553993 -4.84219027 -6.58739853
v 1.61196804 -4.83210039 -6.63105011
v 1.84544969 -3.99023175 5.7047286
v 2.35887027 -3.91789818 5.74504471
v 2.81340528 -4.75796032 -6.54045105
v 2.21553993 -4.84219027 -6.58739853
v 2.35887027 -3.91789818 5.74504471
v 2.85638618 -3.77291679 5.78772593
v 3.39274979 -4.58913326 -6.49075031
v 2.81340528 -4.75796032 -6.54045105
v 2.85638618 -3.77291679 5.78772593
v 3.33038712 -3.56316185 5.83251524
v 3.94471216 -4.3448782 -6.43859434
v 3.39274979 -4.58913326 -6.49075031
v 3.33038712 -3.56316185 5.83251524
v 3.77442479 -3.29611254 5.87920761
v 4.46178293 -4.03390646 -6.38422251
v 3.94471216 -4.3448782 -6.43859434
v 3.77442479 -3.29611254 5.87920761
v 4.18329906 -2.97814918 5.927598
v 4.93790674 -3.66364551 -6.32787275
v 4.46178293 -4.03390646 -6.38422251
v 4.18329906 -2.97814918 5.927598
v 4.55249453 -2.61534095 5.97753763
v 5.36782551 -3.24116445 -6.26971912
v 4.93790674 -3.66364551 -6.32787275
v 4.55249453 -2.61534095 5.97753763
v 4.87898207 -2.21361232 6.02909946
v 5.74801254 -2.77336168 -6.20967722
v 5.36782551 -3.24116445 -6.26971912
v 4.87898207 -2.21361232 6.02909946
v 5.1597209 -1.7786932 6.08231974
v 6.07492542 -2.26690936 -6.14770365
v 5.74801254 -2.77336168 -6.20967722
v 5.1597209 -1.7786932 6.08231974
v 5.39013815 -1.31567478 6.13686895
v 6.34324026 -1.72773588 -6.08418274
v 6.07492542 -2.26690936 -6.14770365
v 5.39013815 -1.31567478 6.13686895
v 5.56685543 -0.829917729 6.19278812
v 6.54902363 -1.16208398 -6.01906586
v 6.34324026 -1.72773588 -6.08418274
v 5.56685543 -0.829917729 6.19278812
v 5.69280148 -0.328497499 6.251966
v 6.69568396 -0.578192651 -5.9501543
v 6.54902363 -1.16208398 -6.01906586
v 5.69280148 -0.328497499 6.251966
v 5.77241468 0.181665704 6.31646681
v 6.78839207 0.015879631 -5.87504673
v 6.69568396 -0.578192651 -5.9501543
v 5.77241468 0.181665704 6.31646681
v 5.80986595 0.695986927 6.38719416
v 6.83200312 0.614793777 -5.79268408
v 6.78839207 0.015879631 -5.87504673
v 5.80986595 0.695986927 6.38719416
v 5.80838537 1.21066463 6.46450281
v 6.83027887 1.21412313 -5.70266199
v 6.83200312 0.614793777 -5.79268408
v 5.80838537 1.21066463 6.46450281
v 5.76770782 1.72269499 6.54765272
v 6.78291082 1.81036973 -5.60583591
v 6.83027887 1.21412313 -5.70266199
v 5.76770782 1.72269499 6.54765272
v 5.68712759 2.2292335 6.63576889
v 6.6890769 2.40022087 -5.50322485
v 6.78291082 1.81036973 -5.60583591
v 5.68712759 2.2292335 6.63576889
v 5.56767321 2.72727489 6.72849035
v 6.54997587 2.98017812 -5.39525318
v 6.6890769 2.40022087 -5.50322485
v 5.56767321 2.72727489 6.72849035
v 5.41070461 3.21383262 6.82554865
v 6.36718988 3.54676223 -5.28223276
v 6.54997587 2.98017812 -5.39525318
v 5.41070461 3.21383262 6.82554865
v 5.21716833 3.68614745 6.92652225
v 6.14182234 4.09676075 -5.16465139
v 6.36718988 3.54676223 -5.28223276
v 5.21716833 3.68614745 6.92652225
v 4.98804808 4.14153337 7.03099775
v 5.87501669 4.62704659 -5.04299259
v 6.14182234 4.09676075 -5.16465139
v 4.98804808 4.14153337 7.03099775
v 4.72488689 4.57736397 7.13873243
v 5.56857252 5.13456011 -4.91753769
v 5.87501669 4.62704659 -5.04299259
v 4.72488689 4.57736397 7.13873243
v 4.42937994 4.99106884 7.24952173
v 5.22446156 5.61630917 -4.78852606
v 5.56857252 5.13456011 -4.91753769
v 4.42937994 4.99106884 7.24952173
v 4.10327101 5.38023996 7.36314344
v 4.84471607 6.069489 -4.6562171
v 5.22446156 5.61630917 -4.78852606
v 4.10327101 5.38023996 7.36314344
v 3.74840212 5.74256516 7.47938156
v 4.43148041 6.49140787 -4.5208602
v 4.84471607 6.069489 -4.6562171
v 3.74840212 5.74256516 7.47938156
v 3.36696219 6.07594252 7.59806299
v 3.98730326 6.87961721 -4.38265944
v 4.43148041 6.49140787 -4.5208602
v 3.36696219 6.07594252 7.59806299
v 2.96126199 6.37838078 7.71902561
v 3.51487517 7.2317996 -4.24179983
v 3.98730326 6.87961721 -4.38265944
v 2.96126199 6.37838078 7.71902561
v 2.53375506 6.64812183 7.84211349
v 3.01705408 7.54590607 -4.0984683
v 3.51487517 7.2317996 -4.24179983
v 2.53375506 6.64812183 7.84211349
v 2.08697391 6.88351583 7.9671793
v 2.49678874 7.82001638 -3.95283127
v 3.01705408 7.54590607 -4.0984683
v 2.08697391 6.88351583 7.9671793
v 1.62362421 7.08312225 8.09412193
v 1.95722985 8.05245399 -3.80501103
v 2.49678874 7.82001638 -3.95283127
v 1.62362421 7.08312225 8.09412193
v 1.14648998 7.24561834 8.2228508
v 1.40161884 8.24167633 -3.65511012
v 1.95722985 8.05245399 -3.80501103
v 1.14648998 7.24561834 8.2228508
v 0.658494651 7.36995029 8.3532896
v 0.833360493 8.38645649 -3.50321651
v 1.40161884 8.24167633 -3.65511012
v 0.658494651 7.36995029 8.3532896
v 0.162624598 7.45521164 8.48536587
v 0.255932182 8.48574257 -3.34941721
v 0.833360493 8.38645649 -3.50321651
v 0.162624598 7.45521164 8.48536587
v -0.338020504 7.50081205 8.61900139
v -0.327056468 8.53884315 -3.1938026
v 0.255932182 8.48574257 -3.34941721
v -0.338020504 7.50081205 8.61900139
v -0.840298653 7.50632572 8.75411606
v -0.911946893 8.54526234 -3.03646398
v -0.327056468 8.53884315 -3.1938026
v -0.840298653 7.50632572 8.75411606
v -1.3410114 7.471663 8.89063549
v -1.49501419 8.50489998 -2.877491
v -0.911946893 8.54526234 -3.03646398
v -1.3410114 7.471663 8.89063549
v -1.83693981 7.39689493 9.02848721
v -2.07251048 8.41783333 -2.71696544
v -1.49501419 8.50489998 -2.877491
v -1.83693981 7.39689493 9.02848721
v -2.32484555 7.28241301 9.16762924
v -2.64066458 8.28452206 -2.55493784
v -2.07251048 8.41783333 -2.71696544
v -2.32484555 7.28241301 9.16762924
v -2.8014884 7.12876892 9.30802441
v -3.19570327 8.10560799 -2.39145136
v -2.64066458 8.28452206 -2.55493784
v -2.8014884 7.12876892 9.30802441
v -3.26363945 6.9368434 9.44965935
v -3.73386693 7.88211536 -2.22652054
v -3.19570327 8.10560799 -2.39145136
v -3.26363945 6.9368434 9.44965935
v -3.70809817 6.70769119 9.59252262
v -4.25142765 7.61527252 -2.06016159
v -3.73386693 7.88211536 -2.22652054
v -3.70809817 6.70769119 9.59252262
v -4.13175917 6.44274282 9.73659325
v -4.74477005 7.30674744 -1.89239502
v -4.25142765 7.61527252 -2.06016159
v -4.13175917 6.44274282 9.73659325
v -4.53157377 6.14360762 9.88184738
v -5.21034479 6.95841217 -1.72324908
v -4.74477005 7.30674744 -1.89239502
v -4.53157377 6.14360762 9.88184738
v -4.90463018 5.81223869 10.0282507
v -5.6447587 6.57254171 -1.55276573
v -5.21034479 6.95841217 -1.72324908
v -4.90463018 5.81223869 10.0282507
v -5.2481041 5.45076656 10.1757669
v -6.04472589 6.15161562 -1.38098752
v -5.6447587 6.57254171 -1.55276573
v -5.2481041 5.45076656 10.1757669
v -5.55940247 5.06167603 10.3243666
v -6.40722513 5.69852972 -1.20794678
v -6.04472589 6.15161562 -1.38098752
v -5.55940247 5.06167603 10.3243666
v -5.83604383 4.64761686 10.4740286
v -6.72936726 5.21636772 -1.0336678
v -6.40722513 5.69852972 -1.20794678
v -5.83604383 4.64761686 10.4740286
v -6.0757699 4.21154261 10.6247663
v -7.00852203 4.70857048 -0.858139038
v -6.72936726 5.21636772 -1.0336678
v -6.0757699 4.21154261 10.6247663
v -6.27646494 3.75655913 10.7765923
v -7.2422266 4.17875385 -0.681341588
v -7.00852203 4.70857048 -0.858139038
v -6.27646494 3.75655913 10.7765923
v -6.43636417 3.28607559 10.929533
v -7.42842484 3.63088679 -0.503245533
v -7.2422266 4.17875385 -0.681341588
v -6.43636417 3.28607559 10.929533
v -6.55388117 2.80363631 11.0836115
v -7.5652709 3.06909871 -0.323826611
v -7.42842484 3.63088679 -0.503245533
v -6.55388117 2.80363631 11.0836115
v -6.6278038 2.31301451 11.2388268
v -7.65135193 2.49778175 -0.143081665
v -7.5652709 3.06909871 -0.323826611
v -6.6278038 2.31301451 11.2388268
v -6.6571312 1.81808794 11.3951712
v -7.68550348 1.9214524 0.0389785767
v -7.65135193 2.49778175 -0.143081665
v -6.6571312 1.81808794 11.3951712
v -6.64133549 1.32292235 11.5526285
v -7.66710901 1.34484434 0.222334296
v -7.68550348 1.9214524 0.0389785767
v -6.64133549 1.32292235 11.5526285
v -6.58013248 0.831659257 11.7111826
v -7.59583998 0.772780836 0.406967163
v -7.66710901 1.34484434 0.222334296
v -6.58013248 0.831659257 11.7111826
v -6.47373819 0.348557711 11.8708353
v -7.47194672 0.210221201 0.592878759
v -7.59583998 0.772780836 0.406967163
v -6.47373819 0.348557711 11.8708353
v -6.32263184 -0.122088209 12.0316
v -7.29598713 -0.337834179 0.780085742
v -7.47194672 0.210221201 0.592878759
v -6.32263184 -0.122088209 12.0316
v -6.12783957 -0.575961709 12.1935177
v -7.06915617 -0.866358697 0.968632519
v -7.29598713 -0.337834179 0.780085742
v -6.12783957 -0.575961709 12.1935177
v -5.89066505 -1.00875354 12.3566275
v -6.79297256 -1.37033403 1.15857089
v -7.06915617 -0.866358697 0.968632519
v -5.89066505 -1.00875354 12.3566275
v -5.6129818 -1.41620755 12.520977
v -6.46961737 -1.84480369 1.34995115
v -6.79297256 -1.37033403 1.15857089
v -5.6129818 -1.41620755 12.520977
v -5.29695463 -1.79413307 12.6865959
v -6.10161161 -2.28488851 1.54280937
v -6.46961737 -1.84480369 1.34995115
v -5.29695463 -1.79413307 12.6865959
v -4.94535398 -2.1385448 12.8534794
v -5.69218063 -2.68594742 1.73714221
v -6.10161161 -2.28488851 1.54280937
v -4.94535398 -2.1385448 12.8534794
v -4.56124687 -2.44558978 13.0216188
v -5.24489832 -3.04349375 1.93293381
v -5.69218063 -2.68594742 1.73714221
v -4.56124687 -2.44558978 13.0216188
v -4.1482954 -2.71173072 13.1909943
v -4.76402617 -3.3534081 2.13016891
v -5.24489832 -3.04349375 1.93293381
v -4.1482954 -2.71173072 13.1909943
v -3.71045613 -2.9336338 13.3615971
v -4.25417328 -3.61180854 2.32883239
v -4.76402617 -3.3534081 2.13016891
v -3.71045613 -2.9336338 13.3615971
v -3.25228763 -3.10845852 13.5334501
v -3.72064757 -3.81538749 2.52895141
v -4.25417328 -3.61180854 2.32883239
v -3.25228763 -3.10845852 13.5334501
v -2.77862048 -3.23363042 13.7065887
v -3.16907382 -3.96114707 2.73056865
v -3.72064757 -3.81538749 2.52895141
v -2.77862048 -3.23363042 13.7065887
v -2.2947681 -3.30714393 13.881073
v -2.60564017 -4.04675198 2.93374872
v -3.16907382 -3.96114707 2.73056865
v -2.2947681 -3.30714393 13.881073
v -1.80627155 -3.32733607 14.0569487
v -2.03679824 -4.07026482 3.13855219
v -2.60564017 -4.04675198 2.93374872
v -1.80627155 -3.32733607 14.0569487
v -1.31909025 -3.29334188 14.2342291
v -1.46948755 -4.0306797 3.34498835
v -2.03679824 -4.07026482 3.13855219
v -1.31909025 -3.29334188 14.2342291
v -0.839355946 -3.20471191 14.4129095
v -0.910849035 -3.92747235 3.55306029
v -1.46948755 -4.0306797 3.34498835
v -0.839355946 -3.20471191 14.4129095
v -0.373469323 -3.06186938 14.5929537
v -0.368335724 -3.76113558 3.76271605
v -0.910849035 -3.92747235 3.55306029
v -0.373469323 -3.06186938 14.5929537
v 0.0720870048 -2.86574411 14.7743139
v 0.150503442 -3.53275275 3.97390366
v -0.368335724 -3.76113558 3.76271605
v 0.0720870048 -2.86574411 14.7743139
v 0.490773678 -2.61842608 14.9569731
v 0.638053656 -3.24475741 4.18660831
v 0.150503442 -3.53275275 3.97390366
v 0.490773678 -2.61842608 14.9569731
v 0.876081407 -2.32258058 15.140933
v 1.08673477 -2.9002521 4.40082312
v 0.638053656 -3.24475741 4.18660831
v 0.876081407 -2.32258058 15.140933
v 1.22167778 -1.98200834 15.3262358
v 1.48917317 -2.50366473 4.61660719
v 1.08673477 -2.9002521 4.40082312
v 1.22167778 -1.98200834 15.3262358
v 1.52140594 -1.60110474 15.5129271
v 1.83819902 -2.060112 4.83400202
v 1.48917317 -2.50366473 4.61660719
v 1.52140594 -1.60110474 15.5129271
v 1.7696327 -1.18550754 15.7010107
v 2.12725306 -1.57615936 5.05302048
v 1.83819902 -2.060112 4.83400202
v 1.7696327 -1.18550754 15.7010107
v 1.96107519 -0.7414608 15.8904572
v 2.35018301 -1.05907834 5.27362585
v 2.12725306 -1.57615936 5.05302048
v 1.96107519 -0.7414608 15.8904572
v 2.09132743 -0.276391298 16.0811768
v 2.50185847 -0.517516434 5.49571466
v 2.35018301 -1.05907834 5.27362585
v 2.09132743 -0.276391298 16.0811768
v 2.15656066 0.201698497 16.2730713
v 2.57782078 0.0392072685 5.71917057
v 2.50185847 -0.517516434 5.49571466
v 2.15656066 0.201698497 16.2730713
v 2.15437484 0.683684587 16.4660702
v 2.57527566 0.60046804 5.94391394
v 2.57782078 0.0392072685 5.71917057
v 2.15437484 0.683684587 16.4660702
v 2.08319616 1.15997493 16.6601295
v 2.49238968 1.15509629 6.16989088
v 2.57527566 0.60046804 5.94391394
v 2.08319616 1.15997493 16.6601295
v 1.94332027 1.62022591 16.8552704
v 2.32950783 1.69104695 6.39712763
v 2.49238968 1.15509629 6.16989088
v 1.94332027 1.62022591 16.8552704
v 1.73605144 2.05384302 17.0515022
v 2.08814836 2.19598317 6.62563419
v 2.32950783 1.69104695 6.39712763
v 1.73605144 2.05384302 17.0515022
v 1.46485364 2.44997716 17.2487316
v 1.77234542 2.65727139 6.85530329
v 2.08814836 2.19598317 6.62563419
v 1.46485364 2.44997716 17.2487316
v 1.13442671 2.79784536 17.4468269
v 1.38757157 3.06235552 7.08597946
v 1.77234542 2.65727139 6.85530329
v 1.13442671 2.79784536 17.4468269
v 0.75224942 3.0871768 17.6455841
v 0.942535579 3.39927459 7.31742811
v 1.38757157 3.06235552 7.08597946
v 0.75224942 3.0871768 17.6455841
v 0.327165306 3.30823946 17.8448029
v 0.447535753 3.65669632 7.5494132
v 0.942535579 3.39927459 7.31742811
v 0.327165306 3.30823946 17.8448029
v -0.129305601 3.4529388 18.0443764
v -0.0840132013 3.82519531 7.78181076
v 0.447535753 3.65669632 7.5494132
v -0.129305601 3.4529388 18.0443764
v -0.604282558 3.5142827 18.2442112
v -0.637111962 3.89662862 8.01451397
v -0.0840132013 3.82519531 7.78181076
v -0.604282558 3.5142827 18.2442112
v -1.08211684 3.48804402 18.4442081
v -1.19353795 3.86607432 8.24740505
v -0.637111962 3.89662862 8.01451397
v -1.08211684 3.48804402 18.4442081
v -1.54619837 3.3717792 18.6441956
v -1.7339493 3.7306869 8.48028851
v -1.19353795 3.86607432 8.24740505
v -1.54619837 3.3717792 18.6441956
v -1.97883856 3.16741443 18.8437042
v -2.23774791 3.4927094 8.71260929
v -1.7339493 3.7306869 8.48028851
v -1.97883856 3.16741443 18.8437042
v -2.36184645 2.87934971 19.0422611
v -2.68375087 3.15726542 8.94382286
v -2.23774791 3.4927094 8.71260929
v -2.36184645 2.87934971 19.0422611
v -2.67610216 2.51751709 19.2396526
v -3.04969382 2.73592019 9.17368126
v -2.68375087 3.15726542 8.94382286
v -2.67610216 2.51751709 19.2396526
v -2.90346694 2.09498382 19.4356422
v -3.31445432 2.24389076 9.40190697
v -3.04969382 2.73592019 9.17368126
v -2.90346694 2.09498382 19.4356422
v -3.03065753 1.63182831 19.6296177
v -3.46256495 1.70455766 9.62778568
v -3.31445432 2.24389076 9.40190697
v -3.03065753 1.63182831 19.6296177
v -3.04640961 1.15104449 19.8208866
v -3.48090792 1.14469695 9.85051537
v -3.46256495 1.70455766 9.62778568
v -3.04640961 1.15104449 19.8208866
v -2.94267797 0.680279434 20.0088329
v -3.36011481 0.596502781 10.0693722
v -3.48090792 1.14469695 9.85051537
v -2.94267797 0.680279434 20.0088329
v -2.71692276 0.24961172 20.1926727
v -3.09722877 0.0950010344 10.2834501
v -3.36011481 0.596502781 10.0693722
v -2.71692276 0.24961172 20.1926727
v -2.38540912 -0.105805099 20.3709354
v -2.71118903 -0.318872929 10.4910336
v -3.09722877 0.0950010344 10.2834501
v -2.38540912 -0.105805099 20.3709354
v -1.96965921 -0.3518354 20.5421505
v -2.22705889 -0.605368912 10.6904078
v -2.71118903 -0.318872929 10.4910336
v -1.96965921 -0.3518354 20.5421505
v -1.49342513 -0.463491827 20.7055206
v -1.6724962 -0.735390186 10.8806515
v -2.22705889 -0.605368912 10.6904078
v -1.49342513 -0.463491827 20.7055206
v -0.995343029 -0.426895618 20.8579769
v -1.0924921 -0.692774713 11.0581808
v -1.6724962 -0.735390186 10.8806515
v -0.995343029 -0.426895618 20.8579769
v -0.571359694 -0.2634556 20.9866676
v -0.598774135 -0.50245297 11.2080374
v -1.0924921 -0.692774713 11.0581808
v -0.571359694 -0.2634556 20.9866676
v -0.302537113 -0.0128263999 21.0804443
v -0.285736948 -0.210601613 11.3172388
v -0.598774135 -0.50245297 11.2080374
v -0.302537113 -0.0128263999 21.0804443
v -0.153087705 0.2476428 21.1447887
v -0.111706853 0.0927083045 11.3921652
v -0.285736948 -0.210601613 11.3172388
v -0.111706853 0.0927083045 11.3921652
v -0.153087705 0.2476428 21.1447887
v -0.0643139035 0.452052325 21.1893749
v -0.0083319908 0.330738068 11.4440823
vt 0.00573325064 0.997823834
vt 0.00930838659 0.0062216646
vt 0.00573320733 0.0062216646
vt 0.0093084313 0.997823834
vt 0.0141521748 0.997823834
vt 0.0141521264 0.0062216646
vt 0.020381093 0.0062216646
vt 0.0203811377 0.997823834
vt 0.02787867 0.997823834
vt 0.0278786328 0.0062216646
vt 0.0360670239 0.0062216646
vt 0.0360670649 0.997823834
vt 0.0360670239 0.0062216646
vt 0.0360670649 0.997823834
vt 0.0443686098 0.997823834
vt 0.0443685651 0.0062216646
vt 0.0443686098 0.997823834
vt 0.052658204 0.997823834
vt 0.0526581667 0.0062216646
vt 0.0443685651 0.0062216646
vt 0.052658204 0.997823834
vt 0.060963273 0.997823834
vt 0.0609632283 0.0062216646
vt 0.0526581667 0.0062216646
vt 0.060963273 0.997823834
vt 0.0692374036 0.997823834
vt 0.0692373663 0.0062216646
vt 0.0609632283 0.0062216646
vt 0.0692374036 0.997823834
vt 0.0775178596 0.997823834
vt 0.0775178224 0.0062216646
vt 0.0692373663 0.0062216646
vt 0.0775178596 0.997823834
vt 0.0858060494 0.997823834
vt 0.0858060047 0.0062216646
vt 0.0775178224 0.0062216646
vt 0.0858060494 0.997823834
vt 0.0940822884 0.997823834
vt 0.0940822437 0.0062216646
vt 0.0858060047 0.0062216646
vt 0.0940822884 0.997823834
vt 0.102373987 0.997823834
vt 0.102373943 0.0062216646
vt 0.0940822437 0.0062216646
vt 0.102373987 0.997823834
vt 0.110660799 0.997823834
vt 0.110660739 0.0062216646
vt 0.102373943 0.0062216646
vt 0.110660799 0.997823834
vt 0.118951775 0.997823834
vt 0.11895173 0.0062216646
vt 0.110660739 0.0062216646
vt 0.118951775 0.997823834
vt 0.127241388 0.997823834
vt 0.127241343 0.0062216646
vt 0.11895173 0.0062216646
vt 0.127241388 0.997823834
vt 0.135535195 0.997823834
vt 0.135535151 0.0062216646
vt 0.127241343 0.0062216646
vt 0.135535195 0.997823834
vt 0.143829703 0.997823834
vt 0.143829644 0.0062216646
vt 0.135535151 0.0062216646
vt 0.143829703 0.997823834
vt 0.152123526 0.997823834
vt 0.152123481 0.0062216646
vt 0.143829644 0.0062216646
vt 0.152123526 0.997823834
vt 0.160413831 0.997823834
vt 0.160413787 0.0062216646
vt 0.152123481 0.0062216646
vt 0.160413831 0.997823834
vt 0.168707639 0.997823834
vt 0.168707594 0.0062216646
vt 0.160413787 0.0062216646
vt 0.168707639 0.997823834
vt 0.177004263 0.997823834
vt 0.177004203 0.0062216646
vt 0.168707594 0.0062216646
vt 0.177004263 0.997823834
vt 0.185295239 0.997823834
vt 0.185295194 0.0062216646
vt 0.177004203 0.0062216646
vt 0.185295239 0.997823834
vt 0.193584159 0.997823834
vt 0.193584114 0.0062216646
vt 0.185295194 0.0062216646
vt 0.193584159 0.997823834
vt 0.201880082 0.997823834
vt 0.201880038 0.0062216646
vt 0.193584114 0.0062216646
vt 0.201880082 0.997823834
vt 0.210176006 0.997823834
vt 0.210175961 0.0062216646
vt 0.201880038 0.0062216646
vt 0.210176006 0.997823834
vt 0.218474045 0.997823834
vt 0.218474001 0.0062216646
vt 0.210175961 0.0062216646
vt 0.218474045 0.997823834
vt 0.226771384 0.997823834
vt 0.226771325 0.0062216646
vt 0.218474001 0.0062216646
vt 0.226771384 0.997823834
vt 0.235067278 0.997823834
vt 0.235067248 0.0062216646
vt 0.226771325 0.0062216646
vt 0.235067278 0.997823834
vt 0.243363917 0.997823834
vt 0.243363857 0.0062216646
vt 0.235067248 0.0062216646
vt 0.243363917 0.997823834
vt 0.251661927 0.997823834
vt 0.251661897 0.0062216646
vt 0.243363857 0.0062216646
vt 0.251661927 0.997823834
vt 0.259958595 0.997823834
vt 0.259958535 0.0062216646
vt 0.251661897 0.0062216646
vt 0.259958595 0.997823834
vt 0.268253803 0.997823834
vt 0.268253773 0.0062216646
vt 0.259958535 0.0062216646
vt 0.268253803 0.997823834
vt 0.276549757 0.997823834
vt 0.276549727 0.0062216646
vt 0.268253773 0.0062216646
vt 0.276549757 0.997823834
vt 0.284846365 0.997823834
vt 0.284846306 0.0062216646
vt 0.276549727 0.0062216646
vt 0.284846365 0.997823834
vt 0.293141574 0.997823834
vt 0.293141544 0.0062216646
vt 0.284846306 0.0062216646
vt 0.293141574 0.997823834
vt 0.301436812 0.997823834
vt 0.301436782 0.0062216646
vt 0.293141544 0.0062216646
vt 0.301436812 0.997823834
vt 0.30973205 0.997823834
vt 0.30973199 0.0062216646
vt 0.301436782 0.0062216646
vt 0.30973205 0.997823834
vt 0.318027228 0.997823834
vt 0.318027198 0.0062216646
vt 0.30973199 0.0062216646
vt 0.318027228 0.997823834
vt 0.32632181 0.997823834
vt 0.326321721 0.0062216646
vt 0.318027198 0.0062216646
vt 0.32632181 0.997823834
vt 0.334616244 0.997823834
vt 0.334616184 0.0062216646
vt 0.326321721 0.0062216646
vt 0.334616244 0.997823834
vt 0.342910081 0.997823834
vt 0.342910051 0.0062216646
vt 0.334616184 0.0062216646
vt 0.342910081 0.997823834
vt 0.351203859 0.997823834
vt 0.351203829 0.0062216646
vt 0.342910051 0.0062216646
vt 0.351203859 0.997823834
vt 0.359497696 0.997823834
vt 0.359497666 0.0062216646
vt 0.351203829 0.0062216646
vt 0.359497696 0.997823834
vt 0.367791504 0.997823834
vt 0.367791474 0.0062216646
vt 0.359497666 0.0062216646
vt 0.367791504 0.997823834
vt 0.376084596 0.997823834
vt 0.376084566 0.0062216646
vt 0.367791474 0.0062216646
vt 0.376084596 0.997823834
vt 0.384377718 0.997823834
vt 0.384377688 0.0062216646
vt 0.376084566 0.0062216646
vt 0.384377718 0.997823834
vt 0.392670155 0.997823834
vt 0.392670125 0.0062216646
vt 0.384377688 0.0062216646
vt 0.392670155 0.997823834
vt 0.400962561 0.997823834
vt 0.400962532 0.0062216646
vt 0.392670125 0.0062216646
vt 0.400962561 0.997823834
vt 0.409254938 0.997823834
vt 0.409254909 0.0062216646
vt 0.400962532 0.0062216646
vt 0.409254938 0.997823834
vt 0.417547375 0.997823834
vt 0.417547345 0.0062216646
vt 0.409254909 0.0062216646
vt 0.417547375 0.997823834
vt 0.425839067 0.997823834
vt 0.425839037 0.0062216646
vt 0.417547345 0.0062216646
vt 0.425839067 0.997823834
vt 0.434130758 0.997823834
vt 0.434130728 0.0062216646
vt 0.425839037 0.0062216646
vt 0.434130758 0.997823834
vt 0.442421794 0.997823834
vt 0.442421764 0.0062216646
vt 0.434130728 0.0062216646
vt 0.442421794 0.997823834
vt 0.450712055 0.997823834
vt 0.450712025 0.0062216646
vt 0.442421764 0.0062216646
vt 0.450712055 0.997823834
vt 0.459003091 0.997823834
vt 0.459003061 0.0062216646
vt 0.450712025 0.0062216646
vt 0.459003091 0.997823834
vt 0.467293382 0.997823834
vt 0.467293352 0.0062216646
vt 0.459003061 0.0062216646
vt 0.467293382 0.997823834
vt 0.475583702 0.997823834
vt 0.475583673 0.0062216646
vt 0.467293352 0.0062216646
vt 0.475583702 0.997823834
vt 0.483873218 0.997823834
vt 0.483873218 0.0062216646
vt 0.475583673 0.0062216646
vt 0.483873218 0.997823834
vt 0.492162913 0.997823834
vt 0.492162853 0.0062216646
vt 0.483873218 0.0062216646
vt 0.492162913 0.997823834
vt 0.500452518 0.997823834
vt 0.500452459 0.0062216646
vt 0.492162853 0.0062216646
vt 0.500452518 0.997823834
vt 0.508742094 0.997823834
vt 0.508742094 0.0062216646
vt 0.500452459 0.0062216646
vt 0.508742094 0.997823834
vt 0.517030239 0.997823834
vt 0.51703018 0.0062216646
vt 0.508742094 0.0062216646
vt 0.517030239 0.997823834
vt 0.525319099 0.997823834
vt 0.52531904 0.0062216646
vt 0.51703018 0.0062216646
vt 0.525319099 0.997823834
vt 0.533607304 0.997823834
vt 0.533607244 0.0062216646
vt 0.52531904 0.0062216646
vt 0.533607304 0.997823834
vt 0.541894853 0.997823834
vt 0.541894794 0.0062216646
vt 0.533607244 0.0062216646
vt 0.541894853 0.997823834
vt 0.550182998 0.997823834
vt 0.550182939 0.0062216646
vt 0.541894794 0.0062216646
vt 0.550182998 0.997823834
vt 0.558470547 0.997823834
vt 0.558470488 0.0062216646
vt 0.550182939 0.0062216646
vt 0.558470547 0.997823834
vt 0.566757321 0.997823834
vt 0.566757262 0.0062216646
vt 0.558470488 0.0062216646
vt 0.566757321 0.997823834
vt 0.575044096 0.997823834
vt 0.575044036 0.0062216646
vt 0.566757262 0.0062216646
vt 0.575044096 0.997823834
vt 0.58333087 0.997823834
vt 0.58333081 0.0062216646
vt 0.575044036 0.0062216646
vt 0.58333087 0.997823834
vt 0.591617644 0.997823834
vt 0.591617584 0.0062216646
vt 0.58333081 0.0062216646
vt 0.591617644 0.997823834
vt 0.599903762 0.997823834
vt 0.599903703 0.0062216646
vt 0.591617584 0.0062216646
vt 0.599903762 0.997823834
vt 0.608189881 0.997823834
vt 0.608189821 0.0062216646
vt 0.599903703 0.0062216646
vt 0.608189881 0.997823834
vt 0.616475165 0.997823834
vt 0.616475105 0.0062216646
vt 0.608189821 0.0062216646
vt 0.616475165 0.997823834
vt 0.624760628 0.997823834
vt 0.624760568 0.0062216646
vt 0.616475105 0.0062216646
vt 0.624760628 0.997823834
vt 0.633045316 0.997823834
vt 0.633045256 0.0062216646
vt 0.624760568 0.0062216646
vt 0.633045316 0.997823834
vt 0.641329944 0.997823834
vt 0.641329885 0.0062216646
vt 0.633045256 0.0062216646
vt 0.641329944 0.997823834
vt 0.649613976 0.997823834
vt 0.649613857 0.0062216646
vt 0.641329885 0.0062216646
vt 0.649613976 0.997823834
vt 0.657898605 0.997823834
vt 0.657898486 0.0062216646
vt 0.649613857 0.0062216646
vt 0.657898605 0.997823834
vt 0.666181803 0.997823834
vt 0.666181743 0.0062216646
vt 0.657898486 0.0062216646
vt 0.666181803 0.997823834
vt 0.67446512 0.997823834
vt 0.67446506 0.0062216646
vt 0.666181743 0.0062216646
vt 0.67446512 0.997823834
vt 0.682748377 0.997823834
vt 0.682748318 0.0062216646
vt 0.67446506 0.0062216646
vt 0.682748377 0.997823834
vt 0.691030979 0.997823834
vt 0.69103092 0.0062216646
vt 0.682748318 0.0062216646
vt 0.691030979 0.997823834
vt 0.699313521 0.997823834
vt 0.699313462 0.0062216646
vt 0.69103092 0.0062216646
vt 0.699313521 0.997823834
vt 0.707595408 0.997823834
vt 0.707595348 0.0062216646
vt 0.699313462 0.0062216646
vt 0.707595408 0.997823834
vt 0.715877295 0.997823834
vt 0.715877235 0.00622159569
vt 0.707595348 0.0062216646
vt 0.715877295 0.997823834
vt 0.724158466 0.997823834
vt 0.724158406 0.00622159569
vt 0.715877235 0.00622159569
vt 0.724158466 0.997823834
vt 0.732438922 0.997823834
vt 0.732438862 0.00622159569
vt 0.724158406 0.00622159569
vt 0.732438922 0.997823834
vt 0.740719318 0.997823834
vt 0.740719259 0.00622159569
vt 0.732438862 0.00622159569
vt 0.740719318 0.997823834
vt 0.748999059 0.997823834
vt 0.748999 0.00622159569
vt 0.740719259 0.00622159569
vt 0.748999059 0.997823834
vt 0.75727886 0.997823834
vt 0.7572788 0.00622159569
vt 0.748999 0.00622159569
vt 0.75727886 0.997823834
vt 0.76555717 0.997823834
vt 0.76555711 0.00622159569
vt 0.7572788 0.00622159569
vt 0.76555717 0.997823834
vt 0.77383554 0.997823834
vt 0.77383548 0.00622159569
vt 0.76555711 0.00622159569
vt 0.77383554 0.997823834
vt 0.782113254 0.997823834
vt 0.782113194 0.00622159569
vt 0.77383548 0.00622159569
vt 0.782113254 0.997823834
vt 0.79039079 0.997823834
vt 0.79039073 0.00622159569
vt 0.782113194 0.00622159569
vt 0.79039079 0.997823834
vt 0.798666418 0.997823834
vt 0.798666358 0.00622159569
vt 0.79039073 0.00622159569
vt 0.798666418 0.997823834
vt 0.806942642 0.997823834
vt 0.806942582 0.00622159569
vt 0.798666358 0.00622159569
vt 0.806942642 0.997823834
vt 0.81521672 0.997823834
vt 0.81521666 0.00622159569
vt 0.806942582 0.00622159569
vt 0.81521672 0.997823834
vt 0.823492348 0.997823834
vt 0.823492289 0.00622159569
vt 0.81521666 0.00622159569
vt 0.823492348 0.997823834
vt 0.831765771 0.997823834
vt 0.831765711 0.00622159569
vt 0.823492289 0.00622159569
vt 0.831765771 0.997823834
vt 0.840037763 0.997823834
vt 0.840037704 0.00622159569
vt 0.831765711 0.00622159569
vt 0.840037763 0.997823834
vt 0.848309159 0.997823834
vt 0.8483091 0.00622159569
vt 0.840037704 0.00622159569
vt 0.848309159 0.997823834
vt 0.856581867 0.997823834
vt 0.856581807 0.00622159569
vt 0.8483091 0.00622159569
vt 0.856581867 0.997823834
vt 0.864850998 0.997823834
vt 0.864850938 0.00622159569
vt 0.856581807 0.00622159569
vt 0.864850998 0.997823834
vt 0.873118162 0.997823834
vt 0.873118103 0.00622159569
vt 0.864850938 0.00622159569
vt 0.873118162 0.997823834
vt 0.881382406 0.997823834
vt 0.881382346 0.00622159569
vt 0.873118103 0.00622159569
vt 0.881382406 0.997823834
vt 0.889653027 0.997823834
vt 0.889652967 0.00622159569
vt 0.881382346 0.00622159569
vt 0.889653027 0.997823834
vt 0.897915959 0.997823834
vt 0.8979159 0.00622159569
vt 0.889652967 0.00622159569
vt 0.897915959 0.997823834
vt 0.906179607 0.997823834
vt 0.906179488 0.00622159569
vt 0.8979159 0.00622159569
vt 0.906179607 0.997823834
vt 0.914437532 0.997823834
vt 0.914437473 0.00622159569
vt 0.906179488 0.00622159569
vt 0.914437532 0.997823834
vt 0.92269057 0.997823834
vt 0.922690511 0.00622159569
vt 0.914437473 0.00622159569
vt 0.92269057 0.997823834
vt 0.930939436 0.997823834
vt 0.930939376 0.00622159569
vt 0.922690511 0.00622159569
vt 0.930939436 0.997823834
vt 0.939226925 0.997823834
vt 0.939226806 0.00622159569
vt 0.930939376 0.00622159569
vt 0.939226925 0.997823834
vt 0.947480023 0.997823834
vt 0.947479963 0.00622159569
vt 0.939226806 0.00622159569
vt 0.947480023 0.997823834
vt 0.955651462 0.997823834
vt 0.955651402 0.00622159569
vt 0.947479963 0.00622159569
vt 0.955651462 0.997823834
vt 0.96387291 0.997823834
vt 0.96387285 0.00622159569
vt 0.955651402 0.00622159569
vt 0.96387291 0.997823834
vt 0.972198308 0.997823834
vt 0.972198248 0.00622159569
vt 0.96387285 0.00622159569
vt 0.972198308 0.997823834
vt 0.979727507 0.997823834
vt 0.979727447 0.00622159569
vt 0.972198248 0.00622159569
vt 0.979727507 0.997823834
vt 0.985774517 0.997823834
vt 0.985774398 0.00622159569
vt 0.979727447 0.00622159569
vt 0.985774517 0.997823834
vt 0.990670919 0.997823834
vt 0.9906708 0.00622159569
vt 0.985774398 0.00622159569
vt 0.9906708 0.00622159569
vt 0.990670919 0.997823834
vt 0.994293809 0.997823834
vt 0.994293809 0.00622159569
vn -0.999999881 -0.000544999959 0
vn -0.999999642 -0.000867999683 0
vn -0.999999642 -0.000859999622 0
vn -0.999999881 -0.000522999966 -1.99999977E-06
vn -1 5.70000047E-05 0
vn -1 5.70000047E-05 0
vn -0.999992609 -0.00386699825 0
vn -0.999992609 -0.00386699825 0
vn -0.999881983 -0.0153660011 0
vn -0.999881983 -0.0153670004 0
vn -0.999172866 -0.0406629965 0
vn -0.999173224 -0.0406540111 0
vn -0.99601835 -0.0891490281 0
vn -0.985227823 -0.171248987 0
vn -0.996023417 -0.0890920386 0
vn -0.996019542 -0.0891349539 0
vn -0.985150158 -0.171695024 0
vn -0.985227823 -0.171248987 0
vn -0.985201895 -0.171397984 0
vn -0.985192776 -0.171449959 0
vn -0.956242979 -0.292573988 0
vn -0.956587851 -0.291443974 0
vn -0.956472695 -0.291821897 0
vn -0.9564327 -0.291952908 0
vn -0.895938635 -0.444177836 0
vn -0.8970263 -0.441977143 0
vn -0.896662891 -0.442713976 0
vn -0.89653635 -0.442970157 0
vn -0.790462077 -0.612511039 0
vn -0.793095827 -0.609096825 0
vn -0.792215049 -0.610242069 0
vn -0.791908979 -0.610639036 0
vn -0.64153868 -0.767090619 0
vn -0.645988822 -0.763346851 0
vn -0.644501209 -0.764603317 0
vn -0.64398396 -0.765038967 0
vn -0.464572132 -0.885535359 0
vn -0.470852822 -0.882211685 0
vn -0.46875307 -0.883329153 0
vn -0.468023151 -0.883716226 0
vn -0.277627915 -0.96068871 0
vn -0.284860015 -0.958569109 0
vn -0.282443017 -0.959284067 0
vn -0.281602055 -0.959531248 0
vn -0.0991050005 -0.995077074 0
vn -0.106649965 -0.99429661 0
vn -0.104129001 -0.994563878 0
vn -0.10325104 -0.994655371 0
vn 0.0653210208 -0.997864306 0
vn 0.0578500181 -0.998325288 0
vn 0.0603469573 -0.998177409 0
vn 0.0612149686 -0.99812454 0
vn 0.213732064 -0.976892233 0
vn 0.206579953 -0.978429794 0
vn 0.208969966 -0.977921963 0
vn 0.209801987 -0.977743924 0
vn 0.346334934 -0.938110888 0
vn 0.339627057 -0.940560162 0
vn 0.341868877 -0.939747691 0
vn 0.342648834 -0.939463556 0
vn 0.464017123 -0.88582623 0
vn 0.45780009 -0.889055192 0
vn 0.459878117 -0.88798213 0
vn 0.460601121 -0.887607217 0
vn 0.568500817 -0.822682738 0
vn 0.562751889 -0.826625824 0
vn 0.56467402 -0.825313985 0
vn 0.565342963 -0.824855983 0
vn 0.661103666 -0.750294626 0
vn 0.655849636 -0.754891574 0
vn 0.657607138 -0.753361106 0
vn 0.658218205 -0.752827227 0
vn 0.741961002 -0.670442998 0
vn 0.737279654 -0.675587714 0
vn 0.738846123 -0.67387408 0
vn 0.739390671 -0.673276663 0
vn 0.811363697 -0.584541798 0
vn 0.807239294 -0.590224266 0
vn 0.808620095 -0.588331103 0
vn 0.809099972 -0.587671041 0
vn 0.870871246 -0.491511136 0
vn 0.867225111 -0.497916132 0
vn 0.868447065 -0.495782018 0
vn 0.86887145 -0.495037705 0
vn 0.920464993 -0.390825003 0
vn 0.917446613 -0.397858828 0
vn 0.918459952 -0.395514011 0
vn 0.918811381 -0.39469713 0
vn 0.957129657 -0.289659888 0
vn 0.95500052 -0.296604156 0
vn 0.955717742 -0.29428497 0
vn 0.955965877 -0.293477982 0
vn 0.980653584 -0.195750937 0
vn 0.979273975 -0.202539995 0
vn 0.979741096 -0.20026803 0
vn 0.979902267 -0.199478045 0
vn 0.993914425 -0.110155039 0
vn 0.993140638 -0.116925962 0
vn 0.993405044 -0.114658013 0
vn 0.993495584 -0.11386995 0
vn 0.999503255 -0.0315180048 0
vn 0.999263108 -0.0383810028 0
vn 0.999348819 -0.0360809937 0
vn 0.999377429 -0.0352830142 0
vn 0.998997033 0.0447760038 0
vn 0.999305964 0.0372499973 0
vn 0.999208868 0.0397709943 0
vn 0.999173582 0.0406469814 0
vn 0.992492974 0.122302003 0
vn 0.993469596 0.114096954 0
vn 0.993150294 0.116844036 0
vn 0.993037522 0.117798939 0
vn 0.97989583 0.199509963 0
vn 0.981582046 0.191041008 0
vn 0.981025994 0.193875998 0
vn 0.980830848 0.19486095 0
vn 0.961560547 0.274592876 0
vn 0.963980794 0.265971959 0
vn 0.963179886 0.268857956 0
vn 0.962899268 0.269861072 0
vn 0.937603712 0.347705871 0
vn 0.940819919 0.338906974 0
vn 0.93975383 0.34185192 0
vn 0.939380765 0.342875898 0
vn 0.907972515 0.419029772 0
vn 0.912026703 0.410130918 0
vn 0.910681129 0.413110048 0
vn 0.910210967 0.414144963 0
vn 0.872895062 0.487907976 0
vn 0.877768576 0.47908482 0
vn 0.876149833 0.482038915 0
vn 0.875584006 0.483065963 0
vn 0.832666278 0.553775191 0
vn 0.838369012 0.545103014 0
vn 0.836473823 0.548006833 0
vn 0.835811913 0.549015939 0
vn 0.787430048 0.616404057 0
vn 0.793972969 0.607953012 0
vn 0.791797161 0.610784173 0
vn 0.791037142 0.611768067 0
vn 0.737320721 0.675542772 0
vn 0.74470675 0.667391777 0
vn 0.742249548 0.670123577 0
vn 0.741392136 0.671072125 0
vn 0.682687998 0.73071003 0
vn 0.690861821 0.722986817 0
vn 0.688140988 0.725576997 0
vn 0.687191904 0.726475894 0
vn 0.623890638 0.781511605 0
vn 0.632833183 0.774288177 0
vn 0.62985599 0.776711941 0
vn 0.628817737 0.777552724 0
vn 0.561257243 0.827641368 0
vn 0.570918739 0.821006596 0
vn 0.567700922 0.823234916 0
vn 0.566579223 0.824007273 0
vn 0.49509111 0.868841112 0
vn 0.505444944 0.862858891 0
vn 0.501995981 0.864869952 0
vn 0.50079304 0.865567088 0
vn 0.425734967 0.90484792 0
vn 0.436720997 0.899596989 0
vn 0.433061242 0.901364505 0
vn 0.431784838 0.901976585 0
vn 0.353512019 0.93542999 0
vn 0.365098029 0.930969119 0
vn 0.361236989 0.932474017 0
vn 0.359891117 0.932994306 0
vn 0.278824061 0.960342288 0
vn 0.290931016 0.956744134 0
vn 0.286895037 0.957962036 0
vn 0.285488099 0.958382308 0
vn 0.202064052 0.979372323 0
vn 0.214649066 0.976691306 0
vn 0.210452035 0.977604151 0
vn 0.208989948 0.97791779 0
vn 0.12372604 0.992316365 0
vn 0.136682972 0.990614772 0
vn 0.132361919 0.991201401 0
vn 0.130855054 0.991401494 0
vn 0.0442669876 0.999019742 0
vn 0.0575400107 0.998343229 0
vn 0.0531109869 0.998588622 0
vn 0.0515690148 0.998669386 0
vn -0.0357789919 0.999359787 0
vn -0.0223080032 0.999751151 0
vn -0.0268039908 0.999640703 0
vn -0.0283700135 0.99959749 0
vn -0.115939036 0.99325633 0
vn -0.102332033 0.994750321 0
vn -0.106873959 0.99427259 0
vn -0.108457007 0.994101107 0
vn -0.195700929 0.980663717 0
vn -0.182073966 0.983284891 0
vn -0.186624065 0.982431352 0
vn -0.188208997 0.982128978 0
vn -0.27460596 0.961556911 0
vn -0.261021942 0.965332806 0
vn -0.26556012 0.964094341 0
vn -0.267139941 0.963657737 0
vn -0.352138042 0.935948074 0
vn -0.338714153 0.940889359 0
vn -0.343200982 0.939261973 0
vn -0.344762027 0.938690126 0
vn -0.427815109 0.903866231 0
vn -0.414625108 0.909992278 0
vn -0.419035822 0.907969654 0
vn -0.420569986 0.90726006 0
vn -0.501043141 0.865422249 0
vn -0.488226086 0.872717142 0
vn -0.492514223 0.870304346 0
vn -0.494005799 0.869458616 0
vn -0.571291268 0.820747375 0
vn -0.55892688 0.829216897 0
vn -0.563065946 0.826411903 0
vn -0.564505279 0.82542944 0
vn -0.637995839 0.770039797 0
vn -0.626218021 0.779648006 0
vn -0.630164027 0.776461959 0
vn -0.6315341 0.775348127 0
vn -0.70065105 0.713504136 0
vn -0.689546943 0.724240959 0
vn -0.693269968 0.720677912 0
vn -0.694562912 0.719431937 0
vn -0.758673787 0.65147084 0
vn -0.748386204 0.663263202 0
vn -0.751837909 0.659347951 0
vn -0.753036141 0.657979131 0
vn -0.811567128 0.584259093 0
vn -0.802178741 0.597083807 0
vn -0.805333316 0.592822254 0
vn -0.80642736 0.59133321 0
vn -0.858845949 0.512233973 0
vn -0.850476444 0.526013255 0
vn -0.8532933 0.521431148 0
vn -0.854269087 0.519831061 0
vn -0.900074601 0.435735762 0
vn -0.892807126 0.450439095 0
vn -0.895258427 0.445547193 0
vn -0.896106005 0.443839997 0
vn -0.9347561 0.355290025 0
vn -0.92871511 0.370794088 0
vn -0.930759132 0.365633041 0
vn -0.931464493 0.363832206 0
vn -0.962471187 0.27138406 0
vn -0.957738221 0.287641078 0
vn -0.959347665 0.28222692 0
vn -0.959901273 0.280338079 0
vn -0.982813716 0.184599936 0
vn -0.979493678 0.201474935 0
vn -0.980633438 0.195851907 0
vn -0.981023014 0.193891004 0
vn -0.995430946 0.095483996 0
vn -0.993605494 0.112906948 0
vn -0.99424839 0.107098036 0
vn -0.994464457 0.105072945 0
vn -0.999988675 0.00477699842 0
vn -0.999745429 0.0225640088 0
vn -0.999861717 0.0166309942 0
vn -0.999894023 0.0145629998 0
vn -0.996222138 -0.0868410096 0
vn -0.99763155 -0.0687839612 0
vn -0.997197747 -0.0748109743 0
vn -0.997038126 -0.0769100115 0
vn -0.983927429 -0.178569093 0
vn -0.987045527 -0.160439909 0
vn -0.98604244 -0.166494057 0
vn -0.985684156 -0.16860202 0
vn -0.96294868 -0.269684911 0
vn -0.967833638 -0.251590908 0
vn -0.966241598 -0.257637888 0
vn -0.965678096 -0.259742022 0
vn -0.933216333 -0.359315157 0
vn -0.939891219 -0.341474086 0
vn -0.937702179 -0.347440064 0
vn -0.936930299 -0.349516124 0
vn -0.894694746 -0.446677893 0
vn -0.903204858 -0.429209918 0
vn -0.90040338 -0.43505621 0
vn -0.899418175 -0.437089115 0
vn -0.847455084 -0.53086704 0
vn -0.857790172 -0.514000118 0
vn -0.854379117 -0.519650042 0
vn -0.853182137 -0.521613061 0
vn -0.791582882 -0.611061871 0
vn -0.803773046 -0.594936013 0
vn -0.79974246 -0.600343347 0
vn -0.798329711 -0.602220774 0
vn -0.727346003 -0.686271012 0
vn -0.741326034 -0.671145082 0
vn -0.736696005 -0.676223993 0
vn -0.735075414 -0.67798537 0
vn -0.655024052 -0.755608082 0
vn -0.670789659 -0.741647661 0
vn -0.665562868 -0.746341825 0
vn -0.6637339 -0.747968853 0
vn -0.575095952 -0.818085968 0
vn -0.592523873 -0.8055529 0
vn -0.586739063 -0.809776068 0
vn -0.584717214 -0.811237216 0
vn -0.488035798 -0.872823596 0
vn -0.507079959 -0.861898899 0
vn -0.500753105 -0.865590215 0
vn -0.498542249 -0.866865396 0
vn -0.394616038 -0.918846071 0
vn -0.415071875 -0.909788668 0
vn -0.408268869 -0.912861764 0
vn -0.405894041 -0.913920164 0
vn -0.295544952 -0.955328882 0
vn -0.317333937 -0.948313832 0
vn -0.310081899 -0.95070982 0
vn -0.307550907 -0.951531649 0
vn -0.191721097 -0.981449425 0
vn -0.214613035 -0.976699114 0
vn -0.206986934 -0.978343785 0
vn -0.204327911 -0.978902519 0
vn -0.0839899704 -0.996466637 0
vn -0.107868031 -0.994165242 0
vn -0.099906981 -0.994996786 0
vn -0.0971309692 -0.995271623 0
vn 0.026393991 -0.99965167 0
vn 0.00187400065 -0.999998331 0
vn 0.0100570051 -0.999949455 0
vn 0.0129069965 -0.999916673 0
vn 0.138283938 -0.990392685 0
vn 0.113300972 -0.993560672 0
vn 0.121646062 -0.9925735 0
vn 0.124551021 -0.99221319 0
vn 0.25026089 -0.968178451 0
vn 0.225208893 -0.974310517 0
vn 0.233585089 -0.972336411 0
vn 0.236498937 -0.971631765 0
vn 0.360968083 -0.932578206 0
vn 0.336106062 -0.941824138 0
vn 0.344427943 -0.938812792 0
vn 0.347321987 -0.937745929 0
vn 0.468529016 -0.883448064 0
vn 0.444396973 -0.895829916 0
vn 0.452484995 -0.891772032 0
vn 0.455294877 -0.890340745 0
vn 0.571289003 -0.820748985 0
vn 0.548192918 -0.836351931 0
vn 0.555946946 -0.831217825 0
vn 0.558637202 -0.829412162 0
vn 0.667369068 -0.744727135 0
vn 0.645836055 -0.763476074 0
vn 0.653079987 -0.757288992 0
vn 0.655590057 -0.755117059 0
vn 0.755065501 -0.655649424 0
vn 0.73545289 -0.677575886 0
vn 0.742068291 -0.670324326 0
vn 0.744356036 -0.667783082 0
vn 0.832320929 -0.55429399 0
vn 0.815213978 -0.579159975 0
vn 0.821004987 -0.570921004 0
vn 0.823002994 -0.568036973 0
vn 0.897289217 -0.441443115 0
vn 0.883104801 -0.469175905 0
vn 0.887933493 -0.459971726 0
vn 0.889593601 -0.456752777 0
vn 0.94793421 -0.318466097 0
vn 0.937256336 -0.348641157 0
vn 0.940926075 -0.33861202 0
vn 0.942179739 -0.335107923 0
vn 0.982408226 -0.186746061 0
vn 0.975696802 -0.219124973 0
vn 0.978054821 -0.208347976 0
vn 0.978848338 -0.204587087 0
vn 0.998818099 -0.048603002 0
vn 0.996594727 -0.0824549794 0
vn 0.99746418 -0.0711710081 0
vn 0.99773705 -0.0672369972 0
vn 0.995593369 0.093775034 0
vn 0.998266697 0.0588519834 0
vn 0.99751091 0.0705119967 0
vn 0.997215629 0.0745719671 0
vn 0.971429765 0.23732695 0
vn 0.979330838 0.202264965 0
vn 0.976835132 0.213993013 0
vn 0.975932717 0.218071923 0
vn 0.925283194 0.37927705 0
vn 0.93874377 0.344615906 0
vn 0.934396803 0.356233984 0
vn 0.932848036 0.360270023 0
vn 0.856576443 0.516020238 0
vn 0.875700951 0.482853949 0
vn 0.869463027 0.493997991 0
vn 0.867256165 0.497862101 0
vn 0.764950752 0.644088745 0
vn 0.789922178 0.613207102 0
vn 0.781729996 0.623616993 0
vn 0.778842926 0.627218962 0
vn 0.651218951 0.758889914 0
vn 0.681646109 0.731682122 0
vn 0.671623051 0.740893006 0
vn 0.668100834 0.744070768 0
vn 0.516410947 0.856340885 0
vn 0.55216074 0.833737671 0
vn 0.540347099 0.841442168 0
vn 0.536204159 0.844088316 0
vn 0.363082945 0.931756854 0
vn 0.403201997 0.915110946 0
vn 0.389907092 0.920854211 0
vn 0.385253012 0.922810912 0
vn 0.193958938 0.981009722 0
vn 0.237910047 0.971287131 0
vn 0.223306999 0.974748075 0
vn 0.218204051 0.975903153 0
vn 0.0136880046 0.999906301 0
vn 0.05993402 0.998202324 0
vn 0.0445270129 0.999008238 0
vn 0.0391530059 0.999233246 0
vn -0.173362032 0.984858155 0
vn -0.125728935 0.992064655 0
vn -0.141642988 0.989917815 0
vn -0.147184029 0.989109159 0
vn -0.359865993 0.933003962 0
vn -0.313306034 0.949652135 0
vn -0.328910112 0.944361269 0
vn -0.334330887 0.942455709 0
vn -0.538599789 0.842561662 0
vn -0.494764119 0.869027317 0
vn -0.509514928 0.860461831 0
vn -0.514625907 0.857414842 0
vn -0.70089221 0.713267267 0
vn -0.662305713 0.749233663 0
vn -0.675365269 0.737483382 0
vn -0.67987293 0.733329952 0
vn -0.838230371 0.545316219 0
vn -0.806929529 0.590647638 0
vn -0.817627907 0.575746953 0
vn -0.82129693 0.57050097 0
vn -0.938365757 0.345643908 0
vn -0.917690098 0.397297055 0
vn -0.924889386 0.380236179 0
vn -0.927327871 0.374249905 0
vn -0.992618144 0.12128102 0
vn -0.984037757 0.177959964 0
vn -0.987252116 0.159164011 0
vn -0.988290191 0.152586013 0
vn -0.992542148 -0.121902011 0
vn -0.998059928 -0.0622609891 0
vn -0.996622086 -0.0821240097 0
vn -0.996026635 -0.0890559703 0
vn -0.928030491 -0.372504205 0
vn -0.949458063 -0.313894033 0
vn -0.942744136 -0.333516985 0
vn -0.940302432 -0.340340137 0
vn -0.797686815 -0.603071868 0
vn -0.833037138 -0.553217053 0
vn -0.821644783 -0.569999814 0
vn -0.817579985 -0.575815022 0
vn -0.601899147 -0.798572123 0
vn -0.651273251 -0.758843303 0
vn -0.635188878 -0.772356868 0
vn -0.629491985 -0.777006984 0
vn -0.341870099 -0.939747155 0
vn -0.401855946 -0.915702939 0
vn -0.382157117 -0.9240973 0
vn -0.375216961 -0.926936984 0
vn -0.0465680026 -0.998915076 0
vn -0.106612958 -0.994300604 0
vn -0.0867979899 -0.996225953 0
vn -0.0798409805 -0.996807694 0
vn 0.238681957 -0.971097827 0
vn 0.185989931 -0.982551575 0
vn 0.203263998 -0.97912395 0
vn 0.209354937 -0.977839708 0
vn 0.540975392 -0.841038525 0
vn 0.486011237 -0.873952508 0
vn 0.503913105 -0.863754272 0
vn 0.510253906 -0.860023856 0
vn 0.787947953 -0.615741968 0
vn 0.760206997 -0.649681032 0
vn 0.769279897 -0.638911903 0
vn 0.772484124 -0.635034144 0
vn 0.889629006 -0.456683993 0
vn 0.893237054 -0.449586034 0
vn 0.886779904 -0.462191969 0
vn 0.888884187 -0.458132058 0
g nurbsToSubd1_0
f 3/3/3 2/2/2 1/1/1
f 2/2/2 4/4/4 1/1/1
f 5/5/5 4/4/4 2/2/2
f 6/6/6 5/5/5 2/2/2
f 6/6/6 7/7/7 5/5/5
f 7/7/7 8/8/8 5/5/5
f 9/9/9 8/8/8 7/7/7
f 10/10/10 9/9/9 7/7/7
f 10/10/10 11/11/11 9/9/9
f 11/11/11 12/12/12 9/9/9
f 15/15/15 14/14/14 13/13/13
f 16/16/16 15/15/15 13/13/13
f 19/19/19 18/18/18 17/17/17
f 20/20/20 19/19/19 17/17/17
f 23/23/23 22/22/22 21/21/21
f 24/24/24 23/23/23 21/21/21
f 27/27/27 26/26/26 25/25/25
f 28/28/28 27/27/27 25/25/25
f 31/31/31 30/30/30 29/29/29
f 32/32/32 31/31/31 29/29/29
f 35/35/35 34/34/34 33/33/33
f 36/36/36 35/35/35 33/33/33
f 39/39/39 38/38/38 37/37/37
f 40/40/40 39/39/39 37/37/37
f 43/43/43 42/42/42 41/41/41
f 44/44/44 43/43/43 41/41/41
f 47/47/47 46/46/46 45/45/45
f 48/48/48 47/47/47 45/45/45
f 51/51/51 50/50/50 49/49/49
f 52/52/52 51/51/51 49/49/49
f 55/55/55 54/54/54 53/53/53
f 56/56/56 55/55/55 53/53/53
f 59/59/59 58/58/58 57/57/57
f 60/60/60 59/59/59 57/57/57
f 63/63/63 62/62/62 61/61/61
f 64/64/64 63/63/63 61/61/61
f 67/67/67 66/66/66 65/65/65
f 68/68/68 67/67/67 65/65/65
f 71/71/71 70/70/70 69/69/69
f 72/72/72 71/71/71 69/69/69
f 75/75/75 74/74/74 73/73/73
f 76/76/76 75/75/75 73/73/73
f 79/79/79 78/78/78 77/77/77
f 80/80/80 79/79/79 77/77/77
f 83/83/83 82/82/82 81/81/81
f 84/84/84 83/83/83 81/81/81
f 87/87/87 86/86/86 85/85/85
f 88/88/88 87/87/87 85/85/85
f 91/91/91 90/90/90 89/89/89
f 92/92/92 91/91/91 89/89/89
f 95/95/95 94/94/94 93/93/93
f 96/96/96 95/95/95 93/93/93
f 99/99/99 98/98/98 97/97/97
f 100/100/100 99/99/99 97/97/97
f 103/103/103 102/102/102 101/101/101
f 104/104/104 103/103/103 101/101/101
f 107/107/107 106/106/106 105/105/105
f 108/108/108 107/107/107 105/105/105
f 111/111/111 110/110/110 109/109/109
f 112/112/112 111/111/111 109/109/109
f 115/115/115 114/114/114 113/113/113
f 116/116/116 115/115/115 113/113/113
f 119/119/119 118/118/118 117/117/117
f 120/120/120 119/119/119 117/117/117
f 123/123/123 122/122/122 121/121/121
f 124/124/124 123/123/123 121/121/121
f 127/127/127 126/126/126 125/125/125
f 128/128/128 127/127/127 125/125/125
f 131/131/131 130/130/130 129/129/129
f 132/132/132 131/131/131 129/129/129
f 135/135/135 134/134/134 133/133/133
f 136/136/136 135/135/135 133/133/133
f 139/139/139 138/138/138 137/137/137
f 140/140/140 139/139/139 137/137/137
f 143/143/143 142/142/142 141/141/141
f 144/144/144 143/143/143 141/141/141
f 147/147/147 146/146/146 145/145/145
f 148/148/148 147/147/147 145/145/145
f 151/151/151 150/150/150 149/149/149
f 152/152/152 151/151/151 149/149/149
f 155/155/155 154/154/154 153/153/153
f 156/156/156 155/155/155 153/153/153
f 159/159/159 158/158/158 157/157/157
f 160/160/160 159/159/159 157/157/157
f 163/163/163 162/162/162 161/161/161
f 164/164/164 163/163/163 161/161/161
f 167/167/167 166/166/166 165/165/165
f 168/168/168 167/167/167 165/165/165
f 171/171/171 170/170/170 169/169/169
f 172/172/172 171/171/171 169/169/169
f 175/175/175 174/174/174 173/173/173
f 176/176/176 175/175/175 173/173/173
f 179/179/179 178/178/178 177/177/177
f 180/180/180 179/179/179 177/177/177
f 183/183/183 182/182/182 181/181/181
f 184/184/184 183/183/183 181/181/181
f 187/187/187 186/186/186 185/185/185
f 188/188/188 187/187/187 185/185/185
f 191/191/191 190/190/190 189/189/189
f 192/192/192 191/191/191 189/189/189
f 195/195/195 194/194/194 193/193/193
f 196/196/196 195/195/195 193/193/193
f 199/199/199 198/198/198 197/197/197
f 200/200/200 199/199/199 197/197/197
f 203/203/203 202/202/202 201/201/201
f 204/204/204 203/203/203 201/201/201
f 207/207/207 206/206/206 205/205/205
f 208/208/208 207/207/207 205/205/205
f 211/211/211 210/210/210 209/209/209
f 212/212/212 211/211/211 209/209/209
f 215/215/215 214/214/214 213/213/213
f 216/216/216 215/215/215 213/213/213
f 219/219/219 218/218/218 217/217/217
f 220/220/220 219/219/219 217/217/217
f 223/223/223 222/222/222 221/221/221
f 224/224/224 223/223/223 221/221/221
f 227/227/227 226/226/226 225/225/225
f 228/228/228 227/227/227 225/225/225
f 231/231/231 230/230/230 229/229/229
f 232/232/232 231/231/231 229/229/229
f 235/235/235 234/234/234 233/233/233
f 236/236/236 235/235/235 233/233/233
f 239/239/239 238/238/238 237/237/237
f 240/240/240 239/239/239 237/237/237
f 243/243/243 242/242/242 241/241/241
f 244/244/244 243/243/243 241/241/241
f 247/247/247 246/246/246 245/245/245
f 248/248/248 247/247/247 245/245/245
f 251/251/251 250/250/250 249/249/249
f 252/252/252 251/251/251 249/249/249
f 255/255/255 254/254/254 253/253/253
f 256/256/256 255/255/255 253/253/253
f 259/259/259 258/258/258 257/257/257
f 260/260/260 259/259/259 257/257/257
f 263/263/263 262/262/262 261/261/261
f 264/264/264 263/263/263 261/261/261
f 267/267/267 266/266/266 265/265/265
f 268/268/268 267/267/267 265/265/265
f 271/271/271 270/270/270 269/269/269
f 272/272/272 271/271/271 269/269/269
f 275/275/275 274/274/274 273/273/273
f 276/276/276 275/275/275 273/273/273
f 279/279/279 278/278/278 277/277/277
f 280/280/280 279/279/279 277/277/277
f 283/283/283 282/282/282 281/281/281
f 284/284/284 283/283/283 281/281/281
f 287/287/287 286/286/286 285/285/285
f 288/288/288 287/287/287 285/285/285
f 291/291/291 290/290/290 289/289/289
f 292/292/292 291/291/291 289/289/289
f 295/295/295 294/294/294 293/293/293
f 296/296/296 295/295/295 293/293/293
f 299/299/299 298/298/298 297/297/297
f 300/300/300 299/299/299 297/297/297
f 303/303/303 302/302/302 301/301/301
f 304/304/304 303/303/303 301/301/301
f 307/307/307 306/306/306 305/305/305
f 308/308/308 307/307/307 305/305/305
f 311/311/311 310/310/310 309/309/309
f 312/312/312 311/311/311 309/309/309
f 315/315/315 314/314/314 313/313/313
f 316/316/316 315/315/315 313/313/313
f 319/319/319 318/318/318 317/317/317
f 320/320/320 319/319/319 317/317/317
f 323/323/323 322/322/322 321/321/321
f 324/324/324 323/323/323 321/321/321
f 327/327/327 326/326/326 325/325/325
f 328/328/328 327/327/327 325/325/325
f 331/331/331 330/330/330 329/329/329
f 332/332/332 331/331/331 329/329/329
f 335/335/335 334/334/334 333/333/333
f 336/336/336 335/335/335 333/333/333
f 339/339/339 338/338/338 337/337/337
f 340/340/340 339/339/339 337/337/337
f 343/343/343 342/342/342 341/341/341
f 344/344/344 343/343/343 341/341/341
f 347/347/347 346/346/346 345/345/345
f 348/348/348 347/347/347 345/345/345
f 351/351/351 350/350/350 349/349/349
f 352/352/352 351/351/351 349/349/349
f 355/355/355 354/354/354 353/353/353
f 356/356/356 355/355/355 353/353/353
f 359/359/359 358/358/358 357/357/357
f 360/360/360 359/359/359 357/357/357
f 363/363/363 362/362/362 361/361/361
f 364/364/364 363/363/363 361/361/361
f 367/367/367 366/366/366 365/365/365
f 368/368/368 367/367/367 365/365/365
f 371/371/371 370/370/370 369/369/369
f 372/372/372 371/371/371 369/369/369
f 375/375/375 374/374/374 373/373/373
f 376/376/376 375/375/375 373/373/373
f 379/379/379 378/378/378 377/377/377
f 380/380/380 379/379/379 377/377/377
f 383/383/383 382/382/382 381/381/381
f 384/384/384 383/383/383 381/381/381
f 387/387/387 386/386/386 385/385/385
f 388/388/388 387/387/387 385/385/385
f 391/391/391 390/390/390 389/389/389
f 392/392/392 391/391/391 389/389/389
f 395/395/395 394/394/394 393/393/393
f 396/396/396 395/395/395 393/393/393
f 399/399/399 398/398/398 397/397/397
f 400/400/400 399/399/399 397/397/397
f 403/403/403 402/402/402 401/401/401
f 404/404/404 403/403/403 401/401/401
f 407/407/407 406/406/406 405/405/405
f 408/408/408 407/407/407 405/405/405
f 411/411/411 410/410/410 409/409/409
f 412/412/412 411/411/411 409/409/409
f 415/415/415 414/414/414 413/413/413
f 416/416/416 415/415/415 413/413/413
f 419/419/419 418/418/418 417/417/417
f 420/420/420 419/419/419 417/417/417
f 423/423/423 422/422/422 421/421/421
f 424/424/424 423/423/423 421/421/421
f 427/427/427 426/426/426 425/425/425
f 428/428/428 427/427/427 425/425/425
f 431/431/431 430/430/430 429/429/429
f 432/432/432 431/431/431 429/429/429
f 435/435/435 434/434/434 433/433/433
f 436/436/436 435/435/435 433/433/433
f 439/439/439 438/438/438 437/437/437
f 440/440/440 439/439/439 437/437/437
f 443/443/443 442/442/442 441/441/441
f 444/444/444 443/443/443 441/441/441
f 447/447/447 446/446/446 445/445/445
f 448/448/448 447/447/447 445/445/445
f 451/451/451 450/450/450 449/449/449
f 452/452/452 451/451/451 449/449/449
f 455/455/455 454/454/454 453/453/453
f 456/456/456 455/455/455 453/453/453
f 459/459/459 458/458/458 457/457/457
f 460/460/460 459/459/459 457/457/457
f 463/463/463 462/462/462 461/461/461
f 464/464/464 463/463/463 461/461/461
f 467/467/467 466/466/466 465/465/465
f 468/468/468 467/467/467 465/465/465
f 471/471/471 470/470/470 469/469/469
f 472/472/472 471/471/471 469/469/469
f 475/475/475 474/474/474 473/473/473
f 476/476/476 475/475/475 473/473/473
f 479/479/479 478/478/478 477/477/477
f 480/480/480 479/479/479 477/477/477
