g Plane002
v 0.243324384 0.243324354 -4.74887344E-07
v 0.17589584 -0.175895795 -4.6313329E-07
v 0.17589584 0.175895825 -4.65122667E-07
v 0.243324384 -0.243324295 -4.60568003E-07
v 0.310752928 0.310752869 -4.84651991E-07
v -0.175895795 -0.17589578 -4.14178032E-07
v 0.310752928 -0.310752839 -4.58002688E-07
v 0.378181487 0.378181398 -4.94416611E-07
v -0.243324324 -0.243324295 -4.04413385E-07
v -0.175895765 0.175895855 -4.16167438E-07
v 0.378181458 -0.378181368 -4.55437402E-07
v 0.445609987 0.445609957 -5.04181287E-07
v 0.445609957 -0.445609927 -4.52872058E-07
v -0.310752869 -0.310752809 -3.94648737E-07
v -0.24332425 0.243324414 -4.18732725E-07
v 0.17589584 0.175895825 -4.65122667E-07
v 0.243324384 0.243324354 -4.74887344E-07
v -0.378181398 -0.378181338 -3.84884061E-07
v -0.445609927 -0.445609897 -3.75119441E-07
v -0.310752779 0.310752958 -4.21298068E-07
v 0.310752928 0.310752869 -4.84651991E-07
v -0.378181338 0.378181487 -4.23863327E-07
v -0.445609838 0.445610046 -4.26428613E-07
v 0.378181487 0.378181398 -4.94416611E-07
v 0.445609987 0.445609957 -5.04181287E-07
vt -1.51992822E-07 0.25
vt 0.249999836 0
vt -1.62920685E-07 0
vt 0.249999851 0.25
vt -1.41064987E-07 0.5
vt 0.499999851 0
vt 0.249999866 0.5
vt -1.30137138E-07 0.75
vt 0.499999851 0.25
vt 0.749999821 0
vt 0.249999866 0.75
vt -1.1920929E-07 1
vt 0.249999881 1
vt 0.499999851 0.5
vt 0.749999821 0.24999994
vt 0.999999821 0
vt 0.999999821 0.24999994
vt 0.499999881 0.75
vt 0.499999881 1
vt 0.749999881 0.49999994
vt 0.999999881 0.49999994
vt 0.749999881 0.75
vt 0.749999881 0.99999994
vt 0.999999881 0.75
vt 0.999999881 0.99999994
vn -0 0 1
vn -0 0 1
vn -0 0 1
vn -0 0 1
vn -0 0 1
vn -0 0 1
vn -0 0 1
vn -0 0 1
vn -0 0 1
vn -0 0 1
vn -0 0 1
vn -0 0 1
vn -0 0 1
vn -0 0 1
vn -0 0 1
vn -0 0 1
vn -0 0 1
vn -0 0 1
vn -0 0 1
vn -0 0 1
vn -0 0 1
vn -0 0 1
vn -0 0 1
vn -0 0 1
vn -0 0 1
g Plane002_0
f 3/3/3 2/2/2 1/1/1
f 2/2/2 4/4/4 1/1/1
f 1/1/1 4/4/4 5/5/5
f 2/2/2 6/6/6 4/4/4
f 4/4/4 7/7/7 5/5/5
f 5/5/5 7/7/7 8/8/8
f 6/6/6 9/9/9 4/4/4
f 4/4/4 9/9/9 7/7/7
f 6/6/6 10/10/10 9/9/9
f 7/7/7 11/11/11 8/8/8
f 8/8/8 11/11/11 12/12/12
f 11/11/11 13/13/13 12/12/12
f 9/9/9 14/14/14 7/7/7
f 7/7/7 14/14/14 11/11/11
f 10/10/10 15/15/15 9/9/9
f 9/9/9 15/15/15 14/14/14
f 10/10/10 16/16/16 15/15/15
f 16/16/16 17/17/17 15/15/15
f 11/11/11 18/18/18 13/13/13
f 14/14/14 18/18/18 11/11/11
f 18/18/18 19/19/19 13/13/13
f 15/15/15 20/20/20 14/14/14
f 15/15/15 17/17/17 20/20/20
f 14/14/14 20/20/20 18/18/18
f 17/17/17 21/21/21 20/20/20
f 18/18/18 22/22/22 19/19/19
f 20/20/20 22/22/22 18/18/18
f 20/20/20 21/21/21 22/22/22
f 22/22/22 23/23/23 19/19/19
f 21/21/21 24/24/24 22/22/22
f 22/22/22 24/24/24 23/23/23
f 24/24/24 25/25/25 23/23/23
