g Plane004
v -11.0127287 -15.3130016 -2.28898827E-07
v -9.30287361 -12.4351826 -3.20643238E-07
v -10.2341223 -15.2795877 -1.99693133E-07
v -8.66279793 -12.408843 -2.9125647E-07
v -9.41640472 -15.1795883 -1.72564143E-07
v -7.99646759 -12.3299904 -2.63585122E-07
v -8.56355381 -15.0137377 -1.47499705E-07
v -7.30702209 -12.1991262 -2.37618991E-07
v -7.68016815 -14.7832336 -1.24479016E-07
v -6.59802771 -12.0170736 -2.13341053E-07
v -6.77143383 -14.4897232 -1.03473937E-07
v -5.87344122 -11.7849684 -1.90728073E-07
v -5.843081 -14.1352701 -8.44477626E-08
v -5.13758421 -11.5042353 -1.69749654E-07
v -4.90131903 -13.7223091 -6.73563818E-08
v -4.39509439 -11.1765642 -1.50369175E-07
v -3.95277691 -13.2536001 -5.21477261E-08
v -3.65089083 -10.8038874 -1.32544002E-07
v -3.00443363 -12.7321854 -3.87625789E-08
v -2.91012192 -10.3883486 -1.16224911E-07
v -2.06352711 -12.1613235 -2.71342628E-08
v -2.17809391 -9.93226147 -1.01357074E-07
v -1.13748264 -11.5444422 -1.7189393E-08
v -1.46023083 -9.43809128 -8.78797408E-08
v -0.233839035 -10.8850813 -8.8478771E-09
v -0.762005806 -8.90840912 -7.57266605E-08
v 0.639885902 -10.1868401 -2.02311412E-09
v -0.0888738632 -8.34586525 -6.4826537E-08
v 1.4762392 -9.45332336 3.37701067E-09
v 0.553767204 -7.75316572 -5.51030439E-08
v 2.26796722 -8.68810368 7.45100692E-09
v 1.16069603 -7.13302183 -4.64750372E-08
v 3.00806904 -7.89467859 1.03017896E-08
v 1.72685719 -6.48815775 -3.88573369E-08
v 3.68990803 -7.07644224 1.20376455E-08
v 2.24749565 -5.82126379 -3.21606137E-08
v 4.30730057 -6.23666191 1.27710393E-08
v 2.7181654 -5.13499165 -2.62918434E-08
v 4.85456371 -5.37846231 1.26184432E-08
v 3.1347971 -4.43194818 -2.11549889E-08
v 5.32663536 -4.50482559 1.16999104E-08
v 3.4937706 -3.71467304 -1.66506879E-08
v 5.71910477 -3.61858177 1.01383364E-08
v 3.79192448 -2.98565388 -1.26777024E-08
v 6.02827835 -2.7224369 8.05917466E-09
v 4.02662373 -2.24731827 -9.13200893E-09
v 6.25123978 -1.81897449 5.59023761E-09
v 4.19578075 -1.50204372 -5.90844706E-09
v 6.38586617 -0.9106884 2.86041768E-09
v 4.29788589 -0.752169609 -2.90029334E-09
v 6.43088722 -5.7220459E-06 0
v 4.33201504 -7.62939453E-06 -8.52651283E-14
v 6.38586998 0.910676003 -2.8604461E-09
v 4.29788208 0.75216198 2.90017965E-09
v 6.25123787 1.8189621 -5.59026603E-09
v 4.19578075 1.50203514 5.90830496E-09
v 6.02827644 2.7224226 -8.05931677E-09
v 4.02662659 2.24730873 9.13189524E-09
v 5.71910858 3.61856937 -1.01383364E-08
v 3.79192924 2.98564243 1.26775888E-08
v 5.32664108 4.50481796 -1.16999104E-08
v 3.49377728 3.7146616 1.66506311E-08
v 4.85457516 5.3784523 -1.26185E-08
v 3.13480568 4.43193626 2.11547899E-08
v 4.30730438 6.23665237 -1.27710678E-08
v 2.71816826 5.13498306 2.62917013E-08
v 3.68991375 7.07642746 -1.20377592E-08
v 2.24749851 5.82125473 3.21604432E-08
v 3.00807858 7.89466858 -1.03018749E-08
v 1.72686291 6.48814964 3.88571664E-08
v 2.26797771 8.688097 -7.45106377E-09
v 1.16069698 7.13301086 4.64749235E-08
v 1.47625065 9.45331573 -3.37720962E-09
v 0.553776741 7.75315475 5.51027881E-08
v 0.639893532 10.1868324 2.02305728E-09
v -0.0888690948 8.34586143 6.48263949E-08
v -0.233831406 10.8850727 8.84764972E-09
v -0.761995316 8.90839958 7.57264331E-08
v -1.13747692 11.5444355 1.71891656E-08
v -1.46022129 9.43808556 8.78793855E-08
v -2.06351376 12.161314 2.71340355E-08
v -2.17808437 9.93225479 1.01356733E-07
v -3.00441933 12.7321777 3.876238E-08
v -2.91011238 10.3883457 1.16224669E-07
v -3.9527669 13.2535992 5.21475272E-08
v -3.65088558 10.8038826 1.32543619E-07
v -4.90130854 13.7223072 6.73560692E-08
v -4.39508438 11.1765633 1.50368862E-07
v -5.84307051 14.1352615 8.44474357E-08
v -5.13757467 11.5042343 1.69749228E-07
v -6.77142382 14.4897232 1.03473525E-07
v -5.87343168 11.7849693 1.9072769E-07
v -7.68015575 14.783226 1.24478731E-07
v -6.59801865 12.0170746 2.13340741E-07
v -8.56354427 15.0137482 1.47499065E-07
v -7.30701351 12.1991405 2.37618508E-07
v -9.41639519 15.1795921 1.72563716E-07
v -7.99645901 12.3299923 2.63584639E-07
v -10.2341137 15.2795849 1.99692693E-07
v -8.66279125 12.4088383 2.91255901E-07
v -11.0127201 15.3130054 2.28898443E-07
v -9.30286694 12.4351807 3.20642698E-07
vt 3.73521118E-07 -2.38418579E-07
vt 4.17232513E-07 0.999999762
vt 0.0200003739 -2.38418579E-07
vt 0.0200004168 0.999999762
vt 0.0400003716 -2.38418579E-07
vt 0.0400004163 0.999999762
vt 0.0600003712 -2.38418579E-07
vt 0.0600004159 0.999999762
vt 0.0800003707 -2.38418579E-07
vt 0.0800004154 0.999999762
vt 0.100000367 -2.38418579E-07
vt 0.100000411 0.999999762
vt 0.120000362 -2.38418579E-07
vt 0.120000407 0.999999762
vt 0.140000358 -2.38418579E-07
vt 0.140000403 0.999999762
vt 0.160000354 -2.38418579E-07
vt 0.160000399 0.999999762
vt 0.18000035 -2.38418579E-07
vt 0.180000395 0.999999762
vt 0.200000346 -2.38418579E-07
vt 0.20000039 0.999999762
vt 0.220000342 -2.38418579E-07
vt 0.220000386 0.999999762
vt 0.240000337 -2.38418579E-07
vt 0.240000382 0.999999762
vt 0.260000348 -2.38418579E-07
vt 0.260000378 0.999999762
vt 0.280000359 -2.38418579E-07
vt 0.280000389 0.999999762
vt 0.30000037 -2.38418579E-07
vt 0.300000399 0.999999762
vt 0.32000038 -2.38418579E-07
vt 0.32000041 0.999999762
vt 0.340000391 -2.38418579E-07
vt 0.340000421 0.999999762
vt 0.360000402 -2.38418579E-07
vt 0.360000432 0.999999762
vt 0.380000412 -2.38418579E-07
vt 0.380000442 0.999999762
vt 0.400000423 -2.38418579E-07
vt 0.400000453 0.999999762
vt 0.420000434 -2.38418579E-07
vt 0.420000464 0.999999762
vt 0.440000445 -2.38418579E-07
vt 0.440000474 0.999999762
vt 0.460000455 -2.38418579E-07
vt 0.460000485 0.999999762
vt 0.480000466 -2.38418579E-07
vt 0.480000496 0.999999762
vt 0.500000417 -2.38418579E-07
vt 0.500000477 0.999999762
vt 0.520000398 -2.38418579E-07
vt 0.520000458 0.999999762
vt 0.540000379 -2.38418579E-07
vt 0.540000439 0.999999762
vt 0.56000036 -2.38418579E-07
vt 0.56000042 0.999999762
vt 0.580000341 -2.38418579E-07
vt 0.580000401 0.999999762
vt 0.600000322 -2.38418579E-07
vt 0.600000381 0.999999762
vt 0.620000303 -2.38418579E-07
vt 0.620000362 0.999999762
vt 0.640000284 -2.38418579E-07
vt 0.640000343 0.999999762
vt 0.660000265 -2.38418579E-07
vt 0.660000324 0.999999762
vt 0.680000246 -2.38418579E-07
vt 0.680000305 0.999999762
vt 0.700000226 -2.38418579E-07
vt 0.700000286 0.999999702
vt 0.720000207 -2.38418579E-07
vt 0.720000267 0.999999702
vt 0.740000188 -2.38418579E-07
vt 0.740000248 0.999999702
vt 0.760000169 -2.38418579E-07
vt 0.760000229 0.999999702
vt 0.78000015 -2.38418579E-07
vt 0.78000021 0.999999702
vt 0.800000131 -2.38418579E-07
vt 0.800000191 0.999999702
vt 0.820000112 -2.38418579E-07
vt 0.820000172 0.999999702
vt 0.840000093 -2.38418579E-07
vt 0.840000153 0.999999702
vt 0.860000074 -2.38418579E-07
vt 0.860000134 0.999999702
vt 0.880000055 -2.38418579E-07
vt 0.880000114 0.999999702
vt 0.900000036 -2.38418579E-07
vt 0.900000095 0.999999702
vt 0.920000017 -2.38418579E-07
vt 0.920000076 0.999999702
vt 0.939999998 -2.38418579E-07
vt 0.940000057 0.999999702
vt 0.959999979 -2.38418579E-07
vt 0.960000038 0.999999702
vt 0.979999959 -2.38418579E-07
vt 0.980000019 0.999999702
vt 0.99999994 -2.38418579E-07
vt 1 0.999999702
vn -0 0 1
vn -0 0 1
vn -0 0 1
vn -0 0 1
vn -0 0 1
vn -0 0 1
vn -0 0 1
vn -0 0 1
vn -0 0 1
vn -0 0 1
vn -0 0 1
vn -0 0 1
vn -0 0 1
vn -0 0 1
vn -0 0 1
vn -0 0 1
vn -0 0 1
vn -0 0 1
vn -0 0 1
vn -0 0 1
vn -0 0 1
vn -0 0 1
vn -0 0 1
vn -0 0 1
vn -0 0 1
vn -0 0 1
vn -0 0 1
vn -0 0 1
vn -0 0 1
vn -0 0 1
vn -0 0 1
vn -0 0 1
vn -0 0 1
vn -0 0 1
vn -0 0 1
vn -0 0 1
vn -0 0 1
vn -0 0 1
vn -0 0 1
vn -0 0 1
vn -0 0 1
vn -0 0 1
vn -0 0 1
vn -0 0 1
vn -0 0 1
vn -0 0 1
vn -0 0 1
vn -0 0 1
vn -0 0 1
vn -0 0 1
vn -0 0 1
vn -0 0 1
vn -0 0 1
vn -0 0 1
vn -0 0 1
vn -0 0 1
vn -0 0 1
vn -0 0 1
vn -0 0 1
vn -0 0 1
vn -0 0 1
vn -0 0 1
vn -0 0 1
vn -0 0 1
vn -0 0 1
vn -0 0 1
vn -0 0 1
vn -0 0 1
vn -0 0 1
vn -0 0 1
vn -0 0 1
vn -0 0 1
vn -0 0 1
vn -0 0 1
vn -0 0 1
vn -0 0 1
vn -0 0 1
vn -0 0 1
vn -0 0 1
vn -0 0 1
vn -0 0 1
vn -0 0 1
vn -0 0 1
vn -0 0 1
vn -0 0 1
vn -0 0 1
vn -0 0 1
vn -0 0 1
vn -0 0 1
vn -0 0 1
vn -0 0 1
vn -0 0 1
vn -0 0 1
vn -0 0 1
vn -0 0 1
vn -0 0 1
vn -0 0 1
vn -0 0 1
vn -0 0 1
vn -0 0 1
vn -0 0 1
vn -0 0 1
g Plane004_0
f 3/3/3 2/2/2 1/1/1
f 2/2/2 3/3/3 4/4/4
f 5/5/5 4/4/4 3/3/3
f 4/4/4 5/5/5 6/6/6
f 7/7/7 6/6/6 5/5/5
f 6/6/6 7/7/7 8/8/8
f 9/9/9 8/8/8 7/7/7
f 8/8/8 9/9/9 10/10/10
f 11/11/11 10/10/10 9/9/9
f 10/10/10 11/11/11 12/12/12
f 13/13/13 12/12/12 11/11/11
f 12/12/12 13/13/13 14/14/14
f 15/15/15 14/14/14 13/13/13
f 14/14/14 15/15/15 16/16/16
f 17/17/17 16/16/16 15/15/15
f 16/16/16 17/17/17 18/18/18
f 19/19/19 18/18/18 17/17/17
f 18/18/18 19/19/19 20/20/20
f 21/21/21 20/20/20 19/19/19
f 20/20/20 21/21/21 22/22/22
f 23/23/23 22/22/22 21/21/21
f 22/22/22 23/23/23 24/24/24
f 25/25/25 24/24/24 23/23/23
f 24/24/24 25/25/25 26/26/26
f 27/27/27 26/26/26 25/25/25
f 26/26/26 27/27/27 28/28/28
f 29/29/29 28/28/28 27/27/27
f 28/28/28 29/29/29 30/30/30
f 31/31/31 30/30/30 29/29/29
f 30/30/30 31/31/31 32/32/32
f 33/33/33 32/32/32 31/31/31
f 32/32/32 33/33/33 34/34/34
f 35/35/35 34/34/34 33/33/33
f 34/34/34 35/35/35 36/36/36
f 37/37/37 36/36/36 35/35/35
f 36/36/36 37/37/37 38/38/38
f 39/39/39 38/38/38 37/37/37
f 38/38/38 39/39/39 40/40/40
f 41/41/41 40/40/40 39/39/39
f 40/40/40 41/41/41 42/42/42
f 43/43/43 42/42/42 41/41/41
f 42/42/42 43/43/43 44/44/44
f 45/45/45 44/44/44 43/43/43
f 44/44/44 45/45/45 46/46/46
f 47/47/47 46/46/46 45/45/45
f 46/46/46 47/47/47 48/48/48
f 49/49/49 48/48/48 47/47/47
f 48/48/48 49/49/49 50/50/50
f 51/51/51 50/50/50 49/49/49
f 50/50/50 51/51/51 52/52/52
f 53/53/53 52/52/52 51/51/51
f 52/52/52 53/53/53 54/54/54
f 55/55/55 54/54/54 53/53/53
f 54/54/54 55/55/55 56/56/56
f 57/57/57 56/56/56 55/55/55
f 56/56/56 57/57/57 58/58/58
f 59/59/59 58/58/58 57/57/57
f 58/58/58 59/59/59 60/60/60
f 61/61/61 60/60/60 59/59/59
f 60/60/60 61/61/61 62/62/62
f 63/63/63 62/62/62 61/61/61
f 62/62/62 63/63/63 64/64/64
f 65/65/65 64/64/64 63/63/63
f 64/64/64 65/65/65 66/66/66
f 67/67/67 66/66/66 65/65/65
f 66/66/66 67/67/67 68/68/68
f 69/69/69 68/68/68 67/67/67
f 68/68/68 69/69/69 70/70/70
f 71/71/71 70/70/70 69/69/69
f 70/70/70 71/71/71 72/72/72
f 73/73/73 72/72/72 71/71/71
f 72/72/72 73/73/73 74/74/74
f 75/75/75 74/74/74 73/73/73
f 74/74/74 75/75/75 76/76/76
f 77/77/77 76/76/76 75/75/75
f 76/76/76 77/77/77 78/78/78
f 79/79/79 78/78/78 77/77/77
f 78/78/78 79/79/79 80/80/80
f 81/81/81 80/80/80 79/79/79
f 80/80/80 81/81/81 82/82/82
f 83/83/83 82/82/82 81/81/81
f 82/82/82 83/83/83 84/84/84
f 85/85/85 84/84/84 83/83/83
f 84/84/84 85/85/85 86/86/86
f 87/87/87 86/86/86 85/85/85
f 86/86/86 87/87/87 88/88/88
f 89/89/89 88/88/88 87/87/87
f 88/88/88 89/89/89 90/90/90
f 91/91/91 90/90/90 89/89/89
f 90/90/90 91/91/91 92/92/92
f 93/93/93 92/92/92 91/91/91
f 92/92/92 93/93/93 94/94/94
f 95/95/95 94/94/94 93/93/93
f 94/94/94 95/95/95 96/96/96
f 97/97/97 96/96/96 95/95/95
f 96/96/96 97/97/97 98/98/98
f 99/99/99 98/98/98 97/97/97
f 98/98/98 99/99/99 100/100/100
f 101/101/101 100/100/100 99/99/99
f 100/100/100 101/101/101 102/102/102
