g Plane003
v 0.0792669654 -0.0237443298 0.00531303091
v 0.0662226006 -0.0095879361 0.000500274415
v 0.073275663 -0.00721578998 0.00206676242
v 0.0647687167 -0.0234009065 0.00152359169
v 0.0809742212 -0.0425863899 0.00872078259
v 0.0596296936 -0.0383571945 0.00251963222
v 0.0780896097 -0.0633750856 0.0123791611
v 0.0508933067 -0.0529414751 0.00341604277
v 0.0679341257 -0.0873271003 0.0166073162
v 0.0402532592 -0.0637896284 0.00386666972
v 0.0524649173 -0.107624777 0.0207254309
v 0.0243348517 -0.0741097927 0.00449095247
v 0.0313342288 -0.125350639 0.0250265878
v 0.00541468896 -0.0812318027 0.00503077637
v 5.80390915E-05 -0.139264256 0.0299347937
v -0.011436414 -0.0822597221 0.00501046656
v -0.0313816108 -0.14529191 0.0345561579
v -0.0335876793 -0.0799345747 0.00533912284
v -0.0709983781 -0.142050415 0.0397992469
v -0.0500358008 -0.0731255636 0.00508636888
v -0.105561964 -0.130719662 0.0446556062
v -0.0705617741 -0.0599142909 0.00525895227
v -0.143229052 -0.105880216 0.0501326844
v -0.0829825327 -0.0456640981 0.00484346319
v -0.170943826 -0.0761357099 0.0551434606
v -0.096436359 -0.0226771347 0.00492059812
v -0.194465548 -0.0316509269 0.0607609786
v -0.101404756 -0.00309909019 0.00441545853
v -0.205481738 0.0118222339 0.0658477917
v -0.103097096 0.0258065853 0.00446167961
v -0.204667345 0.0671474263 0.0715165287
v -0.0982387662 0.0469607599 0.00394234341
v -0.192463055 0.114541858 0.0766020045
v -0.0856165737 0.0756938234 0.0040252842
v -0.162822515 0.166861743 0.0822351947
v -0.0704277754 0.0935520604 0.0035689408
v -0.126714364 0.205557361 0.0872421935
v -0.0441169776 0.11497508 0.00375857623
v -0.0717171356 0.239652619 0.0927545577
v -0.0205238443 0.124489151 0.00344379409
v -0.0178469718 0.257644773 0.0976059139
v 0.0152857918 0.132080302 0.00381207652
v 0.0510926172 0.261423439 0.102912925
v 0.0428563952 0.129258469 0.0037184502
v 0.120797083 0.247090697 0.108086169
v 0.0706539229 0.122275747 0.0037809161
v 0.176705882 0.21941781 0.112548701
v 0.10607715 0.102053262 0.00454691239
v 0.233951807 0.170955643 0.117389031
v 0.129218176 0.0809538364 0.0049522412
v 0.272004992 0.117170841 0.121500045
v 0.153053835 0.0441693887 0.00608522072
v 0.300308257 0.0438873358 0.125923842
v 0.164392382 0.0118088461 0.00691482145
vt 0.961538792 1
vt 1.00000036 0
vt 1.00000036 1
vt 0.961538792 0
vt 0.923077285 1
vt 0.923077285 0
vt 0.884615719 1
vt 0.884615719 0
vt 0.846154213 1
vt 0.846154213 0
vt 0.807692647 1
vt 0.807692647 0
vt 0.769231141 1
vt 0.769231141 0
vt 0.730769575 1
vt 0.730769575 0
vt 0.692308068 1
vt 0.692308068 0
vt 0.653846502 1
vt 0.653846502 0
vt 0.615384936 1
vt 0.615384936 0
vt 0.57692343 1
vt 0.57692343 0
vt 0.538461924 1
vt 0.538461924 0
vt 0.500000358 1
vt 0.500000358 0
vt 0.461538792 1
vt 0.461538792 0
vt 0.423077226 1
vt 0.423077226 0
vt 0.38461566 1
vt 0.38461566 0
vt 0.346154094 1
vt 0.346154094 0
vt 0.307692528 1
vt 0.307692528 0
vt 0.269230962 1
vt 0.269230962 0
vt 0.230769396 1
vt 0.230769396 0
vt 0.19230783 1
vt 0.19230783 0
vt 0.153846264 1
vt 0.153846264 0
vt 0.115384698 1
vt 0.115384698 0
vt 0.0769231319 1
vt 0.0769231319 0
vt 0.038461566 1
vt 0.038461566 0
vt 0 1
vt 0 0
vn -0.247613683 0.129621729 0.960148692
vn -0.248386994 0.0987259671 0.963616669
vn -0.247533709 0.0995577797 0.96375066
vn -0.248589084 0.126427978 0.960322618
vn -0.241369486 0.178728506 0.953832746
vn -0.241857678 0.17795682 0.953853369
vn -0.223391697 0.231171116 0.946919262
vn -0.224868983 0.231677726 0.946445644
vn -0.185035408 0.2895118 0.93911922
vn -0.189533919 0.286528528 0.939137042
vn -0.134508252 0.337796301 0.93155849
vn -0.134062007 0.338011503 0.931544781
vn -0.0690599531 0.378203988 0.923142731
vn -0.0608251877 0.38044557 0.922800899
vn 0.0166779608 0.404017389 0.91459924
vn 0.0204222035 0.403790981 0.91462338
vn 0.106685281 0.408896297 0.906323433
vn 0.112655438 0.408250958 0.905891836
vn 0.205486283 0.389818013 0.897673309
vn 0.206514135 0.389253795 0.89768225
vn 0.297225058 0.347854197 0.889187694
vn 0.301371902 0.345580727 0.888678133
vn 0.3832497 0.278796554 0.880563617
vn 0.383173496 0.278917819 0.880558312
vn 0.450462162 0.191418678 0.872033775
vn 0.45318076 0.187082291 0.871566057
vn 0.497604996 0.082268469 0.863493621
vn 0.497605264 0.0819465965 0.86352402
vn 0.517418325 -0.0345290974 0.855035663
vn 0.517288923 -0.0418235958 0.854788244
vn 0.507389367 -0.160738036 0.846592844
vn 0.506366611 -0.16316627 0.846740544
vn 0.467775375 -0.280098647 0.838290513
vn 0.461746335 -0.289467901 0.838450193
vn 0.396073252 -0.39286378 0.829930186
vn 0.391047448 -0.397123992 0.830285788
vn 0.300319105 -0.484121114 0.821848631
vn 0.285838544 -0.491598517 0.822573543
vn 0.178545535 -0.553422332 0.813538671
vn 0.167059451 -0.556052446 0.814184725
vn 0.045507703 -0.590530813 0.805730939
vn 0.0232066754 -0.589913011 0.807133198
vn -0.10737291 -0.594290495 0.797050714
vn -0.111265525 -0.596086025 0.795173883
vn -0.254603952 -0.556063533 0.791182697
vn -0.236813635 -0.565828443 0.78978318
vn -0.385043204 -0.4882496 0.78316927
vn -0.381130129 -0.493962228 0.781499326
vn -0.498457015 -0.386743367 0.775867343
vn -0.491478413 -0.397040427 0.775117993
vn -0.584359527 -0.261684656 0.768143952
vn -0.585225761 -0.261534065 0.767535567
vn -0.619458318 -0.19385694 0.760717332
vn -0.619015753 -0.197404265 0.760165155
g Plane003_0
f 3/3/3 2/2/2 1/1/1
f 4/4/4 1/1/1 2/2/2
f 1/1/1 4/4/4 5/5/5
f 6/6/6 5/5/5 4/4/4
f 5/5/5 6/6/6 7/7/7
f 8/8/8 7/7/7 6/6/6
f 7/7/7 8/8/8 9/9/9
f 10/10/10 9/9/9 8/8/8
f 9/9/9 10/10/10 11/11/11
f 12/12/12 11/11/11 10/10/10
f 11/11/11 12/12/12 13/13/13
f 14/14/14 13/13/13 12/12/12
f 13/13/13 14/14/14 15/15/15
f 16/16/16 15/15/15 14/14/14
f 15/15/15 16/16/16 17/17/17
f 18/18/18 17/17/17 16/16/16
f 17/17/17 18/18/18 19/19/19
f 20/20/20 19/19/19 18/18/18
f 19/19/19 20/20/20 21/21/21
f 22/22/22 21/21/21 20/20/20
f 21/21/21 22/22/22 23/23/23
f 24/24/24 23/23/23 22/22/22
f 23/23/23 24/24/24 25/25/25
f 26/26/26 25/25/25 24/24/24
f 25/25/25 26/26/26 27/27/27
f 28/28/28 27/27/27 26/26/26
f 27/27/27 28/28/28 29/29/29
f 30/30/30 29/29/29 28/28/28
f 29/29/29 30/30/30 31/31/31
f 32/32/32 31/31/31 30/30/30
f 31/31/31 32/32/32 33/33/33
f 34/34/34 33/33/33 32/32/32
f 33/33/33 34/34/34 35/35/35
f 36/36/36 35/35/35 34/34/34
f 35/35/35 36/36/36 37/37/37
f 38/38/38 37/37/37 36/36/36
f 37/37/37 38/38/38 39/39/39
f 40/40/40 39/39/39 38/38/38
f 39/39/39 40/40/40 41/41/41
f 42/42/42 41/41/41 40/40/40
f 41/41/41 42/42/42 43/43/43
f 44/44/44 43/43/43 42/42/42
f 43/43/43 44/44/44 45/45/45
f 46/46/46 45/45/45 44/44/44
f 45/45/45 46/46/46 47/47/47
f 48/48/48 47/47/47 46/46/46
f 47/47/47 48/48/48 49/49/49
f 50/50/50 49/49/49 48/48/48
f 49/49/49 50/50/50 51/51/51
f 52/52/52 51/51/51 50/50/50
f 51/51/51 52/52/52 53/53/53
f 54/54/54 53/53/53 52/52/52
