g Plane003
v 0.557416618 -0.0147572327 -1.26964403E-06
v 0.538995087 -0.142882302 -1.26027896E-06
v 0.465486795 -0.121298373 -1.26122245E-06
v 0.48080495 -0.0147572747 -1.26964403E-06
v 0.461923629 -0.0120425699 -1.26976261E-06
v 0.446605474 -0.118583664 -1.26134103E-06
v 0.373097152 -0.0969997346 -1.26228451E-06
v 0.385312051 -0.0120426146 -1.26976261E-06
v 0.366430759 -0.00932788849 -1.26988141E-06
v 0.35421586 -0.0942850113 -1.2624032E-06
v 0.280707538 -0.0727010667 -1.26334658E-06
v 0.289819151 -0.00932793412 -1.26988141E-06
v 0.2709378 -0.00661322288 -1.2700001E-06
v 0.261826187 -0.0699863508 -1.26346538E-06
v 0.188317895 -0.0484024175 -1.26440887E-06
v 0.194326237 -0.00661327131 -1.2700001E-06
v 0.530679703 -0.17120187 -1.25809413E-06
v 0.476907313 -0.288947046 -1.24918279E-06
v 0.412457585 -0.247527719 -1.25099325E-06
v 0.45717141 -0.14961794 -1.2590375E-06
v 0.439819664 -0.141693696 -1.25938391E-06
v 0.395105839 -0.23960349 -1.25133954E-06
v 0.330656052 -0.198184177 -1.25315E-06
v 0.366311431 -0.120109767 -1.26032739E-06
v 0.348959774 -0.112185545 -1.26067368E-06
v 0.313304394 -0.190259948 -1.25349652E-06
v 0.248854652 -0.148840636 -1.25530698E-06
v 0.275451481 -0.0906016007 -1.26161729E-06
v 0.258099824 -0.0826773643 -1.26196358E-06
v 0.231502995 -0.140916392 -1.25565327E-06
v 0.167053193 -0.0994970724 -1.25746385E-06
v 0.184591517 -0.0610934235 -1.26290706E-06
v 0.460950345 -0.313776761 -1.24715041E-06
v 0.37618345 -0.411602974 -1.23910968E-06
v 0.326013505 -0.353703856 -1.24164058E-06
v 0.396500468 -0.272357434 -1.24896087E-06
v 0.382084161 -0.259865642 -1.24950691E-06
v 0.311597168 -0.341212064 -1.24218661E-06
v 0.261427224 -0.283312947 -1.24471751E-06
v 0.317634374 -0.218446359 -1.25131737E-06
v 0.303218096 -0.205954581 -1.25186341E-06
v 0.247010961 -0.270821154 -1.24526355E-06
v 0.196841016 -0.212921977 -1.24779433E-06
v 0.238768339 -0.164535269 -1.25367399E-06
v 0.224352077 -0.152043477 -1.25422002E-06
v 0.182424739 -0.2004302 -1.24834037E-06
v 0.132254794 -0.142531067 -1.25087126E-06
v 0.159902275 -0.110624157 -1.25603049E-06
v 0.353877395 -0.43093124 -1.23731786E-06
v 0.24498342 -0.500913322 -1.23049426E-06
v 0.213157743 -0.431224942 -1.2335405E-06
v 0.303707451 -0.373032153 -1.23984864E-06
v 0.293394476 -0.356984854 -1.2405502E-06
v 0.202844769 -0.415177643 -1.23424195E-06
v 0.171019182 -0.345489353 -1.23728807E-06
v 0.243224517 -0.299085706 -1.24308099E-06
v 0.232911527 -0.283038378 -1.24378244E-06
v 0.160706207 -0.329442024 -1.23798964E-06
v 0.128880531 -0.259753674 -1.24103576E-06
v 0.182741582 -0.225139216 -1.24631333E-06
v 0.172428593 -0.209091917 -1.24701478E-06
v 0.118567541 -0.24370636 -1.24173721E-06
v 0.0867418721 -0.17401804 -1.24478333E-06
v 0.122258648 -0.151192769 -1.24954568E-06
v 0.218135551 -0.513174415 -1.22901133E-06
v 0.0939362943 -0.549642682 -1.2236527E-06
v 0.0830332786 -0.473810852 -1.22696747E-06
v 0.186309874 -0.443486005 -1.23205757E-06
v 0.180935636 -0.425183237 -1.23285758E-06
v 0.0776590928 -0.455508053 -1.22776748E-06
v 0.0667560771 -0.379676253 -1.23108214E-06
v 0.149110064 -0.355494916 -1.23590371E-06
v 0.143735871 -0.337192118 -1.23670384E-06
v 0.0613818876 -0.361373484 -1.23188215E-06
v 0.0504788719 -0.285541713 -1.23519692E-06
v 0.111910194 -0.267503768 -1.23974996E-06
v 0.106536008 -0.24920097 -1.24054998E-06
v 0.0451046824 -0.267238915 -1.23599693E-06
v 0.0342016667 -0.191407099 -1.2393117E-06
v 0.074710384 -0.179512665 -1.2435961E-06
v 0.0647216067 -0.553843081 -1.2225222E-06
v -0.0647210255 -0.553843141 -1.21875757E-06
v -0.0538180806 -0.47801131 -1.22207234E-06
v 0.0538185909 -0.47801128 -1.22583685E-06
v 0.0538185909 -0.458935827 -1.22667063E-06
v -0.0538180806 -0.458935887 -1.22290612E-06
v -0.0429151617 -0.383104086 -1.22622089E-06
v 0.0429155715 -0.383104026 -1.2299854E-06
v 0.0429155231 -0.364028513 -1.23081918E-06
v -0.0429151841 -0.364028573 -1.22705455E-06
v -0.0320122913 -0.288196772 -1.23036932E-06
v 0.0320125557 -0.288196743 -1.23413395E-06
v 0.0320125557 -0.269121259 -1.23496773E-06
v -0.0320122913 -0.269121319 -1.23120321E-06
v -0.0211093463 -0.193289503 -1.23451787E-06
v 0.0211095158 -0.193289474 -1.23828238E-06
v -0.0939357132 -0.549642682 -1.21799428E-06
v -0.218135014 -0.513174593 -1.21582377E-06
v -0.186309442 -0.443486243 -1.2188699E-06
v -0.0830327943 -0.473810941 -1.22130893E-06
v -0.0776586086 -0.455508143 -1.22210906E-06
v -0.180935279 -0.425183445 -1.21966991E-06
v -0.149109721 -0.355495065 -1.22271615E-06
v -0.0667556897 -0.379676342 -1.22542372E-06
v -0.0613815226 -0.361373544 -1.22622373E-06
v -0.143735528 -0.337192267 -1.22351616E-06
v -0.111909978 -0.267503887 -1.2265624E-06
v -0.0504786298 -0.285541743 -1.2295385E-06
v -0.0451044403 -0.267238915 -1.23033851E-06
v -0.106535792 -0.249201059 -1.22736242E-06
v -0.0747102126 -0.179512724 -1.23040854E-06
v -0.0342014991 -0.191407144 -1.23365328E-06
v -0.244982913 -0.50091362 -1.21541268E-06
v -0.353877008 -0.430931687 -1.21470714E-06
v -0.303707123 -0.37303248 -1.21723804E-06
v -0.213157356 -0.43122521 -1.21845881E-06
v -0.202844381 -0.415177912 -1.21916025E-06
v -0.293394148 -0.356985152 -1.21793948E-06
v -0.243224248 -0.299085945 -1.22047027E-06
v -0.171018824 -0.345489532 -1.22220649E-06
v -0.160705835 -0.329442203 -1.22290794E-06
v -0.232911259 -0.283038616 -1.22117171E-06
v -0.182741374 -0.225139454 -1.22370261E-06
v -0.128880292 -0.259753823 -1.22595418E-06
v -0.118567303 -0.243706495 -1.22665563E-06
v -0.172428399 -0.209092125 -1.22440406E-06
v -0.122258522 -0.151192918 -1.22693496E-06
v -0.0867417231 -0.174018145 -1.22970175E-06
v -0.376183063 -0.411603421 -1.21460505E-06
v -0.460950017 -0.313777268 -1.21511653E-06
v -0.39650026 -0.272357881 -1.2169271E-06
v -0.326013178 -0.353704214 -1.21713595E-06
v -0.3115969 -0.341212392 -1.21768187E-06
v -0.382083952 -0.259866089 -1.21747303E-06
v -0.317634225 -0.218446687 -1.2192836E-06
v -0.261426985 -0.283313215 -1.22021277E-06
v -0.247010723 -0.270821393 -1.2207588E-06
v -0.303217947 -0.205954909 -1.21982964E-06
v -0.238768175 -0.164535508 -1.2216401E-06
v -0.196840823 -0.21292223 -1.2232897E-06
v -0.182424545 -0.200430423 -1.22383574E-06
v -0.224351898 -0.152043715 -1.22218614E-06
v -0.159902155 -0.110624328 -1.22399661E-06
v -0.132254675 -0.142531216 -1.22636652E-06
v -0.476907134 -0.288947552 -1.215255E-06
v -0.530679584 -0.171202451 -1.2166372E-06
v -0.457171321 -0.149618432 -1.21758069E-06
v -0.412457317 -0.24752818 -1.21706546E-06
v -0.39510569 -0.239603922 -1.21741186E-06
v -0.439819604 -0.141694203 -1.21792709E-06
v -0.366311371 -0.120110184 -1.21887047E-06
v -0.330655932 -0.198184565 -1.21922233E-06
v -0.313304275 -0.190260291 -1.21956873E-06
v -0.348959684 -0.11218591 -1.21921687E-06
v -0.275451392 -0.0906018913 -1.22016036E-06
v -0.248854533 -0.148840904 -1.22137919E-06
v -0.231502846 -0.140916646 -1.2217256E-06
v -0.258099735 -0.08267764 -1.22050676E-06
v -0.184591472 -0.0610936284 -1.22145013E-06
v -0.167053103 -0.0994972587 -1.22353617E-06
v -0.538994968 -0.142882884 -1.21692813E-06
v -0.557416618 -0.0147578083 -1.21876406E-06
v -0.480805039 -0.014757771 -1.21876406E-06
v -0.465486705 -0.121298872 -1.21787161E-06
v -0.446605355 -0.118584134 -1.2179903E-06
v -0.461923689 -0.0120430449 -1.21888274E-06
v -0.38531211 -0.0120430114 -1.21888274E-06
v -0.373097092 -0.0970001221 -1.21893368E-06
v -0.354215741 -0.0942853913 -1.21905236E-06
v -0.366430789 -0.00932828244 -1.21900132E-06
v -0.289819211 -0.00932824612 -1.21900132E-06
v -0.280707479 -0.0727013722 -1.21999585E-06
v -0.261826158 -0.0699866414 -1.22011443E-06
v -0.27093786 -0.00661351951 -1.21912012E-06
v -0.194326296 -0.00661348598 -1.21912012E-06
v -0.188317895 -0.0484026335 -1.22105803E-06
v -0.557416618 0.0147573175 -1.21910728E-06
v -0.538995087 0.142882407 -1.2209432E-06
v -0.465486795 0.121298455 -1.21999972E-06
v -0.480805039 0.0147573538 -1.21910728E-06
v -0.461923748 0.0120426267 -1.21898859E-06
v -0.446605474 0.118583739 -1.21988103E-06
v -0.373097181 0.0969997793 -1.21893765E-06
v -0.38531214 0.0120426603 -1.21898859E-06
v -0.366430789 0.00932795182 -1.21887001E-06
v -0.35421586 0.0942850783 -1.21881897E-06
v -0.280707568 0.0727011263 -1.21787548E-06
v -0.289819211 0.00932798814 -1.21887001E-06
v -0.27093786 0.00661328016 -1.21875121E-06
v -0.261826217 0.0699864179 -1.2177569E-06
v -0.18831794 0.0484024622 -1.2168133E-06
v -0.194326296 0.00661331369 -1.21875121E-06
v -0.530679703 0.171201974 -1.22123413E-06
v -0.476907372 0.288947135 -1.22261633E-06
v -0.412457585 0.247527808 -1.22080587E-06
v -0.45717141 0.149618015 -1.22029064E-06
v -0.439819753 0.141693786 -1.21994424E-06
v -0.395105898 0.239603564 -1.22045947E-06
v -0.330656111 0.198184237 -1.218649E-06
v -0.366311461 0.120109834 -1.21900075E-06
v -0.348959774 0.11218559 -1.21865446E-06
v -0.313304424 0.190259993 -1.2183026E-06
v -0.248854652 0.148840666 -1.21649214E-06
v -0.275451511 0.0906016454 -1.21771097E-06
v -0.258099824 0.0826774091 -1.21736457E-06
v -0.231502965 0.140916437 -1.21614573E-06
v -0.167053193 0.0994971022 -1.21433516E-06
v -0.184591532 0.0610934496 -1.2164212E-06
v -0.460950285 0.313776851 -1.22275469E-06
v -0.37618342 0.411603063 -1.22326628E-06
v -0.326013476 0.353703916 -1.22073538E-06
v -0.396500498 0.272357523 -1.22094423E-06
v -0.382084221 0.259865761 -1.22039819E-06
v -0.311597198 0.341212153 -1.22018946E-06
v -0.261427253 0.283312976 -1.21765856E-06
v -0.317634404 0.218446404 -1.21858761E-06
v -0.303218126 0.205954626 -1.21804169E-06
v -0.247010961 0.270821214 -1.21711253E-06
v -0.196841016 0.212922037 -1.21458163E-06
v -0.238768324 0.164535299 -1.21623111E-06
v -0.224352047 0.152043521 -1.21568519E-06
v -0.182424724 0.200430259 -1.21403559E-06
v -0.132254794 0.142531097 -1.21150481E-06
v -0.15990226 0.110624179 -1.21387461E-06
v -0.353877395 0.43093136 -1.22316419E-06
v -0.244983375 0.500913382 -1.22245854E-06
v -0.213157743 0.431225032 -1.21941241E-06
v -0.303707451 0.373032182 -1.22063329E-06
v -0.293394476 0.356984884 -1.21993185E-06
v -0.202844769 0.415177703 -1.21871108E-06
v -0.171019137 0.345489383 -1.21566484E-06
v -0.243224517 0.299085736 -1.21740095E-06
v -0.232911527 0.283038408 -1.2166995E-06
v -0.160706148 0.329442054 -1.21496339E-06
v -0.128880531 0.259753704 -1.21191715E-06
v -0.182741597 0.22513926 -1.21416872E-06
v -0.172428593 0.209091961 -1.21346727E-06
v -0.118567541 0.24370639 -1.2112157E-06
v -0.0867418721 0.174018055 -1.20816958E-06
v -0.122258648 0.151192799 -1.21093638E-06
v -0.218135476 0.513174415 -1.22204756E-06
v -0.0939361975 0.549642682 -1.21987705E-06
v -0.0830332339 0.473810911 -1.2165624E-06
v -0.186309859 0.443486094 -1.21900143E-06
v -0.180935666 0.425183237 -1.21820142E-06
v -0.0776590407 0.455508053 -1.21576238E-06
v -0.066756025 0.379676282 -1.21244761E-06
v -0.149110004 0.355494946 -1.21515518E-06
v -0.143735826 0.337192148 -1.21435517E-06
v -0.0613818392 0.361373514 -1.2116476E-06
v -0.0504788719 0.285541713 -1.20833283E-06
v -0.111910224 0.267503798 -1.21130893E-06
v -0.106536038 0.249201015 -1.21050891E-06
v -0.0451046824 0.267238915 -1.20753282E-06
v -0.0342016928 0.191407114 -1.20421805E-06
v -0.074710384 0.179512665 -1.20746279E-06
v -0.0647215098 0.553843081 -1.21911376E-06
v 0.0647210702 0.553843141 -1.21534913E-06
v 0.0538181067 0.47801131 -1.21203448E-06
v -0.0538185425 0.47801131 -1.2157991E-06
v -0.0538185164 0.458935827 -1.21496521E-06
v 0.0538181551 0.458935887 -1.2112007E-06
v 0.0429152325 0.383104056 -1.20788593E-06
v -0.0429155007 0.383104056 -1.21165044E-06
v -0.0429155007 0.364028543 -1.21081666E-06
v 0.0429152325 0.364028543 -1.20705215E-06
v 0.0320122652 0.288196772 -1.20373738E-06
v -0.0320125334 0.288196743 -1.20750201E-06
v -0.0320125334 0.269121289 -1.20666812E-06
v 0.0320122652 0.269121319 -1.2029036E-06
v 0.0211093463 0.193289503 -1.19958895E-06
v -0.02110954 0.193289489 -1.20335346E-06
v 0.09393581 0.549642682 -1.21421863E-06
v 0.218135104 0.513174534 -1.20886E-06
v 0.186309487 0.443486214 -1.20581387E-06
v 0.083032839 0.473810911 -1.21090386E-06
v 0.0776587054 0.455508143 -1.21010385E-06
v 0.180935338 0.425183445 -1.20501375E-06
v 0.149109766 0.355495065 -1.20196762E-06
v 0.0667557865 0.379676312 -1.20678919E-06
v 0.0613815971 0.361373514 -1.20598907E-06
v 0.143735588 0.337192267 -1.20116749E-06
v 0.11191 0.267503858 -1.19812137E-06
v 0.0504786298 0.285541713 -1.20267441E-06
v 0.0451044403 0.267238915 -1.20187428E-06
v 0.106535815 0.249201059 -1.19732124E-06
v 0.0747101903 0.179512709 -1.19427511E-06
v 0.034201473 0.191407129 -1.19855963E-06
v 0.244983032 0.500913501 -1.20737707E-06
v 0.353877097 0.430931538 -1.20055347E-06
v 0.303707212 0.373032391 -1.19802269E-06
v 0.213157415 0.431225181 -1.20433083E-06
v 0.202844426 0.415177852 -1.20362938E-06
v 0.293394238 0.356985092 -1.19732124E-06
v 0.243224323 0.299085885 -1.19479034E-06
v 0.171018854 0.345489532 -1.20058326E-06
v 0.160705864 0.329442203 -1.19988181E-06
v 0.232911333 0.283038557 -1.1940889E-06
v 0.182741433 0.22513938 -1.191558E-06
v 0.128880292 0.259753823 -1.19683557E-06
v 0.118567303 0.243706495 -1.19613412E-06
v 0.172428444 0.209092051 -1.19085655E-06
v 0.122258499 0.151192874 -1.18832565E-06
v 0.0867416784 0.174018115 -1.193088E-06
v 0.376183152 0.411603272 -1.19876165E-06
v 0.460950166 0.313777119 -1.19072092E-06
v 0.396500289 0.272357732 -1.18891046E-06
v 0.326013267 0.353704095 -1.19623087E-06
v 0.31159699 0.341212302 -1.19568472E-06
v 0.382084012 0.25986594 -1.18836442E-06
v 0.317634255 0.218446597 -1.18655396E-06
v 0.261427075 0.283313096 -1.19315393E-06
v 0.247010767 0.270821333 -1.19260778E-06
v 0.303217947 0.20595482 -1.18600792E-06
v 0.238768205 0.164535448 -1.18419746E-06
v 0.196840867 0.212922156 -1.190077E-06
v 0.18242459 0.200430349 -1.18953096E-06
v 0.224351928 0.152043656 -1.18365142E-06
v 0.159902126 0.110624276 -1.18184084E-06
v 0.13225469 0.142531171 -1.18700018E-06
v 0.476907134 0.288947403 -1.18868866E-06
v 0.530679643 0.171202272 -1.1797772E-06
v 0.457171321 0.149618283 -1.17883383E-06
v 0.412457377 0.247528031 -1.18687819E-06
v 0.39510569 0.239603788 -1.18653179E-06
v 0.439819664 0.141694024 -1.17848742E-06
v 0.366311342 0.120110035 -1.17754394E-06
v 0.330655962 0.198184416 -1.18472121E-06
v 0.313304305 0.190260172 -1.18437481E-06
v 0.348959684 0.112185799 -1.17719753E-06
v 0.275451422 0.0906018019 -1.17625416E-06
v 0.248854548 0.148840815 -1.18256435E-06
v 0.231502846 0.140916586 -1.18221806E-06
v 0.258099735 0.082677573 -1.17590776E-06
v 0.184591413 0.06109358 -1.17496427E-06
v 0.167053059 0.099497214 -1.18040748E-06
v 0.538995028 0.14288272 -1.17759248E-06
v 0.557416558 0.0147576621 -1.1682273E-06
v 0.48080495 0.01475765 -1.1682273E-06
v 0.465486705 0.121298723 -1.17664899E-06
v 0.446605384 0.118584 -1.17653019E-06
v 0.461923629 0.0120429182 -1.16810861E-06
v 0.385312051 0.0120429061 -1.16810861E-06
v 0.373097062 0.0970000103 -1.17558682E-06
v 0.354215741 0.0942852795 -1.17546813E-06
v 0.366430759 0.00932817906 -1.16799004E-06
v 0.289819151 0.00932816695 -1.16799004E-06
v 0.280707508 0.0727012902 -1.17452464E-06
v 0.261826128 0.0699865595 -1.17440607E-06
v 0.2709378 0.00661343755 -1.16787123E-06
v 0.194326237 0.00661342265 -1.16787123E-06
v 0.188317835 0.0484025665 -1.17346258E-06
vt -8.94069672E-08 1
vt 0.0454544574 1
vt 0.0454544462 0.75
vt -1.00334816E-07 0.75
vt -1.00334816E-07 0.75
vt 0.0454544462 0.75
vt 0.0454544351 0.5
vt -1.11262665E-07 0.5
vt -1.11262665E-07 0.5
vt 0.0454544351 0.5
vt 0.0454544239 0.25
vt -1.22190499E-07 0.25
vt -1.22190499E-07 0.25
vt 0.0454544239 0.25
vt 0.0454544127 0
vt -1.33118363E-07 0
vt 0.0454544574 1
vt 0.0909090042 1
vt 0.0909089968 0.75
vt 0.0454544462 0.75
vt 0.0454544462 0.75
vt 0.0909089968 0.75
vt 0.0909089819 0.5
vt 0.0454544351 0.5
vt 0.0454544351 0.5
vt 0.0909089819 0.5
vt 0.0909089744 0.25
vt 0.0454544239 0.25
vt 0.0454544239 0.25
vt 0.0909089744 0.25
vt 0.0909089595 0
vt 0.0454544127 0
vt 0.0909090042 1
vt 0.136363551 1
vt 0.136363536 0.75
vt 0.0909089968 0.75
vt 0.0909089968 0.75
vt 0.136363536 0.75
vt 0.136363536 0.5
vt 0.0909089819 0.5
vt 0.0909089819 0.5
vt 0.136363536 0.5
vt 0.136363521 0.25
vt 0.0909089744 0.25
vt 0.0909089744 0.25
vt 0.136363521 0.25
vt 0.136363506 0
vt 0.0909089595 0
vt 0.136363551 1
vt 0.181818098 1
vt 0.181818083 0.75
vt 0.136363536 0.75
vt 0.136363536 0.75
vt 0.181818083 0.75
vt 0.181818083 0.5
vt 0.136363536 0.5
vt 0.136363536 0.5
vt 0.181818083 0.5
vt 0.181818068 0.25
vt 0.136363521 0.25
vt 0.136363521 0.25
vt 0.181818068 0.25
vt 0.181818053 0
vt 0.136363506 0
vt 0.181818098 1
vt 0.227272645 1
vt 0.22727263 0.75
vt 0.181818083 0.75
vt 0.181818083 0.75
vt 0.22727263 0.75
vt 0.22727263 0.5
vt 0.181818083 0.5
vt 0.181818083 0.5
vt 0.22727263 0.5
vt 0.227272615 0.25
vt 0.181818068 0.25
vt 0.181818068 0.25
vt 0.227272615 0.25
vt 0.2272726 0
vt 0.181818053 0
vt 0.227272645 1
vt 0.272727191 1
vt 0.272727191 0.75
vt 0.22727263 0.75
vt 0.22727263 0.75
vt 0.272727191 0.75
vt 0.272727162 0.5
vt 0.22727263 0.5
vt 0.22727263 0.5
vt 0.272727162 0.5
vt 0.272727162 0.25
vt 0.227272615 0.25
vt 0.227272615 0.25
vt 0.272727162 0.25
vt 0.272727162 0
vt 0.2272726 0
vt 0.272727191 1
vt 0.318181723 1
vt 0.318181723 0.75
vt 0.272727191 0.75
vt 0.272727191 0.75
vt 0.318181723 0.75
vt 0.318181694 0.5
vt 0.272727162 0.5
vt 0.272727162 0.5
vt 0.318181694 0.5
vt 0.318181694 0.25
vt 0.272727162 0.25
vt 0.272727162 0.25
vt 0.318181694 0.25
vt 0.318181694 0
vt 0.272727162 0
vt 0.318181723 1
vt 0.363636285 1
vt 0.363636285 0.75
vt 0.318181723 0.75
vt 0.318181723 0.75
vt 0.363636285 0.75
vt 0.363636255 0.5
vt 0.318181694 0.5
vt 0.318181694 0.5
vt 0.363636255 0.5
vt 0.363636255 0.25
vt 0.318181694 0.25
vt 0.318181694 0.25
vt 0.363636255 0.25
vt 0.363636255 0
vt 0.318181694 0
vt 0.363636285 1
vt 0.409090847 1
vt 0.409090847 0.75
vt 0.363636285 0.75
vt 0.363636285 0.75
vt 0.409090847 0.75
vt 0.409090817 0.5
vt 0.363636255 0.5
vt 0.363636255 0.5
vt 0.409090817 0.5
vt 0.409090817 0.25
vt 0.363636255 0.25
vt 0.363636255 0.25
vt 0.409090817 0.25
vt 0.409090817 0
vt 0.363636255 0
vt 0.409090847 1
vt 0.454545408 1
vt 0.454545408 0.75
vt 0.409090847 0.75
vt 0.409090847 0.75
vt 0.454545408 0.75
vt 0.454545379 0.5
vt 0.409090817 0.5
vt 0.409090817 0.5
vt 0.454545379 0.5
vt 0.454545379 0.25
vt 0.409090817 0.25
vt 0.409090817 0.25
vt 0.454545379 0.25
vt 0.454545379 0
vt 0.409090817 0
vt 0.454545408 1
vt 0.49999997 1
vt 0.49999997 0.75
vt 0.454545408 0.75
vt 0.454545408 0.75
vt 0.49999997 0.75
vt 0.49999997 0.5
vt 0.454545379 0.5
vt 0.454545379 0.5
vt 0.49999997 0.5
vt 0.499999911 0.25
vt 0.454545379 0.25
vt 0.454545379 0.25
vt 0.499999911 0.25
vt 0.499999911 0
vt 0.454545379 0
vt 0.49999997 1
vt 0.545454502 1
vt 0.545454502 0.75
vt 0.49999997 0.75
vt 0.49999997 0.75
vt 0.545454502 0.75
vt 0.545454502 0.5
vt 0.49999997 0.5
vt 0.49999997 0.5
vt 0.545454502 0.5
vt 0.545454502 0.25
vt 0.499999911 0.25
vt 0.499999911 0.25
vt 0.545454502 0.25
vt 0.545454502 0
vt 0.499999911 0
vt 0.545454502 1
vt 0.590909123 1
vt 0.590909123 0.75
vt 0.545454502 0.75
vt 0.545454502 0.75
vt 0.590909123 0.75
vt 0.590909123 0.5
vt 0.545454502 0.5
vt 0.545454502 0.5
vt 0.590909123 0.5
vt 0.590909004 0.25
vt 0.545454502 0.25
vt 0.545454502 0.25
vt 0.590909004 0.25
vt 0.590909004 0
vt 0.545454502 0
vt 0.590909123 1
vt 0.636363626 1
vt 0.636363626 0.75
vt 0.590909123 0.75
vt 0.590909123 0.75
vt 0.636363626 0.75
vt 0.636363626 0.5
vt 0.590909123 0.5
vt 0.590909123 0.5
vt 0.636363626 0.5
vt 0.636363626 0.25
vt 0.590909004 0.25
vt 0.590909004 0.25
vt 0.636363626 0.25
vt 0.636363626 0
vt 0.590909004 0
vt 0.636363626 1
vt 0.681818247 0.99999994
vt 0.681818247 0.75
vt 0.636363626 0.75
vt 0.636363626 0.75
vt 0.681818247 0.75
vt 0.681818247 0.49999994
vt 0.636363626 0.5
vt 0.636363626 0.5
vt 0.681818247 0.49999994
vt 0.681818128 0.24999994
vt 0.636363626 0.25
vt 0.636363626 0.25
vt 0.681818128 0.24999994
vt 0.681818128 0
vt 0.636363626 0
vt 0.681818247 0.99999994
vt 0.727272749 0.99999994
vt 0.727272749 0.75
vt 0.681818247 0.75
vt 0.681818247 0.75
vt 0.727272749 0.75
vt 0.727272749 0.49999994
vt 0.681818247 0.49999994
vt 0.681818247 0.49999994
vt 0.727272749 0.49999994
vt 0.727272749 0.24999994
vt 0.681818128 0.24999994
vt 0.681818128 0.24999994
vt 0.727272749 0.24999994
vt 0.727272749 0
vt 0.681818128 0
vt 0.727272749 0.99999994
vt 0.77272737 0.99999994
vt 0.77272737 0.75
vt 0.727272749 0.75
vt 0.727272749 0.75
vt 0.77272737 0.75
vt 0.77272737 0.49999994
vt 0.727272749 0.49999994
vt 0.727272749 0.49999994
vt 0.77272737 0.49999994
vt 0.772727251 0.24999994
vt 0.727272749 0.24999994
vt 0.727272749 0.24999994
vt 0.772727251 0.24999994
vt 0.772727251 0
vt 0.727272749 0
vt 0.77272737 0.99999994
vt 0.818181872 0.99999994
vt 0.818181872 0.75
vt 0.77272737 0.75
vt 0.77272737 0.75
vt 0.818181872 0.75
vt 0.818181872 0.49999994
vt 0.77272737 0.49999994
vt 0.77272737 0.49999994
vt 0.818181872 0.49999994
vt 0.818181872 0.24999994
vt 0.772727251 0.24999994
vt 0.772727251 0.24999994
vt 0.818181872 0.24999994
vt 0.818181872 0
vt 0.772727251 0
vt 0.818181872 0.99999994
vt 0.863636494 0.99999994
vt 0.863636494 0.75
vt 0.818181872 0.75
vt 0.818181872 0.75
vt 0.863636494 0.75
vt 0.863636494 0.49999994
vt 0.818181872 0.49999994
vt 0.818181872 0.49999994
vt 0.863636494 0.49999994
vt 0.863636374 0.24999994
vt 0.818181872 0.24999994
vt 0.818181872 0.24999994
vt 0.863636374 0.24999994
vt 0.863636374 0
vt 0.818181872 0
vt 0.863636494 0.99999994
vt 0.909090996 0.99999994
vt 0.909090996 0.75
vt 0.863636494 0.75
vt 0.863636494 0.75
vt 0.909090996 0.75
vt 0.909090996 0.49999994
vt 0.863636494 0.49999994
vt 0.863636494 0.49999994
vt 0.909090996 0.49999994
vt 0.909090996 0.24999994
vt 0.863636374 0.24999994
vt 0.863636374 0.24999994
vt 0.909090996 0.24999994
vt 0.909090996 0
vt 0.863636374 0
vt 0.909090996 0.99999994
vt 0.954545617 0.99999994
vt 0.954545617 0.75
vt 0.909090996 0.75
vt 0.909090996 0.75
vt 0.954545617 0.75
vt 0.954545617 0.49999994
vt 0.909090996 0.49999994
vt 0.909090996 0.49999994
vt 0.954545617 0.49999994
vt 0.954545498 0.24999994
vt 0.909090996 0.24999994
vt 0.909090996 0.24999994
vt 0.954545498 0.24999994
vt 0.954545498 0
vt 0.909090996 0
vt 0.954545617 0.99999994
vt 1.00000012 0.99999994
vt 1.00000012 0.75
vt 0.954545617 0.75
vt 0.954545617 0.75
vt 1.00000012 0.75
vt 1.00000012 0.49999994
vt 0.954545617 0.49999994
vt 0.954545617 0.49999994
vt 1.00000012 0.49999994
vt 1.00000012 0.24999994
vt 0.954545498 0.24999994
vt 0.954545498 0.24999994
vt 1.00000012 0.24999994
vt 1.00000012 0
vt 0.954545498 0
vn -0 0 1
vn -0 0 1
vn -0 0 1
vn -0 0 1
vn -0 0 1
vn -0 0 1
vn -0 0 1
vn -0 0 1
vn -0 0 1
vn -0 0 1
vn -0 0 1
vn -0 0 1
vn -0 0 1
vn -0 0 1
vn -0 0 1
vn -0 0 1
vn -0 0 1
vn -0 0 1
vn -0 0 1
vn -0 0 1
vn -0 0 1
vn -0 0 1
vn -0 0 1
vn -0 0 1
vn -0 0 1
vn -0 0 1
vn -0 0 1
vn -0 0 1
vn -0 0 1
vn -0 0 1
vn -0 0 1
vn -0 0 1
vn -0 0 1
vn -0 0 1
vn -0 0 1
vn -0 0 1
vn -0 0 1
vn -0 0 1
vn -0 0 1
vn -0 0 1
vn -0 0 1
vn -0 0 1
vn -0 0 1
vn -0 0 1
vn -0 0 1
vn -0 0 1
vn -0 0 1
vn -0 0 1
vn -0 0 1
vn -0 0 1
vn -0 0 1
vn -0 0 1
vn -0 0 1
vn -0 0 1
vn -0 0 1
vn -0 0 1
vn -0 0 1
vn -0 0 1
vn -0 0 1
vn -0 0 1
vn -0 0 1
vn -0 0 1
vn -0 0 1
vn -0 0 1
vn -0 0 1
vn -0 0 1
vn -0 0 1
vn -0 0 1
vn -0 0 1
vn -0 0 1
vn -0 0 1
vn -0 0 1
vn -0 0 1
vn -0 0 1
vn -0 0 1
vn -0 0 1
vn -0 0 1
vn -0 0 1
vn -0 0 1
vn -0 0 1
vn -0 0 1
vn -0 0 1
vn -0 0 1
vn -0 0 1
vn -0 0 1
vn -0 0 1
vn -0 0 1
vn -0 0 1
vn -0 0 1
vn -0 0 1
vn -0 0 1
vn -0 0 1
vn -0 0 1
vn -0 0 1
vn -0 0 1
vn -0 0 1
vn -0 0 1
vn -0 0 1
vn -0 0 1
vn -0 0 1
vn -0 0 1
vn -0 0 1
vn -0 0 1
vn -0 0 1
vn -0 0 1
vn -0 0 1
vn -0 0 1
vn -0 0 1
vn -0 0 1
vn -0 0 1
vn -0 0 1
vn -0 0 1
vn -0 0 1
vn -0 0 1
vn -0 0 1
vn -0 0 1
vn -0 0 1
vn -0 0 1
vn -0 0 1
vn -0 0 1
vn -0 0 1
vn -0 0 1
vn -0 0 1
vn -0 0 1
vn -0 0 1
vn -0 0 1
vn -0 0 1
vn -0 0 1
vn -0 0 1
vn -0 0 1
vn -0 0 1
vn -0 0 1
vn -0 0 1
vn -0 0 1
vn -0 0 1
vn -0 0 1
vn -0 0 1
vn -0 0 1
vn -0 0 1
vn -0 0 1
vn -0 0 1
vn -0 0 1
vn -0 0 1
vn -0 0 1
vn -0 0 1
vn -0 0 1
vn -0 0 1
vn -0 0 1
vn -0 0 1
vn -0 0 1
vn -0 0 1
vn -0 0 1
vn -0 0 1
vn -0 0 1
vn -0 0 1
vn -0 0 1
vn -0 0 1
vn -0 0 1
vn -0 0 1
vn -0 0 1
vn -0 0 1
vn -0 0 1
vn -0 0 1
vn -0 0 1
vn -0 0 1
vn -0 0 1
vn -0 0 1
vn -0 0 1
vn -0 0 1
vn -0 0 1
vn -0 0 1
vn -0 0 1
vn -0 0 1
vn -0 0 1
vn -0 0 1
vn -0 0 1
vn -0 0 1
vn -0 0 1
vn -0 0 1
vn -0 0 1
vn -0 0 1
vn -0 0 1
vn -0 0 1
vn -0 0 1
vn -0 0 1
vn -0 0 1
vn -0 0 1
vn -0 0 1
vn -0 0 1
vn -0 0 1
vn -0 0 1
vn -0 0 1
vn -0 0 1
vn -0 0 1
vn -0 0 1
vn -0 0 1
vn -0 0 1
vn -0 0 1
vn -0 0 1
vn -0 0 1
vn -0 0 1
vn -0 0 1
vn -0 0 1
vn -0 0 1
vn -0 0 1
vn -0 0 1
vn -0 0 1
vn -0 0 1
vn -0 0 1
vn -0 0 1
vn -0 0 1
vn -0 0 1
vn -0 0 1
vn -0 0 1
vn -0 0 1
vn -0 0 1
vn -0 0 1
vn -0 0 1
vn -0 0 1
vn -0 0 1
vn -0 0 1
vn -0 0 1
vn -0 0 1
vn -0 0 1
vn -0 0 1
vn -0 0 1
vn -0 0 1
vn -0 0 1
vn -0 0 1
vn -0 0 1
vn -0 0 1
vn -0 0 1
vn -0 0 1
vn -0 0 1
vn -0 0 1
vn -0 0 1
vn -0 0 1
vn -0 0 1
vn -0 0 1
vn -0 0 1
vn -0 0 1
vn -0 0 1
vn -0 0 1
vn -0 0 1
vn -0 0 1
vn -0 0 1
vn -0 0 1
vn -0 0 1
vn -0 0 1
vn -0 0 1
vn -0 0 1
vn -0 0 1
vn -0 0 1
vn -0 0 1
vn -0 0 1
vn -0 0 1
vn -0 0 1
vn -0 0 1
vn -0 0 1
vn -0 0 1
vn -0 0 1
vn -0 0 1
vn -0 0 1
vn -0 0 1
vn -0 0 1
vn -0 0 1
vn -0 0 1
vn -0 0 1
vn -0 0 1
vn -0 0 1
vn -0 0 1
vn -0 0 1
vn -0 0 1
vn -0 0 1
vn -0 0 1
vn -0 0 1
vn -0 0 1
vn -0 0 1
vn -0 0 1
vn -0 0 1
vn -0 0 1
vn -0 0 1
vn -0 0 1
vn -0 0 1
vn -0 0 1
vn -0 0 1
vn -0 0 1
vn -0 0 1
vn -0 0 1
vn -0 0 1
vn -0 0 1
vn -0 0 1
vn -0 0 1
vn -0 0 1
vn -0 0 1
vn -0 0 1
vn -0 0 1
vn -0 0 1
vn -0 0 1
vn -0 0 1
vn -0 0 1
vn -0 0 1
vn -0 0 1
vn -0 0 1
vn -0 0 1
vn -0 0 1
vn -0 0 1
vn -0 0 1
vn -0 0 1
vn -0 0 1
vn -0 0 1
vn -0 0 1
vn -0 0 1
vn -0 0 1
vn -0 0 1
vn -0 0 1
vn -0 0 1
vn -0 0 1
vn -0 0 1
vn -0 0 1
vn -0 0 1
vn -0 0 1
vn -0 0 1
vn -0 0 1
vn -0 0 1
vn -0 0 1
vn -0 0 1
vn -0 0 1
vn -0 0 1
vn -0 0 1
vn -0 0 1
vn -0 0 1
vn -0 0 1
vn -0 0 1
vn -0 0 1
vn -0 0 1
vn -0 0 1
vn -0 0 1
vn -0 0 1
vn -0 0 1
vn -0 0 1
vn -0 0 1
vn -0 0 1
vn -0 0 1
vn -0 0 1
vn -0 0 1
vn -0 0 1
vn -0 0 1
vn -0 0 1
vn -0 0 1
vn -0 0 1
vn -0 0 1
g Plane003_0
f 3/3/3 2/2/2 1/1/1
f 4/4/4 3/3/3 1/1/1
f 7/7/7 6/6/6 5/5/5
f 8/8/8 7/7/7 5/5/5
f 11/11/11 10/10/10 9/9/9
f 12/12/12 11/11/11 9/9/9
f 15/15/15 14/14/14 13/13/13
f 16/16/16 15/15/15 13/13/13
f 19/19/19 18/18/18 17/17/17
f 20/20/20 19/19/19 17/17/17
f 23/23/23 22/22/22 21/21/21
f 24/24/24 23/23/23 21/21/21
f 27/27/27 26/26/26 25/25/25
f 28/28/28 27/27/27 25/25/25
f 31/31/31 30/30/30 29/29/29
f 32/32/32 31/31/31 29/29/29
f 35/35/35 34/34/34 33/33/33
f 36/36/36 35/35/35 33/33/33
f 39/39/39 38/38/38 37/37/37
f 40/40/40 39/39/39 37/37/37
f 43/43/43 42/42/42 41/41/41
f 44/44/44 43/43/43 41/41/41
f 47/47/47 46/46/46 45/45/45
f 48/48/48 47/47/47 45/45/45
f 51/51/51 50/50/50 49/49/49
f 52/52/52 51/51/51 49/49/49
f 55/55/55 54/54/54 53/53/53
f 56/56/56 55/55/55 53/53/53
f 59/59/59 58/58/58 57/57/57
f 60/60/60 59/59/59 57/57/57
f 63/63/63 62/62/62 61/61/61
f 64/64/64 63/63/63 61/61/61
f 67/67/67 66/66/66 65/65/65
f 68/68/68 67/67/67 65/65/65
f 71/71/71 70/70/70 69/69/69
f 72/72/72 71/71/71 69/69/69
f 75/75/75 74/74/74 73/73/73
f 76/76/76 75/75/75 73/73/73
f 79/79/79 78/78/78 77/77/77
f 80/80/80 79/79/79 77/77/77
f 83/83/83 82/82/82 81/81/81
f 84/84/84 83/83/83 81/81/81
f 87/87/87 86/86/86 85/85/85
f 88/88/88 87/87/87 85/85/85
f 91/91/91 90/90/90 89/89/89
f 92/92/92 91/91/91 89/89/89
f 95/95/95 94/94/94 93/93/93
f 96/96/96 95/95/95 93/93/93
f 99/99/99 98/98/98 97/97/97
f 100/100/100 99/99/99 97/97/97
f 103/103/103 102/102/102 101/101/101
f 104/104/104 103/103/103 101/101/101
f 107/107/107 106/106/106 105/105/105
f 108/108/108 107/107/107 105/105/105
f 111/111/111 110/110/110 109/109/109
f 112/112/112 111/111/111 109/109/109
f 115/115/115 114/114/114 113/113/113
f 116/116/116 115/115/115 113/113/113
f 119/119/119 118/118/118 117/117/117
f 120/120/120 119/119/119 117/117/117
f 123/123/123 122/122/122 121/121/121
f 124/124/124 123/123/123 121/121/121
f 127/127/127 126/126/126 125/125/125
f 128/128/128 127/127/127 125/125/125
f 131/131/131 130/130/130 129/129/129
f 132/132/132 131/131/131 129/129/129
f 135/135/135 134/134/134 133/133/133
f 136/136/136 135/135/135 133/133/133
f 139/139/139 138/138/138 137/137/137
f 140/140/140 139/139/139 137/137/137
f 143/143/143 142/142/142 141/141/141
f 144/144/144 143/143/143 141/141/141
f 147/147/147 146/146/146 145/145/145
f 148/148/148 147/147/147 145/145/145
f 151/151/151 150/150/150 149/149/149
f 152/152/152 151/151/151 149/149/149
f 155/155/155 154/154/154 153/153/153
f 156/156/156 155/155/155 153/153/153
f 159/159/159 158/158/158 157/157/157
f 160/160/160 159/159/159 157/157/157
f 163/163/163 162/162/162 161/161/161
f 164/164/164 163/163/163 161/161/161
f 167/167/167 166/166/166 165/165/165
f 168/168/168 167/167/167 165/165/165
f 171/171/171 170/170/170 169/169/169
f 172/172/172 171/171/171 169/169/169
f 175/175/175 174/174/174 173/173/173
f 176/176/176 175/175/175 173/173/173
f 179/179/179 178/178/178 177/177/177
f 180/180/180 179/179/179 177/177/177
f 183/183/183 182/182/182 181/181/181
f 184/184/184 183/183/183 181/181/181
f 187/187/187 186/186/186 185/185/185
f 188/188/188 187/187/187 185/185/185
f 191/191/191 190/190/190 189/189/189
f 192/192/192 191/191/191 189/189/189
f 195/195/195 194/194/194 193/193/193
f 196/196/196 195/195/195 193/193/193
f 199/199/199 198/198/198 197/197/197
f 200/200/200 199/199/199 197/197/197
f 203/203/203 202/202/202 201/201/201
f 204/204/204 203/203/203 201/201/201
f 207/207/207 206/206/206 205/205/205
f 208/208/208 207/207/207 205/205/205
f 211/211/211 210/210/210 209/209/209
f 212/212/212 211/211/211 209/209/209
f 215/215/215 214/214/214 213/213/213
f 216/216/216 215/215/215 213/213/213
f 219/219/219 218/218/218 217/217/217
f 220/220/220 219/219/219 217/217/217
f 223/223/223 222/222/222 221/221/221
f 224/224/224 223/223/223 221/221/221
f 227/227/227 226/226/226 225/225/225
f 228/228/228 227/227/227 225/225/225
f 231/231/231 230/230/230 229/229/229
f 232/232/232 231/231/231 229/229/229
f 235/235/235 234/234/234 233/233/233
f 236/236/236 235/235/235 233/233/233
f 239/239/239 238/238/238 237/237/237
f 240/240/240 239/239/239 237/237/237
f 243/243/243 242/242/242 241/241/241
f 244/244/244 243/243/243 241/241/241
f 247/247/247 246/246/246 245/245/245
f 248/248/248 247/247/247 245/245/245
f 251/251/251 250/250/250 249/249/249
f 252/252/252 251/251/251 249/249/249
f 255/255/255 254/254/254 253/253/253
f 256/256/256 255/255/255 253/253/253
f 259/259/259 258/258/258 257/257/257
f 260/260/260 259/259/259 257/257/257
f 263/263/263 262/262/262 261/261/261
f 264/264/264 263/263/263 261/261/261
f 267/267/267 266/266/266 265/265/265
f 268/268/268 267/267/267 265/265/265
f 271/271/271 270/270/270 269/269/269
f 272/272/272 271/271/271 269/269/269
f 275/275/275 274/274/274 273/273/273
f 276/276/276 275/275/275 273/273/273
f 279/279/279 278/278/278 277/277/277
f 280/280/280 279/279/279 277/277/277
f 283/283/283 282/282/282 281/281/281
f 284/284/284 283/283/283 281/281/281
f 287/287/287 286/286/286 285/285/285
f 288/288/288 287/287/287 285/285/285
f 291/291/291 290/290/290 289/289/289
f 292/292/292 291/291/291 289/289/289
f 295/295/295 294/294/294 293/293/293
f 296/296/296 295/295/295 293/293/293
f 299/299/299 298/298/298 297/297/297
f 300/300/300 299/299/299 297/297/297
f 303/303/303 302/302/302 301/301/301
f 304/304/304 303/303/303 301/301/301
f 307/307/307 306/306/306 305/305/305
f 308/308/308 307/307/307 305/305/305
f 311/311/311 310/310/310 309/309/309
f 312/312/312 311/311/311 309/309/309
f 315/315/315 314/314/314 313/313/313
f 316/316/316 315/315/315 313/313/313
f 319/319/319 318/318/318 317/317/317
f 320/320/320 319/319/319 317/317/317
f 323/323/323 322/322/322 321/321/321
f 324/324/324 323/323/323 321/321/321
f 327/327/327 326/326/326 325/325/325
f 328/328/328 327/327/327 325/325/325
f 331/331/331 330/330/330 329/329/329
f 332/332/332 331/331/331 329/329/329
f 335/335/335 334/334/334 333/333/333
f 336/336/336 335/335/335 333/333/333
f 339/339/339 338/338/338 337/337/337
f 340/340/340 339/339/339 337/337/337
f 343/343/343 342/342/342 341/341/341
f 344/344/344 343/343/343 341/341/341
f 347/347/347 346/346/346 345/345/345
f 348/348/348 347/347/347 345/345/345
f 351/351/351 350/350/350 349/349/349
f 352/352/352 351/351/351 349/349/349
