g Plane006
v -0.160499886 -0.288006395 1.00985938E-11
v -0.205703184 -0.301324904 1.0098593E-11
v -0.222974926 -0.288006395 1.00985938E-11
v -0.17288962 -0.321112216 1.0098593E-11
v -0.160499886 -0.326770395 1.00985938E-11
v -0.0948554724 -0.3507227 1.0098593E-11
v -0.0576149784 -0.289858133 1.00985938E-11
v -0.0576149784 -0.358268589 1.00985938E-11
v -0.153763622 -0.328622133 1.00985938E-11
v -0.131298065 -0.33888182 1.0098593E-11
v -0.153763622 -0.289858133 1.00985938E-11
v -0.259651631 -0.252240539 1.00985938E-11
v -0.225978017 -0.282341927 1.00985938E-11
v -0.239050418 -0.27226162 1.0098593E-11
v -0.163502976 -0.282341927 1.00985938E-11
v -0.163502976 -0.177903175 1.00985938E-11
v -0.259651631 -0.177903175 1.00985938E-11
v -0.0573767312 -0.176867023 1.00985938E-11
v -0.153525382 -0.28130576 1.00985938E-11
v -0.153525382 -0.176867023 1.00985938E-11
v -0.0573767312 -0.28130576 1.00985938E-11
v -0.00997819845 -0.362909645 1.0098593E-11
v 0.0476787053 -0.359032691 1.00985938E-11
v 0.0283241794 -0.361815453 1.0098593E-11
v 0.0476787053 -0.291156411 1.00985938E-11
v -0.0484699532 -0.359566867 1.00985938E-11
v -0.048155643 -0.359630585 1.0098593E-11
v -0.0484699532 -0.291156411 1.00985938E-11
v -0.16282776 -0.0623238236 1.00985938E-11
v -0.25897643 -0.166762576 1.00985938E-11
v -0.25897643 -0.0623238236 1.00985938E-11
v -0.16282776 -0.166762576 1.00985938E-11
v -0.265958339 -0.174809769 1.00985938E-11
v -0.31780827 -0.180564269 1.0098593E-11
v -0.320637554 -0.174809769 1.00985938E-11
v -0.297091961 -0.212799415 1.0098593E-11
v -0.272836179 -0.242462963 1.0098593E-11
v -0.265958339 -0.249147147 1.00985938E-11
v -0.0573767312 -0.0623238236 1.00985938E-11
v -0.153525382 -0.166762576 1.00985938E-11
v -0.153525382 -0.0623238236 1.00985938E-11
v -0.0573767312 -0.166762576 1.00985938E-11
v 0.0480743088 -0.176867023 1.00985938E-11
v -0.0480743498 -0.28130576 1.00985938E-11
v -0.0480743498 -0.176867023 1.00985938E-11
v 0.0480743088 -0.28130576 1.00985938E-11
v 0.113304012 -0.345542461 1.0098593E-11
v 0.153820068 -0.329103023 1.00985938E-11
v 0.14901118 -0.331640422 1.0098593E-11
v 0.153820068 -0.290077806 1.00985938E-11
v 0.0576714054 -0.357954055 1.00985938E-11
v 0.0762448683 -0.355283618 1.0098593E-11
v 0.0576714054 -0.290077806 1.00985938E-11
v -0.16282776 0.052219376 1.00985938E-11
v -0.25897643 -0.052219376 1.00985938E-11
v -0.25897643 0.052219376 1.00985938E-11
v -0.16282776 -0.052219376 1.00985938E-11
v -0.359549403 -0.0617883988 1.00985938E-11
v -0.350595683 -0.101505548 1.0098593E-11
v -0.359274596 -0.0641833544 1.0098593E-11
v -0.337718904 -0.137595132 1.0098593E-11
v -0.268962264 -0.166227162 1.00985938E-11
v -0.268962264 -0.0617883988 1.00985938E-11
v -0.323641479 -0.166227162 1.00985938E-11
v -0.0573767312 0.052219376 1.00985938E-11
v -0.153525382 -0.052219376 1.00985938E-11
v -0.153525382 0.052219376 1.00985938E-11
v -0.0573767312 -0.052219376 1.00985938E-11
v 0.0480743088 -0.0623238236 1.00985938E-11
v -0.0480743498 -0.166762576 1.00985938E-11
v -0.0480743498 -0.0623238236 1.00985938E-11
v 0.0480743088 -0.166762576 1.00985938E-11
v 0.153525338 -0.176867023 1.00985938E-11
v 0.0573766939 -0.28130576 1.00985938E-11
v 0.0573766939 -0.176867023 1.00985938E-11
v 0.153525338 -0.28130576 1.00985938E-11
v 0.190215439 -0.311291933 1.0098593E-11
v 0.224214613 -0.287611067 1.00985938E-11
v 0.22184591 -0.289663553 1.0098593E-11
v 0.161134616 -0.326636285 1.00985938E-11
v 0.161134616 -0.287611067 1.00985938E-11
v -0.16282776 0.166762576 1.00985938E-11
v -0.25897643 0.0623238236 1.00985938E-11
v -0.25897643 0.166762576 1.00985938E-11
v -0.16282776 0.0623238236 1.00985938E-11
v -0.360798985 0.0523036458 1.00985938E-11
v -0.364292502 -0.0164618306 1.0098593E-11
v -0.364292502 0.0218561739 1.0098593E-11
v -0.269612163 -0.0521351099 1.00985938E-11
v -0.269612163 0.0523036458 1.00985938E-11
v -0.360199302 -0.0521351099 1.00985938E-11
v -0.0573767312 0.166762576 1.00985938E-11
v -0.153525382 0.0623238236 1.00985938E-11
v -0.153525382 0.166762576 1.00985938E-11
v -0.0573767312 0.0623238236 1.00985938E-11
v 0.0480743088 0.052219376 1.00985938E-11
v -0.0480743498 -0.052219376 1.00985938E-11
v -0.0480743498 0.052219376 1.00985938E-11
v 0.0480743088 -0.052219376 1.00985938E-11
v 0.153525338 -0.0623238236 1.00985938E-11
v 0.0573766939 -0.166762576 1.00985938E-11
v 0.0573766939 -0.0623238236 1.00985938E-11
v 0.153525338 -0.166762576 1.00985938E-11
v 0.253410548 -0.25909248 1.0098593E-11
v 0.259889066 -0.177694231 1.00985938E-11
v 0.259889066 -0.252033651 1.00985938E-11
v 0.163740426 -0.282132983 1.00985938E-11
v 0.226820409 -0.282132983 1.00985938E-11
v 0.163740426 -0.177694231 1.00985938E-11
v -0.163612276 0.282510459 1.00985938E-11
v -0.239160031 0.277656108 1.0098593E-11
v -0.232864812 0.282510459 1.00985938E-11
v -0.259760946 0.178071722 1.00985938E-11
v -0.163612276 0.178071722 1.00985938E-11
v -0.259760946 0.257635295 1.00985938E-11
v -0.326254874 0.16644384 1.00985938E-11
v -0.350639582 0.106948048 1.0098593E-11
v -0.337762892 0.143037662 1.0098593E-11
v -0.269006073 0.0620050803 1.00985938E-11
v -0.269006073 0.16644384 1.00985938E-11
v -0.359318495 0.069625847 1.0098593E-11
v -0.360192895 0.0620050803 1.00985938E-11
v -0.0573767312 0.28130576 1.00985938E-11
v -0.153525382 0.176867023 1.00985938E-11
v -0.153525382 0.28130576 1.00985938E-11
v -0.0573767312 0.176867023 1.00985938E-11
v 0.0480743088 0.166762576 1.00985938E-11
v -0.0480743498 0.0623238236 1.00985938E-11
v -0.0480743498 0.166762576 1.00985938E-11
v 0.0480743088 0.0623238236 1.00985938E-11
v 0.153525338 0.052219376 1.00985938E-11
v 0.0573766939 -0.052219376 1.00985938E-11
v 0.0573766939 0.052219376 1.00985938E-11
v 0.153525338 -0.052219376 1.00985938E-11
v 0.2589764 -0.0623238236 1.00985938E-11
v 0.16282773 -0.166762576 1.00985938E-11
v 0.16282773 -0.0623238236 1.00985938E-11
v 0.2589764 -0.166762576 1.00985938E-11
v 0.285300553 -0.227878824 1.0098593E-11
v 0.320342094 -0.174711019 1.00985938E-11
v 0.30782333 -0.196878865 1.0098593E-11
v 0.265869409 -0.249050438 1.00985938E-11
v 0.265869409 -0.174711019 1.00985938E-11
v -0.265999764 0.175146848 1.00985938E-11
v -0.272877902 0.248025939 1.0098593E-11
v -0.265999764 0.254710406 1.00985938E-11
v -0.297133654 0.218362376 1.0098593E-11
v -0.317849934 0.186127201 1.0098593E-11
v -0.323248565 0.175146848 1.00985938E-11
v -0.160631046 0.288309783 1.00985938E-11
v -0.173021138 0.326641589 1.0098593E-11
v -0.160631046 0.332299978 1.00985938E-11
v -0.205834717 0.306854248 1.0098593E-11
v -0.229883596 0.288309783 1.00985938E-11
v -0.0576149896 0.363831967 1.00985938E-11
v -0.131298482 0.34444496 1.0098593E-11
v -0.0948558897 0.35628593 1.0098593E-11
v -0.153763652 0.290195227 1.00985938E-11
v -0.0576149896 0.290195227 1.00985938E-11
v -0.153763652 0.334185421 1.00985938E-11
v 0.0480743088 0.28130576 1.00985938E-11
v -0.0480743498 0.176867023 1.00985938E-11
v -0.0480743498 0.28130576 1.00985938E-11
v 0.0480743088 0.176867023 1.00985938E-11
v 0.153525338 0.166762576 1.00985938E-11
v 0.0573766939 0.0623238236 1.00985938E-11
v 0.0573766939 0.166762576 1.00985938E-11
v 0.153525338 0.0623238236 1.00985938E-11
v 0.2589764 0.052219376 1.00985938E-11
v 0.16282773 -0.052219376 1.00985938E-11
v 0.16282773 0.052219376 1.00985938E-11
v 0.2589764 -0.052219376 1.00985938E-11
v 0.329505354 -0.155782297 1.0098593E-11
v 0.355216831 -0.0837207958 1.0098593E-11
v 0.344421417 -0.120486662 1.0098593E-11
v 0.358882129 -0.0625409484 1.00985938E-11
v 0.268709183 -0.1669797 1.00985938E-11
v 0.323181868 -0.1669797 1.00985938E-11
v 0.268709183 -0.0625409484 1.00985938E-11
v 0.047678683 0.36462006 1.00985938E-11
v -0.0099786371 0.368497014 1.0098593E-11
v 0.0283237435 0.367402822 1.0098593E-11
v -0.0484699681 0.291517586 1.00985938E-11
v 0.047678683 0.291517586 1.00985938E-11
v -0.0481560752 0.365217924 1.0098593E-11
v -0.0484699681 0.365154326 1.00985938E-11
v 0.153525338 0.28130576 1.00985938E-11
v 0.0573766939 0.176867023 1.00985938E-11
v 0.0573766939 0.28130576 1.00985938E-11
v 0.153525338 0.176867023 1.00985938E-11
v 0.2589764 0.166762576 1.00985938E-11
v 0.16282773 0.0623238236 1.00985938E-11
v 0.16282773 0.166762576 1.00985938E-11
v 0.2589764 0.0623238236 1.00985938E-11
v 0.363062561 -0.0355340578 1.0098593E-11
v 0.363062531 0.04097756 1.0098593E-11
v 0.365250111 0.00272146775 1.0098593E-11
v 0.36109826 0.0523277335 1.00985938E-11
v 0.270020843 -0.0521110222 1.00985938E-11
v 0.360193819 -0.0521110222 1.00985938E-11
v 0.270020843 0.0523277335 1.00985938E-11
v 0.153820038 0.334690422 1.00985938E-11
v 0.113303594 0.351129979 1.0098593E-11
v 0.149010777 0.33722797 1.0098593E-11
v 0.0762444362 0.360871106 1.0098593E-11
v 0.0576713867 0.29043901 1.00985938E-11
v 0.153820038 0.29043901 1.00985938E-11
v 0.0576713867 0.363541454 1.00985938E-11
v 0.259986311 0.257428408 1.00985938E-11
v 0.232949004 0.282301515 1.00985938E-11
v 0.253507495 0.264487594 1.0098593E-11
v 0.163837671 0.177862778 1.00985938E-11
v 0.259986311 0.177862778 1.00985938E-11
v 0.163837671 0.282301515 1.00985938E-11
v 0.355269998 0.089164272 1.0098593E-11
v 0.329558402 0.161225706 1.0098593E-11
v 0.344474524 0.125930101 1.0098593E-11
v 0.326186568 0.167196423 1.00985938E-11
v 0.268762469 0.0627576634 1.00985938E-11
v 0.359839886 0.0627576634 1.00985938E-11
v 0.268762469 0.167196423 1.00985938E-11
v 0.230362639 0.287914485 1.00985938E-11
v 0.190331772 0.316821754 1.0098593E-11
v 0.221962228 0.295193434 1.0098593E-11
v 0.161251292 0.287914485 1.00985938E-11
v 0.161251292 0.332165897 1.00985938E-11
v 0.26592651 0.175014406 1.00985938E-11
v 0.307880133 0.20240891 1.0098593E-11
v 0.323350608 0.175014406 1.00985938E-11
v 0.285357326 0.233408809 1.0098593E-11
v 0.26592651 0.254580051 1.00985938E-11
vt 0.951292276 0.794234633
vt 0.949304223 0.794234633
vt 0.949304223 0.796222627
vt 0.951292276 0.79224658
vt 0.95328027 0.79224658
vt 0.818091452 0.69284296
vt 0.818091452 0.694831073
vt 0.820079505 0.69284296
vt 0.816103399 0.694831073
vt 0.816103399 0.69284296
vt 0.816103399 0.696819067
vt 0.816103399 0.233846933
vt 0.818091452 0.233349904
vt 0.816103399 0.233349904
vt 0.820079505 0.233846933
vt 0.818134069 0.234343931
vt 0.816103399 0.234343931
vt 0.0856113285 0.565606356
vt 0.0853628293 0.563618302
vt 0.0853628293 0.565606356
vt 0.0856113285 0.563618302
vt 0.668986142 0.905566633
vt 0.674950242 0.907554686
vt 0.672962189 0.905566633
vt 0.672962189 0.911530793
vt 0.666998029 0.907554686
vt 0.666998029 0.905566633
vt 0.668986142 0.911530793
vt 0.527832985 0.407057643
vt 0.525844932 0.406063646
vt 0.525844932 0.407057643
vt 0.527832985 0.406063646
vt 0.937375784 0.553677976
vt 0.935387731 0.553677976
vt 0.935387731 0.55566597
vt 0.935387731 0.551689863
vt 0.938026905 0.551689863
vt 0.939363778 0.551689863
vt 0.232852876 0.722663999
vt 0.232355878 0.720675945
vt 0.232355878 0.722663999
vt 0.232852876 0.720675945
vt 0.676938355 0.0908300132
vt 0.674950302 0.0905815139
vt 0.674950302 0.0908300132
vt 0.676938355 0.0905815139
vt 0.826043785 0.800198853
vt 0.830019832 0.806163013
vt 0.830019832 0.802186906
vt 0.828031838 0.808151066
vt 0.824055672 0.802186906
vt 0.824055672 0.800198853
vt 0.826043785 0.806163013
vt 0.232852876 0.565606356
vt 0.232355878 0.563618302
vt 0.232355878 0.565606356
vt 0.232852876 0.563618302
vt 0.509940386 0.889662027
vt 0.507952332 0.885685921
vt 0.507952332 0.889662027
vt 0.509940386 0.883697867
vt 0.515904546 0.885685921
vt 0.513916492 0.887673974
vt 0.513916492 0.883697867
vt 0.527832985 0.248757452
vt 0.525844932 0.248260438
vt 0.525844932 0.248757452
vt 0.527832985 0.248260438
vt 0.0856113285 0.407057643
vt 0.0853628293 0.406063646
vt 0.0853628293 0.407057643
vt 0.0856113285 0.406063646
vt 0.380218685 0.0908300132
vt 0.379224658 0.0905815139
vt 0.379224658 0.0908300132
vt 0.380218685 0.0905815139
vt 0.939363837 0.678926468
vt 0.941351831 0.682902575
vt 0.941351831 0.680914521
vt 0.939363837 0.678926468
vt 0.939363837 0.680914521
vt 0.380218685 0.248757452
vt 0.379224658 0.248260438
vt 0.379224658 0.248757452
vt 0.380218685 0.248260438
vt 0.653081536 0.569582462
vt 0.651093483 0.565606415
vt 0.651093483 0.567594469
vt 0.657057643 0.565606415
vt 0.657057643 0.567594469
vt 0.653081536 0.565606415
vt 0.0856113285 0.0908300132
vt 0.0853628293 0.0905815139
vt 0.0853628293 0.0908300132
vt 0.0856113285 0.0905815139
vt 0.232852876 0.879721642
vt 0.232355878 0.877733648
vt 0.232355878 0.879721642
vt 0.232852876 0.877733648
vt 0.232852876 0.248757452
vt 0.232355878 0.248260438
vt 0.232355878 0.248757452
vt 0.232852876 0.248260438
vt 0.0962972119 0.867793262
vt 0.0960487127 0.871769369
vt 0.0962972119 0.869781315
vt 0.0958002061 0.869781315
vt 0.0960487127 0.867793262
vt 0.0958002061 0.871769369
vt 0.816103339 0.105492048
vt 0.812127292 0.105740555
vt 0.814115345 0.105740555
vt 0.812127292 0.105243541
vt 0.814128518 0.105243541
vt 0.812127292 0.105492048
vt 0.515904546 0.724652052
vt 0.509940386 0.718687892
vt 0.511928439 0.722663999
vt 0.515904546 0.718687892
vt 0.517892599 0.722663999
vt 0.509940386 0.716699839
vt 0.511928439 0.716699839
vt 0.527832985 0.0908300132
vt 0.525844932 0.0905815139
vt 0.525844932 0.0908300132
vt 0.527832985 0.0905815139
vt 0.0856113285 0.722663999
vt 0.0853628293 0.720675945
vt 0.0853628293 0.722663999
vt 0.0856113285 0.720675945
vt 0.232852876 0.0908300132
vt 0.232355878 0.0905815139
vt 0.232355878 0.0908300132
vt 0.232852876 0.0905815139
vt 0.380218685 0.407057643
vt 0.379224658 0.406063646
vt 0.379224658 0.407057643
vt 0.380218685 0.406063646
vt 0.931411564 0.39314118
vt 0.933399558 0.395129204
vt 0.933399558 0.394135207
vt 0.931411564 0.39314118
vt 0.931411564 0.394135207
vt 0.94731611 0.0652336031
vt 0.94731611 0.065730609
vt 0.949304163 0.0654821098
vt 0.945328057 0.0654821098
vt 0.945328057 0.0652336031
vt 0.945328057 0.0652336031
vt 0.923459291 0.895626247
vt 0.923459291 0.8976143
vt 0.925447285 0.8976143
vt 0.921471179 0.895626247
vt 0.921471179 0.895626247
vt 0.818091393 0.54970181
vt 0.814115345 0.54970181
vt 0.816103399 0.551689804
vt 0.814115345 0.547713757
vt 0.816103399 0.547713757
vt 0.814115345 0.547713757
vt 0.676938355 0.248757452
vt 0.674950302 0.248260438
vt 0.674950302 0.248757452
vt 0.676938355 0.248260438
vt 0.380218685 0.565606356
vt 0.379224658 0.563618302
vt 0.379224658 0.565606356
vt 0.380218685 0.563618302
vt 0.527832985 0.565606356
vt 0.525844932 0.563618302
vt 0.525844932 0.565606356
vt 0.527832985 0.563618302
vt 0.388170987 0.871769428
vt 0.390159041 0.877733588
vt 0.390159041 0.873757482
vt 0.388170987 0.879721642
vt 0.387176961 0.873757482
vt 0.387176961 0.871769428
vt 0.387176961 0.877733588
vt 0.676938355 0.718687892
vt 0.670974195 0.724652052
vt 0.674950242 0.722663999
vt 0.670974195 0.716699839
vt 0.674950242 0.716699839
vt 0.668986142 0.722663999
vt 0.668986142 0.718687892
vt 0.0856113285 0.248757452
vt 0.0853628293 0.248260438
vt 0.0853628293 0.248757452
vt 0.0856113285 0.248260438
vt 0.232852876 0.407057643
vt 0.232355878 0.406063646
vt 0.232355878 0.407057643
vt 0.232852876 0.406063646
vt 0.849900544 0.406063646
vt 0.849900544 0.409045696
vt 0.851888657 0.407057673
vt 0.845924497 0.410039753
vt 0.843936384 0.407057673
vt 0.845924497 0.406063646
vt 0.843936384 0.409045696
vt 0.684890628 0.824055672
vt 0.680914521 0.828031778
vt 0.684890628 0.826043785
vt 0.678926468 0.828031778
vt 0.680914521 0.822067618
vt 0.682902634 0.822067618
vt 0.678926468 0.824055672
vt 0.694831014 0.421968192
vt 0.690854907 0.422962219
vt 0.69284296 0.422962219
vt 0.690854907 0.420974165
vt 0.69284296 0.420974165
vt 0.690854907 0.421968192
vt 0.391153067 0.728628278
vt 0.389165014 0.734592438
vt 0.391153067 0.730616331
vt 0.388170987 0.734592438
vt 0.388170987 0.730616331
vt 0.389165014 0.728628278
vt 0.388170987 0.732604384
vt 0.800198793 0.89165014
vt 0.79821074 0.893638134
vt 0.800198793 0.89165014
vt 0.79821074 0.89165014
vt 0.79821074 0.893638134
vt 0.937375784 0.22142148
vt 0.939363778 0.22142148
vt 0.939363778 0.22142148
vt 0.937375784 0.221918479
vt 0.937375784 0.221918479
vn -0 0 1
vn -0 0 1
vn -0 0 1
vn -0 0 1
vn -0 0 1
vn -0 0 1
vn -0 0 1
vn -0 0 1
vn -0 0 1
vn -0 0 1
vn -0 0 1
vn -0 0 1
vn -0 0 1
vn -0 0 1
vn -0 0 1
vn -0 0 1
vn -0 0 1
vn -0 0 1
vn -0 0 1
vn -0 0 1
vn -0 0 1
vn -0 0 1
vn -0 0 1
vn -0 0 1
vn -0 0 1
vn -0 0 1
vn -0 0 1
vn -0 0 1
vn -0 0 1
vn -0 0 1
vn -0 0 1
vn -0 0 1
vn -0 0 1
vn -0 0 1
vn -0 0 1
vn -0 0 1
vn -0 0 1
vn -0 0 1
vn -0 0 1
vn -0 0 1
vn -0 0 1
vn -0 0 1
vn -0 0 1
vn -0 0 1
vn -0 0 1
vn -0 0 1
vn -0 0 1
vn -0 0 1
vn -0 0 1
vn -0 0 1
vn -0 0 1
vn -0 0 1
vn -0 0 1
vn -0 0 1
vn -0 0 1
vn -0 0 1
vn -0 0 1
vn -0 0 1
vn -0 0 1
vn -0 0 1
vn -0 0 1
vn -0 0 1
vn -0 0 1
vn -0 0 1
vn -0 0 1
vn -0 0 1
vn -0 0 1
vn -0 0 1
vn -0 0 1
vn -0 0 1
vn -0 0 1
vn -0 0 1
vn -0 0 1
vn -0 0 1
vn -0 0 1
vn -0 0 1
vn -0 0 1
vn -0 0 1
vn -0 0 1
vn -0 0 1
vn -0 0 1
vn -0 0 1
vn -0 0 1
vn -0 0 1
vn -0 0 1
vn -0 0 1
vn -0 0 1
vn -0 0 1
vn -0 0 1
vn -0 0 1
vn -0 0 1
vn -0 0 1
vn -0 0 1
vn -0 0 1
vn -0 0 1
vn -0 0 1
vn -0 0 1
vn -0 0 1
vn -0 0 1
vn -0 0 1
vn -0 0 1
vn -0 0 1
vn -0 0 1
vn -0 0 1
vn -0 0 1
vn -0 0 1
vn -0 0 1
vn -0 0 1
vn -0 0 1
vn -0 0 1
vn -0 0 1
vn -0 0 1
vn -0 0 1
vn -0 0 1
vn -0 0 1
vn -0 0 1
vn -0 0 1
vn -0 0 1
vn -0 0 1
vn -0 0 1
vn -0 0 1
vn -0 0 1
vn -0 0 1
vn -0 0 1
vn -0 0 1
vn -0 0 1
vn -0 0 1
vn -0 0 1
vn -0 0 1
vn -0 0 1
vn -0 0 1
vn -0 0 1
vn -0 0 1
vn -0 0 1
vn -0 0 1
vn -0 0 1
vn -0 0 1
vn -0 0 1
vn -0 0 1
vn -0 0 1
vn -0 0 1
vn -0 0 1
vn -0 0 1
vn -0 0 1
vn -0 0 1
vn -0 0 1
vn -0 0 1
vn -0 0 1
vn -0 0 1
vn -0 0 1
vn -0 0 1
vn -0 0 1
vn -0 0 1
vn -0 0 1
vn -0 0 1
vn -0 0 1
vn -0 0 1
vn -0 0 1
vn -0 0 1
vn -0 0 1
vn -0 0 1
vn -0 0 1
vn -0 0 1
vn -0 0 1
vn -0 0 1
vn -0 0 1
vn -0 0 1
vn -0 0 1
vn -0 0 1
vn -0 0 1
vn -0 0 1
vn -0 0 1
vn -0 0 1
vn -0 0 1
vn -0 0 1
vn -0 0 1
vn -0 0 1
vn -0 0 1
vn -0 0 1
vn -0 0 1
vn -0 0 1
vn -0 0 1
vn -0 0 1
vn -0 0 1
vn -0 0 1
vn -0 0 1
vn -0 0 1
vn -0 0 1
vn -0 0 1
vn -0 0 1
vn -0 0 1
vn -0 0 1
vn -0 0 1
vn -0 0 1
vn -0 0 1
vn -0 0 1
vn -0 0 1
vn -0 0 1
vn -0 0 1
vn -0 0 1
vn -0 0 1
vn -0 0 1
vn -0 0 1
vn -0 0 1
vn -0 0 1
vn -0 0 1
vn -0 0 1
vn -0 0 1
vn -0 0 1
vn -0 0 1
vn -0 0 1
vn -0 0 1
vn -0 0 1
vn -0 0 1
vn -0 0 1
vn -0 0 1
vn -0 0 1
vn -0 0 1
vn -0 0 1
vn -0 0 1
vn -0 0 1
vn -0 0 1
vn -0 0 1
vn -0 0 1
vn -0 0 1
vn -0 0 1
vn -0 0 1
vn -0 0 1
vn -0 0 1
vn -0 0 1
vn -0 0 1
g Plane006_0
f 3/3/3 2/2/2 1/1/1
f 2/2/2 4/4/4 1/1/1
f 4/4/4 5/5/5 1/1/1
f 8/8/8 7/7/7 6/6/6
f 7/7/7 9/9/9 6/6/6
f 9/9/9 10/10/10 6/6/6
f 11/11/11 9/9/9 7/7/7
f 14/14/14 13/13/13 12/12/12
f 13/13/13 15/15/15 12/12/12
f 15/15/15 16/16/16 12/12/12
f 16/16/16 17/17/17 12/12/12
f 20/20/20 19/19/19 18/18/18
f 21/21/21 18/18/18 19/19/19
f 24/24/24 23/23/23 22/22/22
f 23/23/23 25/25/25 22/22/22
f 25/25/25 26/26/26 22/22/22
f 26/26/26 27/27/27 22/22/22
f 28/28/28 26/26/26 25/25/25
f 31/31/31 30/30/30 29/29/29
f 32/32/32 29/29/29 30/30/30
f 35/35/35 34/34/34 33/33/33
f 34/34/34 36/36/36 33/33/33
f 36/36/36 37/37/37 33/33/33
f 37/37/37 38/38/38 33/33/33
f 41/41/41 40/40/40 39/39/39
f 42/42/42 39/39/39 40/40/40
f 45/45/45 44/44/44 43/43/43
f 46/46/46 43/43/43 44/44/44
f 49/49/49 48/48/48 47/47/47
f 48/48/48 50/50/50 47/47/47
f 50/50/50 51/51/51 47/47/47
f 51/51/51 52/52/52 47/47/47
f 53/53/53 51/51/51 50/50/50
f 56/56/56 55/55/55 54/54/54
f 57/57/57 54/54/54 55/55/55
f 60/60/60 59/59/59 58/58/58
f 59/59/59 61/61/61 58/58/58
f 61/61/61 62/62/62 58/58/58
f 62/62/62 63/63/63 58/58/58
f 64/64/64 62/62/62 61/61/61
f 67/67/67 66/66/66 65/65/65
f 68/68/68 65/65/65 66/66/66
f 71/71/71 70/70/70 69/69/69
f 72/72/72 69/69/69 70/70/70
f 75/75/75 74/74/74 73/73/73
f 76/76/76 73/73/73 74/74/74
f 79/79/79 78/78/78 77/77/77
f 78/78/78 80/80/80 77/77/77
f 81/81/81 80/80/80 78/78/78
f 84/84/84 83/83/83 82/82/82
f 85/85/85 82/82/82 83/83/83
f 88/88/88 87/87/87 86/86/86
f 87/87/87 89/89/89 86/86/86
f 89/89/89 90/90/90 86/86/86
f 91/91/91 89/89/89 87/87/87
f 94/94/94 93/93/93 92/92/92
f 95/95/95 92/92/92 93/93/93
f 98/98/98 97/97/97 96/96/96
f 99/99/99 96/96/96 97/97/97
f 102/102/102 101/101/101 100/100/100
f 103/103/103 100/100/100 101/101/101
f 106/106/106 105/105/105 104/104/104
f 105/105/105 107/107/107 104/104/104
f 107/107/107 108/108/108 104/104/104
f 109/109/109 107/107/107 105/105/105
f 112/112/112 111/111/111 110/110/110
f 111/111/111 113/113/113 110/110/110
f 113/113/113 114/114/114 110/110/110
f 115/115/115 113/113/113 111/111/111
f 118/118/118 117/117/117 116/116/116
f 117/117/117 119/119/119 116/116/116
f 119/119/119 120/120/120 116/116/116
f 121/121/121 119/119/119 117/117/117
f 122/122/122 119/119/119 121/121/121
f 125/125/125 124/124/124 123/123/123
f 126/126/126 123/123/123 124/124/124
f 129/129/129 128/128/128 127/127/127
f 130/130/130 127/127/127 128/128/128
f 133/133/133 132/132/132 131/131/131
f 134/134/134 131/131/131 132/132/132
f 137/137/137 136/136/136 135/135/135
f 138/138/138 135/135/135 136/136/136
f 141/141/141 140/140/140 139/139/139
f 140/140/140 142/142/142 139/139/139
f 143/143/143 142/142/142 140/140/140
f 146/146/146 145/145/145 144/144/144
f 145/145/145 147/147/147 144/144/144
f 147/147/147 148/148/148 144/144/144
f 148/148/148 149/149/149 144/144/144
f 152/152/152 151/151/151 150/150/150
f 151/151/151 153/153/153 150/150/150
f 153/153/153 154/154/154 150/150/150
f 157/157/157 156/156/156 155/155/155
f 156/156/156 158/158/158 155/155/155
f 158/158/158 159/159/159 155/155/155
f 160/160/160 158/158/158 156/156/156
f 163/163/163 162/162/162 161/161/161
f 164/164/164 161/161/161 162/162/162
f 167/167/167 166/166/166 165/165/165
f 168/168/168 165/165/165 166/166/166
f 171/171/171 170/170/170 169/169/169
f 172/172/172 169/169/169 170/170/170
f 175/175/175 174/174/174 173/173/173
f 174/174/174 176/176/176 173/173/173
f 176/176/176 177/177/177 173/173/173
f 177/177/177 178/178/178 173/173/173
f 179/179/179 177/177/177 176/176/176
f 182/182/182 181/181/181 180/180/180
f 181/181/181 183/183/183 180/180/180
f 183/183/183 184/184/184 180/180/180
f 185/185/185 183/183/183 181/181/181
f 186/186/186 183/183/183 185/185/185
f 189/189/189 188/188/188 187/187/187
f 190/190/190 187/187/187 188/188/188
f 193/193/193 192/192/192 191/191/191
f 194/194/194 191/191/191 192/192/192
f 197/197/197 196/196/196 195/195/195
f 196/196/196 198/198/198 195/195/195
f 198/198/198 199/199/199 195/195/195
f 199/199/199 200/200/200 195/195/195
f 201/201/201 199/199/199 198/198/198
f 204/204/204 203/203/203 202/202/202
f 203/203/203 205/205/205 202/202/202
f 205/205/205 206/206/206 202/202/202
f 206/206/206 207/207/207 202/202/202
f 208/208/208 206/206/206 205/205/205
f 211/211/211 210/210/210 209/209/209
f 210/210/210 212/212/212 209/209/209
f 212/212/212 213/213/213 209/209/209
f 214/214/214 212/212/212 210/210/210
f 217/217/217 216/216/216 215/215/215
f 216/216/216 218/218/218 215/215/215
f 218/218/218 219/219/219 215/215/215
f 219/219/219 220/220/220 215/215/215
f 221/221/221 219/219/219 218/218/218
f 224/224/224 223/223/223 222/222/222
f 223/223/223 225/225/225 222/222/222
f 226/226/226 225/225/225 223/223/223
f 229/229/229 228/228/228 227/227/227
f 228/228/228 230/230/230 227/227/227
f 230/230/230 231/231/231 227/227/227
