g qiliu1
v 1.32078588 0.0052786544 0.0517890006
v 1.00281608 -0.166879281 0.211190164
v 1.01681697 0.00686980225 0.211250752
v 1.31467283 -0.214685693 0.0541026816
v 1.56988633 -3.3316494E-06 -0.168979585
v 0.9643327 -0.322586387 0.211192369
v 1.55058777 -0.245212674 -0.16897957
v 1.26510751 -0.41778186 0.0540797263
v 0.901915431 -0.47051096 0.211192369
v 1.49316871 -0.484384149 -0.168979555
v 1.18412149 -0.611227632 0.0540797114
v 0.81712687 -0.606849253 0.211192384
v 1.39904082 -0.711628675 -0.16897954
v 1.07387006 -0.789624095 0.0540797189
v 0.712053895 -0.72824508 0.211192399
v 1.27052271 -0.921350896 -0.168979526
v 0.937069297 -0.948577285 0.0540797412
v 0.589283347 -0.831709445 0.211192414
v 1.11077964 -1.10838652 -0.168979511
v 0.777087569 -1.08417308 0.0540797412
v 0.451839924 -0.914694488 0.211192429
v 0.923744559 -1.26812994 -0.168979481
v 0.597862124 -1.19307268 0.0540797487
v 0.303106427 -0.975156724 0.211192459
v 0.714022517 -1.39664769 -0.168979481
v 0.403808594 -1.27259481 0.0540797487
v 0.14674592 -1.01160777 0.211192474
v 0.48677814 -1.49077594 -0.168979436
v 0.199703693 -1.32078087 0.0540797859
v -0.0133917332 -1.02314961 0.211192474
v 0.247606516 -1.54819596 -0.168979436
v -0.00942587852 -1.33644497 0.0540797859
v -0.173363566 -1.00949848 0.211192489
v 0.00239682198 -1.56749463 -0.168979406
v -0.218431115 -1.31920099 0.0540797859
v -0.32923007 -0.970990241 0.211192504
v -0.242812514 -1.54819632 -0.168979406
v -0.42216599 -1.26947355 0.0540797934
v -0.477153718 -0.90857327 0.211192504
v -0.481984258 -1.4907763 -0.168979406
v -0.615613043 -1.18848729 0.0540797785
v -0.61349225 -0.823784351 0.211192504
v -0.709228814 -1.39664865 -0.168979406
v -0.794009387 -1.07823646 0.0540797859
v -0.734888077 -0.718711376 0.211192504
v -0.918951094 -1.26813114 -0.168979406
v -0.952962518 -0.941435635 0.0540798157
v -0.838352203 -0.595941365 0.211192518
v -1.10598648 -1.10838771 -0.168979406
v -1.08855808 -0.781453013 0.0540798381
v -0.921337187 -0.458497643 0.211192518
v -1.26572978 -0.921352267 -0.168979406
v -1.19745791 -0.602228403 0.0540798455
v -0.981799603 -0.309764266 0.211192533
v -1.39424789 -0.711630344 -0.168979406
v -1.27697957 -0.408174694 0.0540798306
v -1.01825047 -0.15340358 0.211192518
v -1.48837566 -0.484385699 -0.168979406
v -1.32516599 -0.204070091 0.0540798381
v -1.02979255 0.00673412532 0.211192533
v -1.54579568 -0.245214045 -0.168979406
v -1.34082985 0.00505962782 0.0540798306
v -1.01614118 0.166705847 0.211192518
v -1.56509435 -4.48742867E-06 -0.168979406
v -1.32358623 0.214064971 0.0540798381
v -0.97763288 0.32257247 0.211192533
v -1.54579604 0.245205045 -0.168979406
v -1.27385843 0.417799592 0.0540798455
v -0.91521585 0.470496118 0.211192533
v -1.48837602 0.484376788 -0.168979406
v -1.19287217 0.611246943 0.0540798306
v -0.830426931 0.606834412 0.211192533
v -1.39424837 0.711621463 -0.168979406
v -1.08262122 0.789643228 0.0540798381
v -0.725353897 0.728230357 0.211192548
v -1.2657305 0.921343446 -0.168979436
v -0.945820391 0.948596418 0.0540798306
v -0.602583945 0.831694484 0.211192548
v -1.10598719 1.10837889 -0.168979436
v -0.78583777 1.08419216 0.0540798455
v -0.465140224 0.914679527 0.211192548
v -0.918951869 1.26812196 -0.168979406
v -0.606613159 1.19309163 0.0540798381
v -0.316406608 0.975141883 0.211192563
v -0.709229827 1.39663982 -0.168979406
v -0.412559271 1.27261364 0.054079853
v -0.16004622 1.01159275 0.211192593
v -0.481985211 1.49076796 -0.168979406
v -0.208454609 1.32079995 0.0540798604
v 9.14335251E-05 1.02313471 0.211192608
v -0.242813706 1.54818797 -0.168979406
v 0.000675082207 1.33646357 0.0540798604
v 0.160063267 1.00948322 0.211192608
v 0.00239598751 1.56748629 -0.168979406
v 0.209680319 1.31921983 0.0540798604
v 0.315930009 0.970975041 0.211192608
v 0.247605562 1.54818797 -0.168979406
v 0.413414717 1.26949215 0.0540798828
v 0.463853478 0.908557951 0.211192638
v 0.486777186 1.49076796 -0.168979377
v 0.606861949 1.18850601 0.0540798977
v 0.600191951 0.823768914 0.211192653
v 0.71402204 1.39663994 -0.168979377
v 0.785258174 1.07825506 0.0540799201
v 0.721587539 0.718695819 0.211192667
v 0.923744082 1.26812243 -0.168979347
v 0.944211364 0.941453636 0.0540799201
v 0.825052142 0.595925808 0.211192667
v 1.11077917 1.10837913 -0.168979347
v 1.07980716 0.781471312 0.0540799275
v 0.908036351 0.458482027 0.211192697
v 1.27052224 0.921343744 -0.168979317
v 1.18870676 0.602246702 0.0540799499
v 0.968499064 0.30974859 0.211192712
v 1.39904034 0.711621761 -0.168979317
v 1.26822841 0.408192754 0.0540799797
v 1.00495017 0.153388098 0.211192727
v 1.49316871 0.484377146 -0.168979287
v 1.31641471 0.204088405 0.0540799871
v 1.01649177 -0.00674929749 0.211192742
v 1.55058777 0.245205685 -0.168979272
v 1.33207881 -0.00504106889 0.0540799946
v 1.56988633 -3.60571858E-06 -0.168979257
vt 1.1920929E-07 0.499999821
vt 0.0250002742 0.00213449937
vt 2.98023224E-07 0.00213455898
vt 0.025000155 0.499999762
vt 1.78813934E-07 0.98402983
vt 0.0500002503 0.00213449937
vt 0.025000155 0.98402983
vt 0.0500001311 0.499999762
vt 0.0750002861 0.00213449937
vt 0.0500001907 0.98402983
vt 0.0750001073 0.499999762
vt 0.100000262 0.00213449937
vt 0.0750001669 0.98402983
vt 0.100000143 0.499999821
vt 0.125000238 0.00213449937
vt 0.100000203 0.98402983
vt 0.125000119 0.499999851
vt 0.150000274 0.00213449937
vt 0.125000179 0.98402983
vt 0.150000155 0.499999851
vt 0.17500031 0.00213449937
vt 0.150000155 0.98402983
vt 0.175000131 0.499999851
vt 0.200000286 0.00213461858
vt 0.175000191 0.98402983
vt 0.200000167 0.499999821
vt 0.225000262 0.00213461858
vt 0.200000226 0.984029949
vt 0.225000143 0.499999791
vt 0.250000298 0.00213461858
vt 0.225000203 0.98402983
vt 0.250000179 0.499999791
vt 0.275000274 0.00213461858
vt 0.250000179 0.98402983
vt 0.275000155 0.499999791
vt 0.30000025 0.00213461858
vt 0.275000215 0.98402983
vt 0.30000025 0.499999821
vt 0.325000226 0.00213461858
vt 0.30000025 0.98402983
vt 0.325000226 0.499999851
vt 0.350000322 0.00213461858
vt 0.325000226 0.98402983
vt 0.350000203 0.499999851
vt 0.375000298 0.00213461858
vt 0.350000203 0.98402983
vt 0.375000179 0.499999851
vt 0.400000274 0.00213449937
vt 0.375000238 0.98402983
vt 0.400000274 0.499999851
vt 0.42500025 0.00213455898
vt 0.400000274 0.98402983
vt 0.42500025 0.499999762
vt 0.450000346 0.00213455898
vt 0.42500025 0.984029889
vt 0.450000226 0.499999762
vt 0.475000322 0.00213455898
vt 0.450000226 0.984029889
vt 0.475000203 0.499999762
vt 0.500000358 0.00213455898
vt 0.475000262 0.984029889
vt 0.500000238 0.499999851
vt 0.525000334 0.00213455898
vt 0.500000238 0.984029889
vt 0.525000215 0.499999881
vt 0.55000031 0.00213455898
vt 0.525000215 0.984029889
vt 0.550000191 0.499999881
vt 0.575000286 0.00213455898
vt 0.550000191 0.984029889
vt 0.575000167 0.499999881
vt 0.600000262 0.00213455898
vt 0.575000167 0.984029889
vt 0.600000143 0.499999851
vt 0.625000238 0.00213455898
vt 0.600000143 0.984030008
vt 0.625000119 0.499999791
vt 0.650000215 0.00213455898
vt 0.625000119 0.984029889
vt 0.650000095 0.499999791
vt 0.675000191 0.00213455898
vt 0.650000095 0.984029889
vt 0.675000072 0.499999791
vt 0.700000167 0.00213455898
vt 0.675000072 0.984029889
vt 0.700000048 0.499999851
vt 0.725000143 0.00213455898
vt 0.700000048 0.984029889
vt 0.725000024 0.499999881
vt 0.750000119 0.00213455898
vt 0.725000024 0.984029889
vt 0.74999994 0.499999881
vt 0.775000095 0.00213455898
vt 0.75 0.984029889
vt 0.774999917 0.499999881
vt 0.800000072 0.00213455898
vt 0.774999976 0.984029889
vt 0.799999893 0.499999881
vt 0.825000048 0.00213449937
vt 0.799999952 0.984029889
vt 0.824999869 0.499999821
vt 0.850000024 0.00213449937
vt 0.824999928 0.984029889
vt 0.849999845 0.499999821
vt 0.875 0.00213449937
vt 0.849999905 0.984029889
vt 0.874999821 0.499999821
vt 0.899999976 0.00213449937
vt 0.874999881 0.984029889
vt 0.899999797 0.499999821
vt 0.924999952 0.00213449937
vt 0.899999857 0.984029889
vt 0.924999774 0.499999851
vt 0.949999928 0.00213449937
vt 0.924999833 0.984029889
vt 0.94999975 0.499999851
vt 0.974999905 0.00213449937
vt 0.949999809 0.984029889
vt 0.974999726 0.499999851
vt 0.999999881 0.00213461858
vt 0.974999785 0.984029889
vt 0.999999702 0.499999851
vt 0.999999762 0.984029889
vn -0 0 1
vn -0 0 1
vn -0 0 1
vn -0 0 1
vn -0 0 1
vn -0 0 1
vn -0 0 1
vn -0 0 1
vn -0 0 1
vn -0 0 1
vn -0 0 1
vn -0 0 1
vn -0 0 1
vn -0 0 1
vn -0 0 1
vn -0 0 1
vn -0 0 1
vn -0 0 1
vn -0 0 1
vn -0 0 1
vn -0 0 1
vn -0 0 1
vn -0 0 1
vn -0 0 1
vn -0 0 1
vn -0 0 1
vn -0 0 1
vn -0 0 1
vn -0 0 1
vn -0 0 1
vn -0 0 1
vn -0 0 1
vn -0 0 1
vn -0 0 1
vn -0 0 1
vn -0 0 1
vn -0 0 1
vn -0 0 1
vn -0 0 1
vn -0 0 1
vn -0 0 1
vn -0 0 1
vn -0 0 1
vn -0 0 1
vn -0 0 1
vn -0 0 1
vn -0 0 1
vn -0 0 1
vn -0 0 1
vn -0 0 1
vn -0 0 1
vn -0 0 1
vn -0 0 1
vn -0 0 1
vn -0 0 1
vn -0 0 1
vn -0 0 1
vn -0 0 1
vn -0 0 1
vn -0 0 1
vn -0 0 1
vn -0 0 1
vn -0 0 1
vn -0 0 1
vn -0 0 1
vn -0 0 1
vn -0 0 1
vn -0 0 1
vn -0 0 1
vn -0 0 1
vn -0 0 1
vn -0 0 1
vn -0 0 1
vn -0 0 1
vn -0 0 1
vn -0 0 1
vn -0 0 1
vn -0 0 1
vn -0 0 1
vn -0 0 1
vn -0 0 1
vn -0 0 1
vn -0 0 1
vn -0 0 1
vn -0 0 1
vn -0 0 1
vn -0 0 1
vn -0 0 1
vn -0 0 1
vn -0 0 1
vn -0 0 1
vn -0 0 1
vn -0 0 1
vn -0 0 1
vn -0 0 1
vn -0 0 1
vn -0 0 1
vn -0 0 1
vn -0 0 1
vn -0 0 1
vn -0 0 1
vn -0 0 1
vn -0 0 1
vn -0 0 1
vn -0 0 1
vn -0 0 1
vn -0 0 1
vn -0 0 1
vn -0 0 1
vn -0 0 1
vn -0 0 1
vn -0 0 1
vn -0 0 1
vn -0 0 1
vn -0 0 1
vn -0 0 1
vn -0 0 1
vn -0 0 1
vn -0 0 1
vn -0 0 1
vn -0 0 1
vn -0 0 1
vn -0 0 1
g qiliu1_0
f 3/3/3 2/2/2 1/1/1
f 4/4/4 1/1/1 2/2/2
f 1/1/1 4/4/4 5/5/5
f 2/2/2 6/6/6 4/4/4
f 7/7/7 5/5/5 4/4/4
f 8/8/8 4/4/4 6/6/6
f 4/4/4 8/8/8 7/7/7
f 6/6/6 9/9/9 8/8/8
f 10/10/10 7/7/7 8/8/8
f 11/11/11 8/8/8 9/9/9
f 8/8/8 11/11/11 10/10/10
f 9/9/9 12/12/12 11/11/11
f 13/13/13 10/10/10 11/11/11
f 14/14/14 11/11/11 12/12/12
f 11/11/11 14/14/14 13/13/13
f 12/12/12 15/15/15 14/14/14
f 16/16/16 13/13/13 14/14/14
f 17/17/17 14/14/14 15/15/15
f 14/14/14 17/17/17 16/16/16
f 15/15/15 18/18/18 17/17/17
f 19/19/19 16/16/16 17/17/17
f 20/20/20 17/17/17 18/18/18
f 17/17/17 20/20/20 19/19/19
f 18/18/18 21/21/21 20/20/20
f 22/22/22 19/19/19 20/20/20
f 23/23/23 20/20/20 21/21/21
f 20/20/20 23/23/23 22/22/22
f 21/21/21 24/24/24 23/23/23
f 25/25/25 22/22/22 23/23/23
f 26/26/26 23/23/23 24/24/24
f 23/23/23 26/26/26 25/25/25
f 24/24/24 27/27/27 26/26/26
f 28/28/28 25/25/25 26/26/26
f 29/29/29 26/26/26 27/27/27
f 26/26/26 29/29/29 28/28/28
f 27/27/27 30/30/30 29/29/29
f 31/31/31 28/28/28 29/29/29
f 32/32/32 29/29/29 30/30/30
f 29/29/29 32/32/32 31/31/31
f 30/30/30 33/33/33 32/32/32
f 34/34/34 31/31/31 32/32/32
f 35/35/35 32/32/32 33/33/33
f 32/32/32 35/35/35 34/34/34
f 33/33/33 36/36/36 35/35/35
f 37/37/37 34/34/34 35/35/35
f 38/38/38 35/35/35 36/36/36
f 35/35/35 38/38/38 37/37/37
f 36/36/36 39/39/39 38/38/38
f 40/40/40 37/37/37 38/38/38
f 41/41/41 38/38/38 39/39/39
f 38/38/38 41/41/41 40/40/40
f 39/39/39 42/42/42 41/41/41
f 43/43/43 40/40/40 41/41/41
f 44/44/44 41/41/41 42/42/42
f 41/41/41 44/44/44 43/43/43
f 42/42/42 45/45/45 44/44/44
f 46/46/46 43/43/43 44/44/44
f 47/47/47 44/44/44 45/45/45
f 44/44/44 47/47/47 46/46/46
f 45/45/45 48/48/48 47/47/47
f 49/49/49 46/46/46 47/47/47
f 50/50/50 47/47/47 48/48/48
f 47/47/47 50/50/50 49/49/49
f 48/48/48 51/51/51 50/50/50
f 52/52/52 49/49/49 50/50/50
f 53/53/53 50/50/50 51/51/51
f 50/50/50 53/53/53 52/52/52
f 51/51/51 54/54/54 53/53/53
f 55/55/55 52/52/52 53/53/53
f 56/56/56 53/53/53 54/54/54
f 53/53/53 56/56/56 55/55/55
f 54/54/54 57/57/57 56/56/56
f 58/58/58 55/55/55 56/56/56
f 59/59/59 56/56/56 57/57/57
f 56/56/56 59/59/59 58/58/58
f 57/57/57 60/60/60 59/59/59
f 61/61/61 58/58/58 59/59/59
f 62/62/62 59/59/59 60/60/60
f 59/59/59 62/62/62 61/61/61
f 60/60/60 63/63/63 62/62/62
f 64/64/64 61/61/61 62/62/62
f 65/65/65 62/62/62 63/63/63
f 62/62/62 65/65/65 64/64/64
f 63/63/63 66/66/66 65/65/65
f 67/67/67 64/64/64 65/65/65
f 68/68/68 65/65/65 66/66/66
f 65/65/65 68/68/68 67/67/67
f 66/66/66 69/69/69 68/68/68
f 70/70/70 67/67/67 68/68/68
f 71/71/71 68/68/68 69/69/69
f 68/68/68 71/71/71 70/70/70
f 69/69/69 72/72/72 71/71/71
f 73/73/73 70/70/70 71/71/71
f 74/74/74 71/71/71 72/72/72
f 71/71/71 74/74/74 73/73/73
f 72/72/72 75/75/75 74/74/74
f 76/76/76 73/73/73 74/74/74
f 77/77/77 74/74/74 75/75/75
f 74/74/74 77/77/77 76/76/76
f 75/75/75 78/78/78 77/77/77
f 79/79/79 76/76/76 77/77/77
f 80/80/80 77/77/77 78/78/78
f 77/77/77 80/80/80 79/79/79
f 78/78/78 81/81/81 80/80/80
f 82/82/82 79/79/79 80/80/80
f 83/83/83 80/80/80 81/81/81
f 80/80/80 83/83/83 82/82/82
f 81/81/81 84/84/84 83/83/83
f 85/85/85 82/82/82 83/83/83
f 86/86/86 83/83/83 84/84/84
f 83/83/83 86/86/86 85/85/85
f 84/84/84 87/87/87 86/86/86
f 88/88/88 85/85/85 86/86/86
f 89/89/89 86/86/86 87/87/87
f 86/86/86 89/89/89 88/88/88
f 87/87/87 90/90/90 89/89/89
f 91/91/91 88/88/88 89/89/89
f 92/92/92 89/89/89 90/90/90
f 89/89/89 92/92/92 91/91/91
f 90/90/90 93/93/93 92/92/92
f 94/94/94 91/91/91 92/92/92
f 95/95/95 92/92/92 93/93/93
f 92/92/92 95/95/95 94/94/94
f 93/93/93 96/96/96 95/95/95
f 97/97/97 94/94/94 95/95/95
f 98/98/98 95/95/95 96/96/96
f 95/95/95 98/98/98 97/97/97
f 96/96/96 99/99/99 98/98/98
f 100/100/100 97/97/97 98/98/98
f 101/101/101 98/98/98 99/99/99
f 98/98/98 101/101/101 100/100/100
f 99/99/99 102/102/102 101/101/101
f 103/103/103 100/100/100 101/101/101
f 104/104/104 101/101/101 102/102/102
f 101/101/101 104/104/104 103/103/103
f 102/102/102 105/105/105 104/104/104
f 106/106/106 103/103/103 104/104/104
f 107/107/107 104/104/104 105/105/105
f 104/104/104 107/107/107 106/106/106
f 105/105/105 108/108/108 107/107/107
f 109/109/109 106/106/106 107/107/107
f 110/110/110 107/107/107 108/108/108
f 107/107/107 110/110/110 109/109/109
f 108/108/108 111/111/111 110/110/110
f 112/112/112 109/109/109 110/110/110
f 113/113/113 110/110/110 111/111/111
f 110/110/110 113/113/113 112/112/112
f 111/111/111 114/114/114 113/113/113
f 115/115/115 112/112/112 113/113/113
f 116/116/116 113/113/113 114/114/114
f 113/113/113 116/116/116 115/115/115
f 114/114/114 117/117/117 116/116/116
f 118/118/118 115/115/115 116/116/116
f 119/119/119 116/116/116 117/117/117
f 116/116/116 119/119/119 118/118/118
f 117/117/117 120/120/120 119/119/119
f 121/121/121 118/118/118 119/119/119
f 122/122/122 119/119/119 120/120/120
f 119/119/119 122/122/122 121/121/121
f 123/123/123 121/121/121 122/122/122
