g Rectangle002
v 0.509245872 0.509245872 0.000138330463
v 0.509245872 0.509245872 0.26278457
v -0.509257197 0.509257197 0.262773246
v -0.509234548 0.509234548 0.000126991275
v -0.509234548 0.509234548 0.000126991275
v -0.509257197 0.509257197 0.262773246
v -0.509268522 -0.509268522 0.262761921
v -0.509223163 -0.509223163 0.000115652081
v -0.509223163 -0.509223163 0.000115652081
v -0.509268522 -0.509268522 0.262761921
v 0.509279847 -0.509279847 0.262750566
v 0.509211838 -0.509211838 0.000104331964
v 0.509211838 -0.509211838 0.000104331964
v 0.509279847 -0.509279847 0.262750566
v 0.509245872 0.509245872 0.26278457
v 0.509245872 0.509245872 0.000138330463
vt 0.0205008388 0.00987063441
vt 0.990235329 0.00987063441
vt 0.990235329 0.254935294
vt 0.0205008388 0.254935294
vt 0.0205008388 0.254935294
vt 0.990235329 0.254935294
vt 0.990235329 0.5
vt 0.0205008388 0.49999994
vt 0.0205008388 0.49999994
vt 0.990235329 0.5
vt 0.990235329 0.745064557
vt 0.0205007792 0.745064557
vt 0.0205007792 0.745064557
vt 0.990235329 0.745064557
vt 0.990235329 0.990129292
vt 0.0205007792 0.990129292
vn -0 1 -4.31365443E-05
vn -0 1 -4.31365406E-05
vn -0 1 -4.31365443E-05
vn -0 1 -4.31365406E-05
vn -1 0 -0.000129482243
vn -1 0 -0.000129482243
vn -1 0 -0.000129482243
vn -1 0 -0.000129482243
vn -0 -1 -0.000215827968
vn -0 -1 -0.000215827968
vn -0 -1 -0.000215827997
vn -0 -1 -0.000215827968
vn 1 0 -0.000129482258
vn 1 0 -0.000129482258
vn 1 0 -0.000129482258
vn 1 0 -0.000129482258
g Rectangle002_0
f 3/3/3 2/2/2 1/1/1
f 4/4/4 3/3/3 1/1/1
f 7/7/7 6/6/6 5/5/5
f 8/8/8 7/7/7 5/5/5
f 11/11/11 10/10/10 9/9/9
f 12/12/12 11/11/11 9/9/9
f 15/15/15 14/14/14 13/13/13
f 16/16/16 15/15/15 13/13/13
