g shikuai_frag_014
v -0.567031741 -0.763368607 0.11852774
v -0.596319079 -0.773075223 0.143924147
v -0.568725228 -0.769672751 0.167235821
v -0.627216935 -0.74708581 0.177118301
v -0.568725228 -0.769672751 0.167235821
v -0.596319079 -0.773075223 0.143924147
v -0.148399085 -0.614421248 -0.190649003
v -0.214473456 -0.676472545 0.170693964
v 0.139778405 -0.566525817 0.174151987
v -0.567031741 -0.763368607 0.11852774
v -0.40334937 -0.703173518 -0.0223581791
v -0.568725228 -0.769672751 0.167235821
v -0.61863482 -0.716173887 0.174635619
v -0.568725228 -0.769672751 0.167235821
v -0.627216935 -0.74708581 0.177118301
v -0.614870191 -0.704488158 0.173215434
v -0.568725228 -0.769672751 0.167235821
v -0.61863482 -0.716173887 0.174635619
v -0.610808253 -0.686189532 0.172688395
v -0.568725228 -0.769672751 0.167235821
v -0.614870191 -0.704488158 0.173215434
v -0.606224895 -0.664209485 0.172329113
v -0.568725228 -0.769672751 0.167235821
v -0.610808253 -0.686189532 0.172688395
v -0.599883199 -0.631288648 0.172275305
v -0.568725228 -0.769672751 0.167235821
v -0.606224895 -0.664209485 0.172329113
v -0.589006066 -0.567523956 0.173472792
v -0.568725228 -0.769672751 0.167235821
v -0.599883199 -0.631288648 0.172275305
v 0.139778405 -0.566525817 0.174151987
v 0.322760493 -0.318862796 0.191026255
v 0.348087907 -0.453385592 0.176185533
v -0.20374313 -0.614735126 -0.189824834
v -0.211178154 -0.630760431 -0.188870639
v -0.148399085 -0.614421248 -0.190649003
v 0.139778405 -0.566525817 0.174151987
v 0.259888917 -0.421532273 -0.202214509
v -0.148399085 -0.614421248 -0.190649003
v 0.322912991 0.290260613 -0.220436186
v 0.444347292 0.522619665 -0.228227526
v 0.43705067 0.582615793 -0.149198145
v -0.0142960846 0.197417438 0.103210017
v 0.0722276866 -0.105951786 -0.206528068
v -0.324231356 -0.640527844 -0.0845294744
v -0.0138536394 -0.253780723 -0.201445207
v -0.144106835 -0.478747487 -0.194617435
v -0.20374313 -0.614735126 -0.189824834
v -0.211178154 -0.630760431 -0.188870639
v -0.312556952 -0.668595195 -0.106471062
v -0.141303927 -0.473954439 -0.194796681
v -0.0703503788 -0.35151732 -0.198590383
v -0.337642759 -0.676995158 -0.0926205516
v -0.375905067 -0.692945838 -0.0459564477
v -0.589006066 -0.567523956 0.173472792
v -0.40334937 -0.703173518 -0.0223581791
v -0.531399488 -0.223138332 0.180994526
v -0.567031741 -0.763368607 0.11852774
v -0.599883199 -0.631288648 0.172275305
v -0.606224895 -0.664209485 0.172329113
v -0.610808253 -0.686189532 0.172688395
v -0.614870191 -0.704488158 0.173215434
v -0.596319079 -0.773075223 0.143924147
v -0.61863482 -0.716173887 0.174635619
v -0.627216935 -0.74708581 0.177118301
v -0.506341338 -0.193403244 0.18096754
v -0.531399488 -0.223138332 0.180994526
v -0.366615027 -0.007848382 0.188717306
v -0.32335338 0.0604780912 0.191343158
v -0.118655175 0.386742294 0.2046711
v 0.100786 0.715221286 0.218564808
v 0.154365152 0.715497375 0.196960032
v 0.373952061 0.753542781 -0.000920124352
v 0.459560841 0.696140409 -0.142574325
v 0.450108379 0.726615429 -0.118700624
v 0.436106831 0.773075223 -0.082887888
v 0.46729508 0.661934257 -0.155196086
v 0.48566404 0.624096215 -0.176341251
v 0.444347292 0.522619665 -0.228227526
v 0.507531643 0.605007052 -0.231277376
v -0.148399085 -0.614421248 -0.190649003
v -0.40334937 -0.703173518 -0.0223581791
v -0.214473456 -0.676472545 0.170693964
v -0.375905067 -0.692945838 -0.0459564477
v -0.337642759 -0.676995158 -0.0926205516
v -0.312556952 -0.668595195 -0.106471062
v -0.211178154 -0.630760431 -0.188870639
v -0.531399488 -0.223138332 0.180994526
v -0.568725228 -0.769672751 0.167235821
v -0.589006066 -0.567523956 0.173472792
v -0.506341338 -0.193403244 0.18096754
v -0.214473456 -0.676472545 0.170693964
v 0.322760493 -0.318862796 0.191026255
v 0.139778405 -0.566525817 0.174151987
v 0.300325781 -0.190601051 0.201496512
v 0.352863848 -0.0414997935 0.212506592
v 0.359931022 -0.0223737955 0.213914067
v 0.422368139 0.145852774 0.225875214
v 0.418477029 0.206919432 0.230480358
v -0.568725228 -0.769672751 0.167235821
v -0.568725228 -0.769672751 0.167235821
v 0.410872072 0.480309397 0.231150299
v 0.418477029 0.206919432 0.230480358
v 0.406931639 0.495041549 0.2309746
v 0.40754059 0.501651049 0.231038362
v 0.280179322 0.689727187 0.224477738
v 0.409650683 0.524695754 0.231277362
v 0.387245536 0.673602343 0.230700135
v -0.366615027 -0.007848382 0.188717306
v -0.32335338 0.0604780912 0.191343158
v -0.506341338 -0.193403244 0.18096754
v 0.280179322 0.689727187 0.224477738
v -0.118655175 0.386742294 0.2046711
v 0.100786 0.715221286 0.218564808
v -0.32335338 0.0604780912 0.191343158
v -0.568725228 -0.769672751 0.167235821
v 0.444347292 0.522619665 -0.228227526
v 0.596344948 0.327704906 -0.225314826
v 0.507531643 0.605007052 -0.231277376
v 0.322912991 0.290260613 -0.220436186
v 0.604528904 0.206649661 -0.222275347
v 0.627216935 -0.0193878859 -0.21670571
v 0.608799696 -0.0711176693 -0.215094119
v 0.0722276866 -0.105951786 -0.206528068
v -0.0138536394 -0.253780723 -0.201445207
v -0.0138536394 -0.253780723 -0.201445207
v 0.559985161 -0.209432781 -0.211554676
v 0.608799696 -0.0711176693 -0.215094119
v -0.0703503788 -0.35151732 -0.198590383
v 0.54294157 -0.257583082 -0.210232407
v 0.259888917 -0.421532273 -0.202214509
v -0.141303927 -0.473954439 -0.194796681
v -0.141303927 -0.473954439 -0.194796681
v -0.148399085 -0.614421248 -0.190649003
v 0.259888917 -0.421532273 -0.202214509
v -0.144106835 -0.478747487 -0.194617435
v -0.20374313 -0.614735126 -0.189824834
v 0.348087907 -0.453385592 0.176185533
v 0.259888917 -0.421532273 -0.202214509
v 0.139778405 -0.566525817 0.174151987
v 0.405734122 -0.391998827 0.0343755223
v 0.322760493 -0.318862796 0.191026255
v 0.405734122 -0.391998827 0.0343755223
v 0.348087907 -0.453385592 0.176185533
v 0.300325781 -0.190601051 0.201496512
v 0.471808404 -0.316726029 -0.129610941
v 0.352863848 -0.0414997935 0.212506592
v 0.508808017 -0.287011266 -0.16695334
v 0.517733932 0.0739571899 0.0359553806
v 0.359931022 -0.0223737955 0.213914067
v 0.422368139 0.145852774 0.225875214
v 0.418244094 0.488757789 0.215711519
v 0.418477029 0.206919432 0.230480358
v 0.410872072 0.480309397 0.231150299
v 0.406931639 0.495041549 0.2309746
v 0.40754059 0.501651049 0.231038362
v 0.409650683 0.524695754 0.231277362
v 0.46729508 0.661934257 -0.155196086
v 0.387245536 0.673602343 0.230700135
v 0.427816242 0.756733894 -0.0312696099
v 0.459560841 0.696140409 -0.142574325
v 0.450108379 0.726615429 -0.118700624
v 0.436106831 0.773075223 -0.082887888
v 0.604528904 0.206649661 -0.222275347
v 0.627216935 -0.0193878859 -0.21670571
v 0.596344948 0.327704906 -0.225314826
v 0.46729508 0.661934257 -0.155196086
v 0.48566404 0.624096215 -0.176341251
v 0.507531643 0.605007052 -0.231277376
v 0.608799696 -0.0711176693 -0.215094119
v 0.559985161 -0.209432781 -0.211554676
v 0.54294157 -0.257583082 -0.210232407
v 0.154365152 0.715497375 0.196960032
v 0.280179322 0.689727187 0.224477738
v 0.100786 0.715221286 0.218564808
v 0.373952061 0.753542781 -0.000920124352
v 0.387245536 0.673602343 0.230700135
v 0.427816242 0.756733894 -0.0312696099
v 0.436106831 0.773075223 -0.082887888
v 0.471808404 -0.316726029 -0.129610941
v 0.259888917 -0.421532273 -0.202214509
v 0.405734122 -0.391998827 0.0343755223
v 0.508808017 -0.287011266 -0.16695334
v 0.54294157 -0.257583082 -0.210232407
vt 0.0205171481 0.891768396
vt 0.00480676582 0.897684872
vt 0.00199999753 0.903107524
vt 0.879560113 0.0823297426
vt 0.886340678 0.0820695087
vt 0.887295842 0.076493606
vt 0.22501272 0.819731653
vt 0.100538827 0.897191584
vt 0.199077666 0.891275644
vt 0.0205171481 0.891768396
vt 0.118818663 0.855959058
vt 0.00199999753 0.903107524
vt 0.0357809886 0.0192529038
vt 0.0339741819 0.00868982356
vt 0.0328328311 0.0150403371
vt 0.0385636352 0.0195167772
vt 0.0339741819 0.00868982356
vt 0.0357809886 0.0192529038
vt 0.0415866077 0.0210719034
vt 0.0339741819 0.00868982356
vt 0.0385636352 0.0195167772
vt 0.0450024083 0.0231240802
vt 0.0339741819 0.00868982356
vt 0.0415866077 0.0210719034
vt 0.0497375987 0.0265237093
vt 0.0339741819 0.00868982356
vt 0.0450024083 0.0231240802
vt 0.0583937876 0.033549495
vt 0.0339741819 0.00868982356
vt 0.0497375987 0.0265237093
vt 0.228069276 0.00645987783
vt 0.288605481 0.0180609971
vt 0.285135806 0.00580426026
vt 0.212003574 0.788953841
vt 0.207696438 0.791860223
vt 0.22161682 0.791883945
vt 0.199077666 0.891275644
vt 0.316366702 0.816977799
vt 0.22501272 0.819731653
vt 0.47274974 0.389048249
vt 0.502208889 0.40613395
vt 0.502208829 0.418507367
vt 0.418507367 0.418507367
vt 0.418507397 0.361505032
vt 0.334805906 0.334805906
vt 0.398952484 0.350957453
vt 0.369307458 0.334805906
vt 0.353103757 0.324416816
vt 0.351137429 0.323238611
vt 0.334805906 0.329946578
vt 0.369943321 0.335146308
vt 0.386087209 0.343928099
vt 0.3311674 0.3311674
vt 0.324091852 0.334805906
vt 0.303288817 0.372100055
vt 0.319607019 0.336728752
vt 0.334805906 0.40331921
vt 0.292913914 0.348284602
vt 0.297424227 0.366343021
vt 0.294296265 0.363451183
vt 0.292159677 0.361559033
vt 0.29034698 0.36001116
vt 0.288210571 0.350468427
vt 0.289027929 0.359152198
vt 0.285728574 0.356727779
vt 0.339397401 0.405246466
vt 0.334805906 0.40331918
vt 0.36613062 0.418507338
vt 0.37523669 0.42366311
vt 0.418507338 0.448413134
vt 0.463258505 0.472895205
vt 0.469262242 0.469262183
vt 0.502208889 0.449000359
vt 0.512710631 0.42900908
vt 0.513003707 0.434173703
vt 0.513517082 0.441985339
vt 0.511406958 0.424465597
vt 0.511222661 0.418507397
vt 0.502208829 0.406133831
vt 0.514506102 0.411454171
vt 0.22501272 0.819731653
vt 0.118818671 0.855959117
vt 0.100538827 0.897191584
vt 0.13192293 0.850884795
vt 0.15439266 0.840861082
vt 0.164015085 0.837877154
vt 0.210899055 0.820157111
vt 0.106959671 0.0664604381
vt 0.0339741819 0.00868982356
vt 0.0583937876 0.033549495
vt 0.11267069 0.0672446415
vt 0.131021723 0.00757484743
vt 0.288605481 0.0180609971
vt 0.228069276 0.00645987783
vt 0.289833218 0.0267585125
vt 0.311467379 0.0350650884
vt 0.314326823 0.0361231044
vt 0.339262336 0.0450881496
vt 0.341399342 0.04884772
vt 0.0339741819 0.00868982356
vt 0.0339741819 0.00868982356
vt 0.353283644 0.0852643028
vt 0.341399342 0.04884772
vt 0.353001773 0.0875396803
vt 0.353496224 0.0883498192
vt 0.331098944 0.123778455
vt 0.355292886 0.0911496878
vt 0.357664287 0.112376757
vt 0.151384503 0.0765158162
vt 0.164724514 0.0805857033
vt 0.11267069 0.0672446415
vt 0.331098944 0.123778455
vt 0.233552977 0.105911151
vt 0.304999918 0.131046996
vt 0.164724514 0.0805857033
vt 0.0339741819 0.00868982356
vt 0.420197785 0.699075818
vt 0.430769652 0.731739759
vt 0.437999308 0.693006158
vt 0.379912138 0.719640374
vt 0.422268093 0.746791542
vt 0.40768826 0.775346518
vt 0.40022552 0.78044796
vt 0.303595304 0.752058268
vt 0.276423216 0.764605939
vt 0.276423216 0.764605939
vt 0.381691575 0.788866937
vt 0.40022552 0.78044796
vt 0.259411365 0.769492269
vt 0.374910921 0.792145073
vt 0.312148154 0.792038202
vt 0.237300396 0.776445031
vt 0.237300396 0.776445031
vt 0.22161682 0.791883945
vt 0.312148154 0.792038202
vt 0.236321926 0.776834667
vt 0.212003574 0.788953841
vt 0.25702104 0.887796879
vt 0.316366702 0.816977799
vt 0.199077666 0.891275644
vt 0.304687321 0.859572411
vt 0.268080831 0.349395454
vt 0.249368131 0.332978606
vt 0.250991672 0.354279637
vt 0.284141302 0.344266266
vt 0.248005256 0.308130205
vt 0.300624698 0.334155887
vt 0.248563603 0.300624728
vt 0.300624698 0.300624698
vt 0.30273065 0.332841754
vt 0.321224958 0.321224958
vt 0.360749662 0.300624698
vt 0.328675091 0.31838873
vt 0.360749662 0.303103
vt 0.362562984 0.302437991
vt 0.363319129 0.302033305
vt 0.365956664 0.300624698
vt 0.360749662 0.249373868
vt 0.383869886 0.293145567
vt 0.379147828 0.25889793
vt 0.365582287 0.249121696
vt 0.370598376 0.250348508
vt 0.378203064 0.252136767
vt 0.300624698 0.261536598
vt 0.27397269 0.27397269
vt 0.314790666 0.254665732
vt 0.360749662 0.249373853
vt 0.354774386 0.248399764
vt 0.349171281 0.242635235
vt 0.268533885 0.278058589
vt 0.25394085 0.288880974
vt 0.248866677 0.292660475
vt 0.49891746 0.55593425
vt 0.485979795 0.56688875
vt 0.506383896 0.5552724
vt 0.461896896 0.545511603
vt 0.47396037 0.574145138
vt 0.453884006 0.545140207
vt 0.449893862 0.539443135
vt 0.349313706 0.82977879
vt 0.316366702 0.816977799
vt 0.304687351 0.859572411
vt 0.364273429 0.822958708
vt 0.379699677 0.815068662
vn 0.218914956 -0.968612552 -0.117753439
vn 0.218914956 -0.968612552 -0.117753439
vn 0.218914941 -0.968612552 -0.117753439
vn -0.259919852 -0.862806797 0.43359673
vn -0.259919852 -0.862806797 0.43359673
vn -0.259919852 -0.862806797 0.43359673
vn 0.295621276 -0.949075282 -0.108922459
vn 0.25378412 -0.960343897 -0.115469277
vn 0.295621276 -0.949075282 -0.108922452
vn 0.25378412 -0.960343897 -0.115469269
vn 0.25378412 -0.960343897 -0.115469269
vn 0.253784299 -0.960343719 -0.115470961
vn 0.177652925 0.0296792369 0.983645558
vn 0.17765291 0.0296792369 0.983645558
vn 0.17765291 0.0296792351 0.983645558
vn 0.202448472 0.0536164716 0.977824092
vn 0.202448472 0.0536164753 0.977824092
vn 0.202448472 0.0536164716 0.977824092
vn 0.128547758 2.80676595E-05 0.991703331
vn 0.128547758 2.80676613E-05 0.991703331
vn 0.128547758 2.80676613E-05 0.991703331
vn 0.113842987 -0.00749986246 0.99347043
vn 0.113842987 -0.00749986246 0.99347043
vn 0.113842994 -0.00749986339 0.99347043
vn 0.0906902254 -0.015842557 0.995753169
vn 0.0906902179 -0.015842557 0.995753169
vn 0.0906902254 -0.015842557 0.995753169
vn 0.0445073359 -0.0263468176 0.998661637
vn 0.0445073321 -0.0263468158 0.998661637
vn 0.0445073359 -0.0263468176 0.998661637
vn 0.045223929 -0.101127639 0.993845105
vn 0.045223929 -0.101127639 0.993845105
vn 0.0452239327 -0.101127639 0.993845105
vn -0.0145706041 -0.0526939034 -0.9985044
vn -0.0145706031 -0.0526938997 -0.9985044
vn -0.014570605 -0.0526939072 -0.9985044
vn 0.412799627 -0.886347651 -0.209724069
vn 0.412799656 -0.886347651 -0.209724084
vn 0.412799627 -0.886347651 -0.209724069
vn -0.700695932 0.414973885 -0.580363512
vn -0.784115553 0.457305372 -0.419564754
vn -0.718610704 0.370319307 -0.588610351
vn -0.545137346 0.348002315 -0.762705505
vn -0.702265322 0.400583148 -0.588520586
vn -0.648106456 0.290765941 -0.703855932
vn -0.710196555 0.393477768 -0.583777428
vn -0.703914762 0.371982008 -0.605089486
vn -0.665891469 0.267475873 -0.696451783
vn -0.665891409 0.267475128 -0.696452141
vn -0.619482994 0.307101816 -0.72244674
vn -0.709989309 0.393347621 -0.584117234
vn -0.710257769 0.393516511 -0.583676875
vn -0.695873737 0.389751762 -0.603202581
vn -0.694114804 0.169406787 -0.699647069
vn -0.673681378 0.128584132 -0.727749646
vn -0.673681855 0.128583506 -0.727749348
vn -0.488130838 0.28294903 -0.825632036
vn -0.673681319 0.128584042 -0.727749646
vn -0.673679769 0.128584832 -0.727750957
vn -0.673680544 0.128584296 -0.727750421
vn -0.673681974 0.128583103 -0.727749228
vn -0.67368108 0.128583908 -0.727750063
vn -0.673680902 0.128584117 -0.727750123
vn -0.673679233 0.128585145 -0.727751374
vn -0.673679113 0.128585204 -0.727751493
vn -0.40405947 0.339735687 -0.849303067
vn -0.488130838 0.28294903 -0.825632036
vn -0.399086505 0.328370035 -0.856097579
vn -0.37285614 0.270192206 -0.887679279
vn -0.364817172 0.275532246 -0.889376402
vn -0.360417753 0.27843383 -0.89026612
vn -0.542726994 0.317401856 -0.777626812
vn -0.712131858 0.291250944 -0.638780892
vn -0.771187365 0.188395292 -0.608093143
vn -0.803474367 0.192194268 -0.563462913
vn -0.803474665 0.192193165 -0.563462794
vn -0.582846224 0.162029013 -0.79626441
vn -0.67544359 0.376816273 -0.633865535
vn -0.784115553 0.457305372 -0.419564754
vn -0.710315406 0.527501643 -0.466040879
vn 0.256153375 -0.959417224 -0.117915437
vn 0.256153375 -0.959417224 -0.117915437
vn 0.256153345 -0.959417224 -0.117915429
vn 0.256145984 -0.95941776 -0.117926791
vn 0.256155014 -0.959417224 -0.117912337
vn 0.256114721 -0.959418237 -0.117991462
vn 0.245793208 -0.959430397 -0.138126954
vn 0.0336466618 -0.0274486188 0.999056756
vn 0.0336466618 -0.0274486169 0.999056756
vn 0.0336466618 -0.0274486188 0.999056756
vn 0.0336477235 -0.0274486914 0.999056756
vn 0.0147246243 -0.0787938014 0.996782184
vn 0.0147246243 -0.0787938088 0.996782184
vn 0.0147246243 -0.0787938088 0.996782184
vn 0.0147245815 -0.0787937418 0.996782184
vn 0.0147246476 -0.0787938088 0.996782184
vn 0.0147243068 -0.0787935108 0.996782184
vn 0.00988411717 -0.0745684579 0.997166932
vn 0.00988392159 -0.0745683089 0.997166932
vn 0.00988405943 -0.0745684057 0.997166932
vn -0.0598812811 -0.00411181152 0.998197019
vn -0.0598812811 -0.00411181152 0.998197019
vn -0.0598812774 -0.00411181105 0.998197019
vn -0.0598813109 -0.0041117901 0.998197019
vn -0.0598801337 -0.00411270605 0.998197138
vn -0.0587650016 -0.00497235777 0.998259485
vn -0.0587649979 -0.0049723573 0.998259485
vn -0.0587649941 -0.00497235777 0.998259485
vn -0.0278021134 -0.0208045747 0.99939692
vn -0.0278021134 -0.0208045747 0.99939692
vn -0.0278022774 -0.0208045375 0.99939692
vn -0.0355639383 -0.0185045246 0.999196112
vn -0.0355639346 -0.0185045246 0.999196112
vn -0.0355639346 -0.0185045227 0.999196112
vn -0.0355639867 -0.0185044613 0.999196112
vn -0.0355638787 -0.0185045637 0.999196112
vn -0.0142656807 -0.0260614641 -0.999558508
vn -0.0142656807 -0.0260614622 -0.999558508
vn -0.0142656807 -0.0260614641 -0.999558508
vn -0.0142654842 -0.0260613095 -0.999558508
vn -0.0142654553 -0.0260615274 -0.999558508
vn -0.0142653864 -0.0260612983 -0.999558508
vn -0.0142654367 -0.0260613505 -0.999558508
vn -0.014265459 -0.0260613672 -0.999558508
vn -0.0142654581 -0.0260613859 -0.999558508
vn -0.0160728786 -0.019908851 -0.999672532
vn -0.0160728786 -0.019908851 -0.999672532
vn -0.0160728805 -0.019908851 -0.999672532
vn -0.0160728786 -0.0199088566 -0.999672532
vn -0.0156181483 -0.0219230223 -0.999637723
vn -0.0156181818 -0.0219228044 -0.999637723
vn -0.0156181771 -0.0219227783 -0.999637723
vn -0.0147206727 -0.0287688412 -0.999477684
vn -0.0147206727 -0.0287688393 -0.999477684
vn -0.0147206709 -0.0287688412 -0.999477684
vn -0.0147211971 -0.0287688132 -0.999477684
vn -0.0147207929 -0.0287688244 -0.999477684
vn 0.470650703 -0.863266468 -0.182370022
vn 0.470650822 -0.863266468 -0.182370037
vn 0.470650703 -0.863266468 -0.182370007
vn 0.470650822 -0.863266468 -0.182370052
vn 0.899597406 0.123148173 0.418997645
vn 0.899597406 0.123148151 0.418997675
vn 0.899597406 0.12314827 0.418997645
vn 0.852385938 -0.153425753 0.499898732
vn 0.832194924 -0.212756053 0.512041569
vn 0.787756383 -0.320531368 0.526022375
vn 0.811478257 -0.301473826 0.500616193
vn 0.882207632 -0.12445911 0.45411402
vn 0.787875772 -0.329415292 0.520324171
vn 0.867806852 -0.12160404 0.481792331
vn 0.916190267 0.109993249 0.38535282
vn 0.897001386 0.023870619 0.441382885
vn 0.875074089 0.101284012 0.473272592
vn 0.810099185 0.0371721983 0.585113168
vn 0.785244167 -0.0782714263 0.614219129
vn 0.95725137 0.113693193 0.265976727
vn 0.946679533 0.22523959 0.230358467
vn 0.969444394 0.146629274 0.196666092
vn 0.969569862 0.144986406 0.19726409
vn 0.969444394 0.146629646 0.196665704
vn 0.969556749 0.145159915 0.197201163
vn 0.970039427 0.138455734 0.199633703
vn 0.931045592 0.0826667845 0.355415791
vn 0.892521203 -0.125620365 0.433157325
vn 0.934225202 0.159571841 0.318998545
vn 0.946679533 0.22523959 0.230358467
vn 0.917641819 0.299514979 0.261197567
vn 0.917641938 0.299515009 0.261197269
vn 0.83726263 -0.283523679 0.467552722
vn 0.837263405 -0.283524364 0.467551082
vn 0.837263465 -0.283524632 0.467550814
vn 0.123157807 0.940245688 0.317443252
vn 0.123157755 0.940245509 0.317443848
vn 0.123157866 0.940245688 0.317443013
vn 0.123158328 0.94024539 0.317443877
vn 0.123157963 0.94024539 0.317443907
vn 0.123158522 0.940245271 0.317443967
vn 0.123158552 0.940245271 0.317444026
vn 0.487534612 -0.851213455 -0.194282591
vn 0.487534553 -0.851213455 -0.194282591
vn 0.487534553 -0.851213455 -0.194282591
vn 0.487534761 -0.851213157 -0.194283471
vn 0.487534761 -0.851213336 -0.194282725
g shikuai_frag_014_0
f 3/3/3 2/2/2 1/1/1
f 6/6/6 5/5/5 4/4/4
f 9/9/9 8/8/8 7/7/7
f 11/11/11 8/8/8 10/10/10
f 8/8/8 12/12/12 10/10/10
f 15/15/15 14/14/14 13/13/13
f 18/18/18 17/17/17 16/16/16
f 21/21/21 20/20/20 19/19/19
f 24/24/24 23/23/23 22/22/22
f 27/27/27 26/26/26 25/25/25
f 30/30/30 29/29/29 28/28/28
f 33/33/33 32/32/32 31/31/31
f 36/36/36 35/35/35 34/34/34
f 39/39/39 38/38/38 37/37/37
f 42/42/42 41/41/41 40/40/40
f 43/43/43 42/42/42 40/40/40
f 44/44/44 43/43/43 40/40/40
f 43/43/43 44/44/44 45/45/45
f 44/44/44 46/46/46 45/45/45
f 46/46/46 47/47/47 45/45/45
f 45/45/45 47/47/47 48/48/48
f 49/49/49 45/45/45 48/48/48
f 50/50/50 45/45/45 49/49/49
f 51/51/51 47/47/47 46/46/46
f 52/52/52 51/51/51 46/46/46
f 50/50/50 53/53/53 45/45/45
f 54/54/54 45/45/45 53/53/53
f 54/54/54 55/55/55 45/45/45
f 56/56/56 55/55/55 54/54/54
f 55/55/55 57/57/57 45/45/45
f 58/58/58 55/55/55 56/56/56
f 59/59/59 55/55/55 58/58/58
f 60/60/60 59/59/59 58/58/58
f 61/61/61 60/60/60 58/58/58
f 62/62/62 61/61/61 58/58/58
f 63/63/63 62/62/62 58/58/58
f 64/64/64 62/62/62 63/63/63
f 65/65/65 64/64/64 63/63/63
f 67/67/67 66/66/66 45/45/45
f 66/66/66 68/68/68 45/45/45
f 68/68/68 43/43/43 45/45/45
f 68/68/68 69/69/69 43/43/43
f 70/70/70 43/43/43 69/69/69
f 43/43/43 70/70/70 71/71/71
f 72/72/72 43/43/43 71/71/71
f 73/73/73 43/43/43 72/72/72
f 42/42/42 43/43/43 73/73/73
f 73/73/73 74/74/74 42/42/42
f 75/75/75 74/74/74 73/73/73
f 76/76/76 75/75/75 73/73/73
f 74/74/74 77/77/77 42/42/42
f 77/77/77 78/78/78 42/42/42
f 42/42/42 78/78/78 79/79/79
f 80/80/80 79/79/79 78/78/78
f 83/83/83 82/82/82 81/81/81
f 82/82/82 84/84/84 81/81/81
f 84/84/84 85/85/85 81/81/81
f 85/85/85 86/86/86 81/81/81
f 86/86/86 87/87/87 81/81/81
f 90/90/90 89/89/89 88/88/88
f 89/89/89 91/91/91 88/88/88
f 94/94/94 93/93/93 92/92/92
f 93/93/93 95/95/95 92/92/92
f 95/95/95 96/96/96 92/92/92
f 96/96/96 97/97/97 92/92/92
f 97/97/97 98/98/98 92/92/92
f 98/98/98 99/99/99 92/92/92
f 92/92/92 99/99/99 100/100/100
f 103/103/103 102/102/102 101/101/101
f 102/102/102 104/104/104 101/101/101
f 104/104/104 105/105/105 101/101/101
f 105/105/105 106/106/106 101/101/101
f 107/107/107 106/106/106 105/105/105
f 108/108/108 106/106/106 107/107/107
f 110/110/110 109/109/109 101/101/101
f 109/109/109 111/111/111 101/101/101
f 114/114/114 113/113/113 112/112/112
f 113/113/113 115/115/115 112/112/112
f 112/112/112 115/115/115 116/116/116
f 119/119/119 118/118/118 117/117/117
f 117/117/117 118/118/118 120/120/120
f 118/118/118 121/121/121 120/120/120
f 121/121/121 122/122/122 120/120/120
f 122/122/122 123/123/123 120/120/120
f 120/120/120 123/123/123 124/124/124
f 124/124/124 123/123/123 125/125/125
f 128/128/128 127/127/127 126/126/126
f 126/126/126 127/127/127 129/129/129
f 127/127/127 130/130/130 129/129/129
f 130/130/130 131/131/131 129/129/129
f 129/129/129 131/131/131 132/132/132
f 135/135/135 134/134/134 133/133/133
f 133/133/133 134/134/134 136/136/136
f 136/136/136 134/134/134 137/137/137
f 140/140/140 139/139/139 138/138/138
f 139/139/139 141/141/141 138/138/138
f 144/144/144 143/143/143 142/142/142
f 142/142/142 143/143/143 145/145/145
f 143/143/143 146/146/146 145/145/145
f 145/145/145 146/146/146 147/147/147
f 146/146/146 148/148/148 147/147/147
f 148/148/148 149/149/149 147/147/147
f 147/147/147 149/149/149 150/150/150
f 149/149/149 151/151/151 150/150/150
f 152/152/152 151/151/151 149/149/149
f 153/153/153 151/151/151 152/152/152
f 154/154/154 153/153/153 152/152/152
f 155/155/155 154/154/154 152/152/152
f 156/156/156 155/155/155 152/152/152
f 157/157/157 156/156/156 152/152/152
f 157/157/157 152/152/152 158/158/158
f 159/159/159 157/157/157 158/158/158
f 160/160/160 159/159/159 158/158/158
f 161/161/161 160/160/160 158/158/158
f 162/162/162 160/160/160 161/161/161
f 163/163/163 160/160/160 162/162/162
f 149/149/149 164/164/164 152/152/152
f 164/164/164 149/149/149 165/165/165
f 152/152/152 164/164/164 166/166/166
f 167/167/167 152/152/152 166/166/166
f 168/168/168 167/167/167 166/166/166
f 169/169/169 168/168/168 166/166/166
f 149/149/149 148/148/148 165/165/165
f 148/148/148 170/170/170 165/165/165
f 171/171/171 170/170/170 148/148/148
f 172/172/172 171/171/171 148/148/148
f 175/175/175 174/174/174 173/173/173
f 173/173/173 174/174/174 176/176/176
f 174/174/174 177/177/177 176/176/176
f 177/177/177 178/178/178 176/176/176
f 178/178/178 179/179/179 176/176/176
f 182/182/182 181/181/181 180/180/180
f 180/180/180 181/181/181 183/183/183
f 181/181/181 184/184/184 183/183/183
