g shikuai_frag_005
v -0.227686614 -0.860330224 0.109714188
v -0.0655072927 -0.800687194 -0.0298836976
v -0.21743387 -0.822164655 -0.185169488
v 0.124610782 -0.728975892 -0.1948587
v -0.625719965 -0.915847003 -0.173604041
v -0.21743387 -0.822164655 -0.185169488
v -0.925522268 -0.718067765 -0.170110479
v -0.93920821 -0.703867018 -0.169860721
v -0.940236866 -0.708740592 -0.166560426
v -0.925522268 -0.718067765 -0.170110479
v -0.933581293 -0.69161737 -0.169983923
v -0.93920821 -0.703867018 -0.169860721
v -0.925522268 -0.718067765 -0.170110479
v -0.913244545 -0.645607889 -0.172590137
v -0.933581293 -0.69161737 -0.169983923
v 0.774863839 0.486041784 -0.156461507
v 0.882935941 0.558450937 -0.239202887
v 0.782063067 0.426919192 -0.234333843
v 0.918350399 0.608458221 -0.236579448
v 0.815185964 0.689332664 -0.144625634
v 0.885971725 0.697023749 -0.194868609
v 0.940236866 0.702521324 -0.233466476
v 0.711855948 0.656852901 -0.00833424553
v 0.323863983 0.100798845 0.0955985337
v 0.492433965 0.618834734 0.189401388
v 0.435558915 0.618542969 0.212331116
v 0.217959225 0.292913973 0.198555738
v 0.02018556 -0.0223271847 0.185678393
v -0.0338374078 -0.107653797 0.182399273
v 0.662407219 0.197975874 -0.226656914
v 0.782063067 0.426919192 -0.234333843
v 0.409777284 -0.201353073 -0.212639779
v 0.0137227774 -0.737260938 -0.0920232981
v -0.166322947 -0.283623695 0.175050467
v -0.194633454 -0.317223787 0.175080791
v 0.321998894 -0.352092028 -0.207456827
v 0.191448957 -0.57755363 -0.200606197
v 0.194890708 -0.571668267 -0.200826287
v 0.26565367 -0.449563622 -0.204609722
v 0.132456183 -0.712067008 -0.195865512
v 0.124610782 -0.728975892 -0.1948587
v 0.0256617516 -0.765951753 -0.114456803
v 1.05798244E-05 -0.77454102 -0.100293487
v -0.0390968323 -0.790844679 -0.0525939241
v -0.250890195 -0.653531551 0.167735547
v -0.194633454 -0.317223787 0.175080791
v -0.0655072927 -0.800687194 -0.0298836976
v -0.227686614 -0.860330224 0.109714188
v -0.262375772 -0.72086215 0.166471094
v -0.269072235 -0.755624533 0.166527912
v -0.273912072 -0.778833985 0.16690731
v -0.278201282 -0.798156261 0.167463824
v -0.258613288 -0.870580316 0.136533231
v -0.282176435 -0.810495734 0.168963462
v -0.291238487 -0.843136907 0.171585023
v -0.907936513 -0.700441599 -0.0900950581
v -0.925522268 -0.718067765 -0.170110479
v -0.940236866 -0.708740592 -0.166560426
v -0.880851328 -0.699583352 -0.0438409448
v -0.147757143 0.0843843296 0.0135974381
v -0.127740473 0.0727799982 0.183543086
v -0.185202956 0.0154595524 0.1839035
v -0.0850106776 0.114970684 0.185610071
v 0.110361427 0.377381593 0.196507767
v -0.0504970551 0.385016024 -0.221359193
v -0.114926785 0.281025827 -0.217728347
v -0.147815436 0.227647409 -0.215402424
v 0.147529751 0.434666604 0.198734269
v -0.311322331 0.0912095606 -0.207793906
v 0.065198034 0.677152395 -0.230627209
v -0.587698936 -0.150325537 -0.194598421
v -0.587042391 -0.177916467 -0.151528016
v -0.602797806 -0.185008943 -0.193218425
v 0.16042757 0.465140849 0.199727461
v -0.649327397 -0.240343034 -0.1905469
v 0.114923179 0.751028061 -0.184582412
v 0.0964952111 0.742933869 -0.23278901
v 0.12011078 0.776739895 -0.234007448
v 0.209645748 0.838696539 -0.129752591
v 0.182364285 0.849844337 -0.236801952
v 0.238570094 0.915847003 -0.239325017
v 0.210648447 0.827191055 -0.117905244
v 0.214052409 0.749773979 -0.0429267064
v 0.212898672 0.731133342 -0.0236988813
v 0.220965385 0.69243592 0.0310194567
v 0.166426599 0.472440511 0.200046301
v 0.287586987 0.619339108 0.207079172
v -0.548320174 -0.43865329 0.203676835
v -0.577036023 -0.491377771 0.212513238
v -0.542558789 -0.424723089 0.201720148
v -0.812452376 -0.506823599 -0.178957522
v -0.499977946 -0.330368966 0.196198106
v -0.455130756 -0.232355684 0.191798881
v -0.414129674 -0.14437142 0.189464465
v -0.395209312 -0.130896717 0.187955618
v -0.309342802 -0.0709068477 0.185711473
v -0.185202956 0.0154595524 0.1839035
v -0.623805463 -0.561329126 0.223146081
v -0.777172029 -0.699138522 0.136969596
v -0.750843942 -0.699094057 0.182702854
v -0.705136538 -0.683307469 0.241515532
v -0.880851328 -0.699583352 -0.0438409448
v -0.907936513 -0.700441599 -0.0900950581
v -0.913244545 -0.645607889 -0.172590137
v -0.940236866 -0.708740592 -0.166560426
v -0.933581293 -0.69161737 -0.169983923
v -0.93920821 -0.703867018 -0.169860721
v 0.220965385 0.69243592 0.0310194567
v 0.383363366 0.625960648 0.210610718
v 0.287586987 0.619339108 0.207079172
v 0.253006816 0.729729533 -0.0461710989
v 0.212898672 0.731133342 -0.0236988813
v 0.214052409 0.749773979 -0.0429267064
v 0.210648447 0.827191055 -0.117905244
v 0.33856231 0.838721156 -0.238741189
v 0.209645748 0.838696539 -0.129752591
v 0.238570094 0.915847003 -0.239325017
v 0.637137532 0.745043457 -0.240559906
v 0.383363366 0.625960648 0.210610718
v 0.435558915 0.618542969 0.212331116
v 0.492433965 0.618834734 0.189401388
v 0.711855948 0.656852901 -0.00833424553
v 0.7243855 0.733937919 -0.241515547
v 0.815185964 0.689332664 -0.144625634
v 0.885971725 0.697023749 -0.194868609
v 0.899924338 0.708732307 -0.234961599
v 0.940236866 0.702521324 -0.233466476
v -0.0390968323 -0.790844679 -0.0525939241
v -0.21743387 -0.822164655 -0.185169488
v -0.0655072927 -0.800687194 -0.0298836976
v 1.05798244E-05 -0.77454102 -0.100293487
v 0.0256617516 -0.765951753 -0.114456803
v 0.124610782 -0.728975892 -0.1948587
v -0.227686614 -0.860330224 0.109714188
v -0.625719965 -0.915847003 -0.173604041
v -0.258613288 -0.870580316 0.136533231
v 0.124610782 -0.728975892 -0.1948587
v -0.925522268 -0.718067765 -0.170110479
v -0.625719965 -0.915847003 -0.173604041
v 0.132456183 -0.712067008 -0.195865512
v 0.191448957 -0.57755363 -0.200606197
v -0.925522268 -0.718067765 -0.170110479
v 0.132456183 -0.712067008 -0.195865512
v 0.194890708 -0.571668267 -0.200826287
v 0.321998894 -0.352092028 -0.207456827
v -0.913244545 -0.645607889 -0.172590137
v -0.812452376 -0.506823599 -0.178957522
v -0.649327397 -0.240343034 -0.1905469
v -0.602797806 -0.185008943 -0.193218425
v -0.147815436 0.227647409 -0.215402424
v -0.311322331 0.0912095606 -0.207793906
v -0.587698936 -0.150325537 -0.194598421
v -0.114926785 0.281025827 -0.217728347
v 0.409777284 -0.201353073 -0.212639779
v 0.662407219 0.197975874 -0.226656914
v -0.0504970551 0.385016024 -0.221359193
v 0.065198034 0.677152395 -0.230627209
v 0.782063067 0.426919192 -0.234333843
v 0.0964952111 0.742933869 -0.23278901
v 0.12011078 0.776739895 -0.234007448
v 0.182364285 0.849844337 -0.236801952
v 0.637137532 0.745043457 -0.240559906
v 0.33856231 0.838721156 -0.238741189
v 0.238570094 0.915847003 -0.239325017
v 0.7243855 0.733937919 -0.241515547
v 0.882935941 0.558450937 -0.239202887
v 0.26565367 -0.449563622 -0.204609722
v -0.925522268 -0.718067765 -0.170110479
v 0.194890708 -0.571668267 -0.200826287
v 0.321998894 -0.352092028 -0.207456827
v 0.899924338 0.708732307 -0.234961599
v 0.918350399 0.608458221 -0.236579448
v 0.940236866 0.702521324 -0.233466476
v 0.882935941 0.558450937 -0.239202887
v 0.7243855 0.733937919 -0.241515547
v -0.880851328 -0.699583352 -0.0438409448
v -0.625719965 -0.915847003 -0.173604041
v -0.925522268 -0.718067765 -0.170110479
v -0.777172029 -0.699138522 0.136969596
v -0.750843942 -0.699094057 0.182702854
v -0.291238487 -0.843136907 0.171585023
v -0.750843942 -0.699094057 0.182702854
v -0.705136538 -0.683307469 0.241515532
v -0.258613288 -0.870580316 0.136533231
v -0.625719965 -0.915847003 -0.173604041
v 0.383363366 0.625960648 0.210610718
v 0.166426599 0.472440511 0.200046301
v 0.287586987 0.619339108 0.207079172
v 0.435558915 0.618542969 0.212331116
v 0.217959225 0.292913973 0.198555738
v 0.02018556 -0.0223271847 0.185678393
v 0.02018556 -0.0223271847 0.185678393
v 0.16042757 0.465140849 0.199727461
v 0.166426599 0.472440511 0.200046301
v 0.147529751 0.434666604 0.198734269
v 0.110361427 0.377381593 0.196507767
v -0.0850106776 0.114970684 0.185610071
v -0.127740473 0.0727799982 0.183543086
v -0.0338374078 -0.107653797 0.182399273
v -0.166322947 -0.283623695 0.175050467
v -0.623805463 -0.561329126 0.223146081
v -0.291238487 -0.843136907 0.171585023
v -0.705136538 -0.683307469 0.241515532
v -0.282176435 -0.810495734 0.168963462
v -0.577036023 -0.491377771 0.212513238
v -0.577036023 -0.491377771 0.212513238
v -0.278201282 -0.798156261 0.167463824
v -0.282176435 -0.810495734 0.168963462
v -0.548320174 -0.43865329 0.203676835
v -0.542558789 -0.424723089 0.201720148
v -0.542558789 -0.424723089 0.201720148
v -0.273912072 -0.778833985 0.16690731
v -0.278201282 -0.798156261 0.167463824
v -0.499977946 -0.330368966 0.196198106
v -0.499977946 -0.330368966 0.196198106
v -0.269072235 -0.755624533 0.166527912
v -0.273912072 -0.778833985 0.16690731
v -0.455130756 -0.232355684 0.191798881
v -0.455130756 -0.232355684 0.191798881
v -0.262375772 -0.72086215 0.166471094
v -0.269072235 -0.755624533 0.166527912
v -0.414129674 -0.14437142 0.189464465
v -0.395209312 -0.130896717 0.187955618
v -0.395209312 -0.130896717 0.187955618
v -0.250890195 -0.653531551 0.167735547
v -0.262375772 -0.72086215 0.166471094
v -0.309342802 -0.0709068477 0.185711473
v -0.309342802 -0.0709068477 0.185711473
v -0.194633454 -0.317223787 0.175080791
v -0.250890195 -0.653531551 0.167735547
v -0.166322947 -0.283623695 0.175050467
v -0.185202956 0.0154595524 0.1839035
v -0.127740473 0.0727799982 0.183543086
vt 0.0215540342 0.891133428
vt 0.118954971 0.855651736
vt 0.133658767 0.822485447
vt 0.206928968 0.791858912
vt 0.0405541286 0.791575551
vt 0.131085441 0.791729748
vt 0.0277027525 0.732779086
vt 0.0267597195 0.728464603
vt 0.0269496981 0.729333758
vt 0.0277027525 0.732779086
vt 0.0297847465 0.728712976
vt 0.0267597195 0.728464603
vt 0.0277027525 0.732779086
vt 0.0357932895 0.724812388
vt 0.0297847465 0.728712976
vt 0.502208889 0.418507367
vt 0.521846712 0.414810956
vt 0.502209008 0.40631929
vt 0.528819501 0.418507338
vt 0.52101922 0.437317699
vt 0.530610859 0.431448132
vt 0.537937105 0.426904082
vt 0.502208889 0.448989332
vt 0.418507367 0.418507397
vt 0.46926403 0.46926403
vt 0.462889493 0.473121226
vt 0.418507397 0.448856384
vt 0.376705408 0.424945176
vt 0.365335584 0.418507367
vt 0.473185718 0.389484227
vt 0.502208829 0.406319112
vt 0.418507397 0.361741781
vt 0.334805906 0.334805906
vt 0.339992404 0.405931175
vt 0.334805936 0.403753549
vt 0.398569345 0.350988835
vt 0.3688609 0.334805906
vt 0.369641572 0.335223794
vt 0.385740161 0.343979955
vt 0.352827072 0.32453391
vt 0.350751609 0.323291332
vt 0.334805906 0.329837739
vt 0.331085205 0.331085205
vt 0.323852539 0.334805906
vt 0.304031432 0.37326172
vt 0.334805906 0.403753489
vt 0.319535613 0.336656749
vt 0.293081105 0.348109543
vt 0.297839493 0.367181748
vt 0.294536889 0.364127636
vt 0.292280972 0.36212939
vt 0.290367067 0.360494614
vt 0.288113296 0.350416273
vt 0.288974255 0.359587491
vt 0.285490513 0.357027113
vt 0.831733346 0.0192017499
vt 0.836738229 0.0044301087
vt 0.833027959 0.00457250839
vt 0.832649171 0.028300859
vt 0.338019967 0.338019967
vt 0.347640306 0.357564181
vt 0.338019967 0.361560166
vt 0.354880214 0.354880214
vt 0.393885553 0.338019967
vt 0.35908708 0.291483104
vt 0.345139623 0.299031198
vt 0.338019967 0.302956522
vt 0.401931345 0.33432734
vt 0.313225329 0.313225329
vt 0.392832071 0.270415992
vt 0.270415992 0.33137992
vt 0.270415992 0.338019967
vt 0.266308337 0.333912313
vt 0.405623972 0.332345545
vt 0.25789237 0.338019967
vt 0.405623972 0.270415992
vt 0.40086779 0.265659779
vt 0.405623972 0.263198853
vt 0.423818618 0.270415992
vt 0.416843832 0.257853627
vt 0.42697376 0.253027618
vt 0.423558831 0.272509277
vt 0.421281278 0.286073327
vt 0.420629144 0.289470434
vt 0.420930982 0.298149765
vt 0.406757325 0.331877947
vt 0.429633617 0.322535783
vt 0.270415992 0.395041376
vt 0.264039457 0.399640262
vt 0.271966964 0.393868804
vt 0.222416043 0.357624024
vt 0.28317672 0.386777759
vt 0.294943035 0.379558921
vt 0.305652529 0.373256505
vt 0.308294833 0.372155875
vt 0.320430398 0.367748559
vt 0.338019967 0.361560106
vt 0.254798621 0.405623972
vt 0.225826442 0.405623972
vt 0.230442658 0.410652518
vt 0.238694489 0.416036993
vt 0.20758751 0.385757416
vt 0.202811986 0.380726486
vt 0.202636838 0.367874801
vt 0.195388019 0.372873783
vt 0.197204337 0.371321023
vt 0.195710152 0.372175634
vt 0.521227837 0.521227837
vt 0.512829542 0.551602662
vt 0.523910999 0.546771646
vt 0.512829483 0.512829483
vt 0.518751502 0.512829483
vt 0.517363906 0.509733319
vt 0.512829483 0.496921837
vt 0.49105832 0.49105832
vt 0.512174666 0.494924128
vt 0.501945496 0.480460912
vt 0.456980705 0.512829483
vt 0.512829542 0.551602662
vt 0.50689292 0.554982483
vt 0.498967469 0.55568552
vt 0.461974651 0.545270205
vt 0.446832359 0.518018842
vt 0.442018747 0.535178781
vt 0.430880278 0.533446074
vt 0.42691195 0.529477835
vt 0.422339737 0.532139719
vt 0.131565884 0.850768328
vt 0.133658767 0.822485447
vt 0.118954986 0.855651736
vt 0.154533267 0.840522587
vt 0.164372817 0.837470889
vt 0.210120872 0.820180535
vt 0.0215540342 0.891133428
vt 0.0423048362 0.825239301
vt 0.00496385619 0.897381365
vt 0.206928968 0.791858912
vt 0.0277027525 0.732779086
vt 0.0405541286 0.791575551
vt 0.211473614 0.788792312
vt 0.235528886 0.776804626
vt 0.0277027525 0.732779086
vt 0.211473614 0.788792312
vt 0.236730352 0.776326299
vt 0.275747627 0.764519453
vt 0.0357932895 0.724812388
vt 0.0647942424 0.714245319
vt 0.115165234 0.692109406
vt 0.12783663 0.688281298
vt 0.241205901 0.666290164
vt 0.201437324 0.672767341
vt 0.133320898 0.685027957
vt 0.251332939 0.661869109
vt 0.303455085 0.751724958
vt 0.380367428 0.719050348
vt 0.271124512 0.653277755
vt 0.315311462 0.625177383
vt 0.420062006 0.698788404
vt 0.326177955 0.619168401
vt 0.333078623 0.616537631
vt 0.349955857 0.611527681
vt 0.420834601 0.651739895
vt 0.376340747 0.622348666
vt 0.365193725 0.607004523
vt 0.435171068 0.658372402
vt 0.448482007 0.689098299
vt 0.258781582 0.769392371
vt 0.0277027525 0.732779086
vt 0.236730352 0.776326299
vt 0.275747627 0.764519453
vt 0.458311915 0.665291667
vt 0.455888808 0.681664705
vt 0.463605255 0.666948438
vt 0.448482007 0.689098299
vt 0.435171068 0.658372402
vt 0.832649171 0.0283008534
vt 0.900056541 0.00200000009
vt 0.836738229 0.0044301087
vt 0.835131943 0.062248908
vt 0.835781813 0.0708349422
vt 0.879180789 0.0823442936
vt 0.835781813 0.0708349422
vt 0.831200361 0.0841857642
vt 0.887349248 0.0761815012
vt 0.900056541 0.00200000009
vt 0.296754837 0.133343235
vt 0.244936734 0.12469206
vt 0.280597597 0.135309681
vt 0.304348499 0.131228387
vt 0.233511403 0.106312335
vt 0.16700983 0.0818423033
vt 0.16700983 0.0818423033
vt 0.243357599 0.124367565
vt 0.244936734 0.12469206
vt 0.23812294 0.122039944
vt 0.226838261 0.11869964
vt 0.172338381 0.10540989
vt 0.16231066 0.10417968
vt 0.150350958 0.0767595991
vt 0.113639466 0.0679654703
vt 0.0387414545 0.074557431
vt 0.032769002 0.0153956348
vt 0.0246926732 0.0603332035
vt 0.0358820669 0.0198438391
vt 0.0471233651 0.0824552774
vt 0.0471233651 0.0824552774
vt 0.0388204008 0.0201224592
vt 0.0358820669 0.0198438391
vt 0.0615884066 0.0820115581
vt 0.0651129559 0.0821486637
vt 0.0651129559 0.0821486637
vt 0.0420125052 0.021764636
vt 0.0388204008 0.0201224592
vt 0.0829059184 0.0882801116
vt 0.0829059184 0.0882801116
vt 0.0456193313 0.0239315331
vt 0.0420125052 0.021764636
vt 0.100337312 0.095548898
vt 0.100337312 0.095548898
vt 0.0506194271 0.0275213607
vt 0.0456193313 0.0239315331
vt 0.114715472 0.103160739
vt 0.117822915 0.10355176
vt 0.117822915 0.10355176
vt 0.0597596467 0.0349399634
vt 0.0506194271 0.0275213607
vt 0.130140662 0.106589265
vt 0.130140662 0.106589265
vt 0.107186496 0.0670788512
vt 0.0597596467 0.0349399634
vt 0.113639466 0.0679654703
vt 0.150609523 0.10360612
vt 0.16231066 0.10417968
vn 0.253783971 -0.960343897 -0.115469575
vn 0.253784001 -0.960343897 -0.115469575
vn 0.253784001 -0.960343897 -0.115469575
vn -0.0283127464 -1.18614407E-05 -0.999599159
vn -0.0283127464 -1.18614416E-05 -0.999599159
vn -0.0283127464 -1.18614416E-05 -0.999599159
vn -0.459719539 -0.429381847 -0.77736038
vn -0.459719568 -0.429381877 -0.77736032
vn -0.459719509 -0.429381877 -0.77736032
vn -0.0194224548 -0.0011339878 -0.999810755
vn -0.0194224566 -0.00113398791 -0.999810755
vn -0.0194224566 -0.00113398791 -0.999810755
vn -0.0819749758 -0.0202089474 -0.996429503
vn -0.0819749758 -0.0202089492 -0.996429503
vn -0.0819749683 -0.0202089474 -0.996429503
vn 0.718601227 -0.370286942 0.588642478
vn 0.710282445 -0.52746582 0.466131717
vn 0.784068167 -0.457288831 0.419671267
vn 0.616754174 -0.230275974 0.752719939
vn 0.685206532 -0.177042246 0.706504107
vn 0.582807422 -0.161960199 0.796306729
vn 0.582807481 -0.161960199 0.79630667
vn 0.71216774 -0.291225165 0.638752699
vn 0.545176089 -0.348013192 0.762672782
vn 0.542691886 -0.317405283 0.777649879
vn 0.360354155 -0.278466851 0.890281379
vn 0.364776433 -0.275549889 0.889387608
vn 0.372857034 -0.270181358 0.88768214
vn 0.399077356 -0.328316629 0.856122375
vn 0.700748861 -0.414969146 0.580302954
vn 0.784068167 -0.457288831 0.419671267
vn 0.702318192 -0.400602132 0.588444591
vn 0.648106933 -0.290753871 0.703860521
vn 0.40404734 -0.339672089 0.8493343
vn 0.48809886 -0.282923996 0.825659513
vn 0.710236132 -0.393515229 0.583704054
vn 0.703949928 -0.372027159 0.60502094
vn 0.710142314 -0.393456161 0.583857954
vn 0.710273802 -0.393538594 0.583642364
vn 0.665874004 -0.267482966 0.69646585
vn 0.665874064 -0.267483115 0.69646579
vn 0.619476736 -0.307107419 0.72244972
vn 0.695896149 -0.389767557 0.603166521
vn 0.694133282 -0.169417366 0.699626088
vn 0.673696518 -0.128588751 0.727734804
vn 0.48809886 -0.282923996 0.825659513
vn 0.673696816 -0.128588244 0.727734685
vn 0.673696578 -0.128588691 0.727734745
vn 0.67369616 -0.12858887 0.727735043
vn 0.673696816 -0.128588527 0.727734566
vn 0.67369628 -0.12858893 0.727734983
vn 0.673696458 -0.128588691 0.727734804
vn 0.673696637 -0.128588498 0.727734685
vn 0.673697054 -0.128588259 0.727734447
vn 0.673696876 -0.128588378 0.727734506
vn -0.462673038 -0.838959873 0.286496043
vn -0.462673098 -0.838959873 0.286496043
vn -0.462673098 -0.838959873 0.286496043
vn -0.462673038 -0.838959873 0.286496043
vn -0.682221174 0.672635853 0.286592454
vn -0.699792683 0.702346683 0.130381614
vn -0.612514794 0.770364523 0.177099347
vn -0.759553492 0.629115701 0.165202633
vn -0.800889432 0.517911196 0.300573051
vn -0.829465866 0.444311768 0.33848691
vn -0.801038325 0.50739342 0.317630917
vn -0.723569632 0.585090518 0.366218716
vn -0.840808809 0.415266693 0.347266704
vn -0.571861267 0.689961672 0.443765104
vn -0.863802314 0.36486277 0.347448975
vn -0.697476923 0.598536849 0.394055218
vn -0.727774799 0.585742176 0.356721073
vn -0.811600685 0.543507099 0.214253008
vn -0.805384219 0.42594552 0.41222176
vn -0.761545002 0.509534538 0.400529385
vn -0.79363817 0.50282234 0.342502624
vn -0.842481971 0.481726706 0.241171151
vn -0.756062031 0.609752357 0.237849206
vn -0.737245321 0.562533081 0.374200374
vn -0.731907547 0.63291961 0.252436548
vn -0.731907666 0.632919431 0.252436548
vn -0.724274337 0.462999403 0.510938525
vn -0.69811672 0.519090712 0.493130654
vn -0.685966313 0.542568982 0.48483929
vn -0.685968757 0.54256779 0.484837234
vn -0.685968757 0.54256779 0.484837264
vn -0.685968757 0.54256779 0.484837323
vn -0.780541897 0.460555196 0.422662109
vn -0.743973315 0.513225079 0.427906096
vn -0.833240271 0.398462892 0.383324891
vn -0.740146816 0.522059083 0.423836052
vn -0.833239198 0.398464352 0.383325815
vn -0.833239257 0.398464024 0.383325756
vn -0.692265689 0.662612498 0.285854459
vn -0.557173193 0.805117309 0.203332916
vn -0.557173729 0.80511713 0.203332052
vn -0.612514794 0.770364523 0.177099347
vn -0.725945234 0.548152626 0.415370077
vn -0.725934803 0.548021197 0.415561616
vn -0.725836933 0.546810508 0.41732347
vn -0.725837231 0.546810985 0.417322427
vn -0.725969136 0.548452973 0.414931566
vn -0.762009382 0.514629304 0.393062741
vn -0.776399314 0.500695407 0.382763863
vn -0.859721184 0.398131579 0.319954246
vn -0.859722733 0.398131609 0.319949925
vn -0.859717548 0.398132265 0.319963068
vn -0.0105374232 0.902074575 0.431451589
vn 0.0531372949 0.934926331 0.350840688
vn -0.0779292285 0.909967661 0.407290906
vn 0.258577317 0.816462517 0.516262233
vn 0.347038865 0.742443264 0.573011398
vn 0.38874042 0.649746954 0.653230309
vn 0.482929468 0.645442545 0.591762781
vn 0.368461013 0.729317546 0.576482892
vn 0.49362424 0.644397736 0.584026277
vn 0.493624896 0.644396484 0.584027112
vn 0.146784738 0.920327127 0.362563491
vn 0.0531372949 0.934926331 0.350840688
vn 0.123158023 0.94024539 0.317443997
vn 0.123157702 0.940245509 0.317443877
vn 0.123157851 0.940245509 0.317443848
vn 0.123157941 0.940245509 0.317443848
vn 0.123157814 0.940245509 0.317443788
vn 0.125077203 0.939809203 0.31798473
vn 0.128642291 0.938988447 0.31898582
vn 0.132653579 0.938048244 0.320107162
vn 0.256154358 -0.959416807 -0.117916889
vn 0.256154358 -0.959416807 -0.117916897
vn 0.256154358 -0.959416807 -0.117916897
vn 0.256153375 -0.959417224 -0.117915444
vn 0.256153107 -0.959417343 -0.117914774
vn 0.257581949 -0.958304226 -0.123711571
vn 0.218915924 -0.968612432 -0.117753081
vn 0.218915924 -0.968612432 -0.117753074
vn 0.21891591 -0.968612432 -0.117753074
vn -0.0237466414 -0.018340189 -0.999549687
vn -0.0237466414 -0.018340189 -0.999549687
vn -0.0237466432 -0.0183401909 -0.999549687
vn -0.0240341816 -0.0483052246 -0.998543382
vn -0.0241895244 -0.0246135723 -0.999404311
vn -0.0241895225 -0.0246135723 -0.999404311
vn -0.0241895244 -0.0246135723 -0.999404311
vn -0.0243784357 -0.0231186096 -0.999435365
vn -0.0209236201 -0.0306522064 -0.99931109
vn -0.0209236201 -0.0306522045 -0.99931109
vn -0.0209235847 -0.0306523554 -0.99931109
vn -0.0209235959 -0.0306522716 -0.99931109
vn -0.0209235996 -0.0306523126 -0.99931109
vn -0.020923283 -0.0306525454 -0.99931109
vn -0.0209236946 -0.0306521747 -0.99931109
vn -0.0209236946 -0.0306521729 -0.99931109
vn -0.020923622 -0.0306522865 -0.99931109
vn -0.0142654534 -0.0260613877 -0.999558508
vn -0.0142654935 -0.0260614324 -0.999558508
vn -0.014265459 -0.0260613915 -0.999558508
vn -0.0142655708 -0.0260616597 -0.999558508
vn -0.0142654479 -0.026061371 -0.999558508
vn -0.0142652579 -0.0260609724 -0.999558508
vn -0.014265432 -0.0260613039 -0.999558508
vn -0.0142656676 -0.0260616317 -0.999558508
vn -0.0142657347 -0.0260625668 -0.999558508
vn -0.0142656667 -0.0260616317 -0.999558508
vn -0.0142656667 -0.0260616299 -0.999558508
vn -0.0142654488 -0.0260613747 -0.999558508
vn -0.0142654497 -0.0260613728 -0.999558508
vn -0.0252689142 -0.0163271315 -0.999547303
vn -0.025268916 -0.0163271334 -0.999547303
vn -0.025268916 -0.0163271334 -0.999547303
vn -0.0257198457 -0.0143291028 -0.999566495
vn 0.0406820998 0.0235920325 -0.998893559
vn 0.0406820998 0.0235920306 -0.998893559
vn 0.0406820998 0.0235920325 -0.998893559
vn 0.0406827107 0.0235921461 -0.998893559
vn 0.0406824611 0.0235921759 -0.998893559
vn -0.522571623 -0.797464192 0.301612109
vn -0.522571623 -0.797464192 0.301612109
vn -0.522571564 -0.797464192 0.301612079
vn -0.522571623 -0.797464192 0.301611841
vn -0.522570372 -0.797464669 0.301612824
vn -0.259919554 -0.862806499 0.433597356
vn -0.259919554 -0.862806499 0.433597296
vn -0.259919554 -0.862806499 0.433597356
vn -0.259919316 -0.862805903 0.433598727
vn -0.259919703 -0.862806499 0.433597177
vn -0.0355638601 -0.0185045172 0.999196112
vn -0.0355638564 -0.0185045153 0.999196112
vn -0.0355638601 -0.0185045172 0.999196112
vn -0.035563875 -0.0185044929 0.999196112
vn -0.0355638303 -0.0185045786 0.999196112
vn -0.035563834 -0.018504573 0.999196112
vn -0.0278010182 -0.0208049025 0.99939692
vn -0.0278010201 -0.0208049044 0.99939692
vn -0.0278010182 -0.0208049044 0.99939692
vn -0.0278027151 -0.0208044164 0.99939692
vn -0.0278026052 -0.0208044443 0.99939692
vn -0.0278022904 -0.020804517 0.99939692
vn -0.0278022252 -0.0208044685 0.99939692
vn -0.0278022718 -0.0208045393 0.99939692
vn -0.0278022792 -0.020804543 0.99939692
vn 0.177653655 0.0296795797 0.983645439
vn 0.17765367 0.0296795778 0.983645439
vn 0.177653655 0.0296795778 0.983645439
vn 0.177653715 0.0296796765 0.98364532
vn 0.178152472 0.030387843 0.983533561
vn 0.202449948 0.0536175221 0.977823734
vn 0.202449948 0.0536175221 0.977823734
vn 0.202449962 0.0536175296 0.977823734
vn 0.202449471 0.0536170416 0.977823853
vn 0.202449992 0.0536174476 0.977823734
vn 0.128547058 2.749136E-05 0.991703391
vn 0.128547058 2.74913618E-05 0.991703391
vn 0.128547058 2.74913618E-05 0.991703391
vn 0.128546968 2.7441416E-05 0.991703391
vn 0.113843717 -0.00749970367 0.993470311
vn 0.113843717 -0.00749970321 0.993470311
vn 0.113843732 -0.00749970414 0.993470311
vn 0.113843717 -0.00749970879 0.993470311
vn 0.0906902701 -0.0158426184 0.995753169
vn 0.0906902701 -0.0158426184 0.995753169
vn 0.0906902775 -0.0158426203 0.995753169
vn 0.0906903222 -0.0158425998 0.995753169
vn 0.0906911865 -0.0158423688 0.99575305
vn 0.0445070677 -0.0263468642 0.998661637
vn 0.0445070677 -0.0263468642 0.998661637
vn 0.0445070714 -0.0263468642 0.998661637
vn 0.0445072614 -0.0263468083 0.998661637
vn 0.0336467959 -0.0274485927 0.999056756
vn 0.0336467959 -0.0274485927 0.999056756
vn 0.0336467996 -0.0274485927 0.999056756
vn 0.0336470865 -0.0274484586 0.999056756
vn 0.0336467959 -0.0274486486 0.999056756
vn 0.033647038 -0.0274486318 0.999056756
g shikuai_frag_005_0
f 3/3/3 2/2/2 1/1/1
f 6/6/6 5/5/5 4/4/4
f 9/9/9 8/8/8 7/7/7
f 12/12/12 11/11/11 10/10/10
f 15/15/15 14/14/14 13/13/13
f 18/18/18 17/17/17 16/16/16
f 19/19/19 16/16/16 17/17/17
f 20/20/20 16/16/16 19/19/19
f 21/21/21 20/20/20 19/19/19
f 22/22/22 21/21/21 19/19/19
f 23/23/23 16/16/16 20/20/20
f 16/16/16 23/23/23 24/24/24
f 23/23/23 25/25/25 24/24/24
f 24/24/24 25/25/25 26/26/26
f 27/27/27 24/24/24 26/26/26
f 27/27/27 28/28/28 24/24/24
f 29/29/29 24/24/24 28/28/28
f 16/16/16 24/24/24 30/30/30
f 31/31/31 16/16/16 30/30/30
f 24/24/24 32/32/32 30/30/30
f 24/24/24 29/29/29 33/33/33
f 32/32/32 24/24/24 33/33/33
f 29/29/29 34/34/34 33/33/33
f 34/34/34 35/35/35 33/33/33
f 36/36/36 32/32/32 33/33/33
f 37/37/37 36/36/36 33/33/33
f 38/38/38 36/36/36 37/37/37
f 39/39/39 36/36/36 38/38/38
f 40/40/40 37/37/37 33/33/33
f 41/41/41 40/40/40 33/33/33
f 42/42/42 41/41/41 33/33/33
f 42/42/42 33/33/33 43/43/43
f 44/44/44 43/43/43 33/33/33
f 44/44/44 33/33/33 45/45/45
f 33/33/33 46/46/46 45/45/45
f 47/47/47 44/44/44 45/45/45
f 48/48/48 47/47/47 45/45/45
f 49/49/49 48/48/48 45/45/45
f 50/50/50 48/48/48 49/49/49
f 51/51/51 48/48/48 50/50/50
f 52/52/52 48/48/48 51/51/51
f 53/53/53 48/48/48 52/52/52
f 54/54/54 53/53/53 52/52/52
f 55/55/55 53/53/53 54/54/54
f 58/58/58 57/57/57 56/56/56
f 59/59/59 56/56/56 57/57/57
f 62/62/62 61/61/61 60/60/60
f 61/61/61 63/63/63 60/60/60
f 63/63/63 64/64/64 60/60/60
f 60/60/60 64/64/64 65/65/65
f 66/66/66 60/60/60 65/65/65
f 67/67/67 60/60/60 66/66/66
f 65/65/65 64/64/64 68/68/68
f 69/69/69 60/60/60 67/67/67
f 70/70/70 65/65/65 68/68/68
f 71/71/71 60/60/60 69/69/69
f 72/72/72 60/60/60 71/71/71
f 71/71/71 73/73/73 72/72/72
f 74/74/74 70/70/70 68/68/68
f 75/75/75 72/72/72 73/73/73
f 76/76/76 70/70/70 74/74/74
f 70/70/70 76/76/76 77/77/77
f 78/78/78 77/77/77 76/76/76
f 76/76/76 79/79/79 78/78/78
f 78/78/78 79/79/79 80/80/80
f 79/79/79 81/81/81 80/80/80
f 79/79/79 76/76/76 82/82/82
f 76/76/76 83/83/83 82/82/82
f 74/74/74 83/83/83 76/76/76
f 84/84/84 83/83/83 74/74/74
f 85/85/85 84/84/84 74/74/74
f 86/86/86 85/85/85 74/74/74
f 87/87/87 85/85/85 86/86/86
f 72/72/72 75/75/75 88/88/88
f 88/88/88 75/75/75 89/89/89
f 72/72/72 88/88/88 90/90/90
f 75/75/75 91/91/91 89/89/89
f 92/92/92 72/72/72 90/90/90
f 93/93/93 72/72/72 92/92/92
f 94/94/94 72/72/72 93/93/93
f 60/60/60 72/72/72 94/94/94
f 95/95/95 60/60/60 94/94/94
f 96/96/96 60/60/60 95/95/95
f 97/97/97 60/60/60 96/96/96
f 91/91/91 98/98/98 89/89/89
f 99/99/99 98/98/98 91/91/91
f 99/99/99 100/100/100 98/98/98
f 101/101/101 98/98/98 100/100/100
f 102/102/102 99/99/99 91/91/91
f 103/103/103 102/102/102 91/91/91
f 104/104/104 103/103/103 91/91/91
f 105/105/105 103/103/103 104/104/104
f 106/106/106 105/105/105 104/104/104
f 107/107/107 105/105/105 106/106/106
f 110/110/110 109/109/109 108/108/108
f 109/109/109 111/111/111 108/108/108
f 108/108/108 111/111/111 112/112/112
f 112/112/112 111/111/111 113/113/113
f 114/114/114 113/113/113 111/111/111
f 114/114/114 111/111/111 115/115/115
f 116/116/116 114/114/114 115/115/115
f 117/117/117 116/116/116 115/115/115
f 111/111/111 118/118/118 115/115/115
f 118/118/118 111/111/111 119/119/119
f 120/120/120 118/118/118 119/119/119
f 121/121/121 118/118/118 120/120/120
f 122/122/122 118/118/118 121/121/121
f 123/123/123 118/118/118 122/122/122
f 124/124/124 123/123/123 122/122/122
f 125/125/125 123/123/123 124/124/124
f 126/126/126 123/123/123 125/125/125
f 127/127/127 126/126/126 125/125/125
f 130/130/130 129/129/129 128/128/128
f 128/128/128 129/129/129 131/131/131
f 131/131/131 129/129/129 132/132/132
f 129/129/129 133/133/133 132/132/132
f 135/135/135 129/129/129 134/134/134
f 136/136/136 135/135/135 134/134/134
f 139/139/139 138/138/138 137/137/137
f 137/137/137 138/138/138 140/140/140
f 143/143/143 142/142/142 141/141/141
f 141/141/141 142/142/142 144/144/144
f 142/142/142 146/146/146 145/145/145
f 146/146/146 147/147/147 145/145/145
f 147/147/147 148/148/148 145/145/145
f 148/148/148 149/149/149 145/145/145
f 149/149/149 150/150/150 145/145/145
f 151/151/151 150/150/150 149/149/149
f 152/152/152 151/151/151 149/149/149
f 150/150/150 153/153/153 145/145/145
f 153/153/153 154/154/154 145/145/145
f 155/155/155 154/154/154 153/153/153
f 156/156/156 155/155/155 153/153/153
f 157/157/157 155/155/155 156/156/156
f 158/158/158 155/155/155 157/157/157
f 159/159/159 158/158/158 157/157/157
f 160/160/160 158/158/158 159/159/159
f 161/161/161 158/158/158 160/160/160
f 162/162/162 158/158/158 161/161/161
f 163/163/163 162/162/162 161/161/161
f 164/164/164 163/163/163 161/161/161
f 165/165/165 158/158/158 162/162/162
f 166/166/166 158/158/158 165/165/165
f 169/169/169 168/168/168 167/167/167
f 167/167/167 168/168/168 170/170/170
f 173/173/173 172/172/172 171/171/171
f 172/172/172 174/174/174 171/171/171
f 171/171/171 174/174/174 175/175/175
f 178/178/178 177/177/177 176/176/176
f 176/176/176 177/177/177 179/179/179
f 177/177/177 180/180/180 179/179/179
f 183/183/183 182/182/182 181/181/181
f 181/181/181 182/182/182 184/184/184
f 184/184/184 182/182/182 185/185/185
f 188/188/188 187/187/187 186/186/186
f 186/186/186 187/187/187 189/189/189
f 189/189/189 187/187/187 190/190/190
f 190/190/190 187/187/187 191/191/191
f 194/194/194 193/193/193 192/192/192
f 193/193/193 195/195/195 192/192/192
f 195/195/195 196/196/196 192/192/192
f 196/196/196 197/197/197 192/192/192
f 197/197/197 198/198/198 192/192/192
f 192/192/192 198/198/198 199/199/199
f 198/198/198 200/200/200 199/199/199
f 203/203/203 202/202/202 201/201/201
f 202/202/202 204/204/204 201/201/201
f 201/201/201 204/204/204 205/205/205
f 208/208/208 207/207/207 206/206/206
f 206/206/206 207/207/207 209/209/209
f 209/209/209 207/207/207 210/210/210
f 213/213/213 212/212/212 211/211/211
f 211/211/211 212/212/212 214/214/214
f 217/217/217 216/216/216 215/215/215
f 215/215/215 216/216/216 218/218/218
f 221/221/221 220/220/220 219/219/219
f 219/219/219 220/220/220 222/222/222
f 222/222/222 220/220/220 223/223/223
f 226/226/226 225/225/225 224/224/224
f 224/224/224 225/225/225 227/227/227
f 230/230/230 229/229/229 228/228/228
f 229/229/229 231/231/231 228/228/228
f 228/228/228 231/231/231 232/232/232
f 232/232/232 231/231/231 233/233/233
