g shikuai_frag_017
v 0.0882171988 -0.33889699 0.625192285
v 0.213471442 -0.61406821 0.579911709
v 0.208202183 -0.63308686 0.625192165
v 0.197286606 -0.342579305 0.251269668
v 0.218366355 -0.599207222 0.54502219
v 0.310962349 -0.592635334 0.265222907
v -0.00262871385 -0.1260373 0.625192344
v 0.351944387 -0.546597958 0.0816619247
v -0.00942933559 -0.0357832611 0.514861405
v -0.0423139632 -0.0347965062 0.625192344
v -0.07271716 0.085646823 0.625192404
v 0.146065861 0.301087677 0.244438589
v -0.0725982189 0.286466926 0.625192463
v -0.0351661146 0.613238752 0.521978498
v 0.236957908 0.624829292 -0.0610211715
v 0.503079236 0.330084562 -0.292129964
v -0.077161938 0.353911519 0.625192523
v -0.0863758326 0.490079731 0.625192642
v -0.0959226489 0.609010041 0.625192702
v -0.0944252014 0.727724671 0.625192821
v 0.436798453 0.0114807338 0.0267405882
v 0.454716921 -0.318419516 -0.0823034123
v 0.379568994 -0.522334814 0.0428128242
v 0.422459543 -0.489961386 -0.0167586338
v 0.522294462 -0.160254359 -0.130571619
v 0.503686726 0.00867681205 -0.211315915
v 0.516993761 0.289539993 -0.331334531
v 0.524060369 0.309143513 -0.337738007
v 0.528889239 0.33169353 -0.339037567
v 0.519152761 0.394699931 -0.354753613
v 0.309906751 0.630461395 -0.175404713
v 0.503937006 0.468451083 -0.375136584
v 0.261243701 0.67578131 -0.109166436
v 0.2583175 0.676861942 -0.104846075
v 0.208221704 0.691204667 0.0011972487
v 0.0182059407 0.74491179 0.408885598
v -0.00221920013 0.751842141 0.447381079
v -0.0284410119 0.770609975 0.495794594
v -0.091701746 0.815639913 0.612614334
v -0.096370995 0.738797903 0.628041744
v -0.0981269777 0.811809957 0.625192761
v -0.00221920013 0.751842141 0.447381079
v -0.0411297679 0.790604711 0.430710286
v -0.00278145075 0.766004086 0.336820006
v -0.0284410119 0.770609975 0.495794594
v -0.091701746 0.815639913 0.612614334
v -0.096370995 0.738797903 0.628041744
v -0.134261966 0.743185461 0.625192761
v -0.0981269777 0.811809957 0.625192761
v -0.0944252014 0.727724671 0.625192821
v -0.136916935 0.738143325 0.625192761
v -0.0959226489 0.609010041 0.625192702
v -0.189068496 0.611707509 0.625192642
v -0.0863758326 0.490079731 0.625192642
v -0.077161938 0.353911519 0.625192523
v -0.201053679 0.582650542 0.625192642
v -0.293052256 0.38114664 0.625192523
v -0.0725982189 0.286466926 0.625192463
v -0.07271716 0.085646823 0.625192404
v -0.0423139632 -0.0347965062 0.625192344
v -0.440533102 -0.0949091911 0.625192404
v -0.00262871385 -0.1260373 0.625192344
v 0.0882171988 -0.33889699 0.625192285
v -0.489479005 -0.549550951 0.625192165
v 0.208202183 -0.63308686 0.625192165
v -0.528889239 -0.815639913 0.625192046
v -0.30608958 -0.210444689 -0.222204223
v -0.351035714 -0.316811144 0.23374036
v -0.432760298 -0.442905486 -0.095041804
v -0.0582274199 0.21825701 -0.0209668279
v -0.0829585195 0.0604731441 -0.370403737
v -0.209313691 0.547765017 0.545734048
v -0.293052256 0.38114664 0.625192523
v -0.440533102 -0.0949091911 0.625192404
v -0.201053679 0.582650542 0.625192642
v -0.189068496 0.611707509 0.625192642
v -0.489479005 -0.549550951 0.625192165
v -0.136916935 0.738143325 0.625192761
v 0.117372155 0.710024536 -0.256882846
v -0.00411009789 0.278236926 -0.48952651
v 0.111127019 0.758803189 -0.10040684
v 0.11719203 0.706888199 -0.268017948
v 0.0702658892 0.745354712 0.180151165
v 0.114620686 0.684697688 -0.329357982
v -0.00155770779 0.312101275 -0.508051217
v 0.0300213993 0.606176257 -0.628041744
v -0.00278145075 0.766004086 0.336820006
v -0.0411297679 0.790604711 0.430710286
v -0.091701746 0.815639913 0.612614334
v -0.134261966 0.743185461 0.625192761
v -0.0981269777 0.811809957 0.625192761
v -0.432760298 -0.442905486 -0.095041804
v -0.459398925 -0.588484824 0.0885203779
v -0.471230567 -0.586011946 -0.0167585909
v -0.459712505 -0.59912461 0.115519866
v -0.450354934 -0.718749344 0.427235097
v -0.492801666 -0.77797693 0.551762938
v -0.528889239 -0.815639913 0.625192046
v -0.459398925 -0.588484824 0.0885203779
v 0.290256977 -0.586012185 -0.0167585909
v -0.471230567 -0.586011946 -0.0167585909
v 0.310962349 -0.592635334 0.265222907
v 0.218366355 -0.599207222 0.54502219
v -0.459712505 -0.59912461 0.115519866
v 0.218366355 -0.599207222 0.54502219
v -0.450354934 -0.718749344 0.427235097
v 0.213471442 -0.61406821 0.579911709
v 0.208202183 -0.63308686 0.625192165
v -0.492801666 -0.77797693 0.551762938
v -0.528889239 -0.815639913 0.625192046
v 0.351944387 -0.546597958 0.0816619247
v 0.290256977 -0.586012185 -0.0167585909
v 0.379568994 -0.522334814 0.0428128242
v 0.422459543 -0.489961386 -0.0167586338
v -0.00155770779 0.312101275 -0.508051217
v 0.158990085 0.574382544 -0.572503448
v 0.0300213993 0.606176257 -0.628041744
v 0.524060369 0.309143513 -0.337738007
v 0.516993761 0.289539993 -0.331334531
v 0.503686726 0.00867681205 -0.211315915
v 0.522294462 -0.160254359 -0.130571619
v 0.454716921 -0.318419516 -0.0823034123
v 0.422459543 -0.489961386 -0.0167586338
v 0.290256977 -0.586012185 -0.0167585909
v -0.00278145075 0.766004086 0.336820006
v 0.0182059407 0.74491179 0.408885598
v -0.00221920013 0.751842141 0.447381079
v 0.208221704 0.691204667 0.0011972487
v 0.0702658892 0.745354712 0.180151165
v 0.111127019 0.758803189 -0.10040684
v 0.2583175 0.676861942 -0.104846075
v 0.261243701 0.67578131 -0.109166436
v 0.117372155 0.710024536 -0.256882846
v 0.11719203 0.706888199 -0.268017948
v 0.309906751 0.630461395 -0.175404713
v 0.282612711 0.549687028 -0.504013598
v 0.503937006 0.468451083 -0.375136584
v 0.114620686 0.684697688 -0.329357982
v 0.158990085 0.574382544 -0.572503448
v 0.0300213993 0.606176257 -0.628041744
v 0.290256977 -0.586012185 -0.0167585909
v -0.432760298 -0.442905486 -0.095041804
v -0.471230567 -0.586011946 -0.0167585909
v -0.30608958 -0.210444689 -0.222204223
v -0.0829585195 0.0604731441 -0.370403737
v -0.00411009789 0.278236926 -0.48952651
v -0.00155770779 0.312101275 -0.508051217
v 0.519152761 0.394699931 -0.354753613
v 0.524060369 0.309143513 -0.337738007
v 0.528889239 0.33169353 -0.339037567
v 0.503937006 0.468451083 -0.375136584
v 0.282612711 0.549687028 -0.504013598
v 0.158990085 0.574382544 -0.572503448
vt 0.329835296 0.3888129
vt 0.29488799 0.406962395
vt 0.296943754 0.412780106
vt 0.29488799 0.353865594
vt 0.29327324 0.40243718
vt 0.267299205 0.375113636
vt 0.353865594 0.371574491
vt 0.25508517 0.353865594
vt 0.353865594 0.353865594
vt 0.364208817 0.364208817
vt 0.37656644 0.353865564
vt 0.353865594 0.29488799
vt 0.394176662 0.335199028
vt 0.412843227 0.29488799
vt 0.353865594 0.235910401
vt 0.29488799 0.235910401
vt 0.40035978 0.329059929
vt 0.412843227 0.316665232
vt 0.423837602 0.305882365
vt 0.433984876 0.294987112
vt 0.29488799 0.29488799
vt 0.256665528 0.315643132
vt 0.25265345 0.347486854
vt 0.248469636 0.338139832
vt 0.262914777 0.29488799
vt 0.272748709 0.272748709
vt 0.287554592 0.235910401
vt 0.288375288 0.233337626
vt 0.289971262 0.230993643
vt 0.29488796 0.224055707
vt 0.341434211 0.223479018
vt 0.300719321 0.215871602
vt 0.353272527 0.226342604
vt 0.353865594 0.226696745
vt 0.366072118 0.235910386
vt 0.412720025 0.271398872
vt 0.417434573 0.27464655
vt 0.424277037 0.277811438
vt 0.440764546 0.285471708
vt 0.435462475 0.294076592
vt 0.441755772 0.287092507
vt 0.518863916 0.586459935
vt 0.525469661 0.584787071
vt 0.518863916 0.573016882
vt 0.523367167 0.592587948
vt 0.534233093 0.607616246
vt 0.0390319377 0.558743417
vt 0.0377277061 0.554952383
vt 0.0311370399 0.558811247
vt 0.040266186 0.558901906
vt 0.0382813215 0.554674208
vt 0.0542945005 0.558452785
vt 0.0524063446 0.549140513
vt 0.0685675815 0.559110701
vt 0.0848805457 0.559692144
vt 0.0553736798 0.548046589
vt 0.0757012963 0.539636075
vt 0.0926802754 0.56015873
vt 0.115518302 0.560275972
vt 0.130074039 0.563174903
vt 0.125693679 0.526251078
vt 0.141569704 0.566916704
vt 0.16833958 0.575484753
vt 0.176026106 0.521998227
vt 0.205180764 0.586809516
vt 0.205181018 0.518510163
vt 0.378528416 0.378528416
vt 0.340674818 0.425843477
vt 0.340674818 0.380455136
vt 0.425843507 0.425843507
vt 0.425843537 0.376136303
vt 0.425843507 0.511012256
vt 0.399630815 0.511012256
vt 0.340674639 0.484316707
vt 0.425843507 0.522253335
vt 0.429567724 0.523876905
vt 0.28829515 0.458632588
vt 0.445772856 0.530941606
vt 0.500198185 0.425843477
vt 0.459591568 0.374422789
vt 0.497042716 0.446889997
vt 0.500433385 0.42436564
vt 0.478961885 0.478961885
vt 0.501117706 0.415948927
vt 0.464427114 0.374175876
vt 0.50465405 0.376785755
vt 0.469838649 0.498575568
vt 0.465954483 0.511012256
vt 0.456935257 0.533776343
vt 0.446443498 0.531222165
vt 0.45557186 0.535040975
vt 0.340674818 0.380455136
vt 0.313700676 0.393696219
vt 0.319052219 0.381562948
vt 0.311078608 0.396247298
vt 0.281730115 0.425843507
vt 0.266773611 0.43711099
vt 0.257179379 0.443623543
vt 0.503765583 0.762858748
vt 0.639793038 0.722581565
vt 0.503021002 0.722581625
vt 0.639814377 0.830460787
vt 0.619514227 0.937505066
vt 0.505327821 0.773188055
vt 0.619514227 0.937505007
vt 0.525061667 0.892442822
vt 0.620945871 0.950852931
vt 0.622945607 0.968176246
vt 0.526904941 0.940084219
vt 0.526545465 0.968176484
vt 0.649458468 0.760221601
vt 0.639793158 0.722581565
vt 0.654860258 0.745351493
vt 0.669079483 0.722581506
vt 0.581058264 0.197199047
vt 0.62388736 0.132590756
vt 0.591444612 0.106894225
vt 0.714304745 0.261407971
vt 0.712354422 0.266830683
vt 0.706707895 0.35510692
vt 0.710059047 0.411405474
vt 0.691644967 0.453885764
vt 0.682078183 0.504897714
vt 0.647781074 0.519722819
vt 0.518863976 0.573016942
vt 0.51580894 0.582222939
vt 0.518864036 0.586460114
vt 0.487322807 0.532355011
vt 0.507913113 0.55384922
vt 0.501636982 0.518863976
vt 0.479813814 0.519385874
vt 0.479376644 0.518863976
vt 0.496949852 0.498184443
vt 0.496708006 0.496708006
vt 0.470633149 0.510465801
vt 0.466725141 0.466725141
vt 0.437321782 0.485507816
vt 0.495288014 0.48847118
vt 0.482028216 0.456352532
vt 0.49845475 0.447661698
vt 0.647781074 0.519722879
vt 0.482462645 0.468331099
vt 0.473666251 0.519722462
vt 0.51142627 0.384851605
vt 0.562445641 0.287561774
vt 0.580474555 0.209360093
vt 0.581058204 0.197198987
vt 0.718677521 0.240454987
vt 0.714304745 0.261407971
vt 0.717276812 0.25700295
vt 0.719182312 0.22038801
vt 0.658943534 0.160945103
vt 0.6238873 0.132590696
vn 0.8917858 0.372759432 0.256453961
vn 0.891630828 0.369645566 0.261451066
vn 0.894750595 0.364922881 0.257396132
vn 0.860171974 0.175620541 0.478812724
vn 0.863422155 0.408991814 0.295343816
vn 0.86342144 0.408992648 0.295344532
vn 0.888059914 0.38114804 0.257052034
vn 0.833912671 0.206755966 0.511704504
vn 0.877173901 0.194116354 0.439186424
vn 0.913027585 0.306281418 0.269392669
vn 0.891082406 0.055113703 0.450482696
vn 0.822768331 0.180868223 0.538831115
vn 0.866337538 0.0287028253 0.498633385
vn 0.879190028 0.0492729954 0.473916739
vn 0.862362623 0.141588762 0.486089975
vn 0.867277741 0.190756306 0.459827572
vn 0.864713192 0.0585113317 0.498846203
vn 0.86317122 0.061123848 0.501197875
vn 0.860875428 0.0295116454 0.507959127
vn 0.88025856 0.0272935685 0.47370857
vn 0.838520348 0.11346899 0.532924354
vn 0.792150021 -0.0708759725 0.606197178
vn 0.785675287 0.0863234326 0.612586677
vn 0.785676062 0.0863227248 0.612586021
vn 0.875016749 -0.00776457693 0.484030366
vn 0.954995215 0.129613385 0.266804546
vn 0.936149359 -0.0182460826 0.351128697
vn 0.867336214 -0.158542112 0.4717969
vn 0.87302959 0.0691506043 0.482739717
vn 0.805420637 0.296844512 0.513011634
vn 0.804684103 0.274019212 0.526684821
vn 0.795083344 0.308373004 0.522253215
vn 0.83550334 0.110395156 0.538281739
vn 0.85934639 0.0734899193 0.506085932
vn 0.905647218 -0.00535788434 0.423998117
vn 0.900257349 0.00893840287 0.435266346
vn 0.885273218 0.0389276147 0.463439226
vn 0.884892821 0.0389979966 0.464159161
vn 0.884988964 0.0391446799 0.463963449
vn 0.887729764 0.0381660499 0.458779961
vn 0.88494128 0.0393902883 0.464033812
vn 0.651055455 0.753289044 0.0931790769
vn 0.683232188 0.724703431 0.0894361138
vn 0.522251844 0.845873833 0.108399399
vn 0.682670414 0.725200176 0.0896982327
vn 0.682340384 0.725491703 0.0898521394
vn -0.0897156373 -0.13394621 0.986919224
vn -0.0357319899 -0.00812834036 0.999328375
vn -0.0706417412 0.0371971875 0.996807992
vn -0.0364578068 -0.0939348713 0.994910538
vn -0 0 1
vn -0 0 1
vn -0 0 1
vn -0 0 1
vn -0 0 1
vn -0 0 1
vn -0 0 1
vn -0 0 1
vn -0 0 1
vn -0 0 1
vn -0 0 1
vn -0 0 1
vn -0 0 1
vn -0 0 1
vn 0.216464296 -0.874013782 0.435020775
vn 0.186557814 -0.753261805 0.630708277
vn -0.859338164 0.510570884 -0.0292453188
vn -0.943270683 0.306157291 -0.128483832
vn -0.910450518 0.407657772 0.0699638799
vn -0.905283928 0.367845803 -0.212486431
vn -0.891104877 0.433912665 -0.132860675
vn -0.886483133 0.373317003 -0.27346316
vn -0.897812605 0.295514584 -0.326502174
vn -0.918245614 0.215618432 -0.332165182
vn -0.916431487 0.392686754 -0.0771389157
vn -0.922105432 0.380344391 -0.0711309388
vn -0.951704621 0.10641747 -0.287982285
vn -0.857053757 0.438692421 -0.270199805
vn -0.951075435 0.293900877 -0.0952766836
vn -0.960909605 0.276674747 0.0101901349
vn -0.951852858 0.279815644 -0.125217184
vn -0.949658096 0.305227488 -0.0706094429
vn -0.888632178 0.33580792 -0.312355429
vn -0.961090326 0.275968552 0.0121161686
vn -0.956255078 0.19254683 0.220231697
vn -0.956255078 0.192547202 0.220230952
vn -0.824077368 0.365895629 -0.432454526
vn -0.834551692 0.397106797 -0.381876618
vn -0.845122457 0.445008278 -0.296201944
vn -0.845118761 0.445002973 -0.29622063
vn -0.845122576 0.445008606 -0.29620114
vn -0.910450518 0.407657772 0.0699638799
vn -0.942217112 0.315263718 0.113294207
vn -0.942216694 0.315264761 0.113294996
vn -0.942357242 0.308932871 0.128542989
vn -0.971760511 0.154090121 -0.178711653
vn -0.934909046 0.120860808 -0.333673149
vn -0.914942801 0.135511681 -0.380153
vn 0.07129509 -0.989067495 -0.129083261
vn 0.26615876 -0.827420056 -0.494505405
vn -0 -0.866736412 -0.498766482
vn 0.0721489042 -0.996980369 -0.0287147444
vn 0.138924986 -0.963487625 -0.228891477
vn 0.224745676 -0.907452106 -0.354992867
vn 0.138924986 -0.963487625 -0.228891477
vn 0.224745825 -0.907452106 -0.354992956
vn 0.22474587 -0.907451987 -0.354993105
vn 0.216464296 -0.874013782 0.435020775
vn 0.22474578 -0.907452106 -0.354992986
vn 0.186557814 -0.753261805 0.630708277
vn 0.606967092 -0.79221195 -0.0631758496
vn 0.26615876 -0.827420056 -0.494505405
vn 0.596019745 -0.802156389 -0.0361333564
vn 0.405245781 -0.557773173 -0.724337578
vn 0.251828074 -0.4001908 -0.88115263
vn 0.304479361 -0.361079067 -0.881427407
vn 0.282086611 -0.388259828 -0.877314806
vn 0.351266503 -0.30118221 -0.88651067
vn 0.282086819 -0.388259798 -0.877314806
vn 0.28208676 -0.388259739 -0.877314925
vn 0.282086819 -0.388259709 -0.877314806
vn 0.282086909 -0.388259679 -0.877314925
vn 0.405245781 -0.557773173 -0.724337578
vn 0.26615876 -0.827420056 -0.494505405
vn 0.522251844 0.845873833 0.108399399
vn 0.493087888 0.863121569 0.109019928
vn 0.651055455 0.753289044 0.0931790769
vn 0.485909343 0.866762757 0.112313829
vn 0.485915244 0.866758883 0.11231833
vn 0.481387556 0.875292778 -0.0461376198
vn 0.48591435 0.866759777 0.112314902
vn 0.471684933 0.868786216 -0.150744408
vn 0.457741886 0.853826761 -0.247895643
vn 0.438806772 0.85878098 -0.264469028
vn 0.457742333 0.853826344 -0.24789615
vn 0.414774626 0.86417079 -0.284905076
vn 0.457742363 0.853826225 -0.247896224
vn 0.357763022 0.873220384 -0.330895454
vn 0.357763231 0.873220384 -0.330895305
vn 0.35776338 0.873220384 -0.330895245
vn 0.26615876 -0.827420056 -0.494505405
vn -0 -0.47991541 -0.877314746
vn -0 -0.866736412 -0.498766482
vn -0 -0.479915231 -0.877314806
vn -0 -0.479915231 -0.877314806
vn -0 -0.479914963 -0.877314985
vn 0.251828074 -0.4001908 -0.88115263
vn 0.456430793 -0.148300111 -0.877312899
vn 0.351266503 -0.30118221 -0.88651067
vn 0.456431359 -0.148300037 -0.877312601
vn 0.456426978 -0.148301035 -0.877314806
vn 0.456427544 -0.148299947 -0.877314627
vn 0.304479361 -0.361079067 -0.881427407
g shikuai_frag_017_0
f 3/3/3 2/2/2 1/1/1
f 2/2/2 4/4/4 1/1/1
f 4/4/4 2/2/2 5/5/5
f 6/6/6 4/4/4 5/5/5
f 1/1/1 4/4/4 7/7/7
f 8/8/8 4/4/4 6/6/6
f 4/4/4 9/9/9 7/7/7
f 7/7/7 9/9/9 10/10/10
f 11/11/11 10/10/10 9/9/9
f 9/9/9 12/12/12 11/11/11
f 12/12/12 13/13/13 11/11/11
f 14/14/14 13/13/13 12/12/12
f 15/15/15 14/14/14 12/12/12
f 15/15/15 12/12/12 16/16/16
f 17/17/17 13/13/13 14/14/14
f 18/18/18 17/17/17 14/14/14
f 18/18/18 14/14/14 19/19/19
f 20/20/20 19/19/19 14/14/14
f 12/12/12 9/9/9 21/21/21
f 4/4/4 21/21/21 9/9/9
f 21/21/21 16/16/16 12/12/12
f 8/8/8 22/22/22 4/4/4
f 23/23/23 22/22/22 8/8/8
f 24/24/24 22/22/22 23/23/23
f 4/4/4 22/22/22 25/25/25
f 21/21/21 4/4/4 25/25/25
f 26/26/26 21/21/21 25/25/25
f 27/27/27 21/21/21 26/26/26
f 16/16/16 21/21/21 27/27/27
f 16/16/16 27/27/27 28/28/28
f 29/29/29 16/16/16 28/28/28
f 30/30/30 16/16/16 29/29/29
f 30/30/30 31/31/31 16/16/16
f 32/32/32 31/31/31 30/30/30
f 16/16/16 31/31/31 15/15/15
f 15/15/15 31/31/31 33/33/33
f 34/34/34 15/15/15 33/33/33
f 35/35/35 15/15/15 34/34/34
f 35/35/35 36/36/36 15/15/15
f 36/36/36 14/14/14 15/15/15
f 14/14/14 36/36/36 37/37/37
f 20/20/20 14/14/14 37/37/37
f 38/38/38 20/20/20 37/37/37
f 39/39/39 20/20/20 38/38/38
f 40/40/40 20/20/20 39/39/39
f 41/41/41 40/40/40 39/39/39
f 44/44/44 43/43/43 42/42/42
f 43/43/43 45/45/45 42/42/42
f 46/46/46 45/45/45 43/43/43
f 49/49/49 48/48/48 47/47/47
f 50/50/50 47/47/47 48/48/48
f 48/48/48 51/51/51 50/50/50
f 50/50/50 51/51/51 52/52/52
f 51/51/51 53/53/53 52/52/52
f 52/52/52 53/53/53 54/54/54
f 53/53/53 55/55/55 54/54/54
f 53/53/53 56/56/56 55/55/55
f 56/56/56 57/57/57 55/55/55
f 55/55/55 57/57/57 58/58/58
f 58/58/58 57/57/57 59/59/59
f 59/59/59 57/57/57 60/60/60
f 57/57/57 61/61/61 60/60/60
f 60/60/60 61/61/61 62/62/62
f 62/62/62 61/61/61 63/63/63
f 61/61/61 64/64/64 63/63/63
f 63/63/63 64/64/64 65/65/65
f 64/64/64 66/66/66 65/65/65
f 69/69/69 68/68/68 67/67/67
f 68/68/68 70/70/70 67/67/67
f 67/67/67 70/70/70 71/71/71
f 70/70/70 68/68/68 72/72/72
f 72/72/72 68/68/68 73/73/73
f 68/68/68 74/74/74 73/73/73
f 75/75/75 72/72/72 73/73/73
f 75/75/75 76/76/76 72/72/72
f 77/77/77 74/74/74 68/68/68
f 72/72/72 76/76/76 78/78/78
f 71/71/71 70/70/70 79/79/79
f 80/80/80 71/71/71 79/79/79
f 79/79/79 70/70/70 81/81/81
f 82/82/82 80/80/80 79/79/79
f 70/70/70 83/83/83 81/81/81
f 72/72/72 83/83/83 70/70/70
f 84/84/84 80/80/80 82/82/82
f 85/85/85 80/80/80 84/84/84
f 86/86/86 85/85/85 84/84/84
f 87/87/87 83/83/83 72/72/72
f 88/88/88 87/87/87 72/72/72
f 88/88/88 72/72/72 78/78/78
f 89/89/89 88/88/88 78/78/78
f 90/90/90 89/89/89 78/78/78
f 91/91/91 89/89/89 90/90/90
f 94/94/94 93/93/93 92/92/92
f 92/92/92 93/93/93 95/95/95
f 68/68/68 92/92/92 95/95/95
f 96/96/96 68/68/68 95/95/95
f 96/96/96 77/77/77 68/68/68
f 97/97/97 77/77/77 96/96/96
f 98/98/98 77/77/77 97/97/97
f 101/101/101 100/100/100 99/99/99
f 100/100/100 102/102/102 99/99/99
f 102/102/102 103/103/103 99/99/99
f 99/99/99 105/105/105 104/104/104
f 104/104/104 105/105/105 106/106/106
f 105/105/105 107/107/107 106/106/106
f 107/107/107 108/108/108 106/106/106
f 106/106/106 108/108/108 109/109/109
f 108/108/108 110/110/110 109/109/109
f 102/102/102 112/112/112 111/111/111
f 113/113/113 111/111/111 112/112/112
f 113/113/113 112/112/112 114/114/114
f 117/117/117 116/116/116 115/115/115
f 116/116/116 118/118/118 115/115/115
f 118/118/118 119/119/119 115/115/115
f 119/119/119 120/120/120 115/115/115
f 120/120/120 121/121/121 115/115/115
f 121/121/121 122/122/122 115/115/115
f 122/122/122 123/123/123 115/115/115
f 123/123/123 124/124/124 115/115/115
f 127/127/127 126/126/126 125/125/125
f 125/125/125 126/126/126 128/128/128
f 129/129/129 125/125/125 128/128/128
f 130/130/130 129/129/129 128/128/128
f 131/131/131 130/130/130 128/128/128
f 132/132/132 130/130/130 131/131/131
f 130/130/130 132/132/132 133/133/133
f 133/133/133 132/132/132 134/134/134
f 132/132/132 135/135/135 134/134/134
f 134/134/134 135/135/135 136/136/136
f 135/135/135 137/137/137 136/136/136
f 138/138/138 134/134/134 136/136/136
f 139/139/139 138/138/138 136/136/136
f 140/140/140 138/138/138 139/139/139
f 143/143/143 142/142/142 141/141/141
f 142/142/142 144/144/144 141/141/141
f 144/144/144 145/145/145 141/141/141
f 145/145/145 146/146/146 141/141/141
f 146/146/146 147/147/147 141/141/141
f 150/150/150 149/149/149 148/148/148
f 148/148/148 149/149/149 151/151/151
f 151/151/151 149/149/149 152/152/152
f 149/149/149 153/153/153 152/152/152
