g Sphere007
v 19.7156124 -1.44125104 52.068573
v 4.06674226E-05 -0.664792359 52.5301285
v 2.54086335E-05 -1.59764218 38.6362
v 14.4581213 -2.42678952 38.3902512
v 38.5691032 -3.87435842 50.762661
v 6.33514719E-06 -1.65989804 27.226408
v 28.2840176 -4.95133924 37.6943588
v 55.7369194 -8.23576832 48.82901
v 10.1449766 -2.43373227 27.1229897
v 1.01498445E-05 -1.32523465 18.4275284
v 40.8737755 -9.26236629 36.6639671
v 70.4688034 -14.858182 46.569313
v 19.8463268 -4.75166845 26.8300858
v 6.9829812 -1.96547437 18.3948822
v 2.52044993E-06 -0.929951966 11.7412281
v 51.677166 -15.4503279 35.4598312
v 82.1208572 -23.9936142 44.3001823
v 28.6803036 -8.59565639 26.395483
v 13.6606207 -3.86733365 18.3022251
v 4.80060816 -1.41369367 11.7341423
v 2.52044993E-06 -1.01158261 6.6758461
v 60.2219963 -23.5332966 34.2506714
v 90.1838455 -35.6791611 42.2859306
v 36.2608299 -13.9131346 25.8858986
v 19.7412128 -6.973001 18.1641502
v 9.39131451 -2.84558988 11.7139568
v 3.26884341 -1.35242963 6.67495155
v 2.52044993E-06 -2.18562436 3.01910782
v 66.1348648 -33.3905296 33.17733
v 94.305397 -49.6485901 40.6924019
v 42.2565804 -20.591547 25.3716431
v 24.9590359 -11.181962 18.0011253
v 13.5715628 -5.16819906 11.6836758
v 6.394732 -2.36027265 6.67238998
v 2.07753253 -2.40385556 3.01906204
v -5.10894461E-06 -4.82153273 0.778179169
v 69.157341 -44.7215118 32.3281784
v 94.305336 -65.3130341 39.5723381
v 46.405529 -28.4362011 24.9118786
v 29.086031 -16.3470612 17.8349133
v 17.1586781 -8.28719997 11.647522
v 9.24116421 -3.99162984 6.66850662
v 4.06422663 -3.04895711 3.01893234
v 1.02078116 -4.9288249 0.778179169
v -1.29424734E-06 -8.96988964 0.0209350586
v 1.99692023 -5.24599028 0.778179169
v -1.29424734E-06 -8.96988964 0.0209350586
v 5.87328196 -4.09278631 3.01873207
v 11.6837034 -6.17603064 6.66379547
v 19.9958706 -12.0738649 11.610054
v 2.88579059 -5.75918341 0.778179169
v -1.29424734E-06 -8.96988964 0.0209350586
v 7.42566538 -5.48973417 3.01848412
v 31.9418278 -22.2727642 17.6841297
v 13.6156034 -8.81885815 6.65879822
v 3.64854693 -6.44596815 0.778175354
v -1.29424734E-06 -8.96988964 0.0209350586
v 8.65350628 -7.17880583 3.01821136
v 21.9591618 -16.3690434 11.5752945
v 48.5263252 -37.1595039 24.5444088
v 4.25182199 -7.27633047 0.778175354
v -1.29424734E-06 -8.96988964 0.0209350586
v 14.9524527 -11.8053827 6.65401459
v 33.4016151 -28.7177792 17.5611019
v 69.1572952 -57.0425568 31.7313251
v 90.1837082 -81.8126068 38.8816757
v 9.50314999 -9.0862093 3.01794052
v 22.9627285 -20.9888973 11.5460262
v 48.5262947 -46.3864479 24.2822456
v 66.1347427 -69.7217865 31.3632908
v 82.1206436 -98.1209564 38.5170517
v 33.401577 -35.4032326 17.4707031
v 15.6358023 -15.005538 6.64980888
v 4.66929865 -8.21396542 0.778171539
v -1.29424734E-06 -8.96988964 0.0209350586
v 60.2218361 -82.0423813 31.1689873
v 70.468483 -113.172485 38.3590775
v 46.4054527 -55.6762505 24.1169338
v 22.9627056 -25.7323723 11.5235634
v 9.93744564 -11.1285944 3.01768875
v 51.6769295 -93.2778778 31.0848103
v 55.7365303 -125.9814 38.3070107
v 42.256443 -64.5559387 24.026516
v 31.9417667 -42.0262108 17.41119
v 15.6357908 -18.279623 6.64639473
v 4.882689 -9.21791363 0.778171539
v -1.29424734E-06 -8.96988964 0.0209350586
v 40.8734703 -102.762436 31.057066
v 38.5686531 -135.730011 38.2957764
v 36.2606392 -72.5589447 23.9849491
v 29.0859318 -48.2770767 17.3764458
v 21.9591274 -30.3901958 11.5078468
v 9.93744946 -13.2167177 3.01746941
v 28.2837048 -109.944138 31.0510769
v 19.7151241 -141.819443 38.2946472
v 28.6801052 -79.2615814 23.9696579
v 24.9588985 -53.8583069 17.3587322
v 19.9958096 -34.7547531 11.4978409
v 14.9524412 -21.4843445 6.64382172
v 4.88269281 -10.2442884 0.778167725
v -1.29424734E-06 -8.96988964 0.0209350586
v 14.4577589 -114.417068 31.050478
v -3.944122E-05 -143.889206 38.2946243
v 19.8460827 -84.3117218 23.9654789
v 19.7410679 -58.5024185 17.350996
v 17.1585789 -38.6301994 11.4920654
v 13.6155577 -24.479208 6.64201164
v 9.50312328 -15.2593031 3.01729012
v -3.18118255E-05 -115.935349 31.0504684
v -19.7151966 -141.819427 38.294651
v 10.1447172 -87.4483032 23.9647293
v 13.660449 -61.9870033 17.3481483
v 13.5714674 -41.8420372 11.4890442
v 4.66927958 -11.2482252 0.778167725
v -1.29424734E-06 -8.96988964 0.0209350586
v 11.6836424 -27.1327152 6.64083099
v 8.65347195 -17.1670666 3.01715088
v 4.25181818 -12.1858664 0.778167725
v -1.29424734E-06 -8.96988964 0.0209350586
v 7.42563486 -18.8566074 3.01704788
v 9.24109936 -29.3282681 6.6401062
v 9.39121151 -44.2454834 11.4876137
v 3.64851642 -13.0162268 0.77816391
v -1.29424734E-06 -8.96988964 0.0209350586
v 5.87323999 -20.2540531 3.0169754
v 6.98280573 -64.1460342 17.3472729
v 6.39466333 -30.9693375 6.63969421
v 2.88577151 -13.7030001 0.77816391
v -1.29424734E-06 -8.96988964 0.0209350586
v 4.06417322 -21.2983017 3.01692963
v 4.80049372 -45.732235 11.4870205
v -3.56265227E-05 -88.5116653 23.9646378
v 1.99689353 -14.2161894 0.77816391
v -1.29424734E-06 -8.96988964 0.0209350586
v 3.26875567 -31.9837646 6.63948822
v -2.03677337E-05 -64.8772125 17.3470936
v -14.4578276 -114.417007 31.050478
v -38.5687103 -135.729919 38.2957687
v 2.07746768 -21.9436951 3.01690483
v -2.41824309E-05 -46.2353592 11.4868603
v -10.1447706 -87.4482727 23.9647293
v -28.2837429 -109.944077 31.051075
v -55.7365723 -125.981293 38.3070221
v -6.98284292 -64.146019 17.3472767
v -1.27383391E-05 -32.3269348 6.63942528
v 1.02075446 -14.5333605 0.77816391
v -1.29424734E-06 -8.96988964 0.0209350586
v -40.8735275 -102.76236 31.0570717
v -70.4684982 -113.172363 38.3590736
v -19.8461399 -84.3117065 23.9654865
v -4.8005271 -45.7322235 11.4870148
v -1.27383391E-05 -22.1620026 3.0168972
v -51.6769333 -93.2777786 31.0848103
v -82.1206131 -98.1207886 38.5170479
v -28.6801453 -79.2615204 23.9696503
v -13.6604929 -61.9869804 17.3481426
v -3.26878095 -31.983757 6.63949013
v -8.92364187E-06 -14.6406393 0.77816391
v -1.29424734E-06 -8.96988964 0.0209350586
v -60.2218475 -82.0422592 31.1689854
v -90.1836853 -81.8124237 38.881691
v -36.2606888 -72.5588989 23.9849548
v -19.7411041 -58.5023766 17.3509941
v -9.39123058 -44.2454643 11.4876175
v -2.07749677 -21.9436855 3.01690483
v -66.134758 -69.7216415 31.3632812
v -94.305275 -65.3128357 39.5723457
v -42.2564659 -64.5558472 24.0265217
v -24.9589367 -53.8582649 17.3587303
v -13.5714941 -41.8420067 11.4890442
v -6.39469862 -30.969326 6.63969421
v -1.02076852 -14.5333586 0.77816391
v -1.29424734E-06 -8.96988964 0.0209350586
v -69.1572571 -57.0424004 31.7313328
v -94.305275 -49.6483841 40.6924248
v -46.4054451 -55.6761436 24.1169319
v -29.0859547 -48.2770195 17.3764439
v -17.1586132 -38.6301689 11.4920692
v -9.24112225 -29.328249 6.6401062
v -4.06419897 -21.2982922 3.01692963
v -69.1572647 -44.7213478 32.3281898
v -90.1836777 -35.6789665 42.2859726
v -48.5262756 -46.3863335 24.2822552
v -31.9417744 -42.0261421 17.4111919
v -19.9958324 -34.7547073 11.4978409
v -1.99691141 -14.2161837 0.77816391
v -1.29424734E-06 -8.96988964 0.0209350586
v -11.6836691 -27.1326923 6.64082909
v -5.87326956 -20.2540436 3.0169754
v -2.88579106 -13.7029943 0.77816391
v -1.29424734E-06 -8.96988964 0.0209350586
v -7.42564917 -18.8565922 3.01704788
v -13.6155977 -24.4791737 6.64201546
v -21.9591389 -30.3901443 11.5078468
v -3.64853215 -13.0162172 0.77816391
v -1.29424734E-06 -8.96988964 0.0209350586
v -8.65349293 -17.1670456 3.01715088
v -33.4015808 -35.4031525 17.4707127
v -14.9524508 -21.4843102 6.64382172
v -4.25182676 -12.1858625 0.778167725
v -1.29424734E-06 -8.96988964 0.0209350586
v -9.50313282 -15.2592802 3.01728821
v -22.9627171 -25.7323151 11.5235672
v -48.5262756 -37.1593819 24.5444202
v -4.66930342 -11.2482252 0.778167725
v -1.29424734E-06 -8.96988964 0.0209350586
v -15.6358004 -18.2795811 6.64639664
v -33.4015808 -28.7176876 17.5611115
v -66.1347504 -33.3903732 33.1773376
v -82.1206131 -23.9934483 44.3002243
v -9.93746281 -13.2166872 3.0174675
v -22.9627171 -20.9888325 11.5460281
v -46.4054413 -28.4360752 24.9118843
v -60.2218475 -23.5331535 34.2506905
v -70.4684982 -14.8580465 46.5693588
v -31.9417725 -22.2726765 17.6841354
v -15.6358004 -15.0054941 6.64981079
v -4.88269377 -10.2442656 0.778167725
v -1.29424734E-06 -8.96988964 0.0209350586
v -51.6769371 -15.4502058 35.4598541
v -55.7365456 -8.23567295 48.829052
v -42.2564697 -20.5914326 25.3716526
v -21.9591351 -16.3689747 11.5752945
v -9.93746281 -11.128562 3.01768875
v -40.8735008 -9.26227474 36.6639977
v -38.5686684 -3.87429547 50.7626991
v -36.2606888 -13.9130259 25.88591
v -29.0859547 -16.3469734 17.8349152
v -14.9524488 -11.8053312 6.65401077
v -4.88269567 -9.21789455 0.778171539
v -1.29424734E-06 -8.96988964 0.0209350586
v -28.2837181 -4.95126677 37.6943779
v -19.7151356 -1.44122815 52.0685883
v -28.6801319 -8.59557438 26.3954906
v -24.9589367 -11.18188 18.0011272
v -19.9958344 -12.0738001 11.610054
v -9.50313473 -9.08618069 3.01794052
v -14.4577837 -2.42676282 38.3902512
v 4.06674226E-05 -0.664792359 52.5301285
v 2.54086335E-05 -1.59764218 38.6362
v -19.8461246 -4.75161314 26.8300877
v -10.1447458 -2.43370938 27.1229897
v 6.33514719E-06 -1.65989804 27.226408
v -19.7410946 -6.97293043 18.164156
v -17.1586132 -8.28713512 11.6475258
v -6.98282957 -1.96545911 18.3948784
v 1.01498445E-05 -1.32523465 18.4275284
v -13.6604795 -3.86728787 18.302227
v -4.80051756 -1.41367078 11.7341385
v 2.52044993E-06 -0.929951966 11.7412281
v -13.5714922 -5.16814566 11.6836739
v -9.39122486 -2.84555745 11.7139587
v -13.615592 -8.81881428 6.65880203
v -3.26878476 -1.35242963 6.67494965
v 2.52044993E-06 -1.01158261 6.6758461
v -11.6836729 -6.17598867 6.66379547
v -6.39469099 -2.36024976 6.67238998
v -9.24111843 -3.99159932 6.66850662
v -8.65349674 -7.17878103 3.01821136
v -2.07748914 -2.4038403 3.01906204
v 2.52044993E-06 -2.18562436 3.01910782
v -7.42564726 -5.48971128 3.01848412
v -4.06419897 -3.04894185 3.01893234
v -5.87325621 -4.09274626 3.01873398
v -4.6692977 -8.21395016 0.778171539
v -1.29424734E-06 -8.96988964 0.0209350586
v -4.25183058 -7.27630377 0.778175354
v -1.29424734E-06 -8.96988964 0.0209350586
v -3.64853978 -6.44595098 0.778175354
v -1.29424734E-06 -8.96988964 0.0209350586
v -2.88578916 -5.75917006 0.778179169
v -1.29424734E-06 -8.96988964 0.0209350586
v -1.99690759 -5.24598074 0.778179169
v -1.29424734E-06 -8.96988964 0.0209350586
v -1.02076852 -4.92882109 0.778179169
v -1.29424734E-06 -8.96988964 0.0209350586
v -5.10894461E-06 -4.82153273 0.778179169
v -1.29424734E-06 -8.96988964 0.0209350586
vt 0.816729784 1.00216377
vt 0.849973798 1.00216377
vt 0.895517349 0.922436893
vt 0.862273335 0.922436893
vt 0.78348577 1.00216377
vt 0.946419001 0.837351859
vt 0.829029322 0.922436893
vt 0.750241876 1.00216377
vt 0.913174987 0.837351859
vt 1.0050472 0.736296177
vt 0.795785367 0.922436893
vt 0.716997862 1.00216377
vt 0.879930973 0.837351859
vt 0.971803188 0.736296177
vt 1.06943548 0.619556367
vt 0.762541354 0.922436893
vt 0.683753848 1.00216377
vt 0.846687019 0.837351859
vt 0.938559175 0.736296177
vt 1.03619146 0.619556367
vt 1.14670146 0.476257205
vt 0.72929734 0.922436893
vt 0.650509834 1.00216377
vt 0.813443005 0.837351859
vt 0.90531522 0.736296177
vt 1.00294745 0.619556367
vt 1.11345744 0.476257205
vt 1.21624088 0.353562266
vt 0.696053326 0.922436893
vt 0.617265821 1.00216377
vt 0.780198991 0.837351859
vt 0.872071207 0.736296177
vt 0.969703555 0.619556367
vt 1.08021343 0.476257205
vt 1.18299687 0.353562266
vt 1.29350686 0.20511198
vt 0.662809372 0.922436893
vt 0.584021807 1.00216377
vt 0.746954978 0.837351859
vt 0.838827193 0.736296177
vt 0.936459541 0.619556367
vt 1.04696953 0.476257205
vt 1.14975286 0.353562266
vt 1.26026285 0.20511198
vt 1.38903952 0.00515107065
vt 1.22701883 0.20511198
vt 1.3557955 0.00515107065
vt 1.11650896 0.353562266
vt 1.01372552 0.476257205
vt 0.903215528 0.619556367
vt 1.19377494 0.20511198
vt 1.32255161 0.00515107065
vt 1.08326495 0.353562266
vt 0.805583179 0.736296177
vt 0.980481505 0.476257205
vt 1.16053092 0.20511198
vt 1.28930759 0.00515107065
vt 1.05002093 0.353562266
vt 0.869971514 0.619556367
vt 0.713711023 0.837351859
vt 1.12728691 0.20511198
vt 1.25606358 0.00515107065
vt 0.947237492 0.476257205
vt 0.772339225 0.736296177
vt 0.629565358 0.922436893
vt 0.550777912 1.00216377
vt 1.01677692 0.353562266
vt 0.83672756 0.619556367
vt 0.68046701 0.837351859
vt 0.596321404 0.922436893
vt 0.517533898 1.00216377
vt 0.739095211 0.736296177
vt 0.913993478 0.476257205
vt 1.0940429 0.20511198
vt 1.22281957 0.00515107065
vt 0.56307739 0.922436893
vt 0.484289914 1.00216377
vt 0.647223055 0.837351859
vt 0.803483546 0.619556367
vt 0.983532846 0.353562266
vt 0.529833376 0.922436893
vt 0.451045871 1.00216377
vt 0.613979042 0.837351859
vt 0.705851257 0.736296177
vt 0.880749464 0.476257205
vt 1.06079888 0.20511198
vt 1.18957555 0.00515107065
vt 0.496589363 0.922436893
vt 0.417801797 1.00216377
vt 0.580735028 0.837351859
vt 0.672607243 0.736296177
vt 0.770239592 0.619556367
vt 0.950288832 0.353562266
vt 0.463345319 0.922436893
vt 0.384557784 1.00216377
vt 0.547491014 0.837351859
vt 0.639363229 0.736296177
vt 0.736995578 0.619556367
vt 0.847505569 0.476257205
vt 1.02755487 0.20511198
vt 1.15633154 0.00515107065
vt 0.430101335 0.922436893
vt 0.35131374 1.00216377
vt 0.514246941 0.837351859
vt 0.606119215 0.736296177
vt 0.703751564 0.619556367
vt 0.814261556 0.476257205
vt 0.917044938 0.353562266
vt 0.396857291 0.922436893
vt 0.318069696 1.00216377
vt 0.481002927 0.837351859
vt 0.572875142 0.736296177
vt 0.67050755 0.619556367
vt 0.994310915 0.20511198
vt 1.12308764 0.00515107065
vt 0.781017542 0.476257205
vt 0.883800924 0.353562266
vt 0.961066902 0.20511198
vt 1.08984363 0.00515107065
vt 0.85055691 0.353562266
vt 0.747773528 0.476257205
vt 0.637263477 0.619556367
vt 0.927822888 0.20511198
vt 1.05659962 0.00515107065
vt 0.817312896 0.353562266
vt 0.539631128 0.736296177
vt 0.714529395 0.476257205
vt 0.894578874 0.20511198
vt 1.0233556 0.00515107065
vt 0.784068763 0.353562266
vt 0.604019463 0.619556367
vt 0.447758883 0.837351859
vt 0.861334741 0.20511198
vt 0.990111411 0.00515107065
vt 0.681285381 0.476257205
vt 0.506387055 0.736296177
vt 0.363613248 0.922436893
vt 0.284825683 1.00216377
vt 0.750824749 0.353562266
vt 0.570775449 0.619556367
vt 0.41451484 0.837351859
vt 0.330369234 0.922436893
vt 0.251581639 1.00216377
vt 0.473143041 0.736296177
vt 0.648041368 0.476257205
vt 0.828090727 0.20511198
vt 0.956867397 0.00515107065
vt 0.29712519 0.922436893
vt 0.218337625 1.00216377
vt 0.381270826 0.837351859
vt 0.537531376 0.619556367
vt 0.717580736 0.353562266
vt 0.263881177 0.922436893
vt 0.185093582 1.00216377
vt 0.348026782 0.837351859
vt 0.439899027 0.736296177
vt 0.614797354 0.476257205
vt 0.794846714 0.20511198
vt 0.923623383 0.00515107065
vt 0.230637118 0.922436893
vt 0.151849568 1.00216377
vt 0.314782768 0.837351859
vt 0.406654984 0.736296177
vt 0.504287362 0.619556367
vt 0.684336722 0.353562266
vt 0.197393104 0.922436893
vt 0.118605517 1.00216377
vt 0.281538725 0.837351859
vt 0.37341097 0.736296177
vt 0.471043289 0.619556367
vt 0.58155334 0.476257205
vt 0.7616027 0.20511198
vt 0.890379369 0.00515107065
vt 0.164149061 0.922436893
vt 0.0853614733 1.00216377
vt 0.248294696 0.837351859
vt 0.340166926 0.736296177
vt 0.437799275 0.619556367
vt 0.548309267 0.476257205
vt 0.651092708 0.353562266
vt 0.130905017 0.922436893
vt 0.0521174446 1.00216377
vt 0.215050653 0.837351859
vt 0.306922913 0.736296177
vt 0.404555231 0.619556367
vt 0.728358686 0.20511198
vt 0.857135355 0.00515107065
vt 0.515065253 0.476257205
vt 0.617848635 0.353562266
vt 0.695114613 0.20511198
vt 0.823891222 0.00515107065
vt 0.584604621 0.353562266
vt 0.481821209 0.476257205
vt 0.371311218 0.619556367
vt 0.661870599 0.20511198
vt 0.790647209 0.00515107065
vt 0.551360548 0.353562266
vt 0.273678869 0.736296177
vt 0.448577195 0.476257205
vt 0.628626525 0.20511198
vt 0.757403195 0.00515107065
vt 0.518116534 0.353562266
vt 0.338067174 0.619556367
vt 0.181806609 0.837351859
vt 0.595382512 0.20511198
vt 0.724159181 0.00515107065
vt 0.415333152 0.476257205
vt 0.240434811 0.736296177
vt 0.0976609886 0.922436893
vt 0.0188734159 1.00216377
vt 0.48487255 0.353562266
vt 0.30482313 0.619556367
vt 0.14856258 0.837351859
vt 0.0644169599 0.922436893
vt -0.0143706128 1.00216377
vt 0.207190782 0.736296177
vt 0.382089108 0.476257205
vt 0.562138498 0.20511198
vt 0.690915167 0.00515107065
vt 0.0311729293 0.922436893
vt -0.0476146489 1.00216377
vt 0.115318552 0.837351859
vt 0.271579117 0.619556367
vt 0.451628476 0.353562266
vt -0.00207111053 0.922436893
vt -0.0808586776 1.00216377
vt 0.082074523 0.837351859
vt 0.173946753 0.736296177
vt 0.348845065 0.476257205
vt 0.528894424 0.20511198
vt 0.657671034 0.00515107065
vt -0.0353151411 0.922436893
vt -0.114102714 1.00216377
vt 0.0488304906 0.837351859
vt 0.140702724 0.736296177
vt 0.238335073 0.619556367
vt 0.418384463 0.353562266
vt -0.0685591698 0.922436893
vt -0.147346735 1.00216377
vt -0.101803206 0.922436893
vt 0.0155864619 0.837351859
vt -0.0176575705 0.837351859
vt -0.050901603 0.837351859
vt 0.107458688 0.736296177
vt 0.205091044 0.619556367
vt 0.0409706309 0.736296177
vt 0.00772659807 0.736296177
vt 0.0742146596 0.736296177
vt 0.105358943 0.619556367
vt 0.0721149147 0.619556367
vt 0.171847016 0.619556367
vt 0.138602972 0.619556367
vt 0.315601051 0.476257205
vt 0.182624921 0.476257205
vt 0.149380893 0.476257205
vt 0.282357037 0.476257205
vt 0.21586895 0.476257205
vt 0.249112993 0.476257205
vt 0.385140449 0.353562266
vt 0.252164304 0.353562266
vt 0.218920276 0.353562266
vt 0.351896435 0.353562266
vt 0.285408348 0.353562266
vt 0.318652362 0.353562266
vt 0.495650411 0.20511198
vt 0.624427021 0.00515107065
vt 0.462406397 0.20511198
vt 0.591183007 0.00515107065
vt 0.429162383 0.20511198
vt 0.557938993 0.00515107065
vt 0.39591831 0.20511198
vt 0.524694979 0.00515107065
vt 0.362674296 0.20511198
vt 0.491450936 0.00515107065
vt 0.329430282 0.20511198
vt 0.458206922 0.00515107065
vt 0.296186239 0.20511198
vt 0.424962878 0.00515107065
vn 0.10165567 0.98691839 -0.125132471
vn -0 0.996954322 -0.0779883415
vn -0 0.998889625 -0.047113087
vn 0.113451034 0.989475131 -0.089821808
vn 0.206190288 0.94238013 -0.263448685
vn -0 0.999971271 0.00758425798
vn 0.22809267 0.949062765 -0.217379063
vn 0.302078992 0.830311656 -0.468327701
vn 0.14991726 0.988002181 -0.0371016562
vn -0 0.999073029 0.0430463068
vn 0.331542194 0.847920477 -0.413655102
vn 0.363029063 0.643599927 -0.673787177
vn 0.297407866 0.93948561 -0.170045078
vn 0.178553164 0.983928919 0.00163227681
vn -0 0.999821484 0.0188979991
vn 0.397957295 0.6715765 -0.624991953
vn 0.378170073 0.432997942 -0.818229973
vn 0.423048377 0.825836122 -0.372860283
vn 0.35175097 0.928175092 -0.121499956
vn 0.195716619 0.980523169 -0.0164115746
vn -0 0.986808121 -0.161894143
vn 0.41416958 0.456371397 -0.787520587
vn 0.362734228 0.250690222 -0.897540212
vn 0.494481266 0.63920784 -0.588983417
vn 0.497843027 0.809544861 -0.311110169
vn 0.382199883 0.916207194 -0.120364919
vn 0.198517323 0.961703718 -0.188989103
vn -0 0.837192535 -0.546908259
vn 0.393805802 0.260024935 -0.88164854
vn 0.333955556 0.110377587 -0.93610394
vn 0.501331925 0.4231143 -0.754745364
vn 0.582701087 0.624501228 -0.520055532
vn 0.538731575 0.794439256 -0.280418336
vn 0.381827354 0.884893596 -0.266779244
vn 0.166283816 0.81157726 -0.560082078
vn -0 0.442147821 -0.896942198
vn 0.357699275 0.109449781 -0.927400649
vn 0.300586432 0.00612525549 -0.953734934
vn 0.466463357 0.232637554 -0.853400111
vn 0.59384501 0.412439167 -0.690827012
vn 0.63621825 0.616766691 -0.463492364
vn 0.530623853 0.756079793 -0.383120924
vn 0.316230834 0.736964285 -0.597395718
vn 0.0875828564 0.428785414 -0.899150968
vn -0 0.0240762737 -0.999710143
vn 0.166993558 0.390405476 -0.90537101
vn -0 0.0240762737 -0.999710143
vn 0.434527725 0.621201754 -0.652145684
vn 0.625282466 0.585433364 -0.516032636
vn 0.66075176 0.413468719 -0.626458764
vn 0.231398195 0.331911922 -0.914488554
vn -0 0.0240762737 -0.999710143
vn 0.510535777 0.478798181 -0.714216709
vn 0.554275215 0.222739622 -0.801976323
vn 0.657589972 0.397375494 -0.640053272
vn 0.276614636 0.260450631 -0.925013423
vn -0 0.0240762737 -0.999710143
vn 0.542236209 0.328228503 -0.773463607
vn 0.627832234 0.22458598 -0.745243371
vn 0.416149467 0.0878482312 -0.905042708
vn 0.301688582 0.183671564 -0.935547292
vn -0 0.0240762737 -0.999710143
vn 0.637290955 0.219909817 -0.738579631
vn 0.493397832 0.0752084851 -0.866546273
vn 0.317677081 0.00113650924 -0.948198318
vn 0.265630692 -0.0711534098 -0.96144557
vn 0.536204696 0.185943753 -0.823352516
vn 0.564591169 0.071311146 -0.822284341
vn 0.363386393 -0.0170982908 -0.93148154
vn 0.277371556 -0.0767697766 -0.957690656
vn 0.229235455 -0.129251406 -0.964751422
vn 0.42761749 -0.0337634087 -0.903329074
vn 0.583721101 0.0701674148 -0.808916748
vn 0.308347672 0.10805542 -0.945116758
vn -0 0.0240762737 -0.999710143
vn 0.23673901 -0.134131253 -0.962269902
vn 0.190381467 -0.173586458 -0.966241479
vn 0.311766803 -0.0933240429 -0.945564449
vn 0.49045527 -0.045222681 -0.870292187
vn 0.503197491 0.061863061 -0.861954272
vn 0.194637328 -0.177214563 -0.964733779
vn 0.147985473 -0.207196921 -0.967041671
vn 0.261224538 -0.149536371 -0.953624964
vn 0.362725914 -0.113663487 -0.924938142
vn 0.51384908 -0.0480756015 -0.856532454
vn 0.299767792 0.0380489603 -0.95325321
vn -0 0.0240762737 -0.999710143
vn 0.149981543 -0.209414914 -0.966256142
vn 0.101611704 -0.231277391 -0.967566967
vn 0.210797682 -0.191288337 -0.958630919
vn 0.299836934 -0.172499835 -0.938265204
vn 0.414693326 -0.131761149 -0.900371313
vn 0.453409642 -0.040728718 -0.890371203
vn 0.102294579 -0.232200786 -0.967273831
vn 0.0517996997 -0.245924696 -0.967903852
vn 0.159642041 -0.221806139 -0.961933672
vn 0.23858878 -0.215713263 -0.946859598
vn 0.340644121 -0.195488006 -0.919644475
vn 0.438043773 -0.138292223 -0.888252735
vn 0.279451549 -0.0238711778 -0.959863067
vn -0 0.0240762737 -0.999710143
vn 0.0519292392 -0.245935038 -0.967894256
vn -0 -0.250858128 -0.968023837
vn 0.107351065 -0.242825866 -0.964111745
vn 0.178373218 -0.246746033 -0.952522635
vn 0.269061536 -0.241919369 -0.932245076
vn 0.361410648 -0.205800742 -0.909411013
vn 0.394294351 -0.122653909 -0.91076231
vn -0 -0.250539035 -0.968106508
vn -0.0518000834 -0.245924488 -0.967903852
vn 0.0539918207 -0.255199075 -0.965379894
vn 0.118711032 -0.267709285 -0.956158638
vn 0.199741095 -0.274873883 -0.940504074
vn 0.250528693 -0.0767035857 -0.965065837
vn -0 0.0240762737 -0.999710143
vn 0.286031842 -0.255380392 -0.923561931
vn 0.33053863 -0.186397985 -0.925202668
vn 0.215517789 -0.120330364 -0.969057679
vn -0 0.0240762737 -0.999710143
vn 0.264802545 -0.234688953 -0.93530786
vn 0.212477058 -0.29067871 -0.932930648
vn 0.132177919 -0.296872377 -0.945724964
vn 0.176301077 -0.155086935 -0.972042143
vn -0 0.0240762737 -0.999710143
vn 0.198461041 -0.269883752 -0.942218721
vn 0.0593072437 -0.279850423 -0.958209991
vn 0.140611619 -0.31425789 -0.938866496
vn 0.134260967 -0.181456193 -0.974190712
vn -0 0.0240762737 -0.999710143
vn 0.13213037 -0.293788493 -0.946694195
vn 0.0657942072 -0.309494585 -0.948622286
vn -0 -0.259290725 -0.965799391
vn 0.0903983191 -0.199908957 -0.975635409
vn -0 0.0240762737 -0.999710143
vn 0.0699834228 -0.327784687 -0.942156792
vn -0 -0.283828646 -0.95887506
vn -0.0519297495 -0.245934978 -0.967894256
vn -0.101612255 -0.231277153 -0.967566967
vn 0.0659919083 -0.307649583 -0.949208438
vn -0 -0.313609481 -0.949552059
vn -0.0539923124 -0.255199105 -0.965379834
vn -0.102295004 -0.232200712 -0.967273712
vn -0.14798604 -0.207196876 -0.967041671
vn -0.0593076572 -0.279850513 -0.958209991
vn -0 -0.332193285 -0.943211257
vn 0.0454509854 -0.21082294 -0.976467073
vn -0 0.0240762737 -0.999710143
vn -0.149982125 -0.209414944 -0.966256082
vn -0.190381765 -0.173586473 -0.966241479
vn -0.107351243 -0.24282591 -0.964111626
vn -0.0657948628 -0.309494555 -0.948622286
vn -0 -0.31219098 -0.95001936
vn -0.19463788 -0.177214518 -0.96473366
vn -0.229236156 -0.129251316 -0.964751184
vn -0.159642637 -0.221806183 -0.961933553
vn -0.118711382 -0.267709225 -0.956158638
vn -0.0699841827 -0.327784568 -0.942156792
vn -0 -0.214433402 -0.976738572
vn -0 0.0240762737 -0.999710143
vn -0.236739531 -0.134131178 -0.962269783
vn -0.265631735 -0.0711530149 -0.961445272
vn -0.210798398 -0.191288099 -0.9586308
vn -0.178373635 -0.24674581 -0.952522635
vn -0.132178634 -0.296872228 -0.945724964
vn -0.0659925565 -0.307649553 -0.949208438
vn -0.277372271 -0.0767691359 -0.957690477
vn -0.300587445 0.00612648483 -0.953734577
vn -0.261225194 -0.149536088 -0.953624904
vn -0.238589436 -0.215712875 -0.946859598
vn -0.199741393 -0.274873793 -0.940503955
vn -0.140612245 -0.31425789 -0.938866436
vn -0.0454514958 -0.210822925 -0.976467073
vn -0 0.0240762737 -0.999710143
vn -0.317678064 0.0011380522 -0.948197961
vn -0.33395654 0.110379398 -0.936103284
vn -0.311767548 -0.0933231041 -0.94556421
vn -0.299837917 -0.172499239 -0.938265026
vn -0.269062012 -0.24191913 -0.932245016
vn -0.212477565 -0.29067868 -0.93293041
vn -0.132130548 -0.293788493 -0.946694195
vn -0.357700139 0.109451443 -0.927400172
vn -0.362735391 0.250692666 -0.89753896
vn -0.363387495 -0.0170967802 -0.931481242
vn -0.362727135 -0.113662608 -0.924937725
vn -0.340645343 -0.19548735 -0.919644177
vn -0.090398334 -0.199908853 -0.975635409
vn -0 0.0240762737 -0.999710143
vn -0.286032557 -0.255380154 -0.923561752
vn -0.198461741 -0.269883484 -0.942218602
vn -0.134261638 -0.181455955 -0.974190712
vn -0 0.0240762737 -0.999710143
vn -0.264803171 -0.234688431 -0.935307801
vn -0.361411989 -0.205799893 -0.909410715
vn -0.414694726 -0.131760255 -0.900370777
vn -0.176301613 -0.155086473 -0.972042143
vn -0 0.0240762737 -0.999710143
vn -0.330539346 -0.186397642 -0.925202549
vn -0.427618861 -0.0337618999 -0.903328359
vn -0.438045025 -0.138291299 -0.888252258
vn -0.215516835 -0.120330729 -0.969057798
vn -0 0.0240762737 -0.999710143
vn -0.394295067 -0.122653335 -0.910762072
vn -0.490456849 -0.0452211238 -0.870291352
vn -0.416150302 0.0878497735 -0.905042171
vn -0.250530303 -0.0767029449 -0.96506542
vn -0 0.0240762737 -0.999710143
vn -0.513850331 -0.0480745099 -0.856531739
vn -0.493399322 0.0752105191 -0.866545081
vn -0.393806696 0.260027319 -0.881647348
vn -0.378170907 0.433001697 -0.81822753
vn -0.453410566 -0.0407276079 -0.890370727
vn -0.564593017 0.0713131577 -0.82228291
vn -0.466464102 0.232639655 -0.853399158
vn -0.414169967 0.456375271 -0.787518144
vn -0.363028675 0.6436041 -0.673783302
vn -0.554276586 0.222741738 -0.801974773
vn -0.583722413 0.0701687932 -0.808915615
vn -0.279450566 -0.023869874 -0.959863365
vn -0 0.0240762737 -0.999710143
vn -0.397956789 0.671580732 -0.624987781
vn -0.302077562 0.830314696 -0.46832329
vn -0.501332402 0.423117697 -0.754743159
vn -0.627833784 0.224587888 -0.745241463
vn -0.503198385 0.0618653148 -0.861953676
vn -0.331540853 0.847923398 -0.413650155
vn -0.20618847 0.94238162 -0.263444662
vn -0.494480938 0.639211953 -0.588979304
vn -0.593845904 0.412442178 -0.690824509
vn -0.637292027 0.219912603 -0.738577962
vn -0.299768358 0.0380510092 -0.953252852
vn -0 0.0240762737 -0.999710143
vn -0.228090525 0.949064016 -0.217375368
vn -0.101653777 0.986918986 -0.125129968
vn -0.423046678 0.825839043 -0.372855693
vn -0.58270061 0.624505043 -0.52005142
vn -0.660752773 0.413472712 -0.626455188
vn -0.536204517 0.185946196 -0.823352158
vn -0.113449231 0.989475489 -0.0898199752
vn -0 0.996954322 -0.0779883415
vn -0 0.998889625 -0.047113087
vn -0.297404796 0.939487219 -0.170041293
vn -0.149915025 0.988002539 -0.0370999649
vn -0 0.999971271 0.00758425798
vn -0.497840941 0.809547901 -0.311105549
vn -0.636217713 0.616770625 -0.463487923
vn -0.178550884 0.983929276 0.0016343192
vn -0 0.999073029 0.0430463068
vn -0.351747215 0.928177059 -0.121495582
vn -0.195714027 0.980523705 -0.0164104421
vn -0 0.999821484 0.0188979991
vn -0.538729131 0.794442415 -0.280414224
vn -0.382196277 0.916209102 -0.120361343
vn -0.657589972 0.3973791 -0.640050948
vn -0.198514596 0.961704493 -0.188988015
vn -0 0.986808121 -0.161894143
vn -0.625281453 0.585436702 -0.516030014
vn -0.381823719 0.8848961 -0.266776323
vn -0.530621886 0.756082535 -0.383118123
vn -0.542236209 0.328230232 -0.773462892
vn -0.166281283 0.811578751 -0.560080707
vn -0 0.837192535 -0.546908259
vn -0.51053524 0.478800774 -0.714215338
vn -0.316227049 0.736967325 -0.59739399
vn -0.434526473 0.621204913 -0.652143598
vn -0.308347344 0.108055338 -0.945116878
vn -0 0.0240762737 -0.999710143
vn -0.301689774 0.183673739 -0.935546458
vn -0 0.0240762737 -0.999710143
vn -0.276613533 0.260451347 -0.925013483
vn -0 0.0240762737 -0.999710143
vn -0.231397063 0.331913531 -0.914488375
vn -0 0.0240762737 -0.999710143
vn -0.166991323 0.390406728 -0.90537101
vn -0 0.0240762737 -0.999710143
vn -0.0875813887 0.428785294 -0.899151027
vn -0 0.0240762737 -0.999710143
vn -0 0.442147821 -0.896942198
vn -0 0.0240762737 -0.999710143
g Sphere007_0
f 3/3/3 2/2/2 1/1/1
f 4/4/4 3/3/3 1/1/1
f 4/4/4 1/1/1 5/5/5
f 6/6/6 3/3/3 4/4/4
f 7/7/7 4/4/4 5/5/5
f 7/7/7 5/5/5 8/8/8
f 9/9/9 6/6/6 4/4/4
f 9/9/9 4/4/4 7/7/7
f 10/10/10 6/6/6 9/9/9
f 11/11/11 7/7/7 8/8/8
f 11/11/11 8/8/8 12/12/12
f 13/13/13 9/9/9 7/7/7
f 13/13/13 7/7/7 11/11/11
f 14/14/14 10/10/10 9/9/9
f 14/14/14 9/9/9 13/13/13
f 15/15/15 10/10/10 14/14/14
f 16/16/16 11/11/11 12/12/12
f 16/16/16 12/12/12 17/17/17
f 18/18/18 13/13/13 11/11/11
f 18/18/18 11/11/11 16/16/16
f 19/19/19 14/14/14 13/13/13
f 19/19/19 13/13/13 18/18/18
f 20/20/20 15/15/15 14/14/14
f 20/20/20 14/14/14 19/19/19
f 21/21/21 15/15/15 20/20/20
f 22/22/22 16/16/16 17/17/17
f 22/22/22 17/17/17 23/23/23
f 24/24/24 18/18/18 16/16/16
f 24/24/24 16/16/16 22/22/22
f 25/25/25 19/19/19 18/18/18
f 25/25/25 18/18/18 24/24/24
f 26/26/26 20/20/20 19/19/19
f 26/26/26 19/19/19 25/25/25
f 27/27/27 21/21/21 20/20/20
f 27/27/27 20/20/20 26/26/26
f 28/28/28 21/21/21 27/27/27
f 29/29/29 22/22/22 23/23/23
f 29/29/29 23/23/23 30/30/30
f 31/31/31 24/24/24 22/22/22
f 31/31/31 22/22/22 29/29/29
f 32/32/32 25/25/25 24/24/24
f 32/32/32 24/24/24 31/31/31
f 33/33/33 26/26/26 25/25/25
f 33/33/33 25/25/25 32/32/32
f 34/34/34 27/27/27 26/26/26
f 34/34/34 26/26/26 33/33/33
f 35/35/35 28/28/28 27/27/27
f 35/35/35 27/27/27 34/34/34
f 36/36/36 28/28/28 35/35/35
f 37/37/37 29/29/29 30/30/30
f 37/37/37 30/30/30 38/38/38
f 39/39/39 31/31/31 29/29/29
f 39/39/39 29/29/29 37/37/37
f 40/40/40 32/32/32 31/31/31
f 40/40/40 31/31/31 39/39/39
f 41/41/41 33/33/33 32/32/32
f 41/41/41 32/32/32 40/40/40
f 42/42/42 34/34/34 33/33/33
f 42/42/42 33/33/33 41/41/41
f 43/43/43 35/35/35 34/34/34
f 43/43/43 34/34/34 42/42/42
f 44/44/44 36/36/36 35/35/35
f 44/44/44 35/35/35 43/43/43
f 36/36/36 44/44/44 45/45/45
f 46/46/46 44/44/44 43/43/43
f 44/44/44 46/46/46 47/47/47
f 48/48/48 43/43/43 42/42/42
f 46/46/46 43/43/43 48/48/48
f 49/49/49 42/42/42 41/41/41
f 48/48/48 42/42/42 49/49/49
f 50/50/50 41/41/41 40/40/40
f 49/49/49 41/41/41 50/50/50
f 51/51/51 46/46/46 48/48/48
f 46/46/46 51/51/51 52/52/52
f 53/53/53 48/48/48 49/49/49
f 51/51/51 48/48/48 53/53/53
f 50/50/50 40/40/40 54/54/54
f 54/54/54 40/40/40 39/39/39
f 55/55/55 49/49/49 50/50/50
f 53/53/53 49/49/49 55/55/55
f 56/56/56 51/51/51 53/53/53
f 51/51/51 56/56/56 57/57/57
f 56/56/56 53/53/53 58/58/58
f 58/58/58 53/53/53 55/55/55
f 55/55/55 50/50/50 59/59/59
f 59/59/59 50/50/50 54/54/54
f 54/54/54 39/39/39 60/60/60
f 60/60/60 39/39/39 37/37/37
f 61/61/61 56/56/56 58/58/58
f 56/56/56 61/61/61 62/62/62
f 58/58/58 55/55/55 63/63/63
f 63/63/63 55/55/55 59/59/59
f 59/59/59 54/54/54 64/64/64
f 64/64/64 54/54/54 60/60/60
f 60/60/60 37/37/37 65/65/65
f 65/65/65 37/37/37 38/38/38
f 65/65/65 38/38/38 66/66/66
f 61/61/61 58/58/58 67/67/67
f 67/67/67 58/58/58 63/63/63
f 63/63/63 59/59/59 68/68/68
f 68/68/68 59/59/59 64/64/64
f 69/69/69 60/60/60 65/65/65
f 64/64/64 60/60/60 69/69/69
f 70/70/70 65/65/65 66/66/66
f 69/69/69 65/65/65 70/70/70
f 70/70/70 66/66/66 71/71/71
f 72/72/72 64/64/64 69/69/69
f 68/68/68 64/64/64 72/72/72
f 73/73/73 63/63/63 68/68/68
f 67/67/67 63/63/63 73/73/73
f 74/74/74 61/61/61 67/67/67
f 61/61/61 74/74/74 75/75/75
f 76/76/76 70/70/70 71/71/71
f 76/76/76 71/71/71 77/77/77
f 78/78/78 69/69/69 70/70/70
f 72/72/72 69/69/69 78/78/78
f 78/78/78 70/70/70 76/76/76
f 79/79/79 68/68/68 72/72/72
f 73/73/73 68/68/68 79/79/79
f 80/80/80 67/67/67 73/73/73
f 74/74/74 67/67/67 80/80/80
f 81/81/81 76/76/76 77/77/77
f 81/81/81 77/77/77 82/82/82
f 83/83/83 78/78/78 76/76/76
f 83/83/83 76/76/76 81/81/81
f 84/84/84 72/72/72 78/78/78
f 79/79/79 72/72/72 84/84/84
f 84/84/84 78/78/78 83/83/83
f 85/85/85 73/73/73 79/79/79
f 80/80/80 73/73/73 85/85/85
f 86/86/86 74/74/74 80/80/80
f 74/74/74 86/86/86 87/87/87
f 88/88/88 81/81/81 82/82/82
f 88/88/88 82/82/82 89/89/89
f 90/90/90 83/83/83 81/81/81
f 90/90/90 81/81/81 88/88/88
f 91/91/91 84/84/84 83/83/83
f 91/91/91 83/83/83 90/90/90
f 92/92/92 79/79/79 84/84/84
f 85/85/85 79/79/79 92/92/92
f 92/92/92 84/84/84 91/91/91
f 93/93/93 80/80/80 85/85/85
f 86/86/86 80/80/80 93/93/93
f 94/94/94 88/88/88 89/89/89
f 94/94/94 89/89/89 95/95/95
f 96/96/96 90/90/90 88/88/88
f 96/96/96 88/88/88 94/94/94
f 97/97/97 91/91/91 90/90/90
f 97/97/97 90/90/90 96/96/96
f 98/98/98 92/92/92 91/91/91
f 98/98/98 91/91/91 97/97/97
f 99/99/99 85/85/85 92/92/92
f 93/93/93 85/85/85 99/99/99
f 99/99/99 92/92/92 98/98/98
f 100/100/100 86/86/86 93/93/93
f 86/86/86 100/100/100 101/101/101
f 102/102/102 94/94/94 95/95/95
f 102/102/102 95/95/95 103/103/103
f 104/104/104 96/96/96 94/94/94
f 104/104/104 94/94/94 102/102/102
f 105/105/105 97/97/97 96/96/96
f 105/105/105 96/96/96 104/104/104
f 106/106/106 98/98/98 97/97/97
f 106/106/106 97/97/97 105/105/105
f 107/107/107 99/99/99 98/98/98
f 107/107/107 98/98/98 106/106/106
f 108/108/108 93/93/93 99/99/99
f 100/100/100 93/93/93 108/108/108
f 108/108/108 99/99/99 107/107/107
f 109/109/109 102/102/102 103/103/103
f 109/109/109 103/103/103 110/110/110
f 111/111/111 104/104/104 102/102/102
f 111/111/111 102/102/102 109/109/109
f 112/112/112 105/105/105 104/104/104
f 112/112/112 104/104/104 111/111/111
f 113/113/113 106/106/106 105/105/105
f 113/113/113 105/105/105 112/112/112
f 114/114/114 100/100/100 108/108/108
f 100/100/100 114/114/114 115/115/115
f 116/116/116 107/107/107 106/106/106
f 116/116/116 106/106/106 113/113/113
f 117/117/117 108/108/108 107/107/107
f 114/114/114 108/108/108 117/117/117
f 117/117/117 107/107/107 116/116/116
f 118/118/118 114/114/114 117/117/117
f 114/114/114 118/118/118 119/119/119
f 120/120/120 117/117/117 116/116/116
f 118/118/118 117/117/117 120/120/120
f 121/121/121 116/116/116 113/113/113
f 120/120/120 116/116/116 121/121/121
f 122/122/122 113/113/113 112/112/112
f 121/121/121 113/113/113 122/122/122
f 123/123/123 118/118/118 120/120/120
f 118/118/118 123/123/123 124/124/124
f 125/125/125 120/120/120 121/121/121
f 123/123/123 120/120/120 125/125/125
f 122/122/122 112/112/112 126/126/126
f 126/126/126 112/112/112 111/111/111
f 127/127/127 121/121/121 122/122/122
f 125/125/125 121/121/121 127/127/127
f 128/128/128 123/123/123 125/125/125
f 123/123/123 128/128/128 129/129/129
f 128/128/128 125/125/125 130/130/130
f 130/130/130 125/125/125 127/127/127
f 127/127/127 122/122/122 131/131/131
f 131/131/131 122/122/122 126/126/126
f 126/126/126 111/111/111 132/132/132
f 132/132/132 111/111/111 109/109/109
f 133/133/133 128/128/128 130/130/130
f 128/128/128 133/133/133 134/134/134
f 130/130/130 127/127/127 135/135/135
f 135/135/135 127/127/127 131/131/131
f 131/131/131 126/126/126 136/136/136
f 136/136/136 126/126/126 132/132/132
f 132/132/132 109/109/109 137/137/137
f 137/137/137 109/109/109 110/110/110
f 137/137/137 110/110/110 138/138/138
f 133/133/133 130/130/130 139/139/139
f 139/139/139 130/130/130 135/135/135
f 135/135/135 131/131/131 140/140/140
f 140/140/140 131/131/131 136/136/136
f 141/141/141 132/132/132 137/137/137
f 136/136/136 132/132/132 141/141/141
f 142/142/142 137/137/137 138/138/138
f 141/141/141 137/137/137 142/142/142
f 142/142/142 138/138/138 143/143/143
f 144/144/144 136/136/136 141/141/141
f 140/140/140 136/136/136 144/144/144
f 145/145/145 135/135/135 140/140/140
f 139/139/139 135/135/135 145/145/145
f 146/146/146 133/133/133 139/139/139
f 133/133/133 146/146/146 147/147/147
f 148/148/148 142/142/142 143/143/143
f 148/148/148 143/143/143 149/149/149
f 150/150/150 141/141/141 142/142/142
f 144/144/144 141/141/141 150/150/150
f 150/150/150 142/142/142 148/148/148
f 151/151/151 140/140/140 144/144/144
f 145/145/145 140/140/140 151/151/151
f 152/152/152 139/139/139 145/145/145
f 146/146/146 139/139/139 152/152/152
f 153/153/153 148/148/148 149/149/149
f 153/153/153 149/149/149 154/154/154
f 155/155/155 150/150/150 148/148/148
f 155/155/155 148/148/148 153/153/153
f 156/156/156 144/144/144 150/150/150
f 151/151/151 144/144/144 156/156/156
f 156/156/156 150/150/150 155/155/155
f 157/157/157 145/145/145 151/151/151
f 152/152/152 145/145/145 157/157/157
f 158/158/158 146/146/146 152/152/152
f 146/146/146 158/158/158 159/159/159
f 160/160/160 153/153/153 154/154/154
f 160/160/160 154/154/154 161/161/161
f 162/162/162 155/155/155 153/153/153
f 162/162/162 153/153/153 160/160/160
f 163/163/163 156/156/156 155/155/155
f 163/163/163 155/155/155 162/162/162
f 164/164/164 151/151/151 156/156/156
f 157/157/157 151/151/151 164/164/164
f 164/164/164 156/156/156 163/163/163
f 165/165/165 152/152/152 157/157/157
f 158/158/158 152/152/152 165/165/165
f 166/166/166 160/160/160 161/161/161
f 166/166/166 161/161/161 167/167/167
f 168/168/168 162/162/162 160/160/160
f 168/168/168 160/160/160 166/166/166
f 169/169/169 163/163/163 162/162/162
f 169/169/169 162/162/162 168/168/168
f 170/170/170 164/164/164 163/163/163
f 170/170/170 163/163/163 169/169/169
f 171/171/171 157/157/157 164/164/164
f 165/165/165 157/157/157 171/171/171
f 171/171/171 164/164/164 170/170/170
f 172/172/172 158/158/158 165/165/165
f 158/158/158 172/172/172 173/173/173
f 174/174/174 166/166/166 167/167/167
f 174/174/174 167/167/167 175/175/175
f 176/176/176 168/168/168 166/166/166
f 176/176/176 166/166/166 174/174/174
f 177/177/177 169/169/169 168/168/168
f 177/177/177 168/168/168 176/176/176
f 178/178/178 170/170/170 169/169/169
f 178/178/178 169/169/169 177/177/177
f 179/179/179 171/171/171 170/170/170
f 179/179/179 170/170/170 178/178/178
f 180/180/180 165/165/165 171/171/171
f 172/172/172 165/165/165 180/180/180
f 180/180/180 171/171/171 179/179/179
f 181/181/181 174/174/174 175/175/175
f 181/181/181 175/175/175 182/182/182
f 183/183/183 176/176/176 174/174/174
f 183/183/183 174/174/174 181/181/181
f 184/184/184 177/177/177 176/176/176
f 184/184/184 176/176/176 183/183/183
f 185/185/185 178/178/178 177/177/177
f 185/185/185 177/177/177 184/184/184
f 186/186/186 172/172/172 180/180/180
f 172/172/172 186/186/186 187/187/187
f 188/188/188 179/179/179 178/178/178
f 188/188/188 178/178/178 185/185/185
f 189/189/189 180/180/180 179/179/179
f 186/186/186 180/180/180 189/189/189
f 189/189/189 179/179/179 188/188/188
f 190/190/190 186/186/186 189/189/189
f 186/186/186 190/190/190 191/191/191
f 192/192/192 189/189/189 188/188/188
f 190/190/190 189/189/189 192/192/192
f 193/193/193 188/188/188 185/185/185
f 192/192/192 188/188/188 193/193/193
f 194/194/194 185/185/185 184/184/184
f 193/193/193 185/185/185 194/194/194
f 195/195/195 190/190/190 192/192/192
f 190/190/190 195/195/195 196/196/196
f 197/197/197 192/192/192 193/193/193
f 195/195/195 192/192/192 197/197/197
f 194/194/194 184/184/184 198/198/198
f 198/198/198 184/184/184 183/183/183
f 199/199/199 193/193/193 194/194/194
f 197/197/197 193/193/193 199/199/199
f 200/200/200 195/195/195 197/197/197
f 195/195/195 200/200/200 201/201/201
f 200/200/200 197/197/197 202/202/202
f 202/202/202 197/197/197 199/199/199
f 199/199/199 194/194/194 203/203/203
f 203/203/203 194/194/194 198/198/198
f 198/198/198 183/183/183 204/204/204
f 204/204/204 183/183/183 181/181/181
f 205/205/205 200/200/200 202/202/202
f 200/200/200 205/205/205 206/206/206
f 202/202/202 199/199/199 207/207/207
f 207/207/207 199/199/199 203/203/203
f 203/203/203 198/198/198 208/208/208
f 208/208/208 198/198/198 204/204/204
f 204/204/204 181/181/181 209/209/209
f 209/209/209 181/181/181 182/182/182
f 209/209/209 182/182/182 210/210/210
f 205/205/205 202/202/202 211/211/211
f 211/211/211 202/202/202 207/207/207
f 207/207/207 203/203/203 212/212/212
f 212/212/212 203/203/203 208/208/208
f 213/213/213 204/204/204 209/209/209
f 208/208/208 204/204/204 213/213/213
f 214/214/214 209/209/209 210/210/210
f 213/213/213 209/209/209 214/214/214
f 214/214/214 210/210/210 215/215/215
f 216/216/216 208/208/208 213/213/213
f 212/212/212 208/208/208 216/216/216
f 217/217/217 207/207/207 212/212/212
f 211/211/211 207/207/207 217/217/217
f 218/218/218 205/205/205 211/211/211
f 205/205/205 218/218/218 219/219/219
f 220/220/220 214/214/214 215/215/215
f 220/220/220 215/215/215 221/221/221
f 222/222/222 213/213/213 214/214/214
f 216/216/216 213/213/213 222/222/222
f 222/222/222 214/214/214 220/220/220
f 223/223/223 212/212/212 216/216/216
f 217/217/217 212/212/212 223/223/223
f 224/224/224 211/211/211 217/217/217
f 218/218/218 211/211/211 224/224/224
f 225/225/225 220/220/220 221/221/221
f 225/225/225 221/221/221 226/226/226
f 227/227/227 222/222/222 220/220/220
f 227/227/227 220/220/220 225/225/225
f 228/228/228 216/216/216 222/222/222
f 223/223/223 216/216/216 228/228/228
f 228/228/228 222/222/222 227/227/227
f 229/229/229 217/217/217 223/223/223
f 224/224/224 217/217/217 229/229/229
f 230/230/230 218/218/218 224/224/224
f 218/218/218 230/230/230 231/231/231
f 232/232/232 225/225/225 226/226/226
f 232/232/232 226/226/226 233/233/233
f 234/234/234 227/227/227 225/225/225
f 234/234/234 225/225/225 232/232/232
f 235/235/235 228/228/228 227/227/227
f 235/235/235 227/227/227 234/234/234
f 236/236/236 223/223/223 228/228/228
f 229/229/229 223/223/223 236/236/236
f 236/236/236 228/228/228 235/235/235
f 237/237/237 224/224/224 229/229/229
f 230/230/230 224/224/224 237/237/237
f 238/238/238 232/232/232 233/233/233
f 238/238/238 233/233/233 239/239/239
f 240/240/240 238/238/238 239/239/239
f 241/241/241 234/234/234 232/232/232
f 241/241/241 232/232/232 238/238/238
f 242/242/242 238/238/238 240/240/240
f 242/242/242 241/241/241 238/238/238
f 243/243/243 242/242/242 240/240/240
f 244/244/244 235/235/235 234/234/234
f 244/244/244 234/234/234 241/241/241
f 245/245/245 236/236/236 235/235/235
f 245/245/245 235/235/235 244/244/244
f 246/246/246 242/242/242 243/243/243
f 247/247/247 246/246/246 243/243/243
f 248/248/248 241/241/241 242/242/242
f 248/248/248 244/244/244 241/241/241
f 246/246/246 248/248/248 242/242/242
f 249/249/249 246/246/246 247/247/247
f 250/250/250 249/249/249 247/247/247
f 251/251/251 244/244/244 248/248/248
f 251/251/251 245/245/245 244/244/244
f 252/252/252 248/248/248 246/246/246
f 249/249/249 252/252/252 246/246/246
f 252/252/252 251/251/251 248/248/248
f 253/253/253 236/236/236 245/245/245
f 253/253/253 229/229/229 236/236/236
f 237/237/237 229/229/229 253/253/253
f 254/254/254 249/249/249 250/250/250
f 255/255/255 254/254/254 250/250/250
f 256/256/256 245/245/245 251/251/251
f 256/256/256 253/253/253 245/245/245
f 257/257/257 252/252/252 249/249/249
f 254/254/254 257/257/257 249/249/249
f 258/258/258 251/251/251 252/252/252
f 258/258/258 256/256/256 251/251/251
f 257/257/257 258/258/258 252/252/252
f 259/259/259 237/237/237 253/253/253
f 259/259/259 253/253/253 256/256/256
f 260/260/260 254/254/254 255/255/255
f 261/261/261 260/260/260 255/255/255
f 262/262/262 256/256/256 258/258/258
f 262/262/262 259/259/259 256/256/256
f 263/263/263 257/257/257 254/254/254
f 260/260/260 263/263/263 254/254/254
f 264/264/264 258/258/258 257/257/257
f 264/264/264 262/262/262 258/258/258
f 263/263/263 264/264/264 257/257/257
f 265/265/265 237/237/237 259/259/259
f 265/265/265 230/230/230 237/237/237
f 230/230/230 265/265/265 266/266/266
f 267/267/267 265/265/265 259/259/259
f 267/267/267 259/259/259 262/262/262
f 265/265/265 267/267/267 268/268/268
f 269/269/269 267/267/267 262/262/262
f 269/269/269 262/262/262 264/264/264
f 267/267/267 269/269/269 270/270/270
f 271/271/271 269/269/269 264/264/264
f 271/271/271 264/264/264 263/263/263
f 269/269/269 271/271/271 272/272/272
f 273/273/273 271/271/271 263/263/263
f 271/271/271 273/273/273 274/274/274
f 273/273/273 263/263/263 260/260/260
f 275/275/275 273/273/273 260/260/260
f 273/273/273 275/275/275 276/276/276
f 275/275/275 260/260/260 261/261/261
f 277/277/277 275/275/275 261/261/261
f 275/275/275 277/277/277 278/278/278
