g square002
v -1.22378409 1.8450886 1.22378409
v -1.22378433 0.00508868694 1.22378433
v 1.22378433 0.00508862734 1.22378433
v 1.22378409 1.8450886 1.22378409
v 1.22378409 1.8450886 1.22378409
v 1.22378433 0.00508862734 1.22378433
v 1.22378433 0.00508856773 -1.22378433
v 1.22378409 1.8450886 -1.22378409
v 1.22378409 1.8450886 -1.22378409
v 1.22378433 0.00508856773 -1.22378433
v -1.22378433 0.00508868694 -1.22378433
v -1.22378409 1.8450886 -1.22378409
v -1.22378409 1.8450886 -1.22378409
v -1.22378433 0.00508868694 -1.22378433
v -1.22378433 0.00508868694 1.22378433
v -1.22378409 1.8450886 1.22378409
vt 0 1
vt 1 1
vt 1 0.75
vt 0 0.75
vt 0 0.75
vt 1 0.75
vt 1 0.5
vt 0 0.5
vt 0 0.5
vt 1 0.5
vt 1 0.25
vt 0 0.25
vt 0 0.25
vt 1 0.25
vt 1 2.98023224E-08
vt 0 0
vn -0 -1.5882128E-07 -1
vn -0 -1.5882128E-07 -1
vn -0 -1.5882128E-07 -1
vn -0 -1.5882128E-07 -1
vn -1 -1.29575326E-07 0
vn -1 -1.29575326E-07 0
vn -1 -1.29575326E-07 0
vn -1 -1.29575326E-07 0
vn -0 -1.5882128E-07 1
vn -0 -1.5882128E-07 1
vn -0 -1.5882128E-07 1
vn -0 -1.5882128E-07 1
vn 1 -1.29575326E-07 0
vn 1 -1.29575326E-07 0
vn 1 -1.29575326E-07 0
vn 1 -1.29575326E-07 0
g square002_0
f 3/3/3 2/2/2 1/1/1
f 4/4/4 3/3/3 1/1/1
f 7/7/7 6/6/6 5/5/5
f 8/8/8 7/7/7 5/5/5
f 11/11/11 10/10/10 9/9/9
f 12/12/12 11/11/11 9/9/9
f 15/15/15 14/14/14 13/13/13
f 16/16/16 15/15/15 13/13/13
