g V_wurenji_dianliu_01
v 0.548843682 0.280760407 0
v 0.537870705 0.30709061 0
v 0.39643997 0.306545287 0
v 0.39643997 0.279187113 0
v 0.246168256 0.306545287 0
v 0.246168256 0.279187113 0
v 0.11776036 0.306545287 0
v 0.11776036 0.279187113 0
v 0.117171884 0.263625413 0
v 0.117171884 0.322107017 0
v 0.00327652693 0.263625413 0
v 0.00327652693 0.322107017 0
v 0.548843682 0.280760407 0
v 0.617697775 0.351379991 0
v 0.606724799 0.377710223 0
v 0.537870705 0.30709061 0
v 0.617697775 0.351379991 0
v 0.753518641 0.377040029 0
v 0.606724799 0.377710223 0
v 0.754015267 0.350284666 0
v 0.930971682 0.377040029 0
v 0.931468308 0.350284666 0
v 1.15977931 0.377040029 0
v 1.16027594 0.350284666 0
v 0.979670584 0.246558517 0
v 1.20847797 0.246558517 0
v 1.20798135 0.27331391 0
v 0.979173958 0.27331391 0
v 0.802217424 0.246558517 0
v 0.801720917 0.27331391 0
v 0.663459361 0.247653842 0
v 0.652486384 0.273984075 0
v 0.604367673 0.189237326 0
v 0.593394816 0.215567529 0
v 0.39643997 0.215022236 0
v 0.39643997 0.187664062 0
v 0.246168256 0.215022236 0
v 0.246168256 0.187664062 0
v 0.11776036 0.215022236 0
v 0.11776036 0.187664062 0
v 0.117171884 0.172102332 0
v 0.117171884 0.230583936 0
v 0.00327652693 0.172102332 0
v 0.00327652693 0.230583936 0
v 1.03018761 -0.325083047 0
v 1.23093009 -0.325083047 0
v 1.23043346 -0.298327714 0
v 1.02969098 -0.298327714 0
v 0.852734625 -0.325083047 0
v 0.852237999 -0.298327714 0
v 0.700892031 -0.323987752 -0.00192900712
v 0.852734625 -0.325083047 0
v 0.852237999 -0.298327714 0
v 0.711164415 -0.29765752 0.00192900712
v 0.642366588 -0.268962175 -0.00192900712
v 0.700892031 -0.323987752 -0.00192900712
v 0.711164415 -0.29765752 0.00192900712
v 0.652638972 -0.242632002 0.00192900712
v 0.39643997 -0.270535439 0
v 0.39643997 -0.243177265 0
v 0.246168256 -0.243177265 0
v 0.246168256 -0.270535439 0
v 0.11776036 -0.243177265 0
v 0.11776036 -0.270535439 0
v 0.117171884 -0.286097199 0
v 0.117171884 -0.227615565 0
v 0.00327652693 -0.286097199 0
v 0.00327652693 -0.227615565 0
v 0.642366588 -0.268962175 -0.00192900712
v 0.652638972 -0.242632002 0.00192900712
v 0.39643997 -0.243177265 0
v 0.39643997 -0.270535439 0
v 1.00714469 -0.412823409 0
v 1.20788717 -0.412823409 0
v 1.20739055 -0.386068076 0
v 1.0066483 -0.386068076 0
v 0.829691708 -0.412823409 0
v 0.829195082 -0.386068076 0
v 0.677849114 -0.411728114 -0.00192900712
v 0.829691708 -0.412823409 0
v 0.829195082 -0.386068076 0
v 0.688121498 -0.385397881 0.00192900712
v 0.623287261 -0.356702536 -0.00192900712
v 0.677849114 -0.411728114 -0.00192900712
v 0.688121498 -0.385397881 0.00192900712
v 0.633559525 -0.330372304 0.00192900712
v 0.39643997 -0.358275801 0
v 0.39643997 -0.330917627 0
v 0.246168256 -0.330917627 0
v 0.246168256 -0.358275801 0
v 0.11776036 -0.330917627 0
v 0.11776036 -0.358275801 0
v 0.117171884 -0.37383756 0
v 0.117171884 -0.315355927 0
v 0.00327652693 -0.37383756 0
v 0.00327652693 -0.315355927 0
v 0.623287261 -0.356702536 -0.00192900712
v 0.633559525 -0.330372304 0.00192900712
v 0.39643997 -0.330917627 0
v 0.39643997 -0.358275801 0
vt 0.55529815 0.847857893
vt 0.555009067 0.962137818
vt 0.451663315 0.962137818
vt 0.451952398 0.847857893
vt 0.348317564 0.962137818
vt 0.348606706 0.847857893
vt 0.244971871 0.962137818
vt 0.245260954 0.847857893
vt 0.141915202 0.847857893
vt 0.14162612 0.962137818
vt 0.0385694504 0.847857893
vt 0.0382803679 0.962137818
vt 0.55529815 0.847857893
vt 0.658643901 0.847857893
vt 0.658354759 0.962137818
vt 0.555009067 0.962137818
vt 0.658643901 0.847857893
vt 0.761700511 0.962137818
vt 0.658354759 0.962137818
vt 0.761989594 0.847857893
vt 0.865046263 0.962137818
vt 0.865335345 0.847857893
vt 0.968392015 0.962137818
vt 0.968681097 0.847857893
vt 0.835326612 0.683540404
vt 0.927312791 0.683540404
vt 0.927055478 0.79782033
vt 0.835069299 0.79782033
vt 0.743340433 0.683540404
vt 0.743083119 0.79782033
vt 0.651354313 0.683540404
vt 0.65109694 0.79782033
vt 0.559368134 0.683540404
vt 0.559110761 0.79782033
vt 0.467124641 0.79782033
vt 0.467381954 0.683540404
vt 0.375138462 0.79782033
vt 0.375395834 0.683540404
vt 0.283152282 0.79782033
vt 0.283409595 0.683540404
vt 0.191423446 0.683540404
vt 0.191166103 0.79782033
vt 0.099437207 0.683540404
vt 0.0991799235 0.79782033
vt 0.780421138 0.200166166
vt 0.87234509 0.200166166
vt 0.872087955 0.314446151
vt 0.780164003 0.314446151
vt 0.688497186 0.200166166
vt 0.688240051 0.314446151
vt 0.596573353 0.200166166
vt 0.688497186 0.200166166
vt 0.688240051 0.314446151
vt 0.596316159 0.314446151
vt 0.504649401 0.200166166
vt 0.596573353 0.200166166
vt 0.596316159 0.314446151
vt 0.504392266 0.314446151
vt 0.412725449 0.200166166
vt 0.412468314 0.314446151
vt 0.320544392 0.314446151
vt 0.320801556 0.200166166
vt 0.228620499 0.314446151
vt 0.228877634 0.200166166
vt 0.136953712 0.200166166
vt 0.136696577 0.314446151
vt 0.0450297594 0.200166166
vt 0.044772625 0.314446151
vt 0.504649401 0.200166166
vt 0.504392266 0.314446151
vt 0.412468314 0.314446151
vt 0.412725449 0.200166166
vt 0.873728752 0.0318001062
vt 0.970546603 0.0318001062
vt 0.970275819 0.138861522
vt 0.873457909 0.138861522
vt 0.776910841 0.0318001062
vt 0.776639998 0.138861522
vt 0.68009299 0.0318001062
vt 0.776910841 0.0318001062
vt 0.776639998 0.138861522
vt 0.679822087 0.138861522
vt 0.58327508 0.0318001062
vt 0.68009299 0.0318001062
vt 0.679822087 0.138861522
vt 0.583004296 0.138861522
vt 0.486457199 0.0318001062
vt 0.486186385 0.138861522
vt 0.389368474 0.138861522
vt 0.389639348 0.0318001062
vt 0.292550623 0.138861522
vt 0.292821467 0.0318001062
vt 0.196003556 0.0318001062
vt 0.195732743 0.138861522
vt 0.0991856456 0.0318001062
vt 0.0989148319 0.138861522
vt 0.58327508 0.0318001062
vt 0.583004296 0.138861522
vt 0.486186385 0.138861522
vt 0.486457199 0.0318001062
vn -0 0 -1
vn -0 0 -1
vn -0 0 -1
vn -0 0 -1
vn -0 0 -1
vn -0 0 -1
vn -0 0 -1
vn -0 0 -1
vn -0 0 -1
vn -0 0 -1
vn -0 0 -1
vn -0 0 -1
vn -0 0 -1
vn -0 0 -1
vn -0 0 -1
vn -0 0 -1
vn -0 0 -1
vn -0 0 -1
vn -0 0 -1
vn -0 0 -1
vn -0 0 -1
vn -0 0 -1
vn -0 0 -1
vn -0 0 -1
vn -0 0 -1
vn -0 0 -1
vn -0 0 -1
vn -0 0 -1
vn -0 0 -1
vn -0 0 -1
vn -0 0 -1
vn -0 0 -1
vn -0 0 -1
vn -0 0 -1
vn -0 0 -1
vn -0 0 -1
vn -0 0 -1
vn -0 0 -1
vn -0 0 -1
vn -0 0 -1
vn -0 0 -1
vn -0 0 -1
vn -0 0 -1
vn -0 0 -1
vn -0 0 -1
vn -0 0 -1
vn -0 0 -1
vn -0 0 -1
vn -0 0 -1
vn -0 0 -1
vn 0.000436401577 0.0724043474 -0.99737525
vn 0.000436401577 0.0724043474 -0.99737525
vn 0.000436401577 0.0724043474 -0.99737525
vn 0.000436401577 0.0724043474 -0.99737525
vn 0.0997174084 0.106059901 -0.9893471
vn 0.0997174084 0.106059901 -0.9893471
vn 0.0997174084 0.106059901 -0.9893471
vn 0.0997174084 0.106059901 -0.9893471
vn -0 0 -1
vn -0 0 -1
vn -0 0 -1
vn -0 0 -1
vn -0 0 -1
vn -0 0 -1
vn -0 0 -1
vn -0 0 -1
vn -0 0 -1
vn -0 0 -1
vn -0.000302646629 0.0717321709 -0.997423887
vn -0.000302646629 0.0717321709 -0.997423887
vn -0.000302646629 0.0717321709 -0.997423887
vn -0.000302646629 0.0717321709 -0.997423887
vn -0 0 -1
vn -0 0 -1
vn -0 0 -1
vn -0 0 -1
vn -0 0 -1
vn -0 0 -1
vn 0.000436401111 0.0724042729 -0.99737525
vn 0.000436401111 0.0724042729 -0.99737525
vn 0.000436401111 0.0724042729 -0.99737525
vn 0.000436401111 0.0724042729 -0.99737525
vn 0.104882665 0.10399884 -0.989031732
vn 0.104882665 0.10399884 -0.989031732
vn 0.104882665 0.10399884 -0.989031732
vn 0.104882665 0.10399884 -0.989031732
vn -0 0 -1
vn -0 0 -1
vn -0 0 -1
vn -0 0 -1
vn -0 0 -1
vn -0 0 -1
vn -0 0 -1
vn -0 0 -1
vn -0 0 -1
vn -0 0 -1
vn -0.000327568239 0.0717368573 -0.99742353
vn -0.000327568239 0.0717368573 -0.99742353
vn -0.000327568239 0.0717368573 -0.99742353
vn -0.000327568239 0.0717368573 -0.99742353
g V_wurenji_dianliu_01_0
f 3/3/3 2/2/2 1/1/1
f 4/4/4 3/3/3 1/1/1
f 5/5/5 3/3/3 4/4/4
f 6/6/6 5/5/5 4/4/4
f 7/7/7 5/5/5 6/6/6
f 8/8/8 7/7/7 6/6/6
f 8/8/8 9/9/9 7/7/7
f 9/9/9 10/10/10 7/7/7
f 9/9/9 11/11/11 10/10/10
f 11/11/11 12/12/12 10/10/10
f 15/15/15 14/14/14 13/13/13
f 16/16/16 15/15/15 13/13/13
f 19/19/19 18/18/18 17/17/17
f 18/18/18 20/20/20 17/17/17
f 18/18/18 21/21/21 20/20/20
f 21/21/21 22/22/22 20/20/20
f 21/21/21 23/23/23 22/22/22
f 23/23/23 24/24/24 22/22/22
f 27/27/27 26/26/26 25/25/25
f 28/28/28 27/27/27 25/25/25
f 28/28/28 25/25/25 29/29/29
f 30/30/30 28/28/28 29/29/29
f 30/30/30 29/29/29 31/31/31
f 32/32/32 30/30/30 31/31/31
f 32/32/32 31/31/31 33/33/33
f 34/34/34 32/32/32 33/33/33
f 35/35/35 34/34/34 33/33/33
f 36/36/36 35/35/35 33/33/33
f 37/37/37 35/35/35 36/36/36
f 38/38/38 37/37/37 36/36/36
f 39/39/39 37/37/37 38/38/38
f 40/40/40 39/39/39 38/38/38
f 40/40/40 41/41/41 39/39/39
f 41/41/41 42/42/42 39/39/39
f 41/41/41 43/43/43 42/42/42
f 43/43/43 44/44/44 42/42/42
f 47/47/47 46/46/46 45/45/45
f 48/48/48 47/47/47 45/45/45
f 48/48/48 45/45/45 49/49/49
f 50/50/50 48/48/48 49/49/49
f 53/53/53 52/52/52 51/51/51
f 54/54/54 53/53/53 51/51/51
f 57/57/57 56/56/56 55/55/55
f 58/58/58 57/57/57 55/55/55
f 61/61/61 60/60/60 59/59/59
f 62/62/62 61/61/61 59/59/59
f 63/63/63 61/61/61 62/62/62
f 64/64/64 63/63/63 62/62/62
f 64/64/64 65/65/65 63/63/63
f 65/65/65 66/66/66 63/63/63
f 65/65/65 67/67/67 66/66/66
f 67/67/67 68/68/68 66/66/66
f 71/71/71 70/70/70 69/69/69
f 72/72/72 71/71/71 69/69/69
f 75/75/75 74/74/74 73/73/73
f 76/76/76 75/75/75 73/73/73
f 76/76/76 73/73/73 77/77/77
f 78/78/78 76/76/76 77/77/77
f 81/81/81 80/80/80 79/79/79
f 82/82/82 81/81/81 79/79/79
f 85/85/85 84/84/84 83/83/83
f 86/86/86 85/85/85 83/83/83
f 89/89/89 88/88/88 87/87/87
f 90/90/90 89/89/89 87/87/87
f 91/91/91 89/89/89 90/90/90
f 92/92/92 91/91/91 90/90/90
f 92/92/92 93/93/93 91/91/91
f 93/93/93 94/94/94 91/91/91
f 93/93/93 95/95/95 94/94/94
f 95/95/95 96/96/96 94/94/94
f 99/99/99 98/98/98 97/97/97
f 100/100/100 99/99/99 97/97/97
