g yuanhuan
v 0.273084015 1.62489229E-07 -4.99999999E-07
v 0.425604492 2.4216726E-07 -4.99999999E-07
v 0.265684158 -0.0633103028 -4.93664345E-07
v 0.414093435 -0.0984838679 -4.92126844E-07
v 0.243883312 -0.123207703 -4.87477848E-07
v 0.380180627 -0.191658691 -4.84485781E-07
v 0.208856851 -0.176462933 -4.81581765E-07
v 0.325694382 -0.274501145 -4.77296396E-07
v 0.16249302 -0.220204994 -4.76101462E-07
v 0.253571987 -0.342545152 -4.70753832E-07
v 0.107291296 -0.252075762 -4.71140112E-07
v 0.167701647 -0.392122477 -4.65018474E-07
v 0.0462276451 -0.270357043 -4.66772747E-07
v 0.0727126673 -0.42056036 -4.6020719E-07
v -0.0174059682 -0.274063319 -4.63042511E-07
v -0.0262741465 -0.426325738 -4.56386914E-07
v -0.0801790431 -0.262994766 -4.59958102E-07
v -0.123922326 -0.409107804 -4.53571289E-07
v -0.138707504 -0.237748101 -4.574934E-07
v -0.214967653 -0.369834751 -4.517197E-07
v -0.18983604 -0.199684367 -4.55588946E-07
v -0.294501871 -0.310623825 -4.50739634E-07
v -0.230808288 -0.150855586 -4.54155071E-07
v -0.358237267 -0.234667033 -4.50491569E-07
v -0.259415418 -0.0938941389 -4.53076694E-07
v -0.402737796 -0.146059275 -4.50796506E-07
v -0.274115264 -0.0318708308 -4.52219552E-07
v -0.425604463 -0.0495774411 -4.51445572E-07
v -0.274115294 0.0318706445 -4.51437558E-07
v -0.425604492 0.0495771356 -4.52211538E-07
v -0.259415507 0.0938939676 -4.50580387E-07
v -0.402737916 0.146058992 -4.52860604E-07
v -0.230808407 0.150855437 -4.49502039E-07
v -0.358237445 0.23466678 -4.53165541E-07
v -0.189836189 0.199684247 -4.48068164E-07
v -0.294502139 0.310623586 -4.52917476E-07
v -0.138707712 0.237748027 -4.4616371E-07
v -0.214967996 0.369834572 -4.5193741E-07
v -0.0801792666 0.262994736 -4.43699065E-07
v -0.123922691 0.409107745 -4.50085849E-07
v -0.0174061954 0.274063349 -4.40614599E-07
v -0.0262745284 0.426325738 -4.47270196E-07
v 0.0462274142 0.270357132 -4.36884363E-07
v 0.0727122873 0.420560509 -4.43449949E-07
v 0.107291065 0.252075881 -4.32516998E-07
v 0.167701304 0.392122656 -4.38638665E-07
v 0.162492827 0.220205173 -4.27555619E-07
v 0.253571689 0.34254539 -4.32903306E-07
v 0.208856687 0.176463142 -4.22075374E-07
v 0.325694144 0.274501473 -4.26360771E-07
v 0.243883207 0.123207949 -4.16179233E-07
v 0.380180478 0.191659063 -4.19171329E-07
v 0.265684098 0.063310571 -4.09992822E-07
v 0.414093345 0.0984842628 -4.11530294E-07
v 0.273084015 1.14489254E-07 -4.03657168E-07
v 0.425604492 1.67499763E-07 -4.03657168E-07
vt 1.64904861E-07 -1.78813934E-07
vt 2.08616257E-07 0.999999821
vt 0.0370372012 -1.78813934E-07
vt 0.0370372459 0.999999821
vt 0.0740742385 -1.78813934E-07
vt 0.0740742832 0.999999821
vt 0.111111276 -1.78813934E-07
vt 0.111111321 0.999999821
vt 0.148148313 -1.78813934E-07
vt 0.148148358 0.999999821
vt 0.185185358 -1.78813934E-07
vt 0.185185403 0.999999821
vt 0.222222403 -1.78813934E-07
vt 0.222222447 0.999999821
vt 0.259259462 -1.78813934E-07
vt 0.259259492 0.999999821
vt 0.296296507 -1.78813934E-07
vt 0.296296537 0.999999821
vt 0.333333552 -1.78813934E-07
vt 0.333333582 0.999999821
vt 0.370370597 -1.78813934E-07
vt 0.370370626 0.999999821
vt 0.407407641 -1.78813934E-07
vt 0.407407671 0.999999821
vt 0.444444686 -1.78813934E-07
vt 0.444444716 0.999999821
vt 0.481481731 -1.78813934E-07
vt 0.481481761 0.999999821
vt 0.518518686 -1.78813934E-07
vt 0.518518806 0.999999821
vt 0.555555701 -1.78813934E-07
vt 0.55555582 0.999999821
vt 0.592592716 -1.78813934E-07
vt 0.592592835 0.999999821
vt 0.629629731 -1.78813934E-07
vt 0.62962985 0.999999821
vt 0.666666746 -1.78813934E-07
vt 0.666666865 0.999999821
vt 0.703703761 -1.78813934E-07
vt 0.70370388 0.999999762
vt 0.740740776 -1.78813934E-07
vt 0.740740895 0.999999762
vt 0.777777791 -1.78813934E-07
vt 0.77777791 0.999999762
vt 0.814814806 -1.78813934E-07
vt 0.814814925 0.999999762
vt 0.851851821 -1.78813934E-07
vt 0.85185194 0.999999762
vt 0.888888836 -1.78813934E-07
vt 0.888888955 0.999999762
vt 0.925925851 -1.78813934E-07
vt 0.92592597 0.999999762
vt 0.962962866 -1.78813934E-07
vt 0.962962985 0.999999762
vt 0.999999881 -1.78813934E-07
vt 1 0.999999762
vn -0 1.00072569E-07 1
vn -0 0 1
vn -0 0 1
vn -0 0 1
vn -0 0 1
vn -0 0 1
vn -0 0 1
vn -0 0 1
vn -0 0 1
vn -0 0 1
vn -0 0 1
vn -0 0 1
vn -0 0 1
vn -0 0 1
vn -0 0 1
vn -0 0 1
vn -0 0 1
vn -0 0 1
vn -0 0 1
vn -0 0 1
vn -0 0 1
vn -0 0 1
vn -0 0 1
vn -0 0 1
vn -0 0 1
vn -0 0 1
vn -0 0 1
vn -0 0 1
vn -0 0 1
vn -0 0 1
vn -0 0 1
vn -0 0 1
vn -0 0 1
vn -0 0 1
vn -0 0 1
vn -0 0 1
vn -0 0 1
vn -0 0 1
vn -0 0 1
vn -0 0 1
vn -0 0 1
vn -0 0 1
vn -0 0 1
vn -0 0 1
vn -0 0 1
vn -0 0 1
vn -0 0 1
vn -0 0 1
vn -0 0 1
vn -0 0 1
vn -0 0 1
vn -0 0 1
vn -0 0 1
vn -0 0 1
vn -0 0 1
vn -0 0 1
g yuanhuan_0
f 3/3/3 2/2/2 1/1/1
f 2/2/2 3/3/3 4/4/4
f 5/5/5 4/4/4 3/3/3
f 4/4/4 5/5/5 6/6/6
f 7/7/7 6/6/6 5/5/5
f 6/6/6 7/7/7 8/8/8
f 9/9/9 8/8/8 7/7/7
f 8/8/8 9/9/9 10/10/10
f 11/11/11 10/10/10 9/9/9
f 10/10/10 11/11/11 12/12/12
f 13/13/13 12/12/12 11/11/11
f 12/12/12 13/13/13 14/14/14
f 15/15/15 14/14/14 13/13/13
f 14/14/14 15/15/15 16/16/16
f 17/17/17 16/16/16 15/15/15
f 16/16/16 17/17/17 18/18/18
f 19/19/19 18/18/18 17/17/17
f 18/18/18 19/19/19 20/20/20
f 21/21/21 20/20/20 19/19/19
f 20/20/20 21/21/21 22/22/22
f 23/23/23 22/22/22 21/21/21
f 22/22/22 23/23/23 24/24/24
f 25/25/25 24/24/24 23/23/23
f 24/24/24 25/25/25 26/26/26
f 27/27/27 26/26/26 25/25/25
f 26/26/26 27/27/27 28/28/28
f 29/29/29 28/28/28 27/27/27
f 28/28/28 29/29/29 30/30/30
f 31/31/31 30/30/30 29/29/29
f 30/30/30 31/31/31 32/32/32
f 33/33/33 32/32/32 31/31/31
f 32/32/32 33/33/33 34/34/34
f 35/35/35 34/34/34 33/33/33
f 34/34/34 35/35/35 36/36/36
f 37/37/37 36/36/36 35/35/35
f 36/36/36 37/37/37 38/38/38
f 39/39/39 38/38/38 37/37/37
f 38/38/38 39/39/39 40/40/40
f 41/41/41 40/40/40 39/39/39
f 40/40/40 41/41/41 42/42/42
f 43/43/43 42/42/42 41/41/41
f 42/42/42 43/43/43 44/44/44
f 45/45/45 44/44/44 43/43/43
f 44/44/44 45/45/45 46/46/46
f 47/47/47 46/46/46 45/45/45
f 46/46/46 47/47/47 48/48/48
f 49/49/49 48/48/48 47/47/47
f 48/48/48 49/49/49 50/50/50
f 51/51/51 50/50/50 49/49/49
f 50/50/50 51/51/51 52/52/52
f 53/53/53 52/52/52 51/51/51
f 52/52/52 53/53/53 54/54/54
f 55/55/55 54/54/54 53/53/53
f 54/54/54 55/55/55 56/56/56
