g zap3
v -1.05017257 0.611922026 -2.95400381
v -1.23480022 0.76403141 -2.70822477
v -1.09987581 0.612581015 -2.95677209
v -1.16588402 0.756345809 -2.69377255
v -0.977989316 0.585607409 -2.96550608
v -0.988356352 0.635237813 -2.45963502
v -1.10974407 0.751778483 -2.70958114
v -0.900393307 0.559868455 -2.96589613
v -1.01300049 0.685670495 -2.44724894
v -0.921233296 0.6406129 -2.18997312
v -1.03408265 0.734794855 -2.71907735
v -0.882309139 0.590909958 -2.9536705
v -0.955440879 0.720467091 -2.70942044
v -1.02573276 0.727078795 -2.44794703
v -0.895450175 0.66083312 -2.18890405
v -1.43768513 0.457838029 -1.91028535
v -1.04906595 0.772596657 -2.46269035
v -1.10735619 0.841922641 -2.45806384
v -0.94289726 0.717573941 -2.19155145
v -1.4404825 0.493292511 -1.91186774
v -1.85937214 0.720225096 -1.62756264
v -0.971237481 0.76290673 -2.20819855
v -0.963660955 0.791602731 -2.21312809
v -1.4575063 0.535712242 -1.92137611
v -1.8367008 0.741463363 -1.62523019
v -1.64495051 0.392732531 -1.34018838
v -1.46310019 0.570387065 -1.93883789
v -1.44338608 0.592522085 -1.94390225
v -1.79020774 0.742150187 -1.62606156
v -1.6055702 0.407761782 -1.32354164
v -1.30236602 0.210814163 -1.06685853
v -1.71920609 0.719870806 -1.64251947
v -1.70848799 0.748636246 -1.6469394
v -1.5426116 0.400589019 -1.3330617
v -1.25618303 0.219045252 -1.06333351
v -1.1804682 0.318471372 -0.789745569
v -1.4882797 0.398557633 -1.34657907
v -1.47530627 0.428800553 -1.33534169
v -1.19106054 0.212825567 -1.07460964
v -1.17155945 0.341939092 -0.81551224
v -1.13064754 0.176291183 -0.505800128
v -1.15541327 0.226460785 -1.07538593
v -1.10989594 0.236850843 -1.06508696
v -1.131827 0.348998159 -0.828249812
v -1.15253448 0.223554954 -0.522063494
v -1.24195445 0.421509832 -0.240975216
v -1.09678304 0.363731831 -0.822562158
v -1.11632395 0.414095938 -0.813849509
v -1.14789271 0.247207686 -0.559828222
v -1.22603226 0.442374945 -0.257873416
v -1.00823438 0.563244581 -0.00586398318
v -1.15994489 0.289408654 -0.56938231
v -1.18762255 0.343502432 -0.574725747
v -1.21894634 0.46565181 -0.28878817
v -1.02253377 0.612606943 -0.00164679869
v -0.728574753 0.200462222 -0.0337444507
v -1.21475458 0.494241536 -0.308934629
v -1.27196848 0.574789643 -0.30890286
v -0.993439138 0.62312448 -0.0197887141
v -0.684883118 0.2086519 -0.0343017802
v -0.421360373 0.0721192881 -0.0379670635
v -0.933589041 0.609392345 -0.0439260006
v -0.893445551 0.618280053 -0.0418947302
v -0.615554154 0.203454435 -0.0300303362
v -0.399178475 0.0970574915 -0.0301621128
v -0.234174311 0.0128902495 -0.092612952
v -0.564618409 0.211714745 -0.0204173587
v -0.557067275 0.246247083 -0.00786269829
v -0.362006932 0.10927017 -0.0358350202
v -0.20395112 0.0297075864 -0.0965390652
v -0.0600874163 -0.0922636539 -0.0906886458
v -0.0608298145 -0.048853267 -0.0643542111
v -0.370232642 0.147520453 -0.0327173807
v -0.328958362 0.157190889 -0.0394820869
v -0.213607594 0.0791349486 -0.065121606
v -0.0835416019 0.00087063486 -0.0402611084
v -0.241210803 0.135326624 -0.0373426825
v -0.22975032 0.16652438 -0.0271495059
v -0.0932289958 0.0453034826 -0.0183426794
v -0.0653835088 0.0817685574 0.0129100643
vt 0.99999994 0.75
vt 0.933333278 1
vt 0.99999994 1
vt 0.933333278 0.75
vt 1 0.5
vt 0.866666615 1
vt 0.933333278 0.5
vt 1 0.25000003
vt 0.866666615 0.75
vt 0.799999952 1
vt 0.933333337 0.25000003
vt 1 2.98023224E-08
vt 0.933333337 2.68882303E-08
vt 0.866666675 0.5
vt 0.799999952 0.75
vt 0.73333329 1
vt 0.866666675 0.25000003
vt 0.866666675 2.39741365E-08
vt 0.799999952 0.5
vt 0.73333329 0.75
vt 0.666666627 1
vt 0.799999952 0.25
vt 0.799999952 2.10600444E-08
vt 0.73333329 0.5
vt 0.666666627 0.75
vt 0.599999964 1
vt 0.733333349 0.25
vt 0.733333349 1.81459505E-08
vt 0.666666627 0.5
vt 0.599999964 0.75
vt 0.533333302 1
vt 0.666666627 0.25
vt 0.666666627 1.52318584E-08
vt 0.599999964 0.5
vt 0.533333302 0.75
vt 0.466666579 1
vt 0.600000024 0.25
vt 0.600000024 1.23177664E-08
vt 0.533333302 0.5
vt 0.466666579 0.75
vt 0.399999917 1
vt 0.533333302 0.25
vt 0.533333302 9.40367428E-09
vt 0.466666639 0.5
vt 0.399999917 0.75
vt 0.333333254 1
vt 0.466666639 0.25
vt 0.466666639 6.48958043E-09
vt 0.399999976 0.5
vt 0.333333254 0.75
vt 0.266666591 1
vt 0.399999976 0.25
vt 0.399999976 3.57548835E-09
vt 0.333333313 0.5
vt 0.266666591 0.75
vt 0.199999928 1
vt 0.333333313 0.25
vt 0.333333313 6.61396271E-10
vt 0.266666651 0.5
vt 0.199999928 0.75
vt 0.133333266 1
vt 0.266666651 0.25
vt 0.266666651 -2.25269758E-09
vt 0.199999988 0.5
vt 0.133333266 0.75
vt 0.0666666031 1
vt 0.199999988 0.25
vt 0.199999988 -5.16678966E-09
vt 0.133333325 0.5
vt 0.0666666031 0.75
vt 0 1
vt 0 0.75
vt 0.133333325 0.249999985
vt 0.133333325 -8.08088174E-09
vt 0.0666666627 0.5
vt 0 0.5
vt 0.0666666627 0.249999985
vt 0.0666666627 -1.09949738E-08
vt 0 0.249999985
vt 0 -1.39090659E-08
vn 0.116048791 0.877470076 -0.46538046
vn -0.195868433 0.973419249 -0.118702672
vn 0.127602205 0.883416235 -0.450880736
vn -0.420173049 0.890431285 0.174890965
vn 0.180276334 0.862740695 -0.472418159
vn -0.863060117 0.102735385 0.494542927
vn -0.188033447 0.969769597 -0.155532062
vn 0.0874686986 0.856949031 -0.507924855
vn -0.867597342 0.086649701 0.489659607
vn -0.881765842 0.125854656 -0.454587191
vn -0.270513415 0.870732307 -0.41066739
vn -0.0250848923 0.844853163 -0.534409881
vn -0.36865446 0.757347584 -0.538997769
vn -0.921504259 0.166970685 0.350643247
vn -0.918556094 -0.296725631 -0.261167735
vn -0.496160477 0.192193255 -0.846691489
vn -0.976939142 0.208792642 0.0446733534
vn -0.996435285 -0.0835549533 0.0116288709
vn -0.717136502 -0.548186481 -0.430356681
vn -0.478611052 0.0627586097 -0.875781298
vn -0.847609997 0.524738073 0.0787865371
vn -0.839806259 -0.362239301 -0.404361278
vn -0.941756129 -0.319231957 -0.105765536
vn -0.459321827 -0.0202375241 -0.888039351
vn -0.711216271 0.700776041 -0.0555365868
vn -0.431021124 0.428701907 0.793999732
vn -0.515808523 0.0687743574 -0.853938878
vn -0.565994382 0.160801858 -0.808574736
vn -0.326451987 0.94284302 -0.0669048801
vn -0.160698518 0.63445133 0.756073833
vn -0.445008755 0.698935866 0.559871137
vn -0.656226158 0.752576053 -0.0547393896
vn -0.925765872 0.322761863 -0.196932256
vn 0.16796045 0.812195837 0.558683455
vn -0.201780036 0.972184181 0.11892321
vn -0.981414855 0.19102256 -0.0183140207
vn -0.238561764 0.609747529 0.755841374
vn -0.590278864 0.232781008 0.772906184
vn -0.0905725732 0.992497444 0.0821316689
vn -0.403675884 0.912741363 -0.0628408939
vn -0.982249498 -0.166191548 -0.0869841576
vn -0.572564542 0.749218464 0.332928687
vn -0.886570156 0.446073055 0.122524381
vn -0.46174103 0.864447415 -0.198811412
vn -0.990862012 -0.0970431641 -0.0936750695
vn -0.976132691 -0.0343634188 0.214439437
vn -0.909606636 0.326736778 -0.256629676
vn -0.944210529 -0.10252931 -0.312976211
vn -0.801719308 0.58193779 0.136361778
vn -0.971141338 0.212935984 0.107437365
vn -0.337469488 0.0103206336 0.941279888
vn -0.990947425 -0.102006666 -0.0872805193
vn -0.879714966 -0.473887801 -0.0391410291
vn -0.903761625 0.403726429 -0.142196655
vn -0.55085808 0.450652927 0.70247221
vn -0.00169219112 -0.0807149112 0.996735752
vn -0.95983243 -0.0398533717 0.277729303
vn -0.749983549 -0.316603899 0.580763817
vn -0.279353917 0.743508995 0.607582033
vn 0.0332099125 -0.0357320495 0.998809457
vn 0.0455965512 -0.202559993 0.978207767
vn -0.319582254 0.189248219 0.928467691
vn -0.29001689 -0.116232775 0.949936926
vn 0.0644300431 0.0457664356 0.996872246
vn 0.0662241951 -0.160537496 0.984805524
vn 0.0560312867 -0.300440401 0.952153325
vn -0.0176699441 -0.138289869 0.990234137
vn -0.105415843 -0.135172322 0.985198438
vn 0.0716263428 -0.306903332 0.949041665
vn -0.202138513 -0.402918011 0.892634928
vn -0.237244487 -0.234610334 0.942694545
vn -0.314142942 -0.33964026 0.886543095
vn 0.0153422393 -0.207038015 0.978212535
vn -0.0213880185 -0.062908642 0.997790098
vn -0.196824521 -0.486129075 0.851433337
vn -0.45090121 -0.537352979 0.712698996
vn -0.137352154 -0.266306907 0.954051852
vn -0.2229435 -0.213879496 0.95107919
vn -0.39975521 -0.442218661 0.802893817
vn -0.351344913 -0.332094997 0.875368297
g zap3_0
f 3/3/3 2/2/2 1/1/1
f 2/2/2 4/4/4 1/1/1
f 1/1/1 4/4/4 5/5/5
f 2/2/2 6/6/6 4/4/4
f 4/4/4 7/7/7 5/5/5
f 5/5/5 7/7/7 8/8/8
f 6/6/6 9/9/9 4/4/4
f 4/4/4 9/9/9 7/7/7
f 6/6/6 10/10/10 9/9/9
f 7/7/7 11/11/11 8/8/8
f 8/8/8 11/11/11 12/12/12
f 11/11/11 13/13/13 12/12/12
f 9/9/9 14/14/14 7/7/7
f 7/7/7 14/14/14 11/11/11
f 10/10/10 15/15/15 9/9/9
f 9/9/9 15/15/15 14/14/14
f 10/10/10 16/16/16 15/15/15
f 11/11/11 17/17/17 13/13/13
f 14/14/14 17/17/17 11/11/11
f 17/17/17 18/18/18 13/13/13
f 15/15/15 19/19/19 14/14/14
f 14/14/14 19/19/19 17/17/17
f 16/16/16 20/20/20 15/15/15
f 15/15/15 20/20/20 19/19/19
f 16/16/16 21/21/21 20/20/20
f 17/17/17 22/22/22 18/18/18
f 19/19/19 22/22/22 17/17/17
f 22/22/22 23/23/23 18/18/18
f 20/20/20 24/24/24 19/19/19
f 19/19/19 24/24/24 22/22/22
f 21/21/21 25/25/25 20/20/20
f 20/20/20 25/25/25 24/24/24
f 21/21/21 26/26/26 25/25/25
f 22/22/22 27/27/27 23/23/23
f 24/24/24 27/27/27 22/22/22
f 27/27/27 28/28/28 23/23/23
f 25/25/25 29/29/29 24/24/24
f 24/24/24 29/29/29 27/27/27
f 26/26/26 30/30/30 25/25/25
f 25/25/25 30/30/30 29/29/29
f 26/26/26 31/31/31 30/30/30
f 27/27/27 32/32/32 28/28/28
f 29/29/29 32/32/32 27/27/27
f 32/32/32 33/33/33 28/28/28
f 30/30/30 34/34/34 29/29/29
f 29/29/29 34/34/34 32/32/32
f 31/31/31 35/35/35 30/30/30
f 30/30/30 35/35/35 34/34/34
f 31/31/31 36/36/36 35/35/35
f 32/32/32 37/37/37 33/33/33
f 34/34/34 37/37/37 32/32/32
f 37/37/37 38/38/38 33/33/33
f 35/35/35 39/39/39 34/34/34
f 34/34/34 39/39/39 37/37/37
f 36/36/36 40/40/40 35/35/35
f 35/35/35 40/40/40 39/39/39
f 36/36/36 41/41/41 40/40/40
f 37/37/37 42/42/42 38/38/38
f 39/39/39 42/42/42 37/37/37
f 42/42/42 43/43/43 38/38/38
f 40/40/40 44/44/44 39/39/39
f 39/39/39 44/44/44 42/42/42
f 41/41/41 45/45/45 40/40/40
f 40/40/40 45/45/45 44/44/44
f 41/41/41 46/46/46 45/45/45
f 42/42/42 47/47/47 43/43/43
f 44/44/44 47/47/47 42/42/42
f 47/47/47 48/48/48 43/43/43
f 45/45/45 49/49/49 44/44/44
f 44/44/44 49/49/49 47/47/47
f 46/46/46 50/50/50 45/45/45
f 45/45/45 50/50/50 49/49/49
f 46/46/46 51/51/51 50/50/50
f 47/47/47 52/52/52 48/48/48
f 49/49/49 52/52/52 47/47/47
f 52/52/52 53/53/53 48/48/48
f 50/50/50 54/54/54 49/49/49
f 49/49/49 54/54/54 52/52/52
f 51/51/51 55/55/55 50/50/50
f 50/50/50 55/55/55 54/54/54
f 51/51/51 56/56/56 55/55/55
f 52/52/52 57/57/57 53/53/53
f 54/54/54 57/57/57 52/52/52
f 57/57/57 58/58/58 53/53/53
f 55/55/55 59/59/59 54/54/54
f 54/54/54 59/59/59 57/57/57
f 56/56/56 60/60/60 55/55/55
f 55/55/55 60/60/60 59/59/59
f 56/56/56 61/61/61 60/60/60
f 57/57/57 62/62/62 58/58/58
f 59/59/59 62/62/62 57/57/57
f 62/62/62 63/63/63 58/58/58
f 60/60/60 64/64/64 59/59/59
f 59/59/59 64/64/64 62/62/62
f 61/61/61 65/65/65 60/60/60
f 60/60/60 65/65/65 64/64/64
f 61/61/61 66/66/66 65/65/65
f 62/62/62 67/67/67 63/63/63
f 64/64/64 67/67/67 62/62/62
f 67/67/67 68/68/68 63/63/63
f 65/65/65 69/69/69 64/64/64
f 64/64/64 69/69/69 67/67/67
f 66/66/66 70/70/70 65/65/65
f 65/65/65 70/70/70 69/69/69
f 66/66/66 71/71/71 70/70/70
f 71/71/71 72/72/72 70/70/70
f 67/67/67 73/73/73 68/68/68
f 69/69/69 73/73/73 67/67/67
f 73/73/73 74/74/74 68/68/68
f 70/70/70 75/75/75 69/69/69
f 70/70/70 72/72/72 75/75/75
f 69/69/69 75/75/75 73/73/73
f 72/72/72 76/76/76 75/75/75
f 73/73/73 77/77/77 74/74/74
f 75/75/75 77/77/77 73/73/73
f 75/75/75 76/76/76 77/77/77
f 77/77/77 78/78/78 74/74/74
f 76/76/76 79/79/79 77/77/77
f 77/77/77 79/79/79 78/78/78
f 79/79/79 80/80/80 78/78/78
