g A_Hero_MissHot_01_LOD1_lvdai
v 1.04539275 0.28217268 -0.979762316
v 1.06102824 0.0422475822 -0.858203113
v 1.04629934 0.164564937 -0.806268454
v 1.05983472 0.174531475 -1.06796837
v 1.04497087 0.427259773 -1.06050885
v 1.02191722 0.16278182 -1.08271408
v 1.02314961 0.0234400555 -0.865481138
v 0.504810154 0.032843817 -0.859034657
v 0.50359726 0.168656647 -1.07253373
v 1.05925012 0.417289853 -1.19846523
v 1.04503715 0.541725516 -1.047809
v 1.02131021 0.415572733 -1.21748531
v 0.503001451 0.416431308 -1.20516777
v 1.05931258 0.575873613 -1.18650746
v 1.02137208 0.580458581 -1.20563245
v 0.503063679 0.578166068 -1.19326246
v 0.503797412 0.784100652 -1.0528475
v 1.06003654 0.777825594 -1.04796839
v 1.04562318 0.686709881 -0.935677648
v 1.02211571 0.790375531 -1.06334162
v 1.02354789 0.96567291 -0.789242148
v 0.505212605 0.956746936 -0.782025158
v 1.06143463 0.947820842 -0.780423045
v 1.04678071 0.816745877 -0.714139521
v 1.05072391 1.09568858 0.0404525921
v 1.02772129 1.25891078 0.0094149299
v 0.509372354 1.24925494 0.0140345953
v 0.510346591 1.26778436 0.20046787
v 1.06558084 1.23959994 0.0130391978
v 1.05164933 1.09852028 0.217561692
v 1.02871227 1.27747786 0.19906193
v 1.02933145 1.25235689 0.317566037
v 0.510955393 1.24319041 0.316987038
v 0.511730552 1.16078579 0.465329498
v 1.06653821 1.25809085 0.196258739
v 1.06713665 1.23402381 0.310792953
v 1.0301187 1.16873884 0.468218982
v 1.0678997 1.15283275 0.456824929
v 1.05245793 1.02993298 0.372317106
v 1.03083682 1.05039752 0.605636001
v 0.512438178 1.04408014 0.600741565
v 0.514194846 0.642191291 0.936918378
v 1.06859696 1.03776288 0.590232134
v 1.05300605 0.943220317 0.477223665
v 1.03259528 0.647801042 0.9421646
v 1.07035172 0.63658154 0.926057279
v 1.05476987 0.557546735 0.814743042
v 1.0552038 0.389817774 0.897800982
v 1.03315568 0.401114136 1.04938674
v 0.514744997 0.400196761 1.04219365
v 1.07089162 0.399279267 1.02938569
v 1.0551517 0.285215855 0.887830973
v 1.03302538 0.199140474 1.02446306
v 0.514619648 0.202506751 1.01820719
v 1.03237414 0.0669057444 0.899834514
v 0.513982177 0.0738332719 0.896213353
v 0.513065994 0.00932807941 0.720880866
v 1.07077122 0.205872953 1.00633657
v 1.07014751 0.0807607621 0.88697654
v 1.0545218 0.171565279 0.767270207
v 1.0692476 0.0185108557 0.714765549
v 1.05411351 0.149516553 0.689137161
v 1.03144157 0.00014533996 0.721380115
v 0.504810154 0.032843817 -0.859034657
v 1.02314961 0.0234400555 -0.865481138
v 1.06102824 0.0422475822 -0.858203113
v 1.04629934 0.164564937 -0.806268454
v 0.504810154 0.032843817 -0.859034657
v 0.500274122 0.282173038 -0.976913452
v 0.501180708 0.164564937 -0.803419948
v 0.50359726 0.168656647 -1.07253373
v 0.503001451 0.416431308 -1.20516777
v 0.49985227 0.427260011 -1.05766034
v 0.503063679 0.578166068 -1.19326246
v 0.49991855 0.541725516 -1.04496002
v 0.500504494 0.686709762 -0.932829022
v 0.503797412 0.784100652 -1.0528475
v 0.505212605 0.956746936 -0.782025158
v 0.501662195 0.816745877 -0.711291015
v 0.509372354 1.24925494 0.0140345953
v 0.505605221 1.09568858 0.0433010757
v 0.506530702 1.09852028 0.220410168
v 0.510346591 1.26778436 0.20046787
v 0.510955393 1.24319041 0.316987038
v 0.507339418 1.02993298 0.375165612
v 0.511730552 1.16078579 0.465329498
v 0.507887542 0.943220317 0.480072051
v 0.512438178 1.04408014 0.600741565
v 0.509651244 0.557546735 0.817591429
v 0.514194846 0.642191291 0.936918378
v 0.514744997 0.400196761 1.04219365
v 0.510085225 0.389817923 0.900649369
v 0.514619648 0.202506751 1.01820719
v 0.51003319 0.285216033 0.890679359
v 0.509403229 0.171565428 0.770119011
v 0.513982177 0.0738332719 0.896213353
v 0.508994937 0.149516553 0.691986203
v 0.513065994 0.00932807941 0.720880866
v 0.501180708 0.164564937 -0.803419948
v 0.504810154 0.032843817 -0.859034657
v 1.04629934 0.164564937 -0.806268454
v 0.501180708 0.164564937 -0.803419948
v 0.500274122 0.282173038 -0.976913452
v 1.04539275 0.28217268 -0.979762316
v 0.49985227 0.427260011 -1.05766034
v 1.04497087 0.427259773 -1.06050885
v 0.49991855 0.541725516 -1.04496002
v 1.04503715 0.541725516 -1.047809
v 1.04562318 0.686709881 -0.935677648
v 0.500504494 0.686709762 -0.932829022
v 0.501662195 0.816745877 -0.711291015
v 1.04678071 0.816745877 -0.714139521
v 0.505605221 1.09568858 0.0433010757
v 1.05072391 1.09568858 0.0404525921
v 1.05164933 1.09852028 0.217561692
v 0.506530702 1.09852028 0.220410168
v 1.05245793 1.02993298 0.372317106
v 0.507339418 1.02993298 0.375165612
v 0.507887542 0.943220317 0.480072051
v 1.05300605 0.943220317 0.477223665
v 1.05476987 0.557546735 0.814743042
v 0.509651244 0.557546735 0.817591429
v 0.510085225 0.389817923 0.900649369
v 1.0552038 0.389817774 0.897800982
v 0.51003319 0.285216033 0.890679359
v 1.0551517 0.285215855 0.887830973
v 0.509403229 0.171565428 0.770119011
v 1.0545218 0.171565279 0.767270207
v 1.05411351 0.149516553 0.689137161
v 0.508994937 0.149516553 0.691986203
v 1.04629934 0.164564937 -0.806268454
v 0.501180708 0.164564937 -0.803419948
v -1.04539275 0.28217268 -0.979762316
v -1.04629934 0.164564937 -0.806268454
v -1.06102824 0.0422475822 -0.858203113
v -1.05983472 0.174531475 -1.06796837
v -1.04497087 0.427259773 -1.06050885
v -1.02191722 0.16278182 -1.08271408
v -1.02314961 0.0234400555 -0.865481138
v -0.504810154 0.032843817 -0.859034657
v -0.50359726 0.168656647 -1.07253373
v -1.05925012 0.417289853 -1.19846523
v -1.04503715 0.541725516 -1.047809
v -1.02131021 0.415572733 -1.21748531
v -0.503001451 0.416431308 -1.20516777
v -1.05931258 0.575873613 -1.18650746
v -1.02137208 0.580458581 -1.20563245
v -0.503063679 0.578166068 -1.19326246
v -0.503797412 0.784100652 -1.0528475
v -1.06003654 0.777825594 -1.04796839
v -1.04562318 0.686709881 -0.935677648
v -1.02211571 0.790375531 -1.06334162
v -1.02354789 0.96567291 -0.789242148
v -0.505212605 0.956746936 -0.782025158
v -1.06143463 0.947820842 -0.780423045
v -1.04678071 0.816745877 -0.714139521
v -1.05072391 1.09568858 0.0404525921
v -1.02772129 1.25891078 0.0094149299
v -0.509372354 1.24925494 0.0140345953
v -0.510346591 1.26778436 0.20046787
v -1.06558084 1.23959994 0.0130391978
v -1.05164933 1.09852028 0.217561692
v -1.02871227 1.27747786 0.19906193
v -1.02933145 1.25235689 0.317566037
v -0.510955393 1.24319041 0.316987038
v -0.511730552 1.16078579 0.465329498
v -1.06653821 1.25809085 0.196258739
v -1.06713665 1.23402381 0.310792953
v -1.0301187 1.16873884 0.468218982
v -1.0678997 1.15283275 0.456824929
v -1.05245793 1.02993298 0.372317106
v -1.03083682 1.05039752 0.605636001
v -0.512438178 1.04408014 0.600741565
v -0.514194846 0.642191291 0.936918378
v -1.06859696 1.03776288 0.590232134
v -1.05300605 0.943220317 0.477223665
v -1.03259528 0.647801042 0.9421646
v -1.07035172 0.63658154 0.926057279
v -1.05476987 0.557546735 0.814743042
v -1.0552038 0.389817774 0.897800982
v -1.03315568 0.401114136 1.04938674
v -0.514744997 0.400196761 1.04219365
v -1.07089162 0.399279267 1.02938569
v -1.0551517 0.285215855 0.887830973
v -1.03302538 0.199140474 1.02446306
v -0.514619648 0.202506751 1.01820719
v -1.03237414 0.0669057444 0.899834514
v -0.513982177 0.0738332719 0.896213353
v -0.513065994 0.00932807941 0.720880866
v -1.07077122 0.205872953 1.00633657
v -1.07014751 0.0807607621 0.88697654
v -1.0545218 0.171565279 0.767270207
v -1.0692476 0.0185108557 0.714765549
v -1.05411351 0.149516553 0.689137161
v -1.03144157 0.00014533996 0.721380115
v -0.504810154 0.032843817 -0.859034657
v -1.02314961 0.0234400555 -0.865481138
v -1.06102824 0.0422475822 -0.858203113
v -1.04629934 0.164564937 -0.806268454
v -0.504810154 0.032843817 -0.859034657
v -0.501180708 0.164564937 -0.803419948
v -0.500274122 0.282173038 -0.976913452
v -0.50359726 0.168656647 -1.07253373
v -0.503001451 0.416431308 -1.20516777
v -0.49985227 0.427260011 -1.05766034
v -0.503063679 0.578166068 -1.19326246
v -0.49991855 0.541725516 -1.04496002
v -0.500504494 0.686709762 -0.932829022
v -0.503797412 0.784100652 -1.0528475
v -0.505212605 0.956746936 -0.782025158
v -0.501662195 0.816745877 -0.711291015
v -0.509372354 1.24925494 0.0140345953
v -0.505605221 1.09568858 0.0433010757
v -0.506530702 1.09852028 0.220410168
v -0.510346591 1.26778436 0.20046787
v -0.510955393 1.24319041 0.316987038
v -0.507339418 1.02993298 0.375165612
v -0.511730552 1.16078579 0.465329498
v -0.507887542 0.943220317 0.480072051
v -0.512438178 1.04408014 0.600741565
v -0.509651244 0.557546735 0.817591429
v -0.514194846 0.642191291 0.936918378
v -0.514744997 0.400196761 1.04219365
v -0.510085225 0.389817923 0.900649369
v -0.514619648 0.202506751 1.01820719
v -0.51003319 0.285216033 0.890679359
v -0.509403229 0.171565428 0.770119011
v -0.513982177 0.0738332719 0.896213353
v -0.508994937 0.149516553 0.691986203
v -0.513065994 0.00932807941 0.720880866
v -0.501180708 0.164564937 -0.803419948
v -0.504810154 0.032843817 -0.859034657
v -1.04629934 0.164564937 -0.806268454
v -0.500274122 0.282173038 -0.976913452
v -0.501180708 0.164564937 -0.803419948
v -1.04539275 0.28217268 -0.979762316
v -0.49985227 0.427260011 -1.05766034
v -1.04497087 0.427259773 -1.06050885
v -0.49991855 0.541725516 -1.04496002
v -1.04503715 0.541725516 -1.047809
v -1.04562318 0.686709881 -0.935677648
v -0.500504494 0.686709762 -0.932829022
v -0.501662195 0.816745877 -0.711291015
v -1.04678071 0.816745877 -0.714139521
v -0.505605221 1.09568858 0.0433010757
v -1.05072391 1.09568858 0.0404525921
v -1.05164933 1.09852028 0.217561692
v -0.506530702 1.09852028 0.220410168
v -1.05245793 1.02993298 0.372317106
v -0.507339418 1.02993298 0.375165612
v -0.507887542 0.943220317 0.480072051
v -1.05300605 0.943220317 0.477223665
v -1.05476987 0.557546735 0.814743042
v -0.509651244 0.557546735 0.817591429
v -0.510085225 0.389817923 0.900649369
v -1.0552038 0.389817774 0.897800982
v -0.51003319 0.285216033 0.890679359
v -1.0551517 0.285215855 0.887830973
v -0.509403229 0.171565428 0.770119011
v -1.0545218 0.171565279 0.767270207
v -1.05411351 0.149516553 0.689137161
v -0.508994937 0.149516553 0.691986203
v -1.04629934 0.164564937 -0.806268454
v -0.501180708 0.164564937 -0.803419948
vt 0.252072752 -0.809403837
vt 0.295721203 -0.899882436
vt 0.252072752 -0.899882436
vt 0.295721203 -0.809403837
vt 0.252072752 -0.734229207
vt 0.3107557 -0.809403837
vt 0.3107557 -0.899882436
vt 0.496893346 -0.899882436
vt 0.496893346 -0.809403837
vt 0.295721203 -0.734229207
vt 0.252072752 -0.684177995
vt 0.3107557 -0.734229207
vt 0.496893346 -0.734229207
vt 0.295721203 -0.684177995
vt 0.3107557 -0.684177995
vt 0.496893346 -0.684177995
vt 0.496893346 -0.604807138
vt 0.295721203 -0.604807138
vt 0.252072752 -0.604807138
vt 0.3107557 -0.604807138
vt 0.3107557 -0.500035882
vt 0.496893346 -0.500035882
vt 0.295721203 -0.500035882
vt 0.252072752 -0.500035882
vt 0.252072752 -0.201577842
vt 0.3107557 -0.201577842
vt 0.496893346 -0.201577842
vt 0.496893346 -0.143088222
vt 0.295721203 -0.201577842
vt 0.252072752 -0.124537706
vt 0.3107557 -0.143088222
vt 0.3107557 -0.105987191
vt 0.496893346 -0.105987191
vt 0.496893346 -0.0521811843
vt 0.295721203 -0.143088222
vt 0.295721203 -0.105987191
vt 0.3107557 -0.0521811843
vt 0.295721203 -0.0521811843
vt 0.252072752 -0.0521811843
vt 0.3107557 0.0047314167
vt 0.496893346 0.0047314167
vt 0.496893346 0.191787392
vt 0.295721203 0.0047314167
vt 0.252072752 0.0047314167
vt 0.3107557 0.191787392
vt 0.295721203 0.191787392
vt 0.252072752 0.191787392
vt 0.252072752 0.27480337
vt 0.3107557 0.27480337
vt 0.496893346 0.27480337
vt 0.295721203 0.27480337
vt 0.252072752 0.335612833
vt 0.3107557 0.335612833
vt 0.496893346 0.335612833
vt 0.3107557 0.388546795
vt 0.496893346 0.388546795
vt 0.496893346 0.444299996
vt 0.295721203 0.335612833
vt 0.295721203 0.388546795
vt 0.252072752 0.388546795
vt 0.295721203 0.444299996
vt 0.252072752 0.444299996
vt 0.3107557 0.444299996
vt 0.496893346 1
vt 0.3107557 1
vt 0.295721203 1
vt 0.252072752 1
vt 0.0025067369 -0.899882436
vt 0.0461552069 -0.809403837
vt 0.0461552069 -0.899882436
vt 0.0025067369 -0.809403837
vt 0.0025067369 -0.734229207
vt 0.0461552069 -0.734229207
vt 0.0025067369 -0.684177995
vt 0.0461552069 -0.684177995
vt 0.0461552069 -0.604807138
vt 0.0025067369 -0.604807138
vt 0.0025067369 -0.500035882
vt 0.0461552069 -0.500035882
vt 0.0025067369 -0.201577842
vt 0.0461552069 -0.201577842
vt 0.0461552069 -0.124537706
vt 0.0025067369 -0.143088222
vt 0.0025067369 -0.105987191
vt 0.0461552069 -0.0521811843
vt 0.0025067369 -0.0521811843
vt 0.0461552069 0.0047314167
vt 0.0025067369 0.0047314167
vt 0.0461552069 0.191787392
vt 0.0025067369 0.191787392
vt 0.0025067369 0.27480337
vt 0.0461552069 0.27480337
vt 0.0025067369 0.335612833
vt 0.0461552069 0.335612833
vt 0.0461552069 0.388546795
vt 0.0025067369 0.388546795
vt 0.0461552069 0.444299996
vt 0.0025067369 0.444299996
vt 0.0461552069 1
vt 0.0025067369 1
vt 0.252072752 -0.899882436
vt 0.0461552069 -0.899882436
vt 0.0461552069 -0.809403837
vt 0.252072752 -0.809403837
vt 0.0461552069 -0.734229207
vt 0.252072752 -0.734229207
vt 0.0461552069 -0.684177995
vt 0.252072752 -0.684177995
vt 0.252072752 -0.604807138
vt 0.0461552069 -0.604807138
vt 0.0461552069 -0.500035882
vt 0.252072752 -0.500035882
vt 0.0461552069 -0.201577842
vt 0.252072752 -0.201577842
vt 0.252072752 -0.124537706
vt 0.0461552069 -0.124537706
vt 0.252072752 -0.0521811843
vt 0.0461552069 -0.0521811843
vt 0.0461552069 0.0047314167
vt 0.252072752 0.0047314167
vt 0.252072752 0.191787392
vt 0.0461552069 0.191787392
vt 0.0461552069 0.27480337
vt 0.252072752 0.27480337
vt 0.0461552069 0.335612833
vt 0.252072752 0.335612833
vt 0.0461552069 0.388546795
vt 0.252072752 0.388546795
vt 0.252072752 0.444299996
vt 0.0461552069 0.444299996
vt 0.252072752 1
vt 0.0461552069 1
vt 0.252072811 -0.809403837
vt 0.252072811 -0.899882436
vt 0.295721173 -0.899882436
vt 0.295721173 -0.809403837
vt 0.252072811 -0.734229207
vt 0.31075573 -0.809403837
vt 0.31075573 -0.899882436
vt 0.496893406 -0.899882436
vt 0.496893406 -0.809403837
vt 0.295721173 -0.734229207
vt 0.252072811 -0.684177995
vt 0.31075573 -0.734229207
vt 0.496893406 -0.734229207
vt 0.295721173 -0.684177995
vt 0.31075573 -0.684177995
vt 0.496893406 -0.684177995
vt 0.496893406 -0.604807138
vt 0.295721173 -0.604807138
vt 0.252072811 -0.604807138
vt 0.31075573 -0.604807138
vt 0.31075573 -0.500035882
vt 0.496893406 -0.500035882
vt 0.295721173 -0.500035882
vt 0.252072811 -0.500035882
vt 0.252072811 -0.201577842
vt 0.31075573 -0.201577842
vt 0.496893406 -0.201577842
vt 0.496893406 -0.143088222
vt 0.295721173 -0.201577842
vt 0.252072811 -0.124537706
vt 0.31075573 -0.143088222
vt 0.31075573 -0.105987191
vt 0.496893406 -0.105987191
vt 0.496893406 -0.0521811843
vt 0.295721173 -0.143088222
vt 0.295721173 -0.105987191
vt 0.31075573 -0.0521811843
vt 0.295721173 -0.0521811843
vt 0.252072811 -0.0521811843
vt 0.31075573 0.0047314167
vt 0.496893406 0.0047314167
vt 0.496893406 0.191787392
vt 0.295721173 0.0047314167
vt 0.252072811 0.0047314167
vt 0.31075573 0.191787392
vt 0.295721173 0.191787392
vt 0.252072811 0.191787392
vt 0.252072811 0.27480337
vt 0.31075573 0.27480337
vt 0.496893406 0.27480337
vt 0.295721173 0.27480337
vt 0.252072811 0.335612833
vt 0.31075573 0.335612833
vt 0.496893406 0.335612833
vt 0.31075573 0.388546795
vt 0.496893406 0.388546795
vt 0.496893406 0.444299996
vt 0.295721173 0.335612833
vt 0.295721173 0.388546795
vt 0.252072811 0.388546795
vt 0.295721173 0.444299996
vt 0.252072811 0.444299996
vt 0.31075573 0.444299996
vt 0.496893406 1
vt 0.31075573 1
vt 0.295721173 1
vt 0.252072811 1
vt 0.00250673294 -0.899882436
vt 0.0461552143 -0.899882436
vt 0.0461552143 -0.809403837
vt 0.00250673294 -0.809403837
vt 0.00250673294 -0.734229207
vt 0.0461552143 -0.734229207
vt 0.00250673294 -0.684177995
vt 0.0461552143 -0.684177995
vt 0.0461552143 -0.604807138
vt 0.00250673294 -0.604807138
vt 0.00250673294 -0.500035882
vt 0.0461552143 -0.500035882
vt 0.00250673294 -0.201577842
vt 0.0461552143 -0.201577842
vt 0.0461552143 -0.124537706
vt 0.00250673294 -0.143088222
vt 0.00250673294 -0.105987191
vt 0.0461552143 -0.0521811843
vt 0.00250673294 -0.0521811843
vt 0.0461552143 0.0047314167
vt 0.00250673294 0.0047314167
vt 0.0461552143 0.191787392
vt 0.00250673294 0.191787392
vt 0.00250673294 0.27480337
vt 0.0461552143 0.27480337
vt 0.00250673294 0.335612833
vt 0.0461552143 0.335612833
vt 0.0461552143 0.388546795
vt 0.00250673294 0.388546795
vt 0.0461552143 0.444299996
vt 0.00250673294 0.444299996
vt 0.0461552143 1
vt 0.00250673294 1
vt 0.252072811 -0.899882436
vt 0.0461552143 -0.809403837
vt 0.0461552143 -0.899882436
vt 0.252072811 -0.809403837
vt 0.0461552143 -0.734229207
vt 0.252072811 -0.734229207
vt 0.0461552143 -0.684177995
vt 0.252072811 -0.684177995
vt 0.252072811 -0.604807138
vt 0.0461552143 -0.604807138
vt 0.0461552143 -0.500035882
vt 0.252072811 -0.500035882
vt 0.0461552143 -0.201577842
vt 0.252072811 -0.201577842
vt 0.252072811 -0.124537706
vt 0.0461552143 -0.124537706
vt 0.252072811 -0.0521811843
vt 0.0461552143 -0.0521811843
vt 0.0461552143 0.0047314167
vt 0.252072811 0.0047314167
vt 0.252072811 0.191787392
vt 0.0461552143 0.191787392
vt 0.0461552143 0.27480337
vt 0.252072811 0.27480337
vt 0.0461552143 0.335612833
vt 0.252072811 0.335612833
vt 0.0461552143 0.388546795
vt 0.252072811 0.388546795
vt 0.252072811 0.444299996
vt 0.0461552143 0.444299996
vt 0.252072811 1
vt 0.0461552143 1
vn 0.994315326 0.0726653039 0.0778246447
vn 0.83884728 -0.521888971 -0.154813051
vn 0.994101346 0.105743557 0.0240992662
vn 0.838756263 -0.369493604 -0.399952918
vn 0.994723439 0.0251496527 0.0994632915
vn 0.211743802 -0.661142468 -0.719760478
vn 0.215835825 -0.934025347 -0.284624994
vn -0.02029985 -0.957686543 -0.287096441
vn -0.0223503672 -0.67912221 -0.733684957
vn 0.835481524 -0.12082918 -0.53606987
vn 0.995081425 -0.0384740941 0.0912837535
vn 0.213380575 -0.198456809 -0.95660001
vn -0.0239644684 -0.20787324 -0.97786212
vn 0.840538085 0.181408897 -0.510476708
vn 0.217541292 0.317233831 -0.923059344
vn -0.02418942 0.328860879 -0.944068432
vn -0.0226774737 0.717297196 -0.696398139
vn 0.84908402 0.379719496 -0.367245555
vn 0.994873226 -0.0778264031 0.0645767152
vn 0.2184138 0.697094619 -0.682901561
vn 0.222023115 0.873151481 -0.43394956
vn -0.0212765466 0.895838618 -0.443869919
vn 0.863217354 0.45045206 -0.227923006
vn 0.994838536 -0.093244262 0.0400213227
vn 0.995169103 -0.0969536081 0.0154376104
vn 0.222448483 0.950180233 -0.218344525
vn -0.0201105904 0.974573016 -0.223166049
vn -0.0186041184 0.998313904 0.054983709
vn 0.859830499 0.496269554 -0.120033063
vn 0.995403647 -0.0928093493 -0.0236210264
vn 0.222579643 0.973422527 0.0539158471
vn 0.223933905 0.913415134 0.339891881
vn -0.0170327444 0.936542034 0.350141317
vn -0.0157741755 0.820076525 0.572036386
vn 0.855640352 0.517121077 0.0215741936
vn 0.85665071 0.484556139 0.177073583
vn 0.225595653 0.799558103 0.556608796
vn 0.8642748 0.413925618 0.28582266
vn 0.99488163 -0.0819343179 -0.0591383055
vn 0.228082567 0.683295727 0.693603039
vn -0.0151540907 0.701823294 0.712189853
vn -0.0143422857 0.525320649 0.850783527
vn 0.869582534 0.349473417 0.348847419
vn 0.994289279 -0.0732846633 -0.0775766
vn 0.225981593 0.513376117 0.827875257
vn 0.861594558 0.266593963 0.431951851
vn 0.99349159 -0.0582259558 -0.0978990123
vn 0.993151188 -0.0195905063 -0.115181684
vn 0.224667221 0.138496026 0.964543164
vn -0.0138222855 0.143843204 0.98950398
vn 0.845775425 0.0800014585 0.527507007
vn 0.994049907 0.0409535095 -0.100933991
vn 0.222222909 -0.412650645 0.883366466
vn -0.0141603062 -0.425697267 0.904754817
vn 0.215438664 -0.812683284 0.541416645
vn -0.0152455997 -0.834128976 0.5513587
vn -0.0172750223 -0.985441566 0.169134215
vn 0.834846258 -0.239047885 0.495870709
vn 0.842850029 -0.455130041 0.287159413
vn 0.993815899 0.0957811177 -0.0561781414
vn 0.851660848 -0.51803118 0.0794824511
vn 0.993242443 0.113896452 -0.0222918298
vn 0.21483548 -0.962073565 0.168107539
vn -0.02029985 -0.957686543 -0.287096441
vn 0.215835825 -0.934025347 -0.284624994
vn 0.83884728 -0.521888971 -0.154813051
vn 0.994101346 0.105743557 0.0240992662
vn -0.999672532 -0.0254310202 -0.00282390672
vn -0.999733031 -0.0176352654 -0.0149314003
vn -0.999664068 -0.02585092 -0.00186210568
vn -0.999731719 -0.0183998104 -0.0140664196
vn -0.999778926 -0.00467291288 -0.0204987936
vn -0.999774039 -0.00602136692 -0.020388769
vn -0.999786913 0.0084299976 -0.0188457165
vn -0.999784768 0.00941659417 -0.0184850618
vn -0.999746263 0.0191001259 -0.0119413203
vn -0.999748766 0.0184968282 -0.012661065
vn -0.999719918 0.0229061488 -0.00595299155
vn -0.999719799 0.0229228716 -0.00590301538
vn -0.999714434 0.0238965321 0.000241011774
vn -0.999714434 0.023892412 0.000152821609
vn -0.999689817 0.0229048412 0.00977875199
vn -0.999691844 0.0239221286 0.00663354434
vn -0.999660373 0.0223024599 0.0134799117
vn -0.999624014 0.0202171244 0.0185257979
vn -0.999623179 0.0201900546 0.018595729
vn -0.999572217 0.0180320777 0.0230287425
vn -0.999569833 0.0178973693 0.0232335031
vn -0.99950695 0.0142803555 0.0279650465
vn -0.999509931 0.0144314412 0.0277811009
vn -0.99947089 0.00391445495 0.03229158
vn -0.999471843 0.00476888334 0.0321470127
vn -0.999547422 -0.0114259142 0.0278283469
vn -0.999536514 -0.0101564722 0.0286997166
vn -0.999564469 -0.0234748665 0.0178803839
vn -0.999571979 -0.0214147456 0.0199329127
vn -0.999566019 -0.0279031098 0.00944530219
vn -0.999564707 -0.0278420392 0.0097622741
vn -0.999664068 -0.02585092 -0.00186210568
vn -0.999672532 -0.0254310202 -0.00282390672
vn 0.0015588823 0.954478145 0.298276782
vn 0.00155888218 0.954478145 0.298276752
vn 0.00385415647 0.675370157 0.737468779
vn 0.00385415694 0.675370157 0.737468779
vn 0.00512312632 0.197373003 0.980315089
vn 0.00512312679 0.197373316 0.980315089
vn 0.00484451698 -0.375011683 0.927007437
vn 0.00484451838 -0.375011593 0.927007556
vn 0.00345227052 -0.75073123 0.660598695
vn 0.00345227076 -0.75073117 0.660598695
vn 0.00223725173 -0.903715312 0.428128153
vn 0.00223725173 -0.903715193 0.428128123
vn 0.000961356098 -0.982930362 0.183975279
vn 0.000961356214 -0.982930362 0.183975294
vn -0.00104117324 -0.979948163 -0.199250266
vn -0.00104117324 -0.979948163 -0.199250266
vn -0.0027488051 -0.850451887 -0.52604568
vn -0.00274880463 -0.850451767 -0.526045799
vn -0.00364239491 -0.717002988 -0.697060585
vn -0.00364239491 -0.717002928 -0.697060585
vn -0.00434379885 -0.555827618 -0.831286192
vn -0.00434379978 -0.555827618 -0.831286192
vn -0.00513863703 -0.181375951 -0.983400404
vn -0.00513863657 -0.181375861 -0.983400404
vn -0.00469375262 0.43942979 -0.898264766
vn -0.00469375169 0.439429909 -0.898264647
vn -0.00257583964 0.870061815 -0.492935926
vn -0.00257583801 0.870061934 -0.492935717
vn -0.00069032039 0.99123621 -0.132099718
vn -0.000690321496 0.99123621 -0.132099926
vn 0.0015588823 0.954478145 0.298276782
vn 0.00155888218 0.954478145 0.298276752
vn -0.994315445 0.0726652965 0.0778246373
vn -0.994101346 0.105743565 0.0240992662
vn -0.83884728 -0.521888971 -0.154813051
vn -0.838756263 -0.369493574 -0.399952918
vn -0.994723439 0.0251496527 0.0994632989
vn -0.211743847 -0.661142468 -0.719760478
vn -0.21583578 -0.934025347 -0.284624994
vn 0.0202998538 -0.957686543 -0.287096441
vn 0.0223503672 -0.67912221 -0.733684897
vn -0.835481584 -0.12082918 -0.53606981
vn -0.995081425 -0.0384740941 0.091283761
vn -0.21338059 -0.198456839 -0.95660001
vn 0.0239644684 -0.2078733 -0.97786212
vn -0.840538085 0.181408897 -0.510476649
vn -0.217541292 0.317233831 -0.923059344
vn 0.02418942 0.328860879 -0.944068432
vn 0.0226774756 0.717297256 -0.696398139
vn -0.84908402 0.379719496 -0.367245555
vn -0.994873226 -0.0778264105 0.0645767227
vn -0.2184138 0.697094619 -0.682901561
vn -0.222023115 0.873151481 -0.43394956
vn 0.0212765448 0.895838618 -0.443869919
vn -0.863217354 0.45045206 -0.227923006
vn -0.994838536 -0.093244262 0.0400213264
vn -0.995169103 -0.0969536081 0.0154376104
vn -0.222448483 0.950180233 -0.218344539
vn 0.0201105904 0.974573016 -0.223166063
vn 0.0186041184 0.998313904 0.054983709
vn -0.859830499 0.496269554 -0.120033063
vn -0.995403647 -0.0928093493 -0.0236210264
vn -0.222579643 0.973422527 0.0539158508
vn -0.223933905 0.913415134 0.339891881
vn 0.0170327444 0.936542034 0.350141257
vn 0.0157741755 0.820076525 0.572036386
vn -0.855640352 0.517121077 0.0215741992
vn -0.85665071 0.484556139 0.177073598
vn -0.225595683 0.799558103 0.556608796
vn -0.8642748 0.413925618 0.28582263
vn -0.99488163 -0.0819343179 -0.059138298
vn -0.228082567 0.683295727 0.693603039
vn 0.0151540879 0.701823294 0.712189853
vn 0.0143422903 0.52532053 0.850783527
vn -0.869582534 0.349473387 0.348847359
vn -0.994289279 -0.0732846633 -0.0775765851
vn -0.225981593 0.513376117 0.827875257
vn -0.861594558 0.266593963 0.431951851
vn -0.99349159 -0.0582259558 -0.0978990123
vn -0.993151188 -0.0195905101 -0.115181677
vn -0.224667192 0.138496026 0.964543164
vn 0.013822291 0.143843248 0.98950398
vn -0.845775425 0.0800014362 0.527507007
vn -0.994049907 0.0409535095 -0.100933991
vn -0.222222909 -0.412650645 0.883366466
vn 0.0141603081 -0.425697267 0.904754817
vn -0.215438664 -0.812683284 0.541416645
vn 0.0152455997 -0.834128976 0.5513587
vn 0.0172750223 -0.985441566 0.169134244
vn -0.834846258 -0.239047885 0.495870709
vn -0.842850029 -0.455130041 0.287159413
vn -0.993815899 0.0957811102 -0.0561781414
vn -0.851660848 -0.51803118 0.0794824511
vn -0.993242443 0.113896452 -0.0222918298
vn -0.21483548 -0.962073565 0.168107554
vn 0.0202998538 -0.957686543 -0.287096441
vn -0.21583578 -0.934025347 -0.284624994
vn -0.83884728 -0.521888971 -0.154813051
vn -0.994101346 0.105743565 0.0240992662
vn 0.999672532 -0.0254310183 -0.00282390718
vn 0.999664068 -0.02585092 -0.00186210603
vn 0.999733031 -0.0176352635 -0.0149314003
vn 0.999731719 -0.0183998104 -0.0140664196
vn 0.999778926 -0.00467291195 -0.0204987917
vn 0.999774039 -0.00602136599 -0.020388769
vn 0.999786913 0.0084299976 -0.0188457165
vn 0.999784768 0.00941659417 -0.0184850618
vn 0.999746263 0.019100124 -0.0119413193
vn 0.999748766 0.0184968263 -0.012661065
vn 0.999719918 0.0229061488 -0.00595299155
vn 0.999719799 0.0229228716 -0.00590301538
vn 0.999714434 0.0238965321 0.000241011774
vn 0.999714434 0.023892412 0.000152821609
vn 0.999689817 0.0229048412 0.00977875385
vn 0.999691844 0.0239221286 0.00663354434
vn 0.999660373 0.0223024599 0.0134799136
vn 0.999624014 0.0202171244 0.0185257997
vn 0.999623179 0.0201900546 0.0185957309
vn 0.999572217 0.0180320796 0.0230287444
vn 0.999569833 0.0178973693 0.0232335068
vn 0.99950695 0.0142803574 0.0279650483
vn 0.999509931 0.0144314421 0.0277811084
vn 0.99947089 0.00391445588 0.03229158
vn 0.999471843 0.00476888428 0.0321470127
vn 0.999547422 -0.0114259142 0.0278283469
vn 0.999536514 -0.0101564731 0.0286997166
vn 0.999564469 -0.0234748684 0.0178803839
vn 0.999571979 -0.0214147456 0.0199329164
vn 0.999566019 -0.0279031079 0.00944530312
vn 0.999564707 -0.0278420374 0.00976227503
vn 0.999664068 -0.02585092 -0.00186210603
vn 0.999672532 -0.0254310183 -0.00282390718
vn -0.0015588823 0.954478145 0.298276782
vn -0.00385415647 0.675370157 0.737468779
vn -0.00155888218 0.954478145 0.298276752
vn -0.00385415694 0.675370157 0.737468779
vn -0.00512312632 0.197373003 0.980315089
vn -0.00512312679 0.197373316 0.980315089
vn -0.00484451698 -0.375011683 0.927007437
vn -0.00484451838 -0.375011533 0.927007556
vn -0.00345227052 -0.75073123 0.660598695
vn -0.00345227076 -0.75073117 0.660598695
vn -0.00223725894 -0.903715312 0.428128153
vn -0.00223725871 -0.903715193 0.428128123
vn -0.000961363083 -0.982930362 0.183975279
vn -0.000961363316 -0.982930362 0.183975294
vn 0.00104117324 -0.979948163 -0.199250266
vn 0.00104117324 -0.979948163 -0.199250266
vn 0.0027488051 -0.850451887 -0.52604568
vn 0.0027488051 -0.850451887 -0.52604568
vn 0.00364239491 -0.717002988 -0.697060585
vn 0.00364239491 -0.717002988 -0.697060585
vn 0.00434379978 -0.555827618 -0.831286311
vn 0.00434379885 -0.555827618 -0.831286192
vn 0.00513863703 -0.181375965 -0.983400404
vn 0.0051386375 -0.181375891 -0.983400404
vn 0.00469375262 0.43942973 -0.898264766
vn 0.00469375215 0.439429849 -0.898264647
vn 0.00257583964 0.870061815 -0.492935985
vn 0.00257583801 0.870061934 -0.492935777
vn 0.00069032039 0.99123621 -0.132099718
vn 0.000690321496 0.99123621 -0.132099926
vn -0.0015588823 0.954478145 0.298276782
vn -0.00155888218 0.954478145 0.298276752
g A_Hero_MissHot_01_LOD1_lvdai_0
f 3/3/3 2/2/2 1/1/1
f 2/2/2 4/4/4 1/1/1
f 1/1/1 4/4/4 5/5/5
f 4/4/4 2/2/2 6/6/6
f 2/2/2 7/7/7 6/6/6
f 6/6/6 7/7/7 8/8/8
f 9/9/9 6/6/6 8/8/8
f 4/4/4 10/10/10 5/5/5
f 10/10/10 4/4/4 6/6/6
f 5/5/5 10/10/10 11/11/11
f 12/12/12 6/6/6 9/9/9
f 12/12/12 10/10/10 6/6/6
f 13/13/13 12/12/12 9/9/9
f 10/10/10 14/14/14 11/11/11
f 14/14/14 10/10/10 12/12/12
f 15/15/15 12/12/12 13/13/13
f 15/15/15 14/14/14 12/12/12
f 16/16/16 15/15/15 13/13/13
f 16/16/16 17/17/17 15/15/15
f 14/14/14 18/18/18 11/11/11
f 18/18/18 19/19/19 11/11/11
f 15/15/15 20/20/20 14/14/14
f 17/17/17 20/20/20 15/15/15
f 20/20/20 18/18/18 14/14/14
f 21/21/21 20/20/20 17/17/17
f 20/20/20 21/21/21 18/18/18
f 22/22/22 21/21/21 17/17/17
f 18/18/18 23/23/23 19/19/19
f 21/21/21 23/23/23 18/18/18
f 23/23/23 24/24/24 19/19/19
f 25/25/25 24/24/24 23/23/23
f 26/26/26 21/21/21 22/22/22
f 23/23/23 21/21/21 26/26/26
f 27/27/27 26/26/26 22/22/22
f 27/27/27 28/28/28 26/26/26
f 29/29/29 25/25/25 23/23/23
f 29/29/29 23/23/23 26/26/26
f 25/25/25 29/29/29 30/30/30
f 28/28/28 31/31/31 26/26/26
f 26/26/26 31/31/31 29/29/29
f 32/32/32 31/31/31 28/28/28
f 33/33/33 32/32/32 28/28/28
f 33/33/33 34/34/34 32/32/32
f 31/31/31 35/35/35 29/29/29
f 29/29/29 35/35/35 30/30/30
f 31/31/31 32/32/32 35/35/35
f 35/35/35 36/36/36 30/30/30
f 32/32/32 36/36/36 35/35/35
f 34/34/34 37/37/37 32/32/32
f 32/32/32 37/37/37 36/36/36
f 36/36/36 38/38/38 30/30/30
f 37/37/37 38/38/38 36/36/36
f 38/38/38 39/39/39 30/30/30
f 40/40/40 37/37/37 34/34/34
f 38/38/38 37/37/37 40/40/40
f 41/41/41 40/40/40 34/34/34
f 41/41/41 42/42/42 40/40/40
f 39/39/39 38/38/38 43/43/43
f 43/43/43 38/38/38 40/40/40
f 44/44/44 39/39/39 43/43/43
f 42/42/42 45/45/45 40/40/40
f 43/43/43 40/40/40 45/45/45
f 44/44/44 43/43/43 46/46/46
f 46/46/46 43/43/43 45/45/45
f 47/47/47 44/44/44 46/46/46
f 47/47/47 46/46/46 48/48/48
f 49/49/49 45/45/45 42/42/42
f 46/46/46 45/45/45 49/49/49
f 50/50/50 49/49/49 42/42/42
f 46/46/46 51/51/51 48/48/48
f 51/51/51 46/46/46 49/49/49
f 48/48/48 51/51/51 52/52/52
f 53/53/53 49/49/49 50/50/50
f 54/54/54 53/53/53 50/50/50
f 55/55/55 53/53/53 54/54/54
f 56/56/56 55/55/55 54/54/54
f 55/55/55 56/56/56 57/57/57
f 58/58/58 51/51/51 49/49/49
f 53/53/53 58/58/58 49/49/49
f 51/51/51 58/58/58 52/52/52
f 53/53/53 55/55/55 58/58/58
f 58/58/58 59/59/59 52/52/52
f 55/55/55 59/59/59 58/58/58
f 59/59/59 60/60/60 52/52/52
f 60/60/60 59/59/59 61/61/61
f 61/61/61 59/59/59 55/55/55
f 62/62/62 60/60/60 61/61/61
f 63/63/63 55/55/55 57/57/57
f 63/63/63 61/61/61 55/55/55
f 57/57/57 64/64/64 63/63/63
f 64/64/64 65/65/65 63/63/63
f 63/63/63 65/65/65 61/61/61
f 65/65/65 66/66/66 61/61/61
f 61/61/61 66/66/66 62/62/62
f 66/66/66 67/67/67 62/62/62
f 70/70/70 69/69/69 68/68/68
f 69/69/69 71/71/71 68/68/68
f 72/72/72 71/71/71 69/69/69
f 73/73/73 72/72/72 69/69/69
f 74/74/74 72/72/72 73/73/73
f 75/75/75 74/74/74 73/73/73
f 74/74/74 75/75/75 76/76/76
f 77/77/77 74/74/74 76/76/76
f 77/77/77 76/76/76 78/78/78
f 76/76/76 79/79/79 78/78/78
f 80/80/80 78/78/78 79/79/79
f 81/81/81 80/80/80 79/79/79
f 81/81/81 82/82/82 80/80/80
f 82/82/82 83/83/83 80/80/80
f 84/84/84 83/83/83 82/82/82
f 84/84/84 82/82/82 85/85/85
f 86/86/86 84/84/84 85/85/85
f 85/85/85 87/87/87 86/86/86
f 87/87/87 88/88/88 86/86/86
f 87/87/87 89/89/89 88/88/88
f 89/89/89 90/90/90 88/88/88
f 91/91/91 90/90/90 89/89/89
f 92/92/92 91/91/91 89/89/89
f 93/93/93 91/91/91 92/92/92
f 94/94/94 93/93/93 92/92/92
f 93/93/93 94/94/94 95/95/95
f 96/96/96 93/93/93 95/95/95
f 96/96/96 95/95/95 97/97/97
f 98/98/98 96/96/96 97/97/97
f 97/97/97 99/99/99 98/98/98
f 99/99/99 100/100/100 98/98/98
f 103/103/103 102/102/102 101/101/101
f 104/104/104 103/103/103 101/101/101
f 105/105/105 103/103/103 104/104/104
f 106/106/106 105/105/105 104/104/104
f 107/107/107 105/105/105 106/106/106
f 108/108/108 107/107/107 106/106/106
f 108/108/108 109/109/109 107/107/107
f 109/109/109 110/110/110 107/107/107
f 111/111/111 110/110/110 109/109/109
f 112/112/112 111/111/111 109/109/109
f 113/113/113 111/111/111 112/112/112
f 114/114/114 113/113/113 112/112/112
f 114/114/114 115/115/115 113/113/113
f 115/115/115 116/116/116 113/113/113
f 115/115/115 117/117/117 116/116/116
f 117/117/117 118/118/118 116/116/116
f 119/119/119 118/118/118 117/117/117
f 120/120/120 119/119/119 117/117/117
f 120/120/120 121/121/121 119/119/119
f 121/121/121 122/122/122 119/119/119
f 123/123/123 122/122/122 121/121/121
f 124/124/124 123/123/123 121/121/121
f 125/125/125 123/123/123 124/124/124
f 126/126/126 125/125/125 124/124/124
f 127/127/127 125/125/125 126/126/126
f 128/128/128 127/127/127 126/126/126
f 127/127/127 128/128/128 129/129/129
f 130/130/130 127/127/127 129/129/129
f 129/129/129 131/131/131 130/130/130
f 131/131/131 132/132/132 130/130/130
f 135/135/135 134/134/134 133/133/133
f 136/136/136 135/135/135 133/133/133
f 136/136/136 133/133/133 137/137/137
f 135/135/135 136/136/136 138/138/138
f 139/139/139 135/135/135 138/138/138
f 139/139/139 138/138/138 140/140/140
f 138/138/138 141/141/141 140/140/140
f 142/142/142 136/136/136 137/137/137
f 136/136/136 142/142/142 138/138/138
f 142/142/142 137/137/137 143/143/143
f 138/138/138 144/144/144 141/141/141
f 142/142/142 144/144/144 138/138/138
f 144/144/144 145/145/145 141/141/141
f 146/146/146 142/142/142 143/143/143
f 142/142/142 146/146/146 144/144/144
f 144/144/144 147/147/147 145/145/145
f 146/146/146 147/147/147 144/144/144
f 147/147/147 148/148/148 145/145/145
f 149/149/149 148/148/148 147/147/147
f 150/150/150 146/146/146 143/143/143
f 151/151/151 150/150/150 143/143/143
f 152/152/152 147/147/147 146/146/146
f 152/152/152 149/149/149 147/147/147
f 150/150/150 152/152/152 146/146/146
f 152/152/152 153/153/153 149/149/149
f 153/153/153 152/152/152 150/150/150
f 153/153/153 154/154/154 149/149/149
f 155/155/155 150/150/150 151/151/151
f 155/155/155 153/153/153 150/150/150
f 156/156/156 155/155/155 151/151/151
f 156/156/156 157/157/157 155/155/155
f 153/153/153 158/158/158 154/154/154
f 153/153/153 155/155/155 158/158/158
f 158/158/158 159/159/159 154/154/154
f 160/160/160 159/159/159 158/158/158
f 157/157/157 161/161/161 155/155/155
f 155/155/155 161/161/161 158/158/158
f 161/161/161 157/157/157 162/162/162
f 163/163/163 160/160/160 158/158/158
f 163/163/163 158/158/158 161/161/161
f 163/163/163 164/164/164 160/160/160
f 164/164/164 165/165/165 160/160/160
f 166/166/166 165/165/165 164/164/164
f 167/167/167 163/163/163 161/161/161
f 167/167/167 161/161/161 162/162/162
f 164/164/164 163/163/163 167/167/167
f 168/168/168 167/167/167 162/162/162
f 168/168/168 164/164/164 167/167/167
f 169/169/169 166/166/166 164/164/164
f 169/169/169 164/164/164 168/168/168
f 170/170/170 168/168/168 162/162/162
f 170/170/170 169/169/169 168/168/168
f 171/171/171 170/170/170 162/162/162
f 169/169/169 172/172/172 166/166/166
f 169/169/169 170/170/170 172/172/172
f 172/172/172 173/173/173 166/166/166
f 174/174/174 173/173/173 172/172/172
f 170/170/170 171/171/171 175/175/175
f 170/170/170 175/175/175 172/172/172
f 171/171/171 176/176/176 175/175/175
f 177/177/177 174/174/174 172/172/172
f 172/172/172 175/175/175 177/177/177
f 175/175/175 176/176/176 178/178/178
f 175/175/175 178/178/178 177/177/177
f 176/176/176 179/179/179 178/178/178
f 178/178/178 179/179/179 180/180/180
f 177/177/177 181/181/181 174/174/174
f 177/177/177 178/178/178 181/181/181
f 181/181/181 182/182/182 174/174/174
f 183/183/183 178/178/178 180/180/180
f 178/178/178 183/183/183 181/181/181
f 183/183/183 180/180/180 184/184/184
f 181/181/181 185/185/185 182/182/182
f 185/185/185 186/186/186 182/182/182
f 185/185/185 187/187/187 186/186/186
f 187/187/187 188/188/188 186/186/186
f 188/188/188 187/187/187 189/189/189
f 183/183/183 190/190/190 181/181/181
f 190/190/190 185/185/185 181/181/181
f 190/190/190 183/183/183 184/184/184
f 187/187/187 185/185/185 190/190/190
f 191/191/191 190/190/190 184/184/184
f 191/191/191 187/187/187 190/190/190
f 192/192/192 191/191/191 184/184/184
f 191/191/191 192/192/192 193/193/193
f 191/191/191 193/193/193 187/187/187
f 192/192/192 194/194/194 193/193/193
f 187/187/187 195/195/195 189/189/189
f 193/193/193 195/195/195 187/187/187
f 196/196/196 189/189/189 195/195/195
f 197/197/197 196/196/196 195/195/195
f 197/197/197 195/195/195 193/193/193
f 198/198/198 197/197/197 193/193/193
f 198/198/198 193/193/193 194/194/194
f 199/199/199 198/198/198 194/194/194
f 202/202/202 201/201/201 200/200/200
f 203/203/203 202/202/202 200/200/200
f 203/203/203 204/204/204 202/202/202
f 204/204/204 205/205/205 202/202/202
f 204/204/204 206/206/206 205/205/205
f 206/206/206 207/207/207 205/205/205
f 207/207/207 206/206/206 208/208/208
f 206/206/206 209/209/209 208/208/208
f 208/208/208 209/209/209 210/210/210
f 211/211/211 208/208/208 210/210/210
f 210/210/210 212/212/212 211/211/211
f 212/212/212 213/213/213 211/211/211
f 214/214/214 213/213/213 212/212/212
f 215/215/215 214/214/214 212/212/212
f 215/215/215 216/216/216 214/214/214
f 214/214/214 216/216/216 217/217/217
f 216/216/216 218/218/218 217/217/217
f 219/219/219 217/217/217 218/218/218
f 220/220/220 219/219/219 218/218/218
f 221/221/221 219/219/219 220/220/220
f 222/222/222 221/221/221 220/220/220
f 222/222/222 223/223/223 221/221/221
f 223/223/223 224/224/224 221/221/221
f 223/223/223 225/225/225 224/224/224
f 225/225/225 226/226/226 224/224/224
f 226/226/226 225/225/225 227/227/227
f 225/225/225 228/228/228 227/227/227
f 227/227/227 228/228/228 229/229/229
f 228/228/228 230/230/230 229/229/229
f 231/231/231 229/229/229 230/230/230
f 232/232/232 231/231/231 230/230/230
f 235/235/235 234/234/234 233/233/233
f 234/234/234 236/236/236 233/233/233
f 234/234/234 237/237/237 236/236/236
f 237/237/237 238/238/238 236/236/236
f 237/237/237 239/239/239 238/238/238
f 239/239/239 240/240/240 238/238/238
f 241/241/241 240/240/240 239/239/239
f 242/242/242 241/241/241 239/239/239
f 242/242/242 243/243/243 241/241/241
f 243/243/243 244/244/244 241/241/241
f 243/243/243 245/245/245 244/244/244
f 245/245/245 246/246/246 244/244/244
f 247/247/247 246/246/246 245/245/245
f 248/248/248 247/247/247 245/245/245
f 249/249/249 247/247/247 248/248/248
f 250/250/250 249/249/249 248/248/248
f 250/250/250 251/251/251 249/249/249
f 251/251/251 252/252/252 249/249/249
f 253/253/253 252/252/252 251/251/251
f 254/254/254 253/253/253 251/251/251
f 254/254/254 255/255/255 253/253/253
f 255/255/255 256/256/256 253/253/253
f 255/255/255 257/257/257 256/256/256
f 257/257/257 258/258/258 256/256/256
f 257/257/257 259/259/259 258/258/258
f 259/259/259 260/260/260 258/258/258
f 260/260/260 259/259/259 261/261/261
f 259/259/259 262/262/262 261/261/261
f 263/263/263 261/261/261 262/262/262
f 264/264/264 263/263/263 262/262/262
