g caidai.001
v -41.5704765 -43.5009422 -17.7600784
v -48.5145912 51.327713 0
v -48.5145912 -51.327713 0
v -47.3696785 -60.2620621 4.76837158E-07
v -40.5583153 -51.3298683 -17.7600784
v -44.0950432 -67.8431396 4.76837158E-07
v -37.6759338 -57.9669151 -17.7600784
v -39.184597 -72.9100647 4.76837158E-07
v -41.5704765 43.5009384 -17.7600784
v -40.5583191 51.3298645 -17.7600784
v -47.3696785 60.2620621 -4.76837158E-07
v -37.6759377 57.9669151 -17.7600784
v -44.0950432 67.8431396 -4.76837158E-07
v -33.3621445 62.4016495 -17.7600784
v -39.184597 72.9100647 -4.76837158E-07
v -33.3859024 74.6894684 0
v -33.3621407 -62.4016495 -17.7600784
v -28.2736893 63.9589272 -17.7600784
v 33.3859024 74.6894684 0
v -28.2736855 -63.9589272 -17.7600784
v -33.3859024 -74.6894684 0
v 28.2736855 63.9589272 -17.7600784
v 28.2736893 -63.9589272 -17.7600784
v 33.3859024 -74.6894684 0
v 33.3621407 62.4016495 -17.7600784
v 39.184597 72.9100647 4.76837158E-07
v 33.3621445 -62.4016495 -17.7600784
v 39.184597 -72.9100647 -4.76837158E-07
v 44.0950432 -67.8431396 -4.76837158E-07
v 37.6759338 57.9669151 -17.7600784
v 44.0950432 67.8431396 0
v 37.6759377 -57.9669151 -17.7600784
v 47.3696785 -60.2620621 -4.76837158E-07
v 40.5583153 51.3298683 -17.7600784
v 47.3696785 60.2620621 9.53674316E-07
v 48.5145912 51.327713 0
v 40.5583191 -51.3298645 -17.7600784
v 48.5145912 -51.327713 0
v 41.5704765 43.5009422 -17.7600784
v 41.5704765 -43.5009384 -17.7600784
v -33.3859024 -74.6894684 0
v 28.2736855 -63.9589272 17.7600784
v 33.3859024 -74.6894684 0
v 39.184597 -72.9100647 -4.76837158E-07
v -28.2736893 -63.9589272 17.7600784
v -33.3621445 -62.4016495 17.7600784
v -39.184597 -72.9100647 4.76837158E-07
v -44.0950432 -67.8431396 4.76837158E-07
v -37.6759377 -57.9669151 17.7600784
v -47.3696785 -60.2620621 4.76837158E-07
v -40.5583191 -51.3298645 17.7600784
v -48.5145912 -51.327713 0
v -41.5704765 -43.5009384 17.7600784
v -48.5145912 51.327713 0
v -41.5704765 43.5009422 17.7600784
v -47.3696785 60.2620621 -4.76837158E-07
v -40.5583153 51.3298683 17.7600784
v -44.0950432 67.8431396 -4.76837158E-07
v -37.6759338 57.9669151 17.7600784
v -39.184597 72.9100647 -4.76837158E-07
v -33.3621407 62.4016495 17.7600784
v -28.2736855 63.9589272 17.7600784
v -33.3859024 74.6894684 0
v 33.3859024 74.6894684 0
v 28.2736893 63.9589272 17.7600784
v 39.184597 72.9100647 4.76837158E-07
v 33.3621407 -62.4016495 17.7600784
v 33.3621445 62.4016495 17.7600784
v 44.0950432 67.8431396 0
v 37.6759338 -57.9669151 17.7600784
v 44.0950432 -67.8431396 -4.76837158E-07
v 37.6759377 57.9669151 17.7600784
v 47.3696785 60.2620621 9.53674316E-07
v 40.5583153 -51.3298683 17.7600784
v 47.3696785 -60.2620621 -4.76837158E-07
v 40.5583191 51.3298645 17.7600784
v 41.5704765 -43.5009422 17.7600784
v 48.5145912 -51.327713 0
v 41.5704765 43.5009384 17.7600784
v 48.5145912 51.327713 0
vt 0.421656191 0.282124877
vt 0.49985525 0.685622811
vt 0.499885112 0.239265323
vt 0.486470789 0.192495137
vt 0.415891171 0.252343804
vt 0.463061959 0.154111177
vt 0.403767467 0.226957113
vt 0.433662385 0.128281817
vt 0.421555698 0.643265665
vt 0.415923357 0.67291683
vt 0.486638427 0.732268095
vt 0.403897643 0.698222816
vt 0.463493556 0.770598054
vt 0.387438953 0.715367317
vt 0.434369445 0.796477377
vt 0.402027071 0.809112668
vt 0.387257993 0.209781215
vt 0.369354099 0.722838521
vt 0.103633322 0.815711081
vt 0.369211853 0.202311188
vt 0.401070416 0.115794808
vt 0.133259073 0.725738049
vt 0.133202061 0.199452415
vt 0.102658883 0.109493814
vt 0.115057848 0.718351185
vt 0.0693719983 0.80313766
vt 0.114938222 0.206861675
vt 0.0685797259 0.122304365
vt 0.0379230566 0.148997366
vt 0.0981512517 0.700901687
vt 0.0384680629 0.776603818
vt 0.0980649218 0.224324077
vt 0.0136962011 0.188693851
vt 0.085616678 0.674973667
vt 0.0139585361 0.736966431
vt 0.000118804957 0.688697636
vt 0.0856191069 0.250224471
vt 0.00011888783 0.236924097
vt 0.0794890299 0.644541383
vt 0.0796124935 0.280576289
vt 0.901354074 0.808914244
vt 0.633404016 0.725713253
vt 0.602941632 0.815705717
vt 0.5687868 0.802924216
vt 0.869440198 0.722416222
vt 0.887453854 0.715024173
vt 0.933842838 0.796420395
vt 0.963145494 0.770637393
vt 0.903913796 0.697932601
vt 0.986480772 0.732352197
vt 0.915979922 0.672642291
vt 0.999874234 0.685709536
vt 0.921672523 0.642956734
vt 0.999881208 0.239351675
vt 0.921557665 0.281811148
vt 0.98664248 0.192580491
vt 0.915850997 0.25206849
vt 0.963424087 0.154153615
vt 0.903765619 0.226669073
vt 0.934204102 0.128228918
vt 0.887254953 0.20944263
vt 0.869134367 0.201895475
vt 0.901760399 0.115600631
vt 0.603355467 0.109493822
vt 0.63306731 0.1994344
vt 0.569171846 0.122095928
vt 0.615106523 0.718271315
vt 0.614897907 0.206786335
vt 0.538351655 0.148619488
vt 0.598184228 0.700772941
vt 0.538047731 0.776222229
vt 0.598039269 0.224197254
vt 0.513918579 0.188205317
vt 0.585681021 0.674829066
vt 0.513744771 0.736476243
vt 0.585561275 0.250078797
vt 0.579608142 0.644436657
vt 0.500122786 0.68816638
vt 0.579499602 0.280466825
vt 0.500122726 0.236392453
vn -0.570982337 -0.0278680827 -0.820489168
vn -0.996917725 0.0784545541 0
vn -0.996917725 -0.0784545615 0
vn -0.956485808 -0.291778803 0
vn -0.545579672 -0.13187398 -0.827618361
vn -0.818052828 -0.575143218 0
vn -0.450685591 -0.283886403 -0.846339762
vn -0.518761873 -0.854918718 0
vn -0.570982277 0.0278680436 -0.820489228
vn -0.545579791 0.131873906 -0.827618241
vn -0.956485808 0.291778803 0
vn -0.45068571 0.283886433 -0.846339643
vn -0.818052828 0.575143218 0
vn -0.275025308 0.445427954 -0.85202992
vn -0.518761873 0.854918718 0
vn -0.162270457 0.986746371 0
vn -0.275025249 -0.445427954 -0.85202992
vn -0.0677649677 0.510035992 -0.857479572
vn 0.162270471 0.986746371 0
vn -0.0677649304 -0.510036111 -0.857479513
vn -0.162270442 -0.986746371 0
vn 0.0677649379 0.510035992 -0.857479513
vn 0.0677649677 -0.510035992 -0.857479572
vn 0.162270457 -0.986746371 0
vn 0.275025219 0.445428073 -0.85202992
vn 0.518761873 0.854918718 0
vn 0.275025308 -0.445427954 -0.85202992
vn 0.518761873 -0.854918718 0
vn 0.818052828 -0.575143158 0
vn 0.450685591 0.283886343 -0.846339762
vn 0.818052649 0.575143218 0
vn 0.45068571 -0.283886433 -0.846339643
vn 0.956485808 -0.291778803 0
vn 0.545579672 0.13187407 -0.827618361
vn 0.956485808 0.291778833 0
vn 0.996917725 0.0784546062 0
vn 0.545579791 -0.131873906 -0.827618241
vn 0.996917725 -0.0784545615 0
vn 0.570982337 0.0278681703 -0.820489168
vn 0.570982277 -0.0278680436 -0.820489228
vn -0.162270442 -0.986746371 0
vn 0.067764923 -0.510035992 0.857479513
vn 0.162270457 -0.986746371 0
vn 0.518761873 -0.854918718 0
vn -0.0677649602 -0.510035992 0.857479572
vn -0.275025308 -0.445427954 0.85202992
vn -0.518761873 -0.854918718 0
vn -0.818052828 -0.575143218 0
vn -0.45068571 -0.283886433 0.846339643
vn -0.956485808 -0.291778803 0
vn -0.545579791 -0.131873906 0.827618241
vn -0.996917725 -0.0784545615 0
vn -0.570982337 -0.0278680455 0.820489168
vn -0.996917725 0.0784545541 0
vn -0.570982337 0.0278680827 0.820489168
vn -0.956485808 0.291778803 0
vn -0.545579672 0.13187398 0.827618361
vn -0.818052828 0.575143218 0
vn -0.450685591 0.283886403 0.846339762
vn -0.518761873 0.854918718 0
vn -0.275025249 0.445427954 0.85202992
vn -0.067764923 0.510035992 0.857479513
vn -0.162270457 0.986746371 0
vn 0.162270471 0.986746371 0
vn 0.0677649826 0.510035992 0.857479572
vn 0.518761873 0.854918718 0
vn 0.275025249 -0.445427954 0.85202992
vn 0.275025308 0.445428044 0.85202986
vn 0.818052649 0.575143218 0
vn 0.450685591 -0.283886403 0.846339762
vn 0.818052828 -0.575143158 0
vn 0.45068568 0.283886582 0.846339643
vn 0.956485808 0.291778833 0
vn 0.545579672 -0.13187398 0.827618361
vn 0.956485808 -0.291778803 0
vn 0.545579791 0.131873935 0.827618241
vn 0.570982337 -0.0278680827 0.820489168
vn 0.996917725 -0.0784545615 0
vn 0.570982337 0.0278679896 0.820489168
vn 0.996917725 0.0784546062 0
g caidai.001_0
f 3/3/3 2/2/2 1/1/1
f 3/3/3 1/1/1 4/4/4
f 1/1/1 5/5/5 4/4/4
f 4/4/4 5/5/5 6/6/6
f 5/5/5 7/7/7 6/6/6
f 6/6/6 7/7/7 8/8/8
f 2/2/2 9/9/9 1/1/1
f 1/1/1 9/9/9 10/10/10
f 9/9/9 2/2/2 10/10/10
f 5/5/5 1/1/1 10/10/10
f 2/2/2 11/11/11 10/10/10
f 5/5/5 10/10/10 12/12/12
f 10/10/10 11/11/11 12/12/12
f 7/7/7 5/5/5 12/12/12
f 11/11/11 13/13/13 12/12/12
f 12/12/12 13/13/13 14/14/14
f 7/7/7 12/12/12 14/14/14
f 13/13/13 15/15/15 14/14/14
f 14/14/14 15/15/15 16/16/16
f 7/7/7 17/17/17 8/8/8
f 17/17/17 7/7/7 14/14/14
f 18/18/18 14/14/14 16/16/16
f 17/17/17 14/14/14 18/18/18
f 16/16/16 19/19/19 18/18/18
f 8/8/8 17/17/17 20/20/20
f 20/20/20 17/17/17 18/18/18
f 21/21/21 8/8/8 20/20/20
f 19/19/19 22/22/22 18/18/18
f 20/20/20 18/18/18 22/22/22
f 21/21/21 20/20/20 23/23/23
f 23/23/23 20/20/20 22/22/22
f 24/24/24 21/21/21 23/23/23
f 22/22/22 19/19/19 25/25/25
f 23/23/23 22/22/22 25/25/25
f 19/19/19 26/26/26 25/25/25
f 23/23/23 27/27/27 24/24/24
f 27/27/27 23/23/23 25/25/25
f 27/27/27 28/28/28 24/24/24
f 29/29/29 28/28/28 27/27/27
f 25/25/25 26/26/26 30/30/30
f 27/27/27 25/25/25 30/30/30
f 26/26/26 31/31/31 30/30/30
f 32/32/32 29/29/29 27/27/27
f 32/32/32 27/27/27 30/30/30
f 33/33/33 29/29/29 32/32/32
f 30/30/30 31/31/31 34/34/34
f 32/32/32 30/30/30 34/34/34
f 31/31/31 35/35/35 34/34/34
f 34/34/34 35/35/35 36/36/36
f 37/37/37 33/33/33 32/32/32
f 37/37/37 32/32/32 34/34/34
f 38/38/38 33/33/33 37/37/37
f 39/39/39 34/34/34 36/36/36
f 37/37/37 34/34/34 39/39/39
f 36/36/36 38/38/38 39/39/39
f 39/39/39 40/40/40 37/37/37
f 38/38/38 40/40/40 39/39/39
f 40/40/40 38/38/38 37/37/37
f 43/43/43 42/42/42 41/41/41
f 43/43/43 44/44/44 42/42/42
f 42/42/42 45/45/45 41/41/41
f 45/45/45 46/46/46 41/41/41
f 46/46/46 47/47/47 41/41/41
f 48/48/48 47/47/47 46/46/46
f 49/49/49 48/48/48 46/46/46
f 50/50/50 48/48/48 49/49/49
f 51/51/51 50/50/50 49/49/49
f 52/52/52 50/50/50 51/51/51
f 53/53/53 52/52/52 51/51/51
f 52/52/52 53/53/53 54/54/54
f 53/53/53 55/55/55 54/54/54
f 55/55/55 53/53/53 51/51/51
f 54/54/54 55/55/55 56/56/56
f 57/57/57 55/55/55 51/51/51
f 55/55/55 57/57/57 56/56/56
f 57/57/57 51/51/51 49/49/49
f 56/56/56 57/57/57 58/58/58
f 59/59/59 57/57/57 49/49/49
f 57/57/57 59/59/59 58/58/58
f 59/59/59 49/49/49 46/46/46
f 58/58/58 59/59/59 60/60/60
f 61/61/61 59/59/59 46/46/46
f 59/59/59 61/61/61 60/60/60
f 61/61/61 46/46/46 45/45/45
f 60/60/60 61/61/61 62/62/62
f 62/62/62 61/61/61 45/45/45
f 63/63/63 60/60/60 62/62/62
f 63/63/63 62/62/62 64/64/64
f 62/62/62 45/45/45 42/42/42
f 62/62/62 65/65/65 64/64/64
f 65/65/65 62/62/62 42/42/42
f 64/64/64 65/65/65 66/66/66
f 65/65/65 42/42/42 67/67/67
f 44/44/44 67/67/67 42/42/42
f 65/65/65 68/68/68 66/66/66
f 68/68/68 65/65/65 67/67/67
f 66/66/66 68/68/68 69/69/69
f 70/70/70 67/67/67 44/44/44
f 68/68/68 67/67/67 70/70/70
f 71/71/71 70/70/70 44/44/44
f 68/68/68 72/72/72 69/69/69
f 72/72/72 68/68/68 70/70/70
f 69/69/69 72/72/72 73/73/73
f 74/74/74 70/70/70 71/71/71
f 72/72/72 70/70/70 74/74/74
f 75/75/75 74/74/74 71/71/71
f 72/72/72 76/76/76 73/73/73
f 76/76/76 72/72/72 74/74/74
f 77/77/77 74/74/74 75/75/75
f 76/76/76 74/74/74 77/77/77
f 78/78/78 77/77/77 75/75/75
f 73/73/73 76/76/76 79/79/79
f 77/77/77 79/79/79 76/76/76
f 79/79/79 77/77/77 78/78/78
f 80/80/80 73/73/73 79/79/79
f 80/80/80 79/79/79 78/78/78
