g A_Hero_Farhad_01_daodan1
v -0.15416567 1.62881923 0.42078951
v -0.19879061 1.66481507 0.436758369
v -0.190644979 1.72338724 0.560890734
v -0.151550516 1.65543365 0.480110765
v -0.173513025 1.6882956 0.427397728
v -0.146050334 1.63635767 0.417784274
v -0.148665398 1.65811348 0.479042411
v -0.18165867 1.73173463 0.557562828
v -0.146050334 1.63635767 0.417784274
v -0.15416567 1.62881923 0.42078951
v -0.151550516 1.65543365 0.480110765
v -0.148665398 1.65811348 0.479042411
v -0.18165867 1.73173463 0.557562828
v -0.190644979 1.72338724 0.560890734
v -0.146050334 1.63635767 0.417784274
v -0.173513025 1.6882956 0.427397728
v -0.19879061 1.66481507 0.436758369
v -0.15416567 1.62881923 0.42078951
v -0.293691039 1.77350187 0.36311093
v -0.249066025 1.75847685 0.399419367
v -0.257211655 1.80191612 0.529584408
v -0.296306133 1.79525781 0.424369037
v -0.27434364 1.73499656 0.408779949
v -0.301806331 1.7659632 0.366116047
v -0.299191266 1.79257798 0.425437391
v -0.266197979 1.79356885 0.532912254
v -0.301806331 1.7659632 0.366116047
v -0.293691039 1.77350187 0.36311093
v -0.296306133 1.79525781 0.424369037
v -0.299191266 1.79257798 0.425437391
v -0.266197979 1.79356885 0.532912254
v -0.257211655 1.80191612 0.529584408
v -0.301806331 1.7659632 0.366116047
v -0.27434364 1.73499656 0.408779949
v -0.249066025 1.75847685 0.399419367
v -0.293691039 1.77350187 0.36311093
v -0.30180639 1.63635755 0.417784333
v -0.27434364 1.6882956 0.427397758
v -0.266198009 1.73173463 0.557562828
v -0.299191266 1.65811348 0.479042411
v -0.24906601 1.66481507 0.436758369
v -0.29369095 1.62881923 0.42078951
v -0.296306133 1.65543365 0.480110794
v -0.257211655 1.72338724 0.560890734
v -0.29369095 1.62881923 0.42078951
v -0.30180639 1.63635755 0.417784333
v -0.299191266 1.65811348 0.479042411
v -0.296306133 1.65543365 0.480110794
v -0.257211655 1.72338724 0.560890734
v -0.266198009 1.73173463 0.557562828
v -0.29369095 1.62881923 0.42078951
v -0.24906601 1.66481507 0.436758369
v -0.27434364 1.6882956 0.427397758
v -0.30180639 1.63635755 0.417784333
v -0.273538679 1.64332914 0.380396634
v -0.224226952 1.73973811 0.717692375
v -0.224226952 1.62435579 0.387960494
v -0.284884036 1.76307678 0.708388507
v -0.293964267 1.68913484 0.362135768
v -0.310008913 1.81942105 0.685926497
v -0.273538679 1.73494077 0.34387514
v -0.284883976 1.8757658 0.663464367
v -0.224226952 1.75391412 0.336311251
v -0.224226952 1.89910424 0.654160321
v -0.174915239 1.73494077 0.34387514
v -0.163569897 1.8757658 0.663464367
v -0.154489651 1.68913484 0.362135768
v -0.13844505 1.81942105 0.685926497
v -0.174915239 1.64332914 0.380396634
v -0.163569897 1.76307678 0.708388507
v -0.224226952 1.62435579 0.387960494
v -0.224226952 1.73973811 0.717692375
v -0.258434385 1.72620642 0.454266727
v -0.248415262 1.70373762 0.463223904
v -0.248415262 1.74867487 0.44530955
v -0.200038642 1.74867487 0.44530955
v -0.224226952 1.75798166 0.441599339
v -0.200038642 1.70373762 0.463223904
v -0.190019503 1.72620642 0.454266727
v -0.224226952 1.69443095 0.466934234
v -0.284884036 1.76307678 0.708388507
v -0.224226952 1.78227937 0.767004371
v -0.224226952 1.73973811 0.717692375
v -0.269993305 1.79988885 0.759984434
v -0.224226952 1.8595922 0.78576088
v -0.310008913 1.81942105 0.685926497
v -0.288950354 1.84240103 0.743036509
v -0.284883976 1.8757658 0.663464367
v -0.269993275 1.88491356 0.726089001
v -0.224226952 1.89910424 0.654160321
v -0.224226952 1.90252268 0.719068587
v -0.163569897 1.8757658 0.663464367
v -0.178460628 1.88491356 0.726089001
v -0.13844505 1.81942105 0.685926497
v -0.159503594 1.84240103 0.743036509
v -0.163569897 1.76307678 0.708388507
v -0.178460628 1.79988885 0.759984434
v -0.224226952 1.78227937 0.767004371
v -0.224226952 1.73973811 0.717692375
v -0.224226952 1.65456879 0.375916094
v -0.224226952 1.69443095 0.466934234
v -0.248415262 1.70373762 0.463223904
v -0.25053969 1.66469276 0.371879905
v -0.258434385 1.72620642 0.454266727
v -0.261438817 1.68913484 0.362135768
v -0.248415262 1.74867487 0.44530955
v -0.25053969 1.71357691 0.352392107
v -0.224226952 1.75798166 0.441599339
v -0.224226952 1.72370112 0.34835586
v -0.200038642 1.74867487 0.44530955
v -0.197914198 1.71357691 0.352392107
v -0.190019503 1.72620642 0.454266727
v -0.187015072 1.68913484 0.362135768
v -0.200038642 1.70373762 0.463223904
v -0.197914198 1.66469276 0.371879905
v -0.224226952 1.69443095 0.466934234
v -0.224226952 1.65456879 0.375916094
v -0.146050379 1.7659632 0.366116047
v -0.1735131 1.73499656 0.408779949
v -0.18165867 1.79356885 0.532912254
v -0.148665503 1.79257798 0.425437331
v -0.198790684 1.75847685 0.399419367
v -0.1541657 1.77350187 0.36311093
v -0.151550561 1.79525781 0.424369037
v -0.190645054 1.80191612 0.529584408
v -0.1541657 1.77350187 0.36311093
v -0.146050379 1.7659632 0.366116047
v -0.148665503 1.79257798 0.425437331
v -0.151550561 1.79525781 0.424369037
v -0.190645054 1.80191612 0.529584408
v -0.18165867 1.79356885 0.532912254
v -0.1541657 1.77350187 0.36311093
v -0.198790684 1.75847685 0.399419367
v -0.1735131 1.73499656 0.408779949
v -0.146050379 1.7659632 0.366116047
v -0.154489651 1.68913484 0.362135768
v -0.187015072 1.68913484 0.362135768
v -0.197914198 1.66469276 0.371879905
v -0.174915239 1.64332914 0.380396634
v -0.174915239 1.73494077 0.34387514
v -0.224226952 1.65456879 0.375916094
v -0.197914198 1.71357691 0.352392107
v -0.224226952 1.62435579 0.387960494
v -0.224226952 1.75391412 0.336311251
v -0.25053969 1.66469276 0.371879905
v -0.224226952 1.72370112 0.34835586
v -0.273538679 1.64332914 0.380396634
v -0.273538679 1.73494077 0.34387514
v -0.261438817 1.68913484 0.362135768
v -0.25053969 1.71357691 0.352392107
v -0.293964267 1.68913484 0.362135768
vt 0.207711995 0.457150012
vt 0.188848004 0.466850013
vt 0.188848004 0.516050994
vt 0.207711995 0.480435014
vt 0.188848004 0.466850013
vt 0.207711995 0.457150012
vt 0.207711995 0.480435014
vt 0.188848004 0.516050994
vt 0.198149994 0.546185017
vt 0.191166997 0.546185017
vt 0.193453997 0.568741024
vt 0.195862994 0.568741024
vt 0.198412001 0.607831001
vt 0.190906003 0.607831001
vt 0.198149994 0.545074999
vt 0.205855995 0.523572028
vt 0.183461994 0.523572028
vt 0.191166997 0.545074999
vt 0.207711995 0.457150012
vt 0.188848004 0.466850013
vt 0.188848004 0.516050994
vt 0.207711995 0.480435014
vt 0.188848004 0.466850013
vt 0.207711995 0.457150012
vt 0.207711995 0.480435014
vt 0.188848004 0.516050994
vt 0.198149994 0.546185017
vt 0.191166997 0.546185017
vt 0.193453997 0.568741024
vt 0.195862994 0.568741024
vt 0.198412001 0.607831001
vt 0.190906003 0.607831001
vt 0.198149994 0.545074999
vt 0.205855995 0.523572028
vt 0.183461994 0.523572028
vt 0.191166997 0.545074999
vt 0.207711995 0.457150012
vt 0.188848004 0.466850013
vt 0.188848004 0.516050994
vt 0.207711995 0.480435014
vt 0.188848004 0.466850013
vt 0.207711995 0.457150012
vt 0.207711995 0.480435014
vt 0.188848004 0.516050994
vt 0.198149994 0.546185017
vt 0.191166997 0.546185017
vt 0.193453997 0.568741024
vt 0.195862994 0.568741024
vt 0.198412001 0.607831001
vt 0.190906003 0.607831001
vt 0.198149994 0.545074999
vt 0.205855995 0.523572028
vt 0.183461994 0.523572028
vt 0.191166997 0.545074999
vt 0.157821998 0.52392
vt 0.179066002 0.648963988
vt 0.179066002 0.52392
vt 0.157821998 0.648963988
vt 0.136499003 0.52392
vt 0.136499003 0.648963988
vt 0.115123004 0.52392
vt 0.115123004 0.648963988
vt 0.0937210023 0.52392
vt 0.0937210023 0.648963988
vt 0.072319001 0.52392
vt 0.072319001 0.648963988
vt 0.0509429984 0.52392
vt 0.0509429984 0.648963988
vt 0.0296199992 0.52392
vt 0.0296199992 0.648963988
vt 0.00837600045 0.52392
vt 0.00837600045 0.648963988
vt 0.229927003 0.478641003
vt 0.236995995 0.481637001
vt 0.227046996 0.471524
vt 0.237158999 0.461575001
vt 0.230041996 0.464455009
vt 0.247107998 0.471686989
vt 0.244228005 0.464570999
vt 0.244112998 0.478756011
vt 0.367790997 0.472204
vt 0.341408014 0.493290991
vt 0.366403013 0.497797996
vt 0.344633013 0.475603014
vt 0.314797014 0.475165009
vt 0.359277993 0.447834998
vt 0.340128988 0.460162997
vt 0.340723008 0.429253995
vt 0.329362988 0.44906801
vt 0.314797014 0.421131998
vt 0.314797014 0.444451004
vt 0.288870007 0.429255009
vt 0.300229996 0.449065
vt 0.270316005 0.447833002
vt 0.289463997 0.460168004
vt 0.261801988 0.472205013
vt 0.284960002 0.475598991
vt 0.288185 0.493292004
vt 0.263190001 0.497797012
vt 0.181324005 0.611974001
vt 0.181324005 0.647551
vt 0.191100001 0.647551
vt 0.191100001 0.611974001
vt 0.200891003 0.647551
vt 0.200891003 0.611974001
vt 0.210693002 0.647551
vt 0.210693002 0.611974001
vt 0.220500007 0.647551
vt 0.220500007 0.611974001
vt 0.230306998 0.647551
vt 0.230306998 0.611974001
vt 0.240108997 0.647551
vt 0.240108997 0.611974001
vt 0.249899998 0.647551
vt 0.249899998 0.611974001
vt 0.259676009 0.647551
vt 0.259676009 0.611974001
vt 0.207711995 0.457150012
vt 0.188848004 0.466850013
vt 0.188848004 0.516050994
vt 0.207711995 0.480435014
vt 0.188848004 0.466850013
vt 0.207711995 0.457150012
vt 0.207711995 0.480435014
vt 0.188848004 0.516050994
vt 0.198149994 0.546185017
vt 0.191166997 0.546185017
vt 0.193453997 0.568741024
vt 0.195862994 0.568741024
vt 0.198412001 0.607831001
vt 0.190906003 0.607831001
vt 0.198149994 0.545074999
vt 0.205855995 0.523572028
vt 0.183461994 0.523572028
vt 0.191166997 0.545074999
vt 0.212160006 0.471554995
vt 0.223811001 0.471554011
vt 0.227715999 0.462128013
vt 0.219477996 0.453889996
vt 0.219476998 0.48921901
vt 0.237142995 0.458222985
vt 0.227715999 0.480984002
vt 0.237142995 0.446572006
vt 0.237142995 0.496538013
vt 0.246570006 0.46213001
vt 0.237142995 0.484885991
vt 0.254808009 0.453887999
vt 0.254806995 0.48922199
vt 0.250474989 0.471556008
vt 0.246571004 0.480980009
vt 0.262124002 0.471554011
vn -0.508042634 -0.769448876 0.387093008
vn -0.508042693 -0.769448876 0.387093008
vn -0.508042634 -0.769448876 0.387092978
vn -0.508042693 -0.769448876 0.387093008
vn 0.858210087 0.498685211 -0.121607728
vn 0.858210087 0.498685211 -0.121607728
vn 0.858210087 0.498685211 -0.121607728
vn 0.858210087 0.498685211 -0.121607728
vn 0.707106948 -0.656271458 0.263262957
vn 0.707106948 -0.656271458 0.263262957
vn 0.67416209 -0.513368011 0.530998051
vn 0.674162686 -0.513371468 0.530993819
vn 0.630247772 -0.416121155 0.655462444
vn 0.630247772 -0.416121155 0.655462444
vn -0.341958016 -0.00850427896 -0.939676762
vn -0.341958016 -0.00850427896 -0.939676762
vn -0.341958016 -0.00850427896 -0.939676762
vn -0.341958016 -0.00850427896 -0.939676762
vn 0.508179903 0.823580503 -0.251929402
vn 0.508179903 0.823580444 -0.251929373
vn 0.508179903 0.823580503 -0.251929373
vn 0.508179843 0.823580444 -0.251929432
vn -0.858208179 -0.44447884 0.25674364
vn -0.858208179 -0.44447884 0.25674364
vn -0.858208179 -0.44447884 0.25674364
vn -0.858208954 -0.444478065 0.256742269
vn -0.707111001 0.656267464 -0.263262451
vn -0.707111001 0.656267464 -0.263262451
vn -0.674163818 0.738012254 0.0290012658
vn -0.674163163 0.738012731 0.0290044434
vn -0.63024801 0.753743052 0.186168581
vn -0.63024801 0.753743052 0.186168581
vn 0.341961861 -0.643252313 -0.685046375
vn 0.341961861 -0.643252313 -0.685046375
vn 0.341961861 -0.643252313 -0.685046375
vn 0.341961861 -0.643252313 -0.685046375
vn -0.858276486 0.498582453 -0.121560469
vn -0.858276486 0.498582482 -0.121560484
vn -0.858276486 0.498582453 -0.121560469
vn -0.858276486 0.498582453 -0.121560454
vn 0.508112907 -0.769405544 0.387087137
vn 0.508112907 -0.769405544 0.387087137
vn 0.508112907 -0.769405544 0.387087137
vn 0.508112907 -0.769405544 0.387087137
vn -0.707106948 -0.65627116 0.263263881
vn -0.707106948 -0.65627116 0.263263881
vn -0.67416209 -0.513371766 0.530994177
vn -0.674160838 -0.513368428 0.530999124
vn -0.630244911 -0.416121513 0.655464947
vn -0.630244911 -0.416121513 0.655464947
vn 0.341959089 -0.00850293413 -0.939676344
vn 0.341959089 -0.00850293413 -0.939676344
vn 0.341959089 -0.00850293413 -0.939676344
vn 0.341959089 -0.00850293413 -0.939676344
vn -0.706360698 -0.672443211 0.221076459
vn -0.382338911 -0.872163773 0.305200458
vn -0.382338911 -0.872163773 0.305200458
vn -0.706360698 -0.672443211 0.221076459
vn -0.998945057 -0.0171424896 -0.0426037386
vn -0.998945057 -0.0171424896 -0.0426037386
vn -0.70636189 0.638157248 -0.306281328
vn -0.706360877 0.638158262 -0.306281716
vn -0 0.909592927 -0.415500581
vn -0 0.909592927 -0.415500581
vn 0.70636189 0.638157248 -0.306281328
vn 0.70636189 0.638157248 -0.306281328
vn 0.998944819 -0.017721191 -0.0423696488
vn 0.998944581 -0.0162739716 -0.0429519676
vn 0.706044853 -0.67273742 0.221189708
vn 0.706824958 -0.672013581 0.220898435
vn 0.382338911 -0.872163773 0.305200458
vn 0.382338911 -0.872163773 0.305200458
vn 1.29999971E-05 -0.373288602 -0.927715242
vn 9.99999997E-07 -0.373286784 -0.927716076
vn 9.99999997E-07 -0.373286784 -0.927716076
vn -9.99999997E-07 -0.373286784 -0.927716076
vn -0 -0.373292297 -0.927713811
vn -9.99999997E-07 -0.373286784 -0.927716076
vn -1.29999989E-05 -0.373286784 -0.927716076
vn -0 -0.373296946 -0.927711964
vn -0.669042826 -0.499859035 0.550020695
vn -0.341613114 -0.596873403 0.725977123
vn -0.364892989 -0.704759479 0.608413637
vn -0.620499134 -0.396639377 0.676504374
vn -0 0.373292297 0.927713811
vn -0.946171165 0.120821983 0.30027014
vn -0.877520204 0.179008067 0.444875568
vn -0.669043958 0.741503596 0.0505235456
vn -0.620500028 0.754655242 0.213249028
vn -0 0.998598516 -0.0529250056
vn -0 0.993095934 0.117305331
vn 0.669043958 0.741503596 0.0505235456
vn 0.620500922 0.754654825 0.213248074
vn 0.946171165 0.120821983 0.30027014
vn 0.877520204 0.179008067 0.444875568
vn 0.669043005 -0.499859542 0.55001986
vn 0.620500028 -0.396639675 0.676503301
vn 0.341613978 -0.596873105 0.725976765
vn 0.364894062 -0.704760373 0.608411908
vn 0.382535905 0.846331298 -0.370661139
vn 0.382535905 0.846331298 -0.370661139
vn 0.706783175 0.644405127 -0.291889876
vn 0.706783175 0.644405127 -0.291889876
vn 0.999542713 -0.0112893321 -0.0280538332
vn 0.999542713 -0.0112871034 -0.0280536506
vn 0.706785083 -0.666979313 0.235782549
vn 0.706785083 -0.666979313 0.235782549
vn -0 -0.938577712 0.345067799
vn -0 -0.938577712 0.345067799
vn -0.706785083 -0.666979313 0.235782549
vn -0.706785083 -0.666979671 0.235781625
vn -0.999542713 -0.0112898927 -0.0280525368
vn -0.999542713 -0.0112871034 -0.0280536506
vn -0.706783175 0.644405127 -0.291889876
vn -0.706783175 0.644405127 -0.291889876
vn -0.382535905 0.846330881 -0.370662034
vn -0.382535905 0.846330881 -0.370662034
vn 0.85820967 -0.444477022 0.256741822
vn 0.85820967 -0.444477022 0.256741822
vn 0.85820967 -0.444477022 0.256741822
vn 0.85820967 -0.444477022 0.256741822
vn -0.5081141 0.823613465 -0.251954079
vn -0.5081141 0.823613465 -0.251954079
vn -0.5081141 0.823613465 -0.251954079
vn -0.5081141 0.823613465 -0.251954079
vn 0.707113981 0.656264603 -0.263261348
vn 0.707113981 0.656264603 -0.263261348
vn 0.674164236 0.738011718 0.029006999
vn 0.67416507 0.738011062 0.0290029477
vn 0.630248189 0.753742695 0.186169907
vn 0.630248189 0.753742695 0.186169907
vn -0.341963023 -0.643252313 -0.685045898
vn -0.341963023 -0.643252313 -0.685045898
vn -0.341963023 -0.643252313 -0.685045898
vn -0.341963023 -0.643252313 -0.685045898
vn 9.99999884E-07 -0.373289496 -0.927714944
vn 9.99999884E-07 -0.373289496 -0.927714944
vn -0 -0.373293191 -0.927713394
vn -0 -0.373293191 -0.927713394
vn -0 -0.373292297 -0.927713811
vn -0 -0.373296946 -0.927711964
vn -0 -0.373291433 -0.927714229
vn -0 -0.373296946 -0.927711964
vn 9.99999884E-07 -0.373293191 -0.927713394
vn -0 -0.373293191 -0.927713394
vn 9.99999884E-07 -0.373293191 -0.927713394
vn -0 -0.373293191 -0.927713394
vn 9.99999997E-07 -0.373292297 -0.927713811
vn -9.99999884E-07 -0.37329039 -0.927714527
vn 9.99999997E-07 -0.373292297 -0.927713811
vn -9.99999884E-07 -0.37329039 -0.927714527
g A_Hero_Farhad_01_daodan1_0
f 3/3/3 2/2/2 1/1/1
f 4/4/4 3/3/3 1/1/1
f 7/7/7 6/6/6 5/5/5
f 8/8/8 7/7/7 5/5/5
f 11/11/11 10/10/10 9/9/9
f 12/12/12 11/11/11 9/9/9
f 12/12/12 13/13/13 11/11/11
f 13/13/13 14/14/14 11/11/11
f 17/17/17 16/16/16 15/15/15
f 18/18/18 17/17/17 15/15/15
f 21/21/21 20/20/20 19/19/19
f 22/22/22 21/21/21 19/19/19
f 25/25/25 24/24/24 23/23/23
f 26/26/26 25/25/25 23/23/23
f 29/29/29 28/28/28 27/27/27
f 30/30/30 29/29/29 27/27/27
f 30/30/30 31/31/31 29/29/29
f 31/31/31 32/32/32 29/29/29
f 35/35/35 34/34/34 33/33/33
f 36/36/36 35/35/35 33/33/33
f 39/39/39 38/38/38 37/37/37
f 40/40/40 39/39/39 37/37/37
f 43/43/43 42/42/42 41/41/41
f 44/44/44 43/43/43 41/41/41
f 47/47/47 46/46/46 45/45/45
f 48/48/48 47/47/47 45/45/45
f 48/48/48 49/49/49 47/47/47
f 49/49/49 50/50/50 47/47/47
f 53/53/53 52/52/52 51/51/51
f 54/54/54 53/53/53 51/51/51
f 57/57/57 56/56/56 55/55/55
f 56/56/56 58/58/58 55/55/55
f 55/55/55 58/58/58 59/59/59
f 58/58/58 60/60/60 59/59/59
f 59/59/59 60/60/60 61/61/61
f 60/60/60 62/62/62 61/61/61
f 61/61/61 62/62/62 63/63/63
f 62/62/62 64/64/64 63/63/63
f 63/63/63 64/64/64 65/65/65
f 64/64/64 66/66/66 65/65/65
f 65/65/65 66/66/66 67/67/67
f 66/66/66 68/68/68 67/67/67
f 67/67/67 68/68/68 69/69/69
f 68/68/68 70/70/70 69/69/69
f 69/69/69 70/70/70 71/71/71
f 70/70/70 72/72/72 71/71/71
f 75/75/75 74/74/74 73/73/73
f 76/76/76 74/74/74 75/75/75
f 76/76/76 75/75/75 77/77/77
f 78/78/78 74/74/74 76/76/76
f 78/78/78 76/76/76 79/79/79
f 74/74/74 78/78/78 80/80/80
f 83/83/83 82/82/82 81/81/81
f 82/82/82 84/84/84 81/81/81
f 82/82/82 85/85/85 84/84/84
f 81/81/81 84/84/84 86/86/86
f 84/84/84 87/87/87 86/86/86
f 84/84/84 85/85/85 87/87/87
f 86/86/86 87/87/87 88/88/88
f 87/87/87 89/89/89 88/88/88
f 87/87/87 85/85/85 89/89/89
f 88/88/88 89/89/89 90/90/90
f 89/89/89 91/91/91 90/90/90
f 89/89/89 85/85/85 91/91/91
f 90/90/90 91/91/91 92/92/92
f 91/91/91 93/93/93 92/92/92
f 91/91/91 85/85/85 93/93/93
f 92/92/92 93/93/93 94/94/94
f 93/93/93 95/95/95 94/94/94
f 93/93/93 85/85/85 95/95/95
f 94/94/94 95/95/95 96/96/96
f 95/95/95 85/85/85 97/97/97
f 95/95/95 97/97/97 96/96/96
f 97/97/97 85/85/85 98/98/98
f 96/96/96 97/97/97 99/99/99
f 97/97/97 98/98/98 99/99/99
f 102/102/102 101/101/101 100/100/100
f 103/103/103 102/102/102 100/100/100
f 104/104/104 102/102/102 103/103/103
f 105/105/105 104/104/104 103/103/103
f 106/106/106 104/104/104 105/105/105
f 107/107/107 106/106/106 105/105/105
f 108/108/108 106/106/106 107/107/107
f 109/109/109 108/108/108 107/107/107
f 110/110/110 108/108/108 109/109/109
f 111/111/111 110/110/110 109/109/109
f 112/112/112 110/110/110 111/111/111
f 113/113/113 112/112/112 111/111/111
f 114/114/114 112/112/112 113/113/113
f 115/115/115 114/114/114 113/113/113
f 116/116/116 114/114/114 115/115/115
f 117/117/117 116/116/116 115/115/115
f 120/120/120 119/119/119 118/118/118
f 121/121/121 120/120/120 118/118/118
f 124/124/124 123/123/123 122/122/122
f 125/125/125 124/124/124 122/122/122
f 128/128/128 127/127/127 126/126/126
f 129/129/129 128/128/128 126/126/126
f 129/129/129 130/130/130 128/128/128
f 130/130/130 131/131/131 128/128/128
f 134/134/134 133/133/133 132/132/132
f 135/135/135 134/134/134 132/132/132
f 138/138/138 137/137/137 136/136/136
f 139/139/139 138/138/138 136/136/136
f 136/136/136 137/137/137 140/140/140
f 141/141/141 138/138/138 139/139/139
f 137/137/137 142/142/142 140/140/140
f 143/143/143 141/141/141 139/139/139
f 140/140/140 142/142/142 144/144/144
f 145/145/145 141/141/141 143/143/143
f 142/142/142 146/146/146 144/144/144
f 147/147/147 145/145/145 143/143/143
f 144/144/144 146/146/146 148/148/148
f 149/149/149 145/145/145 147/147/147
f 146/146/146 150/150/150 148/148/148
f 151/151/151 149/149/149 147/147/147
f 148/148/148 150/150/150 151/151/151
f 150/150/150 149/149/149 151/151/151
