g A_Hero_Sally_chedeng_01
v 1.09684062 0.35457617 0.968203723
v 0.98775351 0.35395956 0.97207886
v 1.07600653 0.418022484 0.97293061
v 1.07600653 0.418022484 0.97293061
v 1.02114022 0.456399798 0.975788534
v 1.02114022 0.456399798 0.975788534
v 0.954366505 0.456400186 0.975788772
v 0.954366505 0.456400186 0.975788772
v 0.89949882 0.418022782 0.972930193
v 0.89949882 0.418022782 0.972930193
v 0.878664315 0.354576498 0.968203783
v 0.878664315 0.354576498 0.968203783
v 0.89949894 0.291125298 0.963477075
v 0.89949894 0.291125298 0.963477075
v 0.954042733 0.251911312 0.96055603
v 0.954042733 0.251911312 0.96055603
v 1.0214628 0.251911581 0.960555911
v 1.0214628 0.251911581 0.960555911
v 1.07600772 0.291125029 0.963477314
v 1.07600772 0.291125029 0.963477314
v 1.09684062 0.35457617 0.968203723
v 0.19195424 0.174330249 1.98750055
v 0.206628457 0.140962183 1.98774636
v 0.172138035 0.155159071 1.98764229
v 0.241118744 0.155159071 1.98764229
v 0.221302614 0.174330115 1.9875015
v 0.221302614 0.174330115 1.9875015
v 0.19195424 0.174330249 1.98750055
v 0.221303061 0.107594125 1.98799086
v 0.241119474 0.126764968 1.9878521
v 0.172137231 0.1267654 1.98785031
v 0.191954151 0.107594147 1.98799109
v 0.241119474 0.126764968 1.9878521
v 0.241118744 0.155159071 1.98764229
v 0.172138035 0.155159071 1.98764229
v 0.172137231 0.1267654 1.98785031
v 0.191954151 0.107594147 1.98799109
v 0.221303061 0.107594125 1.98799086
v -1.0964222 0.354774624 0.966982782
v -1.20550919 0.354158014 0.970857918
v -1.11725616 0.418220937 0.971709669
v -1.11725616 0.418220937 0.971709669
v -1.1721226 0.456598282 0.974567592
v -1.1721226 0.456598282 0.974567592
v -1.23889625 0.45659861 0.974567831
v -1.23889625 0.45659861 0.974567831
v -1.293764 0.418221235 0.971709251
v -1.293764 0.418221235 0.971709251
v -1.31459832 0.354774922 0.966982841
v -1.31459832 0.354774922 0.966982841
v -1.29376376 0.291323721 0.962256134
v -1.29376376 0.291323721 0.962256134
v -1.23922002 0.252109736 0.959335089
v -1.23922002 0.252109736 0.959335089
v -1.17180002 0.252110004 0.959335029
v -1.17180002 0.252110004 0.959335029
v -1.11725497 0.291323453 0.962256372
v -1.11725497 0.291323453 0.962256372
v -1.0964222 0.354774624 0.966982782
v 1.50411785 0.354583263 0.96820426
v 1.39503074 0.353966653 0.972079396
v 1.48328376 0.418029577 0.972931087
v 1.48328376 0.418029577 0.972931087
v 1.42841744 0.456406921 0.97578907
v 1.42841744 0.456406921 0.97578907
v 1.36164379 0.456407279 0.975789309
v 1.36164379 0.456407279 0.975789309
v 1.30677605 0.418029904 0.972930729
v 1.30677605 0.418029904 0.972930729
v 1.2859416 0.354583591 0.968204319
v 1.2859416 0.354583591 0.968204319
v 1.30677629 0.29113239 0.963477612
v 1.30677629 0.29113239 0.963477612
v 1.36132002 0.251918435 0.960556567
v 1.36132002 0.251918435 0.960556567
v 1.42874002 0.251918674 0.960556448
v 1.42874002 0.251918674 0.960556448
v 1.48328507 0.291132122 0.96347785
v 1.48328507 0.291132122 0.96347785
v 1.50411785 0.354583263 0.96820426
v -0.685569525 0.354574531 0.968203545
v -0.794656575 0.353957921 0.972078621
v -0.706403553 0.418020844 0.972930431
v -0.706403553 0.418020844 0.972930431
v -0.761269867 0.456398189 0.975788414
v -0.761269867 0.456398189 0.975788414
v -0.82804358 0.456398547 0.975788653
v -0.82804358 0.456398547 0.975788653
v -0.882911265 0.418021142 0.972929955
v -0.882911265 0.418021142 0.972929955
v -0.90374577 0.354574829 0.968203545
v -0.90374577 0.354574829 0.968203545
v -0.882911146 0.291123658 0.963476837
v -0.882911146 0.291123658 0.963476837
v -0.828367352 0.251909703 0.960555851
v -0.828367352 0.251909703 0.960555851
v -0.760947347 0.251909941 0.960555732
v -0.760947347 0.251909941 0.960555732
v -0.706402361 0.29112339 0.963477135
v -0.706402361 0.29112339 0.963477135
v -0.685569525 0.354574531 0.968203545
vt 0.885018706 0.264875919
vt 0.901775777 0.264875919
vt 0.885018706 0.25398463
vt 0.885018706 0.25398463
vt 0.896050155 0.247257173
vt 0.896050155 0.247257173
vt 0.907500565 0.247257173
vt 0.907500565 0.247257173
vt 0.918532968 0.25398463
vt 0.918532968 0.25398463
vt 0.918532968 0.264875919
vt 0.918532968 0.264875919
vt 0.918532968 0.275761485
vt 0.918532968 0.275761485
vt 0.907500565 0.282495499
vt 0.907500565 0.282495499
vt 0.896050155 0.282495499
vt 0.896050155 0.282495499
vt 0.885018706 0.275761485
vt 0.885018706 0.275761485
vt 0.885018706 0.264875919
vt 0.609468877 0.16441983
vt 0.606688023 0.156460166
vt 0.60317409 0.164351389
vt 0.614866912 0.153648376
vt 0.614379525 0.159924924
vt 0.614379525 0.159924924
vt 0.609468877 0.16441983
vt 0.604038417 0.148389697
vt 0.610535681 0.148687333
vt 0.598614216 0.159599602
vt 0.59889102 0.153101295
vt 0.610535681 0.148687333
vt 0.614866912 0.153648376
vt 0.60317409 0.164351389
vt 0.598614216 0.159599602
vt 0.59889102 0.153101295
vt 0.604038417 0.148389697
vt 0.885018706 0.264875919
vt 0.901775777 0.264875919
vt 0.885018706 0.25398463
vt 0.885018706 0.25398463
vt 0.896050155 0.247257173
vt 0.896050155 0.247257173
vt 0.907500565 0.247257173
vt 0.907500565 0.247257173
vt 0.918532968 0.25398463
vt 0.918532968 0.25398463
vt 0.918532968 0.264875919
vt 0.918532968 0.264875919
vt 0.918532968 0.275761485
vt 0.918532968 0.275761485
vt 0.907500565 0.282495499
vt 0.907500565 0.282495499
vt 0.896050155 0.282495499
vt 0.896050155 0.282495499
vt 0.885018706 0.275761485
vt 0.885018706 0.275761485
vt 0.885018706 0.264875919
vt 0.885018706 0.264875919
vt 0.901775777 0.264875919
vt 0.885018706 0.25398463
vt 0.885018706 0.25398463
vt 0.896050155 0.247257173
vt 0.896050155 0.247257173
vt 0.907500565 0.247257173
vt 0.907500565 0.247257173
vt 0.918532968 0.25398463
vt 0.918532968 0.25398463
vt 0.918532968 0.264875919
vt 0.918532968 0.264875919
vt 0.918532968 0.275761485
vt 0.918532968 0.275761485
vt 0.907500565 0.282495499
vt 0.907500565 0.282495499
vt 0.896050155 0.282495499
vt 0.896050155 0.282495499
vt 0.885018706 0.275761485
vt 0.885018706 0.275761485
vt 0.885018706 0.264875919
vt 0.885018706 0.264875919
vt 0.901775777 0.264875919
vt 0.885018706 0.25398463
vt 0.885018706 0.25398463
vt 0.896050155 0.247257173
vt 0.896050155 0.247257173
vt 0.907500565 0.247257173
vt 0.907500565 0.247257173
vt 0.918532968 0.25398463
vt 0.918532968 0.25398463
vt 0.918532968 0.264875919
vt 0.918532968 0.264875919
vt 0.918532968 0.275761485
vt 0.918532968 0.275761485
vt 0.907500565 0.282495499
vt 0.907500565 0.282495499
vt 0.896050155 0.282495499
vt 0.896050155 0.282495499
vt 0.885018706 0.275761485
vt 0.885018706 0.275761485
vt 0.885018706 0.264875919
vn 0.0358230583 -0.0742137581 0.99659878
vn -2.00622296E-07 -0.0743438676 0.997232616
vn 0.0288595073 -0.053027194 0.998175979
vn 0.0288595073 -0.053027194 0.998175979
vn 0.0110165579 -0.0397730656 0.999148011
vn 0.0110165579 -0.0397730656 0.999148011
vn -0.0110165747 -0.0397753902 0.999147892
vn -0.0110165747 -0.0397753902 0.999147892
vn -0.0288619939 -0.0530258641 0.998175979
vn -0.0288619939 -0.0530258641 0.998175979
vn -0.0358219445 -0.0742127523 0.996598899
vn -0.0358219445 -0.0742127523 0.996598899
vn -0.0290806312 -0.0953677744 0.995017231
vn -0.0290806312 -0.0953677744 0.995017231
vn -0.0111448904 -0.108559296 0.994027495
vn -0.0111448904 -0.108559296 0.994027495
vn 0.0111447899 -0.108560711 0.994027376
vn 0.0111447899 -0.108560711 0.994027376
vn 0.0290807802 -0.0953666344 0.99501735
vn 0.0290807802 -0.0953666344 0.99501735
vn 0.0358230583 -0.0742137581 0.99659878
vn -6.19461116E-06 0.00736397784 0.999972939
vn -1.32177274E-05 0.00734379981 0.999973059
vn -3.20365234E-06 0.00734899659 0.999973059
vn -1.59043739E-05 0.00736582186 0.999972939
vn -1.27092726E-05 0.00734714419 0.999973059
vn -1.27092726E-05 0.00734714419 0.999973059
vn -6.19461116E-06 0.00736397784 0.999972939
vn -2.63785314E-05 0.00731420424 0.999973297
vn -4.10782086E-05 0.00734498259 0.999973059
vn -6.35029437E-06 0.00733115431 0.999973178
vn 2.93717494E-06 0.00733413966 0.999973178
vn -4.10782086E-05 0.00734498259 0.999973059
vn -1.59043739E-05 0.00736582186 0.999972939
vn -3.20365234E-06 0.00734899659 0.999973059
vn -6.35029437E-06 0.00733115431 0.999973178
vn 2.93717494E-06 0.00733413966 0.999973178
vn -2.63785314E-05 0.00731420424 0.999973297
vn 0.0358215943 -0.0742138475 0.99659878
vn -9.53985023E-07 -0.0743438452 0.997232616
vn 0.0288580433 -0.0530271456 0.998175979
vn 0.0288580433 -0.0530271456 0.998175979
vn 0.0110147847 -0.0397730656 0.999148011
vn 0.0110147847 -0.0397730656 0.999148011
vn -0.0110174483 -0.0397753716 0.999147892
vn -0.0110174483 -0.0397753716 0.999147892
vn -0.028861111 -0.0530258641 0.998175979
vn -0.028861111 -0.0530258641 0.998175979
vn -0.0358198881 -0.0742128268 0.996598899
vn -0.0358198881 -0.0742128268 0.996598899
vn -0.0290811602 -0.095367752 0.995017231
vn -0.0290811602 -0.095367752 0.995017231
vn -0.0111449091 -0.108559236 0.994027495
vn -0.0111449091 -0.108559236 0.994027495
vn 0.0111438893 -0.108560577 0.994027376
vn 0.0111438893 -0.108560577 0.994027376
vn 0.0290772766 -0.0953666568 0.995017469
vn 0.0290772766 -0.0953666568 0.995017469
vn 0.0358215943 -0.0742138475 0.99659878
vn 0.0358212367 -0.0742136389 0.99659878
vn -9.27363544E-07 -0.0743438378 0.997232616
vn 0.0288585536 -0.0530271083 0.998175979
vn 0.0288585536 -0.0530271083 0.998175979
vn 0.011015675 -0.0397729464 0.999148011
vn 0.011015675 -0.0397729464 0.999148011
vn -0.0110183414 -0.0397754908 0.999147892
vn -0.0110183414 -0.0397754908 0.999147892
vn -0.0288619902 -0.0530259609 0.998175979
vn -0.0288619902 -0.0530259609 0.998175979
vn -0.0358202532 -0.0742129013 0.996598899
vn -0.0358202532 -0.0742129013 0.996598899
vn -0.0290815514 -0.0953676775 0.995017231
vn -0.0290815514 -0.0953676775 0.995017231
vn -0.0111449147 -0.108559035 0.994027495
vn -0.0111449147 -0.108559035 0.994027495
vn 0.0111447833 -0.108560875 0.994027257
vn 0.0111447833 -0.108560875 0.994027257
vn 0.029078152 -0.0953666642 0.995017469
vn 0.029078152 -0.0953666642 0.995017469
vn 0.0358212367 -0.0742136389 0.99659878
vn 0.0358213484 -0.0742138177 0.99659878
vn -8.94704044E-07 -0.0743439868 0.997232616
vn 0.0288586207 -0.0530275144 0.998175979
vn 0.0288586207 -0.0530275144 0.998175979
vn 0.0110156629 -0.0397736244 0.999148011
vn 0.0110156629 -0.0397736244 0.999148011
vn -0.0110183368 -0.0397762172 0.999147892
vn -0.0110183368 -0.0397762172 0.999147892
vn -0.0288619921 -0.0530264191 0.998175979
vn -0.0288619921 -0.0530264191 0.998175979
vn -0.0358202234 -0.0742128491 0.996598899
vn -0.0358202234 -0.0742128491 0.996598899
vn -0.029081475 -0.0953672081 0.99501735
vn -0.029081475 -0.0953672081 0.99501735
vn -0.0111449016 -0.10855861 0.994027495
vn -0.0111449016 -0.10855861 0.994027495
vn 0.0111447768 -0.108560838 0.994027257
vn 0.0111447768 -0.108560838 0.994027257
vn 0.0290781595 -0.0953667834 0.995017469
vn 0.0290781595 -0.0953667834 0.995017469
vn 0.0358213484 -0.0742138177 0.99659878
g A_Hero_Sally_chedeng_01_0
f 3/3/3 2/2/2 1/1/1
f 5/5/5 2/2/2 4/4/4
f 7/7/7 2/2/2 6/6/6
f 9/9/9 2/2/2 8/8/8
f 11/11/11 2/2/2 10/10/10
f 13/13/13 2/2/2 12/12/12
f 15/15/15 2/2/2 14/14/14
f 17/17/17 2/2/2 16/16/16
f 19/19/19 2/2/2 18/18/18
f 21/21/21 2/2/2 20/20/20
f 24/24/24 23/23/23 22/22/22
f 26/26/26 23/23/23 25/25/25
f 28/28/28 23/23/23 27/27/27
f 30/30/30 23/23/23 29/29/29
f 32/32/32 23/23/23 31/31/31
f 34/34/34 23/23/23 33/33/33
f 36/36/36 23/23/23 35/35/35
f 38/38/38 23/23/23 37/37/37
f 41/41/41 40/40/40 39/39/39
f 43/43/43 40/40/40 42/42/42
f 45/45/45 40/40/40 44/44/44
f 47/47/47 40/40/40 46/46/46
f 49/49/49 40/40/40 48/48/48
f 51/51/51 40/40/40 50/50/50
f 53/53/53 40/40/40 52/52/52
f 55/55/55 40/40/40 54/54/54
f 57/57/57 40/40/40 56/56/56
f 59/59/59 40/40/40 58/58/58
f 62/62/62 61/61/61 60/60/60
f 64/64/64 61/61/61 63/63/63
f 66/66/66 61/61/61 65/65/65
f 68/68/68 61/61/61 67/67/67
f 70/70/70 61/61/61 69/69/69
f 72/72/72 61/61/61 71/71/71
f 74/74/74 61/61/61 73/73/73
f 76/76/76 61/61/61 75/75/75
f 78/78/78 61/61/61 77/77/77
f 80/80/80 61/61/61 79/79/79
f 83/83/83 82/82/82 81/81/81
f 85/85/85 82/82/82 84/84/84
f 87/87/87 82/82/82 86/86/86
f 89/89/89 82/82/82 88/88/88
f 91/91/91 82/82/82 90/90/90
f 93/93/93 82/82/82 92/92/92
f 95/95/95 82/82/82 94/94/94
f 97/97/97 82/82/82 96/96/96
f 99/99/99 82/82/82 98/98/98
f 101/101/101 82/82/82 100/100/100
