g A_Hero_Elsa_01_LOD1_light
v 0.620823681 2.30668211 0.736080945
v 0.654092491 2.36430502 0.761379778
v 0.687361062 2.30668211 0.736080945
v 0.587554991 2.36430502 0.736080945
v 0.720629692 2.36430502 0.736080945
v 0.620823741 2.42192793 0.736080945
v 0.687361062 2.42192793 0.736080945
v 0.712258995 1.24746358 1.60363829
v 0.75228703 1.31679428 1.63407731
v 0.792314947 1.24746358 1.60363829
v 0.672230899 1.31679428 1.60363829
v 0.832342982 1.31679428 1.60363829
v 0.712259054 1.38612473 1.60363829
v 0.792314947 1.38612473 1.60363829
v 0.390053779 1.11677337 1.73284674
v 0.44131273 1.20555627 1.76672125
v 0.492571473 1.11677337 1.73284674
v 0.338794827 1.20555627 1.73284674
v 0.543830335 1.20555627 1.73284674
v 0.390053898 1.29433894 1.73284674
v 0.492571473 1.29433894 1.73284674
v 0.733773887 1.01168823 -1.85033357
v 0.821762621 1.01168823 -1.85033357
v 0.777768254 1.08788896 -1.88012969
v 0.689779341 1.08788908 -1.85033357
v 0.865756989 1.08788908 -1.85033381
v 0.733773947 1.16408944 -1.85033357
v 0.821762621 1.16408944 -1.85033357
v -0.620823681 2.30668211 0.736080945
v -0.687361062 2.30668211 0.736080945
v -0.654092491 2.36430502 0.761379778
v -0.587554991 2.36430502 0.736080945
v -0.720629692 2.36430502 0.736080945
v -0.620823741 2.42192793 0.736080945
v -0.687361062 2.42192793 0.736080945
v -0.712258995 1.24746358 1.60363829
v -0.792314947 1.24746358 1.60363829
v -0.75228703 1.31679428 1.63407731
v -0.672230899 1.31679428 1.60363829
v -0.832342982 1.31679428 1.60363829
v -0.712259054 1.38612473 1.60363829
v -0.792314947 1.38612473 1.60363829
v -0.390053779 1.11677337 1.73284674
v -0.492571473 1.11677337 1.73284674
v -0.44131273 1.20555627 1.76672125
v -0.338794827 1.20555627 1.73284674
v -0.543830335 1.20555627 1.73284674
v -0.390053898 1.29433894 1.73284674
v -0.492571473 1.29433894 1.73284674
v -0.733773887 1.01168823 -1.85033357
v -0.777768254 1.08788896 -1.88012969
v -0.821762621 1.01168823 -1.85033357
v -0.689779341 1.08788908 -1.85033357
v -0.865756989 1.08788908 -1.85033381
v -0.733773947 1.16408944 -1.85033357
v -0.821762621 1.16408944 -1.85033357
vt 0.650227547 0.546045065
vt 0.650227785 0.540166378
vt 0.644349098 0.542601347
vt 0.65610671 0.542601705
vt 0.644349098 0.53773129
vt 0.656106472 0.53773129
vt 0.650227904 0.534287453
vt 0.650227547 0.546045065
vt 0.650227785 0.540166378
vt 0.644349098 0.542601347
vt 0.65610671 0.542601705
vt 0.644349098 0.53773129
vt 0.656106472 0.53773129
vt 0.650227904 0.534287453
vt 0.650227547 0.546045065
vt 0.650227785 0.540166378
vt 0.644349098 0.542601347
vt 0.65610671 0.542601705
vt 0.644349098 0.53773129
vt 0.656106472 0.53773129
vt 0.650227904 0.534287453
vt 0.650227547 0.546045065
vt 0.644349098 0.542601347
vt 0.650227785 0.540166318
vt 0.65610671 0.542601705
vt 0.644349098 0.53773129
vt 0.656106472 0.53773129
vt 0.650227904 0.534287453
vt 0.650227547 0.546045065
vt 0.644349098 0.542601347
vt 0.650227785 0.540166378
vt 0.65610671 0.542601705
vt 0.644349098 0.53773129
vt 0.656106472 0.53773129
vt 0.650227904 0.534287453
vt 0.650227547 0.546045065
vt 0.644349098 0.542601347
vt 0.650227785 0.540166378
vt 0.65610671 0.542601705
vt 0.644349098 0.53773129
vt 0.656106472 0.53773129
vt 0.650227904 0.534287453
vt 0.650227547 0.546045065
vt 0.644349098 0.542601347
vt 0.650227785 0.540166378
vt 0.65610671 0.542601705
vt 0.644349098 0.53773129
vt 0.656106472 0.53773129
vt 0.650227904 0.534287453
vt 0.650227547 0.546045065
vt 0.650227845 0.540166318
vt 0.644349098 0.542601347
vt 0.65610671 0.542601705
vt 0.644349098 0.53773129
vt 0.656106472 0.53773129
vt 0.650227904 0.534287453
vn -0.177698806 -0.307783425 0.934715211
vn 4.96399139E-07 0 1
vn 0.17769891 -0.307783693 0.934715092
vn -0.355397135 0 0.93471539
vn 0.355398089 0 0.934715092
vn -0.177698776 0.307783544 0.934715211
vn 0.17769894 0.307783693 0.934715092
vn -0.177698925 -0.307783604 0.934715092
vn 4.29469139E-07 5.21498237E-07 1
vn 0.177699074 -0.307783812 0.934714973
vn -0.35539788 3.15594889E-07 0.934715092
vn 0.355398774 1.89356697E-07 0.934714794
vn -0.177699164 0.307784498 0.934714794
vn 0.177699387 0.307784498 0.934714675
vn -0.156870961 -0.271708548 0.94950825
vn 4.40621989E-07 5.07789991E-07 1
vn 0.156871051 -0.271708816 0.94950825
vn -0.313741565 2.95524472E-07 0.949508429
vn 0.313742399 1.82943509E-07 0.94950825
vn -0.15687114 0.271709442 0.949508011
vn 0.156871334 0.271709502 0.949508011
vn -0.1603719 -0.277772367 -0.947166026
vn 0.160370395 -0.277773231 -0.947166026
vn -8.81034339E-07 1.0269725E-07 -1
vn -0.320743859 4.92284755E-07 -0.947166026
vn 0.320741355 3.93826951E-07 -0.947166741
vn -0.160371765 0.277772844 -0.947165787
vn 0.160370305 0.277773589 -0.947165906
vn 0.177698806 -0.307783425 0.934715211
vn -0.17769891 -0.307783693 0.934715092
vn -4.96399139E-07 0 1
vn 0.355397135 0 0.93471539
vn -0.355398089 0 0.934715092
vn 0.177698776 0.307783544 0.934715211
vn -0.17769894 0.307783693 0.934715092
vn 0.177698925 -0.307783604 0.934715092
vn -0.177699074 -0.307783812 0.934714973
vn -4.29469139E-07 5.21498237E-07 1
vn 0.35539788 3.15594889E-07 0.934715092
vn -0.355398774 1.89356697E-07 0.934714794
vn 0.177699164 0.307784498 0.934714794
vn -0.177699387 0.307784498 0.934714675
vn 0.156870961 -0.271708548 0.94950825
vn -0.156871051 -0.271708816 0.94950825
vn -4.40621989E-07 5.07789991E-07 1
vn 0.313741565 2.95524472E-07 0.949508429
vn -0.313742399 1.82943509E-07 0.94950825
vn 0.15687114 0.271709442 0.949508011
vn -0.156871334 0.271709502 0.949508011
vn 0.1603719 -0.277772367 -0.947166026
vn 8.81034339E-07 1.0269725E-07 -1
vn -0.160370395 -0.277773231 -0.947166026
vn 0.320743859 4.92284755E-07 -0.947166026
vn -0.320741355 3.93826951E-07 -0.947166741
vn 0.160371765 0.277772844 -0.947165787
vn -0.160370305 0.277773589 -0.947165906
g A_Hero_Elsa_01_LOD1_light_0
f 3/3/3 2/2/2 1/1/1
f 1/1/1 2/2/2 4/4/4
f 5/5/5 2/2/2 3/3/3
f 4/4/4 2/2/2 6/6/6
f 7/7/7 2/2/2 5/5/5
f 6/6/6 2/2/2 7/7/7
f 10/10/10 9/9/9 8/8/8
f 8/8/8 9/9/9 11/11/11
f 12/12/12 9/9/9 10/10/10
f 11/11/11 9/9/9 13/13/13
f 14/14/14 9/9/9 12/12/12
f 13/13/13 9/9/9 14/14/14
f 17/17/17 16/16/16 15/15/15
f 15/15/15 16/16/16 18/18/18
f 19/19/19 16/16/16 17/17/17
f 18/18/18 16/16/16 20/20/20
f 21/21/21 16/16/16 19/19/19
f 20/20/20 16/16/16 21/21/21
f 24/24/24 23/23/23 22/22/22
f 24/24/24 22/22/22 25/25/25
f 24/24/24 26/26/26 23/23/23
f 24/24/24 25/25/25 27/27/27
f 24/24/24 28/28/28 26/26/26
f 24/24/24 27/27/27 28/28/28
f 31/31/31 30/30/30 29/29/29
f 31/31/31 29/29/29 32/32/32
f 31/31/31 33/33/33 30/30/30
f 31/31/31 32/32/32 34/34/34
f 31/31/31 35/35/35 33/33/33
f 31/31/31 34/34/34 35/35/35
f 38/38/38 37/37/37 36/36/36
f 38/38/38 36/36/36 39/39/39
f 38/38/38 40/40/40 37/37/37
f 38/38/38 39/39/39 41/41/41
f 38/38/38 42/42/42 40/40/40
f 38/38/38 41/41/41 42/42/42
f 45/45/45 44/44/44 43/43/43
f 45/45/45 43/43/43 46/46/46
f 45/45/45 47/47/47 44/44/44
f 45/45/45 46/46/46 48/48/48
f 45/45/45 49/49/49 47/47/47
f 45/45/45 48/48/48 49/49/49
f 52/52/52 51/51/51 50/50/50
f 50/50/50 51/51/51 53/53/53
f 54/54/54 51/51/51 52/52/52
f 53/53/53 51/51/51 55/55/55
f 56/56/56 51/51/51 54/54/54
f 55/55/55 51/51/51 56/56/56
