g A_Build_wajuejilihedui_01_Green
v 0.952985823 -4.65663481 0.774990082
v -0.953791499 -4.65679884 0.753766477
v -1.03971374 -4.10696936 0.839203715
v 1.03890169 -4.10697794 0.839252055
v -1.0766449 -3.28646541 0.876137495
v 1.07583857 -3.28647447 0.876178026
v -0.953791499 -4.65679884 0.753766477
v -0.953791499 -4.65679932 -1.15397573
v -1.03971374 -4.10696888 -1.23941278
v -1.03971374 -4.10696936 0.839203715
v -1.0766449 -3.28646541 -1.27634668
v -1.0766449 -3.28646541 0.876137495
v 0.952986121 -4.65663576 -1.17519855
v 0.952985823 -4.65663481 0.774990082
v 1.03890169 -4.10697794 0.839252055
v 1.03890193 -4.10697794 -1.23946047
v 1.07583857 -3.28647447 0.876178026
v 1.07583892 -3.28647447 -1.27638638
v -1.03971374 -4.10696888 -1.23941278
v 1.07583892 -3.28647447 -1.27638638
v -1.0766449 -3.28646541 -1.27634668
v 1.03890193 -4.10697794 -1.23946047
v -0.953791499 -4.65679932 -1.15397573
v 0.952986121 -4.65663576 -1.17519855
v 1.16612399 -2.77393842 0.966425538
v -1.16692865 -2.7739284 0.966425478
v -1.16692865 -2.7739284 -1.36662686
v 1.16612399 -2.77393842 -1.36662722
v 1.12614048 -3.52717924 0.926444352
v -1.12695003 -3.5271697 0.926444352
v -1.16692865 -2.7739284 0.966425478
v 1.16612399 -2.77393842 0.966425538
v 1.16612399 -2.77393842 -1.36662722
v -1.16692865 -2.7739284 -1.36662686
v -1.12695003 -3.5271697 -1.32664645
v 1.12614048 -3.52717924 -1.32664669
v -1.12695003 -3.5271697 0.926444352
v -1.12695003 -3.5271697 -1.32664645
v -1.16692865 -2.7739284 -1.36662686
v -1.16692865 -2.7739284 0.966425478
v 1.12614048 -3.52717924 -1.32664669
v 1.12614048 -3.52717924 0.926444352
v 1.16612399 -2.77393842 0.966425538
v 1.16612399 -2.77393842 -1.36662722
v -0.000404663064 -2.70883656 0.068202205
v -0.177399904 -2.71110582 0.106045686
v -0.179358512 -2.56018877 0.106793515
v -0.000404663064 -2.56237817 0.0684104934
v 0.176590577 -2.7111063 0.106045835
v 0.178549796 -2.56018925 0.106793672
v 0.192536622 -2.46498895 -0.0178236384
v -0.000404663064 -2.47598362 -0.0514372252
v -0.193345338 -2.46498895 -0.0178237911
v -0.189147949 -2.42464924 -0.53859067
v -0.000404663064 -2.44126582 -0.503184199
v 0.188339233 -2.42464924 -0.538590372
v 0.177034914 -2.54969382 -0.700437903
v -0.000404052727 -2.55586076 -0.661307335
v -0.17784363 -2.54969358 -0.700437903
v -0.177034304 -2.71093869 -0.697954059
v -0.000404052727 -2.70868397 -0.658179283
v 0.176226199 -2.71093893 -0.697953761
v 0.185406491 -2.83349943 -0.0357157886
v 0.176590577 -2.7111063 0.106045835
v 0.178549796 -2.56018925 0.106793672
v 0.192536622 -2.46498895 -0.0178236384
v 0.188339233 -2.42464924 -0.538590372
v 0.18522644 -2.8334415 -0.537149787
v 0.176226199 -2.71093893 -0.697953761
v 0.177034914 -2.54969382 -0.700437903
v -0.17784363 -2.54969358 -0.700437903
v -0.186035156 -2.83344102 -0.537150085
v -0.177034304 -2.71093869 -0.697954059
v -0.189147949 -2.42464924 -0.53859067
v -0.193345338 -2.46498895 -0.0178237911
v -0.186215207 -2.83349943 -0.0357159413
v -0.177399904 -2.71110582 0.106045686
v -0.179358512 -2.56018877 0.106793515
v -0.0701300055 -2.49978781 -0.527400792
v -0.17708008 -2.51453185 -0.0746948197
v -0.571709573 -2.44125938 -0.166454166
v -0.340627432 -2.44125915 -0.704908729
v -0.807883918 -2.32676387 -0.612560093
v -0.68590939 -2.32288599 -0.945877373
v -0.986242056 -2.32322669 -0.255270064
v -0.942479253 -2.35577512 -0.670733929
v -0.828746319 -2.3560791 -1.02373254
v -1.15215087 -2.3575573 -0.326128542
v -1.01664734 -2.45362639 -0.702895463
v -0.906171858 -2.45063019 -1.06486082
v -1.24083984 -2.4515276 -0.365530074
v -0.848355055 -2.57329345 -1.02784848
v -1.16706908 -2.5732379 -0.33744812
v -0.828746319 -2.3560791 -1.02373254
v -0.906171858 -2.45063019 -1.06486082
v -0.848355055 -2.57329345 -1.02784848
v -0.726405025 -2.64378071 -0.952283323
v -0.68590939 -2.32288599 -0.945877373
v -0.340627432 -2.44125915 -0.704908729
v -0.0675256327 -2.67914724 -0.525723875
v -0.0701300055 -2.49978781 -0.527400792
v -1.16706908 -2.5732379 -0.33744812
v -1.24083984 -2.4515276 -0.365530074
v -1.15215087 -2.3575573 -0.326128542
v -1.01671326 -2.64411736 -0.280850381
v -0.986242056 -2.32322669 -0.255270064
v -0.571709573 -2.44125938 -0.166454166
v -0.174282834 -2.68281484 -0.0734947175
v -0.17708008 -2.51453185 -0.0746948197
v 0.0693157911 -2.49978781 -0.527400792
v 0.570895374 -2.4412601 -0.166454315
v 0.176265866 -2.51453209 -0.0746948197
v 0.339813232 -2.44125962 -0.704908729
v 0.807069659 -2.32676506 -0.612560093
v 0.685094595 -2.32288671 -0.945877373
v 0.985427201 -2.32322788 -0.255270392
v 0.941664994 -2.35577631 -0.670733929
v 0.827932119 -2.35608006 -1.02373254
v 1.15133667 -2.35755849 -0.32612884
v 1.01583314 -2.45362759 -0.70289582
v 0.905357659 -2.45063114 -1.06486118
v 1.24002528 -2.45152879 -0.365530401
v 0.847540855 -2.5732944 -1.02784848
v 1.16625512 -2.57323909 -0.337448269
v 0.827932119 -2.35608006 -1.02373254
v 0.847540855 -2.5732944 -1.02784848
v 0.905357659 -2.45063114 -1.06486118
v 0.725591123 -2.64378166 -0.952283323
v 0.685094595 -2.32288671 -0.945877373
v 0.339813232 -2.44125962 -0.704908729
v 0.0667120367 -2.67914724 -0.525723875
v 0.0693157911 -2.49978781 -0.527400792
v 1.16625512 -2.57323909 -0.337448269
v 1.15133667 -2.35755849 -0.32612884
v 1.24002528 -2.45152879 -0.365530401
v 1.01589906 -2.64411855 -0.28085053
v 0.985427201 -2.32322788 -0.255270392
v 0.570895374 -2.4412601 -0.166454315
v 0.173469231 -2.68281507 -0.0734947175
v 0.176265866 -2.51453209 -0.0746948197
v -0.283202499 -2.54923058 -0.335825354
v -0.081155397 -2.54923034 -0.0576329045
v -0.187981561 -2.54831052 0.0454850756
v -0.411701649 -2.54831052 -0.256880641
v -0.685344815 -2.42350936 0.166384727
v -0.85935849 -2.41783142 -0.0513058454
v -0.507181406 -2.4185729 0.423419803
v -0.788052976 -2.44796634 0.243212432
v -0.963282466 -2.43463516 0.026004333
v -0.61119628 -2.43877864 0.502369821
v -0.842858255 -2.53461051 0.28421402
v -1.01952755 -2.53129411 0.0680174232
v -0.667511582 -2.53116775 0.544406295
v -0.981168807 -2.64458227 0.0418186933
v -0.631157815 -2.64011097 0.514282525
v -0.269874275 -2.73938322 -0.323049456
v -0.283202499 -2.54923058 -0.335825354
v -0.411701649 -2.54831052 -0.256880641
v -0.888770759 -2.69658065 -0.0206518546
v -0.85935849 -2.41783142 -0.0513058454
v -0.963282466 -2.43463516 0.026004333
v -0.981168807 -2.64458227 0.0418186933
v -1.01952755 -2.53129411 0.0680174232
v -0.187981561 -2.54831052 0.0454850756
v -0.081155397 -2.54923034 -0.0576329045
v -0.0896051005 -2.73938298 -0.074048616
v -0.507181406 -2.4185729 0.423419803
v -0.544712484 -2.69543719 0.44253996
v -0.61119628 -2.43877864 0.502369821
v -0.631157815 -2.64011097 0.514282525
v -0.667511582 -2.53116775 0.544406295
v 0.2823883 -2.54923081 -0.335825354
v 0.187167361 -2.54831052 0.0454850756
v 0.0803411826 -2.54923058 -0.0576330535
v 0.410888046 -2.54831076 -0.25688079
v 0.684530616 -2.42351031 0.166384578
v 0.858544588 -2.41783261 -0.0513059981
v 0.506367147 -2.41857362 0.423419803
v 0.787239075 -2.44796681 0.243212268
v 0.962468565 -2.43463612 0.0260041803
v 0.61038208 -2.43877935 0.502369702
v 0.842044652 -2.53461146 0.284213871
v 1.018713 -2.53129506 0.0680172741
v 0.666697383 -2.53116918 0.544406116
v 0.980354607 -2.64458299 0.0418185405
v 0.630343616 -2.64011168 0.514282346
v 0.269060045 -2.73938346 -0.323049605
v 0.410888046 -2.54831076 -0.25688079
v 0.2823883 -2.54923081 -0.335825354
v 0.887957156 -2.69658208 -0.0206520073
v 0.858544588 -2.41783261 -0.0513059981
v 0.962468565 -2.43463612 0.0260041803
v 0.980354607 -2.64458299 0.0418185405
v 1.018713 -2.53129506 0.0680172741
v 0.187167361 -2.54831052 0.0454850756
v 0.0887908936 -2.73938322 -0.074048616
v 0.0803411826 -2.54923058 -0.0576330535
v 0.506367147 -2.41857362 0.423419803
v 0.543898284 -2.69543791 0.44253996
v 0.61038208 -2.43877935 0.502369702
v 0.630343616 -2.64011168 0.514282346
v 0.666697383 -2.53116918 0.544406116
v -0.0988659635 -2.67626667 -0.0199621581
v 0.201403797 -2.68472767 -0.132849723
v 0.393838495 -2.58027148 0.266652375
v 0.0247625727 -2.56987906 0.405433655
v 0.585979581 -2.5927515 0.674138308
v 0.14809753 -2.58042717 0.838813365
v 0.485363156 -2.67029047 1.07403731
v 0.395203233 -2.69593191 1.15726078
v 0.28540343 -2.76024795 1.33894527
v 0.604343832 -2.7018249 1.07863331
v 0.803528726 -2.77506471 1.14485765
v 0.28540343 -2.76024795 1.33894527
v 0.257965684 -2.87360096 1.27399087
v 0.140680537 -2.69331622 0.83151871
v 0.14809753 -2.58042717 0.838813365
v 0.0247625727 -2.56987906 0.405433655
v 0.0250073243 -2.6624732 0.415010512
v -0.0909600779 -2.74856591 0.00648605311
v -0.0988659635 -2.67626667 -0.0199621581
v 0.803528726 -2.77506471 1.14485765
v 0.775814474 -2.88846493 1.0800761
v 0.581998885 -2.8170135 1.02783036
v 0.604343832 -2.7018249 1.07863331
v 0.465207517 -2.78528976 1.02904284
v 0.485363156 -2.67029047 1.07403731
v 0.372858256 -2.81112027 1.10645783
v 0.395203233 -2.69593191 1.15726078
v 0.257965684 -2.87360096 1.27399087
v 0.28540343 -2.76024795 1.33894527
v 0.393838495 -2.58027148 0.266652375
v 0.201403797 -2.68472767 -0.132849723
v 0.209309682 -2.75702667 -0.106401667
v 0.395390004 -2.67290068 0.275735319
v 0.581176162 -2.70571065 0.665856004
v 0.585979581 -2.5927515 0.674138308
v 0.775814474 -2.88846493 1.0800761
v 0.803528726 -2.77506471 1.14485765
v -0.299890727 -2.7256453 -0.220188901
v 0.0335394293 -2.72749496 -0.108862609
v -0.0762591511 -2.56457305 0.349890739
v -0.486112058 -2.56230497 0.213076934
v -0.19327575 -2.52834988 0.828156888
v -0.679551959 -2.52566338 0.665855408
v -0.555300891 -2.58127403 1.10637164
v -0.689734459 -2.60679245 1.11783814
v -0.909177244 -2.66637468 1.20349681
v -0.457496941 -2.60808063 1.19537795
v -0.334319443 -2.66973662 1.39621329
v -0.909177244 -2.66637468 1.20349681
v -0.889257193 -2.7976532 1.14222407
v -0.682268023 -2.64981556 0.667094886
v -0.679551959 -2.52566338 0.665855408
v -0.486112058 -2.56230497 0.213076934
v -0.493662089 -2.6622951 0.231611326
v -0.312274158 -2.80147338 -0.184359431
v -0.299890727 -2.7256453 -0.220188901
v -0.334319443 -2.66973662 1.39621329
v -0.314754635 -2.80106664 1.33490348
v -0.443005353 -2.73972321 1.14978695
v -0.457496941 -2.60808063 1.19537795
v -0.542940676 -2.71203375 1.0671798
v -0.555300891 -2.58127403 1.10637164
v -0.675242901 -2.73843503 1.07224727
v -0.689734459 -2.60679245 1.11783814
v -0.889257193 -2.7976532 1.14222407
v -0.909177244 -2.66637468 1.20349681
v -0.0762591511 -2.56457305 0.349890739
v 0.0335394293 -2.72749496 -0.108862609
v 0.0211560056 -2.80332303 -0.0730328336
v -0.0823565647 -2.66456962 0.368907303
v -0.193087161 -2.65251493 0.830360293
v -0.19327575 -2.52834988 0.828156888
v -0.314754635 -2.80106664 1.33490348
v -0.334319443 -2.66973662 1.39621329
v -0.152869254 -2.70340681 -0.350869745
v -0.152869865 -2.76206255 -0.350869745
v -0.254054546 -2.77796769 -1.30833316
v -0.246005848 -2.7102263 -1.3081274
v 0.242762446 -2.71022892 -1.30809808
v 0.152056277 -2.70340872 -0.350869298
v 0.152055666 -2.76206422 -0.350869298
v 0.251816392 -2.77797031 -1.30832481
v -0.255159289 -2.79028678 -1.39621329
v 0.251828611 -2.79028869 -1.39620697
v -0.258600444 -3.73268461 -1.36048031
v -0.258600444 -3.72691774 -1.30210876
v -0.258767694 -4.61532402 -1.15777636
v -0.258981913 -4.67613697 -1.20137131
v 0.256955564 -3.73268723 -1.36047971
v 0.256954938 -3.72692013 -1.30210817
v 0.256573468 -4.67613935 -1.20137072
v 0.256787717 -4.6153264 -1.15777576
v -0.152869865 -2.70340657 -0.0493399054
v -0.247996211 -2.7735486 0.922033429
v -0.152869865 -2.76206231 -0.0493399054
v -0.240012199 -2.69754362 0.935926795
v 0.248740837 -2.69754601 0.936007202
v 0.152055666 -2.70340824 -0.0493394472
v 0.257874757 -2.77355099 0.922026753
v 0.152055666 -2.76206422 -0.0493394472
v 0.257869869 -2.77692318 1.02407074
v -0.249112546 -2.7769177 1.02407658
v -0.258603513 -3.73258805 0.959143281
v -0.258602887 -3.72682118 0.900771797
v -0.258770138 -4.61576033 0.760293305
v -0.258984357 -4.67657423 0.803887904
v 0.256952494 -3.73259044 0.959144115
v 0.256952494 -3.72682357 0.900772631
v 0.256571025 -4.67657661 0.803888857
v 0.256785274 -4.61576223 0.760293722
v -0.151177362 -2.70340681 -0.047646787
v -0.151177362 -2.76206255 -0.0476466343
v -1.12307131 -2.77941465 0.0436254889
v -1.14303398 -2.69870305 0.036020048
v -1.14317501 -2.6987052 -0.45283094
v -0.151177362 -2.70340848 -0.352572322
v -0.151176751 -2.76206422 -0.352572024
v -1.12306333 -2.7794168 -0.462245464
v -1.23087955 -2.77812672 0.0450401306
v -1.23087275 -2.77813411 -0.461942583
v -1.16117918 -3.73290205 0.058083877
v -1.10280764 -3.72713518 0.0580839515
v -0.962118506 -4.6163516 0.0582515709
v -1.00571346 -4.67716503 0.0584658794
v -1.16117859 -3.73290491 -0.457471758
v -1.10280693 -3.72713757 -0.457471609
v -1.00571287 -4.67716789 -0.457089901
v -0.96211791 -4.61635447 -0.45730406
v 0.150352165 -2.70340681 -0.0476463325
v 1.12906706 -2.7747066 0.0645780936
v 0.150352165 -2.76206255 -0.0476461798
v 1.15323269 -2.69280338 0.0552259833
v 1.15303469 -2.69280601 -0.433724046
v 0.150352776 -2.70340848 -0.352571875
v 1.12906063 -2.77470899 -0.441293031
v 0.150352776 -2.76206422 -0.352571696
v 1.24083495 -2.77186084 -0.442606509
v 1.24084008 -2.77186418 0.0643728599
v 1.16525209 -3.7330761 0.0580875389
v 1.10688043 -3.72730899 0.0580875389
v 0.966445267 -4.61679792 0.058254011
v 1.01004028 -4.67761087 0.0584683232
v 1.16525269 -3.73307848 -0.457467943
v 1.10688138 -3.72731137 -0.457468241
v 1.01004088 -4.67761326 -0.457087308
v 0.966445923 -4.61680031 -0.457301617
v 0.952985823 -4.65663481 0.774990082
v 0.952986121 -4.65663576 -1.17519855
v -0.953791499 -4.65679932 -1.15397573
v -0.953791499 -4.65679884 0.753766477
v -0.152869254 -4.72548962 -0.200104892
v -0.258767694 -4.61532402 -1.15777636
v -0.152869865 -4.67397261 -0.200104892
v -0.249828488 -4.72321033 -1.11328542
v -0.258981913 -4.67613697 -1.20137131
v 0.247507319 -4.72321224 -1.11326194
v 0.152056277 -4.72548819 -0.200104445
v 0.256573468 -4.67613935 -1.20137072
v 0.152055666 -4.6739707 -0.200104445
v 0.256787717 -4.6153264 -1.15777576
v -0.152869254 -4.72548962 -0.200104892
v -0.152869865 -4.67397261 -0.200104892
v -0.258770138 -4.61576033 0.760293305
v -0.249884024 -4.72296 0.715738118
v -0.258984357 -4.67657423 0.803887904
v 0.256571025 -4.67657661 0.803888857
v 0.247442007 -4.72296572 0.715825379
v 0.152056277 -4.72548819 -0.200104445
v 0.256785274 -4.61576223 0.760293722
v 0.152055666 -4.6739707 -0.200104445
v -0.000412597641 -4.72548962 -0.0476466343
v -0.962118506 -4.6163516 0.0582515709
v -0.000412597641 -4.67397213 -0.047646407
v -0.917868018 -4.72360086 0.0494457223
v -1.00571346 -4.67716503 0.0584658794
v -0.918015122 -4.72360897 -0.447978348
v -0.000411987305 -4.72548819 -0.352572083
v -1.00571287 -4.67716789 -0.457089901
v -0.000411987305 -4.6739707 -0.352571934
v -0.96211791 -4.61635447 -0.45730406
v -0.000412597641 -4.72548962 -0.0476466343
v -0.000412597641 -4.67397213 -0.047646407
v 0.966445267 -4.61679792 0.058254011
v 0.92243284 -4.72368479 0.0493214391
v 1.01004028 -4.67761087 0.0584683232
v 1.01004088 -4.67761326 -0.457087308
v 0.922240555 -4.7236805 -0.448204875
v -0.000411987305 -4.72548819 -0.352572083
v 0.966445923 -4.61680031 -0.457301617
v -0.000411987305 -4.6739707 -0.352571934
vt 0.69921875 0.635742188
vt 0.69921875 0.568847656
vt 0.677734375 0.568847656
vt 0.677734375 0.635742188
vt 0.645507812 0.568847656
vt 0.645507812 0.635742188
vt 0.69921875 0.849609375
vt 0.69921875 0.782226562
vt 0.677734375 0.782226562
vt 0.677734375 0.849609375
vt 0.645019531 0.782226562
vt 0.645019531 0.849609375
vt 0.698730469 0.70703125
vt 0.698730469 0.638671875
vt 0.677246094 0.638671875
vt 0.677246094 0.70703125
vt 0.645507812 0.638671875
vt 0.645507812 0.70703125
vt 0.677246094 0.778320312
vt 0.645507812 0.710449219
vt 0.645507812 0.778320312
vt 0.677246094 0.710449219
vt 0.698730469 0.778320312
vt 0.698730469 0.710449219
vt 0.562011719 0.850585938
vt 0.639160156 0.850585938
vt 0.639160156 0.7734375
vt 0.562011719 0.7734375
vt 0.729980469 0.635253906
vt 0.729980469 0.567871094
vt 0.702148438 0.567871094
vt 0.702148438 0.635253906
vt 0.702636719 0.708984375
vt 0.702636719 0.776855469
vt 0.729492188 0.776855469
vt 0.729492188 0.708984375
vt 0.729492188 0.849609375
vt 0.729492188 0.781738281
vt 0.702148438 0.781738281
vt 0.702148438 0.849609375
vt 0.729492188 0.706542969
vt 0.729492188 0.638671875
vt 0.702636719 0.638671875
vt 0.702636719 0.706542969
vt 0.432861328 0.860351562
vt 0.432861328 0.854492188
vt 0.427490234 0.854492188
vt 0.427490234 0.860351562
vt 0.432861328 0.866210938
vt 0.427490234 0.866210938
vt 0.422363281 0.866210938
vt 0.422363281 0.860351562
vt 0.422363281 0.854492188
vt 0.406494141 0.854492188
vt 0.406494141 0.860351562
vt 0.406494141 0.866210938
vt 0.399658203 0.866210938
vt 0.399658203 0.860351562
vt 0.399658203 0.854492188
vt 0.394042969 0.854492188
vt 0.394042969 0.860351562
vt 0.394042969 0.866210938
vt 0.607910156 0.733398438
vt 0.612304688 0.737792969
vt 0.618164062 0.737792969
vt 0.621582031 0.733886719
vt 0.622558594 0.717285156
vt 0.607421875 0.717773438
vt 0.611816406 0.712402344
vt 0.617675781 0.711914062
vt 0.393066406 0.87109375
vt 0.403320312 0.875976562
vt 0.398925781 0.87109375
vt 0.388427734 0.875976562
vt 0.389892578 0.892578125
vt 0.403320312 0.892089844
vt 0.398925781 0.896972656
vt 0.393310547 0.896972656
vt 0.732910156 0.66796875
vt 0.732910156 0.688964844
vt 0.744140625 0.688964844
vt 0.744140625 0.66796875
vt 0.757324219 0.678222656
vt 0.757324219 0.66796875
vt 0.757324219 0.688964844
vt 0.762207031 0.678222656
vt 0.762207031 0.66796875
vt 0.762207031 0.688964844
vt 0.766601562 0.678222656
vt 0.766601562 0.66796875
vt 0.766601562 0.688964844
vt 0.770996094 0.66796875
vt 0.770996094 0.688964844
vt 0.596191406 0.711914062
vt 0.600097656 0.714355469
vt 0.604492188 0.711425781
vt 0.606445312 0.706542969
vt 0.594238281 0.70703125
vt 0.597167969 0.692871094
vt 0.604492188 0.681640625
vt 0.598144531 0.682617188
vt 0.422851562 0.991210938
vt 0.427001953 0.994140625
vt 0.430664062 0.991210938
vt 0.420654297 0.985839844
vt 0.432617188 0.985351562
vt 0.429443359 0.971679688
vt 0.421630859 0.958007812
vt 0.427734375 0.958496094
vt 0.732910156 0.6640625
vt 0.744140625 0.642578125
vt 0.732910156 0.642578125
vt 0.744140625 0.6640625
vt 0.757324219 0.653320312
vt 0.757324219 0.6640625
vt 0.757324219 0.642578125
vt 0.762207031 0.653320312
vt 0.762207031 0.6640625
vt 0.762207031 0.642578125
vt 0.766601562 0.653320312
vt 0.766601562 0.6640625
vt 0.766601562 0.642578125
vt 0.771484375 0.6640625
vt 0.771484375 0.642578125
vt 0.606445312 0.751953125
vt 0.598632812 0.751464844
vt 0.602539062 0.754394531
vt 0.596191406 0.746582031
vt 0.608398438 0.746582031
vt 0.604980469 0.732910156
vt 0.597167969 0.721679688
vt 0.604003906 0.72265625
vt 0.345703125 0.837890625
vt 0.346191406 0.846191406
vt 0.348876953 0.842285156
vt 0.340332031 0.8359375
vt 0.340576172 0.848144531
vt 0.326660156 0.845214844
vt 0.312744141 0.837890625
vt 0.313476562 0.844238281
vt 0.734375 0.636230469
vt 0.750488281 0.636230469
vt 0.750488281 0.631835938
vt 0.734375 0.631835938
vt 0.741699219 0.616210938
vt 0.734375 0.616210938
vt 0.750488281 0.616210938
vt 0.741699219 0.612304688
vt 0.734375 0.612304688
vt 0.750488281 0.612304688
vt 0.741699219 0.608398438
vt 0.734375 0.608398438
vt 0.750488281 0.608398438
vt 0.734375 0.604492188
vt 0.750488281 0.604492188
vt 0.44140625 0.931152344
vt 0.434326172 0.932128906
vt 0.434814453 0.937011719
vt 0.442138672 0.953125
vt 0.431884766 0.953125
vt 0.433105469 0.95703125
vt 0.440673828 0.95703125
vt 0.436767578 0.958984375
vt 0.436279297 0.984863281
vt 0.435791016 0.989746094
vt 0.442871094 0.990234375
vt 0.432617188 0.96875
vt 0.442871094 0.968261719
vt 0.43359375 0.96484375
vt 0.441162109 0.96484375
vt 0.437255859 0.962890625
vt 0.626464844 0.737792969
vt 0.642578125 0.742675781
vt 0.642578125 0.737792969
vt 0.626464844 0.742675781
vt 0.634277344 0.7578125
vt 0.626464844 0.7578125
vt 0.642578125 0.7578125
vt 0.634277344 0.76171875
vt 0.626464844 0.76171875
vt 0.642578125 0.76171875
vt 0.634277344 0.765625
vt 0.626464844 0.765625
vt 0.642578125 0.765625
vt 0.626464844 0.770019531
vt 0.642578125 0.770019531
vt 0.423095703 0.8359375
vt 0.418212891 0.843261719
vt 0.423095703 0.843261719
vt 0.401367188 0.837890625
vt 0.402587891 0.848144531
vt 0.3984375 0.84765625
vt 0.397705078 0.83984375
vt 0.396240234 0.84375
vt 0.427978516 0.948730469
vt 0.421630859 0.954589844
vt 0.428466797 0.953613281
vt 0.430908203 0.932617188
vt 0.420654297 0.932617188
vt 0.4296875 0.928222656
vt 0.422119141 0.928710938
vt 0.426025391 0.926757812
vt 0.429199219 0.840820312
vt 0.429199219 0.830566406
vt 0.443847656 0.829589844
vt 0.443847656 0.842285156
vt 0.458251953 0.828125
vt 0.458251953 0.843261719
vt 0.469482422 0.8359375
vt 0.471191406 0.839355469
vt 0.475830078 0.844726562
vt 0.471191406 0.83203125
vt 0.475830078 0.826660156
vt 0.380859375 0.90234375
vt 0.384277344 0.90234375
vt 0.384277344 0.885253906
vt 0.380859375 0.885253906
vt 0.380859375 0.870117188
vt 0.384277344 0.870117188
vt 0.384277344 0.855957031
vt 0.380859375 0.855957031
vt 0.618164062 0.76953125
vt 0.622558594 0.76953125
vt 0.622558594 0.762207031
vt 0.618164062 0.762207031
vt 0.622558594 0.758300781
vt 0.618164062 0.758300781
vt 0.622558594 0.75390625
vt 0.618164062 0.75390625
vt 0.622558594 0.746582031
vt 0.618164062 0.746582031
vt 0.372802734 0.888183594
vt 0.372802734 0.90234375
vt 0.376220703 0.90234375
vt 0.376220703 0.888183594
vt 0.376220703 0.873046875
vt 0.372802734 0.873046875
vt 0.376220703 0.855957031
vt 0.372802734 0.855957031
vt 0.480957031 0.822265625
vt 0.480957031 0.811035156
vt 0.46484375 0.810058594
vt 0.46484375 0.823730469
vt 0.44921875 0.80859375
vt 0.44921875 0.825195312
vt 0.437011719 0.816894531
vt 0.435058594 0.820800781
vt 0.429931641 0.826660156
vt 0.435058594 0.812988281
vt 0.429931641 0.807128906
vt 0.581054688 0.747558594
vt 0.584960938 0.747558594
vt 0.584960938 0.728515625
vt 0.581054688 0.728515625
vt 0.581054688 0.712402344
vt 0.584960938 0.712402344
vt 0.584960938 0.696777344
vt 0.581054688 0.696777344
vt 0.439208984 0.852539062
vt 0.439208984 0.857421875
vt 0.447265625 0.857421875
vt 0.447265625 0.852539062
vt 0.451660156 0.857421875
vt 0.451660156 0.852539062
vt 0.456298828 0.857421875
vt 0.456298828 0.852539062
vt 0.464355469 0.857421875
vt 0.464355469 0.852539062
vt 0.588378906 0.731933594
vt 0.588378906 0.748046875
vt 0.591796875 0.748046875
vt 0.591796875 0.731933594
vt 0.591796875 0.715332031
vt 0.588378906 0.715332031
vt 0.591796875 0.696777344
vt 0.588378906 0.696777344
vt 0.432128906 0.776855469
vt 0.432128906 0.778808594
vt 0.462158203 0.778808594
vt 0.459716797 0.776855469
vt 0.459716797 0.762695312
vt 0.432128906 0.762695312
vt 0.432128906 0.760742188
vt 0.462158203 0.760742188
vt 0.46484375 0.776855469
vt 0.46484375 0.762695312
vt 0.496337891 0.776855469
vt 0.496337891 0.778808594
vt 0.52734375 0.778808594
vt 0.52734375 0.776855469
vt 0.496337891 0.762695312
vt 0.496337891 0.760742188
vt 0.52734375 0.762695312
vt 0.52734375 0.760742188
vt 0.415527344 0.900878906
vt 0.417480469 0.931152344
vt 0.417480469 0.900878906
vt 0.415527344 0.928222656
vt 0.401367188 0.928222656
vt 0.401367188 0.900878906
vt 0.399658203 0.931152344
vt 0.399658203 0.900878906
vt 0.401367188 0.93359375
vt 0.415527344 0.93359375
vt 0.415527344 0.965332031
vt 0.417480469 0.965332031
vt 0.417480469 0.996582031
vt 0.415527344 0.996582031
vt 0.401367188 0.965332031
vt 0.399658203 0.965332031
vt 0.401367188 0.996582031
vt 0.399658203 0.996582031
vt 0.432128906 0.799316406
vt 0.432128906 0.801269531
vt 0.462158203 0.801269531
vt 0.459472656 0.799316406
vt 0.459472656 0.78515625
vt 0.432128906 0.78515625
vt 0.432128906 0.783203125
vt 0.462158203 0.783203125
vt 0.46484375 0.799316406
vt 0.46484375 0.78515625
vt 0.496337891 0.799316406
vt 0.496337891 0.801269531
vt 0.52734375 0.801269531
vt 0.52734375 0.799316406
vt 0.496337891 0.78515625
vt 0.496337891 0.783203125
vt 0.52734375 0.78515625
vt 0.52734375 0.783203125
vt 0.555175781 0.760742188
vt 0.557128906 0.790527344
vt 0.557128906 0.760742188
vt 0.555175781 0.788085938
vt 0.541015625 0.788085938
vt 0.541015625 0.760742188
vt 0.5390625 0.790527344
vt 0.5390625 0.760742188
vt 0.541015625 0.793457031
vt 0.555175781 0.793457031
vt 0.555175781 0.824707031
vt 0.557128906 0.824707031
vt 0.557128906 0.855957031
vt 0.555175781 0.855957031
vt 0.541015625 0.824707031
vt 0.5390625 0.824707031
vt 0.541015625 0.855957031
vt 0.5390625 0.855957031
vt 0.562011719 0.850585938
vt 0.562011719 0.7734375
vt 0.639160156 0.7734375
vt 0.639160156 0.850585938
vt 0.432128906 0.776855469
vt 0.462158203 0.778808594
vt 0.432128906 0.778808594
vt 0.459716797 0.776855469
vt 0.46484375 0.776855469
vt 0.459716797 0.762695312
vt 0.432128906 0.762695312
vt 0.46484375 0.762695312
vt 0.432128906 0.760742188
vt 0.462158203 0.760742188
vt 0.415527344 0.900878906
vt 0.417480469 0.900878906
vt 0.417480469 0.931152344
vt 0.415527344 0.928222656
vt 0.415527344 0.93359375
vt 0.401367188 0.93359375
vt 0.401367188 0.928222656
vt 0.401367188 0.900878906
vt 0.399658203 0.931152344
vt 0.399658203 0.900878906
vt 0.432128906 0.799316406
vt 0.462158203 0.801269531
vt 0.432128906 0.801269531
vt 0.459472656 0.799316406
vt 0.46484375 0.799316406
vt 0.459472656 0.78515625
vt 0.432128906 0.78515625
vt 0.46484375 0.78515625
vt 0.432128906 0.783203125
vt 0.462158203 0.783203125
vt 0.555175781 0.760742188
vt 0.557128906 0.760742188
vt 0.557128906 0.790527344
vt 0.555175781 0.788085938
vt 0.555175781 0.793457031
vt 0.541015625 0.793457031
vt 0.541015625 0.788085938
vt 0.541015625 0.760742188
vt 0.5390625 0.790527344
vt 0.5390625 0.760742188
vn -0.00528335432 -0.134907261 0.99084419
vn -0.00528335478 -0.134907261 0.99084419
vn -0.00190819125 -0.0772589892 0.997009218
vn -0.00190749671 -0.077247113 0.997010112
vn -2.1192187E-05 -0.044963263 0.998988569
vn -2.1192187E-05 -0.044963263 0.998988569
vn -0.988008976 -0.154396757 0
vn -0.988008976 -0.154396728 0
vn -0.996433258 -0.0843847245 0
vn -0.996433258 -0.0843847319 0
vn -0.998988569 -0.0449647866 0
vn -0.998988569 -0.0449647866 0
vn 0.988003254 -0.154432833 1.78806829E-07
vn 0.988003254 -0.154432833 1.78806829E-07
vn 0.996353388 -0.0853227973 1.5779834E-07
vn 0.996353388 -0.0853228122 1.57798354E-07
vn 0.998988211 -0.0449720286 1.45238786E-07
vn 0.998988211 -0.0449720286 1.45238786E-07
vn -0.00190784875 -0.0772588924 -0.997009218
vn -2.08400998E-05 -0.04496333 -0.998988569
vn -2.08400979E-05 -0.0449633263 -0.998988569
vn -0.00190715538 -0.0772470385 -0.997010112
vn -0.0052830209 -0.134906724 -0.99084419
vn -0.0052830209 -0.134906724 -0.99084419
vn 4.31657691E-06 1 0
vn 4.31657691E-06 1 0
vn 4.31657691E-06 1 0
vn 4.31657691E-06 1 0
vn -2.11763037E-07 -0.0530041791 0.998594224
vn -2.11763037E-07 -0.0530041829 0.998594224
vn -2.11763023E-07 -0.0530041791 0.998594224
vn -2.11763037E-07 -0.0530041791 0.998594224
vn -3.34997907E-07 -0.0530033186 -0.998594344
vn -3.34997907E-07 -0.0530033223 -0.998594344
vn -3.34997907E-07 -0.0530033186 -0.998594344
vn -3.34997878E-07 -0.0530033261 -0.998594344
vn -0.998594463 -0.0530009679 0
vn -0.998594463 -0.0530009642 0
vn -0.998594463 -0.0530009568 0
vn -0.998594463 -0.0530009568 0
vn 0.998594105 -0.053007409 0
vn 0.998594105 -0.0530074127 0
vn 0.998594105 -0.053007409 0
vn 0.998594105 -0.0530074127 0
vn -4.46201085E-07 -0.00180449418 0.99999845
vn 0.209402472 -0.0017647075 0.977827966
vn 0.195586547 0.452295393 0.870157957
vn -1.45144355E-07 0.488343656 0.872651458
vn -0.209402889 -0.00176426722 0.977827847
vn -0.195586458 0.452296197 0.87015748
vn -0.0924524218 0.972189605 0.215174004
vn -0 0.982318699 0.187216371
vn 0.0924526155 0.972189605 0.215174124
vn 0.10824807 0.984101951 -0.140804067
vn 2.25743818E-07 0.995571196 -0.0940110162
vn -0.108247466 0.98410219 -0.14080292
vn -0.21255815 0.485349953 -0.848088682
vn 3.51722747E-07 0.519454479 -0.854498088
vn 0.212558836 0.485350758 -0.848088086
vn 0.217308044 -0.0168787595 -0.975957096
vn 2.52022517E-07 -0.0172926765 -0.999850512
vn -0.217307478 -0.0168801062 -0.975957215
vn 0.999903083 -0.0136805195 0.00260441983
vn 0.995964885 -0.0205630008 0.0873564482
vn 0.995964885 -0.0205630008 0.0873564482
vn 0.999897003 -0.0137932077 0.00398245687
vn 0.999851227 -0.0123558184 -0.0120349657
vn 0.999854803 -0.0123896003 -0.0116950823
vn 0.998002827 -0.00729773333 -0.0627471209
vn 0.998002827 -0.00729773426 -0.0627471209
vn -0.998002589 -0.0072987387 -0.0627490431
vn -0.999854803 -0.0123897018 -0.0116952993
vn -0.998002589 -0.0072987387 -0.0627490506
vn -0.999851227 -0.0123559264 -0.0120351957
vn -0.999897003 -0.0137930717 0.00398223521
vn -0.999903083 -0.0136804013 0.00260421168
vn -0.995965123 -0.0205617715 0.0873540118
vn -0.995965123 -0.0205617733 0.0873540118
vn 0.166048437 0.983539343 0.0712612197
vn 0.166048437 0.983539462 0.0712612197
vn 0.201904655 0.975450277 0.0879280716
vn 0.202502459 0.975476682 0.0862440318
vn 0.0946551561 0.994699478 0.0401681215
vn 0.0362039022 0.999059975 0.0238429066
vn 0.0472647399 0.998799443 0.0128716202
vn -0.404460192 0.895293951 -0.186710179
vn -0.485315025 0.861171186 -0.151174322
vn -0.405176789 0.878914595 -0.251676232
vn -0.859923065 0.314851552 -0.401747286
vn -0.909953773 0.303935766 -0.282147616
vn -0.800979495 0.301715165 -0.51710701
vn -0.870689631 -0.381473184 -0.310447633
vn -0.770255029 -0.440451503 -0.461204648
vn 0.496811032 -0.0378493406 -0.867033064
vn 0.495664209 -0.0282968003 -0.868053138
vn 0.496821314 -0.0379365794 -0.867023289
vn 0.535999775 -0.0381296203 -0.843356669
vn 0.537815273 -0.0486961789 -0.841655195
vn 0.546623409 -0.0173515044 -0.837198734
vn 0.545012534 -0.00582571002 -0.838407636
vn 0.548665941 0.000150243912 -0.836041689
vn -0.377428919 -0.0311127976 0.925515711
vn -0.386667609 -0.0216424987 0.921965182
vn -0.377505779 -0.0310343467 0.925487041
vn -0.27981472 -0.0393520147 0.959247172
vn -0.281936079 -0.0472949296 0.958266795
vn -0.236549109 -0.0262841359 0.971263885
vn -0.234007671 -0.0108804293 0.97217381
vn -0.225915104 0.00319177448 0.974141717
vn -0.166047186 0.983539581 0.0712611154
vn -0.201903448 0.975450516 0.0879277587
vn -0.166047171 0.983539581 0.0712611154
vn -0.202501237 0.975476921 0.0862438232
vn -0.094653897 0.994699597 0.0401679762
vn -0.0362028144 0.999059975 0.023843566
vn -0.0472641252 0.998799443 0.0128715402
vn 0.404460311 0.89529407 -0.186709508
vn 0.485315055 0.861171365 -0.151172966
vn 0.405176908 0.878914535 -0.251676202
vn 0.859923244 0.314851701 -0.40174666
vn 0.909954071 0.303935915 -0.282146305
vn 0.800979495 0.301715195 -0.517107069
vn 0.870689809 -0.381473482 -0.310446858
vn 0.770255864 -0.440449893 -0.461204797
vn -0.496810615 -0.0378500782 -0.867033124
vn -0.496820778 -0.0379373059 -0.867023528
vn -0.495667696 -0.0282974727 -0.868051171
vn -0.536000013 -0.0381310023 -0.843356371
vn -0.53781569 -0.0486977212 -0.841654778
vn -0.546623886 -0.0173528921 -0.837198377
vn -0.545012772 -0.00582712376 -0.838407457
vn -0.548666 0.000148344756 -0.83604157
vn 0.377428085 -0.0311117619 0.925516009
vn 0.377504975 -0.0310333148 0.925487459
vn 0.386669517 -0.0216409639 0.921964347
vn 0.279815018 -0.0393511169 0.959247053
vn 0.281936049 -0.0472939983 0.958266914
vn 0.236549899 -0.0262834281 0.971263766
vn 0.234008253 -0.0108796712 0.972173691
vn 0.225915119 0.00319260755 0.974141717
vn 0.00498792389 0.999980927 -0.00365925161
vn 0.00498792436 0.999980927 -0.00365925184
vn 0.13981393 0.984564662 -0.105283216
vn 0.138556689 0.985248089 -0.100440577
vn 0.100378305 0.992339015 -0.0720230564
vn 0.0928934366 0.994821191 -0.0412498079
vn 0.0639356747 0.995701015 -0.0670198128
vn -0.39100787 0.872366011 0.293411493
vn -0.367361099 0.868009627 0.334073573
vn -0.421358794 0.867683053 0.26378569
vn -0.785324514 0.204429343 0.584357858
vn -0.732197881 0.301095188 0.610923886
vn -0.792318881 0.307597935 0.526891291
vn -0.738615096 -0.346123725 0.578486085
vn -0.76269424 -0.362718493 0.535474241
vn -0.441585153 -0.0405032039 -0.896304607
vn -0.521654606 -0.0935398042 -0.84801352
vn -0.437750518 -0.0380337723 -0.898291707
vn -0.459331244 -0.0335631557 -0.887630761
vn -0.460036039 -0.0334952995 -0.887268186
vn -0.582570553 -0.0203631744 -0.812524974
vn -0.582556903 -0.0203987863 -0.812533975
vn -0.586099625 -0.0110934805 -0.810163021
vn 0.749096692 -0.0454554148 0.66089946
vn 0.691113651 -0.0925907493 0.716790676
vn 0.746787786 -0.0474472381 0.663367808
vn 0.731221378 -0.0404565446 0.680939496
vn 0.731788814 -0.0405471921 0.680324197
vn 0.617400408 -0.0227311533 0.786320686
vn 0.617416739 -0.0227622241 0.786306858
vn 0.612769723 -0.0140025029 0.790137351
vn -0.00498848082 0.999980927 -0.0036592437
vn -0.139812812 0.984564781 -0.105283171
vn -0.00498848129 0.999980927 -0.00365924416
vn -0.13855578 0.985248208 -0.100440837
vn -0.100377418 0.992339134 -0.0720235333
vn -0.0928926244 0.994821191 -0.0412510373
vn -0.0639348403 0.995701134 -0.0670193657
vn 0.391008139 0.872366309 0.293410569
vn 0.367361009 0.868010521 0.334071517
vn 0.421358883 0.867682993 0.26378572
vn 0.785325229 0.204427943 0.584357262
vn 0.732199252 0.301095724 0.61092186
vn 0.792318881 0.307598621 0.526890874
vn 0.738616645 -0.346124679 0.578483582
vn 0.762693524 -0.362721056 0.535473764
vn 0.441585273 -0.0405034684 -0.896304607
vn 0.437750697 -0.0380340591 -0.898291588
vn 0.521652222 -0.093539089 -0.848014951
vn 0.459331751 -0.0335634276 -0.887630522
vn 0.460036606 -0.0334955677 -0.887267947
vn 0.582572341 -0.0203631464 -0.812523663
vn 0.582558692 -0.0203987602 -0.812532604
vn 0.586102724 -0.0110937878 -0.810160756
vn -0.74909687 -0.0454553403 0.660899162
vn -0.746787906 -0.0474471338 0.663367629
vn -0.691112399 -0.0925899446 0.716792047
vn -0.731221497 -0.0404565111 0.680939376
vn -0.731788874 -0.0405471511 0.680324137
vn -0.617399096 -0.0227311011 0.786321521
vn -0.617415428 -0.0227621756 0.786307931
vn -0.612769306 -0.0140022868 0.790137827
vn -0.0577382371 0.972320974 -0.226402536
vn -0.0577382371 0.972320974 -0.226402536
vn -0.00573249627 0.995940328 -0.0898328573
vn -0.00572916353 0.995941162 -0.0898240507
vn 0.0626793802 0.995590687 0.0697894022
vn 0.0479205959 0.996006787 0.075325951
vn 0.119497664 0.962104142 0.245104134
vn 0.0126373628 0.943100154 0.332268506
vn 0.00594372302 0.941525161 0.336890191
vn 0.256558627 0.936061084 0.240764037
vn 0.263748884 0.934268892 0.239954278
vn -0.957998872 0.0578954443 0.280867189
vn -0.957998872 0.0578954332 0.280867189
vn -0.959411323 0.0497842766 0.277581513
vn -0.959678769 0.0481969304 0.276936114
vn -0.961727798 0.0256065764 0.272807747
vn -0.961725593 0.0258045569 0.272796929
vn -0.961790383 0.0122152381 0.27351433
vn -0.961790323 0.0122152371 0.27351436
vn -0.385637105 -0.347687542 0.854632974
vn -0.385637105 -0.347687542 0.854632974
vn -0.29640469 -0.356463075 0.886046469
vn -0.289032519 -0.35703516 0.88824898
vn 0.309968978 -0.413518429 0.856108487
vn 0.310342193 -0.413529009 0.855968177
vn 0.785078883 -0.388220251 0.482634515
vn 0.780840576 -0.388479024 0.489256561
vn 0.833875299 -0.382966429 0.397477955
vn 0.833875299 -0.382966429 0.397477925
vn 0.903221548 -0.0269420464 -0.428327978
vn 0.903073013 -0.0403328091 -0.427588999
vn 0.903073013 -0.0403328091 -0.427589029
vn 0.903222561 -0.0267447364 -0.428338349
vn 0.905820131 -0.0027519525 -0.423653692
vn 0.905517995 -0.00433836645 -0.424285799
vn 0.907321393 0.00535520911 -0.420403659
vn 0.907321393 0.00535520818 -0.420403659
vn 0.108557716 0.944682419 -0.309499979
vn 0.108557723 0.944682419 -0.309500009
vn 0.0634391829 0.98274523 -0.173744828
vn 0.0634362623 0.982746959 -0.173736051
vn 0.0163159575 0.999838948 -0.00747159403
vn 0.00136289466 0.999921322 -0.0124760801
vn -0.0500668809 0.98468101 0.167023018
vn -0.188175112 0.967414737 0.169407308
vn -0.196302801 0.965878546 0.168948844
vn 0.058955688 0.965894461 0.252134889
vn 0.0650348067 0.964435816 0.256191194
vn -0.920914471 0.0293193404 -0.388660431
vn -0.920914471 0.0293193404 -0.38866052
vn -0.920041084 0.0208914038 -0.391264528
vn -0.919861794 0.0192423817 -0.391770422
vn -0.919120312 -0.00369590661 -0.393959701
vn -0.919109523 -0.00349980965 -0.393986672
vn -0.919767201 -0.0169598255 -0.392097741
vn -0.919767201 -0.0169598255 -0.392097682
vn -0.841054857 -0.293612182 0.454333216
vn -0.841054857 -0.293612182 0.454333216
vn -0.791501999 -0.294766754 0.535385072
vn -0.787159801 -0.294743687 0.541761577
vn -0.301752746 -0.320941091 0.897742748
vn -0.301376492 -0.320943177 0.897868335
vn 0.302770078 -0.301854074 0.90399909
vn 0.295308292 -0.30177477 0.906490505
vn 0.394302338 -0.301269084 0.868194997
vn 0.394302398 -0.301269084 0.868194938
vn 0.971349478 -0.0141837243 0.237232253
vn 0.970615566 -0.027447788 0.2390652
vn 0.970615566 -0.027447788 0.2390652
vn 0.971358895 -0.0139883226 0.237204924
vn 0.970710218 0.0104246885 0.240026951
vn 0.970854402 0.00877549406 0.239509523
vn 0.969928145 0.0188521985 0.24266015
vn 0.969928145 0.0188521985 0.24266015
vn -0.146323487 0.989206314 0.00775890332
vn -0.99298346 0.0630733073 0.100027405
vn -0.998096645 0.0350815281 0.0507198572
vn -0.152243569 0.984012961 -0.0924141333
vn 0.151969656 0.984049439 -0.0924771205
vn 0.14637731 0.989200711 0.00746334717
vn 0.992665112 0.0709252954 0.097905241
vn 0.998174667 0.0396933556 0.0455165915
vn -0.142429367 0.0453525484 -0.988765359
vn 0.142142594 0.0454326198 -0.988802969
vn -0.118675701 -0.10212522 -0.987667203
vn -0.999984741 0.00277357385 0.00477330619
vn -0.998933375 -0.0108743794 0.0448760875
vn -0.0560643338 -0.236910343 -0.969912589
vn 0.118698284 -0.102063291 -0.987670898
vn 0.999995351 0.00287738582 -0.00106073462
vn 0.0560294427 -0.236955583 -0.969903469
vn 0.99902916 -0.0126430579 0.0422004871
vn -0.156419218 0.987481058 -0.0203519184
vn -0.998045206 0.0406014845 -0.0475121737
vn -0.993373871 0.0684241578 -0.0923399851
vn -0.143560946 0.986445367 0.0794718713
vn 0.144375876 0.986403346 0.0785104781
vn 0.155331507 0.987620771 -0.0218435489
vn 0.998016119 0.039586924 -0.0489552841
vn 0.991687834 0.0778971091 -0.102407545
vn 0.144484654 0.0163284168 0.989372313
vn -0.143709496 0.0174371507 0.98946625
vn -0.126533076 -0.113784529 0.985414863
vn -0.999967337 0.00672387192 -0.00450165337
vn -0.998942673 -0.0107811149 -0.0446927398
vn -0.055723507 -0.233372912 0.970789313
vn 0.126042515 -0.114485838 0.985396564
vn 0.999999523 -0.00080867717 0.000674237381
vn 0.0556740202 -0.233368322 0.970793247
vn 0.999034286 -0.0128905773 -0.0420046896
vn 0.0189532861 0.986675203 0.161594689
vn 0.0881069526 0.0668578148 0.993864715
vn 0.0467804596 0.0417612344 0.998031795
vn -0.080504261 0.986499548 0.14261061
vn -0.0789066255 0.98642391 -0.144019336
vn 0.0215996634 0.986934066 -0.159670562
vn 0.105408631 0.082155548 -0.991029501
vn 0.049980823 0.039779108 -0.997957706
vn -0.989517033 0.0130069014 0.143828958
vn -0.989346445 0.0111447088 -0.145152748
vn -0.984791219 -0.116039015 0.129310399
vn 0.00560582615 0.00924459193 0.999941587
vn 0.0447559059 -0.0106880264 0.998940766
vn -0.970821798 -0.233236298 0.0557314083
vn -0.984756052 -0.117266059 -0.128468588
vn -0.00170154439 -0.00322823296 -0.999993324
vn -0.970832109 -0.233205318 -0.05568083
vn 0.042078916 -0.0129860109 -0.999029875
vn -0.0277373474 0.986582279 0.160891503
vn -0.0514855795 0.0399674438 0.997873664
vn -0.10744255 0.0843844041 0.990623772
vn 0.0727655813 0.98735714 0.140822455
vn 0.0746334568 0.987469971 -0.139042705
vn -0.024302505 0.98627001 -0.163342997
vn -0.0451188013 0.0431867503 -0.998047709
vn -0.0851534009 0.06805107 -0.994041264
vn 0.98935765 0.00749601098 -0.145311177
vn 0.989128649 0.00521645788 0.146960154
vn 0.984187245 -0.119799048 0.130474448
vn 4.73349201E-06 -0.00391335646 0.999992371
vn -0.0446135551 -0.0112095345 0.998941481
vn 0.97090596 -0.232898012 0.0556797944
vn 0.984229505 -0.118315779 -0.131505117
vn -0.00390046369 0.00997399352 -0.99994266
vn 0.970878184 -0.233019441 -0.0556557924
vn -0.0419326574 -0.0124478647 -0.999042809
vn 8.57857085E-05 -1 2.50851201E-07
vn 8.57857085E-05 -1 2.50851201E-07
vn 8.57857085E-05 -1 2.50851173E-07
vn 8.57857085E-05 -1 2.50851173E-07
vn -0.184129253 -0.98290205 0.000173417153
vn -0.998933375 -0.0108743794 0.0448760875
vn -0.999663115 -0.0259525105 0.000232576756
vn -0.233974501 -0.971432149 -0.0396930985
vn -0.0560643338 -0.236910343 -0.969912589
vn 0.233658761 -0.971497416 -0.0399559513
vn 0.184211895 -0.982886612 0.000180714502
vn 0.0560294427 -0.236955583 -0.969903469
vn 0.999581993 -0.0289085303 0.000272977573
vn 0.99902916 -0.0126430579 0.0422004871
vn -0.184129253 -0.98290205 0.000173417153
vn -0.999663115 -0.0259525105 0.000232576756
vn -0.998942673 -0.0107811149 -0.0446927398
vn -0.233399242 -0.971600473 0.0389520302
vn -0.055723507 -0.233372912 0.970789313
vn 0.0556740202 -0.233368322 0.970793247
vn 0.23296541 -0.971690714 0.0392965116
vn 0.184211895 -0.982886612 0.000180714502
vn 0.999034286 -0.0128905773 -0.0420046896
vn 0.999581993 -0.0289085303 0.000272977573
vn -1.24857479E-05 -0.982983351 0.183694571
vn 0.0447559059 -0.0106880264 0.998940766
vn 0.000186636884 -0.026182266 0.999657154
vn -0.0383753069 -0.971664727 0.233227462
vn -0.970821798 -0.233236298 0.0557314083
vn -0.0387618095 -0.971768856 -0.232729182
vn -3.51709496E-05 -0.982967913 -0.183777049
vn -0.970832109 -0.233205318 -0.05568083
vn 6.0809587E-05 -0.0287337191 -0.999587119
vn 0.042078916 -0.0129860109 -0.999029875
vn -1.24857479E-05 -0.982983351 0.183694571
vn 0.000186636884 -0.026182266 0.999657154
vn -0.0446135551 -0.0112095345 0.998941481
vn 0.0377790034 -0.97182411 0.232659698
vn 0.97090596 -0.232898012 0.0556797944
vn 0.970878184 -0.233019441 -0.0556557924
vn 0.0379178636 -0.971849918 -0.232529446
vn -3.51709496E-05 -0.982967913 -0.183777049
vn -0.0419326574 -0.0124478647 -0.999042809
vn 6.0809587E-05 -0.0287337191 -0.999587119
g A_Build_wajuejilihedui_01_Green_0
f 3/3/3 2/2/2 1/1/1
f 4/4/4 3/3/3 1/1/1
f 5/5/5 3/3/3 4/4/4
f 6/6/6 5/5/5 4/4/4
f 9/9/9 8/8/8 7/7/7
f 10/10/10 9/9/9 7/7/7
f 11/11/11 9/9/9 10/10/10
f 12/12/12 11/11/11 10/10/10
f 15/15/15 14/14/14 13/13/13
f 16/16/16 15/15/15 13/13/13
f 17/17/17 15/15/15 16/16/16
f 18/18/18 17/17/17 16/16/16
f 21/21/21 20/20/20 19/19/19
f 20/20/20 22/22/22 19/19/19
f 19/19/19 22/22/22 23/23/23
f 22/22/22 24/24/24 23/23/23
f 27/27/27 26/26/26 25/25/25
f 28/28/28 27/27/27 25/25/25
f 31/31/31 30/30/30 29/29/29
f 32/32/32 31/31/31 29/29/29
f 35/35/35 34/34/34 33/33/33
f 36/36/36 35/35/35 33/33/33
f 39/39/39 38/38/38 37/37/37
f 40/40/40 39/39/39 37/37/37
f 43/43/43 42/42/42 41/41/41
f 44/44/44 43/43/43 41/41/41
f 47/47/47 46/46/46 45/45/45
f 48/48/48 47/47/47 45/45/45
f 48/48/48 45/45/45 49/49/49
f 50/50/50 48/48/48 49/49/49
f 48/48/48 50/50/50 51/51/51
f 47/47/47 48/48/48 52/52/52
f 52/52/52 48/48/48 51/51/51
f 53/53/53 47/47/47 52/52/52
f 53/53/53 52/52/52 54/54/54
f 52/52/52 51/51/51 55/55/55
f 52/52/52 55/55/55 54/54/54
f 51/51/51 56/56/56 55/55/55
f 56/56/56 57/57/57 55/55/55
f 55/55/55 58/58/58 54/54/54
f 57/57/57 58/58/58 55/55/55
f 58/58/58 59/59/59 54/54/54
f 59/59/59 58/58/58 60/60/60
f 58/58/58 61/61/61 60/60/60
f 58/58/58 57/57/57 61/61/61
f 57/57/57 62/62/62 61/61/61
f 65/65/65 64/64/64 63/63/63
f 66/66/66 65/65/65 63/63/63
f 67/67/67 66/66/66 63/63/63
f 68/68/68 67/67/67 63/63/63
f 67/67/67 68/68/68 69/69/69
f 70/70/70 67/67/67 69/69/69
f 73/73/73 72/72/72 71/71/71
f 72/72/72 74/74/74 71/71/71
f 74/74/74 72/72/72 75/75/75
f 72/72/72 76/76/76 75/75/75
f 75/75/75 76/76/76 77/77/77
f 78/78/78 75/75/75 77/77/77
f 81/81/81 80/80/80 79/79/79
f 82/82/82 81/81/81 79/79/79
f 81/81/81 82/82/82 83/83/83
f 83/83/83 82/82/82 84/84/84
f 85/85/85 81/81/81 83/83/83
f 86/86/86 83/83/83 84/84/84
f 83/83/83 86/86/86 85/85/85
f 87/87/87 86/86/86 84/84/84
f 86/86/86 88/88/88 85/85/85
f 89/89/89 86/86/86 87/87/87
f 86/86/86 89/89/89 88/88/88
f 90/90/90 89/89/89 87/87/87
f 89/89/89 91/91/91 88/88/88
f 90/90/90 92/92/92 89/89/89
f 91/91/91 89/89/89 93/93/93
f 89/89/89 92/92/92 93/93/93
f 96/96/96 95/95/95 94/94/94
f 97/97/97 96/96/96 94/94/94
f 98/98/98 97/97/97 94/94/94
f 97/97/97 98/98/98 99/99/99
f 100/100/100 97/97/97 99/99/99
f 101/101/101 100/100/100 99/99/99
f 104/104/104 103/103/103 102/102/102
f 104/104/104 102/102/102 105/105/105
f 106/106/106 104/104/104 105/105/105
f 106/106/106 105/105/105 107/107/107
f 107/107/107 105/105/105 108/108/108
f 109/109/109 107/107/107 108/108/108
f 112/112/112 111/111/111 110/110/110
f 111/111/111 113/113/113 110/110/110
f 113/113/113 111/111/111 114/114/114
f 113/113/113 114/114/114 115/115/115
f 111/111/111 116/116/116 114/114/114
f 115/115/115 114/114/114 117/117/117
f 117/117/117 114/114/114 116/116/116
f 118/118/118 115/115/115 117/117/117
f 119/119/119 117/117/117 116/116/116
f 118/118/118 117/117/117 120/120/120
f 120/120/120 117/117/117 119/119/119
f 121/121/121 118/118/118 120/120/120
f 122/122/122 120/120/120 119/119/119
f 123/123/123 121/121/121 120/120/120
f 120/120/120 122/122/122 124/124/124
f 123/123/123 120/120/120 124/124/124
f 127/127/127 126/126/126 125/125/125
f 126/126/126 128/128/128 125/125/125
f 128/128/128 129/129/129 125/125/125
f 129/129/129 128/128/128 130/130/130
f 128/128/128 131/131/131 130/130/130
f 131/131/131 132/132/132 130/130/130
f 135/135/135 134/134/134 133/133/133
f 136/136/136 133/133/133 134/134/134
f 137/137/137 136/136/136 134/134/134
f 136/136/136 137/137/137 138/138/138
f 136/136/136 138/138/138 139/139/139
f 138/138/138 140/140/140 139/139/139
f 143/143/143 142/142/142 141/141/141
f 144/144/144 143/143/143 141/141/141
f 143/143/143 144/144/144 145/145/145
f 145/145/145 144/144/144 146/146/146
f 147/147/147 143/143/143 145/145/145
f 148/148/148 145/145/145 146/146/146
f 145/145/145 148/148/148 147/147/147
f 149/149/149 148/148/148 146/146/146
f 148/148/148 150/150/150 147/147/147
f 151/151/151 148/148/148 149/149/149
f 148/148/148 151/151/151 150/150/150
f 152/152/152 151/151/151 149/149/149
f 151/151/151 153/153/153 150/150/150
f 152/152/152 154/154/154 151/151/151
f 153/153/153 151/151/151 155/155/155
f 151/151/151 154/154/154 155/155/155
f 158/158/158 157/157/157 156/156/156
f 156/156/156 159/159/159 158/158/158
f 159/159/159 160/160/160 158/158/158
f 160/160/160 159/159/159 161/161/161
f 159/159/159 162/162/162 161/161/161
f 162/162/162 163/163/163 161/161/161
f 166/166/166 165/165/165 164/164/164
f 164/164/164 167/167/167 166/166/166
f 167/167/167 168/168/168 166/166/166
f 167/167/167 169/169/169 168/168/168
f 169/169/169 170/170/170 168/168/168
f 169/169/169 171/171/171 170/170/170
f 174/174/174 173/173/173 172/172/172
f 173/173/173 175/175/175 172/172/172
f 175/175/175 173/173/173 176/176/176
f 175/175/175 176/176/176 177/177/177
f 173/173/173 178/178/178 176/176/176
f 177/177/177 176/176/176 179/179/179
f 179/179/179 176/176/176 178/178/178
f 180/180/180 177/177/177 179/179/179
f 181/181/181 179/179/179 178/178/178
f 180/180/180 179/179/179 182/182/182
f 182/182/182 179/179/179 181/181/181
f 183/183/183 180/180/180 182/182/182
f 184/184/184 182/182/182 181/181/181
f 185/185/185 183/183/183 182/182/182
f 182/182/182 184/184/184 186/186/186
f 185/185/185 182/182/182 186/186/186
f 189/189/189 188/188/188 187/187/187
f 190/190/190 187/187/187 188/188/188
f 191/191/191 190/190/190 188/188/188
f 190/190/190 191/191/191 192/192/192
f 193/193/193 190/190/190 192/192/192
f 194/194/194 193/193/193 192/192/192
f 197/197/197 196/196/196 195/195/195
f 198/198/198 195/195/195 196/196/196
f 199/199/199 198/198/198 196/196/196
f 198/198/198 199/199/199 200/200/200
f 199/199/199 201/201/201 200/200/200
f 202/202/202 200/200/200 201/201/201
f 205/205/205 204/204/204 203/203/203
f 206/206/206 205/205/205 203/203/203
f 207/207/207 205/205/205 206/206/206
f 208/208/208 207/207/207 206/206/206
f 207/207/207 208/208/208 209/209/209
f 209/209/209 208/208/208 210/210/210
f 210/210/210 208/208/208 211/211/211
f 212/212/212 207/207/207 209/209/209
f 213/213/213 207/207/207 212/212/212
f 216/216/216 215/215/215 214/214/214
f 217/217/217 216/216/216 214/214/214
f 216/216/216 217/217/217 218/218/218
f 219/219/219 216/216/216 218/218/218
f 220/220/220 219/219/219 218/218/218
f 221/221/221 220/220/220 218/218/218
f 224/224/224 223/223/223 222/222/222
f 225/225/225 224/224/224 222/222/222
f 226/226/226 224/224/224 225/225/225
f 227/227/227 226/226/226 225/225/225
f 228/228/228 226/226/226 227/227/227
f 229/229/229 228/228/228 227/227/227
f 230/230/230 228/228/228 229/229/229
f 231/231/231 230/230/230 229/229/229
f 234/234/234 233/233/233 232/232/232
f 235/235/235 234/234/234 232/232/232
f 236/236/236 235/235/235 232/232/232
f 237/237/237 236/236/236 232/232/232
f 238/238/238 236/236/236 237/237/237
f 239/239/239 238/238/238 237/237/237
f 242/242/242 241/241/241 240/240/240
f 243/243/243 242/242/242 240/240/240
f 244/244/244 242/242/242 243/243/243
f 245/245/245 244/244/244 243/243/243
f 244/244/244 245/245/245 246/246/246
f 246/246/246 245/245/245 247/247/247
f 247/247/247 245/245/245 248/248/248
f 249/249/249 244/244/244 246/246/246
f 250/250/250 244/244/244 249/249/249
f 253/253/253 252/252/252 251/251/251
f 254/254/254 253/253/253 251/251/251
f 253/253/253 254/254/254 255/255/255
f 256/256/256 253/253/253 255/255/255
f 257/257/257 256/256/256 255/255/255
f 258/258/258 257/257/257 255/255/255
f 261/261/261 260/260/260 259/259/259
f 262/262/262 261/261/261 259/259/259
f 263/263/263 261/261/261 262/262/262
f 264/264/264 263/263/263 262/262/262
f 265/265/265 263/263/263 264/264/264
f 266/266/266 265/265/265 264/264/264
f 267/267/267 265/265/265 266/266/266
f 268/268/268 267/267/267 266/266/266
f 271/271/271 270/270/270 269/269/269
f 272/272/272 271/271/271 269/269/269
f 273/273/273 272/272/272 269/269/269
f 274/274/274 273/273/273 269/269/269
f 275/275/275 273/273/273 274/274/274
f 276/276/276 275/275/275 274/274/274
f 279/279/279 278/278/278 277/277/277
f 280/280/280 279/279/279 277/277/277
f 281/281/281 280/280/280 277/277/277
f 282/282/282 281/281/281 277/277/277
f 282/282/282 283/283/283 281/281/281
f 283/283/283 284/284/284 281/281/281
f 279/279/279 280/280/280 285/285/285
f 280/280/280 281/281/281 285/285/285
f 281/281/281 284/284/284 286/286/286
f 281/281/281 286/286/286 285/285/285
f 285/285/285 287/287/287 279/279/279
f 287/287/287 285/285/285 286/286/286
f 287/287/287 288/288/288 279/279/279
f 288/288/288 287/287/287 289/289/289
f 287/287/287 290/290/290 289/289/289
f 291/291/291 286/286/286 284/284/284
f 291/291/291 287/287/287 286/286/286
f 287/287/287 291/291/291 290/290/290
f 292/292/292 291/291/291 284/284/284
f 291/291/291 293/293/293 290/290/290
f 292/292/292 294/294/294 291/291/291
f 294/294/294 293/293/293 291/291/291
f 297/297/297 296/296/296 295/295/295
f 296/296/296 298/298/298 295/295/295
f 298/298/298 299/299/299 295/295/295
f 299/299/299 300/300/300 295/295/295
f 300/300/300 299/299/299 301/301/301
f 302/302/302 300/300/300 301/301/301
f 299/299/299 298/298/298 303/303/303
f 301/301/301 299/299/299 303/303/303
f 298/298/298 296/296/296 304/304/304
f 298/298/298 304/304/304 303/303/303
f 305/305/305 304/304/304 296/296/296
f 303/303/303 304/304/304 305/305/305
f 306/306/306 305/305/305 296/296/296
f 306/306/306 307/307/307 305/305/305
f 307/307/307 308/308/308 305/305/305
f 301/301/301 303/303/303 309/309/309
f 309/309/309 303/303/303 305/305/305
f 309/309/309 305/305/305 308/308/308
f 310/310/310 301/301/301 309/309/309
f 311/311/311 309/309/309 308/308/308
f 310/310/310 309/309/309 312/312/312
f 309/309/309 311/311/311 312/312/312
f 315/315/315 314/314/314 313/313/313
f 316/316/316 315/315/315 313/313/313
f 317/317/317 316/316/316 313/313/313
f 318/318/318 317/317/317 313/313/313
f 318/318/318 319/319/319 317/317/317
f 319/319/319 320/320/320 317/317/317
f 315/315/315 316/316/316 321/321/321
f 316/316/316 317/317/317 321/321/321
f 317/317/317 320/320/320 322/322/322
f 317/317/317 322/322/322 321/321/321
f 321/321/321 323/323/323 315/315/315
f 323/323/323 321/321/321 322/322/322
f 323/323/323 324/324/324 315/315/315
f 324/324/324 323/323/323 325/325/325
f 323/323/323 326/326/326 325/325/325
f 327/327/327 322/322/322 320/320/320
f 327/327/327 323/323/323 322/322/322
f 323/323/323 327/327/327 326/326/326
f 328/328/328 327/327/327 320/320/320
f 327/327/327 329/329/329 326/326/326
f 328/328/328 330/330/330 327/327/327
f 330/330/330 329/329/329 327/327/327
f 333/333/333 332/332/332 331/331/331
f 332/332/332 334/334/334 331/331/331
f 334/334/334 335/335/335 331/331/331
f 335/335/335 336/336/336 331/331/331
f 336/336/336 335/335/335 337/337/337
f 338/338/338 336/336/336 337/337/337
f 335/335/335 334/334/334 339/339/339
f 337/337/337 335/335/335 339/339/339
f 334/334/334 332/332/332 340/340/340
f 334/334/334 340/340/340 339/339/339
f 341/341/341 340/340/340 332/332/332
f 339/339/339 340/340/340 341/341/341
f 342/342/342 341/341/341 332/332/332
f 342/342/342 343/343/343 341/341/341
f 343/343/343 344/344/344 341/341/341
f 337/337/337 339/339/339 345/345/345
f 345/345/345 339/339/339 341/341/341
f 345/345/345 341/341/341 344/344/344
f 346/346/346 337/337/337 345/345/345
f 347/347/347 345/345/345 344/344/344
f 346/346/346 345/345/345 348/348/348
f 345/345/345 347/347/347 348/348/348
f 351/351/351 350/350/350 349/349/349
f 352/352/352 351/351/351 349/349/349
f 355/355/355 354/354/354 353/353/353
f 354/354/354 356/356/356 353/353/353
f 356/356/356 354/354/354 357/357/357
f 356/356/356 358/358/358 353/353/353
f 358/358/358 356/356/356 357/357/357
f 358/358/358 359/359/359 353/353/353
f 360/360/360 358/358/358 357/357/357
f 359/359/359 358/358/358 361/361/361
f 362/362/362 358/358/358 360/360/360
f 358/358/358 362/362/362 361/361/361
f 365/365/365 364/364/364 363/363/363
f 366/366/366 365/365/365 363/363/363
f 365/365/365 366/366/366 367/367/367
f 367/367/367 366/366/366 368/368/368
f 369/369/369 366/366/366 363/363/363
f 366/366/366 369/369/369 368/368/368
f 370/370/370 369/369/369 363/363/363
f 369/369/369 371/371/371 368/368/368
f 371/371/371 369/369/369 370/370/370
f 372/372/372 371/371/371 370/370/370
f 375/375/375 374/374/374 373/373/373
f 374/374/374 376/376/376 373/373/373
f 376/376/376 374/374/374 377/377/377
f 376/376/376 378/378/378 373/373/373
f 378/378/378 376/376/376 377/377/377
f 378/378/378 379/379/379 373/373/373
f 380/380/380 378/378/378 377/377/377
f 379/379/379 378/378/378 381/381/381
f 382/382/382 378/378/378 380/380/380
f 378/378/378 382/382/382 381/381/381
f 385/385/385 384/384/384 383/383/383
f 386/386/386 385/385/385 383/383/383
f 385/385/385 386/386/386 387/387/387
f 387/387/387 386/386/386 388/388/388
f 389/389/389 386/386/386 383/383/383
f 386/386/386 389/389/389 388/388/388
f 390/390/390 389/389/389 383/383/383
f 389/389/389 391/391/391 388/388/388
f 391/391/391 389/389/389 390/390/390
f 392/392/392 391/391/391 390/390/390
