g A_Build_wajuejilihedui_01_Blue1
v 5.75351381 0.122453064 2.88184237
v 3.9743731 0.122292846 2.32630539
v 3.86993194 0.660460949 2.38215303
v 5.81589413 0.660452127 2.96613955
v 3.82498217 1.46356249 2.40635467
v 5.84010077 1.46355307 3.01108575
v 3.9743731 0.122292846 2.32630539
v 4.5103116 0.122292697 0.540299296
v 4.45387363 0.660460949 0.4361763
v 3.86993194 0.660460949 2.38215303
v 4.4296751 1.46356249 0.391224056
v 3.82498217 1.46356249 2.40635467
v 6.30137634 0.122453064 1.05609822
v 5.75351381 0.122453064 2.88184237
v 5.81589413 0.660452127 2.96613955
v 6.39986324 0.660452187 1.02007306
v 5.84010077 1.46355307 3.01108575
v 6.44481659 1.46355307 0.995880246
v 4.45387363 0.660460949 0.4361763
v 6.44481659 1.46355307 0.995880246
v 4.4296751 1.46356249 0.391224056
v 6.39986324 0.660452187 1.02007306
v 4.5103116 0.122292697 0.540299296
v 6.30137634 0.122453064 1.05609822
v 5.89927149 1.96521902 3.12093806
v 3.7150948 1.96522903 2.465518
v 4.37051487 1.9652288 0.281341553
v 6.55469179 1.9652189 0.936761439
v 5.87307119 1.22795403 3.07227635
v 3.76375413 1.22796321 2.43931913
v 3.7150948 1.96522903 2.465518
v 5.89927149 1.96521902 3.12093806
v 6.55469179 1.9652189 0.936761439
v 4.37051487 1.9652288 0.281341553
v 4.39670992 1.22796333 0.33000204
v 6.5060277 1.22795403 0.962958038
v 3.76375413 1.22796321 2.43931913
v 4.39670992 1.22796333 0.33000204
v 4.37051487 1.9652288 0.281341553
v 3.7150948 1.96522903 2.465518
v 6.5060277 1.22795403 0.962958038
v 5.87307119 1.22795403 3.07227635
v 5.89927149 1.96521902 3.12093806
v 6.55469179 1.9652189 0.936761439
v 5.06099463 2.02977347 1.94739592
v 4.88336706 2.02753878 1.93299651
v 4.88130808 2.17613387 1.93314707
v 5.06093597 2.17397809 1.94759178
v 5.21720409 2.02753854 2.03317308
v 5.21883965 2.17613363 2.03443241
v 5.26729584 2.26986885 1.92086792
v 5.09485149 2.25904346 1.83456707
v 4.90338326 2.26986909 1.81166637
v 5.05471373 2.30958867 1.32173514
v 5.22269297 2.29322743 1.40853858
v 5.41071033 2.30958843 1.42856109
v 5.44585133 2.18646836 1.27272928
v 5.2674408 2.18039584 1.25941789
v 5.11117697 2.18646836 1.17230141
v 5.11123657 2.02770424 1.17487311
v 5.26655579 2.02992439 1.26236796
v 5.44438505 2.027704 1.27484322
v 5.26563549 1.90702891 1.90197706
v 5.21720409 2.02753854 2.03317308
v 5.21883965 2.17613363 2.03443241
v 5.26729584 2.26986885 1.92086792
v 5.41071033 2.30958843 1.42856109
v 5.40736818 1.90708649 1.42903924
v 5.44438505 2.027704 1.27484322
v 5.44585133 2.18646836 1.27272928
v 5.11117697 2.18646836 1.17230141
v 5.05724192 1.90708673 1.32397532
v 5.11123657 2.02770424 1.17487311
v 5.05471373 2.30958867 1.32173514
v 4.90338326 2.26986909 1.81166637
v 4.91517067 1.90702891 1.79681098
v 4.88336706 2.02753878 1.93299651
v 4.88130808 2.17613387 1.93314707
v 5.16378975 2.23560619 1.36596918
v 4.93481636 2.22108841 1.76263642
v 4.58862066 2.29323363 1.56442368
v 4.95892525 2.29323459 1.12201834
v 4.49213648 2.40596795 1.0768795
v 4.70149326 2.4097867 0.797056258
v 4.22282267 2.40945053 1.36335433
v 4.38166714 2.37740302 0.983928025
v 4.58881998 2.37710404 0.683211803
v 4.08641148 2.37564778 1.24957895
v 4.32082319 2.2810576 0.932608783
v 4.52744246 2.28400803 0.62251389
v 4.01392221 2.28312397 1.18732238
v 4.57149315 2.16323233 0.673781395
v 4.07554579 2.16328621 1.23468268
v 4.58881998 2.37710404 0.683211803
v 4.52744246 2.28400803 0.62251389
v 4.57149315 2.16323233 0.673781395
v 4.66511536 2.09382915 0.779555619
v 4.70149326 2.4097867 0.797056258
v 4.95892525 2.29323459 1.12201834
v 5.16577053 2.05900645 1.3682878
v 5.16378975 2.23560619 1.36596918
v 4.07554579 2.16328621 1.23468268
v 4.01392221 2.28312397 1.18732238
v 4.08641148 2.37564778 1.24957895
v 4.20132542 2.09349704 1.33060801
v 4.22282267 2.40945053 1.36335433
v 4.58862066 2.29323363 1.56442368
v 4.93711424 2.05539465 1.76455927
v 4.93481636 2.22108841 1.76263642
v 5.29529715 2.23560596 1.40543103
v 5.66617537 2.29323292 1.88777161
v 5.26804543 2.22108817 1.86263013
v 5.60062742 2.29323411 1.31457806
v 6.01514816 2.40596676 1.53389812
v 5.99444437 2.40978551 1.18503916
v 6.08224249 2.40944886 1.9213208
v 6.15854359 2.37740159 1.51712573
v 6.15118217 2.37710309 1.15203834
v 6.25875854 2.37564659 1.90144789
v 6.23759079 2.28105617 1.50778472
v 6.23583841 2.28400683 1.13516235
v 6.35354853 2.2831223 1.88938737
v 6.17083836 2.16323113 1.15370607
v 6.27603054 2.16328478 1.89499497
v 6.15118217 2.37710309 1.15203834
v 6.17083836 2.16323113 1.15370607
v 6.23583841 2.28400683 1.13516235
v 6.03444815 2.09382844 1.19045854
v 5.99444437 2.40978551 1.18503916
v 5.60062742 2.29323411 1.31457806
v 5.29236698 2.05900669 1.40627575
v 5.29529715 2.23560596 1.40543103
v 6.27603054 2.16328478 1.89499497
v 6.25875854 2.37564659 1.90144789
v 6.35354853 2.2831223 1.88938737
v 6.11821747 2.09349585 1.90582061
v 6.08224249 2.40944886 1.9213208
v 5.66617537 2.29323292 1.88777161
v 5.26506901 2.05539465 1.86297059
v 5.26804543 2.22108817 1.86263013
v 4.90863371 2.18692398 1.48634017
v 5.02045155 2.18692374 1.80587244
v 4.89052534 2.18782949 1.87288892
v 4.76510954 2.18782973 1.52442622
v 4.38726425 2.31071019 1.84615541
v 4.28476191 2.31630087 1.59161401
v 4.48254585 2.31557012 2.13897634
v 4.2686615 2.28662992 1.88954389
v 4.16487646 2.29975557 1.63511336
v 4.36211061 2.29567575 2.18399596
v 4.20537329 2.20131826 1.91270149
v 4.09994459 2.20458412 1.65881741
v 4.29710531 2.20470738 2.20770264
v 4.14353323 2.09303927 1.64496577
v 4.33991432 2.09744096 2.18958187
v 4.91758776 1.99969721 1.50216043
v 4.90863371 2.18692398 1.48634017
v 4.76510954 2.18782973 1.52442622
v 4.24834871 2.04184079 1.61219978
v 4.28476191 2.31630087 1.59161401
v 4.16487646 2.29975557 1.63511336
v 4.14353323 2.09303927 1.64496577
v 4.09994459 2.20458412 1.65881741
v 4.89052534 2.18782949 1.87288892
v 5.02045155 2.18692374 1.80587244
v 5.01712847 1.99969697 1.78800058
v 4.48254585 2.31557012 2.13897634
v 4.44174099 2.04296589 2.1463871
v 4.36211061 2.29567575 2.18399596
v 4.33991432 2.09744096 2.18958187
v 4.29710531 2.20470738 2.20770264
v 5.44202423 2.1869235 1.64639771
v 5.24431705 2.18782926 1.97905314
v 5.17275429 2.1869235 1.85157454
v 5.54086781 2.18782926 1.75721216
v 5.67915106 2.31070924 2.23381901
v 5.9048624 2.31629992 2.07776642
v 5.43839169 2.31556964 2.42580199
v 5.75427008 2.28662872 2.33533859
v 5.98099184 2.29975462 2.18008494
v 5.51414251 2.29567432 2.52969289
v 5.79435205 2.20131731 2.3895154
v 6.02214527 2.20458245 2.23562312
v 5.5553565 2.20470643 2.58527279
v 5.99338484 2.09303808 2.20006084
v 5.52959633 2.09744024 2.5465765
v 5.4258399 1.99969697 1.65467501
v 5.54086781 2.18782926 1.75721216
v 5.44202423 2.1869235 1.64639771
v 5.92392588 2.0418396 2.11499929
v 5.9048624 2.31629992 2.07776642
v 5.98099184 2.29975462 2.18008494
v 5.99338484 2.09303808 2.20006084
v 6.02214527 2.20458245 2.23562312
v 5.24431705 2.18782926 1.97905314
v 5.18536806 1.99969697 1.83848512
v 5.17275429 2.1869235 1.85157454
v 5.43839169 2.31556964 2.42580199
v 5.46837521 2.04296541 2.4544549
v 5.51414251 2.29567432 2.52969289
v 5.52959633 2.09744024 2.5465765
v 5.5553565 2.20470643 2.58527279
v 4.99308872 2.06184196 1.83638668
v 5.3082099 2.05351138 1.8148998
v 5.37663317 2.15635967 2.24611545
v 4.98929501 2.16659212 2.27255011
v 5.44252062 2.14407158 2.68477654
v 4.98296547 2.15620589 2.71615958
v 5.23446417 2.06772542 3.03343558
v 5.12588549 2.04247832 3.08640623
v 4.97092152 1.97915125 3.22667527
v 5.34537029 2.03667569 3.07144094
v 5.51447439 1.96456289 3.19026208
v 4.97092152 1.97915125 3.22667527
v 4.96342707 1.86754262 3.15765381
v 4.97803545 2.04505396 2.70718145
v 4.98296547 2.15620589 2.71615958
v 4.98929501 2.16659212 2.27255011
v 4.98681545 2.075423 2.28165078
v 4.99306011 1.99065542 1.86356676
v 4.99308872 2.06184196 1.83638668
v 5.51447439 1.96456289 3.19026208
v 5.50667048 1.85290802 3.12132621
v 5.33867407 1.92325997 3.01720667
v 5.34537029 2.03667569 3.07144094
v 5.22818851 1.95449519 2.98529911
v 5.23446417 2.06772542 3.03343558
v 5.11918926 1.92906225 3.0321722
v 5.12588549 2.04247832 3.08640623
v 4.96342707 1.86754262 3.15765381
v 4.97092152 1.97915125 3.22667527
v 5.37663317 2.15635967 2.24611545
v 5.3082099 2.05351138 1.8148998
v 5.30818176 1.98232496 1.84207988
v 5.37552595 2.06515598 2.25512028
v 5.44033384 2.0328505 2.67560673
v 5.44252062 2.14407158 2.68477654
v 5.50667048 1.85290802 3.12132621
v 5.51447439 1.96456289 3.19026208
v 4.86017132 2.01322389 1.59067106
v 5.14311457 2.01140237 1.79001725
v 4.90974331 2.17181706 2.19158125
v 4.56194067 2.17405033 1.94657111
v 4.66404295 2.20748234 2.60950422
v 4.25138092 2.21012783 2.31883001
v 4.24389553 2.1553719 2.76942897
v 4.11387062 2.13024616 2.74219894
v 3.88268089 2.07158041 2.76088119
v 4.3109436 2.12897754 2.88104606
v 4.37027407 2.06826997 3.10530591
v 3.88268089 2.07158041 2.76088119
v 3.91880608 1.94232261 2.7087338
v 4.24846888 2.08788538 2.31923032
v 4.25138092 2.21012783 2.31883001
v 4.56194067 2.17405033 1.94657111
v 4.54957581 2.07559872 1.9619137
v 4.83835268 1.93856215 1.62095606
v 4.86017132 2.01322389 1.59067106
v 4.37027407 2.06826997 3.10530591
v 4.40607452 1.93896103 3.05302382
v 4.33751249 1.99936092 2.84215212
v 4.3109436 2.12897754 2.88104606
v 4.26664305 2.0266242 2.73596668
v 4.24389553 2.1553719 2.76942897
v 4.14043951 2.00062943 2.70330501
v 4.11387062 2.13024616 2.74219894
v 3.91880608 1.94232261 2.7087338
v 3.88268089 2.07158041 2.76088119
v 4.90974331 2.17181706 2.19158125
v 5.14311457 2.01140237 1.79001725
v 5.12129641 1.93674111 1.82030332
v 4.89861155 2.07335901 2.20778966
v 4.66359711 2.08522749 2.61163497
v 4.66404295 2.20748234 2.60950422
v 4.40607452 1.93896103 3.05302382
v 4.37027407 2.06826997 3.10530591
v 5.03580427 2.03511977 1.50903559
v 5.03580379 1.97736681 1.50903535
v 5.21133327 1.96170747 0.577447891
v 5.22217321 2.03355336 0.560454249
v 5.68310738 2.03355074 0.698798835
v 5.3233695 2.03511834 1.59532738
v 5.3233695 1.97736502 1.59532773
v 5.68840265 1.96170485 0.720612466
v 5.23846865 1.95472419 0.474792778
v 5.71659088 1.95472252 0.618272364
v 5.22180414 1.02168095 0.526983798
v 5.20528507 1.02735889 0.582032382
v 5.16428232 0.152622223 0.718101382
v 5.17641735 0.0927449018 0.676927865
v 5.70800781 1.02167821 0.672882378
v 5.6914897 1.02735651 0.727930903
v 5.6626215 0.0927423015 0.822826087
v 5.65048647 0.152619913 0.864000022
v 4.95047331 2.03511953 1.79339886
v 4.58587122 1.96605623 2.68255091
v 4.95047283 1.97736645 1.79339874
v 4.59767675 2.03548145 2.67056274
v 5.05858135 2.03547931 2.80895138
v 5.23803902 2.0351181 1.87969065
v 5.06294441 1.96605361 2.82570195
v 5.23803806 1.97736502 1.87969077
v 5.04227018 1.95732355 2.89458489
v 4.5641489 1.95732892 2.75111866
v 4.56536627 1.02177322 2.7145474
v 4.58188486 1.0274514 2.65949917
v 4.62148142 0.152190447 2.52697253
v 4.60894251 0.0923128277 2.56802416
v 5.05157042 1.02177072 2.86044645
v 5.06808949 1.02744889 2.80539799
v 5.09514666 0.092310369 2.71392322
v 5.10768557 0.152188405 2.67287111
v 4.95159006 2.03511953 1.79547441
v 4.95159006 1.97736645 1.79547465
v 4.00919819 1.96028161 1.60651243
v 3.99348021 2.0395546 1.59616101
v 4.13168764 2.03955245 1.13510036
v 5.03788185 2.03511834 1.50790918
v 5.03788185 1.97736537 1.50790942
v 4.1523633 1.96027982 1.12944376
v 3.90808344 1.96135235 1.57980776
v 4.05156183 1.96134567 1.10169029
v 3.96916771 1.02146518 1.60936463
v 4.0242157 1.02714324 1.62588334
v 4.15684843 0.151608974 1.66585672
v 4.11567402 0.091731526 1.65372205
v 4.11506653 1.02146316 1.12316072
v 4.17011547 1.02714157 1.13967943
v 4.26157331 0.0917294994 1.16751766
v 4.3027463 0.151607111 1.17965221
v 5.23595333 2.03511953 1.88080549
v 6.12718964 1.96491659 2.26360941
v 5.23595333 1.97736609 1.88080573
v 6.1547761 2.04821253 2.25974703
v 6.29295826 2.04821038 1.79857683
v 5.32224464 2.03511834 1.59324002
v 6.27034092 1.96491468 1.78653657
v 5.32224464 1.97736502 1.59324002
v 6.37827301 1.9703716 1.81504726
v 6.23480701 1.97036767 2.29316473
v 6.16315126 1.02129364 2.26772976
v 6.1081028 1.02697206 2.25121093
v 5.97561502 0.151169837 2.21162724
v 6.01666737 0.0912922174 2.22416615
v 6.30905008 1.02129173 1.78152537
v 6.25400209 1.02697027 1.76500642
v 6.16256618 0.0912904814 1.7379626
v 6.12151337 0.151168093 1.7254231
v 3.9743731 0.122292846 2.32630539
v 5.75351381 0.122453064 2.88184237
v 6.30137634 0.122453064 1.05609822
v 4.5103116 0.122292697 0.540299296
v 5.31551933 0.0667618662 1.74832964
v 5.31551981 0.124514967 1.74832928
v 5.65048647 0.152619913 0.864000022
v 5.62889099 0.0611177161 0.903235435
v 5.6626215 0.0927423015 0.822826087
v 5.15985155 0.0611211769 0.76255089
v 5.02813768 0.0667633116 1.66142774
v 5.17641735 0.0927449018 0.676927865
v 5.02813816 0.124516554 1.66142797
v 5.16428232 0.152622223 0.718101382
v 5.31551933 0.0667618662 1.74832964
v 5.10768557 0.152188405 2.67287111
v 5.31551981 0.124514967 1.74832928
v 5.11169243 0.0613622367 2.62825155
v 5.09514666 0.092310369 2.71392322
v 4.60894251 0.0923128277 2.56802416
v 4.64264441 0.0613615103 2.48762941
v 5.02813768 0.0667633116 1.66142774
v 4.62148142 0.152190447 2.52697253
v 5.02813816 0.124516554 1.66142797
v 5.12838411 0.0667620078 1.84856689
v 5.12838411 0.124515258 1.84856689
v 5.97561502 0.151169837 2.21162724
v 5.93644619 0.0602943413 2.19062948
v 6.01666737 0.0912922174 2.22416615
v 6.07731819 0.0602879785 1.72155631
v 5.21528625 0.0667631701 1.561185
v 6.16256618 0.0912904814 1.7379626
v 5.21528625 0.124516405 1.56118524
v 6.12151337 0.151168093 1.7254231
v 5.12838411 0.0667620078 1.84856689
v 4.15684843 0.151608974 1.66585672
v 5.12838411 0.124515258 1.84856689
v 4.20084763 0.0610911064 1.6700691
v 4.11567402 0.091731526 1.65372205
v 4.26157331 0.0917294994 1.16751766
v 4.34179068 0.0610951521 1.20091152
v 5.21528625 0.0667631701 1.561185
v 4.3027463 0.151607111 1.17965221
v 5.21528625 0.124516405 1.56118524
vt 0.656738281 0.282714844
vt 0.656738281 0.237060547
vt 0.641601562 0.237060547
vt 0.641601562 0.282714844
vt 0.619628906 0.237060547
vt 0.619628906 0.282714844
vt 0.952636719 0.84375
vt 0.952636719 0.749511719
vt 0.922851562 0.749511719
vt 0.922851562 0.84375
vt 0.877929688 0.749511719
vt 0.877929688 0.84375
vt 0.679199219 0.333740234
vt 0.679199219 0.287109375
vt 0.6640625 0.287109375
vt 0.6640625 0.333740234
vt 0.642089844 0.287109375
vt 0.642089844 0.333740234
vt 0.922363281 0.74609375
vt 0.878417969 0.651367188
vt 0.878417969 0.74609375
vt 0.922363281 0.651367188
vt 0.952148438 0.74609375
vt 0.952148438 0.651367188
vt 0.869628906 0.328369141
vt 0.977539062 0.328369141
vt 0.977539062 0.220458984
vt 0.869628906 0.220458984
vt 0.679199219 0.282226562
vt 0.679199219 0.236450195
vt 0.659667969 0.236450195
vt 0.659667969 0.282226562
vt 0.958007812 0.649414062
vt 0.958007812 0.744140625
vt 0.995605469 0.744140625
vt 0.995605469 0.649414062
vt 0.995605469 0.844238281
vt 0.995605469 0.749511719
vt 0.957519531 0.749511719
vt 0.957519531 0.844238281
vt 0.719726562 0.384033203
vt 0.673828125 0.384033203
vt 0.673828125 0.403076172
vt 0.719726562 0.403076172
vt 0.923339844 0.389160156
vt 0.923339844 0.380859375
vt 0.915527344 0.380859375
vt 0.915527344 0.389160156
vt 0.923339844 0.397460938
vt 0.915527344 0.397460938
vt 0.908203125 0.397460938
vt 0.908203125 0.389160156
vt 0.908203125 0.380859375
vt 0.886230469 0.380859375
vt 0.886230469 0.389160156
vt 0.886230469 0.397460938
vt 0.876953125 0.397460938
vt 0.876953125 0.389160156
vt 0.876953125 0.380859375
vt 0.868652344 0.380859375
vt 0.868652344 0.389160156
vt 0.868652344 0.397460938
vt 0.964355469 0.426513672
vt 0.958007812 0.432861328
vt 0.958496094 0.440673828
vt 0.963867188 0.4453125
vt 0.987304688 0.446777344
vt 0.986816406 0.426025391
vt 0.994140625 0.431884766
vt 0.994140625 0.440185547
vt 0.913085938 0.44140625
vt 0.920410156 0.427001953
vt 0.913574219 0.433105469
vt 0.920410156 0.447753906
vt 0.943847656 0.445800781
vt 0.942871094 0.427001953
vt 0.94921875 0.433105469
vt 0.94921875 0.440917969
vt 0.866210938 0.309326172
vt 0.835449219 0.309326172
vt 0.835449219 0.325683594
vt 0.866210938 0.325683594
vt 0.8515625 0.344970703
vt 0.866210938 0.344970703
vt 0.835449219 0.344970703
vt 0.8515625 0.352294922
vt 0.866210938 0.352294922
vt 0.835449219 0.352294922
vt 0.8515625 0.358642578
vt 0.866210938 0.358642578
vt 0.835449219 0.358642578
vt 0.866210938 0.365234375
vt 0.835449219 0.365234375
vt 0.831054688 0.412597656
vt 0.836425781 0.415771484
vt 0.842285156 0.411865234
vt 0.845214844 0.405029297
vt 0.828613281 0.405517578
vt 0.83203125 0.386230469
vt 0.842285156 0.370361328
vt 0.833496094 0.371582031
vt 0.860839844 0.371582031
vt 0.854980469 0.367675781
vt 0.849609375 0.371337891
vt 0.863769531 0.379150391
vt 0.847167969 0.379150391
vt 0.8515625 0.398681641
vt 0.862304688 0.417724609
vt 0.854003906 0.416748047
vt 0.925292969 0.362060547
vt 0.940917969 0.331054688
vt 0.925292969 0.331054688
vt 0.940917969 0.362060547
vt 0.958984375 0.346679688
vt 0.958984375 0.362060547
vt 0.958984375 0.331054688
vt 0.965820312 0.346679688
vt 0.965820312 0.362060547
vt 0.965820312 0.331054688
vt 0.971679688 0.346679688
vt 0.971679688 0.362060547
vt 0.971679688 0.331054688
vt 0.978027344 0.362060547
vt 0.978027344 0.331054688
vt 0.65234375 0.562988281
vt 0.652832031 0.552246094
vt 0.648925781 0.557617188
vt 0.659667969 0.549316406
vt 0.659179688 0.565917969
vt 0.678222656 0.5625
vt 0.694335938 0.552734375
vt 0.692871094 0.561523438
vt 0.916992188 0.402587891
vt 0.917480469 0.413818359
vt 0.920898438 0.408447266
vt 0.909179688 0.399902344
vt 0.909667969 0.416503906
vt 0.890136719 0.412841797
vt 0.870605469 0.402832031
vt 0.872070312 0.411376953
vt 0.898925781 0.377441406
vt 0.922363281 0.377441406
vt 0.922363281 0.370849609
vt 0.898925781 0.370849609
vt 0.909667969 0.348388672
vt 0.898925781 0.348388672
vt 0.922363281 0.348388672
vt 0.909667969 0.342529297
vt 0.898925781 0.342529297
vt 0.922363281 0.342529297
vt 0.909667969 0.336914062
vt 0.898925781 0.336914062
vt 0.922363281 0.336914062
vt 0.898925781 0.331054688
vt 0.922363281 0.331054688
vt 0.820800781 0.436279297
vt 0.822265625 0.445800781
vt 0.829101562 0.445068359
vt 0.8515625 0.434814453
vt 0.8515625 0.44921875
vt 0.856933594 0.447753906
vt 0.856933594 0.437011719
vt 0.859375 0.442382812
vt 0.875976562 0.4375
vt 0.869140625 0.437011719
vt 0.868164062 0.446777344
vt 0.8984375 0.432373047
vt 0.898925781 0.446777344
vt 0.903808594 0.433837891
vt 0.904296875 0.444335938
vt 0.906738281 0.438964844
vt 0.872558594 0.331298828
vt 0.895507812 0.337890625
vt 0.895507812 0.331298828
vt 0.872558594 0.337890625
vt 0.883300781 0.360351562
vt 0.872558594 0.360351562
vt 0.895507812 0.360351562
vt 0.883300781 0.366210938
vt 0.872558594 0.366210938
vt 0.895507812 0.366210938
vt 0.883300781 0.371826172
vt 0.872558594 0.371826172
vt 0.895507812 0.371826172
vt 0.872558594 0.377929688
vt 0.895507812 0.377929688
vt 0.899414062 0.416992188
vt 0.892578125 0.426757812
vt 0.899414062 0.426757812
vt 0.869140625 0.419189453
vt 0.87109375 0.43359375
vt 0.865234375 0.432617188
vt 0.864257812 0.421875
vt 0.861816406 0.427734375
vt 0.849609375 0.421875
vt 0.857421875 0.430908203
vt 0.855957031 0.421142578
vt 0.826660156 0.41796875
vt 0.826660156 0.432128906
vt 0.821289062 0.419677734
vt 0.821289062 0.429931641
vt 0.818847656 0.424804688
vt 0.930175781 0.409912109
vt 0.930175781 0.395507812
vt 0.950683594 0.393798828
vt 0.950683594 0.411621094
vt 0.970703125 0.392333984
vt 0.970703125 0.413330078
vt 0.986328125 0.402587891
vt 0.988769531 0.407714844
vt 0.995117188 0.415283203
vt 0.988769531 0.397705078
vt 0.995117188 0.390136719
vt 0.989746094 0.367919922
vt 0.994628906 0.367919922
vt 0.994628906 0.343994141
vt 0.989746094 0.343994141
vt 0.989746094 0.322998047
vt 0.994628906 0.322998047
vt 0.994628906 0.302978516
vt 0.989746094 0.302978516
vt 0.995117188 0.423828125
vt 0.995117188 0.417724609
vt 0.984863281 0.417724609
vt 0.984863281 0.423828125
vt 0.979003906 0.417724609
vt 0.979003906 0.423828125
vt 0.973144531 0.417724609
vt 0.973144531 0.423828125
vt 0.962890625 0.417724609
vt 0.962890625 0.423828125
vt 0.983398438 0.347900391
vt 0.983398438 0.367919922
vt 0.98828125 0.367919922
vt 0.98828125 0.347900391
vt 0.98828125 0.326904297
vt 0.983398438 0.326904297
vt 0.98828125 0.302978516
vt 0.983398438 0.302978516
vt 0.99609375 0.386474609
vt 0.99609375 0.370849609
vt 0.974121094 0.368896484
vt 0.974121094 0.388427734
vt 0.951660156 0.3671875
vt 0.952148438 0.390136719
vt 0.935058594 0.378662109
vt 0.932128906 0.384277344
vt 0.925292969 0.392333984
vt 0.932128906 0.373291016
vt 0.925292969 0.364990234
vt 0.981933594 0.300537109
vt 0.987304688 0.300537109
vt 0.987304688 0.274414062
vt 0.981933594 0.274414062
vt 0.981933594 0.251464844
vt 0.987304688 0.251464844
vt 0.987304688 0.229492188
vt 0.981933594 0.229492188
vt 0.921386719 0.417236328
vt 0.921386719 0.423828125
vt 0.932617188 0.423828125
vt 0.932617188 0.417236328
vt 0.938964844 0.423828125
vt 0.938964844 0.417236328
vt 0.9453125 0.423828125
vt 0.9453125 0.417236328
vt 0.956542969 0.423828125
vt 0.956542969 0.417236328
vt 0.990234375 0.278564453
vt 0.990234375 0.30078125
vt 0.995117188 0.30078125
vt 0.995117188 0.278564453
vt 0.995117188 0.255371094
vt 0.990234375 0.255371094
vt 0.995117188 0.229492188
vt 0.990234375 0.229492188
vt 0.96875 0.848632812
vt 0.965820312 0.848632812
vt 0.965820312 0.895019531
vt 0.96875 0.890625
vt 0.990234375 0.890625
vt 0.990234375 0.848632812
vt 0.993164062 0.848632812
vt 0.993164062 0.895019531
vt 0.96875 0.898925781
vt 0.990234375 0.898925781
vt 0.96875 0.947265625
vt 0.965820312 0.947265625
vt 0.965820312 0.995117188
vt 0.96875 0.995117188
vt 0.990234375 0.947265625
vt 0.993164062 0.947265625
vt 0.990234375 0.995117188
vt 0.993164062 0.995117188
vt 0.898925781 0.848632812
vt 0.901367188 0.89453125
vt 0.901367188 0.848632812
vt 0.898925781 0.890625
vt 0.876953125 0.890625
vt 0.876953125 0.848632812
vt 0.874511719 0.89453125
vt 0.874511719 0.848632812
vt 0.876953125 0.898925781
vt 0.898925781 0.898925781
vt 0.898925781 0.946777344
vt 0.901367188 0.946777344
vt 0.901367188 0.994628906
vt 0.898925781 0.994628906
vt 0.876953125 0.946777344
vt 0.874511719 0.946777344
vt 0.876953125 0.994628906
vt 0.874511719 0.994628906
vt 0.937988281 0.848632812
vt 0.935546875 0.848632812
vt 0.935546875 0.89453125
vt 0.937988281 0.890625
vt 0.959960938 0.890625
vt 0.959960938 0.848632812
vt 0.962402344 0.848632812
vt 0.962402344 0.89453125
vt 0.937988281 0.8984375
vt 0.959960938 0.8984375
vt 0.937988281 0.946777344
vt 0.935546875 0.946777344
vt 0.935546875 0.994628906
vt 0.937988281 0.994628906
vt 0.959960938 0.946777344
vt 0.962402344 0.946777344
vt 0.959960938 0.994628906
vt 0.962402344 0.994628906
vt 0.928710938 0.848632812
vt 0.931640625 0.89453125
vt 0.931640625 0.848632812
vt 0.928710938 0.890625
vt 0.907226562 0.890625
vt 0.907226562 0.848632812
vt 0.904296875 0.89453125
vt 0.904296875 0.848632812
vt 0.907226562 0.8984375
vt 0.928710938 0.8984375
vt 0.928710938 0.946777344
vt 0.931640625 0.946777344
vt 0.931640625 0.994628906
vt 0.928710938 0.994628906
vt 0.907226562 0.946777344
vt 0.904296875 0.946777344
vt 0.907226562 0.994628906
vt 0.904296875 0.994628906
vt 0.869628906 0.328369141
vt 0.977539062 0.328369141
vt 0.977539062 0.220458984
vt 0.869628906 0.220458984
vt 0.96875 0.848632812
vt 0.965820312 0.848632812
vt 0.965820312 0.895019531
vt 0.96875 0.890625
vt 0.96875 0.898925781
vt 0.990234375 0.890625
vt 0.990234375 0.848632812
vt 0.990234375 0.898925781
vt 0.993164062 0.848632812
vt 0.993164062 0.895019531
vt 0.898925781 0.848632812
vt 0.901367188 0.89453125
vt 0.901367188 0.848632812
vt 0.898925781 0.890625
vt 0.898925781 0.898925781
vt 0.876953125 0.898925781
vt 0.876953125 0.890625
vt 0.876953125 0.848632812
vt 0.874511719 0.89453125
vt 0.874511719 0.848632812
vt 0.937988281 0.848632812
vt 0.935546875 0.848632812
vt 0.935546875 0.89453125
vt 0.937988281 0.890625
vt 0.937988281 0.8984375
vt 0.959960938 0.890625
vt 0.959960938 0.848632812
vt 0.959960938 0.8984375
vt 0.962402344 0.848632812
vt 0.962402344 0.89453125
vt 0.928710938 0.848632812
vt 0.931640625 0.89453125
vt 0.931640625 0.848632812
vt 0.928710938 0.890625
vt 0.928710938 0.8984375
vt 0.907226562 0.8984375
vt 0.907226562 0.890625
vt 0.907226562 0.848632812
vt 0.904296875 0.89453125
vt 0.904296875 0.848632812
vn -0.289851308 -0.134722754 0.947542071
vn -0.289851367 -0.134722769 0.947542071
vn -0.288385749 -0.0771558136 0.954400659
vn -0.288385302 -0.0771440044 0.954401731
vn -0.287145466 -0.0449007303 0.956834018
vn -0.287145495 -0.0449007303 0.956834018
vn -0.946352303 -0.154187053 -0.283978194
vn -0.946352303 -0.154187039 -0.283978164
vn -0.95439887 -0.0842728689 -0.286392659
vn -0.95439887 -0.0842728764 -0.286392659
vn -0.956840038 -0.0449025668 -0.28712514
vn -0.956840038 -0.0449025668 -0.28712514
vn 0.946346879 -0.154223666 0.283976376
vn 0.946346879 -0.154223666 0.283976406
vn 0.954322696 -0.0852088854 0.28636992
vn 0.954322696 -0.0852088779 0.28636992
vn 0.956839681 -0.0449096486 0.287125319
vn 0.956839681 -0.0449096449 0.287125319
vn 0.284730196 -0.0771559551 -0.955497622
vn 0.287105262 -0.0449009575 -0.956846178
vn 0.287105262 -0.0449009575 -0.956846178
vn 0.28473112 -0.0771441236 -0.955498278
vn 0.279730588 -0.134722754 -0.950579047
vn 0.279730588 -0.134722754 -0.950579047
vn 4.18505488E-06 1 1.2018761E-06
vn 4.18505488E-06 1 1.2018761E-06
vn 4.18505488E-06 1 1.2018761E-06
vn 4.18505488E-06 1 1.2018761E-06
vn -0.287012547 -0.0529303737 0.956463337
vn -0.287012547 -0.0529303737 0.956463337
vn -0.287012517 -0.05293037 0.956463337
vn -0.287012577 -0.0529303737 0.956463337
vn 0.287011802 -0.0529295467 -0.956463635
vn 0.287011802 -0.0529295467 -0.956463635
vn 0.287011832 -0.0529295467 -0.956463635
vn 0.287011832 -0.0529295467 -0.956463635
vn -0.956463635 -0.052927155 -0.28701213
vn -0.956463635 -0.0529271625 -0.2870121
vn -0.956463635 -0.0529271662 -0.2870121
vn -0.956463635 -0.0529271625 -0.2870121
vn 0.956463337 -0.0529342704 0.28701207
vn 0.956463337 -0.0529342704 0.28701207
vn 0.956463337 -0.0529342704 0.2870121
vn 0.956463337 -0.0529342704 0.28701207
vn -0.287415028 -0.00180205761 0.957804382
vn -0.0804759488 -0.0017617573 0.996754944
vn -0.0627617314 0.452296138 0.889656723
vn -0.250812888 0.488343805 0.835830927
vn -0.481609762 -0.00176245323 0.876384079
vn -0.437430114 0.452296466 0.77722764
vn -0.150396183 0.972189367 0.179523945
vn -0.0538082905 0.982318521 0.179318383
vn 0.0267087761 0.972189128 0.232668921
vn 0.144150034 0.98410207 -0.103748903
vn 0.0270204898 0.995571315 -0.0900432244
vn -0.063211903 0.984102309 -0.16597271
vn 0.0401644781 0.485350162 -0.873396814
vn 0.245595768 0.519454241 -0.818443656
vn 0.44734171 0.485351622 -0.751211822
vn 0.488641053 -0.01687916 -0.872321665
vn 0.287371874 -0.017293429 -0.95766288
vn 0.0723686218 -0.0168812014 -0.997235119
vn 0.956964672 -0.0136786755 0.289881706
vn 0.928833842 -0.0205603614 0.36992541
vn 0.928833842 -0.0205603614 0.369925469
vn 0.956562817 -0.0137913469 0.291199803
vn 0.961122811 -0.0123542631 0.275844783
vn 0.961028576 -0.0123880394 0.276171386
vn 0.973928392 -0.00729772216 0.226738274
vn 0.973928392 -0.00729772216 0.226738244
vn -0.937857687 -0.00729880948 -0.346943498
vn -0.954305947 -0.0123916231 -0.29857412
vn -0.937857687 -0.00729880948 -0.346943498
vn -0.954204798 -0.0123578319 -0.298898697
vn -0.958852351 -0.0137950396 -0.283569962
vn -0.958462119 -0.0136824036 -0.284891516
vn -0.979048491 -0.0205618478 -0.202586308
vn -0.979048491 -0.020561846 -0.202586293
vn 0.138560772 0.983539224 0.115980379
vn 0.138560772 0.983539224 0.115980372
vn 0.168113723 0.975450039 0.142249465
vn 0.169170186 0.975476503 0.140808314
vn 0.0791154951 0.994699478 0.0656790808
vn 0.027822379 0.999059975 0.0332432874
vn 0.0415706262 0.998799443 0.0259138364
vn -0.33373189 0.89529407 -0.295079082
vn -0.421389639 0.861170709 -0.284281105
vn -0.315745533 0.878914595 -0.357510686
vn -0.708171368 0.314849734 -0.63195163
vn -0.790468395 0.303932935 -0.531774819
vn -0.618558645 0.301713616 -0.72550261
vn -0.744725108 -0.381473958 -0.547596753
vn -0.605197072 -0.440451533 -0.663128197
vn 0.725047052 -0.0378501117 -0.687658489
vn 0.724247038 -0.0282970052 -0.688959777
vn 0.725053906 -0.037937358 -0.687646449
vn 0.75577718 -0.038130872 -0.653717697
vn 0.75702709 -0.0486972667 -0.651566267
vn 0.764182806 -0.0173532274 -0.644766212
vn 0.762987554 -0.0058271219 -0.646386921
vn 0.765807152 0.000149752464 -0.643070281
vn -0.627510071 -0.0311100204 0.777986586
vn -0.635338843 -0.0216375198 0.771930277
vn -0.627575576 -0.031031549 0.777937055
vn -0.543710113 -0.0393498726 0.838350177
vn -0.545460403 -0.0472924933 0.836801291
vn -0.505723715 -0.0262828525 0.862295032
vn -0.503550828 -0.0108805792 0.863897145
vn -0.4963651 0.0031896662 0.868107975
vn -0.179523572 0.983539462 0.0205311552
vn -0.218656585 0.975450397 0.0261893161
vn -0.179523572 0.983539462 0.020531157
vn -0.218745276 0.975476801 0.0244041905
vn -0.102204889 0.994699597 0.0112694334
vn -0.041527424 0.999059975 0.0124322325
vn -0.0489686616 0.998799562 -0.00125457044
vn 0.441056162 0.895294905 -0.0625826269
vn 0.508286357 0.861171782 -0.00530653168
vn 0.460414588 0.878915548 -0.124602787
vn 0.939107001 0.31485343 -0.137642533
vn 0.95265311 0.303934515 -0.00870618597
vn 0.915807307 0.301713973 -0.265076786
vn 0.923177242 -0.381477863 -0.0470990874
vn 0.870310485 -0.440453768 -0.220363721
vn -0.226651818 -0.0378509015 -0.973240018
vn -0.226664424 -0.0379381478 -0.9732337
vn -0.225259259 -0.0282975603 -0.973887801
vn -0.270992398 -0.0381315462 -0.961825907
vn -0.273220509 -0.0486989804 -0.960717976
vn -0.282937199 -0.0173519906 -0.958981454
vn -0.281045824 -0.00582621759 -0.959676623
vn -0.285223156 0.000148011692 -0.958461106
vn 0.0954944342 -0.0311111603 0.994943678
vn 0.0955763683 -0.0310326908 0.994938254
vn 0.105374426 -0.0216388777 0.99419713
vn -0.00769371213 -0.0393502712 0.999195874
vn -0.005380149 -0.0472929664 0.998866558
vn -0.0525865965 -0.0262827128 0.998270392
vn -0.0552827753 -0.0108792102 0.998411417
vn -0.0636001602 0.00319296774 0.997970283
vn 0.00582964486 0.999980927 -0.00206977711
vn 0.00582964486 0.999980927 -0.00206977734
vn 0.164174587 0.984564662 -0.0606549308
vn 0.161578387 0.985248208 -0.0563780032
vn 0.116843939 0.992339015 -0.0401328318
vn 0.100829579 0.994821191 -0.0128097469
vn 0.0805014446 0.995701015 -0.045814272
vn -0.458840489 0.87236613 0.168650001
vn -0.447878987 0.868009627 0.214391679
vn -0.479395151 0.867683351 0.131552115
vn -0.920142293 0.204428002 0.333987117
vn -0.876892686 0.301097214 0.374699473
vn -0.91032356 0.307598948 0.27693671
vn -0.873717964 -0.346119255 0.341786951
vn -0.884416103 -0.362718761 0.293671966
vn -0.165342644 -0.0405037552 -0.985404074
vn -0.255914748 -0.0935397372 -0.96216315
vn -0.161098555 -0.0380343311 -0.986205161
vn -0.18483302 -0.033563789 -0.982196689
vn -0.185612187 -0.0334959403 -0.982051909
vn -0.32445997 -0.020363912 -0.945680201
vn -0.324444413 -0.0203995276 -0.945684791
vn -0.328511089 -0.0110933408 -0.944434941
vn 0.527538598 -0.0454521067 0.848314345
vn 0.455934942 -0.09258838 0.88518399
vn 0.524617493 -0.0474439748 0.850015044
vn 0.504657328 -0.0404535644 0.862371445
vn 0.505377769 -0.0405442156 0.861945271
vn 0.365348041 -0.0227300469 0.930593371
vn 0.365367651 -0.0227611195 0.930585027
vn 0.359817922 -0.0140005341 0.932917535
vn -0.00372613198 0.999980927 -0.00493685761
vn -0.103654392 0.984564781 -0.141024336
vn -0.00372613128 0.999980927 -0.00493685668
vn -0.103842013 0.985248208 -0.136025012
vn -0.0754419863 0.992339134 -0.0978336483
vn -0.0771174803 0.994821191 -0.0662092194
vn -0.0419749878 0.995701253 -0.0825654864
vn 0.290179372 0.872365832 0.393413097
vn 0.255843908 0.868009865 0.425561607
vn 0.327764064 0.867682338 0.373761922
vn 0.584236264 0.204431146 0.785414457
vn 0.525714993 0.301097631 0.795590341
vn 0.607451379 0.307598233 0.732383907
vn 0.541185796 -0.346121967 0.766366422
vn 0.576609373 -0.362722725 0.732088745
vn 0.680564106 -0.04050567 -0.731568038
vn 0.677462339 -0.0380361602 -0.734573364
vn 0.743373513 -0.0935431793 -0.662303209
vn 0.695068598 -0.0335649997 -0.718159497
vn 0.695639312 -0.0334971398 -0.717609763
vn 0.791521251 -0.0203625392 -0.610802293
vn 0.791510701 -0.0203981381 -0.61081475
vn 0.794223785 -0.0110943075 -0.607524216
vn -0.907441616 -0.0454534702 0.417712361
vn -0.905939758 -0.0474451371 0.420740068
vn -0.867970526 -0.0925848112 0.487909049
vn -0.896080554 -0.0404549912 0.442044199
vn -0.896447062 -0.0405456088 0.441292077
vn -0.81735003 -0.022730615 0.575692832
vn -0.817361712 -0.0227616914 0.57567507
vn -0.814003229 -0.0139995245 0.580691576
vn 0.00976935308 0.972321332 -0.233443454
vn 0.00976935308 0.972321332 -0.233443469
vn 0.0203284305 0.995940447 -0.0876888782
vn 0.0203290768 0.995941281 -0.0876796767
vn 0.0399758555 0.995590568 0.0848605111
vn 0.0242483914 0.996006787 0.0859215185
vn 0.0440091565 0.962104142 0.269107461
vn -0.083396554 0.943099856 0.321881562
vn -0.0911359563 0.941524446 0.324385613
vn 0.1765351 0.93606025 0.304346085
vn 0.183653846 0.934268057 0.305637568
vn -0.998302579 0.0578962974 -0.00632606121
vn -0.998302579 0.0578963012 -0.00632606167
vn -0.998711109 0.0497848764 -0.00987909175
vn -0.99878186 0.0481974706 -0.0105741294
vn -0.999557793 0.0256077889 -0.0151171181
vn -0.999552548 0.0258057509 -0.0151268421
vn -0.999820888 0.0122176846 -0.0144580938
vn -0.999820888 0.0122176856 -0.0144580957
vn -0.614999533 -0.347686172 0.707735837
vn -0.614999592 -0.347686082 0.707735777
vn -0.538559735 -0.356462836 0.763470888
vn -0.53213191 -0.357034892 0.767698944
vn 0.0508314632 -0.413518429 0.909075737
vn 0.051226303 -0.413528919 0.909048796
vn 0.613237977 -0.38822186 0.687912107
vn 0.607274354 -0.388480514 0.693037212
vn 0.68445164 -0.382968962 0.620371461
vn 0.68445164 -0.382968962 0.620371461
vn 0.988218904 -0.0269411337 -0.15065743
vn 0.987864554 -0.0403224602 -0.149992391
vn 0.987864554 -0.0403224528 -0.149992377
vn 0.988222778 -0.0267439857 -0.150666997
vn 0.989364147 -0.00275551458 -0.145433456
vn 0.989256501 -0.00434234273 -0.146125719
vn 0.989868045 0.00535364449 -0.141889066
vn 0.989868045 0.00535364356 -0.141889051
vn 0.192931697 0.944683075 -0.265238225
vn 0.192931697 0.944683075 -0.265238225
vn 0.110699132 0.982745469 -0.148179144
vn 0.110693768 0.982747197 -0.148171514
vn 0.0177749209 0.999838948 -0.00246553076
vn 0.00489130849 0.999921322 -0.0115566384
vn -0.0959596187 0.984680712 0.145587638
vn -0.228925824 0.967414379 0.108177066
vn -0.236579165 0.965878367 0.105401516
vn -0.0160007048 0.965894461 0.258441299
vn -0.011344376 0.964435518 0.264074862
vn -0.770351887 0.0293212961 -0.636944532
vn -0.770351887 0.0293212924 -0.636944413
vn -0.768766224 0.0208935197 -0.639188528
vn -0.768448889 0.0192445163 -0.639621675
vn -0.767108381 -0.00369275105 -0.641506851
vn -0.767090321 -0.00349667715 -0.641529739
vn -0.768263102 -0.0169557426 -0.639909565
vn -0.768263102 -0.0169557445 -0.639909565
vn -0.936149776 -0.293611854 0.193431079
vn -0.936149776 -0.293611854 0.193431094
vn -0.911982954 -0.294766754 0.285306066
vn -0.909656465 -0.294743687 0.292662293
vn -0.547047079 -0.320939958 0.77313453
vn -0.546721756 -0.320942014 0.773363829
vn 0.0301735085 -0.301854193 0.952876449
vn 0.0223107412 -0.30177483 0.953118145
vn 0.128136113 -0.301270217 0.944890141
vn 0.128136098 -0.301270157 0.944890141
vn 0.86218065 -0.0141844852 0.506402433
vn 0.860951066 -0.0274484754 0.50794661
vn 0.860951066 -0.0274484791 0.50794661
vn 0.862197638 -0.013989063 0.506378889
vn 0.860765398 0.0104248486 0.50889504
vn 0.861052155 0.00877558999 0.508440912
vn 0.859259784 0.0188529659 0.511191845
vn 0.859259784 0.0188529659 0.511191845
vn -0.149024457 0.988366663 -0.030380778
vn -0.980270147 0.0571899451 -0.189208046
vn -0.972765028 0.0312772952 -0.229673401
vn -0.103464134 0.986980975 -0.123140574
vn 0.15362528 0.987059832 -0.0459581278
vn 0.141027838 0.988428891 0.0558517501
vn 0.921134591 0.100915045 0.375935107
vn 0.944856822 0.0551486611 0.322806805
vn 0.136729524 0.025949182 -0.990268469
vn 0.429754227 0.0261054318 -0.902568519
vn 0.160032377 -0.112029299 -0.980733991
vn -0.961615443 0.00242091506 -0.27439031
vn -0.972972393 -0.0057964283 -0.230848834
vn 0.225247711 -0.239898011 -0.944305241
vn 0.406328082 -0.111652374 -0.906879961
vn 0.960613132 0.00355243566 0.277866483
vn 0.331861854 -0.239693344 -0.912367702
vn 0.949918449 -0.0179900248 0.31197989
vn -0.14132987 0.988276184 -0.0577589683
vn -0.94268024 0.0319021158 -0.332168937
vn -0.925423861 0.0505078733 -0.375552505
vn -0.189824969 0.981355369 0.0301346555
vn 0.143113211 0.981310368 0.128640741
vn 0.149215013 0.988411605 0.0278830566
vn 0.970032573 0.0299832541 0.241117865
vn 0.980869293 0.0581189543 0.18578957
vn -0.16315569 0.0443818867 0.985601604
vn -0.405796647 0.045337718 0.912838221
vn -0.391513824 -0.0996213108 0.91476357
vn -0.956400514 0.00619935943 -0.291992366
vn -0.939422607 -0.00708596176 -0.342687666
vn -0.33181715 -0.23609072 0.913322747
vn -0.17722635 -0.100105017 0.979065776
vn 0.957595229 -0.000790613878 0.288115889
vn -0.225879386 -0.236287341 0.945064425
vn 0.964740336 -0.0168627221 0.262662828
vn -0.0282823667 0.986661851 0.160307229
vn -0.20023334 0.0509457402 0.978422701
vn -0.234848604 0.0333377495 0.971460164
vn -0.1187637 0.986222208 0.115156464
vn -0.0338727348 0.986218631 -0.161942869
vn 0.0661090612 0.986990154 -0.14656055
vn 0.384330004 0.0958947241 -0.918201864
vn 0.327499121 0.0471400693 -0.943674743
vn -0.988987267 0.0145610189 -0.147282898
vn -0.906527579 0.0127588678 -0.421953678
vn -0.980351627 -0.115362771 -0.160006851
vn -0.27449435 0.00889706705 0.961547554
vn -0.246217608 -0.0114143547 0.969147325
vn -0.945114553 -0.236096039 -0.225869685
vn -0.906746387 -0.116320886 -0.405315161
vn 0.278268188 -0.00290648267 -0.960498989
vn -0.913341105 -0.236059591 -0.331788808
vn 0.325517148 -0.0137227103 -0.945436537
vn -0.0761802197 0.986033022 0.148106202
vn -0.32829389 0.048513785 0.943329036
vn -0.385952145 0.10059993 0.917017281
vn 0.0262993667 0.987348676 0.156368181
vn 0.109483056 0.98740226 -0.114237823
vn 0.0216417704 0.985626638 -0.167546526
vn 0.235642418 0.0340743996 -0.971242309
vn 0.203127012 0.0508975722 -0.977828622
vn 0.989304662 0.00597114861 0.145741805
vn 0.905851722 0.00380822411 0.423577875
vn 0.904857874 -0.120258957 0.408374846
vn -0.278877228 -0.00359323621 0.960320055
vn -0.32918027 -0.0106813684 0.944206715
vn 0.913423181 -0.235672638 0.331838161
vn 0.980523288 -0.119058929 0.156202033
vn 0.275051415 0.00967306551 -0.96138078
vn 0.945171118 -0.235802859 0.225939259
vn 0.247613639 -0.0119778924 -0.968784809
vn 8.23657901E-05 -1 2.47548396E-05
vn 8.23657901E-05 -1 2.47548433E-05
vn 8.23657901E-05 -1 2.47548396E-05
vn 8.23657901E-05 -1 2.47548396E-05
vn 0.173467025 -0.983455956 0.0521865934
vn 0.956949711 -0.0420641638 0.287189603
vn 0.949918449 -0.0179900248 0.31197989
vn 0.219972163 -0.974534869 0.0435205847
vn 0.331861854 -0.239693344 -0.912367702
vn -0.224634171 -0.97180599 -0.0716416463
vn -0.166376472 -0.984809458 -0.0496909171
vn 0.225247711 -0.239898011 -0.944305241
vn -0.957834899 -0.0153052341 -0.286911219
vn -0.972972393 -0.0057964283 -0.230848834
vn 0.173467025 -0.983455956 0.0521865934
vn 0.964740336 -0.0168627221 0.262662828
vn 0.956949711 -0.0420641638 0.287189603
vn 0.207427502 -0.97464776 0.0838785172
vn -0.225879386 -0.236287341 0.945064425
vn -0.33181715 -0.23609072 0.913322747
vn -0.226054341 -0.972005963 -0.064060919
vn -0.166376472 -0.984809458 -0.0496909171
vn -0.939422607 -0.00708596176 -0.342687666
vn -0.957834899 -0.0153052341 -0.286911219
vn -0.0512525477 -0.984249294 0.169194043
vn -0.287428558 -0.0273693912 0.957410991
vn -0.32918027 -0.0106813684 0.944206715
vn -0.0544626974 -0.973446369 0.222342014
vn 0.913423181 -0.235672638 0.331838161
vn 0.0770770609 -0.973534286 -0.215151623
vn 0.0503577143 -0.984233439 -0.169554397
vn 0.945171118 -0.235802859 0.225939259
vn 0.287048608 -0.0300639421 -0.957444072
vn 0.247613639 -0.0119778924 -0.968784809
vn -0.0512525477 -0.984249294 0.169194043
vn -0.246217608 -0.0114143547 0.969147325
vn -0.287428558 -0.0273693912 0.957410991
vn -0.0763411447 -0.973502517 0.215556905
vn -0.945114553 -0.236096039 -0.225869685
vn -0.913341105 -0.236059591 -0.331788808
vn 0.0546187721 -0.973548949 -0.221854046
vn 0.0503577143 -0.984233439 -0.169554397
vn 0.325517148 -0.0137227103 -0.945436537
vn 0.287048608 -0.0300639421 -0.957444072
g A_Build_wajuejilihedui_01_Blue1_0
f 3/3/3 2/2/2 1/1/1
f 4/4/4 3/3/3 1/1/1
f 5/5/5 3/3/3 4/4/4
f 6/6/6 5/5/5 4/4/4
f 9/9/9 8/8/8 7/7/7
f 10/10/10 9/9/9 7/7/7
f 11/11/11 9/9/9 10/10/10
f 12/12/12 11/11/11 10/10/10
f 15/15/15 14/14/14 13/13/13
f 16/16/16 15/15/15 13/13/13
f 17/17/17 15/15/15 16/16/16
f 18/18/18 17/17/17 16/16/16
f 21/21/21 20/20/20 19/19/19
f 20/20/20 22/22/22 19/19/19
f 19/19/19 22/22/22 23/23/23
f 22/22/22 24/24/24 23/23/23
f 27/27/27 26/26/26 25/25/25
f 28/28/28 27/27/27 25/25/25
f 31/31/31 30/30/30 29/29/29
f 32/32/32 31/31/31 29/29/29
f 35/35/35 34/34/34 33/33/33
f 36/36/36 35/35/35 33/33/33
f 39/39/39 38/38/38 37/37/37
f 40/40/40 39/39/39 37/37/37
f 43/43/43 42/42/42 41/41/41
f 44/44/44 43/43/43 41/41/41
f 47/47/47 46/46/46 45/45/45
f 48/48/48 47/47/47 45/45/45
f 48/48/48 45/45/45 49/49/49
f 50/50/50 48/48/48 49/49/49
f 48/48/48 50/50/50 51/51/51
f 47/47/47 48/48/48 52/52/52
f 52/52/52 48/48/48 51/51/51
f 53/53/53 47/47/47 52/52/52
f 53/53/53 52/52/52 54/54/54
f 52/52/52 51/51/51 55/55/55
f 52/52/52 55/55/55 54/54/54
f 51/51/51 56/56/56 55/55/55
f 56/56/56 57/57/57 55/55/55
f 55/55/55 58/58/58 54/54/54
f 57/57/57 58/58/58 55/55/55
f 58/58/58 59/59/59 54/54/54
f 59/59/59 58/58/58 60/60/60
f 58/58/58 61/61/61 60/60/60
f 58/58/58 57/57/57 61/61/61
f 57/57/57 62/62/62 61/61/61
f 65/65/65 64/64/64 63/63/63
f 66/66/66 65/65/65 63/63/63
f 67/67/67 66/66/66 63/63/63
f 68/68/68 67/67/67 63/63/63
f 67/67/67 68/68/68 69/69/69
f 70/70/70 67/67/67 69/69/69
f 73/73/73 72/72/72 71/71/71
f 72/72/72 74/74/74 71/71/71
f 74/74/74 72/72/72 75/75/75
f 72/72/72 76/76/76 75/75/75
f 75/75/75 76/76/76 77/77/77
f 78/78/78 75/75/75 77/77/77
f 81/81/81 80/80/80 79/79/79
f 82/82/82 81/81/81 79/79/79
f 81/81/81 82/82/82 83/83/83
f 83/83/83 82/82/82 84/84/84
f 85/85/85 81/81/81 83/83/83
f 86/86/86 83/83/83 84/84/84
f 83/83/83 86/86/86 85/85/85
f 87/87/87 86/86/86 84/84/84
f 86/86/86 88/88/88 85/85/85
f 89/89/89 86/86/86 87/87/87
f 86/86/86 89/89/89 88/88/88
f 90/90/90 89/89/89 87/87/87
f 89/89/89 91/91/91 88/88/88
f 90/90/90 92/92/92 89/89/89
f 91/91/91 89/89/89 93/93/93
f 89/89/89 92/92/92 93/93/93
f 96/96/96 95/95/95 94/94/94
f 97/97/97 96/96/96 94/94/94
f 98/98/98 97/97/97 94/94/94
f 97/97/97 98/98/98 99/99/99
f 100/100/100 97/97/97 99/99/99
f 101/101/101 100/100/100 99/99/99
f 104/104/104 103/103/103 102/102/102
f 104/104/104 102/102/102 105/105/105
f 106/106/106 104/104/104 105/105/105
f 106/106/106 105/105/105 107/107/107
f 107/107/107 105/105/105 108/108/108
f 109/109/109 107/107/107 108/108/108
f 112/112/112 111/111/111 110/110/110
f 111/111/111 113/113/113 110/110/110
f 113/113/113 111/111/111 114/114/114
f 113/113/113 114/114/114 115/115/115
f 111/111/111 116/116/116 114/114/114
f 115/115/115 114/114/114 117/117/117
f 117/117/117 114/114/114 116/116/116
f 118/118/118 115/115/115 117/117/117
f 119/119/119 117/117/117 116/116/116
f 118/118/118 117/117/117 120/120/120
f 120/120/120 117/117/117 119/119/119
f 121/121/121 118/118/118 120/120/120
f 122/122/122 120/120/120 119/119/119
f 123/123/123 121/121/121 120/120/120
f 120/120/120 122/122/122 124/124/124
f 123/123/123 120/120/120 124/124/124
f 127/127/127 126/126/126 125/125/125
f 126/126/126 128/128/128 125/125/125
f 128/128/128 129/129/129 125/125/125
f 129/129/129 128/128/128 130/130/130
f 128/128/128 131/131/131 130/130/130
f 131/131/131 132/132/132 130/130/130
f 135/135/135 134/134/134 133/133/133
f 136/136/136 133/133/133 134/134/134
f 137/137/137 136/136/136 134/134/134
f 136/136/136 137/137/137 138/138/138
f 136/136/136 138/138/138 139/139/139
f 138/138/138 140/140/140 139/139/139
f 143/143/143 142/142/142 141/141/141
f 144/144/144 143/143/143 141/141/141
f 143/143/143 144/144/144 145/145/145
f 145/145/145 144/144/144 146/146/146
f 147/147/147 143/143/143 145/145/145
f 148/148/148 145/145/145 146/146/146
f 145/145/145 148/148/148 147/147/147
f 149/149/149 148/148/148 146/146/146
f 148/148/148 150/150/150 147/147/147
f 151/151/151 148/148/148 149/149/149
f 148/148/148 151/151/151 150/150/150
f 152/152/152 151/151/151 149/149/149
f 151/151/151 153/153/153 150/150/150
f 152/152/152 154/154/154 151/151/151
f 153/153/153 151/151/151 155/155/155
f 151/151/151 154/154/154 155/155/155
f 158/158/158 157/157/157 156/156/156
f 156/156/156 159/159/159 158/158/158
f 159/159/159 160/160/160 158/158/158
f 160/160/160 159/159/159 161/161/161
f 159/159/159 162/162/162 161/161/161
f 162/162/162 163/163/163 161/161/161
f 166/166/166 165/165/165 164/164/164
f 164/164/164 167/167/167 166/166/166
f 167/167/167 168/168/168 166/166/166
f 167/167/167 169/169/169 168/168/168
f 169/169/169 170/170/170 168/168/168
f 169/169/169 171/171/171 170/170/170
f 174/174/174 173/173/173 172/172/172
f 173/173/173 175/175/175 172/172/172
f 175/175/175 173/173/173 176/176/176
f 175/175/175 176/176/176 177/177/177
f 173/173/173 178/178/178 176/176/176
f 177/177/177 176/176/176 179/179/179
f 179/179/179 176/176/176 178/178/178
f 180/180/180 177/177/177 179/179/179
f 181/181/181 179/179/179 178/178/178
f 180/180/180 179/179/179 182/182/182
f 182/182/182 179/179/179 181/181/181
f 183/183/183 180/180/180 182/182/182
f 184/184/184 182/182/182 181/181/181
f 185/185/185 183/183/183 182/182/182
f 182/182/182 184/184/184 186/186/186
f 185/185/185 182/182/182 186/186/186
f 189/189/189 188/188/188 187/187/187
f 190/190/190 187/187/187 188/188/188
f 191/191/191 190/190/190 188/188/188
f 190/190/190 191/191/191 192/192/192
f 193/193/193 190/190/190 192/192/192
f 194/194/194 193/193/193 192/192/192
f 197/197/197 196/196/196 195/195/195
f 198/198/198 195/195/195 196/196/196
f 199/199/199 198/198/198 196/196/196
f 198/198/198 199/199/199 200/200/200
f 199/199/199 201/201/201 200/200/200
f 202/202/202 200/200/200 201/201/201
f 205/205/205 204/204/204 203/203/203
f 206/206/206 205/205/205 203/203/203
f 207/207/207 205/205/205 206/206/206
f 208/208/208 207/207/207 206/206/206
f 207/207/207 208/208/208 209/209/209
f 209/209/209 208/208/208 210/210/210
f 210/210/210 208/208/208 211/211/211
f 212/212/212 207/207/207 209/209/209
f 213/213/213 207/207/207 212/212/212
f 216/216/216 215/215/215 214/214/214
f 217/217/217 216/216/216 214/214/214
f 216/216/216 217/217/217 218/218/218
f 219/219/219 216/216/216 218/218/218
f 220/220/220 219/219/219 218/218/218
f 221/221/221 220/220/220 218/218/218
f 224/224/224 223/223/223 222/222/222
f 225/225/225 224/224/224 222/222/222
f 226/226/226 224/224/224 225/225/225
f 227/227/227 226/226/226 225/225/225
f 228/228/228 226/226/226 227/227/227
f 229/229/229 228/228/228 227/227/227
f 230/230/230 228/228/228 229/229/229
f 231/231/231 230/230/230 229/229/229
f 234/234/234 233/233/233 232/232/232
f 235/235/235 234/234/234 232/232/232
f 236/236/236 235/235/235 232/232/232
f 237/237/237 236/236/236 232/232/232
f 238/238/238 236/236/236 237/237/237
f 239/239/239 238/238/238 237/237/237
f 242/242/242 241/241/241 240/240/240
f 243/243/243 242/242/242 240/240/240
f 244/244/244 242/242/242 243/243/243
f 245/245/245 244/244/244 243/243/243
f 244/244/244 245/245/245 246/246/246
f 246/246/246 245/245/245 247/247/247
f 247/247/247 245/245/245 248/248/248
f 249/249/249 244/244/244 246/246/246
f 250/250/250 244/244/244 249/249/249
f 253/253/253 252/252/252 251/251/251
f 254/254/254 253/253/253 251/251/251
f 253/253/253 254/254/254 255/255/255
f 256/256/256 253/253/253 255/255/255
f 257/257/257 256/256/256 255/255/255
f 258/258/258 257/257/257 255/255/255
f 261/261/261 260/260/260 259/259/259
f 262/262/262 261/261/261 259/259/259
f 263/263/263 261/261/261 262/262/262
f 264/264/264 263/263/263 262/262/262
f 265/265/265 263/263/263 264/264/264
f 266/266/266 265/265/265 264/264/264
f 267/267/267 265/265/265 266/266/266
f 268/268/268 267/267/267 266/266/266
f 271/271/271 270/270/270 269/269/269
f 272/272/272 271/271/271 269/269/269
f 273/273/273 272/272/272 269/269/269
f 274/274/274 273/273/273 269/269/269
f 275/275/275 273/273/273 274/274/274
f 276/276/276 275/275/275 274/274/274
f 279/279/279 278/278/278 277/277/277
f 280/280/280 279/279/279 277/277/277
f 281/281/281 280/280/280 277/277/277
f 282/282/282 281/281/281 277/277/277
f 282/282/282 283/283/283 281/281/281
f 283/283/283 284/284/284 281/281/281
f 279/279/279 280/280/280 285/285/285
f 280/280/280 281/281/281 285/285/285
f 281/281/281 284/284/284 286/286/286
f 281/281/281 286/286/286 285/285/285
f 285/285/285 287/287/287 279/279/279
f 287/287/287 285/285/285 286/286/286
f 287/287/287 288/288/288 279/279/279
f 288/288/288 287/287/287 289/289/289
f 287/287/287 290/290/290 289/289/289
f 291/291/291 286/286/286 284/284/284
f 291/291/291 287/287/287 286/286/286
f 287/287/287 291/291/291 290/290/290
f 292/292/292 291/291/291 284/284/284
f 291/291/291 293/293/293 290/290/290
f 292/292/292 294/294/294 291/291/291
f 294/294/294 293/293/293 291/291/291
f 297/297/297 296/296/296 295/295/295
f 296/296/296 298/298/298 295/295/295
f 298/298/298 299/299/299 295/295/295
f 299/299/299 300/300/300 295/295/295
f 300/300/300 299/299/299 301/301/301
f 302/302/302 300/300/300 301/301/301
f 299/299/299 298/298/298 303/303/303
f 301/301/301 299/299/299 303/303/303
f 298/298/298 296/296/296 304/304/304
f 298/298/298 304/304/304 303/303/303
f 305/305/305 304/304/304 296/296/296
f 303/303/303 304/304/304 305/305/305
f 306/306/306 305/305/305 296/296/296
f 306/306/306 307/307/307 305/305/305
f 307/307/307 308/308/308 305/305/305
f 301/301/301 303/303/303 309/309/309
f 309/309/309 303/303/303 305/305/305
f 309/309/309 305/305/305 308/308/308
f 310/310/310 301/301/301 309/309/309
f 311/311/311 309/309/309 308/308/308
f 310/310/310 309/309/309 312/312/312
f 309/309/309 311/311/311 312/312/312
f 315/315/315 314/314/314 313/313/313
f 316/316/316 315/315/315 313/313/313
f 317/317/317 316/316/316 313/313/313
f 318/318/318 317/317/317 313/313/313
f 318/318/318 319/319/319 317/317/317
f 319/319/319 320/320/320 317/317/317
f 315/315/315 316/316/316 321/321/321
f 316/316/316 317/317/317 321/321/321
f 317/317/317 320/320/320 322/322/322
f 317/317/317 322/322/322 321/321/321
f 321/321/321 323/323/323 315/315/315
f 323/323/323 321/321/321 322/322/322
f 323/323/323 324/324/324 315/315/315
f 324/324/324 323/323/323 325/325/325
f 323/323/323 326/326/326 325/325/325
f 327/327/327 322/322/322 320/320/320
f 327/327/327 323/323/323 322/322/322
f 323/323/323 327/327/327 326/326/326
f 328/328/328 327/327/327 320/320/320
f 327/327/327 329/329/329 326/326/326
f 328/328/328 330/330/330 327/327/327
f 330/330/330 329/329/329 327/327/327
f 333/333/333 332/332/332 331/331/331
f 332/332/332 334/334/334 331/331/331
f 334/334/334 335/335/335 331/331/331
f 335/335/335 336/336/336 331/331/331
f 336/336/336 335/335/335 337/337/337
f 338/338/338 336/336/336 337/337/337
f 335/335/335 334/334/334 339/339/339
f 337/337/337 335/335/335 339/339/339
f 334/334/334 332/332/332 340/340/340
f 334/334/334 340/340/340 339/339/339
f 341/341/341 340/340/340 332/332/332
f 339/339/339 340/340/340 341/341/341
f 342/342/342 341/341/341 332/332/332
f 342/342/342 343/343/343 341/341/341
f 343/343/343 344/344/344 341/341/341
f 337/337/337 339/339/339 345/345/345
f 345/345/345 339/339/339 341/341/341
f 345/345/345 341/341/341 344/344/344
f 346/346/346 337/337/337 345/345/345
f 347/347/347 345/345/345 344/344/344
f 346/346/346 345/345/345 348/348/348
f 345/345/345 347/347/347 348/348/348
f 351/351/351 350/350/350 349/349/349
f 352/352/352 351/351/351 349/349/349
f 355/355/355 354/354/354 353/353/353
f 356/356/356 355/355/355 353/353/353
f 355/355/355 356/356/356 357/357/357
f 358/358/358 356/356/356 353/353/353
f 356/356/356 358/358/358 357/357/357
f 359/359/359 358/358/358 353/353/353
f 358/358/358 360/360/360 357/357/357
f 359/359/359 361/361/361 358/358/358
f 358/358/358 362/362/362 360/360/360
f 361/361/361 362/362/362 358/358/358
f 365/365/365 364/364/364 363/363/363
f 364/364/364 366/366/366 363/363/363
f 366/366/366 364/364/364 367/367/367
f 366/366/366 367/367/367 368/368/368
f 366/366/366 369/369/369 363/363/363
f 369/369/369 366/366/366 368/368/368
f 369/369/369 370/370/370 363/363/363
f 371/371/371 369/369/369 368/368/368
f 370/370/370 369/369/369 371/371/371
f 372/372/372 370/370/370 371/371/371
f 375/375/375 374/374/374 373/373/373
f 376/376/376 375/375/375 373/373/373
f 375/375/375 376/376/376 377/377/377
f 378/378/378 376/376/376 373/373/373
f 376/376/376 378/378/378 377/377/377
f 379/379/379 378/378/378 373/373/373
f 378/378/378 380/380/380 377/377/377
f 379/379/379 381/381/381 378/378/378
f 378/378/378 382/382/382 380/380/380
f 381/381/381 382/382/382 378/378/378
f 385/385/385 384/384/384 383/383/383
f 384/384/384 386/386/386 383/383/383
f 386/386/386 384/384/384 387/387/387
f 386/386/386 387/387/387 388/388/388
f 386/386/386 389/389/389 383/383/383
f 389/389/389 386/386/386 388/388/388
f 389/389/389 390/390/390 383/383/383
f 391/391/391 389/389/389 388/388/388
f 390/390/390 389/389/389 391/391/391
f 392/392/392 390/390/390 391/391/391
