g A_Build_wajuejilihedui_01_Yellow
v -2.16036749 -4.88787127 2.43847752
v -0.143670112 -4.88806963 2.45801592
v -0.0529259481 -4.22694349 2.36752367
v -2.25133276 -4.22695351 2.37064242
v -0.0139243314 -3.24035382 2.32840514
v -2.29045534 -3.24036407 2.33164525
v -0.143670112 -4.88806963 2.45801592
v -0.14076072 -4.88806963 4.47570181
v -0.0497563928 -4.22694349 4.5659318
v -0.0529259481 -4.22694349 2.36752367
v -0.0106415553 -3.24035382 4.60493755
v -0.0139243314 -3.24035382 2.32840514
v -2.15739346 -4.88787174 4.50105476
v -2.16036749 -4.88787127 2.43847752
v -2.25133276 -4.22695351 2.37064242
v -2.24816275 -4.22695351 4.56915045
v -2.29045534 -3.24036407 2.33164525
v -2.28717303 -3.24036407 4.60826254
v -0.0497563928 -4.22694349 4.5659318
v -2.28717303 -3.24036407 4.60826254
v -0.0106415553 -3.24035382 4.60493755
v -2.24816275 -4.22695351 4.56915045
v -0.14076072 -4.88806963 4.47570181
v -2.15739346 -4.88787174 4.50105476
v -2.3860817 -2.62408018 2.23633409
v 0.0814246386 -2.62406969 2.23277664
v 0.0849826783 -2.62406969 4.7002821
v -2.38252354 -2.62408018 4.70384073
v -2.34373236 -3.52979183 2.27855825
v 0.039204102 -3.52978182 2.2751224
v 0.0814246386 -2.62406969 2.23277664
v -2.3860817 -2.62408018 2.23633409
v -2.38252354 -2.62408018 4.70384073
v 0.0849826783 -2.62406969 4.7002821
v 0.0426403806 -3.52978182 4.6580596
v -2.34029651 -3.52979183 4.66149521
v 0.039204102 -3.52978182 2.2751224
v 0.0426403806 -3.52978182 4.6580596
v 0.0849826783 -2.62406969 4.7002821
v 0.0814246386 -2.62406969 2.23277664
v -2.34029651 -3.52979183 4.66149521
v -2.34373236 -3.52979183 2.27855825
v -2.3860817 -2.62408018 2.23633409
v -2.38252354 -2.62408018 4.70384073
v -2.16875911 -2.4138608 3.36923885
v -2.36969829 -2.29277253 3.78778291
v -2.17547917 -2.41403723 3.78623319
v -2.31457734 -2.29770708 3.35446095
v -2.36897588 -2.13060355 3.35025382
v -2.11599994 -2.41403723 3.00260925
v -2.30755758 -2.29277253 2.96909928
v -2.42613769 -2.12282062 3.78739953
v -2.36341023 -2.12282062 2.96097803
v -2.33850956 -1.97000337 3.79407644
v -2.27578187 -1.97000337 2.9676559
v -2.28318667 -1.97920036 3.35671806
v -2.09345818 -1.96108949 3.80033159
v -2.03270316 -1.96108913 2.99990129
v -2.08561754 -1.96017265 3.37444305
v -1.47122324 -2.27003813 3.69110012
v -1.43265808 -2.27042103 3.2052083
v -1.48779917 -2.50643754 3.69214916
v -2.09345818 -1.96108949 3.80033159
v -1.47122324 -2.27003813 3.69110012
v -2.17547917 -2.41403723 3.78623319
v -2.36969829 -2.29277253 3.78778291
v -2.33850956 -1.97000337 3.79407644
v -2.42613769 -2.12282062 3.78739953
v -1.47122324 -2.27003813 3.69110012
v -1.44503069 -2.50601959 3.78228235
v -1.48779917 -2.50643754 3.69214916
v -1.4368304 -2.3403852 3.78299999
v -1.17338336 -2.35124302 3.75456262
v -1.17338479 -2.50560117 3.75459075
v -0.906836927 -2.50601673 3.82313204
v -1.42045379 -2.19964528 3.64301109
v -1.43265808 -2.27042103 3.2052083
v -1.39458573 -2.19964528 3.25646019
v -1.16317797 -2.21034908 3.62658715
v -1.39214349 -2.34038472 3.11525178
v -1.44805956 -2.50643754 3.19061303
v -1.40034258 -2.50601959 3.1145339
v -1.12767124 -2.50560093 3.18137932
v -1.1378727 -2.21034908 3.30927825
v -1.12766993 -2.35124302 3.18135166
v -0.858442903 -2.34038234 3.15576053
v -0.850227952 -2.50601673 3.15628839
v -0.814540386 -2.50643468 3.23869705
v -0.831970513 -2.27041841 3.25080037
v -0.877343059 -2.1996429 3.29571915
v -0.910114467 -2.1996429 3.68174648
v -0.867183805 -2.27003527 3.7369473
v -0.91505307 -2.34038258 3.82260346
v -0.850953877 -2.50643468 3.74048615
v -1.43265808 -2.27042103 3.2052083
v -2.11599994 -2.41403723 3.00260925
v -1.44805956 -2.50643754 3.19061303
v -2.03270316 -1.96108913 2.99990129
v -2.27578187 -1.97000337 2.9676559
v -2.30755758 -2.29277253 2.96909928
v -2.36341023 -2.12282062 2.96097803
v -0.129058301 -2.41385102 3.52405453
v -0.185353234 -2.41402698 3.93728685
v 0.00640563946 -2.29276109 3.96813154
v 0.0173184965 -2.29769611 3.53145504
v 0.0717273727 -2.13059211 3.53550649
v -0.125876769 -2.41402745 3.15366149
v 0.068542935 -2.29276109 3.14944792
v 0.0622550957 -2.12280846 3.97627068
v 0.12497963 -2.12280846 3.14984989
v -0.0253787227 -1.96999204 3.96964598
v 0.037346039 -1.96999204 3.14322472
v -0.0140560148 -1.97918975 3.52894759
v -0.268566877 -1.96108031 3.93884325
v -0.207815096 -1.96108031 3.13841248
v -0.212037116 -1.96016347 3.51664972
v -0.867183805 -2.27003527 3.7369473
v -0.831970513 -2.27041841 3.25080037
v -0.850953877 -2.50643468 3.74048615
v -0.867183805 -2.27003527 3.7369473
v -0.268566877 -1.96108031 3.93884325
v -0.185353234 -2.41402698 3.93728685
v 0.00640563946 -2.29276109 3.96813154
v -0.0253787227 -1.96999204 3.96964598
v 0.0622550957 -2.12280846 3.97627068
v -0.831970513 -2.27041841 3.25080037
v -0.814540386 -2.50643468 3.23869705
v -0.125876769 -2.41402745 3.15366149
v -0.207815096 -1.96108031 3.13841248
v 0.037346039 -1.96999204 3.14322472
v 0.068542935 -2.29276109 3.14944792
v 0.12497963 -2.12280846 3.14984989
v -1.1303767 -2.42431331 3.74753809
v -0.83102721 -2.42431188 3.5453012
v -0.514751256 -2.33708191 3.93950367
v -0.882689476 -2.33709335 4.18811083
v -0.198475108 -2.38180161 4.33370733
v -0.635001957 -2.38182402 4.62868357
v -0.205773771 -2.49983883 4.79102659
v -0.283245087 -2.53527451 4.90352535
v -0.357184827 -2.62175345 5.12581205
v -0.0747456327 -2.53527379 4.76266479
v 0.159531787 -2.62204885 4.77759647
v -0.357184827 -2.62175345 5.12581205
v -0.405838311 -2.74416304 5.05346346
v -0.646717668 -2.50807786 4.614151
v -0.635001957 -2.38182402 4.62868357
v -0.882689476 -2.33709335 4.18811083
v -0.881319582 -2.44182491 4.1915431
v -1.11592114 -2.50752187 3.76893449
v -1.1303767 -2.42431331 3.74753809
v 0.159531787 -2.62204885 4.77759647
v 0.110620499 -2.74452591 4.70550632
v -0.114166409 -2.66081572 4.70431376
v -0.0747456327 -2.53527379 4.76266479
v -0.241283104 -2.62560797 4.73846483
v -0.205773771 -2.49983883 4.79102659
v -0.322666019 -2.66081667 4.84517431
v -0.283245087 -2.53527451 4.90352535
v -0.405838311 -2.74416304 5.05346346
v -0.357184827 -2.62175345 5.12581205
v -0.514751256 -2.33708191 3.93950367
v -0.83102721 -2.42431188 3.5453012
v -0.816571534 -2.50752068 3.56669712
v -0.512079597 -2.44181085 3.94205308
v -0.207587048 -2.5080514 4.31740952
v -0.198475108 -2.38180161 4.33370733
v 0.110620499 -2.74452591 4.70550632
v 0.159531787 -2.62204885 4.77759647
v -1.41484988 -2.4243145 3.47818255
v -1.14756882 -2.42431355 3.72122693
v -1.45581484 -2.3370862 4.12174082
v -1.7843678 -2.33709717 3.82301545
v -1.76406062 -2.381809 4.52225494
v -2.15388584 -2.38182998 4.16784859
v -2.21013856 -2.49984765 4.62329054
v -2.33776498 -2.5352838 4.574615
v -2.57123137 -2.62176299 4.55532837
v -2.15160155 -2.53528285 4.74389744
v -2.11071754 -2.62205887 4.97506285
v -2.57123137 -2.62176299 4.55532837
v -2.51243782 -2.74417233 4.49094772
v -2.14253569 -2.5080843 4.15302801
v -2.15388584 -2.38182998 4.16784859
v -1.7843678 -2.33709717 3.82301545
v -1.78737855 -2.44182849 3.82515717
v -1.43222129 -2.50752354 3.49728608
v -1.41484988 -2.4243145 3.47818255
v -2.11071754 -2.62205887 4.97506285
v -2.0522356 -2.74453521 4.91049194
v -2.10422492 -2.66082454 4.69179726
v -2.15160155 -2.53528285 4.74389744
v -2.16746306 -2.62561679 4.57636023
v -2.21013856 -2.49984765 4.62329054
v -2.29038882 -2.66082525 4.52251434
v -2.33776498 -2.5352838 4.574615
v -2.51243782 -2.74417233 4.49094772
v -2.57123137 -2.62176299 4.55532837
v -1.45581484 -2.3370862 4.12174082
v -1.14756882 -2.42431355 3.72122693
v -1.16494048 -2.50752258 3.74033165
v -1.4576602 -2.44181538 4.12493896
v -1.75037956 -2.50805879 4.50954676
v -1.76406062 -2.381809 4.52225494
v -2.0522356 -2.74453521 4.91049194
v -2.11071754 -2.62205887 4.97506285
v -1.00041437 -2.53239202 3.64114285
v -1.00041413 -2.59502006 3.64114285
v -0.970601737 -2.60866094 4.69143438
v -0.978083253 -2.52246952 4.71032476
v -1.5004338 -2.52247214 4.6706233
v -1.32505715 -2.53239346 3.61650181
v -1.32505691 -2.59502172 3.61650181
v -1.50918317 -2.60866332 4.6505475
v -0.975682795 -2.60983515 4.7942481
v -1.51536238 -2.6098361 4.75327921
v -0.968753994 -3.80770707 4.71565437
v -0.964036822 -3.80154991 4.65350914
v -0.951052666 -4.85863781 4.51472378
v -0.954347372 -4.92356968 4.56115437
v -1.51764655 -3.80771017 4.67399311
v -1.51292968 -3.8015523 4.61184692
v -1.50324035 -4.92357254 4.51949263
v -1.49994552 -4.85864019 4.47306156
v -0.976047635 -2.53239202 3.32011557
v -0.790909946 -2.62840319 2.30082631
v -0.976047397 -2.59502006 3.32011557
v -0.800073624 -2.53245592 2.2921195
v -1.32220972 -2.54111814 2.2513721
v -1.30069029 -2.53239346 3.29547381
v -1.32949281 -2.62840581 2.25995469
v -1.30068994 -2.59502172 3.29547381
v -1.32455778 -2.62872744 2.16662908
v -0.784875691 -2.62872434 2.20758581
v -0.782568038 -3.80770659 2.2626915
v -0.78728497 -3.80154872 2.32483721
v -0.799932897 -4.85863733 2.46421385
v -0.796181798 -4.92356873 2.41781783
v -1.33146083 -3.80770898 2.22102904
v -1.33617783 -3.8015511 2.28317428
v -1.34507453 -4.92357206 2.37615514
v -1.34882569 -4.85863972 2.42255187
v -0.977712631 -2.53239226 3.31817532
v -0.977712631 -2.59502006 3.31817532
v 0.0601630397 -2.61731625 3.28790879
v 0.0552365854 -2.53516769 3.29449081
v 0.0155252069 -2.53517032 3.81692433
v -1.00235367 -2.53239346 3.64281821
v -1.00235367 -2.59502172 3.64281821
v 0.0192755125 -2.61731839 3.8264904
v 0.138789132 -2.62211013 3.29210377
v 0.097819902 -2.62211084 3.83178091
v 0.096799694 -3.80770779 3.28651595
v 0.0346537009 -3.80154991 3.2817986
v -0.113736339 -4.85863781 3.26846313
v -0.0673055276 -4.92356968 3.27175784
v 0.0551371761 -3.80770946 3.83540893
v -0.00700866664 -3.8015523 3.83069205
v -0.108967513 -4.92357206 3.82065058
v -0.155398861 -4.85864019 3.81735587
v -1.29874015 -2.53239202 3.29380894
v -2.32394767 -2.60017157 3.10845447
v -1.29874015 -2.59502006 3.29380894
v -2.32292223 -2.53328609 3.11804008
v -2.36255217 -2.53328824 3.6401248
v -1.32338119 -2.53239346 3.61845183
v -2.36481953 -2.60017347 3.64703822
v -1.32338119 -2.59502172 3.61845183
v -2.44773817 -2.62013054 3.64248133
v -2.40678191 -2.62012744 3.10280418
v -2.35616446 -3.80770659 3.10032988
v -2.29401827 -3.80154872 3.10504699
v -2.14808655 -4.85863733 3.11793518
v -2.19448304 -4.92356873 3.1141839
v -2.39782643 -3.80770898 3.64922237
v -2.33568072 -3.8015511 3.65393949
v -2.23614573 -4.92357159 3.66307712
v -2.189749 -4.85863972 3.66682792
v -2.16036749 -4.88787127 2.43847752
v -2.15739346 -4.88787174 4.50105476
v -0.14076072 -4.88806963 4.47570181
v -0.143670112 -4.88806963 2.45801592
v -0.988230944 -4.95500565 3.48062921
v -0.951052666 -4.85863781 4.51472378
v -0.988230705 -4.89237738 3.48062921
v -0.95674777 -4.95375729 4.47723103
v -0.954347372 -4.92356968 4.56115437
v -1.48831177 -4.95375872 4.43683672
v -1.31287384 -4.95500469 3.45598769
v -1.50324035 -4.92357254 4.51949263
v -1.31287348 -4.89237642 3.45598769
v -1.49994552 -4.85864019 4.47306156
v -0.988230944 -4.95500565 3.48062921
v -0.988230705 -4.89237738 3.48062921
v -0.799932897 -4.85863733 2.46421385
v -0.811379671 -4.96265936 2.50235152
v -0.796181798 -4.92356873 2.41781783
v -1.34507453 -4.92357206 2.37615514
v -1.34272659 -4.95400286 2.46089816
v -1.31287384 -4.95500469 3.45598769
v -1.34882569 -4.85863972 2.42255187
v -1.31287348 -4.89237642 3.45598769
v -1.13822639 -4.95500565 3.30599213
v -0.113736339 -4.85863781 3.26846313
v -1.13822639 -4.89237738 3.30599213
v -0.150858074 -4.95333385 3.27414489
v -0.0673055276 -4.92356968 3.27175784
v -0.191262349 -4.95333433 3.805794
v -1.16286743 -4.95500469 3.63063502
v -0.108967513 -4.92357206 3.82065058
v -1.16286743 -4.89237642 3.63063502
v -0.155398861 -4.85864019 3.81735587
v -1.13822639 -4.95500565 3.30599213
v -1.13822639 -4.89237738 3.30599213
v -2.14808655 -4.85863733 3.11793518
v -2.11062312 -4.95323277 3.12941957
v -2.19448304 -4.92356873 3.1141839
v -2.23614573 -4.92357159 3.66307712
v -2.15095973 -4.95323563 3.66072035
v -1.16286743 -4.95500469 3.63063502
v -2.189749 -4.85863972 3.66682792
v -1.16286743 -4.89237642 3.63063502
vt 0.995117188 0.451416016
vt 0.940429688 0.451416016
vt 0.940429688 0.465576172
vt 0.995117188 0.465576172
vt 0.940429688 0.486816406
vt 0.995117188 0.486816406
vt 0.93359375 0.451904297
vt 0.87890625 0.451904297
vt 0.87890625 0.465820312
vt 0.93359375 0.465820312
vt 0.87890625 0.486572266
vt 0.93359375 0.486572266
vt 0.262451172 0.670898438
vt 0.179443359 0.670898438
vt 0.179443359 0.696777344
vt 0.262451172 0.696777344
vt 0.179443359 0.735351562
vt 0.262451172 0.735351562
vt 0.349121094 0.696777344
vt 0.266601562 0.735351562
vt 0.349121094 0.735351562
vt 0.266601562 0.696777344
vt 0.349121094 0.670898438
vt 0.266601562 0.670898438
vt 0.10369873 0.835449219
vt 0.10369873 0.741699219
vt 0.00974273682 0.741699219
vt 0.00974273682 0.835449219
vt 0.89453125 0.594238281
vt 0.89453125 0.545898438
vt 0.877929688 0.545898438
vt 0.877929688 0.594238281
vt 0.295654297 0.665039062
vt 0.387207031 0.665039062
vt 0.387207031 0.632324219
vt 0.295654297 0.632324219
vt 0.895019531 0.540039062
vt 0.895019531 0.491210938
vt 0.87890625 0.491210938
vt 0.87890625 0.540039062
vt 0.292480469 0.632324219
vt 0.201049805 0.632324219
vt 0.201049805 0.665039062
vt 0.292480469 0.665039062
vt 0.325927734 0.791992188
vt 0.316894531 0.808105469
vt 0.325927734 0.808105469
vt 0.316894531 0.791992188
vt 0.309326172 0.791992188
vt 0.325927734 0.775878906
vt 0.316894531 0.775878906
vt 0.309326172 0.808105469
vt 0.309326172 0.775878906
vt 0.302001953 0.808105469
vt 0.302001953 0.775878906
vt 0.302001953 0.791992188
vt 0.292236328 0.808105469
vt 0.292236328 0.775878906
vt 0.292236328 0.791992188
vt 0.262695312 0.808105469
vt 0.262695312 0.775878906
vt 0.0927734375 0.839355469
vt 0.108642578 0.870605469
vt 0.102661133 0.841308594
vt 0.0892333984 0.868652344
vt 0.0921020508 0.877929688
vt 0.105651855 0.880371094
vt 0.0983886719 0.882324219
vt 0.00788879395 0.850585938
vt 0.0116348267 0.839355469
vt 0.00788879395 0.839355469
vt 0.0116348267 0.845703125
vt 0.0229187012 0.845703125
vt 0.0229187012 0.839355469
vt 0.0342102051 0.839355469
vt 0.0116348267 0.853515625
vt 0.00788879395 0.871582031
vt 0.0116348267 0.868652344
vt 0.0229187012 0.853515625
vt 0.0116348267 0.875976562
vt 0.00788879395 0.882324219
vt 0.0116348267 0.882324219
vt 0.0229187012 0.882324219
vt 0.0229187012 0.868652344
vt 0.0229187012 0.875976562
vt 0.0342102051 0.875976562
vt 0.0342102051 0.882324219
vt 0.0379333496 0.882324219
vt 0.0379333496 0.87109375
vt 0.0342102051 0.868652344
vt 0.0342102051 0.853515625
vt 0.0379333496 0.850097656
vt 0.0342102051 0.845703125
vt 0.0379333496 0.839355469
vt 0.0437011719 0.875488281
vt 0.0714111328 0.861816406
vt 0.0419616699 0.865234375
vt 0.0729370117 0.881347656
vt 0.0828857422 0.878417969
vt 0.0806274414 0.864746094
vt 0.0848388672 0.87109375
vt 0.326416016 0.756347656
vt 0.326416016 0.739746094
vt 0.317382812 0.739746094
vt 0.317382812 0.756347656
vt 0.309814453 0.756347656
vt 0.326416016 0.771972656
vt 0.317382812 0.771972656
vt 0.309814453 0.739746094
vt 0.309814453 0.771972656
vt 0.302246094 0.739746094
vt 0.302246094 0.771972656
vt 0.302246094 0.756347656
vt 0.292724609 0.739746094
vt 0.292724609 0.771972656
vt 0.292724609 0.756347656
vt 0.263183594 0.739746094
vt 0.263183594 0.771972656
vt 0.0852661133 0.84375
vt 0.0830078125 0.853515625
vt 0.0536193848 0.858398438
vt 0.0559997559 0.838867188
vt 0.0466308594 0.841308594
vt 0.0438232422 0.854980469
vt 0.0422058105 0.84765625
vt 0.114685059 0.874023438
vt 0.112731934 0.864257812
vt 0.142089844 0.859863281
vt 0.144165039 0.879394531
vt 0.153930664 0.875976562
vt 0.151367188 0.862304688
vt 0.155761719 0.868652344
vt 0.200195312 0.891113281
vt 0.200195312 0.90625
vt 0.221801758 0.908203125
vt 0.221801758 0.889160156
vt 0.243164062 0.91015625
vt 0.243164062 0.887695312
vt 0.259765625 0.898925781
vt 0.262207031 0.893554688
vt 0.269287109 0.885253906
vt 0.262207031 0.904296875
vt 0.269287109 0.912109375
vt 0.197631836 0.913574219
vt 0.197631836 0.908691406
vt 0.172851562 0.908691406
vt 0.172851562 0.913574219
vt 0.151123047 0.913574219
vt 0.151123047 0.908691406
vt 0.130249023 0.908691406
vt 0.130249023 0.913574219
vt 0.161254883 0.861328125
vt 0.161254883 0.867675781
vt 0.171508789 0.867675781
vt 0.171508789 0.861328125
vt 0.177368164 0.867675781
vt 0.177368164 0.861328125
vt 0.183227539 0.867675781
vt 0.183227539 0.861328125
vt 0.193603516 0.867675781
vt 0.193603516 0.861328125
vt 0.176513672 0.887695312
vt 0.197387695 0.887695312
vt 0.197387695 0.883300781
vt 0.176513672 0.883300781
vt 0.154785156 0.883300781
vt 0.154785156 0.887695312
vt 0.130004883 0.883300781
vt 0.130004883 0.887695312
vt 0.269042969 0.881835938
vt 0.269042969 0.866699219
vt 0.247436523 0.864746094
vt 0.247558594 0.883789062
vt 0.226074219 0.86328125
vt 0.226074219 0.885742188
vt 0.209472656 0.874511719
vt 0.20703125 0.879882812
vt 0.200073242 0.887695312
vt 0.20690918 0.869140625
vt 0.199951172 0.860839844
vt 0.197265625 0.895996094
vt 0.197265625 0.891113281
vt 0.172363281 0.891113281
vt 0.172363281 0.895996094
vt 0.150634766 0.895996094
vt 0.150634766 0.891113281
vt 0.130004883 0.891113281
vt 0.130004883 0.895996094
vt 0.194091797 0.878417969
vt 0.194091797 0.872558594
vt 0.18371582 0.872558594
vt 0.18371582 0.878417969
vt 0.177856445 0.872558594
vt 0.177856445 0.878417969
vt 0.17199707 0.872558594
vt 0.17199707 0.878417969
vt 0.161743164 0.872558594
vt 0.161743164 0.878417969
vt 0.176635742 0.904785156
vt 0.197631836 0.904785156
vt 0.197631836 0.899902344
vt 0.176635742 0.899902344
vt 0.154907227 0.899902344
vt 0.154907227 0.904785156
vt 0.130249023 0.899902344
vt 0.130249023 0.904785156
vt 0.110595703 0.765136719
vt 0.110595703 0.768066406
vt 0.157226562 0.768066406
vt 0.153686523 0.765136719
vt 0.153686523 0.743164062
vt 0.110595703 0.743164062
vt 0.110595703 0.740234375
vt 0.157226562 0.740234375
vt 0.160766602 0.765136719
vt 0.160766602 0.743164062
vt 0.209716797 0.765136719
vt 0.209716797 0.768066406
vt 0.2578125 0.768066406
vt 0.2578125 0.765136719
vt 0.209716797 0.743164062
vt 0.209716797 0.740234375
vt 0.2578125 0.743164062
vt 0.2578125 0.740234375
vt 0.110595703 0.832519531
vt 0.156860352 0.829589844
vt 0.110595703 0.829589844
vt 0.153686523 0.832519531
vt 0.153686523 0.854492188
vt 0.110595703 0.854492188
vt 0.156860352 0.856933594
vt 0.110595703 0.856933594
vt 0.160766602 0.854492188
vt 0.160766602 0.832519531
vt 0.209472656 0.832519531
vt 0.209472656 0.829589844
vt 0.257568359 0.829589844
vt 0.257568359 0.832519531
vt 0.209472656 0.854492188
vt 0.209472656 0.856933594
vt 0.257568359 0.854492188
vt 0.257568359 0.856933594
vt 0.110595703 0.824707031
vt 0.110595703 0.827148438
vt 0.156860352 0.827148438
vt 0.153686523 0.824707031
vt 0.153686523 0.802734375
vt 0.110595703 0.802734375
vt 0.110595703 0.799804688
vt 0.156860352 0.799804688
vt 0.160766602 0.824707031
vt 0.160766602 0.802734375
vt 0.209472656 0.824707031
vt 0.209472656 0.827148438
vt 0.257568359 0.827148438
vt 0.257568359 0.824707031
vt 0.209472656 0.802734375
vt 0.209472656 0.799804688
vt 0.257568359 0.802734375
vt 0.257568359 0.799804688
vt 0.110595703 0.772949219
vt 0.156860352 0.770019531
vt 0.110595703 0.770019531
vt 0.153686523 0.772949219
vt 0.153686523 0.794921875
vt 0.110595703 0.794921875
vt 0.156860352 0.797363281
vt 0.110595703 0.797363281
vt 0.160766602 0.794921875
vt 0.160766602 0.772949219
vt 0.209472656 0.772949219
vt 0.209472656 0.770019531
vt 0.257568359 0.770019531
vt 0.257568359 0.772949219
vt 0.209472656 0.794921875
vt 0.209472656 0.797363281
vt 0.257568359 0.794921875
vt 0.257568359 0.797363281
vt 0.10369873 0.835449219
vt 0.00974273682 0.835449219
vt 0.00974273682 0.741699219
vt 0.10369873 0.741699219
vt 0.110595703 0.765136719
vt 0.157226562 0.768066406
vt 0.110595703 0.768066406
vt 0.153686523 0.765136719
vt 0.160766602 0.765136719
vt 0.153686523 0.743164062
vt 0.110595703 0.743164062
vt 0.160766602 0.743164062
vt 0.110595703 0.740234375
vt 0.157226562 0.740234375
vt 0.110595703 0.832519531
vt 0.110595703 0.829589844
vt 0.156860352 0.829589844
vt 0.153686523 0.832519531
vt 0.160766602 0.832519531
vt 0.160766602 0.854492188
vt 0.153686523 0.854492188
vt 0.110595703 0.854492188
vt 0.156860352 0.856933594
vt 0.110595703 0.856933594
vt 0.110595703 0.824707031
vt 0.156860352 0.827148438
vt 0.110595703 0.827148438
vt 0.153686523 0.824707031
vt 0.160766602 0.824707031
vt 0.153686523 0.802734375
vt 0.110595703 0.802734375
vt 0.160766602 0.802734375
vt 0.110595703 0.799804688
vt 0.156860352 0.799804688
vt 0.110595703 0.772949219
vt 0.110595703 0.770019531
vt 0.156860352 0.770019531
vt 0.153686523 0.772949219
vt 0.160766602 0.772949219
vt 0.160766602 0.794921875
vt 0.153686523 0.794921875
vt 0.110595703 0.794921875
vt 0.156860352 0.797363281
vt 0.110595703 0.797363281
vn 0.00386239216 -0.118908294 -0.992897749
vn 0.00386239216 -0.118908294 -0.992897749
vn 0.000490114791 -0.0682921857 -0.997665286
vn 0.000489634811 -0.068284981 -0.997665763
vn -0.00141962979 -0.0395578034 -0.999216318
vn -0.00141962979 -0.0395578034 -0.999216318
vn 0.990683913 -0.136173502 -0.00142842974
vn 0.990683913 -0.136173502 -0.00142842974
vn 0.997209847 -0.0746350512 -0.00143785297
vn 0.997209847 -0.0746350512 -0.00143785297
vn 0.999216199 -0.0395581797 -0.00144075381
vn 0.999216199 -0.0395581797 -0.00144075381
vn -0.990679562 -0.13620542 0.00142844138
vn -0.990679562 -0.13620542 0.00142844126
vn -0.997152805 -0.0753938779 0.0014377404
vn -0.997152805 -0.0753938779 0.0014377404
vn -0.999215961 -0.0395660922 0.00144069502
vn -0.999215961 -0.0395660922 0.00144069514
vn 0.00336656673 -0.0682923794 0.997659683
vn 0.00146136514 -0.0395587832 0.999216199
vn 0.00146136526 -0.0395587832 0.999216199
vn 0.00336608873 -0.0682851747 0.99766016
vn 0.00672497042 -0.118907079 0.992882609
vn 0.00672497088 -0.118907072 0.992882609
vn -4.20503693E-06 1 0
vn -4.20503693E-06 1 0
vn -4.20503693E-06 1 0
vn -4.20503738E-06 1 0
vn -0.00144001818 -0.0466362014 -0.998910904
vn -0.00144001807 -0.0466362014 -0.998910904
vn -0.00144001795 -0.0466362052 -0.998910904
vn -0.00144001818 -0.0466362052 -0.998910904
vn 0.0014406573 -0.0466350913 0.998910904
vn 0.0014406573 -0.0466351025 0.998910904
vn 0.0014406573 -0.0466351025 0.998910904
vn 0.0014406573 -0.0466351025 0.998910904
vn 0.998911023 -0.0466323271 -0.00144042308
vn 0.998911023 -0.0466323346 -0.00144042319
vn 0.998911023 -0.0466323346 -0.00144042354
vn 0.998911023 -0.0466323346 -0.00144042354
vn -0.998910666 -0.0466396809 0.00144039246
vn -0.998910666 -0.0466396846 0.00144039246
vn -0.998910666 -0.0466396883 0.00144039246
vn -0.998910666 -0.0466396771 0.00144039246
vn -0.570578516 -0.820104063 -0.0432383306
vn -0.796574116 -0.599112153 -0.0808359906
vn -0.571120799 -0.820034206 -0.0369470231
vn -0.782106519 -0.620302081 -0.05945272
vn -0.992533922 0.0959629491 -0.0752819926
vn -0.569924533 -0.820143938 -0.0504955649
vn -0.800969601 -0.597528815 -0.0375098474
vn -0.9859218 0.105334029 -0.129857987
vn -0.99430424 0.10576573 -0.0131389555
vn -0.489949137 0.868788481 -0.0718081668
vn -0.497023344 0.867735744 0.0015715959
vn -0.468113095 0.882956445 -0.035467878
vn 0.240031213 0.970765173 -8.36455874E-05
vn 0.237466335 0.970626771 0.0386438482
vn 0.248202249 0.968517244 0.0192350987
vn 0.439044803 0.898061156 0.0269430242
vn 0.437294811 0.89841944 0.0401954427
vn 0.141587719 -0.0389759652 0.989158154
vn 0.0973671675 -0.0348114967 0.994639575
vn 0.141587749 -0.038975969 0.989158154
vn 0.106301598 -0.0356570333 0.993694365
vn -0.017702993 -0.0235790648 0.999565184
vn -0.0178890694 -0.0235283487 0.999563038
vn -0.0506770015 -0.014575446 0.998608768
vn -0.864036739 0.460529208 0.203355432
vn -0.275721639 0.0184186362 0.96106106
vn -0.911246955 0.0564941354 0.407967359
vn -0.175129697 0.35086289 0.919904768
vn -0.0690087304 0.405920446 0.911299229
vn -0.0756814256 -0.00487520779 0.997120142
vn 0.126196906 0.0183019247 0.991836369
vn -0.215987235 0.946649432 0.239174187
vn -0.838046134 0.462588131 -0.289293915
vn -0.177879825 0.945454359 -0.272900879
vn -0.0193789452 0.966748059 0.254995704
vn -0.0339320265 0.358934104 -0.932745874
vn -0.868510365 0.0697422624 -0.490739942
vn -0.124306738 0.022665333 -0.991984904
vn 0.0756822154 -0.00413713604 -0.99712342
vn 0.0198028572 0.965199947 -0.260761797
vn 0.0690687373 0.404385626 -0.911976814
vn 0.175060987 0.358776897 -0.916860282
vn 0.273877889 0.0228139088 -0.96149385
vn 0.932627678 0.0697508082 -0.354034483
vn 0.872103035 0.462599337 -0.159493282
vn 0.217380032 0.945620716 -0.241965875
vn 0.176904052 0.946492851 0.26991877
vn 0.823440731 0.460537732 0.331436872
vn 0.0335283689 0.35109362 0.935739934
vn 0.839230001 0.0565019771 0.540833294
vn 0.288967997 -0.0248840414 -0.957015336
vn 0.256715804 -0.025291916 -0.966155887
vn 0.288967967 -0.0248840433 -0.957015336
vn 0.248523682 -0.0253904462 -0.968293011
vn 0.141495615 -0.0260960348 -0.989594936
vn 0.141725034 -0.0261622984 -0.989560246
vn 0.100888833 -0.0143812196 -0.994793713
vn 0.570575237 -0.820099056 0.0433765389
vn 0.570161045 -0.820029557 0.0496779606
vn 0.799654365 -0.599105299 0.0403196029
vn 0.782126069 -0.620294631 0.0592742413
vn 0.99252522 0.0959720984 0.0753858536
vn 0.571024835 -0.820138514 0.036103379
vn 0.797461092 -0.597520947 0.0838126391
vn 0.9942258 0.105344139 0.0204367489
vn 0.984895587 0.105774947 0.137084559
vn 0.495165348 0.868793726 0.00296233944
vn 0.491083652 0.867740691 0.0765702501
vn 0.468095452 0.882960916 0.0355911292
vn -0.237277612 0.970763028 -0.0363125689
vn -0.240588337 0.970624447 0.00235961541
vn -0.248271361 0.9685148 -0.0184477847
vn -0.438090771 0.898056626 -0.0396324061
vn -0.438361317 0.89841491 -0.0262673181
vn -0.289263099 -0.0389779247 0.956455708
vn -0.289263099 -0.038977921 0.956455708
vn -0.246375248 -0.0348128639 0.968549013
vn -0.255064845 -0.035658516 0.966266215
vn -0.133363321 -0.0235789176 0.990786612
vn -0.133179009 -0.0235282052 0.990812719
vn -0.100615568 -0.0145758381 0.994818628
vn -0.141212121 -0.0248856042 -0.989666462
vn -0.141212121 -0.0248856004 -0.989666462
vn -0.107949898 -0.0252931751 -0.993834496
vn -0.0995290652 -0.025391629 -0.994710684
vn 0.00948802289 -0.0260962192 -0.999614358
vn 0.0092559522 -0.0261624921 -0.999614835
vn 0.0504237637 -0.0143808657 -0.998624325
vn -0.0955351591 0.985336006 -0.141371384
vn -0.0955351517 0.985336006 -0.141371384
vn -0.0130609358 0.99972862 -0.0192875117
vn -0.013055657 0.999728858 -0.0192797072
vn 0.0903826654 0.988678992 0.119769789
vn 0.0773100108 0.988680124 0.128587708
vn 0.185733169 0.943471372 0.274526507
vn 0.101670228 0.918306947 0.382590711
vn 0.0962071121 0.916403949 0.38852033
vn 0.317721546 0.918127716 0.236842841
vn 0.324504107 0.916413188 0.23427318
vn -0.866277635 0.0362268537 0.498247653
vn -0.866277516 0.03622685 0.498247623
vn -0.868519008 0.0283544641 0.494844198
vn -0.868949473 0.0268140547 0.494173795
vn -0.872197509 0.00455184281 0.489132792
vn -0.872195244 0.00475006364 0.489134908
vn -0.872273207 -0.00885666627 0.48893863
vn -0.872273207 -0.00885666721 0.48893863
vn -0.182251215 -0.406056345 0.895490289
vn -0.1822512 -0.406056315 0.89549017
vn -0.0883006528 -0.416727543 0.904732585
vn -0.0806275979 -0.417429835 0.905125082
vn 0.493914187 -0.470092863 0.731479049
vn 0.494243413 -0.470092833 0.731256604
vn 0.870126426 -0.418224454 0.260707349
vn 0.867530167 -0.418944299 0.26809901
vn 0.897983968 -0.407059789 0.167114034
vn 0.897983968 -0.407059789 0.167114034
vn 0.779316306 0.00456042215 -0.626614213
vn 0.779163778 -0.00884760357 -0.626757979
vn 0.779163778 -0.00884760357 -0.62675792
vn 0.779317439 0.00475789886 -0.626611352
vn 0.783247173 0.0283814147 -0.621062279
vn 0.782786071 0.0268408917 -0.621711791
vn 0.785567045 0.0362527408 -0.61771363
vn 0.785567045 0.0362527408 -0.617713571
vn 0.114772685 0.985336959 -0.126247436
vn 0.114772663 0.985336959 -0.126247421
vn 0.0156502258 0.999728739 -0.017245492
vn 0.0156439561 0.999728978 -0.0172385965
vn -0.0950059071 0.988678157 0.116143554
vn -0.106664583 0.988679349 0.105526537
vn -0.222829983 0.943469703 0.245380759
vn -0.347705066 0.918305397 0.189251736
vn -0.354757667 0.916402996 0.18534492
vn -0.155008316 0.918126106 0.364714831
vn -0.150908336 0.916411757 0.370696843
vn -0.688944161 0.0362307988 -0.723908365
vn -0.688944161 0.0362307988 -0.723908365
vn -0.686166525 0.0283591356 -0.726891458
vn -0.685616851 0.0268188901 -0.727468431
vn -0.681485236 0.00455836207 -0.731817663
vn -0.681486785 0.00475655543 -0.731814921
vn -0.681313753 -0.00884945132 -0.731938004
vn -0.681313753 -0.00884945225 -0.731938004
vn -0.913189471 -0.406060457 0.034640234
vn -0.913189411 -0.406060457 0.034640234
vn -0.899956822 -0.416730821 0.128113866
vn -0.898524046 -0.417432994 0.135662049
vn -0.593957841 -0.470095634 0.652858496
vn -0.593664587 -0.470095634 0.653125167
vn -0.047580827 -0.418229371 0.907094419
vn -0.0553766415 -0.418949276 0.906319439
vn 0.0499472134 -0.407064676 0.912032723
vn 0.0499472059 -0.407064646 0.912032723
vn 0.793108761 0.00455698324 0.609063029
vn 0.793211997 -0.00885015447 0.608881235
vn 0.793211997 -0.00885015447 0.608881235
vn 0.793106198 0.00475447252 0.609064877
vn 0.788643658 0.0283768605 0.614195287
vn 0.789165676 0.0268364176 0.613593757
vn 0.785938382 0.0362479612 0.617241323
vn 0.785938382 0.0362479649 0.617241383
vn 0.162379608 0.986642003 -0.0130534982
vn 0.998279214 0.0532924645 -0.0244661998
vn 0.999408841 0.0275289025 0.0205921587
vn 0.139422208 0.9861812 0.0894884616
vn -0.150624201 0.986272216 0.0676718131
vn -0.158628091 0.986665249 -0.0364537388
vn -0.982323468 0.0805464238 -0.168975875
vn -0.99265033 0.0424559377 -0.113325857
vn 0.0636083558 -0.000307386101 0.997974932
vn -0.212536246 3.18830462E-05 0.977153182
vn 0.049317684 -0.0998464078 0.993779838
vn 0.997846127 0.00261605857 0.0655466393
vn 0.999379873 -0.00974278245 0.0338361822
vn -0.0213141106 -0.198990047 0.979769707
vn -0.198926121 -0.0996638164 0.974933684
vn -0.997587204 0.00257438258 -0.0693771169
vn -0.126651078 -0.199100569 0.971760511
vn -0.993320882 -0.0140976338 -0.114519782
vn 0.15987289 0.986824691 0.0248537455
vn 0.992466509 0.035796497 0.117169984
vn 0.982818663 0.0662543625 0.17227231
vn 0.166397393 0.982671678 -0.0816593394
vn -0.161215484 0.980814815 -0.109598361
vn -0.171586439 0.985168457 -0.00110582763
vn -0.999386907 0.0264286324 -0.022963535
vn -0.998489261 0.0498309843 0.0231522899
vn -0.0561878607 0.0196549445 -0.998226702
vn 0.205196902 0.0198993087 -0.978518367
vn 0.193751693 -0.0906350017 -0.97685492
vn 0.99734205 0.00230899407 0.0728252083
vn 0.992838442 -0.0117915822 0.118882015
vn 0.126645669 -0.20004791 -0.971566617
vn -0.0439893231 -0.0906830281 -0.994907796
vn -0.997623861 0.00277000736 -0.06883993
vn 0.0209476221 -0.19980596 -0.979611576
vn -0.9992612 -0.0114152683 -0.0366980061
vn -0.00139117369 0.987473726 -0.157777578
vn -0.0254791155 0.0445366986 -0.998682797
vn 0.0228971466 0.0237669628 -0.999455273
vn 0.101525366 0.981591344 -0.161774591
vn 0.0761760175 0.981695175 0.174561903
vn -0.0245584249 0.987471044 0.15587762
vn -0.171745941 0.0605208725 0.98328054
vn -0.116494216 0.0328694955 0.99264729
vn 0.998410583 0.028032558 -0.0488916226
vn 0.979694188 0.0282080453 0.198503122
vn 0.995328307 -0.0891070738 -0.0371677205
vn 0.068393752 0.00268560601 -0.997654796
vn 0.0337787382 -0.00981428102 -0.999381185
vn 0.978200138 -0.206648588 0.0205158703
vn 0.978291035 -0.0890618563 0.187121913
vn -0.0724418238 0.00213556178 0.997370362
vn 0.970085502 -0.206755251 0.127225414
vn -0.114593044 -0.0137175592 0.993317842
vn 0.0237166714 0.989921331 -0.139618561
vn 0.116391152 0.0381855555 -0.992469132
vn 0.172890097 0.0713373274 -0.982354283
vn -0.0774297342 0.984937012 -0.154607981
vn -0.0999956802 0.984874308 0.141504213
vn 0.00255744066 0.989893377 0.141790837
vn -0.0246324018 0.0282938853 0.999296069
vn 0.0239613522 0.0528706126 0.998313785
vn -0.997534037 0.0228970964 0.0663448274
vn -0.976215243 0.0229504593 -0.215585545
vn -0.977555513 -0.0912665203 -0.189883471
vn 0.0738518462 0.0023180882 -0.997266531
vn 0.116999537 -0.0120634148 -0.993058681
vn -0.97028482 -0.20588246 -0.127120957
vn -0.995016396 -0.0913124382 0.0400543287
vn -0.0703607425 0.0025522795 0.997518301
vn -0.978361189 -0.20586507 -0.0207098015
vn -0.0369116142 -0.0114357593 0.999253094
vn -9.82111815E-05 -1 0
vn -9.82111887E-05 -1 0
vn -9.82111815E-05 -1 0
vn -9.82111887E-05 -1 0
vn 0.170976132 -0.985153973 0.015456046
vn 0.999379873 -0.00974278245 0.0338361822
vn 0.996692538 -0.027425494 0.0764971524
vn 0.21681577 -0.975699544 0.0316436701
vn -0.0213141106 -0.198990047 0.979769707
vn -0.218298614 -0.975881934 -0.00019297337
vn -0.175915062 -0.984347463 -0.0106827198
vn -0.126651078 -0.199100569 0.971760511
vn -0.9968099 -0.0314274207 -0.0733646527
vn -0.993320882 -0.0140976338 -0.114519782
vn 0.170976132 -0.985153973 0.015456046
vn 0.996692538 -0.027425494 0.0764971524
vn 0.992838442 -0.0117915822 0.118882015
vn 0.218493685 -0.975838363 0.000149784246
vn 0.126645669 -0.20004791 -0.971566617
vn 0.0209476221 -0.19980596 -0.979611576
vn -0.226299793 -0.973448217 -0.0344532691
vn -0.175915062 -0.984347463 -0.0106827198
vn -0.9992612 -0.0114152683 -0.0366980061
vn -0.9968099 -0.0314274207 -0.0733646527
vn 0.0125159984 -0.985349476 -0.170087382
vn 0.0337787382 -0.00981428102 -0.999381185
vn 0.0736362934 -0.0286223274 -0.996874332
vn 0.0317308567 -0.975857317 -0.216091558
vn 0.978200138 -0.206648588 0.0205158703
vn -0.000153544563 -0.976017654 0.217691258
vn -0.0126515441 -0.985337555 0.170146927
vn 0.970085502 -0.206755251 0.127225414
vn -0.0738146827 -0.0312958732 0.996780753
vn -0.114593044 -0.0137175592 0.993317842
vn 0.0125159984 -0.985349476 -0.170087382
vn 0.0736362934 -0.0286223274 -0.996874332
vn 0.116999537 -0.0120634148 -0.993058681
vn 0.0007536271 -0.97569418 -0.219135121
vn -0.97028482 -0.20588246 -0.127120957
vn -0.978361189 -0.20586507 -0.0207098015
vn -0.0318254493 -0.975649238 0.217015222
vn -0.0126515441 -0.985337555 0.170146927
vn -0.0369116142 -0.0114357593 0.999253094
vn -0.0738146827 -0.0312958732 0.996780753
g A_Build_wajuejilihedui_01_Yellow_0
f 3/3/3 2/2/2 1/1/1
f 4/4/4 3/3/3 1/1/1
f 5/5/5 3/3/3 4/4/4
f 6/6/6 5/5/5 4/4/4
f 9/9/9 8/8/8 7/7/7
f 10/10/10 9/9/9 7/7/7
f 11/11/11 9/9/9 10/10/10
f 12/12/12 11/11/11 10/10/10
f 15/15/15 14/14/14 13/13/13
f 16/16/16 15/15/15 13/13/13
f 17/17/17 15/15/15 16/16/16
f 18/18/18 17/17/17 16/16/16
f 21/21/21 20/20/20 19/19/19
f 20/20/20 22/22/22 19/19/19
f 19/19/19 22/22/22 23/23/23
f 22/22/22 24/24/24 23/23/23
f 27/27/27 26/26/26 25/25/25
f 28/28/28 27/27/27 25/25/25
f 31/31/31 30/30/30 29/29/29
f 32/32/32 31/31/31 29/29/29
f 35/35/35 34/34/34 33/33/33
f 36/36/36 35/35/35 33/33/33
f 39/39/39 38/38/38 37/37/37
f 40/40/40 39/39/39 37/37/37
f 43/43/43 42/42/42 41/41/41
f 44/44/44 43/43/43 41/41/41
f 47/47/47 46/46/46 45/45/45
f 46/46/46 48/48/48 45/45/45
f 49/49/49 48/48/48 46/46/46
f 45/45/45 48/48/48 50/50/50
f 48/48/48 51/51/51 50/50/50
f 48/48/48 49/49/49 51/51/51
f 52/52/52 49/49/49 46/46/46
f 49/49/49 53/53/53 51/51/51
f 49/49/49 52/52/52 54/54/54
f 53/53/53 49/49/49 55/55/55
f 56/56/56 49/49/49 54/54/54
f 49/49/49 56/56/56 55/55/55
f 56/56/56 54/54/54 57/57/57
f 55/55/55 56/56/56 58/58/58
f 59/59/59 56/56/56 57/57/57
f 56/56/56 59/59/59 58/58/58
f 59/59/59 57/57/57 60/60/60
f 58/58/58 59/59/59 61/61/61
f 59/59/59 60/60/60 61/61/61
f 64/64/64 63/63/63 62/62/62
f 63/63/63 65/65/65 62/62/62
f 65/65/65 63/63/63 66/66/66
f 63/63/63 67/67/67 66/66/66
f 67/67/67 68/68/68 66/66/66
f 71/71/71 70/70/70 69/69/69
f 70/70/70 72/72/72 69/69/69
f 73/73/73 72/72/72 70/70/70
f 74/74/74 73/73/73 70/70/70
f 73/73/73 74/74/74 75/75/75
f 69/69/69 72/72/72 76/76/76
f 72/72/72 73/73/73 76/76/76
f 69/69/69 76/76/76 77/77/77
f 76/76/76 78/78/78 77/77/77
f 73/73/73 79/79/79 76/76/76
f 76/76/76 79/79/79 78/78/78
f 77/77/77 78/78/78 80/80/80
f 77/77/77 80/80/80 81/81/81
f 80/80/80 82/82/82 81/81/81
f 83/83/83 82/82/82 80/80/80
f 80/80/80 78/78/78 84/84/84
f 79/79/79 84/84/84 78/78/78
f 85/85/85 83/83/83 80/80/80
f 85/85/85 80/80/80 84/84/84
f 83/83/83 85/85/85 86/86/86
f 86/86/86 85/85/85 84/84/84
f 87/87/87 83/83/83 86/86/86
f 87/87/87 86/86/86 88/88/88
f 86/86/86 89/89/89 88/88/88
f 90/90/90 86/86/86 84/84/84
f 90/90/90 84/84/84 79/79/79
f 90/90/90 89/89/89 86/86/86
f 91/91/91 90/90/90 79/79/79
f 89/89/89 90/90/90 91/91/91
f 79/79/79 73/73/73 91/91/91
f 92/92/92 89/89/89 91/91/91
f 73/73/73 93/93/93 91/91/91
f 93/93/93 92/92/92 91/91/91
f 93/93/93 73/73/73 75/75/75
f 93/93/93 75/75/75 92/92/92
f 75/75/75 94/94/94 92/92/92
f 97/97/97 96/96/96 95/95/95
f 96/96/96 98/98/98 95/95/95
f 98/98/98 96/96/96 99/99/99
f 96/96/96 100/100/100 99/99/99
f 100/100/100 101/101/101 99/99/99
f 104/104/104 103/103/103 102/102/102
f 105/105/105 104/104/104 102/102/102
f 104/104/104 105/105/105 106/106/106
f 105/105/105 102/102/102 107/107/107
f 108/108/108 105/105/105 107/107/107
f 106/106/106 105/105/105 108/108/108
f 109/109/109 104/104/104 106/106/106
f 110/110/110 106/106/106 108/108/108
f 109/109/109 106/106/106 111/111/111
f 110/110/110 112/112/112 106/106/106
f 106/106/106 113/113/113 111/111/111
f 112/112/112 113/113/113 106/106/106
f 111/111/111 113/113/113 114/114/114
f 112/112/112 115/115/115 113/113/113
f 113/113/113 116/116/116 114/114/114
f 115/115/115 116/116/116 113/113/113
f 114/114/114 116/116/116 117/117/117
f 116/116/116 115/115/115 118/118/118
f 117/117/117 116/116/116 118/118/118
f 121/121/121 120/120/120 119/119/119
f 122/122/122 121/121/121 119/119/119
f 121/121/121 122/122/122 123/123/123
f 124/124/124 121/121/121 123/123/123
f 125/125/125 124/124/124 123/123/123
f 128/128/128 127/127/127 126/126/126
f 129/129/129 128/128/128 126/126/126
f 128/128/128 129/129/129 130/130/130
f 131/131/131 128/128/128 130/130/130
f 132/132/132 131/131/131 130/130/130
f 135/135/135 134/134/134 133/133/133
f 136/136/136 135/135/135 133/133/133
f 137/137/137 135/135/135 136/136/136
f 138/138/138 137/137/137 136/136/136
f 137/137/137 138/138/138 139/139/139
f 139/139/139 138/138/138 140/140/140
f 140/140/140 138/138/138 141/141/141
f 142/142/142 137/137/137 139/139/139
f 143/143/143 137/137/137 142/142/142
f 146/146/146 145/145/145 144/144/144
f 147/147/147 146/146/146 144/144/144
f 146/146/146 147/147/147 148/148/148
f 149/149/149 146/146/146 148/148/148
f 150/150/150 149/149/149 148/148/148
f 151/151/151 150/150/150 148/148/148
f 154/154/154 153/153/153 152/152/152
f 155/155/155 154/154/154 152/152/152
f 156/156/156 154/154/154 155/155/155
f 157/157/157 156/156/156 155/155/155
f 158/158/158 156/156/156 157/157/157
f 159/159/159 158/158/158 157/157/157
f 160/160/160 158/158/158 159/159/159
f 161/161/161 160/160/160 159/159/159
f 164/164/164 163/163/163 162/162/162
f 165/165/165 164/164/164 162/162/162
f 166/166/166 165/165/165 162/162/162
f 167/167/167 166/166/166 162/162/162
f 168/168/168 166/166/166 167/167/167
f 169/169/169 168/168/168 167/167/167
f 172/172/172 171/171/171 170/170/170
f 173/173/173 172/172/172 170/170/170
f 174/174/174 172/172/172 173/173/173
f 175/175/175 174/174/174 173/173/173
f 174/174/174 175/175/175 176/176/176
f 176/176/176 175/175/175 177/177/177
f 177/177/177 175/175/175 178/178/178
f 179/179/179 174/174/174 176/176/176
f 180/180/180 174/174/174 179/179/179
f 183/183/183 182/182/182 181/181/181
f 184/184/184 183/183/183 181/181/181
f 183/183/183 184/184/184 185/185/185
f 186/186/186 183/183/183 185/185/185
f 187/187/187 186/186/186 185/185/185
f 188/188/188 187/187/187 185/185/185
f 191/191/191 190/190/190 189/189/189
f 192/192/192 191/191/191 189/189/189
f 193/193/193 191/191/191 192/192/192
f 194/194/194 193/193/193 192/192/192
f 195/195/195 193/193/193 194/194/194
f 196/196/196 195/195/195 194/194/194
f 197/197/197 195/195/195 196/196/196
f 198/198/198 197/197/197 196/196/196
f 201/201/201 200/200/200 199/199/199
f 202/202/202 201/201/201 199/199/199
f 203/203/203 202/202/202 199/199/199
f 204/204/204 203/203/203 199/199/199
f 205/205/205 203/203/203 204/204/204
f 206/206/206 205/205/205 204/204/204
f 209/209/209 208/208/208 207/207/207
f 210/210/210 209/209/209 207/207/207
f 211/211/211 210/210/210 207/207/207
f 212/212/212 211/211/211 207/207/207
f 212/212/212 213/213/213 211/211/211
f 213/213/213 214/214/214 211/211/211
f 215/215/215 209/209/209 210/210/210
f 210/210/210 211/211/211 215/215/215
f 214/214/214 216/216/216 211/211/211
f 211/211/211 216/216/216 215/215/215
f 215/215/215 217/217/217 209/209/209
f 217/217/217 215/215/215 216/216/216
f 217/217/217 218/218/218 209/209/209
f 218/218/218 217/217/217 219/219/219
f 217/217/217 220/220/220 219/219/219
f 221/221/221 216/216/216 214/214/214
f 221/221/221 217/217/217 216/216/216
f 217/217/217 221/221/221 220/220/220
f 222/222/222 221/221/221 214/214/214
f 221/221/221 223/223/223 220/220/220
f 222/222/222 224/224/224 221/221/221
f 224/224/224 223/223/223 221/221/221
f 227/227/227 226/226/226 225/225/225
f 226/226/226 228/228/228 225/225/225
f 228/228/228 229/229/229 225/225/225
f 229/229/229 230/230/230 225/225/225
f 230/230/230 229/229/229 231/231/231
f 232/232/232 230/230/230 231/231/231
f 229/229/229 228/228/228 233/233/233
f 231/231/231 229/229/229 233/233/233
f 228/228/228 226/226/226 234/234/234
f 228/228/228 234/234/234 233/233/233
f 235/235/235 234/234/234 226/226/226
f 233/233/233 234/234/234 235/235/235
f 236/236/236 235/235/235 226/226/226
f 236/236/236 237/237/237 235/235/235
f 237/237/237 238/238/238 235/235/235
f 231/231/231 233/233/233 239/239/239
f 239/239/239 233/233/233 235/235/235
f 239/239/239 235/235/235 238/238/238
f 240/240/240 231/231/231 239/239/239
f 241/241/241 239/239/239 238/238/238
f 240/240/240 239/239/239 242/242/242
f 239/239/239 241/241/241 242/242/242
f 245/245/245 244/244/244 243/243/243
f 246/246/246 245/245/245 243/243/243
f 247/247/247 246/246/246 243/243/243
f 248/248/248 247/247/247 243/243/243
f 248/248/248 249/249/249 247/247/247
f 249/249/249 250/250/250 247/247/247
f 251/251/251 245/245/245 246/246/246
f 246/246/246 247/247/247 251/251/251
f 250/250/250 252/252/252 247/247/247
f 247/247/247 252/252/252 251/251/251
f 251/251/251 253/253/253 245/245/245
f 253/253/253 251/251/251 252/252/252
f 253/253/253 254/254/254 245/245/245
f 254/254/254 253/253/253 255/255/255
f 253/253/253 256/256/256 255/255/255
f 257/257/257 252/252/252 250/250/250
f 257/257/257 253/253/253 252/252/252
f 253/253/253 257/257/257 256/256/256
f 258/258/258 257/257/257 250/250/250
f 257/257/257 259/259/259 256/256/256
f 258/258/258 260/260/260 257/257/257
f 260/260/260 259/259/259 257/257/257
f 263/263/263 262/262/262 261/261/261
f 262/262/262 264/264/264 261/261/261
f 264/264/264 265/265/265 261/261/261
f 265/265/265 266/266/266 261/261/261
f 266/266/266 265/265/265 267/267/267
f 268/268/268 266/266/266 267/267/267
f 265/265/265 264/264/264 269/269/269
f 267/267/267 265/265/265 269/269/269
f 264/264/264 262/262/262 270/270/270
f 264/264/264 270/270/270 269/269/269
f 271/271/271 270/270/270 262/262/262
f 269/269/269 270/270/270 271/271/271
f 272/272/272 271/271/271 262/262/262
f 272/272/272 273/273/273 271/271/271
f 273/273/273 274/274/274 271/271/271
f 267/267/267 269/269/269 275/275/275
f 275/275/275 269/269/269 271/271/271
f 275/275/275 271/271/271 274/274/274
f 276/276/276 267/267/267 275/275/275
f 277/277/277 275/275/275 274/274/274
f 276/276/276 275/275/275 278/278/278
f 275/275/275 277/277/277 278/278/278
f 281/281/281 280/280/280 279/279/279
f 282/282/282 281/281/281 279/279/279
f 285/285/285 284/284/284 283/283/283
f 284/284/284 286/286/286 283/283/283
f 284/284/284 287/287/287 286/286/286
f 286/286/286 288/288/288 283/283/283
f 288/288/288 286/286/286 287/287/287
f 288/288/288 289/289/289 283/283/283
f 290/290/290 288/288/288 287/287/287
f 289/289/289 288/288/288 291/291/291
f 290/290/290 292/292/292 288/288/288
f 288/288/288 292/292/292 291/291/291
f 295/295/295 294/294/294 293/293/293
f 296/296/296 295/295/295 293/293/293
f 295/295/295 296/296/296 297/297/297
f 297/297/297 296/296/296 298/298/298
f 299/299/299 296/296/296 293/293/293
f 296/296/296 299/299/299 298/298/298
f 300/300/300 299/299/299 293/293/293
f 299/299/299 301/301/301 298/298/298
f 301/301/301 299/299/299 300/300/300
f 302/302/302 301/301/301 300/300/300
f 305/305/305 304/304/304 303/303/303
f 304/304/304 306/306/306 303/303/303
f 304/304/304 307/307/307 306/306/306
f 306/306/306 308/308/308 303/303/303
f 308/308/308 306/306/306 307/307/307
f 308/308/308 309/309/309 303/303/303
f 310/310/310 308/308/308 307/307/307
f 309/309/309 308/308/308 311/311/311
f 310/310/310 312/312/312 308/308/308
f 308/308/308 312/312/312 311/311/311
f 315/315/315 314/314/314 313/313/313
f 316/316/316 315/315/315 313/313/313
f 315/315/315 316/316/316 317/317/317
f 317/317/317 316/316/316 318/318/318
f 319/319/319 316/316/316 313/313/313
f 316/316/316 319/319/319 318/318/318
f 320/320/320 319/319/319 313/313/313
f 319/319/319 321/321/321 318/318/318
f 321/321/321 319/319/319 320/320/320
f 322/322/322 321/321/321 320/320/320
