g A_build_th_jm_v_023
v -0.225421116 0.957546413 -0.694532573
v -0.233155534 -1.06405973 0.759599149
v -0.197171688 -1.01985157 0.580021441
v 0.221525237 0.563985527 -0.336081862
v 0.259675622 -0.874359429 0.622296035
v 0.230615765 -0.91145277 0.775093198
v -0.0504248291 0.779008448 -0.826063156
v -0.122938231 -0.970043659 0.440740824
v -0.0221087281 -0.917553186 0.336248577
v -0.0156467184 1.3512255 -0.939667463
v 0.00366140436 1.33215642 -0.943273723
v 0.00280215451 1.22409642 -0.757538557
v 0.00280215451 1.22409642 -0.757538557
v 0.00366140436 1.33215642 -0.943273723
v 0.0221808162 1.29322517 -0.917574227
v 0.0221808162 1.29322517 -0.917574227
v 0.00366140436 1.33215642 -0.943273723
v 0.0343320109 1.2160852 -0.926108003
v -0.0156467184 1.3512255 -0.939667463
v 0.00280215451 1.22409642 -0.757538557
v -0.0339072309 1.33803988 -0.940730929
v -0.188213319 0.934067965 -0.507758558
v -0.218370393 1.04397595 -0.678858578
v -0.184210464 1.1170274 -0.74394989
v -0.0254085269 1.28204513 -0.961806774
v -0.0225141291 1.32122183 -0.962058604
v -0.0539633706 1.31468356 -0.921797693
v -0.0225141291 1.32122183 -0.962058604
v -0.0339072309 1.33803988 -0.940730929
v -0.0539633706 1.31468356 -0.921797693
v -0.0254085269 1.28204513 -0.961806774
v -0.0143107539 1.00644529 -0.890785813
v 0.0343320109 1.2160852 -0.926108003
v -0.0156467184 1.3512255 -0.939667463
v -0.0339072309 1.33803988 -0.940730929
v -0.0225141291 1.32122183 -0.962058604
v -0.0156467184 1.3512255 -0.939667463
v -0.0225141291 1.32122183 -0.962058604
v 0.00124023436 1.33182585 -0.954887152
v 0.0343320109 1.2160852 -0.926108003
v 0.00124023436 1.33182585 -0.954887152
v -0.0254085269 1.28204513 -0.961806774
v 0.00124023436 1.33182585 -0.954887152
v -0.0225141291 1.32122183 -0.962058604
v -0.0254085269 1.28204513 -0.961806774
v -0.0836227983 1.14191115 -0.920218647
v -0.0254085269 1.28204513 -0.961806774
v -0.0539633706 1.31468356 -0.921797693
v 0.0615493432 0.98358202 -0.430349052
v 0.00280215451 1.22409642 -0.757538557
v 0.11117693 1.04692543 -0.681791544
v 0.0221808162 1.29322517 -0.917574227
v 0.11117693 1.04692543 -0.681791544
v 0.00280215451 1.22409642 -0.757538557
v 0.158508927 0.887242138 -0.539566278
v 0.198459208 0.704536259 -0.362949371
v 0.171839505 0.737210989 -0.328639179
v -0.0156467184 1.3512255 -0.939667463
v 0.00124023436 1.33182585 -0.954887152
v 0.00366140436 1.33215642 -0.943273723
v 0.0343320109 1.2160852 -0.926108003
v 0.00366140436 1.33215642 -0.943273723
v 0.00124023436 1.33182585 -0.954887152
v 0.024265185 0.753561556 -0.816360056
v 0.142626956 0.747804344 -0.748104632
v 0.082274437 1.01801944 -0.855101466
v -0.0504248291 0.779008448 -0.826063156
v 0.024265185 0.753561556 -0.816360056
v -0.0143107539 1.00644529 -0.890785813
v -0.218370393 1.04397595 -0.678858578
v -0.225421116 0.957546413 -0.694532573
v -0.184210464 1.1170274 -0.74394989
v 0.0693511888 -0.888141036 0.343120545
v 0.17185618 -0.856381118 0.357547939
v 0.142626956 0.747804344 -0.748104632
v 0.197374001 -0.85417372 0.392969429
v 0.246074125 -0.857669175 0.50362432
v 0.195362106 0.563527822 -0.549723387
v 0.0276397858 -1.02387595 1.02318192
v -0.0989648849 -1.06328678 1.0063895
v -0.0243171193 0.884829879 -0.348912865
v -0.156368747 -1.07651043 0.972829282
v -0.219692007 -1.07151163 0.826413512
v -0.188213319 0.934067965 -0.507758558
v 0.209861219 -0.931746125 0.8495996
v 0.102735586 -0.988014996 0.963415205
v 0.171839505 0.737210989 -0.328639179
v 0.024265185 0.753561556 -0.816360056
v 0.0693511888 -0.888141036 0.343120545
v 0.142626956 0.747804344 -0.748104632
v 0.012696512 -0.903517425 0.322985291
v -0.15413323 -0.984872341 0.465189248
v -0.153434426 0.941277981 -0.860915184
v -0.168442428 -0.99445653 0.491943032
v -0.120422103 0.841397643 -0.838712931
v 0.0276397858 -1.02387595 1.02318192
v 0.0615493432 0.98358202 -0.430349052
v 0.0589095801 -1.01108515 1.01025701
v -0.0243171193 0.884829879 -0.348912865
v 0.220968679 -0.92234081 0.817853272
v 0.221525237 0.563985527 -0.336081862
v 0.230615765 -0.91145277 0.775093198
v 0.198459208 0.704536259 -0.362949371
v 0.195362106 0.563527822 -0.549723387
v 0.17185618 -0.856381118 0.357547939
v 0.197374001 -0.85417372 0.392969429
v 0.142626956 0.747804344 -0.748104632
v 0.223405734 0.480153233 -0.399869174
v 0.246074125 -0.857669175 0.50362432
v 0.259170234 -0.861994863 0.552290857
v 0.195362106 0.563527822 -0.549723387
v 0.223405734 0.480153233 -0.399869174
v 0.259675622 -0.874359429 0.622296035
v 0.221525237 0.563985527 -0.336081862
v 0.259170234 -0.861994863 0.552290857
v -0.0504248291 0.779008448 -0.826063156
v 0.012696512 -0.903517425 0.322985291
v 0.024265185 0.753561556 -0.816360056
v -0.0221087281 -0.917553186 0.336248577
v -0.188213319 0.934067965 -0.507758558
v -0.133782536 -1.07261562 0.99333936
v -0.156368747 -1.07651043 0.972829282
v -0.122735143 0.886510432 -0.405925155
v -0.0539633706 1.31468356 -0.921797693
v -0.0339072309 1.33803988 -0.940730929
v 0.00280215451 1.22409642 -0.757538557
v -0.12895143 1.20880699 -0.833003044
v -0.184210464 1.1170274 -0.74394989
v -0.188213319 0.934067965 -0.507758558
v -0.122735143 0.886510432 -0.405925155
v -0.0243171193 0.884829879 -0.348912865
v 0.00280215451 1.22409642 -0.757538557
v 0.0615493432 0.98358202 -0.430349052
v -0.225421116 0.957546413 -0.694532573
v -0.222524792 0.895947039 -0.720117211
v -0.184210464 1.1170274 -0.74394989
v -0.188262925 0.912561536 -0.796468318
v -0.153434426 0.941277981 -0.860915184
v -0.12895143 1.20880699 -0.833003044
v -0.0143107539 1.00644529 -0.890785813
v 0.082274437 1.01801944 -0.855101466
v 0.0343320109 1.2160852 -0.926108003
v 0.024265185 0.753561556 -0.816360056
v -0.12895143 1.20880699 -0.833003044
v -0.153434426 0.941277981 -0.860915184
v -0.0836227983 1.14191115 -0.920218647
v -0.0539633706 1.31468356 -0.921797693
v -0.0143107539 1.00644529 -0.890785813
v -0.0254085269 1.28204513 -0.961806774
v -0.0836227983 1.14191115 -0.920218647
v -0.153434426 0.941277981 -0.860915184
v -0.120422103 0.841397643 -0.838712931
v -0.0504248291 0.779008448 -0.826063156
v 0.158508927 0.887242138 -0.539566278
v 0.142626956 0.747804344 -0.748104632
v 0.195362106 0.563527822 -0.549723387
v 0.11117693 1.04692543 -0.681791544
v 0.082274437 1.01801944 -0.855101466
v 0.0221808162 1.29322517 -0.917574227
v 0.0343320109 1.2160852 -0.926108003
v 0.158508927 0.887242138 -0.539566278
v 0.171839505 0.737210989 -0.328639179
v 0.119779512 0.845134616 -0.357910156
v 0.0615493432 0.98358202 -0.430349052
v 0.11117693 1.04692543 -0.681791544
v 0.195362106 0.563527822 -0.549723387
v 0.198459208 0.704536259 -0.362949371
v 0.158508927 0.887242138 -0.539566278
v 0.221525237 0.563985527 -0.336081862
v 0.223405734 0.480153233 -0.399869174
v -0.0504248291 0.779008448 -0.826063156
v -0.15413323 -0.984872341 0.465189248
v -0.122938231 -0.970043659 0.440740824
v -0.120422103 0.841397643 -0.838712931
v -0.196435288 -1.01422083 0.549949348
v -0.188262925 0.912561536 -0.796468318
v -0.222524792 0.895947039 -0.720117211
v -0.182571024 -1.00355637 0.516330123
v -0.219692007 -1.07151163 0.826413512
v -0.218370393 1.04397595 -0.678858578
v -0.188213319 0.934067965 -0.507758558
v -0.23081924 -1.06876612 0.790257096
v 0.119779512 0.845134616 -0.357910156
v 0.0589095801 -1.01108515 1.01025701
v 0.0615493432 0.98358202 -0.430349052
v 0.0809636638 -1.00046134 0.992188573
v -0.218370393 1.04397595 -0.678858578
v -0.233155534 -1.06405973 0.759599149
v -0.225421116 0.957546413 -0.694532573
v -0.23081924 -1.06876612 0.790257096
v -0.0989648849 -1.06328678 1.0063895
v -0.122735143 0.886510432 -0.405925155
v -0.0243171193 0.884829879 -0.348912865
v -0.133782536 -1.07261562 0.99333936
v 0.171839505 0.737210989 -0.328639179
v 0.0809636638 -1.00046134 0.992188573
v 0.119779512 0.845134616 -0.357910156
v 0.102735586 -0.988014996 0.963415205
v 0.171839505 0.737210989 -0.328639179
v 0.220968679 -0.92234081 0.817853272
v 0.209861219 -0.931746125 0.8495996
v 0.198459208 0.704536259 -0.362949371
v -0.188262925 0.912561536 -0.796468318
v -0.168442428 -0.99445653 0.491943032
v -0.153434426 0.941277981 -0.860915184
v -0.182571024 -1.00355637 0.516330123
v -0.222524792 0.895947039 -0.720117211
v -0.197171688 -1.01985157 0.580021441
v -0.196435288 -1.01422083 0.549949348
v -0.225421116 0.957546413 -0.694532573
v -0.122938231 -0.970043659 0.440740824
v 0.012696512 -0.903517425 0.322985291
v -0.0221087281 -0.917553186 0.336248577
v 0.197374001 -0.85417372 0.392969429
v 0.0693511888 -0.888141036 0.343120545
v 0.17185618 -0.856381118 0.357547939
v 0.102735586 -0.988014996 0.963415205
v 0.230615765 -0.91145277 0.775093198
v 0.259170234 -0.861994863 0.552290857
v 0.246074125 -0.857669175 0.50362432
v 0.259675622 -0.874359429 0.622296035
v 0.209861219 -0.931746125 0.8495996
v 0.220968679 -0.92234081 0.817853272
v -0.23081924 -1.06876612 0.790257096
v -0.182571024 -1.00355637 0.516330123
v -0.168442428 -0.99445653 0.491943032
v -0.15413323 -0.984872341 0.465189248
v -0.197171688 -1.01985157 0.580021441
v -0.196435288 -1.01422083 0.549949348
v -0.233155534 -1.06405973 0.759599149
v -0.0989648849 -1.06328678 1.0063895
v 0.0589095801 -1.01108515 1.01025701
v 0.0809636638 -1.00046134 0.992188573
v 0.0276397858 -1.02387595 1.02318192
v -0.156368747 -1.07651043 0.972829282
v -0.133782536 -1.07261562 0.99333936
v -0.219692007 -1.07151163 0.826413512
vt 0.443318188 0.335371554
vt 0.439457357 0.133640081
vt 0.429557234 0.14518474
vt 0.496790916 0.291458696
vt 0.500175655 0.151476517
vt 0.491465271 0.14196001
vt 0.53375572 0.328977466
vt 0.544763327 0.154186979
vt 0.535243452 0.162343249
vt 0.162174359 0.930550218
vt 0.164267272 0.929709554
vt 0.161477417 0.912466347
vt 0.161477417 0.912466347
vt 0.164267272 0.929709554
vt 0.165863946 0.925907314
vt 0.165863946 0.925907314
vt 0.164267272 0.929709554
vt 0.171415284 0.922893286
vt 0.162174359 0.930550218
vt 0.161477417 0.912466347
vt 0.160344839 0.930193245
vt 0.14117372 0.88455689
vt 0.140477315 0.901213169
vt 0.1446594 0.908364832
vt 0.155390099 0.931745112
vt 0.158733964 0.932095885
vt 0.158341527 0.928029299
vt 0.158733964 0.932095885
vt 0.160344839 0.930193245
vt 0.158341527 0.928029299
vt 0.169779375 0.930494666
vt 0.187315479 0.915074229
vt 0.171415284 0.922893286
vt 0.850820661 0.626367509
vt 0.850602686 0.628352344
vt 0.853175819 0.628778875
vt 0.850820661 0.626367509
vt 0.853175819 0.628778875
vt 0.853466809 0.626407087
vt 0.171415284 0.922893286
vt 0.164885208 0.930514693
vt 0.169779375 0.930494666
vt 0.164885208 0.930514693
vt 0.166721508 0.931851089
vt 0.169779375 0.930494666
vt 0.144081369 0.924970865
vt 0.155390099 0.931745112
vt 0.158341527 0.928029299
vt 0.162195891 0.87925601
vt 0.161477417 0.912466347
vt 0.172115356 0.898195982
vt 0.165863946 0.925907314
vt 0.172115356 0.898195982
vt 0.161477417 0.912466347
vt 0.176334828 0.881133616
vt 0.180432379 0.860770106
vt 0.176044747 0.860212505
vt 0.850820661 0.626367509
vt 0.853466809 0.626407087
vt 0.853059828 0.625438154
vt 0.171415284 0.922893286
vt 0.164267272 0.929709554
vt 0.164885208 0.930514693
vt 0.201163098 0.898458362
vt 0.1952032 0.888985217
vt 0.181700841 0.908848703
vt 0.20354344 0.904501975
vt 0.201163098 0.898458362
vt 0.187315479 0.915074229
vt 0.140477315 0.901213169
vt 0.133300632 0.900700629
vt 0.1446594 0.908364832
vt 0.527349353 0.163810149
vt 0.518709064 0.165096447
vt 0.517307997 0.322935283
vt 0.5155195 0.163556367
vt 0.507434845 0.158125252
vt 0.511310458 0.301409006
vt 0.47025615 0.123265184
vt 0.459607124 0.121660948
vt 0.470288545 0.313706815
vt 0.454128355 0.122490123
vt 0.44361496 0.129910812
vt 0.45480606 0.32477504
vt 0.487080038 0.137177765
vt 0.477023005 0.128302261
vt 0.487375796 0.302663207
vt 0.527731478 0.326695621
vt 0.527349353 0.163810149
vt 0.517307997 0.322935283
vt 0.532378316 0.163824469
vt 0.547511578 0.152136251
vt 0.543606818 0.341632485
vt 0.549324989 0.150303423
vt 0.539664745 0.333862126
vt 0.47025615 0.123265184
vt 0.477508694 0.323894203
vt 0.472833693 0.124660775
vt 0.470288545 0.313706815
vt 0.488993019 0.139262393
vt 0.496790916 0.291458696
vt 0.491465271 0.14196001
vt 0.491738081 0.302056193
vt 0.511310458 0.301409006
vt 0.518709064 0.165096447
vt 0.5155195 0.163556367
vt 0.517307997 0.322935283
vt 0.504925787 0.288865298
vt 0.507434845 0.158125252
vt 0.504244328 0.155552939
vt 0.511310458 0.301409006
vt 0.504925787 0.288865298
vt 0.500175655 0.151476517
vt 0.496790916 0.291458696
vt 0.504244328 0.155552939
vt 0.53375572 0.328977466
vt 0.532378316 0.163824469
vt 0.527731478 0.326695621
vt 0.535243452 0.162343249
vt 0.45480606 0.32477504
vt 0.456501245 0.121727973
vt 0.454128355 0.122490123
vt 0.46156764 0.316692233
vt 0.158341527 0.928029299
vt 0.160344839 0.930193245
vt 0.161477417 0.912466347
vt 0.150546834 0.917947888
vt 0.1446594 0.908364832
vt 0.14117372 0.88455689
vt 0.145689771 0.875005484
vt 0.153564259 0.870194733
vt 0.161477417 0.912466347
vt 0.162195891 0.87925601
vt 0.133300632 0.900700629
vt 0.127972066 0.901627719
vt 0.1446594 0.908364832
vt 0.127779216 0.908648968
vt 0.128885806 0.915053487
vt 0.150546834 0.917947888
vt 0.187315479 0.915074229
vt 0.181700841 0.908848703
vt 0.171415284 0.922893286
vt 0.201163098 0.898458362
vt 0.150546834 0.917947888
vt 0.128885806 0.915053487
vt 0.144081369 0.924970865
vt 0.158341527 0.928029299
vt 0.187315479 0.915074229
vt 0.169779375 0.930494666
vt 0.182131931 0.926590919
vt 0.199020028 0.919834137
vt 0.203463212 0.91223675
vt 0.20354344 0.904501975
vt 0.176334828 0.881133616
vt 0.1952032 0.888985217
vt 0.198448509 0.866811395
vt 0.172115356 0.898195982
vt 0.181700841 0.908848703
vt 0.165863946 0.925907314
vt 0.171415284 0.922893286
vt 0.176334828 0.881133616
vt 0.176044747 0.860212505
vt 0.169182733 0.867521942
vt 0.162195891 0.87925601
vt 0.172115356 0.898195982
vt 0.198448509 0.866811395
vt 0.180432379 0.860770106
vt 0.176334828 0.881133616
vt 0.188644379 0.852374971
vt 0.197169945 0.852785349
vt 0.53375572 0.328977466
vt 0.547511578 0.152136251
vt 0.544763327 0.154186979
vt 0.539664745 0.333862126
vt 0.427882373 0.1470135
vt 0.433692873 0.337436557
vt 0.438657403 0.332625091
vt 0.425887704 0.149348497
vt 0.44361496 0.129910812
vt 0.448562592 0.340217471
vt 0.45480606 0.32477504
vt 0.441227943 0.131846547
vt 0.482280344 0.311258435
vt 0.472833693 0.124660775
vt 0.477508694 0.323894203
vt 0.474781394 0.126171961
vt 0.448562592 0.340217471
vt 0.439457357 0.133640081
vt 0.443318188 0.335371554
vt 0.441227943 0.131846547
vt 0.459607124 0.121660948
vt 0.46156764 0.316692233
vt 0.470288545 0.313706815
vt 0.456501245 0.121727973
vt 0.487375796 0.302663207
vt 0.474781394 0.126171961
vt 0.482280344 0.311258435
vt 0.477023005 0.128302261
vt 0.487375796 0.302663207
vt 0.488993019 0.139262393
vt 0.487080038 0.137177765
vt 0.491738081 0.302056193
vt 0.433692873 0.337436557
vt 0.424289644 0.151139006
vt 0.429776877 0.342468441
vt 0.425887704 0.149348497
vt 0.438657403 0.332625091
vt 0.429557234 0.14518474
vt 0.427882373 0.1470135
vt 0.443318188 0.335371554
vt 0.949020028 0.243358985
vt 0.967192292 0.263693124
vt 0.964981318 0.258475184
vt 0.958622456 0.291379601
vt 0.96475625 0.272186726
vt 0.963531256 0.287554026
vt 0.87531805 0.277191609
vt 0.903631806 0.296363145
vt 0.93609786 0.300643951
vt 0.943026781 0.298680633
vt 0.925976634 0.300719708
vt 0.892680764 0.293251604
vt 0.897365928 0.294916928
vt 0.897559285 0.227185771
vt 0.937585533 0.234418973
vt 0.941231608 0.236537144
vt 0.945221543 0.238682345
vt 0.928250551 0.232230112
vt 0.932606339 0.2323405
vt 0.901973963 0.226835445
vt 0.867406547 0.246953055
vt 0.868174434 0.27062133
vt 0.870973229 0.273927569
vt 0.866042137 0.265933424
vt 0.871778131 0.238347188
vt 0.869001389 0.241733268
vt 0.892423213 0.228853866
vn -0.958792388 -0.163471892 -0.232366517
vn -0.958792388 -0.163471892 -0.232366487
vn -0.958792388 -0.163471878 -0.232366517
vn 0.958510756 0.175232187 0.224834934
vn 0.958510756 0.175232172 0.224834919
vn 0.958510756 0.175232217 0.224834934
vn -0.483907163 -0.500084758 -0.718156815
vn -0.483907163 -0.500084817 -0.718156755
vn -0.483907163 -0.500084758 -0.718156815
vn 0.687336028 0.626429677 0.367634296
vn 0.687336028 0.626429737 0.367634296
vn 0.687336028 0.626429677 0.367634296
vn 0.742713332 0.57728219 0.339296639
vn 0.742713273 0.577282131 0.339296609
vn 0.742713332 0.57728219 0.339296639
vn 0.90845412 0.184588373 -0.375017524
vn 0.90845412 0.184588388 -0.375017554
vn 0.90845418 0.184588373 -0.375017494
vn -0.518414021 0.675666094 0.524139524
vn -0.51841408 0.675666094 0.524139524
vn -0.518414021 0.675666094 0.524139524
vn -0.478033155 0.698284805 0.532806337
vn -0.478033155 0.698284805 0.532806277
vn -0.478033125 0.698284745 0.532806337
vn -0.791172564 0.054536663 -0.609156489
vn -0.791172564 0.054536663 -0.609156549
vn -0.791172624 0.0545366593 -0.609156489
vn -0.78725481 0.204433858 -0.581752956
vn -0.78725493 0.204433873 -0.581752956
vn -0.78725481 0.204433858 -0.581752956
vn 0.303246349 -0.226323977 -0.925645232
vn 0.303246379 -0.226323977 -0.925645232
vn 0.303246379 -0.226323977 -0.925645232
vn -0.39710024 0.605560064 -0.689643621
vn -0.39710024 0.605560124 -0.689643681
vn -0.39710024 0.605560124 -0.689643681
vn -0.0277701989 0.601935863 -0.79806143
vn -0.0277701989 0.601935863 -0.79806143
vn -0.0277701989 0.601935863 -0.79806143
vn 0.424631447 -0.102272548 -0.89957124
vn 0.424631476 -0.102272563 -0.89957124
vn 0.424631447 -0.102272548 -0.89957124
vn 0.300468653 -0.0283270311 -0.953370929
vn 0.300468624 -0.0283270329 -0.953370929
vn 0.300468713 -0.0283270366 -0.953370929
vn -0.757008493 0.124090679 -0.641513586
vn -0.757008553 0.124090679 -0.641513526
vn -0.757008493 0.124090679 -0.641513526
vn 0.752985358 0.587404013 0.296596766
vn 0.752985358 0.587404013 0.296596766
vn 0.752985358 0.587404013 0.296596736
vn 0.728254676 0.592615247 0.34416914
vn 0.728254735 0.592615187 0.34416911
vn 0.728254676 0.592615187 0.34416911
vn 0.863315761 0.43541491 0.255146354
vn 0.863315761 0.43541491 0.255146354
vn 0.863315761 0.43541491 0.255146384
vn 0.677974343 0.717067361 -0.161756888
vn 0.677974343 0.717067361 -0.161756888
vn 0.677974343 0.717067361 -0.161756903
vn 0.953337014 0.221583217 -0.205059543
vn 0.953337014 0.221583217 -0.205059543
vn 0.953337014 0.221583202 -0.205059543
vn 0.477889866 -0.229056925 -0.848029554
vn 0.477889866 -0.229056925 -0.848029554
vn 0.477889925 -0.229056925 -0.848029554
vn 0.030018501 -0.27799046 -0.960114658
vn 0.030018501 -0.27799049 -0.960114658
vn 0.030018501 -0.27799049 -0.960114658
vn -0.932037294 0.136879116 -0.335515141
vn -0.932037294 0.136879131 -0.335515171
vn -0.932037294 0.136879131 -0.335515141
vn 0.279367685 -0.541444182 -0.792964041
vn 0.279367685 -0.541444182 -0.792963982
vn 0.279367685 -0.541444182 -0.792963982
vn 0.880264282 -0.261858135 -0.395683199
vn 0.880264282 -0.261858135 -0.395683199
vn 0.880264282 -0.261858135 -0.395683199
vn -0.276993334 0.55587405 0.783759296
vn -0.276993334 0.555874109 0.783759296
vn -0.276993334 0.55587405 0.783759296
vn -0.879528224 0.273050964 0.389709145
vn -0.879528224 0.273050994 0.389709145
vn -0.879528224 0.273051053 0.389709145
vn 0.484761685 0.51178062 0.709286094
vn 0.484761685 0.51178062 0.709286094
vn 0.484761685 0.51178062 0.709286094
vn 0.407844365 -0.519233525 -0.751038969
vn 0.407844394 -0.519233525 -0.751038969
vn 0.407844156 -0.519233525 -0.751039088
vn 0.407844454 -0.519233584 -0.751038909
vn -0.757620931 -0.369939357 -0.537731588
vn -0.757620931 -0.369939357 -0.537731588
vn -0.757616043 -0.369942635 -0.537736356
vn -0.757620931 -0.369939357 -0.537731588
vn 0.0952114016 0.582751334 0.807053685
vn 0.0952114016 0.582751334 0.807053685
vn 0.095211044 0.582751393 0.807053685
vn 0.0952113941 0.582751334 0.807053685
vn 0.942199111 0.20524998 0.264826715
vn 0.942199111 0.205249995 0.264826685
vn 0.942196667 0.205254257 0.264832228
vn 0.942199111 0.205249995 0.264826685
vn 0.76946944 -0.352885962 -0.532342196
vn 0.76946938 -0.352885991 -0.532342255
vn 0.769471645 -0.352884561 -0.53234005
vn 0.76946944 -0.352885991 -0.532342255
vn 0.948399723 -0.166265756 -0.269988388
vn 0.948399723 -0.166265756 -0.269988388
vn 0.94839853 -0.166267738 -0.269991279
vn 0.948399723 -0.166265741 -0.269988358
vn 0.999693274 0.0246015601 -0.0028719767
vn 0.999693274 0.0246015619 -0.0028719767
vn 0.999693155 0.0246058274 -0.00286631263
vn 0.999693274 0.0246015582 -0.00287197623
vn -0.085490346 -0.564084411 -0.821279585
vn -0.085490346 -0.564084411 -0.821279585
vn -0.0854899064 -0.564084291 -0.821279764
vn -0.0854903385 -0.564084351 -0.821279585
vn -0.642150342 0.447935909 0.62209022
vn -0.642150402 0.447935879 0.62209022
vn -0.642150521 0.447935849 0.62209022
vn -0.642150402 0.447935879 0.62209022
vn -0.366704464 0.755257547 0.543243706
vn -0.366704524 0.755257547 0.543243766
vn -0.366704464 0.755257607 0.543243706
vn -0.391511708 0.75126946 0.531331182
vn -0.391511708 0.75126946 0.531331182
vn -0.361750007 0.733654261 0.575228989
vn -0.329271644 0.737102568 0.590135634
vn -0.2886841 0.745954037 0.600178421
vn -0.28868413 0.745953977 0.600178421
vn -0.28868413 0.745954037 0.60017848
vn -0.915264547 0.117066018 -0.385469049
vn -0.915264547 0.117066033 -0.385469049
vn -0.895219803 0.127425492 -0.427017778
vn -0.895219803 0.127425477 -0.427017748
vn -0.895219803 0.127425492 -0.427017838
vn -0.895992219 0.126411349 -0.425697178
vn 0.361529648 -0.235868886 -0.902032256
vn 0.361529648 -0.235868886 -0.902032256
vn 0.361529648 -0.235868886 -0.902032256
vn 0.36094445 -0.212208062 -0.908122778
vn -0.834410369 0.132185563 -0.535057306
vn -0.834410369 0.132185563 -0.535057366
vn -0.834410369 0.132185578 -0.535057366
vn -0.831627548 0.137846842 -0.537953317
vn -0.0924149528 -0.24507308 -0.965089917
vn -0.0826898292 -0.251809865 -0.96423763
vn -0.0826898515 -0.251809865 -0.96423763
vn -0.0924149603 -0.24507311 -0.965089917
vn -0.0924149528 -0.24507311 -0.965089917
vn -0.0614894219 -0.264144957 -0.962520838
vn 0.975858092 0.139802814 -0.167798191
vn 0.975858092 0.139802814 -0.167798176
vn 0.981388092 0.116515495 -0.152648434
vn 0.975858092 0.139802799 -0.167798162
vn 0.967380822 0.168244198 -0.189388976
vn 0.967380822 0.168244243 -0.189388976
vn 0.969477296 0.172038987 -0.174688891
vn 0.818748176 0.495829105 0.28949073
vn 0.829719841 0.4782857 0.287763387
vn 0.818748176 0.495829105 0.28949073
vn 0.818748176 0.495829165 0.28949073
vn 0.818225563 0.498142213 0.28698644
vn 0.987849772 0.115716629 -0.103742942
vn 0.987849772 0.115716629 -0.103742942
vn 0.987849772 0.115716629 -0.103742942
vn 0.983016789 0.138255775 -0.120679125
vn 0.986062944 0.114187516 -0.121000618
vn -0.343916267 -0.541410029 -0.767200649
vn -0.343916267 -0.541409969 -0.767200649
vn -0.343915522 -0.541410148 -0.767200887
vn -0.343916237 -0.541409969 -0.767200649
vn -0.841562271 -0.306999147 -0.444437236
vn -0.841562271 -0.306999058 -0.444437116
vn -0.841555059 -0.307005674 -0.444446504
vn -0.841562271 -0.306999058 -0.444437176
vn -0.928570569 0.215566367 0.302138597
vn -0.928570688 0.215566382 0.302138567
vn -0.928572714 0.215563238 0.302134186
vn -0.928570688 0.215566382 0.302138567
vn 0.357244939 0.546546936 0.757405043
vn 0.357244939 0.546547055 0.757405043
vn 0.357243925 0.546547115 0.7574054
vn 0.357244968 0.546546996 0.757404983
vn -0.994153082 0.0655333921 0.0858197212
vn -0.994153082 0.0655333996 0.0858197212
vn -0.994152486 0.0655364916 0.0858242586
vn -0.994153082 0.0655333847 0.0858197212
vn -0.418453991 0.529436231 0.737965822
vn -0.418453962 0.529436171 0.737965822
vn -0.418453664 0.529436231 0.737966001
vn -0.418453991 0.529436231 0.737965822
vn 0.597310185 0.465296805 0.65323776
vn 0.597310185 0.465296805 0.65323776
vn 0.597306132 0.465298742 0.653239965
vn 0.597310185 0.465296745 0.65323776
vn 0.870469809 0.296961129 0.392551005
vn 0.870469809 0.296961099 0.392551005
vn 0.870476067 0.29695496 0.392541945
vn 0.870469809 0.296961129 0.392551064
vn -0.726096511 -0.390096068 -0.566223383
vn -0.726096511 -0.390096068 -0.566223383
vn -0.726100266 -0.390093863 -0.566220045
vn -0.726096511 -0.390096039 -0.566223383
vn -0.998940289 -0.0341558121 -0.0308501031
vn -0.998940289 -0.0341558158 -0.0308501069
vn -0.998939812 -0.0341610461 -0.0308578294
vn -0.998940289 -0.0341558158 -0.0308501069
vn 0.313199461 -0.934821546 -0.167376027
vn 0.31319949 -0.934821546 -0.167376027
vn 0.313199461 -0.934821546 -0.167375997
vn 0.313206673 -0.93481946 -0.167374462
vn 0.31320563 -0.934816718 -0.167391106
vn 0.313200355 -0.934821665 -0.167374253
vn 0.313171446 -0.934825718 -0.167405218
vn 0.31320101 -0.934821725 -0.167372316
vn 0.313202918 -0.934821129 -0.16737248
vn 0.313206613 -0.93481946 -0.167374462
vn 0.313202858 -0.934821129 -0.167372495
vn 0.31320101 -0.934821725 -0.167372316
vn 0.31320101 -0.934821725 -0.167372301
vn 0.313196898 -0.934822679 -0.1673747
vn 0.313205123 -0.934821427 -0.167366117
vn 0.313192636 -0.934823394 -0.167378023
vn 0.313192636 -0.934823394 -0.167378023
vn 0.313220859 -0.934816003 -0.167366594
vn 0.313220859 -0.934816003 -0.167366594
vn 0.313196868 -0.934822679 -0.167374685
vn 0.313209802 -0.934814692 -0.167395189
vn 0.313201517 -0.934820473 -0.167378291
vn 0.313171387 -0.934825718 -0.167405203
vn 0.313201487 -0.934820473 -0.167378291
vn 0.313202858 -0.93482101 -0.167372897
vn 0.313209832 -0.934814692 -0.167395204
vn 0.313202858 -0.93482101 -0.167372897
g A_build_th_jm_v_023_0
f 3/3/3 2/2/2 1/1/1
f 6/6/6 5/5/5 4/4/4
f 9/9/9 8/8/8 7/7/7
f 12/12/12 11/11/11 10/10/10
f 15/15/15 14/14/14 13/13/13
f 18/18/18 17/17/17 16/16/16
f 21/21/21 20/20/20 19/19/19
f 24/24/24 23/23/23 22/22/22
f 27/27/27 26/26/26 25/25/25
f 30/30/30 29/29/29 28/28/28
f 33/33/33 32/32/32 31/31/31
f 36/36/36 35/35/35 34/34/34
f 39/39/39 38/38/38 37/37/37
f 42/42/42 41/41/41 40/40/40
f 45/45/45 44/44/44 43/43/43
f 48/48/48 47/47/47 46/46/46
f 51/51/51 50/50/50 49/49/49
f 54/54/54 53/53/53 52/52/52
f 57/57/57 56/56/56 55/55/55
f 60/60/60 59/59/59 58/58/58
f 63/63/63 62/62/62 61/61/61
f 66/66/66 65/65/65 64/64/64
f 69/69/69 68/68/68 67/67/67
f 72/72/72 71/71/71 70/70/70
f 75/75/75 74/74/74 73/73/73
f 78/78/78 77/77/77 76/76/76
f 81/81/81 80/80/80 79/79/79
f 84/84/84 83/83/83 82/82/82
f 87/87/87 86/86/86 85/85/85
f 90/90/90 89/89/89 88/88/88
f 91/91/91 88/88/88 89/89/89
f 94/94/94 93/93/93 92/92/92
f 95/95/95 92/92/92 93/93/93
f 98/98/98 97/97/97 96/96/96
f 99/99/99 96/96/96 97/97/97
f 102/102/102 101/101/101 100/100/100
f 103/103/103 100/100/100 101/101/101
f 106/106/106 105/105/105 104/104/104
f 107/107/107 104/104/104 105/105/105
f 110/110/110 109/109/109 108/108/108
f 111/111/111 108/108/108 109/109/109
f 114/114/114 113/113/113 112/112/112
f 115/115/115 112/112/112 113/113/113
f 118/118/118 117/117/117 116/116/116
f 119/119/119 116/116/116 117/117/117
f 122/122/122 121/121/121 120/120/120
f 123/123/123 120/120/120 121/121/121
f 126/126/126 125/125/125 124/124/124
f 126/126/126 124/124/124 127/127/127
f 126/126/126 127/127/127 128/128/128
f 126/126/126 128/128/128 129/129/129
f 126/126/126 129/129/129 130/130/130
f 132/132/132 130/130/130 131/131/131
f 131/131/131 133/133/133 132/132/132
f 136/136/136 135/135/135 134/134/134
f 137/137/137 135/135/135 136/136/136
f 138/138/138 137/137/137 136/136/136
f 136/136/136 139/139/139 138/138/138
f 142/142/142 141/141/141 140/140/140
f 141/141/141 143/143/143 140/140/140
f 146/146/146 145/145/145 144/144/144
f 146/146/146 144/144/144 147/147/147
f 150/150/150 149/149/149 148/148/148
f 151/151/151 150/150/150 148/148/148
f 152/152/152 151/151/151 148/148/148
f 152/152/152 148/148/148 153/153/153
f 156/156/156 155/155/155 154/154/154
f 155/155/155 157/157/157 154/154/154
f 158/158/158 157/157/157 155/155/155
f 158/158/158 159/159/159 157/157/157
f 158/158/158 160/160/160 159/159/159
f 163/163/163 162/162/162 161/161/161
f 164/164/164 163/163/163 161/161/161
f 164/164/164 161/161/161 165/165/165
f 168/168/168 167/167/167 166/166/166
f 169/169/169 166/166/166 167/167/167
f 169/169/169 170/170/170 166/166/166
f 173/173/173 172/172/172 171/171/171
f 174/174/174 171/171/171 172/172/172
f 177/177/177 176/176/176 175/175/175
f 178/178/178 175/175/175 176/176/176
f 181/181/181 180/180/180 179/179/179
f 182/182/182 179/179/179 180/180/180
f 185/185/185 184/184/184 183/183/183
f 186/186/186 183/183/183 184/184/184
f 189/189/189 188/188/188 187/187/187
f 190/190/190 187/187/187 188/188/188
f 193/193/193 192/192/192 191/191/191
f 194/194/194 191/191/191 192/192/192
f 197/197/197 196/196/196 195/195/195
f 198/198/198 195/195/195 196/196/196
f 201/201/201 200/200/200 199/199/199
f 202/202/202 199/199/199 200/200/200
f 205/205/205 204/204/204 203/203/203
f 206/206/206 203/203/203 204/204/204
f 209/209/209 208/208/208 207/207/207
f 210/210/210 207/207/207 208/208/208
f 213/213/213 212/212/212 211/211/211
f 212/212/212 214/214/214 211/211/211
f 215/215/215 214/214/214 212/212/212
f 216/216/216 214/214/214 215/215/215
f 214/214/214 217/217/217 211/211/211
f 218/218/218 217/217/217 214/214/214
f 219/219/219 218/218/218 214/214/214
f 220/220/220 219/219/219 214/214/214
f 221/221/221 218/218/218 219/219/219
f 222/222/222 217/217/217 218/218/218
f 223/223/223 222/222/222 218/218/218
f 217/217/217 224/224/224 211/211/211
f 224/224/224 225/225/225 211/211/211
f 225/225/225 226/226/226 211/211/211
f 226/226/226 227/227/227 211/211/211
f 228/228/228 225/225/225 224/224/224
f 229/229/229 225/225/225 228/228/228
f 230/230/230 228/228/228 224/224/224
f 231/231/231 224/224/224 217/217/217
f 232/232/232 231/231/231 217/217/217
f 233/233/233 232/232/232 217/217/217
f 234/234/234 231/231/231 232/232/232
f 235/235/235 224/224/224 231/231/231
f 236/236/236 235/235/235 231/231/231
f 237/237/237 224/224/224 235/235/235
