g A_build_th_jm_v_038
v -0.200548366 -0.782218933 -0.321514666
v -0.184725493 0.529093683 0.558894515
v -0.158627912 0.54065913 0.599653244
v -0.275111049 -0.696826518 -0.494514763
v -0.246499196 0.582794845 0.405101418
v -0.240510464 0.567159951 0.427383214
v -0.00135393871 -0.538912714 -0.709416389
v 0.0684069172 0.661635876 0.173180893
v 0.0317807645 0.662029445 0.14680402
v -0.00135393871 -0.538912714 -0.709416389
v -0.00192357437 0.671809077 0.152572468
v -0.0225356873 0.679712772 0.162235156
v -0.192602485 -0.596045852 -0.655189097
v -0.1600582 0.750839055 0.285372734
v -0.186881185 0.774713457 0.341295063
v -0.0125914309 -0.80220145 -0.237529099
v -0.0622027442 0.634938478 0.71380806
v -0.010262019 0.688717544 0.773182034
v -0.0125914309 -0.80220145 -0.237529099
v -0.010262019 0.688717544 0.773182034
v 0.0285164285 0.743019104 0.8075068
v 0.178656578 -0.745068491 -0.291756213
v 0.151343808 0.843521178 0.815961599
v 0.183379158 0.822995901 0.774655521
v 0.261165798 -0.644287765 -0.452430129
v 0.239948675 0.747827411 0.577548802
v 0.252447903 0.729999423 0.530108273
v 0.178656578 -0.745068491 -0.291756213
v 0.227361068 0.760706484 0.609136283
v 0.183379158 0.822995901 0.774655521
v -0.198156416 0.53006804 0.533021927
v -0.184725493 0.529093683 0.558894515
v -0.200548366 -0.782218933 -0.321514666
v 0.211399153 0.669451833 0.305994302
v 0.201498315 0.656349361 0.256727099
v 0.186602801 -0.55889529 -0.625431001
v 0.0317807645 0.662029445 0.14680402
v -0.00192357437 0.671809077 0.152572468
v -0.00135393871 -0.538912714 -0.709416389
v 0.252447903 0.729999423 0.530108273
v 0.256188571 0.711862445 0.475073516
v 0.261165798 -0.644287765 -0.452430129
v 0.227361068 0.760706484 0.609136283
v 0.239948675 0.747827411 0.577548802
v 0.261165798 -0.644287765 -0.452430129
v -0.0225356873 0.679712772 0.162235156
v -0.0486823469 0.694686472 0.190274239
v -0.00135393871 -0.538912714 -0.709416389
v 0.201498315 0.656349361 0.256727099
v 0.185043797 0.650715411 0.226341128
v 0.186602801 -0.55889529 -0.625431001
v 0.11825116 0.860263944 0.844403863
v 0.0285164285 0.743019104 0.8075068
v 0.102404162 0.868146777 0.85759443
v -0.0125914309 -0.80220145 -0.237529099
v 0.178656578 -0.745068491 -0.291756213
v 0.151343808 0.843521178 0.815961599
v -0.192602485 -0.596045852 -0.655189097
v -0.246499196 0.582794845 0.405101418
v -0.275111049 -0.696826518 -0.494514763
v -0.199145839 0.735662639 0.38582471
v -0.186881185 0.774713457 0.341295063
v -0.199145839 0.735662639 0.38582471
v -0.192602485 -0.596045852 -0.655189097
v -0.190219492 0.783997655 0.368392587
v 0.221106514 -0.699153662 -0.483996212
v 0.261165798 -0.644287765 -0.452430129
v 0.159660071 -0.62878263 -0.626564085
v 0.186602801 -0.55889529 -0.625431001
v 0.153111637 -0.78220582 -0.351586759
v 0.178656578 -0.745068491 -0.291756213
v 0.221106514 -0.699153662 -0.483996212
v 0.261165798 -0.644287765 -0.452430129
v -0.00449396018 -0.829288602 -0.306898504
v -0.0125914309 -0.80220145 -0.237529099
v 0.153111637 -0.78220582 -0.351586759
v 0.178656578 -0.745068491 -0.291756213
v -0.159387261 -0.812821329 -0.376110375
v -0.200548366 -0.782218933 -0.321514666
v -0.00449396018 -0.829288602 -0.306898504
v -0.0125914309 -0.80220145 -0.237529099
v -0.220833704 -0.742450237 -0.518678188
v -0.275111049 -0.696826518 -0.494514763
v -0.159387261 -0.812821329 -0.376110375
v -0.200548366 -0.782218933 -0.321514666
v -0.15283902 -0.659398079 -0.65108794
v -0.192602485 -0.596045852 -0.655189097
v -0.220833704 -0.742450237 -0.518678188
v -0.275111049 -0.696826518 -0.494514763
v 0.00476671476 -0.612315357 -0.695775747
v -0.00135393871 -0.538912714 -0.709416389
v -0.15283902 -0.659398079 -0.65108794
v -0.192602485 -0.596045852 -0.655189097
v 0.159660071 -0.62878263 -0.626564085
v 0.186602801 -0.55889529 -0.625431001
v 0.00476671476 -0.612315357 -0.695775747
v -0.00135393871 -0.538912714 -0.709416389
v 0.153111637 -0.78220582 -0.351586759
v -0.159387261 -0.812821329 -0.376110375
v -0.00449396018 -0.829288602 -0.306898504
v 0.221106514 -0.699153662 -0.483996212
v -0.220833704 -0.742450237 -0.518678188
v -0.15283902 -0.659398079 -0.65108794
v 0.159660071 -0.62878263 -0.626564085
v 0.00476671476 -0.612315357 -0.695775747
v -0.0125914309 -0.80220145 -0.237529099
v -0.158627912 0.54065913 0.599653244
v -0.0622027442 0.634938478 0.71380806
v -0.200548366 -0.782218933 -0.321514666
v 0.261165798 -0.644287765 -0.452430129
v 0.211399153 0.669451833 0.305994302
v 0.186602801 -0.55889529 -0.625431001
v 0.256188571 0.711862445 0.475073516
v -0.200548366 -0.782218933 -0.321514666
v -0.240510464 0.567159951 0.427383214
v -0.198156416 0.53006804 0.533021927
v -0.275111049 -0.696826518 -0.494514763
v 0.0684069172 0.661635876 0.173180893
v 0.186602801 -0.55889529 -0.625431001
v 0.185043797 0.650715411 0.226341128
v -0.00135393871 -0.538912714 -0.709416389
v -0.192602485 -0.596045852 -0.655189097
v -0.0486823469 0.694686472 0.190274239
v -0.1600582 0.750839055 0.285372734
v -0.00135393871 -0.538912714 -0.709416389
v -0.0622027442 0.634938478 0.71380806
v 0.0285164285 0.743019104 0.8075068
v -0.010262019 0.688717544 0.773182034
v -0.184725493 0.529093683 0.558894515
v -0.158627912 0.54065913 0.599653244
v -0.199145839 0.735662639 0.38582471
v -0.190219492 0.783997655 0.368392587
v 0.102404162 0.868146777 0.85759443
v -0.240510464 0.567159951 0.427383214
v -0.246499196 0.582794845 0.405101418
v -0.198156416 0.53006804 0.533021927
v 0.102404162 0.868146777 0.85759443
v 0.151343808 0.843521178 0.815961599
v 0.11825116 0.860263944 0.844403863
v -0.186881185 0.774713457 0.341295063
v -0.190219492 0.783997655 0.368392587
v 0.185043797 0.650715411 0.226341128
v 0.252447903 0.729999423 0.530108273
v 0.227361068 0.760706484 0.609136283
v 0.183379158 0.822995901 0.774655521
v 0.239948675 0.747827411 0.577548802
v 0.211399153 0.669451833 0.305994302
v 0.256188571 0.711862445 0.475073516
v 0.201498315 0.656349361 0.256727099
v -0.00192357437 0.671809077 0.152572468
v 0.0684069172 0.661635876 0.173180893
v 0.0317807645 0.662029445 0.14680402
v -0.0486823469 0.694686472 0.190274239
v -0.0225356873 0.679712772 0.162235156
v -0.1600582 0.750839055 0.285372734
vt 0.731398046 0.358456731
vt 0.731487036 0.486477554
vt 0.734498858 0.489103973
vt 0.714821637 0.356229752
vt 0.71780777 0.48302871
vt 0.719986737 0.482949704
vt 0.814224243 0.357538134
vt 0.805978417 0.478122294
vt 0.809453964 0.476979136
vt 0.814224243 0.357538134
vt 0.812170804 0.477943361
vt 0.813845575 0.478948474
vt 0.830858648 0.356589615
vt 0.825752318 0.489628106
vt 0.829040468 0.493893743
vt 0.747874498 0.360998869
vt 0.742906392 0.500652254
vt 0.747358799 0.506981254
vt 0.747874498 0.360998869
vt 0.747358799 0.506981254
vt 0.750481665 0.512200236
vt 0.764494777 0.362404197
vt 0.761148036 0.519354641
vt 0.764336586 0.516106009
vt 0.781170607 0.361879677
vt 0.775154591 0.5021137
vt 0.777734458 0.498760581
vt 0.764494777 0.362404197
vt 0.773308277 0.504410863
vt 0.764336586 0.516106009
vt 0.729380548 0.485315144
vt 0.731487036 0.486477554
vt 0.731398046 0.358456731
vt 0.790670812 0.484542847
vt 0.793500066 0.481426597
vt 0.797715902 0.359801918
vt 0.809453964 0.476979136
vt 0.812170804 0.477943361
vt 0.814224243 0.357538134
vt 0.777734458 0.498760581
vt 0.780617177 0.495040327
vt 0.781170607 0.361879677
vt 0.773308277 0.504410863
vt 0.775154591 0.5021137
vt 0.781170607 0.361879677
vt 0.813845575 0.478948474
vt 0.816217303 0.481294125
vt 0.814224243 0.357538134
vt 0.793500066 0.481426597
vt 0.795731604 0.479673743
vt 0.797715902 0.359801918
vt 0.758222997 0.521762013
vt 0.750481665 0.512200236
vt 0.756837904 0.522887588
vt 0.747874498 0.360998869
vt 0.764494777 0.362404197
vt 0.761148036 0.519354641
vt 0.830858648 0.356589615
vt 0.843371212 0.484437466
vt 0.847527087 0.357681721
vt 0.833928823 0.493517101
vt 0.829040468 0.493893743
vt 0.833928823 0.493517101
vt 0.830858648 0.356589615
vt 0.830377817 0.495810151
vt 0.780851066 0.355975717
vt 0.781170607 0.361879677
vt 0.797129154 0.354003668
vt 0.797715902 0.359801918
vt 0.764720678 0.35646528
vt 0.764494777 0.362404197
vt 0.780851066 0.355975717
vt 0.781170607 0.361879677
vt 0.748611629 0.355160534
vt 0.747874498 0.360998869
vt 0.764720678 0.35646528
vt 0.764494777 0.362404197
vt 0.732510209 0.352876186
vt 0.731398046 0.358456731
vt 0.748611629 0.355160534
vt 0.747874498 0.360998869
vt 0.717667699 0.350636244
vt 0.714821637 0.356229752
vt 0.732510209 0.352876186
vt 0.731398046 0.358456731
vt 0.830489278 0.350857496
vt 0.830858648 0.356589615
vt 0.845760465 0.35133028
vt 0.847527087 0.357681721
vt 0.813745439 0.351816118
vt 0.814224243 0.357538134
vt 0.830489278 0.350857496
vt 0.830858648 0.356589615
vt 0.797129154 0.354003668
vt 0.797715902 0.359801918
vt 0.813745439 0.351816118
vt 0.814224243 0.357538134
vt 0.438623577 0.750588655
vt 0.438750714 0.725090086
vt 0.433406234 0.737813056
vt 0.451346487 0.755933166
vt 0.451526135 0.719872594
vt 0.464249045 0.725217104
vt 0.464121968 0.750715613
vt 0.469466388 0.737992704
vt 0.747874498 0.360998869
vt 0.734498858 0.489103973
vt 0.742906392 0.500652254
vt 0.731398046 0.358456731
vt 0.781170607 0.361879677
vt 0.790670812 0.484542847
vt 0.797715902 0.359801918
vt 0.780617177 0.495040327
vt 0.731398046 0.358456731
vt 0.719986737 0.482949704
vt 0.729380548 0.485315144
vt 0.714821637 0.356229752
vt 0.805978417 0.478122294
vt 0.797715902 0.359801918
vt 0.795731604 0.479673743
vt 0.814224243 0.357538134
vt 0.830858648 0.356589615
vt 0.816217303 0.481294125
vt 0.825752318 0.489628106
vt 0.814224243 0.357538134
vt 0.974967659 0.0987048745
vt 0.978789091 0.130232945
vt 0.978254914 0.116037011
vt 0.964361846 0.0596850999
vt 0.968110681 0.0670219511
vt 0.93339467 0.0745313838
vt 0.928655326 0.0809795558
vt 0.976867676 0.159204155
vt 0.947829008 0.0495747142
vt 0.944487214 0.0495142825
vt 0.961492717 0.0565240122
vt 0.985304773 0.0419300236
vt 0.988054991 0.0542250462
vt 0.986212015 0.0458599441
vt 0.925044894 0.103758015
vt 0.926257372 0.0986397266
vt 0.957572281 0.161656827
vt 0.982202113 0.114882544
vt 0.984121859 0.0984027311
vt 0.989044011 0.0647525489
vt 0.98362416 0.105248675
vt 0.96494472 0.150269851
vt 0.979419589 0.124970354
vt 0.961058617 0.157960311
vt 0.933627665 0.155760616
vt 0.942222595 0.159238398
vt 0.936843634 0.160187349
vt 0.930880189 0.14437978
vt 0.932014942 0.151971176
vt 0.92464155 0.116337039
vn -0.728278458 -0.375907183 0.572978318
vn -0.728278458 -0.375907212 0.572978377
vn -0.728278458 -0.375907183 0.572978318
vn -0.976489484 -0.108938888 0.186012357
vn -0.976489484 -0.108938888 0.186012372
vn -0.976489484 -0.108938888 0.186012343
vn 0.513280571 0.48878172 -0.705432832
vn 0.513280511 0.48878172 -0.705432832
vn 0.513280511 0.48878172 -0.705432832
vn -0.157536119 0.57269311 -0.804490566
vn -0.157536089 0.57269311 -0.804490447
vn -0.157536104 0.572693169 -0.804490447
vn -0.756123006 0.386869669 -0.527835011
vn -0.756123006 0.386869729 -0.527835011
vn -0.756123006 0.386869669 -0.527835011
vn -0.343626112 -0.526590466 0.777575493
vn -0.343626112 -0.526590466 0.777575433
vn -0.343626112 -0.526590466 0.777575433
vn 0.0531215854 -0.560391843 0.826522231
vn 0.0531215966 -0.560391903 0.826522231
vn 0.0531215966 -0.560391903 0.826522231
vn 0.575483322 -0.461086839 0.67543906
vn 0.575483322 -0.461086869 0.67543906
vn 0.575483322 -0.461086869 0.67543906
vn 0.916855097 -0.22638832 0.328823835
vn 0.916928768 -0.228219658 0.327348977
vn 0.916928768 -0.228219628 0.327348977
vn 0.916855216 -0.226388171 0.328823566
vn 0.916855216 -0.226388171 0.328823566
vn 0.916855216 -0.226388156 0.328823566
vn -0.856078267 -0.280938029 0.433824629
vn -0.856078267 -0.280938059 0.433824688
vn -0.856078267 -0.280938029 0.433824629
vn 0.958950222 0.158794254 -0.234944165
vn 0.958950222 0.158794224 -0.23494415
vn 0.958950222 0.158794254 -0.234944165
vn 0.0288571902 0.579751909 -0.814281881
vn 0.0288571902 0.579751909 -0.814281881
vn 0.028857192 0.579752028 -0.814281881
vn 0.994799376 -0.0549862832 0.0857365802
vn 0.994799376 -0.0549862832 0.0857365802
vn 0.994799376 -0.0549862832 0.0857365802
vn 0.823148787 -0.329566956 0.462397695
vn 0.823148787 -0.329566956 0.462397695
vn 0.823148787 -0.329566956 0.462397695
vn -0.480213344 0.504763961 -0.717362225
vn -0.480213344 0.504763961 -0.717362225
vn -0.480213344 0.504763961 -0.717362225
vn 0.795074165 0.349883288 -0.495417774
vn 0.795074165 0.349883258 -0.495417655
vn 0.795074165 0.349883229 -0.495417714
vn 0.373789787 -0.526408911 0.763658881
vn 0.373789787 -0.526408911 0.763658881
vn 0.373789787 -0.52640903 0.763658822
vn 0.373788983 -0.526408494 0.763659477
vn 0.373788744 -0.526408553 0.763659656
vn 0.388014436 -0.522662818 0.759123385
vn -0.916336 0.243796527 -0.317634404
vn -0.916336 0.243796527 -0.317634404
vn -0.916336119 0.243796259 -0.317634106
vn -0.916336 0.243796527 -0.317634404
vn -0.979111135 0.122214243 -0.162496179
vn -0.979111135 0.122214243 -0.162496194
vn -0.979111254 0.12221434 -0.162495956
vn -0.979111135 0.122214265 -0.162496194
vn 0.810864508 -0.304497749 -0.49977991
vn 0.810864508 -0.304497719 -0.49977991
vn 0.810864508 -0.304497719 -0.49977991
vn 0.810864151 -0.304498613 -0.499779791
vn 0.798187077 -0.60152775 0.0325841382
vn 0.798187196 -0.601527691 0.0325841457
vn 0.798187077 -0.601527691 0.0325841419
vn 0.798187196 -0.601527572 0.0325841606
vn 0.3614209 -0.853470922 0.375449359
vn 0.3614209 -0.853470922 0.375449359
vn 0.3614209 -0.853471041 0.375449419
vn 0.361420184 -0.853471816 0.375448227
vn -0.243586436 -0.912743628 0.327970266
vn -0.243586466 -0.912743628 0.327970266
vn -0.243586466 -0.912743628 0.327970266
vn -0.243586481 -0.91274327 0.327971518
vn -0.662426174 -0.744621515 -0.0820382535
vn -0.662426293 -0.744621515 -0.0820382535
vn -0.662426233 -0.744621515 -0.0820382535
vn -0.662425399 -0.744622111 -0.0820396617
vn -0.649747372 -0.447591662 -0.614402115
vn -0.649747372 -0.447591722 -0.614402115
vn -0.649747372 -0.447591662 -0.614402115
vn -0.649750531 -0.447589517 -0.614400506
vn -0.212976947 -0.195651054 -0.957267761
vn -0.212976947 -0.195651054 -0.957267761
vn -0.212976947 -0.195651054 -0.957267761
vn -0.212980092 -0.195647135 -0.957267821
vn 0.39202562 -0.136382133 -0.909788966
vn 0.39202562 -0.136382133 -0.909788966
vn 0.39202562 -0.136382133 -0.909788966
vn 0.392025203 -0.136380091 -0.909789324
vn 0.122799814 -0.867901564 -0.481318086
vn 0.122799814 -0.867901564 -0.481318086
vn 0.122799806 -0.867901564 -0.481318086
vn 0.122800015 -0.867900968 -0.48131904
vn 0.122800022 -0.867901027 -0.48131904
vn 0.122800022 -0.867901027 -0.48131904
vn 0.122800194 -0.86790067 -0.481319457
vn 0.122800224 -0.867900789 -0.481319308
vn -0.394479603 -0.516650081 0.759906948
vn -0.394479603 -0.516650021 0.759906948
vn -0.394478649 -0.5166502 0.759907365
vn -0.394479603 -0.516650081 0.759906948
vn 0.931396663 0.207812428 -0.298854917
vn 0.931396663 0.207812428 -0.298854947
vn 0.931396723 0.20781222 -0.298854679
vn 0.931396663 0.207812428 -0.298854947
vn -0.931956947 -0.196653545 0.304603875
vn -0.931956947 -0.196653545 0.304603875
vn -0.931957185 -0.196653321 0.304603398
vn -0.931956947 -0.196653545 0.304603875
vn 0.392291039 0.529935241 -0.751848638
vn 0.392291039 0.529935241 -0.751848638
vn 0.392290831 0.529935241 -0.751848757
vn 0.392291069 0.529935241 -0.751848638
vn -0.374711841 0.536894321 -0.755867481
vn -0.374711812 0.536894321 -0.755867422
vn -0.374711931 0.536894262 -0.755867422
vn -0.374711782 0.536894262 -0.755867481
vn -0.837247014 0.315652966 0.446520537
vn -0.837247014 0.315652966 0.446520537
vn -0.837247014 0.315652996 0.446520537
vn -0.837248147 0.315654576 0.44651711
vn -0.837248147 0.315654606 0.44651711
vn -0.837244689 0.315657258 0.446521997
vn -0.837248087 0.315656841 0.446515769
vn -0.837248087 0.31565699 0.446515828
vn -0.837244272 0.315666735 0.446516067
vn -0.837244689 0.315657258 0.446521938
vn -0.837244272 0.315666735 0.446516037
vn 0.220039636 0.930793524 -0.291900694
vn 0.220039636 0.930793524 -0.291900694
vn 0.220039636 0.930793524 -0.291900694
vn 0.220144272 0.930802584 -0.291792959
vn 0.220144272 0.930802584 -0.291792929
vn 0.220141873 0.930802584 -0.291794628
vn 0.220130622 0.930806816 -0.2917898
vn 0.220110059 0.930807889 -0.291801691
vn 0.220140517 0.930804014 -0.291791141
vn 0.220110059 0.930807889 -0.291801691
vn 0.220119059 0.930811703 -0.291782796
vn 0.220130622 0.930806816 -0.29178977
vn 0.220119074 0.930811703 -0.291782796
vn 0.220114633 0.930801988 -0.291817188
vn 0.220141515 0.930803239 -0.291793108
vn 0.2201415 0.930803239 -0.291793108
vn 0.220139086 0.930804431 -0.291790903
vn 0.220114633 0.930801988 -0.291817188
vn 0.220139116 0.930804431 -0.291790903
g A_build_th_jm_v_038_0
f 3/3/3 2/2/2 1/1/1
f 6/6/6 5/5/5 4/4/4
f 9/9/9 8/8/8 7/7/7
f 12/12/12 11/11/11 10/10/10
f 15/15/15 14/14/14 13/13/13
f 18/18/18 17/17/17 16/16/16
f 21/21/21 20/20/20 19/19/19
f 24/24/24 23/23/23 22/22/22
f 27/27/27 26/26/26 25/25/25
f 25/25/25 29/29/29 28/28/28
f 30/30/30 28/28/28 29/29/29
f 33/33/33 32/32/32 31/31/31
f 36/36/36 35/35/35 34/34/34
f 39/39/39 38/38/38 37/37/37
f 42/42/42 41/41/41 40/40/40
f 45/45/45 44/44/44 43/43/43
f 48/48/48 47/47/47 46/46/46
f 51/51/51 50/50/50 49/49/49
f 54/54/54 53/53/53 52/52/52
f 53/53/53 55/55/55 52/52/52
f 55/55/55 56/56/56 52/52/52
f 56/56/56 57/57/57 52/52/52
f 60/60/60 59/59/59 58/58/58
f 61/61/61 58/58/58 59/59/59
f 64/64/64 63/63/63 62/62/62
f 65/65/65 62/62/62 63/63/63
f 68/68/68 67/67/67 66/66/66
f 68/68/68 69/69/69 67/67/67
f 72/72/72 71/71/71 70/70/70
f 72/72/72 73/73/73 71/71/71
f 76/76/76 75/75/75 74/74/74
f 76/76/76 77/77/77 75/75/75
f 80/80/80 79/79/79 78/78/78
f 80/80/80 81/81/81 79/79/79
f 84/84/84 83/83/83 82/82/82
f 84/84/84 85/85/85 83/83/83
f 88/88/88 87/87/87 86/86/86
f 88/88/88 89/89/89 87/87/87
f 92/92/92 91/91/91 90/90/90
f 92/92/92 93/93/93 91/91/91
f 96/96/96 95/95/95 94/94/94
f 96/96/96 97/97/97 95/95/95
f 100/100/100 99/99/99 98/98/98
f 101/101/101 98/98/98 99/99/99
f 101/101/101 99/99/99 102/102/102
f 103/103/103 101/101/101 102/102/102
f 103/103/103 104/104/104 101/101/101
f 105/105/105 104/104/104 103/103/103
f 108/108/108 107/107/107 106/106/106
f 109/109/109 106/106/106 107/107/107
f 112/112/112 111/111/111 110/110/110
f 113/113/113 110/110/110 111/111/111
f 116/116/116 115/115/115 114/114/114
f 117/117/117 114/114/114 115/115/115
f 120/120/120 119/119/119 118/118/118
f 121/121/121 118/118/118 119/119/119
f 124/124/124 123/123/123 122/122/122
f 125/125/125 122/122/122 123/123/123
f 128/128/128 127/127/127 126/126/126
f 127/127/127 129/129/129 126/126/126
f 129/129/129 130/130/130 126/126/126
f 131/131/131 129/129/129 127/127/127
f 132/132/132 131/131/131 127/127/127
f 133/133/133 132/132/132 127/127/127
f 134/134/134 129/129/129 131/131/131
f 135/135/135 134/134/134 131/131/131
f 136/136/136 129/129/129 134/134/134
f 139/139/139 138/138/138 137/137/137
f 138/138/138 140/140/140 137/137/137
f 140/140/140 141/141/141 137/137/137
f 142/142/142 140/140/140 138/138/138
f 143/143/143 142/142/142 138/138/138
f 144/144/144 143/143/143 138/138/138
f 145/145/145 144/144/144 138/138/138
f 146/146/146 143/143/143 144/144/144
f 147/147/147 142/142/142 143/143/143
f 148/148/148 147/147/147 143/143/143
f 149/149/149 142/142/142 147/147/147
f 150/150/150 140/140/140 142/142/142
f 151/151/151 150/150/150 142/142/142
f 152/152/152 150/150/150 151/151/151
f 153/153/153 140/140/140 150/150/150
f 154/154/154 153/153/153 150/150/150
f 155/155/155 140/140/140 153/153/153
