g A_build_th_jm_v_025
v -0.203461751 0.235831335 -0.194924057
v -0.205941379 -0.41229558 0.271270573
v -0.194404945 -0.398122579 0.21369803
v 0.243484721 -0.157729521 0.163526669
v 0.246010125 -0.252942711 0.226967826
v 0.244086474 -0.255398154 0.237082496
v 0.243484721 -0.157729521 0.163526669
v 0.245145783 -0.23178488 0.107178487
v 0.246010125 -0.252942711 0.226967826
v -0.0284652375 0.0572934002 -0.326454639
v -0.0431383625 -0.296627432 -0.0701166987
v -0.022735415 -0.286006182 -0.0912606567
v 0.00631267764 0.629510403 -0.440058947
v 0.0256210435 0.610441387 -0.443665206
v 0.0247614793 0.502381325 -0.25793004
v 0.0247614793 0.502381325 -0.25793004
v 0.0256210435 0.610441387 -0.443665206
v 0.0441403836 0.571510077 -0.41796571
v 0.0441403836 0.571510077 -0.41796571
v 0.0256210435 0.610441387 -0.443665206
v 0.0562916026 0.494370192 -0.426499486
v 0.00631267764 0.629510403 -0.440058947
v 0.0247614793 0.502381325 -0.25793004
v -0.0119476654 0.616324782 -0.441122442
v -0.166253805 0.212352931 -0.00815003552
v -0.196410954 0.322260946 -0.179250062
v -0.162251264 0.395312309 -0.244341388
v -0.00344932312 0.560330153 -0.462198287
v -0.000554732338 0.599506795 -0.462450117
v -0.0320037343 0.592968464 -0.422189206
v -0.000554732338 0.599506795 -0.462450117
v -0.0119476654 0.616324782 -0.441122442
v -0.0320037343 0.592968464 -0.422189206
v -0.00344932312 0.560330153 -0.462198287
v 0.00764888478 0.284730285 -0.391177326
v 0.0562916026 0.494370192 -0.426499486
v 0.00631267764 0.629510403 -0.440058947
v -0.0119476654 0.616324782 -0.441122442
v -0.000554732338 0.599506795 -0.462450117
v 0.00631267764 0.629510403 -0.440058947
v -0.000554732338 0.599506795 -0.462450117
v 0.0231995583 0.610110819 -0.455278635
v 0.0562916026 0.494370192 -0.426499486
v 0.0231995583 0.610110819 -0.455278635
v -0.00344932312 0.560330153 -0.462198287
v 0.0231995583 0.610110819 -0.455278635
v -0.000554732338 0.599506795 -0.462450117
v -0.00344932312 0.560330153 -0.462198287
v -0.0616635978 0.420196056 -0.42061013
v -0.00344932312 0.560330153 -0.462198287
v -0.0320037343 0.592968464 -0.422189206
v 0.0835088342 0.261866957 0.0692594349
v 0.0247614793 0.502381325 -0.25793004
v 0.13313657 0.325210392 -0.182183057
v 0.0441403836 0.571510077 -0.41796571
v 0.13313657 0.325210392 -0.182183057
v 0.0247614793 0.502381325 -0.25793004
v 0.180468276 0.165527105 -0.0399577841
v 0.220418692 -0.0171787962 0.136659145
v 0.193799049 0.0154959532 0.170969352
v 0.00631267764 0.629510403 -0.440058947
v 0.0231995583 0.610110819 -0.455278635
v 0.0256210435 0.610441387 -0.443665206
v 0.0562916026 0.494370192 -0.426499486
v 0.0256210435 0.610441387 -0.443665206
v 0.0231995583 0.610110819 -0.455278635
v 0.0462247767 0.0318465047 -0.31675154
v 0.164586589 0.0260892995 -0.248496115
v 0.104233995 0.296304405 -0.355492979
v -0.0284652375 0.0572934002 -0.326454639
v 0.0462247767 0.0318465047 -0.31675154
v 0.00764888478 0.284730285 -0.391177326
v -0.196410954 0.322260946 -0.179250062
v -0.203461751 0.235831335 -0.194924057
v -0.162251264 0.395312309 -0.244341388
v 0.153140828 -0.229446843 -0.0780457184
v 0.16915217 -0.224485904 -0.0757920817
v 0.164586589 0.0260892995 -0.248496115
v 0.217409685 -0.220311165 -0.00880585797
v 0.21954377 -0.220464453 -0.00395692885
v 0.217321545 -0.15818724 -0.0501149148
v 0.21954377 -0.220464453 -0.00395692885
v 0.240609393 -0.227422938 0.0743266121
v 0.217321545 -0.15818724 -0.0501149148
v 0.0126568703 -0.388460398 0.547201753
v -0.0239291172 -0.399849236 0.542349041
v -0.00235748081 0.163114846 0.150695652
v -0.156075314 -0.430290967 0.465092182
v -0.176315397 -0.428693026 0.418293118
v -0.166253805 0.212352931 -0.00815003552
v 0.200931698 -0.297593653 0.392002225
v 0.180835441 -0.308149606 0.413353592
v 0.193799049 0.0154959532 0.170969352
v 0.0462247767 0.0318465047 -0.31675154
v 0.153140828 -0.229446843 -0.0780457184
v 0.164586589 0.0260892995 -0.248496115
v 0.044194147 -0.259015769 -0.116765499
v -0.106704921 -0.326844782 -0.0202972591
v -0.131474867 0.219562948 -0.361306667
v -0.135862634 -0.346374393 0.0342191793
v -0.0984624177 0.119682617 -0.339104444
v 0.0126568703 -0.388460398 0.547201753
v 0.0835088342 0.261866957 0.0692594349
v 0.0826860592 -0.359815449 0.518256366
v -0.00235748081 0.163114846 0.150695652
v 0.224027947 -0.278037101 0.325992554
v 0.243484721 -0.157729521 0.163526669
v 0.244086474 -0.255398154 0.237082496
v 0.220418692 -0.0171787962 0.136659145
v 0.217321545 -0.15818724 -0.0501149148
v 0.16915217 -0.224485904 -0.0757920817
v 0.217409685 -0.220311165 -0.00880585797
v 0.164586589 0.0260892995 -0.248496115
v -0.0284652375 0.0572934002 -0.326454639
v 0.044194147 -0.259015769 -0.116765499
v 0.0462247767 0.0318465047 -0.31675154
v -0.022735415 -0.286006182 -0.0912606567
v -0.166253805 0.212352931 -0.00815003552
v -0.104080662 -0.421324283 0.512306929
v -0.156075314 -0.430290967 0.465092182
v -0.100775577 0.164795369 0.0936833769
v -0.0320037343 0.592968464 -0.422189206
v -0.0119476654 0.616324782 -0.441122442
v 0.0247614793 0.502381325 -0.25793004
v -0.106992036 0.487091959 -0.333394527
v -0.162251264 0.395312309 -0.244341388
v -0.166253805 0.212352931 -0.00815003552
v -0.100775577 0.164795369 0.0936833769
v -0.00235748081 0.163114846 0.150695652
v 0.0247614793 0.502381325 -0.25793004
v 0.0835088342 0.261866957 0.0692594349
v -0.203461751 0.235831335 -0.194924057
v -0.200565159 0.174232006 -0.220508724
v -0.162251264 0.395312309 -0.244341388
v -0.166303173 0.190846488 -0.296859831
v -0.131474867 0.219562948 -0.361306667
v -0.106992036 0.487091959 -0.333394527
v 0.00764888478 0.284730285 -0.391177326
v 0.104233995 0.296304405 -0.355492979
v 0.0562916026 0.494370192 -0.426499486
v 0.0462247767 0.0318465047 -0.31675154
v -0.106992036 0.487091959 -0.333394527
v -0.131474867 0.219562948 -0.361306667
v -0.0616635978 0.420196056 -0.42061013
v -0.0320037343 0.592968464 -0.422189206
v 0.00764888478 0.284730285 -0.391177326
v -0.00344932312 0.560330153 -0.462198287
v -0.0616635978 0.420196056 -0.42061013
v -0.131474867 0.219562948 -0.361306667
v -0.0984624177 0.119682617 -0.339104444
v -0.0284652375 0.0572934002 -0.326454639
v 0.180468276 0.165527105 -0.0399577841
v 0.164586589 0.0260892995 -0.248496115
v 0.217321545 -0.15818724 -0.0501149148
v 0.13313657 0.325210392 -0.182183057
v 0.104233995 0.296304405 -0.355492979
v 0.0441403836 0.571510077 -0.41796571
v 0.0562916026 0.494370192 -0.426499486
v 0.180468276 0.165527105 -0.0399577841
v 0.193799049 0.0154959532 0.170969352
v 0.141739234 0.123419598 0.141698375
v 0.0835088342 0.261866957 0.0692594349
v 0.13313657 0.325210392 -0.182183057
v 0.217321545 -0.15818724 -0.0501149148
v 0.220418692 -0.0171787962 0.136659145
v 0.180468276 0.165527105 -0.0399577841
v 0.243484721 -0.157729521 0.163526669
v 0.240609393 -0.227422938 0.0743266121
v 0.245145783 -0.23178488 0.107178487
v -0.0284652375 0.0572934002 -0.326454639
v -0.106704921 -0.326844782 -0.0202972591
v -0.0431383625 -0.296627432 -0.0701166987
v -0.0984624177 0.119682617 -0.339104444
v -0.192904592 -0.386648476 0.152419567
v -0.166303173 0.190846488 -0.296859831
v -0.200565159 0.174232006 -0.220508724
v -0.164652199 -0.364917457 0.08391314
v -0.176315397 -0.428693026 0.418293118
v -0.196410954 0.322260946 -0.179250062
v -0.166253805 0.212352931 -0.00815003552
v -0.200800091 -0.422651708 0.338732183
v 0.141739234 0.123419598 0.141698375
v 0.0826860592 -0.359815449 0.518256366
v 0.0835088342 0.261866957 0.0692594349
v 0.132076338 -0.336023092 0.477791965
v -0.196410954 0.322260946 -0.179250062
v -0.205941379 -0.41229558 0.271270573
v -0.203461751 0.235831335 -0.194924057
v -0.200800091 -0.422651708 0.338732183
v -0.0239291172 -0.399849236 0.542349041
v -0.100775577 0.164795369 0.0936833769
v -0.00235748081 0.163114846 0.150695652
v -0.104080662 -0.421324283 0.512306929
v 0.193799049 0.0154959532 0.170969352
v 0.132076338 -0.336023092 0.477791965
v 0.141739234 0.123419598 0.141698375
v 0.180835441 -0.308149606 0.413353592
v 0.193799049 0.0154959532 0.170969352
v 0.224027947 -0.278037101 0.325992554
v 0.200931698 -0.297593653 0.392002225
v 0.220418692 -0.0171787962 0.136659145
v -0.166303173 0.190846488 -0.296859831
v -0.135862634 -0.346374393 0.0342191793
v -0.131474867 0.219562948 -0.361306667
v -0.164652199 -0.364917457 0.08391314
v -0.200565159 0.174232006 -0.220508724
v -0.194404945 -0.398122579 0.21369803
v -0.192904592 -0.386648476 0.152419567
v -0.203461751 0.235831335 -0.194924057
v -0.0431383625 -0.296627432 -0.0701166987
v 0.044194147 -0.259015769 -0.116765499
v -0.022735415 -0.286006182 -0.0912606567
v 0.217409685 -0.220311165 -0.00880585797
v 0.180835441 -0.308149606 0.413353592
v 0.153140828 -0.229446843 -0.0780457184
v 0.16915217 -0.224485904 -0.0757920817
v 0.246010125 -0.252942711 0.226967826
v 0.240609393 -0.227422938 0.0743266121
v 0.21954377 -0.220464453 -0.00395692885
v 0.245145783 -0.23178488 0.107178487
v 0.224027947 -0.278037101 0.325992554
v 0.244086474 -0.255398154 0.237082496
v 0.200931698 -0.297593653 0.392002225
v -0.200800091 -0.422651708 0.338732183
v -0.164652199 -0.364917457 0.08391314
v -0.135862634 -0.346374393 0.0342191793
v -0.106704921 -0.326844782 -0.0202972591
v -0.194404945 -0.398122579 0.21369803
v -0.192904592 -0.386648476 0.152419567
v -0.205941379 -0.41229558 0.271270573
v -0.0239291172 -0.399849236 0.542349041
v 0.0826860592 -0.359815449 0.518256366
v 0.132076338 -0.336023092 0.477791965
v 0.0126568703 -0.388460398 0.547201753
v -0.156075314 -0.430290967 0.465092182
v -0.104080662 -0.421324283 0.512306929
v -0.176315397 -0.428693026 0.418293118
vt 0.58949995 0.335371614
vt 0.588262141 0.270696461
vt 0.585088193 0.274397671
vt 0.642972708 0.291458726
vt 0.643196762 0.282192409
vt 0.642620146 0.281562418
vt 0.642972708 0.291458726
vt 0.650158882 0.289167762
vt 0.643196762 0.282192409
vt 0.679937541 0.328977525
vt 0.682164907 0.293608636
vt 0.680238605 0.295259058
vt 0.2449314 0.92318815
vt 0.247024268 0.922347486
vt 0.244234443 0.905104339
vt 0.244234443 0.905104339
vt 0.247024268 0.922347486
vt 0.248620957 0.918545306
vt 0.248620957 0.918545306
vt 0.247024268 0.922347486
vt 0.254172266 0.915531218
vt 0.2449314 0.92318815
vt 0.244234443 0.905104339
vt 0.24310185 0.922831178
vt 0.223930806 0.87719512
vt 0.22323437 0.89385134
vt 0.227416456 0.901002944
vt 0.23814714 0.924383283
vt 0.241491005 0.924733877
vt 0.241098583 0.92066741
vt 0.241491005 0.924733877
vt 0.24310185 0.922831178
vt 0.241098583 0.92066741
vt 0.252536416 0.923132718
vt 0.27007243 0.90771234
vt 0.254172266 0.915531218
vt 0.850817561 0.61289072
vt 0.850599051 0.614880562
vt 0.85317862 0.615308106
vt 0.850817561 0.61289072
vt 0.85317862 0.615308106
vt 0.853470445 0.612930417
vt 0.254172266 0.915531218
vt 0.247642219 0.923152745
vt 0.252536416 0.923132718
vt 0.247642219 0.923152745
vt 0.249478519 0.924489081
vt 0.252536416 0.923132718
vt 0.226838425 0.917609036
vt 0.23814714 0.924383283
vt 0.241098583 0.92066741
vt 0.244952902 0.87189424
vt 0.244234443 0.905104339
vt 0.254872382 0.890833974
vt 0.248620957 0.918545306
vt 0.254872382 0.890833974
vt 0.244234443 0.905104339
vt 0.259091794 0.873771787
vt 0.263189286 0.853408217
vt 0.258801758 0.852850735
vt 0.850817561 0.61289072
vt 0.853470445 0.612930417
vt 0.853062451 0.61195904
vt 0.254172266 0.915531218
vt 0.247024268 0.922347486
vt 0.247642219 0.923152745
vt 0.28392002 0.891096592
vt 0.277960092 0.881623209
vt 0.264457762 0.901486874
vt 0.286300361 0.897140145
vt 0.28392002 0.891096592
vt 0.27007243 0.90771234
vt 0.22323437 0.89385134
vt 0.216057703 0.893338799
vt 0.227416456 0.901002944
vt 0.665058255 0.298079848
vt 0.663708627 0.298280776
vt 0.663489759 0.322935343
vt 0.657676578 0.295368314
vt 0.657322347 0.295130312
vt 0.657492161 0.301409066
vt 0.657322347 0.295130312
vt 0.652190328 0.290992528
vt 0.657492161 0.301409066
vt 0.616460919 0.25867331
vt 0.613383591 0.258209705
vt 0.616470277 0.313706875
vt 0.600771248 0.260118484
vt 0.597410798 0.262490362
vt 0.600987852 0.3247751
vt 0.633502066 0.271618873
vt 0.631615341 0.269953847
vt 0.633557498 0.302663267
vt 0.6739133 0.326695681
vt 0.665058255 0.298079848
vt 0.663489759 0.322935343
vt 0.67472893 0.298107356
vt 0.687765062 0.289429754
vt 0.68978858 0.341632545
vt 0.691460371 0.285694957
vt 0.685846508 0.333862185
vt 0.616460919 0.25867331
vt 0.623690426 0.323894262
vt 0.622233331 0.26179871
vt 0.616470277 0.313706875
vt 0.637479603 0.275953412
vt 0.642972708 0.291458726
vt 0.642620146 0.281562418
vt 0.637919784 0.302056253
vt 0.657492161 0.301409066
vt 0.663708627 0.298280776
vt 0.657676578 0.295368314
vt 0.663489759 0.322935343
vt 0.679937541 0.328977525
vt 0.67472893 0.298107356
vt 0.6739133 0.326695681
vt 0.680238605 0.295259058
vt 0.600987852 0.3247751
vt 0.606233597 0.258364052
vt 0.600771248 0.260118484
vt 0.607749343 0.316692293
vt 0.241098583 0.92066741
vt 0.24310185 0.922831178
vt 0.244234443 0.905104339
vt 0.233303919 0.91058588
vt 0.227416456 0.901002944
vt 0.223930806 0.87719512
vt 0.228446811 0.867643654
vt 0.236321315 0.862832963
vt 0.244234443 0.905104339
vt 0.244952902 0.87189424
vt 0.216057703 0.893338799
vt 0.210729167 0.89426589
vt 0.227416456 0.901002944
vt 0.210536316 0.901287079
vt 0.211642891 0.907691479
vt 0.233303919 0.91058588
vt 0.27007243 0.90771234
vt 0.264457762 0.901486874
vt 0.254172266 0.915531218
vt 0.28392002 0.891096592
vt 0.233303919 0.91058588
vt 0.211642891 0.907691479
vt 0.226838425 0.917609036
vt 0.241098583 0.92066741
vt 0.27007243 0.90771234
vt 0.252536416 0.923132718
vt 0.264888912 0.919229031
vt 0.281776935 0.912472129
vt 0.286220074 0.904874742
vt 0.286300361 0.897140145
vt 0.259091794 0.873771787
vt 0.277960092 0.881623209
vt 0.281205446 0.859449685
vt 0.254872382 0.890833974
vt 0.264457762 0.901486874
vt 0.248620957 0.918545306
vt 0.254172266 0.915531218
vt 0.259091794 0.873771787
vt 0.258801758 0.852850735
vt 0.251939744 0.860160172
vt 0.244952902 0.87189424
vt 0.254872382 0.890833974
vt 0.281205446 0.859449685
vt 0.263189286 0.853408217
vt 0.259091794 0.873771787
vt 0.271401286 0.845013142
vt 0.280143738 0.847802103
vt 0.278932631 0.845375597
vt 0.679937541 0.328977525
vt 0.687765062 0.289429754
vt 0.682164907 0.293608636
vt 0.685846508 0.333862185
vt 0.581675231 0.278124213
vt 0.579874635 0.337436616
vt 0.584839106 0.332625151
vt 0.577610731 0.282882243
vt 0.597410798 0.262490362
vt 0.594744325 0.340217531
vt 0.600987852 0.3247751
vt 0.592158318 0.266749889
vt 0.628462076 0.311258495
vt 0.622233331 0.26179871
vt 0.623690426 0.323894262
vt 0.626595259 0.265183061
vt 0.594744325 0.340217531
vt 0.588262141 0.270696461
vt 0.58949995 0.335371614
vt 0.592158318 0.266749889
vt 0.613383591 0.258209705
vt 0.607749343 0.316692293
vt 0.616470277 0.313706875
vt 0.606233597 0.258364052
vt 0.633557498 0.302663267
vt 0.626595259 0.265183061
vt 0.628462076 0.311258495
vt 0.631615341 0.269953847
vt 0.633557498 0.302663267
vt 0.637479603 0.275953412
vt 0.633502066 0.271618873
vt 0.637919784 0.302056253
vt 0.579874635 0.337436616
vt 0.574354351 0.286530823
vt 0.57595861 0.3424685
vt 0.577610731 0.282882243
vt 0.584839106 0.332625151
vt 0.585088193 0.274397671
vt 0.581675231 0.278124213
vt 0.58949995 0.335371614
vt 0.954861462 0.251242548
vt 0.962342858 0.264335245
vt 0.958091259 0.25430131
vt 0.948183894 0.290303379
vt 0.886815608 0.284820229
vt 0.95765841 0.280668318
vt 0.95746702 0.283068717
vt 0.914322257 0.294591099
vt 0.936354756 0.29378143
vt 0.947500467 0.290623337
vt 0.931641221 0.294461519
vt 0.899814606 0.291295618
vt 0.912843108 0.294302702
vt 0.890072823 0.287833035
vt 0.894400477 0.227606192
vt 0.931561232 0.233025402
vt 0.938990831 0.237341464
vt 0.947121203 0.241712734
vt 0.912539124 0.228564933
vt 0.921414912 0.228789851
vt 0.904114842 0.226835445
vt 0.866436422 0.254122376
vt 0.870817482 0.270105869
vt 0.877085447 0.277510375
vt 0.866042137 0.259607226
vt 0.876499891 0.234311238
vt 0.870107889 0.242106184
vt 0.883098662 0.2312769
vn -0.958792388 -0.163471863 -0.232366383
vn -0.958792388 -0.163471863 -0.232366383
vn -0.958792388 -0.163471863 -0.232366383
vn 0.958511412 0.175230995 0.224833086
vn 0.958511531 0.17523101 0.224833086
vn 0.958511412 0.175230995 0.224833116
vn 0.999693155 0.0246049594 -0.00286740274
vn 0.999693155 0.0246049613 -0.00286740274
vn 0.999693155 0.0246049613 -0.00286740297
vn -0.483907998 -0.5000844 -0.718156397
vn -0.483907998 -0.5000844 -0.718156397
vn -0.483907998 -0.5000844 -0.718156397
vn 0.687331319 0.626433015 0.367637426
vn 0.687331319 0.626433015 0.367637426
vn 0.687331319 0.626433015 0.367637426
vn 0.742713571 0.577281356 0.339297503
vn 0.742713571 0.577281356 0.339297503
vn 0.742713571 0.577281415 0.339297503
vn 0.908455014 0.184588537 -0.375015318
vn 0.908455014 0.184588522 -0.375015318
vn 0.908455014 0.184588522 -0.375015318
vn -0.518417478 0.675664365 0.524138451
vn -0.518417418 0.675664365 0.524138451
vn -0.518417478 0.675664365 0.524138451
vn -0.478034705 0.698283851 0.532806218
vn -0.478034705 0.698283851 0.532806218
vn -0.478034765 0.698283851 0.532806218
vn -0.791175067 0.0545408018 -0.609152853
vn -0.791175067 0.0545408018 -0.609152853
vn -0.791175067 0.0545408018 -0.609152853
vn -0.787256956 0.2044359 -0.58174938
vn -0.787256956 0.2044359 -0.58174938
vn -0.787256896 0.204435885 -0.581749439
vn 0.303245038 -0.226323679 -0.925645709
vn 0.303245038 -0.226323709 -0.925645709
vn 0.303245068 -0.226323709 -0.925645709
vn -0.397103727 0.605559707 -0.689642072
vn -0.397103757 0.605559707 -0.689642072
vn -0.397103727 0.605559707 -0.689642072
vn -0.0277702902 0.601935863 -0.79806143
vn -0.0277702902 0.601935863 -0.79806143
vn -0.0277702902 0.601935863 -0.79806143
vn 0.424629509 -0.102272376 -0.899572194
vn 0.424629509 -0.102272376 -0.899572194
vn 0.424629539 -0.102272399 -0.899572194
vn 0.300470144 -0.0283286218 -0.953370392
vn 0.300470144 -0.028328618 -0.953370392
vn 0.300470144 -0.0283286218 -0.953370392
vn -0.757011533 0.124093153 -0.641509473
vn -0.757011592 0.124093153 -0.641509473
vn -0.757011533 0.124093167 -0.641509473
vn 0.752984405 0.587404907 0.296597242
vn 0.752984345 0.587404907 0.296597213
vn 0.752984345 0.587404907 0.296597213
vn 0.728253186 0.5926162 0.344170481
vn 0.728253245 0.5926162 0.344170451
vn 0.728253245 0.5926162 0.344170421
vn 0.863316119 0.435414881 0.25514552
vn 0.863316119 0.435414881 0.25514552
vn 0.863316119 0.435414821 0.25514552
vn 0.677966416 0.717070997 -0.161773697
vn 0.677966356 0.717070997 -0.161773697
vn 0.677966297 0.717070997 -0.161773697
vn 0.953332901 0.221578047 -0.205084383
vn 0.953332901 0.221578047 -0.205084383
vn 0.953332901 0.221578047 -0.205084398
vn 0.477889806 -0.229056895 -0.848029613
vn 0.477889776 -0.22905688 -0.848029673
vn 0.477889806 -0.229056895 -0.848029613
vn 0.030018501 -0.27799052 -0.960114658
vn 0.030018501 -0.27799049 -0.960114658
vn 0.030018501 -0.27799049 -0.960114658
vn -0.932038426 0.136879429 -0.335511923
vn -0.932038546 0.136879444 -0.335511923
vn -0.932038546 0.136879444 -0.335511953
vn 0.279372364 -0.541443765 -0.79296267
vn 0.279372305 -0.541443646 -0.79296267
vn 0.279372305 -0.541443706 -0.79296267
vn 0.880258858 -0.261864275 -0.395691186
vn 0.880258858 -0.261864275 -0.395691186
vn 0.880258858 -0.261864275 -0.395691156
vn 0.94840008 -0.166265056 -0.269987494
vn 0.94840008 -0.166265056 -0.269987494
vn 0.94840008 -0.166265056 -0.269987553
vn -0.276994735 0.55587399 0.783758938
vn -0.276994735 0.55587393 0.783758938
vn -0.276994735 0.55587399 0.783758938
vn -0.879527867 0.273051471 0.3897098
vn -0.879527867 0.273051441 0.389709741
vn -0.879527867 0.273051471 0.3897098
vn 0.484761387 0.511780739 0.709286273
vn 0.484761357 0.51178062 0.709286273
vn 0.484761357 0.51178062 0.709286273
vn 0.407843947 -0.519233704 -0.751039028
vn 0.407844037 -0.519233704 -0.751039028
vn 0.407843947 -0.519233704 -0.751039028
vn 0.407844007 -0.519233704 -0.751039028
vn -0.757619739 -0.369940192 -0.537732959
vn -0.757619739 -0.369940162 -0.537732959
vn -0.757620275 -0.369939834 -0.537732422
vn -0.757619739 -0.369940102 -0.537732899
vn 0.0952114463 0.582751393 0.807053685
vn 0.0952114463 0.582751393 0.807053626
vn 0.0952120498 0.582751334 0.807053626
vn 0.0952114463 0.582751393 0.807053685
vn 0.942199111 0.20524998 0.264826685
vn 0.942199111 0.205249965 0.264826715
vn 0.942198932 0.205250666 0.264827192
vn 0.942199111 0.205249965 0.264826685
vn 0.769469857 -0.352885962 -0.532341599
vn 0.769469857 -0.352885962 -0.532341599
vn 0.769470096 -0.352886319 -0.532341123
vn 0.769469917 -0.352885932 -0.532341599
vn -0.0854890421 -0.564084291 -0.821279824
vn -0.0854890421 -0.564084291 -0.821279824
vn -0.085489966 -0.564084411 -0.821279585
vn -0.0854890347 -0.564084232 -0.821279824
vn -0.642150104 0.447936028 0.622090399
vn -0.642150104 0.447936028 0.622090399
vn -0.642150044 0.447936058 0.622090459
vn -0.642150104 0.447936028 0.622090518
vn -0.366705865 0.755257249 0.543243349
vn -0.366705865 0.755257249 0.543243349
vn -0.366705865 0.755257249 0.543243349
vn -0.391511679 0.751269817 0.531330645
vn -0.391511708 0.751269817 0.531330705
vn -0.361749977 0.733654141 0.575229108
vn -0.329271495 0.737102389 0.590135813
vn -0.288684338 0.745953858 0.60017848
vn -0.288684309 0.745953798 0.60017854
vn -0.288684338 0.745953798 0.60017854
vn -0.915263295 0.117063627 -0.385472655
vn -0.915263295 0.117063627 -0.385472625
vn -0.895220697 0.127422825 -0.427016795
vn -0.895220697 0.127422825 -0.427016795
vn -0.895220697 0.127422825 -0.427016795
vn -0.895991445 0.126410931 -0.425699055
vn 0.361529887 -0.235868841 -0.902032197
vn 0.361529857 -0.235868841 -0.902032197
vn 0.361529887 -0.235868841 -0.902032197
vn 0.360944659 -0.212208077 -0.908122599
vn -0.834411561 0.132184952 -0.535055578
vn -0.834411442 0.132184952 -0.535055637
vn -0.834411561 0.132184952 -0.535055578
vn -0.831627488 0.137848943 -0.537953079
vn -0.0924148634 -0.24507314 -0.965089917
vn -0.0826895386 -0.251809925 -0.96423763
vn -0.0826895535 -0.251809955 -0.96423763
vn -0.0924148634 -0.245073169 -0.965089917
vn -0.0924148634 -0.245073169 -0.965089917
vn -0.0614894852 -0.264144957 -0.962520838
vn 0.975858331 0.139802471 -0.167796627
vn 0.975858331 0.139802486 -0.167796612
vn 0.98138833 0.116515778 -0.152647257
vn 0.975858331 0.139802471 -0.167796597
vn 0.967380822 0.168244123 -0.189389408
vn 0.967380822 0.168244123 -0.189389408
vn 0.969477415 0.172039226 -0.174688071
vn 0.818748355 0.49582991 0.28948915
vn 0.829721272 0.478284419 0.287761569
vn 0.818748355 0.49582991 0.28948915
vn 0.818748355 0.49582991 0.28948915
vn 0.818226218 0.49814114 0.286986828
vn 0.987849653 0.115716904 -0.103743397
vn 0.987849653 0.115716927 -0.103743412
vn 0.987849653 0.115716904 -0.103743397
vn 0.98301667 0.138255715 -0.120679326
vn 0.986063063 0.114185944 -0.121000841
vn 0.986062944 0.114186317 -0.121001124
vn -0.343916625 -0.54140985 -0.767200649
vn -0.343916625 -0.54140985 -0.767200649
vn -0.343915612 -0.541410148 -0.767200768
vn -0.343916625 -0.54140985 -0.767200649
vn -0.841554523 -0.307006001 -0.44444719
vn -0.841554523 -0.307006001 -0.44444719
vn -0.841554105 -0.307006359 -0.444447666
vn -0.841554523 -0.307006001 -0.444447219
vn -0.928572595 0.215563431 0.302134454
vn -0.928572595 0.215563431 0.302134484
vn -0.928572536 0.215563715 0.302134812
vn -0.928572595 0.215563431 0.302134484
vn 0.357243121 0.546547234 0.757405758
vn 0.35724315 0.546547234 0.757405758
vn 0.357242525 0.546547413 0.757405877
vn 0.357243121 0.546547294 0.757405758
vn -0.994152367 0.0655373484 0.0858255625
vn -0.994152367 0.0655373484 0.0858255625
vn -0.994152367 0.0655371398 0.0858252645
vn -0.994152367 0.0655373409 0.0858255774
vn -0.418453574 0.529436231 0.737966001
vn -0.418453634 0.52943629 0.737966001
vn -0.418453425 0.52943635 0.737966061
vn -0.418453574 0.52943629 0.737966001
vn 0.597307324 0.465298086 0.653239369
vn 0.597307324 0.465298086 0.653239369
vn 0.597307324 0.465298086 0.653239369
vn 0.597307324 0.465298086 0.65323931
vn 0.870470166 0.296960682 0.392550468
vn 0.870470166 0.296960682 0.392550468
vn 0.870470464 0.296960533 0.392550111
vn 0.870470285 0.296960711 0.392550498
vn -0.726101518 -0.390093148 -0.566219091
vn -0.726101518 -0.390093148 -0.566219091
vn -0.726102173 -0.39009276 -0.566218495
vn -0.726101518 -0.390093148 -0.566219091
vn -0.998940051 -0.0341584533 -0.0308541209
vn -0.998940051 -0.0341584496 -0.0308541171
vn -0.998940051 -0.0341584422 -0.0308541004
vn -0.998940051 -0.0341584496 -0.0308541209
vn 0.313205928 -0.934822142 -0.167360231
vn 0.313205957 -0.934822261 -0.167360246
vn 0.313205928 -0.934822142 -0.167360231
vn 0.313095152 -0.934861124 -0.167350143
vn 0.313191146 -0.934823215 -0.167382687
vn 0.313202053 -0.934821248 -0.167373314
vn 0.313202411 -0.93482101 -0.167373732
vn 0.313118815 -0.934844971 -0.167395785
vn 0.313215107 -0.934816957 -0.167372212
vn 0.313095123 -0.934861124 -0.167350143
vn 0.313215107 -0.934816957 -0.167372227
vn 0.313212246 -0.934818923 -0.167366713
vn 0.313118815 -0.93484509 -0.167395785
vn 0.313212246 -0.934818923 -0.167366698
vn 0.313187033 -0.934825897 -0.167374894
vn 0.313200504 -0.934821308 -0.167375147
vn 0.313210249 -0.934819758 -0.167365745
vn 0.313210279 -0.934819758 -0.167365745
vn 0.31319657 -0.934823096 -0.167372957
vn 0.313196599 -0.934823096 -0.167372972
vn 0.313187003 -0.934825897 -0.167374894
vn 0.313201785 -0.934821129 -0.167374581
vn 0.313200682 -0.934821427 -0.167374685
vn 0.313191175 -0.934823215 -0.167382687
vn 0.313200653 -0.934821427 -0.167374671
vn 0.313165337 -0.934835732 -0.167360753
vn 0.313201755 -0.934821129 -0.167374581
vn 0.313165337 -0.934835732 -0.167360753
g A_build_th_jm_v_025_0
f 3/3/3 2/2/2 1/1/1
f 6/6/6 5/5/5 4/4/4
f 9/9/9 8/8/8 7/7/7
f 12/12/12 11/11/11 10/10/10
f 15/15/15 14/14/14 13/13/13
f 18/18/18 17/17/17 16/16/16
f 21/21/21 20/20/20 19/19/19
f 24/24/24 23/23/23 22/22/22
f 27/27/27 26/26/26 25/25/25
f 30/30/30 29/29/29 28/28/28
f 33/33/33 32/32/32 31/31/31
f 36/36/36 35/35/35 34/34/34
f 39/39/39 38/38/38 37/37/37
f 42/42/42 41/41/41 40/40/40
f 45/45/45 44/44/44 43/43/43
f 48/48/48 47/47/47 46/46/46
f 51/51/51 50/50/50 49/49/49
f 54/54/54 53/53/53 52/52/52
f 57/57/57 56/56/56 55/55/55
f 60/60/60 59/59/59 58/58/58
f 63/63/63 62/62/62 61/61/61
f 66/66/66 65/65/65 64/64/64
f 69/69/69 68/68/68 67/67/67
f 72/72/72 71/71/71 70/70/70
f 75/75/75 74/74/74 73/73/73
f 78/78/78 77/77/77 76/76/76
f 81/81/81 80/80/80 79/79/79
f 84/84/84 83/83/83 82/82/82
f 87/87/87 86/86/86 85/85/85
f 90/90/90 89/89/89 88/88/88
f 93/93/93 92/92/92 91/91/91
f 96/96/96 95/95/95 94/94/94
f 97/97/97 94/94/94 95/95/95
f 100/100/100 99/99/99 98/98/98
f 101/101/101 98/98/98 99/99/99
f 104/104/104 103/103/103 102/102/102
f 105/105/105 102/102/102 103/103/103
f 108/108/108 107/107/107 106/106/106
f 109/109/109 106/106/106 107/107/107
f 112/112/112 111/111/111 110/110/110
f 113/113/113 110/110/110 111/111/111
f 116/116/116 115/115/115 114/114/114
f 117/117/117 114/114/114 115/115/115
f 120/120/120 119/119/119 118/118/118
f 121/121/121 118/118/118 119/119/119
f 124/124/124 123/123/123 122/122/122
f 124/124/124 122/122/122 125/125/125
f 124/124/124 125/125/125 126/126/126
f 124/124/124 126/126/126 127/127/127
f 124/124/124 127/127/127 128/128/128
f 130/130/130 128/128/128 129/129/129
f 129/129/129 131/131/131 130/130/130
f 134/134/134 133/133/133 132/132/132
f 135/135/135 133/133/133 134/134/134
f 136/136/136 135/135/135 134/134/134
f 134/134/134 137/137/137 136/136/136
f 140/140/140 139/139/139 138/138/138
f 139/139/139 141/141/141 138/138/138
f 144/144/144 143/143/143 142/142/142
f 144/144/144 142/142/142 145/145/145
f 148/148/148 147/147/147 146/146/146
f 149/149/149 148/148/148 146/146/146
f 150/150/150 149/149/149 146/146/146
f 150/150/150 146/146/146 151/151/151
f 154/154/154 153/153/153 152/152/152
f 153/153/153 155/155/155 152/152/152
f 156/156/156 155/155/155 153/153/153
f 156/156/156 157/157/157 155/155/155
f 156/156/156 158/158/158 157/157/157
f 161/161/161 160/160/160 159/159/159
f 162/162/162 161/161/161 159/159/159
f 162/162/162 159/159/159 163/163/163
f 166/166/166 165/165/165 164/164/164
f 167/167/167 164/164/164 165/165/165
f 164/164/164 167/167/167 168/168/168
f 169/169/169 168/168/168 167/167/167
f 172/172/172 171/171/171 170/170/170
f 173/173/173 170/170/170 171/171/171
f 176/176/176 175/175/175 174/174/174
f 177/177/177 174/174/174 175/175/175
f 180/180/180 179/179/179 178/178/178
f 181/181/181 178/178/178 179/179/179
f 184/184/184 183/183/183 182/182/182
f 185/185/185 182/182/182 183/183/183
f 188/188/188 187/187/187 186/186/186
f 189/189/189 186/186/186 187/187/187
f 192/192/192 191/191/191 190/190/190
f 193/193/193 190/190/190 191/191/191
f 196/196/196 195/195/195 194/194/194
f 197/197/197 194/194/194 195/195/195
f 200/200/200 199/199/199 198/198/198
f 201/201/201 198/198/198 199/199/199
f 204/204/204 203/203/203 202/202/202
f 205/205/205 202/202/202 203/203/203
f 208/208/208 207/207/207 206/206/206
f 209/209/209 206/206/206 207/207/207
f 212/212/212 211/211/211 210/210/210
f 211/211/211 213/213/213 210/210/210
f 213/213/213 214/214/214 210/210/210
f 215/215/215 213/213/213 211/211/211
f 216/216/216 213/213/213 215/215/215
f 217/217/217 214/214/214 213/213/213
f 218/218/218 217/217/217 213/213/213
f 219/219/219 218/218/218 213/213/213
f 220/220/220 217/217/217 218/218/218
f 221/221/221 214/214/214 217/217/217
f 222/222/222 221/221/221 217/217/217
f 223/223/223 214/214/214 221/221/221
f 214/214/214 224/224/224 210/210/210
f 224/224/224 225/225/225 210/210/210
f 225/225/225 226/226/226 210/210/210
f 226/226/226 227/227/227 210/210/210
f 228/228/228 225/225/225 224/224/224
f 229/229/229 225/225/225 228/228/228
f 230/230/230 228/228/228 224/224/224
f 231/231/231 224/224/224 214/214/214
f 232/232/232 231/231/231 214/214/214
f 233/233/233 232/232/232 214/214/214
f 234/234/234 231/231/231 232/232/232
f 235/235/235 224/224/224 231/231/231
f 236/236/236 235/235/235 231/231/231
f 237/237/237 224/224/224 235/235/235
