g O_env_baoxiang_05_d
v -0.0113491183 0.00345017249 0.0146631701
v -0.00996500067 0.00345011218 0.014962473
v -0.00996499974 0.00264036586 0.0146721927
v -0.00996499974 0.00264036586 0.0146721927
v -0.00996500067 0.00345011218 0.014962473
v -0.00858087558 0.00345017249 0.0146631682
v -0.00858087558 0.00345017249 0.0146631682
v -0.00996500067 0.00345011218 0.014962473
v -0.00996499974 0.00425973814 0.014671905
v -0.00996499974 0.00425973814 0.014671905
v -0.00996500067 0.00345011218 0.014962473
v -0.0113491183 0.00345017249 0.0146631701
v 0.0113491183 0.00345017179 0.0146631701
v 0.00996499881 0.00345011218 0.014962473
v 0.00996500067 0.00425973767 0.014671905
v 0.00996500067 0.00425973767 0.014671905
v 0.00996499881 0.00345011218 0.014962473
v 0.00858086534 0.00345017179 0.0146631626
v 0.00858086534 0.00345017179 0.0146631626
v 0.00996499881 0.00345011218 0.014962473
v 0.00996500067 0.00264036446 0.0146721946
v 0.00996500067 0.00264036446 0.0146721946
v 0.00996499881 0.00345011218 0.014962473
v 0.0113491183 0.00345017179 0.0146631701
v -0.0113491183 0.0193819124 0.0137165785
v -0.00996500067 0.019381851 0.0140158851
v -0.00996499881 0.0185721051 0.0137256021
v -0.00996499881 0.0185721051 0.0137256021
v -0.00996500067 0.019381851 0.0140158851
v -0.00858087186 0.0193819124 0.0137165748
v -0.00858087186 0.0193819124 0.0137165748
v -0.00996500067 0.019381851 0.0140158851
v -0.00996499881 0.0201914757 0.0137253143
v -0.00996499881 0.0201914757 0.0137253143
v -0.00996500067 0.019381851 0.0140158851
v -0.0113491183 0.0193819124 0.0137165785
v 0.0113491137 0.0193819124 0.0137165803
v 0.00996499695 0.019381851 0.0140158851
v 0.00996500067 0.0201914757 0.0137253143
v 0.00996500067 0.0201914757 0.0137253143
v 0.00996499695 0.019381851 0.0140158851
v 0.00858086534 0.0193819124 0.013716571
v 0.00858086534 0.0193819124 0.013716571
v 0.00996499695 0.019381851 0.0140158851
v 0.00996500067 0.0185721051 0.0137256021
v 0.00996500067 0.0185721051 0.0137256021
v 0.00996499695 0.019381851 0.0140158851
v 0.0113491137 0.0193819124 0.0137165803
v -0.00996499974 0.00212217262 0.0142659899
v -0.0122029977 0.00345017272 0.0142659908
v -0.0113491183 0.00345017249 0.0146631701
v -0.00996499974 0.00264036586 0.0146721927
v -0.00772699947 0.00345017249 0.0142659899
v -0.00996499974 0.00212217262 0.0142659899
v -0.00996499974 0.00264036586 0.0146721927
v -0.00858087558 0.00345017249 0.0146631682
v -0.00858087558 0.00345017249 0.0146631682
v -0.00996499974 0.00425973814 0.014671905
v -0.00996499974 0.00477717211 0.0142659899
v -0.00772699947 0.00345017249 0.0142659899
v -0.0122029977 0.00345017272 0.0142659908
v -0.00996499974 0.00477717211 0.0142659899
v -0.00996499974 0.00425973814 0.014671905
v -0.0113491183 0.00345017249 0.0146631701
v 0.0122030005 0.00345017156 0.0142659899
v 0.00996500067 0.00212217169 0.0142659899
v 0.00996500067 0.00264036446 0.0146721946
v 0.0113491183 0.00345017179 0.0146631701
v 0.00996500067 0.00212217169 0.0142659899
v 0.0077270004 0.00345017179 0.0142659899
v 0.00858086534 0.00345017179 0.0146631626
v 0.00996500067 0.00264036446 0.0146721946
v 0.00996500067 0.00425973767 0.014671905
v 0.00858086534 0.00345017179 0.0146631626
v 0.0077270004 0.00345017179 0.0142659899
v 0.00996500067 0.00477717165 0.0142659899
v 0.00996500067 0.00477717165 0.0142659899
v 0.0122030005 0.00345017156 0.0142659899
v 0.0113491183 0.00345017179 0.0146631701
v 0.00996500067 0.00425973767 0.014671905
v -0.00996499881 0.0180539116 0.0133193992
v -0.0122029977 0.0193819124 0.0133193992
v -0.0113491183 0.0193819124 0.0137165785
v -0.00996499881 0.0185721051 0.0137256021
v -0.00772699853 0.0193819124 0.0133193983
v -0.00996499881 0.0180539116 0.0133193992
v -0.00996499881 0.0185721051 0.0137256021
v -0.00858087186 0.0193819124 0.0137165748
v -0.00858087186 0.0193819124 0.0137165748
v -0.00996499881 0.0201914757 0.0137253143
v -0.00996499881 0.0207089111 0.0133193983
v -0.00772699853 0.0193819124 0.0133193983
v -0.0122029977 0.0193819124 0.0133193992
v -0.00996499881 0.0207089111 0.0133193983
v -0.00996499881 0.0201914757 0.0137253143
v -0.0113491183 0.0193819124 0.0137165785
v 0.0122030005 0.0193819124 0.0133193983
v 0.00996500067 0.0180539116 0.0133193992
v 0.00996500067 0.0185721051 0.0137256021
v 0.0113491137 0.0193819124 0.0137165803
v 0.00996500067 0.0180539116 0.0133193992
v 0.00772700133 0.0193819124 0.0133193983
v 0.00858086534 0.0193819124 0.013716571
v 0.00996500067 0.0185721051 0.0137256021
v 0.00996500067 0.0201914757 0.0137253143
v 0.00858086534 0.0193819124 0.013716571
v 0.00772700133 0.0193819124 0.0133193983
v 0.00996500067 0.0207089111 0.0133193983
v 0.00996500067 0.0207089111 0.0133193983
v 0.0122030005 0.0193819124 0.0133193983
v 0.0113491137 0.0193819124 0.0137165803
v 0.00996500067 0.0201914757 0.0137253143
vt 0.846721172 0.372931182
vt 0.858828902 0.372931004
vt 0.858828902 0.36162746
vt 0.858828902 0.36162746
vt 0.858828902 0.372931004
vt 0.870936513 0.372931182
vt 0.870936513 0.372931182
vt 0.858828902 0.372931004
vt 0.858828902 0.38423419
vt 0.858828902 0.38423419
vt 0.858828902 0.372931004
vt 0.846721172 0.372931182
vt 0.846721172 0.372931182
vt 0.858828902 0.372931004
vt 0.858828902 0.38423419
vt 0.858828902 0.38423419
vt 0.858828902 0.372931004
vt 0.870936513 0.372931182
vt 0.870936513 0.372931182
vt 0.858828902 0.372931004
vt 0.858828902 0.36162746
vt 0.858828902 0.36162746
vt 0.858828902 0.372931004
vt 0.846721172 0.372931182
vt 0.846721172 0.372931182
vt 0.858828902 0.372931004
vt 0.858828902 0.36162746
vt 0.858828902 0.36162746
vt 0.858828902 0.372931004
vt 0.870936513 0.372931182
vt 0.870936513 0.372931182
vt 0.858828902 0.372931004
vt 0.858828902 0.38423419
vt 0.858828902 0.38423419
vt 0.858828902 0.372931004
vt 0.846721172 0.372931182
vt 0.846721172 0.372931182
vt 0.858828902 0.372931004
vt 0.858828902 0.38423419
vt 0.858828902 0.38423419
vt 0.858828902 0.372931004
vt 0.870936513 0.372931182
vt 0.870936513 0.372931182
vt 0.858828902 0.372931004
vt 0.858828902 0.361627489
vt 0.858828902 0.361627489
vt 0.858828902 0.372931004
vt 0.846721172 0.372931182
vt 0.858828902 0.353857487
vt 0.828943849 0.372931182
vt 0.846721172 0.372931182
vt 0.858828902 0.36162746
vt 0.888713658 0.372931182
vt 0.858828902 0.353857487
vt 0.858828902 0.36162746
vt 0.870936513 0.372931182
vt 0.870936513 0.372931182
vt 0.858828902 0.38423419
vt 0.858828902 0.391994774
vt 0.888713658 0.372931182
vt 0.828943849 0.372931182
vt 0.858828902 0.391994774
vt 0.858828902 0.38423419
vt 0.846721172 0.372931182
vt 0.828943849 0.372931182
vt 0.858828902 0.353857487
vt 0.858828902 0.36162746
vt 0.846721172 0.372931182
vt 0.858828902 0.353857487
vt 0.888713598 0.372931182
vt 0.870936513 0.372931182
vt 0.858828902 0.36162746
vt 0.858828902 0.38423419
vt 0.870936513 0.372931182
vt 0.888713598 0.372931182
vt 0.858828902 0.391994774
vt 0.858828902 0.391994774
vt 0.828943849 0.372931182
vt 0.846721172 0.372931182
vt 0.858828902 0.38423419
vt 0.858828902 0.353857487
vt 0.828943849 0.372931182
vt 0.846721172 0.372931182
vt 0.858828902 0.36162746
vt 0.888713658 0.372931182
vt 0.858828902 0.353857487
vt 0.858828902 0.36162746
vt 0.870936513 0.372931182
vt 0.870936513 0.372931182
vt 0.858828902 0.38423419
vt 0.858828902 0.391994774
vt 0.888713658 0.372931182
vt 0.828943849 0.372931182
vt 0.858828902 0.391994774
vt 0.858828902 0.38423419
vt 0.846721172 0.372931182
vt 0.828943849 0.372931182
vt 0.858828902 0.353857487
vt 0.858828902 0.361627489
vt 0.846721172 0.372931182
vt 0.858828902 0.353857487
vt 0.888713598 0.372931182
vt 0.870936513 0.372931182
vt 0.858828902 0.361627489
vt 0.858828902 0.38423419
vt 0.870936513 0.372931182
vt 0.888713598 0.372931182
vt 0.858828902 0.391994774
vt 0.858828902 0.391994774
vt 0.828943849 0.372931182
vt 0.846721172 0.372931182
vt 0.858828902 0.38423419
vn -0.199479207 -0.330672264 0.922422886
vn -0.199479207 -0.330672294 0.922422826
vn -0.199479237 -0.330672294 0.922422826
vn 0.199481979 -0.330671638 0.922422409
vn 0.199481994 -0.330671698 0.922422409
vn 0.199481979 -0.330671698 0.922422409
vn 0.199426755 0.331010222 0.922312975
vn 0.199426755 0.331010222 0.922312975
vn 0.19942674 0.331010193 0.922312975
vn -0.19942762 0.331010729 0.922312558
vn -0.19942762 0.331010729 0.922312558
vn -0.199427605 0.331010699 0.922312558
vn 0.199427366 0.331009746 0.922312975
vn 0.199427351 0.331009686 0.922312975
vn 0.199427366 0.331009746 0.922312975
vn -0.199427977 0.331010878 0.922312438
vn -0.199427947 0.331010878 0.922312438
vn -0.199427947 0.331010848 0.922312438
vn -0.199480519 -0.330670446 0.922423184
vn -0.199480519 -0.330670446 0.922423184
vn -0.199480519 -0.330670416 0.922423184
vn 0.199477836 -0.330669582 0.922424138
vn 0.199477836 -0.330669582 0.922424138
vn 0.199477792 -0.330669552 0.922424138
vn -0.199483648 -0.330676466 0.922420382
vn -0.199483648 -0.330676556 0.922420382
vn -0.199483648 -0.330676526 0.922420382
vn 0.199481755 -0.330673933 0.922421694
vn 0.199481755 -0.330673873 0.922421694
vn 0.199481755 -0.330673873 0.922421694
vn 0.199430943 0.331014514 0.922310531
vn 0.199430928 0.331014514 0.922310531
vn 0.199430928 0.331014544 0.922310531
vn -0.199428812 0.331014961 0.922310829
vn -0.199428856 0.331014991 0.922310829
vn -0.199428812 0.331014991 0.922310829
vn 0.199427307 0.33101362 0.922311664
vn 0.199427307 0.33101362 0.922311664
vn 0.199427307 0.33101362 0.922311664
vn -0.199432254 0.331015885 0.922309697
vn -0.199432254 0.331015825 0.922309697
vn -0.199432239 0.331015795 0.922309697
vn -0.199485406 -0.330674648 0.922420561
vn -0.199485376 -0.330674648 0.922420561
vn -0.199485406 -0.330674648 0.922420561
vn 0.199481592 -0.33067438 0.922421575
vn 0.199481636 -0.33067438 0.922421575
vn 0.199481606 -0.33067438 0.922421575
vn -0.343768537 -0.579331279 0.739052355
vn -0.343768537 -0.579331279 0.739052355
vn -0.343768477 -0.579331338 0.739052415
vn -0.343768537 -0.579331279 0.739052355
vn 0.343766779 -0.579332292 0.739052415
vn 0.343766838 -0.579332292 0.739052355
vn 0.343766838 -0.579332292 0.739052355
vn 0.343766838 -0.579332292 0.739052355
vn 0.343681782 0.57962209 0.73886472
vn 0.343681723 0.57962209 0.73886472
vn 0.343681723 0.579622149 0.73886472
vn 0.343681723 0.579622149 0.73886472
vn -0.34368068 0.579621911 0.738865435
vn -0.34368065 0.579621911 0.738865435
vn -0.34368065 0.579621911 0.738865435
vn -0.34368065 0.579621851 0.738865435
vn 0.343767941 -0.579331994 0.739052117
vn 0.343767941 -0.579332054 0.739052117
vn 0.343768001 -0.579332054 0.739052117
vn 0.343768001 -0.579332113 0.739052117
vn -0.34376803 -0.579332232 0.739051938
vn -0.34376806 -0.579332173 0.739051998
vn -0.34376806 -0.579332173 0.739051998
vn -0.34376806 -0.579332113 0.739051998
vn -0.343682021 0.57962209 0.73886466
vn -0.343681991 0.57962203 0.738864541
vn -0.343682051 0.57962209 0.73886466
vn -0.343682051 0.57962209 0.73886466
vn 0.343681425 0.579621911 0.738865018
vn 0.343681395 0.579621911 0.738865018
vn 0.343681395 0.579621911 0.738865018
vn 0.343681425 0.579621911 0.738865018
vn -0.343768328 -0.57933116 0.739052653
vn -0.343768388 -0.57933116 0.739052653
vn -0.343768358 -0.57933116 0.739052594
vn -0.343768328 -0.5793311 0.739052653
vn 0.343768865 -0.579332232 0.739051461
vn 0.343768895 -0.579332292 0.739051461
vn 0.343768924 -0.579332292 0.739051461
vn 0.343768865 -0.579332292 0.739051461
vn 0.343679339 0.57962209 0.738865793
vn 0.343679339 0.57962209 0.738865793
vn 0.343679339 0.57962209 0.738865793
vn 0.343679339 0.57962209 0.738865793
vn -0.343679518 0.579622984 0.738865018
vn -0.343679547 0.579622984 0.738865077
vn -0.343679577 0.579622984 0.738865077
vn -0.343679518 0.579622984 0.738865018
vn 0.34376812 -0.579332054 0.739052057
vn 0.34376815 -0.579332113 0.739051998
vn 0.34376809 -0.579332113 0.739051998
vn 0.34376812 -0.579332054 0.739052057
vn -0.343768716 -0.57933253 0.739051342
vn -0.343768716 -0.57933259 0.739051342
vn -0.343768716 -0.57933253 0.739051402
vn -0.343768716 -0.57933259 0.739051402
vn -0.343679786 0.579622209 0.738865614
vn -0.343679756 0.579622209 0.738865614
vn -0.343679756 0.579622209 0.738865614
vn -0.343679756 0.579622209 0.738865614
vn 0.343679696 0.579622805 0.738865137
vn 0.343679696 0.579622746 0.738865137
vn 0.343679667 0.579622746 0.738865137
vn 0.343679667 0.579622805 0.738865137
g O_env_baoxiang_05_d_0
f 3/3/3 2/2/2 1/1/1
f 6/6/6 5/5/5 4/4/4
f 9/9/9 8/8/8 7/7/7
f 12/12/12 11/11/11 10/10/10
f 15/15/15 14/14/14 13/13/13
f 18/18/18 17/17/17 16/16/16
f 21/21/21 20/20/20 19/19/19
f 24/24/24 23/23/23 22/22/22
f 27/27/27 26/26/26 25/25/25
f 30/30/30 29/29/29 28/28/28
f 33/33/33 32/32/32 31/31/31
f 36/36/36 35/35/35 34/34/34
f 39/39/39 38/38/38 37/37/37
f 42/42/42 41/41/41 40/40/40
f 45/45/45 44/44/44 43/43/43
f 48/48/48 47/47/47 46/46/46
f 51/51/51 50/50/50 49/49/49
f 52/52/52 51/51/51 49/49/49
f 55/55/55 54/54/54 53/53/53
f 56/56/56 55/55/55 53/53/53
f 59/59/59 58/58/58 57/57/57
f 60/60/60 59/59/59 57/57/57
f 63/63/63 62/62/62 61/61/61
f 64/64/64 63/63/63 61/61/61
f 67/67/67 66/66/66 65/65/65
f 68/68/68 67/67/67 65/65/65
f 71/71/71 70/70/70 69/69/69
f 72/72/72 71/71/71 69/69/69
f 75/75/75 74/74/74 73/73/73
f 76/76/76 75/75/75 73/73/73
f 79/79/79 78/78/78 77/77/77
f 80/80/80 79/79/79 77/77/77
f 83/83/83 82/82/82 81/81/81
f 84/84/84 83/83/83 81/81/81
f 87/87/87 86/86/86 85/85/85
f 88/88/88 87/87/87 85/85/85
f 91/91/91 90/90/90 89/89/89
f 92/92/92 91/91/91 89/89/89
f 95/95/95 94/94/94 93/93/93
f 96/96/96 95/95/95 93/93/93
f 99/99/99 98/98/98 97/97/97
f 100/100/100 99/99/99 97/97/97
f 103/103/103 102/102/102 101/101/101
f 104/104/104 103/103/103 101/101/101
f 107/107/107 106/106/106 105/105/105
f 108/108/108 107/107/107 105/105/105
f 111/111/111 110/110/110 109/109/109
f 112/112/112 111/111/111 109/109/109
