g jianglidaoju_AK_lod1_gpuskinmesh
v -0.0274474379 0.109518364 0.156200975
v 4.21825028E-08 0.125630036 0.153073072
v 4.28395488E-08 0.139575675 0.15415889
v 0.0274475124 0.109518364 0.156200975
v 4.28395488E-08 0.139575675 0.15415889
v 4.21825028E-08 0.125630036 0.153073072
v 0.0271512177 0.0475264117 0.118366554
v -0.0271511525 0.0475264117 0.118366554
v 2.59897401E-08 0.0237581395 0.113271087
v -0.0222558714 0.0802370086 0.548256755
v 7.82506646E-08 0.0980429426 0.548256755
v 7.64381909E-08 0.0565784685 0.548256755
v -4.16801305E-09 0.0461843498 -0.141537324
v -0.0208287332 0.0366999507 -0.108552627
v -4.27649205E-09 0.0371844992 -0.135019198
v 7.82506646E-08 0.0980429426 0.548256755
v 0.022270048 0.0802370086 0.548256755
v 7.64381909E-08 0.0565784685 0.548256755
v -4.16801305E-09 0.0461843498 -0.141537324
v -4.27649205E-09 0.0371844992 -0.135019198
v 0.0208287481 0.0366999507 -0.108552605
v -0.0271511525 0.0475264117 0.118366554
v 2.66794231E-08 0.0235635079 0.129243851
v 2.59897401E-08 0.0237581395 0.113271087
v 3.80025931E-08 0.0319408998 0.151136965
v -0.0344633907 0.0748986006 0.14098309
v -0.0293468889 0.109518558 0.114393495
v -0.0274474379 0.109518364 0.156200975
v -0.0245120544 0.0475264192 -0.145111457
v -0.0215137787 0.124445789 0.150528386
v -0.0280496515 0.109520286 -0.145111486
v -0.0162355099 0.130031362 0.0877960697
v -0.0165362302 0.129668295 -0.127777502
v -0.0154983168 0.147730172 0.14985238
v -0.0151691008 0.142375931 0.0877929255
v 5.8880044E-08 0.131109595 0.300815314
v -0.0274474379 0.109518364 0.156200975
v 4.28395488E-08 0.139575675 0.15415889
v -0.02326864 0.109517902 0.300815314
v -0.0344633907 0.0748986006 0.14098309
v -0.0300611723 0.0749342665 0.300815314
v 3.80025931E-08 0.0319408998 0.151136965
v 5.46775958E-08 0.0349688902 0.300815314
v 4.21825028E-08 0.125630036 0.153073072
v -0.0274474379 0.109518364 0.156200975
v -0.0215137787 0.124445789 0.150528386
v -0.0154983168 0.147730172 0.14985238
v 0.0155761726 0.147730172 0.14985238
v 0.0215138718 0.124445789 0.150528386
v 0.0274475124 0.109518364 0.156200975
v 0.0271512177 0.0475264117 0.118366554
v 2.59897401E-08 0.0237581395 0.113271087
v 2.66794231E-08 0.0235635079 0.129243851
v 3.80025931E-08 0.0319408998 0.151136965
v 0.0344634615 0.0748986006 0.14098309
v 0.0293469597 0.109518558 0.114393495
v 0.0274475124 0.109518364 0.156200975
v 0.0245120637 0.0475264192 -0.145111457
v 0.0215138718 0.124445789 0.150528386
v 0.0280496571 0.109520286 -0.145111486
v 0.0162356086 0.130031362 0.0877960697
v 0.0165362488 0.129668295 -0.127777502
v 0.0155761726 0.147730172 0.14985238
v 0.0151691996 0.142375931 0.0877929255
v 0.0274475124 0.109518364 0.156200975
v 5.8880044E-08 0.131109595 0.300815314
v 4.28395488E-08 0.139575675 0.15415889
v 0.0232687388 0.109517902 0.300815314
v 0.0344634615 0.0748986006 0.14098309
v 0.0300613064 0.0749342665 0.300815314
v 3.80025931E-08 0.0319408998 0.151136965
v 5.46775958E-08 0.0349688902 0.300815314
v -0.0271511525 0.0475264117 0.118366554
v 0.0271512177 0.0475264117 0.118366554
v 0.0245120637 0.0475264192 -0.145111457
v -0.0245120544 0.0475264192 -0.145111457
v 6.07859576E-08 0.107843034 0.367684096
v 4.78123638E-08 0.107927784 0.299571425
v -0.0120645482 0.116613157 0.376453668
v -0.0153852319 0.11671371 0.299571425
v 7.1944342E-08 0.125872403 0.376155525
v 5.85938551E-08 0.125806212 0.299571425
v 7.1944342E-08 0.125872403 0.376155525
v 7.14007271E-08 0.103718787 0.385872781
v -0.0120645482 0.116613157 0.376453668
v -0.0121851787 0.10136611 0.38039124
v 7.13816775E-08 0.0896691382 0.399486572
v -0.0165362302 0.129668295 -0.127777502
v -0.0280496515 0.109520286 -0.145111486
v 0.0280496571 0.109520286 -0.145111486
v 0.0165362488 0.129668295 -0.127777502
v 5.79288937E-08 0.109349899 0.300815284
v -0.02326864 0.109517902 0.300815314
v 5.8880044E-08 0.131109595 0.300815314
v -0.0300611723 0.0749342665 0.300815314
v 5.46775958E-08 0.0349688902 0.300815314
v 7.82506646E-08 0.0980429426 0.548256755
v -0.0193467941 0.0778014064 0.309613168
v 5.76786583E-08 0.0948272571 0.309613168
v -0.0222558714 0.0802370086 0.548256755
v 5.60654421E-08 0.0579211377 0.309613168
v 7.64381909E-08 0.0565784685 0.548256755
v 6.07859576E-08 0.107843034 0.367684096
v -0.0120645482 0.116613157 0.376453668
v -0.0121851787 0.10136611 0.38039124
v 5.99627512E-08 0.0890102386 0.367684096
v 7.13816775E-08 0.0896691382 0.399486572
v -0.0208287332 0.0366999507 -0.108552627
v -0.00375116197 0.029578371 -0.0784481391
v 7.51808393E-09 0.0240817405 -0.0808613151
v 7.24176052E-09 0.0229051076 -0.0860062391
v -0.0208287332 0.056589298 -0.108939558
v -4.16801305E-09 0.0461843498 -0.141537324
v -3.72222786E-09 0.0564670488 -0.141621649
v -0.0208287332 0.0366999507 -0.108552627
v -0.00388967083 0.0564919189 -0.0783874318
v -0.00375116197 0.029578371 -0.0784481391
v -7.13826909E-09 -0.0455557592 -0.117748752
v -0.02006175 -0.0383714512 -0.15764831
v -6.45004494E-09 -0.0297442377 -0.117815539
v -0.0208287332 0.0366999507 -0.108552627
v 7.24176052E-09 0.0229051076 -0.0860062391
v -1.8991873E-08 -0.0246757288 -0.181034282
v -4.27649205E-09 0.0371844992 -0.135019198
v -8.15841084E-09 -0.0492802598 -0.137362376
v -0.02006175 -0.0383714512 -0.15764831
v -7.13826909E-09 -0.0455557592 -0.117748752
v -1.8991873E-08 -0.0246757288 -0.181034282
v 0.0153853269 0.11671371 0.299571425
v 7.1944342E-08 0.125872403 0.376155525
v 5.85938551E-08 0.125806212 0.299571425
v 0.0120647121 0.116613157 0.376453668
v 4.78123638E-08 0.107927784 0.299571425
v 6.07859576E-08 0.107843034 0.367684096
v 5.99627512E-08 0.0890102386 0.367684096
v 7.13816775E-08 0.0896691382 0.399486572
v 0.0121852811 0.101366095 0.380391181
v 6.07859576E-08 0.107843034 0.367684096
v 0.0120647121 0.116613157 0.376453668
v 7.1944342E-08 0.125872403 0.376155525
v 0.0120647121 0.116613157 0.376453668
v 7.14007271E-08 0.103718787 0.385872781
v 0.0121852811 0.101366095 0.380391181
v 7.13816775E-08 0.0896691382 0.399486572
v 5.79288937E-08 0.109349899 0.300815284
v 5.8880044E-08 0.131109595 0.300815314
v 0.0232687388 0.109517902 0.300815314
v 0.0300613064 0.0749342665 0.300815314
v 5.46775958E-08 0.0349688902 0.300815314
v 0.0193328559 0.0778014064 0.309613168
v 7.82506646E-08 0.0980429426 0.548256755
v 5.76786583E-08 0.0948272571 0.309613168
v 0.022270048 0.0802370086 0.548256755
v 5.60654421E-08 0.0579211377 0.309613168
v 7.64381909E-08 0.0565784685 0.548256755
v 0.0208287481 0.0366999507 -0.108552605
v 7.51808393E-09 0.0240817405 -0.0808613151
v 0.00375116779 0.029578371 -0.0784481466
v 7.24176052E-09 0.0229051076 -0.0860062391
v 0.0208287574 0.056589298 -0.108939558
v -3.72222786E-09 0.0564670488 -0.141621649
v -4.16801305E-09 0.0461843498 -0.141537324
v 0.0208287481 0.0366999507 -0.108552605
v 0.00388968899 0.0564919189 -0.0783874393
v 0.00375116779 0.029578371 -0.0784481466
v -7.13826909E-09 -0.0455557592 -0.117748752
v -6.45004494E-09 -0.0297442377 -0.117815539
v 0.0200617183 -0.0383714512 -0.15764834
v 0.0208287481 0.0366999507 -0.108552605
v 7.24176052E-09 0.0229051076 -0.0860062391
v -1.8991873E-08 -0.0246757288 -0.181034282
v -4.27649205E-09 0.0371844992 -0.135019198
v -8.15841084E-09 -0.0492802598 -0.137362376
v -7.13826909E-09 -0.0455557592 -0.117748752
v 0.0200617183 -0.0383714512 -0.15764834
v -1.8991873E-08 -0.0246757288 -0.181034282
v -0.0245120544 0.0475264192 -0.145111457
v 0.0245120637 0.0475264192 -0.145111457
v 0.0280496571 0.109520286 -0.145111486
v -0.0280496515 0.109520286 -0.145111486
v -0.00388967083 0.0564919189 -0.0783874318
v 0.00388968899 0.0564919189 -0.0783874393
v 0.00375116779 0.029578371 -0.0784481466
v -0.00375116197 0.029578371 -0.0784481391
v 0.0274101067 0.0788411573 0.534811914
v 0.013262487 0.0975578353 0.534811914
v 0.0132624954 0.0977543071 0.502383232
v 0.0274101067 0.0789393783 0.502411842
v 0.0220366642 0.0617990382 0.502440572
v 0.0220366661 0.0617990382 0.534811914
v 4.83856202E-05 0.0513677299 0.534811914
v 4.83842014E-05 0.0513677299 0.502308369
v 0.00780017814 0.136525527 0.516591311
v 0.00780014927 0.136703789 0.534811914
v -0.00770904031 0.136703789 0.534811914
v -0.00770908082 0.136525527 0.516591311
v 4.83856202E-05 0.0513677299 0.534811914
v 4.83842014E-05 0.0513677299 0.502308369
v -0.0219427254 0.0617990382 0.502440572
v -0.0219427217 0.0617990382 0.534811914
v -0.0273176022 0.0788411498 0.534811914
v -0.0273176022 0.0789393708 0.502411842
v -0.0131713729 0.0977542922 0.502383173
v -0.013171372 0.0975578353 0.534811914
v 4.83842014E-05 0.0513677299 0.502308369
v 0.0220366642 0.0617990382 0.502440572
v -0.0219427254 0.0617990382 0.502440572
v 0.0274101067 0.0789393783 0.502411842
v -0.0273176022 0.0789393708 0.502411842
v 0.0132624954 0.0977543071 0.502383232
v -0.0131713729 0.0977542922 0.502383173
v 0.0274101067 0.0788411573 0.534811914
v -0.013171372 0.0975578353 0.534811914
v 0.013262487 0.0975578353 0.534811914
v -0.0273176022 0.0788411498 0.534811914
v 0.0220366661 0.0617990382 0.534811914
v -0.0219427217 0.0617990382 0.534811914
v 4.83856202E-05 0.0513677299 0.534811914
v 0.0219628513 -0.0782513097 0.13339445
v 0.0220223367 -0.0954393446 0.0485315695
v 0.0220223367 -0.136562407 0.0959526151
v 0.0223997831 -0.0486553386 0.101484247
v 0.0222291015 -0.0151212011 0.079519935
v 0.0220223404 -0.0410647579 0.0154997492
v 0.0220691338 0.0215809606 0.0670810789
v 0.0220223404 0.00888003875 -0.000376060983
v 0.0207062233 0.0558631271 0.0615933612
v 0.0220223516 0.0558631271 -0.00995562132
v 0.0219628513 -0.0782513097 0.13339445
v 0.0220223367 -0.136562407 0.0959526151
v -0.0219353624 -0.136562407 0.0959526151
v -0.0218757987 -0.0782513097 0.13339445
v -0.0219353605 0.00888004061 -0.000376049022
v 0.0220223516 0.0558631271 -0.00995562132
v -0.0219353475 0.0558631271 -0.00995561853
v 0.0220223404 0.00888003875 -0.000376060983
v 0.0220223404 -0.0410647579 0.0154997492
v -0.0219353605 -0.0410647579 0.0154997511
v -0.0219353624 -0.0954393446 0.0485315695
v 0.0220223367 -0.0954393446 0.0485315695
v -0.0219353624 -0.136562407 0.0959526151
v 0.0220223367 -0.136562407 0.0959526151
v -0.0219353624 -0.0954393446 0.0485315695
v -0.0218757987 -0.0782513097 0.13339445
v -0.0219353624 -0.136562407 0.0959526151
v -0.0223127678 -0.0486553386 0.101484247
v -0.0221420974 -0.0151211983 0.079519935
v -0.0219353605 -0.0410647579 0.0154997511
v -0.0219821259 0.0215809606 0.0670810789
v -0.0219353605 0.00888004061 -0.000376049022
v -0.0206191745 0.0558631271 0.0615933612
v -0.0219353475 0.0558631271 -0.00995561853
v 0.011241653 0.0564469099 -0.0104952091
v 0.0112416511 0.0564469099 -0.0255011283
v 0.0112416502 0.0243326202 -0.0255011283
v 0.0112416511 0.02435215 -0.0103804506
v 7.51808393E-09 0.0240817405 -0.0808613151
v 0.00745819742 0.0227369089 -0.073169224
v 0.00375116779 0.029578371 -0.0784481466
v 4.34874928E-05 0.0176856983 -0.0750264898
v 0.00745819928 0.0225896798 -0.0297612175
v 4.34995636E-05 0.0176128391 -0.0276463497
v 4.35003312E-05 0.0247791409 -0.0171924196
v 0.00745821046 0.0285346601 -0.0203538612
v -0.00737119885 0.0285346601 -0.0203538612
v 0.00745819928 0.0225896798 -0.0297612175
v 0.00745821046 0.0285346601 -0.0203538612
v -0.00737120025 0.0225896798 -0.0297612175
v 0.00745819742 0.0227369089 -0.073169224
v -0.00737121189 0.0227369089 -0.073169224
v 0.00375116779 0.029578371 -0.0784481466
v -0.00375116197 0.029578371 -0.0784481391
v -0.0111546684 0.02435215 -0.0103804506
v 0.0112416511 0.02435215 -0.0103804506
v 0.0112416502 0.0243326202 -0.0255011283
v -0.0111546693 0.0243350603 -0.0255011283
v -0.0111546693 0.0243350603 -0.0255011283
v 0.0112416502 0.0243326202 -0.0255011283
v 0.0112416511 0.0564469099 -0.0255011283
v -0.0111546684 0.0564469099 -0.0255011283
v -0.0111546665 0.0564469099 -0.0104952091
v -0.0111546684 0.02435215 -0.0103804506
v -0.0111546693 0.0243350603 -0.0255011283
v -0.0111546684 0.0564469099 -0.0255011283
v 4.35003312E-05 0.0247791409 -0.0171924196
v -0.00737120025 0.0225896798 -0.0297612175
v -0.00737119885 0.0285346601 -0.0203538612
v 4.34995636E-05 0.0176128391 -0.0276463497
v 4.34874928E-05 0.0176856983 -0.0750264898
v -0.00737121189 0.0227369089 -0.073169224
v 7.51808393E-09 0.0240817405 -0.0808613151
v -0.00375116197 0.029578371 -0.0784481391
v -0.0111546665 0.0564469099 -0.0104952091
v 0.011241653 0.0564469099 -0.0104952091
v 0.0112416511 0.02435215 -0.0103804506
v -0.0111546684 0.02435215 -0.0103804506
v -0.0223127678 -0.0486553386 0.101484247
v 0.0219628513 -0.0782513097 0.13339445
v -0.0218757987 -0.0782513097 0.13339445
v 0.0223997831 -0.0486553386 0.101484247
v -0.0221420974 -0.0151211983 0.079519935
v 0.0222291015 -0.0151212011 0.079519935
v 0.0220691338 0.0215809606 0.0670810789
v -0.0219821259 0.0215809606 0.0670810789
v -0.0206191745 0.0558631271 0.0615933612
v 0.0207062233 0.0558631271 0.0615933612
v -0.0145991212 0.086947985 0.312519073
v -0.0241371728 0.0774490312 0.312519073
v -0.0241371728 0.0774490312 0.298523992
v -0.014599123 0.086947985 0.298523992
v -0.0121786818 0.0987624079 0.298523992
v -0.0121786818 0.0987624079 0.312519073
v 0.000438115356 0.0530466065 0.298523992
v -0.0241371728 0.0774490312 0.298523992
v -0.0241371728 0.0774490312 0.312519073
v 0.000438115967 0.0530466065 0.312519073
v 0.0154753774 0.086947985 0.312519073
v 0.0250133872 0.0774490312 0.298523992
v 0.0250133872 0.0774490312 0.312519073
v 0.015475356 0.086947985 0.298523992
v 0.0130549269 0.0987624079 0.312519073
v 0.0130549269 0.0987624079 0.298523992
v 0.0250133872 0.0774490312 0.312519073
v 0.0250133872 0.0774490312 0.298523992
v 0.000438115356 0.0530466065 0.298523992
v 0.000438115967 0.0530466065 0.312519073
v 0.0130549269 0.0987624079 0.312519073
v -0.0145991212 0.086947985 0.312519073
v -0.0121786818 0.0987624079 0.312519073
v 0.0154753774 0.086947985 0.312519073
v -0.0241371728 0.0774490312 0.312519073
v 0.0250133872 0.0774490312 0.312519073
v 0.000438115967 0.0530466065 0.312519073
v -0.0121786818 0.0987624079 0.298523992
v 0.0130549269 0.0987624079 0.298523992
v 0.0130549269 0.0987624079 0.312519073
v -0.0121786818 0.0987624079 0.312519073
v 8.08458633E-09 0.101379879 -0.145199403
v -0.0203025416 0.0717821494 -0.145199403
v -4.64198591E-09 0.0942331553 -0.200429365
v -0.0215989556 0.0621808991 -0.201232448
v -3.93652311E-09 0.0550763495 -0.145133451
v -7.22692262E-09 0.0358496495 -0.201182306
v -0.0247165561 0.00570694124 -0.369330049
v -3.70981184E-08 -0.0218304303 -0.369328827
v -0.0288006533 0.0332443118 -0.36933127
v -0.0240549725 0.0611801557 -0.369333476
v -0.0163536463 0.0939745679 -0.217470646
v -5.07457276E-09 0.103595875 -0.219688505
v -2.20509691E-08 0.0936421379 -0.369336039
v -0.0240549725 0.0611801557 -0.369333476
v -3.46908315E-08 0.0332443081 -0.36933127
v -2.20509691E-08 0.0936421379 -0.369336039
v -0.0288006533 0.0332443118 -0.36933127
v -0.0247165561 0.00570694124 -0.369330049
v -3.70981184E-08 -0.0218304303 -0.369328827
v 8.08458633E-09 0.101379879 -0.145199403
v -4.64198591E-09 0.0942331553 -0.200429365
v 0.020302536 0.0717821494 -0.145199403
v 0.0215989314 0.0621808991 -0.201232448
v -3.93652311E-09 0.0550763495 -0.145133451
v -7.22692262E-09 0.0358496495 -0.201182306
v 0.0247164927 0.00570693891 -0.369330049
v -3.70981184E-08 -0.0218304303 -0.369328827
v 0.0288005937 0.0332443081 -0.36933127
v 0.0240549147 0.0611801557 -0.369333476
v 0.0146035748 0.0951908007 -0.217407241
v -5.07457276E-09 0.103595875 -0.219688505
v -2.20509691E-08 0.0936421379 -0.369336039
v 0.0240549147 0.0611801557 -0.369333476
v -2.20509691E-08 0.0936421379 -0.369336039
v -3.46908315E-08 0.0332443081 -0.36933127
v 0.0288005937 0.0332443081 -0.36933127
v 0.0247164927 0.00570693891 -0.369330049
v -3.70981184E-08 -0.0218304303 -0.369328827
v -0.0151691008 0.142375931 0.0877929255
v 0.0151691996 0.142375931 0.0877929255
v 0.0155761726 0.147730172 0.14985238
v -0.0154983168 0.147730172 0.14985238
v -0.0165362302 0.129668295 -0.127777502
v 0.0165362488 0.129668295 -0.127777502
v 0.0162356086 0.130031362 0.0877960697
v -0.0162355099 0.130031362 0.0877960697
v -0.0162355099 0.130031362 0.0877960697
v 0.0162356086 0.130031362 0.0877960697
v 0.0151691996 0.142375931 0.0877929255
v -0.0151691008 0.142375931 0.0877929255
v 0.013262487 0.0975578353 0.534811914
v -0.013171372 0.0975578353 0.534811914
v -0.00770904031 0.136703789 0.534811914
v 0.00780014927 0.136703789 0.534811914
v -0.0131713729 0.0977542922 0.502383173
v 0.0132624954 0.0977543071 0.502383232
v 0.00780017814 0.136525527 0.516591311
v -0.00770908082 0.136525527 0.516591311
v 0.00780017814 0.136525527 0.516591311
v 0.0132624954 0.0977543071 0.502383232
v 0.013262487 0.0975578353 0.534811914
v 0.00780014927 0.136703789 0.534811914
v -0.013171372 0.0975578353 0.534811914
v -0.0131713729 0.0977542922 0.502383173
v -0.00770908082 0.136525527 0.516591311
v -0.00770904031 0.136703789 0.534811914
vt 0.411376953 0.730957031
vt 0.386474609 0.677734375
vt 0.411376953 0.662109375
vt 0.411376953 0.730957031
vt 0.411376953 0.662109375
vt 0.386474609 0.677734375
vt 0.848144531 0.719726562
vt 0.943359375 0.719726562
vt 0.895996094 0.685058594
vt 0.947265625 0.53515625
vt 0.978515625 0.563964844
vt 0.978515625 0.506347656
vt 0.886230469 0.819824219
vt 0.90234375 0.899902344
vt 0.874023438 0.841308594
vt 0.978515625 0.563964844
vt 0.947265625 0.53515625
vt 0.978515625 0.506347656
vt 0.886230469 0.819824219
vt 0.874023438 0.841308594
vt 0.90234375 0.899902344
vt 0.705566406 0.123168945
vt 0.673339844 0.0977783203
vt 0.673339844 0.124816895
vt 0.673339844 0.0379333496
vt 0.741699219 0.0607910156
vt 0.829589844 0.119262695
vt 0.829589844 0.0249328613
vt 0.705566406 0.718261719
vt 0.861816406 0.0352478027
vt 0.829589844 0.718261719
vt 0.881347656 0.181640625
vt 0.881347656 0.678222656
vt 0.897460938 0.0352478027
vt 0.897460938 0.181640625
vt 0.691894531 0.662109375
vt 0.411376953 0.730957031
vt 0.411376953 0.662109375
vt 0.691894531 0.730957031
vt 0.368652344 0.836425781
vt 0.691894531 0.836425781
vt 0.398193359 0.888183594
vt 0.691894531 0.888183594
vt 0.639160156 0.209960938
vt 0.596191406 0.166259766
vt 0.604492188 0.209960938
vt 0.615234375 0.251708984
vt 0.663085938 0.251708984
vt 0.673828125 0.209960938
vt 0.682617188 0.166381836
vt 0.705566406 0.123168945
vt 0.673339844 0.124816895
vt 0.673339844 0.0977783203
vt 0.673339844 0.0379333496
vt 0.741699219 0.0607910156
vt 0.829589844 0.119262695
vt 0.829589844 0.0249328613
vt 0.705566406 0.718261719
vt 0.861816406 0.0352478027
vt 0.829589844 0.718261719
vt 0.881347656 0.181640625
vt 0.881347656 0.678222656
vt 0.897460938 0.0352478027
vt 0.897460938 0.181640625
vt 0.411376953 0.730957031
vt 0.691894531 0.662109375
vt 0.411376953 0.662109375
vt 0.691894531 0.730957031
vt 0.368652344 0.836425781
vt 0.691894531 0.836425781
vt 0.398193359 0.888183594
vt 0.691894531 0.888183594
vt 0.654785156 0.0786743164
vt 0.654785156 0.0170440674
vt 0.0244140625 0.0170440674
vt 0.0244140625 0.0786743164
vt 0.393798828 0.641601562
vt 0.577636719 0.641601562
vt 0.370361328 0.609863281
vt 0.577636719 0.609863281
vt 0.370849609 0.577148438
vt 0.577636719 0.577148438
vt 0.370849609 0.577148438
vt 0.330566406 0.628417969
vt 0.370361328 0.609863281
vt 0.344482422 0.637207031
vt 0.292480469 0.658203125
vt 0.908691406 0.741699219
vt 0.841796875 0.73046875
vt 0.841796875 0.808105469
vt 0.908691406 0.792480469
vt 0.214477539 0.915527344
vt 0.214477539 0.965332031
vt 0.177734375 0.915527344
vt 0.307861328 0.965332031
vt 0.348144531 0.915527344
vt 0.582519531 0.248901367
vt 0.0296478271 0.202392578
vt 0.0296478271 0.248901367
vt 0.582519531 0.202392578
vt 0.0296478271 0.163208008
vt 0.582519531 0.163208008
vt 0.393798828 0.641601562
vt 0.370361328 0.609863281
vt 0.344482422 0.637207031
vt 0.380371094 0.673828125
vt 0.292480469 0.658203125
vt 0.90234375 0.899902344
vt 0.923339844 0.969726562
vt 0.909667969 0.97265625
vt 0.900878906 0.96484375
vt 0.94140625 0.878417969
vt 0.886230469 0.819824219
vt 0.906738281 0.809570312
vt 0.90234375 0.899902344
vt 0.975097656 0.940917969
vt 0.923339844 0.969726562
vt 0.734863281 0.982421875
vt 0.702636719 0.890625
vt 0.765136719 0.965332031
vt 0.90234375 0.899902344
vt 0.900878906 0.96484375
vt 0.705566406 0.819824219
vt 0.874023438 0.841308594
vt 0.365722656 0.95703125
vt 0.419433594 0.916992188
vt 0.330566406 0.95703125
vt 0.476318359 0.95703125
vt 0.577636719 0.609863281
vt 0.370849609 0.577148438
vt 0.577636719 0.577148438
vt 0.370361328 0.609863281
vt 0.577636719 0.641601562
vt 0.393798828 0.641601562
vt 0.380371094 0.673828125
vt 0.292480469 0.658203125
vt 0.344482422 0.637207031
vt 0.393798828 0.641601562
vt 0.370361328 0.609863281
vt 0.370849609 0.577148438
vt 0.370361328 0.609863281
vt 0.330566406 0.628417969
vt 0.344482422 0.637207031
vt 0.292480469 0.658203125
vt 0.214477539 0.915527344
vt 0.177734375 0.915527344
vt 0.214477539 0.965332031
vt 0.307861328 0.965332031
vt 0.348144531 0.915527344
vt 0.0296478271 0.202392578
vt 0.582519531 0.248901367
vt 0.0296478271 0.248901367
vt 0.582519531 0.202392578
vt 0.0296478271 0.163208008
vt 0.582519531 0.163208008
vt 0.90234375 0.899902344
vt 0.909667969 0.97265625
vt 0.923339844 0.969726562
vt 0.900878906 0.96484375
vt 0.94140625 0.878417969
vt 0.906738281 0.809570312
vt 0.886230469 0.819824219
vt 0.90234375 0.899902344
vt 0.975097656 0.940917969
vt 0.923339844 0.969726562
vt 0.734863281 0.982421875
vt 0.765136719 0.965332031
vt 0.702636719 0.890625
vt 0.90234375 0.899902344
vt 0.900878906 0.96484375
vt 0.705566406 0.819824219
vt 0.874023438 0.841308594
vt 0.365722656 0.95703125
vt 0.330566406 0.95703125
vt 0.419433594 0.916992188
vt 0.476318359 0.95703125
vt 0.704101562 0.73046875
vt 0.704101562 0.808105469
vt 0.841796875 0.808105469
vt 0.841796875 0.73046875
vt 0.942871094 0.736328125
vt 0.921386719 0.736328125
vt 0.921386719 0.800292969
vt 0.942871094 0.800292969
vt 0.974121094 0.630859375
vt 0.974121094 0.661132812
vt 0.894042969 0.661132812
vt 0.894042969 0.630859375
vt 0.894042969 0.599609375
vt 0.974121094 0.599609375
vt 0.974121094 0.569335938
vt 0.922851562 0.569335938
vt 0.913574219 0.176757812
vt 0.913574219 0.137573242
vt 0.969238281 0.137573242
vt 0.969238281 0.176757812
vt 0.974121094 0.569335938
vt 0.922851562 0.569335938
vt 0.894042969 0.599609375
vt 0.974121094 0.599609375
vt 0.974121094 0.630859375
vt 0.894042969 0.630859375
vt 0.894042969 0.661132812
vt 0.974121094 0.661132812
vt 0.938476562 0.312255859
vt 0.912597656 0.297119141
vt 0.96484375 0.297119141
vt 0.899414062 0.273925781
vt 0.978027344 0.273925781
vt 0.913574219 0.250732422
vt 0.969238281 0.250732422
vt 0.978027344 0.273925781
vt 0.913574219 0.250732422
vt 0.969238281 0.250732422
vt 0.899414062 0.273925781
vt 0.96484375 0.297119141
vt 0.912597656 0.297119141
vt 0.938476562 0.312255859
vt 0.219360352 0.476074219
vt 0.343994141 0.321533203
vt 0.219360352 0.321533203
vt 0.343994141 0.476074219
vt 0.476074219 0.476074219
vt 0.476074219 0.321533203
vt 0.59375 0.476074219
vt 0.59375 0.321533203
vt 0.689941406 0.476074219
vt 0.689941406 0.321533203
vt 0.490966797 0.907226562
vt 0.642089844 0.907226562
vt 0.642089844 0.95703125
vt 0.490966797 0.95703125
vt 0.159301758 0.152587891
vt 0.0294342041 0.0887451172
vt 0.0294342041 0.152587891
vt 0.159301758 0.0887451172
vt 0.289550781 0.0887451172
vt 0.289550781 0.152587891
vt 0.433349609 0.152587891
vt 0.433349609 0.0887451172
vt 0.596679688 0.152587891
vt 0.596679688 0.0887451172
vt 0.343994141 0.321533203
vt 0.219360352 0.476074219
vt 0.219360352 0.321533203
vt 0.343994141 0.476074219
vt 0.476074219 0.476074219
vt 0.476074219 0.321533203
vt 0.59375 0.476074219
vt 0.59375 0.321533203
vt 0.689941406 0.476074219
vt 0.689941406 0.321533203
vt 0.691894531 0.899414062
vt 0.657714844 0.899414062
vt 0.657714844 0.976074219
vt 0.691894531 0.976074219
vt 0.960449219 0.866210938
vt 0.95703125 0.84375
vt 0.944335938 0.86328125
vt 0.973632812 0.848144531
vt 0.95703125 0.731933594
vt 0.973632812 0.7265625
vt 0.961425781 0.697265625
vt 0.946777344 0.705078125
vt 0.0378417969 0.360351562
vt 0.0498657227 0.327148438
vt 0.0378417969 0.327148438
vt 0.0498657227 0.360351562
vt 0.141601562 0.327148438
vt 0.141601562 0.360351562
vt 0.165649414 0.327148438
vt 0.165649414 0.360351562
vt 0.341552734 0.801757812
vt 0.374023438 0.801757812
vt 0.374023438 0.762695312
vt 0.341552734 0.762695312
vt 0.6171875 0.170898438
vt 0.653808594 0.170898438
vt 0.653808594 0.0951538086
vt 0.6171875 0.0951538086
vt 0.691894531 0.899414062
vt 0.691894531 0.976074219
vt 0.657714844 0.976074219
vt 0.657714844 0.899414062
vt 0.961425781 0.697265625
vt 0.95703125 0.731933594
vt 0.946777344 0.705078125
vt 0.973632812 0.7265625
vt 0.973632812 0.848144531
vt 0.95703125 0.84375
vt 0.960449219 0.866210938
vt 0.944335938 0.86328125
vt 0.653808594 0.0951538086
vt 0.6171875 0.0951538086
vt 0.6171875 0.170898438
vt 0.653808594 0.170898438
vt 0.567382812 0.487792969
vt 0.69140625 0.563476562
vt 0.69140625 0.487792969
vt 0.567382812 0.563476562
vt 0.451416016 0.487792969
vt 0.451416016 0.563476562
vt 0.349609375 0.563476562
vt 0.349609375 0.487792969
vt 0.247314453 0.487792969
vt 0.247314453 0.563476562
vt 0.914550781 0.104064941
vt 0.914550781 0.0728149414
vt 0.966796875 0.0728149414
vt 0.966796875 0.104064941
vt 0.966796875 0.131713867
vt 0.914550781 0.131713867
vt 0.966796875 0.0288848877
vt 0.966796875 0.0728149414
vt 0.914550781 0.0728149414
vt 0.914550781 0.0288848877
vt 0.966796875 0.104064941
vt 0.914550781 0.0728149414
vt 0.966796875 0.0728149414
vt 0.914550781 0.104064941
vt 0.966796875 0.131713867
vt 0.914550781 0.131713867
vt 0.966796875 0.0728149414
vt 0.914550781 0.0728149414
vt 0.914550781 0.0288848877
vt 0.966796875 0.0288848877
vt 0.127319336 0.958007812
vt 0.0968017578 0.932617188
vt 0.127319336 0.932617188
vt 0.0968017578 0.958007812
vt 0.0631103516 0.909179688
vt 0.0631103516 0.978027344
vt 0.022354126 0.943359375
vt 0.142211914 0.914550781
vt 0.166015625 0.914550781
vt 0.166015625 0.966796875
vt 0.142211914 0.966796875
vt 0.0372009277 0.37890625
vt 0.112243652 0.37890625
vt 0.0466003418 0.507324219
vt 0.132446289 0.509765625
vt 0.159790039 0.37890625
vt 0.205444336 0.508789062
vt 0.284667969 0.90234375
vt 0.37109375 0.90234375
vt 0.215942383 0.90234375
vt 0.149291992 0.90234375
vt 0.0500793457 0.552246094
vt 0.0240020752 0.560058594
vt 0.0450439453 0.90234375
vt 0.96875 0.382568359
vt 0.892578125 0.447998047
vt 0.892578125 0.306396484
vt 0.981445312 0.447998047
vt 0.956054688 0.512207031
vt 0.892578125 0.576660156
vt 0.0372009277 0.37890625
vt 0.0466003418 0.507324219
vt 0.112243652 0.37890625
vt 0.132446289 0.509765625
vt 0.159790039 0.37890625
vt 0.205444336 0.508789062
vt 0.284667969 0.90234375
vt 0.37109375 0.90234375
vt 0.215942383 0.90234375
vt 0.149291992 0.90234375
vt 0.0500793457 0.552246094
vt 0.0240020752 0.560058594
vt 0.0450439453 0.90234375
vt 0.96875 0.382568359
vt 0.892578125 0.306396484
vt 0.892578125 0.447998047
vt 0.981445312 0.447998047
vt 0.956054688 0.512207031
vt 0.892578125 0.576660156
vt 0.544433594 0.307617188
vt 0.544433594 0.261230469
vt 0.688964844 0.261230469
vt 0.688964844 0.307617188
vt 0.0311279297 0.307617188
vt 0.0311279297 0.261230469
vt 0.532226562 0.261230469
vt 0.532226562 0.307617188
vt 0.532226562 0.307617188
vt 0.532226562 0.261230469
vt 0.544433594 0.261230469
vt 0.544433594 0.307617188
vt 0.913574219 0.250244141
vt 0.969238281 0.250244141
vt 0.969238281 0.176635742
vt 0.913574219 0.176635742
vt 0.969238281 0.250244141
vt 0.913574219 0.250244141
vt 0.913574219 0.176757812
vt 0.969238281 0.176757812
vt 0.586914062 0.615234375
vt 0.694335938 0.650878906
vt 0.694335938 0.572265625
vt 0.586914062 0.572265625
vt 0.694335938 0.572265625
vt 0.694335938 0.650878906
vt 0.586914062 0.615234375
vt 0.586914062 0.572265625
vn -0.157226562 0.0766601562 -0.984375
vn -0 0.0776367188 -0.997070312
vn -0 0.0776367188 -0.997070312
vn 0.157226562 0.0766601562 -0.984375
vn -0 0.0776367188 -0.997070312
vn -0 0.0776367188 -0.997070312
vn -0 0.209594727 -0.978027344
vn -0 0.209594727 -0.978027344
vn -0 0.209594727 -0.978027344
vn -0 0 1
vn -0 0 1
vn -0 0 1
vn -0 -0.586425781 -0.810058594
vn -0.782714844 -0.607421875 -0.135375977
vn -0 -0.586425781 -0.810058594
vn -0 0 1
vn -0 0 1
vn -0 0 1
vn -0 -0.586425781 -0.810058594
vn -0 -0.586425781 -0.810058594
vn 0.782714844 -0.607421875 -0.135375977
vn -0.925292969 -0.360595703 0.115844727
vn -0.686035156 -0.713378906 0.140991211
vn -0.659667969 -0.751464844 -0.00915527344
vn -0.765136719 -0.622070312 0.164916992
vn -0.983886719 -0.177734375 0.00451660156
vn -0.963378906 0.266113281 -0.0264282227
vn -0.926269531 0.375244141 0.0360412598
vn -0.999023438 -0.0464172363 -0.00751876831
vn -0.944335938 0.328369141 -0.00450515747
vn -0.985351562 0.170410156 -0.00576782227
vn -0.913085938 0.407714844 -0.0204467773
vn -0.85546875 0.517578125 -0.00218772888
vn -0.979980469 0.193969727 -0.0436706543
vn -0.979980469 0.193969727 -0.0436706543
vn -0.712402344 0.700683594 0.0305938721
vn -0.926269531 0.375244141 0.0360412598
vn -0.712402344 0.700683594 0.0305938721
vn -0.8828125 0.468261719 0.030166626
vn -0.983886719 -0.177734375 0.00451660156
vn -0.973632812 -0.228027344 0.0225982666
vn -0.765136719 -0.622070312 0.164916992
vn -0.799316406 -0.601074219 0.0121612549
vn -7.11083412E-05 0.168701172 0.985839844
vn -0.129272461 0.396728516 0.908691406
vn -0.127685547 0.267089844 0.955078125
vn -0.0571899414 0.104614258 0.992675781
vn 0.057220459 0.104370117 0.992675781
vn 0.127685547 0.266845703 0.955078125
vn 0.129272461 0.396728516 0.908691406
vn 0.925292969 -0.360595703 0.115844727
vn 0.659667969 -0.751464844 -0.00915527344
vn 0.686035156 -0.713378906 0.140991211
vn 0.765136719 -0.622070312 0.164916992
vn 0.983886719 -0.177734375 0.00451660156
vn 0.963378906 0.266113281 -0.0264282227
vn 0.926269531 0.375244141 0.0360412598
vn 0.999023438 -0.0464172363 -0.00751876831
vn 0.944824219 0.327636719 -0.00477218628
vn 0.985351562 0.170410156 -0.00576782227
vn 0.913085938 0.406982422 -0.0206756592
vn 0.85546875 0.517578125 -0.00218772888
vn 0.98046875 0.191894531 -0.0443115234
vn 0.98046875 0.191894531 -0.0443115234
vn 0.926269531 0.375244141 0.0360412598
vn 0.712402344 0.700683594 0.0305938721
vn 0.712402344 0.700683594 0.0305938721
vn 0.8828125 0.468261719 0.030166626
vn 0.983886719 -0.177734375 0.00451660156
vn 0.973632812 -0.228027344 0.0225982666
vn 0.765136719 -0.622070312 0.164916992
vn 0.799316406 -0.601074219 0.0121612549
vn -0 -1 0
vn -0 -1 0
vn -0 -1 0
vn -0 -1 0
vn -8.94069672E-07 -1 -0.00124454498
vn -1.1920929E-07 -1 0.0205383301
vn -0.97265625 0.23034668 0.0290374756
vn -0.999511719 -0.0139007568 0.0226745605
vn -0 0.999511719 0.0289611816
vn 3.57627869E-07 1 -0.000864505768
vn -0 0.401611328 0.916015625
vn 1.54972076E-06 0.527832031 0.849121094
vn -0.330078125 0.335693359 0.882324219
vn -0.439453125 0.385498047 0.811523438
vn 1.37090683E-06 0.695800781 0.718261719
vn -0 0.65234375 -0.758300781
vn -0 0.65234375 -0.758300781
vn -0 0.65234375 -0.758300781
vn -0 0.65234375 -0.758300781
vn -0 -7.15255737E-07 1
vn 1.1920929E-06 -2.98023224E-07 1
vn -0 -1.7285347E-06 1
vn 9.53674316E-07 2.98023224E-07 1
vn -0 2.98023224E-07 1
vn 8.34465027E-07 1 -0.0169677734
vn -0.998535156 0.0509338379 -0.0115356445
vn 9.53674316E-07 1 -0.0169677734
vn -0.998046875 0.0597839355 -0.0115966797
vn 4.76837158E-07 -1 -0.00411987305
vn 5.36441803E-07 -1 -0.00411987305
vn -0.69921875 -0.0780029297 -0.710449219
vn -0.661621094 -0.182617188 -0.727539062
vn -0.791992188 -0.404785156 -0.457519531
vn -0.82421875 -0.40234375 -0.398925781
vn -0.704101562 -0.709960938 0.0147018433
vn -0.782714844 -0.607421875 -0.135375977
vn -0.524902344 0.0634155273 0.849121094
vn -0 -0.945800781 0.324951172
vn -0 -0.974609375 0.222900391
vn -0.999511719 -0.00445556641 -0.0338439941
vn -2.98023224E-07 -0.0156173706 -1
vn -1.78813934E-07 -0.0156173706 -1
vn -0.997070312 -0.0170288086 0.0775756836
vn -0.872070312 0.000828742981 0.489257812
vn -0.958984375 -0.254394531 -0.12512207
vn 4.17232513E-07 0.00422286987 1
vn -0.990234375 0.0989379883 -0.0972900391
vn 1.78813934E-07 -0.384765625 0.922851562
vn -0.997070312 -0.0170288086 0.0775756836
vn -0 -0.517089844 0.855957031
vn -2.38418579E-07 0.551757812 -0.833984375
vn -0 0.596679688 -0.802246094
vn 1.1920929E-07 -1 -0.00826263428
vn -0.0856933594 -0.91015625 -0.404785156
vn -0 -0.982421875 0.186523438
vn -4.17232513E-07 -0.87109375 -0.490966797
vn 0.999511719 -0.0139007568 0.0226745605
vn -0 0.999511719 0.0289611816
vn 3.57627869E-07 1 -0.000864505768
vn 0.97265625 0.23034668 0.0290374756
vn -1.1920929E-07 -1 0.0205383301
vn -8.94069672E-07 -1 -0.00124454498
vn 0.82421875 -0.40234375 -0.398925781
vn 0.704101562 -0.709960938 0.0147018433
vn 0.791992188 -0.404785156 -0.457519531
vn 0.69921875 -0.0780029297 -0.710449219
vn 0.661621094 -0.182617188 -0.727539062
vn -0 0.401611328 0.916015625
vn 0.330078125 0.335693359 0.882324219
vn 1.54972076E-06 0.527832031 0.849121094
vn 0.439453125 0.385498047 0.811523438
vn 1.37090683E-06 0.695800781 0.718261719
vn -0 -7.15255737E-07 1
vn -0 -1.7285347E-06 1
vn -1.07288361E-06 -2.98023224E-07 1
vn -8.94069672E-07 2.98023224E-07 1
vn -0 2.98023224E-07 1
vn 0.998535156 0.0509338379 -0.0115966797
vn 8.34465027E-07 1 -0.0169677734
vn 9.53674316E-07 1 -0.0169677734
vn 0.998046875 0.0597839355 -0.0116577148
vn 4.76837158E-07 -1 -0.00411987305
vn 5.36441803E-07 -1 -0.00411987305
vn 0.782714844 -0.607421875 -0.135375977
vn -0 -0.945800781 0.324951172
vn 0.5234375 0.0654907227 0.849609375
vn -0 -0.974609375 0.222900391
vn 0.999511719 -0.00445556641 -0.0338439941
vn -1.78813934E-07 -0.0156173706 -1
vn -2.98023224E-07 -0.0156173706 -1
vn 0.997070312 -0.0170288086 0.0775756836
vn 0.872070312 0.000828742981 0.489257812
vn 0.958984375 -0.252685547 -0.129638672
vn 4.17232513E-07 0.00422286987 1
vn 1.78813934E-07 -0.384765625 0.922851562
vn 0.990234375 0.0989379883 -0.0972900391
vn 0.997070312 -0.0170288086 0.0775756836
vn -0 -0.517089844 0.855957031
vn -2.38418579E-07 0.551757812 -0.833984375
vn -0 0.596679688 -0.802246094
vn 1.1920929E-07 -1 -0.00826263428
vn -0 -0.982421875 0.186523438
vn 0.0856933594 -0.91015625 -0.404785156
vn -4.17232513E-07 -0.87109375 -0.490966797
vn -0 -4.76837158E-07 -1
vn -0 -4.76837158E-07 -1
vn -0 -4.76837158E-07 -1
vn -0 -4.76837158E-07 -1
vn 1.31130219E-06 -0.00225639343 1
vn 1.31130219E-06 -0.00225639343 1
vn 1.31130219E-06 -0.00225639343 1
vn 1.31130219E-06 -0.00225639343 1
vn 0.985839844 0.168823242 0.00137138367
vn 0.923339844 0.383544922 0.00144386292
vn 0.911621094 0.411132812 0.00160598755
vn 0.985351562 0.171630859 0.00103378296
vn 0.75390625 -0.656738281 -0.000335693359
vn 0.75390625 -0.656738281 0
vn 2.48551369E-05 -1 0
vn 2.47955322E-05 -1 0
vn -0 1 -0.00978088379
vn -0 1 -0.00978088379
vn -0 1 -0.00978088379
vn -0 1 -0.00978088379
vn 2.48551369E-05 -1 0
vn 2.47955322E-05 -1 0
vn -0.75390625 -0.656738281 -0.000335693359
vn -0.75390625 -0.656738281 0
vn -0.985839844 0.168823242 0.00137138367
vn -0.985351562 0.171508789 0.00103378296
vn -0.911621094 0.411132812 0.00160503387
vn -0.923339844 0.383544922 0.00144386292
vn -0 0.0126724243 -1
vn -0 0.00106811523 -1
vn -0 0.00106811523 -1
vn 1.78813934E-07 -0.00161075592 -1
vn 1.78813934E-07 -0.00161075592 -1
vn 5.36441803E-07 0.13659668 -0.990722656
vn 5.36441803E-07 0.13659668 -0.990722656
vn -0 0 1
vn -0 -3.57627869E-07 1
vn -0 -3.57627869E-07 1
vn -0 0 1
vn -0 0 1
vn -0 0 1
vn -0 0 1
vn 1 -0.00439453125 0.00159072876
vn 1 -0.0026512146 -0.0013885498
vn 1 -0.00439453125 0.00159072876
vn 1 -0.00259971619 -0.00147628784
vn 1 8.94069672E-05 -0.00340461731
vn 1 0.000157117844 -0.00332832336
vn 1 0.00933837891 0.00244140625
vn 1 0.010017395 0.00282669067
vn 1 0.018157959 0.00747299194
vn 1 0.018157959 0.00747299194
vn -0 -0.540527344 0.841308594
vn -0 -0.540527344 0.841308594
vn -0 -0.540527344 0.841308594
vn -0 -0.540527344 0.841308594
vn -1.78813934E-07 -0.251708984 -0.967773438
vn -1.78813934E-07 -0.199829102 -0.979980469
vn -1.78813934E-07 -0.199829102 -0.979980469
vn -1.78813934E-07 -0.251708984 -0.967773438
vn -1.1920929E-07 -0.4140625 -0.91015625
vn -1.1920929E-07 -0.4140625 -0.91015625
vn -0 -0.645019531 -0.764160156
vn -0 -0.645019531 -0.764160156
vn -0 -0.755371094 -0.655273438
vn -0 -0.755371094 -0.655273438
vn -1 -0.0026512146 -0.0013885498
vn -1 -0.00439453125 0.00159168243
vn -1 -0.00439453125 0.00159168243
vn -1 -0.00259971619 -0.00147628784
vn -1 8.95857811E-05 -0.00340461731
vn -1 0.000157356262 -0.00332832336
vn -1 0.00933837891 0.00244140625
vn -1 0.010017395 0.00282859802
vn -1 0.018157959 0.00747299194
vn -1 0.018157959 0.00747299194
vn 1 0 0
vn 1 0 0
vn 1 0 0
vn 1 0 0
vn -0.00256156921 -0.502929688 -0.864257812
vn 0.645507812 -0.682128906 -0.343994141
vn 0.958984375 -0.252685547 -0.129638672
vn 0.000678539276 -0.882324219 -0.470947266
vn 0.580078125 -0.783691406 0.223266602
vn -1.78813934E-07 -0.954589844 0.297851562
vn -0 -0.834472656 0.55078125
vn 0.56640625 -0.6875 0.454101562
vn -0 0.845214844 -0.534179688
vn -0 0.9609375 -0.276367188
vn -0 0.845214844 -0.534179688
vn -0 0.9609375 -0.276367188
vn 2.38418579E-07 0.926269531 0.376708984
vn 2.38418579E-07 0.92578125 0.378173828
vn 0.5234375 0.0654907227 0.849609375
vn -0.524902344 0.0634155273 0.849121094
vn -5.44786453E-05 -1 0.00121116638
vn -5.44786453E-05 -1 0.00121116638
vn -5.44786453E-05 -1 0.00121116638
vn -5.44786453E-05 -1 0.00121116638
vn -0 0 -1
vn -0 0 -1
vn -0 0 -1
vn -0 0 -1
vn -1 0 0
vn -1 0 0
vn -1 0 0
vn -1 0 0
vn -0 -0.834472656 0.55078125
vn -0.580078125 -0.783691406 0.223266602
vn -0.56640625 -0.6875 0.454101562
vn -1.78813934E-07 -0.954589844 0.297851562
vn 0.000678539276 -0.882324219 -0.470947266
vn -0.645507812 -0.682617188 -0.342041016
vn -0.00256156921 -0.502929688 -0.864257812
vn -0.958984375 -0.254394531 -0.12512207
vn -0 0.00357627869 1
vn -0 0.00357627869 1
vn -0 0.00357627869 1
vn -0 0.00357627869 1
vn -0 0.645019531 0.764160156
vn -0 0.733398438 0.680175781
vn -0 0.733398438 0.680175781
vn -0 0.645019531 0.764160156
vn -0 0.438232422 0.898925781
vn -0 0.438232422 0.898925781
vn -0 0.241455078 0.970214844
vn -0 0.241455078 0.970214844
vn -0 0.158081055 0.987304688
vn -0 0.158081055 0.987304688
vn -0.879882812 0.474853516 0
vn -0.705566406 0.708496094 0
vn -0.705566406 0.708496094 0
vn -0.879882812 0.474853516 0
vn -0.632324219 0.774902344 0
vn -0.632324219 0.774902344 0
vn 1.78813934E-07 -1 0
vn -0.704589844 -0.709472656 0
vn -0.704589844 -0.709472656 0
vn 1.78813934E-07 -1 0
vn 0.879882812 0.474853516 -6.55651093E-07
vn 0.705566406 0.708496094 -5.36441803E-07
vn 0.705566406 0.708496094 -5.36441803E-07
vn 0.879882812 0.474853516 -6.55651093E-07
vn 0.632324219 0.774902344 -4.76837158E-07
vn 0.632324219 0.774902344 -4.76837158E-07
vn 0.704589844 -0.709472656 0
vn 0.704589844 -0.709472656 0
vn 1.78813934E-07 -1 0
vn 1.78813934E-07 -1 0
vn -0 0 1
vn -0 0 1
vn -0 0 1
vn -0 0 1
vn -0 0 1
vn -0 0 1
vn -0 0 1
vn -0.632324219 0.774902344 0
vn 0.632324219 0.774902344 -4.76837158E-07
vn 0.632324219 0.774902344 -4.76837158E-07
vn -0.632324219 0.774902344 0
vn 2.38418579E-07 0.991699219 -0.128295898
vn -0.998046875 -0.0194549561 0.0588989258
vn 0.00426101685 0.91796875 0.396972656
vn -0.975097656 -0.138183594 0.174194336
vn -0 -0.965820312 0.259765625
vn -0 -0.953125 0.302978516
vn -0.871582031 -0.461181641 0.166259766
vn -1.1920929E-07 -0.945800781 0.324462891
vn -0.999023438 -0.00643920898 0.0439147949
vn -0.926269531 0.375976562 -0.0146179199
vn -0.772949219 0.602050781 0.200805664
vn -0.00467300415 0.994140625 0.108093262
vn 1.78813934E-07 0.997558594 -0.0663452148
vn 1.78813934E-07 -7.9035759E-05 -1
vn -0 -6.16908073E-05 -1
vn -0 -7.89761543E-05 -1
vn -0 -6.16312027E-05 -1
vn -0 -4.43458557E-05 -1
vn -0 -4.43458557E-05 -1
vn 2.38418579E-07 0.991699219 -0.128295898
vn 0.00426101685 0.91796875 0.396972656
vn 0.998046875 -0.0194549561 0.0588989258
vn 0.977050781 -0.130981445 0.167358398
vn -0 -0.965820312 0.259765625
vn -0 -0.953125 0.302978516
vn 0.871582031 -0.461181641 0.166259766
vn -1.1920929E-07 -0.945800781 0.324462891
vn 0.999023438 -0.00644302368 0.0439147949
vn 0.926269531 0.375976562 -0.0139846802
vn 0.756347656 0.624511719 0.195922852
vn -0.00467300415 0.994140625 0.108093262
vn 1.78813934E-07 0.997558594 -0.0663452148
vn -2.38418579E-07 -7.9035759E-05 -1
vn -0 -7.89761543E-05 -1
vn -0 -6.16908073E-05 -1
vn -0 -6.16312027E-05 -1
vn -0 -4.43458557E-05 -1
vn -0 -4.43458557E-05 -1
vn -0 0.99609375 -0.0859375
vn -0 0.99609375 -0.0859375
vn -0 0.99609375 -0.0859375
vn -0 0.99609375 -0.0859375
vn -0 1 -0.00168418884
vn -0 1 -0.00168418884
vn -0 1 -0.00168418884
vn -0 1 -0.00168418884
vn -0 -0.000254154205 -1
vn -0 -0.000254154205 -1
vn -0 -0.000254154205 -1
vn -0 -0.000254154205 -1
vn -0 -3.57627869E-07 1
vn -0 -3.57627869E-07 1
vn -0 -9.53674316E-07 1
vn -0 -9.53674316E-07 1
vn 5.36441803E-07 0.13659668 -0.990722656
vn 5.36441803E-07 0.13659668 -0.990722656
vn 7.74860382E-07 0.343994141 -0.938964844
vn 7.74860382E-07 0.343994141 -0.938964844
vn 0.990234375 0.138793945 5.06043434E-05
vn 0.911621094 0.411132812 0.00160598755
vn 0.923339844 0.383544922 0.00144386292
vn 0.990234375 0.138793945 5.06043434E-05
vn -0.923339844 0.383544922 0.00144386292
vn -0.911621094 0.411132812 0.00160503387
vn -0.990234375 0.138793945 5.07235527E-05
vn -0.990234375 0.138793945 5.07235527E-05
g jianglidaoju_AK_lod1_gpuskinmesh_0
f 3/3/3 2/2/2 1/1/1
f 6/6/6 5/5/5 4/4/4
f 9/9/9 8/8/8 7/7/7
f 12/12/12 11/11/11 10/10/10
f 15/15/15 14/14/14 13/13/13
f 18/18/18 17/17/17 16/16/16
f 21/21/21 20/20/20 19/19/19
f 24/24/24 23/23/23 22/22/22
f 25/25/25 22/22/22 23/23/23
f 25/25/25 26/26/26 22/22/22
f 27/27/27 22/22/22 26/26/26
f 27/27/27 26/26/26 28/28/28
f 22/22/22 27/27/27 29/29/29
f 27/27/27 28/28/28 30/30/30
f 27/27/27 31/31/31 29/29/29
f 27/27/27 30/30/30 32/32/32
f 31/31/31 27/27/27 32/32/32
f 33/33/33 31/31/31 32/32/32
f 30/30/30 34/34/34 32/32/32
f 34/34/34 35/35/35 32/32/32
f 38/38/38 37/37/37 36/36/36
f 37/37/37 39/39/39 36/36/36
f 37/37/37 40/40/40 39/39/39
f 40/40/40 41/41/41 39/39/39
f 40/40/40 42/42/42 41/41/41
f 42/42/42 43/43/43 41/41/41
f 46/46/46 45/45/45 44/44/44
f 47/47/47 46/46/46 44/44/44
f 44/44/44 48/48/48 47/47/47
f 48/48/48 44/44/44 49/49/49
f 50/50/50 49/49/49 44/44/44
f 53/53/53 52/52/52 51/51/51
f 51/51/51 54/54/54 53/53/53
f 55/55/55 54/54/54 51/51/51
f 51/51/51 56/56/56 55/55/55
f 55/55/55 56/56/56 57/57/57
f 56/56/56 51/51/51 58/58/58
f 57/57/57 56/56/56 59/59/59
f 60/60/60 56/56/56 58/58/58
f 56/56/56 61/61/61 59/59/59
f 56/56/56 60/60/60 61/61/61
f 60/60/60 62/62/62 61/61/61
f 59/59/59 61/61/61 63/63/63
f 61/61/61 64/64/64 63/63/63
f 67/67/67 66/66/66 65/65/65
f 66/66/66 68/68/68 65/65/65
f 69/69/69 65/65/65 68/68/68
f 70/70/70 69/69/69 68/68/68
f 71/71/71 69/69/69 70/70/70
f 72/72/72 71/71/71 70/70/70
f 75/75/75 74/74/74 73/73/73
f 76/76/76 75/75/75 73/73/73
f 79/79/79 78/78/78 77/77/77
f 79/79/79 80/80/80 78/78/78
f 79/79/79 81/81/81 80/80/80
f 81/81/81 82/82/82 80/80/80
f 85/85/85 84/84/84 83/83/83
f 86/86/86 84/84/84 85/85/85
f 87/87/87 84/84/84 86/86/86
f 90/90/90 89/89/89 88/88/88
f 91/91/91 90/90/90 88/88/88
f 94/94/94 93/93/93 92/92/92
f 92/92/92 93/93/93 95/95/95
f 96/96/96 92/92/92 95/95/95
f 99/99/99 98/98/98 97/97/97
f 98/98/98 100/100/100 97/97/97
f 98/98/98 101/101/101 100/100/100
f 101/101/101 102/102/102 100/100/100
f 105/105/105 104/104/104 103/103/103
f 105/105/105 103/103/103 106/106/106
f 107/107/107 105/105/105 106/106/106
f 110/110/110 109/109/109 108/108/108
f 111/111/111 110/110/110 108/108/108
f 114/114/114 113/113/113 112/112/112
f 113/113/113 115/115/115 112/112/112
f 116/116/116 112/112/112 115/115/115
f 117/117/117 116/116/116 115/115/115
f 120/120/120 119/119/119 118/118/118
f 119/119/119 120/120/120 121/121/121
f 120/120/120 122/122/122 121/121/121
f 119/119/119 121/121/121 123/123/123
f 123/123/123 121/121/121 124/124/124
f 127/127/127 126/126/126 125/125/125
f 125/125/125 126/126/126 128/128/128
f 131/131/131 130/130/130 129/129/129
f 130/130/130 132/132/132 129/129/129
f 133/133/133 129/129/129 132/132/132
f 133/133/133 132/132/132 134/134/134
f 137/137/137 136/136/136 135/135/135
f 138/138/138 137/137/137 135/135/135
f 139/139/139 137/137/137 138/138/138
f 142/142/142 141/141/141 140/140/140
f 143/143/143 141/141/141 142/142/142
f 144/144/144 143/143/143 142/142/142
f 147/147/147 146/146/146 145/145/145
f 147/147/147 145/145/145 148/148/148
f 145/145/145 149/149/149 148/148/148
f 152/152/152 151/151/151 150/150/150
f 151/151/151 153/153/153 150/150/150
f 150/150/150 153/153/153 154/154/154
f 153/153/153 155/155/155 154/154/154
f 158/158/158 157/157/157 156/156/156
f 157/157/157 159/159/159 156/156/156
f 162/162/162 161/161/161 160/160/160
f 163/163/163 162/162/162 160/160/160
f 160/160/160 164/164/164 163/163/163
f 164/164/164 165/165/165 163/163/163
f 168/168/168 167/167/167 166/166/166
f 167/167/167 168/168/168 169/169/169
f 170/170/170 167/167/167 169/169/169
f 168/168/168 171/171/171 169/169/169
f 169/169/169 171/171/171 172/172/172
f 175/175/175 174/174/174 173/173/173
f 175/175/175 173/173/173 176/176/176
f 179/179/179 178/178/178 177/177/177
f 180/180/180 179/179/179 177/177/177
f 183/183/183 182/182/182 181/181/181
f 184/184/184 183/183/183 181/181/181
f 187/187/187 186/186/186 185/185/185
f 188/188/188 187/187/187 185/185/185
f 189/189/189 188/188/188 185/185/185
f 190/190/190 189/189/189 185/185/185
f 189/189/189 190/190/190 191/191/191
f 192/192/192 189/189/189 191/191/191
f 195/195/195 194/194/194 193/193/193
f 196/196/196 195/195/195 193/193/193
f 199/199/199 198/198/198 197/197/197
f 200/200/200 199/199/199 197/197/197
f 201/201/201 199/199/199 200/200/200
f 202/202/202 199/199/199 201/201/201
f 202/202/202 201/201/201 203/203/203
f 201/201/201 204/204/204 203/203/203
f 207/207/207 206/206/206 205/205/205
f 206/206/206 207/207/207 208/208/208
f 207/207/207 209/209/209 208/208/208
f 208/208/208 209/209/209 210/210/210
f 209/209/209 211/211/211 210/210/210
f 214/214/214 213/213/213 212/212/212
f 213/213/213 215/215/215 212/212/212
f 212/212/212 215/215/215 216/216/216
f 215/215/215 217/217/217 216/216/216
f 218/218/218 216/216/216 217/217/217
f 221/221/221 220/220/220 219/219/219
f 220/220/220 222/222/222 219/219/219
f 223/223/223 222/222/222 220/220/220
f 224/224/224 223/223/223 220/220/220
f 223/223/223 224/224/224 225/225/225
f 224/224/224 226/226/226 225/225/225
f 227/227/227 225/225/225 226/226/226
f 228/228/228 227/227/227 226/226/226
f 231/231/231 230/230/230 229/229/229
f 232/232/232 231/231/231 229/229/229
f 235/235/235 234/234/234 233/233/233
f 234/234/234 236/236/236 233/233/233
f 233/233/233 236/236/236 237/237/237
f 238/238/238 233/233/233 237/237/237
f 238/238/238 237/237/237 239/239/239
f 237/237/237 240/240/240 239/239/239
f 239/239/239 240/240/240 241/241/241
f 240/240/240 242/242/242 241/241/241
f 245/245/245 244/244/244 243/243/243
f 244/244/244 246/246/246 243/243/243
f 243/243/243 246/246/246 247/247/247
f 248/248/248 243/243/243 247/247/247
f 248/248/248 247/247/247 249/249/249
f 250/250/250 248/248/248 249/249/249
f 250/250/250 249/249/249 251/251/251
f 252/252/252 250/250/250 251/251/251
f 255/255/255 254/254/254 253/253/253
f 256/256/256 255/255/255 253/253/253
f 259/259/259 258/258/258 257/257/257
f 258/258/258 260/260/260 257/257/257
f 258/258/258 261/261/261 260/260/260
f 261/261/261 262/262/262 260/260/260
f 262/262/262 261/261/261 263/263/263
f 261/261/261 264/264/264 263/263/263
f 267/267/267 266/266/266 265/265/265
f 266/266/266 268/268/268 265/265/265
f 266/266/266 269/269/269 268/268/268
f 269/269/269 270/270/270 268/268/268
f 269/269/269 271/271/271 270/270/270
f 271/271/271 272/272/272 270/270/270
f 275/275/275 274/274/274 273/273/273
f 276/276/276 275/275/275 273/273/273
f 279/279/279 278/278/278 277/277/277
f 280/280/280 279/279/279 277/277/277
f 283/283/283 282/282/282 281/281/281
f 284/284/284 283/283/283 281/281/281
f 287/287/287 286/286/286 285/285/285
f 286/286/286 288/288/288 285/285/285
f 289/289/289 288/288/288 286/286/286
f 290/290/290 289/289/289 286/286/286
f 289/289/289 290/290/290 291/291/291
f 290/290/290 292/292/292 291/291/291
f 295/295/295 294/294/294 293/293/293
f 296/296/296 295/295/295 293/293/293
f 299/299/299 298/298/298 297/297/297
f 298/298/298 300/300/300 297/297/297
f 301/301/301 297/297/297 300/300/300
f 302/302/302 301/301/301 300/300/300
f 302/302/302 303/303/303 301/301/301
f 303/303/303 304/304/304 301/301/301
f 304/304/304 303/303/303 305/305/305
f 303/303/303 306/306/306 305/305/305
f 309/309/309 308/308/308 307/307/307
f 310/310/310 309/309/309 307/307/307
f 310/310/310 307/307/307 311/311/311
f 307/307/307 312/312/312 311/311/311
f 315/315/315 314/314/314 313/313/313
f 316/316/316 315/315/315 313/313/313
f 319/319/319 318/318/318 317/317/317
f 318/318/318 320/320/320 317/317/317
f 317/317/317 320/320/320 321/321/321
f 320/320/320 322/322/322 321/321/321
f 325/325/325 324/324/324 323/323/323
f 326/326/326 325/325/325 323/323/323
f 329/329/329 328/328/328 327/327/327
f 328/328/328 330/330/330 327/327/327
f 328/328/328 331/331/331 330/330/330
f 331/331/331 332/332/332 330/330/330
f 333/333/333 332/332/332 331/331/331
f 336/336/336 335/335/335 334/334/334
f 337/337/337 336/336/336 334/334/334
f 340/340/340 339/339/339 338/338/338
f 340/340/340 341/341/341 339/339/339
f 339/339/339 341/341/341 342/342/342
f 341/341/341 343/343/343 342/342/342
f 343/343/343 341/341/341 344/344/344
f 345/345/345 343/343/343 344/344/344
f 344/344/344 341/341/341 346/346/346
f 347/347/347 346/346/346 341/341/341
f 348/348/348 341/341/341 340/340/340
f 347/347/347 341/341/341 348/348/348
f 349/349/349 348/348/348 340/340/340
f 347/347/347 348/348/348 349/349/349
f 350/350/350 347/347/347 349/349/349
f 353/353/353 352/352/352 351/351/351
f 351/351/351 352/352/352 354/354/354
f 355/355/355 354/354/354 352/352/352
f 356/356/356 355/355/355 352/352/352
f 359/359/359 358/358/358 357/357/357
f 360/360/360 358/358/358 359/359/359
f 359/359/359 361/361/361 360/360/360
f 361/361/361 362/362/362 360/360/360
f 360/360/360 362/362/362 363/363/363
f 362/362/362 364/364/364 363/363/363
f 360/360/360 363/363/363 365/365/365
f 366/366/366 360/360/360 365/365/365
f 367/367/367 358/358/358 360/360/360
f 366/366/366 367/367/367 360/360/360
f 358/358/358 367/367/367 368/368/368
f 368/368/368 367/367/367 366/366/366
f 366/366/366 369/369/369 368/368/368
f 372/372/372 371/371/371 370/370/370
f 372/372/372 370/370/370 373/373/373
f 373/373/373 374/374/374 372/372/372
f 374/374/374 375/375/375 372/372/372
f 378/378/378 377/377/377 376/376/376
f 379/379/379 378/378/378 376/376/376
f 382/382/382 381/381/381 380/380/380
f 383/383/383 382/382/382 380/380/380
f 386/386/386 385/385/385 384/384/384
f 387/387/387 386/386/386 384/384/384
f 390/390/390 389/389/389 388/388/388
f 391/391/391 390/390/390 388/388/388
f 394/394/394 393/393/393 392/392/392
f 395/395/395 394/394/394 392/392/392
f 398/398/398 397/397/397 396/396/396
f 399/399/399 398/398/398 396/396/396
f 402/402/402 401/401/401 400/400/400
f 403/403/403 402/402/402 400/400/400
