g Low_A_vehicle_jmxqc_01_1
v -0.0150986351 0.667887866 -0.131418481
v 0.0155703956 0.665425539 -0.13281931
v 0.0150986398 0.667887866 0.0633571371
v -0.0155703994 0.665425539 0.0647579655
v 0.252359867 0.416496038 0.139893666
v 0.24901709 0.442865849 0.130823657
v 0.250439584 0.444523215 0.145482302
v 0.250525653 0.429789156 0.149025917
v 0.252359867 0.416496038 0.139893666
v 0.25618127 0.420372277 0.149427235
v 0.24901709 0.442865849 0.130823657
v 0.24901709 0.442865849 0.130823657
v 0.256489873 0.452355802 0.14353855
v 0.302544266 0.475373209 0.107483454
v 0.297711581 0.477360457 0.121803865
v 0.302544266 0.475373209 0.107483454
v 0.325613916 0.437297404 0.121466808
v 0.322501868 0.472083688 0.12970382
v 0.325613916 0.437297404 0.121466808
v 0.321745634 0.439563602 0.139260843
v 0.325613916 0.437297404 0.121466808
v 0.309813857 0.430724442 0.139908329
v 0.273131967 0.421185613 0.147427768
v 0.325613916 0.437297404 0.121466808
v 0.252359867 0.416496038 0.139893666
v 0.325613916 0.437297404 0.121466808
v 0.302544266 0.475373209 0.107483454
v 0.252359867 0.416496038 0.139893666
v 0.24901709 0.442865849 0.130823657
v -0.252359867 0.416496038 0.139893666
v -0.250439584 0.444523215 0.145482302
v -0.24901709 0.442865849 0.130823657
v -0.250525653 0.429789156 0.149025917
v -0.252359867 0.416496038 0.139893666
v -0.25618127 0.420372277 0.149427235
v -0.256489873 0.452355802 0.14353855
v -0.24901709 0.442865849 0.130823657
v -0.24901709 0.442865849 0.130823657
v -0.302544266 0.475373209 0.107483454
v -0.297711581 0.477360457 0.121803865
v -0.327596664 0.463873059 0.133395776
v -0.302544266 0.475373209 0.107483454
v -0.325613916 0.437297404 0.121466808
v -0.278322667 0.423074335 0.147695884
v -0.325613916 0.437297404 0.121466808
v -0.309813857 0.430724442 0.139908329
v -0.325613916 0.437297404 0.121466808
v -0.252359867 0.416496038 0.139893666
v -0.325613916 0.437297404 0.121466808
v -0.302544266 0.475373209 0.107483454
v -0.252359867 0.416496038 0.139893666
v -0.24901709 0.442865849 0.130823657
v 3.27803683E-16 0.611618757 -0.108358212
v 0.0906768069 0.5963521 0.17718856
v 4.85722565E-18 0.606723666 0.187429771
v 0.12050122 0.595129073 -0.102245294
v 0.0906768069 0.5963521 0.17718856
v 0.212868944 0.538702607 0.0361599624
v 0.190569818 0.52818656 0.148368597
v 0.190569818 0.52818656 0.148368597
v 0.285379976 0.439519018 -0.0101087326
v 0.240829349 0.428421289 0.144946814
v 0.275130242 0.39878276 0.165635526
v 0.164008051 0.423251033 0.192403689
v 0.162287354 0.383373231 0.302713513
v 0.164008051 0.423251033 0.192403689
v 4.85722565E-18 0.419858098 0.225995556
v 4.85722565E-18 0.398686349 0.30883947
v 0.0795893073 0.373088598 0.391291499
v 4.0826151E-17 0.39829123 0.438096911
v 0.123485498 0.28978464 0.564572692
v 3.81981849E-17 0.334426045 0.575581849
v -2.42840323E-16 0.198720932 0.720499814
v 0.249076217 0.331527174 0.465277016
v 0.12621589 0.17815043 0.692143977
v 0.0920922235 0.240775466 0.671816409
v 0.0861026868 0.124515429 0.690783441
v -1.10027939E-16 0.121564008 0.709822357
v 0.241069064 0.235440299 0.612104535
v 0.207799554 0.11183808 0.592059195
v 0.286438078 0.0950852782 0.445401639
v 0.128646776 0.0761425942 0.559275031
v 0.332578033 0.185937464 0.493155807
v 0.325617969 0.315205574 0.422230005
v 0.382355928 0.15909484 0.272477061
v 0.358944863 0.0959594473 0.0849364102
v 0.273991138 0.0435076132 0.127260208
v 0.400787115 0.235150516 0.277878076
v 0.358620018 0.108999811 -0.247494131
v 0.434165627 0.258777469 0.0163026936
v 0.37849614 0.361377716 0.116691634
v 0.272296011 0.0426241904 -0.218486071
v 0.419429243 0.178490043 -0.12641412
v 0.364998907 0.367163956 -0.200913027
v 0.425158083 0.268888175 -0.223524466
v 0.368094414 0.186421424 -0.380264372
v 0.147382155 0.0525512509 -0.562518895
v 0.207427815 0.119447544 -0.606473446
v 0.108550511 0.123482339 -0.686789393
v 0.0728354082 0.0573928542 -0.628416836
v 3.32668987E-16 0.122133784 -0.708045363
v 0.225673676 0.238398716 -0.590166926
v 0.110546365 0.21536544 -0.666442215
v 4.85722565E-18 0.199769795 -0.687749565
v 0.360283107 0.27291733 -0.391934186
v 0.274303436 0.376819611 -0.39004159
v 0.199828148 0.380390793 -0.474285811
v 0.107819766 0.370637864 -0.518922806
v 5.41328797E-17 0.326090485 -0.577796519
v 4.85722565E-18 0.564251363 -0.28309235
v 0.161890626 0.539841413 -0.271440446
v 0.277114838 0.436165392 -0.230747819
v 0.220123738 0.54500246 -0.134408608
v 0.190569818 0.52818656 0.148368597
v 0.240829349 0.428421289 0.144946814
v 0.164008051 0.423251033 0.192403689
v 0.0945961326 0.512176931 0.196453661
v 0.164008051 0.423251033 0.192403689
v 0.190569818 0.52818656 0.148368597
v 4.85722565E-18 0.419858098 0.225995556
v 0.0906768069 0.5963521 0.17718856
v 4.85722565E-18 0.520593584 0.209197178
v 0.0906768069 0.5963521 0.17718856
v 4.85722565E-18 0.606723666 0.187429771
v -0.0906768069 0.5963521 0.17718856
v 4.85722565E-18 0.520593584 0.209197178
v -0.0945961326 0.512176931 0.196453661
v -0.0906768069 0.5963521 0.17718856
v 4.85722565E-18 0.419858098 0.225995556
v -0.190569818 0.52818656 0.148368597
v -0.164008051 0.423251033 0.192403689
v -0.190569818 0.52818656 0.148368597
v -0.164008051 0.423251033 0.192403689
v -0.240829349 0.428421289 0.144946814
v 4.85722565E-18 0.606723666 0.187429771
v -0.0906768069 0.5963521 0.17718856
v -0.0906768069 0.5963521 0.17718856
v -0.190569818 0.52818656 0.148368597
v -0.212868944 0.538702607 0.0361599624
v -0.190569818 0.52818656 0.148368597
v -0.276447654 0.437040538 0.0292295497
v -0.240829349 0.428421289 0.144946814
v -0.275130242 0.39878276 0.165635526
v -0.164008051 0.423251033 0.192403689
v -0.164008051 0.423251033 0.192403689
v 4.85722565E-18 0.419858098 0.225995556
v 4.85722565E-18 0.398686349 0.30883947
v -0.162287354 0.383373231 0.302713513
v -0.0795893073 0.373088598 0.391291499
v -0.123485498 0.28978464 0.564572692
v -0.0920922235 0.240775466 0.671816409
v -0.249076217 0.331527174 0.465277016
v -0.325617969 0.315205574 0.422230005
v -0.12621589 0.17815043 0.692143977
v -0.128646776 0.0761425942 0.559275031
v -0.0861026868 0.124515429 0.690783441
v -0.207799554 0.11183808 0.592059195
v -0.264279425 0.0489148796 0.239972472
v -0.241069064 0.235440299 0.612104535
v -0.322401643 0.154358864 0.48059544
v -0.331936747 0.213216662 0.489437371
v -0.400787115 0.235150516 0.277878076
v -0.286438078 0.0950852782 0.445401639
v -0.28370285 0.0381003432 0.0145479366
v -0.382355928 0.15909484 0.272477061
v -0.358944863 0.0959594473 0.0849364102
v -0.282899559 0.0413051844 -0.14266707
v -0.37849614 0.361377716 0.116691634
v -0.419106185 0.176959693 -0.0774562657
v -0.434165627 0.258777469 0.0163026936
v -0.261692464 0.0439431928 -0.294305086
v -0.289340287 0.43749243 -0.0693672821
v -0.425158083 0.268888175 -0.223524466
v -0.371254146 0.370153815 -0.140319332
v -0.358620018 0.108999811 -0.247494131
v -0.217311174 0.0509200357 -0.442065507
v -0.397514105 0.179435834 -0.260972828
v -0.279230773 0.116157942 -0.460386634
v -0.147382155 0.0525512509 -0.562518895
v -0.334430754 0.36811927 -0.281381071
v -0.360283107 0.27291733 -0.391934186
v -0.368094414 0.186421424 -0.380264372
v -0.205967426 0.121275052 -0.612078905
v -0.108550511 0.123482339 -0.686789393
v -0.0728354082 0.0573928542 -0.628416836
v -0.218814075 0.192091689 -0.605059028
v 4.85722565E-18 0.199769795 -0.687749565
v -0.110546365 0.21536544 -0.666442215
v -0.217915699 0.282423466 -0.562665224
v -0.107819766 0.370637864 -0.518922806
v 4.85722565E-18 0.564251363 -0.28309235
v -0.274303436 0.376819611 -0.39004159
v -0.199828148 0.380390793 -0.474285811
v -0.0943975747 0.55489856 -0.278691381
v -0.190423101 0.517876863 -0.270526439
v -0.277114838 0.436165392 -0.230747819
v -0.12050122 0.595129073 -0.102245294
v -0.219436347 0.540468454 -0.156181201
v -0.217142299 0.546573341 -0.0675035194
vt 0.133614138 0.333754838
vt 0.157033637 0.314397573
vt 0.157563955 0.17789416
vt 0.134436429 0.188528195
vt 0.951048195 0.923638701
vt 0.949603796 0.937656522
vt 0.936782002 0.936323285
vt 0.940847516 0.924033523
vt 0.950096726 0.916004717
vt 0.94018209 0.914556682
vt 0.938299537 0.949415028
vt 0.924509406 0.955585003
vt 0.928656399 0.93894726
vt 0.886580408 0.964089215
vt 0.884750724 0.951687992
vt 0.867125273 0.950154781
vt 0.864080071 0.925055385
vt 0.876164496 0.935206652
vt 0.873358488 0.904304802
vt 0.88179481 0.910898864
vt 0.877951741 0.896406233
vt 0.89265579 0.90598321
vt 0.926279366 0.909909368
vt 0.89556849 0.891397297
vt 0.941915035 0.90475601
vt 0.894622386 0.865774751
vt 0.90396899 0.825318158
vt 0.926738381 0.862057984
vt 0.922133148 0.829204977
vt 0.950096726 0.916004717
vt 0.936782002 0.936323285
vt 0.949603796 0.937656522
vt 0.940847516 0.924033523
vt 0.949974 0.913829684
vt 0.94018209 0.914556682
vt 0.928805292 0.938880682
vt 0.94091332 0.948350191
vt 0.938299537 0.949415088
vt 0.905067086 0.960803688
vt 0.884750724 0.951687992
vt 0.876962781 0.927788019
vt 0.870246768 0.956682861
vt 0.862414181 0.933238149
vt 0.921582401 0.909982979
vt 0.873924315 0.900992036
vt 0.89265579 0.90598321
vt 0.89556849 0.891397297
vt 0.928253889 0.899046659
vt 0.894622386 0.865774751
vt 0.90396899 0.825318158
vt 0.926738381 0.862057984
vt 0.922133148 0.829204977
vt 0.6903826 0.880648315
vt 0.839232802 0.712574542
vt 0.869383454 0.748015106
vt 0.648948491 0.803398252
vt 0.8250615 0.697861314
vt 0.685992539 0.67847985
vt 0.766580403 0.645545602
vt 0.755955398 0.633404016
vt 0.605926454 0.624225974
vt 0.708036602 0.558396339
vt 0.692053735 0.524083912
vt 0.769704044 0.546976268
vt 0.813050687 0.46167621
vt 0.780341804 0.543028295
vt 0.907315612 0.554522157
vt 0.92784673 0.49464047
vt 0.894865513 0.414977998
vt 0.964743435 0.401679277
vt 0.894748747 0.266315311
vt 0.983404756 0.281081587
vt 0.963270843 0.117017165
vt 0.793625474 0.328564525
vt 0.875647962 0.138976827
vt 0.915123284 0.180151731
vt 0.878663301 0.0969973654
vt 0.929782748 0.0608733818
vt 0.810151458 0.213101029
vt 0.770455837 0.13527824
vt 0.656180024 0.183390647
vt 0.765838504 0.0708856136
vt 0.711679101 0.235500231
vt 0.735687077 0.335055679
vt 0.579125822 0.314743102
vt 0.442597657 0.359443367
vt 0.426474184 0.284609556
vt 0.614582479 0.3560265
vt 0.279153913 0.54680258
vt 0.495426655 0.487678856
vt 0.603617072 0.498724014
vt 0.224383846 0.488460839
vt 0.385804921 0.516797125
vt 0.451754451 0.654099822
vt 0.386201054 0.604365528
vt 0.272573024 0.65397203
vt 0.0648226738 0.762031198
vt 0.130972296 0.791611195
vt 0.0945039988 0.873035312
vt 0.0366216302 0.842120171
vt 0.0593824871 0.942276537
vt 0.210561961 0.819629252
vt 0.15665783 0.897132754
vt 0.119081557 0.969032049
vt 0.313997 0.698171973
vt 0.371851414 0.774043262
vt 0.336644322 0.843442202
vt 0.31244576 0.912313163
vt 0.25490737 0.987407088
vt 0.559970975 0.94600004
vt 0.523228109 0.83456099
vt 0.482282996 0.72825259
vt 0.588206649 0.750756443
vt 0.588395774 0.0783199072
vt 0.609968543 0.0379279852
vt 0.554996729 0.0314303115
vt 0.493907958 0.090061076
vt 0.49163273 0.021569876
vt 0.55885303 0.118401319
vt 0.424760193 0.0208744239
vt 0.518376708 0.141617477
vt 0.425141007 0.0945956036
vt 0.471827 0.155544445
vt 0.42546621 0.157565698
vt 0.379087061 0.156023443
vt 0.425141007 0.0945956036
vt 0.356330842 0.090771623
vt 0.359213889 0.153000712
vt 0.424760193 0.0208744239
vt 0.291681916 0.119781218
vt 0.303812146 0.0287232716
vt 0.280458003 0.109604672
vt 0.294639558 0.0327749699
vt 0.239737913 0.0398401469
vt 0.869383454 0.748015106
vt 0.839232802 0.712574542
vt 0.803183079 0.678493142
vt 0.766580403 0.645545602
vt 0.685992599 0.67847985
vt 0.735765517 0.601085663
vt 0.631332397 0.60811764
vt 0.708036602 0.558396339
vt 0.692053735 0.524083912
vt 0.769704044 0.546976268
vt 0.839674115 0.544177234
vt 0.907315612 0.554522157
vt 0.92784673 0.49464047
vt 0.813050628 0.46167627
vt 0.894865453 0.414977998
vt 0.894748747 0.266315311
vt 0.915123224 0.180151731
vt 0.793625474 0.328564525
vt 0.735687077 0.335055709
vt 0.875647962 0.138976812
vt 0.765838504 0.0708856136
vt 0.878663301 0.0969973654
vt 0.770455837 0.13527824
vt 0.498276055 0.226638004
vt 0.810151458 0.213101029
vt 0.694151759 0.219260156
vt 0.720086634 0.252538383
vt 0.614582479 0.356026471
vt 0.656180024 0.183390647
vt 0.354672313 0.342581153
vt 0.579125822 0.314743131
vt 0.442597687 0.359443367
vt 0.264693916 0.435852498
vt 0.603617072 0.498724014
vt 0.406490654 0.490382224
vt 0.495426655 0.487678856
vt 0.184073836 0.54106921
vt 0.57089752 0.650611281
vt 0.386201054 0.604365528
vt 0.482937157 0.62647438
vt 0.279153913 0.54680258
vt 0.119337648 0.658823788
vt 0.319839299 0.584965825
vt 0.179984629 0.685342073
vt 0.0648226738 0.762031198
vt 0.416674495 0.701344609
vt 0.313997 0.698171973
vt 0.272572994 0.65397203
vt 0.130701929 0.796316326
vt 0.094503969 0.873035312
vt 0.0366216302 0.842120171
vt 0.177894264 0.813218355
vt 0.119081557 0.969032049
vt 0.15665783 0.897132695
vt 0.244628042 0.83070457
vt 0.31244573 0.912313163
vt 0.559970975 0.94600004
vt 0.371851414 0.774043262
vt 0.336644292 0.843442202
vt 0.538107991 0.881453931
vt 0.508972108 0.813474417
vt 0.482282966 0.72825259
vt 0.648948431 0.803398311
vt 0.575198829 0.759115279
vt 0.627347112 0.724628627
vn -0 0.767953634 -0.640505433
vn -0 0.997679293 -0.068089515
vn -0 0.901281238 0.433234543
vn -0 0.997679293 0.0680893064
vn -0.955937445 -0.187680081 0.225743026
vn -0.906502485 0.422185063 -0.00361193856
vn -0.643684328 0.754153132 0.130090922
vn -0.338247687 0.101338863 0.935584843
vn -0.459096342 -0.801812232 0.382528037
vn -0.260748595 -0.0942880809 0.96079129
vn -0.878496945 0.476821125 -0.0297456775
vn -0.66406846 0.727536678 -0.172346845
vn -0.588469088 0.787557542 0.18291311
vn -0.424526691 0.863031685 -0.273775965
vn -0.29452914 0.904487014 0.308473259
vn 0.349278092 0.87766546 -0.328189164
vn 0.971667349 0.218345702 -0.0904863849
vn 0.0175249539 0.409468919 0.912155807
vn 0.809368849 -0.566030979 0.156624034
vn 0.274550796 -0.112691358 0.954946339
vn 0.562294543 -0.809207141 0.170319349
vn 0.346565306 -0.475171208 0.808767438
vn 0.239051297 -0.834123075 0.497084677
vn 0.374251187 -0.885250509 0.276166052
vn -0.246305346 -0.894619584 0.372812986
vn -0.13063933 -0.335080057 -0.933088779
vn -0.211507395 -0.346545786 -0.913876653
vn -0.215733156 -0.346325547 -0.912972033
vn -0.217422172 -0.345977396 -0.912703216
vn 0.459096402 -0.801812112 0.382528245
vn 0.643684328 0.754153132 0.130090922
vn 0.906502485 0.422185004 -0.00361183728
vn 0.338247687 0.101338863 0.935584843
vn 0.273311466 -0.887000799 0.372196555
vn 0.260748595 -0.0942880809 0.96079129
vn 0.591074228 0.78522253 0.184545174
vn 0.906502485 0.422185004 -0.00361183728
vn 0.878496945 0.476821065 -0.02974548
vn 0.55259037 0.800997078 -0.23032029
vn 0.29452914 0.904487014 0.308473259
vn -0.115826771 0.253760487 0.960307121
vn 0.0657898337 0.921916425 -0.381761432
vn -0.887572825 0.419945568 -0.18936789
vn -0.255706549 -0.763410091 0.593143523
vn -0.695523918 -0.701247275 0.15652056
vn -0.346565306 -0.475171208 0.808767438
vn -0.374251246 -0.88525039 0.276166111
vn -0.249231249 -0.918044627 0.308346957
vn 0.130639136 -0.335080147 -0.933088899
vn 0.211507395 -0.346545964 -0.913876653
vn 0.215733096 -0.346325487 -0.912972033
vn 0.217422172 -0.345977306 -0.912703216
vn -0.00162507605 0.991581023 -0.129477516
vn 0.223559484 0.880657494 0.41768837
vn -0 0.902441323 0.430812746
vn 0.290274918 0.951024473 -0.106267728
vn 0.330666274 0.85235554 0.405154139
vn 0.650188386 0.748292804 0.131578729
vn 0.651239514 0.55798775 0.51433152
vn 0.674922585 0.517718732 0.525782168
vn 0.678020179 0.728948772 0.094458133
vn 0.666807353 0.598477185 0.44406417
vn 0.36044839 0.900530696 0.243148968
vn 0.338900626 0.627021253 0.701420486
vn 0.0989469364 0.980887175 0.167540774
vn 0.309927195 0.65286082 0.691171408
vn -0 0.635923088 0.771752357
vn -0 0.987160325 0.159733132
vn 0.245915532 0.942641735 0.225725874
vn -0.00405438896 0.977781057 0.209589571
vn 0.167091131 0.873347044 0.457542837
vn -0.00247402908 0.860373259 0.509658515
vn -0.00233898824 0.276745945 0.960940301
vn 0.175320446 0.914848983 0.363750011
vn 0.414341927 0.0373590551 0.90935427
vn 0.23338981 0.707251728 0.667326152
vn 0.281373233 -0.700550973 0.655787706
vn 3.92080437E-05 -0.723741472 0.690071285
vn 0.612610877 0.33535105 0.715714812
vn 0.517315984 -0.677610576 0.52271229
vn 0.604510128 -0.749965191 0.268551111
vn 0.23882623 -0.904574752 0.353138208
vn 0.886947811 -0.135816082 0.441449404
vn 0.693664014 0.623678863 0.360353738
vn 0.886454999 -0.430105805 0.170899093
vn 0.706256509 -0.705892503 0.0540144183
vn 0.583153844 -0.809512556 0.0679783076
vn 0.96843791 0.112786911 0.222277209
vn 0.71523869 -0.683327794 -0.146617338
vn 0.98341769 0.175124675 0.0471267775
vn 0.742721558 0.657227874 0.128125682
vn 0.614190459 -0.780553699 -0.116215497
vn 0.934714496 -0.34906745 -0.0667883083
vn 0.765414715 0.623028278 -0.161170781
vn 0.951335311 0.253492713 -0.175221384
vn 0.878993332 -0.254939437 -0.402959704
vn 0.531845808 -0.734751701 -0.421046376
vn 0.657598495 -0.512625992 -0.552067697
vn 0.388058811 -0.330393225 -0.860378265
vn 0.324941844 -0.718623579 -0.614811361
vn -0.000770409766 -0.269345045 -0.963043451
vn 0.644182146 0.319036305 -0.695158362
vn 0.294589132 0.436463118 -0.850127816
vn -0 0.467967689 -0.883745611
vn 0.817175388 0.353261769 -0.455445319
vn 0.649796128 0.629018664 -0.426732391
vn 0.41641885 0.699276805 -0.581039846
vn 0.135569707 0.74565208 -0.652398467
vn -0.000187346333 0.719204187 -0.694798768
vn -0 0.887008965 -0.461752146
vn 0.4102301 0.821683824 -0.395660192
vn 0.714168966 0.674123704 -0.18846716
vn 0.578973353 0.80534476 -0.127317443
vn 0.713400602 0.403263539 0.573095202
vn 0.666807353 0.598477185 0.44406417
vn 0.338900626 0.627021253 0.701420486
vn 0.255466461 0.19844228 0.946233273
vn 0.161761224 0.625520647 0.763254344
vn 0.651239514 0.55798775 0.51433152
vn -0 0.635923088 0.771752357
vn 0.473628551 0.798229396 0.372163594
vn -0 0.191594794 0.981474102
vn 0.223559484 0.880657494 0.41768837
vn -0 0.902441323 0.430812746
vn -0.223559424 0.880657494 0.417688429
vn -0 0.191594794 0.981474102
vn -0.255466521 0.198442355 0.946233273
vn -0.331400424 0.867944598 0.36992687
vn -0 0.635923088 0.771752357
vn -0.651239514 0.55798763 0.5143314
vn -0.309291482 0.641340137 0.702155054
vn -0.681042075 0.5252707 0.51016885
vn -0.338900506 0.627021313 0.701420486
vn -0.666807294 0.598477125 0.44406426
vn -0 0.902441323 0.430812746
vn -0.223559424 0.880657494 0.417688429
vn -0.473628432 0.798229456 0.372163743
vn -0.651239514 0.55798763 0.5143314
vn -0.650188386 0.748292804 0.131578863
vn -0.713400602 0.403263539 0.573095202
vn -0.65877682 0.73694998 0.151386574
vn -0.666807294 0.598477125 0.44406426
vn -0.36044839 0.900530696 0.243148968
vn -0.338900506 0.627021313 0.701420486
vn -0.161761239 0.625520647 0.763254404
vn -0 0.635923088 0.771752357
vn -0 0.987160325 0.159733132
vn -0.0989469066 0.980887175 0.167540714
vn -0.245915532 0.942641675 0.225725859
vn -0.167091116 0.873347044 0.457542837
vn -0.23338978 0.707251668 0.667326212
vn -0.175320432 0.914848983 0.363750041
vn -0.693664074 0.623678803 0.360353738
vn -0.414341778 0.0373590216 0.909354329
vn -0.238826141 -0.904574752 0.353138149
vn -0.281373203 -0.700550973 0.655787587
vn -0.517316043 -0.677610457 0.52271235
vn -0.559381008 -0.820523322 0.11761985
vn -0.612610877 0.33535096 0.715714753
vn -0.815167546 -0.436758786 0.380451918
vn -0.887906075 0.101057857 0.448787481
vn -0.96843791 0.112786986 0.222277209
vn -0.604510188 -0.749965131 0.268551081
vn -0.605089426 -0.795951247 0.0181226041
vn -0.886455059 -0.430105686 0.170899123
vn -0.706256568 -0.705892503 0.0540144295
vn -0.609130561 -0.791100979 -0.0558482111
vn -0.742721558 0.657227874 0.128125682
vn -0.93005389 -0.366554677 -0.0252464116
vn -0.983417809 0.17512466 0.0471267849
vn -0.616927862 -0.767055094 -0.176143333
vn -0.698256195 0.715708971 0.0141010676
vn -0.951335311 0.253492683 -0.175221384
vn -0.763034403 0.639869273 -0.0913551524
vn -0.71523869 -0.683327854 -0.146617338
vn -0.630687296 -0.710276127 -0.312636256
vn -0.91606921 -0.358767837 -0.179172352
vn -0.714901447 -0.595614672 -0.366277337
vn -0.531845808 -0.734751701 -0.421046317
vn -0.724069357 0.640436172 -0.256056547
vn -0.817175448 0.353261769 -0.455445319
vn -0.878993392 -0.254939348 -0.402959704
vn -0.658539534 -0.499993175 -0.562434494
vn -0.388058901 -0.330393225 -0.860378146
vn -0.324941695 -0.718623698 -0.614811242
vn -0.693937957 0.149950683 -0.704247713
vn -0 0.467967689 -0.883745611
vn -0.294589251 0.436463028 -0.850127757
vn -0.547843158 0.50375855 -0.667903602
vn -0.135569811 0.745652199 -0.652398407
vn -0 0.887008965 -0.461752146
vn -0.649796188 0.629018664 -0.426732302
vn -0.41641888 0.699276865 -0.581039786
vn -0.210195303 0.87604779 -0.434002608
vn -0.496262819 0.780564308 -0.380056173
vn -0.714169025 0.674123764 -0.1884671
vn -0.290274948 0.951024473 -0.106267743
vn -0.57455492 0.800776184 -0.169246048
vn -0.588759243 0.808305442 0.0022035155
g Low_A_vehicle_jmxqc_01_1_0
f 2/2/2 1/1/1 3/3/3
f 1/1/1 4/4/4 3/3/3
f 7/7/7 6/6/6 5/5/5
f 8/8/8 7/7/7 5/5/5
f 10/10/10 8/8/8 9/9/9
f 13/13/13 7/7/7 8/8/8
f 13/13/13 8/8/8 10/10/10
f 11/11/11 7/7/7 13/13/13
f 13/13/13 14/14/14 12/12/12
f 13/13/13 15/15/15 14/14/14
f 18/18/18 15/15/15 13/13/13
f 18/18/18 16/16/16 15/15/15
f 18/18/18 17/17/17 16/16/16
f 13/13/13 20/20/20 18/18/18
f 20/20/20 13/13/13 10/10/10
f 18/18/18 20/20/20 19/19/19
f 21/21/21 20/20/20 22/22/22
f 23/23/23 22/22/22 20/20/20
f 23/23/23 20/20/20 10/10/10
f 22/22/22 23/23/23 24/24/24
f 23/23/23 25/25/25 24/24/24
f 25/25/25 23/23/23 10/10/10
f 28/28/28 27/27/27 26/26/26
f 29/29/29 27/27/27 28/28/28
f 32/32/32 31/31/31 30/30/30
f 31/31/31 33/33/33 30/30/30
f 33/33/33 35/35/35 34/34/34
f 31/31/31 36/36/36 33/33/33
f 33/33/33 36/36/36 35/35/35
f 31/31/31 37/37/37 36/36/36
f 39/39/39 36/36/36 38/38/38
f 40/40/40 36/36/36 39/39/39
f 40/40/40 41/41/41 36/36/36
f 42/42/42 41/41/41 40/40/40
f 43/43/43 41/41/41 42/42/42
f 44/44/44 36/36/36 41/41/41
f 36/36/36 44/44/44 35/35/35
f 41/41/41 45/45/45 46/46/46
f 46/46/46 44/44/44 41/41/41
f 44/44/44 46/46/46 47/47/47
f 48/48/48 44/44/44 47/47/47
f 44/44/44 48/48/48 35/35/35
f 50/50/50 51/51/51 49/49/49
f 50/50/50 52/52/52 51/51/51
f 55/55/55 54/54/54 53/53/53
f 53/53/53 54/54/54 56/56/56
f 58/58/58 56/56/56 57/57/57
f 59/59/59 58/58/58 57/57/57
f 58/58/58 60/60/60 61/61/61
f 60/60/60 62/62/62 61/61/61
f 63/63/63 61/61/61 62/62/62
f 63/63/63 62/62/62 64/64/64
f 64/64/64 65/65/65 63/63/63
f 66/66/66 67/67/67 65/65/65
f 65/65/65 67/67/67 68/68/68
f 65/65/65 68/68/68 69/69/69
f 69/69/69 68/68/68 70/70/70
f 70/70/70 71/71/71 69/69/69
f 72/72/72 71/71/71 70/70/70
f 65/65/65 69/69/69 71/71/71
f 71/71/71 72/72/72 76/76/76
f 76/76/76 72/72/72 73/73/73
f 63/63/63 65/65/65 74/74/74
f 71/71/71 74/74/74 65/65/65
f 63/63/63 74/74/74 84/84/84
f 73/73/73 75/75/75 76/76/76
f 75/75/75 73/73/73 78/78/78
f 71/71/71 76/76/76 74/74/74
f 77/77/77 75/75/75 78/78/78
f 82/82/82 77/77/77 78/78/78
f 76/76/76 79/79/79 74/74/74
f 79/79/79 76/76/76 75/75/75
f 77/77/77 82/82/82 80/80/80
f 75/75/75 77/77/77 80/80/80
f 80/80/80 82/82/82 81/81/81
f 82/82/82 87/87/87 81/81/81
f 79/79/79 75/75/75 80/80/80
f 79/79/79 80/80/80 83/83/83
f 83/83/83 80/80/80 81/81/81
f 74/74/74 79/79/79 84/84/84
f 84/84/84 79/79/79 83/83/83
f 84/84/84 83/83/83 88/88/88
f 81/81/81 85/85/85 83/83/83
f 83/83/83 85/85/85 88/88/88
f 81/81/81 87/87/87 86/86/86
f 85/85/85 81/81/81 86/86/86
f 87/87/87 92/92/92 86/86/86
f 88/88/88 91/91/91 84/84/84
f 91/91/91 63/63/63 84/84/84
f 63/63/63 91/91/91 61/61/61
f 85/85/85 86/86/86 93/93/93
f 93/93/93 88/88/88 85/85/85
f 86/86/86 92/92/92 89/89/89
f 86/86/86 89/89/89 93/93/93
f 90/90/90 91/91/91 88/88/88
f 90/90/90 88/88/88 93/93/93
f 90/90/90 95/95/95 91/91/91
f 90/90/90 93/93/93 95/95/95
f 91/91/91 95/95/95 94/94/94
f 91/91/91 94/94/94 61/61/61
f 92/92/92 97/97/97 89/89/89
f 93/93/93 89/89/89 96/96/96
f 93/93/93 96/96/96 95/95/95
f 97/97/97 98/98/98 89/89/89
f 89/89/89 98/98/98 96/96/96
f 96/96/96 105/105/105 95/95/95
f 95/95/95 105/105/105 94/94/94
f 98/98/98 97/97/97 99/99/99
f 99/99/99 97/97/97 100/100/100
f 99/99/99 100/100/100 101/101/101
f 102/102/102 96/96/96 98/98/98
f 102/102/102 98/98/98 99/99/99
f 103/103/103 99/99/99 101/101/101
f 103/103/103 102/102/102 99/99/99
f 104/104/104 103/103/103 101/101/101
f 105/105/105 96/96/96 102/102/102
f 109/109/109 103/103/103 104/104/104
f 102/102/102 106/106/106 105/105/105
f 106/106/106 94/94/94 105/105/105
f 103/103/103 107/107/107 102/102/102
f 107/107/107 106/106/106 102/102/102
f 109/109/109 108/108/108 103/103/103
f 108/108/108 107/107/107 103/103/103
f 109/109/109 110/110/110 108/108/108
f 110/110/110 111/111/111 108/108/108
f 108/108/108 111/111/111 107/107/107
f 110/110/110 53/53/53 111/111/111
f 111/111/111 106/106/106 107/107/107
f 94/94/94 106/106/106 112/112/112
f 112/112/112 106/106/106 111/111/111
f 111/111/111 53/53/53 56/56/56
f 94/94/94 112/112/112 61/61/61
f 111/111/111 113/113/113 112/112/112
f 113/113/113 61/61/61 112/112/112
f 56/56/56 113/113/113 111/111/111
f 58/58/58 113/113/113 56/56/56
f 58/58/58 61/61/61 113/113/113
f 116/116/116 115/115/115 114/114/114
f 114/114/114 117/117/117 116/116/116
f 118/118/118 117/117/117 120/120/120
f 121/121/121 117/117/117 119/119/119
f 120/120/120 117/117/117 122/122/122
f 122/122/122 117/117/117 123/123/123
f 124/124/124 122/122/122 123/123/123
f 126/126/126 124/124/124 125/125/125
f 127/127/127 126/126/126 125/125/125
f 127/127/127 129/129/129 126/126/126
f 127/127/127 128/128/128 130/130/130
f 127/127/127 131/131/131 129/129/129
f 127/127/127 132/132/132 133/133/133
f 134/134/134 133/133/133 132/132/132
f 136/136/136 135/135/135 53/53/53
f 136/136/136 53/53/53 197/197/197
f 197/197/197 139/139/139 137/137/137
f 139/139/139 138/138/138 137/137/137
f 140/140/140 139/139/139 141/141/141
f 142/142/142 140/140/140 141/141/141
f 141/141/141 143/143/143 142/142/142
f 142/142/142 143/143/143 144/144/144
f 148/148/148 144/144/144 143/143/143
f 146/146/146 145/145/145 148/148/148
f 146/146/146 148/148/148 147/147/147
f 147/147/147 148/148/148 149/149/149
f 147/147/147 149/149/149 70/70/70
f 150/150/150 70/70/70 149/149/149
f 150/150/150 72/72/72 70/70/70
f 149/149/149 148/148/148 150/150/150
f 72/72/72 150/150/150 151/151/151
f 72/72/72 151/151/151 73/73/73
f 148/148/148 143/143/143 152/152/152
f 152/152/152 150/150/150 148/148/148
f 152/152/152 143/143/143 153/153/153
f 154/154/154 73/73/73 151/151/151
f 73/73/73 154/154/154 78/78/78
f 151/151/151 150/150/150 152/152/152
f 154/154/154 156/156/156 78/78/78
f 156/156/156 155/155/155 78/78/78
f 159/159/159 151/151/151 152/152/152
f 151/151/151 159/159/159 154/154/154
f 155/155/155 156/156/156 157/157/157
f 156/156/156 154/154/154 157/157/157
f 155/155/155 157/157/157 163/163/163
f 158/158/158 155/155/155 163/163/163
f 154/154/154 159/159/159 157/157/157
f 157/157/157 159/159/159 160/160/160
f 157/157/157 160/160/160 163/163/163
f 159/159/159 152/152/152 153/153/153
f 159/159/159 153/153/153 161/161/161
f 159/159/159 161/161/161 160/160/160
f 160/160/160 161/161/161 162/162/162
f 161/161/161 153/153/153 162/162/162
f 165/165/165 163/163/163 160/160/160
f 165/165/165 160/160/160 162/162/162
f 158/158/158 163/163/163 166/166/166
f 163/163/163 165/165/165 166/166/166
f 164/164/164 158/158/158 166/166/166
f 167/167/167 164/164/164 166/166/166
f 168/168/168 162/162/162 153/153/153
f 143/143/143 168/168/168 153/153/153
f 168/168/168 143/143/143 141/141/141
f 166/166/166 165/165/165 169/169/169
f 162/162/162 169/169/169 165/165/165
f 167/167/167 166/166/166 175/175/175
f 175/175/175 166/166/166 169/169/169
f 168/168/168 170/170/170 162/162/162
f 162/162/162 170/170/170 169/169/169
f 167/167/167 175/175/175 171/171/171
f 168/168/168 141/141/141 172/172/172
f 172/172/172 141/141/141 139/139/139
f 173/173/173 170/170/170 168/168/168
f 169/169/169 170/170/170 173/173/173
f 173/173/173 168/168/168 174/174/174
f 174/174/174 168/168/168 172/172/172
f 176/176/176 171/171/171 175/175/175
f 169/169/169 177/177/177 175/175/175
f 173/173/173 177/177/177 169/169/169
f 175/175/175 177/177/177 182/182/182
f 182/182/182 177/177/177 173/173/173
f 178/178/178 176/176/176 175/175/175
f 178/178/178 175/175/175 182/182/182
f 178/178/178 179/179/179 176/176/176
f 174/174/174 180/180/180 173/173/173
f 181/181/181 182/182/182 173/173/173
f 181/181/181 173/173/173 180/180/180
f 178/178/178 183/183/183 179/179/179
f 178/178/178 182/182/182 183/183/183
f 179/179/179 183/183/183 184/184/184
f 179/179/179 184/184/184 185/185/185
f 185/185/185 184/184/184 101/101/101
f 182/182/182 186/186/186 183/183/183
f 183/183/183 186/186/186 184/184/184
f 184/184/184 188/188/188 101/101/101
f 186/186/186 188/188/188 184/184/184
f 188/188/188 187/187/187 101/101/101
f 182/182/182 181/181/181 186/186/186
f 188/188/188 109/109/109 187/187/187
f 189/189/189 188/188/188 186/186/186
f 181/181/181 189/189/189 186/186/186
f 192/192/192 189/189/189 181/181/181
f 180/180/180 192/192/192 181/181/181
f 190/190/190 109/109/109 188/188/188
f 193/193/193 188/188/188 189/189/189
f 192/192/192 193/193/193 189/189/189
f 193/193/193 190/190/190 188/188/188
f 191/191/191 109/109/109 190/190/190
f 194/194/194 191/191/191 190/190/190
f 194/194/194 190/190/190 193/193/193
f 53/53/53 191/191/191 194/194/194
f 192/192/192 195/195/195 193/193/193
f 195/195/195 194/194/194 193/193/193
f 192/192/192 180/180/180 196/196/196
f 192/192/192 196/196/196 195/195/195
f 53/53/53 194/194/194 197/197/197
f 196/196/196 180/180/180 174/174/174
f 196/196/196 174/174/174 172/172/172
f 198/198/198 195/195/195 196/196/196
f 172/172/172 198/198/198 196/196/196
f 198/198/198 194/194/194 195/195/195
f 198/198/198 197/197/197 194/194/194
f 197/197/197 198/198/198 199/199/199
f 199/199/199 139/139/139 197/197/197
f 172/172/172 199/199/199 198/198/198
f 172/172/172 139/139/139 199/199/199
