g Eff_mesh_ljw_qiu_01
v -0 0 0.176762298
v 0.0149265146 0.0459390916 0.170034423
v 0.0483032167 0 0.170034423
v 0.063953191 0.0464647189 0.158100992
v 0.0929294303 0 0.150362983
v 0.0639531985 -0.0464647189 0.158100992
v 0.014926523 -0.0459390916 0.170034423
v -0 0 0.176762298
v 0.0287167765 0.0883811489 0.150362983
v 0.1092152 0.0467848331 0.13087447
v 0.0782443658 0.0894125253 0.13087447
v 0.109215207 -0.0467848256 0.13087447
v 0.130481556 0 0.119245425
v 0.0287167877 -0.0883811489 0.150362983
v 0.0782443807 -0.0894125178 0.13087447
v -0.0244279522 0.0751814917 0.158101007
v -0.0390781276 0.0283919163 0.170034423
v -0 0 0.176762298
v -0.0751814991 0.0546225458 0.150362983
v -0.0107456697 0.118327141 0.13087447
v -0.060857527 0.102044798 0.13087447
v 0.0403210148 0.124095336 0.119245425
v -0.1055618 0.0766951293 0.119245425
v -0.115856394 0.0263453517 0.13087447
v -0.144639924 0.0483031981 0.0893923864
v -0.0464647189 0.143003702 0.0929294303
v -0.0906352773 0.12263421 0.0893923864
v -0.127906412 0.0929294303 0.0790505037
v -0.153865024 0.0766951218 0.0410891697
v -0.16887024 0.0263453461 0.045096267
v -0.168110937 0.0546225347 0
v -0.120488316 0.12263421 0.0410891697
v -0.143003732 0.103898264 0
v -0.077239722 0.152463973 0.0450962707
v 0.00124288956 0.152487248 0.0893923864
v -0.152104318 0.0779455677 -0.045096267
v -0.169559687 0.0283919033 -0.0410891697
v -0.145408079 0.0459390804 -0.0893923864
v -0.103898287 0.143003687 0
v -0.0271278452 0.168746322 0.0450962707
v -0.121133484 0.120573267 -0.045096267
v -0.121646211 0.088381134 -0.0929294303
v -0.1092152 0.0467848182 -0.13087447
v -0.0546225682 0.168110922 0
v -0.0793991536 0.152487233 -0.0410891697
v -0.0782443807 0.0894125029 -0.13087447
v -0.0639531985 0.0464647189 -0.158101007
v -0.088624239 0.124095321 -0.0893923864
v -0.0287167802 0.0883811489 -0.150362983
v -0.0149265183 0.0459390916 -0.170034423
v -0.040321026 0.124095321 -0.119245425
v -0.0488559045 0.150362983 -0.0790505037
v -0.0253945105 0.170034423 -0.0410891697
v -5.33120126E-09 0.176762298 0
v -0.00124290015 0.152487233 -0.0893923864
v 0.0107456613 0.118327126 -0.13087447
v 0.0244279467 0.0751815066 -0.158101007
v 0.0271278378 0.168746293 -0.045096267
v 0.0253945012 0.170034423 0.0410891697
v 0.0464647077 0.143003702 -0.0929294303
v 0.054622557 0.168110937 0
v 0.0488558933 0.150362998 0.0790505037
v 0.0793991387 0.152487248 0.0410891697
v 0.0886242241 0.124095336 0.0893923864
v 0.0772396848 0.152463973 -0.045096267
v 0.0608575195 0.102044798 -0.13087447
v 0.103898272 0.143003702 0
v 0.121646211 0.0883811489 0.0929294303
v 0.121133476 0.120573282 0.045096267
v 0.0906352773 0.122634217 -0.0893923864
v 0.145408079 0.0459390916 0.0893923864
v 0.120488308 0.122634225 -0.0410891697
v 0.143003702 0.103898272 0
v 0.152104303 0.0779455826 0.045096267
v 0.1055618 0.0766951293 -0.119245425
v 0.127906397 0.0929294378 -0.0790505037
v 0.153865024 0.0766951293 -0.0410891697
v 0.168110922 0.0546225533 0
v 0.169559687 0.02839192 0.0410891697
v 0.144639924 0.0483032279 -0.0893923864
v 0.0751814917 0.0546225533 -0.150362983
v 0.16887024 0.0263453741 -0.0450962633
v 0.115856409 0.0263453797 -0.13087447
v 0.0390781239 0.02839192 -0.170034423
v -0 0 -0.176762298
v 0.0790505111 1.62248774E-08 -0.158100992
v 0.150362998 3.19872129E-08 -0.0929294154
v 0.176762298 1.82529867E-08 0
v 0.0390781388 -0.0283919033 -0.170034423
v -0 0 -0.176762298
v 0.115856409 -0.0263453312 -0.13087447
v 0.168870255 -0.0263453387 -0.0450962633
v 0.075181514 -0.0546225235 -0.150362983
v 0.144639939 -0.0483031757 -0.0893923864
v 0.105561823 -0.076695092 -0.119245425
v 0.169559702 -0.028391907 0.0410891697
v 0.168110937 -0.0546225198 0
v 0.153865054 -0.0766950995 -0.0410891697
v 0.127906427 -0.0929293931 -0.0790505037
v 0.158101007 0 0.0790505037
v 0.145408079 -0.0459390916 0.0893923938
v 0.152104333 -0.0779455677 0.045096267
v 0.121646218 -0.0883811489 0.0929294303
v 0.143003702 -0.103898227 0
v 0.120488346 -0.122634187 -0.0410891697
v 0.121133506 -0.120573252 0.045096267
v 0.0886242464 -0.124095336 0.0893923938
v 0.103898302 -0.143003657 0
v 0.0906353146 -0.122634195 -0.0893924013
v 0.0403210334 -0.124095321 0.119245425
v 0.0793991759 -0.152487233 0.0410891697
v 0.077239722 -0.152463943 -0.045096267
v 0.0608575419 -0.102044784 -0.13087447
v 0.0488559194 -0.150362983 0.0790505037
v 0.0546225756 -0.168110922 0
v 0.0464647375 -0.143003687 -0.0929294452
v 0.0244279541 -0.0751814842 -0.158101022
v 0.0253945161 -0.170034409 0.0410891697
v 0.00124291633 -0.152487263 0.0893923938
v 0.0271278545 -0.168746278 -0.045096267
v 0.0107456669 -0.118327118 -0.13087447
v -0.0149265202 -0.0459390916 -0.170034423
v -0 0 -0.176762298
v 2.66560041E-09 -0.176762298 0
v -0.00124289736 -0.152487248 -0.0893924013
v -0.0287167858 -0.0883811489 -0.150362983
v -0.0271278303 -0.168746293 0.045096267
v -0.0253945086 -0.170034409 -0.0410891697
v -0.0403210297 -0.124095321 -0.119245425
v -0.0546225645 -0.168110937 0
v -0.0488559157 -0.150362983 -0.0790505037
v -0.0793991536 -0.152487263 -0.0410891697
v -0.0886242464 -0.124095343 -0.0893923938
v -0.0782443807 -0.0894125178 -0.13087447
v -0.0639531985 -0.0464647189 -0.158100992
v -0.0483032167 -4.22280122E-09 -0.170034423
v -0 0 -0.176762298
v -0.0772396848 -0.152463973 0.045096267
v -0.103898272 -0.143003702 0
v -0.121133484 -0.12057329 -0.045096267
v -0.121646218 -0.0883811563 -0.0929294303
v -0.109215207 -0.0467848331 -0.13087447
v -0.0929294303 -8.12414935E-09 -0.150362983
v -0.0464646965 -0.143003702 0.0929294303
v -0.0107456492 -0.118327126 0.13087447
v -0.0244279411 -0.0751815066 0.158101007
v -0.0608575083 -0.102044806 0.13087447
v -0.0906352699 -0.122634247 0.0893923938
v -0.0390781201 -0.0283919256 0.170034423
v -0 0 0.176762298
v -0.0751814842 -0.0546225645 0.150362983
v -0.120488308 -0.122634247 0.0410891697
v -0.105561785 -0.0766951442 0.119245425
v -0.143003687 -0.103898257 0
v -0.127906382 -0.0929294601 0.0790505037
v -0.153864995 -0.0766951516 0.0410891697
v -0.152104318 -0.0779456049 -0.045096267
v -0.144639924 -0.0483032279 0.0893923864
v -0.115856387 -0.0263453741 0.13087447
v -0.168110922 -0.0546225719 0
v -0.145408079 -0.0459391028 -0.0893923938
v -0.16887024 -0.0263453797 0.045096267
v -0.169559687 -0.0283919368 -0.0410891697
v -0.130481556 -1.14070593E-08 -0.119245425
v -0.0790505037 -1.01405488E-08 0.158101007
v -0.150362983 -1.59936029E-08 0.0929294303
v -0.176762313 -1.82529867E-08 0
v -0.158101007 -1.38216283E-08 -0.0790505037
v -0.0390781276 0.0283919163 0.170034423
v -0 0 0.176762298
v -0.0751814991 0.0546225458 0.150362983
v -0.115856394 0.0263453517 0.13087447
v -0.144639924 0.0483031981 0.0893923864
v -0.16887024 0.0263453461 0.045096267
v -0.168110937 0.0546225347 0
v -0.169559687 0.0283919033 -0.0410891697
v -0.145408079 0.0459390804 -0.0893923864
v -0.1092152 0.0467848182 -0.13087447
v -0.0639531985 0.0464647189 -0.158101007
v -0.0149265183 0.0459390916 -0.170034423
v -0 0 -0.176762298
vt 0.600000024 1
vt 0.699999988 0.911895871
vt 0.5 0.911895871
vt 0.600000024 0.852416337
vt 0.5 0.823791862
vt 0.400000006 0.852416337
vt 0.300000012 0.911895871
vt 0.400000006 1
vt 0.699999988 0.823791862
vt 0.564413846 0.765362978
vt 0.635586143 0.765362978
vt 0.435586184 0.765362978
vt 0.5 0.735687733
vt 0.300000012 0.823791862
vt 0.364413857 0.765362978
vt 0.799999952 0.852416396
vt 0.899999976 0.911895871
vt 0.799999952 1
vt 0.899999976 0.823791862
vt 0.764413834 0.765362978
vt 0.83558619 0.765362978
vt 0.699999988 0.735687733
vt 0.899999976 0.735687733
vt 0.964413881 0.765362978
vt 0.948702812 0.668773413
vt 0.799999952 0.676208138
vt 0.851297259 0.668773413
vt 0.899999976 0.647583604
vt 0.926404715 0.57467562
vt 0.975368857 0.582116246
vt 0.950000048 0.5
vt 0.873595238 0.57467562
vt 0.899999976 0.5
vt 0.824631095 0.582116246
vt 0.748702765 0.668773413
vt 0.924631119 0.417883784
vt 0.973595262 0.425324351
vt 0.951297224 0.331226557
vt 0.850000024 0.5
vt 0.775368869 0.582116246
vt 0.875368834 0.417883784
vt 0.899999976 0.323791832
vt 0.935586154 0.234636992
vt 0.799999952 0.5
vt 0.82640475 0.425324351
vt 0.864413857 0.234636992
vt 0.899999976 0.147583663
vt 0.848702788 0.331226557
vt 0.799999952 0.176208168
vt 0.799999952 0.088104099
vt 0.799999952 0.264312267
vt 0.799999952 0.352416396
vt 0.773595273 0.425324351
vt 0.75 0.5
vt 0.751297235 0.331226557
vt 0.735586166 0.234636992
vt 0.699999988 0.147583663
vt 0.724631131 0.417883784
vt 0.726404727 0.57467562
vt 0.699999988 0.323791832
vt 0.699999988 0.5
vt 0.699999988 0.647583604
vt 0.67359525 0.57467562
vt 0.651297212 0.668773413
vt 0.675368905 0.417883784
vt 0.66441381 0.234636992
vt 0.649999976 0.5
vt 0.599999964 0.676208138
vt 0.624631107 0.582116246
vt 0.648702741 0.331226557
vt 0.548702776 0.668773413
vt 0.626404762 0.425324351
vt 0.600000024 0.5
vt 0.575368881 0.582116246
vt 0.599999964 0.264312267
vt 0.600000024 0.352416396
vt 0.573595285 0.425324351
vt 0.550000012 0.5
vt 0.526404738 0.57467562
vt 0.551297188 0.331226557
vt 0.600000024 0.176208168
vt 0.524631143 0.417883784
vt 0.535586178 0.234637052
vt 0.600000024 0.088104099
vt 0.699999988 0
vt 0.50000006 0.147583663
vt 0.50000006 0.323791862
vt 0.5 0.5
vt 0.400000066 0.088104099
vt 0.50000006 0
vt 0.464413881 0.234637052
vt 0.475368887 0.417883813
vt 0.400000066 0.176208168
vt 0.448702842 0.331226557
vt 0.400000066 0.264312267
vt 0.473595262 0.57467562
vt 0.450000048 0.5
vt 0.426404774 0.42532438
vt 0.400000066 0.352416396
vt 0.5 0.647583604
vt 0.451297224 0.668773413
vt 0.424631178 0.582116246
vt 0.400000006 0.676208138
vt 0.400000036 0.5
vt 0.373595297 0.425324351
vt 0.375368893 0.582116246
vt 0.348702788 0.668773472
vt 0.350000054 0.5
vt 0.351297259 0.331226528
vt 0.300000012 0.735687733
vt 0.32640481 0.57467562
vt 0.324631155 0.417883754
vt 0.33558622 0.234636992
vt 0.300000042 0.647583604
vt 0.300000042 0.5
vt 0.300000012 0.323791802
vt 0.300000012 0.147583574
vt 0.273595273 0.574675679
vt 0.251297235 0.668773472
vt 0.275368869 0.417883754
vt 0.264413834 0.234636992
vt 0.200000018 0.088104099
vt 0.300000042 0
vt 0.25 0.5
vt 0.248702794 0.331226528
vt 0.200000018 0.176208168
vt 0.22463116 0.582116246
vt 0.226404727 0.425324351
vt 0.200000018 0.264312267
vt 0.200000018 0.5
vt 0.199999988 0.352416396
vt 0.173595279 0.42532438
vt 0.151297241 0.331226557
vt 0.135586172 0.234636992
vt 0.099999994 0.147583663
vt 2.98023224E-08 0.088104099
vt 0.100000024 0
vt 0.175368905 0.582116246
vt 0.150000036 0.5
vt 0.124631137 0.417883784
vt 0.099999994 0.323791862
vt 0.0644138455 0.234636992
vt 2.98023224E-08 0.176208168
vt 0.200000048 0.676208138
vt 0.235586196 0.765362978
vt 0.200000048 0.852416337
vt 0.16441384 0.765362978
vt 0.14870283 0.668773472
vt 0.100000054 0.911895871
vt 0.200000033 1
vt 0.100000054 0.823791862
vt 0.126404762 0.57467562
vt 0.100000054 0.735687733
vt 0.099999994 0.5
vt 0.100000054 0.647583604
vt 0.0735952854 0.57467562
vt 0.075368911 0.417883784
vt 0.0512972176 0.668773413
vt 0.0355862081 0.765362978
vt 0.0500000119 0.5
vt 0.0487028062 0.331226557
vt 0.0246311426 0.582116246
vt 0.0264047682 0.42532438
vt 2.98023224E-08 0.264312267
vt 2.98023224E-08 0.852416337
vt 2.98023224E-08 0.676208138
vt 2.98023224E-08 0.5
vt 2.98023224E-08 0.352416396
vt -0.100000024 0.911895871
vt 1.49011612E-08 1
vt -0.100000024 0.823791862
vt -0.0355861187 0.765362978
vt -0.0512971878 0.668773413
vt -0.0246311426 0.582116246
vt -0.0499999523 0.5
vt -0.0264047384 0.425324351
vt -0.0487027764 0.331226557
vt -0.0644138455 0.234636992
vt -0.100000024 0.147583663
vt -0.200000048 0.088104099
vt -0.100000009 0
vn -0 0 1
vn 0.0838371217 0.258024007 0.962494135
vn 0.271302551 0 0.962494135
vn 0.363791734 0.264310151 0.893194079
vn 0.525034666 0 0.851080775
vn 0.363791734 -0.264310092 0.893194079
vn 0.083837226 -0.258023918 0.962494135
vn -0 0 1
vn 0.162244707 0.499337792 0.851080775
vn 0.6197474 0.268038541 0.737610042
vn 0.446432233 0.506586373 0.737609982
vn 0.619747341 -0.268038422 0.737610102
vn 0.73943007 0 0.67323333
vn 0.162244812 -0.499337763 0.851080716
vn 0.446432233 -0.506586313 0.737610042
vn -0.1389561 0.42766282 0.893194079
vn -0.219488263 0.159467608 0.962494135
vn -0 0 1
vn -0.42476207 0.308607727 0.851080716
vn -0.0634073317 0.672243357 0.737609982
vn -0.343837231 0.581126153 0.737609923
vn 0.228496522 0.703239918 0.673233271
vn -0.598211527 0.434626162 0.673233211
vn -0.658935368 0.147430718 0.737609923
vn -0.818687379 0.271548748 0.505976617
vn -0.262865663 0.809016883 0.525731146
vn -0.511246562 0.694704652 0.505976558
vn -0.723606825 0.525731087 0.44721359
vn -0.870277464 0.432718396 0.235312283
vn -0.954423249 0.147430718 0.259500653
vn -0.95105654 0.309016854 0
vn -0.680470347 0.693965554 0.235312298
vn -0.809014022 0.587782979 -0.0027495746
vn -0.43514815 0.862151682 0.259500533
vn 0.005269974 0.862531066 0.505976677
vn -0.858802259 0.441721827 -0.259500653
vn -0.958414793 0.161459565 -0.235312223
vn -0.821944296 0.261524767 -0.505976677
vn -0.587785244 0.809017003 0
vn -0.154718041 0.953269005 0.259500414
vn -0.685486913 0.680269778 -0.259500623
vn -0.688190877 0.499999911 -0.525731087
vn -0.619747579 0.268038481 -0.737609923
vn -0.309015989 0.951052904 0.0027495136
vn -0.44972375 0.861612916 -0.235312209
vn -0.446432382 0.506586373 -0.737609923
vn -0.363791704 0.264310122 -0.893194139
vn -0.502719581 0.700899899 -0.505976677
vn -0.162244752 0.499337882 -0.851080596
vn -0.083837077 0.258023888 -0.962494135
vn -0.228496552 0.703239918 -0.673233271
vn -0.276393265 0.850650728 -0.44721368
vn -0.142609328 0.96140039 -0.235312179
vn -0 1 -1.1208359E-07
vn -0.00526998704 0.862531066 -0.505976677
vn 0.0634072274 0.672243416 -0.737609863
vn 0.138956055 0.427662879 -0.893194079
vn 0.154717952 0.953269005 -0.259500623
vn 0.142609313 0.96140039 0.235312119
vn 0.262865454 0.809017003 -0.525731146
vn 0.309015781 0.951052904 -0.00274970732
vn 0.276393265 0.850650728 0.44721362
vn 0.449723721 0.861612797 0.235312194
vn 0.502719581 0.700899899 0.505976617
vn 0.435147852 0.862151921 -0.259500623
vn 0.343837172 0.581126273 -0.737609923
vn 0.587785184 0.809017003 0
vn 0.688190877 0.49999997 0.525731087
vn 0.685486972 0.680269718 0.259500504
vn 0.511246502 0.694704652 -0.505976617
vn 0.821944356 0.261524767 0.505976617
vn 0.680470169 0.693965733 -0.235312268
vn 0.809014022 0.587782979 0.00274969894
vn 0.858802199 0.441721946 0.259500533
vn 0.598211408 0.434626281 -0.673233271
vn 0.723606706 0.525731266 -0.44721365
vn 0.870277464 0.432718575 -0.235312089
vn 0.95105654 0.309016973 0
vn 0.958414793 0.161459774 0.23531203
vn 0.818687379 0.271548927 -0.505976498
vn 0.42476207 0.308607757 -0.851080775
vn 0.954423249 0.147430852 -0.259500384
vn 0.658935368 0.147430807 -0.737609982
vn 0.219488323 0.159467518 -0.962494135
vn -0 0 -1
vn 0.449671209 0 -0.893194139
vn 0.850650847 1.34330435E-07 -0.525731027
vn 0.999996305 2.48652867E-07 -0.00274973386
vn 0.219488382 -0.159467384 -0.962494135
vn -0 0 -1
vn 0.658935368 -0.147430599 -0.737609923
vn 0.954423308 -0.147430509 -0.259500474
vn 0.424762189 -0.308607578 -0.851080775
vn 0.818687379 -0.271548569 -0.505976677
vn 0.598211646 -0.434625983 -0.673233271
vn 0.958414912 -0.161459431 0.23531194
vn 0.95105654 -0.309016913 0
vn 0.870277584 -0.432718456 -0.23531194
vn 0.723606944 -0.525730848 -0.44721365
vn 0.894427061 1.72765681E-07 0.447213739
vn 0.821944296 -0.261524707 0.505976737
vn 0.858802259 -0.441721976 0.259500265
vn 0.688190877 -0.49999997 0.525731087
vn 0.809014022 -0.587782979 0.00274968357
vn 0.680470467 -0.693965554 -0.235311955
vn 0.685487151 -0.680269718 0.259500295
vn 0.502719641 -0.700899899 0.505976617
vn 0.587785423 -0.809016824 0
vn 0.511246741 -0.694704592 -0.505976558
vn 0.228496507 -0.703239739 0.67323333
vn 0.44972381 -0.861612916 0.235312045
vn 0.435148001 -0.862151861 -0.259500414
vn 0.343837202 -0.581126153 -0.737609982
vn 0.276393354 -0.850650907 0.447213382
vn 0.309015989 -0.951052904 -0.00274975016
vn 0.262865663 -0.809017003 -0.525731146
vn 0.13895613 -0.42766279 -0.893194079
vn 0.142609417 -0.96140039 0.235312015
vn 0.00527001033 -0.862531185 0.505976558
vn 0.154718176 -0.953269005 -0.259500533
vn 0.0634073317 -0.672243297 -0.737609982
vn -0.0838371962 -0.258023918 -0.962494135
vn -0 0 -1
vn 1.65688803E-07 -1 0
vn -0.00526989345 -0.862531185 -0.505976617
vn -0.162244782 -0.499337792 -0.851080716
vn -0.154717922 -0.953269005 0.259500504
vn -0.142609045 -0.96140039 -0.235312194
vn -0.228496388 -0.703239799 -0.67323333
vn -0.309015721 -0.951053023 0.00274968846
vn -0.276393026 -0.850650907 -0.44721356
vn -0.449723542 -0.861613095 -0.235312104
vn -0.502719522 -0.700899899 -0.505976737
vn -0.446432173 -0.506586254 -0.737610102
vn -0.363791674 -0.264310122 -0.893194139
vn -0.271302462 -1.18123609E-07 -0.962494135
vn -0 0 -1
vn -0.435147703 -0.862151921 0.259500563
vn -0.587785363 -0.809016883 1.09646976E-07
vn -0.685486972 -0.680269897 -0.259500206
vn -0.688190877 -0.49999997 -0.525731206
vn -0.619747341 -0.268038452 -0.737610102
vn -0.525034726 0 -0.851080775
vn -0.262865424 -0.809017062 0.525731087
vn -0.0634072423 -0.672243297 0.737609982
vn -0.13895604 -0.427662939 0.893194079
vn -0.343837023 -0.581126273 0.737609982
vn -0.511246324 -0.694704831 0.505976617
vn -0.219488248 -0.159467563 0.962494135
vn -0 0 1
vn -0.42476207 -0.308607817 0.851080716
vn -0.680470347 -0.693965614 0.235311866
vn -0.598211527 -0.434626162 0.673233271
vn -0.809014022 -0.587782979 -0.00274953828
vn -0.723606825 -0.525731027 0.44721368
vn -0.870277405 -0.432718664 0.23531197
vn -0.858802259 -0.441721976 -0.259500206
vn -0.818687379 -0.271548837 0.505976617
vn -0.658935428 -0.147430822 0.737609923
vn -0.95105648 -0.30901739 1.57160699E-07
vn -0.821944296 -0.261524677 -0.505976677
vn -0.954423249 -0.147430897 0.259500563
vn -0.958414793 -0.16145961 -0.23531206
vn -0.73943013 0 -0.67323333
vn -0.449671268 0 0.893194139
vn -0.850650847 0 0.525731087
vn -0.999996305 -1.12137592E-07 0.00274969288
vn -0.89442718 0 -0.44721365
vn -0.219488263 0.159467608 0.962494135
vn -0 0 1
vn -0.42476207 0.308607727 0.851080716
vn -0.658935368 0.147430718 0.737609923
vn -0.818687379 0.271548748 0.505976617
vn -0.954423249 0.147430718 0.259500653
vn -0.95105654 0.309016854 0
vn -0.958414793 0.161459565 -0.235312223
vn -0.821944296 0.261524767 -0.505976677
vn -0.619747579 0.268038481 -0.737609923
vn -0.363791704 0.264310122 -0.893194139
vn -0.083837077 0.258023888 -0.962494135
vn -0 0 -1
g Eff_mesh_ljw_qiu_01_0
f 3/3/3 2/2/2 1/1/1
f 4/4/4 2/2/2 3/3/3
f 5/5/5 4/4/4 3/3/3
f 6/6/6 5/5/5 3/3/3
f 6/6/6 3/3/3 7/7/7
f 7/7/7 3/3/3 8/8/8
f 4/4/4 9/9/9 2/2/2
f 10/10/10 4/4/4 5/5/5
f 11/11/11 9/9/9 4/4/4
f 10/10/10 11/11/11 4/4/4
f 12/12/12 5/5/5 6/6/6
f 13/13/13 10/10/10 5/5/5
f 12/12/12 13/13/13 5/5/5
f 14/14/14 6/6/6 7/7/7
f 15/15/15 12/12/12 6/6/6
f 15/15/15 6/6/6 14/14/14
f 9/9/9 16/16/16 2/2/2
f 16/16/16 17/17/17 2/2/2
f 2/2/2 17/17/17 18/18/18
f 16/16/16 19/19/19 17/17/17
f 20/20/20 16/16/16 9/9/9
f 21/21/21 19/19/19 16/16/16
f 20/20/20 21/21/21 16/16/16
f 22/22/22 20/20/20 9/9/9
f 11/11/11 22/22/22 9/9/9
f 21/21/21 23/23/23 19/19/19
f 23/23/23 24/24/24 19/19/19
f 25/25/25 24/24/24 23/23/23
f 26/26/26 21/21/21 20/20/20
f 27/27/27 23/23/23 21/21/21
f 26/26/26 27/27/27 21/21/21
f 28/28/28 25/25/25 23/23/23
f 27/27/27 28/28/28 23/23/23
f 25/25/25 28/28/28 29/29/29
f 25/25/25 29/29/29 30/30/30
f 30/30/30 29/29/29 31/31/31
f 28/28/28 27/27/27 32/32/32
f 32/32/32 29/29/29 28/28/28
f 33/33/33 31/31/31 29/29/29
f 33/33/33 29/29/29 32/32/32
f 27/27/27 34/34/34 32/32/32
f 27/27/27 26/26/26 34/34/34
f 35/35/35 26/26/26 20/20/20
f 35/35/35 20/20/20 22/22/22
f 36/36/36 31/31/31 33/33/33
f 36/36/36 37/37/37 31/31/31
f 38/38/38 37/37/37 36/36/36
f 39/39/39 33/33/33 32/32/32
f 32/32/32 34/34/34 39/39/39
f 26/26/26 40/40/40 34/34/34
f 26/26/26 35/35/35 40/40/40
f 41/41/41 36/36/36 33/33/33
f 41/41/41 33/33/33 39/39/39
f 42/42/42 38/38/38 36/36/36
f 42/42/42 36/36/36 41/41/41
f 38/38/38 42/42/42 43/43/43
f 34/34/34 44/44/44 39/39/39
f 34/34/34 40/40/40 44/44/44
f 45/45/45 41/41/41 39/39/39
f 39/39/39 44/44/44 45/45/45
f 42/42/42 46/46/46 43/43/43
f 43/43/43 46/46/46 47/47/47
f 48/48/48 42/42/42 41/41/41
f 48/48/48 41/41/41 45/45/45
f 42/42/42 48/48/48 46/46/46
f 46/46/46 49/49/49 47/47/47
f 47/47/47 49/49/49 50/50/50
f 48/48/48 51/51/51 46/46/46
f 46/46/46 51/51/51 49/49/49
f 52/52/52 48/48/48 45/45/45
f 48/48/48 52/52/52 51/51/51
f 44/44/44 53/53/53 45/45/45
f 45/45/45 53/53/53 52/52/52
f 40/40/40 54/54/54 44/44/44
f 44/44/44 54/54/54 53/53/53
f 52/52/52 55/55/55 51/51/51
f 55/55/55 52/52/52 53/53/53
f 51/51/51 56/56/56 49/49/49
f 55/55/55 56/56/56 51/51/51
f 49/49/49 57/57/57 50/50/50
f 56/56/56 57/57/57 49/49/49
f 55/55/55 53/53/53 58/58/58
f 58/58/58 53/53/53 54/54/54
f 40/40/40 59/59/59 54/54/54
f 35/35/35 59/59/59 40/40/40
f 55/55/55 60/60/60 56/56/56
f 60/60/60 55/55/55 58/58/58
f 58/58/58 54/54/54 61/61/61
f 61/61/61 54/54/54 59/59/59
f 35/35/35 62/62/62 59/59/59
f 62/62/62 35/35/35 22/22/22
f 63/63/63 59/59/59 62/62/62
f 61/61/61 59/59/59 63/63/63
f 64/64/64 62/62/62 22/22/22
f 62/62/62 64/64/64 63/63/63
f 64/64/64 22/22/22 11/11/11
f 65/65/65 58/58/58 61/61/61
f 60/60/60 58/58/58 65/65/65
f 60/60/60 66/66/66 56/56/56
f 56/56/56 66/66/66 57/57/57
f 67/67/67 61/61/61 63/63/63
f 65/65/65 61/61/61 67/67/67
f 68/68/68 64/64/64 11/11/11
f 68/68/68 11/11/11 10/10/10
f 64/64/64 69/69/69 63/63/63
f 63/63/63 69/69/69 67/67/67
f 64/64/64 68/68/68 69/69/69
f 70/70/70 60/60/60 65/65/65
f 60/60/60 70/70/70 66/66/66
f 71/71/71 68/68/68 10/10/10
f 71/71/71 10/10/10 13/13/13
f 72/72/72 65/65/65 67/67/67
f 70/70/70 65/65/65 72/72/72
f 69/69/69 73/73/73 67/67/67
f 67/67/67 73/73/73 72/72/72
f 68/68/68 74/74/74 69/69/69
f 68/68/68 71/71/71 74/74/74
f 69/69/69 74/74/74 73/73/73
f 70/70/70 75/75/75 66/66/66
f 76/76/76 70/70/70 72/72/72
f 70/70/70 76/76/76 75/75/75
f 73/73/73 77/77/77 72/72/72
f 72/72/72 77/77/77 76/76/76
f 74/74/74 78/78/78 73/73/73
f 73/73/73 78/78/78 77/77/77
f 71/71/71 79/79/79 74/74/74
f 74/74/74 79/79/79 78/78/78
f 80/80/80 76/76/76 77/77/77
f 76/76/76 80/80/80 75/75/75
f 66/66/66 75/75/75 81/81/81
f 66/66/66 81/81/81 57/57/57
f 82/82/82 77/77/77 78/78/78
f 80/80/80 77/77/77 82/82/82
f 80/80/80 83/83/83 75/75/75
f 75/75/75 83/83/83 81/81/81
f 57/57/57 81/81/81 84/84/84
f 57/57/57 84/84/84 50/50/50
f 50/50/50 84/84/84 85/85/85
f 81/81/81 86/86/86 84/84/84
f 83/83/83 86/86/86 81/81/81
f 80/80/80 87/87/87 83/83/83
f 87/87/87 80/80/80 82/82/82
f 82/82/82 78/78/78 88/88/88
f 88/88/88 78/78/78 79/79/79
f 86/86/86 89/89/89 84/84/84
f 84/84/84 89/89/89 90/90/90
f 83/83/83 91/91/91 86/86/86
f 87/87/87 91/91/91 83/83/83
f 87/87/87 82/82/82 92/92/92
f 92/92/92 82/82/82 88/88/88
f 86/86/86 93/93/93 89/89/89
f 91/91/91 93/93/93 86/86/86
f 87/87/87 94/94/94 91/91/91
f 94/94/94 87/87/87 92/92/92
f 91/91/91 95/95/95 93/93/93
f 94/94/94 95/95/95 91/91/91
f 88/88/88 79/79/79 96/96/96
f 92/92/92 88/88/88 97/97/97
f 97/97/97 88/88/88 96/96/96
f 94/94/94 92/92/92 98/98/98
f 98/98/98 92/92/92 97/97/97
f 94/94/94 99/99/99 95/95/95
f 99/99/99 94/94/94 98/98/98
f 96/96/96 79/79/79 100/100/100
f 71/71/71 100/100/100 79/79/79
f 100/100/100 71/71/71 13/13/13
f 101/101/101 100/100/100 13/13/13
f 100/100/100 101/101/101 96/96/96
f 101/101/101 13/13/13 12/12/12
f 96/96/96 102/102/102 97/97/97
f 101/101/101 102/102/102 96/96/96
f 103/103/103 101/101/101 12/12/12
f 101/101/101 103/103/103 102/102/102
f 103/103/103 12/12/12 15/15/15
f 97/97/97 104/104/104 98/98/98
f 102/102/102 104/104/104 97/97/97
f 98/98/98 105/105/105 99/99/99
f 104/104/104 105/105/105 98/98/98
f 103/103/103 106/106/106 102/102/102
f 102/102/102 106/106/106 104/104/104
f 107/107/107 103/103/103 15/15/15
f 103/103/103 107/107/107 106/106/106
f 106/106/106 108/108/108 104/104/104
f 104/104/104 108/108/108 105/105/105
f 109/109/109 99/99/99 105/105/105
f 99/99/99 109/109/109 95/95/95
f 107/107/107 15/15/15 110/110/110
f 110/110/110 15/15/15 14/14/14
f 107/107/107 111/111/111 106/106/106
f 106/106/106 111/111/111 108/108/108
f 112/112/112 105/105/105 108/108/108
f 109/109/109 105/105/105 112/112/112
f 109/109/109 113/113/113 95/95/95
f 95/95/95 113/113/113 93/93/93
f 114/114/114 107/107/107 110/110/110
f 107/107/107 114/114/114 111/111/111
f 115/115/115 108/108/108 111/111/111
f 112/112/112 108/108/108 115/115/115
f 116/116/116 109/109/109 112/112/112
f 109/109/109 116/116/116 113/113/113
f 113/113/113 117/117/117 93/93/93
f 93/93/93 117/117/117 89/89/89
f 118/118/118 111/111/111 114/114/114
f 115/115/115 111/111/111 118/118/118
f 119/119/119 114/114/114 110/110/110
f 114/114/114 119/119/119 118/118/118
f 120/120/120 112/112/112 115/115/115
f 116/116/116 112/112/112 120/120/120
f 116/116/116 121/121/121 113/113/113
f 113/113/113 121/121/121 117/117/117
f 117/117/117 122/122/122 89/89/89
f 89/89/89 122/122/122 123/123/123
f 124/124/124 115/115/115 118/118/118
f 120/120/120 115/115/115 124/124/124
f 125/125/125 116/116/116 120/120/120
f 116/116/116 125/125/125 121/121/121
f 121/121/121 126/126/126 117/117/117
f 117/117/117 126/126/126 122/122/122
f 119/119/119 127/127/127 118/118/118
f 118/118/118 127/127/127 124/124/124
f 128/128/128 120/120/120 124/124/124
f 125/125/125 120/120/120 128/128/128
f 125/125/125 129/129/129 121/121/121
f 121/121/121 129/129/129 126/126/126
f 127/127/127 130/130/130 124/124/124
f 124/124/124 130/130/130 128/128/128
f 131/131/131 125/125/125 128/128/128
f 125/125/125 131/131/131 129/129/129
f 128/128/128 132/132/132 131/131/131
f 130/130/130 132/132/132 128/128/128
f 131/131/131 133/133/133 129/129/129
f 133/133/133 131/131/131 132/132/132
f 129/129/129 134/134/134 126/126/126
f 133/133/133 134/134/134 129/129/129
f 134/134/134 135/135/135 126/126/126
f 126/126/126 135/135/135 122/122/122
f 135/135/135 136/136/136 122/122/122
f 122/122/122 136/136/136 137/137/137
f 127/127/127 138/138/138 130/130/130
f 130/130/130 139/139/139 132/132/132
f 138/138/138 139/139/139 130/130/130
f 133/133/133 132/132/132 140/140/140
f 140/140/140 132/132/132 139/139/139
f 133/133/133 141/141/141 134/134/134
f 141/141/141 133/133/133 140/140/140
f 134/134/134 142/142/142 135/135/135
f 141/141/141 142/142/142 134/134/134
f 135/135/135 143/143/143 136/136/136
f 142/142/142 143/143/143 135/135/135
f 144/144/144 138/138/138 127/127/127
f 119/119/119 144/144/144 127/127/127
f 144/144/144 119/119/119 145/145/145
f 119/119/119 110/110/110 145/145/145
f 145/145/145 110/110/110 14/14/14
f 145/145/145 14/14/14 146/146/146
f 146/146/146 14/14/14 7/7/7
f 144/144/144 145/145/145 147/147/147
f 147/147/147 145/145/145 146/146/146
f 144/144/144 148/148/148 138/138/138
f 148/148/148 144/144/144 147/147/147
f 146/146/146 7/7/7 149/149/149
f 149/149/149 7/7/7 150/150/150
f 147/147/147 146/146/146 151/151/151
f 151/151/151 146/146/146 149/149/149
f 148/148/148 152/152/152 138/138/138
f 138/138/138 152/152/152 139/139/139
f 148/148/148 147/147/147 153/153/153
f 153/153/153 147/147/147 151/151/151
f 154/154/154 139/139/139 152/152/152
f 140/140/140 139/139/139 154/154/154
f 148/148/148 155/155/155 152/152/152
f 155/155/155 148/148/148 153/153/153
f 156/156/156 152/152/152 155/155/155
f 154/154/154 152/152/152 156/156/156
f 157/157/157 140/140/140 154/154/154
f 141/141/141 140/140/140 157/157/157
f 158/158/158 155/155/155 153/153/153
f 155/155/155 158/158/158 156/156/156
f 159/159/159 153/153/153 151/151/151
f 158/158/158 153/153/153 159/159/159
f 160/160/160 154/154/154 156/156/156
f 157/157/157 154/154/154 160/160/160
f 161/161/161 141/141/141 157/157/157
f 141/141/141 161/161/161 142/142/142
f 158/158/158 162/162/162 156/156/156
f 156/156/156 162/162/162 160/160/160
f 163/163/163 157/157/157 160/160/160
f 161/161/161 157/157/157 163/163/163
f 161/161/161 164/164/164 142/142/142
f 142/142/142 164/164/164 143/143/143
f 159/159/159 151/151/151 165/165/165
f 165/165/165 151/151/151 149/149/149
f 166/166/166 158/158/158 159/159/159
f 158/158/158 166/166/166 162/162/162
f 162/162/162 167/167/167 160/160/160
f 160/160/160 167/167/167 163/163/163
f 168/168/168 161/161/161 163/163/163
f 161/161/161 168/168/168 164/164/164
f 165/165/165 149/149/149 169/169/169
f 169/169/169 149/149/149 170/170/170
f 171/171/171 165/165/165 169/169/169
f 172/172/172 165/165/165 171/171/171
f 172/172/172 159/159/159 165/165/165
f 166/166/166 159/159/159 172/172/172
f 173/173/173 166/166/166 172/172/172
f 166/166/166 173/173/173 174/174/174
f 166/166/166 174/174/174 162/162/162
f 162/162/162 174/174/174 167/167/167
f 174/174/174 175/175/175 167/167/167
f 167/167/167 175/175/175 176/176/176
f 167/167/167 176/176/176 163/163/163
f 163/163/163 176/176/176 168/168/168
f 177/177/177 168/168/168 176/176/176
f 168/168/168 177/177/177 164/164/164
f 177/177/177 178/178/178 164/164/164
f 164/164/164 178/178/178 143/143/143
f 178/178/178 179/179/179 143/143/143
f 143/143/143 179/179/179 136/136/136
f 179/179/179 180/180/180 136/136/136
f 136/136/136 180/180/180 181/181/181
