g Eff_mesh_ljw_xl_huan_01
v -0.0105318259 0.0601129532 -0.000860293687
v 0.0105317878 0.0601129904 -0.000860293687
v 0.0177645497 0.101312861 0.0690070242
v -0.0177647211 0.101312861 0.0690070167
v -0.030325165 0.0529083237 -0.00075633981
v -0.0270810314 0.154340014 0.147541106
v 0.02708086 0.154340014 0.147541106
v 0.0384150483 0.21882087 0.233782858
v -0.0511512756 0.0891608 0.0690804347
v -0.0464607812 0.0393682085 -0.000560970628
v -0.0779765323 0.135815352 0.147580117
v -0.0384153351 0.21882084 0.233782873
v -0.0783682987 0.0663225576 0.0692184642
v -0.0569925681 0.0211254302 -0.000297750667
v -0.119466916 0.101000592 0.147653416
v -0.0961329639 0.0355522893 0.0694043636
v -0.0606501959 0.000380592333 1.57132274E-06
v -0.0517021343 0.294381827 0.326773167
v 0.0517018102 0.294381976 0.326773226
v 0.0668755323 0.380649596 0.425553054
v -0.110612273 0.19254306 0.233783484
v -0.146547809 0.05409462 0.14775221
v -0.102302551 0.000562057481 0.0696157888
v -0.0569925308 -0.0203642659 0.000300892279
v -0.148869991 0.259015679 0.326731563
v -0.0668759495 0.380649507 0.425553054
v -0.169467777 0.143157572 0.23378478
v -0.15595293 0.000755004876 0.14786455
v -0.0961329639 -0.0344283283 0.0698271841
v -0.0464607999 -0.0386069678 0.000564109476
v -0.228081971 0.192549288 0.326653332
v -0.207882985 0.0766205192 0.233786523
v -0.146547794 -0.0525844358 0.147976935
v -0.078368336 -0.0651983246 0.0700131431
v -0.0303251836 -0.0521472171 0.000759475573
v -0.19256115 0.334904134 0.425465077
v -0.279783964 0.102999382 0.32654804
v -0.221224412 0.000957260083 0.23378846
v -0.119466923 -0.0994904488 0.148075685
v -0.051151257 -0.0880367234 0.0701511577
v -0.0105318641 -0.0593518056 0.000863427529
v -0.295020729 0.24893111 0.425300002
v -0.297739863 0.00116670609 0.326428115
v -0.207882971 -0.0747059435 0.233790442
v -0.0779765323 -0.134305343 0.148149043
v -0.0177647974 -0.100188747 0.0702245757
v 0.0105317496 -0.059351787 0.000863427704
v -0.361896455 0.13309966 0.425077051
v -0.279783964 -0.100665815 0.32630825
v -0.169467822 -0.141243115 0.233792126
v -0.0270811077 -0.15282999 0.148188069
v 0.0177645106 -0.100188732 0.0702245906
v 0.0303250495 -0.0521471761 0.000759476097
v -0.38512221 0.00138122553 0.424824029
v -0.228082046 -0.190215871 0.326202989
v -0.110612333 -0.190628797 0.233793482
v 0.027080765 -0.152830034 0.14818804
v 0.0511511602 -0.0880366862 0.0701511651
v 0.0464606285 -0.0386069864 0.00056411
v -0.361896455 -0.130337298 0.424570918
v -0.148870066 -0.256682396 0.326124638
v -0.0384154506 -0.216906354 0.233794019
v 0.0779762641 -0.134305418 0.148149043
v 0.0783680305 -0.0651983991 0.070013158
v 0.0569925308 -0.0203642454 0.00030089292
v -0.295020789 -0.246168569 0.424348235
v -0.0517022125 -0.292048484 0.326083064
v 0.0384149551 -0.216906384 0.233794108
v 0.119466625 -0.0994905457 0.14807573
v 0.0961327329 -0.0344283655 0.0698272213
v 0.0606500991 0.000380592333 1.57139095E-06
v -0.192561284 -0.332141727 0.424183011
v 0.0517016985 -0.292048514 0.326083034
v 0.110611953 -0.190628842 0.233793482
v 0.146547586 -0.0525846295 0.14797692
v 0.102302283 0.000562057481 0.0696157888
v 0.0569925308 0.0211254302 -0.000297750667
v -0.0668760464 -0.37788716 0.424095094
v 0.148869663 -0.256682515 0.326124728
v 0.169467345 -0.141243279 0.233792111
v 0.155952752 0.000755004876 0.14786455
v 0.0961327329 0.0355524234 0.0694043636
v 0.0464607216 0.039368134 -0.000560970744
v 0.0668753833 -0.377887189 0.424095184
v 0.228081539 -0.190216094 0.32620284
v 0.207882687 -0.0747061744 0.233790413
v 0.146547616 0.0540945046 0.147752225
v 0.0783680677 0.0663224757 0.0692184418
v 0.0303250495 0.052908361 -0.000756339927
v 0.192560732 -0.332141906 0.424183071
v 0.279783696 -0.100666083 0.32630828
v 0.221224099 0.000957202865 0.233788446
v 0.119466744 0.101000518 0.147653431
v 0.0511511229 0.0891608372 0.0690804496
v 0.0105317878 0.0601129904 -0.000860293687
v 0.0177645497 0.101312861 0.0690070242
v 0.02708086 0.154340014 0.147541106
v 0.0779763386 0.135815382 0.147580117
v 0.207882717 0.0766204447 0.233786523
v 0.297739565 0.00116670609 0.326428115
v 0.110612065 0.192543298 0.233783513
v 0.0384150483 0.21882087 0.233782858
v 0.0517018102 0.294381976 0.326773226
v 0.169467509 0.143157616 0.23378481
v 0.279783696 0.102999263 0.326547951
v 0.148869708 0.259015888 0.326731563
v 0.228081733 0.192549318 0.326653361
v 0.192560837 0.334904313 0.425465167
v 0.0668755323 0.380649596 0.425553054
v 0.0838708133 0.477250695 0.529163301
v 0.295020431 0.24893108 0.425299853
v 0.361896127 0.13309975 0.425077289
v 0.385121793 0.00138120644 0.424824029
v 0.241496772 0.419880033 0.529025018
v 0.36999476 0.312058508 0.528765202
v 0.295489162 0.513614357 0.636452258
v 0.102622181 0.583811343 0.636644959
v 0.123064041 0.699958622 0.747038782
v 0.452715784 0.381687045 0.636090159
v 0.453865767 0.166790918 0.528415143
v 0.361896098 -0.130337581 0.424570918
v 0.354349285 0.615778685 0.746787608
v 0.555338144 0.203941718 0.635602236
v 0.482993871 0.00159875862 0.528016984
v 0.295020163 -0.246168837 0.424348295
v 0.453865677 -0.163593724 0.527618945
v 0.590978563 0.00181724539 0.635047495
v 0.542894781 0.457572192 0.746315598
v 0.369994462 -0.308861166 0.527268648
v 0.555338085 -0.200307608 0.634492695
v 0.665959001 0.244421035 0.745679557
v 0.241496697 -0.416682571 0.52700913
v 0.452715337 -0.378052741 0.634004831
v 0.70869869 0.00203453051 0.744956195
v 0.295489073 -0.509979963 0.633642793
v 0.0838706568 -0.474053115 0.526870728
v 0.10262195 -0.58017695 0.633450031
v -0.0838714391 -0.474053025 0.526870668
v -0.102622814 -0.58017683 0.633449972
v -0.241497338 -0.416682303 0.527008891
v -0.295489699 -0.509979665 0.633642554
v -0.369995147 -0.308860838 0.527268708
v -0.452716291 -0.378052324 0.634004593
v -0.453866214 -0.163593322 0.527619064
v -0.555338502 -0.200307101 0.634492636
v -0.482994258 0.00159879681 0.528017044
v -0.59097898 0.00181732175 0.635047495
v -0.453866094 0.166790918 0.528414905
v -0.555338442 0.203941643 0.635602176
v -0.369995117 0.31205833 0.528765142
v -0.452716142 0.381686956 0.6360901
v -0.241497248 0.419879943 0.529025018
v -0.295489579 0.513614357 0.636452079
v -0.0838712677 0.477250695 0.529163301
v 0.0838708133 0.477250695 0.529163301
v 0.102622181 0.583811343 0.636644959
v -0.102622598 0.583811283 0.6366449
v -0.12306454 0.699958503 0.747038841
v 0.123064041 0.699958622 0.747038782
v 0.145131037 0.825318575 0.859385729
v -0.354349703 0.615778506 0.746787548
v -0.542895019 0.457571983 0.74631542
v -0.145131543 0.825318456 0.859385729
v -0.168758124 0.959517777 0.972726941
v 0.168757632 0.959517777 0.972726941
v -0.485919029 0.844081879 0.972346187
v -0.417888969 0.726043999 0.85907203
v -0.744470954 0.627134144 0.971630752
v -0.640242934 0.539469302 0.858482122
v -0.91322875 0.334840834 0.970666349
v -0.665959358 0.244421035 0.745679438
v -0.785374224 0.288097709 0.857687294
v -0.971837878 0.00245727529 0.969570279
v -0.708699226 0.00203462597 0.744956136
v -0.835777819 0.00224859244 0.85678345
v -0.913228869 -0.329926372 0.96847409
v -0.665959477 -0.240351826 0.744232774
v -0.785374343 -0.283600509 0.855879724
v -0.744471192 -0.622219503 0.967509985
v -0.542895138 -0.453502864 0.743596852
v -0.640243232 -0.534972012 0.855084956
v -0.485919267 -0.839167595 0.966794252
v -0.354349881 -0.611709297 0.743124664
v -0.417889237 -0.721546769 0.854494989
v -0.168758392 -0.954603255 0.966413558
v -0.123064756 -0.695889413 0.74287343
v -0.145131797 -0.820821226 0.85418129
v 0.168757245 -0.954603374 0.966413796
v 0.123063773 -0.695889473 0.74287343
v 0.145130724 -0.820821345 0.854181349
v 0.485918313 -0.839168012 0.966794491
v 0.354349077 -0.611709714 0.743124843
v 0.417888373 -0.721547246 0.854495049
v 0.744470179 -0.622220159 0.967509925
v 0.542894304 -0.45350334 0.743596733
v 0.640242159 -0.534972608 0.855084836
v 0.913228571 -0.329927146 0.968473971
v 0.604426682 -0.346927851 0.743914783
v 0.785373807 -0.283601165 0.855879784
v 0.971837461 0.00245712278 0.969570279
v 0.665959001 -0.240352392 0.744232953
v 0.835777402 0.00224849698 0.856783569
v 0.913228571 0.334840834 0.970666468
v 0.785373807 0.288097709 0.857687294
v 0.744470656 0.627134144 0.971630633
v 0.640242457 0.539469302 0.858482122
v 0.485918611 0.844082177 0.972346187
v 0.417888582 0.726043999 0.85907203
v 0.168757632 0.959517777 0.972726941
v 0.145131037 0.825318575 0.859385729
vt 0.0545681342 0
vt -0.000987475738 0
vt -0.000987475738 0.099999994
vt 0.0545681342 0.099999994
vt 0.110123657 0
vt 0.0545681342 0.199999988
vt -0.000987475738 0.199999988
vt -0.000987475738 0.300000012
vt 0.110123657 0.099999994
vt 0.165679216 0
vt 0.110123657 0.199999988
vt 0.0545681342 0.300000012
vt 0.165679216 0.099999994
vt 0.221234769 0
vt 0.165679216 0.199999988
vt 0.221234769 0.099999994
vt 0.276790291 0
vt 0.0545681342 0.400000006
vt -0.000987475738 0.400000006
vt -0.000987475738 0.5
vt 0.110123657 0.300000012
vt 0.221234769 0.199999988
vt 0.276790291 0.099999994
vt 0.332345843 0
vt 0.110123657 0.400000006
vt 0.0545681342 0.5
vt 0.165679216 0.300000012
vt 0.276790291 0.199999988
vt 0.332345843 0.099999994
vt 0.387901396 0
vt 0.165679216 0.400000006
vt 0.221234769 0.300000012
vt 0.332345843 0.199999988
vt 0.387901425 0.099999994
vt 0.443456948 0
vt 0.110123657 0.5
vt 0.221234769 0.400000006
vt 0.276790291 0.300000012
vt 0.387901425 0.199999988
vt 0.443456948 0.099999994
vt 0.49901247 0
vt 0.165679216 0.5
vt 0.276790291 0.400000006
vt 0.332345843 0.300000012
vt 0.443456948 0.199999988
vt 0.49901247 0.099999994
vt 0.554567993 0
vt 0.221234769 0.5
vt 0.332345843 0.400000006
vt 0.387901425 0.300000012
vt 0.49901247 0.199999988
vt 0.554567993 0.099999994
vt 0.610123575 0
vt 0.276790291 0.5
vt 0.387901396 0.400000006
vt 0.443456948 0.300000012
vt 0.554568052 0.199999988
vt 0.610123575 0.099999994
vt 0.665679097 0
vt 0.332345843 0.5
vt 0.443456948 0.400000006
vt 0.49901247 0.300000012
vt 0.610123575 0.199999988
vt 0.665679097 0.099999994
vt 0.721234679 0
vt 0.387901396 0.5
vt 0.49901247 0.400000006
vt 0.554567993 0.300000012
vt 0.665679097 0.199999988
vt 0.72123462 0.099999994
vt 0.776790321 0
vt 0.443456948 0.5
vt 0.554567993 0.400000006
vt 0.610123575 0.300000012
vt 0.72123462 0.199999988
vt 0.776790321 0.099999994
vt 0.832345903 0
vt 0.49901247 0.5
vt 0.610123575 0.400000006
vt 0.665679097 0.300000012
vt 0.776790321 0.199999988
vt 0.832345903 0.099999994
vt 0.887901425 0
vt 0.554567993 0.5
vt 0.665679097 0.400000006
vt 0.72123462 0.300000012
vt 0.832345903 0.199999988
vt 0.887901425 0.099999994
vt 0.943457007 0
vt 0.610123575 0.5
vt 0.721234679 0.400000006
vt 0.776790321 0.300000012
vt 0.887901425 0.199999988
vt 0.943457007 0.099999994
vt 0.99901253 0
vt 0.99901253 0.099999994
vt 0.99901253 0.199999988
vt 0.943457007 0.199999988
vt 0.832345903 0.300000012
vt 0.776790321 0.400000006
vt 0.943457007 0.300000012
vt 0.99901253 0.300000012
vt 0.99901253 0.400000006
vt 0.887901425 0.300000012
vt 0.832345903 0.400000006
vt 0.943457007 0.400000006
vt 0.887901425 0.400000006
vt 0.943457007 0.5
vt 0.99901253 0.5
vt 0.99901253 0.600000024
vt 0.887901425 0.5
vt 0.832345903 0.5
vt 0.776790321 0.5
vt 0.943457007 0.600000024
vt 0.887901425 0.600000024
vt 0.943457007 0.700000048
vt 0.99901253 0.700000048
vt 0.99901253 0.800000012
vt 0.887901425 0.700000048
vt 0.832345903 0.600000024
vt 0.721234679 0.5
vt 0.943457007 0.800000012
vt 0.832345903 0.700000048
vt 0.776790321 0.600000024
vt 0.665679097 0.5
vt 0.721234679 0.600000024
vt 0.776790321 0.700000048
vt 0.887901425 0.800000012
vt 0.665679097 0.600000024
vt 0.721234679 0.700000048
vt 0.832345903 0.800000012
vt 0.610123575 0.600000024
vt 0.665679097 0.700000048
vt 0.776790321 0.800000012
vt 0.610123575 0.700000048
vt 0.554567993 0.600000024
vt 0.554567993 0.700000048
vt 0.49901247 0.600000024
vt 0.49901247 0.700000048
vt 0.443456948 0.600000024
vt 0.443456948 0.700000048
vt 0.387901396 0.600000024
vt 0.387901396 0.700000048
vt 0.332345843 0.600000024
vt 0.332345843 0.700000048
vt 0.276790291 0.600000024
vt 0.276790291 0.700000048
vt 0.221234769 0.600000024
vt 0.221234769 0.700000048
vt 0.165679216 0.600000024
vt 0.165679216 0.700000048
vt 0.110123657 0.600000024
vt 0.110123657 0.700000048
vt 0.0545681342 0.600000024
vt -0.000987475738 0.600000024
vt -0.000987475738 0.700000048
vt 0.0545681342 0.700000048
vt 0.0545681342 0.800000012
vt -0.000987475738 0.800000012
vt -0.000987475738 0.899999976
vt 0.110123657 0.800000012
vt 0.165679216 0.800000012
vt 0.0545681342 0.899999976
vt 0.0545681342 1
vt -0.000987475738 1
vt 0.110123657 1
vt 0.110123657 0.899999976
vt 0.165679216 1
vt 0.165679216 0.899999976
vt 0.221234769 1
vt 0.221234769 0.800000012
vt 0.221234769 0.899999976
vt 0.276790291 1
vt 0.276790291 0.800000012
vt 0.276790291 0.899999976
vt 0.332345843 1
vt 0.332345843 0.800000012
vt 0.332345843 0.899999976
vt 0.387901396 1
vt 0.387901396 0.800000012
vt 0.387901396 0.899999976
vt 0.443456948 1
vt 0.443456948 0.800000012
vt 0.443456948 0.899999976
vt 0.49901247 1
vt 0.49901247 0.800000012
vt 0.49901247 0.899999976
vt 0.554567993 1
vt 0.554567993 0.800000012
vt 0.554567993 0.899999976
vt 0.610123575 1
vt 0.610123575 0.800000012
vt 0.610123575 0.899999976
vt 0.665679097 1
vt 0.665679097 0.800000012
vt 0.665679097 0.899999976
vt 0.721234679 1
vt 0.693456888 0.800000012
vt 0.721234679 0.899999976
vt 0.776790321 1
vt 0.721234679 0.800000012
vt 0.776790321 0.899999976
vt 0.832345903 1
vt 0.832345903 0.899999976
vt 0.887901425 1
vt 0.887901425 0.899999976
vt 0.943457007 1
vt 0.943457007 0.899999976
vt 0.99901253 1
vt 0.99901253 0.899999976
vn -0.149606556 0.844775736 -0.513781846
vn 0.149606049 0.844776034 -0.513781667
vn 0.146547437 0.827869833 -0.541438282
vn -0.146547914 0.827869773 -0.541438341
vn -0.430564553 0.742082834 -0.513738513
vn -0.140849188 0.797575653 -0.586544573
vn 0.140848592 0.797575653 -0.586544752
vn 0.135999709 0.771287203 -0.621787965
vn -0.421777993 0.727302849 -0.541418314
vn -0.659067094 0.549350917 -0.51365757
vn -0.405480057 0.701096952 -0.586557031
vn -0.136000872 0.771287024 -0.621787846
vn -0.645662248 0.538541138 -0.54138124
vn -0.80748415 0.29023537 -0.513549268
vn -0.62100929 0.519875348 -0.586580813
vn -0.791135192 0.284721434 -0.541330695
vn -0.858125269 -0.00365423411 -0.513427496
vn -0.131675452 0.747530639 -0.651044965
vn 0.131674394 0.747530758 -0.651044905
vn 0.127662629 0.725304902 -0.676487267
vn -0.391581684 0.678231597 -0.621824384
vn -0.761416197 0.275920719 -0.586611629
vn -0.840840459 -0.00321931322 -0.541273415
vn -0.805271685 -0.296739221 -0.513306201
vn -0.3791641 0.657496572 -0.651101232
vn -0.127663225 0.725304782 -0.676487446
vn -0.599894285 0.503364146 -0.621893346
vn -0.809842825 -0.00120973343 -0.586645663
vn -0.789134979 -0.290432781 -0.541216135
vn -0.655678511 -0.553815484 -0.513199866
vn -0.580974698 0.488260895 -0.651206374
vn -0.735808909 0.267805099 -0.621985197
vn -0.760593116 -0.278040022 -0.586678624
vn -0.642598569 -0.542408466 -0.54116565
vn -0.427585542 -0.744229078 -0.513121426
vn -0.367634326 0.638053179 -0.676559865
vn -0.7127738 0.260192662 -0.65134728
vn -0.782947004 -7.443507E-06 -0.622088373
vn -0.619748652 -0.521235406 -0.586707115
vn -0.419084162 -0.729074001 -0.541128099
vn -0.148428723 -0.845409751 -0.513080239
vn -0.563373387 0.474018365 -0.676695764
vn -0.758643031 0.000762782409 -0.651506126
vn -0.735651255 -0.267762154 -0.622190118
vn -0.404371351 -0.701594293 -0.58672756
vn -0.145483509 -0.828273058 -0.541108429
vn 0.148429498 -0.845409691 -0.513080001
vn -0.691287518 0.252898365 -0.676878154
vn -0.713009179 -0.258752286 -0.651663363
vn -0.599653125 -0.503175437 -0.622278512
vn -0.140411183 -0.797510445 -0.586738288
vn 0.14548333 -0.828273058 -0.541108429
vn 0.427585453 -0.744229198 -0.513121247
vn -0.735904574 0.00128823856 -0.677083969
vn -0.581335545 -0.487037003 -0.651800573
vn -0.391369492 -0.677878022 -0.622343302
vn 0.140410602 -0.797510505 -0.586738288
vn 0.419084191 -0.729073882 -0.541128159
vn 0.655678272 -0.553816497 -0.513199091
vn -0.691760838 -0.250493258 -0.677288711
vn -0.379481345 -0.656519771 -0.651901603
vn -0.13591671 -0.770825922 -0.622377813
vn 0.404371083 -0.701594591 -0.586727321
vn 0.642598152 -0.542409122 -0.541165233
vn 0.8052724 -0.296739787 -0.513304889
vn -0.564098656 -0.4720487 -0.677467823
vn -0.131800234 -0.74671495 -0.651955009
vn 0.135916144 -0.770826101 -0.622377694
vn 0.619748235 -0.521236122 -0.586706936
vn 0.78913486 -0.290433437 -0.541215718
vn 0.858126342 -0.00365422433 -0.513425648
vn -0.368271768 -0.63658011 -0.677600026
vn 0.131799847 -0.746715069 -0.651955068
vn 0.391368926 -0.67787838 -0.622343361
vn 0.760592699 -0.278040797 -0.586678803
vn 0.840840816 -0.00321931299 -0.541272879
vn 0.807484686 0.290235609 -0.513548136
vn -0.127914727 -0.724155545 -0.677669883
vn 0.379480779 -0.656520188 -0.651901543
vn 0.59965241 -0.503176332 -0.622278452
vn 0.809842885 -0.00120956369 -0.586645603
vn 0.791135252 0.284721911 -0.541330218
vn 0.65906775 0.549351037 -0.513656676
vn 0.127914444 -0.724155784 -0.677669764
vn 0.581335068 -0.487037957 -0.651800334
vn 0.735651135 -0.267762721 -0.622190118
vn 0.761416316 0.275920659 -0.58661145
vn 0.645662844 0.538541138 -0.541380644
vn 0.430565834 0.742082417 -0.513738036
vn 0.368271261 -0.636580706 -0.677599669
vn 0.713009238 -0.258752584 -0.651663184
vn 0.782947242 -7.36462516E-06 -0.622088194
vn 0.621010005 0.519874692 -0.586580694
vn 0.421778798 0.727302551 -0.541418254
vn 0.149606049 0.844776034 -0.513781667
vn 0.146547437 0.827869833 -0.541438282
vn 0.140848592 0.797575653 -0.586544752
vn 0.405480266 0.701096535 -0.586557329
vn 0.735809088 0.267804861 -0.621985078
vn 0.75864327 0.000762961688 -0.651505709
vn 0.391581744 0.678231418 -0.621824682
vn 0.135999709 0.771287203 -0.621787965
vn 0.131674394 0.747530758 -0.651044905
vn 0.599894881 0.50336355 -0.621893406
vn 0.712774158 0.260192215 -0.651346982
vn 0.37916401 0.657496631 -0.651101112
vn 0.580975115 0.488260388 -0.651206315
vn 0.367634177 0.638053477 -0.676559627
vn 0.127662629 0.725304902 -0.676487267
vn 0.123822004 0.703903556 -0.699419677
vn 0.563373923 0.474017978 -0.676695526
vn 0.691287935 0.252898216 -0.676877737
vn 0.735904753 0.00128862774 -0.67708379
vn 0.356588334 0.619302273 -0.6995067
vn 0.546488881 0.4602305 -0.699669778
vn 0.345735252 0.600793839 -0.72077316
vn 0.120050102 0.682801843 -0.720673025
vn 0.116268925 0.661588669 -0.740798175
vn 0.529883265 0.446586311 -0.720960736
vn 0.6706388 0.245762885 -0.699888706
vn 0.691760957 -0.250493705 -0.677288592
vn 0.33485195 0.582174122 -0.740909934
vn 0.650305688 0.238651738 -0.721212745
vn 0.71400702 0.00166859862 -0.700136483
vn 0.564098239 -0.472049683 -0.677467585
vn 0.671255708 -0.242650643 -0.700383127
vn 0.69241327 0.00195808825 -0.721498549
vn 0.513219833 0.432835251 -0.74112016
vn 0.547433913 -0.457686871 -0.700599015
vn 0.651009858 -0.234999537 -0.721776545
vn 0.629882991 0.231449708 -0.741402984
vn 0.357419163 -0.617404699 -0.700758815
vn 0.53094542 -0.443570942 -0.722039998
vn 0.670701802 0.00218937313 -0.741723895
vn 0.346678257 -0.5985111 -0.722217977
vn 0.124150179 -0.702427804 -0.700843632
vn 0.120422505 -0.680997729 -0.722316086
vn -0.12415044 -0.702427745 -0.700843692
vn -0.12042284 -0.68099767 -0.722316086
vn -0.357419521 -0.617404282 -0.700759053
vn -0.346678615 -0.59851104 -0.722217739
vn -0.547434092 -0.457685828 -0.700599372
vn -0.53095597 -0.443569809 -0.722032964
vn -0.671255767 -0.242649898 -0.700383246
vn -0.651005447 -0.23499012 -0.721783519
vn -0.714007139 0.00166835997 -0.700136364
vn -0.692412853 0.00195816928 -0.721498847
vn -0.670638859 0.245763108 -0.699888647
vn -0.650305629 0.238651857 -0.721212804
vn -0.546488881 0.46023044 -0.699669898
vn -0.529883444 0.446586311 -0.720960677
vn -0.356588304 0.619301796 -0.699507117
vn -0.345735282 0.600793898 -0.720773101
vn -0.123822078 0.703903377 -0.699419856
vn 0.123822004 0.703903556 -0.699419677
vn 0.120050102 0.682801843 -0.720673025
vn -0.120050102 0.682801902 -0.720672965
vn -0.116269231 0.661588788 -0.740797937
vn 0.116268925 0.661588669 -0.740798175
vn 0.112415187 0.639924824 -0.7601704
vn -0.33485195 0.582174301 -0.740909815
vn -0.513219953 0.432835251 -0.7411201
vn -0.1124155 0.639924884 -0.760170341
vn -0.110578835 0.629834294 -0.768818021
vn 0.110578597 0.629834294 -0.768818021
vn -0.318482012 0.554338455 -0.768946052
vn -0.323756099 0.563148141 -0.760293484
vn -0.488182962 0.412345976 -0.769186795
vn -0.496222675 0.418765962 -0.760524929
vn -0.599243581 0.220817745 -0.769510627
vn -0.629882812 0.231449947 -0.741403043
vn -0.609037817 0.224055782 -0.760836363
vn -0.638185441 0.00270955032 -0.769877911
vn -0.670701563 0.00218953309 -0.741724074
vn -0.648525059 0.0023821923 -0.76118958
vn -0.600153387 -0.215729252 -0.770244539
vn -0.630624175 -0.227340937 -0.742044032
vn -0.609790742 -0.219565213 -0.761542022
vn -0.48957637 -0.408094972 -0.770567
vn -0.5143556 -0.429409593 -0.742324531
vn -0.497376055 -0.414968699 -0.761851728
vn -0.319706559 -0.551040292 -0.770806253
vn -0.335850865 -0.579525471 -0.742532372
vn -0.324770033 -0.560139894 -0.762081265
vn -0.111062035 -0.627157867 -0.77093339
vn -0.116663747 -0.65944773 -0.74264282
vn -0.112815619 -0.63743186 -0.762202919
vn 0.11106199 -0.627158225 -0.770933092
vn 0.1166633 -0.659447789 -0.742642879
vn 0.112815343 -0.637432098 -0.762202799
vn 0.319706172 -0.551041186 -0.770805717
vn 0.335850209 -0.57952559 -0.742532611
vn 0.324769497 -0.560140491 -0.762080967
vn 0.489575624 -0.408095598 -0.77056706
vn 0.5143224 -0.429392159 -0.742357671
vn 0.497370124 -0.414964616 -0.761857867
vn 0.600152552 -0.215729132 -0.770245254
vn 0.587009847 -0.336719632 -0.736233294
vn 0.609796941 -0.219567448 -0.761536419
vn 0.638184965 0.00270967442 -0.769878328
vn 0.630655587 -0.227360427 -0.742011249
vn 0.648524761 0.00238220626 -0.761189818
vn 0.599243402 0.220817327 -0.769510925
vn 0.609037638 0.224055439 -0.760836601
vn 0.488182634 0.412345409 -0.769187272
vn 0.496222526 0.418765694 -0.760525167
vn 0.318481624 0.554338157 -0.768946409
vn 0.323756069 0.563147962 -0.760293663
vn 0.110578597 0.629834294 -0.768818021
vn 0.112415187 0.639924824 -0.7601704
g Eff_mesh_ljw_xl_huan_01_0
f 3/3/3 2/2/2 1/1/1
f 4/4/4 3/3/3 1/1/1
f 4/4/4 1/1/1 5/5/5
f 3/3/3 4/4/4 6/6/6
f 7/7/7 3/3/3 6/6/6
f 8/8/8 7/7/7 6/6/6
f 9/9/9 4/4/4 5/5/5
f 9/9/9 5/5/5 10/10/10
f 6/6/6 4/4/4 11/11/11
f 4/4/4 9/9/9 11/11/11
f 12/12/12 8/8/8 6/6/6
f 12/12/12 6/6/6 11/11/11
f 13/13/13 9/9/9 10/10/10
f 13/13/13 10/10/10 14/14/14
f 11/11/11 9/9/9 15/15/15
f 9/9/9 13/13/13 15/15/15
f 16/16/16 13/13/13 14/14/14
f 16/16/16 14/14/14 17/17/17
f 8/8/8 12/12/12 18/18/18
f 19/19/19 8/8/8 18/18/18
f 20/20/20 19/19/19 18/18/18
f 21/21/21 12/12/12 11/11/11
f 21/21/21 11/11/11 15/15/15
f 15/15/15 13/13/13 22/22/22
f 13/13/13 16/16/16 22/22/22
f 23/23/23 16/16/16 17/17/17
f 23/23/23 17/17/17 24/24/24
f 18/18/18 12/12/12 25/25/25
f 12/12/12 21/21/21 25/25/25
f 26/26/26 20/20/20 18/18/18
f 26/26/26 18/18/18 25/25/25
f 27/27/27 21/21/21 15/15/15
f 27/27/27 15/15/15 22/22/22
f 22/22/22 16/16/16 28/28/28
f 16/16/16 23/23/23 28/28/28
f 29/29/29 23/23/23 24/24/24
f 29/29/29 24/24/24 30/30/30
f 25/25/25 21/21/21 31/31/31
f 21/21/21 27/27/27 31/31/31
f 32/32/32 27/27/27 22/22/22
f 32/32/32 22/22/22 28/28/28
f 28/28/28 23/23/23 33/33/33
f 23/23/23 29/29/29 33/33/33
f 34/34/34 29/29/29 30/30/30
f 34/34/34 30/30/30 35/35/35
f 36/36/36 25/25/25 31/31/31
f 36/36/36 26/26/26 25/25/25
f 31/31/31 27/27/27 37/37/37
f 27/27/27 32/32/32 37/37/37
f 38/38/38 32/32/32 28/28/28
f 38/38/38 28/28/28 33/33/33
f 33/33/33 29/29/29 39/39/39
f 29/29/29 34/34/34 39/39/39
f 40/40/40 34/34/34 35/35/35
f 40/40/40 35/35/35 41/41/41
f 42/42/42 36/36/36 31/31/31
f 42/42/42 31/31/31 37/37/37
f 37/37/37 32/32/32 43/43/43
f 32/32/32 38/38/38 43/43/43
f 44/44/44 38/38/38 33/33/33
f 44/44/44 33/33/33 39/39/39
f 39/39/39 34/34/34 45/45/45
f 34/34/34 40/40/40 45/45/45
f 46/46/46 40/40/40 41/41/41
f 46/46/46 41/41/41 47/47/47
f 48/48/48 42/42/42 37/37/37
f 48/48/48 37/37/37 43/43/43
f 43/43/43 38/38/38 49/49/49
f 38/38/38 44/44/44 49/49/49
f 50/50/50 44/44/44 39/39/39
f 50/50/50 39/39/39 45/45/45
f 45/45/45 40/40/40 51/51/51
f 40/40/40 46/46/46 51/51/51
f 52/52/52 46/46/46 47/47/47
f 52/52/52 47/47/47 53/53/53
f 54/54/54 48/48/48 43/43/43
f 54/54/54 43/43/43 49/49/49
f 49/49/49 44/44/44 55/55/55
f 44/44/44 50/50/50 55/55/55
f 56/56/56 50/50/50 45/45/45
f 56/56/56 45/45/45 51/51/51
f 51/51/51 46/46/46 57/57/57
f 46/46/46 52/52/52 57/57/57
f 58/58/58 52/52/52 53/53/53
f 58/58/58 53/53/53 59/59/59
f 60/60/60 54/54/54 49/49/49
f 60/60/60 49/49/49 55/55/55
f 55/55/55 50/50/50 61/61/61
f 50/50/50 56/56/56 61/61/61
f 62/62/62 56/56/56 51/51/51
f 62/62/62 51/51/51 57/57/57
f 57/57/57 52/52/52 63/63/63
f 52/52/52 58/58/58 63/63/63
f 64/64/64 58/58/58 59/59/59
f 64/64/64 59/59/59 65/65/65
f 66/66/66 60/60/60 55/55/55
f 66/66/66 55/55/55 61/61/61
f 61/61/61 56/56/56 67/67/67
f 56/56/56 62/62/62 67/67/67
f 68/68/68 62/62/62 57/57/57
f 68/68/68 57/57/57 63/63/63
f 63/63/63 58/58/58 69/69/69
f 58/58/58 64/64/64 69/69/69
f 70/70/70 64/64/64 65/65/65
f 70/70/70 65/65/65 71/71/71
f 72/72/72 66/66/66 61/61/61
f 72/72/72 61/61/61 67/67/67
f 67/67/67 62/62/62 73/73/73
f 62/62/62 68/68/68 73/73/73
f 74/74/74 68/68/68 63/63/63
f 74/74/74 63/63/63 69/69/69
f 69/69/69 64/64/64 75/75/75
f 64/64/64 70/70/70 75/75/75
f 76/76/76 70/70/70 71/71/71
f 76/76/76 71/71/71 77/77/77
f 78/78/78 72/72/72 67/67/67
f 78/78/78 67/67/67 73/73/73
f 73/73/73 68/68/68 79/79/79
f 68/68/68 74/74/74 79/79/79
f 80/80/80 74/74/74 69/69/69
f 80/80/80 69/69/69 75/75/75
f 75/75/75 70/70/70 81/81/81
f 70/70/70 76/76/76 81/81/81
f 82/82/82 76/76/76 77/77/77
f 82/82/82 77/77/77 83/83/83
f 84/84/84 78/78/78 73/73/73
f 84/84/84 73/73/73 79/79/79
f 79/79/79 74/74/74 85/85/85
f 74/74/74 80/80/80 85/85/85
f 86/86/86 80/80/80 75/75/75
f 86/86/86 75/75/75 81/81/81
f 81/81/81 76/76/76 87/87/87
f 76/76/76 82/82/82 87/87/87
f 88/88/88 82/82/82 83/83/83
f 88/88/88 83/83/83 89/89/89
f 90/90/90 84/84/84 79/79/79
f 90/90/90 79/79/79 85/85/85
f 85/85/85 80/80/80 91/91/91
f 80/80/80 86/86/86 91/91/91
f 92/92/92 86/86/86 81/81/81
f 92/92/92 81/81/81 87/87/87
f 87/87/87 82/82/82 93/93/93
f 82/82/82 88/88/88 93/93/93
f 94/94/94 88/88/88 89/89/89
f 94/94/94 89/89/89 95/95/95
f 96/96/96 94/94/94 95/95/95
f 94/94/94 96/96/96 97/97/97
f 88/88/88 94/94/94 98/98/98
f 98/98/98 94/94/94 97/97/97
f 93/93/93 88/88/88 98/98/98
f 99/99/99 87/87/87 93/93/93
f 99/99/99 92/92/92 87/87/87
f 86/86/86 92/92/92 100/100/100
f 91/91/91 86/86/86 100/100/100
f 101/101/101 98/98/98 97/97/97
f 102/102/102 101/101/101 97/97/97
f 101/101/101 102/102/102 103/103/103
f 104/104/104 93/93/93 98/98/98
f 101/101/101 104/104/104 98/98/98
f 104/104/104 99/99/99 93/93/93
f 92/92/92 99/99/99 105/105/105
f 100/100/100 92/92/92 105/105/105
f 106/106/106 101/101/101 103/103/103
f 104/104/104 101/101/101 106/106/106
f 99/99/99 104/104/104 107/107/107
f 105/105/105 99/99/99 107/107/107
f 107/107/107 104/104/104 106/106/106
f 108/108/108 106/106/106 103/103/103
f 109/109/109 108/108/108 103/103/103
f 108/108/108 109/109/109 110/110/110
f 111/111/111 107/107/107 106/106/106
f 108/108/108 111/111/111 106/106/106
f 112/112/112 105/105/105 107/107/107
f 111/111/111 112/112/112 107/107/107
f 113/113/113 100/100/100 105/105/105
f 112/112/112 113/113/113 105/105/105
f 114/114/114 108/108/108 110/110/110
f 111/111/111 108/108/108 114/114/114
f 112/112/112 111/111/111 115/115/115
f 115/115/115 111/111/111 114/114/114
f 116/116/116 114/114/114 110/110/110
f 117/117/117 116/116/116 110/110/110
f 116/116/116 117/117/117 118/118/118
f 116/116/116 119/119/119 114/114/114
f 119/119/119 115/115/115 114/114/114
f 120/120/120 112/112/112 115/115/115
f 113/113/113 112/112/112 120/120/120
f 113/113/113 121/121/121 100/100/100
f 121/121/121 91/91/91 100/100/100
f 122/122/122 116/116/116 118/118/118
f 119/119/119 116/116/116 122/122/122
f 119/119/119 123/123/123 115/115/115
f 123/123/123 120/120/120 115/115/115
f 124/124/124 113/113/113 120/120/120
f 121/121/121 113/113/113 124/124/124
f 121/121/121 125/125/125 91/91/91
f 125/125/125 85/85/85 91/91/91
f 125/125/125 90/90/90 85/85/85
f 125/125/125 121/121/121 126/126/126
f 126/126/126 121/121/121 124/124/124
f 127/127/127 124/124/124 120/120/120
f 123/123/123 127/127/127 120/120/120
f 123/123/123 119/119/119 128/128/128
f 128/128/128 119/119/119 122/122/122
f 90/90/90 125/125/125 129/129/129
f 129/129/129 125/125/125 126/126/126
f 130/130/130 126/126/126 124/124/124
f 127/127/127 130/130/130 124/124/124
f 127/127/127 123/123/123 131/131/131
f 131/131/131 123/123/123 128/128/128
f 132/132/132 90/90/90 129/129/129
f 84/84/84 90/90/90 132/132/132
f 129/129/129 126/126/126 133/133/133
f 126/126/126 130/130/130 133/133/133
f 134/134/134 127/127/127 131/131/131
f 130/130/130 127/127/127 134/134/134
f 135/135/135 132/132/132 129/129/129
f 133/133/133 135/135/135 129/129/129
f 136/136/136 84/84/84 132/132/132
f 78/78/78 84/84/84 136/136/136
f 135/135/135 137/137/137 132/132/132
f 137/137/137 136/136/136 132/132/132
f 138/138/138 78/78/78 136/136/136
f 72/72/72 78/78/78 138/138/138
f 137/137/137 139/139/139 136/136/136
f 139/139/139 138/138/138 136/136/136
f 140/140/140 72/72/72 138/138/138
f 66/66/66 72/72/72 140/140/140
f 139/139/139 141/141/141 138/138/138
f 141/141/141 140/140/140 138/138/138
f 142/142/142 66/66/66 140/140/140
f 60/60/60 66/66/66 142/142/142
f 141/141/141 143/143/143 140/140/140
f 143/143/143 142/142/142 140/140/140
f 144/144/144 60/60/60 142/142/142
f 54/54/54 60/60/60 144/144/144
f 143/143/143 145/145/145 142/142/142
f 145/145/145 144/144/144 142/142/142
f 146/146/146 54/54/54 144/144/144
f 48/48/48 54/54/54 146/146/146
f 145/145/145 147/147/147 144/144/144
f 147/147/147 146/146/146 144/144/144
f 148/148/148 48/48/48 146/146/146
f 42/42/42 48/48/48 148/148/148
f 147/147/147 149/149/149 146/146/146
f 149/149/149 148/148/148 146/146/146
f 150/150/150 42/42/42 148/148/148
f 36/36/36 42/42/42 150/150/150
f 149/149/149 151/151/151 148/148/148
f 151/151/151 150/150/150 148/148/148
f 152/152/152 36/36/36 150/150/150
f 26/26/26 36/36/36 152/152/152
f 151/151/151 153/153/153 150/150/150
f 153/153/153 152/152/152 150/150/150
f 154/154/154 26/26/26 152/152/152
f 20/20/20 26/26/26 154/154/154
f 155/155/155 20/20/20 154/154/154
f 156/156/156 155/155/155 154/154/154
f 157/157/157 154/154/154 152/152/152
f 157/157/157 156/156/156 154/154/154
f 153/153/153 157/157/157 152/152/152
f 156/156/156 157/157/157 158/158/158
f 159/159/159 156/156/156 158/158/158
f 160/160/160 159/159/159 158/158/158
f 157/157/157 153/153/153 161/161/161
f 158/158/158 157/157/157 161/161/161
f 153/153/153 151/151/151 162/162/162
f 161/161/161 153/153/153 162/162/162
f 163/163/163 160/160/160 158/158/158
f 163/163/163 158/158/158 161/161/161
f 160/160/160 163/163/163 164/164/164
f 165/165/165 160/160/160 164/164/164
f 164/164/164 163/163/163 166/166/166
f 167/167/167 163/163/163 161/161/161
f 163/163/163 167/167/167 166/166/166
f 167/167/167 161/161/161 162/162/162
f 166/166/166 167/167/167 168/168/168
f 167/167/167 169/169/169 168/168/168
f 169/169/169 167/167/167 162/162/162
f 168/168/168 169/169/169 170/170/170
f 162/162/162 151/151/151 171/171/171
f 169/169/169 162/162/162 171/171/171
f 151/151/151 149/149/149 171/171/171
f 169/169/169 172/172/172 170/170/170
f 172/172/172 169/169/169 171/171/171
f 170/170/170 172/172/172 173/173/173
f 171/171/171 149/149/149 174/174/174
f 172/172/172 171/171/171 174/174/174
f 149/149/149 147/147/147 174/174/174
f 172/172/172 175/175/175 173/173/173
f 175/175/175 172/172/172 174/174/174
f 173/173/173 175/175/175 176/176/176
f 174/174/174 147/147/147 177/177/177
f 175/175/175 174/174/174 177/177/177
f 147/147/147 145/145/145 177/177/177
f 175/175/175 178/178/178 176/176/176
f 178/178/178 175/175/175 177/177/177
f 176/176/176 178/178/178 179/179/179
f 177/177/177 145/145/145 180/180/180
f 178/178/178 177/177/177 180/180/180
f 145/145/145 143/143/143 180/180/180
f 178/178/178 181/181/181 179/179/179
f 181/181/181 178/178/178 180/180/180
f 179/179/179 181/181/181 182/182/182
f 180/180/180 143/143/143 183/183/183
f 181/181/181 180/180/180 183/183/183
f 143/143/143 141/141/141 183/183/183
f 181/181/181 184/184/184 182/182/182
f 184/184/184 181/181/181 183/183/183
f 182/182/182 184/184/184 185/185/185
f 183/183/183 141/141/141 186/186/186
f 184/184/184 183/183/183 186/186/186
f 141/141/141 139/139/139 186/186/186
f 184/184/184 187/187/187 185/185/185
f 187/187/187 184/184/184 186/186/186
f 185/185/185 187/187/187 188/188/188
f 186/186/186 139/139/139 189/189/189
f 187/187/187 186/186/186 189/189/189
f 139/139/139 137/137/137 189/189/189
f 187/187/187 190/190/190 188/188/188
f 190/190/190 187/187/187 189/189/189
f 188/188/188 190/190/190 191/191/191
f 189/189/189 137/137/137 192/192/192
f 190/190/190 189/189/189 192/192/192
f 137/137/137 135/135/135 192/192/192
f 190/190/190 193/193/193 191/191/191
f 193/193/193 190/190/190 192/192/192
f 191/191/191 193/193/193 194/194/194
f 192/192/192 135/135/135 195/195/195
f 193/193/193 192/192/192 195/195/195
f 135/135/135 133/133/133 195/195/195
f 193/193/193 196/196/196 194/194/194
f 196/196/196 193/193/193 195/195/195
f 194/194/194 196/196/196 197/197/197
f 195/195/195 133/133/133 198/198/198
f 195/195/195 198/198/198 196/196/196
f 198/198/198 133/133/133 130/130/130
f 196/196/196 199/199/199 197/197/197
f 199/199/199 196/196/196 198/198/198
f 197/197/197 199/199/199 200/200/200
f 201/201/201 198/198/198 130/130/130
f 201/201/201 199/199/199 198/198/198
f 201/201/201 130/130/130 134/134/134
f 199/199/199 201/201/201 134/134/134
f 199/199/199 202/202/202 200/200/200
f 202/202/202 199/199/199 134/134/134
f 200/200/200 202/202/202 203/203/203
f 202/202/202 134/134/134 131/131/131
f 202/202/202 204/204/204 203/203/203
f 204/204/204 202/202/202 131/131/131
f 203/203/203 204/204/204 205/205/205
f 204/204/204 131/131/131 128/128/128
f 204/204/204 206/206/206 205/205/205
f 206/206/206 204/204/204 128/128/128
f 205/205/205 206/206/206 207/207/207
f 206/206/206 128/128/128 122/122/122
f 206/206/206 208/208/208 207/207/207
f 208/208/208 206/206/206 122/122/122
f 207/207/207 208/208/208 209/209/209
f 208/208/208 122/122/122 118/118/118
f 208/208/208 210/210/210 209/209/209
f 210/210/210 208/208/208 118/118/118
