g O_build_kushu_2
v 0.119604491 -0.044765234 0.00784912053
v 0.110859066 -0.0447651483 0.125044554
v 0.134507447 0.32820946 0.040007323
v 0.114784852 0.366698116 0.127349243
v -0.0158468615 -0.0447651483 0.200125113
v 0.13687256 0.383736104 0.0969879106
v 0.143031314 0.366805077 0.0459606908
v 0.101184994 0.435884327 0.133349001
v 0.128357545 0.439954251 0.113475949
v 0.116654657 0.481317878 0.0830688477
v 0.0150961298 0.388189882 0.184805289
v 0.106550291 0.500512779 0.121764526
v 0.119816586 0.499440402 0.0330395512
v -0.0916989148 0.394006491 0.129942015
v -0.148244932 -0.044765193 0.131130978
v 0.0974752754 0.697932541 0.132108763
v 0.0809783936 0.957968354 -0.0148455808
v 0.0259799194 0.63243556 0.189165041
v 0.0862338245 0.788817883 0.125238642
v -0.0898117051 0.690748632 0.123812862
v -0.0991513059 0.384429365 0.00728088384
v -0.154071346 -0.0447652005 -0.0279553216
v 0.0750119016 1.08863199 0.0896630809
v 0.0749096647 1.32055819 -0.0203112792
v 0.0182727054 0.827380478 0.15930298
v 0.0710629225 1.33101773 0.0639184564
v 0.0888775587 1.41325629 -0.0239404291
v 0.0816043094 1.44276166 0.0615899637
v -0.0157562252 1.10708308 0.136117548
v 0.00598846423 0.365361243 -0.046585694
v -0.00284698489 0.852519035 -0.0658105463
v -0.11447601 0.860965729 -0.0272582993
v -0.004701233 -0.0447652191 -0.0890338123
v -0.00968566909 1.32539308 0.12236999
v -0.0766781569 0.940059483 -0.083713986
v -0.060187377 1.00958383 -0.0690161139
v -0.0993881226 0.823787391 0.128843993
v -0.0571334809 0.78878361 0.150999755
v -0.0988803059 0.958054304 0.1038092
v -0.145895079 0.962280273 0.0258776844
v -0.142492369 1.02891028 0.025761107
v -0.11183136 1.10178864 0.0835870355
v -0.115823664 1.07794404 -0.0273150634
v -0.0198138431 1.04941928 -0.0753344744
v -0.117755428 1.32218981 -0.0410174541
v -0.127965391 1.32610643 0.0508489981
v -0.00880401582 1.3221066 -0.0919812024
v 0.0809783936 0.957968354 -0.0148455808
v 0.0749096647 1.32055819 -0.0203112792
v 0.119816586 0.499440402 0.0330395512
v 0.0888775587 1.41325629 -0.0239404291
v 0.0774954185 0.452174872 -0.030530395
v 0.123590082 0.448432595 -0.0124609368
v 0.132842705 0.387980193 0.00146484375
v -0.00107421877 1.45362985 -0.0820629895
v 0.0553970337 1.48963416 -0.0761834681
v 0.0631115735 1.56412137 -0.0642010495
v 0.0947073326 0.381802827 -0.0154199218
v 0.134507447 0.32820946 0.040007323
v 0.143031314 0.366805077 0.0459606908
v 0.119604491 -0.044765234 0.00784912053
v -0.0831912234 1.52881873 -0.0392114259
v 0.0180886835 1.6173054 -0.077860713
v 0.0948410034 1.6184175 -0.0301306155
v 0.125764459 1.99920237 -0.0397259519
v 0.0554275513 2.0233469 -0.06727539
v 0.131492913 2.1740973 -0.0469122306
v -0.0816207901 1.52998364 0.0608612038
v 0.00330688478 2.01774573 -0.0239550769
v 0.0673733503 2.1762476 -0.0592291243
v 0.0335809328 2.93630552 -0.0106121823
v 0.00944244396 2.93716049 -0.0298718251
v -0.0225231927 2.93717074 -0.0159960929
v 0.029842224 2.16781616 -0.0298645012
v -0.00573242176 1.95059693 0.0550201386
v 0.00694152806 1.53699541 0.108138427
v 0.0243341066 2.16890001 0.0245031733
v -0.0186636355 2.93733358 0.0189855956
v 0.0116580194 2.93705225 0.0291406251
v 0.017214356 2.05734038 0.0422601327
v -0.00234130863 2.01971388 0.0451409891
v 0.00428009033 1.98577464 0.0792633072
v 0.0697738603 2.152771 0.0680841058
v 0.0530465692 2.06690669 0.0724023432
v 0.0600567609 1.93789482 0.0873669386
v 0.0401785262 1.98215783 0.100023799
v 0.0869168043 2.01246428 0.0866516083
v 0.146050721 2.16563034 0.0397796631
v 0.03173187 2.93597507 0.0140130613
v 0.134534597 2.02058578 0.0464880355
v 0.131492913 2.1740973 -0.0469122306
v 0.0335809328 2.93630552 -0.0106121823
v 0.125764459 1.99920237 -0.0397259519
v 0.0972512811 1.62119782 0.0586309806
v 0.0948410034 1.6184175 -0.0301306155
v 0.0979562327 1.54906583 0.0319543444
v 0.082345888 1.53369081 0.0688207969
v -0.134394839 0.905246258 -0.0423242189
v -0.11447601 0.860965729 -0.0272582993
v -0.0766781569 0.940059483 -0.083713986
v -0.47349152 1.27379942 -0.230471179
v -0.433197916 1.30591881 -0.263090819
v -0.060187377 1.00958383 -0.0690161139
v -0.477094412 1.32579434 -0.273447245
v -0.511429131 1.30047524 -0.246961057
v -0.407874435 1.35605752 -0.239400625
v -0.115823664 1.07794404 -0.0273150634
v -0.413354784 1.36835444 -0.187162474
v -0.466186196 1.36853921 -0.259387821
v -0.446705014 1.35086846 -0.157769158
v -0.142492369 1.02891028 0.025761107
v -0.478230268 1.28377771 -0.177847892
v -0.145895079 0.962280273 0.0258776844
v -0.503011167 1.3575511 -0.196826771
v -0.660259664 1.40656745 -0.355962515
v -0.682431936 1.38726091 -0.329534292
v -0.849693894 1.69774818 -0.421972632
v -0.839910567 1.70646918 -0.430404663
v -0.646029353 1.43092752 -0.340593249
v -0.831658602 1.72181368 -0.423250109
v -0.497775555 1.38132942 -0.228196412
v -0.656435847 1.44006848 -0.315078735
v -0.834443033 1.72496247 -0.408283681
v -0.84640348 1.7162075 -0.399666131
v -0.668464065 1.42807817 -0.297041625
v -0.853995025 1.70150399 -0.409481794
v -0.516228318 1.31011939 -0.207334593
v -0.687992215 1.40349829 -0.30110535
v -0.849693894 1.69774818 -0.421972632
v -0.682431936 1.38726091 -0.329534292
v -0.511429131 1.30047524 -0.246961057
v -0.47349152 1.27379942 -0.230471179
v -0.134394839 0.905246258 -0.0423242189
v -0.11447601 0.860965729 -0.0272582993
v 0.0888775587 1.41325629 -0.0239404291
v 0.139570311 1.47872543 -0.0341717526
v 0.0553970337 1.48963416 -0.0761834681
v 0.0980267301 1.51869142 -0.0792218
v 0.0631115735 1.56412137 -0.0642010495
v 0.362516791 1.64246345 -0.116603389
v 0.394577324 1.62259316 -0.0794134513
v 0.490723252 2.07291079 -0.11303772
v 0.0881582648 1.56571102 -0.0685406476
v 0.0948410034 1.6184175 -0.0301306155
v 0.334481508 1.67769897 -0.103103027
v 0.104214169 1.59490657 -0.0232342519
v 0.0979562327 1.54906583 0.0319543444
v 0.46310392 2.07408285 -0.142880246
v 0.575257242 2.47375345 -0.129334718
v 0.591084599 2.46550918 -0.10686706
v 0.431896955 2.08517981 -0.129185185
v 0.54869628 2.48696184 -0.1222229
v 0.332735896 1.69038188 -0.0713604689
v 0.428730756 2.08578277 -0.0989831537
v 0.544368863 2.49142838 -0.0996295139
v 0.44992277 2.09088135 -0.0762225315
v 0.559010923 2.48823023 -0.0811279267
v 0.583133519 2.47533894 -0.0844457969
v 0.355296314 1.67130458 -0.0315570049
v 0.4806436 2.07491469 -0.081514284
v 0.591084599 2.46550918 -0.10686706
v 0.490723252 2.07291079 -0.11303772
v 0.390516043 1.63664734 -0.0422949195
v 0.394577324 1.62259316 -0.0794134513
v 0.139570311 1.47872543 -0.0341717526
v 0.130151674 1.49111772 0.0213671867
v 0.0816043094 1.44276166 0.0615899637
v 0.0888775587 1.41325629 -0.0239404291
v 0.0335809328 2.93630552 -0.0106121823
v 0.03173187 2.93597507 0.0140130613
v 0.0116580194 2.93705225 0.0291406251
v -0.0186636355 2.93733358 0.0189855956
v -0.0225231927 2.93717074 -0.0159960929
v 0.00944244396 2.93716049 -0.0298718251
v 0.507599175 1.07409847 0.0309350584
v 0.517348945 1.06900668 0.0181585681
v 0.509301126 1.07476056 0.0461083986
v 0.53289336 1.06052399 0.0182769764
v 0.520930767 1.06870186 0.0574005097
v 0.543672502 1.05577075 0.0339831524
v 0.536217928 1.05743825 0.0546008274
v 0.0951840207 1.55002987 0.651314676
v 0.11416778 1.55463195 0.63890928
v 0.0953573585 1.539505 0.671064436
v 0.135042116 1.54700983 0.645523667
v 0.138407588 1.53520048 0.668195784
v 0.116436459 1.53190744 0.681716323
v -0.605840147 2.65722823 -0.274779052
v -0.584114075 2.66280723 -0.263186634
v -0.624303877 2.65238667 -0.261754155
v -0.580054641 2.65951872 -0.239899293
v -0.601116002 2.65468049 -0.225350946
v -0.624641418 2.65084291 -0.239882201
v -0.849693894 1.69774818 -0.421972632
v -0.839910567 1.70646918 -0.430404663
v -0.853995025 1.70150399 -0.409481794
v -0.84640348 1.7162075 -0.399666131
v -0.831658602 1.72181368 -0.423250109
v -0.834443033 1.72496247 -0.408283681
v 0.0401785262 1.98215783 0.100023799
v 0.00428009033 1.98577464 0.0792633072
v -0.0564126559 2.19924593 0.276425779
v -0.0838626102 2.19958496 0.262090445
v -0.0805685371 2.51851225 0.309066772
v -0.0979482979 2.51974034 0.301046133
v -0.0906747431 2.21450043 0.235881954
v -0.00234130863 2.01971388 0.0451409891
v -0.101874083 2.52450085 0.287309557
v 0.017214356 2.05734038 0.0422601327
v -0.0737536624 2.23018861 0.223428339
v -0.0885000601 2.53481221 0.276627183
v 0.0530465692 2.06690669 0.0724023432
v -0.0454031378 2.23159695 0.22784546
v -0.0711788908 2.53498244 0.28157714
v -0.0666433722 2.52645802 0.300213605
v -0.0318582132 2.21818781 0.26463744
v 0.0869168043 2.01246428 0.0866516083
v -0.0805685371 2.51851225 0.309066772
v 0.0401785262 1.98215783 0.100023799
v -0.0564126559 2.19924593 0.276425779
v -0.0805685371 2.51851225 0.309066772
v -0.0979482979 2.51974034 0.301046133
v -0.101874083 2.52450085 0.287309557
v -0.0666433722 2.52645802 0.300213605
v -0.0711788908 2.53498244 0.28157714
v -0.0885000601 2.53481221 0.276627183
v 0.591084599 2.46550918 -0.10686706
v 0.583133519 2.47533894 -0.0844457969
v 0.575257242 2.47375345 -0.129334718
v 0.559010923 2.48823023 -0.0811279267
v 0.54869628 2.48696184 -0.1222229
v 0.544368863 2.49142838 -0.0996295139
v -0.0898117051 0.690748632 0.123812862
v 0.038964536 0.682608306 0.219560549
v 0.0259799194 0.63243556 0.189165041
v -0.0602941886 0.728699088 0.175098255
v -0.0571334809 0.78878361 0.150999755
v 0.031397704 0.97913295 0.508007824
v 0.0838275105 0.941817999 0.528137803
v 0.116436459 1.53190744 0.681716323
v 0.0953573585 1.539505 0.671064436
v 0.0390917957 1.00606287 0.462503642
v 0.0951840207 1.55002987 0.651314676
v 0.0182727054 0.827380478 0.15930298
v 0.0776473954 1.02240193 0.448082268
v 0.11416778 1.55463195 0.63890928
v 0.135042116 1.54700983 0.645523667
v 0.118527524 1.00766528 0.452291846
v 0.0862338245 0.788817883 0.125238642
v 0.138407588 1.53520048 0.668195784
v 0.098462522 0.738499224 0.178524777
v 0.0974752754 0.697932541 0.132108763
v 0.0259799194 0.63243556 0.189165041
v 0.038964536 0.682608306 0.219560549
v 0.0838275105 0.941817999 0.528137803
v 0.139122307 0.978524208 0.481796861
v 0.116436459 1.53190744 0.681716323
v 0.143031314 0.366805077 0.0459606908
v 0.381822199 0.504051745 0.0419006348
v 0.372082204 0.510406613 0.00908264145
v 0.132842705 0.387980193 0.00146484375
v 0.543672502 1.05577075 0.0339831524
v 0.53289336 1.06052399 0.0182769764
v 0.123590082 0.448432595 -0.0124609368
v 0.348102093 0.541419566 -0.00476196269
v 0.517348945 1.06900668 0.0181585681
v 0.315361917 0.560869217 0.0323071294
v 0.507599175 1.07409847 0.0309350584
v 0.119816586 0.499440402 0.0330395512
v 0.509301126 1.07476056 0.0461083986
v 0.325992733 0.55436492 0.0732342526
v 0.116654657 0.481317878 0.0830688477
v 0.520930767 1.06870186 0.0574005097
v 0.128357545 0.439954251 0.113475949
v 0.353244305 0.539345205 0.0855377167
v 0.536217928 1.05743825 0.0546008274
v 0.373115838 0.515559733 0.0727929696
v 0.13687256 0.383736104 0.0969879106
v 0.543672502 1.05577075 0.0339831524
v 0.143031314 0.366805077 0.0459606908
v 0.381822199 0.504051745 0.0419006348
v -0.51703459 1.93985653 -0.202438965
v -0.497775555 1.38132942 -0.228196412
v -0.488077074 1.94696784 -0.230127558
v -0.623484194 2.25001526 -0.269760132
v -0.466186196 1.36853921 -0.259387821
v -0.602967799 2.25533867 -0.28686583
v -0.624303877 2.65238667 -0.261754155
v -0.605840147 2.65722823 -0.274779052
v -0.575568557 2.27129793 -0.275283813
v -0.584114075 2.66280723 -0.263186634
v -0.412164003 1.40278852 -0.235640258
v -0.407874435 1.35605752 -0.239400625
v -0.413354784 1.36835444 -0.187162474
v -0.573395669 2.2750473 -0.248893425
v -0.580054641 2.65951872 -0.239899293
v -0.601116002 2.65468049 -0.225350946
v -0.442974538 1.96441388 -0.207125843
v -0.419684142 1.40826142 -0.188371584
v -0.59385097 2.27131033 -0.228499755
v -0.624641418 2.65084291 -0.239882201
v -0.446524352 1.97255707 -0.172285765
v -0.44990021 1.40067101 -0.1608551
v -0.446705014 1.35086846 -0.157769158
v -0.503011167 1.3575511 -0.196826771
v -0.517337322 1.94870734 -0.167831421
v -0.497775555 1.38132942 -0.228196412
v -0.51703459 1.93985653 -0.202438965
v -0.623484194 2.25001526 -0.269760132
v -0.488848567 1.96218216 -0.147797242
v -0.625578284 2.25811791 -0.242763057
v -0.624303877 2.65238667 -0.261754155
vt 0.269057035 0.0143176615
vt 0.23290062 0.0231797695
vt 0.264782369 0.133751512
vt 0.237340182 0.153574944
vt 0.192872852 0.0308094025
vt 0.251236081 0.156842113
vt 0.267290443 0.144121289
vt 0.232703358 0.178384304
vt 0.244202763 0.178632975
vt 0.248101115 0.197588146
vt 0.19805488 0.163175762
vt 0.233740717 0.20072639
vt 0.261658907 0.207754642
vt 0.155706227 0.164054573
vt 0.153475583 0.0286151767
vt 0.216595173 0.266336203
vt 0.242569745 0.357459366
vt 0.19372797 0.240417033
vt 0.210988969 0.295846313
vt 0.150611013 0.258850217
vt 0.112443775 0.160386294
vt 0.112544447 0.0248199701
vt 0.200178474 0.393257976
vt 0.220769286 0.470529586
vt 0.185208827 0.307534128
vt 0.193316787 0.472606152
vt 0.221048653 0.498669177
vt 0.192578673 0.511897802
vt 0.166399717 0.396936238
vt 0.0719336867 0.151657611
vt 0.0615269244 0.305715621
vt 0.10062471 0.312650979
vt 0.0701114237 0.0188900828
vt 0.162567705 0.468367338
vt 0.0791958272 0.334941268
vt 0.0747115612 0.358400047
vt 0.150007814 0.301913142
vt 0.165136635 0.29108429
vt 0.141347378 0.346778512
vt 0.114536524 0.348165005
vt 0.112032682 0.36891523
vt 0.130831242 0.393794388
vt 0.0942254663 0.383639932
vt 0.0607464314 0.369694203
vt 0.0890024304 0.460669726
vt 0.118176579 0.463698596
vt 0.0519952774 0.458455831
vt 0.0265510678 0.334908009
vt 0.0173853338 0.454380453
vt 0.02006042 0.19051674
vt 0.0163213611 0.485837936
vt 0.0450436473 0.176048011
vt 0.0286102593 0.172071189
vt 0.0246572495 0.152963966
vt 0.0519236624 0.502318561
vt 0.034437567 0.514522254
vt 0.0351394117 0.539614677
vt 0.0392350554 0.153630227
vt 0.0218746066 0.132833987
vt 0.0143151581 0.13929683
vt 0.0233239532 0.0144408941
vt 0.0867311954 0.524386406
vt 0.0533524156 0.55519253
vt 0.0243051946 0.55894345
vt 0.0287650228 0.680193782
vt 0.0536685288 0.685455084
vt 0.0318052173 0.732790828
vt 0.120946258 0.527304769
vt 0.0750955343 0.681841791
vt 0.0526756644 0.734492779
vt 0.0280455053 0.979133368
vt 0.0378932953 0.979703188
vt 0.0489024818 0.980516911
vt 0.0684591532 0.732515156
vt 0.10286507 0.661453307
vt 0.153906256 0.536348999
vt 0.0863627791 0.73439455
vt 0.059998095 0.981615067
vt 0.0701200664 0.982038379
vt 0.0981090665 0.70579648
vt 0.0951766372 0.685421944
vt 0.105989546 0.674373984
vt 0.107364833 0.732722402
vt 0.110537559 0.705955386
vt 0.126634121 0.665011287
vt 0.117379636 0.676484525
vt 0.125054389 0.690987825
vt 0.132543087 0.741555035
vt 0.078076452 0.983025193
vt 0.142609119 0.699549615
vt 0.158892542 0.752578855
vt 0.0855313838 0.985682368
vt 0.17105189 0.701292455
vt 0.176057607 0.573830485
vt 0.203482598 0.58266139
vt 0.191779524 0.553823709
vt 0.181044012 0.543735504
vt 0.653597832 0.0436167419
vt 0.660185158 0.0296529233
vt 0.630005479 0.039150387
vt 0.618046403 0.204460919
vt 0.600501835 0.200982451
vt 0.608417809 0.0450001657
vt 0.595879078 0.215579718
vt 0.610466719 0.220080823
vt 0.583940566 0.197910875
vt 0.584006906 0.0626426637
vt 0.570466995 0.19136557
vt 0.580951929 0.214420021
vt 0.557576895 0.193462014
vt 0.563352287 0.0506494343
vt 0.53661406 0.191589922
vt 0.548062384 0.0370084643
vt 0.554974914 0.211869627
vt 0.581211865 0.278583407
vt 0.593203545 0.278812021
vt 0.569313526 0.381965727
vt 0.564649642 0.382475197
vt 0.571677327 0.277623475
vt 0.559213281 0.383816093
vt 0.566360295 0.218573719
vt 0.562462807 0.27796936
vt 0.55462873 0.383485585
vt 0.549742222 0.382142186
vt 0.55502522 0.275614113
vt 0.544322193 0.3803128
vt 0.538922071 0.209418654
vt 0.54560256 0.274762005
vt 0.540203631 0.379878372
vt 0.535593212 0.273641646
vt 0.526816547 0.212100297
vt 0.520888448 0.195464402
vt 0.521796346 0.0296670198
vt 0.519981325 0.0143176615
vt 0.269651532 0.0265496671
vt 0.284726411 0.0490344167
vt 0.301329613 0.025239259
vt 0.307239085 0.0415138304
vt 0.321265757 0.0334682763
vt 0.313687503 0.13133046
vt 0.296781182 0.132082462
vt 0.307504922 0.272142291
vt 0.322603405 0.0416649878
vt 0.337285042 0.0378066599
vt 0.327656806 0.134403348
vt 0.34003064 0.043628782
vt 0.359841526 0.0394051969
vt 0.320547283 0.269738376
vt 0.325588465 0.405804992
vt 0.316168725 0.405230731
vt 0.332051963 0.270136118
vt 0.335524529 0.407297879
vt 0.338976741 0.135635465
vt 0.341752201 0.269574165
vt 0.343176365 0.408212632
vt 0.351423264 0.27249074
vt 0.350994349 0.408422917
vt 0.359833926 0.406472057
vt 0.354945302 0.133679628
vt 0.36251089 0.270234466
vt 0.367978245 0.404215306
vt 0.373317063 0.271304458
vt 0.37007153 0.132273287
vt 0.383030117 0.132374555
vt 0.398392022 0.0478720963
vt 0.380953312 0.0406500399
vt 0.383767247 0.0143176615
vt 0.410329282 0.0249718428
vt 0.438450038 0.0213286877
vt 0.427765489 0.0143176615
vt 0.415222704 0.0178024173
vt 0.409836233 0.0334471166
vt 0.42297706 0.0460532308
vt 0.438746959 0.0373110771
vt 0.332097769 0.0355308354
vt 0.340746284 0.0343934298
vt 0.325865567 0.0306630433
vt 0.345741481 0.0267115533
vt 0.324724078 0.0217815936
vt 0.342292994 0.0171560347
vt 0.33127594 0.0143176615
vt 0.607395351 0.0394401848
vt 0.61834693 0.034601301
vt 0.597584009 0.0332893133
vt 0.619932532 0.0227093995
vt 0.609561026 0.0143176615
vt 0.597583532 0.0204519331
vt 0.596658945 0.0346587598
vt 0.59695226 0.0215970576
vt 0.586012244 0.0401013196
vt 0.586977065 0.0143176615
vt 0.575053871 0.0206054747
vt 0.575862885 0.035027951
vt 0.629541874 0.0318155587
vt 0.63576746 0.0266905129
vt 0.622789085 0.029601872
vt 0.620113254 0.0200129449
vt 0.634487987 0.0170292556
vt 0.626915336 0.0143176615
vt 0.985509753 0.346114069
vt 0.984845638 0.331252009
vt 0.881838918 0.342954278
vt 0.881988645 0.331849873
vt 0.771918058 0.335255504
vt 0.771836698 0.328381658
vt 0.880372226 0.321154654
vt 0.98237896 0.314330816
vt 0.770919323 0.323143899
vt 0.974887431 0.301307917
vt 0.877890766 0.312435448
vt 0.768085599 0.316808611
vt 0.967910171 0.286420941
vt 0.878113389 0.301810086
vt 0.767807841 0.310556591
vt 0.769221306 0.303394675
vt 0.876104474 0.287188947
vt 0.979237199 0.266418874
vt 0.770113587 0.297000736
vt 0.973778605 0.247166008
vt 0.87653923 0.275677115
vt 0.713685811 0.0178902745
vt 0.712735236 0.0277694762
vt 0.718231976 0.0332914889
vt 0.722463071 0.0143176615
vt 0.730574608 0.0215388834
vt 0.728202701 0.0305537879
vt 0.569664955 0.0152954459
vt 0.556382358 0.0143176615
vt 0.57461834 0.0292915106
vt 0.547517598 0.0254823267
vt 0.563504219 0.0404989123
vt 0.551895082 0.0369985402
vt 0.412772 0.344458938
vt 0.379863352 0.307534903
vt 0.372286737 0.324774593
vt 0.413396358 0.32234773
vt 0.433087349 0.319695652
vt 0.435997605 0.191160768
vt 0.415001392 0.191262513
vt 0.459293276 0.0143176615
vt 0.467011303 0.0150633752
vt 0.452182293 0.194147021
vt 0.473914653 0.0148218572
vt 0.456386745 0.308133513
vt 0.4665007 0.19240582
vt 0.48102054 0.0149607658
vt 0.487941086 0.0166425109
vt 0.480407089 0.195080161
vt 0.477961451 0.322802067
vt 0.495783359 0.0180023015
vt 0.500035882 0.318490893
vt 0.500819147 0.338048995
vt 0.536045253 0.337821066
vt 0.528893888 0.320273191
vt 0.519515395 0.199549377
vt 0.494513869 0.197414815
vt 0.503902197 0.017657131
vt 0.735921502 0.0143176615
vt 0.736999631 0.101148844
vt 0.749186218 0.102074772
vt 0.753389239 0.0155932307
vt 0.722748458 0.293084025
vt 0.72955972 0.294222623
vt 0.773332655 0.0249297619
vt 0.761484563 0.107673466
vt 0.735394716 0.296205074
vt 0.780193329 0.109663069
vt 0.740950227 0.297879577
vt 0.792625546 0.0338808894
vt 0.745990872 0.299391687
vt 0.795655489 0.112995028
vt 0.809150934 0.0324547887
vt 0.751907825 0.300167292
vt 0.825789332 0.0328815281
vt 0.806499004 0.116900146
vt 0.758560896 0.300087184
vt 0.817520916 0.117310911
vt 0.846424282 0.0316198766
vt 0.765746951 0.302941084
vt 0.864305735 0.0373910666
vt 0.829135895 0.119935155
vt 0.638993979 0.254490614
vt 0.630126417 0.438203901
vt 0.652258575 0.254171044
vt 0.653072059 0.144263536
vt 0.644164324 0.443894088
vt 0.661982417 0.144053251
vt 0.664231539 0.0164031982
vt 0.671726465 0.0156139433
vt 0.672591209 0.141391158
vt 0.679785967 0.0143176615
vt 0.664173126 0.433972925
vt 0.663386464 0.449472129
vt 0.67982018 0.444967389
vt 0.681513786 0.141401172
vt 0.687364101 0.0156073868
vt 0.695568025 0.0173550844
vt 0.669042587 0.25222078
vt 0.679980993 0.431805462
vt 0.691305518 0.142234981
vt 0.704452872 0.0188207626
vt 0.680271387 0.250354618
vt 0.693666756 0.433498353
vt 0.693839967 0.450058013
vt 0.715271413 0.446575701
vt 0.707661152 0.254019916
vt 0.725818515 0.438905567
vt 0.719020784 0.255815148
vt 0.712274194 0.146024436
vt 0.696092904 0.251865506
vt 0.703209996 0.144346178
vt 0.711589515 0.0184569359
vn 0.866607487 0.00838922244 -0.498919904
vn 0.7943663 -0.0256451294 0.606897473
vn 0.883035898 0.0117658461 -0.469157934
vn 0.697170138 -0.0117276963 0.716809809
vn -0.0158820897 0.0335541591 0.999310732
vn 0.840957403 -0.22601749 0.491636693
vn 0.976986706 -0.210002512 -0.0373623818
vn 0.546253979 0.0865957737 0.833131254
vn 0.549554527 0.239382014 0.800428689
vn 0.95061481 0.168534696 0.260629028
vn -0.0297691375 0.023110019 0.999289632
vn 0.790966392 -0.00429695239 0.611844599
vn 0.916840971 0.0908920318 -0.388768971
vn -0.834851861 0.0694337562 0.546078146
vn -0.851873338 0.109116629 0.512255132
vn 0.985251069 0.0781575069 0.152222157
vn 0.8823331 0.0169334617 -0.470320731
vn -0.050858032 0.00200138846 0.998703837
vn 0.916888177 0.114151791 0.382472754
vn -0.948462784 -0.0166564044 0.316450447
vn -0.858272433 0.0606834963 -0.509593904
vn -0.847832799 0.141205773 -0.511116803
vn 0.893238008 0.0718277246 0.443809181
vn 0.878764272 -0.0520762764 -0.474406332
vn 0.166418806 0.124954149 0.978106022
vn 0.856763542 0.000762872398 0.515708804
vn 0.832149982 -0.110818014 -0.543365121
vn 0.684029222 -0.0247115847 0.729035914
vn 0.0249904767 0.0950314254 0.99516052
vn -0.0582509972 0.0428273752 -0.99738282
vn 0.176529035 -0.067785196 -0.981958568
vn -0.810394406 -0.120058201 -0.573451757
vn 0.0900229141 0.0917615891 -0.991703391
vn -0.0884242281 0.0670210719 0.993825555
vn 0.0583240278 -0.152598038 -0.986565888
vn -0.11534261 0.0530617088 -0.991907597
vn -0.879575014 0.0371113531 0.474310577
vn -0.400255501 0.0938330814 0.911587059
vn -0.640220225 0.0108861998 0.768114328
vn -0.823102236 -0.303297162 0.480118185
vn -0.931451857 0.144166052 0.334086061
vn -0.813871443 0.059598878 0.57798028
vn -0.818111181 0.0177314132 -0.574786544
vn 0.239777431 -0.0111706713 -0.970763624
vn -0.800415277 0.0210513715 -0.599076211
vn -0.858055651 0.0759525001 0.50790906
vn 0.0999861509 -0.0326976515 -0.994451463
vn 0.8823331 0.0169334617 -0.470320731
vn 0.878764272 -0.0520762764 -0.474406332
vn 0.916840971 0.0908920318 -0.388768971
vn 0.832149982 -0.110818014 -0.543365121
vn 0.449826717 0.0167547371 -0.892958641
vn 0.370224565 0.273379683 -0.887804747
vn 0.48558709 -0.308739126 -0.817854047
vn -0.129914895 0.0326743834 -0.990986526
vn 0.197840631 -0.15218994 -0.968347669
vn 0.331590772 0.0669720024 -0.941043198
vn 0.382824153 -0.334235817 -0.861238599
vn 0.883035898 0.0117658461 -0.469157934
vn 0.976986706 -0.210002512 -0.0373623818
vn 0.866607487 0.00838922244 -0.498919904
vn -0.863016307 0.16843991 -0.476267815
vn -0.138486996 0.0614065081 -0.988458693
vn 0.861184239 -0.0654538274 -0.504061043
vn 0.824824333 -0.0623241179 -0.561943471
vn -0.122596286 0.0315655991 -0.991954505
vn 0.804556549 0.106866784 -0.584181845
vn -0.841292322 0.163776636 0.51517427
vn -0.867721498 0.1388354 -0.477267355
vn -0.15725714 0.036896944 -0.986868262
vn 0.863987565 0.110797308 -0.491171569
vn 0.0682797283 0.0436524376 -0.996710777
vn -0.879017949 -0.0337153412 -0.475595146
vn -0.888536453 -0.023313757 -0.45821321
vn -0.910698295 0.150791347 0.384565473
vn -0.141035885 0.0665948913 0.987762094
vn -0.914194047 -0.0244957451 0.40453589
vn -0.80553627 -0.040829327 0.591138244
vn 0.0516362302 0.046228189 0.99759537
vn -0.949077904 0.205019265 0.239203557
vn -0.982851863 0.177858919 -0.0486675613
vn -0.735409379 -0.236597151 0.634976268
vn -0.0786687955 0.0477387384 0.995757163
vn 0.113082565 0.10552486 0.987966001
vn 0.156993806 0.0120914364 0.987525582
vn -0.0246848445 -0.285077751 0.958186567
vn 0.603136122 0.0731452629 0.79427743
vn 0.859452128 0.106087692 0.50008744
vn 0.88990289 0.134880692 0.435752273
vn 0.946262956 -0.0527021922 0.319074869
vn 0.804556549 0.106866784 -0.584181845
vn 0.863987565 0.110797308 -0.491171569
vn 0.824824333 -0.0623241179 -0.561943471
vn 0.811678171 -0.0467016436 0.582234919
vn 0.861184239 -0.0654538274 -0.504061043
vn 0.980791509 -0.0404923894 0.190809771
vn 0.628351271 -0.0377640314 0.777012587
vn -0.635774195 -0.700722456 -0.323696226
vn -0.769546092 -0.486797661 -0.413311988
vn 0.0653297678 -0.384659886 -0.920743525
vn -0.481305391 -0.731940448 -0.482294768
vn 0.219883978 -0.231009796 -0.947779298
vn 0.63130784 0.265072912 -0.728825569
vn 0.21788457 -0.320658416 -0.921794176
vn -0.304713398 -0.880060911 -0.364201099
vn 0.687498569 0.422293991 -0.590773582
vn 0.591554999 0.754646659 0.283850551
vn 0.577890813 0.758226097 0.301886499
vn 0.472115278 0.522215128 -0.710210145
vn -0.244258642 0.303751618 0.92090857
vn -0.265051097 0.281962603 0.922087312
vn -0.711110651 -0.35571894 0.606453359
vn -0.761851072 -0.441580623 0.473908782
vn -0.463755369 0.196514845 0.863893926
vn -0.00747331092 -0.369006693 -0.929396689
vn -0.610565603 -0.714504182 -0.341604143
vn -0.647562027 -0.515738547 -0.560960889
vn 0.257466972 -0.0908695161 -0.96200496
vn 0.686595321 0.467946887 -0.556428492
vn 0.818221509 0.399184823 -0.413721055
vn 0.188865438 0.94258821 0.275422126
vn 0.58335346 0.729559362 0.35698992
vn 0.652544558 0.570772231 0.498402029
vn -0.159940347 0.22877863 0.960249603
vn -0.179750353 0.364779532 0.913578451
vn -0.816188872 -0.307627976 0.489081532
vn -0.649045348 -0.456068277 0.608885705
vn -0.74356097 -0.335814208 0.578226447
vn -0.647562027 -0.515738547 -0.560960889
vn -0.610565603 -0.714504182 -0.341604143
vn -0.304713398 -0.880060911 -0.364201099
vn -0.481305391 -0.731940448 -0.482294768
vn -0.635774195 -0.700722456 -0.323696226
vn -0.769546092 -0.486797661 -0.413311988
vn 0.724809408 -0.611813128 -0.316758573
vn 0.465719521 -0.808364034 -0.360073537
vn 0.24664928 -0.340898871 -0.907167137
vn 0.0524202213 -0.341906041 -0.938270986
vn -0.185453594 0.334499985 -0.923967957
vn 0.304683834 -0.288009971 -0.907864511
vn 0.787007928 -0.529881835 -0.315980554
vn 0.932476819 -0.226794407 -0.281160593
vn -0.307738066 0.493413806 -0.813535571
vn 0.800726354 0.46017471 -0.383505434
vn -0.53196007 0.270149797 -0.8025195
vn -0.262347937 0.938118756 0.226068482
vn 0.127263308 0.308930576 0.942531645
vn 0.246176541 -0.0795447752 -0.965955436
vn 0.24621053 -0.0411670282 -0.968341768
vn 0.963272452 -0.239308298 -0.121809952
vn -0.742726505 0.187315628 -0.642860949
vn -0.67469418 0.203130081 -0.709595621
vn -0.795764029 0.533172369 0.287204951
vn -0.925525546 0.256533355 0.278555274
vn -0.930885971 0.265142858 0.251297712
vn -0.307034373 0.125668749 0.943364859
vn -0.360093057 0.110295944 0.926373422
vn 0.480567873 -0.114904501 0.869397163
vn -0.0387755521 0.230954215 0.972191632
vn 0.643446088 -0.102426462 0.758607924
vn 0.963272452 -0.239308298 -0.121809952
vn 0.932476819 -0.226794407 -0.281160593
vn 0.691479146 -0.301534861 0.6564551
vn 0.787007928 -0.529881835 -0.315980554
vn 0.465719521 -0.808364034 -0.360073537
vn 0.541569293 -0.399281025 0.739781857
vn 0.787384272 -0.40109998 0.468129039
vn 0.724809408 -0.611813128 -0.316758573
vn 0.0183193181 0.999831676 0.000970253488
vn 0.0674335733 0.997552812 0.0184694529
vn 0.0171109475 0.999809802 -0.00936396327
vn 0.015033694 0.999853373 -0.00819151476
vn 0.0155206416 0.999879003 -0.00106072787
vn 0.012680687 0.99951458 0.0284563396
vn 0.37447992 0.923575401 -0.0822995454
vn 0.471950561 0.880456209 -0.0453834087
vn 0.479389817 0.876784563 -0.0378711633
vn 0.47018075 0.881561875 -0.0421743803
vn 0.501161039 0.865334332 -0.0058492925
vn 0.481150717 0.876478851 -0.0166972987
vn 0.604262888 0.781511068 0.155263349
vn 0.0924880058 0.879062891 0.467647731
vn 0.148455054 0.85856396 0.49074325
vn 0.125800863 0.881234229 0.455631793
vn 0.134494141 0.874531984 0.465945452
vn 0.118320078 0.890391052 0.439550072
vn 0.117797405 0.903758228 0.411515117
vn -0.250843197 0.968018472 0.00423203455
vn -0.242895395 0.957858324 0.153327331
vn -0.21588929 0.972791553 0.0840746015
vn -0.211352497 0.971085012 0.11101383
vn -0.187857613 0.980490267 0.0578660406
vn -0.20017153 0.977541804 0.0659045354
vn -0.777970433 0.475340068 -0.41086942
vn -0.746400297 0.568294227 -0.346306503
vn -0.728447676 0.588531077 -0.350706667
vn -0.730036199 0.597358644 -0.331978709
vn -0.74610275 0.578950346 -0.328857422
vn -0.687705338 0.674011648 -0.269758582
vn 0.123235501 -0.583227932 0.802906096
vn -0.780476868 -0.562219441 0.273432136
vn 0.031178819 -0.380337507 0.924322069
vn -0.746738911 -0.383040518 0.543747187
vn 0.0709361285 -0.0932543427 0.993112147
vn -0.756700397 -0.113294341 0.643870294
vn -0.978161454 -0.0804557279 -0.191643104
vn -0.936064422 -0.0919437632 -0.339602083
vn -0.896692455 0.0395460241 -0.440884233
vn -0.338221788 0.592567921 -0.731074154
vn -0.339094311 0.331739426 -0.88032037
vn -0.152644694 0.169830427 -0.973579586
vn 0.682559967 0.675518513 -0.278902411
vn 0.697898686 0.45248127 -0.555155993
vn 0.711249352 0.180737376 -0.679307222
vn 0.976999879 0.0767305791 0.198956013
vn 0.88981539 0.0679074451 0.451239526
vn 0.764479876 -0.108406223 0.635467231
vn 0.0709361285 -0.0932543427 0.993112147
vn 0.123235501 -0.583227932 0.802906096
vn 0.031178819 -0.380337507 0.924322069
vn -0.202519745 0.87526232 0.439205498
vn -0.0957921743 0.931728601 0.350293487
vn -0.192605361 0.868381262 0.456965208
vn -0.212301388 0.868509531 0.447905421
vn -0.206671566 0.860200584 0.466199487
vn -0.169712812 0.806641519 0.566151083
vn 0.599908352 0.788915217 -0.133126944
vn 0.482645333 0.868186295 -0.115351334
vn 0.45803836 0.8799631 -0.125959903
vn 0.432472855 0.893787503 -0.118790455
vn 0.40741542 0.90391928 -0.130163968
vn 0.350321233 0.929339826 -0.116629951
vn -0.679862559 -0.297293007 0.670375824
vn -0.0242464598 -0.730457902 0.682527184
vn -0.185683623 -0.479864568 0.857468128
vn -0.757383108 -0.368526489 0.539035201
vn -0.88724184 0.459936291 -0.0355054028
vn -0.810244203 -0.186311528 0.555690885
vn 0.199672043 -0.519396484 0.830878079
vn 0.0614939034 -0.266351074 0.961912513
vn -0.874582171 -0.0481152423 0.482484192
vn -0.874881864 0.385567039 -0.293120831
vn -0.857568681 0.239957064 -0.454968691
vn -0.0955074579 0.843803883 -0.528084695
vn -0.116219908 0.540803492 -0.833081365
vn -0.127538636 0.342495769 -0.930822551
vn 0.766468167 0.18841964 -0.614023209
vn 0.696696043 0.372919738 -0.612817585
vn 0.791987598 0.470019013 -0.389663607
vn 0.919020414 -0.138685852 0.369009048
vn 0.9448511 -0.291683614 0.148919657
vn 0.896228194 -0.343278408 0.280953705
vn -0.185683623 -0.479864568 0.857468128
vn -0.0242464598 -0.730457902 0.682527184
vn 0.199672043 -0.519396484 0.830878079
vn 0.90978688 -0.236227214 0.341298342
vn 0.0614939034 -0.266351074 0.961912513
vn 0.493043572 -0.868528605 -0.0506562516
vn 0.860130727 -0.509732187 0.0186621975
vn 0.644047022 -0.395850897 -0.654603243
vn 0.303525537 -0.544486344 -0.781925082
vn 0.953905761 -0.271604329 -0.127651513
vn 0.446793526 -0.101977907 -0.888805985
vn -0.000755271525 0.144341126 -0.989527643
vn -0.116675265 0.107705876 -0.987312734
vn -0.428808808 0.180431426 -0.885193408
vn -0.754646599 0.550688505 -0.356722027
vn -0.89250952 0.33349666 -0.303655565
vn -0.292658448 0.899873853 -0.323385447
vn -0.826125264 0.322873652 0.461811274
vn -0.574286878 0.447194278 0.685719907
vn -0.232775792 0.750367284 0.618679523
vn -0.285006225 0.152713597 0.946282208
vn 0.098267138 0.0582041629 0.993456542
vn 0.128019229 -0.00448888447 0.991761446
vn 0.632855415 -0.15609318 0.758372605
vn 0.677104473 -0.37929213 0.630608439
vn 0.410069495 -0.610545993 0.677551925
vn 0.953905761 -0.271604329 -0.127651513
vn 0.493043572 -0.868528605 -0.0506562516
vn 0.860130727 -0.509732187 0.0186621975
vn -0.90473187 -0.137120128 -0.403309286
vn -0.875710785 -0.00240461575 -0.482830077
vn 0.00799175911 -0.0319766328 -0.999456704
vn -0.87531817 -0.192863867 -0.443420351
vn -0.12776053 0.046936281 -0.990693867
vn -0.134755105 -0.0829936191 -0.987397134
vn -0.860073388 0.0135345925 -0.509990633
vn 0.0283553507 0.03508728 -0.998981893
vn 0.713183582 0.0940662548 -0.69463712
vn 0.812799692 0.0326578505 -0.58162719
vn 0.735596001 0.0738424808 -0.673383832
vn 0.791045487 0.120868348 -0.599698126
vn 0.88046664 0.119952261 0.458682775
vn 0.915393531 0.216928035 0.339111924
vn 0.933574855 0.00779101485 0.358297735
vn 0.0710438117 -0.0149324294 0.997361362
vn 0.833519518 0.114761189 -0.540439665
vn 0.887603939 0.0465370566 0.458250582
vn 0.0254688468 0.126781315 0.991603673
vn -0.833704531 -0.00932681933 0.55213207
vn 0.771460414 0.18590568 0.608512878
vn -0.191620395 -0.0291992947 0.981034696
vn -0.161127105 0.0507216342 0.98562938
vn -0.799800515 -0.0455153026 0.598537743
vn -0.824301481 -0.0931121856 0.558441818
vn -0.875710785 -0.00240461575 -0.482830077
vn -0.90473187 -0.137120128 -0.403309286
vn -0.87531817 -0.192863867 -0.443420351
vn 0.0938673466 0.0805901811 0.992317557
vn -0.840251327 -0.0594275668 0.538930476
vn -0.860073388 0.0135345925 -0.509990633
g O_build_kushu_2_0
f 3/3/3 2/2/2 1/1/1
f 3/3/3 4/4/4 2/2/2
f 4/4/4 5/5/5 2/2/2
f 4/4/4 3/3/3 6/6/6
f 3/3/3 7/7/7 6/6/6
f 6/6/6 8/8/8 4/4/4
f 6/6/6 9/9/9 8/8/8
f 10/10/10 8/8/8 9/9/9
f 4/4/4 11/11/11 5/5/5
f 4/4/4 8/8/8 11/11/11
f 10/10/10 12/12/12 8/8/8
f 11/11/11 8/8/8 12/12/12
f 13/13/13 12/12/12 10/10/10
f 5/5/5 11/11/11 14/14/14
f 5/5/5 14/14/14 15/15/15
f 13/13/13 16/16/16 12/12/12
f 13/13/13 17/17/17 16/16/16
f 11/11/11 12/12/12 18/18/18
f 16/16/16 18/18/18 12/12/12
f 18/18/18 14/14/14 11/11/11
f 17/17/17 19/19/19 16/16/16
f 18/18/18 20/20/20 14/14/14
f 15/15/15 14/14/14 21/21/21
f 21/21/21 14/14/14 20/20/20
f 15/15/15 21/21/21 22/22/22
f 17/17/17 23/23/23 19/19/19
f 24/24/24 23/23/23 17/17/17
f 23/23/23 25/25/25 19/19/19
f 24/24/24 26/26/26 23/23/23
f 27/27/27 26/26/26 24/24/24
f 27/27/27 28/28/28 26/26/26
f 26/26/26 29/29/29 23/23/23
f 23/23/23 29/29/29 25/25/25
f 22/22/22 21/21/21 30/30/30
f 21/21/21 31/31/31 30/30/30
f 21/21/21 32/32/32 31/31/31
f 22/22/22 30/30/30 33/33/33
f 32/32/32 21/21/21 20/20/20
f 28/28/28 34/34/34 26/26/26
f 26/26/26 34/34/34 29/29/29
f 35/35/35 31/31/31 32/32/32
f 35/35/35 36/36/36 31/31/31
f 37/37/37 32/32/32 20/20/20
f 37/37/37 20/20/20 38/38/38
f 38/38/38 25/25/25 37/37/37
f 37/37/37 39/39/39 32/32/32
f 25/25/25 39/39/39 37/37/37
f 25/25/25 29/29/29 39/39/39
f 32/32/32 39/39/39 40/40/40
f 41/41/41 40/40/40 39/39/39
f 29/29/29 42/42/42 39/39/39
f 41/41/41 39/39/39 42/42/42
f 34/34/34 42/42/42 29/29/29
f 41/41/41 42/42/42 43/43/43
f 36/36/36 44/44/44 31/31/31
f 43/43/43 44/44/44 36/36/36
f 45/45/45 43/43/43 42/42/42
f 34/34/34 46/46/46 42/42/42
f 45/45/45 42/42/42 46/46/46
f 47/47/47 44/44/44 43/43/43
f 47/47/47 43/43/43 45/45/45
f 31/31/31 44/44/44 48/48/48
f 44/44/44 49/49/49 48/48/48
f 44/44/44 47/47/47 49/49/49
f 31/31/31 48/48/48 50/50/50
f 47/47/47 51/51/51 49/49/49
f 31/31/31 50/50/50 52/52/52
f 53/53/53 52/52/52 50/50/50
f 52/52/52 30/30/30 31/31/31
f 54/54/54 52/52/52 53/53/53
f 47/47/47 55/55/55 51/51/51
f 45/45/45 55/55/55 47/47/47
f 51/51/51 55/55/55 56/56/56
f 57/57/57 56/56/56 55/55/55
f 30/30/30 52/52/52 58/58/58
f 54/54/54 58/58/58 52/52/52
f 58/58/58 59/59/59 30/30/30
f 59/59/59 58/58/58 54/54/54
f 60/60/60 59/59/59 54/54/54
f 59/59/59 33/33/33 30/30/30
f 59/59/59 61/61/61 33/33/33
f 45/45/45 62/62/62 55/55/55
f 46/46/46 62/62/62 45/45/45
f 57/57/57 55/55/55 63/63/63
f 62/62/62 63/63/63 55/55/55
f 57/57/57 63/63/63 64/64/64
f 63/63/63 65/65/65 64/64/64
f 63/63/63 66/66/66 65/65/65
f 66/66/66 67/67/67 65/65/65
f 46/46/46 68/68/68 62/62/62
f 34/34/34 68/68/68 46/46/46
f 69/69/69 63/63/63 62/62/62
f 69/69/69 66/66/66 63/63/63
f 66/66/66 70/70/70 67/67/67
f 70/70/70 71/71/71 67/67/67
f 70/70/70 72/72/72 71/71/71
f 73/73/73 72/72/72 70/70/70
f 74/74/74 70/70/70 66/66/66
f 73/73/73 70/70/70 74/74/74
f 74/74/74 66/66/66 69/69/69
f 75/75/75 62/62/62 68/68/68
f 75/75/75 69/69/69 62/62/62
f 34/34/34 76/76/76 68/68/68
f 76/76/76 75/75/75 68/68/68
f 28/28/28 76/76/76 34/34/34
f 77/77/77 73/73/73 74/74/74
f 77/77/77 78/78/78 73/73/73
f 79/79/79 78/78/78 77/77/77
f 80/80/80 74/74/74 69/69/69
f 80/80/80 77/77/77 74/74/74
f 81/81/81 80/80/80 69/69/69
f 75/75/75 81/81/81 69/69/69
f 81/81/81 75/75/75 82/82/82
f 83/83/83 77/77/77 80/80/80
f 79/79/79 77/77/77 83/83/83
f 83/83/83 80/80/80 84/84/84
f 82/82/82 75/75/75 85/85/85
f 76/76/76 85/85/85 75/75/75
f 82/82/82 85/85/85 86/86/86
f 86/86/86 85/85/85 87/87/87
f 88/88/88 79/79/79 83/83/83
f 88/88/88 83/83/83 84/84/84
f 88/88/88 89/89/89 79/79/79
f 90/90/90 84/84/84 87/87/87
f 90/90/90 87/87/87 85/85/85
f 88/88/88 84/84/84 90/90/90
f 91/91/91 89/89/89 88/88/88
f 91/91/91 88/88/88 90/90/90
f 91/91/91 92/92/92 89/89/89
f 91/91/91 90/90/90 93/93/93
f 94/94/94 90/90/90 85/85/85
f 93/93/93 90/90/90 94/94/94
f 94/94/94 85/85/85 76/76/76
f 93/93/93 94/94/94 95/95/95
f 95/95/95 94/94/94 96/96/96
f 97/97/97 94/94/94 76/76/76
f 96/96/96 94/94/94 97/97/97
f 28/28/28 97/97/97 76/76/76
f 96/96/96 97/97/97 28/28/28
f 100/100/100 99/99/99 98/98/98
f 101/101/101 100/100/100 98/98/98
f 101/101/101 102/102/102 100/100/100
f 103/103/103 100/100/100 102/102/102
f 104/104/104 102/102/102 101/101/101
f 104/104/104 101/101/101 105/105/105
f 103/103/103 102/102/102 106/106/106
f 106/106/106 107/107/107 103/103/103
f 106/106/106 108/108/108 107/107/107
f 106/106/106 102/102/102 109/109/109
f 104/104/104 109/109/109 102/102/102
f 107/107/107 108/108/108 110/110/110
f 107/107/107 110/110/110 111/111/111
f 111/111/111 110/110/110 112/112/112
f 111/111/111 112/112/112 113/113/113
f 112/112/112 110/110/110 114/114/114
f 105/105/105 115/115/115 104/104/104
f 105/105/105 116/116/116 115/115/115
f 117/117/117 115/115/115 116/116/116
f 117/117/117 118/118/118 115/115/115
f 104/104/104 119/119/119 109/109/109
f 104/104/104 115/115/115 119/119/119
f 118/118/118 119/119/119 115/115/115
f 118/118/118 120/120/120 119/119/119
f 119/119/119 121/121/121 109/109/109
f 122/122/122 119/119/119 120/120/120
f 119/119/119 122/122/122 121/121/121
f 122/122/122 120/120/120 123/123/123
f 122/122/122 123/123/123 124/124/124
f 121/121/121 122/122/122 125/125/125
f 122/122/122 124/124/124 125/125/125
f 121/121/121 125/125/125 114/114/114
f 126/126/126 125/125/125 124/124/124
f 125/125/125 127/127/127 114/114/114
f 127/127/127 112/112/112 114/114/114
f 126/126/126 128/128/128 125/125/125
f 125/125/125 128/128/128 127/127/127
f 128/128/128 126/126/126 129/129/129
f 128/128/128 129/129/129 130/130/130
f 131/131/131 128/128/128 130/130/130
f 131/131/131 127/127/127 128/128/128
f 132/132/132 127/127/127 131/131/131
f 132/132/132 112/112/112 127/127/127
f 132/132/132 113/113/113 112/112/112
f 132/132/132 133/133/133 113/113/113
f 133/133/133 134/134/134 113/113/113
f 137/137/137 136/136/136 135/135/135
f 137/137/137 138/138/138 136/136/136
f 139/139/139 138/138/138 137/137/137
f 140/140/140 136/136/136 138/138/138
f 140/140/140 141/141/141 136/136/136
f 142/142/142 141/141/141 140/140/140
f 139/139/139 143/143/143 138/138/138
f 143/143/143 139/139/139 144/144/144
f 138/138/138 145/145/145 140/140/140
f 138/138/138 143/143/143 145/145/145
f 143/143/143 144/144/144 146/146/146
f 146/146/146 145/145/145 143/143/143
f 146/146/146 144/144/144 147/147/147
f 142/142/142 140/140/140 148/148/148
f 145/145/145 148/148/148 140/140/140
f 142/142/142 148/148/148 149/149/149
f 142/142/142 149/149/149 150/150/150
f 151/151/151 149/149/149 148/148/148
f 145/145/145 151/151/151 148/148/148
f 151/151/151 152/152/152 149/149/149
f 146/146/146 153/153/153 145/145/145
f 151/151/151 145/145/145 153/153/153
f 152/152/152 151/151/151 154/154/154
f 151/151/151 153/153/153 154/154/154
f 152/152/152 154/154/154 155/155/155
f 155/155/155 154/154/154 156/156/156
f 153/153/153 156/156/156 154/154/154
f 155/155/155 156/156/156 157/157/157
f 158/158/158 157/157/157 156/156/156
f 146/146/146 159/159/159 153/153/153
f 153/153/153 159/159/159 156/156/156
f 146/146/146 147/147/147 159/159/159
f 158/158/158 156/156/156 160/160/160
f 160/160/160 156/156/156 159/159/159
f 160/160/160 161/161/161 158/158/158
f 160/160/160 162/162/162 161/161/161
f 162/162/162 160/160/160 163/163/163
f 160/160/160 159/159/159 163/163/163
f 162/162/162 163/163/163 164/164/164
f 165/165/165 164/164/164 163/163/163
f 166/166/166 159/159/159 147/147/147
f 166/166/166 163/163/163 159/159/159
f 165/165/165 163/163/163 166/166/166
f 166/166/166 147/147/147 167/167/167
f 166/166/166 168/168/168 165/165/165
f 166/166/166 167/167/167 168/168/168
f 171/171/171 170/170/170 169/169/169
f 171/171/171 169/169/169 172/172/172
f 173/173/173 172/172/172 169/169/169
f 173/173/173 169/169/169 174/174/174
f 177/177/177 176/176/176 175/175/175
f 177/177/177 178/178/178 176/176/176
f 177/177/177 179/179/179 178/178/178
f 180/180/180 178/178/178 179/179/179
f 180/180/180 179/179/179 181/181/181
f 184/184/184 183/183/183 182/182/182
f 184/184/184 185/185/185 183/183/183
f 186/186/186 185/185/185 184/184/184
f 186/186/186 184/184/184 187/187/187
f 190/190/190 189/189/189 188/188/188
f 190/190/190 191/191/191 189/189/189
f 190/190/190 192/192/192 191/191/191
f 190/190/190 193/193/193 192/192/192
f 196/196/196 195/195/195 194/194/194
f 196/196/196 197/197/197 195/195/195
f 198/198/198 195/195/195 197/197/197
f 198/198/198 197/197/197 199/199/199
f 202/202/202 201/201/201 200/200/200
f 202/202/202 203/203/203 201/201/201
f 203/203/203 202/202/202 204/204/204
f 203/203/203 204/204/204 205/205/205
f 206/206/206 201/201/201 203/203/203
f 206/206/206 203/203/203 205/205/205
f 206/206/206 207/207/207 201/201/201
f 206/206/206 205/205/205 208/208/208
f 206/206/206 209/209/209 207/207/207
f 208/208/208 210/210/210 206/206/206
f 206/206/206 210/210/210 209/209/209
f 208/208/208 211/211/211 210/210/210
f 212/212/212 209/209/209 210/210/210
f 211/211/211 213/213/213 210/210/210
f 212/212/212 210/210/210 213/213/213
f 211/211/211 214/214/214 213/213/213
f 213/213/213 214/214/214 215/215/215
f 216/216/216 212/212/212 213/213/213
f 213/213/213 215/215/215 216/216/216
f 216/216/216 217/217/217 212/212/212
f 216/216/216 215/215/215 218/218/218
f 219/219/219 217/217/217 216/216/216
f 216/216/216 218/218/218 220/220/220
f 219/219/219 216/216/216 220/220/220
f 223/223/223 222/222/222 221/221/221
f 223/223/223 221/221/221 224/224/224
f 223/223/223 224/224/224 225/225/225
f 223/223/223 225/225/225 226/226/226
f 229/229/229 228/228/228 227/227/227
f 229/229/229 230/230/230 228/228/228
f 230/230/230 229/229/229 231/231/231
f 230/230/230 231/231/231 232/232/232
f 235/235/235 234/234/234 233/233/233
f 234/234/234 236/236/236 233/233/233
f 236/236/236 237/237/237 233/233/233
f 234/234/234 238/238/238 236/236/236
f 234/234/234 239/239/239 238/238/238
f 240/240/240 238/238/238 239/239/239
f 240/240/240 241/241/241 238/238/238
f 236/236/236 242/242/242 237/237/237
f 236/236/236 238/238/238 242/242/242
f 241/241/241 242/242/242 238/238/238
f 241/241/241 243/243/243 242/242/242
f 244/244/244 237/237/237 242/242/242
f 243/243/243 245/245/245 242/242/242
f 244/244/244 242/242/242 245/245/245
f 243/243/243 246/246/246 245/245/245
f 245/245/245 246/246/246 247/247/247
f 248/248/248 244/244/244 245/245/245
f 245/245/245 247/247/247 248/248/248
f 248/248/248 249/249/249 244/244/244
f 248/248/248 247/247/247 250/250/250
f 251/251/251 249/249/249 248/248/248
f 251/251/251 252/252/252 249/249/249
f 251/251/251 253/253/253 252/252/252
f 251/251/251 254/254/254 253/253/253
f 251/251/251 255/255/255 254/254/254
f 248/248/248 250/250/250 256/256/256
f 251/251/251 248/248/248 256/256/256
f 251/251/251 256/256/256 255/255/255
f 257/257/257 256/256/256 250/250/250
f 257/257/257 255/255/255 256/256/256
f 260/260/260 259/259/259 258/258/258
f 260/260/260 258/258/258 261/261/261
f 262/262/262 259/259/259 260/260/260
f 262/262/262 260/260/260 263/263/263
f 260/260/260 261/261/261 264/264/264
f 263/263/263 260/260/260 265/265/265
f 260/260/260 264/264/264 265/265/265
f 263/263/263 265/265/265 266/266/266
f 267/267/267 265/265/265 264/264/264
f 267/267/267 266/266/266 265/265/265
f 267/267/267 268/268/268 266/266/266
f 267/267/267 264/264/264 269/269/269
f 270/270/270 268/268/268 267/267/267
f 269/269/269 271/271/271 267/267/267
f 270/270/270 267/267/267 271/271/271
f 269/269/269 272/272/272 271/271/271
f 273/273/273 270/270/270 271/271/271
f 274/274/274 271/271/271 272/272/272
f 273/273/273 271/271/271 275/275/275
f 274/274/274 275/275/275 271/271/271
f 275/275/275 276/276/276 273/273/273
f 274/274/274 277/277/277 275/275/275
f 275/275/275 277/277/277 276/276/276
f 274/274/274 278/278/278 277/277/277
f 279/279/279 276/276/276 277/277/277
f 280/280/280 277/277/277 278/278/278
f 279/279/279 277/277/277 281/281/281
f 280/280/280 281/281/281 277/277/277
f 284/284/284 283/283/283 282/282/282
f 284/284/284 282/282/282 285/285/285
f 284/284/284 286/286/286 283/283/283
f 284/284/284 285/285/285 287/287/287
f 287/287/287 285/285/285 288/288/288
f 287/287/287 288/288/288 289/289/289
f 290/290/290 287/287/287 289/289/289
f 284/284/284 287/287/287 290/290/290
f 290/290/290 289/289/289 291/291/291
f 292/292/292 286/286/286 284/284/284
f 292/292/292 293/293/293 286/286/286
f 294/294/294 293/293/293 292/292/292
f 291/291/291 295/295/295 290/290/290
f 291/291/291 296/296/296 295/295/295
f 295/295/295 296/296/296 297/297/297
f 284/284/284 290/290/290 298/298/298
f 292/292/292 284/284/284 298/298/298
f 295/295/295 298/298/298 290/290/290
f 294/294/294 292/292/292 299/299/299
f 299/299/299 292/292/292 298/298/298
f 295/295/295 297/297/297 300/300/300
f 300/300/300 297/297/297 301/301/301
f 295/295/295 302/302/302 298/298/298
f 299/299/299 298/298/298 302/302/302
f 300/300/300 302/302/302 295/295/295
f 303/303/303 294/294/294 299/299/299
f 303/303/303 304/304/304 294/294/294
f 303/303/303 305/305/305 304/304/304
f 303/303/303 306/306/306 305/305/305
f 306/306/306 307/307/307 305/305/305
f 306/306/306 308/308/308 307/307/307
f 309/309/309 308/308/308 306/306/306
f 299/299/299 302/302/302 310/310/310
f 299/299/299 310/310/310 303/303/303
f 300/300/300 310/310/310 302/302/302
f 303/303/303 310/310/310 306/306/306
f 306/306/306 310/310/310 300/300/300
f 300/300/300 301/301/301 311/311/311
f 306/306/306 300/300/300 311/311/311
f 309/309/309 306/306/306 311/311/311
f 311/311/311 301/301/301 312/312/312
f 311/311/311 312/312/312 309/309/309
