g O_env_th_cao3_1
v 0.398953587 0.143865347 -0.163008913
v 0.430737078 0.138956934 -0.147093043
v 0.397556067 0.147613749 -0.139667019
v 0.436044604 0.136615038 -0.138910219
v 0.43046844 0.135952964 -0.130419612
v 0.401223987 0.135641918 -0.114122272
v 0.352847129 0.128297389 -0.104295649
v 0.348920733 0.141981691 -0.136497349
v -0.151765302 0.0911043659 0.301434934
v -0.150931314 0.0853607655 0.329122841
v -0.168813854 0.103555553 0.312801659
v -0.158784717 0.0983600244 0.271425098
v -0.154504925 0.0850064903 0.336221009
v -0.213270187 0.109898061 0.312483668
v -0.163716584 0.0893347338 0.337242812
v -0.186307907 0.100542039 0.327796459
v 0.302966654 0.0591625571 -0.0237956997
v 0.316671103 0.0572810173 -0.033565063
v 0.310110301 0.0658187792 -0.0190534201
v 0.282993138 0.0603694133 -0.00312911975
v 0.320691109 0.0573053733 -0.0340322852
v 0.312410414 0.0698029697 0.0133622736
v 0.322110713 0.0586882941 -0.0307147205
v 0.319779873 0.0640486106 -0.0141255949
v 0.129824981 0.264809072 -0.346736073
v 0.125354618 0.27225551 -0.361049175
v 0.137816533 0.275339395 -0.350193232
v 0.138773948 0.255138874 -0.328349829
v 0.126401663 0.274617493 -0.366113335
v 0.153576046 0.266819328 -0.336521685
v 0.132261574 0.275430948 -0.366419911
v 0.166368783 0.270546138 -0.351361603
v 0.147255555 0.274560899 -0.360213071
v -0.313237846 0.190155223 -0.415165544
v -0.307506949 0.186288178 -0.429164946
v -0.301139206 0.193859637 -0.41580826
v -0.303466052 0.1842435 -0.432119012
v -0.299820065 0.184252098 -0.429548532
v -0.292014927 0.184509844 -0.415931225
v -0.32216233 0.193141863 -0.377182037
v -0.279270411 0.182135507 -0.377442479
v -0.297668874 0.198077038 -0.373525381
v -0.326856196 0.187203005 -0.33207041
v -0.274918556 0.173844606 -0.333793908
v -0.297954679 0.191156879 -0.328490704
v -0.060242638 0.0999293476 -0.294218808
v -0.0499237441 0.110532999 -0.352043957
v -0.0281305928 0.116084903 -0.305300951
v -0.0411611162 0.11091999 -0.364525974
v -0.0298442841 0.111198992 -0.358348012
v 0.00763599901 0.101517998 -0.308555543
v -0.0609055683 0.060234651 -0.217318341
v 0.0467989519 0.0637847856 -0.241451278
v -0.00327022607 0.0817561895 -0.215236753
v -0.0326748155 -0.0152099999 -0.114546962
v 0.074098222 -0.0150667988 -0.133933023
v 0.0276770387 -0.00734615 -0.0979153439
v 0.290865749 0.0668360516 -0.00963052735
v 0.339367658 0.0779256821 0.014212341
v 0.284672648 0.0809191018 0.0215073787
v 0.345328867 0.0784641355 0.0223646536
v 0.33926627 0.0771594346 0.0312873833
v 0.288706005 0.0672711655 0.0536349751
v 0.219868079 0.0404531583 -0.0296483301
v 0.214644611 0.0445129871 0.0741915926
v 0.205851048 0.060656108 0.0219106749
v 0.144354075 -0.0127314711 -0.0353356153
v 0.137567714 -0.0117409658 0.0805374905
v 0.112404019 -0.00301257009 0.0225296784
v -0.328663588 0.140703902 0.00406600954
v -0.359161377 0.154911578 -0.0157933049
v -0.320400953 0.160275489 -0.0210977159
v -0.364083439 0.156696007 -0.0252646245
v -0.357607305 0.154700369 -0.0337803252
v -0.324280232 0.146249399 -0.0505471416
v -0.265607893 0.105734766 0.0314273722
v -0.251373351 0.116186038 -0.076942496
v -0.246778503 0.13440308 -0.0188851655
v -0.194040373 0.0566591807 0.0462414175
v -0.179083034 0.0702509582 -0.0910673887
v -0.16196014 0.0835559666 -0.0195499789
v -0.104909472 -0.0262280982 0.0487011708
v -0.0916041508 -0.0144160278 -0.09571556
v -0.0691589192 -0.00500397012 -0.020517502
v 0.273245692 0.0878447294 0.210761562
v 0.297114551 0.0961015597 0.268976599
v 0.237602681 0.112924553 0.23988907
v 0.293395996 0.100221992 0.28836289
v 0.276098371 0.0968838707 0.292815179
v 0.212498218 0.0869080499 0.276079327
v 0.2151535 0.0581378862 0.114205472
v 0.108085781 0.0582213998 0.232734069
v 0.149740458 0.0923235491 0.164673835
v 0.13394855 0.00197664369 0.013036117
v -0.00426414469 0.00391066168 0.167976379
v 0.0414443575 0.0372360945 0.0735309571
v 0.0769051611 -0.0439242385 -0.0395950302
v -0.0693154037 -0.0526149832 0.113563918
v -0.0218718052 -0.0188386999 0.0200759117
v -0.294154644 0.119643949 0.360067576
v -0.313995749 0.120246485 0.359757453
v -0.257266551 0.133539155 0.281036764
v -0.320797503 0.117678851 0.341298968
v -0.216323376 0.105650596 0.319723576
v -0.192966551 0.11565502 0.190744355
v -0.303946435 0.102094859 0.25052467
v -0.12737529 0.0785563663 0.255961597
v -0.272255123 0.0778188258 0.149579003
v -0.0534338802 0.0318617038 0.184956968
v -0.227119625 0.0279755946 0.0568738915
v -0.124899805 0.0706181601 0.0935961902
v 0.0183060262 -0.037087515 0.099433817
v -0.16673021 -0.0405031256 -0.0396131873
v -0.046368733 -0.0107794255 -0.0116828149
v 0.367236853 0.149702623 -0.215133131
v 0.428286672 0.155846834 -0.213385075
v 0.379874647 0.170162871 -0.174795762
v 0.444803923 0.157284006 -0.202958062
v 0.441427082 0.152983978 -0.185992807
v 0.400388718 0.148587793 -0.140745774
v 0.25237146 0.131375507 -0.202329323
v 0.312809139 0.126706138 -0.0614076033
v 0.278796345 0.155863732 -0.129082561
v 0.138744563 0.0729259849 -0.164275855
v 0.212391883 0.0746695176 -0.00594604481
v 0.163685486 0.104012057 -0.0796837583
v 0.0187241845 -0.0259409845 -0.0954666138
v 0.0769449249 -0.0250294413 0.0345930457
v 0.00970933028 -0.0128652379 -0.0125788115
v 0.140502885 0.262347549 -0.345463336
v 0.180945471 0.28233397 -0.377656549
v 0.172676921 0.282099426 -0.321251452
v 0.200660437 0.285037011 -0.382683635
v 0.209341273 0.280369014 -0.363479525
v 0.211055174 0.259142518 -0.311225593
v 0.0778222159 0.213149309 -0.279616982
v 0.204499066 0.215085059 -0.222131908
v 0.134030655 0.241507813 -0.23441036
v 0.0290464666 0.14646019 -0.211735129
v 0.187953547 0.148337111 -0.140988931
v 0.0977190956 0.174455479 -0.149002001
v 0.00137431442 0.0723618716 -0.138901129
v 0.151549578 0.0704587102 -0.0689219385
v 0.0646412373 0.0928006843 -0.074188821
v -0.0135012148 -0.0247018244 -0.0731256083
v 0.114022017 -0.0199851971 -0.0149880974
v 0.0338490345 -0.013344897 -0.00693367003
v -0.408589989 0.192287996 -0.29054293
v -0.451113641 0.195185333 -0.364604264
v -0.369708866 0.218145639 -0.332147807
v -0.452118069 0.195118994 -0.388019949
v -0.427251041 0.192767978 -0.395066887
v -0.344677359 0.189691305 -0.380301893
v -0.340927273 0.170945972 -0.201657221
v -0.224700928 0.168706819 -0.345002651
v -0.272006869 0.207514867 -0.26491046
v -0.24912174 0.131316185 -0.111144066
v -0.109468117 0.125576958 -0.29320696
v -0.159892023 0.168807998 -0.191055983
v -0.135032982 0.0593818948 -0.0294356532
v -0.00113164901 0.0549168848 -0.222067177
v -0.0463125408 0.0921948254 -0.111447752
v -0.0290626641 -0.0375571996 0.0283560175
v 0.0963369235 -0.0325380936 -0.137132257
v 0.0826534182 -0.0233554449 -0.0179835502
vt 0.193043977 0.949717045
vt 0.20938316 0.981926739
vt 0.215955704 0.948454857
vt 0.217858359 0.987183809
vt 0.226523623 0.981873333
vt 0.243183076 0.952825427
vt 0.255264848 0.90471077
vt 0.220695466 0.900949299
vt 0.346961796 0.485409409
vt 0.363490641 0.50949353
vt 0.368548512 0.484469056
vt 0.334251851 0.455498278
vt 0.370951355 0.513309598
vt 0.40618664 0.456519812
vt 0.379427373 0.508444071
vt 0.392773271 0.486339033
vt 0.400918961 0.963288546
vt 0.408089489 0.978775203
vt 0.411785603 0.961202264
vt 0.393547148 0.935772777
vt 0.411405802 0.981094956
vt 0.43078205 0.935663879
vt 0.414644778 0.978992999
vt 0.422480404 0.963100255
vt 0.0207656771 0.966490567
vt 0.0296534784 0.98093009
vt 0.0338642001 0.965402484
vt 0.0130227767 0.945629656
vt 0.0342928879 0.984142423
vt 0.0342299342 0.943849623
vt 0.0392279252 0.980907857
vt 0.0547087491 0.946781695
vt 0.0470719263 0.966454804
vt 0.0965529382 0.336718708
vt 0.104640126 0.350645542
vt 0.108648285 0.335453659
vt 0.109274812 0.353466213
vt 0.112838753 0.350792557
vt 0.12111555 0.336908668
vt 0.085507445 0.298866928
vt 0.13347131 0.298018694
vt 0.109707057 0.294800192
vt 0.0808244571 0.25341171
vt 0.139007181 0.253762215
vt 0.109977953 0.250864565
vt 0.891654372 0.222770751
vt 0.916214287 0.273886561
vt 0.926261425 0.230832711
vt 0.926932335 0.282894462
vt 0.935960174 0.275305569
vt 0.961732209 0.221609756
vt 0.873876154 0.146419242
vt 0.9821679 0.146281198
vt 0.929007769 0.142555341
vt 0.875153542 0.0257544518
vt 0.982624352 0.0203040391
vt 0.92997086 0.00825059414
vt 0.524039984 0.347486436
vt 0.501457572 0.30068934
vt 0.491808534 0.346413076
vt 0.494059443 0.295074224
vt 0.485198319 0.299745291
vt 0.462055683 0.346239418
vt 0.540448785 0.415737838
vt 0.437570691 0.41482234
vt 0.48800683 0.417682528
vt 0.542635381 0.50187695
vt 0.427708417 0.502745092
vt 0.483847767 0.519366622
vt 0.158850625 0.280255139
vt 0.17902492 0.31188634
vt 0.187837511 0.278959751
vt 0.187783331 0.316914976
vt 0.196718842 0.312046945
vt 0.216677994 0.281208575
vt 0.135167316 0.213003337
vt 0.244449273 0.209658653
vt 0.189681962 0.211655766
vt 0.123437509 0.13158533
vt 0.259624213 0.130581886
vt 0.192925572 0.123702541
vt 0.120788522 0.0201343447
vt 0.265700638 0.0189078003
vt 0.193958506 0.00994515419
vt 0.696264386 0.337943941
vt 0.723676324 0.390871674
vt 0.742431283 0.334110916
vt 0.740139306 0.399643898
vt 0.754893243 0.391749173
vt 0.787504196 0.338387758
vt 0.666784286 0.234032065
vt 0.824251175 0.236778796
vt 0.746742368 0.231413573
vt 0.649134219 0.10466186
vt 0.851278007 0.10992299
vt 0.753137767 0.0977217555
vt 0.649698496 0.0224030875
vt 0.857533753 0.017282363
vt 0.757141531 0.00898560416
vt 0.364896506 0.431635737
vt 0.379840732 0.44198823
vt 0.382014304 0.355564415
vt 0.395627886 0.432984948
vt 0.325469077 0.358461291
vt 0.385436594 0.258352309
vt 0.439712852 0.357326627
vt 0.296552807 0.258369684
vt 0.472148746 0.26209262
vt 0.281205595 0.155428454
vt 0.494316399 0.1587466
vt 0.390438378 0.146657571
vt 0.275500238 0.0354443081
vt 0.50640893 0.0377141126
vt 0.393155634 0.00972323306
vt 0.461127013 0.941256881
vt 0.480692387 0.980871797
vt 0.496756166 0.938346326
vt 0.49591133 0.990377188
vt 0.510189533 0.982416987
vt 0.531417489 0.942551613
vt 0.430775225 0.855042517
vt 0.567161024 0.852763653
vt 0.498782516 0.855407238
vt 0.416649818 0.724253416
vt 0.578953087 0.724862993
vt 0.49839583 0.72367537
vt 0.425994307 0.551090121
vt 0.571043372 0.553162575
vt 0.499497503 0.528286695
vt 0.28008914 0.933281898
vt 0.305002868 0.979306996
vt 0.319806933 0.931748271
vt 0.319938242 0.990745068
vt 0.335176826 0.97817564
vt 0.360493422 0.931230187
vt 0.25649336 0.881033659
vt 0.382882267 0.877167225
vt 0.320529222 0.852943599
vt 0.236713246 0.747691631
vt 0.406621188 0.750496268
vt 0.323147893 0.742679417
vt 0.241411686 0.64669627
vt 0.40446195 0.6450212
vt 0.324323893 0.639305294
vt 0.250525504 0.537808716
vt 0.3959831 0.541647792
vt 0.324243426 0.524331212
vt 0.0597727969 0.906848192
vt 0.09611094 0.977931261
vt 0.114874937 0.900683463
vt 0.113584727 0.990305543
vt 0.132938772 0.97660929
vt 0.168845996 0.906731367
vt 0.0272007063 0.806432724
vt 0.206617579 0.795862496
vt 0.116405413 0.796410501
vt 0.0089969188 0.682974935
vt 0.229883939 0.675311923
vt 0.120894179 0.674176395
vt 0.0100963861 0.538136065
vt 0.235560447 0.540142834
vt 0.122880153 0.534740329
vt 0.0204138309 0.397859126
vt 0.22592853 0.398629308
vt 0.124042884 0.359158605
vn -0.0419073068 0.989142597 -0.140856624
vn 0.355173439 0.932228744 -0.0692929104
vn -0.063296333 0.985785425 0.155630276
vn 0.36894241 0.910731435 0.185606301
vn 0.318692267 0.879255831 0.354040146
vn -0.0458898917 0.909833968 0.412427276
vn -0.1474794 0.901218355 0.407498777
vn -0.173875943 0.946923316 0.270376652
vn 0.622828782 0.778063536 0.0818624645
vn 0.594853997 0.775243044 0.212478369
vn 0.396499157 0.892094314 0.21669364
vn 0.538835287 0.842043817 0.0248739235
vn 0.476365685 0.807294369 0.348355532
vn 0.130627885 0.932490408 0.336746126
vn 0.336247951 0.84280777 0.4202528
vn 0.168329418 0.909858108 0.379240632
vn -0.394969702 0.825570166 -0.403029472
vn -0.190307483 0.685674369 -0.702590585
vn -0.153849185 0.959358752 -0.236561358
vn -0.38369903 0.87485981 -0.295627236
vn 0.114161387 0.785218179 -0.60860461
vn -0.000682903861 0.995224237 -0.0976132154
vn 0.383703738 0.834729135 -0.394966751
vn 0.15807955 0.978402436 -0.133190274
vn -0.560572088 0.609480143 0.560618281
vn -0.53803575 0.737534344 0.408118516
vn -0.164228767 0.888807118 0.427844435
vn -0.286400169 0.697132647 0.657252669
vn -0.291817009 0.941865981 0.166527167
vn -0.0181633998 0.839014769 0.54380542
vn -0.0359069668 0.999194324 0.0179304462
vn 0.169803038 0.93726331 0.304473937
vn 0.135239676 0.989524186 0.050518956
vn -0.295570493 0.921825349 -0.250751138
vn -0.112072527 0.88644433 -0.449061573
vn 0.234790891 0.935958326 -0.262402624
vn 0.192057163 0.833169937 -0.518596172
vn 0.527622402 0.71913147 -0.452177674
vn 0.684277713 0.671516418 -0.284305394
vn -0.201147348 0.97565949 0.0873411968
vn 0.650593638 0.756816864 0.0628979355
vn 0.245121136 0.963359058 0.108880676
vn -0.180024549 0.96512413 0.190069661
vn 0.631900728 0.756928623 0.166614681
vn 0.250196368 0.943251789 0.218352482
vn -0.44232592 0.872001052 0.209671408
vn -0.327324212 0.944902182 0.00432146387
vn 0.00473338319 0.993042111 0.117664017
vn -0.0677642897 0.990960419 -0.115781769
vn 0.255765855 0.95807755 -0.129117385
vn 0.437634557 0.899152398 0.000931031478
vn -0.277778387 0.716889918 0.639459133
vn 0.485124886 0.742475748 0.461934686
vn 0.110493779 0.78667891 0.60739398
vn -0.270271063 0.68292886 0.678646863
vn 0.499781191 0.703774929 0.504895568
vn 0.127619073 0.758201897 0.639408469
vn -0.0271887202 0.853036821 -0.521142006
vn 0.1042023 0.929886997 -0.35277763
vn -0.0714127049 0.996994734 -0.0300278477
vn 0.15079619 0.987136483 0.053122256
vn 0.101734757 0.924738884 0.36675328
vn 7.28070008E-05 0.870320797 0.492485195
vn -0.439696968 0.76840204 -0.465000004
vn -0.488341928 0.794154584 0.361719042
vn -0.533579648 0.843960941 -0.0549783334
vn -0.518474698 0.732087672 -0.441850185
vn -0.562173188 0.745646358 0.357732832
vn -0.603242874 0.796935141 -0.0315000899
vn 0.0793470219 0.774072766 0.628104568
vn -0.0601110682 0.887045264 0.457752615
vn 0.194323778 0.973860443 0.117618136
vn -0.0796225518 0.996595204 -0.0214066543
vn -0.0165195521 0.932280719 -0.361358285
vn 0.132906809 0.887910306 -0.440398932
vn 0.266396135 0.785140038 0.559095979
vn 0.348900944 0.882064879 -0.316590667
vn 0.3619304 0.922045946 0.13725023
vn 0.556467593 0.639345467 0.530642211
vn 0.641545594 0.714672446 -0.278679997
vn 0.666805863 0.731957138 0.140031219
vn 0.612932146 0.595146894 0.519725442
vn 0.701635182 0.653386176 -0.284243852
vn 0.723889887 0.679411411 0.119931802
vn 0.328111023 0.876222968 -0.352953821
vn 0.360601127 0.908186495 -0.212518364
vn -0.0186300669 0.999753892 -0.0120466463
vn 0.151043996 0.984930277 0.0842496306
vn -0.176844075 0.89882797 0.401041716
vn -0.310182959 0.860747874 0.403608084
vn 0.0495898798 0.862736046 -0.503217041
vn -0.482400209 0.866670072 0.127173007
vn -0.241576895 0.944293439 -0.223496184
vn -0.0573218502 0.81616497 -0.574968636
vn -0.590270817 0.807170033 0.00754411845
vn -0.367475867 0.873250365 -0.319992691
vn -0.127860799 0.786435068 -0.60429424
vn -0.638524234 0.768462718 -0.041855257
vn -0.439198941 0.828069746 -0.348432034
vn 0.188609198 0.948425233 0.254786521
vn -0.129215702 0.988862097 0.0738595873
vn 0.0139989387 0.997694194 -0.0664093867
vn -0.365307629 0.919832349 -0.143033937
vn 0.391387582 0.898949921 0.196735337
vn 0.120596141 0.977942288 -0.170544624
vn -0.343879908 0.883694768 -0.317537457
vn 0.434209168 0.895466864 0.0979870036
vn -0.241160616 0.888730884 -0.389870495
vn 0.592811346 0.796320736 -0.120200358
vn -0.113812067 0.782651842 -0.611966431
vn 0.284594744 0.865450203 -0.412312597
vn 0.618455768 0.769378364 -0.159904152
vn -0.0728985518 0.761824369 -0.643668771
vn 0.326522708 0.827398181 -0.456941187
vn -0.136279315 0.900085628 -0.413852364
vn 0.00300998101 0.938782334 -0.344497561
vn 0.0192967523 0.999624372 0.0194622166
vn 0.200397134 0.979614198 0.0140370792
vn 0.308854163 0.892655611 0.328290999
vn 0.231464773 0.87876749 0.417362988
vn -0.323873162 0.911700845 -0.25279966
vn 0.0162676945 0.891580462 0.452570081
vn -0.165257797 0.981828809 0.0932851136
vn -0.637691855 0.757820308 -0.1380485
vn -0.343290448 0.775901079 0.529272258
vn -0.518825054 0.82709837 0.216168553
vn -0.668069422 0.725445151 -0.165567294
vn -0.347173601 0.719551265 0.601428628
vn -0.544378042 0.806141198 0.231924295
vn -0.532354116 0.846351504 0.0169732664
vn -0.307767153 0.950570822 -0.0411631428
vn -0.107721545 0.963454664 0.245257393
vn 0.0334757641 0.997455418 0.0629455596
vn 0.312131673 0.920955896 0.233267978
vn 0.401939809 0.835538864 0.374592155
vn -0.568689227 0.806344926 0.162481606
vn 0.240121409 0.813781738 0.529245555
vn -0.193579674 0.901145756 0.387895882
vn -0.646378696 0.626862109 0.435015351
vn 0.105655216 0.62554276 0.773002744
vn -0.299523801 0.686710298 0.662355244
vn -0.687450469 0.531423271 0.494975954
vn 0.094566837 0.543099463 0.834326148
vn -0.336266518 0.604160368 0.722436845
vn -0.729345918 0.479236364 0.488248825
vn 0.108960286 0.495192677 0.861923277
vn -0.36733216 0.571501613 0.733793616
vn -0.255392432 0.909915984 0.326844841
vn -0.314019948 0.941611707 0.12148612
vn 0.00481064757 0.999795496 -0.0196419097
vn -0.145132467 0.971694887 -0.186401859
vn 0.0451494567 0.911454678 -0.408915401
vn 0.2198627 0.885636032 -0.409034431
vn -0.100654833 0.902758181 0.418206006
vn 0.369333714 0.90100491 -0.227558061
vn 0.154306859 0.981828153 0.110466622
vn 0.0717836022 0.862926185 0.500205576
vn 0.509964764 0.85296464 -0.111297935
vn 0.319615483 0.923274696 0.213095903
vn 0.23607181 0.778924823 0.580987453
vn 0.618095815 0.785924613 -0.0167344492
vn 0.452709645 0.83613193 0.309737533
vn 0.22296387 0.728078485 0.648219705
vn 0.659923136 0.751131654 0.017398173
vn 0.456525564 0.809011042 0.370250672
g O_env_th_cao3_1_0
f 3/3/3 2/2/2 1/1/1
f 3/3/3 4/4/4 2/2/2
f 5/5/5 4/4/4 3/3/3
f 5/5/5 3/3/3 6/6/6
f 7/7/7 6/6/6 3/3/3
f 3/3/3 8/8/8 7/7/7
f 11/11/11 10/10/10 9/9/9
f 11/11/11 9/9/9 12/12/12
f 11/11/11 13/13/13 10/10/10
f 12/12/12 14/14/14 11/11/11
f 15/15/15 13/13/13 11/11/11
f 14/14/14 16/16/16 11/11/11
f 15/15/15 11/11/11 16/16/16
f 19/19/19 18/18/18 17/17/17
f 19/19/19 17/17/17 20/20/20
f 19/19/19 21/21/21 18/18/18
f 20/20/20 22/22/22 19/19/19
f 19/19/19 23/23/23 21/21/21
f 22/22/22 24/24/24 19/19/19
f 19/19/19 24/24/24 23/23/23
f 27/27/27 26/26/26 25/25/25
f 27/27/27 25/25/25 28/28/28
f 27/27/27 29/29/29 26/26/26
f 28/28/28 30/30/30 27/27/27
f 31/31/31 29/29/29 27/27/27
f 27/27/27 30/30/30 32/32/32
f 31/31/31 27/27/27 33/33/33
f 32/32/32 33/33/33 27/27/27
f 36/36/36 35/35/35 34/34/34
f 36/36/36 37/37/37 35/35/35
f 38/38/38 37/37/37 36/36/36
f 38/38/38 36/36/36 39/39/39
f 40/40/40 36/36/36 34/34/34
f 41/41/41 39/39/39 36/36/36
f 40/40/40 42/42/42 36/36/36
f 36/36/36 42/42/42 41/41/41
f 43/43/43 42/42/42 40/40/40
f 44/44/44 41/41/41 42/42/42
f 43/43/43 45/45/45 42/42/42
f 44/44/44 42/42/42 45/45/45
f 48/48/48 47/47/47 46/46/46
f 48/48/48 49/49/49 47/47/47
f 50/50/50 49/49/49 48/48/48
f 50/50/50 48/48/48 51/51/51
f 48/48/48 46/46/46 52/52/52
f 53/53/53 51/51/51 48/48/48
f 52/52/52 54/54/54 48/48/48
f 48/48/48 54/54/54 53/53/53
f 55/55/55 54/54/54 52/52/52
f 56/56/56 53/53/53 54/54/54
f 55/55/55 57/57/57 54/54/54
f 56/56/56 54/54/54 57/57/57
f 60/60/60 59/59/59 58/58/58
f 60/60/60 61/61/61 59/59/59
f 62/62/62 61/61/61 60/60/60
f 62/62/62 60/60/60 63/63/63
f 60/60/60 58/58/58 64/64/64
f 65/65/65 63/63/63 60/60/60
f 64/64/64 66/66/66 60/60/60
f 60/60/60 66/66/66 65/65/65
f 67/67/67 66/66/66 64/64/64
f 66/66/66 68/68/68 65/65/65
f 67/67/67 69/69/69 66/66/66
f 66/66/66 69/69/69 68/68/68
f 72/72/72 71/71/71 70/70/70
f 72/72/72 73/73/73 71/71/71
f 74/74/74 73/73/73 72/72/72
f 74/74/74 72/72/72 75/75/75
f 72/72/72 70/70/70 76/76/76
f 77/77/77 75/75/75 72/72/72
f 76/76/76 78/78/78 72/72/72
f 72/72/72 78/78/78 77/77/77
f 78/78/78 76/76/76 79/79/79
f 80/80/80 77/77/77 78/78/78
f 78/78/78 79/79/79 81/81/81
f 78/78/78 81/81/81 80/80/80
f 82/82/82 81/81/81 79/79/79
f 83/83/83 80/80/80 81/81/81
f 82/82/82 84/84/84 81/81/81
f 83/83/83 81/81/81 84/84/84
f 87/87/87 86/86/86 85/85/85
f 87/87/87 88/88/88 86/86/86
f 89/89/89 88/88/88 87/87/87
f 89/89/89 87/87/87 90/90/90
f 87/87/87 85/85/85 91/91/91
f 92/92/92 90/90/90 87/87/87
f 91/91/91 93/93/93 87/87/87
f 87/87/87 93/93/93 92/92/92
f 93/93/93 91/91/91 94/94/94
f 95/95/95 92/92/92 93/93/93
f 93/93/93 94/94/94 96/96/96
f 93/93/93 96/96/96 95/95/95
f 97/97/97 96/96/96 94/94/94
f 98/98/98 95/95/95 96/96/96
f 97/97/97 99/99/99 96/96/96
f 98/98/98 96/96/96 99/99/99
f 102/102/102 101/101/101 100/100/100
f 103/103/103 101/101/101 102/102/102
f 102/102/102 100/100/100 104/104/104
f 105/105/105 102/102/102 104/104/104
f 103/103/103 102/102/102 106/106/106
f 105/105/105 106/106/106 102/102/102
f 105/105/105 104/104/104 107/107/107
f 105/105/105 108/108/108 106/106/106
f 105/105/105 107/107/107 109/109/109
f 110/110/110 108/108/108 105/105/105
f 109/109/109 111/111/111 105/105/105
f 105/105/105 111/111/111 110/110/110
f 111/111/111 109/109/109 112/112/112
f 111/111/111 113/113/113 110/110/110
f 111/111/111 112/112/112 114/114/114
f 111/111/111 114/114/114 113/113/113
f 117/117/117 116/116/116 115/115/115
f 117/117/117 118/118/118 116/116/116
f 119/119/119 118/118/118 117/117/117
f 119/119/119 117/117/117 120/120/120
f 117/117/117 115/115/115 121/121/121
f 122/122/122 120/120/120 117/117/117
f 121/121/121 123/123/123 117/117/117
f 117/117/117 123/123/123 122/122/122
f 123/123/123 121/121/121 124/124/124
f 125/125/125 122/122/122 123/123/123
f 124/124/124 126/126/126 123/123/123
f 123/123/123 126/126/126 125/125/125
f 126/126/126 124/124/124 127/127/127
f 128/128/128 125/125/125 126/126/126
f 126/126/126 127/127/127 129/129/129
f 128/128/128 126/126/126 129/129/129
f 132/132/132 131/131/131 130/130/130
f 132/132/132 133/133/133 131/131/131
f 134/134/134 133/133/133 132/132/132
f 134/134/134 132/132/132 135/135/135
f 132/132/132 130/130/130 136/136/136
f 137/137/137 135/135/135 132/132/132
f 136/136/136 138/138/138 132/132/132
f 132/132/132 138/138/138 137/137/137
f 138/138/138 136/136/136 139/139/139
f 140/140/140 137/137/137 138/138/138
f 139/139/139 141/141/141 138/138/138
f 138/138/138 141/141/141 140/140/140
f 142/142/142 141/141/141 139/139/139
f 143/143/143 140/140/140 141/141/141
f 142/142/142 144/144/144 141/141/141
f 143/143/143 141/141/141 144/144/144
f 144/144/144 142/142/142 145/145/145
f 146/146/146 143/143/143 144/144/144
f 144/144/144 145/145/145 147/147/147
f 146/146/146 144/144/144 147/147/147
f 150/150/150 149/149/149 148/148/148
f 150/150/150 151/151/151 149/149/149
f 150/150/150 152/152/152 151/151/151
f 150/150/150 153/153/153 152/152/152
f 150/150/150 148/148/148 154/154/154
f 155/155/155 153/153/153 150/150/150
f 154/154/154 156/156/156 150/150/150
f 150/150/150 156/156/156 155/155/155
f 157/157/157 156/156/156 154/154/154
f 158/158/158 155/155/155 156/156/156
f 157/157/157 159/159/159 156/156/156
f 156/156/156 159/159/159 158/158/158
f 160/160/160 159/159/159 157/157/157
f 161/161/161 158/158/158 159/159/159
f 160/160/160 162/162/162 159/159/159
f 159/159/159 162/162/162 161/161/161
f 163/163/163 162/162/162 160/160/160
f 162/162/162 164/164/164 161/161/161
f 163/163/163 165/165/165 162/162/162
f 162/162/162 165/165/165 164/164/164
