g A_Monster_Zombie01_tou_mdl
v 0.343613058 1.58699226 0.453538954
v 0.433318019 1.5806061 0.287239999
v 0.399846017 1.52630031 0.367496014
v 0.432655007 1.68022823 0.287263036
v 0.350344986 1.68673921 0.456819981
v 0.476605982 1.66870832 -0.0127430726
v 0.222963005 1.59034634 0.540872037
v 0.282607049 1.52302706 0.463923931
v 0.424028009 1.82716322 0.272073954
v 0.203036964 1.691342 0.576685905
v 0.149150029 1.59155512 0.572380006
v -3.81469718E-08 1.69261718 0.609896004
v 0.193703011 1.53481126 0.539306045
v 0.0303450394 1.59251297 0.59730804
v 0.128193989 1.49493039 0.550709009
v -0.122828044 1.59176826 0.577902973
v -1.90734859E-08 1.50935411 0.577093065
v 0.441495955 1.81619215 -0.0136320489
v 0.352140039 1.97810531 0.228688046
v 0.349356979 1.83336294 0.433547974
v 0.257106036 1.80425441 -0.32742691
v 0.26997599 1.65615904 -0.346792907
v 1.90734859E-08 1.80075526 -0.409799933
v -0 1.65250397 -0.427035958
v -0.269975066 1.65615928 -0.346792907
v -0.257105947 1.80425441 -0.32742691
v -0.471051127 1.66870797 -0.0127430726
v -1.90734859E-08 1.98198223 -0.317689955
v 0.207689077 1.97872329 -0.252987981
v 0.366646945 1.96924222 -0.00210403441
v 0.294465005 2.04163742 -0.00430602999
v -0.207689106 1.97872293 -0.252987981
v 3.81469718E-08 2.06091619 -0.219369963
v -0.441496015 1.81619227 -0.0136329643
v 0.140322015 2.08434081 -0.0304100029
v 0.254310995 2.06786442 0.205005944
v 0.100140013 2.10666323 0.171459049
v 1.90162646E-05 2.09770632 -0.0415719599
v 1.90734859E-08 2.11306691 0.0694169626
v -0.136839047 2.08151293 -0.0345089696
v 0.253230989 2.02086401 0.33466202
v 0.150674 2.08115792 0.307779998
v 1.90734859E-08 2.10855722 0.220796049
v -0.0916610137 2.10662818 0.170547932
v 0.291300982 1.96762717 0.383661032
v 0.159947976 2.00159287 0.47348997
v 0.158391014 2.0304482 0.414523929
v -1.90734859E-08 2.08321524 0.361354053
v -0.149989963 2.08115864 0.307779998
v -0.254311085 2.06698418 0.182077944
v 1.90734859E-08 2.03638625 0.442467958
v -0.158391014 2.0304482 0.414523929
v -0.159947976 2.0015595 0.462057024
v -0.253231019 2.02086425 0.33466202
v -0.352140099 1.97810531 0.228688046
v -0.294465065 2.04163742 -0.00430694548
v -0.366646945 1.96924245 -0.00210403441
v -1.90734859E-08 1.97251523 0.510939002
v -0.291301042 1.96762717 0.383661032
v -0.42402792 1.82716322 0.27207306
v -0.349358141 1.83336329 0.433547974
v -0.350345075 1.68673921 0.456819981
v -0.445660204 1.68022823 0.287263036
v -0.446510077 1.64422119 0.28725493
v -0.343614042 1.58699214 0.453538954
v -0.377687126 1.54265749 0.401369989
v -0.337009043 1.55503488 0.447788984
v -0.312580019 1.49154007 0.46241501
v -0.247040987 1.58987129 0.528505981
v -0.243612036 1.89631724 0.474835038
v -0.265073001 1.81506431 0.494236887
v -0.208564088 1.95722699 0.462523043
v -0.157075956 1.96992552 0.481437981
v -0.108558975 1.94712532 0.505496979
v -0.24902305 1.751688 0.516071022
v -0.200632021 1.69125032 0.574280024
v -0.195629969 1.73376906 0.553585947
v -0.13312605 1.74349821 0.56465596
v -0.159974948 1.47662222 0.519029021
v -1.90734859E-08 1.88621604 0.562621891
v -0.0890809819 1.8630513 0.548446059
v -1.90734859E-08 1.79170525 0.59603399
v -0.102835022 1.80469131 0.566741943
v 0.11073301 1.74227822 0.579990983
v 0.0776840225 1.79257536 0.580870032
v 0.20080705 1.7178154 0.565973938
v 0.0649619624 1.88351524 0.546912968
v 0.280406058 1.75357938 0.517482996
v 0.294528008 1.80964422 0.489566952
v 0.261982977 1.89976203 0.464786053
v 0.220597059 1.9447403 0.477848053
v 0.0897959694 1.92604029 0.522489905
v 0.151652917 1.95554221 0.501945913
v -0.349386096 1.53239715 0.440746993
v -0.334519118 1.45181191 0.413935989
v -0.399761081 1.49009728 0.315906972
v -0.380603999 1.39565432 0.26443398
v -0.27819705 1.40142334 0.41465193
v -0.422904134 1.48451698 0.279531002
v -0.446810067 1.52524817 0.0929150358
v -0.440893084 1.5806061 0.287239999
v -0.446510077 1.64422119 0.28725493
v -0.471051127 1.66870797 -0.0127430726
v -0.423748165 1.51793408 -0.097555995
v -0.269975066 1.65615928 -0.346792907
v -0.344900042 1.34472728 -0.0542410277
v -0.257106006 1.50966203 -0.312975913
v -0.361607045 1.35063529 0.0996199772
v -1.90734859E-08 1.50616205 -0.396046907
v -0 1.65250397 -0.427035958
v 0.26997599 1.65615904 -0.346792907
v -0.256404996 1.32203627 0.362422019
v -0.328029007 1.31743217 0.242527992
v -0.244096979 1.24180508 0.057097014
v -0.157651007 1.40468538 0.499615997
v -0.204520017 1.48673606 0.491108
v -0.237404972 1.24873614 0.237610012
v -0.16106005 1.32511199 0.442534029
v -0 1.33243334 -0.300298899
v 0.257106006 1.50966203 -0.312974989
v -0.212135002 1.33546829 -0.23517105
v -0.188544959 1.24585307 -0.131609946
v 3.81469718E-08 1.24367523 -0.188322067
v 0.435928941 1.51793408 -0.0975549296
v 0.476605982 1.66870832 -0.0127430726
v 0.212135106 1.33546805 -0.23517105
v 0.344278038 1.34472728 -0.0542410277
v 0.411962956 1.38926888 0.0981370509
v 0.457148045 1.52524817 0.0929150358
v 0.433318019 1.5806061 0.287239999
v 0.431614071 1.48322797 0.245955959
v 0.398450017 1.43314493 0.270803988
v 0.188546002 1.24585307 -0.131609946
v 3.81469718E-08 1.21706033 0.0026370238
v -0.0846089721 1.21778226 0.0214499664
v -0.105161004 1.21259606 0.122593991
v 3.81469718E-08 1.21732223 0.104738995
v 0.0846090093 1.21778214 0.0214499664
v 0.244097069 1.24180496 0.057097014
v 1.90734859E-08 1.21248507 0.201346964
v 0.105160996 1.21259606 0.122593991
v -0 1.24587905 0.365056992
v 0.237405062 1.24873614 0.237610012
v 0.353503942 1.31200218 0.101103969
v 0.326537997 1.31743193 0.242527992
v -1.90734859E-08 1.32619202 0.470664978
v 0.161060005 1.32511222 0.442534029
v 0.157651007 1.40468538 0.499615997
v 0.24773103 1.32203627 0.362422019
v 0.380603999 1.39565444 0.26443398
v 0.331068039 1.39865732 0.342635959
v 0.386693954 1.48671234 0.336695999
v 0.291301012 1.40106821 0.405415952
v 0.323676974 1.50977898 0.435442954
v 0.259491056 1.43957424 0.450166017
v 0.173994988 1.5142231 0.531322002
v 0.127200022 1.4524405 0.529711962
v 3.81469718E-08 1.40595531 0.532694995
v -1.90734859E-08 1.44375134 0.551553965
v 0.0398200043 1.54549527 0.582677007
v -0.128333047 1.51435304 0.558179975
v -0.243612036 1.89631724 0.474835038
v -0.208564088 1.95722699 0.462523043
v -0.192890033 1.94119024 0.443305045
v -0.224413127 1.88238311 0.451717049
v -0.265073001 1.81506431 0.494236887
v -0.24491407 1.80587244 0.469983041
v -0.24902305 1.751688 0.516071022
v -0.22938697 1.74977326 0.489763021
v -0.108558975 1.94712532 0.505496979
v -0.105254076 1.9325372 0.470242918
v -0.150742009 1.95357692 0.457731009
v -0.157075956 1.96992552 0.481437981
v -0.208564088 1.95722699 0.462523043
v -0.192890033 1.94119024 0.443305045
v -0.13312605 1.74349821 0.56465596
v -0.184240013 1.73096824 0.522705972
v -0.126483053 1.73979032 0.531771004
v -0.195629969 1.73376906 0.553585947
v -0.24902305 1.751688 0.516071022
v -0.22938697 1.74977326 0.489763021
v -0.13312605 1.74349821 0.56465596
v -0.126483053 1.73979032 0.531771004
v -0.0969260186 1.79760122 0.532151043
v -0.102835022 1.80469131 0.566741943
v -0.0890809819 1.8630513 0.548446059
v -0.0844589993 1.84925818 0.51363796
v -0.108558975 1.94712532 0.505496979
v -0.105254076 1.9325372 0.470242918
v -0.27819705 1.40142334 0.41465193
v -0.305988997 1.47203112 0.394655973
v -0.254549921 1.42916548 0.395622998
v -0.334519118 1.45181191 0.413935989
v -0.349386096 1.53239715 0.440746993
v -0.315972984 1.54494536 0.41733703
v -0.446510077 1.64422119 0.28725493
v -0.418530792 1.64623451 0.270917058
v -0.413667053 1.58784115 0.271065056
v -0.440893084 1.5806061 0.287239999
v -0.399761081 1.49009728 0.315906972
v -0.367364943 1.50184989 0.294154972
v -0.337009043 1.55503488 0.447788984
v -0.312580019 1.49154007 0.46241501
v -0.287132919 1.49230599 0.42969802
v -0.310248971 1.5604322 0.417234957
v -0.312580019 1.49154007 0.46241501
v -0.247040987 1.58987129 0.528505981
v -0.223725885 1.58132827 0.493556976
v -0.287132919 1.49230599 0.42969802
v -0.159974948 1.47662222 0.519029021
v -0.150136903 1.48534513 0.493322968
v -0.223725885 1.58132827 0.493556976
v -0.247040987 1.58987129 0.528505981
v -0.159974948 1.47662222 0.519029021
v -0.122828044 1.59176826 0.577902973
v -0.11390394 1.60244393 0.538504004
v -0.150136903 1.48534513 0.493322968
v -1.90734859E-08 1.50935411 0.577093065
v 0.0303450394 1.59251297 0.59730804
v 0.0326540954 1.59368742 0.556810975
v 0.00466508837 1.51704025 0.535762012
v 0.128193989 1.49493039 0.550709009
v 0.149150029 1.59155512 0.572380006
v 0.139840156 1.59032762 0.533490002
v 0.120687097 1.50518227 0.510447979
v 0.193703011 1.53481126 0.539306045
v 0.179143146 1.54390728 0.500948906
v 0.139840156 1.59032762 0.533490002
v 0.149150029 1.59155512 0.572380006
v 0.222963005 1.59034634 0.540872037
v 0.205341101 1.6028173 0.505466998
v 0.179143146 1.54390728 0.500948906
v 0.193703011 1.53481126 0.539306045
v 0.282607049 1.52302706 0.463923931
v 0.261922091 1.53887296 0.431470931
v 0.205341101 1.6028173 0.505466998
v 0.222963005 1.59034634 0.540872037
v 0.282607049 1.52302706 0.463923931
v 0.343613058 1.58699226 0.453538954
v 0.316582143 1.58821821 0.425789028
v 0.261922091 1.53887296 0.431470931
v 0.399846017 1.52630031 0.367496014
v 0.366467059 1.52519 0.343977034
v 0.316582143 1.58821821 0.425789028
v 0.343613058 1.58699226 0.453538954
v 0.433318019 1.5806061 0.287239999
v 0.41317907 1.58521605 0.271607041
v 0.366467059 1.52519 0.343977034
v 0.399846017 1.52630031 0.367496014
v -0.399761081 1.49009728 0.315906972
v -0.367364943 1.50184989 0.294154972
v -0.315972984 1.54494536 0.41733703
v -0.349386096 1.53239715 0.440746993
v -0.204520017 1.48673606 0.491108
v -0.189451903 1.49534023 0.455738962
v -0.143111929 1.41524935 0.463284969
v -0.157651007 1.40468538 0.499615997
v -0.157651007 1.40468538 0.499615997
v -0.143111929 1.41524935 0.463284969
v -0.121416889 1.53218031 0.520681977
v -0.128333047 1.51435304 0.558179975
v -1.90734859E-08 1.50935411 0.577093065
v 0.00466508837 1.51704025 0.535762012
v -0.11390394 1.60244393 0.538504004
v -0.122828044 1.59176826 0.577902973
v 0.0398200043 1.54549527 0.582677007
v -1.90734859E-08 1.44375134 0.551553965
v -1.5830994E-05 1.45976651 0.513262033
v 0.0328731351 1.55969727 0.543588996
v 0.128193989 1.49493039 0.550709009
v 0.120687097 1.50518227 0.510447979
v 0.0326540954 1.59368742 0.556810975
v 0.0303450394 1.59251297 0.59730804
v 0.127200022 1.4524405 0.529711962
v 0.0398200043 1.54549527 0.582677007
v 0.0328731351 1.55969727 0.543588996
v 0.116466098 1.46580422 0.491499007
v 0.173994988 1.5142231 0.531322002
v 0.127200022 1.4524405 0.529711962
v 0.116466098 1.46580422 0.491499007
v 0.157096133 1.52678144 0.495236039
v 0.259491056 1.43957424 0.450166017
v 0.173994988 1.5142231 0.531322002
v 0.157096133 1.52678144 0.495236039
v 0.238694116 1.45351422 0.416990042
v 0.259491056 1.43957424 0.450166017
v 0.238694116 1.45351422 0.416990042
v 0.297188133 1.52517211 0.408564985
v 0.323676974 1.50977898 0.435442954
v 0.331068039 1.39865732 0.342635959
v 0.323676974 1.50977898 0.435442954
v 0.297188133 1.52517211 0.408564985
v 0.306608081 1.41559792 0.320731044
v 0.386693954 1.48671234 0.336695999
v 0.331068039 1.39865732 0.342635959
v 0.306608081 1.41559792 0.320731044
v 0.357131124 1.50509429 0.315122992
v 0.386693954 1.48671234 0.336695999
v 0.357131124 1.50509429 0.315122992
v 0.366569042 1.45236886 0.255865008
v 0.398450017 1.43314493 0.270803988
v 0.431614071 1.48322797 0.245955959
v 0.398450017 1.43314493 0.270803988
v 0.366569042 1.45236886 0.255865008
v 0.395430207 1.49842501 0.237929985
v 0.433318019 1.5806061 0.287239999
v 0.431614071 1.48322797 0.245955959
v 0.395430207 1.49842501 0.237929985
v 0.41317907 1.58521605 0.271607041
v -0.377687126 1.54265749 0.401369989
v -0.337009043 1.55503488 0.447788984
v -0.310248971 1.5604322 0.417234957
v -0.347775042 1.54828203 0.374543995
v -0.446510077 1.64422119 0.28725493
v -0.377687126 1.54265749 0.401369989
v -0.347775042 1.54828203 0.374543995
v -0.418530792 1.64623451 0.270917058
v -0.128333047 1.51435304 0.558179975
v -0.121416889 1.53218031 0.520681977
v -1.5830994E-05 1.45976651 0.513262033
v -1.90734859E-08 1.44375134 0.551553965
v -0.204520017 1.48673606 0.491108
v -0.27819705 1.40142334 0.41465193
v -0.254549921 1.42916548 0.395622998
v -0.189451903 1.49534023 0.455738962
v 0.0450500101 2.29883122 0.112700954
v 0.0276320074 2.3019433 0.0812959298
v 0.0236949716 2.23098922 0.0762780756
v 0.040971946 2.22790313 0.107427061
v 0.024228001 2.16270924 0.057021942
v 0.00856302213 2.29986715 0.143383935
v 0.0501079932 2.1580863 0.103681944
v 0.0496250726 2.08881426 0.000451049797
v 0.105157986 2.08037925 0.100146025
v -0.0107169915 2.08065152 0.197550043
v 0.00478099799 2.22893047 0.137861013
v -0.0268230811 2.30435991 0.111739039
v -0.00410398468 2.15962434 0.149270013
v -0.123385005 2.09198904 0.0970919803
v -0.0303180497 2.2333858 0.106472932
v -0.00830501504 2.30470729 0.0808149725
v -0.0566799901 2.1663003 0.10225296
v -0.0119499965 2.23373008 0.0758009329
v 0.0276320074 2.3019433 0.0812959298
v 0.0236949716 2.23098922 0.0762780756
v -0.0291659925 2.16681623 0.0563070662
v -0.0646459535 2.09461927 -0.00107604975
v 0.024228001 2.16270924 0.057021942
v 0.0496250726 2.08881426 0.000451049797
v 0.039022997 2.29948163 0.112588041
v 0.021851996 2.2743845 0.0953169242
v 0.106335081 2.2540164 0.0947480723
v 0.109080024 2.26996922 0.112702936
v 0.106335044 2.25401616 0.130659029
v 0.021851996 2.2743845 0.131519929
v 0.021851996 2.2743845 0.0953169242
v 0.106335081 2.2540164 0.0947480723
v 0.205639049 2.24132156 0.112619929
v 0.193621039 2.23300934 0.0942269862
v 0.21073103 2.18657422 0.112702936
v 0.196765989 2.18844485 0.0959280357
v 0.177011997 2.15171814 0.0969569385
v 0.193774045 2.23306441 0.131179959
v 0.193621039 2.23300934 0.0942269862
v 0.196765989 2.18844485 0.129479066
v 0.196765989 2.18844485 0.0959280357
v 0.177011997 2.15171814 0.128450006
v 0.177011997 2.15171814 0.0969569385
v 0.179969996 2.13843799 0.112702936
v 0.112922989 2.14910316 0.112702936
v 0.123305984 2.16003942 0.102917023
v 0.118774012 2.20817327 0.112702936
v 0.126296028 2.19767833 0.106631011
v 0.157397017 2.19665837 0.10590896
v 0.123305984 2.16003942 0.122489013
v 0.123305984 2.16003942 0.102917023
v 0.126296028 2.19767833 0.106631011
v 0.126296028 2.19767833 0.118775934
v 0.157397017 2.19665837 0.10590896
v 0.157397017 2.19665837 0.119497985
v 0.163628027 2.18200326 0.112704009
v 0.159359992 2.20804334 0.112702936
v 0.168107048 2.18977451 0.122879945
v 0.174599007 2.18246603 0.112702936
v 0.176087052 2.19629455 0.112702936
v 0.168107048 2.18977451 0.102527007
v 0.163628027 2.18200326 0.112704009
v 0.261982977 1.89976203 0.464786053
v 0.268827081 1.79792464 0.458643943
v 0.23750405 1.88199747 0.435312033
v 0.200612918 1.92167091 0.449490041
v 0.294528008 1.80964422 0.489566952
v 0.220597059 1.9447403 0.477848053
v 0.255596012 1.75040054 0.483782023
v 0.280406058 1.75357938 0.517482996
v 0.143577024 1.93207633 0.467866033
v 0.151652917 1.95554221 0.501945913
v 0.186342031 1.71272123 0.526669979
v 0.20080705 1.7178154 0.565973938
v 0.0897959694 1.92604029 0.522489905
v 0.0855830163 1.90745878 0.483824909
v 0.0590690039 1.86594665 0.507962942
v 0.0649619624 1.88351524 0.546912968
v 0.11073301 1.74227822 0.579990983
v 0.102092989 1.73676407 0.538289964
v 0.0701510012 1.78356314 0.546287954
v 0.0776840225 1.79257536 0.580870032
v 0.0276320074 2.3019433 0.0812959298
v 0.00911399815 2.3015964 0.112219997
v -0.00830501504 2.30470729 0.0808149725
v 0.0450500101 2.29883122 0.112700954
v -0.0268230811 2.30435991 0.111739039
v 0.00856302213 2.29986715 0.143383935
vt 0.503417969 0.141845703
vt 0.562011719 0.234741211
vt 0.554199219 0.182983398
vt 0.526855469 0.255859375
vt 0.4765625 0.169799805
vt 0.559082031 0.427490234
vt 0.431640625 0.0817871094
vt 0.493164062 0.103088379
vt 0.481445312 0.283447266
vt 0.394287109 0.106445312
vt 0.376708984 0.0600280762
vt 0.281494141 0.0884399414
vt 0.415283203 0.0576477051
vt 0.298095703 0.0537414551
vt 0.354736328 0.027633667
vt 0.198364258 0.064453125
vt 0.263183594 0.0304718018
vt 0.496337891 0.418212891
vt 0.427001953 0.313964844
vt 0.441162109 0.215820312
vt 0.403564453 0.566894531
vt 0.435058594 0.613769531
vt 0.280273438 0.604492188
vt 0.280029297 0.663574219
vt 0.123535156 0.61328125
vt 0.158447266 0.564941406
vt 0.00876617432 0.42578125
vt 0.28125 0.529296875
vt 0.365478516 0.506835938
vt 0.431152344 0.405761719
vt 0.394287109 0.404541016
vt 0.200195312 0.503417969
vt 0.283203125 0.484130859
vt 0.0720214844 0.417480469
vt 0.336425781 0.415283203
vt 0.37890625 0.327636719
vt 0.322265625 0.341796875
vt 0.284912109 0.418457031
vt 0.285888672 0.378417969
vt 0.234741211 0.416503906
vt 0.382080078 0.277832031
vt 0.340576172 0.292480469
vt 0.286865234 0.32421875
vt 0.25390625 0.342041016
vt 0.399902344 0.254394531
vt 0.344726562 0.228515625
vt 0.344238281 0.251220703
vt 0.287109375 0.273193359
vt 0.233764648 0.292724609
vt 0.193969727 0.336669922
vt 0.287109375 0.239379883
vt 0.229980469 0.250732422
vt 0.228759766 0.230957031
vt 0.192504883 0.279296875
vt 0.146484375 0.315917969
vt 0.176025391 0.404052734
vt 0.138793945 0.405273438
vt 0.287109375 0.204467773
vt 0.175048828 0.256835938
vt 0.0915527344 0.286621094
vt 0.134277344 0.221435547
vt 0.101745605 0.177856445
vt 0.044342041 0.258789062
vt 0.0315246582 0.254394531
vt 0.0759277344 0.154785156
vt 0.0450744629 0.170654297
vt 0.0642700195 0.148681641
vt 0.0626831055 0.123779297
vt 0.124084473 0.106933594
vt 0.182250977 0.211303711
vt 0.162719727 0.186157227
vt 0.205322266 0.224853516
vt 0.228271484 0.218994141
vt 0.246582031 0.202270508
vt 0.160400391 0.157836914
vt 0.176269531 0.114868164
vt 0.183349609 0.130737305
vt 0.215332031 0.126342773
vt 0.138916016 0.0522766113
vt 0.286376953 0.166137695
vt 0.250488281 0.165039062
vt 0.284912109 0.127319336
vt 0.240478516 0.143310547
vt 0.340820312 0.115234375
vt 0.319580078 0.131591797
vt 0.390625 0.117431641
vt 0.312011719 0.168945312
vt 0.425048828 0.156860352
vt 0.423828125 0.184936523
vt 0.396972656 0.213256836
vt 0.372802734 0.219116211
vt 0.320800781 0.19140625
vt 0.34375 0.21081543
vt 0.505371094 0.856933594
vt 0.533203125 0.853515625
vt 0.493652344 0.8046875
vt 0.53515625 0.789550781
vt 0.569335938 0.8671875
vt 0.495849609 0.783691406
vt 0.495361328 0.698242188
vt 0.455322266 0.76953125
vt 0.431152344 0.7578125
vt 0.459228516 0.625488281
vt 0.528320312 0.627441406
vt 0.582519531 0.493164062
vt 0.58203125 0.673339844
vt 0.607421875 0.548828125
vt 0.562011719 0.729003906
vt 0.712890625 0.520507812
vt 0.713378906 0.46484375
vt 0.843261719 0.493652344
vt 0.596191406 0.841796875
vt 0.573242188 0.787597656
vt 0.622558594 0.727539062
vt 0.625488281 0.922363281
vt 0.5859375 0.916992188
vt 0.616699219 0.793457031
vt 0.635253906 0.880859375
vt 0.712890625 0.592773438
vt 0.818359375 0.549316406
vt 0.639160156 0.615234375
vt 0.649902344 0.6640625
vt 0.712890625 0.645996094
vt 0.899414062 0.627441406
vt 0.967773438 0.621582031
vt 0.787109375 0.616210938
vt 0.844726562 0.675292969
vt 0.886230469 0.724121094
vt 0.934082031 0.695800781
vt 0.980957031 0.760742188
vt 0.938964844 0.768066406
vt 0.914550781 0.793457031
vt 0.776367188 0.665039062
vt 0.712890625 0.716308594
vt 0.682128906 0.721679688
vt 0.672851562 0.757324219
vt 0.711914062 0.752929688
vt 0.743164062 0.722167969
vt 0.803222656 0.729980469
vt 0.711425781 0.788085938
vt 0.751953125 0.758300781
vt 0.708496094 0.848144531
vt 0.807617188 0.795898438
vt 0.852050781 0.736328125
vt 0.853027344 0.793457031
vt 0.70703125 0.895507812
vt 0.778808594 0.878417969
vt 0.783203125 0.913574219
vt 0.819824219 0.845214844
vt 0.892578125 0.794921875
vt 0.87890625 0.841796875
vt 0.917480469 0.822753906
vt 0.847167969 0.869140625
vt 0.872558594 0.89453125
vt 0.840332031 0.899414062
vt 0.805664062 0.943847656
vt 0.776855469 0.940917969
vt 0.708984375 0.93359375
vt 0.710449219 0.952148438
vt 0.744140625 0.9765625
vt 0.653808594 0.966308594
vt 0.182250977 0.211303711
vt 0.205322266 0.224853516
vt 0.20690918 0.21472168
vt 0.190063477 0.201904297
vt 0.162719727 0.186157227
vt 0.173828125 0.180053711
vt 0.160400391 0.157836914
vt 0.172363281 0.158935547
vt 0.246582031 0.202270508
vt 0.23449707 0.198242188
vt 0.222900391 0.211425781
vt 0.228271484 0.218994141
vt 0.205322266 0.224853516
vt 0.20690918 0.21472168
vt 0.215332031 0.126342773
vt 0.188476562 0.140625
vt 0.211791992 0.136230469
vt 0.183349609 0.130737305
vt 0.160400391 0.157836914
vt 0.172363281 0.158935547
vt 0.215332031 0.126342773
vt 0.211791992 0.136230469
vt 0.229248047 0.150512695
vt 0.240478516 0.143310547
vt 0.250488281 0.165039062
vt 0.237182617 0.16784668
vt 0.246582031 0.202270508
vt 0.23449707 0.198242188
vt 0.569335938 0.8671875
vt 0.530273438 0.8671875
vt 0.55859375 0.879882812
vt 0.533203125 0.853515625
vt 0.505371094 0.856933594
vt 0.496826172 0.8671875
vt 0.431152344 0.7578125
vt 0.426025391 0.768554688
vt 0.448242188 0.779296875
vt 0.455322266 0.76953125
vt 0.493652344 0.8046875
vt 0.478515625 0.811523438
vt 0.0642700195 0.148681641
vt 0.0626831055 0.123779297
vt 0.0506286621 0.117004395
vt 0.0484619141 0.144165039
vt 0.0626831055 0.123779297
vt 0.124084473 0.106933594
vt 0.112731934 0.0927734375
vt 0.0506286621 0.117004395
vt 0.138916016 0.0522766113
vt 0.131469727 0.0455322266
vt 0.112731934 0.0927734375
vt 0.124084473 0.106933594
vt 0.138916016 0.0522766113
vt 0.198364258 0.064453125
vt 0.194335938 0.0480651855
vt 0.131469727 0.0455322266
vt 0.263183594 0.0304718018
vt 0.298095703 0.0537414551
vt 0.299560547 0.035949707
vt 0.259765625 0.0155944824
vt 0.354736328 0.027633667
vt 0.376708984 0.0600280762
vt 0.385009766 0.0445556641
vt 0.354980469 0.0129928589
vt 0.415283203 0.0576477051
vt 0.419921875 0.0435180664
vt 0.385009766 0.0445556641
vt 0.376708984 0.0600280762
vt 0.431640625 0.0817871094
vt 0.445800781 0.0694580078
vt 0.419921875 0.0435180664
vt 0.415283203 0.0576477051
vt 0.493164062 0.103088379
vt 0.50390625 0.0948486328
vt 0.445800781 0.0694580078
vt 0.431640625 0.0817871094
vt 0.493164062 0.103088379
vt 0.503417969 0.141845703
vt 0.518066406 0.133666992
vt 0.50390625 0.0948486328
vt 0.554199219 0.182983398
vt 0.567871094 0.178588867
vt 0.518066406 0.133666992
vt 0.503417969 0.141845703
vt 0.562011719 0.234741211
vt 0.572753906 0.235839844
vt 0.567871094 0.178588867
vt 0.554199219 0.182983398
vt 0.493652344 0.8046875
vt 0.478515625 0.811523438
vt 0.496826172 0.8671875
vt 0.505371094 0.856933594
vt 0.5859375 0.916992188
vt 0.57421875 0.923828125
vt 0.613769531 0.93359375
vt 0.625488281 0.922363281
vt 0.625488281 0.922363281
vt 0.613769531 0.93359375
vt 0.649414062 0.979492188
vt 0.653808594 0.966308594
vt 0.263183594 0.0304718018
vt 0.259765625 0.0155944824
vt 0.194335938 0.0480651855
vt 0.198364258 0.064453125
vt 0.744140625 0.9765625
vt 0.710449219 0.952148438
vt 0.70703125 0.967773438
vt 0.747558594 0.990234375
vt 0.354736328 0.027633667
vt 0.354980469 0.0129928589
vt 0.299560547 0.035949707
vt 0.298095703 0.0537414551
vt 0.776855469 0.940917969
vt 0.744140625 0.9765625
vt 0.747558594 0.990234375
vt 0.784179688 0.956054688
vt 0.805664062 0.943847656
vt 0.776855469 0.940917969
vt 0.784179688 0.956054688
vt 0.813476562 0.953613281
vt 0.840332031 0.899414062
vt 0.805664062 0.943847656
vt 0.813476562 0.953613281
vt 0.84765625 0.913085938
vt 0.840332031 0.899414062
vt 0.84765625 0.913085938
vt 0.881835938 0.900878906
vt 0.872558594 0.89453125
vt 0.87890625 0.841796875
vt 0.872558594 0.89453125
vt 0.881835938 0.900878906
vt 0.889160156 0.849121094
vt 0.917480469 0.822753906
vt 0.87890625 0.841796875
vt 0.889160156 0.849121094
vt 0.927734375 0.827636719
vt 0.917480469 0.822753906
vt 0.927734375 0.827636719
vt 0.927734375 0.797851562
vt 0.914550781 0.793457031
vt 0.938964844 0.768066406
vt 0.914550781 0.793457031
vt 0.927734375 0.797851562
vt 0.9453125 0.781738281
vt 0.980957031 0.760742188
vt 0.938964844 0.768066406
vt 0.9453125 0.781738281
vt 0.982421875 0.770996094
vt 0.0450744629 0.170654297
vt 0.0642700195 0.148681641
vt 0.0484619141 0.144165039
vt 0.0316162109 0.171386719
vt 0.0315246582 0.254394531
vt 0.0450744629 0.170654297
vt 0.0316162109 0.171386719
vt 0.0205993652 0.252929688
vt 0.653808594 0.966308594
vt 0.649414062 0.979492188
vt 0.70703125 0.967773438
vt 0.710449219 0.952148438
vt 0.5859375 0.916992188
vt 0.569335938 0.8671875
vt 0.55859375 0.879882812
vt 0.57421875 0.923828125
vt 0.260742188 0.677734375
vt 0.239379883 0.677734375
vt 0.232299805 0.759765625
vt 0.253662109 0.759765625
vt 0.208374023 0.8515625
vt 0.286376953 0.677734375
vt 0.235717773 0.8515625
vt 0.154296875 0.982910156
vt 0.197509766 0.982910156
vt 0.276367188 0.982910156
vt 0.284423828 0.759765625
vt 0.310791016 0.677734375
vt 0.28125 0.8515625
vt 0.355224609 0.982910156
vt 0.31640625 0.759765625
vt 0.328857422 0.677734375
vt 0.330078125 0.8515625
vt 0.338623047 0.759765625
vt 0.348144531 0.677734375
vt 0.357910156 0.759765625
vt 0.361328125 0.8515625
vt 0.408447266 0.982910156
vt 0.385009766 0.8515625
vt 0.441894531 0.982910156
vt 0.0828857422 0.98046875
vt 0.116271973 0.98046875
vt 0.104553223 0.897460938
vt 0.0807495117 0.897460938
vt 0.056640625 0.897460938
vt 0.0489196777 0.98046875
vt 0.0140838623 0.98046875
vt 0.0216674805 0.897460938
vt 0.081237793 0.806152344
vt 0.10168457 0.806152344
vt 0.0814208984 0.759765625
vt 0.101074219 0.759765625
vt 0.100158691 0.716796875
vt 0.0606079102 0.806152344
vt 0.0248260498 0.806152344
vt 0.0614013672 0.759765625
vt 0.0286102295 0.759765625
vt 0.0614318848 0.716796875
vt 0.0313720703 0.716796875
vt 0.0807495117 0.716796875
vt 0.0755615234 0.663085938
vt 0.0881958008 0.663085938
vt 0.0709228516 0.62890625
vt 0.0797119141 0.62890625
vt 0.0819091797 0.598144531
vt 0.0621643066 0.663085938
vt 0.0439147949 0.663085938
vt 0.050994873 0.62890625
vt 0.0625 0.62890625
vt 0.0430908203 0.598144531
vt 0.0556030273 0.598144531
vt 0.0479736328 0.576171875
vt 0.0689697266 0.598144531
vt 0.0552062988 0.583984375
vt 0.0629882812 0.573242188
vt 0.063659668 0.586425781
vt 0.0715332031 0.584472656
vt 0.0775146484 0.575195312
vt 0.396972656 0.213256836
vt 0.409179688 0.177978516
vt 0.388916016 0.199951172
vt 0.37109375 0.205566406
vt 0.423828125 0.184936523
vt 0.372802734 0.219116211
vt 0.41015625 0.158081055
vt 0.425048828 0.156860352
vt 0.349853516 0.199584961
vt 0.34375 0.21081543
vt 0.384765625 0.131347656
vt 0.390625 0.117431641
vt 0.320800781 0.19140625
vt 0.332519531 0.184448242
vt 0.327392578 0.166748047
vt 0.312011719 0.168945312
vt 0.340820312 0.115234375
vt 0.349365234 0.128295898
vt 0.332275391 0.138061523
vt 0.319580078 0.131591797
vt 0.976074219 0.940429688
vt 0.944335938 0.9375
vt 0.957519531 0.966308594
vt 0.962890625 0.911621094
vt 0.92578125 0.962890625
vt 0.922363281 0.921386719
vn 0.763105929 -0.0901337191 0.639957309
vn 0.967440069 -0.0045795003 0.253058761
vn 0.872636616 0.149318278 0.464983195
vn 0.962756038 0.0482416712 0.266032934
vn 0.813132346 4.06147883E-05 0.582078874
vn 0.961900234 0.0918294862 -0.257517517
vn 0.544399798 -0.191026017 0.816785157
vn 0.533627927 -0.386840463 0.752061009
vn 0.933925331 0.292073101 0.206099287
vn 0.404187739 -0.0226191059 0.914396346
vn 0.217553735 -0.175979421 0.960052907
vn -0.0324286558 0.0134383682 0.999383688
vn 0.37938416 -0.225192919 0.897416234
vn 0.0308050774 -0.149261788 0.988317788
vn 0.196594387 -0.25497517 0.946751475
vn -0.231688872 -0.195122167 0.953020215
vn -0.122424208 -0.192027792 0.973723531
vn 0.905457258 0.327658832 -0.269790232
vn 0.814218163 0.563495278 0.139720663
vn 0.825142324 0.291191041 0.484095037
vn 0.533050358 0.308164179 -0.787967086
vn 0.56850183 0.0225823652 -0.822372019
vn -0 0.302617759 -0.953112066
vn -0 0.0197951496 -0.99980408
vn -0.573424697 0.0200811531 -0.819012105
vn -0.534392357 0.307101279 -0.787472904
vn -0.963770568 0.0566295125 -0.260651618
vn -2.34997827E-07 0.522061825 -0.852907598
vn 0.465895057 0.584501028 -0.664304376
vn 0.818405807 0.522345722 -0.239513576
vn 0.493004084 0.847574115 -0.196380183
vn -0.466060579 0.584531963 -0.664161146
vn 0.000486569421 0.909120739 -0.416532516
vn -0.911134124 0.311343729 -0.269999325
vn 0.252411425 0.943593979 -0.214286983
vn 0.449403882 0.891030073 0.0640427619
vn 0.178719476 0.983884156 0.00559045654
vn -0.00707794307 0.983893812 -0.178613394
vn -0.007009516 0.997110307 -0.0756430924
vn -0.247613698 0.943964124 -0.218218341
vn 0.516778111 0.786419809 0.338355213
vn 0.225915179 0.93845731 0.26126644
vn -0.000751825573 0.992148638 0.125062183
vn -0.175597563 0.984450817 0.00468579307
vn 0.689837873 0.584210575 0.427576542
vn 0.292428195 0.692882478 0.659090042
vn 0.243231803 0.874600947 0.419418007
vn -1.15058328E-05 0.942577064 0.333988696
vn -0.240450725 0.938402295 0.248162374
vn -0.435318083 0.898749411 0.0524179302
vn -0.0102388244 0.81330061 0.581753552
vn -0.253444076 0.858225167 0.446335852
vn -0.294768631 0.69323498 0.657675147
vn -0.51083374 0.797475696 0.321063012
vn -0.810293794 0.568116069 0.143764004
vn -0.490616441 0.847616017 -0.202095509
vn -0.818405509 0.522346377 -0.239513457
vn -0.0407145098 0.586211801 0.809134126
vn -0.682617486 0.578454673 0.446568459
vn -0.928016782 0.314860046 0.199118182
vn -0.795586467 0.289279103 0.532315493
vn -0.783974349 0.0488530025 0.618867993
vn -0.959789157 0.137766495 0.244591936
vn -0.976879656 -0.0539831407 0.206862062
vn -0.745445848 -0.0798770338 0.661762893
vn -0.842369676 0.0134681463 0.538731813
vn -0.638494492 -0.147047922 0.755447924
vn -0.632328212 -0.134644181 0.762910128
vn -0.51896441 -0.171387866 0.837437809
vn -0.551291227 0.449222714 0.703048289
vn -0.544856131 0.199769944 0.814385593
vn -0.524881005 0.524890423 0.670067072
vn -0.292204529 0.536903501 0.7914235
vn -0.184465051 0.483486533 0.855694711
vn -0.569099486 0.241864979 0.785892606
vn -0.396645606 0.0838273019 0.91413635
vn -0.399315447 0.343596995 0.84999305
vn -0.204639345 0.31915772 0.925343692
vn -0.343413651 -0.337364942 0.876499891
vn -0.0403731354 0.415262699 0.908805251
vn -0.212237433 0.396099418 0.893342257
vn -0.0408872999 0.251859188 0.966899812
vn -0.239333257 0.250521123 0.938061118
vn 0.18211183 0.223437652 0.957554698
vn 0.200147435 0.280956924 0.938618183
vn 0.418629289 0.134949699 0.898074627
vn 0.188403904 0.414837509 0.890176356
vn 0.634458303 0.0635287389 0.770341992
vn 0.6608482 0.219129741 0.717817485
vn 0.613439143 0.462285131 0.640300751
vn 0.531051397 0.554513991 0.640701652
vn 0.13152127 0.473055691 0.871160448
vn 0.253791481 0.523865581 0.813114166
vn -0.843671501 -0.303076744 0.443128616
vn -0.75061202 -0.492466152 0.440521002
vn -0.821156979 -0.354243428 0.447451532
vn -0.824644506 -0.511016309 0.242535979
vn -0.608674407 -0.554376125 0.567611158
vn -0.932309568 -0.331892461 0.143688336
vn -0.948682129 -0.315404743 -0.0228486024
vn -0.985920846 -0.141865686 0.0885105357
vn -0.976879656 -0.0539831407 0.206862062
vn -0.963770568 0.0566295125 -0.260651618
vn -0.881565809 -0.283340216 -0.377571255
vn -0.573424697 0.0200811531 -0.819012105
vn -0.798502088 -0.542636216 -0.260653734
vn -0.547182977 -0.354862273 -0.758065641
vn -0.843811333 -0.534782708 -0.0446076542
vn 9.64268907E-07 -0.363126248 -0.931739867
vn -0 0.0197951496 -0.99980408
vn 0.56850183 0.0225823652 -0.822372019
vn -0.567657769 -0.660149813 0.491901278
vn -0.700034022 -0.668984234 0.249824643
vn -0.456124514 -0.887869954 -0.0603106432
vn -0.268466145 -0.513180494 0.815212727
vn -0.555753827 -0.234762102 0.797511399
vn -0.333434135 -0.914776623 0.228046611
vn -0.257581025 -0.749245286 0.610150337
vn 5.89355068E-07 -0.591067255 -0.806622207
vn 0.538727045 -0.360519767 -0.761445105
vn -0.483281046 -0.563257873 -0.670208871
vn -0.343194842 -0.877461314 -0.335080594
vn -2.33292113E-07 -0.912700772 -0.408628643
vn 0.855723798 -0.240252391 -0.458274722
vn 0.961900234 0.0918294862 -0.257517517
vn 0.483875126 -0.563161373 -0.669861376
vn 0.717764318 -0.590227425 -0.369385809
vn 0.872700095 -0.487917542 -0.018191684
vn 0.983041286 -0.180890039 0.0301416032
vn 0.967440069 -0.0045795003 0.253058761
vn 0.958095849 -0.252299428 0.135636628
vn 0.834210575 -0.462434202 0.300412059
vn 0.343596756 -0.877325296 -0.335024774
vn -4.28107512E-07 -0.993551493 -0.113382086
vn -0.0951197669 -0.991574109 -0.0879376456
vn -0.1297407 -0.99035722 0.0485788547
vn -2.45182008E-07 -0.999340594 -0.0363101326
vn 0.0951191783 -0.991574109 -0.0879377648
vn 0.41204688 -0.908380747 -0.071147047
vn 1.51930209E-07 -0.986387014 0.16444023
vn 0.1297407 -0.99035722 0.0485801995
vn 4.51902167E-07 -0.927027643 0.374993145
vn 0.337180525 -0.912668884 0.230965033
vn 0.691819966 -0.72146076 0.0296559092
vn 0.687389076 -0.689388216 0.228561267
vn 3.40163552E-07 -0.67554605 0.73731786
vn 0.2623263 -0.747973502 0.609688938
vn 0.286610663 -0.523578107 0.802321851
vn 0.504543364 -0.700187385 0.505147159
vn 0.78720808 -0.562075436 0.253721595
vn 0.700464606 -0.537111998 0.469957381
vn 0.750490308 -0.440888494 0.492322564
vn 0.595330417 -0.522530794 0.610363245
vn 0.692539692 -0.376253486 0.615485311
vn 0.525610745 -0.378847003 0.761714101
vn 0.478500634 -0.309274107 0.821819067
vn 0.229040548 -0.382628262 0.895062089
vn -0.0015562051 -0.5695647 0.821945012
vn 0.00549249351 -0.411685258 0.91130954
vn 0.181711242 -0.351989836 0.918196142
vn -0.18713057 -0.423342139 0.886433005
vn 0.717314422 -0.134689033 0.683607221
vn 0.65770191 -0.242256746 0.713259995
vn 0.657701969 -0.242256746 0.713259995
vn 0.719621778 -0.130012468 0.682085991
vn 0.779807985 0.13608095 0.611049414
vn 0.78047955 0.151877373 0.606452763
vn 0.764998972 0.382626057 0.518047988
vn 0.764999092 0.382626027 0.518048048
vn -0.502279043 -0.796775639 0.335952789
vn -0.502279043 -0.796775639 0.335952789
vn -0.291587234 -0.831282854 0.4732292
vn -0.302414268 -0.830837727 0.467176914
vn -0.000500064634 -0.798408806 0.602115631
vn -0.000500064518 -0.798408806 0.602115571
vn -0.128639877 0.98223269 -0.136640817
vn 0.0898879394 0.995608032 -0.0261688493
vn -0.128639877 0.98223269 -0.136640802
vn 0.0816940293 0.996194005 -0.0303897467
vn 0.295965552 0.951663792 0.0820997208
vn 0.295965523 0.951663792 0.0820997283
vn -0.86710459 0.440878689 -0.231852517
vn -0.86710459 0.440878749 -0.231852546
vn -0.92652148 0.307628423 -0.216616541
vn -0.925534487 0.310341954 -0.216964826
vn -0.992445171 -0.0896667689 -0.0837400928
vn -0.992140889 -0.0952205807 -0.0811748952
vn -0.970672727 -0.240075707 -0.0125714988
vn -0.970672727 -0.240075722 -0.0125715006
vn 0.305484802 0.368849039 0.877855062
vn 0.496236295 0.0917494893 0.863325834
vn 0.305484802 0.368849009 0.877855062
vn 0.494475812 0.0947995856 0.864006221
vn 0.613749862 -0.150521398 0.77501893
vn 0.613749921 -0.150521398 0.77501893
vn 0.501494765 0.0440213233 0.864040077
vn 0.501494884 0.0440213233 0.864039958
vn 0.433709592 0.297834218 0.850406229
vn 0.429486722 0.310118079 0.848155677
vn 0.383284837 0.42963177 0.817624152
vn 0.383284897 0.429631799 0.817624152
vn -0.695986152 -0.377164096 -0.611024141
vn -0.695986152 -0.377164125 -0.611024141
vn -0.695986152 -0.377164096 -0.611024141
vn -0.695986152 -0.377164096 -0.611024141
vn 0.540590048 -0.69790405 0.469778895
vn 0.540590107 -0.69790405 0.469778925
vn 0.540590107 -0.69790405 0.469778895
vn 0.540590048 -0.69790405 0.469778895
vn -0.73476392 -0.545460403 -0.403230548
vn -0.73476398 -0.545460463 -0.403230488
vn -0.73476398 -0.545460403 -0.403230488
vn -0.73476398 -0.545460463 -0.403230488
vn 0.919218421 -0.360938251 0.157356545
vn 0.919218421 -0.360938221 0.157356516
vn 0.919218421 -0.360938251 0.157356545
vn 0.919218421 -0.360938251 0.157356516
vn 0.93505466 -0.352057785 0.041572649
vn 0.935054541 -0.352057755 0.0415726416
vn 0.935054541 -0.352057755 0.0415726416
vn 0.935054541 -0.352057785 0.0415726416
vn 0.962136209 -0.157599062 -0.22238794
vn 0.962136209 -0.157599062 -0.222387925
vn 0.962136209 -0.157599062 -0.222387925
vn 0.962136209 -0.157599077 -0.222387925
vn -0.717263281 -0.679936409 0.152380392
vn -0.717263281 -0.679936409 0.152380407
vn -0.717263341 -0.679936349 0.152380392
vn -0.717263281 -0.679936409 0.152380407
vn 0.808366239 -0.367261767 -0.460068166
vn 0.808366299 -0.367261767 -0.460068107
vn 0.808366299 -0.367261767 -0.460068077
vn 0.808366299 -0.367261797 -0.460068107
vn -0.691269517 -0.716831207 0.0911014974
vn -0.691269577 -0.716831148 0.0911015123
vn -0.691269517 -0.716831207 0.0911015049
vn -0.691269517 -0.716831207 0.0911015198
vn 0.522359371 -0.616720498 -0.588894308
vn 0.522359371 -0.616720498 -0.588894308
vn 0.522359371 -0.616720438 -0.588894308
vn 0.522359431 -0.616720438 -0.588894308
vn -0.345601618 -0.84633249 0.405315667
vn -0.345601618 -0.84633249 0.405315667
vn -0.345601588 -0.84633249 0.405315667
vn -0.345601588 -0.84633249 0.405315638
vn 0.290341675 -0.832804561 -0.471315503
vn 0.290341645 -0.832804561 -0.471315503
vn 0.290341645 -0.832804501 -0.471315503
vn 0.290341645 -0.832804561 -0.471315503
vn -0.423311949 0.895903707 -0.13477239
vn -0.423311949 0.895903707 -0.13477239
vn -0.423311949 0.895903707 -0.13477239
vn -0.423311979 0.895903707 -0.134772405
vn 0.758362532 0.479655266 0.441380829
vn 0.758362532 0.479655266 0.441380829
vn 0.758362591 0.479655236 0.441380858
vn 0.758362532 0.479655266 0.441380829
vn -0.942122817 0.294290334 -0.160616577
vn -0.942122817 0.294290394 -0.160616606
vn -0.942122817 0.294290364 -0.160616592
vn -0.942122817 0.294290364 -0.160616592
vn -0.551957488 -0.788199723 -0.272184014
vn -0.551957428 -0.788199723 -0.272183985
vn -0.551957488 -0.788199723 -0.272184014
vn -0.551957428 -0.788199723 -0.272183955
vn -0.940243065 0.279899687 0.193904921
vn -0.940243065 0.279899627 0.193904892
vn -0.940243065 0.279899687 0.193904907
vn -0.940243065 0.279899657 0.193904907
vn -0.719349682 -0.692720711 -0.0517117679
vn -0.719349623 -0.692720711 -0.0517117642
vn -0.719349682 -0.692720711 -0.0517117642
vn -0.719349623 -0.692720711 -0.0517117642
vn 0.753423154 0.654687524 0.0611378215
vn 0.753423154 0.654687524 0.0611378253
vn 0.753423154 0.654687524 0.0611378253
vn 0.753423214 0.654687464 0.0611378215
vn -0.736528039 0.504924119 0.450086713
vn -0.736528099 0.504924059 0.450086772
vn -0.736528099 0.504924119 0.450086713
vn -0.736528099 0.504924119 0.450086683
vn 0.634626389 0.771176696 -0.0503573231
vn 0.634626389 0.771176696 -0.0503573231
vn 0.634626389 0.771176696 -0.0503573157
vn 0.634626389 0.771176696 -0.0503573306
vn -0.506830513 0.54701221 0.666258454
vn -0.506830573 0.547012329 0.666258454
vn -0.506830573 0.547012329 0.666258454
vn -0.506830513 0.547012329 0.666258454
vn 0.74964112 0.452463299 -0.483027101
vn 0.749641061 0.452463299 -0.48302716
vn 0.74964112 0.452463239 -0.483027041
vn 0.749641061 0.452463359 -0.48302716
vn -0.454415023 0.325600266 0.829151034
vn -0.454414964 0.325600266 0.829151034
vn -0.454414964 0.325600237 0.829151034
vn -0.454414964 0.325600266 0.829151034
vn 0.643192112 0.633918703 -0.429477632
vn 0.643192053 0.633918762 -0.429477572
vn 0.643192053 0.633918762 -0.429477572
vn 0.643192112 0.633918643 -0.429477572
vn -0.0755632147 0.44569689 0.891989112
vn -0.0755632296 0.44569689 0.891989112
vn -0.0755632222 0.44569689 0.891989112
vn -0.0755632222 0.44569692 0.891989112
vn -0.45615527 -0.293728322 0.840027452
vn -0.45615527 -0.293728322 0.840027452
vn -0.45615527 -0.293728352 0.840027452
vn -0.45615527 -0.293728262 0.840027452
vn 0.242684275 -0.968621612 0.0536339581
vn 0.242684305 -0.968621612 0.0536339581
vn 0.242684335 -0.968621612 0.0536339581
vn 0.242684275 -0.968621612 0.0536339544
vn -0.29508245 -0.791132927 -0.535756409
vn -0.29508245 -0.791132927 -0.535756409
vn -0.29508248 -0.791132987 -0.53575635
vn -0.29508248 -0.791132927 -0.535756409
vn 0.473211735 0.787553966 0.394752294
vn 0.473211735 0.787553966 0.394752353
vn 0.473211706 0.787553966 0.394752353
vn 0.473211676 0.787554026 0.394752324
vn -0.716316283 0.696353078 -0.0445346832
vn -0.716316342 0.696353018 -0.044534687
vn -0.716316342 0.696353018 -0.0445346758
vn -0.716316283 0.696353078 -0.0445346832
vn 0.935040653 0.185110167 0.302378953
vn 0.507130802 0.34472093 -0.789927781
vn 0.502205253 0.145967498 -0.852339983
vn 0.965436161 0.0262022503 0.259319365
vn 0.46914494 0.509530723 -0.72130543
vn -0.0113648968 0.160709739 0.986936271
vn 0.840257883 0.450280339 0.302017063
vn 0.425746441 0.63622421 -0.643396258
vn 0.800949812 0.557480037 0.218392462
vn -0.0892188773 0.526895165 0.845234573
vn 0.0553209335 0.046638336 0.997378826
vn -0.915893495 0.293688208 0.273653954
vn -0.119552925 0.432942867 0.893458247
vn -0.735346735 0.654127002 0.177152723
vn -0.926807404 0.196368128 0.320105761
vn -0.440427393 0.400539547 -0.803487301
vn -0.792140067 0.541718662 0.281167209
vn -0.481181085 0.236286849 -0.844176054
vn 0.507130802 0.34472093 -0.789927781
vn 0.502205253 0.145967498 -0.852339983
vn -0.383158892 0.611800432 -0.692018449
vn -0.352285117 0.682287514 -0.640608132
vn 0.46914494 0.509530723 -0.72130543
vn 0.425746441 0.63622421 -0.643396258
vn 0.259603262 0.965706229 -0.00418808265
vn -0.168697253 -0.679786563 -0.7137447
vn -0.114349321 -0.70662123 -0.698291242
vn 0.33327201 0.942830622 0.00046988664
vn -0.110732779 -0.702491164 0.703025162
vn -0.151320353 -0.658794045 0.736948013
vn -0.168697253 -0.679786563 -0.7137447
vn -0.114349321 -0.70662123 -0.698291242
vn 0.650427997 0.75956434 -0.00232757884
vn -0.289668173 -0.482486755 -0.826618969
vn 0.978159308 -0.207856745 -0.000241436894
vn -0.673841238 0.0944915637 -0.732809186
vn -0.090028882 0.221422136 -0.971013367
vn -0.307366192 -0.463486403 0.83108747
vn -0.289668173 -0.482486755 -0.826618969
vn -0.701457441 0.0968832001 0.706095695
vn -0.673841238 0.0944915637 -0.732809186
vn -0.0948676243 0.303037614 0.94824481
vn -0.090028882 0.221422136 -0.971013367
vn 0.298737735 -0.954335272 6.88311138E-06
vn -0.715976179 -0.698124647 3.84168834E-06
vn -0.0579596534 0.29760316 -0.952928662
vn -0.717633784 0.69642061 2.27166074E-05
vn 0.281565011 -0.109958969 -0.953220904
vn -0.160272732 -0.104435086 -0.981532454
vn -0.065603897 0.409058601 0.910146773
vn -0.0579596534 0.29760316 -0.952928662
vn 0.281565011 -0.109958969 -0.953220904
vn 0.193601921 -0.117484517 0.974020362
vn -0.160272732 -0.104435086 -0.981532454
vn -0.160449818 -0.117627457 0.980010092
vn -0.532266617 -0.846576869 2.46801901E-05
vn 0.179510653 0.983756065 9.11072675E-06
vn 0.163588047 -0.0381563269 0.985790491
vn 0.745860517 -0.666102231 -1.974925E-05
vn 0.827381372 0.561640561 9.60851776E-06
vn 0.163509801 -0.0382156484 -0.98580128
vn -0.532266617 -0.846576869 2.46801901E-05
vn -0.633431077 -0.297791183 0.714202702
vn -0.776454628 0.113175884 0.61992687
vn -0.642987072 -0.282831967 0.711739898
vn -0.161445782 -0.728562295 0.665681779
vn -0.777422428 0.126879856 0.616048574
vn -0.148243546 -0.735054493 0.661603153
vn -0.565940261 0.778565347 0.271196574
vn -0.559582055 0.785309792 0.264870495
vn 0.278972805 -0.825792789 0.49014318
vn 0.277778417 -0.825851083 0.490723103
vn -0.0799048617 0.995699763 -0.0468741581
vn -0.0865267217 0.995289564 -0.0437223613
vn 0.685039759 -0.677826464 0.266967624
vn 0.68456924 -0.678181112 0.267274231
vn 0.983302057 -0.16281724 -0.0812869966
vn 0.983576834 -0.160474613 -0.0826103464
vn 0.469264448 0.851086497 -0.235462651
vn 0.460020214 0.856534719 -0.233944073
vn 0.938599348 0.253078908 -0.234483153
vn 0.938521028 0.253330916 -0.234524146
vn 0.507130802 0.34472093 -0.789927781
vn 0.075819239 0.995515287 0.0565748736
vn -0.440427393 0.400539547 -0.803487301
vn 0.935040653 0.185110167 0.302378953
vn -0.915893495 0.293688208 0.273653954
vn -0.0113648968 0.160709739 0.986936271
g A_Monster_Zombie01_tou_mdl_0
f 3/3/3 2/2/2 1/1/1
f 2/2/2 4/4/4 1/1/1
f 4/4/4 5/5/5 1/1/1
f 6/6/6 4/4/4 2/2/2
f 7/7/7 1/1/1 5/5/5
f 8/8/8 1/1/1 7/7/7
f 4/4/4 9/9/9 5/5/5
f 6/6/6 9/9/9 4/4/4
f 7/7/7 5/5/5 10/10/10
f 11/11/11 7/7/7 10/10/10
f 12/12/12 11/11/11 10/10/10
f 11/11/11 13/13/13 7/7/7
f 14/14/14 11/11/11 12/12/12
f 14/14/14 15/15/15 11/11/11
f 16/16/16 14/14/14 12/12/12
f 16/16/16 17/17/17 14/14/14
f 6/6/6 18/18/18 9/9/9
f 18/18/18 19/19/19 9/9/9
f 9/9/9 20/20/20 5/5/5
f 9/9/9 19/19/19 20/20/20
f 21/21/21 18/18/18 6/6/6
f 22/22/22 21/21/21 6/6/6
f 23/23/23 21/21/21 22/22/22
f 24/24/24 23/23/23 22/22/22
f 23/23/23 24/24/24 25/25/25
f 26/26/26 23/23/23 25/25/25
f 27/27/27 26/26/26 25/25/25
f 23/23/23 28/28/28 21/21/21
f 28/28/28 23/23/23 26/26/26
f 21/21/21 29/29/29 18/18/18
f 28/28/28 29/29/29 21/21/21
f 18/18/18 30/30/30 19/19/19
f 29/29/29 30/30/30 18/18/18
f 30/30/30 31/31/31 19/19/19
f 29/29/29 31/31/31 30/30/30
f 32/32/32 28/28/28 26/26/26
f 28/28/28 33/33/33 29/29/29
f 32/32/32 33/33/33 28/28/28
f 27/27/27 34/34/34 26/26/26
f 34/34/34 32/32/32 26/26/26
f 29/29/29 35/35/35 31/31/31
f 33/33/33 35/35/35 29/29/29
f 31/31/31 36/36/36 19/19/19
f 31/31/31 35/35/35 37/37/37
f 31/31/31 37/37/37 36/36/36
f 33/33/33 38/38/38 35/35/35
f 38/38/38 39/39/39 35/35/35
f 35/35/35 39/39/39 37/37/37
f 40/40/40 38/38/38 33/33/33
f 32/32/32 40/40/40 33/33/33
f 40/40/40 39/39/39 38/38/38
f 19/19/19 36/36/36 41/41/41
f 36/36/36 37/37/37 42/42/42
f 36/36/36 42/42/42 41/41/41
f 37/37/37 39/39/39 43/43/43
f 42/42/42 37/37/37 43/43/43
f 44/44/44 39/39/39 40/40/40
f 43/43/43 39/39/39 44/44/44
f 19/19/19 41/41/41 45/45/45
f 45/45/45 41/41/41 46/46/46
f 19/19/19 45/45/45 20/20/20
f 41/41/41 42/42/42 47/47/47
f 41/41/41 47/47/47 46/46/46
f 42/42/42 43/43/43 48/48/48
f 47/47/47 42/42/42 48/48/48
f 43/43/43 44/44/44 49/49/49
f 48/48/48 43/43/43 49/49/49
f 44/44/44 40/40/40 50/50/50
f 49/49/49 44/44/44 50/50/50
f 47/47/47 48/48/48 51/51/51
f 46/46/46 47/47/47 51/51/51
f 48/48/48 49/49/49 52/52/52
f 51/51/51 48/48/48 52/52/52
f 51/51/51 52/52/52 53/53/53
f 52/52/52 49/49/49 54/54/54
f 54/54/54 49/49/49 50/50/50
f 53/53/53 52/52/52 54/54/54
f 54/54/54 50/50/50 55/55/55
f 50/50/50 40/40/40 56/56/56
f 55/55/55 50/50/50 56/56/56
f 56/56/56 40/40/40 32/32/32
f 57/57/57 56/56/56 32/32/32
f 55/55/55 56/56/56 57/57/57
f 34/34/34 57/57/57 32/32/32
f 55/55/55 57/57/57 34/34/34
f 46/46/46 51/51/51 58/58/58
f 58/58/58 51/51/51 53/53/53
f 59/59/59 54/54/54 55/55/55
f 53/53/53 54/54/54 59/59/59
f 60/60/60 55/55/55 34/34/34
f 60/60/60 34/34/34 27/27/27
f 61/61/61 59/59/59 55/55/55
f 61/61/61 55/55/55 60/60/60
f 62/62/62 61/61/61 60/60/60
f 62/62/62 60/60/60 63/63/63
f 63/63/63 60/60/60 27/27/27
f 64/64/64 63/63/63 27/27/27
f 62/62/62 63/63/63 64/64/64
f 65/65/65 62/62/62 64/64/64
f 66/66/66 65/65/65 64/64/64
f 67/67/67 65/65/65 66/66/66
f 65/65/65 67/67/67 68/68/68
f 69/69/69 65/65/65 68/68/68
f 69/69/69 62/62/62 65/65/65
f 70/70/70 59/59/59 61/61/61
f 71/71/71 70/70/70 61/61/61
f 61/61/61 62/62/62 71/71/71
f 70/70/70 72/72/72 59/59/59
f 53/53/53 59/59/59 72/72/72
f 73/73/73 53/53/53 72/72/72
f 53/53/53 73/73/73 74/74/74
f 62/62/62 75/75/75 71/71/71
f 58/58/58 53/53/53 74/74/74
f 62/62/62 76/76/76 75/75/75
f 69/69/69 76/76/76 62/62/62
f 76/76/76 77/77/77 75/75/75
f 78/78/78 77/77/77 76/76/76
f 16/16/16 76/76/76 69/69/69
f 69/69/69 79/79/79 16/16/16
f 16/16/16 12/12/12 76/76/76
f 12/12/12 78/78/78 76/76/76
f 80/80/80 58/58/58 74/74/74
f 81/81/81 80/80/80 74/74/74
f 12/12/12 82/82/82 78/78/78
f 82/82/82 80/80/80 81/81/81
f 82/82/82 83/83/83 78/78/78
f 83/83/83 82/82/82 81/81/81
f 84/84/84 82/82/82 12/12/12
f 84/84/84 12/12/12 10/10/10
f 84/84/84 85/85/85 82/82/82
f 80/80/80 82/82/82 85/85/85
f 86/86/86 84/84/84 10/10/10
f 87/87/87 80/80/80 85/85/85
f 88/88/88 86/86/86 10/10/10
f 5/5/5 88/88/88 10/10/10
f 88/88/88 5/5/5 89/89/89
f 5/5/5 20/20/20 89/89/89
f 89/89/89 20/20/20 90/90/90
f 90/90/90 20/20/20 45/45/45
f 91/91/91 90/90/90 45/45/45
f 87/87/87 92/92/92 80/80/80
f 92/92/92 58/58/58 80/80/80
f 45/45/45 46/46/46 91/91/91
f 46/46/46 58/58/58 92/92/92
f 46/46/46 93/93/93 91/91/91
f 93/93/93 46/46/46 92/92/92
f 96/96/96 95/95/95 94/94/94
f 95/95/95 96/96/96 97/97/97
f 98/98/98 95/95/95 97/97/97
f 96/96/96 99/99/99 97/97/97
f 97/97/97 99/99/99 100/100/100
f 96/96/96 101/101/101 99/99/99
f 99/99/99 101/101/101 100/100/100
f 101/101/101 102/102/102 100/100/100
f 102/102/102 103/103/103 100/100/100
f 100/100/100 103/103/103 104/104/104
f 104/104/104 103/103/103 105/105/105
f 100/100/100 104/104/104 106/106/106
f 104/104/104 105/105/105 107/107/107
f 106/106/106 104/104/104 107/107/107
f 97/97/97 100/100/100 108/108/108
f 108/108/108 100/100/100 106/106/106
f 107/107/107 105/105/105 109/109/109
f 105/105/105 110/110/110 109/109/109
f 109/109/109 110/110/110 111/111/111
f 98/98/98 97/97/97 112/112/112
f 113/113/113 97/97/97 108/108/108
f 97/97/97 113/113/113 112/112/112
f 113/113/113 108/108/108 114/114/114
f 108/108/108 106/106/106 114/114/114
f 115/115/115 98/98/98 112/112/112
f 115/115/115 116/116/116 98/98/98
f 112/112/112 113/113/113 117/117/117
f 117/117/117 113/113/113 114/114/114
f 118/118/118 115/115/115 112/112/112
f 118/118/118 112/112/112 117/117/117
f 107/107/107 109/109/109 119/119/119
f 109/109/109 111/111/111 120/120/120
f 119/119/119 109/109/109 120/120/120
f 106/106/106 107/107/107 121/121/121
f 121/121/121 107/107/107 119/119/119
f 106/106/106 121/121/121 122/122/122
f 114/114/114 106/106/106 122/122/122
f 121/121/121 119/119/119 123/123/123
f 122/122/122 121/121/121 123/123/123
f 120/120/120 111/111/111 124/124/124
f 111/111/111 125/125/125 124/124/124
f 119/119/119 120/120/120 126/126/126
f 123/123/123 119/119/119 126/126/126
f 126/126/126 120/120/120 127/127/127
f 120/120/120 124/124/124 127/127/127
f 127/127/127 124/124/124 128/128/128
f 124/124/124 125/125/125 129/129/129
f 124/124/124 129/129/129 128/128/128
f 129/129/129 125/125/125 130/130/130
f 131/131/131 129/129/129 130/130/130
f 128/128/128 129/129/129 131/131/131
f 128/128/128 131/131/131 132/132/132
f 123/123/123 126/126/126 133/133/133
f 133/133/133 126/126/126 127/127/127
f 122/122/122 123/123/123 134/134/134
f 134/134/134 123/123/123 133/133/133
f 135/135/135 122/122/122 134/134/134
f 114/114/114 122/122/122 135/135/135
f 136/136/136 114/114/114 135/135/135
f 117/117/117 114/114/114 136/136/136
f 134/134/134 137/137/137 135/135/135
f 135/135/135 137/137/137 136/136/136
f 134/134/134 133/133/133 138/138/138
f 138/138/138 137/137/137 134/134/134
f 133/133/133 127/127/127 139/139/139
f 138/138/138 133/133/133 139/139/139
f 140/140/140 117/117/117 136/136/136
f 136/136/136 137/137/137 140/140/140
f 141/141/141 137/137/137 138/138/138
f 138/138/138 139/139/139 141/141/141
f 140/140/140 137/137/137 141/141/141
f 140/140/140 142/142/142 117/117/117
f 142/142/142 118/118/118 117/117/117
f 141/141/141 143/143/143 140/140/140
f 139/139/139 143/143/143 141/141/141
f 143/143/143 142/142/142 140/140/140
f 127/127/127 144/144/144 139/139/139
f 127/127/127 128/128/128 144/144/144
f 139/139/139 144/144/144 145/145/145
f 144/144/144 128/128/128 145/145/145
f 139/139/139 145/145/145 143/143/143
f 146/146/146 118/118/118 142/142/142
f 115/115/115 118/118/118 146/146/146
f 143/143/143 147/147/147 142/142/142
f 147/147/147 146/146/146 142/142/142
f 147/147/147 148/148/148 146/146/146
f 143/143/143 149/149/149 147/147/147
f 145/145/145 149/149/149 143/143/143
f 149/149/149 148/148/148 147/147/147
f 128/128/128 150/150/150 145/145/145
f 128/128/128 132/132/132 150/150/150
f 145/145/145 150/150/150 151/151/151
f 151/151/151 150/150/150 132/132/132
f 145/145/145 151/151/151 149/149/149
f 151/151/151 132/132/132 152/152/152
f 151/151/151 153/153/153 149/149/149
f 149/149/149 153/153/153 148/148/148
f 151/151/151 154/154/154 153/153/153
f 155/155/155 153/153/153 154/154/154
f 153/153/153 155/155/155 148/148/148
f 155/155/155 156/156/156 148/148/148
f 156/156/156 157/157/157 148/148/148
f 148/148/148 158/158/158 146/146/146
f 157/157/157 158/158/158 148/148/148
f 158/158/158 115/115/115 146/146/146
f 159/159/159 158/158/158 157/157/157
f 158/158/158 159/159/159 115/115/115
f 160/160/160 159/159/159 157/157/157
f 159/159/159 161/161/161 115/115/115
f 164/164/164 163/163/163 162/162/162
f 165/165/165 164/164/164 162/162/162
f 165/165/165 162/162/162 166/166/166
f 167/167/167 165/165/165 166/166/166
f 167/167/167 166/166/166 168/168/168
f 169/169/169 167/167/167 168/168/168
f 172/172/172 171/171/171 170/170/170
f 173/173/173 172/172/172 170/170/170
f 172/172/172 173/173/173 174/174/174
f 175/175/175 172/172/172 174/174/174
f 178/178/178 177/177/177 176/176/176
f 177/177/177 179/179/179 176/176/176
f 179/179/179 177/177/177 180/180/180
f 177/177/177 181/181/181 180/180/180
f 184/184/184 183/183/183 182/182/182
f 185/185/185 184/184/184 182/182/182
f 184/184/184 185/185/185 186/186/186
f 187/187/187 184/184/184 186/186/186
f 187/187/187 186/186/186 188/188/188
f 189/189/189 187/187/187 188/188/188
f 192/192/192 191/191/191 190/190/190
f 191/191/191 193/193/193 190/190/190
f 193/193/193 191/191/191 194/194/194
f 191/191/191 195/195/195 194/194/194
f 198/198/198 197/197/197 196/196/196
f 199/199/199 198/198/198 196/196/196
f 198/198/198 199/199/199 200/200/200
f 201/201/201 198/198/198 200/200/200
f 204/204/204 203/203/203 202/202/202
f 205/205/205 204/204/204 202/202/202
f 208/208/208 207/207/207 206/206/206
f 209/209/209 208/208/208 206/206/206
f 212/212/212 211/211/211 210/210/210
f 213/213/213 212/212/212 210/210/210
f 216/216/216 215/215/215 214/214/214
f 217/217/217 216/216/216 214/214/214
f 220/220/220 219/219/219 218/218/218
f 221/221/221 220/220/220 218/218/218
f 224/224/224 223/223/223 222/222/222
f 225/225/225 224/224/224 222/222/222
f 228/228/228 227/227/227 226/226/226
f 229/229/229 228/228/228 226/226/226
f 232/232/232 231/231/231 230/230/230
f 233/233/233 232/232/232 230/230/230
f 236/236/236 235/235/235 234/234/234
f 237/237/237 236/236/236 234/234/234
f 240/240/240 239/239/239 238/238/238
f 241/241/241 240/240/240 238/238/238
f 244/244/244 243/243/243 242/242/242
f 245/245/245 244/244/244 242/242/242
f 248/248/248 247/247/247 246/246/246
f 249/249/249 248/248/248 246/246/246
f 252/252/252 251/251/251 250/250/250
f 253/253/253 252/252/252 250/250/250
f 256/256/256 255/255/255 254/254/254
f 257/257/257 256/256/256 254/254/254
f 260/260/260 259/259/259 258/258/258
f 261/261/261 260/260/260 258/258/258
f 264/264/264 263/263/263 262/262/262
f 265/265/265 264/264/264 262/262/262
f 268/268/268 267/267/267 266/266/266
f 269/269/269 268/268/268 266/266/266
f 272/272/272 271/271/271 270/270/270
f 273/273/273 272/272/272 270/270/270
f 276/276/276 275/275/275 274/274/274
f 277/277/277 276/276/276 274/274/274
f 280/280/280 279/279/279 278/278/278
f 281/281/281 280/280/280 278/278/278
f 284/284/284 283/283/283 282/282/282
f 285/285/285 284/284/284 282/282/282
f 288/288/288 287/287/287 286/286/286
f 289/289/289 288/288/288 286/286/286
f 292/292/292 291/291/291 290/290/290
f 293/293/293 292/292/292 290/290/290
f 296/296/296 295/295/295 294/294/294
f 297/297/297 296/296/296 294/294/294
f 300/300/300 299/299/299 298/298/298
f 301/301/301 300/300/300 298/298/298
f 304/304/304 303/303/303 302/302/302
f 305/305/305 304/304/304 302/302/302
f 308/308/308 307/307/307 306/306/306
f 309/309/309 308/308/308 306/306/306
f 312/312/312 311/311/311 310/310/310
f 313/313/313 312/312/312 310/310/310
f 316/316/316 315/315/315 314/314/314
f 317/317/317 316/316/316 314/314/314
f 320/320/320 319/319/319 318/318/318
f 321/321/321 320/320/320 318/318/318
f 324/324/324 323/323/323 322/322/322
f 325/325/325 324/324/324 322/322/322
f 328/328/328 327/327/327 326/326/326
f 328/328/328 326/326/326 329/329/329
f 328/328/328 329/329/329 330/330/330
f 329/329/329 326/326/326 331/331/331
f 329/329/329 332/332/332 330/330/330
f 330/330/330 332/332/332 333/333/333
f 332/332/332 334/334/334 333/333/333
f 332/332/332 335/335/335 334/334/334
f 329/329/329 331/331/331 336/336/336
f 329/329/329 336/336/336 332/332/332
f 336/336/336 331/331/331 337/337/337
f 332/332/332 338/338/338 335/335/335
f 336/336/336 338/338/338 332/332/332
f 338/338/338 339/339/339 335/335/335
f 336/336/336 337/337/337 340/340/340
f 336/336/336 340/340/340 338/338/338
f 340/340/340 337/337/337 341/341/341
f 338/338/338 342/342/342 339/339/339
f 340/340/340 342/342/342 338/338/338
f 340/340/340 341/341/341 343/343/343
f 340/340/340 343/343/343 342/342/342
f 343/343/343 341/341/341 344/344/344
f 343/343/343 344/344/344 345/345/345
f 342/342/342 346/346/346 339/339/339
f 343/343/343 346/346/346 342/342/342
f 343/343/343 345/345/345 346/346/346
f 346/346/346 347/347/347 339/339/339
f 345/345/345 348/348/348 346/346/346
f 346/346/346 349/349/349 347/347/347
f 346/346/346 348/348/348 349/349/349
f 352/352/352 351/351/351 350/350/350
f 353/353/353 352/352/352 350/350/350
f 354/354/354 353/353/353 350/350/350
f 354/354/354 350/350/350 355/355/355
f 356/356/356 354/354/354 355/355/355
f 356/356/356 357/357/357 354/354/354
f 358/358/358 352/352/352 353/353/353
f 358/358/358 353/353/353 354/354/354
f 358/358/358 359/359/359 352/352/352
f 358/358/358 360/360/360 359/359/359
f 360/360/360 361/361/361 359/359/359
f 360/360/360 362/362/362 361/361/361
f 363/363/363 354/354/354 357/357/357
f 363/363/363 358/358/358 354/354/354
f 363/363/363 360/360/360 358/358/358
f 364/364/364 363/363/363 357/357/357
f 364/364/364 365/365/365 363/363/363
f 363/363/363 365/365/365 360/360/360
f 364/364/364 366/366/366 365/365/365
f 365/365/365 366/366/366 367/367/367
f 365/365/365 367/367/367 360/360/360
f 366/366/366 368/368/368 367/367/367
f 360/360/360 369/369/369 362/362/362
f 367/367/367 369/369/369 360/360/360
f 370/370/370 362/362/362 369/369/369
f 367/367/367 370/370/370 369/369/369
f 370/370/370 371/371/371 362/362/362
f 372/372/372 371/371/371 370/370/370
f 372/372/372 373/373/373 371/371/371
f 372/372/372 374/374/374 373/373/373
f 368/368/368 375/375/375 367/367/367
f 367/367/367 375/375/375 370/370/370
f 372/372/372 370/370/370 375/375/375
f 368/368/368 376/376/376 375/375/375
f 377/377/377 375/375/375 376/376/376
f 377/377/377 378/378/378 375/375/375
f 372/372/372 375/375/375 378/378/378
f 378/378/378 377/377/377 379/379/379
f 378/378/378 379/379/379 380/380/380
f 378/378/378 380/380/380 372/372/372
f 379/379/379 381/381/381 380/380/380
f 372/372/372 382/382/382 374/374/374
f 380/380/380 382/382/382 372/372/372
f 381/381/381 383/383/383 380/380/380
f 381/381/381 384/384/384 383/383/383
f 380/380/380 385/385/385 382/382/382
f 380/380/380 383/383/383 385/385/385
f 382/382/382 385/385/385 374/374/374
f 383/383/383 384/384/384 385/385/385
f 385/385/385 386/386/386 374/374/374
f 385/385/385 384/384/384 386/386/386
f 374/374/374 386/386/386 387/387/387
f 386/386/386 384/384/384 387/387/387
f 390/390/390 389/389/389 388/388/388
f 391/391/391 390/390/390 388/388/388
f 389/389/389 392/392/392 388/388/388
f 393/393/393 391/391/391 388/388/388
f 389/389/389 394/394/394 392/392/392
f 394/394/394 395/395/395 392/392/392
f 396/396/396 391/391/391 393/393/393
f 397/397/397 396/396/396 393/393/393
f 394/394/394 398/398/398 395/395/395
f 398/398/398 399/399/399 395/395/395
f 396/396/396 397/397/397 400/400/400
f 401/401/401 396/396/396 400/400/400
f 402/402/402 401/401/401 400/400/400
f 403/403/403 402/402/402 400/400/400
f 399/399/399 398/398/398 404/404/404
f 398/398/398 405/405/405 404/404/404
f 406/406/406 402/402/402 403/403/403
f 405/405/405 406/406/406 404/404/404
f 407/407/407 406/406/406 403/403/403
f 406/406/406 407/407/407 404/404/404
f 410/410/410 409/409/409 408/408/408
f 408/408/408 409/409/409 411/411/411
f 412/412/412 409/409/409 410/410/410
f 411/411/411 409/409/409 413/413/413
f 413/413/413 409/409/409 412/412/412
