g A_Monster_Zombie01_Hat
v -0.341987371 1.48322642 -0.31107986
v -0.400076747 1.55465806 -0.182789594
v -0.317860752 1.48716164 -0.290044755
v -0.428959578 1.55459607 -0.197597519
v -0.333104938 1.56422997 -0.355517298
v -0.451784074 1.64599395 -0.0426648371
v -0.421268255 1.63442838 -0.239954099
v -0.31297639 1.57732129 -0.342270911
v -0.396653354 1.64460397 -0.232501715
v -0.47142005 1.73277831 -0.098223865
v -0.444117725 1.73900449 -0.0976098552
v -0.435227036 1.82127941 0.0314384624
v -0.483437866 1.6506356 -0.0501318537
v -0.443945616 1.73280191 0.0905204564
v -0.462265283 1.81894195 0.0372214764
v -0.389960408 1.89732695 0.156428352
v -0.475649148 1.74067032 0.0907138884
v -0.397960037 1.81144118 0.219124496
v -0.427178323 1.82494366 0.225004509
v -0.302650571 1.88113689 0.325855255
v -0.414786547 1.89882088 0.168303758
v -0.295179427 1.97008467 0.254854918
v -0.326099545 1.89952815 0.337730408
v -0.176567152 1.93256712 0.39980635
v -0.314912319 1.97562444 0.272212237
v -0.169034451 2.03067493 0.314940929
v -0.19082725 1.95483565 0.416968524
v -0.0266732406 1.95146906 0.426349252
v -0.180945769 2.03990936 0.33648178
v -0.0254250243 2.05649614 0.32997328
v -0.0288367998 1.97528923 0.44551903
v -0.0271970108 2.06737542 0.353033662
v 0.136949718 2.04069734 0.321829379
v 0.146799669 2.05053926 0.343977392
v 0.15515247 1.96333337 0.42836082
v 0.14339529 1.94046092 0.410400748
v 0.15515247 1.96333337 0.42836082
v 0.146799669 2.05053926 0.343977392
v 0.136949718 2.04069734 0.321829379
v 0.14339529 1.94046092 0.410400748
v -0.333104938 1.56422997 -0.355517298
v -0.341987371 1.48322642 -0.31107986
v -0.317860752 1.48716164 -0.290044755
v -0.31297639 1.57732129 -0.342270911
v -0.139321044 1.52333963 -0.461913049
v 0.00876123831 1.53226328 -0.459208846
v -0.13661091 1.53704286 -0.444314182
v 0.0122476742 1.51772428 -0.475666523
v -0.10886094 1.41674006 -0.430602789
v 0.160913095 1.53864419 -0.437613904
v 0.0341577269 1.41464639 -0.431044638
v -0.0998970419 1.42267966 -0.401374191
v 0.0318617597 1.42189133 -0.401578397
v 0.171559826 1.5243988 -0.451932907
v 0.188787624 1.42992651 -0.402244151
v 0.174473226 1.43663466 -0.375043124
v 0.286766917 1.47246253 -0.314660013
v 0.309035003 1.46777415 -0.337224394
v 0.381983787 1.53641641 -0.211500198
v 0.298657119 1.55119669 -0.382970452
v 0.40259409 1.61457396 -0.270009875
v 0.28278923 1.56427848 -0.371797562
v 0.382588655 1.62554252 -0.263396382
v 0.437789768 1.70796931 -0.143224522
v 0.409905761 1.53526747 -0.227798939
v 0.439644992 1.61534345 -0.08923731
v 0.470621943 1.61849844 -0.0991523936
v 0.453149557 1.70528471 0.0467337519
v 0.460356861 1.69990599 -0.144698754
v 0.485233784 1.71165001 0.0447347686
v 0.416710883 1.78588021 0.176715851
v 0.471733928 1.79202616 -0.00777659146
v 0.448433995 1.79668009 -0.011920833
v 0.44698149 1.79731703 0.180848792
v 0.363206863 1.84375596 0.270050049
v 0.390407085 1.8596164 0.278483987
v 0.378517598 1.93319058 0.21927017
v 0.43415159 1.87233925 0.125261649
v 0.412328213 1.87373412 0.115771919
v 0.359115243 1.93186927 0.205731809
v 0.378517598 1.93319058 0.21927017
v 0.390407085 1.8596164 0.278483987
v 0.363206863 1.84375596 0.270050049
v 0.359115243 1.93186927 0.205731809
v -0.10886094 1.41674006 -0.430602789
v -0.139321044 1.52333963 -0.461913049
v -0.13661091 1.53704286 -0.444314182
v -0.0998970419 1.42267966 -0.401374191
v 0.423180789 1.67346513 0.158347338
v 0.450369775 1.67346513 0.158347338
v 0.450369775 1.4165107 0.24233757
v 0.423180789 1.4165107 0.24233757
v 0.423180789 1.39897549 0.238749236
v 0.450369775 1.39897549 0.238749236
v 0.450369775 1.3763659 0.169579059
v 0.423180789 1.3763659 0.169579059
v 0.423180789 1.38839638 0.156326652
v 0.450369775 1.38839638 0.156326652
v 0.450369775 1.64535081 0.0723364279
v 0.423180789 1.64535081 0.0723364279
v 0.423180789 1.39897549 0.238749236
v 0.423180789 1.3763659 0.169579059
v 0.423180789 1.38839638 0.156326652
v 0.423180789 1.4165107 0.24233757
v 0.423180789 1.67346513 0.158347338
v 0.423180789 1.64535081 0.0723364279
v 0.450369775 1.67346513 0.158347338
v 0.450369775 1.64535081 0.0723364279
v 0.450369775 1.38839638 0.156326652
v 0.450369775 1.4165107 0.24233757
v 0.450369775 1.39897549 0.238749236
v 0.450369775 1.3763659 0.169579059
v 0.411518991 1.78798473 0.355190754
v 0.398510098 1.78845108 0.359385133
v 0.41668579 1.81429589 0.335608125
v 0.39327994 1.8321141 0.32200262
v 0.33650738 1.76716733 0.324325711
v 0.362631321 1.84727514 0.283775717
v 0.310531437 1.79152751 0.268348366
v 0.293363541 1.8812964 0.180016875
v 0.353665143 1.92189193 0.221184254
v 0.317441076 1.96704328 0.226980075
v 0.226455271 1.98098779 0.17793645
v 0.280442029 2.03064299 0.21788986
v 0.212266624 2.06603885 0.243777841
v 0.181225404 2.00441337 0.198971242
v 0.139062732 1.99920058 0.236686736
v 0.162209317 2.05718207 0.291111737
v 0.152884975 2.00784302 0.346675485
v 0.125853196 1.93149531 0.307556659
v 0.161304906 1.92815077 0.421774119
v 0.134380907 1.85878921 0.396944255
v 0.139942944 1.86356115 0.462893575
v 0.167873248 1.93927896 0.484256327
v 0.164179608 1.89379859 0.519666135
v -0.105667114 1.30744004 -0.382009953
v 0.0104239788 1.30318618 -0.388291568
v -0.106537282 1.32624102 -0.409354061
v 0.00929138064 1.32471657 -0.427005142
v 0.157127008 1.31595016 -0.367455125
v 0.00171146297 1.40506661 -0.410755873
v -0.116037205 1.40596962 -0.398101389
v -0.126248032 1.4827795 -0.421230078
v 0.164881662 1.34212244 -0.407466203
v 0.302784741 1.35700953 -0.301992208
v 0.00405475078 1.48433983 -0.442161709
v -0.136183321 1.54903257 -0.448274106
v 0.147808105 1.41664481 -0.389356256
v 0.315831214 1.38421476 -0.339813083
v 0.415234357 1.41990876 -0.205312312
v 0.276402742 1.44444442 -0.330574721
v 0.431895673 1.45438075 -0.236984223
v 0.492001265 1.50396776 -0.0735880136
v 0.381057203 1.50562584 -0.233659297
v 0.268829733 1.52953184 -0.366224468
v 0.142846882 1.49725354 -0.423880041
v 0.00115531438 1.56199217 -0.475578636
v -0.123098582 1.66353369 -0.485532016
v -0.174255475 1.57645524 -0.443413258
v -0.201230213 1.6184603 -0.444964856
v 0.136029914 1.57950425 -0.460120738
v 0.259540409 1.61370194 -0.406181127
v -0.240728423 1.68823099 -0.434699178
v -0.280026883 1.63963532 -0.396786541
v -4.37797935E-05 1.65369987 -0.50155431
v 0.369264603 1.58954084 -0.276720166
v 0.356392592 1.66939342 -0.320831895
v 0.445573747 1.58732998 -0.113083839
v 0.431990117 1.66830778 -0.164495602
v 0.508825302 1.54286551 -0.100732103
v 0.532305658 1.63603532 0.0353431627
v 0.520821929 1.59421265 0.0642058998
v 0.466615587 1.6720916 0.0143225025
v 0.502380788 1.73419869 0.183730811
v 0.495956868 1.68700933 0.208958209
v 0.450895667 1.79675102 0.273970902
v 0.411518991 1.78798473 0.355190754
v 0.41668579 1.81429589 0.335608125
v 0.39327994 1.8321141 0.32200262
v 0.362631321 1.84727514 0.283775717
v 0.443213314 1.76046419 0.151615039
v 0.353665143 1.92189193 0.221184254
v 0.452769876 1.75467002 -0.0406379923
v 0.431482941 1.84105313 0.092459552
v 0.356623709 1.9912889 0.135585174
v 0.317441076 1.96704328 0.226980075
v 0.280442029 2.03064299 0.21788986
v 0.416911155 1.91933239 0.0240599345
v 0.436348945 1.8326019 -0.0972565636
v 0.3295995 2.05944562 0.0570716187
v 0.416143864 1.74753821 -0.214703232
v 0.387610614 1.98546839 -0.0407002978
v 0.238068864 2.11619353 0.133956522
v 0.212266624 2.06603885 0.243777841
v 0.406975865 1.90310955 -0.148926497
v 0.388172269 1.82135093 -0.257819355
v 0.279710144 2.10576892 -0.027030915
v 0.331879646 1.74732149 -0.357262671
v 0.329405367 2.04341388 -0.110197484
v 0.330154181 1.90419686 -0.295056105
v 0.239771992 1.70689785 -0.437286168
v 0.346595764 1.97376907 -0.202458069
v 0.257379383 2.00070953 -0.278251857
v 0.281548202 1.84140027 -0.379155993
v 0.231753245 2.10402942 -0.140735611
v 0.202120736 2.1535635 0.0386685058
v 0.123822905 1.6723603 -0.486531526
v 0.201103657 1.80312741 -0.442618221
v 0.18428731 1.90690422 -0.402131647
v 0.105403848 1.76978266 -0.485960364
v 3.99084856E-05 1.75374079 -0.501489758
v 0.12402416 2.15031672 0.182054967
v 0.0407958105 1.85927808 -0.465804726
v -0.116492629 1.87935328 -0.443618566
v -0.107569806 1.75901663 -0.488025457
v -0.20250304 1.7961551 -0.446392059
v -0.326352835 1.75718653 -0.362268478
v 0.122822985 2.08824968 0.276588231
v 0.162209317 2.05718207 0.291111737
v -0.273982108 1.85435784 -0.380789667
v -0.351990491 1.66002417 -0.323253363
v -0.310340077 1.580567 -0.348143101
v -0.377856314 1.58874154 -0.25926277
v -0.313958347 1.5195024 -0.317458093
v -0.414173484 1.74943054 -0.215760499
v 0.0858669281 2.02017307 0.360595644
v 0.152884975 2.00784302 0.346675485
v -0.380055755 1.83447158 -0.265520751
v -0.387193143 1.51311553 -0.226130769
v -0.326748163 1.46959221 -0.292757988
v -0.417729706 1.4387697 -0.250162572
v -0.358440727 1.42219818 -0.292456746
v -0.361960739 1.41034746 -0.287515014
v -0.367095292 1.39875484 -0.278976202
v -0.364384294 1.38562298 -0.261133671
v -0.459727079 1.45831084 -0.149910107
v -0.471521437 1.49147391 -0.178469941
v -0.449605674 1.59319389 -0.103401795
v -0.513465703 1.55914164 -0.0806038082
v -0.503291845 1.52074265 -0.0539962985
v -0.433292687 1.66972959 -0.154768512
v -0.53125006 1.64825273 0.0559332967
v -0.522447526 1.61011684 0.0833245069
v -0.431936055 1.83553219 -0.0994124711
v -0.450368255 1.75281155 -0.0346648209
v -0.46909973 1.67483032 0.0237408299
v -0.50063473 1.73748159 0.196728677
v -0.492816567 1.69725335 0.21845077
v -0.44674921 1.75776851 0.160700172
v -0.424165905 1.82039475 0.322387964
v -0.415321678 1.77904248 0.345386893
v -0.427927196 1.83708143 0.088100262
v -0.316035748 1.89013481 0.425671339
v -0.311993152 1.84672713 0.446430683
v -0.185482442 1.89558709 0.521930397
v -0.376620173 1.83427846 0.275270075
v -0.186457172 1.94116974 0.498048991
v -0.0478380844 1.91931713 0.558258176
v -0.411978304 1.91966164 0.0165287498
v -0.366736323 1.9138149 0.199418679
v -0.276289105 1.89607811 0.363443971
v -0.046282962 1.96429062 0.533184946
v 0.0889023095 1.91526473 0.552555323
v -0.354670554 1.99637902 0.122511454
v -0.271565676 1.97505736 0.28632766
v -0.157075629 1.93407202 0.420421511
v -0.262437046 2.05481172 0.209037781
v -0.153375953 2.01487398 0.340271741
v 0.0904042125 1.95989585 0.527609527
v -0.0244628098 1.94829679 0.445291966
v -0.0259287301 2.02800298 0.363236338
v -0.142740816 2.09429002 0.261499971
v -0.238480806 2.12108779 0.12283121
v 0.158719838 1.93727398 0.520218253
v 0.15610072 1.90245473 0.533278644
v 0.164179608 1.89379859 0.519666135
v 0.167873248 1.93927896 0.484256327
v 0.0865210965 1.94330573 0.440778136
v 0.161304906 1.92815077 0.421774119
v -0.0111391284 2.10528874 0.283084989
v -0.125077948 2.15400505 0.175435022
v -0.00130374334 2.16419077 0.194649458
v -0.10602396 2.18452835 0.0806116536
v 0.105770424 2.18354154 0.0804536641
v -1.02737534E-08 2.19429398 0.094864279
v -0.0405689999 2.19342542 -0.0207975097
v 0.117727131 2.17708993 -0.0424582101
v -0.19958505 2.15598941 0.0309467688
v -0.324302971 2.06569409 0.0423313901
v -0.377864003 1.99386358 -0.053643506
v -0.270552784 2.11013126 -0.041367881
v -0.396419734 1.91522455 -0.159545109
v -0.179478332 2.14748406 -0.0903005376
v -0.251414031 2.05578828 -0.212488115
v -0.317659438 2.04938817 -0.121687755
v -0.318696499 1.9168092 -0.299316049
v -0.33440119 1.98294258 -0.209849119
v -0.227148533 1.95611894 -0.345220268
v -0.0762466043 2.16317677 -0.142459273
v -0.149616212 2.11506557 -0.205837086
v -0.000907078967 2.08223939 -0.29238081
v -0.165801406 2.0478847 -0.29431355
v 0.026265759 2.17371368 -0.128404275
v -0.118717745 1.98740876 -0.374236494
v 0.118532322 2.14227247 -0.168857813
v -0.0262551736 1.95644796 -0.414735198
v 0.165545613 2.08174682 -0.248599201
v 0.0761188045 1.96689165 -0.400456756
v 0.149347231 2.01477504 -0.337043464
v -0.106537282 1.32624102 -0.409354061
v -0.116037205 1.40596962 -0.398101389
v -0.105667114 1.30744004 -0.382009953
v -0.0968632475 1.41872907 -0.321077764
v -0.126248032 1.4827795 -0.421230078
v -0.118387721 1.56676638 -0.369632453
v -0.136183321 1.54903257 -0.448274106
v -0.174255475 1.57645524 -0.443413258
v -0.172151178 1.63945186 -0.369242936
v -0.201230213 1.6184603 -0.444964856
v -0.280026883 1.63963532 -0.396786541
v -0.225594938 1.65327895 -0.333636731
v -0.310340077 1.580567 -0.348143101
v -0.246925563 1.59818673 -0.293402016
v -0.313958347 1.5195024 -0.317458093
v -0.252858698 1.5270077 -0.261919886
v -0.326748163 1.46959221 -0.292757988
v -0.27520144 1.45845485 -0.230060369
v -0.358440727 1.42219818 -0.292456746
v -0.361960739 1.41034746 -0.287515014
v -0.367095292 1.39875484 -0.278976202
v -0.364384294 1.38562298 -0.261133671
v 0.139942944 1.86356115 0.462893575
v 0.134380907 1.85878921 0.396944255
v -0.0771561339 1.86046278 0.410803735
v -0.0945385844 1.86995482 0.475503027
v -0.235142067 1.82236421 0.350951612
v -0.268646508 1.82192969 0.400008917
v -0.350148141 1.73950267 0.224255636
v -0.395824909 1.72964382 0.25547272
v -0.400581717 1.64186227 0.0655787289
v 0.0889023095 1.91526473 0.552555323
v 0.15610072 1.90245473 0.533278644
v 0.164179608 1.89379859 0.519666135
v -0.0478380844 1.91931713 0.558258176
v -0.185482442 1.89558709 0.521930397
v -0.311993152 1.84672713 0.446430683
v -0.415321678 1.77904248 0.345386893
v -0.492816567 1.69725335 0.21845077
v -0.454016328 1.6182574 0.0792987868
v -0.522447526 1.61011684 0.0833245069
v -0.503291845 1.52074265 -0.0539962985
v -0.42006889 1.51274061 -0.0917585567
v -0.370590121 1.54232526 -0.0905565843
v -0.459727079 1.45831084 -0.149910107
v -0.27520144 1.45845485 -0.230060369
v -0.364384294 1.38562298 -0.261133671
v -0.370590121 1.54232526 -0.0905565843
v -0.252858698 1.5270077 -0.261919886
v -0.27520144 1.45845485 -0.230060369
v -0.346316665 1.74331129 -0.140627801
v -0.246925563 1.59818673 -0.293402016
v -0.400581717 1.64186227 0.0655787289
v -0.225594938 1.65327895 -0.333636731
v -0.332707405 1.88411367 -0.00155500881
v -0.350148141 1.73950267 0.224255636
v -0.237373352 1.84701371 -0.292352855
v -0.172151178 1.63945186 -0.369242936
v -0.199352145 2.00016904 0.178146303
v -0.235142067 1.82236421 0.350951612
v -0.0771561339 1.86046278 0.410803735
v -0.226407126 1.98715651 -0.159667566
v -0.00647988403 2.03495884 -0.213934705
v -0.138517335 2.08362794 -0.0187311731
v -0.060169477 1.80292737 -0.39388594
v 0.0196209922 2.11005878 0.0580473877
v -0.0156955626 2.01187778 0.255722255
v 0.125853196 1.93149531 0.307556659
v 0.134380907 1.85878921 0.396944255
v 0.139062732 1.99920058 0.236686736
v 0.181225404 2.00441337 0.198971242
v 0.175432205 2.06678224 -0.0188535582
v 0.226455271 1.98098779 0.17793645
v 0.0626145229 1.62595534 -0.40002653
v -0.118387721 1.56676638 -0.369632453
v 0.114592686 1.87581658 -0.343445569
v 0.334784001 1.87558126 0.054678943
v 0.293363541 1.8812964 0.180016875
v 0.217006654 1.96418905 -0.203960344
v 0.0690179393 1.42277372 -0.319592774
v -0.0968632475 1.41872907 -0.321077764
v 0.230745018 1.44579995 -0.260814428
v 0.247585788 1.6852411 -0.317093492
v 0.347430825 1.52753687 -0.127981067
v 0.348973393 1.79777527 -0.113738708
v 0.397395402 1.62664485 0.0309716314
v 0.378280938 1.70696175 0.160971433
v 0.310531437 1.79152751 0.268348366
v 0.450380236 1.56623805 0.212395206
v 0.42254585 1.54868913 0.203492537
v 0.42254585 1.56623805 0.212395206
v 0.450380236 1.54868913 0.203492537
v 0.42254585 1.51799989 0.109603591
v 0.450380236 1.51799989 0.109603591
v 0.42254585 1.52690256 0.0920547098
v 0.450380236 1.52690256 0.0920547098
v 0.464294583 1.53122568 0.105280481
v 0.464294583 1.56191492 0.199169427
v 0.464294583 1.59814155 0.0834078044
v 0.450380236 1.63315392 0.190522507
v 0.42254585 1.56623805 0.212395206
v 0.42254585 1.63315392 0.190522507
v 0.464294583 1.62883079 0.177296743
v 0.450380236 1.6420567 0.172973633
v 0.42254585 1.63315392 0.190522507
v 0.42254585 1.6420567 0.172973633
v 0.450380236 1.61136746 0.0790846795
v 0.42254585 1.61136746 0.0790846795
v 0.450380236 1.59381843 0.0701820329
v 0.42254585 1.59381843 0.0701820329
v 0.42254585 1.59381843 0.0701820329
v 0.42254585 1.52690256 0.0920547098
v 0.0690179393 1.42277372 -0.319592774
v 0.230745018 1.44579995 -0.260814428
v 0.0749469325 1.37611818 -0.335206985
v -0.0968632475 1.41872907 -0.321077764
v -0.105667114 1.30744004 -0.382009953
v 0.0104239788 1.30318618 -0.388291568
v 0.157127008 1.31595016 -0.367455125
v 0.259805769 1.40460014 -0.27628088
v 0.302784741 1.35700953 -0.301992208
v 0.347430825 1.52753687 -0.127981067
v 0.415234357 1.41990876 -0.205312312
v 0.388120949 1.4991591 -0.125247702
v 0.397395402 1.62664485 0.0309716314
v 0.492001265 1.50396776 -0.0735880136
v 0.441426992 1.60277963 0.0513101369
v 0.520821929 1.59421265 0.0642058998
v 0.378280938 1.70696175 0.160971433
v 0.495956868 1.68700933 0.208958209
v 0.399817497 1.70412147 0.224078357
v 0.310531437 1.79152751 0.268348366
v 0.411518991 1.78798473 0.355190754
v 0.33650738 1.76716733 0.324325711
v 0.398510098 1.78845108 0.359385133
v 0.42254585 1.51799989 0.109603591
v 0.408631474 1.56191492 0.199169427
v 0.42254585 1.54868913 0.203492537
v 0.42254585 1.56623805 0.212395206
v 0.408631474 1.53122568 0.105280481
v 0.42254585 1.52690256 0.0920547098
v 0.42254585 1.59381843 0.0701820329
v 0.408631474 1.62883079 0.177296743
v 0.42254585 1.63315392 0.190522507
v 0.42254585 1.6420567 0.172973633
v 0.408631474 1.59814155 0.0834078044
v 0.42254585 1.61136746 0.0790846795
vt 0.922851562 0.98828125
vt 0.907226562 0.913574219
vt 0.907226562 0.98828125
vt 0.922851562 0.913574219
vt 0.969238281 0.98828125
vt 0.907226562 0.827148438
vt 0.969238281 0.913574219
vt 0.982421875 0.98828125
vt 0.982421875 0.913574219
vt 0.969238281 0.827148438
vt 0.982421875 0.827148438
vt 0.982421875 0.749023438
vt 0.922851562 0.827148438
vt 0.907226562 0.749023438
vt 0.969238281 0.749023438
vt 0.982421875 0.671386719
vt 0.922851562 0.749023438
vt 0.907226562 0.671386719
vt 0.922851562 0.671386719
vt 0.907226562 0.592773438
vt 0.969238281 0.671386719
vt 0.982421875 0.592773438
vt 0.922851562 0.592773438
vt 0.907226562 0.515136719
vt 0.969238281 0.592773438
vt 0.982421875 0.515136719
vt 0.922851562 0.515136719
vt 0.907226562 0.439208984
vt 0.969238281 0.515136719
vt 0.982421875 0.439208984
vt 0.922851562 0.439208984
vt 0.969238281 0.439208984
vt 0.982421875 0.354980469
vt 0.969238281 0.354980469
vt 0.922851562 0.354980469
vt 0.907226562 0.354980469
vt 0.0799560547 0.965820312
vt 0.0200653076 0.965820312
vt 0.0200653076 0.979003906
vt 0.0799560547 0.979003906
vt 0.020324707 0.892578125
vt 0.0665283203 0.892578125
vt 0.0665283203 0.87890625
vt 0.020324707 0.87890625
vt 0.8203125 0.987792969
vt 0.810058594 0.922363281
vt 0.810058594 0.987792969
vt 0.8203125 0.922363281
vt 0.869628906 0.987792969
vt 0.810058594 0.850585938
vt 0.869628906 0.922363281
vt 0.884277344 0.987792969
vt 0.884277344 0.922363281
vt 0.8203125 0.850585938
vt 0.869628906 0.850585938
vt 0.884277344 0.850585938
vt 0.884277344 0.786621094
vt 0.869628906 0.786621094
vt 0.884277344 0.711914062
vt 0.8203125 0.786621094
vt 0.8203125 0.711914062
vt 0.810058594 0.786621094
vt 0.810058594 0.711914062
vt 0.810058594 0.637207031
vt 0.869628906 0.711914062
vt 0.884277344 0.637207031
vt 0.869628906 0.637207031
vt 0.884277344 0.560546875
vt 0.8203125 0.637207031
vt 0.869628906 0.560546875
vt 0.884277344 0.486816406
vt 0.8203125 0.560546875
vt 0.810058594 0.560546875
vt 0.869628906 0.486816406
vt 0.884277344 0.429443359
vt 0.869628906 0.429443359
vt 0.8203125 0.429443359
vt 0.8203125 0.486816406
vt 0.810058594 0.486816406
vt 0.810058594 0.429443359
vt 0.0200805664 0.924316406
vt 0.0680541992 0.924316406
vt 0.0680541992 0.911621094
vt 0.0200805664 0.911621094
vt 0.0772705078 0.939941406
vt 0.020401001 0.939941406
vt 0.020401001 0.952148438
vt 0.0772705078 0.952148438
vt 0.656738281 0.0245666504
vt 0.656738281 0.0372619629
vt 0.782714844 0.0372619629
vt 0.782714844 0.0245666504
vt 0.791503906 0.0245666504
vt 0.791503906 0.0372619629
vt 0.828125 0.0372619629
vt 0.828125 0.0245666504
vt 0.836914062 0.0245666504
vt 0.836914062 0.0372619629
vt 0.962890625 0.0372619629
vt 0.962890625 0.0245666504
vt 0.873046875 0.380615234
vt 0.873046875 0.344970703
vt 0.866210938 0.340576172
vt 0.866210938 0.384765625
vt 0.744140625 0.384765625
vt 0.744140625 0.340576172
vt 0.16796875 0.255859375
vt 0.16796875 0.211791992
vt 0.0461425781 0.211791992
vt 0.0461425781 0.255859375
vt 0.0391540527 0.251708984
vt 0.0391540527 0.216064453
vt 0.604980469 0.239135742
vt 0.603515625 0.233154297
vt 0.590332031 0.248168945
vt 0.576660156 0.242553711
vt 0.587402344 0.204345703
vt 0.555175781 0.234619141
vt 0.55859375 0.199584961
vt 0.500976562 0.215576172
vt 0.513671875 0.249755859
vt 0.488769531 0.256835938
vt 0.449707031 0.230957031
vt 0.45703125 0.266601562
vt 0.421142578 0.266845703
vt 0.425292969 0.231933594
vt 0.400390625 0.227661133
vt 0.390625 0.261230469
vt 0.358642578 0.250732422
vt 0.358398438 0.212280273
vt 0.311523438 0.234741211
vt 0.305175781 0.200439453
vt 0.279785156 0.213500977
vt 0.288818359 0.249633789
vt 0.263183594 0.237304688
vt 0.630371094 0.962890625
vt 0.672851562 0.916992188
vt 0.615234375 0.951171875
vt 0.652832031 0.904296875
vt 0.724609375 0.846191406
vt 0.618652344 0.885742188
vt 0.577148438 0.932617188
vt 0.535644531 0.913085938
vt 0.702636719 0.833496094
vt 0.766601562 0.754882812
vt 0.584960938 0.862304688
vt 0.495605469 0.893554688
vt 0.669921875 0.817871094
vt 0.7421875 0.747070312
vt 0.786621094 0.658691406
vt 0.708496094 0.743164062
vt 0.760742188 0.654785156
vt 0.783691406 0.5546875
vt 0.7265625 0.655761719
vt 0.669433594 0.730957031
vt 0.633300781 0.80078125
vt 0.55078125 0.83984375
vt 0.461181641 0.845214844
vt 0.461181641 0.894042969
vt 0.426757812 0.8828125
vt 0.597167969 0.784179688
vt 0.629882812 0.720703125
vt 0.384033203 0.858398438
vt 0.349609375 0.884765625
vt 0.519042969 0.811035156
vt 0.68359375 0.653808594
vt 0.64453125 0.652832031
vt 0.720703125 0.566894531
vt 0.677246094 0.575683594
vt 0.756347656 0.557128906
vt 0.729492188 0.473632812
vt 0.754394531 0.461669922
vt 0.694335938 0.485595703
vt 0.682128906 0.393798828
vt 0.706054688 0.378417969
vt 0.643554688 0.349365234
vt 0.640136719 0.303222656
vt 0.627441406 0.318115234
vt 0.610839844 0.323486328
vt 0.588867188 0.339599609
vt 0.649414062 0.408447266
vt 0.544433594 0.368408203
vt 0.651367188 0.501953125
vt 0.607910156 0.432128906
vt 0.514648438 0.412109375
vt 0.50390625 0.366455078
vt 0.452148438 0.377685547
vt 0.5703125 0.4609375
vt 0.612304688 0.520019531
vt 0.487304688 0.450927734
vt 0.636230469 0.584472656
vt 0.539550781 0.488769531
vt 0.421386719 0.432373047
vt 0.387695312 0.380615234
vt 0.577148438 0.537597656
vt 0.599609375 0.59375
vt 0.466552734 0.492431641
vt 0.606445312 0.653320312
vt 0.5078125 0.520996094
vt 0.556640625 0.604492188
vt 0.588867188 0.709472656
vt 0.538085938 0.560058594
vt 0.5078125 0.598632812
vt 0.561035156 0.652832031
vt 0.463867188 0.543457031
vt 0.417724609 0.479492188
vt 0.559570312 0.763671875
vt 0.547363281 0.698242188
vt 0.514160156 0.668945312
vt 0.524902344 0.741699219
vt 0.491699219 0.778808594
vt 0.353027344 0.440429688
vt 0.479980469 0.731445312
vt 0.414794922 0.76171875
vt 0.446044922 0.8046875
vt 0.391357422 0.80859375
vt 0.317382812 0.83203125
vt 0.321533203 0.398193359
vt 0.331787109 0.375732422
vt 0.342285156 0.789550781
vt 0.28515625 0.868652344
vt 0.297607422 0.908203125
vt 0.236328125 0.889648438
vt 0.267089844 0.933105469
vt 0.231079102 0.813964844
vt 0.261230469 0.374267578
vt 0.290527344 0.352294922
vt 0.269042969 0.788574219
vt 0.204833984 0.915527344
vt 0.241210938 0.950683594
vt 0.186035156 0.948730469
vt 0.217163086 0.96875
vt 0.211791992 0.973144531
vt 0.204711914 0.977539062
vt 0.193359375 0.986328125
vt 0.131347656 0.929199219
vt 0.150878906 0.913085938
vt 0.147338867 0.852539062
vt 0.111206055 0.862792969
vt 0.089050293 0.875976562
vt 0.187744141 0.832519531
vt 0.0692138672 0.787109375
vt 0.0443725586 0.793457031
vt 0.193603516 0.754394531
vt 0.1484375 0.767578125
vt 0.104492188 0.779785156
vt 0.043762207 0.69921875
vt 0.0191802979 0.701660156
vt 0.0756225586 0.693847656
vt 0.0407714844 0.605957031
vt 0.0155105591 0.6015625
vt 0.125366211 0.692382812
vt 0.0576171875 0.514648438
vt 0.0331726074 0.508300781
vt 0.0653076172 0.422363281
vt 0.0729370117 0.60546875
vt 0.0902709961 0.433349609
vt 0.110168457 0.351318359
vt 0.173095703 0.688964844
vt 0.121826172 0.614746094
vt 0.0914916992 0.521972656
vt 0.133178711 0.366455078
vt 0.162719727 0.295898438
vt 0.169799805 0.621582031
vt 0.138305664 0.540039062
vt 0.125610352 0.448242188
vt 0.182617188 0.555175781
vt 0.170898438 0.473388672
vt 0.182739258 0.315673828
vt 0.172363281 0.384277344
vt 0.215332031 0.416503906
vt 0.215087891 0.494873047
vt 0.226074219 0.568847656
vt 0.204345703 0.289794922
vt 0.193969727 0.273193359
vt 0.201904297 0.268310547
vt 0.222412109 0.294433594
vt 0.216308594 0.340087891
vt 0.247070312 0.313476562
vt 0.260986328 0.442626953
vt 0.254394531 0.516601562
vt 0.296630859 0.472167969
vt 0.287353516 0.540527344
vt 0.3671875 0.485351562
vt 0.322998047 0.5078125
vt 0.333496094 0.555664062
vt 0.396484375 0.526855469
vt 0.266357422 0.583496094
vt 0.215087891 0.625976562
vt 0.218139648 0.683105469
vt 0.259033203 0.630371094
vt 0.236694336 0.73828125
vt 0.301757812 0.616699219
vt 0.305908203 0.686035156
vt 0.26171875 0.676269531
vt 0.303955078 0.758789062
vt 0.276855469 0.719726562
vt 0.346923828 0.740722656
vt 0.347900391 0.605957031
vt 0.337890625 0.649414062
vt 0.406738281 0.646484375
vt 0.353271484 0.690917969
vt 0.379638672 0.577148438
vt 0.389404297 0.715332031
vt 0.421630859 0.573242188
vt 0.432373047 0.711425781
vt 0.457763672 0.596679688
vt 0.464599609 0.681640625
vt 0.474121094 0.637695312
vt 0.282470703 0.301513672
vt 0.317626953 0.299316406
vt 0.272705078 0.287353516
vt 0.321289062 0.263427734
vt 0.351806641 0.311767578
vt 0.388183594 0.291259766
vt 0.381103516 0.325683594
vt 0.401611328 0.330078125
vt 0.427734375 0.298828125
vt 0.423583984 0.334228516
vt 0.465576172 0.33203125
vt 0.456787109 0.296142578
vt 0.500488281 0.320068359
vt 0.487060547 0.284912109
vt 0.528320312 0.306396484
vt 0.51953125 0.270996094
vt 0.553222656 0.298339844
vt 0.555664062 0.260498047
vt 0.577636719 0.303955078
vt 0.583496094 0.302490234
vt 0.58984375 0.300292969
vt 0.598144531 0.291259766
vt 0.0237884521 0.0533752441
vt 0.0240936279 0.0834350586
vt 0.137573242 0.0834350586
vt 0.141601562 0.0533752441
vt 0.228881836 0.0834350586
vt 0.231079102 0.0533752441
vt 0.325683594 0.0834350586
vt 0.327636719 0.0533752441
vt 0.421630859 0.0834350586
vt 0.0512390137 0.0174560547
vt 0.0179443359 0.0174560547
vt 0.0135955811 0.0233001709
vt 0.11706543 0.0174560547
vt 0.174682617 0.0174560547
vt 0.233398438 0.0174560547
vt 0.296875 0.0174560547
vt 0.362060547 0.0174560547
vt 0.422851562 0.0533752441
vt 0.423828125 0.0174560547
vt 0.487304688 0.0174560547
vt 0.513183594 0.0533752441
vt 0.514648438 0.0834350586
vt 0.53515625 0.0174560547
vt 0.610351562 0.0834350586
vt 0.611328125 0.0174560547
vt 0.696289062 0.0882568359
vt 0.749511719 0.0666503906
vt 0.732421875 0.0547790527
vt 0.727050781 0.122131348
vt 0.764648438 0.0802001953
vt 0.668945312 0.133422852
vt 0.783691406 0.0892944336
vt 0.716308594 0.166381836
vt 0.657714844 0.187866211
vt 0.774414062 0.130249023
vt 0.806640625 0.0873413086
vt 0.720703125 0.224365234
vt 0.669433594 0.241577148
vt 0.693359375 0.286132812
vt 0.760253906 0.166381836
vt 0.801269531 0.186523438
vt 0.759765625 0.204467773
vt 0.818847656 0.131347656
vt 0.778808594 0.237304688
vt 0.745117188 0.266601562
vt 0.758300781 0.304443359
vt 0.736328125 0.324707031
vt 0.782226562 0.288330078
vt 0.80078125 0.285888672
vt 0.815917969 0.239257812
vt 0.819335938 0.285644531
vt 0.864746094 0.120666504
vt 0.835449219 0.0825805664
vt 0.840820312 0.166992188
vt 0.8671875 0.263183594
vt 0.856445312 0.290527344
vt 0.84375 0.206298828
vt 0.905273438 0.0946655273
vt 0.872558594 0.0625610352
vt 0.934570312 0.137939453
vt 0.888183594 0.166503906
vt 0.943359375 0.19543457
vt 0.885742188 0.223754883
vt 0.930664062 0.249633789
vt 0.908691406 0.285400391
vt 0.880859375 0.311767578
vt 0.328857422 0.932617188
vt 0.3359375 0.915039062
vt 0.325195312 0.917480469
vt 0.337402344 0.927246094
vt 0.381591797 0.9140625
vt 0.380859375 0.926757812
vt 0.392578125 0.916015625
vt 0.389648438 0.931640625
vt 0.380615234 0.934082031
vt 0.337646484 0.935058594
vt 0.382080078 0.965332031
vt 0.328125 0.967773438
vt 0.314941406 0.932128906
vt 0.313964844 0.967285156
vt 0.337158203 0.965820312
vt 0.336425781 0.973632812
vt 0.323242188 0.983886719
vt 0.334472656 0.987304688
vt 0.3828125 0.973632812
vt 0.385498047 0.987304688
vt 0.391357422 0.967285156
vt 0.396728516 0.983398438
vt 0.405273438 0.966796875
vt 0.403808594 0.931152344
vt 0.120849609 0.170410156
vt 0.215698242 0.170410156
vt 0.120666504 0.145385742
vt 0.0294036865 0.170410156
vt 0.0234069824 0.108093262
vt 0.0838623047 0.108093262
vt 0.153808594 0.108093262
vt 0.218994141 0.143920898
vt 0.223754883 0.108093262
vt 0.318115234 0.170410156
vt 0.289794922 0.108093262
vt 0.322753906 0.145629883
vt 0.417480469 0.170410156
vt 0.358642578 0.108093262
vt 0.421386719 0.142822266
vt 0.423583984 0.108093262
vt 0.49609375 0.170410156
vt 0.492919922 0.108093262
vt 0.516601562 0.142333984
vt 0.574707031 0.170410156
vt 0.576171875 0.108093262
vt 0.579101562 0.141601562
vt 0.580566406 0.109558105
vt 0.456787109 0.927734375
vt 0.503417969 0.937011719
vt 0.504394531 0.927734375
vt 0.512695312 0.936035156
vt 0.457275391 0.936523438
vt 0.448242188 0.935546875
vt 0.447998047 0.970214844
vt 0.503417969 0.969238281
vt 0.512695312 0.970214844
vt 0.504394531 0.978515625
vt 0.45703125 0.969238281
vt 0.456054688 0.978515625
vn -0.702895999 -0.518639505 -0.486775458
vn -0.222121507 -0.871210039 0.437784404
vn 0.0954739377 -0.991231978 0.0913449079
vn -0.895613492 -0.368771911 -0.248764291
vn -0.657952309 -0.0706226155 -0.749740839
vn -0.229948118 -0.834185302 0.501257241
vn -0.858511627 0.0749666542 -0.50728476
vn 0.18545635 0.51760155 -0.835281134
vn -0.147525936 0.789001048 -0.596417129
vn -0.931654632 0.224306405 -0.285843045
vn -0.167436302 0.809763968 -0.562358737
vn -0.176873103 0.852247238 -0.492331862
vn -0.978300869 -0.206232011 -0.0198924486
vn -0.221615165 -0.802437901 0.554057896
vn -0.920649052 0.386857003 -0.0524112135
vn -0.173033684 0.866014898 -0.469124287
vn -0.972749472 -0.0395929478 0.228453457
vn -0.216612309 -0.754940808 0.618985832
vn -0.880731642 0.135529339 0.453809977
vn -0.183372781 -0.692370713 0.697851837
vn -0.833367646 0.525940716 0.16995509
vn -0.179254502 0.861794591 -0.474528998
vn -0.687107027 0.317638308 0.653444529
vn -0.105603866 -0.648793221 0.753601432
vn -0.653376698 0.660737455 0.36949268
vn -0.148179263 0.877144575 -0.456793457
vn -0.391645551 0.476903319 0.786878049
vn -0.00961552747 -0.628825843 0.777486682
vn -0.370637536 0.7635203 0.52883333
vn -0.01783856 0.901380062 -0.432661116
vn -0.0395513177 0.538947105 0.841410637
vn -0.037408445 0.807758987 0.588324726
vn 0.51471132 0.675899923 -0.527476609
vn 0.277641863 0.770543635 0.573740005
vn 0.272119999 0.531648576 0.802060127
vn 0.463869452 -0.68001765 0.5678038
vn 0.272119999 0.531648576 0.802060127
vn 0.277641863 0.770543635 0.573740005
vn 0.51471132 0.675899923 -0.527476609
vn 0.463869452 -0.68001765 0.5678038
vn -0.657952309 -0.0706226155 -0.749740839
vn -0.702895999 -0.518639505 -0.486775458
vn 0.0954739377 -0.991231978 0.0913449079
vn 0.18545635 0.51760155 -0.835281134
vn -0.303334296 -0.204373538 -0.930709243
vn 0.0125201056 0.758104503 -0.652012944
vn -0.726965368 0.581700325 -0.364891917
vn 0.0511327833 -0.216081411 -0.975035548
vn -0.216667384 -0.537729204 -0.814802229
vn 0.115621842 0.75149405 -0.649529278
vn 0.0802941993 -0.578730702 -0.811556339
vn -0.416840911 -0.85441798 0.310183227
vn 0.0224558897 -0.971079051 0.237699687
vn 0.316913754 -0.223222509 -0.921811998
vn 0.351590216 -0.579812229 -0.734984398
vn 0.0868586153 -0.956151962 0.279694617
vn 0.162314385 -0.922940075 0.349049419
vn 0.66210568 -0.514330208 -0.545050979
vn 0.210249946 -0.884708583 0.416035622
vn 0.636192739 -0.125225127 -0.761299968
vn 0.828375876 0 -0.560172737
vn 0.192294106 0.759623766 -0.621284664
vn 0.212275952 0.757889688 -0.616880953
vn 0.236901402 0.77513665 -0.585696936
vn 0.852627516 -0.411438614 -0.322094232
vn 0.226158604 -0.844982445 0.484620392
vn 0.9605124 -0.263350129 -0.0897927284
vn 0.216259122 -0.814158082 0.538867891
vn 0.928755105 0.145955563 -0.340750515
vn 0.984913647 -0.0910480917 0.147157907
vn 0.217861429 -0.783249855 0.582285225
vn 0.945621133 0.306231678 -0.109648719
vn 0.251687348 0.827442408 -0.50198859
vn 0.934239447 0.0456215627 0.353716403
vn -0.0561180264 -0.431085438 0.900564432
vn 0.762448251 0.217010304 0.609573066
vn 0.702927709 0.620532691 0.347608566
vn 0.893037736 0.441788495 0.085478723
vn 0.245040014 0.865391612 -0.437095791
vn -0.10435985 0.992361546 0.065783754
vn 0.702927709 0.620532691 0.347608566
vn 0.762448251 0.217010304 0.609573066
vn -0.0561180264 -0.431085438 0.900564432
vn -0.10435985 0.992361546 0.065783754
vn -0.216667384 -0.537729204 -0.814802229
vn -0.303334296 -0.204373538 -0.930709243
vn -0.726965368 0.581700325 -0.364891917
vn -0.416840911 -0.85441798 0.310183227
vn -0.957703114 0.0894040167 0.273516983
vn 0.957703114 0.0894040465 0.273517072
vn 0.956206143 0.082277298 0.280892223
vn -0.956206024 0.0822773054 0.280892253
vn -0.631101966 -0.679176867 0.374738634
vn 0.631101966 -0.679176867 0.374738663
vn 0.554341912 -0.82551688 0.105956435
vn -0.554341972 -0.825516999 0.105956443
vn -0.955712855 -0.100057088 -0.276769966
vn 0.955712855 -0.100057118 -0.276770055
vn 0.957703233 -0.0894039497 -0.273516804
vn -0.957703233 -0.0894039869 -0.273516864
vn -0.631101966 -0.679176867 0.374738634
vn -0.554341972 -0.825516999 0.105956443
vn -0.955712855 -0.100057088 -0.276769966
vn -0.956206024 0.0822773054 0.280892253
vn -0.957703114 0.0894040167 0.273516983
vn -0.957703233 -0.0894039869 -0.273516864
vn 0.957703114 0.0894040465 0.273517072
vn 0.957703233 -0.0894039497 -0.273516804
vn 0.955712855 -0.100057118 -0.276770055
vn 0.956206143 0.082277298 0.280892223
vn 0.631101966 -0.679176867 0.374738663
vn 0.554341912 -0.82551688 0.105956435
vn 0.504448056 -0.529334784 0.682156026
vn -0.206171066 -0.508652329 0.83592236
vn 0.676008642 0.58903265 0.442778707
vn -0.0550130643 0.88347441 0.465238094
vn -0.534976006 -0.626549423 0.566777349
vn 0.298682362 0.813856304 0.498424381
vn -0.957969666 -0.271342665 0.0930976719
vn -0.923156321 -0.384079963 -0.0162738934
vn 0.687096834 0.430040419 0.585630596
vn 0.133634552 0.114659876 0.984375417
vn -0.704343319 -0.706344903 0.0705508217
vn 0.530754983 0.451267719 0.717395663
vn 0.538413763 0.463776708 0.703577757
vn -0.282882988 -0.951023579 -0.12462534
vn 0.046184063 -0.897072554 -0.439463168
vn 0.795451522 0.18368645 0.577508688
vn 0.914768994 0.274456799 0.296430975
vn 0.170537263 -0.714028418 -0.679028988
vn 0.965419352 0.254070342 0.0584269129
vn 0.213481888 -0.889150143 -0.404768318
vn 0.207008585 -0.93795675 0.278180957
vn 0.732671738 0.65985626 -0.166678682
vn 0.905222297 -0.423902273 0.0296566952
vn -0.270748883 -0.633122981 0.725155294
vn 0.0194929112 -0.89755106 0.440479577
vn -0.336646467 -0.179692268 -0.924326718
vn 0.0242630299 -0.209368527 -0.977535784
vn 0.0325103439 -0.907013059 0.41984576
vn 0.017263161 -0.0928367004 -0.995531678
vn -0.754645586 -0.127136707 -0.643697321
vn -0.791454494 -0.313305229 -0.524823427
vn 0.301512569 -0.19659476 -0.9329741
vn 0.154158786 -0.927672982 0.340085268
vn 0.0175865125 -0.38307929 -0.923548043
vn -0.406100273 -0.423028529 -0.810018182
vn 0.282384664 -0.0436347462 -0.958308399
vn 0.569420934 -0.113016553 -0.814240217
vn 0.164950952 -0.88855952 0.428080887
vn 0.52739048 0.0535488091 -0.847933888
vn 0.755025923 0.0617197491 -0.652783811
vn 0.239320144 -0.865196228 0.44063741
vn 0.713199854 0.16928643 -0.680211842
vn 0.602864683 -0.278634459 -0.747607529
vn 0.313177407 -0.360626906 -0.878560305
vn -0.00579512538 -0.331613004 -0.943397641
vn -0.246936113 -0.111742765 -0.962567449
vn -0.730565369 -0.617957175 -0.290522248
vn -0.56379807 -0.590890765 -0.57704407
vn 0.30516541 -0.295365363 -0.905336022
vn 0.580856025 -0.223747551 -0.782651484
vn -0.522940457 0.00814017467 -0.852330327
vn -0.475565106 -0.5254848 -0.705480993
vn 0.0042523141 -0.146354228 -0.989223123
vn 0.823591352 -0.167074665 -0.542017817
vn 0.806614935 -0.110248856 -0.580704451
vn 0.821544945 0.296991944 -0.486682355
vn 0.948408008 -0.0273310915 -0.315872401
vn 0.859876513 0.225365415 -0.458064258
vn 0.873688102 0.407523304 -0.265694946
vn 0.436087191 -0.753628552 0.491804779
vn 0.856417596 0.433603287 -0.280244708
vn 0.848715663 0.524344802 -0.0688783526
vn 0.383019745 -0.719827652 0.578916311
vn 0.791586757 0.606094718 0.0777153447
vn 0.504448056 -0.529334784 0.682156026
vn 0.676008642 0.58903265 0.442778707
vn -0.0550130643 0.88347441 0.465238094
vn 0.298682362 0.813856304 0.498424381
vn 0.841232598 0.539475858 -0.0359664895
vn 0.687096834 0.430040419 0.585630596
vn 0.98843199 0.126915425 -0.0830339491
vn 0.944107234 0.282807142 0.16935648
vn 0.824205101 0.492230445 0.27999112
vn 0.133634552 0.114659876 0.984375417
vn 0.530754983 0.451267719 0.717395663
vn 0.932034314 0.353850782 0.0781133771
vn 0.970691383 0.193324625 -0.14277184
vn 0.733002663 0.667432845 0.131303102
vn 0.930457234 0.0410490707 -0.36409381
vn 0.856696129 0.510877252 -0.0712479576
vn 0.534248948 0.793952525 0.29020223
vn 0.538413763 0.463776708 0.703577757
vn 0.895555735 0.35646978 -0.266287535
vn 0.85396409 0.217935428 -0.472492844
vn 0.580882132 0.809193671 -0.0882129222
vn 0.739878953 0.0749118254 -0.668556154
vn 0.686170757 0.674077451 -0.273476481
vn 0.694292367 0.4223454 -0.582736969
vn 0.524993896 -0.0148863941 -0.850975811
vn 0.724589109 0.558269858 -0.40411073
vn 0.524760723 0.631637096 -0.570667028
vn 0.592530668 0.347777575 -0.726607323
vn 0.481265128 0.811704814 -0.330936641
vn 0.431007445 0.90226841 0.0120051987
vn 0.281746924 -0.0947490335 -0.954799116
vn 0.405476332 0.25736472 -0.877127349
vn 0.385376811 0.482301384 -0.786683023
vn 0.243352845 0.219547182 -0.94476372
vn -0.0164853968 0.179710224 -0.983581424
vn 0.269370139 0.876228631 0.399578571
vn 0.0843895972 0.396657377 -0.914079487
vn -0.232903406 0.424525976 -0.874947846
vn -0.212914079 0.174663156 -0.96133256
vn -0.43790549 0.229258493 -0.86929816
vn -0.742234409 0.102533914 -0.662249804
vn 0.218358278 0.776519835 0.591047049
vn 0.795451522 0.18368645 0.577508688
vn -0.560432196 0.352550983 -0.749415517
vn -0.828241646 -0.0808594227 -0.5545066
vn -0.268195927 -0.48349607 -0.833248198
vn -0.866049647 -0.122925565 -0.484610468
vn -0.186500475 -0.409751147 -0.8929286
vn -0.929054022 0.055304911 -0.36578691
vn 0.138947815 0.719260275 0.680704117
vn 0.914768994 0.274456799 0.296430975
vn -0.850977361 0.234641954 -0.46987313
vn -0.738614857 0.203693658 -0.642617166
vn -0.00411779433 -0.22352308 -0.97469002
vn -0.783438265 -0.115816645 -0.61058253
vn -0.0330349654 -0.0508289225 -0.998160899
vn 0.213597685 -0.559379876 -0.8009184
vn 0.106883787 -0.729859233 -0.675189793
vn 0.244128123 -0.834108889 0.494635075
vn -0.253459215 -0.860810339 0.441320747
vn -0.76460731 0.258704394 -0.5902946
vn -0.825528204 0.316188693 -0.467469782
vn -0.848934174 0.314056963 -0.425063461
vn -0.325030416 -0.837752938 0.43877691
vn -0.953035712 -0.00383398682 -0.302833468
vn -0.864542723 0.438945979 -0.244728908
vn -0.492645502 -0.719285846 0.489824682
vn -0.96729213 0.209397569 -0.143173546
vn -0.983806133 0.155712366 -0.088764511
vn -0.848087728 0.453347921 -0.274267703
vn -0.823494017 0.566441953 -0.0316415168
vn -0.363757521 -0.710332453 0.6025846
vn -0.81431824 0.576507151 -0.0672708303
vn -0.735659659 0.659979343 0.152421027
vn -0.343529642 -0.639965534 0.687336504
vn -0.943711162 0.307896197 0.120868973
vn -0.578579247 0.775806248 0.251735449
vn -0.360324681 -0.493354857 0.791686177
vn -0.203107283 -0.528048873 0.824567676
vn -0.718681872 0.680986643 0.140547261
vn -0.347430229 0.890698373 0.293170005
vn -0.0683943555 -0.46032697 0.885110974
vn -0.931780696 0.356848657 0.0666625202
vn -0.824539959 0.447141379 0.346696645
vn -0.541067004 0.79818809 0.264843732
vn -0.0857251137 0.955196559 0.283285588
vn 0.0374202654 -0.663277805 0.747437119
vn -0.815267861 0.50973779 0.274783164
vn -0.622034907 0.574970484 0.531489909
vn -0.292339802 0.904767692 0.309730262
vn -0.6059165 0.649068058 0.459973723
vn -0.349966794 0.673779309 0.65080297
vn 0.110936776 0.956009209 0.27154997
vn -0.0567296222 0.95134306 0.302866518
vn -0.0795098096 0.71600014 0.69355756
vn -0.323044062 0.74958545 0.577723205
vn -0.545176804 0.791998565 0.274809867
vn 0.533259809 0.633458078 0.560682535
vn 0.163933158 -0.627276719 0.761347413
vn 0.905222297 -0.423902273 0.0296566952
vn 0.732671738 0.65985626 -0.166678682
vn 0.137869522 0.93571049 0.324711889
vn 0.965419352 0.254070342 0.0584269129
vn -0.0239447802 0.78436476 0.619837523
vn -0.274703056 0.878110707 0.391739666
vn 0.00628568791 0.898603737 0.438715965
vn -0.228865847 0.966610372 0.115259878
vn 0.206032068 0.97253418 0.108295932
vn 0.0161587372 0.989955902 0.140449792
vn -0.0793517232 0.991918623 -0.0989988074
vn 0.2518861 0.957779109 -0.138609782
vn -0.402917117 0.91523546 0.00137936999
vn -0.740332007 0.665064394 0.0979690403
vn -0.852281928 0.516525865 -0.0825622231
vn -0.579963505 0.80163765 -0.144980729
vn -0.888177693 0.37123248 -0.270789236
vn -0.370876431 0.899902642 -0.229403615
vn -0.513305366 0.729057193 -0.45276171
vn -0.676815391 0.689980924 -0.256607145
vn -0.671547949 0.473817378 -0.569666922
vn -0.709671259 0.560598493 -0.426727146
vn -0.459222347 0.557723224 -0.691418648
vn -0.138858616 0.920098901 -0.366246104
vn -0.273961365 0.838372469 -0.471250415
vn 0.00180646859 0.795094252 -0.606483161
vn -0.301446736 0.733572364 -0.609098911
vn 0.0532979183 0.938811123 -0.340283692
vn -0.218536764 0.637691319 -0.73864162
vn 0.226181597 0.884595513 -0.407838851
vn -0.0449297093 0.587027073 -0.808319569
vn 0.311249554 0.785198867 -0.535337627
vn 0.148084909 0.601451397 -0.785065055
vn 0.283091426 0.677439868 -0.67892158
vn -0.336646467 -0.179692268 -0.924326718
vn -0.754645586 -0.127136707 -0.643697321
vn -0.270748883 -0.633122981 0.725155294
vn -0.273614019 -0.0391275994 0.961043358
vn -0.791454494 -0.313305229 -0.524823427
vn -0.169161037 0.174000129 0.970107436
vn -0.406100273 -0.423028529 -0.810018182
vn -0.730565369 -0.617957175 -0.290522248
vn 0.205521271 -0.196686357 0.958684266
vn -0.56379807 -0.590890765 -0.57704407
vn -0.475565106 -0.5254848 -0.705480993
vn 0.788415074 -0.237290919 0.567533791
vn -0.268195927 -0.48349607 -0.833248198
vn 0.96475327 -0.0628302321 0.255545467
vn -0.186500475 -0.409751147 -0.8929286
vn 0.934582233 -0.0490239039 0.352353215
vn -0.00411779433 -0.22352308 -0.97469002
vn 0.680195272 -0.525990486 0.510557055
vn -0.0330349654 -0.0508289225 -0.998160899
vn 0.213597685 -0.559379876 -0.8009184
vn 0.106883787 -0.729859233 -0.675189793
vn 0.244128123 -0.834108889 0.494635075
vn 0.207008585 -0.93795675 0.278180957
vn 0.213481888 -0.889150143 -0.404768318
vn 0.174586505 -0.875036001 -0.45147714
vn 0.0336500965 -0.92528218 0.377783805
vn 0.573564827 -0.733695388 -0.364299983
vn 0.147912726 -0.911267877 0.384334147
vn 0.814273477 -0.561924338 -0.14560093
vn 0.216516763 -0.876155436 0.430664927
vn 0.911666214 -0.378886104 0.159091294
vn 0.0374202654 -0.663277805 0.747437119
vn 0.163933158 -0.627276719 0.761347413
vn 0.905222297 -0.423902273 0.0296566952
vn -0.0683943555 -0.46032697 0.885110974
vn -0.203107283 -0.528048873 0.824567676
vn -0.360324681 -0.493354857 0.791686177
vn -0.343529642 -0.639965534 0.687336504
vn -0.363757521 -0.710332453 0.6025846
vn 0.271638393 -0.819226563 0.505054832
vn -0.492645502 -0.719285846 0.489824682
vn -0.325030416 -0.837752938 0.43877691
vn 0.285737753 -0.749050319 0.597726941
vn 0.838850677 -0.19285737 0.509053707
vn -0.253459215 -0.860810339 0.441320747
vn 0.680195272 -0.525990486 0.510557055
vn 0.244128123 -0.834108889 0.494635075
vn 0.838850677 -0.19285737 0.509053707
vn 0.934582233 -0.0490239039 0.352353215
vn 0.680195272 -0.525990486 0.510557055
vn 0.916020989 -0.182607263 0.357155442
vn 0.96475327 -0.0628302321 0.255545467
vn 0.911666214 -0.378886104 0.159091294
vn 0.788415074 -0.237290919 0.567533791
vn 0.872241139 -0.489009142 -0.00809503812
vn 0.814273477 -0.561924338 -0.14560093
vn 0.598375022 -0.433736175 0.673661947
vn 0.205521271 -0.196686357 0.958684266
vn 0.58472842 -0.730959892 -0.351838589
vn 0.573564827 -0.733695388 -0.364299983
vn 0.174586505 -0.875036001 -0.45147714
vn 0.603934228 -0.688450396 0.401621014
vn 0.0267509837 -0.824726701 0.564898372
vn 0.41118753 -0.909419179 0.0623027533
vn 0.147313967 -0.354045331 0.923553228
vn -0.0277443901 -0.994888961 -0.0970886573
vn 0.0968879089 -0.818998039 -0.565557241
vn 0.170537263 -0.714028418 -0.679028988
vn 0.213481888 -0.889150143 -0.404768318
vn 0.046184063 -0.897072554 -0.439463168
vn -0.282882988 -0.951023579 -0.12462534
vn -0.50308466 -0.854286492 0.130768284
vn -0.704343319 -0.706344903 0.0705508217
vn -0.208558157 0.122373097 0.970323861
vn -0.169161037 0.174000129 0.970107436
vn -0.311533332 -0.454761058 0.834349632
vn -0.873579085 -0.486658663 0.00477559911
vn -0.923156321 -0.384079963 -0.0162738934
vn -0.615344703 -0.625972152 0.479071885
vn -0.188362852 0.21945405 0.957266629
vn -0.273614019 -0.0391275994 0.961043358
vn -0.571657598 0.0883866623 0.815717757
vn -0.681741118 -0.04286623 0.730336607
vn -0.84994477 -0.0735299289 0.52171576
vn -0.902264953 -0.267221659 0.338393956
vn -0.933991969 -0.26043424 0.244607598
vn -0.901571095 -0.432616949 -0.00347416918
vn -0.957969666 -0.271342665 0.0930976719
vn 0.291919351 0.174480349 0.940393388
vn -0.298675954 -0.873595774 0.384217709
vn -0.291919172 0.174480394 0.940393507
vn 0.298676193 -0.873595595 0.384217709
vn -0.298676044 -0.931871653 0.20593141
vn 0.298676282 -0.931871653 0.205931395
vn -0.291918933 -0.414630949 -0.861895919
vn 0.291919172 -0.41463092 -0.8618958
vn 0.982480466 -0.177380696 -0.0571683422
vn 0.982480466 -0.109370656 0.15089795
vn 0.982480466 0.109370708 -0.15089795
vn 0.291919112 0.414631039 0.86189574
vn -0.291919172 0.174480394 0.940393507
vn -0.291918904 0.414630979 0.8618958
vn 0.982480466 0.177380681 0.0571683794
vn 0.298676461 0.931871533 -0.205931395
vn -0.291918904 0.414630979 0.8618958
vn -0.298676133 0.931871653 -0.205931425
vn 0.298676282 0.873595595 -0.384217739
vn -0.298675954 0.873595655 -0.384217739
vn 0.29191938 -0.174480349 -0.940393388
vn -0.291919112 -0.174480394 -0.940393507
vn -0.291919112 -0.174480394 -0.940393507
vn -0.291918933 -0.414630949 -0.861895919
vn -0.188362852 0.21945405 0.957266629
vn -0.571657598 0.0883866623 0.815717757
vn -0.10073588 -0.499962837 0.860168278
vn -0.273614019 -0.0391275994 0.961043358
vn -0.270748883 -0.633122981 0.725155294
vn 0.0194929112 -0.89755106 0.440479577
vn 0.0325103439 -0.907013059 0.41984576
vn -0.248804301 -0.602140188 0.75863266
vn 0.154158786 -0.927672982 0.340085268
vn -0.84994477 -0.0735299289 0.52171576
vn 0.164950952 -0.88855952 0.428080887
vn -0.327082187 -0.710689425 0.622846365
vn -0.933991969 -0.26043424 0.244607598
vn 0.239320144 -0.865196228 0.44063741
vn -0.317697495 -0.796031594 0.515171826
vn 0.436087191 -0.753628552 0.491804779
vn -0.901571095 -0.432616949 -0.00347416918
vn 0.383019745 -0.719827652 0.578916311
vn -0.283822984 -0.858520389 0.427068263
vn -0.957969666 -0.271342665 0.0930976719
vn 0.504448056 -0.529334784 0.682156026
vn -0.534976006 -0.626549423 0.566777349
vn -0.206171066 -0.508652329 0.83592236
vn -0.298676044 -0.931871653 0.20593141
vn -0.982480347 -0.109370962 0.150898352
vn -0.298675954 -0.873595774 0.384217709
vn -0.291919172 0.174480394 0.940393507
vn -0.982480347 -0.177381188 -0.0571685024
vn -0.291918933 -0.414630949 -0.861895919
vn -0.291919112 -0.174480394 -0.940393507
vn -0.982480347 0.177381128 0.0571685284
vn -0.291918904 0.414630979 0.8618958
vn -0.298676133 0.931871653 -0.205931425
vn -0.982480347 0.109370962 -0.150898367
vn -0.298675954 0.873595655 -0.384217739
g A_Monster_Zombie01_Hat_0
f 3/3/3 2/2/2 1/1/1
f 2/2/2 4/4/4 1/1/1
f 5/5/5 1/1/1 4/4/4
f 2/2/2 6/6/6 4/4/4
f 7/7/7 5/5/5 4/4/4
f 5/5/5 7/7/7 8/8/8
f 7/7/7 9/9/9 8/8/8
f 7/7/7 10/10/10 9/9/9
f 7/7/7 4/4/4 10/10/10
f 10/10/10 11/11/11 9/9/9
f 11/11/11 10/10/10 12/12/12
f 6/6/6 13/13/13 4/4/4
f 4/4/4 13/13/13 10/10/10
f 6/6/6 14/14/14 13/13/13
f 10/10/10 15/15/15 12/12/12
f 15/15/15 10/10/10 13/13/13
f 12/12/12 15/15/15 16/16/16
f 14/14/14 17/17/17 13/13/13
f 17/17/17 15/15/15 13/13/13
f 14/14/14 18/18/18 17/17/17
f 18/18/18 19/19/19 17/17/17
f 15/15/15 17/17/17 19/19/19
f 18/18/18 20/20/20 19/19/19
f 15/15/15 21/21/21 16/16/16
f 21/21/21 15/15/15 19/19/19
f 16/16/16 21/21/21 22/22/22
f 20/20/20 23/23/23 19/19/19
f 19/19/19 23/23/23 21/21/21
f 20/20/20 24/24/24 23/23/23
f 21/21/21 25/25/25 22/22/22
f 23/23/23 25/25/25 21/21/21
f 22/22/22 25/25/25 26/26/26
f 24/24/24 27/27/27 23/23/23
f 23/23/23 27/27/27 25/25/25
f 24/24/24 28/28/28 27/27/27
f 25/25/25 29/29/29 26/26/26
f 27/27/27 29/29/29 25/25/25
f 26/26/26 29/29/29 30/30/30
f 28/28/28 31/31/31 27/27/27
f 29/29/29 27/27/27 31/31/31
f 29/29/29 32/32/32 30/30/30
f 32/32/32 29/29/29 31/31/31
f 30/30/30 32/32/32 33/33/33
f 32/32/32 34/34/34 33/33/33
f 35/35/35 34/34/34 32/32/32
f 31/31/31 35/35/35 32/32/32
f 35/35/35 31/31/31 28/28/28
f 36/36/36 35/35/35 28/28/28
f 39/39/39 38/38/38 37/37/37
f 40/40/40 39/39/39 37/37/37
f 43/43/43 42/42/42 41/41/41
f 44/44/44 43/43/43 41/41/41
f 47/47/47 46/46/46 45/45/45
f 46/46/46 48/48/48 45/45/45
f 45/45/45 48/48/48 49/49/49
f 48/48/48 46/46/46 50/50/50
f 48/48/48 51/51/51 49/49/49
f 52/52/52 49/49/49 51/51/51
f 53/53/53 52/52/52 51/51/51
f 54/54/54 48/48/48 50/50/50
f 51/51/51 48/48/48 54/54/54
f 53/53/53 51/51/51 55/55/55
f 55/55/55 51/51/51 54/54/54
f 56/56/56 53/53/53 55/55/55
f 57/57/57 56/56/56 55/55/55
f 58/58/58 57/57/57 55/55/55
f 58/58/58 55/55/55 54/54/54
f 59/59/59 57/57/57 58/58/58
f 54/54/54 50/50/50 60/60/60
f 60/60/60 58/58/58 54/54/54
f 60/60/60 61/61/61 58/58/58
f 50/50/50 62/62/62 60/60/60
f 60/60/60 62/62/62 61/61/61
f 62/62/62 63/63/63 61/61/61
f 61/61/61 63/63/63 64/64/64
f 65/65/65 59/59/59 58/58/58
f 61/61/61 65/65/65 58/58/58
f 66/66/66 59/59/59 65/65/65
f 67/67/67 66/66/66 65/65/65
f 65/65/65 61/61/61 67/67/67
f 68/68/68 66/66/66 67/67/67
f 69/69/69 61/61/61 64/64/64
f 61/61/61 69/69/69 67/67/67
f 70/70/70 68/68/68 67/67/67
f 70/70/70 67/67/67 69/69/69
f 71/71/71 68/68/68 70/70/70
f 72/72/72 69/69/69 64/64/64
f 72/72/72 70/70/70 69/69/69
f 73/73/73 72/72/72 64/64/64
f 74/74/74 71/71/71 70/70/70
f 70/70/70 72/72/72 74/74/74
f 75/75/75 71/71/71 74/74/74
f 76/76/76 75/75/75 74/74/74
f 77/77/77 76/76/76 74/74/74
f 78/78/78 72/72/72 73/73/73
f 72/72/72 78/78/78 74/74/74
f 78/78/78 77/77/77 74/74/74
f 79/79/79 78/78/78 73/73/73
f 80/80/80 77/77/77 78/78/78
f 79/79/79 80/80/80 78/78/78
f 83/83/83 82/82/82 81/81/81
f 84/84/84 83/83/83 81/81/81
f 87/87/87 86/86/86 85/85/85
f 88/88/88 87/87/87 85/85/85
f 91/91/91 90/90/90 89/89/89
f 91/91/91 89/89/89 92/92/92
f 91/91/91 92/92/92 93/93/93
f 91/91/91 93/93/93 94/94/94
f 95/95/95 94/94/94 93/93/93
f 95/95/95 93/93/93 96/96/96
f 95/95/95 96/96/96 97/97/97
f 95/95/95 97/97/97 98/98/98
f 99/99/99 98/98/98 97/97/97
f 99/99/99 97/97/97 100/100/100
f 103/103/103 102/102/102 101/101/101
f 103/103/103 101/101/101 104/104/104
f 105/105/105 103/103/103 104/104/104
f 105/105/105 106/106/106 103/103/103
f 109/109/109 108/108/108 107/107/107
f 109/109/109 107/107/107 110/110/110
f 111/111/111 109/109/109 110/110/110
f 111/111/111 112/112/112 109/109/109
f 115/115/115 114/114/114 113/113/113
f 115/115/115 116/116/116 114/114/114
f 114/114/114 116/116/116 117/117/117
f 118/118/118 117/117/117 116/116/116
f 118/118/118 119/119/119 117/117/117
f 118/118/118 120/120/120 119/119/119
f 118/118/118 121/121/121 120/120/120
f 120/120/120 121/121/121 122/122/122
f 120/120/120 122/122/122 123/123/123
f 123/123/123 122/122/122 124/124/124
f 123/123/123 124/124/124 125/125/125
f 123/123/123 125/125/125 126/126/126
f 127/127/127 126/126/126 125/125/125
f 127/127/127 125/125/125 128/128/128
f 127/127/127 128/128/128 129/129/129
f 127/127/127 129/129/129 130/130/130
f 130/130/130 129/129/129 131/131/131
f 130/130/130 131/131/131 132/132/132
f 133/133/133 132/132/132 131/131/131
f 133/133/133 131/131/131 134/134/134
f 133/133/133 134/134/134 135/135/135
f 138/138/138 137/137/137 136/136/136
f 138/138/138 139/139/139 137/137/137
f 139/139/139 140/140/140 137/137/137
f 141/141/141 139/139/139 138/138/138
f 141/141/141 138/138/138 142/142/142
f 143/143/143 141/141/141 142/142/142
f 139/139/139 144/144/144 140/140/140
f 144/144/144 145/145/145 140/140/140
f 143/143/143 146/146/146 141/141/141
f 147/147/147 146/146/146 143/143/143
f 139/139/139 141/141/141 148/148/148
f 139/139/139 148/148/148 144/144/144
f 146/146/146 148/148/148 141/141/141
f 144/144/144 149/149/149 145/145/145
f 149/149/149 150/150/150 145/145/145
f 144/144/144 148/148/148 151/151/151
f 144/144/144 151/151/151 149/149/149
f 149/149/149 152/152/152 150/150/150
f 152/152/152 153/153/153 150/150/150
f 149/149/149 151/151/151 154/154/154
f 149/149/149 154/154/154 152/152/152
f 148/148/148 155/155/155 151/151/151
f 155/155/155 154/154/154 151/151/151
f 146/146/146 156/156/156 148/148/148
f 148/148/148 156/156/156 155/155/155
f 147/147/147 157/157/157 146/146/146
f 147/147/147 158/158/158 157/157/157
f 158/158/158 147/147/147 159/159/159
f 158/158/158 159/159/159 160/160/160
f 146/146/146 161/161/161 156/156/156
f 146/146/146 157/157/157 161/161/161
f 156/156/156 162/162/162 155/155/155
f 156/156/156 161/161/161 162/162/162
f 163/163/163 158/158/158 160/160/160
f 164/164/164 163/163/163 160/160/160
f 165/165/165 161/161/161 157/157/157
f 158/158/158 165/165/165 157/157/157
f 155/155/155 166/166/166 154/154/154
f 155/155/155 162/162/162 167/167/167
f 155/155/155 167/167/167 166/166/166
f 166/166/166 168/168/168 154/154/154
f 152/152/152 154/154/154 168/168/168
f 167/167/167 169/169/169 166/166/166
f 166/166/166 169/169/169 168/168/168
f 152/152/152 168/168/168 170/170/170
f 152/152/152 170/170/170 153/153/153
f 153/153/153 170/170/170 171/171/171
f 153/153/153 171/171/171 172/172/172
f 170/170/170 168/168/168 173/173/173
f 170/170/170 173/173/173 171/171/171
f 172/172/172 171/171/171 174/174/174
f 173/173/173 174/174/174 171/171/171
f 172/172/172 174/174/174 175/175/175
f 176/176/176 175/175/175 174/174/174
f 176/176/176 177/177/177 175/175/175
f 176/176/176 178/178/178 177/177/177
f 179/179/179 178/178/178 176/176/176
f 180/180/180 179/179/179 176/176/176
f 174/174/174 181/181/181 176/176/176
f 180/180/180 176/176/176 181/181/181
f 173/173/173 181/181/181 174/174/174
f 181/181/181 182/182/182 180/180/180
f 168/168/168 183/183/183 173/173/173
f 168/168/168 169/169/169 183/183/183
f 173/173/173 184/184/184 181/181/181
f 181/181/181 184/184/184 182/182/182
f 173/173/173 183/183/183 184/184/184
f 184/184/184 185/185/185 182/182/182
f 185/185/185 186/186/186 182/182/182
f 185/185/185 187/187/187 186/186/186
f 183/183/183 188/188/188 184/184/184
f 184/184/184 188/188/188 185/185/185
f 169/169/169 189/189/189 183/183/183
f 183/183/183 189/189/189 188/188/188
f 187/187/187 185/185/185 190/190/190
f 188/188/188 190/190/190 185/185/185
f 169/169/169 191/191/191 189/189/189
f 167/167/167 191/191/191 169/169/169
f 189/189/189 192/192/192 188/188/188
f 188/188/188 192/192/192 190/190/190
f 187/187/187 190/190/190 193/193/193
f 187/187/187 193/193/193 194/194/194
f 191/191/191 195/195/195 189/189/189
f 189/189/189 195/195/195 192/192/192
f 167/167/167 196/196/196 191/191/191
f 191/191/191 196/196/196 195/195/195
f 192/192/192 197/197/197 190/190/190
f 197/197/197 193/193/193 190/190/190
f 167/167/167 198/198/198 196/196/196
f 162/162/162 198/198/198 167/167/167
f 195/195/195 199/199/199 192/192/192
f 192/192/192 199/199/199 197/197/197
f 200/200/200 195/195/195 196/196/196
f 198/198/198 200/200/200 196/196/196
f 162/162/162 201/201/201 198/198/198
f 161/161/161 201/201/201 162/162/162
f 195/195/195 202/202/202 199/199/199
f 200/200/200 202/202/202 195/195/195
f 203/203/203 199/199/199 202/202/202
f 200/200/200 203/203/203 202/202/202
f 198/198/198 204/204/204 200/200/200
f 201/201/201 204/204/204 198/198/198
f 204/204/204 203/203/203 200/200/200
f 199/199/199 205/205/205 197/197/197
f 203/203/203 205/205/205 199/199/199
f 197/197/197 206/206/206 193/193/193
f 205/205/205 206/206/206 197/197/197
f 161/161/161 207/207/207 201/201/201
f 165/165/165 207/207/207 161/161/161
f 201/201/201 208/208/208 204/204/204
f 207/207/207 208/208/208 201/201/201
f 208/208/208 209/209/209 204/204/204
f 204/204/204 209/209/209 203/203/203
f 207/207/207 210/210/210 208/208/208
f 210/210/210 209/209/209 208/208/208
f 211/211/211 207/207/207 165/165/165
f 211/211/211 210/210/210 207/207/207
f 206/206/206 212/212/212 193/193/193
f 194/194/194 193/193/193 212/212/212
f 210/210/210 213/213/213 209/209/209
f 211/211/211 213/213/213 210/210/210
f 214/214/214 213/213/213 211/211/211
f 215/215/215 211/211/211 165/165/165
f 214/214/214 211/211/211 215/215/215
f 215/215/215 165/165/165 158/158/158
f 216/216/216 215/215/215 158/158/158
f 216/216/216 214/214/214 215/215/215
f 216/216/216 158/158/158 163/163/163
f 217/217/217 216/216/216 163/163/163
f 217/217/217 163/163/163 164/164/164
f 194/194/194 212/212/212 218/218/218
f 219/219/219 194/194/194 218/218/218
f 220/220/220 214/214/214 216/216/216
f 217/217/217 220/220/220 216/216/216
f 217/217/217 164/164/164 221/221/221
f 221/221/221 164/164/164 222/222/222
f 223/223/223 221/221/221 222/222/222
f 223/223/223 222/222/222 224/224/224
f 225/225/225 217/217/217 221/221/221
f 225/225/225 221/221/221 223/223/223
f 219/219/219 218/218/218 226/226/226
f 219/219/219 226/226/226 227/227/227
f 228/228/228 220/220/220 217/217/217
f 225/225/225 228/228/228 217/217/217
f 229/229/229 223/223/223 224/224/224
f 229/229/229 224/224/224 230/230/230
f 231/231/231 229/229/229 230/230/230
f 231/231/231 230/230/230 232/232/232
f 233/233/233 231/231/231 232/232/232
f 231/231/231 233/233/233 234/234/234
f 235/235/235 231/231/231 234/234/234
f 235/235/235 236/236/236 231/231/231
f 237/237/237 229/229/229 231/231/231
f 231/231/231 236/236/236 237/237/237
f 223/223/223 229/229/229 238/238/238
f 238/238/238 229/229/229 237/237/237
f 239/239/239 237/237/237 236/236/236
f 238/238/238 237/237/237 239/239/239
f 239/239/239 236/236/236 240/240/240
f 225/225/225 223/223/223 241/241/241
f 223/223/223 238/238/238 241/241/241
f 242/242/242 239/239/239 240/240/240
f 242/242/242 240/240/240 243/243/243
f 244/244/244 225/225/225 241/241/241
f 244/244/244 228/228/228 225/225/225
f 245/245/245 241/241/241 238/238/238
f 244/244/244 241/241/241 245/245/245
f 246/246/246 238/238/238 239/239/239
f 246/246/246 239/239/239 242/242/242
f 245/245/245 238/238/238 246/246/246
f 247/247/247 242/242/242 243/243/243
f 247/247/247 243/243/243 248/248/248
f 249/249/249 246/246/246 242/242/242
f 249/249/249 242/242/242 247/247/247
f 250/250/250 247/247/247 248/248/248
f 249/249/249 247/247/247 250/250/250
f 250/250/250 248/248/248 251/251/251
f 252/252/252 245/245/245 246/246/246
f 252/252/252 246/246/246 249/249/249
f 253/253/253 250/250/250 251/251/251
f 253/253/253 251/251/251 254/254/254
f 255/255/255 253/253/253 254/254/254
f 249/249/249 250/250/250 256/256/256
f 253/253/253 256/256/256 250/250/250
f 255/255/255 257/257/257 253/253/253
f 258/258/258 257/257/257 255/255/255
f 259/259/259 245/245/245 252/252/252
f 259/259/259 244/244/244 245/245/245
f 260/260/260 252/252/252 249/249/249
f 260/260/260 249/249/249 256/256/256
f 253/253/253 261/261/261 256/256/256
f 257/257/257 261/261/261 253/253/253
f 258/258/258 262/262/262 257/257/257
f 263/263/263 262/262/262 258/258/258
f 264/264/264 259/259/259 252/252/252
f 264/264/264 252/252/252 260/260/260
f 256/256/256 265/265/265 260/260/260
f 256/256/256 261/261/261 265/265/265
f 257/257/257 266/266/266 261/261/261
f 266/266/266 257/257/257 262/262/262
f 267/267/267 260/260/260 265/265/265
f 267/267/267 264/264/264 260/260/260
f 268/268/268 265/265/265 261/261/261
f 268/268/268 261/261/261 266/266/266
f 268/268/268 267/267/267 265/265/265
f 263/263/263 269/269/269 262/262/262
f 266/266/266 262/262/262 270/270/270
f 269/269/269 270/270/270 262/262/262
f 271/271/271 268/268/268 266/266/266
f 271/271/271 266/266/266 270/270/270
f 268/268/268 272/272/272 267/267/267
f 271/271/271 272/272/272 268/268/268
f 273/273/273 264/264/264 267/267/267
f 272/272/272 273/273/273 267/267/267
f 274/274/274 269/269/269 263/263/263
f 274/274/274 263/263/263 275/275/275
f 274/274/274 275/275/275 276/276/276
f 274/274/274 276/276/276 277/277/277
f 269/269/269 274/274/274 277/277/277
f 278/278/278 269/269/269 277/277/277
f 269/269/269 278/278/278 270/270/270
f 278/278/278 277/277/277 279/279/279
f 278/278/278 279/279/279 227/227/227
f 278/278/278 227/227/227 226/226/226
f 270/270/270 278/278/278 226/226/226
f 270/270/270 226/226/226 271/271/271
f 226/226/226 280/280/280 271/271/271
f 271/271/271 280/280/280 272/272/272
f 226/226/226 218/218/218 280/280/280
f 280/280/280 281/281/281 272/272/272
f 272/272/272 281/281/281 273/273/273
f 218/218/218 282/282/282 280/280/280
f 280/280/280 282/282/282 281/281/281
f 218/218/218 212/212/212 282/282/282
f 283/283/283 273/273/273 281/281/281
f 282/282/282 283/283/283 281/281/281
f 284/284/284 282/282/282 212/212/212
f 206/206/206 284/284/284 212/212/212
f 282/282/282 285/285/285 283/283/283
f 284/284/284 285/285/285 282/282/282
f 285/285/285 286/286/286 283/283/283
f 284/284/284 286/286/286 285/285/285
f 206/206/206 287/287/287 284/284/284
f 284/284/284 287/287/287 286/286/286
f 205/205/205 287/287/287 206/206/206
f 283/283/283 288/288/288 273/273/273
f 286/286/286 288/288/288 283/283/283
f 288/288/288 289/289/289 273/273/273
f 273/273/273 289/289/289 264/264/264
f 289/289/289 259/259/259 264/264/264
f 289/289/289 290/290/290 259/259/259
f 290/290/290 244/244/244 259/259/259
f 288/288/288 291/291/291 289/289/289
f 291/291/291 290/290/290 289/289/289
f 290/290/290 292/292/292 244/244/244
f 244/244/244 292/292/292 228/228/228
f 286/286/286 293/293/293 288/288/288
f 288/288/288 293/293/293 291/291/291
f 291/291/291 293/293/293 294/294/294
f 291/291/291 295/295/295 290/290/290
f 295/295/295 292/292/292 290/290/290
f 291/291/291 294/294/294 295/295/295
f 292/292/292 296/296/296 228/228/228
f 228/228/228 296/296/296 220/220/220
f 295/295/295 297/297/297 292/292/292
f 295/295/295 294/294/294 297/297/297
f 292/292/292 297/297/297 296/296/296
f 294/294/294 296/296/296 297/297/297
f 296/296/296 298/298/298 220/220/220
f 294/294/294 298/298/298 296/296/296
f 220/220/220 298/298/298 214/214/214
f 286/286/286 299/299/299 293/293/293
f 293/293/293 300/300/300 294/294/294
f 299/299/299 300/300/300 293/293/293
f 299/299/299 301/301/301 300/300/300
f 300/300/300 301/301/301 302/302/302
f 300/300/300 302/302/302 294/294/294
f 294/294/294 302/302/302 298/298/298
f 303/303/303 301/301/301 299/299/299
f 303/303/303 299/299/299 286/286/286
f 287/287/287 303/303/303 286/286/286
f 302/302/302 304/304/304 298/298/298
f 298/298/298 304/304/304 214/214/214
f 302/302/302 301/301/301 304/304/304
f 305/305/305 303/303/303 287/287/287
f 305/305/305 301/301/301 303/303/303
f 205/205/205 305/305/305 287/287/287
f 304/304/304 306/306/306 214/214/214
f 304/304/304 301/301/301 306/306/306
f 214/214/214 306/306/306 213/213/213
f 307/307/307 305/305/305 205/205/205
f 307/307/307 301/301/301 305/305/305
f 203/203/203 307/307/307 205/205/205
f 306/306/306 308/308/308 213/213/213
f 306/306/306 301/301/301 308/308/308
f 213/213/213 308/308/308 209/209/209
f 309/309/309 307/307/307 203/203/203
f 309/309/309 301/301/301 307/307/307
f 209/209/209 309/309/309 203/203/203
f 308/308/308 309/309/309 209/209/209
f 308/308/308 301/301/301 309/309/309
f 312/312/312 311/311/311 310/310/310
f 312/312/312 313/313/313 311/311/311
f 313/313/313 314/314/314 311/311/311
f 315/315/315 314/314/314 313/313/313
f 315/315/315 316/316/316 314/314/314
f 317/317/317 316/316/316 315/315/315
f 317/317/317 315/315/315 318/318/318
f 319/319/319 317/317/317 318/318/318
f 318/318/318 320/320/320 319/319/319
f 318/318/318 321/321/321 320/320/320
f 321/321/321 322/322/322 320/320/320
f 321/321/321 323/323/323 322/322/322
f 323/323/323 324/324/324 322/322/322
f 323/323/323 325/325/325 324/324/324
f 326/326/326 324/324/324 325/325/325
f 326/326/326 325/325/325 327/327/327
f 327/327/327 328/328/328 326/326/326
f 329/329/329 328/328/328 327/327/327
f 329/329/329 327/327/327 330/330/330
f 330/330/330 327/327/327 331/331/331
f 334/334/334 333/333/333 332/332/332
f 334/334/334 332/332/332 335/335/335
f 336/336/336 334/334/334 335/335/335
f 336/336/336 335/335/335 337/337/337
f 337/337/337 338/338/338 336/336/336
f 337/337/337 339/339/339 338/338/338
f 339/339/339 340/340/340 338/338/338
f 332/332/332 341/341/341 335/335/335
f 332/332/332 342/342/342 341/341/341
f 343/343/343 342/342/342 332/332/332
f 341/341/341 344/344/344 335/335/335
f 345/345/345 335/335/335 344/344/344
f 337/337/337 335/335/335 345/345/345
f 337/337/337 345/345/345 346/346/346
f 337/337/337 346/346/346 347/347/347
f 337/337/337 347/347/347 339/339/339
f 347/347/347 348/348/348 339/339/339
f 348/348/348 349/349/349 339/339/339
f 339/339/339 349/349/349 340/340/340
f 348/348/348 350/350/350 349/349/349
f 349/349/349 350/350/350 351/351/351
f 340/340/340 349/349/349 352/352/352
f 349/349/349 351/351/351 352/352/352
f 340/340/340 352/352/352 353/353/353
f 351/351/351 354/354/354 352/352/352
f 353/353/353 352/352/352 355/355/355
f 352/352/352 354/354/354 356/356/356
f 352/352/352 356/356/356 355/355/355
f 359/359/359 358/358/358 357/357/357
f 360/360/360 357/357/357 358/358/358
f 360/360/360 358/358/358 361/361/361
f 360/360/360 362/362/362 357/357/357
f 360/360/360 361/361/361 363/363/363
f 362/362/362 360/360/360 364/364/364
f 362/362/362 364/364/364 365/365/365
f 360/360/360 363/363/363 366/366/366
f 366/366/366 363/363/363 367/367/367
f 365/365/365 364/364/364 368/368/368
f 365/365/365 368/368/368 369/369/369
f 368/368/368 370/370/370 369/369/369
f 360/360/360 371/371/371 364/364/364
f 360/360/360 366/366/366 371/371/371
f 371/371/371 366/366/366 372/372/372
f 373/373/373 364/364/364 371/371/371
f 373/373/373 368/368/368 364/364/364
f 372/372/372 373/373/373 371/371/371
f 366/366/366 367/367/367 374/374/374
f 366/366/366 374/374/374 372/372/372
f 375/375/375 368/368/368 373/373/373
f 375/375/375 373/373/373 372/372/372
f 370/370/370 368/368/368 376/376/376
f 375/375/375 376/376/376 368/368/368
f 370/370/370 376/376/376 377/377/377
f 370/370/370 377/377/377 378/378/378
f 376/376/376 379/379/379 377/377/377
f 375/375/375 379/379/379 376/376/376
f 380/380/380 379/379/379 375/375/375
f 380/380/380 375/375/375 381/381/381
f 381/381/381 375/375/375 372/372/372
f 381/381/381 382/382/382 380/380/380
f 367/367/367 383/383/383 374/374/374
f 367/367/367 384/384/384 383/383/383
f 374/374/374 385/385/385 372/372/372
f 385/385/385 374/374/374 383/383/383
f 386/386/386 382/382/382 381/381/381
f 387/387/387 382/382/382 386/386/386
f 388/388/388 381/381/381 372/372/372
f 372/372/372 385/385/385 388/388/388
f 386/386/386 381/381/381 388/388/388
f 384/384/384 389/389/389 383/383/383
f 384/384/384 390/390/390 389/389/389
f 383/383/383 389/389/389 391/391/391
f 385/385/385 383/383/383 392/392/392
f 383/383/383 391/391/391 392/392/392
f 392/392/392 388/388/388 385/385/385
f 392/392/392 391/391/391 393/393/393
f 392/392/392 394/394/394 388/388/388
f 394/394/394 392/392/392 393/393/393
f 386/386/386 388/388/388 394/394/394
f 394/394/394 393/393/393 395/395/395
f 386/386/386 394/394/394 395/395/395
f 386/386/386 395/395/395 396/396/396
f 387/387/387 386/386/386 396/396/396
f 387/387/387 396/396/396 397/397/397
f 400/400/400 399/399/399 398/398/398
f 399/399/399 401/401/401 398/398/398
f 401/401/401 399/399/399 402/402/402
f 403/403/403 401/401/401 402/402/402
f 402/402/402 404/404/404 403/403/403
f 404/404/404 405/405/405 403/403/403
f 401/401/401 403/403/403 406/406/406
f 406/406/406 403/403/403 405/405/405
f 401/401/401 407/407/407 398/398/398
f 407/407/407 401/401/401 406/406/406
f 408/408/408 406/406/406 405/405/405
f 406/406/406 408/408/408 407/407/407
f 398/398/398 407/407/407 409/409/409
f 398/398/398 409/409/409 410/410/410
f 409/409/409 411/411/411 410/410/410
f 407/407/407 412/412/412 409/409/409
f 408/408/408 412/412/412 407/407/407
f 413/413/413 409/409/409 412/412/412
f 414/414/414 409/409/409 413/413/413
f 415/415/415 414/414/414 413/413/413
f 413/413/413 412/412/412 416/416/416
f 413/413/413 416/416/416 415/415/415
f 412/412/412 408/408/408 416/416/416
f 416/416/416 417/417/417 415/415/415
f 408/408/408 418/418/418 416/416/416
f 417/417/417 416/416/416 418/418/418
f 418/418/418 408/408/408 405/405/405
f 419/419/419 417/417/417 418/418/418
f 418/418/418 405/405/405 420/420/420
f 405/405/405 421/421/421 420/420/420
f 424/424/424 423/423/423 422/422/422
f 422/422/422 425/425/425 424/424/424
f 425/425/425 426/426/426 424/424/424
f 424/424/424 426/426/426 427/427/427
f 427/427/427 428/428/428 424/424/424
f 424/424/424 429/429/429 423/423/423
f 428/428/428 429/429/429 424/424/424
f 428/428/428 430/430/430 429/429/429
f 429/429/429 431/431/431 423/423/423
f 429/429/429 430/430/430 432/432/432
f 429/429/429 433/433/433 431/431/431
f 429/429/429 432/432/432 433/433/433
f 433/433/433 434/434/434 431/431/431
f 432/432/432 435/435/435 433/433/433
f 433/433/433 436/436/436 434/434/434
f 435/435/435 436/436/436 433/433/433
f 435/435/435 437/437/437 436/436/436
f 436/436/436 438/438/438 434/434/434
f 436/436/436 437/437/437 439/439/439
f 436/436/436 440/440/440 438/438/438
f 436/436/436 439/439/439 440/440/440
f 438/438/438 440/440/440 441/441/441
f 439/439/439 442/442/442 440/440/440
f 443/443/443 441/441/441 440/440/440
f 442/442/442 444/444/444 440/440/440
f 440/440/440 444/444/444 443/443/443
f 447/447/447 446/446/446 445/445/445
f 446/446/446 447/447/447 448/448/448
f 446/446/446 449/449/449 445/445/445
f 445/445/445 449/449/449 450/450/450
f 451/451/451 450/450/450 449/449/449
f 446/446/446 448/448/448 452/452/452
f 446/446/446 452/452/452 449/449/449
f 448/448/448 453/453/453 452/452/452
f 454/454/454 452/452/452 453/453/453
f 455/455/455 451/451/451 449/449/449
f 452/452/452 455/455/455 449/449/449
f 452/452/452 454/454/454 455/455/455
f 451/451/451 455/455/455 456/456/456
f 454/454/454 456/456/456 455/455/455
