g A_Monster_Zombie_08_lod2
v 1.32843482 4.22199917 1.16232181
v 1.32307732 4.21945906 1.14430809
v 1.36171186 4.26972437 1.13593853
v 1.44057 4.17619753 1.10427177
v 1.43650436 4.23747396 1.09589851
v 1.4279027 4.17680979 1.0901705
v 1.30902767 4.71612406 1.20711458
v 1.30117154 4.67439747 1.19088745
v 1.26375854 4.7207036 1.34738863
v 1.30117154 4.67439747 1.19088745
v 1.30902767 4.71612406 1.20711458
v 1.41712654 4.66691732 1.33238053
v 1.75536203 4.25613737 0.448208421
v 1.63252449 4.3772788 0.475321144
v 1.59515953 4.3104825 0.509960413
v 1.59515953 4.3104825 0.509960413
v 1.63252449 4.3772788 0.475321144
v 1.60879266 4.21247578 0.310274571
v 1.15753996 4.06858206 0.845103502
v 1.16801393 4.15891027 0.809877515
v 1.09102643 4.0038085 0.908029675
v 1.15411341 4.16566944 0.908504844
v 1.24994552 4.12854242 0.942821026
v 1.06869304 3.91419649 0.799520791
v 1.19415116 3.980407 0.788530588
v 1.25069499 4.13127518 0.834668577
v 1.16801393 4.15891027 0.809877515
v 1.15753996 4.06858206 0.845103502
v 0.598313928 4.06067991 0.695708156
v 0.619724393 4.16454506 0.689091265
v 0.750441432 4.04264498 0.867717505
v 0.732386172 3.904109 0.796782792
v 0.875834584 3.96699667 0.993673086
v 0.635010183 3.96392488 0.638821959
v 0.846337736 3.82177472 0.631108046
v 0.711122632 3.92158961 0.526075423
v 0.963700056 3.9395678 1.00197649
v 0.848509967 3.91699123 0.412821531
v 0.943146884 3.8348043 0.893898249
v 0.998268008 3.84695101 0.485792011
v 0.915257037 3.99348235 0.342185974
v 1.0890274 3.97100711 0.453123271
v 0.92414391 4.10322762 0.334407598
v 1.22994268 3.87972426 0.595161438
v 1.25583565 3.87105346 0.716250598
v 1.11623335 3.81375694 0.700029492
v 1.07192874 4.02720928 0.992620468
v 1.02370453 4.11057615 1.07368314
v 0.884567618 4.10510349 1.03237283
v 1.01603925 3.80988669 0.773073256
v 1.09404349 3.85635924 0.829370379
v 1.25120246 4.0205183 0.745671153
v 1.35346782 4.04997253 0.737429619
v 1.29340494 4.00471592 0.568595648
v 1.08942211 3.9474957 0.946787
v 1.20354187 3.94622087 0.782665372
v 1.06869304 3.91419649 0.799520791
v 1.09102643 4.0038085 0.908029675
v 1.19415116 3.980407 0.788530588
v 1.11306381 4.04273319 0.945172429
v 1.15753996 4.06858206 0.845103502
v 1.23162746 4.02796555 0.771054685
v 1.03685892 4.14619207 0.913949549
v 1.17802107 4.08482456 0.85920316
v 1.22102213 4.09438992 0.67508024
v 1.1391443 4.1234684 0.820485115
v 0.968949556 4.19058037 0.842003584
v 1.14920843 4.13566589 0.630182803
v 1.0664959 4.18909407 0.749269485
v 0.923585057 4.17244482 0.634314537
v 0.812638044 4.17634487 0.765140533
v 1.02855611 4.13013697 0.50477457
v 0.750441432 4.04264498 0.867717505
v 0.875834584 3.96699667 0.993673086
v 0.619724393 4.16454506 0.689091265
v 0.709003687 4.20589209 0.625311673
v 0.795593083 4.19479561 0.524122179
v 0.880185604 4.17300701 0.421067864
v 0.92414391 4.10322762 0.334407598
v 1.0890274 3.97100711 0.453123271
v 1.22994268 3.87972426 0.595161438
v 0.795593083 4.19479561 0.524122179
v 0.488934815 4.01320839 0.509433746
v 0.711122632 3.92158961 0.526075423
v 0.399350494 4.05941391 0.657977879
v 0.635010183 3.96392488 0.638821959
v 0.43067348 4.17811584 0.615417242
v 0.598313928 4.06067991 0.695708156
v 0.619724393 4.16454506 0.689091265
v 0.493661135 4.21478748 0.515083551
v 0.394615293 4.23547506 0.461917609
v 0.309764713 4.06544018 0.588623405
v 0.389117301 4.00170946 0.454914093
v 0.334076256 4.200418 0.558082044
v 0.328590155 4.15564585 0.511900246
v 0.366798729 4.17362452 0.450826854
v 0.318261027 4.0758028 0.523314893
v 0.359165221 4.04996586 0.454916328
v 0.389117301 4.00170946 0.454914093
v 0.375855327 4.07427979 0.429323941
v 0.359165221 4.04996586 0.454916328
v 0.433403492 4.04923487 0.385903835
v 0.488934815 4.01320839 0.509433746
v 0.381947249 4.12716436 0.422984689
v 0.54048413 4.05371952 0.428850055
v 0.534986138 4.15249205 0.443887621
v 0.795593083 4.19479561 0.524122179
v 0.709003687 4.20589209 0.625311673
v 0.619724393 4.16454506 0.689091265
v 0.493661135 4.21478748 0.515083551
v 0.394615293 4.23547506 0.461917609
v 0.443643719 4.15881538 0.376609385
v 0.366798729 4.17362452 0.450826854
v 0.795593083 4.19479561 0.524122179
v 0.711122632 3.92158961 0.526075423
v 0.766017616 3.98035169 0.251683444
v 0.922015607 3.94581676 0.173017383
v 0.848509967 3.91699123 0.412821531
v 0.915257037 3.99348235 0.342185974
v 0.862537503 3.94921994 0.0765971839
v 0.712930977 3.95860457 0.152533948
v 0.933164179 4.08405924 0.162119016
v 0.80488801 3.98260999 0.0740690604
v 0.73073554 3.99358749 0.111485548
v 0.822113037 4.06118345 0.062178459
v 0.838240027 4.16847658 0.206813082
v 0.92414391 4.10322762 0.334407598
v 0.885667384 4.09584093 0.0589676835
v 0.791959047 4.17627954 0.103565879
v 0.76034534 4.1158042 0.0915237516
v 0.714943528 4.0286746 0.118134573
v 0.712930977 3.95860457 0.152533948
v 0.73073554 3.99358749 0.111485548
v 0.664002001 4.0367775 0.174380928
v 0.727514565 4.08010197 0.109689921
v 0.766017616 3.98035169 0.251683444
v 0.693704188 4.1413908 0.155070454
v 0.76034534 4.1158042 0.0915237516
v 0.791959047 4.17627954 0.103565879
v 0.838240027 4.16847658 0.206813082
v 0.749426305 4.13738537 0.253778905
v 0.92414391 4.10322762 0.334407598
v 0.880185604 4.17300701 0.421067864
v 0.795593083 4.19479561 0.524122179
v 0.701471865 4.0565238 0.28207463
v 1.37284911 4.18872786 1.13292563
v 1.32307732 4.21945906 1.14430809
v 1.32843482 4.22199917 1.16232181
v 1.37918162 4.19093275 1.15161073
v 1.40173399 4.24696302 1.13014519
v 1.36171186 4.26972437 1.13593853
v 1.38380015 4.18655682 1.12904441
v 1.44057 4.17619753 1.10427177
v 1.4279027 4.17680979 1.0901705
v 1.39640915 4.18605518 1.14436936
v 1.40223598 4.24674654 1.12987649
v 1.43650436 4.23747396 1.09589851
v 1.00802577 4.28435802 0.827722967
v 1.02663279 4.40522146 0.976989329
v 1.13190961 4.16886234 1.08192265
v 1.21004534 4.19411993 1.14243889
v 1.21582448 4.32467651 1.18194604
v 1.30614936 4.05979824 1.1427772
v 1.14931118 4.41175079 1.14696956
v 1.08700216 4.58449745 0.920612633
v 1.29035234 4.65492487 1.08086205
v 1.22180712 4.46059799 1.18104148
v 1.31807733 4.54399872 1.16992939
v 1.47682035 4.46997595 1.11701572
v 1.49814057 4.57719326 1.0687741
v 1.27162075 4.4129777 1.07192099
v 1.59634733 4.46641779 1.00862956
v 1.60928905 4.51976967 0.982733667
v 1.42397499 4.3288722 1.12172568
v 1.49006498 4.33428812 0.951102018
v 1.65729201 4.43225193 0.869306147
v 1.63745737 4.5351491 0.907345414
v 1.40836453 4.25586081 1.14740479
v 1.64276636 4.35973024 0.976328254
v 1.60531759 4.21504974 0.902635872
v 1.57115352 4.37554026 0.661516845
v 1.51880324 4.19295168 0.713243306
v 1.59730589 4.21150875 0.972348213
v 1.45505011 4.10525131 1.03026855
v 1.41647899 4.0460968 0.92917484
v 1.35707223 4.13385534 0.641123056
v 1.24290788 4.24328566 1.15402853
v 1.48131084 4.15009069 1.03666723
v 1.35950983 4.21212959 1.08249855
v 1.3309505 4.15500832 1.08062112
v 1.35462523 4.13807344 1.15429235
v 1.14332151 4.14729595 0.699929059
v 1.00802577 4.28435802 0.827722967
v 1.13190961 4.16886234 1.08192265
v 1.26690924 4.04990387 0.989448965
v 1.30614936 4.05979824 1.1427772
v 1.41647899 4.0460968 0.92917484
v 1.35707223 4.13385534 0.641123056
v 1.00322878 4.52148199 0.746405303
v 1.08700216 4.58449745 0.920612633
v 1.02663279 4.40522146 0.976989329
v 1.00802577 4.28435802 0.827722967
v 1.06951082 4.45636654 0.630799949
v 1.15780032 4.37706423 0.519827247
v 1.14332151 4.14729595 0.699929059
v 1.35707223 4.13385534 0.641123056
v 1.29562926 4.3589282 0.509996653
v 1.42807341 4.33918953 0.516759038
v 1.51880324 4.19295168 0.713243306
v 1.57115352 4.37554026 0.661516845
v 1.26375854 4.7207036 1.34738863
v 1.30117154 4.67439747 1.19088745
v 0.988579392 4.76068115 1.2053448
v 1.30029345 4.43453741 0.78400135
v 0.757506311 4.67302847 0.907541394
v 0.707249463 4.49619865 0.561045051
v 0.959788084 4.27807045 0.273983717
v 1.38672376 4.20321131 0.19728975
v 1.6380645 4.5863204 1.29268527
v 1.41712654 4.66691732 1.33238053
v 1.88070643 4.45875788 1.03993499
v 1.95227468 4.34899187 0.710990608
v 1.59515953 4.3104825 0.509960413
v 1.60879266 4.21247578 0.310274571
v 1.75536203 4.25613737 0.448208421
v 1.95227468 4.34899187 0.710990608
v 1.63252449 4.3772788 0.475321144
v 1.75536203 4.25613737 0.448208421
v 1.64760101 4.53016949 0.705928802
v 1.88070643 4.45875788 1.03993499
v 1.6283567 4.60819244 0.877851188
v 1.6380645 4.5863204 1.29268527
v 1.51690626 4.67947054 0.991340816
v 1.49836648 4.87568712 0.798666418
v 1.41712654 4.66691732 1.33238053
v 1.35271955 4.72704601 1.02541304
v 1.30902767 4.71612406 1.20711458
v 1.57551086 4.80181265 0.663856745
v 1.55404639 4.48091412 0.548332334
v 1.46417832 4.74319792 0.476314127
v 1.38342631 4.47924042 0.465258598
v 0.988579392 4.76068115 1.2053448
v 1.26375854 4.7207036 1.34738863
v 1.28178537 4.77834749 0.472507626
v 1.38672376 4.20321131 0.19728975
v 1.60879266 4.21247578 0.310274571
v 1.18766856 4.53149796 0.495527834
v 0.959788084 4.27807045 0.273983717
v 0.707249463 4.49619865 0.561045051
v 1.06493258 4.61657429 0.635763586
v 0.757506311 4.67302847 0.907541394
v 1.06519926 4.6917038 0.810035765
v 1.19863319 4.85769987 0.618473232
v 1.32944572 4.90791512 0.795587242
v 1.17512441 4.73389959 0.958868325
v 0.418312401 4.09396458 0.41356352
v 0.414231509 4.17042637 0.425384253
v 0.299216241 4.11662674 0.318168849
v 0.287230641 4.17854309 0.341883838
v 0.189092353 4.12778234 0.229796097
v 0.175324798 4.19523335 0.256804526
v 0.344387531 4.17290926 0.539449275
v 0.0649187043 4.24401188 0.440197289
v 0.22341916 4.17870855 0.513235867
v 0.338557184 4.06624174 0.541750729
v 0.15535526 4.225317 0.493041098
v 0.0870811343 4.18992138 0.60209626
v -0.0178552512 4.20770693 0.572675824
v -0.0234507695 4.1055665 0.57490021
v 0.0801233202 4.0931077 0.606900454
v 0.0413707122 4.04290056 0.464958757
v 0.219686806 4.06923056 0.511840701
v 0.388982683 4.04134369 0.457837403
v 0.130683497 4.03573799 0.520491302
v 0.281207055 4.05066967 0.343057066
v 0.418312401 4.09396458 0.41356352
v 0.169100836 4.04651976 0.256907225
v 0.299216241 4.11662674 0.318168849
v 0.189092353 4.12778234 0.229796097
v 0.706045747 4.06360626 0.151884899
v 0.62790525 4.08203268 0.020157367
v 0.744184554 4.12736082 0.129895553
v 0.672242522 4.12651777 -0.00423514564
v 0.55204004 4.09030437 -0.0991636664
v 0.601456761 4.13817596 -0.126273826
v 0.853561699 4.07204437 0.0763054639
v 0.793064237 4.09008551 -0.222063273
v 0.8342278 4.05181408 -0.0444052145
v 0.818231821 3.97361755 0.0982412621
v 0.833548784 4.08125544 -0.124064431
v 0.924835086 3.99394679 -0.167090282
v 0.906314552 3.99009514 -0.275882214
v 0.872503877 3.8958354 -0.254887044
v 0.895352066 3.9032414 -0.148444891
v 0.745880783 3.8941927 -0.190235212
v 0.794394374 3.95267558 -0.0201940648
v 0.729652166 3.99327374 0.142641306
v 0.792978048 3.89453459 -0.0959289521
v 0.628380537 4.00932121 0.0227929261
v 0.706045747 4.06360626 0.151884899
v 0.549246252 4.00251913 -0.0942468345
v 0.62790525 4.08203268 0.020157367
v 0.55204004 4.09030437 -0.0991636664
v 1.52496529 3.92904115 1.32113969
v 1.63546038 3.8744173 1.30948555
v 1.62417305 3.86193919 1.27409256
v 1.53051949 3.92312622 1.26979637
v 1.47987175 3.91477442 1.30632627
v 1.35343897 3.93309259 1.34643948
v 1.42672157 3.88435531 1.28007257
v 1.50031507 3.83033538 1.22749233
v 1.53617048 3.85073042 1.24443793
v 1.36439872 4.02670622 1.42423356
v 1.49213302 4.02106285 1.4543767
v 1.39412153 4.08134842 1.32206559
v 1.5345484 4.01944828 1.30646586
v 1.57282197 3.92594266 1.49332452
v 1.62591028 3.8956151 1.39485347
v 1.62591028 3.8956151 1.39485347
v 1.52496529 3.92904115 1.32113969
v 1.63546038 3.8744173 1.30948555
v 1.47846234 3.99734235 1.26243818
v 1.3717196 3.98203278 1.27739322
v 1.53899741 3.96302629 1.25863123
v 1.62417305 3.86193919 1.27409256
v 1.53051949 3.92312622 1.26979637
v 1.50093257 3.93561435 1.241943
v 1.47987175 3.91477442 1.30632627
v 1.53617048 3.85073042 1.24443793
v 1.50031507 3.83033538 1.22749233
v 1.43168223 3.92921662 1.23879099
v 1.35343897 3.93309259 1.34643948
v 1.42672157 3.88435531 1.28007257
v 1.76244044 3.86351895 1.06894326
v 1.84318483 3.78275657 1.1310904
v 1.81001222 3.78836274 1.15118837
v 1.81007981 3.91064191 1.01345181
v 1.78446686 3.82413435 1.03024995
v 1.87216353 3.76895738 1.08452976
v 1.91390848 3.75299907 1.03809786
v 1.92096996 3.74055982 0.950690687
v 1.736094 3.91154075 1.01311338
v 1.72175777 3.86708832 1.0636481
v 1.73769665 3.81805587 1.01501846
v 1.72341108 3.79150891 1.11597657
v 1.68038571 3.78114223 1.11049366
v 1.66628444 3.86215901 1.02187645
v 1.67319024 3.80306053 1.00769937
v 1.66258192 3.81046247 0.868110001
v 1.65018654 3.88456941 0.923865318
v 1.7122798 3.956213 0.87515074
v 1.86702418 3.84187603 0.888237357
v 1.78446686 3.82413435 1.03024995
v 1.91390848 3.75299907 1.03809786
v 1.87216353 3.76895738 1.08452976
v 1.74557674 3.87196898 0.805647254
v 1.66258192 3.81046247 0.868110001
v 1.73769665 3.81805587 1.01501846
v 1.67319024 3.80306053 1.00769937
v 1.68038571 3.78114223 1.11049366
v 1.72341108 3.79150891 1.11597657
v 1.76244044 3.86351895 1.06894326
v 1.81001222 3.78836274 1.15118837
v 1.84318483 3.78275657 1.1310904
v 1.25583565 3.87105346 0.716250598
v 1.4778161 3.82235336 0.710914075
v 1.22994268 3.87972426 0.595161438
v 1.47930634 3.89792633 0.799420834
v 1.61068857 3.76660657 0.833419919
v 1.53124619 4.0337944 0.720225632
v 1.35346782 4.04997253 0.737429619
v 1.58924222 3.86638665 0.900299311
v 1.66258192 3.81046247 0.868110001
v 1.65018654 3.88456941 0.923865318
v 1.6907481 3.99165559 0.863781273
v 1.7122798 3.956213 0.87515074
v 1.74557674 3.87196898 0.805647254
v 1.75345612 3.86407518 0.738893509
v 1.66258192 3.81046247 0.868110001
v 1.61068857 3.76660657 0.833419919
v 1.56210494 3.91795135 0.599050224
v 1.29340494 4.00471592 0.568595648
v 1.4778161 3.82235336 0.710914075
v 1.22994268 3.87972426 0.595161438
v 1.15965319 4.01096916 1.18268573
v 0.963700056 3.9395678 1.00197649
v 0.875834584 3.96699667 0.993673086
v 1.09195316 3.9384315 1.24505794
v 1.31284177 3.88531399 1.33645141
v 1.02370453 4.11057615 1.07368314
v 1.34595537 3.96374035 1.24903524
v 1.38306689 4.11381769 1.30759215
v 1.35343897 3.93309259 1.34643948
v 1.3717196 3.98203278 1.27739322
v 1.39412153 4.08134842 1.32206559
v 1.36439872 4.02670622 1.42423356
v 1.10996795 4.15221357 1.24092889
v 1.05553269 4.0465436 1.36308086
v 0.884567618 4.10510349 1.03237283
v 0.875834584 3.96699667 0.993673086
v 1.09195316 3.9384315 1.24505794
v 1.31284177 3.88531399 1.33645141
v 1.33482134 4.02883482 1.46963012
v 1.35343897 3.93309259 1.34643948
v 1.45142603 4.27763557 1.05473816
v 1.42963409 4.35352755 1.03769577
v 1.59359443 4.3435154 1.06240809
v 1.4899112 4.20520973 1.0186137
v 1.53703928 4.43117476 0.99990052
v 1.56011915 4.21159077 0.960604906
v 1.60088456 4.40332174 0.968955994
v 1.60422051 4.29030275 0.940566599
v 1.40134895 4.45204926 1.08795249
v 1.37050533 4.33918238 1.10825181
v 1.31913126 4.40333986 1.18931568
v 1.34689331 4.50123119 1.11737943
v 1.30097735 4.31467724 1.13424075
v 1.2444905 4.49569321 1.14964497
v 1.22839057 4.34907961 1.14173234
v 1.21594226 4.41444111 1.15012848
v -0.0234507695 4.1055665 0.57490021
v 0.0413707122 4.04290056 0.464958757
v 0.0697693303 4.13643265 0.424966693
v -0.0178552512 4.20770693 0.572675824
v 0.169100836 4.04651976 0.256907225
v 0.0649187043 4.24401188 0.440197289
v 0.189092353 4.12778234 0.229796097
v 0.175324798 4.19523335 0.256804526
v 0.745880783 3.8941927 -0.190235212
v 0.872503877 3.8958354 -0.254887044
v 0.740737438 3.99966884 -0.19180724
v 0.549246252 4.00251913 -0.0942468345
v 0.906314552 3.99009514 -0.275882214
v 0.55204004 4.09030437 -0.0991636664
v 0.793064237 4.09008551 -0.222063273
v 0.601456761 4.13817596 -0.126273826
vt 0.264160156 0.873535156
vt 0.267578125 0.873535156
vt 0.272216797 0.919433594
vt 0.309326172 0.934570312
vt 0.300048828 0.978515625
vt 0.305908203 0.934082031
vt 0.608886719 0.890136719
vt 0.615234375 0.895996094
vt 0.645507812 0.893066406
vt 0.615234375 0.895996094
vt 0.608886719 0.890136719
vt 0.609863281 0.936523438
vt 0.323242188 0.875488281
vt 0.356445312 0.842773438
vt 0.334716797 0.84375
vt 0.334716797 0.84375
vt 0.356445312 0.842773438
vt 0.310546875 0.798339844
vt 0.294189453 0.706542969
vt 0.294189453 0.671875
vt 0.265380859 0.706542969
vt 0.262207031 0.671875
vt 0.233520508 0.671875
vt 0.233520508 0.723632812
vt 0.201782227 0.706542969
vt 0.204956055 0.671875
vt 0.172851562 0.671875
vt 0.172851562 0.706542969
vt 0.748046875 0.499023438
vt 0.798339844 0.500488281
vt 0.794433594 0.427490234
vt 0.733398438 0.426269531
vt 0.787597656 0.399902344
vt 0.692871094 0.501464844
vt 0.650878906 0.42578125
vt 0.650878906 0.500976562
vt 0.7578125 0.35546875
vt 0.608886719 0.501464844
vt 0.701660156 0.348144531
vt 0.568359375 0.426269531
vt 0.553710938 0.499023438
vt 0.507324219 0.427490234
vt 0.503417969 0.500488281
vt 0.514648438 0.399902344
vt 0.54296875 0.354980469
vt 0.599609375 0.345703125
vt 0.736328125 0.263916016
vt 0.759277344 0.262695312
vt 0.757324219 0.15625
vt 0.650878906 0.348632812
vt 0.650878906 0.3125
vt 0.565429688 0.263916016
vt 0.542480469 0.262695312
vt 0.545410156 0.156616211
vt 0.699707031 0.281982422
vt 0.602050781 0.281982422
vt 0.650878906 0.291015625
vt 0.681152344 0.260498047
vt 0.620605469 0.260498047
vt 0.697265625 0.245239258
vt 0.650878906 0.23449707
vt 0.604492188 0.245239258
vt 0.704589844 0.200683594
vt 0.650878906 0.224243164
vt 0.597167969 0.200683594
vt 0.650878906 0.201293945
vt 0.695800781 0.156982422
vt 0.605957031 0.156982422
vt 0.650878906 0.157348633
vt 0.650878906 0.0901489258
vt 0.718261719 0.0906982422
vt 0.583496094 0.0903930664
vt 0.78515625 0.087097168
vt 0.806152344 0.106506348
vt 0.763671875 0.0200042725
vt 0.705078125 0.0206756592
vt 0.650878906 0.0205078125
vt 0.596679688 0.0206756592
vt 0.538574219 0.0200042725
vt 0.516601562 0.087097168
vt 0.49609375 0.106872559
vt 0.986328125 0.7578125
vt 0.912597656 0.821289062
vt 0.984375 0.854980469
vt 0.918945312 0.8828125
vt 0.985351562 0.894042969
vt 0.916015625 0.944824219
vt 0.986328125 0.937988281
vt 0.996582031 0.996582031
vt 0.907714844 0.981445312
vt 0.868164062 0.958984375
vt 0.876464844 0.883300781
vt 0.869628906 0.830566406
vt 0.874511719 0.923339844
vt 0.852539062 0.915039062
vt 0.852539062 0.9453125
vt 0.854980469 0.876464844
vt 0.852539062 0.846679688
vt 0.677734375 0.710449219
vt 0.708984375 0.700195312
vt 0.694335938 0.696289062
vt 0.708984375 0.725097656
vt 0.668457031 0.752929688
vt 0.731445312 0.698242188
vt 0.706054688 0.765136719
vt 0.759765625 0.761230469
vt 0.693847656 0.835449219
vt 0.747070312 0.834472656
vt 0.799316406 0.836914062
vt 0.793457031 0.756835938
vt 0.779785156 0.711914062
vt 0.743652344 0.724609375
vt 0.75390625 0.6875
vt 0.608398438 0.983398438
vt 0.706542969 0.982421875
vt 0.670410156 0.91015625
vt 0.731445312 0.916503906
vt 0.746582031 0.981933594
vt 0.7890625 0.982910156
vt 0.732421875 0.874511719
vt 0.680175781 0.8671875
vt 0.778320312 0.913085938
vt 0.725585938 0.850585938
vt 0.696777344 0.850585938
vt 0.765625 0.850585938
vt 0.826660156 0.903808594
vt 0.839355469 0.983398438
vt 0.774902344 0.873535156
vt 0.813964844 0.864746094
vt 0.803222656 0.850585938
vt 0.462890625 0.317626953
vt 0.496337891 0.32421875
vt 0.477294922 0.312011719
vt 0.466796875 0.342041016
vt 0.439208984 0.318603516
vt 0.511230469 0.366210938
vt 0.433105469 0.344970703
vt 0.416259766 0.3203125
vt 0.392578125 0.336181641
vt 0.390136719 0.37890625
vt 0.432373047 0.383544922
vt 0.381835938 0.455078125
vt 0.433837891 0.451660156
vt 0.488037109 0.451660156
vt 0.475097656 0.381835938
vt 0.310302734 0.872558594
vt 0.267578125 0.873535156
vt 0.264160156 0.873535156
vt 0.307373047 0.873046875
vt 0.304931641 0.919921875
vt 0.272216797 0.919433594
vt 0.263183594 0.932617188
vt 0.309326172 0.934570312
vt 0.305908203 0.934082031
vt 0.265869141 0.932617188
vt 0.265380859 0.978515625
vt 0.300048828 0.978515625
vt 0.0122299194 0.0668334961
vt 0.0318603516 0.16015625
vt 0.0977172852 0.0572509766
vt 0.136230469 0.0703735352
vt 0.129760742 0.130249023
vt 0.198974609 0.0114593506
vt 0.0947875977 0.162963867
vt 0.0318908691 0.290527344
vt 0.1171875 0.253662109
vt 0.116760254 0.182495117
vt 0.135986328 0.218994141
vt 0.197143555 0.206420898
vt 0.196533203 0.243408203
vt 0.148681641 0.170410156
vt 0.247558594 0.212646484
vt 0.246582031 0.220825195
vt 0.198852539 0.152832031
vt 0.252197266 0.172485352
vt 0.307128906 0.231689453
vt 0.272216797 0.266357422
vt 0.201049805 0.124206543
vt 0.284912109 0.209716797
vt 0.317871094 0.168212891
vt 0.376953125 0.280517578
vt 0.383056641 0.180664062
vt 0.294189453 0.163574219
vt 0.264892578 0.0726928711
vt 0.315917969 0.0601806641
vt 0.396728516 0.0766601562
vt 0.142089844 0.0953369141
vt 0.260742188 0.100585938
vt 0.198364258 0.0958251953
vt 0.201904297 0.0640258789
vt 0.200683594 0.0421142578
vt 0.474853516 0.149047852
vt 0.41796875 0.152832031
vt 0.410888672 0.237915039
vt 0.479003906 0.223388672
vt 0.465576172 0.282470703
vt 0.526367188 0.240356445
vt 0.530273438 0.155151367
vt 0.0982055664 0.483886719
vt 0.0425109863 0.431640625
vt 0.0600891113 0.562011719
vt 0.126708984 0.570800781
vt 0.16394043 0.514648438
vt 0.217163086 0.520996094
vt 0.225097656 0.609375
vt 0.310546875 0.556152344
vt 0.260498047 0.505859375
vt 0.313232422 0.459472656
vt 0.368164062 0.517578125
vt 0.367919922 0.419433594
vt 0.954589844 0.7734375
vt 0.94140625 0.751464844
vt 0.909667969 0.790039062
vt 0.894042969 0.696289062
vt 0.851074219 0.778808594
vt 0.805664062 0.739257812
vt 0.799804688 0.671875
vt 0.837890625 0.615722656
vt 0.987792969 0.720214844
vt 0.969238281 0.751953125
vt 0.985839844 0.663085938
vt 0.957519531 0.616699219
vt 0.895996094 0.631347656
vt 0.874511719 0.604492188
vt 0.90625 0.60546875
vt 0.365966797 0.955078125
vt 0.356445312 0.842773438
vt 0.323242188 0.875488281
vt 0.422119141 0.888671875
vt 0.455810547 0.993652344
vt 0.473876953 0.913574219
vt 0.559082031 0.98046875
vt 0.525878906 0.905761719
vt 0.502441406 0.856933594
vt 0.609863281 0.936523438
vt 0.565917969 0.871582031
vt 0.608886719 0.890136719
vt 0.465576172 0.856445312
vt 0.393554688 0.838378906
vt 0.444335938 0.816894531
vt 0.403564453 0.782226562
vt 0.653808594 0.810058594
vt 0.645507812 0.893066406
vt 0.467773438 0.783691406
vt 0.323486328 0.733398438
vt 0.310546875 0.798339844
vt 0.448730469 0.741210938
vt 0.407958984 0.647949219
vt 0.528808594 0.641113281
vt 0.508789062 0.733886719
vt 0.614746094 0.708007812
vt 0.556640625 0.763183594
vt 0.508300781 0.787597656
vt 0.525878906 0.828613281
vt 0.579101562 0.815917969
vt 0.240966797 0.855957031
vt 0.212036133 0.86328125
vt 0.244506836 0.927734375
vt 0.216674805 0.9296875
vt 0.251464844 0.989257812
vt 0.221191406 0.989257812
vt 0.162963867 0.858398438
vt 0.134765625 0.990234375
vt 0.138671875 0.90234375
vt 0.141479492 0.83203125
vt 0.137817383 0.948242188
vt 0.0891723633 0.946289062
vt 0.0597229004 0.980957031
vt 0.0232391357 0.946777344
vt 0.0561218262 0.916992188
vt 0.0125350952 0.875488281
vt 0.0951538086 0.85546875
vt 0.140014648 0.795410156
vt 0.0542907715 0.870117188
vt 0.0709838867 0.78125
vt 0.139282227 0.763183594
vt 0.0125427246 0.776367188
vt 0.0721435547 0.752441406
vt 0.012550354 0.743164062
vt 0.239624023 0.856445312
vt 0.244506836 0.927734375
vt 0.213012695 0.863769531
vt 0.216674805 0.9296875
vt 0.251464844 0.989257812
vt 0.221191406 0.989257812
vt 0.164916992 0.859375
vt 0.135009766 0.990722656
vt 0.139038086 0.90234375
vt 0.142089844 0.833984375
vt 0.137817383 0.948242188
vt 0.0869750977 0.946289062
vt 0.0596923828 0.980957031
vt 0.023223877 0.946777344
vt 0.0551452637 0.914550781
vt 0.0125198364 0.875488281
vt 0.0951538086 0.85546875
vt 0.140136719 0.795898438
vt 0.0543212891 0.869628906
vt 0.0709838867 0.78125
vt 0.139160156 0.762695312
vt 0.0125427246 0.776367188
vt 0.0722045898 0.752441406
vt 0.012550354 0.743164062
vt 0.577636719 0.593261719
vt 0.541015625 0.547363281
vt 0.525878906 0.554199219
vt 0.5390625 0.599121094
vt 0.558105469 0.615234375
vt 0.581542969 0.659179688
vt 0.547851562 0.640136719
vt 0.509765625 0.618652344
vt 0.517089844 0.602050781
vt 0.625488281 0.661132812
vt 0.639160156 0.606933594
vt 0.697265625 0.666015625
vt 0.6953125 0.599609375
vt 0.627441406 0.555175781
vt 0.572753906 0.543945312
vt 0.672851562 0.529296875
vt 0.708984375 0.554199219
vt 0.743164062 0.531738281
vt 0.734375 0.618652344
vt 0.753417969 0.663085938
vt 0.736816406 0.590820312
vt 0.760742188 0.540527344
vt 0.751953125 0.5859375
vt 0.760253906 0.59765625
vt 0.759277344 0.56640625
vt 0.795410156 0.579101562
vt 0.805175781 0.595214844
vt 0.767089844 0.625
vt 0.788085938 0.663085938
vt 0.791992188 0.631835938
vt 0.744628906 0.588378906
vt 0.743164062 0.531738281
vt 0.760742188 0.540527344
vt 0.6953125 0.599609375
vt 0.708984375 0.554199219
vt 0.6875 0.527832031
vt 0.658203125 0.53125
vt 0.627441406 0.555175781
vt 0.734375 0.618652344
vt 0.760253906 0.59765625
vt 0.759277344 0.56640625
vt 0.795410156 0.579101562
vt 0.805175781 0.595214844
vt 0.767089844 0.625
vt 0.791992188 0.631835938
vt 0.788085938 0.663085938
vt 0.753417969 0.663085938
vt 0.697265625 0.666015625
vt 0.639160156 0.606933594
vt 0.577636719 0.593261719
vt 0.583984375 0.541503906
vt 0.561523438 0.546386719
vt 0.628417969 0.658203125
vt 0.581542969 0.659179688
vt 0.558105469 0.615234375
vt 0.547851562 0.640136719
vt 0.509765625 0.618652344
vt 0.517089844 0.602050781
vt 0.5390625 0.599121094
vt 0.525878906 0.554199219
vt 0.541015625 0.547363281
vt 0.812988281 0.0531005859
vt 0.890625 0.0157928467
vt 0.813964844 0.000813484192
vt 0.888183594 0.0598754883
vt 0.975097656 0.0240783691
vt 0.885253906 0.132080078
vt 0.822753906 0.132202148
vt 0.977539062 0.0686645508
vt 0.989257812 0.0372009277
vt 0.989257812 0.0745239258
vt 0.977050781 0.130859375
vt 0.989257812 0.130371094
vt 0.989257812 0.210327148
vt 0.976074219 0.211914062
vt 0.989257812 0.284179688
vt 0.974609375 0.296142578
vt 0.890625 0.216308594
vt 0.813964844 0.223266602
vt 0.890136719 0.293701172
vt 0.812988281 0.301513672
vt 0.889648438 0.547363281
vt 0.821777344 0.552734375
vt 0.818847656 0.605957031
vt 0.892089844 0.58984375
vt 0.977050781 0.584960938
vt 0.829589844 0.474121094
vt 0.98046875 0.539550781
vt 0.979980469 0.476074219
vt 0.991699219 0.571289062
vt 0.991699219 0.533691406
vt 0.991699219 0.4765625
vt 0.991699219 0.395507812
vt 0.889160156 0.474853516
vt 0.892578125 0.38671875
vt 0.820800781 0.382324219
vt 0.821289062 0.300292969
vt 0.891113281 0.306396484
vt 0.9765625 0.309082031
vt 0.978515625 0.393798828
vt 0.991699219 0.321044922
vt 0.402587891 0.524414062
vt 0.374755859 0.55859375
vt 0.441162109 0.578613281
vt 0.438476562 0.505859375
vt 0.416259766 0.620605469
vt 0.486328125 0.517578125
vt 0.464599609 0.62109375
vt 0.501464844 0.567871094
vt 0.143798828 0.69921875
vt 0.140380859 0.648925781
vt 0.0971679688 0.681152344
vt 0.0940551758 0.732421875
vt 0.105163574 0.623046875
vt 0.0396728516 0.707519531
vt 0.0606384277 0.62890625
vt 0.0307769775 0.662109375
vt 0.144042969 0.818847656
vt 0.192016602 0.848144531
vt 0.21484375 0.813476562
vt 0.149780273 0.778808594
vt 0.288330078 0.852050781
vt 0.212768555 0.770019531
vt 0.3046875 0.825195312
vt 0.295410156 0.797363281
vt 0.192016602 0.848144531
vt 0.144042969 0.818847656
vt 0.21484375 0.813476562
vt 0.288330078 0.852050781
vt 0.149780273 0.778808594
vt 0.3046875 0.825195312
vt 0.212768555 0.770019531
vt 0.295410156 0.797363281
vn 0.00749207428 0.0419167504 0.999093056
vn -0.784274936 -0.537987351 0.30900237
vn 0.29140541 0.270535022 0.917547643
vn 0.74921459 -0.245112002 0.615302861
vn 0.718661368 0.120882615 0.684772372
vn 0.183735937 -0.960958242 -0.206882715
vn 0.908356726 -0.288689405 0.302566499
vn 0.908356726 -0.288689464 0.302566528
vn 0.908356726 -0.288689405 0.302566499
vn -0.772222638 -0.0986915827 0.627640188
vn -0.772222638 -0.0986915752 0.627640188
vn -0.772222638 -0.0986915752 0.627640188
vn -0.415840089 -0.224416211 -0.881314039
vn -0.415840089 -0.224416211 -0.881314039
vn -0.415840089 -0.224416211 -0.881314039
vn 0.89473933 -0.373709977 0.244504333
vn 0.894739449 -0.373709977 0.244504362
vn 0.894739449 -0.373709977 0.244504333
vn -0.0703740269 -0.980716407 -0.182326391
vn -0.561250329 0.282092303 -0.778088629
vn 0.596981764 -0.661511958 0.453888386
vn -0.776694119 0.301099271 0.553249955
vn 0.447789282 -0.460766941 0.766275883
vn 0.719223201 -0.286617994 0.63290447
vn 0.532135129 -0.652418494 0.539613068
vn 0.861600161 -0.177490726 -0.475544065
vn -0.561250329 0.282092303 -0.778088629
vn -0.0703740269 -0.980716407 -0.182326391
vn -0.473347753 0.0775472075 0.877455592
vn -0.332660556 0.768597484 0.546438336
vn -0.748372793 0.210213944 0.629085302
vn -0.622507989 -0.692011893 0.365517974
vn -0.664358616 -0.557455182 0.49786672
vn -0.556347907 -0.766606987 0.320609927
vn -0.290095866 -0.952773571 -0.0898164436
vn -0.660393596 -0.449900478 -0.601223648
vn 0.463003427 -0.863586068 0.199616879
vn -0.109872639 -0.925587535 -0.362237215
vn -0.196241036 -0.840883315 0.504385531
vn 0.132569149 -0.862252772 -0.488820672
vn 0.858467579 -0.288330168 -0.424145252
vn 0.535633922 -0.0622914694 -0.842149675
vn 0.747509658 0.573796153 -0.334644824
vn 0.170297503 -0.805059195 -0.568224013
vn -0.0719914958 -0.613261878 0.786592007
vn 0.29651624 -0.955027819 0.000217644381
vn 0.613328099 -0.155476138 0.774374485
vn 0.316154122 0.893856406 -0.31791085
vn -0.78873992 0.207665533 0.578588188
vn 0.0110005802 -0.993364215 0.114484198
vn 0.575478315 -0.642000318 0.506616473
vn 0.254011244 0.14348191 0.956499398
vn 0.0104736062 0.895490766 0.444956809
vn 0.326414108 0.138065323 -0.935089231
vn 0.50581789 -0.548168123 0.666078031
vn 0.770441294 -0.520505607 0.368095428
vn 0.719223201 -0.286617994 0.63290447
vn 0.596981764 -0.661511958 0.453888386
vn 0.532135129 -0.652418494 0.539613068
vn 0.779758334 0.169815421 0.602610767
vn -0.0703740269 -0.980716407 -0.182326391
vn 0.845577657 0.171282604 0.505629122
vn 0.347666711 0.797459066 0.493139863
vn 0.798312843 0.296861887 0.523993909
vn 0.669867516 0.741249502 0.0427384749
vn 0.494827241 0.844939649 0.203034267
vn 0.02164682 0.973496437 0.227675498
vn 0.434650272 0.870245397 -0.231844872
vn 0.306421757 0.951697707 0.0194226317
vn 0.130572528 0.988061666 -0.0817619413
vn -0.246806607 0.911776006 0.32825473
vn 0.459346503 0.768421829 -0.445565701
vn -0.748372793 0.210213944 0.629085302
vn -0.664358616 -0.557455182 0.49786672
vn -0.332660556 0.768597484 0.546438336
vn -0.115794905 0.992243707 0.0452089719
vn -0.348343611 0.829678357 -0.436223149
vn 0.23965016 0.938090086 -0.250109792
vn 0.747509658 0.573796153 -0.334644824
vn 0.535633922 -0.0622914694 -0.842149675
vn 0.170297503 -0.805059195 -0.568224013
vn -0.348343611 0.829678357 -0.436223149
vn -0.0606528819 -0.953160703 -0.296320617
vn -0.660393596 -0.449900478 -0.601223648
vn -0.363151282 -0.464075089 0.807932913
vn -0.556347907 -0.766606987 0.320609927
vn -0.289771318 0.455686659 0.84165448
vn -0.473347753 0.0775472075 0.877455592
vn -0.332660556 0.768597484 0.546438336
vn 0.234320059 0.950919092 0.202106431
vn -0.242009863 0.921118736 -0.304912359
vn -0.607720196 -0.517824829 0.602107584
vn -0.171223238 -0.983886898 -0.0514687411
vn -0.632888258 0.598443687 0.491240859
vn -0.933546185 0.291248053 -0.208964184
vn -0.724727213 0.39044708 -0.567733645
vn -0.95465064 -0.244901523 -0.169308275
vn -0.762334406 -0.49218601 -0.420237005
vn -0.171223238 -0.983886898 -0.0514687411
vn -0.627304912 -0.168744564 -0.760272205
vn -0.762334406 -0.49218601 -0.420237005
vn 0.161876097 -0.50566113 -0.847409546
vn -0.0606528819 -0.953160703 -0.296320617
vn -0.620515168 0.140113384 -0.771575749
vn 0.510632813 -0.576537728 -0.637854576
vn 0.369097769 0.550528705 -0.748788953
vn -0.348343611 0.829678357 -0.436223149
vn -0.115794905 0.992243707 0.0452089719
vn -0.332660556 0.768597484 0.546438336
vn 0.234320059 0.950919092 0.202106431
vn -0.242009863 0.921118736 -0.304912359
vn 0.156337202 0.324732125 -0.932795644
vn -0.724727213 0.39044708 -0.567733645
vn -0.348343611 0.829678357 -0.436223149
vn -0.660393596 -0.449900478 -0.601223648
vn -0.656568706 -0.753874242 0.0243141539
vn 0.554787576 -0.816694796 -0.158809304
vn -0.109872639 -0.925587535 -0.362237215
vn 0.858467579 -0.288330168 -0.424145252
vn 0.398381114 -0.827841818 -0.39493078
vn -0.389557362 -0.917237341 0.0831908062
vn 0.931703269 0.295209885 -0.211613223
vn -0.219853804 -0.426302254 -0.877456963
vn -0.546935678 -0.518829823 -0.657021284
vn -0.0986604914 0.0687949359 -0.992740333
vn 0.429858863 0.898893118 0.0849272609
vn 0.747509658 0.573796153 -0.334644824
vn 0.683389246 0.362446457 -0.633728325
vn 0.101284511 0.940028787 -0.325710654
vn -0.398259848 0.320132285 -0.859595418
vn -0.75436765 -0.0767724067 -0.651947439
vn -0.389557362 -0.917237341 0.0831908062
vn -0.546935678 -0.518829823 -0.657021284
vn -0.975029051 -0.138218388 0.173821911
vn -0.683108389 0.184034362 -0.706749141
vn -0.656568706 -0.753874242 0.0243141539
vn -0.693805873 0.720071912 0.0114001222
vn -0.398259848 0.320132285 -0.859595418
vn 0.101284511 0.940028787 -0.325710654
vn 0.429858863 0.898893118 0.0849272609
vn -0.525876403 0.836922169 0.15170829
vn 0.747509658 0.573796153 -0.334644824
vn 0.23965016 0.938090086 -0.250109792
vn -0.348343611 0.829678357 -0.436223149
vn -0.868562758 -0.169735879 0.465605348
vn -0.0587678216 -0.98886615 0.136711717
vn -0.784274936 -0.537987351 0.30900237
vn 0.00749207428 0.0419167504 0.999093056
vn 0.305140048 -0.127702937 0.943706274
vn 0.346274823 0.237011462 0.907700062
vn 0.29140541 0.270535022 0.917547643
vn -0.45390138 -0.820834637 0.346704632
vn 0.74921459 -0.245112002 0.615302861
vn 0.183735937 -0.960958242 -0.206882715
vn 0.515588045 -0.180944562 0.837513089
vn 0.671249807 0.130430371 0.729665339
vn 0.718661368 0.120882615 0.684772372
vn -0.909144998 -0.409683377 -0.0749325976
vn -0.856216371 0.22439988 0.46533671
vn -0.769899487 -0.546260476 0.329930574
vn -0.452356964 -0.165683389 0.876311719
vn -0.379037082 0.0118018463 0.925306261
vn -0.118638068 -0.830644071 0.544017851
vn -0.714181662 0.339162976 0.61230135
vn -0.727134585 0.467493504 0.502717614
vn -0.403740615 0.561061561 0.722636521
vn -0.0109587442 0.17419365 0.984650433
vn 0.193378136 0.224784255 0.955027163
vn 0.439677119 0.0195258707 0.897943616
vn 0.42803672 0.443220109 0.787616968
vn 0.283995986 0.0451972559 0.957759559
vn 0.628517866 -0.245856315 0.737915933
vn 0.838148177 0.0801775828 0.539517462
vn 0.527769685 0.103418566 0.843068063
vn 0.594201148 0.0649978146 0.801685929
vn 0.944836199 -0.243447989 -0.219129145
vn 0.932486892 0.0473694205 0.358084232
vn 0.485126585 -0.0838020071 0.870419145
vn 0.685687661 -0.156996757 0.710763276
vn 0.851765037 -0.469104588 -0.233317688
vn 0.853305221 -0.325790852 -0.40710023
vn 0.732501566 -0.545217693 -0.407650709
vn 0.730785608 -0.067988269 0.679212809
vn 0.594786823 -0.651069999 0.471525669
vn 0.260895938 -0.953248322 -0.152482852
vn 0.0747279972 -0.820363581 -0.566938579
vn 0.208292633 -0.384653002 0.89925313
vn 0.457891971 -0.37961483 0.803882718
vn 0.176368937 -0.554374754 0.813364983
vn 0.494018316 0.262870312 0.82876128
vn 0.50394541 0.217042342 0.836021364
vn -0.544171035 -0.730010748 -0.413475782
vn -0.909144998 -0.409683377 -0.0749325976
vn -0.769899487 -0.546260476 0.329930574
vn -0.39455691 -0.918056071 -0.038701281
vn -0.118638068 -0.830644071 0.544017851
vn 0.260895938 -0.953248322 -0.152482852
vn 0.0747279972 -0.820363581 -0.566938579
vn -0.996163487 0.0473940372 -0.0735668913
vn -0.727134585 0.467493504 0.502717614
vn -0.856216371 0.22439988 0.46533671
vn -0.909144998 -0.409683377 -0.0749325976
vn -0.85832566 -0.222506359 -0.462350458
vn -0.559150875 -0.461643398 -0.688647807
vn -0.544171035 -0.730010748 -0.413475782
vn 0.0747279972 -0.820363581 -0.566938579
vn -0.0931685194 -0.520072222 -0.849025667
vn 0.361248881 -0.519699812 -0.774216652
vn 0.732501566 -0.545217693 -0.407650709
vn 0.853305221 -0.325790852 -0.40710023
vn -0.250168592 -0.943055511 0.21923025
vn -0.284480035 -0.845388651 0.452094257
vn -0.250166744 -0.854335487 0.455551982
vn -0.183348298 -0.896044552 0.404335886
vn -0.265985519 -0.845349014 0.463289022
vn -0.258112222 -0.854840517 0.450139821
vn -0.17728512 -0.90144974 0.39491567
vn -0.0947932974 -0.928703666 0.358502179
vn -0.202297375 -0.897848845 0.391079605
vn -0.303911299 -0.931511521 0.199810266
vn -0.104266904 -0.939810872 0.325397998
vn -0.093298167 -0.944360733 0.315401584
vn -0.083624512 -0.93079412 0.35585016
vn -0.178508818 -0.888051391 0.4236736
vn -0.141062334 -0.895494163 0.422127515
vn 0.525697649 0.791854262 -0.310819507
vn 0.391387105 0.687404335 -0.611793637
vn 0.494274646 0.634250283 -0.594490767
vn 0.691992342 0.625037551 -0.361212581
vn 0.52940619 0.840029299 -0.118659168
vn 0.669135213 0.74305582 -0.011234357
vn 0.410398215 0.907365024 0.0908950642
vn 0.487026602 0.823890567 0.289843798
vn 0.471272737 0.862181008 0.185865238
vn 0.332994074 0.933615804 0.132198334
vn 0.211398631 0.917354524 0.337300003
vn 0.176586583 0.980993271 0.0804326236
vn 0.720937669 0.624292135 -0.300845981
vn 0.698790133 0.280143619 -0.658188403
vn 0.410715252 0.449735016 -0.793127537
vn 0.0852277055 0.516772389 -0.851869941
vn -0.0617076792 0.987914681 -0.142185718
vn 0.137644961 0.990407884 0.0120881479
vn -0.224131688 0.510714769 -0.830021322
vn 0.0812664554 0.677984357 -0.730570257
vn 0.324769944 0.645512164 -0.691258609
vn -0.156279251 0.605960548 -0.7799927
vn -0.0664092526 0.712822855 -0.698192835
vn -0.168318704 0.810896337 -0.560460448
vn -0.315924257 0.751012981 -0.579802871
vn -0.166406676 0.932533085 -0.320454329
vn -0.320445627 0.92628485 -0.198269591
vn -0.460425913 0.825369179 -0.326762557
vn -0.111375295 0.983182788 0.144731686
vn -0.25019452 0.967890799 0.0242915135
vn 0.618655205 -0.295537859 -0.727958143
vn 0.194789127 0.965545058 -0.172568679
vn 0.612482548 -0.0404422432 -0.789448857
vn 0.307655811 0.921115518 -0.23852475
vn 0.628084242 -0.020425301 -0.777877271
vn 0.371661752 0.879642725 -0.296810299
vn -0.0589862168 0.889191151 0.453717768
vn 0.196763963 0.980430305 -0.00634432398
vn 0.297980428 0.647090733 0.701770067
vn -0.214578718 -0.790122569 0.574162245
vn 0.263937593 0.962169647 0.0675747022
vn 0.23805654 0.329054475 0.913811922
vn -0.156753838 0.523122668 0.837717652
vn -0.304312259 -0.337462902 0.890793324
vn 0.178328216 -0.26527074 0.94753921
vn -0.0407808349 -0.998309851 0.0414049588
vn 0.184617907 -0.645352364 0.741239965
vn -0.0113357026 -0.999922991 -0.00506052561
vn 0.0443799309 -0.989942074 0.134331793
vn 0.169035599 -0.960618496 -0.22054249
vn 0.618655205 -0.295537859 -0.727958143
vn 0.195294395 -0.942060828 -0.272729814
vn 0.612482548 -0.0404422432 -0.789448857
vn 0.628084242 -0.020425301 -0.777877271
vn -0.801202893 0.150071353 0.579268873
vn -0.76855731 0.398353428 0.500633836
vn 0.174192667 0.981372356 -0.0810266435
vn 0.0939003527 0.995115876 0.0304487068
vn -0.7510764 0.416937977 0.511905253
vn 0.0230910946 0.995184958 0.0952559263
vn 0.739625216 0.633260369 -0.227894351
vn 0.334870845 0.940188885 -0.0624998175
vn 0.876960814 0.433807433 0.206762731
vn 0.263833255 -0.962265015 0.0666173622
vn 0.395824641 0.918192327 0.0156712439
vn 0.964637995 0.0602724776 0.256594509
vn 0.972177327 0.148761794 -0.180945173
vn 0.72202307 -0.685159206 -0.0961219519
vn 0.788048267 -0.502762854 0.355259925
vn -0.312430143 -0.923884928 0.220961779
vn 0.460828245 -0.774689317 0.433005452
vn -0.357225746 -0.901611507 0.243898496
vn -0.224770725 -0.923139036 0.311917305
vn -0.549584389 -0.743839681 0.38034147
vn -0.801202893 0.150071353 0.579268873
vn -0.592530131 -0.702411532 0.394367993
vn -0.76855731 0.398353428 0.500633836
vn -0.7510764 0.416937977 0.511905253
vn -0.100524239 -0.852499366 0.512971401
vn 0.962846875 -0.0163099524 -0.269555181
vn 0.686058581 -0.205182239 -0.698014259
vn -0.285384089 -0.85983634 -0.423364371
vn 0.207977533 -0.707145095 0.675789237
vn 0.26341477 -0.818729877 0.510190248
vn -0.412767082 -0.872604668 0.261121273
vn 0.0717385784 -0.922592044 -0.379048049
vn 0.628153145 -0.74529016 -0.223531544
vn 0.316271067 -0.403258443 0.858693898
vn 0.130427837 -0.202137649 0.970633268
vn 0.576671541 0.812011302 -0.0899310485
vn 0.640672743 0.759730995 -0.111117899
vn 0.297674596 0.0147623671 0.954553246
vn 0.977538526 -0.119506873 0.173598945
vn 0.977538526 -0.119506873 0.173598945
vn -0.100524239 -0.852499366 0.512971401
vn 0.962846875 -0.0163099524 -0.269555181
vn 0.0717988536 0.543383121 -0.836408854
vn 0.320990056 -0.124170639 -0.938907266
vn 0.594926775 0.433149219 -0.677084863
vn 0.686058581 -0.205182239 -0.698014259
vn -0.285384089 -0.85983634 -0.423364371
vn 0.376833737 0.183179647 -0.907987595
vn 0.207977533 -0.707145095 0.675789237
vn 0.628153145 -0.74529016 -0.223531544
vn 0.0717385784 -0.922592044 -0.379048049
vn -0.364602059 -0.0177701153 -0.930993915
vn 0.26341477 -0.818729877 0.510190248
vn -0.412767082 -0.872604668 0.261121273
vn -0.128218025 0.434245139 0.891622841
vn -0.133707508 0.312130779 0.940583169
vn -0.388919622 0.285255075 0.875997186
vn 0.588183761 0.787055314 0.185967118
vn -0.0892412066 -0.986189783 -0.139520064
vn 0.387666255 -0.00968280993 0.921748877
vn 0.931028962 -0.166278437 0.324863851
vn 0.657967806 -0.485764384 -0.575422704
vn -0.257598281 0.87792182 0.403604388
vn -0.121153161 0.592138231 0.796676993
vn 0.326245397 -0.945203662 -0.0124121634
vn 0.10717842 -0.543997407 0.83221364
vn -0.454202294 -0.633005798 0.626900196
vn -0.827169418 0.418718636 0.374787271
vn -0.429689616 -0.898875177 -0.0859661922
vn 0.215406984 -0.971209347 0.101745598
vn -0.625605345 0.294665664 0.722350419
vn 0.437871814 0.882617056 0.171041831
vn 0.6184991 -0.613404691 -0.491114587
vn -0.0892412066 -0.986189783 -0.139520064
vn 0.931028962 -0.166278437 0.324863851
vn 0.387666255 -0.00968280993 0.921748877
vn 0.685828924 -0.683240831 -0.250640482
vn 0.215406984 -0.971209347 0.101745598
vn 0.326245397 -0.945203662 -0.0124121634
vn -0.429689616 -0.898875177 -0.0859661922
vn -0.454202294 -0.633005798 0.626900196
vn 0.10717842 -0.543997407 0.83221364
vn -0.128218025 0.434245139 0.891622841
vn -0.388919622 0.285255075 0.875997186
vn -0.133707508 0.312130779 0.940583169
vn -0.0719914958 -0.613261878 0.786592007
vn -0.0457496382 -0.91058749 -0.410776645
vn 0.170297503 -0.805059195 -0.568224013
vn -0.476495653 -0.0191730615 0.878967643
vn -0.0483757146 -0.984708667 -0.167357773
vn 0.210003361 0.97759217 -0.0145656541
vn 0.0104736062 0.895490766 0.444956809
vn -0.577055633 0.112693563 0.808892488
vn 0.215406984 -0.971209347 0.101745598
vn -0.625605345 0.294665664 0.722350419
vn 0.253548801 0.964486659 0.0740170106
vn 0.437871814 0.882617056 0.171041831
vn 0.685828924 -0.683240831 -0.250640482
vn 0.686024666 -0.0788854957 -0.723289192
vn 0.215406984 -0.971209347 0.101745598
vn -0.0483757146 -0.984708667 -0.167357773
vn 0.411378562 0.031858325 -0.910907686
vn 0.326414108 0.138065323 -0.935089231
vn -0.0457496382 -0.91058749 -0.410776645
vn 0.170297503 -0.805059195 -0.568224013
vn 0.480304658 -0.138651341 -0.86607343
vn 0.463003427 -0.863586068 0.199616879
vn -0.664358616 -0.557455182 0.49786672
vn -0.48961392 -0.796231389 0.3553783
vn -0.20108588 -0.924319506 0.324342251
vn 0.316154122 0.893856406 -0.31791085
vn 0.333237678 -0.145359263 -0.931570411
vn 0.173361763 0.984415352 -0.0295296237
vn 0.26341477 -0.818729877 0.510190248
vn 0.320990056 -0.124170639 -0.938907266
vn 0.576671541 0.812011302 -0.0899310485
vn 0.316271067 -0.403258443 0.858693898
vn 0.0660747588 0.996944368 -0.0416641533
vn -0.575057209 0.151144534 0.80403012
vn -0.78873992 0.207665533 0.578588188
vn -0.664358616 -0.557455182 0.49786672
vn -0.48961392 -0.796231389 0.3553783
vn -0.20108588 -0.924319506 0.324342251
vn -0.233993262 0.232854471 0.943941712
vn 0.26341477 -0.818729877 0.510190248
vn 0.00988721848 -0.136661962 0.990568459
vn -0.118338756 0.352928162 0.928136587
vn 0.550938487 0.0655442402 0.83196795
vn 0.373106599 -0.522476554 0.766687453
vn 0.0931316018 0.617197335 0.78127718
vn 0.673093021 -0.551247835 0.493023038
vn 0.898199618 0.335092604 0.284517676
vn 0.939400733 -0.276489139 0.202682152
vn 0.750901878 0.0931124315 0.653816879
vn 0.704086542 -0.267400175 0.657844484
vn 0.331902057 0.00324199698 0.943308234
vn 0.460122079 0.437323391 0.772680998
vn 0.157436162 -0.544140637 0.824090302
vn -0.0107009383 0.387346685 0.921872079
vn -0.26064679 -0.352349877 0.898839772
vn -0.355988771 -0.0105023067 0.934431255
vn -0.851952493 0.0352950282 -0.522428215
vn -0.851952493 0.03529533 -0.522428155
vn -0.85195154 0.0353703573 -0.522424579
vn -0.851929426 0.0353843085 -0.522459805
vn -0.85195148 0.0352952257 -0.522429824
vn -0.851938367 0.0354858078 -0.522438169
vn -0.851959586 0.035360653 -0.522412181
vn -0.851969481 0.0354401171 -0.522390842
vn -0.45409146 -0.0354118906 -0.890250981
vn -0.454090208 -0.0354114547 -0.890251756
vn -0.454059064 -0.0353453681 -0.890270174
vn -0.454091072 -0.0354117677 -0.890251279
vn -0.454087049 -0.0353145935 -0.89025712
vn -0.454050094 -0.0353606232 -0.890274227
vn -0.454030097 -0.0352330878 -0.890289426
vn -0.454000324 -0.0352985114 -0.890302002
g A_Monster_Zombie_08_lod2_0
f 3/3/3 2/2/2 1/1/1
f 6/6/6 5/5/5 4/4/4
f 9/9/9 8/8/8 7/7/7
f 12/12/12 11/11/11 10/10/10
f 15/15/15 14/14/14 13/13/13
f 18/18/18 17/17/17 16/16/16
f 21/21/21 20/20/20 19/19/19
f 22/22/22 20/20/20 21/21/21
f 23/23/23 22/22/22 21/21/21
f 24/24/24 23/23/23 21/21/21
f 23/23/23 24/24/24 25/25/25
f 26/26/26 23/23/23 25/25/25
f 27/27/27 26/26/26 25/25/25
f 27/27/27 25/25/25 28/28/28
f 31/31/31 30/30/30 29/29/29
f 31/31/31 29/29/29 32/32/32
f 31/31/31 32/32/32 33/33/33
f 32/32/32 29/29/29 34/34/34
f 35/35/35 32/32/32 34/34/34
f 34/34/34 36/36/36 35/35/35
f 33/33/33 32/32/32 37/37/37
f 36/36/36 38/38/38 35/35/35
f 37/37/37 32/32/32 39/39/39
f 39/39/39 32/32/32 35/35/35
f 40/40/40 35/35/35 38/38/38
f 41/41/41 40/40/40 38/38/38
f 41/41/41 42/42/42 40/40/40
f 43/43/43 42/42/42 41/41/41
f 42/42/42 44/44/44 40/40/40
f 40/40/40 44/44/44 45/45/45
f 40/40/40 46/46/46 35/35/35
f 40/40/40 45/45/45 46/46/46
f 37/37/37 39/39/39 47/47/47
f 48/48/48 37/37/37 47/47/47
f 47/47/47 49/49/49 48/48/48
f 35/35/35 50/50/50 39/39/39
f 46/46/46 50/50/50 35/35/35
f 39/39/39 50/50/50 51/51/51
f 50/50/50 46/46/46 51/51/51
f 52/52/52 46/46/46 45/45/45
f 53/53/53 52/52/52 45/45/45
f 53/53/53 54/54/54 52/52/52
f 55/55/55 47/47/47 39/39/39
f 55/55/55 39/39/39 51/51/51
f 46/46/46 56/56/56 51/51/51
f 56/56/56 46/46/46 52/52/52
f 57/57/57 55/55/55 51/51/51
f 56/56/56 57/57/57 51/51/51
f 55/55/55 57/57/57 58/58/58
f 57/57/57 56/56/56 59/59/59
f 60/60/60 55/55/55 58/58/58
f 47/47/47 55/55/55 60/60/60
f 60/60/60 58/58/58 61/61/61
f 56/56/56 62/62/62 59/59/59
f 56/56/56 52/52/52 62/62/62
f 59/59/59 62/62/62 61/61/61
f 63/63/63 47/47/47 60/60/60
f 63/63/63 49/49/49 47/47/47
f 64/64/64 60/60/60 61/61/61
f 62/62/62 64/64/64 61/61/61
f 64/64/64 63/63/63 60/60/60
f 52/52/52 65/65/65 62/62/62
f 65/65/65 64/64/64 62/62/62
f 52/52/52 54/54/54 65/65/65
f 66/66/66 63/63/63 64/64/64
f 65/65/65 66/66/66 64/64/64
f 49/49/49 63/63/63 67/67/67
f 67/67/67 63/63/63 66/66/66
f 66/66/66 65/65/65 68/68/68
f 65/65/65 54/54/54 68/68/68
f 69/69/69 67/67/67 66/66/66
f 69/69/69 66/66/66 68/68/68
f 67/67/67 69/69/69 70/70/70
f 69/69/69 68/68/68 70/70/70
f 71/71/71 49/49/49 67/67/67
f 70/70/70 71/71/71 67/67/67
f 54/54/54 72/72/72 68/68/68
f 72/72/72 70/70/70 68/68/68
f 71/71/71 73/73/73 49/49/49
f 49/49/49 73/73/73 74/74/74
f 73/73/73 71/71/71 75/75/75
f 76/76/76 75/75/75 71/71/71
f 70/70/70 76/76/76 71/71/71
f 77/77/77 76/76/76 70/70/70
f 77/77/77 70/70/70 78/78/78
f 78/78/78 70/70/70 72/72/72
f 79/79/79 78/78/78 72/72/72
f 72/72/72 80/80/80 79/79/79
f 80/80/80 72/72/72 54/54/54
f 80/80/80 54/54/54 81/81/81
f 84/84/84 83/83/83 82/82/82
f 83/83/83 84/84/84 85/85/85
f 84/84/84 86/86/86 85/85/85
f 87/87/87 85/85/85 86/86/86
f 88/88/88 87/87/87 86/86/86
f 88/88/88 89/89/89 87/87/87
f 89/89/89 90/90/90 87/87/87
f 90/90/90 91/91/91 87/87/87
f 83/83/83 85/85/85 92/92/92
f 85/85/85 87/87/87 92/92/92
f 93/93/93 83/83/83 92/92/92
f 94/94/94 87/87/87 91/91/91
f 87/87/87 94/94/94 92/92/92
f 95/95/95 94/94/94 91/91/91
f 94/94/94 95/95/95 92/92/92
f 96/96/96 95/95/95 91/91/91
f 95/95/95 97/97/97 92/92/92
f 92/92/92 97/97/97 93/93/93
f 97/97/97 98/98/98 93/93/93
f 101/101/101 100/100/100 99/99/99
f 100/100/100 102/102/102 99/99/99
f 103/103/103 99/99/99 102/102/102
f 100/100/100 104/104/104 102/102/102
f 105/105/105 103/103/103 102/102/102
f 106/106/106 105/105/105 102/102/102
f 103/103/103 105/105/105 107/107/107
f 106/106/106 107/107/107 105/105/105
f 108/108/108 107/107/107 106/106/106
f 106/106/106 109/109/109 108/108/108
f 110/110/110 109/109/109 106/106/106
f 106/106/106 111/111/111 110/110/110
f 104/104/104 112/112/112 102/102/102
f 112/112/112 106/106/106 102/102/102
f 106/106/106 112/112/112 111/111/111
f 104/104/104 113/113/113 112/112/112
f 113/113/113 111/111/111 112/112/112
f 116/116/116 115/115/115 114/114/114
f 115/115/115 116/116/116 117/117/117
f 118/118/118 115/115/115 117/117/117
f 117/117/117 119/119/119 118/118/118
f 117/117/117 116/116/116 120/120/120
f 116/116/116 121/121/121 120/120/120
f 122/122/122 119/119/119 117/117/117
f 117/117/117 120/120/120 122/122/122
f 123/123/123 120/120/120 121/121/121
f 124/124/124 123/123/123 121/121/121
f 123/123/123 125/125/125 120/120/120
f 119/119/119 122/122/122 126/126/126
f 127/127/127 119/119/119 126/126/126
f 120/120/120 128/128/128 122/122/122
f 122/122/122 128/128/128 126/126/126
f 125/125/125 128/128/128 120/120/120
f 128/128/128 129/129/129 126/126/126
f 129/129/129 128/128/128 125/125/125
f 130/130/130 129/129/129 125/125/125
f 133/133/133 132/132/132 131/131/131
f 132/132/132 134/134/134 131/131/131
f 131/131/131 134/134/134 135/135/135
f 134/134/134 132/132/132 136/136/136
f 134/134/134 137/137/137 135/135/135
f 135/135/135 137/137/137 138/138/138
f 137/137/137 139/139/139 138/138/138
f 140/140/140 139/139/139 137/137/137
f 141/141/141 140/140/140 137/137/137
f 141/141/141 137/137/137 134/134/134
f 140/140/140 141/141/141 142/142/142
f 143/143/143 142/142/142 141/141/141
f 141/141/141 144/144/144 143/143/143
f 145/145/145 136/136/136 144/144/144
f 145/145/145 134/134/134 136/136/136
f 145/145/145 141/141/141 134/134/134
f 145/145/145 144/144/144 141/141/141
f 148/148/148 147/147/147 146/146/146
f 149/149/149 148/148/148 146/146/146
f 150/150/150 149/149/149 146/146/146
f 151/151/151 148/148/148 149/149/149
f 150/150/150 151/151/151 149/149/149
f 154/154/154 153/153/153 152/152/152
f 153/153/153 155/155/155 152/152/152
f 155/155/155 156/156/156 152/152/152
f 153/153/153 157/157/157 155/155/155
f 157/157/157 156/156/156 155/155/155
f 160/160/160 159/159/159 158/158/158
f 161/161/161 159/159/159 160/160/160
f 162/162/162 159/159/159 161/161/161
f 160/160/160 163/163/163 161/161/161
f 164/164/164 159/159/159 162/162/162
f 159/159/159 164/164/164 165/165/165
f 164/164/164 166/166/166 165/165/165
f 162/162/162 167/167/167 164/164/164
f 164/164/164 167/167/167 166/166/166
f 167/167/167 168/168/168 166/166/166
f 166/166/166 168/168/168 169/169/169
f 170/170/170 166/166/166 169/169/169
f 168/168/168 167/167/167 171/171/171
f 167/167/167 162/162/162 171/171/171
f 171/171/171 169/169/169 168/168/168
f 169/169/169 172/172/172 170/170/170
f 170/170/170 172/172/172 173/173/173
f 169/169/169 171/171/171 174/174/174
f 162/162/162 174/174/174 171/171/171
f 175/175/175 169/169/169 174/174/174
f 175/175/175 172/172/172 169/169/169
f 173/173/173 172/172/172 176/176/176
f 177/177/177 173/173/173 176/176/176
f 178/178/178 174/174/174 162/162/162
f 174/174/174 178/178/178 175/175/175
f 176/176/176 172/172/172 179/179/179
f 175/175/175 179/179/179 172/172/172
f 180/180/180 176/176/176 179/179/179
f 176/176/176 180/180/180 181/181/181
f 180/180/180 182/182/182 181/181/181
f 183/183/183 179/179/179 175/175/175
f 183/183/183 175/175/175 178/178/178
f 183/183/183 180/180/180 179/179/179
f 180/180/180 183/183/183 184/184/184
f 185/185/185 182/182/182 180/180/180
f 185/185/185 180/180/180 184/184/184
f 182/182/182 185/185/185 186/186/186
f 184/184/184 163/163/163 185/185/185
f 162/162/162 187/187/187 178/178/178
f 162/162/162 161/161/161 187/187/187
f 183/183/183 178/178/178 188/188/188
f 183/183/183 188/188/188 184/184/184
f 189/189/189 188/188/188 178/178/178
f 178/178/178 187/187/187 189/189/189
f 184/184/184 188/188/188 189/189/189
f 189/189/189 187/187/187 190/190/190
f 187/187/187 161/161/161 190/190/190
f 190/190/190 184/184/184 189/189/189
f 163/163/163 191/191/191 161/161/161
f 191/191/191 163/163/163 184/184/184
f 190/190/190 161/161/161 191/191/191
f 190/190/190 191/191/191 184/184/184
f 194/194/194 193/193/193 192/192/192
f 195/195/195 194/194/194 192/192/192
f 194/194/194 195/195/195 196/196/196
f 195/195/195 197/197/197 196/196/196
f 195/195/195 192/192/192 197/197/197
f 192/192/192 198/198/198 197/197/197
f 201/201/201 200/200/200 199/199/199
f 202/202/202 201/201/201 199/199/199
f 202/202/202 199/199/199 203/203/203
f 202/202/202 203/203/203 204/204/204
f 205/205/205 202/202/202 204/204/204
f 206/206/206 205/205/205 204/204/204
f 207/207/207 206/206/206 204/204/204
f 208/208/208 206/206/206 207/207/207
f 206/206/206 208/208/208 209/209/209
f 209/209/209 208/208/208 210/210/210
f 213/213/213 212/212/212 211/211/211
f 214/214/214 212/212/212 213/213/213
f 215/215/215 214/214/214 213/213/213
f 216/216/216 214/214/214 215/215/215
f 217/217/217 214/214/214 216/216/216
f 214/214/214 217/217/217 218/218/218
f 214/214/214 219/219/219 212/212/212
f 219/219/219 220/220/220 212/212/212
f 214/214/214 221/221/221 219/219/219
f 214/214/214 222/222/222 221/221/221
f 214/214/214 218/218/218 223/223/223
f 214/214/214 223/223/223 222/222/222
f 218/218/218 224/224/224 223/223/223
f 223/223/223 225/225/225 222/222/222
f 228/228/228 227/227/227 226/226/226
f 229/229/229 226/226/226 227/227/227
f 226/226/226 229/229/229 230/230/230
f 229/229/229 231/231/231 230/230/230
f 230/230/230 231/231/231 232/232/232
f 232/232/232 231/231/231 233/233/233
f 234/234/234 233/233/233 231/231/231
f 232/232/232 233/233/233 235/235/235
f 233/233/233 236/236/236 235/235/235
f 233/233/233 234/234/234 236/236/236
f 237/237/237 235/235/235 236/236/236
f 231/231/231 229/229/229 238/238/238
f 238/238/238 234/234/234 231/231/231
f 238/238/238 229/229/229 239/239/239
f 239/239/239 229/229/229 227/227/227
f 240/240/240 238/238/238 239/239/239
f 238/238/238 240/240/240 234/234/234
f 227/227/227 241/241/241 239/239/239
f 240/240/240 239/239/239 241/241/241
f 242/242/242 237/237/237 236/236/236
f 243/243/243 237/237/237 242/242/242
f 240/240/240 244/244/244 234/234/234
f 240/240/240 241/241/241 244/244/244
f 245/245/245 241/241/241 227/227/227
f 246/246/246 245/245/245 227/227/227
f 247/247/247 241/241/241 245/245/245
f 241/241/241 247/247/247 244/244/244
f 248/248/248 247/247/247 245/245/245
f 248/248/248 249/249/249 247/247/247
f 249/249/249 250/250/250 247/247/247
f 244/244/244 247/247/247 250/250/250
f 249/249/249 251/251/251 250/250/250
f 251/251/251 242/242/242 252/252/252
f 251/251/251 252/252/252 250/250/250
f 253/253/253 244/244/244 250/250/250
f 234/234/234 244/244/244 253/253/253
f 252/252/252 253/253/253 250/250/250
f 254/254/254 234/234/234 253/253/253
f 254/254/254 253/253/253 252/252/252
f 234/234/234 254/254/254 236/236/236
f 242/242/242 255/255/255 252/252/252
f 255/255/255 242/242/242 236/236/236
f 255/255/255 254/254/254 252/252/252
f 254/254/254 255/255/255 236/236/236
f 258/258/258 257/257/257 256/256/256
f 259/259/259 257/257/257 258/258/258
f 258/258/258 260/260/260 259/259/259
f 260/260/260 261/261/261 259/259/259
f 257/257/257 259/259/259 262/262/262
f 259/259/259 261/261/261 263/263/263
f 259/259/259 264/264/264 262/262/262
f 262/262/262 264/264/264 265/265/265
f 266/266/266 259/259/259 263/263/263
f 264/264/264 259/259/259 266/266/266
f 266/266/266 263/263/263 267/267/267
f 267/267/267 264/264/264 266/266/266
f 263/263/263 268/268/268 267/267/267
f 268/268/268 269/269/269 267/267/267
f 269/269/269 270/270/270 267/267/267
f 267/267/267 270/270/270 264/264/264
f 269/269/269 271/271/271 270/270/270
f 264/264/264 272/272/272 265/265/265
f 270/270/270 272/272/272 264/264/264
f 265/265/265 272/272/272 273/273/273
f 270/270/270 271/271/271 274/274/274
f 270/270/270 274/274/274 272/272/272
f 272/272/272 275/275/275 273/273/273
f 275/275/275 272/272/272 274/274/274
f 275/275/275 274/274/274 271/271/271
f 273/273/273 275/275/275 276/276/276
f 277/277/277 275/275/275 271/271/271
f 275/275/275 278/278/278 276/276/276
f 278/278/278 275/275/275 277/277/277
f 279/279/279 278/278/278 277/277/277
f 282/282/282 281/281/281 280/280/280
f 282/282/282 283/283/283 281/281/281
f 284/284/284 281/281/281 283/283/283
f 285/285/285 284/284/284 283/283/283
f 283/283/283 282/282/282 286/286/286
f 285/285/285 283/283/283 287/287/287
f 288/288/288 283/283/283 286/286/286
f 288/288/288 286/286/286 289/289/289
f 283/283/283 290/290/290 287/287/287
f 283/283/283 288/288/288 290/290/290
f 287/287/287 290/290/290 291/291/291
f 288/288/288 291/291/291 290/290/290
f 292/292/292 287/287/287 291/291/291
f 293/293/293 292/292/292 291/291/291
f 294/294/294 293/293/293 291/291/291
f 294/294/294 291/291/291 288/288/288
f 295/295/295 293/293/293 294/294/294
f 296/296/296 288/288/288 289/289/289
f 296/296/296 294/294/294 288/288/288
f 296/296/296 289/289/289 297/297/297
f 295/295/295 294/294/294 298/298/298
f 298/298/298 294/294/294 296/296/296
f 299/299/299 296/296/296 297/297/297
f 296/296/296 299/299/299 298/298/298
f 298/298/298 299/299/299 295/295/295
f 299/299/299 297/297/297 300/300/300
f 299/299/299 301/301/301 295/295/295
f 302/302/302 299/299/299 300/300/300
f 299/299/299 302/302/302 301/301/301
f 302/302/302 303/303/303 301/301/301
f 306/306/306 305/305/305 304/304/304
f 307/307/307 306/306/306 304/304/304
f 304/304/304 308/308/308 307/307/307
f 308/308/308 304/304/304 309/309/309
f 309/309/309 310/310/310 308/308/308
f 308/308/308 310/310/310 311/311/311
f 312/312/312 308/308/308 311/311/311
f 313/313/313 309/309/309 304/304/304
f 314/314/314 313/313/313 304/304/304
f 313/313/313 314/314/314 315/315/315
f 314/314/314 316/316/316 315/315/315
f 317/317/317 314/314/314 304/304/304
f 314/314/314 317/317/317 316/316/316
f 318/318/318 317/317/317 304/304/304
f 317/317/317 319/319/319 316/316/316
f 316/316/316 319/319/319 320/320/320
f 321/321/321 316/316/316 320/320/320
f 316/316/316 322/322/322 315/315/315
f 322/322/322 323/323/323 315/315/315
f 316/316/316 321/321/321 324/324/324
f 324/324/324 322/322/322 316/316/316
f 321/321/321 325/325/325 324/324/324
f 324/324/324 325/325/325 326/326/326
f 326/326/326 327/327/327 324/324/324
f 327/327/327 322/322/322 324/324/324
f 326/326/326 328/328/328 327/327/327
f 327/327/327 328/328/328 329/329/329
f 327/327/327 329/329/329 330/330/330
f 322/322/322 331/331/331 323/323/323
f 327/327/327 331/331/331 322/322/322
f 331/331/331 327/327/327 330/330/330
f 323/323/323 331/331/331 332/332/332
f 333/333/333 331/331/331 330/330/330
f 331/331/331 333/333/333 332/332/332
f 336/336/336 335/335/335 334/334/334
f 335/335/335 337/337/337 334/334/334
f 337/337/337 335/335/335 338/338/338
f 339/339/339 337/337/337 338/338/338
f 339/339/339 340/340/340 337/337/337
f 340/340/340 341/341/341 337/337/337
f 342/342/342 334/334/334 337/337/337
f 343/343/343 334/334/334 342/342/342
f 344/344/344 334/334/334 343/343/343
f 343/343/343 345/345/345 344/344/344
f 345/345/345 343/343/343 346/346/346
f 343/343/343 347/347/347 346/346/346
f 347/347/347 343/343/343 342/342/342
f 347/347/347 348/348/348 346/346/346
f 348/348/348 347/347/347 349/349/349
f 347/347/347 350/350/350 349/349/349
f 347/347/347 342/342/342 350/350/350
f 350/350/350 342/342/342 351/351/351
f 342/342/342 337/337/337 351/351/351
f 337/337/337 352/352/352 351/351/351
f 341/341/341 352/352/352 337/337/337
f 352/352/352 341/341/341 353/353/353
f 341/341/341 354/354/354 353/353/353
f 354/354/354 355/355/355 353/353/353
f 352/352/352 356/356/356 351/351/351
f 356/356/356 352/352/352 353/353/353
f 357/357/357 356/356/356 353/353/353
f 353/353/353 358/358/358 357/357/357
f 359/359/359 357/357/357 358/358/358
f 359/359/359 358/358/358 360/360/360
f 358/358/358 361/361/361 360/360/360
f 358/358/358 353/353/353 362/362/362
f 363/363/363 362/362/362 353/353/353
f 364/364/364 363/363/363 353/353/353
f 367/367/367 366/366/366 365/365/365
f 366/366/366 368/368/368 365/365/365
f 368/368/368 366/366/366 369/369/369
f 368/368/368 370/370/370 365/365/365
f 370/370/370 371/371/371 365/365/365
f 372/372/372 368/368/368 369/369/369
f 368/368/368 372/372/372 370/370/370
f 372/372/372 369/369/369 373/373/373
f 374/374/374 372/372/372 373/373/373
f 375/375/375 372/372/372 374/374/374
f 372/372/372 375/375/375 370/370/370
f 376/376/376 375/375/375 374/374/374
f 376/376/376 377/377/377 375/375/375
f 377/377/377 378/378/378 375/375/375
f 370/370/370 375/375/375 378/378/378
f 377/377/377 379/379/379 378/378/378
f 379/379/379 380/380/380 378/378/378
f 371/371/371 370/370/370 381/381/381
f 381/381/381 370/370/370 378/378/378
f 378/378/378 380/380/380 381/381/381
f 382/382/382 371/371/371 381/381/381
f 380/380/380 383/383/383 381/381/381
f 382/382/382 381/381/381 384/384/384
f 381/381/381 383/383/383 384/384/384
f 387/387/387 386/386/386 385/385/385
f 388/388/388 387/387/387 385/385/385
f 388/388/388 385/385/385 389/389/389
f 386/386/386 390/390/390 385/385/385
f 385/385/385 391/391/391 389/389/389
f 391/391/391 385/385/385 392/392/392
f 389/389/389 391/391/391 393/393/393
f 391/391/391 394/394/394 393/393/393
f 391/391/391 392/392/392 394/394/394
f 392/392/392 395/395/395 394/394/394
f 396/396/396 395/395/395 392/392/392
f 390/390/390 397/397/397 385/385/385
f 385/385/385 397/397/397 392/392/392
f 398/398/398 397/397/397 390/390/390
f 392/392/392 397/397/397 398/398/398
f 399/399/399 398/398/398 390/390/390
f 399/399/399 400/400/400 398/398/398
f 400/400/400 401/401/401 398/398/398
f 401/401/401 402/402/402 398/398/398
f 403/403/403 396/396/396 392/392/392
f 403/403/403 392/392/392 398/398/398
f 402/402/402 403/403/403 398/398/398
f 404/404/404 396/396/396 403/403/403
f 402/402/402 404/404/404 403/403/403
f 407/407/407 406/406/406 405/405/405
f 408/408/408 407/407/407 405/405/405
f 406/406/406 407/407/407 409/409/409
f 410/410/410 407/407/407 408/408/408
f 407/407/407 411/411/411 409/409/409
f 407/407/407 410/410/410 412/412/412
f 411/411/411 407/407/407 412/412/412
f 415/415/415 414/414/414 413/413/413
f 413/413/413 416/416/416 415/415/415
f 414/414/414 415/415/415 417/417/417
f 416/416/416 418/418/418 415/415/415
f 415/415/415 419/419/419 417/417/417
f 418/418/418 420/420/420 415/415/415
f 415/415/415 420/420/420 419/419/419
f 423/423/423 422/422/422 421/421/421
f 421/421/421 424/424/424 423/423/423
f 422/422/422 423/423/423 425/425/425
f 424/424/424 426/426/426 423/423/423
f 423/423/423 427/427/427 425/425/425
f 423/423/423 426/426/426 428/428/428
f 427/427/427 423/423/423 428/428/428
f 431/431/431 430/430/430 429/429/429
f 431/431/431 429/429/429 432/432/432
f 433/433/433 430/430/430 431/431/431
f 434/434/434 431/431/431 432/432/432
f 435/435/435 433/433/433 431/431/431
f 431/431/431 434/434/434 436/436/436
f 435/435/435 431/431/431 436/436/436
