g A_Monster_Zombie05_LOD
v 0.0786111653 1.39229739 0.376473695
v 0.0574220754 1.44905221 0.367236555
v 0.074225679 1.39126456 0.35827136
v 0.0179099347 1.38017631 0.371584415
v 0.0114215361 1.441383 0.380868673
v 0.0216751564 1.38109088 0.390826255
v -0.0541690923 1.39026725 0.374748111
v -0.0497844592 1.38923454 0.356546581
v -0.0323144011 1.44905221 0.367236555
v 0.0065312814 1.37814605 0.369858772
v 0.00276606041 1.37906063 0.389100641
v 0.0108192414 1.441383 0.380868673
v -0.179628953 0.684494674 -0.0981192663
v 2.12971224E-10 0.686539054 -0.116552196
v -0.000299250882 0.696895957 -0.177859306
v 4.7796207E-09 0.602115631 -0.115779787
v -0.0145857558 0.553126991 0.056623593
v 5.33174616E-09 0.559562147 0.193288326
v 0.0145857641 0.553126991 0.056623619
v 4.7796207E-09 0.602115631 -0.115779787
v 5.33174616E-09 0.559562147 0.193288326
v 0.382006794 1.81417298 0.439761102
v 0.382006794 1.97350156 0.54869312
v 0.382006794 1.86770713 0.407914966
v 0.382006794 1.94363403 0.602470279
v 0.382006794 2.05751181 0.571379304
v 0.382006794 2.04403472 0.629553676
v 0.382006794 1.97350156 0.54869312
v -0.377792835 1.86770713 0.407914966
v 0.382006794 1.86770713 0.407914966
v -0.377792835 1.97350156 0.54869312
v 0.382006794 2.05751181 0.571379304
v -0.377792835 2.05751181 0.571379304
v 0.511062562 1.82273674 0.434666902
v 0.382006794 1.37375164 -0.300595433
v 0.382006794 1.81417298 0.439761102
v 0.511062562 1.38231504 -0.305689663
v 0.640917659 1.88378561 0.398350149
v 0.640917659 1.44336402 -0.342006415
v 0.382006794 1.86770713 0.407914966
v 0.511062562 1.82273674 0.434666902
v 0.382006794 1.81417298 0.439761102
v 0.499812543 1.87461329 0.403806746
v 0.640917659 1.88378561 0.398350149
v 0.609096408 1.92461264 0.374063104
v 0.382006794 2.05751181 0.571379304
v 0.382006794 2.04403472 0.629553676
v -0.377792835 2.04403472 0.629553676
v -0.377792835 2.05751181 0.571379304
v -0.63670373 1.88378561 0.398350149
v -0.63670373 1.44336402 -0.342006415
v -0.604882419 1.48419094 -0.366293401
v -0.604882419 1.92461264 0.374063104
v -0.377792835 1.86770713 0.407914966
v -0.377792835 1.42728555 -0.332441598
v -0.377792835 1.88659024 -0.605671883
v -0.377792835 2.3270123 0.134684637
v 0.382006794 2.3270123 0.134684637
v 0.382006794 1.86770713 0.407914966
v -0.377792835 1.86770713 0.407914966
v -0.377792835 2.3270123 0.134684637
v 0.382006794 1.94363403 0.602470279
v 0.382006794 1.81417298 0.439761102
v -0.377792835 1.81417298 0.439761102
v -0.377792835 1.94363403 0.602470279
v 0.382006794 2.04403472 0.629553676
v -0.377792835 2.04403472 0.629553676
v -0.377792835 1.81417298 0.439761102
v -0.377792835 1.86770713 0.407914966
v -0.377792835 1.97350156 0.54869312
v -0.377792835 1.94363403 0.602470279
v -0.377792835 2.05751181 0.571379304
v -0.377792835 2.04403472 0.629553676
v -0.495598584 1.87461329 0.403806746
v -0.377792835 1.42728555 -0.332441598
v -0.377792835 1.86770713 0.407914966
v -0.495598584 1.43419135 -0.336549789
v -0.604882419 1.92461264 0.374063104
v -0.604882419 1.48419094 -0.366293401
v -0.377792835 1.86770713 0.407914966
v -0.377792835 1.81417298 0.439761102
v -0.506848514 1.82273674 0.434666902
v -0.495598584 1.87461329 0.403806746
v -0.63670373 1.88378561 0.398350149
v -0.604882419 1.92461264 0.374063104
v 0.382006794 1.3742187 -0.577248275
v -0.377792835 1.3742187 -0.577248275
v -0.377792835 1.3166647 -0.593167722
v 0.382006794 1.3166647 -0.593167722
v -0.377792835 2.3270123 0.134684637
v -0.377792835 1.88659024 -0.605671883
v 0.382006794 1.88659024 -0.605671883
v 0.382006794 2.3270123 0.134684637
v 0.640917659 1.88378561 0.398350149
v 0.609096408 1.92461264 0.374063104
v 0.609096408 1.48419094 -0.366293401
v 0.640917659 1.44336402 -0.342006415
v 0.382006794 1.86770713 0.407914966
v 0.382006794 2.3270123 0.134684637
v 0.382006794 1.88659024 -0.605671883
v 0.382006794 1.42728555 -0.332441598
v 0.382006794 1.88659024 -0.605671883
v -0.377792835 1.88659024 -0.605671883
v -0.377792835 1.42728555 -0.332441598
v 0.382006794 1.42728555 -0.332441598
v 0.382006794 1.29254997 -0.492012918
v -0.377792835 1.37375164 -0.300595433
v 0.382006794 1.37375164 -0.300595433
v -0.377792835 1.29254997 -0.492012918
v 0.382006794 1.3166647 -0.593167722
v -0.377792835 1.3166647 -0.593167722
v 0.382006794 1.37375164 -0.300595433
v 0.382006794 1.42728555 -0.332441598
v 0.382006794 1.3540622 -0.492595583
v 0.382006794 1.29254997 -0.492012918
v 0.382006794 1.3742187 -0.577248275
v 0.382006794 1.3166647 -0.593167722
v 0.499812543 1.87461329 0.403806746
v 0.382006794 1.86770713 0.407914966
v 0.382006794 1.42728555 -0.332441598
v 0.499812543 1.43419135 -0.336549789
v 0.609096408 1.92461264 0.374063104
v 0.609096408 1.48419094 -0.366293401
v 0.382006794 1.42728555 -0.332441598
v 0.382006794 1.37375164 -0.300595433
v 0.511062562 1.38231504 -0.305689663
v 0.499812543 1.43419135 -0.336549789
v 0.640917659 1.44336402 -0.342006415
v 0.609096408 1.48419094 -0.366293401
v -0.377792835 1.37375164 -0.300595433
v -0.377792835 1.3540622 -0.492595583
v -0.377792835 1.42728555 -0.332441598
v -0.377792835 1.29254997 -0.492012918
v -0.377792835 1.3742187 -0.577248275
v -0.377792835 1.3166647 -0.593167722
v 0.382006794 1.3540622 -0.492595583
v 0.382006794 1.42728555 -0.332441598
v -0.377792835 1.42728555 -0.332441598
v -0.377792835 1.3540622 -0.492595583
v 0.382006794 1.3742187 -0.577248275
v -0.377792835 1.3742187 -0.577248275
v -0.506848514 1.82273674 0.434666902
v -0.377792835 1.81417298 0.439761102
v -0.377792835 1.37375164 -0.300595433
v -0.506848514 1.38231504 -0.305689663
v -0.63670373 1.88378561 0.398350149
v -0.63670373 1.44336402 -0.342006415
v -0.377792835 1.42728555 -0.332441598
v -0.506848514 1.38231504 -0.305689663
v -0.377792835 1.37375164 -0.300595433
v -0.495598584 1.43419135 -0.336549789
v -0.63670373 1.44336402 -0.342006415
v -0.604882419 1.48419094 -0.366293401
v 0.382006794 1.37375164 -0.300595433
v -0.377792835 1.37375164 -0.300595433
v -0.377792835 1.81417298 0.439761102
v 0.382006794 1.81417298 0.439761102
v 0.0216751564 1.38109088 0.390826255
v 0.0574220754 1.44905221 0.367236555
v 0.0786111653 1.39229739 0.376473695
v 0.0114215361 1.441383 0.380868673
v 0.0179099347 1.38017631 0.371584415
v 0.0786111653 1.39229739 0.376473695
v 0.074225679 1.39126456 0.35827136
v 0.0216751564 1.38109088 0.390826255
v 0.00276606041 1.37906063 0.389100641
v -0.0323144011 1.44905221 0.367236555
v 0.0108192414 1.441383 0.380868673
v -0.0541690923 1.39026725 0.374748111
v 0.0065312814 1.37814605 0.369858772
v -0.0541690923 1.39026725 0.374748111
v 0.00276606041 1.37906063 0.389100641
v -0.0497844592 1.38923454 0.356546581
v -0.116028093 0.225172728 -0.066580683
v -0.205646038 0.22173813 0.108504839
v -0.204808041 0.225992128 -0.0268927384
v -0.0712915808 0.221402004 0.123232551
v -0.0538366921 0.224831507 -0.00894265063
v 0.116028093 0.225172728 -0.066580683
v 0.204808041 0.225992128 -0.0268927384
v 0.205646038 0.22173813 0.108504839
v 0.0712915808 0.221402004 0.123232551
v 0.0538366921 0.224831522 -0.00894265249
v -0.18744497 1.92724419 0.30270648
v 0.0296520945 2.05171561 -0.00492071873
v 0.022949772 1.96162009 0.308790892
v -0.211270824 2.00150776 -0.00187160179
v 0.0230993629 1.98443353 -0.267448008
v -0.22628288 1.92872918 -0.225956306
v -0.33111313 1.79663968 0.0235994887
v -0.257929832 1.7116226 -0.334173858
v -0.330904216 1.52407908 -0.000236253938
v 0.0223247577 1.71575189 -0.40408197
v -0.163944378 1.45411158 -0.317080647
v 0.014422195 1.42739165 -0.333603501
v 0.00833089184 1.28922927 -0.104423933
v -0.197027028 1.32790375 -0.0919096991
v -0.223653108 1.26911235 0.115514599
v 0.0215043202 1.22316921 0.139305681
v -0.148875579 1.23591554 0.201199025
v 0.00874777976 1.21151674 0.340983421
v -0.225748599 1.74284756 0.374201298
v 0.010773805 1.76437616 0.410711825
v 0.022949772 1.96162009 0.308790892
v 0.196550459 1.90858185 0.295370936
v -0.304726928 1.61725473 0.317579269
v -0.237078965 1.47232175 0.33117938
v -0.165961623 1.60279536 0.248565406
v 0.00305409101 1.42886567 0.416742116
v -0.157087564 1.32005632 0.307767659
v -0.129876375 1.40234947 0.352467835
v 0.00513300067 1.39821196 0.346198946
v 0.158032611 1.40937257 0.331047803
v 0.316666603 1.48188019 0.301824301
v 0.171586528 1.331617 0.299889833
v 0.00570523413 1.54408836 0.390173256
v 0.137294278 1.62036538 0.244588077
v 0.246184573 1.73770356 0.361556381
v 0.318492591 1.60174072 0.307255358
v 0.335389853 1.77069306 0.0266230498
v 0.233364373 1.95896363 -0.00578576326
v 0.0296520945 2.05171561 -0.00492071873
v 0.022949772 1.96162009 0.308790892
v 0.338745952 1.54268324 -0.00675853668
v 0.267928511 1.63557935 -0.293472171
v 0.234769553 1.30018234 -0.041659575
v 0.1773628 1.2448982 0.199571952
v 0.183029845 1.45165431 -0.315241605
v 0.0223247577 1.71575189 -0.40408197
v 0.014422195 1.42739165 -0.333603501
v 0.00833089184 1.28922927 -0.104423933
v 0.0215043202 1.22316921 0.139305681
v 0.0070207715 1.30752134 0.362272412
v 0.00617595715 1.33645701 0.289877266
v 0.978236496 0.948733211 0.150497198
v 0.990723073 0.948608696 0.111911483
v 0.911350667 0.998324394 0.0696668774
v 0.876783907 0.984321892 0.113572069
v 0.83578372 0.980139136 0.0996386483
v 0.846717298 0.996211171 0.014984902
v 0.940406859 0.949654877 -0.0799021497
v 0.988960087 0.964271724 0.0568908677
v 0.838628232 1.00374019 -0.067844443
v 0.731752455 1.00093508 -0.0502120629
v 0.727587163 0.981554091 0.078719236
v 0.555378437 0.983067751 -0.000771120482
v 0.555970371 1.06609988 -0.0484448075
v 0.553772926 1.04827762 0.0904948711
v 0.786415696 0.949946702 0.133238882
v 0.867015421 0.910760224 0.190906182
v 0.899426937 0.930054605 0.167518198
v 0.727587163 0.981554091 0.078719236
v 0.788332582 1.00700951 0.154969737
v 0.786415696 0.949946702 0.133238882
v 0.867015421 0.910760224 0.190906182
v -0.978236496 0.948733211 0.150497198
v -0.911350667 0.998324394 0.0696668774
v -0.990723073 0.948608696 0.111911483
v -0.876783907 0.984321892 0.113572069
v -0.83578372 0.980139136 0.0996386483
v -0.846717298 0.996211171 0.014984902
v -0.940406859 0.949654877 -0.0799021423
v -0.988960087 0.964271724 0.0568908788
v -0.838628232 1.00374019 -0.067844443
v -0.731752455 1.00093508 -0.0502120703
v -0.727587163 0.981554091 0.0787192211
v -0.555378437 0.983067751 -0.000771119958
v -0.555970371 1.06609988 -0.0484448075
v -0.553772926 1.04827762 0.0904948711
v -0.786415696 0.949946702 0.133238882
v -0.867015421 0.910760224 0.190906182
v -0.899426937 0.930054605 0.167518198
v -0.727587163 0.981554091 0.0787192211
v -0.786415696 0.949946702 0.133238882
v -0.788332582 1.00700951 0.154969737
v -0.867015421 0.910760224 0.190906182
v -0.129876375 1.40234947 0.352467835
v 0.00617595715 1.33645701 0.289877266
v -0.157087564 1.32005632 0.307767659
v 0.00513300067 1.39821196 0.346198946
v 0.171586528 1.331617 0.299889833
v 0.158032611 1.40937257 0.331047803
v 0.141852334 0.833094239 0.238460138
v 0.0291296951 0.631637514 0.28695631
v -0.0135203712 0.808135152 0.262036204
v 0.1754428 0.64813751 0.265095502
v -9.88490569E-08 1.10229278 0.144795388
v -1.49491802E-06 0.987369061 0.246832639
v -0.0560851842 1.102911 0.124713317
v -1.00329963E-07 1.29130685 0.14021121
v -0.0710235387 1.29130721 0.047806181
v -0.0813629627 1.15491676 -0.010057142
v -1.00329906E-07 1.29130709 -0.058762271
v -9.88490569E-08 1.15210843 -0.0361512713
v -0.278670728 0.92621392 0.0474757887
v -0.251040995 0.837698102 0.0708454177
v -0.243164763 0.955339849 -0.0976710171
v -0.186210349 0.837698221 -0.0707291439
v -0.242028654 0.670213699 0.0595090128
v -0.179628953 0.684494674 -0.0981192663
v -0.000299250882 0.696895957 -0.177859306
v -1.0032992E-07 0.902308345 -0.132052794
v -0.259039789 1.08211517 -0.0961660445
v 3.90640224E-07 1.15649819 -0.101935767
v -0.114057407 1.15842915 -0.0584679656
v -0.280690014 1.15430963 0.0361290947
v -0.114057407 1.15842915 -0.0584679656
v -0.171208352 1.15216064 0.0938723385
v -0.280690014 1.15430963 0.0361290947
v -0.162986577 1.03269601 0.202383921
v -0.278180778 1.0487287 0.159609213
v -0.152752399 0.837698042 0.234257847
v -0.251040995 0.837698102 0.0708454177
v -0.278670728 0.92621392 0.0474757887
v -0.146847621 0.683950722 0.2005018
v -0.242028654 0.670213699 0.0595090128
v 4.7149344E-05 0.688413203 0.247902393
v -1.49491802E-06 0.987369061 0.246832639
v -0.0813558772 1.1065737 0.214187577
v -1.00330013E-07 0.837698102 0.256282866
v 0.0851210281 0.647437334 0.265736163
v 0.16393514 0.837698042 0.234257877
v 0.162986353 1.03269601 0.202383921
v 0.0813556537 1.10657358 0.214187577
v 0.244967803 0.591373742 0.213144198
v 0.189018458 0.519984722 0.244510666
v 0.258392006 0.837698102 0.0542395525
v 0.282050282 0.612149477 0.0425540544
v 0.27818051 1.04872859 0.159609243
v 0.280689895 1.15430963 0.0361830145
v 0.171208173 1.15820098 0.0551167801
v 0.114057198 1.15842915 -0.0584679656
v 0.27867046 0.92621392 0.047475785
v 0.243164688 0.955339849 -0.0976710469
v 0.185178593 0.837698042 -0.0904125944
v 0.192513362 0.637093425 -0.113961659
v -0.000299250882 0.696895957 -0.177859306
v -1.0032992E-07 0.902308345 -0.132052794
v 0.258957446 1.08122039 -0.0950542688
v 3.90640224E-07 1.15649819 -0.101935767
v 0.114057198 1.15842915 -0.0584679656
v 0.280689895 1.15430963 0.0361830145
v -9.88490569E-08 1.15210843 -0.0361512713
v -0.103856742 1.21085107 -0.0116620837
v -1.00330013E-07 1.21722293 -0.0728379264
v -0.0813629627 1.15491676 -0.010057142
v -0.0560851842 1.102911 0.124713317
v -0.0813558772 1.1065737 0.214187577
v -1.49491802E-06 0.987369061 0.246832639
v -1.00330013E-07 1.21722293 -0.0728379264
v -0.114057407 1.15842915 -0.0584679656
v 3.90640224E-07 1.15649819 -0.101935767
v -0.103856742 1.21085107 -0.0116620837
v -0.171208352 1.15216064 0.0938723385
v -0.0813558772 1.1065737 0.214187577
v -0.162986577 1.03269601 0.202383921
v -0.278180778 1.0487287 0.159609213
v -0.278670728 0.92621392 0.0474757887
v -0.466961622 0.930642843 0.0231170096
v -0.469293267 1.04980755 0.129679888
v -0.280690014 1.15430963 0.0361290947
v -0.674474835 1.05003333 0.12740992
v -0.663560629 0.915584564 0.0132935867
v -0.469072223 1.1510278 0.0198096875
v -0.451800942 1.07018673 -0.0967207626
v -0.708961308 1.18354869 0.015069142
v -0.259039789 1.08211517 -0.0961660445
v -0.676248014 1.0659374 -0.093575336
v -0.663560629 0.915584564 0.0132935867
v -0.243164763 0.955339849 -0.0976710171
v -0.466961622 0.930642843 0.0231170096
v -0.278670728 0.92621392 0.0474757887
v -1.49491802E-06 0.987369061 0.246832639
v -9.88490569E-08 1.10229278 0.144795388
v 0.0560849756 1.102911 0.124713317
v -1.00329963E-07 1.29130685 0.14021121
v 0.0710233301 1.29130685 0.0478062443
v 0.0813627392 1.15491676 -0.010057142
v -1.00329906E-07 1.29130709 -0.058762271
v -9.88490569E-08 1.15210843 -0.0361512713
v 0.103856511 1.21371925 -0.0102515863
v -9.88490569E-08 1.15210843 -0.0361512713
v -1.00330013E-07 1.21722293 -0.0728379264
v 0.0813627392 1.15491676 -0.010057142
v 0.0560849756 1.102911 0.124713317
v 0.0813556537 1.10657358 0.214187577
v -1.49491802E-06 0.987369061 0.246832639
v 0.114057198 1.15842915 -0.0584679656
v -1.00330013E-07 1.21722293 -0.0728379264
v 3.90640224E-07 1.15649819 -0.101935767
v 0.103856511 1.21371925 -0.0102515863
v 0.171208173 1.15820098 0.0551167801
v 0.0813556537 1.10657358 0.214187577
v 0.162986353 1.03269601 0.202383921
v 0.466961622 0.930642843 0.0231170077
v 0.243164688 0.955339849 -0.0976710469
v 0.27867046 0.92621392 0.047475785
v 0.451800644 1.07018673 -0.0967207626
v 0.663560629 0.915584564 0.0132935876
v 0.258957446 1.08122039 -0.0950542688
v 0.676248014 1.0659374 -0.0935753211
v 0.708961308 1.18354869 0.0150691438
v 0.280689895 1.15430963 0.0361830145
v 0.469071984 1.1510278 0.0198096838
v 0.674474835 1.05003333 0.12740992
v 0.469293058 1.04980755 0.129679918
v 0.27818051 1.04872859 0.159609243
v 0.466961622 0.930642843 0.0231170077
v 0.663560629 0.915584564 0.0132935876
v 0.27867046 0.92621392 0.047475785
v 0.708961308 1.18354869 0.0150691438
v 0.663560629 0.915584564 0.0132935876
v 0.674474835 1.05003333 0.12740992
v 0.676248014 1.0659374 -0.0935753211
v 0.192513362 0.637093425 -0.113961659
v 0.237986565 0.669258893 0.0583530664
v 0.282050282 0.612149477 0.0425540544
v 0.179628819 0.684494674 -0.0981192589
v -0.000299250882 0.696895957 -0.177859306
v 2.12971224E-10 0.686539054 -0.116552196
v -0.674474835 1.05003333 0.12740992
v -0.663560629 0.915584564 0.0132935867
v -0.708961308 1.18354869 0.015069142
v -0.676248014 1.0659374 -0.093575336
v 0.0851210281 0.647437334 0.265736163
v 0.140409082 0.683950722 0.197155744
v 4.7149344E-05 0.688413203 0.247902393
v 0.189018458 0.519984722 0.244510666
v 0.244967803 0.591373742 0.213144198
v 0.282050282 0.612149477 0.0425540544
v 0.237986565 0.669258893 0.0583530664
v -0.164250031 0.299663275 0.166023687
v -0.0136775626 0.223939314 0.0546462759
v -0.0491998456 0.272659689 -0.0665316209
v -0.141326025 0.283347607 -0.108625047
v -0.245085165 0.244209573 0.0255839843
v 0.164250031 0.299663305 0.166023687
v 0.0491998568 0.272659689 -0.0665315911
v 0.0136775635 0.223939285 0.0546462983
v 0.14132604 0.283347607 -0.108625047
v 0.245085195 0.244209573 0.0255839825
v 0.202659234 1.56010509 0.228139609
v 0.0697257891 1.55970061 0.23276405
v 0.13938719 1.48226571 0.315492541
v 0.033062052 1.54855645 0.360139191
v 0.0306215473 1.66736603 0.300379515
v 0.0761151761 1.65647209 0.424896598
v 0.139387205 1.73431146 0.337543637
v 0.143336043 1.54207385 0.434236825
v 0.209048569 1.65687668 0.420271993
v 0.24571231 1.66802061 0.292896926
v 0.248152837 1.54921126 0.352656662
v 0.202659234 1.56010509 0.228139609
v -0.0306214858 1.66736603 0.273818552
v -0.0697257146 1.55970061 0.232764199
v -0.0330619849 1.54855645 0.36013934
v -0.139387086 1.48226571 0.315492541
v -0.20265913 1.56010509 0.228139684
v -0.248152733 1.54921126 0.352656662
v -0.245712236 1.66802061 0.292897016
v -0.143336013 1.54207385 0.434236974
v -0.209048495 1.65687668 0.420272052
v -0.139387146 1.73431146 0.337543756
v -0.076115109 1.65647209 0.424896598
v -0.0306214858 1.66736603 0.273818552
v 0.107063025 0.171014577 0.115843773
v 0.0768124759 0.170864344 -0.01317563
v 0.0703890398 0.301893145 -0.00594165176
v 0.104443073 0.301775157 0.101305708
v 0.180013672 0.171014607 0.0870398507
v 0.177181184 0.302045345 0.0771593899
v 0.19157213 0.171014577 0.00510015711
v 0.193574324 0.302045256 0.00348708127
v 0.0703890398 0.301893145 -0.00594165176
v 0.0768124759 0.170864344 -0.01317563
v -0.116028093 0.225172728 -0.066580683
v -0.0480487719 -1.37443346E-08 -0.0439088754
v -0.0538366921 0.224831507 -0.00894265063
v -0.116028152 -1.37443337E-08 -0.0854223743
v -0.204808041 0.225992128 -0.0268927384
v -0.194826975 -1.37443328E-08 -0.064018853
v -0.227008358 0.172558635 0.110809498
v -0.304728985 4.30404157E-08 0.194130033
v -0.205646038 0.22173813 0.108504839
v -0.27673617 0.0938401595 0.303863257
v -0.276799172 5.31377893E-08 0.304025501
v -0.11148417 5.06510993E-08 0.33297655
v -0.107172906 0.108495645 0.330240846
v -0.0628416315 3.01924246E-08 0.234463975
v -0.0750534832 0.179772437 0.127265245
v -0.0712915808 0.221402004 0.123232551
v -0.0480487719 -1.37443346E-08 -0.0439088754
v -0.0538366921 0.224831507 -0.00894265063
v -0.11148417 5.06510993E-08 0.33297655
v -0.0628416315 3.01924246E-08 0.234463975
v -0.276799172 5.31377893E-08 0.304025501
v -0.304728985 4.30404157E-08 0.194130033
v -0.194826975 -1.37443328E-08 -0.064018853
v -0.116028152 -1.37443337E-08 -0.0854223743
v -0.0480487719 -1.37443346E-08 -0.0439088754
v 0.0628416315 3.43933095E-08 0.234463975
v 0.11148417 6.13995041E-08 0.33297655
v 0.276799172 7.97906381E-08 0.304025501
v 0.304728895 7.23047862E-08 0.194130033
v 0.194826961 -1.37190987E-08 -0.064018853
v 0.116028145 -1.37190987E-08 -0.0854223818
v 0.0480487682 -1.37191005E-08 -0.0439088754
v 0.0538366921 0.224831522 -0.00894265249
v 0.0480487682 -1.37191005E-08 -0.0439088754
v 0.116028093 0.225172728 -0.066580683
v 0.116028145 -1.37190987E-08 -0.0854223818
v 0.204808041 0.225992128 -0.0268927384
v 0.194826961 -1.37190987E-08 -0.064018853
v 0.227008358 0.172558635 0.110809498
v 0.205646038 0.22173813 0.108504839
v 0.304728895 7.23047862E-08 0.194130033
v 0.0750534832 0.179772437 0.127265245
v 0.0712915808 0.221402004 0.123232551
v 0.0538366921 0.224831522 -0.00894265249
v 0.0480487682 -1.37191005E-08 -0.0439088754
v 0.0628416315 3.43933095E-08 0.234463975
v 0.107172906 0.108495653 0.330240846
v 0.11148417 6.13995041E-08 0.33297655
v 0.27673617 0.0938401893 0.303863257
v 0.276799172 7.97906381E-08 0.304025501
v -0.109137841 0.171014577 0.115843773
v -0.0724638626 0.301893145 -0.00594164943
v -0.0788872987 0.170864344 -0.0131756281
v -0.106517874 0.301775157 0.101305701
v -0.182088479 0.171014607 0.0870398581
v -0.179255977 0.302045345 0.0771593899
v -0.193646967 0.171014577 0.00510015851
v -0.195649147 0.302045256 0.0034870815
v -0.0724638626 0.301893145 -0.00594164943
v -0.0788872987 0.170864344 -0.0131756281
v 0.865057528 1.03738892 0.14274393
v 0.899426937 0.930054605 0.167518198
v 0.867015421 0.910760224 0.190906182
v 0.83578372 0.980139136 0.0996386483
v 0.876783907 0.984321892 0.113572069
v 0.978236496 0.948733211 0.150497198
v 0.788332582 1.00700951 0.154969737
v 0.990723073 0.948608696 0.111911483
v 0.87814194 1.0839386 0.0657031685
v 0.911350667 0.998324394 0.0696668774
v 0.988960087 0.964271724 0.0568908677
v 0.940406859 0.949654877 -0.0799021497
v 0.731266677 1.1108979 0.0645674393
v 0.727587163 0.981554091 0.078719236
v 0.553772926 1.04827762 0.0904948711
v 0.556641281 1.0946418 0.0140076261
v 0.731145382 1.08999324 -0.0605108142
v 0.555970371 1.06609988 -0.0484448075
v 0.731752455 1.00093508 -0.0502120629
v 0.838628232 1.00374019 -0.067844443
v 0.844548464 1.06801164 -0.0822439492
v -0.865057528 1.03738892 0.14274393
v -0.867015421 0.910760224 0.190906182
v -0.899426937 0.930054605 0.167518198
v -0.83578372 0.980139136 0.0996386483
v -0.876783907 0.984321892 0.113572069
v -0.978236496 0.948733211 0.150497198
v -0.788332582 1.00700951 0.154969737
v -0.990723073 0.948608696 0.111911483
v -0.87814194 1.0839386 0.0657031685
v -0.911350667 0.998324394 0.0696668774
v -0.988960087 0.964271724 0.0568908788
v -0.940406859 0.949654877 -0.0799021423
v -0.731266677 1.1108979 0.0645674244
v -0.727587163 0.981554091 0.0787192211
v -0.553772926 1.04827762 0.0904948711
v -0.556641281 1.0946418 0.0140076261
v -0.731145382 1.08999324 -0.0605108254
v -0.555970371 1.06609988 -0.0484448075
v -0.731752455 1.00093508 -0.0502120703
v -0.838628232 1.00374019 -0.067844443
v -0.844548464 1.06801164 -0.0822439566
v 4.7796207E-09 0.602115631 -0.115779787
v 2.12971224E-10 0.686539054 -0.116552196
v -0.0232342239 0.601614535 -0.115779743
v -0.0145857558 0.553126991 0.056623593
v -0.179628953 0.684494674 -0.0981192663
v -0.0459987707 0.424417824 -0.0785105452
v -0.0131987669 0.424417764 0.0558676384
v -0.0136775626 0.223939314 0.0546462759
v -0.0491998456 0.272659689 -0.0665316209
v -0.141326025 0.283347607 -0.108625047
v -0.146059379 0.424417824 -0.103449784
v -0.245085165 0.244209573 0.0255839843
v -0.235575214 0.424417824 0.0405543894
v -0.242028654 0.670213699 0.0595090128
v -0.164250031 0.299663275 0.166023687
v -0.146847621 0.683950722 0.2005018
v -0.14975293 0.424417764 0.17399025
v -0.0136775626 0.223939314 0.0546462759
v -0.0131987669 0.424417764 0.0558676384
v -0.025065342 0.55793941 0.192140207
v 4.7149344E-05 0.688413203 0.247902393
v -0.0145857558 0.553126991 0.056623593
v 5.33174616E-09 0.559562147 0.193288326
v 0.0145857641 0.553126991 0.056623619
v 5.33174616E-09 0.559562147 0.193288326
v 0.0250653476 0.55793941 0.192140207
v 4.7149344E-05 0.688413203 0.247902393
v 0.0131987762 0.424417764 0.0558676645
v 0.140409082 0.683950722 0.197155744
v 0.149752945 0.424417764 0.17399025
v 0.0136775635 0.223939285 0.0546462983
v 0.164250031 0.299663305 0.166023687
v 0.235575274 0.424417764 0.0405543931
v 0.237986565 0.669258893 0.0583530664
v 0.245085195 0.244209573 0.0255839825
v 0.179628819 0.684494674 -0.0981192589
v 0.146059409 0.424417824 -0.103449792
v 0.14132604 0.283347607 -0.108625047
v 0.0232342333 0.601614535 -0.115779743
v 2.12971224E-10 0.686539054 -0.116552196
v 4.7796207E-09 0.602115631 -0.115779787
v 0.0145857641 0.553126991 0.056623619
v 0.0459987819 0.424417824 -0.0785105079
v 0.0491998568 0.272659689 -0.0665315911
v 0.0131987762 0.424417764 0.0558676645
v 0.0136775635 0.223939285 0.0546462983
vt 0.94921875 0.228271484
vt 0.974121094 0.252685547
vt 0.950195312 0.216796875
vt 0.909667969 0.254150391
vt 0.958984375 0.279052734
vt 0.922851562 0.255371094
vt 0.902832031 0.470458984
vt 0.922851562 0.473144531
vt 0.897460938 0.435791016
vt 0.874511719 0.495117188
vt 0.877929688 0.483398438
vt 0.868652344 0.438232422
vt 0.909667969 0.0390930176
vt 0.870605469 0.0390930176
vt 0.870605469 0.0189971924
vt 0.0833129883 0.197875977
vt 0.0194854736 0.140380859
vt 0.0194854736 0.148803711
vt 0.0194854736 0.140380859
vt 0.0833129883 0.197753906
vt 0.0194854736 0.148803711
vt 0.916015625 0.633789062
vt 0.889160156 0.645996094
vt 0.916015625 0.645996094
vt 0.889160156 0.633789062
vt 0.875 0.645996094
vt 0.875 0.633789062
vt 0.863769531 0.732910156
vt 0.738769531 0.762695312
vt 0.863769531 0.762695312
vt 0.738769531 0.732910156
vt 0.863769531 0.717285156
vt 0.738769531 0.717285156
vt 0.958007812 0.987304688
vt 0.936523438 0.842285156
vt 0.936523438 0.987304688
vt 0.958007812 0.842285156
vt 0.982910156 0.987304688
vt 0.982910156 0.842285156
vt 0.875 0.682128906
vt 0.896484375 0.671386719
vt 0.875 0.671386719
vt 0.896484375 0.682128906
vt 0.916015625 0.671386719
vt 0.916015625 0.682128906
vt 0.954101562 0.689453125
vt 0.9453125 0.689453125
vt 0.9453125 0.8359375
vt 0.954101562 0.8359375
vt 0.969238281 0.8359375
vt 0.969238281 0.689453125
vt 0.959472656 0.689453125
vt 0.959472656 0.8359375
vt 0.863769531 0.771484375
vt 0.740234375 0.771484375
vt 0.740234375 0.873535156
vt 0.863769531 0.873535156
vt 0.729980469 0.987304688
vt 0.729980469 0.885253906
vt 0.60546875 0.885253906
vt 0.60546875 0.987304688
vt 0.907714844 0.841796875
vt 0.877441406 0.841796875
vt 0.877441406 0.987792969
vt 0.907714844 0.987792969
vt 0.923828125 0.841796875
vt 0.923828125 0.987792969
vt 0.916015625 0.591308594
vt 0.916015625 0.579589844
vt 0.888183594 0.579589844
vt 0.888183594 0.591308594
vt 0.875 0.579589844
vt 0.875 0.591308594
vt 0.863769531 0.570800781
vt 0.738769531 0.593261719
vt 0.863769531 0.593261719
vt 0.738769531 0.570800781
vt 0.863769531 0.546875
vt 0.738769531 0.546875
vt 0.916015625 0.556152344
vt 0.916015625 0.545410156
vt 0.89453125 0.545410156
vt 0.89453125 0.556152344
vt 0.875 0.545410156
vt 0.875 0.556152344
vt 0.983886719 0.8359375
vt 0.983886719 0.689453125
vt 0.974609375 0.689453125
vt 0.974609375 0.8359375
vt 0.606445312 0.727539062
vt 0.606445312 0.873535156
vt 0.730957031 0.873535156
vt 0.730957031 0.727539062
vt 0.930664062 0.8359375
vt 0.939941406 0.8359375
vt 0.939941406 0.689453125
vt 0.930664062 0.689453125
vt 0.604980469 0.612304688
vt 0.604980469 0.713378906
vt 0.729003906 0.713378906
vt 0.729003906 0.612304688
vt 0.738769531 0.986328125
vt 0.863769531 0.986328125
vt 0.863769531 0.884277344
vt 0.738769531 0.884277344
vt 0.891113281 0.689453125
vt 0.920898438 0.8359375
vt 0.920898438 0.689453125
vt 0.891113281 0.8359375
vt 0.875 0.689453125
vt 0.875 0.8359375
vt 0.875 0.597167969
vt 0.875 0.608398438
vt 0.904296875 0.608398438
vt 0.904296875 0.597167969
vt 0.916015625 0.608398438
vt 0.916015625 0.597167969
vt 0.863769531 0.627929688
vt 0.863769531 0.60546875
vt 0.738769531 0.60546875
vt 0.738769531 0.627929688
vt 0.863769531 0.651855469
vt 0.738769531 0.651855469
vt 0.875 0.653320312
vt 0.875 0.664550781
vt 0.89453125 0.664550781
vt 0.89453125 0.653320312
vt 0.916015625 0.664550781
vt 0.916015625 0.653320312
vt 0.916015625 0.5625
vt 0.887695312 0.573730469
vt 0.916015625 0.573730469
vt 0.887695312 0.5625
vt 0.875 0.573730469
vt 0.875 0.5625
vt 0.73828125 0.678222656
vt 0.73828125 0.708496094
vt 0.863769531 0.708496094
vt 0.863769531 0.678222656
vt 0.73828125 0.662597656
vt 0.863769531 0.662597656
vt 0.604003906 0.576171875
vt 0.604003906 0.601074219
vt 0.728515625 0.601074219
vt 0.728515625 0.576171875
vt 0.604003906 0.547851562
vt 0.728515625 0.547851562
vt 0.916015625 0.616210938
vt 0.895996094 0.626953125
vt 0.916015625 0.626953125
vt 0.895996094 0.616210938
vt 0.875 0.626953125
vt 0.875 0.616210938
vt 0.987792969 0.55078125
vt 0.931640625 0.55078125
vt 0.931640625 0.666992188
vt 0.987792969 0.666992188
vt 0.922851562 0.255371094
vt 0.974121094 0.252685547
vt 0.94921875 0.228271484
vt 0.958984375 0.279052734
vt 0.909667969 0.254150391
vt 0.94921875 0.228271484
vt 0.950195312 0.216796875
vt 0.922851562 0.255371094
vt 0.877929688 0.483398438
vt 0.897460938 0.435791016
vt 0.868652344 0.438232422
vt 0.902832031 0.470458984
vt 0.874511719 0.495117188
vt 0.902832031 0.470458984
vt 0.877929688 0.483398438
vt 0.922851562 0.473144531
vt 0.430908203 0.547363281
vt 0.476074219 0.643554688
vt 0.476074219 0.547363281
vt 0.413818359 0.643554688
vt 0.405517578 0.596191406
vt 0.430908203 0.547363281
vt 0.476074219 0.547363281
vt 0.476074219 0.643554688
vt 0.413818359 0.643554688
vt 0.405517578 0.596191406
vt 0.255615234 0.956054688
vt 0.200683594 0.987792969
vt 0.308349609 0.987792969
vt 0.167724609 0.953125
vt 0.0180969238 0.987792969
vt 0.0948486328 0.934570312
vt 0.16394043 0.913085938
vt 0.0703125 0.883300781
vt 0.125854492 0.792480469
vt 0.0180969238 0.903808594
vt 0.0797729492 0.764648438
vt 0.0180969238 0.740234375
vt 0.109008789 0.662109375
vt 0.131591797 0.727050781
vt 0.196289062 0.720214844
vt 0.213989258 0.662109375
vt 0.240844727 0.717285156
vt 0.294433594 0.662109375
vt 0.244995117 0.877441406
vt 0.303222656 0.884765625
vt 0.308349609 0.987792969
vt 0.354248047 0.930175781
vt 0.227783203 0.836425781
vt 0.241577148 0.790039062
vt 0.251953125 0.828613281
vt 0.298339844 0.772949219
vt 0.252929688 0.736328125
vt 0.255371094 0.7578125
vt 0.298583984 0.760253906
vt 0.340576172 0.754394531
vt 0.381103516 0.786621094
vt 0.341796875 0.729980469
vt 0.299560547 0.813476562
vt 0.343505859 0.827148438
vt 0.35546875 0.8671875
vt 0.384033203 0.826171875
vt 0.446044922 0.884277344
vt 0.423828125 0.942382812
vt 0.417236328 0.987792969
vt 0.308349609 0.987792969
vt 0.451416016 0.833007812
vt 0.513183594 0.833496094
vt 0.471923828 0.729003906
vt 0.37890625 0.702636719
vt 0.529785156 0.76171875
vt 0.580566406 0.891113281
vt 0.580566406 0.733886719
vt 0.490478516 0.662109375
vt 0.389160156 0.662109375
vt 0.310058594 0.708007812
vt 0.302490234 0.726074219
vt 0.364990234 0.507324219
vt 0.351806641 0.508300781
vt 0.347412109 0.53515625
vt 0.371337891 0.538574219
vt 0.362548828 0.557128906
vt 0.333251953 0.559082031
vt 0.308837891 0.526367188
vt 0.337890625 0.508789062
vt 0.308837891 0.562011719
vt 0.314697266 0.597167969
vt 0.355712891 0.597167969
vt 0.352783203 0.649902344
vt 0.291503906 0.649902344
vt 0.381835938 0.649902344
vt 0.380615234 0.569335938
vt 0.397216797 0.5390625
vt 0.383789062 0.530273438
vt 0.355712891 0.597167969
vt 0.397949219 0.579589844
vt 0.380615234 0.569335938
vt 0.397216797 0.5390625
vt 0.364990234 0.507324219
vt 0.347412109 0.53515625
vt 0.351806641 0.508300781
vt 0.371337891 0.538574219
vt 0.362548828 0.557128906
vt 0.333251953 0.559082031
vt 0.308837891 0.526367188
vt 0.337890625 0.508789062
vt 0.308837891 0.562011719
vt 0.314697266 0.597167969
vt 0.355712891 0.597167969
vt 0.352783203 0.649902344
vt 0.291503906 0.649902344
vt 0.381835938 0.649902344
vt 0.380615234 0.569335938
vt 0.397216797 0.5390625
vt 0.383789062 0.530273438
vt 0.355712891 0.597167969
vt 0.380615234 0.569335938
vt 0.397949219 0.579589844
vt 0.397216797 0.5390625
vt 0.681640625 0.209228516
vt 0.737304688 0.20690918
vt 0.696777344 0.18371582
vt 0.685058594 0.237304688
vt 0.7421875 0.251464844
vt 0.725097656 0.259765625
vt 0.859375 0.0196228027
vt 0.780761719 0.115966797
vt 0.780761719 0.0196228027
vt 0.859375 0.115966797
vt 0.489990234 0.230957031
vt 0.539550781 0.230957031
vt 0.489990234 0.210327148
vt 0.437744141 0.230957031
vt 0.437744141 0.197265625
vt 0.470214844 0.172851562
vt 0.438232422 0.169799805
vt 0.467285156 0.159057617
vt 0.0878295898 0.3984375
vt 0.0878295898 0.340576172
vt 0.141723633 0.3984375
vt 0.141601562 0.340576172
vt 0.0878295898 0.241210938
vt 0.141601562 0.241210938
vt 0.288818359 0.241210938
vt 0.288818359 0.3984375
vt 0.141723633 0.478271484
vt 0.288818359 0.481933594
vt 0.224853516 0.481933594
vt 0.141723633 0.508300781
vt 0.801757812 0.525390625
vt 0.801757812 0.494384766
vt 0.853027344 0.513183594
vt 0.801757812 0.437255859
vt 0.853027344 0.430175781
vt 0.79296875 0.340576172
vt 0.928222656 0.341064453
vt 0.928222656 0.389892578
vt 0.798339844 0.279052734
vt 0.928222656 0.279052734
vt 0.725585938 0.279052734
vt 0.720703125 0.418212891
vt 0.783203125 0.469482422
vt 0.720703125 0.340576172
vt 0.680664062 0.257324219
vt 0.637695312 0.340576172
vt 0.640136719 0.437255859
vt 0.666015625 0.463134766
vt 0.604980469 0.241210938
vt 0.637695312 0.188964844
vt 0.560546875 0.340576172
vt 0.541015625 0.241210938
vt 0.588867188 0.430175781
vt 0.588867188 0.514160156
vt 0.640136719 0.495849609
vt 0.640136719 0.528320312
vt 0.560546875 0.3984375
vt 0.433837891 0.3984375
vt 0.433837891 0.340576172
vt 0.433837891 0.241210938
vt 0.288818359 0.241210938
vt 0.288818359 0.3984375
vt 0.433837891 0.478271484
vt 0.288818359 0.481933594
vt 0.352783203 0.481933594
vt 0.433837891 0.508300781
vt 0.920410156 0.499267578
vt 0.9921875 0.475830078
vt 0.932617188 0.532714844
vt 0.966796875 0.483154297
vt 0.966796875 0.415039062
vt 0.9921875 0.376220703
vt 0.966796875 0.338867188
vt 0.958496094 0.423339844
vt 0.939941406 0.39453125
vt 0.939941406 0.423339844
vt 0.958496094 0.341064453
vt 0.939941406 0.341308594
vt 0.975097656 0.304931641
vt 0.939941406 0.279785156
vt 0.498046875 0.0207824707
vt 0.46484375 0.0207824707
vt 0.46484375 0.105895996
vt 0.498046875 0.105895996
vt 0.579589844 0.0207824707
vt 0.527832031 0.168334961
vt 0.46484375 0.137207031
vt 0.578613281 0.105895996
vt 0.647460938 0.108703613
vt 0.592285156 0.206054688
vt 0.640625 0.0207824707
vt 0.651855469 0.143676758
vt 0.774414062 0.143676758
vt 0.704101562 0.0207824707
vt 0.774414062 0.09765625
vt 0.774414062 0.0207824707
vt 0.539550781 0.230957031
vt 0.489990234 0.230957031
vt 0.489990234 0.210327148
vt 0.437744141 0.230957031
vt 0.437744141 0.197265625
vt 0.470214844 0.172851562
vt 0.438232422 0.169799805
vt 0.467285156 0.159057617
vt 0.9921875 0.475830078
vt 0.920410156 0.499267578
vt 0.932617188 0.532714844
vt 0.966796875 0.483154297
vt 0.966796875 0.415039062
vt 0.9921875 0.376220703
vt 0.966796875 0.338867188
vt 0.939941406 0.39453125
vt 0.958496094 0.423339844
vt 0.939941406 0.423339844
vt 0.958496094 0.341064453
vt 0.939941406 0.341308594
vt 0.975097656 0.304931641
vt 0.939941406 0.279785156
vt 0.774414062 0.09765625
vt 0.704101562 0.0207824707
vt 0.774414062 0.0207824707
vt 0.647460938 0.108703613
vt 0.774414062 0.143676758
vt 0.640625 0.0207824707
vt 0.651855469 0.143676758
vt 0.592285156 0.206054688
vt 0.579589844 0.0207824707
vt 0.578613281 0.105895996
vt 0.527832031 0.168334961
vt 0.498046875 0.105895996
vt 0.498046875 0.0207824707
vt 0.46484375 0.105895996
vt 0.46484375 0.137207031
vt 0.46484375 0.0207824707
vt 0.846191406 0.153442383
vt 0.822265625 0.13684082
vt 0.828613281 0.159912109
vt 0.846191406 0.137817383
vt 0.973632812 0.185913086
vt 0.990234375 0.208007812
vt 0.973632812 0.208007812
vt 0.987304688 0.186767578
vt 0.973632812 0.152099609
vt 0.990234375 0.152099609
vt 0.828613281 0.159912109
vt 0.822265625 0.13684082
vt 0.846191406 0.153442383
vt 0.846191406 0.137695312
vt 0.952636719 0.175415039
vt 0.944335938 0.15222168
vt 0.961425781 0.15222168
vt 0.9375 0.175415039
vt 0.925292969 0.175415039
vt 0.876464844 0.175415039
vt 0.876464844 0.15222168
vt 0.598632812 0.572753906
vt 0.533691406 0.560546875
vt 0.51171875 0.59765625
vt 0.5234375 0.629882812
vt 0.58203125 0.629882812
vt 0.598632812 0.572753906
vt 0.51171875 0.59765625
vt 0.533691406 0.560546875
vt 0.5234375 0.629882812
vt 0.58203125 0.629882812
vt 0.560058594 0.441162109
vt 0.529785156 0.41796875
vt 0.567871094 0.466552734
vt 0.525390625 0.420898438
vt 0.475097656 0.422607422
vt 0.493408203 0.452392578
vt 0.454345703 0.477783203
vt 0.526855469 0.461425781
vt 0.490234375 0.486572266
vt 0.509277344 0.532714844
vt 0.536132812 0.512695312
vt 0.559082031 0.515625
vt 0.129150391 0.498535156
vt 0.0991821289 0.468017578
vt 0.128662109 0.511230469
vt 0.101989746 0.484863281
vt 0.0466003418 0.466064453
vt 0.0575561523 0.504882812
vt 0.0174407959 0.542480469
vt 0.088684082 0.515625
vt 0.0567321777 0.537597656
vt 0.0684814453 0.575195312
vt 0.103088379 0.544921875
vt 0.125732422 0.573730469
vt 0.905761719 0.182861328
vt 0.876953125 0.182861328
vt 0.876953125 0.209228516
vt 0.905761719 0.209228516
vt 0.916015625 0.182861328
vt 0.920898438 0.209228516
vt 0.934082031 0.182861328
vt 0.934082031 0.209228516
vt 0.960449219 0.209228516
vt 0.960449219 0.182861328
vt 0.128662109 0.643554688
vt 0.147949219 0.587890625
vt 0.147949219 0.643554688
vt 0.134887695 0.587890625
vt 0.116760254 0.643554688
vt 0.120666504 0.587890625
vt 0.0823364258 0.630859375
vt 0.0676269531 0.587890625
vt 0.0842895508 0.643554688
vt 0.0435791016 0.6015625
vt 0.0409240723 0.587890625
vt 0.0146713257 0.602539062
vt 0.0372009277 0.623535156
vt 0.0146713257 0.649414062
vt 0.0559387207 0.654296875
vt 0.0667114258 0.66015625
vt 0.0146713257 0.687011719
vt 0.0634155273 0.687011719
vt 0.169677734 0.642578125
vt 0.167480469 0.617675781
vt 0.190917969 0.647460938
vt 0.199707031 0.631835938
vt 0.190673828 0.58984375
vt 0.180419922 0.584960938
vt 0.169067383 0.58984375
vt 0.167480469 0.617675781
vt 0.169677734 0.642578125
vt 0.190917969 0.647460938
vt 0.199707031 0.631835938
vt 0.190673828 0.58984375
vt 0.180419922 0.584960938
vt 0.169067383 0.58984375
vt 0.147949219 0.643554688
vt 0.147949219 0.587890625
vt 0.128662109 0.643554688
vt 0.134887695 0.587890625
vt 0.116760254 0.643554688
vt 0.120666504 0.587890625
vt 0.0823364258 0.630859375
vt 0.0842895508 0.643554688
vt 0.0676269531 0.587890625
vt 0.0559387207 0.654296875
vt 0.0667114258 0.66015625
vt 0.0634155273 0.687011719
vt 0.0146713257 0.687011719
vt 0.0146713257 0.649414062
vt 0.0372009277 0.623535156
vt 0.0146713257 0.602539062
vt 0.0435791016 0.6015625
vt 0.0409240723 0.587890625
vt 0.905761719 0.182861328
vt 0.876953125 0.209228516
vt 0.876953125 0.182861328
vt 0.905761719 0.209228516
vt 0.916015625 0.182861328
vt 0.920898438 0.209228516
vt 0.934082031 0.182861328
vt 0.934082031 0.209228516
vt 0.960449219 0.209228516
vt 0.960449219 0.182861328
vt 0.21496582 0.543945312
vt 0.170654297 0.546875
vt 0.162109375 0.55859375
vt 0.196533203 0.537597656
vt 0.207641602 0.535644531
vt 0.207885742 0.510742188
vt 0.200683594 0.578613281
vt 0.224121094 0.505371094
vt 0.24230957 0.554199219
vt 0.244750977 0.525390625
vt 0.266601562 0.50390625
vt 0.308837891 0.526367188
vt 0.245849609 0.598144531
vt 0.215698242 0.609863281
vt 0.215698242 0.649902344
vt 0.253662109 0.649902344
vt 0.286132812 0.597167969
vt 0.291503906 0.649902344
vt 0.314697266 0.597167969
vt 0.308837891 0.562011719
vt 0.290527344 0.56640625
vt 0.21496582 0.543945312
vt 0.162109375 0.55859375
vt 0.170654297 0.546875
vt 0.196533203 0.537597656
vt 0.207641602 0.535644531
vt 0.207885742 0.510742188
vt 0.200683594 0.578613281
vt 0.224121094 0.505371094
vt 0.24230957 0.554199219
vt 0.244750977 0.525390625
vt 0.266601562 0.50390625
vt 0.308837891 0.526367188
vt 0.245849609 0.598144531
vt 0.215698242 0.609863281
vt 0.215698242 0.649902344
vt 0.253662109 0.649902344
vt 0.286132812 0.597167969
vt 0.291503906 0.649902344
vt 0.314697266 0.597167969
vt 0.308837891 0.562011719
vt 0.290527344 0.56640625
vt 0.0833129883 0.197875977
vt 0.0869140625 0.231079102
vt 0.0943603516 0.193115234
vt 0.0194854736 0.140380859
vt 0.177856445 0.231079102
vt 0.0943603516 0.0912475586
vt 0.0194854736 0.0912475586
vt 0.0194854736 0.0197906494
vt 0.0943603516 0.0197906494
vt 0.158447266 0.0197906494
vt 0.158447266 0.0912475586
vt 0.232421875 0.0197906494
vt 0.232421875 0.0944213867
vt 0.232421875 0.231201172
vt 0.336425781 0.0418701172
vt 0.348632812 0.231079102
vt 0.342529297 0.0912475586
vt 0.452392578 0.0197906494
vt 0.452392578 0.0912475586
vt 0.402099609 0.164916992
vt 0.412841797 0.231079102
vt 0.452148438 0.143432617
vt 0.412841797 0.17199707
vt 0.452392578 0.143432617
vt 0.412841797 0.17199707
vt 0.402099609 0.164916992
vt 0.412841797 0.231079102
vt 0.452392578 0.0912475586
vt 0.348632812 0.231079102
vt 0.342529297 0.0912475586
vt 0.452392578 0.0197906494
vt 0.336425781 0.0418701172
vt 0.232421875 0.0944213867
vt 0.232421875 0.231201172
vt 0.232421875 0.0197906494
vt 0.177856445 0.231079102
vt 0.158447266 0.0912475586
vt 0.158447266 0.0197906494
vt 0.0943603516 0.193115234
vt 0.0868530273 0.231079102
vt 0.0833129883 0.197753906
vt 0.0194854736 0.140380859
vt 0.0943603516 0.0912475586
vt 0.0943603516 0.0197906494
vt 0.0194854736 0.0912475586
vt 0.0194854736 0.0197906494
vn 0.921722353 0.305159092 -0.23938632
vn 0.921722353 0.305159062 -0.23938635
vn 0.921722353 0.305159062 -0.23938632
vn -0.971490204 -0.132779017 0.196408972
vn -0.971490204 -0.132779017 0.196408972
vn -0.971490204 -0.132779002 0.196408972
vn -0.919694185 0.31134966 -0.239215404
vn -0.919694185 0.31134963 -0.239215404
vn -0.919694185 0.31134963 -0.239215344
vn 0.975539207 -0.100213729 0.195653751
vn 0.975539207 -0.100213706 0.195653737
vn 0.975539207 -0.100213721 0.195653751
vn -0.00586823467 -0.986016214 -0.166545913
vn 1.69042596E-05 -0.986028612 -0.166575804
vn -0.0366753861 -0.995703876 -0.0850219876
vn -3.25935446E-07 -0.807109118 -0.590402305
vn 0.981046617 -0.183791652 -0.0613850504
vn -1.9427016E-06 -0.830777586 0.556604505
vn -0.981046617 -0.183791623 -0.0613850579
vn -3.25935446E-07 -0.807109118 -0.590402305
vn -1.9427016E-06 -0.830777586 0.556604505
vn 1 0 0
vn 1 0 0
vn 1 0 0
vn 1 0 0
vn 1 0 0
vn 1 0 0
vn -0 0.652572155 -0.75772655
vn -0 0.799425304 -0.600765526
vn -0 0.799425304 -0.600765526
vn -0 0.652572155 -0.75772655
vn -0 0.260701776 -0.965419352
vn -0 0.260701776 -0.965419352
vn 0.298573941 -0.820227444 0.487934977
vn 0.0769799054 -0.856878817 0.509737909
vn 0.0769799203 -0.856878936 0.509737909
vn 0.298573881 -0.820227444 0.487934947
vn 0.479915649 -0.753989637 0.448531687
vn 0.479915649 -0.753989637 0.448531628
vn -9.51153766E-07 0.511253774 0.859429777
vn -0 0.511255264 0.859428883
vn -9.51153879E-07 0.511253774 0.859429777
vn 1.79455057E-07 0.511255503 0.859428763
vn 1.16775584E-06 0.511256933 0.859427869
vn 1.16775607E-06 0.511256993 0.859427869
vn -0 0.97419852 0.225693136
vn -0 0.97419852 0.225693136
vn -0 0.97419852 0.225693136
vn -0 0.97419852 0.225693136
vn -0.830825388 0.478300959 -0.284530282
vn -0.830825388 0.478300959 -0.284530282
vn -0.830825388 0.478300959 -0.284530312
vn -0.830825388 0.478300959 -0.284530312
vn -1 0 0
vn -1 0 0
vn -1 0 0
vn -1 0 0
vn -0 0.511255085 0.859429002
vn -0 0.511255085 0.859429002
vn -0 0.511255085 0.859429002
vn -0 0.511255085 0.859429002
vn -0 -0.636695623 0.771115243
vn -0 -0.782523036 0.622621536
vn -0 -0.782523036 0.622621536
vn -0 -0.636695623 0.771115243
vn -0 -0.26044336 0.965489149
vn -0 -0.26044336 0.965489149
vn -1 2.01415205E-07 0
vn -1 2.01415205E-07 0
vn -1 2.22204633E-07 0
vn -1 2.25327298E-07 0
vn -1 2.67670629E-07 0
vn -1 2.67670629E-07 0
vn 0.279916823 0.825072527 -0.490817606
vn 0.068051897 0.857436478 -0.510070086
vn 0.068051897 0.857436478 -0.510070145
vn 0.279916823 0.825072527 -0.490817547
vn 0.469914436 0.75862813 -0.451291203
vn 0.469914407 0.75862813 -0.451291203
vn 1.0012119E-06 0.511252224 0.85943073
vn 1.0012119E-06 0.511252165 0.85943073
vn -0 0.511252999 0.859430313
vn -1.56106381E-07 0.511253178 0.859430134
vn -1.16774879E-06 0.511254013 0.859429717
vn -1.16774879E-06 0.511254013 0.859429717
vn -0 0.266589105 -0.963810325
vn -0 0.266589105 -0.963810325
vn -0 0.266589105 -0.963810325
vn -0 0.266589105 -0.963810325
vn -0 0.859428823 -0.511255383
vn -0 0.859428823 -0.511255383
vn -0 0.859428823 -0.511255383
vn -0 0.859428823 -0.511255383
vn 0.830826044 0.478299916 -0.284529835
vn 0.830826104 0.478299826 -0.284529805
vn 0.830826104 0.478299886 -0.284529835
vn 0.830826104 0.478299886 -0.284529835
vn 1 0 0
vn 1 0 0
vn 1 0 0
vn 1 0 0
vn -0 -0.511255383 -0.859428823
vn -0 -0.511255383 -0.859428823
vn -0 -0.511255383 -0.859428823
vn -0 -0.511255383 -0.859428823
vn -0 -0.981490731 0.19150956
vn -0 -0.920591772 0.390526235
vn -0 -0.920591772 0.390526235
vn -0 -0.981490731 0.19150956
vn -0 -0.972740889 -0.231894687
vn -0 -0.972740889 -0.231894687
vn 1 -2.01415077E-07 0
vn 1 -2.01415062E-07 0
vn 1 -2.47138701E-07 0
vn 1 -2.54006466E-07 0
vn 1 -3.47135057E-07 0
vn 1 -3.47135057E-07 0
vn -0.279916793 0.825072527 -0.490817606
vn -0.068051897 0.857436478 -0.510070145
vn -0.068051897 0.857436478 -0.510070145
vn -0.279916823 0.825072527 -0.490817547
vn -0.469914347 0.75862813 -0.451291293
vn -0.469914317 0.75862813 -0.451291233
vn -2.00244031E-07 -0.511256576 -0.859428227
vn -2.00244031E-07 -0.511256576 -0.859428108
vn -2.88815841E-07 -0.511255741 -0.859428644
vn -3.01094531E-07 -0.511255562 -0.859428763
vn -3.89250573E-07 -0.511254728 -0.85942924
vn -3.89250602E-07 -0.511254787 -0.85942924
vn -1 0 0
vn -1 0 0
vn -1 0 0
vn -1 0 0
vn -1 0 0
vn -1 0 0
vn -0 0.977302194 -0.211849868
vn -0 0.909452915 -0.415807039
vn -0 0.909452915 -0.415807039
vn -0 0.977302194 -0.211849868
vn -0 0.972803235 0.231632948
vn -0 0.972803235 0.231632948
vn -0.298573911 -0.820227504 0.487934858
vn -0.0769799575 -0.856878936 0.509737849
vn -0.0769799575 -0.856878936 0.509737909
vn -0.298573881 -0.820227504 0.487934858
vn -0.47991541 -0.753989756 0.448531628
vn -0.47991541 -0.753989756 0.448531628
vn 2.75335566E-07 -0.511256337 -0.859428287
vn 3.28718102E-07 -0.511255622 -0.859428763
vn 2.75335566E-07 -0.511256397 -0.859428227
vn 3.36118575E-07 -0.511255562 -0.859428763
vn 3.89250459E-07 -0.511254787 -0.85942924
vn 3.89250431E-07 -0.511254787 -0.859429181
vn -0 -0.859429181 0.511254907
vn -0 -0.859429181 0.511254907
vn -0 -0.859429181 0.511254907
vn -0 -0.859429181 0.511254907
vn 0.215727568 0.21698682 0.952039123
vn 0.220044971 0.214563668 0.951600015
vn 0.195509955 0.228223294 0.953776658
vn 0.247858703 0.198751509 0.948189855
vn 0.195154324 -0.980736017 0.00846033357
vn 0.195145175 -0.980736852 0.00857719406
vn 0.195141926 -0.980737209 0.0086187385
vn 0.19515714 -0.980735779 0.00842493027
vn -0.226575524 0.185148835 0.956233919
vn -0.234337851 0.180926308 0.955170929
vn -0.271404862 0.160421297 0.949001849
vn -0.202791497 0.197936028 0.959008336
vn -0.19516103 -0.980734646 0.00847102515
vn -0.195151731 -0.980735481 0.0085884966
vn -0.195163891 -0.980734408 0.00843543839
vn -0.195148394 -0.980735719 0.00863025803
vn 0.00338051328 0.999716699 0.0235565882
vn 0.00395085756 0.999758184 0.0216342229
vn 0.0233214013 0.999230385 0.0315387659
vn -0.00133194611 0.999795616 0.020175226
vn -0.0165293626 0.999581158 0.0237525553
vn -0.00338044344 0.999716699 0.0235566348
vn -0.0233213995 0.999230385 0.0315387622
vn -0.00395085663 0.999758184 0.0216341671
vn 0.00133198663 0.999795616 0.0201752167
vn 0.0165297575 0.999581158 0.0237530489
vn -0.540172637 0.680063844 0.495708287
vn -0.0142852999 0.995957434 0.088682659
vn 0.0489179678 0.835469723 0.547354937
vn -0.537342608 0.842704356 0.0333508179
vn -0.247951537 0.734706104 -0.631448388
vn -0.620815873 0.612191558 -0.489703089
vn -0.972949028 0.231019527 -0.000212488521
vn -0.720202327 0.0538156703 -0.691673696
vn -0.966961741 -0.231825322 -0.106027998
vn -0.109477177 0.109577313 -0.987930894
vn -0.553684354 -0.46852541 -0.688416719
vn -9.51467518E-05 -0.586731493 -0.809781551
vn -0.00468540844 -0.914800584 -0.403878748
vn -0.591430426 -0.709367335 -0.383416176
vn -0.651846528 -0.758243382 -0.0127684018
vn 0.0114059933 -0.98276639 -0.184499502
vn -0.668589234 -0.724473298 0.167710602
vn 0.0232633557 -0.874471664 0.484518349
vn -0.61804992 0.0802869648 0.782028317
vn 0.0220989883 0.0145187005 0.999650359
vn 0.0489179678 0.835469723 0.547354937
vn 0.591956258 0.655250669 0.469291359
vn -0.892814875 -0.0423738919 0.448426127
vn -0.823010862 -0.198287338 0.532292426
vn -0.17478177 -0.0617276207 0.982670367
vn 0.0399719104 0.228571698 0.972706139
vn -0.496888608 -0.549734831 0.67148602
vn -0.157831311 -0.486424953 0.859348595
vn 0.0590258352 -0.685482681 0.725692332
vn 0.224693209 -0.498927116 0.83700943
vn 0.860233366 -0.128519714 0.493438095
vn 0.435017109 -0.518817067 0.735927403
vn -0.00208710297 0.0500999577 0.998742044
vn 0.261207312 0.0116291391 0.965212643
vn 0.648784399 0.0898887366 0.755644619
vn 0.84790051 0.0534181632 0.527457237
vn 0.972371936 0.223330468 0.0679441318
vn 0.635784924 0.744875193 0.202332661
vn -0.0142852999 0.995957434 0.088682659
vn 0.0489179678 0.835469723 0.547354937
vn 0.970017314 -0.200346842 -0.137577504
vn 0.803173423 -0.186576799 -0.565775216
vn 0.669571042 -0.697130084 -0.256289452
vn 0.617837131 -0.780231833 0.0975469425
vn 0.514392376 -0.495147943 -0.700163603
vn -0.109477177 0.109577313 -0.987930894
vn -9.51467518E-05 -0.586731493 -0.809781551
vn -0.00468540844 -0.914800584 -0.403878748
vn 0.0114059933 -0.98276639 -0.184499502
vn 0.0150989257 0.274849951 0.961368561
vn 0.0458281934 -0.129766077 0.990485072
vn 0.729103923 -0.0954044312 0.677720845
vn 0.797937751 0.535890818 0.275892079
vn 0.0773136765 -0.995349109 0.0574693531
vn -0.309496462 -0.880562305 0.358917743
vn 0.257960558 -0.857578993 -0.44498837
vn -0.0915214121 -0.995615721 -0.0193173606
vn 0.857289076 0.279274851 -0.432505488
vn 0.90730536 0.351035118 -0.231454849
vn -0.283364683 -0.704741418 -0.650418401
vn -0.0339580327 -0.773451626 -0.632945061
vn -0.19829914 -0.815169156 0.544221222
vn -0.205683783 -0.964309692 -0.166736469
vn -0.209929943 0.157330096 -0.96497494
vn -0.230326086 -0.0469061472 0.97198236
vn -0.484090656 -0.873076737 0.0582499057
vn 0.0457888618 -0.526546896 0.84891206
vn 0.951128483 -0.300062984 -0.0729171336
vn -0.19829914 -0.815169156 0.544221222
vn -0.402753741 0.300888032 0.864439547
vn -0.484090656 -0.873076737 0.0582499057
vn 0.0457888618 -0.526546896 0.84891206
vn -0.729108095 -0.0954037756 0.677716434
vn -0.0773133114 -0.995349228 0.0574689321
vn -0.797938466 0.535890698 0.27589035
vn 0.309496462 -0.880562305 0.358917594
vn -0.257960588 -0.857579112 -0.444988161
vn 0.0915214717 -0.995615721 -0.019317193
vn -0.857289195 0.279275119 -0.432505131
vn -0.907305956 0.35103333 -0.231455058
vn 0.283364743 -0.704741657 -0.650418162
vn 0.0339580067 -0.773451746 -0.632944822
vn 0.19829911 -0.815169036 0.544221282
vn 0.205683812 -0.964309692 -0.166736603
vn 0.209929824 0.157329991 -0.964974999
vn 0.230326161 -0.0469062626 0.97198236
vn 0.484090477 -0.873076975 0.0582503304
vn -0.0457886904 -0.526547015 0.848912001
vn -0.951128483 -0.300063014 -0.0729171634
vn 0.19829911 -0.815169036 0.544221282
vn 0.484090477 -0.873076975 0.0582503304
vn 0.40275386 0.300888389 0.864439368
vn -0.0457886904 -0.526547015 0.848912001
vn -0.157831311 -0.486424953 0.859348595
vn 0.0458281934 -0.129766077 0.990485072
vn -0.496888608 -0.549734831 0.67148602
vn 0.0590258352 -0.685482681 0.725692332
vn 0.435017109 -0.518817067 0.735927403
vn 0.224693209 -0.498927116 0.83700943
vn 0.124151289 0.166030198 0.978274286
vn 0.124906883 0.165601686 0.978250682
vn 0.12154565 0.167506367 0.978349686
vn 0.127647921 0.164045855 0.978158951
vn 6.28078396E-07 0.35675931 0.934196353
vn -1.27863075E-06 0.663937807 0.747787893
vn -0.732715309 0.177410454 0.657003641
vn -1.67122755E-06 0.253208607 0.967411757
vn -0.972668827 0.197990403 0.121306129
vn -0.962537229 0.0468933918 -0.267063767
vn -1.28127397E-06 0.262024045 -0.965061307
vn -0 -0.160335422 -0.987062633
vn -0.482429147 -0.841777802 0.242223546
vn -0.954298496 -0.230152592 0.19064188
vn -0.272587538 -0.382596493 -0.882788718
vn -0.614453316 -0.104422517 -0.782012165
vn -0.992084801 -0.0397256725 0.11911983
vn -0.677860141 0.0336317457 -0.734421253
vn 0.00710955774 0.184117615 -0.982878566
vn -0.0216506105 0.108913369 -0.993815422
vn -0.10855075 0.408418268 -0.906317472
vn 0.00200771517 0.193009749 -0.981194794
vn -0.32290557 0.796190858 -0.511675656
vn -0.138290077 0.986070335 0.0924181715
vn -0.32290557 0.796190858 -0.511675656
vn -0.253454208 0.857181072 0.448331952
vn -0.138290077 0.986070335 0.0924181715
vn -0.319353133 0.291168928 0.90179497
vn -0.392947257 0.160106361 0.905515552
vn -0.561931491 -0.110392362 0.819784522
vn -0.954298496 -0.230152592 0.19064188
vn -0.482429147 -0.841777802 0.242223546
vn -0.618268192 -0.148330957 0.771843493
vn -0.992084801 -0.0397256725 0.11911983
vn -0.123904161 -0.213039577 0.969155312
vn -0.00100870035 0.119174093 0.992872834
vn -0.372522384 0.454668641 0.809013903
vn -0.0103669995 0.0418405756 0.999070585
vn 0.22504659 0.0492853336 0.973100722
vn 0.593148828 0.068220228 0.802197278
vn 0.322727352 0.336246997 0.88475132
vn 0.449135244 0.4683474 0.760873258
vn 0.743606567 0.138951644 0.654019535
vn 0.351261735 0.131975695 0.926929057
vn 0.994724929 -0.0239343476 0.0997466817
vn 0.990434051 0.101235896 -0.0937644243
vn 0.413812369 0.156433791 0.896821022
vn 0.12968193 0.984723806 0.116196759
vn 0.256473303 0.875377893 0.409798652
vn 0.324889183 0.761301816 -0.561129689
vn 0.478941262 -0.841326714 0.25056842
vn 0.284693152 -0.349824756 -0.892509103
vn 0.575173795 0.00137928047 -0.818030059
vn 0.664537013 0.111044362 -0.738958478
vn 0.00710955774 0.184117615 -0.982878566
vn -0.0216506105 0.108913369 -0.993815422
vn 0.107409149 0.408818871 -0.906272709
vn 0.00200771517 0.193009749 -0.981194794
vn 0.324889183 0.761301816 -0.561129689
vn 0.12968193 0.984723806 0.116196759
vn -0.0111732529 0.42895624 0.903256178
vn 0.751237631 0.457221419 0.47601527
vn -0.0159990638 0.490805537 0.871122181
vn 0.84811759 0.352418512 0.395598143
vn 0.792096674 0.581777692 0.1847094
vn 0.782951117 0.590073705 0.196978509
vn 0.783755004 0.588913739 0.197253212
vn 0.00589769287 0.530891955 -0.847418964
vn -0.32290557 0.796190858 -0.511675656
vn 0.00200771517 0.193009749 -0.981194794
vn -0.607355058 0.762417495 -0.223247409
vn -0.253454208 0.857181072 0.448331952
vn -0.372522384 0.454668641 0.809013903
vn -0.319353133 0.291168928 0.90179497
vn -0.392947257 0.160106361 0.905515552
vn -0.482429147 -0.841777802 0.242223546
vn -0.099670805 -0.994092047 -0.042974554
vn -0.0776110068 0.0277833007 0.996596515
vn -0.138290077 0.986070335 0.0924181715
vn 0.039453093 0.127491713 0.991054714
vn 0.0382553861 -0.99214983 -0.11905954
vn 0.0492330343 0.994211614 0.0954948589
vn -0.0784600675 0.0734384879 -0.994208574
vn 0.0758923888 0.989710391 0.121300243
vn -0.10855075 0.408418268 -0.906317472
vn -0.0151872756 0.063547343 -0.997863233
vn 0.0382553861 -0.99214983 -0.11905954
vn -0.272587538 -0.382596493 -0.882788718
vn -0.099670805 -0.994092047 -0.042974554
vn -0.482429147 -0.841777802 0.242223546
vn -1.27863075E-06 0.663937807 0.747787893
vn 6.28078396E-07 0.35675931 0.934196353
vn 0.732715964 0.17740795 0.657003522
vn -1.67122755E-06 0.253208607 0.967411757
vn 0.972668707 0.197990462 0.121307157
vn 0.962536871 0.0468934923 -0.267064899
vn -1.28127397E-06 0.262024045 -0.965061307
vn -0 -0.160335422 -0.987062633
vn -0.768184364 0.440836579 0.46427986
vn -0.0111732529 0.42895624 0.903256178
vn -0.0159990638 0.490805537 0.871122181
vn -0.857751131 0.329421371 0.394644886
vn -0.798650146 0.57269454 0.184875667
vn -0.784994543 0.587117851 0.197677255
vn -0.783746302 0.588926196 0.197250485
vn 0.324889183 0.761301816 -0.561129689
vn 0.00589769287 0.530891955 -0.847418964
vn 0.00200771517 0.193009749 -0.981194794
vn 0.564231038 0.806614935 -0.17611298
vn 0.256473303 0.875377893 0.409798652
vn 0.449135244 0.4683474 0.760873258
vn 0.322727352 0.336246997 0.88475132
vn 0.0996707529 -0.994092047 -0.0429745205
vn 0.284693152 -0.349824756 -0.892509103
vn 0.478941262 -0.841326714 0.25056842
vn 0.0770613849 0.0731325299 -0.994340539
vn -0.038255319 -0.99214983 -0.11905957
vn 0.107409149 0.408818871 -0.906272709
vn 0.0151872803 0.0635469109 -0.997863352
vn -0.075892292 0.989710391 0.12129993
vn 0.12968193 0.984723806 0.116196759
vn -0.0492262095 0.994216681 0.095445767
vn -0.0394530594 0.12749216 0.991054595
vn 0.0776461437 0.0277250614 0.996595323
vn 0.413812369 0.156433791 0.896821022
vn 0.0996707529 -0.994092047 -0.0429745205
vn -0.038255319 -0.99214983 -0.11905957
vn 0.478941262 -0.841326714 0.25056842
vn 0.985934556 -0.167001471 -0.00660439627
vn 0.985944927 -0.167059496 0.0018861657
vn 0.980616808 -0.166825607 0.102761291
vn 0.979407668 -0.165169612 -0.116101727
vn -0.688226581 -0.449272245 0.569647729
vn -0.814033747 -0.569222689 -0.1154759
vn -0.724619508 -0.687727869 -0.0442368761
vn -0.640290737 -0.49148351 0.590314984
vn -0.0366753861 -0.995703876 -0.0850219876
vn 1.69042596E-05 -0.986028612 -0.166575804
vn -0.980616808 -0.166825518 0.10276138
vn -0.985944927 -0.16705966 0.00188624219
vn -0.985934556 -0.16700162 -0.00660431944
vn -0.979407668 -0.165170044 -0.11610163
vn -0.471548647 -0.562137067 -0.679443717
vn -0.562234938 -0.603951931 -0.564919353
vn -0.241327062 -0.762375176 -0.600454271
vn -0.343248367 -0.353120774 -0.87033689
vn -0.501426339 -0.662441254 -0.556545854
vn -0.724619508 -0.687727869 -0.0442368761
vn -0.814033747 -0.569222689 -0.1154759
vn -0.0207268316 -0.99974674 -0.00876695476
vn -0.541289151 -0.823010027 -0.172222376
vn -0.29297933 -0.955514312 -0.0339918956
vn 0.0774356499 -0.994839251 0.0655623972
vn 0.451754063 -0.887547493 0.0904314369
vn 0.0207268894 -0.99974674 -0.00876668934
vn 0.292979598 -0.955514312 -0.0339919329
vn 0.541289389 -0.823009849 -0.172222093
vn -0.0774356872 -0.994839251 0.0655624345
vn -0.451753855 -0.887547493 0.0904318094
vn 0.571006 -0.647647858 -0.504484534
vn -0.600734472 -0.651213169 -0.463723361
vn -0 -0.996194601 -0.0871565342
vn -0.840486646 -0.47217387 0.265770495
vn -0.945419073 0.297803015 0.132273033
vn -0.500157177 0.380884737 0.77766937
vn 0.013295331 0.887894154 0.459855735
vn 0.0312152803 -0.523418605 0.85150373
vn 0.550664604 0.384082794 0.741113365
vn 0.950497389 0.303573132 0.0663189515
vn 0.859778583 -0.466998786 0.206622496
vn 0.571006 -0.647647858 -0.504484534
vn 0.952275455 0.287914097 0.101375379
vn 0.613420308 -0.647402108 -0.452311844
vn 0.855900168 -0.43590638 0.278245568
vn 1.24531482E-07 -0.99619472 -0.0871563181
vn -0.571005523 -0.647647262 -0.504485607
vn -0.859778702 -0.466998994 0.206621826
vn -0.950497508 0.303572774 0.0663185194
vn -0.0312156621 -0.523418725 0.85150367
vn -0.550664485 0.384082407 0.741113484
vn 0.0765298009 0.897529066 0.434263527
vn 0.54602617 0.398770988 0.736774921
vn 0.952275455 0.287914097 0.101375379
vn -0.630274653 0.0393284447 0.775375485
vn -0.770987153 -0.00263653323 -0.636845231
vn -0.79153955 -0.00670615677 -0.611081183
vn -0.625867963 0.0618225671 0.77747488
vn 0.779438734 0.0763640553 0.62180692
vn 0.763605535 0.0464910902 0.644007027
vn 0.660962701 0.0313466415 -0.749763668
vn 0.614081264 -0.0190968402 -0.789011657
vn -0.79153955 -0.00670615677 -0.611081183
vn -0.770987153 -0.00263653323 -0.636845231
vn 0.0981824771 0.113412797 -0.988684833
vn 0.966336191 0.0831548125 -0.243474156
vn 0.978457868 0.0542068668 -0.199203223
vn 0.0976958275 0.109637707 -0.98915869
vn -0.854458332 0.0443672203 -0.517621934
vn -0.791214347 0.157515481 -0.590904951
vn -0.846832037 0.530822515 -0.0332095996
vn -0.936534703 0.269330233 -0.224419206
vn -0.633989453 0.309676945 0.708630741
vn -0.559807897 0.671511352 0.485476643
vn -0.583319902 0.00179605524 0.812240601
vn 0.310704827 0.00530010741 0.950491667
vn 0.35371685 0.676944256 0.645469546
vn 0.979877412 0.125437438 0.155259982
vn 0.864413559 0.412822455 0.286996216
vn 0.66091913 0.0129618337 0.75034523
vn 0.966336191 0.0831548125 -0.243474156
vn 0.978457868 0.0542068668 -0.199203223
vn -0 -1 1.8431075E-07
vn -0 -1 1.70830148E-07
vn -0 -1 1.23694875E-07
vn -0 -1 1.65849542E-07
vn -0 -1 1.62823156E-07
vn -0 -1 1.37896166E-07
vn -0 -1 1.52873241E-07
vn 1.6932249E-07 -1 2.1625489E-07
vn 1.46583034E-07 -1 2.01761509E-07
vn 1.70208622E-07 -1 1.2909301E-07
vn 1.92592111E-07 -1 2.15057256E-07
vn 1.01917287E-07 -1 2.06256388E-07
vn -0 -1 1.51001487E-07
vn 1.02228675E-07 -1 1.67401922E-07
vn -0.978457868 0.0542069189 -0.199203223
vn -0.966336191 0.0831548497 -0.243474156
vn -0.0981826112 0.113412835 -0.988684833
vn -0.0976958051 0.109637707 -0.98915869
vn 0.854458332 0.0443672314 -0.517621934
vn 0.791214347 0.157515302 -0.590904951
vn 0.846832216 0.530822277 -0.0332096033
vn 0.633989573 0.309676856 0.708630681
vn 0.936534822 0.269329756 -0.224419251
vn -0.864413559 0.412822425 0.286996096
vn -0.66091913 0.0129617956 0.75034523
vn -0.978457868 0.0542069189 -0.199203223
vn -0.966336191 0.0831548497 -0.243474156
vn -0.979877412 0.125437483 0.155259952
vn -0.35371694 0.676944196 0.645469487
vn -0.310705006 0.00530012045 0.950491548
vn 0.559807956 0.671511292 0.485476553
vn 0.583319962 0.00179569924 0.812240422
vn 0.630274653 0.0393284932 0.775375366
vn 0.79153949 -0.00670615118 -0.611081243
vn 0.770987034 -0.00263646943 -0.63684541
vn 0.625868142 0.0618225373 0.777474642
vn -0.779438674 0.0763642713 0.621806979
vn -0.763605535 0.0464913175 0.644007027
vn -0.66096288 0.0313468091 -0.749763608
vn -0.614081383 -0.0190966614 -0.789011598
vn 0.79153949 -0.00670615118 -0.611081243
vn 0.770987034 -0.00263646943 -0.63684541
vn 0.31811443 0.634176791 0.704714835
vn 0.951128483 -0.300062984 -0.0729171336
vn 0.0457888618 -0.526546896 0.84891206
vn 0.257960558 -0.857578993 -0.44498837
vn -0.309496462 -0.880562305 0.358917743
vn 0.729103923 -0.0954044312 0.677720845
vn -0.402753741 0.300888032 0.864439547
vn 0.797937751 0.535890818 0.275892079
vn 0.507964134 0.859977961 0.0490945689
vn 0.0773136765 -0.995349109 0.0574693531
vn 0.90730536 0.351035118 -0.231454849
vn 0.857289076 0.279274851 -0.432505488
vn -0.0214507002 0.904515505 0.425900787
vn -0.19829914 -0.815169156 0.544221222
vn -0.230326086 -0.0469061472 0.97198236
vn -0.165166497 0.984527469 0.0585289933
vn 0.00492650922 0.780723035 -0.624857783
vn -0.209929943 0.157330096 -0.96497494
vn -0.0339580327 -0.773451626 -0.632945061
vn -0.283364683 -0.704741418 -0.650418401
vn 0.444128215 0.748808026 -0.491972178
vn -0.3181144 0.634176791 0.704714894
vn -0.0457886904 -0.526547015 0.848912001
vn -0.951128483 -0.300063014 -0.0729171634
vn -0.257960588 -0.857579112 -0.444988161
vn 0.309496462 -0.880562305 0.358917594
vn -0.729108095 -0.0954037756 0.677716434
vn 0.40275386 0.300888389 0.864439368
vn -0.797938466 0.535890698 0.27589035
vn -0.507964373 0.859977841 0.0490946695
vn -0.0773133114 -0.995349228 0.0574689321
vn -0.907305956 0.35103333 -0.231455058
vn -0.857289195 0.279275119 -0.432505131
vn 0.0214506853 0.904515505 0.425900817
vn 0.19829911 -0.815169036 0.544221282
vn 0.230326161 -0.0469062626 0.97198236
vn 0.165166453 0.984527469 0.0585287958
vn -0.00492652552 0.780723035 -0.624857843
vn 0.209929824 0.157329991 -0.964974999
vn 0.0339580067 -0.773451746 -0.632944822
vn 0.283364743 -0.704741657 -0.650418162
vn -0.444128215 0.748808444 -0.491971672
vn -3.25935446E-07 -0.807109118 -0.590402305
vn -0 0.0183035862 -0.999832511
vn 0.269990981 -0.127598658 -0.954370797
vn 0.981046617 -0.183791652 -0.0613850504
vn -0.677860141 0.0336317457 -0.734421253
vn 0.806023955 -0.103345141 -0.582790792
vn 0.940721154 -0.121600226 0.316634208
vn 0.917540729 -0.0355397388 0.396050364
vn 0.816782594 -0.0625014156 -0.573550105
vn -0.441601038 -0.0194999557 -0.896999657
vn -0.557424009 -0.0482800752 -0.82882303
vn -0.995201826 0.0362825133 -0.090867728
vn -0.999780238 -0.0140986433 -0.015512065
vn -0.992084801 -0.0397256725 0.11911983
vn -0.253547907 -0.0614063665 0.965371788
vn -0.618268192 -0.148330957 0.771843493
vn -0.246911779 -0.177547932 0.952633858
vn 0.917540729 -0.0355397388 0.396050364
vn 0.940721154 -0.121600226 0.316634208
vn 0.204402044 -0.351690233 0.913528204
vn -0.123904161 -0.213039577 0.969155312
vn 0.981046617 -0.183791652 -0.0613850504
vn -1.9427016E-06 -0.830777586 0.556604505
vn -0.981046617 -0.183791623 -0.0613850579
vn -1.9427016E-06 -0.830777586 0.556604505
vn -0.198269308 -0.346374035 0.916904688
vn -0.123904161 -0.213039577 0.969155312
vn -0.940721035 -0.121600211 0.316634268
vn 0.592367232 -0.112572104 0.797764719
vn 0.252402842 -0.162661895 0.953852177
vn -0.917540848 -0.0355397314 0.396050304
vn 0.253547668 -0.0614064448 0.965371788
vn 0.999931693 -0.00490237586 -0.0106112994
vn 0.988365412 -0.0206879061 0.150684968
vn 0.995201707 0.036282558 -0.0908679292
vn 0.667889118 -0.0166521408 -0.744074583
vn 0.557423949 -0.048279915 -0.82882303
vn 0.441600889 -0.0195000153 -0.896999657
vn -0.269990951 -0.127598643 -0.954370797
vn -0 0.0183035862 -0.999832511
vn -3.25935446E-07 -0.807109118 -0.590402305
vn -0.981046617 -0.183791623 -0.0613850579
vn -0.806024015 -0.103345186 -0.582790792
vn -0.816782594 -0.0625013709 -0.573550045
vn -0.940721035 -0.121600211 0.316634268
vn -0.917540848 -0.0355397314 0.396050304
g A_Monster_Zombie05_LOD_0
f 3/3/3 2/2/2 1/1/1
f 6/6/6 5/5/5 4/4/4
f 9/9/9 8/8/8 7/7/7
f 12/12/12 11/11/11 10/10/10
f 15/15/15 14/14/14 13/13/13
f 18/18/18 17/17/17 16/16/16
f 21/21/21 20/20/20 19/19/19
f 24/24/24 23/23/23 22/22/22
f 23/23/23 25/25/25 22/22/22
f 23/23/23 26/26/26 25/25/25
f 26/26/26 27/27/27 25/25/25
f 30/30/30 29/29/29 28/28/28
f 29/29/29 31/31/31 28/28/28
f 28/28/28 31/31/31 32/32/32
f 31/31/31 33/33/33 32/32/32
f 36/36/36 35/35/35 34/34/34
f 35/35/35 37/37/37 34/34/34
f 34/34/34 37/37/37 38/38/38
f 37/37/37 39/39/39 38/38/38
f 42/42/42 41/41/41 40/40/40
f 41/41/41 43/43/43 40/40/40
f 41/41/41 44/44/44 43/43/43
f 44/44/44 45/45/45 43/43/43
f 48/48/48 47/47/47 46/46/46
f 49/49/49 48/48/48 46/46/46
f 52/52/52 51/51/51 50/50/50
f 53/53/53 52/52/52 50/50/50
f 56/56/56 55/55/55 54/54/54
f 57/57/57 56/56/56 54/54/54
f 60/60/60 59/59/59 58/58/58
f 61/61/61 60/60/60 58/58/58
f 64/64/64 63/63/63 62/62/62
f 65/65/65 64/64/64 62/62/62
f 65/65/65 62/62/62 66/66/66
f 67/67/67 65/65/65 66/66/66
f 70/70/70 69/69/69 68/68/68
f 71/71/71 70/70/70 68/68/68
f 72/72/72 70/70/70 71/71/71
f 73/73/73 72/72/72 71/71/71
f 76/76/76 75/75/75 74/74/74
f 75/75/75 77/77/77 74/74/74
f 74/74/74 77/77/77 78/78/78
f 77/77/77 79/79/79 78/78/78
f 82/82/82 81/81/81 80/80/80
f 83/83/83 82/82/82 80/80/80
f 84/84/84 82/82/82 83/83/83
f 85/85/85 84/84/84 83/83/83
f 88/88/88 87/87/87 86/86/86
f 89/89/89 88/88/88 86/86/86
f 92/92/92 91/91/91 90/90/90
f 93/93/93 92/92/92 90/90/90
f 96/96/96 95/95/95 94/94/94
f 97/97/97 96/96/96 94/94/94
f 100/100/100 99/99/99 98/98/98
f 101/101/101 100/100/100 98/98/98
f 104/104/104 103/103/103 102/102/102
f 105/105/105 104/104/104 102/102/102
f 108/108/108 107/107/107 106/106/106
f 107/107/107 109/109/109 106/106/106
f 106/106/106 109/109/109 110/110/110
f 109/109/109 111/111/111 110/110/110
f 114/114/114 113/113/113 112/112/112
f 115/115/115 114/114/114 112/112/112
f 116/116/116 114/114/114 115/115/115
f 117/117/117 116/116/116 115/115/115
f 120/120/120 119/119/119 118/118/118
f 121/121/121 120/120/120 118/118/118
f 121/121/121 118/118/118 122/122/122
f 123/123/123 121/121/121 122/122/122
f 126/126/126 125/125/125 124/124/124
f 127/127/127 126/126/126 124/124/124
f 128/128/128 126/126/126 127/127/127
f 129/129/129 128/128/128 127/127/127
f 132/132/132 131/131/131 130/130/130
f 131/131/131 133/133/133 130/130/130
f 131/131/131 134/134/134 133/133/133
f 134/134/134 135/135/135 133/133/133
f 138/138/138 137/137/137 136/136/136
f 139/139/139 138/138/138 136/136/136
f 139/139/139 136/136/136 140/140/140
f 141/141/141 139/139/139 140/140/140
f 144/144/144 143/143/143 142/142/142
f 145/145/145 144/144/144 142/142/142
f 145/145/145 142/142/142 146/146/146
f 147/147/147 145/145/145 146/146/146
f 150/150/150 149/149/149 148/148/148
f 149/149/149 151/151/151 148/148/148
f 149/149/149 152/152/152 151/151/151
f 152/152/152 153/153/153 151/151/151
f 156/156/156 155/155/155 154/154/154
f 157/157/157 156/156/156 154/154/154
f 160/160/160 159/159/159 158/158/158
f 161/161/161 158/158/158 159/159/159
f 164/164/164 163/163/163 162/162/162
f 165/165/165 162/162/162 163/163/163
f 168/168/168 167/167/167 166/166/166
f 169/169/169 166/166/166 167/167/167
f 172/172/172 171/171/171 170/170/170
f 173/173/173 170/170/170 171/171/171
f 176/176/176 175/175/175 174/174/174
f 175/175/175 177/177/177 174/174/174
f 177/177/177 178/178/178 174/174/174
f 181/181/181 180/180/180 179/179/179
f 182/182/182 181/181/181 179/179/179
f 183/183/183 182/182/182 179/179/179
f 186/186/186 185/185/185 184/184/184
f 184/184/184 185/185/185 187/187/187
f 185/185/185 188/188/188 187/187/187
f 188/188/188 189/189/189 187/187/187
f 187/187/187 189/189/189 190/190/190
f 187/187/187 190/190/190 184/184/184
f 189/189/189 188/188/188 191/191/191
f 189/189/189 191/191/191 190/190/190
f 190/190/190 191/191/191 192/192/192
f 193/193/193 191/191/191 188/188/188
f 191/191/191 193/193/193 194/194/194
f 192/192/192 191/191/191 194/194/194
f 193/193/193 195/195/195 194/194/194
f 195/195/195 196/196/196 194/194/194
f 197/197/197 194/194/194 196/196/196
f 194/194/194 197/197/197 192/192/192
f 197/197/197 196/196/196 198/198/198
f 198/198/198 192/192/192 197/197/197
f 199/199/199 198/198/198 196/196/196
f 199/199/199 200/200/200 198/198/198
f 192/192/192 198/198/198 200/200/200
f 199/199/199 201/201/201 200/200/200
f 184/184/184 190/190/190 202/202/202
f 184/184/184 202/202/202 203/203/203
f 184/184/184 203/203/203 204/204/204
f 204/204/204 203/203/203 205/205/205
f 190/190/190 192/192/192 206/206/206
f 190/190/190 206/206/206 202/202/202
f 192/192/192 200/200/200 207/207/207
f 207/207/207 206/206/206 192/192/192
f 202/202/202 206/206/206 208/208/208
f 208/208/208 203/203/203 202/202/202
f 206/206/206 207/207/207 208/208/208
f 208/208/208 207/207/207 209/209/209
f 200/200/200 210/210/210 207/207/207
f 200/200/200 201/201/201 210/210/210
f 207/207/207 210/210/210 211/211/211
f 211/211/211 209/209/209 207/207/207
f 209/209/209 211/211/211 212/212/212
f 209/209/209 212/212/212 213/213/213
f 213/213/213 214/214/214 209/209/209
f 213/213/213 215/215/215 214/214/214
f 216/216/216 208/208/208 209/209/209
f 203/203/203 208/208/208 216/216/216
f 216/216/216 209/209/209 217/217/217
f 217/217/217 203/203/203 216/216/216
f 209/209/209 214/214/214 217/217/217
f 203/203/203 217/217/217 218/218/218
f 203/203/203 218/218/218 205/205/205
f 219/219/219 218/218/218 217/217/217
f 214/214/214 219/219/219 217/217/217
f 218/218/218 219/219/219 220/220/220
f 218/218/218 220/220/220 205/205/205
f 205/205/205 220/220/220 221/221/221
f 222/222/222 205/205/205 221/221/221
f 222/222/222 223/223/223 205/205/205
f 219/219/219 224/224/224 220/220/220
f 219/219/219 214/214/214 224/224/224
f 220/220/220 224/224/224 225/225/225
f 226/226/226 224/224/224 214/214/214
f 225/225/225 224/224/224 226/226/226
f 226/226/226 214/214/214 227/227/227
f 227/227/227 214/214/214 215/215/215
f 225/225/225 226/226/226 228/228/228
f 225/225/225 228/228/228 229/229/229
f 228/228/228 230/230/230 229/229/229
f 230/230/230 228/228/228 231/231/231
f 226/226/226 231/231/231 228/228/228
f 232/232/232 231/231/231 226/226/226
f 232/232/232 226/226/226 227/227/227
f 201/201/201 232/232/232 227/227/227
f 215/215/215 201/201/201 227/227/227
f 215/215/215 233/233/233 201/201/201
f 233/233/233 210/210/210 201/201/201
f 233/233/233 215/215/215 234/234/234
f 234/234/234 210/210/210 233/233/233
f 237/237/237 236/236/236 235/235/235
f 235/235/235 238/238/238 237/237/237
f 239/239/239 237/237/237 238/238/238
f 239/239/239 240/240/240 237/237/237
f 237/237/237 240/240/240 241/241/241
f 241/241/241 242/242/242 237/237/237
f 241/241/241 240/240/240 243/243/243
f 244/244/244 243/243/243 240/240/240
f 240/240/240 245/245/245 244/244/244
f 240/240/240 239/239/239 245/245/245
f 244/244/244 245/245/245 246/246/246
f 244/244/244 246/246/246 247/247/247
f 246/246/246 245/245/245 248/248/248
f 249/249/249 245/245/245 239/239/239
f 250/250/250 249/249/249 239/239/239
f 239/239/239 251/251/251 250/250/250
f 254/254/254 253/253/253 252/252/252
f 253/253/253 254/254/254 255/255/255
f 258/258/258 257/257/257 256/256/256
f 259/259/259 256/256/256 257/257/257
f 257/257/257 260/260/260 259/259/259
f 261/261/261 260/260/260 257/257/257
f 261/261/261 257/257/257 262/262/262
f 263/263/263 262/262/262 257/257/257
f 261/261/261 262/262/262 264/264/264
f 264/264/264 265/265/265 261/261/261
f 266/266/266 261/261/261 265/265/265
f 260/260/260 261/261/261 266/266/266
f 266/266/266 265/265/265 267/267/267
f 267/267/267 265/265/265 268/268/268
f 266/266/266 267/267/267 269/269/269
f 266/266/266 270/270/270 260/260/260
f 270/270/270 271/271/271 260/260/260
f 272/272/272 260/260/260 271/271/271
f 275/275/275 274/274/274 273/273/273
f 274/274/274 275/275/275 276/276/276
f 279/279/279 278/278/278 277/277/277
f 278/278/278 280/280/280 277/277/277
f 280/280/280 278/278/278 281/281/281
f 282/282/282 280/280/280 281/281/281
f 285/285/285 284/284/284 283/283/283
f 286/286/286 283/283/283 284/284/284
f 289/289/289 288/288/288 287/287/287
f 287/287/287 290/290/290 289/289/289
f 291/291/291 289/289/289 290/290/290
f 289/289/289 291/291/291 292/292/292
f 291/291/291 293/293/293 292/292/292
f 294/294/294 292/292/292 293/293/293
f 297/297/297 296/296/296 295/295/295
f 297/297/297 298/298/298 296/296/296
f 296/296/296 298/298/298 299/299/299
f 298/298/298 300/300/300 299/299/299
f 300/300/300 298/298/298 301/301/301
f 298/298/298 302/302/302 301/301/301
f 298/298/298 297/297/297 302/302/302
f 297/297/297 303/303/303 302/302/302
f 303/303/303 304/304/304 302/302/302
f 303/303/303 305/305/305 304/304/304
f 306/306/306 305/305/305 303/303/303
f 309/309/309 308/308/308 307/307/307
f 310/310/310 308/308/308 309/309/309
f 310/310/310 309/309/309 311/311/311
f 310/310/310 311/311/311 312/312/312
f 311/311/311 313/313/313 312/312/312
f 311/311/311 314/314/314 313/313/313
f 315/315/315 312/312/312 313/313/313
f 316/316/316 315/315/315 313/313/313
f 312/312/312 315/315/315 317/317/317
f 312/312/312 318/318/318 310/310/310
f 310/310/310 318/318/318 319/319/319
f 312/312/312 317/317/317 320/320/320
f 312/312/312 320/320/320 318/318/318
f 317/317/317 321/321/321 320/320/320
f 318/318/318 320/320/320 322/322/322
f 320/320/320 321/321/321 322/322/322
f 318/318/318 322/322/322 323/323/323
f 318/318/318 323/323/323 324/324/324
f 321/321/321 325/325/325 322/322/322
f 321/321/321 326/326/326 325/325/325
f 322/322/322 325/325/325 327/327/327
f 327/327/327 325/325/325 328/328/328
f 329/329/329 323/323/323 322/322/322
f 327/327/327 329/329/329 322/322/322
f 330/330/330 323/323/323 329/329/329
f 330/330/330 331/331/331 323/323/323
f 331/331/331 330/330/330 332/332/332
f 327/327/327 333/333/333 329/329/329
f 327/327/327 334/334/334 333/333/333
f 327/327/327 328/328/328 335/335/335
f 327/327/327 335/335/335 334/334/334
f 328/328/328 336/336/336 335/335/335
f 335/335/335 336/336/336 337/337/337
f 337/337/337 338/338/338 335/335/335
f 338/338/338 334/334/334 335/335/335
f 338/338/338 339/339/339 334/334/334
f 338/338/338 340/340/340 339/339/339
f 340/340/340 341/341/341 339/339/339
f 341/341/341 342/342/342 339/339/339
f 345/345/345 344/344/344 343/343/343
f 346/346/346 343/343/343 344/344/344
f 344/344/344 347/347/347 346/346/346
f 347/347/347 344/344/344 348/348/348
f 347/347/347 348/348/348 349/349/349
f 352/352/352 351/351/351 350/350/350
f 353/353/353 350/350/350 351/351/351
f 354/354/354 353/353/353 351/351/351
f 354/354/354 355/355/355 353/353/353
f 354/354/354 356/356/356 355/355/355
f 359/359/359 358/358/358 357/357/357
f 360/360/360 359/359/359 357/357/357
f 357/357/357 361/361/361 360/360/360
f 359/359/359 360/360/360 362/362/362
f 359/359/359 362/362/362 363/363/363
f 362/362/362 360/360/360 364/364/364
f 361/361/361 364/364/364 360/360/360
f 364/364/364 361/361/361 365/365/365
f 364/364/364 366/366/366 362/362/362
f 364/364/364 365/365/365 366/366/366
f 367/367/367 365/365/365 361/361/361
f 365/365/365 368/368/368 366/366/366
f 365/365/365 369/369/369 368/368/368
f 370/370/370 365/365/365 367/367/367
f 365/365/365 371/371/371 369/369/369
f 370/370/370 371/371/371 365/365/365
f 370/370/370 372/372/372 371/371/371
f 375/375/375 374/374/374 373/373/373
f 374/374/374 375/375/375 376/376/376
f 377/377/377 376/376/376 375/375/375
f 377/377/377 375/375/375 378/378/378
f 377/377/377 378/378/378 379/379/379
f 380/380/380 379/379/379 378/378/378
f 383/383/383 382/382/382 381/381/381
f 384/384/384 381/381/381 382/382/382
f 385/385/385 381/381/381 384/384/384
f 385/385/385 386/386/386 381/381/381
f 386/386/386 385/385/385 387/387/387
f 390/390/390 389/389/389 388/388/388
f 391/391/391 388/388/388 389/389/389
f 391/391/391 392/392/392 388/388/388
f 393/393/393 392/392/392 391/391/391
f 394/394/394 392/392/392 393/393/393
f 397/397/397 396/396/396 395/395/395
f 396/396/396 398/398/398 395/395/395
f 398/398/398 399/399/399 395/395/395
f 396/396/396 400/400/400 398/398/398
f 398/398/398 401/401/401 399/399/399
f 401/401/401 398/398/398 402/402/402
f 400/400/400 403/403/403 398/398/398
f 398/398/398 404/404/404 402/402/402
f 404/404/404 398/398/398 403/403/403
f 402/402/402 404/404/404 405/405/405
f 404/404/404 403/403/403 406/406/406
f 404/404/404 406/406/406 405/405/405
f 403/403/403 407/407/407 406/406/406
f 405/405/405 406/406/406 408/408/408
f 408/408/408 406/406/406 407/407/407
f 405/405/405 408/408/408 409/409/409
f 410/410/410 408/408/408 407/407/407
f 413/413/413 412/412/412 411/411/411
f 412/412/412 414/414/414 411/411/411
f 417/417/417 416/416/416 415/415/415
f 418/418/418 415/415/415 416/416/416
f 415/415/415 418/418/418 419/419/419
f 420/420/420 419/419/419 418/418/418
f 423/423/423 422/422/422 421/421/421
f 423/423/423 424/424/424 422/422/422
f 427/427/427 426/426/426 425/425/425
f 428/428/428 425/425/425 426/426/426
f 428/428/428 426/426/426 429/429/429
f 429/429/429 426/426/426 430/430/430
f 426/426/426 431/431/431 430/430/430
f 434/434/434 433/433/433 432/432/432
f 434/434/434 432/432/432 435/435/435
f 435/435/435 432/432/432 436/436/436
f 439/439/439 438/438/438 437/437/437
f 437/437/437 438/438/438 440/440/440
f 437/437/437 440/440/440 441/441/441
f 444/444/444 443/443/443 442/442/442
f 445/445/445 443/443/443 444/444/444
f 446/446/446 443/443/443 445/445/445
f 447/447/447 446/446/446 445/445/445
f 446/446/446 447/447/447 448/448/448
f 444/444/444 449/449/449 445/445/445
f 447/447/447 445/445/445 449/449/449
f 448/448/448 447/447/447 450/450/450
f 447/447/447 449/449/449 450/450/450
f 448/448/448 450/450/450 451/451/451
f 444/444/444 452/452/452 449/449/449
f 450/450/450 449/449/449 452/452/452
f 450/450/450 452/452/452 451/451/451
f 453/453/453 452/452/452 444/444/444
f 453/453/453 451/451/451 452/452/452
f 456/456/456 455/455/455 454/454/454
f 457/457/457 455/455/455 456/456/456
f 458/458/458 455/455/455 457/457/457
f 458/458/458 457/457/457 459/459/459
f 458/458/458 459/459/459 460/460/460
f 461/461/461 457/457/457 456/456/456
f 461/461/461 459/459/459 457/457/457
f 462/462/462 460/460/460 459/459/459
f 461/461/461 462/462/462 459/459/459
f 460/460/460 462/462/462 463/463/463
f 464/464/464 461/461/461 456/456/456
f 462/462/462 461/461/461 464/464/464
f 462/462/462 464/464/464 463/463/463
f 464/464/464 456/456/456 465/465/465
f 464/464/464 465/465/465 463/463/463
f 468/468/468 467/467/467 466/466/466
f 466/466/466 469/469/469 468/468/468
f 469/469/469 466/466/466 470/470/470
f 470/470/470 471/471/471 469/469/469
f 471/471/471 470/470/470 472/472/472
f 472/472/472 473/473/473 471/471/471
f 474/474/474 473/473/473 472/472/472
f 472/472/472 475/475/475 474/474/474
f 478/478/478 477/477/477 476/476/476
f 477/477/477 479/479/479 476/476/476
f 479/479/479 480/480/480 476/476/476
f 479/479/479 481/481/481 480/480/480
f 482/482/482 480/480/480 481/481/481
f 482/482/482 481/481/481 483/483/483
f 482/482/482 484/484/484 480/480/480
f 482/482/482 483/483/483 485/485/485
f 483/483/483 486/486/486 485/485/485
f 486/486/486 487/487/487 485/485/485
f 488/488/488 485/485/485 487/487/487
f 482/482/482 485/485/485 488/488/488
f 489/489/489 488/488/488 487/487/487
f 482/482/482 490/490/490 484/484/484
f 482/482/482 488/488/488 490/490/490
f 489/489/489 490/490/490 488/488/488
f 491/491/491 484/484/484 490/490/490
f 490/490/490 489/489/489 492/492/492
f 491/491/491 490/490/490 493/493/493
f 490/490/490 492/492/492 493/493/493
f 496/496/496 495/495/495 494/494/494
f 497/497/497 495/495/495 496/496/496
f 497/497/497 498/498/498 495/495/495
f 499/499/499 495/495/495 498/498/498
f 500/500/500 495/495/495 499/499/499
f 503/503/503 502/502/502 501/501/501
f 504/504/504 503/503/503 501/501/501
f 504/504/504 501/501/501 505/505/505
f 506/506/506 505/505/505 501/501/501
f 507/507/507 506/506/506 501/501/501
f 510/510/510 509/509/509 508/508/508
f 510/510/510 511/511/511 509/509/509
f 511/511/511 510/510/510 512/512/512
f 511/511/511 512/512/512 513/513/513
f 513/513/513 512/512/512 514/514/514
f 512/512/512 515/515/515 514/514/514
f 516/516/516 513/513/513 514/514/514
f 517/517/517 514/514/514 515/515/515
f 515/515/515 518/518/518 517/517/517
f 517/517/517 518/518/518 519/519/519
f 519/519/519 520/520/520 517/517/517
f 517/517/517 520/520/520 521/521/521
f 522/522/522 517/517/517 521/521/521
f 517/517/517 522/522/522 514/514/514
f 521/521/521 523/523/523 522/522/522
f 516/516/516 514/514/514 524/524/524
f 522/522/522 524/524/524 514/514/514
f 524/524/524 522/522/522 523/523/523
f 525/525/525 516/516/516 524/524/524
f 523/523/523 525/525/525 524/524/524
f 528/528/528 527/527/527 526/526/526
f 529/529/529 526/526/526 527/527/527
f 526/526/526 529/529/529 530/530/530
f 531/531/531 530/530/530 529/529/529
f 530/530/530 531/531/531 532/532/532
f 533/533/533 532/532/532 531/531/531
f 533/533/533 534/534/534 532/532/532
f 535/535/535 532/532/532 534/534/534
f 538/538/538 537/537/537 536/536/536
f 537/537/537 539/539/539 536/536/536
f 539/539/539 540/540/540 536/536/536
f 541/541/541 536/536/536 540/540/540
f 542/542/542 538/538/538 536/536/536
f 536/536/536 541/541/541 543/543/543
f 543/543/543 544/544/544 536/536/536
f 545/545/545 544/544/544 543/543/543
f 546/546/546 544/544/544 545/545/545
f 544/544/544 546/546/546 547/547/547
f 542/542/542 536/536/536 548/548/548
f 548/548/548 536/536/536 544/544/544
f 549/549/549 542/542/542 548/548/548
f 549/549/549 548/548/548 550/550/550
f 551/551/551 550/550/550 548/548/548
f 548/548/548 552/552/552 551/551/551
f 552/552/552 548/548/548 544/544/544
f 552/552/552 553/553/553 551/551/551
f 554/554/554 553/553/553 552/552/552
f 555/555/555 554/554/554 552/552/552
f 555/555/555 556/556/556 547/547/547
f 547/547/547 556/556/556 544/544/544
f 552/552/552 556/556/556 555/555/555
f 552/552/552 544/544/544 556/556/556
f 559/559/559 558/558/558 557/557/557
f 560/560/560 559/559/559 557/557/557
f 561/561/561 560/560/560 557/557/557
f 557/557/557 562/562/562 561/561/561
f 558/558/558 563/563/563 557/557/557
f 562/562/562 557/557/557 564/564/564
f 565/565/565 564/564/564 557/557/557
f 565/565/565 566/566/566 564/564/564
f 565/565/565 567/567/567 566/566/566
f 567/567/567 565/565/565 568/568/568
f 557/557/557 563/563/563 569/569/569
f 557/557/557 569/569/569 565/565/565
f 563/563/563 570/570/570 569/569/569
f 569/569/569 570/570/570 571/571/571
f 571/571/571 572/572/572 569/569/569
f 573/573/573 569/569/569 572/572/572
f 569/569/569 573/573/573 565/565/565
f 574/574/574 573/573/573 572/572/572
f 574/574/574 575/575/575 573/573/573
f 575/575/575 576/576/576 573/573/573
f 577/577/577 576/576/576 568/568/568
f 577/577/577 568/568/568 565/565/565
f 577/577/577 573/573/573 576/576/576
f 565/565/565 573/573/573 577/577/577
f 580/580/580 579/579/579 578/578/578
f 581/581/581 580/580/580 578/578/578
f 582/582/582 579/579/579 580/580/580
f 580/580/580 581/581/581 583/583/583
f 584/584/584 583/583/583 581/581/581
f 583/583/583 584/584/584 585/585/585
f 586/586/586 583/583/583 585/585/585
f 587/587/587 583/583/583 586/586/586
f 583/583/583 588/588/588 580/580/580
f 587/587/587 588/588/588 583/583/583
f 588/588/588 582/582/582 580/580/580
f 589/589/589 588/588/588 587/587/587
f 588/588/588 590/590/590 582/582/582
f 589/589/589 590/590/590 588/588/588
f 590/590/590 591/591/591 582/582/582
f 590/590/590 589/589/589 592/592/592
f 591/591/591 590/590/590 593/593/593
f 594/594/594 590/590/590 592/592/592
f 594/594/594 593/593/593 590/590/590
f 592/592/592 595/595/595 594/594/594
f 595/595/595 596/596/596 594/594/594
f 593/593/593 594/594/594 597/597/597
f 596/596/596 597/597/597 594/594/594
f 593/593/593 597/597/597 598/598/598
f 596/596/596 599/599/599 597/597/597
f 597/597/597 600/600/600 598/598/598
f 600/600/600 597/597/597 599/599/599
f 603/603/603 602/602/602 601/601/601
f 604/604/604 602/602/602 603/603/603
f 601/601/601 605/605/605 603/603/603
f 604/604/604 603/603/603 606/606/606
f 603/603/603 605/605/605 607/607/607
f 603/603/603 607/607/607 606/606/606
f 605/605/605 608/608/608 607/607/607
f 609/609/609 607/607/607 608/608/608
f 606/606/606 607/607/607 610/610/610
f 609/609/609 610/610/610 607/607/607
f 606/606/606 610/610/610 611/611/611
f 609/609/609 612/612/612 610/610/610
f 610/610/610 613/613/613 611/611/611
f 610/610/610 612/612/612 614/614/614
f 610/610/610 614/614/614 613/613/613
f 614/614/614 612/612/612 615/615/615
f 613/613/613 614/614/614 616/616/616
f 617/617/617 613/613/613 616/616/616
f 617/617/617 616/616/616 618/618/618
f 618/618/618 616/616/616 619/619/619
f 614/614/614 615/615/615 620/620/620
f 614/614/614 620/620/620 616/616/616
f 619/619/619 616/616/616 620/620/620
f 620/620/620 615/615/615 621/621/621
f 620/620/620 622/622/622 619/619/619
f 620/620/620 621/621/621 623/623/623
f 622/622/622 620/620/620 623/623/623
