g A_soldier_bubing03_wep
v -0.0612248443 1.69744682 0.192179978
v -0.0559126809 1.70302522 0.178308085
v -0.111689657 1.75614011 0.178308085
v -0.111940742 1.74574113 0.192179978
v -0.116673313 1.76088572 0.206051886
v -0.0559126809 1.70302522 0.206051886
v -0.0439611077 1.7155757 0.206051886
v -0.127047658 1.76012778 0.171317935
v -0.127047658 1.76012778 0.14605546
v -0.111689657 1.75614011 0.146055624
v -0.13178046 1.75515747 0.144055456
v -0.109779812 1.7494452 0.144055605
v -0.109779812 1.7494452 0.00525595667
v -0.13178201 1.77527237 0.146055549
v -0.138562143 1.77685285 0.14405553
v -0.13178058 1.75515759 0.00525578018
v -0.13178201 1.77527237 0.185189828
v -0.127047658 1.76012778 0.00325578195
v -0.111689657 1.75614011 0.00325595378
v -0.127047658 1.76012778 -0.0220066551
v -0.111689657 1.75614011 -0.0289965905
v -0.138562217 1.77685308 0.00525585655
v -0.121740103 1.79451776 0.14405553
v -0.119830251 1.7878232 0.146055549
v -0.119830251 1.7878232 0.185189828
v -0.13178201 1.77527237 0.00325585366
v -0.13178201 1.77527237 -0.0358784571
v -0.104721747 1.77343619 0.206051886
v -0.0893637463 1.76944864 0.192179978
v -0.0386490114 1.72115433 0.192179978
v -0.099738583 1.76869071 0.178308085
v -0.0439611077 1.7155757 0.178308085
v -0.0559126809 1.70302522 0.178308085
v -0.111689657 1.75614011 0.178308085
v -0.111689657 1.75614011 0.146055624
v -0.104471885 1.78383505 0.171317935
v -0.104471885 1.78383505 0.14605546
v -0.099738583 1.76869071 0.146055624
v -0.109779812 1.7494452 0.144055605
v -0.0997390151 1.78880501 0.144055456
v -0.0929583907 1.76711023 0.144055605
v -0.121739917 1.79451811 0.00525585655
v -0.0929584503 1.76711035 0.00525595667
v -0.109779812 1.7494452 0.00525595667
v -0.111689657 1.75614011 0.00325595378
v -0.0997390151 1.78880501 0.00525578018
v -0.099738583 1.76869071 0.00325595378
v -0.111689657 1.75614011 -0.0289965905
v -0.119830251 1.7878232 0.00325585366
v -0.104471885 1.78383505 0.00325578684
v -0.099738583 1.76869071 -0.0289965905
v -0.0559126809 1.70302522 -0.0289965905
v -0.0439611077 1.7155757 -0.0289965905
v -0.119830251 1.7878232 -0.0358784571
v -0.104471885 1.78383505 -0.0220066551
v -0.0893642306 1.76944816 -0.0428685471
v -0.0386490114 1.72115433 -0.0428685471
v -0.104721986 1.77343619 -0.0567404367
v -0.0439611077 1.7155757 -0.0567404367
v -0.116673678 1.76088572 -0.0567404367
v -0.0559126809 1.70302522 -0.0567404367
v -0.111940503 1.74574113 -0.0428685471
v -0.0612248443 1.69744682 -0.0428685471
v -0.0559126809 1.70302522 -0.0289965905
v -0.074674733 1.5002023 0.277414829
v -8.79376536E-19 1.4801935 0.391864032
v -0 1.4801935 0.277414829
v -0.074674733 1.5002023 0.391864032
v -0.12934041 1.55486858 0.277414829
v -0.12934041 1.55486858 0.391864032
v -0.149349466 1.62954271 0.277414829
v -0.149349466 1.62954271 0.391864032
v -0.12934041 1.70421767 0.277414829
v -0.12934041 1.70421767 0.391864032
v -0.074674733 1.758883 0.277414829
v -0.074674733 1.758883 0.391864032
v 2.77675466E-17 1.77889276 0.277414829
v 2.77675466E-17 1.77889276 0.391864032
v 0.074674733 1.758883 0.277414829
v 0.074674733 1.758883 0.391864032
v 0.12934041 1.70421767 0.277414829
v 0.12934041 1.70421767 0.391864032
v 0.149349466 1.62954271 0.277414829
v 0.149349466 1.62954271 0.391864032
v 0.12934041 1.55486858 0.277414829
v 0.12934041 1.55486858 0.391864032
v 0.074674733 1.5002023 0.277414829
v 0.074674733 1.5002023 0.391864032
v -0 1.4801935 0.277414829
v -8.79376536E-19 1.4801935 0.391864032
v -0.074674733 1.758883 0.391864032
v 2.77675466E-17 1.77889276 0.391864032
v 0.074674733 1.758883 0.391864032
v -0.12934041 1.70421767 0.391864032
v 0.12934041 1.70421767 0.391864032
v -0.149349466 1.62954271 0.391864032
v 0.149349466 1.62954271 0.391864032
v 0.12934041 1.55486858 0.391864032
v -0.12934041 1.55486858 0.391864032
v -0.074674733 1.5002023 0.391864032
v 0.074674733 1.5002023 0.391864032
v -8.79376536E-19 1.4801935 0.391864032
v -0.074674733 1.50351524 -0.23806417
v -0 1.48350585 -0.128919259
v -0 1.48350585 -0.23806417
v -0.074674733 1.50351524 -0.128919259
v -0.12934041 1.55818093 -0.23806417
v -0.12934041 1.55818093 -0.128919259
v -0.149349466 1.63285506 -0.23806417
v -0.149349466 1.63285506 -0.128919259
v -0.12934041 1.70753002 -0.23806417
v -0.12934041 1.70753002 -0.128919259
v -0.074674733 1.76219535 -0.23806417
v -0.074674733 1.76219535 -0.128919259
v -0 1.7822051 -0.23806417
v -0 1.7822051 -0.128919259
v 0.074674733 1.76219535 -0.23806417
v 0.074674733 1.76219535 -0.128919259
v 0.12934041 1.70753002 -0.23806417
v 0.12934041 1.70753002 -0.128919259
v 0.149349466 1.63285506 -0.23806417
v 0.149349466 1.63285506 -0.128919259
v 0.12934041 1.55818093 -0.23806417
v 0.12934041 1.55818093 -0.128919259
v 0.074674733 1.50351524 -0.23806417
v 0.074674733 1.50351524 -0.128919259
v -0 1.48350585 -0.23806417
v -0 1.48350585 -0.128919259
v -0.074674733 1.50351524 -0.23806417
v -0 1.48350585 -0.23806417
v 0.074674733 1.50351524 -0.23806417
v 0.12934041 1.55818093 -0.23806417
v -0.12934041 1.55818093 -0.23806417
v -0.149349466 1.63285506 -0.23806417
v 0.149349466 1.63285506 -0.23806417
v -0.12934041 1.70753002 -0.23806417
v 0.12934041 1.70753002 -0.23806417
v 0.074674733 1.76219535 -0.23806417
v -0.074674733 1.76219535 -0.23806417
v -0 1.7822051 -0.23806417
v -0.0633585975 1.51980281 -0.189726353
v -0 1.50282586 0.283745229
v -0 1.50282586 -0.189726353
v -0.0633585975 1.51980281 0.283745229
v -0.109740302 1.56618464 -0.189726353
v -0.109740302 1.56618464 0.283745229
v -0.126717195 1.6295433 -0.189726353
v -0.126717195 1.6295433 0.283745229
v -0.109740302 1.69290185 -0.189726353
v -0.109740302 1.69290185 0.283745229
v -0.0633585975 1.73928356 -0.189726353
v -0.0633585975 1.73928356 0.283745229
v -0 1.75626051 -0.189726353
v -0 1.75626051 0.283745229
v 0.0633585975 1.73928356 -0.189726353
v 0.0633585975 1.73928356 0.283745229
v 0.109740302 1.69290185 -0.189726353
v 0.109740302 1.69290185 0.283745229
v 0.126717195 1.6295433 -0.189726353
v 0.126717195 1.6295433 0.283745229
v 0.109740302 1.56618464 -0.189726353
v 0.109740302 1.56618464 0.283745229
v 0.0633585975 1.51980281 -0.189726353
v 0.0633585975 1.51980281 0.283745229
v -0 1.50282586 -0.189726353
v -0 1.50282586 0.283745229
v -0.0445973873 1.71477628 -0.188470572
v 0.0445973873 1.71477628 -0.369192511
v 0.0445973873 1.71477628 -0.188470572
v -0.0445973873 1.71477628 -0.369192451
v 0.0445973873 1.75530457 -0.4077667
v -0.0445973873 1.75530457 -0.4077667
v 0.0445973873 1.75086999 -0.432898819
v -0.0445973873 1.75086999 -0.432898819
v 0.0445973873 1.57913721 -0.437333375
v -0.0445973873 1.57913721 -0.437333375
v -0.0445973873 1.54213083 -0.413003951
v 0.0445973873 1.54213083 -0.413003951
v 0.0445973873 1.53144348 -0.369192511
v -0.0445973873 1.53144348 -0.369192511
v 0.0445973873 1.53144348 -0.188470572
v -0.0445973873 1.53144348 -0.188470572
v 0.0445973873 1.53144348 -0.188470572
v 0.0445973873 1.71477628 -0.188470572
v 0.0445973873 1.71477628 -0.369192511
v 0.0445973873 1.53144348 -0.369192511
v 0.0445973873 1.54213083 -0.413003951
v 0.0445973873 1.57913721 -0.437333375
v 0.0445973873 1.75086999 -0.432898819
v 0.0445973873 1.75530457 -0.4077667
v -0.0445973873 1.53144348 -0.369192511
v -0.0445973873 1.71477628 -0.188470572
v -0.0445973873 1.53144348 -0.188470572
v -0.0445973873 1.71477628 -0.369192451
v -0.0445973873 1.54213083 -0.413003951
v -0.0445973873 1.57913721 -0.437333375
v -0.0445973873 1.75086999 -0.432898819
v -0.0445973873 1.75530457 -0.4077667
v -0.0289651249 1.53948569 0.345531106
v 6.76960353E-18 1.52604306 0.498403817
v -0 1.52604306 0.345531106
v -0.0289651249 1.53948569 0.498403817
v -0.0424078777 1.56845057 0.345531106
v 1.02421801E-17 1.51128137 0.507226646
v -0.0424078777 1.56845057 0.498403817
v -0.0289651249 1.59741545 0.345531106
v -0.0390474647 1.52940309 0.507226646
v -3.65783341E-11 1.49963248 0.62518543
v -0.0470035821 1.52144682 0.62518543
v -0.0571694486 1.56845057 0.507226646
v -0.0688180178 1.56845057 0.62518543
v -0.0289651249 1.59741545 0.498403817
v -0 1.61085808 0.345531106
v -0.0390474647 1.60749817 0.507226646
v -0.0470035821 1.61545432 0.62518543
v -0 1.61085808 0.498403817
v 0.0289651249 1.59741545 0.345531106
v 6.62801892E-17 1.62561977 0.507226646
v -3.65782994E-11 1.63726878 0.62518543
v 0.0289651249 1.59741545 0.498403817
v 0.0424078777 1.56845057 0.345531106
v 0.0390474647 1.60749817 0.507226646
v 0.0470035821 1.61545432 0.62518543
v 0.0424078777 1.56845057 0.498403817
v 0.0289651249 1.53948569 0.345531106
v 0.0571694486 1.56845057 0.507226646
v 0.0688180253 1.56845057 0.62518543
v 0.0289651249 1.53948569 0.498403817
v -0 1.52604306 0.345531106
v 6.76960353E-18 1.52604306 0.498403817
v 0.0390474647 1.52940309 0.507226646
v 0.0470035821 1.52144682 0.62518543
v 1.02421801E-17 1.51128137 0.507226646
v -3.65783341E-11 1.49963248 0.62518543
v -0.0470035821 1.52144682 0.62518543
v -1.04872755E-09 1.52301943 0.628584862
v -3.65783341E-11 1.49963248 0.62518543
v -0.0227157436 1.52910578 0.628584862
v -0.0393448211 1.54573488 0.628584862
v -0.0688180178 1.56845057 0.62518543
v -0.0454314798 1.56845057 0.628584862
v -0.0470035821 1.61545432 0.62518543
v -0.0393448211 1.59116638 0.628584862
v -0.0227157399 1.60779572 0.628584862
v -3.65782994E-11 1.63726878 0.62518543
v -1.04872755E-09 1.61388195 0.628584862
v 0.0470035821 1.61545432 0.62518543
v 0.0227157325 1.60779572 0.628584862
v 0.0393448099 1.59116638 0.628584862
v 0.0688180253 1.56845057 0.62518543
v 0.0454314835 1.56845057 0.628584862
v 0.0470035821 1.52144682 0.62518543
v 0.0393448025 1.54573488 0.628584862
v 0.0227157418 1.52910578 0.628584862
v -3.65783341E-11 1.49963248 0.62518543
v -1.04872755E-09 1.52301943 0.628584862
v -1.04872755E-09 1.52301943 0.628584862
v 0.0393448025 1.54573488 0.628584862
v 0.0227157418 1.52910578 0.628584862
v -6.48960108E-10 1.54163599 0.603895068
v -7.31566474E-11 1.56845057 0.568333209
v -0.0227157436 1.52910578 0.628584862
v -0.0393448211 1.54573488 0.628584862
v 0.0454314835 1.56845057 0.628584862
v -0.0454314798 1.56845057 0.628584862
v 0.0393448099 1.59116638 0.628584862
v -0.0393448211 1.59116638 0.628584862
v -4.73243167E-10 1.58708215 0.593042731
v 0.0227157325 1.60779572 0.628584862
v -0.0227157399 1.60779572 0.628584862
v -1.04872755E-09 1.61388195 0.628584862
v 0.074674733 1.758883 0.277414829
v -0 1.62954271 0.277414829
v 0.12934041 1.70421767 0.277414829
v 2.77675466E-17 1.77889276 0.277414829
v 0.149349466 1.62954271 0.277414829
v -0.074674733 1.758883 0.277414829
v 0.12934041 1.55486858 0.277414829
v -0.12934041 1.70421767 0.277414829
v 0.074674733 1.5002023 0.277414829
v -0.149349466 1.62954271 0.277414829
v -0 1.4801935 0.277414829
v -0.12934041 1.55486858 0.277414829
v -0.074674733 1.5002023 0.277414829
v 0.12934041 1.70753002 -0.128919259
v -2.96059604E-18 1.63285506 -0.128919259
v 0.074674733 1.76219535 -0.128919259
v 0.149349466 1.63285506 -0.128919259
v -0 1.7822051 -0.128919259
v 0.12934041 1.55818093 -0.128919259
v -0.074674733 1.76219535 -0.128919259
v 0.074674733 1.50351524 -0.128919259
v -0.12934041 1.70753002 -0.128919259
v -0 1.48350585 -0.128919259
v -0.149349466 1.63285506 -0.128919259
v -0.074674733 1.50351524 -0.128919259
v -0.12934041 1.55818093 -0.128919259
vt 0.273604602 0.475408196
vt 0.273604602 0.484199345
vt 0.315892339 0.481144637
vt 0.309911251 0.473617494
vt 0.314916193 0.465120405
vt 0.273604602 0.46651727
vt 0.273604602 0.456579655
vt 0.325235695 0.475273252
vt 0.338484764 0.478643239
vt 0.338484764 0.487776369
vt 0.342292219 0.480000436
vt 0.342292219 0.491840988
vt 0.415256888 0.491294205
vt 0.338484764 0.468115628
vt 0.342292219 0.468566716
vt 0.415256888 0.479863286
vt 0.32211107 0.465705276
vt 0.419083238 0.478474677
vt 0.419083238 0.487462163
vt 0.432438374 0.475047171
vt 0.441744238 0.480891019
vt 0.415256888 0.468550861
vt 0.342292219 0.456395715
vt 0.338484764 0.456376791
vt 0.322240949 0.45654428
vt 0.419083238 0.468055427
vt 0.435559779 0.465342075
vt 0.315051377 0.45631057
vt 0.310292125 0.44800663
vt 0.273604602 0.447770685
vt 0.316711068 0.440276504
vt 0.273604602 0.439028829
vt 0.273604602 0.429790884
vt 0.316315651 0.431058586
vt 0.338484764 0.425793737
vt 0.325670063 0.447135061
vt 0.338484764 0.445692241
vt 0.338484764 0.43537879
vt 0.342292219 0.421920329
vt 0.342292219 0.445250034
vt 0.342292219 0.434097201
vt 0.415256888 0.456395596
vt 0.415256888 0.433933169
vt 0.415256888 0.421335787
vt 0.419083238 0.425507426
vt 0.415256888 0.445192397
vt 0.419083238 0.435147792
vt 0.441382498 0.430563271
vt 0.419083238 0.456383556
vt 0.419083238 0.445604771
vt 0.440977275 0.439936757
vt 0.484125108 0.429628819
vt 0.484125108 0.438867837
vt 0.435428202 0.45615685
vt 0.431983978 0.446934909
vt 0.447411418 0.447697818
vt 0.484125108 0.447638601
vt 0.442631662 0.456045657
vt 0.484125108 0.456475973
vt 0.442754537 0.464881778
vt 0.484125108 0.466446459
vt 0.447752267 0.473372996
vt 0.484125108 0.475343168
vt 0.484125108 0.484126091
vt 0.444473922 0.954323471
vt 0.346431285 0.978522778
vt 0.444473922 0.978522837
vt 0.346431285 0.954323471
vt 0.444473922 0.930124283
vt 0.346431285 0.930124283
vt 0.444473922 0.905925155
vt 0.346431285 0.905925035
vt 0.444473922 0.881725848
vt 0.346431285 0.881725848
vt 0.444473922 0.85752666
vt 0.346431285 0.857526541
vt 0.444473922 0.833327293
vt 0.346431285 0.833327293
vt 0.444473922 0.809128106
vt 0.346431285 0.809128046
vt 0.444473922 0.784928799
vt 0.346431285 0.784928799
vt 0.444473922 0.760729611
vt 0.346431285 0.760729551
vt 0.444473922 0.736530304
vt 0.346431285 0.736530304
vt 0.444473922 0.712331116
vt 0.346431285 0.712331116
vt 0.444473922 0.688131928
vt 0.346431285 0.688131869
vt 0.507618964 0.797026157
vt 0.546348691 0.807403982
vt 0.58507818 0.797026098
vt 0.479266822 0.768674195
vt 0.613430321 0.768674016
vt 0.468889236 0.729944527
vt 0.623807907 0.729944289
vt 0.613430321 0.691214979
vt 0.479266822 0.691215158
vt 0.507618845 0.662862778
vt 0.58507818 0.662862659
vt 0.546348453 0.652485132
vt 0.321660668 0.951803207
vt 0.228161871 0.976002574
vt 0.321660668 0.976002574
vt 0.228161991 0.951803207
vt 0.321660668 0.92760402
vt 0.228161991 0.92760402
vt 0.321660668 0.903404951
vt 0.228161991 0.903404951
vt 0.321660668 0.879205585
vt 0.228161991 0.879205585
vt 0.321660668 0.855006337
vt 0.228161871 0.855006337
vt 0.321660668 0.830807149
vt 0.228161991 0.830807149
vt 0.321660668 0.806607783
vt 0.228161991 0.806607783
vt 0.321660668 0.782408535
vt 0.228161991 0.782408535
vt 0.321660668 0.758209288
vt 0.228161871 0.758209288
vt 0.321660668 0.734010279
vt 0.228161871 0.734010279
vt 0.321660668 0.709810972
vt 0.228161991 0.709810972
vt 0.321660668 0.685611665
vt 0.228161991 0.685611665
vt 0.761923909 0.830565453
vt 0.723255157 0.8202039
vt 0.684586585 0.830565453
vt 0.656278849 0.858872831
vt 0.790231466 0.858872831
vt 0.800592959 0.897541583
vt 0.645917535 0.897541583
vt 0.790231466 0.936210275
vt 0.656278849 0.936210275
vt 0.684586585 0.964517713
vt 0.761923909 0.964517713
vt 0.723255157 0.974879205
vt 0.202737018 0.931765437
vt 0.0233601108 0.978191495
vt 0.202737018 0.978191495
vt 0.0233601108 0.931765437
vt 0.202737018 0.885339141
vt 0.0233601108 0.885339141
vt 0.202737018 0.838912904
vt 0.0233599618 0.838912904
vt 0.202737018 0.792486668
vt 0.0233601108 0.792486668
vt 0.202737018 0.74606055
vt 0.0233601108 0.746060491
vt 0.202737018 0.699634373
vt 0.0233601108 0.699634373
vt 0.202737018 0.653208196
vt 0.0233601108 0.653208196
vt 0.202737018 0.606782019
vt 0.0233601108 0.606782079
vt 0.202737018 0.560355902
vt 0.0233601108 0.560355902
vt 0.202737018 0.513929725
vt 0.0233601108 0.513929725
vt 0.202737018 0.467503428
vt 0.0233601108 0.467503488
vt 0.202737018 0.421077281
vt 0.0233599618 0.421077341
vt 0.94494158 0.747199833
vt 0.898753822 0.653616607
vt 0.898753703 0.747199774
vt 0.94494158 0.653616607
vt 0.898753822 0.624643445
vt 0.94494158 0.624643564
vt 0.898753762 0.610678077
vt 0.94494158 0.610678136
vt 0.898753941 0.520798504
vt 0.94494158 0.520798624
vt 0.94494158 0.496863931
vt 0.898753941 0.496863902
vt 0.898753941 0.472964227
vt 0.944941819 0.472964287
vt 0.898754179 0.379381061
vt 0.944941819 0.37938112
vt 0.654098988 0.527210772
vt 0.652931631 0.622138739
vt 0.746507525 0.623289585
vt 0.747675121 0.528361559
vt 0.770292401 0.534174323
vt 0.782653928 0.553490877
vt 0.779264331 0.642384171
vt 0.766222954 0.644520283
vt 0.696750402 0.666294992
vt 0.789794624 0.761758447
vt 0.79033196 0.666824698
vt 0.696212828 0.761228859
vt 0.674032509 0.671700716
vt 0.661325574 0.690792143
vt 0.663118601 0.779732049
vt 0.676119447 0.782102168
vt 0.41680181 0.531208932
vt 0.443817198 0.597256899
vt 0.443817198 0.531208932
vt 0.41680181 0.597256899
vt 0.390562922 0.531208932
vt 0.443817198 0.607090056
vt 0.390562922 0.597256899
vt 0.363187283 0.531208932
vt 0.41680181 0.607090056
vt 0.443817198 0.643580556
vt 0.41680181 0.643580556
vt 0.390562922 0.607090056
vt 0.390562922 0.643580556
vt 0.363187283 0.597256899
vt 0.335181177 0.531208932
vt 0.363187283 0.607090056
vt 0.363187283 0.643580556
vt 0.335181177 0.597256899
vt 0.307459891 0.531208932
vt 0.335181177 0.607090056
vt 0.335181177 0.643580556
vt 0.307459891 0.597256899
vt 0.280606836 0.531208932
vt 0.307459891 0.607090056
vt 0.307459891 0.643580556
vt 0.280606836 0.597256899
vt 0.254587829 0.531208932
vt 0.280606836 0.607090056
vt 0.280606836 0.643580556
vt 0.254587829 0.597256899
vt 0.227282554 0.531208932
vt 0.227282554 0.597256899
vt 0.254587829 0.607090056
vt 0.254587829 0.643580556
vt 0.227282554 0.607090056
vt 0.227282554 0.643580556
vt 0.41680181 0.645516157
vt 0.443817198 0.658017039
vt 0.443817198 0.645516157
vt 0.425504267 0.658017039
vt 0.408099383 0.658017039
vt 0.390562922 0.645516157
vt 0.390562922 0.658017039
vt 0.363187283 0.645516157
vt 0.372476697 0.658017039
vt 0.35389787 0.658017039
vt 0.335181177 0.645516157
vt 0.335181177 0.658017039
vt 0.307459891 0.645516157
vt 0.316591769 0.658017039
vt 0.298327982 0.658017039
vt 0.280606836 0.645516157
vt 0.280606836 0.658017039
vt 0.254587829 0.645516157
vt 0.263351977 0.658017039
vt 0.245823652 0.658017039
vt 0.227282554 0.645516157
vt 0.227282554 0.658017039
vt 0.55348438 0.585527062
vt 0.561442673 0.615227997
vt 0.561442912 0.599311233
vt 0.544574738 0.594436705
vt 0.531741738 0.607269645
vt 0.53970015 0.577568531
vt 0.523783326 0.577568531
vt 0.55348438 0.629012346
vt 0.509999096 0.585527003
vt 0.53970015 0.636970639
vt 0.502040684 0.599311233
vt 0.522825003 0.61618644
vt 0.523783147 0.636970818
vt 0.502040684 0.615228117
vt 0.509999096 0.629012346
vt 0.502873421 0.977327466
vt 0.541542232 0.910351098
vt 0.474565923 0.94901979
vt 0.541542232 0.98768878
vt 0.46420452 0.910351038
vt 0.580210924 0.977327466
vt 0.474565923 0.871682465
vt 0.60851866 0.94901979
vt 0.502873421 0.843374789
vt 0.618879795 0.910351098
vt 0.541542232 0.833013475
vt 0.60851866 0.871682465
vt 0.580210924 0.843374789
vt 0.966950238 0.94534266
vt 0.89997381 0.906673729
vt 0.938642561 0.973650157
vt 0.977311373 0.906673849
vt 0.89997381 0.98401159
vt 0.966950238 0.868005276
vt 0.861304879 0.973649919
vt 0.9386428 0.839697778
vt 0.832997501 0.945342541
vt 0.899974048 0.829336166
vt 0.822636187 0.90667361
vt 0.861305296 0.839697659
vt 0.83299762 0.868005157
vn -0.689554214 -0.724122763 0.0126942238
vn -0.326002449 -0.342345804 -0.881204724
vn -0.0798654258 -0.598437488 -0.797178805
vn -0.714524865 -0.694908023 0.0809752569
vn -0.448185533 -0.182247192 0.875166118
vn -0.318911821 -0.334899217 0.886644065
vn 0.318915337 0.334899276 0.886642754
vn -0.769787669 -0.633937955 0.0744955838
vn -0.675222993 -0.669972777 0.308561832
vn 0.311248422 -0.897297561 0.31302011
vn -0.689316928 -0.723888576 0.0287670493
vn 0.294152945 -0.955329418 0.0286334194
vn 0.294150412 -0.955330074 -0.0286351833
vn -0.916834772 0.290387452 0.27402392
vn -0.968568802 0.247091934 0.0286342371
vn -0.689318419 -0.723887026 -0.0287683792
vn -0.927971005 0.197331518 0.316117436
vn -0.675219178 -0.669975877 -0.308563411
vn 0.311252415 -0.897296131 -0.31302017
vn -0.769786417 -0.633939683 -0.0744946897
vn -0.0798649937 -0.598438263 0.797178268
vn -0.968568802 0.247092336 -0.028633045
vn -0.294128567 0.955336809 0.028635446
vn -0.334854752 0.901548445 0.274012238
vn -0.24244763 0.917218328 0.31611675
vn -0.916832864 0.290388614 -0.274028987
vn -0.927972019 0.197330624 -0.316114724
vn 0.160128251 0.456560791 0.875163555
vn 0.659157217 0.747633338 0.0809699297
vn 0.689558148 0.724119008 0.012693462
vn 0.593826711 0.109010167 -0.797174156
vn 0.326006621 0.342346221 -0.881203055
vn -0.326002449 -0.342345804 -0.881204724
vn -0.0798654258 -0.598437488 -0.797178805
vn 0.311248422 -0.897297561 0.31302011
vn 0.59553802 0.799865186 0.0744990632
vn 0.636150479 0.707181573 0.30855611
vn 0.911443412 -0.267013133 0.313009441
vn 0.294152945 -0.955329418 0.0286334194
vn 0.689324677 0.723881125 0.0287679508
vn 0.968566 -0.247103021 0.0286334865
vn -0.294126183 0.955337644 -0.0286320131
vn 0.968566835 -0.247099921 -0.028634185
vn 0.294150412 -0.955330074 -0.0286351833
vn 0.311252415 -0.897296131 -0.31302017
vn 0.689323902 0.72388202 -0.0287659522
vn 0.911443114 -0.267019033 -0.313005418
vn -0.0798649937 -0.598438263 0.797178268
vn -0.334856361 0.90154475 -0.2740224
vn 0.636152089 0.707178891 -0.30855903
vn 0.593831718 0.109013833 0.797169864
vn -0.32600379 -0.342345834 0.881204128
vn 0.32600975 0.342352897 0.881199241
vn -0.242443979 0.917219818 -0.31611523
vn 0.595541716 0.799862325 -0.0745004117
vn 0.659156621 0.747633994 -0.0809692666
vn 0.689554572 0.724122524 -0.0126934992
vn 0.160129711 0.456560254 -0.875163436
vn 0.318918347 0.334906042 -0.886639118
vn -0.448186725 -0.18224813 -0.875165284
vn -0.318911731 -0.334899813 -0.886643887
vn -0.714523733 -0.694909394 -0.0809736103
vn -0.689554513 -0.724122524 -0.0126927644
vn -0.32600379 -0.342345834 0.881204128
vn -0.500002146 -0.866024196 0
vn -0 -1 0
vn -0 -1 0
vn -0.500002146 -0.866024196 0
vn -0.866025269 -0.500000179 0
vn -0.866025269 -0.500000179 0
vn -1 0 0
vn -1 0 0
vn -0.866025269 0.500000238 0
vn -0.866025269 0.500000238 0
vn -0.500002146 0.866024196 0
vn -0.500002146 0.866024196 0
vn -0 1 0
vn -0 1 0
vn 0.500002146 0.866024196 0
vn 0.500002146 0.866024196 0
vn 0.866025269 0.500000238 0
vn 0.866025269 0.500000238 0
vn 1 0 0
vn 1 0 0
vn 0.866025269 -0.500000179 0
vn 0.866025269 -0.500000179 0
vn 0.500002146 -0.866024196 0
vn 0.500002146 -0.866024196 0
vn -0 -1 0
vn -0 -1 0
vn -0 0 1
vn -0 0 1
vn -0 0 1
vn -0 0 1
vn -0 0 1
vn -0 0 1
vn -0 0 1
vn -0 0 1
vn -0 0 1
vn -0 0 1
vn -0 0 1
vn -0 0 1
vn -0.500002146 -0.866024196 0
vn -0 -1 0
vn -0 -1 0
vn -0.500002146 -0.866024196 0
vn -0.866024256 -0.500002027 0
vn -0.866024256 -0.500002027 0
vn -1 0 0
vn -1 0 0
vn -0.866025269 0.500000238 0
vn -0.866025269 0.500000238 0
vn -0.500002086 0.866024196 0
vn -0.500002086 0.866024196 0
vn -0 1 0
vn -0 1 0
vn 0.500002086 0.866024196 0
vn 0.500002086 0.866024196 0
vn 0.866025269 0.500000238 0
vn 0.866025269 0.500000238 0
vn 1 0 0
vn 1 0 0
vn 0.866024256 -0.500002027 0
vn 0.866024256 -0.500002027 0
vn 0.500002146 -0.866024196 0
vn 0.500002146 -0.866024196 0
vn -0 -1 0
vn -0 -1 0
vn -0 0 -1
vn -0 0 -1
vn -0 0 -1
vn -0 0 -1
vn -0 0 -1
vn -0 0 -1
vn -0 0 -1
vn -0 0 -1
vn -0 0 -1
vn -0 0 -1
vn -0 0 -1
vn -0 0 -1
vn -0.500001073 -0.866024792 0
vn -0 -1 0
vn -0 -1 0
vn -0.500001073 -0.866024792 0
vn -0.866025686 -0.499999523 0
vn -0.866025686 -0.499999523 0
vn -1 0 0
vn -1 0 0
vn -0.866025329 0.50000006 0
vn -0.866025329 0.50000006 0
vn -0.500000179 0.866025329 0
vn -0.500000179 0.866025329 0
vn -0 1 0
vn -0 1 0
vn 0.500000179 0.866025329 0
vn 0.500000179 0.866025329 0
vn 0.866025329 0.50000006 0
vn 0.866025329 0.50000006 0
vn 1 0 0
vn 1 0 0
vn 0.866025686 -0.499999523 0
vn 0.866025686 -0.499999523 0
vn 0.500001073 -0.866024792 0
vn 0.500001073 -0.866024792 0
vn -0 -1 0
vn -0 -1 0
vn -0 1 0
vn -0 0.983347952 0.181733027
vn -0 1 0
vn -0 0.983347952 0.181732863
vn -0 0.870060384 0.492945105
vn -0 0.870060384 0.492945105
vn -0 0.165517926 -0.98620683
vn -0 0.165517926 -0.98620683
vn -0 -0.0948797092 -0.995488703
vn -0 -0.0948797092 -0.995488703
vn -0 -0.819258988 -0.573423743
vn -0 -0.819258988 -0.573423743
vn -0 -0.998869121 -0.0475443974
vn -0 -0.998869121 -0.0475443974
vn -0 -1 0
vn -0 -1 0
vn 1 0 0
vn 1 0 0
vn 1 0 0
vn 1 0 0
vn 1 0 0
vn 1 0 0
vn 1 0 0
vn 1 0 0
vn -1 0 0
vn -1 0 0
vn -1 0 0
vn -1 0 0
vn -1 0 0
vn -1 0 0
vn -1 0 0
vn -1 0 0
vn -0.707103908 -0.707109571 0
vn -0 -0.991752446 -0.128168821
vn -0 -1 0
vn -0.702027202 -0.702032924 -0.119614333
vn -1 0 0
vn -0 -0.986632824 -0.162959099
vn -0.991752446 0 -0.128168046
vn -0.707103908 0.707109571 0
vn -0.697826445 -0.697828293 -0.161473617
vn -0 -0.999984264 0.00560528319
vn -0.707039714 -0.707041502 -0.0136817629
vn -0.986633182 0 -0.162957013
vn -0.999984264 0 0.00560461823
vn -0.70202738 0.702032924 -0.119613536
vn -0 1 0
vn -0.697826862 0.697827756 -0.161474437
vn -0.707040191 0.707040966 -0.0136833256
vn -0 0.991752565 -0.128167376
vn 0.707103908 0.707109571 0
vn -0 0.986632526 -0.162960842
vn -0 0.999984384 0.00560237281
vn 0.702027261 0.702032983 -0.119613603
vn 1 0 0
vn 0.697826862 0.697827756 -0.1614746
vn 0.70704031 0.707040966 -0.0136835696
vn 0.991752446 0 -0.128168046
vn 0.707103908 -0.707109571 0
vn 0.986633182 0 -0.162956923
vn 0.999984264 0 0.00560467178
vn 0.702027321 -0.702032864 -0.119614311
vn -0 -1 0
vn -0 -0.991752446 -0.128168821
vn 0.697826624 -0.697828174 -0.161473736
vn 0.707039833 -0.707041502 -0.0136818914
vn -0 -0.986632824 -0.162959099
vn -0 -0.999984264 0.00560528319
vn -0.707039714 -0.707041502 -0.0136817629
vn -3.32368444E-07 -0.164509699 0.986375391
vn -0 -0.999984264 0.00560528319
vn -0.0711409077 -0.15610902 0.985174596
vn -0.156109065 -0.0711432397 0.985174358
vn -0.999984264 0 0.00560461823
vn -0.164510205 0 0.986375391
vn -0.707040191 0.707040966 -0.0136833256
vn -0.156109512 0.0711430088 0.985174358
vn -0.0711412206 0.156109154 0.985174477
vn -0 0.999984384 0.00560237281
vn 5.90125524E-07 0.164509714 0.986375391
vn 0.70704031 0.707040966 -0.0136835696
vn 0.0711420104 0.156108961 0.985174477
vn 0.156110391 0.0711434111 0.985174119
vn 0.999984264 0 0.00560467178
vn 0.164510638 0 0.986375272
vn 0.707039833 -0.707041502 -0.0136818914
vn 0.156109244 -0.0711433142 0.985174358
vn 0.0711408108 -0.156109229 0.985174596
vn -0 -0.999984264 0.00560528319
vn -3.32368444E-07 -0.164509699 0.986375391
vn -5.89743365E-07 0.693562627 0.72039628
vn -0.585251212 0.531202376 0.612621367
vn -0.371729881 0.643862844 0.668773174
vn -0 0.65754056 0.753419161
vn -0 0.110170469 0.993912637
vn 0.371728659 0.643862784 0.668773949
vn 0.585251272 0.531202435 0.612621307
vn -0.7272439 0.0756186694 0.682200968
vn 0.727242827 0.0756187811 0.682202041
vn -0.579398215 -0.529221952 0.619856298
vn 0.5793975 -0.529220939 0.619857907
vn -0 -0.638989627 0.769215345
vn -0.385821551 -0.668270051 0.636048019
vn 0.385822624 -0.668270767 0.636046469
vn 2.96881637E-07 -0.724354863 0.689427376
vn -0 0 -1
vn -0 0 -1
vn -0 0 -1
vn -0 0 -1
vn -0 0 -1
vn -0 0 -1
vn -0 0 -1
vn -0 0 -1
vn -0 0 -1
vn -0 0 -1
vn -0 0 -1
vn -0 0 -1
vn -0 0 -1
vn -0 0 1
vn -0 0 1
vn -0 0 1
vn -0 0 1
vn -0 0 1
vn -1.36818144E-07 0 1
vn -0 0 1
vn -1.36818173E-07 0 1
vn -0 0 1
vn -0 0 1
vn -0 0 1
vn -0 0 1
vn -0 0 1
g A_soldier_bubing03_wep_0
f 3/3/3 2/2/2 1/1/1
f 4/4/4 3/3/3 1/1/1
f 4/4/4 1/1/1 5/5/5
f 1/1/1 6/6/6 5/5/5
f 6/6/6 7/7/7 5/5/5
f 4/4/4 8/8/8 3/3/3
f 8/8/8 4/4/4 5/5/5
f 8/8/8 9/9/9 3/3/3
f 9/9/9 10/10/10 3/3/3
f 9/9/9 11/11/11 10/10/10
f 11/11/11 12/12/12 10/10/10
f 12/12/12 11/11/11 13/13/13
f 14/14/14 9/9/9 8/8/8
f 15/15/15 11/11/11 9/9/9
f 14/14/14 15/15/15 9/9/9
f 11/11/11 16/16/16 13/13/13
f 11/11/11 15/15/15 16/16/16
f 17/17/17 8/8/8 5/5/5
f 17/17/17 14/14/14 8/8/8
f 13/13/13 16/16/16 18/18/18
f 19/19/19 13/13/13 18/18/18
f 18/18/18 20/20/20 19/19/19
f 20/20/20 21/21/21 19/19/19
f 15/15/15 22/22/22 16/16/16
f 23/23/23 15/15/15 14/14/14
f 15/15/15 23/23/23 22/22/22
f 24/24/24 14/14/14 17/17/17
f 24/24/24 23/23/23 14/14/14
f 25/25/25 17/17/17 5/5/5
f 25/25/25 24/24/24 17/17/17
f 18/18/18 16/16/16 26/26/26
f 16/16/16 22/22/22 26/26/26
f 27/27/27 20/20/20 18/18/18
f 26/26/26 27/27/27 18/18/18
f 28/28/28 25/25/25 5/5/5
f 7/7/7 28/28/28 5/5/5
f 28/28/28 7/7/7 29/29/29
f 7/7/7 30/30/30 29/29/29
f 29/29/29 30/30/30 31/31/31
f 30/30/30 32/32/32 31/31/31
f 32/32/32 33/33/33 31/31/31
f 33/33/33 34/34/34 31/31/31
f 34/34/34 35/35/35 31/31/31
f 29/29/29 36/36/36 28/28/28
f 36/36/36 25/25/25 28/28/28
f 36/36/36 29/29/29 31/31/31
f 25/25/25 36/36/36 37/37/37
f 37/37/37 36/36/36 31/31/31
f 24/24/24 25/25/25 37/37/37
f 35/35/35 38/38/38 31/31/31
f 38/38/38 37/37/37 31/31/31
f 35/35/35 39/39/39 38/38/38
f 37/37/37 40/40/40 24/24/24
f 40/40/40 23/23/23 24/24/24
f 38/38/38 41/41/41 37/37/37
f 39/39/39 41/41/41 38/38/38
f 41/41/41 40/40/40 37/37/37
f 23/23/23 40/40/40 42/42/42
f 23/23/23 42/42/42 22/22/22
f 41/41/41 39/39/39 43/43/43
f 39/39/39 44/44/44 43/43/43
f 43/43/43 44/44/44 45/45/45
f 46/46/46 40/40/40 41/41/41
f 43/43/43 46/46/46 41/41/41
f 40/40/40 46/46/46 42/42/42
f 47/47/47 43/43/43 45/45/45
f 46/46/46 43/43/43 47/47/47
f 45/45/45 48/48/48 47/47/47
f 22/22/22 42/42/42 49/49/49
f 26/26/26 22/22/22 49/49/49
f 42/42/42 46/46/46 50/50/50
f 50/50/50 46/46/46 47/47/47
f 49/49/49 42/42/42 50/50/50
f 48/48/48 51/51/51 47/47/47
f 47/47/47 51/51/51 50/50/50
f 48/48/48 52/52/52 51/51/51
f 52/52/52 53/53/53 51/51/51
f 49/49/49 54/54/54 26/26/26
f 54/54/54 27/27/27 26/26/26
f 49/49/49 50/50/50 55/55/55
f 51/51/51 55/55/55 50/50/50
f 54/54/54 49/49/49 55/55/55
f 51/51/51 53/53/53 56/56/56
f 56/56/56 55/55/55 51/51/51
f 55/55/55 56/56/56 54/54/54
f 53/53/53 57/57/57 56/56/56
f 56/56/56 57/57/57 58/58/58
f 56/56/56 58/58/58 54/54/54
f 57/57/57 59/59/59 58/58/58
f 27/27/27 54/54/54 60/60/60
f 54/54/54 58/58/58 60/60/60
f 58/58/58 59/59/59 60/60/60
f 20/20/20 27/27/27 60/60/60
f 59/59/59 61/61/61 60/60/60
f 62/62/62 20/20/20 60/60/60
f 60/60/60 61/61/61 62/62/62
f 20/20/20 62/62/62 21/21/21
f 61/61/61 63/63/63 62/62/62
f 62/62/62 63/63/63 21/21/21
f 63/63/63 64/64/64 21/21/21
f 67/67/67 66/66/66 65/65/65
f 66/66/66 68/68/68 65/65/65
f 65/65/65 68/68/68 69/69/69
f 68/68/68 70/70/70 69/69/69
f 69/69/69 70/70/70 71/71/71
f 70/70/70 72/72/72 71/71/71
f 71/71/71 72/72/72 73/73/73
f 72/72/72 74/74/74 73/73/73
f 73/73/73 74/74/74 75/75/75
f 74/74/74 76/76/76 75/75/75
f 75/75/75 76/76/76 77/77/77
f 76/76/76 78/78/78 77/77/77
f 77/77/77 78/78/78 79/79/79
f 78/78/78 80/80/80 79/79/79
f 79/79/79 80/80/80 81/81/81
f 80/80/80 82/82/82 81/81/81
f 81/81/81 82/82/82 83/83/83
f 82/82/82 84/84/84 83/83/83
f 83/83/83 84/84/84 85/85/85
f 84/84/84 86/86/86 85/85/85
f 85/85/85 86/86/86 87/87/87
f 86/86/86 88/88/88 87/87/87
f 87/87/87 88/88/88 89/89/89
f 88/88/88 90/90/90 89/89/89
f 93/93/93 92/92/92 91/91/91
f 93/93/93 91/91/91 94/94/94
f 95/95/95 93/93/93 94/94/94
f 95/95/95 94/94/94 96/96/96
f 97/97/97 95/95/95 96/96/96
f 98/98/98 97/97/97 96/96/96
f 99/99/99 98/98/98 96/96/96
f 99/99/99 100/100/100 98/98/98
f 100/100/100 101/101/101 98/98/98
f 100/100/100 102/102/102 101/101/101
f 105/105/105 104/104/104 103/103/103
f 104/104/104 106/106/106 103/103/103
f 103/103/103 106/106/106 107/107/107
f 106/106/106 108/108/108 107/107/107
f 107/107/107 108/108/108 109/109/109
f 108/108/108 110/110/110 109/109/109
f 109/109/109 110/110/110 111/111/111
f 110/110/110 112/112/112 111/111/111
f 111/111/111 112/112/112 113/113/113
f 112/112/112 114/114/114 113/113/113
f 113/113/113 114/114/114 115/115/115
f 114/114/114 116/116/116 115/115/115
f 115/115/115 116/116/116 117/117/117
f 116/116/116 118/118/118 117/117/117
f 117/117/117 118/118/118 119/119/119
f 118/118/118 120/120/120 119/119/119
f 119/119/119 120/120/120 121/121/121
f 120/120/120 122/122/122 121/121/121
f 121/121/121 122/122/122 123/123/123
f 122/122/122 124/124/124 123/123/123
f 123/123/123 124/124/124 125/125/125
f 124/124/124 126/126/126 125/125/125
f 125/125/125 126/126/126 127/127/127
f 126/126/126 128/128/128 127/127/127
f 131/131/131 130/130/130 129/129/129
f 131/131/131 129/129/129 132/132/132
f 129/129/129 133/133/133 132/132/132
f 133/133/133 134/134/134 132/132/132
f 134/134/134 135/135/135 132/132/132
f 135/135/135 134/134/134 136/136/136
f 137/137/137 135/135/135 136/136/136
f 138/138/138 137/137/137 136/136/136
f 139/139/139 138/138/138 136/136/136
f 139/139/139 140/140/140 138/138/138
f 143/143/143 142/142/142 141/141/141
f 142/142/142 144/144/144 141/141/141
f 141/141/141 144/144/144 145/145/145
f 144/144/144 146/146/146 145/145/145
f 145/145/145 146/146/146 147/147/147
f 146/146/146 148/148/148 147/147/147
f 147/147/147 148/148/148 149/149/149
f 148/148/148 150/150/150 149/149/149
f 149/149/149 150/150/150 151/151/151
f 150/150/150 152/152/152 151/151/151
f 151/151/151 152/152/152 153/153/153
f 152/152/152 154/154/154 153/153/153
f 153/153/153 154/154/154 155/155/155
f 154/154/154 156/156/156 155/155/155
f 155/155/155 156/156/156 157/157/157
f 156/156/156 158/158/158 157/157/157
f 157/157/157 158/158/158 159/159/159
f 158/158/158 160/160/160 159/159/159
f 159/159/159 160/160/160 161/161/161
f 160/160/160 162/162/162 161/161/161
f 161/161/161 162/162/162 163/163/163
f 162/162/162 164/164/164 163/163/163
f 163/163/163 164/164/164 165/165/165
f 164/164/164 166/166/166 165/165/165
f 169/169/169 168/168/168 167/167/167
f 168/168/168 170/170/170 167/167/167
f 168/168/168 171/171/171 170/170/170
f 171/171/171 172/172/172 170/170/170
f 171/171/171 173/173/173 172/172/172
f 173/173/173 174/174/174 172/172/172
f 174/174/174 173/173/173 175/175/175
f 176/176/176 174/174/174 175/175/175
f 176/176/176 175/175/175 177/177/177
f 175/175/175 178/178/178 177/177/177
f 178/178/178 179/179/179 177/177/177
f 179/179/179 180/180/180 177/177/177
f 179/179/179 181/181/181 180/180/180
f 181/181/181 182/182/182 180/180/180
f 185/185/185 184/184/184 183/183/183
f 186/186/186 185/185/185 183/183/183
f 185/185/185 186/186/186 187/187/187
f 185/185/185 187/187/187 188/188/188
f 188/188/188 189/189/189 185/185/185
f 189/189/189 190/190/190 185/185/185
f 193/193/193 192/192/192 191/191/191
f 192/192/192 194/194/194 191/191/191
f 195/195/195 191/191/191 194/194/194
f 196/196/196 195/195/195 194/194/194
f 194/194/194 197/197/197 196/196/196
f 194/194/194 198/198/198 197/197/197
f 201/201/201 200/200/200 199/199/199
f 200/200/200 202/202/202 199/199/199
f 199/199/199 202/202/202 203/203/203
f 200/200/200 204/204/204 202/202/202
f 202/202/202 205/205/205 203/203/203
f 203/203/203 205/205/205 206/206/206
f 204/204/204 207/207/207 202/202/202
f 202/202/202 207/207/207 205/205/205
f 204/204/204 208/208/208 207/207/207
f 208/208/208 209/209/209 207/207/207
f 207/207/207 209/209/209 210/210/210
f 207/207/207 210/210/210 205/205/205
f 209/209/209 211/211/211 210/210/210
f 205/205/205 212/212/212 206/206/206
f 205/205/205 210/210/210 212/212/212
f 206/206/206 212/212/212 213/213/213
f 210/210/210 211/211/211 214/214/214
f 210/210/210 214/214/214 212/212/212
f 211/211/211 215/215/215 214/214/214
f 212/212/212 216/216/216 213/213/213
f 212/212/212 214/214/214 216/216/216
f 213/213/213 216/216/216 217/217/217
f 214/214/214 215/215/215 218/218/218
f 214/214/214 218/218/218 216/216/216
f 215/215/215 219/219/219 218/218/218
f 216/216/216 220/220/220 217/217/217
f 216/216/216 218/218/218 220/220/220
f 217/217/217 220/220/220 221/221/221
f 218/218/218 219/219/219 222/222/222
f 218/218/218 222/222/222 220/220/220
f 219/219/219 223/223/223 222/222/222
f 220/220/220 224/224/224 221/221/221
f 220/220/220 222/222/222 224/224/224
f 221/221/221 224/224/224 225/225/225
f 222/222/222 223/223/223 226/226/226
f 222/222/222 226/226/226 224/224/224
f 223/223/223 227/227/227 226/226/226
f 224/224/224 228/228/228 225/225/225
f 224/224/224 226/226/226 228/228/228
f 225/225/225 228/228/228 229/229/229
f 228/228/228 230/230/230 229/229/229
f 226/226/226 227/227/227 231/231/231
f 226/226/226 231/231/231 228/228/228
f 228/228/228 231/231/231 230/230/230
f 227/227/227 232/232/232 231/231/231
f 231/231/231 233/233/233 230/230/230
f 231/231/231 232/232/232 233/233/233
f 232/232/232 234/234/234 233/233/233
f 237/237/237 236/236/236 235/235/235
f 236/236/236 238/238/238 235/235/235
f 238/238/238 239/239/239 235/235/235
f 235/235/235 239/239/239 240/240/240
f 239/239/239 241/241/241 240/240/240
f 240/240/240 241/241/241 242/242/242
f 241/241/241 243/243/243 242/242/242
f 243/243/243 244/244/244 242/242/242
f 242/242/242 244/244/244 245/245/245
f 244/244/244 246/246/246 245/245/245
f 245/245/245 246/246/246 247/247/247
f 246/246/246 248/248/248 247/247/247
f 248/248/248 249/249/249 247/247/247
f 247/247/247 249/249/249 250/250/250
f 249/249/249 251/251/251 250/250/250
f 250/250/250 251/251/251 252/252/252
f 251/251/251 253/253/253 252/252/252
f 253/253/253 254/254/254 252/252/252
f 252/252/252 254/254/254 255/255/255
f 254/254/254 256/256/256 255/255/255
f 259/259/259 258/258/258 257/257/257
f 258/258/258 260/260/260 257/257/257
f 260/260/260 258/258/258 261/261/261
f 257/257/257 260/260/260 262/262/262
f 260/260/260 263/263/263 262/262/262
f 263/263/263 260/260/260 261/261/261
f 258/258/258 264/264/264 261/261/261
f 265/265/265 263/263/263 261/261/261
f 264/264/264 266/266/266 261/261/261
f 267/267/267 265/265/265 261/261/261
f 266/266/266 268/268/268 261/261/261
f 268/268/268 267/267/267 261/261/261
f 266/266/266 269/269/269 268/268/268
f 267/267/267 268/268/268 270/270/270
f 269/269/269 271/271/271 268/268/268
f 268/268/268 271/271/271 270/270/270
f 274/274/274 273/273/273 272/272/272
f 272/272/272 273/273/273 275/275/275
f 276/276/276 273/273/273 274/274/274
f 275/275/275 273/273/273 277/277/277
f 278/278/278 273/273/273 276/276/276
f 277/277/277 273/273/273 279/279/279
f 280/280/280 273/273/273 278/278/278
f 279/279/279 273/273/273 281/281/281
f 282/282/282 273/273/273 280/280/280
f 281/281/281 273/273/273 283/283/283
f 284/284/284 273/273/273 282/282/282
f 283/283/283 273/273/273 284/284/284
f 287/287/287 286/286/286 285/285/285
f 285/285/285 286/286/286 288/288/288
f 289/289/289 286/286/286 287/287/287
f 288/288/288 286/286/286 290/290/290
f 291/291/291 286/286/286 289/289/289
f 290/290/290 286/286/286 292/292/292
f 293/293/293 286/286/286 291/291/291
f 292/292/292 286/286/286 294/294/294
f 295/295/295 286/286/286 293/293/293
f 294/294/294 286/286/286 296/296/296
f 297/297/297 286/286/286 295/295/295
f 296/296/296 286/286/286 297/297/297
