g A_soldier_bubing02_wep
v -0.0332378075 1.63052392 -0.263997674
v -0.034765102 1.6045233 -0.26101616
v -0.0315888375 1.60349393 -0.300946891
v -0.0321412235 1.62945724 -0.293193877
v -0.0238060541 1.62975931 -0.304145932
v -0.018850822 1.60421944 -0.311588258
v -0.0178720932 1.65159655 -0.301549435
v -0.022293238 1.65524197 -0.291362673
v -0.0239715017 1.65612841 -0.266730636
v -1.20652326E-18 1.65764976 -0.302414328
v 1.57902426E-16 1.66779053 -0.267627358
v 2.980233E-10 1.66560054 -0.289542735
v 0.0178720858 1.65159655 -0.301549435
v 0.022293238 1.65524197 -0.291362673
v 0.0239715017 1.65612841 -0.266730636
v 0.0238060448 1.62975931 -0.304145932
v 0.0321412235 1.62945724 -0.293193877
v 0.0332378075 1.63052392 -0.263997674
v 0.0188508146 1.60421944 -0.311588258
v 0.0347650945 1.6045233 -0.26101616
v 0.0315888301 1.60349393 -0.300946891
v 0.0238060448 1.62975931 -0.304145932
v -1.14343612E-09 1.60037827 -0.316081762
v 0.0188508146 1.60421944 -0.311588258
v 0.0178720858 1.65159655 -0.301549435
v -1.20652326E-18 1.65764976 -0.302414328
v -0.0178720932 1.65159655 -0.301549435
v -0.0238060541 1.62975931 -0.304145932
v -0.018850822 1.60421944 -0.311588258
v -0.0130049083 1.47246742 -0.363756657
v 0.00823683385 1.50173998 -0.355058044
v -0.00823493302 1.50173962 -0.355058521
v 0.0130097456 1.47246838 -0.363756657
v -0.0130041726 1.45433235 -0.364956081
v 0.0130101554 1.45433235 -0.364955544
v -0.012416942 1.44181442 -0.357245713
v 0.0124232508 1.44181454 -0.357245177
v 0.0118363453 1.43685544 -0.340770662
v -0.0118297096 1.43685508 -0.340771198
v 0.0112364721 1.43299019 -0.311551571
v -0.0112300823 1.4329896 -0.311551839
v 0.0117857549 1.44052517 -0.282908499
v -0.0117796101 1.44052446 -0.282908499
v 0.0111034187 1.47011793 -0.271232694
v -0.0111003742 1.47011697 -0.271232694
v 0.0088659795 1.50100303 -0.277218401
v -0.00886391476 1.50100279 -0.27721855
v 0.0130097456 1.47246838 -0.363756657
v 0.0103188129 1.50517118 -0.34567675
v 0.00823683385 1.50173998 -0.355058044
v 0.00987459905 1.46772742 -0.343632847
v 0.0130101554 1.45433235 -0.364955544
v 0.0124232508 1.44181454 -0.357245177
v 0.0118363453 1.43685544 -0.340770662
v 0.0112358183 1.4575094 -0.319556653
v 0.0112364721 1.43299019 -0.311551571
v 0.0117852651 1.46254253 -0.295156598
v 0.0117857549 1.44052517 -0.282908499
v 0.0111034997 1.47509634 -0.288662851
v 0.0111034187 1.47011793 -0.271232694
v 0.0088665504 1.50297463 -0.293056905
v 0.0088659795 1.50100303 -0.277218401
v 0.00987459905 1.46772742 -0.343632847
v -0.010316913 1.50517082 -0.34567675
v 0.0103188129 1.50517118 -0.34567675
v -0.00986959599 1.46772683 -0.343632847
v -0.0112308981 1.45750916 -0.319556713
v 0.0112358183 1.4575094 -0.319556653
v -0.011780425 1.46254253 -0.295156747
v 0.0117852651 1.46254253 -0.295156598
v -0.0111002931 1.47509611 -0.288662851
v 0.0111034997 1.47509634 -0.288662851
v -0.00886366982 1.50297403 -0.293056905
v 0.0088665504 1.50297463 -0.293056905
v -0.00986959599 1.46772683 -0.343632847
v -0.00823493302 1.50173962 -0.355058521
v -0.010316913 1.50517082 -0.34567675
v -0.0130049083 1.47246742 -0.363756657
v -0.0130041726 1.45433235 -0.364956081
v -0.012416942 1.44181442 -0.357245713
v -0.0118297096 1.43685508 -0.340771198
v -0.0112300823 1.4329896 -0.311551839
v -0.0112308981 1.45750916 -0.319556713
v -0.0117796101 1.44052446 -0.282908499
v -0.011780425 1.46254253 -0.295156747
v -0.0111003742 1.47011697 -0.271232694
v -0.0111002931 1.47509611 -0.288662851
v -0.00886391476 1.50100279 -0.27721855
v -0.00886366982 1.50297403 -0.293056905
v 0.0101104174 1.50383914 -0.311801583
v -0.0113952765 1.48800886 -0.309744716
v -0.0101085175 1.50383914 -0.311801761
v 0.0113983192 1.48801148 -0.309744567
v 0.0101104174 1.50383914 -0.327454448
v -0.0037604617 1.47743547 -0.305977076
v 0.0113983192 1.48635387 -0.323391616
v -0.0101085175 1.50383914 -0.327454448
v 0.00376497256 1.47743571 -0.305976927
v -0.00376086938 1.47613716 -0.312665731
v 0.0037645672 1.47613776 -0.312665552
v -0.0113949487 1.48635161 -0.323391616
v -0.0101085175 1.50383914 -0.311801761
v -0.00376086938 1.47613716 -0.312665731
v -0.0113952765 1.48800886 -0.309744716
v -0.0037604617 1.47743547 -0.305977076
v 0.0311224796 1.64997828 -0.270017385
v -2.98023217E-10 1.61272264 -0.267567009
v 0.0390029997 1.61272264 -0.267567009
v -2.98023217E-10 1.65597332 -0.270017385
v 0.0153163262 1.66819775 -0.270325363
v -0.0390029997 1.61272264 -0.267567009
v -0 1.67225921 -0.270504206
v -0.0311224796 1.64997828 -0.270017385
v -0.0153163262 1.66819775 -0.270325363
v -2.98023217E-10 1.61272264 -0.267567009
v 0.0197323337 1.60998344 -0.327215642
v 0.0328471027 1.6112498 -0.316788405
v 0.0390029997 1.61272264 -0.267567009
v -0.0328471027 1.6112498 -0.316788405
v -0.0197323337 1.60998344 -0.327215642
v -0.0390029997 1.61272264 -0.267567009
v -0 1.60997403 -0.329571933
v 0.0197323337 1.60998344 -0.327215642
v -0.0197323337 1.60998344 -0.327215642
v -1.77272974E-09 1.55961025 0.0758793727
v -3.69447117E-09 1.5624423 0.174359471
v 0.0209486093 1.56549037 0.174359471
v 0.0205878299 1.56255138 0.0754079074
v 0.0355204642 1.5754751 0.174359471
v -0 1.52438307 0.0388856418
v 0.0340965539 1.57283235 0.0752724633
v 0.0369704776 1.59324539 0.174359471
v 0.018306667 1.53765619 0.0386325158
v 0.0264116041 1.55644929 0.0370710045
v 0.0311237145 1.54502356 -0.0252985284
v 0.0171748959 1.51788759 0.000554548227
v 1.49011609E-10 1.50970733 0.000243868824
v 0.019766394 1.51191485 -0.0319831781
v 1.49011609E-10 1.50517845 -0.0310062859
v 0.0158916581 1.49821723 -0.188198432
v -0 1.4946543 -0.188092396
v 0.0362417065 1.58139884 0.0369453952
v 0.0362909995 1.59342468 0.0751822516
v 0.0357370861 1.61614013 0.0752848014
v 0.0363199562 1.61672831 0.174359471
v 0.0174271148 1.49718428 -0.261083692
v -0 1.49263668 -0.261059552
v 0.0354672894 1.52677429 -0.190159664
v 0.036971651 1.58105659 -0.0340779163
v 0.0316190869 1.64550447 0.0742391348
v 0.0321032144 1.64571762 0.174359471
v 0.0205021854 1.66387773 0.174359471
v 0.0362788327 1.6155082 0.0358121879
v 0.0192916505 1.66384089 0.0750391558
v -9.03873953E-09 1.67078519 0.174359471
v 0.0203782748 1.49794137 -0.307957679
v -1.49011603E-09 1.49179161 -0.298824579
v 0.0314573273 1.64728987 0.0326768756
v -4.51936977E-09 1.67044091 0.0750789791
v -0.0205022004 1.66387773 0.174359471
v 0.0219669137 1.49300778 -0.373868853
v -0 1.48781705 -0.374584645
v 0.0193045847 1.66434622 0.0342085958
v -0.0192916561 1.66384089 0.0750391558
v -0.0321032293 1.64571762 0.174359471
v -0.0316190943 1.64550447 0.0742391348
v -0.0363199711 1.61672831 0.174359471
v 0.0315304883 1.64835763 -0.0402959101
v 0.02003338 1.66474509 -0.0388626009
v 0.036920473 1.61408865 -0.0398304127
v 0.0371761546 1.57049203 -0.194746047
v 0.0381931998 1.61047685 -0.197872236
v 0.0357404761 1.52681029 -0.261620373
v 0.0312569626 1.65205491 -0.198779345
v 0.0371857546 1.57025886 -0.264308721
v 0.0360954069 1.52685845 -0.317435116
v 0.0390029997 1.61272264 -0.267567009
v 0.0311224796 1.64997828 -0.270017385
v 0.0328471027 1.6112498 -0.316788405
v 0.0366260149 1.57248962 -0.32300368
v 0.0165737513 1.66606569 -0.19777374
v 0.0153163262 1.66819775 -0.270325363
v 0.0390019938 1.52006233 -0.378363788
v -0 1.67240572 -0.0379682481
v -0 1.67157853 -0.198398486
v -0 1.67225921 -0.270504206
v -0.0165737513 1.66606569 -0.19777374
v -0.0153163262 1.66819775 -0.270325363
v 0.0379697718 1.56805742 -0.386046469
v 0.0254021231 1.48196495 -0.394153625
v -0 1.6715318 0.034695819
v -0.0193045847 1.66434622 0.0342085958
v -0.02003338 1.66474509 -0.0388626009
v -0.0314573273 1.64728987 0.0326768756
v -0.0315304883 1.64835763 -0.0402959101
v -0.0362788327 1.6155082 0.0358121879
v -0.0312569626 1.65205491 -0.198779345
v -0.0311224796 1.64997828 -0.270017385
v -0.036920473 1.61408865 -0.0398304127
v -0.0362417065 1.58139884 0.0369453952
v -0.0357370898 1.61614013 0.0752848014
v -0.0381931998 1.61047685 -0.197872236
v -0.0390029997 1.61272264 -0.267567009
v -0.0362910032 1.59342468 0.0751822516
v -0.0369704887 1.59324539 0.174359471
v -0.0340965614 1.57283235 0.0752724633
v -0.0355204754 1.5754751 0.174359471
v -0.0209486168 1.56549037 0.174359471
v -0.036971651 1.58105659 -0.0340779163
v -0.0311237145 1.54502356 -0.0252985284
v -0.0371761546 1.57049203 -0.194746047
v -0.0205878355 1.56255138 0.0754079074
v -3.69447117E-09 1.5624423 0.174359471
v -1.77272974E-09 1.55961025 0.0758793727
v -0 1.52438307 0.0388856418
v -0.0264116041 1.55644929 0.0370710082
v -0.018306667 1.53765619 0.0386325158
v 1.49011609E-10 1.50970733 0.000243868824
v -0.0171748959 1.51788759 0.000554548227
v 1.49011609E-10 1.50517845 -0.0310062859
v -0.019766394 1.51191485 -0.0319831781
v -0 1.4946543 -0.188092396
v -0.0158916581 1.49821723 -0.188198432
v -0 1.49263668 -0.261059552
v -0.0354672894 1.52677429 -0.190159664
v -0.0174271148 1.49718428 -0.261083692
v -1.49011603E-09 1.49179161 -0.298824579
v -0.0371857546 1.57025886 -0.264308721
v -0.0357404761 1.52681029 -0.261620373
v -0.0203782748 1.49794137 -0.307957679
v -0 1.48781705 -0.374584645
v -0.0360954069 1.52685845 -0.317435116
v -0.0366260223 1.57248962 -0.32300368
v -0.0328471027 1.6112498 -0.316788405
v -0.0219669137 1.49300778 -0.373868853
v -0.0390020013 1.52006233 -0.378363788
v -0.0244715121 1.58599114 -0.34911254
v -0.0197323337 1.60998344 -0.327215642
v -0 1.60997403 -0.329571933
v -0.0104125645 1.47556901 -0.391353548
v -2.98023217E-10 1.47183585 -0.390419185
v -0.0254021231 1.48196495 -0.394153625
v -0.01747513 1.4473269 -0.396304816
v -0 1.44258392 -0.393116623
v -0.0195943974 1.42825294 -0.410543233
v -0 1.42529571 -0.409088999
v -0.0368995778 1.46851122 -0.411952883
v -0.0220471714 1.39219284 -0.572355211
v -0 1.38780332 -0.572486818
v -1.49011603E-09 1.58888209 -0.351403147
v 0.0197323337 1.60998344 -0.327215642
v -0.041294463 1.5152756 -0.401954263
v -0.0404679105 1.45875895 -0.42671904
v -0.0435950831 1.50780821 -0.433821082
v -0.0378673188 1.56280625 -0.432626992
v -0.0232126806 1.38378692 -0.631876767
v -0 1.37997901 -0.636444628
v -0.024129007 1.39695799 -0.642470002
v -0 1.39610946 -0.644619107
v -0.0353572704 1.39756966 -0.63332665
v -0.0238422025 1.43008387 -0.648402214
v -0 1.43018067 -0.650714636
v -0 1.48582196 -0.655072451
v -0.0424270257 1.4267149 -0.571796477
v -0.04533327 1.49172461 -0.574037731
v -0.0390890166 1.43151069 -0.640559912
v -0.0246761534 1.48587954 -0.652079821
v -0 1.54699433 -0.648354173
v -0.0403006412 1.48837876 -0.644494176
v -0.0229636002 1.54715478 -0.647881627
v -1.49011609E-10 1.57759869 -0.641969562
v -0.0386747494 1.55581582 -0.57716006
v -0.0359278917 1.54906368 -0.640851021
v -0.0195680261 1.5777967 -0.639287651
v -0.032679908 1.57488811 -0.632995427
v -0.0153425736 1.58357239 -0.628303051
v -0 1.58478975 -0.628949583
v -0 1.58520257 -0.580480039
v -0.0294058416 1.57950914 -0.57853955
v -0.0248892568 1.58151746 -0.624664545
v -0.0284096301 1.58005857 -0.431417763
v 0.0153425736 1.58357239 -0.628303051
v -1.49011609E-10 1.57759869 -0.641969562
v -0.0379697718 1.56805742 -0.386046469
v -0.0266162585 1.58211291 -0.393783987
v 1.49011609E-10 1.58520126 -0.438704789
v -0 1.58520126 -0.396840096
v 0.0244715121 1.58599114 -0.34911254
v 0.0266162585 1.58211291 -0.393783987
v 0.0284096301 1.58005857 -0.431417763
v 0.0378673188 1.56280625 -0.432626992
v 0.0294058416 1.57950914 -0.57853955
v 0.041294463 1.5152756 -0.401954263
v 0.0386747494 1.55581582 -0.57716006
v 0.0248892568 1.58151746 -0.624664545
v 0.0195680261 1.5777967 -0.639287651
v 0.032679908 1.57488811 -0.632995427
v 0.0229636002 1.54715478 -0.647881627
v -0 1.54699433 -0.648354173
v -0 1.48582196 -0.655072451
v 0.0359278917 1.54906368 -0.640851021
v 0.0246761534 1.48587954 -0.652079821
v -0 1.43018067 -0.650714636
v 0.0403006412 1.48837876 -0.644494176
v 0.0238422025 1.43008387 -0.648402214
v -0 1.39610946 -0.644619107
v 0.04533327 1.49172461 -0.574037731
v 0.0390890166 1.43151069 -0.640559912
v 0.0435950831 1.50780821 -0.433821082
v 0.0424270257 1.4267149 -0.571796477
v 0.0353572704 1.39756966 -0.63332665
v 0.024129007 1.39695799 -0.642470002
v 0.0232126806 1.38378692 -0.631876767
v -0 1.37997901 -0.636444628
v -0 1.38780332 -0.572486818
v 0.0220471714 1.39219284 -0.572355211
v 0.0368995778 1.46851122 -0.411952883
v 0.0404679105 1.45875895 -0.42671904
v 0.0195943974 1.42825294 -0.410543233
v -0 1.42529571 -0.409088999
v -0 1.44258392 -0.393116623
v 0.01747513 1.4473269 -0.396304816
v -2.98023217E-10 1.47183585 -0.390419185
v 0.0104125645 1.47556901 -0.391353548
v -0.024728965 1.56790733 0.245976925
v -3.69447117E-09 1.56490433 0.328043014
v -3.69447117E-09 1.56490433 0.245976925
v -0.024728965 1.56790733 0.328043014
v -0.0311458632 1.58884585 0.245976925
v -0.0311458632 1.58884585 0.328043014
v -0.0292985346 1.65494883 0.245976925
v -0.0292985346 1.65494883 0.328043014
v -0.0214997604 1.66708827 0.245976925
v -0.0214997604 1.66708827 0.328043014
v -9.03873953E-09 1.67158902 0.245976925
v -9.03873953E-09 1.67158902 0.328043014
v 0.0214997437 1.66708827 0.245976925
v 0.0214997437 1.66708827 0.328043014
v 0.0292985179 1.65494883 0.245976925
v 0.0292985179 1.65494883 0.328043014
v 0.0311458502 1.58884585 0.245976925
v 0.0311458502 1.58884585 0.328043014
v 0.0247289576 1.56790733 0.245976925
v 0.0247289576 1.56790733 0.328043014
v -3.69447117E-09 1.56490433 0.245976925
v -3.69447117E-09 1.56490433 0.328043014
v -0.026558537 1.59910274 0.375745296
v 9.42410505E-09 1.58546519 0.632483065
v 1.12673215E-09 1.59047329 0.375745296
v -0.0321625732 1.59511697 0.636360705
v -0.0429726318 1.62169492 0.375745296
v -0.0520298928 1.62038159 0.646488607
v -0.0429726206 1.64962018 0.375745296
v -0.0520166531 1.65160203 0.658955991
v -0.0265585519 1.67221212 0.375745296
v -0.0321418606 1.67685342 0.669036984
v -5.94739191E-09 1.68084168 0.375745296
v -5.96023053E-09 1.68649685 0.672886848
v 0.0265585352 1.67221212 0.375745296
v 0.0321418457 1.6768533 0.669036925
v 0.0429726206 1.64962018 0.375745296
v 0.0520156324 1.65160167 0.658923686
v 0.0429726057 1.62169492 0.375745296
v 0.0520287231 1.62038171 0.646453083
v 0.0265585408 1.59910274 0.375745296
v 0.0321625657 1.59511697 0.636360705
v 1.12673215E-09 1.59047329 0.375745296
v 9.42410505E-09 1.58546519 0.632483065
v -0 1.66864133 0.543788731
v 0.0185461808 1.66864133 0.543788731
v 0.0147643276 1.7191056 0.554288149
v -0 1.72134578 0.553248584
v -0.0185461808 1.66864133 0.543788731
v -0.0147643276 1.7191056 0.554288149
v -0.0170791317 1.73016059 0.606354535
v -0 1.73244596 0.608281016
v 0.0170791317 1.73016059 0.606354535
v 0.0175228119 1.72507334 0.614203274
v -0 1.72731352 0.616111994
v -0.0175228119 1.72507334 0.614203274
v 0.021608429 1.66816282 0.628896475
v -0.021608429 1.66816282 0.628896475
v -0 1.66816282 0.630862176
v -0.0185461808 1.66864133 0.543788731
v -0.0147643276 1.7191056 0.554288149
v -0.0170791317 1.73016059 0.606354535
v -0.0175228119 1.72507334 0.614203274
v -0.021608429 1.66816282 0.628896475
v 0.0175228119 1.72507334 0.614203274
v 0.0185461808 1.66864133 0.543788731
v 0.021608429 1.66816282 0.628896475
v 0.0170791317 1.73016059 0.606354535
v 0.0147643276 1.7191056 0.554288149
v -0.0243506897 1.62146056 0.0647540092
v -3.57627861E-09 1.60740149 0.477420419
v -3.57627861E-09 1.60740149 0.0647540092
v -0.0243506897 1.62146056 0.477420419
v -0.024350686 1.64957821 0.0647540092
v -0.024350686 1.64957821 0.477420419
v 7.15255721E-09 1.66363716 0.0647540092
v 7.15255721E-09 1.66363716 0.477420419
v 0.0243506879 1.64957821 0.0647540092
v 0.0243506879 1.64957821 0.477420419
v 0.024350686 1.62146056 0.0647540092
v 0.024350686 1.62146056 0.477420419
v -3.57627861E-09 1.60740149 0.0647540092
v -3.57627861E-09 1.60740149 0.477420419
v -0.0174715873 1.57898736 0.0558066927
v -1.7881393E-09 1.56890023 0.351894319
v -1.7881393E-09 1.56890023 0.0558066927
v -0.0174715873 1.57898736 0.351894319
v -0.0174715854 1.59916198 0.0558066927
v -0.0174715854 1.59916198 0.351894319
v 4.76837148E-09 1.60924911 0.0558066927
v 4.76837148E-09 1.60924911 0.351894319
v 0.0174715854 1.59916198 0.0558066927
v 0.0174715854 1.59916198 0.351894319
v 0.0174715854 1.57898736 0.0558066927
v 0.0174715854 1.57898736 0.351894319
v -1.7881393E-09 1.56890023 0.0558066927
v -1.7881393E-09 1.56890023 0.351894319
v -5.22140509E-09 1.61672831 0.177471116
v 0.0321032144 1.64571762 0.174359471
v 0.0363199562 1.61672831 0.174359471
v 0.0205021854 1.66387773 0.174359471
v 0.0369704776 1.59324539 0.174359471
v -9.03873953E-09 1.67078519 0.174359471
v 0.0355204642 1.5754751 0.174359471
v -0.0205022004 1.66387773 0.174359471
v 0.0209486093 1.56549037 0.174359471
v -0.0321032293 1.64571762 0.174359471
v -3.69447117E-09 1.5624423 0.174359471
v -0.0363199711 1.61672831 0.174359471
v -0.0209486168 1.56549037 0.174359471
v -0.0369704887 1.59324539 0.174359471
v -0.0355204754 1.5754751 0.174359471
v -5.94739191E-09 1.68084168 0.375745296
v -8.30761515E-10 1.63565743 0.375745296
v 0.0265585352 1.67221212 0.375745296
v -0.0265585519 1.67221212 0.375745296
v 0.0429726206 1.64962018 0.375745296
v -0.0429726206 1.64962018 0.375745296
v 0.0429726057 1.62169492 0.375745296
v -0.0429726318 1.62169492 0.375745296
v 0.0265585408 1.59910274 0.375745296
v -0.026558537 1.59910274 0.375745296
v 1.12673215E-09 1.59047329 0.375745296
v -0.0180522446 1.62419891 -0.335331351
v -0.0207443945 1.64373183 -0.294598937
v -0.0188108888 1.62350214 -0.294598967
v 2.18167729E-17 1.6139679 -0.294598967
v -0.0183571875 1.64501464 -0.335253358
v 2.57658841E-18 1.6572094 -0.294598877
v 4.73250956E-18 1.61404777 -0.335894018
v 0.018810885 1.62350214 -0.294598967
v -2.05203678E-18 1.65557015 -0.33591345
v 0.0207443852 1.64373183 -0.294598937
v -6.36593319E-18 1.63598156 -0.342945158
v 0.0183571875 1.64501464 -0.335253358
v 0.0180522446 1.62419891 -0.335331351
v -9.03873953E-09 1.67158902 0.245976925
v -5.22140509E-09 1.61672831 0.245976925
v 0.0214997437 1.66708827 0.245976925
v -0.0214997604 1.66708827 0.245976925
v 0.0292985179 1.65494883 0.245976925
v -0.0292985346 1.65494883 0.245976925
v 0.0311458502 1.58884585 0.245976925
v -0.0311458632 1.58884585 0.245976925
v 0.0247289576 1.56790733 0.245976925
v -0.024728965 1.56790733 0.245976925
v -3.69447117E-09 1.56490433 0.245976925
v 0.0214997437 1.66708827 0.328043014
v -5.22140509E-09 1.61672831 0.328043014
v -9.03873953E-09 1.67158902 0.328043014
v 0.0292985179 1.65494883 0.328043014
v -0.0214997604 1.66708827 0.328043014
v 0.0311458502 1.58884585 0.328043014
v -0.0292985346 1.65494883 0.328043014
v 0.0247289576 1.56790733 0.328043014
v -0.0311458632 1.58884585 0.328043014
v -3.69447117E-09 1.56490433 0.328043014
v -0.024728965 1.56790733 0.328043014
v 4.76837148E-09 1.60924911 0.351894319
v -1.26164705E-17 1.58907473 0.356572032
v -0.0174715854 1.59916198 0.351894319
v 0.0174715854 1.59916198 0.351894319
v -0.0174715873 1.57898736 0.351894319
v 0.0174715854 1.57898736 0.351894319
v -1.7881393E-09 1.56890023 0.351894319
v 0.0321418457 1.6768533 0.669036925
v 0.0520156324 1.65160167 0.658923686
v 0.0478563197 1.64943779 0.666471004
v 0.0292421449 1.67312789 0.676322103
v -5.96023053E-09 1.68649685 0.672886848
v 2.93015334E-10 1.63599837 0.656116784
v 0.0478049852 1.62088454 0.654574752
v -5.33639932E-09 1.68154991 0.679806173
v 0.0520287231 1.62038171 0.646453083
v -0.0321418606 1.67685342 0.669036984
v 0.0299913846 1.59791756 0.644990385
v 0.0321625657 1.59511697 0.636360705
v -0.0290172659 1.6728425 0.676162004
v -0.0520166531 1.65160203 0.658955991
v 8.88871377E-09 1.58894455 0.641234219
v 9.42410505E-09 1.58546519 0.632483065
v -0.0478899665 1.64947617 0.666428387
v -0.0520298928 1.62038159 0.646488607
v -0.0298228618 1.59813154 0.645049453
v -0.0321625732 1.59511697 0.636360705
v -0.0478462465 1.6208986 0.654529333
vt 0.963867188 0.989257812
vt 0.987792969 0.989257812
vt 0.987792969 0.966308594
vt 0.963867188 0.966308594
vt 0.963867188 0.950195312
vt 0.987792969 0.950195312
vt 0.937988281 0.950195312
vt 0.937988281 0.966308594
vt 0.937988281 0.989257812
vt 0.911621094 0.950195312
vt 0.911621094 0.989257812
vt 0.911621094 0.966308594
vt 0.885742188 0.950195312
vt 0.885742188 0.966308594
vt 0.885742188 0.989257812
vt 0.858398438 0.950195312
vt 0.858398438 0.966308594
vt 0.858398438 0.989257812
vt 0.833007812 0.950195312
vt 0.833007812 0.989257812
vt 0.833007812 0.966308594
vt 0.84375 0.655273438
vt 0.870117188 0.62109375
vt 0.849121094 0.625976562
vt 0.850585938 0.679199219
vt 0.870117188 0.685058594
vt 0.889648438 0.679199219
vt 0.896484375 0.655273438
vt 0.891113281 0.625976562
vt 0.721679688 0.617675781
vt 0.738769531 0.629882812
vt 0.738769531 0.620605469
vt 0.721191406 0.632324219
vt 0.7109375 0.6171875
vt 0.7109375 0.632324219
vt 0.702636719 0.617675781
vt 0.702148438 0.631835938
vt 0.692382812 0.631347656
vt 0.692871094 0.617675781
vt 0.67578125 0.630859375
vt 0.67578125 0.617675781
vt 0.658691406 0.630859375
vt 0.658691406 0.6171875
vt 0.640136719 0.629882812
vt 0.640625 0.6171875
vt 0.622070312 0.628417969
vt 0.622558594 0.618164062
vt 0.547363281 0.509277344
vt 0.5390625 0.527832031
vt 0.544921875 0.52734375
vt 0.534667969 0.505859375
vt 0.546386719 0.498291016
vt 0.541015625 0.491699219
vt 0.530761719 0.489990234
vt 0.520019531 0.501953125
vt 0.513671875 0.489990234
vt 0.505859375 0.506835938
vt 0.497314453 0.496582031
vt 0.502929688 0.514648438
vt 0.492675781 0.515136719
vt 0.5078125 0.530761719
vt 0.498535156 0.532714844
vt 0.576660156 0.616699219
vt 0.598144531 0.628417969
vt 0.598144531 0.616210938
vt 0.576660156 0.627929688
vt 0.561523438 0.62890625
vt 0.561523438 0.615722656
vt 0.547363281 0.62890625
vt 0.547363281 0.615722656
vt 0.5390625 0.62890625
vt 0.5390625 0.615722656
vt 0.522949219 0.627441406
vt 0.522949219 0.6171875
vt 0.510742188 0.577148438
vt 0.502441406 0.599121094
vt 0.508300781 0.599609375
vt 0.498535156 0.581542969
vt 0.498291016 0.570800781
vt 0.503417969 0.563476562
vt 0.513183594 0.561035156
vt 0.530761719 0.559570312
vt 0.525390625 0.571777344
vt 0.547363281 0.564941406
vt 0.539550781 0.575683594
vt 0.553710938 0.583007812
vt 0.54296875 0.583007812
vt 0.548828125 0.601074219
vt 0.539550781 0.599609375
vt 0.958496094 0.795898438
vt 0.951660156 0.779785156
vt 0.947265625 0.7890625
vt 0.961914062 0.787109375
vt 0.969238281 0.799316406
vt 0.960449219 0.77734375
vt 0.967773438 0.789550781
vt 0.981933594 0.794433594
vt 0.962890625 0.780273438
vt 0.96484375 0.775878906
vt 0.967285156 0.780273438
vt 0.978027344 0.785644531
vt 0.988769531 0.787109375
vt 0.971679688 0.778320312
vt 0.981933594 0.779296875
vt 0.974121094 0.774414062
vt 0.482910156 0.447998047
vt 0.513183594 0.411376953
vt 0.475341797 0.411376953
vt 0.513183594 0.453857422
vt 0.498291016 0.465576172
vt 0.551269531 0.411376953
vt 0.513183594 0.469726562
vt 0.543457031 0.447998047
vt 0.528320312 0.465576172
vt 0.513183594 0.411376953
vt 0.494140625 0.353271484
vt 0.481201172 0.363525391
vt 0.475341797 0.411376953
vt 0.545410156 0.363525391
vt 0.532714844 0.353271484
vt 0.551269531 0.411376953
vt 0.513183594 0.350830078
vt 0.494140625 0.353271484
vt 0.532714844 0.353271484
vt 0.0949707031 0.880371094
vt 0.100463867 0.987792969
vt 0.123718262 0.986816406
vt 0.117675781 0.876464844
vt 0.142944336 0.986328125
vt 0.0692138672 0.832519531
vt 0.13684082 0.875488281
vt 0.162475586 0.985839844
vt 0.0944824219 0.830566406
vt 0.117431641 0.830566406
vt 0.109375 0.759277344
vt 0.0755615234 0.786132812
vt 0.0545959473 0.788574219
vt 0.0717163086 0.749511719
vt 0.0488891602 0.750976562
vt 0.0655517578 0.57421875
vt 0.0477905273 0.572753906
vt 0.147338867 0.831542969
vt 0.160400391 0.875488281
vt 0.186279297 0.875488281
vt 0.188232422 0.985351562
vt 0.0841674805 0.489501953
vt 0.0645751953 0.484863281
vt 0.102600098 0.576660156
vt 0.149291992 0.752441406
vt 0.219970703 0.874511719
vt 0.220581055 0.984863281
vt 0.244384766 0.984375
vt 0.185546875 0.831054688
vt 0.245117188 0.875488281
vt 0.268310547 0.983886719
vt 0.102111816 0.4375
vt 0.0765380859 0.443359375
vt 0.221679688 0.828613281
vt 0.268554688 0.875
vt 0.292480469 0.984375
vt 0.110778809 0.364013672
vt 0.0855712891 0.364746094
vt 0.245239258 0.830566406
vt 0.291748047 0.875488281
vt 0.316162109 0.984863281
vt 0.316894531 0.874511719
vt 0.348388672 0.985351562
vt 0.222900391 0.749511719
vt 0.244873047 0.751953125
vt 0.185180664 0.748046875
vt 0.148193359 0.578613281
vt 0.188476562 0.581054688
vt 0.12109375 0.497558594
vt 0.230102539 0.584472656
vt 0.166015625 0.506347656
vt 0.141723633 0.434326172
vt 0.20690918 0.517089844
vt 0.236938477 0.520996094
vt 0.230834961 0.466552734
vt 0.197143555 0.440429688
vt 0.250488281 0.586914062
vt 0.256835938 0.522949219
vt 0.150146484 0.361572266
vt 0.268554688 0.75390625
vt 0.268066406 0.586914062
vt 0.269042969 0.5234375
vt 0.286376953 0.586914062
vt 0.281494141 0.522949219
vt 0.211791992 0.360839844
vt 0.10345459 0.337402344
vt 0.268554688 0.831542969
vt 0.291748047 0.830566406
vt 0.291992188 0.751953125
vt 0.315429688 0.828613281
vt 0.314208984 0.749511719
vt 0.351318359 0.831542969
vt 0.307128906 0.584472656
vt 0.300292969 0.521484375
vt 0.351806641 0.748046875
vt 0.389648438 0.831542969
vt 0.350585938 0.875488281
vt 0.348388672 0.581054688
vt 0.328125 0.516113281
vt 0.376464844 0.875488281
vt 0.374267578 0.985839844
vt 0.399902344 0.875976562
vt 0.393798828 0.986328125
vt 0.413085938 0.986816406
vt 0.387695312 0.752441406
vt 0.427490234 0.759765625
vt 0.388671875 0.578613281
vt 0.419189453 0.876464844
vt 0.436279297 0.987792969
vt 0.441894531 0.880371094
vt 0.467773438 0.833007812
vt 0.419433594 0.830566406
vt 0.442382812 0.830566406
vt 0.482421875 0.788574219
vt 0.461425781 0.786621094
vt 0.488037109 0.751464844
vt 0.465332031 0.75
vt 0.489257812 0.573242188
vt 0.471435547 0.57421875
vt 0.473144531 0.485839844
vt 0.434326172 0.576660156
vt 0.453369141 0.489990234
vt 0.461914062 0.444335938
vt 0.370849609 0.505859375
vt 0.416259766 0.497558594
vt 0.436523438 0.438232422
vt 0.453857422 0.365478516
vt 0.397216797 0.434570312
vt 0.342285156 0.439941406
vt 0.309326172 0.464355469
vt 0.428466797 0.364501953
vt 0.389160156 0.361816406
vt 0.306884766 0.410888672
vt 0.293701172 0.447998047
vt 0.270751953 0.436279297
vt 0.453857422 0.345703125
vt 0.465820312 0.352050781
vt 0.436035156 0.337890625
vt 0.475830078 0.322998047
vt 0.494384766 0.333984375
vt 0.489013672 0.304199219
vt 0.509765625 0.30859375
vt 0.441162109 0.310302734
vt 0.504882812 0.125488281
vt 0.530273438 0.124511719
vt 0.270019531 0.403076172
vt 0.247802734 0.44921875
vt 0.390136719 0.332763672
vt 0.446777344 0.291992188
vt 0.391357422 0.294433594
vt 0.327392578 0.3046875
vt 0.493408203 0.0627441406
vt 0.51171875 0.0474853516
vt 0.478515625 0.0541381836
vt 0.489746094 0.0302429199
vt 0.476074219 0.0666503906
vt 0.443115234 0.0471496582
vt 0.444580078 0.0195007324
vt 0.376220703 0.0244140625
vt 0.461669922 0.13293457
vt 0.393066406 0.141967773
vt 0.441650391 0.0650634766
vt 0.382324219 0.0520935059
vt 0.307128906 0.0487976074
vt 0.383789062 0.0705566406
vt 0.319824219 0.0711669922
vt 0.276855469 0.0745849609
vt 0.326904297 0.146972656
vt 0.324707031 0.0850830078
vt 0.291748047 0.0882568359
vt 0.302001953 0.0958862305
vt 0.284179688 0.0980224609
vt 0.270019531 0.0947265625
vt 0.270019531 0.146240234
vt 0.300537109 0.147216797
vt 0.29296875 0.102844238
vt 0.304199219 0.308349609
vt 0.255859375 0.0980224609
vt 0.263183594 0.0745239258
vt 0.327880859 0.360839844
vt 0.304199219 0.353515625
vt 0.269775391 0.302978516
vt 0.269775391 0.350830078
vt 0.233032227 0.411132812
vt 0.235473633 0.353515625
vt 0.235351562 0.308349609
vt 0.212158203 0.3046875
vt 0.239379883 0.147216797
vt 0.149414062 0.332519531
vt 0.213134766 0.146850586
vt 0.247070312 0.102844238
vt 0.248291016 0.0881958008
vt 0.237915039 0.0958251953
vt 0.220214844 0.071105957
vt 0.232910156 0.0487365723
vt 0.163818359 0.0242919922
vt 0.215332031 0.0850219727
vt 0.157836914 0.051940918
vt 0.0956420898 0.0192871094
vt 0.15637207 0.0703735352
vt 0.0971679688 0.0469055176
vt 0.0504455566 0.0299530029
vt 0.146850586 0.141723633
vt 0.0986328125 0.0647583008
vt 0.14831543 0.294189453
vt 0.0783691406 0.132568359
vt 0.0640258789 0.0663452148
vt 0.061706543 0.0538330078
vt 0.0469360352 0.0624084473
vt 0.0286560059 0.0471801758
vt 0.0102310181 0.123901367
vt 0.0350341797 0.124938965
vt 0.098449707 0.309814453
vt 0.092956543 0.291503906
vt 0.0505981445 0.303466797
vt 0.029296875 0.307617188
vt 0.0450134277 0.333251953
vt 0.063659668 0.322509766
vt 0.0734863281 0.3515625
vt 0.0853881836 0.345214844
vt 0.583007812 0.114501953
vt 0.555664062 0.0249938965
vt 0.555664062 0.114501953
vt 0.583007812 0.0249938965
vt 0.606445312 0.114501953
vt 0.606445312 0.0249938965
vt 0.678710938 0.114501953
vt 0.678710938 0.0249938965
vt 0.694335938 0.114501953
vt 0.694335938 0.0249938965
vt 0.718261719 0.114501953
vt 0.718261719 0.0249938965
vt 0.7421875 0.114501953
vt 0.7421875 0.0249938965
vt 0.758300781 0.114501953
vt 0.758300781 0.0249938965
vt 0.830078125 0.114501953
vt 0.830078125 0.0249938965
vt 0.854003906 0.114501953
vt 0.854003906 0.0249938965
vt 0.881347656 0.114501953
vt 0.881347656 0.0249938965
vt 0.790039062 0.655761719
vt 0.844238281 0.932128906
vt 0.820800781 0.655761719
vt 0.807617188 0.939453125
vt 0.758789062 0.655761719
vt 0.772949219 0.952636719
vt 0.728027344 0.655761719
vt 0.738769531 0.967773438
vt 0.697265625 0.655761719
vt 0.703613281 0.979492188
vt 0.666503906 0.655761719
vt 0.666503906 0.984375
vt 0.635742188 0.655761719
vt 0.629394531 0.979492188
vt 0.604492188 0.655761719
vt 0.594238281 0.967773438
vt 0.573730469 0.655761719
vt 0.560058594 0.952636719
vt 0.54296875 0.655761719
vt 0.525390625 0.939453125
vt 0.512207031 0.655761719
vt 0.488769531 0.932128906
vt 0.939941406 0.235717773
vt 0.926269531 0.235839844
vt 0.929199219 0.273681641
vt 0.939941406 0.274169922
vt 0.953613281 0.235839844
vt 0.950683594 0.273681641
vt 0.952636719 0.312988281
vt 0.939941406 0.314208984
vt 0.927246094 0.312988281
vt 0.927246094 0.320800781
vt 0.939941406 0.3203125
vt 0.952636719 0.320800781
vt 0.924316406 0.363769531
vt 0.956054688 0.363769531
vt 0.939941406 0.364257812
vt 0.915039062 0.379882812
vt 0.925292969 0.416259766
vt 0.963378906 0.421630859
vt 0.969238281 0.417480469
vt 0.977050781 0.375244141
vt 0.926757812 0.471435547
vt 0.978515625 0.430664062
vt 0.916503906 0.4296875
vt 0.932617188 0.475097656
vt 0.970703125 0.467529297
vt 0.71484375 0.140380859
vt 0.745605469 0.590332031
vt 0.745605469 0.140380859
vt 0.71484375 0.590332031
vt 0.684570312 0.140380859
vt 0.684570312 0.590332031
vt 0.653808594 0.140380859
vt 0.653808594 0.590332031
vt 0.623046875 0.140380859
vt 0.623046875 0.590332031
vt 0.592285156 0.140380859
vt 0.592285156 0.590332031
vt 0.561523438 0.140380859
vt 0.561523438 0.590332031
vt 0.874023438 0.283447266
vt 0.895996094 0.606445312
vt 0.895996094 0.283447266
vt 0.874023438 0.606445312
vt 0.8515625 0.283447266
vt 0.8515625 0.606445312
vt 0.829589844 0.283447266
vt 0.829589844 0.606445312
vt 0.807617188 0.283447266
vt 0.807617188 0.606445312
vt 0.785644531 0.283447266
vt 0.785644531 0.606445312
vt 0.763671875 0.283447266
vt 0.763671875 0.606445312
vt 0.948242188 0.549316406
vt 0.983398438 0.581054688
vt 0.987792969 0.549316406
vt 0.970703125 0.600585938
vt 0.988769531 0.5234375
vt 0.948242188 0.608398438
vt 0.987304688 0.504394531
vt 0.92578125 0.600585938
vt 0.971191406 0.493408203
vt 0.913085938 0.581054688
vt 0.948242188 0.489990234
vt 0.908691406 0.549316406
vt 0.925292969 0.493408203
vt 0.907714844 0.5234375
vt 0.909667969 0.504394531
vt 0.895507812 0.696289062
vt 0.895507812 0.745605469
vt 0.924316406 0.705566406
vt 0.866699219 0.705566406
vt 0.942382812 0.73046875
vt 0.848632812 0.73046875
vt 0.942382812 0.760742188
vt 0.848632812 0.760742188
vt 0.924316406 0.78515625
vt 0.866699219 0.78515625
vt 0.895507812 0.794921875
vt 0.935546875 0.676269531
vt 0.913574219 0.64453125
vt 0.915527344 0.68359375
vt 0.950683594 0.706542969
vt 0.934570312 0.657714844
vt 0.951171875 0.622070312
vt 0.950683594 0.678710938
vt 0.986328125 0.684082031
vt 0.951171875 0.64453125
vt 0.988769531 0.645019531
vt 0.951660156 0.661621094
vt 0.967773438 0.658203125
vt 0.965820312 0.676757812
vt 0.797851562 0.149902344
vt 0.797851562 0.209716797
vt 0.821289062 0.154785156
vt 0.774414062 0.154785156
vt 0.829589844 0.16809082
vt 0.765625 0.16809082
vt 0.831542969 0.240112305
vt 0.763671875 0.240112305
vt 0.824707031 0.262939453
vt 0.770996094 0.262939453
vt 0.797851562 0.266357422
vt 0.901367188 0.261230469
vt 0.877929688 0.206420898
vt 0.877929688 0.266357422
vt 0.909667969 0.248046875
vt 0.854492188 0.261230469
vt 0.912109375 0.176025391
vt 0.846191406 0.248046875
vt 0.904785156 0.153198242
vt 0.84375 0.176025391
vt 0.877929688 0.149902344
vt 0.851074219 0.153198242
vt 0.970703125 0.0542907715
vt 0.970703125 0.0318908691
vt 0.951660156 0.0430908203
vt 0.990234375 0.0430908203
vt 0.951660156 0.0207061768
vt 0.990234375 0.0207061768
vt 0.970703125 0.00951385498
vt 0.9609375 0.919433594
vt 0.984375 0.88671875
vt 0.974609375 0.885742188
vt 0.954101562 0.913085938
vt 0.922851562 0.932128906
vt 0.922851562 0.866699219
vt 0.975097656 0.852050781
vt 0.922851562 0.922363281
vt 0.983886719 0.847167969
vt 0.884765625 0.919433594
vt 0.956054688 0.82421875
vt 0.960449219 0.814941406
vt 0.891601562 0.912597656
vt 0.861328125 0.88671875
vt 0.922851562 0.812988281
vt 0.922851562 0.802734375
vt 0.87109375 0.885742188
vt 0.861328125 0.847167969
vt 0.889648438 0.824707031
vt 0.885253906 0.814941406
vt 0.870117188 0.852050781
vn -0.984415829 0.164347634 -0.062572293
vn -0.997750819 0.024450101 -0.062413983
vn -0.94567734 0.0672349185 -0.31807825
vn -0.961065888 0.174213931 -0.214480311
vn -0.562231004 0.207478076 -0.800530612
vn -0.474348485 0.192993507 -0.858922064
vn -0.407887548 0.43486768 -0.802818656
vn -0.742277324 0.637235463 -0.207256854
vn -0.777411759 0.624866545 -0.0719214007
vn -1.29626301E-07 0.531654179 -0.846961558
vn -0 0.996557474 -0.0829058588
vn -0 0.979492307 -0.201481804
vn 0.407887369 0.434867531 -0.802818894
vn 0.742277503 0.637235641 -0.207255587
vn 0.777411819 0.624866545 -0.0719205365
vn 0.562229514 0.207477182 -0.800531805
vn 0.961065888 0.174213961 -0.214480281
vn 0.984415948 0.164347515 -0.0625720248
vn 0.474349022 0.192994252 -0.858921528
vn 0.997750819 0.0244498216 -0.0624140874
vn 0.945676804 0.0672347099 -0.318079859
vn 0.562229514 0.207477182 -0.800531805
vn -2.05747199E-07 0.225890875 -0.974152565
vn 0.474349022 0.192994252 -0.858921528
vn 0.407887369 0.434867531 -0.802818894
vn -1.29626301E-07 0.531654179 -0.846961558
vn -0.407887548 0.43486768 -0.802818656
vn -0.562231004 0.207478076 -0.800530612
vn -0.474348485 0.192993507 -0.858922064
vn 5.33153525E-06 0.188144282 -0.982141376
vn 1.75475338E-06 0.284849077 -0.958572388
vn 1.75475338E-06 0.284849077 -0.958572388
vn 5.33156572E-06 0.188143447 -0.982141614
vn 1.46323828E-05 -0.200297877 -0.979735017
vn 1.46325592E-05 -0.200308114 -0.97973299
vn 1.86713623E-05 -0.799925983 -0.60009855
vn 1.86713023E-05 -0.799932659 -0.600089848
vn 1.9479352E-05 -0.981244385 -0.192768171
vn 1.94792719E-05 -0.981243908 -0.192770228
vn 2.51272268E-05 -0.998015642 0.0629666895
vn 2.51271904E-05 -0.998015761 0.062964417
vn 2.33609026E-05 -0.736918926 0.675981224
vn 2.33608316E-05 -0.736915708 0.675984621
vn 3.32365039E-06 -0.12197344 0.992533326
vn 3.3237784E-06 -0.121976204 0.992532969
vn -1.09310167E-05 0.190264523 0.981732905
vn -1.09310176E-05 0.190264538 0.981732905
vn 0.996771276 0.042316217 0.0682376847
vn 0.997408926 0.0608944111 0.0383053795
vn 0.997408926 0.0608944073 0.0383053832
vn 0.998447895 0.0428407341 0.0355873592
vn 0.990609825 0.0156857669 0.135816664
vn 0.995146453 0.0550185852 0.0815873072
vn 0.999142408 0.0408967584 0.00648097647
vn 0.999782026 0.0181075204 -0.0103945257
vn 0.999868393 0.00950637273 -0.0131424991
vn 0.99998498 0.00515627582 -0.00186751049
vn 0.999976039 0.00126164814 -0.006818383
vn 0.998374343 0.0538849421 0.0185747631
vn 0.998658419 0.0481491499 0.0190541819
vn 0.996753633 0.0788066834 0.016482804
vn 0.996753633 0.0788066834 0.0164828058
vn -1.04549545E-05 0.498769343 0.866734743
vn -1.10213648E-06 0.0545051545 0.99851352
vn -1.10213625E-06 0.0545051545 0.99851352
vn -1.04549763E-05 0.498770416 0.866734207
vn -1.26065679E-05 0.996337295 0.08550971
vn -1.2606567E-05 0.996337414 0.0855096653
vn -3.29606337E-06 0.871461391 -0.490464061
vn -3.29616182E-06 0.871468067 -0.490452141
vn 3.10121436E-06 0.0843855441 -0.996433139
vn 3.10118457E-06 0.084392406 -0.996432543
vn 4.06169102E-06 -0.155694753 -0.987805247
vn 4.06169102E-06 -0.155694723 -0.987805247
vn -0.998451352 0.0427712128 0.0355755389
vn -0.997414351 0.0608037598 0.0383068025
vn -0.997414351 0.0608037487 0.0383067988
vn -0.996774971 0.0422323719 0.0682357922
vn -0.990612864 0.0156360026 0.135800228
vn -0.995149434 0.0549702682 0.0815832615
vn -0.999144912 0.040838033 0.00646344107
vn -0.99986887 0.0094483057 -0.0131479008
vn -0.999782979 0.0180483665 -0.0104060769
vn -0.999976039 0.00119426334 -0.00682717469
vn -0.999985337 0.0050844634 -0.0018826538
vn -0.998662353 0.0480843484 0.0190134533
vn -0.998378158 0.0538278446 0.0185349453
vn -0.996756494 0.0787783191 0.0164473336
vn -0.996756494 0.0787783191 0.0164473318
vn 0.59224844 0.148574039 0.79193902
vn -0.654045582 0.0165073555 0.756275058
vn -0.592337489 0.148518384 0.791882992
vn 0.653992832 0.0165635198 0.756319284
vn 0.465124041 -0.16597423 -0.869547129
vn -0.4005014 -0.160610974 0.902110159
vn 0.547248185 -0.366448134 -0.752485931
vn -0.465178162 -0.166001946 -0.869512856
vn 0.400555909 -0.160601079 0.902087688
vn -0.358846039 -0.84068197 -0.405565441
vn 0.358990878 -0.840625882 -0.405553609
vn -0.54723376 -0.366497546 -0.752472401
vn -0.592337489 0.148518384 0.791882992
vn -0.358846039 -0.84068197 -0.405565441
vn -0.654045582 0.0165073555 0.756275058
vn -0.4005014 -0.160610974 0.902110159
vn -0.00491961325 -0.0582572483 -0.998289406
vn -0 -0.0612724759 -0.998121083
vn -0.00523783173 -0.061271634 -0.998107433
vn -1.28679233E-07 -0.0519695282 -0.998648703
vn -0.00126235338 -0.0236055516 -0.999720514
vn 0.00523783173 -0.0612716265 -0.998107433
vn -5.29347176E-07 -0.0236055702 -0.999721348
vn 0.00491952943 -0.0582572594 -0.998289406
vn 0.00126129645 -0.0236055478 -0.999720514
vn -0.00587713299 0.99941051 -0.033822272
vn -0.0473988093 0.996983111 -0.0614649691
vn -0.0258527622 0.99855417 -0.0471301898
vn -0 0.999552786 -0.0299035981
vn 0.0258528125 0.99855417 -0.047128506
vn 0.0473989286 0.996983349 -0.0614619069
vn -0 0.999552786 -0.0299035981
vn -0 0.999018788 -0.0442894585
vn 0.00480918353 0.999007285 -0.0442885607
vn -0.00480923522 0.999007165 -0.0442893319
vn -0 -0.984461904 0.175598174
vn -0 -0.999580801 0.0289542824
vn 0.355312765 -0.934431851 0.0242871102
vn 0.383408606 -0.916880965 0.111027457
vn 0.883317351 -0.468762815 0.00344115985
vn -0 -0.888082147 0.4596847
vn 0.883351803 -0.468381941 0.0175483897
vn 0.999551713 -0.0289092083 -0.00778347393
vn 0.802965283 -0.537941515 0.256643236
vn 0.945680082 -0.310969561 0.0947995931
vn 0.965189636 -0.257232964 0.0473302156
vn 0.762456834 -0.609727561 0.216545269
vn -0 -0.955290794 0.295667827
vn 0.745805085 -0.662598372 0.0688352659
vn -0 -0.995734394 0.0922664702
vn 0.712131262 -0.700487912 0.0467523262
vn -0 -0.998296916 0.0583376773
vn 0.993293881 -0.112953238 0.0246767793
vn 0.999698281 -0.0244105756 -0.00272084377
vn 0.996088862 0.0883227587 -0.00246743532
vn 0.99581933 0.0911392942 -0.00612050155
vn 0.694325626 -0.719404042 0.0192286037
vn -0 -0.999828339 0.0185273364
vn 0.962809861 -0.268941939 0.0258369241
vn 0.997545421 -0.0674542338 0.0187883712
vn 0.946536183 0.322593153 -0.00169977802
vn 0.946650505 0.322189271 -0.00684961583
vn 0.619369924 0.785075009 -0.00617391989
vn 0.996927798 0.0780482516 0.00659098523
vn 0.618354917 0.785898864 0.000476385554
vn -0 0.999992132 -0.00398791023
vn 0.680049777 -0.731238544 0.0531265028
vn -0 -0.999192536 0.0401786007
vn 0.946215272 0.323442191 0.00786587223
vn -0 0.999996185 0.00275426218
vn -0.619369984 0.785075009 -0.00617333781
vn 0.659167886 -0.734637916 0.160638392
vn -0 -0.982815325 0.184591725
vn 0.609301507 0.792832434 0.0129791852
vn -0.618354917 0.785898745 0.00047767692
vn -0.946650505 0.322189301 -0.00684939604
vn -0.946536183 0.322593212 -0.00169968395
vn -0.99581933 0.0911393017 -0.00612030877
vn 0.942120612 0.335252047 0.00383681199
vn 0.5825243 0.812807262 0.00315731252
vn 0.997192085 0.0747248977 0.00490822177
vn 0.998819411 -0.047416646 0.010554675
vn 0.997188628 0.0747970417 0.00450279191
vn 0.967907131 -0.251173556 0.00822794531
vn 0.934158504 0.356853038 0.00196929486
vn 0.999744713 -0.0201254915 -0.0102693597
vn 0.97769928 -0.207347751 0.0333325341
vn 0.997699797 0.0663235784 -0.0140131889
vn 0.923895299 0.382644862 0.000687990629
vn 0.990018368 0.0702742338 -0.12216787
vn 0.998552859 0.0474541262 -0.0253017489
vn 0.565029204 0.825070739 0.000606200483
vn 0.550197542 0.835027218 0.00349303894
vn 0.987835467 -0.145017996 0.0561318398
vn -0 0.999997854 0.00206385017
vn -0 0.999994755 0.0032583843
vn -0 0.99985826 0.0168375764
vn -0.565029144 0.825070739 0.000606139598
vn -0.550197482 0.835027218 0.00349326292
vn 0.978528738 0.205661595 0.013592992
vn 0.661511362 -0.411554277 0.62691766
vn -0 0.999903679 0.0138785876
vn -0.609301567 0.792832375 0.0129801063
vn -0.5825243 0.812807262 0.00315710437
vn -0.946215272 0.323442221 0.00786572043
vn -0.942120612 0.335252047 0.00383669487
vn -0.996927798 0.078048259 0.00659103971
vn -0.934158504 0.356853008 0.00196921383
vn -0.923895299 0.382644802 0.000687981374
vn -0.997192085 0.0747249126 0.0049082106
vn -0.993293881 -0.112953261 0.0246768296
vn -0.996088862 0.0883227587 -0.00246727536
vn -0.997188628 0.0747970492 0.00450276304
vn -0.997699797 0.0663236231 -0.0140132196
vn -0.999698281 -0.0244107414 -0.00272102817
vn -0.999551713 -0.0289094001 -0.00778358616
vn -0.883351803 -0.468382031 0.0175486766
vn -0.883317292 -0.468762934 0.0034415673
vn -0.355312765 -0.934431851 0.0242873076
vn -0.997545421 -0.0674542263 0.0187883656
vn -0.965189636 -0.257232964 0.0473302566
vn -0.998819411 -0.0474166609 0.0105546732
vn -0.383408606 -0.916880965 0.111027107
vn -0 -0.999580801 0.0289542824
vn -0 -0.984461904 0.175598174
vn -0 -0.888082147 0.4596847
vn -0.945680082 -0.310969561 0.0947996601
vn -0.802965224 -0.537941456 0.256643385
vn -0 -0.955290794 0.295667827
vn -0.762456834 -0.609727681 0.216545299
vn -0 -0.995734394 0.0922664702
vn -0.745805025 -0.662598312 0.0688355044
vn -0 -0.998296916 0.0583376773
vn -0.712131321 -0.700487852 0.0467524342
vn -0 -0.999828339 0.0185273364
vn -0.962809861 -0.268941939 0.0258368962
vn -0.694325507 -0.719404101 0.0192288719
vn -0 -0.999192536 0.0401786007
vn -0.999744713 -0.020125499 -0.0102693141
vn -0.967907131 -0.251173586 0.00822781865
vn -0.680049896 -0.731238663 0.0531261079
vn -0 -0.982815325 0.184591725
vn -0.97769928 -0.207347766 0.0333325155
vn -0.998552859 0.047454197 -0.0253017098
vn -0.990018368 0.0702743754 -0.122167863
vn -0.659168005 -0.734637976 0.160637572
vn -0.987835586 -0.145017982 0.0561318472
vn -0.559057534 0.798146725 -0.224536061
vn -0.216795787 0.691980243 -0.688594937
vn -0 0.702732503 -0.711454153
vn -0.255032241 -0.454719931 0.853339493
vn -3.91093806E-07 -0.217584401 0.976041496
vn -0.661511362 -0.411554098 0.62691772
vn -0.558130145 -0.357365727 0.74885273
vn -1.312129E-07 -0.421517223 0.906820357
vn -0.632413268 -0.739226997 0.231510431
vn -0 -0.95717907 0.28949672
vn -0.874541223 -0.211067498 0.436609924
vn -0.61025393 -0.773572743 0.170808047
vn -0 -0.980784655 0.195093393
vn -0 0.943874359 -0.330304444
vn 0.216795847 0.691980302 -0.688594878
vn -0.996668875 -0.0180872511 0.0795233324
vn -0.959448397 -0.266036242 0.0931850001
vn -0.999477684 0.0281328075 0.0159088075
vn -0.979081392 0.203468055 0.000639669946
vn -0.335594684 -0.940352678 -0.0557946004
vn -0 -0.992789328 -0.1198726
vn -0.276115596 -0.286248356 -0.917508602
vn -0 -0.304614216 -0.952475846
vn -0.9146837 -0.356617302 -0.19020468
vn -0.261449516 -0.114155561 -0.958442867
vn -0 -0.11118529 -0.993799746
vn -0 0.0114981756 -0.999933958
vn -0.969359934 -0.241064414 0.0472156629
vn -0.999612272 0.0245241448 -0.0131887626
vn -0.96471256 -0.0692363679 -0.254039377
vn -0.241522655 0.00664882176 -0.970372379
vn -0 0.137326047 -0.990525842
vn -0.969996333 0.023262497 -0.242004141
vn -0.228175581 0.139064267 -0.963637412
vn -0 0.425314575 -0.905045629
vn -0.984960735 0.171976879 -0.0166224781
vn -0.959360063 0.116867147 -0.256846845
vn -0.216765478 0.455213189 -0.8635934
vn -0.871857285 0.359677076 -0.332411289
vn -0.167241752 0.980628967 -0.101965956
vn -1.01939484E-07 0.980548739 -0.196275607
vn -0 0.999995232 0.00311469892
vn -0.555891097 0.831252694 0.00199335977
vn -0.302916765 0.952606499 -0.0279708486
vn -0.560542166 0.828071773 -0.0094651375
vn 0.167241573 0.980628848 -0.101967633
vn -0 0.425314575 -0.905045629
vn -0.978528738 0.205661595 0.0135929855
vn -0.472017586 0.880430937 -0.0451736748
vn -0 0.999989271 -0.00464267842
vn -0 0.998735607 -0.0502716862
vn 0.559057474 0.798146784 -0.224536091
vn 0.472017616 0.880430937 -0.045173984
vn 0.560542047 0.828071833 -0.00946540385
vn 0.979081392 0.203468069 0.000639587175
vn 0.555891097 0.831252694 0.00199325709
vn 0.996668875 -0.0180873051 0.0795232505
vn 0.984960735 0.171976894 -0.0166225079
vn 0.302916795 0.95260638 -0.0279721133
vn 0.216764897 0.455211639 -0.863594472
vn 0.871857166 0.359676391 -0.332412362
vn 0.228176132 0.139064297 -0.963637292
vn -0 0.137326047 -0.990525842
vn -0 0.0114981756 -0.999933958
vn 0.959360063 0.116867147 -0.256846815
vn 0.241523176 0.00664886227 -0.97037226
vn -0 -0.11118529 -0.993799746
vn 0.969996333 0.0232625064 -0.242004097
vn 0.261449575 -0.114155553 -0.958442867
vn -0 -0.304614216 -0.952475846
vn 0.999612272 0.0245241262 -0.0131887263
vn 0.96471256 -0.0692363903 -0.254039496
vn 0.999477684 0.0281327832 0.0159087963
vn 0.969359934 -0.241064355 0.047215689
vn 0.91468358 -0.356617302 -0.190205142
vn 0.276115298 -0.286248177 -0.917508721
vn 0.335594535 -0.940352798 -0.0557945296
vn -0 -0.992789328 -0.1198726
vn -0 -0.980784655 0.195093393
vn 0.61025393 -0.773572743 0.170808062
vn 0.874541223 -0.211067542 0.436609924
vn 0.959448397 -0.266036183 0.0931850076
vn 0.632413268 -0.739226997 0.231510431
vn -0 -0.95717907 0.28949672
vn -1.312129E-07 -0.421517223 0.906820357
vn 0.558130562 -0.357365996 0.748852253
vn -3.91093806E-07 -0.217584401 0.976041496
vn 0.255032748 -0.454720765 0.853338897
vn -0.609441161 -0.792831302 0
vn -0 -1 0
vn -0 -1 0
vn -0.609441161 -0.792831302 0
vn -0.998624802 -0.0524265654 0
vn -0.998624802 -0.0524265654 0
vn -0.992486 0.122358359 0
vn -0.992486 0.122358359 0
vn -0.493858457 0.869542241 0
vn -0.493858457 0.869542241 0
vn -0 1 0
vn -0 1 0
vn 0.493858486 0.869542241 0
vn 0.493858486 0.869542241 0
vn 0.992485881 0.122358389 0
vn 0.992485881 0.122358389 0
vn 0.998624802 -0.05242645 0
vn 0.998624802 -0.05242645 0
vn 0.60944128 -0.792831242 0
vn 0.60944128 -0.792831242 0
vn -0 -1 0
vn -0 -1 0
vn -0.575640559 -0.817316711 -0.0251266211
vn -3.63032377E-05 -0.999960899 -0.00884106476
vn -0 -0.99978441 -0.0207669958
vn -0.607035279 -0.794564843 -0.0132203111
vn -0.950332642 -0.309580147 -0.0320608318
vn -0.968957365 -0.246515393 -0.0187540427
vn -0.94216609 0.333668858 -0.0314345285
vn -0.91917491 0.393577397 -0.0146414349
vn -0.564768434 0.824890614 -0.0243295971
vn -0.53428793 0.845281303 -0.00599856023
vn 1.32525633E-06 0.999792635 -0.0203654617
vn -6.63738174E-05 0.999996662 -0.00260180305
vn 0.564761579 0.824895382 -0.0243295357
vn 0.53419733 0.845335722 -0.00638251891
vn 0.942162395 0.333679259 -0.0314344019
vn 0.91915518 0.393617928 -0.0147902817
vn 0.950329602 -0.309589684 -0.0320606977
vn 0.968955457 -0.246509388 -0.0189304724
vn 0.57563138 -0.817323208 -0.0251263604
vn 0.607007682 -0.794580281 -0.0135607971
vn -0 -0.99978441 -0.0207669958
vn -3.63032377E-05 -0.999960899 -0.00884106476
vn -0 0.191477895 -0.98149693
vn 0.0434674956 0.191296935 -0.980569243
vn 0.103505783 0.680446208 -0.725451231
vn -1.28431864E-07 0.716950357 -0.697124302
vn -0.0434674956 0.191296935 -0.980569243
vn -0.103505947 0.680445552 -0.725451767
vn -0.14289479 0.985183299 -0.0948421732
vn -2.89603435E-07 0.996718585 -0.0809449628
vn 0.142894223 0.985183418 -0.0948411599
vn 0.119026758 0.320536435 0.939728141
vn -6.55955716E-07 0.334533483 0.942383826
vn -0.119027972 0.320536494 0.939728022
vn 0.109502129 0.248039201 0.962541282
vn -0.109503329 0.248039171 0.962541163
vn -6.3143392E-07 0.249539807 0.968364537
vn -0.996596992 0.0698961318 -0.0436901599
vn -0.994177341 0.0875691548 -0.0627926737
vn -0.996699989 0.0683306605 -0.04381679
vn -0.997600734 0.0603707545 -0.0338839851
vn -0.997416496 0.0624298118 -0.0355368778
vn 0.997600734 0.0603707395 -0.0338838473
vn 0.996597111 0.0698961169 -0.0436899699
vn 0.997416496 0.0624297895 -0.0355367176
vn 0.996699989 0.0683306679 -0.0438166372
vn 0.994177461 0.0875691548 -0.0627923757
vn -0.866025686 -0.499999523 0
vn -0 -1 0
vn -0 -1 0
vn -0.866025686 -0.499999523 0
vn -0.866025507 0.499999732 0
vn -0.866025507 0.499999732 0
vn -0 1 0
vn -0 1 0
vn 0.866025686 0.499999493 0
vn 0.866025686 0.499999493 0
vn 0.866025627 -0.499999702 0
vn 0.866025627 -0.499999702 0
vn -0 -1 0
vn -0 -1 0
vn -0.866025507 -0.499999732 0
vn -0 -0.999737561 0.0229064897
vn -0 -1 0
vn -0.865798295 -0.499868572 0.0229063462
vn -0.866025448 0.49999997 0
vn -0.865798116 0.49986881 0.0229063313
vn -0 1 0
vn -0 0.999737561 0.0229063667
vn 0.866025627 0.499999762 0
vn 0.865798414 0.499868572 0.0229060389
vn 0.866025507 -0.499999851 0
vn 0.865798235 -0.499868721 0.0229061451
vn -0 -1 0
vn -0 -0.999737561 0.0229064897
vn -0 0.00361853559 0.999993443
vn 0.0707786158 0.0286427606 0.997080624
vn 0.0853582174 0.00763424346 0.996321082
vn 0.0342065729 0.0509965606 0.998112798
vn 0.0818360969 -0.00322111137 0.996640563
vn -0 0.0574673079 0.998347402
vn 0.0458307639 -0.0358388871 0.998306155
vn -0.0342071243 0.0509968102 0.998112798
vn 0.0194839817 -0.0526682027 0.998421907
vn -0.0707793832 0.0286429059 0.997080624
vn -0 -0.0572257526 0.99836129
vn -0.0853576437 0.00763420528 0.996321201
vn -0.0194837507 -0.0526678041 0.998422027
vn -0.0818365589 -0.00322113978 0.996640563
vn -0.0458308384 -0.0358388573 0.998306155
vn -0 0 -1
vn -0 0 -1
vn -1.27154863E-06 0 -1
vn 6.35768231E-07 0 -1
vn -1.27154078E-06 0 -1
vn 6.35765559E-07 0 -1
vn -6.357713E-07 0 -1
vn 1.27153248E-06 0 -1
vn -6.35775052E-07 0 -1
vn 1.27153749E-06 0 -1
vn -0 0 -1
vn -0.824481905 -0.532467961 -0.191591725
vn -0.87725389 0.478829265 -0.0338834114
vn -0.838680327 -0.543799222 -0.0299624018
vn -0 -0.999896169 -0.0144069558
vn -0.846255183 0.501529157 -0.179779336
vn -0 0.999752343 -0.022251498
vn -1.72801109E-07 -0.982637584 -0.185535118
vn 0.838680148 -0.543799341 -0.0299641136
vn -1.42494883E-07 0.985821784 -0.167796105
vn 0.87725389 0.478829265 -0.0338834412
vn -6.14153862E-07 0.0125101106 -0.999921799
vn 0.846255183 0.501529098 -0.179779485
vn 0.824481487 -0.532467961 -0.191593349
vn 6.46835531E-07 0 -1
vn -0 0 -1
vn 1.1983492E-06 0 -1
vn -2.69797084E-07 0 -1
vn -1.1154101E-06 0 -1
vn 1.1154101E-06 0 -1
vn -0 0 -1
vn -0 0 -1
vn -0 0 -1
vn -0 0 -1
vn -0 0 -1
vn -0 0 1
vn 1.47341012E-07 0 1
vn -0 0 1
vn -0 0 1
vn -0 0 1
vn -0 0 1
vn -0 0 1
vn -0 0 1
vn -0 0 1
vn 1.19065419E-06 0 1
vn 1.69323539E-06 0 1
vn -0 0.999737561 0.0229063667
vn -0 5.31820547E-07 1
vn -0.865798116 0.49986881 0.0229063313
vn 0.865798414 0.499868572 0.0229060389
vn -0.865798295 -0.499868572 0.0229063462
vn 0.865798235 -0.499868721 0.0229061451
vn -0 -0.999737561 0.0229064897
vn 0.53419733 0.845335722 -0.00638251891
vn 0.91915518 0.393617928 -0.0147902817
vn 0.258620054 -0.272212356 0.926831186
vn 0.160151362 -0.133422315 0.978033721
vn -6.63738174E-05 0.999996662 -0.00260180305
vn -0.000536478707 -0.383543938 0.923522532
vn 0.247691691 -0.428946465 0.868708134
vn -0.00120091077 -0.0833920017 0.996516109
vn 0.968955457 -0.246509388 -0.0189304724
vn -0.53428793 0.845281303 -0.00599856023
vn 0.147015855 -0.542269945 0.827242255
vn 0.607007682 -0.794580281 -0.0135607971
vn -0.159403414 -0.136295483 0.977759778
vn -0.91917491 0.393577397 -0.0146414349
vn -0.000769005565 -0.58124584 0.813727617
vn -3.63032377E-05 -0.999960899 -0.00884106476
vn -0.257352114 -0.27156204 0.927374721
vn -0.968957365 -0.246515393 -0.0187540427
vn -0.145122752 -0.540436208 0.828775048
vn -0.607035279 -0.794564843 -0.0132203111
vn -0.246709391 -0.429095238 0.868914127
g A_soldier_bubing02_wep_0
f 3/3/3 2/2/2 1/1/1
f 4/4/4 3/3/3 1/1/1
f 4/4/4 5/5/5 3/3/3
f 5/5/5 6/6/6 3/3/3
f 5/5/5 4/4/4 7/7/7
f 8/8/8 4/4/4 1/1/1
f 4/4/4 8/8/8 7/7/7
f 9/9/9 8/8/8 1/1/1
f 7/7/7 8/8/8 10/10/10
f 8/8/8 9/9/9 11/11/11
f 8/8/8 12/12/12 10/10/10
f 12/12/12 8/8/8 11/11/11
f 10/10/10 12/12/12 13/13/13
f 14/14/14 12/12/12 11/11/11
f 12/12/12 14/14/14 13/13/13
f 15/15/15 14/14/14 11/11/11
f 13/13/13 14/14/14 16/16/16
f 17/17/17 14/14/14 15/15/15
f 14/14/14 17/17/17 16/16/16
f 18/18/18 17/17/17 15/15/15
f 19/19/19 16/16/16 17/17/17
f 18/18/18 20/20/20 17/17/17
f 21/21/21 19/19/19 17/17/17
f 20/20/20 21/21/21 17/17/17
f 24/24/24 23/23/23 22/22/22
f 22/22/22 23/23/23 25/25/25
f 25/25/25 23/23/23 26/26/26
f 26/26/26 23/23/23 27/27/27
f 27/27/27 23/23/23 28/28/28
f 28/28/28 23/23/23 29/29/29
f 32/32/32 31/31/31 30/30/30
f 31/31/31 33/33/33 30/30/30
f 30/30/30 33/33/33 34/34/34
f 33/33/33 35/35/35 34/34/34
f 34/34/34 35/35/35 36/36/36
f 35/35/35 37/37/37 36/36/36
f 37/37/37 38/38/38 36/36/36
f 38/38/38 39/39/39 36/36/36
f 38/38/38 40/40/40 39/39/39
f 40/40/40 41/41/41 39/39/39
f 40/40/40 42/42/42 41/41/41
f 42/42/42 43/43/43 41/41/41
f 42/42/42 44/44/44 43/43/43
f 44/44/44 45/45/45 43/43/43
f 44/44/44 46/46/46 45/45/45
f 46/46/46 47/47/47 45/45/45
f 50/50/50 49/49/49 48/48/48
f 49/49/49 51/51/51 48/48/48
f 48/48/48 51/51/51 52/52/52
f 51/51/51 53/53/53 52/52/52
f 51/51/51 54/54/54 53/53/53
f 51/51/51 55/55/55 54/54/54
f 55/55/55 56/56/56 54/54/54
f 55/55/55 57/57/57 56/56/56
f 57/57/57 58/58/58 56/56/56
f 57/57/57 59/59/59 58/58/58
f 59/59/59 60/60/60 58/58/58
f 59/59/59 61/61/61 60/60/60
f 61/61/61 62/62/62 60/60/60
f 65/65/65 64/64/64 63/63/63
f 64/64/64 66/66/66 63/63/63
f 66/66/66 67/67/67 63/63/63
f 67/67/67 68/68/68 63/63/63
f 67/67/67 69/69/69 68/68/68
f 69/69/69 70/70/70 68/68/68
f 69/69/69 71/71/71 70/70/70
f 71/71/71 72/72/72 70/70/70
f 71/71/71 73/73/73 72/72/72
f 73/73/73 74/74/74 72/72/72
f 77/77/77 76/76/76 75/75/75
f 76/76/76 78/78/78 75/75/75
f 75/75/75 78/78/78 79/79/79
f 75/75/75 79/79/79 80/80/80
f 75/75/75 80/80/80 81/81/81
f 81/81/81 82/82/82 75/75/75
f 82/82/82 83/83/83 75/75/75
f 82/82/82 84/84/84 83/83/83
f 84/84/84 85/85/85 83/83/83
f 84/84/84 86/86/86 85/85/85
f 86/86/86 87/87/87 85/85/85
f 86/86/86 88/88/88 87/87/87
f 88/88/88 89/89/89 87/87/87
f 92/92/92 91/91/91 90/90/90
f 91/91/91 93/93/93 90/90/90
f 90/90/90 93/93/93 94/94/94
f 91/91/91 95/95/95 93/93/93
f 93/93/93 96/96/96 94/94/94
f 94/94/94 96/96/96 97/97/97
f 95/95/95 98/98/98 93/93/93
f 93/93/93 98/98/98 96/96/96
f 98/98/98 95/95/95 99/99/99
f 100/100/100 98/98/98 99/99/99
f 98/98/98 100/100/100 96/96/96
f 96/96/96 101/101/101 97/97/97
f 96/96/96 100/100/100 101/101/101
f 97/97/97 101/101/101 102/102/102
f 100/100/100 103/103/103 101/101/101
f 101/101/101 104/104/104 102/102/102
f 101/101/101 103/103/103 104/104/104
f 103/103/103 105/105/105 104/104/104
f 108/108/108 107/107/107 106/106/106
f 107/107/107 109/109/109 106/106/106
f 110/110/110 106/106/106 109/109/109
f 107/107/107 111/111/111 109/109/109
f 112/112/112 110/110/110 109/109/109
f 111/111/111 113/113/113 109/109/109
f 112/112/112 109/109/109 113/113/113
f 114/114/114 112/112/112 113/113/113
f 117/117/117 116/116/116 115/115/115
f 117/117/117 115/115/115 118/118/118
f 115/115/115 120/120/120 119/119/119
f 119/119/119 121/121/121 115/115/115
f 123/123/123 122/122/122 115/115/115
f 115/115/115 122/122/122 124/124/124
f 127/127/127 126/126/126 125/125/125
f 128/128/128 127/127/127 125/125/125
f 129/129/129 127/127/127 128/128/128
f 130/130/130 128/128/128 125/125/125
f 131/131/131 129/129/129 128/128/128
f 132/132/132 129/129/129 131/131/131
f 130/130/130 133/133/133 128/128/128
f 134/134/134 131/131/131 128/128/128
f 133/133/133 134/134/134 128/128/128
f 134/134/134 133/133/133 135/135/135
f 133/133/133 130/130/130 136/136/136
f 133/133/133 136/136/136 135/135/135
f 130/130/130 137/137/137 136/136/136
f 136/136/136 137/137/137 138/138/138
f 136/136/136 138/138/138 135/135/135
f 137/137/137 139/139/139 138/138/138
f 138/138/138 139/139/139 140/140/140
f 138/138/138 140/140/140 135/135/135
f 139/139/139 141/141/141 140/140/140
f 134/134/134 142/142/142 131/131/131
f 134/134/134 135/135/135 142/142/142
f 143/143/143 132/132/132 131/131/131
f 142/142/142 143/143/143 131/131/131
f 143/143/143 144/144/144 132/132/132
f 143/143/143 142/142/142 144/144/144
f 144/144/144 145/145/145 132/132/132
f 140/140/140 141/141/141 146/146/146
f 141/141/141 147/147/147 146/146/146
f 140/140/140 148/148/148 135/135/135
f 140/140/140 146/146/146 148/148/148
f 135/135/135 149/149/149 142/142/142
f 135/135/135 148/148/148 149/149/149
f 144/144/144 150/150/150 145/145/145
f 150/150/150 151/151/151 145/145/145
f 152/152/152 151/151/151 150/150/150
f 142/142/142 153/153/153 144/144/144
f 142/142/142 149/149/149 153/153/153
f 150/150/150 144/144/144 153/153/153
f 154/154/154 152/152/152 150/150/150
f 155/155/155 152/152/152 154/154/154
f 156/156/156 146/146/146 147/147/147
f 157/157/157 156/156/156 147/147/147
f 158/158/158 150/150/150 153/153/153
f 154/154/154 150/150/150 158/158/158
f 159/159/159 155/155/155 154/154/154
f 160/160/160 155/155/155 159/159/159
f 156/156/156 157/157/157 161/161/161
f 157/157/157 162/162/162 161/161/161
f 163/163/163 154/154/154 158/158/158
f 159/159/159 154/154/154 163/163/163
f 164/164/164 160/160/160 159/159/159
f 165/165/165 160/160/160 164/164/164
f 166/166/166 165/165/165 164/164/164
f 167/167/167 165/165/165 166/166/166
f 158/158/158 153/153/153 168/168/168
f 163/163/163 158/158/158 169/169/169
f 158/158/158 168/168/168 169/169/169
f 153/153/153 170/170/170 168/168/168
f 149/149/149 170/170/170 153/153/153
f 149/149/149 171/171/171 170/170/170
f 148/148/148 171/171/171 149/149/149
f 170/170/170 172/172/172 168/168/168
f 171/171/171 172/172/172 170/170/170
f 148/148/148 173/173/173 171/171/171
f 146/146/146 173/173/173 148/148/148
f 168/168/168 174/174/174 169/169/169
f 172/172/172 174/174/174 168/168/168
f 171/171/171 175/175/175 172/172/172
f 173/173/173 175/175/175 171/171/171
f 176/176/176 173/173/173 146/146/146
f 156/156/156 176/176/176 146/146/146
f 172/172/172 177/177/177 174/174/174
f 175/175/175 177/177/177 172/172/172
f 177/177/177 178/178/178 174/174/174
f 179/179/179 177/177/177 175/175/175
f 180/180/180 175/175/175 173/173/173
f 180/180/180 179/179/179 175/175/175
f 176/176/176 180/180/180 173/173/173
f 174/174/174 178/178/178 181/181/181
f 174/174/174 181/181/181 169/169/169
f 178/178/178 182/182/182 181/181/181
f 176/176/176 156/156/156 183/183/183
f 156/156/156 161/161/161 183/183/183
f 169/169/169 181/181/181 184/184/184
f 163/163/163 169/169/169 184/184/184
f 181/181/181 182/182/182 185/185/185
f 181/181/181 185/185/185 184/184/184
f 182/182/182 186/186/186 185/185/185
f 185/185/185 186/186/186 187/187/187
f 186/186/186 188/188/188 187/187/187
f 189/189/189 180/180/180 176/176/176
f 183/183/183 189/189/189 176/176/176
f 161/161/161 190/190/190 183/183/183
f 161/161/161 162/162/162 190/190/190
f 191/191/191 163/163/163 184/184/184
f 191/191/191 159/159/159 163/163/163
f 191/191/191 192/192/192 159/159/159
f 191/191/191 184/184/184 192/192/192
f 192/192/192 164/164/164 159/159/159
f 184/184/184 193/193/193 192/192/192
f 184/184/184 185/185/185 193/193/193
f 185/185/185 187/187/187 193/193/193
f 192/192/192 194/194/194 164/164/164
f 192/192/192 193/193/193 194/194/194
f 194/194/194 166/166/166 164/164/164
f 193/193/193 187/187/187 195/195/195
f 193/193/193 195/195/195 194/194/194
f 194/194/194 196/196/196 166/166/166
f 194/194/194 195/195/195 196/196/196
f 187/187/187 197/197/197 195/195/195
f 187/187/187 188/188/188 197/197/197
f 188/188/188 198/198/198 197/197/197
f 195/195/195 197/197/197 199/199/199
f 195/195/195 199/199/199 196/196/196
f 196/196/196 199/199/199 200/200/200
f 196/196/196 201/201/201 166/166/166
f 196/196/196 200/200/200 201/201/201
f 201/201/201 167/167/167 166/166/166
f 197/197/197 198/198/198 202/202/202
f 197/197/197 202/202/202 199/199/199
f 198/198/198 203/203/203 202/202/202
f 201/201/201 204/204/204 167/167/167
f 200/200/200 204/204/204 201/201/201
f 204/204/204 205/205/205 167/167/167
f 204/204/204 206/206/206 205/205/205
f 206/206/206 204/204/204 200/200/200
f 206/206/206 207/207/207 205/205/205
f 208/208/208 207/207/207 206/206/206
f 199/199/199 202/202/202 209/209/209
f 199/199/199 209/209/209 200/200/200
f 200/200/200 209/209/209 210/210/210
f 202/202/202 211/211/211 209/209/209
f 202/202/202 203/203/203 211/211/211
f 209/209/209 211/211/211 210/210/210
f 212/212/212 208/208/208 206/206/206
f 213/213/213 208/208/208 212/212/212
f 214/214/214 213/213/213 212/212/212
f 215/215/215 214/214/214 212/212/212
f 216/216/216 206/206/206 200/200/200
f 216/216/216 212/212/212 206/206/206
f 216/216/216 200/200/200 210/210/210
f 217/217/217 215/215/215 212/212/212
f 216/216/216 217/217/217 212/212/212
f 215/215/215 217/217/217 218/218/218
f 217/217/217 216/216/216 219/219/219
f 217/217/217 219/219/219 218/218/218
f 216/216/216 210/210/210 219/219/219
f 218/218/218 219/219/219 220/220/220
f 219/219/219 221/221/221 220/220/220
f 219/219/219 210/210/210 221/221/221
f 220/220/220 221/221/221 222/222/222
f 221/221/221 223/223/223 222/222/222
f 221/221/221 210/210/210 223/223/223
f 222/222/222 223/223/223 224/224/224
f 210/210/210 225/225/225 223/223/223
f 211/211/211 225/225/225 210/210/210
f 223/223/223 226/226/226 224/224/224
f 223/223/223 225/225/225 226/226/226
f 227/227/227 224/224/224 226/226/226
f 211/211/211 228/228/228 225/225/225
f 203/203/203 228/228/228 211/211/211
f 225/225/225 229/229/229 226/226/226
f 228/228/228 229/229/229 225/225/225
f 230/230/230 227/227/227 226/226/226
f 231/231/231 227/227/227 230/230/230
f 226/226/226 229/229/229 232/232/232
f 229/229/229 228/228/228 232/232/232
f 230/230/230 226/226/226 232/232/232
f 228/228/228 203/203/203 233/233/233
f 228/228/228 233/233/233 232/232/232
f 203/203/203 234/234/234 233/233/233
f 235/235/235 231/231/231 230/230/230
f 235/235/235 230/230/230 232/232/232
f 232/232/232 233/233/233 236/236/236
f 236/236/236 235/235/235 232/232/232
f 237/237/237 233/233/233 234/234/234
f 237/237/237 234/234/234 238/238/238
f 237/237/237 238/238/238 239/239/239
f 231/231/231 235/235/235 240/240/240
f 240/240/240 241/241/241 231/231/231
f 235/235/235 242/242/242 240/240/240
f 235/235/235 236/236/236 242/242/242
f 240/240/240 243/243/243 241/241/241
f 240/240/240 242/242/242 243/243/243
f 243/243/243 244/244/244 241/241/241
f 243/243/243 245/245/245 244/244/244
f 245/245/245 246/246/246 244/244/244
f 242/242/242 247/247/247 243/243/243
f 243/243/243 247/247/247 245/245/245
f 245/245/245 248/248/248 246/246/246
f 248/248/248 249/249/249 246/246/246
f 250/250/250 237/237/237 239/239/239
f 239/239/239 251/251/251 250/250/250
f 236/236/236 252/252/252 242/242/242
f 242/242/242 252/252/252 247/247/247
f 247/247/247 253/253/253 245/245/245
f 245/245/245 253/253/253 248/248/248
f 252/252/252 254/254/254 247/247/247
f 247/247/247 254/254/254 253/253/253
f 255/255/255 252/252/252 236/236/236
f 255/255/255 254/254/254 252/252/252
f 248/248/248 256/256/256 249/249/249
f 256/256/256 257/257/257 249/249/249
f 256/256/256 258/258/258 257/257/257
f 258/258/258 259/259/259 257/257/257
f 248/248/248 260/260/260 256/256/256
f 258/258/258 256/256/256 260/260/260
f 258/258/258 261/261/261 259/259/259
f 258/258/258 260/260/260 261/261/261
f 261/261/261 262/262/262 259/259/259
f 262/262/262 261/261/261 263/263/263
f 253/253/253 264/264/264 248/248/248
f 248/248/248 264/264/264 260/260/260
f 253/253/253 254/254/254 265/265/265
f 264/264/264 253/253/253 265/265/265
f 264/264/264 266/266/266 260/260/260
f 260/260/260 266/266/266 261/261/261
f 264/264/264 265/265/265 266/266/266
f 261/261/261 267/267/267 263/263/263
f 261/261/261 266/266/266 267/267/267
f 263/263/263 267/267/267 268/268/268
f 266/266/266 269/269/269 267/267/267
f 265/265/265 269/269/269 266/266/266
f 267/267/267 270/270/270 268/268/268
f 267/267/267 269/269/269 270/270/270
f 271/271/271 268/268/268 270/270/270
f 272/272/272 265/265/265 254/254/254
f 255/255/255 272/272/272 254/254/254
f 273/273/273 269/269/269 265/265/265
f 269/269/269 273/273/273 270/270/270
f 272/272/272 273/273/273 265/265/265
f 274/274/274 271/271/271 270/270/270
f 274/274/274 270/270/270 273/273/273
f 275/275/275 273/273/273 272/272/272
f 275/275/275 274/274/274 273/273/273
f 274/274/274 276/276/276 271/271/271
f 274/274/274 275/275/275 276/276/276
f 276/276/276 277/277/277 271/271/271
f 278/278/278 277/277/277 276/276/276
f 272/272/272 279/279/279 275/275/275
f 279/279/279 272/272/272 255/255/255
f 278/278/278 276/276/276 279/279/279
f 275/275/275 280/280/280 276/276/276
f 276/276/276 280/280/280 279/279/279
f 279/279/279 280/280/280 275/275/275
f 281/281/281 279/279/279 255/255/255
f 278/278/278 279/279/279 281/281/281
f 282/282/282 277/277/277 278/278/278
f 283/283/283 277/277/277 282/282/282
f 281/281/281 255/255/255 284/284/284
f 284/284/284 255/255/255 236/236/236
f 233/233/233 284/284/284 236/236/236
f 284/284/284 233/233/233 237/237/237
f 285/285/285 284/284/284 237/237/237
f 285/285/285 281/281/281 284/284/284
f 237/237/237 250/250/250 285/285/285
f 286/286/286 281/281/281 285/285/285
f 286/286/286 278/278/278 281/281/281
f 250/250/250 287/287/287 285/285/285
f 287/287/287 286/286/286 285/285/285
f 287/287/287 250/250/250 288/288/288
f 251/251/251 288/288/288 250/250/250
f 251/251/251 179/179/179 288/288/288
f 179/179/179 180/180/180 288/288/288
f 289/289/289 287/287/287 288/288/288
f 288/288/288 180/180/180 289/289/289
f 287/287/287 289/289/289 286/286/286
f 180/180/180 189/189/189 289/289/289
f 286/286/286 290/290/290 278/278/278
f 289/289/289 290/290/290 286/286/286
f 189/189/189 291/291/291 289/289/289
f 291/291/291 290/290/290 289/289/289
f 290/290/290 292/292/292 278/278/278
f 278/278/278 292/292/292 282/282/282
f 293/293/293 291/291/291 189/189/189
f 183/183/183 293/293/293 189/189/189
f 190/190/190 293/293/293 183/183/183
f 294/294/294 292/292/292 290/290/290
f 291/291/291 294/294/294 290/290/290
f 292/292/292 295/295/295 282/282/282
f 296/296/296 282/282/282 295/295/295
f 296/296/296 283/283/283 282/282/282
f 297/297/297 295/295/295 292/292/292
f 297/297/297 296/296/296 295/295/295
f 294/294/294 297/297/297 292/292/292
f 296/296/296 298/298/298 283/283/283
f 296/296/296 297/297/297 298/298/298
f 298/298/298 299/299/299 283/283/283
f 299/299/299 298/298/298 300/300/300
f 297/297/297 301/301/301 298/298/298
f 294/294/294 301/301/301 297/297/297
f 298/298/298 302/302/302 300/300/300
f 298/298/298 301/301/301 302/302/302
f 300/300/300 302/302/302 303/303/303
f 304/304/304 301/301/301 294/294/294
f 301/301/301 304/304/304 302/302/302
f 302/302/302 305/305/305 303/303/303
f 302/302/302 304/304/304 305/305/305
f 306/306/306 303/303/303 305/305/305
f 307/307/307 304/304/304 294/294/294
f 307/307/307 294/294/294 291/291/291
f 304/304/304 308/308/308 305/305/305
f 308/308/308 304/304/304 307/307/307
f 309/309/309 307/307/307 291/291/291
f 293/293/293 309/309/309 291/291/291
f 310/310/310 308/308/308 307/307/307
f 310/310/310 307/307/307 309/309/309
f 305/305/305 308/308/308 311/311/311
f 310/310/310 311/311/311 308/308/308
f 312/312/312 306/306/306 305/305/305
f 312/312/312 305/305/305 311/311/311
f 312/312/312 313/313/313 306/306/306
f 312/312/312 311/311/311 313/313/313
f 313/313/313 314/314/314 306/306/306
f 315/315/315 314/314/314 313/313/313
f 316/316/316 313/313/313 311/311/311
f 310/310/310 316/316/316 311/311/311
f 316/316/316 315/315/315 313/313/313
f 317/317/317 309/309/309 293/293/293
f 190/190/190 317/317/317 293/293/293
f 318/318/318 310/310/310 309/309/309
f 316/316/316 310/310/310 318/318/318
f 317/317/317 318/318/318 309/309/309
f 316/316/316 319/319/319 315/315/315
f 319/319/319 316/316/316 318/318/318
f 319/319/319 320/320/320 315/315/315
f 321/321/321 320/320/320 319/319/319
f 317/317/317 322/322/322 318/318/318
f 322/322/322 319/319/319 318/318/318
f 322/322/322 321/321/321 319/319/319
f 190/190/190 322/322/322 317/317/317
f 323/323/323 321/321/321 322/322/322
f 190/190/190 324/324/324 322/322/322
f 324/324/324 323/323/323 322/322/322
f 162/162/162 324/324/324 190/190/190
f 162/162/162 323/323/323 324/324/324
f 327/327/327 326/326/326 325/325/325
f 326/326/326 328/328/328 325/325/325
f 325/325/325 328/328/328 329/329/329
f 328/328/328 330/330/330 329/329/329
f 329/329/329 330/330/330 331/331/331
f 330/330/330 332/332/332 331/331/331
f 331/331/331 332/332/332 333/333/333
f 332/332/332 334/334/334 333/333/333
f 333/333/333 334/334/334 335/335/335
f 334/334/334 336/336/336 335/335/335
f 335/335/335 336/336/336 337/337/337
f 336/336/336 338/338/338 337/337/337
f 337/337/337 338/338/338 339/339/339
f 338/338/338 340/340/340 339/339/339
f 339/339/339 340/340/340 341/341/341
f 340/340/340 342/342/342 341/341/341
f 341/341/341 342/342/342 343/343/343
f 342/342/342 344/344/344 343/343/343
f 343/343/343 344/344/344 345/345/345
f 344/344/344 346/346/346 345/345/345
f 349/349/349 348/348/348 347/347/347
f 348/348/348 350/350/350 347/347/347
f 347/347/347 350/350/350 351/351/351
f 350/350/350 352/352/352 351/351/351
f 351/351/351 352/352/352 353/353/353
f 352/352/352 354/354/354 353/353/353
f 353/353/353 354/354/354 355/355/355
f 354/354/354 356/356/356 355/355/355
f 355/355/355 356/356/356 357/357/357
f 356/356/356 358/358/358 357/357/357
f 357/357/357 358/358/358 359/359/359
f 358/358/358 360/360/360 359/359/359
f 359/359/359 360/360/360 361/361/361
f 360/360/360 362/362/362 361/361/361
f 361/361/361 362/362/362 363/363/363
f 362/362/362 364/364/364 363/363/363
f 363/363/363 364/364/364 365/365/365
f 364/364/364 366/366/366 365/365/365
f 365/365/365 366/366/366 367/367/367
f 366/366/366 368/368/368 367/367/367
f 371/371/371 370/370/370 369/369/369
f 372/372/372 371/371/371 369/369/369
f 372/372/372 369/369/369 373/373/373
f 374/374/374 372/372/372 373/373/373
f 374/374/374 375/375/375 372/372/372
f 372/372/372 376/376/376 371/371/371
f 375/375/375 376/376/376 372/372/372
f 376/376/376 377/377/377 371/371/371
f 378/378/378 377/377/377 376/376/376
f 379/379/379 376/376/376 375/375/375
f 379/379/379 378/378/378 376/376/376
f 380/380/380 379/379/379 375/375/375
f 381/381/381 378/378/378 379/379/379
f 380/380/380 382/382/382 379/379/379
f 383/383/383 381/381/381 379/379/379
f 382/382/382 383/383/383 379/379/379
f 386/386/386 385/385/385 384/384/384
f 386/386/386 384/384/384 387/387/387
f 384/384/384 388/388/388 387/387/387
f 391/391/391 390/390/390 389/389/389
f 390/390/390 392/392/392 389/389/389
f 390/390/390 393/393/393 392/392/392
f 396/396/396 395/395/395 394/394/394
f 395/395/395 397/397/397 394/394/394
f 394/394/394 397/397/397 398/398/398
f 397/397/397 399/399/399 398/398/398
f 398/398/398 399/399/399 400/400/400
f 399/399/399 401/401/401 400/400/400
f 400/400/400 401/401/401 402/402/402
f 401/401/401 403/403/403 402/402/402
f 402/402/402 403/403/403 404/404/404
f 403/403/403 405/405/405 404/404/404
f 404/404/404 405/405/405 406/406/406
f 405/405/405 407/407/407 406/406/406
f 410/410/410 409/409/409 408/408/408
f 409/409/409 411/411/411 408/408/408
f 408/408/408 411/411/411 412/412/412
f 411/411/411 413/413/413 412/412/412
f 412/412/412 413/413/413 414/414/414
f 413/413/413 415/415/415 414/414/414
f 414/414/414 415/415/415 416/416/416
f 415/415/415 417/417/417 416/416/416
f 416/416/416 417/417/417 418/418/418
f 417/417/417 419/419/419 418/418/418
f 418/418/418 419/419/419 420/420/420
f 419/419/419 421/421/421 420/420/420
f 424/424/424 423/423/423 422/422/422
f 425/425/425 422/422/422 423/423/423
f 426/426/426 424/424/424 422/422/422
f 427/427/427 422/422/422 425/425/425
f 426/426/426 422/422/422 428/428/428
f 429/429/429 422/422/422 427/427/427
f 428/428/428 422/422/422 430/430/430
f 431/431/431 422/422/422 429/429/429
f 430/430/430 422/422/422 432/432/432
f 433/433/433 422/422/422 431/431/431
f 432/432/432 422/422/422 434/434/434
f 433/433/433 435/435/435 422/422/422
f 434/434/434 422/422/422 436/436/436
f 435/435/435 436/436/436 422/422/422
f 439/439/439 438/438/438 437/437/437
f 437/437/437 438/438/438 440/440/440
f 441/441/441 438/438/438 439/439/439
f 440/440/440 438/438/438 442/442/442
f 443/443/443 438/438/438 441/441/441
f 442/442/442 438/438/438 444/444/444
f 445/445/445 438/438/438 443/443/443
f 444/444/444 438/438/438 446/446/446
f 447/447/447 438/438/438 445/445/445
f 446/446/446 438/438/438 447/447/447
f 450/450/450 449/449/449 448/448/448
f 451/451/451 450/450/450 448/448/448
f 449/449/449 452/452/452 448/448/448
f 449/449/449 453/453/453 452/452/452
f 454/454/454 451/451/451 448/448/448
f 455/455/455 451/451/451 454/454/454
f 453/453/453 456/456/456 452/452/452
f 456/456/456 453/453/453 457/457/457
f 452/452/452 458/458/458 448/448/448
f 458/458/458 454/454/454 448/448/448
f 452/452/452 456/456/456 458/458/458
f 459/459/459 456/456/456 457/457/457
f 459/459/459 457/457/457 455/455/455
f 458/458/458 456/456/456 459/459/459
f 460/460/460 455/455/455 454/454/454
f 460/460/460 459/459/459 455/455/455
f 460/460/460 458/458/458 459/459/459
f 460/460/460 454/454/454 458/458/458
f 463/463/463 462/462/462 461/461/461
f 461/461/461 462/462/462 464/464/464
f 465/465/465 462/462/462 463/463/463
f 464/464/464 462/462/462 466/466/466
f 467/467/467 462/462/462 465/465/465
f 466/466/466 462/462/462 468/468/468
f 469/469/469 462/462/462 467/467/467
f 468/468/468 462/462/462 470/470/470
f 471/471/471 462/462/462 469/469/469
f 470/470/470 462/462/462 471/471/471
f 474/474/474 473/473/473 472/472/472
f 472/472/472 473/473/473 475/475/475
f 476/476/476 473/473/473 474/474/474
f 475/475/475 473/473/473 477/477/477
f 478/478/478 473/473/473 476/476/476
f 477/477/477 473/473/473 479/479/479
f 480/480/480 473/473/473 478/478/478
f 479/479/479 473/473/473 481/481/481
f 482/482/482 473/473/473 480/480/480
f 481/481/481 473/473/473 482/482/482
f 485/485/485 484/484/484 483/483/483
f 483/483/483 484/484/484 486/486/486
f 487/487/487 484/484/484 485/485/485
f 486/486/486 484/484/484 488/488/488
f 489/489/489 484/484/484 487/487/487
f 488/488/488 484/484/484 489/489/489
f 492/492/492 491/491/491 490/490/490
f 493/493/493 492/492/492 490/490/490
f 490/490/490 494/494/494 493/493/493
f 493/493/493 495/495/495 492/492/492
f 492/492/492 495/495/495 496/496/496
f 491/491/491 492/492/492 496/496/496
f 497/497/497 495/495/495 493/493/493
f 494/494/494 497/497/497 493/493/493
f 498/498/498 491/491/491 496/496/496
f 494/494/494 499/499/499 497/497/497
f 498/498/498 496/496/496 500/500/500
f 496/496/496 495/495/495 500/500/500
f 501/501/501 498/498/498 500/500/500
f 499/499/499 502/502/502 497/497/497
f 502/502/502 495/495/495 497/497/497
f 499/499/499 503/503/503 502/502/502
f 501/501/501 500/500/500 504/504/504
f 500/500/500 495/495/495 504/504/504
f 505/505/505 501/501/501 504/504/504
f 503/503/503 506/506/506 502/502/502
f 506/506/506 495/495/495 502/502/502
f 503/503/503 507/507/507 506/506/506
f 505/505/505 504/504/504 508/508/508
f 504/504/504 495/495/495 508/508/508
f 509/509/509 505/505/505 508/508/508
f 507/507/507 510/510/510 506/506/506
f 510/510/510 495/495/495 506/506/506
f 508/508/508 495/495/495 510/510/510
f 509/509/509 508/508/508 510/510/510
f 507/507/507 509/509/509 510/510/510
