g A_soldier_bubing12
v 0.262620896 0.819223166 -0.0372574814
v 0.0846206397 0.875570714 -0.0310851969
v 1.00112353E-16 0.876918912 -0.0683681294
v 0.123742953 0.752205789 -0.142621279
v 0.23291871 0.737899482 -0.121334232
v -1.07831073E-16 0.760191202 -0.150507152
v 0.210623235 0.670412302 -0.119474851
v -1.67707792E-09 0.578909814 -0.100218624
v 0.117259465 0.578909814 -0.0818005279
v 0.185180128 0.578909874 0.00254176883
v 0.219158918 0.637968481 -0.00424322672
v 0.232661352 0.710995555 0.0940640271
v 0.111948982 0.51332134 -0.108044267
v -5.96206838E-17 0.509626329 -0.112020105
v 0.182874262 0.509544611 -0.0017594297
v 0.125598148 0.499434263 0.143872395
v 0.119282119 0.578910232 0.147233039
v -1.44880923E-16 0.498501718 0.175219476
v 0.141258284 0.795068979 0.111884639
v 0.262620896 0.819223166 -0.0372574814
v 0.0846206397 0.875570714 -0.0310851969
v 1.07704216E-16 0.832222223 0.0979901925
v -1.85570479E-16 0.578910232 0.188935861
v -1.97811972E-16 0.771169722 0.174314871
v -0.141258284 0.795068979 0.111884639
v -0.0846206397 0.875570714 -0.0310851969
v -0.119282119 0.578910232 0.147233039
v -0.125598148 0.499434263 0.143872395
v 0.0846206397 0.875570714 -0.0310851969
v 1.07704216E-16 0.832222223 0.0979901925
v 5.29695124E-16 0.871015966 0.1133269
v 0.084480986 0.914963841 -0.0245331395
v 2.83441232E-16 0.915385127 -0.0610204637
v 1.00112353E-16 0.876918912 -0.0683681294
v 0.436937183 0.49751845 0.0067592198
v 0.380098403 0.477969766 -0.0515868887
v 0.398340404 0.409017771 -0.0734997392
v 0.466398031 0.426615506 0.0211176686
v 0.380932331 0.304867655 -0.0371478982
v 0.382179558 0.493326545 0.0750400648
v 0.434189469 0.299376726 0.0420151129
v 0.328426361 0.307456702 0.0332800411
v 0.380689204 0.317273557 0.115897089
v 0.386854976 0.420516282 0.119246624
v 0.309150666 0.401478946 0.0123361647
v 0.348676056 0.46628195 -0.00411084527
v 0.328426361 0.307456702 0.0332800411
v 0.380098403 0.477969766 -0.0515868887
v 0.380932331 0.304867655 -0.0371478982
v 0.398340404 0.409017771 -0.0734997392
v -1.44880923E-16 0.498501718 0.175219476
v 0.0240978952 0.375829846 0.0138660511
v -1.78546766E-09 0.374356478 0.0138660837
v 0.125598148 0.499434263 0.143872395
v 0.053203363 0.246596366 0.0138657773
v 0.177315682 0.244035557 0.108952031
v 0.131754637 0.191735804 0.000306834845
v 0.188015833 0.194525644 0.0252903719
v 0.230654344 0.197917491 -0.0175386351
v 0.278694689 0.276154995 -0.0145753631
v 0.182874262 0.509544611 -0.0017594297
v 0.163696662 0.201080382 -0.0885983482
v 0.111948982 0.51332134 -0.108044267
v 0.152814478 0.255601197 -0.105811641
v 0.053203363 0.246596366 0.0138657773
v 0.131754637 0.191735804 0.000306834845
v 0.0240978952 0.375829846 0.0138660511
v -5.96206838E-17 0.509626329 -0.112020105
v -1.78546766E-09 0.374356478 0.0138660837
v 0.127517924 5.01024006E-05 -0.0370022617
v 0.253380209 5.01024006E-05 -0.0626723692
v 0.173236787 5.01024006E-05 -0.132641122
v 0.150445461 5.01211252E-05 0.153159961
v 0.300987989 5.01338909E-05 0.112885527
v 0.240436181 5.01358882E-05 0.165439695
v 0.210623235 0.670412302 -0.119474851
v 0.307923704 0.610202134 -0.0810324103
v 0.23291871 0.737899482 -0.121334232
v 0.250521809 0.571254194 -0.00373627455
v 0.380098403 0.477969766 -0.0515868887
v 0.219158918 0.637968481 -0.00424322672
v 0.348676056 0.46628195 -0.00411084527
v 0.232661352 0.710995555 0.0940640271
v 0.382179558 0.493326545 0.0750400648
v 0.307926834 0.621663451 0.0684206337
v 0.374516815 0.65465492 -0.020584926
v 0.262620896 0.819223166 -0.0372574814
v 0.436937183 0.49751845 0.0067592198
v 0.23291871 0.737899482 -0.121334232
v 0.380098403 0.477969766 -0.0515868887
v 0.307923704 0.610202134 -0.0810324103
v 2.83441232E-16 0.915385127 -0.0610204637
v 0.103513412 1.03773248 -0.169053912
v 6.66190672E-16 1.02561474 -0.19293192
v 0.084480986 0.914963841 -0.0245331395
v 0.143606588 0.922266543 -0.0104070492
v 0.202553228 1.08485186 -0.0571980365
v 0.101215951 0.885729074 0.135564625
v 5.29695124E-16 0.871015966 0.1133269
v 4.97700943E-16 0.872846723 0.227221459
v 0.129172489 1.03120279 0.140535995
v 0.136522993 1.15804219 0.136389047
v 5.58191536E-16 1.02816904 0.25471282
v 6.3246219E-16 1.18809009 0.233821496
v -0.232661352 0.710995555 0.0940640345
v -0.185180128 0.578909874 0.00254177093
v -0.219158918 0.637968481 -0.00424322346
v -0.119282119 0.578910232 0.147233039
v -0.125598148 0.499434263 0.143872395
v -0.182874262 0.509544611 -0.00175942865
v -0.141258284 0.795068979 0.111884639
v -0.262620896 0.819223166 -0.0372574776
v -0.0846206397 0.875570714 -0.0310851969
v -0.210623264 0.670412302 -0.119474851
v -0.219158918 0.637968481 -0.00424322346
v -0.185180128 0.578909874 0.00254177093
v -0.117259465 0.578909814 -0.0818005279
v -0.123742953 0.752205789 -0.142621279
v -0.23291871 0.737899482 -0.121334232
v -0.262620896 0.819223166 -0.0372574776
v -0.111948982 0.51332134 -0.108044267
v -0.182874262 0.509544611 -0.00175942865
v -1.67707792E-09 0.578909814 -0.100218624
v -5.96206838E-17 0.509626329 -0.112020105
v -1.07831073E-16 0.760191202 -0.150507152
v 1.00112353E-16 0.876918912 -0.0683681294
v -0.0846206397 0.875570714 -0.0310851969
v -0.0846206397 0.875570714 -0.0310851969
v 5.29695124E-16 0.871015966 0.1133269
v 1.07704216E-16 0.832222223 0.0979901925
v -0.084480986 0.914963841 -0.0245331395
v 2.83441232E-16 0.915385127 -0.0610204637
v 1.00112353E-16 0.876918912 -0.0683681294
v -0.436937183 0.49751845 0.0067592226
v -0.398340404 0.409017771 -0.0734997392
v -0.380098403 0.477969766 -0.0515868887
v -0.466398031 0.426615506 0.0211176649
v -0.380932331 0.304867655 -0.0371478908
v -0.382179558 0.493326545 0.0750400648
v -0.434189469 0.299376726 0.0420151167
v -0.328426361 0.307456702 0.0332800485
v -0.380689204 0.317273557 0.115897089
v -0.386854976 0.420516282 0.119246624
v -0.309150666 0.401478946 0.0123361629
v -0.348676056 0.46628195 -0.00411084248
v -0.328426361 0.307456702 0.0332800485
v -0.380098403 0.477969766 -0.0515868887
v -0.380932331 0.304867655 -0.0371478908
v -0.398340404 0.409017771 -0.0734997392
v -1.44880923E-16 0.498501718 0.175219476
v -1.78546766E-09 0.374356478 0.0138660837
v -0.0240978952 0.375829846 0.013866052
v -0.125598148 0.499434263 0.143872395
v -0.0532033667 0.246596366 0.0138657801
v -0.177315682 0.244035557 0.108952045
v -0.131754637 0.191735819 0.000306830741
v -0.188015833 0.194525644 0.0252903737
v -0.230654374 0.197917491 -0.0175386406
v -0.278694689 0.276154995 -0.0145753575
v -0.182874262 0.509544611 -0.00175942865
v -0.163696647 0.201080382 -0.0885983557
v -0.111948982 0.51332134 -0.108044267
v -0.152814478 0.255601197 -0.105811641
v -0.0532033667 0.246596366 0.0138657801
v -0.131754637 0.191735819 0.000306830741
v -0.0240978952 0.375829846 0.013866052
v -5.96206838E-17 0.509626329 -0.112020105
v -1.78546766E-09 0.374356478 0.0138660837
v -0.127517834 5.01044378E-05 -0.037002366
v -0.173236594 5.01044378E-05 -0.132641226
v -0.25338003 5.01044378E-05 -0.0626725778
v -0.150445476 5.01200957E-05 0.153159946
v -0.300987989 5.01312388E-05 0.112885505
v -0.240436181 5.01330105E-05 0.16543971
v -0.210623264 0.670412302 -0.119474851
v -0.23291871 0.737899482 -0.121334232
v -0.307923704 0.610202134 -0.0810323954
v -0.250521809 0.571254194 -0.00373626873
v -0.380098403 0.477969766 -0.0515868887
v -0.219158918 0.637968481 -0.00424322346
v -0.348676056 0.46628195 -0.00411084248
v -0.232661352 0.710995555 0.0940640345
v -0.382179558 0.493326545 0.0750400648
v -0.307926834 0.621663451 0.0684206411
v -0.374516815 0.65465492 -0.0205849223
v -0.262620896 0.819223166 -0.0372574776
v -0.436937183 0.49751845 0.0067592226
v -0.23291871 0.737899482 -0.121334232
v -0.380098403 0.477969766 -0.0515868887
v -0.307923704 0.610202134 -0.0810323954
v 2.83441232E-16 0.915385127 -0.0610204637
v 6.66190672E-16 1.02561474 -0.19293192
v -0.103513412 1.03773248 -0.169053912
v -0.084480986 0.914963841 -0.0245331395
v -0.143606588 0.922266543 -0.0104070492
v -0.202553228 1.08485186 -0.0571980365
v -0.101215951 0.885729074 0.135564625
v 5.29695124E-16 0.871015966 0.1133269
v 4.97700943E-16 0.872846723 0.227221459
v -0.129172489 1.03120279 0.140535995
v -0.136522993 1.15804219 0.136389047
v 5.58191536E-16 1.02816904 0.25471282
v 6.3246219E-16 1.18809009 0.233821496
v -0.119737603 1.15607822 0.24716191
v 1.46129894E-13 1.16470921 0.274960279
v 0.119737603 1.15607822 0.24716191
v 1.46163545E-13 0.963165581 -0.225669876
v -0.234336078 1.1207577 0.133763134
v 0.133994848 0.975764155 -0.197242633
v -0.134000927 0.975749016 -0.197276518
v -0.243558154 1.02772677 -0.0829330906
v -0.273687959 1.07799089 0.023937609
v 0.233575657 1.12112141 0.134807006
v 0.241412371 1.01325178 -0.123815171
v 0.266953468 1.05954969 -0.0147417365
v 0.188015833 0.194525644 0.0252903719
v 0.214901283 0.0946160331 0.140894428
v 0.157337517 0.0712957829 0.14239651
v 0.240436181 5.01358882E-05 0.165439695
v 0.150445461 5.01211252E-05 0.153159961
v 0.131754637 0.191735804 0.000306834845
v 0.127517924 5.01024006E-05 -0.0370022617
v 0.12914075 0.0724475905 -0.0327150561
v 0.163696662 0.201080382 -0.0885983482
v 0.168043166 0.0786891803 -0.117837615
v 0.173236787 5.01024006E-05 -0.132641122
v 0.253380209 5.01024006E-05 -0.0626723692
v 0.246149063 0.0826059878 -0.0414672457
v 0.230654344 0.197917491 -0.0175386351
v 0.300987989 5.01338909E-05 0.112885527
v 0.267212242 0.0823333785 0.10449931
v 0.188015833 0.194525644 0.0252903719
v 0.240436181 5.01358882E-05 0.165439695
v 0.214901283 0.0946160331 0.140894428
v -0.188015833 0.194525644 0.0252903737
v -0.157337517 0.0712957755 0.14239648
v -0.214901283 0.0946160182 0.140894443
v -0.240436181 5.01330105E-05 0.16543971
v -0.150445476 5.01200957E-05 0.153159946
v -0.131754637 0.191735819 0.000306830741
v -0.127517834 5.01044378E-05 -0.037002366
v -0.129140675 0.0724475905 -0.0327151679
v -0.163696647 0.201080382 -0.0885983557
v -0.168043002 0.0786891803 -0.11783772
v -0.173236594 5.01044378E-05 -0.132641226
v -0.25338003 5.01044378E-05 -0.0626725778
v -0.246148929 0.0826060027 -0.0414674543
v -0.230654374 0.197917491 -0.0175386406
v -0.267212242 0.082333371 0.10449928
v -0.300987989 5.01312388E-05 0.112885505
v -0.188015833 0.194525644 0.0252903737
v -0.240436181 5.01330105E-05 0.16543971
v -0.214901283 0.0946160182 0.140894443
v -0.234336078 1.1207577 0.133763134
v -0.273687959 1.07799089 0.023937609
v -0.173769668 1.34576631 0.0628107935
v -0.119737603 1.15607822 0.24716191
v -0.000102852951 1.38373399 0.155903265
v 1.46129894E-13 1.16470921 0.274960279
v 0.119737603 1.15607822 0.24716191
v -0.173769817 1.23125887 -0.179376051
v -0.243558154 1.02772677 -0.0829330906
v -0.134000927 0.975749016 -0.197276518
v -0.000102852951 1.1932267 -0.284132898
v 1.46163545E-13 0.963165581 -0.225669876
v 0.133994848 0.975764155 -0.197242633
v -0.120581321 1.33907175 -0.185490951
v -0.120581158 1.41610968 0.0134540889
v 8.07155113E-16 1.37358856 -0.21847555
v 0.173769817 1.23478222 -0.179911003
v 0.241412371 1.01325178 -0.123815171
v 0.266953468 1.05954969 -0.0147417365
v 0.12549144 1.33919168 -0.165700063
v 0.173769668 1.34593856 0.062818706
v 0.233575657 1.12112141 0.134807006
v 0.125491232 1.40803754 0.0134540889
v 7.49114033E-16 1.45423102 0.013454441
vt 0.771523416 0.387554944
vt 0.919141054 0.439525753
vt 0.989317894 0.440769225
vt 0.886696458 0.3257429
vt 0.796155691 0.312547952
vt 0.989317894 0.333108038
vt 0.814645469 0.250302553
vt 0.989317894 0.108936287
vt 0.892073333 0.108936287
vt 0.741922617 0.108936287
vt 0.772300959 0.220510304
vt 0.746091962 0.286693126
vt 0.896477342 0.0245530531
vt 0.989317894 0.0245530531
vt 0.741922617 0.0245530531
vt 0.66480267 0.0245530531
vt 0.66480267 0.108936287
vt 0.568591893 0.0245530531
vt 0.66480267 0.362547278
vt 0.768910706 0.384582996
vt 0.633335173 0.435547769
vt 0.568591893 0.396151662
vt 0.568591893 0.108936287
vt 0.568591893 0.340930998
vt 0.472381175 0.362547278
vt 0.503848732 0.435170859
vt 0.472381175 0.108936287
vt 0.472381175 0.0245530531
vt 0.836809278 0.972966433
vt 0.769663215 0.972966433
vt 0.769663215 0.99263382
vt 0.836809158 0.9926337
vt 0.879524589 0.9926337
vt 0.879524589 0.972966433
vt 0.381919295 0.584251285
vt 0.43109718 0.584251285
vt 0.456483722 0.636822462
vt 0.381919414 0.636822581
vt 0.437976867 0.739662588
vt 0.314970762 0.584251046
vt 0.381919414 0.739662588
vt 0.381919295 0.790904164
vt 0.314970762 0.739662468
vt 0.314970672 0.636822462
vt 0.23612693 0.636822462
vt 0.23612693 0.584251046
vt 0.236127079 0.722287416
vt 0.184716254 0.584251046
vt 0.184716433 0.709686399
vt 0.17291078 0.636822462
vt 0.121778451 0.571468294
vt 0.0424041003 0.510445356
vt 0.0233877767 0.50720346
vt 0.13731499 0.571468294
vt 0.00855767727 0.417732835
vt 0.111240387 0.417732835
vt 0.0939618945 0.378748
vt 0.167134106 0.378748
vt 0.222352743 0.378748
vt 0.222352743 0.417732835
vt 0.222352505 0.571468294
vt 0.288438976 0.378748059
vt 0.310246289 0.571468294
vt 0.310245872 0.417732716
vt 0.428002954 0.417732596
vt 0.342598677 0.378748059
vt 0.428002954 0.502806246
vt 0.38529405 0.571468294
vt 0.444613099 0.502806246
vt 0.41714111 0.807167053
vt 0.41714114 0.884434342
vt 0.462898672 0.847090364
vt 0.357481927 0.807166934
vt 0.357481956 0.884434342
vt 0.301818699 0.84533298
vt 0.0529856347 0.355635732
vt 0.0151991248 0.202562496
vt 0.0151991248 0.355635732
vt 0.107537881 0.200519696
vt 0.0151991248 0.0155796837
vt 0.107537881 0.355635732
vt 0.107537881 0.0155796837
vt 0.173809797 0.355635732
vt 0.173809797 0.0155796837
vt 0.173809797 0.214819327
vt 0.300965995 0.231672481
vt 0.300965995 0.355635732
vt 0.300965995 0.0155796837
vt 0.438436955 0.355635732
vt 0.438436955 0.0155796837
vt 0.438436955 0.202562496
vt 0.183042705 0.723590255
vt 0.210145697 0.9478634
vt 0.285027832 0.919293761
vt 0.14383094 0.68144846
vt 0.121774226 0.759885192
vt 0.153313681 0.96890825
vt 0.0714684948 0.712089121
vt 0.00666496018 0.620759606
vt 0.00666496018 0.690995932
vt 0.0714684948 0.824904025
vt 0.0714684948 0.987052083
vt 0.00666496018 0.824904025
vt 0.00666496018 0.990507722
vt 0.746091962 0.286693126
vt 0.741922617 0.108936287
vt 0.772300959 0.220510304
vt 0.66480267 0.108936287
vt 0.66480267 0.0245530531
vt 0.741922617 0.0245530531
vt 0.66480267 0.362547278
vt 0.768910706 0.384582996
vt 0.633335173 0.435547769
vt 0.814645469 0.250302553
vt 0.772300959 0.220510304
vt 0.741922617 0.108936287
vt 0.892073333 0.108936287
vt 0.886696458 0.3257429
vt 0.796155691 0.312547952
vt 0.771523416 0.387554944
vt 0.896477342 0.0245530531
vt 0.741922617 0.0245530531
vt 0.989317894 0.108936287
vt 0.989317894 0.0245530531
vt 0.989317894 0.333108038
vt 0.989317894 0.440769225
vt 0.919141054 0.439525753
vt 0.836809278 0.972966433
vt 0.769663215 0.99263382
vt 0.769663215 0.972966433
vt 0.836809158 0.9926337
vt 0.879524589 0.9926337
vt 0.879524589 0.972966433
vt 0.381919295 0.584251285
vt 0.456483722 0.636822462
vt 0.43109718 0.584251285
vt 0.381919414 0.636822581
vt 0.437976867 0.739662588
vt 0.314970762 0.584251046
vt 0.381919414 0.739662588
vt 0.381919295 0.790904164
vt 0.314970762 0.739662468
vt 0.314970672 0.636822462
vt 0.23612693 0.636822462
vt 0.23612693 0.584251046
vt 0.236127079 0.722287416
vt 0.184716254 0.584251046
vt 0.184716433 0.709686399
vt 0.17291078 0.636822462
vt 0.121778451 0.571468294
vt 0.0233877767 0.50720346
vt 0.0424041003 0.510445356
vt 0.13731499 0.571468294
vt 0.00855767727 0.417732835
vt 0.111240387 0.417732835
vt 0.0939618945 0.378748
vt 0.167134106 0.378748
vt 0.222352743 0.378748
vt 0.222352743 0.417732835
vt 0.222352505 0.571468294
vt 0.288438976 0.378748059
vt 0.310246289 0.571468294
vt 0.310245872 0.417732716
vt 0.428002954 0.417732596
vt 0.342598677 0.378748059
vt 0.428002954 0.502806246
vt 0.38529405 0.571468294
vt 0.444613099 0.502806246
vt 0.41714111 0.807167053
vt 0.462898672 0.847090364
vt 0.41714114 0.884434342
vt 0.357481927 0.807166934
vt 0.357481956 0.884434342
vt 0.301818699 0.84533298
vt 0.0529856347 0.355635732
vt 0.0151991248 0.355635732
vt 0.0151991248 0.202562496
vt 0.107537881 0.200519696
vt 0.0151991248 0.0155796837
vt 0.107537881 0.355635732
vt 0.107537881 0.0155796837
vt 0.173809797 0.355635732
vt 0.173809797 0.0155796837
vt 0.173809797 0.214819327
vt 0.300965995 0.231672481
vt 0.300965995 0.355635732
vt 0.300965995 0.0155796837
vt 0.438436955 0.355635732
vt 0.438436955 0.0155796837
vt 0.438436955 0.202562496
vt 0.183042705 0.723590255
vt 0.285027832 0.919293761
vt 0.210145697 0.9478634
vt 0.14383094 0.68144846
vt 0.121774226 0.759885192
vt 0.153313681 0.96890825
vt 0.0714684948 0.712089121
vt 0.00666496018 0.620759606
vt 0.00666496018 0.690995932
vt 0.0714684948 0.824904025
vt 0.0714684948 0.987052083
vt 0.00666496018 0.824904025
vt 0.00666496018 0.990507722
vt 0.95955956 0.903572023
vt 0.936312139 0.898174882
vt 0.913064718 0.903572023
vt 0.936311901 0.99537313
vt 0.981808662 0.925487459
vt 0.910296619 0.989857435
vt 0.962328434 0.989857435
vt 0.983599365 0.971629262
vt 0.989449024 0.950666368
vt 0.89096278 0.925487339
vt 0.889441252 0.971629381
vt 0.884482443 0.950666368
vt 0.318446934 0.904204965
vt 0.273929864 0.94506979
vt 0.318446964 0.954850435
vt 0.249467641 0.980707645
vt 0.318447024 0.991779327
vt 0.363831013 0.904204965
vt 0.363831073 0.991779208
vt 0.363831311 0.954850256
vt 0.430488646 0.904205143
vt 0.430488616 0.954850256
vt 0.430488557 0.991779327
vt 0.499728203 0.991779327
vt 0.499728143 0.954850256
vt 0.499728352 0.904205143
vt 0.537398458 0.991779327
vt 0.537398398 0.954850316
vt 0.537398279 0.904205143
vt 0.604323149 0.978960931
vt 0.578694701 0.944583595
vt 0.318446934 0.904204965
vt 0.318446964 0.954850435
vt 0.273929864 0.94506979
vt 0.249467641 0.980707645
vt 0.318447024 0.991779327
vt 0.363831013 0.904204965
vt 0.363831073 0.991779208
vt 0.363831311 0.954850256
vt 0.430488646 0.904205143
vt 0.430488616 0.954850256
vt 0.430488557 0.991779327
vt 0.499728203 0.991779327
vt 0.499728143 0.954850256
vt 0.499728352 0.904205143
vt 0.537398398 0.954850316
vt 0.537398458 0.991779327
vt 0.537398279 0.904205143
vt 0.604323149 0.978960931
vt 0.578694701 0.944583595
vt 0.989291072 0.794109583
vt 0.992923379 0.679936945
vt 0.834953725 0.776660144
vt 0.845364094 0.940478921
vt 0.727226555 0.86653161
vt 0.727342844 0.979969025
vt 0.597264826 0.940680623
vt 0.845377505 0.628276765
vt 0.942885399 0.563812613
vt 0.785878241 0.473513246
vt 0.727003753 0.578547299
vt 0.726892233 0.446516126
vt 0.656750619 0.473730654
vt 0.782905996 0.672360063
vt 0.78543973 0.761694908
vt 0.727080643 0.667094111
vt 0.609254003 0.628276765
vt 0.513665736 0.564233065
vt 0.457946688 0.679936945
vt 0.667720973 0.672390878
vt 0.619677782 0.776660144
vt 0.466654986 0.794109583
vt 0.669745207 0.761716664
vt 0.727158487 0.796872079
vn 0.611027896 0.789562404 -0.0568867475
vn 0.425772727 0.895395637 0.130323529
vn -0 0.617489934 -0.786578774
vn 0.161808997 0.301510423 -0.939632535
vn 0.468655378 0.361412376 -0.806066453
vn -0 0.120518513 -0.992711067
vn 0.112150952 -0.447738349 -0.887103558
vn -0 -0.169762626 -0.985485017
vn 0.341816694 -0.284294635 -0.895733118
vn 0.906468093 -0.419715434 0.0464164242
vn -0.0889060274 -0.971189916 0.221101314
vn 0.603591919 0.185436279 0.77542907
vn 0.186546981 -0.0302747469 -0.981979489
vn -0 -0.47843191 -0.878124654
vn 0.952241421 0.302214026 -0.0436237045
vn 0.498328745 -0.151776984 0.853599668
vn 0.558003783 -0.0541700199 0.828068495
vn -0 -0.604281127 0.796771109
vn 0.37671268 0.563361287 0.735330999
vn 0.611027896 0.789562404 -0.0568867475
vn 0.425772727 0.895395637 0.130323529
vn -0 0.786503434 0.617585957
vn -0 0.0339661464 0.999423027
vn -0 0.268267095 0.963344574
vn -0.37671271 0.563361287 0.735330999
vn -0.425772816 0.895395637 0.130323678
vn -0.558003724 -0.054170046 0.828068495
vn -0.498328537 -0.151776969 0.853599668
vn 0.425772727 0.895395637 0.130323529
vn -0 0.786503434 0.617585957
vn -0 -0.999328494 0.0366417393
vn 0.376521975 -0.807427347 -0.454194099
vn -0 -0.68119365 -0.732103288
vn -0 0.617489934 -0.786578774
vn 0.922644675 0.380159944 -0.0648469105
vn 0.0799314305 0.000671040616 -0.996800065
vn 0.153062135 -0.140909642 -0.978118777
vn 0.999879479 0.014676326 0.00506641995
vn 0.0821927711 -0.613163412 -0.785668433
vn -0.170732692 0.0586967915 0.983567476
vn 0.788558185 -0.609956384 0.0782890096
vn -0.779330015 -0.62142396 0.080479458
vn -0.0117565161 -0.392636925 0.919618368
vn -0.0316750035 0.189590231 0.98135227
vn -0.997025192 0.0449363105 -0.0626218542
vn -0.899573088 -0.31569016 0.30184108
vn -0.779330015 -0.62142396 0.080479458
vn 0.0799314305 0.000671040616 -0.996800065
vn 0.0821927711 -0.613163412 -0.785668433
vn 0.153062135 -0.140909642 -0.978118777
vn -0 -0.604281127 0.796771109
vn -0.861835897 -0.488427043 -0.136667326
vn -0 -0.999334037 -0.0364894047
vn 0.498328745 -0.151776984 0.853599668
vn -0.869101286 -0.379817784 0.316861957
vn 0.17954807 -0.211960211 0.960643291
vn -0.927412152 -0.310664535 0.208312809
vn 0.177588135 0.332110852 0.926371932
vn 0.990393698 -0.0344645344 -0.13391231
vn 0.994860828 0.0860892907 -0.0532966219
vn 0.952241421 0.302214026 -0.0436237045
vn -0.10742525 -0.120050959 -0.986938477
vn 0.186546981 -0.0302747469 -0.981979489
vn -0.0187351238 -0.070184432 -0.997358024
vn -0.869101286 -0.379817784 0.316861957
vn -0.927412152 -0.310664535 0.208312809
vn -0.861835897 -0.488427043 -0.136667326
vn -0 -0.47843191 -0.878124654
vn -0 -0.999334037 -0.0364894047
vn -0.524457872 -0.850621045 -0.0372532196
vn 0.514907539 -0.810376406 -0.279571682
vn -0.113061428 -0.621812284 -0.774962306
vn -0.473181695 -0.837806523 0.272358924
vn 0.52393645 -0.848705888 0.0720340461
vn 0.310986787 -0.400648713 0.86183989
vn 0.112150952 -0.447738349 -0.887103558
vn 0.197791785 -0.262006104 -0.944579899
vn 0.468655378 0.361412376 -0.806066453
vn -0.746719182 -0.63213563 0.206917882
vn 0.0799314305 0.000671040616 -0.996800065
vn -0.0889060274 -0.971189916 0.221101314
vn -0.899573088 -0.31569016 0.30184108
vn 0.603591919 0.185436279 0.77542907
vn -0.170732692 0.0586967915 0.983567476
vn -0.0121520394 -0.135990486 0.990635574
vn 0.887739539 0.460006773 -0.0176689643
vn 0.611027896 0.789562404 -0.0568867475
vn 0.922644675 0.380159944 -0.0648469105
vn 0.468655378 0.361412376 -0.806066453
vn 0.0799314305 0.000671040616 -0.996800065
vn 0.197791785 -0.262006104 -0.944579899
vn -0 -0.68119365 -0.732103288
vn 0.506373048 -0.62756443 -0.591395974
vn -0 -0.767352939 -0.64122504
vn 0.376521975 -0.807427347 -0.454194099
vn 0.850873888 -0.519544482 -0.0780201927
vn 0.948546767 -0.313535362 -0.0442125201
vn 0.734989643 -0.580453753 0.350519061
vn -0 -0.999328494 0.0366417393
vn -0 -0.471225619 0.882012725
vn 0.847695231 -0.123446234 0.515920281
vn 0.798443615 0.0077930945 0.60201931
vn -0 -0.0503461771 0.998731792
vn -0 0.129534677 0.991574943
vn -0.603591919 0.185436368 0.77542907
vn -0.906468093 -0.419715434 0.0464164168
vn 0.0889060646 -0.971189916 0.221101239
vn -0.558003724 -0.054170046 0.828068495
vn -0.498328537 -0.151776969 0.853599668
vn -0.952241302 0.302213997 -0.043623805
vn -0.37671271 0.563361287 0.735330999
vn -0.611027896 0.789562404 -0.0568868183
vn -0.425772816 0.895395637 0.130323678
vn -0.112150915 -0.447738349 -0.887103558
vn 0.0889060646 -0.971189916 0.221101239
vn -0.906468093 -0.419715434 0.0464164168
vn -0.341816634 -0.284294635 -0.895733118
vn -0.161808938 0.301510364 -0.939632654
vn -0.468655288 0.361412346 -0.806066573
vn -0.611027896 0.789562404 -0.0568868183
vn -0.186546832 -0.0302748121 -0.981979489
vn -0.952241302 0.302213997 -0.043623805
vn -0 -0.169762626 -0.985485017
vn -0 -0.47843191 -0.878124654
vn -0 0.120518513 -0.992711067
vn -0 0.617489934 -0.786578774
vn -0.425772816 0.895395637 0.130323678
vn -0.425772816 0.895395637 0.130323678
vn -0 -0.999328494 0.0366417393
vn -0 0.786503434 0.617585957
vn -0.376521945 -0.807427347 -0.454194099
vn -0 -0.68119365 -0.732103288
vn -0 0.617489934 -0.786578774
vn -0.922644675 0.380160123 -0.0648468733
vn -0.153062195 -0.140909836 -0.978118777
vn -0.0799314454 0.000670913141 -0.996800065
vn -0.999879479 0.0146762365 0.00506628444
vn -0.0821927711 -0.613163471 -0.785668433
vn 0.170732662 0.0586967319 0.983567476
vn -0.788558185 -0.609956384 0.0782890096
vn 0.779330194 -0.621423721 0.0804795027
vn 0.0117564527 -0.392637074 0.919618368
vn 0.0316750109 0.189590275 0.98135227
vn 0.997025192 0.0449363552 -0.0626219362
vn 0.899573088 -0.315690339 0.301840752
vn 0.779330194 -0.621423721 0.0804795027
vn -0.0799314454 0.000670913141 -0.996800065
vn -0.0821927711 -0.613163471 -0.785668433
vn -0.153062195 -0.140909836 -0.978118777
vn -0 -0.604281127 0.796771109
vn -0 -0.999334037 -0.0364894047
vn 0.861835897 -0.488426983 -0.136667341
vn -0.498328537 -0.151776969 0.853599668
vn 0.869101167 -0.379817724 0.316862047
vn -0.17954798 -0.211960241 0.960643291
vn 0.927412271 -0.310664028 0.208313093
vn -0.17758809 0.332110912 0.926371813
vn -0.990393698 -0.0344647989 -0.133912414
vn -0.994860828 0.0860891864 -0.0532964729
vn -0.952241302 0.302213997 -0.043623805
vn 0.107425436 -0.120050371 -0.986938596
vn -0.186546832 -0.0302748121 -0.981979489
vn 0.0187349766 -0.070184432 -0.997358024
vn 0.869101167 -0.379817724 0.316862047
vn 0.927412271 -0.310664028 0.208313093
vn 0.861835897 -0.488426983 -0.136667341
vn -0 -0.47843191 -0.878124654
vn -0 -0.999334037 -0.0364894047
vn 0.524458051 -0.850620985 -0.0372528397
vn 0.113062017 -0.621812165 -0.774962306
vn -0.720505357 -0.630320847 -0.289080888
vn 0.473181486 -0.837806642 0.272358805
vn -0.778706789 -0.627061009 -0.0202555191
vn -0.310986966 -0.400649041 0.861839592
vn -0.112150915 -0.447738349 -0.887103558
vn -0.468655288 0.361412346 -0.806066573
vn -0.19779186 -0.262006015 -0.944579899
vn 0.746719182 -0.632135808 0.206917733
vn -0.0799314454 0.000670913141 -0.996800065
vn 0.0889060646 -0.971189916 0.221101239
vn 0.899573088 -0.315690339 0.301840752
vn -0.603591919 0.185436368 0.77542907
vn 0.170732662 0.0586967319 0.983567476
vn 0.0121521745 -0.135990709 0.990635574
vn -0.887739658 0.460006684 -0.0176689606
vn -0.611027896 0.789562404 -0.0568868183
vn -0.922644675 0.380160123 -0.0648468733
vn -0.468655288 0.361412346 -0.806066573
vn -0.0799314454 0.000670913141 -0.996800065
vn -0.19779186 -0.262006015 -0.944579899
vn -0 -0.68119365 -0.732103288
vn -0 -0.767352939 -0.64122504
vn -0.506373048 -0.62756443 -0.591395974
vn -0.376521945 -0.807427347 -0.454194099
vn -0.850873888 -0.519544601 -0.0780201182
vn -0.948546767 -0.313535333 -0.0442124866
vn -0.734989703 -0.580453813 0.350518972
vn -0 -0.999328494 0.0366417393
vn -0 -0.471225619 0.882012725
vn -0.847695231 -0.123446219 0.515920341
vn -0.798443437 0.00779310009 0.60201931
vn -0 -0.0503461771 0.998731792
vn -0 0.129534677 0.991574943
vn -0.0162323955 -0.926972926 0.374776989
vn -0 -0.927649081 0.37345314
vn 0.0161821377 -0.926975071 0.3747738
vn -9.59852623E-05 -0.92641592 0.376501709
vn -0.0442691296 -0.924622476 0.378303558
vn 0.044784233 -0.924858093 0.377666354
vn -0.0442601852 -0.924757957 0.377973229
vn -0.0447346307 -0.917286277 0.395707637
vn -0.0447346307 -0.917286396 0.395707637
vn 0.0446134359 -0.924957633 0.377442896
vn 0.0509893522 -0.921186626 0.38576588
vn 0.0509893559 -0.921186626 0.38576591
vn 0.177588135 0.332110852 0.926371932
vn 0.17090641 0.618192732 0.76722151
vn -0.809431434 0.271487832 0.520687103
vn 0.310986787 -0.400648713 0.86183989
vn -0.473181695 -0.837806523 0.272358924
vn -0.927412152 -0.310664535 0.208312809
vn -0.524457872 -0.850621045 -0.0372532196
vn -0.998075604 0.0239694826 -0.0571889766
vn -0.10742525 -0.120050959 -0.986938477
vn -0.110137448 0.218241066 -0.969659984
vn -0.113061428 -0.621812284 -0.774962306
vn 0.514907539 -0.810376406 -0.279571682
vn 0.888702035 0.206978336 -0.409107149
vn 0.990393698 -0.0344645344 -0.13391231
vn 0.52393645 -0.848705888 0.0720340461
vn 0.859365284 0.458257794 0.226916716
vn 0.177588135 0.332110852 0.926371932
vn 0.310986787 -0.400648713 0.86183989
vn 0.17090641 0.618192732 0.76722151
vn -0.17758809 0.332110912 0.926371813
vn 0.809431493 0.271487832 0.520687103
vn -0.170906335 0.618192613 0.76722157
vn -0.310986966 -0.400649041 0.861839592
vn 0.473181486 -0.837806642 0.272358805
vn 0.927412271 -0.310664028 0.208313093
vn 0.524458051 -0.850620985 -0.0372528397
vn 0.998075604 0.0239699855 -0.0571883917
vn 0.107425436 -0.120050371 -0.986938596
vn 0.110138558 0.218241453 -0.969659746
vn 0.113062017 -0.621812165 -0.774962306
vn -0.720505357 -0.630320847 -0.289080888
vn -0.905438781 0.230124712 -0.356683791
vn -0.990393698 -0.0344647989 -0.133912414
vn -0.923276007 0.376073837 0.0782938898
vn -0.778706789 -0.627061009 -0.0202555191
vn -0.17758809 0.332110912 0.926371813
vn -0.310986966 -0.400649041 0.861839592
vn -0.170906335 0.618192613 0.76722157
vn -0.833580017 0.357238889 0.4213368
vn -0.941943228 0.31206128 -0.123938538
vn -0.810533226 0.519431114 0.270605236
vn -0.505470872 0.467716366 0.725079715
vn 0.00179441529 0.667978108 0.744178712
vn 6.27678091E-05 0.477580905 0.878587842
vn 0.504183352 0.468240976 0.725637436
vn -0.806730866 0.216135889 -0.549973309
vn -0.848475873 0.0409049802 -0.527650952
vn -0.525765955 -0.106537923 -0.843931198
vn 0.0110343015 0.0348251574 -0.999332488
vn 0.000196136825 -0.246291369 -0.969195843
vn 0.450874031 -0.0957159922 -0.887440741
vn -0.617033839 0.565937757 -0.546793938
vn -0.539885998 0.841723442 -0.00498871738
vn 0.0455717556 0.716396451 -0.69620347
vn 0.797111154 0.245811194 -0.551534891
vn 0.787100613 0.0856562778 -0.610848367
vn 0.946238101 0.296759278 -0.128714561
vn 0.623405218 0.584249198 -0.519633353
vn 0.812752604 0.507318258 0.286463678
vn 0.878403604 0.340921462 0.334932119
vn 0.533431292 0.845789909 -0.00951205473
vn 0.0308822207 0.999004066 -0.032206472
g A_soldier_bubing12_0
f 3/3/3 2/2/2 1/1/1
f 3/3/3 1/1/1 4/4/4
f 1/1/1 5/5/5 4/4/4
f 4/4/4 6/6/6 3/3/3
f 5/5/5 7/7/7 4/4/4
f 6/6/6 4/4/4 8/8/8
f 7/7/7 9/9/9 4/4/4
f 8/8/8 4/4/4 9/9/9
f 7/7/7 10/10/10 9/9/9
f 11/11/11 10/10/10 7/7/7
f 10/10/10 11/11/11 12/12/12
f 13/13/13 8/8/8 9/9/9
f 13/13/13 9/9/9 10/10/10
f 13/13/13 14/14/14 8/8/8
f 15/15/15 13/13/13 10/10/10
f 15/15/15 10/10/10 16/16/16
f 10/10/10 17/17/17 16/16/16
f 12/12/12 17/17/17 10/10/10
f 18/18/18 16/16/16 17/17/17
f 17/17/17 12/12/12 19/19/19
f 19/19/19 12/12/12 20/20/20
f 19/19/19 20/20/20 21/21/21
f 19/19/19 21/21/21 22/22/22
f 18/18/18 17/17/17 23/23/23
f 19/19/19 23/23/23 17/17/17
f 19/19/19 22/22/22 24/24/24
f 24/24/24 23/23/23 19/19/19
f 22/22/22 25/25/25 24/24/24
f 23/23/23 24/24/24 25/25/25
f 22/22/22 26/26/26 25/25/25
f 23/23/23 25/25/25 27/27/27
f 27/27/27 18/18/18 23/23/23
f 28/28/28 18/18/18 27/27/27
f 31/31/31 30/30/30 29/29/29
f 32/32/32 31/31/31 29/29/29
f 33/33/33 32/32/32 29/29/29
f 34/34/34 33/33/33 29/29/29
f 37/37/37 36/36/36 35/35/35
f 38/38/38 37/37/37 35/35/35
f 38/38/38 39/39/39 37/37/37
f 40/40/40 38/38/38 35/35/35
f 38/38/38 41/41/41 39/39/39
f 39/39/39 41/41/41 42/42/42
f 42/42/42 41/41/41 43/43/43
f 43/43/43 41/41/41 38/38/38
f 40/40/40 44/44/44 38/38/38
f 44/44/44 43/43/43 38/38/38
f 40/40/40 45/45/45 44/44/44
f 43/43/43 44/44/44 45/45/45
f 40/40/40 46/46/46 45/45/45
f 43/43/43 45/45/45 47/47/47
f 45/45/45 46/46/46 48/48/48
f 49/49/49 47/47/47 45/45/45
f 50/50/50 45/45/45 48/48/48
f 49/49/49 45/45/45 50/50/50
f 53/53/53 52/52/52 51/51/51
f 52/52/52 54/54/54 51/51/51
f 54/54/54 52/52/52 55/55/55
f 54/54/54 55/55/55 56/56/56
f 56/56/56 55/55/55 57/57/57
f 58/58/58 56/56/56 57/57/57
f 56/56/56 58/58/58 59/59/59
f 54/54/54 56/56/56 60/60/60
f 60/60/60 56/56/56 59/59/59
f 54/54/54 60/60/60 61/61/61
f 59/59/59 62/62/62 60/60/60
f 60/60/60 63/63/63 61/61/61
f 62/62/62 64/64/64 60/60/60
f 60/60/60 64/64/64 63/63/63
f 65/65/65 64/64/64 62/62/62
f 65/65/65 62/62/62 66/66/66
f 67/67/67 64/64/64 65/65/65
f 63/63/63 64/64/64 67/67/67
f 68/68/68 63/63/63 67/67/67
f 69/69/69 68/68/68 67/67/67
f 72/72/72 71/71/71 70/70/70
f 73/73/73 70/70/70 71/71/71
f 74/74/74 73/73/73 71/71/71
f 74/74/74 75/75/75 73/73/73
f 78/78/78 77/77/77 76/76/76
f 79/79/79 76/76/76 77/77/77
f 80/80/80 79/79/79 77/77/77
f 79/79/79 81/81/81 76/76/76
f 80/80/80 82/82/82 79/79/79
f 79/79/79 83/83/83 81/81/81
f 79/79/79 82/82/82 84/84/84
f 79/79/79 85/85/85 83/83/83
f 85/85/85 79/79/79 84/84/84
f 83/83/83 85/85/85 86/86/86
f 86/86/86 85/85/85 84/84/84
f 87/87/87 83/83/83 86/86/86
f 86/86/86 84/84/84 88/88/88
f 86/86/86 89/89/89 87/87/87
f 86/86/86 88/88/88 90/90/90
f 86/86/86 91/91/91 89/89/89
f 86/86/86 90/90/90 91/91/91
f 94/94/94 93/93/93 92/92/92
f 93/93/93 95/95/95 92/92/92
f 93/93/93 96/96/96 95/95/95
f 93/93/93 97/97/97 96/96/96
f 98/98/98 95/95/95 96/96/96
f 98/98/98 99/99/99 95/95/95
f 98/98/98 100/100/100 99/99/99
f 96/96/96 97/97/97 101/101/101
f 98/98/98 96/96/96 101/101/101
f 100/100/100 98/98/98 101/101/101
f 102/102/102 101/101/101 97/97/97
f 103/103/103 100/100/100 101/101/101
f 103/103/103 101/101/101 102/102/102
f 103/103/103 102/102/102 104/104/104
f 107/107/107 106/106/106 105/105/105
f 108/108/108 105/105/105 106/106/106
f 108/108/108 106/106/106 109/109/109
f 106/106/106 110/110/110 109/109/109
f 105/105/105 108/108/108 111/111/111
f 105/105/105 111/111/111 112/112/112
f 112/112/112 111/111/111 113/113/113
f 116/116/116 115/115/115 114/114/114
f 116/116/116 114/114/114 117/117/117
f 117/117/117 114/114/114 118/118/118
f 114/114/114 119/119/119 118/118/118
f 119/119/119 120/120/120 118/118/118
f 117/117/117 121/121/121 116/116/116
f 121/121/121 122/122/122 116/116/116
f 123/123/123 121/121/121 117/117/117
f 118/118/118 123/123/123 117/117/117
f 123/123/123 124/124/124 121/121/121
f 118/118/118 125/125/125 123/123/123
f 126/126/126 125/125/125 118/118/118
f 120/120/120 126/126/126 118/118/118
f 120/120/120 127/127/127 126/126/126
f 130/130/130 129/129/129 128/128/128
f 129/129/129 131/131/131 128/128/128
f 131/131/131 132/132/132 128/128/128
f 132/132/132 133/133/133 128/128/128
f 136/136/136 135/135/135 134/134/134
f 135/135/135 137/137/137 134/134/134
f 138/138/138 137/137/137 135/135/135
f 137/137/137 139/139/139 134/134/134
f 140/140/140 137/137/137 138/138/138
f 140/140/140 138/138/138 141/141/141
f 140/140/140 141/141/141 142/142/142
f 140/140/140 142/142/142 137/137/137
f 143/143/143 139/139/139 137/137/137
f 142/142/142 143/143/143 137/137/137
f 144/144/144 139/139/139 143/143/143
f 143/143/143 142/142/142 144/144/144
f 145/145/145 139/139/139 144/144/144
f 144/144/144 142/142/142 146/146/146
f 145/145/145 144/144/144 147/147/147
f 146/146/146 148/148/148 144/144/144
f 144/144/144 149/149/149 147/147/147
f 144/144/144 148/148/148 149/149/149
f 152/152/152 151/151/151 150/150/150
f 153/153/153 152/152/152 150/150/150
f 152/152/152 153/153/153 154/154/154
f 154/154/154 153/153/153 155/155/155
f 154/154/154 155/155/155 156/156/156
f 155/155/155 157/157/157 156/156/156
f 157/157/157 155/155/155 158/158/158
f 155/155/155 153/153/153 159/159/159
f 155/155/155 159/159/159 158/158/158
f 159/159/159 153/153/153 160/160/160
f 161/161/161 158/158/158 159/159/159
f 162/162/162 159/159/159 160/160/160
f 163/163/163 161/161/161 159/159/159
f 163/163/163 159/159/159 162/162/162
f 163/163/163 164/164/164 161/161/161
f 161/161/161 164/164/164 165/165/165
f 163/163/163 166/166/166 164/164/164
f 163/163/163 162/162/162 166/166/166
f 162/162/162 167/167/167 166/166/166
f 167/167/167 168/168/168 166/166/166
f 171/171/171 170/170/170 169/169/169
f 169/169/169 172/172/172 171/171/171
f 172/172/172 173/173/173 171/171/171
f 174/174/174 173/173/173 172/172/172
f 177/177/177 176/176/176 175/175/175
f 175/175/175 178/178/178 177/177/177
f 178/178/178 179/179/179 177/177/177
f 180/180/180 178/178/178 175/175/175
f 181/181/181 179/179/179 178/178/178
f 182/182/182 178/178/178 180/180/180
f 181/181/181 178/178/178 183/183/183
f 184/184/184 178/178/178 182/182/182
f 178/178/178 184/184/184 183/183/183
f 184/184/184 182/182/182 185/185/185
f 183/183/183 184/184/184 185/185/185
f 182/182/182 186/186/186 185/185/185
f 183/183/183 185/185/185 187/187/187
f 188/188/188 185/185/185 186/186/186
f 189/189/189 187/187/187 185/185/185
f 190/190/190 185/185/185 188/188/188
f 189/189/189 185/185/185 190/190/190
f 193/193/193 192/192/192 191/191/191
f 194/194/194 193/193/193 191/191/191
f 195/195/195 193/193/193 194/194/194
f 196/196/196 193/193/193 195/195/195
f 194/194/194 197/197/197 195/195/195
f 198/198/198 197/197/197 194/194/194
f 199/199/199 197/197/197 198/198/198
f 196/196/196 195/195/195 200/200/200
f 195/195/195 197/197/197 200/200/200
f 197/197/197 199/199/199 200/200/200
f 200/200/200 201/201/201 196/196/196
f 199/199/199 202/202/202 200/200/200
f 200/200/200 202/202/202 201/201/201
f 201/201/201 202/202/202 203/203/203
f 206/206/206 205/205/205 204/204/204
f 207/207/207 206/206/206 204/204/204
f 207/207/207 204/204/204 208/208/208
f 207/207/207 209/209/209 206/206/206
f 210/210/210 207/207/207 208/208/208
f 210/210/210 208/208/208 211/211/211
f 208/208/208 212/212/212 211/211/211
f 209/209/209 213/213/213 206/206/206
f 209/209/209 214/214/214 213/213/213
f 214/214/214 215/215/215 213/213/213
f 218/218/218 217/217/217 216/216/216
f 219/219/219 217/217/217 218/218/218
f 219/219/219 218/218/218 220/220/220
f 218/218/218 216/216/216 221/221/221
f 218/218/218 222/222/222 220/220/220
f 221/221/221 223/223/223 218/218/218
f 223/223/223 222/222/222 218/218/218
f 221/221/221 224/224/224 223/223/223
f 225/225/225 222/222/222 223/223/223
f 224/224/224 225/225/225 223/223/223
f 225/225/225 226/226/226 222/222/222
f 227/227/227 226/226/226 225/225/225
f 228/228/228 225/225/225 224/224/224
f 228/228/228 227/227/227 225/225/225
f 229/229/229 228/228/228 224/224/224
f 228/228/228 230/230/230 227/227/227
f 229/229/229 231/231/231 228/228/228
f 228/228/228 231/231/231 230/230/230
f 231/231/231 229/229/229 232/232/232
f 233/233/233 230/230/230 231/231/231
f 231/231/231 232/232/232 234/234/234
f 233/233/233 231/231/231 234/234/234
f 237/237/237 236/236/236 235/235/235
f 237/237/237 238/238/238 236/236/236
f 236/236/236 238/238/238 239/239/239
f 235/235/235 236/236/236 240/240/240
f 241/241/241 236/236/236 239/239/239
f 242/242/242 240/240/240 236/236/236
f 241/241/241 242/242/242 236/236/236
f 243/243/243 240/240/240 242/242/242
f 241/241/241 244/244/244 242/242/242
f 244/244/244 243/243/243 242/242/242
f 241/241/241 245/245/245 244/244/244
f 245/245/245 246/246/246 244/244/244
f 244/244/244 247/247/247 243/243/243
f 246/246/246 247/247/247 244/244/244
f 247/247/247 248/248/248 243/243/243
f 249/249/249 247/247/247 246/246/246
f 249/249/249 248/248/248 247/247/247
f 250/250/250 249/249/249 246/246/246
f 248/248/248 249/249/249 251/251/251
f 250/250/250 252/252/252 249/249/249
f 251/251/251 249/249/249 253/253/253
f 249/249/249 252/252/252 253/253/253
f 256/256/256 255/255/255 254/254/254
f 254/254/254 257/257/257 256/256/256
f 256/256/256 257/257/257 258/258/258
f 257/257/257 259/259/259 258/258/258
f 258/258/258 259/259/259 260/260/260
f 256/256/256 261/261/261 255/255/255
f 255/255/255 261/261/261 262/262/262
f 261/261/261 263/263/263 262/262/262
f 263/263/263 261/261/261 264/264/264
f 264/264/264 265/265/265 263/263/263
f 265/265/265 264/264/264 266/266/266
f 267/267/267 261/261/261 256/256/256
f 261/261/261 267/267/267 264/264/264
f 268/268/268 267/267/267 256/256/256
f 258/258/258 268/268/268 256/256/256
f 267/267/267 268/268/268 269/269/269
f 264/264/264 267/267/267 269/269/269
f 266/266/266 264/264/264 270/270/270
f 271/271/271 266/266/266 270/270/270
f 272/272/272 271/271/271 270/270/270
f 270/270/270 264/264/264 273/273/273
f 273/273/273 264/264/264 269/269/269
f 270/270/270 274/274/274 272/272/272
f 274/274/274 270/270/270 273/273/273
f 274/274/274 275/275/275 272/272/272
f 274/274/274 260/260/260 275/275/275
f 274/274/274 258/258/258 260/260/260
f 274/274/274 273/273/273 276/276/276
f 273/273/273 269/269/269 276/276/276
f 274/274/274 276/276/276 258/258/258
f 269/269/269 268/268/268 277/277/277
f 277/277/277 268/268/268 258/258/258
f 258/258/258 276/276/276 277/277/277
f 276/276/276 269/269/269 277/277/277
