g A_Vehicle_transportcar_chedeng02
v -1.17119944 1.47850394 -2.3026123
v -1.14494038 1.44220316 -2.3157444
v -1.13829839 1.43103516 -2.27987933
v -1.16597939 1.47612119 -2.27085257
v -1.14494038 1.44220316 -2.3157444
v -1.13709342 1.34471524 -2.31219149
v -1.13829839 1.43103516 -2.27987933
v -1.14378846 1.35968101 -2.34663558
v -1.16317248 1.30315125 -2.32822442
v -1.17743433 1.37597501 -2.36615634
v -1.17835438 1.4419111 -2.34147358
v -1.17119944 1.47850394 -2.3026123
v -1.16903043 1.32305026 -2.3608048
v -1.1866504 1.36096311 -2.37194443
v -1.38306332 1.32167614 -2.36511326
v -1.3890084 1.30169296 -2.34009147
v -1.37495637 1.37470806 -2.37013364
v -1.36512017 1.35981715 -2.37553763
v -1.40705442 1.3579911 -2.35193563
v -1.41738343 1.344648 -2.32450461
v -1.37587643 1.44064307 -2.34545064
v -1.40820527 1.44051301 -2.32104445
v -1.41860747 1.43230999 -2.2916894
v -1.36645722 1.45565796 -2.33966041
v -1.38523221 1.47713006 -2.30692172
v -1.39143527 1.47562099 -2.2749846
v -1.16597939 1.47612119 -2.27085257
v -1.18798745 1.45680296 -2.3360672
v 1.41860747 1.43230999 -2.2916894
v 1.39143527 1.47562099 -2.2749846
v 1.38523221 1.47713006 -2.30692172
v 1.16597939 1.47612119 -2.27085257
v 1.40820527 1.44051301 -2.32104445
v 1.41738343 1.344648 -2.32450461
v 1.17119944 1.47850394 -2.3026123
v 1.13829839 1.43103516 -2.27987933
v 1.40705442 1.3579911 -2.35193563
v 1.3890084 1.30169296 -2.34009147
v 1.14494038 1.44220316 -2.3157444
v 1.13709342 1.34471524 -2.31219149
v 1.38306332 1.32167614 -2.36511326
v 1.16317248 1.30315125 -2.32822442
v 1.14378846 1.35968101 -2.34663558
v 1.16903043 1.32305026 -2.3608048
v 1.1866504 1.36096311 -2.37194443
v 1.17743433 1.37597501 -2.36615634
v 1.17835438 1.4419111 -2.34147358
v 1.37495637 1.37470806 -2.37013364
v 1.36512017 1.35981715 -2.37553763
v 1.37587643 1.44064307 -2.34545064
v 1.36645722 1.45565796 -2.33966041
v 1.18798745 1.45680296 -2.3360672
vt 0.18217513 0.606744468
vt 0.138375521 0.677419424
vt 0.0766585842 0.661494136
vt 0.152312785 0.552990854
vt 0.138375521 0.677419424
vt 0.0766585842 0.868545234
vt 0.0766585842 0.661494136
vt 0.138375521 0.8446545
vt 0.148330152 0.976051927
vt 0.206065565 0.8237499
vt 0.206065565 0.700314999
vt 0.18217513 0.606744468
vt 0.18217513 0.918316364
vt 0.221993357 0.851622641
vt 0.584333122 0.918316364
vt 0.606231511 0.976051927
vt 0.56442368 0.8237499
vt 0.546506524 0.851622641
vt 0.631118298 0.850626647
vt 0.683876514 0.870535195
vt 0.56442368 0.700314999
vt 0.631118298 0.679411411
vt 0.683876514 0.661494136
vt 0.546506524 0.673439264
vt 0.586322248 0.606744468
vt 0.614196658 0.552990854
vt 0.152312785 0.552990854
vt 0.221993357 0.673439264
vt 0.683875859 0.661494136
vt 0.614195824 0.552990854
vt 0.586323023 0.606744468
vt 0.152312785 0.552990854
vt 0.631118298 0.679411411
vt 0.683875859 0.870535195
vt 0.182175934 0.606744468
vt 0.0766590014 0.661494136
vt 0.631118298 0.850626647
vt 0.606231511 0.976051927
vt 0.138376117 0.677419424
vt 0.0766590014 0.868545234
vt 0.584333122 0.918316364
vt 0.148330152 0.976051927
vt 0.138376117 0.8446545
vt 0.182175934 0.918316364
vt 0.22199297 0.851622641
vt 0.206065565 0.8237499
vt 0.206065565 0.700314999
vt 0.564422965 0.8237499
vt 0.54650557 0.851622641
vt 0.564422965 0.700314999
vt 0.54650557 0.673439264
vt 0.22199297 0.673439264
vn 0.828860939 0.558451891 -0.0334826596
vn 0.828860939 0.558451831 -0.0334826559
vn 0.828860939 0.558451891 -0.0334826596
vn 0.828860939 0.558451891 -0.0334826596
vn 0.830194652 0.2510809 -0.497730136
vn 0.965206861 -0.0999395177 -0.241635621
vn 0.984471202 0.0734309927 -0.159450591
vn 0.858571291 0.0334412679 -0.511602342
vn 0.211686075 -0.794267476 -0.569498241
vn 0.156379655 0.326382548 -0.932212234
vn 0.155773327 0.36982426 -0.915950179
vn 0.0352815241 0.97005254 -0.240318879
vn 0.16177842 -0.610556304 -0.775273263
vn 0.0763787925 -0.0867661461 -0.993296564
vn -0.100793608 -0.607365191 -0.78800261
vn -0.121756122 -0.796243787 -0.592597067
vn -0.124962099 0.325623333 -0.937205315
vn -0.0349080935 -0.0872888863 -0.995571315
vn -0.799181759 0.0571558587 -0.598365903
vn -0.923609674 -0.0624885224 -0.378206879
vn -0.125537887 0.366790771 -0.921794236
vn -0.802989244 0.330210537 -0.496154368
vn -0.928287148 0.272813946 -0.252696425
vn -0.0461501777 0.718570352 -0.693921328
vn -0.131312758 0.962582052 -0.237050042
vn -0.16710417 0.985567808 0.0270615816
vn -0.00542599522 0.99812907 0.0609018989
vn 0.0651284084 0.719408453 -0.691527128
vn 0.928286731 0.272814423 -0.252697468
vn 0.167103916 0.985567808 0.0270619243
vn 0.131312445 0.96258229 -0.23704949
vn -0.19152613 0.98050791 0.0438405387
vn 0.802989125 0.330210656 -0.496154547
vn 0.923609674 -0.062487863 -0.378206849
vn -0.139034614 0.964292824 -0.225407898
vn -0.964147627 0.235114589 -0.12304654
vn 0.799182415 0.0571559742 -0.598364949
vn 0.12175674 -0.796244085 -0.592596471
vn -0.852109313 0.324046999 -0.410978466
vn -0.965206861 -0.0999386907 -0.241636023
vn 0.100794151 -0.607365549 -0.788002312
vn -0.211686343 -0.794267476 -0.569498122
vn -0.858570993 0.0334423184 -0.511602819
vn -0.161778495 -0.610556304 -0.775273323
vn -0.0763788074 -0.08676631 -0.993296444
vn -0.156379268 0.326382637 -0.932212353
vn -0.155773133 0.369824231 -0.915950179
vn 0.124962501 0.325623244 -0.937205315
vn 0.034908317 -0.0872890279 -0.995571315
vn 0.125538096 0.366790682 -0.921794355
vn 0.046150133 0.718571246 -0.693920374
vn -0.0651287064 0.719409168 -0.691526294
g A_Vehicle_transportcar_chedeng02_0
f 3/3/3 2/2/2 1/1/1
f 4/4/4 3/3/3 1/1/1
f 7/7/7 6/6/6 5/5/5
f 6/6/6 8/8/8 5/5/5
f 6/6/6 9/9/9 8/8/8
f 5/5/5 8/8/8 10/10/10
f 11/11/11 5/5/5 10/10/10
f 12/12/12 5/5/5 11/11/11
f 9/9/9 13/13/13 8/8/8
f 14/14/14 10/10/10 8/8/8
f 13/13/13 14/14/14 8/8/8
f 15/15/15 13/13/13 9/9/9
f 13/13/13 15/15/15 14/14/14
f 16/16/16 15/15/15 9/9/9
f 10/10/10 14/14/14 17/17/17
f 11/11/11 10/10/10 17/17/17
f 15/15/15 18/18/18 14/14/14
f 14/14/14 18/18/18 17/17/17
f 18/18/18 15/15/15 17/17/17
f 19/19/19 15/15/15 16/16/16
f 15/15/15 19/19/19 17/17/17
f 20/20/20 19/19/19 16/16/16
f 17/17/17 19/19/19 21/21/21
f 21/21/21 11/11/11 17/17/17
f 22/22/22 19/19/19 20/20/20
f 19/19/19 22/22/22 21/21/21
f 23/23/23 22/22/22 20/20/20
f 21/21/21 24/24/24 11/11/11
f 21/21/21 22/22/22 24/24/24
f 25/25/25 22/22/22 23/23/23
f 22/22/22 25/25/25 24/24/24
f 26/26/26 25/25/25 23/23/23
f 26/26/26 27/27/27 25/25/25
f 27/27/27 12/12/12 25/25/25
f 28/28/28 12/12/12 11/11/11
f 24/24/24 28/28/28 11/11/11
f 25/25/25 12/12/12 28/28/28
f 24/24/24 25/25/25 28/28/28
f 31/31/31 30/30/30 29/29/29
f 32/32/32 30/30/30 31/31/31
f 33/33/33 31/31/31 29/29/29
f 33/33/33 29/29/29 34/34/34
f 35/35/35 32/32/32 31/31/31
f 36/36/36 32/32/32 35/35/35
f 37/37/37 33/33/33 34/34/34
f 37/37/37 34/34/34 38/38/38
f 39/39/39 36/36/36 35/35/35
f 40/40/40 36/36/36 39/39/39
f 41/41/41 37/37/37 38/38/38
f 41/41/41 38/38/38 42/42/42
f 42/42/42 40/40/40 43/43/43
f 43/43/43 40/40/40 39/39/39
f 44/44/44 41/41/41 42/42/42
f 44/44/44 42/42/42 43/43/43
f 45/45/45 44/44/44 43/43/43
f 41/41/41 44/44/44 45/45/45
f 43/43/43 39/39/39 46/46/46
f 46/46/46 45/45/45 43/43/43
f 39/39/39 35/35/35 47/47/47
f 39/39/39 47/47/47 46/46/46
f 45/45/45 46/46/46 48/48/48
f 46/46/46 47/47/47 48/48/48
f 37/37/37 41/41/41 48/48/48
f 49/49/49 41/41/41 45/45/45
f 41/41/41 49/49/49 48/48/48
f 49/49/49 45/45/45 48/48/48
f 37/37/37 48/48/48 50/50/50
f 47/47/47 50/50/50 48/48/48
f 33/33/33 37/37/37 50/50/50
f 33/33/33 50/50/50 51/51/51
f 51/51/51 50/50/50 47/47/47
f 31/31/31 33/33/33 51/51/51
f 35/35/35 52/52/52 47/47/47
f 52/52/52 51/51/51 47/47/47
f 31/31/31 51/51/51 52/52/52
f 35/35/35 31/31/31 52/52/52
