g O_env_madai_001_xl
v 0.663523912 0.275220782 0.00199951162
v 0.648301125 0.275220782 0.2456958
v 0.674215436 0.287179112 0.00215087878
v 0.664534032 0.287178636 -0.236062005
v 0.670799017 0.354584962 0.0021020507
v 0.661543667 0.354584962 -0.23474364
v 0.654585004 0.354585111 0.248781726
v 0.648301125 0.275220782 0.2456958
v 0.611955762 0.354585111 0.328547359
v 0.606831908 0.275220782 0.324497074
v 0.553627551 0.363159329 0.359345704
v 0.555643499 0.275220782 0.361733377
v 0.353180766 0.354585111 0.397258282
v 0.351987839 0.275220782 0.392124027
v -0.382831335 0.354585111 0.379655749
v -0.381494522 0.275220782 0.374555647
v -0.554126799 0.363159329 0.346845686
v -0.556208074 0.275220782 0.349177241
v 0.623641133 0.287178963 -0.327614725
v 0.621183217 0.354584962 -0.325871587
v 0.569752872 0.354584962 -0.369865716
v 0.571564257 0.287178963 -0.371855468
v -0.621181846 0.354585111 0.31115967
v -0.615946889 0.275220782 0.307255864
v 0.364342481 0.354584962 -0.395095199
v 0.36496824 0.287178963 -0.397258282
v -0.352207094 0.275220931 -0.390847147
v -0.351465672 0.36315918 -0.388076156
v -0.529899836 0.275220931 -0.388659656
v -0.533630908 0.354584962 -0.393303216
v -0.656829119 0.27522108 0.204768062
v -0.606832623 0.275220931 -0.33920899
v -0.611955464 0.354584962 -0.343256831
v -0.65356195 0.363159329 0.203342274
v -0.650146365 0.36315918 -0.244086906
v -0.653371811 0.275220633 -0.245603025
v -0.674215436 0.287178636 -0.0168627929
v -0.659832656 0.36315918 -0.0166577138
v -0.663523495 0.275220633 -0.016711425
v -0.653371811 0.275220633 -0.245603025
v 0.509985268 0.0985377505 0.245139152
v 0.555643499 0.275220782 0.361733377
v 0.606831908 0.275220782 0.324497074
v 0.648301125 0.275220782 0.2456958
v 0.461505026 0.0764399692 0.31081298
v 0.351987839 0.275220782 0.392124027
v 0.538420916 0.098381497 0.000234374995
v 0.663523912 0.275220782 0.00199951162
v 0.297787249 0.0763313249 0.322014153
v -0.381494522 0.275220782 0.374555647
v 0.516901314 0.0985375941 -0.245371088
v 0.664534032 0.287178636 -0.236062005
v 0.623641133 0.287178963 -0.327614725
v 0.470241308 0.0504858382 -0.30886963
v 0.571564257 0.287178963 -0.371855468
v 0.306904912 0.0775024369 -0.324680179
v 0.36496824 0.287178963 -0.397258282
v -0.352207094 0.275220931 -0.390847147
v -0.297711253 0.0817559808 -0.342280269
v -0.529899836 0.275220931 -0.388659656
v -0.46142906 0.0818646252 -0.331081539
v -0.606832623 0.275220931 -0.33920899
v 0.281388998 -0.0267430115 -0.217092276
v -0.275329202 -0.0370878577 -0.227382809
v 0.42234534 -0.021791229 -0.206481934
v -0.416529775 -0.032135468 -0.220749512
v 0.462605357 0.00591201754 -0.175493166
v 0.400171578 -0.0634159818 -0.00171386718
v 0.46201086 -0.00645858748 -0.00084228511
v 0.4167144 -0.0236399844 0.192609861
v 0.457680285 0.00591201754 0.173757315
v 0.275514662 -0.0285917651 0.199243158
v -0.306903452 0.0825782791 0.309968263
v -0.293926448 -0.0391056798 0.196171865
v -0.470241904 0.082686916 0.294157714
v -0.556208074 0.275220782 0.349177241
v -0.615946889 0.275220782 0.307255864
v -0.422344565 -0.021284027 0.191770017
v -0.507166028 0.0984761044 0.261782229
v -0.656829119 0.27522108 0.204768062
v -0.462603509 0.00591201754 0.160781249
v -0.400170207 -0.0530357361 -0.0129980464
v -0.519138992 0.0985981748 0.196506336
v -0.663523495 0.275220633 -0.016711425
v -0.538420498 0.098381497 -0.0149462884
v -0.653371811 0.275220633 -0.245603025
v -0.447535932 -0.0218168627 -0.0136645501
v -0.520591974 0.0985983238 -0.229013667
v -0.457679957 0.00591201754 -0.188466787
v -0.488566667 0.0840380862 -0.303105474
v 0.317235261 0.506719947 -0.340568841
v -0.351465672 0.36315918 -0.388076156
v 0.364342481 0.354584962 -0.395095199
v 0.569752872 0.354584962 -0.369865716
v -0.313445956 0.506719947 -0.355339348
v -0.533630908 0.354584962 -0.393303216
v 0.504944384 0.526533782 -0.323386222
v 0.621183217 0.354584962 -0.325871587
v -0.481718063 0.505209327 -0.341833502
v -0.611955464 0.354584962 -0.343256831
v -0.533314109 0.500294805 -0.283037096
v -0.650146365 0.36315918 -0.244086906
v -0.659832656 0.36315918 -0.0166577138
v -0.424707562 0.663868546 -0.246635735
v -0.28058067 0.662880361 -0.267331541
v 0.537153661 0.51902771 -0.21757324
v 0.661543667 0.354584962 -0.23474364
v 0.670799017 0.354584962 0.0021020507
v -0.550273657 0.522496462 -0.0151171871
v -0.475109637 0.639910877 -0.176735833
v -0.537152946 0.519027829 0.202863768
v -0.65356195 0.363159329 0.203342274
v -0.621181846 0.354585111 0.31115967
v -0.462010115 0.642499208 -0.0138696283
v -0.400170207 0.692725956 -0.0129980464
v -0.266776055 0.699417889 -0.0111157224
v -0.504749656 0.514917731 0.307963848
v -0.554126799 0.363159329 0.346845686
v -0.382831335 0.354585111 0.379655749
v -0.471049398 0.6399104 0.140168458
v -0.422568589 0.66544205 0.208154291
v -0.317218542 0.525518358 0.324775398
v 0.353180766 0.354585111 0.397258282
v -0.281605452 0.670394421 0.218300775
v 0.275212467 0.673183143 0.221320793
v 0.281887889 0.662880719 -0.253540039
v 0.307830572 0.525518358 0.327285141
v 0.473318398 0.541161656 0.317536622
v 0.553627551 0.363159329 0.359345704
v 0.611955762 0.354585111 0.328547359
v 0.266777962 0.699417889 -0.00359374983
v 0.422765732 0.663868546 -0.237189934
v 0.4167144 0.663868546 0.19255127
v 0.525290608 0.519060493 0.234775379
v 0.654585004 0.354585111 0.248781726
v 0.400171578 0.692725956 -0.00171386718
v 0.466696829 0.639910698 0.153369144
v 0.544826269 0.522496462 0.00032958985
v 0.46201086 0.642499208 -0.00084228511
v 0.471049875 0.639911056 -0.154880375
vt 0.933631182 0.759022653
vt 0.961267352 0.754036546
vt 0.933647394 0.75743705
vt 0.907474399 0.752225459
vt 0.933702528 0.751644611
vt 0.909699976 0.747357428
vt 0.958717108 0.74770081
vt 0.960909545 0.752530217
vt 0.966287673 0.743371964
vt 0.969598174 0.747260034
vt 0.970305383 0.738636613
vt 0.974452853 0.741792083
vt 0.978384733 0.719297707
vt 0.983534932 0.720621526
vt 0.978318989 0.647991657
vt 0.983541369 0.646675527
vt 0.97167021 0.631353438
vt 0.975876272 0.628300488
vt 0.898001313 0.746354878
vt 0.901359737 0.742556751
vt 0.897243321 0.737752318
vt 0.89324075 0.740739405
vt 0.967246532 0.625853121
vt 0.970494568 0.622104824
vt 0.889775276 0.718733311
vt 0.884627998 0.720002234
vt 0.885231078 0.647634745
vt 0.890518785 0.648983359
vt 0.892800689 0.628965795
vt 0.89694792 0.631884992
vt 0.959945858 0.615688384
vt 0.899273694 0.621333659
vt 0.902493894 0.625172496
vt 0.957774341 0.620643556
vt 0.911289275 0.620301187
vt 0.909192979 0.615451455
vt 0.934867263 0.611048818
vt 0.934822023 0.616862118
vt 0.934887409 0.609456956
vt 0.908881724 0.613956392
vt 0.0273292009 0.971495152
vt 0.0119318673 0.980077207
vt 0.0160935801 0.985067189
vt 0.0240831245 0.989774168
vt 0.0221237279 0.966116667
vt 0.00418146839 0.959192395
vt 0.049378939 0.975223124
vt 0.0491314083 0.99260956
vt 0.019537311 0.951842844
vt 0.00569530204 0.888079643
vt 0.0714794695 0.972179234
vt 0.0732792839 0.990642011
vt 0.0824008733 0.98593545
vt 0.0759722665 0.966134429
vt 0.0870457217 0.980988801
vt 0.0798349679 0.952401102
vt 0.094958894 0.960101604
vt 0.0949588865 0.890693724
vt 0.081168294 0.898192286
vt 0.0891150087 0.872718394
vt 0.0783327669 0.883969188
vt 0.0832523406 0.865532398
vt 0.0681732371 0.949433327
vt 0.0685993209 0.901161432
vt 0.0668601245 0.96139133
vt 0.0675605983 0.889513671
vt 0.0644384548 0.965333223
vt 0.049606543 0.959129333
vt 0.0495210066 0.965415955
vt 0.0332893394 0.960922003
vt 0.0346548259 0.964916229
vt 0.0322312713 0.949003696
vt 0.0198444705 0.89772284
vt 0.032599777 0.899820983
vt 0.0229166821 0.883371055
vt 0.0126943858 0.870303869
vt 0.0176132899 0.864584565
vt 0.0330868885 0.889013052
vt 0.025452517 0.879572451
vt 0.0279581659 0.859707117
vt 0.0354418643 0.885063946
vt 0.0503161922 0.890931427
vt 0.0312524438 0.877795696
vt 0.0507256836 0.857841432
vt 0.0504120551 0.875227392
vt 0.0739522502 0.860485673
vt 0.0503402799 0.886498034
vt 0.0697536767 0.877636075
vt 0.0652217939 0.885218084
vt 0.0759342611 0.881460309
vt 0.901093185 0.712205291
vt 0.891469002 0.649353027
vt 0.890724361 0.718396664
vt 0.897978425 0.737017632
vt 0.901511192 0.655060709
vt 0.897648752 0.632668793
vt 0.906209171 0.727901101
vt 0.902104318 0.741650462
vt 0.905571401 0.640634
vt 0.903180957 0.626106977
vt 0.910624683 0.635874748
vt 0.911847472 0.621364415
vt 0.934816122 0.618173301
vt 0.915994227 0.648425341
vt 0.913570762 0.659661949
vt 0.914492488 0.732051194
vt 0.910292327 0.746295094
vt 0.933715463 0.75033772
vt 0.934660435 0.633600414
vt 0.921219826 0.644078732
vt 0.954115808 0.636480451
vt 0.957180917 0.62171036
vt 0.966529667 0.62676698
vt 0.934575737 0.644791543
vt 0.934546232 0.65076369
vt 0.934468508 0.661643267
vt 0.962826252 0.640363932
vt 0.970929861 0.632117152
vt 0.977364957 0.648324966
vt 0.947320819 0.644744933
vt 0.952346981 0.64920646
vt 0.966114461 0.656390548
vt 0.977416456 0.718959987
vt 0.953417718 0.660505652
vt 0.952457964 0.708120525
vt 0.913494825 0.707985342
vt 0.965184152 0.712502956
vt 0.961168051 0.726332664
vt 0.969548345 0.73787111
vt 0.965576589 0.742430031
vt 0.9340415 0.706900597
vt 0.91505748 0.719162107
vt 0.949742079 0.719393015
vt 0.95472604 0.73167628
vt 0.958157122 0.74662751
vt 0.93396914 0.717807233
vt 0.946663678 0.723847091
vt 0.933895707 0.734435797
vt 0.933946908 0.723736048
vt 0.921215594 0.723805785
vn 0.774417996 -0.632602453 0.0095359413
vn 0.907589436 -0.33152014 0.257634908
vn 0.940004349 -0.340746015 0.0168512054
vn 0.935960829 -0.278702736 -0.215179145
vn 0.946075022 0.323354393 0.019597752
vn 0.919801593 0.33033815 -0.211758643
vn 0.92111975 0.284128994 0.26609984
vn 0.907589436 -0.33152014 0.257634908
vn 0.728704154 0.232202321 0.644261181
vn 0.742432892 -0.304204553 0.596869349
vn 0.359732956 0.183859557 0.914761066
vn 0.424549252 -0.242230043 0.872400522
vn 0.0631515458 0.148884013 0.986836076
vn 0.0622381046 -0.183948413 0.980963588
vn -0.0925322697 0.143478557 0.985318065
vn -0.0884412378 -0.187467843 0.97828114
vn -0.351630658 0.169027984 0.920752645
vn -0.391762346 -0.224696517 0.892207205
vn 0.813574553 -0.252842575 -0.523609519
vn 0.784514368 0.286727875 -0.549840212
vn 0.40218237 0.210692778 -0.890987039
vn 0.472839832 -0.210617855 -0.855606675
vn -0.773347795 0.232002199 0.590006828
vn -0.776996911 -0.285248935 0.561167419
vn 0.0550632253 0.169785917 -0.983941495
vn 0.054866869 -0.136277884 -0.989150107
vn -0.00920183863 -0.137571588 -0.990449131
vn -0.00797023904 0.151351884 -0.988447845
vn -0.311031342 -0.212082848 -0.926434219
vn -0.327941 0.186122999 -0.926181972
vn -0.940895557 -0.287870318 0.178455174
vn -0.750803709 -0.286545187 -0.595135093
vn -0.757962942 0.235645264 -0.608246207
vn -0.927210748 0.328437179 0.180025905
vn -0.919352293 0.32896018 -0.215816095
vn -0.933943748 -0.281664133 -0.220032394
vn -0.957578063 -0.288098872 -0.0065713916
vn -0.93286556 0.360057294 -0.0109820226
vn -0.775279343 -0.63160938 -0.00338413473
vn -0.933943748 -0.281664133 -0.220032394
vn 0.747475088 -0.597356319 0.290596515
vn 0.424549252 -0.242230043 0.872400522
vn 0.742432892 -0.304204553 0.596869349
vn 0.907589436 -0.33152014 0.257634908
vn 0.376157582 -0.596088469 0.709354639
vn 0.0622381046 -0.183948413 0.980963588
vn 0.812702358 -0.582565606 0.0114990789
vn 0.774417996 -0.632602453 0.0095359413
vn 0.0291970391 -0.552319646 0.833120942
vn -0.0884412378 -0.187467843 0.97828114
vn 0.781330705 -0.581910014 -0.2256172
vn 0.935960829 -0.278702736 -0.215179145
vn 0.813574553 -0.252842575 -0.523609519
vn 0.410598338 -0.627242923 -0.661796987
vn 0.472839832 -0.210617855 -0.855606675
vn 0.0281713195 -0.526033998 -0.849996805
vn 0.054866869 -0.136277884 -0.989150107
vn -0.00920183863 -0.137571588 -0.990449131
vn -0.0149988523 -0.505546749 -0.862668812
vn -0.311031342 -0.212082848 -0.926434219
vn -0.334316492 -0.539583266 -0.772711039
vn -0.750803709 -0.286545187 -0.595135093
vn 0.0115260817 -0.733686745 -0.679390132
vn -0.0131855914 -0.704799652 -0.709283888
vn 0.458217651 -0.804572046 -0.377757072
vn -0.437115043 -0.774915695 -0.456548065
vn 0.746488452 -0.658214867 -0.0975096971
vn 0.651747942 -0.758392632 0.00807668176
vn 0.741641045 -0.670723081 0.00995367859
vn 0.449417114 -0.794369042 0.408658803
vn 0.730488598 -0.66267252 0.165080726
vn 0.0194709171 -0.743531585 0.668417275
vn -0.0511266589 -0.534314871 0.843737841
vn -0.0461967885 -0.713275313 0.699359775
vn -0.368429542 -0.576337159 0.729448497
vn -0.391762346 -0.224696517 0.892207205
vn -0.776996911 -0.285248935 0.561167419
vn -0.421174943 -0.778650343 0.46509707
vn -0.705567956 -0.582355082 0.403777808
vn -0.940895557 -0.287870318 0.178455174
vn -0.708768964 -0.68945682 0.149318144
vn -0.601207614 -0.799054682 0.00780963199
vn -0.805776477 -0.577946186 0.129237875
vn -0.775279343 -0.63160938 -0.00338413473
vn -0.807899177 -0.58931458 -0.00267109857
vn -0.933943748 -0.281664133 -0.220032394
vn -0.703718901 -0.710472524 0.00290783984
vn -0.787741721 -0.592133939 -0.169824645
vn -0.722030401 -0.676455855 -0.145187795
vn -0.689167857 -0.579240322 -0.4353486
vn 0.0401344039 0.402935475 -0.914348006
vn -0.00797023904 0.151351884 -0.988447845
vn 0.0550632253 0.169785917 -0.983941495
vn 0.40218237 0.210692778 -0.890987039
vn -0.0258134007 0.397373736 -0.917293727
vn -0.327941 0.186122999 -0.926181972
vn 0.479924649 0.553439975 -0.680717766
vn 0.784514368 0.286727875 -0.549840212
vn -0.363029987 0.488621444 -0.793384075
vn -0.757962942 0.235645264 -0.608246207
vn -0.743686199 0.564288437 -0.358482063
vn -0.919352293 0.32896018 -0.215816095
vn -0.93286556 0.360057294 -0.0109820226
vn -0.350372255 0.806683719 -0.475920856
vn -0.0250695255 0.81996721 -0.571861386
vn 0.813149273 0.5661183 -0.13527149
vn 0.919801593 0.33033815 -0.211758643
vn 0.946075022 0.323354393 0.019597752
vn -0.830106676 0.55748266 -0.0116583435
vn -0.731244743 0.669799745 -0.12903215
vn -0.798167229 0.577506721 0.171508357
vn -0.927210748 0.328437179 0.180025905
vn -0.773347795 0.232002199 0.590006828
vn -0.718967319 0.695035458 -0.00343419332
vn -0.291727304 0.956498444 -0.00244485657
vn -0.0187951326 0.999789417 -0.00824535359
vn -0.476718485 0.5432055 0.691134751
vn -0.351630658 0.169027984 0.920752645
vn -0.0925322697 0.143478557 0.985318065
vn -0.729820132 0.67716682 0.0938491896
vn -0.363567889 0.827252924 0.42833513
vn -0.0521541946 0.47248286 0.879795313
vn 0.0631515458 0.148884013 0.986836076
vn -0.0345527492 0.861172855 0.507136524
vn 0.0352991261 0.863392711 0.503296077
vn 0.0399833471 0.821457267 -0.56886673
vn 0.0200981088 0.496545255 0.867778003
vn 0.40908286 0.577052832 0.706867158
vn 0.359732956 0.183859557 0.914761066
vn 0.728704154 0.232202321 0.644261181
vn 0.0239559803 0.999688148 -0.00705025299
vn 0.343933225 0.820576072 -0.456470072
vn 0.32799083 0.860598147 0.389606208
vn 0.784100354 0.582701683 0.213648006
vn 0.92111975 0.284128994 0.26609984
vn 0.299302965 0.954151392 0.00358043914
vn 0.715489566 0.684252739 0.140971214
vn 0.824536681 0.565580308 0.0160682481
vn 0.721397817 0.692378104 0.0140631208
vn 0.730850756 0.678305566 -0.0758859515
g O_env_madai_001_xl_0
f 3/3/3 2/2/2 1/1/1
f 3/3/3 1/1/1 4/4/4
f 3/3/3 4/4/4 5/5/5
f 4/4/4 6/6/6 5/5/5
f 3/3/3 5/5/5 7/7/7
f 8/8/8 3/3/3 7/7/7
f 7/7/7 9/9/9 8/8/8
f 9/9/9 10/10/10 8/8/8
f 9/9/9 11/11/11 10/10/10
f 11/11/11 12/12/12 10/10/10
f 11/11/11 13/13/13 12/12/12
f 13/13/13 14/14/14 12/12/12
f 13/13/13 15/15/15 14/14/14
f 15/15/15 16/16/16 14/14/14
f 16/16/16 15/15/15 17/17/17
f 18/18/18 16/16/16 17/17/17
f 6/6/6 4/4/4 19/19/19
f 20/20/20 6/6/6 19/19/19
f 21/21/21 20/20/20 19/19/19
f 22/22/22 21/21/21 19/19/19
f 18/18/18 17/17/17 23/23/23
f 24/24/24 18/18/18 23/23/23
f 21/21/21 22/22/22 25/25/25
f 22/22/22 26/26/26 25/25/25
f 25/25/25 26/26/26 27/27/27
f 28/28/28 25/25/25 27/27/27
f 28/28/28 27/27/27 29/29/29
f 30/30/30 28/28/28 29/29/29
f 24/24/24 23/23/23 31/31/31
f 30/30/30 29/29/29 32/32/32
f 33/33/33 30/30/30 32/32/32
f 23/23/23 34/34/34 31/31/31
f 33/33/33 32/32/32 35/35/35
f 32/32/32 36/36/36 35/35/35
f 36/36/36 37/37/37 35/35/35
f 31/31/31 34/34/34 38/38/38
f 37/37/37 38/38/38 35/35/35
f 37/37/37 31/31/31 38/38/38
f 37/37/37 39/39/39 31/31/31
f 37/37/37 40/40/40 39/39/39
f 43/43/43 42/42/42 41/41/41
f 44/44/44 43/43/43 41/41/41
f 42/42/42 45/45/45 41/41/41
f 42/42/42 46/46/46 45/45/45
f 44/44/44 41/41/41 47/47/47
f 48/48/48 44/44/44 47/47/47
f 46/46/46 49/49/49 45/45/45
f 46/46/46 50/50/50 49/49/49
f 48/48/48 47/47/47 51/51/51
f 52/52/52 48/48/48 51/51/51
f 53/53/53 52/52/52 51/51/51
f 53/53/53 51/51/51 54/54/54
f 55/55/55 53/53/53 54/54/54
f 55/55/55 54/54/54 56/56/56
f 57/57/57 55/55/55 56/56/56
f 57/57/57 56/56/56 58/58/58
f 56/56/56 59/59/59 58/58/58
f 58/58/58 59/59/59 60/60/60
f 59/59/59 61/61/61 60/60/60
f 60/60/60 61/61/61 62/62/62
f 56/56/56 54/54/54 63/63/63
f 56/56/56 63/63/63 64/64/64
f 59/59/59 56/56/56 64/64/64
f 54/54/54 65/65/65 63/63/63
f 54/54/54 51/51/51 65/65/65
f 59/59/59 64/64/64 66/66/66
f 61/61/61 59/59/59 66/66/66
f 51/51/51 67/67/67 65/65/65
f 68/68/68 65/65/65 67/67/67
f 67/67/67 51/51/51 47/47/47
f 69/69/69 68/68/68 67/67/67
f 69/69/69 67/67/67 47/47/47
f 47/47/47 41/41/41 69/69/69
f 70/70/70 68/68/68 69/69/69
f 41/41/41 71/71/71 69/69/69
f 71/71/71 70/70/70 69/69/69
f 41/41/41 45/45/45 71/71/71
f 45/45/45 70/70/70 71/71/71
f 45/45/45 49/49/49 70/70/70
f 49/49/49 72/72/72 70/70/70
f 49/49/49 73/73/73 72/72/72
f 73/73/73 74/74/74 72/72/72
f 50/50/50 73/73/73 49/49/49
f 73/73/73 75/75/75 74/74/74
f 50/50/50 75/75/75 73/73/73
f 76/76/76 75/75/75 50/50/50
f 76/76/76 77/77/77 75/75/75
f 75/75/75 78/78/78 74/74/74
f 77/77/77 79/79/79 75/75/75
f 75/75/75 79/79/79 78/78/78
f 77/77/77 80/80/80 79/79/79
f 79/79/79 81/81/81 78/78/78
f 78/78/78 81/81/81 82/82/82
f 80/80/80 83/83/83 79/79/79
f 79/79/79 83/83/83 81/81/81
f 80/80/80 84/84/84 83/83/83
f 84/84/84 85/85/85 83/83/83
f 83/83/83 85/85/85 81/81/81
f 84/84/84 86/86/86 85/85/85
f 81/81/81 87/87/87 82/82/82
f 85/85/85 87/87/87 81/81/81
f 82/82/82 87/87/87 66/66/66
f 86/86/86 88/88/88 85/85/85
f 85/85/85 88/88/88 87/87/87
f 86/86/86 62/62/62 88/88/88
f 87/87/87 89/89/89 66/66/66
f 88/88/88 89/89/89 87/87/87
f 61/61/61 66/66/66 89/89/89
f 62/62/62 90/90/90 88/88/88
f 88/88/88 90/90/90 89/89/89
f 90/90/90 61/61/61 89/89/89
f 61/61/61 90/90/90 62/62/62
f 93/93/93 92/92/92 91/91/91
f 93/93/93 91/91/91 94/94/94
f 92/92/92 95/95/95 91/91/91
f 92/92/92 96/96/96 95/95/95
f 91/91/91 97/97/97 94/94/94
f 98/98/98 94/94/94 97/97/97
f 96/96/96 99/99/99 95/95/95
f 96/96/96 100/100/100 99/99/99
f 100/100/100 101/101/101 99/99/99
f 100/100/100 102/102/102 101/101/101
f 102/102/102 103/103/103 101/101/101
f 95/95/95 99/99/99 104/104/104
f 104/104/104 99/99/99 101/101/101
f 91/91/91 95/95/95 105/105/105
f 105/105/105 95/95/95 104/104/104
f 106/106/106 98/98/98 97/97/97
f 107/107/107 98/98/98 106/106/106
f 107/107/107 106/106/106 108/108/108
f 103/103/103 109/109/109 101/101/101
f 110/110/110 104/104/104 101/101/101
f 101/101/101 109/109/109 110/110/110
f 111/111/111 109/109/109 103/103/103
f 112/112/112 111/111/111 103/103/103
f 112/112/112 113/113/113 111/111/111
f 109/109/109 114/114/114 110/110/110
f 109/109/109 111/111/111 114/114/114
f 104/104/104 110/110/110 115/115/115
f 110/110/110 114/114/114 115/115/115
f 116/116/116 105/105/105 104/104/104
f 115/115/115 116/116/116 104/104/104
f 111/111/111 113/113/113 117/117/117
f 113/113/113 118/118/118 117/117/117
f 119/119/119 117/117/117 118/118/118
f 111/111/111 120/120/120 114/114/114
f 120/120/120 111/111/111 117/117/117
f 114/114/114 120/120/120 121/121/121
f 115/115/115 114/114/114 121/121/121
f 121/121/121 120/120/120 117/117/117
f 122/122/122 117/117/117 119/119/119
f 117/117/117 122/122/122 121/121/121
f 119/119/119 123/123/123 122/122/122
f 121/121/121 124/124/124 115/115/115
f 124/124/124 116/116/116 115/115/115
f 121/121/121 122/122/122 124/124/124
f 124/124/124 122/122/122 125/125/125
f 116/116/116 124/124/124 125/125/125
f 126/126/126 105/105/105 116/116/116
f 126/126/126 91/91/91 105/105/105
f 123/123/123 127/127/127 122/122/122
f 122/122/122 127/127/127 125/125/125
f 123/123/123 128/128/128 127/127/127
f 127/127/127 128/128/128 125/125/125
f 129/129/129 128/128/128 123/123/123
f 129/129/129 130/130/130 128/128/128
f 131/131/131 116/116/116 125/125/125
f 131/131/131 126/126/126 116/116/116
f 132/132/132 91/91/91 126/126/126
f 126/126/126 131/131/131 132/132/132
f 97/97/97 91/91/91 132/132/132
f 131/131/131 125/125/125 133/133/133
f 128/128/128 133/133/133 125/125/125
f 128/128/128 130/130/130 134/134/134
f 130/130/130 135/135/135 134/134/134
f 135/135/135 108/108/108 134/134/134
f 136/136/136 131/131/131 133/133/133
f 131/131/131 136/136/136 132/132/132
f 133/133/133 128/128/128 137/137/137
f 137/137/137 128/128/128 134/134/134
f 136/136/136 133/133/133 137/137/137
f 108/108/108 138/138/138 134/134/134
f 134/134/134 138/138/138 137/137/137
f 106/106/106 138/138/138 108/108/108
f 139/139/139 136/136/136 137/137/137
f 138/138/138 139/139/139 137/137/137
f 132/132/132 136/136/136 139/139/139
f 138/138/138 106/106/106 139/139/139
f 132/132/132 140/140/140 97/97/97
f 140/140/140 132/132/132 139/139/139
f 106/106/106 140/140/140 139/139/139
f 97/97/97 140/140/140 106/106/106
