g O_Object_platform_02
v -2.35667658 1.35550714 0.0439326614
v -2.35409713 5.60075897E-08 -0.0709720999
v -2.35405064 1.35550702 -0.0709718615
v -2.35664868 8.57685052E-08 0.0439329594
v -1.62936985 1.79470888E-07 1.2855767
v -1.62939274 1.35550702 1.28549755
v -1.51284325 2.00973943E-07 1.33124483
v -1.51265955 1.35550714 1.33124518
v 1.56305921 1.3555069 1.32949555
v 1.56313682 4.17168593E-08 1.32951736
v 1.66104782 1.35550678 1.25127399
v 1.66095543 -6.4725576E-09 1.25143301
v 2.33541012 1.35550666 0.0674073249
v 2.33546972 -1.65724771E-07 0.0674075633
v 2.33855486 1.35550666 -0.0627052039
v 2.33864641 -2.04372242E-07 -0.0627045482
v 1.65438378 1.35550666 -1.27986062
v 1.65436101 -3.22102437E-07 -1.27993929
v 1.5376507 1.35550666 -1.3256079
v 1.53783405 -2.8402269E-07 -1.32560718
v -1.5695231 1.3555069 -1.32396519
v -1.56948221 -1.02278435E-07 -1.32398593
v -1.66796064 -1.34553929E-07 -1.24590385
v -1.66805243 1.35550678 -1.24574506
v -2.35409713 5.60075897E-08 -0.0709720999
v -2.35405064 1.35550702 -0.0709718615
v -1.5695231 1.3555069 -1.32396519
v -1.64212596 1.42561483 -1.1983813
v -1.66805243 1.35550678 -1.24574506
v -2.35405064 1.35550702 -0.0709718615
v -1.54258525 1.42561471 -1.27750182
v 1.5376507 1.35550666 -1.3256079
v 1.50959623 1.4256146 -1.27947056
v 1.65438378 1.35550666 -1.27986062
v 1.62767911 1.4256146 -1.23319662
v 1.63511968 1.42561471 1.20391011
v 2.33855486 1.35550666 -0.0627052039
v 2.28456497 1.4256146 -0.0628877059
v 2.33541012 1.35550666 0.0674073249
v 2.28164554 1.4256146 0.0672252402
v 1.66104782 1.35550678 1.25127399
v 1.56305921 1.3555069 1.32949555
v 1.53600574 1.42561471 1.28303182
v -1.51265955 1.35550714 1.33124518
v -1.60268986 1.42561495 1.23883319
v -1.48460686 1.42561495 1.28510737
v -1.62939274 1.35550702 1.28549755
v -2.35667658 1.35550714 0.0439326614
v -2.30281115 1.42561495 0.0441147462
v -2.30029964 1.42561507 -0.0707903132
vt 0.0430011302 0.632474244
vt 0.0338778496 0.508421481
vt 0.0338782966 0.632474244
vt 0.043000564 0.508421421
vt 0.156719327 0.508419871
vt 0.156715155 0.632472634
vt 0.164309353 0.508419991
vt 0.16432333 0.632472813
vt 0.405772537 0.632472932
vt 0.405777484 0.50842005
vt 0.414064348 0.632473171
vt 0.414049566 0.508420348
vt 0.517244339 0.632471979
vt 0.517244041 0.508419096
vt 0.522205651 0.632471979
vt 0.522203326 0.508419096
vt 0.627352595 0.632472336
vt 0.627358019 0.508419573
vt 0.632772982 0.632472515
vt 0.632759094 0.508419752
vt 0.875250995 0.632472634
vt 0.875247538 0.508419812
vt 0.883267701 0.508419991
vt 0.883281171 0.632472813
vt 0.990251601 0.508420706
vt 0.990248978 0.632473528
vt 0.514322042 0.498767853
vt 0.50849247 0.484247506
vt 0.503557205 0.491463453
vt 0.439190388 0.38114506
vt 0.517628193 0.490790635
vt 0.79927206 0.497733325
vt 0.795938492 0.489601344
vt 0.811288238 0.492624015
vt 0.806394815 0.485619098
vt 0.805098653 0.261040777
vt 0.872232556 0.37774381
vt 0.86446476 0.376851499
vt 0.872953296 0.364389896
vt 0.864547253 0.365191668
vt 0.809906363 0.254343927
vt 0.799806356 0.24638693
vt 0.796330571 0.254193217
vt 0.517763495 0.247064367
vt 0.510761261 0.259232998
vt 0.521098852 0.25520575
vt 0.505892873 0.252127647
vt 0.439813733 0.368352413
vt 0.44823122 0.369835675
vt 0.44789052 0.380469054
vn -0.925636351 0.300303906 0.230249867
vn -0.962280512 1.13086162E-05 -0.272059411
vn -0.920430124 0.300038785 -0.250569552
vn -0.967995584 0 0.250967234
vn -0.649708033 2.51623187E-05 0.760183752
vn -0.613868654 0.299471319 0.730398715
vn -0.185408249 2.88391038E-05 0.982661545
vn -0.186310604 0.299295217 0.935794175
vn 0.323201388 0.299137205 0.89780724
vn 0.330783725 3.00271786E-05 0.943706632
vn 0.718734264 0.299476326 0.627482951
vn 0.760004461 3.42403873E-05 0.649917841
vn 0.921459198 0.300117314 0.246662751
vn 0.963491619 3.81748214E-05 0.267738581
vn 0.927627623 0.300377995 -0.221990943
vn 0.970401227 4.76305904E-05 -0.241498411
vn 0.619704843 0.299937129 -0.725261033
vn 0.65643537 4.49503932E-05 -0.754382193
vn 0.186327279 0.299295008 -0.935790956
vn 0.185426444 2.8367338E-05 -0.982658207
vn -0.321911693 0.299064696 -0.898294568
vn -0.329337209 1.52865086E-05 -0.944212317
vn -0.755526483 1.85900117E-05 -0.655118167
vn -0.714762151 0.299408525 -0.63203609
vn -0.962280512 1.13086162E-05 -0.272059411
vn -0.920430124 0.300038785 -0.250569552
vn -0.321911693 0.299064696 -0.898294568
vn -0.385329217 0.867170334 -0.315494806
vn -0.714762151 0.299408525 -0.63203609
vn -0.920430124 0.300038785 -0.250569552
vn -0.156158298 0.855343521 -0.493965626
vn 0.186327279 0.299295008 -0.935790956
vn 0.0784584656 0.86688441 -0.492296427
vn 0.619704843 0.299937129 -0.725261033
vn 0.352124482 0.855294347 -0.380105019
vn 0.388345689 0.866736174 0.312979251
vn 0.927627623 0.300377995 -0.221990943
vn 0.489010781 0.861364722 -0.137547314
vn 0.921459198 0.300117314 0.246662751
vn 0.483284146 0.862620473 0.149406999
vn 0.718734264 0.299476326 0.627482951
vn 0.323201388 0.299137205 0.89780724
vn 0.156671077 0.85529995 0.493878812
vn -0.186310604 0.299295217 0.935794175
vn -0.347390682 0.855822802 0.383258402
vn -0.0784485415 0.866882265 0.492301822
vn -0.613868654 0.299471319 0.730398715
vn -0.925636351 0.300303906 0.230249867
vn -0.48886016 0.860478103 0.143503666
vn -0.483289927 0.862052262 -0.152632803
g O_Object_platform_02_0
f 3/3/3 2/2/2 1/1/1
f 2/2/2 4/4/4 1/1/1
f 1/1/1 4/4/4 5/5/5
f 6/6/6 1/1/1 5/5/5
f 5/5/5 7/7/7 6/6/6
f 7/7/7 8/8/8 6/6/6
f 9/9/9 8/8/8 7/7/7
f 10/10/10 9/9/9 7/7/7
f 11/11/11 9/9/9 10/10/10
f 12/12/12 11/11/11 10/10/10
f 13/13/13 11/11/11 12/12/12
f 14/14/14 13/13/13 12/12/12
f 15/15/15 13/13/13 14/14/14
f 16/16/16 15/15/15 14/14/14
f 17/17/17 15/15/15 16/16/16
f 18/18/18 17/17/17 16/16/16
f 19/19/19 17/17/17 18/18/18
f 20/20/20 19/19/19 18/18/18
f 21/21/21 19/19/19 20/20/20
f 22/22/22 21/21/21 20/20/20
f 21/21/21 22/22/22 23/23/23
f 24/24/24 21/21/21 23/23/23
f 24/24/24 23/23/23 25/25/25
f 26/26/26 24/24/24 25/25/25
f 29/29/29 28/28/28 27/27/27
f 28/28/28 29/29/29 30/30/30
f 28/28/28 31/31/31 27/27/27
f 27/27/27 31/31/31 32/32/32
f 31/31/31 33/33/33 32/32/32
f 33/33/33 31/31/31 28/28/28
f 32/32/32 33/33/33 34/34/34
f 33/33/33 35/35/35 34/34/34
f 35/35/35 33/33/33 28/28/28
f 35/35/35 28/28/28 36/36/36
f 34/34/34 35/35/35 37/37/37
f 35/35/35 38/38/38 37/37/37
f 38/38/38 35/35/35 36/36/36
f 37/37/37 38/38/38 39/39/39
f 38/38/38 40/40/40 39/39/39
f 40/40/40 38/38/38 36/36/36
f 39/39/39 40/40/40 41/41/41
f 40/40/40 36/36/36 41/41/41
f 41/41/41 36/36/36 42/42/42
f 36/36/36 43/43/43 42/42/42
f 42/42/42 43/43/43 44/44/44
f 43/43/43 36/36/36 45/45/45
f 36/36/36 28/28/28 45/45/45
f 43/43/43 46/46/46 44/44/44
f 46/46/46 43/43/43 45/45/45
f 44/44/44 46/46/46 47/47/47
f 46/46/46 45/45/45 47/47/47
f 47/47/47 45/45/45 48/48/48
f 45/45/45 49/49/49 48/48/48
f 45/45/45 28/28/28 49/49/49
f 30/30/30 48/48/48 49/49/49
f 50/50/50 28/28/28 30/30/30
f 50/50/50 30/30/30 49/49/49
f 28/28/28 50/50/50 49/49/49
