g pPlane1
v -2.68111563 3.42171575E-07 -2.87034321
v 1.03724074 3.51514473E-07 -2.94871688
v 2.19129395 1.31951509E-07 -1.10688937
v -3.9575026 1.74596707E-07 -1.46462321
v -3.96627855 2.49794319E-08 -0.209542647
v 2.22704363 -1.36345918E-07 1.14375246
v -1.92905331 -1.3519886E-07 1.13413012
vt 0.792492151 0.980849266
vt 0.192110538 1
vt 0.00577223301 0.549947143
vt 0.998583078 0.637359858
vt 1 0.330679357
vt -2.98023224E-08 0
vt 0.671061039 0.00235128403
vn -0 1 0
vn -0 1 0
vn -0 1 0
vn -0 1 0
vn -0 1 0
vn -0 1 0
vn -0 1 0
g pPlane1_0
f 3/3/3 2/2/2 1/1/1
f 1/1/1 4/4/4 3/3/3
f 4/4/4 5/5/5 3/3/3
f 5/5/5 6/6/6 3/3/3
f 5/5/5 7/7/7 6/6/6
