g O_env_daodankeng_shadow
v 3.48546743 0 -4.28184175
v 1.80287611 0 1.14164996
v 1.81476223 0 -4.91718149
v -2.22190833 0 -1.11093521
v -2.26420164 0 1.29209328
v 0.834262609 0 2.54528975
v -1.69362283 0 2.41908693
vt 1 0.914862156
vt 0.707358599 0.188093245
vt 0.709425926 1.00000012
vt 0.00735574961 0.489948392
vt -2.98023224E-08 0.167933226
vt 0.538894415 5.96046448E-08
vt 0.0992367268 0.0169117451
vn -0 1 0
vn -0 1 0
vn -0 1 0
vn -0 1 0
vn -0 1 0
vn -0 1 0
vn -0 1 0
g O_env_daodankeng_shadow_0
f 3/3/3 2/2/2 1/1/1
f 4/4/4 2/2/2 3/3/3
f 5/5/5 2/2/2 4/4/4
f 5/5/5 6/6/6 2/2/2
f 7/7/7 6/6/6 5/5/5
