g O_env_daodankeng_03_shadow
v 1.5132823 0 -2.10791111
v 2.57981777 0 -0.671050072
v -0.543908 0 -1.68514061
v 2.59801745 0 0.816754222
v 0.652233362 0 2.29222965
v -1.21428883 0 1.97731209
v -1.5523237 0 -0.880988359
v -2.24192405 0 0.795741379
v -2.24443841 0 1.34138787
vt 0.775994897 1
vt 0.996241689 0.673451066
vt 0.351171136 0.903918862
vt 1 0.335324526
vt 0.59818244 -5.96046448E-08
vt 0.212732911 0.07156986
vt 0.142926455 0.721162796
vt 0.000519275665 0.34010005
vt 0 0.216093421
vn -0 1 0
vn -0 1 0
vn -0 1 0
vn -0 1 0
vn -0 1 0
vn -0 1 0
vn -0 1 0
vn -0 1 0
vn -0 1 0
g O_env_daodankeng_03_shadow_0
f 3/3/3 2/2/2 1/1/1
f 3/3/3 4/4/4 2/2/2
f 3/3/3 5/5/5 4/4/4
f 3/3/3 6/6/6 5/5/5
f 7/7/7 6/6/6 3/3/3
f 8/8/8 6/6/6 7/7/7
f 9/9/9 6/6/6 8/8/8
