g Object001
v 0.357705384 0.00119725219 0.429826796
v 0.439271808 0.00516432757 0.429830283
v 0.420528889 0.0491330028 0.429830283
v -0.214810863 -0.134856418 0.0865839347
v -0.152069137 -0.155762836 -0.00972255692
v -0.167754993 -0.150577307 -0.00972255692
v -0.179736242 -0.146575183 0.507988513
v -0.21507141 -0.134763181 0.473320633
v -0.261083096 -0.113829456 0.190341309
v -0.260900974 -0.113912597 0.428085238
v -0.152069122 -0.155762866 0.507988513
v -0.0905338824 -0.167310372 0.507988513
v -0.0905339047 -0.167310372 -0.00972255692
v -0.031629581 -0.17060791 -0.00972255692
v -0.0316295698 -0.170607924 0.507988513
v -0 -0.170616254 -0.00972255692
v -0 -0.170616299 0.507988513
v 0.0316295698 -0.170607924 0.507988513
v 0.031629581 -0.17060791 -0.00972255692
v 0.0905338824 -0.167310372 0.507988513
v 0.0905339047 -0.167310372 -0.00972255692
v 0.152069137 -0.155762836 -0.00972255692
v 0.152069122 -0.155762866 0.507988513
v 0.179736242 -0.146575183 0.507988513
v 0.214810863 -0.134856418 0.0865839347
v 0.167754993 -0.150577307 -0.00972255692
v 0.21507141 -0.134763181 0.473320633
v 0.261083096 -0.113829456 0.190341309
v 0.260900974 -0.113912597 0.428085238
v -0.325311691 -0.0772908777 0.429823279
v -0.375718534 -0.0433113836 0.429826796
v -0.376014918 -0.0430947281 0.507900774
v -0.439271808 0.00516432757 0.429830283
v -0.439325809 0.00520577421 0.507927179
v -0.40075472 -0.0248357188 0.540839434
v -0.439445406 0.00529816607 0.541079938
v -0.375718564 -0.0433113649 0.41648978
v -0.439271808 0.00516434666 -0.00972255692
v -0.439271808 0.00516432757 0.416493833
v -0.375718564 -0.0433113463 -0.00972255692
v -0.324772984 -0.0776425079 0.416485816
v -0.324772954 -0.0776425004 -0.00972255692
v -0.288514882 -0.0991039276 0.184580907
v -0.317333221 -0.0820548981 0.416485161
v -0.288575768 -0.0990679115 0.394142747
v -0.272201061 -0.108719572 -0.00972255692
v -0.272917122 -0.108328477 0.150352433
v -0.216351181 -0.134249821 0.0306198113
v -0.215590492 -0.134566203 -0.00972255692
v -0.195826888 -0.141200304 -0.00972255692
v 0.325311691 -0.0772908777 0.429823279
v 0.376014918 -0.0430947281 0.507900774
v 0.375718534 -0.0433113836 0.429826796
v 0.439271808 0.00516432757 0.429830283
v 0.439325809 0.00520577421 0.507927179
v 0.40075472 -0.0248357188 0.540839434
v 0.439445406 0.00529816607 0.541079938
v 0.439271808 0.00516434666 -0.00972255692
v 0.375718564 -0.0433113649 0.41648978
v 0.439271808 0.00516432757 0.416493833
v 0.375718564 -0.0433113463 -0.00972255692
v 0.324772984 -0.0776425079 0.416485816
v 0.324772954 -0.0776425004 -0.00972255692
v 0.288514882 -0.0991039276 0.184580907
v 0.317333221 -0.0820548907 0.416485161
v 0.288575768 -0.0990679115 0.394142747
v 0.272201061 -0.108719572 -0.00972255692
v 0.272917122 -0.108328484 0.150352433
v 0.216351181 -0.134249821 0.0306198113
v 0.215590492 -0.134566203 -0.00972255692
v 0.195826888 -0.141200304 -0.00972255692
v -0.204583198 -0.0862959772 0.0865839347
v -0.157965034 -0.101867028 -0.00972255692
v -0.144307613 -0.106451325 -0.00972255692
v -0.169946283 -0.0978648812 0.507988513
v -0.204476103 -0.0863343254 0.473320633
v -0.248249456 -0.0663184449 0.190341309
v -0.248067379 -0.0664015859 0.428085238
v -0.144307598 -0.106451355 0.507988513
v -0.086824052 -0.117231727 0.507988513
v -0.0868240744 -0.117231697 -0.00972255692
v -0.0307756253 -0.120317541 -0.00972255692
v -0.0307756159 -0.120317571 0.507988513
v -0 -0.120314106 -0.00972255692
v -0 -0.120314129 0.507988513
v 0.0307756159 -0.120317571 0.507988513
v 0.0307756253 -0.120317541 -0.00972255692
v 0.086824052 -0.117231727 0.507988513
v 0.0868240744 -0.117231697 -0.00972255692
v 0.144307613 -0.106451325 -0.00972255692
v 0.144307598 -0.106451355 0.507988513
v 0.169946283 -0.0978648812 0.507988513
v 0.204583198 -0.0862959772 0.0865839347
v 0.157965034 -0.101867028 -0.00972255692
v 0.204476103 -0.0863343254 0.473320633
v 0.248249456 -0.0663184449 0.190341309
v 0.248067379 -0.0664015859 0.428085238
v -0.357705384 0.00119725219 0.429826796
v -0.308043718 -0.0322639756 0.429823279
v -0.357583582 0.00110821717 0.508024573
v -0.420528889 0.0491330028 0.429830283
v -0.420506686 0.0491159707 0.508013725
v -0.381949753 0.019083146 0.541178823
v -0.420457572 0.0490780063 0.541079938
v -0.420528889 0.0491330214 -0.00972255692
v -0.357705325 0.00119724276 0.41648978
v -0.420528889 0.0491330028 0.416493833
v -0.357705384 0.00119728083 -0.00972255692
v -0.30826512 -0.0321194679 0.416485816
v -0.30826512 -0.0321194343 -0.00972255692
v -0.272781432 -0.0531072468 0.184580907
v -0.301599771 -0.0360582098 0.416485131
v -0.272842318 -0.0530712306 0.394142747
v -0.257897496 -0.0619273186 -0.00972255692
v -0.257603168 -0.0620880537 0.150352433
v -0.203950211 -0.0865452588 0.0306198113
v -0.204262823 -0.0864152312 -0.00972255692
v -0.186036929 -0.0924900249 -0.00972255692
v 0.357583582 0.00110821717 0.508024573
v 0.308043718 -0.0322639756 0.429823279
v 0.357705384 0.00119725219 0.429826796
v 0.420528889 0.0491330028 0.429830283
v 0.420506686 0.0491159707 0.508013725
v 0.381949753 0.019083146 0.541178823
v 0.420457572 0.0490780063 0.541079938
v 0.357705325 0.00119724276 0.41648978
v 0.420528889 0.0491330214 -0.00972255692
v 0.420528889 0.0491330028 0.416493833
v 0.357705384 0.00119728083 -0.00972255692
v 0.30826512 -0.0321194679 0.416485816
v 0.30826512 -0.0321194343 -0.00972255692
v 0.272781432 -0.0531072468 0.184580907
v 0.301599771 -0.0360582098 0.416485131
v 0.272842318 -0.0530712306 0.394142747
v 0.257897496 -0.0619273223 -0.00972255692
v 0.257603168 -0.0620880537 0.150352433
v 0.203950211 -0.0865452588 0.0306198113
v 0.204262823 -0.0864152312 -0.00972255692
v 0.186036929 -0.0924900249 -0.00972255692
v -0.152069137 -0.155762836 -0.00972255692
v -0.157965034 -0.101867028 -0.00972255692
v -0.167754993 -0.150577307 -0.00972255692
v -0.144307613 -0.106451325 -0.00972255692
v -0.0905339047 -0.167310372 -0.00972255692
v -0.0868240744 -0.117231697 -0.00972255692
v -0.031629581 -0.17060791 -0.00972255692
v -0.0307756253 -0.120317541 -0.00972255692
v -0 -0.170616254 -0.00972255692
v -0 -0.120314106 -0.00972255692
v 0.031629581 -0.17060791 -0.00972255692
v 0.0307756253 -0.120317541 -0.00972255692
v 0.0905339047 -0.167310372 -0.00972255692
v 0.0868240744 -0.117231697 -0.00972255692
v 0.152069137 -0.155762836 -0.00972255692
v 0.144307613 -0.106451325 -0.00972255692
v 0.167754993 -0.150577307 -0.00972255692
v 0.157965034 -0.101867028 -0.00972255692
v -0.204583198 -0.0862959772 0.0865839347
v -0.167754993 -0.150577307 -0.00972255692
v -0.157965034 -0.101867028 -0.00972255692
v -0.214810863 -0.134856418 0.0865839347
v -0.248249456 -0.0663184449 0.190341309
v -0.261083096 -0.113829456 0.190341309
v -0.248067379 -0.0664015859 0.428085238
v -0.260900974 -0.113912597 0.428085238
v -0.204476103 -0.0863343254 0.473320633
v -0.260900974 -0.113912597 0.428085238
v -0.248067379 -0.0664015859 0.428085238
v -0.21507141 -0.134763181 0.473320633
v -0.169946283 -0.0978648812 0.507988513
v -0.179736242 -0.146575183 0.507988513
v -0.144307598 -0.106451355 0.507988513
v -0.152069122 -0.155762866 0.507988513
v -0.086824052 -0.117231727 0.507988513
v -0.0905338824 -0.167310372 0.507988513
v -0.0307756159 -0.120317571 0.507988513
v -0.0316295698 -0.170607924 0.507988513
v -0 -0.120314129 0.507988513
v -0 -0.170616299 0.507988513
v 0.0307756159 -0.120317571 0.507988513
v 0.0316295698 -0.170607924 0.507988513
v 0.086824052 -0.117231727 0.507988513
v 0.0905338824 -0.167310372 0.507988513
v 0.144307598 -0.106451355 0.507988513
v 0.152069122 -0.155762866 0.507988513
v 0.169946283 -0.0978648812 0.507988513
v 0.179736242 -0.146575183 0.507988513
v 0.204476103 -0.0863343254 0.473320633
v 0.21507141 -0.134763181 0.473320633
v 0.248067379 -0.0664015859 0.428085238
v 0.260900974 -0.113912597 0.428085238
v -0.376014918 -0.0430947281 0.507900774
v -0.308043718 -0.0322639756 0.429823279
v -0.325311691 -0.0772908777 0.429823279
v -0.357583582 0.00110821717 0.508024573
v -0.40075472 -0.0248357188 0.540839434
v -0.381949753 0.019083146 0.541178823
v -0.357705384 0.00119725219 0.429826796
v -0.325311691 -0.0772908777 0.429823279
v -0.308043718 -0.0322639756 0.429823279
v -0.375718534 -0.0433113836 0.429826796
v -0.420528889 0.0491330028 0.429830283
v -0.439271808 0.00516432757 0.429830283
v -0.420506686 0.0491159707 0.508013725
v -0.439271808 0.00516432757 0.429830283
v -0.420528889 0.0491330028 0.429830283
v -0.439325809 0.00520577421 0.507927179
v -0.420457572 0.0490780063 0.541079938
v -0.439445406 0.00529816607 0.541079938
v -0.381949753 0.019083146 0.541178823
v -0.439445406 0.00529816607 0.541079938
v -0.420457572 0.0490780063 0.541079938
v -0.40075472 -0.0248357188 0.540839434
v -0.375718564 -0.0433113463 -0.00972255692
v -0.420528889 0.0491330214 -0.00972255692
v -0.439271808 0.00516434666 -0.00972255692
v -0.357705384 0.00119728083 -0.00972255692
v -0.324772954 -0.0776425004 -0.00972255692
v -0.30826512 -0.0321194343 -0.00972255692
v -0.272201061 -0.108719572 -0.00972255692
v -0.257897496 -0.0619273186 -0.00972255692
v -0.215590492 -0.134566203 -0.00972255692
v -0.204262823 -0.0864152312 -0.00972255692
v -0.195826888 -0.141200304 -0.00972255692
v -0.186036929 -0.0924900249 -0.00972255692
v -0.357705325 0.00119724276 0.41648978
v -0.439271808 0.00516432757 0.416493833
v -0.420528889 0.0491330028 0.416493833
v -0.375718564 -0.0433113649 0.41648978
v -0.30826512 -0.0321194679 0.416485816
v -0.324772984 -0.0776425079 0.416485816
v -0.301599771 -0.0360582098 0.416485131
v -0.317333221 -0.0820548981 0.416485161
v -0.272842318 -0.0530712306 0.394142747
v -0.288575768 -0.0990679115 0.394142747
v -0.420528889 0.0491330028 0.416493833
v -0.439271808 0.00516434666 -0.00972255692
v -0.420528889 0.0491330214 -0.00972255692
v -0.439271808 0.00516432757 0.416493833
v -0.272781432 -0.0531072468 0.184580907
v -0.288575768 -0.0990679115 0.394142747
v -0.272842318 -0.0530712306 0.394142747
v -0.288514882 -0.0991039276 0.184580907
v -0.257603168 -0.0620880537 0.150352433
v -0.272917122 -0.108328477 0.150352433
v -0.203950211 -0.0865452588 0.0306198113
v -0.216351181 -0.134249821 0.0306198113
v -0.186036929 -0.0924900249 -0.00972255692
v -0.195826888 -0.141200304 -0.00972255692
v 0.214810863 -0.134856418 0.0865839347
v 0.157965034 -0.101867028 -0.00972255692
v 0.167754993 -0.150577307 -0.00972255692
v 0.204583198 -0.0862959772 0.0865839347
v 0.261083096 -0.113829456 0.190341309
v 0.248249456 -0.0663184449 0.190341309
v 0.260900974 -0.113912597 0.428085238
v 0.248067379 -0.0664015859 0.428085238
v 0.375718534 -0.0433113836 0.429826796
v 0.308043718 -0.0322639756 0.429823279
v 0.325311691 -0.0772908777 0.429823279
v 0.357705384 0.00119725219 0.429826796
v 0.439271808 0.00516432757 0.429830283
v 0.357583582 0.00110821717 0.508024573
v 0.325311691 -0.0772908777 0.429823279
v 0.308043718 -0.0322639756 0.429823279
v 0.376014918 -0.0430947281 0.507900774
v 0.381949753 0.019083146 0.541178823
v 0.40075472 -0.0248357188 0.540839434
v 0.439325809 0.00520577421 0.507927179
v 0.420528889 0.0491330028 0.429830283
v 0.439271808 0.00516432757 0.429830283
v 0.420506686 0.0491159707 0.508013725
v 0.439445406 0.00529816607 0.541079938
v 0.420457572 0.0490780063 0.541079938
v 0.420457572 0.0490780063 0.541079938
v 0.40075472 -0.0248357188 0.540839434
v 0.381949753 0.019083146 0.541178823
v 0.439445406 0.00529816607 0.541079938
v 0.420528889 0.0491330214 -0.00972255692
v 0.439271808 0.00516432757 0.416493833
v 0.420528889 0.0491330028 0.416493833
v 0.439271808 0.00516434666 -0.00972255692
v 0.375718564 -0.0433113649 0.41648978
v 0.420528889 0.0491330028 0.416493833
v 0.439271808 0.00516432757 0.416493833
v 0.357705325 0.00119724276 0.41648978
v 0.324772984 -0.0776425079 0.416485816
v 0.30826512 -0.0321194679 0.416485816
v 0.317333221 -0.0820548907 0.416485161
v 0.301599771 -0.0360582098 0.416485131
v 0.357705384 0.00119728083 -0.00972255692
v 0.439271808 0.00516434666 -0.00972255692
v 0.420528889 0.0491330214 -0.00972255692
v 0.375718564 -0.0433113463 -0.00972255692
v 0.30826512 -0.0321194343 -0.00972255692
v 0.324772954 -0.0776425004 -0.00972255692
v 0.257897496 -0.0619273223 -0.00972255692
v 0.272201061 -0.108719572 -0.00972255692
v 0.204262823 -0.0864152312 -0.00972255692
v 0.215590492 -0.134566203 -0.00972255692
v 0.186036929 -0.0924900249 -0.00972255692
v 0.195826888 -0.141200304 -0.00972255692
v 0.301599771 -0.0360582098 0.416485131
v 0.288575768 -0.0990679115 0.394142747
v 0.272842318 -0.0530712306 0.394142747
v 0.317333221 -0.0820548907 0.416485161
v 0.288514882 -0.0991039276 0.184580907
v 0.272842318 -0.0530712306 0.394142747
v 0.288575768 -0.0990679115 0.394142747
v 0.272781432 -0.0531072468 0.184580907
v 0.272917122 -0.108328484 0.150352433
v 0.257603168 -0.0620880537 0.150352433
v 0.216351181 -0.134249821 0.0306198113
v 0.203950211 -0.0865452588 0.0306198113
v 0.195826888 -0.141200304 -0.00972255692
v 0.186036929 -0.0924900249 -0.00972255692
vt 0.879217625 0.777542233
vt 0.965689421 0.777548194
vt 0.963709295 0.777548194
vt 0.280430257 0.206861675
vt 0.350909859 0.0498135164
vt 0.328528583 0.0498135164
vt 0.316281885 0.894051313
vt 0.280163944 0.837517977
vt 0.233132899 0.376060128
vt 0.233319029 0.763752103
vt 0.350909859 0.894051313
vt 0.410180956 0.894051313
vt 0.410180956 0.0498135164
vt 0.467669696 0.0498135164
vt 0.467669725 0.894051313
vt 0.5 0.0498135164
vt 0.5 0.894051313
vt 0.532330275 0.894051313
vt 0.532330334 0.0498135164
vt 0.591632664 0.894051313
vt 0.591632783 0.0498135164
vt 0.655438006 0.0498135164
vt 0.655438006 0.894051313
vt 0.683718145 0.894051313
vt 0.719569802 0.206861675
vt 0.671471417 0.0498135164
vt 0.719835997 0.837517977
vt 0.766867101 0.376060128
vt 0.766680896 0.763752103
vt 0.17287308 0.777536392
vt 0.120729655 0.777542233
vt 0.121597171 0.909589887
vt 0.0343105681 0.777548194
vt 0.0342532843 0.90963459
vt 0.0953695327 0.965299487
vt 0.0341264941 0.965706229
vt 0.101685852 0.754985213
vt 0.0343105681 0.0341264941
vt 0.0343105681 0.754992008
vt 0.101685852 0.0341264941
vt 0.161136359 0.754071712
vt 0.16134569 0.0355216973
vt 0.211573243 0.364149749
vt 0.178231537 0.754977465
vt 0.211195052 0.717189431
vt 0.211428866 0.03412655
vt 0.223226056 0.310444117
vt 0.283193856 0.107938707
vt 0.283826947 0.03412655
vt 0.302715272 0.0333010182
vt 0.826041341 0.778931558
vt 0.879793882 0.91028744
vt 0.878782094 0.778239787
vt 0.965689421 0.777548194
vt 0.96574676 0.90963459
vt 0.905323923 0.96599704
vt 0.96587348 0.965706229
vt 0.965689421 0.0341264941
vt 0.898314118 0.754985213
vt 0.965689421 0.754992008
vt 0.898314118 0.0341264941
vt 0.844304681 0.754978538
vt 0.844304562 0.03412655
vt 0.78912437 0.361359477
vt 0.820856333 0.755514085
vt 0.789832771 0.71611625
vt 0.77252692 0.03412655
vt 0.773286045 0.299282968
vt 0.71610862 0.102358125
vt 0.716697276 0.03412655
vt 0.69783777 0.03412655
vt 0.279095471 0.20958221
vt 0.328876734 0.0498135164
vt 0.352495432 0.0498135164
vt 0.316522747 0.894051313
vt 0.27983278 0.837517977
vt 0.235368729 0.376060128
vt 0.233880654 0.763752103
vt 0.352495432 0.894051313
vt 0.411252439 0.894051313
vt 0.411252409 0.0498135164
vt 0.468542546 0.0498135164
vt 0.468542576 0.894051313
vt 0.5 0.0498135164
vt 0.5 0.894051313
vt 0.531457424 0.894051313
vt 0.531457424 0.0498135164
vt 0.588747501 0.894051313
vt 0.588747561 0.0498135164
vt 0.655666292 0.0498135164
vt 0.655666173 0.894051313
vt 0.685569942 0.89335376
vt 0.718881547 0.202676237
vt 0.670533001 0.0498135164
vt 0.719469666 0.835425258
vt 0.767003059 0.372572273
vt 0.765421808 0.765147269
vt 0.120782368 0.777542233
vt 0.173430637 0.777536392
vt 0.120911486 0.909799337
vt 0.0347807147 0.777548194
vt 0.0348042659 0.909780979
vt 0.0950799361 0.96587348
vt 0.0332052968 0.965706229
vt 0.0342300907 0.0341264941
vt 0.120782398 0.754985213
vt 0.0342300907 0.754992008
vt 0.120782368 0.0341264941
vt 0.161406964 0.754978418
vt 0.161406964 0.0341264941
vt 0.210813582 0.362754613
vt 0.180262148 0.754977345
vt 0.210749045 0.717189312
vt 0.226592645 0.03412655
vt 0.226904646 0.304863513
vt 0.2837843 0.102358125
vt 0.283452868 0.03412655
vt 0.302774876 0.03412655
vt 0.879088521 0.909799337
vt 0.826569438 0.777536392
vt 0.879217625 0.777542233
vt 0.963709295 0.777548194
vt 0.963685691 0.909780979
vt 0.904920101 0.96587348
vt 0.965695679 0.964481831
vt 0.879217625 0.754985213
vt 0.96569705 0.0341264941
vt 0.96569705 0.754992008
vt 0.879217625 0.0341264941
vt 0.826804042 0.754978418
vt 0.826804042 0.0341264941
vt 0.789186478 0.362754613
vt 0.819737911 0.754977345
vt 0.78925097 0.717189312
vt 0.77340734 0.03412655
vt 0.773095369 0.304863513
vt 0.71621573 0.102358125
vt 0.716547132 0.03412655
vt 0.697225094 0.03412655
vt 0.8588292 0.919265449
vt 0.869257033 0.979304492
vt 0.869257033 0.919265449
vt 0.8588292 0.979304492
vt 0.833817422 0.919265449
vt 0.833817422 0.979304492
vt 0.795080125 0.919265449
vt 0.795080125 0.979304492
vt 0.76588285 0.919265449
vt 0.76588285 0.979304492
vt 0.745096862 0.919265449
vt 0.745096862 0.979304492
vt 0.715219498 0.919265449
vt 0.715219498 0.979304492
vt 0.676024556 0.919265449
vt 0.676024556 0.979304492
vt 0.651620328 0.919265449
vt 0.651620328 0.979304492
vt 0.302403808 0.977931261
vt 0.162862659 0.920008063
vt 0.162862659 0.977931261
vt 0.302403808 0.920008063
vt 0.525950789 0.977931261
vt 0.525950789 0.920008063
vt 0.826828361 0.977931261
vt 0.826828361 0.920008063
vt 0.350939661 0.0449710526
vt 0.319755882 0.00605674693
vt 0.319755882 0.0449710526
vt 0.350939661 0.00605674693
vt 0.371066958 0.0449710526
vt 0.371066958 0.00605674693
vt 0.403238088 0.0449710526
vt 0.403238088 0.00605674693
vt 0.447693199 0.0449710526
vt 0.447693199 0.00605674693
vt 0.481617123 0.0449710526
vt 0.481617123 0.00605674693
vt 0.505228937 0.0449710526
vt 0.505228937 0.00605674693
vt 0.543698907 0.0449710526
vt 0.543698907 0.00605674693
vt 0.577192187 0.0449710526
vt 0.577192187 0.00605674693
vt 0.615511358 0.0449710526
vt 0.615511358 0.00605674693
vt 0.639093161 0.0449710526
vt 0.639093161 0.00605674693
vt 0.669030607 0.0449710526
vt 0.669030607 0.00605674693
vt 0.686488926 0.0449710526
vt 0.686488926 0.00605674693
vt 0.211392015 0.920076668
vt 0.245027006 0.980166972
vt 0.245027006 0.920076668
vt 0.211392015 0.980166972
vt 0.187931865 0.920076668
vt 0.187931865 0.980747223
vt 0.120782368 0.777542233
vt 0.17287308 0.777536392
vt 0.173430637 0.777536392
vt 0.120729655 0.777542233
vt 0.0347807147 0.777548194
vt 0.0343105681 0.777548194
vt 0.561618507 0.918773055
vt 0.736620128 0.979021549
vt 0.736620128 0.918773055
vt 0.561618507 0.979021549
vt 0.453832656 0.918773055
vt 0.453832656 0.979021549
vt 0.187931865 0.980747223
vt 0.144407809 0.920076668
vt 0.144407809 0.980747223
vt 0.187931865 0.920076668
vt 0.391876072 0.977267742
vt 0.187049523 0.918115258
vt 0.187049523 0.977267742
vt 0.391876072 0.918115258
vt 0.547098398 0.977267742
vt 0.547098398 0.918115258
vt 0.702410579 0.977267742
vt 0.702410579 0.918115258
vt 0.805054307 0.977267742
vt 0.805054307 0.918115258
vt 0.854471564 0.977267742
vt 0.854471564 0.918115258
vt 0.586329639 0.918074787
vt 0.839570343 0.977572739
vt 0.839570343 0.918074787
vt 0.586329639 0.977572739
vt 0.362726986 0.918074787
vt 0.362726986 0.977572739
vt 0.251885265 0.918074787
vt 0.251885265 0.977572739
vt 0.156771332 0.918074787
vt 0.156771332 0.977572739
vt 0.296963483 0.917874455
vt 0.860508084 0.978313565
vt 0.860508084 0.917874455
vt 0.296963483 0.978313565
vt 0.56168884 0.918810904
vt 0.866553664 0.978900075
vt 0.866553664 0.918810904
vt 0.56168884 0.978900075
vt 0.381247848 0.918810904
vt 0.381247848 0.978900075
vt 0.255992234 0.918810904
vt 0.255992234 0.978900075
vt 0.146750376 0.918810904
vt 0.146750376 0.978900075
vt 0.658219695 0.917227566
vt 0.836761832 0.977742672
vt 0.836761832 0.917227566
vt 0.658219695 0.977742672
vt 0.479853272 0.917227566
vt 0.479853272 0.977742672
vt 0.155821979 0.917227566
vt 0.155821979 0.977742672
vt 0.878782094 0.778239787
vt 0.826569438 0.777536392
vt 0.826041341 0.778931558
vt 0.879217625 0.777542233
vt 0.965689421 0.777548194
vt 0.669469595 0.979471028
vt 0.64168185 0.920528233
vt 0.64168185 0.979471028
vt 0.669469595 0.920528233
vt 0.690635741 0.979471028
vt 0.690635741 0.920528233
vt 0.62634629 0.979991436
vt 0.451538414 0.919743121
vt 0.451538414 0.979991436
vt 0.62634629 0.919743121
vt 0.734087408 0.979991436
vt 0.734087408 0.919743121
vt 0.703601539 0.979471028
vt 0.690635741 0.920528233
vt 0.690635741 0.979471028
vt 0.703601539 0.920528233
vt 0.162760928 0.917873919
vt 0.726305604 0.978313506
vt 0.726305604 0.917874098
vt 0.162760928 0.978313506
vt 0.605226755 0.919975817
vt 0.892672539 0.919975817
vt 0.892672539 0.919975817
vt 0.605226755 0.919975817
vt 0.451740384 0.919975817
vt 0.451740384 0.919975817
vt 0.432413071 0.919975817
vt 0.432413071 0.919975817
vt 0.670043349 0.921394825
vt 0.847055435 0.980475068
vt 0.847055435 0.921394825
vt 0.670043349 0.980475068
vt 0.513749361 0.921394825
vt 0.513749361 0.980475068
vt 0.379396379 0.921394825
vt 0.379396379 0.980475068
vt 0.244965479 0.921394825
vt 0.244965479 0.980475068
vt 0.16859071 0.921394825
vt 0.16859071 0.980475068
vt 0.143808693 0.91939944
vt 0.317551285 0.979199052
vt 0.317551285 0.91939944
vt 0.143808693 0.979199052
vt 0.540720403 0.979199052
vt 0.317551285 0.91939944
vt 0.317551285 0.979199052
vt 0.540720403 0.91939944
vt 0.610139668 0.979199052
vt 0.610139668 0.91939944
vt 0.771255434 0.979199052
vt 0.771255434 0.91939944
vt 0.851317346 0.979199052
vt 0.851317346 0.91939944
vn 4.13939342E-05 2.98849136E-05 -1
vn 3.520666E-05 2.64778446E-05 -1
vn 3.51166309E-05 2.67920605E-05 -1
vn -0.330589652 -0.943774581 8.17333421E-06
vn -0.250153303 -0.968206048 0.000491764513
vn -0.313878059 -0.949461937 0.00162599678
vn -0.315801799 -0.948825181 8.16318789E-07
vn -0.343195587 -0.939263999 7.47455806E-06
vn -0.413836926 -0.910351038 -5.55145234E-05
vn -0.414113939 -0.910225093 -1.14696036E-06
vn -0.250368148 -0.968150735 0
vn -0.1204184 -0.992723167 0
vn -0.120418437 -0.992723167 0
vn -0.0280900896 -0.999605477 0
vn -0.028090056 -0.999605477 0
vn -0 -1 0
vn -0 -1 0
vn 0.028090056 -0.999605477 0
vn 0.0280900896 -0.999605477 0
vn 0.1204184 -0.992723167 0
vn 0.120418429 -0.992723167 0
vn 0.250153303 -0.968206048 0.000491742045
vn 0.250368148 -0.968150735 0
vn 0.315801799 -0.948825181 8.19268337E-07
vn 0.330589652 -0.943774581 8.17269938E-06
vn 0.313878179 -0.949461818 0.00162592181
vn 0.343195587 -0.939263999 7.47455897E-06
vn 0.413836926 -0.910351038 -5.55145234E-05
vn 0.414113939 -0.910225093 -1.14696036E-06
vn -0.558962822 -0.829192638 0.000178954302
vn -0.582894623 -0.812547743 4.19086646E-05
vn -0.592688859 -0.805431426 1.93220239E-05
vn -0.606510818 -0.795075297 -4.61754935E-05
vn -0.606548727 -0.795046329 2.41533326E-06
vn -0.606485665 -0.794955611 -0.014852779
vn -0.61446321 -0.788945556 -1.7853481E-05
vn -0.582904279 -0.812540829 0
vn -0.606472015 -0.795104921 0
vn -0.606472015 -0.795104921 0
vn -0.582903326 -0.812541544 0
vn -0.534654975 -0.845070362 -6.99797893E-05
vn -0.534119725 -0.845408916 -5.36984517E-05
vn -0.509319901 -0.860577285 -3.11408003E-05
vn -0.509804785 -0.86029011 -0.000106072497
vn -0.50917244 -0.860664427 0
vn -0.46280238 -0.886461496 -7.8168101E-05
vn -0.495555639 -0.868576169 -9.46335276E-05
vn -0.40140143 -0.915902197 0.000183235796
vn -0.366645157 -0.930360734 0.0003829833
vn -0.318223059 -0.948014736 0.00143447437
vn 0.558962822 -0.829192638 0.000178954127
vn 0.592688859 -0.805431426 1.93219785E-05
vn 0.582894623 -0.812547743 4.19085918E-05
vn 0.606510818 -0.795075297 -4.61754935E-05
vn 0.606548727 -0.795046329 2.41533326E-06
vn 0.61446321 -0.788945496 -1.7853481E-05
vn 0.61446321 -0.788945556 -1.7853481E-05
vn 0.606472015 -0.795104921 0
vn 0.582904279 -0.812540829 0
vn 0.606472015 -0.795104921 0
vn 0.582903326 -0.812541544 0
vn 0.534654856 -0.845070541 -6.99403172E-05
vn 0.534119725 -0.845408916 -5.37019223E-05
vn 0.509319901 -0.860577285 -3.11446529E-05
vn 0.509804487 -0.86029017 -0.000106028769
vn 0.509172857 -0.860664248 0
vn 0.46280238 -0.886461496 -7.81791823E-05
vn 0.495555818 -0.868576109 -9.4653391E-05
vn 0.40140146 -0.915902197 0.000183225784
vn 0.366645217 -0.930360734 0.000382987055
vn 0.318223059 -0.948014736 0.00143448287
vn 0.331167251 0.943571985 2.95780978E-06
vn 0.318215668 0.948018074 0.000758017821
vn 0.251668274 0.967813551 0.00023439432
vn 0.317285389 0.948330045 4.15070929E-07
vn 0.342759371 0.939423263 3.2621424E-06
vn 0.415975004 0.909376085 -2.35199022E-05
vn 0.415851533 0.90943259 -4.32283258E-07
vn 0.251542628 0.967846274 0
vn 0.119903922 0.992785454 0
vn 0.119903959 0.992785454 0
vn 0.0274412874 0.999623418 0
vn 0.0274412837 0.999623418 0
vn -0 1 0
vn -0 1 0
vn -0.0274412818 0.999623418 0
vn -0.0274412874 0.999623418 0
vn -0.119903922 0.992785454 0
vn -0.119903982 0.992785454 0
vn -0.251668185 0.967813551 0.000234334992
vn -0.251542628 0.967846274 0
vn -0.317285389 0.948330045 4.16555451E-07
vn -0.331167251 0.943571985 2.95251084E-06
vn -0.318215221 0.948018193 0.000757828238
vn -0.342759341 0.939423263 3.26214285E-06
vn -0.415975004 0.909376085 -2.35199022E-05
vn -0.415851533 0.90943259 -4.32283258E-07
vn 0.582973599 0.812491059 1.70345666E-05
vn 0.558779776 0.82931602 7.38762101E-05
vn 0.592732072 0.805399656 7.98055953E-06
vn 0.606589139 0.795015454 -1.92104617E-05
vn 0.606573284 0.795027494 9.53462632E-07
vn 0.606505632 0.7949422 0.0147552863
vn 0.614506602 0.7889117 -7.29109524E-06
vn 0.606605172 0.795003235 0
vn 0.582972288 0.812492013 0
vn 0.606605053 0.795003355 0
vn 0.582971394 0.812492669 0
vn 0.534042597 0.845457673 -3.20890031E-05
vn 0.534283221 0.845305502 -2.2356362E-05
vn 0.509110808 0.860701025 -1.25419856E-05
vn 0.508883178 0.860835612 -4.85435266E-05
vn 0.509172678 0.860664427 0
vn 0.462940991 0.886389077 -3.44223627E-05
vn 0.495615214 0.868542194 -3.9072791E-05
vn 0.401296198 0.915948391 8.07317992E-05
vn 0.366550356 0.930398226 0.000158328068
vn 0.316203505 0.94869113 0.00060742721
vn -0.592732131 0.805399656 7.98056499E-06
vn -0.558779836 0.82931596 7.38762246E-05
vn -0.582973659 0.812491059 1.70345756E-05
vn -0.606589139 0.795015454 -1.92104617E-05
vn -0.606573284 0.795027494 9.53462632E-07
vn -0.614506602 0.7889117 -7.29109661E-06
vn -0.614506602 0.7889117 -7.29109524E-06
vn -0.582972288 0.812492013 0
vn -0.606605172 0.795003235 0
vn -0.606605053 0.795003355 0
vn -0.582971394 0.812492669 0
vn -0.534042597 0.845457673 -3.20890031E-05
vn -0.534283221 0.845305502 -2.23654515E-05
vn -0.509110928 0.860701025 -1.25463675E-05
vn -0.508883178 0.860835612 -4.85429227E-05
vn -0.509172678 0.860664427 0
vn -0.462940991 0.886389077 -3.44412656E-05
vn -0.495615125 0.868542254 -3.90985297E-05
vn -0.401296139 0.915948391 8.07170727E-05
vn -0.366550356 0.930398226 0.000158328054
vn -0.316203505 0.94869113 0.000607426453
vn -0 0 -1
vn -0 0 -1
vn -0 0 -1
vn -0 0 -1
vn -0 0 -1
vn -0 0 -1
vn -0 0 -1
vn -0 0 -1
vn -0 0 -1
vn -0 0 -1
vn -0 0 -1
vn -0 0 -1
vn -0 0 -1
vn -0 0 -1
vn -0 0 -1
vn -0 0 -1
vn -0 0 -1
vn -0 0 -1
vn -0.848756731 0.296478271 -0.437850177
vn -0.843782842 0.284340352 -0.455171555
vn -0.844823241 0.282201111 -0.454572558
vn -0.84487021 0.303649366 -0.440444499
vn -0.889547884 0.398403436 -0.223560303
vn -0.886279941 0.404647946 -0.225317255
vn -0.909671664 0.41532734 0.000841986563
vn -0.909671664 0.415327281 0.000841992674
vn -0.637828648 0.240606129 0.731630623
vn -0.625812054 0.269674778 0.731870651
vn -0.624353826 0.285060167 0.727270901
vn -0.638245523 0.229406431 0.73485738
vn -0.34786436 0.119949557 0.929839969
vn -0.347321421 0.116017744 0.930541694
vn -0 0 1
vn -0 0 1
vn -0 0 1
vn -0 0 1
vn -0 0 1
vn -0 0 1
vn -0 0 1
vn -0 0 1
vn -0 0 1
vn -0 0 1
vn -0 0 1
vn -0 0 1
vn -0 0 1
vn -0 0 1
vn 0.352320313 0.117687538 0.928450286
vn 0.34950307 0.120491967 0.929155171
vn 0.64538461 0.232107699 0.727739513
vn 0.637724996 0.240563497 0.731734931
vn 0.618468404 0.266272426 0.739321232
vn 0.607949376 0.277570397 0.743876457
vn 0.613008022 -0.454111576 0.646532178
vn 0.649822593 -0.446965396 0.614778399
vn 0.652846575 -0.439939499 0.616639614
vn 0.611097932 -0.461135656 0.643360794
vn 0.582884431 -0.448787957 0.677373648
vn 0.58147198 -0.455336332 0.674209952
vn -4.1536041E-05 2.94872389E-05 -1
vn -4.78324509E-05 3.28500792E-05 -1
vn -4.83371477E-05 3.25733854E-05 -1
vn -4.11463661E-05 2.97102015E-05 -1
vn -3.49963047E-05 2.63169786E-05 -1
vn -3.47178429E-05 2.6487809E-05 -1
vn -0.793370843 0.608738303 0.000652781513
vn -0.79458034 0.607158959 6.32541414E-05
vn -0.79503274 0.606566429 0.000357906392
vn -0.792138219 0.610340893 -0.00103645725
vn -0.790943325 0.611887574 -0.00148434029
vn -0.788913667 0.614487171 -0.00455830665
vn -0.00240665115 -0.00703839399 0.999972343
vn -0.00205004448 -0.0033879322 0.999992132
vn -0.00159749785 0.00124429562 0.999997973
vn -0.00285698543 -0.0116486466 0.999928117
vn -0 0 -1
vn -0 0 -1
vn -0 0 -1
vn -0 0 -1
vn -0 0 -1
vn -0 0 -1
vn -0 0 -1
vn -0 0 -1
vn -0 0 -1
vn -0 0 -1
vn -0 0 -1
vn -0 0 -1
vn 4.75549787E-05 -3.43349238E-05 1
vn 4.07858279E-05 -3.06738038E-05 1
vn 4.06815452E-05 -3.10377836E-05 1
vn 4.76860259E-05 -3.34988545E-05 1
vn 6.26507244E-05 -4.02757323E-05 1
vn 6.00706262E-05 -3.68661713E-05 1
vn 0.250051379 -0.147932902 0.956864834
vn 0.250095963 -0.147957936 0.956849337
vn 0.478403568 -0.283025712 0.831280053
vn 0.478403538 -0.283025533 0.831280112
vn -0.795032799 0.60656637 0
vn -0.795032799 0.60656637 0
vn -0.795032799 0.606566429 0
vn -0.795032799 0.606566429 0
vn 0.836392581 -0.494813979 0.235810474
vn 0.860664427 -0.509172559 0.000337541453
vn 0.860664427 -0.509172559 0.000337549835
vn 0.837466419 -0.491876066 0.238134101
vn 0.773330271 -0.444671452 0.451915443
vn 0.776378632 -0.435155332 0.455934256
vn 0.819692791 -0.366458923 0.440240502
vn 0.823063314 -0.343918324 0.451981097
vn 0.83453232 -0.311445385 0.454486012
vn 0.835576415 -0.279112369 0.473189503
vn 0.844540656 0.294968039 -0.446928352
vn 0.842719615 0.283985198 -0.457357734
vn 0.843177259 0.28165102 -0.457957208
vn 0.842746556 0.302840501 -0.445045918
vn 0.891017377 0.399090677 -0.216366634
vn 0.888478518 0.405651748 -0.214598566
vn 0.909671664 0.415327281 0.000841923873
vn 0.909671664 0.415327251 0.000841917587
vn 4.14741007E-05 2.9439816E-05 -1
vn 4.75450361E-05 3.26577065E-05 -1
vn 4.76154855E-05 3.20870677E-05 -1
vn 4.13939342E-05 2.98849136E-05 -1
vn 3.520666E-05 2.64778446E-05 -1
vn -0.614251614 -0.455033928 0.644700825
vn -0.653619409 -0.449520111 0.60886234
vn -0.659025609 -0.44410342 0.607006848
vn -0.608212769 -0.459067672 0.64756006
vn -0.581498802 -0.447752178 0.679247499
vn -0.575543165 -0.45089975 0.682231247
vn 0.793364525 0.608742714 -0.00224329461
vn 0.794580281 0.60715884 -0.000576850085
vn 0.795032501 0.606566191 -0.000871797907
vn 0.792134881 0.610345721 -0.000564931077
vn 0.790941894 0.611890018 -0.00120155571
vn 0.788920403 0.614492536 0.00187780627
vn 0.000506466546 -0.0045948755 0.99998939
vn 0.00395903783 -0.00584272109 0.999975085
vn 0.00835518446 -0.0074315127 0.999937534
vn -0.00386883481 -0.00301344646 0.99998796
vn 0.795032799 0.60656637 0
vn 0.795032799 0.60656637 0
vn 0.795032799 0.606566429 0
vn 0.795032799 0.606566429 0
vn -4.68787402E-05 -3.38531208E-05 1
vn -4.0542167E-05 -3.04874593E-05 1
vn -4.02195983E-05 -3.06853472E-05 1
vn -4.76011774E-05 -3.34432407E-05 1
vn -5.92619617E-05 -3.81390419E-05 1
vn -6.34390963E-05 -3.88866574E-05 1
vn -0.250096023 -0.147959188 0.956849098
vn -0.250052541 -0.147932321 0.956864595
vn -0 0 -1
vn -0 0 -1
vn -0 0 -1
vn -0 0 -1
vn -0 0 -1
vn -0 0 -1
vn -0 0 -1
vn -0 0 -1
vn -0 0 -1
vn -0 0 -1
vn -0 0 -1
vn -0 0 -1
vn -0.250052541 -0.147932321 0.956864595
vn -0.478403538 -0.283025861 0.831279933
vn -0.478403538 -0.283025831 0.831279933
vn -0.250096023 -0.147959188 0.956849098
vn -0.835250258 -0.494138181 0.241214469
vn -0.86066407 -0.509173095 0.000337539357
vn -0.86066407 -0.509173095 0.000337538222
vn -0.837307692 -0.491775721 0.238898546
vn -0.769252896 -0.44241485 0.460997909
vn -0.775546908 -0.434775144 0.457708925
vn -0.811377585 -0.363010913 0.458137155
vn -0.824954033 -0.344431221 0.44812724
vn -0.840165317 -0.313128829 0.44280073
vn -0.859111667 -0.286974013 0.423760504
g Object001_0
f 3/3/3 2/2/2 1/1/1
f 6/6/6 5/5/5 4/4/4
f 4/4/4 5/5/5 7/7/7
f 8/8/8 4/4/4 7/7/7
f 4/4/4 8/8/8 9/9/9
f 10/10/10 9/9/9 8/8/8
f 5/5/5 11/11/11 7/7/7
f 11/11/11 5/5/5 12/12/12
f 13/13/13 12/12/12 5/5/5
f 13/13/13 14/14/14 12/12/12
f 15/15/15 12/12/12 14/14/14
f 14/14/14 16/16/16 15/15/15
f 17/17/17 15/15/15 16/16/16
f 17/17/17 16/16/16 18/18/18
f 19/19/19 18/18/18 16/16/16
f 18/18/18 19/19/19 20/20/20
f 21/21/21 20/20/20 19/19/19
f 21/21/21 22/22/22 20/20/20
f 23/23/23 20/20/20 22/22/22
f 23/23/23 22/22/22 24/24/24
f 22/22/22 25/25/25 24/24/24
f 26/26/26 25/25/25 22/22/22
f 25/25/25 27/27/27 24/24/24
f 25/25/25 28/28/28 27/27/27
f 29/29/29 27/27/27 28/28/28
f 32/32/32 31/31/31 30/30/30
f 31/31/31 32/32/32 33/33/33
f 34/34/34 33/33/33 32/32/32
f 32/32/32 35/35/35 34/34/34
f 36/36/36 34/34/34 35/35/35
f 39/39/39 38/38/38 37/37/37
f 40/40/40 37/37/37 38/38/38
f 37/37/37 40/40/40 41/41/41
f 42/42/42 41/41/41 40/40/40
f 41/41/41 42/42/42 43/43/43
f 44/44/44 41/41/41 43/43/43
f 45/45/45 44/44/44 43/43/43
f 42/42/42 46/46/46 43/43/43
f 46/46/46 47/47/47 43/43/43
f 47/47/47 46/46/46 48/48/48
f 49/49/49 48/48/48 46/46/46
f 49/49/49 50/50/50 48/48/48
f 53/53/53 52/52/52 51/51/51
f 53/53/53 54/54/54 52/52/52
f 55/55/55 52/52/52 54/54/54
f 52/52/52 55/55/55 56/56/56
f 57/57/57 56/56/56 55/55/55
f 60/60/60 59/59/59 58/58/58
f 61/61/61 58/58/58 59/59/59
f 59/59/59 62/62/62 61/61/61
f 63/63/63 61/61/61 62/62/62
f 63/63/63 62/62/62 64/64/64
f 62/62/62 65/65/65 64/64/64
f 65/65/65 66/66/66 64/64/64
f 67/67/67 63/63/63 64/64/64
f 68/68/68 67/67/67 64/64/64
f 68/68/68 69/69/69 67/67/67
f 70/70/70 67/67/67 69/69/69
f 71/71/71 70/70/70 69/69/69
f 74/74/74 73/73/73 72/72/72
f 75/75/75 74/74/74 72/72/72
f 76/76/76 75/75/75 72/72/72
f 72/72/72 77/77/77 76/76/76
f 78/78/78 76/76/76 77/77/77
f 79/79/79 74/74/74 75/75/75
f 79/79/79 80/80/80 74/74/74
f 81/81/81 74/74/74 80/80/80
f 81/81/81 80/80/80 82/82/82
f 83/83/83 82/82/82 80/80/80
f 82/82/82 83/83/83 84/84/84
f 85/85/85 84/84/84 83/83/83
f 85/85/85 86/86/86 84/84/84
f 87/87/87 84/84/84 86/86/86
f 86/86/86 88/88/88 87/87/87
f 89/89/89 87/87/87 88/88/88
f 89/89/89 88/88/88 90/90/90
f 91/91/91 90/90/90 88/88/88
f 91/91/91 92/92/92 90/90/90
f 92/92/92 93/93/93 90/90/90
f 93/93/93 94/94/94 90/90/90
f 95/95/95 93/93/93 92/92/92
f 93/93/93 95/95/95 96/96/96
f 97/97/97 96/96/96 95/95/95
f 100/100/100 99/99/99 98/98/98
f 98/98/98 101/101/101 100/100/100
f 102/102/102 100/100/100 101/101/101
f 100/100/100 102/102/102 103/103/103
f 104/104/104 103/103/103 102/102/102
f 107/107/107 106/106/106 105/105/105
f 108/108/108 105/105/105 106/106/106
f 106/106/106 109/109/109 108/108/108
f 110/110/110 108/108/108 109/109/109
f 110/110/110 109/109/109 111/111/111
f 111/111/111 109/109/109 112/112/112
f 113/113/113 111/111/111 112/112/112
f 114/114/114 110/110/110 111/111/111
f 115/115/115 114/114/114 111/111/111
f 115/115/115 116/116/116 114/114/114
f 117/117/117 114/114/114 116/116/116
f 117/117/117 116/116/116 118/118/118
f 121/121/121 120/120/120 119/119/119
f 121/121/121 119/119/119 122/122/122
f 123/123/123 122/122/122 119/119/119
f 119/119/119 124/124/124 123/123/123
f 125/125/125 123/123/123 124/124/124
f 128/128/128 127/127/127 126/126/126
f 129/129/129 126/126/126 127/127/127
f 126/126/126 129/129/129 130/130/130
f 131/131/131 130/130/130 129/129/129
f 130/130/130 131/131/131 132/132/132
f 133/133/133 130/130/130 132/132/132
f 134/134/134 133/133/133 132/132/132
f 132/132/132 131/131/131 135/135/135
f 136/136/136 132/132/132 135/135/135
f 136/136/136 135/135/135 137/137/137
f 138/138/138 137/137/137 135/135/135
f 139/139/139 137/137/137 138/138/138
f 142/142/142 141/141/141 140/140/140
f 143/143/143 140/140/140 141/141/141
f 140/140/140 143/143/143 144/144/144
f 145/145/145 144/144/144 143/143/143
f 144/144/144 145/145/145 146/146/146
f 147/147/147 146/146/146 145/145/145
f 146/146/146 147/147/147 148/148/148
f 149/149/149 148/148/148 147/147/147
f 148/148/148 149/149/149 150/150/150
f 151/151/151 150/150/150 149/149/149
f 150/150/150 151/151/151 152/152/152
f 153/153/153 152/152/152 151/151/151
f 152/152/152 153/153/153 154/154/154
f 155/155/155 154/154/154 153/153/153
f 154/154/154 155/155/155 156/156/156
f 157/157/157 156/156/156 155/155/155
f 160/160/160 159/159/159 158/158/158
f 161/161/161 158/158/158 159/159/159
f 158/158/158 161/161/161 162/162/162
f 163/163/163 162/162/162 161/161/161
f 162/162/162 163/163/163 164/164/164
f 165/165/165 164/164/164 163/163/163
f 168/168/168 167/167/167 166/166/166
f 169/169/169 166/166/166 167/167/167
f 166/166/166 169/169/169 170/170/170
f 171/171/171 170/170/170 169/169/169
f 170/170/170 171/171/171 172/172/172
f 173/173/173 172/172/172 171/171/171
f 172/172/172 173/173/173 174/174/174
f 175/175/175 174/174/174 173/173/173
f 174/174/174 175/175/175 176/176/176
f 177/177/177 176/176/176 175/175/175
f 176/176/176 177/177/177 178/178/178
f 179/179/179 178/178/178 177/177/177
f 178/178/178 179/179/179 180/180/180
f 181/181/181 180/180/180 179/179/179
f 180/180/180 181/181/181 182/182/182
f 183/183/183 182/182/182 181/181/181
f 182/182/182 183/183/183 184/184/184
f 185/185/185 184/184/184 183/183/183
f 184/184/184 185/185/185 186/186/186
f 187/187/187 186/186/186 185/185/185
f 186/186/186 187/187/187 188/188/188
f 189/189/189 188/188/188 187/187/187
f 188/188/188 189/189/189 190/190/190
f 191/191/191 190/190/190 189/189/189
f 194/194/194 193/193/193 192/192/192
f 195/195/195 192/192/192 193/193/193
f 192/192/192 195/195/195 196/196/196
f 197/197/197 196/196/196 195/195/195
f 200/200/200 199/199/199 198/198/198
f 201/201/201 198/198/198 199/199/199
f 198/198/198 201/201/201 202/202/202
f 203/203/203 202/202/202 201/201/201
f 206/206/206 205/205/205 204/204/204
f 207/207/207 204/204/204 205/205/205
f 204/204/204 207/207/207 208/208/208
f 209/209/209 208/208/208 207/207/207
f 212/212/212 211/211/211 210/210/210
f 213/213/213 210/210/210 211/211/211
f 216/216/216 215/215/215 214/214/214
f 217/217/217 214/214/214 215/215/215
f 214/214/214 217/217/217 218/218/218
f 219/219/219 218/218/218 217/217/217
f 218/218/218 219/219/219 220/220/220
f 221/221/221 220/220/220 219/219/219
f 220/220/220 221/221/221 222/222/222
f 223/223/223 222/222/222 221/221/221
f 222/222/222 223/223/223 224/224/224
f 225/225/225 224/224/224 223/223/223
f 228/228/228 227/227/227 226/226/226
f 229/229/229 226/226/226 227/227/227
f 226/226/226 229/229/229 230/230/230
f 231/231/231 230/230/230 229/229/229
f 230/230/230 231/231/231 232/232/232
f 233/233/233 232/232/232 231/231/231
f 232/232/232 233/233/233 234/234/234
f 235/235/235 234/234/234 233/233/233
f 238/238/238 237/237/237 236/236/236
f 239/239/239 236/236/236 237/237/237
f 242/242/242 241/241/241 240/240/240
f 243/243/243 240/240/240 241/241/241
f 240/240/240 243/243/243 244/244/244
f 245/245/245 244/244/244 243/243/243
f 244/244/244 245/245/245 246/246/246
f 247/247/247 246/246/246 245/245/245
f 246/246/246 247/247/247 248/248/248
f 249/249/249 248/248/248 247/247/247
f 252/252/252 251/251/251 250/250/250
f 253/253/253 250/250/250 251/251/251
f 250/250/250 253/253/253 254/254/254
f 255/255/255 254/254/254 253/253/253
f 254/254/254 255/255/255 256/256/256
f 257/257/257 256/256/256 255/255/255
f 260/260/260 259/259/259 258/258/258
f 261/261/261 258/258/258 259/259/259
f 258/258/258 261/261/261 262/262/262
f 265/265/265 264/264/264 263/263/263
f 266/266/266 263/263/263 264/264/264
f 263/263/263 266/266/266 267/267/267
f 268/268/268 267/267/267 266/266/266
f 271/271/271 270/270/270 269/269/269
f 272/272/272 269/269/269 270/270/270
f 269/269/269 272/272/272 273/273/273
f 274/274/274 273/273/273 272/272/272
f 277/277/277 276/276/276 275/275/275
f 278/278/278 275/275/275 276/276/276
f 281/281/281 280/280/280 279/279/279
f 282/282/282 279/279/279 280/280/280
f 285/285/285 284/284/284 283/283/283
f 286/286/286 283/283/283 284/284/284
f 283/283/283 286/286/286 287/287/287
f 288/288/288 287/287/287 286/286/286
f 287/287/287 288/288/288 289/289/289
f 290/290/290 289/289/289 288/288/288
f 293/293/293 292/292/292 291/291/291
f 294/294/294 291/291/291 292/292/292
f 291/291/291 294/294/294 295/295/295
f 296/296/296 295/295/295 294/294/294
f 295/295/295 296/296/296 297/297/297
f 298/298/298 297/297/297 296/296/296
f 297/297/297 298/298/298 299/299/299
f 300/300/300 299/299/299 298/298/298
f 299/299/299 300/300/300 301/301/301
f 302/302/302 301/301/301 300/300/300
f 305/305/305 304/304/304 303/303/303
f 306/306/306 303/303/303 304/304/304
f 309/309/309 308/308/308 307/307/307
f 310/310/310 307/307/307 308/308/308
f 307/307/307 310/310/310 311/311/311
f 312/312/312 311/311/311 310/310/310
f 311/311/311 312/312/312 313/313/313
f 314/314/314 313/313/313 312/312/312
f 313/313/313 314/314/314 315/315/315
f 316/316/316 315/315/315 314/314/314
