g A_build_Carbarn_01_light
v -4.64479014 1.60110504 -4.56363615
v -4.71608655 1.69701949 -4.48290816
v -4.60770322 1.69701949 -4.57818317
v -4.73399058 1.56130055 -4.52830766
v -4.64479014 1.79309379 -4.56363615
v -4.82335087 1.60110504 -4.49297917
v -4.73399058 1.83289829 -4.52830766
v -4.86027793 1.69701949 -4.47843215
v -4.82335087 1.79309379 -4.49297917
v -5.6824246 1.60110504 -4.15376175
v -5.75388086 1.69701949 -4.07303376
v -5.64549753 1.69701949 -4.16830877
v -5.77178489 1.56130055 -4.11843326
v -5.6824246 1.79309379 -4.15376175
v -5.86114518 1.60110504 -4.08310477
v -5.77178489 1.83289829 -4.11843326
v -5.89807224 1.69701949 -4.06855775
v -5.86114518 1.79309379 -4.08310477
vt 0.19928233 0.350690444
vt 0.176100227 0.326059459
vt 0.175375786 0.360108174
vt 0.209424501 0.327508341
vt 0.151469242 0.349241563
vt 0.200731212 0.303601797
vt 0.142775953 0.325335019
vt 0.177549108 0.292735185
vt 0.153642564 0.302152915
vt 0.151469242 0.349241563
vt 0.176100227 0.326059459
vt 0.142775953 0.325335019
vt 0.175375786 0.360108174
vt 0.153642564 0.302152915
vt 0.19928233 0.350690444
vt 0.177549108 0.292735185
vt 0.209424501 0.327508341
vt 0.200731212 0.303601797
vn 0.566074917 -0.23737229 0.789438778
vn 0.366505465 0.00132842648 0.93041495
vn 0.659989953 0.00132842648 0.751273251
vn 0.346939833 -0.33911358 0.87443395
vn 0.566074917 0.240029143 0.788635023
vn 0.123891622 -0.23737229 0.963485995
vn 0.346939833 0.337857306 0.874920107
vn 0.0299765856 0.00132842648 0.999549718
vn 0.123891622 0.240029143 0.962827542
vn 0.566074917 -0.23737229 0.789438778
vn 0.366505465 0.00132842648 0.93041495
vn 0.659989953 0.00132842648 0.751273251
vn 0.346939833 -0.33911358 0.87443395
vn 0.566074917 0.240029143 0.788635023
vn 0.123891622 -0.23737229 0.963485995
vn 0.346939833 0.337857306 0.874920107
vn 0.0299765856 0.00132842648 0.999549718
vn 0.123891622 0.240029143 0.962827542
g A_build_Carbarn_01_light_0
f 3/3/3 2/2/2 1/1/1
f 1/1/1 2/2/2 4/4/4
f 5/5/5 2/2/2 3/3/3
f 4/4/4 2/2/2 6/6/6
f 7/7/7 2/2/2 5/5/5
f 6/6/6 2/2/2 8/8/8
f 9/9/9 2/2/2 7/7/7
f 8/8/8 2/2/2 9/9/9
f 12/12/12 11/11/11 10/10/10
f 10/10/10 11/11/11 13/13/13
f 14/14/14 11/11/11 12/12/12
f 13/13/13 11/11/11 15/15/15
f 16/16/16 11/11/11 14/14/14
f 15/15/15 11/11/11 17/17/17
f 18/18/18 11/11/11 16/16/16
f 17/17/17 11/11/11 18/18/18
