g Cylinder003
v 0.907175243 4.56064892 -34.7710762
v 4.56830048E-06 4.60008287 -20.0996208
v 6.09417839E-06 4.64999866 -34.7710724
v 0.897435904 4.511693 -20.0996208
v 1.77948356 4.29603863 -34.7710762
v 3.95794723E-06 4.58763885 -7.61712646
v 1.76038027 4.24992228 -20.0996208
v 2.58340621 3.86633229 -34.7710724
v 0.895006716 4.4994874 -7.61712646
v 2.73724481E-06 4.65982485 -2.08405757
v 2.55567384 3.82483029 -20.0996208
v 3.28805232 3.28804564 -34.7710762
v 1.75561464 4.23842382 -7.61712646
v 0.909088731 4.57028818 -2.08405757
v 1.51654183E-06 5.08974886 7.79106283
v 3.25275588 3.25275087 -20.0996189
v 3.86633897 2.58340025 -34.7710762
v 2.54875731 3.81448245 -7.61712646
v 1.78323972 4.30511713 -2.08405757
v 0.992961407 4.9919486 7.79106379
v 1.51654183E-06 5.49896908 12.2232599
v 3.82483411 2.55566955 -20.099617
v 4.29604483 1.77947748 -34.7710762
v 3.24395466 3.24395084 -7.61712646
v 2.58886218 3.87450361 -2.08405757
v 1.94776368 4.7023139 7.79106283
v 1.07279718 5.39330721 12.2232618
v 1.21136611E-06 6.07202244 16.3786488
v 4.24992752 1.76037538 -20.0996208
v 4.56065607 0.907169163 -34.7710762
v 3.81448579 2.54875541 -7.61712408
v 3.29499626 3.29499388 -2.08405876
v 2.82771516 4.23197031 7.79106283
v 2.10436583 5.08038616 12.2232618
v 1.18459344 5.95534754 16.3786488
v 1.211366E-06 6.83465052 20.3022919
v 4.51169872 0.897431612 -20.0996208
v 4.65000534 -6.10351549E-07 -34.7710762
v 4.23842716 1.75561273 -7.61712646
v 3.87450624 2.5888598 -2.08405876
v 3.59899807 3.59899473 7.79106236
v 3.05506587 4.57222509 12.2232618
v 2.32366276 5.60981655 16.3786488
v 1.33337402 6.70332384 20.3022919
v 1.21136588E-06 7.81260109 24.0392704
v 1.52416193 7.66248274 24.0392628
v 1.21136588E-06 9.03161335 27.6346378
v 2.61550832 6.31439304 20.3022919
v 3.37343526 5.04870224 16.3786488
v 3.88836122 3.88835979 12.2232618
v 4.23197412 2.8277123 7.79106379
v 1.76197994 8.85807323 27.6346359
v 1.211366E-06 10.5174351 31.1334839
v 2.98975372 7.21790123 24.0392647
v 3.79713011 5.68280506 20.3022919
v 4.29356956 4.29356861 16.3786488
v 2.05184984 10.3153429 31.1334858
v 1.21136577E-06 12.2958078 34.5808716
v 3.45624924 8.34412193 27.6346378
v 4.34044838 6.49593973 24.0392704
v 2.39879274 12.0595455 34.5808716
v 1.21136634E-06 14.392478 38.0218735
v 4.02484846 9.7168417 31.1334858
v 2.80783224 14.1159286 38.0218735
v 1.21136657E-06 16.8331928 41.5015564
v 4.57222843 3.05506349 12.2232618
v 4.832829 4.832829 20.3022919
v 5.0176959 7.5095129 27.6346378
v 4.70540237 11.3598394 34.5808716
v 3.28399038 16.5097427 41.5015564
v 1.211366E-06 19.6436844 45.0649986
v 3.83229113 19.2662354 45.0649986
v 5.50776291 13.296917 38.0218735
v 6.44178343 15.5518379 41.5015602
v 7.51731205 18.1483955 45.0649986
v 5.8431735 8.74492645 31.1334801
v 5.52434206 5.52434254 24.0392666
v 6.83118629 10.2235909 34.5808716
v 7.99603271 11.9669085 38.0218773
v 9.35201931 13.9962854 41.5015526
v 10.9134455 16.3331242 45.0649986
v 6.38631582 6.38631582 27.6346436
v 7.43695068 7.4369483 31.1334858
v 8.69445038 8.69445038 34.5808716
v 10.1770201 10.1770191 38.0218735
v 11.9028625 11.9028625 41.5015602
v 13.8901825 13.8901825 45.0650101
v 13.9962835 9.3520174 41.5015602
v 16.333128 10.9134436 45.0649986
v 11.9669075 7.99603128 38.0218735
v 10.2235928 6.83118534 34.5808716
v 8.74492645 5.84317112 31.1334801
v 7.5095129 5.0176959 27.6346378
v 15.551837 6.441782 41.5015602
v 18.1483974 7.51731205 45.0649986
v 13.2969151 5.50776291 38.0218735
v 11.3598433 4.70540094 34.5808716
v 9.7168417 4.02484751 31.1334858
v 16.5097427 3.2839911 41.5015602
v 19.2662373 3.83229184 45.0649986
v 14.1159277 2.807832 38.0218735
v 12.0595455 2.39879274 34.5808716
v 16.833189 0 41.5015526
v 19.6436863 -6.10351549E-07 45.0649986
v 14.3924761 -6.10351549E-07 38.0218735
v 16.5097485 -3.28396749 41.5015602
v 19.266243 -3.83226371 45.0650024
v 8.34412193 3.45624804 27.6346378
v 10.3153439 2.05184865 31.1334801
v 12.2958078 -6.10351549E-07 34.5808716
v 14.1159363 -2.80781174 38.0218773
v 15.5518503 -6.44176149 41.5015602
v 18.1484108 -7.51728725 45.0650101
v 8.85807323 1.76197994 27.6346378
v 10.5174341 -6.10351549E-07 31.1334801
v 12.0595531 -2.39877486 34.5808716
v 13.2969246 -5.50774479 38.0218773
v 13.9962959 -9.35200024 41.5015602
v 16.3331413 -10.9134235 45.0649986
v 9.03161526 -3.05175774E-07 27.6346378
v 10.3153505 -2.05183411 31.1334839
v 11.3598518 -4.70538664 34.5808716
v 11.9669189 -7.99601746 38.0218658
v 11.9028759 -11.9028492 41.5015526
v 13.8902016 -13.8901653 45.0650101
v 8.858078 -1.76196682 27.6346436
v 9.71684933 -4.02483463 31.1334801
v 10.2235994 -6.83117151 34.5808716
v 10.1770344 -10.1770077 38.0218773
v 9.35203457 -13.996274 41.5015526
v 10.9134645 -16.3331127 45.0649986
v 8.34412956 -3.45623732 27.6346436
v 8.74493599 -5.84316206 31.1334801
v 8.69445992 -8.69443989 34.5808792
v 7.99604607 -11.9668989 38.0218735
v 6.44179916 -15.5518322 41.5015717
v 7.5173316 -18.1483898 45.0649986
v 7.50951767 -5.01768589 27.6346378
v 7.43695927 -7.43694067 31.1334801
v 6.83119726 -10.2235842 34.5808716
v 5.50777769 -13.2969112 38.0218658
v 3.28400922 -16.5097427 41.5015602
v 3.83231187 -19.2662315 45.0650024
v 6.38632679 -6.38630772 27.6346378
v 5.84318352 -8.74491978 31.1334801
v 4.70541716 -11.3598394 34.5808716
v 2.80784869 -14.1159296 38.021862
v 1.49442767E-05 -16.8331909 41.5015602
v 1.7080507E-05 -19.6436882 45.0650024
v 5.01770449 -7.5095067 27.634634
v 4.02485847 -9.71683979 31.1334801
v 2.3988061 -12.0595465 34.5808754
v 1.28080464E-05 -14.3924799 38.0218735
v -3.28398013 -16.5097466 41.5015602
v -3.83227825 -19.2662392 45.0650024
v 3.45625854 -8.34411812 27.6346436
v 2.05186033 -10.3153439 31.1334858
v 1.09769917E-05 -12.2958107 34.5808716
v -2.80782223 -14.1159325 38.0218658
v -6.44177246 -15.5518417 41.5015602
v -7.51730156 -18.1484032 45.0649986
v 1.76198971 -8.85807323 27.6346359
v 9.45111151E-06 -10.517436 31.1334801
v -2.39878368 -12.0595503 34.5808678
v -5.50775576 -13.2969208 38.0218582
v -9.35201359 -13.9962902 41.5015717
v -10.9134398 -16.3331337 45.0649986
v 8.23040864E-06 -9.03161526 27.6346378
v -2.05184174 -10.3153486 31.1334877
v -4.70539474 -11.359848 34.5808716
v -7.99602747 -11.9669142 38.0218735
v -11.9028606 -11.9028711 41.5015526
v -13.8901815 -13.890193 45.064991
v -1.7619729 -8.8580761 27.6346397
v -4.02484226 -9.71684647 31.1334858
v -6.83118153 -10.2235975 34.5808678
v -10.1770153 -10.1770258 38.021862
v -13.9962816 -9.35202789 41.5015335
v -16.3331203 -10.9134541 45.0649796
v -3.45624328 -8.34412575 27.6346436
v -5.84316921 -8.74493313 31.1334801
v -8.69444847 -8.69445705 34.5808716
v -11.9669075 -7.99603987 38.0218582
v -15.551837 -6.44179058 41.5015411
v -18.1483974 -7.51732206 45.064991
v -5.01769161 -7.50951624 27.634634
v -7.43694735 -7.43695545 31.1334763
v -10.2235909 -6.83119106 34.5808563
v -13.296917 -5.50777006 38.0218582
v -16.5097523 -3.28399992 41.5015411
v -19.266243 -3.8323009 45.0649986
v -6.38631201 -6.38631964 27.6346283
v -8.7449255 -5.84317923 31.133461
v -11.3598433 -4.7054081 34.5808601
v -14.1159382 -2.80783987 38.0218544
v -16.8331947 -5.18798834E-06 41.5015335
v -19.6436901 -6.10351526E-06 45.0649796
v -7.50951052 -5.0177002 27.6346283
v -9.71684456 -4.02485323 31.1334743
v -12.0595541 -2.39879823 34.5808601
v -14.3924837 -4.57763645E-06 38.0218582
v -16.5097523 3.28398681 41.5015335
v -19.266243 3.83228636 45.064991
v -8.34412098 -3.45625401 27.6346378
v -10.3153505 -2.05185366 31.1334839
v -12.2958136 -3.96728501E-06 34.5808601
v -14.1159382 2.80782962 38.021843
v -15.5518465 6.4417758 41.5015526
v -18.1484051 7.51730824 45.0649986
v -8.85807705 -1.76198423 27.634634
v -10.5174398 -3.66210929E-06 31.1334743
v -12.0595541 2.39878964 34.5808601
v -13.2969236 5.50776291 38.021862
v -13.9962912 9.35201263 41.5015411
v -16.3331318 10.9134426 45.064991
v -9.03161621 -3.35693358E-06 27.6346283
v -10.3153505 2.05184746 31.1334801
v -11.3598518 4.70540333 34.5808716
v -11.9669151 7.99603033 38.0218658
v -11.9028673 11.9028635 41.5015526
v -13.8901873 13.8901815 45.064991
v -8.85807514 1.76197755 27.6346283
v -9.71684837 4.02484751 31.1334858
v -10.2235956 6.83118248 34.5808525
v -10.177021 10.1770172 38.0218735
v -9.35202026 13.9962854 41.5015526
v -10.9134502 16.333128 45.064991
v -8.34412575 3.45624924 27.6346436
v -8.74493027 5.84317017 31.1334667
v -8.69445133 8.69444466 34.5808716
v -7.9960351 11.9669065 38.0218582
v -6.441782 15.5518427 41.5015526
v -7.517313 18.1483974 45.0649986
v -7.50951385 5.01769161 27.6346283
v -7.43695164 7.43694925 31.1334705
v -6.83118773 10.2235889 34.580864
v -5.50776482 13.2969189 38.0218658
v -3.28399229 16.5097427 41.5015488
v -3.83229232 19.2662373 45.0650024
v 1.21136657E-06 16.8331928 41.5015564
v 1.211366E-06 19.6436844 45.0649986
v 1.21136634E-06 14.392478 38.0218735
v -2.80783224 14.1159334 38.0218773
v 1.21136577E-06 12.2958078 34.5808716
v -2.39879203 12.0595465 34.5808716
v 1.211366E-06 10.5174351 31.1334839
v -4.7054019 11.3598471 34.5808716
v -2.05184913 10.3153439 31.1334858
v 1.21136588E-06 9.03161335 27.6346378
v -4.02484846 9.7168417 31.1334858
v -1.76197934 8.85807228 27.6346378
v 1.21136588E-06 7.81260109 24.0392704
v -5.84317541 8.74492455 31.1334763
v -1.5241617 7.66248512 24.0392704
v 1.211366E-06 6.83465052 20.3022919
v -3.45624828 8.34412193 27.6346378
v -5.01769686 7.50950766 27.634634
v -1.33337343 6.70332623 20.30229
v 1.21136611E-06 6.07202244 16.3786488
v -2.98975182 7.21790123 24.0392647
v -6.3863163 6.38631201 27.6346283
v -1.18459105 5.95534897 16.3786507
v 1.51654183E-06 5.49896908 12.2232599
v -2.61550736 6.31439543 20.30229
v -4.34044933 6.49593973 24.039259
v -5.52434444 5.52434254 24.0392628
v -1.07279384 5.39330864 12.2232599
v 1.51654183E-06 5.08974886 7.79106283
v -2.32366133 5.60981941 16.378643
v -3.79712939 5.68280268 20.30229
v -6.49594116 4.340446 24.039257
v -0.992959559 4.9919486 7.79106188
v 2.73724481E-06 4.65982485 -2.08405757
v -2.10436273 5.08038425 12.223258
v -3.37343478 5.04870033 16.3786469
v -4.832829 4.83282757 20.30229
v -7.21790504 2.98975277 24.0392628
v -0.909084737 4.57028723 -2.08405876
v 3.95794723E-06 4.58763885 -7.61712646
v -1.94776118 4.70231485 7.79106188
v -3.05506372 4.57222652 12.223259
v -4.29356766 4.29356718 16.3786488
v -5.68280649 3.7971282 20.3022881
v -7.6624856 1.52416015 24.0392532
v -0.895000577 4.49948597 -7.61712646
v 4.56830048E-06 4.60008287 -20.0996208
v -1.78323579 4.30511808 -2.08405876
v -2.82771206 4.23197031 7.79106188
v -3.88835812 3.88835812 12.2232637
v -5.04870272 3.37343502 16.378643
v -6.31439638 2.61550665 20.3022881
v -7.812603 -2.74658191E-06 24.039257
v -6.70332623 1.33337402 20.3022842
v -5.60981846 2.32366085 16.3786449
v -4.57222605 3.05506277 12.223258
v -3.59899497 3.59899521 7.79106188
v -7.6624856 -1.52416587 24.039257
v -6.83465338 -3.05175763E-06 20.30229
v -5.95535088 1.18459105 16.3786449
v -5.08038616 2.10436273 12.2232618
v -7.21790075 -2.98975682 24.039257
v -6.70332623 -1.33337831 20.3022919
v -6.07202339 -2.4414062E-06 16.3786449
v -6.49593782 -4.34045267 24.0392532
v -6.31439304 -2.61551237 20.3022823
v -5.52434111 -5.52434683 24.0392628
v -4.23197126 2.82771182 7.79106236
v -5.39330816 1.0727948 12.223258
v -5.95535088 -1.18459439 16.3786488
v -5.68280363 -3.79713273 20.3022842
v -4.34044409 -6.49594212 24.039259
v -4.70231485 1.94776118 7.79106426
v -5.49896955 -2.13623048E-06 12.223258
v -5.60981607 -2.32366562 16.3786411
v -4.83282614 -4.83283186 20.30229
v -2.98974752 -7.21790409 24.0392666
v -4.99195004 0.992961407 7.79105949
v -5.39330816 -1.07279754 12.223259
v -5.04869986 -3.37343836 16.3786411
v -3.7971251 -5.68280745 20.3022919
v -1.52415621 -7.66248512 24.0392666
v -5.08974838 -2.74658191E-06 7.79106045
v -5.08038378 -2.10436749 12.223259
v -4.29356575 -4.29357147 16.3786488
v -2.61550355 -6.31439686 20.3022842
v 7.31488171E-06 -7.81260109 24.0392647
v -4.99194956 -0.99296385 7.79105997
v -4.57222414 -3.05506706 12.223258
v -3.37343073 -5.04870462 16.3786526
v -1.33336854 -6.7033267 20.3022842
v 1.52417111 -7.66248274 24.0392666
v -4.70231247 -1.94776511 7.79105997
v -3.88835621 -3.88836145 12.2232666
v -2.32365775 -5.60981941 16.3786469
v 6.70452982E-06 -6.83465242 20.3022938
v 2.98976159 -7.21789837 24.0392628
v -4.23196888 -2.82771659 7.7910614
v -3.05506015 -4.57222843 12.2232618
v -1.18458676 -5.95535135 16.3786507
v 1.3333832 -6.70332527 20.3022919
v 4.34045553 -6.49593496 24.0392647
v -3.59899282 -3.59899855 7.79106283
v -2.10435939 -5.08038759 12.223258
v 6.70452982E-06 -6.07202339 16.3786488
v 2.61551499 -6.31439209 20.3022881
v 5.52434969 -5.52433634 24.0392666
v -2.82770896 -4.23197365 7.79106283
v -1.07278931 -5.39330959 12.223259
v 1.18459892 -5.95534945 16.3786488
v 3.79713726 -5.68280125 20.3022938
v 6.49594307 -4.3404398 24.0392628
v -1.94775784 -4.70231676 7.79106236
v 6.70452982E-06 -5.49897003 12.2232628
v 2.32366943 -5.60981512 16.3786469
v 4.83283329 -4.83282328 20.3022957
v 7.21790552 -2.98974299 24.0392723
v -0.992956221 -4.99195194 7.7910614
v 1.07280207 -5.39330816 12.2232599
v 3.37344146 -5.04869843 16.3786488
v 5.68280983 -3.79712176 20.3022919
v 7.66248703 -1.52415133 24.0392723
v 5.48382695E-06 -5.08974981 7.79106379
v 2.10437179 -5.0803833 12.2232599
v 4.29357576 -4.29356337 16.3786526
v 6.31439924 -2.6154995 20.3022938
v 7.81260157 -6.10351549E-07 24.0392666
v 0.992968738 -4.99195051 7.79106379
v 3.05507016 -4.57222271 12.2232618
v 5.04870701 -3.37342858 16.3786469
v 6.70333004 -1.33336449 20.3022957
v 7.66248322 1.52416193 24.0392666
v 1.94776976 -4.70231295 7.79106283
v 3.8883667 -3.88835406 12.2232618
v 5.60982275 -2.32365489 16.3786526
v 6.83465195 -3.05175774E-07 20.3022919
v 7.21790218 2.98975205 24.0392666
v 2.82771802 -4.23196888 7.79106188
v 4.57223129 -3.055058 12.223259
v 5.95535517 -1.18458402 16.3786507
v 6.70332623 1.33337343 20.3022919
v 6.49594021 4.3404479 24.0392666
v 6.31439543 2.61550713 20.3022919
v 5.68280649 3.7971282 20.3022919
v 6.07202482 -6.10351549E-07 16.3786469
v 5.08039188 -2.10435772 12.2232599
v 5.9553504 1.18459225 16.3786469
v 5.60981798 2.32366276 16.3786488
v 5.04870367 3.37343431 16.3786488
v 5.39331388 -1.07278657 12.2232618
v 5.49897289 6.10351549E-07 12.2232618
v 5.39330959 1.07279539 12.2232599
v 5.08038759 2.10436511 12.2232599
v 4.70231581 1.94776177 7.79106188
v 4.99195099 0.992958963 7.79106236
v 5.08975124 -9.15527323E-07 7.79106236
v 4.99195576 -0.992953479 7.79106283
v 4.70232058 -1.94775665 7.79106188
v 4.30512142 1.78323793 -2.08405995
v 4.57029152 0.909086287 -2.08405876
v 4.49949169 0.895004272 -7.61712646
v 4.65982771 -9.15527323E-07 -2.08405876
v 4.57029343 -0.909081101 -2.08405876
v 4.6000886 -3.05175774E-07 -20.0996208
v 4.56065845 -0.907163084 -34.7710838
v 4.58764219 0 -7.61712646
v 4.51170111 -0.897424936 -20.0996227
v 4.29604864 -1.77947199 -34.7710762
v 4.49949503 -0.894996941 -7.61712885
v 4.24993086 -1.76036978 -20.0996208
v 3.86634207 -2.5833962 -34.7710762
v 4.30512571 -1.78323233 -2.08405876
v 4.23843145 -1.75560725 -7.61712646
v 3.82483673 -2.55566478 -20.0996208
v 3.28805542 -3.28804183 -34.7710762
v 3.81448936 -2.54875064 -7.61712646
v 3.25275898 -3.25274611 -20.0996189
v 2.58341002 -3.86633039 -34.7710762
v 3.87450981 -2.58885717 -2.08405876
v 2.55567741 -3.82482719 -20.0996208
v 1.77948904 -4.29603767 -34.7710724
v 3.24395847 -3.24394679 -7.61712646
v 4.23197651 -2.82770777 7.79106236
v 1.76038504 -4.24992132 -20.0996208
v 0.907180786 -4.56065035 -34.7710762
v 2.54876399 -3.81447959 -7.61712646
v 3.29500055 -3.29499173 -2.08405995
v 3.59900236 -3.59899187 7.79106426
v 2.58886766 -3.87450218 -2.08405757
v 0.897440195 -4.51169348 -20.0996208
v 1.06718153E-05 -4.64999962 -34.7710762
v 1.75562072 -4.23842382 -7.61712408
v 1.78324521 -4.30511761 -2.08405757
v 8.84076144E-06 -4.6000843 -20.0996208
v -0.907159984 -4.56065178 -34.7710762
v 0.895010948 -4.49948835 -7.61712885
v 0.909093022 -4.57028961 -2.08405757
v -0.897423685 -4.51169538 -20.0996189
v -1.77946901 -4.29604101 -34.7710762
v 7.3148808E-06 -4.58763885 -7.61712646
v 5.48382741E-06 -4.65982771 -2.08405876
v -1.76036954 -4.24992466 -20.0996208
v -2.58339262 -3.86633468 -34.77108
v -0.894996643 -4.49948931 -7.61712646
v -0.909081399 -4.57029057 -2.08405876
v -2.55566239 -3.82483149 -20.0996304
v -3.28803825 -3.28804874 -34.7710762
v -1.75560784 -4.23842716 -7.61712646
v -1.78323364 -4.30512094 -2.08405757
v -3.25274444 -3.2527523 -20.0996208
v -3.86632586 -2.58340454 -34.7710648
v -2.54875016 -3.81448412 -7.61712646
v -2.5888567 -3.87450695 -2.08405876
v -3.82482409 -2.55567169 -20.099617
v -4.29603243 -1.77948081 -34.7710648
v -3.2439456 -3.24395323 -7.61712646
v -3.29499197 -3.29499817 -2.08405757
v -4.24991798 -1.76037896 -20.0996208
v -4.5606451 -0.907172203 -34.7710762
v -3.81447768 -2.54875827 -7.61712646
v -3.87450194 -2.58886409 -2.08405876
v -4.51169014 -0.89743346 -20.0996304
v -4.6499939 -1.83105465E-06 -34.7710762
v -4.23842192 -1.75561488 -7.61712646
v -4.30511618 -1.78324091 -2.08405757
v -4.60007954 -1.83105465E-06 -20.0996208
v -4.56064558 0.907166719 -34.7710724
v -4.49948549 -0.895005763 -7.61712885
v -4.57028818 -0.909089625 -2.08405876
v -4.51169014 0.897427976 -20.0996265
v -4.29603434 1.77947688 -34.7710762
v -4.58763647 -2.13623048E-06 -7.61712646
v -4.65982533 -3.66210929E-06 -2.08405876
v -4.24991941 1.76037538 -20.0996284
v -3.86632776 2.58339906 -34.7710724
v -4.49948549 0.895001173 -7.61712885
v -4.57028818 0.909087479 -2.08405876
v -3.824826 2.55566955 -20.0996208
v -3.2880404 3.28804564 -34.7710762
v -4.23842287 1.75561154 -7.61712646
v -4.30511761 1.78323793 -2.08405876
v -3.25274587 3.25275016 -20.0996208
v -2.58339596 3.86633039 -34.7710762
v -3.81447959 2.54875422 -7.61712646
v -3.87450337 2.58886051 -2.08405876
v -2.55566525 3.82482719 -20.0996189
v -1.7794714 4.29603815 -34.7710762
v -3.24394727 3.24394894 -7.61712646
v -3.29499388 3.29499388 -2.08405757
v -1.76037109 4.24992228 -20.0996208
v -0.907163084 4.56064987 -34.7710762
v -2.54875302 3.81448174 -7.61712646
v -2.5888598 3.87450314 -2.08405876
v -1.75561059 4.23842621 -7.61712646
v -0.897426426 4.51169348 -20.0996265
v 6.09417839E-06 4.64999866 -34.7710724
vt 0.999999881 0.96875
vt 0.882352829 0.99999994
vt 0.999999881 0.99999994
vt 0.882352829 0.96875
vt 0.999999881 0.9375
vt 0.764705777 1
vt 0.882352829 0.9375
vt 0.999999881 0.90624994
vt 0.764705777 0.96875
vt 0.705882251 0.99999994
vt 0.882352829 0.90624994
vt 0.999999881 0.875
vt 0.764705777 0.9375
vt 0.705882251 0.96875
vt 0.588235199 0.99999994
vt 0.882352829 0.875
vt 0.999999881 0.84375
vt 0.764705777 0.90624994
vt 0.705882251 0.9375
vt 0.588235199 0.96875
vt 0.529411674 0.99999994
vt 0.882352829 0.84375
vt 0.999999881 0.8125
vt 0.764705777 0.875
vt 0.705882251 0.90624994
vt 0.588235199 0.9375
vt 0.529411674 0.96875
vt 0.470588088 0.99999994
vt 0.882352829 0.8125
vt 0.999999881 0.78125
vt 0.764705777 0.84375
vt 0.705882251 0.875
vt 0.588235199 0.90624994
vt 0.529411674 0.9375
vt 0.470588088 0.96875
vt 0.411764562 0.99999994
vt 0.882352829 0.78125
vt 0.999999881 0.75
vt 0.764705777 0.8125
vt 0.705882251 0.84375
vt 0.588235199 0.875
vt 0.529411674 0.90624994
vt 0.470588088 0.9375
vt 0.411764562 0.96875
vt 0.352941036 0.99999994
vt 0.352941036 0.96875
vt 0.29411751 0.999999881
vt 0.411764562 0.9375
vt 0.470588088 0.90624994
vt 0.529411674 0.875
vt 0.588235199 0.84375
vt 0.29411751 0.96874994
vt 0.235293984 0.999999881
vt 0.352941036 0.9375
vt 0.411764562 0.90624994
vt 0.470588088 0.875
vt 0.235293984 0.96874994
vt 0.176470459 0.999999881
vt 0.29411751 0.93749994
vt 0.352941036 0.90624994
vt 0.176470459 0.96874994
vt 0.117646933 0.999999881
vt 0.235293984 0.93749994
vt 0.117646933 0.96874994
vt 0.0588234067 0.999999881
vt 0.529411674 0.84375
vt 0.411764562 0.875
vt 0.29411751 0.906249881
vt 0.176470459 0.93749994
vt 0.0588234067 0.96874994
vt -5.96046448E-08 0.999999881
vt -5.96046448E-08 0.96874994
vt 0.117646933 0.93749994
vt 0.0588234067 0.93749994
vt -5.96046448E-08 0.93749994
vt 0.235293984 0.906249881
vt 0.352941036 0.875
vt 0.176470459 0.906249881
vt 0.117646933 0.906249881
vt 0.0588234067 0.906249881
vt -5.96046448E-08 0.906249881
vt 0.29411751 0.87499994
vt 0.235293984 0.87499994
vt 0.176470459 0.87499994
vt 0.117646933 0.87499994
vt 0.0588234067 0.87499994
vt -5.96046448E-08 0.87499994
vt 0.0588234067 0.84374994
vt -5.96046448E-08 0.84374994
vt 0.117646933 0.84374994
vt 0.176470459 0.84374994
vt 0.235293984 0.84374994
vt 0.29411751 0.84374994
vt 0.0588234067 0.81249994
vt -5.96046448E-08 0.81249994
vt 0.117646933 0.81249994
vt 0.176470459 0.81249994
vt 0.235293984 0.81249994
vt 0.0588234067 0.78124994
vt -5.96046448E-08 0.78124994
vt 0.117646933 0.78124994
vt 0.176470459 0.78124994
vt 0.0588234067 0.74999994
vt -5.96046448E-08 0.74999994
vt 0.117646933 0.74999994
vt 0.0588234067 0.718750119
vt -5.96046448E-08 0.718750119
vt 0.29411751 0.81249994
vt 0.235293984 0.78124994
vt 0.176470459 0.74999994
vt 0.117646933 0.718750119
vt 0.0588234067 0.687500179
vt -5.96046448E-08 0.687500179
vt 0.29411751 0.78124994
vt 0.235293984 0.74999994
vt 0.176470459 0.718750119
vt 0.117646933 0.687500179
vt 0.0588234663 0.656250179
vt -5.96046448E-08 0.656250179
vt 0.29411751 0.74999994
vt 0.235293984 0.718750119
vt 0.176470459 0.687500179
vt 0.117646992 0.656250179
vt 0.0588234663 0.625000119
vt -5.96046448E-08 0.625000119
vt 0.29411751 0.718750119
vt 0.235293984 0.687500179
vt 0.176470518 0.656250179
vt 0.117646992 0.625000119
vt 0.0588234663 0.593750119
vt -5.96046448E-08 0.593750119
vt 0.29411751 0.687500179
vt 0.235294044 0.656250179
vt 0.176470518 0.625000119
vt 0.117646992 0.593750119
vt 0.0588234663 0.562500119
vt -5.96046448E-08 0.562500119
vt 0.29411757 0.656250179
vt 0.235294044 0.625000119
vt 0.176470518 0.593750119
vt 0.117646992 0.562500119
vt 0.0588234663 0.531250119
vt -5.96046448E-08 0.531250119
vt 0.29411757 0.625000119
vt 0.235294044 0.593750119
vt 0.176470518 0.562500119
vt 0.117646992 0.531250119
vt 0.0588234663 0.500000119
vt -5.96046448E-08 0.500000119
vt 0.29411757 0.593750119
vt 0.235294044 0.562500119
vt 0.176470518 0.531250119
vt 0.117646992 0.500000119
vt 0.0588234663 0.468750119
vt -5.96046448E-08 0.468750119
vt 0.29411757 0.562500119
vt 0.235294044 0.531250119
vt 0.176470518 0.500000119
vt 0.117646992 0.468750119
vt 0.0588234663 0.437500089
vt -5.96046448E-08 0.437500089
vt 0.29411757 0.531250119
vt 0.235294044 0.500000119
vt 0.176470518 0.468750119
vt 0.117646992 0.437500089
vt 0.0588234663 0.406250089
vt -5.96046448E-08 0.406250089
vt 0.29411757 0.500000119
vt 0.235294044 0.468750119
vt 0.176470518 0.437500089
vt 0.117646992 0.406250089
vt 0.0588234663 0.375000089
vt -5.96046448E-08 0.375000089
vt 0.29411757 0.468750119
vt 0.235294044 0.437500089
vt 0.176470518 0.406250089
vt 0.117646992 0.375000089
vt 0.0588234663 0.34375006
vt -5.96046448E-08 0.34375006
vt 0.29411757 0.437500089
vt 0.235294044 0.406250089
vt 0.176470518 0.375000089
vt 0.117646992 0.34375006
vt 0.0588234663 0.31250006
vt -5.96046448E-08 0.31250006
vt 0.29411757 0.406250089
vt 0.235294044 0.375000089
vt 0.176470518 0.34375006
vt 0.117646992 0.31250006
vt 0.0588234663 0.28125003
vt -5.96046448E-08 0.28125003
vt 0.29411757 0.375000089
vt 0.235294044 0.34375006
vt 0.176470518 0.31250006
vt 0.117646992 0.28125003
vt 0.0588234663 0.25000003
vt -5.96046448E-08 0.25000003
vt 0.29411757 0.34375006
vt 0.235294044 0.31250006
vt 0.176470518 0.28125003
vt 0.117646992 0.25000003
vt 0.0588234663 0.21875
vt -5.96046448E-08 0.21875
vt 0.29411757 0.31250006
vt 0.235294044 0.28125003
vt 0.176470518 0.25000003
vt 0.117646992 0.21875
vt 0.0588234663 0.187500015
vt -5.96046448E-08 0.187500015
vt 0.29411757 0.28125003
vt 0.235294044 0.25000003
vt 0.176470518 0.218750015
vt 0.117646992 0.187500015
vt 0.0588234663 0.15624997
vt -5.96046448E-08 0.15624997
vt 0.29411757 0.25000003
vt 0.235294044 0.218750015
vt 0.176470518 0.18750003
vt 0.117646992 0.15624997
vt 0.0588234663 0.12499997
vt -5.96046448E-08 0.12499997
vt 0.29411757 0.218750015
vt 0.235294044 0.18750003
vt 0.176470518 0.156249985
vt 0.117646992 0.124999978
vt 0.0588234663 0.0937499925
vt -5.96046448E-08 0.0937499925
vt 0.29411757 0.18750003
vt 0.235294044 0.156249985
vt 0.176470518 0.124999978
vt 0.117646992 0.09375
vt 0.0588234663 0.0624999441
vt -5.96046448E-08 0.0624999404
vt 0.29411757 0.156249985
vt 0.235294044 0.124999985
vt 0.176470518 0.09375
vt 0.117646992 0.0624999478
vt 0.0588234663 0.0312499702
vt -5.96046448E-08 0.0312499683
vt 0.0588234663 -1.00744771E-07
vt -5.96046448E-08 -1.03316033E-07
vt 0.117646992 -9.81735155E-08
vt 0.117646992 0.0312499721
vt 0.176470518 -9.56022603E-08
vt 0.176470518 0.0312499758
vt 0.235294044 -9.30310051E-08
vt 0.176470518 0.0624999478
vt 0.235294044 0.0312499776
vt 0.29411757 -9.04597428E-08
vt 0.235294044 0.0624999516
vt 0.29411757 0.0312499795
vt 0.352941096 -8.78884876E-08
vt 0.235294044 0.0937500075
vt 0.352941096 0.0312499832
vt 0.411764622 -8.53172253E-08
vt 0.29411757 0.0624999553
vt 0.29411757 0.0937500075
vt 0.411764622 0.0312499851
vt 0.470588148 -8.27459701E-08
vt 0.352941096 0.0624999553
vt 0.29411757 0.124999985
vt 0.470588148 0.0312499888
vt 0.529411674 -8.01747078E-08
vt 0.411764622 0.062499959
vt 0.352941096 0.0937500075
vt 0.352941096 0.124999985
vt 0.529411674 0.0312499907
vt 0.588235259 -7.76034526E-08
vt 0.470588148 0.0624999627
vt 0.411764622 0.0937500149
vt 0.352941096 0.156249985
vt 0.588235259 0.0312499925
vt 0.705882311 -7.2460935E-08
vt 0.529411674 0.0624999627
vt 0.470588148 0.0937500149
vt 0.411764622 0.124999993
vt 0.352941096 0.18750003
vt 0.705882311 0.0312499981
vt 0.764705837 -1.02850315E-08
vt 0.588235259 0.0624999665
vt 0.529411674 0.0937500149
vt 0.470588148 0.124999993
vt 0.411764622 0.156249985
vt 0.352941096 0.218750015
vt 0.764705837 0.03125
vt 0.882352889 -6.47471623E-08
vt 0.705882311 0.0624999739
vt 0.588235259 0.0937500224
vt 0.529411674 0.124999993
vt 0.470588148 0.156249985
vt 0.411764622 0.18750003
vt 0.352941096 0.25000003
vt 0.411764622 0.218750015
vt 0.470588148 0.18750003
vt 0.529411674 0.15625
vt 0.588235259 0.125
vt 0.352941096 0.28125003
vt 0.411764622 0.25000003
vt 0.470588148 0.218750015
vt 0.529411674 0.187500045
vt 0.352941096 0.31250006
vt 0.411764622 0.28125003
vt 0.470588148 0.25000003
vt 0.352941096 0.34375006
vt 0.411764622 0.31250006
vt 0.352941096 0.375000089
vt 0.588235259 0.15625
vt 0.529411674 0.21875003
vt 0.470588148 0.28125003
vt 0.411764622 0.34375006
vt 0.352941096 0.406250089
vt 0.588235259 0.187500045
vt 0.529411674 0.25000003
vt 0.470588148 0.31250006
vt 0.411764622 0.375000089
vt 0.352941096 0.437500089
vt 0.588235259 0.21875003
vt 0.529411674 0.28125003
vt 0.470588148 0.34375006
vt 0.411764622 0.406250089
vt 0.352941096 0.468750119
vt 0.588235259 0.25000003
vt 0.529411674 0.31250006
vt 0.470588148 0.375000089
vt 0.411764622 0.437500089
vt 0.352941096 0.500000179
vt 0.588235259 0.28125003
vt 0.529411674 0.34375006
vt 0.470588148 0.406250089
vt 0.411764622 0.468750119
vt 0.352941096 0.531250179
vt 0.588235259 0.31250006
vt 0.529411674 0.375000089
vt 0.470588148 0.437500089
vt 0.411764622 0.500000179
vt 0.352941096 0.562500179
vt 0.588235199 0.34375006
vt 0.529411674 0.406250089
vt 0.470588148 0.468750119
vt 0.411764622 0.531250179
vt 0.352941096 0.593750179
vt 0.588235199 0.375000089
vt 0.529411674 0.437500089
vt 0.470588148 0.500000179
vt 0.411764622 0.562500179
vt 0.352941096 0.625000179
vt 0.588235199 0.406250089
vt 0.529411674 0.468750119
vt 0.470588148 0.531250179
vt 0.411764622 0.593750179
vt 0.352941096 0.656250238
vt 0.588235199 0.437500089
vt 0.529411674 0.500000179
vt 0.470588148 0.562500179
vt 0.411764622 0.625000179
vt 0.352941036 0.687500238
vt 0.588235199 0.468750119
vt 0.529411674 0.531250179
vt 0.470588148 0.593750179
vt 0.411764622 0.656250238
vt 0.352941036 0.718750179
vt 0.588235199 0.500000179
vt 0.529411674 0.562500179
vt 0.470588148 0.625000179
vt 0.411764562 0.687500238
vt 0.352941036 0.75
vt 0.588235199 0.531250179
vt 0.529411674 0.593750179
vt 0.470588148 0.656250238
vt 0.411764562 0.718750179
vt 0.352941036 0.78125
vt 0.588235199 0.562500179
vt 0.529411674 0.625000179
vt 0.470588088 0.687500238
vt 0.411764562 0.75
vt 0.352941036 0.8125
vt 0.588235199 0.593750179
vt 0.529411674 0.656250238
vt 0.470588088 0.718750179
vt 0.411764562 0.78125
vt 0.352941036 0.84375
vt 0.411764562 0.8125
vt 0.411764562 0.84375
vt 0.470588088 0.75
vt 0.529411674 0.687500238
vt 0.470588088 0.78125
vt 0.470588088 0.8125
vt 0.470588088 0.84375
vt 0.529411674 0.718750179
vt 0.529411674 0.75
vt 0.529411674 0.78125
vt 0.529411674 0.8125
vt 0.588235199 0.8125
vt 0.588235199 0.78125
vt 0.588235199 0.75
vt 0.588235199 0.718750179
vt 0.588235199 0.687500238
vt 0.705882251 0.8125
vt 0.705882251 0.78125
vt 0.764705777 0.78125
vt 0.705882251 0.75
vt 0.705882251 0.718750179
vt 0.882352829 0.75
vt 0.999999881 0.718750179
vt 0.764705777 0.75
vt 0.882352829 0.718750179
vt 0.999999881 0.687500238
vt 0.764705777 0.718750179
vt 0.882352829 0.687500238
vt 0.99999994 0.656250238
vt 0.705882251 0.687500238
vt 0.764705777 0.687500238
vt 0.882352829 0.656250238
vt 0.99999994 0.625000179
vt 0.764705777 0.656250238
vt 0.882352829 0.625000179
vt 0.99999994 0.593750179
vt 0.705882251 0.656250179
vt 0.882352889 0.593750179
vt 0.99999994 0.562500179
vt 0.764705777 0.625000179
vt 0.588235199 0.656250238
vt 0.882352889 0.562500179
vt 0.99999994 0.531250179
vt 0.764705777 0.593750179
vt 0.705882251 0.625000238
vt 0.588235199 0.625000179
vt 0.705882251 0.593750179
vt 0.882352889 0.531250179
vt 0.99999994 0.500000179
vt 0.764705777 0.562500179
vt 0.705882251 0.562500179
vt 0.882352889 0.500000179
vt 0.99999994 0.468750149
vt 0.764705777 0.531250179
vt 0.705882251 0.531250179
vt 0.882352889 0.468750149
vt 0.99999994 0.437500119
vt 0.764705837 0.500000179
vt 0.705882251 0.500000179
vt 0.882352889 0.437500119
vt 0.99999994 0.406250119
vt 0.764705837 0.468750149
vt 0.705882251 0.468750149
vt 0.882352889 0.406250119
vt 0.99999994 0.375000119
vt 0.764705837 0.437500119
vt 0.705882251 0.437500119
vt 0.882352889 0.375000119
vt 0.99999994 0.343750089
vt 0.764705837 0.406250119
vt 0.705882251 0.406250119
vt 0.882352889 0.343750089
vt 0.99999994 0.312500089
vt 0.764705837 0.375000119
vt 0.705882251 0.375000119
vt 0.882352889 0.312500089
vt 0.99999994 0.28125006
vt 0.764705837 0.343750089
vt 0.705882251 0.343750089
vt 0.882352889 0.28125006
vt 0.99999994 0.25000006
vt 0.764705837 0.312500089
vt 0.705882311 0.312500089
vt 0.882352889 0.25000006
vt 0.99999994 0.218750045
vt 0.764705837 0.28125006
vt 0.705882311 0.28125006
vt 0.882352889 0.218750045
vt 0.99999994 0.18750006
vt 0.764705837 0.25000006
vt 0.705882311 0.25000006
vt 0.882352889 0.18750006
vt 0.99999994 0.156250015
vt 0.764705837 0.21875003
vt 0.705882311 0.21875003
vt 0.882352889 0.156250015
vt 0.99999994 0.125000015
vt 0.764705837 0.187500045
vt 0.705882311 0.187500045
vt 0.882352889 0.125000015
vt 0.99999994 0.0937500373
vt 0.764705837 0.15625
vt 0.705882311 0.15625
vt 0.882352889 0.0937500298
vt 0.99999994 0.0624999851
vt 0.764705837 0.125
vt 0.705882311 0.125
vt 0.882352889 0.0624999814
vt 0.99999994 0.0312500112
vt 0.764705837 0.0937499925
vt 0.705882311 0.0937499851
vt 0.764705837 0.0624999739
vt 0.882352889 0.0312500075
vt 0.99999994 -5.96046448E-08
vn 0.195089325 0.980779588 0.00340220635
vn 1.76333984E-07 0.999997616 0.00219975365
vn 5.00549049E-07 0.999994278 0.00340219634
vn 0.19509013 0.980782807 0.0021997767
vn 0.382680416 0.923874557 0.00340221892
vn -2.66793307E-07 0.99998188 -0.00602697022
vn 0.382681876 0.923877597 0.00219982839
vn 0.55556649 0.831465065 0.00340220123
vn 0.195087388 0.980767369 -0.0060269814
vn -2.4048822E-07 0.999599516 -0.0283002537
vn 0.55556798 0.831468225 0.00219982839
vn 0.707102776 0.707102478 0.00340220472
vn 0.382675916 0.923862934 -0.00602697767
vn 0.195012614 0.980392396 -0.0283002332
vn 1.54707436E-07 0.997696221 -0.0678390265
vn 0.707104921 0.70710516 0.00219981163
vn 0.831465065 0.555566549 0.00340225128
vn 0.555559158 0.831455171 -0.00602688733
vn 0.382529736 0.923509717 -0.0283002555
vn 0.194641009 0.978525758 -0.0678390339
vn 4.54617748E-07 0.993427396 -0.114464059
vn 0.831468046 0.555568218 0.00219983584
vn 0.923874199 0.382681042 0.00340227364
vn 0.707093775 0.707094014 -0.00602679839
vn 0.555347204 0.831136882 -0.0283001922
vn 0.381801367 0.92175132 -0.0678390637
vn 0.193808049 0.974338949 -0.114464052
vn 6.54397638E-07 0.986452997 -0.164044321
vn 0.923877358 0.382682413 0.0021998689
vn 0.980779469 0.19508943 0.00340226665
vn 0.831454873 0.555559576 -0.00602687942
vn 0.706823409 0.706823707 -0.0283001009
vn 0.554290116 0.82955426 -0.0678390637
vn 0.380167663 0.9178074 -0.114464127
vn 0.192447528 0.967498541 -0.164044201
vn 7.30377394E-07 0.974925697 -0.222530633
vn 0.980782807 0.195090353 0.00219985656
vn 0.999994278 6.0065878E-07 0.00340226665
vn 0.923862755 0.382676482 -0.00602695718
vn 0.831136525 0.555347741 -0.0283001643
vn 0.705477595 0.705477953 -0.0678390488
vn 0.551918387 0.826004863 -0.114464104
vn 0.377498507 0.911364019 -0.164044157
vn 0.190198675 0.956192732 -0.222530663
vn 2.045564E-07 0.957652986 -0.287924886
vn 0.186828807 0.939252019 -0.287924916
vn -1.56953149E-07 0.934099555 -0.357012659
vn 0.373087406 0.900714219 -0.222530603
vn 0.54804343 0.820205927 -0.164044216
vn 0.702458978 0.702459455 -0.114464112
vn 0.829554141 0.554290354 -0.0678390339
vn 0.182233945 0.916151047 -0.35701251
vn -0 0.904788971 -0.425860316
vn 0.366477996 0.884756029 -0.287924916
vn 0.541639507 0.810621262 -0.22253038
vn 0.697527409 0.697527647 -0.164044201
vn 0.17651616 0.887403667 -0.425860077
vn 1.61650121E-07 0.871355593 -0.490652174
vn 0.357464403 0.862995505 -0.35701263
vn 0.532043636 0.796259344 -0.287924826
vn 0.16999349 0.854612589 -0.490652114
vn 3.99310437E-07 0.83615309 -0.548496127
vn 0.346247375 0.835916281 -0.425860047
vn 0.163125753 0.820086718 -0.548495948
vn 4.87195337E-07 0.801621675 -0.597831666
vn 0.826004863 0.551918507 -0.114464067
vn 0.689376533 0.689376712 -0.222530335
vn 0.518958032 0.776675284 -0.357012838
vn 0.333453089 0.805027664 -0.490652084
vn 0.156389102 0.786218643 -0.597831666
vn 3.24139478E-07 0.785177827 -0.619270504
vn 0.153181031 0.770090342 -0.61927098
vn 0.319981813 0.772504866 -0.548495948
vn 0.306767106 0.740601957 -0.597831607
vn 0.300474137 0.725409389 -0.61927104
vn 0.502673507 0.752304733 -0.425860256
vn 0.677162826 0.677163064 -0.287924647
vn 0.484098792 0.724506021 -0.490652084
vn 0.464541674 0.695236146 -0.548495948
vn 0.445357233 0.666524053 -0.597831547
vn 0.436221451 0.652851045 -0.619270682
vn 0.660508037 0.660508037 -0.357012808
vn 0.639782488 0.63978219 -0.425860465
vn 0.616141438 0.616141438 -0.490652055
vn 0.591249883 0.591249585 -0.548495591
vn 0.566832542 0.566831887 -0.597831488
vn 0.55520463 0.555203974 -0.619270802
vn 0.666524053 0.445357114 -0.597831547
vn 0.652850628 0.436221182 -0.619271517
vn 0.695236504 0.464541703 -0.548495352
vn 0.724505901 0.484098822 -0.490652114
vn 0.752304614 0.502673507 -0.425860316
vn 0.776675344 0.518957913 -0.357012719
vn 0.740601778 0.306767255 -0.597831845
vn 0.725408614 0.300474107 -0.619271874
vn 0.772505224 0.319981784 -0.548495471
vn 0.805027843 0.33345297 -0.490651995
vn 0.835916042 0.346247494 -0.425860226
vn 0.786218345 0.156389162 -0.597831964
vn 0.770089686 0.153180987 -0.619271636
vn 0.820086956 0.163125783 -0.548495591
vn 0.854612768 0.169993341 -0.490651846
vn 0.801621377 3.39848469E-07 -0.597831964
vn 0.785177112 1.13819951E-07 -0.619271159
vn 0.836153328 6.06096307E-07 -0.548495829
vn 0.786218822 -0.156388313 -0.597831666
vn 0.77009058 -0.153180465 -0.619270861
vn 0.862995505 0.357464284 -0.357012659
vn 0.887403667 0.176516026 -0.425860196
vn 0.871355772 7.86855708E-07 -0.490651786
vn 0.820087016 -0.16312474 -0.54849571
vn 0.740602493 -0.306766152 -0.597831607
vn 0.725409746 -0.300473154 -0.61927098
vn 0.916150987 0.182234257 -0.357012779
vn 0.904788971 7.3230791E-07 -0.425860226
vn 0.854613125 -0.169992119 -0.490651757
vn 0.772505581 -0.319980651 -0.548495591
vn 0.666524947 -0.445356101 -0.597831428
vn 0.65285182 -0.43622008 -0.619270921
vn 0.934099436 4.94640176E-07 -0.357012868
vn 0.887403846 -0.176514462 -0.425860405
vn 0.80502826 -0.333452046 -0.490651757
vn 0.695236862 -0.464540869 -0.548495591
vn 0.566833198 -0.56683135 -0.597831368
vn 0.555205524 -0.555203617 -0.619270444
vn 0.916151047 -0.182232991 -0.357013077
vn 0.83591634 -0.346246541 -0.425860435
vn 0.724506319 -0.484098375 -0.490651935
vn 0.5912503 -0.59124881 -0.548496008
vn 0.445357531 -0.666523993 -0.597831547
vn 0.4362216 -0.652850926 -0.619270921
vn 0.862995684 -0.357463181 -0.357013255
vn 0.75230515 -0.502672732 -0.425860316
vn 0.616142035 -0.616140902 -0.490651995
vn 0.464542598 -0.695235491 -0.548495829
vn 0.306768179 -0.740601838 -0.597831309
vn 0.300474524 -0.725408673 -0.619271576
vn 0.776676238 -0.518956363 -0.357013047
vn 0.639783263 -0.639781654 -0.425860077
vn 0.484100431 -0.724504948 -0.490652025
vn 0.319983393 -0.772504687 -0.548495412
vn 0.156389892 -0.786218882 -0.59783107
vn 0.153181612 -0.770089865 -0.619271398
vn 0.660509229 -0.660506845 -0.357013017
vn 0.50267458 -0.752304018 -0.425860196
vn 0.3334544 -0.805026948 -0.490652293
vn 0.163126484 -0.820086896 -0.548495471
vn 3.77873448E-07 -0.801622033 -0.597831309
vn 5.41882343E-07 -0.78517729 -0.6192711
vn 0.51895833 -0.776674986 -0.357012749
vn 0.346248567 -0.835915625 -0.425860316
vn 0.169993952 -0.85461235 -0.490652531
vn 3.77918838E-07 -0.836153507 -0.548495531
vn -0.15638797 -0.786219239 -0.59783119
vn -0.153179914 -0.770090282 -0.619271219
vn 0.357465386 -0.862994969 -0.357012838
vn 0.176516846 -0.887403369 -0.425860345
vn 8.48663149E-07 -0.871355474 -0.490652263
vn -0.163124472 -0.820087373 -0.548495412
vn -0.306767195 -0.740602136 -0.597831249
vn -0.30047363 -0.725408733 -0.619271874
vn 0.182235181 -0.916150749 -0.357012838
vn 8.20280093E-07 -0.904788852 -0.425860286
vn -0.169992357 -0.854612768 -0.490652353
vn -0.319981873 -0.772505462 -0.548495173
vn -0.445355803 -0.666524947 -0.597831607
vn -0.436219007 -0.652851403 -0.619272172
vn 4.77993751E-07 -0.934099436 -0.357012928
vn -0.176515371 -0.887403548 -0.425860614
vn -0.333452433 -0.805027723 -0.490652531
vn -0.464541256 -0.695236981 -0.548495173
vn -0.56682992 -0.566833973 -0.597831964
vn -0.555201828 -0.555205822 -0.619271696
vn -0.182233602 -0.916151047 -0.357012898
vn -0.346246451 -0.83591634 -0.425860494
vn -0.484098256 -0.724506259 -0.490652233
vn -0.591247916 -0.591251433 -0.54849577
vn -0.666523635 -0.445357591 -0.597831786
vn -0.652850986 -0.43622154 -0.619270742
vn -0.357463062 -0.862995863 -0.357012928
vn -0.502672255 -0.752305448 -0.425860465
vn -0.616140127 -0.61614269 -0.490652025
vn -0.695235312 -0.464542449 -0.548496246
vn -0.740601897 -0.306767911 -0.597831309
vn -0.725409865 -0.300474495 -0.619270205
vn -0.518956184 -0.776676416 -0.357012898
vn -0.639781058 -0.639783621 -0.425860465
vn -0.724505246 -0.484099984 -0.490652025
vn -0.772504389 -0.319982916 -0.548496127
vn -0.786218762 -0.156390071 -0.597831249
vn -0.770090818 -0.153182298 -0.619270027
vn -0.660507083 -0.66050905 -0.357013047
vn -0.752304137 -0.502674103 -0.425860643
vn -0.805027246 -0.333453774 -0.490652293
vn -0.8200863 -0.163126424 -0.548496306
vn -0.801621854 -7.39110988E-07 -0.597831428
vn -0.785178125 -7.52200378E-07 -0.619270086
vn -0.776675224 -0.518957853 -0.357013226
vn -0.835915685 -0.346247494 -0.425860912
vn -0.854612172 -0.169993982 -0.490652829
vn -0.836152911 -7.08300774E-07 -0.548496366
vn -0.786218882 0.156389862 -0.59783113
vn -0.770090818 0.153182268 -0.619269967
vn -0.862995267 -0.357464612 -0.357013166
vn -0.887403071 -0.176516682 -0.42586115
vn -0.871355176 -4.35028937E-07 -0.49065277
vn -0.82008642 0.163125947 -0.548496425
vn -0.740601838 0.306768358 -0.59783113
vn -0.725409627 0.300475031 -0.619270265
vn -0.916150689 -0.182235107 -0.357012957
vn -0.904788554 -2.47272851E-07 -0.425860971
vn -0.854611993 0.169993639 -0.490653098
vn -0.77250433 0.319983304 -0.548495948
vn -0.666523993 0.445357084 -0.597831845
vn -0.652851462 0.436220646 -0.619270921
vn -0.934099436 -2.68722772E-07 -0.357012868
vn -0.887403071 0.176516578 -0.425861001
vn -0.805027068 0.333453506 -0.490652919
vn -0.695235431 0.464542657 -0.548495948
vn -0.566831648 0.566832125 -0.597832084
vn -0.555203855 0.555204153 -0.619271398
vn -0.916150987 0.182234615 -0.357012719
vn -0.835915804 0.346247166 -0.425861061
vn -0.724505305 0.484099954 -0.490651935
vn -0.591249287 0.591249883 -0.548496068
vn -0.445356995 0.666524053 -0.597831786
vn -0.436220497 0.652851164 -0.619271338
vn -0.862995327 0.357464492 -0.357013017
vn -0.752304554 0.502673388 -0.425860673
vn -0.616140962 0.616142154 -0.490651697
vn -0.464542359 0.69523555 -0.548496008
vn -0.306766838 0.740602195 -0.597831428
vn -0.300473839 0.725409925 -0.619270444
vn -0.776675522 0.518957376 -0.357013077
vn -0.639781594 0.639783204 -0.425860345
vn -0.484099388 0.724505424 -0.490652233
vn -0.319981217 0.772504985 -0.548496187
vn -0.156388208 0.78621906 -0.597831488
vn -0.153180391 0.770091176 -0.619270027
vn 4.87195337E-07 0.801621675 -0.597831666
vn 3.24139478E-07 0.785177827 -0.619270504
vn 3.99310437E-07 0.83615309 -0.548496127
vn -0.163124621 0.820086658 -0.548496366
vn 1.61650121E-07 0.871355593 -0.490652174
vn -0.169992626 0.854612708 -0.490652323
vn -0 0.904788971 -0.425860316
vn -0.333452195 0.805027723 -0.49065268
vn -0.176515669 0.887403548 -0.425860375
vn -1.56953149E-07 0.934099555 -0.357012659
vn -0.346246988 0.835916042 -0.425860643
vn -0.182233915 0.916151047 -0.35701257
vn 2.045564E-07 0.957652986 -0.287924886
vn -0.50267309 0.752304912 -0.425860494
vn -0.186828569 0.939252079 -0.287924588
vn 7.30377394E-07 0.974925697 -0.222530633
vn -0.357464015 0.862995565 -0.35701257
vn -0.518957138 0.77667588 -0.357012749
vn -0.190197855 0.95619297 -0.222530544
vn 6.54397638E-07 0.986452997 -0.164044321
vn -0.366477847 0.884756207 -0.287924588
vn -0.660507619 0.660508454 -0.357013077
vn -0.192446634 0.96749866 -0.16404447
vn 4.54617748E-07 0.993427396 -0.114464059
vn -0.373088032 0.900713801 -0.222530514
vn -0.532043219 0.796259642 -0.287924677
vn -0.677162766 0.677163064 -0.287924886
vn -0.193807811 0.974339068 -0.114464179
vn 1.54707436E-07 0.997696221 -0.0678390265
vn -0.377499044 0.91136378 -0.164044365
vn -0.541640103 0.810620904 -0.222530723
vn -0.796259344 0.532043695 -0.287924737
vn -0.194640696 0.978525758 -0.0678390041
vn -2.4048822E-07 0.999599516 -0.0283002537
vn -0.380167782 0.9178074 -0.114464201
vn -0.548044443 0.820205212 -0.164044291
vn -0.689376116 0.68937695 -0.222530782
vn -0.88475585 0.366478443 -0.287924796
vn -0.195011675 0.980392516 -0.0283002779
vn -2.66793307E-07 0.99998188 -0.00602697022
vn -0.381801337 0.92175144 -0.067839019
vn -0.551919043 0.826004565 -0.114464149
vn -0.697527111 0.697528005 -0.16404444
vn -0.810620785 0.541640162 -0.222530663
vn -0.939252019 0.186829016 -0.287924796
vn -0.195086375 0.980767548 -0.00602702331
vn 1.76333984E-07 0.999997616 0.00219975365
vn -0.382529408 0.923509777 -0.0283002909
vn -0.554290473 0.829554021 -0.0678390339
vn -0.702459097 0.702459335 -0.114464216
vn -0.820205331 0.548044443 -0.16404447
vn -0.900713801 0.373088002 -0.222530782
vn -0.957652986 -4.1862711E-07 -0.287925124
vn -0.956192851 0.190198407 -0.222530857
vn -0.91136378 0.377498984 -0.164044544
vn -0.826004446 0.551918924 -0.114464208
vn -0.705477715 0.705477893 -0.0678390115
vn -0.939251661 -0.18682985 -0.287924945
vn -0.974925637 -5.44809268E-07 -0.222530961
vn -0.967498541 0.19244723 -0.164044499
vn -0.917807281 0.380168051 -0.11446435
vn -0.884755909 -0.366478413 -0.287924618
vn -0.956192613 -0.190199092 -0.222531006
vn -0.986452997 -3.90259032E-07 -0.164044484
vn -0.796259165 -0.532043815 -0.287924647
vn -0.900713801 -0.373088211 -0.222530648
vn -0.677161932 -0.677163899 -0.287925094
vn -0.829554021 0.554290533 -0.0678389892
vn -0.974338949 0.193808064 -0.114464231
vn -0.967498422 -0.192447841 -0.164044574
vn -0.810620546 -0.54164046 -0.222530738
vn -0.532042325 -0.796260178 -0.287924826
vn -0.921751201 0.381801903 -0.0678390414
vn -0.993427396 -2.38019766E-07 -0.114464231
vn -0.911363602 -0.377499461 -0.16404447
vn -0.689375341 -0.689377725 -0.222530782
vn -0.366477013 -0.884756505 -0.287924618
vn -0.978525758 0.19464086 -0.0678389445
vn -0.97433883 -0.19380869 -0.114464246
vn -0.820205092 -0.548044741 -0.164044499
vn -0.54163903 -0.81062156 -0.222530752
vn -0.186828315 -0.939252198 -0.287924588
vn -0.997696221 -3.09414872E-07 -0.0678390265
vn -0.917807102 -0.380168617 -0.114464268
vn -0.697526634 -0.697528601 -0.164044529
vn -0.373087466 -0.900714099 -0.222530439
vn 7.13568966E-07 -0.957653046 -0.287924767
vn -0.978525698 -0.19464168 -0.0678389966
vn -0.826004207 -0.551919281 -0.114464179
vn -0.548043311 -0.820205927 -0.16404447
vn -0.190197662 -0.95619303 -0.222530439
vn 0.186829954 -0.939251781 -0.287924826
vn -0.921751022 -0.38180232 -0.0678389892
vn -0.702458382 -0.702460051 -0.114464238
vn -0.377498686 -0.9113639 -0.164044395
vn 9.65906338E-07 -0.974925697 -0.222530618
vn 0.366479099 -0.884755611 -0.287924558
vn -0.829553843 -0.554290712 -0.0678389743
vn -0.551918149 -0.826005042 -0.114464097
vn -0.19244647 -0.967498779 -0.164044514
vn 0.190199509 -0.956192613 -0.222530544
vn 0.53204453 -0.796258748 -0.287924826
vn -0.705477118 -0.70547843 -0.0678389445
vn -0.380167574 -0.91780746 -0.114464022
vn 8.89980868E-07 -0.986452997 -0.164044395
vn 0.373089015 -0.900713503 -0.222530425
vn 0.677164078 -0.677161694 -0.287925065
vn -0.554289699 -0.829554498 -0.0678389147
vn -0.19380717 -0.974339128 -0.114464015
vn 0.192448333 -0.967498302 -0.164044365
vn 0.541641176 -0.81062007 -0.222530529
vn 0.796260238 -0.532042205 -0.287924647
vn -0.381801128 -0.92175144 -0.0678389296
vn 8.25928566E-07 -0.993427396 -0.114464089
vn 0.377500266 -0.911363304 -0.164044335
vn 0.689377546 -0.689375579 -0.222530439
vn 0.884756505 -0.366477072 -0.287924796
vn -0.19464013 -0.978525996 -0.0678388923
vn 0.193809062 -0.97433871 -0.114464007
vn 0.54804498 -0.820204914 -0.164044231
vn 0.810621738 -0.54163897 -0.222530276
vn 0.939252079 -0.186828315 -0.287924796
vn 6.99753571E-07 -0.997696221 -0.0678389147
vn 0.380169392 -0.917806685 -0.114464
vn 0.697528601 -0.697526634 -0.164044172
vn 0.900714278 -0.373087078 -0.222530127
vn 0.957653046 4.32898446E-07 -0.287924767
vn 0.194641933 -0.978525698 -0.0678389147
vn 0.55191952 -0.826004148 -0.114464059
vn 0.820206165 -0.548043132 -0.164043993
vn 0.95619303 -0.190197811 -0.222530261
vn 0.939252019 0.18682906 -0.287924737
vn 0.381803185 -0.921750605 -0.0678388923
vn 0.70246017 -0.702458322 -0.114464082
vn 0.911364019 -0.377498597 -0.164044112
vn 0.974925697 7.51789116E-07 -0.222530231
vn 0.884756207 0.366477787 -0.287924677
vn 0.554291308 -0.829553545 -0.0678388849
vn 0.82600528 -0.551917851 -0.11446394
vn 0.967498779 -0.192446455 -0.164044067
vn 0.956192851 0.190198734 -0.222530365
vn 0.796259344 0.532043636 -0.287924737
vn 0.900714099 0.373087704 -0.22253038
vn 0.810621202 0.541639626 -0.222530335
vn 0.986452997 1.23026746E-06 -0.164044037
vn 0.9178074 -0.380167723 -0.114463963
vn 0.967498541 0.192447826 -0.164044112
vn 0.91136378 0.377498925 -0.164044142
vn 0.820205808 0.548043728 -0.164044157
vn 0.974339247 -0.193806812 -0.114464045
vn 0.993427396 1.64947699E-06 -0.114464127
vn 0.97433883 0.193808526 -0.114464082
vn 0.9178074 0.380167723 -0.114464059
vn 0.92175144 0.381801277 -0.0678389668
vn 0.978525758 0.194641009 -0.0678390115
vn 0.997696221 1.57087516E-06 -0.0678390115
vn 0.978526115 -0.194639027 -0.0678389966
vn 0.92175144 -0.381801218 -0.0678388849
vn 0.923509479 0.382529944 -0.0283001848
vn 0.980392516 0.195012122 -0.0283001382
vn 0.980767369 0.195087165 -0.00602690736
vn 0.999599516 1.16434376E-06 -0.0283001065
vn 0.980392873 -0.195010155 -0.0283001773
vn 0.999997616 1.02702609E-06 0.0021998391
vn 0.980779827 -0.195087925 0.00340228132
vn 0.99998188 1.04811647E-06 -0.00602682959
vn 0.980783165 -0.19508867 0.00219984469
vn 0.923874617 -0.382680148 0.00340231205
vn 0.980767787 -0.195085257 -0.00602688268
vn 0.923877597 -0.382681876 0.00219984795
vn 0.831465185 -0.55556649 0.00340230367
vn 0.923509896 -0.382529199 -0.0283002388
vn 0.923863113 -0.382675648 -0.00602701493
vn 0.831468105 -0.555568039 0.00219982746
vn 0.707103491 -0.707101882 0.0034022599
vn 0.831455052 -0.555559337 -0.0060269949
vn 0.707105994 -0.707104087 0.00219978928
vn 0.555568337 -0.831463873 0.00340224826
vn 0.831136882 -0.555347264 -0.0283002015
vn 0.555569887 -0.831466913 0.00219979277
vn 0.382682502 -0.923873603 0.00340225687
vn 0.707094848 -0.707092941 -0.00602696417
vn 0.829554439 -0.554289818 -0.0678388774
vn 0.382683605 -0.923876882 0.00219980651
vn 0.195090011 -0.980779409 0.00340223871
vn 0.555561006 -0.831453979 -0.00602700375
vn 0.706824362 -0.706822693 -0.0283001363
vn 0.705478609 -0.70547694 -0.0678389668
vn 0.555348635 -0.831135988 -0.028300222
vn 0.19509086 -0.980782688 0.00219979067
vn 8.96224094E-07 -0.999994278 0.00340220681
vn 0.382677376 -0.923862398 -0.00602707686
vn 0.382531196 -0.923509061 -0.0283002853
vn 8.45926422E-07 -0.999997616 0.00219976623
vn -0.195088312 -0.980779707 0.00340218563
vn 0.19508782 -0.98076725 -0.00602706289
vn 0.195013136 -0.980392277 -0.0283003207
vn -0.195089012 -0.980783045 0.00219974574
vn -0.382680833 -0.923874319 0.0034021656
vn 7.45591933E-07 -0.99998188 -0.00602710946
vn 6.33364948E-07 -0.999599516 -0.0283003226
vn -0.382681966 -0.923877597 0.00219971989
vn -0.55556649 -0.831465065 0.0034021514
vn -0.195085913 -0.980767667 -0.00602713879
vn -0.195011377 -0.980392635 -0.0283003505
vn -0.555568457 -0.831467867 0.00219970359
vn -0.707101583 -0.707103729 0.00340215326
vn -0.382675648 -0.923863113 -0.00602717279
vn -0.382529289 -0.923509777 -0.0283003822
vn -0.707104385 -0.707105696 0.00219968497
vn -0.831464171 -0.555567861 0.0034021493
vn -0.555559516 -0.831454873 -0.0060272119
vn -0.555347025 -0.831137061 -0.0283003747
vn -0.831467211 -0.555569351 0.00219968706
vn -0.92387414 -0.382681459 0.0034021365
vn -0.707093418 -0.707094371 -0.00602725241
vn -0.706822991 -0.706824124 -0.0283004325
vn -0.92387706 -0.382683069 0.00219968171
vn -0.980779588 -0.195089251 0.0034021223
vn -0.831454277 -0.55556041 -0.00602726545
vn -0.831136465 -0.555347919 -0.0283004399
vn -0.980782807 -0.195090309 0.00219967193
vn -0.999994278 -2.47892189E-07 0.00340211554
vn -0.923862517 -0.382676959 -0.00602726452
vn -0.9235093 -0.38253063 -0.0283004697
vn -0.999997616 0 0.00219965051
vn -0.980779707 0.195088625 0.0034021209
vn -0.980767369 -0.195087388 -0.00602723844
vn -0.980392277 -0.195012867 -0.0283004399
vn -0.980783045 0.19508943 0.00219966937
vn -0.923874319 0.382680804 0.003402106
vn -0.99998188 -1.19104136E-07 -0.00602726266
vn -0.999599516 -3.19063588E-07 -0.0283004511
vn -0.923877478 0.382681996 0.0021996845
vn -0.831464767 0.555567145 0.00340208481
vn -0.980767429 0.195086494 -0.00602727057
vn -0.980392516 0.195012078 -0.0283004884
vn -0.83146745 0.555568993 0.0021996873
vn -0.707102001 0.707103372 0.0034021188
vn -0.923862934 0.382676095 -0.00602729153
vn -0.923509479 0.382530123 -0.0283004921
vn -0.707104564 0.707105517 0.00219969265
vn -0.555566907 0.831464946 0.00340215513
vn -0.831454396 0.55556041 -0.00602723984
vn -0.831136405 0.555347979 -0.0283004567
vn -0.555568993 0.83146745 0.00219965959
vn -0.382681698 0.923873901 0.00340215955
vn -0.707093775 0.707094073 -0.00602720585
vn -0.706823409 0.706823707 -0.0283004269
vn -0.382682621 0.923877299 0.00219967938
vn -0.19508943 0.980779469 0.00340217887
vn -0.555560648 0.831454217 -0.00602715416
vn -0.555348098 0.831136286 -0.0283003133
vn -0.382675827 0.923863053 -0.00602709549
vn -0.195089772 0.980782926 0.00219974993
vn 5.00549049E-07 0.999994278 0.00340219634
g Cylinder003_0
f 3/3/3 2/2/2 1/1/1
f 2/2/2 4/4/4 1/1/1
f 1/1/1 4/4/4 5/5/5
f 2/2/2 6/6/6 4/4/4
f 4/4/4 7/7/7 5/5/5
f 5/5/5 7/7/7 8/8/8
f 6/6/6 9/9/9 4/4/4
f 4/4/4 9/9/9 7/7/7
f 6/6/6 10/10/10 9/9/9
f 7/7/7 11/11/11 8/8/8
f 8/8/8 11/11/11 12/12/12
f 9/9/9 13/13/13 7/7/7
f 7/7/7 13/13/13 11/11/11
f 10/10/10 14/14/14 9/9/9
f 9/9/9 14/14/14 13/13/13
f 10/10/10 15/15/15 14/14/14
f 11/11/11 16/16/16 12/12/12
f 12/12/12 16/16/16 17/17/17
f 13/13/13 18/18/18 11/11/11
f 11/11/11 18/18/18 16/16/16
f 14/14/14 19/19/19 13/13/13
f 13/13/13 19/19/19 18/18/18
f 15/15/15 20/20/20 14/14/14
f 14/14/14 20/20/20 19/19/19
f 15/15/15 21/21/21 20/20/20
f 16/16/16 22/22/22 17/17/17
f 17/17/17 22/22/22 23/23/23
f 18/18/18 24/24/24 16/16/16
f 16/16/16 24/24/24 22/22/22
f 19/19/19 25/25/25 18/18/18
f 18/18/18 25/25/25 24/24/24
f 20/20/20 26/26/26 19/19/19
f 19/19/19 26/26/26 25/25/25
f 21/21/21 27/27/27 20/20/20
f 20/20/20 27/27/27 26/26/26
f 21/21/21 28/28/28 27/27/27
f 22/22/22 29/29/29 23/23/23
f 23/23/23 29/29/29 30/30/30
f 24/24/24 31/31/31 22/22/22
f 22/22/22 31/31/31 29/29/29
f 25/25/25 32/32/32 24/24/24
f 24/24/24 32/32/32 31/31/31
f 26/26/26 33/33/33 25/25/25
f 25/25/25 33/33/33 32/32/32
f 27/27/27 34/34/34 26/26/26
f 26/26/26 34/34/34 33/33/33
f 28/28/28 35/35/35 27/27/27
f 27/27/27 35/35/35 34/34/34
f 28/28/28 36/36/36 35/35/35
f 29/29/29 37/37/37 30/30/30
f 30/30/30 37/37/37 38/38/38
f 31/31/31 39/39/39 29/29/29
f 29/29/29 39/39/39 37/37/37
f 32/32/32 40/40/40 31/31/31
f 31/31/31 40/40/40 39/39/39
f 33/33/33 41/41/41 32/32/32
f 32/32/32 41/41/41 40/40/40
f 34/34/34 42/42/42 33/33/33
f 33/33/33 42/42/42 41/41/41
f 35/35/35 43/43/43 34/34/34
f 34/34/34 43/43/43 42/42/42
f 36/36/36 44/44/44 35/35/35
f 35/35/35 44/44/44 43/43/43
f 36/36/36 45/45/45 44/44/44
f 45/45/45 46/46/46 44/44/44
f 45/45/45 47/47/47 46/46/46
f 44/44/44 48/48/48 43/43/43
f 44/44/44 46/46/46 48/48/48
f 43/43/43 49/49/49 42/42/42
f 43/43/43 48/48/48 49/49/49
f 42/42/42 50/50/50 41/41/41
f 42/42/42 49/49/49 50/50/50
f 41/41/41 51/51/51 40/40/40
f 41/41/41 50/50/50 51/51/51
f 47/47/47 52/52/52 46/46/46
f 47/47/47 53/53/53 52/52/52
f 46/46/46 54/54/54 48/48/48
f 46/46/46 52/52/52 54/54/54
f 48/48/48 55/55/55 49/49/49
f 48/48/48 54/54/54 55/55/55
f 49/49/49 56/56/56 50/50/50
f 49/49/49 55/55/55 56/56/56
f 53/53/53 57/57/57 52/52/52
f 53/53/53 58/58/58 57/57/57
f 52/52/52 59/59/59 54/54/54
f 52/52/52 57/57/57 59/59/59
f 54/54/54 60/60/60 55/55/55
f 54/54/54 59/59/59 60/60/60
f 58/58/58 61/61/61 57/57/57
f 58/58/58 62/62/62 61/61/61
f 57/57/57 63/63/63 59/59/59
f 57/57/57 61/61/61 63/63/63
f 62/62/62 64/64/64 61/61/61
f 62/62/62 65/65/65 64/64/64
f 50/50/50 56/56/56 66/66/66
f 50/50/50 66/66/66 51/51/51
f 55/55/55 67/67/67 56/56/56
f 55/55/55 60/60/60 67/67/67
f 59/59/59 68/68/68 60/60/60
f 59/59/59 63/63/63 68/68/68
f 61/61/61 69/69/69 63/63/63
f 61/61/61 64/64/64 69/69/69
f 65/65/65 70/70/70 64/64/64
f 65/65/65 71/71/71 70/70/70
f 71/71/71 72/72/72 70/70/70
f 64/64/64 70/70/70 73/73/73
f 64/64/64 73/73/73 69/69/69
f 70/70/70 72/72/72 74/74/74
f 70/70/70 74/74/74 73/73/73
f 72/72/72 75/75/75 74/74/74
f 63/63/63 69/69/69 76/76/76
f 63/63/63 76/76/76 68/68/68
f 60/60/60 68/68/68 77/77/77
f 60/60/60 77/77/77 67/67/67
f 69/69/69 73/73/73 78/78/78
f 69/69/69 78/78/78 76/76/76
f 73/73/73 74/74/74 79/79/79
f 73/73/73 79/79/79 78/78/78
f 74/74/74 75/75/75 80/80/80
f 74/74/74 80/80/80 79/79/79
f 75/75/75 81/81/81 80/80/80
f 68/68/68 76/76/76 82/82/82
f 68/68/68 82/82/82 77/77/77
f 76/76/76 78/78/78 83/83/83
f 76/76/76 83/83/83 82/82/82
f 78/78/78 79/79/79 84/84/84
f 78/78/78 84/84/84 83/83/83
f 79/79/79 80/80/80 85/85/85
f 79/79/79 85/85/85 84/84/84
f 80/80/80 81/81/81 86/86/86
f 80/80/80 86/86/86 85/85/85
f 81/81/81 87/87/87 86/86/86
f 86/86/86 87/87/87 88/88/88
f 87/87/87 89/89/89 88/88/88
f 85/85/85 86/86/86 90/90/90
f 86/86/86 88/88/88 90/90/90
f 84/84/84 85/85/85 91/91/91
f 85/85/85 90/90/90 91/91/91
f 83/83/83 84/84/84 92/92/92
f 84/84/84 91/91/91 92/92/92
f 82/82/82 83/83/83 93/93/93
f 83/83/83 92/92/92 93/93/93
f 88/88/88 89/89/89 94/94/94
f 89/89/89 95/95/95 94/94/94
f 90/90/90 88/88/88 96/96/96
f 88/88/88 94/94/94 96/96/96
f 91/91/91 90/90/90 97/97/97
f 90/90/90 96/96/96 97/97/97
f 92/92/92 91/91/91 98/98/98
f 91/91/91 97/97/97 98/98/98
f 94/94/94 95/95/95 99/99/99
f 95/95/95 100/100/100 99/99/99
f 96/96/96 94/94/94 101/101/101
f 94/94/94 99/99/99 101/101/101
f 97/97/97 96/96/96 102/102/102
f 96/96/96 101/101/101 102/102/102
f 99/99/99 100/100/100 103/103/103
f 100/100/100 104/104/104 103/103/103
f 101/101/101 99/99/99 105/105/105
f 99/99/99 103/103/103 105/105/105
f 103/103/103 104/104/104 106/106/106
f 104/104/104 107/107/107 106/106/106
f 92/92/92 98/98/98 108/108/108
f 93/93/93 92/92/92 108/108/108
f 98/98/98 97/97/97 109/109/109
f 97/97/97 102/102/102 109/109/109
f 102/102/102 101/101/101 110/110/110
f 101/101/101 105/105/105 110/110/110
f 105/105/105 103/103/103 111/111/111
f 103/103/103 106/106/106 111/111/111
f 106/106/106 107/107/107 112/112/112
f 107/107/107 113/113/113 112/112/112
f 108/108/108 98/98/98 114/114/114
f 98/98/98 109/109/109 114/114/114
f 109/109/109 102/102/102 115/115/115
f 102/102/102 110/110/110 115/115/115
f 110/110/110 105/105/105 116/116/116
f 105/105/105 111/111/111 116/116/116
f 111/111/111 106/106/106 117/117/117
f 106/106/106 112/112/112 117/117/117
f 112/112/112 113/113/113 118/118/118
f 113/113/113 119/119/119 118/118/118
f 114/114/114 109/109/109 120/120/120
f 109/109/109 115/115/115 120/120/120
f 115/115/115 110/110/110 121/121/121
f 110/110/110 116/116/116 121/121/121
f 116/116/116 111/111/111 122/122/122
f 111/111/111 117/117/117 122/122/122
f 117/117/117 112/112/112 123/123/123
f 112/112/112 118/118/118 123/123/123
f 118/118/118 119/119/119 124/124/124
f 119/119/119 125/125/125 124/124/124
f 120/120/120 115/115/115 126/126/126
f 115/115/115 121/121/121 126/126/126
f 121/121/121 116/116/116 127/127/127
f 116/116/116 122/122/122 127/127/127
f 122/122/122 117/117/117 128/128/128
f 117/117/117 123/123/123 128/128/128
f 123/123/123 118/118/118 129/129/129
f 118/118/118 124/124/124 129/129/129
f 124/124/124 125/125/125 130/130/130
f 125/125/125 131/131/131 130/130/130
f 126/126/126 121/121/121 132/132/132
f 121/121/121 127/127/127 132/132/132
f 127/127/127 122/122/122 133/133/133
f 122/122/122 128/128/128 133/133/133
f 128/128/128 123/123/123 134/134/134
f 123/123/123 129/129/129 134/134/134
f 129/129/129 124/124/124 135/135/135
f 124/124/124 130/130/130 135/135/135
f 130/130/130 131/131/131 136/136/136
f 131/131/131 137/137/137 136/136/136
f 132/132/132 127/127/127 138/138/138
f 127/127/127 133/133/133 138/138/138
f 133/133/133 128/128/128 139/139/139
f 128/128/128 134/134/134 139/139/139
f 134/134/134 129/129/129 140/140/140
f 129/129/129 135/135/135 140/140/140
f 135/135/135 130/130/130 141/141/141
f 130/130/130 136/136/136 141/141/141
f 136/136/136 137/137/137 142/142/142
f 137/137/137 143/143/143 142/142/142
f 138/138/138 133/133/133 144/144/144
f 133/133/133 139/139/139 144/144/144
f 139/139/139 134/134/134 145/145/145
f 134/134/134 140/140/140 145/145/145
f 140/140/140 135/135/135 146/146/146
f 135/135/135 141/141/141 146/146/146
f 141/141/141 136/136/136 147/147/147
f 136/136/136 142/142/142 147/147/147
f 142/142/142 143/143/143 148/148/148
f 143/143/143 149/149/149 148/148/148
f 144/144/144 139/139/139 150/150/150
f 139/139/139 145/145/145 150/150/150
f 145/145/145 140/140/140 151/151/151
f 140/140/140 146/146/146 151/151/151
f 146/146/146 141/141/141 152/152/152
f 141/141/141 147/147/147 152/152/152
f 147/147/147 142/142/142 153/153/153
f 142/142/142 148/148/148 153/153/153
f 148/148/148 149/149/149 154/154/154
f 149/149/149 155/155/155 154/154/154
f 150/150/150 145/145/145 156/156/156
f 145/145/145 151/151/151 156/156/156
f 151/151/151 146/146/146 157/157/157
f 146/146/146 152/152/152 157/157/157
f 152/152/152 147/147/147 158/158/158
f 147/147/147 153/153/153 158/158/158
f 153/153/153 148/148/148 159/159/159
f 148/148/148 154/154/154 159/159/159
f 154/154/154 155/155/155 160/160/160
f 155/155/155 161/161/161 160/160/160
f 156/156/156 151/151/151 162/162/162
f 151/151/151 157/157/157 162/162/162
f 157/157/157 152/152/152 163/163/163
f 152/152/152 158/158/158 163/163/163
f 158/158/158 153/153/153 164/164/164
f 153/153/153 159/159/159 164/164/164
f 159/159/159 154/154/154 165/165/165
f 154/154/154 160/160/160 165/165/165
f 160/160/160 161/161/161 166/166/166
f 161/161/161 167/167/167 166/166/166
f 162/162/162 157/157/157 168/168/168
f 157/157/157 163/163/163 168/168/168
f 163/163/163 158/158/158 169/169/169
f 158/158/158 164/164/164 169/169/169
f 164/164/164 159/159/159 170/170/170
f 159/159/159 165/165/165 170/170/170
f 165/165/165 160/160/160 171/171/171
f 160/160/160 166/166/166 171/171/171
f 166/166/166 167/167/167 172/172/172
f 167/167/167 173/173/173 172/172/172
f 168/168/168 163/163/163 174/174/174
f 163/163/163 169/169/169 174/174/174
f 169/169/169 164/164/164 175/175/175
f 164/164/164 170/170/170 175/175/175
f 170/170/170 165/165/165 176/176/176
f 165/165/165 171/171/171 176/176/176
f 171/171/171 166/166/166 177/177/177
f 166/166/166 172/172/172 177/177/177
f 172/172/172 173/173/173 178/178/178
f 173/173/173 179/179/179 178/178/178
f 174/174/174 169/169/169 180/180/180
f 169/169/169 175/175/175 180/180/180
f 175/175/175 170/170/170 181/181/181
f 170/170/170 176/176/176 181/181/181
f 176/176/176 171/171/171 182/182/182
f 171/171/171 177/177/177 182/182/182
f 177/177/177 172/172/172 183/183/183
f 172/172/172 178/178/178 183/183/183
f 178/178/178 179/179/179 184/184/184
f 179/179/179 185/185/185 184/184/184
f 180/180/180 175/175/175 186/186/186
f 175/175/175 181/181/181 186/186/186
f 181/181/181 176/176/176 187/187/187
f 176/176/176 182/182/182 187/187/187
f 182/182/182 177/177/177 188/188/188
f 177/177/177 183/183/183 188/188/188
f 183/183/183 178/178/178 189/189/189
f 178/178/178 184/184/184 189/189/189
f 184/184/184 185/185/185 190/190/190
f 185/185/185 191/191/191 190/190/190
f 186/186/186 181/181/181 192/192/192
f 181/181/181 187/187/187 192/192/192
f 187/187/187 182/182/182 193/193/193
f 182/182/182 188/188/188 193/193/193
f 188/188/188 183/183/183 194/194/194
f 183/183/183 189/189/189 194/194/194
f 189/189/189 184/184/184 195/195/195
f 184/184/184 190/190/190 195/195/195
f 190/190/190 191/191/191 196/196/196
f 191/191/191 197/197/197 196/196/196
f 192/192/192 187/187/187 198/198/198
f 187/187/187 193/193/193 198/198/198
f 193/193/193 188/188/188 199/199/199
f 188/188/188 194/194/194 199/199/199
f 194/194/194 189/189/189 200/200/200
f 189/189/189 195/195/195 200/200/200
f 195/195/195 190/190/190 201/201/201
f 190/190/190 196/196/196 201/201/201
f 196/196/196 197/197/197 202/202/202
f 197/197/197 203/203/203 202/202/202
f 198/198/198 193/193/193 204/204/204
f 193/193/193 199/199/199 204/204/204
f 199/199/199 194/194/194 205/205/205
f 194/194/194 200/200/200 205/205/205
f 200/200/200 195/195/195 206/206/206
f 195/195/195 201/201/201 206/206/206
f 201/201/201 196/196/196 207/207/207
f 196/196/196 202/202/202 207/207/207
f 202/202/202 203/203/203 208/208/208
f 203/203/203 209/209/209 208/208/208
f 204/204/204 199/199/199 210/210/210
f 199/199/199 205/205/205 210/210/210
f 205/205/205 200/200/200 211/211/211
f 200/200/200 206/206/206 211/211/211
f 206/206/206 201/201/201 212/212/212
f 201/201/201 207/207/207 212/212/212
f 207/207/207 202/202/202 213/213/213
f 202/202/202 208/208/208 213/213/213
f 208/208/208 209/209/209 214/214/214
f 209/209/209 215/215/215 214/214/214
f 210/210/210 205/205/205 216/216/216
f 205/205/205 211/211/211 216/216/216
f 211/211/211 206/206/206 217/217/217
f 206/206/206 212/212/212 217/217/217
f 212/212/212 207/207/207 218/218/218
f 207/207/207 213/213/213 218/218/218
f 213/213/213 208/208/208 219/219/219
f 208/208/208 214/214/214 219/219/219
f 214/214/214 215/215/215 220/220/220
f 215/215/215 221/221/221 220/220/220
f 216/216/216 211/211/211 222/222/222
f 211/211/211 217/217/217 222/222/222
f 217/217/217 212/212/212 223/223/223
f 212/212/212 218/218/218 223/223/223
f 218/218/218 213/213/213 224/224/224
f 213/213/213 219/219/219 224/224/224
f 219/219/219 214/214/214 225/225/225
f 214/214/214 220/220/220 225/225/225
f 220/220/220 221/221/221 226/226/226
f 221/221/221 227/227/227 226/226/226
f 222/222/222 217/217/217 228/228/228
f 217/217/217 223/223/223 228/228/228
f 223/223/223 218/218/218 229/229/229
f 218/218/218 224/224/224 229/229/229
f 224/224/224 219/219/219 230/230/230
f 219/219/219 225/225/225 230/230/230
f 225/225/225 220/220/220 231/231/231
f 220/220/220 226/226/226 231/231/231
f 226/226/226 227/227/227 232/232/232
f 227/227/227 233/233/233 232/232/232
f 228/228/228 223/223/223 234/234/234
f 223/223/223 229/229/229 234/234/234
f 229/229/229 224/224/224 235/235/235
f 224/224/224 230/230/230 235/235/235
f 230/230/230 225/225/225 236/236/236
f 225/225/225 231/231/231 236/236/236
f 231/231/231 226/226/226 237/237/237
f 226/226/226 232/232/232 237/237/237
f 232/232/232 233/233/233 238/238/238
f 233/233/233 239/239/239 238/238/238
f 238/238/238 239/239/239 240/240/240
f 239/239/239 241/241/241 240/240/240
f 238/238/238 240/240/240 242/242/242
f 232/232/232 238/238/238 243/243/243
f 243/243/243 238/238/238 242/242/242
f 237/237/237 232/232/232 243/243/243
f 243/243/243 242/242/242 244/244/244
f 245/245/245 243/243/243 244/244/244
f 237/237/237 243/243/243 245/245/245
f 245/245/245 244/244/244 246/246/246
f 231/231/231 237/237/237 247/247/247
f 247/247/247 237/237/237 245/245/245
f 236/236/236 231/231/231 247/247/247
f 248/248/248 245/245/245 246/246/246
f 247/247/247 245/245/245 248/248/248
f 248/248/248 246/246/246 249/249/249
f 236/236/236 247/247/247 250/250/250
f 250/250/250 247/247/247 248/248/248
f 251/251/251 248/248/248 249/249/249
f 250/250/250 248/248/248 251/251/251
f 251/251/251 249/249/249 252/252/252
f 253/253/253 236/236/236 250/250/250
f 230/230/230 236/236/236 253/253/253
f 235/235/235 230/230/230 253/253/253
f 254/254/254 251/251/251 252/252/252
f 254/254/254 252/252/252 255/255/255
f 256/256/256 250/250/250 251/251/251
f 253/253/253 250/250/250 256/256/256
f 256/256/256 251/251/251 254/254/254
f 235/235/235 253/253/253 257/257/257
f 257/257/257 253/253/253 256/256/256
f 258/258/258 254/254/254 255/255/255
f 258/258/258 255/255/255 259/259/259
f 260/260/260 256/256/256 254/254/254
f 257/257/257 256/256/256 260/260/260
f 260/260/260 254/254/254 258/258/258
f 261/261/261 235/235/235 257/257/257
f 229/229/229 235/235/235 261/261/261
f 234/234/234 229/229/229 261/261/261
f 262/262/262 258/258/258 259/259/259
f 262/262/262 259/259/259 263/263/263
f 264/264/264 260/260/260 258/258/258
f 264/264/264 258/258/258 262/262/262
f 265/265/265 257/257/257 260/260/260
f 261/261/261 257/257/257 265/265/265
f 265/265/265 260/260/260 264/264/264
f 234/234/234 261/261/261 266/266/266
f 266/266/266 261/261/261 265/265/265
f 267/267/267 262/262/262 263/263/263
f 267/267/267 263/263/263 268/268/268
f 269/269/269 264/264/264 262/262/262
f 269/269/269 262/262/262 267/267/267
f 270/270/270 265/265/265 264/264/264
f 266/266/266 265/265/265 270/270/270
f 270/270/270 264/264/264 269/269/269
f 271/271/271 234/234/234 266/266/266
f 228/228/228 234/234/234 271/271/271
f 272/272/272 267/267/267 268/268/268
f 272/272/272 268/268/268 273/273/273
f 274/274/274 269/269/269 267/267/267
f 274/274/274 267/267/267 272/272/272
f 275/275/275 270/270/270 269/269/269
f 275/275/275 269/269/269 274/274/274
f 276/276/276 266/266/266 270/270/270
f 271/271/271 266/266/266 276/276/276
f 276/276/276 270/270/270 275/275/275
f 277/277/277 228/228/228 271/271/271
f 222/222/222 228/228/228 277/277/277
f 278/278/278 272/272/272 273/273/273
f 278/278/278 273/273/273 279/279/279
f 280/280/280 274/274/274 272/272/272
f 280/280/280 272/272/272 278/278/278
f 281/281/281 275/275/275 274/274/274
f 281/281/281 274/274/274 280/280/280
f 282/282/282 276/276/276 275/275/275
f 282/282/282 275/275/275 281/281/281
f 283/283/283 271/271/271 276/276/276
f 277/277/277 271/271/271 283/283/283
f 283/283/283 276/276/276 282/282/282
f 284/284/284 222/222/222 277/277/277
f 216/216/216 222/222/222 284/284/284
f 285/285/285 278/278/278 279/279/279
f 285/285/285 279/279/279 286/286/286
f 287/287/287 280/280/280 278/278/278
f 287/287/287 278/278/278 285/285/285
f 288/288/288 281/281/281 280/280/280
f 288/288/288 280/280/280 287/287/287
f 289/289/289 282/282/282 281/281/281
f 289/289/289 281/281/281 288/288/288
f 290/290/290 283/283/283 282/282/282
f 290/290/290 282/282/282 289/289/289
f 291/291/291 277/277/277 283/283/283
f 291/291/291 283/283/283 290/290/290
f 284/284/284 277/277/277 291/291/291
f 292/292/292 216/216/216 284/284/284
f 210/210/210 216/216/216 292/292/292
f 293/293/293 284/284/284 291/291/291
f 292/292/292 284/284/284 293/293/293
f 294/294/294 291/291/291 290/290/290
f 293/293/293 291/291/291 294/294/294
f 295/295/295 290/290/290 289/289/289
f 294/294/294 290/290/290 295/295/295
f 296/296/296 289/289/289 288/288/288
f 295/295/295 289/289/289 296/296/296
f 297/297/297 210/210/210 292/292/292
f 204/204/204 210/210/210 297/297/297
f 298/298/298 292/292/292 293/293/293
f 297/297/297 292/292/292 298/298/298
f 299/299/299 293/293/293 294/294/294
f 298/298/298 293/293/293 299/299/299
f 300/300/300 294/294/294 295/295/295
f 299/299/299 294/294/294 300/300/300
f 301/301/301 204/204/204 297/297/297
f 198/198/198 204/204/204 301/301/301
f 302/302/302 297/297/297 298/298/298
f 301/301/301 297/297/297 302/302/302
f 303/303/303 298/298/298 299/299/299
f 302/302/302 298/298/298 303/303/303
f 304/304/304 198/198/198 301/301/301
f 192/192/192 198/198/198 304/304/304
f 305/305/305 301/301/301 302/302/302
f 304/304/304 301/301/301 305/305/305
f 306/306/306 192/192/192 304/304/304
f 186/186/186 192/192/192 306/306/306
f 300/300/300 295/295/295 307/307/307
f 307/307/307 295/295/295 296/296/296
f 308/308/308 299/299/299 300/300/300
f 303/303/303 299/299/299 308/308/308
f 309/309/309 302/302/302 303/303/303
f 305/305/305 302/302/302 309/309/309
f 310/310/310 304/304/304 305/305/305
f 306/306/306 304/304/304 310/310/310
f 311/311/311 186/186/186 306/306/306
f 180/180/180 186/186/186 311/311/311
f 312/312/312 300/300/300 307/307/307
f 308/308/308 300/300/300 312/312/312
f 313/313/313 303/303/303 308/308/308
f 309/309/309 303/303/303 313/313/313
f 314/314/314 305/305/305 309/309/309
f 310/310/310 305/305/305 314/314/314
f 315/315/315 306/306/306 310/310/310
f 311/311/311 306/306/306 315/315/315
f 316/316/316 180/180/180 311/311/311
f 174/174/174 180/180/180 316/316/316
f 317/317/317 308/308/308 312/312/312
f 313/313/313 308/308/308 317/317/317
f 318/318/318 309/309/309 313/313/313
f 314/314/314 309/309/309 318/318/318
f 319/319/319 310/310/310 314/314/314
f 315/315/315 310/310/310 319/319/319
f 320/320/320 311/311/311 315/315/315
f 316/316/316 311/311/311 320/320/320
f 321/321/321 174/174/174 316/316/316
f 168/168/168 174/174/174 321/321/321
f 322/322/322 313/313/313 317/317/317
f 318/318/318 313/313/313 322/322/322
f 323/323/323 314/314/314 318/318/318
f 319/319/319 314/314/314 323/323/323
f 324/324/324 315/315/315 319/319/319
f 320/320/320 315/315/315 324/324/324
f 325/325/325 316/316/316 320/320/320
f 321/321/321 316/316/316 325/325/325
f 326/326/326 168/168/168 321/321/321
f 162/162/162 168/168/168 326/326/326
f 327/327/327 318/318/318 322/322/322
f 323/323/323 318/318/318 327/327/327
f 328/328/328 319/319/319 323/323/323
f 324/324/324 319/319/319 328/328/328
f 329/329/329 320/320/320 324/324/324
f 325/325/325 320/320/320 329/329/329
f 330/330/330 321/321/321 325/325/325
f 326/326/326 321/321/321 330/330/330
f 331/331/331 162/162/162 326/326/326
f 156/156/156 162/162/162 331/331/331
f 332/332/332 323/323/323 327/327/327
f 328/328/328 323/323/323 332/332/332
f 333/333/333 324/324/324 328/328/328
f 329/329/329 324/324/324 333/333/333
f 334/334/334 325/325/325 329/329/329
f 330/330/330 325/325/325 334/334/334
f 335/335/335 326/326/326 330/330/330
f 331/331/331 326/326/326 335/335/335
f 336/336/336 156/156/156 331/331/331
f 150/150/150 156/156/156 336/336/336
f 337/337/337 328/328/328 332/332/332
f 333/333/333 328/328/328 337/337/337
f 338/338/338 329/329/329 333/333/333
f 334/334/334 329/329/329 338/338/338
f 339/339/339 330/330/330 334/334/334
f 335/335/335 330/330/330 339/339/339
f 340/340/340 331/331/331 335/335/335
f 336/336/336 331/331/331 340/340/340
f 341/341/341 150/150/150 336/336/336
f 144/144/144 150/150/150 341/341/341
f 342/342/342 333/333/333 337/337/337
f 338/338/338 333/333/333 342/342/342
f 343/343/343 334/334/334 338/338/338
f 339/339/339 334/334/334 343/343/343
f 344/344/344 335/335/335 339/339/339
f 340/340/340 335/335/335 344/344/344
f 345/345/345 336/336/336 340/340/340
f 341/341/341 336/336/336 345/345/345
f 346/346/346 144/144/144 341/341/341
f 138/138/138 144/144/144 346/346/346
f 347/347/347 338/338/338 342/342/342
f 343/343/343 338/338/338 347/347/347
f 348/348/348 339/339/339 343/343/343
f 344/344/344 339/339/339 348/348/348
f 349/349/349 340/340/340 344/344/344
f 345/345/345 340/340/340 349/349/349
f 350/350/350 341/341/341 345/345/345
f 346/346/346 341/341/341 350/350/350
f 351/351/351 138/138/138 346/346/346
f 132/132/132 138/138/138 351/351/351
f 352/352/352 343/343/343 347/347/347
f 348/348/348 343/343/343 352/352/352
f 353/353/353 344/344/344 348/348/348
f 349/349/349 344/344/344 353/353/353
f 354/354/354 345/345/345 349/349/349
f 350/350/350 345/345/345 354/354/354
f 355/355/355 346/346/346 350/350/350
f 351/351/351 346/346/346 355/355/355
f 356/356/356 132/132/132 351/351/351
f 126/126/126 132/132/132 356/356/356
f 357/357/357 348/348/348 352/352/352
f 353/353/353 348/348/348 357/357/357
f 358/358/358 349/349/349 353/353/353
f 354/354/354 349/349/349 358/358/358
f 359/359/359 350/350/350 354/354/354
f 355/355/355 350/350/350 359/359/359
f 360/360/360 351/351/351 355/355/355
f 356/356/356 351/351/351 360/360/360
f 361/361/361 126/126/126 356/356/356
f 120/120/120 126/126/126 361/361/361
f 362/362/362 353/353/353 357/357/357
f 358/358/358 353/353/353 362/362/362
f 363/363/363 354/354/354 358/358/358
f 359/359/359 354/354/354 363/363/363
f 364/364/364 355/355/355 359/359/359
f 360/360/360 355/355/355 364/364/364
f 365/365/365 356/356/356 360/360/360
f 361/361/361 356/356/356 365/365/365
f 366/366/366 120/120/120 361/361/361
f 114/114/114 120/120/120 366/366/366
f 367/367/367 358/358/358 362/362/362
f 363/363/363 358/358/358 367/367/367
f 368/368/368 359/359/359 363/363/363
f 364/364/364 359/359/359 368/368/368
f 369/369/369 360/360/360 364/364/364
f 365/365/365 360/360/360 369/369/369
f 370/370/370 361/361/361 365/365/365
f 366/366/366 361/361/361 370/370/370
f 371/371/371 114/114/114 366/366/366
f 108/108/108 114/114/114 371/371/371
f 372/372/372 363/363/363 367/367/367
f 368/368/368 363/363/363 372/372/372
f 373/373/373 364/364/364 368/368/368
f 369/369/369 364/364/364 373/373/373
f 374/374/374 365/365/365 369/369/369
f 370/370/370 365/365/365 374/374/374
f 375/375/375 366/366/366 370/370/370
f 371/371/371 366/366/366 375/375/375
f 376/376/376 108/108/108 371/371/371
f 93/93/93 108/108/108 376/376/376
f 377/377/377 368/368/368 372/372/372
f 373/373/373 368/368/368 377/377/377
f 378/378/378 369/369/369 373/373/373
f 374/374/374 369/369/369 378/378/378
f 379/379/379 370/370/370 374/374/374
f 375/375/375 370/370/370 379/379/379
f 380/380/380 371/371/371 375/375/375
f 376/376/376 371/371/371 380/380/380
f 381/381/381 93/93/93 376/376/376
f 82/82/82 93/93/93 381/381/381
f 77/77/77 82/82/82 381/381/381
f 381/381/381 376/376/376 382/382/382
f 382/382/382 376/376/376 380/380/380
f 77/77/77 381/381/381 383/383/383
f 383/383/383 381/381/381 382/382/382
f 67/67/67 77/77/77 383/383/383
f 380/380/380 375/375/375 384/384/384
f 384/384/384 375/375/375 379/379/379
f 379/379/379 374/374/374 385/385/385
f 385/385/385 374/374/374 378/378/378
f 382/382/382 380/380/380 386/386/386
f 386/386/386 380/380/380 384/384/384
f 383/383/383 382/382/382 387/387/387
f 387/387/387 382/382/382 386/386/386
f 67/67/67 383/383/383 388/388/388
f 388/388/388 383/383/383 387/387/387
f 56/56/56 67/67/67 388/388/388
f 56/56/56 388/388/388 66/66/66
f 384/384/384 379/379/379 389/389/389
f 389/389/389 379/379/379 385/385/385
f 386/386/386 384/384/384 390/390/390
f 390/390/390 384/384/384 389/389/389
f 387/387/387 386/386/386 391/391/391
f 391/391/391 386/386/386 390/390/390
f 388/388/388 387/387/387 392/392/392
f 66/66/66 388/388/388 392/392/392
f 392/392/392 387/387/387 391/391/391
f 66/66/66 392/392/392 393/393/393
f 51/51/51 66/66/66 393/393/393
f 392/392/392 391/391/391 394/394/394
f 393/393/393 392/392/392 394/394/394
f 391/391/391 390/390/390 395/395/395
f 394/394/394 391/391/391 395/395/395
f 390/390/390 389/389/389 396/396/396
f 395/395/395 390/390/390 396/396/396
f 389/389/389 385/385/385 397/397/397
f 396/396/396 389/389/389 397/397/397
f 51/51/51 393/393/393 398/398/398
f 40/40/40 51/51/51 398/398/398
f 40/40/40 398/398/398 39/39/39
f 393/393/393 394/394/394 399/399/399
f 398/398/398 393/393/393 399/399/399
f 39/39/39 398/398/398 400/400/400
f 398/398/398 399/399/399 400/400/400
f 39/39/39 400/400/400 37/37/37
f 394/394/394 395/395/395 401/401/401
f 399/399/399 394/394/394 401/401/401
f 395/395/395 396/396/396 402/402/402
f 401/401/401 395/395/395 402/402/402
f 37/37/37 400/400/400 403/403/403
f 37/37/37 403/403/403 38/38/38
f 38/38/38 403/403/403 404/404/404
f 400/400/400 399/399/399 405/405/405
f 399/399/399 401/401/401 405/405/405
f 400/400/400 405/405/405 403/403/403
f 403/403/403 406/406/406 404/404/404
f 403/403/403 405/405/405 406/406/406
f 404/404/404 406/406/406 407/407/407
f 405/405/405 401/401/401 408/408/408
f 405/405/405 408/408/408 406/406/406
f 401/401/401 402/402/402 408/408/408
f 406/406/406 409/409/409 407/407/407
f 406/406/406 408/408/408 409/409/409
f 407/407/407 409/409/409 410/410/410
f 402/402/402 396/396/396 411/411/411
f 396/396/396 397/397/397 411/411/411
f 408/408/408 402/402/402 412/412/412
f 408/408/408 412/412/412 409/409/409
f 402/402/402 411/411/411 412/412/412
f 409/409/409 413/413/413 410/410/410
f 409/409/409 412/412/412 413/413/413
f 410/410/410 413/413/413 414/414/414
f 412/412/412 411/411/411 415/415/415
f 412/412/412 415/415/415 413/413/413
f 413/413/413 416/416/416 414/414/414
f 413/413/413 415/415/415 416/416/416
f 414/414/414 416/416/416 417/417/417
f 411/411/411 397/397/397 418/418/418
f 411/411/411 418/418/418 415/415/415
f 416/416/416 419/419/419 417/417/417
f 417/417/417 419/419/419 420/420/420
f 415/415/415 421/421/421 416/416/416
f 415/415/415 418/418/418 421/421/421
f 416/416/416 421/421/421 419/419/419
f 397/397/397 422/422/422 418/418/418
f 397/397/397 385/385/385 422/422/422
f 385/385/385 378/378/378 422/422/422
f 419/419/419 423/423/423 420/420/420
f 420/420/420 423/423/423 424/424/424
f 421/421/421 425/425/425 419/419/419
f 419/419/419 425/425/425 423/423/423
f 418/418/418 426/426/426 421/421/421
f 418/418/418 422/422/422 426/426/426
f 421/421/421 426/426/426 425/425/425
f 422/422/422 378/378/378 427/427/427
f 422/422/422 427/427/427 426/426/426
f 378/378/378 373/373/373 427/427/427
f 427/427/427 373/373/373 377/377/377
f 426/426/426 427/427/427 428/428/428
f 426/426/426 428/428/428 425/425/425
f 427/427/427 377/377/377 428/428/428
f 423/423/423 429/429/429 424/424/424
f 424/424/424 429/429/429 430/430/430
f 425/425/425 431/431/431 423/423/423
f 425/425/425 428/428/428 431/431/431
f 423/423/423 431/431/431 429/429/429
f 428/428/428 377/377/377 432/432/432
f 428/428/428 432/432/432 431/431/431
f 377/377/377 372/372/372 432/432/432
f 429/429/429 433/433/433 430/430/430
f 430/430/430 433/433/433 434/434/434
f 431/431/431 435/435/435 429/429/429
f 431/431/431 432/432/432 435/435/435
f 429/429/429 435/435/435 433/433/433
f 432/432/432 372/372/372 436/436/436
f 432/432/432 436/436/436 435/435/435
f 372/372/372 367/367/367 436/436/436
f 433/433/433 437/437/437 434/434/434
f 434/434/434 437/437/437 438/438/438
f 435/435/435 439/439/439 433/433/433
f 435/435/435 436/436/436 439/439/439
f 433/433/433 439/439/439 437/437/437
f 436/436/436 367/367/367 440/440/440
f 436/436/436 440/440/440 439/439/439
f 367/367/367 362/362/362 440/440/440
f 437/437/437 441/441/441 438/438/438
f 438/438/438 441/441/441 442/442/442
f 439/439/439 443/443/443 437/437/437
f 439/439/439 440/440/440 443/443/443
f 437/437/437 443/443/443 441/441/441
f 440/440/440 362/362/362 444/444/444
f 440/440/440 444/444/444 443/443/443
f 362/362/362 357/357/357 444/444/444
f 441/441/441 445/445/445 442/442/442
f 442/442/442 445/445/445 446/446/446
f 443/443/443 447/447/447 441/441/441
f 443/443/443 444/444/444 447/447/447
f 441/441/441 447/447/447 445/445/445
f 444/444/444 357/357/357 448/448/448
f 444/444/444 448/448/448 447/447/447
f 357/357/357 352/352/352 448/448/448
f 445/445/445 449/449/449 446/446/446
f 446/446/446 449/449/449 450/450/450
f 447/447/447 451/451/451 445/445/445
f 447/447/447 448/448/448 451/451/451
f 445/445/445 451/451/451 449/449/449
f 448/448/448 352/352/352 452/452/452
f 448/448/448 452/452/452 451/451/451
f 352/352/352 347/347/347 452/452/452
f 449/449/449 453/453/453 450/450/450
f 450/450/450 453/453/453 454/454/454
f 451/451/451 455/455/455 449/449/449
f 451/451/451 452/452/452 455/455/455
f 449/449/449 455/455/455 453/453/453
f 452/452/452 347/347/347 456/456/456
f 452/452/452 456/456/456 455/455/455
f 347/347/347 342/342/342 456/456/456
f 453/453/453 457/457/457 454/454/454
f 454/454/454 457/457/457 458/458/458
f 455/455/455 459/459/459 453/453/453
f 455/455/455 456/456/456 459/459/459
f 453/453/453 459/459/459 457/457/457
f 456/456/456 342/342/342 460/460/460
f 456/456/456 460/460/460 459/459/459
f 342/342/342 337/337/337 460/460/460
f 457/457/457 461/461/461 458/458/458
f 458/458/458 461/461/461 462/462/462
f 459/459/459 463/463/463 457/457/457
f 459/459/459 460/460/460 463/463/463
f 457/457/457 463/463/463 461/461/461
f 460/460/460 337/337/337 464/464/464
f 460/460/460 464/464/464 463/463/463
f 337/337/337 332/332/332 464/464/464
f 461/461/461 465/465/465 462/462/462
f 462/462/462 465/465/465 466/466/466
f 463/463/463 467/467/467 461/461/461
f 463/463/463 464/464/464 467/467/467
f 461/461/461 467/467/467 465/465/465
f 464/464/464 332/332/332 468/468/468
f 464/464/464 468/468/468 467/467/467
f 332/332/332 327/327/327 468/468/468
f 465/465/465 469/469/469 466/466/466
f 466/466/466 469/469/469 470/470/470
f 467/467/467 471/471/471 465/465/465
f 467/467/467 468/468/468 471/471/471
f 465/465/465 471/471/471 469/469/469
f 468/468/468 327/327/327 472/472/472
f 468/468/468 472/472/472 471/471/471
f 327/327/327 322/322/322 472/472/472
f 469/469/469 473/473/473 470/470/470
f 470/470/470 473/473/473 474/474/474
f 471/471/471 475/475/475 469/469/469
f 471/471/471 472/472/472 475/475/475
f 469/469/469 475/475/475 473/473/473
f 472/472/472 322/322/322 476/476/476
f 472/472/472 476/476/476 475/475/475
f 322/322/322 317/317/317 476/476/476
f 473/473/473 477/477/477 474/474/474
f 474/474/474 477/477/477 478/478/478
f 475/475/475 479/479/479 473/473/473
f 475/475/475 476/476/476 479/479/479
f 473/473/473 479/479/479 477/477/477
f 476/476/476 317/317/317 480/480/480
f 476/476/476 480/480/480 479/479/479
f 317/317/317 312/312/312 480/480/480
f 477/477/477 481/481/481 478/478/478
f 478/478/478 481/481/481 482/482/482
f 479/479/479 483/483/483 477/477/477
f 479/479/479 480/480/480 483/483/483
f 477/477/477 483/483/483 481/481/481
f 480/480/480 312/312/312 484/484/484
f 480/480/480 484/484/484 483/483/483
f 312/312/312 307/307/307 484/484/484
f 481/481/481 485/485/485 482/482/482
f 482/482/482 485/485/485 486/486/486
f 483/483/483 487/487/487 481/481/481
f 483/483/483 484/484/484 487/487/487
f 481/481/481 487/487/487 485/485/485
f 484/484/484 307/307/307 488/488/488
f 484/484/484 488/488/488 487/487/487
f 307/307/307 296/296/296 488/488/488
f 485/485/485 489/489/489 486/486/486
f 486/486/486 489/489/489 490/490/490
f 487/487/487 491/491/491 485/485/485
f 487/487/487 488/488/488 491/491/491
f 485/485/485 491/491/491 489/489/489
f 488/488/488 296/296/296 492/492/492
f 488/488/488 492/492/492 491/491/491
f 296/296/296 288/288/288 492/492/492
f 492/492/492 288/288/288 287/287/287
f 491/491/491 492/492/492 493/493/493
f 492/492/492 287/287/287 493/493/493
f 491/491/491 493/493/493 489/489/489
f 493/493/493 287/287/287 285/285/285
f 489/489/489 494/494/494 490/490/490
f 489/489/489 493/493/493 494/494/494
f 493/493/493 285/285/285 494/494/494
f 490/490/490 494/494/494 495/495/495
f 494/494/494 285/285/285 286/286/286
f 494/494/494 286/286/286 495/495/495
