g Line001
v -0.834883392 0.212821648 0
v -0.762101114 -0.0231562797 0
v -0.843150616 0.046313934 0
v -0.811722696 0.240389243 0
v -0.312310398 0.487517774 0
v -0.294047296 0.479424387 0
v -0.729020059 -0.0793939158 0
v -0.329680622 0.496131301 0
v -0.333150625 -0.381533802 0
v -0.274712831 0.47195524 0
v -0.346336514 0.505160928 0
v -0.362456858 0.514502823 0
v -0.378219873 0.524052739 0
v -0.393804431 0.533706605 0
v -0.251091421 0.46509257 0
v -0.290145248 -0.378225714 0
v 0.148724049 0.100345306 0
v -0.2217004 0.458939403 0
v -0.247139886 -0.388150007 0
v -0.188960165 0.4537808 0
v 0.358237296 -0.0518273897 0
v 0.125572816 -0.658311725 0
v 0.424404591 -0.64397645 0
v 0.400139928 -0.0485192873 0
v 0.490566552 -0.631846905 0
v 0.812549889 0.0407994054 0
v 0.117848702 0.405241877 0
v -0.155291378 0.449902326 0
v -0.123114467 0.44758895 0
v -0.0948500037 0.447126001 0
v -0.0729184896 0.448798627 0
v -0.0544459037 0.452373564 0
v 0.0781512409 0.436668843 0
v -0.0350474194 0.457279503 0
v -0.0148773389 0.463294446 0
v 0.00590999471 0.470196754 0
v 0.0271602795 0.477764547 0
v 0.0487191938 0.485775977 0
v 0.070432432 0.494009227 0
v 0.824428856 0.0286600813 0
v 0.836423576 0.0184882395 0
v 0.848514438 0.00995597523 0
v 0.860682786 0.002735371 0
v 0.87290889 -0.00350148813 0
v 0.885173619 -0.00908251759 0
v 0.919511855 -0.328605175 0
v 0.897457719 -0.0143356323 0
v 0.800895989 0.0556070805 0
v 0.78953141 0.0732502714 0
v 0.778408051 0.0932564139 0
v 0.767477334 0.115152888 0
v 0.756691575 0.138467193 0
v 0.746002197 0.162726626 0
v 0.735360861 0.187458649 0
v 0.328257978 0.864885211 0
v 0.547367096 1.02937257 0
v 0.329032511 0.843016207 0
v 0.32743758 0.88608855 0
v 0.32652548 0.905960619 0
v 0.325475812 0.923835576 0
v 0.440639257 1.09991777 0
v 0.324242741 0.939047813 0
v 0.322780401 0.950931847 0
v 0.321042925 0.958821774 0
v 0.319047987 0.964508176 0
v 0.316864699 0.970222473 0
v 0.314524502 0.975959897 0
v 0.312058657 0.981715739 0
v 0.309498698 0.987485647 0
v 0.306875944 0.993264675 0
v 0.304221809 0.999048352 0
vt 0.00438895822 0.49546057
vt 0.0438873768 0.361247182
vt 1.1920929E-07 0.400758654
vt 0.0156740844 0.51113975
vt 0.299624354 0.651695073
vt 0.310008168 0.647091985
vt 0.0626962483 0.32926181
vt 0.289748192 0.656594038
vt 0.287775248 0.157418549
vt 0.321001172 0.642843843
vt 0.280278176 0.661729693
vt 0.271112651 0.667042971
vt 0.262150288 0.672474504
vt 0.253289402 0.677965164
vt 0.334431559 0.638940692
vt 0.312226772 0.159300059
vt 0.561754167 0.431489229
vt 0.351142377 0.635441005
vt 0.336678267 0.153655559
vt 0.369757444 0.632507086
vt 0.680876851 0.344940394
vt 0.548591077 0
vt 0.718497515 0.00815328956
vt 0.704701364 0.346821904
vt 0.756115139 0.0150519907
vt 0.939184785 0.397622257
vt 0.544199407 0.60490036
vt 0.388900459 0.630301118
vt 0.40719527 0.628985405
vt 0.423265547 0.628722072
vt 0.435735136 0.629673421
vt 0.446238071 0.631706715
vt 0.521628678 0.622774541
vt 0.457267433 0.634496927
vt 0.468735516 0.637917995
vt 0.480554551 0.641843677
vt 0.4926368 0.646147907
vt 0.504894495 0.650704443
vt 0.517239988 0.655387163
vt 0.945938826 0.390717953
vt 0.95275867 0.384932697
vt 0.959633172 0.380079925
vt 0.966551721 0.375973165
vt 0.973503113 0.372425944
vt 0.980476439 0.369251728
vt 1 0.187521935
vt 0.987460792 0.366263986
vt 0.932558775 0.406044185
vt 0.926097274 0.416078806
vt 0.919772863 0.427457392
vt 0.913558006 0.439911097
vt 0.907425523 0.453171194
vt 0.901347876 0.466968834
vt 0.895297527 0.481035262
vt 0.663831592 0.866324306
vt 0.788410187 0.959877133
vt 0.664271951 0.853886247
vt 0.663365126 0.878383815
vt 0.662846506 0.889686108
vt 0.662249684 0.899852574
vt 0.727728009 1
vt 0.661548615 0.908504605
vt 0.660717189 0.915263653
vt 0.659729302 0.919751108
vt 0.658595085 0.922985256
vt 0.657353699 0.926235259
vt 0.656023145 0.929498494
vt 0.654621124 0.93277216
vt 0.653165638 0.936053813
vt 0.65167439 0.939340651
vt 0.650165319 0.942630112
vn -0 0 1
vn -0 0 1
vn -0 0 1
vn -0 0 1
vn -0 0 1
vn -0 0 1
vn -0 0 1
vn -0 0 1
vn -0 0 1
vn -0 0 1
vn -0 0 1
vn -0 0 1
vn -0 0 1
vn -0 0 1
vn -0 0 1
vn -0 0 1
vn -0 0 1
vn -0 0 1
vn -0 0 1
vn -0 0 1
vn -0 0 1
vn -0 0 1
vn -0 0 1
vn -0 0 1
vn -0 0 1
vn -0 0 1
vn -0 0 1
vn -0 0 1
vn -0 0 1
vn -0 0 1
vn -0 0 1
vn -0 0 1
vn -0 0 1
vn -0 0 1
vn -0 0 1
vn -0 0 1
vn -0 0 1
vn -0 0 1
vn -0 0 1
vn -0 0 1
vn -0 0 1
vn -0 0 1
vn -0 0 1
vn -0 0 1
vn -0 0 1
vn -0 0 1
vn -0 0 1
vn -0 0 1
vn -0 0 1
vn -0 0 1
vn -0 0 1
vn -0 0 1
vn -0 0 1
vn -0 0 1
vn -0 0 1
vn -0 0 1
vn -0 0 1
vn -0 0 1
vn -0 0 1
vn -0 0 1
vn -0 0 1
vn -0 0 1
vn -0 0 1
vn -0 0 1
vn -0 0 1
vn -0 0 1
vn -0 0 1
vn -0 0 1
vn -0 0 1
vn -0 0 1
vn -0 0 1
g Line001_0
f 3/3/3 2/2/2 1/1/1
f 2/2/2 4/4/4 1/1/1
f 5/5/5 4/4/4 2/2/2
f 6/6/6 5/5/5 2/2/2
f 7/7/7 6/6/6 2/2/2
f 8/8/8 4/4/4 5/5/5
f 9/9/9 6/6/6 7/7/7
f 10/10/10 6/6/6 9/9/9
f 11/11/11 4/4/4 8/8/8
f 12/12/12 4/4/4 11/11/11
f 13/13/13 4/4/4 12/12/12
f 14/14/14 4/4/4 13/13/13
f 15/15/15 10/10/10 9/9/9
f 16/16/16 15/15/15 9/9/9
f 17/17/17 15/15/15 16/16/16
f 18/18/18 15/15/15 17/17/17
f 19/19/19 17/17/17 16/16/16
f 20/20/20 18/18/18 17/17/17
f 21/21/21 17/17/17 19/19/19
f 22/22/22 21/21/21 19/19/19
f 23/23/23 21/21/21 22/22/22
f 24/24/24 21/21/21 23/23/23
f 25/25/25 24/24/24 23/23/23
f 26/26/26 24/24/24 25/25/25
f 27/27/27 20/20/20 17/17/17
f 28/28/28 20/20/20 27/27/27
f 29/29/29 28/28/28 27/27/27
f 30/30/30 29/29/29 27/27/27
f 31/31/31 30/30/30 27/27/27
f 32/32/32 31/31/31 27/27/27
f 33/33/33 32/32/32 27/27/27
f 34/34/34 32/32/32 33/33/33
f 35/35/35 34/34/34 33/33/33
f 36/36/36 35/35/35 33/33/33
f 37/37/37 36/36/36 33/33/33
f 38/38/38 37/37/37 33/33/33
f 39/39/39 38/38/38 33/33/33
f 40/40/40 26/26/26 25/25/25
f 41/41/41 40/40/40 25/25/25
f 42/42/42 41/41/41 25/25/25
f 43/43/43 42/42/42 25/25/25
f 44/44/44 43/43/43 25/25/25
f 45/45/45 44/44/44 25/25/25
f 46/46/46 45/45/45 25/25/25
f 47/47/47 45/45/45 46/46/46
f 48/48/48 24/24/24 26/26/26
f 49/49/49 24/24/24 48/48/48
f 50/50/50 24/24/24 49/49/49
f 51/51/51 24/24/24 50/50/50
f 52/52/52 24/24/24 51/51/51
f 53/53/53 24/24/24 52/52/52
f 54/54/54 24/24/24 53/53/53
f 57/57/57 56/56/56 55/55/55
f 56/56/56 58/58/58 55/55/55
f 59/59/59 58/58/58 56/56/56
f 60/60/60 59/59/59 56/56/56
f 61/61/61 60/60/60 56/56/56
f 62/62/62 60/60/60 61/61/61
f 63/63/63 62/62/62 61/61/61
f 64/64/64 63/63/63 61/61/61
f 65/65/65 64/64/64 61/61/61
f 66/66/66 65/65/65 61/61/61
f 67/67/67 66/66/66 61/61/61
f 68/68/68 67/67/67 61/61/61
f 69/69/69 68/68/68 61/61/61
f 70/70/70 69/69/69 61/61/61
f 71/71/71 70/70/70 61/61/61
