g Plane001
v 0.117374264 -0.0413253196 -5.04090053E-07
v 0.092089057 -0.056530226 -5.02047897E-07
v 0.127361998 0.0283140745 -5.03450963E-07
v 0.099833332 0.0156997479 -5.01717693E-07
v 0.0669935048 -0.0751396194 -4.99585155E-07
v 0.149335057 0.091520749 -5.02044998E-07
v 0.0728581026 -0.00119409559 -4.99459532E-07
v 0.0420343205 -0.0967033878 -4.96759526E-07
v 0.116870821 0.0845945925 -5.00989927E-07
v 0.17130813 0.154727414 -5.00639032E-07
v 0.0463506877 -0.0216850657 -4.96761857E-07
v 0.0171583369 -0.120771259 -4.9362859E-07
v 0.0857600942 0.0713968799 -4.99172415E-07
v 0.133908272 0.153491914 -5.00262388E-07
v 0.181295842 0.224366739 -4.99999999E-07
v 0.141652569 0.225729465 -4.99933037E-07
v 0.0986621082 0.144008189 -4.98887687E-07
v 0.104526669 0.218014583 -4.98769225E-07
v 0.020225944 -0.0450905599 -4.93709933E-07
v -0.00768770184 -0.146893114 -4.90250102E-07
v 0.0558467284 0.0530544855 -4.96730877E-07
v 0.0653427467 0.127862483 -4.96708026E-07
v 0.0696591586 0.203086257 -4.96734799E-07
v -0.00560153928 -0.0707280934 -4.90389084E-07
v -0.0325570367 -0.174618781 -4.86681529E-07
v 0.0269747544 0.0306940842 -4.93803498E-07
v 0.0337235257 0.106641136 -4.93916502E-07
v 0.0367911533 0.182808965 -4.94055826E-07
v -0.0312171634 -0.0979151726 -4.86884744E-07
v -0.0575028583 -0.203498036 -4.82980738E-07
v -0.00101194379 0.00544261932 -4.90528748E-07
v 0.00357759465 0.0819304809 -4.90706213E-07
v 0.00566375721 0.159046918 -4.90958712E-07
v -0.0567063317 -0.125969276 -4.83282236E-07
v -0.0825784579 -0.233080745 -4.79205198E-07
v -0.0282695293 -0.021573199 -4.87044815E-07
v -0.0253218841 0.0553167909 -4.87270256E-07
v -0.0239820275 0.133664489 -4.87669581E-07
v -0.0821543783 -0.1542079 -4.79666937E-07
v -0.107837006 -0.262916684 -4.75412662E-07
v -0.0549539849 -0.0492265113 -4.83490112E-07
v -0.0532016158 0.0283864401 -4.83801728E-07
v -0.0524051003 0.108525939 -4.8441467E-07
v -0.107646674 -0.181948543 -4.76124171E-07
v -0.133331731 -0.29255572 -4.71660712E-07
v -0.0812214464 -0.0763906687 -4.80002882E-07
v -0.080288507 0.0027255821 -4.80493725E-07
v -0.0798644349 0.085495472 -4.81420216E-07
v -0.13326858 -0.20850867 -4.72739231E-07
v -0.159115896 -0.321547627 -4.68007045E-07
v -0.107227974 -0.101938739 -4.76721425E-07
v -0.106809251 -0.0200793259 -4.77539288E-07
v -0.106618918 0.0664375648 -4.78912455E-07
v -0.159105465 -0.233205825 -4.69597524E-07
v -0.185242727 -0.349442214 -4.6450927E-07
v -0.185242727 -0.255357444 -4.667844E-07
v -0.133129612 -0.124743879 -4.73784127E-07
v -0.132990658 -0.0384419449 -4.75131515E-07
v -0.132927507 0.0532164946 -4.77117624E-07
v -0.159082517 -0.14367947 -4.71329258E-07
v -0.185242727 -0.157618567 -4.69495092E-07
v -0.159059554 -0.0507761389 -4.7346353E-07
v -0.159049124 0.0476964377 -4.76261874E-07
v -0.185242727 -0.055495508 -4.72728459E-07
v -0.185242727 0.0517418087 -4.76571472E-07
vt 0.999999881 0
vt 0.916666567 0
vt 0.999999881 0.25
vt 0.916666567 0.25
vt 0.833333254 0
vt 0.999999881 0.5
vt 0.833333254 0.25
vt 0.74999994 0
vt 0.916666567 0.5
vt 0.999999881 0.75
vt 0.74999994 0.25
vt 0.666666627 0
vt 0.833333254 0.5
vt 0.916666567 0.75
vt 0.999999881 1
vt 0.916666567 1
vt 0.833333254 0.75
vt 0.833333254 1
vt 0.666666627 0.25
vt 0.583333313 0
vt 0.74999994 0.5
vt 0.74999994 0.75
vt 0.74999994 1
vt 0.583333313 0.25
vt 0.5 0
vt 0.666666627 0.5
vt 0.666666627 0.75
vt 0.666666627 1
vt 0.5 0.25
vt 0.416666687 0
vt 0.583333313 0.5
vt 0.583333313 0.75
vt 0.583333313 1
vt 0.416666687 0.25
vt 0.333333343 0
vt 0.5 0.5
vt 0.5 0.75
vt 0.5 1
vt 0.333333343 0.25
vt 0.25 0
vt 0.416666687 0.5
vt 0.416666687 0.75
vt 0.416666687 1
vt 0.25 0.25
vt 0.166666672 0
vt 0.333333343 0.5
vt 0.333333343 0.75
vt 0.333333343 1
vt 0.166666672 0.25
vt 0.0833333358 0
vt 0.25 0.5
vt 0.25 0.75
vt 0.25 1
vt 0.0833333358 0.25
vt 0 0
vt 0 0.25
vt 0.166666672 0.5
vt 0.166666672 0.75
vt 0.166666672 1
vt 0.0833333358 0.5
vt 0 0.5
vt 0.0833333358 0.75
vt 0.0833333358 1
vt 0 0.75
vt 0 1
vn -0 0 1
vn 1.03465396E-07 0 1
vn -0 0 1
vn -0 0 1
vn 1.17955445E-07 0 1
vn -0 0 1
vn 1.04848624E-07 0 1
vn 1.29386407E-07 0 1
vn -0 0 1
vn -0 0 1
vn 1.19079814E-07 0 1
vn 1.38026763E-07 0 1
vn -0 0 1
vn -0 0 1
vn -0 0 1
vn -0 0 1
vn -0 0 1
vn -0 0 1
vn 1.29805841E-07 0 1
vn 1.43942714E-07 0 1
vn 1.00569423E-07 0 1
vn -0 0 1
vn -0 0 1
vn 1.37108202E-07 0 1
vn 1.47048183E-07 0 1
vn 1.16713437E-07 0 1
vn 1.00717436E-07 0 1
vn -0 0 1
vn 1.40824383E-07 0 1
vn 1.47166659E-07 0 1
vn 1.27667136E-07 0 1
vn 1.14426868E-07 0 1
vn 1.02425645E-07 0 1
vn 1.40641617E-07 0 1
vn 1.44113841E-07 0 1
vn 1.33125297E-07 0 1
vn 1.20972445E-07 0 1
vn 1.09348349E-07 0 1
vn 1.36228621E-07 0 1
vn 1.3779389E-07 0 1
vn 1.32620897E-07 0 1
vn 1.19598511E-07 0 1
vn 1.07601984E-07 0 1
vn 1.27415746E-07 0 1
vn 1.28298311E-07 0 1
vn 1.25714479E-07 0 1
vn 1.09904477E-07 0 1
vn -0 0 1
vn 1.14390851E-07 0 1
vn 1.15977052E-07 0 1
vn 1.12310161E-07 0 1
vn -0 0 1
vn -0 0 1
vn -0 0 1
vn 1.06578021E-07 0 1
vn -0 0 1
vn -0 0 1
vn -0 0 1
vn -0 0 1
vn -0 0 1
vn -0 0 1
vn -0 0 1
vn -0 0 1
vn -0 0 1
vn -0 0 1
g Plane001_0
f 3/3/3 2/2/2 1/1/1
f 2/2/2 3/3/3 4/4/4
f 4/4/4 5/5/5 2/2/2
f 6/6/6 4/4/4 3/3/3
f 5/5/5 4/4/4 7/7/7
f 7/7/7 8/8/8 5/5/5
f 4/4/4 6/6/6 9/9/9
f 9/9/9 7/7/7 4/4/4
f 10/10/10 9/9/9 6/6/6
f 8/8/8 7/7/7 11/11/11
f 11/11/11 12/12/12 8/8/8
f 7/7/7 9/9/9 13/13/13
f 13/13/13 11/11/11 7/7/7
f 9/9/9 10/10/10 14/14/14
f 14/14/14 13/13/13 9/9/9
f 15/15/15 14/14/14 10/10/10
f 14/14/14 15/15/15 16/16/16
f 16/16/16 17/17/17 14/14/14
f 13/13/13 14/14/14 17/17/17
f 17/17/17 16/16/16 18/18/18
f 12/12/12 11/11/11 19/19/19
f 19/19/19 20/20/20 12/12/12
f 11/11/11 13/13/13 21/21/21
f 17/17/17 21/21/21 13/13/13
f 21/21/21 19/19/19 11/11/11
f 18/18/18 22/22/22 17/17/17
f 21/21/21 17/17/17 22/22/22
f 22/22/22 18/18/18 23/23/23
f 20/20/20 19/19/19 24/24/24
f 24/24/24 25/25/25 20/20/20
f 19/19/19 21/21/21 26/26/26
f 22/22/22 26/26/26 21/21/21
f 26/26/26 24/24/24 19/19/19
f 23/23/23 27/27/27 22/22/22
f 26/26/26 22/22/22 27/27/27
f 27/27/27 23/23/23 28/28/28
f 25/25/25 24/24/24 29/29/29
f 29/29/29 30/30/30 25/25/25
f 24/24/24 26/26/26 31/31/31
f 27/27/27 31/31/31 26/26/26
f 31/31/31 29/29/29 24/24/24
f 28/28/28 32/32/32 27/27/27
f 31/31/31 27/27/27 32/32/32
f 32/32/32 28/28/28 33/33/33
f 30/30/30 29/29/29 34/34/34
f 34/34/34 35/35/35 30/30/30
f 29/29/29 31/31/31 36/36/36
f 32/32/32 36/36/36 31/31/31
f 36/36/36 34/34/34 29/29/29
f 33/33/33 37/37/37 32/32/32
f 36/36/36 32/32/32 37/37/37
f 37/37/37 33/33/33 38/38/38
f 35/35/35 34/34/34 39/39/39
f 39/39/39 40/40/40 35/35/35
f 34/34/34 36/36/36 41/41/41
f 37/37/37 41/41/41 36/36/36
f 41/41/41 39/39/39 34/34/34
f 38/38/38 42/42/42 37/37/37
f 41/41/41 37/37/37 42/42/42
f 42/42/42 38/38/38 43/43/43
f 40/40/40 39/39/39 44/44/44
f 44/44/44 45/45/45 40/40/40
f 39/39/39 41/41/41 46/46/46
f 42/42/42 46/46/46 41/41/41
f 46/46/46 44/44/44 39/39/39
f 43/43/43 47/47/47 42/42/42
f 46/46/46 42/42/42 47/47/47
f 47/47/47 43/43/43 48/48/48
f 45/45/45 44/44/44 49/49/49
f 49/49/49 50/50/50 45/45/45
f 44/44/44 46/46/46 51/51/51
f 47/47/47 51/51/51 46/46/46
f 51/51/51 49/49/49 44/44/44
f 48/48/48 52/52/52 47/47/47
f 51/51/51 47/47/47 52/52/52
f 52/52/52 48/48/48 53/53/53
f 50/50/50 49/49/49 54/54/54
f 54/54/54 55/55/55 50/50/50
f 55/55/55 54/54/54 56/56/56
f 49/49/49 51/51/51 57/57/57
f 52/52/52 57/57/57 51/51/51
f 57/57/57 54/54/54 49/49/49
f 53/53/53 58/58/58 52/52/52
f 57/57/57 52/52/52 58/58/58
f 58/58/58 53/53/53 59/59/59
f 60/60/60 56/56/56 54/54/54
f 54/54/54 57/57/57 60/60/60
f 58/58/58 60/60/60 57/57/57
f 56/56/56 60/60/60 61/61/61
f 59/59/59 62/62/62 58/58/58
f 60/60/60 58/58/58 62/62/62
f 62/62/62 61/61/61 60/60/60
f 62/62/62 59/59/59 63/63/63
f 61/61/61 62/62/62 64/64/64
f 63/63/63 64/64/64 62/62/62
f 64/64/64 63/63/63 65/65/65
