g O_env_daodan_01
v 0.367170334 1.63938117 -1.68532467
v 1.0100503 1.29664302 -1.74752676
v 1.11154222 1.5146395 -1.89706337
v 0.470978767 1.84978068 -1.8382585
v 1.0100503 1.29664302 -1.74752676
v 1.23983669 1.61176705 -1.14242828
v 1.33295333 1.83358562 -1.28299713
v 1.11154222 1.5146395 -1.89706337
v 0.59364593 1.95462656 -1.07672882
v 0.367170334 1.63938117 -1.68532467
v 0.470978767 1.84978068 -1.8382585
v 0.691946328 2.16743946 -1.22455847
v 0.608889461 1.91850424 -1.09782803
v 0.405945182 1.62596631 -1.66340435
v 0.367170334 1.63938117 -1.68532467
v 0.59364593 1.95462656 -1.07672882
v 0.405945182 1.62596631 -1.66340435
v 0.988660336 1.31912577 -1.71979153
v 1.0100503 1.29664302 -1.74752676
v 0.367170334 1.63938117 -1.68532467
v 0.988660336 1.31912577 -1.71979153
v 1.19851279 1.61041045 -1.15145731
v 1.23983669 1.61176705 -1.14242828
v 1.0100503 1.29664302 -1.74752676
v 1.23983669 1.61176705 -1.14242828
v 0.59364593 1.95462656 -1.07672882
v 0.691946328 2.16743946 -1.22455847
v 1.33295333 1.83358562 -1.28299713
v 1.19851279 1.61041045 -1.15145731
v 0.608889461 1.91850424 -1.09782803
v 0.59364593 1.95462656 -1.07672882
v 1.23983669 1.61176705 -1.14242828
v 0.470978767 1.84978068 -1.8382585
v 1.11154222 1.5146395 -1.89706337
v 1.09053946 1.5509938 -1.86238503
v 0.519140244 1.85130608 -1.80308294
v 1.09053946 1.5509938 -1.86238503
v 1.11154222 1.5146395 -1.89706337
v 1.33295333 1.83358562 -1.28299713
v 1.28773081 1.83463895 -1.31378746
v 0.519140244 1.85130608 -1.80308294
v 0.405945182 1.62596631 -1.66340435
v 0.608889461 1.91850424 -1.09782803
v 0.715146542 2.13697052 -1.25864494
v 0.691946328 2.16743946 -1.22455847
v 0.470978767 1.84978068 -1.8382585
v 0.519140244 1.85130608 -1.80308294
v 0.715146542 2.13697052 -1.25864494
v 0.715146542 2.13697052 -1.25864494
v 0.608889461 1.91850424 -1.09782803
v 1.19851279 1.61041045 -1.15145731
v 1.28773081 1.83463895 -1.31378746
v 1.33295333 1.83358562 -1.28299713
v 0.691946328 2.16743946 -1.22455847
v 0.715146542 2.13697052 -1.25864494
v 1.28773081 1.83463895 -1.31378746
v 1.19851279 1.61041045 -1.15145731
v 0.988660336 1.31912577 -1.71979153
v 1.09053946 1.5509938 -1.86238503
v 1.28773081 1.83463895 -1.31378746
v 1.09053946 1.5509938 -1.86238503
v 0.988660336 1.31912577 -1.71979153
v 0.405945182 1.62596631 -1.66340435
v 0.519140244 1.85130608 -1.80308294
v 0.4857651 1.44674706 -1.51976991
v 0.364322037 1.21048832 -1.35640085
v 0.329601139 1.26564419 -1.2997911
v 0.445854217 1.50975978 -1.45425224
v 0.419716328 1.51983118 -1.62704039
v 0.383988708 1.57912028 -1.56498587
v 0.583472788 1.87965906 -1.8699404
v 0.548149467 1.93808985 -1.81182802
v 0.580869913 1.88747585 -1.87797189
v 0.546164215 1.94351661 -1.81919122
v 0.429378808 1.8890425 -1.97272325
v 0.39301753 1.94607234 -1.9130342
v 0.355961144 1.93918586 -1.92927229
v 0.392070532 1.88227201 -1.98874903
v 0.322867781 1.91956127 -1.93075645
v 0.358734697 1.86277688 -1.99004471
v 0.301357478 1.89108682 -1.91676676
v 0.336894065 1.8345747 -1.9757421
v 0.168443739 1.46740353 -1.72730446
v 0.131682426 1.52581918 -1.6670661
v 0.172454491 1.45528686 -1.71433198
v 0.132995784 1.51580918 -1.65669882
v 0.364322037 1.21048832 -1.35640085
v 0.329601139 1.26564419 -1.2997911
v 0.546164215 1.94351661 -1.81919122
v 0.355961144 1.93918586 -1.92927229
v 0.39301753 1.94607234 -1.9130342
v 0.322867781 1.91956127 -1.93075645
v 0.301357478 1.89108682 -1.91676676
v 0.548149467 1.93808985 -1.81182802
v 0.383988708 1.57912028 -1.56498587
v 0.131682426 1.52581918 -1.6670661
v 0.445854217 1.50975978 -1.45425224
v 0.132995784 1.51580918 -1.65669882
v 0.329601139 1.26564419 -1.2997911
v 0.429378808 1.8890425 -1.97272325
v 0.392070532 1.88227201 -1.98874903
v 0.580869913 1.88747585 -1.87797189
v 0.358734697 1.86277688 -1.99004471
v 0.336894065 1.8345747 -1.9757421
v 0.583472788 1.87965906 -1.8699404
v 0.419716328 1.51983118 -1.62704039
v 0.168443739 1.46740353 -1.72730446
v 0.4857651 1.44674706 -1.51976991
v 0.172454491 1.45528686 -1.71433198
v 0.364322037 1.21048832 -1.35640085
v 0.72694093 1.01963317 -1.38843501
v 0.915939987 1.26285636 -1.49636376
v 0.810400367 1.01807427 -1.33469474
v 0.837489367 1.26620173 -1.54573953
v 0.993804455 1.26244867 -1.61632478
v 0.913945973 1.26496172 -1.66730309
v 1.15699744 1.62451577 -1.86307549
v 1.08122087 1.62656307 -1.91007948
v 1.16257334 1.62554824 -1.87370265
v 1.08683777 1.62871218 -1.91954565
v 1.2368145 1.5079025 -1.98953915
v 1.15974414 1.50962448 -2.03919768
v 1.1723156 1.47550964 -2.05876493
v 1.2487551 1.4737016 -2.0082202
v 1.17335176 1.43803644 -2.06128168
v 1.24941421 1.43592179 -2.01097536
v 1.16345918 1.4042567 -2.04735565
v 1.23925602 1.40212953 -1.99882424
v 1.07586634 1.03942323 -1.75445306
v 0.999498665 1.04170752 -1.80457485
v 1.06825531 1.03229797 -1.74298143
v 0.991173089 1.03347421 -1.79142952
v 0.810400367 1.01807427 -1.33469474
v 0.72694093 1.01963317 -1.38843501
v 1.2368145 1.5079025 -1.98953915
v 1.2487551 1.4737016 -2.0082202
v 1.16257334 1.62554824 -1.87370265
v 1.24941421 1.43592179 -2.01097536
v 1.23925602 1.40212953 -1.99882424
v 1.15699744 1.62451577 -1.86307549
v 0.993804455 1.26244867 -1.61632478
v 1.07586634 1.03942323 -1.75445306
v 0.915939987 1.26285636 -1.49636376
v 1.06825531 1.03229797 -1.74298143
v 0.810400367 1.01807427 -1.33469474
v 1.08683777 1.62871218 -1.91954565
v 1.1723156 1.47550964 -2.05876493
v 1.15974414 1.50962448 -2.03919768
v 1.17335176 1.43803644 -2.06128168
v 1.16345918 1.4042567 -2.04735565
v 1.08122087 1.62656307 -1.91007948
v 0.913945973 1.26496172 -1.66730309
v 0.999498665 1.04170752 -1.80457485
v 0.837489367 1.26620173 -1.54573953
v 0.991173089 1.03347421 -1.79142952
v 0.72694093 1.01963317 -1.38843501
v 0.697761655 1.30065477 -1.5892936
v 0.582353413 1.36090577 -1.57872987
v 0.470298976 1.12234628 -1.42340958
v 0.58874929 1.05975163 -1.43411756
v 0.819601893 1.26660097 -1.55690277
v 0.36604479 0.984466672 -1.46531272
v 0.713756263 1.02245069 -1.40053463
v 0.929681897 1.26333356 -1.48634851
v 0.529527903 0.898289323 -1.48010194
v 0.826006532 1.01686943 -1.32844603
v 1.01098704 1.29243517 -1.3885572
v 0.512985945 0.85757041 -1.47600043
v 0.342584461 0.947308779 -1.4608897
v 0.106622495 0.479360044 -1.20742416
v 0.701572776 0.848839462 -1.43378425
v 0.908905983 1.04612923 -1.22916138
v 1.05141294 1.34936535 -1.27833009
v 0.692057312 0.806747973 -1.42732418
v 0.298465043 0.379745513 -1.22495997
v 0.856247902 0.841897249 -1.33381677
v 0.950662792 1.10493743 -1.11686432
v 1.04467475 1.42572141 -1.17205751
v 0.852235556 0.800773144 -1.32262301
v 0.970275581 0.881932259 -1.19673741
v 0.944171667 1.1847229 -1.00824106
v 0.99131918 1.50977826 -1.08613718
v 0.285266995 0.344249189 -1.23649359
v 0.083573781 0.449880719 -1.21781349
v 0.500910997 0.324553072 -1.17096806
v 0.970235407 0.842623353 -1.18018687
v 1.02781439 0.963081539 -1.04171133
v 0.889197052 1.27275062 -0.91944319
v 0.900055349 1.58776665 -1.03383088
v 0.203532055 0.160528809 -1.14085841
v 0.426320136 0.0990194604 -1.08276534
v -0.00683796965 0.270831317 -1.12175357
v -0.00190160004 0.259866238 -1.0822022
v 0.198459893 0.156490594 -1.10176027
v 1.03029442 0.926340938 -1.01932132
v 1.0183686 1.07385826 -0.891758263
v 0.794972301 1.35308754 -0.864018202
v 0.784575701 1.64841712 -1.02304173
v -0.0208995882 -0.33514899 -0.825971425
v -0.237357512 -0.222336978 -0.806372583
v -0.268640369 -0.29758811 -0.749380112
v -0.0548309498 -0.408456147 -0.768788517
v -0.288859844 -0.362043798 -0.676139116
v 0.207252651 -0.398608208 -0.765341401
v 1.02166116 1.04100358 -0.863200366
v 0.94219166 1.19468844 -0.76977551
v 0.410343021 0.0983253717 -1.0466671
v 0.943064809 1.16685522 -0.735995591
v -0.0848973244 -0.467737228 -0.694630742
v 0.170219317 -0.471375644 -0.708647549
v 0.41371429 -0.40438205 -0.632007539
v 0.601696551 0.0944243893 -0.924286485
v -0.116727769 -0.522889376 -0.584537923
v -0.300021231 -0.427747756 -0.568184555
v -0.139753133 -0.552843273 -0.465969771
v -0.295226991 -0.472097576 -0.451967865
v -0.156326652 -0.55645448 -0.310254008
v -0.268450558 -0.49800536 -0.299925387
v -0.228959292 -0.495244026 -0.169711754
v 0.374341995 -0.477250665 -0.576294303
v 0.129735261 -0.527668655 -0.637159109
v 0.0761915445 -0.576500714 -0.533117414
v 0.0238863192 -0.598298848 -0.422319293
v -0.0381269604 -0.589302182 -0.278737932
v -0.1598901 -0.531437933 -0.176149473
v 0.566743374 -0.349272639 -0.447248369
v -0.155726522 -0.496538609 -0.0842192993
v -0.191568539 -0.477694869 -0.0809051841
v -0.146115884 -0.447565973 0.00692653982
v -0.118056826 -0.507128835 -0.0741967261
v -0.0871204138 -0.551768005 -0.156798929
v 0.0689431727 -0.591606796 -0.209811211
v -0.0842641369 -0.50789243 -0.0523411408
v -0.0216425899 -0.553229511 -0.114585862
v 0.172122896 -0.601729393 -0.325986981
v -0.0595275387 -0.49871245 -0.0219702907
v 0.147903025 -0.562835157 -0.114301622
v 0.250752777 -0.580992162 -0.419264555
v 0.0263823196 -0.53559953 -0.0559586622
v 0.282366753 -0.561751902 -0.193118095
v 0.324049383 -0.533254385 -0.510434389
v -0.0476336479 -0.480981916 0.0122742495
v 0.186991826 -0.507351339 -0.00663443003
v 0.380500674 -0.534107387 -0.262234151
v 0.525752604 -0.42286548 -0.393243134
v 0.0495539382 -0.501531005 0.0102037294
v -0.0503765196 -0.457375586 0.0451675691
v 0.338863522 -0.48388359 -0.0438763984
v 0.468424797 -0.481344104 -0.335662216
v -0.0672916323 -0.431461543 0.0716841221
v -0.0957567543 -0.407196462 0.0877855271
v -0.131554961 -0.388270944 0.0909934193
v 0.179383472 -0.433442563 0.0971279889
v 0.0443000868 -0.456105113 0.0738170967
v 0.447761416 -0.441503406 -0.0865655243
v 0.0115890997 -0.406156987 0.125055954
v 0.125751138 -0.35225299 0.180877507
v 0.330215663 -0.380846083 0.0999715775
v -0.0434015319 -0.359321803 0.1560691
v 0.0353203304 -0.275919914 0.231562033
v 0.256557107 -0.268309772 0.216993153
v 0.438787043 -0.319247782 0.0824303254
v 0.542925715 -0.377574265 -0.14039515
v 0.602874339 -0.314090073 -0.188468397
v 0.643613935 -0.239539012 -0.240105391
v 0.742122114 0.145641521 -0.753779948
v 0.627280951 0.0946790874 -0.953676939
v 0.130356833 -0.162023783 0.288317144
v 0.353269875 -0.186737612 0.220247477
v 0.532677948 -0.241043225 0.0471476391
v 0.591270089 -0.171314165 0.0080893198
v 0.630937636 -0.0959423035 -0.0412135497
v 0.810270131 0.242257208 -0.563213408
v -0.0789145902 -0.216769755 0.240769669
v -0.112614743 -0.322811812 0.162045091
v -0.169234157 -0.37757346 0.0808457732
v 0.492825866 -0.0171319786 0.16780445
v 0.531392097 0.0597813055 0.119906813
v 0.798944175 0.37121433 -0.380604684
v 0.834683836 0.386465371 -0.382405192
v 0.708065927 0.515889406 -0.230792463
v 0.438676357 -0.0939064547 0.199765787
v 0.359225959 0.206638083 0.218868047
v 0.846737325 0.250696778 -0.574121177
v 0.205120653 -0.061314337 0.305052698
v 0.322255194 0.128507063 0.266164571
v 0.775122046 0.148531705 -0.774374366
v 0.83347255 0.333315849 -0.885128736
v 0.902925313 0.429445624 -0.69240433
v -0.0305347983 -0.0795678347 0.301487237
v 0.275126845 0.0454365909 0.294163346
v 0.691538632 0.282783687 -1.05685282
v -0.198412776 -0.183428854 0.207590461
v 0.0151061993 0.0362153687 0.321528554
v 0.498886108 0.286259353 -1.18026996
v 0.683501184 0.321312666 -1.05372822
v 0.818403602 0.369267106 -0.891167402
v 0.885773301 0.460854799 -0.708929658
v 0.891913891 0.560058832 -0.508073032
v 0.875156283 0.585484624 -0.534070015
v 0.800213575 0.707945406 -0.358028412
v 0.786991537 0.724993527 -0.391906947
v 0.739967048 0.539577484 -0.224745274
v 0.808121562 1.27799582 -0.655988693
v 0.639816523 0.844244838 -0.26412043
v 0.549723625 0.653120279 -0.13912943
v 0.635622144 0.854495883 -0.301333427
v 0.813523173 1.30263531 -0.692486703
v 0.572868228 0.682813466 -0.12782748
v 0.361339211 0.792719185 -0.107709579
v 0.140994549 0.320782304 0.239234328
v 0.637918055 1.36492443 -0.637669027
v 0.67654556 1.41491938 -0.851863205
v 0.662391126 1.68255627 -1.055457
v 0.43590194 0.947086155 -0.240750253
v 0.65016073 1.38719726 -0.674497068
v 0.551426351 1.45033896 -0.886193573
v 0.552312016 1.68495607 -1.12604463
v 0.442977905 0.955523193 -0.279261291
v 0.458525956 1.41740692 -0.687400341
v 0.477348536 1.43678129 -0.722884297
v 0.439107418 1.45342064 -0.960012257
v 0.470931917 1.65528226 -1.22411263
v 0.236290619 1.01316535 -0.337759703
v 0.297625035 1.42374647 -0.794747055
v 0.356234699 1.42329204 -1.06101441
v 0.430696636 1.59801054 -1.33476603
v 0.322798222 1.44130766 -0.826167643
v 0.3153916 1.36479807 -1.17436981
v 0.437794685 1.52192879 -1.44101655
v 0.208802164 1.39973843 -0.965572238
v 0.17846176 1.38073432 -0.939980149
v 0.322766513 1.28711772 -1.28284562
v 0.491076678 1.43866515 -1.52667153
v 0.152593106 1.31898391 -1.12209857
v 0.377029449 1.20217681 -1.37014329
v 0.582353413 1.36090577 -1.57872987
v 0.470298976 1.12234628 -1.42340958
v 0.162752643 1.2117933 -1.27159941
v 0.237382993 1.09471428 -1.3917855
v 0.36604479 0.984466672 -1.46531272
v 0.342584461 0.947308779 -1.4608897
v 0.11976739 1.29663551 -1.1034044
v 0.130564108 1.18486142 -1.25943971
v 0.208529949 1.06268799 -1.38463402
v -0.0426631011 0.60801971 -1.1215539
v 0.106622495 0.479360044 -1.20742416
v 0.083573781 0.449880719 -1.21781349
v -0.128071636 0.746221244 -0.982311785
v -0.14143832 0.871127248 -0.809420466
v -0.0785997584 0.965658069 -0.627040207
v -0.0745449662 0.585030198 -1.1278367
v -0.178021297 0.863243461 -0.798855424
v 0.0530261993 1.0160774 -0.461235583
v -0.111801431 0.963083982 -0.606577933
v -0.283617288 0.703685284 -0.684661865
v -0.166205958 0.730033457 -0.980881274
v -0.172377169 0.411488473 -1.02772832
v -0.00683796965 0.270831317 -1.12175357
v -0.00190160004 0.259866238 -1.0822022
v -0.269418597 0.563037694 -0.874999166
v -0.158691451 0.395775378 -0.995548129
v -0.237357512 -0.222336978 -0.806372583
v 0.0266669299 1.01558053 -0.431652814
v -0.252017409 0.539786041 -0.850440323
v -0.41054213 -0.0761372373 -0.707960129
v -0.213674635 0.806876361 -0.482143283
v 0.219332427 1.00984871 -0.301234394
v -0.0670303106 0.859887421 -0.300161034
v 0.135280684 0.853820801 -0.168069929
v 0.13310568 0.815824866 -0.1763414
v -0.0586510785 0.821430743 -0.302990079
v -0.199076682 0.770991743 -0.475834906
v -0.266750395 0.671949387 -0.668022811
v -0.511594117 0.0801861137 -0.545989215
v 0.34772861 0.755834818 -0.118529499
v -0.0914893225 0.384840846 0.176976025
v -0.299341679 0.388146996 0.042080339
v -0.525116026 0.223314792 -0.345616758
v 0.103988633 0.242272124 0.286484212
v -0.127759606 0.305561572 0.223703325
v 0.0650591105 0.154196471 0.31344071
v -0.449877113 0.331264973 -0.139762551
v -0.481079459 0.251022309 -0.0905990377
v -0.554594934 0.14376612 -0.29293716
v -0.333572924 0.308306336 0.0888501704
v -0.157327756 0.214367345 0.25251171
v -0.184690312 0.0903896764 0.265853018
v -0.353408933 0.217224345 0.122807592
v -0.493004978 0.162127897 -0.0484570861
v -0.359973848 0.0935042948 0.14931342
v -0.540974557 0.00199680007 -0.4913809
v -0.198876321 -0.0334862992 0.254156053
v -0.346611083 -0.0303098094 0.156042397
v -0.304238886 -0.180931732 0.138136342
v -0.484763622 0.0442783199 -0.0051574097
v -0.562126338 0.0595166013 -0.240304172
v -0.440610051 -0.152747482 -0.651988983
v -0.268640369 -0.29758811 -0.749380112
v -0.549066663 -0.075868465 -0.429659158
v -0.453160554 -0.224006101 -0.582937896
v -0.288859844 -0.362043798 -0.676139116
v -0.300021231 -0.427747756 -0.568184555
v -0.44762519 -0.303574622 -0.48443687
v -0.295226991 -0.472097576 -0.451967865
v -0.545839548 -0.0479991473 -0.177067414
v -0.533999741 -0.169834465 -0.346819937
v -0.420271337 -0.366615742 -0.381140292
v -0.268450558 -0.49800536 -0.299925387
v -0.493611604 -0.252921462 -0.264728814
v -0.503784537 -0.14950268 -0.121105827
v -0.358117282 -0.422050416 -0.249044433
v -0.452353746 -0.0713470206 0.0249051191
v -0.410797596 -0.340373427 -0.165518835
v -0.283936352 -0.448524326 -0.138516545
v -0.228959292 -0.495244026 -0.169711754
v -0.191568539 -0.477694869 -0.0809051841
v -0.418263793 -0.265904605 -0.0622405261
v -0.316253096 -0.398468554 -0.0873369873
v -0.220110416 -0.453447908 -0.0647791177
v -0.321011484 -0.352772176 -0.0239968803
v -0.236961037 -0.42750448 -0.0382939689
v -0.381105185 -0.209812343 0.0435888171
v -0.239598319 -0.403805375 -0.00548513001
v -0.29792887 -0.318392992 0.0416023396
v -0.2504462 -0.300636888 0.0998397171
v -0.227652967 -0.385985106 0.02865302
v -0.202958897 -0.376770556 0.0589551404
v -0.18542549 -0.302195489 0.142183185
v 1.33448982 1.87624753 -1.38516152
v 1.44790542 1.92626917 -1.23031163
v 1.30015576 1.93120599 -1.32629609
v 1.48315334 1.86987495 -1.28860533
v 1.51380765 1.86196768 -1.26231599
v 1.47840416 1.91852093 -1.20366836
v 1.52942717 1.84135962 -1.23416686
v 1.49396002 1.89879966 -1.17460573
v 1.52606821 1.81287181 -1.20983303
v 1.49057341 1.87068725 -1.14928198
v 1.32290232 1.50307488 -0.899258494
v 1.35814559 1.44313395 -0.956323504
v 1.31047821 1.4913981 -0.894897282
v 1.34678328 1.43297791 -0.954480827
v 0.897393882 1.25963998 -0.930666685
v 0.932882845 1.20151842 -0.988942981
v 1.30015576 1.93120599 -1.32629609
v 1.32774401 1.86828232 -1.38350093
v 1.33448982 1.87624753 -1.38516152
v 1.29173279 1.92482209 -1.32363582
v 1.16166794 1.50727332 -1.14237666
v 1.12575114 1.56778455 -1.0823971
v 1.03615069 1.43936992 -1.15740335
v 0.998330653 1.49929965 -1.0976485
v 0.932882845 1.20151842 -0.988942981
v 0.897393882 1.25963998 -0.930666685
v 1.44790542 1.92626917 -1.23031163
v 1.47840416 1.91852093 -1.20366836
v 1.30015576 1.93120599 -1.32629609
v 1.49396002 1.89879966 -1.17460573
v 1.49057341 1.87068725 -1.14928198
v 1.29173279 1.92482209 -1.32363582
v 1.12575114 1.56778455 -1.0823971
v 1.32290232 1.50307488 -0.899258494
v 0.998330653 1.49929965 -1.0976485
v 1.31047821 1.4913981 -0.894897282
v 0.897393882 1.25963998 -0.930666685
v 0.932882845 1.20151842 -0.988942981
v 1.34678328 1.43297791 -0.954480827
v 1.03615069 1.43936992 -1.15740335
v 1.35814559 1.44313395 -0.956323504
v 1.16166794 1.50727332 -1.14237666
v 1.52606821 1.81287181 -1.20983303
v 1.32774401 1.86828232 -1.38350093
v 1.33448982 1.87624753 -1.38516152
v 1.52942717 1.84135962 -1.23416686
v 1.51380765 1.86196768 -1.26231599
v 1.48315334 1.86987495 -1.28860533
v 0.571303129 1.6840713 -1.11466968
v 0.458682746 1.45141566 -0.947091103
v 0.530659914 1.44966125 -0.899312258
v 0.646549284 1.68324983 -1.06463647
v 0.554763198 1.83008981 -1.08833385
v 0.632268012 1.82918394 -1.03667521
v 0.72160691 2.19239259 -1.33022654
v 0.797086716 2.19056034 -1.28094077
v 0.722220242 2.20235682 -1.3289609
v 0.796626031 2.20032406 -1.2802552
v 0.646714687 2.31005192 -1.21482527
v 0.723572552 2.30840659 -1.16630054
v 0.700222373 2.32847428 -1.12914252
v 0.625575483 2.32859945 -1.18303943
v 0.684084535 2.32693791 -1.1039989
v 0.603643537 2.32614803 -1.1510911
v 0.668573737 2.30958509 -1.0797168
v 0.589853168 2.3096962 -1.12714505
v 0.41766876 1.94265366 -0.875787735
v 0.492908806 1.93997252 -0.82555145
v 0.414934963 1.92447948 -0.872688591
v 0.491921365 1.9253155 -0.822731256
v 0.458682746 1.45141566 -0.947091103
v 0.530659914 1.44966125 -0.899312258
v 0.530659914 1.44966125 -0.899312258
v 0.491921365 1.9253155 -0.822731256
v 0.646549284 1.68324983 -1.06463647
v 0.492908806 1.93997252 -0.82555145
v 0.632268012 1.82918394 -1.03667521
v 0.668573737 2.30958509 -1.0797168
v 0.797086716 2.19056034 -1.28094077
v 0.796626031 2.20032406 -1.2802552
v 0.684084535 2.32693791 -1.1039989
v 0.700222373 2.32847428 -1.12914252
v 0.723572552 2.30840659 -1.16630054
v 0.646714687 2.31005192 -1.21482527
v 0.625575483 2.32859945 -1.18303943
v 0.722220242 2.20235682 -1.3289609
v 0.603643537 2.32614803 -1.1510911
v 0.589853168 2.3096962 -1.12714505
v 0.72160691 2.19239259 -1.33022654
v 0.554763198 1.83008981 -1.08833385
v 0.41766876 1.94265366 -0.875787735
v 0.571303129 1.6840713 -1.11466968
v 0.414934963 1.92447948 -0.872688591
v 0.458682746 1.45141566 -0.947091103
v 0.747604966 1.47463202 -1.31416106
v 0.99131918 1.50977826 -1.08613718
v 0.900055349 1.58776665 -1.03383088
v 0.784575701 1.64841712 -1.02304173
v 1.04467475 1.42572141 -1.17205751
v 0.662391126 1.68255627 -1.055457
v 1.05141294 1.34936535 -1.27833009
v 0.552312016 1.68495607 -1.12604463
v 1.01098704 1.29243517 -1.3885572
v 0.470931917 1.65528226 -1.22411263
v 0.929681897 1.26333356 -1.48634851
v 0.430696636 1.59801054 -1.33476603
v 0.819601893 1.26660097 -1.55690277
v 0.437794685 1.52192879 -1.44101655
v 0.697761655 1.30065477 -1.5892936
v 0.491076678 1.43866515 -1.52667153
v 0.582353413 1.36090577 -1.57872987
vt 0.625 0.80859375
vt 0.625 0.975097656
vt 0.689453125 0.975097656
vt 0.688964844 0.809570312
vt 0.755859375 0.649414062
vt 0.755859375 0.813476562
vt 0.819335938 0.815429688
vt 0.8203125 0.649902344
vt 0.833007812 0.649902344
vt 0.832519531 0.813964844
vt 0.895996094 0.815429688
vt 0.895996094 0.650390625
vt 0.443603516 0.817382812
vt 0.443603516 0.969238281
vt 0.452392578 0.975097656
vt 0.451171875 0.810546875
vt 0.428955078 0.818847656
vt 0.428955078 0.969238281
vt 0.435058594 0.9765625
vt 0.434814453 0.810058594
vt 0.516113281 0.812011719
vt 0.516113281 0.965332031
vt 0.524414062 0.970214844
vt 0.5234375 0.806152344
vt 0.545410156 0.811523438
vt 0.545410156 0.978515625
vt 0.608398438 0.978515625
vt 0.608886719 0.813476562
vt 0.411132812 0.817382812
vt 0.411132812 0.969238281
vt 0.418212891 0.9765625
vt 0.416503906 0.809570312
vt 0.390869141 0.811523438
vt 0.390869141 0.9765625
vt 0.399658203 0.967773438
vt 0.401123047 0.8203125
vt 0.504882812 0.812988281
vt 0.49609375 0.804199219
vt 0.49609375 0.969726562
vt 0.504882812 0.960449219
vt 0.768554688 0.83203125
vt 0.703125 0.828613281
vt 0.702148438 0.98046875
vt 0.768554688 0.979003906
vt 0.478027344 0.806640625
vt 0.478027344 0.971679688
vt 0.486816406 0.961425781
vt 0.486328125 0.814941406
vt 0.927734375 0.834472656
vt 0.861328125 0.833007812
vt 0.861328125 0.985351562
vt 0.927734375 0.982421875
vt 0.461425781 0.810058594
vt 0.461425781 0.975097656
vt 0.469482422 0.966796875
vt 0.470458984 0.818359375
vt 0.675292969 0.64453125
vt 0.675292969 0.797363281
vt 0.741699219 0.794921875
vt 0.741699219 0.646972656
vt 0.84765625 0.834960938
vt 0.781738281 0.833984375
vt 0.781738281 0.984375
vt 0.847167969 0.982910156
vt 0.955566406 0.470458984
vt 0.953125 0.399169922
vt 0.933105469 0.399414062
vt 0.932617188 0.470703125
vt 0.955566406 0.501464844
vt 0.934082031 0.501953125
vt 0.954589844 0.607421875
vt 0.934082031 0.607910156
vt 0.954589844 0.609863281
vt 0.934082031 0.609863281
vt 0.954589844 0.650390625
vt 0.934082031 0.650878906
vt 0.934570312 0.66015625
vt 0.954589844 0.66015625
vt 0.934570312 0.668945312
vt 0.954589844 0.668945312
vt 0.934570312 0.677734375
vt 0.954589844 0.677734375
vt 0.955078125 0.785644531
vt 0.934570312 0.785644531
vt 0.955566406 0.789550781
vt 0.934570312 0.788574219
vt 0.955078125 0.897460938
vt 0.935546875 0.897460938
vt 0.740722656 0.237426758
vt 0.690917969 0.235717773
vt 0.699707031 0.237792969
vt 0.684082031 0.229980469
vt 0.681640625 0.221557617
vt 0.7421875 0.235717773
vt 0.739746094 0.129638672
vt 0.678710938 0.113708496
vt 0.762695312 0.108886719
vt 0.680175781 0.110778809
vt 0.760742188 0.0377502441
vt 0.832519531 0.428222656
vt 0.841796875 0.426269531
vt 0.791992188 0.427490234
vt 0.848144531 0.420410156
vt 0.851074219 0.412109375
vt 0.790527344 0.425292969
vt 0.793945312 0.319580078
vt 0.854492188 0.304199219
vt 0.770507812 0.298828125
vt 0.852050781 0.30078125
vt 0.772949219 0.227539062
vt 0.869140625 0.137695312
vt 0.889160156 0.209594727
vt 0.891601562 0.138305664
vt 0.868164062 0.209228516
vt 0.888671875 0.239990234
vt 0.8671875 0.239746094
vt 0.886230469 0.346435547
vt 0.866210938 0.345947266
vt 0.886230469 0.349121094
vt 0.865722656 0.348632812
vt 0.886230469 0.390380859
vt 0.865722656 0.390380859
vt 0.865722656 0.399902344
vt 0.88671875 0.399658203
vt 0.865722656 0.408447266
vt 0.88671875 0.408447266
vt 0.865722656 0.416992188
vt 0.886230469 0.416748047
vt 0.887695312 0.522949219
vt 0.866699219 0.522949219
vt 0.887695312 0.526855469
vt 0.8671875 0.52734375
vt 0.890136719 0.63671875
vt 0.8671875 0.63671875
vt 0.0172119141 0.974121094
vt 0.0199584961 0.982910156
vt 0.0166473389 0.933105469
vt 0.0261993408 0.988769531
vt 0.0343933105 0.991210938
vt 0.0185699463 0.931152344
vt 0.125 0.931640625
vt 0.14074707 0.992675781
vt 0.145385742 0.909179688
vt 0.143920898 0.991210938
vt 0.216796875 0.908691406
vt 0.788574219 0.437255859
vt 0.839355469 0.438964844
vt 0.830566406 0.436767578
vt 0.845703125 0.445068359
vt 0.84765625 0.453369141
vt 0.787109375 0.439208984
vt 0.790527344 0.545410156
vt 0.8515625 0.559570312
vt 0.768066406 0.565917969
vt 0.850097656 0.563476562
vt 0.76953125 0.637695312
vt 0.659179688 0.131958008
vt 0.663085938 0.100219727
vt 0.589355469 0.0823974609
vt 0.584472656 0.115539551
vt 0.657226562 0.166015625
vt 0.545898438 0.0553283691
vt 0.582519531 0.152587891
vt 0.657226562 0.202636719
vt 0.539550781 0.0978393555
vt 0.583496094 0.191894531
vt 0.658691406 0.241943359
vt 0.527832031 0.0941772461
vt 0.533691406 0.0495605469
vt 0.364257812 0.0186309814
vt 0.538574219 0.140625
vt 0.586425781 0.232788086
vt 0.66015625 0.282958984
vt 0.527832031 0.138183594
vt 0.369140625 0.0677490234
vt 0.540527344 0.183227539
vt 0.588867188 0.275634766
vt 0.661621094 0.325683594
vt 0.530273438 0.181396484
vt 0.544433594 0.22644043
vt 0.591308594 0.3203125
vt 0.663085938 0.369140625
vt 0.357910156 0.0674438477
vt 0.351074219 0.0171051025
vt 0.379638672 0.116699219
vt 0.534667969 0.225219727
vt 0.549804688 0.271240234
vt 0.592773438 0.366455078
vt 0.663574219 0.413085938
vt 0.294677734 0.073425293
vt 0.3125 0.122131348
vt 0.277099609 0.0209350586
vt 0.263916016 0.0252838135
vt 0.283691406 0.0753173828
vt 0.540039062 0.270263672
vt 0.553710938 0.317871094
vt 0.594238281 0.412597656
vt 0.663085938 0.457275391
vt 0.123596191 0.137939453
vt 0.0885620117 0.0999145508
vt 0.0631103516 0.124328613
vt 0.102600098 0.156982422
vt 0.0414123535 0.152099609
vt 0.156982422 0.172607422
vt 0.544433594 0.317382812
vt 0.556640625 0.365478516
vt 0.302490234 0.123901367
vt 0.547363281 0.365234375
vt 0.0833740234 0.178100586
vt 0.136962891 0.1875
vt 0.186645508 0.209716797
vt 0.321533203 0.169677734
vt 0.0631103516 0.208496094
vt 0.0197906494 0.192016602
vt 0.0473022461 0.241821289
vt 0.00981903076 0.235839844
vt 0.0379333496 0.288818359
vt 0.0110778809 0.292236328
vt 0.0245056152 0.33984375
vt 0.167114258 0.221557617
vt 0.118530273 0.204589844
vt 0.0975952148 0.228881836
vt 0.0803222656 0.255615234
vt 0.0628051758 0.294433594
vt 0.0397949219 0.333007812
vt 0.211303711 0.248291016
vt 0.0475769043 0.3671875
vt 0.0407409668 0.372558594
vt 0.062286377 0.412841797
vt 0.0558166504 0.365966797
vt 0.0559082031 0.333496094
vt 0.0856323242 0.306396484
vt 0.0642089844 0.368408203
vt 0.0711669922 0.339355469
vt 0.106994629 0.275146484
vt 0.0718383789 0.374023438
vt 0.104675293 0.322753906
vt 0.126586914 0.253662109
vt 0.0843505859 0.349609375
vt 0.129394531 0.298095703
vt 0.1484375 0.234741211
vt 0.0784912109 0.381591797
vt 0.118652344 0.342285156
vt 0.150512695 0.281738281
vt 0.192016602 0.256591797
vt 0.0944213867 0.362792969
vt 0.0835571289 0.391113281
vt 0.147460938 0.323730469
vt 0.173217773 0.266845703
vt 0.0867919922 0.401611328
vt 0.0881958008 0.412597656
vt 0.0870361328 0.423583984
vt 0.12902832 0.364257812
vt 0.102416992 0.378173828
vt 0.170288086 0.311279297
vt 0.10736084 0.394775391
vt 0.135253906 0.387695312
vt 0.159667969 0.3515625
vt 0.109130859 0.412353516
vt 0.137451172 0.411865234
vt 0.166992188 0.381103516
vt 0.184204102 0.343017578
vt 0.194213867 0.300292969
vt 0.213378906 0.292724609
vt 0.232788086 0.285888672
vt 0.338623047 0.216308594
vt 0.330322266 0.168457031
vt 0.169189453 0.411376953
vt 0.191894531 0.376464844
vt 0.208862305 0.3359375
vt 0.228027344 0.331054688
vt 0.247070312 0.326904297
vt 0.351318359 0.264892578
vt 0.135375977 0.436279297
vt 0.108093262 0.4296875
vt 0.0838623047 0.434082031
vt 0.236328125 0.370361328
vt 0.255371094 0.368652344
vt 0.362304688 0.312255859
vt 0.369628906 0.312011719
vt 0.369873047 0.361083984
vt 0.216918945 0.372802734
vt 0.2578125 0.410888672
vt 0.359130859 0.264160156
vt 0.194335938 0.410888672
vt 0.239013672 0.410644531
vt 0.346679688 0.215698242
vt 0.395263672 0.213745117
vt 0.405517578 0.262207031
vt 0.166137695 0.442138672
vt 0.219604492 0.410644531
vt 0.3828125 0.165649414
vt 0.12890625 0.459716797
vt 0.191040039 0.445800781
vt 0.369628906 0.116882324
vt 0.391845703 0.165649414
vt 0.403808594 0.213989258
vt 0.413574219 0.262451172
vt 0.414550781 0.310546875
vt 0.422607422 0.310791016
vt 0.420654297 0.360595703
vt 0.428466797 0.360595703
vt 0.377685547 0.361083984
vt 0.547363281 0.412353516
vt 0.422607422 0.410888672
vt 0.372802734 0.410888672
vt 0.429931641 0.410888672
vt 0.556640625 0.412353516
vt 0.380126953 0.411132812
vt 0.378173828 0.460693359
vt 0.254150391 0.452636719
vt 0.545898438 0.459472656
vt 0.594238281 0.458251953
vt 0.661621094 0.500976562
vt 0.420166016 0.461425781
vt 0.555175781 0.459228516
vt 0.591796875 0.503417969
vt 0.659179688 0.543457031
vt 0.427734375 0.461425781
vt 0.543457031 0.506835938
vt 0.553222656 0.506347656
vt 0.588867188 0.547851562
vt 0.657226562 0.583984375
vt 0.422851562 0.512207031
vt 0.540039062 0.553222656
vt 0.5859375 0.591308594
vt 0.655761719 0.623046875
vt 0.549804688 0.552246094
vt 0.582519531 0.633300781
vt 0.655761719 0.659667969
vt 0.545410156 0.59765625
vt 0.535644531 0.599121094
vt 0.58203125 0.673339844
vt 0.657714844 0.693359375
vt 0.541992188 0.642089844
vt 0.583496094 0.710449219
vt 0.661621094 0.724609375
vt 0.588867188 0.743652344
vt 0.538085938 0.685546875
vt 0.537597656 0.728027344
vt 0.54296875 0.770996094
vt 0.530761719 0.776367188
vt 0.53125 0.644042969
vt 0.52734375 0.687988281
vt 0.526367188 0.731933594
vt 0.367675781 0.755371094
vt 0.361083984 0.8046875
vt 0.348144531 0.806640625
vt 0.379150391 0.70703125
vt 0.391357422 0.659179688
vt 0.403808594 0.611328125
vt 0.356445312 0.754882812
vt 0.382324219 0.658691406
vt 0.414794922 0.562988281
vt 0.395263672 0.611328125
vt 0.330566406 0.655761719
vt 0.368896484 0.706542969
vt 0.293945312 0.748535156
vt 0.275390625 0.798828125
vt 0.262451172 0.794921875
vt 0.312011719 0.702148438
vt 0.283447266 0.746582031
vt 0.0884399414 0.724121094
vt 0.406738281 0.5625
vt 0.302734375 0.700683594
vt 0.124694824 0.686035156
vt 0.346679688 0.607910156
vt 0.414794922 0.512207031
vt 0.360351562 0.559570312
vt 0.370849609 0.510742188
vt 0.36328125 0.510253906
vt 0.352539062 0.559082031
vt 0.338134766 0.607421875
vt 0.321533203 0.654296875
vt 0.158813477 0.648925781
vt 0.370605469 0.460449219
vt 0.246459961 0.494628906
vt 0.232666016 0.535644531
vt 0.188598633 0.611816406
vt 0.235351562 0.450927734
vt 0.227172852 0.491210938
vt 0.216064453 0.448974609
vt 0.213256836 0.57421875
vt 0.193847656 0.565917969
vt 0.168823242 0.600585938
vt 0.213256836 0.529785156
vt 0.207641602 0.486816406
vt 0.182739258 0.480224609
vt 0.194091797 0.522949219
vt 0.174926758 0.556152344
vt 0.170043945 0.512695312
vt 0.138671875 0.634277344
vt 0.158935547 0.472167969
vt 0.146606445 0.500488281
vt 0.118530273 0.481689453
vt 0.151733398 0.541992188
vt 0.150146484 0.587890625
vt 0.103759766 0.666992188
vt 0.0638427734 0.699707031
vt 0.119750977 0.618164062
vt 0.0846557617 0.645996094
vt 0.0437316895 0.671875
vt 0.0229187012 0.633300781
vt 0.0641479492 0.615722656
vt 0.0110855103 0.591308594
vt 0.127929688 0.568847656
vt 0.098815918 0.594238281
vt 0.0489196777 0.583007812
vt 0.00981903076 0.53515625
vt 0.081237793 0.567871094
vt 0.108154297 0.548339844
vt 0.038269043 0.536621094
vt 0.130249023 0.525878906
vt 0.0647583008 0.529785156
vt 0.0397644043 0.492675781
vt 0.0229797363 0.486572266
vt 0.0398254395 0.453125
vt 0.0863037109 0.517578125
vt 0.0561828613 0.491455078
vt 0.0473327637 0.458496094
vt 0.0712280273 0.485107422
vt 0.0557861328 0.459228516
vt 0.104187012 0.500976562
vt 0.0643310547 0.456787109
vt 0.0840454102 0.474609375
vt 0.0950927734 0.461669922
vt 0.0721435547 0.451171875
vt 0.0786743164 0.443359375
vt 0.103027344 0.446289062
vt 0.969238281 0.615234375
vt 0.989746094 0.655273438
vt 0.989257812 0.615234375
vt 0.969726562 0.655273438
vt 0.969726562 0.665039062
vt 0.990234375 0.664550781
vt 0.969726562 0.673339844
vt 0.990234375 0.673339844
vt 0.969726562 0.682128906
vt 0.990234375 0.682128906
vt 0.989746094 0.790039062
vt 0.969238281 0.791015625
vt 0.990234375 0.794433594
vt 0.969238281 0.794433594
vt 0.990234375 0.90234375
vt 0.969726562 0.902832031
vt 0.989257812 0.615234375
vt 0.969238281 0.612792969
vt 0.969238281 0.615234375
vt 0.989746094 0.612792969
vt 0.969238281 0.506835938
vt 0.990234375 0.507324219
vt 0.969238281 0.476318359
vt 0.990234375 0.476806641
vt 0.969238281 0.406005859
vt 0.989746094 0.406494141
vt 0.371826172 0.934082031
vt 0.370117188 0.924804688
vt 0.370605469 0.974121094
vt 0.364746094 0.91796875
vt 0.356689453 0.915039062
vt 0.368408203 0.975097656
vt 0.263183594 0.971191406
vt 0.248535156 0.91015625
vt 0.241699219 0.993164062
vt 0.244873047 0.911621094
vt 0.171508789 0.991210938
vt 0.766113281 0.227416992
vt 0.682617188 0.296630859
vt 0.764160156 0.297851562
vt 0.680664062 0.299560547
vt 0.741699219 0.317871094
vt 0.680175781 0.408447266
vt 0.739746094 0.423828125
vt 0.738769531 0.42578125
vt 0.682617188 0.416748047
vt 0.688964844 0.422607422
vt 0.698242188 0.424804688
vt 0.921386719 0.0829467773
vt 0.920898438 0.0121002197
vt 0.901367188 0.0119018555
vt 0.900878906 0.0829467773
vt 0.921386719 0.113647461
vt 0.899902344 0.113647461
vt 0.920898438 0.219848633
vt 0.900390625 0.219848633
vt 0.920410156 0.222167969
vt 0.900390625 0.222045898
vt 0.920898438 0.26171875
vt 0.900390625 0.261474609
vt 0.900390625 0.272460938
vt 0.921386719 0.271484375
vt 0.900390625 0.279296875
vt 0.921386719 0.280273438
vt 0.899902344 0.286865234
vt 0.920898438 0.287597656
vt 0.921386719 0.396240234
vt 0.900878906 0.396728516
vt 0.921386719 0.400390625
vt 0.900390625 0.400146484
vt 0.920898438 0.509277344
vt 0.900878906 0.509277344
vt 0.770507812 0.216430664
vt 0.851074219 0.142578125
vt 0.769042969 0.145507812
vt 0.852539062 0.139526367
vt 0.791503906 0.124511719
vt 0.848144531 0.0299682617
vt 0.788085938 0.018371582
vt 0.790039062 0.0167236328
vt 0.845214844 0.0228424072
vt 0.83984375 0.0184173584
vt 0.829101562 0.0159606934
vt 0.702148438 0.438476562
vt 0.692871094 0.440185547
vt 0.7421875 0.439697266
vt 0.686035156 0.445800781
vt 0.683105469 0.452636719
vt 0.743652344 0.44140625
vt 0.738769531 0.547363281
vt 0.677246094 0.561035156
vt 0.760742188 0.568847656
vt 0.678710938 0.564941406
vt 0.7578125 0.639648438
vt 0.0969238281 0.830078125
vt 0.139770508 0.891113281
vt 0.160522461 0.870605469
vt 0.171630859 0.84375
vt 0.112792969 0.90234375
vt 0.171630859 0.814453125
vt 0.0836181641 0.90234375
vt 0.160522461 0.787597656
vt 0.0567626953 0.891113281
vt 0.139892578 0.767089844
vt 0.0362548828 0.870605469
vt 0.112915039 0.755859375
vt 0.0252380371 0.84375
vt 0.0837402344 0.755859375
vt 0.0252227783 0.814453125
vt 0.056854248 0.767089844
vt 0.0362854004 0.787597656
vn -0.313232422 -0.443115234 -0.83984375
vn -0.313232422 -0.443115234 -0.83984375
vn -0.313232422 -0.443115234 -0.83984375
vn -0.313232422 -0.443115234 -0.83984375
vn 0.88671875 -0.453125 -0.0924072266
vn 0.88671875 -0.453125 -0.0924072266
vn 0.88671875 -0.453125 -0.0924072266
vn 0.88671875 -0.453125 -0.0924072266
vn -0.877441406 0.473388672 0.0762329102
vn -0.877441406 0.473388672 0.0762329102
vn -0.877441406 0.473388672 0.0762329102
vn -0.877441406 0.473388672 0.0762329102
vn -0.576660156 -0.620117188 0.531738281
vn -0.576660156 -0.620117188 0.531738281
vn -0.576660156 -0.620117188 0.531738281
vn -0.576660156 -0.620117188 0.531738281
vn -0.423095703 -0.853515625 0.303955078
vn -0.423095703 -0.853515625 0.303955078
vn -0.423095703 -0.853515625 0.303955078
vn -0.423095703 -0.853515625 0.303955078
vn -0.140869141 -0.856933594 0.495605469
vn -0.140869141 -0.856933594 0.495605469
vn -0.140869141 -0.856933594 0.495605469
vn -0.140869141 -0.856933594 0.495605469
vn 0.307128906 0.428466797 0.849609375
vn 0.307128906 0.428466797 0.849609375
vn 0.307128906 0.428466797 0.849609375
vn 0.307128906 0.428466797 0.849609375
vn -0.197753906 -0.526855469 0.826660156
vn -0.197753906 -0.526855469 0.826660156
vn -0.197753906 -0.526855469 0.826660156
vn -0.197753906 -0.526855469 0.826660156
vn 0.345947266 0.76171875 -0.547851562
vn 0.345947266 0.76171875 -0.547851562
vn 0.345947266 0.76171875 -0.547851562
vn 0.345947266 0.76171875 -0.547851562
vn 0.393066406 0.750976562 -0.530761719
vn 0.393066406 0.750976562 -0.530761719
vn 0.393066406 0.750976562 -0.530761719
vn 0.393066406 0.750976562 -0.530761719
vn 0.875976562 -0.477783203 -0.0659790039
vn 0.875976562 -0.477783203 -0.0659790039
vn 0.875976562 -0.477783203 -0.0659790039
vn 0.875976562 -0.477783203 -0.0659790039
vn 0.326416016 0.78515625 -0.526367188
vn 0.326416016 0.78515625 -0.526367188
vn 0.326416016 0.78515625 -0.526367188
vn 0.326416016 0.78515625 -0.526367188
vn -0.320068359 -0.462158203 -0.827148438
vn -0.320068359 -0.462158203 -0.827148438
vn -0.320068359 -0.462158203 -0.827148438
vn -0.320068359 -0.462158203 -0.827148438
vn 0.370117188 0.792480469 -0.484863281
vn 0.370117188 0.792480469 -0.484863281
vn 0.370117188 0.792480469 -0.484863281
vn 0.370117188 0.792480469 -0.484863281
vn -0.892578125 0.439941406 0.0987548828
vn -0.892578125 0.439941406 0.0987548828
vn -0.892578125 0.439941406 0.0987548828
vn -0.892578125 0.439941406 0.0987548828
vn 0.295898438 0.397216797 0.868652344
vn 0.295898438 0.397216797 0.868652344
vn 0.295898438 0.397216797 0.868652344
vn 0.295898438 0.397216797 0.868652344
vn 0.907714844 0.176879883 0.380126953
vn 0.843261719 -0.0223693848 0.537109375
vn 0.843261719 -0.0223693848 0.537109375
vn 0.907714844 0.175415039 0.381591797
vn 0.901367188 0.123352051 0.415527344
vn 0.901855469 0.125244141 0.413818359
vn 0.852539062 -0.0179748535 0.521972656
vn 0.853027344 -0.0175170898 0.521484375
vn 0.380371094 0.771972656 -0.509277344
vn 0.381347656 0.771972656 -0.508789062
vn 0.304199219 0.7734375 -0.556152344
vn 0.304199219 0.7734375 -0.556152344
vn -0.0815429688 0.6953125 -0.714355469
vn -0.0816650391 0.6953125 -0.714355469
vn -0.537109375 0.423339844 -0.729980469
vn -0.536621094 0.423339844 -0.729980469
vn -0.836914062 0.0401306152 -0.545898438
vn -0.836914062 0.0401306152 -0.545898438
vn -0.850097656 0.0102539062 -0.526367188
vn -0.850097656 0.0107727051 -0.526367188
vn -0.822265625 -0.567871094 0.0413208008
vn -0.822753906 -0.567382812 0.0402832031
vn -0.818359375 -0.572753906 0.0483398438
vn -0.818359375 -0.572753906 0.0483398438
vn -0.398681641 0.641601562 0.655273438
vn -0.401611328 0.625488281 0.668945312
vn -0.412841797 0.594726562 0.689941406
vn -0.398925781 0.640136719 0.656738281
vn -0.401123047 0.63671875 0.658691406
vn -0.401123047 0.63671875 0.658691406
vn -0.400878906 0.639648438 0.655761719
vn -0.400878906 0.639160156 0.65625
vn -0.415771484 0.624511719 0.661132812
vn -0.409179688 0.638183594 0.65234375
vn -0.41796875 0.619628906 0.664550781
vn 0.395263672 -0.65625 -0.642578125
vn 0.400878906 -0.642578125 -0.652832031
vn 0.402832031 -0.628417969 -0.665527344
vn 0.402832031 -0.629882812 -0.6640625
vn 0.398925781 -0.631347656 -0.665039062
vn 0.399169922 -0.631347656 -0.665039062
vn 0.399169922 -0.629882812 -0.666015625
vn 0.398925781 -0.630371094 -0.666015625
vn 0.388916016 -0.646972656 -0.655761719
vn 0.393798828 -0.635742188 -0.663574219
vn 0.387207031 -0.650878906 -0.652832031
vn -0.397216797 0.643554688 0.654296875
vn -0.299560547 0.8046875 0.512207031
vn -0.397216797 0.643554688 0.654296875
vn -0.299560547 0.805175781 0.512207031
vn -0.327636719 0.76171875 0.55859375
vn -0.328125 0.761230469 0.559570312
vn -0.394042969 0.643554688 0.65625
vn -0.393798828 0.644042969 0.655761719
vn 0.343505859 0.789550781 -0.508789062
vn 0.343505859 0.7890625 -0.508789062
vn 0.3828125 0.726074219 -0.571289062
vn 0.382568359 0.7265625 -0.570800781
vn 0.522949219 0.334716797 -0.783691406
vn 0.5234375 0.333496094 -0.784179688
vn 0.535644531 -0.186279297 -0.823730469
vn 0.535644531 -0.185058594 -0.823730469
vn 0.416259766 -0.615722656 -0.669433594
vn 0.416259766 -0.615234375 -0.669433594
vn 0.405029297 -0.639648438 -0.653320312
vn 0.405273438 -0.639160156 -0.653808594
vn 0.0110702515 -0.999023438 -0.0442504883
vn 0.0109100342 -0.999023438 -0.0440063477
vn 0.00353240967 -0.999511719 -0.0322875977
vn 0.00353240967 -0.999511719 -0.0322875977
vn 0.841308594 -0.00179100037 0.541015625
vn 0.828613281 -0.0255432129 0.559570312
vn 0.836425781 -0.0197296143 0.547851562
vn 0.835449219 -0.0205841064 0.549316406
vn 0.844238281 -0.0177459717 0.535644531
vn 0.844238281 -0.0177612305 0.535644531
vn 0.84375 -0.0191650391 0.536621094
vn 0.84375 -0.0190734863 0.536621094
vn 0.844726562 -0.0144195557 0.534667969
vn 0.842285156 -0.019744873 0.538574219
vn 0.845703125 -0.0125198364 0.533691406
vn -0.844726562 0.0159912109 -0.534667969
vn -0.846679688 0.0108184814 -0.531738281
vn -0.870117188 -0.0385437012 -0.491699219
vn -0.844726562 0.0157623291 -0.534667969
vn -0.839355469 0.0190582275 -0.543457031
vn -0.839355469 0.01902771 -0.543457031
vn -0.840332031 0.0167388916 -0.541992188
vn -0.83984375 0.0168914795 -0.541992188
vn -0.837890625 0.0228271484 -0.545410156
vn -0.841308594 0.0149841309 -0.540527344
vn -0.836425781 0.0256958008 -0.547363281
vn -0.12109375 -0.497558594 -0.858886719
vn -0.464111328 -0.319824219 -0.826171875
vn -0.313232422 -0.0401000977 -0.948730469
vn 0.00794219971 -0.208740234 -0.978027344
vn 0.239013672 -0.594726562 -0.767578125
vn -0.111999512 0.262939453 -0.958496094
vn 0.346191406 -0.301025391 -0.888671875
vn 0.569824219 -0.600097656 -0.561523438
vn 0.14465332 0.127685547 -0.981445312
vn 0.651367188 -0.304931641 -0.694824219
vn 0.816894531 -0.511230469 -0.266845703
vn -0.0798950195 -0.414550781 -0.906738281
vn -0.422363281 -0.234619141 -0.875488281
vn -0.408935547 -0.209960938 -0.888183594
vn 0.415771484 0.0496826172 -0.908203125
vn 0.877441406 -0.224243164 -0.423583984
vn 0.937011719 -0.342529297 0.0665893555
vn 0.279052734 -0.516601562 -0.809570312
vn -0.0689086914 -0.388183594 -0.918945312
vn 0.658691406 0.0387878418 -0.751464844
vn 0.990722656 -0.0674438477 -0.117614746
vn 0.914550781 -0.118286133 0.38671875
vn 0.601074219 -0.525878906 -0.6015625
vn 0.838867188 0.1015625 -0.53515625
vn 0.973144531 0.141845703 0.180297852
vn 0.756835938 0.125976562 0.641601562
vn -0.0537109375 -0.350585938 -0.935058594
vn -0.389892578 -0.174926758 -0.904296875
vn 0.289550781 -0.48828125 -0.823242188
vn 0.841308594 -0.439453125 -0.314453125
vn 0.928710938 0.229003906 -0.291992188
vn 0.826171875 0.372558594 0.422851562
vn 0.487304688 0.357910156 0.796386719
vn -0.1328125 -0.526855469 -0.83984375
vn 0.232788086 -0.625488281 -0.744628906
vn -0.475585938 -0.347412109 -0.808105469
vn -0.461669922 -0.317138672 -0.828613281
vn -0.118591309 -0.497070312 -0.859863281
vn 0.963378906 -0.268066406 0.011756897
vn 0.913574219 0.403076172 -0.0574645996
vn 0.571289062 0.592773438 0.567382812
vn 0.140380859 0.541503906 0.829101562
vn -0.106262207 -0.469482422 -0.876464844
vn -0.448486328 -0.291503906 -0.844726562
vn -0.524414062 -0.465576172 -0.712890625
vn -0.184936523 -0.641601562 -0.744628906
vn -0.570800781 -0.610839844 -0.548828125
vn 0.256835938 -0.571289062 -0.779785156
vn 0.943359375 -0.0399169922 0.328613281
vn 0.793457031 0.59375 0.135131836
vn 0.245239258 -0.598632812 -0.762695312
vn 0.7890625 0.202392578 0.580078125
vn -0.253173828 -0.775878906 -0.577636719
vn 0.17199707 -0.741699219 -0.6484375
vn 0.583984375 -0.579101562 -0.568847656
vn 0.573242188 -0.60546875 -0.552246094
vn -0.302246094 -0.860839844 -0.409179688
vn -0.587890625 -0.712402344 -0.383300781
vn -0.346191406 -0.919433594 -0.18737793
vn -0.579589844 -0.797851562 -0.166381836
vn -0.369384766 -0.929199219 0.0110244751
vn -0.548339844 -0.8359375 0.0271911621
vn -0.495605469 -0.840820312 0.217163086
vn 0.492919922 -0.750976562 -0.439697266
vn 0.0805664062 -0.869140625 -0.48828125
vn -0.00193881989 -0.944335938 -0.328613281
vn -0.100463867 -0.987304688 -0.121765137
vn -0.180908203 -0.981445312 0.0614318848
vn -0.377929688 -0.90234375 0.206420898
vn 0.825683594 -0.491210938 -0.277832031
vn -0.373535156 -0.849609375 0.372070312
vn -0.433105469 -0.818359375 0.377685547
vn -0.358642578 -0.770996094 0.525878906
vn -0.310791016 -0.8671875 0.388916016
vn -0.25390625 -0.937011719 0.239379883
vn -0.0112686157 -0.985351562 0.171020508
vn -0.254638672 -0.868652344 0.425292969
vn -0.142211914 -0.939453125 0.311279297
vn 0.120666504 -0.992675781 0.0215148926
vn -0.213500977 -0.853027344 0.475830078
vn 0.114929199 -0.938964844 0.323730469
vn 0.268066406 -0.951171875 -0.153198242
vn -0.0599060059 -0.909179688 0.411621094
vn 0.285888672 -0.932617188 0.220947266
vn 0.380859375 -0.876953125 -0.29296875
vn -0.193847656 -0.823730469 0.532714844
vn 0.177490234 -0.850585938 0.495117188
vn 0.469970703 -0.877929688 0.0901489258
vn 0.731445312 -0.664550781 -0.151855469
vn -0.0198516846 -0.851074219 0.524414062
vn -0.198486328 -0.784667969 0.587402344
vn 0.369384766 -0.815917969 0.444824219
vn 0.604492188 -0.795898438 -0.0229187012
vn -0.22668457 -0.741699219 0.631347656
vn -0.273925781 -0.701171875 0.658203125
vn -0.333496094 -0.669433594 0.663574219
vn 0.165893555 -0.732910156 0.66015625
vn -0.0283050537 -0.773925781 0.6328125
vn 0.572753906 -0.734863281 0.362548828
vn -0.0838012695 -0.688964844 0.719726562
vn 0.0814819336 -0.603515625 0.79296875
vn 0.35546875 -0.661621094 0.66015625
vn -0.177856445 -0.608886719 0.772949219
vn -0.0622558594 -0.481933594 0.874023438
vn 0.245849609 -0.493408203 0.834472656
vn 0.557617188 -0.545410156 0.625488281
vn 0.71875 -0.63671875 0.279052734
vn 0.852539062 -0.494140625 0.169799805
vn 0.945800781 -0.321044922 0.0492553711
vn 0.815429688 -0.517089844 -0.261230469
vn 0.561523438 -0.631835938 -0.534667969
vn 0.0577392578 -0.333984375 0.940917969
vn 0.424804688 -0.339355469 0.839355469
vn 0.702636719 -0.425537109 0.5703125
vn 0.834960938 -0.268066406 0.480712891
vn 0.926269531 -0.0940551758 0.365234375
vn 0.935546875 -0.347167969 0.0657958984
vn -0.244018555 -0.387207031 0.889160156
vn -0.296386719 -0.546875 0.782714844
vn -0.395996094 -0.651855469 0.646972656
vn 0.678710938 -0.0228729248 0.734375
vn 0.768554688 0.153564453 0.62109375
vn 0.916015625 -0.12109375 0.382324219
vn 0.900878906 -0.155883789 0.405273438
vn 0.758300781 0.126586914 0.639648438
vn 0.556152344 -0.196533203 0.807617188
vn 0.496337891 0.385253906 0.777832031
vn 0.920898438 -0.379882812 0.0889282227
vn 0.195068359 -0.145141602 0.970214844
vn 0.408691406 0.205322266 0.889160156
vn 0.802246094 -0.545898438 -0.241943359
vn 0.860351562 -0.370849609 -0.349121094
vn 0.977050781 -0.210693359 -0.0239105225
vn -0.181152344 -0.210083008 0.9609375
vn 0.301757812 0.0181427002 0.953125
vn 0.625 -0.452880859 -0.635742188
vn -0.434570312 -0.334228516 0.836425781
vn -0.0974121094 0.00598144531 0.995117188
vn 0.303955078 -0.446777344 -0.841308594
vn 0.611816406 -0.495849609 -0.616210938
vn 0.850585938 -0.409423828 -0.329345703
vn 0.970214844 -0.241455078 -0.00486373901
vn 0.958007812 0.00944519043 0.286621094
vn 0.950683594 -0.0175170898 0.309082031
vn 0.805664062 0.254394531 0.534667969
vn 0.796875 0.224121094 0.561035156
vn 0.745117188 0.0925292969 0.66015625
vn 0.524414062 0.429443359 0.735351562
vn 0.539550781 0.480712891 0.69140625
vn 0.485839844 0.357910156 0.797363281
vn 0.53125 0.452636719 0.716308594
vn 0.587890625 0.765625 0.260009766
vn 0.473144531 0.324462891 0.818847656
vn 0.120483398 0.506347656 0.854003906
vn 0.148925781 0.566894531 0.810058594
vn 0.174682617 0.614257812 0.76953125
vn 0.250488281 0.763183594 0.595214844
vn -0.2265625 0.642089844 0.732421875
vn 0.192871094 0.656738281 0.729003906
vn 0.332275391 0.897460938 0.289794922
vn -0.0891723633 0.856933594 0.5078125
vn -0.555175781 0.646972656 0.522949219
vn 0.184570312 0.635253906 0.75
vn -0.195800781 0.715820312 0.670410156
vn 0.0640869141 0.974609375 0.214355469
vn -0.397949219 0.862304688 0.313720703
vn -0.797363281 0.557128906 0.231567383
vn -0.181762695 0.736328125 0.651855469
vn -0.520507812 0.719726562 0.459716797
vn -0.625976562 0.778808594 0.040222168
vn -0.916992188 0.386230469 -0.0977783203
vn -0.179077148 0.982421875 0.0505065918
vn -0.73828125 0.619140625 -0.268310547
vn -0.895996094 0.159790039 -0.414550781
vn -0.359619141 0.916992188 -0.171508789
vn -0.7578125 0.629882812 0.170288086
vn -0.717773438 0.407226562 -0.564453125
vn -0.736816406 -0.0881347656 -0.670410156
vn -0.447998047 0.790527344 -0.417724609
vn -0.568847656 0.17578125 -0.803222656
vn -0.464111328 -0.319824219 -0.826171875
vn -0.313232422 -0.0401000977 -0.948730469
vn -0.431884766 0.622070312 -0.653320312
vn -0.313964844 0.436767578 -0.843261719
vn -0.111999512 0.262939453 -0.958496094
vn -0.422363281 -0.234619141 -0.875488281
vn -0.874023438 0.460693359 -0.155883789
vn -0.8515625 0.238037109 -0.467285156
vn -0.693847656 -0.00465774536 -0.719726562
vn -0.678222656 0.0183258057 -0.734863281
vn -0.408935547 -0.209960938 -0.888183594
vn -0.389892578 -0.174926758 -0.904296875
vn -0.835449219 0.259521484 -0.484375
vn -0.858886719 0.481201172 -0.173950195
vn -0.744140625 0.650878906 0.151245117
vn -0.653808594 0.054107666 -0.754882812
vn -0.826660156 0.5234375 -0.206542969
vn -0.506347656 0.740722656 0.440917969
vn -0.715332031 0.688964844 0.116577148
vn -0.923828125 0.370117188 -0.0970458984
vn -0.805664062 0.300048828 -0.510742188
vn -0.745605469 -0.113586426 -0.656738281
vn -0.475585938 -0.347412109 -0.808105469
vn -0.461669922 -0.317138672 -0.828613281
vn -0.90234375 0.139282227 -0.407958984
vn -0.733398438 -0.0887451172 -0.673828125
vn -0.448486328 -0.291503906 -0.844726562
vn -0.484375 0.771972656 0.411376953
vn -0.893554688 0.157714844 -0.419921875
vn -0.720703125 -0.0634765625 -0.689941406
vn -0.809570312 0.538085938 0.235229492
vn -0.167602539 0.759765625 0.628417969
vn -0.571777344 0.62109375 0.536132812
vn -0.246582031 0.608886719 0.75390625
vn -0.229492188 0.643066406 0.73046875
vn -0.55859375 0.647460938 0.518554688
vn -0.800292969 0.555664062 0.225219727
vn -0.917480469 0.383789062 -0.104431152
vn -0.881835938 0.182617188 -0.434570312
vn 0.138427734 0.541503906 0.829101562
vn -0.216186523 0.66796875 0.712402344
vn -0.543457031 0.673339844 0.501464844
vn -0.904785156 0.409179688 -0.118408203
vn 0.0637817383 0.383789062 0.921386719
vn -0.298339844 0.483886719 0.822753906
vn -0.022064209 0.185791016 0.982421875
vn -0.785644531 0.58203125 0.209960938
vn -0.857421875 0.399658203 0.323730469
vn -0.973632812 0.228637695 0.00301742554
vn -0.620605469 0.489990234 0.612304688
vn -0.362548828 0.279785156 0.889160156
vn -0.403808594 0.0903930664 0.91015625
vn -0.6640625 0.28515625 0.69140625
vn -0.884765625 0.199951172 0.421386719
vn -0.674804688 0.0950317383 0.731933594
vn -0.951660156 0.00510406494 -0.306640625
vn -0.431396484 -0.141235352 0.891113281
vn -0.65234375 -0.137451172 0.745117188
vn -0.603515625 -0.331054688 0.725585938
vn -0.872070312 0.0179901123 0.489257812
vn -0.991699219 0.0396728516 0.120910645
vn -0.793457031 -0.239257812 -0.559570312
vn -0.524414062 -0.465576172 -0.712890625
vn -0.970703125 -0.169799805 -0.168823242
vn -0.822265625 -0.398925781 -0.405517578
vn -0.570800781 -0.610839844 -0.548828125
vn -0.587890625 -0.712402344 -0.383300781
vn -0.814453125 -0.521484375 -0.254638672
vn -0.579589844 -0.797851562 -0.166381836
vn -0.967773438 -0.126342773 0.21887207
vn -0.948242188 -0.314453125 -0.0418701172
vn -0.765136719 -0.640625 -0.0612487793
vn -0.548339844 -0.8359375 0.0271911621
vn -0.874511719 -0.471435547 0.112487793
vn -0.890136719 -0.317626953 0.326171875
vn -0.690429688 -0.715332031 0.10760498
vn -0.8125 -0.199951172 0.547363281
vn -0.773925781 -0.5859375 0.240356445
vn -0.589355469 -0.76171875 0.270019531
vn -0.495605469 -0.840820312 0.217163086
vn -0.433105469 -0.818359375 0.377685547
vn -0.786132812 -0.468017578 0.404052734
vn -0.644042969 -0.676269531 0.357177734
vn -0.480712891 -0.777832031 0.404296875
vn -0.65234375 -0.598632812 0.46484375
vn -0.508789062 -0.734863281 0.448486328
vn -0.726074219 -0.377929688 0.57421875
vn -0.513183594 -0.6953125 0.503417969
vn -0.612792969 -0.540039062 0.577148438
vn -0.531738281 -0.509277344 0.676269531
vn -0.493164062 -0.665527344 0.560058594
vn -0.452148438 -0.650390625 0.610839844
vn -0.420898438 -0.512207031 0.749023438
vn 0.365722656 0.7734375 -0.517578125
vn 0.365722656 0.7734375 -0.517578125
vn 0.365722656 0.7734375 -0.517578125
vn 0.365722656 0.7734375 -0.517578125
vn 0.696289062 0.677734375 -0.235595703
vn 0.696777344 0.677734375 -0.235229492
vn 0.905273438 0.394775391 0.158203125
vn 0.904785156 0.395996094 0.156860352
vn 0.854003906 -0.00630187988 0.520019531
vn 0.854003906 -0.00617980957 0.520019531
vn 0.840820312 -0.0344238281 0.540527344
vn 0.83984375 -0.035736084 0.541503906
vn 0.280273438 -0.591308594 0.755859375
vn 0.280029297 -0.591796875 0.755859375
vn 0.270263672 -0.597167969 0.755371094
vn 0.270263672 -0.597167969 0.755371094
vn 0.319091797 0.774414062 -0.546386719
vn -0.840332031 0.0377197266 -0.541015625
vn 0.317382812 0.774414062 -0.547363281
vn -0.840332031 0.0377502441 -0.541015625
vn -0.759765625 0.169921875 -0.627441406
vn -0.766601562 0.160522461 -0.621582031
vn -0.722167969 0.209716797 -0.659179688
vn -0.718261719 0.215087891 -0.661621094
vn -0.836425781 0.0281829834 -0.547363281
vn -0.836425781 0.0281829834 -0.547363281
vn -0.396728516 0.653808594 0.644042969
vn -0.402587891 0.643066406 0.651367188
vn -0.390869141 0.656738281 0.645019531
vn -0.392089844 0.655273438 0.645507812
vn -0.404785156 0.634277344 0.658691406
vn -0.404541016 0.634277344 0.658691406
vn -0.406005859 0.6328125 0.659667969
vn -0.406005859 0.6328125 0.659667969
vn -0.411132812 0.630859375 0.658203125
vn -0.410888672 0.629882812 0.659179688
vn -0.411132812 0.631347656 0.657714844
vn 0.411376953 -0.639160156 -0.649902344
vn 0.415283203 -0.631347656 -0.654785156
vn 0.412597656 -0.637207031 -0.651367188
vn 0.409667969 -0.631347656 -0.658691406
vn 0.409912109 -0.630859375 -0.658691406
vn 0.408691406 -0.631347656 -0.658691406
vn 0.408935547 -0.630859375 -0.659179688
vn 0.422119141 -0.601074219 -0.678710938
vn 0.421386719 -0.602050781 -0.678222656
vn 0.414306641 -0.609863281 -0.67578125
vn 0.400390625 -0.637207031 -0.658691406
vn 0.499511719 -0.410888672 -0.762695312
vn 0.423828125 -0.625976562 -0.654296875
vn 0.423828125 -0.625976562 -0.654296875
vn 0.5 -0.409179688 -0.763183594
vn 0.477050781 -0.481933594 -0.734863281
vn 0.477050781 -0.482666016 -0.734375
vn 0.424072266 -0.620605469 -0.659667969
vn 0.424316406 -0.620117188 -0.66015625
vn 0.366699219 0.756835938 -0.541015625
vn 0.366210938 0.7578125 -0.540527344
vn 0.328369141 0.813476562 -0.480224609
vn 0.329345703 0.812011719 -0.481445312
vn 0.12286377 0.977050781 -0.175048828
vn 0.130615234 0.973632812 -0.185913086
vn -0.148803711 0.958984375 0.241210938
vn -0.154418945 0.955566406 0.250976562
vn -0.395507812 0.656738281 0.642089844
vn -0.395996094 0.655761719 0.642578125
vn -0.409423828 0.627441406 0.662109375
vn -0.409912109 0.626464844 0.662597656
vn -0.541992188 -0.161987305 0.824707031
vn -0.541992188 -0.161621094 0.824707031
vn -0.541015625 -0.174316406 0.822753906
vn -0.541015625 -0.174316406 0.822753906
vn 0.832519531 -0.0212860107 0.553710938
vn 0.832519531 -0.0194396973 0.553710938
vn 0.832519531 -0.0207977295 0.553710938
vn 0.834472656 -0.0142974854 0.55078125
vn 0.834472656 -0.0143432617 0.55078125
vn 0.834960938 -0.0135192871 0.549804688
vn 0.834960938 -0.0134124756 0.549804688
vn 0.842773438 0.000435113907 0.538085938
vn 0.842773438 -7.802248E-05 0.538085938
vn 0.842285156 -0.00247001648 0.539550781
vn 0.853027344 0.0264587402 0.521484375
vn -0.830566406 0.0080947876 -0.557128906
vn -0.825195312 0.020904541 -0.564453125
vn -0.838378906 -0.00941467285 -0.544921875
vn -0.836914062 -0.00588226318 -0.547363281
vn -0.835449219 0.0161132812 -0.549316406
vn -0.835449219 0.0158843994 -0.549316406
vn -0.835449219 0.0150756836 -0.548828125
vn -0.835449219 0.0152130127 -0.548828125
vn -0.8359375 0.00866699219 -0.548828125
vn -0.836425781 0.00762557983 -0.547851562
vn -0.835449219 0.00905609131 -0.549316406
vn 0.356445312 0.770507812 -0.528320312
vn 0.371582031 0.771972656 -0.516113281
vn 0.364990234 0.77734375 -0.512207031
vn 0.357910156 0.78125 -0.51171875
vn 0.375732422 0.766113281 -0.521972656
vn 0.350830078 0.782714844 -0.513671875
vn 0.376220703 0.76171875 -0.52734375
vn 0.344482422 0.783203125 -0.517578125
vn 0.374511719 0.758789062 -0.532714844
vn 0.33984375 0.78125 -0.5234375
vn 0.370605469 0.757324219 -0.537597656
vn 0.337402344 0.778320312 -0.529785156
vn 0.362548828 0.7578125 -0.541992188
vn 0.337646484 0.773925781 -0.536132812
vn 0.352539062 0.760742188 -0.544921875
vn 0.340576172 0.768554688 -0.541503906
vn 0.345458984 0.764648438 -0.544433594
g O_env_daodan_01_0
f 3/3/3 2/2/2 1/1/1
f 4/4/4 3/3/3 1/1/1
f 7/7/7 6/6/6 5/5/5
f 8/8/8 7/7/7 5/5/5
f 11/11/11 10/10/10 9/9/9
f 12/12/12 11/11/11 9/9/9
f 15/15/15 14/14/14 13/13/13
f 16/16/16 15/15/15 13/13/13
f 19/19/19 18/18/18 17/17/17
f 20/20/20 19/19/19 17/17/17
f 23/23/23 22/22/22 21/21/21
f 24/24/24 23/23/23 21/21/21
f 27/27/27 26/26/26 25/25/25
f 28/28/28 27/27/27 25/25/25
f 31/31/31 30/30/30 29/29/29
f 32/32/32 31/31/31 29/29/29
f 35/35/35 34/34/34 33/33/33
f 36/36/36 35/35/35 33/33/33
f 39/39/39 38/38/38 37/37/37
f 40/40/40 39/39/39 37/37/37
f 43/43/43 42/42/42 41/41/41
f 44/44/44 43/43/43 41/41/41
f 47/47/47 46/46/46 45/45/45
f 48/48/48 47/47/47 45/45/45
f 51/51/51 50/50/50 49/49/49
f 52/52/52 51/51/51 49/49/49
f 55/55/55 54/54/54 53/53/53
f 56/56/56 55/55/55 53/53/53
f 59/59/59 58/58/58 57/57/57
f 60/60/60 59/59/59 57/57/57
f 63/63/63 62/62/62 61/61/61
f 64/64/64 63/63/63 61/61/61
f 67/67/67 66/66/66 65/65/65
f 68/68/68 67/67/67 65/65/65
f 68/68/68 65/65/65 69/69/69
f 70/70/70 68/68/68 69/69/69
f 70/70/70 69/69/69 71/71/71
f 72/72/72 70/70/70 71/71/71
f 72/72/72 71/71/71 73/73/73
f 74/74/74 72/72/72 73/73/73
f 73/73/73 75/75/75 74/74/74
f 75/75/75 76/76/76 74/74/74
f 76/76/76 75/75/75 77/77/77
f 75/75/75 78/78/78 77/77/77
f 79/79/79 77/77/77 78/78/78
f 80/80/80 79/79/79 78/78/78
f 81/81/81 79/79/79 80/80/80
f 82/82/82 81/81/81 80/80/80
f 81/81/81 82/82/82 83/83/83
f 84/84/84 81/81/81 83/83/83
f 83/83/83 85/85/85 84/84/84
f 85/85/85 86/86/86 84/84/84
f 85/85/85 87/87/87 86/86/86
f 87/87/87 88/88/88 86/86/86
f 91/91/91 90/90/90 89/89/89
f 90/90/90 92/92/92 89/89/89
f 92/92/92 93/93/93 89/89/89
f 93/93/93 94/94/94 89/89/89
f 94/94/94 93/93/93 95/95/95
f 93/93/93 96/96/96 95/95/95
f 95/95/95 96/96/96 97/97/97
f 96/96/96 98/98/98 97/97/97
f 97/97/97 98/98/98 99/99/99
f 102/102/102 101/101/101 100/100/100
f 103/103/103 101/101/101 102/102/102
f 104/104/104 103/103/103 102/102/102
f 105/105/105 104/104/104 102/102/102
f 105/105/105 106/106/106 104/104/104
f 106/106/106 107/107/107 104/104/104
f 107/107/107 106/106/106 108/108/108
f 109/109/109 107/107/107 108/108/108
f 110/110/110 109/109/109 108/108/108
f 113/113/113 112/112/112 111/111/111
f 112/112/112 114/114/114 111/111/111
f 112/112/112 115/115/115 114/114/114
f 115/115/115 116/116/116 114/114/114
f 116/116/116 115/115/115 117/117/117
f 118/118/118 116/116/116 117/117/117
f 118/118/118 117/117/117 119/119/119
f 120/120/120 118/118/118 119/119/119
f 119/119/119 121/121/121 120/120/120
f 121/121/121 122/122/122 120/120/120
f 122/122/122 121/121/121 123/123/123
f 121/121/121 124/124/124 123/123/123
f 125/125/125 123/123/123 124/124/124
f 126/126/126 125/125/125 124/124/124
f 127/127/127 125/125/125 126/126/126
f 128/128/128 127/127/127 126/126/126
f 127/127/127 128/128/128 129/129/129
f 130/130/130 127/127/127 129/129/129
f 129/129/129 131/131/131 130/130/130
f 131/131/131 132/132/132 130/130/130
f 131/131/131 133/133/133 132/132/132
f 133/133/133 134/134/134 132/132/132
f 137/137/137 136/136/136 135/135/135
f 138/138/138 136/136/136 137/137/137
f 139/139/139 138/138/138 137/137/137
f 140/140/140 139/139/139 137/137/137
f 140/140/140 141/141/141 139/139/139
f 141/141/141 142/142/142 139/139/139
f 142/142/142 141/141/141 143/143/143
f 144/144/144 142/142/142 143/143/143
f 143/143/143 145/145/145 144/144/144
f 148/148/148 147/147/147 146/146/146
f 147/147/147 149/149/149 146/146/146
f 149/149/149 150/150/150 146/146/146
f 150/150/150 151/151/151 146/146/146
f 151/151/151 150/150/150 152/152/152
f 150/150/150 153/153/153 152/152/152
f 152/152/152 153/153/153 154/154/154
f 153/153/153 155/155/155 154/154/154
f 154/154/154 155/155/155 156/156/156
f 159/159/159 158/158/158 157/157/157
f 160/160/160 159/159/159 157/157/157
f 160/160/160 157/157/157 161/161/161
f 162/162/162 159/159/159 160/160/160
f 163/163/163 160/160/160 161/161/161
f 163/163/163 161/161/161 164/164/164
f 165/165/165 162/162/162 160/160/160
f 165/165/165 160/160/160 163/163/163
f 166/166/166 163/163/163 164/164/164
f 166/166/166 164/164/164 167/167/167
f 162/162/162 165/165/165 168/168/168
f 169/169/169 162/162/162 168/168/168
f 169/169/169 168/168/168 170/170/170
f 171/171/171 165/165/165 163/163/163
f 171/171/171 163/163/163 166/166/166
f 172/172/172 166/166/166 167/167/167
f 172/172/172 167/167/167 173/173/173
f 168/168/168 165/165/165 174/174/174
f 165/165/165 171/171/171 174/174/174
f 168/168/168 175/175/175 170/170/170
f 168/168/168 174/174/174 175/175/175
f 176/176/176 171/171/171 166/166/166
f 176/176/176 166/166/166 172/172/172
f 177/177/177 172/172/172 173/173/173
f 177/177/177 173/173/173 178/178/178
f 174/174/174 171/171/171 179/179/179
f 171/171/171 176/176/176 179/179/179
f 180/180/180 176/176/176 172/172/172
f 180/180/180 172/172/172 177/177/177
f 181/181/181 177/177/177 178/178/178
f 181/181/181 178/178/178 182/182/182
f 175/175/175 183/183/183 170/170/170
f 183/183/183 184/184/184 170/170/170
f 174/174/174 185/185/185 175/175/175
f 174/174/174 179/179/179 185/185/185
f 179/179/179 176/176/176 186/186/186
f 176/176/176 180/180/180 186/186/186
f 187/187/187 180/180/180 177/177/177
f 187/187/187 177/177/177 181/181/181
f 188/188/188 181/181/181 182/182/182
f 188/188/188 182/182/182 189/189/189
f 184/184/184 183/183/183 190/190/190
f 190/190/190 183/183/183 191/191/191
f 192/192/192 184/184/184 190/190/190
f 193/193/193 192/192/192 190/190/190
f 194/194/194 193/193/193 190/190/190
f 194/194/194 190/190/190 191/191/191
f 186/186/186 180/180/180 195/195/195
f 180/180/180 187/187/187 195/195/195
f 196/196/196 187/187/187 181/181/181
f 196/196/196 181/181/181 188/188/188
f 197/197/197 188/188/188 189/189/189
f 197/197/197 189/189/189 198/198/198
f 193/193/193 194/194/194 199/199/199
f 200/200/200 193/193/193 199/199/199
f 201/201/201 200/200/200 199/199/199
f 202/202/202 201/201/201 199/199/199
f 203/203/203 201/201/201 202/202/202
f 199/199/199 194/194/194 204/204/204
f 202/202/202 199/199/199 204/204/204
f 187/187/187 196/196/196 205/205/205
f 195/195/195 187/187/187 205/205/205
f 206/206/206 196/196/196 188/188/188
f 206/206/206 188/188/188 197/197/197
f 194/194/194 207/207/207 204/204/204
f 207/207/207 194/194/194 191/191/191
f 205/205/205 196/196/196 208/208/208
f 196/196/196 206/206/206 208/208/208
f 209/209/209 203/203/203 202/202/202
f 210/210/210 202/202/202 204/204/204
f 209/209/209 202/202/202 210/210/210
f 204/204/204 207/207/207 211/211/211
f 210/210/210 204/204/204 211/211/211
f 207/207/207 191/191/191 212/212/212
f 207/207/207 212/212/212 211/211/211
f 209/209/209 213/213/213 203/203/203
f 213/213/213 214/214/214 203/203/203
f 213/213/213 215/215/215 214/214/214
f 215/215/215 216/216/216 214/214/214
f 215/215/215 217/217/217 216/216/216
f 217/217/217 218/218/218 216/216/216
f 219/219/219 218/218/218 217/217/217
f 220/220/220 210/210/210 211/211/211
f 221/221/221 209/209/209 210/210/210
f 221/221/221 210/210/210 220/220/220
f 222/222/222 213/213/213 209/209/209
f 221/221/221 222/222/222 209/209/209
f 223/223/223 215/215/215 213/213/213
f 222/222/222 223/223/223 213/213/213
f 224/224/224 217/217/217 215/215/215
f 223/223/223 224/224/224 215/215/215
f 225/225/225 219/219/219 217/217/217
f 225/225/225 217/217/217 224/224/224
f 220/220/220 211/211/211 226/226/226
f 211/211/211 212/212/212 226/226/226
f 225/225/225 227/227/227 219/219/219
f 227/227/227 228/228/228 219/219/219
f 228/228/228 227/227/227 229/229/229
f 230/230/230 227/227/227 225/225/225
f 227/227/227 230/230/230 229/229/229
f 231/231/231 225/225/225 224/224/224
f 231/231/231 230/230/230 225/225/225
f 232/232/232 224/224/224 223/223/223
f 231/231/231 224/224/224 232/232/232
f 233/233/233 230/230/230 231/231/231
f 230/230/230 233/233/233 229/229/229
f 234/234/234 233/233/233 231/231/231
f 234/234/234 231/231/231 232/232/232
f 235/235/235 232/232/232 223/223/223
f 235/235/235 223/223/223 222/222/222
f 233/233/233 236/236/236 229/229/229
f 236/236/236 233/233/233 234/234/234
f 234/234/234 232/232/232 237/237/237
f 237/237/237 232/232/232 235/235/235
f 238/238/238 235/235/235 222/222/222
f 238/238/238 222/222/222 221/221/221
f 239/239/239 236/236/236 234/234/234
f 239/239/239 234/234/234 237/237/237
f 240/240/240 237/237/237 235/235/235
f 240/240/240 235/235/235 238/238/238
f 241/241/241 238/238/238 221/221/221
f 241/241/241 221/221/221 220/220/220
f 236/236/236 242/242/242 229/229/229
f 242/242/242 236/236/236 239/239/239
f 239/239/239 237/237/237 243/243/243
f 243/243/243 237/237/237 240/240/240
f 244/244/244 240/240/240 238/238/238
f 244/244/244 238/238/238 241/241/241
f 241/241/241 220/220/220 245/245/245
f 245/245/245 220/220/220 226/226/226
f 246/246/246 242/242/242 239/239/239
f 246/246/246 239/239/239 243/243/243
f 242/242/242 247/247/247 229/229/229
f 247/247/247 242/242/242 246/246/246
f 248/248/248 243/243/243 240/240/240
f 248/248/248 240/240/240 244/244/244
f 249/249/249 244/244/244 241/241/241
f 249/249/249 241/241/241 245/245/245
f 247/247/247 250/250/250 229/229/229
f 250/250/250 251/251/251 229/229/229
f 251/251/251 252/252/252 229/229/229
f 246/246/246 243/243/243 253/253/253
f 253/253/253 243/243/243 248/248/248
f 254/254/254 247/247/247 246/246/246
f 250/250/250 247/247/247 254/254/254
f 254/254/254 246/246/246 253/253/253
f 255/255/255 248/248/248 244/244/244
f 255/255/255 244/244/244 249/249/249
f 251/251/251 250/250/250 256/256/256
f 256/256/256 250/250/250 254/254/254
f 254/254/254 253/253/253 257/257/257
f 256/256/256 254/254/254 257/257/257
f 258/258/258 253/253/253 248/248/248
f 258/258/258 248/248/248 255/255/255
f 257/257/257 253/253/253 258/258/258
f 259/259/259 251/251/251 256/256/256
f 252/252/252 251/251/251 259/259/259
f 256/256/256 257/257/257 260/260/260
f 259/259/259 256/256/256 260/260/260
f 261/261/261 257/257/257 258/258/258
f 260/260/260 257/257/257 261/261/261
f 262/262/262 258/258/258 255/255/255
f 261/261/261 258/258/258 262/262/262
f 263/263/263 255/255/255 249/249/249
f 262/262/262 255/255/255 263/263/263
f 263/263/263 249/249/249 264/264/264
f 249/249/249 245/245/245 264/264/264
f 264/264/264 245/245/245 265/265/265
f 245/245/245 226/226/226 265/265/265
f 226/226/226 266/266/266 265/265/265
f 212/212/212 266/266/266 226/226/226
f 212/212/212 267/267/267 266/266/266
f 191/191/191 267/267/267 212/212/212
f 268/268/268 260/260/260 261/261/261
f 269/269/269 261/261/261 262/262/262
f 268/268/268 261/261/261 269/269/269
f 270/270/270 262/262/262 263/263/263
f 269/269/269 262/262/262 270/270/270
f 263/263/263 264/264/264 271/271/271
f 270/270/270 263/263/263 271/271/271
f 264/264/264 265/265/265 272/272/272
f 271/271/271 264/264/264 272/272/272
f 266/266/266 273/273/273 265/265/265
f 265/265/265 273/273/273 272/272/272
f 274/274/274 260/260/260 268/268/268
f 259/259/259 260/260/260 274/274/274
f 275/275/275 259/259/259 274/274/274
f 275/275/275 252/252/252 259/259/259
f 276/276/276 252/252/252 275/275/275
f 252/252/252 276/276/276 229/229/229
f 270/270/270 271/271/271 277/277/277
f 271/271/271 272/272/272 278/278/278
f 277/277/277 271/271/271 278/278/278
f 273/273/273 279/279/279 272/272/272
f 272/272/272 279/279/279 278/278/278
f 279/279/279 273/273/273 280/280/280
f 279/279/279 281/281/281 278/278/278
f 279/279/279 280/280/280 281/281/281
f 282/282/282 270/270/270 277/277/277
f 282/282/282 269/269/269 270/270/270
f 277/277/277 278/278/278 283/283/283
f 278/278/278 281/281/281 283/283/283
f 273/273/273 284/284/284 280/280/280
f 273/273/273 266/266/266 284/284/284
f 285/285/285 269/269/269 282/282/282
f 285/285/285 268/268/268 269/269/269
f 282/282/282 277/277/277 286/286/286
f 286/286/286 277/277/277 283/283/283
f 266/266/266 287/287/287 284/284/284
f 267/267/267 287/287/287 266/266/266
f 287/287/287 288/288/288 284/284/284
f 288/288/288 287/287/287 267/267/267
f 284/284/284 289/289/289 280/280/280
f 288/288/288 289/289/289 284/284/284
f 290/290/290 268/268/268 285/285/285
f 290/290/290 274/274/274 268/268/268
f 291/291/291 285/285/285 282/282/282
f 291/291/291 282/282/282 286/286/286
f 292/292/292 288/288/288 267/267/267
f 292/292/292 267/267/267 191/191/191
f 293/293/293 274/274/274 290/290/290
f 275/275/275 274/274/274 293/293/293
f 294/294/294 290/290/290 285/285/285
f 294/294/294 285/285/285 291/291/291
f 295/295/295 292/292/292 191/191/191
f 183/183/183 295/295/295 191/191/191
f 295/295/295 183/183/183 175/175/175
f 185/185/185 295/295/295 175/175/175
f 295/295/295 185/185/185 292/292/292
f 185/185/185 296/296/296 292/292/292
f 292/292/292 296/296/296 288/288/288
f 179/179/179 296/296/296 185/185/185
f 179/179/179 186/186/186 296/296/296
f 296/296/296 297/297/297 288/288/288
f 186/186/186 297/297/297 296/296/296
f 186/186/186 195/195/195 297/297/297
f 289/289/289 288/288/288 297/297/297
f 195/195/195 298/298/298 297/297/297
f 298/298/298 289/289/289 297/297/297
f 195/195/195 205/205/205 298/298/298
f 299/299/299 289/289/289 298/298/298
f 289/289/289 299/299/299 280/280/280
f 205/205/205 300/300/300 298/298/298
f 300/300/300 299/299/299 298/298/298
f 205/205/205 208/208/208 300/300/300
f 299/299/299 301/301/301 280/280/280
f 299/299/299 300/300/300 301/301/301
f 208/208/208 302/302/302 300/300/300
f 300/300/300 302/302/302 301/301/301
f 301/301/301 303/303/303 280/280/280
f 280/280/280 303/303/303 281/281/281
f 208/208/208 304/304/304 302/302/302
f 208/208/208 206/206/206 304/304/304
f 301/301/301 302/302/302 305/305/305
f 301/301/301 305/305/305 303/303/303
f 281/281/281 303/303/303 306/306/306
f 281/281/281 306/306/306 283/283/283
f 304/304/304 307/307/307 302/302/302
f 302/302/302 307/307/307 305/305/305
f 206/206/206 308/308/308 304/304/304
f 308/308/308 206/206/206 197/197/197
f 305/305/305 309/309/309 303/303/303
f 303/303/303 309/309/309 306/306/306
f 309/309/309 305/305/305 310/310/310
f 306/306/306 309/309/309 310/310/310
f 283/283/283 306/306/306 311/311/311
f 286/286/286 283/283/283 311/311/311
f 304/304/304 312/312/312 307/307/307
f 304/304/304 308/308/308 312/312/312
f 197/197/197 313/313/313 308/308/308
f 313/313/313 197/197/197 198/198/198
f 313/313/313 198/198/198 314/314/314
f 315/315/315 305/305/305 307/307/307
f 305/305/305 315/315/315 310/310/310
f 313/313/313 316/316/316 308/308/308
f 308/308/308 316/316/316 312/312/312
f 317/317/317 313/313/313 314/314/314
f 313/313/313 317/317/317 316/316/316
f 314/314/314 318/318/318 317/317/317
f 312/312/312 319/319/319 307/307/307
f 319/319/319 315/315/315 307/307/307
f 320/320/320 312/312/312 316/316/316
f 319/319/319 312/312/312 320/320/320
f 317/317/317 321/321/321 316/316/316
f 321/321/321 320/320/320 316/316/316
f 318/318/318 322/322/322 317/317/317
f 317/317/317 322/322/322 321/321/321
f 322/322/322 318/318/318 323/323/323
f 324/324/324 319/319/319 320/320/320
f 319/319/319 324/324/324 315/315/315
f 320/320/320 321/321/321 325/325/325
f 320/320/320 325/325/325 324/324/324
f 326/326/326 322/322/322 323/323/323
f 326/326/326 323/323/323 327/327/327
f 322/322/322 328/328/328 321/321/321
f 321/321/321 328/328/328 325/325/325
f 328/328/328 322/322/322 326/326/326
f 329/329/329 326/326/326 327/327/327
f 329/329/329 327/327/327 330/330/330
f 331/331/331 328/328/328 326/326/326
f 331/331/331 326/326/326 329/329/329
f 325/325/325 328/328/328 332/332/332
f 328/328/328 331/331/331 332/332/332
f 333/333/333 329/329/329 330/330/330
f 333/333/333 330/330/330 334/334/334
f 335/335/335 331/331/331 329/329/329
f 335/335/335 329/329/329 333/333/333
f 336/336/336 333/333/333 334/334/334
f 336/336/336 334/334/334 337/337/337
f 338/338/338 336/336/336 337/337/337
f 339/339/339 333/333/333 336/336/336
f 339/339/339 335/335/335 333/333/333
f 340/340/340 336/336/336 338/338/338
f 340/340/340 339/339/339 336/336/336
f 341/341/341 340/340/340 338/338/338
f 340/340/340 341/341/341 342/342/342
f 331/331/331 335/335/335 343/343/343
f 332/332/332 331/331/331 343/343/343
f 335/335/335 339/339/339 344/344/344
f 343/343/343 335/335/335 344/344/344
f 339/339/339 340/340/340 345/345/345
f 345/345/345 340/340/340 342/342/342
f 344/344/344 339/339/339 345/345/345
f 345/345/345 342/342/342 346/346/346
f 342/342/342 347/347/347 346/346/346
f 347/347/347 348/348/348 346/346/346
f 344/344/344 345/345/345 349/349/349
f 345/345/345 346/346/346 349/349/349
f 343/343/343 344/344/344 350/350/350
f 344/344/344 349/349/349 350/350/350
f 332/332/332 343/343/343 351/351/351
f 343/343/343 350/350/350 351/351/351
f 348/348/348 352/352/352 346/346/346
f 349/349/349 346/346/346 352/352/352
f 350/350/350 349/349/349 353/353/353
f 350/350/350 353/353/353 351/351/351
f 332/332/332 351/351/351 354/354/354
f 325/325/325 332/332/332 354/354/354
f 325/325/325 354/354/354 324/324/324
f 351/351/351 355/355/355 354/354/354
f 353/353/353 355/355/355 351/351/351
f 355/355/355 353/353/353 356/356/356
f 349/349/349 357/357/357 353/353/353
f 357/357/357 349/349/349 352/352/352
f 353/353/353 357/357/357 356/356/356
f 352/352/352 348/348/348 358/358/358
f 348/348/348 359/359/359 358/358/358
f 358/358/358 359/359/359 360/360/360
f 357/357/357 352/352/352 361/361/361
f 352/352/352 358/358/358 361/361/361
f 357/357/357 361/361/361 356/356/356
f 362/362/362 358/358/358 360/360/360
f 361/361/361 358/358/358 362/362/362
f 362/362/362 360/360/360 363/363/363
f 355/355/355 364/364/364 354/354/354
f 354/354/354 364/364/364 324/324/324
f 365/365/365 361/361/361 362/362/362
f 356/356/356 361/361/361 365/365/365
f 366/366/366 362/362/362 363/363/363
f 365/365/365 362/362/362 366/366/366
f 364/364/364 355/355/355 367/367/367
f 367/367/367 355/355/355 356/356/356
f 364/364/364 368/368/368 324/324/324
f 324/324/324 368/368/368 315/315/315
f 368/368/368 364/364/364 369/369/369
f 369/369/369 364/364/364 367/367/367
f 368/368/368 370/370/370 315/315/315
f 370/370/370 368/368/368 369/369/369
f 370/370/370 310/310/310 315/315/315
f 371/371/371 370/370/370 369/369/369
f 310/310/310 370/370/370 371/371/371
f 372/372/372 369/369/369 367/367/367
f 372/372/372 371/371/371 369/369/369
f 373/373/373 367/367/367 356/356/356
f 373/373/373 372/372/372 367/367/367
f 374/374/374 356/356/356 365/365/365
f 374/374/374 373/373/373 356/356/356
f 374/374/374 365/365/365 375/375/375
f 375/375/375 365/365/365 366/366/366
f 376/376/376 310/310/310 371/371/371
f 376/376/376 306/306/306 310/310/310
f 306/306/306 376/376/376 311/311/311
f 311/311/311 376/376/376 371/371/371
f 377/377/377 371/371/371 372/372/372
f 377/377/377 311/311/311 371/371/371
f 372/372/372 373/373/373 378/378/378
f 378/378/378 377/377/377 372/372/372
f 373/373/373 374/374/374 379/379/379
f 379/379/379 374/374/374 375/375/375
f 380/380/380 311/311/311 377/377/377
f 380/380/380 286/286/286 311/311/311
f 291/291/291 286/286/286 380/380/380
f 381/381/381 380/380/380 377/377/377
f 377/377/377 378/378/378 381/381/381
f 382/382/382 291/291/291 380/380/380
f 382/382/382 380/380/380 381/381/381
f 382/382/382 294/294/294 291/291/291
f 373/373/373 383/383/383 378/378/378
f 383/383/383 373/373/373 379/379/379
f 383/383/383 384/384/384 378/378/378
f 384/384/384 383/383/383 379/379/379
f 385/385/385 379/379/379 375/375/375
f 385/385/385 384/384/384 379/379/379
f 378/378/378 386/386/386 381/381/381
f 384/384/384 386/386/386 378/378/378
f 387/387/387 382/382/382 381/381/381
f 381/381/381 386/386/386 387/387/387
f 388/388/388 294/294/294 382/382/382
f 387/387/387 388/388/388 382/382/382
f 389/389/389 386/386/386 384/384/384
f 386/386/386 389/389/389 387/387/387
f 390/390/390 389/389/389 384/384/384
f 390/390/390 384/384/384 385/385/385
f 389/389/389 391/391/391 387/387/387
f 391/391/391 388/388/388 387/387/387
f 389/389/389 390/390/390 391/391/391
f 392/392/392 385/385/385 375/375/375
f 392/392/392 375/375/375 366/366/366
f 388/388/388 393/393/393 294/294/294
f 393/393/393 290/290/290 294/294/294
f 393/393/393 293/293/293 290/290/290
f 391/391/391 394/394/394 388/388/388
f 394/394/394 393/393/393 388/388/388
f 395/395/395 293/293/293 393/393/393
f 394/394/394 395/395/395 393/393/393
f 391/391/391 396/396/396 394/394/394
f 390/390/390 396/396/396 391/391/391
f 397/397/397 390/390/390 385/385/385
f 397/397/397 385/385/385 392/392/392
f 398/398/398 392/392/392 366/366/366
f 398/398/398 366/366/366 363/363/363
f 399/399/399 398/398/398 363/363/363
f 400/400/400 392/392/392 398/398/398
f 400/400/400 397/397/397 392/392/392
f 401/401/401 398/398/398 399/399/399
f 401/401/401 400/400/400 398/398/398
f 402/402/402 401/401/401 399/399/399
f 402/402/402 403/403/403 401/401/401
f 403/403/403 404/404/404 401/401/401
f 401/401/401 404/404/404 400/400/400
f 403/403/403 405/405/405 404/404/404
f 397/397/397 406/406/406 390/390/390
f 406/406/406 396/396/396 390/390/390
f 400/400/400 407/407/407 397/397/397
f 404/404/404 407/407/407 400/400/400
f 407/407/407 406/406/406 397/397/397
f 405/405/405 408/408/408 404/404/404
f 404/404/404 408/408/408 407/407/407
f 405/405/405 409/409/409 408/408/408
f 407/407/407 410/410/410 406/406/406
f 408/408/408 410/410/410 407/407/407
f 406/406/406 411/411/411 396/396/396
f 410/410/410 411/411/411 406/406/406
f 409/409/409 412/412/412 408/408/408
f 408/408/408 412/412/412 410/410/410
f 411/411/411 413/413/413 396/396/396
f 396/396/396 413/413/413 394/394/394
f 394/394/394 413/413/413 395/395/395
f 410/410/410 414/414/414 411/411/411
f 412/412/412 414/414/414 410/410/410
f 415/415/415 412/412/412 409/409/409
f 416/416/416 415/415/415 409/409/409
f 416/416/416 417/417/417 415/415/415
f 411/411/411 418/418/418 413/413/413
f 414/414/414 418/418/418 411/411/411
f 419/419/419 414/414/414 412/412/412
f 415/415/415 419/419/419 412/412/412
f 417/417/417 420/420/420 415/415/415
f 415/415/415 420/420/420 419/419/419
f 420/420/420 417/417/417 229/229/229
f 419/419/419 421/421/421 414/414/414
f 421/421/421 418/418/418 414/414/414
f 420/420/420 422/422/422 419/419/419
f 422/422/422 420/420/420 229/229/229
f 419/419/419 422/422/422 421/421/421
f 418/418/418 423/423/423 413/413/413
f 413/413/413 423/423/423 395/395/395
f 422/422/422 424/424/424 421/421/421
f 424/424/424 422/422/422 229/229/229
f 421/421/421 425/425/425 418/418/418
f 425/425/425 423/423/423 418/418/418
f 421/421/421 424/424/424 425/425/425
f 426/426/426 395/395/395 423/423/423
f 425/425/425 426/426/426 423/423/423
f 424/424/424 427/427/427 425/425/425
f 427/427/427 424/424/424 229/229/229
f 425/425/425 427/427/427 426/426/426
f 428/428/428 427/427/427 229/229/229
f 427/427/427 428/428/428 426/426/426
f 276/276/276 428/428/428 229/229/229
f 426/426/426 428/428/428 276/276/276
f 395/395/395 426/426/426 429/429/429
f 429/429/429 426/426/426 276/276/276
f 293/293/293 395/395/395 429/429/429
f 429/429/429 276/276/276 275/275/275
f 429/429/429 275/275/275 293/293/293
f 432/432/432 431/431/431 430/430/430
f 431/431/431 433/433/433 430/430/430
f 433/433/433 431/431/431 434/434/434
f 431/431/431 435/435/435 434/434/434
f 434/434/434 435/435/435 436/436/436
f 435/435/435 437/437/437 436/436/436
f 436/436/436 437/437/437 438/438/438
f 437/437/437 439/439/439 438/438/438
f 438/438/438 439/439/439 440/440/440
f 441/441/441 438/438/438 440/440/440
f 440/440/440 442/442/442 441/441/441
f 442/442/442 443/443/443 441/441/441
f 442/442/442 444/444/444 443/443/443
f 444/444/444 445/445/445 443/443/443
f 448/448/448 447/447/447 446/446/446
f 447/447/447 449/449/449 446/446/446
f 447/447/447 450/450/450 449/449/449
f 450/450/450 451/451/451 449/449/449
f 451/451/451 450/450/450 452/452/452
f 453/453/453 451/451/451 452/452/452
f 452/452/452 454/454/454 453/453/453
f 454/454/454 455/455/455 453/453/453
f 458/458/458 457/457/457 456/456/456
f 459/459/459 457/457/457 458/458/458
f 460/460/460 459/459/459 458/458/458
f 461/461/461 460/460/460 458/458/458
f 461/461/461 462/462/462 460/460/460
f 462/462/462 463/463/463 460/460/460
f 463/463/463 462/462/462 464/464/464
f 465/465/465 463/463/463 464/464/464
f 466/466/466 465/465/465 464/464/464
f 469/469/469 468/468/468 467/467/467
f 470/470/470 468/468/468 469/469/469
f 471/471/471 470/470/470 469/469/469
f 472/472/472 470/470/470 471/471/471
f 473/473/473 472/472/472 471/471/471
f 472/472/472 473/473/473 474/474/474
f 475/475/475 472/472/472 474/474/474
f 476/476/476 475/475/475 474/474/474
f 477/477/477 476/476/476 474/474/474
f 480/480/480 479/479/479 478/478/478
f 481/481/481 480/480/480 478/478/478
f 478/478/478 482/482/482 481/481/481
f 482/482/482 483/483/483 481/481/481
f 483/483/483 482/482/482 484/484/484
f 485/485/485 483/483/483 484/484/484
f 485/485/485 484/484/484 486/486/486
f 487/487/487 485/485/485 486/486/486
f 486/486/486 488/488/488 487/487/487
f 488/488/488 489/489/489 487/487/487
f 489/489/489 488/488/488 490/490/490
f 488/488/488 491/491/491 490/490/490
f 492/492/492 490/490/490 491/491/491
f 493/493/493 492/492/492 491/491/491
f 494/494/494 492/492/492 493/493/493
f 495/495/495 494/494/494 493/493/493
f 494/494/494 495/495/495 496/496/496
f 497/497/497 494/494/494 496/496/496
f 497/497/497 496/496/496 498/498/498
f 499/499/499 497/497/497 498/498/498
f 499/499/499 498/498/498 500/500/500
f 501/501/501 499/499/499 500/500/500
f 504/504/504 503/503/503 502/502/502
f 505/505/505 503/503/503 504/504/504
f 506/506/506 505/505/505 504/504/504
f 507/507/507 505/505/505 506/506/506
f 508/508/508 507/507/507 506/506/506
f 507/507/507 508/508/508 509/509/509
f 510/510/510 507/507/507 509/509/509
f 511/511/511 510/510/510 509/509/509
f 512/512/512 511/511/511 509/509/509
f 515/515/515 514/514/514 513/513/513
f 516/516/516 514/514/514 515/515/515
f 517/517/517 516/516/516 515/515/515
f 518/518/518 517/517/517 515/515/515
f 518/518/518 519/519/519 517/517/517
f 519/519/519 520/520/520 517/517/517
f 520/520/520 519/519/519 521/521/521
f 522/522/522 520/520/520 521/521/521
f 523/523/523 522/522/522 521/521/521
f 526/526/526 525/525/525 524/524/524
f 527/527/527 526/526/526 524/524/524
f 525/525/525 528/528/528 524/524/524
f 529/529/529 527/527/527 524/524/524
f 528/528/528 530/530/530 524/524/524
f 531/531/531 529/529/529 524/524/524
f 530/530/530 532/532/532 524/524/524
f 533/533/533 531/531/531 524/524/524
f 532/532/532 534/534/534 524/524/524
f 535/535/535 533/533/533 524/524/524
f 534/534/534 536/536/536 524/524/524
f 537/537/537 535/535/535 524/524/524
f 536/536/536 538/538/538 524/524/524
f 539/539/539 537/537/537 524/524/524
f 538/538/538 540/540/540 524/524/524
f 540/540/540 539/539/539 524/524/524
