g Plane002
v 0.60508281 -0.347234249 -0.0456385128
v 0.315740019 -0.347234249 0.0889001712
v 0.550206304 -0.186282903 -0.129339039
v 0.287104785 -0.186282903 -0.00700199837
v -7.44914974E-09 -0.347234249 0.135032013
v 0.531045675 4.61511558E-11 -0.158563912
v -1.54766366E-09 -0.186282903 0.0349460281
v -0.315740019 -0.347234249 0.0889001712
v 0.277106464 4.61511558E-11 -0.0404872075
v 0.550206304 0.186282903 -0.129339039
v -0.287104756 -0.186282903 -0.00700199651
v -0.60508275 -0.347234219 -0.0456385165
v -0.550206304 -0.186282873 -0.129339024
v 8.69685712E-11 4.61511558E-11 -5.81884834E-18
v 0.287104785 0.186282903 -0.00700199651
v 0.60508281 0.347234249 -0.0456385203
v 0.315740019 0.347234249 0.0889001638
v -0.277106464 4.61511558E-11 -0.0404872037
v -0.531045616 4.61511523E-11 -0.158563912
v -1.54766355E-09 0.186282903 0.0349460319
v -7.44915019E-09 0.347234219 0.135031998
v -0.287104756 0.186282873 -0.00700199651
v -0.550206304 0.186282873 -0.129339024
v -0.315740019 0.347234219 0.0889001638
v -0.60508275 0.347234219 -0.0456385277
vt 1 0
vt 0.75 0
vt 1 0.25
vt 0.75 0.25
vt 0.5 0
vt 1 0.5
vt 0.5 0.25
vt 0.25 0
vt 0.75 0.5
vt 1 0.75
vt 0.25 0.25
vt 0 0
vt 0 0.25
vt 0.5 0.5
vt 0.75 0.75
vt 1 1
vt 0.75 1
vt 0.25 0.5
vt 0 0.5
vt 0.5 0.75
vt 0.5 1
vt 0.25 0.75
vt 0 0.75
vt 0.25 1
vt 0 1
vn 0.359096587 0.52404958 0.772283435
vn 0.242962226 0.528067827 0.813703656
vn 0.392548293 0.364950508 0.844225585
vn 0.265994996 0.368302196 0.890842438
vn -0 0.528067827 0.849202216
vn 0.421629339 0 0.906768322
vn -0 0.368302137 0.929706097
vn -0.242962256 0.528067887 0.813703656
vn 0.286106497 0 0.958197832
vn 0.392548293 -0.364950567 0.844225705
vn -0.265994936 0.368302107 0.890842438
vn -0.359096587 0.524049461 0.772283554
vn -0.392548263 0.364950508 0.844225705
vn -0 0 1
vn 0.265994996 -0.368302196 0.890842438
vn 0.359096646 -0.52404952 0.772283494
vn 0.242962271 -0.528067827 0.813703656
vn -0.286106497 0 0.958197832
vn -0.421629369 0 0.906768203
vn -0 -0.368302107 0.929706097
vn -0 -0.528067946 0.849202156
vn -0.265994966 -0.368302166 0.890842438
vn -0.392548293 -0.364950538 0.844225585
vn -0.242962226 -0.528067827 0.813703656
vn -0.359096617 -0.52404952 0.772283494
g Plane002_0
f 3/3/3 2/2/2 1/1/1
f 2/2/2 3/3/3 4/4/4
f 4/4/4 5/5/5 2/2/2
f 6/6/6 4/4/4 3/3/3
f 5/5/5 4/4/4 7/7/7
f 7/7/7 8/8/8 5/5/5
f 4/4/4 6/6/6 9/9/9
f 9/9/9 7/7/7 4/4/4
f 10/10/10 9/9/9 6/6/6
f 8/8/8 7/7/7 11/11/11
f 11/11/11 12/12/12 8/8/8
f 12/12/12 11/11/11 13/13/13
f 7/7/7 9/9/9 14/14/14
f 14/14/14 11/11/11 7/7/7
f 9/9/9 10/10/10 15/15/15
f 15/15/15 14/14/14 9/9/9
f 16/16/16 15/15/15 10/10/10
f 15/15/15 16/16/16 17/17/17
f 18/18/18 13/13/13 11/11/11
f 11/11/11 14/14/14 18/18/18
f 13/13/13 18/18/18 19/19/19
f 17/17/17 20/20/20 15/15/15
f 14/14/14 15/15/15 20/20/20
f 20/20/20 18/18/18 14/14/14
f 20/20/20 17/17/17 21/21/21
f 22/22/22 19/19/19 18/18/18
f 18/18/18 20/20/20 22/22/22
f 21/21/21 22/22/22 20/20/20
f 19/19/19 22/22/22 23/23/23
f 22/22/22 21/21/21 24/24/24
f 24/24/24 23/23/23 22/22/22
f 23/23/23 24/24/24 25/25/25
