g Sphere002
v -0 0 0.148067683
v -0.00645422982 0.0324476026 0.166320905
v -1.43828693E-09 0.0329041705 0.165420413
v -0.0140294777 0.0705309585 0.173612669
v -3.11329407E-09 0.071223855 0.17194958
v -0.0214177128 0.1076741 0.164302722
v -4.73532369E-09 0.108331546 0.162129626
v -0.0273515023 0.137505293 0.14019917
v -6.02548589E-09 0.137847036 0.137847036
v -0.0308024343 0.154854313 0.105497435
v -6.75935263E-09 0.154635906 0.103324413
v -0.0311425887 0.15656437 0.0661215857
v -6.80221968E-09 0.155616581 0.0644585043
v -0.0282438528 0.141991436 0.0287971944
v -6.13042772E-09 0.140247807 0.0278970338
v -0.0268285889 0.134876415 1.0382383E-08
v -6.49634924E-09 0.1486191 1.12204299E-08
v -0.0283565354 0.142557934 -0.0289120581
v -6.85183466E-09 0.156751603 -0.0311798155
v -0.0263311807 0.132375792 -0.0559060425
v -6.34185682E-09 0.145084754 -0.0600960478
v -0.0220121257 0.110662438 -0.0753908902
v -5.10189846E-09 0.116717793 -0.077988334
v -0.0210433044 0.105791837 -0.107864417
v -4.4732702E-09 0.102336496 -0.102336496
v -0.0178701822 0.0898394734 -0.137088388
v -3.85477072E-09 0.0881868526 -0.131980956
v -0.0128575405 0.0646392107 -0.159110218
v -2.81004242E-09 0.0642862618 -0.155200854
v -0.00663373107 0.0333500169 -0.170946762
v -1.46793933E-09 0.0335825272 -0.168830976
v -0 0 -0.171023861
v -0.0131566608 0.0317629948 -0.172840223
v -0 0 -0.171023861
v -0.0257756505 0.0622279383 -0.162609518
v -0.0362225771 0.0874490514 -0.141659975
v -0.0431717262 0.10422577 -0.112813152
v -0.0192772672 0.0288504753 -0.174439698
v -0 0 -0.171023861
v -0.038100455 0.0570213683 -0.165564492
v -0.0457968563 0.110563412 -0.0799629167
v -0.0540203936 0.0808472335 -0.145521179
v -0.0247101635 0.0247101653 -0.175682858
v -0 0 -0.171023861
v -0.0491655245 0.0491655245 -0.167861685
v -0.0649973899 0.0972754806 -0.11699222
v -0.056183286 0.135638461 -0.060812328
v -0.0291949548 0.0195074417 -0.176522523
v -0 0 -0.171023861
v -0.0701730028 0.0701730028 -0.148522586
v -0.0696968436 0.104308717 -0.0838236883
v -0.0624863766 0.150855467 -0.0324793421
v -0.0583467558 0.0389860496 -0.169412807
v -0.085023351 0.0850233436 -0.120241173
v -0.0876753107 0.131215394 -0.0653675944
v -0.0620507225 0.149803698 1.22417108E-08
v -0.0325138383 0.0134676658 -0.176925957
v -0 0 -0.171023861
v -0.0836407542 0.0558869541 -0.150549367
v -0.0918836221 0.0918836296 -0.0868251771
v -0.0976016298 0.146071196 -0.0349445678
v -0.0549765974 0.132725239 0.0285759103
v -0.0651168078 0.026972251 -0.170158461
v -0.101800658 0.0680210069 -0.122434586
v -0.111979552 0.111979552 -0.0655960739
v -0.0972415134 0.145532236 1.32144082E-08
v -0.0607108884 0.146569043 0.0657129958
v -0.0345071182 0.0068638837 -0.176877856
v -0 0 -0.171023861
v -0.110566214 0.0738779753 -0.0888522863
v -0.124662638 0.124662623 -0.0350681469
v -0.0864765644 0.129421338 0.0309614576
v -0.0601152964 0.145131201 0.104963422
v -0.123429321 0.0824728385 -0.0614888072
v -0.12422201 0.124221988 1.32632039E-08
v -0.0848323256 0.126960576 0.0632479936
v -0.0534306839 0.128993094 0.139621124
v -0.137295857 0.0917381644 -0.032845255
v -0.110503107 0.1105031 0.0310850367
v -0.0845959708 0.126606852 0.101742722
v -0.0418758206 0.101097181 0.163768768
v -0.136410221 0.0911463872 1.23861241E-08
v -0.114329033 0.114329018 0.0669723973
v -0.0756326765 0.113192327 0.136135235
v -0.027454989 0.0662822202 0.173203751
v -0.136975244 0.091523923 0.0327685773
v -0.106248669 0.106248684 0.100399397
v -0.0595987216 0.0891957954 0.160548165
v -0.0126435673 0.0305242762 0.166099444
v -0 0 0.148067683
v -0.0392912254 0.0588034727 0.170738786
v -0.0918357819 0.0918357819 0.129875407
v -0.141361818 0.0944549516 0.0704222843
v -0.0182081386 0.0272504054 0.164764941
v -0 0 0.148067683
v -0.0731222928 0.0731223002 0.154764816
v -0.13054423 0.0872268453 0.10490685
v -0.0487117767 0.0487117805 0.166312382
v -0.107120924 0.071575895 0.128833219
v -0.0228377432 0.0228377432 0.16237022
v -0 0 0.148067683
v -0.0814691335 0.05443592 0.146640539
v -0.0551376678 0.036841806 0.160094932
v -0.0262976829 0.0175715499 0.15900445
v -0 0 0.148067683
v -0.157191217 0.0651107058 0.0704753473
v -0.145148739 0.0601225495 0.104976095
v -0.119095579 0.0493309759 0.128908113
v -0.0844191983 0.034967564 0.136751875
v -0.0582920052 0.0241453312 0.152324319
v -0.152332142 0.0630979985 0.0327972956
v -0.0284476578 0.0117834006 0.154799417
v -0 0 0.148067683
v -0.148606509 0.0615547933 1.21438761E-08
v -0.138599589 0.0574097969 -0.0298406351
v -0.122794718 0.0508632176 -0.0550539419
v -0.12420176 0.0514460318 -0.0898265913
v -0.114089057 0.0472572111 -0.123489104
v -0.0935379937 0.0387446918 -0.151523545
v -0.069091551 0.0137431463 -0.17006965
v -0.0992234424 0.0197367426 -0.151407614
v -0.12099348 0.0240670685 -0.123363867
v -0.131681532 0.0261930581 -0.089710556
v -0.147144154 0.0292687546 -0.0621431395
v -0.0350841582 -1.14318714E-08 -0.176380187
v -0 0 -0.171023861
v -0.0700642392 -2.28298287E-08 -0.169150114
v -0.1003647 -3.2702971E-08 -0.150206387
v -0.12206316 -3.97732265E-08 -0.12206316
v -0.0342289358 -0.00680857291 -0.175451964
v -0 0 -0.171023861
v -0.0680211782 -0.0135302823 -0.167434976
v -0.165583193 0.032936506 -0.0335817896
v -0.142186537 -4.63302605E-08 -0.0950060189
v -0.0969673544 -0.0192880481 -0.147965044
v -0.0319998227 -0.0132547785 -0.174128979
v -0 0 -0.171023861
v -0.0631389096 -0.0261530243 -0.164990038
v -0.117338881 -0.0233402085 -0.119637698
v -0.163440287 -5.32556008E-08 -0.0676991567
v -0.176937029 0.0351949185 1.36200811E-08
v -0.0285233688 -0.0190587305 -0.172461987
v -0 0 -0.171023861
v -0.0893694386 -0.0370180793 -0.144770861
v -0.1423987 -0.0283249225 -0.0970118344
v -0.180530176 -5.88242024E-08 -0.0359096602
v -0.174385384 0.0346873738 0.0353669897
v -0.0557625964 -0.0372594185 -0.16190961
v -0.107336134 -0.0444601476 -0.116179824
v -0.163934559 -0.0326086842 -0.0692341998
v -0.192569315 -6.27470484E-08 1.4538581E-08
v -0.158950806 0.0316172428 0.0671294555
v -0.0239832085 -0.0239832401 -0.170514509
v -0 0 -0.171023861
v -0.129538968 -0.0536568724 -0.0936866626
v -0.181129202 -0.0360289179 -0.0367346704
v -0.189504817 -6.17485156E-08 0.037694864
v -0.147671983 0.0293737501 0.100604348
v -0.148746595 -0.0616129451 -0.0666892678
v -0.193097994 -0.0384096615 1.48641055E-08
v -0.171829015 -5.59890019E-08 0.0711739063
v -0.121790305 0.0242255665 0.124176309
v -0.167324632 -0.0693082213 -0.0360251814
v -0.189931422 -0.0377797931 0.0385198742
v -0.142309904 -4.63704595E-08 0.0950884447
v -0.0867538899 0.0172564015 0.132380009
v -0.178468361 -0.0739241168 1.45841419E-08
v -0.172136977 -0.0342402458 0.0726983547
v -0.114819333 -3.74128888E-08 0.114819333
v -0.0582164004 0.0115799457 0.14330025
v -0.17561613 -0.0727426782 0.0378103815
v -0.142499104 -0.0283448976 0.0970802307
v -0.0826772079 -2.69396594E-08 0.123735197
v -0.0292470027 0.0058175833 0.149915174
v -0 0 0.148067683
v -0.05524344 -1.80005983E-08 0.133369431
v -0.105651081 -0.0210153535 0.107720919
v -0.15922527 -0.065953359 0.0713873208
v -0.0287510324 -9.36827593E-09 0.144541189
v -0 0 0.148067683
v -0.0728408918 -0.0144889848 0.111149825
v -0.1318627 -0.0546193905 0.0953672603
v -0.049934011 -0.00993251428 0.1229131
v -0.0978083014 -0.0405135863 0.105866976
v -0.0270945467 -0.00538945198 0.138882056
v -0 0 0.148067683
v -0.0662640259 -0.02744749 0.107342049
v -0.0470930748 -0.0195066165 0.123060144
v -0.0259633847 -0.0107544018 0.141281158
v -0 0 0.148067683
v -0.135076642 -0.0902554318 0.0672912151
v -0.112013496 -0.0748451129 0.0900153741
v -0.0863867328 -0.0577218421 0.103896484
v -0.0608654693 -0.0406690575 0.109554991
v -0.0458517335 -0.0306371879 0.13313283
v -0.148783743 -0.0994142443 0.0355935395
v -0.0242679883 -0.0162153672 0.146732271
v -0 0 0.148067683
v -0.150984526 -0.100884743 1.37094842E-08
v -0.141321599 -0.0944281742 -0.0338083394
v -0.121288247 -0.0810423046 -0.0604222082
v -0.11058148 -0.0738882646 -0.0888645798
v -0.0950278714 -0.0634956807 -0.11428909
v -0.0793564916 -0.0530243814 -0.142837986
v -0.0489205867 -0.04892065 -0.167025521
v -0.0716973767 -0.0716974512 -0.15174903
v -0.0876344442 -0.0876345634 -0.123933896
v -0.0937460512 -0.0937461704 -0.0885851234
v -0.100976065 -0.100976214 -0.0591504276
v -0.0187567957 -0.0280715749 -0.169730127
v -0 0 -0.171023861
v -0.0396379046 -0.0593224131 -0.172245577
v -0.0588641688 -0.0880965963 -0.158569604
v -0.0729552731 -0.109185435 -0.13131614
v -0.0130608035 -0.0315316394 -0.171581239
v -0 0 -0.171023861
v -0.0278450921 -0.0672241524 -0.1756652
v -0.113296688 -0.113296829 -0.0318708755
v -0.0792812034 -0.118652888 -0.095350787
v -0.0416887291 -0.100645714 -0.16303739
v -0.00668955734 -0.0336308293 -0.172386125
v -0 0 -0.171023861
v -0.0143154841 -0.0719691366 -0.177152857
v -0.0521030799 -0.125788257 -0.136152178
v -0.0907529593 -0.135821611 -0.0676622465
v -0.122347295 -0.122347467 1.30630493E-08
v 3.30579439E-08 -0.0342356823 -0.172114611
v -0 0 -0.171023861
v -0.0215060785 -0.108118862 -0.164981335
v -0.0580470599 -0.140138358 -0.101352401
v -0.0953102857 -0.142642125 -0.0341242217
v -0.122891776 -0.122891948 0.0345700532
v 7.06543943E-08 -0.0731715485 -0.17665185
v -0.0269723572 -0.135599822 -0.138256356
v -0.0675577223 -0.16309914 -0.0731240511
v -0.100427568 -0.150300696 1.36473828E-08
v -0.114799224 -0.11479938 0.0672478676
v 0.0066272039 -0.0333170183 -0.170777664
v -0 0 -0.171023861
v -0.0304320212 -0.1529928 -0.104229242
v -0.0713376775 -0.172224805 -0.0370801687
v -0.100691237 -0.150695309 0.0360508151
v -0.0991646051 -0.0991647393 0.0937053859
v -0.03547756 -0.178358525 -0.0753258616
v -0.0699237734 -0.168811321 1.37949776E-08
v -0.0938672796 -0.140482515 0.0699842051
v -0.0781417489 -0.0781418532 0.110509194
v -0.0375362262 -0.188708201 -0.0382717475
v -0.070077002 -0.169181243 0.0364249162
v -0.0808854476 -0.121053815 0.0972802043
v -0.0577638559 -0.057763923 0.122258432
v -0.0362181105 -0.18208158 1.40160905E-08
v -0.0652954206 -0.157637462 0.0706754029
v -0.063545309 -0.0951024145 0.114378639
v -0.0418412834 -0.0418413393 0.142855152
v -0.0349921882 -0.1759184 0.0356778912
v -0.0562321171 -0.135756686 0.0981834382
v -0.0497491546 -0.0744549856 0.134015366
v -0.0213784259 -0.021378452 0.151994944
v -0 0 0.148067683
v -0.0349451974 -0.0522992611 0.151853412
v -0.0450158007 -0.108678013 0.117632195
v -0.032637164 -0.164078847 0.0692951679
v -0.0173350517 -0.0259437747 0.156864539
v -0 0 0.148067683
v -0.0369163826 -0.0891242325 0.144373566
v -0.0281402729 -0.141471341 0.0963800326
v -0.0253273249 -0.061145708 0.159781352
v -0.0247569177 -0.124461994 0.12690033
v -0.0122672385 -0.0296158027 0.161155894
v -0 0 0.148067683
v -0.0199359171 -0.100225084 0.152936012
v -0.0134413196 -0.0675743818 0.166335031
v -0.00639136648 -0.0321317166 0.1647017
v -0 0 0.148067683
v 1.53615602E-07 -0.159088343 0.0658965558
v 1.43221371E-07 -0.148323834 0.0991068184
v 1.29263157E-07 -0.133868307 0.133868307
v 1.02826647E-07 -0.106489979 0.159373522
v 6.84986929E-08 -0.070939064 0.171262011
v 1.64265757E-07 -0.170117944 0.0338385776
v 3.21463922E-08 -0.0332916491 0.167368412
v -0 0 0.148067683
v 1.76141029E-07 -0.18241632 1.37720502E-08
v 1.82783822E-07 -0.189295769 -0.037653245
v 1.72932658E-07 -0.179093629 -0.0741829872
v 1.48465972E-07 -0.153755277 -0.102735996
v 1.3281587E-07 -0.137547597 -0.137547597
v 1.06022213E-07 -0.1097994 -0.164326429
v 0.0140754506 -0.0707616806 -0.174180746
v 0.021000091 -0.105574004 -0.161098167
v 0.0261525791 -0.131477162 -0.134052992
v 0.0285784192 -0.14367266 -0.0978797302
v 0.0328468047 -0.165131122 -0.0697395578
v 0.012820689 -0.0309517849 -0.168426067
v -0 0 -0.171023861
v 0.0269210953 -0.0649930686 -0.169835255
v 0.0397411212 -0.0959432498 -0.155419931
v 0.0489481837 -0.118170984 -0.12790741
v 0.0182506572 -0.0273139644 -0.165149584
v -0 0 -0.171023861
v 0.0376902223 -0.0564072542 -0.163781509
v 0.0345713496 -0.17380096 -0.035248436
v 0.0528065301 -0.127485812 -0.0922017843
v 0.054759115 -0.0819525868 -0.147510886
v 0.0226556081 -0.0226555504 -0.161075309
v -0 0 -0.171023861
v 0.0457655266 -0.0457654148 -0.156253189
v 0.0663053244 -0.0992326513 -0.119346194
v 0.0574343465 -0.138658345 -0.0621663034
v 0.0335171744 -0.168501273 1.29707267E-08
v 0.0258600507 -0.0172790829 -0.156358451
v -0 0 -0.171023861
v 0.0650475994 -0.0650474429 -0.137674391
v 0.0700866431 -0.104891807 -0.0842923224
v 0.0623508021 -0.150527671 -0.0324087813
v 0.0315574482 -0.158649161 0.0321755372
v 0.0508132055 -0.0339521989 -0.147538617
v 0.0768619627 -0.0768617615 -0.108699083
v 0.0785136446 -0.11750368 -0.0585368723
v 0.0659431145 -0.159200221 1.30095872E-08
v 0.0310724508 -0.156210929 0.0659723356
v 0.0281955544 -0.0116789322 -0.153427705
v -0 0 -0.171023861
v 0.0916766748 -0.0916764438 -0.0866295099
v 0.083803691 -0.125420764 -0.0300043989
v 0.0620912537 -0.149901062 0.0322739035
v 0.0301234834 -0.151440173 0.103171498
v 0.10962192 -0.109621614 -0.0642149225
v 0.0887528956 -0.132827759 1.20608439E-08
v 0.0617263541 -0.149020121 0.066811949
v 0.0269749016 -0.135611236 0.138268054
v 0.115564942 -0.115564629 -0.0325088836
v 0.0834268853 -0.124856852 0.0298695192
v 0.059969034 -0.144777581 0.104707733
v 0.0213051438 -0.107107587 0.16343829
v 0.108722635 -0.108722351 1.16083196E-08
v 0.0864381418 -0.129363492 0.0644451156
v 0.0535493046 -0.129279032 0.139930695
v 0.014090986 -0.070839785 0.174372897
v 0.107920647 -0.107920356 0.0303585399
v 0.0861870199 -0.128987655 0.103656054
v 0.0421842374 -0.10184145 0.164974496
v 0.00656024786 -0.0329804122 0.16905205
v -0 0 0.148067683
v 0.0278267767 -0.0671795681 0.175548717
v 0.0771090463 -0.115401529 0.138792366
v 0.105312534 -0.105312258 0.0616905764
v 0.0129168313 -0.0311838891 0.169688851
v -0 0 0.148067683
v 0.0608516112 -0.0910706222 0.163922921
v 0.105886474 -0.105886221 0.100057006
v 0.0402129777 -0.0601828136 0.174743921
v 0.095386602 -0.0953863487 0.134896845
v 0.0187041294 -0.0279926341 0.169252813
v -0 0 0.148067683
v 0.0757489353 -0.0757487565 0.160323963
v 0.0503746122 -0.0503744893 0.171989456
v 0.0235961806 -0.0235961247 0.167762294
v -0 0 0.148067683
v 0.114603937 -0.076575689 0.0570922457
v 0.117033005 -0.0781987235 0.0940489918
v 0.106755637 -0.0713316202 0.128393784
v 0.0857332945 -0.0572849922 0.15431571
v 0.0576505363 -0.0385207385 0.167391017
v 0.120807111 -0.0807204992 0.0289006513
v 0.0273344647 -0.0182642527 0.165273011
v -0 0 0.148067683
v 0.12977922 -0.0867154747 1.17840182E-08
v 0.138777539 -0.0927279294 -0.0331996828
v 0.131463751 -0.0878410116 -0.0654912665
v 0.109875754 -0.0734164193 -0.0882973447
v 0.0864008516 -0.0577310361 -0.103913322
v 0.070161812 -0.0468804874 -0.126287818
v 0.0528001375 -0.0218704417 -0.137973383
v 0.0828053802 -0.0342989787 -0.134137571
v 0.108086362 -0.0447706506 -0.116991758
v 0.121915147 -0.0504986942 -0.0881727934
v 0.138993904 -0.0575729199 -0.0623166673
v 0.0299414396 -0.00595567469 -0.153474897
v -0 0 -0.171023861
v 0.0576601475 -0.0114692273 -0.141931117
v 0.0935524479 -0.0186085906 -0.142754063
v 0.12389183 -0.0246434212 -0.126318976
v 0.0306270495 4.91673582E-08 -0.153972775
v -0 0 -0.171023861
v 0.0603172816 9.68307887E-08 -0.145618886
v 0.146221265 -0.0605665781 -0.0314815715
v 0.142072424 -0.0282597374 -0.0967895165
v 0.0986049324 1.58296132E-07 -0.147572711
v 0.0302195922 0.00601110468 -0.154900774
v -0 0 -0.171023861
v 0.0594182387 0.0118191261 -0.146258757
v 0.131534502 2.11159872E-07 -0.131534502
v 0.143697217 -0.0285829231 -0.0606873818
v 0.140325457 -0.058124464 1.14671579E-08
v 0.0287095159 0.0118919322 -0.156224683
v -0 0 -0.171023861
v 0.09725786 0.0193459652 -0.148408368
v 0.152067482 2.44122589E-07 -0.101608239
v 0.163067564 -0.0324358977 -0.0330715887
v 0.136301801 -0.056457825 0.0293459333
v 0.0556266718 0.0230414364 -0.14535968
v 0.129894108 0.0258377735 -0.132438928
v 0.157680511 2.53133521E-07 -0.0653133839
v 0.171988696 -0.03421041 1.32391715E-08
v 0.121342272 -0.0502614044 0.0544027463
v 0.0261135697 0.0174485985 -0.157891661
v -0 0 -0.171023861
v 0.150372267 0.0299111642 -0.102443986
v 0.181381524 2.91182118E-07 -0.0360790081
v 0.166841224 -0.0331865214 0.0338369496
v 0.118721254 -0.0491757467 0.085862875
v 0.160811573 0.0319876932 -0.0679153055
v 0.191075519 3.06744397E-07 1.4425801E-08
v 0.148465782 -0.0295314472 0.0627013221
v 0.110434756 -0.0457433797 0.119533628
v 0.184839591 0.0367672071 -0.0374871753
v 0.185229108 2.97358838E-07 0.0368443727
v 0.119827889 -0.0238350593 0.0816350132
v 0.0902082399 -0.0373653285 0.146129549
v 0.194621906 0.0387130454 1.4981417E-08
v 0.164789975 2.64546742E-07 0.0682582483
v 0.106567264 -0.0211973786 0.108655013
v 0.0616602153 -0.0255403947 0.161125794
v 0.188613236 0.0375178382 0.0382525437
v 0.133041561 2.13579213E-07 0.0888955295
v 0.0891784206 -0.0177385472 0.136079609
v 0.0297493171 -0.0123225171 0.161882356
v -0 0 0.148067683
v 0.0623330958 -0.0123987244 0.153433517
v 0.0961785391 1.54400908E-07 0.0961785391
v 0.167784452 0.033374697 0.0708601773
v 0.0307696555 -0.00612041587 0.15771997
v -0 0 0.148067683
v 0.0832234845 1.33603407E-07 0.124552742
v 0.135475338 0.0269479547 0.0922951698
v 0.0598998852 9.61607114E-08 0.144611105
v 0.0968758911 0.0192699861 0.0987738371
v 0.0304226875 4.88392793E-08 0.152945176
v -0 0 0.148067683
v 0.0733921006 0.0145987254 0.111990958
v 0.0548432432 0.0109090945 0.134997249
v 0.0288231727 0.00573333586 0.147742748
v -0 0 0.148067683
v 0.157038793 0.0650479272 0.0704070777
v 0.126796335 0.0525210276 0.0917031541
v 0.090662986 0.0375540331 0.0981329829
v 0.0662639812 0.0274475738 0.107342049
v 0.0486248247 0.020141162 0.127062857
v 0.176530674 0.0731217638 0.0380073003
v 0.0261525381 0.0108327903 0.142310515
v -0 0 0.148067683
v 0.182145789 0.0754476264 1.48846624E-08
v 0.172975972 0.0716493577 -0.0372419395
v 0.150470495 0.0623272359 -0.0674622059
v 0.137251228 0.0568516068 -0.0992644653
v 0.119178042 0.0493654162 -0.128997475
v 0.089652352 0.0371353999 -0.145229235
v 0.0510096587 0.0340837017 -0.148109362
v 0.0780453533 0.0521484464 -0.140478104
v 0.100892544 0.0674145073 -0.12134257
v 0.115485057 0.0771649554 -0.0928052291
v 0.128412858 0.0858030692 -0.0639715344
v 0.0224815849 0.0224816725 -0.159838557
v -0 0 -0.171023861
v 0.0433801152 0.0433802828 -0.148109347
v 0.0663722306 0.0663724765 -0.140478432
v 0.0820812881 0.0820816085 -0.116080701
v 0.01790151 0.0267916191 -0.16199097
v -0 0 -0.171023861
v 0.0334509574 0.0500630997 -0.145360604
v 0.147777751 0.0987423137 -0.0353528671
v 0.097410515 0.0974108875 -0.0920479745
v 0.0508149602 0.0760502964 -0.136886731
v 0.0125038819 0.0301872175 -0.164265424
v -0 0 -0.171023861
v 0.0232640114 0.0561646149 -0.146765172
v 0.0623307638 0.0932849869 -0.112192743
v 0.101186648 0.101187058 -0.0592738613
v 0.155717775 0.104047686 1.41392773E-08
v 0.00646402221 0.0324972011 -0.166575298
v -0 0 -0.171023861
v 0.0332002118 0.0801528692 -0.129840687
v 0.071771495 0.107414089 -0.0863190889
v 0.113372676 0.113373116 -0.0318922959
v 0.150976881 0.100879923 0.0361182354
v 0.0122046703 0.0613577254 -0.151032716
v 0.0400156677 0.0966069326 -0.104566492
v 0.0736211911 0.110182367 -0.0548895001
v 0.119638346 0.119638816 1.277383E-08
v 0.134324163 0.0897528976 0.0669164136
v -1.46793933E-09 0.0335825272 -0.168830976
v -0 0 -0.171023861
v -2.81004242E-09 0.0642862618 -0.155200854
v 0.0164942946 0.0829233602 -0.126534849
v -3.85477072E-09 0.0881868526 -0.131980956
v 0.0188145582 0.0945882499 -0.0964412987
v -4.4732702E-09 0.102336496 -0.102336496
v 0.0434352197 0.104862526 -0.0758397952
v 0.0225404073 0.113319553 -0.0772010759
v -5.10189846E-09 0.116717793 -0.077988334
v 0.0500008799 0.12071351 -0.0541208051
v 0.0280205738 0.140870556 -0.0594935939
v -6.34185682E-09 0.145084754 -0.0600960478
v 0.0753936917 0.112835117 -0.0269934796
v 0.0541156977 0.130647615 -0.0281285476
v 0.030260412 0.152131096 -0.0308535639
v -6.85183466E-09 0.156751603 -0.0311798155
v 0.0797752738 0.119392641 1.08409051E-08
v 0.0592094921 0.1429452 1.16812346E-08
v 0.029885225 0.150244877 1.1565394E-08
v -6.49634924E-09 0.1486191 1.12204299E-08
v 0.116093315 0.11609377 0.0326576531
v 0.0775312856 0.116034254 0.0277588367
v 0.056651514 0.136769667 0.0294466559
v 0.028592553 0.143746108 0.0291530415
v -6.13042772E-09 0.140247807 0.0278970338
v 0.103317648 0.103318051 0.0605222024
v 0.0690352023 0.103318915 0.0514703654
v 0.0510434993 0.123230614 0.055249352
v 0.0286299102 0.143933907 0.0607873723
v -6.80221968E-09 0.155616581 0.0644585043
v 0.10843841 0.0724565163 0.0871424675
v 0.0833781287 0.0833784565 0.0787880942
v 0.0774901211 0.0517774485 0.0931966826
v 0.0680932254 0.101909138 0.0818952546
v 0.0522850677 0.126228079 0.0912920088
v 0.0287671965 0.144624099 0.098527886
v -6.75935263E-09 0.154635906 0.103324413
v 0.06496647 0.0434093885 0.116936706
v 0.0725009888 0.0725012794 0.102532089
v 0.0636971518 0.0953299403 0.114652179
v 0.0477675423 0.115321726 0.124823228
v 0.0258794781 0.130106404 0.132655278
v -6.02548589E-09 0.137847036 0.137847036
v 0.047307618 0.0316100717 0.137360185
v 0.0611868352 0.0611870661 0.129503414
v 0.0522305556 0.0781688914 0.140700087
v 0.0383798555 0.0926577076 0.15009743
v 0.0205089618 0.103106707 0.157333106
v -4.73532369E-09 0.108331546 0.162129626
v 0.0242628399 0.0162119772 0.146701306
v -0 0 0.148067683
v 0.0430487916 0.0430489518 0.146978021
v 0.0357952379 0.0535715967 0.155547544
v 0.0213659648 0.0213660467 0.15190655
v -0 0 0.148067683
v 0.0257962383 0.0622779876 0.162740052
v 0.0135982605 0.0683638528 0.168278232
v -3.11329407E-09 0.071223855 0.17194958
v 0.0172995627 0.0258907359 0.156543702
v -0 0 0.148067683
v 0.0122124376 0.029483607 0.160436451
v -0 0 0.148067683
v 0.00634213071 0.0318844058 0.163433984
v -0 0 0.148067683
v -1.43828693E-09 0.0329041705 0.165420413
v -0 0 0.148067683
vt 0 1
vt 0.03125 0.9375
vt 0 0.9375
vt 0.03125 0.875
vt 0 0.875
vt 0.03125 0.8125
vt 0 0.8125
vt 0.03125 0.75
vt 0 0.75
vt 0.03125 0.6875
vt 0 0.6875
vt 0.03125 0.625
vt 0 0.625
vt 0.03125 0.5625
vt 0 0.5625
vt 0.03125 0.5
vt 0 0.5
vt 0.03125 0.43750006
vt 0 0.43750006
vt 0.03125 0.37500006
vt 0 0.37500006
vt 0.03125 0.31250006
vt 0 0.31250006
vt 0.03125 0.25
vt 0 0.25
vt 0.03125 0.1875
vt 0 0.1875
vt 0.03125 0.125
vt 0 0.125
vt 0.03125 0.0624999404
vt 0 0.0624999404
vt 0 -1.1920929E-07
vt 0.0625 0.0624999404
vt 0.03125 -1.1920929E-07
vt 0.0625 0.125
vt 0.0625 0.1875
vt 0.0625 0.25
vt 0.09375 0.0624999404
vt 0.0625 -1.1920929E-07
vt 0.09375 0.125
vt 0.0625 0.31250006
vt 0.09375 0.1875
vt 0.125 0.0624999404
vt 0.09375 -1.1920929E-07
vt 0.125 0.125
vt 0.09375 0.25
vt 0.0625 0.37500006
vt 0.15625 0.0624999404
vt 0.125 -1.1920929E-07
vt 0.125 0.1875
vt 0.09375 0.31250006
vt 0.0625 0.43750006
vt 0.15625 0.125
vt 0.125 0.25
vt 0.09375 0.37500006
vt 0.0625 0.5
vt 0.1875 0.0624999404
vt 0.15625 -1.1920929E-07
vt 0.15625 0.1875
vt 0.125 0.31250006
vt 0.09375 0.43750006
vt 0.0625 0.5625
vt 0.1875 0.125
vt 0.15625 0.25
vt 0.125 0.37500006
vt 0.09375 0.5
vt 0.0625 0.625
vt 0.218749985 0.0624999404
vt 0.1875 -1.1920929E-07
vt 0.15625 0.31250006
vt 0.125 0.43750006
vt 0.09375 0.5625
vt 0.0625 0.6875
vt 0.15625 0.37500006
vt 0.125 0.5
vt 0.09375 0.625
vt 0.0625 0.75
vt 0.15625 0.43750006
vt 0.125 0.5625
vt 0.09375 0.6875
vt 0.0625 0.8125
vt 0.15625 0.5
vt 0.125 0.625
vt 0.09375 0.75
vt 0.0625 0.875
vt 0.15625 0.5625
vt 0.125 0.6875
vt 0.09375 0.8125
vt 0.0625 0.9375
vt 0.03125 1
vt 0.09375 0.875
vt 0.125 0.75
vt 0.15625 0.625
vt 0.09375 0.9375
vt 0.0625 1
vt 0.125 0.8125
vt 0.15625 0.6875
vt 0.125 0.875
vt 0.15625 0.75
vt 0.125 0.9375
vt 0.09375 1
vt 0.15625 0.8125
vt 0.15625 0.875
vt 0.15625 0.9375
vt 0.125 1
vt 0.1875 0.625
vt 0.1875 0.6875
vt 0.1875 0.75
vt 0.1875 0.8125
vt 0.1875 0.875
vt 0.1875 0.5625
vt 0.1875 0.9375
vt 0.15625 1
vt 0.1875 0.5
vt 0.1875 0.43750006
vt 0.1875 0.37500006
vt 0.1875 0.31250006
vt 0.1875 0.25
vt 0.1875 0.1875
vt 0.218749985 0.125
vt 0.218749985 0.1875
vt 0.218749985 0.25
vt 0.218749985 0.31250006
vt 0.218749985 0.37500006
vt 0.249999985 0.0624999404
vt 0.218749985 -1.1920929E-07
vt 0.249999985 0.125
vt 0.249999985 0.1875
vt 0.249999985 0.25
vt 0.28124997 0.0624999404
vt 0.249999985 -1.1920929E-07
vt 0.28124997 0.125
vt 0.218749985 0.43750006
vt 0.249999985 0.31250006
vt 0.28124997 0.1875
vt 0.31249997 0.0624999404
vt 0.28124997 -1.1920929E-07
vt 0.31249997 0.125
vt 0.28124997 0.25
vt 0.249999985 0.37500006
vt 0.218749985 0.5
vt 0.34374997 0.0624999404
vt 0.31249997 -1.1920929E-07
vt 0.31249997 0.1875
vt 0.28124997 0.31250006
vt 0.249999985 0.43750006
vt 0.218749985 0.5625
vt 0.34374997 0.125
vt 0.31249997 0.25
vt 0.28124997 0.37500006
vt 0.249999985 0.5
vt 0.218749985 0.625
vt 0.375 0.0624999404
vt 0.34374997 -1.1920929E-07
vt 0.31249997 0.31250006
vt 0.28124997 0.43750006
vt 0.249999985 0.5625
vt 0.218749985 0.6875
vt 0.31249997 0.37500006
vt 0.28124997 0.5
vt 0.249999985 0.625
vt 0.218749985 0.75
vt 0.31249997 0.43750006
vt 0.28124997 0.5625
vt 0.249999985 0.6875
vt 0.218749985 0.8125
vt 0.31249997 0.5
vt 0.28124997 0.625
vt 0.249999985 0.75
vt 0.218749985 0.875
vt 0.31249997 0.5625
vt 0.28124997 0.6875
vt 0.249999985 0.8125
vt 0.218749985 0.9375
vt 0.1875 1
vt 0.249999985 0.875
vt 0.28124997 0.75
vt 0.31249997 0.625
vt 0.249999985 0.9375
vt 0.218749985 1
vt 0.28124997 0.8125
vt 0.31249997 0.6875
vt 0.28124997 0.875
vt 0.31249997 0.75
vt 0.28124997 0.9375
vt 0.249999985 1
vt 0.31249997 0.8125
vt 0.31249997 0.875
vt 0.31249997 0.9375
vt 0.28124997 1
vt 0.34374997 0.625
vt 0.34374997 0.6875
vt 0.34374997 0.75
vt 0.34374997 0.8125
vt 0.34374997 0.875
vt 0.34374997 0.5625
vt 0.34374997 0.9375
vt 0.31249997 1
vt 0.34374997 0.5
vt 0.34374997 0.43750006
vt 0.34374997 0.37500006
vt 0.34374997 0.31250006
vt 0.34374997 0.25
vt 0.34374997 0.1875
vt 0.375 0.125
vt 0.375 0.1875
vt 0.375 0.25
vt 0.375 0.31250006
vt 0.375 0.37500006
vt 0.40625 0.0624999404
vt 0.375 -1.1920929E-07
vt 0.40625 0.125
vt 0.40625 0.1875
vt 0.40625 0.25
vt 0.4375 0.0624999404
vt 0.40625 -1.1920929E-07
vt 0.4375 0.125
vt 0.375 0.43750006
vt 0.40625 0.31250006
vt 0.4375 0.1875
vt 0.46875003 0.0624999404
vt 0.4375 -1.1920929E-07
vt 0.46875003 0.125
vt 0.4375 0.25
vt 0.40625 0.37500006
vt 0.375 0.5
vt 0.50000006 0.0624999404
vt 0.46875003 -1.1920929E-07
vt 0.46875003 0.1875
vt 0.4375 0.31250006
vt 0.40625 0.43750006
vt 0.375 0.5625
vt 0.50000006 0.125
vt 0.46875003 0.25
vt 0.4375 0.37500006
vt 0.40625 0.5
vt 0.375 0.625
vt 0.53125006 0.0624999404
vt 0.50000006 -1.1920929E-07
vt 0.46875003 0.31250006
vt 0.4375 0.43750006
vt 0.40625 0.5625
vt 0.375 0.6875
vt 0.46875003 0.37500006
vt 0.4375 0.5
vt 0.40625 0.625
vt 0.375 0.75
vt 0.46875003 0.43750006
vt 0.4375 0.5625
vt 0.40625 0.6875
vt 0.375 0.8125
vt 0.46875003 0.5
vt 0.4375 0.625
vt 0.40625 0.75
vt 0.375 0.875
vt 0.46875003 0.5625
vt 0.4375 0.6875
vt 0.40625 0.8125
vt 0.375 0.9375
vt 0.34374997 1
vt 0.40625 0.875
vt 0.4375 0.75
vt 0.46875003 0.625
vt 0.40625 0.9375
vt 0.375 1
vt 0.4375 0.8125
vt 0.46875003 0.6875
vt 0.4375 0.875
vt 0.46875003 0.75
vt 0.4375 0.9375
vt 0.40625 1
vt 0.46875003 0.8125
vt 0.46875003 0.875
vt 0.46875003 0.9375
vt 0.4375 1
vt 0.50000006 0.625
vt 0.50000006 0.6875
vt 0.50000006 0.75
vt 0.50000006 0.8125
vt 0.50000006 0.875
vt 0.50000006 0.5625
vt 0.50000006 0.9375
vt 0.46875003 1
vt 0.50000006 0.5
vt 0.50000006 0.43750006
vt 0.50000006 0.37500006
vt 0.50000006 0.31250006
vt 0.50000006 0.25
vt 0.50000006 0.1875
vt 0.53125006 0.125
vt 0.53125006 0.1875
vt 0.53125006 0.25
vt 0.53125006 0.31250006
vt 0.53125006 0.37500006
vt 0.56250006 0.0624999404
vt 0.53125006 -1.1920929E-07
vt 0.56250006 0.125
vt 0.56250006 0.1875
vt 0.56250006 0.25
vt 0.59375006 0.0624999404
vt 0.56250006 -1.1920929E-07
vt 0.59375006 0.125
vt 0.53125006 0.43750006
vt 0.56250006 0.31250006
vt 0.59375006 0.1875
vt 0.62500006 0.0624999404
vt 0.59375006 -1.1920929E-07
vt 0.62500006 0.125
vt 0.59375006 0.25
vt 0.56250006 0.37500006
vt 0.53125006 0.5
vt 0.65625006 0.0624999404
vt 0.62500006 -1.1920929E-07
vt 0.62500006 0.1875
vt 0.59375006 0.31250006
vt 0.56250006 0.43750006
vt 0.53125006 0.5625
vt 0.65625006 0.125
vt 0.62500006 0.25
vt 0.59375006 0.37500006
vt 0.56250006 0.5
vt 0.53125006 0.625
vt 0.687500119 0.0624999404
vt 0.65625006 -1.1920929E-07
vt 0.62500006 0.31250006
vt 0.59375006 0.43750006
vt 0.56250006 0.5625
vt 0.53125006 0.6875
vt 0.62500006 0.37500006
vt 0.59375006 0.5
vt 0.56250006 0.625
vt 0.53125006 0.75
vt 0.62500006 0.43750006
vt 0.59375006 0.5625
vt 0.56250006 0.6875
vt 0.53125006 0.8125
vt 0.62500006 0.5
vt 0.59375006 0.625
vt 0.56250006 0.75
vt 0.53125006 0.875
vt 0.62500006 0.5625
vt 0.59375006 0.6875
vt 0.56250006 0.8125
vt 0.53125006 0.9375
vt 0.50000006 1
vt 0.56250006 0.875
vt 0.59375006 0.75
vt 0.62500006 0.625
vt 0.56250006 0.9375
vt 0.53125006 1
vt 0.59375006 0.8125
vt 0.62500006 0.6875
vt 0.59375006 0.875
vt 0.62500006 0.75
vt 0.59375006 0.9375
vt 0.56250006 1
vt 0.62500006 0.8125
vt 0.62500006 0.875
vt 0.62500006 0.9375
vt 0.59375006 1
vt 0.65625006 0.625
vt 0.65625006 0.6875
vt 0.65625006 0.75
vt 0.65625006 0.8125
vt 0.65625006 0.875
vt 0.65625006 0.5625
vt 0.65625006 0.9375
vt 0.62500006 1
vt 0.65625006 0.5
vt 0.65625006 0.43750006
vt 0.65625006 0.37500006
vt 0.65625006 0.31250006
vt 0.65625006 0.25
vt 0.65625006 0.1875
vt 0.687500119 0.125
vt 0.687500119 0.1875
vt 0.687500119 0.25
vt 0.687500119 0.31250006
vt 0.687500119 0.37500006
vt 0.718750119 0.0624999404
vt 0.687500119 -1.1920929E-07
vt 0.718750119 0.125
vt 0.718750119 0.1875
vt 0.718750119 0.25
vt 0.750000119 0.0624999404
vt 0.718750119 -1.1920929E-07
vt 0.750000119 0.125
vt 0.687500119 0.43750006
vt 0.718750119 0.31250006
vt 0.750000119 0.1875
vt 0.781250119 0.0624999404
vt 0.750000119 -1.1920929E-07
vt 0.781250119 0.125
vt 0.750000119 0.25
vt 0.718750119 0.37500006
vt 0.687500119 0.5
vt 0.812500119 0.0624999404
vt 0.781250119 -1.1920929E-07
vt 0.781250119 0.1875
vt 0.750000119 0.31250006
vt 0.718750119 0.43750006
vt 0.687500119 0.5625
vt 0.812500119 0.125
vt 0.781250119 0.25
vt 0.750000119 0.37500006
vt 0.718750119 0.5
vt 0.687500119 0.625
vt 0.843750179 0.0624999404
vt 0.812500119 -1.1920929E-07
vt 0.781250119 0.31250006
vt 0.750000119 0.43750006
vt 0.718750119 0.5625
vt 0.687500119 0.6875
vt 0.781250119 0.37500006
vt 0.750000119 0.5
vt 0.718750119 0.625
vt 0.687500119 0.75
vt 0.781250119 0.43750006
vt 0.750000119 0.5625
vt 0.718750119 0.6875
vt 0.687500119 0.8125
vt 0.781250119 0.5
vt 0.750000119 0.625
vt 0.718750119 0.75
vt 0.687500119 0.875
vt 0.781250119 0.5625
vt 0.750000119 0.6875
vt 0.718750119 0.8125
vt 0.687500119 0.9375
vt 0.65625006 1
vt 0.718750119 0.875
vt 0.750000119 0.75
vt 0.781250119 0.625
vt 0.718750119 0.9375
vt 0.687500119 1
vt 0.750000119 0.8125
vt 0.781250119 0.6875
vt 0.750000119 0.875
vt 0.781250119 0.75
vt 0.750000119 0.9375
vt 0.718750119 1
vt 0.781250119 0.8125
vt 0.781250119 0.875
vt 0.781250119 0.9375
vt 0.750000119 1
vt 0.812500119 0.625
vt 0.812500119 0.6875
vt 0.812500119 0.75
vt 0.812500119 0.8125
vt 0.812500119 0.875
vt 0.812500119 0.5625
vt 0.812500119 0.9375
vt 0.781250119 1
vt 0.812500119 0.5
vt 0.812500119 0.43750006
vt 0.812500119 0.37500006
vt 0.812500119 0.31250006
vt 0.812500119 0.25
vt 0.812500119 0.1875
vt 0.843750179 0.125
vt 0.843750179 0.1875
vt 0.843750179 0.25
vt 0.843750179 0.31250006
vt 0.843750179 0.37500006
vt 0.875000179 0.0624999404
vt 0.843750179 -1.1920929E-07
vt 0.875000179 0.125
vt 0.875000179 0.1875
vt 0.875000179 0.25
vt 0.906250179 0.0624999404
vt 0.875000179 -1.1920929E-07
vt 0.906250179 0.125
vt 0.843750179 0.43750006
vt 0.875000179 0.31250006
vt 0.906250179 0.1875
vt 0.937500179 0.0624999404
vt 0.906250179 -1.1920929E-07
vt 0.937500179 0.125
vt 0.906250179 0.25
vt 0.875000179 0.37500006
vt 0.843750179 0.5
vt 0.968750179 0.0624999404
vt 0.937500179 -1.1920929E-07
vt 0.937500179 0.1875
vt 0.906250179 0.31250006
vt 0.875000179 0.43750006
vt 0.843750179 0.5625
vt 0.968750179 0.125
vt 0.937500179 0.25
vt 0.906250179 0.37500006
vt 0.875000179 0.5
vt 0.843750179 0.625
vt 1.00000024 0.0624999404
vt 0.968750179 -1.1920929E-07
vt 1.00000024 0.125
vt 0.968750179 0.1875
vt 1.00000024 0.1875
vt 0.968750179 0.25
vt 1.00000024 0.25
vt 0.937500179 0.31250006
vt 0.968750179 0.31250006
vt 1.00000024 0.31250006
vt 0.937500179 0.37500006
vt 0.968750179 0.37500006
vt 1.00000024 0.37500006
vt 0.906250179 0.43750006
vt 0.937500179 0.43750006
vt 0.968750179 0.43750006
vt 1.00000024 0.43750006
vt 0.906250179 0.5
vt 0.937500179 0.5
vt 0.968750179 0.5
vt 1.00000024 0.5
vt 0.875000179 0.5625
vt 0.906250179 0.5625
vt 0.937500179 0.5625
vt 0.968750179 0.5625
vt 1.00000024 0.5625
vt 0.875000179 0.625
vt 0.906250179 0.625
vt 0.937500179 0.625
vt 0.968750179 0.625
vt 1.00000024 0.625
vt 0.843750179 0.6875
vt 0.875000179 0.6875
vt 0.843750179 0.75
vt 0.906250179 0.6875
vt 0.937500179 0.6875
vt 0.968750179 0.6875
vt 1.00000024 0.6875
vt 0.843750179 0.8125
vt 0.875000179 0.75
vt 0.906250179 0.75
vt 0.937500179 0.75
vt 0.968750179 0.75
vt 1.00000024 0.75
vt 0.843750179 0.875
vt 0.875000179 0.8125
vt 0.906250179 0.8125
vt 0.937500179 0.8125
vt 0.968750179 0.8125
vt 1.00000024 0.8125
vt 0.843750179 0.9375
vt 0.812500119 1
vt 0.875000179 0.875
vt 0.906250179 0.875
vt 0.875000179 0.9375
vt 0.843750179 1
vt 0.937500179 0.875
vt 0.968750179 0.875
vt 1.00000024 0.875
vt 0.906250179 0.9375
vt 0.875000179 1
vt 0.937500179 0.9375
vt 0.906250179 1
vt 0.968750179 0.9375
vt 0.937500179 1
vt 1.00000024 0.9375
vt 0.968750179 1
vn -0.0860760882 0.0280181058 0.995894551
vn 0.109596565 -0.309787035 0.944468439
vn 0.196090907 -0.301688015 0.933023393
vn 0.0369143859 0.0514416657 0.997993469
vn 0.192562118 0.0589870401 0.979510248
vn -0.0431120619 0.450649083 0.891659498
vn 0.191990718 0.457070321 0.868462086
vn -0.108314306 0.771358848 0.62711525
vn 0.189884454 0.774598777 0.603274941
vn -0.146913245 0.956211269 0.253133327
vn 0.186931908 0.954523563 0.232252166
vn -0.152584344 0.974915743 -0.162040725
vn 0.183757991 0.966872394 -0.177174181
vn -0.035949178 0.97585535 -0.21543923
vn -0.0563738681 0.996146083 -0.0671927407
vn -0.00256799115 0.998405039 0.0563983135
vn -0.257533044 0.932230175 0.254211754
vn -0.122574598 0.990968049 -0.0543840751
vn -0.173334345 0.980461299 -0.0930108652
vn -0.136533633 0.803110778 -0.579975426
vn -0.140072763 0.780394137 -0.609396935
vn -0.123683639 0.850195348 -0.511732578
vn -0.0235427935 0.746661961 -0.664786935
vn 0.0723314956 0.931123793 -0.357458502
vn 0.325447887 0.813339293 -0.48224771
vn 0.143949047 0.789357185 -0.596819818
vn 0.323655427 0.774506807 -0.543494523
vn 0.191846669 0.542284667 -0.817998886
vn 0.32175383 0.539753735 -0.777907789
vn 0.25318566 0.234317392 -0.938611865
vn 0.32131508 0.237208799 -0.916781664
vn 0.296233684 0.00473297341 -0.955103695
vn 0.186444655 0.217902184 -0.957996368
vn 0.296233684 0.00473297341 -0.955103695
vn 0.0619128272 0.517289102 -0.853568316
vn -0.0394949093 0.763993144 -0.644014537
vn -0.105138801 0.928792715 -0.355372846
vn 0.123932444 0.18829608 -0.974261403
vn 0.296233684 0.00473297341 -0.955103695
vn -0.0615307651 0.464633286 -0.88336283
vn -0.00549786631 0.850370288 -0.526156008
vn -0.216429174 0.69713223 -0.683494747
vn 0.0684164315 0.146434084 -0.986851752
vn 0.296233684 0.00473297341 -0.955103695
vn -0.171974003 0.385890841 -0.90637368
vn -0.321970493 0.858260989 -0.399653524
vn 0.0892364681 0.782080233 -0.616755605
vn 0.0225214027 0.0938482881 -0.995331705
vn 0.296233684 0.00473297341 -0.955103695
vn -0.376263797 0.590468824 -0.713983357
vn -0.211304441 0.776329756 -0.59385401
vn 0.0804401487 0.978022099 -0.192359716
vn -0.263339281 0.284340382 -0.921847522
vn -0.519888222 0.73587662 -0.433822334
vn -0.237173498 0.700018704 -0.673589408
vn 0.0567391478 0.976196289 0.20933567
vn -0.0114912344 0.0326884724 -0.999399543
vn 0.296233684 0.00473297341 -0.955103695
vn -0.509024858 0.448721111 -0.734535992
vn -0.450685859 0.666405261 -0.593958139
vn -0.377046525 0.89399004 -0.242110878
vn -0.224555299 0.969607055 0.0971441343
vn -0.330514848 0.164791882 -0.929302752
vn -0.685058177 0.567400038 -0.456894368
vn -0.630930066 0.466957688 -0.61957866
vn -0.371146947 0.887158215 0.274226815
vn -0.427759022 0.89733088 -0.108717896
vn -0.0318712704 -0.0342969596 -0.998903394
vn 0.296233684 0.00473297341 -0.955103695
vn -0.717022121 0.527331948 -0.455851227
vn -0.782634914 0.570664763 -0.248644978
vn -0.410261899 0.876645148 0.251353145
vn -0.464938432 0.850490153 0.2459649
vn -0.903238595 0.156921431 -0.399419338
vn -0.774450302 0.571124315 0.272109717
vn -0.544570744 0.83840096 0.0229449142
vn -0.393583059 0.679052413 0.619661391
vn -0.956259668 0.174705431 -0.234617561
vn -0.623917103 0.762950778 0.169214711
vn -0.602775097 0.754821241 0.258663684
vn -0.268809825 0.379005015 0.885492265
vn -0.92132473 0.387257367 0.0345320441
vn -0.528500855 0.847632349 0.046971295
vn -0.606601596 0.513252497 0.607129693
vn -0.112540096 0.00379912509 0.993639886
vn -0.757429004 0.64572829 -0.096624136
vn -0.58894217 0.688643992 0.422985345
vn -0.464173347 0.249040261 0.850012958
vn 0.0269411448 -0.337491482 0.940942943
vn -0.0860760882 0.0280181058 0.995894551
vn -0.243534088 -0.0793895796 0.966637731
vn -0.621418238 0.405703545 0.670256674
vn -0.750038207 0.651911974 0.111594886
vn -0.0454819985 -0.381686777 0.923172057
vn -0.0860760882 0.0280181058 0.995894551
vn -0.563128889 0.0851252526 0.821972966
vn -0.637624681 0.548695922 0.54071027
vn -0.346962363 -0.189791113 0.918475032
vn -0.538778126 0.290694028 0.790705502
vn -0.104322679 -0.43787685 0.892961681
vn -0.0860760882 0.0280181058 0.995894551
vn -0.529456615 -0.164833501 0.832169235
vn -0.415958285 -0.316934079 0.852368176
vn -0.148627996 -0.501825571 0.85210377
vn -0.0860760882 0.0280181058 0.995894551
vn -0.926348507 0.328660637 0.184012428
vn -0.801815093 0.19916372 0.563405991
vn -0.518418372 0.0419226773 0.854098856
vn -0.437748343 -0.249768183 0.863708377
vn -0.41179949 -0.433679819 0.801463008
vn -0.821469545 0.560640395 -0.104259729
vn -0.178076759 -0.570130646 0.802022338
vn -0.0860760882 0.0280181058 0.995894551
vn -0.790221572 0.575191617 -0.21143426
vn -0.801637471 0.437910885 -0.406953901
vn -0.878334403 0.345265538 -0.330636412
vn -0.920449018 0.331849694 -0.206517339
vn -0.805798769 0.362558007 -0.468230695
vn -0.60631901 0.27931881 -0.744552374
vn -0.369774491 0.0333196819 -0.928523898
vn -0.662101865 0.0918422341 -0.743764818
vn -0.873743951 0.134156376 -0.467518389
vn -0.850736678 0.382654846 -0.360308886
vn -0.63488698 0.605236828 -0.4802154
vn -0.0376214534 -0.103996791 -0.993865788
vn 0.296233684 0.00473297341 -0.955103695
vn -0.379115552 -0.103215322 -0.919574916
vn -0.673256874 -0.102844611 -0.732221484
vn -0.826574743 -0.0573895462 -0.55989337
vn -0.0285701696 -0.173128396 -0.984484792
vn 0.296233684 0.00473297341 -0.955103695
vn -0.358435303 -0.237731591 -0.902777851
vn -0.723022461 0.57208544 -0.387242556
vn -0.766233206 0.220303774 -0.603616536
vn -0.639801145 -0.293456048 -0.710308492
vn -0.00536687905 -0.238520369 -0.971122682
vn 0.296233684 0.00473297341 -0.955103695
vn -0.309459656 -0.363424838 -0.878724754
vn -0.709510624 -0.285537273 -0.644253969
vn -0.804216623 0.255233854 -0.536741436
vn -0.822332084 0.553542376 -0.131760299
vn 0.0306468178 -0.297358721 -0.95427382
vn 0.296233684 0.00473297341 -0.955103695
vn -0.587180674 -0.420866072 -0.691441
vn -0.706263304 -0.183465585 -0.683763444
vn -0.896612823 0.214760482 -0.387251228
vn -0.874818802 0.448022485 0.184303865
vn -0.395697713 -0.181218117 -0.900324047
vn -0.628353596 -0.435365081 -0.644693017
vn -0.811459959 -0.204106763 -0.547606647
vn -0.971231282 0.20868814 -0.114713326
vn -0.898697317 0.205127954 0.387641251
vn 0.0324653387 -0.191114917 -0.981030583
vn 0.296233684 0.00473297341 -0.955103695
vn -0.587275505 -0.501429796 -0.635354698
vn -0.89553231 -0.182543203 -0.405832291
vn -0.94004184 0.208368003 0.270007849
vn -0.802815139 -0.0511079803 0.594033599
vn -0.615878701 -0.588952839 -0.523285747
vn -0.975373268 -0.187317148 -0.116444193
vn -0.808429778 0.147650257 0.569772482
vn -0.487160653 -0.246960357 0.837666452
vn -0.722650647 -0.533577204 -0.439398944
vn -0.943606317 -0.179073334 0.278459936
vn -0.622064292 -0.120940715 0.773569226
vn -0.355687767 -0.353505343 0.865170658
vn -0.824558079 -0.553261518 -0.118345343
vn -0.763853371 -0.141437143 0.629701197
vn -0.356042743 -0.374457031 0.856163263
vn -0.322036266 -0.591021299 0.739585221
vn -0.797087193 -0.540347636 0.269585639
vn -0.498258442 -0.125637963 0.857877374
vn -0.216038361 -0.577362001 0.787388444
vn -0.192053482 -0.639772594 0.744181812
vn -0.0860760882 0.0280181058 0.995894551
vn -0.245675683 -0.71095854 0.65892452
vn -0.164443642 -0.305377543 0.937924802
vn -0.631667316 -0.471065968 0.61570549
vn -0.18994461 -0.70712316 0.681100488
vn -0.0860760882 0.0280181058 0.995894551
vn -0.127827749 -0.508401334 0.851579845
vn -0.354060382 -0.355659962 0.864955127
vn -0.396446168 -0.504904151 0.766747832
vn -0.129402846 -0.204028174 0.970374823
vn -0.426210821 -0.31976372 0.846224308
vn -0.0860760882 0.0280181058 0.995894551
vn -0.287081361 -0.189981818 0.938877523
vn -0.698369086 0.0826458931 0.710950315
vn -0.557373583 0.384869367 0.735669911
vn -0.0860760882 0.0280181058 0.995894551
vn -0.549158096 -0.58142674 0.600306928
vn -0.410920888 -0.345282048 0.84375608
vn -0.313466072 -0.0573574714 0.947865605
vn -0.60650003 0.13214682 0.784024835
vn -0.772982359 0.307191402 0.55509603
vn -0.64815402 -0.719283164 0.250056177
vn -0.54496491 0.464721471 0.697887719
vn -0.0860760882 0.0280181058 0.995894551
vn -0.642032981 -0.755658627 -0.129513085
vn -0.548601985 -0.691087902 -0.470567137
vn -0.538620114 -0.676238418 -0.502583325
vn -0.646824718 -0.602579057 -0.467457384
vn -0.753504217 -0.293626338 -0.588230431
vn -0.688354373 -0.233802542 -0.686661959
vn -0.44262284 0.0936720073 -0.891801834
vn -0.705034375 -0.100991666 -0.701945305
vn -0.840192616 -0.306745112 -0.447195649
vn -0.788044691 -0.538606882 -0.298141122
vn -0.753136992 -0.460386902 -0.469924062
vn -0.102386147 0.0410360321 -0.993897974
vn 0.296233684 0.00473297341 -0.955103695
vn -0.346018851 0.0390512794 -0.937414467
vn -0.561382532 -0.282762706 -0.777749956
vn -0.714324534 -0.517502904 -0.471095711
vn -0.15073882 0.133834422 -0.979472399
vn 0.296233684 0.00473297341 -0.955103695
vn -0.211677626 -0.0504271425 -0.976037741
vn -0.695020795 -0.590065956 -0.410814017
vn -0.790513217 -0.461056828 -0.403131962
vn -0.367005855 -0.423428923 -0.828260064
vn -0.0205872413 0.0906534865 -0.995669723
vn 0.296233684 0.00473297341 -0.955103695
vn -0.0564356707 -0.104801551 -0.992890596
vn -0.485318303 -0.683592856 -0.545130134
vn -0.813568056 -0.411416471 -0.410905749
vn -0.708865225 -0.683227479 -0.175244004
vn 0.11725077 0.0760209337 -0.99018842
vn 0.296233684 0.00473297341 -0.955103695
vn -0.137309268 -0.507405221 -0.850697517
vn -0.552887797 -0.645662069 -0.526721537
vn -0.790579975 -0.558707476 -0.250657469
vn -0.731256425 -0.660029411 0.172119856
vn 0.107930645 -0.118510574 -0.987069488
vn -0.199218243 -0.782040715 -0.590528905
vn -0.577943861 -0.68183881 -0.448415846
vn -0.691647232 -0.716726124 -0.0890371278
vn -0.693342626 -0.510938764 0.508151174
vn 0.251539171 0.0913513973 -0.963526249
vn 0.296233684 0.00473297341 -0.955103695
vn -0.203605399 -0.796619773 -0.569158792
vn -0.585618556 -0.801648676 -0.120043136
vn -0.6523211 -0.739970863 0.164074078
vn -0.601553738 -0.271649152 0.751225531
vn -0.207888573 -0.85467571 -0.475722373
vn -0.451780289 -0.890545011 0.0531436205
vn -0.587604344 -0.64015156 0.49490115
vn -0.507760584 -0.0402667634 0.860556662
vn -0.223307207 -0.972808421 -0.061461471
vn -0.373297483 -0.908083379 0.189825475
vn -0.463373393 -0.449423999 0.763742864
vn -0.77181828 0.139245585 0.620408893
vn -0.168141887 -0.973973513 0.151999578
vn -0.307462245 -0.809276938 0.500537515
vn -0.477588326 -0.290612161 0.829128504
vn -0.732129335 0.190034017 0.654120684
vn -0.0272277445 -0.96152097 0.273378879
vn -0.237581059 -0.611946762 0.754371405
vn -0.762318432 -0.123994321 0.635213315
vn -0.515052497 0.409917384 0.752787352
vn -0.0860760882 0.0280181058 0.995894551
vn -0.660271645 0.0808596089 0.746661246
vn -0.533819675 -0.493135601 0.686916232
vn 0.0137756709 -0.873420358 0.486772031
vn -0.472707331 0.36173296 0.803552747
vn -0.0860760882 0.0280181058 0.995894551
vn -0.681211174 -0.311794132 0.662371218
vn -0.186819598 -0.788443565 0.58605057
vn -0.559339046 -0.0121577019 0.828849792
vn -0.527885437 -0.668235183 0.52421248
vn -0.419579566 0.322393209 0.848537326
vn -0.0860760882 0.0280181058 0.995894551
vn -0.501313031 -0.42942524 0.751185179
vn -0.433335871 -0.0809238404 0.897592068
vn -0.357191414 0.294294536 0.88645643
vn -0.0860760882 0.0280181058 0.995894551
vn 0.120991588 -0.93625176 0.329838932
vn -0.187369913 -0.924847066 0.330983937
vn -0.285150766 -0.789331794 0.543731928
vn -0.287787348 -0.496962458 0.81866163
vn -0.288732827 -0.117928214 0.950119078
vn 0.260413587 -0.911554217 0.318203509
vn -0.287502825 0.280374914 0.915823221
vn -0.0860760882 0.0280181058 0.995894551
vn 0.207796618 -0.951024413 0.228851855
vn 0.19775553 -0.979122877 -0.0470221974
vn 0.195761412 -0.865840673 -0.460431755
vn 0.178527355 -0.827486694 -0.532347441
vn 0.1118742 -0.808721066 -0.577455103
vn 0.107190691 -0.52559799 -0.843953133
vn 0.268094957 -0.0907386914 -0.959109783
vn 0.34408012 -0.477124333 -0.808678746
vn 0.407212317 -0.754703701 -0.51439327
vn 0.472131401 -0.756045401 -0.453307092
vn 0.557679236 -0.737297595 -0.381295234
vn 0.371561229 0.134635821 -0.918594241
vn 0.296233684 0.00473297341 -0.955103695
vn 0.411877006 -0.0256095305 -0.910879493
vn 0.552748621 -0.369212836 -0.747094989
vn 0.650700033 -0.617538273 -0.441855073
vn 0.468895674 0.200911567 -0.860099673
vn 0.296233684 0.00473297341 -0.955103695
vn 0.530163944 0.0692082047 -0.845065892
vn 0.542749643 -0.837763727 -0.0597881116
vn 0.718760312 -0.621359706 -0.311922461
vn 0.717351913 -0.215324491 -0.662602186
vn 0.538733423 0.283490986 -0.793346822
vn 0.296233684 0.00473297341 -0.955103695
vn 0.617430151 0.184488788 -0.764685512
vn 0.840425193 -0.410603791 -0.353680879
vn 0.712905705 -0.608360052 -0.348802984
vn 0.373373002 -0.911227107 0.173947915
vn 0.541963696 0.270873755 -0.795551896
vn 0.296233684 0.00473297341 -0.955103695
vn 0.828221798 -0.0324224159 -0.559461772
vn 0.662720978 -0.626730144 -0.409890503
vn 0.64934659 -0.714377344 -0.260794938
vn 0.27742663 -0.935812235 0.217462614
vn 0.676625609 0.298952758 -0.672907889
vn 0.810257435 -0.279448658 -0.515161514
vn 0.46475485 -0.761214435 -0.452278197
vn 0.533520162 -0.845758021 0.0070372764
vn 0.140799776 -0.982782722 0.119639032
vn 0.518711448 0.0495373942 -0.853512943
vn 0.296233684 0.00473297341 -0.955103695
vn 0.380653799 -0.58259362 -0.71811378
vn 0.515196443 -0.807472467 -0.287333935
vn 0.53404367 -0.827690303 0.172413021
vn 0.0380397439 -0.962387383 0.269004971
vn 0.396410733 -0.768044472 -0.502957523
vn 0.713936746 -0.696078181 0.075957574
vn 0.45393452 -0.889443457 0.0532335825
vn 0.00531308679 -0.808240831 0.588828146
vn 0.570239425 -0.82005161 -0.0483980961
vn 0.680208862 -0.730026126 0.0661650971
vn 0.371012211 -0.890653193 0.262843937
vn -0.0571380407 -0.504345357 0.861609519
vn 0.706813931 -0.678980887 0.198491663
vn 0.674749136 -0.737629116 -0.0248355884
vn 0.293114603 -0.740152359 0.60519278
vn -0.134869158 -0.117443189 0.983878732
vn 0.758177578 -0.647161901 0.0796763003
vn 0.644387662 -0.73338896 0.21657595
vn 0.170713812 -0.447707176 0.877732873
vn -0.213856235 0.283448517 0.934838235
vn -0.0860760882 0.0280181058 0.995894551
vn 0.0165431947 -0.0772358552 0.996875525
vn 0.548803151 -0.590355992 0.591857135
vn 0.875697613 -0.478237063 0.0666555911
vn -0.141639575 0.304803044 0.941824436
vn -0.0860760882 0.0280181058 0.995894551
vn 0.375156134 -0.330738515 0.865950346
vn 0.855544508 -0.486077458 0.178247929
vn 0.153233156 0.000250539277 0.988190055
vn 0.746776402 -0.374792457 0.549413979
vn -0.0769926831 0.342935771 0.936198294
vn -0.0860760882 0.0280181058 0.995894551
vn 0.538166106 -0.164474547 0.826635063
vn 0.264772922 0.108161636 0.958225608
vn -0.0245365389 0.393877268 0.918835521
vn -0.0860760882 0.0280181058 0.995894551
vn 0.941819251 -0.306031764 0.139000133
vn 0.967112958 -0.211335525 0.14152725
vn 0.86933887 -0.117610782 0.480018467
vn 0.647081196 0.0345393904 0.761638284
vn 0.344292462 0.23692508 0.908476353
vn 0.868313909 -0.4239842 0.257426292
vn 0.0140124373 0.453009129 0.891395748
vn -0.0860760882 0.0280181058 0.995894551
vn 0.84098202 -0.464682132 0.277163804
vn 0.871480823 -0.490196288 0.0151254637
vn 0.750430107 -0.436226904 -0.496548921
vn 0.466131628 -0.4563528 -0.757933557
vn 0.409962326 -0.532828331 -0.740287066
vn 0.621126115 -0.288043678 -0.728857458
vn 0.407698125 -0.0815714896 -0.909465909
vn 0.0914255604 -0.579241514 -0.810012758
vn 0.365729153 -0.68716377 -0.627732515
vn 0.667202294 -0.510498047 -0.542432487
vn 0.910229623 -0.233092248 -0.342271835
vn 0.437409073 -0.15726769 -0.885403931
vn 0.296233684 0.00473297341 -0.955103695
vn 0.0937270597 -0.363507509 -0.926864326
vn 0.15185681 -0.412175417 -0.898360074
vn 0.555014551 -0.497151405 -0.666932821
vn 0.389690638 -0.135217682 -0.910965145
vn 0.296233684 0.00473297341 -0.955103695
vn 0.0932664201 -0.185612321 -0.978186786
vn 0.937540174 -0.344254404 -0.0500721969
vn 0.809812903 -0.479756922 -0.337692618
vn 0.215346813 -0.159213081 -0.963471234
vn 0.382423162 -0.105638862 -0.917928576
vn 0.296233684 0.00473297341 -0.955103695
vn 0.108505204 0.0262606703 -0.993748903
vn 0.65465641 -0.162995294 -0.738144577
vn 0.894470096 -0.337429315 -0.293367773
vn 0.804360926 -0.575269043 0.148556381
vn 0.414206594 -0.0673525259 -0.907687485
vn 0.296233684 0.00473297341 -0.955103695
vn 0.202537015 0.106298685 -0.973488152
vn 0.920797706 -0.171515927 -0.350305408
vn 0.765353143 -0.53622824 -0.355940878
vn 0.710301578 -0.637250602 0.298970401
vn 0.179688469 -0.00268510263 -0.983719945
vn 0.62956512 0.194621086 -0.752177119
vn 0.866483986 -0.287281871 -0.40825817
vn 0.758991718 -0.649552941 -0.0448620245
vn 0.80614841 -0.510547996 0.299107701
vn 0.431875199 -0.0517003462 -0.900450349
vn 0.296233684 0.00473297341 -0.955103695
vn 0.880965054 0.224130496 -0.416732758
vn 0.856360435 -0.28907302 -0.427882582
vn 0.70323056 -0.638828218 0.312034339
vn 0.950071514 -0.118794456 0.288534433
vn 0.864028037 0.101312265 -0.493144363
vn 0.955795407 -0.29029429 -0.0467393324
vn 0.596616328 -0.559922993 0.574921966
vn 0.898050785 0.130565941 0.420068145
vn 0.890179574 0.10121949 -0.444224089
vn 0.893382609 -0.291942477 0.341521919
vn 0.745504558 -0.198116347 0.636374831
vn 0.69611001 0.246970639 0.674118936
vn 0.99164623 0.119368009 -0.0488788858
vn 0.680991411 -0.294180572 0.670603096
vn 0.760529637 0.359605879 0.540627599
vn 0.388633043 0.376080394 0.841146767
vn 0.929146409 0.104721792 0.354570568
vn 0.466050446 -0.232346654 0.85370487
vn 0.686612666 0.453459829 0.568275571
vn 0.0390346423 0.516525507 0.855381548
vn -0.0860760882 0.0280181058 0.995894551
vn 0.397807032 0.515341699 0.759060264
vn 0.592850029 0.228996873 0.772068202
vn 0.713869274 0.0596177988 0.697736621
vn 0.0514578708 0.581862509 0.811657608
vn -0.0860760882 0.0280181058 0.995894551
vn 0.611199677 0.584866345 0.533260047
vn 0.387351722 -0.00416089268 0.921922624
vn 0.374668837 0.645264864 0.66577512
vn 0.39298597 0.0894403011 0.915184438
vn 0.0515242592 0.646520019 0.761155128
vn -0.0860760882 0.0280181058 0.995894551
vn 0.404529333 0.591444373 0.697531044
vn 0.34731999 0.703229249 0.620352566
vn 0.0336658843 0.699759483 0.713584721
vn -0.0860760882 0.0280181058 0.995894551
vn 0.601161897 0.398469567 0.692695022
vn 0.290782303 0.268262357 0.918412209
vn 0.159356281 0.269497424 0.949724495
vn 0.598681152 0.229363024 0.767446101
vn 0.629617274 0.209028766 0.748257399
vn 0.802230537 0.483472496 0.350257695
vn 0.329585671 0.179530591 0.926899195
vn -0.0860760882 0.0280181058 0.995894551
vn 0.859228492 0.509038925 -0.0510474332
vn 0.762652576 0.471358508 -0.442924619
vn 0.701918125 0.47548309 -0.530308127
vn 0.687755764 0.572216809 -0.446721435
vn 0.494820058 0.511242092 -0.702698112
vn 0.169288799 0.298636585 -0.939232349
vn 0.234671757 0.0583823808 -0.970319808
vn 0.240617543 0.353517443 -0.903951645
vn 0.406462848 0.669135809 -0.622129738
vn 0.569607317 0.654862046 -0.49669227
vn 0.514412165 0.699396491 -0.496210307
vn 0.4322716 0.012135054 -0.901661813
vn 0.296233684 0.00473297341 -0.955103695
vn 0.146683857 0.299580306 -0.942727685
vn 0.234446868 0.446492314 -0.863527179
vn 0.354985982 0.693298578 -0.627153814
vn 0.440376878 0.122239776 -0.889452517
vn 0.296233684 0.00473297341 -0.955103695
vn 0.175934181 0.354072273 -0.91852051
vn 0.509967625 0.753187001 -0.415502697
vn 0.446083277 0.774580657 -0.448368758
vn 0.0537713431 0.625578165 -0.778306246
vn 0.433611929 0.196693793 -0.879370391
vn 0.296233684 0.00473297341 -0.955103695
vn 0.355486214 0.367182404 -0.859538555
vn 0.116499826 0.814487576 -0.568364024
vn 0.32672286 0.885735214 -0.32973516
vn 0.581728041 0.81165272 -0.0530304648
vn 0.388008058 0.22677587 -0.893321037
vn 0.296233684 0.00473297341 -0.955103695
vn -0.0172552038 0.757152319 -0.653010368
vn 0.0904794112 0.954979002 -0.282539427
vn 0.189801902 0.930600822 -0.312981457
vn 0.534080267 0.778927088 0.328680396
vn 0.39677316 0.488044381 -0.777421176
vn -0.12116757 0.910967529 -0.394279867
vn 0.213833407 0.951803923 -0.219873816
vn 0.208161563 0.976567447 -0.0546320006
vn 0.362310857 0.663085818 0.655017495
vn 0.32131508 0.237208799 -0.916781664
vn 0.296233684 0.00473297341 -0.955103695
vn 0.32175383 0.539753735 -0.777907789
vn 0.187221751 0.818687499 -0.5428617
vn 0.323655427 0.774506807 -0.543494523
vn 0.189208135 0.846005738 -0.498472184
vn 0.325447887 0.813339293 -0.48224771
vn 0.0942634642 0.88336575 -0.459107071
vn 0.290732622 0.629201651 -0.720818937
vn -0.0235427935 0.746661961 -0.664786935
vn 0.508621156 0.700969696 -0.499946058
vn 0.383697867 0.693870842 -0.609359622
vn -0.140072763 0.780394137 -0.609396935
vn 0.295624763 0.929131687 -0.222081661
vn 0.6455549 0.673353374 -0.360352844
vn 0.364848614 0.907009006 -0.210285753
vn -0.173334345 0.980461299 -0.0930108652
vn 0.380897969 0.91990912 -0.0931878611
vn 0.559460282 0.827782333 -0.0421966724
vn 0.119401135 0.978895068 0.165854931
vn -0.257533044 0.932230175 0.254211754
vn 0.171750695 0.941162944 0.291056514
vn 0.333440274 0.876217365 0.347937763
vn 0.470663607 0.804341435 0.362644017
vn 0.128055289 0.97415179 0.186091736
vn -0.0563738681 0.996146083 -0.0671927407
vn 0.0398578495 0.808947384 0.586528301
vn 0.432607412 0.808626831 0.398714751
vn 0.687366068 0.707975209 0.162169054
vn 0.469281554 0.878795207 -0.0865672156
vn 0.183757991 0.966872394 -0.177174181
vn 0.0964481086 0.482747048 0.870432675
vn 0.372706085 0.619550467 0.690831065
vn 0.509156346 0.227417648 0.83008498
vn 0.828824639 0.538242698 0.152789026
vn 0.748741984 0.653202653 0.112746283
vn 0.497123063 0.847829998 0.184534207
vn 0.186931908 0.954523563 0.232252166
vn 0.856702745 -0.179638371 0.483518809
vn 0.9048118 0.129709929 0.405574918
vn 0.873346806 0.322105736 0.365394711
vn 0.704425812 0.532843769 0.468894213
vn 0.469926566 0.690755785 0.549568534
vn 0.189884454 0.774598777 0.603274941
vn 0.701691568 -0.354379714 0.618097067
vn 0.847416341 -0.0434209853 0.529150426
vn 0.753355801 0.133987248 0.643818617
vn 0.606538773 0.287246674 0.741350174
vn 0.414824963 0.399644911 0.817437589
vn 0.191990718 0.457070321 0.868462086
vn 0.482798964 -0.459010512 0.745797992
vn -0.0860760882 0.0280181058 0.995894551
vn 0.654271543 -0.2417043 0.716594577
vn 0.578194976 -0.131707251 0.805197895
vn 0.466567189 -0.437467188 0.768724501
vn -0.0860760882 0.0280181058 0.995894551
vn 0.47244966 -0.0391981825 0.880485594
vn 0.341394305 0.0270295013 0.939531386
vn 0.192562118 0.0589870401 0.979510248
vn 0.417509586 -0.384469211 0.823328137
vn -0.0860760882 0.0280181058 0.995894551
vn 0.354487181 -0.341985881 0.870278478
vn -0.0860760882 0.0280181058 0.995894551
vn 0.279527456 -0.3132402 0.907603979
vn -0.0860760882 0.0280181058 0.995894551
vn 0.196090907 -0.301688015 0.933023393
vn -0.0860760882 0.0280181058 0.995894551
g Sphere002_0
f 3/3/3 2/2/2 1/1/1
f 4/4/4 2/2/2 3/3/3
f 5/5/5 4/4/4 3/3/3
f 6/6/6 4/4/4 5/5/5
f 7/7/7 6/6/6 5/5/5
f 8/8/8 6/6/6 7/7/7
f 9/9/9 8/8/8 7/7/7
f 10/10/10 8/8/8 9/9/9
f 11/11/11 10/10/10 9/9/9
f 12/12/12 10/10/10 11/11/11
f 13/13/13 12/12/12 11/11/11
f 14/14/14 12/12/12 13/13/13
f 15/15/15 14/14/14 13/13/13
f 16/16/16 14/14/14 15/15/15
f 17/17/17 16/16/16 15/15/15
f 18/18/18 16/16/16 17/17/17
f 19/19/19 18/18/18 17/17/17
f 20/20/20 18/18/18 19/19/19
f 21/21/21 20/20/20 19/19/19
f 22/22/22 20/20/20 21/21/21
f 23/23/23 22/22/22 21/21/21
f 24/24/24 22/22/22 23/23/23
f 25/25/25 24/24/24 23/23/23
f 26/26/26 24/24/24 25/25/25
f 27/27/27 26/26/26 25/25/25
f 28/28/28 26/26/26 27/27/27
f 29/29/29 28/28/28 27/27/27
f 30/30/30 28/28/28 29/29/29
f 31/31/31 30/30/30 29/29/29
f 30/30/30 31/31/31 32/32/32
f 30/30/30 33/33/33 28/28/28
f 33/33/33 30/30/30 34/34/34
f 28/28/28 35/35/35 26/26/26
f 33/33/33 35/35/35 28/28/28
f 26/26/26 36/36/36 24/24/24
f 35/35/35 36/36/36 26/26/26
f 24/24/24 37/37/37 22/22/22
f 36/36/36 37/37/37 24/24/24
f 33/33/33 38/38/38 35/35/35
f 38/38/38 33/33/33 39/39/39
f 35/35/35 40/40/40 36/36/36
f 38/38/38 40/40/40 35/35/35
f 37/37/37 41/41/41 22/22/22
f 22/22/22 41/41/41 20/20/20
f 36/36/36 42/42/42 37/37/37
f 40/40/40 42/42/42 36/36/36
f 38/38/38 43/43/43 40/40/40
f 43/43/43 38/38/38 44/44/44
f 43/43/43 45/45/45 40/40/40
f 40/40/40 45/45/45 42/42/42
f 42/42/42 46/46/46 37/37/37
f 37/37/37 46/46/46 41/41/41
f 41/41/41 47/47/47 20/20/20
f 20/20/20 47/47/47 18/18/18
f 43/43/43 48/48/48 45/45/45
f 48/48/48 43/43/43 49/49/49
f 45/45/45 50/50/50 42/42/42
f 42/42/42 50/50/50 46/46/46
f 46/46/46 51/51/51 41/41/41
f 41/41/41 51/51/51 47/47/47
f 47/47/47 52/52/52 18/18/18
f 18/18/18 52/52/52 16/16/16
f 48/48/48 53/53/53 45/45/45
f 45/45/45 53/53/53 50/50/50
f 50/50/50 54/54/54 46/46/46
f 46/46/46 54/54/54 51/51/51
f 51/51/51 55/55/55 47/47/47
f 47/47/47 55/55/55 52/52/52
f 52/52/52 56/56/56 16/16/16
f 16/16/16 56/56/56 14/14/14
f 48/48/48 57/57/57 53/53/53
f 57/57/57 48/48/48 58/58/58
f 53/53/53 59/59/59 50/50/50
f 50/50/50 59/59/59 54/54/54
f 54/54/54 60/60/60 51/51/51
f 51/51/51 60/60/60 55/55/55
f 55/55/55 61/61/61 52/52/52
f 52/52/52 61/61/61 56/56/56
f 56/56/56 62/62/62 14/14/14
f 14/14/14 62/62/62 12/12/12
f 57/57/57 63/63/63 53/53/53
f 53/53/53 63/63/63 59/59/59
f 59/59/59 64/64/64 54/54/54
f 54/54/54 64/64/64 60/60/60
f 60/60/60 65/65/65 55/55/55
f 55/55/55 65/65/65 61/61/61
f 61/61/61 66/66/66 56/56/56
f 56/56/56 66/66/66 62/62/62
f 62/62/62 67/67/67 12/12/12
f 12/12/12 67/67/67 10/10/10
f 57/57/57 68/68/68 63/63/63
f 68/68/68 57/57/57 69/69/69
f 64/64/64 70/70/70 60/60/60
f 60/60/60 70/70/70 65/65/65
f 65/65/65 71/71/71 61/61/61
f 61/61/61 71/71/71 66/66/66
f 66/66/66 72/72/72 62/62/62
f 62/62/62 72/72/72 67/67/67
f 67/67/67 73/73/73 10/10/10
f 10/10/10 73/73/73 8/8/8
f 70/70/70 74/74/74 65/65/65
f 65/65/65 74/74/74 71/71/71
f 71/71/71 75/75/75 66/66/66
f 66/66/66 75/75/75 72/72/72
f 72/72/72 76/76/76 67/67/67
f 67/67/67 76/76/76 73/73/73
f 73/73/73 77/77/77 8/8/8
f 8/8/8 77/77/77 6/6/6
f 74/74/74 78/78/78 71/71/71
f 71/71/71 78/78/78 75/75/75
f 75/75/75 79/79/79 72/72/72
f 72/72/72 79/79/79 76/76/76
f 76/76/76 80/80/80 73/73/73
f 73/73/73 80/80/80 77/77/77
f 77/77/77 81/81/81 6/6/6
f 6/6/6 81/81/81 4/4/4
f 78/78/78 82/82/82 75/75/75
f 75/75/75 82/82/82 79/79/79
f 79/79/79 83/83/83 76/76/76
f 76/76/76 83/83/83 80/80/80
f 80/80/80 84/84/84 77/77/77
f 77/77/77 84/84/84 81/81/81
f 81/81/81 85/85/85 4/4/4
f 4/4/4 85/85/85 2/2/2
f 82/82/82 86/86/86 79/79/79
f 79/79/79 86/86/86 83/83/83
f 83/83/83 87/87/87 80/80/80
f 80/80/80 87/87/87 84/84/84
f 84/84/84 88/88/88 81/81/81
f 81/81/81 88/88/88 85/85/85
f 85/85/85 89/89/89 2/2/2
f 2/2/2 89/89/89 90/90/90
f 85/85/85 91/91/91 89/89/89
f 88/88/88 91/91/91 85/85/85
f 84/84/84 92/92/92 88/88/88
f 87/87/87 92/92/92 84/84/84
f 83/83/83 93/93/93 87/87/87
f 86/86/86 93/93/93 83/83/83
f 91/91/91 94/94/94 89/89/89
f 89/89/89 94/94/94 95/95/95
f 88/88/88 96/96/96 91/91/91
f 92/92/92 96/96/96 88/88/88
f 87/87/87 97/97/97 92/92/92
f 93/93/93 97/97/97 87/87/87
f 91/91/91 98/98/98 94/94/94
f 96/96/96 98/98/98 91/91/91
f 92/92/92 99/99/99 96/96/96
f 97/97/97 99/99/99 92/92/92
f 98/98/98 100/100/100 94/94/94
f 94/94/94 100/100/100 101/101/101
f 96/96/96 102/102/102 98/98/98
f 99/99/99 102/102/102 96/96/96
f 98/98/98 103/103/103 100/100/100
f 102/102/102 103/103/103 98/98/98
f 103/103/103 104/104/104 100/100/100
f 100/100/100 104/104/104 105/105/105
f 93/93/93 106/106/106 97/97/97
f 97/97/97 107/107/107 99/99/99
f 106/106/106 107/107/107 97/97/97
f 99/99/99 108/108/108 102/102/102
f 107/107/107 108/108/108 99/99/99
f 102/102/102 109/109/109 103/103/103
f 108/108/108 109/109/109 102/102/102
f 103/103/103 110/110/110 104/104/104
f 109/109/109 110/110/110 103/103/103
f 111/111/111 106/106/106 93/93/93
f 86/86/86 111/111/111 93/93/93
f 110/110/110 112/112/112 104/104/104
f 104/104/104 112/112/112 113/113/113
f 114/114/114 111/111/111 86/86/86
f 82/82/82 114/114/114 86/86/86
f 115/115/115 114/114/114 82/82/82
f 78/78/78 115/115/115 82/82/82
f 116/116/116 115/115/115 78/78/78
f 74/74/74 116/116/116 78/78/78
f 117/117/117 116/116/116 74/74/74
f 70/70/70 117/117/117 74/74/74
f 118/118/118 117/117/117 70/70/70
f 64/64/64 118/118/118 70/70/70
f 119/119/119 118/118/118 64/64/64
f 59/59/59 119/119/119 64/64/64
f 63/63/63 119/119/119 59/59/59
f 63/63/63 120/120/120 119/119/119
f 68/68/68 120/120/120 63/63/63
f 119/119/119 121/121/121 118/118/118
f 120/120/120 121/121/121 119/119/119
f 118/118/118 122/122/122 117/117/117
f 121/121/121 122/122/122 118/118/118
f 117/117/117 123/123/123 116/116/116
f 122/122/122 123/123/123 117/117/117
f 116/116/116 124/124/124 115/115/115
f 123/123/123 124/124/124 116/116/116
f 68/68/68 125/125/125 120/120/120
f 125/125/125 68/68/68 126/126/126
f 120/120/120 127/127/127 121/121/121
f 125/125/125 127/127/127 120/120/120
f 121/121/121 128/128/128 122/122/122
f 127/127/127 128/128/128 121/121/121
f 122/122/122 129/129/129 123/123/123
f 128/128/128 129/129/129 122/122/122
f 125/125/125 130/130/130 127/127/127
f 130/130/130 125/125/125 131/131/131
f 127/127/127 132/132/132 128/128/128
f 130/130/130 132/132/132 127/127/127
f 124/124/124 133/133/133 115/115/115
f 115/115/115 133/133/133 114/114/114
f 123/123/123 134/134/134 124/124/124
f 129/129/129 134/134/134 123/123/123
f 128/128/128 135/135/135 129/129/129
f 132/132/132 135/135/135 128/128/128
f 130/130/130 136/136/136 132/132/132
f 136/136/136 130/130/130 137/137/137
f 136/136/136 138/138/138 132/132/132
f 132/132/132 138/138/138 135/135/135
f 135/135/135 139/139/139 129/129/129
f 129/129/129 139/139/139 134/134/134
f 134/134/134 140/140/140 124/124/124
f 124/124/124 140/140/140 133/133/133
f 133/133/133 141/141/141 114/114/114
f 114/114/114 141/141/141 111/111/111
f 136/136/136 142/142/142 138/138/138
f 142/142/142 136/136/136 143/143/143
f 138/138/138 144/144/144 135/135/135
f 135/135/135 144/144/144 139/139/139
f 139/139/139 145/145/145 134/134/134
f 134/134/134 145/145/145 140/140/140
f 140/140/140 146/146/146 133/133/133
f 133/133/133 146/146/146 141/141/141
f 141/141/141 147/147/147 111/111/111
f 111/111/111 147/147/147 106/106/106
f 142/142/142 148/148/148 138/138/138
f 138/138/138 148/148/148 144/144/144
f 144/144/144 149/149/149 139/139/139
f 139/139/139 149/149/149 145/145/145
f 145/145/145 150/150/150 140/140/140
f 140/140/140 150/150/150 146/146/146
f 146/146/146 151/151/151 141/141/141
f 141/141/141 151/151/151 147/147/147
f 147/147/147 152/152/152 106/106/106
f 106/106/106 152/152/152 107/107/107
f 142/142/142 153/153/153 148/148/148
f 153/153/153 142/142/142 154/154/154
f 149/149/149 155/155/155 145/145/145
f 145/145/145 155/155/155 150/150/150
f 150/150/150 156/156/156 146/146/146
f 146/146/146 156/156/156 151/151/151
f 151/151/151 157/157/157 147/147/147
f 147/147/147 157/157/157 152/152/152
f 152/152/152 158/158/158 107/107/107
f 107/107/107 158/158/158 108/108/108
f 155/155/155 159/159/159 150/150/150
f 150/150/150 159/159/159 156/156/156
f 156/156/156 160/160/160 151/151/151
f 151/151/151 160/160/160 157/157/157
f 157/157/157 161/161/161 152/152/152
f 152/152/152 161/161/161 158/158/158
f 158/158/158 162/162/162 108/108/108
f 108/108/108 162/162/162 109/109/109
f 159/159/159 163/163/163 156/156/156
f 156/156/156 163/163/163 160/160/160
f 160/160/160 164/164/164 157/157/157
f 157/157/157 164/164/164 161/161/161
f 161/161/161 165/165/165 158/158/158
f 158/158/158 165/165/165 162/162/162
f 162/162/162 166/166/166 109/109/109
f 109/109/109 166/166/166 110/110/110
f 163/163/163 167/167/167 160/160/160
f 160/160/160 167/167/167 164/164/164
f 164/164/164 168/168/168 161/161/161
f 161/161/161 168/168/168 165/165/165
f 165/165/165 169/169/169 162/162/162
f 162/162/162 169/169/169 166/166/166
f 166/166/166 170/170/170 110/110/110
f 110/110/110 170/170/170 112/112/112
f 167/167/167 171/171/171 164/164/164
f 164/164/164 171/171/171 168/168/168
f 168/168/168 172/172/172 165/165/165
f 165/165/165 172/172/172 169/169/169
f 169/169/169 173/173/173 166/166/166
f 166/166/166 173/173/173 170/170/170
f 170/170/170 174/174/174 112/112/112
f 112/112/112 174/174/174 175/175/175
f 170/170/170 176/176/176 174/174/174
f 173/173/173 176/176/176 170/170/170
f 169/169/169 177/177/177 173/173/173
f 172/172/172 177/177/177 169/169/169
f 168/168/168 178/178/178 172/172/172
f 171/171/171 178/178/178 168/168/168
f 176/176/176 179/179/179 174/174/174
f 174/174/174 179/179/179 180/180/180
f 173/173/173 181/181/181 176/176/176
f 177/177/177 181/181/181 173/173/173
f 172/172/172 182/182/182 177/177/177
f 178/178/178 182/182/182 172/172/172
f 176/176/176 183/183/183 179/179/179
f 181/181/181 183/183/183 176/176/176
f 177/177/177 184/184/184 181/181/181
f 182/182/182 184/184/184 177/177/177
f 183/183/183 185/185/185 179/179/179
f 179/179/179 185/185/185 186/186/186
f 181/181/181 187/187/187 183/183/183
f 184/184/184 187/187/187 181/181/181
f 183/183/183 188/188/188 185/185/185
f 187/187/187 188/188/188 183/183/183
f 188/188/188 189/189/189 185/185/185
f 185/185/185 189/189/189 190/190/190
f 178/178/178 191/191/191 182/182/182
f 182/182/182 192/192/192 184/184/184
f 191/191/191 192/192/192 182/182/182
f 184/184/184 193/193/193 187/187/187
f 192/192/192 193/193/193 184/184/184
f 187/187/187 194/194/194 188/188/188
f 193/193/193 194/194/194 187/187/187
f 188/188/188 195/195/195 189/189/189
f 194/194/194 195/195/195 188/188/188
f 196/196/196 191/191/191 178/178/178
f 171/171/171 196/196/196 178/178/178
f 195/195/195 197/197/197 189/189/189
f 189/189/189 197/197/197 198/198/198
f 199/199/199 196/196/196 171/171/171
f 167/167/167 199/199/199 171/171/171
f 200/200/200 199/199/199 167/167/167
f 163/163/163 200/200/200 167/167/167
f 201/201/201 200/200/200 163/163/163
f 159/159/159 201/201/201 163/163/163
f 202/202/202 201/201/201 159/159/159
f 155/155/155 202/202/202 159/159/159
f 203/203/203 202/202/202 155/155/155
f 149/149/149 203/203/203 155/155/155
f 204/204/204 203/203/203 149/149/149
f 144/144/144 204/204/204 149/149/149
f 148/148/148 204/204/204 144/144/144
f 148/148/148 205/205/205 204/204/204
f 153/153/153 205/205/205 148/148/148
f 204/204/204 206/206/206 203/203/203
f 205/205/205 206/206/206 204/204/204
f 203/203/203 207/207/207 202/202/202
f 206/206/206 207/207/207 203/203/203
f 202/202/202 208/208/208 201/201/201
f 207/207/207 208/208/208 202/202/202
f 201/201/201 209/209/209 200/200/200
f 208/208/208 209/209/209 201/201/201
f 153/153/153 210/210/210 205/205/205
f 210/210/210 153/153/153 211/211/211
f 205/205/205 212/212/212 206/206/206
f 210/210/210 212/212/212 205/205/205
f 206/206/206 213/213/213 207/207/207
f 212/212/212 213/213/213 206/206/206
f 207/207/207 214/214/214 208/208/208
f 213/213/213 214/214/214 207/207/207
f 210/210/210 215/215/215 212/212/212
f 215/215/215 210/210/210 216/216/216
f 212/212/212 217/217/217 213/213/213
f 215/215/215 217/217/217 212/212/212
f 209/209/209 218/218/218 200/200/200
f 200/200/200 218/218/218 199/199/199
f 208/208/208 219/219/219 209/209/209
f 214/214/214 219/219/219 208/208/208
f 213/213/213 220/220/220 214/214/214
f 217/217/217 220/220/220 213/213/213
f 215/215/215 221/221/221 217/217/217
f 221/221/221 215/215/215 222/222/222
f 221/221/221 223/223/223 217/217/217
f 217/217/217 223/223/223 220/220/220
f 220/220/220 224/224/224 214/214/214
f 214/214/214 224/224/224 219/219/219
f 219/219/219 225/225/225 209/209/209
f 209/209/209 225/225/225 218/218/218
f 218/218/218 226/226/226 199/199/199
f 199/199/199 226/226/226 196/196/196
f 221/221/221 227/227/227 223/223/223
f 227/227/227 221/221/221 228/228/228
f 223/223/223 229/229/229 220/220/220
f 220/220/220 229/229/229 224/224/224
f 224/224/224 230/230/230 219/219/219
f 219/219/219 230/230/230 225/225/225
f 225/225/225 231/231/231 218/218/218
f 218/218/218 231/231/231 226/226/226
f 226/226/226 232/232/232 196/196/196
f 196/196/196 232/232/232 191/191/191
f 227/227/227 233/233/233 223/223/223
f 223/223/223 233/233/233 229/229/229
f 229/229/229 234/234/234 224/224/224
f 224/224/224 234/234/234 230/230/230
f 230/230/230 235/235/235 225/225/225
f 225/225/225 235/235/235 231/231/231
f 231/231/231 236/236/236 226/226/226
f 226/226/226 236/236/236 232/232/232
f 232/232/232 237/237/237 191/191/191
f 191/191/191 237/237/237 192/192/192
f 227/227/227 238/238/238 233/233/233
f 238/238/238 227/227/227 239/239/239
f 234/234/234 240/240/240 230/230/230
f 230/230/230 240/240/240 235/235/235
f 235/235/235 241/241/241 231/231/231
f 231/231/231 241/241/241 236/236/236
f 236/236/236 242/242/242 232/232/232
f 232/232/232 242/242/242 237/237/237
f 237/237/237 243/243/243 192/192/192
f 192/192/192 243/243/243 193/193/193
f 240/240/240 244/244/244 235/235/235
f 235/235/235 244/244/244 241/241/241
f 241/241/241 245/245/245 236/236/236
f 236/236/236 245/245/245 242/242/242
f 242/242/242 246/246/246 237/237/237
f 237/237/237 246/246/246 243/243/243
f 243/243/243 247/247/247 193/193/193
f 193/193/193 247/247/247 194/194/194
f 244/244/244 248/248/248 241/241/241
f 241/241/241 248/248/248 245/245/245
f 245/245/245 249/249/249 242/242/242
f 242/242/242 249/249/249 246/246/246
f 246/246/246 250/250/250 243/243/243
f 243/243/243 250/250/250 247/247/247
f 247/247/247 251/251/251 194/194/194
f 194/194/194 251/251/251 195/195/195
f 248/248/248 252/252/252 245/245/245
f 245/245/245 252/252/252 249/249/249
f 249/249/249 253/253/253 246/246/246
f 246/246/246 253/253/253 250/250/250
f 250/250/250 254/254/254 247/247/247
f 247/247/247 254/254/254 251/251/251
f 251/251/251 255/255/255 195/195/195
f 195/195/195 255/255/255 197/197/197
f 252/252/252 256/256/256 249/249/249
f 249/249/249 256/256/256 253/253/253
f 253/253/253 257/257/257 250/250/250
f 250/250/250 257/257/257 254/254/254
f 254/254/254 258/258/258 251/251/251
f 251/251/251 258/258/258 255/255/255
f 255/255/255 259/259/259 197/197/197
f 197/197/197 259/259/259 260/260/260
f 255/255/255 261/261/261 259/259/259
f 258/258/258 261/261/261 255/255/255
f 254/254/254 262/262/262 258/258/258
f 257/257/257 262/262/262 254/254/254
f 253/253/253 263/263/263 257/257/257
f 256/256/256 263/263/263 253/253/253
f 261/261/261 264/264/264 259/259/259
f 259/259/259 264/264/264 265/265/265
f 258/258/258 266/266/266 261/261/261
f 262/262/262 266/266/266 258/258/258
f 257/257/257 267/267/267 262/262/262
f 263/263/263 267/267/267 257/257/257
f 261/261/261 268/268/268 264/264/264
f 266/266/266 268/268/268 261/261/261
f 262/262/262 269/269/269 266/266/266
f 267/267/267 269/269/269 262/262/262
f 268/268/268 270/270/270 264/264/264
f 264/264/264 270/270/270 271/271/271
f 266/266/266 272/272/272 268/268/268
f 269/269/269 272/272/272 266/266/266
f 268/268/268 273/273/273 270/270/270
f 272/272/272 273/273/273 268/268/268
f 273/273/273 274/274/274 270/270/270
f 270/270/270 274/274/274 275/275/275
f 263/263/263 276/276/276 267/267/267
f 267/267/267 277/277/277 269/269/269
f 276/276/276 277/277/277 267/267/267
f 269/269/269 278/278/278 272/272/272
f 277/277/277 278/278/278 269/269/269
f 272/272/272 279/279/279 273/273/273
f 278/278/278 279/279/279 272/272/272
f 273/273/273 280/280/280 274/274/274
f 279/279/279 280/280/280 273/273/273
f 281/281/281 276/276/276 263/263/263
f 256/256/256 281/281/281 263/263/263
f 280/280/280 282/282/282 274/274/274
f 274/274/274 282/282/282 283/283/283
f 284/284/284 281/281/281 256/256/256
f 252/252/252 284/284/284 256/256/256
f 285/285/285 284/284/284 252/252/252
f 248/248/248 285/285/285 252/252/252
f 286/286/286 285/285/285 248/248/248
f 244/244/244 286/286/286 248/248/248
f 287/287/287 286/286/286 244/244/244
f 240/240/240 287/287/287 244/244/244
f 288/288/288 287/287/287 240/240/240
f 234/234/234 288/288/288 240/240/240
f 289/289/289 288/288/288 234/234/234
f 229/229/229 289/289/289 234/234/234
f 233/233/233 289/289/289 229/229/229
f 233/233/233 290/290/290 289/289/289
f 238/238/238 290/290/290 233/233/233
f 289/289/289 291/291/291 288/288/288
f 290/290/290 291/291/291 289/289/289
f 288/288/288 292/292/292 287/287/287
f 291/291/291 292/292/292 288/288/288
f 287/287/287 293/293/293 286/286/286
f 292/292/292 293/293/293 287/287/287
f 286/286/286 294/294/294 285/285/285
f 293/293/293 294/294/294 286/286/286
f 238/238/238 295/295/295 290/290/290
f 295/295/295 238/238/238 296/296/296
f 290/290/290 297/297/297 291/291/291
f 295/295/295 297/297/297 290/290/290
f 291/291/291 298/298/298 292/292/292
f 297/297/297 298/298/298 291/291/291
f 292/292/292 299/299/299 293/293/293
f 298/298/298 299/299/299 292/292/292
f 295/295/295 300/300/300 297/297/297
f 300/300/300 295/295/295 301/301/301
f 297/297/297 302/302/302 298/298/298
f 300/300/300 302/302/302 297/297/297
f 294/294/294 303/303/303 285/285/285
f 285/285/285 303/303/303 284/284/284
f 293/293/293 304/304/304 294/294/294
f 299/299/299 304/304/304 293/293/293
f 298/298/298 305/305/305 299/299/299
f 302/302/302 305/305/305 298/298/298
f 300/300/300 306/306/306 302/302/302
f 306/306/306 300/300/300 307/307/307
f 306/306/306 308/308/308 302/302/302
f 302/302/302 308/308/308 305/305/305
f 305/305/305 309/309/309 299/299/299
f 299/299/299 309/309/309 304/304/304
f 304/304/304 310/310/310 294/294/294
f 294/294/294 310/310/310 303/303/303
f 303/303/303 311/311/311 284/284/284
f 284/284/284 311/311/311 281/281/281
f 306/306/306 312/312/312 308/308/308
f 312/312/312 306/306/306 313/313/313
f 308/308/308 314/314/314 305/305/305
f 305/305/305 314/314/314 309/309/309
f 309/309/309 315/315/315 304/304/304
f 304/304/304 315/315/315 310/310/310
f 310/310/310 316/316/316 303/303/303
f 303/303/303 316/316/316 311/311/311
f 311/311/311 317/317/317 281/281/281
f 281/281/281 317/317/317 276/276/276
f 312/312/312 318/318/318 308/308/308
f 308/308/308 318/318/318 314/314/314
f 314/314/314 319/319/319 309/309/309
f 309/309/309 319/319/319 315/315/315
f 315/315/315 320/320/320 310/310/310
f 310/310/310 320/320/320 316/316/316
f 316/316/316 321/321/321 311/311/311
f 311/311/311 321/321/321 317/317/317
f 317/317/317 322/322/322 276/276/276
f 276/276/276 322/322/322 277/277/277
f 312/312/312 323/323/323 318/318/318
f 323/323/323 312/312/312 324/324/324
f 319/319/319 325/325/325 315/315/315
f 315/315/315 325/325/325 320/320/320
f 320/320/320 326/326/326 316/316/316
f 316/316/316 326/326/326 321/321/321
f 321/321/321 327/327/327 317/317/317
f 317/317/317 327/327/327 322/322/322
f 322/322/322 328/328/328 277/277/277
f 277/277/277 328/328/328 278/278/278
f 325/325/325 329/329/329 320/320/320
f 320/320/320 329/329/329 326/326/326
f 326/326/326 330/330/330 321/321/321
f 321/321/321 330/330/330 327/327/327
f 327/327/327 331/331/331 322/322/322
f 322/322/322 331/331/331 328/328/328
f 328/328/328 332/332/332 278/278/278
f 278/278/278 332/332/332 279/279/279
f 329/329/329 333/333/333 326/326/326
f 326/326/326 333/333/333 330/330/330
f 330/330/330 334/334/334 327/327/327
f 327/327/327 334/334/334 331/331/331
f 331/331/331 335/335/335 328/328/328
f 328/328/328 335/335/335 332/332/332
f 332/332/332 336/336/336 279/279/279
f 279/279/279 336/336/336 280/280/280
f 333/333/333 337/337/337 330/330/330
f 330/330/330 337/337/337 334/334/334
f 334/334/334 338/338/338 331/331/331
f 331/331/331 338/338/338 335/335/335
f 335/335/335 339/339/339 332/332/332
f 332/332/332 339/339/339 336/336/336
f 336/336/336 340/340/340 280/280/280
f 280/280/280 340/340/340 282/282/282
f 337/337/337 341/341/341 334/334/334
f 334/334/334 341/341/341 338/338/338
f 338/338/338 342/342/342 335/335/335
f 335/335/335 342/342/342 339/339/339
f 339/339/339 343/343/343 336/336/336
f 336/336/336 343/343/343 340/340/340
f 340/340/340 344/344/344 282/282/282
f 282/282/282 344/344/344 345/345/345
f 340/340/340 346/346/346 344/344/344
f 343/343/343 346/346/346 340/340/340
f 339/339/339 347/347/347 343/343/343
f 342/342/342 347/347/347 339/339/339
f 338/338/338 348/348/348 342/342/342
f 341/341/341 348/348/348 338/338/338
f 346/346/346 349/349/349 344/344/344
f 344/344/344 349/349/349 350/350/350
f 343/343/343 351/351/351 346/346/346
f 347/347/347 351/351/351 343/343/343
f 342/342/342 352/352/352 347/347/347
f 348/348/348 352/352/352 342/342/342
f 346/346/346 353/353/353 349/349/349
f 351/351/351 353/353/353 346/346/346
f 347/347/347 354/354/354 351/351/351
f 352/352/352 354/354/354 347/347/347
f 353/353/353 355/355/355 349/349/349
f 349/349/349 355/355/355 356/356/356
f 351/351/351 357/357/357 353/353/353
f 354/354/354 357/357/357 351/351/351
f 353/353/353 358/358/358 355/355/355
f 357/357/357 358/358/358 353/353/353
f 358/358/358 359/359/359 355/355/355
f 355/355/355 359/359/359 360/360/360
f 348/348/348 361/361/361 352/352/352
f 352/352/352 362/362/362 354/354/354
f 361/361/361 362/362/362 352/352/352
f 354/354/354 363/363/363 357/357/357
f 362/362/362 363/363/363 354/354/354
f 357/357/357 364/364/364 358/358/358
f 363/363/363 364/364/364 357/357/357
f 358/358/358 365/365/365 359/359/359
f 364/364/364 365/365/365 358/358/358
f 366/366/366 361/361/361 348/348/348
f 341/341/341 366/366/366 348/348/348
f 365/365/365 367/367/367 359/359/359
f 359/359/359 367/367/367 368/368/368
f 369/369/369 366/366/366 341/341/341
f 337/337/337 369/369/369 341/341/341
f 370/370/370 369/369/369 337/337/337
f 333/333/333 370/370/370 337/337/337
f 371/371/371 370/370/370 333/333/333
f 329/329/329 371/371/371 333/333/333
f 372/372/372 371/371/371 329/329/329
f 325/325/325 372/372/372 329/329/329
f 373/373/373 372/372/372 325/325/325
f 319/319/319 373/373/373 325/325/325
f 374/374/374 373/373/373 319/319/319
f 314/314/314 374/374/374 319/319/319
f 318/318/318 374/374/374 314/314/314
f 318/318/318 375/375/375 374/374/374
f 323/323/323 375/375/375 318/318/318
f 374/374/374 376/376/376 373/373/373
f 375/375/375 376/376/376 374/374/374
f 373/373/373 377/377/377 372/372/372
f 376/376/376 377/377/377 373/373/373
f 372/372/372 378/378/378 371/371/371
f 377/377/377 378/378/378 372/372/372
f 371/371/371 379/379/379 370/370/370
f 378/378/378 379/379/379 371/371/371
f 323/323/323 380/380/380 375/375/375
f 380/380/380 323/323/323 381/381/381
f 375/375/375 382/382/382 376/376/376
f 380/380/380 382/382/382 375/375/375
f 376/376/376 383/383/383 377/377/377
f 382/382/382 383/383/383 376/376/376
f 377/377/377 384/384/384 378/378/378
f 383/383/383 384/384/384 377/377/377
f 380/380/380 385/385/385 382/382/382
f 385/385/385 380/380/380 386/386/386
f 382/382/382 387/387/387 383/383/383
f 385/385/385 387/387/387 382/382/382
f 379/379/379 388/388/388 370/370/370
f 370/370/370 388/388/388 369/369/369
f 378/378/378 389/389/389 379/379/379
f 384/384/384 389/389/389 378/378/378
f 383/383/383 390/390/390 384/384/384
f 387/387/387 390/390/390 383/383/383
f 385/385/385 391/391/391 387/387/387
f 391/391/391 385/385/385 392/392/392
f 391/391/391 393/393/393 387/387/387
f 387/387/387 393/393/393 390/390/390
f 390/390/390 394/394/394 384/384/384
f 384/384/384 394/394/394 389/389/389
f 389/389/389 395/395/395 379/379/379
f 379/379/379 395/395/395 388/388/388
f 388/388/388 396/396/396 369/369/369
f 369/369/369 396/396/396 366/366/366
f 391/391/391 397/397/397 393/393/393
f 397/397/397 391/391/391 398/398/398
f 393/393/393 399/399/399 390/390/390
f 390/390/390 399/399/399 394/394/394
f 394/394/394 400/400/400 389/389/389
f 389/389/389 400/400/400 395/395/395
f 395/395/395 401/401/401 388/388/388
f 388/388/388 401/401/401 396/396/396
f 396/396/396 402/402/402 366/366/366
f 366/366/366 402/402/402 361/361/361
f 397/397/397 403/403/403 393/393/393
f 393/393/393 403/403/403 399/399/399
f 399/399/399 404/404/404 394/394/394
f 394/394/394 404/404/404 400/400/400
f 400/400/400 405/405/405 395/395/395
f 395/395/395 405/405/405 401/401/401
f 401/401/401 406/406/406 396/396/396
f 396/396/396 406/406/406 402/402/402
f 402/402/402 407/407/407 361/361/361
f 361/361/361 407/407/407 362/362/362
f 397/397/397 408/408/408 403/403/403
f 408/408/408 397/397/397 409/409/409
f 404/404/404 410/410/410 400/400/400
f 400/400/400 410/410/410 405/405/405
f 405/405/405 411/411/411 401/401/401
f 401/401/401 411/411/411 406/406/406
f 406/406/406 412/412/412 402/402/402
f 402/402/402 412/412/412 407/407/407
f 407/407/407 413/413/413 362/362/362
f 362/362/362 413/413/413 363/363/363
f 410/410/410 414/414/414 405/405/405
f 405/405/405 414/414/414 411/411/411
f 411/411/411 415/415/415 406/406/406
f 406/406/406 415/415/415 412/412/412
f 412/412/412 416/416/416 407/407/407
f 407/407/407 416/416/416 413/413/413
f 413/413/413 417/417/417 363/363/363
f 363/363/363 417/417/417 364/364/364
f 414/414/414 418/418/418 411/411/411
f 411/411/411 418/418/418 415/415/415
f 415/415/415 419/419/419 412/412/412
f 412/412/412 419/419/419 416/416/416
f 416/416/416 420/420/420 413/413/413
f 413/413/413 420/420/420 417/417/417
f 417/417/417 421/421/421 364/364/364
f 364/364/364 421/421/421 365/365/365
f 418/418/418 422/422/422 415/415/415
f 415/415/415 422/422/422 419/419/419
f 419/419/419 423/423/423 416/416/416
f 416/416/416 423/423/423 420/420/420
f 420/420/420 424/424/424 417/417/417
f 417/417/417 424/424/424 421/421/421
f 421/421/421 425/425/425 365/365/365
f 365/365/365 425/425/425 367/367/367
f 422/422/422 426/426/426 419/419/419
f 419/419/419 426/426/426 423/423/423
f 423/423/423 427/427/427 420/420/420
f 420/420/420 427/427/427 424/424/424
f 424/424/424 428/428/428 421/421/421
f 421/421/421 428/428/428 425/425/425
f 425/425/425 429/429/429 367/367/367
f 367/367/367 429/429/429 430/430/430
f 425/425/425 431/431/431 429/429/429
f 428/428/428 431/431/431 425/425/425
f 424/424/424 432/432/432 428/428/428
f 427/427/427 432/432/432 424/424/424
f 423/423/423 433/433/433 427/427/427
f 426/426/426 433/433/433 423/423/423
f 431/431/431 434/434/434 429/429/429
f 429/429/429 434/434/434 435/435/435
f 428/428/428 436/436/436 431/431/431
f 432/432/432 436/436/436 428/428/428
f 427/427/427 437/437/437 432/432/432
f 433/433/433 437/437/437 427/427/427
f 431/431/431 438/438/438 434/434/434
f 436/436/436 438/438/438 431/431/431
f 432/432/432 439/439/439 436/436/436
f 437/437/437 439/439/439 432/432/432
f 438/438/438 440/440/440 434/434/434
f 434/434/434 440/440/440 441/441/441
f 436/436/436 442/442/442 438/438/438
f 439/439/439 442/442/442 436/436/436
f 438/438/438 443/443/443 440/440/440
f 442/442/442 443/443/443 438/438/438
f 443/443/443 444/444/444 440/440/440
f 440/440/440 444/444/444 445/445/445
f 433/433/433 446/446/446 437/437/437
f 437/437/437 447/447/447 439/439/439
f 446/446/446 447/447/447 437/437/437
f 439/439/439 448/448/448 442/442/442
f 447/447/447 448/448/448 439/439/439
f 442/442/442 449/449/449 443/443/443
f 448/448/448 449/449/449 442/442/442
f 443/443/443 450/450/450 444/444/444
f 449/449/449 450/450/450 443/443/443
f 451/451/451 446/446/446 433/433/433
f 426/426/426 451/451/451 433/433/433
f 450/450/450 452/452/452 444/444/444
f 444/444/444 452/452/452 453/453/453
f 454/454/454 451/451/451 426/426/426
f 422/422/422 454/454/454 426/426/426
f 455/455/455 454/454/454 422/422/422
f 418/418/418 455/455/455 422/422/422
f 456/456/456 455/455/455 418/418/418
f 414/414/414 456/456/456 418/418/418
f 457/457/457 456/456/456 414/414/414
f 410/410/410 457/457/457 414/414/414
f 458/458/458 457/457/457 410/410/410
f 404/404/404 458/458/458 410/410/410
f 459/459/459 458/458/458 404/404/404
f 399/399/399 459/459/459 404/404/404
f 403/403/403 459/459/459 399/399/399
f 403/403/403 460/460/460 459/459/459
f 408/408/408 460/460/460 403/403/403
f 459/459/459 461/461/461 458/458/458
f 460/460/460 461/461/461 459/459/459
f 458/458/458 462/462/462 457/457/457
f 461/461/461 462/462/462 458/458/458
f 457/457/457 463/463/463 456/456/456
f 462/462/462 463/463/463 457/457/457
f 456/456/456 464/464/464 455/455/455
f 463/463/463 464/464/464 456/456/456
f 408/408/408 465/465/465 460/460/460
f 465/465/465 408/408/408 466/466/466
f 460/460/460 467/467/467 461/461/461
f 465/465/465 467/467/467 460/460/460
f 461/461/461 468/468/468 462/462/462
f 467/467/467 468/468/468 461/461/461
f 462/462/462 469/469/469 463/463/463
f 468/468/468 469/469/469 462/462/462
f 465/465/465 470/470/470 467/467/467
f 470/470/470 465/465/465 471/471/471
f 467/467/467 472/472/472 468/468/468
f 470/470/470 472/472/472 467/467/467
f 464/464/464 473/473/473 455/455/455
f 455/455/455 473/473/473 454/454/454
f 463/463/463 474/474/474 464/464/464
f 469/469/469 474/474/474 463/463/463
f 468/468/468 475/475/475 469/469/469
f 472/472/472 475/475/475 468/468/468
f 470/470/470 476/476/476 472/472/472
f 476/476/476 470/470/470 477/477/477
f 476/476/476 478/478/478 472/472/472
f 472/472/472 478/478/478 475/475/475
f 475/475/475 479/479/479 469/469/469
f 469/469/469 479/479/479 474/474/474
f 474/474/474 480/480/480 464/464/464
f 464/464/464 480/480/480 473/473/473
f 473/473/473 481/481/481 454/454/454
f 454/454/454 481/481/481 451/451/451
f 476/476/476 482/482/482 478/478/478
f 482/482/482 476/476/476 483/483/483
f 478/478/478 484/484/484 475/475/475
f 475/475/475 484/484/484 479/479/479
f 479/479/479 485/485/485 474/474/474
f 474/474/474 485/485/485 480/480/480
f 480/480/480 486/486/486 473/473/473
f 473/473/473 486/486/486 481/481/481
f 481/481/481 487/487/487 451/451/451
f 451/451/451 487/487/487 446/446/446
f 482/482/482 488/488/488 478/478/478
f 478/478/478 488/488/488 484/484/484
f 484/484/484 489/489/489 479/479/479
f 479/479/479 489/489/489 485/485/485
f 485/485/485 490/490/490 480/480/480
f 480/480/480 490/490/490 486/486/486
f 486/486/486 491/491/491 481/481/481
f 481/481/481 491/491/491 487/487/487
f 487/487/487 492/492/492 446/446/446
f 446/446/446 492/492/492 447/447/447
f 482/482/482 493/493/493 488/488/488
f 493/493/493 482/482/482 494/494/494
f 493/493/493 495/495/495 488/488/488
f 488/488/488 495/495/495 496/496/496
f 488/488/488 496/496/496 484/484/484
f 495/495/495 497/497/497 496/496/496
f 484/484/484 496/496/496 489/489/489
f 496/496/496 497/497/497 498/498/498
f 496/496/496 498/498/498 489/489/489
f 497/497/497 499/499/499 498/498/498
f 489/489/489 498/498/498 500/500/500
f 489/489/489 500/500/500 485/485/485
f 485/485/485 500/500/500 490/490/490
f 498/498/498 499/499/499 501/501/501
f 498/498/498 501/501/501 500/500/500
f 499/499/499 502/502/502 501/501/501
f 500/500/500 503/503/503 490/490/490
f 500/500/500 501/501/501 503/503/503
f 501/501/501 502/502/502 504/504/504
f 501/501/501 504/504/504 503/503/503
f 502/502/502 505/505/505 504/504/504
f 490/490/490 503/503/503 506/506/506
f 490/490/490 506/506/506 486/486/486
f 486/486/486 506/506/506 491/491/491
f 503/503/503 504/504/504 507/507/507
f 503/503/503 507/507/507 506/506/506
f 504/504/504 505/505/505 508/508/508
f 504/504/504 508/508/508 507/507/507
f 505/505/505 509/509/509 508/508/508
f 506/506/506 510/510/510 491/491/491
f 506/506/506 507/507/507 510/510/510
f 507/507/507 508/508/508 511/511/511
f 507/507/507 511/511/511 510/510/510
f 508/508/508 509/509/509 512/512/512
f 508/508/508 512/512/512 511/511/511
f 509/509/509 513/513/513 512/512/512
f 491/491/491 510/510/510 514/514/514
f 491/491/491 514/514/514 487/487/487
f 487/487/487 514/514/514 492/492/492
f 510/510/510 511/511/511 515/515/515
f 510/510/510 515/515/515 514/514/514
f 511/511/511 512/512/512 516/516/516
f 511/511/511 516/516/516 515/515/515
f 512/512/512 513/513/513 517/517/517
f 512/512/512 517/517/517 516/516/516
f 513/513/513 518/518/518 517/517/517
f 514/514/514 519/519/519 492/492/492
f 514/514/514 515/515/515 519/519/519
f 515/515/515 516/516/516 520/520/520
f 515/515/515 520/520/520 519/519/519
f 516/516/516 517/517/517 521/521/521
f 516/516/516 521/521/521 520/520/520
f 517/517/517 518/518/518 522/522/522
f 517/517/517 522/522/522 521/521/521
f 518/518/518 523/523/523 522/522/522
f 492/492/492 519/519/519 524/524/524
f 492/492/492 524/524/524 447/447/447
f 447/447/447 524/524/524 448/448/448
f 519/519/519 520/520/520 525/525/525
f 519/519/519 525/525/525 524/524/524
f 524/524/524 526/526/526 448/448/448
f 524/524/524 525/525/525 526/526/526
f 448/448/448 526/526/526 449/449/449
f 520/520/520 521/521/521 527/527/527
f 520/520/520 527/527/527 525/525/525
f 521/521/521 522/522/522 528/528/528
f 521/521/521 528/528/528 527/527/527
f 522/522/522 523/523/523 529/529/529
f 522/522/522 529/529/529 528/528/528
f 523/523/523 530/530/530 529/529/529
f 526/526/526 531/531/531 449/449/449
f 449/449/449 531/531/531 450/450/450
f 525/525/525 532/532/532 526/526/526
f 525/525/525 527/527/527 532/532/532
f 526/526/526 532/532/532 531/531/531
f 527/527/527 528/528/528 533/533/533
f 527/527/527 533/533/533 532/532/532
f 528/528/528 529/529/529 534/534/534
f 528/528/528 534/534/534 533/533/533
f 529/529/529 530/530/530 535/535/535
f 529/529/529 535/535/535 534/534/534
f 530/530/530 536/536/536 535/535/535
f 531/531/531 537/537/537 450/450/450
f 450/450/450 537/537/537 452/452/452
f 532/532/532 538/538/538 531/531/531
f 532/532/532 533/533/533 538/538/538
f 531/531/531 538/538/538 537/537/537
f 533/533/533 534/534/534 539/539/539
f 533/533/533 539/539/539 538/538/538
f 534/534/534 535/535/535 540/540/540
f 534/534/534 540/540/540 539/539/539
f 535/535/535 536/536/536 541/541/541
f 535/535/535 541/541/541 540/540/540
f 536/536/536 542/542/542 541/541/541
f 537/537/537 543/543/543 452/452/452
f 452/452/452 543/543/543 544/544/544
f 538/538/538 545/545/545 537/537/537
f 538/538/538 539/539/539 545/545/545
f 537/537/537 545/545/545 543/543/543
f 539/539/539 540/540/540 546/546/546
f 539/539/539 546/546/546 545/545/545
f 545/545/545 547/547/547 543/543/543
f 545/545/545 546/546/546 547/547/547
f 543/543/543 547/547/547 548/548/548
f 540/540/540 541/541/541 549/549/549
f 540/540/540 549/549/549 546/546/546
f 541/541/541 542/542/542 550/550/550
f 541/541/541 550/550/550 549/549/549
f 542/542/542 551/551/551 550/550/550
f 546/546/546 552/552/552 547/547/547
f 546/546/546 549/549/549 552/552/552
f 547/547/547 552/552/552 553/553/553
f 549/549/549 554/554/554 552/552/552
f 549/549/549 550/550/550 554/554/554
f 552/552/552 554/554/554 555/555/555
f 550/550/550 551/551/551 556/556/556
f 550/550/550 556/556/556 554/554/554
f 554/554/554 556/556/556 557/557/557
f 551/551/551 558/558/558 556/556/556
f 556/556/556 558/558/558 559/559/559
