g A_Build_monika_weapon_01
v 0.667728424 0.0994414017 -0.104139417
v 0.667728424 0.113665104 -0.107324578
v 0.667728424 0.108148098 -0.12855275
v 0.663618624 0.113665104 -0.107324578
v 0.663618624 0.0994414017 -0.104139417
v 0.663618624 0.108148098 -0.12855275
v 0.665673494 0.0147840865 0.0136875995
v 0.67328614 0.0147840856 0.0136875995
v 0.67328614 -0.028146578 0.0215677042
v 0.665673494 -0.028146578 0.0215677042
v 0.67328614 -0.0680137128 0.0384648927
v 0.665673494 -0.0680137128 0.0384648927
v 0.67328614 -0.0939660892 0.0581760518
v 0.665673494 -0.0939660892 0.0581760518
v 0.665673494 -0.041664429 -0.0223029945
v 0.678716898 0.0106314821 -0.0337560102
v 0.665673494 0.0106314821 -0.0337560102
v 0.678716898 -0.041664429 -0.0223029945
v 0.678716898 -0.0899232849 -0.000869686017
v 0.665673494 -0.0899232849 -0.000869685377
v 0.678716898 -0.126564115 0.0245398879
v 0.665673494 -0.126564115 0.0245398898
v 0.67328614 -0.0680137128 0.0384648927
v 0.678716898 -0.126564115 0.0245398879
v 0.67328614 -0.0939660892 0.0581760518
v 0.678716898 -0.0899232849 -0.000869686017
v 0.678716898 -0.041664429 -0.0223029945
v 0.67328614 -0.028146578 0.0215677042
v 0.67328614 0.0147840856 0.0136875995
v 0.678716898 0.0106314821 -0.0337560102
v 0.665673494 -0.126564115 0.0245398898
v 0.665673494 -0.0939660892 0.0581760518
v 0.67328614 -0.0939660892 0.0581760518
v 0.678716898 -0.126564115 0.0245398879
v 0.665673494 0.0564508624 -0.0499506332
v 0.680471778 0.0466642566 -0.0453670211
v 0.680471778 0.0564508624 -0.0499506332
v 0.665673494 0.0466642566 -0.0453670211
v 0.665673494 0.00625369651 -0.0407114215
v 0.680471778 0.00625369605 -0.0407114215
v 0.665673494 0.024259815 0.0195959136
v 0.680471778 0.0434759893 0.0213433504
v 0.680471778 0.0237124264 0.0194854531
v 0.665673494 0.0434759893 0.0213433504
v 0.665673494 0.0476821512 0.0256537702
v 0.680471778 0.0476821512 0.0256537702
v 0.665673494 0.0568307303 0.0278309714
v 0.680471778 0.0568219349 0.027704902
v 0.680471778 0.0434759893 0.0213433504
v 0.680471778 0.00625369605 -0.0407114215
v 0.680471778 0.0237124264 0.0194854531
v 0.680471778 0.0466642566 -0.0453670211
v 0.680471778 0.0476821512 0.0256537702
v 0.680471778 0.0564508624 -0.0499506332
v 0.680471778 0.0568219349 0.027704902
v 0.680471778 0.0564508624 -0.0499506332
v 0.680471778 0.0568219349 0.027704902
v 0.665673494 0.0568307303 0.0278309714
v 0.665673494 0.0564508624 -0.0499506332
v 0.667728424 0.113665104 -0.107324578
v 0.663618624 0.113665104 -0.107324578
v 0.663618624 0.108148098 -0.12855275
v 0.667728424 0.108148098 -0.12855275
v 0.663618624 0.0994414017 -0.104139417
v 0.663618624 0.113665104 -0.107324578
v 0.667728424 0.113665104 -0.107324578
v 0.667728424 0.0994414017 -0.104139417
v 0.665673494 0.0261718854 0.0227447599
v 0.665673494 0.00612509344 -0.0446494818
v 0.681102872 0.00612509297 -0.0446494818
v 0.679242671 0.026064042 0.0223824773
v 0.684673846 0.024778204 0.018064348
v 0.68495971 0.00722460961 -0.0409526639
v 0.679242671 0.0147991506 0.0257357918
v 0.684673846 0.0135130854 0.0214177277
v 0.68495971 -0.00404060911 -0.0375992469
v 0.681102872 -0.00514043076 -0.0412959754
v 0.665673494 -0.0051405034 -0.0412959568
v 0.665673494 0.0149069959 0.02609808
v 0.665673494 0.00612509344 -0.0446494818
v 0.665673494 -0.0051405034 -0.0412959568
v 0.681102872 -0.00514043076 -0.0412959754
v 0.681102872 0.00612509297 -0.0446494818
v 0.68495971 -0.00404060911 -0.0375992469
v 0.68495971 0.00722460961 -0.0409526639
v 0.684673846 0.024778204 0.018064348
v 0.684673846 0.0135130854 0.0214177277
v 0.679242671 0.0147991506 0.0257357918
v 0.679242671 0.026064042 0.0223824773
v 0.665673494 0.0149069959 0.02609808
v 0.665673494 0.0261718854 0.0227447599
v 0.676928401 -0.0505677015 -0.108384781
v 0.676928401 -0.0546267405 -0.111430287
v 0.665673494 -0.0546267405 -0.111430287
v 0.665673494 -0.0505677015 -0.108384781
v 0.665673494 -0.0390005633 -0.110124938
v 0.677038252 -0.0388961658 -0.113276325
v 0.665673494 0.00335145486 -0.0855712369
v 0.677038252 -0.000564202492 -0.0918453112
v 0.677150488 0.00335145439 -0.0855712369
v 0.677150488 0.00335143134 -0.0358230621
v 0.665673494 0.00335143204 -0.0358230621
v 0.677038252 -0.0109119834 -0.141336054
v 0.665673494 -0.0330687575 -0.150418609
v 0.677038252 -0.0340898186 -0.148880631
v 0.665673494 -0.0101490635 -0.142948478
v 0.665673494 0.0186509695 -0.126842082
v 0.677038252 0.0179787353 -0.125167206
v 0.665673494 0.0315678082 -0.123406351
v 0.677038252 0.0291945003 -0.122006588
v 0.665673494 0.0556837656 -0.127397731
v 0.677150488 0.0556837656 -0.127397731
v 0.665673494 -0.0546267405 -0.111430287
v 0.676928401 -0.0546267405 -0.111430287
v 0.677038252 -0.0340898186 -0.148880631
v 0.665673494 -0.0330687575 -0.150418609
v 0.676928401 -0.0546267405 -0.111430287
v 0.676928401 -0.0505677015 -0.108384781
v 0.677038252 -0.0388961658 -0.113276325
v 0.677038252 -0.0340898186 -0.148880631
v 0.677038252 -0.0109119834 -0.141336054
v 0.677038252 0.0179787353 -0.125167206
v 0.677038252 -0.000564202492 -0.0918453112
v 0.677038252 0.0291945003 -0.122006588
v 0.677150488 0.0206492841 -0.0879458711
v 0.677150488 0.0314915776 -0.0839450657
v 0.677150488 0.0556837656 -0.127397731
v 0.677150488 0.00962642394 -0.0848847404
v 0.677150488 0.00335145439 -0.0855712369
v 0.677150488 0.0314915739 -0.0480277874
v 0.677150488 0.0556837171 -0.0358230472
v 0.677150488 0.00335143134 -0.0358230621
v 0.677150488 0.00962640531 -0.0480277948
v 0.678390622 0.0549559593 0.031902153
v 0.665673494 0.0496883467 -0.128901541
v 0.665673494 0.0496883132 0.031902153
v 0.678390622 0.0549559928 -0.128901526
v 0.683658302 0.0676731393 0.0319021568
v 0.683658302 0.0676731765 -0.128901526
v 0.678390622 0.0803903565 0.0319021568
v 0.678390622 0.0803903863 -0.128901526
v 0.665673494 0.0856580064 0.0319021605
v 0.665673494 0.0856580362 -0.128901526
v 0.681288421 0.0831976905 0.160887927
v 0.665673494 0.0896655992 0.289889157
v 0.665673494 0.0896656215 0.160887927
v 0.681288421 0.0831976458 0.289889157
v 0.68775636 0.0675827935 0.160887927
v 0.68775636 0.0675827712 0.289889157
v 0.681288421 0.0519678853 0.160887927
v 0.681288421 0.0519678593 0.289889157
v 0.665673494 0.045499973 0.160887927
v 0.665673494 0.0454999432 0.289889157
v 0.681288421 0.0519678593 0.289889157
v 0.665673494 0.0454999432 0.289889157
v 0.68775636 0.0675827712 0.289889157
v 0.681288421 0.0831976458 0.289889157
v 0.665673494 0.0896655992 0.289889157
v 0.675556004 0.0596584007 -0.154276624
v 0.665673494 0.055564981 -0.263706446
v 0.665673494 0.0555649549 -0.154276624
v 0.675556004 0.0596584268 -0.263706446
v 0.679649472 0.0695409104 -0.154276624
v 0.679649472 0.0695409328 -0.263706446
v 0.675556004 0.0794234052 -0.154276609
v 0.675556004 0.0794234276 -0.263706446
v 0.665673494 0.083516866 -0.154276609
v 0.665673494 0.0835168809 -0.263706446
v 0.659558296 0.0204608217 -0.089315623
v 0.659558296 0.00913100969 -0.0709944889
v 0.659558296 0.00913101342 -0.0893155709
v 0.659558296 0.020460818 -0.0747739077
v 0.659558296 0.031790629 -0.0893155709
v 0.659558296 0.0317906253 -0.0709944814
v 0.671788692 0.020460818 -0.0747739077
v 0.671788692 0.00913100876 -0.0709944889
v 0.671788692 0.00913101342 -0.0893155709
v 0.671788692 0.0317906253 -0.0709944814
v 0.671788692 0.0204608217 -0.089315623
v 0.671788692 0.031790629 -0.0893155709
v 0.677150488 0.00962642394 -0.0848847404
v 0.677150488 0.00962640531 -0.0480277948
v 0.665673494 0.00962640624 -0.0480277948
v 0.665673494 0.00962642487 -0.0848847404
v 0.677150488 0.0206492841 -0.0879458711
v 0.665673494 0.0206492841 -0.0879458711
v 0.677150488 0.0314915776 -0.0839450657
v 0.665673494 0.0314915776 -0.0839450657
v 0.677150488 0.0314915739 -0.0480277874
v 0.665673494 0.0314915739 -0.0480277874
v 0.677150488 0.00962640531 -0.0480277948
v 0.677150488 0.0314915739 -0.0480277874
v 0.665673494 0.0314915739 -0.0480277874
v 0.665673494 0.00962640624 -0.0480277948
v 0.671370625 0.0868791565 0.156249046
v 0.665673494 0.0845956951 -0.103650168
v 0.665673494 0.084519349 0.156249046
v 0.671316683 0.0869331732 -0.103650168
v 0.673730433 0.0925762355 0.156249046
v 0.673654139 0.09257631 -0.103650168
v 0.671370625 0.0982733294 0.156249061
v 0.671316683 0.0982194319 -0.103650168
v 0.665673494 0.100633152 0.156249061
v 0.665673494 0.100556917 -0.103650168
v 0.680183172 0.0854498819 -0.257913649
v 0.665673494 0.051290188 -0.257762969
v 0.665673494 0.0914599597 -0.257913649
v 0.685891986 0.0708794743 -0.257913649
v 0.683882296 0.0509075075 -0.257948995
v 0.679205358 0.0420348346 -0.264641821
v 0.665673494 0.0423308276 -0.264450371
v 0.665673494 -0.00507648755 -0.264602065
v 0.677017331 -0.00507648755 -0.264602065
v 0.665673494 0.0914599597 -0.257913649
v 0.665673494 0.0914599672 -0.291557521
v 0.680183172 0.0854498819 -0.291069657
v 0.680183172 0.0854498819 -0.257913649
v 0.685892105 0.0708794817 -0.289880812
v 0.685891986 0.0708794743 -0.257913649
v 0.683882296 0.0509075075 -0.257948995
v 0.683882296 0.050907515 -0.287702024
v 0.679205358 0.0420348346 -0.264641821
v 0.679205358 0.0420348458 -0.28676793
v 0.677017331 -0.00507648382 -0.28183949
v 0.677017331 -0.00507648755 -0.264602065
v 0.677017331 -0.00507648382 -0.28183949
v 0.665673494 -0.00507648382 -0.281915069
v 0.665673494 -0.00507648755 -0.264602065
v 0.677017331 -0.00507648755 -0.264602065
v 0.677017331 -0.00507648382 -0.28183949
v 0.665673494 0.0914599672 -0.291557521
v 0.665673494 -0.00507648382 -0.281915069
v 0.679205358 0.0420348458 -0.28676793
v 0.683882296 0.050907515 -0.287702024
v 0.685892105 0.0708794817 -0.289880812
v 0.680183172 0.0854498819 -0.291069657
v 0.678390622 0.0549559928 -0.128901526
v 0.665673494 0.0433684662 -0.133771554
v 0.665673494 0.0496883467 -0.128901541
v 0.682618082 0.0503871702 -0.133771554
v 0.665673494 0.0433103554 -0.162798733
v 0.683658302 0.0676731765 -0.128901526
v 0.682659268 0.0503459759 -0.162798733
v 0.689636886 0.0673318654 -0.133771613
v 0.689700127 0.0673104823 -0.162798494
v 0.678390622 0.0803903863 -0.128901526
v 0.686904609 0.0787458941 -0.153248161
v 0.676552713 0.102494836 -0.162797943
v 0.682427824 0.0845076516 -0.133770794
v 0.676552713 0.102494828 -0.153247803
v 0.665673494 0.109709263 -0.162797943
v 0.665673494 0.109709248 -0.128338158
v 0.676072836 0.0890356824 -0.133770794
v 0.671634674 0.0831226334 -0.12885569
v 0.676150501 0.0890523717 -0.153247803
v 0.677130103 0.0931412503 -0.128338158
v 0.674494028 0.104445189 -0.128338158
v 0.665673494 0.100556917 -0.103650168
v 0.671316683 0.0982194319 -0.103650168
v 0.673654139 0.09257631 -0.103650168
v 0.671316683 0.0869331732 -0.103650168
v 0.665673494 0.0845956951 -0.103650168
v 0.689700127 0.0673104823 -0.162798494
v 0.665673494 0.0433103554 -0.162798733
v 0.682659268 0.0503459759 -0.162798733
v 0.665673494 0.109709263 -0.162797943
v 0.676552713 0.102494836 -0.162797943
v 0.673373222 0.118591219 0.156305656
v 0.665673494 0.122901104 0.156305656
v 0.665673494 0.122901104 0.167740822
v 0.673373222 0.118591219 0.167740822
v 0.673561454 0.110690601 0.156305656
v 0.673561454 0.110690594 0.167740822
v 0.668745399 0.105993561 0.167740822
v 0.668745399 0.105993561 0.156305641
v 0.665673494 0.105993561 0.156305641
v 0.665673494 0.105993561 0.167740822
v 0.665673494 0.0411914811 0.167740777
v 0.692064822 0.0675827935 0.167740777
v 0.684334993 0.0489213392 0.167740777
v 0.684334993 0.0862442479 0.167740777
v 0.670722783 0.10344857 0.167740822
v 0.665673494 0.105993561 0.167740822
v 0.668745399 0.105993561 0.167740822
v 0.67618984 0.109007783 0.167740822
v 0.673561454 0.110690594 0.167740822
v 0.676003575 0.119630516 0.167740822
v 0.673373222 0.118591219 0.167740822
v 0.665673494 0.12606211 0.167740837
v 0.665673494 0.122901104 0.167740822
v 0.676003575 0.119630516 0.156305656
v 0.665673494 0.12606211 0.156305671
v 0.665673494 0.122901104 0.156305656
v 0.673373222 0.118591219 0.156305656
v 0.67618984 0.109007783 0.156305656
v 0.673561454 0.110690601 0.156305656
v 0.670722783 0.10344857 0.156305641
v 0.668745399 0.105993561 0.156305641
v 0.665673494 0.105993561 0.156305641
v 0.665673494 0.0939740911 0.156305656
v 0.684334993 0.0862442553 0.156305656
v 0.665673494 0.12606211 0.156305671
v 0.676003575 0.119630516 0.167740822
v 0.665673494 0.12606211 0.167740837
v 0.676003575 0.119630516 0.156305656
v 0.67618984 0.109007783 0.167740822
v 0.67618984 0.109007783 0.156305656
v 0.670722783 0.10344857 0.156305641
v 0.670722783 0.10344857 0.167740822
v 0.684334993 0.0862442479 0.167740777
v 0.684334993 0.0862442553 0.156305656
v 0.692064822 0.0675827935 0.167740777
v 0.692064822 0.0675828233 0.0319129489
v 0.684334993 0.0862442777 0.0319129527
v 0.665673494 0.0939741284 0.0319129564
v 0.665673494 0.0939740911 0.156305656
v 0.684334993 0.048921369 0.0319129489
v 0.684334993 0.0489213392 0.167740777
v 0.665673494 0.0411915109 0.0319129452
v 0.665673494 0.0411914811 0.167740777
v 0.692064822 0.0675828233 0.0319129489
v 0.665673494 0.0411915109 0.0319129452
v 0.684334993 0.048921369 0.0319129489
v 0.684334993 0.0862442777 0.0319129527
v 0.665673494 0.0939741284 0.0319129564
v 0.665673494 0.0147840865 0.0136875995
v 0.658060908 -0.028146578 0.0215677042
v 0.658060908 0.0147840874 0.0136875995
v 0.665673494 -0.028146578 0.0215677042
v 0.658060908 -0.0680137128 0.0384648927
v 0.665673494 -0.0680137128 0.0384648927
v 0.658060908 -0.0939660892 0.0581760518
v 0.665673494 -0.0939660892 0.0581760518
v 0.665673494 -0.041664429 -0.0223029945
v 0.665673494 0.0106314821 -0.0337560102
v 0.65263015 0.010631484 -0.0337560102
v 0.65263015 -0.041664429 -0.0223029945
v 0.65263015 -0.0899232849 -0.00086968462
v 0.665673494 -0.0899232849 -0.000869685377
v 0.65263015 -0.126564115 0.0245398991
v 0.665673494 -0.126564115 0.0245398898
v 0.658060908 -0.0680137128 0.0384648927
v 0.658060908 -0.0939660892 0.0581760518
v 0.65263015 -0.126564115 0.0245398991
v 0.65263015 -0.0899232849 -0.00086968462
v 0.65263015 -0.041664429 -0.0223029945
v 0.658060908 -0.028146578 0.0215677042
v 0.658060908 0.0147840874 0.0136875995
v 0.65263015 0.010631484 -0.0337560102
v 0.665673494 -0.126564115 0.0245398898
v 0.65263015 -0.126564115 0.0245398991
v 0.658060908 -0.0939660892 0.0581760518
v 0.665673494 -0.0939660892 0.0581760518
v 0.665673494 0.0564508624 -0.0499506332
v 0.650875211 0.0564508624 -0.0499506332
v 0.650875211 0.0466642566 -0.0453670211
v 0.665673494 0.0466642566 -0.0453670211
v 0.665673494 0.00625369651 -0.0407114215
v 0.650875211 0.00625369791 -0.0407114215
v 0.665673494 0.024259815 0.0195959136
v 0.650875211 0.0237124264 0.0194854531
v 0.650875211 0.0434759893 0.0213433504
v 0.665673494 0.0434759893 0.0213433504
v 0.665673494 0.0476821512 0.0256537702
v 0.650875211 0.0476821512 0.0256537702
v 0.665673494 0.0568307303 0.0278309714
v 0.650875211 0.0568219349 0.027704902
v 0.650875211 0.0434759893 0.0213433504
v 0.650875211 0.0237124264 0.0194854531
v 0.650875211 0.00625369791 -0.0407114215
v 0.650875211 0.0466642566 -0.0453670211
v 0.650875211 0.0476821512 0.0256537702
v 0.650875211 0.0564508624 -0.0499506332
v 0.650875211 0.0568219349 0.027704902
v 0.650875211 0.0564508624 -0.0499506332
v 0.665673494 0.0564508624 -0.0499506332
v 0.665673494 0.0568307303 0.0278309714
v 0.650875211 0.0568219349 0.027704902
v 0.665673494 0.0261718854 0.0227447599
v 0.650244117 0.00612509437 -0.0446494818
v 0.665673494 0.00612509344 -0.0446494818
v 0.652104378 0.026064042 0.0223824773
v 0.646673203 0.024778204 0.018064348
v 0.646387219 0.00722461101 -0.0409526639
v 0.652104378 0.0147991525 0.0257357918
v 0.646387219 -0.00404060818 -0.0375992469
v 0.646673203 0.0135130864 0.0214177277
v 0.650244117 -0.00514042797 -0.0412959754
v 0.665673494 -0.0051405034 -0.0412959568
v 0.665673494 0.0149069959 0.02609808
v 0.665673494 0.00612509344 -0.0446494818
v 0.650244117 -0.00514042797 -0.0412959754
v 0.665673494 -0.0051405034 -0.0412959568
v 0.650244117 0.00612509437 -0.0446494818
v 0.646387219 -0.00404060818 -0.0375992469
v 0.646387219 0.00722461101 -0.0409526639
v 0.646673203 0.024778204 0.018064348
v 0.646673203 0.0135130864 0.0214177277
v 0.652104378 0.0147991525 0.0257357918
v 0.652104378 0.026064042 0.0223824773
v 0.665673494 0.0149069959 0.02609808
v 0.665673494 0.0261718854 0.0227447599
v 0.654418647 -0.0505677015 -0.108384781
v 0.665673494 -0.0546267405 -0.111430287
v 0.654418647 -0.0546267405 -0.111430287
v 0.665673494 -0.0505677015 -0.108384781
v 0.665673494 -0.0390005633 -0.110124938
v 0.654308736 -0.0388961658 -0.113276325
v 0.665673494 0.00335145486 -0.0855712369
v 0.654308736 -0.000564201095 -0.0918453112
v 0.654196441 0.00335145555 -0.0855712369
v 0.654196441 0.00335143227 -0.0358230621
v 0.665673494 0.00335143204 -0.0358230621
v 0.654308736 -0.0109119834 -0.141336054
v 0.654308736 -0.0340898186 -0.148880631
v 0.665673494 -0.0330687575 -0.150418609
v 0.665673494 -0.0101490635 -0.142948478
v 0.665673494 0.0186509695 -0.126842082
v 0.654308736 0.0179787353 -0.125167206
v 0.665673494 0.0315678082 -0.123406351
v 0.654308736 0.0291945003 -0.122006588
v 0.665673494 0.0556837656 -0.127397731
v 0.654196441 0.0556837656 -0.127397731
v 0.665673494 -0.0546267405 -0.111430287
v 0.665673494 -0.0330687575 -0.150418609
v 0.654308736 -0.0340898186 -0.148880631
v 0.654418647 -0.0546267405 -0.111430287
v 0.654418647 -0.0546267405 -0.111430287
v 0.654308736 -0.0388961658 -0.113276325
v 0.654418647 -0.0505677015 -0.108384781
v 0.654308736 -0.0340898186 -0.148880631
v 0.654308736 -0.0109119834 -0.141336054
v 0.654308736 0.0179787353 -0.125167206
v 0.654308736 -0.000564201095 -0.0918453112
v 0.654308736 0.0291945003 -0.122006588
v 0.654196441 0.0206492841 -0.0879458711
v 0.654196441 0.0314915776 -0.0839450657
v 0.654196441 0.0556837656 -0.127397731
v 0.654196441 0.0096264258 -0.0848847404
v 0.654196441 0.00335145555 -0.0855712369
v 0.654196441 0.0314915739 -0.0480277874
v 0.654196441 0.0556837171 -0.0358230472
v 0.654196441 0.00335143227 -0.0358230621
v 0.654196441 0.00962640718 -0.0480277948
v 0.652956307 0.0549559593 0.031902153
v 0.665673494 0.0496883132 0.031902153
v 0.665673494 0.0496883467 -0.128901541
v 0.652956307 0.0549559928 -0.128901526
v 0.647688687 0.0676731393 0.0319021568
v 0.647688687 0.0676731765 -0.128901526
v 0.652956307 0.0803903565 0.0319021568
v 0.652956307 0.0803903863 -0.128901526
v 0.665673494 0.0856580064 0.0319021605
v 0.665673494 0.0856580362 -0.128901526
v 0.650058568 0.0831976905 0.160887927
v 0.665673494 0.0896656215 0.160887927
v 0.665673494 0.0896655992 0.289889157
v 0.650058568 0.0831976458 0.289889157
v 0.643590689 0.0675827935 0.160887927
v 0.643590689 0.0675827712 0.289889157
v 0.650058568 0.0519678853 0.160887927
v 0.650058568 0.0519678593 0.289889157
v 0.665673494 0.045499973 0.160887927
v 0.665673494 0.0454999432 0.289889157
v 0.650058568 0.0519678593 0.289889157
v 0.643590689 0.0675827712 0.289889157
v 0.665673494 0.0454999432 0.289889157
v 0.650058568 0.0831976458 0.289889157
v 0.665673494 0.0896655992 0.289889157
v 0.655790985 0.0596584007 -0.154276624
v 0.665673494 0.0555649549 -0.154276624
v 0.665673494 0.055564981 -0.263706446
v 0.655790985 0.0596584268 -0.263706446
v 0.651697516 0.0695409104 -0.154276624
v 0.651697516 0.0695409328 -0.263706446
v 0.655790985 0.0794234052 -0.154276609
v 0.655790985 0.0794234276 -0.263706446
v 0.665673494 0.083516866 -0.154276609
v 0.665673494 0.0835168809 -0.263706446
v 0.654196441 0.0096264258 -0.0848847404
v 0.665673494 0.00962640624 -0.0480277948
v 0.654196441 0.00962640718 -0.0480277948
v 0.665673494 0.00962642487 -0.0848847404
v 0.654196441 0.0206492841 -0.0879458711
v 0.665673494 0.0206492841 -0.0879458711
v 0.654196441 0.0314915776 -0.0839450657
v 0.665673494 0.0314915776 -0.0839450657
v 0.654196441 0.0314915739 -0.0480277874
v 0.665673494 0.0314915739 -0.0480277874
v 0.654196441 0.00962640718 -0.0480277948
v 0.665673494 0.00962640624 -0.0480277948
v 0.665673494 0.0314915739 -0.0480277874
v 0.654196441 0.0314915739 -0.0480277874
v 0.659976482 0.0868791565 0.156249046
v 0.665673494 0.084519349 0.156249046
v 0.665673494 0.0845956951 -0.103650168
v 0.660030365 0.0869331732 -0.103650168
v 0.657616556 0.0925762355 0.156249046
v 0.65769285 0.09257631 -0.103650168
v 0.659976482 0.0982733294 0.156249061
v 0.660030365 0.0982194319 -0.103650168
v 0.665673494 0.100633152 0.156249061
v 0.665673494 0.100556917 -0.103650168
v 0.651163757 0.0854498819 -0.257913649
v 0.665673494 0.0914599597 -0.257913649
v 0.665673494 0.051290188 -0.257762969
v 0.645454943 0.0708794743 -0.257913649
v 0.647464752 0.0509075075 -0.257948995
v 0.652141631 0.0420348346 -0.264641821
v 0.665673494 0.0423308276 -0.264450371
v 0.665673494 -0.00507648755 -0.264602065
v 0.654329598 -0.00507648755 -0.264602065
v 0.665673494 0.0914599597 -0.257913649
v 0.651163757 0.0854498819 -0.291069657
v 0.665673494 0.0914599672 -0.291557521
v 0.651163757 0.0854498819 -0.257913649
v 0.645454943 0.0708794817 -0.289880812
v 0.645454943 0.0708794743 -0.257913649
v 0.647464752 0.0509075075 -0.257948995
v 0.647464752 0.050907515 -0.287702024
v 0.652141631 0.0420348346 -0.264641821
v 0.652141631 0.0420348458 -0.28676793
v 0.654329598 -0.0050764638 -0.28183949
v 0.654329598 -0.00507648755 -0.264602065
v 0.654329598 -0.0050764638 -0.28183949
v 0.654329598 -0.00507648755 -0.264602065
v 0.665673494 -0.00507648755 -0.264602065
v 0.665673494 -0.00507648382 -0.281915069
v 0.654329598 -0.0050764638 -0.28183949
v 0.665673494 -0.00507648382 -0.281915069
v 0.665673494 0.0914599672 -0.291557521
v 0.652141631 0.0420348458 -0.28676793
v 0.647464752 0.050907515 -0.287702024
v 0.645454943 0.0708794817 -0.289880812
v 0.651163757 0.0854498819 -0.291069657
v 0.652956307 0.0549559928 -0.128901526
v 0.665673494 0.0496883467 -0.128901541
v 0.665673494 0.0433684662 -0.133771554
v 0.648728907 0.0503871888 -0.133771554
v 0.665673494 0.0433103554 -0.162798733
v 0.647688687 0.0676731765 -0.128901526
v 0.64868772 0.0503459759 -0.162798733
v 0.641710103 0.0673318654 -0.133771613
v 0.641646862 0.0673104823 -0.162798494
v 0.652956307 0.0803903863 -0.128901526
v 0.644442439 0.0787459165 -0.153248161
v 0.654794276 0.102494836 -0.162797943
v 0.648919225 0.0845076516 -0.133770794
v 0.654794276 0.102494858 -0.153247803
v 0.665673494 0.109709263 -0.162797943
v 0.665673494 0.109709248 -0.128338158
v 0.655274212 0.0890356824 -0.133770794
v 0.659712374 0.0831226334 -0.12885569
v 0.655196548 0.0890523866 -0.153247803
v 0.654216886 0.0931412503 -0.128338158
v 0.65685302 0.104445189 -0.128338158
v 0.665673494 0.100556917 -0.103650168
v 0.660030365 0.0982194319 -0.103650168
v 0.65769285 0.09257631 -0.103650168
v 0.660030365 0.0869331732 -0.103650168
v 0.665673494 0.0845956951 -0.103650168
v 0.641646862 0.0673104823 -0.162798494
v 0.64868772 0.0503459759 -0.162798733
v 0.665673494 0.0433103554 -0.162798733
v 0.665673494 0.109709263 -0.162797943
v 0.654794276 0.102494836 -0.162797943
v 0.657973766 0.118591219 0.156305656
v 0.665673494 0.122901104 0.167740822
v 0.665673494 0.122901104 0.156305656
v 0.657973766 0.118591219 0.167740822
v 0.657785654 0.110690601 0.156305656
v 0.657785654 0.110690594 0.167740822
v 0.66260159 0.105993561 0.167740822
v 0.66260159 0.105993561 0.156305641
v 0.665673494 0.105993561 0.156305641
v 0.665673494 0.105993561 0.167740822
v 0.665673494 0.0411914811 0.167740777
v 0.647011995 0.0489213392 0.167740777
v 0.639282227 0.0675827935 0.167740777
v 0.647011995 0.0862442479 0.167740777
v 0.660624206 0.10344857 0.167740822
v 0.665673494 0.105993561 0.167740822
v 0.66260159 0.105993561 0.167740822
v 0.655157208 0.109007783 0.167740822
v 0.657785654 0.110690594 0.167740822
v 0.655343473 0.119630516 0.167740822
v 0.657973766 0.118591219 0.167740822
v 0.665673494 0.12606211 0.167740837
v 0.665673494 0.122901104 0.167740822
v 0.655343473 0.119630516 0.156305656
v 0.665673494 0.122901104 0.156305656
v 0.665673494 0.12606211 0.156305671
v 0.657973766 0.118591219 0.156305656
v 0.655157208 0.109007783 0.156305656
v 0.657785654 0.110690601 0.156305656
v 0.660624206 0.10344857 0.156305641
v 0.66260159 0.105993561 0.156305641
v 0.665673494 0.105993561 0.156305641
v 0.665673494 0.0939740911 0.156305656
v 0.647011995 0.0862442553 0.156305656
v 0.665673494 0.12606211 0.156305671
v 0.665673494 0.12606211 0.167740837
v 0.655343473 0.119630516 0.167740822
v 0.655343473 0.119630516 0.156305656
v 0.655157208 0.109007783 0.167740822
v 0.655157208 0.109007783 0.156305656
v 0.660624206 0.10344857 0.156305641
v 0.660624206 0.10344857 0.167740822
v 0.647011995 0.0862442479 0.167740777
v 0.647011995 0.0862442553 0.156305656
v 0.639282227 0.0675827935 0.167740777
v 0.639282227 0.0675828233 0.0319129489
v 0.647011995 0.0862442777 0.0319129527
v 0.665673494 0.0939741284 0.0319129564
v 0.665673494 0.0939740911 0.156305656
v 0.647011995 0.048921369 0.0319129489
v 0.647011995 0.0489213392 0.167740777
v 0.665673494 0.0411915109 0.0319129452
v 0.665673494 0.0411914811 0.167740777
v 0.639282227 0.0675828233 0.0319129489
v 0.647011995 0.048921369 0.0319129489
v 0.665673494 0.0411915109 0.0319129452
v 0.647011995 0.0862442777 0.0319129527
v 0.665673494 0.0939741284 0.0319129564
vt 0.650878906 0.341064453
vt 0.626464844 0.302978516
vt 0.5703125 0.341064453
vt 0.59375 0.530273438
vt 0.617675781 0.491943359
vt 0.537109375 0.491943359
vt 0.710449219 0.423339844
vt 0.733886719 0.423339844
vt 0.733886719 0.287841797
vt 0.710449219 0.287841797
vt 0.733886719 0.153564453
vt 0.710449219 0.153564453
vt 0.733886719 0.0523681641
vt 0.710449219 0.0523681641
vt 0.177490234 0.310791016
vt 0.137084961 0.477050781
vt 0.177490234 0.477050781
vt 0.136962891 0.310791016
vt 0.136962891 0.146972656
vt 0.177490234 0.146972656
vt 0.136962891 0.00865936279
vt 0.177490234 0.0086517334
vt 0.185791016 0.127319336
vt 0.329345703 0.00798034668
vt 0.185791016 0.00798034668
vt 0.329345703 0.127319336
vt 0.329345703 0.275878906
vt 0.185791016 0.275878906
vt 0.185791016 0.426269531
vt 0.329345703 0.426269531
vt 0.666992188 0.580566406
vt 0.8125 0.580566406
vt 0.8125 0.548828125
vt 0.666992188 0.548828125
vt 0.8125 0.494140625
vt 0.778808594 0.540039062
vt 0.8125 0.540039062
vt 0.778808594 0.494140625
vt 0.65234375 0.494140625
vt 0.65234375 0.540039062
vt 0.702636719 0.479003906
vt 0.656738281 0.418212891
vt 0.656738281 0.479003906
vt 0.702636719 0.418212891
vt 0.702636719 0.399414062
vt 0.656738281 0.399414062
vt 0.702636719 0.370361328
vt 0.656738281 0.370361328
vt 0.569335938 0.398193359
vt 0.364990234 0.511230469
vt 0.559082031 0.4609375
vt 0.364990234 0.386474609
vt 0.583007812 0.384765625
vt 0.364990234 0.355712891
vt 0.590332031 0.355712891
vt 0.991210938 0.438476562
vt 0.719726562 0.438476562
vt 0.719726562 0.484375
vt 0.991210938 0.484375
vt 0.341064453 0.418457031
vt 0.354003906 0.418457031
vt 0.354003906 0.350341797
vt 0.341064453 0.350341797
vt 0.634277344 0.129150391
vt 0.634277344 0.174316406
vt 0.646972656 0.174316406
vt 0.646972656 0.129150391
vt 0.299072266 0.434814453
vt 0.299072266 0.647460938
vt 0.343017578 0.647460938
vt 0.343017578 0.434814453
vt 0.357177734 0.448974609
vt 0.357177734 0.635742188
vt 0.244873047 0.434814453
vt 0.230712891 0.448974609
vt 0.230712891 0.635742188
vt 0.244873047 0.647460938
vt 0.288818359 0.647460938
vt 0.288818359 0.434814453
vt 0.175048828 0.485351562
vt 0.138549805 0.485351562
vt 0.138549805 0.533203125
vt 0.175048828 0.533203125
vt 0.138549805 0.550292969
vt 0.175048828 0.550292969
vt 0.175048828 0.741210938
vt 0.138549805 0.741210938
vt 0.138549805 0.763183594
vt 0.175048828 0.763183594
vt 0.138549805 0.805175781
vt 0.175048828 0.805175781
vt 0.0925292969 0.349609375
vt 0.0925292969 0.364746094
vt 0.129150391 0.364746094
vt 0.129150391 0.348632812
vt 0.129150391 0.310791016
vt 0.0925292969 0.312011719
vt 0.129150391 0.158325195
vt 0.0925292969 0.17956543
vt 0.0925292969 0.157348633
vt 0.0925292969 0.00827789307
vt 0.129150391 0.00827789307
vt 0.0925292969 0.5859375
vt 0.129150391 0.514160156
vt 0.0925292969 0.514160156
vt 0.129150391 0.586425781
vt 0.129150391 0.686523438
vt 0.0925292969 0.686035156
vt 0.129150391 0.728027344
vt 0.0925292969 0.721191406
vt 0.129150391 0.803222656
vt 0.0925292969 0.803222656
vt 0.129150391 0.373779297
vt 0.0925292969 0.373779297
vt 0.0925292969 0.50390625
vt 0.129150391 0.50390625
vt 0.241210938 0.652832031
vt 0.231811523 0.665527344
vt 0.246948242 0.708984375
vt 0.356933594 0.708984375
vt 0.333496094 0.787597656
vt 0.283691406 0.876953125
vt 0.180664062 0.819824219
vt 0.273925781 0.915039062
vt 0.168701172 0.885253906
vt 0.15625 0.915039062
vt 0.290527344 0.993652344
vt 0.16027832 0.851074219
vt 0.16027832 0.83203125
vt 0.0453796387 0.915039062
vt 0.00769805908 0.993652344
vt 0.00769805908 0.83203125
vt 0.0453796387 0.851074219
vt 0.949707031 0.491699219
vt 0.9921875 0.990722656
vt 0.9921875 0.491699219
vt 0.949707031 0.990722656
vt 0.906738281 0.491699219
vt 0.906738281 0.990722656
vt 0.864257812 0.491699219
vt 0.864257812 0.990722656
vt 0.821289062 0.491699219
vt 0.821289062 0.990722656
vt 0.654785156 0.98828125
vt 0.602050781 0.587890625
vt 0.602050781 0.98828125
vt 0.654785156 0.587890625
vt 0.70703125 0.98828125
vt 0.70703125 0.587890625
vt 0.759277344 0.98828125
vt 0.759277344 0.587890625
vt 0.812011719 0.98828125
vt 0.812011719 0.587890625
vt 0.599609375 0.470458984
vt 0.6484375 0.490478516
vt 0.579589844 0.422119141
vt 0.599609375 0.373535156
vt 0.6484375 0.353515625
vt 0.530761719 0.00843048096
vt 0.563964844 0.347900391
vt 0.563964844 0.00843048096
vt 0.530761719 0.347900391
vt 0.497802734 0.00842285156
vt 0.497802734 0.347900391
vt 0.464599609 0.00842285156
vt 0.464599609 0.347900391
vt 0.431396484 0.00841522217
vt 0.431396484 0.347900391
vt 0.411621094 0.880371094
vt 0.375488281 0.813964844
vt 0.375488281 0.880371094
vt 0.411621094 0.813964844
vt 0.447753906 0.880371094
vt 0.447753906 0.813964844
vt 0.411621094 0.764648438
vt 0.375488281 0.764648438
vt 0.375488281 0.698242188
vt 0.447753906 0.764648438
vt 0.411621094 0.698242188
vt 0.447753906 0.698242188
vt 0.185668945 0.619628906
vt 0.185668945 0.733886719
vt 0.221191406 0.733886719
vt 0.221191406 0.619628906
vt 0.185668945 0.583984375
vt 0.221191406 0.583984375
vt 0.185668945 0.548339844
vt 0.221191406 0.548339844
vt 0.185668945 0.436767578
vt 0.221191406 0.436767578
vt 0.620605469 0.0518188477
vt 0.620605469 0.119689941
vt 0.65625 0.119689941
vt 0.65625 0.0518188477
vt 0.0639038086 0.00759887695
vt 0.0823364258 0.813964844
vt 0.0823364258 0.00759887695
vt 0.0639038086 0.813964844
vt 0.045501709 0.00759887695
vt 0.045501709 0.813964844
vt 0.0270843506 0.00759887695
vt 0.0270843506 0.813964844
vt 0.00866699219 0.00759887695
vt 0.00866699219 0.813964844
vt 0.618652344 0.296630859
vt 0.573730469 0.189697266
vt 0.573730469 0.315429688
vt 0.633300781 0.251464844
vt 0.633300781 0.189697266
vt 0.612304688 0.155029297
vt 0.573730469 0.155029297
vt 0.573730469 0.00791931152
vt 0.612304688 0.00791931152
vt 0.338134766 0.333251953
vt 0.422363281 0.333251953
vt 0.422363281 0.286865234
vt 0.338134766 0.286865234
vt 0.422363281 0.240478516
vt 0.338134766 0.240478516
vt 0.338134766 0.180908203
vt 0.422363281 0.180908203
vt 0.338134766 0.148193359
vt 0.422363281 0.148193359
vt 0.422363281 0.00839233398
vt 0.338134766 0.00839233398
vt 0.342773438 0.654296875
vt 0.342773438 0.689453125
vt 0.396240234 0.689453125
vt 0.396240234 0.654296875
vt 0.666015625 0.0518188477
vt 0.701171875 0.352783203
vt 0.701171875 0.0518188477
vt 0.659179688 0.198730469
vt 0.64453125 0.22644043
vt 0.638183594 0.288818359
vt 0.65625 0.334228516
vt 0.458740234 0.758789062
vt 0.486083984 0.692382812
vt 0.458740234 0.692382812
vt 0.487548828 0.755371094
vt 0.594238281 0.692382812
vt 0.458740234 0.814453125
vt 0.594238281 0.750488281
vt 0.486816406 0.814941406
vt 0.594238281 0.81640625
vt 0.458740234 0.868164062
vt 0.559082031 0.856933594
vt 0.594238281 0.947265625
vt 0.483642578 0.875976562
vt 0.559570312 0.946777344
vt 0.594238281 0.991699219
vt 0.470947266 0.991699219
vt 0.48046875 0.904785156
vt 0.458740234 0.888671875
vt 0.543457031 0.903320312
vt 0.464111328 0.922363281
vt 0.469238281 0.959472656
vt 0.373046875 0.991699219
vt 0.373046875 0.960449219
vt 0.373046875 0.938964844
vt 0.373046875 0.917480469
vt 0.373046875 0.896484375
vt 0.447021484 0.661621094
vt 0.364501953 0.579101562
vt 0.388671875 0.637207031
vt 0.592285156 0.579101562
vt 0.567871094 0.616210938
vt 0.120117188 0.900390625
vt 0.147460938 0.900390625
vt 0.147460938 0.864746094
vt 0.120117188 0.864746094
vt 0.0955810547 0.900390625
vt 0.0955810547 0.864746094
vt 0.0747070312 0.864746094
vt 0.0747070312 0.900390625
vt 0.0651855469 0.900390625
vt 0.0651855469 0.864746094
vt 0.398193359 0.570800781
vt 0.479980469 0.489013672
vt 0.422119141 0.513183594
vt 0.538085938 0.513183594
vt 0.591308594 0.555175781
vt 0.599121094 0.570800781
vt 0.599121094 0.561523438
vt 0.608398438 0.538085938
vt 0.613769531 0.546386719
vt 0.641601562 0.5390625
vt 0.638183594 0.546875
vt 0.661621094 0.570800781
vt 0.651855469 0.570800781
vt 0.491455078 0.650878906
vt 0.471923828 0.683105469
vt 0.481689453 0.683105469
vt 0.494628906 0.659179688
vt 0.524414062 0.650390625
vt 0.519042969 0.658691406
vt 0.541015625 0.667480469
vt 0.533203125 0.673339844
vt 0.533691406 0.683105469
vt 0.5703125 0.683105469
vt 0.594726562 0.625
vt 0.643066406 0.0437011719
vt 0.680175781 0.00737380981
vt 0.643066406 0.00737380981
vt 0.680175781 0.0437011719
vt 0.712890625 0.00737380981
vt 0.712890625 0.0437011719
vt 0.737304688 0.0437011719
vt 0.737304688 0.00737380981
vt 0.8046875 0.00737380981
vt 0.8046875 0.0437011719
vt 0.866699219 0.00737380981
vt 0.866699219 0.431640625
vt 0.8046875 0.431640625
vt 0.7421875 0.431640625
vt 0.7421875 0.0502929688
vt 0.929199219 0.431640625
vt 0.929199219 0.00737380981
vt 0.991699219 0.431640625
vt 0.991699219 0.00737380981
vt 0.28125 0.911621094
vt 0.363037109 0.829589844
vt 0.305175781 0.853515625
vt 0.305175781 0.969238281
vt 0.363037109 0.993164062
vt 0.710449219 0.423339844
vt 0.733886719 0.287841797
vt 0.733886719 0.423339844
vt 0.710449219 0.287841797
vt 0.733886719 0.153564453
vt 0.710449219 0.153564453
vt 0.733886719 0.0523681641
vt 0.710449219 0.0523681641
vt 0.177490234 0.310791016
vt 0.177490234 0.477050781
vt 0.137084961 0.477050781
vt 0.136962891 0.310791016
vt 0.136962891 0.146972656
vt 0.177490234 0.146972656
vt 0.136962891 0.00865936279
vt 0.177490234 0.0086517334
vt 0.185791016 0.127319336
vt 0.185791016 0.00798034668
vt 0.329345703 0.00798034668
vt 0.329345703 0.127319336
vt 0.329345703 0.275878906
vt 0.185791016 0.275878906
vt 0.185791016 0.426269531
vt 0.329345703 0.426269531
vt 0.666992188 0.580566406
vt 0.666992188 0.548828125
vt 0.8125 0.548828125
vt 0.8125 0.580566406
vt 0.8125 0.494140625
vt 0.8125 0.540039062
vt 0.778808594 0.540039062
vt 0.778808594 0.494140625
vt 0.65234375 0.494140625
vt 0.65234375 0.540039062
vt 0.702636719 0.479003906
vt 0.656738281 0.479003906
vt 0.656738281 0.418212891
vt 0.702636719 0.418212891
vt 0.702636719 0.399414062
vt 0.656738281 0.399414062
vt 0.702636719 0.370361328
vt 0.656738281 0.370361328
vt 0.569335938 0.398193359
vt 0.559082031 0.4609375
vt 0.364990234 0.511230469
vt 0.364990234 0.386474609
vt 0.583007812 0.384765625
vt 0.364990234 0.355712891
vt 0.590332031 0.355712891
vt 0.991210938 0.438476562
vt 0.991210938 0.484375
vt 0.719726562 0.484375
vt 0.719726562 0.438476562
vt 0.299072266 0.434814453
vt 0.343017578 0.647460938
vt 0.299072266 0.647460938
vt 0.343017578 0.434814453
vt 0.357177734 0.448974609
vt 0.357177734 0.635742188
vt 0.244873047 0.434814453
vt 0.230712891 0.635742188
vt 0.230712891 0.448974609
vt 0.244873047 0.647460938
vt 0.288818359 0.647460938
vt 0.288818359 0.434814453
vt 0.175048828 0.485351562
vt 0.138549805 0.533203125
vt 0.138549805 0.485351562
vt 0.175048828 0.533203125
vt 0.138549805 0.550292969
vt 0.175048828 0.550292969
vt 0.175048828 0.741210938
vt 0.138549805 0.741210938
vt 0.138549805 0.763183594
vt 0.175048828 0.763183594
vt 0.138549805 0.805175781
vt 0.175048828 0.805175781
vt 0.0925292969 0.349609375
vt 0.129150391 0.364746094
vt 0.0925292969 0.364746094
vt 0.129150391 0.348632812
vt 0.129150391 0.310791016
vt 0.0925292969 0.312011719
vt 0.129150391 0.158325195
vt 0.0925292969 0.17956543
vt 0.0925292969 0.157348633
vt 0.0925292969 0.00827789307
vt 0.129150391 0.00827789307
vt 0.0925292969 0.5859375
vt 0.0925292969 0.514160156
vt 0.129150391 0.514160156
vt 0.129150391 0.586425781
vt 0.129150391 0.686523438
vt 0.0925292969 0.686035156
vt 0.129150391 0.728027344
vt 0.0925292969 0.721191406
vt 0.129150391 0.803222656
vt 0.0925292969 0.803222656
vt 0.129150391 0.373779297
vt 0.129150391 0.50390625
vt 0.0925292969 0.50390625
vt 0.0925292969 0.373779297
vt 0.241210938 0.652832031
vt 0.246948242 0.708984375
vt 0.231811523 0.665527344
vt 0.356933594 0.708984375
vt 0.333496094 0.787597656
vt 0.283691406 0.876953125
vt 0.180664062 0.819824219
vt 0.273925781 0.915039062
vt 0.168701172 0.885253906
vt 0.15625 0.915039062
vt 0.290527344 0.993652344
vt 0.16027832 0.851074219
vt 0.16027832 0.83203125
vt 0.0453796387 0.915039062
vt 0.00769805908 0.993652344
vt 0.00769805908 0.83203125
vt 0.0453796387 0.851074219
vt 0.949707031 0.491699219
vt 0.9921875 0.491699219
vt 0.9921875 0.990722656
vt 0.949707031 0.990722656
vt 0.906738281 0.491699219
vt 0.906738281 0.990722656
vt 0.864257812 0.491699219
vt 0.864257812 0.990722656
vt 0.821289062 0.491699219
vt 0.821289062 0.990722656
vt 0.654785156 0.98828125
vt 0.602050781 0.98828125
vt 0.602050781 0.587890625
vt 0.654785156 0.587890625
vt 0.70703125 0.98828125
vt 0.70703125 0.587890625
vt 0.759277344 0.98828125
vt 0.759277344 0.587890625
vt 0.812011719 0.98828125
vt 0.812011719 0.587890625
vt 0.599609375 0.470458984
vt 0.579589844 0.422119141
vt 0.6484375 0.490478516
vt 0.599609375 0.373535156
vt 0.6484375 0.353515625
vt 0.530761719 0.00843048096
vt 0.563964844 0.00843048096
vt 0.563964844 0.347900391
vt 0.530761719 0.347900391
vt 0.497802734 0.00842285156
vt 0.497802734 0.347900391
vt 0.464599609 0.00842285156
vt 0.464599609 0.347900391
vt 0.431396484 0.00841522217
vt 0.431396484 0.347900391
vt 0.185668945 0.619628906
vt 0.221191406 0.733886719
vt 0.185668945 0.733886719
vt 0.221191406 0.619628906
vt 0.185668945 0.583984375
vt 0.221191406 0.583984375
vt 0.185668945 0.548339844
vt 0.221191406 0.548339844
vt 0.185668945 0.436767578
vt 0.221191406 0.436767578
vt 0.620605469 0.0518188477
vt 0.65625 0.0518188477
vt 0.65625 0.119689941
vt 0.620605469 0.119689941
vt 0.0639038086 0.00759887695
vt 0.0823364258 0.00759887695
vt 0.0823364258 0.813964844
vt 0.0639038086 0.813964844
vt 0.045501709 0.00759887695
vt 0.045501709 0.813964844
vt 0.0270843506 0.00759887695
vt 0.0270843506 0.813964844
vt 0.00866699219 0.00759887695
vt 0.00866699219 0.813964844
vt 0.618652344 0.296630859
vt 0.573730469 0.315429688
vt 0.573730469 0.189697266
vt 0.633300781 0.251464844
vt 0.633300781 0.189697266
vt 0.612304688 0.155029297
vt 0.573730469 0.155029297
vt 0.573730469 0.00791931152
vt 0.612304688 0.00791931152
vt 0.338134766 0.333251953
vt 0.422363281 0.286865234
vt 0.422363281 0.333251953
vt 0.338134766 0.286865234
vt 0.422363281 0.240478516
vt 0.338134766 0.240478516
vt 0.338134766 0.180908203
vt 0.422363281 0.180908203
vt 0.338134766 0.148193359
vt 0.422363281 0.148193359
vt 0.422363281 0.00839233398
vt 0.338134766 0.00839233398
vt 0.342773438 0.654296875
vt 0.396240234 0.654296875
vt 0.396240234 0.689453125
vt 0.342773438 0.689453125
vt 0.666015625 0.0518188477
vt 0.701171875 0.0518188477
vt 0.701171875 0.352783203
vt 0.659179688 0.198730469
vt 0.64453125 0.22644043
vt 0.638183594 0.288818359
vt 0.65625 0.334228516
vt 0.458740234 0.758789062
vt 0.458740234 0.692382812
vt 0.486083984 0.692382812
vt 0.487548828 0.755371094
vt 0.594238281 0.692382812
vt 0.458740234 0.814453125
vt 0.594238281 0.750488281
vt 0.486816406 0.814941406
vt 0.594238281 0.81640625
vt 0.458740234 0.868164062
vt 0.559082031 0.856933594
vt 0.594238281 0.947265625
vt 0.483642578 0.875976562
vt 0.559570312 0.946777344
vt 0.594238281 0.991699219
vt 0.470947266 0.991699219
vt 0.48046875 0.904785156
vt 0.458740234 0.888671875
vt 0.543457031 0.903320312
vt 0.464111328 0.922363281
vt 0.469238281 0.959472656
vt 0.373046875 0.991699219
vt 0.373046875 0.960449219
vt 0.373046875 0.938964844
vt 0.373046875 0.917480469
vt 0.373046875 0.896484375
vt 0.447021484 0.661621094
vt 0.388671875 0.637207031
vt 0.364501953 0.579101562
vt 0.592285156 0.579101562
vt 0.567871094 0.616210938
vt 0.120117188 0.900390625
vt 0.147460938 0.864746094
vt 0.147460938 0.900390625
vt 0.120117188 0.864746094
vt 0.0955810547 0.900390625
vt 0.0955810547 0.864746094
vt 0.0747070312 0.864746094
vt 0.0747070312 0.900390625
vt 0.0651855469 0.900390625
vt 0.0651855469 0.864746094
vt 0.398193359 0.570800781
vt 0.422119141 0.513183594
vt 0.479980469 0.489013672
vt 0.538085938 0.513183594
vt 0.591308594 0.555175781
vt 0.599121094 0.570800781
vt 0.599121094 0.561523438
vt 0.608398438 0.538085938
vt 0.613769531 0.546386719
vt 0.641601562 0.5390625
vt 0.638183594 0.546875
vt 0.661621094 0.570800781
vt 0.651855469 0.570800781
vt 0.491455078 0.650878906
vt 0.481689453 0.683105469
vt 0.471923828 0.683105469
vt 0.494628906 0.659179688
vt 0.524414062 0.650390625
vt 0.519042969 0.658691406
vt 0.541015625 0.667480469
vt 0.533203125 0.673339844
vt 0.533691406 0.683105469
vt 0.5703125 0.683105469
vt 0.594726562 0.625
vt 0.643066406 0.0437011719
vt 0.643066406 0.00737380981
vt 0.680175781 0.00737380981
vt 0.680175781 0.0437011719
vt 0.712890625 0.00737380981
vt 0.712890625 0.0437011719
vt 0.737304688 0.0437011719
vt 0.737304688 0.00737380981
vt 0.8046875 0.00737380981
vt 0.8046875 0.0437011719
vt 0.866699219 0.00737380981
vt 0.866699219 0.431640625
vt 0.8046875 0.431640625
vt 0.7421875 0.431640625
vt 0.7421875 0.0502929688
vt 0.929199219 0.431640625
vt 0.929199219 0.00737380981
vt 0.991699219 0.431640625
vt 0.991699219 0.00737380981
vt 0.28125 0.911621094
vt 0.305175781 0.853515625
vt 0.363037109 0.829589844
vt 0.305175781 0.969238281
vt 0.363037109 0.993164062
vn 1 0 0
vn 1 0 0
vn 1 0 0
vn -1 0 0
vn -1 0 0
vn -1 0 0
vn -0 0.180538088 0.983568072
vn -0 0.180538088 0.983568072
vn -0 0.287111014 0.957897246
vn -0 0.287111014 0.957897246
vn -0 0.501406431 0.865211844
vn -0 0.501406431 0.865211844
vn -0 0.604837358 0.796349049
vn -0 0.604837358 0.796349049
vn -0 -0.311510086 -0.950242877
vn -0 -0.213933662 -0.976848245
vn -0 -0.213933662 -0.976848245
vn -0 -0.311510056 -0.950242877
vn -0 -0.490051746 -0.871693313
vn -1.07793596E-07 -0.490051806 -0.871693313
vn -0 -0.569859505 -0.821742117
vn -1.92240989E-07 -0.569859505 -0.821742117
vn 0.992993891 0.0585219078 0.102655768
vn 0.99296242 0.0692534 0.0960709304
vn 0.99296242 0.0692534 0.0960709453
vn 0.992993295 0.0583850332 0.102739617
vn 0.99313581 0.0351768769 0.11155235
vn 0.99313426 0.0352691002 0.111536071
vn 0.993249416 0.0230793301 0.113678776
vn 0.993249416 0.0230793301 0.113678776
vn 2.23146628E-07 -0.71810174 0.69593823
vn 2.23146657E-07 -0.71810174 0.69593823
vn 1.27511996E-07 -0.71810174 0.69593811
vn 1.27511981E-07 -0.718101799 0.69593811
vn -0 -0.424140841 -0.905596197
vn -0 -0.272853166 -0.962055683
vn -0 -0.424140841 -0.905596197
vn -0 -0.272853166 -0.962055683
vn -0 -0.114450641 -0.993429005
vn -0 -0.114450626 -0.993429005
vn -0 -0.0920993537 0.995749831
vn 0.00107250153 -0.430399269 0.902637959
vn 0.00201295968 -0.0920991674 0.995747745
vn -0 -0.430399537 0.902638555
vn -0 -0.490293562 0.871557355
vn 0.00212758104 -0.49029246 0.871555388
vn -0 -0.225261033 0.974298418
vn 0.00408325251 -0.225259155 0.974290371
vn 1 0 0
vn 1 0 0
vn 1 0 0
vn 1 0 0
vn 1 0 0
vn 1 0 0
vn 1 0 0
vn 0.000276460691 0.999988317 -0.00483114924
vn 0.000276460691 0.999988317 -0.00483114924
vn -0 0.999988317 -0.00483114924
vn -0 0.999988317 -0.00483114924
vn -0 0.967848241 -0.251534879
vn -0 0.967848241 -0.251534879
vn -0 0.967848241 -0.251534879
vn -0 0.967848241 -0.251534879
vn -0 0.218521312 0.975832224
vn -0 0.218521312 0.975832224
vn -0 0.218521312 0.975832224
vn -0 0.218521312 0.975832224
vn -0 0.95849508 -0.285109103
vn -0 0.95849508 -0.285109073
vn 5.58566608E-05 0.958496273 -0.28510496
vn 5.57378698E-05 0.958496273 -0.28510499
vn 0.000156888738 0.958498597 -0.285097241
vn 0.000156888709 0.958498597 -0.285097241
vn -5.06826436E-05 -0.958493888 0.285113275
vn -0.000147484461 -0.958496809 0.285102934
vn -0.000147484476 -0.958496809 0.285102904
vn -5.07963377E-05 -0.958493888 0.285113275
vn -0 -0.958492219 0.285118699
vn -0 -0.958492219 0.285118699
vn -0 -0.285305887 -0.958436489
vn -0 -0.285305887 -0.958436489
vn 0.382694989 -0.263586938 -0.885475338
vn 0.382662058 -0.263590842 -0.885488331
vn 0.924781919 -0.108558215 -0.364682764
vn 0.924745321 -0.10858357 -0.364767939
vn 0.904137552 0.121894479 0.409483939
vn 0.904118419 0.12190599 0.409522593
vn 0.352452308 0.266997725 0.896933377
vn 0.35243699 0.266999394 0.89693892
vn -0 0.285306036 0.958436489
vn -0 0.285306007 0.958436489
vn 0.0697106719 -0.184739798 0.98031199
vn -0 -0.600154519 0.799884021
vn -0 -0.600154519 0.799884021
vn -0 -0.244677618 0.969604492
vn -5.10228404E-07 -0.122267306 0.992497206
vn 0.282928139 -0.0572071671 0.957433462
vn -1.43469194E-07 -0.906139553 0.422978789
vn 0.185916677 -0.619958997 0.762289822
vn -0 -0.96171993 0.274034113
vn -0 -1 -4.62722454E-07
vn -0 -1 -4.64425852E-07
vn 0.155406952 0.395747274 -0.90511483
vn -3.03738119E-07 0.309701502 -0.950833857
vn 0.154229105 0.305995911 -0.939457238
vn -2.8737017E-07 0.401133835 -0.91601938
vn -3.0597667E-07 0.378864646 -0.925452113
vn 0.160523191 0.373795211 -0.913514853
vn -1.68360117E-07 0.0125068538 -0.999921799
vn 0.113020234 0.0682815686 -0.99124372
vn -0 -0.18238835 -0.983226597
vn 0.0412671156 -0.182232961 -0.982389033
vn -0 -0.875952125 -0.482398123
vn -0.00674141804 -0.875932157 -0.482387185
vn -0.00674141804 -0.875932157 -0.482387185
vn -0 -0.875952125 -0.482398123
vn 0.999975562 -0.00699944794 -0.000135336944
vn 0.999975562 -0.00699944794 -0.000135336944
vn 0.999993443 -0.00363410008 -7.0266673E-05
vn 0.999998927 -0.00146313512 -2.82902638E-05
vn 1 0 0
vn 0.999997735 -0.00152249902 -0.00150217779
vn 0.99999094 -0.00139392738 -0.00402313657
vn 0.999990344 -0.00342814648 -0.0027583302
vn 0.999990821 -0.000962699763 -0.00418014964
vn 0.999999285 -0.000327738875 -0.00114793202
vn 0.999994159 -0.00300796796 -0.00167467969
vn 0.999964476 -0.00114650838 -0.00835166872
vn 0.999966383 -0.00111525669 -0.00812401716
vn 1 0 0
vn 1 0 0
vn 1 0 0
vn 1 0 0
vn 0.707106888 -0.70710665 -1.67519303E-07
vn -0 -1 -1.9685605E-07
vn -0 -1 -1.96856078E-07
vn 0.707106888 -0.70710665 -1.67519303E-07
vn 1 -3.08039318E-07 0
vn 1 -2.87503383E-07 0
vn 0.707107186 0.707106352 1.1096035E-07
vn 0.707107186 0.707106352 1.10960322E-07
vn -0 1 1.9685605E-07
vn -0 1 1.96856078E-07
vn 0.707107306 0.707106173 0
vn -0 1 2.05027888E-07
vn -0 1 2.05027902E-07
vn 0.707107306 0.707106173 0
vn 1 -2.46431455E-07 -2.52404249E-07
vn 1 -2.87503411E-07 -2.52404305E-07
vn 0.70710659 -0.707106888 -3.47988248E-07
vn 0.70710665 -0.707106829 -3.47988248E-07
vn 2.25895491E-07 -1 -2.39957814E-07
vn 2.25895505E-07 -1 -2.39957814E-07
vn -0 -1.62920685E-07 1
vn -0 -1.62920685E-07 1
vn -0 -1.62920685E-07 1
vn -0 -1.62920685E-07 1
vn -0 -1.62920685E-07 1
vn 0.707105875 -0.707107663 -1.49961636E-07
vn -7.80365895E-07 -1 -2.12385743E-07
vn -7.59830073E-07 -1 -2.12385743E-07
vn 0.707105875 -0.707107663 -1.49961636E-07
vn 1 1.6428767E-07 0
vn 1 2.05359612E-07 0
vn 0.707105935 0.707107544 1.50184448E-07
vn 0.707105875 0.707107663 1.50184462E-07
vn -7.80366122E-07 1 2.12385743E-07
vn -7.59830243E-07 1 2.12385743E-07
vn -1 0 0
vn -0.622317433 0.247698277 0.742540658
vn -1 0 0
vn -0.785733163 -1.00777129E-07 0.618565619
vn -1 0 0
vn -0.622317433 -0.247698545 0.742540598
vn 0.785733163 -1.00777129E-07 0.618565619
vn 0.622317493 0.247698277 0.742540658
vn 1 0 0
vn 0.622317433 -0.247698545 0.742540598
vn 1 0 0
vn 1 0 0
vn -0 0.796109378 0.605152726
vn -0 1 5.12401243E-07
vn -0 1 5.12401243E-07
vn -0 0.796109378 0.605152726
vn -0 -0.0412978418 0.999146938
vn -0 -0.0412978195 0.999146938
vn -0 -0.820421815 0.571758687
vn -0 -0.820421875 0.571758687
vn -0 -1 -1.62920685E-07
vn -0 -1 -1.62920685E-07
vn -0 4.10963025E-07 -1
vn -0 4.10963025E-07 -1
vn -0 4.10963111E-07 -1
vn -0 4.10963111E-07 -1
vn 0.707107008 -0.707106471 -0.000293763966
vn 6.776379E-07 -1 -0.000293818826
vn 6.98272288E-07 -1 -0.000293818855
vn 0.707107008 -0.707106411 -0.000293763966
vn 1 -3.49088253E-07 -0.000293580961
vn 1 -3.07969344E-07 -0.000293580961
vn 0.707107842 0.707105577 -0.000293417252
vn 0.707107782 0.707105637 -0.000293417223
vn 6.982728E-07 1 -0.000293347024
vn 6.98172983E-07 1 -0.000293347053
vn 0.00283057522 0.00320934178 0.999990821
vn -0 -0.311538905 0.9502334
vn -0 0.0037515841 0.999992967
vn 0.00665224437 0.000827114971 0.999977589
vn 0.00473747356 -0.266726524 0.963760614
vn 0.00164669985 -0.352256387 0.935902059
vn -0 -0.321450442 0.946926415
vn -0 -0.00136203982 0.999999046
vn 0.00767976092 -0.00136200094 0.999969602
vn -4.92862625E-07 1 1.62920685E-07
vn -5.02803061E-07 1 1.62920685E-07
vn 0.703525841 0.710669637 4.57123662E-07
vn 0.713886321 0.700261652 4.67667832E-07
vn 0.988643885 0.150277108 7.09088965E-07
vn 0.990670443 0.136278853 7.07830566E-07
vn 0.969472945 -0.245198205 3.38900605E-07
vn 0.960974097 -0.276638538 2.65399308E-07
vn 0.955084145 -0.296334833 -1.27197879E-07
vn 0.961115003 -0.276148468 -1.18541962E-07
vn 0.998923242 -0.0463933647 0
vn 0.998923242 -0.0463933684 0
vn -0 -1 -2.02163989E-07
vn -4.49196818E-07 -1 -4.96488838E-07
vn -4.49196818E-07 -1 -4.96488838E-07
vn -0 -1 -2.02163989E-07
vn 0.00355557422 -0.0997466817 -0.995006442
vn -0 -0.0956571922 -0.995414376
vn -0 -0.0993896723 -0.995048583
vn -0.0210992545 -0.102154329 -0.994544744
vn -0.0132204145 -0.100520916 -0.994847178
vn -0.0215605181 -0.102207176 -0.994529426
vn -0.000205685967 -0.0814031512 -0.996681273
vn 0.440561295 -0.431485713 0.787226617
vn -6.81626886E-07 -0.914543509 0.40448761
vn -7.03559408E-07 -0.610386133 0.792104006
vn 0.646210015 -0.648940027 0.401608527
vn -7.19108357E-07 -0.999997973 0.00200416683
vn 0.633221865 0.0109513458 0.77389282
vn 0.7069785 -0.707231879 0.00212384923
vn 0.912779927 -0.0172702689 0.408086509
vn 0.998156846 -0.0517108701 -0.0317645632
vn 0.469109893 0.402617663 0.786024749
vn 0.913148761 0.407171041 0.0192645416
vn 0.769758224 0.638108432 -0.0170245096
vn 0.68529892 0.593561709 0.42195943
vn 0.823209524 0.56327194 0.0710695833
vn -4.07034833E-07 0.999979377 -0.00642958935
vn 1.07086032E-06 0.987911224 0.155021161
vn 0.946851373 0.13183026 0.293416321
vn 0.845874429 -0.162950069 0.507881522
vn 0.73023361 0.303552449 0.612057924
vn 0.989621162 -0.0928651169 0.109663434
vn 0.77292645 0.619574666 0.136791348
vn 1.30827334E-06 0.945244372 0.326363266
vn 0.766015947 0.594385684 0.244796112
vn 0.985380828 -0.0963769108 0.140485242
vn 0.690634727 -0.712074935 0.126384392
vn 0.378752977 -0.914381385 0.143013611
vn -8.56915335E-07 1.36559993E-05 -1
vn -0 1.42052213E-05 -1
vn -6.71625185E-06 1.63776422E-05 -1
vn -0 1.31212846E-05 -1
vn 2.94255784E-07 1.31212846E-05 -1
vn -0.856596291 -0.515987217 0
vn -0 -1 -1.62920685E-07
vn -0 -1 -1.62920685E-07
vn -0.856596291 -0.515987217 0
vn -0.926028192 0.377454281 0
vn -0.926028311 0.377453893 0
vn -0.376896709 0.926255286 1.5090616E-07
vn -0.376896322 0.926255405 1.5090616E-07
vn -0 1 1.62920685E-07
vn -0 1 1.62920685E-07
vn -0 -4.37177164E-07 1
vn -0 -1.62920685E-07 1
vn -0 -1.62920685E-07 1
vn 1.51860763E-06 -7.91947798E-07 1
vn 1.69713473E-07 -6.4672264E-07 1
vn -0 -8.16841805E-07 1
vn -1.87877092E-07 -5.35672086E-07 1
vn -0 -1.62920685E-07 1
vn -0 -1.62920685E-07 1
vn -2.96819934E-07 -1.10041265E-06 1
vn -3.68256593E-07 -1.32604191E-06 1
vn -0 -2.3180578E-06 1
vn -0 -2.3180578E-06 1
vn 2.96819991E-07 1.10041276E-06 -1
vn -0 2.31805802E-06 -1
vn -0 2.3180578E-06 -1
vn 3.6825665E-07 1.32604191E-06 -1
vn 1.17454385E-06 1.44248907E-06 -1
vn 9.17987904E-07 1.16299282E-06 -1
vn 1.58012668E-07 -2.44332767E-07 -1
vn 8.69470796E-07 1.11013742E-06 -1
vn -0 -1.14435613E-06 -1
vn -0 -1.69721784E-06 -1
vn -8.06073785E-07 -1.6972175E-06 -1
vn -0 1 1.62920685E-07
vn 0.869934797 0.493166894 0
vn -0 1 1.62920685E-07
vn 0.869934857 0.493166596 0
vn 0.928757548 -0.370687783 0
vn 0.92875737 -0.370688081 0
vn 0.998550951 -0.0538139343 0
vn 0.998550951 -0.0538150221 0
vn 0.862287045 0.506419778 0
vn 0.793799043 0.608180165 0
vn 1 1.74555666E-07 -1.38373522E-07
vn 1 0 -1.62847897E-07
vn 0.707106948 0.70710659 0
vn 4.10719139E-07 1 2.27693278E-07
vn 4.10719139E-07 1 2.27693278E-07
vn 0.707107186 -0.707106352 -2.23574446E-07
vn 0.707107186 -0.707106352 -2.23574446E-07
vn 4.10719252E-07 -1 -2.02847275E-07
vn 4.10719252E-07 -1 -2.02847275E-07
vn -0 1.62920685E-07 -1
vn -0 1.8004593E-07 -1
vn -0 1.62920685E-07 -1
vn -0 1.9717119E-07 -1
vn -0 2.14296392E-07 -1
vn -0 0.180538088 0.983568072
vn -0 0.287111014 0.957897246
vn -0 0.180538103 0.983568072
vn -0 0.287111014 0.957897246
vn -0 0.501406431 0.865211844
vn -0 0.501406431 0.865211844
vn -0 0.604837358 0.796349049
vn -0 0.604837358 0.796349049
vn -0 -0.311510086 -0.950242877
vn -0 -0.213933662 -0.976848245
vn -0 -0.213933706 -0.976848245
vn -0 -0.311510086 -0.950242877
vn -1.64391082E-07 -0.490051895 -0.871693313
vn -1.07793596E-07 -0.490051806 -0.871693313
vn -3.0493419E-07 -0.569859564 -0.821742117
vn -1.92240989E-07 -0.569859505 -0.821742117
vn -0.992993891 0.058521919 0.102655768
vn -0.99296242 0.0692534149 0.0960709229
vn -0.99296242 0.0692534 0.0960709229
vn -0.992993295 0.0583850481 0.102739602
vn -0.99313581 0.0351768769 0.11155235
vn -0.99313426 0.0352691002 0.111536056
vn -0.993249416 0.0230793301 0.113678753
vn -0.993249416 0.0230793264 0.113678753
vn 2.23146628E-07 -0.71810174 0.69593823
vn 3.18781332E-07 -0.71810168 0.69593823
vn 3.18781332E-07 -0.71810168 0.695938289
vn 2.23146657E-07 -0.71810174 0.69593823
vn -0 -0.424140841 -0.905596197
vn -0 -0.424140871 -0.905596197
vn -0 -0.272853166 -0.962055683
vn -0 -0.272853166 -0.962055683
vn -0 -0.114450641 -0.993429005
vn -0 -0.114450626 -0.993429005
vn -0 -0.0920993537 0.995749831
vn -0.00201295968 -0.0920991674 0.995747745
vn -0.00107250153 -0.430399269 0.902637959
vn -0 -0.430399537 0.902638555
vn -0 -0.490293562 0.871557355
vn -0.00212758104 -0.49029246 0.871555388
vn -0 -0.225261033 0.974298418
vn -0.00408325251 -0.225259155 0.974290371
vn -1 -3.70906889E-07 6.43892577E-07
vn -1 0 6.8021734E-07
vn -1 0 6.80217283E-07
vn -1 0 6.23136373E-07
vn -1 -1.33073229E-07 5.93903451E-07
vn -1 0 5.82927214E-07
vn -1 0 5.82927271E-07
vn -0.000276460341 0.999988317 -0.00483115017
vn -0 0.999988317 -0.00483114924
vn -0 0.999988317 -0.00483114924
vn -0.000276460341 0.999988317 -0.00483114971
vn -0 0.95849508 -0.285109103
vn -5.57021885E-05 0.958496273 -0.28510499
vn -0 0.95849508 -0.285109073
vn -5.55836741E-05 0.958496273 -0.28510502
vn -0.000156584632 0.958498597 -0.285097241
vn -0.000156584618 0.958498597 -0.285097241
vn 5.05804564E-05 -0.958493888 0.285113305
vn 0.000147534345 -0.958496928 0.285102874
vn 0.000147534345 -0.958496809 0.285102904
vn 5.06942451E-05 -0.958493888 0.285113245
vn -0 -0.958492219 0.285118699
vn -0 -0.958492219 0.285118699
vn -0 -0.285305887 -0.958436489
vn -0.382695019 -0.263586938 -0.885475338
vn -0 -0.285305887 -0.958436489
vn -0.382662147 -0.263590842 -0.885488331
vn -0.924781919 -0.108558215 -0.364682734
vn -0.924745321 -0.108583584 -0.364767939
vn -0.904136658 0.121894963 0.409485579
vn -0.904117584 0.121906467 0.409524262
vn -0.35245055 0.266997933 0.896934152
vn -0.352435201 0.266999602 0.896939635
vn -0 0.285306036 0.958436489
vn -0 0.285306007 0.958436489
vn -0.0697107613 -0.184739977 0.98031199
vn -0 -0.600154519 0.799884021
vn -0 -0.600154519 0.799884021
vn -0 -0.244677618 0.969604492
vn -5.10228404E-07 -0.122267306 0.992497206
vn -0.282929152 -0.0572071262 0.957433283
vn -1.43469194E-07 -0.906139553 0.422978789
vn -0.185917571 -0.619958758 0.762289941
vn -0 -0.96171993 0.274034053
vn -0 -1 -4.66129279E-07
vn -0 -1 -4.64425852E-07
vn -0.155407503 0.395747274 -0.90511477
vn -0.154229686 0.305995911 -0.939457119
vn -3.03738119E-07 0.309701502 -0.950833857
vn -2.8737017E-07 0.401133835 -0.91601938
vn -3.0597667E-07 0.378864646 -0.925452113
vn -0.160523772 0.373795211 -0.913514793
vn -1.68360117E-07 0.0125068538 -0.999921799
vn -0.113020673 0.0682816356 -0.991243601
vn -0 -0.18238835 -0.983226597
vn -0.0412672684 -0.182232961 -0.982389033
vn -0 -0.875952125 -0.482398123
vn -0 -0.875952125 -0.482398123
vn 0.00674146041 -0.875932157 -0.482387185
vn 0.00674146041 -0.875932157 -0.482387185
vn -0.999975562 -0.00699944794 -0.000135337148
vn -0.999993443 -0.00363409938 -7.02667894E-05
vn -0.999975562 -0.00699944748 -0.000135337148
vn -0.999998927 -0.00146313489 -2.82903075E-05
vn -1 0 0
vn -0.999997735 -0.00152249925 -0.00150217779
vn -0.99999094 -0.00139392761 -0.00402313657
vn -0.999990344 -0.00342814694 -0.00275833067
vn -0.999990821 -0.000962700229 -0.00418014964
vn -0.999999285 -0.000327738875 -0.00114793202
vn -0.999994159 -0.00300796796 -0.00167467969
vn -0.999964476 -0.0011465085 -0.00835166965
vn -0.999966383 -0.00111525692 -0.00812401902
vn -1 0 0
vn -1 0 0
vn -1 0 0
vn -1 0 0
vn -0.707106829 -0.707106769 -1.11903056E-07
vn -0 -1 -1.96856078E-07
vn -0 -1 -1.9685605E-07
vn -0.707106829 -0.707106769 -1.11903056E-07
vn -1 -3.08039318E-07 0
vn -1 -2.87503383E-07 0
vn -0.707107186 0.707106352 1.6657664E-07
vn -0.707107186 0.707106352 1.66576598E-07
vn -0 1 1.9685605E-07
vn -0 1 1.96856078E-07
vn -0.707106888 0.70710665 1.44868721E-07
vn -0 1 2.05027902E-07
vn -0 1 2.05027888E-07
vn -0.707106948 0.70710659 1.44868707E-07
vn -1 3.28575396E-07 0
vn -1 2.87503497E-07 0
vn -0.707106531 -0.707107008 -1.44868807E-07
vn -0.707106531 -0.707107008 -1.44868807E-07
vn 2.25895491E-07 -1 -2.39957814E-07
vn 2.25895505E-07 -1 -2.39957814E-07
vn -0 -1.62920685E-07 1
vn -0 -1.62920685E-07 1
vn -0 -1.62920685E-07 1
vn -0 -1.62920685E-07 1
vn -0 -1.62920685E-07 1
vn -0.707106471 -0.707107008 -1.50407232E-07
vn -7.59830073E-07 -1 -2.12385743E-07
vn -7.80365895E-07 -1 -2.12385743E-07
vn -0.707106471 -0.707107008 -1.50407232E-07
vn -1 1.6428767E-07 0
vn -1 2.05359612E-07 0
vn -0.70710659 0.707106948 1.5018442E-07
vn -0.707106531 0.707107008 1.50184434E-07
vn -7.80366122E-07 1 2.12385743E-07
vn -7.59830243E-07 1 2.12385743E-07
vn -0 0.796109378 0.605152667
vn -0 1 5.12401243E-07
vn -0 1 5.12401243E-07
vn -0 0.796109378 0.605152726
vn -0 -0.0412978008 0.999146938
vn -0 -0.0412978195 0.999146938
vn -0 -0.820421875 0.571758687
vn -0 -0.820421875 0.571758687
vn -0 -1 -1.62920685E-07
vn -0 -1 -1.62920685E-07
vn -0 4.10963025E-07 -1
vn -0 4.10963111E-07 -1
vn -0 4.10963111E-07 -1
vn -0 4.10963025E-07 -1
vn -0.707105279 -0.7071082 -0.000293704798
vn 6.98272288E-07 -1 -0.000293818855
vn 6.776379E-07 -1 -0.000293818826
vn -0.707105398 -0.70710808 -0.000293704798
vn -1 -3.49088737E-07 -0.000293497927
vn -1 -3.07969771E-07 -0.000293497869
vn -0.707106233 0.707107246 -0.000293358113
vn -0.707106233 0.707107246 -0.000293358113
vn 6.982728E-07 1 -0.000293347024
vn 6.98172983E-07 1 -0.000293347053
vn -0.00283057522 0.00320934574 0.999990821
vn -0 0.0037515841 0.999992967
vn -0 -0.311538905 0.9502334
vn -0.00665224018 0.000827119104 0.999977589
vn -0.00473748799 -0.266726285 0.963760734
vn -0.00164670253 -0.352256268 0.935902178
vn -0 -0.321450442 0.946926415
vn -0 -0.00136203982 0.999999046
vn -0.00767977303 -0.0013619978 0.999969602
vn -4.92862625E-07 1 1.62920685E-07
vn -0.703525841 0.710669756 1.31659107E-07
vn -5.02803061E-07 1 1.62920685E-07
vn -0.713886261 0.700261772 1.30532726E-07
vn -0.988643885 0.150277302 0
vn -0.990670443 0.136278912 0
vn -0.969472826 -0.24519892 0
vn -0.960973859 -0.276639074 -1.12650312E-07
vn -0.955084264 -0.296334416 -1.36849181E-07
vn -0.961115122 -0.276148051 -1.29495106E-07
vn -0.998923242 -0.0463924445 0
vn -0.998923242 -0.0463924482 0
vn -8.98524377E-07 -1 -7.90813658E-07
vn -8.9852432E-07 -1 -7.90813658E-07
vn -4.49196818E-07 -1 -4.96488838E-07
vn -4.49196818E-07 -1 -4.96488838E-07
vn -0.00355571858 -0.0997466892 -0.995006442
vn -0 -0.0993896723 -0.995048583
vn -0 -0.0956571922 -0.995414376
vn 0.0210994724 -0.102154374 -0.994544744
vn 0.0132204266 -0.100520916 -0.994847178
vn 0.0215605684 -0.102207169 -0.994529426
vn 0.000205686752 -0.0814031586 -0.996681273
vn -0.440561831 -0.431486011 0.78722614
vn -7.03559408E-07 -0.610386133 0.792104006
vn -6.81626886E-07 -0.914543509 0.40448761
vn -0.646210611 -0.64893949 0.401608467
vn -7.19108357E-07 -0.999997973 0.00200416683
vn -0.633221924 0.0109511893 0.77389282
vn -0.706978798 -0.707231641 0.00212411443
vn -0.912779927 -0.0172704421 0.408086419
vn -0.998156726 -0.0517110974 -0.0317645855
vn -0.469109893 0.402617663 0.786024749
vn -0.913148761 0.407171041 0.0192644186
vn -0.769758999 0.638107538 -0.0170259476
vn -0.68529892 0.59356159 0.421959698
vn -0.823209286 0.563272238 0.0710694343
vn -4.07034833E-07 0.999979377 -0.00642958935
vn 1.07086032E-06 0.987911224 0.155021161
vn -0.946851373 0.131830543 0.2934165
vn -0.84587431 -0.16295065 0.507881641
vn -0.73023355 0.30355224 0.612058103
vn -0.989621162 -0.0928651169 0.109663472
vn -0.772925913 0.619575262 0.136791781
vn 1.30827334E-06 0.945244372 0.326363266
vn -0.766015232 0.594386697 0.244796365
vn -0.985380828 -0.0963768736 0.140485242
vn -0.690633774 -0.71207583 0.126384526
vn -0.378750533 -0.914382398 0.14301376
vn 8.56914653E-07 1.36560002E-05 -1
vn 6.71627231E-06 1.63776476E-05 -1
vn -0 1.42052213E-05 -1
vn -0 1.31212846E-05 -1
vn -2.94256978E-07 1.31212846E-05 -1
vn 0.856596291 -0.515987217 0
vn -0 -1 -1.62920685E-07
vn -0 -1 -1.62920685E-07
vn 0.856596291 -0.515987217 0
vn 0.926028192 0.377454281 0
vn 0.926028311 0.377453893 0
vn 0.376896709 0.926255286 1.5090616E-07
vn 0.376896322 0.926255405 1.5090616E-07
vn -0 1 1.62920685E-07
vn -0 1 1.62920685E-07
vn -0 -4.37177164E-07 1
vn -0 -1.62920685E-07 1
vn -0 -1.62920685E-07 1
vn -1.51860354E-06 -7.91947627E-07 1
vn -1.69713118E-07 -6.46722697E-07 1
vn -0 -8.16841805E-07 1
vn 1.87877106E-07 -5.35672086E-07 1
vn -0 -1.62920685E-07 1
vn -0 -1.62920685E-07 1
vn 2.96819934E-07 -1.10041265E-06 1
vn 3.68256593E-07 -1.32604191E-06 1
vn -0 -2.3180578E-06 1
vn -0 -2.3180578E-06 1
vn -2.96819934E-07 1.10041265E-06 -1
vn -0 2.3180578E-06 -1
vn -0 2.31805802E-06 -1
vn -3.68256593E-07 1.32604191E-06 -1
vn -1.17454385E-06 1.44248907E-06 -1
vn -9.17987904E-07 1.16299282E-06 -1
vn -1.58013094E-07 -2.44333592E-07 -1
vn -8.69470796E-07 1.11013742E-06 -1
vn -0 -1.14435613E-06 -1
vn -0 -1.69721784E-06 -1
vn 8.06072592E-07 -1.69721807E-06 -1
vn -0 1 1.62920685E-07
vn -0 1 1.62920685E-07
vn -0.869934797 0.493166894 0
vn -0.869934857 0.493166596 0
vn -0.928757548 -0.370687783 0
vn -0.92875737 -0.370688081 0
vn -0.998550951 -0.053813193 0
vn -0.998550951 -0.0538142733 0
vn -0.862287164 0.506419599 0
vn -0.793799102 0.608179986 1.20484742E-07
vn -1 0 0
vn -1 0 0
vn -0.707107067 0.707106411 1.56321718E-07
vn 4.10719139E-07 1 2.27693278E-07
vn 4.10719139E-07 1 2.27693278E-07
vn -0.707107186 -0.707106352 -1.43340969E-07
vn -0.707107186 -0.707106352 -1.43340969E-07
vn 4.10719252E-07 -1 -2.02847275E-07
vn 4.10719252E-07 -1 -2.02847275E-07
vn -0 1.62920685E-07 -1
vn -0 1.62920685E-07 -1
vn -0 1.8004593E-07 -1
vn -0 1.97171161E-07 -1
vn -0 2.14296392E-07 -1
g A_Build_monika_weapon_01_0
f 3/3/3 2/2/2 1/1/1
f 6/6/6 5/5/5 4/4/4
f 9/9/9 8/8/8 7/7/7
f 10/10/10 9/9/9 7/7/7
f 11/11/11 9/9/9 10/10/10
f 12/12/12 11/11/11 10/10/10
f 13/13/13 11/11/11 12/12/12
f 14/14/14 13/13/13 12/12/12
f 17/17/17 16/16/16 15/15/15
f 16/16/16 18/18/18 15/15/15
f 15/15/15 18/18/18 19/19/19
f 20/20/20 15/15/15 19/19/19
f 20/20/20 19/19/19 21/21/21
f 22/22/22 20/20/20 21/21/21
f 25/25/25 24/24/24 23/23/23
f 24/24/24 26/26/26 23/23/23
f 26/26/26 27/27/27 23/23/23
f 27/27/27 28/28/28 23/23/23
f 29/29/29 28/28/28 27/27/27
f 30/30/30 29/29/29 27/27/27
f 33/33/33 32/32/32 31/31/31
f 34/34/34 33/33/33 31/31/31
f 37/37/37 36/36/36 35/35/35
f 36/36/36 38/38/38 35/35/35
f 39/39/39 38/38/38 36/36/36
f 40/40/40 39/39/39 36/36/36
f 43/43/43 42/42/42 41/41/41
f 42/42/42 44/44/44 41/41/41
f 45/45/45 44/44/44 42/42/42
f 46/46/46 45/45/45 42/42/42
f 47/47/47 45/45/45 46/46/46
f 48/48/48 47/47/47 46/46/46
f 51/51/51 50/50/50 49/49/49
f 50/50/50 52/52/52 49/49/49
f 49/49/49 52/52/52 53/53/53
f 53/53/53 52/52/52 54/54/54
f 55/55/55 53/53/53 54/54/54
f 58/58/58 57/57/57 56/56/56
f 59/59/59 58/58/58 56/56/56
f 62/62/62 61/61/61 60/60/60
f 63/63/63 62/62/62 60/60/60
f 66/66/66 65/65/65 64/64/64
f 67/67/67 66/66/66 64/64/64
f 70/70/70 69/69/69 68/68/68
f 71/71/71 70/70/70 68/68/68
f 71/71/71 72/72/72 70/70/70
f 72/72/72 73/73/73 70/70/70
f 76/76/76 75/75/75 74/74/74
f 77/77/77 76/76/76 74/74/74
f 78/78/78 77/77/77 74/74/74
f 79/79/79 78/78/78 74/74/74
f 82/82/82 81/81/81 80/80/80
f 83/83/83 82/82/82 80/80/80
f 84/84/84 82/82/82 83/83/83
f 85/85/85 84/84/84 83/83/83
f 85/85/85 86/86/86 84/84/84
f 86/86/86 87/87/87 84/84/84
f 87/87/87 86/86/86 88/88/88
f 86/86/86 89/89/89 88/88/88
f 90/90/90 88/88/88 89/89/89
f 91/91/91 90/90/90 89/89/89
f 94/94/94 93/93/93 92/92/92
f 95/95/95 94/94/94 92/92/92
f 96/96/96 95/95/95 92/92/92
f 96/96/96 92/92/92 97/97/97
f 96/96/96 97/97/97 98/98/98
f 97/97/97 99/99/99 98/98/98
f 98/98/98 99/99/99 100/100/100
f 98/98/98 100/100/100 101/101/101
f 102/102/102 98/98/98 101/101/101
f 105/105/105 104/104/104 103/103/103
f 104/104/104 106/106/106 103/103/103
f 106/106/106 107/107/107 103/103/103
f 107/107/107 108/108/108 103/103/103
f 108/108/108 107/107/107 109/109/109
f 110/110/110 108/108/108 109/109/109
f 109/109/109 111/111/111 110/110/110
f 111/111/111 112/112/112 110/110/110
f 115/115/115 114/114/114 113/113/113
f 116/116/116 115/115/115 113/113/113
f 119/119/119 118/118/118 117/117/117
f 120/120/120 119/119/119 117/117/117
f 120/120/120 121/121/121 119/119/119
f 119/119/119 121/121/121 122/122/122
f 123/123/123 119/119/119 122/122/122
f 123/123/123 122/122/122 124/124/124
f 125/125/125 123/123/123 124/124/124
f 125/125/125 124/124/124 126/126/126
f 124/124/124 127/127/127 126/126/126
f 125/125/125 128/128/128 123/123/123
f 128/128/128 129/129/129 123/123/123
f 126/126/126 127/127/127 130/130/130
f 130/130/130 127/127/127 131/131/131
f 129/129/129 128/128/128 132/132/132
f 131/131/131 132/132/132 130/130/130
f 128/128/128 133/133/133 132/132/132
f 132/132/132 133/133/133 130/130/130
f 136/136/136 135/135/135 134/134/134
f 135/135/135 137/137/137 134/134/134
f 134/134/134 137/137/137 138/138/138
f 137/137/137 139/139/139 138/138/138
f 138/138/138 139/139/139 140/140/140
f 139/139/139 141/141/141 140/140/140
f 140/140/140 141/141/141 142/142/142
f 141/141/141 143/143/143 142/142/142
f 146/146/146 145/145/145 144/144/144
f 145/145/145 147/147/147 144/144/144
f 144/144/144 147/147/147 148/148/148
f 147/147/147 149/149/149 148/148/148
f 148/148/148 149/149/149 150/150/150
f 149/149/149 151/151/151 150/150/150
f 150/150/150 151/151/151 152/152/152
f 151/151/151 153/153/153 152/152/152
f 156/156/156 155/155/155 154/154/154
f 157/157/157 155/155/155 156/156/156
f 158/158/158 155/155/155 157/157/157
f 161/161/161 160/160/160 159/159/159
f 160/160/160 162/162/162 159/159/159
f 159/159/159 162/162/162 163/163/163
f 162/162/162 164/164/164 163/163/163
f 163/163/163 164/164/164 165/165/165
f 164/164/164 166/166/166 165/165/165
f 165/165/165 166/166/166 167/167/167
f 166/166/166 168/168/168 167/167/167
f 171/171/171 170/170/170 169/169/169
f 170/170/170 172/172/172 169/169/169
f 169/169/169 172/172/172 173/173/173
f 172/172/172 174/174/174 173/173/173
f 175/175/175 172/172/172 170/170/170
f 174/174/174 172/172/172 175/175/175
f 176/176/176 175/175/175 170/170/170
f 175/175/175 176/176/176 177/177/177
f 178/178/178 174/174/174 175/175/175
f 179/179/179 175/175/175 177/177/177
f 178/178/178 175/175/175 179/179/179
f 180/180/180 178/178/178 179/179/179
f 183/183/183 182/182/182 181/181/181
f 184/184/184 183/183/183 181/181/181
f 184/184/184 181/181/181 185/185/185
f 186/186/186 184/184/184 185/185/185
f 185/185/185 187/187/187 186/186/186
f 187/187/187 188/188/188 186/186/186
f 188/188/188 187/187/187 189/189/189
f 190/190/190 188/188/188 189/189/189
f 193/193/193 192/192/192 191/191/191
f 194/194/194 193/193/193 191/191/191
f 197/197/197 196/196/196 195/195/195
f 196/196/196 198/198/198 195/195/195
f 195/195/195 198/198/198 199/199/199
f 198/198/198 200/200/200 199/199/199
f 199/199/199 200/200/200 201/201/201
f 200/200/200 202/202/202 201/201/201
f 201/201/201 202/202/202 203/203/203
f 202/202/202 204/204/204 203/203/203
f 207/207/207 206/206/206 205/205/205
f 205/205/205 206/206/206 208/208/208
f 208/208/208 206/206/206 209/209/209
f 209/209/209 206/206/206 210/210/210
f 206/206/206 211/211/211 210/210/210
f 210/210/210 211/211/211 212/212/212
f 213/213/213 210/210/210 212/212/212
f 216/216/216 215/215/215 214/214/214
f 217/217/217 216/216/216 214/214/214
f 218/218/218 216/216/216 217/217/217
f 219/219/219 218/218/218 217/217/217
f 218/218/218 219/219/219 220/220/220
f 221/221/221 218/218/218 220/220/220
f 221/221/221 220/220/220 222/222/222
f 223/223/223 221/221/221 222/222/222
f 223/223/223 222/222/222 224/224/224
f 222/222/222 225/225/225 224/224/224
f 228/228/228 227/227/227 226/226/226
f 229/229/229 228/228/228 226/226/226
f 232/232/232 231/231/231 230/230/230
f 230/230/230 231/231/231 233/233/233
f 233/233/233 231/231/231 234/234/234
f 234/234/234 231/231/231 235/235/235
f 235/235/235 231/231/231 236/236/236
f 239/239/239 238/238/238 237/237/237
f 238/238/238 240/240/240 237/237/237
f 238/238/238 241/241/241 240/240/240
f 237/237/237 240/240/240 242/242/242
f 241/241/241 243/243/243 240/240/240
f 240/240/240 244/244/244 242/242/242
f 240/240/240 243/243/243 244/244/244
f 243/243/243 245/245/245 244/244/244
f 242/242/242 244/244/244 246/246/246
f 244/244/244 245/245/245 247/247/247
f 245/245/245 248/248/248 247/247/247
f 244/244/244 249/249/249 246/246/246
f 244/244/244 247/247/247 249/249/249
f 248/248/248 250/250/250 247/247/247
f 251/251/251 250/250/250 248/248/248
f 251/251/251 252/252/252 250/250/250
f 246/246/246 249/249/249 253/253/253
f 254/254/254 246/246/246 253/253/253
f 247/247/247 255/255/255 249/249/249
f 255/255/255 253/253/253 249/249/249
f 247/247/247 250/250/250 255/255/255
f 256/256/256 253/253/253 255/255/255
f 256/256/256 255/255/255 250/250/250
f 253/253/253 256/256/256 254/254/254
f 252/252/252 257/257/257 250/250/250
f 256/256/256 250/250/250 257/257/257
f 252/252/252 258/258/258 257/257/257
f 258/258/258 259/259/259 257/257/257
f 257/257/257 259/259/259 256/256/256
f 259/259/259 260/260/260 256/256/256
f 254/254/254 256/256/256 260/260/260
f 261/261/261 254/254/254 260/260/260
f 262/262/262 254/254/254 261/261/261
f 265/265/265 264/264/264 263/263/263
f 264/264/264 266/266/266 263/263/263
f 266/266/266 267/267/267 263/263/263
f 270/270/270 269/269/269 268/268/268
f 271/271/271 270/270/270 268/268/268
f 271/271/271 268/268/268 272/272/272
f 273/273/273 271/271/271 272/272/272
f 273/273/273 272/272/272 274/274/274
f 272/272/272 275/275/275 274/274/274
f 275/275/275 276/276/276 274/274/274
f 276/276/276 277/277/277 274/274/274
f 280/280/280 279/279/279 278/278/278
f 281/281/281 278/278/278 279/279/279
f 281/281/281 282/282/282 278/278/278
f 283/283/283 278/278/278 282/282/282
f 284/284/284 283/283/283 282/282/282
f 284/284/284 282/282/282 285/285/285
f 286/286/286 284/284/284 285/285/285
f 286/286/286 285/285/285 287/287/287
f 288/288/288 286/286/286 287/287/287
f 288/288/288 287/287/287 289/289/289
f 290/290/290 288/288/288 289/289/289
f 293/293/293 292/292/292 291/291/291
f 294/294/294 293/293/293 291/291/291
f 294/294/294 291/291/291 295/295/295
f 296/296/296 294/294/294 295/295/295
f 296/296/296 295/295/295 297/297/297
f 298/298/298 296/296/296 297/297/297
f 297/297/297 299/299/299 298/298/298
f 299/299/299 297/297/297 300/300/300
f 297/297/297 301/301/301 300/300/300
f 304/304/304 303/303/303 302/302/302
f 303/303/303 305/305/305 302/302/302
f 303/303/303 306/306/306 305/305/305
f 306/306/306 307/307/307 305/305/305
f 307/307/307 306/306/306 308/308/308
f 306/306/306 309/309/309 308/308/308
f 309/309/309 310/310/310 308/308/308
f 310/310/310 311/311/311 308/308/308
f 312/312/312 311/311/311 310/310/310
f 312/312/312 313/313/313 311/311/311
f 313/313/313 314/314/314 311/311/311
f 314/314/314 315/315/315 311/311/311
f 315/315/315 316/316/316 311/311/311
f 317/317/317 313/313/313 312/312/312
f 318/318/318 317/317/317 312/312/312
f 319/319/319 317/317/317 318/318/318
f 320/320/320 319/319/319 318/318/318
f 323/323/323 322/322/322 321/321/321
f 321/321/321 322/322/322 324/324/324
f 324/324/324 322/322/322 325/325/325
f 328/328/328 327/327/327 326/326/326
f 327/327/327 329/329/329 326/326/326
f 327/327/327 330/330/330 329/329/329
f 330/330/330 331/331/331 329/329/329
f 330/330/330 332/332/332 331/331/331
f 332/332/332 333/333/333 331/331/331
f 336/336/336 335/335/335 334/334/334
f 337/337/337 336/336/336 334/334/334
f 337/337/337 334/334/334 338/338/338
f 334/334/334 339/339/339 338/338/338
f 338/338/338 339/339/339 340/340/340
f 339/339/339 341/341/341 340/340/340
f 344/344/344 343/343/343 342/342/342
f 345/345/345 344/344/344 342/342/342
f 346/346/346 345/345/345 342/342/342
f 347/347/347 346/346/346 342/342/342
f 347/347/347 348/348/348 346/346/346
f 348/348/348 349/349/349 346/346/346
f 352/352/352 351/351/351 350/350/350
f 353/353/353 352/352/352 350/350/350
f 356/356/356 355/355/355 354/354/354
f 357/357/357 356/356/356 354/354/354
f 357/357/357 358/358/358 356/356/356
f 358/358/358 359/359/359 356/356/356
f 362/362/362 361/361/361 360/360/360
f 363/363/363 362/362/362 360/360/360
f 363/363/363 364/364/364 362/362/362
f 364/364/364 365/365/365 362/362/362
f 364/364/364 366/366/366 365/365/365
f 366/366/366 367/367/367 365/365/365
f 370/370/370 369/369/369 368/368/368
f 371/371/371 370/370/370 368/368/368
f 371/371/371 368/368/368 372/372/372
f 371/371/371 372/372/372 373/373/373
f 372/372/372 374/374/374 373/373/373
f 377/377/377 376/376/376 375/375/375
f 378/378/378 377/377/377 375/375/375
f 381/381/381 380/380/380 379/379/379
f 380/380/380 382/382/382 379/379/379
f 383/383/383 382/382/382 380/380/380
f 384/384/384 383/383/383 380/380/380
f 387/387/387 386/386/386 385/385/385
f 386/386/386 388/388/388 385/385/385
f 388/388/388 389/389/389 385/385/385
f 389/389/389 390/390/390 385/385/385
f 393/393/393 392/392/392 391/391/391
f 392/392/392 394/394/394 391/391/391
f 392/392/392 395/395/395 394/394/394
f 395/395/395 396/396/396 394/394/394
f 397/397/397 396/396/396 395/395/395
f 398/398/398 397/397/397 395/395/395
f 397/397/397 398/398/398 399/399/399
f 400/400/400 397/397/397 399/399/399
f 399/399/399 401/401/401 400/400/400
f 401/401/401 402/402/402 400/400/400
f 405/405/405 404/404/404 403/403/403
f 404/404/404 406/406/406 403/403/403
f 403/403/403 406/406/406 407/407/407
f 403/403/403 407/407/407 408/408/408
f 408/408/408 407/407/407 409/409/409
f 410/410/410 408/408/408 409/409/409
f 410/410/410 409/409/409 411/411/411
f 411/411/411 409/409/409 412/412/412
f 409/409/409 413/413/413 412/412/412
f 416/416/416 415/415/415 414/414/414
f 417/417/417 416/416/416 414/414/414
f 418/418/418 417/417/417 414/414/414
f 419/419/419 418/418/418 414/414/414
f 418/418/418 419/419/419 420/420/420
f 419/419/419 421/421/421 420/420/420
f 422/422/422 420/420/420 421/421/421
f 423/423/423 422/422/422 421/421/421
f 426/426/426 425/425/425 424/424/424
f 427/427/427 426/426/426 424/424/424
f 430/430/430 429/429/429 428/428/428
f 429/429/429 431/431/431 428/428/428
f 432/432/432 431/431/431 429/429/429
f 432/432/432 429/429/429 433/433/433
f 429/429/429 434/434/434 433/433/433
f 433/433/433 434/434/434 435/435/435
f 434/434/434 436/436/436 435/435/435
f 435/435/435 436/436/436 437/437/437
f 438/438/438 435/435/435 437/437/437
f 439/439/439 436/436/436 434/434/434
f 440/440/440 439/439/439 434/434/434
f 438/438/438 437/437/437 441/441/441
f 438/438/438 441/441/441 442/442/442
f 439/439/439 440/440/440 443/443/443
f 443/443/443 442/442/442 441/441/441
f 444/444/444 439/439/439 443/443/443
f 444/444/444 443/443/443 441/441/441
f 447/447/447 446/446/446 445/445/445
f 448/448/448 447/447/447 445/445/445
f 448/448/448 445/445/445 449/449/449
f 450/450/450 448/448/448 449/449/449
f 450/450/450 449/449/449 451/451/451
f 452/452/452 450/450/450 451/451/451
f 452/452/452 451/451/451 453/453/453
f 454/454/454 452/452/452 453/453/453
f 457/457/457 456/456/456 455/455/455
f 458/458/458 457/457/457 455/455/455
f 458/458/458 455/455/455 459/459/459
f 460/460/460 458/458/458 459/459/459
f 460/460/460 459/459/459 461/461/461
f 462/462/462 460/460/460 461/461/461
f 462/462/462 461/461/461 463/463/463
f 464/464/464 462/462/462 463/463/463
f 467/467/467 466/466/466 465/465/465
f 467/467/467 468/468/468 466/466/466
f 467/467/467 469/469/469 468/468/468
f 472/472/472 471/471/471 470/470/470
f 473/473/473 472/472/472 470/470/470
f 473/473/473 470/470/470 474/474/474
f 475/475/475 473/473/473 474/474/474
f 475/475/475 474/474/474 476/476/476
f 477/477/477 475/475/475 476/476/476
f 477/477/477 476/476/476 478/478/478
f 479/479/479 477/477/477 478/478/478
f 482/482/482 481/481/481 480/480/480
f 481/481/481 483/483/483 480/480/480
f 480/480/480 483/483/483 484/484/484
f 483/483/483 485/485/485 484/484/484
f 486/486/486 484/484/484 485/485/485
f 487/487/487 486/486/486 485/485/485
f 486/486/486 487/487/487 488/488/488
f 487/487/487 489/489/489 488/488/488
f 492/492/492 491/491/491 490/490/490
f 493/493/493 492/492/492 490/490/490
f 496/496/496 495/495/495 494/494/494
f 497/497/497 496/496/496 494/494/494
f 497/497/497 494/494/494 498/498/498
f 499/499/499 497/497/497 498/498/498
f 499/499/499 498/498/498 500/500/500
f 501/501/501 499/499/499 500/500/500
f 501/501/501 500/500/500 502/502/502
f 503/503/503 501/501/501 502/502/502
f 506/506/506 505/505/505 504/504/504
f 506/506/506 504/504/504 507/507/507
f 506/506/506 507/507/507 508/508/508
f 506/506/506 508/508/508 509/509/509
f 510/510/510 506/506/506 509/509/509
f 510/510/510 509/509/509 511/511/511
f 509/509/509 512/512/512 511/511/511
f 515/515/515 514/514/514 513/513/513
f 514/514/514 516/516/516 513/513/513
f 514/514/514 517/517/517 516/516/516
f 517/517/517 518/518/518 516/516/516
f 518/518/518 517/517/517 519/519/519
f 517/517/517 520/520/520 519/519/519
f 519/519/519 520/520/520 521/521/521
f 520/520/520 522/522/522 521/521/521
f 521/521/521 522/522/522 523/523/523
f 524/524/524 521/521/521 523/523/523
f 527/527/527 526/526/526 525/525/525
f 528/528/528 527/527/527 525/525/525
f 531/531/531 530/530/530 529/529/529
f 531/531/531 529/529/529 532/532/532
f 531/531/531 532/532/532 533/533/533
f 531/531/531 533/533/533 534/534/534
f 531/531/531 534/534/534 535/535/535
f 538/538/538 537/537/537 536/536/536
f 539/539/539 538/538/538 536/536/536
f 540/540/540 538/538/538 539/539/539
f 539/539/539 536/536/536 541/541/541
f 542/542/542 540/540/540 539/539/539
f 543/543/543 539/539/539 541/541/541
f 542/542/542 539/539/539 543/543/543
f 544/544/544 542/542/542 543/543/543
f 543/543/543 541/541/541 545/545/545
f 544/544/544 543/543/543 546/546/546
f 547/547/547 544/544/544 546/546/546
f 548/548/548 543/543/543 545/545/545
f 546/546/546 543/543/543 548/548/548
f 549/549/549 547/547/547 546/546/546
f 549/549/549 550/550/550 547/547/547
f 551/551/551 550/550/550 549/549/549
f 548/548/548 545/545/545 552/552/552
f 545/545/545 553/553/553 552/552/552
f 554/554/554 546/546/546 548/548/548
f 552/552/552 554/554/554 548/548/548
f 549/549/549 546/546/546 554/554/554
f 552/552/552 555/555/555 554/554/554
f 554/554/554 555/555/555 549/549/549
f 555/555/555 552/552/552 553/553/553
f 556/556/556 551/551/551 549/549/549
f 549/549/549 555/555/555 556/556/556
f 557/557/557 551/551/551 556/556/556
f 558/558/558 557/557/557 556/556/556
f 558/558/558 556/556/556 555/555/555
f 559/559/559 558/558/558 555/555/555
f 555/555/555 553/553/553 559/559/559
f 553/553/553 560/560/560 559/559/559
f 553/553/553 561/561/561 560/560/560
f 564/564/564 563/563/563 562/562/562
f 565/565/565 564/564/564 562/562/562
f 566/566/566 565/565/565 562/562/562
f 569/569/569 568/568/568 567/567/567
f 568/568/568 570/570/570 567/567/567
f 567/567/567 570/570/570 571/571/571
f 570/570/570 572/572/572 571/571/571
f 571/571/571 572/572/572 573/573/573
f 574/574/574 571/571/571 573/573/573
f 575/575/575 574/574/574 573/573/573
f 576/576/576 575/575/575 573/573/573
f 579/579/579 578/578/578 577/577/577
f 577/577/577 580/580/580 579/579/579
f 581/581/581 580/580/580 577/577/577
f 577/577/577 582/582/582 581/581/581
f 582/582/582 583/583/583 581/581/581
f 581/581/581 583/583/583 584/584/584
f 583/583/583 585/585/585 584/584/584
f 584/584/584 585/585/585 586/586/586
f 585/585/585 587/587/587 586/586/586
f 586/586/586 587/587/587 588/588/588
f 587/587/587 589/589/589 588/588/588
f 592/592/592 591/591/591 590/590/590
f 591/591/591 593/593/593 590/590/590
f 590/590/590 593/593/593 594/594/594
f 593/593/593 595/595/595 594/594/594
f 594/594/594 595/595/595 596/596/596
f 595/595/595 597/597/597 596/596/596
f 598/598/598 596/596/596 597/597/597
f 596/596/596 598/598/598 599/599/599
f 600/600/600 596/596/596 599/599/599
f 603/603/603 602/602/602 601/601/601
f 604/604/604 603/603/603 601/601/601
f 605/605/605 603/603/603 604/604/604
f 606/606/606 605/605/605 604/604/604
f 605/605/605 606/606/606 607/607/607
f 608/608/608 605/605/605 607/607/607
f 609/609/609 608/608/608 607/607/607
f 610/610/610 609/609/609 607/607/607
f 610/610/610 611/611/611 609/609/609
f 612/612/612 611/611/611 610/610/610
f 613/613/613 612/612/612 610/610/610
f 614/614/614 613/613/613 610/610/610
f 615/615/615 614/614/614 610/610/610
f 612/612/612 616/616/616 611/611/611
f 616/616/616 617/617/617 611/611/611
f 616/616/616 618/618/618 617/617/617
f 618/618/618 619/619/619 617/617/617
f 622/622/622 621/621/621 620/620/620
f 622/622/622 620/620/620 623/623/623
f 622/622/622 623/623/623 624/624/624
