g A_prop_grass_01
v 0.317105114 0.317106545 -0.408925802
v 0.328801274 0.334406555 -0.363412499
v 0.250227302 0.302422166 -0.42197603
v 0.177849576 0.310482889 -0.266300321
v 0.326358378 0.348082453 -0.274661392
v 0.300044835 0.352510333 -0.187766969
v 0.265395135 0.319764435 -0.104943119
v 0.0842430741 0.207248852 -0.0742799342
v 0.224993989 0.267097801 -0.0378376804
v 0.187480375 0.187000722 0.00980850216
v 0.146605134 0.113665797 0.0260804798
v 0.15340519 0.319793314 -0.441377103
v 0.19345662 0.304573119 -0.460226268
v 0.0934887305 0.344878525 -0.373388857
v 0.0496206954 0.350217164 -0.295943379
v 0.0115574859 0.314403534 -0.222818866
v -0.0171946734 0.262286305 -0.150489405
v -0.0320060998 0.176827535 -0.0875985995
v 0.054027684 0.0879317299 -0.0199198797
v 0.0557314232 0.0564984605 -0.0136937946
v -0.0246855803 0.116631858 -0.0525370538
v 0.0433979966 0.0559916385 -0.0211354401
v 0.0433979966 0.0559916385 -0.0211354401
v 0.0557314232 0.0564984605 -0.0136937946
v 0.0409869179 0.000617799757 0.00990322605
v 0.0286534876 0.000110960005 0.00246157171
v 0.0279541798 -0.0636539459 0.026040405
v 0.0156207513 -0.0641607791 0.0185987521
v 0.0226135552 -0.130262882 0.02987656
v 0.0102801295 -0.130769715 0.022434907
v 0.46785894 0.373516291 0.227334529
v 0.426772296 0.384539098 0.251884252
v 0.462542951 0.360384196 0.160451651
v 0.296037465 0.347478241 0.137521043
v 0.341899395 0.386326015 0.27547732
v 0.253032148 0.379167676 0.275880247
v 0.170229539 0.336327553 0.266172498
v 0.103682175 0.221492574 0.101742111
v 0.102881417 0.276108235 0.24595806
v 0.0579016805 0.191763371 0.222033933
v 0.0402439982 0.118026748 0.186160654
v 0.450446576 0.378994703 0.0646489337
v 0.481428176 0.366964132 0.0963228941
v 0.366844118 0.394093096 0.0287535638
v 0.281575888 0.38890028 0.0100167943
v 0.207185552 0.344305456 -0.00576729747
v 0.138275489 0.284038991 -0.0135460086
v 0.0863590613 0.19269307 -0.0119768521
v 0.0595168285 0.0982079506 0.085395813
v 0.058188647 0.0668561682 0.0878256112
v 0.0634920746 0.129691139 0.00311993598
v 0.0616078191 0.0672261938 0.07411322
v 0.0616078191 0.0672261938 0.07411322
v 0.058188647 0.0668561682 0.0878256112
v 0.0390626788 0.00935355201 0.0790793821
v 0.0424818546 0.00972358696 0.0653669909
v 0.0284183118 -0.0553272851 0.0695424601
v 0.0318374857 -0.0549572445 0.0558300689
v 0.0317142494 -0.120625265 0.0636154041
v 0.0351334177 -0.120255232 0.0499030165
v -0.424877733 0.266321361 -0.387704104
v -0.369936049 0.293317795 -0.405981809
v -0.439189702 0.253273308 -0.34096694
v -0.306967229 0.286567748 -0.236338362
v -0.287162155 0.32087338 -0.384559095
v -0.478021026 0.252763242 -0.310423225
v -0.210165262 0.339244962 -0.339875668
v -0.482370824 0.268335342 -0.251741409
v -0.434293121 0.304454178 -0.179452971
v -0.370493084 0.322408676 -0.119804859
v -0.133328587 0.320352584 -0.286285639
v -0.139441818 0.231191099 -0.1073713
v -0.0698940381 0.279364586 -0.229671076
v -0.303295463 0.29898867 -0.0648994595
v -0.0203698538 0.20818755 -0.178934887
v -0.232285365 0.259251356 -0.0184995215
v -0.00282105431 0.13876234 -0.132182837
v -0.162148982 0.184960812 0.0137439389
v -0.064098157 0.107016206 -0.0510276705
v -0.0529529229 0.0769465715 -0.0498801321
v -0.117623724 0.130992711 0.0171155408
v -0.062823467 0.0753943324 -0.0394921042
v -0.062823467 0.0753943324 -0.0394921042
v -0.0529529229 0.0769465715 -0.0498801321
v -0.0250996575 0.0256495569 -0.0277514122
v -0.0349702165 0.0240973178 -0.0173633806
v -0.00276471605 -0.035128966 -0.0085618468
v -0.0126352739 -0.0366812013 0.00182618608
v 0.00982618332 -0.100237012 0.000515589723
v -4.43744648E-05 -0.101789251 0.0109036202
v -0.0311207995 0.166683733 0.120447204
v -0.096835956 0.171430871 0.0554767214
v -0.0602683611 0.0998208374 0.0533067062
v -0.054785192 0.225234732 0.155052617
v -0.1170168 0.303941697 0.200480998
v -0.287856728 0.308198273 0.145811006
v -0.191075251 0.346120745 0.245317072
v -0.270793438 0.370511383 0.285175174
v -0.351348341 0.351954103 0.324797124
v -0.503930986 0.291844368 0.272289902
v -0.436723709 0.31230253 0.346793354
v -0.493952781 0.287905395 0.318901986
v -0.478670031 0.290022284 0.33905369
v -0.255037069 0.290188283 -0.036570482
v -0.18349418 0.218207642 -0.0557537824
v -0.128340259 0.150381625 -0.0463924482
v -0.0663533732 0.0995564088 0.0397982299
v -0.0602683611 0.0998208374 0.0533067062
v -0.33589676 0.332009345 -0.00296843518
v -0.417881876 0.352737725 0.0470456742
v -0.489373654 0.336328715 0.104948498
v -0.540531278 0.313285351 0.178304389
v -0.554319918 0.292616665 0.223393112
v -0.542378008 0.289883286 0.246259734
v -0.0602683611 0.0998208374 0.0533067062
v -0.0663533732 0.0995564088 0.0397982299
v -0.0315603726 0.0469669327 0.0278598778
v -0.0254753623 0.0472313687 0.0413683578
v -0.00118044845 -0.0151009392 0.0211193841
v 0.00490456074 -0.0148365013 0.0346278623
v 0.0160349458 -0.0817184076 0.0202301499
v 0.0221199505 -0.0814539716 0.0337386318
v 0.0754794478 0.219357446 0.123059176
v 0.00506411912 0.198130295 0.0713441372
v 0.0115556903 0.165302992 0.0751995817
v 0.0800238401 0.279365867 0.158902749
v -0.0610217191 0.364334524 0.162030309
v 0.0589120388 0.367514998 0.216015399
v 0.0184332654 0.424206048 0.278641552
v -0.0329401381 0.465673238 0.339632243
v -0.201685771 0.451890469 0.339441001
v -0.0953930616 0.466938913 0.40326193
v -0.172973529 0.449987978 0.45361656
v -0.262947351 0.442248076 0.410056412
v -0.217894346 0.439500719 0.461566508
v -0.320133328 0.480664551 0.333371967
v -0.322331041 0.463441312 0.380340874
v -0.293724179 0.491687834 0.24822031
v -0.245834425 0.491089612 0.170961931
v -0.194943994 0.452772856 0.0997251272
v -0.144658223 0.394464374 0.0451300479
v -0.105035618 0.309690952 0.00857202522
v -0.0694480538 0.232112765 0.00321198464
v 0.00165101257 0.166891113 0.0648495257
v 0.0115556903 0.165302992 0.0751995817
v 0.0115556903 0.165302992 0.0751995817
v 0.00165101257 0.166891113 0.0648495257
v 0.0158556383 0.10918498 0.045741953
v 0.0257603154 0.107596859 0.0560920164
v 0.0256183352 0.0435084514 0.0333968922
v 0.0355230123 0.0419203304 0.043746952
v 0.0246059243 -0.0233726427 0.0309711359
v 0.0345106013 -0.0249607489 0.0413212068
v 0.0691000894 0.178108826 0.111868933
v -0.0187371094 0.136116773 0.125219136
v -0.00410870556 0.102727637 0.12005306
v 0.0878694132 0.24626939 0.141252622
v -0.0325272568 0.316849917 0.268271714
v 0.0983951837 0.340895146 0.209424332
v 0.105461501 0.398266226 0.293929845
v 0.106379136 0.436919659 0.384242356
v -0.0155009013 0.386472136 0.5140329
v 0.109538838 0.43048045 0.4814381
v 0.0949854553 0.40023753 0.578579307
v -0.00375228049 0.36921981 0.614612341
v 0.070188731 0.38020137 0.618595123
v -0.11367625 0.391655862 0.604193032
v -0.0751468763 0.376780719 0.640108347
v -0.162764043 0.401773125 0.519761324
v -0.187426403 0.404684186 0.423561424
v -0.19733341 0.368423581 0.326106012
v -0.190569147 0.312082201 0.239946887
v -0.162010834 0.221043587 0.165287152
v -0.133873373 0.150876239 0.134380564
v -0.0198106859 0.101448342 0.120011874
v -0.00410870556 0.102727637 0.12005306
v -0.00410870556 0.102727637 0.12005306
v -0.0198106859 0.101448342 0.120011874
v -0.0121856118 0.0411406644 0.0890230164
v 0.00351637835 0.042419944 0.0890642181
v -0.000916419027 -0.0280506797 0.065901868
v 0.0147855682 -0.0267713964 0.0659430549
v 0.0103697944 -0.0999642164 0.0586102381
v 0.0260717813 -0.0986849368 0.0586514287
v 0.0539746694 0.307611763 0.0114976717
v 0.0643771216 0.350428194 -0.00676285988
v 0.0765233561 0.349977821 0.000984065467
v 0.0670282841 0.305585802 0.017916929
v 0.0303775668 0.197430283 0.0298980735
v 0.0437782146 0.194934174 0.0358368456
v 0.0108912215 0.0834671929 0.0333084539
v 0.0246233791 0.0805960819 0.0388293937
v -0.00739426725 -0.0255824495 0.0269112792
v 0.00666940445 -0.0288285632 0.0320143923
v -0.0217615794 -0.135096401 0.00560611254
v -0.00736639602 -0.138717502 0.0102913827
v 0.0210253634 0.373976856 -0.0219573062
v 0.0749629512 0.381099731 -0.0102825146
v 0.0643771216 0.350428194 -0.00676285988
v 0.0928649679 0.440104127 -0.0380971171
v -0.0126561271 0.423361987 -0.0460273959
v -0.0141753824 0.476026803 -0.0844097584
v 0.128327042 0.484039843 -0.10474775
v -0.000301499356 0.513548434 -0.12760444
v 0.0329188854 0.528774142 -0.186011389
v 0.157111406 0.491317958 -0.168792039
v 0.0713526532 0.51901859 -0.231258497
v 0.112816781 0.48806271 -0.264714092
v 0.186763451 0.471739352 -0.231033057
v 0.146559 0.473371834 -0.265963584
v 0.268779814 0.495571822 -0.18499501
v 0.246804059 0.474584371 -0.224850118
v 0.270424873 0.503238261 -0.128905356
v 0.260742247 0.500799835 -0.0780046284
v 0.244871348 0.488378674 -0.0244145934
v 0.215695396 0.456205726 0.0197776761
v 0.186434969 0.421502918 0.0342268869
v 0.158966452 0.380596459 0.0394413285
v 0.0765233561 0.349977821 0.000984065467
v 0.0643771216 0.350428194 -0.00676285988
vt 0.392155021 0.0370150506
vt 0.383686095 0.0287589729
vt 0.387179166 0.0526705682
vt 0.344980568 0.0507360399
vt 0.365180284 0.0188827217
vt 0.344895393 0.0137319267
vt 0.322878867 0.0121468008
vt 0.28635034 0.0488022268
vt 0.300775558 0.0135491788
vt 0.277736813 0.0170528591
vt 0.259084851 0.0240409076
vt 0.380922824 0.0753193796
vt 0.389702946 0.0685870349
vt 0.359951645 0.0819515884
vt 0.339607865 0.0840034187
vt 0.318885475 0.0832009017
vt 0.2970815 0.0805644691
vt 0.273011118 0.0750403106
vt 0.253281981 0.0483880937
vt 0.245689601 0.0470157564
vt 0.257632226 0.0692643821
vt 0.245409697 0.0503765047
vt 0.245409697 0.0503765047
vt 0.245689601 0.0470157564
vt 0.230710894 0.0463577211
vt 0.230444342 0.0498072803
vt 0.214500815 0.0463226736
vt 0.214232713 0.0497722328
vt 0.198434502 0.0462617576
vt 0.198166758 0.0497110784
vt 0.402338177 0.128904834
vt 0.393948942 0.120892659
vt 0.397615224 0.144309297
vt 0.356208831 0.142836347
vt 0.37569955 0.111392394
vt 0.355752915 0.106544629
vt 0.334143966 0.105211392
vt 0.298686475 0.141529337
vt 0.312479526 0.106809154
vt 0.289919108 0.110477224
vt 0.271695942 0.117518559
vt 0.391707093 0.166585818
vt 0.400250643 0.159894481
vt 0.371205539 0.173301235
vt 0.351273686 0.175518289
vt 0.330941707 0.174939647
vt 0.309530288 0.172573343
vt 0.285867125 0.167397156
vt 0.266249448 0.141455784
vt 0.25878939 0.140186563
vt 0.270726055 0.161887065
vt 0.258548647 0.143485203
vt 0.258548647 0.143485203
vt 0.25878939 0.140186563
vt 0.244092017 0.139691606
vt 0.243865401 0.143077508
vt 0.228193194 0.139820352
vt 0.227965027 0.143206134
vt 0.212435275 0.139922157
vt 0.212207109 0.143307939
vt 0.908334792 0.83429271
vt 0.894674957 0.828011751
vt 0.910905361 0.845974088
vt 0.874774754 0.867712677
vt 0.873751104 0.830095053
vt 0.919227362 0.854131758
vt 0.853985369 0.837188005
vt 0.91821909 0.868402421
vt 0.904341638 0.885549664
vt 0.888371825 0.898458838
vt 0.834830463 0.848286688
vt 0.828664541 0.895942807
vt 0.81730485 0.861697674
vt 0.870480835 0.909069538
vt 0.799871802 0.877135634
vt 0.850937486 0.918846428
vt 0.788031042 0.893294513
vt 0.827995241 0.927990198
vt 0.796659291 0.916865051
vt 0.78958416 0.919938385
vt 0.811963081 0.931769848
vt 0.791222334 0.922891378
vt 0.791222334 0.922891378
vt 0.78958416 0.919938385
vt 0.776770115 0.927718639
vt 0.778465867 0.930733979
vt 0.763276637 0.936698139
vt 0.764971077 0.939714372
vt 0.749888718 0.945576549
vt 0.751582623 0.948592305
vt 0.920396924 0.605168581
vt 0.94193995 0.611737251
vt 0.939228714 0.592325568
vt 0.91424185 0.620744586
vt 0.909920454 0.646262288
vt 0.943921506 0.674033821
vt 0.908810258 0.668278277
vt 0.909046769 0.689207435
vt 0.912371397 0.710232913
vt 0.943977475 0.735671937
vt 0.920043766 0.73182404
vt 0.933725178 0.740521193
vt 0.927685499 0.740365386
vt 0.98030436 0.646778584
vt 0.975858748 0.622928619
vt 0.967221081 0.604265928
vt 0.942691624 0.59237206
vt 0.939228714 0.592325568
vt 0.98259002 0.668819368
vt 0.98206383 0.691172719
vt 0.977612495 0.712416708
vt 0.968103349 0.732052386
vt 0.959764659 0.741023362
vt 0.953599155 0.741078615
vt 0.939228714 0.592325568
vt 0.942691624 0.59237206
vt 0.942319512 0.576960385
vt 0.938761711 0.5769279
vt 0.941225111 0.560325444
vt 0.937667072 0.560290754
vt 0.940167367 0.543836117
vt 0.936609387 0.543801665
vt 0.0248300731 0.315996647
vt 0.0456724763 0.31109485
vt 0.0432897508 0.303314775
vt 0.0193659365 0.331493199
vt 0.0473770499 0.360604703
vt 0.0152979791 0.355778068
vt 0.0136053264 0.377088159
vt 0.0140170753 0.398107886
vt 0.0477306545 0.420707583
vt 0.0174507499 0.418544382
vt 0.0251919925 0.438820839
vt 0.0478986502 0.443831235
vt 0.0322591364 0.447213024
vt 0.0713640451 0.439108431
vt 0.063692987 0.447984815
vt 0.0806590319 0.420555323
vt 0.0850872397 0.399923205
vt 0.0859345496 0.377592117
vt 0.0832244456 0.356091946
vt 0.0785788298 0.333524853
vt 0.0707175434 0.315060854
vt 0.0466204584 0.303432673
vt 0.0432897508 0.303314775
vt 0.0432897508 0.303314775
vt 0.0466204584 0.303432673
vt 0.0465621352 0.28843227
vt 0.0431028008 0.288339227
vt 0.0457862616 0.27223736
vt 0.0423270166 0.272141874
vt 0.0450441241 0.256183863
vt 0.04158476 0.256088674
vt 0.16051273 0.0820345432
vt 0.165975615 0.10499461
vt 0.17420952 0.101490811
vt 0.143821642 0.0760073215
vt 0.108300135 0.105840638
vt 0.1176707 0.0709106475
vt 0.0949416012 0.0679275542
vt 0.0722203106 0.0666194707
vt 0.0445532054 0.100956276
vt 0.0496670455 0.0682801753
vt 0.0268276185 0.0748182088
vt 0.0193424672 0.0991178304
vt 0.0170455426 0.081778124
vt 0.0224638432 0.125095561
vt 0.0134470919 0.115970805
vt 0.0419195145 0.136745051
vt 0.0640060753 0.143108085
vt 0.0879835337 0.146013096
vt 0.111161336 0.145534471
vt 0.143304512 0.147213057
vt 0.167818949 0.132989243
vt 0.174419448 0.104954317
vt 0.17420952 0.101490811
vt 0.17420952 0.101490811
vt 0.174419448 0.104954317
vt 0.190762565 0.10328503
vt 0.190457389 0.0995118171
vt 0.208286092 0.100551203
vt 0.207986578 0.0967770368
vt 0.225661501 0.0978731662
vt 0.225362048 0.0940991193
vt 0.113458171 0.270258218
vt 0.11464867 0.281641245
vt 0.117957123 0.281146526
vt 0.116913147 0.269561976
vt 0.108560465 0.243298143
vt 0.112043001 0.242519364
vt 0.103189223 0.216061279
vt 0.106704079 0.215202123
vt 0.0972893611 0.190141454
vt 0.100838348 0.189190701
vt 0.0909825191 0.163889945
vt 0.094565317 0.162831485
vt 0.104325458 0.286987513
vt 0.117251001 0.289166123
vt 0.11464867 0.281641245
vt 0.119824998 0.305718422
vt 0.0947519168 0.298305452
vt 0.0913750455 0.312939197
vt 0.123395257 0.327030152
vt 0.090753369 0.326594412
vt 0.0946918279 0.342060715
vt 0.126015916 0.34428376
vt 0.101330444 0.354329556
vt 0.110637441 0.365147144
vt 0.129526421 0.361525208
vt 0.11880029 0.367816597
vt 0.151271969 0.355380088
vt 0.143461213 0.364155471
vt 0.155237064 0.342814207
vt 0.156297341 0.330774784
vt 0.156513318 0.31745562
vt 0.152642116 0.303521633
vt 0.14652963 0.294294745
vt 0.139778987 0.284957737
vt 0.117957123 0.281146526
vt 0.11464867 0.281641245
vn -0.143394098 0.936767817 -0.319224477
vn -0.250422508 0.952680051 -0.172305688
vn -0.0483573638 0.994921505 -0.0882771835
vn -0.131841421 0.967122078 0.217469022
vn -0.250443399 0.957758784 -0.141337156
vn -0.353836149 0.933928967 0.0507605597
vn -0.470005423 0.852085352 0.230315998
vn -0.287107289 0.748333454 0.597968459
vn -0.445592642 0.755220115 0.480717957
vn -0.469208032 0.532696962 0.704327822
vn -0.315724164 0.464428335 0.827420473
vn 0.249255985 0.968436897 0.00121540017
vn 0.223490894 0.93386513 -0.279191107
vn 0.341215193 0.939408183 0.0329287611
vn 0.207899109 0.919601619 0.333332747
vn 0.136960894 0.837432742 0.529101133
vn -0.0855253488 0.750218511 0.655635178
vn -0.227638513 0.524499595 0.82041508
vn -0.38622871 0.385418415 0.838021457
vn -0.403597653 0.194829151 0.893952191
vn 0.215853766 0.426042557 0.878575504
vn -0.378119856 0.0907773077 0.921295285
vn -0.475815564 0.44573167 0.758236587
vn -0.475815445 0.44573164 0.758236706
vn -0.489931434 0.376307517 0.786358595
vn -0.490836114 0.371235579 0.788203001
vn -0.511883438 0.204028815 0.834474444
vn -0.512649775 0.193792537 0.836441636
vn -0.51722151 0.0904843435 0.851054966
vn -0.51722157 0.0904843584 0.851054966
vn 0.139720798 0.969480813 -0.201457605
vn -0.032946147 0.964972675 -0.260273129
vn -0.0585361421 0.997432292 -0.0412594117
vn -0.369082123 0.928829849 -0.0324565992
vn -0.0626137257 0.965912819 -0.251181036
vn -0.27221176 0.916085601 -0.294427812
vn -0.465909153 0.810296059 -0.355455905
vn -0.746981084 0.660452902 -0.0762976333
vn -0.683427215 0.681437075 -0.261860251
vn -0.873541176 0.431158811 -0.22589384
vn -0.936206102 0.348519564 -0.0453016981
vn -0.052364964 0.961842597 0.268545598
vn 0.210070744 0.964370072 0.160811961
vn -0.0516234785 0.929647505 0.364815712
vn -0.372793138 0.869258523 0.324676633
vn -0.568499863 0.761384726 0.31161046
vn -0.742556751 0.656385899 0.133292794
vn -0.911393404 0.40971756 0.0386454612
vn -0.956821918 0.268218517 -0.112029135
vn -0.990396619 0.0717769116 -0.118163072
vn -0.823390067 0.308137625 0.476529121
vn -0.995422065 -0.0347581655 -0.0890324339
vn -0.915358782 0.337787896 -0.219128922
vn -0.915358782 0.337787926 -0.219128951
vn -0.93720597 0.265191972 -0.226535246
vn -0.93859148 0.259817868 -0.227025926
vn -0.967053831 0.0883475691 -0.238750026
vn -0.967866123 0.0774333552 -0.239247054
vn -0.969768047 -0.0269343108 -0.242537439
vn -0.969768047 -0.0269342903 -0.242537379
vn -0.402126849 0.90632391 0.1298877
vn -0.361208111 0.917047322 0.168976203
vn -0.284524292 0.957259893 0.0519570373
vn 0.0101100625 0.992483318 0.121961772
vn -0.337906033 0.925857127 0.169138938
vn -0.0986644328 0.97150898 -0.215489283
vn -0.172804475 0.933733642 0.31349659
vn -0.0694875717 0.94313103 -0.325077355
vn -0.0337698795 0.929297328 -0.367785186
vn 0.228197843 0.958583057 -0.17042394
vn -0.0147993229 0.898859859 0.437986046
vn 0.37922281 0.850762129 0.363859773
vn 0.286089718 0.824862719 0.487600535
vn 0.375790387 0.925718129 -0.042747397
vn 0.484258831 0.635358036 0.601509333
vn 0.48681584 0.838813245 0.243726581
vn 0.654383481 0.592518985 0.469790936
vn 0.667004228 0.646549881 0.370241433
vn 0.651449144 0.537683487 0.535266817
vn 0.739453554 0.337735385 0.582360029
vn 0.82954067 0.557351768 -0.0349478908
vn 0.787308335 0.239061713 0.568326533
vn 0.554475188 0.564748645 0.611241579
vn 0.554475248 0.564748585 0.611241579
vn 0.588858187 0.500830531 0.634361684
vn 0.591240823 0.496037841 0.635909438
vn 0.656134427 0.339169711 0.674130082
vn 0.65947485 0.329194695 0.675813556
vn 0.688333929 0.229073197 0.688274562
vn 0.688333869 0.229073226 0.688274562
vn 0.252815872 0.480265141 -0.839898467
vn 0.572811425 0.726647377 -0.37930271
vn 0.70197922 0.376775682 -0.604371786
vn 0.485363483 0.666943729 -0.565339148
vn 0.239176184 0.754689872 -0.610931993
vn 0.213832214 0.961351275 -0.173434332
vn 0.133025363 0.876163363 -0.463294774
vn -0.206074923 0.902461231 -0.378281415
vn -0.285568476 0.912946105 -0.291513503
vn -0.112247467 0.993347704 0.0257086102
vn -0.400828302 0.909185767 0.112773985
vn -0.458677679 0.870187342 0.179968759
vn -0.49012655 0.823681593 0.285174429
vn 0.574854493 0.818226278 -0.0069360924
vn 0.684959948 0.686115026 -0.245104089
vn 0.650180995 0.57698822 -0.494316876
vn 0.800428092 0.327632308 -0.501968086
vn 0.701960266 0.376790822 -0.604384363
vn 0.377012402 0.925830841 0.0264374018
vn 0.14998582 0.960215509 0.235563919
vn 0.0680924952 0.957930624 0.278805435
vn -0.101856783 0.960546613 0.258796304
vn -0.294866681 0.901036918 0.318097442
vn -0.19524695 0.956601083 0.216316611
vn 0.744247735 0.571035028 -0.346430779
vn 0.744247735 0.571035087 -0.346430838
vn 0.782160163 0.506949008 -0.362254292
vn 0.784758985 0.502139628 -0.363330632
vn 0.853597045 0.34394902 -0.391243041
vn 0.856743336 0.334593028 -0.392477155
vn 0.884725034 0.234012902 -0.403112501
vn 0.884725034 0.234012932 -0.403112471
vn 0.0618098043 0.423004717 -0.904016912
vn 0.603835523 0.463635027 -0.648402035
vn 0.607712746 0.0269584954 -0.793699145
vn 0.324440837 0.546743453 -0.771887064
vn 0.461720824 0.779215634 -0.423835844
vn 0.286648959 0.678096294 -0.676770031
vn 0.140836179 0.838460028 -0.526450336
vn -0.048999507 0.895285666 -0.442789674
vn 0.211387038 0.973838389 -0.0833926573
vn -0.11651323 0.992385507 -0.0399457775
vn -0.152355283 0.986084938 0.0665153861
vn 0.0521189794 0.979580581 0.194179013
vn -0.186036691 0.958984852 0.213865086
vn 0.213340938 0.94622004 0.24321416
vn 0.15669857 0.92487675 0.346480399
vn 0.246796757 0.954496503 0.167414621
vn 0.527076483 0.848654032 0.0444612987
vn 0.581962943 0.806205213 -0.106546804
vn 0.689336479 0.6466887 -0.326510221
vn 0.752024412 0.509760499 -0.417856008
vn 0.563798249 0.407384932 -0.718449056
vn 0.636362433 0.128487185 -0.760614216
vn 0.607689321 0.0269595906 -0.793717086
vn 0.698042035 0.374012351 -0.610616088
vn 0.698041856 0.374012381 -0.610616148
vn 0.711339235 0.302834123 -0.634261787
vn 0.712143183 0.297602236 -0.635834038
vn 0.72626704 0.128458709 -0.67530334
vn 0.726418793 0.117653474 -0.677106678
vn 0.723487973 0.0140812285 -0.690193355
vn 0.723487973 0.0140812239 -0.690193295
vn -0.682723165 0.355209887 -0.638525665
vn -0.137701198 0.518958688 -0.843635082
vn -0.159929067 0.0821350813 -0.983705521
vn -0.433608025 0.536617935 -0.723895848
vn -0.135812864 0.82926023 -0.542109251
vn -0.40464741 0.663756132 -0.629037559
vn -0.407142967 0.818063915 -0.406209469
vn -0.50030911 0.846195877 -0.183421239
vn -0.100288235 0.989437938 -0.104665436
vn -0.296151966 0.944877565 0.139644191
vn -0.243348286 0.940077722 0.238821045
vn -0.0130423801 0.983240664 0.181845188
vn -0.155985862 0.918538094 0.363257557
vn 0.137152717 0.985639691 0.0985058248
vn 0.176506266 0.961850643 0.209018975
vn 0.104186863 0.994302392 0.0225355476
vn 0.211273521 0.943669319 -0.254659981
vn 0.131877705 0.896270812 -0.423446536
vn 0.095994845 0.744309843 -0.660899222
vn 0.129086405 0.614096701 -0.77860254
vn -0.208455563 0.45154804 -0.867554486
vn -0.136343792 0.189552709 -0.972358048
vn -0.159956664 0.0821301341 -0.983701408
vn -0.0345953852 0.453301251 -0.890685797
vn -0.0345955119 0.453301251 -0.890685797
vn -0.02889858 0.384420365 -0.92270577
vn -0.0284749456 0.379290938 -0.924839199
vn -0.0148270559 0.213426411 -0.976846635
vn -0.0139914313 0.203239292 -0.979029059
vn -0.00553837419 0.100015178 -0.9949705
vn -0.00553816278 0.100015171 -0.9949705
vn -0.33879891 -0.0798395649 0.937465191
vn -0.179858282 0.00216635549 0.983690202
vn -0.552811801 0.0288785677 0.832805574
vn -0.488048285 -0.061947912 0.870615542
vn -0.376599044 0.159950659 0.912463188
vn -0.374259591 0.156327829 0.914052188
vn -0.365396768 0.0477094501 0.929628432
vn -0.363023728 0.045566842 0.930665016
vn -0.355087817 -0.0657090694 0.932520747
vn -0.35312736 -0.0694245249 0.932995915
vn -0.23557812 0.0571201295 0.970175385
vn -0.35046646 0.0731486753 0.933714449
vn 0.058938466 0.24020192 0.968932092
vn -0.382679313 0.424614847 0.8205235
vn -0.295168459 0.208858579 0.932337701
vn -0.218165472 0.743203282 0.632497251
vn -0.143064961 0.49602598 0.856440723
vn -0.0172474347 0.726469934 0.686981738
vn -0.0520234592 0.939499319 0.3385773
vn 0.104773119 0.852886498 0.511475503
vn 0.213861734 0.950125873 0.22698915
vn 0.0947211012 0.995230973 -0.0233065262
vn 0.357743442 0.930514336 -0.0785034522
vn 0.393785894 0.892148972 -0.221365899
vn 0.0926241055 0.957081079 -0.274620742
vn 0.358750224 0.855701864 -0.372924387
vn -0.0600573383 0.971895039 -0.227625072
vn 0.00640920363 0.883338749 -0.468691289
vn -0.0903983414 0.995078921 -0.04057144
vn -0.141301066 0.984104514 0.107574634
vn -0.25372985 0.913237214 0.318777204
vn -0.338044494 0.807481587 0.483424574
vn -0.445082784 0.539642751 0.714623749
vn -0.456017882 0.303528637 0.836611092
vn -0.552818358 0.0288502146 0.832802236
vn -0.295187414 0.208876029 0.932327807
g A_prop_grass_01_0
f 3/3/3 2/2/2 1/1/1
f 3/3/3 4/4/4 2/2/2
f 2/2/2 4/4/4 5/5/5
f 5/5/5 4/4/4 6/6/6
f 6/6/6 4/4/4 7/7/7
f 7/7/7 4/4/4 8/8/8
f 7/7/7 8/8/8 9/9/9
f 10/10/10 9/9/9 8/8/8
f 8/8/8 11/11/11 10/10/10
f 3/3/3 12/12/12 4/4/4
f 3/3/3 13/13/13 12/12/12
f 4/4/4 12/12/12 14/14/14
f 4/4/4 14/14/14 15/15/15
f 4/4/4 15/15/15 16/16/16
f 16/16/16 8/8/8 4/4/4
f 16/16/16 17/17/17 8/8/8
f 8/8/8 17/17/17 18/18/18
f 8/8/8 19/19/19 11/11/11
f 19/19/19 8/8/8 18/18/18
f 19/19/19 20/20/20 11/11/11
f 19/19/19 18/18/18 21/21/21
f 19/19/19 22/22/22 20/20/20
f 22/22/22 19/19/19 21/21/21
f 25/25/25 24/24/24 23/23/23
f 25/25/25 23/23/23 26/26/26
f 27/27/27 25/25/25 26/26/26
f 27/27/27 26/26/26 28/28/28
f 29/29/29 27/27/27 28/28/28
f 29/29/29 28/28/28 30/30/30
f 33/33/33 32/32/32 31/31/31
f 33/33/33 34/34/34 32/32/32
f 32/32/32 34/34/34 35/35/35
f 35/35/35 34/34/34 36/36/36
f 36/36/36 34/34/34 37/37/37
f 37/37/37 34/34/34 38/38/38
f 37/37/37 38/38/38 39/39/39
f 40/40/40 39/39/39 38/38/38
f 38/38/38 41/41/41 40/40/40
f 33/33/33 42/42/42 34/34/34
f 33/33/33 43/43/43 42/42/42
f 34/34/34 42/42/42 44/44/44
f 34/34/34 44/44/44 45/45/45
f 34/34/34 45/45/45 46/46/46
f 46/46/46 38/38/38 34/34/34
f 46/46/46 47/47/47 38/38/38
f 38/38/38 47/47/47 48/48/48
f 38/38/38 49/49/49 41/41/41
f 49/49/49 38/38/38 48/48/48
f 49/49/49 50/50/50 41/41/41
f 49/49/49 48/48/48 51/51/51
f 49/49/49 52/52/52 50/50/50
f 52/52/52 49/49/49 51/51/51
f 55/55/55 54/54/54 53/53/53
f 55/55/55 53/53/53 56/56/56
f 57/57/57 55/55/55 56/56/56
f 57/57/57 56/56/56 58/58/58
f 59/59/59 57/57/57 58/58/58
f 59/59/59 58/58/58 60/60/60
f 63/63/63 62/62/62 61/61/61
f 63/63/63 64/64/64 62/62/62
f 62/62/62 64/64/64 65/65/65
f 63/63/63 66/66/66 64/64/64
f 65/65/65 64/64/64 67/67/67
f 64/64/64 66/66/66 68/68/68
f 64/64/64 68/68/68 69/69/69
f 64/64/64 69/69/69 70/70/70
f 67/67/67 64/64/64 71/71/71
f 71/71/71 64/64/64 72/72/72
f 71/71/71 72/72/72 73/73/73
f 64/64/64 70/70/70 74/74/74
f 74/74/74 72/72/72 64/64/64
f 75/75/75 73/73/73 72/72/72
f 74/74/74 76/76/76 72/72/72
f 72/72/72 77/77/77 75/75/75
f 72/72/72 76/76/76 78/78/78
f 72/72/72 79/79/79 77/77/77
f 79/79/79 72/72/72 78/78/78
f 79/79/79 80/80/80 77/77/77
f 79/79/79 78/78/78 81/81/81
f 79/79/79 82/82/82 80/80/80
f 82/82/82 79/79/79 81/81/81
f 85/85/85 84/84/84 83/83/83
f 85/85/85 83/83/83 86/86/86
f 87/87/87 85/85/85 86/86/86
f 87/87/87 86/86/86 88/88/88
f 89/89/89 87/87/87 88/88/88
f 89/89/89 88/88/88 90/90/90
f 93/93/93 92/92/92 91/91/91
f 92/92/92 94/94/94 91/91/91
f 92/92/92 95/95/95 94/94/94
f 92/92/92 96/96/96 95/95/95
f 97/97/97 95/95/95 96/96/96
f 96/96/96 98/98/98 97/97/97
f 96/96/96 99/99/99 98/98/98
f 100/100/100 99/99/99 96/96/96
f 100/100/100 101/101/101 99/99/99
f 102/102/102 101/101/101 100/100/100
f 102/102/102 103/103/103 101/101/101
f 104/104/104 96/96/96 92/92/92
f 104/104/104 92/92/92 105/105/105
f 105/105/105 92/92/92 106/106/106
f 92/92/92 107/107/107 106/106/106
f 92/92/92 108/108/108 107/107/107
f 109/109/109 96/96/96 104/104/104
f 110/110/110 96/96/96 109/109/109
f 111/111/111 96/96/96 110/110/110
f 100/100/100 96/96/96 111/111/111
f 100/100/100 111/111/111 112/112/112
f 113/113/113 100/100/100 112/112/112
f 113/113/113 114/114/114 100/100/100
f 117/117/117 116/116/116 115/115/115
f 117/117/117 115/115/115 118/118/118
f 119/119/119 117/117/117 118/118/118
f 119/119/119 118/118/118 120/120/120
f 121/121/121 119/119/119 120/120/120
f 121/121/121 120/120/120 122/122/122
f 125/125/125 124/124/124 123/123/123
f 124/124/124 126/126/126 123/123/123
f 124/124/124 127/127/127 126/126/126
f 127/127/127 128/128/128 126/126/126
f 129/129/129 128/128/128 127/127/127
f 127/127/127 130/130/130 129/129/129
f 131/131/131 130/130/130 127/127/127
f 131/131/131 132/132/132 130/130/130
f 131/131/131 133/133/133 132/132/132
f 134/134/134 133/133/133 131/131/131
f 134/134/134 135/135/135 133/133/133
f 134/134/134 131/131/131 136/136/136
f 134/134/134 136/136/136 137/137/137
f 136/136/136 131/131/131 138/138/138
f 131/131/131 139/139/139 138/138/138
f 131/131/131 127/127/127 139/139/139
f 139/139/139 127/127/127 140/140/140
f 140/140/140 127/127/127 141/141/141
f 142/142/142 141/141/141 127/127/127
f 142/142/142 127/127/127 124/124/124
f 142/142/142 124/124/124 143/143/143
f 124/124/124 144/144/144 143/143/143
f 124/124/124 145/145/145 144/144/144
f 148/148/148 147/147/147 146/146/146
f 148/148/148 146/146/146 149/149/149
f 150/150/150 148/148/148 149/149/149
f 150/150/150 149/149/149 151/151/151
f 152/152/152 150/150/150 151/151/151
f 152/152/152 151/151/151 153/153/153
f 156/156/156 155/155/155 154/154/154
f 155/155/155 157/157/157 154/154/154
f 155/155/155 158/158/158 157/157/157
f 158/158/158 159/159/159 157/157/157
f 160/160/160 159/159/159 158/158/158
f 158/158/158 161/161/161 160/160/160
f 162/162/162 161/161/161 158/158/158
f 162/162/162 163/163/163 161/161/161
f 162/162/162 164/164/164 163/163/163
f 165/165/165 164/164/164 162/162/162
f 165/165/165 166/166/166 164/164/164
f 165/165/165 162/162/162 167/167/167
f 165/165/165 167/167/167 168/168/168
f 167/167/167 162/162/162 169/169/169
f 162/162/162 170/170/170 169/169/169
f 162/162/162 158/158/158 170/170/170
f 170/170/170 158/158/158 171/171/171
f 171/171/171 158/158/158 172/172/172
f 173/173/173 172/172/172 158/158/158
f 173/173/173 158/158/158 155/155/155
f 173/173/173 155/155/155 174/174/174
f 155/155/155 175/175/175 174/174/174
f 155/155/155 176/176/176 175/175/175
f 179/179/179 178/178/178 177/177/177
f 179/179/179 177/177/177 180/180/180
f 181/181/181 179/179/179 180/180/180
f 181/181/181 180/180/180 182/182/182
f 183/183/183 181/181/181 182/182/182
f 183/183/183 182/182/182 184/184/184
f 187/187/187 186/186/186 185/185/185
f 187/187/187 185/185/185 188/188/188
f 188/188/188 185/185/185 189/189/189
f 188/188/188 189/189/189 190/190/190
f 190/190/190 189/189/189 191/191/191
f 190/190/190 191/191/191 192/192/192
f 192/192/192 191/191/191 193/193/193
f 192/192/192 193/193/193 194/194/194
f 194/194/194 193/193/193 195/195/195
f 194/194/194 195/195/195 196/196/196
f 199/199/199 198/198/198 197/197/197
f 200/200/200 197/197/197 198/198/198
f 200/200/200 201/201/201 197/197/197
f 200/200/200 202/202/202 201/201/201
f 203/203/203 202/202/202 200/200/200
f 203/203/203 204/204/204 202/202/202
f 203/203/203 205/205/205 204/204/204
f 206/206/206 205/205/205 203/203/203
f 206/206/206 207/207/207 205/205/205
f 206/206/206 208/208/208 207/207/207
f 209/209/209 208/208/208 206/206/206
f 209/209/209 210/210/210 208/208/208
f 209/209/209 206/206/206 211/211/211
f 209/209/209 211/211/211 212/212/212
f 211/211/211 206/206/206 213/213/213
f 206/206/206 214/214/214 213/213/213
f 206/206/206 203/203/203 214/214/214
f 214/214/214 203/203/203 215/215/215
f 203/203/203 216/216/216 215/215/215
f 203/203/203 200/200/200 216/216/216
f 216/216/216 200/200/200 217/217/217
f 200/200/200 218/218/218 217/217/217
f 200/200/200 198/198/198 218/218/218
f 198/198/198 219/219/219 218/218/218
f 198/198/198 220/220/220 219/219/219
