g O_env_th_shu1_1_shadow
v -0.213262171 1.47917112E-16 -0.666159451
v 0.66058296 3.07240026E-16 -1.38368607
v 1.93604016 3.07240026E-16 -1.38368607
v 1.94489479 8.23122795E-17 -0.370701551
v -0.213262171 -8.29755593E-17 0.373688698
v 1.11339557 -8.29755593E-17 0.373688698
vt 0.0200501382 0.478827715
vt 0.408716738 0.797967315
vt 0.976011336 0.797967315
vt 0.979949832 0.347414732
vt 0.0200501382 0.0163266957
vt 0.610117614 0.0163266957
vn -0 1 0
vn -0 1 0
vn -0 1 0
vn -0 1 0
vn -0 1 0
vn -0 1 0
g O_env_th_shu1_1_shadow_0
f 3/3/3 2/2/2 1/1/1
f 1/1/1 4/4/4 3/3/3
f 1/1/1 5/5/5 4/4/4
f 5/5/5 6/6/6 4/4/4
