g Box002
v -0.451243818 0.434331417 -0.0018197532
v -1.20341182 0.851626039 -0.00147970614
v -0.499354929 0.328323275 -0.00181970478
v -0.415866822 -0.285699904 -0.00182038301
v -0.812858224 -0.850415885 -0.00147912477
v -0.355245233 -0.313628376 -0.00182236941
v -1.08551919 -0.850197494 -0.0014793186
v 0.496839643 0.328877777 -0.00181985018
v 0.496115655 0.204961598 -0.00182130351
v 1.22432852 0.439781398 -0.00147868879
v 1.2118299 0.794035912 -0.00147878565
v -0.499354929 0.328323275 -0.00181970478
v -1.20341182 0.851626039 -0.00147970614
v -1.21801496 0.499237388 -0.00147960929
v -0.501163483 0.205183312 -0.00181980163
v -1.08551919 -0.850197494 -0.0014793186
v -0.453732282 -0.260991246 -0.00181994704
v -1.21684563 -0.690172195 -0.0014793186
v -0.415866822 -0.285699904 -0.00182038301
v -1.21684563 -0.690172195 -0.0014793186
v -0.506588995 -0.164236769 -0.00181989861
v -1.26182449 -0.557928801 0.00182726246
v -0.453732282 -0.260991246 -0.00181994704
v 0.442510337 -0.264357269 -0.0018262451
v 1.14357924 -0.851626039 -0.00147830124
v 1.23322606 -0.775717258 -0.00147834967
v 0.345559031 -0.311515391 -0.00182731089
v 0.493944019 -0.166786954 -0.00182576058
v 1.23322606 -0.775717258 -0.00147834967
v 1.26182449 -0.622982204 -0.0014783981
v 0.442510337 -0.264357269 -0.0018262451
v 0.345559031 -0.311515391 -0.00182731089
v 0.550445795 -0.851454318 -0.00147849496
v 1.14357924 -0.851626039 -0.00147830124
v 0.169856697 -0.310688198 -0.00182706874
v -0.219647467 -0.312590808 -0.00182479166
v -0.540195763 -0.850631118 -0.00147902791
v -0.403865069 -0.850737214 -0.00147893105
v -0.277972639 -0.313739747 -0.00182077067
v -0.277972639 -0.313739747 -0.00182077067
v -0.812858224 -0.850415885 -0.00147912477
v -0.540195763 -0.850631118 -0.00147902791
v -0.355245233 -0.313628376 -0.00182236941
v 0.169856697 -0.310688198 -0.00182706874
v 0.277786106 -0.851253867 -0.00147859193
v 0.550445795 -0.851454318 -0.00147849496
v 0.0606827065 -0.307925671 -0.00182668108
v -0.153079093 -0.313219726 -0.00182338676
v 0.141455695 -0.851152599 -0.00147868879
v -0.00938513782 -0.308689088 -0.00182396814
v -0.267534792 -0.850842237 -0.00147883408
v -0.00938513782 -0.308689088 -0.00182396814
v 0.277786106 -0.851253867 -0.00147859193
v 0.0606827065 -0.307925671 -0.00182668108
v 0.141455695 -0.851152599 -0.00147868879
v -0.219647467 -0.312590808 -0.00182479166
v -0.267534792 -0.850842237 -0.00147883408
v -0.153079093 -0.313219726 -0.00182338676
v -0.403865069 -0.850737214 -0.00147893105
v 1.23682702 0.0855268538 -0.00147854351
v 0.495391786 0.0810453668 -0.00182280538
v 0.495029896 0.0190872792 -0.00182358047
v 1.24307644 -0.0916004181 -0.00147849496
v 1.24932587 -0.268727779 -0.00147844653
v 0.494667947 -0.0428708084 -0.00182430726
v 0.493944019 -0.166786954 -0.00182576058
v 1.26182449 -0.622982204 -0.0014783981
v 1.24307644 -0.0916004181 -0.00147849496
v 0.495029896 0.0190872792 -0.00182358047
v 0.494667947 -0.0428708084 -0.00182430726
v 1.24932587 -0.268727779 -0.00147844653
v 1.23682702 0.0855268538 -0.00147854351
v 1.22432852 0.439781398 -0.00147868879
v 0.496115655 0.204961598 -0.00182130351
v 0.495391786 0.0810453668 -0.00182280538
v -0.503876209 0.0204732176 -0.00181985018
v -0.502971947 0.0820432976 -0.00181980163
v -1.23261797 0.146848664 -0.00147960929
v -1.23991966 -0.0293456893 -0.00147951243
v -0.506588995 -0.164236769 -0.00181989861
v -0.504780471 -0.0410967171 -0.00181980163
v -1.24722111 -0.205540061 0.0018246948
v -1.26182449 -0.557928801 0.00182726246
v -0.501163483 0.205183312 -0.00181980163
v -1.21801496 0.499237388 -0.00147960929
v -1.23261797 0.146848664 -0.00147960929
v -0.502971947 0.0820432976 -0.00181980163
v -0.504780471 -0.0410967171 -0.00181980163
v -0.503876209 0.0204732176 -0.00181985018
v -1.23991966 -0.0293456893 -0.00147951243
v -1.24722111 -0.205540061 0.0018246948
vt 0.303486288 0.159252971
vt 0.303486288 0.159341469
vt 0.303486288 0.159341469
vt 0.788237929 0.209103107
vt 0.788833857 0.209200561
vt 0.788237929 0.209252074
vt 0.788833857 0.209103107
vt 0.260928512 0.902967036
vt 0.260928512 0.902967036
vt 0.261226445 0.903562903
vt 0.261226445 0.903562903
vt 0.450387388 0.269815266
vt 0.450685322 0.27011323
vt 0.450685322 0.27011323
vt 0.450387388 0.269815266
vt 0.741041064 0.625043213
vt 0.740926981 0.625639081
vt 0.741041064 0.625639081
vt 0.74074316 0.625043213
vt 0.724950552 0.704769075
vt 0.724857867 0.704900086
vt 0.724950552 0.704900086
vt 0.724652588 0.704469681
vt 0.742828965 0.580496073
vt 0.743126929 0.580198109
vt 0.743126929 0.580496073
vt 0.742828965 0.580198109
vt 0.0609936789 0.634406865
vt 0.060444124 0.633200586
vt 0.060444124 0.634406865
vt 0.0619285181 0.633198321
vt 0.768977344 0.796676099
vt 0.769050598 0.797271967
vt 0.769050598 0.796676099
vt 0.768752694 0.797271967
vt 0.760675371 0.0797452256
vt 0.760958672 0.0796707422
vt 0.760973334 0.0797452256
vt 0.760675371 0.0796707422
vt 0.474035501 0.390907288
vt 0.474225253 0.391090572
vt 0.474225253 0.390792638
vt 0.473927319 0.391090572
vt 0.222041354 0.223150566
vt 0.222085163 0.223240882
vt 0.222085163 0.223150566
vt 0.221787229 0.223299548
vt 0.803764641 0.645305395
vt 0.804360509 0.645555913
vt 0.803764641 0.645901263
vt 0.804360509 0.645305395
vt 0.781565547 0.723374546
vt 0.781565547 0.723970413
vt 0.781267583 0.723970413
vt 0.781565547 0.723374546
vt 0.729378164 0.558940828
vt 0.729420125 0.559041917
vt 0.729122162 0.559041917
vt 0.729420125 0.558758795
vt 0.397943974 0.285607845
vt 0.39764601 0.285309911
vt 0.39764601 0.285309911
vt 0.397943974 0.285607845
vt 0.200631037 0.215850204
vt 0.200333104 0.215850204
vt 0.200333104 0.215701222
vt 0.200631037 0.215701222
vt 0.397943974 0.0232326426
vt 0.39764601 0.0232140198
vt 0.39764601 0.0232140198
vt 0.397943974 0.0232326426
vt 0.300937533 0.491793334
vt 0.300937533 0.491793334
vt 0.302421808 0.493001878
vt 0.302421808 0.493001878
vt 0.453963071 0.368146628
vt 0.453963071 0.368146628
vt 0.454261005 0.368444562
vt 0.454261005 0.368444562
vt 0.456346869 0.962157369
vt 0.456346869 0.962753236
vt 0.456644803 0.962753236
vt 0.456644803 0.962157369
vt 0.746702671 0.694769025
vt 0.747000575 0.695364952
vt 0.747000575 0.695364952
vt 0.746702671 0.694769025
vt 0.454559028 0.334177613
vt 0.454559028 0.334475547
vt 0.454856962 0.334475547
vt 0.454856962 0.334177613
vn -0.532901585 0.560176075 -0.634207189
vn -0.801847517 0.202941418 -0.562010169
vn -0.780678153 0.252056241 -0.5718472
vn 0.0289925337 -0.992040455 -0.122536518
vn 0.10682632 -0.99043268 -0.0873574913
vn 0.133040786 -0.988984048 -0.0648901537
vn -0.10870593 -0.9722507 -0.207151413
vn 0.846124351 0.0677128285 -0.528666794
vn 0.000466772617 1.43309617E-05 -0.999999881
vn 0.000466772617 1.43309599E-05 -0.999999881
vn 0.809537888 0.192084029 -0.554754138
vn -0.780678153 0.252056241 -0.5718472
vn -0.801847517 0.202941418 -0.562010169
vn -0.000469382969 1.61996413E-05 -0.999999881
vn -0.000469382969 1.61996395E-05 -0.999999881
vn -0.10870593 -0.9722507 -0.207151413
vn -0.587264359 -0.687303364 -0.427474767
vn -0.685923874 -0.542673349 -0.484782577
vn 0.0289925337 -0.992040455 -0.122536518
vn -0.685923874 -0.542673349 -0.484782577
vn -0.850123227 0.0381477773 -0.525200248
vn -0.85596323 -0.00534023391 -0.517009199
vn -0.587264359 -0.687303364 -0.427474767
vn 0.594149053 -0.740159035 -0.314883202
vn 0.254852772 -0.957223833 -0.13701272
vn 0.641250789 -0.691223443 -0.333178163
vn 0.258624911 -0.956301749 -0.136382729
vn 0.850255609 -0.262820154 -0.45606035
vn 0.641250789 -0.691223443 -0.333178163
vn 0.857855618 -0.242404297 -0.453126818
vn 0.594149053 -0.740159035 -0.314883202
vn 0.258624911 -0.956301749 -0.136382729
vn 0.117289245 -0.989806831 -0.0807808787
vn 0.254852772 -0.957223833 -0.13701272
vn 0.153594628 -0.984512448 -0.0845223367
vn 0.332588851 -0.942311227 -0.03787072
vn 0.107777528 -0.9896456 -0.0947926566
vn 0.100242332 -0.98926115 -0.106366649
vn 0.221925586 -0.974107444 -0.0431704968
vn 0.221925586 -0.974107444 -0.0431704968
vn 0.10682632 -0.99043268 -0.0873574913
vn 0.107777528 -0.9896456 -0.0947926566
vn 0.133040786 -0.988984048 -0.0648901537
vn 0.153594628 -0.984512448 -0.0845223367
vn 0.0960262269 -0.99249351 -0.0757334456
vn 0.117289245 -0.989806831 -0.0807808787
vn 0.10724096 -0.99115634 -0.078156054
vn 0.107910499 -0.990697443 -0.0829080641
vn 0.0903565884 -0.991776824 -0.0906337351
vn 0.0220117532 -0.996769428 -0.0772415623
vn 0.10327933 -0.98873502 -0.108334363
vn 0.0220117532 -0.996769428 -0.0772415623
vn 0.0960262269 -0.99249351 -0.0757334456
vn 0.10724096 -0.99115634 -0.078156054
vn 0.0903565884 -0.991776824 -0.0906337351
vn 0.332588851 -0.942311227 -0.03787072
vn 0.10327933 -0.98873502 -0.108334363
vn 0.107910499 -0.990697443 -0.0829080641
vn 0.100242332 -0.98926115 -0.106366649
vn 0.000463841454 1.44618525E-05 -0.999999881
vn 0.000463841425 1.44618525E-05 -0.999999881
vn 0.000463841425 1.44618525E-05 -0.999999881
vn 0.000463841454 1.44618525E-05 -0.999999881
vn 0.000461716903 1.43077259E-05 -0.999999881
vn 0.000461716903 1.43077241E-05 -0.999999881
vn 0.850255609 -0.262820154 -0.45606035
vn 0.857855618 -0.242404297 -0.453126818
vn 0.000462990371 1.42379895E-05 -0.999999881
vn 0.000462990371 1.42379895E-05 -0.999999881
vn 0.000462990371 1.42379877E-05 -0.999999881
vn 0.000462990371 1.42379895E-05 -0.999999881
vn 0.000465048419 1.42882736E-05 -0.999999881
vn 0.000465048361 1.42882718E-05 -0.999999881
vn 0.000465048361 1.42882718E-05 -0.999999881
vn 0.000465048361 1.42882718E-05 -0.999999881
vn -0.000464145473 1.5815076E-05 -0.999999881
vn -0.000464145473 1.5815076E-05 -0.999999881
vn -0.000464145443 1.5815076E-05 -0.999999881
vn -0.000464145473 1.5815076E-05 -0.999999881
vn -0.850123227 0.0381477773 -0.525200248
vn -0.00493006129 0.000164955083 -0.999987841
vn -0.00493006129 0.000164955083 -0.999987841
vn -0.85596323 -0.00534023391 -0.517009199
vn -0.000466373924 1.60955788E-05 -0.999999881
vn -0.000466373895 1.60955788E-05 -0.999999881
vn -0.000466373924 1.60955788E-05 -0.999999881
vn -0.000466373924 1.60955788E-05 -0.999999881
vn -0.000684590661 -0.0138722202 -0.99990356
vn -0.000684590661 -0.0138722202 -0.99990356
vn -0.000684590603 -0.0138722192 -0.99990356
vn -0.000684590719 -0.013872222 -0.99990356
g Box002_0
f 3/3/3 2/2/2 1/1/1
f 6/6/6 5/5/5 4/4/4
f 7/7/7 4/4/4 5/5/5
f 10/10/10 9/9/9 8/8/8
f 11/11/11 10/10/10 8/8/8
f 14/14/14 13/13/13 12/12/12
f 15/15/15 14/14/14 12/12/12
f 18/18/18 17/17/17 16/16/16
f 19/19/19 16/16/16 17/17/17
f 22/22/22 21/21/21 20/20/20
f 23/23/23 20/20/20 21/21/21
f 26/26/26 25/25/25 24/24/24
f 27/27/27 24/24/24 25/25/25
f 30/30/30 29/29/29 28/28/28
f 31/31/31 28/28/28 29/29/29
f 34/34/34 33/33/33 32/32/32
f 35/35/35 32/32/32 33/33/33
f 38/38/38 37/37/37 36/36/36
f 39/39/39 36/36/36 37/37/37
f 42/42/42 41/41/41 40/40/40
f 43/43/43 40/40/40 41/41/41
f 46/46/46 45/45/45 44/44/44
f 47/47/47 44/44/44 45/45/45
f 50/50/50 49/49/49 48/48/48
f 51/51/51 48/48/48 49/49/49
f 54/54/54 53/53/53 52/52/52
f 55/55/55 52/52/52 53/53/53
f 58/58/58 57/57/57 56/56/56
f 59/59/59 56/56/56 57/57/57
f 62/62/62 61/61/61 60/60/60
f 63/63/63 62/62/62 60/60/60
f 66/66/66 65/65/65 64/64/64
f 67/67/67 66/66/66 64/64/64
f 70/70/70 69/69/69 68/68/68
f 71/71/71 70/70/70 68/68/68
f 74/74/74 73/73/73 72/72/72
f 75/75/75 74/74/74 72/72/72
f 78/78/78 77/77/77 76/76/76
f 79/79/79 78/78/78 76/76/76
f 82/82/82 81/81/81 80/80/80
f 83/83/83 82/82/82 80/80/80
f 86/86/86 85/85/85 84/84/84
f 87/87/87 86/86/86 84/84/84
f 90/90/90 89/89/89 88/88/88
f 91/91/91 90/90/90 88/88/88
