g Cylinder002
v 0.0873195454 0.325880945 0
v 0.177066609 0.252028674 0.0867998973
v 2.54712411E-08 0.337376773 0
v 0.236757904 0.195998684 0.087989226
v 0.268987775 0.0927051902 0.173643574
v 0.168688387 0.292176872 0
v 0.287189484 0.0117384484 0.179164723
v 0.233741805 -0.0723560601 0.26588878
v 0.279737145 0.124840662 0.0893962532
v 0.238561407 0.238561407 0
v 0.204263747 -0.14458321 0.273142189
v 0.135255992 -0.155593678 0.35876137
v 0.302419871 0.0456965938 0.0900687128
v 0.292176843 0.168688387 0
v 0.279464155 -0.0735432804 0.184883878
v 0.0749029219 -0.18882072 0.365153164
v 0.0349926539 -0.1750938 0.450817674
v 0.304430068 -0.03406455 0.0895526782
v 0.325880945 0.087319538 0
v 0.248537973 -0.148339123 0.187598437
v 0.151835844 -0.204256713 0.280556798
v -0.0256792288 -0.162468061 0.456233382
v -0.0576947443 -0.15154174 0.54178232
v 0.287013024 -0.109969534 0.0885117948
v 0.337376773 0 0
v 0.204519048 -0.204158738 0.185443342
v 0.0884815082 -0.240303114 0.283970028
v 0.00705208257 -0.201784804 0.371478319
v -0.093766503 -0.106535323 0.546661019
v -0.130413964 -0.0798640698 0.631708205
v 0.251566112 -0.177723214 0.0871914476
v 0.325880885 -0.0873197764 0
v 0.153987348 -0.242700443 0.180208638
v 0.0277822912 -0.252988279 0.281286865
v -0.0567779243 -0.193501025 0.374433696
v -0.0804283246 -0.133533478 0.461844444
v -0.132399708 -0.0250702258 0.636137307
v -0.146438763 0.0279336143 0.720458806
v 0.199397802 -0.23449406 0.0863805488
v 0.292176753 -0.168688595 0
v 0.0979010165 -0.267140508 0.174824029
v -0.026253745 -0.248874918 0.274368048
v -0.108742185 -0.170123413 0.372141898
v -0.121810995 -0.0927209929 0.464407563
v -0.117040604 -0.0549364723 0.551573753
v 0.132087588 -0.276890159 0.0868889391
v 0.238561258 -0.238561571 0
v 0.0341860987 -0.278342515 0.171798646
v -0.0768352821 -0.232307911 0.267243117
v -0.149254695 -0.137792408 0.366256118
v -0.148717463 -0.0467227846 0.46245718
v -0.125106975 -0.00246918062 0.55383265
v -0.12191236 0.0264894776 0.640747011
v 0.0529080108 -0.300361216 0.089037165
v 0.168688223 -0.292176962 0
v -0.0381394215 -0.27316609 0.173695132
v -0.126860321 -0.203088656 0.263470739
v -0.181235656 -0.0982711166 0.359988987
v -0.164483085 0.000779642956 0.457266122
v -0.120467104 0.0469488651 0.552155495
v -0.0326938629 -0.300826818 0.0926873535
v 0.0873193666 -0.325880975 0
v -0.118604071 -0.243947774 0.183049053
v -0.17692475 -0.156336114 0.266735643
v -0.205583766 -0.0494124629 0.357078969
v -0.171435967 0.0499202944 0.451994509
v -0.113637954 -0.277511001 0.0954600126
v -1.56850618E-07 -0.337376773 0
v -0.193079978 -0.184693575 0.197694927
v -0.219697312 -0.0854041651 0.279202759
v -0.218297496 0.0121235335 0.360503018
v -0.182084307 -0.23542361 0.096141547
v -0.0873196721 -0.325880915 0
v -0.241441995 -0.106604733 0.210163385
v -0.238465607 0.00522822374 0.297529936
v -0.23500143 -0.180334032 0.0948388129
v -0.168688491 -0.292176813 0
v -0.25992468 -0.0309499968 0.21407482
v -0.271894842 -0.115835078 0.0924662873
v -0.238561556 -0.238561288 0
v -0.167769521 0.101634264 0.449694872
v -0.210010216 0.0860390514 0.371820688
v -0.225151882 0.0940519646 0.313485652
v -0.258687884 0.0326570719 0.209592193
v -0.292318732 -0.0426552072 0.0907874331
v -0.292176962 -0.168688253 0
v -0.147161484 0.155760884 0.453351825
v -0.173128873 0.159726992 0.38780719
v -0.192029729 0.161319107 0.319708824
v -0.245038509 0.0882792771 0.200783193
v -0.293114036 0.0377986841 0.0912774429
v -0.325880975 -0.0873193964 0
v -0.102842741 0.205877721 0.463686317
v -0.114549369 0.214851558 0.401655942
v -0.154476389 0.205702707 0.31550321
v -0.216559529 0.144689739 0.194815516
v -0.271640211 0.118142411 0.0931871533
v -0.337376773 1.31379366E-07 0
v -0.0370211415 0.239003524 0.477814764
v -0.0519186929 0.244404867 0.407894909
v -0.114606529 0.235419929 0.306161344
v -0.16542761 0.201173574 0.195986181
v -0.229955435 0.188943028 0.0946655869
v -0.325880915 0.0873196423 0
v 0.035421513 0.245836884 0.490301788
v 0.00342843053 0.254057378 0.405562937
v -0.063357763 0.255733818 0.299553901
v -0.0923402458 0.243842557 0.202199847
v -0.174161285 0.244118422 0.0944456756
v -0.292176843 0.168688476 0
v 0.0976279527 0.229718879 0.49634096
v 0.0533802994 0.250588804 0.39884761
v 0.00475031557 0.261791199 0.300149232
v -0.0137033965 0.261401922 0.207006231
v -0.110578701 0.281670064 0.092283003
v -0.238561362 0.238561481 0
v 0.144365072 0.200211927 0.495254755
v 0.105024211 0.234376386 0.393691033
v 0.0800021142 0.244491741 0.305976629
v 0.0536374822 0.258421838 0.205212563
v -0.0427157171 0.301979274 0.0889821723
v -0.168688342 0.292176902 0
v 0.180734828 0.162275627 0.490265995
v 0.158805802 0.201059476 0.393616617
v 0.142297685 0.206520319 0.310149997
v 0.10279426 0.246627137 0.195404634
v 0.03052935 0.305259347 0.0867998078
v -0.0873195007 0.325880975 0
v 0.211926699 0.114988208 0.486163914
v 0.204821751 0.150349513 0.397202551
v 0.181123272 0.16350387 0.306472063
v 0.142904893 0.230555058 0.182397485
v 0.106152348 0.288926721 0.0862930119
v 2.54712411E-08 0.337376773 0
v 0.177066609 0.252028674 0.0867998973
v 0.185609415 0.20401834 0.173253819
v 0.231262118 0.158622488 0.170965955
v 0.268987775 0.0927051902 0.173643574
v 0.201769471 0.127209529 0.293798298
v 0.23208116 0.0925615281 0.399251074
v 0.215930477 0.0945240259 0.277712971
v 0.239443108 -0.00235557323 0.262370676
v 0.233741805 -0.0723560601 0.26588878
v 0.229830101 0.0540505648 0.265899807
v 0.239846811 0.0419078097 0.395003319
v 0.179798692 -0.111259654 0.355987161
v 0.135255992 -0.155593678 0.35876137
v 0.235534027 0.00317023997 0.383862704
v 0.208133876 -0.0669406652 0.359423965
v 0.224983871 -0.0298204962 0.36992842
v 0.0924515203 -0.172999546 0.448550075
v 0.0349926539 -0.1750938 0.450817674
v 0.139572293 -0.162596181 0.452058047
v 0.174925506 -0.149543688 0.461515129
v 0.20176971 -0.133349955 0.473789006
v 0.223972127 -0.107363604 0.483949512
v -0.0158638395 -0.186045736 0.540008307
v -0.0576947443 -0.15154174 0.54178232
v 0.0239571258 -0.209684104 0.543363214
v 0.0571653582 -0.224127159 0.55204004
v 0.0856825858 -0.229175687 0.563357592
v -0.118717097 -0.131400555 0.630121827
v -0.130413964 -0.0798640698 0.631708205
v -0.102655552 -0.174729556 0.633439302
v -0.0857842192 -0.207658902 0.641723931
v -0.165022358 -0.0215440094 0.718947947
v -0.146438763 0.0279336143 0.720458806
v -0.176123708 -0.0680066496 0.722299278
v -0.131018683 0.0851235315 0.806486845
v -0.0889874846 0.119751498 0.80814904
v 0.115630418 -0.22141993 0.572787821
v -0.0666085035 -0.230209008 0.652424514
v -0.181375995 -0.107652001 0.730550826
v -0.166088775 0.0482627563 0.809929788
v -0.0392260924 0.15209496 0.892769814
v 0.0178236756 0.161725238 0.894667447
v -0.0391527154 -0.242295399 0.661563396
v -0.179665625 -0.140922397 0.741050899
v -0.194315761 0.0134955542 0.818231642
v -0.0917079523 0.136300236 0.896183848
v 0.075038068 0.154889405 0.977791369
v 0.132679224 0.130925819 0.980160296
v -0.166068271 -0.170344263 0.750059664
v -0.215625361 -0.0195291135 0.829105854
v -0.138146028 0.119383775 0.905058384
v 0.0185612645 0.169628069 0.981230199
v 0.171833575 0.096020326 1.06155837
v 0.208309978 0.0390248224 1.06459892
v -0.226826996 -0.055421859 0.838260055
v -0.179448068 0.101845294 0.916617274
v -0.032594569 0.180151626 0.990915775
v 0.131312221 0.141513363 1.06510937
v 0.226867542 -0.00605113572 1.14460397
v 0.221698463 -0.0796286389 1.14830387
v -0.215579644 0.0778565854 0.926271439
v -0.0795482621 0.188985571 1.00378025
v 0.0942521319 0.178156391 1.07602525
v 0.220311895 0.056777481 1.14805353
v 0.220779061 -0.133222416 1.22710443
v 0.16789405 -0.195392504 1.23108923
v -0.126822338 0.190802068 1.01411784
v 0.0605628602 0.210574135 1.09051788
v 0.211262539 0.105390646 1.16043806
v 0.254857004 -0.0752734169 1.23050737
v 0.126525581 -0.250842065 1.3094995
v 0.0408232026 -0.276645839 1.31259966
v 0.0217377543 0.238807216 1.10208035
v 0.202582091 0.146221399 1.17736888
v 0.275189698 -0.0332957134 1.24453449
v 0.195166692 -0.218198717 1.31324601
v -0.043033354 -0.298267871 1.39258099
v -0.136008114 -0.277221799 1.39316106
v 0.185379907 0.188762814 1.19051087
v 0.289743692 -0.00157973636 1.26471436
v 0.237071648 -0.195283309 1.3289603
v 0.0407230966 -0.307433069 1.39769888
v -0.230353743 -0.238174796 1.47737312
v -0.302090824 -0.173787057 1.47346938
v 0.297537208 0.0415715836 1.27957833
v 0.266066313 -0.182365924 1.35299158
v 0.0945905074 -0.312223017 1.4147079
v -0.162226871 -0.293199241 1.48518181
v -0.372256696 -0.0686672181 1.5648489
v -0.39791441 0.0158811882 1.55425048
v 0.3026191 -0.148093387 1.36824346
v 0.131125107 -0.318573505 1.4401691
v -0.11348898 -0.332261533 1.50226545
v -0.350597739 -0.148597464 1.57668376
v -0.403253078 0.187781781 1.6556226
v -0.380196035 0.251095712 1.63653362
v -0.250153393 0.460525364 1.74962902
v -0.215262145 0.469386905 1.72113955
v -0.304884613 0.444295466 1.77035999
v -0.433918864 0.125196129 1.67234111
v -0.406786174 0.344637543 1.77000511
v -0.453412235 0.0277122855 1.68014336
v -0.480912805 0.220036566 1.77134395
v -0.324964374 -0.219043702 1.59077406
v -0.451146245 -0.0743400231 1.69024467
v -0.52464062 0.147790194 1.78941071
v -0.290110409 -0.280332893 1.60879505
v -0.457644582 -0.153598353 1.70906019
v -0.55941999 0.0695222765 1.80471754
v -0.0727177709 -0.360751897 1.52553046
v -0.447543353 -0.256772965 1.71783793
v -0.546740711 -0.131350935 1.78927135
v -0.258104503 -0.351070821 1.62669432
v -0.0127366073 -0.399412185 1.54228246
v -0.338160574 -0.409559637 1.7003659
v -0.412104487 -0.363418669 1.75662708
v -0.189818785 -0.43520546 1.63099074
v 0.192004904 -0.314314336 1.4559536
v -0.121536694 -0.511546493 1.6694684
v -0.308581173 -0.453207642 1.75462151
v 0.0871137381 -0.424726874 1.54405046
v -0.0298427399 -0.496273339 1.61308515
v 0.275511771 -0.275952309 1.45690823
v 0.0202387348 -0.520450175 1.66438019
v -0.246081457 -0.491270989 1.76918709
v 0.233523339 -0.388006777 1.52735734
v 0.176090002 -0.46552375 1.58522761
v 0.337268531 -0.0765612051 1.36952567
v 0.0891010538 -0.518181384 1.67923725
v -0.137784541 -0.54515487 1.77482986
v 0.296052724 -0.392616063 1.57830989
v 0.358388275 -0.176371858 1.44256985
v 0.365033329 -0.270237565 1.5034579
v 0.285206944 0.109059051 1.2818743
v 0.157677516 -0.507177949 1.69452024
v -0.00285353372 -0.563716233 1.77595627
v 0.346607924 -0.357187629 1.59409702
v 0.42254746 -0.152090058 1.4962101
v 0.343524486 0.0325304829 1.35824978
v 0.395375907 -0.0342870653 1.42323768
v 0.145024106 0.233897224 1.19397521
v 0.238021895 -0.457791418 1.70279801
v 0.100559898 -0.535702705 1.78563905
v 0.373783737 -0.327816397 1.61460757
v 0.443299204 -0.0988105386 1.51243317
v 0.384105802 0.0829226598 1.41709948
v 0.237411037 0.18729569 1.27378631
v 0.303499401 0.147551209 1.34353149
v 0.31159842 -0.368696928 1.70801473
v 0.241991013 -0.470248312 1.78454459
v 0.397129536 -0.260236681 1.62665784
v 0.447721362 -0.0680297762 1.5343492
v 0.37126711 0.140208572 1.43231606
v 0.241424814 0.229551688 1.3394841
v 0.157538161 0.249518335 1.26344085
v 0.397855014 -0.225323603 1.69942749
v 0.423669666 -0.323657274 1.7618717
v 0.410932571 -0.144924238 1.62835157
v 0.433481395 -0.00869610813 1.54724479
v 0.359494179 0.174106583 1.45279968
v 0.196255252 0.274530709 1.35212171
v 0.453775406 -0.0209399518 1.67482448
v 0.528909445 -0.102994345 1.73408389
v 0.402792931 0.0225485265 1.61416042
v 0.388812125 0.0922900215 1.54632914
v 0.322958112 0.218528017 1.46468496
v 0.407519877 0.194646299 1.64409232
v 0.517175257 0.0847944319 1.71923435
v 0.336150974 0.201455995 1.58840716
v 0.294586182 0.220564708 1.52869308
v 0.310866088 0.318178117 1.63295591
v 0.491189241 0.159358069 1.73587537
v 0.192835495 0.32835111 1.55888832
v 0.259990185 0.374169976 1.64940226
v 0.497018397 0.180084631 1.7691648
v 0.16260311 0.304347724 1.36974239
v 0.240769044 0.278728575 1.46177959
v 0.151055455 0.316953838 1.50190306
v 0.0637958348 0.373122394 1.55042517
v 0.247759536 0.415271878 1.67688799
v 0.451813459 0.300097048 1.77190828
v 0.109363042 0.328102678 1.37954247
v 0.104441054 0.328290969 1.44261813
v -0.0103208451 0.334928095 1.47656047
v -0.0112055717 0.398073494 1.5645417
v 0.1609115 0.479678661 1.68089759
v 0.26459533 0.476034403 1.74179792
v 0.0167854521 0.336493969 1.37515378
v -0.0536021292 0.321803361 1.414675
v -0.127651393 0.305769801 1.47000468
v -0.0580291674 0.428789228 1.58619547
v -0.0517342687 0.50795269 1.65550256
v 0.0541780517 0.53968364 1.72160017
v -0.107897252 0.303984851 1.35565662
v -0.171153992 0.258611232 1.39523947
v -0.204035491 0.282542646 1.48100901
v -0.148064822 0.434499741 1.59099758
v -0.221412018 0.454929501 1.64055562
v -0.10667263 0.517763138 1.71519315
v -0.217201233 0.217168525 1.32919466
v -0.241998881 0.17958872 1.39004648
v -0.263748765 0.27170518 1.49753261
v -0.291181654 0.361698836 1.57381415
v -0.328677744 0.354692072 1.63320708
v -0.215262145 0.469386905 1.72113955
v -0.380196035 0.251095712 1.63653362
v -0.379777431 0.257841676 1.5641191
v -0.412920386 0.129322618 1.5548861
v -0.39791441 0.0158811882 1.55425048
v -0.328660667 0.232337758 1.50298405
v -0.285890192 0.116691679 1.39824319
v -0.384621441 0.134995684 1.49508357
v -0.401561737 0.0273286495 1.48834634
v -0.36878103 -0.0859516114 1.47791767
v -0.302090824 -0.173787057 1.47346938
v -0.321026087 0.0670122579 1.4108448
v -0.344878137 0.0056073973 1.41699767
v -0.342842132 -0.0742302313 1.41701424
v -0.305149496 -0.160798609 1.41103935
v -0.229830012 -0.23393707 1.40021861
v -0.136008114 -0.277221799 1.39316106
v -0.0542376153 -0.283194304 1.32083094
v 0.0408232026 -0.276645839 1.31259966
v -0.14589265 -0.260734797 1.33103681
v -0.215161622 -0.214877814 1.33600521
v -0.251917839 -0.160638407 1.33263457
v -0.269011527 -0.103795551 1.32561827
v 0.0978225544 -0.24663879 1.23935974
v 0.16789405 -0.195392504 1.23108923
v 0.0179437455 -0.274766535 1.24818897
v -0.0545909368 -0.274664491 1.25239575
v -0.108310953 -0.253154784 1.24904299
v 0.198140785 -0.153604403 1.15587056
v 0.221698463 -0.0796286389 1.14830387
v 0.156732008 -0.213964656 1.16354454
v 0.106820658 -0.24921374 1.16718721
v 0.231228471 -0.0257438868 1.07124341
v 0.208309978 0.0390248224 1.06459892
v 0.234228075 -0.0882217586 1.07794535
v 0.183199957 0.0959029943 0.985916138
v 0.132679224 0.130925819 0.980160296
v -0.149726331 -0.219047874 1.24127841
v 0.0588416159 -0.258618355 1.16430318
v 0.2181229 -0.136201352 1.0810535
v 0.217471078 0.0536276065 0.991663277
v 0.074076049 0.160099134 0.899684906
v 0.0178236756 0.161725238 0.894667447
v 0.0123345368 -0.250403553 1.1571461
v 0.188646525 -0.164494231 1.07862735
v 0.230508655 0.0124064256 0.994312048
v 0.121449977 0.145635217 0.904811144
v -0.042111285 0.14559789 0.812660933
v -0.0889874846 0.119751498 0.80814904
v 0.149116009 -0.178588256 1.07238007
v 0.222837552 -0.0226496588 0.992292047
v 0.153001904 0.120898612 0.907145858
v 0.00441445317 0.157485276 0.817399621
v -0.11899133 0.0736548007 0.724805236
v -0.0841916576 0.108885229 0.729356349
v 0.0449620374 0.154154956 0.819508195
v 0.167270184 0.0893330127 0.905400455
v -0.0999785885 0.0696244389 0.64285326
v -0.0455525517 0.129855946 0.731459856
v 0.0774351433 0.137203842 0.817966819
v -0.069813095 0.10339462 0.641310632
v -0.00581975747 0.137514919 0.729916513
v -0.107130297 0.0930861533 0.547648549
v -0.0339886956 0.130395412 0.637105882
v -0.0868314877 0.136944816 0.542942107
v 0.0352556743 0.13542895 0.725769401
v 0.104349554 0.109923959 0.813634038
v -0.0571596883 0.177756786 0.541209042
v 0.00705900136 0.15276204 0.632862985
v -0.0133469263 0.210625857 0.544801354
v 0.0792474598 0.126271293 0.72161293
v 0.0541815534 0.168594867 0.631356895
v 0.16861923 0.0518319681 0.900684834
v 0.0462667868 0.22662802 0.554366469
v 0.108213633 0.171342969 0.634958267
v 0.125914261 0.108821578 0.720191717
v 0.129750878 0.0736471489 0.809304655
v 0.199638322 -0.0538901091 0.986964941
v 0.113254257 0.216878936 0.56740284
v 0.165176541 0.152308479 0.644131958
v 0.172028333 0.077786468 0.723839164
v 0.153615549 0.0285337772 0.807713211
v 0.162544981 0.00720169209 0.89583075
v 0.165344894 -0.0860605314 0.981347919
v 0.170658812 0.182408184 0.578865469
v 0.213413596 0.109029934 0.656460524
v 0.209004924 0.0283399969 0.732984006
v 0.170742646 -0.0275995135 0.81143415
v 0.150455996 -0.0451059528 0.893954217
v 0.10021589 -0.18674247 1.06585562
v 0.207261771 0.134006456 0.584846139
v 0.240121722 0.0508091636 0.667499661
v 0.225630701 -0.0350664333 0.74508822
v 0.171208546 -0.0928891376 0.820622385
v 0.12765485 -0.103403814 0.897584617
v 0.121508978 -0.121889286 0.978918135
v 0.223776385 0.0814879611 0.584476709
v 0.241679743 -0.00761222001 0.67332679
v 0.216498017 -0.0986126661 0.755959332
v 0.147415236 -0.158569977 0.833145738
v 0.086352922 -0.160872608 0.907345891
v 0.0652571768 -0.157669589 0.982462406
v 0.0414729714 -0.19242312 1.06264162
v 0.227361828 0.026803039 0.580527663
v 0.223692715 -0.0589688011 0.673341274
v 0.186531439 -0.148254916 0.761744738
v 0.103000835 -0.209554046 0.8442325
v 0.0248463117 -0.204833448 0.920658708
v -0.00700717885 -0.18294239 0.993006825
v -0.0289385375 -0.190870345 1.06611443
v 0.222581059 -0.0321431383 0.576958656
v 0.192983285 -0.105353683 0.669896722
v 0.144190088 -0.180798113 0.761850595
v 0.0500123948 -0.237590075 0.850100636
v -0.0455581211 -0.224634618 0.932431281
v -0.0897092298 -0.184379324 1.00780022
v -0.109003566 -0.169532895 1.077811
v 0.236088589 0.0571019463 0.485650957
v 0.246741593 -0.00668419711 0.487742692
v 0.20858945 -0.0943517163 0.576310754
v 0.241054639 -0.0647660196 0.488433301
v 0.183139876 -0.152236477 0.577583849
v 0.149541825 -0.196347684 0.577450037
v 0.153298497 -0.150581837 0.666688561
v 0.105494857 -0.192906171 0.665911078
v 0.00138876564 -0.241795599 0.666233718
v 0.0523165315 -0.22534138 0.666769743
v 0.0938003808 -0.20136337 0.758573949
v -0.134979039 -0.196352139 0.754721582
v 0.0363947004 -0.21499072 0.755511761
v -0.0860937759 -0.214631319 0.755358577
v -0.0257148296 -0.220645562 0.754643023
v -0.00206939271 -0.24437508 0.850021243
v -0.222224951 -0.0978077203 0.842937589
v -0.0529019348 -0.235960811 0.846524954
v -0.104607955 -0.216061175 0.843193591
v -0.197747454 -0.143594578 0.843369901
v -0.155750111 -0.184981152 0.842495859
v -0.108871236 -0.220784336 0.938400269
v -0.242902488 0.0399630032 0.930864513
v -0.157815337 -0.200612202 0.937858224
v -0.195271268 -0.168835953 0.933633864
v -0.225826815 -0.125722751 0.929928899
v -0.254931748 -0.0126778837 0.930795133
v -0.247998327 -0.0716468692 0.929315865
v -0.176031515 0.176342249 1.01857901
v -0.221431449 0.139088646 1.01754129
v -0.253016144 0.0843316093 1.01506913
v -0.266656399 0.0253252592 1.01535535
v -0.265299946 -0.0272935126 1.01986969
v -0.0314381048 0.25530833 1.10618114
v -0.0974008739 0.249101266 1.10352957
v 0.0758768767 0.268319696 1.18894053
v -0.161542118 0.217738092 1.09939122
v -0.00779168773 0.277243942 1.18221438
v -0.210027367 0.172370732 1.09934616
v 0.0747673362 0.281549752 1.26137769
v -0.0827495605 0.263249308 1.18141592
v 0.0110326475 0.294882953 1.27085662
v -0.240346521 0.125456303 1.10484207
v -0.139038995 0.239985585 1.18854308
v -0.0390776396 0.299860984 1.28499115
v -0.181431919 0.211743295 1.19887412
v -0.0969510898 0.289546788 1.29238117
v -0.255765766 0.0782447159 1.11223829
v -0.170781642 0.247164324 1.2868638
v -0.218492165 0.167335212 1.20385611
v -0.250863284 -0.0737913325 1.02527308
v -0.241817847 0.159618422 1.26792729
v -0.256296039 0.0219782814 1.11509681
v -0.219357833 -0.118177138 1.02669501
v -0.247254521 0.0941398218 1.1976186
v -0.164969623 -0.158979133 1.02054513
v -0.234978586 -0.047817193 1.10885
v -0.184058756 -0.118876837 1.09441173
v -0.249811158 -0.00381952827 1.18101633
v -0.214312404 -0.0990417078 1.16178131
v -0.27335757 0.0459741689 1.24532163
v -0.154839367 -0.166690663 1.14881778
v -0.268198341 0.117347278 1.31360221
v -0.260487646 -0.0525773056 1.23114085
v -0.279660702 0.0268394407 1.30966747
v -0.0932814404 -0.206891418 1.14573491
v -0.226394191 -0.123439327 1.22826779
v -0.276068985 -0.0445576496 1.3157748
v -0.187561125 -0.176599726 1.23305607
v -0.0374563821 -0.232568145 1.14972675
vt 0.958333313 0
vt 0.99999994 0.0500000119
vt 0.99999994 0
vt 0.958333313 0.0500000119
vt 0.99999994 0.099999994
vt 0.916666687 0
vt 0.958333313 0.099999994
vt 0.99999994 0.150000006
vt 0.916666687 0.0500000119
vt 0.875 0
vt 0.958333313 0.150000006
vt 0.99999994 0.199999988
vt 0.875 0.0500000119
vt 0.833333313 0
vt 0.916666687 0.099999994
vt 0.958333313 0.199999988
vt 0.99999994 0.25
vt 0.833333313 0.0500000119
vt 0.791666627 0
vt 0.875 0.099999994
vt 0.916666687 0.150000006
vt 0.958333313 0.25
vt 0.99999994 0.300000012
vt 0.791666627 0.0500000119
vt 0.75 0
vt 0.833333313 0.099999994
vt 0.875 0.150000006
vt 0.916666687 0.199999988
vt 0.958333313 0.300000012
vt 0.99999994 0.349999994
vt 0.75 0.0500000119
vt 0.708333254 0
vt 0.791666627 0.099999994
vt 0.833333313 0.150000006
vt 0.875 0.199999988
vt 0.916666687 0.25
vt 0.958333313 0.349999994
vt 0.99999994 0.400000006
vt 0.708333254 0.0500000119
vt 0.666666567 0
vt 0.75 0.099999994
vt 0.791666627 0.150000006
vt 0.833333313 0.199999988
vt 0.875 0.25
vt 0.916666687 0.300000012
vt 0.666666567 0.0500000119
vt 0.624999881 0
vt 0.708333254 0.099999994
vt 0.75 0.150000006
vt 0.791666627 0.199999988
vt 0.833333313 0.25
vt 0.875 0.300000012
vt 0.916666687 0.349999994
vt 0.624999881 0.0500000119
vt 0.583333254 0
vt 0.666666508 0.099999994
vt 0.708333254 0.150000006
vt 0.75 0.199999988
vt 0.791666627 0.25
vt 0.833333313 0.300000012
vt 0.583333254 0.0500000119
vt 0.541666567 0
vt 0.62499994 0.099999994
vt 0.666666567 0.150000006
vt 0.708333254 0.199999988
vt 0.75 0.25
vt 0.541666567 0.0500000119
vt 0.499999911 0
vt 0.583333254 0.099999994
vt 0.624999881 0.150000006
vt 0.666666567 0.199999988
vt 0.499999911 0.0500000119
vt 0.458333254 0
vt 0.541666567 0.099999994
vt 0.583333254 0.150000006
vt 0.458333254 0.0500000119
vt 0.416666657 0
vt 0.499999911 0.099999994
vt 0.416666657 0.0500000119
vt 0.374999911 0
vt 0.708333254 0.25
vt 0.624999881 0.199999988
vt 0.541666567 0.150000006
vt 0.458333254 0.099999994
vt 0.374999911 0.0500000119
vt 0.333333254 0
vt 0.666666567 0.25
vt 0.583333254 0.199999988
vt 0.499999911 0.150000006
vt 0.416666657 0.099999994
vt 0.333333254 0.0500000119
vt 0.291666597 0
vt 0.624999881 0.25
vt 0.541666567 0.199999988
vt 0.458333254 0.150000006
vt 0.374999911 0.099999994
vt 0.291666597 0.0500000119
vt 0.24999994 0
vt 0.583333254 0.25
vt 0.499999911 0.199999988
vt 0.416666597 0.150000006
vt 0.333333254 0.099999994
vt 0.24999994 0.0500000119
vt 0.208333284 0
vt 0.541666567 0.25
vt 0.458333254 0.199999988
vt 0.374999911 0.150000006
vt 0.291666627 0.099999994
vt 0.208333284 0.0500000119
vt 0.166666627 0
vt 0.499999911 0.25
vt 0.416666657 0.199999988
vt 0.333333254 0.150000006
vt 0.24999994 0.099999994
vt 0.166666627 0.0500000119
vt 0.12499997 0
vt 0.458333254 0.25
vt 0.374999911 0.199999988
vt 0.291666627 0.150000006
vt 0.208333284 0.099999994
vt 0.12499997 0.0500000119
vt 0.0833333135 0
vt 0.416666657 0.25
vt 0.333333254 0.199999988
vt 0.24999994 0.150000006
vt 0.166666627 0.099999994
vt 0.0833333135 0.0500000119
vt 0.0416666567 0
vt 0.374999911 0.25
vt 0.291666597 0.199999988
vt 0.208333284 0.150000006
vt 0.12499997 0.099999994
vt 0.0416666567 0.0500000119
vt -5.96046448E-08 0
vt -5.96046448E-08 0.0500000119
vt 0.0833333135 0.099999994
vt 0.0416666567 0.099999994
vt -5.96046448E-08 0.099999994
vt 0.166666627 0.150000006
vt 0.24999994 0.199999988
vt 0.12499997 0.150000006
vt 0.0416666567 0.150000006
vt -5.96046448E-08 0.150000006
vt 0.0833333135 0.150000006
vt 0.208333284 0.199999988
vt 0.0416666567 0.199999988
vt -5.96046448E-08 0.199999988
vt 0.166666627 0.199999988
vt 0.0833333135 0.199999988
vt 0.12499997 0.199999988
vt 0.0416666567 0.25
vt -5.96046448E-08 0.25
vt 0.0833333135 0.25
vt 0.12499997 0.25
vt 0.166666627 0.25
vt 0.208333284 0.25
vt 0.0416666567 0.300000012
vt -5.96046448E-08 0.300000012
vt 0.0833333135 0.300000012
vt 0.12499997 0.300000012
vt 0.166666627 0.300000012
vt 0.0416666567 0.349999994
vt -5.96046448E-08 0.349999994
vt 0.0833333135 0.349999994
vt 0.12499997 0.349999994
vt 0.0416666567 0.400000006
vt -5.96046448E-08 0.400000006
vt 0.0833333135 0.400000006
vt 0.0416666567 0.449999988
vt -5.96046448E-08 0.449999988
vt 0.208333284 0.300000012
vt 0.166666627 0.349999994
vt 0.12499997 0.400000006
vt 0.0833333135 0.449999988
vt 0.0416666567 0.5
vt -5.96046448E-08 0.5
vt 0.208333284 0.349999994
vt 0.166666627 0.400000006
vt 0.12499997 0.449999988
vt 0.0833333135 0.5
vt 0.0416666567 0.550000012
vt -5.96046448E-08 0.550000012
vt 0.208333284 0.400000006
vt 0.166666627 0.449999988
vt 0.12499997 0.5
vt 0.0833333135 0.550000012
vt 0.0416666567 0.600000024
vt -5.96046448E-08 0.600000024
vt 0.208333284 0.449999988
vt 0.166666627 0.5
vt 0.12499997 0.550000012
vt 0.0833333135 0.600000024
vt 0.0416666567 0.649999976
vt -5.96046448E-08 0.649999976
vt 0.208333284 0.5
vt 0.166666627 0.550000012
vt 0.12499997 0.600000024
vt 0.0833333135 0.649999976
vt 0.0416666567 0.699999988
vt -5.96046448E-08 0.699999988
vt 0.208333284 0.550000012
vt 0.166666627 0.600000024
vt 0.12499997 0.649999976
vt 0.0833333135 0.699999988
vt 0.0416666567 0.75000006
vt -5.96046448E-08 0.75000006
vt 0.208333284 0.600000024
vt 0.166666627 0.649999976
vt 0.12499997 0.699999988
vt 0.0833333135 0.75000006
vt 0.0416666567 0.800000012
vt -5.96046448E-08 0.800000012
vt 0.208333284 0.649999976
vt 0.166666627 0.699999988
vt 0.12499997 0.75000006
vt 0.0833333135 0.800000012
vt 0.0416666567 0.850000024
vt -5.96046448E-08 0.850000024
vt 0.208333284 0.699999988
vt 0.166666627 0.75000006
vt 0.12499997 0.800000012
vt 0.0833333135 0.850000024
vt 0.0416666567 0.899999976
vt -5.96046448E-08 0.899999976
vt 0.208333284 0.75000006
vt 0.166666627 0.800000012
vt 0.12499997 0.850000024
vt 0.0833333135 0.899999976
vt 0.0416666567 0.949999988
vt -5.96046448E-08 0.949999988
vt 0.0416666567 1
vt -5.96046448E-08 1
vt 0.0833333135 1
vt 0.0833333135 0.949999988
vt 0.12499997 1
vt 0.12499997 0.949999988
vt 0.166666627 1
vt 0.12499997 0.899999976
vt 0.166666627 0.949999988
vt 0.208333284 1
vt 0.166666627 0.899999976
vt 0.208333284 0.949999988
vt 0.24999994 1
vt 0.166666627 0.850000024
vt 0.24999994 0.949999988
vt 0.291666597 1
vt 0.208333284 0.899999976
vt 0.208333284 0.850000024
vt 0.291666597 0.949999988
vt 0.333333254 1
vt 0.24999994 0.899999976
vt 0.208333284 0.800000012
vt 0.333333254 0.949999988
vt 0.374999911 1
vt 0.24999994 0.850000024
vt 0.291666597 0.899999976
vt 0.24999994 0.800000012
vt 0.374999911 0.949999988
vt 0.416666657 1
vt 0.291666597 0.850000024
vt 0.333333254 0.899999976
vt 0.24999994 0.75000006
vt 0.416666657 0.949999988
vt 0.458333254 1
vt 0.374999911 0.899999976
vt 0.291666597 0.800000012
vt 0.333333254 0.850000024
vt 0.24999994 0.699999988
vt 0.458333254 0.949999988
vt 0.499999911 1
vt 0.416666657 0.899999976
vt 0.374999911 0.850000024
vt 0.291666597 0.75000006
vt 0.333333254 0.800000012
vt 0.24999994 0.649999976
vt 0.499999911 0.949999988
vt 0.541666567 1
vt 0.458333254 0.899999976
vt 0.416666657 0.850000024
vt 0.374999911 0.800000012
vt 0.291666597 0.699999988
vt 0.333333254 0.75000006
vt 0.541666567 0.949999988
vt 0.583333254 1
vt 0.499999911 0.899999976
vt 0.458333254 0.850000024
vt 0.416666657 0.800000012
vt 0.374999911 0.75000006
vt 0.333333254 0.699999988
vt 0.583333254 0.949999988
vt 0.624999881 1
vt 0.541666567 0.899999976
vt 0.499999911 0.850000024
vt 0.458333254 0.800000012
vt 0.416666657 0.75000006
vt 0.624999881 0.949999988
vt 0.666666567 1
vt 0.583333254 0.899999976
vt 0.541666567 0.850000024
vt 0.499999911 0.800000012
vt 0.666666567 0.949999988
vt 0.708333254 1
vt 0.624999881 0.899999976
vt 0.583333254 0.850000024
vt 0.708333254 0.949999988
vt 0.75 1
vt 0.666666567 0.899999976
vt 0.75 0.949999988
vt 0.791666627 1
vt 0.458333254 0.75000006
vt 0.541666567 0.800000012
vt 0.624999881 0.850000024
vt 0.708333254 0.899999976
vt 0.791666627 0.949999988
vt 0.833333313 1
vt 0.499999911 0.75000006
vt 0.583333254 0.800000012
vt 0.666666567 0.850000024
vt 0.75 0.899999976
vt 0.833333313 0.949999988
vt 0.875 1
vt 0.541666567 0.75000006
vt 0.624999881 0.800000012
vt 0.708333254 0.850000024
vt 0.791666627 0.899999976
vt 0.875 0.949999988
vt 0.916666687 1
vt 0.583333254 0.75000006
vt 0.666666567 0.800000012
vt 0.75 0.850000024
vt 0.833333313 0.899999976
vt 0.916666687 0.949999988
vt 0.958333313 1
vt 0.624999881 0.75000006
vt 0.708333254 0.800000012
vt 0.791666627 0.850000024
vt 0.875 0.899999976
vt 0.958333313 0.949999988
vt 0.99999994 1
vt 0.99999994 0.949999988
vt 0.916666687 0.899999976
vt 0.958333313 0.899999976
vt 0.99999994 0.899999976
vt 0.833333313 0.850000024
vt 0.75 0.800000012
vt 0.875 0.850000024
vt 0.916666687 0.850000024
vt 0.958333313 0.850000024
vt 0.99999994 0.850000024
vt 0.791666627 0.800000012
vt 0.833333313 0.800000012
vt 0.875 0.800000012
vt 0.916666687 0.800000012
vt 0.958333313 0.800000012
vt 0.99999994 0.800000012
vt 0.958333313 0.75000006
vt 0.99999994 0.75000006
vt 0.916666687 0.75000006
vt 0.875 0.75000006
vt 0.833333313 0.75000006
vt 0.791666627 0.75000006
vt 0.958333313 0.699999988
vt 0.99999994 0.699999988
vt 0.916666687 0.699999988
vt 0.875 0.699999988
vt 0.833333313 0.699999988
vt 0.958333313 0.649999976
vt 0.99999994 0.649999976
vt 0.916666687 0.649999976
vt 0.875 0.649999976
vt 0.958333313 0.600000024
vt 0.99999994 0.600000024
vt 0.916666687 0.600000024
vt 0.958333313 0.550000012
vt 0.99999994 0.550000012
vt 0.791666627 0.699999988
vt 0.833333313 0.649999976
vt 0.875 0.600000024
vt 0.916666687 0.550000012
vt 0.958333313 0.5
vt 0.99999994 0.5
vt 0.791666627 0.649999976
vt 0.833333313 0.600000024
vt 0.875 0.550000012
vt 0.916666687 0.5
vt 0.958333313 0.449999988
vt 0.99999994 0.449999988
vt 0.791666627 0.600000024
vt 0.833333313 0.550000012
vt 0.875 0.5
vt 0.916666687 0.449999988
vt 0.958333313 0.400000006
vt 0.916666687 0.400000006
vt 0.875 0.449999988
vt 0.833333313 0.5
vt 0.875 0.349999994
vt 0.875 0.400000006
vt 0.833333313 0.449999988
vt 0.833333313 0.349999994
vt 0.833333313 0.400000006
vt 0.791666627 0.300000012
vt 0.791666627 0.349999994
vt 0.75 0.300000012
vt 0.791666627 0.400000006
vt 0.791666627 0.449999988
vt 0.708333254 0.300000012
vt 0.75 0.349999994
vt 0.666666567 0.300000012
vt 0.75 0.400000006
vt 0.708333254 0.349999994
vt 0.791666627 0.5
vt 0.624999881 0.300000012
vt 0.666666567 0.349999994
vt 0.708333254 0.400000006
vt 0.75 0.449999988
vt 0.791666627 0.550000012
vt 0.583333254 0.300000012
vt 0.624999881 0.349999994
vt 0.666666567 0.400000006
vt 0.708333254 0.449999988
vt 0.75 0.5
vt 0.75 0.550000012
vt 0.541666567 0.300000012
vt 0.583333254 0.349999994
vt 0.624999881 0.400000006
vt 0.666666567 0.449999988
vt 0.708333254 0.5
vt 0.75 0.600000024
vt 0.499999911 0.300000012
vt 0.541666567 0.349999994
vt 0.583333254 0.400000006
vt 0.624999881 0.449999988
vt 0.666666567 0.5
vt 0.708333254 0.550000012
vt 0.458333254 0.300000012
vt 0.499999911 0.349999994
vt 0.541666567 0.400000006
vt 0.583333254 0.449999988
vt 0.624999881 0.5
vt 0.666666567 0.550000012
vt 0.708333254 0.600000024
vt 0.416666657 0.300000012
vt 0.458333254 0.349999994
vt 0.499999911 0.400000006
vt 0.541666567 0.449999988
vt 0.583333254 0.5
vt 0.624999881 0.550000012
vt 0.666666567 0.600000024
vt 0.374999911 0.300000012
vt 0.416666657 0.349999994
vt 0.458333254 0.400000006
vt 0.499999911 0.449999988
vt 0.541666567 0.5
vt 0.583333254 0.550000012
vt 0.624999881 0.600000024
vt 0.333333254 0.25
vt 0.291666597 0.25
vt 0.333333254 0.300000012
vt 0.24999994 0.25
vt 0.291666597 0.300000012
vt 0.24999994 0.300000012
vt 0.374999911 0.349999994
vt 0.333333254 0.349999994
vt 0.24999994 0.349999994
vt 0.291666597 0.349999994
vt 0.416666657 0.400000006
vt 0.24999994 0.400000006
vt 0.374999911 0.400000006
vt 0.291666597 0.400000006
vt 0.333333254 0.400000006
vt 0.458333254 0.449999988
vt 0.24999994 0.449999988
vt 0.416666657 0.449999988
vt 0.374999911 0.449999988
vt 0.291666597 0.449999988
vt 0.333333254 0.449999988
vt 0.499999911 0.5
vt 0.24999994 0.5
vt 0.458333254 0.5
vt 0.416666657 0.5
vt 0.374999911 0.5
vt 0.291666597 0.5
vt 0.333333254 0.5
vt 0.24999994 0.550000012
vt 0.291666597 0.550000012
vt 0.333333254 0.550000012
vt 0.374999911 0.550000012
vt 0.416666657 0.550000012
vt 0.24999994 0.600000024
vt 0.291666597 0.600000024
vt 0.291666597 0.649999976
vt 0.333333254 0.600000024
vt 0.333333254 0.649999976
vt 0.374999911 0.600000024
vt 0.374999911 0.699999988
vt 0.374999911 0.649999976
vt 0.416666657 0.699999988
vt 0.416666657 0.600000024
vt 0.416666657 0.649999976
vt 0.458333254 0.699999988
vt 0.458333254 0.649999976
vt 0.499999911 0.699999988
vt 0.458333254 0.600000024
vt 0.541666567 0.699999988
vt 0.499999911 0.649999976
vt 0.458333254 0.550000012
vt 0.583333254 0.699999988
vt 0.499999911 0.600000024
vt 0.499999911 0.550000012
vt 0.541666567 0.649999976
vt 0.541666567 0.550000012
vt 0.541666567 0.600000024
vt 0.583333254 0.600000024
vt 0.583333254 0.649999976
vt 0.624999881 0.649999976
vt 0.624999881 0.699999988
vt 0.666666567 0.649999976
vt 0.666666567 0.75000006
vt 0.666666567 0.699999988
vt 0.708333254 0.75000006
vt 0.708333254 0.649999976
vt 0.708333254 0.699999988
vt 0.75 0.75000006
vt 0.75 0.699999988
vt 0.75 0.649999976
vn 0.189046636 0.816537738 0.54546082
vn 0.566112936 0.782369435 0.259642661
vn -0.0298465658 0.834778011 0.549777091
vn 0.760230064 0.605813444 0.234606981
vn 0.893612146 0.33317554 0.300751239
vn 0.393717557 0.737309217 0.548964083
vn 0.96464026 0.056149032 0.257520109
vn 0.897292852 -0.21540679 0.3853122
vn 0.896199763 0.383131683 0.223687604
vn 0.567213595 0.606271863 0.557407498
vn 0.782916129 -0.484274358 0.39053905
vn 0.588664472 -0.767130136 0.254922688
vn 0.963663399 0.138329342 0.228512019
vn 0.700636387 0.437532246 0.563626051
vn 0.94595778 -0.23681289 0.221548036
vn 0.328186005 -0.865849674 0.377621651
vn -0.0745693222 -0.996833622 -0.0276080463
vn 0.965377569 -0.109441459 0.236788198
vn 0.790433705 0.242634207 0.562443972
vn 0.842417419 -0.499889553 0.20110549
vn 0.582872093 -0.727710783 0.361520678
vn -0.325633377 -0.933195353 0.152017727
vn -0.684864283 -0.681452274 -0.258038312
vn 0.90602839 -0.349424183 0.23877883
vn 0.831560373 0.03035805 0.554604173
vn 0.679246366 -0.709619761 0.18725419
vn 0.31797111 -0.894343913 0.314711541
vn 0.0284969602 -0.904529631 0.425457448
vn -0.847350419 -0.523084641 -0.0915415958
vn -0.933896303 -0.120132491 -0.33675769
vn 0.787134051 -0.570588589 0.234197706
vn 0.8167274 -0.187956452 0.545553565
vn 0.480434597 -0.858098686 0.181243837
vn 0.0332673639 -0.966141343 0.255859703
vn -0.27412343 -0.871983469 0.405587375
vn -0.567148864 -0.776991725 0.273177505
vn -0.972715139 0.0821055248 -0.216988444
vn -0.864980519 0.42528978 -0.266340524
vn 0.6124385 -0.755460322 0.232806236
vn 0.742067695 -0.395509988 0.541209161
vn 0.262587577 -0.944869399 0.195626333
vn -0.222464085 -0.953575134 0.202988118
vn -0.527353227 -0.76968354 0.359841198
vn -0.757295728 -0.562215924 0.332289755
vn -0.956504464 -0.287407666 0.0499604717
vn 0.390390992 -0.889572084 0.237184048
vn 0.61204505 -0.574147165 0.543834448
vn 0.0359700695 -0.971704483 0.233444974
vn -0.42688787 -0.884040654 0.19036527
vn -0.705239594 -0.631029129 0.323170871
vn -0.865335286 -0.339917153 0.368308455
vn -0.987410367 -0.0214916319 0.156712905
vn -0.939939857 0.321038902 -0.115961313
vn 0.132850319 -0.961289167 0.241400167
vn 0.437889636 -0.708512783 0.553409636
vn -0.199513316 -0.940316856 0.275678575
vn -0.594742656 -0.7740466 0.217101291
vn -0.825554907 -0.477136254 0.301330417
vn -0.901513159 -0.148632035 0.40642646
vn -0.943353832 0.209430963 0.257336557
vn -0.140258655 -0.958701432 0.247424558
vn 0.235670075 -0.788018942 0.56875807
vn -0.454782546 -0.841884315 0.290522784
vn -0.74511987 -0.612685621 0.26346302
vn -0.913094878 -0.291312635 0.285297573
vn -0.898657382 0.0207396392 0.438160717
vn -0.398362547 -0.879808784 0.25931409
vn 0.0232261196 -0.810033321 0.585923672
vn -0.709349096 -0.65443182 0.261806726
vn -0.885929644 -0.372498453 0.276357889
vn -0.963008821 -0.0443913378 0.265788376
vn -0.612964511 -0.739168584 0.279113233
vn -0.184540689 -0.778702259 0.599639595
vn -0.891436279 -0.392590225 0.226305515
vn -0.972519159 -0.049313575 0.227540627
vn -0.775085747 -0.556916893 0.298472285
vn -0.376414716 -0.698732555 0.608345807
vn -0.974144518 -0.11332278 0.195448995
vn -0.884648144 -0.346675247 0.31179136
vn -0.541428864 -0.574385703 0.613951027
vn -0.874830782 0.217305988 0.432953984
vn -0.935491562 0.256486893 0.243043318
vn -0.944232106 0.277983665 0.176495776
vn -0.976233184 0.138712794 0.166515321
vn -0.941131711 -0.11372529 0.318335801
vn -0.668384075 -0.412671983 0.61884129
vn -0.794504702 0.476962149 0.375858217
vn -0.800461292 0.563394725 0.204567716
vn -0.829456091 0.537260711 0.152818531
vn -0.922576904 0.360366344 0.137797177
vn -0.937106907 0.134327576 0.32215938
vn -0.748135507 -0.225019693 0.624226987
vn -0.5984115 0.746562302 0.290771991
vn -0.570851028 0.805520833 0.158949986
vn -0.671641052 0.732060075 0.113957778
vn -0.811011314 0.572892904 0.118551016
vn -0.866275489 0.378666997 0.325849742
vn -0.778217256 -0.0248657502 0.627502561
vn -0.293591797 0.934658527 0.200542405
vn -0.304085672 0.944177389 0.12673226
vn -0.473928958 0.879631519 0.0404925868
vn -0.620927393 0.778670192 0.0901214927
vn -0.733727992 0.592178106 0.333119154
vn -0.759422898 0.175904423 0.626366019
vn 0.059259396 0.992389381 0.10794317
vn -0.0411992148 0.994801283 0.0931296051
vn -0.223649725 0.974591017 -0.0123727703
vn -0.356247872 0.931933045 0.0677373558
vn -0.557125449 0.757689118 0.339880109
vn -0.694792688 0.36789763 0.617992342
vn 0.385744184 0.922311723 0.0232920162
vn 0.202091396 0.977451503 0.0612183474
vn 0.0657150894 0.997523129 -0.0250793882
vn -0.0778562129 0.992201567 0.0973364413
vn -0.353103936 0.872288942 0.338274628
vn -0.586114347 0.542986751 0.601361215
vn 0.628965318 0.777199566 -0.0190643538
vn 0.429306626 0.90158844 0.0532351062
vn 0.366588682 0.929777503 -0.0335632265
vn 0.161437526 0.972474277 0.168022677
vn -0.132484525 0.936195791 0.325553894
vn -0.433785945 0.68936497 0.580177307
vn 0.785561085 0.618697345 0.0103617916
vn 0.642552793 0.764151871 0.0565492548
vn 0.625135958 0.779159427 -0.0459967591
vn 0.35317862 0.908750355 0.222345933
vn 0.098874636 0.945498705 0.310251385
vn -0.243559822 0.790803969 0.561522663
vn 0.885917008 0.454949081 0.0904009789
vn 0.826349676 0.562139153 0.0338502713
vn 0.799017191 0.599792004 -0.0426743999
vn 0.500999987 0.824864686 0.261910766
vn 0.336973935 0.896259189 0.288388461
vn -0.0298465658 0.834778011 0.549777091
vn 0.566112936 0.782369435 0.259642661
vn 0.630978405 0.71212399 0.307807714
vn 0.765535355 0.554254949 0.326736808
vn 0.893612146 0.33317554 0.300751239
vn 0.893319905 0.449407339 -0.00353989401
vn 0.948920727 0.314140707 -0.0294126868
vn 0.938489735 0.333671898 0.0888828784
vn 0.943580806 0.024308227 0.330249012
vn 0.897292852 -0.21540679 0.3853122
vn 0.953840852 0.204581216 0.219850153
vn 0.991323948 0.0671354383 -0.11300315
vn 0.779276311 -0.620163381 0.0901427045
vn 0.588664472 -0.767130136 0.254922688
vn 0.976532459 -0.132450119 -0.169827312
vn 0.88839972 -0.454389036 -0.0653952137
vn 0.942537606 -0.293406367 -0.159798667
vn 0.14806658 -0.966488481 -0.209705263
vn -0.0745693222 -0.996833622 -0.0276080463
vn 0.335909367 -0.883533239 -0.326395541
vn 0.517823398 -0.786062896 -0.337585509
vn 0.707431912 -0.667156041 -0.233329922
vn 0.876420319 -0.477324426 -0.0636295974
vn -0.503311276 -0.767041147 -0.397901654
vn -0.684864283 -0.681452274 -0.258038312
vn -0.319979578 -0.824801624 -0.466170967
vn -0.112390921 -0.897856891 -0.425701022
vn 0.154750928 -0.958309889 -0.240196228
vn -0.852470517 -0.278817952 -0.442215681
vn -0.933896303 -0.120132491 -0.33675769
vn -0.758434653 -0.426053286 -0.493209362
vn -0.652744234 -0.608896911 -0.450743258
vn -0.893289924 0.260017991 -0.366638392
vn -0.864980519 0.42528978 -0.266340524
vn -0.893802166 0.101792157 -0.436756253
vn -0.666397631 0.708429754 -0.23246859
vn -0.552520394 0.824583888 -0.121584326
vn 0.453297287 -0.891337216 0.00629223185
vn -0.479751229 -0.836184978 -0.265769333
vn -0.895130038 -0.0800678059 -0.438555986
vn -0.733659923 0.586845279 -0.342572391
vn -0.223908395 0.964475632 -0.140184671
vn -0.0600628518 0.998109221 -0.0130593684
vn -0.180025101 -0.983659744 -0.00212662853
vn -0.881668627 -0.331566334 -0.335744262
vn -0.789778233 0.455711573 -0.410581619
vn -0.334916949 0.896845818 -0.288960487
vn 0.319515944 0.942086875 -0.101891883
vn 0.487990856 0.871321797 0.0516068041
vn -0.759245992 -0.635439813 -0.140577227
vn -0.869704962 0.284323066 -0.403452039
vn -0.417093605 0.811791122 -0.408690661
vn 0.180791169 0.943960607 -0.276139438
vn 0.785750568 0.600595951 -0.147921041
vn 0.902363837 0.429793447 0.0318928584
vn -0.952949882 0.0177182313 -0.302609533
vn -0.518568218 0.717400193 -0.465213865
vn 0.0746949241 0.904466867 -0.41995275
vn 0.649199665 0.692049086 -0.315607131
vn 0.965442717 0.0293007623 -0.25896281
vn 0.978298664 -0.195763886 -0.0678840354
vn -0.687376022 0.583527446 -0.43244639
vn -0.0322714821 0.86486274 -0.500970066
vn 0.530690074 0.724737108 -0.439459026
vn 0.897488356 0.208628759 -0.388572752
vn 0.778050423 -0.53145659 -0.334949851
vn 0.673173189 -0.724089801 -0.15010567
vn -0.202672988 0.843622029 -0.497217834
vn 0.429767877 0.745992362 -0.508719027
vn 0.825251281 0.332187504 -0.456740469
vn 0.83358407 -0.341633558 -0.434078604
vn 0.352879882 -0.875844479 -0.329199523
vn 0.177185968 -0.969665825 -0.168384343
vn 0.293275326 0.815831184 -0.498406589
vn 0.768293142 0.4217408 -0.481518805
vn 0.87193805 -0.17984575 -0.455389589
vn 0.487116367 -0.758019447 -0.433732718
vn -0.147837818 -0.950580955 -0.273019731
vn -0.323688775 -0.940334857 -0.10486085
vn 0.695204914 0.558540821 -0.452462375
vn 0.89793843 -0.0627925396 -0.435618848
vn 0.603608906 -0.650640845 -0.460785121
vn -0.00661139749 -0.904694915 -0.426008821
vn -0.620390594 -0.754942358 -0.212549716
vn -0.739424109 -0.673197746 0.0075437976
vn 0.900168955 0.10265296 -0.423270792
vn 0.675920606 -0.585165739 -0.448009282
vn 0.1252933 -0.8714872 -0.474143028
vn -0.495543122 -0.750238895 -0.437696904
vn -0.931877434 -0.301476955 -0.201782078
vn -0.976544738 -0.202908799 0.0720305219
vn 0.749533057 -0.437763631 -0.496551424
vn 0.187771469 -0.831692755 -0.522521734
vn -0.368088245 -0.793509424 -0.484617263
vn -0.822646737 -0.346711606 -0.450603336
vn -0.912117898 0.305453688 -0.273384154
vn -0.918336987 0.395600557 -0.0125427609
vn -0.562202692 0.598048925 -0.571196675
vn -0.477181077 0.736739159 -0.479075819
vn -0.455145717 0.487413883 -0.745164394
vn -0.876078069 0.193290561 -0.441730618
vn -0.457791507 0.392620414 -0.797669172
vn -0.857623279 0.015463829 -0.514045894
vn -0.573796868 0.254598558 -0.778419435
vn -0.733142912 -0.467308462 -0.494089395
vn -0.768722117 -0.0848227963 -0.633933187
vn -0.602524757 0.130484477 -0.787361145
vn -0.619059384 -0.480246246 -0.621392787
vn -0.707044184 -0.129558712 -0.695199907
vn -0.58407557 0.07165692 -0.808530152
vn -0.283666551 -0.759307861 -0.585649014
vn -0.735150754 -0.371724665 -0.566898763
vn -0.60154587 -0.0297007561 -0.798285902
vn -0.515005767 -0.44139123 -0.734808028
vn -0.193917617 -0.677053154 -0.709926009
vn -0.560125232 -0.71479857 -0.418715477
vn -0.677502334 -0.418050617 -0.605164766
vn -0.385974139 -0.594645679 -0.705280483
vn 0.278033644 -0.730713844 -0.623501778
vn -0.244970471 -0.954611778 -0.169427633
vn -0.451502055 -0.621973217 -0.639761806
vn -0.000734674453 -0.67938441 -0.733782172
vn -0.0762108266 -0.837742329 -0.540721416
vn 0.438466072 -0.593161285 -0.675208986
vn -0.0153447352 -0.968444049 -0.248758107
vn -0.29909277 -0.741272986 -0.60088104
vn 0.325976253 -0.672942877 -0.663993418
vn 0.336029172 -0.903230488 -0.266943783
vn 0.803442717 -0.218030155 -0.554023981
vn 0.155246466 -0.940795302 -0.301334798
vn -0.219878227 -0.63962245 -0.736570895
vn 0.523032725 -0.779273927 -0.345208526
vn 0.636666596 -0.384497434 -0.668443978
vn 0.728159249 -0.539620578 -0.422603428
vn 0.843275964 0.332240105 -0.422495157
vn 0.393235475 -0.906326175 -0.154721558
vn -0.013205017 -0.788891375 -0.614390731
vn 0.692100108 -0.670915604 -0.266213894
vn 0.839066863 -0.332088739 -0.430910468
vn 0.819931209 0.0635234192 -0.568926632
vn 0.839465916 -0.0766745731 -0.537975788
vn 0.537256718 0.761572599 -0.362439394
vn 0.64334476 -0.758661687 0.102664426
vn 0.323721707 -0.878736019 -0.350752383
vn 0.86248976 -0.497276604 0.0939550847
vn 0.949419975 -0.136704266 -0.282690018
vn 0.863885999 0.186639935 -0.467831641
vn 0.705889702 0.591074526 -0.390321314
vn 0.772812307 0.390370548 -0.500371754
vn 0.812217057 -0.582219601 0.0363836028
vn 0.377591938 -0.683924615 -0.624236763
vn 0.92122972 -0.245332524 0.301906824
vn 0.991690397 0.0694355071 0.108300053
vn 0.849030137 0.389389664 -0.357104421
vn 0.646255672 0.627131701 -0.434809595
vn 0.482325792 0.815029323 -0.321074754
vn 0.730783939 -0.384340703 -0.564125121
vn 0.350110173 -0.417309672 -0.838615239
vn 0.983048916 -0.049671039 0.176487193
vn 0.915597081 0.290763915 0.277737767
vn 0.818462431 0.569954932 -0.0725988746
vn 0.524473011 0.748068213 -0.406598002
vn 0.634677887 -0.0991424918 -0.766390681
vn 0.443168044 -0.212489277 -0.870890617
vn 0.929262638 0.123731345 -0.348082751
vn 0.855758548 0.481771111 0.188610867
vn 0.663265884 0.741522789 0.101105325
vn 0.72091198 0.34820962 -0.599196076
vn 0.605489075 0.0867209584 -0.791114628
vn 0.703707635 0.376327664 -0.602638543
vn 0.717750311 0.683974147 -0.130437404
vn 0.622109592 0.579071343 -0.52693069
vn 0.69548291 0.461121321 -0.55106324
vn 0.438374311 0.734814763 -0.517566562
vn 0.498268485 0.597197235 -0.628557146
vn 0.661846042 0.480292678 -0.57556814
vn 0.415157259 0.869797766 -0.266638875
vn 0.471050233 0.879389405 0.0691814274
vn 0.378622115 0.875054896 -0.301536262
vn 0.211259365 0.798960984 -0.56305486
vn 0.50192374 0.67005223 -0.546902776
vn 0.516021252 0.256289095 -0.817335844
vn 0.193196639 0.977019548 -0.0900426134
vn 0.178326756 0.982830405 -0.0473718084
vn -0.0528237745 0.951027572 -0.304558933
vn 0.114019461 0.715057433 -0.689704657
vn 0.269027531 0.763536274 -0.58705759
vn 0.446048379 0.471693933 -0.760621905
vn -0.0966786519 0.993324101 -0.0629324466
vn -0.243139043 0.967601418 -0.0680497885
vn -0.283544779 0.844627917 -0.454099178
vn 0.0435581692 0.726010442 -0.686302781
vn -0.0764451623 0.87006408 -0.486974865
vn 0.187110603 0.715088427 -0.673526704
vn -0.433159083 0.89549607 -0.102273591
vn -0.601601183 0.789690733 -0.120269321
vn -0.322830409 0.695349097 -0.642082691
vn -0.188672021 0.722410917 -0.665225863
vn -0.501639485 0.837723196 -0.215818644
vn -0.178404793 0.848280549 -0.498589844
vn -0.760816455 0.643316329 -0.0854546502
vn -0.765052259 0.577510774 -0.284914762
vn -0.378859311 0.60591197 -0.699525833
vn -0.512855232 0.655409932 -0.5544523
vn -0.794476926 0.607236385 -0.00838860031
vn -0.477181077 0.736739159 -0.479075819
vn -0.918336987 0.395600557 -0.0125427609
vn -0.867201626 0.428078234 -0.254382014
vn -0.997078419 0.0762439445 -0.00465425244
vn -0.976544738 -0.202908799 0.0720305219
vn -0.560011744 0.483494669 -0.672770143
vn -0.755682468 0.415878743 -0.505953491
vn -0.778592587 0.272312641 -0.565366626
vn -0.956023276 -0.0841268301 -0.280966401
vn -0.89668566 -0.438917965 -0.0574971214
vn -0.739424109 -0.673197746 0.0075437976
vn -0.738472283 0.278028607 -0.614295363
vn -0.792609751 0.0793414488 -0.604545057
vn -0.843192816 -0.208696827 -0.495450944
vn -0.781155467 -0.556292057 -0.283434808
vn -0.565461159 -0.816568494 -0.116058871
vn -0.323688775 -0.940334857 -0.10486085
vn -0.0853899345 -0.990881085 -0.10422679
vn 0.177185968 -0.969665825 -0.168384343
vn -0.391907901 -0.898875296 -0.196039528
vn -0.639778793 -0.685711145 -0.347107291
vn -0.772903681 -0.429749042 -0.466835886
vn -0.847828388 -0.249414265 -0.46795249
vn 0.465453595 -0.884988785 -0.0121560264
vn 0.673173189 -0.724089801 -0.15010567
vn 0.163641676 -0.985741019 -0.0391925983
vn -0.166880533 -0.969735324 -0.178225324
vn -0.434448421 -0.834977388 -0.337738693
vn 0.891398489 -0.447260082 0.0732601658
vn 0.978298664 -0.195763886 -0.0678840354
vn 0.703827918 -0.709182978 0.0410563014
vn 0.413763314 -0.902975202 -0.115911938
vn 0.975777984 0.180483982 0.12362387
vn 0.902363837 0.429793447 0.0318928584
vn 0.988230228 -0.144939065 0.0489259623
vn 0.682493448 0.723208964 0.105694979
vn 0.487990856 0.871321797 0.0516068041
vn -0.592947662 -0.702607095 -0.393390834
vn 0.0777306929 -0.939328909 -0.334094524
vn 0.857581615 -0.493675113 -0.144355685
vn 0.880468547 0.473837972 0.0158979259
vn 0.166660339 0.985506415 0.031645488
vn -0.0600628518 0.998109221 -0.0130593684
vn -0.15098244 -0.875359595 -0.45929271
vn 0.552981019 -0.721568823 -0.41659373
vn 0.976018429 0.100013867 -0.193352669
vn 0.45450139 0.889780045 -0.0414720625
vn -0.365698636 0.928487003 -0.0646249056
vn -0.552520394 0.824583888 -0.121584326
vn 0.300541043 -0.777314007 -0.552682579
vn 0.835114539 -0.278743148 -0.474221468
vn 0.734054506 0.638761401 -0.230538368
vn -0.0941759944 0.991122603 -0.0938441828
vn -0.77442199 0.606224775 -0.181003228
vn -0.60137707 0.786425412 -0.140999258
vn 0.240368843 0.949133098 -0.203394309
vn 0.854487956 0.278873146 -0.438269466
vn -0.830216587 0.556491137 -0.0325272009
vn -0.354003102 0.92520386 -0.136673197
vn 0.529203951 0.797293484 -0.290286452
vn -0.673566222 0.735560894 0.0725162849
vn -0.0930632353 0.990500689 -0.101230383
vn -0.852272153 0.371639818 0.368125021
vn -0.507013381 0.833081067 0.221163809
vn -0.738152266 0.487214208 0.466640711
vn 0.120959893 0.992268264 0.027790973
vn 0.719887316 0.655019462 -0.229590341
vn -0.599674404 0.610974669 0.516817808
vn -0.338984907 0.859617651 0.382291377
vn -0.39662087 0.774944901 0.492089629
vn 0.283792317 0.931620181 0.227037072
vn -0.154434144 0.851585686 0.500951052
vn 0.887770593 0.0326593295 -0.459126055
vn -0.0789101869 0.918277681 0.387994081
vn 0.0836741775 0.836979091 0.540800035
vn 0.416752487 0.807929873 0.41661346
vn 0.846118271 0.531877995 -0.0344911292
vn 0.675413847 -0.476459175 -0.562852323
vn 0.304915041 0.919717073 0.247279748
vn 0.405999541 0.77696991 0.481125891
vn 0.558053613 0.639026463 0.52935946
vn 0.902460754 0.373251826 0.215052798
vn 0.940562725 -0.125453904 -0.315599591
vn 0.621967971 -0.614503026 -0.485326558
vn 0.650633156 0.753503084 0.0943912044
vn 0.748045802 0.579078555 0.324184418
vn 0.734097838 0.413760811 0.538425803
vn 0.894519329 0.162007406 0.416639864
vn 0.95798564 -0.279051155 -0.0662861243
vn 0.175950006 -0.83625114 -0.519351304
vn 0.878628314 0.474275023 -0.0554578416
vn 0.961095631 0.242490381 0.132263497
vn 0.90495795 0.0823950022 0.417447358
vn 0.856302142 -0.0978589132 0.507119536
vn 0.869771719 -0.451642931 0.198785976
vn 0.581203401 -0.75696969 -0.298662633
vn 0.971835971 0.197553366 -0.128482327
vn 0.989298463 -0.130502075 -0.0652516112
vn 0.925089419 -0.314267099 0.213180333
vn 0.783211887 -0.422997177 0.455689102
vn 0.678611279 -0.624112427 0.387260079
vn 0.451358944 -0.890611827 -0.0555487648
vn 0.0606187955 -0.915786684 -0.397064298
vn 0.997893035 -0.00337416446 -0.0647928193
vn 0.889940143 -0.415500015 -0.188059255
vn 0.762275159 -0.647250533 -0.00180427625
vn 0.599835098 -0.748520136 0.282693356
vn 0.421270996 -0.787587881 0.449706644
vn 0.199450582 -0.965612411 0.166769832
vn -0.127817407 -0.963477373 -0.235317051
vn 0.983346105 -0.159216821 0.0876382515
vn 0.795788646 -0.588872373 -0.141243458
vn 0.515562892 -0.837128699 -0.182785168
vn 0.311033338 -0.94525224 0.0987745821
vn 0.10997279 -0.918144703 0.380678773
vn -0.118446253 -0.944052815 0.307790041
vn -0.406143516 -0.910542607 -0.0771981031
vn 0.953416646 0.261345863 0.150648817
vn 0.989473522 0.0275469162 0.142067879
vn 0.922843337 -0.316997349 0.218798935
vn 0.971008658 -0.2287734 0.0693168864
vn 0.826738417 -0.503949463 0.25007689
vn 0.681619704 -0.710120201 0.176419526
vn 0.708429337 -0.705228984 0.0279278457
vn 0.575891435 -0.793999195 0.194715679
vn 0.137811422 -0.97246474 0.187936962
vn 0.388462007 -0.884435594 0.258594304
vn 0.323471844 -0.923597157 -0.20575276
vn -0.508298576 -0.860476553 0.0348219872
vn 0.173202991 -0.980564892 -0.0921589956
vn -0.233490601 -0.966594875 0.105719566
vn -0.003356745 -0.998899817 0.0467739068
vn 0.00525661604 -0.99736315 -0.072381787
vn -0.93474412 -0.317276269 -0.159966484
vn -0.234422445 -0.957831204 -0.166149184
vn -0.42113784 -0.895067453 -0.146619603
vn -0.793834746 -0.603469312 -0.0751741901
vn -0.605387688 -0.791515589 -0.0837188363
vn -0.223811805 -0.945550919 0.236308783
vn -0.88346976 0.348348409 -0.313264549
vn -0.519591272 -0.850969136 0.0766573325
vn -0.730200052 -0.681138813 -0.0534588099
vn -0.866792381 -0.487357348 -0.105611771
vn -0.981279135 0.0361876339 -0.189160481
vn -0.958469868 -0.255874693 -0.125950739
vn -0.475232065 0.788913846 -0.389575869
vn -0.750272334 0.614566445 -0.24371995
vn -0.922042787 0.361172855 -0.139252901
vn -0.991940558 0.100867867 -0.0766787305
vn -0.987522662 -0.157292604 0.00761830201
vn 0.0483263209 0.920286834 -0.388248116
vn -0.271120846 0.930802464 -0.245153606
vn 0.275629938 0.926593363 -0.255837858
vn -0.556476116 0.818839908 -0.140838608
vn -0.0255033374 0.984835148 -0.171608448
vn -0.761801958 0.642396748 -0.0835710689
vn 0.246030539 0.923834145 -0.29325676
vn -0.284136832 0.947241724 -0.148322001
vn 0.0656587034 0.946066916 -0.317248076
vn -0.900965452 0.433136404 -0.0255760737
vn -0.486671954 0.860668242 -0.149668291
vn -0.119553104 0.956458092 -0.266260952
vn -0.683599234 0.723696351 -0.0946350992
vn -0.378790051 0.911062121 -0.162738651
vn -0.982114375 0.171002522 0.078801088
vn -0.647145033 0.747106075 -0.151775196
vn -0.865402281 0.499589682 -0.0385892168
vn -0.894273281 -0.423986554 0.143215746
vn -0.864998817 0.461241513 -0.197568551
vn -0.977412343 -0.134207383 0.163259357
vn -0.696054161 -0.66309911 0.275332689
vn -0.974998832 0.206062227 -0.0831599534
vn -0.426912725 -0.837278426 0.341628879
vn -0.885051847 -0.43909499 0.154528201
vn -0.692949176 -0.718539059 0.0593554787
vn -0.974404216 -0.142299652 -0.174032167
vn -0.841109097 -0.492499322 -0.223561779
vn -0.98061496 0.0773417577 -0.180035204
vn -0.630505502 -0.72799921 -0.269221276
vn -0.94443512 0.313352764 -0.0992586836
vn -0.945095181 -0.269265741 -0.185178518
vn -0.98032707 0.0387958325 -0.193529487
vn -0.436497748 -0.828113973 -0.35170576
vn -0.832289875 -0.500754416 -0.237778321
vn -0.926296413 -0.124591209 -0.355600744
vn -0.711329222 -0.61894083 -0.333050907
vn -0.289842993 -0.851221979 -0.437506795
g Cylinder002_0
f 3/3/3 2/2/2 1/1/1
f 4/4/4 1/1/1 2/2/2
f 2/2/2 5/5/5 4/4/4
f 1/1/1 4/4/4 6/6/6
f 7/7/7 4/4/4 5/5/5
f 5/5/5 8/8/8 7/7/7
f 9/9/9 6/6/6 4/4/4
f 4/4/4 7/7/7 9/9/9
f 6/6/6 9/9/9 10/10/10
f 11/11/11 7/7/7 8/8/8
f 8/8/8 12/12/12 11/11/11
f 13/13/13 10/10/10 9/9/9
f 10/10/10 13/13/13 14/14/14
f 15/15/15 9/9/9 7/7/7
f 7/7/7 11/11/11 15/15/15
f 9/9/9 15/15/15 13/13/13
f 16/16/16 11/11/11 12/12/12
f 12/12/12 17/17/17 16/16/16
f 18/18/18 14/14/14 13/13/13
f 14/14/14 18/18/18 19/19/19
f 20/20/20 13/13/13 15/15/15
f 13/13/13 20/20/20 18/18/18
f 21/21/21 15/15/15 11/11/11
f 11/11/11 16/16/16 21/21/21
f 15/15/15 21/21/21 20/20/20
f 22/22/22 16/16/16 17/17/17
f 17/17/17 23/23/23 22/22/22
f 24/24/24 19/19/19 18/18/18
f 19/19/19 24/24/24 25/25/25
f 26/26/26 18/18/18 20/20/20
f 18/18/18 26/26/26 24/24/24
f 27/27/27 20/20/20 21/21/21
f 20/20/20 27/27/27 26/26/26
f 28/28/28 21/21/21 16/16/16
f 16/16/16 22/22/22 28/28/28
f 21/21/21 28/28/28 27/27/27
f 29/29/29 22/22/22 23/23/23
f 23/23/23 30/30/30 29/29/29
f 31/31/31 25/25/25 24/24/24
f 25/25/25 31/31/31 32/32/32
f 33/33/33 24/24/24 26/26/26
f 24/24/24 33/33/33 31/31/31
f 34/34/34 26/26/26 27/27/27
f 26/26/26 34/34/34 33/33/33
f 35/35/35 27/27/27 28/28/28
f 27/27/27 35/35/35 34/34/34
f 36/36/36 28/28/28 22/22/22
f 22/22/22 29/29/29 36/36/36
f 28/28/28 36/36/36 35/35/35
f 37/37/37 29/29/29 30/30/30
f 30/30/30 38/38/38 37/37/37
f 39/39/39 32/32/32 31/31/31
f 32/32/32 39/39/39 40/40/40
f 41/41/41 31/31/31 33/33/33
f 31/31/31 41/41/41 39/39/39
f 42/42/42 33/33/33 34/34/34
f 33/33/33 42/42/42 41/41/41
f 43/43/43 34/34/34 35/35/35
f 34/34/34 43/43/43 42/42/42
f 44/44/44 35/35/35 36/36/36
f 35/35/35 44/44/44 43/43/43
f 45/45/45 36/36/36 29/29/29
f 36/36/36 45/45/45 44/44/44
f 29/29/29 37/37/37 45/45/45
f 46/46/46 40/40/40 39/39/39
f 40/40/40 46/46/46 47/47/47
f 48/48/48 39/39/39 41/41/41
f 39/39/39 48/48/48 46/46/46
f 49/49/49 41/41/41 42/42/42
f 41/41/41 49/49/49 48/48/48
f 50/50/50 42/42/42 43/43/43
f 42/42/42 50/50/50 49/49/49
f 51/51/51 43/43/43 44/44/44
f 43/43/43 51/51/51 50/50/50
f 52/52/52 44/44/44 45/45/45
f 44/44/44 52/52/52 51/51/51
f 53/53/53 45/45/45 37/37/37
f 45/45/45 53/53/53 52/52/52
f 54/54/54 47/47/47 46/46/46
f 47/47/47 54/54/54 55/55/55
f 56/56/56 46/46/46 48/48/48
f 46/46/46 56/56/56 54/54/54
f 57/57/57 48/48/48 49/49/49
f 48/48/48 57/57/57 56/56/56
f 58/58/58 49/49/49 50/50/50
f 49/49/49 58/58/58 57/57/57
f 59/59/59 50/50/50 51/51/51
f 50/50/50 59/59/59 58/58/58
f 60/60/60 51/51/51 52/52/52
f 51/51/51 60/60/60 59/59/59
f 61/61/61 55/55/55 54/54/54
f 55/55/55 61/61/61 62/62/62
f 63/63/63 54/54/54 56/56/56
f 54/54/54 63/63/63 61/61/61
f 64/64/64 56/56/56 57/57/57
f 56/56/56 64/64/64 63/63/63
f 65/65/65 57/57/57 58/58/58
f 57/57/57 65/65/65 64/64/64
f 66/66/66 58/58/58 59/59/59
f 58/58/58 66/66/66 65/65/65
f 67/67/67 62/62/62 61/61/61
f 62/62/62 67/67/67 68/68/68
f 69/69/69 61/61/61 63/63/63
f 61/61/61 69/69/69 67/67/67
f 70/70/70 63/63/63 64/64/64
f 63/63/63 70/70/70 69/69/69
f 71/71/71 64/64/64 65/65/65
f 64/64/64 71/71/71 70/70/70
f 72/72/72 68/68/68 67/67/67
f 68/68/68 72/72/72 73/73/73
f 74/74/74 67/67/67 69/69/69
f 67/67/67 74/74/74 72/72/72
f 75/75/75 69/69/69 70/70/70
f 69/69/69 75/75/75 74/74/74
f 76/76/76 73/73/73 72/72/72
f 73/73/73 76/76/76 77/77/77
f 78/78/78 72/72/72 74/74/74
f 72/72/72 78/78/78 76/76/76
f 79/79/79 77/77/77 76/76/76
f 77/77/77 79/79/79 80/80/80
f 65/65/65 81/81/81 71/71/71
f 81/81/81 65/65/65 66/66/66
f 82/82/82 70/70/70 71/71/71
f 70/70/70 82/82/82 75/75/75
f 83/83/83 74/74/74 75/75/75
f 74/74/74 83/83/83 78/78/78
f 84/84/84 76/76/76 78/78/78
f 76/76/76 84/84/84 79/79/79
f 85/85/85 80/80/80 79/79/79
f 80/80/80 85/85/85 86/86/86
f 87/87/87 71/71/71 81/81/81
f 71/71/71 87/87/87 82/82/82
f 88/88/88 75/75/75 82/82/82
f 75/75/75 88/88/88 83/83/83
f 89/89/89 78/78/78 83/83/83
f 78/78/78 89/89/89 84/84/84
f 90/90/90 79/79/79 84/84/84
f 79/79/79 90/90/90 85/85/85
f 91/91/91 86/86/86 85/85/85
f 86/86/86 91/91/91 92/92/92
f 93/93/93 82/82/82 87/87/87
f 82/82/82 93/93/93 88/88/88
f 94/94/94 83/83/83 88/88/88
f 83/83/83 94/94/94 89/89/89
f 95/95/95 84/84/84 89/89/89
f 84/84/84 95/95/95 90/90/90
f 96/96/96 85/85/85 90/90/90
f 85/85/85 96/96/96 91/91/91
f 97/97/97 92/92/92 91/91/91
f 92/92/92 97/97/97 98/98/98
f 99/99/99 88/88/88 93/93/93
f 88/88/88 99/99/99 94/94/94
f 100/100/100 89/89/89 94/94/94
f 89/89/89 100/100/100 95/95/95
f 101/101/101 90/90/90 95/95/95
f 90/90/90 101/101/101 96/96/96
f 102/102/102 91/91/91 96/96/96
f 91/91/91 102/102/102 97/97/97
f 103/103/103 98/98/98 97/97/97
f 98/98/98 103/103/103 104/104/104
f 105/105/105 94/94/94 99/99/99
f 94/94/94 105/105/105 100/100/100
f 106/106/106 95/95/95 100/100/100
f 95/95/95 106/106/106 101/101/101
f 107/107/107 96/96/96 101/101/101
f 96/96/96 107/107/107 102/102/102
f 108/108/108 97/97/97 102/102/102
f 97/97/97 108/108/108 103/103/103
f 109/109/109 104/104/104 103/103/103
f 104/104/104 109/109/109 110/110/110
f 111/111/111 100/100/100 105/105/105
f 100/100/100 111/111/111 106/106/106
f 112/112/112 101/101/101 106/106/106
f 101/101/101 112/112/112 107/107/107
f 113/113/113 102/102/102 107/107/107
f 102/102/102 113/113/113 108/108/108
f 114/114/114 103/103/103 108/108/108
f 103/103/103 114/114/114 109/109/109
f 115/115/115 110/110/110 109/109/109
f 110/110/110 115/115/115 116/116/116
f 117/117/117 106/106/106 111/111/111
f 106/106/106 117/117/117 112/112/112
f 118/118/118 107/107/107 112/112/112
f 107/107/107 118/118/118 113/113/113
f 119/119/119 108/108/108 113/113/113
f 108/108/108 119/119/119 114/114/114
f 120/120/120 109/109/109 114/114/114
f 109/109/109 120/120/120 115/115/115
f 121/121/121 116/116/116 115/115/115
f 116/116/116 121/121/121 122/122/122
f 123/123/123 112/112/112 117/117/117
f 112/112/112 123/123/123 118/118/118
f 124/124/124 113/113/113 118/118/118
f 113/113/113 124/124/124 119/119/119
f 125/125/125 114/114/114 119/119/119
f 114/114/114 125/125/125 120/120/120
f 126/126/126 115/115/115 120/120/120
f 115/115/115 126/126/126 121/121/121
f 127/127/127 122/122/122 121/121/121
f 122/122/122 127/127/127 128/128/128
f 129/129/129 118/118/118 123/123/123
f 118/118/118 129/129/129 124/124/124
f 130/130/130 119/119/119 124/124/124
f 119/119/119 130/130/130 125/125/125
f 131/131/131 120/120/120 125/125/125
f 120/120/120 131/131/131 126/126/126
f 132/132/132 121/121/121 126/126/126
f 121/121/121 132/132/132 127/127/127
f 133/133/133 128/128/128 127/127/127
f 128/128/128 133/133/133 134/134/134
f 135/135/135 134/134/134 133/133/133
f 127/127/127 136/136/136 133/133/133
f 136/136/136 127/127/127 132/132/132
f 133/133/133 137/137/137 135/135/135
f 137/137/137 133/133/133 136/136/136
f 138/138/138 135/135/135 137/137/137
f 126/126/126 139/139/139 132/132/132
f 139/139/139 126/126/126 131/131/131
f 125/125/125 140/140/140 131/131/131
f 140/140/140 125/125/125 130/130/130
f 132/132/132 141/141/141 136/136/136
f 141/141/141 132/132/132 139/139/139
f 137/137/137 142/142/142 138/138/138
f 143/143/143 138/138/138 142/142/142
f 136/136/136 144/144/144 137/137/137
f 144/144/144 136/136/136 141/141/141
f 142/142/142 137/137/137 144/144/144
f 131/131/131 145/145/145 139/139/139
f 145/145/145 131/131/131 140/140/140
f 142/142/142 146/146/146 143/143/143
f 147/147/147 143/143/143 146/146/146
f 139/139/139 148/148/148 141/141/141
f 148/148/148 139/139/139 145/145/145
f 144/144/144 149/149/149 142/142/142
f 146/146/146 142/142/142 149/149/149
f 141/141/141 150/150/150 144/144/144
f 150/150/150 141/141/141 148/148/148
f 149/149/149 144/144/144 150/150/150
f 146/146/146 151/151/151 147/147/147
f 152/152/152 147/147/147 151/151/151
f 149/149/149 153/153/153 146/146/146
f 151/151/151 146/146/146 153/153/153
f 150/150/150 154/154/154 149/149/149
f 153/153/153 149/149/149 154/154/154
f 148/148/148 155/155/155 150/150/150
f 154/154/154 150/150/150 155/155/155
f 145/145/145 156/156/156 148/148/148
f 155/155/155 148/148/148 156/156/156
f 151/151/151 157/157/157 152/152/152
f 158/158/158 152/152/152 157/157/157
f 153/153/153 159/159/159 151/151/151
f 157/157/157 151/151/151 159/159/159
f 154/154/154 160/160/160 153/153/153
f 159/159/159 153/153/153 160/160/160
f 155/155/155 161/161/161 154/154/154
f 160/160/160 154/154/154 161/161/161
f 157/157/157 162/162/162 158/158/158
f 163/163/163 158/158/158 162/162/162
f 159/159/159 164/164/164 157/157/157
f 162/162/162 157/157/157 164/164/164
f 160/160/160 165/165/165 159/159/159
f 164/164/164 159/159/159 165/165/165
f 162/162/162 166/166/166 163/163/163
f 167/167/167 163/163/163 166/166/166
f 164/164/164 168/168/168 162/162/162
f 166/166/166 162/162/162 168/168/168
f 166/166/166 169/169/169 167/167/167
f 170/170/170 167/167/167 169/169/169
f 161/161/161 155/155/155 171/171/171
f 156/156/156 171/171/171 155/155/155
f 161/161/161 172/172/172 160/160/160
f 165/165/165 160/160/160 172/172/172
f 165/165/165 173/173/173 164/164/164
f 168/168/168 164/164/164 173/173/173
f 168/168/168 174/174/174 166/166/166
f 169/169/169 166/166/166 174/174/174
f 169/169/169 175/175/175 170/170/170
f 176/176/176 170/170/170 175/175/175
f 171/171/171 177/177/177 161/161/161
f 172/172/172 161/161/161 177/177/177
f 172/172/172 178/178/178 165/165/165
f 173/173/173 165/165/165 178/178/178
f 173/173/173 179/179/179 168/168/168
f 174/174/174 168/168/168 179/179/179
f 174/174/174 180/180/180 169/169/169
f 175/175/175 169/169/169 180/180/180
f 175/175/175 181/181/181 176/176/176
f 182/182/182 176/176/176 181/181/181
f 177/177/177 183/183/183 172/172/172
f 178/178/178 172/172/172 183/183/183
f 178/178/178 184/184/184 173/173/173
f 179/179/179 173/173/173 184/184/184
f 179/179/179 185/185/185 174/174/174
f 180/180/180 174/174/174 185/185/185
f 180/180/180 186/186/186 175/175/175
f 181/181/181 175/175/175 186/186/186
f 181/181/181 187/187/187 182/182/182
f 188/188/188 182/182/182 187/187/187
f 183/183/183 189/189/189 178/178/178
f 184/184/184 178/178/178 189/189/189
f 184/184/184 190/190/190 179/179/179
f 185/185/185 179/179/179 190/190/190
f 185/185/185 191/191/191 180/180/180
f 186/186/186 180/180/180 191/191/191
f 186/186/186 192/192/192 181/181/181
f 187/187/187 181/181/181 192/192/192
f 187/187/187 193/193/193 188/188/188
f 194/194/194 188/188/188 193/193/193
f 189/189/189 195/195/195 184/184/184
f 190/190/190 184/184/184 195/195/195
f 190/190/190 196/196/196 185/185/185
f 191/191/191 185/185/185 196/196/196
f 191/191/191 197/197/197 186/186/186
f 192/192/192 186/186/186 197/197/197
f 192/192/192 198/198/198 187/187/187
f 193/193/193 187/187/187 198/198/198
f 193/193/193 199/199/199 194/194/194
f 200/200/200 194/194/194 199/199/199
f 195/195/195 201/201/201 190/190/190
f 196/196/196 190/190/190 201/201/201
f 196/196/196 202/202/202 191/191/191
f 197/197/197 191/191/191 202/202/202
f 197/197/197 203/203/203 192/192/192
f 198/198/198 192/192/192 203/203/203
f 198/198/198 204/204/204 193/193/193
f 199/199/199 193/193/193 204/204/204
f 199/199/199 205/205/205 200/200/200
f 206/206/206 200/200/200 205/205/205
f 201/201/201 207/207/207 196/196/196
f 202/202/202 196/196/196 207/207/207
f 202/202/202 208/208/208 197/197/197
f 203/203/203 197/197/197 208/208/208
f 203/203/203 209/209/209 198/198/198
f 204/204/204 198/198/198 209/209/209
f 204/204/204 210/210/210 199/199/199
f 205/205/205 199/199/199 210/210/210
f 205/205/205 211/211/211 206/206/206
f 212/212/212 206/206/206 211/211/211
f 207/207/207 213/213/213 202/202/202
f 208/208/208 202/202/202 213/213/213
f 208/208/208 214/214/214 203/203/203
f 209/209/209 203/203/203 214/214/214
f 209/209/209 215/215/215 204/204/204
f 210/210/210 204/204/204 215/215/215
f 210/210/210 216/216/216 205/205/205
f 211/211/211 205/205/205 216/216/216
f 211/211/211 217/217/217 212/212/212
f 218/218/218 212/212/212 217/217/217
f 213/213/213 219/219/219 208/208/208
f 214/214/214 208/208/208 219/219/219
f 214/214/214 220/220/220 209/209/209
f 215/215/215 209/209/209 220/220/220
f 215/215/215 221/221/221 210/210/210
f 216/216/216 210/210/210 221/221/221
f 216/216/216 222/222/222 211/211/211
f 217/217/217 211/211/211 222/222/222
f 217/217/217 223/223/223 218/218/218
f 224/224/224 218/218/218 223/223/223
f 219/219/219 225/225/225 214/214/214
f 220/220/220 214/214/214 225/225/225
f 220/220/220 226/226/226 215/215/215
f 221/221/221 215/215/215 226/226/226
f 221/221/221 227/227/227 216/216/216
f 222/222/222 216/216/216 227/227/227
f 222/222/222 228/228/228 217/217/217
f 223/223/223 217/217/217 228/228/228
f 223/223/223 229/229/229 224/224/224
f 230/230/230 224/224/224 229/229/229
f 229/229/229 231/231/231 230/230/230
f 232/232/232 230/230/230 231/231/231
f 231/231/231 229/229/229 233/233/233
f 229/229/229 223/223/223 234/234/234
f 234/234/234 233/233/233 229/229/229
f 228/228/228 234/234/234 223/223/223
f 233/233/233 234/234/234 235/235/235
f 236/236/236 235/235/235 234/234/234
f 234/234/234 228/228/228 236/236/236
f 235/235/235 236/236/236 237/237/237
f 228/228/228 222/222/222 238/238/238
f 238/238/238 236/236/236 228/228/228
f 227/227/227 238/238/238 222/222/222
f 239/239/239 237/237/237 236/236/236
f 236/236/236 238/238/238 239/239/239
f 237/237/237 239/239/239 240/240/240
f 238/238/238 227/227/227 241/241/241
f 241/241/241 239/239/239 238/238/238
f 242/242/242 240/240/240 239/239/239
f 239/239/239 241/241/241 242/242/242
f 240/240/240 242/242/242 243/243/243
f 244/244/244 241/241/241 227/227/227
f 227/227/227 221/221/221 244/244/244
f 226/226/226 244/244/244 221/221/221
f 245/245/245 243/243/243 242/242/242
f 243/243/243 245/245/245 246/246/246
f 247/247/247 242/242/242 241/241/241
f 241/241/241 244/244/244 247/247/247
f 242/242/242 247/247/247 245/245/245
f 244/244/244 226/226/226 248/248/248
f 248/248/248 247/247/247 244/244/244
f 249/249/249 246/246/246 245/245/245
f 246/246/246 249/249/249 250/250/250
f 251/251/251 245/245/245 247/247/247
f 247/247/247 248/248/248 251/251/251
f 245/245/245 251/251/251 249/249/249
f 252/252/252 248/248/248 226/226/226
f 226/226/226 220/220/220 252/252/252
f 225/225/225 252/252/252 220/220/220
f 253/253/253 250/250/250 249/249/249
f 250/250/250 253/253/253 254/254/254
f 255/255/255 251/251/251 248/248/248
f 248/248/248 252/252/252 255/255/255
f 256/256/256 249/249/249 251/251/251
f 249/249/249 256/256/256 253/253/253
f 251/251/251 255/255/255 256/256/256
f 252/252/252 225/225/225 257/257/257
f 257/257/257 255/255/255 252/252/252
f 258/258/258 254/254/254 253/253/253
f 254/254/254 258/258/258 259/259/259
f 260/260/260 256/256/256 255/255/255
f 255/255/255 257/257/257 260/260/260
f 261/261/261 253/253/253 256/256/256
f 253/253/253 261/261/261 258/258/258
f 256/256/256 260/260/260 261/261/261
f 262/262/262 257/257/257 225/225/225
f 225/225/225 219/219/219 262/262/262
f 263/263/263 259/259/259 258/258/258
f 259/259/259 263/263/263 264/264/264
f 265/265/265 258/258/258 261/261/261
f 258/258/258 265/265/265 263/263/263
f 266/266/266 260/260/260 257/257/257
f 257/257/257 262/262/262 266/266/266
f 267/267/267 261/261/261 260/260/260
f 261/261/261 267/267/267 265/265/265
f 260/260/260 266/266/266 267/267/267
f 268/268/268 262/262/262 219/219/219
f 219/219/219 213/213/213 268/268/268
f 269/269/269 264/264/264 263/263/263
f 264/264/264 269/269/269 270/270/270
f 271/271/271 263/263/263 265/265/265
f 263/263/263 271/271/271 269/269/269
f 272/272/272 265/265/265 267/267/267
f 265/265/265 272/272/272 271/271/271
f 273/273/273 266/266/266 262/262/262
f 262/262/262 268/268/268 273/273/273
f 274/274/274 267/267/267 266/266/266
f 267/267/267 274/274/274 272/272/272
f 266/266/266 273/273/273 274/274/274
f 275/275/275 268/268/268 213/213/213
f 213/213/213 207/207/207 275/275/275
f 276/276/276 270/270/270 269/269/269
f 270/270/270 276/276/276 277/277/277
f 278/278/278 269/269/269 271/271/271
f 269/269/269 278/278/278 276/276/276
f 279/279/279 271/271/271 272/272/272
f 271/271/271 279/279/279 278/278/278
f 280/280/280 272/272/272 274/274/274
f 272/272/272 280/280/280 279/279/279
f 281/281/281 273/273/273 268/268/268
f 268/268/268 275/275/275 281/281/281
f 282/282/282 274/274/274 273/273/273
f 274/274/274 282/282/282 280/280/280
f 273/273/273 281/281/281 282/282/282
f 283/283/283 277/277/277 276/276/276
f 277/277/277 283/283/283 284/284/284
f 285/285/285 276/276/276 278/278/278
f 276/276/276 285/285/285 283/283/283
f 286/286/286 278/278/278 279/279/279
f 278/278/278 286/286/286 285/285/285
f 287/287/287 279/279/279 280/280/280
f 279/279/279 287/287/287 286/286/286
f 288/288/288 280/280/280 282/282/282
f 280/280/280 288/288/288 287/287/287
f 289/289/289 282/282/282 281/281/281
f 282/282/282 289/289/289 288/288/288
f 290/290/290 284/284/284 283/283/283
f 284/284/284 290/290/290 291/291/291
f 292/292/292 283/283/283 285/285/285
f 283/283/283 292/292/292 290/290/290
f 293/293/293 285/285/285 286/286/286
f 285/285/285 293/293/293 292/292/292
f 294/294/294 286/286/286 287/287/287
f 286/286/286 294/294/294 293/293/293
f 295/295/295 287/287/287 288/288/288
f 287/287/287 295/295/295 294/294/294
f 296/296/296 291/291/291 290/290/290
f 291/291/291 296/296/296 297/297/297
f 298/298/298 290/290/290 292/292/292
f 290/290/290 298/298/298 296/296/296
f 299/299/299 292/292/292 293/293/293
f 292/292/292 299/299/299 298/298/298
f 300/300/300 293/293/293 294/294/294
f 293/293/293 300/300/300 299/299/299
f 301/301/301 297/297/297 296/296/296
f 297/297/297 301/301/301 302/302/302
f 303/303/303 296/296/296 298/298/298
f 296/296/296 303/303/303 301/301/301
f 304/304/304 298/298/298 299/299/299
f 298/298/298 304/304/304 303/303/303
f 305/305/305 302/302/302 301/301/301
f 302/302/302 305/305/305 306/306/306
f 307/307/307 301/301/301 303/303/303
f 301/301/301 307/307/307 305/305/305
f 308/308/308 306/306/306 305/305/305
f 306/306/306 308/308/308 309/309/309
f 294/294/294 310/310/310 300/300/300
f 310/310/310 294/294/294 295/295/295
f 311/311/311 299/299/299 300/300/300
f 299/299/299 311/311/311 304/304/304
f 312/312/312 303/303/303 304/304/304
f 303/303/303 312/312/312 307/307/307
f 313/313/313 305/305/305 307/307/307
f 305/305/305 313/313/313 308/308/308
f 314/314/314 309/309/309 308/308/308
f 309/309/309 314/314/314 315/315/315
f 316/316/316 300/300/300 310/310/310
f 300/300/300 316/316/316 311/311/311
f 317/317/317 304/304/304 311/311/311
f 304/304/304 317/317/317 312/312/312
f 318/318/318 307/307/307 312/312/312
f 307/307/307 318/318/318 313/313/313
f 319/319/319 308/308/308 313/313/313
f 308/308/308 319/319/319 314/314/314
f 320/320/320 315/315/315 314/314/314
f 315/315/315 320/320/320 321/321/321
f 322/322/322 311/311/311 316/316/316
f 311/311/311 322/322/322 317/317/317
f 323/323/323 312/312/312 317/317/317
f 312/312/312 323/323/323 318/318/318
f 324/324/324 313/313/313 318/318/318
f 313/313/313 324/324/324 319/319/319
f 325/325/325 314/314/314 319/319/319
f 314/314/314 325/325/325 320/320/320
f 326/326/326 321/321/321 320/320/320
f 321/321/321 326/326/326 327/327/327
f 328/328/328 317/317/317 322/322/322
f 317/317/317 328/328/328 323/323/323
f 329/329/329 318/318/318 323/323/323
f 318/318/318 329/329/329 324/324/324
f 330/330/330 319/319/319 324/324/324
f 319/319/319 330/330/330 325/325/325
f 331/331/331 320/320/320 325/325/325
f 320/320/320 331/331/331 326/326/326
f 332/332/332 327/327/327 326/326/326
f 327/327/327 332/332/332 333/333/333
f 334/334/334 323/323/323 328/328/328
f 323/323/323 334/334/334 329/329/329
f 335/335/335 324/324/324 329/329/329
f 324/324/324 335/335/335 330/330/330
f 336/336/336 325/325/325 330/330/330
f 325/325/325 336/336/336 331/331/331
f 337/337/337 326/326/326 331/331/331
f 326/326/326 337/337/337 332/332/332
f 338/338/338 333/333/333 332/332/332
f 333/333/333 338/338/338 339/339/339
f 340/340/340 339/339/339 338/338/338
f 332/332/332 341/341/341 338/338/338
f 341/341/341 332/332/332 337/337/337
f 338/338/338 342/342/342 340/340/340
f 342/342/342 338/338/338 341/341/341
f 343/343/343 340/340/340 342/342/342
f 331/331/331 344/344/344 337/337/337
f 344/344/344 331/331/331 336/336/336
f 330/330/330 345/345/345 336/336/336
f 345/345/345 330/330/330 335/335/335
f 337/337/337 346/346/346 341/341/341
f 346/346/346 337/337/337 344/344/344
f 341/341/341 347/347/347 342/342/342
f 347/347/347 341/341/341 346/346/346
f 342/342/342 348/348/348 343/343/343
f 348/348/348 342/342/342 347/347/347
f 349/349/349 343/343/343 348/348/348
f 336/336/336 350/350/350 344/344/344
f 350/350/350 336/336/336 345/345/345
f 344/344/344 351/351/351 346/346/346
f 351/351/351 344/344/344 350/350/350
f 346/346/346 352/352/352 347/347/347
f 352/352/352 346/346/346 351/351/351
f 347/347/347 353/353/353 348/348/348
f 353/353/353 347/347/347 352/352/352
f 348/348/348 354/354/354 349/349/349
f 354/354/354 348/348/348 353/353/353
f 355/355/355 349/349/349 354/354/354
f 354/354/354 356/356/356 355/355/355
f 357/357/357 355/355/355 356/356/356
f 353/353/353 358/358/358 354/354/354
f 356/356/356 354/354/354 358/358/358
f 352/352/352 359/359/359 353/353/353
f 358/358/358 353/353/353 359/359/359
f 351/351/351 360/360/360 352/352/352
f 359/359/359 352/352/352 360/360/360
f 350/350/350 361/361/361 351/351/351
f 360/360/360 351/351/351 361/361/361
f 356/356/356 362/362/362 357/357/357
f 363/363/363 357/357/357 362/362/362
f 358/358/358 364/364/364 356/356/356
f 362/362/362 356/356/356 364/364/364
f 359/359/359 365/365/365 358/358/358
f 364/364/364 358/358/358 365/365/365
f 360/360/360 366/366/366 359/359/359
f 365/365/365 359/359/359 366/366/366
f 362/362/362 367/367/367 363/363/363
f 368/368/368 363/363/363 367/367/367
f 364/364/364 369/369/369 362/362/362
f 367/367/367 362/362/362 369/369/369
f 365/365/365 370/370/370 364/364/364
f 369/369/369 364/364/364 370/370/370
f 367/367/367 371/371/371 368/368/368
f 372/372/372 368/368/368 371/371/371
f 369/369/369 373/373/373 367/367/367
f 371/371/371 367/367/367 373/373/373
f 371/371/371 374/374/374 372/372/372
f 375/375/375 372/372/372 374/374/374
f 366/366/366 360/360/360 376/376/376
f 361/361/361 376/376/376 360/360/360
f 366/366/366 377/377/377 365/365/365
f 370/370/370 365/365/365 377/377/377
f 370/370/370 378/378/378 369/369/369
f 373/373/373 369/369/369 378/378/378
f 373/373/373 379/379/379 371/371/371
f 374/374/374 371/371/371 379/379/379
f 374/374/374 380/380/380 375/375/375
f 381/381/381 375/375/375 380/380/380
f 376/376/376 382/382/382 366/366/366
f 377/377/377 366/366/366 382/382/382
f 377/377/377 383/383/383 370/370/370
f 378/378/378 370/370/370 383/383/383
f 378/378/378 384/384/384 373/373/373
f 379/379/379 373/373/373 384/384/384
f 379/379/379 385/385/385 374/374/374
f 380/380/380 374/374/374 385/385/385
f 380/380/380 386/386/386 381/381/381
f 387/387/387 381/381/381 386/386/386
f 382/382/382 388/388/388 377/377/377
f 383/383/383 377/377/377 388/388/388
f 383/383/383 389/389/389 378/378/378
f 384/384/384 378/378/378 389/389/389
f 384/384/384 390/390/390 379/379/379
f 385/385/385 379/379/379 390/390/390
f 385/385/385 391/391/391 380/380/380
f 386/386/386 380/380/380 391/391/391
f 386/386/386 392/392/392 387/387/387
f 38/38/38 387/387/387 392/392/392
f 392/392/392 37/37/37 38/38/38
f 37/37/37 392/392/392 53/53/53
f 392/392/392 386/386/386 393/393/393
f 393/393/393 53/53/53 392/392/392
f 391/391/391 393/393/393 386/386/386
f 391/391/391 385/385/385 394/394/394
f 390/390/390 394/394/394 385/385/385
f 390/390/390 384/384/384 395/395/395
f 389/389/389 395/395/395 384/384/384
f 53/53/53 393/393/393 396/396/396
f 396/396/396 52/52/52 53/53/53
f 52/52/52 396/396/396 60/60/60
f 393/393/393 391/391/391 397/397/397
f 397/397/397 396/396/396 393/393/393
f 394/394/394 397/397/397 391/391/391
f 394/394/394 390/390/390 398/398/398
f 395/395/395 398/398/398 390/390/390
f 399/399/399 60/60/60 396/396/396
f 396/396/396 397/397/397 399/399/399
f 397/397/397 394/394/394 400/400/400
f 398/398/398 400/400/400 394/394/394
f 400/400/400 399/399/399 397/397/397
f 60/60/60 399/399/399 401/401/401
f 401/401/401 59/59/59 60/60/60
f 59/59/59 401/401/401 66/66/66
f 399/399/399 400/400/400 402/402/402
f 402/402/402 401/401/401 399/399/399
f 403/403/403 66/66/66 401/401/401
f 401/401/401 402/402/402 403/403/403
f 66/66/66 403/403/403 81/81/81
f 400/400/400 398/398/398 404/404/404
f 404/404/404 402/402/402 400/400/400
f 398/398/398 395/395/395 405/405/405
f 405/405/405 404/404/404 398/398/398
f 406/406/406 81/81/81 403/403/403
f 81/81/81 406/406/406 87/87/87
f 407/407/407 403/403/403 402/402/402
f 402/402/402 404/404/404 407/407/407
f 403/403/403 407/407/407 406/406/406
f 408/408/408 87/87/87 406/406/406
f 87/87/87 408/408/408 93/93/93
f 409/409/409 407/407/407 404/404/404
f 404/404/404 405/405/405 409/409/409
f 410/410/410 406/406/406 407/407/407
f 406/406/406 410/410/410 408/408/408
f 407/407/407 409/409/409 410/410/410
f 411/411/411 405/405/405 395/395/395
f 395/395/395 389/389/389 411/411/411
f 412/412/412 93/93/93 408/408/408
f 93/93/93 412/412/412 99/99/99
f 413/413/413 408/408/408 410/410/410
f 408/408/408 413/413/413 412/412/412
f 414/414/414 410/410/410 409/409/409
f 410/410/410 414/414/414 413/413/413
f 415/415/415 409/409/409 405/405/405
f 405/405/405 411/411/411 415/415/415
f 409/409/409 415/415/415 414/414/414
f 416/416/416 411/411/411 389/389/389
f 389/389/389 383/383/383 416/416/416
f 388/388/388 416/416/416 383/383/383
f 417/417/417 99/99/99 412/412/412
f 99/99/99 417/417/417 105/105/105
f 418/418/418 412/412/412 413/413/413
f 412/412/412 418/418/418 417/417/417
f 419/419/419 413/413/413 414/414/414
f 413/413/413 419/419/419 418/418/418
f 420/420/420 414/414/414 415/415/415
f 414/414/414 420/420/420 419/419/419
f 421/421/421 415/415/415 411/411/411
f 411/411/411 416/416/416 421/421/421
f 415/415/415 421/421/421 420/420/420
f 416/416/416 388/388/388 422/422/422
f 422/422/422 421/421/421 416/416/416
f 423/423/423 105/105/105 417/417/417
f 105/105/105 423/423/423 111/111/111
f 424/424/424 417/417/417 418/418/418
f 417/417/417 424/424/424 423/423/423
f 425/425/425 418/418/418 419/419/419
f 418/418/418 425/425/425 424/424/424
f 426/426/426 419/419/419 420/420/420
f 419/419/419 426/426/426 425/425/425
f 427/427/427 420/420/420 421/421/421
f 421/421/421 422/422/422 427/427/427
f 420/420/420 427/427/427 426/426/426
f 428/428/428 422/422/422 388/388/388
f 388/388/388 382/382/382 428/428/428
f 429/429/429 111/111/111 423/423/423
f 111/111/111 429/429/429 117/117/117
f 430/430/430 423/423/423 424/424/424
f 423/423/423 430/430/430 429/429/429
f 431/431/431 424/424/424 425/425/425
f 424/424/424 431/431/431 430/430/430
f 432/432/432 425/425/425 426/426/426
f 425/425/425 432/432/432 431/431/431
f 433/433/433 426/426/426 427/427/427
f 426/426/426 433/433/433 432/432/432
f 434/434/434 427/427/427 422/422/422
f 427/427/427 434/434/434 433/433/433
f 422/422/422 428/428/428 434/434/434
f 435/435/435 117/117/117 429/429/429
f 117/117/117 435/435/435 123/123/123
f 436/436/436 429/429/429 430/430/430
f 429/429/429 436/436/436 435/435/435
f 437/437/437 430/430/430 431/431/431
f 430/430/430 437/437/437 436/436/436
f 438/438/438 431/431/431 432/432/432
f 431/431/431 438/438/438 437/437/437
f 439/439/439 432/432/432 433/433/433
f 432/432/432 439/439/439 438/438/438
f 440/440/440 433/433/433 434/434/434
f 433/433/433 440/440/440 439/439/439
f 441/441/441 434/434/434 428/428/428
f 434/434/434 441/441/441 440/440/440
f 442/442/442 123/123/123 435/435/435
f 123/123/123 442/442/442 129/129/129
f 443/443/443 435/435/435 436/436/436
f 435/435/435 443/443/443 442/442/442
f 444/444/444 436/436/436 437/437/437
f 436/436/436 444/444/444 443/443/443
f 445/445/445 437/437/437 438/438/438
f 437/437/437 445/445/445 444/444/444
f 446/446/446 438/438/438 439/439/439
f 438/438/438 446/446/446 445/445/445
f 447/447/447 439/439/439 440/440/440
f 439/439/439 447/447/447 446/446/446
f 448/448/448 440/440/440 441/441/441
f 440/440/440 448/448/448 447/447/447
f 449/449/449 129/129/129 442/442/442
f 450/450/450 442/442/442 443/443/443
f 442/442/442 450/450/450 449/449/449
f 451/451/451 443/443/443 444/444/444
f 443/443/443 451/451/451 450/450/450
f 452/452/452 444/444/444 445/445/445
f 444/444/444 452/452/452 451/451/451
f 453/453/453 445/445/445 446/446/446
f 445/445/445 453/453/453 452/452/452
f 454/454/454 446/446/446 447/447/447
f 446/446/446 454/454/454 453/453/453
f 455/455/455 447/447/447 448/448/448
f 447/447/447 455/455/455 454/454/454
f 129/129/129 449/449/449 456/456/456
f 456/456/456 124/124/124 129/129/129
f 124/124/124 456/456/456 130/130/130
f 457/457/457 130/130/130 456/456/456
f 130/130/130 457/457/457 140/140/140
f 458/458/458 456/456/456 449/449/449
f 456/456/456 458/458/458 457/457/457
f 459/459/459 140/140/140 457/457/457
f 140/140/140 459/459/459 145/145/145
f 156/156/156 145/145/145 459/459/459
f 457/457/457 460/460/460 459/459/459
f 460/460/460 457/457/457 458/458/458
f 459/459/459 461/461/461 156/156/156
f 461/461/461 459/459/459 460/460/460
f 171/171/171 156/156/156 461/461/461
f 449/449/449 462/462/462 458/458/458
f 462/462/462 449/449/449 450/450/450
f 458/458/458 463/463/463 460/460/460
f 463/463/463 458/458/458 462/462/462
f 461/461/461 464/464/464 171/171/171
f 177/177/177 171/171/171 464/464/464
f 460/460/460 465/465/465 461/461/461
f 465/465/465 460/460/460 463/463/463
f 464/464/464 461/461/461 465/465/465
f 450/450/450 466/466/466 462/462/462
f 466/466/466 450/450/450 451/451/451
f 464/464/464 467/467/467 177/177/177
f 183/183/183 177/177/177 467/467/467
f 462/462/462 468/468/468 463/463/463
f 468/468/468 462/462/462 466/466/466
f 465/465/465 469/469/469 464/464/464
f 467/467/467 464/464/464 469/469/469
f 463/463/463 470/470/470 465/465/465
f 470/470/470 463/463/463 468/468/468
f 469/469/469 465/465/465 470/470/470
f 451/451/451 471/471/471 466/466/466
f 471/471/471 451/451/451 452/452/452
f 467/467/467 472/472/472 183/183/183
f 189/189/189 183/183/183 472/472/472
f 466/466/466 473/473/473 468/468/468
f 473/473/473 466/466/466 471/471/471
f 468/468/468 474/474/474 470/470/470
f 474/474/474 468/468/468 473/473/473
f 469/469/469 475/475/475 467/467/467
f 472/472/472 467/467/467 475/475/475
f 470/470/470 476/476/476 469/469/469
f 476/476/476 470/470/470 474/474/474
f 475/475/475 469/469/469 476/476/476
f 452/452/452 477/477/477 471/471/471
f 477/477/477 452/452/452 453/453/453
f 472/472/472 478/478/478 189/189/189
f 195/195/195 189/189/189 478/478/478
f 471/471/471 479/479/479 473/473/473
f 479/479/479 471/471/471 477/477/477
f 473/473/473 480/480/480 474/474/474
f 480/480/480 473/473/473 479/479/479
f 474/474/474 481/481/481 476/476/476
f 481/481/481 474/474/474 480/480/480
f 475/475/475 482/482/482 472/472/472
f 478/478/478 472/472/472 482/482/482
f 476/476/476 483/483/483 475/475/475
f 483/483/483 476/476/476 481/481/481
f 482/482/482 475/475/475 483/483/483
f 478/478/478 484/484/484 195/195/195
f 201/201/201 195/195/195 484/484/484
f 482/482/482 485/485/485 478/478/478
f 484/484/484 478/478/478 485/485/485
f 483/483/483 486/486/486 482/482/482
f 485/485/485 482/482/482 486/486/486
f 481/481/481 487/487/487 483/483/483
f 486/486/486 483/483/483 487/487/487
f 480/480/480 488/488/488 481/481/481
f 487/487/487 481/481/481 488/488/488
f 484/484/484 489/489/489 201/201/201
f 207/207/207 201/201/201 489/489/489
f 489/489/489 275/275/275 207/207/207
f 485/485/485 490/490/490 484/484/484
f 489/489/489 484/484/484 490/490/490
f 275/275/275 489/489/489 491/491/491
f 490/490/490 491/491/491 489/489/489
f 491/491/491 281/281/281 275/275/275
f 281/281/281 491/491/491 289/289/289
f 486/486/486 492/492/492 485/485/485
f 490/490/490 485/485/485 492/492/492
f 491/491/491 490/490/490 493/493/493
f 493/493/493 289/289/289 491/491/491
f 492/492/492 493/493/493 490/490/490
f 487/487/487 494/494/494 486/486/486
f 492/492/492 486/486/486 494/494/494
f 289/289/289 493/493/493 495/495/495
f 495/495/495 288/288/288 289/289/289
f 288/288/288 495/495/495 295/295/295
f 493/493/493 492/492/492 496/496/496
f 496/496/496 495/495/495 493/493/493
f 494/494/494 496/496/496 492/492/492
f 497/497/497 295/295/295 495/495/495
f 495/495/495 496/496/496 497/497/497
f 295/295/295 497/497/497 310/310/310
f 494/494/494 487/487/487 498/498/498
f 488/488/488 498/498/498 487/487/487
f 496/496/496 494/494/494 499/499/499
f 499/499/499 497/497/497 496/496/496
f 498/498/498 499/499/499 494/494/494
f 500/500/500 310/310/310 497/497/497
f 497/497/497 499/499/499 500/500/500
f 310/310/310 500/500/500 316/316/316
f 499/499/499 498/498/498 501/501/501
f 501/501/501 500/500/500 499/499/499
f 502/502/502 316/316/316 500/500/500
f 500/500/500 501/501/501 502/502/502
f 316/316/316 502/502/502 322/322/322
f 498/498/498 488/488/488 503/503/503
f 503/503/503 501/501/501 498/498/498
f 504/504/504 322/322/322 502/502/502
f 322/322/322 504/504/504 328/328/328
f 505/505/505 502/502/502 501/501/501
f 501/501/501 503/503/503 505/505/505
f 502/502/502 505/505/505 504/504/504
f 506/506/506 503/503/503 488/488/488
f 488/488/488 480/480/480 506/506/506
f 479/479/479 506/506/506 480/480/480
f 507/507/507 328/328/328 504/504/504
f 328/328/328 507/507/507 334/334/334
f 508/508/508 505/505/505 503/503/503
f 503/503/503 506/506/506 508/508/508
f 506/506/506 479/479/479 509/509/509
f 509/509/509 508/508/508 506/506/506
f 477/477/477 509/509/509 479/479/479
f 510/510/510 504/504/504 505/505/505
f 505/505/505 508/508/508 510/510/510
f 504/504/504 510/510/510 507/507/507
f 509/509/509 477/477/477 511/511/511
f 453/453/453 511/511/511 477/477/477
f 511/511/511 453/453/453 454/454/454
f 508/508/508 509/509/509 512/512/512
f 512/512/512 510/510/510 508/508/508
f 511/511/511 512/512/512 509/509/509
f 454/454/454 513/513/513 511/511/511
f 512/512/512 511/511/511 513/513/513
f 513/513/513 454/454/454 455/455/455
f 510/510/510 512/512/512 514/514/514
f 514/514/514 507/507/507 510/510/510
f 513/513/513 514/514/514 512/512/512
f 455/455/455 515/515/515 513/513/513
f 514/514/514 513/513/513 515/515/515
f 507/507/507 514/514/514 516/516/516
f 515/515/515 516/516/516 514/514/514
f 516/516/516 334/334/334 507/507/507
f 515/515/515 455/455/455 517/517/517
f 448/448/448 517/517/517 455/455/455
f 334/334/334 516/516/516 518/518/518
f 518/518/518 329/329/329 334/334/334
f 329/329/329 518/518/518 335/335/335
f 516/516/516 515/515/515 519/519/519
f 519/519/519 518/518/518 516/516/516
f 517/517/517 519/519/519 515/515/515
f 520/520/520 335/335/335 518/518/518
f 518/518/518 519/519/519 520/520/520
f 335/335/335 520/520/520 345/345/345
f 517/517/517 448/448/448 521/521/521
f 441/441/441 521/521/521 448/448/448
f 519/519/519 517/517/517 522/522/522
f 522/522/522 520/520/520 519/519/519
f 521/521/521 522/522/522 517/517/517
f 523/523/523 345/345/345 520/520/520
f 520/520/520 522/522/522 523/523/523
f 345/345/345 523/523/523 350/350/350
f 361/361/361 350/350/350 523/523/523
f 524/524/524 523/523/523 522/522/522
f 523/523/523 524/524/524 361/361/361
f 522/522/522 521/521/521 524/524/524
f 376/376/376 361/361/361 524/524/524
f 521/521/521 441/441/441 525/525/525
f 525/525/525 524/524/524 521/521/521
f 524/524/524 525/525/525 376/376/376
f 428/428/428 525/525/525 441/441/441
f 382/382/382 376/376/376 525/525/525
f 525/525/525 428/428/428 382/382/382
