g Cylinder001
v -0.0166900884 0.121744543 -9.19145826E-09
v 0.0166900884 0.119894981 0.0211407058
v -0.0166900884 0.119894981 0.0211407058
v 0.0166900884 0.121744543 -9.19145826E-09
v -0.0166900884 0.119894966 -0.0211407226
v 0.0166900884 0.119894966 -0.0211407226
v -0.0166900884 0.114402451 -0.0416390896
v 0.0166900884 0.114402451 -0.0416390896
v -0.0166900884 0.105433874 -0.0608722679
v 0.0166900884 0.105433874 -0.0608722679
v -0.0166900884 0.0932617337 -0.0782558769
v 0.0166900884 0.0932617337 -0.0782558769
v -0.0166900884 0.0782558843 -0.0932617262
v 0.0166900884 0.0782558843 -0.0932617262
v -0.0166900884 0.0608722717 -0.105433859
v 0.0166900884 0.0608722717 -0.105433859
v -0.0166900884 0.0416390896 -0.114402451
v 0.0166900884 0.0416390896 -0.114402451
v -0.0166900884 0.0211407207 -0.119894966
v 0.0166900884 0.0211407207 -0.119894966
v -0.0166900884 0 -0.121744543
v 0.0166900884 0 -0.121744543
v -0.0166900884 -0.0211408064 -0.119894952
v 0.0166900884 -0.0211408064 -0.119894952
v -0.0166900884 -0.0416391715 -0.114402413
v 0.0166900884 -0.0416391715 -0.114402413
v -0.0166900884 -0.0608723424 -0.105433837
v 0.0166900884 -0.0608723424 -0.105433837
v -0.0166900884 -0.078255944 -0.0932616815
v 0.0166900884 -0.078255944 -0.0932616815
v -0.0166900884 -0.0932617858 -0.0782558247
v 0.0166900884 -0.0932617858 -0.0782558247
v -0.0166900884 -0.105433904 -0.0608722083
v 0.0166900884 -0.105433904 -0.0608722083
v -0.0166900884 -0.114402473 -0.0416390263
v 0.0166900884 -0.114402473 -0.0416390263
v -0.0166900884 -0.119894981 -0.0211406592
v 0.0166900884 -0.119894981 -0.0211406592
v -0.0166900884 -0.121744543 5.66005376E-08
v 0.0166900884 -0.121744543 5.66005376E-08
v -0.0166900884 -0.119894959 0.0211407673
v 0.0166900884 -0.119894959 0.0211407673
v -0.0166900884 -0.114402436 0.0416391306
v 0.0166900884 -0.114402436 0.0416391306
v -0.0166900884 -0.105433844 0.0608723089
v 0.0166900884 -0.105433844 0.0608723089
v -0.0166900884 -0.0932617038 0.0782559216
v 0.0166900884 -0.0932617038 0.0782559216
v -0.0166900884 -0.0782558396 0.0932617709
v 0.0166900884 -0.0782558396 0.0932617709
v -0.0166900884 -0.0608722195 0.105433889
v 0.0166900884 -0.0608722195 0.105433889
v -0.0166900884 -0.04163903 0.114402473
v 0.0166900884 -0.04163903 0.114402473
v -0.0166900884 -0.0211406685 0.119894981
v 0.0166900884 -0.0211406685 0.119894981
v -0.0166900884 4.7409074E-08 0.121744543
v 0.0166900884 4.7409074E-08 0.121744543
v -0.0166900884 0.0211407617 0.119894959
v 0.0166900884 0.0211407617 0.119894959
v -0.0166900884 0.0416391231 0.114402436
v 0.0166900884 0.0416391231 0.114402436
v -0.0166900884 0.0608723015 0.105433851
v 0.0166900884 0.0608723015 0.105433851
v -0.0166900884 0.0782559067 0.0932617038
v 0.0166900884 0.0782559067 0.0932617038
v -0.0166900884 0.0932617486 0.0782558694
v 0.0166900884 0.0932617486 0.0782558694
v -0.0166900884 0.105433881 0.060872253
v 0.0166900884 0.105433881 0.060872253
v -0.0166900884 0.114402451 0.041639071
v 0.0166900884 0.114402451 0.041639071
v -0.0166900884 0.119894981 0.0211407058
v 0.0166900884 0.119894981 0.0211407058
vt 0.99999994 0
vt 1.02777779 1
vt 1.02777779 0
vt 0.99999994 1
vt 0.972222209 0
vt 0.972222209 1
vt 0.944444358 0
vt 0.944444358 1
vt 0.916666687 0
vt 0.916666687 1
vt 0.888888836 0
vt 0.888888836 1
vt 0.861111045 0
vt 0.861111045 1
vt 0.833333313 0
vt 0.833333313 1
vt 0.805555522 0
vt 0.805555522 1
vt 0.777777731 0
vt 0.777777731 1
vt 0.75 0
vt 0.75 1
vt 0.722222149 0
vt 0.722222149 1
vt 0.694444299 0
vt 0.694444299 1
vt 0.666666567 0
vt 0.666666567 1
vt 0.638888836 0
vt 0.638888836 1
vt 0.611110985 0
vt 0.611110985 1
vt 0.583333254 0
vt 0.583333254 1
vt 0.555555463 0
vt 0.555555463 1
vt 0.527777672 0
vt 0.527777672 1
vt 0.499999911 0
vt 0.499999911 1
vt 0.472222149 0
vt 0.472222149 1
vt 0.444444388 0
vt 0.444444388 1
vt 0.416666597 0
vt 0.416666597 1
vt 0.388888836 0
vt 0.388888836 1
vt 0.361111015 0
vt 0.361111015 1
vt 0.333333254 0
vt 0.333333254 1
vt 0.305555493 0
vt 0.305555493 1
vt 0.277777702 0
vt 0.277777702 1
vt 0.24999994 0
vt 0.24999994 1
vt 0.222222194 0
vt 0.222222194 1
vt 0.194444418 0
vt 0.194444418 1
vt 0.166666627 0
vt 0.166666627 1
vt 0.138888851 0
vt 0.138888851 1
vt 0.111111082 0
vt 0.111111082 1
vt 0.0833333135 0
vt 0.0833333135 1
vt 0.0555555411 0
vt 0.0555555411 1
vt 0.0277777705 0
vt 0.0277777705 1
vn -0 1 -2.3806524E-07
vn -0 0.98480773 0.173648104
vn -0 0.98480773 0.173648104
vn -0 1 -2.3806524E-07
vn -0 0.98480773 -0.173648089
vn -0 0.98480773 -0.173648089
vn -0 0.939692616 -0.342020094
vn -0 0.939692616 -0.342020094
vn -0 0.866025448 -0.50000006
vn -0 0.866025448 -0.50000006
vn -0 0.766044378 -0.642787695
vn -0 0.766044378 -0.642787695
vn -0 0.642787576 -0.766044497
vn -0 0.642787576 -0.766044497
vn -0 0.500000238 -0.866025269
vn -0 0.500000238 -0.866025269
vn -0 0.342020243 -0.939692557
vn -0 0.342020243 -0.939692557
vn -0 0.173648074 -0.98480773
vn -0 0.173648074 -0.98480773
vn -0 -2.71394356E-07 -1
vn -0 -2.71394356E-07 -1
vn -0 -0.173648804 -0.984807611
vn -0 -0.173648804 -0.984807611
vn -0 -0.342020541 -0.939692557
vn -0 -0.342020541 -0.939692557
vn -0 -0.500000536 -0.86602509
vn -0 -0.500000536 -0.86602509
vn -0 -0.642788172 -0.766043961
vn -0 -0.642788172 -0.766043961
vn -0 -0.766044915 -0.642787039
vn -0 -0.766044915 -0.642787039
vn -0 -0.866025805 -0.499999493
vn -0 -0.866025805 -0.499999493
vn -0 -0.939692855 -0.342019588
vn -0 -0.939692855 -0.342019588
vn -0 -0.984807849 -0.173647657
vn -0 -0.984807849 -0.173647657
vn -0 -1 4.61846525E-07
vn -0 -1 4.61846525E-07
vn -0 -0.98480773 0.173648566
vn -0 -0.98480773 0.173648566
vn -0 -0.939692557 0.342020541
vn -0 -0.939692557 0.342020541
vn -0 -0.866025269 0.500000358
vn -0 -0.866025269 0.500000358
vn -0 -0.766044259 0.642787874
vn -0 -0.766044259 0.642787874
vn -0 -0.642787099 0.766044855
vn -0 -0.642787099 0.766044855
vn -0 -0.499999613 0.866025627
vn -0 -0.499999613 0.866025627
vn -0 -0.342019856 0.939692736
vn -0 -0.342019856 0.939692736
vn -0 -0.173647717 0.984807849
vn -0 -0.173647717 0.984807849
vn -0 4.52323974E-07 1
vn -0 4.52323974E-07 1
vn -0 0.173648581 0.98480773
vn -0 0.173648581 0.98480773
vn -0 0.342020392 0.939692557
vn -0 0.342020392 0.939692557
vn -0 0.500000298 0.866025269
vn -0 0.500000298 0.866025269
vn -0 0.642787874 0.766044259
vn -0 0.642787874 0.766044259
vn -0 0.766044497 0.642787576
vn -0 0.766044497 0.642787576
vn -0 0.866025507 0.499999851
vn -0 0.866025507 0.499999851
vn -0 0.939692616 0.342020065
vn -0 0.939692616 0.342020065
vn -0 0.98480773 0.173648104
vn -0 0.98480773 0.173648104
g Cylinder001_0
f 3/3/3 2/2/2 1/1/1
f 2/2/2 4/4/4 1/1/1
f 1/1/1 4/4/4 5/5/5
f 4/4/4 6/6/6 5/5/5
f 5/5/5 6/6/6 7/7/7
f 6/6/6 8/8/8 7/7/7
f 7/7/7 8/8/8 9/9/9
f 8/8/8 10/10/10 9/9/9
f 9/9/9 10/10/10 11/11/11
f 10/10/10 12/12/12 11/11/11
f 11/11/11 12/12/12 13/13/13
f 12/12/12 14/14/14 13/13/13
f 13/13/13 14/14/14 15/15/15
f 14/14/14 16/16/16 15/15/15
f 15/15/15 16/16/16 17/17/17
f 16/16/16 18/18/18 17/17/17
f 17/17/17 18/18/18 19/19/19
f 18/18/18 20/20/20 19/19/19
f 19/19/19 20/20/20 21/21/21
f 20/20/20 22/22/22 21/21/21
f 21/21/21 22/22/22 23/23/23
f 22/22/22 24/24/24 23/23/23
f 23/23/23 24/24/24 25/25/25
f 24/24/24 26/26/26 25/25/25
f 25/25/25 26/26/26 27/27/27
f 26/26/26 28/28/28 27/27/27
f 27/27/27 28/28/28 29/29/29
f 28/28/28 30/30/30 29/29/29
f 29/29/29 30/30/30 31/31/31
f 30/30/30 32/32/32 31/31/31
f 31/31/31 32/32/32 33/33/33
f 32/32/32 34/34/34 33/33/33
f 33/33/33 34/34/34 35/35/35
f 34/34/34 36/36/36 35/35/35
f 35/35/35 36/36/36 37/37/37
f 36/36/36 38/38/38 37/37/37
f 37/37/37 38/38/38 39/39/39
f 38/38/38 40/40/40 39/39/39
f 39/39/39 40/40/40 41/41/41
f 40/40/40 42/42/42 41/41/41
f 41/41/41 42/42/42 43/43/43
f 42/42/42 44/44/44 43/43/43
f 43/43/43 44/44/44 45/45/45
f 44/44/44 46/46/46 45/45/45
f 45/45/45 46/46/46 47/47/47
f 46/46/46 48/48/48 47/47/47
f 47/47/47 48/48/48 49/49/49
f 48/48/48 50/50/50 49/49/49
f 49/49/49 50/50/50 51/51/51
f 50/50/50 52/52/52 51/51/51
f 51/51/51 52/52/52 53/53/53
f 52/52/52 54/54/54 53/53/53
f 53/53/53 54/54/54 55/55/55
f 54/54/54 56/56/56 55/55/55
f 55/55/55 56/56/56 57/57/57
f 56/56/56 58/58/58 57/57/57
f 57/57/57 58/58/58 59/59/59
f 58/58/58 60/60/60 59/59/59
f 59/59/59 60/60/60 61/61/61
f 60/60/60 62/62/62 61/61/61
f 61/61/61 62/62/62 63/63/63
f 62/62/62 64/64/64 63/63/63
f 63/63/63 64/64/64 65/65/65
f 64/64/64 66/66/66 65/65/65
f 65/65/65 66/66/66 67/67/67
f 66/66/66 68/68/68 67/67/67
f 67/67/67 68/68/68 69/69/69
f 68/68/68 70/70/70 69/69/69
f 69/69/69 70/70/70 71/71/71
f 70/70/70 72/72/72 71/71/71
f 71/71/71 72/72/72 73/73/73
f 72/72/72 74/74/74 73/73/73
