g Cylinder001
v 0.0478412919 0.394008368 0
v -0.0583864488 0.480855286 0.0474108867
v -0.0478412621 0.394008368 0
v 0.0583863631 0.480855286 0.0474108867
v 0.140743494 0.371110082 0
v 0.171765968 0.452909768 0.0474108867
v 0.225466192 0.326644152 0
v 0.275163144 0.398642689 0.0474108867
v 0.297085553 0.263194889 0
v 0.362568855 0.32120803 0.0474108867
v 0.351439416 0.184449673 0
v 0.428903371 0.225105867 0.0474108867
v 0.385369092 0.0949849263 0
v 0.470311582 0.1159214 0.0474108867
v 0.396902353 5.32516742E-09 0
v 0.484386981 -2.14061764E-08 0.0474108867
v 0.385369211 -0.0949843377 0
v 0.470311761 -0.115920722 0.0474108867
v 0.351439744 -0.184449196 0
v 0.428903699 -0.225105301 0.0474108867
v 0.297085941 -0.263194531 0
v 0.362569273 -0.321207613 0.0474108867
v 0.225466564 -0.326643944 0
v 0.27516368 -0.398642451 0.0474108867
v 0.140743911 -0.371109843 0
v 0.171766475 -0.452909619 0.0474108867
v 0.0478416905 -0.394008309 0
v 0.0583868474 -0.480855286 0.0474108867
v -0.0478409193 -0.394008398 0
v -0.0583860204 -0.480855405 0.0474108867
v -0.140743181 -0.371110141 0
v -0.171765685 -0.452909917 0.0474108867
v -0.225465983 -0.326644391 0
v -0.275162935 -0.398642987 0.0474108867
v -0.297085434 -0.263195038 0
v -0.362568796 -0.321208298 0.0474108867
v -0.351439357 -0.184449896 0
v -0.428903371 -0.225106135 0.0474108867
v -0.385369062 -0.0949851051 0
v -0.470311701 -0.115921631 0.0474108867
v -0.396902353 -1.24002028E-07 0
v -0.48438713 -1.79239521E-07 0.0474108867
v -0.385369092 0.0949848369 0
v -0.470311761 0.115921281 0.0474108867
v -0.351439476 0.184449613 0
v -0.42890352 0.225105792 0.0474108867
v -0.297085553 0.263194859 0
v -0.362569004 0.321208 0.0474108867
v -0.225466192 0.326644272 0
v -0.275163203 0.398642719 0.0474108867
v -0.140743494 0.371110082 0
v -0.171766028 0.452909768 0.0474108867
v -0.0478412621 0.394008368 0
v -0.0583864488 0.480855286 0.0474108867
vt 0.00856821053 0.0450230241
vt 0.994351566 0.00710839033
vt 0.00856821239 0.00710833073
vt 0.994351566 0.0450230837
vt 0.0085682068 0.082937777
vt 0.994351566 0.0829378366
vt 0.00856820494 0.12085247
vt 0.994351566 0.12085253
vt 0.00856820121 0.158767223
vt 0.994351566 0.158767283
vt 0.00856819842 0.196682036
vt 0.994351566 0.196682096
vt 0.00856819563 0.234596789
vt 0.994351566 0.234596848
vt 0.00856819283 0.272511482
vt 0.994351566 0.272511542
vt 0.00856819004 0.310425997
vt 0.994351566 0.310426056
vt 0.00856818724 0.34834075
vt 0.994351566 0.348340809
vt 0.00856818445 0.386255503
vt 0.994351566 0.386255562
vt 0.00856818166 0.424170256
vt 0.994351566 0.424170315
vt 0.00856817886 0.462085068
vt 0.994351566 0.462085128
vt 0.00856817514 0.499999821
vt 0.994351566 0.499999881
vt 0.00856817327 0.537914574
vt 0.994351566 0.537914634
vt 0.00856816955 0.575829327
vt 0.994351566 0.575829387
vt 0.00856816769 0.61374408
vt 0.994351506 0.61374414
vt 0.00856816396 0.651658893
vt 0.994351506 0.651658952
vt 0.0085681621 0.689573646
vt 0.994351506 0.689573705
vt 0.00856815837 0.727488399
vt 0.994351506 0.727488518
vt 0.00856815558 0.765403152
vt 0.994351506 0.765403211
vt 0.00856815279 0.803317904
vt 0.994351506 0.803317964
vt 0.00856814999 0.841232657
vt 0.994351506 0.841232777
vt 0.0085681472 0.87914741
vt 0.994351506 0.87914753
vt 0.0085681444 0.917062163
vt 0.994351506 0.917062283
vt 0.00856814161 0.954976916
vt 0.994351506 0.954976976
vt 0.00856813788 0.992891669
vt 0.994351506 0.992891729
vn 0.0773165077 0.636759639 -0.767176211
vn -0.0773165226 0.63675952 -0.767176211
vn -0.0773164928 0.63675952 -0.767176211
vn 0.0773165002 0.636759639 -0.767176151
vn 0.227456525 0.599753439 -0.767176211
vn 0.22745648 0.599753559 -0.767176092
vn 0.364377469 0.527891934 -0.767176151
vn 0.364377439 0.527891874 -0.767176092
vn 0.48012197 0.425351143 -0.767176151
vn 0.480122 0.425351202 -0.767176092
vn 0.567963839 0.298090428 -0.767176151
vn 0.567963839 0.298090428 -0.767176092
vn 0.622797608 0.153505713 -0.767176032
vn 0.622797549 0.153505757 -0.767176092
vn 0.641436577 2.83039384E-07 -0.767176032
vn 0.641436577 2.35085352E-07 -0.767176032
vn 0.622797787 -0.153505087 -0.767176092
vn 0.622797728 -0.153505042 -0.767176092
vn 0.567964256 -0.298089564 -0.767176092
vn 0.567964256 -0.298089653 -0.767176092
vn 0.480122715 -0.425350338 -0.767176151
vn 0.480122656 -0.425350368 -0.767176211
vn 0.364378005 -0.527891219 -0.767176211
vn 0.364378005 -0.527891278 -0.767176211
vn 0.227457017 -0.599753141 -0.767176211
vn 0.227457017 -0.599753141 -0.767176211
vn 0.0773172081 -0.6367594 -0.767176211
vn 0.0773172006 -0.63675946 -0.767176211
vn -0.0773160234 -0.636759579 -0.76717633
vn -0.0773160383 -0.636759579 -0.76717633
vn -0.227455884 -0.599753499 -0.76717639
vn -0.227455929 -0.599753499 -0.76717639
vn -0.364376843 -0.527891994 -0.76717639
vn -0.364376843 -0.527891994 -0.76717639
vn -0.480121642 -0.425351202 -0.76717639
vn -0.480121672 -0.425351232 -0.76717639
vn -0.567963481 -0.298090547 -0.76717639
vn -0.567963481 -0.298090547 -0.76717639
vn -0.622797251 -0.153505981 -0.76717639
vn -0.622797251 -0.153505981 -0.76717639
vn -0.641436279 -2.20141729E-07 -0.76717639
vn -0.641436279 -2.30029812E-07 -0.76717639
vn -0.62279731 0.153505608 -0.76717633
vn -0.62279731 0.153505579 -0.76717633
vn -0.56796366 0.298090279 -0.76717633
vn -0.56796366 0.298090309 -0.76717639
vn -0.48012194 0.425350964 -0.767176211
vn -0.480122 0.425350964 -0.76717633
vn -0.36437735 0.527891755 -0.76717633
vn -0.364377379 0.527891755 -0.767176211
vn -0.227456376 0.599753439 -0.767176211
vn -0.227456406 0.599753439 -0.767176211
vn -0.0773164928 0.63675952 -0.767176211
vn -0.0773165226 0.63675952 -0.767176211
g Cylinder001_0
f 3/3/3 2/2/2 1/1/1
f 2/2/2 4/4/4 1/1/1
f 1/1/1 4/4/4 5/5/5
f 4/4/4 6/6/6 5/5/5
f 5/5/5 6/6/6 7/7/7
f 6/6/6 8/8/8 7/7/7
f 7/7/7 8/8/8 9/9/9
f 8/8/8 10/10/10 9/9/9
f 9/9/9 10/10/10 11/11/11
f 10/10/10 12/12/12 11/11/11
f 11/11/11 12/12/12 13/13/13
f 12/12/12 14/14/14 13/13/13
f 13/13/13 14/14/14 15/15/15
f 14/14/14 16/16/16 15/15/15
f 15/15/15 16/16/16 17/17/17
f 16/16/16 18/18/18 17/17/17
f 17/17/17 18/18/18 19/19/19
f 18/18/18 20/20/20 19/19/19
f 19/19/19 20/20/20 21/21/21
f 20/20/20 22/22/22 21/21/21
f 21/21/21 22/22/22 23/23/23
f 22/22/22 24/24/24 23/23/23
f 23/23/23 24/24/24 25/25/25
f 24/24/24 26/26/26 25/25/25
f 25/25/25 26/26/26 27/27/27
f 26/26/26 28/28/28 27/27/27
f 27/27/27 28/28/28 29/29/29
f 28/28/28 30/30/30 29/29/29
f 29/29/29 30/30/30 31/31/31
f 30/30/30 32/32/32 31/31/31
f 31/31/31 32/32/32 33/33/33
f 32/32/32 34/34/34 33/33/33
f 33/33/33 34/34/34 35/35/35
f 34/34/34 36/36/36 35/35/35
f 35/35/35 36/36/36 37/37/37
f 36/36/36 38/38/38 37/37/37
f 37/37/37 38/38/38 39/39/39
f 38/38/38 40/40/40 39/39/39
f 39/39/39 40/40/40 41/41/41
f 40/40/40 42/42/42 41/41/41
f 41/41/41 42/42/42 43/43/43
f 42/42/42 44/44/44 43/43/43
f 43/43/43 44/44/44 45/45/45
f 44/44/44 46/46/46 45/45/45
f 45/45/45 46/46/46 47/47/47
f 46/46/46 48/48/48 47/47/47
f 47/47/47 48/48/48 49/49/49
f 48/48/48 50/50/50 49/49/49
f 49/49/49 50/50/50 51/51/51
f 50/50/50 52/52/52 51/51/51
f 51/51/51 52/52/52 53/53/53
f 52/52/52 54/54/54 53/53/53
