g Cylinder001
v 0.0614355393 0.584519684 -0.00300681824
v 2.27355958E-05 0.000216217042 -0.00451022666
v -2.28881836E-05 0.000216217042 -0.00451022666
v -0.0614355877 0.584519684 -0.00300681824
v 0.131889388 1.25484407 -0.00150340912
v -6.74438488E-05 0.000206604003 -0.00451022666
v -0.131889507 1.25484407 -0.00150340912
v 0.217139557 2.06594586 -0.000250568148
v -0.181621507 0.558973432 -0.00300681847
v -0.000109252927 0.000187988277 -0.00451022666
v -0.217139721 2.06594586 -0.000250568148
v 0.2341896 2.2281661 0
v -0.234189749 2.2281661 0
v -0.38990435 1.20000136 -0.00150340924
v -0.293870062 0.508996964 -0.00300681824
v -0.000146026607 0.000161437987 -0.00451022666
v -0.64192903 1.97565413 -0.000250568177
v -0.692333996 2.13078451 0
v -0.630878568 1.09271252 -0.00150340912
v -0.393274784 0.43677485 -0.00300681824
v -0.000176696776 0.000127563471 -0.00451022713
v -1.03866303 1.79901624 -0.000250568177
v -1.12021983 1.9402771 0
v -0.844280064 0.93766731 -0.00150340912
v -0.475491703 0.345464647 -0.00300681847
v -0.000199279777 8.78906212E-05 -0.00451022666
v -1.39000225 1.5437535 -0.000250568206
v -1.4991467 1.66497064 0
v -1.02078271 0.741641521 -0.00150340924
v -0.536927164 0.239054859 -0.00300681847
v -0.000213470455 4.45556616E-05 -0.00451022666
v -1.68059182 1.22102129 -0.000250568206
v -1.81255364 1.31689727 0
v -1.15267205 0.51320225 -0.00150340924
v -0.574896276 0.122197323 -0.00300681824
v -0.000218200672 -7.62939408E-07 -0.00451022666
v -1.89773142 0.84492445 -0.000250568206
v -2.04674315 0.91126889 0
v -1.23418427 0.262333393 -0.001503409
v -0.587739766 -4.90288699E-07 -0.00300681824
v -0.000213470455 -4.59289549E-05 -0.00451022666
v -2.03193116 0.431899965 -0.000250568177
v -2.1914804 0.465813279 0
v -1.26175654 -4.81457619E-07 -0.00150340912
v -0.574896276 -0.122198552 -0.00300681824
v -0.000199279777 -8.94164987E-05 -0.00451022666
v -2.07732558 -2.07399509E-07 -0.000250568206
v -2.24043941 -1.52587887E-07 0
v -1.23418403 -0.262334615 -0.00150340912
v -0.536926925 -0.239055976 -0.00300681824
v -0.000176544185 -0.000128936765 -0.00451022713
v -2.03193092 -0.431900561 -0.000250568206
v -2.1914804 -0.465813726 0
v -1.15267181 -0.513203084 -0.00150340912
v -0.475491434 -0.345465273 -0.00300681847
v -0.000145874015 -0.00016281128 -0.00451022666
v -1.8977313 -0.844924748 -0.000250568206
v -2.04674315 -0.911269069 0
v -1.02078247 -0.741642237 -0.00150340924
v -0.393274575 -0.43677631 -0.00300681847
v -0.000109100336 -0.000189666738 -0.00451022666
v -1.68059158 -1.22102153 -0.000250568206
v -1.81255341 -1.31689739 0
v -0.844279766 -0.937668264 -0.00150340924
v -0.293869704 -0.508998036 -0.00300681824
v -6.74438488E-05 -0.000208282465 -0.00451022666
v -1.39000189 -1.54375398 -0.000250568206
v -1.49914634 -1.66497111 0
v -0.63087815 -1.09271348 -0.00150340912
v -0.181621626 -0.558974266 -0.00300681847
v -2.27355958E-05 -0.000217742912 -0.00451022666
v -1.03866255 -1.79901683 -0.000250568206
v -1.12021935 -1.94027746 0
v -0.389904231 -1.20000196 -0.00150340924
v -0.0614357069 -0.584520578 -0.00300681847
v 2.27355958E-05 -0.000217742912 -0.00451022666
v -0.64192903 -1.97565401 -0.000250568206
v -0.692333996 -2.13078451 0
v -0.131890014 -1.25484478 -0.00150340924
v 0.0614351779 -0.584520578 -0.00300681824
v 6.72912574E-05 -0.000208282465 -0.00451022666
v -0.217140302 -2.06594586 -0.000250568206
v -0.23419036 -2.2281661 0
v 0.131888479 -1.25484478 -0.00150340912
v 0.181620866 -0.558974504 -0.00300681824
v 0.000108947752 -0.000189666738 -0.00451022666
v 0.217138261 -2.0659461 -0.000250568148
v 0.234188229 -2.2281661 0
v 0.389903128 -1.20000231 -0.00150340912
v 0.293869436 -0.508998334 -0.00300681847
v 0.000146026607 -0.00016281128 -0.00451022666
v 0.641927302 -1.9756546 -0.000250568148
v 0.692332149 -2.13078499 0
v 0.630877078 -1.09271431 -0.00150340924
v 0.393274039 -0.436776906 -0.00300681824
v 0.000176544185 -0.000128936765 -0.00451022666
v 1.03866076 -1.79901791 -0.000250568206
v 1.12021756 -1.94027853 0
v 0.844278574 -0.937669218 -0.001503409
v 0.475491136 -0.345465988 -0.00300681824
v 0.000199279777 -8.95690901E-05 -0.00451022666
v 1.38999999 -1.54375565 -0.000250568148
v 1.4991442 -1.66497278 0
v 1.02078128 -0.741643727 -0.00150340912
v 0.536926329 -0.239056692 -0.00300681824
v 0.000213470455 -4.62341304E-05 -0.00451022666
v 1.68058991 -1.22102392 -0.000250568206
v 1.8125515 -1.31690001 0
v 1.15267122 -0.513204992 -0.00150340912
v 0.574895978 -0.122199751 -0.00300681824
v 0.000218200672 -7.62939408E-07 -0.00451022666
v 1.89772987 -0.844927728 -0.000250568177
v 2.04674149 -0.911272228 0
v 1.23418343 -0.262336791 -0.00150340912
v 0.587739825 -4.90288699E-07 -0.00300681824
v 0.000213470455 4.45556616E-05 -0.00451022666
v 2.03193045 -0.431904376 -0.000250568148
v 2.19147968 -0.465817869 0
v 2.07732558 -5.87606053E-08 -0.000250568148
v 2.24043941 0 0
v 1.26175654 -3.5256366E-07 -0.00150340912
v 0.574896455 0.122197323 -0.00300681824
v 0.000199279777 8.81957967E-05 -0.00451022666
v 2.03193092 0.431899965 -0.000250568206
v 2.1914804 0.465813279 0
v 1.23418379 0.262333393 -0.00150340912
v 0.536926806 0.239054859 -0.00300681824
v 0.000176544185 0.000127563471 -0.00451022666
v 1.8977313 0.84492445 -0.000250568206
v 2.04674315 0.91126889 0
v 1.15267181 0.51320225 -0.00150340912
v 0.475491375 0.345464438 -0.00300681824
v 0.000146026607 0.000161437987 -0.00451022666
v 1.68059158 1.22102129 -0.000250568177
v 1.81255341 1.31689727 0
v 1.02078235 0.741641521 -0.00150340912
v 0.393274724 0.436775118 -0.00300681824
v 0.000109252927 0.000187988277 -0.00451022666
v 1.39000189 1.54375398 -0.000250568177
v 1.49914634 1.66497123 0
v 0.844279587 0.937667608 -0.00150340912
v 0.293869913 0.508997262 -0.00300681824
v 6.72912574E-05 0.000206909172 -0.00451022666
v 1.03866279 1.79901683 -0.000250568177
v 1.12021971 1.9402777 0
v 0.630878329 1.09271288 -0.00150340912
v 0.181621477 0.558973432 -0.00300681824
v 2.27355958E-05 0.000216217042 -0.00451022666
v 0.0614355393 0.584519684 -0.00300681824
v 0.389904171 1.20000136 -0.00150340912
v 0.131889388 1.25484407 -0.00150340912
v 0.641928792 1.97565413 -0.000250568177
v 0.692333639 2.13078451 0
v 0.217139557 2.06594586 -0.000250568148
v 0.2341896 2.2281661 0
vt 0.33626008 0.00956887007
vt 0.00930599123 0.00956885703
vt 0.00930599123 0.0422642678
vt 0.33626008 0.0422642827
vt 0.663214087 0.00956888497
vt 0.00930599123 0.074959673
vt 0.663214087 0.0422642976
vt 0.935675859 0.00956889708
vt 0.33626008 0.0749596879
vt 0.00930599123 0.107655086
vt 0.935675859 0.0422643088
vt 0.990168214 0.00956889894
vt 0.990168214 0.0422643125
vt 0.663214087 0.0749597028
vt 0.33626008 0.107655101
vt 0.00930599123 0.140350491
vt 0.935675859 0.0749597177
vt 0.990168214 0.0749597177
vt 0.663214087 0.107655115
vt 0.33626008 0.140350491
vt 0.00930599123 0.173045903
vt 0.935675859 0.10765513
vt 0.990168214 0.10765513
vt 0.663214087 0.140350521
vt 0.33626008 0.173045918
vt 0.00930599123 0.205741316
vt 0.935675859 0.140350521
vt 0.990168214 0.140350521
vt 0.663214087 0.173045933
vt 0.33626008 0.205741331
vt 0.00930599123 0.238436714
vt 0.935675859 0.173045948
vt 0.990168214 0.173045948
vt 0.663214087 0.205741346
vt 0.33626008 0.238436729
vt 0.00930599123 0.271132112
vt 0.935675859 0.205741361
vt 0.990168214 0.205741361
vt 0.663214087 0.238436744
vt 0.33626008 0.271132141
vt 0.00930599123 0.303827554
vt 0.935675859 0.238436759
vt 0.990168214 0.238436759
vt 0.663214087 0.271132171
vt 0.33626008 0.303827554
vt 0.00930599123 0.336522967
vt 0.935675859 0.271132171
vt 0.990168214 0.271132171
vt 0.663214087 0.303827584
vt 0.33626008 0.336522967
vt 0.00930599123 0.369218409
vt 0.935675859 0.303827584
vt 0.990168214 0.303827584
vt 0.663214087 0.336522996
vt 0.33626008 0.369218409
vt 0.00930599123 0.401913792
vt 0.935675859 0.336522996
vt 0.990168214 0.336522996
vt 0.663214087 0.369218439
vt 0.33626008 0.401913792
vt 0.00930599123 0.434609175
vt 0.935675859 0.369218439
vt 0.990168214 0.369218439
vt 0.663214087 0.401913822
vt 0.33626008 0.434609175
vt 0.00930599123 0.467304558
vt 0.935675859 0.401913822
vt 0.990168214 0.401913822
vt 0.663214087 0.434609205
vt 0.33626008 0.467304558
vt 0.00930599123 0.49999994
vt 0.935675859 0.434609205
vt 0.990168214 0.434609205
vt 0.663214087 0.467304587
vt 0.33626008 0.49999994
vt 0.00930599123 0.532695234
vt 0.935675859 0.467304587
vt 0.990168214 0.467304587
vt 0.663214087 0.49999997
vt 0.33626008 0.532695353
vt 0.00930599123 0.565390646
vt 0.935675859 0.49999997
vt 0.990168214 0.49999997
vt 0.663214087 0.532695353
vt 0.33626008 0.565390766
vt 0.00930599123 0.598085999
vt 0.935675859 0.532695353
vt 0.990168214 0.532695353
vt 0.663214087 0.565390766
vt 0.33626008 0.598085999
vt 0.00930599123 0.630781412
vt 0.935675859 0.565390766
vt 0.990168214 0.565390766
vt 0.663214087 0.598085999
vt 0.33626008 0.630781412
vt 0.00930599123 0.663476765
vt 0.935675859 0.598085999
vt 0.990168214 0.598085999
vt 0.663214087 0.630781412
vt 0.33626008 0.663476884
vt 0.00930599123 0.696172118
vt 0.935675859 0.630781412
vt 0.990168214 0.630781412
vt 0.663214087 0.663476884
vt 0.336260021 0.696172237
vt 0.00930599123 0.728867531
vt 0.935675859 0.663476884
vt 0.990168214 0.663476884
vt 0.663214087 0.696172237
vt 0.336260021 0.72886765
vt 0.00930599123 0.761563241
vt 0.935675859 0.696172237
vt 0.990168214 0.696172237
vt 0.663214087 0.72886765
vt 0.336260021 0.761563241
vt 0.00930599123 0.794258654
vt 0.935675859 0.72886765
vt 0.990168214 0.72886765
vt 0.935675859 0.761563241
vt 0.990168214 0.761563241
vt 0.663214087 0.761563241
vt 0.336260021 0.794258773
vt 0.00930599123 0.826954007
vt 0.935675859 0.794258773
vt 0.990168214 0.794258773
vt 0.663214087 0.794258773
vt 0.336260021 0.826954126
vt 0.00930599123 0.859649479
vt 0.935675859 0.826954126
vt 0.990168214 0.826954126
vt 0.663214087 0.826954126
vt 0.336260021 0.859649479
vt 0.00930599123 0.892344892
vt 0.935675859 0.859649479
vt 0.990168214 0.859649479
vt 0.663214087 0.859649479
vt 0.336260021 0.892344892
vt 0.00930599123 0.925040245
vt 0.935675859 0.892344892
vt 0.990168214 0.892344892
vt 0.663214087 0.892344892
vt 0.336260021 0.925040364
vt 0.00930599123 0.957735658
vt 0.935675859 0.925040364
vt 0.990168214 0.925040364
vt 0.663214087 0.925040364
vt 0.336260021 0.957735777
vt 0.00930599123 0.99043113
vt 0.336260021 0.99043113
vt 0.663214087 0.957735777
vt 0.663214087 0.99043113
vt 0.935675859 0.957735777
vt 0.990168214 0.957735777
vt 0.935675859 0.99043113
vt 0.990168214 0.99043113
vn -0.000249169592 -0.00237069884 0.999997139
vn -0.000267195428 -0.00254490157 0.999996781
vn 0.000267720257 -0.00254484545 0.999996781
vn 0.000249170029 -0.00237069861 0.999997139
vn -0.000194442808 -0.00184999942 0.999998331
vn 0.000790977501 -0.00243357033 0.999996781
vn 0.000194442444 -0.00184999942 0.999998331
vn -0.000160571799 -0.00152773806 0.999998808
vn 0.000736622547 -0.00226708665 0.999997139
vn 0.0012792435 -0.00221617939 0.999996781
vn 0.000160571726 -0.00152773806 0.999998808
vn -0.000160571813 -0.00152773806 0.999998808
vn 0.000160571741 -0.00152773806 0.999998808
vn 0.000574830978 -0.00176914502 0.999998331
vn 0.00119188172 -0.0020643922 0.999997139
vn 0.00171188416 -0.00190194091 0.999996781
vn 0.000474698172 -0.00146096828 0.999998808
vn 0.000474698201 -0.0014609684 0.999998808
vn 0.000930096023 -0.00161097082 0.999998331
vn 0.00159504195 -0.00177148124 0.999997139
vn 0.0020703387 -0.00150386163 0.999996781
vn 0.000768077269 -0.0013303475 0.999998808
vn 0.000768077036 -0.0013303475 0.999998808
vn 0.00124470913 -0.00138239155 0.999998331
vn 0.00192849687 -0.00140113838 0.999997139
vn 0.00233779056 -0.00104050664 0.999996781
vn 0.00102788687 -0.00114158506 0.999998808
vn 0.00102788699 -0.00114158494 0.999998808
vn 0.00150492438 -0.00109339284 0.999998331
vn 0.00217767293 -0.000969556975 0.999997139
vn 0.00250294642 -0.000532146136 0.999996781
vn 0.00124277419 -0.000902928761 0.999998808
vn 0.00124277431 -0.000902928761 0.999998808
vn 0.00169936859 -0.000756606052 0.999998331
vn 0.00233166688 -0.000495609769 0.999997139
vn 0.0025588912 0 0.999996781
vn 0.00140334631 -0.000624809589 0.999998808
vn 0.00140334654 -0.000624809996 0.999998808
vn 0.00181954075 -0.000386754284 0.999998331
vn 0.00238375808 0 0.999997139
vn 0.00250295782 0.000532094506 0.999996781
vn 0.00150258525 -0.000319383951 0.999998808
vn 0.0015025849 -0.000319384068 0.999998808
vn 0.0018601903 0 0.999998331
vn 0.00233166642 0.000495611981 0.999997139
vn 0.00233767321 0.00104077323 0.999996781
vn 0.00153615396 0 0.999998808
vn 0.00153615349 0 0.999998808
vn 0.0018195404 0.000386755768 0.999998331
vn 0.00217767176 0.000969561515 0.999997139
vn 0.00207012892 0.00150415651 0.999996781
vn 0.00150258536 0.000319384533 0.999998808
vn 0.00150258536 0.000319384446 0.999998808
vn 0.00169936859 0.000756607798 0.999998331
vn 0.0019285006 0.00140113744 0.999997139
vn 0.00171221141 0.00190164603 0.999996781
vn 0.00140334666 0.000624810404 0.999998808
vn 0.00140334666 0.000624810404 0.999998808
vn 0.00150492589 0.00109339238 0.999998331
vn 0.00159504393 0.00177147926 0.999997139
vn 0.00127971394 0.0022159107 0.999996781
vn 0.00124277466 0.000902928994 0.999998808
vn 0.00124277477 0.000902928994 0.999998808
vn 0.00124470983 0.0013823912 0.999998331
vn 0.00119188009 0.00206439546 0.999997139
vn 0.000790779712 0.00243363762 0.999996781
vn 0.00102788745 0.00114158518 0.999998808
vn 0.00102788745 0.00114158506 0.999998808
vn 0.000930094975 0.00161097245 0.999998331
vn 0.000736623886 0.00226708828 0.999997139
vn 0.000267403142 0.00254488131 0.999996781
vn 0.000768076978 0.00133034878 0.999998808
vn 0.000768076861 0.00133034855 0.999998808
vn 0.000574831502 0.00176914642 0.999998331
vn 0.000249170262 0.00237070001 0.999997139
vn -0.000267459138 0.00254487596 0.999996781
vn 0.000474698172 0.00146096933 0.999998808
vn 0.000474698056 0.00146096922 0.999998808
vn 0.000194443273 0.00185000012 0.999998331
vn -0.000249170291 0.00237070071 0.999997139
vn -0.000790826802 0.00243362295 0.999996781
vn 0.00016057241 0.00152773911 0.999998808
vn 0.00016057241 0.00152773899 0.999998808
vn -0.000194442458 0.00185000058 0.999998331
vn -0.000736618764 0.00226709037 0.999997139
vn -0.00127943663 0.00221606973 0.999996781
vn -0.000160571188 0.00152773911 0.999998808
vn -0.000160571115 0.00152773922 0.999998808
vn -0.000574828475 0.00176914758 0.999998331
vn -0.00119187706 0.00206439639 0.999997139
vn -0.0017121241 0.00190172368 0.999996781
vn -0.000474696455 0.00146097015 0.999998808
vn -0.00047469663 0.00146096991 0.999998808
vn -0.000930093462 0.00161097315 0.999998331
vn -0.001595043 0.00177148019 0.999997139
vn -0.0020701657 0.00150410552 0.999996781
vn -0.000768075814 0.00133034948 0.999998808
vn -0.000768075988 0.00133034936 0.999998808
vn -0.00124470901 0.00138239271 0.999998331
vn -0.00192849897 0.00140113989 0.999997139
vn -0.00233758404 0.00104097696 0.999996781
vn -0.00102788629 0.00114158634 0.999998808
vn -0.00102788641 0.00114158669 0.999998808
vn -0.00150492392 0.00109339505 0.999998331
vn -0.00217767013 0.000969565357 0.999997139
vn -0.00250295084 0.000532127393 0.999996781
vn -0.00124277303 0.000902930798 0.999998808
vn -0.00124277349 0.000902930915 0.999998808
vn -0.00169936696 0.000756610243 0.999998331
vn -0.00233166548 0.000495616579 0.999997139
vn -0.00255889143 0 0.999996781
vn -0.00140334561 0.00062481279 0.999998808
vn -0.00140334549 0.000624812848 0.999998808
vn -0.0018195397 0.000386758154 0.999998331
vn -0.00238375831 0 0.999997139
vn -0.00250297948 -0.000531987171 0.999996781
vn -0.0015025849 0.000319386629 0.999998808
vn -0.00150258455 0.00031938657 0.999998808
vn -0.00153615349 0 0.999998808
vn -0.00153615396 0 0.999998808
vn -0.00186018972 0 0.999998331
vn -0.00233166618 -0.000495612796 0.999997139
vn -0.00233765109 -0.00104082318 0.999996781
vn -0.00150258525 -0.000319384504 0.999998808
vn -0.00150258536 -0.000319384504 0.999998808
vn -0.00181954086 -0.00038675603 0.999998331
vn -0.0021776713 -0.000969562912 0.999997139
vn -0.00207016757 -0.00150410295 0.999996781
vn -0.00140334608 -0.000624809763 0.999998808
vn -0.00140334654 -0.000624810113 0.999998808
vn -0.001699368 -0.000756607158 0.999998331
vn -0.00192850048 -0.00140113721 0.999997139
vn -0.00171203795 -0.00190180098 0.999996781
vn -0.00124277431 -0.000902928237 0.999998808
vn -0.00124277454 -0.000902928296 0.999998808
vn -0.00150492496 -0.00109339203 0.999998331
vn -0.00159504556 -0.0017714767 0.999997139
vn -0.001279569 -0.0022159915 0.999996781
vn -0.00102788745 -0.0011415839 0.999998808
vn -0.00102788734 -0.0011415839 0.999998808
vn -0.00124471041 -0.00138239004 0.999998331
vn -0.00119187997 -0.00206439337 0.999997139
vn -0.000790833728 -0.00243361783 0.999996781
vn -0.000768076454 -0.0013303475 0.999998808
vn -0.000768076396 -0.00133034762 0.999998808
vn -0.000930094975 -0.00161097129 0.999998331
vn -0.000736621034 -0.00226708781 0.999997139
vn -0.000267195428 -0.00254490157 0.999996781
vn -0.000249169592 -0.00237069884 0.999997139
vn -0.00057482993 -0.0017691456 0.999998331
vn -0.000194442808 -0.00184999942 0.999998331
vn -0.000474697241 -0.00146096863 0.999998808
vn -0.000474697299 -0.0014609691 0.999998808
vn -0.000160571799 -0.00152773806 0.999998808
vn -0.000160571813 -0.00152773806 0.999998808
g Cylinder001_0
f 3/3/3 2/2/2 1/1/1
f 4/4/4 3/3/3 1/1/1
f 4/4/4 1/1/1 5/5/5
f 6/6/6 3/3/3 4/4/4
f 7/7/7 4/4/4 5/5/5
f 5/5/5 8/8/8 7/7/7
f 9/9/9 6/6/6 4/4/4
f 9/9/9 4/4/4 7/7/7
f 10/10/10 6/6/6 9/9/9
f 8/8/8 11/11/11 7/7/7
f 11/11/11 8/8/8 12/12/12
f 13/13/13 11/11/11 12/12/12
f 14/14/14 9/9/9 7/7/7
f 7/7/7 11/11/11 14/14/14
f 15/15/15 10/10/10 9/9/9
f 15/15/15 9/9/9 14/14/14
f 16/16/16 10/10/10 15/15/15
f 17/17/17 11/11/11 13/13/13
f 11/11/11 17/17/17 14/14/14
f 18/18/18 17/17/17 13/13/13
f 19/19/19 15/15/15 14/14/14
f 14/14/14 17/17/17 19/19/19
f 20/20/20 16/16/16 15/15/15
f 20/20/20 15/15/15 19/19/19
f 21/21/21 16/16/16 20/20/20
f 22/22/22 17/17/17 18/18/18
f 17/17/17 22/22/22 19/19/19
f 23/23/23 22/22/22 18/18/18
f 24/24/24 20/20/20 19/19/19
f 19/19/19 22/22/22 24/24/24
f 25/25/25 21/21/21 20/20/20
f 25/25/25 20/20/20 24/24/24
f 26/26/26 21/21/21 25/25/25
f 27/27/27 22/22/22 23/23/23
f 22/22/22 27/27/27 24/24/24
f 28/28/28 27/27/27 23/23/23
f 29/29/29 25/25/25 24/24/24
f 24/24/24 27/27/27 29/29/29
f 30/30/30 26/26/26 25/25/25
f 30/30/30 25/25/25 29/29/29
f 31/31/31 26/26/26 30/30/30
f 32/32/32 27/27/27 28/28/28
f 27/27/27 32/32/32 29/29/29
f 33/33/33 32/32/32 28/28/28
f 34/34/34 30/30/30 29/29/29
f 29/29/29 32/32/32 34/34/34
f 35/35/35 31/31/31 30/30/30
f 35/35/35 30/30/30 34/34/34
f 36/36/36 31/31/31 35/35/35
f 37/37/37 32/32/32 33/33/33
f 32/32/32 37/37/37 34/34/34
f 38/38/38 37/37/37 33/33/33
f 39/39/39 35/35/35 34/34/34
f 34/34/34 37/37/37 39/39/39
f 40/40/40 36/36/36 35/35/35
f 40/40/40 35/35/35 39/39/39
f 41/41/41 36/36/36 40/40/40
f 42/42/42 37/37/37 38/38/38
f 37/37/37 42/42/42 39/39/39
f 43/43/43 42/42/42 38/38/38
f 44/44/44 40/40/40 39/39/39
f 39/39/39 42/42/42 44/44/44
f 45/45/45 41/41/41 40/40/40
f 45/45/45 40/40/40 44/44/44
f 46/46/46 41/41/41 45/45/45
f 47/47/47 42/42/42 43/43/43
f 42/42/42 47/47/47 44/44/44
f 48/48/48 47/47/47 43/43/43
f 49/49/49 45/45/45 44/44/44
f 44/44/44 47/47/47 49/49/49
f 50/50/50 46/46/46 45/45/45
f 50/50/50 45/45/45 49/49/49
f 51/51/51 46/46/46 50/50/50
f 52/52/52 47/47/47 48/48/48
f 47/47/47 52/52/52 49/49/49
f 53/53/53 52/52/52 48/48/48
f 54/54/54 50/50/50 49/49/49
f 49/49/49 52/52/52 54/54/54
f 55/55/55 51/51/51 50/50/50
f 55/55/55 50/50/50 54/54/54
f 56/56/56 51/51/51 55/55/55
f 57/57/57 52/52/52 53/53/53
f 52/52/52 57/57/57 54/54/54
f 58/58/58 57/57/57 53/53/53
f 59/59/59 55/55/55 54/54/54
f 54/54/54 57/57/57 59/59/59
f 60/60/60 56/56/56 55/55/55
f 60/60/60 55/55/55 59/59/59
f 61/61/61 56/56/56 60/60/60
f 62/62/62 57/57/57 58/58/58
f 57/57/57 62/62/62 59/59/59
f 63/63/63 62/62/62 58/58/58
f 64/64/64 60/60/60 59/59/59
f 59/59/59 62/62/62 64/64/64
f 65/65/65 61/61/61 60/60/60
f 65/65/65 60/60/60 64/64/64
f 66/66/66 61/61/61 65/65/65
f 67/67/67 62/62/62 63/63/63
f 62/62/62 67/67/67 64/64/64
f 68/68/68 67/67/67 63/63/63
f 69/69/69 65/65/65 64/64/64
f 64/64/64 67/67/67 69/69/69
f 70/70/70 66/66/66 65/65/65
f 70/70/70 65/65/65 69/69/69
f 71/71/71 66/66/66 70/70/70
f 72/72/72 67/67/67 68/68/68
f 67/67/67 72/72/72 69/69/69
f 73/73/73 72/72/72 68/68/68
f 74/74/74 70/70/70 69/69/69
f 69/69/69 72/72/72 74/74/74
f 75/75/75 71/71/71 70/70/70
f 75/75/75 70/70/70 74/74/74
f 76/76/76 71/71/71 75/75/75
f 77/77/77 72/72/72 73/73/73
f 72/72/72 77/77/77 74/74/74
f 78/78/78 77/77/77 73/73/73
f 79/79/79 75/75/75 74/74/74
f 74/74/74 77/77/77 79/79/79
f 80/80/80 76/76/76 75/75/75
f 80/80/80 75/75/75 79/79/79
f 81/81/81 76/76/76 80/80/80
f 82/82/82 77/77/77 78/78/78
f 77/77/77 82/82/82 79/79/79
f 83/83/83 82/82/82 78/78/78
f 84/84/84 80/80/80 79/79/79
f 79/79/79 82/82/82 84/84/84
f 85/85/85 81/81/81 80/80/80
f 85/85/85 80/80/80 84/84/84
f 86/86/86 81/81/81 85/85/85
f 87/87/87 82/82/82 83/83/83
f 82/82/82 87/87/87 84/84/84
f 88/88/88 87/87/87 83/83/83
f 89/89/89 85/85/85 84/84/84
f 84/84/84 87/87/87 89/89/89
f 90/90/90 86/86/86 85/85/85
f 90/90/90 85/85/85 89/89/89
f 91/91/91 86/86/86 90/90/90
f 92/92/92 87/87/87 88/88/88
f 87/87/87 92/92/92 89/89/89
f 93/93/93 92/92/92 88/88/88
f 94/94/94 90/90/90 89/89/89
f 89/89/89 92/92/92 94/94/94
f 95/95/95 91/91/91 90/90/90
f 95/95/95 90/90/90 94/94/94
f 96/96/96 91/91/91 95/95/95
f 97/97/97 92/92/92 93/93/93
f 92/92/92 97/97/97 94/94/94
f 98/98/98 97/97/97 93/93/93
f 99/99/99 95/95/95 94/94/94
f 94/94/94 97/97/97 99/99/99
f 100/100/100 96/96/96 95/95/95
f 100/100/100 95/95/95 99/99/99
f 101/101/101 96/96/96 100/100/100
f 102/102/102 97/97/97 98/98/98
f 97/97/97 102/102/102 99/99/99
f 103/103/103 102/102/102 98/98/98
f 104/104/104 100/100/100 99/99/99
f 99/99/99 102/102/102 104/104/104
f 105/105/105 101/101/101 100/100/100
f 105/105/105 100/100/100 104/104/104
f 106/106/106 101/101/101 105/105/105
f 107/107/107 102/102/102 103/103/103
f 102/102/102 107/107/107 104/104/104
f 108/108/108 107/107/107 103/103/103
f 109/109/109 105/105/105 104/104/104
f 104/104/104 107/107/107 109/109/109
f 110/110/110 106/106/106 105/105/105
f 110/110/110 105/105/105 109/109/109
f 111/111/111 106/106/106 110/110/110
f 112/112/112 107/107/107 108/108/108
f 107/107/107 112/112/112 109/109/109
f 113/113/113 112/112/112 108/108/108
f 114/114/114 110/110/110 109/109/109
f 109/109/109 112/112/112 114/114/114
f 115/115/115 111/111/111 110/110/110
f 115/115/115 110/110/110 114/114/114
f 116/116/116 111/111/111 115/115/115
f 117/117/117 112/112/112 113/113/113
f 112/112/112 117/117/117 114/114/114
f 118/118/118 117/117/117 113/113/113
f 119/119/119 117/117/117 118/118/118
f 114/114/114 117/117/117 119/119/119
f 120/120/120 119/119/119 118/118/118
f 121/121/121 115/115/115 114/114/114
f 121/121/121 114/114/114 119/119/119
f 122/122/122 116/116/116 115/115/115
f 122/122/122 115/115/115 121/121/121
f 123/123/123 116/116/116 122/122/122
f 124/124/124 119/119/119 120/120/120
f 125/125/125 124/124/124 120/120/120
f 121/121/121 119/119/119 126/126/126
f 126/126/126 122/122/122 121/121/121
f 119/119/119 124/124/124 126/126/126
f 127/127/127 123/123/123 122/122/122
f 127/127/127 122/122/122 126/126/126
f 128/128/128 123/123/123 127/127/127
f 129/129/129 124/124/124 125/125/125
f 130/130/130 129/129/129 125/125/125
f 126/126/126 124/124/124 131/131/131
f 131/131/131 127/127/127 126/126/126
f 124/124/124 129/129/129 131/131/131
f 132/132/132 128/128/128 127/127/127
f 132/132/132 127/127/127 131/131/131
f 133/133/133 128/128/128 132/132/132
f 134/134/134 129/129/129 130/130/130
f 135/135/135 134/134/134 130/130/130
f 131/131/131 129/129/129 136/136/136
f 136/136/136 132/132/132 131/131/131
f 129/129/129 134/134/134 136/136/136
f 137/137/137 133/133/133 132/132/132
f 137/137/137 132/132/132 136/136/136
f 138/138/138 133/133/133 137/137/137
f 139/139/139 134/134/134 135/135/135
f 140/140/140 139/139/139 135/135/135
f 136/136/136 134/134/134 141/141/141
f 141/141/141 137/137/137 136/136/136
f 134/134/134 139/139/139 141/141/141
f 142/142/142 138/138/138 137/137/137
f 142/142/142 137/137/137 141/141/141
f 143/143/143 138/138/138 142/142/142
f 144/144/144 139/139/139 140/140/140
f 145/145/145 144/144/144 140/140/140
f 141/141/141 139/139/139 146/146/146
f 146/146/146 142/142/142 141/141/141
f 139/139/139 144/144/144 146/146/146
f 147/147/147 143/143/143 142/142/142
f 147/147/147 142/142/142 146/146/146
f 148/148/148 143/143/143 147/147/147
f 149/149/149 148/148/148 147/147/147
f 150/150/150 147/147/147 146/146/146
f 149/149/149 147/147/147 150/150/150
f 146/146/146 144/144/144 150/150/150
f 151/151/151 149/149/149 150/150/150
f 152/152/152 144/144/144 145/145/145
f 144/144/144 152/152/152 150/150/150
f 150/150/150 152/152/152 151/151/151
f 153/153/153 152/152/152 145/145/145
f 152/152/152 154/154/154 151/151/151
f 154/154/154 152/152/152 153/153/153
f 155/155/155 154/154/154 153/153/153
