g Cylinder001
v 9.68933094E-08 0.585716069 -0.0339481086
v -0.15243493 0.864502847 -0.0226320606
v -0.101708323 0.576817811 -0.0339481086
v 1.45339968E-07 0.877839208 -0.0226320606
v -0.203161582 1.15218794 -0.0113160126
v 0.10170871 0.576817989 -0.0339481086
v 2.42233284E-07 1.16996241 -0.0113160126
v -0.25388819 1.4398731 3.63349919E-08
v 2.90679935E-07 1.4620856 3.63349919E-08
v 0.152435392 0.864503026 -0.0226320606
v 0.20032692 0.550393224 -0.0339481086
v 0.203162089 1.15218806 -0.0113160126
v 0.253888756 1.4398731 3.63349919E-08
v 0.300238907 0.824899077 -0.0226320606
v 0.292858273 0.507245302 -0.0339481086
v 0.400150895 1.09940493 -0.0113160247
v 0.500062883 1.37391078 2.42233273E-08
v 0.438919902 0.760231376 -0.0226320606
v 0.376491368 0.448684722 -0.0339481086
v 0.584981561 1.01321745 -0.0113160126
v 0.73104316 1.2662034 2.42233273E-08
v 0.564264476 0.672464073 -0.0226320606
v 0.448684812 0.37649107 -0.0339481346
v 0.752037644 0.896243453 -0.0113160247
v 0.939810812 1.12002277 2.42233273E-08
v 0.672464252 0.564264178 -0.0226320848
v 0.507245362 0.292858183 -0.0339481346
v 0.896243632 0.752037346 -0.0113160368
v 1.12002313 0.939810574 1.21116637E-08
v 0.760231495 0.438919812 -0.0226320848
v 0.550393522 0.200326622 -0.0339481197
v 1.01321757 0.584981441 -0.0113160368
v 1.26620376 0.731043041 1.21116637E-08
v 0.824899614 0.300238639 -0.0226320848
v 0.576818287 0.10170842 -0.0339481197
v 1.09940565 0.400150657 -0.0113160368
v 1.37391162 0.500062585 0
v 0.864503443 0.152435124 -0.0226320848
v 0.585716546 -9.68933094E-08 -0.0339481197
v 1.15218854 0.203161821 -0.0113160489
v 1.4398737 0.253888458 -1.21116637E-08
v 0.877839625 -9.68933094E-08 -0.0226320848
v 0.57681787 -0.101709001 -0.0339481197
v 1.16996264 -9.68933094E-08 -0.0113160489
v 1.46208572 -9.68933094E-08 -1.21116637E-08
v 0.864503026 -0.152435943 -0.0226320848
v 0.550393522 -0.200327203 -0.0339481458
v 1.15218818 -0.203162894 -0.011316061
v 1.43987334 -0.253889829 -2.42233273E-08
v 0.824899375 -0.300239384 -0.022632109
v 0.507245004 -0.292858392 -0.0339481458
v 1.09940517 -0.400151551 -0.0113160731
v 1.37391102 -0.500063777 -3.63349919E-08
v 0.760231018 -0.4389202 -0.022632109
v 0.448684812 -0.376491845 -0.0339481458
v 1.01321697 -0.584982038 -0.0113160852
v 1.26620317 -0.731043816 -4.84466547E-08
v 0.672464013 -0.564264894 -0.022632122
v 0.37649098 -0.448684901 -0.033948157
v 0.896243155 -0.752038002 -0.0113160852
v 1.1200223 -0.93981111 -6.0558321E-08
v 0.564263999 -0.672464371 -0.022632122
v 0.292857885 -0.507245302 -0.033948157
v 0.752037108 -0.896243751 -0.0113160852
v 0.939810038 -1.12002325 -6.0558321E-08
v 0.438919336 -0.760231495 -0.022632122
v 0.200326532 -0.550393462 -0.033948157
v 0.584980786 -1.01321757 -0.0113160852
v 0.731042206 -1.26620376 -6.0558321E-08
v 0.30023846 -0.824899435 -0.022632122
v 0.101708516 -0.576817989 -0.033948157
v 0.400150388 -1.09940553 -0.0113160852
v 0.500062287 -1.3739115 -6.0558321E-08
v 0.152435005 -0.864503145 -0.022632122
v -0 -0.585716248 -0.033948157
v 0.203161508 -1.1521883 -0.0113160973
v 0.253887981 -1.43987346 -6.0558321E-08
v -1.45339968E-07 -0.877839446 -0.022632122
v -0.101708613 -0.576817811 -0.033948157
v -3.39126586E-07 -1.16996253 -0.0113160973
v -4.84466568E-07 -1.4620856 -6.0558321E-08
v -0.152435362 -0.864502847 -0.022632122
v -0.20032692 -0.550393224 -0.033948157
v -0.203162119 -1.15218794 -0.0113160973
v -0.253888845 -1.4398731 -6.0558321E-08
v -0.300239027 -0.824899077 -0.022632122
v -0.292858273 -0.507245123 -0.033948157
v -0.400151163 -1.09940493 -0.0113160973
v -0.500063181 -1.37391078 -6.0558321E-08
v -0.438919902 -0.760231078 -0.022632122
v -0.376491368 -0.448684514 -0.033948157
v -0.58498162 -1.01321709 -0.0113160973
v -0.731043279 -1.26620317 -6.0558321E-08
v -0.564264476 -0.672463775 -0.022632122
v -0.448684812 -0.37649107 -0.0339481458
v -0.752037585 -0.896242976 -0.0113160973
v -0.939810812 -1.12002218 -6.0558321E-08
v -0.672464192 -0.564263999 -0.022632122
v -0.507245302 -0.292858183 -0.0339481458
v -0.896243513 -0.752036989 -0.0113160852
v -1.12002301 -0.939809978 -6.0558321E-08
v -0.760231376 -0.438919514 -0.022632109
v -0.550393343 -0.200326622 -0.0339481458
v -1.01321745 -0.584980905 -0.0113160852
v -1.26620376 -0.731042266 -4.84466547E-08
v -0.824899435 -0.30023849 -0.022632109
v -0.57681787 -0.101708226 -0.0339481346
v -1.09940541 -0.400150388 -0.0113160731
v -1.3739115 -0.500062227 -3.63349919E-08
v -0.864503145 -0.152434856 -0.0226320978
v -0.585716069 9.68933094E-08 -0.0339481197
v -1.15218842 -0.203161478 -0.011316061
v -1.43987358 -0.253888071 -2.42233273E-08
v -0.877839327 2.90679935E-07 -0.0226320848
v -0.576817811 0.101708613 -0.0339481197
v -1.16996253 4.84466568E-07 -0.0113160489
v -1.46208572 6.78253173E-07 -1.21116637E-08
v -0.864502966 0.152435407 -0.0226320848
v -0.550392926 0.200326622 -0.0339481197
v -1.15218818 0.203162253 -0.0113160489
v -1.4398731 0.253889054 -1.21116637E-08
v -0.824898958 0.300238848 -0.0226320736
v -0.507244885 0.292858183 -0.0339481346
v -1.09940493 0.400151044 -0.0113160368
v -1.3739109 0.500063181 1.21116637E-08
v -0.760231018 0.438919812 -0.0226320848
v -0.448684335 0.37649107 -0.0339481346
v -1.01321721 0.584981441 -0.0113160368
v -1.26620328 0.731043041 1.21116637E-08
v -0.672463715 0.564264297 -0.0226320848
v -0.376490772 0.448684722 -0.0339481086
v -0.896242976 0.752037406 -0.0113160368
v -1.1200223 0.939810574 1.21116637E-08
v -0.564263999 0.672464013 -0.0226320606
v -0.292857796 0.507245481 -0.0339481086
v -0.752037227 0.896243274 -0.0113160247
v -0.939810455 1.12002242 2.42233273E-08
v -0.438919336 0.760231495 -0.0226320606
v -0.200326532 0.550393641 -0.0339481086
v -0.584980965 1.01321745 -0.0113160126
v -0.731042504 1.2662034 2.42233273E-08
v -0.30023849 0.824899375 -0.0226320606
v -0.101708323 0.576817811 -0.0339481086
v -0.15243493 0.864502847 -0.0226320606
v -0.400150478 1.09940505 -0.0113160126
v -0.500062466 1.37391078 3.63349919E-08
v -0.203161582 1.15218794 -0.0113160126
v -0.25388819 1.4398731 3.63349919E-08
v 2.90679935E-07 1.4620856 3.63349919E-08
v -0.203161582 1.15218794 0.0113160852
v -0.25388819 1.4398731 3.63349919E-08
v 2.42233284E-07 1.16996253 0.011316061
v -0.15243493 0.864502966 0.022632109
v 0.253888756 1.4398731 3.63349919E-08
v 1.45339968E-07 0.877839506 0.022632109
v -0.101708323 0.576817811 0.033948157
v 9.68933094E-08 0.585716486 0.0339481346
v 0.203162134 1.15218806 0.011316061
v 0.500062883 1.37391078 2.42233273E-08
v 0.152435511 0.864502966 0.022632109
v 0.101708904 0.576817989 0.0339481346
v 0.400150895 1.09940493 0.011316061
v 0.73104316 1.2662034 2.42233273E-08
v 0.300238878 0.824899137 0.0226320848
v 0.20032692 0.550393224 0.0339481346
v 0.584981561 1.01321733 0.011316061
v 0.939810812 1.12002277 2.42233273E-08
v 0.438919902 0.760231197 0.022632109
v 0.292858273 0.507245302 0.0339481346
v 0.752037704 0.896243453 0.011316061
v 1.12002313 0.939810574 1.21116637E-08
v 0.564264536 0.672464073 0.022632109
v 0.376491368 0.448684722 0.033948157
v 0.896243751 0.752037406 0.011316061
v 1.26620376 0.731043041 1.21116637E-08
v 0.672464252 0.564264297 0.0226320848
v 0.448684812 0.37649107 0.0339481346
v 1.01321757 0.584981441 0.011316061
v 1.37391162 0.500062585 0
v 0.760231435 0.438919812 0.022632109
v 0.507245362 0.292858183 0.033948157
v 1.09940565 0.400150657 0.0113160368
v 1.4398737 0.253888458 -1.21116637E-08
v 0.824899614 0.300238758 0.0226320848
v 0.550393522 0.200326815 0.0339481346
v 1.15218854 0.203161821 0.0113160368
v 1.46208572 -9.68933094E-08 -1.21116637E-08
v 0.864503443 0.152435213 0.0226320848
v 0.576818287 0.101708613 0.0339481346
v 1.16996264 -9.68933094E-08 0.0113160368
v 1.43987334 -0.253889829 -2.42233273E-08
v 0.877839625 -9.68933094E-08 0.0226320848
v 0.585716546 -9.68933094E-08 0.0339481346
v 1.1521883 -0.203162894 0.0113160126
v 1.37391102 -0.500063777 -3.63349919E-08
v 0.864503205 -0.152435943 0.0226320606
v 0.576818287 -0.101709001 0.0339481086
v 1.09940529 -0.400151581 0.0113160126
v 1.26620317 -0.731043816 -4.84466547E-08
v 0.824899435 -0.300239414 0.0226320606
v 0.550393522 -0.200327203 0.0339481086
v 1.01321709 -0.584982038 0.0113160126
v 1.1200223 -0.93981111 -6.0558321E-08
v 0.760231078 -0.4389202 0.0226320606
v 0.507245004 -0.292858392 0.0339481086
v 0.896243036 -0.752037883 0.0113159884
v 0.939810038 -1.12002325 -6.0558321E-08
v 0.672463834 -0.564264655 0.0226320606
v 0.448684633 -0.376491457 0.0339481086
v 0.752037048 -0.896243751 0.0113159884
v 0.731042206 -1.26620376 -6.0558321E-08
v 0.56426394 -0.672464311 0.0226320606
v 0.37649098 -0.448684901 0.0339481086
v 0.584980726 -1.01321757 0.0113159884
v 0.500062287 -1.3739115 -6.0558321E-08
v 0.438919216 -0.760231495 0.0226320606
v 0.292857707 -0.507245302 0.0339481086
v 0.400150388 -1.09940541 0.0113159884
v 0.253887981 -1.43987346 -6.0558321E-08
v 0.30023846 -0.824899256 0.0226320606
v 0.200326532 -0.550393224 0.0339481086
v 0.203161508 -1.15218818 0.0113159884
v -4.84466568E-07 -1.4620856 -6.0558321E-08
v 0.15243502 -0.864503026 0.0226320606
v 0.101708516 -0.576817811 0.0339481086
v -3.39126586E-07 -1.16996253 0.0113159884
v -0.253888845 -1.4398731 -6.0558321E-08
v -1.45339968E-07 -0.877839446 0.0226320606
v -0 -0.585716248 0.0339481086
v -0.203162163 -1.15218794 0.0113159884
v -0.500063181 -1.37391078 -6.0558321E-08
v -0.152435407 -0.864502847 0.0226320606
v -0.10170871 -0.576817811 0.0339481086
v -0.400151044 -1.09940493 0.0113159884
v -0.731043279 -1.26620317 -6.0558321E-08
v -0.300238997 -0.824898958 0.0226320606
v -0.20032692 -0.550393045 0.0339481086
v -0.58498162 -1.01321709 0.0113159884
v -0.939810812 -1.12002218 -6.0558321E-08
v -0.438919902 -0.760231078 0.0226320606
v -0.292858273 -0.507245123 0.0339481086
v -0.752037704 -0.896242976 0.0113159884
v -1.12002301 -0.939809978 -6.0558321E-08
v -0.564264596 -0.672463715 0.0226320606
v -0.376491368 -0.448684514 0.0339481086
v -0.896243513 -0.752036989 0.0113159884
v -1.26620376 -0.731042266 -4.84466547E-08
v -0.672464192 -0.564263999 0.0226320606
v -0.448684722 -0.37649107 0.0339481086
v -1.01321757 -0.584980845 0.0113160126
v -1.3739115 -0.500062227 -3.63349919E-08
v -0.760231495 -0.438919425 0.0226320606
v -0.507245302 -0.292858005 0.0339481086
v -1.09940541 -0.400150329 0.0113160126
v -1.43987358 -0.253888071 -2.42233273E-08
v -0.824899375 -0.30023846 0.0226320606
v -0.550393343 -0.200326622 0.0339481086
v -1.15218842 -0.203161463 0.0113160126
v -1.46208572 6.78253173E-07 -1.21116637E-08
v -0.864503026 -0.152434826 0.0226320606
v -0.57681787 -0.101708226 0.0339481086
v -1.16996253 4.84466568E-07 0.0113160368
v -1.4398731 0.253889054 -1.21116637E-08
v -0.877839446 2.90679935E-07 0.0226320848
v -0.585716188 9.68933094E-08 0.0339481346
v -1.15218794 0.203162253 0.0113160368
v -1.3739109 0.500063181 1.21116637E-08
v -0.864502847 0.152435407 0.0226320848
v -0.576817811 0.101708613 0.0339481346
v -1.09940493 0.400151044 0.011316061
v -1.26620328 0.731043041 1.21116637E-08
v -0.824898958 0.300238937 0.0226320848
v -0.550393045 0.200326815 0.0339481346
v -1.01321721 0.584981441 0.011316061
v -1.1200223 0.939810574 1.21116637E-08
v -0.760231078 0.438919812 0.0226320848
v -0.507245004 0.292858183 0.0339481346
v -0.896242976 0.752037346 0.011316061
v -0.939810455 1.12002242 2.42233273E-08
v -0.672463596 0.564264178 0.0226320848
v -0.448684335 0.37649107 0.0339481346
v -0.752037346 0.896243274 0.011316061
v -0.731042504 1.2662034 2.42233273E-08
v -0.564264178 0.672464073 0.022632109
v -0.37649098 0.448684901 0.033948157
v -0.584980965 1.01321733 0.011316061
v -0.500062466 1.37391078 3.63349919E-08
v -0.438919336 0.760231316 0.022632109
v -0.292857796 0.507245302 0.0339481346
v -0.400150478 1.09940493 0.011316061
v -0.25388819 1.4398731 3.63349919E-08
v -0.203161582 1.15218794 0.0113160852
v -0.30023846 0.824899137 0.022632109
v -0.200326428 0.550393224 0.0339481346
v -0.15243493 0.864502966 0.022632109
v -0.101708323 0.576817811 0.033948157
vt 0.0390138626 0.00601364858
vt 0.0116128325 0.335085183
vt 0.0116128325 0.00601364858
vt 0.0390138626 0.335085183
vt 0.0116128325 0.664156735
vt 0.0664148927 0.00601364858
vt 0.0390138626 0.664156735
vt 0.0116128325 0.993228197
vt 0.0390138626 0.993228197
vt 0.0664148927 0.335085183
vt 0.0938159227 0.00601364858
vt 0.0664148927 0.664156735
vt 0.0664148927 0.993228197
vt 0.0938159227 0.335085183
vt 0.121216893 0.00601364858
vt 0.0938159227 0.664156735
vt 0.0938159227 0.993228197
vt 0.121216893 0.335085183
vt 0.148617983 0.00601364858
vt 0.121216893 0.664156735
vt 0.121216893 0.993228197
vt 0.148617983 0.335085183
vt 0.176019013 0.00601364858
vt 0.148617983 0.664156735
vt 0.148617983 0.993228197
vt 0.176019013 0.335085183
vt 0.203419983 0.00601364858
vt 0.176019013 0.664156735
vt 0.176019013 0.993228197
vt 0.203419983 0.335085183
vt 0.230821073 0.00601364858
vt 0.203419983 0.664156735
vt 0.203419983 0.993228197
vt 0.230821073 0.335085183
vt 0.258222103 0.00601364858
vt 0.230821073 0.664156735
vt 0.230821073 0.993228197
vt 0.258222103 0.335085183
vt 0.285623133 0.00601364858
vt 0.258222103 0.664156735
vt 0.258222103 0.993228197
vt 0.285623133 0.335085183
vt 0.313024163 0.00601364858
vt 0.285623133 0.664156735
vt 0.285623133 0.993228197
vt 0.313024163 0.335085183
vt 0.340425253 0.00601364858
vt 0.313024163 0.664156735
vt 0.313024163 0.993228197
vt 0.340425253 0.335085183
vt 0.367826283 0.00601364858
vt 0.340425253 0.664156735
vt 0.340425253 0.993228197
vt 0.367826283 0.335085183
vt 0.395227253 0.00601364858
vt 0.367826283 0.664156735
vt 0.367826283 0.993228197
vt 0.395227253 0.335085183
vt 0.422628403 0.00601364858
vt 0.395227253 0.664156735
vt 0.395227253 0.993228197
vt 0.422628403 0.335085183
vt 0.450029314 0.00601364858
vt 0.422628403 0.664156735
vt 0.422628403 0.993228197
vt 0.450029314 0.335085183
vt 0.477430344 0.00601364858
vt 0.450029314 0.664156735
vt 0.450029314 0.993228197
vt 0.477430344 0.335085183
vt 0.504831433 0.00601364858
vt 0.477430344 0.664156735
vt 0.477430344 0.993228197
vt 0.504831433 0.335085183
vt 0.532232404 0.00601364858
vt 0.504831433 0.664156735
vt 0.504831433 0.993228197
vt 0.532232404 0.335085183
vt 0.559633493 0.00601364858
vt 0.532232404 0.664156735
vt 0.532232404 0.993228197
vt 0.559633493 0.335085183
vt 0.587034464 0.00601364858
vt 0.559633493 0.664156735
vt 0.559633493 0.993228197
vt 0.587034464 0.335085183
vt 0.614435554 0.00601364858
vt 0.587034464 0.664156735
vt 0.587034464 0.993228197
vt 0.614435554 0.335085183
vt 0.641836524 0.00601364858
vt 0.614435554 0.664156735
vt 0.614435554 0.993228197
vt 0.641836524 0.335085183
vt 0.669237614 0.00601364858
vt 0.641836524 0.664156735
vt 0.641836524 0.993228197
vt 0.669237614 0.335085183
vt 0.696638584 0.00601364858
vt 0.669237614 0.664156735
vt 0.669237614 0.993228197
vt 0.696638584 0.335085183
vt 0.724039674 0.00601364858
vt 0.696638584 0.664156735
vt 0.696638584 0.993228197
vt 0.724039674 0.335085183
vt 0.751440644 0.00601364858
vt 0.724039674 0.664156735
vt 0.724039674 0.993228197
vt 0.751440644 0.335085183
vt 0.778841734 0.00601364858
vt 0.751440644 0.664156735
vt 0.751440644 0.993228197
vt 0.778841734 0.335085183
vt 0.806242704 0.00601364858
vt 0.778841734 0.664156735
vt 0.778841734 0.993228197
vt 0.806242704 0.335085183
vt 0.833643794 0.00601364858
vt 0.806242704 0.664156735
vt 0.806242704 0.993228197
vt 0.833643794 0.335085183
vt 0.861044765 0.00601364858
vt 0.833643794 0.664156735
vt 0.833643794 0.993228197
vt 0.861044765 0.335085183
vt 0.888445795 0.00601364858
vt 0.861044765 0.664156735
vt 0.861044765 0.993228197
vt 0.888445795 0.335085183
vt 0.915846825 0.00601364858
vt 0.888445795 0.664156735
vt 0.888445795 0.993228197
vt 0.915846825 0.335085183
vt 0.943247855 0.00601364858
vt 0.915846825 0.664156735
vt 0.915846825 0.993228197
vt 0.943247855 0.335085183
vt 0.970648885 0.00601364858
vt 0.943247855 0.664156735
vt 0.943247855 0.993228197
vt 0.970648885 0.335085183
vt 0.998049915 0.00601364858
vt 0.998049915 0.335085183
vt 0.970648885 0.664156735
vt 0.970648885 0.993228197
vt 0.998049915 0.664156735
vt 0.998049915 0.993228197
vt 0.0390138626 0.992352545
vt 0.0116128325 0.663280904
vt 0.0116128325 0.992352545
vt 0.0390138626 0.663280904
vt 0.0116128325 0.334209472
vt 0.0664148927 0.992352545
vt 0.0390138626 0.334209472
vt 0.0116128325 0.00513782073
vt 0.0390138626 0.00513782073
vt 0.0664148927 0.663280904
vt 0.0938159227 0.992352545
vt 0.0664148927 0.334209472
vt 0.0664148927 0.00513782073
vt 0.0938159227 0.663280904
vt 0.121216893 0.992352545
vt 0.0938159227 0.334209472
vt 0.0938159227 0.00513782073
vt 0.121216893 0.663280904
vt 0.148617983 0.992352545
vt 0.121216893 0.334209472
vt 0.121216893 0.00513782073
vt 0.148617983 0.663280904
vt 0.176019013 0.992352545
vt 0.148617983 0.334209472
vt 0.148617983 0.00513782073
vt 0.176019013 0.663280904
vt 0.203419983 0.992352545
vt 0.176019013 0.334209472
vt 0.176019013 0.00513782073
vt 0.203419983 0.663280904
vt 0.230821073 0.992352545
vt 0.203419983 0.334209472
vt 0.203419983 0.00513782073
vt 0.230821073 0.663280904
vt 0.258222103 0.992352545
vt 0.230821073 0.334209472
vt 0.230821073 0.00513782073
vt 0.258222103 0.663280904
vt 0.285623133 0.992352545
vt 0.258222103 0.334209472
vt 0.258222103 0.00513782073
vt 0.285623133 0.663280904
vt 0.313024163 0.992352545
vt 0.285623133 0.334209472
vt 0.285623133 0.00513782073
vt 0.313024163 0.663280904
vt 0.340425253 0.992352545
vt 0.313024163 0.334209472
vt 0.313024163 0.00513782073
vt 0.340425253 0.663280904
vt 0.367826283 0.992352545
vt 0.340425253 0.334209472
vt 0.340425253 0.00513782073
vt 0.367826283 0.663280904
vt 0.395227253 0.992352545
vt 0.367826283 0.334209472
vt 0.367826283 0.00513782073
vt 0.395227253 0.663280904
vt 0.422628403 0.992352545
vt 0.395227253 0.334209472
vt 0.395227253 0.00513782073
vt 0.422628403 0.663280904
vt 0.450029314 0.992352545
vt 0.422628403 0.334209472
vt 0.422628403 0.00513782073
vt 0.450029314 0.663280904
vt 0.477430344 0.992352545
vt 0.450029314 0.334209472
vt 0.450029314 0.00513782073
vt 0.477430344 0.663280904
vt 0.504831433 0.992352545
vt 0.477430344 0.334209472
vt 0.477430344 0.00513782073
vt 0.504831433 0.663280904
vt 0.532232404 0.992352545
vt 0.504831433 0.334209472
vt 0.504831433 0.00513782073
vt 0.532232404 0.663280904
vt 0.559633493 0.992352545
vt 0.532232404 0.334209472
vt 0.532232404 0.00513782073
vt 0.559633493 0.663280904
vt 0.587034464 0.992352545
vt 0.559633493 0.334209472
vt 0.559633493 0.00513782073
vt 0.587034464 0.663280904
vt 0.614435554 0.992352545
vt 0.587034464 0.334209472
vt 0.587034464 0.00513782073
vt 0.614435554 0.663280904
vt 0.641836524 0.992352545
vt 0.614435554 0.334209472
vt 0.614435554 0.00513782073
vt 0.641836524 0.663280904
vt 0.669237614 0.992352545
vt 0.641836524 0.334209472
vt 0.641836524 0.00513782073
vt 0.669237614 0.663280904
vt 0.696638584 0.992352545
vt 0.669237614 0.334209472
vt 0.669237614 0.00513782073
vt 0.696638584 0.663280904
vt 0.724039674 0.992352545
vt 0.696638584 0.334209472
vt 0.696638584 0.00513782073
vt 0.724039674 0.663280904
vt 0.751440644 0.992352545
vt 0.724039674 0.334209472
vt 0.724039674 0.00513782073
vt 0.751440644 0.663280904
vt 0.778841734 0.992352545
vt 0.751440644 0.334209472
vt 0.751440644 0.00513782073
vt 0.778841734 0.663280904
vt 0.806242704 0.992352545
vt 0.778841734 0.334209472
vt 0.778841734 0.00513782073
vt 0.806242704 0.663280904
vt 0.833643794 0.992352545
vt 0.806242704 0.334209472
vt 0.806242704 0.00513782073
vt 0.833643794 0.663280904
vt 0.861044765 0.992352545
vt 0.833643794 0.334209472
vt 0.833643794 0.00513782073
vt 0.861044765 0.663280904
vt 0.888445795 0.992352545
vt 0.861044765 0.334209472
vt 0.861044765 0.00513782073
vt 0.888445795 0.663280904
vt 0.915846825 0.992352545
vt 0.888445795 0.334209472
vt 0.888445795 0.00513782073
vt 0.915846825 0.663280904
vt 0.943247855 0.992352545
vt 0.915846825 0.334209472
vt 0.915846825 0.00513782073
vt 0.943247855 0.663280904
vt 0.970648885 0.992352545
vt 0.943247855 0.334209472
vt 0.943247855 0.00513782073
vt 0.970648885 0.663280904
vt 0.998049915 0.992352545
vt 0.998049915 0.663280904
vt 0.970648885 0.334209472
vt 0.970648885 0.00513782073
vt 0.998049915 0.334209472
vt 0.998049915 0.00513782073
vn -0 0.0387082249 -0.999250472
vn -0.00672158273 0.0381201766 -0.999250472
vn -0.00672152871 0.038120199 -0.999250472
vn -0 0.0387082249 -0.999250472
vn -0.00672161346 0.038120158 -0.999250472
vn 0.00672158506 0.0381201506 -0.999250472
vn -0 0.0387082063 -0.999250472
vn -0.00672162883 0.0381201468 -0.999250472
vn -0 0.03870821 -0.999250472
vn 0.00672161533 0.0381201617 -0.999250472
vn 0.013238986 0.0363738462 -0.999250472
vn 0.00672160927 0.0381201617 -0.999250472
vn 0.00672161719 0.0381201729 -0.999250472
vn 0.0132389646 0.0363738425 -0.999250472
vn 0.0193540901 0.0335223079 -0.999250472
vn 0.0132389572 0.0363738388 -0.999250472
vn 0.0132389497 0.0363738388 -0.999250472
vn 0.0193540789 0.0335223004 -0.999250472
vn 0.0248810947 0.0296522602 -0.999250472
vn 0.019354064 0.0335223041 -0.999250472
vn 0.019354064 0.0335223041 -0.999250472
vn 0.0248811021 0.0296522398 -0.999250472
vn 0.029652128 0.02488124 -0.999250472
vn 0.0248811152 0.0296522249 -0.999250472
vn 0.0248811338 0.0296522249 -0.999250472
vn 0.0296521522 0.0248812083 -0.999250472
vn 0.0335223041 0.0193540733 -0.999250472
vn 0.0296521764 0.0248811841 -0.999250472
vn 0.029652182 0.0248811767 -0.999250472
vn 0.0335222743 0.0193541106 -0.999250472
vn 0.036373809 0.0132389516 -0.999250472
vn 0.0335222855 0.0193541143 -0.999250472
vn 0.0335222855 0.0193541199 -0.999250472
vn 0.0363738015 0.0132389804 -0.999250472
vn 0.0381201021 0.00672160368 -0.999250472
vn 0.0363737904 0.0132390102 -0.999250472
vn 0.0363737755 0.0132390177 -0.999250472
vn 0.0381201208 0.00672158552 -0.999250472
vn 0.0387081839 0 -0.999250472
vn 0.0381201059 0.00672159903 -0.999250472
vn 0.038120117 0.0067215967 -0.999250472
vn 0.0387081914 0 -0.999250472
vn 0.0381201468 -0.00672147563 -0.999250472
vn 0.0387081802 0 -0.999250472
vn 0.0387081839 0 -0.999250472
vn 0.0381201208 -0.00672150776 -0.999250472
vn 0.0363737904 -0.0132389152 -0.999250472
vn 0.0381201059 -0.00672153803 -0.999250472
vn 0.0381201096 -0.00672155665 -0.999250472
vn 0.0363737866 -0.0132389395 -0.999250472
vn 0.0335222781 -0.0193540752 -0.999250472
vn 0.0363737866 -0.0132389497 -0.999250472
vn 0.0363737978 -0.0132389562 -0.999250472
vn 0.0335222632 -0.0193540491 -0.999250472
vn 0.029652182 -0.0248810854 -0.999250472
vn 0.0335222557 -0.0193540677 -0.999250472
vn 0.0335222557 -0.0193540696 -0.999250472
vn 0.0296521764 -0.0248811189 -0.999250472
vn 0.0248810779 -0.0296522211 -0.999250472
vn 0.0296521578 -0.0248811506 -0.999250472
vn 0.0296521522 -0.0248811264 -0.999250472
vn 0.0248810928 -0.0296522249 -0.999250472
vn 0.0193540808 -0.0335222669 -0.999250472
vn 0.0248810947 -0.0296521857 -0.999250472
vn 0.0248810928 -0.0296521708 -0.999250472
vn 0.0193540752 -0.0335222706 -0.999250472
vn 0.0132389711 -0.0363737866 -0.999250472
vn 0.0193540659 -0.033522252 -0.999250472
vn 0.0193540547 -0.0335222371 -0.999250472
vn 0.0132389618 -0.0363737866 -0.999250472
vn 0.0067215818 -0.0381201133 -0.999250472
vn 0.0132389711 -0.0363737568 -0.999250472
vn 0.0132389572 -0.0363737643 -0.999250472
vn 0.00672158087 -0.0381201059 -0.999250472
vn -0 -0.0387081727 -0.999250472
vn 0.00672159251 -0.0381200872 -0.999250472
vn 0.00672157668 -0.038120117 -0.999250472
vn -0 -0.0387081616 -0.999250472
vn -0.00672160229 -0.038120117 -0.999250472
vn -0 -0.0387081578 -0.999250472
vn -0 -0.0387081802 -0.999250472
vn -0.00672160974 -0.0381200947 -0.999250472
vn -0.0132389637 -0.0363738015 -0.999250472
vn -0.00672161533 -0.0381200947 -0.999250472
vn -0.00672162324 -0.0381201133 -0.999250472
vn -0.0132389637 -0.0363737755 -0.999250472
vn -0.019354105 -0.0335222557 -0.999250472
vn -0.0132389665 -0.0363737755 -0.999250472
vn -0.0132389804 -0.0363738015 -0.999250472
vn -0.019354092 -0.0335222371 -0.999250472
vn -0.0248811971 -0.0296521466 -0.999250472
vn -0.0193540957 -0.0335222445 -0.999250472
vn -0.0193540975 -0.0335222594 -0.999250472
vn -0.0248811413 -0.0296521485 -0.999250472
vn -0.0296521913 -0.0248811115 -0.999250472
vn -0.0248811711 -0.0296521429 -0.999250472
vn -0.0248811506 -0.0296521522 -0.999250472
vn -0.0296522006 -0.0248810984 -0.999250472
vn -0.0335222706 -0.0193540659 -0.999250472
vn -0.0296521913 -0.024881104 -0.999250472
vn -0.0296521727 -0.0248810984 -0.999250472
vn -0.0335222632 -0.0193540622 -0.999250472
vn -0.0363738164 -0.0132388743 -0.999250472
vn -0.0335222594 -0.0193540584 -0.999250472
vn -0.0335222892 -0.0193540435 -0.999250472
vn -0.0363738015 -0.0132389059 -0.999250472
vn -0.0381201357 -0.00672143931 -0.999250472
vn -0.036373809 -0.0132389134 -0.999250472
vn -0.036373809 -0.0132389208 -0.999250472
vn -0.0381201208 -0.00672148727 -0.999250472
vn -0.0387081727 0 -0.999250472
vn -0.0381201245 -0.00672151381 -0.999250472
vn -0.038120117 -0.00672153104 -0.999250472
vn -0.0387081727 0 -0.999250472
vn -0.0381200947 0.00672164094 -0.999250472
vn -0.0387081653 0 -0.999250472
vn -0.0387081765 0 -0.999250472
vn -0.038120091 0.00672166422 -0.999250472
vn -0.0363738164 0.0132389497 -0.999250472
vn -0.0381200984 0.00672165584 -0.999250472
vn -0.0381201208 0.00672167959 -0.999250472
vn -0.0363737978 0.0132389879 -0.999250472
vn -0.0335223004 0.019354064 -0.999250472
vn -0.0363737904 0.0132390223 -0.999250472
vn -0.036373809 0.0132390345 -0.999250472
vn -0.0335222855 0.0193540808 -0.999250472
vn -0.0296521243 0.0248812567 -0.999250472
vn -0.0335222781 0.0193541273 -0.999250472
vn -0.0335222781 0.0193541199 -0.999250472
vn -0.0296521429 0.0248812363 -0.999250472
vn -0.0248811338 0.0296522491 -0.999250472
vn -0.0296521671 0.0248812046 -0.999250472
vn -0.0296521783 0.0248811971 -0.999250472
vn -0.0248811245 0.0296522342 -0.999250472
vn -0.0193541627 0.0335222706 -0.999250472
vn -0.0248811319 0.0296522286 -0.999250472
vn -0.0248811431 0.0296522304 -0.999250472
vn -0.0193541162 0.033522293 -0.999250472
vn -0.0132389152 0.036373876 -0.999250472
vn -0.0193540789 0.0335223116 -0.999250472
vn -0.0193540733 0.0335223041 -0.999250472
vn -0.0132389413 0.0363738686 -0.999250472
vn -0.00672152871 0.038120199 -0.999250472
vn -0.00672158273 0.0381201766 -0.999250472
vn -0.0132389469 0.0363738574 -0.999250472
vn -0.0132389516 0.0363738686 -0.999250472
vn -0.00672161346 0.038120158 -0.999250472
vn -0.00672162883 0.0381201468 -0.999250472
vn -0 0.0387081616 0.999250472
vn -0.00672163349 0.0381201133 0.999250472
vn -0.00672164373 0.0381201245 0.999250472
vn -0 0.0387081765 0.999250472
vn -0.00672162743 0.038120117 0.999250472
vn 0.00672164606 0.0381200872 0.999250472
vn -0 0.0387081951 0.999250472
vn -0.00672168424 0.0381201059 0.999250472
vn -0 0.0387081541 0.999250472
vn 0.00672163861 0.0381201245 0.999250472
vn 0.0132389721 0.0363738053 0.999250472
vn 0.00672169402 0.038120091 0.999250472
vn 0.00672167027 0.0381200984 0.999250472
vn 0.013238973 0.0363737978 0.999250472
vn 0.0193540584 0.0335222781 0.999250472
vn 0.0132389814 0.0363738015 0.999250472
vn 0.0132389665 0.0363738202 0.999250472
vn 0.0193540547 0.0335222855 0.999250472
vn 0.024881145 0.0296521708 0.999250472
vn 0.0193540137 0.0335223228 0.999250472
vn 0.0193540026 0.033522319 0.999250472
vn 0.0248811431 0.0296522006 0.999250472
vn 0.02965221 0.0248811394 0.999250472
vn 0.0248811711 0.0296521615 0.999250472
vn 0.024881158 0.029652182 0.999250472
vn 0.0296521969 0.0248811338 0.999250472
vn 0.0335223041 0.0193540864 0.999250472
vn 0.0296522062 0.0248811245 0.999250472
vn 0.0296522304 0.0248811524 0.999250472
vn 0.0335222855 0.019354064 0.999250472
vn 0.0363738202 0.0132389162 0.999250472
vn 0.0335222706 0.0193541218 0.999250472
vn 0.0335222557 0.0193541478 0.999250472
vn 0.0363738388 0.013238919 0.999250472
vn 0.0381201468 0.00672156271 0.999250472
vn 0.03637385 0.0132389162 0.999250472
vn 0.0363738649 0.0132388957 0.999250472
vn 0.038120158 0.00672158273 0.999250472
vn 0.0387082361 0 0.999250472
vn 0.0381201506 0.00672159484 0.999250472
vn 0.038120158 0.00672161439 0.999250472
vn 0.0387082249 0 0.999250472
vn 0.0381201208 -0.00672167633 0.999250472
vn 0.0387082249 0 0.999250472
vn 0.0387082174 0 0.999250472
vn 0.0381201319 -0.00672168471 0.999250472
vn 0.0363738053 -0.0132390466 0.999250472
vn 0.0381201506 -0.00672169775 0.999250472
vn 0.0381201394 -0.00672172429 0.999250472
vn 0.0363738239 -0.0132390242 0.999250472
vn 0.0335222892 -0.0193541944 0.999250472
vn 0.036373809 -0.0132390391 0.999250472
vn 0.0363737866 -0.0132390754 0.999250472
vn 0.0335222557 -0.0193542 0.999250472
vn 0.029652182 -0.0248812232 0.999250472
vn 0.0335222706 -0.0193541832 0.999250472
vn 0.0335222557 -0.0193541776 0.999250472
vn 0.029652182 -0.0248812437 0.999250472
vn 0.0248811431 -0.0296522304 0.999250472
vn 0.0296522286 -0.0248812083 0.999250472
vn 0.0296522155 -0.0248811673 0.999250472
vn 0.024881158 -0.0296522584 0.999250472
vn 0.019354092 -0.0335223041 0.999250472
vn 0.0248811636 -0.0296522751 0.999250472
vn 0.0248811115 -0.0296522491 0.999250472
vn 0.0193541106 -0.0335223377 0.999250472
vn 0.0132389683 -0.0363738276 0.999250472
vn 0.0193541031 -0.0335223489 0.999250472
vn 0.0193540603 -0.0335223153 0.999250472
vn 0.0132389758 -0.0363738574 0.999250472
vn 0.00672158087 -0.0381201468 0.999250472
vn 0.0132389758 -0.0363738686 0.999250472
vn 0.0132389665 -0.0363738202 0.999250472
vn 0.00672159484 -0.0381201878 0.999250472
vn -0 -0.0387082174 0.999250472
vn 0.00672160927 -0.0381201953 0.999250472
vn 0.00672162278 -0.038120158 0.999250472
vn -0 -0.0387082584 0.999250472
vn -0.00672163162 -0.0381201543 0.999250472
vn -0 -0.0387082621 0.999250472
vn -0 -0.0387082286 0.999250472
vn -0.00672164001 -0.0381201915 0.999250472
vn -0.0132389907 -0.0363738351 0.999250472
vn -0.00672164792 -0.0381201953 0.999250472
vn -0.00672164978 -0.0381201506 0.999250472
vn -0.0132390028 -0.0363738686 0.999250472
vn -0.0193541162 -0.0335223041 0.999250472
vn -0.0132390028 -0.0363738798 0.999250472
vn -0.013238986 -0.0363738351 0.999250472
vn -0.0193541311 -0.0335223339 0.999250472
vn -0.0248811822 -0.0296522062 0.999250472
vn -0.0193541273 -0.0335223377 0.999250472
vn -0.0193540957 -0.0335223079 0.999250472
vn -0.0248812083 -0.029652236 0.999250472
vn -0.0296522062 -0.0248811748 0.999250472
vn -0.0248812083 -0.0296522398 0.999250472
vn -0.0248811822 -0.0296522006 0.999250472
vn -0.0296522249 -0.0248812307 0.999250472
vn -0.0335222892 -0.0193541758 0.999250472
vn -0.0296522342 -0.0248811916 0.999250472
vn -0.0296522155 -0.0248811599 0.999250472
vn -0.033522293 -0.0193541721 0.999250472
vn -0.0363738202 -0.0132390177 0.999250472
vn -0.0335223041 -0.0193541031 0.999250472
vn -0.033522293 -0.0193541106 0.999250472
vn -0.0363738239 -0.0132389804 0.999250472
vn -0.038120117 -0.0067216279 0.999250472
vn -0.0363738351 -0.013238959 0.999250472
vn -0.0363738388 -0.0132389562 0.999250472
vn -0.0381201245 -0.00672163349 0.999250472
vn -0.0387081951 0 0.999250472
vn -0.0381201431 -0.00672166189 0.999250472
vn -0.0381201468 -0.00672168238 0.999250472
vn -0.03870821 0 0.999250472
vn -0.0381201468 0.00672158645 0.999250472
vn -0.0387082063 0 0.999250472
vn -0.0387082137 0 0.999250472
vn -0.038120158 0.00672157668 0.999250472
vn -0.0363738388 0.0132389376 0.999250472
vn -0.0381201357 0.0067216293 0.999250472
vn -0.038120158 0.00672163302 0.999250472
vn -0.0363738164 0.0132389273 0.999250472
vn -0.0335222818 0.0193541218 0.999250472
vn -0.0363737866 0.0132389711 0.999250472
vn -0.0363738202 0.0132389935 0.999250472
vn -0.0335222408 0.0193541106 0.999250472
vn -0.02965221 0.0248811617 0.999250472
vn -0.0335222371 0.0193541124 0.999250472
vn -0.0335222706 0.0193541404 0.999250472
vn -0.0296521727 0.0248811431 0.999250472
vn -0.0248811673 0.0296521764 0.999250472
vn -0.029652236 0.0248811096 0.999250472
vn -0.0296523124 0.0248810928 0.999250472
vn -0.0248811673 0.0296521764 0.999250472
vn -0.0193540882 0.0335222632 0.999250472
vn -0.0248812474 0.0296521485 0.999250472
vn -0.0248811953 0.0296521373 0.999250472
vn -0.0193540789 0.0335222892 0.999250472
vn -0.0132389693 0.0363737755 0.999250472
vn -0.0193540622 0.0335223079 0.999250472
vn -0.0193539187 0.033522319 0.999250472
vn -0.0132390046 0.0363738015 0.999250472
vn -0.00672164373 0.0381201245 0.999250472
vn -0.00672163349 0.0381201133 0.999250472
vn -0.0132389683 0.0363737866 0.999250472
vn -0.0132390149 0.0363737755 0.999250472
vn -0.00672162743 0.038120117 0.999250472
vn -0.00672168424 0.0381201059 0.999250472
g Cylinder001_0
f 3/3/3 2/2/2 1/1/1
f 4/4/4 1/1/1 2/2/2
f 2/2/2 5/5/5 4/4/4
f 1/1/1 4/4/4 6/6/6
f 7/7/7 4/4/4 5/5/5
f 5/5/5 8/8/8 7/7/7
f 9/9/9 7/7/7 8/8/8
f 10/10/10 6/6/6 4/4/4
f 4/4/4 7/7/7 10/10/10
f 6/6/6 10/10/10 11/11/11
f 7/7/7 9/9/9 12/12/12
f 12/12/12 10/10/10 7/7/7
f 13/13/13 12/12/12 9/9/9
f 14/14/14 11/11/11 10/10/10
f 10/10/10 12/12/12 14/14/14
f 11/11/11 14/14/14 15/15/15
f 12/12/12 13/13/13 16/16/16
f 16/16/16 14/14/14 12/12/12
f 17/17/17 16/16/16 13/13/13
f 18/18/18 15/15/15 14/14/14
f 14/14/14 16/16/16 18/18/18
f 15/15/15 18/18/18 19/19/19
f 16/16/16 17/17/17 20/20/20
f 20/20/20 18/18/18 16/16/16
f 21/21/21 20/20/20 17/17/17
f 22/22/22 19/19/19 18/18/18
f 18/18/18 20/20/20 22/22/22
f 19/19/19 22/22/22 23/23/23
f 20/20/20 21/21/21 24/24/24
f 24/24/24 22/22/22 20/20/20
f 25/25/25 24/24/24 21/21/21
f 26/26/26 23/23/23 22/22/22
f 22/22/22 24/24/24 26/26/26
f 23/23/23 26/26/26 27/27/27
f 24/24/24 25/25/25 28/28/28
f 28/28/28 26/26/26 24/24/24
f 29/29/29 28/28/28 25/25/25
f 30/30/30 27/27/27 26/26/26
f 26/26/26 28/28/28 30/30/30
f 27/27/27 30/30/30 31/31/31
f 28/28/28 29/29/29 32/32/32
f 32/32/32 30/30/30 28/28/28
f 33/33/33 32/32/32 29/29/29
f 34/34/34 31/31/31 30/30/30
f 30/30/30 32/32/32 34/34/34
f 31/31/31 34/34/34 35/35/35
f 32/32/32 33/33/33 36/36/36
f 36/36/36 34/34/34 32/32/32
f 37/37/37 36/36/36 33/33/33
f 38/38/38 35/35/35 34/34/34
f 34/34/34 36/36/36 38/38/38
f 35/35/35 38/38/38 39/39/39
f 36/36/36 37/37/37 40/40/40
f 40/40/40 38/38/38 36/36/36
f 41/41/41 40/40/40 37/37/37
f 42/42/42 39/39/39 38/38/38
f 38/38/38 40/40/40 42/42/42
f 39/39/39 42/42/42 43/43/43
f 40/40/40 41/41/41 44/44/44
f 44/44/44 42/42/42 40/40/40
f 45/45/45 44/44/44 41/41/41
f 46/46/46 43/43/43 42/42/42
f 42/42/42 44/44/44 46/46/46
f 43/43/43 46/46/46 47/47/47
f 44/44/44 45/45/45 48/48/48
f 48/48/48 46/46/46 44/44/44
f 49/49/49 48/48/48 45/45/45
f 50/50/50 47/47/47 46/46/46
f 46/46/46 48/48/48 50/50/50
f 47/47/47 50/50/50 51/51/51
f 48/48/48 49/49/49 52/52/52
f 52/52/52 50/50/50 48/48/48
f 53/53/53 52/52/52 49/49/49
f 54/54/54 51/51/51 50/50/50
f 50/50/50 52/52/52 54/54/54
f 51/51/51 54/54/54 55/55/55
f 52/52/52 53/53/53 56/56/56
f 56/56/56 54/54/54 52/52/52
f 57/57/57 56/56/56 53/53/53
f 58/58/58 55/55/55 54/54/54
f 54/54/54 56/56/56 58/58/58
f 55/55/55 58/58/58 59/59/59
f 56/56/56 57/57/57 60/60/60
f 60/60/60 58/58/58 56/56/56
f 61/61/61 60/60/60 57/57/57
f 62/62/62 59/59/59 58/58/58
f 58/58/58 60/60/60 62/62/62
f 59/59/59 62/62/62 63/63/63
f 60/60/60 61/61/61 64/64/64
f 64/64/64 62/62/62 60/60/60
f 65/65/65 64/64/64 61/61/61
f 66/66/66 63/63/63 62/62/62
f 62/62/62 64/64/64 66/66/66
f 63/63/63 66/66/66 67/67/67
f 64/64/64 65/65/65 68/68/68
f 68/68/68 66/66/66 64/64/64
f 69/69/69 68/68/68 65/65/65
f 70/70/70 67/67/67 66/66/66
f 66/66/66 68/68/68 70/70/70
f 67/67/67 70/70/70 71/71/71
f 68/68/68 69/69/69 72/72/72
f 72/72/72 70/70/70 68/68/68
f 73/73/73 72/72/72 69/69/69
f 74/74/74 71/71/71 70/70/70
f 70/70/70 72/72/72 74/74/74
f 71/71/71 74/74/74 75/75/75
f 72/72/72 73/73/73 76/76/76
f 76/76/76 74/74/74 72/72/72
f 77/77/77 76/76/76 73/73/73
f 78/78/78 75/75/75 74/74/74
f 74/74/74 76/76/76 78/78/78
f 75/75/75 78/78/78 79/79/79
f 76/76/76 77/77/77 80/80/80
f 80/80/80 78/78/78 76/76/76
f 81/81/81 80/80/80 77/77/77
f 82/82/82 79/79/79 78/78/78
f 78/78/78 80/80/80 82/82/82
f 79/79/79 82/82/82 83/83/83
f 80/80/80 81/81/81 84/84/84
f 84/84/84 82/82/82 80/80/80
f 85/85/85 84/84/84 81/81/81
f 86/86/86 83/83/83 82/82/82
f 82/82/82 84/84/84 86/86/86
f 83/83/83 86/86/86 87/87/87
f 84/84/84 85/85/85 88/88/88
f 88/88/88 86/86/86 84/84/84
f 89/89/89 88/88/88 85/85/85
f 90/90/90 87/87/87 86/86/86
f 86/86/86 88/88/88 90/90/90
f 87/87/87 90/90/90 91/91/91
f 88/88/88 89/89/89 92/92/92
f 92/92/92 90/90/90 88/88/88
f 93/93/93 92/92/92 89/89/89
f 94/94/94 91/91/91 90/90/90
f 90/90/90 92/92/92 94/94/94
f 91/91/91 94/94/94 95/95/95
f 92/92/92 93/93/93 96/96/96
f 96/96/96 94/94/94 92/92/92
f 97/97/97 96/96/96 93/93/93
f 98/98/98 95/95/95 94/94/94
f 94/94/94 96/96/96 98/98/98
f 95/95/95 98/98/98 99/99/99
f 96/96/96 97/97/97 100/100/100
f 100/100/100 98/98/98 96/96/96
f 101/101/101 100/100/100 97/97/97
f 102/102/102 99/99/99 98/98/98
f 98/98/98 100/100/100 102/102/102
f 99/99/99 102/102/102 103/103/103
f 100/100/100 101/101/101 104/104/104
f 104/104/104 102/102/102 100/100/100
f 105/105/105 104/104/104 101/101/101
f 106/106/106 103/103/103 102/102/102
f 102/102/102 104/104/104 106/106/106
f 103/103/103 106/106/106 107/107/107
f 104/104/104 105/105/105 108/108/108
f 108/108/108 106/106/106 104/104/104
f 109/109/109 108/108/108 105/105/105
f 110/110/110 107/107/107 106/106/106
f 106/106/106 108/108/108 110/110/110
f 107/107/107 110/110/110 111/111/111
f 108/108/108 109/109/109 112/112/112
f 112/112/112 110/110/110 108/108/108
f 113/113/113 112/112/112 109/109/109
f 114/114/114 111/111/111 110/110/110
f 110/110/110 112/112/112 114/114/114
f 111/111/111 114/114/114 115/115/115
f 112/112/112 113/113/113 116/116/116
f 116/116/116 114/114/114 112/112/112
f 117/117/117 116/116/116 113/113/113
f 118/118/118 115/115/115 114/114/114
f 114/114/114 116/116/116 118/118/118
f 115/115/115 118/118/118 119/119/119
f 116/116/116 117/117/117 120/120/120
f 120/120/120 118/118/118 116/116/116
f 121/121/121 120/120/120 117/117/117
f 122/122/122 119/119/119 118/118/118
f 118/118/118 120/120/120 122/122/122
f 119/119/119 122/122/122 123/123/123
f 120/120/120 121/121/121 124/124/124
f 124/124/124 122/122/122 120/120/120
f 125/125/125 124/124/124 121/121/121
f 126/126/126 123/123/123 122/122/122
f 122/122/122 124/124/124 126/126/126
f 123/123/123 126/126/126 127/127/127
f 124/124/124 125/125/125 128/128/128
f 128/128/128 126/126/126 124/124/124
f 129/129/129 128/128/128 125/125/125
f 130/130/130 127/127/127 126/126/126
f 126/126/126 128/128/128 130/130/130
f 127/127/127 130/130/130 131/131/131
f 128/128/128 129/129/129 132/132/132
f 132/132/132 130/130/130 128/128/128
f 133/133/133 132/132/132 129/129/129
f 134/134/134 131/131/131 130/130/130
f 130/130/130 132/132/132 134/134/134
f 131/131/131 134/134/134 135/135/135
f 132/132/132 133/133/133 136/136/136
f 136/136/136 134/134/134 132/132/132
f 137/137/137 136/136/136 133/133/133
f 138/138/138 135/135/135 134/134/134
f 134/134/134 136/136/136 138/138/138
f 135/135/135 138/138/138 139/139/139
f 136/136/136 137/137/137 140/140/140
f 140/140/140 138/138/138 136/136/136
f 141/141/141 140/140/140 137/137/137
f 142/142/142 139/139/139 138/138/138
f 138/138/138 140/140/140 142/142/142
f 139/139/139 142/142/142 143/143/143
f 144/144/144 143/143/143 142/142/142
f 140/140/140 141/141/141 145/145/145
f 145/145/145 142/142/142 140/140/140
f 142/142/142 145/145/145 144/144/144
f 146/146/146 145/145/145 141/141/141
f 147/147/147 144/144/144 145/145/145
f 145/145/145 146/146/146 147/147/147
f 148/148/148 147/147/147 146/146/146
f 151/151/151 150/150/150 149/149/149
f 152/152/152 149/149/149 150/150/150
f 150/150/150 153/153/153 152/152/152
f 149/149/149 152/152/152 154/154/154
f 155/155/155 152/152/152 153/153/153
f 153/153/153 156/156/156 155/155/155
f 157/157/157 155/155/155 156/156/156
f 158/158/158 154/154/154 152/152/152
f 152/152/152 155/155/155 158/158/158
f 154/154/154 158/158/158 159/159/159
f 155/155/155 157/157/157 160/160/160
f 160/160/160 158/158/158 155/155/155
f 161/161/161 160/160/160 157/157/157
f 162/162/162 159/159/159 158/158/158
f 158/158/158 160/160/160 162/162/162
f 159/159/159 162/162/162 163/163/163
f 160/160/160 161/161/161 164/164/164
f 164/164/164 162/162/162 160/160/160
f 165/165/165 164/164/164 161/161/161
f 166/166/166 163/163/163 162/162/162
f 162/162/162 164/164/164 166/166/166
f 163/163/163 166/166/166 167/167/167
f 164/164/164 165/165/165 168/168/168
f 168/168/168 166/166/166 164/164/164
f 169/169/169 168/168/168 165/165/165
f 170/170/170 167/167/167 166/166/166
f 166/166/166 168/168/168 170/170/170
f 167/167/167 170/170/170 171/171/171
f 168/168/168 169/169/169 172/172/172
f 172/172/172 170/170/170 168/168/168
f 173/173/173 172/172/172 169/169/169
f 174/174/174 171/171/171 170/170/170
f 170/170/170 172/172/172 174/174/174
f 171/171/171 174/174/174 175/175/175
f 172/172/172 173/173/173 176/176/176
f 176/176/176 174/174/174 172/172/172
f 177/177/177 176/176/176 173/173/173
f 178/178/178 175/175/175 174/174/174
f 174/174/174 176/176/176 178/178/178
f 175/175/175 178/178/178 179/179/179
f 176/176/176 177/177/177 180/180/180
f 180/180/180 178/178/178 176/176/176
f 181/181/181 180/180/180 177/177/177
f 182/182/182 179/179/179 178/178/178
f 178/178/178 180/180/180 182/182/182
f 179/179/179 182/182/182 183/183/183
f 180/180/180 181/181/181 184/184/184
f 184/184/184 182/182/182 180/180/180
f 185/185/185 184/184/184 181/181/181
f 186/186/186 183/183/183 182/182/182
f 182/182/182 184/184/184 186/186/186
f 183/183/183 186/186/186 187/187/187
f 184/184/184 185/185/185 188/188/188
f 188/188/188 186/186/186 184/184/184
f 189/189/189 188/188/188 185/185/185
f 190/190/190 187/187/187 186/186/186
f 186/186/186 188/188/188 190/190/190
f 187/187/187 190/190/190 191/191/191
f 188/188/188 189/189/189 192/192/192
f 192/192/192 190/190/190 188/188/188
f 193/193/193 192/192/192 189/189/189
f 194/194/194 191/191/191 190/190/190
f 190/190/190 192/192/192 194/194/194
f 191/191/191 194/194/194 195/195/195
f 192/192/192 193/193/193 196/196/196
f 196/196/196 194/194/194 192/192/192
f 197/197/197 196/196/196 193/193/193
f 198/198/198 195/195/195 194/194/194
f 194/194/194 196/196/196 198/198/198
f 195/195/195 198/198/198 199/199/199
f 196/196/196 197/197/197 200/200/200
f 200/200/200 198/198/198 196/196/196
f 201/201/201 200/200/200 197/197/197
f 202/202/202 199/199/199 198/198/198
f 198/198/198 200/200/200 202/202/202
f 199/199/199 202/202/202 203/203/203
f 200/200/200 201/201/201 204/204/204
f 204/204/204 202/202/202 200/200/200
f 205/205/205 204/204/204 201/201/201
f 206/206/206 203/203/203 202/202/202
f 202/202/202 204/204/204 206/206/206
f 203/203/203 206/206/206 207/207/207
f 204/204/204 205/205/205 208/208/208
f 208/208/208 206/206/206 204/204/204
f 209/209/209 208/208/208 205/205/205
f 210/210/210 207/207/207 206/206/206
f 206/206/206 208/208/208 210/210/210
f 207/207/207 210/210/210 211/211/211
f 208/208/208 209/209/209 212/212/212
f 212/212/212 210/210/210 208/208/208
f 213/213/213 212/212/212 209/209/209
f 214/214/214 211/211/211 210/210/210
f 210/210/210 212/212/212 214/214/214
f 211/211/211 214/214/214 215/215/215
f 212/212/212 213/213/213 216/216/216
f 216/216/216 214/214/214 212/212/212
f 217/217/217 216/216/216 213/213/213
f 218/218/218 215/215/215 214/214/214
f 214/214/214 216/216/216 218/218/218
f 215/215/215 218/218/218 219/219/219
f 216/216/216 217/217/217 220/220/220
f 220/220/220 218/218/218 216/216/216
f 221/221/221 220/220/220 217/217/217
f 222/222/222 219/219/219 218/218/218
f 218/218/218 220/220/220 222/222/222
f 219/219/219 222/222/222 223/223/223
f 220/220/220 221/221/221 224/224/224
f 224/224/224 222/222/222 220/220/220
f 225/225/225 224/224/224 221/221/221
f 226/226/226 223/223/223 222/222/222
f 222/222/222 224/224/224 226/226/226
f 223/223/223 226/226/226 227/227/227
f 224/224/224 225/225/225 228/228/228
f 228/228/228 226/226/226 224/224/224
f 229/229/229 228/228/228 225/225/225
f 230/230/230 227/227/227 226/226/226
f 226/226/226 228/228/228 230/230/230
f 227/227/227 230/230/230 231/231/231
f 228/228/228 229/229/229 232/232/232
f 232/232/232 230/230/230 228/228/228
f 233/233/233 232/232/232 229/229/229
f 234/234/234 231/231/231 230/230/230
f 230/230/230 232/232/232 234/234/234
f 231/231/231 234/234/234 235/235/235
f 232/232/232 233/233/233 236/236/236
f 236/236/236 234/234/234 232/232/232
f 237/237/237 236/236/236 233/233/233
f 238/238/238 235/235/235 234/234/234
f 234/234/234 236/236/236 238/238/238
f 235/235/235 238/238/238 239/239/239
f 236/236/236 237/237/237 240/240/240
f 240/240/240 238/238/238 236/236/236
f 241/241/241 240/240/240 237/237/237
f 242/242/242 239/239/239 238/238/238
f 238/238/238 240/240/240 242/242/242
f 239/239/239 242/242/242 243/243/243
f 240/240/240 241/241/241 244/244/244
f 244/244/244 242/242/242 240/240/240
f 245/245/245 244/244/244 241/241/241
f 246/246/246 243/243/243 242/242/242
f 242/242/242 244/244/244 246/246/246
f 243/243/243 246/246/246 247/247/247
f 244/244/244 245/245/245 248/248/248
f 248/248/248 246/246/246 244/244/244
f 249/249/249 248/248/248 245/245/245
f 250/250/250 247/247/247 246/246/246
f 246/246/246 248/248/248 250/250/250
f 247/247/247 250/250/250 251/251/251
f 248/248/248 249/249/249 252/252/252
f 252/252/252 250/250/250 248/248/248
f 253/253/253 252/252/252 249/249/249
f 254/254/254 251/251/251 250/250/250
f 250/250/250 252/252/252 254/254/254
f 251/251/251 254/254/254 255/255/255
f 252/252/252 253/253/253 256/256/256
f 256/256/256 254/254/254 252/252/252
f 257/257/257 256/256/256 253/253/253
f 258/258/258 255/255/255 254/254/254
f 254/254/254 256/256/256 258/258/258
f 255/255/255 258/258/258 259/259/259
f 256/256/256 257/257/257 260/260/260
f 260/260/260 258/258/258 256/256/256
f 261/261/261 260/260/260 257/257/257
f 262/262/262 259/259/259 258/258/258
f 258/258/258 260/260/260 262/262/262
f 259/259/259 262/262/262 263/263/263
f 260/260/260 261/261/261 264/264/264
f 264/264/264 262/262/262 260/260/260
f 265/265/265 264/264/264 261/261/261
f 266/266/266 263/263/263 262/262/262
f 262/262/262 264/264/264 266/266/266
f 263/263/263 266/266/266 267/267/267
f 264/264/264 265/265/265 268/268/268
f 268/268/268 266/266/266 264/264/264
f 269/269/269 268/268/268 265/265/265
f 270/270/270 267/267/267 266/266/266
f 266/266/266 268/268/268 270/270/270
f 267/267/267 270/270/270 271/271/271
f 268/268/268 269/269/269 272/272/272
f 272/272/272 270/270/270 268/268/268
f 273/273/273 272/272/272 269/269/269
f 274/274/274 271/271/271 270/270/270
f 270/270/270 272/272/272 274/274/274
f 271/271/271 274/274/274 275/275/275
f 272/272/272 273/273/273 276/276/276
f 276/276/276 274/274/274 272/272/272
f 277/277/277 276/276/276 273/273/273
f 278/278/278 275/275/275 274/274/274
f 274/274/274 276/276/276 278/278/278
f 275/275/275 278/278/278 279/279/279
f 276/276/276 277/277/277 280/280/280
f 280/280/280 278/278/278 276/276/276
f 281/281/281 280/280/280 277/277/277
f 282/282/282 279/279/279 278/278/278
f 278/278/278 280/280/280 282/282/282
f 279/279/279 282/282/282 283/283/283
f 280/280/280 281/281/281 284/284/284
f 284/284/284 282/282/282 280/280/280
f 285/285/285 284/284/284 281/281/281
f 286/286/286 283/283/283 282/282/282
f 282/282/282 284/284/284 286/286/286
f 283/283/283 286/286/286 287/287/287
f 284/284/284 285/285/285 288/288/288
f 288/288/288 286/286/286 284/284/284
f 289/289/289 288/288/288 285/285/285
f 290/290/290 287/287/287 286/286/286
f 286/286/286 288/288/288 290/290/290
f 287/287/287 290/290/290 291/291/291
f 292/292/292 291/291/291 290/290/290
f 288/288/288 289/289/289 293/293/293
f 293/293/293 290/290/290 288/288/288
f 290/290/290 293/293/293 292/292/292
f 294/294/294 293/293/293 289/289/289
f 295/295/295 292/292/292 293/293/293
f 293/293/293 294/294/294 295/295/295
f 296/296/296 295/295/295 294/294/294
