g Line001
v 0.66933006 2.23220444 5.12462384E-09
v 0.95560956 2.27602577 -1.35490641E-09
v 0.670851111 2.22264695 4.53460425E-09
v 0.932360351 2.36570072 -1.64551905E-09
v 0.665916979 2.24360919 2.50056242E-09
v 0.875840783 2.45855331 -1.89048377E-09
v 0.875840783 2.45855331 -1.89048377E-09
v 0.661279857 2.24983215 2.56362487E-10
v 0.755630493 2.52266669 -1.69162906E-09
v 0.661279857 2.24983215 2.56362487E-10
v 0.875840783 2.45855331 -1.89048377E-09
v 0.665916979 2.24360919 2.50056242E-09
v -0.957392335 -2.8131249 5.6866245E-08
v -0.66494441 -2.70225263 5.81005857E-08
v -0.8820889 -2.91746545 6.29887467E-08
v -0.66494441 -2.70225263 5.81005857E-08
v -0.957392335 -2.8131249 5.6866245E-08
v -0.672620535 -2.68836594 4.9218233E-08
v 0.957402289 -2.58580399 1.81493842E-08
v 0.670851111 2.22264695 4.53460425E-09
v 0.95560956 2.27602577 -1.35490641E-09
v 0.67260766 -2.52285123 2.01458334E-08
v 0.95560956 2.27602577 -1.35490641E-09
v 0.66933006 2.23220444 5.12462384E-09
v 0.932360351 2.36570072 -1.64551905E-09
v 0.665916979 2.24360919 2.50056242E-09
v -0.00803992804 2.52266669 -1.47757362E-09
v 0.661279857 2.24983215 2.56362487E-10
v -0.00804000068 2.23789525 1.92261762E-09
v 0.755630493 2.52266669 -1.69162906E-09
v -0.522996962 2.52266669 -1.26354138E-09
v -0.547114432 2.22484469 1.0056399E-09
v -0.672797024 2.48809648 -7.7250295E-10
v -0.490564913 2.23789525 1.64408687E-09
v -0.672797024 2.48809648 -7.7250295E-10
v -0.603245854 2.18091607 2.61759309E-10
v -0.800619066 2.38806295 -2.01211145E-10
v -0.547114432 2.22484469 1.0056399E-09
v -0.800619066 2.38806295 -2.01211145E-10
v -0.654559195 2.12150097 -3.8276321E-10
v -0.902412534 2.2701962 2.94308855E-10
v -0.603245854 2.18091607 2.61759309E-10
v -0.902412534 2.2701962 2.94308855E-10
v -0.672620654 2.07470965 -1.19215871E-09
v -0.957392156 2.12776375 9.15984288E-10
v -0.654559195 2.12150097 -3.8276321E-10
v -0.957392156 2.12776375 9.15984288E-10
v -0.672620535 -2.68836594 4.9218233E-08
v -0.957392335 -2.8131249 5.6866245E-08
v -0.672620654 2.07470965 -1.19215871E-09
v -0.8820889 -2.91746545 6.29887467E-08
v -0.650983214 -2.71121454 6.40160565E-08
v -0.760796964 -2.99595451 6.80316816E-08
v -0.66494441 -2.70225263 5.81005857E-08
v -0.00809129421 -2.99620605 6.40209024E-08
v -0.650983214 -2.71121454 6.40160565E-08
v -0.00809126999 -2.71144319 6.05772144E-08
v -0.760796964 -2.99595451 6.80316816E-08
v 0.491331339 -2.99645805 6.00101728E-08
v 0.547405124 -2.68773723 5.25317247E-08
v 0.678861439 -2.94784498 5.42193135E-08
v 0.455078721 -2.71167135 5.71385144E-08
v 0.678861439 -2.94784498 5.42193135E-08
v 0.593748271 -2.65008879 4.42703332E-08
v 0.798787951 -2.85041571 4.4583448E-08
v 0.547405124 -2.68773723 5.25317247E-08
v 0.798787951 -2.85041571 4.4583448E-08
v 0.642987192 -2.58651352 3.32550982E-08
v 0.887698591 -2.73562193 3.26125154E-08
v 0.593748271 -2.65008879 4.42703332E-08
v 0.887698591 -2.73562193 3.26125154E-08
v 0.67260766 -2.52285123 2.01458334E-08
v 0.957402289 -2.58580399 1.81493842E-08
v 0.642987192 -2.58651352 3.32550982E-08
v -0.00803992804 2.52266669 -1.47757362E-09
v -0.490564913 2.23789525 1.64408687E-09
v -0.522996962 2.52266669 -1.26354138E-09
v -0.00804000068 2.23789525 1.92261762E-09
v -0.00809129421 -2.99620605 6.40209024E-08
v 0.455078721 -2.71167135 5.71385144E-08
v 0.491331339 -2.99645805 6.00101728E-08
v -0.00809126999 -2.71144319 6.05772144E-08
vt 0.873529732 0.0248642564
vt 0.856616437 0.977176309
vt 0.857393026 0.0248642564
vt 0.873609424 0.977176309
vt 0.885224104 0.0248642564
vt 0.886043251 0.977176309
vt 0.886043251 0.977176309
vt 0.902787983 0.0248642564
vt 0.902305484 0.977176309
vt 0.902787983 0.0248642564
vt 0.886043251 0.977176309
vt 0.885224104 0.0248642564
vt 0.154610395 0.977176249
vt 0.126206696 0.0248642117
vt 0.126206696 0.977176249
vt 0.126206696 0.0248642117
vt 0.154610395 0.977176249
vt 0.154610395 0.0248642117
vt 0.154851824 0.977176309
vt 0.857393026 0.0248642564
vt 0.856616437 0.977176309
vt 0.154851824 0.0248642564
vt 0.856616437 0.977176309
vt 0.873529732 0.0248642564
vt 0.873609424 0.977176309
vt 0.885224104 0.0248642564
vt 0.973286927 0.977176309
vt 0.902787983 0.0248642564
vt 0.973286927 0.0248642564
vt 0.902305484 0.977176309
vt 0.900919259 0.977176249
vt 0.892054558 0.0248642117
vt 0.892003357 0.977176249
vt 0.901383936 0.0248642117
vt 0.892003357 0.977176249
vt 0.879080951 0.0248642117
vt 0.879904509 0.977176249
vt 0.892054558 0.0248642117
vt 0.879904509 0.977176249
vt 0.86761409 0.0248642117
vt 0.868233144 0.977176249
vt 0.879080951 0.0248642117
vt 0.868233144 0.977176249
vt 0.855538726 0.0248642117
vt 0.856465876 0.977176249
vt 0.86761409 0.0248642117
vt 0.856465876 0.977176249
vt 0.154610395 0.0248642117
vt 0.154610395 0.977176249
vt 0.855538726 0.0248642117
vt 0.126206696 0.977176249
vt 0.0998335704 0.0248642117
vt 0.0998335704 0.977176249
vt 0.126206696 0.0248642117
vt 0.021286536 0.977176249
vt 0.0998335704 0.0248642117
vt 0.021286536 0.0248642117
vt 0.0998335704 0.977176249
vt 0.100382894 0.977176309
vt 0.113146499 0.0248642564
vt 0.113146499 0.977176309
vt 0.100382894 0.0248642564
vt 0.113146499 0.977176309
vt 0.124846578 0.0248642564
vt 0.124909297 0.977176309
vt 0.113146499 0.0248642564
vt 0.124909297 0.977176309
vt 0.13684009 0.0248642564
vt 0.13684009 0.977176309
vt 0.124846578 0.0248642564
vt 0.13684009 0.977176309
vt 0.154851824 0.0248642564
vt 0.154851824 0.977176309
vt 0.13684009 0.0248642564
vt 0.973286927 0.977176249
vt 0.901383936 0.0248642117
vt 0.900919259 0.977176249
vt 0.973286927 0.0248642117
vt 0.021286536 0.977176309
vt 0.100382894 0.0248642564
vt 0.100382894 0.977176309
vt 0.021286536 0.0248642564
vn -0 0 1
vn -0 0 1
vn -0 0 1
vn -0 0 1
vn -0 0 1
vn -0 0 1
vn -0 0 1
vn -0 0 1
vn -0 0 1
vn -0 0 1
vn -0 0 1
vn -0 0 1
vn -0 0 1
vn -0 0 1
vn -0 0 1
vn -0 5.26879887E-07 1
vn -0 5.26879887E-07 1
vn -0 5.26879887E-07 1
vn -0 0 1
vn -0 0 1
vn -0 0 1
vn -0 0 1
vn -0 0 1
vn -0 0 1
vn -0 0 1
vn -0 0 1
vn -0 0 1
vn -0 0 1
vn -0 0 1
vn -0 0 1
vn -0 0 1
vn -0 0 1
vn -0 0 1
vn -0 0 1
vn -0 0 1
vn -0 0 1
vn -0 0 1
vn -0 0 1
vn -0 0 1
vn -0 0 1
vn -0 0 1
vn -0 0 1
vn -0 0 1
vn -0 0 1
vn -0 0 1
vn -0 0 1
vn -0 0 1
vn -0 0 1
vn -0 0 1
vn -0 0 1
vn -0 0 1
vn -0 0 1
vn -0 0 1
vn -0 2.7324819E-07 1
vn -0 0 1
vn -0 0 1
vn -0 0 1
vn -0 0 1
vn -0 0 1
vn -0 0 1
vn -0 0 1
vn -0 0 1
vn -0 0 1
vn -0 0 1
vn -0 0 1
vn -0 0 1
vn -0 0 1
vn -0 0 1
vn -0 0 1
vn -0 0 1
vn -0 0 1
vn -0 0 1
vn -0 0 1
vn -0 0 1
vn -0 0 1
vn -0 0 1
vn -0 0 1
vn -0 0 1
vn -0 0 1
vn -0 0 1
vn -0 0 1
vn -0 0 1
g Line001_0
f 3/3/3 2/2/2 1/1/1
f 6/6/6 5/5/5 4/4/4
f 9/9/9 8/8/8 7/7/7
f 12/12/12 11/11/11 10/10/10
f 15/15/15 14/14/14 13/13/13
f 18/18/18 17/17/17 16/16/16
f 21/21/21 20/20/20 19/19/19
f 22/22/22 19/19/19 20/20/20
f 25/25/25 24/24/24 23/23/23
f 24/24/24 25/25/25 26/26/26
f 29/29/29 28/28/28 27/27/27
f 30/30/30 27/27/27 28/28/28
f 33/33/33 32/32/32 31/31/31
f 34/34/34 31/31/31 32/32/32
f 37/37/37 36/36/36 35/35/35
f 38/38/38 35/35/35 36/36/36
f 41/41/41 40/40/40 39/39/39
f 42/42/42 39/39/39 40/40/40
f 45/45/45 44/44/44 43/43/43
f 46/46/46 43/43/43 44/44/44
f 49/49/49 48/48/48 47/47/47
f 50/50/50 47/47/47 48/48/48
f 53/53/53 52/52/52 51/51/51
f 54/54/54 51/51/51 52/52/52
f 57/57/57 56/56/56 55/55/55
f 58/58/58 55/55/55 56/56/56
f 61/61/61 60/60/60 59/59/59
f 62/62/62 59/59/59 60/60/60
f 65/65/65 64/64/64 63/63/63
f 66/66/66 63/63/63 64/64/64
f 69/69/69 68/68/68 67/67/67
f 70/70/70 67/67/67 68/68/68
f 73/73/73 72/72/72 71/71/71
f 74/74/74 71/71/71 72/72/72
f 77/77/77 76/76/76 75/75/75
f 78/78/78 75/75/75 76/76/76
f 81/81/81 80/80/80 79/79/79
f 82/82/82 79/79/79 80/80/80
