g O_env_wh_glass_frag_013
v -0.206389114 0.169304192 -0.00882049557
v -0.217907831 -0.276457429 -0.0366291031
v -0.206389114 -0.303979516 -0.00882049557
v -0.226157486 -0.256746262 -0.0565454103
v -0.226157486 0.169304192 -0.0565454103
v -0.158664197 0.21702911 -0.00882049557
v 0.274482369 0.190007553 0.00237228395
v 0.229537845 0.21702911 -0.00882049557
v -0.158664197 0.169304192 0.0109478757
v 0.30891785 0.169304192 0.0109478757
v -0.158664197 0.236797482 -0.0565454103
v 0.187153712 0.22786133 -0.0349717699
v 0.152188733 0.236797482 -0.0565454103
v -0.158664197 0.21702911 -0.00882049557
v 0.229537845 0.21702911 -0.00882049557
v -0.206389114 0.21702911 -0.0565454103
v -0.199587166 0.219846562 -0.165578157
v -0.206389114 0.21702911 -0.164868802
v -0.158664197 0.236797482 -0.0565454103
v -0.158664197 0.236797482 -0.169845656
v -0.226157486 0.169304192 -0.0565454103
v -0.226157486 -0.0527023301 -0.260103941
v -0.226157486 -0.256746262 -0.0565454103
v -0.226157486 -0.0280499253 -0.253899485
v -0.226157486 0.169304192 -0.181555718
v -0.226157486 0.0674101263 -0.229874343
v 0.370786816 -0.261772364 0.0109478757
v 0.318363845 -0.30772385 0.0109478757
v 0.331802964 -0.30731222 0.0109478757
v 0.492492825 0.0159922019 0.0109478757
v 0.30891785 0.169304192 0.0109478757
v -0.158664197 0.169304192 0.0109478757
v -0.158664197 -0.322333395 0.0109478757
v -0.206389114 0.169304192 -0.00882049557
v -0.206389114 0.21702911 -0.0565454103
v -0.226157486 0.169304192 -0.0565454103
v -0.197617829 0.208257824 -0.0175917819
v -0.158664197 0.21702911 -0.00882049557
v -0.206389114 0.169304192 -0.00882049557
v -0.158664197 0.169304192 0.0109478757
v -0.197617829 0.208257824 -0.0175917819
v -0.206389114 0.21702911 -0.0565454103
v -0.158664197 0.21702911 -0.00882049557
v -0.158664197 0.236797482 -0.0565454103
v -0.197617829 0.208257824 -0.0175917819
v -0.267947584 -0.320495903 0.00577575667
v -0.25419265 0.211804956 0.0389830023
v -0.25419268 -0.35336104 0.0389830023
v -0.276157498 0.211804956 -0.0140446471
v -0.276157498 -0.300879657 -0.0140446471
v -0.236838862 -0.360034943 0.0461711884
v -0.201164961 0.211804956 0.0609478764
v -0.201164961 -0.373754352 0.0609478764
v -0.25419268 -0.35336104 0.0389830023
v -0.25419265 0.211804956 0.0389830023
v -0.201164961 0.211804956 0.0609478764
v 0.275528133 0.235094443 0.0513010398
v 0.314265013 0.211804956 0.0609478764
v -0.201164961 0.264832616 0.0389829613
v 0.22606495 0.264832616 0.0389829613
v -0.201164961 0.264832616 0.0389829613
v 0.178509876 0.276986539 0.00964111276
v 0.22606495 0.264832616 0.0389829613
v -0.201164961 0.286797494 -0.0140446471
v 0.140121639 0.286797494 -0.0140446471
v -0.276157498 0.211804956 -0.0140446471
v -0.254192621 0.264832616 -0.126806259
v -0.25419265 0.264832616 -0.0140446853
v -0.272836864 0.219821543 -0.142546877
v -0.276157498 0.211804956 -0.145350263
v -0.201164961 0.286797494 -0.133355215
v -0.247057915 0.267787844 -0.128411755
v -0.24575226 0.268328696 -0.128705606
v -0.201164961 0.286797494 -0.0140446471
v -0.25419265 0.264832616 -0.0140446853
v -0.254192621 0.264832616 -0.126806259
v -0.25419265 0.211804956 0.0389830023
v -0.25419265 0.264832616 -0.0140446853
v -0.244446784 0.25508666 0.0292371735
v -0.276157498 0.211804956 -0.0140446471
v -0.201164961 0.264832616 0.0389829613
v -0.25419265 0.211804956 0.0389830023
v -0.244446784 0.25508666 0.0292371735
v -0.201164961 0.211804956 0.0609478764
v -0.25419265 0.264832616 -0.0140446853
v -0.201164961 0.264832616 0.0389829613
v -0.244446784 0.25508666 0.0292371735
v -0.201164961 0.286797494 -0.0140446471
v -0.206389114 -0.303979516 -0.00882049557
v -0.158664197 0.169304192 0.0109478757
v -0.206389114 0.169304192 -0.00882049557
v -0.188616142 -0.310814619 -0.00145866396
v -0.158664197 -0.322333395 0.0109478757
v -0.276157498 -0.000868530245 -0.226718172
v -0.276157498 -0.300879657 -0.0140446471
v -0.276157498 -0.0702064484 -0.244168967
v -0.276157498 0.211804956 -0.0140446471
v -0.276157498 0.211804956 -0.145350263
v -0.276157498 0.0912506059 -0.203533858
v -0.276157528 0.194995344 -0.154337645
v -0.0216022488 0.236797482 -0.211060792
v -0.158664197 0.236797482 -0.0565454103
v 0.152188733 0.236797482 -0.0565454103
v -0.158664197 0.236797482 -0.169845656
v 0.328887522 -0.318247557 0.0609479137
v 0.531147063 0.0306767263 0.0609478764
v 0.43003276 -0.200092271 0.0609478764
v -0.201164961 0.211804956 0.0609478764
v 0.314265013 0.211804956 0.0609478764
v -0.201164961 -0.373754352 0.0609478764
v 0.294363052 -0.358578146 0.0609478764
v 0.492492825 0.0159922019 0.0109478757
v 0.43003276 -0.200092271 0.0609478764
v 0.531147063 0.0306767263 0.0609478764
v 0.370786816 -0.261772364 0.0109478757
v 0.531147063 0.0306767263 0.0609478764
v 0.30891785 0.169304192 0.0109478757
v 0.492492825 0.0159922019 0.0109478757
v 0.178509876 0.276986539 0.00964111276
v 0.274482369 0.190007553 0.00237228395
v 0.229537845 0.21702911 -0.00882049557
v 0.187153712 0.22786133 -0.0349717699
v 0.152188733 0.236797482 -0.0565454103
v 0.275528133 0.235094443 0.0513010398
v 0.314265013 0.211804956 0.0609478764
v 0.22606495 0.264832616 0.0389829613
v -0.0464126393 0.286797494 -0.179889977
v -0.0216022488 0.236797482 -0.211060792
v 0.140121639 0.286797494 -0.0140446471
v -0.206389114 0.21702911 -0.164868802
v -0.226157486 0.169304192 -0.0565454103
v -0.206389114 0.21702911 -0.0565454103
v -0.222996131 0.176936492 -0.178887114
v -0.226157486 0.169304192 -0.181555718
v -0.0464126393 0.286797494 -0.179889977
v -0.201164961 0.286797494 -0.0140446471
v -0.201164961 0.286797494 -0.133355215
v 0.140121639 0.286797494 -0.0140446471
v -0.226157486 -0.0280499253 -0.253899485
v -0.276157498 -0.0702064484 -0.244168967
v -0.226157486 -0.0527023301 -0.260103941
v -0.226157486 0.0674101263 -0.229874343
v -0.276157498 -0.000868530245 -0.226718172
v -0.276157498 0.0912506059 -0.203533858
v -0.0464126393 0.286797494 -0.179889977
v -0.158664197 0.236797482 -0.169845656
v -0.0216022488 0.236797482 -0.211060792
v -0.24575226 0.268328696 -0.128705606
v -0.201164961 0.286797494 -0.133355215
v -0.199587166 0.219846562 -0.165578157
v -0.206389114 0.21702911 -0.164868802
v -0.276157498 0.0912506059 -0.203533858
v -0.276157528 0.194995344 -0.154337645
v -0.222996131 0.176936492 -0.178887114
v -0.226157486 0.169304192 -0.181555718
v -0.226157486 0.0674101263 -0.229874343
v -0.276157528 0.194995344 -0.154337645
v -0.272836864 0.219821543 -0.142546877
v -0.276157498 0.211804956 -0.145350263
v -0.247057915 0.267787844 -0.128411755
v -0.24575226 0.268328696 -0.128705606
v -0.254192621 0.264832616 -0.126806259
v -0.276157498 -0.0702064484 -0.244168967
v -0.226157486 -0.256746262 -0.0565454103
v -0.226157486 -0.0527023301 -0.260103941
v -0.267947584 -0.320495903 0.00577575667
v -0.276157498 -0.300879657 -0.0140446471
v -0.217907831 -0.276457429 -0.0366291031
v -0.206389114 -0.303979516 -0.00882049557
v -0.188616142 -0.310814619 -0.00145866396
v -0.158664197 -0.322333395 0.0109478757
v 0.294363052 -0.358578146 0.0609478764
v 0.318363845 -0.30772385 0.0109478757
v 0.331802964 -0.30731222 0.0109478757
v -0.236838862 -0.360034943 0.0461711884
v -0.201164961 -0.373754352 0.0609478764
v -0.25419268 -0.35336104 0.0389830023
v 0.370786816 -0.261772364 0.0109478757
v 0.328887522 -0.318247557 0.0609479137
v 0.43003276 -0.200092271 0.0609478764
v 0.294363052 -0.358578146 0.0609478764
v 0.331802964 -0.30731222 0.0109478757
vt 0.624550343 0.72477448
vt 0.630880415 0.631125152
vt 0.624576807 0.625139177
vt 0.635392785 0.635220766
vt 0.635366142 0.724671841
vt 0.453724384 0.189334929
vt 0.544749975 0.195447519
vt 0.535478294 0.189305127
vt 0.453832686 0.200150877
vt 0.552028596 0.200138628
vt 0.635551214 0.0186558962
vt 0.6305843 0.0914047509
vt 0.635491848 0.0839152932
vt 0.624721229 0.0185410976
vt 0.62464118 0.10026446
vt 0.635446727 0.00783979893
vt 0.658376575 0.00938493758
vt 0.658242524 0.00784246624
vt 0.635551214 0.0186558962
vt 0.659362972 0.0186596196
vt 0.635366142 0.724671841
vt 0.678121984 0.6780563
vt 0.635392785 0.635220766
vt 0.676817656 0.683232307
vt 0.66163075 0.724674106
vt 0.671776056 0.703277886
vt 0.56496793 0.290836066
vt 0.553952992 0.300505668
vt 0.556775331 0.300418735
vt 0.590561748 0.232390851
vt 0.552028596 0.200138628
vt 0.453832686 0.200150877
vt 0.453806072 0.303475976
vt 0.624550343 0.72477448
vt 0.635258675 0.735494494
vt 0.635366142 0.724671841
vt 0.626370609 0.733665645
vt 0.453724384 0.189334929
vt 0.443010151 0.200042635
vt 0.453832686 0.200150877
vt 0.444835901 0.191156447
vt 0.635446727 0.00783979893
vt 0.624721229 0.0185410976
vt 0.635551214 0.0186558962
vt 0.626555681 0.00965642929
vt 0.217896551 0.302654952
vt 0.210484147 0.190814853
vt 0.210359946 0.309793174
vt 0.222501755 0.190944582
vt 0.222392619 0.298584938
vt 0.0120765995 0.653213143
vt 0.0200352669 0.773481667
vt 0.0201645251 0.650417686
vt 0.00813970063 0.65465188
vt 0.00801002979 0.773586333
vt 0.0200352669 0.773481667
vt 0.12008483 0.778903186
vt 0.128279552 0.773636699
vt 0.0198993683 0.785499334
vt 0.109872244 0.785649657
vt 0.209647417 0.975518465
vt 0.216332167 0.895528436
vt 0.209676951 0.88557899
vt 0.22168088 0.975406766
vt 0.221709311 0.903758049
vt 0.222501755 0.190944582
vt 0.24612096 0.17894949
vt 0.222398281 0.178919464
vt 0.249520302 0.189160883
vt 0.25008899 0.190978378
vt 0.246755838 0.975435555
vt 0.245602682 0.985835135
vt 0.245667696 0.985539258
vt 0.22168088 0.975406766
vt 0.221548915 0.987424493
vt 0.245278761 0.987452745
vt 0.210484147 0.190814853
vt 0.222398281 0.178919464
vt 0.212519765 0.180938482
vt 0.222501755 0.190944582
vt 0.0198993683 0.785499334
vt 0.00801002979 0.773586333
vt 0.0100258589 0.783462763
vt 0.0200352669 0.773481667
vt 0.221548915 0.987424493
vt 0.209647417 0.975518465
vt 0.211672902 0.985392928
vt 0.22168088 0.975406766
vt 0.442988634 0.299641341
vt 0.453832686 0.200150877
vt 0.443010151 0.200042635
vt 0.447018653 0.301120043
vt 0.453806072 0.303475976
vt 0.267112404 0.235659286
vt 0.222392619 0.298584938
vt 0.270761847 0.250222236
vt 0.222501755 0.190944582
vt 0.25008899 0.190978378
vt 0.262272537 0.216308951
vt 0.251971543 0.194510609
vt 0.66799891 0.0474352948
vt 0.635551214 0.0186558962
vt 0.635491848 0.0839152932
vt 0.659362972 0.0186596196
vt 0.131430149 0.662117541
vt 0.17385371 0.735592365
vt 0.152653649 0.687007904
vt 0.0200352669 0.773481667
vt 0.128279552 0.773636699
vt 0.0201645251 0.650417686
vt 0.124191083 0.653639078
vt 0.787546992 1.38389528
vt 0.341574669 1.50001466
vt 0.84547323 1.50001466
vt 0.181030735 1.38389528
vt 0.604350269 1.89021945
vt 0.72128588 1.36989284
vt 0.51135546 1.79971468
vt 0.866830468 1.06455624
vt 0.73713392 1.28926587
vt 0.75781846 1.18403292
vt 0.734529257 1.08479488
vt 0.715316594 1.00292802
vt 0.870196998 1.29171443
vt 0.852369368 1.38241267
vt 0.892960966 1.17590153
vt 0.603976905 0.537923634
vt 0.490072936 0.596014678
vt 0.845736861 0.974674404
vt 0.658047616 0.735495508
vt 0.635366142 0.724671841
vt 0.635258675 0.735494494
vt 0.661087155 0.726403713
vt 0.66163075 0.724674106
vt 0.256548733 0.942958593
vt 0.22168088 0.975406766
vt 0.246755838 0.975435555
vt 0.221709311 0.903758049
vt 0.292467892 0.086573869
vt 0.392429799 0
vt 0.287791967 0.035947036
vt 0.310574204 0.282613277
vt 0.405581445 0.142394334
vt 0.423054099 0.331572801
vt 0.06547115 0.481898338
vt 0.28624934 0.372070163
vt 0 0.372070014
vt 0.476741254 0.441330522
vt 0.388666272 0.481898338
vt 0.367086053 0.334836423
vt 0.380522281 0.328647763
vt 0.491879761 0.0523672476
vt 0.520213544 0.280249268
vt 0.404255718 0.24058181
vt 0.40877369 0.223816991
vt 0.380945385 0
vt 0.0346259326 0
vt 0.0381761156 0.0552536026
vt 0.041954346 0.0374118052
vt 0.00262405397 0.16200836
vt 0 0.163211823
vt 0.0169627387 0.155430913
vt 2.0131228 0.85734266
vt 1.90170979 0.330478519
vt 1.91414273 0.906781852
vt 1.9814446 0.150423512
vt 1.99906719 0.205827713
vt 1.88400173 0.274806142
vt 1.85927653 0.197072446
vt 1.82329738 0.177767411
vt 1.76266372 0.145233646
vt 0.853977978 0.042863749
vt 0.809052646 0.186497033
vt 0.782186866 0.187659547
vt 1.91678882 0.0387491621
vt 1.84457183 0
vt 1.9519192 0.0575988404
vt 0.24647896 0
vt 0.106178969 0.100478366
vt 0.417248368 0.100478284
vt 0 0.100478284
vt 0.126585469 0
vn 0.923879445 0 -0.382683605
vn 0.923879445 0 -0.382683545
vn 0.923879445 0 -0.382683545
vn 0.92387861 1.56566671E-07 -0.382685691
vn 0.923879087 0 -0.382684499
vn -0 -0.38268581 -0.923878491
vn -0 -0.38268581 -0.923878491
vn -0 -0.38268581 -0.923878491
vn -0 -0.382684529 -0.923879087
vn -0 -0.382682711 -0.923879802
vn -0 -0.92387861 -0.38268581
vn -0 -0.92387861 -0.38268581
vn -0 -0.92387861 -0.38268581
vn -0 -0.923879087 -0.382684499
vn -0 -0.923879504 -0.382683516
vn 0.382683396 -0.923879504 0
vn 0.382683396 -0.923879504 0
vn 0.382683396 -0.923879504 0
vn 0.382684529 -0.923879087 0
vn 0.382684767 -0.923879027 0
vn 1 0 0
vn 1 0 0
vn 1 0 0
vn 1 0 0
vn 1 0 0
vn 1 0 0
vn -0 0 -1
vn -0 0 -1
vn -0 0 -1
vn -0 0 -1
vn -0 0 -1
vn -0 0 -1
vn -0 0 -1
vn 0.924932003 -0.268794358 -0.268794358
vn 0.924932003 -0.268794358 -0.268794358
vn 0.862855494 -0.357407629 -0.357407629
vn 0.924932003 -0.268794328 -0.268794328
vn 0.268794358 -0.268794358 -0.924932003
vn 0.268794358 -0.268794358 -0.924932003
vn 0.357407629 -0.357407629 -0.862855494
vn 0.268794328 -0.268794328 -0.924932003
vn 0.268794358 -0.924932003 -0.268794358
vn 0.268794358 -0.924932003 -0.268794358
vn 0.357407629 -0.862855494 -0.357407629
vn 0.268794328 -0.924932003 -0.268794328
vn -0.923879087 0 0.38268441
vn -0.923879087 0 0.38268429
vn -0.923879623 0 0.382683247
vn -0.923879087 0 0.38268441
vn -0.923878908 0 0.382684767
vn -0.382683396 -1.19220829E-07 0.923879504
vn -0.382683396 -1.19220829E-07 0.923879504
vn -0.382685006 0 0.923878789
vn -0.382683426 -1.19220843E-07 0.923879504
vn -0.382684767 0 0.923879027
vn -0 0.382683903 0.923879445
vn -0 0.382683903 0.923879445
vn -0 0.382683903 0.923879445
vn -0 0.382685542 0.923878729
vn -0 0.382686853 0.923878074
vn -0 0.923878014 0.382687062
vn -0 0.923878014 0.382687092
vn -0 0.923878014 0.382687181
vn -1.77237752E-07 0.923878789 0.382685155
vn -0 0.923879802 0.382682711
vn -0.923879087 0.38268438 -3.12546092E-07
vn -0.923879087 0.38268432 -3.12546092E-07
vn -0.923879087 0.38268438 -3.12546121E-07
vn -0.923879027 0.382684618 -1.93800872E-07
vn -0.923878014 0.382687271 0
vn -0.382673293 0.923883677 0.000138415897
vn -0.382673293 0.923883677 0.000138415882
vn -0.382673264 0.923883796 0.000138415911
vn -0.382685989 0.923878491 0
vn -0.382684737 0.923879027 -5.81127608E-07
vn -0.382678419 0.923881531 -1.29459195E-07
vn -0.862855494 0.357407749 0.35740748
vn -0.862855494 0.357407749 0.35740748
vn -0.924932003 0.268794507 0.268794328
vn -0.862855494 0.357407749 0.35740748
vn -0.357407629 0.357408553 0.862855077
vn -0.357407719 0.357408583 0.862855077
vn -0.268792897 0.268793732 0.924932599
vn -0.357407689 0.357408553 0.862855077
vn -0.357407928 0.862855077 0.357408196
vn -0.357407957 0.862855077 0.357408196
vn -0.268795311 0.924931407 0.26879555
vn -0.357408017 0.862855077 0.357408196
vn 0.382684559 0 -0.923879087
vn 0.382684529 0 -0.923879087
vn 0.382684529 0 -0.923879087
vn 0.382684529 0 -0.923879087
vn 0.382684559 0 -0.923879087
vn -1 0 0
vn -1 0 0
vn -1 0 0
vn -1 0 0
vn -1 -2.10531725E-05 4.3621425E-05
vn -1 -2.10531707E-05 4.3621425E-05
vn -1 -2.10531707E-05 4.3621425E-05
vn -0 -1 0
vn -0 -1 0
vn -0 -1 0
vn -0 -1 0
vn 7.72612168E-07 -3.38529645E-07 1
vn 7.72612111E-07 -3.38529617E-07 1
vn 7.72612282E-07 -3.38529645E-07 1
vn -0 0 1
vn -0 0 1
vn -0 -9.7132272E-07 1
vn -0 -9.7132272E-07 1
vn 0.788787007 -0.345616847 -0.508295238
vn 0.788787007 -0.345616788 -0.508295238
vn 0.788786948 -0.345616817 -0.508295238
vn 0.788786948 -0.345616847 -0.508295238
vn 0.519958556 0.622595608 -0.584822774
vn 0.519958556 0.622595668 -0.584822834
vn 0.519958556 0.622595668 -0.584822834
vn 0.519958794 0.622600198 -0.584817767
vn 0.519958377 0.622594953 -0.584823728
vn 0.519958138 0.622595012 -0.584823847
vn 0.519959271 0.622594655 -0.58482331
vn 0.519958675 0.622595549 -0.584822834
vn 0.519959927 0.622597337 -0.584819853
vn 0.519959867 0.622597337 -0.584819913
vn 0.519958735 0.622600198 -0.584817767
vn 0.519956052 0.622600615 -0.584819734
vn 0.519958675 0.622595549 -0.584822834
vn 0.519956052 0.622600675 -0.584819734
vn 0.923879087 -0.382684529 0
vn 0.923879087 -0.382684529 0
vn 0.923879087 -0.382684499 0
vn 0.923881471 -0.382678747 0
vn 0.923881471 -0.382678747 0
vn -0 1 0
vn -0 1 0
vn -0 1 0
vn -0 1 0
vn -0.366979957 0.227037489 -0.902097404
vn -0.366979957 0.227037489 -0.902097404
vn -0.366979957 0.227037489 -0.902097404
vn -0.366980076 0.227037683 -0.902097285
vn -0.366979808 0.227037564 -0.902097464
vn -0.366979897 0.227037653 -0.902097404
vn -0.262197495 0.413479805 -0.871944308
vn -0.262197495 0.413479775 -0.871944368
vn -0.262197524 0.413479775 -0.871944368
vn -0.262197614 0.413481057 -0.871943653
vn -0.262197644 0.413481086 -0.871943653
vn -0.262197435 0.41348058 -0.871943951
vn -0.262199432 0.413478851 -0.871944189
vn -0.262196153 0.413479865 -0.871944666
vn -0.262196183 0.413479865 -0.871944666
vn -0.262200058 0.413480639 -0.871943176
vn -0.262197554 0.413479835 -0.871944308
vn -0.262197554 0.413479835 -0.871944308
vn -0.366395891 0.438709438 -0.820541322
vn -0.366395891 0.438709438 -0.820541322
vn -0.366395891 0.438709497 -0.820541322
vn -0.36640954 0.438717932 -0.820530713
vn -0.366409481 0.438717902 -0.820530713
vn -0.366361976 0.438706458 -0.82055819
vn 0.0216227472 -0.706099212 -0.707782745
vn 0.0216227416 -0.706099093 -0.707782745
vn 0.0216227435 -0.706099093 -0.707782745
vn 0.0216251127 -0.706098735 -0.707783043
vn 0.0216251146 -0.706098855 -0.707782984
vn 0.0216236077 -0.706098437 -0.707783401
vn 0.0216256697 -0.706099629 -0.707782149
vn 0.0216248073 -0.706097841 -0.707783937
vn 0.0216251872 -0.706099749 -0.70778209
vn 0.0216251872 -0.70609802 -0.707783818
vn 0.0216251388 -0.706098914 -0.707782865
vn 0.0216259435 -0.706099093 -0.707782745
vn 0.0216227621 -0.706099808 -0.70778203
vn 0.0216251872 -0.70609802 -0.707783878
vn 0.0216227621 -0.706099808 -0.70778203
vn 0.756054997 -0.647210598 -0.0974636972
vn 0.756054997 -0.647210717 -0.0974636972
vn 0.756054997 -0.647210717 -0.0974636972
vn 0.756054938 -0.647210717 -0.0974638313
vn 0.756054819 -0.647210896 -0.097464323
g O_env_wh_glass_frag_013_0
f 3/3/3 2/2/2 1/1/1
f 2/2/2 4/4/4 1/1/1
f 4/4/4 5/5/5 1/1/1
f 8/8/8 7/7/7 6/6/6
f 7/7/7 9/9/9 6/6/6
f 10/10/10 9/9/9 7/7/7
f 13/13/13 12/12/12 11/11/11
f 12/12/12 14/14/14 11/11/11
f 15/15/15 14/14/14 12/12/12
f 18/18/18 17/17/17 16/16/16
f 17/17/17 19/19/19 16/16/16
f 20/20/20 19/19/19 17/17/17
f 23/23/23 22/22/22 21/21/21
f 22/22/22 24/24/24 21/21/21
f 24/24/24 25/25/25 21/21/21
f 26/26/26 25/25/25 24/24/24
f 29/29/29 28/28/28 27/27/27
f 28/28/28 30/30/30 27/27/27
f 31/31/31 30/30/30 28/28/28
f 32/32/32 31/31/31 28/28/28
f 33/33/33 32/32/32 28/28/28
f 36/36/36 35/35/35 34/34/34
f 37/37/37 34/34/34 35/35/35
f 40/40/40 39/39/39 38/38/38
f 41/41/41 38/38/38 39/39/39
f 44/44/44 43/43/43 42/42/42
f 45/45/45 42/42/42 43/43/43
f 48/48/48 47/47/47 46/46/46
f 47/47/47 49/49/49 46/46/46
f 49/49/49 50/50/50 46/46/46
f 53/53/53 52/52/52 51/51/51
f 51/51/51 52/52/52 54/54/54
f 52/52/52 55/55/55 54/54/54
f 58/58/58 57/57/57 56/56/56
f 57/57/57 59/59/59 56/56/56
f 60/60/60 59/59/59 57/57/57
f 63/63/63 62/62/62 61/61/61
f 62/62/62 64/64/64 61/61/61
f 65/65/65 64/64/64 62/62/62
f 68/68/68 67/67/67 66/66/66
f 67/67/67 69/69/69 66/66/66
f 69/69/69 70/70/70 66/66/66
f 73/73/73 72/72/72 71/71/71
f 72/72/72 74/74/74 71/71/71
f 75/75/75 74/74/74 72/72/72
f 76/76/76 75/75/75 72/72/72
f 79/79/79 78/78/78 77/77/77
f 80/80/80 77/77/77 78/78/78
f 83/83/83 82/82/82 81/81/81
f 84/84/84 81/81/81 82/82/82
f 87/87/87 86/86/86 85/85/85
f 88/88/88 85/85/85 86/86/86
f 91/91/91 90/90/90 89/89/89
f 90/90/90 92/92/92 89/89/89
f 93/93/93 92/92/92 90/90/90
f 96/96/96 95/95/95 94/94/94
f 95/95/95 97/97/97 94/94/94
f 97/97/97 98/98/98 94/94/94
f 98/98/98 99/99/99 94/94/94
f 100/100/100 99/99/99 98/98/98
f 103/103/103 102/102/102 101/101/101
f 104/104/104 101/101/101 102/102/102
f 107/107/107 106/106/106 105/105/105
f 106/106/106 108/108/108 105/105/105
f 109/109/109 108/108/108 106/106/106
f 108/108/108 110/110/110 105/105/105
f 110/110/110 111/111/111 105/105/105
f 114/114/114 113/113/113 112/112/112
f 115/115/115 112/112/112 113/113/113
f 118/118/118 117/117/117 116/116/116
f 117/117/117 119/119/119 116/116/116
f 120/120/120 119/119/119 117/117/117
f 121/121/121 119/119/119 120/120/120
f 122/122/122 119/119/119 121/121/121
f 123/123/123 119/119/119 122/122/122
f 119/119/119 124/124/124 116/116/116
f 124/124/124 125/125/125 116/116/116
f 126/126/126 124/124/124 119/119/119
f 127/127/127 119/119/119 123/123/123
f 128/128/128 127/127/127 123/123/123
f 129/129/129 119/119/119 127/127/127
f 132/132/132 131/131/131 130/130/130
f 131/131/131 133/133/133 130/130/130
f 134/134/134 133/133/133 131/131/131
f 137/137/137 136/136/136 135/135/135
f 138/138/138 135/135/135 136/136/136
f 141/141/141 140/140/140 139/139/139
f 140/140/140 142/142/142 139/139/139
f 143/143/143 142/142/142 140/140/140
f 144/144/144 142/142/142 143/143/143
f 147/147/147 146/146/146 145/145/145
f 146/146/146 148/148/148 145/145/145
f 148/148/148 149/149/149 145/145/145
f 150/150/150 148/148/148 146/146/146
f 151/151/151 148/148/148 150/150/150
f 152/152/152 148/148/148 151/151/151
f 153/153/153 148/148/148 152/152/152
f 154/154/154 152/152/152 151/151/151
f 155/155/155 152/152/152 154/154/154
f 156/156/156 152/152/152 155/155/155
f 159/159/159 158/158/158 157/157/157
f 158/158/158 160/160/160 157/157/157
f 160/160/160 161/161/161 157/157/157
f 162/162/162 160/160/160 158/158/158
f 165/165/165 164/164/164 163/163/163
f 164/164/164 166/166/166 163/163/163
f 166/166/166 167/167/167 163/163/163
f 168/168/168 166/166/166 164/164/164
f 169/169/169 166/166/166 168/168/168
f 170/170/170 166/166/166 169/169/169
f 171/171/171 166/166/166 170/170/170
f 172/172/172 166/166/166 171/171/171
f 173/173/173 172/172/172 171/171/171
f 174/174/174 172/172/172 173/173/173
f 175/175/175 166/166/166 172/172/172
f 176/176/176 175/175/175 172/172/172
f 177/177/177 166/166/166 175/175/175
f 180/180/180 179/179/179 178/178/178
f 179/179/179 181/181/181 178/178/178
f 181/181/181 182/182/182 178/178/178
