g pCube1
v 0.00825417228 0.0188269839 0.00499999989
v 0.0130555555 0.0188269839 0.00499999989
v 0.00652777776 0.0101403845 0.00499999989
v -0.00652777776 0.0101403845 0.00499999989
v -0 0.00145378464 0.00499999989
v -0.00825417414 0.0188269839 0.00499999989
v -0.0130555555 0.0188269839 0.00499999989
v 0.00825417228 0.0397802666 0.00499999989
v -0.00825417414 0.0397802666 0.00499999989
v -0.0130555555 0.0188269839 0.00499999989
v -0.0130555555 0.0188269839 -0.00499999989
v -0.00825417414 0.0188269839 -0.00499999989
v -0.00825417414 0.0188269839 0.00499999989
v -0.00825417414 0.0188269839 -0.00499999989
v -0.0130555555 0.0188269839 -0.00499999989
v -0.00652777776 0.0101403845 -0.00499999989
v 0.00652777776 0.0101403845 -0.00499999989
v -0 0.00145378464 -0.00499999989
v 0.00825417228 0.0188269839 -0.00499999989
v 0.0130555555 0.0188269839 -0.00499999989
v -0.00825417414 0.0397802666 -0.00499999989
v 0.00825417228 0.0397802666 -0.00499999989
v -0 0.00145378464 0.00499999989
v 0.00652777776 0.0101403845 -0.00499999989
v -0 0.00145378464 -0.00499999989
v 0.00652777776 0.0101403845 0.00499999989
v 0.0130555555 0.0188269839 -0.00499999989
v 0.0130555555 0.0188269839 0.00499999989
v -0 0.00145378464 -0.00499999989
v -0.00652777776 0.0101403845 0.00499999989
v -0 0.00145378464 0.00499999989
v -0.00652777776 0.0101403845 -0.00499999989
v -0.0130555555 0.0188269839 0.00499999989
v -0.0130555555 0.0188269839 -0.00499999989
v 0.00825417228 0.0188269839 0.00499999989
v 0.00825417228 0.0188269839 -0.00499999989
v 0.0130555555 0.0188269839 -0.00499999989
v 0.0130555555 0.0188269839 0.00499999989
v -0.00825417414 0.0397802666 0.00499999989
v -0.00825417414 0.0397802666 -0.00499999989
v 0.00825417228 0.0397802666 -0.00499999989
v 0.00825417228 0.0397802666 0.00499999989
v 0.00825417228 0.0188269839 0.00499999989
v 0.00825417228 0.0397802666 0.00499999989
v 0.00825417228 0.0397802666 -0.00499999989
v 0.00825417228 0.0188269839 -0.00499999989
v -0.00825417414 0.0188269839 -0.00499999989
v -0.00825417414 0.0397802666 -0.00499999989
v -0.00825417414 0.0397802666 0.00499999989
v -0.00825417414 0.0188269839 0.00499999989
vt 0.817727566 0.453294873
vt 0.998733521 0.453294873
vt 0.752644539 0.226647437
vt 0.260467052 0.226647437
vt 0.506555796 0
vt 0.195384145 0.453294873
vt 0.01437819 0.453294873
vt 0.817727566 1
vt 0.195384145 1
vt 0.0138451159 0.433623075
vt 0.0138451159 0.466969192
vt 0.205100268 0.466969192
vt 0.205100268 0.433623075
vt 0.195384145 0.453294873
vt 0.01437819 0.453294873
vt 0.260467052 0.226647437
vt 0.752644539 0.226647437
vt 0.506555796 0
vt 0.817727566 0.453294873
vt 0.998733521 0.453294873
vt 0.195384145 1
vt 0.817727566 1
vt 0.0181261301 0
vt 0.421595275 0.226647437
vt 0.421595275 0
vt 0.0181261301 0.226647437
vt 0.421595275 0.453294873
vt 0.0181261301 0.453294873
vt 0.421595275 0
vt 0.0181261301 0.226647437
vt 0.0181261301 0
vt 0.421595275 0.226647437
vt 0.0181261301 0.453294873
vt 0.421595275 0.453294873
vt 0.797259688 0.433623075
vt 0.797259688 0.466969192
vt 0.988514781 0.466969192
vt 0.988514781 0.433623075
vt 0.040058285 0.922149658
vt 0.040058285 0.997840106
vt 0.82210958 0.997840106
vt 0.82210958 0.922149658
vt 0.0181261301 0.453294873
vt 0.0181261301 1
vt 0.421595275 1
vt 0.421595275 0.453294873
vt 0.421595275 0.453294873
vt 0.421595275 1
vt 0.0181261301 1
vt 0.0181261301 0.453294873
vn -0 0 1
vn -0 0 1
vn -0 0 1
vn -0 0 1
vn -0 0 1
vn -0 0 1
vn -0 0 1
vn -0 0 1
vn -0 0 1
vn -0 1 0
vn -0 1 0
vn -0 1 0
vn -0 1 0
vn -0 0 -1
vn -0 0 -1
vn -0 0 -1
vn -0 0 -1
vn -0 0 -1
vn -0 0 -1
vn -0 0 -1
vn -0 0 -1
vn -0 0 -1
vn 0.799432933 -0.600755394 0
vn 0.799432933 -0.600755394 0
vn 0.799432933 -0.600755394 0
vn 0.799432933 -0.600755394 0
vn 0.799432933 -0.600755394 0
vn 0.799432933 -0.600755394 0
vn -0.799432933 -0.600755394 0
vn -0.799432933 -0.600755394 0
vn -0.799432933 -0.600755394 0
vn -0.799432933 -0.600755394 0
vn -0.799432933 -0.600755394 0
vn -0.799432933 -0.600755394 0
vn -0 1 0
vn -0 1 0
vn -0 1 0
vn -0 1 0
vn -0 1 0
vn -0 1 0
vn -0 1 0
vn -0 1 0
vn 1 0 0
vn 1 0 0
vn 1 0 0
vn 1 0 0
vn -1 0 0
vn -1 0 0
vn -1 0 0
vn -1 0 0
g pCube1_0
f 3/3/3 2/2/2 1/1/1
f 3/3/3 1/1/1 4/4/4
f 3/3/3 4/4/4 5/5/5
f 1/1/1 6/6/6 4/4/4
f 6/6/6 7/7/7 4/4/4
f 1/1/1 8/8/8 6/6/6
f 8/8/8 9/9/9 6/6/6
f 12/12/12 11/11/11 10/10/10
f 13/13/13 12/12/12 10/10/10
f 16/16/16 15/15/15 14/14/14
f 17/17/17 16/16/16 14/14/14
f 17/17/17 18/18/18 16/16/16
f 19/19/19 17/17/17 14/14/14
f 19/19/19 20/20/20 17/17/17
f 14/14/14 21/21/21 19/19/19
f 21/21/21 22/22/22 19/19/19
f 25/25/25 24/24/24 23/23/23
f 24/24/24 26/26/26 23/23/23
f 24/24/24 27/27/27 26/26/26
f 27/27/27 28/28/28 26/26/26
f 31/31/31 30/30/30 29/29/29
f 30/30/30 32/32/32 29/29/29
f 30/30/30 33/33/33 32/32/32
f 33/33/33 34/34/34 32/32/32
f 37/37/37 36/36/36 35/35/35
f 38/38/38 37/37/37 35/35/35
f 41/41/41 40/40/40 39/39/39
f 42/42/42 41/41/41 39/39/39
f 45/45/45 44/44/44 43/43/43
f 46/46/46 45/45/45 43/43/43
f 49/49/49 48/48/48 47/47/47
f 50/50/50 49/49/49 47/47/47
