g Plane001
v -0.0396672972 0.866796494 0
v -1.0542742 1.44101477 0
v -0.0532689057 1.44101477 0
v -0.759524703 0.866796494 0
v -0.790126681 0.858445466 0
v -1.20276701 1.40832961 0
v -0.814703941 0.838272095 0
v -1.32675409 1.32026756 0
v -0.832737327 0.81226474 0
v -1.4118402 1.19429195 0
v -0.83856374 0.781160176 0
v -1.44101477 1.04510021 0
v -1.44101477 -1.05341148 0
v -0.83856374 -0.727951884 0
v -0.830450058 -0.758601367 0
v -1.4086597 -1.20197022 0
v -0.810477793 -0.783313036 0
v -1.32087731 -1.32614434 0
v -0.784604788 -0.801547468 0
v -1.19508862 -1.41151011 0
v -0.753547788 -0.807611346 0
v -1.04596293 -1.44101477 0
v 1.05254889 -1.44101477 0
v 0.755564272 -0.807611346 0
v 0.786260724 -0.799735069 0
v 1.20117295 -1.40898991 0
v 0.81110698 -0.779964387 0
v 1.32553399 -1.32148767 0
v 0.829542875 -0.75422585 0
v 1.4111799 -1.19588578 0
v 0.83584404 -0.723216295 0
v 1.44101477 -1.04682636 0
v 1.44101477 1.05168593 0
v 0.83584404 0.785896122 0
v 0.828205228 0.816639781 0
v 1.40932012 1.2003758 0
v 0.80863589 0.841620445 0
v 1.32209802 1.32492363 0
v 0.783032358 0.860257566 0
v 1.19668376 1.41084945 0
v 0.752069473 0.866796494 0
v 1.04768908 1.44101477 0
v -0.0532458089 1.44101477 0
v -0.0396506861 0.866796494 0
vt -8.94069672E-07 1.35102539E-07
vt 0.999999106 0.100000046
vt 0.999999106 5.96046448E-08
vt -8.94069672E-07 0.100000121
vt -8.94069672E-07 0.110000119
vt 0.999999106 0.110000044
vt -8.94069672E-07 0.120000117
vt 0.999999106 0.120000042
vt -8.94069672E-07 0.130000114
vt 0.999999106 0.13000004
vt -8.94069672E-07 0.14000012
vt 0.999999106 0.140000045
vt 0.999999106 0.349999994
vt -8.94069672E-07 0.350000083
vt -8.94069672E-07 0.360000074
vt 0.999999106 0.359999985
vt -8.94069672E-07 0.370000064
vt 0.999999106 0.369999975
vt -8.94069672E-07 0.380000055
vt 0.999999106 0.379999965
vt -8.94069672E-07 0.390000045
vt 0.999999106 0.389999956
vt 0.999999166 0.599999785
vt -8.34465027E-07 0.599999845
vt -8.34465027E-07 0.609999835
vt 0.999999166 0.609999776
vt -8.34465027E-07 0.619999826
vt 0.999999166 0.619999766
vt -8.34465027E-07 0.629999816
vt 0.999999166 0.629999757
vt -8.34465027E-07 0.639999807
vt 0.999999166 0.639999747
vt 0.999999166 0.849999547
vt -8.34465027E-07 0.849999607
vt -8.34465027E-07 0.859999597
vt 0.999999166 0.859999537
vt -8.34465027E-07 0.869999588
vt 0.999999166 0.869999528
vt -8.34465027E-07 0.879999578
vt 0.999999166 0.879999518
vt -8.34465027E-07 0.889999568
vt 0.999999166 0.889999509
vt 0.999999166 0.999999404
vt -8.34465027E-07 0.999999464
vn -0 0 1
vn -0 0 1
vn -0 0 1
vn -0 0 1
vn -0 0 1
vn -0 0 1
vn -0 0 1
vn -0 0 1
vn -0 0 1
vn -0 0 1
vn -0 0 1
vn -0 0 1
vn -0 0 1
vn -0 0 1
vn -0 0 1
vn -0 0 1
vn -0 0 1
vn -0 0 1
vn -0 0 1
vn -0 0 1
vn -0 0 1
vn -0 0 1
vn -0 0 1
vn -0 0 1
vn -0 0 1
vn -0 0 1
vn -0 0 1
vn -0 0 1
vn -0 0 1
vn -0 0 1
vn -0 0 1
vn -0 0 1
vn -0 0 1
vn -0 0 1
vn -0 0 1
vn -0 0 1
vn -0 0 1
vn -0 0 1
vn -0 0 1
vn -0 0 1
vn -0 0 1
vn -0 0 1
vn -0 0 1
vn -0 0 1
g Plane001_0
f 3/3/3 2/2/2 1/1/1
f 4/4/4 1/1/1 2/2/2
f 4/4/4 2/2/2 5/5/5
f 6/6/6 5/5/5 2/2/2
f 5/5/5 6/6/6 7/7/7
f 8/8/8 7/7/7 6/6/6
f 7/7/7 8/8/8 9/9/9
f 10/10/10 9/9/9 8/8/8
f 9/9/9 10/10/10 11/11/11
f 12/12/12 11/11/11 10/10/10
f 12/12/12 13/13/13 11/11/11
f 14/14/14 11/11/11 13/13/13
f 14/14/14 13/13/13 15/15/15
f 16/16/16 15/15/15 13/13/13
f 15/15/15 16/16/16 17/17/17
f 18/18/18 17/17/17 16/16/16
f 17/17/17 18/18/18 19/19/19
f 20/20/20 19/19/19 18/18/18
f 19/19/19 20/20/20 21/21/21
f 22/22/22 21/21/21 20/20/20
f 22/22/22 23/23/23 21/21/21
f 24/24/24 21/21/21 23/23/23
f 24/24/24 23/23/23 25/25/25
f 26/26/26 25/25/25 23/23/23
f 25/25/25 26/26/26 27/27/27
f 28/28/28 27/27/27 26/26/26
f 27/27/27 28/28/28 29/29/29
f 30/30/30 29/29/29 28/28/28
f 29/29/29 30/30/30 31/31/31
f 32/32/32 31/31/31 30/30/30
f 32/32/32 33/33/33 31/31/31
f 34/34/34 31/31/31 33/33/33
f 34/34/34 33/33/33 35/35/35
f 36/36/36 35/35/35 33/33/33
f 35/35/35 36/36/36 37/37/37
f 38/38/38 37/37/37 36/36/36
f 37/37/37 38/38/38 39/39/39
f 40/40/40 39/39/39 38/38/38
f 39/39/39 40/40/40 41/41/41
f 42/42/42 41/41/41 40/40/40
f 42/42/42 43/43/43 41/41/41
f 44/44/44 41/41/41 43/43/43
