g Plane004
v 0.72467345 0.0983626023 0.0237827599
v 0.703971386 -0.0833224356 0.207122579
v 0.72467345 0.114823997 0.107004382
v 0.691756964 -0.114488743 0.0873950273
v 0.72467345 0.0819015875 -0.0594388619
v 0.654551923 -0.270474583 0.319331557
v 0.679542482 -0.145655066 -0.0323326252
v 0.72467345 0.0654401928 -0.142660514
v 0.667328 -0.176821381 -0.152060241
v 0.615274012 -0.308632314 0.169729844
v 0.553913951 -0.438618958 0.438026696
v 0.575996161 -0.346790463 0.0201281011
v 0.536718369 -0.384948581 -0.129473567
v 0.485588759 -0.468697757 0.263519466
v 0.408036858 -0.571427882 0.559595466
v 0.417263567 -0.498776525 0.0890121162
v 0.348938435 -0.528855324 -0.0854951814
v 0.315278828 -0.580021203 0.364931345
v 0.229057863 -0.654841006 0.68269521
v 0.222520784 -0.588614464 0.170267269
v 0.129762769 -0.597207725 -0.0243968386
v 0.121441618 -0.632157505 0.472407579
v 0.0343668349 -0.679541469 0.806610584
v 0.0138253309 -0.609474421 0.262119889
v -0.0937909335 -0.586790919 0.0518322289
v -0.0758042857 -0.620603979 0.58509618
v -0.155707404 -0.643007278 0.930859268
v -0.185975462 -0.561666489 0.363581687
v -0.296146661 -0.502729356 0.142067149
v -0.255577564 -0.547820032 0.702455223
v -0.320897847 -0.550305545 1.05506122
v -0.355448157 -0.452632844 0.474051446
v -0.455319107 -0.357444853 0.245648012
v -0.398809761 -0.423273772 0.824104726
v -0.444016218 -0.413498789 1.17891383
v -0.476721734 -0.296241999 0.593148053
v -0.554633737 -0.16921021 0.362191349
v -0.490707725 -0.26246497 0.949767113
v -0.513367176 -0.249875054 1.30219996
v -0.537399292 -0.111431181 0.720620275
v -0.584090769 0.039602235 0.491473496
v -0.522694588 -0.0850587636 1.07924235
v -0.524173796 -0.0794300362 1.42482972
v -0.532021999 0.079757534 0.856284618
v -0.541349411 0.244573832 0.633327007
v -0.493522286 0.0875938758 1.21240568
v -0.488268644 0.0680020526 1.53548658
v -0.462870538 0.25461778 0.999981761
v -0.432219207 0.42164132 0.787557364
v -0.412263215 0.231562614 1.3454479
v -0.39818126 0.195046619 1.65598142
v -0.336257815 0.395123154 1.1554091
v -0.260252416 0.558683693 0.965370417
v -0.286171377 0.335516721 1.48568344
v -0.274778187 0.279307753 1.77729595
v -0.174160928 0.475987226 1.31538582
v -0.0621507615 0.616457701 1.14508808
v -0.136793047 0.386538416 1.62992013
v -0.134377912 0.313206077 1.90060353
v 0.0011916908 0.493769079 1.48254406
v 0.139177129 0.600999713 1.33516848
v 0.0158579946 0.381093413 1.77849567
v -0.00741473632 0.302670658 2.01131988
v 0.16609332 0.448981106 1.65638709
v 0.316328883 0.516868472 1.53427887
v 0.146740526 0.324389875 1.92663276
v 0.116356216 0.235588714 2.1457262
v 0.30089581 0.346108705 1.84194553
v 0.455051094 0.367827922 1.75725818
v 0.247775301 0.222806171 2.08631396
v 0.214954168 0.113266729 2.29492736
v 0.312139869 0.0909188688 2.25381541
v 0.379194438 0.210023224 2.02690172
v 0.51061362 0.197240278 1.96748936
v 0.40932554 0.0685713962 2.21270347
v 0.506511152 0.0462239236 2.17159176
vt 0.988449216 0.662816525
vt 0.934177041 0.988449097
vt 0.988448977 0.988449097
vt 0.934177041 0.662816525
vt 0.988449216 0.337183863
vt 0.879904866 0.988449097
vt 0.934177041 0.337183863
vt 0.988449216 0.0115512256
vt 0.93417716 0.0115512181
vt 0.879904866 0.662816525
vt 0.825632691 0.988449097
vt 0.879904985 0.337183863
vt 0.879904985 0.0115512181
vt 0.825632811 0.662816525
vt 0.771360636 0.988449097
vt 0.825632811 0.337183863
vt 0.825632811 0.0115511967
vt 0.771360755 0.662816525
vt 0.71708858 0.988449097
vt 0.771360755 0.337183833
vt 0.771360755 0.0115511967
vt 0.71708858 0.662816525
vt 0.662816525 0.988449097
vt 0.71708858 0.337183833
vt 0.71708858 0.0115511967
vt 0.662816405 0.662816525
vt 0.60854435 0.988449097
vt 0.662816525 0.337183863
vt 0.662816644 0.0115511967
vt 0.60854435 0.662816525
vt 0.554272175 0.988449097
vt 0.60854435 0.337183863
vt 0.60854435 0.0115511892
vt 0.554272294 0.662816525
vt 0.500000119 0.988449097
vt 0.554272294 0.337183863
vt 0.554272413 0.0115511678
vt 0.500000179 0.662816525
vt 0.445727915 0.988449097
vt 0.500000119 0.337183833
vt 0.500000238 0.0115511678
vt 0.445728034 0.662816525
vt 0.391455799 0.988449097
vt 0.445728034 0.337183833
vt 0.445728034 0.0115511743
vt 0.391455859 0.662816405
vt 0.337183714 0.988449097
vt 0.391455829 0.337183833
vt 0.391455889 0.0115511678
vt 0.337183774 0.662816405
vt 0.282911569 0.988449097
vt 0.337183774 0.337183833
vt 0.337183803 0.0115511455
vt 0.282911628 0.662816405
vt 0.228639424 0.988449097
vt 0.282911599 0.337183833
vt 0.282911688 0.0115511529
vt 0.228639483 0.662816405
vt 0.174367264 0.988449097
vt 0.228639483 0.337183833
vt 0.228639513 0.0115511529
vt 0.174367324 0.662816405
vt 0.120095111 0.988449097
vt 0.174367324 0.337183774
vt 0.174367368 0.011551138
vt 0.120095223 0.662816405
vt 0.0658229589 0.988449097
vt 0.120095208 0.337183774
vt 0.120095268 0.011551124
vt 0.0658230186 0.662816405
vt 0.0115508176 0.988449097
vt 0.0115508689 0.662816405
vt 0.0658230707 0.337183774
vt 0.0658231303 0.011551124
vt 0.0115509201 0.337183774
vt 0.0115509713 0.0115511166
vn 0.986867547 -0.160049111 -0.0218345355
vn 0.962835968 -0.262910396 -0.0618475117
vn 0.989818871 -0.139793888 -0.0267653149
vn 0.959140897 -0.278786987 -0.0482351072
vn 0.980739236 -0.194868714 -0.0132944109
vn 0.851759613 -0.512202621 -0.11024572
vn 0.941734016 -0.334907323 -0.0312090125
vn 0.976922989 -0.213414073 -0.00871236902
vn 0.922570705 -0.385017753 -0.0249936264
vn 0.839996397 -0.534821451 -0.0914990008
vn 0.648687541 -0.748189867 -0.139342755
vn 0.790084064 -0.610084116 -0.0597037934
vn 0.747760475 -0.662438929 -0.0450436361
vn 0.623877883 -0.772782505 -0.116549
vn 0.383870512 -0.910350442 -0.154614031
vn 0.540732741 -0.838018179 -0.0730310902
vn 0.480185419 -0.875664115 -0.0513255931
vn 0.34501937 -0.929887295 -0.127559245
vn 0.0826883465 -0.983934581 -0.158225983
vn 0.233804524 -0.969545007 -0.0729239658
vn 0.161702603 -0.985813439 -0.0449901372
vn 0.0322226845 -0.991417527 -0.126700372
vn -0.226156816 -0.962258637 -0.151365399
vn -0.0953748152 -0.993536234 -0.0615586713
vn -0.16990146 -0.985057175 -0.0282114018
vn -0.282821059 -0.952229977 -0.115196779
vn -0.513222873 -0.847613513 -0.134735674
vn -0.410684973 -0.910884261 -0.0403471105
vn -0.477819979 -0.878454149 -0.00253894087
vn -0.568512976 -0.817305028 -0.0938376188
vn -0.751037419 -0.651241124 -0.108755797
vn -0.67905277 -0.73401618 -0.010363481
vn -0.730225384 -0.682512105 0.0307922382
vn -0.796466947 -0.601369977 -0.0632023886
vn -0.916791379 -0.392509609 -0.0736872628
vn -0.873994708 -0.485159755 0.0274484828
vn -0.903570652 -0.422565758 0.0706987157
vn -0.944531381 -0.327557206 -0.0238067508
vn -0.994811177 -0.0972883627 -0.0297614485
vn -0.978444874 -0.193493381 0.0721524879
vn -0.984786928 -0.129239872 0.116154335
vn -0.999403358 -0.0250620507 0.0237663127
vn -0.979577959 0.200491548 0.0151659371
vn -0.986483991 0.10856124 0.122734897
vn -0.972107351 0.165557757 0.166126266
vn -0.958993018 0.273370862 0.074838914
vn -0.876425624 0.476365268 0.0703858659
vn -0.903166652 0.390535474 0.178247333
vn -0.874154449 0.432917446 0.220083252
vn -0.829721093 0.5412395 0.136465147
vn -0.692955017 0.707074404 0.140922368
vn -0.74081099 0.625976086 0.243624687
vn -0.701598763 0.653030992 0.28514871
vn -0.630746961 0.748051941 0.206341207
vn -0.461681098 0.861260176 0.212323681
vn -0.527066708 0.791107595 0.310402274
vn -0.486488998 0.800478816 0.350088805
vn -0.394563615 0.876797438 0.274855644
vn -0.209659696 0.936705589 0.280402124
vn -0.294952065 0.880634785 0.37079069
vn -0.261422962 0.875700533 0.405963808
vn -0.146174997 0.928615987 0.341035336
vn 0.032636907 0.936954498 0.347923994
vn -0.0643480718 0.900673687 0.429704905
vn -0.0430488773 0.887060583 0.459641576
vn 0.0865763277 0.909653366 0.406245202
vn 0.240263119 0.870285511 0.429973125
vn 0.140714303 0.86249125 0.486115605
vn 0.15326941 0.844409168 0.513304651
vn 0.268554866 0.841111302 0.469478697
vn 0.335231215 0.811402857 0.478795946
vn 0.341390014 0.797324598 0.497721285
vn 0.292338252 0.801472366 0.521709025
vn 0.295503736 0.785729587 0.543421149
vn 0.351410866 0.772258937 0.529269874
vn 0.356381536 0.75870055 0.545312583
g Plane004_0
f 3/3/3 2/2/2 1/1/1
f 2/2/2 4/4/4 1/1/1
f 1/1/1 4/4/4 5/5/5
f 2/2/2 6/6/6 4/4/4
f 4/4/4 7/7/7 5/5/5
f 5/5/5 7/7/7 8/8/8
f 7/7/7 9/9/9 8/8/8
f 6/6/6 10/10/10 4/4/4
f 4/4/4 10/10/10 7/7/7
f 6/6/6 11/11/11 10/10/10
f 7/7/7 12/12/12 9/9/9
f 10/10/10 12/12/12 7/7/7
f 12/12/12 13/13/13 9/9/9
f 11/11/11 14/14/14 10/10/10
f 10/10/10 14/14/14 12/12/12
f 11/11/11 15/15/15 14/14/14
f 12/12/12 16/16/16 13/13/13
f 14/14/14 16/16/16 12/12/12
f 16/16/16 17/17/17 13/13/13
f 15/15/15 18/18/18 14/14/14
f 14/14/14 18/18/18 16/16/16
f 15/15/15 19/19/19 18/18/18
f 16/16/16 20/20/20 17/17/17
f 18/18/18 20/20/20 16/16/16
f 20/20/20 21/21/21 17/17/17
f 19/19/19 22/22/22 18/18/18
f 18/18/18 22/22/22 20/20/20
f 19/19/19 23/23/23 22/22/22
f 20/20/20 24/24/24 21/21/21
f 22/22/22 24/24/24 20/20/20
f 24/24/24 25/25/25 21/21/21
f 23/23/23 26/26/26 22/22/22
f 22/22/22 26/26/26 24/24/24
f 23/23/23 27/27/27 26/26/26
f 24/24/24 28/28/28 25/25/25
f 26/26/26 28/28/28 24/24/24
f 28/28/28 29/29/29 25/25/25
f 27/27/27 30/30/30 26/26/26
f 26/26/26 30/30/30 28/28/28
f 27/27/27 31/31/31 30/30/30
f 28/28/28 32/32/32 29/29/29
f 30/30/30 32/32/32 28/28/28
f 32/32/32 33/33/33 29/29/29
f 31/31/31 34/34/34 30/30/30
f 30/30/30 34/34/34 32/32/32
f 31/31/31 35/35/35 34/34/34
f 32/32/32 36/36/36 33/33/33
f 34/34/34 36/36/36 32/32/32
f 36/36/36 37/37/37 33/33/33
f 35/35/35 38/38/38 34/34/34
f 34/34/34 38/38/38 36/36/36
f 35/35/35 39/39/39 38/38/38
f 36/36/36 40/40/40 37/37/37
f 38/38/38 40/40/40 36/36/36
f 40/40/40 41/41/41 37/37/37
f 39/39/39 42/42/42 38/38/38
f 38/38/38 42/42/42 40/40/40
f 39/39/39 43/43/43 42/42/42
f 40/40/40 44/44/44 41/41/41
f 42/42/42 44/44/44 40/40/40
f 44/44/44 45/45/45 41/41/41
f 43/43/43 46/46/46 42/42/42
f 42/42/42 46/46/46 44/44/44
f 43/43/43 47/47/47 46/46/46
f 44/44/44 48/48/48 45/45/45
f 46/46/46 48/48/48 44/44/44
f 48/48/48 49/49/49 45/45/45
f 47/47/47 50/50/50 46/46/46
f 46/46/46 50/50/50 48/48/48
f 47/47/47 51/51/51 50/50/50
f 48/48/48 52/52/52 49/49/49
f 50/50/50 52/52/52 48/48/48
f 52/52/52 53/53/53 49/49/49
f 51/51/51 54/54/54 50/50/50
f 50/50/50 54/54/54 52/52/52
f 51/51/51 55/55/55 54/54/54
f 52/52/52 56/56/56 53/53/53
f 54/54/54 56/56/56 52/52/52
f 56/56/56 57/57/57 53/53/53
f 55/55/55 58/58/58 54/54/54
f 54/54/54 58/58/58 56/56/56
f 55/55/55 59/59/59 58/58/58
f 56/56/56 60/60/60 57/57/57
f 58/58/58 60/60/60 56/56/56
f 60/60/60 61/61/61 57/57/57
f 59/59/59 62/62/62 58/58/58
f 58/58/58 62/62/62 60/60/60
f 59/59/59 63/63/63 62/62/62
f 60/60/60 64/64/64 61/61/61
f 62/62/62 64/64/64 60/60/60
f 64/64/64 65/65/65 61/61/61
f 63/63/63 66/66/66 62/62/62
f 62/62/62 66/66/66 64/64/64
f 63/63/63 67/67/67 66/66/66
f 64/64/64 68/68/68 65/65/65
f 66/66/66 68/68/68 64/64/64
f 68/68/68 69/69/69 65/65/65
f 67/67/67 70/70/70 66/66/66
f 66/66/66 70/70/70 68/68/68
f 67/67/67 71/71/71 70/70/70
f 71/71/71 72/72/72 70/70/70
f 68/68/68 73/73/73 69/69/69
f 70/70/70 73/73/73 68/68/68
f 70/70/70 72/72/72 73/73/73
f 73/73/73 74/74/74 69/69/69
f 72/72/72 75/75/75 73/73/73
f 73/73/73 75/75/75 74/74/74
f 75/75/75 76/76/76 74/74/74
