g Plane002
v -0.0344355926 -0.474999994 3.27436886E-08
v -0.177731961 -0.219875172 3.27436886E-08
v -0 -0.474999994 3.27436886E-08
v -0 0.474999994 3.27436886E-08
v 0.177731961 -0.219875172 3.27436886E-08
v 0.0344355926 -0.474999994 3.27436886E-08
v -0.295728147 0.272224188 1.29958222E-08
v -0.275935084 -0.109647155 3.27436886E-08
v -0.350991845 0.052688621 3.27436886E-08
v -0.350991845 0.158989906 3.27436886E-08
v -0.158444136 0.411512285 -3.27436886E-08
v 0.295728147 0.272224188 1.29958222E-08
v 0.158444136 0.411512285 -3.27436886E-08
v 0.275935084 -0.109647155 3.27436886E-08
v 0.350991845 0.052688621 3.27436886E-08
v 0.350991845 0.158989906 3.27436886E-08
vt 0.367398977 0.0637317896
vt 0.631863296 0.217971325
vt 0.326269209 0.0807763934
vt 0.673730731 0.919223666
vt 0.207298338 0.393915594
vt 0.285139441 0.0978209972
vt 0.952782333 0.593881726
vt 0.78947264 0.266648233
vt 0.938494384 0.372770905
vt 0.977374017 0.466589868
vt 0.839755356 0.784765601
vt 0.246348888 0.886635363
vt 0.461264908 0.941616058
vt 0.130320609 0.539807916
vt 0.100047141 0.720232427
vt 0.138926715 0.81405139
vn -0 0 1
vn -0 0 1
vn -0 0 1
vn -0 2.37329914E-07 1
vn -0 0 1
vn -0 0 1
vn -0 1.06669084E-07 1
vn -0 0 1
vn 1.47035323E-07 0 1
vn 3.57338791E-07 0 1
vn -9.00548628E-07 1.21597202E-06 1
vn -0 1.06669056E-07 1
vn 9.00548343E-07 1.21597168E-06 1
vn -0 0 1
vn -1.47035365E-07 0 1
vn -3.5733882E-07 0 1
g Plane002_0
f 3/3/3 2/2/2 1/1/1
f 4/4/4 2/2/2 3/3/3
f 4/4/4 3/3/3 5/5/5
f 5/5/5 3/3/3 6/6/6
f 7/7/7 2/2/2 4/4/4
f 8/8/8 2/2/2 7/7/7
f 9/9/9 8/8/8 7/7/7
f 10/10/10 9/9/9 7/7/7
f 11/11/11 7/7/7 4/4/4
f 12/12/12 4/4/4 5/5/5
f 13/13/13 4/4/4 12/12/12
f 14/14/14 12/12/12 5/5/5
f 15/15/15 12/12/12 14/14/14
f 16/16/16 12/12/12 15/15/15
