g Tube001
v 0.503510177 0.503510296 0.0884270519
v 0.503510237 -0.503510177 0.0884270519
v 0.434923887 -0.434923798 0.0884270519
v 0.434923798 0.434923887 0.0884270519
v 0.503510237 -0.503510177 0.0884270519
v -0.434923828 -0.434923828 0.0884270519
v -0.503510177 -0.503510177 0.0884270519
v -0.503510177 -0.503510177 0.0884270519
v -0.434923887 0.434923887 0.0884270519
v -0.503510237 0.503510237 0.0884270519
v -0.503510237 0.503510237 0.0884270519
v 0.434923798 0.434923887 0.0884270519
v 0.503510177 0.503510296 0.0884270519
vt 0.0154258609 0.0248790383
vt 0.0154258609 0.265105128
vt 0.986919105 0.265105128
vt 0.986919105 0.0248790383
vt 0.0154258609 0.265105128
vt 0.986919105 0.505331218
vt 0.0154258609 0.505331218
vt 0.0154258609 0.505331218
vt 0.986919105 0.745557308
vt 0.0154258609 0.745557308
vt 0.0154258609 0.745557308
vt 0.986919105 0.985783398
vt 0.0154258609 0.985783398
vn -0 0 1
vn -0 0 1
vn -0 0 1
vn -0 0 1
vn -0 0 1
vn -0 0 1
vn -0 0 1
vn -0 0 1
vn -0 0 1
vn -0 0 1
vn -0 0 1
vn -0 0 1
vn -0 0 1
g Tube001_0
f 3/3/3 2/2/2 1/1/1
f 4/4/4 3/3/3 1/1/1
f 3/3/3 6/6/6 5/5/5
f 6/6/6 7/7/7 5/5/5
f 6/6/6 9/9/9 8/8/8
f 9/9/9 10/10/10 8/8/8
f 9/9/9 12/12/12 11/11/11
f 12/12/12 13/13/13 11/11/11
