g O_env_zhalan_09
v 0.0814642534 0.774577796 -0.00928547326
v 0.0563106984 0.774577796 0.0746221021
v -0.0666498914 0.852487981 0.0337522179
v -0.0437018536 0.852487981 -0.0427981466
v -0.166780323 0.741952956 -0.0837033838
v -0.191932946 0.741952956 0.000204563141
v -0.122716561 0.401455998 -0.0597230718
v -0.166780323 0.741952956 -0.0837033838
v -0.191932946 0.741952956 0.000204563141
v -0.141944826 0.401455998 0.00441884017
v -0.160464361 0.00434492994 -0.0644276589
v -0.17605564 0.00434492994 -0.0124181267
v 0.0563106984 0.774577796 0.0746221021
v 0.0814642534 0.774577796 -0.00928547326
v 0.0267822929 0.00434494996 0.0483878776
v 0.0423735604 0.00434494996 -0.0036216639
v -0.166780323 0.741952956 -0.0837033838
v 0.0814642534 0.774577796 -0.00928547326
v -0.0437018536 0.852487981 -0.0427981466
v -0.122716561 0.401455998 -0.0597230718
v 0.0423735604 0.00434494996 -0.0036216639
v -0.160464361 0.00434492994 -0.0644276589
v 0.0563106984 0.774577796 0.0746221021
v -0.191932946 0.741952956 0.000204563141
v -0.0666498914 0.852487981 0.0337522179
v -0.141944826 0.401455998 0.00441884017
v 0.0267822929 0.00434494996 0.0483878776
v -0.17605564 0.00434492994 -0.0124181267
v -0.618725598 0.79373467 -0.148677975
v -0.589941978 0.786883175 -0.244696155
v -0.51842916 0.875625908 -0.126181677
v -0.489539623 0.868749082 -0.222551614
v -0.393407494 0.78650701 -0.185704678
v -0.422191411 0.793358505 -0.089686662
v -0.589941978 0.786883175 -0.244696155
v -0.618725598 0.79373467 -0.148677975
v -0.591750383 0.00293314015 -0.172657549
v -0.611449361 0.00762218982 -0.106945261
v -0.422191411 0.793358505 -0.089686662
v -0.393407494 0.78650701 -0.185704678
v -0.451241434 0.00762220006 -0.0589186475
v -0.431542546 0.00293314992 -0.124630965
v -0.591750383 0.00293314015 -0.172657549
v -0.431542546 0.00293314992 -0.124630965
v -0.393407494 0.78650701 -0.185704678
v -0.589941978 0.786883175 -0.244696155
v -0.489539623 0.868749082 -0.222551614
v -0.51842916 0.875625908 -0.126181677
v -0.422191411 0.793358505 -0.089686662
v -0.618725598 0.79373467 -0.148677975
v -0.611449361 0.00762218982 -0.106945261
v -0.451241434 0.00762220006 -0.0589186475
v 0.0903538316 0.793301165 -0.00740554789
v 0.200924978 0.901073873 0.025651874
v 0.0647684336 0.793301165 0.0779425651
v 0.17529051 0.901073873 0.111163691
v 0.311388463 0.793372691 0.0588878058
v 0.285820872 0.793372691 0.144176438
v 0.28124848 0.472594976 0.137548402
v 0.285820872 0.793372691 0.144176438
v 0.311388463 0.793372691 0.0588878058
v 0.303923875 0.472594976 0.0619074032
v 0.263559073 0.295500994 0.131229028
v 0.285675317 0.295500994 0.05745342
v 0.278651446 0.241038606 0.134736821
v 0.300208449 0.241038606 0.0628266856
v 0.269181281 0.00434496999 0.12448585
v 0.28666079 0.00434496999 0.0661774427
v 0.200924978 0.901073873 0.025651874
v 0.0903538316 0.793301165 -0.00740554789
v 0.311388463 0.793372691 0.0588878058
v 0.303923875 0.472594976 0.0619074032
v 0.107035242 0.00434494996 0.0123299882
v 0.285675317 0.295500994 0.05745342
v 0.300208449 0.241038606 0.0628266856
v 0.28666079 0.00434496999 0.0661774427
v 0.269181281 0.00434496999 0.12448585
v 0.089555718 0.00434494996 0.0706383884
v 0.278651446 0.241038606 0.134736821
v 0.263559073 0.295500994 0.131229028
v 0.28124848 0.472594976 0.137548402
v 0.0647684336 0.793301165 0.0779425651
v 0.285820872 0.793372691 0.144176438
v 0.17529051 0.901073873 0.111163691
v 0.0903538316 0.793301165 -0.00740554789
v 0.0647684336 0.793301165 0.0779425651
v 0.107035242 0.00434494996 0.0123299882
v 0.089555718 0.00434494996 0.0706383884
v -0.167068362 0.760207951 -0.0844942108
v -0.277387798 0.854742408 -0.117735058
v -0.387792736 0.763953447 -0.150664359
v -0.174385518 0.510380685 -0.0814785287
v -0.192634076 0.455918312 -0.085932523
v -0.371273875 0.0043449197 -0.131055862
v -0.178100958 0.401455998 -0.0805592611
v -0.191648588 0.00434492994 -0.0772084966
v -0.387792736 0.763953447 -0.150664359
v -0.413335025 0.763953447 -0.0654599369
v -0.371273875 0.0043449197 -0.131055862
v -0.388753384 0.0043449197 -0.0727474615
v -0.167068362 0.760207951 -0.0844942108
v -0.192609474 0.760207951 0.000706157647
v -0.303022116 0.854742408 -0.0322232246
v -0.277387798 0.854742408 -0.117735058
v -0.413335025 0.763953447 -0.0654599369
v -0.387792736 0.763953447 -0.150664359
v -0.197060943 0.510380685 -0.00583753595
v -0.192609474 0.760207951 0.000706157647
v -0.167068362 0.760207951 -0.0844942108
v -0.174385518 0.510380685 -0.0814785287
v -0.21475032 0.455918312 -0.0121569252
v -0.192634076 0.455918312 -0.085932523
v -0.199657947 0.401455998 -0.00864912011
v -0.178100958 0.401455998 -0.0805592611
v -0.209128127 0.00434492994 -0.018900089
v -0.191648588 0.00434492994 -0.0772084966
v -0.199657947 0.401455998 -0.00864912011
v -0.209128127 0.00434492994 -0.018900089
v -0.388753384 0.0043449197 -0.0727474615
v -0.21475032 0.455918312 -0.0121569252
v -0.413335025 0.763953447 -0.0654599369
v -0.197060943 0.510380685 -0.00583753595
v -0.192609474 0.760207951 0.000706157647
v -0.303022116 0.854742408 -0.0322232246
v -0.627501905 0.794547379 -0.124008022
v -0.750691235 0.907216012 -0.166129872
v -0.598849177 0.794547379 -0.219588384
v -0.724895 0.907216012 -0.252181321
v -0.876738429 0.794547379 -0.198723286
v -0.848085642 0.794547379 -0.294303626
v -0.830933809 0.510380685 -0.278296262
v -0.848085642 0.794547379 -0.294303626
v -0.876738429 0.794547379 -0.198723286
v -0.853609204 0.510380685 -0.20265533
v -0.813244462 0.455918193 -0.271976918
v -0.835360706 0.455918193 -0.198201373
v -0.828336835 0.401455909 -0.275484681
v -0.849893868 0.401455909 -0.203574523
v -0.818866551 0.00434488012 -0.265233725
v -0.83634609 0.00434488012 -0.206925273
v -0.750691235 0.907216012 -0.166129872
v -0.627501905 0.794547379 -0.124008022
v -0.876738429 0.794547379 -0.198723286
v -0.853609204 0.510380685 -0.20265533
v -0.835360706 0.455918193 -0.198201373
v -0.656720638 0.00434489967 -0.153077811
v -0.849893868 0.401455909 -0.203574523
v -0.83634609 0.00434488012 -0.206925273
v -0.627501905 0.794547379 -0.124008022
v -0.598849177 0.794547379 -0.219588384
v -0.656720638 0.00434489967 -0.153077811
v -0.639241099 0.00434489967 -0.211386174
v -0.848085642 0.794547379 -0.294303626
v -0.598849177 0.794547379 -0.219588384
v -0.724895 0.907216012 -0.252181321
v -0.830933809 0.510380685 -0.278296262
v -0.813244462 0.455918193 -0.271976918
v -0.639241099 0.00434489967 -0.211386174
v -0.828336835 0.401455909 -0.275484681
v -0.818866551 0.00434488012 -0.265233725
v 0.983260036 0.721221268 0.354481578
v 0.859041572 0.849133074 0.311455458
v 1.00949669 0.721202135 0.266936094
v 0.882101059 0.849133074 0.234533235
v 0.731370509 0.754779518 0.279096872
v 0.757681787 0.754791558 0.191320688
v 0.882101059 0.849133074 0.234533235
v 0.757681787 0.754791558 0.191320688
v 1.00949669 0.721202135 0.266936094
v 0.956789434 0.401455998 0.263887405
v 0.788650393 0.00434501003 0.220094755
v 0.968275964 0.00434501981 0.273942113
v 0.859041572 0.849133074 0.311455458
v 0.983260036 0.721221268 0.354481578
v 0.731370509 0.754779518 0.279096872
v 0.937561095 0.401455998 0.328029335
v 0.77305913 0.00434501003 0.272104293
v 0.9526847 0.00434501981 0.325951695
v 0.937561095 0.401455998 0.328029335
v 0.983260036 0.721221268 0.354481578
v 1.00949669 0.721202135 0.266936094
v 0.956789434 0.401455998 0.263887405
v 0.9526847 0.00434501981 0.325951695
v 0.968275964 0.00434501981 0.273942113
v 0.77305913 0.00434501003 0.272104293
v 0.788650393 0.00434501003 0.220094755
v 0.731370509 0.754779518 0.279096872
v 0.757681787 0.754791558 0.191320688
v 0.731642842 0.760630786 0.277683675
v 0.622892141 0.848880231 0.245344162
v 0.757133603 0.760630786 0.192651406
v 0.648526609 0.848880231 0.159832343
v 0.514591932 0.75765866 0.212438762
v 0.539984584 0.75765866 0.127733648
v 0.648526609 0.848880231 0.159832343
v 0.539984584 0.75765866 0.127733648
v 0.757133603 0.760630786 0.192651406
v 0.560250282 0.455918372 0.139764667
v 0.73425281 0.00434499979 0.200354993
v 0.545157909 0.194578096 0.136256903
v 0.554628253 0.00434499001 0.146507904
v 0.539984584 0.75765866 0.127733648
v 0.514591932 0.75765866 0.212438762
v 0.560250282 0.455918372 0.139764667
v 0.538134038 0.455918372 0.213540256
v 0.545157909 0.194578096 0.136256903
v 0.523600936 0.194578096 0.208167031
v 0.554628253 0.00434499001 0.146507904
v 0.537148714 0.00434499001 0.204816312
v 0.622892141 0.848880231 0.245344162
v 0.731642842 0.760630786 0.277683675
v 0.514591932 0.75765866 0.212438762
v 0.538134038 0.455918372 0.213540256
v 0.716774285 0.00434499979 0.258663714
v 0.523600936 0.194578096 0.208167031
v 0.537148714 0.00434499001 0.204816312
v 0.731642842 0.760630786 0.277683675
v 0.757133603 0.760630786 0.192651406
v 0.716774285 0.00434499979 0.258663714
v 0.73425281 0.00434499979 0.200354993
v 0.418212265 0.876233637 0.115893073
v 0.528676391 0.800896823 0.145058855
v 0.498924613 0.794074714 0.244357288
v 0.387497693 0.869532585 0.218354121
v 0.34435147 0.827499986 0.201255694
v 0.374550134 0.834257185 0.100560606
v 0.280045062 0.794074714 0.178742349
v 0.309838235 0.801151693 0.0793609992
v 0.309838235 0.801151693 0.0793609992
v 0.280045062 0.794074714 0.178742349
v 0.349471271 0.00817805994 0.0538034253
v 0.330145776 0.00293320999 0.118269615
v 0.498924613 0.794074714 0.244357288
v 0.528676391 0.800896823 0.145058855
v 0.490353078 0.00293323002 0.166295931
v 0.509678483 0.00817805994 0.101829872
v 0.34435147 0.827499986 0.201255694
v 0.387497693 0.869532585 0.218354121
v 0.498924613 0.794074714 0.244357288
v 0.280045062 0.794074714 0.178742349
v 0.490353078 0.00293323002 0.166295931
v 0.330145776 0.00293320999 0.118269615
v 0.374550134 0.834257185 0.100560606
v 0.528676391 0.800896823 0.145058855
v 0.418212265 0.876233637 0.115893073
v 0.309838235 0.801151693 0.0793609992
v 0.349471271 0.00817805994 0.0538034253
v 0.509678483 0.00817805994 0.101829872
v -0.821729481 0.232422501 -0.206908152
v -0.834543109 0.303003997 -0.208697885
v -0.834935904 0.232422501 -0.16285415
v -0.846620917 0.303003997 -0.168408588
v -0.813869476 0.373736113 -0.204553977
v -0.827076912 0.373736173 -0.160496131
v 0.900494993 0.237992987 0.318397403
v 0.929046452 0.354163796 0.326956868
v -0.00175630092 0.256542087 0.0444448777
v -0.834543109 0.303003997 -0.208697885
v -0.821729481 0.232422501 -0.206908152
v -0.813869476 0.373736113 -0.204553977
v -0.00175630092 0.256542087 0.0444448777
v -0.821729481 0.232422501 -0.206908152
v -0.834935904 0.232422501 -0.16285415
v -0.0119126746 0.256542087 0.0783246532
v 0.900494993 0.237992987 0.318397403
v 0.892252326 0.237992987 0.345893294
v -0.827076912 0.373736173 -0.160496131
v -0.813869476 0.373736113 -0.204553977
v 0.920804024 0.354163796 0.354452133
v 0.929046452 0.354163796 0.326956868
v 0.920804024 0.354163796 0.354452133
v 0.892252326 0.237992987 0.345893294
v -0.0119126746 0.256542087 0.0783246532
v -0.846620917 0.303003997 -0.168408588
v -0.827076912 0.373736173 -0.160496131
v -0.834935904 0.232422501 -0.16285415
v 0.900494993 0.237992987 0.318397403
v 0.892252326 0.237992987 0.345893294
v 0.929046452 0.354163796 0.326956868
v 0.920804024 0.354163796 0.354452133
vt 0.191157997 0.0368040018
vt 0.191157997 0.0176260006
vt 0.156536996 0.0176260006
vt 0.156536996 0.0368040018
vt 0.117526002 0.0368040018
vt 0.117526002 0.0176260006
vt 0.647352993 0.279531002
vt 0.647352993 0.358235002
vt 0.663120985 0.358235002
vt 0.663120985 0.279531002
vt 0.647352993 0.188317001
vt 0.663120985 0.188317001
vt 0.301658005 0.00757199991
vt 0.285436988 0.00757199991
vt 0.301658005 0.183910996
vt 0.285436988 0.183910996
vt 0.929280996 0.756150007
vt 0.870423019 0.766349971
vt 0.900839984 0.782792985
vt 0.91444999 0.678848982
vt 0.870423019 0.589734018
vt 0.918797016 0.589734018
vt 0.862064004 0.767641008
vt 0.803206027 0.757439971
vt 0.831646979 0.784084022
vt 0.818036973 0.680140018
vt 0.862064004 0.589248002
vt 0.813688993 0.589248002
vt 0.752939999 0.152283996
vt 0.752939999 0.128735006
vt 0.722193003 0.152283996
vt 0.722193003 0.128735006
vt 0.691366017 0.128735006
vt 0.691366017 0.152283996
vt 0.366232008 0.00942000002
vt 0.346884996 0.00942000002
vt 0.366232008 0.189422995
vt 0.346884996 0.189422995
vt 0.805531025 0.185819998
vt 0.786184013 0.185819998
vt 0.805531025 0.365736008
vt 0.786184013 0.365736008
vt 0.981885016 0.37401399
vt 0.941262007 0.37401399
vt 0.941506028 0.565714002
vt 0.991348028 0.564540029
vt 0.966952026 0.58514303
vt 0.625880003 0.569975019
vt 0.648898005 0.550526023
vt 0.601985991 0.551742971
vt 0.601985991 0.371702999
vt 0.64022398 0.370781988
vt 0.201299995 0.0781869963
vt 0.237409994 0.0781869963
vt 0.201299995 0.0577949993
vt 0.237409994 0.0577949993
vt 0.273501009 0.0781869963
vt 0.273501009 0.0577949993
vt 0.514310002 0.288996994
vt 0.514310002 0.362370014
vt 0.531803012 0.362370014
vt 0.531803012 0.288996994
vt 0.514310002 0.248274997
vt 0.531803012 0.248274997
vt 0.514310002 0.235329002
vt 0.531803012 0.235329002
vt 0.514310002 0.181135997
vt 0.531803012 0.181135997
vt 0.841793001 0.996639013
vt 0.868849993 0.97272402
vt 0.816094995 0.971296012
vt 0.819537997 0.897993982
vt 0.868849993 0.791903019
vt 0.824937999 0.857626021
vt 0.821744025 0.845076978
vt 0.825980008 0.791903019
vt 0.921647012 0.793743014
vt 0.878777981 0.793743014
vt 0.925882995 0.847507
vt 0.922689974 0.860055983
vt 0.928089023 0.900425017
vt 0.878777981 0.975153983
vt 0.931532979 0.973726988
vt 0.905835986 0.999069989
vt 0.885017991 0.179462001
vt 0.867872 0.179462001
vt 0.885017991 0.35995999
vt 0.867872 0.35995999
vt 0.937457979 0.971064985
vt 0.963186979 0.993418992
vt 0.990110993 0.973407984
vt 0.940474987 0.91398102
vt 0.94511497 0.901651025
vt 0.990110993 0.797833979
vt 0.941932023 0.889097989
vt 0.947242022 0.797833979
vt 0.714919984 0.188982993
vt 0.69779098 0.188982993
vt 0.714919984 0.362771004
vt 0.69779098 0.362771004
vt 0.513974011 0.0552879982
vt 0.513974011 0.0756660029
vt 0.548054993 0.0756660029
vt 0.548054993 0.0552879982
vt 0.581598997 0.0756660029
vt 0.581598997 0.0552879982
vt 0.672300994 0.304861009
vt 0.672300994 0.362015009
vt 0.689791977 0.362015009
vt 0.689791977 0.304861009
vt 0.672300994 0.291689992
vt 0.689791977 0.291689992
vt 0.672300994 0.278744012
vt 0.689791977 0.278744012
vt 0.672300994 0.187898993
vt 0.689791977 0.187898993
vt 0.985321999 0.686215997
vt 0.980012 0.597256005
vt 0.937143981 0.597256005
vt 0.982138991 0.69876802
vt 0.937143981 0.770525992
vt 0.986778975 0.711099982
vt 0.989795983 0.76818198
vt 0.964067996 0.790537
vt 0.673385024 0.126836002
vt 0.636510015 0.126836002
vt 0.673385024 0.147140995
vt 0.636510015 0.147140995
vt 0.599650979 0.126836002
vt 0.599650979 0.147140995
vt 0.439639986 0.305184007
vt 0.439639986 0.366149992
vt 0.456285 0.366149992
vt 0.456285 0.305184007
vt 0.439639986 0.292867988
vt 0.456285 0.292867988
vt 0.439639986 0.280761987
vt 0.456285 0.280761987
vt 0.439639986 0.195814997
vt 0.456285 0.195814997
vt 0.702746987 0.786366999
vt 0.731693983 0.763620019
vt 0.67612201 0.760940015
vt 0.683541 0.700424016
vt 0.688109994 0.688983977
vt 0.732088983 0.593477011
vt 0.685369015 0.677190006
vt 0.692036986 0.593477011
vt 0.433026999 0.196928993
vt 0.415856004 0.196928993
vt 0.433026999 0.366075009
vt 0.415856004 0.366075009
vt 0.796314001 0.759401977
vt 0.740741014 0.762081027
vt 0.769689023 0.784829021
vt 0.788895011 0.698885024
vt 0.784326017 0.687444985
vt 0.740347028 0.591893017
vt 0.787065983 0.675651014
vt 0.780398011 0.591893017
vt 0.675917029 0.0156859998
vt 0.633901 0.0156859998
vt 0.675917029 0.0353650004
vt 0.633901 0.0353650004
vt 0.59681201 0.0156859998
vt 0.59681201 0.0353650004
vt 0.827955008 0.574654996
vt 0.859102011 0.55458802
vt 0.799435973 0.543892026
vt 0.814854026 0.471399009
vt 0.859102011 0.379114002
vt 0.81627202 0.379114002
vt 0.901097 0.576250017
vt 0.929618001 0.54549098
vt 0.869949996 0.55618
vt 0.914198995 0.472994
vt 0.869949996 0.379114002
vt 0.912781 0.379114002
vt 0.841463983 0.285937995
vt 0.841463983 0.360045999
vt 0.857448995 0.360045999
vt 0.857448995 0.285937995
vt 0.841463983 0.195075005
vt 0.857448995 0.195075005
vt 0.832651019 0.187500998
vt 0.81596899 0.187500998
vt 0.832651019 0.359340012
vt 0.81596899 0.359340012
vt 0.690621972 0.118731
vt 0.723488986 0.118731
vt 0.690621972 0.0983949974
vt 0.723488986 0.0983949974
vt 0.756729007 0.118731
vt 0.756729007 0.0983949974
vt 0.443522006 0.568113983
vt 0.468858987 0.546588004
vt 0.417061001 0.548609972
vt 0.461843014 0.477728009
vt 0.417061001 0.374933004
vt 0.463818997 0.417888999
vt 0.459931999 0.374933004
vt 0.910286009 0.185894996
vt 0.893002987 0.185894996
vt 0.910286009 0.255102009
vt 0.893002987 0.255102009
vt 0.910286009 0.314965993
vt 0.893002987 0.314965993
vt 0.910286009 0.358552992
vt 0.893002987 0.358552992
vt 0.380421996 0.567973971
vt 0.406883001 0.548470974
vt 0.355084985 0.546447992
vt 0.362100005 0.477587998
vt 0.406883001 0.374933004
vt 0.360123992 0.417748988
vt 0.364012003 0.374933004
vt 0.990881979 0.186377004
vt 0.973773003 0.186377004
vt 0.990881979 0.359394997
vt 0.973773003 0.359394997
vt 0.156381994 0.0544850007
vt 0.125085995 0.0544850007
vt 0.125085995 0.0785889998
vt 0.156381994 0.0785889998
vt 0.170672998 0.0785889998
vt 0.170672998 0.0544850007
vt 0.187993005 0.0785889998
vt 0.187993005 0.0544850007
vt 0.588086009 0.172095001
vt 0.568481028 0.172095001
vt 0.588086009 0.353789985
vt 0.568481028 0.353789985
vt 0.775080025 0.182160005
vt 0.755487025 0.182160005
vt 0.775080025 0.363828003
vt 0.755487025 0.363828003
vt 0.554355979 0.55953002
vt 0.564550996 0.569585979
vt 0.591315985 0.553272009
vt 0.539097011 0.551258981
vt 0.591315985 0.367767006
vt 0.553094983 0.367767006
vt 0.513221025 0.559343994
vt 0.476857007 0.550297022
vt 0.502286017 0.568542004
vt 0.529069006 0.552368999
vt 0.529069006 0.372913003
vt 0.490848988 0.372913003
vt 0.861644983 0.0493550003
vt 0.861644983 0.0329170004
vt 0.851559997 0.0493550003
vt 0.851559997 0.0329170004
vt 0.861644983 0.0160160009
vt 0.851559997 0.0160160009
vt 0.257261008 0.575999022
vt 0.230713993 0.569100022
vt 0.252348006 0.791625977
vt 0.241104007 0.990648985
vt 0.257261008 0.987776995
vt 0.224935994 0.985800028
vt 0.389784008 0.791177988
vt 0.387627989 0.987378001
vt 0.39814499 0.987429023
vt 0.397873014 0.791216016
vt 0.391580999 0.575501978
vt 0.39814499 0.575533986
vt 0.380160987 0.575073004
vt 0.369641989 0.575022995
vt 0.376206011 0.991797984
vt 0.369641989 0.991766989
vt 0.188703001 0.990651011
vt 0.215249002 0.983752012
vt 0.210336998 0.768123984
vt 0.199092001 0.569100022
vt 0.182924002 0.573949993
vt 0.215249002 0.571972013
vt 0.86964798 0.0497170016
vt 0.876213014 0.0497170016
vt 0.86964798 0.0222890005
vt 0.876213014 0.0222890005
vn 0.493756711 0.856910348 0.148016885
vn 0.493756711 0.856910348 0.1480169
vn -0.119031489 0.992249131 -0.0356802754
vn -0.119031101 0.99224925 -0.0356801637
vn -0.621484578 0.760952175 -0.186302766
vn -0.621484697 0.760952175 -0.186302781
vn -0.957399249 -0.0318735652 -0.287002772
vn -0.948082983 -0.14270623 -0.284206986
vn -0.948082983 -0.14270623 -0.284206986
vn -0.957399249 -0.0318735652 -0.287002772
vn -0.953640521 0.0940361619 -0.285879493
vn -0.953640521 0.0940361619 -0.285879493
vn 0.956851065 -0.0464526489 0.286841929
vn 0.956851065 -0.0464526489 0.286841929
vn 0.956851065 -0.0464526527 0.286841929
vn 0.956851065 -0.0464526527 0.286841929
vn 0.289875567 -0.0232436769 -0.956782103
vn 0.283826321 -0.0194214676 -0.95867902
vn 0.281998366 0.0407272764 -0.958550036
vn 0.279016823 -0.0217485167 -0.960039914
vn 0.282488018 -0.0180577356 -0.959100902
vn 0.287114739 -0.0159453377 -0.957763493
vn -0.290364623 -0.0194213912 0.956718922
vn -0.284269512 -0.0232435111 0.958462536
vn -0.291820347 0.0407275893 0.955605626
vn -0.295129538 -0.0217485465 0.955209732
vn -0.291714191 -0.0180578269 0.956335068
vn -0.287114769 -0.0159454569 0.957763493
vn -0.583858311 0.778425097 -0.230572715
vn -0.583858252 0.778425217 -0.230572715
vn 0.0214327984 0.997670233 -0.0647657067
vn 0.0212795325 0.997670591 -0.0648116618
vn 0.615609646 0.777409434 0.12907131
vn 0.615609646 0.777409434 0.12907131
vn -0.958079517 -0.0240242463 -0.285493374
vn -0.958079517 -0.0240242444 -0.285493404
vn -0.958079517 -0.0240242425 -0.285493404
vn -0.958079517 -0.0240242444 -0.285493374
vn 0.95713371 -0.0240841527 0.288643301
vn 0.95713371 -0.0240841508 0.288643271
vn 0.95713371 -0.0240841527 0.288643301
vn 0.95713371 -0.0240841508 0.288643301
vn 0.286128283 -0.0883132592 -0.954112887
vn 0.286128283 -0.0883132517 -0.954112887
vn 0.28612715 -0.0884255618 -0.954102874
vn 0.28612715 -0.0884261578 -0.954102755
vn 0.286080986 -0.0928851143 -0.953692853
vn -0.286205083 0.0884360448 0.954078436
vn -0.286944389 0.0490952656 0.956688344
vn -0.28694436 0.0491005294 0.956688166
vn -0.286957264 0.0481039323 0.956734836
vn -0.286957264 0.0481039211 0.956734836
vn -0.653775513 0.730867147 -0.195986867
vn -0.000508476689 0.999999881 -0.000152429595
vn -0.653775513 0.730867147 -0.195986867
vn -0.000509019592 0.999999881 -0.000152592344
vn 0.653700769 0.730939984 0.195964411
vn 0.653700769 0.730939984 0.195964411
vn 0.956756473 -0.0485293418 0.286813557
vn 0.957701385 -0.0195833668 0.287096828
vn 0.957701385 -0.0195833687 0.287096828
vn 0.956756473 -0.0485293418 0.286813557
vn 0.957746863 -0.0169869121 0.287110478
vn 0.957746863 -0.0169869177 0.287110478
vn 0.957704544 0.0194135662 0.287097782
vn 0.957704544 0.0194135718 0.287097782
vn 0.956653357 -0.0506962165 0.286782622
vn 0.956653357 -0.0506962165 0.286782622
vn 0.287280321 -0.000937041594 -0.957846165
vn 0.28260833 -0.0143217891 -0.959128499
vn 0.287257552 -0.0136341341 -0.9577564
vn 0.279709727 -0.0156463683 -0.959957063
vn 0.280843616 -0.0197255611 -0.959550798
vn 0.279448539 -0.0166769773 -0.960015833
vn 0.284500986 -0.0277502183 -0.958274007
vn 0.284500986 -0.0277502183 -0.958274007
vn -0.289578348 -0.0277501158 0.956751943
vn -0.293334812 -0.0197255183 0.955806255
vn -0.289578319 -0.0277501177 0.956751943
vn -0.294755638 -0.0166769587 0.95542711
vn -0.294505209 -0.0156463701 0.955521822
vn -0.291628897 -0.0143218488 0.956424296
vn -0.286991775 -0.0136342663 0.957836032
vn -0.287022084 -0.000937440491 0.957923532
vn -0.957524717 -0.0274258852 -0.287043869
vn -0.957524717 -0.0274258852 -0.287043869
vn -0.957524717 -0.0274258852 -0.287043869
vn -0.957524717 -0.0274258852 -0.287043869
vn 0.286844522 -0.0174601991 -0.957817972
vn 0.287132591 -0.00174280396 -0.957889259
vn 0.287891865 -0.0174775273 -0.957503438
vn 0.288254827 -0.018602768 -0.957373083
vn 0.288295776 -0.0183751173 -0.957365096
vn 0.287624151 -0.0180934817 -0.95757252
vn 0.287105411 -0.0178760346 -0.957732141
vn 0.287105411 -0.0178760346 -0.957732141
vn -0.957503319 -0.0282319542 -0.287037432
vn -0.957503319 -0.0282319542 -0.287037432
vn -0.957503319 -0.0282319561 -0.287037402
vn -0.957503319 -0.0282319561 -0.287037402
vn 0.607587874 0.773085952 0.182140365
vn 0.607587993 0.773085892 0.182140395
vn 0.0155596035 0.999868035 0.00466456637
vn 0.0155587178 0.999868035 0.00466430048
vn -0.59287554 0.785436749 -0.177729711
vn -0.592875481 0.78543663 -0.177729681
vn 0.955027699 -0.0771819726 0.286295325
vn 0.957595646 -0.0245817024 0.287065119
vn 0.957595646 -0.0245816987 0.287065119
vn 0.955027699 -0.0771819726 0.286295325
vn 0.957207561 -0.0376052409 0.28694877
vn 0.957207561 -0.0376052596 0.28694877
vn 0.957811952 0.0123550352 0.287129968
vn 0.957811952 0.0123550445 0.287129968
vn 0.957446933 -0.0302419886 0.287020534
vn 0.957446933 -0.0302419886 0.287020534
vn -0.287105232 -0.0178759843 0.957732201
vn -0.287105232 -0.0178759824 0.957732201
vn -0.286584228 -0.0180934556 0.957884252
vn -0.285909176 -0.0183751155 0.95808053
vn -0.286322743 -0.0174776167 0.957973838
vn -0.28594774 -0.0186027978 0.958064616
vn -0.287370652 -0.0174604245 0.957660258
vn -0.287169307 -0.00174312666 0.957878351
vn 0.62708813 0.755924284 0.187986583
vn -4.07421624E-07 1 -1.22135617E-07
vn 0.62708807 0.755924344 0.187986597
vn -1.48153276E-07 1 0
vn -0.627084494 0.755927622 -0.18798548
vn -0.627084434 0.755927682 -0.187985465
vn -0.951971591 -0.110945165 -0.285379171
vn -0.955273688 -0.0737900436 -0.286369056
vn -0.955273688 -0.0737900436 -0.286369056
vn -0.951971591 -0.110945158 -0.285379171
vn -0.957207561 -0.0376052037 -0.28694877
vn -0.957207561 -0.0376051702 -0.28694877
vn -0.957811952 0.0123548778 -0.287129968
vn -0.957811952 0.0123548601 -0.287129939
vn -0.957446933 -0.030242186 -0.287020534
vn -0.957446933 -0.0302421823 -0.287020534
vn -0.286872059 0.0441031232 0.956953108
vn -0.295382529 -0.0209033191 0.955150366
vn -0.287070304 -0.0237709414 0.957614481
vn -0.299485177 -0.0255302135 0.953759313
vn -0.299961656 -0.023276234 0.953667283
vn -0.293085903 -0.0203853194 0.955868781
vn -0.28710556 -0.017875934 0.957732141
vn -0.28710559 -0.0178759359 0.957732141
vn 0.956873953 -0.0459340475 0.286848783
vn 0.956873953 -0.0459340475 0.286848783
vn 0.956873953 -0.0459340513 0.286848783
vn 0.956873953 -0.0459340513 0.286848783
vn 0.287070423 -0.0237708986 -0.957614481
vn 0.278773457 -0.0209032856 -0.96012938
vn 0.286872119 0.0441038013 -0.956953108
vn 0.274582118 -0.0255302582 -0.961224675
vn 0.274133533 -0.0232762732 -0.961409867
vn 0.281086445 -0.0203853808 -0.959465981
vn 0.28710556 -0.0178760178 -0.957732141
vn 0.28710559 -0.0178760197 -0.957732141
vn 0.668372273 0.716364741 0.200250089
vn 0.11961408 0.992174029 0.0358207785
vn 0.668372214 0.716364801 0.200250074
vn 0.119611956 0.992174387 0.0358201414
vn -0.558174372 0.812690079 -0.167261004
vn -0.558174372 0.812690079 -0.167261004
vn 0.293385834 0.0503564999 -0.954666972
vn 0.293352038 -0.0205610618 -0.955783427
vn 0.284250468 -0.0264972802 -0.958383799
vn 0.299989432 -0.0252678636 -0.953607738
vn 0.294767946 -0.0194499046 -0.955370843
vn 0.287114233 -0.0159454141 -0.957763612
vn -0.280184835 0.0503610857 0.958624125
vn -0.289850116 -0.0264971703 0.956705153
vn -0.280819207 -0.020562958 0.959540367
vn -0.274077177 -0.0252679531 0.961375713
vn -0.279406846 -0.019449668 0.959975779
vn -0.287114382 -0.0159453098 0.957763612
vn 0.955749452 -0.0667970926 0.28649807
vn 0.945766687 -0.158609644 0.283493221
vn 0.945766687 -0.158609658 0.283493221
vn 0.955749452 -0.0667970628 0.28649807
vn 0.95729965 0.0349564478 0.286976367
vn 0.95729965 0.0349564478 0.286976367
vn -0.956666946 -0.0504738353 -0.286776483
vn -0.956666946 -0.050473839 -0.286776483
vn -0.956666946 -0.0504738353 -0.286776483
vn -0.956666946 -0.0504738353 -0.286776483
vn 0.588105559 0.789335251 0.176300496
vn -0.0115534449 0.999927282 -0.00346345687
vn 0.5881055 0.789335251 0.176300496
vn -0.0115527268 0.999927282 -0.00346324174
vn -0.601078868 0.778611541 -0.180189595
vn -0.601078928 0.778611541 -0.18018961
vn 0.286474109 -0.00374202779 -0.95808059
vn 0.286602706 -0.0171814077 -0.957895517
vn 0.290999472 -0.0154995164 -0.956597567
vn 0.293484688 -0.01523217 -0.955842435
vn 0.293099165 -0.0180057418 -0.955912471
vn 0.293689191 -0.0161338355 -0.955764771
vn 0.286951095 -0.0372959562 -0.957218885
vn -0.955146194 -0.07556694 -0.286330819
vn -0.955146194 -0.07556694 -0.286330819
vn -0.957755625 -0.0164362639 -0.28711307
vn -0.957755625 -0.0164362639 -0.2871131
vn -0.957819283 0.0117191263 -0.287132174
vn -0.957819283 0.011719129 -0.287132144
vn -0.955980241 -0.0630341545 -0.286580861
vn -0.955980241 -0.0630341619 -0.286580861
vn -0.287823617 -0.00374217867 0.957676113
vn -0.283228606 -0.0154995341 0.958927095
vn -0.287614405 -0.0171814431 0.957592189
vn -0.280737817 -0.0152321728 0.95966363
vn -0.281098336 -0.0180057473 0.959510088
vn -0.280524313 -0.0161338504 0.959711313
vn -0.286951154 -0.0372960269 0.957218885
vn 0.957562089 -0.0260454826 0.287047833
vn 0.957562089 -0.0260454826 0.287047833
vn 0.957562089 -0.0260454826 0.287047863
vn 0.957562089 -0.0260454826 0.287047833
vn 0.175875872 0.977319419 0.117959239
vn 0.513397396 0.832150757 0.209638551
vn 0.513397396 0.832150757 0.209638551
vn 0.176554084 0.977173686 0.1181532
vn -0.545338571 0.831355095 -0.107025668
vn -0.544683635 0.831814528 -0.106791228
vn -0.438501924 0.896036923 -0.0695262551
vn -0.438501924 0.896036923 -0.0695262551
vn -0.956376195 -0.0384474695 -0.289596945
vn -0.956376195 -0.038447462 -0.289596945
vn -0.956376195 -0.0384474657 -0.289596945
vn -0.956376195 -0.0384474732 -0.289596945
vn 0.957977533 -0.0384430625 0.284255266
vn 0.957977533 -0.0384430662 0.284255266
vn 0.957977533 -0.0384430625 0.284255266
vn 0.957977533 -0.0384430625 0.284255266
vn -0.286013812 -0.0928446129 0.953716934
vn -0.286228418 -0.0940750539 0.953531981
vn -0.285960943 -0.0910473391 0.95390594
vn -0.285959035 -0.0910327435 0.953908026
vn -0.285959274 -0.091023244 0.953908801
vn -0.285959274 -0.0910232365 0.953908801
vn 0.287192881 0.0509810448 -0.956515133
vn 0.287106872 0.0452969521 -0.956826925
vn 0.287143826 0.050715521 -0.956543922
vn 0.28710705 0.0452846512 -0.956827462
vn 0.287106276 0.0452430099 -0.956829667
vn 0.287106246 0.0452430025 -0.956829667
vn -0.94253999 -0.178277209 -0.282551795
vn -0.956276953 0.0579158217 -0.286670834
vn -0.94253999 -0.178277209 -0.282551795
vn -0.956276953 0.0579157956 -0.286670804
vn -0.91829294 0.284528166 -0.275285035
vn -0.91829294 0.284528136 -0.275285035
vn 0.290517777 -0.000899133098 -0.956869185
vn 0.290557712 -0.00195958861 -0.956855416
vn 0.290705711 -0.00227431091 -0.956809819
vn 0.291642785 -0.00946920086 -0.956480443
vn 0.292181402 0.0288045295 -0.955929041
vn 0.291270286 -0.0291138459 -0.956197739
vn 0.00576392142 -0.99998188 0.00172789069
vn 0.0269288961 -0.999604762 0.00807266403
vn 0.0269288998 -0.999604762 0.00807266403
vn 0.00576393399 -0.99998188 0.00172789441
vn -0.0188398808 -0.999806583 -0.00564776268
vn -0.0188398808 -0.999806583 -0.00564776268
vn 0.0102887312 0.999942303 0.00308325817
vn 0.0102887321 0.999942303 0.00308325863
vn 0.0102887312 0.999942303 0.00308325887
vn 0.0102887331 0.999942303 0.0030832591
vn -0.283740461 -0.00196020724 0.95889914
vn -0.283781379 -0.000899848703 0.95888865
vn -0.283591837 -0.00227411138 0.958942354
vn -0.282628149 -0.00946898386 0.959182799
vn -0.282783657 -0.029113438 0.958741784
vn -0.281875074 0.0288044289 0.959018648
vn 0.927830994 -0.248528555 0.278142393
vn 0.927830994 -0.248528585 0.278142363
vn 0.927830994 -0.248528555 0.278142393
vn 0.927830994 -0.248528555 0.278142393
g O_env_zhalan_09_0
f 3/3/3 2/2/2 1/1/1
f 3/3/3 1/1/1 4/4/4
f 3/3/3 4/4/4 5/5/5
f 3/3/3 5/5/5 6/6/6
f 9/9/9 8/8/8 7/7/7
f 9/9/9 7/7/7 10/10/10
f 10/10/10 7/7/7 11/11/11
f 10/10/10 11/11/11 12/12/12
f 15/15/15 14/14/14 13/13/13
f 15/15/15 16/16/16 14/14/14
f 19/19/19 18/18/18 17/17/17
f 18/18/18 20/20/20 17/17/17
f 21/21/21 20/20/20 18/18/18
f 22/22/22 20/20/20 21/21/21
f 25/25/25 24/24/24 23/23/23
f 24/24/24 26/26/26 23/23/23
f 26/26/26 27/27/27 23/23/23
f 28/28/28 27/27/27 26/26/26
f 31/31/31 30/30/30 29/29/29
f 31/31/31 32/32/32 30/30/30
f 33/33/33 32/32/32 31/31/31
f 33/33/33 31/31/31 34/34/34
f 37/37/37 36/36/36 35/35/35
f 37/37/37 38/38/38 36/36/36
f 41/41/41 40/40/40 39/39/39
f 41/41/41 42/42/42 40/40/40
f 45/45/45 44/44/44 43/43/43
f 45/45/45 43/43/43 46/46/46
f 47/47/47 45/45/45 46/46/46
f 50/50/50 49/49/49 48/48/48
f 51/51/51 49/49/49 50/50/50
f 51/51/51 52/52/52 49/49/49
f 55/55/55 54/54/54 53/53/53
f 55/55/55 56/56/56 54/54/54
f 56/56/56 57/57/57 54/54/54
f 56/56/56 58/58/58 57/57/57
f 61/61/61 60/60/60 59/59/59
f 61/61/61 59/59/59 62/62/62
f 62/62/62 59/59/59 63/63/63
f 62/62/62 63/63/63 64/64/64
f 64/64/64 63/63/63 65/65/65
f 64/64/64 65/65/65 66/66/66
f 66/66/66 65/65/65 67/67/67
f 66/66/66 67/67/67 68/68/68
f 71/71/71 70/70/70 69/69/69
f 72/72/72 70/70/70 71/71/71
f 72/72/72 73/73/73 70/70/70
f 72/72/72 74/74/74 73/73/73
f 75/75/75 73/73/73 74/74/74
f 73/73/73 75/75/75 76/76/76
f 79/79/79 78/78/78 77/77/77
f 78/78/78 79/79/79 80/80/80
f 81/81/81 78/78/78 80/80/80
f 81/81/81 82/82/82 78/78/78
f 83/83/83 82/82/82 81/81/81
f 84/84/84 82/82/82 83/83/83
f 87/87/87 86/86/86 85/85/85
f 87/87/87 88/88/88 86/86/86
f 91/91/91 90/90/90 89/89/89
f 92/92/92 91/91/91 89/89/89
f 93/93/93 91/91/91 92/92/92
f 93/93/93 94/94/94 91/91/91
f 95/95/95 94/94/94 93/93/93
f 95/95/95 96/96/96 94/94/94
f 99/99/99 98/98/98 97/97/97
f 99/99/99 100/100/100 98/98/98
f 103/103/103 102/102/102 101/101/101
f 103/103/103 101/101/101 104/104/104
f 104/104/104 105/105/105 103/103/103
f 104/104/104 106/106/106 105/105/105
f 109/109/109 108/108/108 107/107/107
f 109/109/109 107/107/107 110/110/110
f 110/110/110 107/107/107 111/111/111
f 110/110/110 111/111/111 112/112/112
f 112/112/112 111/111/111 113/113/113
f 112/112/112 113/113/113 114/114/114
f 114/114/114 113/113/113 115/115/115
f 114/114/114 115/115/115 116/116/116
f 119/119/119 118/118/118 117/117/117
f 119/119/119 117/117/117 120/120/120
f 119/119/119 120/120/120 121/121/121
f 121/121/121 120/120/120 122/122/122
f 123/123/123 121/121/121 122/122/122
f 124/124/124 121/121/121 123/123/123
f 127/127/127 126/126/126 125/125/125
f 127/127/127 128/128/128 126/126/126
f 128/128/128 129/129/129 126/126/126
f 128/128/128 130/130/130 129/129/129
f 133/133/133 132/132/132 131/131/131
f 133/133/133 131/131/131 134/134/134
f 134/134/134 131/131/131 135/135/135
f 134/134/134 135/135/135 136/136/136
f 136/136/136 135/135/135 137/137/137
f 136/136/136 137/137/137 138/138/138
f 138/138/138 137/137/137 139/139/139
f 138/138/138 139/139/139 140/140/140
f 143/143/143 142/142/142 141/141/141
f 144/144/144 142/142/142 143/143/143
f 144/144/144 145/145/145 142/142/142
f 142/142/142 145/145/145 146/146/146
f 147/147/147 146/146/146 145/145/145
f 147/147/147 148/148/148 146/146/146
f 151/151/151 150/150/150 149/149/149
f 151/151/151 152/152/152 150/150/150
f 155/155/155 154/154/154 153/153/153
f 154/154/154 156/156/156 153/153/153
f 156/156/156 154/154/154 157/157/157
f 157/157/157 154/154/154 158/158/158
f 158/158/158 159/159/159 157/157/157
f 158/158/158 160/160/160 159/159/159
f 163/163/163 162/162/162 161/161/161
f 163/163/163 164/164/164 162/162/162
f 164/164/164 165/165/165 162/162/162
f 164/164/164 166/166/166 165/165/165
f 169/169/169 168/168/168 167/167/167
f 170/170/170 168/168/168 169/169/169
f 171/171/171 168/168/168 170/170/170
f 172/172/172 171/171/171 170/170/170
f 175/175/175 174/174/174 173/173/173
f 176/176/176 174/174/174 175/175/175
f 177/177/177 176/176/176 175/175/175
f 178/178/178 176/176/176 177/177/177
f 181/181/181 180/180/180 179/179/179
f 181/181/181 179/179/179 182/182/182
f 182/182/182 179/179/179 183/183/183
f 182/182/182 183/183/183 184/184/184
f 187/187/187 186/186/186 185/185/185
f 187/187/187 188/188/188 186/186/186
f 191/191/191 190/190/190 189/189/189
f 191/191/191 192/192/192 190/190/190
f 192/192/192 193/193/193 190/190/190
f 192/192/192 194/194/194 193/193/193
f 197/197/197 196/196/196 195/195/195
f 198/198/198 196/196/196 197/197/197
f 199/199/199 198/198/198 197/197/197
f 199/199/199 200/200/200 198/198/198
f 201/201/201 200/200/200 199/199/199
f 204/204/204 203/203/203 202/202/202
f 204/204/204 205/205/205 203/203/203
f 205/205/205 204/204/204 206/206/206
f 205/205/205 206/206/206 207/207/207
f 207/207/207 206/206/206 208/208/208
f 207/207/207 208/208/208 209/209/209
f 212/212/212 211/211/211 210/210/210
f 213/213/213 211/211/211 212/212/212
f 213/213/213 214/214/214 211/211/211
f 213/213/213 215/215/215 214/214/214
f 216/216/216 214/214/214 215/215/215
f 219/219/219 218/218/218 217/217/217
f 219/219/219 220/220/220 218/218/218
f 223/223/223 222/222/222 221/221/221
f 223/223/223 221/221/221 224/224/224
f 225/225/225 224/224/224 221/221/221
f 225/225/225 221/221/221 226/226/226
f 227/227/227 225/225/225 226/226/226
f 227/227/227 226/226/226 228/228/228
f 231/231/231 230/230/230 229/229/229
f 231/231/231 232/232/232 230/230/230
f 235/235/235 234/234/234 233/233/233
f 235/235/235 236/236/236 234/234/234
f 239/239/239 238/238/238 237/237/237
f 240/240/240 239/239/239 237/237/237
f 241/241/241 239/239/239 240/240/240
f 241/241/241 240/240/240 242/242/242
f 245/245/245 244/244/244 243/243/243
f 244/244/244 246/246/246 243/243/243
f 247/247/247 246/246/246 244/244/244
f 247/247/247 244/244/244 248/248/248
f 251/251/251 250/250/250 249/249/249
f 251/251/251 252/252/252 250/250/250
f 252/252/252 253/253/253 250/250/250
f 252/252/252 254/254/254 253/253/253
f 257/257/257 256/256/256 255/255/255
f 258/258/258 256/256/256 257/257/257
f 259/259/259 258/258/258 257/257/257
f 260/260/260 256/256/256 258/258/258
f 263/263/263 262/262/262 261/261/261
f 263/263/263 261/261/261 264/264/264
f 265/265/265 264/264/264 261/261/261
f 265/265/265 266/266/266 264/264/264
f 269/269/269 268/268/268 267/267/267
f 269/269/269 270/270/270 268/268/268
f 273/273/273 272/272/272 271/271/271
f 274/274/274 273/273/273 271/271/271
f 275/275/275 274/274/274 271/271/271
f 276/276/276 273/273/273 274/274/274
f 279/279/279 278/278/278 277/277/277
f 279/279/279 280/280/280 278/278/278
