g O_env_zhalan_11
v -0.135012314 0.384210169 0.523335814
v 0.0103968997 0.343550563 0.515414476
v -0.00971530937 0.271133333 0.560407579
v -0.153360501 0.318142623 0.564384699
v -0.235306576 0.252778172 0.430028856
v -0.215195417 0.325195462 0.385034323
v -0.215195417 0.325195462 0.385034323
v -0.235306576 0.252778172 0.430028856
v -0.0732485279 0.0697355568 0.187773541
v -0.0578738004 0.125093892 0.1533795
v 0.027930608 -0.148453489 -0.13050434
v 0.0403973572 -0.103566088 -0.158392489
v -0.153360501 0.318142623 0.564384699
v -0.00971530937 0.271133333 0.560407579
v -0.235306576 0.252778172 0.430028856
v -0.0732485279 0.0697355568 0.187773541
v 0.221254498 -0.148453802 -0.044090081
v 0.027930608 -0.148453489 -0.13050434
v 0.221254498 -0.148453802 -0.044090081
v -0.00971530937 0.271133333 0.560407579
v 0.23371996 -0.103566408 -0.0719799325
v 0.0103968997 0.343550563 0.515414476
v -0.215195417 0.325195462 0.385034323
v 0.0103968997 0.343550563 0.515414476
v -0.135012314 0.384210169 0.523335814
v -0.0578738004 0.125093892 0.1533795
v 0.23371996 -0.103566408 -0.0719799325
v 0.0403973572 -0.103566088 -0.158392489
v -0.453296572 0.227586702 -0.620698214
v -0.396699518 0.227586791 -0.658645332
v -0.4515163 0.299308211 -0.623270988
v -0.399755627 0.299308211 -0.657975078
v -0.435997725 0.365686595 -0.594892085
v -0.379395902 0.365686685 -0.632842839
v 0.547208607 -0.0596207902 0.848525226
v 0.0266684368 0.111967199 0.081023328
v 0.574105084 0.0501591377 0.888639212
v -0.4515163 0.299308211 -0.623270988
v -0.435997725 0.365686595 -0.594892085
v -0.453296572 0.227586702 -0.620698214
v -0.396699518 0.227586791 -0.658645332
v -0.453296572 0.227586702 -0.620698214
v 0.0266684368 0.111967199 0.081023328
v 0.070193924 0.111967199 0.0518394373
v 0.547208607 -0.0596207902 0.848525226
v 0.582533419 -0.0596207902 0.824841142
v -0.435997725 0.365686595 -0.594892085
v -0.379395902 0.365686685 -0.632842839
v 0.574105084 0.0501591377 0.888639212
v 0.612400413 0.0495429263 0.869436502
v 0.612400413 0.0495429263 0.869436502
v 0.070193924 0.111967199 0.0518394373
v 0.582533419 -0.0596207902 0.824841142
v -0.399755627 0.299308211 -0.657975078
v -0.379395902 0.365686685 -0.632842839
v -0.396699518 0.227586791 -0.658645332
v 0.547208607 -0.0596207902 0.848525226
v 0.574105084 0.0501591377 0.888639212
v 0.582533419 -0.0596207902 0.824841142
v 0.612400413 0.0495429263 0.869436502
v 0.45174247 0.493198872 0.933397293
v 0.401356369 0.493198872 0.958408356
v 0.450828999 0.554935694 0.937430084
v 0.404748797 0.554935694 0.960303962
v 0.391434431 0.6228894 0.934688032
v 0.441825747 0.62288928 0.909675658
v -0.253314614 0.288349211 -0.72532773
v 0.114645481 0.381876171 0.144067585
v -0.269839853 0.400477082 -0.764844239
v 0.450828999 0.554935694 0.937430084
v 0.45174247 0.493198872 0.933397293
v 0.441825747 0.62288928 0.909675658
v 0.0758964345 0.381876171 0.163302869
v 0.401356369 0.493198872 0.958408356
v 0.45174247 0.493198872 0.933397293
v 0.114645481 0.381876171 0.144067585
v -0.284762919 0.288349301 -0.709717631
v -0.253314614 0.288349211 -0.72532773
v 0.391434431 0.6228894 0.934688032
v -0.301287115 0.400477082 -0.74923414
v 0.441825747 0.62288928 0.909675658
v -0.269839853 0.400477082 -0.764844239
v -0.301287115 0.400477082 -0.74923414
v 0.0758964345 0.381876171 0.163302869
v -0.284762919 0.288349301 -0.709717631
v 0.404748797 0.554935694 0.960303962
v 0.391434431 0.6228894 0.934688032
v 0.401356369 0.493198872 0.958408356
v -0.284762919 0.288349301 -0.709717631
v -0.253314614 0.288349211 -0.72532773
v -0.301287115 0.400477082 -0.74923414
v -0.269839853 0.400477082 -0.764844239
v 0.361026019 0.704649508 0.932224274
v 0.298137814 0.679344177 0.993521094
v 0.240410611 0.826477766 0.867014229
v 0.185153574 0.804258704 0.920882165
v 0.170825198 0.737821281 0.75061965
v 0.107767902 0.712479055 0.812089384
v 0.185153574 0.804258704 0.920882165
v 0.298137814 0.679344177 0.993521094
v 0.107767902 0.712479055 0.812089384
v 0.333215475 0.37563622 0.886023104
v 0.293947458 -0.00362902996 0.679864049
v 0.424977034 -0.00426427973 0.814011872
v 0.424977034 -0.00426427973 0.814011872
v 0.462337673 0.01075867 0.777589619
v 0.293947458 -0.00362902996 0.679864049
v 0.331308931 0.0113939699 0.64344269
v 0.240410611 0.826477766 0.867014229
v 0.170825198 0.737821281 0.75061965
v 0.361026019 0.704649508 0.932224274
v 0.379291296 0.394163579 0.841104388
v 0.331308931 0.0113939699 0.64344269
v 0.462337673 0.01075867 0.777589619
v 0.298137814 0.679344177 0.993521094
v 0.361026019 0.704649508 0.932224274
v 0.379291296 0.394163579 0.841104388
v 0.333215475 0.37563622 0.886023104
v 0.462337673 0.01075867 0.777589619
v 0.424977034 -0.00426427973 0.814011872
v 0.331308931 0.0113939699 0.64344269
v 0.107767902 0.712479055 0.812089384
v 0.293947458 -0.00362902996 0.679864049
v 0.170825198 0.737821281 0.75061965
v -0.371522754 0.673337698 -0.507868707
v -0.450503975 0.628922701 -0.466085494
v -0.477884293 0.740953743 -0.625169337
v -0.548993587 0.700966537 -0.587553382
v -0.464924604 0.617166102 -0.744135559
v -0.543906093 0.572751105 -0.70235306
v -0.548993587 0.700966537 -0.587553382
v -0.450503975 0.628922701 -0.466085494
v -0.543906093 0.572751105 -0.70235306
v -0.387576371 0.33496514 -0.684466004
v -0.35313499 0.292117298 -0.667234719
v -0.0573287196 -0.0569947325 -0.498459071
v -0.33097899 0.241881251 -0.681079984
v -0.124642581 -0.0974777862 -0.668736935
v -0.543906093 0.572751105 -0.70235306
v -0.387576371 0.33496514 -0.684466004
v -0.464924604 0.617166102 -0.744135559
v -0.325071186 0.370114535 -0.717532098
v -0.35313499 0.292117298 -0.667234719
v -0.292171538 0.326399863 -0.699485362
v -0.33097899 0.241881251 -0.681079984
v -0.271559179 0.275297016 -0.712516785
v -0.124642581 -0.0974777862 -0.668736935
v -0.0764591545 -0.070382528 -0.694225311
v -0.477884293 0.740953743 -0.625169337
v -0.464924604 0.617166102 -0.744135559
v -0.371522754 0.673337698 -0.507868707
v -0.325071186 0.370114535 -0.717532098
v -0.292171538 0.326399863 -0.699485362
v -0.00914455391 -0.0298995078 -0.523947239
v -0.271559179 0.275297016 -0.712516785
v -0.0764591545 -0.070382528 -0.694225311
v -0.371522754 0.673337698 -0.507868707
v -0.00914455391 -0.0298995078 -0.523947239
v -0.450503975 0.628922701 -0.466085494
v -0.0573287196 -0.0569947325 -0.498459071
vt 0.729786992 0.0861380026
vt 0.764407992 0.0861380026
vt 0.764407992 0.0669590011
vt 0.729786992 0.0669590011
vt 0.69077599 0.0669590011
vt 0.69077599 0.0861380026
vt 0.345288992 0.366816998
vt 0.361057013 0.366816998
vt 0.361057013 0.288112998
vt 0.345288992 0.288112998
vt 0.361057013 0.19799
vt 0.345288992 0.19799
vt 0.568457007 0.991360009
vt 0.598383009 0.974931002
vt 0.540014029 0.964726985
vt 0.554849029 0.887431979
vt 0.598383009 0.794578016
vt 0.550499022 0.794578016
vt 0.32140401 0.192559004
vt 0.32140401 0.367826998
vt 0.337172002 0.192559004
vt 0.337172002 0.367826998
vt 0.667675972 0.964911997
vt 0.609430015 0.975022972
vt 0.639190018 0.991499007
vt 0.652963996 0.887592971
vt 0.609430015 0.794578016
vt 0.657459021 0.794578016
vt 0.91584003 0.129668996
vt 0.900874972 0.129668996
vt 0.91584003 0.146137998
vt 0.900874972 0.146137998
vt 0.91584003 0.163064003
vt 0.900874972 0.163064003
vt 0.173253998 0.983756006
vt 0.168356001 0.768127024
vt 0.146706998 0.990652978
vt 0.157088995 0.569100022
vt 0.140912995 0.573948026
vt 0.173253998 0.571970999
vt 0.343248993 0.989574015
vt 0.358832985 0.989684999
vt 0.358428001 0.793467999
vt 0.346444011 0.793383002
vt 0.358832985 0.577784002
vt 0.349106997 0.57771498
vt 0.266947001 0.986971974
vt 0.282532007 0.987080991
vt 0.272803009 0.570267022
vt 0.282532007 0.569100022
vt 0.125505 0.991890013
vt 0.103799 0.768127024
vt 0.0989010036 0.983756006
vt 0.115065999 0.569100022
vt 0.131242007 0.573948026
vt 0.0989010036 0.571970999
vt 0.909480989 0.0487909988
vt 0.909480989 0.0211689994
vt 0.899719 0.0487909988
vt 0.899719 0.0211689994
vt 0.93987602 0.132106006
vt 0.927529991 0.132106006
vt 0.93987602 0.146290004
vt 0.927529991 0.146290004
vt 0.927529991 0.163222
vt 0.93987602 0.163222
vt 0.0835319981 0.986401021
vt 0.0885030031 0.769500971
vt 0.0568899997 0.993012011
vt 0.0731329992 0.569100022
vt 0.0870649964 0.571574986
vt 0.0568899997 0.573812008
vt 0.322371989 0.790507972
vt 0.322064012 0.988629997
vt 0.334897012 0.987729013
vt 0.332240999 0.789815009
vt 0.322064012 0.573431015
vt 0.330072999 0.572869003
vt 0.307788998 0.989171028
vt 0.307788998 0.569661021
vt 0.294954985 0.988272011
vt 0.299780011 0.569100022
vt 0.0464860015 0.993252993
vt 0.0148780001 0.769620001
vt 0.0198449995 0.986639977
vt 0.0302520003 0.569100022
vt 0.0464860015 0.573742986
vt 0.0163109992 0.571502984
vt 0.971729994 0.159967005
vt 0.979758978 0.159967005
vt 0.971729994 0.132516995
vt 0.979758978 0.132516995
vt 0.674718022 0.0710489973
vt 0.674718022 0.0513699986
vt 0.632703006 0.0710489973
vt 0.632703006 0.0513699986
vt 0.595614016 0.0710489973
vt 0.595614016 0.0513699986
vt 0.778312981 0.994332016
vt 0.806832016 0.963568985
vt 0.747165978 0.974265993
vt 0.791414022 0.891076982
vt 0.747165978 0.799470007
vt 0.789996982 0.799470007
vt 0.808251977 0.127563
vt 0.795835018 0.127563
vt 0.808251977 0.170449004
vt 0.795835018 0.170449004
vt 0.707346022 0.995797992
vt 0.738492012 0.975728989
vt 0.678824008 0.965040028
vt 0.694244027 0.892543018
vt 0.738492012 0.800664008
vt 0.695662022 0.800664008
vt 0.375862986 0.177755997
vt 0.396762997 0.177642003
vt 0.393548012 0.103592999
vt 0.378235012 0.10368
vt 0.391582996 0.0120670004
vt 0.379166007 0.0120670004
vt 0.417490005 0.181419
vt 0.399677008 0.012023
vt 0.405072987 0.181500003
vt 0.420632988 0.012023
vt 0.686577976 0.0282189995
vt 0.686577976 0.0499360003
vt 0.726016998 0.0282189995
vt 0.726016998 0.0499360003
vt 0.765438974 0.0282189995
vt 0.765438974 0.0499360003
vt 0.436818004 0.992524981
vt 0.467269003 0.968002975
vt 0.408172011 0.965508997
vt 0.415701002 0.900736988
vt 0.420511991 0.888471007
vt 0.467269003 0.787213981
vt 0.417501986 0.875876009
vt 0.424066007 0.787213981
vt 0.270597994 0.191799
vt 0.270597994 0.255683988
vt 0.288040012 0.191799
vt 0.288040012 0.255683988
vt 0.270597994 0.268590987
vt 0.288040012 0.268590987
vt 0.270597994 0.281275004
vt 0.288040012 0.281275004
vt 0.270597994 0.370290011
vt 0.288040012 0.370290011
vt 0.503037989 0.991312981
vt 0.532396019 0.965072989
vt 0.475670993 0.965976
vt 0.526600003 0.900123
vt 0.522119999 0.887732983
vt 0.475670993 0.788420022
vt 0.525465012 0.875222981
vt 0.521326005 0.788420022
vt 0.295776993 0.191439003
vt 0.295776993 0.372442007
vt 0.314150989 0.191439003
vt 0.314150989 0.372442007
vn -0.448194325 0.55826211 0.698186994
vn 0.181504667 0.482116699 0.857099533
vn 0.181504622 0.482116729 0.857099473
vn -0.448192596 0.558262289 0.698188066
vn -0.849044323 0.428129643 0.309562325
vn -0.849044323 0.428129524 0.309562385
vn -0.855461121 -0.08028806 -0.511605442
vn -0.855461121 -0.0802880675 -0.511605442
vn -0.901730359 -0.0179249048 -0.431927085
vn -0.901730061 -0.0179253239 -0.431927741
vn -0.940623879 0.0529214628 -0.33529979
vn -0.940623879 0.0529214591 -0.33529979
vn -0.247820303 -0.803101182 0.541861117
vn -0.226113349 -0.837478638 0.497495979
vn -0.219017118 -0.839563251 0.497157007
vn -0.229874417 -0.8387236 0.493660241
vn -0.227860957 -0.836727619 0.497962177
vn -0.224188283 -0.835578561 0.501545668
vn 0.92763406 -0.0261353701 0.372574776
vn 0.92763406 -0.0261353701 0.372574866
vn 0.92763406 -0.0261353701 0.372574866
vn 0.92763406 -0.0261353701 0.372574866
vn 0.240045249 0.813407779 -0.529854774
vn 0.23298654 0.815624475 -0.529597998
vn 0.210981891 0.848929107 -0.484567821
vn 0.229190826 0.814251363 -0.533353806
vn 0.23124966 0.816408336 -0.529151201
vn 0.234944567 0.817636132 -0.52561605
vn -0.556817591 -0.0159668438 -0.83048135
vn -0.556817591 -0.0159668438 -0.83048135
vn -0.543320656 0.219406113 -0.810347915
vn -0.543320537 0.219406366 -0.810347795
vn -0.501011729 0.436596125 -0.747242332
vn -0.50101167 0.436596125 -0.747242391
vn -0.827830791 -0.00216068025 0.560973763
vn -0.826129019 0.00942988601 0.563402116
vn -0.827776551 -0.00244190823 0.56105262
vn -0.82787174 -0.0102769658 0.560823381
vn -0.830093086 -0.0436054021 0.555917203
vn -0.826089442 0.00969035272 0.56345576
vn -0.0750477239 -0.990877926 -0.111931324
vn -0.0750477239 -0.990877926 -0.111931324
vn -0.0872039348 -0.987663686 -0.130061299
vn -0.0872037038 -0.987663686 -0.130060971
vn -0.101321429 -0.983309567 -0.151116401
vn -0.101321429 -0.983309567 -0.151116401
vn 0.0939490274 0.984906018 0.145374402
vn 0.0939490274 0.984906018 0.145374388
vn 0.0939490125 0.984906018 0.145374388
vn 0.0939489976 0.984906018 0.145374373
vn 0.833367586 -0.00246148673 -0.552713811
vn 0.834910572 0.00938847102 -0.550305486
vn 0.833314359 -0.00216680905 -0.552795231
vn 0.833187938 -0.0103078131 -0.552893877
vn 0.829497159 -0.0436066687 -0.556806028
vn 0.834944963 0.00964768697 -0.550248742
vn 0.453839451 -0.421429127 0.785128772
vn 0.453839362 -0.421429217 0.785128772
vn 0.453839391 -0.421429187 0.785128832
vn 0.453839391 -0.421429157 0.785128772
vn 0.444025755 -0.0518640168 0.894511759
vn 0.444025755 -0.0518640168 0.894511759
vn 0.436070621 0.195163712 0.878495097
vn 0.436340541 0.192088425 0.879038692
vn 0.409230322 0.390952289 0.824431181
vn 0.409230292 0.390952259 0.824431181
vn 0.920974314 -0.00158002996 -0.389620155
vn 0.920942187 -0.00250760326 -0.389691025
vn 0.92100513 -0.00284022279 -0.389540166
vn 0.920679688 -0.0124759311 -0.390119672
vn 0.916902483 0.0395085551 -0.397150993
vn 0.921446562 -0.0359143764 -0.386841565
vn 0.0513900444 -0.993298113 0.103527695
vn 0.0572820678 -0.991666615 0.115395695
vn 0.0572820604 -0.991666615 0.11539571
vn 0.0508468151 -0.993439496 0.102433495
vn 0.0439123288 -0.99511081 0.0884656757
vn 0.0439123288 -0.99511081 0.0884656757
vn -0.0540388562 0.992586076 -0.10887032
vn -0.054038845 0.992586076 -0.108870305
vn -0.0540388413 0.992586076 -0.108870298
vn -0.0540388413 0.992586076 -0.10887029
vn -0.924141288 -0.00284089241 0.382040173
vn -0.924204409 -0.00251017953 0.38188982
vn -0.924176514 -0.00158262346 0.38196221
vn -0.924326122 -0.0124596069 0.381400019
vn -0.922531545 -0.0359074324 0.38424772
vn -0.926673412 0.0394433513 0.373792231
vn -0.415457904 -0.356195897 -0.83697027
vn -0.415457904 -0.356195897 -0.83697027
vn -0.415457904 -0.356195897 -0.83697027
vn -0.415457875 -0.356195897 -0.83697027
vn 0.347296298 0.685996175 0.639370441
vn 0.347296298 0.685996175 0.639370501
vn -0.106907949 0.95300138 0.283476651
vn -0.106907368 0.953001261 0.283477157
vn -0.566121042 0.782949567 -0.257870138
vn -0.566121042 0.782949567 -0.257870138
vn -0.692243457 -0.227961347 0.684713602
vn -0.684711337 -0.302039385 0.663281798
vn -0.67934376 -0.296400934 0.671296239
vn -0.673421621 -0.300898284 0.675250828
vn -0.678538918 -0.295341283 0.672575951
vn -0.684892237 -0.291972578 0.667588711
vn 0.19565931 -0.960954726 -0.195661888
vn 0.195659325 -0.960954726 -0.195661888
vn 0.19565931 -0.960954726 -0.195661888
vn 0.195659339 -0.960954726 -0.195661888
vn 0.682166755 0.324700028 -0.655147672
vn 0.696532428 0.256838471 -0.669982612
vn 0.690995932 0.251134187 -0.677831948
vn 0.702211261 0.252244115 -0.665786922
vn 0.697355092 0.257906199 -0.668715358
vn 0.691131651 0.261326969 -0.673828721
vn 0.720916033 -0.155763626 0.675290883
vn 0.720916033 -0.155763641 0.675290883
vn 0.710247636 -0.0675678924 0.700701594
vn 0.710247636 -0.0675680637 0.700701594
vn 0.69148469 0.0302104261 0.72175914
vn 0.691484749 0.0302104224 0.721759081
vn -0.687968194 -0.0451188609 -0.724336982
vn -0.687967777 -0.0451185666 -0.724337399
vn -0.687968194 -0.0451189093 -0.724336982
vn -0.687967777 -0.0451185629 -0.724337399
vn -0.138868958 0.798273921 0.586066723
vn -0.138868943 0.798273981 0.586066663
vn -0.494575411 0.869063973 -0.0110898465
vn -0.494581252 0.869060397 -0.011104851
vn -0.608861446 0.515617371 -0.602848589
vn -0.608861446 0.515617371 -0.60284853
vn -0.812575161 -0.406362563 0.417841136
vn -0.784107208 -0.465041786 0.410988957
vn -0.779555321 -0.465650588 0.418882906
vn -0.783251286 -0.469928116 0.407044142
vn -0.784578145 -0.468095213 0.406600595
vn -0.7835235 -0.464084566 0.413178414
vn -0.782570124 -0.460581869 0.418865532
vn -0.782570064 -0.460581869 0.418865502
vn -0.321494222 -0.279420763 -0.904746115
vn -0.301879287 -0.310968369 -0.901203334
vn -0.321494192 -0.279420733 -0.904746115
vn -0.301879108 -0.310968518 -0.901203334
vn -0.340120494 -0.248415634 -0.906977236
vn -0.340119988 -0.248416513 -0.906977117
vn -0.365057439 -0.205133259 -0.9081043
vn -0.365058094 -0.205132157 -0.9081043
vn -0.343850911 -0.242071584 -0.907286048
vn -0.343850851 -0.242071584 -0.907286048
vn 0.7689538 0.483011067 -0.418820083
vn 0.803068817 0.424333483 -0.418355852
vn 0.798559487 0.42496565 -0.426270872
vn 0.799171567 0.419941425 -0.430086017
vn 0.797921836 0.42181772 -0.430570096
vn 0.799188852 0.425947964 -0.424105644
vn 0.800248921 0.429510862 -0.418475807
vn 0.800248921 0.429510832 -0.418475807
vn 0.381301641 0.175732136 0.907594264
vn 0.381301641 0.175732136 0.907594264
vn 0.381301671 0.175732136 0.907594264
vn 0.381301641 0.175732136 0.907594264
g O_env_zhalan_11_0
f 3/3/3 2/2/2 1/1/1
f 3/3/3 1/1/1 4/4/4
f 1/1/1 5/5/5 4/4/4
f 1/1/1 6/6/6 5/5/5
f 9/9/9 8/8/8 7/7/7
f 9/9/9 7/7/7 10/10/10
f 11/11/11 9/9/9 10/10/10
f 11/11/11 10/10/10 12/12/12
f 15/15/15 14/14/14 13/13/13
f 16/16/16 14/14/14 15/15/15
f 17/17/17 14/14/14 16/16/16
f 18/18/18 17/17/17 16/16/16
f 21/21/21 20/20/20 19/19/19
f 21/21/21 22/22/22 20/20/20
f 25/25/25 24/24/24 23/23/23
f 24/24/24 26/26/26 23/23/23
f 27/27/27 26/26/26 24/24/24
f 28/28/28 26/26/26 27/27/27
f 31/31/31 30/30/30 29/29/29
f 31/31/31 32/32/32 30/30/30
f 33/33/33 32/32/32 31/31/31
f 33/33/33 34/34/34 32/32/32
f 37/37/37 36/36/36 35/35/35
f 38/38/38 36/36/36 37/37/37
f 37/37/37 39/39/39 38/38/38
f 38/38/38 40/40/40 36/36/36
f 43/43/43 42/42/42 41/41/41
f 43/43/43 41/41/41 44/44/44
f 44/44/44 45/45/45 43/43/43
f 44/44/44 46/46/46 45/45/45
f 49/49/49 48/48/48 47/47/47
f 49/49/49 50/50/50 48/48/48
f 53/53/53 52/52/52 51/51/51
f 52/52/52 54/54/54 51/51/51
f 54/54/54 55/55/55 51/51/51
f 52/52/52 56/56/56 54/54/54
f 59/59/59 58/58/58 57/57/57
f 59/59/59 60/60/60 58/58/58
f 63/63/63 62/62/62 61/61/61
f 63/63/63 64/64/64 62/62/62
f 65/65/65 64/64/64 63/63/63
f 65/65/65 63/63/63 66/66/66
f 69/69/69 68/68/68 67/67/67
f 69/69/69 70/70/70 68/68/68
f 70/70/70 71/71/71 68/68/68
f 69/69/69 72/72/72 70/70/70
f 75/75/75 74/74/74 73/73/73
f 75/75/75 73/73/73 76/76/76
f 77/77/77 76/76/76 73/73/73
f 77/77/77 78/78/78 76/76/76
f 81/81/81 80/80/80 79/79/79
f 81/81/81 82/82/82 80/80/80
f 85/85/85 84/84/84 83/83/83
f 84/84/84 86/86/86 83/83/83
f 86/86/86 87/87/87 83/83/83
f 84/84/84 88/88/88 86/86/86
f 91/91/91 90/90/90 89/89/89
f 91/91/91 92/92/92 90/90/90
f 95/95/95 94/94/94 93/93/93
f 95/95/95 96/96/96 94/94/94
f 97/97/97 96/96/96 95/95/95
f 97/97/97 98/98/98 96/96/96
f 101/101/101 100/100/100 99/99/99
f 101/101/101 102/102/102 100/100/100
f 101/101/101 103/103/103 102/102/102
f 103/103/103 104/104/104 102/102/102
f 107/107/107 106/106/106 105/105/105
f 107/107/107 108/108/108 106/106/106
f 111/111/111 110/110/110 109/109/109
f 111/111/111 112/112/112 110/110/110
f 112/112/112 113/113/113 110/110/110
f 112/112/112 114/114/114 113/113/113
f 117/117/117 116/116/116 115/115/115
f 117/117/117 115/115/115 118/118/118
f 119/119/119 117/117/117 118/118/118
f 119/119/119 118/118/118 120/120/120
f 123/123/123 122/122/122 121/121/121
f 122/122/122 124/124/124 121/121/121
f 127/127/127 126/126/126 125/125/125
f 127/127/127 128/128/128 126/126/126
f 129/129/129 128/128/128 127/127/127
f 129/129/129 130/130/130 128/128/128
f 133/133/133 132/132/132 131/131/131
f 133/133/133 134/134/134 132/132/132
f 132/132/132 134/134/134 135/135/135
f 132/132/132 135/135/135 136/136/136
f 136/136/136 135/135/135 137/137/137
f 136/136/136 137/137/137 138/138/138
f 141/141/141 140/140/140 139/139/139
f 141/141/141 142/142/142 140/140/140
f 143/143/143 140/140/140 142/142/142
f 143/143/143 142/142/142 144/144/144
f 145/145/145 143/143/143 144/144/144
f 145/145/145 144/144/144 146/146/146
f 147/147/147 145/145/145 146/146/146
f 147/147/147 146/146/146 148/148/148
f 151/151/151 150/150/150 149/149/149
f 151/151/151 152/152/152 150/150/150
f 152/152/152 151/151/151 153/153/153
f 153/153/153 151/151/151 154/154/154
f 154/154/154 155/155/155 153/153/153
f 154/154/154 156/156/156 155/155/155
f 159/159/159 158/158/158 157/157/157
f 159/159/159 160/160/160 158/158/158
