g jianglidaoju_wurenji
v 5.14822247E-08 1.74177015 -0.563993871
v -0.200894937 1.70775187 -0.646700859
v -0.149058938 1.79988599 -0.533006966
v 5.41309078E-08 1.77137804 -0.533006966
v -0.149058938 1.79988599 -0.533006966
v 6.60912676E-08 2.04192996 -0.529937863
v 5.41309078E-08 1.77137804 -0.533006966
v -0.146521941 1.98731184 -0.533006966
v -5.7638867E-09 1.67246807 -1.80432999
v -0.193412021 1.52406108 -2.0096519
v -1.83781133E-08 1.58921003 -2.0096519
v -0.248121008 1.60351586 -1.78394175
v -0.364922017 1.43264008 -1.79020202
v -0.247729003 1.34214103 -2.0096519
v -0.419197977 1.13590002 -1.82978296
v -0.216637015 1.18319201 -2.0093019
v -0.482576996 1.37202799 -1.52057099
v -0.389351994 1.54890299 -1.52792788
v -0.387090951 1.57037902 -0.819016874
v -0.523365855 1.3938148 0.892425954
v -0.257577032 0.908042073 -1.81032288
v -3.98803586E-08 1.09729707 -2.00965285
v -4.34913581E-08 0.834932983 -1.82989883
v -3.77340008E-08 0.65416503 -1.51741803
v -0.565452993 1.09914589 -1.4937948
v -0.559510887 1.0932529 1.61065793
v -0.341540039 0.797286034 -1.50227892
v -0.321680874 0.759100914 1.61060798
v 9.72642269E-08 0.614551902 1.61059403
v -0.247082859 0.824853778 2.12717104
v 1.28546333E-07 0.749180913 2.19161606
v 1.54721448E-07 1.09390581 2.44570804
v -0.410073817 1.09569883 2.21954703
v 1.66480007E-07 1.50313377 2.30548406
v -0.330931842 1.50577784 2.12557483
v 1.72927457E-07 1.9563669 1.99975216
v -0.478943855 1.51309097 1.46488595
v -0.205640823 1.91306376 1.92778099
v 1.64422801E-07 2.1223979 1.63915706
v -0.272365838 2.00697684 1.63506889
v 1.39905694E-07 2.02488208 1.17578697
v -0.254870862 1.90890777 1.17921209
v 1.15475302E-07 1.84437096 0.797396064
v -0.27518484 1.73977494 0.819472015
v 9.7541438E-08 1.75800276 0.473485053
v -0.284283906 1.67204785 0.473485053
v 5.14822247E-08 1.74177015 -0.563993871
v -0.200894937 1.70775187 -0.646700859
v -0.248578951 1.69247401 -0.751622915
v -0.245420963 1.6934849 -0.886691809
v -0.364922017 1.43264008 -1.79020202
v -0.248121008 1.60351586 -1.78394175
v -0.365465999 1.57964611 -1.78608978
v -0.363433987 1.83916998 -1.58973479
v -0.250580996 1.83704996 -1.58910978
v -0.25623396 1.84359884 -1.01993883
v -0.363484919 1.83926296 -1.01939285
v -0.245420963 1.6934849 -0.886691809
v -0.387090951 1.57037902 -0.819016874
v -0.365465999 1.57964611 -1.78608978
v -0.389351994 1.54890299 -1.52792788
v -0.364922017 1.43264008 -1.79020202
v -0.363433987 1.83916998 -1.58973479
v -0.363484919 1.83926296 -1.01939285
v -0.387090951 1.57037902 -0.819016874
v -0.200894937 1.70775187 -0.646700859
v -0.146521941 1.98731184 -0.533006966
v -0.149058938 1.79988599 -0.533006966
v -0.235665947 2.07290483 -0.734487832
v 6.60912676E-08 2.04192996 -0.529937863
v 6.34695851E-08 2.18649697 -0.734481812
v -0.248578951 1.69247401 -0.751622915
v 3.47449074E-08 2.16739702 -1.37252581
v -0.25623396 1.84359884 -1.01993883
v -0.245420963 1.6934849 -0.886691809
v -0.225307956 2.06477094 -1.45320904
v -0.250580996 1.83704996 -1.58910978
v 2.36000304E-08 2.09399796 -1.55409181
v -0.183969989 1.84624505 -1.71430588
v -0.248121008 1.60351586 -1.78394175
v -5.7638867E-09 1.67246807 -1.80432999
v 3.49553897E-09 1.81468391 -1.73471475
v -0.171900973 2.00720191 -1.60873485
v -8.07776104E-08 1.03405106 -2.02320123
v -0.261442065 1.48522806 -2.0231998
v -5.37336327E-08 1.65274394 -2.0231998
v -0.261263072 1.20087194 -2.02320123
v -7.56394556E-08 1.50604594 -2.37764883
v -5.37336327E-08 1.65274394 -2.0231998
v -0.261442065 1.48522806 -2.0231998
v -0.122539081 1.41361487 -2.37678194
v -8.61485887E-08 1.34316313 -2.45518708
v -0.261263072 1.20087194 -2.02320123
v -0.122462079 1.27258909 -2.37678218
v -8.98794852E-08 1.18027496 -2.37765193
v -8.07776104E-08 1.03405106 -2.02320123
v 5.14822247E-08 1.74177015 -0.563993871
v 5.41309078E-08 1.77137804 -0.533006966
v 0.149059057 1.79988599 -0.533006966
v 0.200895041 1.70775187 -0.646700859
v 0.149059057 1.79988599 -0.533006966
v 5.41309078E-08 1.77137804 -0.533006966
v 6.60912676E-08 2.04192996 -0.529937863
v 0.14652206 1.98731184 -0.533006966
v -5.7638867E-09 1.67246807 -1.80432999
v -1.83781133E-08 1.58921003 -2.0096519
v 0.193411976 1.52406108 -2.0096519
v 0.248120964 1.60351586 -1.78394175
v 0.364921957 1.43264008 -1.79020202
v 0.247728959 1.34214103 -2.0096519
v 0.419197917 1.13590002 -1.82978296
v 0.216636956 1.18319201 -2.0093019
v 0.482576996 1.37202799 -1.52057099
v 0.389351994 1.54890299 -1.52792788
v 0.387091011 1.57037902 -0.819016874
v 0.523366094 1.3938148 0.892425954
v 0.257576972 0.908042073 -1.81032288
v -3.98803586E-08 1.09729707 -2.00965285
v -4.34913581E-08 0.834932983 -1.82989883
v -3.77340008E-08 0.65416503 -1.51741803
v 0.565452993 1.09914589 -1.4937948
v 0.559511125 1.0932529 1.61065793
v 0.341539949 0.797286034 -1.50227892
v 0.321681052 0.759100914 1.61060798
v 9.72642269E-08 0.614551902 1.61059403
v 0.247083127 0.824853778 2.12717104
v 1.28546333E-07 0.749180913 2.19161606
v 1.54721448E-07 1.09390581 2.44570804
v 0.410074115 1.09569883 2.21954703
v 1.66480007E-07 1.50313377 2.30548406
v 0.33093214 1.50577784 2.12557483
v 1.72927457E-07 1.9563669 1.99975216
v 0.478944093 1.51309097 1.46488595
v 0.20564115 1.91306376 1.92778099
v 1.64422801E-07 2.1223979 1.63915706
v 0.272366166 2.00697684 1.63506889
v 1.39905694E-07 2.02488208 1.17578697
v 0.25487116 1.90890777 1.17921209
v 1.15475302E-07 1.84437096 0.797396064
v 0.275185108 1.73977494 0.819472015
v 9.7541438E-08 1.75800276 0.473485053
v 0.284284085 1.67204785 0.473485053
v 5.14822247E-08 1.74177015 -0.563993871
v 0.200895041 1.70775187 -0.646700859
v 0.24857904 1.69247401 -0.751622915
v 0.245421022 1.6934849 -0.886691809
v 0.364921957 1.43264008 -1.79020202
v 0.365465999 1.57964611 -1.78608978
v 0.248120964 1.60351586 -1.78394175
v 0.363433987 1.83916998 -1.58973479
v 0.250580996 1.83704996 -1.58910978
v 0.25623402 1.84359884 -1.01993883
v 0.363484979 1.83926296 -1.01939285
v 0.245421022 1.6934849 -0.886691809
v 0.387091011 1.57037902 -0.819016874
v 0.365465999 1.57964611 -1.78608978
v 0.364921957 1.43264008 -1.79020202
v 0.389351994 1.54890299 -1.52792788
v 0.363433987 1.83916998 -1.58973479
v 0.363484979 1.83926296 -1.01939285
v 0.387091011 1.57037902 -0.819016874
v 0.200895041 1.70775187 -0.646700859
v 0.149059057 1.79988599 -0.533006966
v 0.14652206 1.98731184 -0.533006966
v 0.235666066 2.07290483 -0.734487832
v 6.60912676E-08 2.04192996 -0.529937863
v 6.34695851E-08 2.18649697 -0.734481812
v 0.24857904 1.69247401 -0.751622915
v 3.47449074E-08 2.16739702 -1.37252581
v 0.25623402 1.84359884 -1.01993883
v 0.245421022 1.6934849 -0.886691809
v 0.225308016 2.06477094 -1.45320904
v 0.250580996 1.83704996 -1.58910978
v 2.36000304E-08 2.09399796 -1.55409181
v 0.183969989 1.84624505 -1.71430588
v 0.248120964 1.60351586 -1.78394175
v -5.7638867E-09 1.67246807 -1.80432999
v 3.49553897E-09 1.81468391 -1.73471475
v 0.171901017 2.00720191 -1.60873485
v -8.07776104E-08 1.03405106 -2.02320123
v -5.37336327E-08 1.65274394 -2.0231998
v 0.261441916 1.48522806 -2.0231998
v 0.261262923 1.20087194 -2.02320123
v -7.56394556E-08 1.50604594 -2.37764883
v 0.261441916 1.48522806 -2.0231998
v -5.37336327E-08 1.65274394 -2.0231998
v 0.122538909 1.41361487 -2.37678194
v -8.61485887E-08 1.34316313 -2.45518708
v 0.261262923 1.20087194 -2.02320123
v 0.122461908 1.27258909 -2.37678218
v -8.98794852E-08 1.18027496 -2.37765193
v -8.07776104E-08 1.03405106 -2.02320123
v -1.18245888 0.464248031 0.762151062
v -1.32860684 0.692359984 0.9468171
v -1.18245888 0.546237946 0.944027066
v -1.41910183 0.700847983 0.766667068
v -1.18245888 0.83848089 0.949606061
v -1.41242707 0.715941966 0.189651072
v -1.18245888 0.486170024 0.180158079
v -1.29081678 0.730223954 -0.150536895
v -1.18245888 0.621959031 -0.155009925
v -1.18245888 0.838490069 -0.146063909
v -1.18245888 0.945714116 0.199145064
v -1.07410097 0.730223954 -0.15053691
v -1.18245888 0.937447965 0.771184087
v -0.952490926 0.715941966 0.189651072
v -1.18245888 0.621959031 -0.155009925
v -1.18245888 0.486170024 0.180158079
v -0.945815861 0.700847983 0.766667068
v -1.03631091 0.692359984 0.9468171
v -1.18245888 0.464248031 0.762151062
v -1.18245888 0.546237946 0.944027066
v -1.18245888 0.838490069 -0.146063909
v -1.29081678 0.730223954 -0.150536895
v -1.18245888 0.621959031 -0.155009925
v -1.07410097 0.730223954 -0.15053691
v 1.18245888 0.464247912 0.762150943
v 1.18245912 0.546237826 0.944026947
v 1.3286072 0.692359805 0.946816921
v 1.41910195 0.700847924 0.766667008
v 1.18245912 0.83848083 0.949606001
v 1.41242707 0.715941906 0.189650953
v 1.18245888 0.486169904 0.180157974
v 1.29081678 0.730223894 -0.150537029
v 1.18245888 0.621958911 -0.155010015
v 1.18245888 0.83848989 -0.146063998
v 1.18245888 0.945713937 0.199144974
v 1.07410097 0.730223894 -0.150537014
v 1.18245912 0.937447846 0.771183968
v 0.952491045 0.715941906 0.189650968
v 1.18245888 0.621958911 -0.155010015
v 1.18245888 0.486169904 0.180157974
v 0.945815921 0.700847924 0.766667008
v 1.03631103 0.692359805 0.946816921
v 1.18245888 0.464247912 0.762150943
v 1.18245912 0.546237826 0.944026947
v 1.18245888 0.83848989 -0.146063998
v 1.07410097 0.730223894 -0.150537014
v 1.18245888 0.621958911 -0.155010015
v 1.29081678 0.730223894 -0.150537029
v -0.396976948 1.123577 -0.419256926
v -2.55555606 1.18765414 -0.291633815
v -2.558676 1.12260306 -0.256259799
v -0.396976948 1.18622589 -0.484571904
v -0.396976948 1.26978993 -0.426432878
v -2.55413604 1.26316309 -0.265741825
v -0.396976918 1.52760279 0.236341089
v -2.56557894 1.4136399 0.132527173
v -2.5519948 1.39358389 0.410814166
v -0.396976918 1.47561979 0.585867047
v -2.54586387 1.28086317 0.478800178
v -0.396976918 1.33860993 0.670157969
v -0.396976918 1.20141387 0.600661039
v -2.54650402 1.15466499 0.418161154
v -0.396976918 1.13249898 0.374698073
v -2.56210995 1.11672902 0.135576159
v -0.396976948 1.123577 -0.419256926
v -2.558676 1.12260306 -0.256259799
v -0.12284603 0.663066089 -1.57045376
v -4.87652692E-08 0.663019001 -1.77863801
v -1.75091284E-08 0.640400052 -1.04096198
v -0.0957270116 0.657408953 -1.12827384
v -7.40569348E-08 -0.0074439263 -1.68678093
v -4.87652692E-08 0.663019001 -1.77863801
v -0.12284603 0.663066089 -1.57045376
v -0.0402800702 -0.00519692898 -1.57282317
v -0.0335950628 -0.00842493307 -1.47407389
v -0.0957270116 0.657408953 -1.12827384
v -6.25619805E-08 -0.00490593724 -1.42634499
v -1.75091284E-08 0.640400052 -1.04096198
v -1.30407786 0.825806022 -0.329148889
v -1.24769294 0.793251991 0.0633330792
v -1.37766099 0.868290067 -0.117255904
v -1.22556496 0.780476034 -0.272414893
v -1.33153999 0.778238952 -0.329149902
v -1.27515602 0.745684922 0.0633330792
v -1.25302696 0.732910037 -0.272414893
v -1.40512478 0.820723116 -0.117255904
v -1.40512478 0.820723116 -0.117255904
v -1.33153999 0.778238952 -0.329149902
v -1.30407786 0.825806022 -0.329148889
v -1.37766099 0.868290067 -0.117255904
v -1.27515602 0.745684922 0.0633330792
v -1.40512478 0.820723116 -0.117255904
v -1.37766099 0.868290067 -0.117255904
v -1.24769294 0.793251991 0.0633330792
v -1.25302696 0.732910037 -0.272414893
v -1.27515602 0.745684922 0.0633330792
v -1.24769294 0.793251991 0.0633330792
v -1.22556496 0.780476034 -0.272414893
v -1.33153999 0.778238952 -0.329149902
v -1.25302696 0.732910037 -0.272414893
v -1.22556496 0.780476034 -0.272414893
v -1.30407786 0.825806022 -0.329148889
v -1.21210992 0.567167044 -0.329149932
v -1.21210992 0.657826066 -0.272414923
v -1.21210992 0.632274091 0.0633330792
v -1.21210992 0.48219803 -0.117255926
v -1.15718496 0.567167044 -0.329149932
v -1.15718496 0.632274091 0.0633330792
v -1.15718496 0.657826066 -0.272414923
v -1.15718496 0.48219803 -0.117255926
v -1.15718496 0.48219803 -0.117255926
v -1.15718496 0.567167044 -0.329149932
v -1.21210992 0.567167044 -0.329149932
v -1.21210992 0.48219803 -0.117255926
v -1.15718496 0.632274091 0.0633330792
v -1.15718496 0.48219803 -0.117255926
v -1.21210992 0.48219803 -0.117255926
v -1.21210992 0.632274091 0.0633330792
v -1.15718496 0.657826066 -0.272414923
v -1.15718496 0.632274091 0.0633330792
v -1.21210992 0.632274091 0.0633330792
v -1.21210992 0.657826066 -0.272414923
v -1.15718496 0.567167044 -0.329149932
v -1.15718496 0.657826066 -0.272414923
v -1.21210992 0.657826066 -0.272414923
v -1.21210992 0.567167044 -0.329149932
v -1.03410602 0.776131928 -0.329149902
v -1.09049106 0.743578017 0.0633330718
v -0.960521996 0.818616092 -0.117255926
v -1.11261904 0.730803072 -0.272414893
v -1.06156898 0.823699117 -0.329148889
v -1.11795306 0.791145086 0.0633330792
v -1.140082 0.77836895 -0.272414893
v -0.987983882 0.866182983 -0.117255911
v -0.987983882 0.866182983 -0.117255911
v -1.06156898 0.823699117 -0.329148889
v -1.03410602 0.776131928 -0.329149902
v -0.960521996 0.818616092 -0.117255926
v -1.11795306 0.791145086 0.0633330792
v -0.987983882 0.866182983 -0.117255911
v -0.960521996 0.818616092 -0.117255926
v -1.09049106 0.743578017 0.0633330718
v -1.140082 0.77836895 -0.272414893
v -1.11795306 0.791145086 0.0633330792
v -1.09049106 0.743578017 0.0633330718
v -1.11261904 0.730803072 -0.272414893
v -1.06156898 0.823699117 -0.329148889
v -1.140082 0.77836895 -0.272414893
v -1.11261904 0.730803072 -0.272414893
v -1.03410602 0.776131928 -0.329149902
v -0.315069944 1.56660795 -1.05800784
v -0.378695965 1.65392196 -1.5199157
v -0.309051991 1.60470009 -1.52053607
v -0.408660948 1.6411109 -1.01581192
v -0.400547922 1.47614086 -0.94152087
v -0.494156927 1.56817305 -0.937317848
v -1.19752586 2.21159601 -1.29347384
v -1.16013801 2.25607395 -1.33201683
v -1.16736495 2.26207113 -1.56017303
v -1.19762397 2.22555804 -1.67151773
v -0.489589006 1.533849 -1.77457702
v -0.410815001 1.28263307 -0.977194905
v -0.464966953 1.27344894 -1.512079
v -0.591610909 1.41632915 -1.51198173
v -0.583213985 1.48279595 -0.967954934
v -0.400547922 1.47614086 -0.94152087
v -0.494156927 1.56817305 -0.937317848
v -1.19752586 2.21159601 -1.29347384
v -1.23261702 2.18048 -1.32008481
v -1.24079394 2.18569708 -1.55825675
v -0.489589006 1.533849 -1.77457702
v -1.19762397 2.22555804 -1.67151773
v -1.16013801 2.25607395 -1.33201683
v -1.19752586 2.21159601 -1.29347384
v -1.23261702 2.18048 -1.32008481
v -1.24079394 2.18569708 -1.55825675
v -1.16736495 2.26207113 -1.56017303
v -1.19762397 2.22555804 -1.67151773
v -0.591610909 1.41632915 -1.51198173
v -0.378695965 1.65392196 -1.5199157
v -0.489589006 1.533849 -1.77457702
v -0.309051991 1.60470009 -1.52053607
v -0.464966953 1.27344894 -1.512079
v 0.396977037 1.123577 -0.419257015
v 2.558676 1.12260282 -0.256260037
v 2.55555606 1.1876539 -0.291634053
v 0.396977037 1.18622589 -0.484571993
v 0.396977037 1.26978993 -0.426432937
v 2.55413604 1.26316285 -0.265742034
v 0.396977067 1.52760279 0.236341044
v 2.56557894 1.41363966 0.132526934
v 2.5519948 1.39358377 0.410813928
v 0.396977067 1.47561979 0.585867047
v 2.54586387 1.28086281 0.478799969
v 0.396977067 1.33860993 0.670157969
v 0.396977067 1.20141387 0.600661039
v 2.54650402 1.15466487 0.418160915
v 0.396977037 1.13249898 0.374698013
v 2.56210995 1.11672878 0.13557592
v 0.396977037 1.123577 -0.419257015
v 2.558676 1.12260282 -0.256260037
v 0.122845955 0.663066089 -1.57045376
v 0.0957269743 0.657408953 -1.12827384
v -1.75091284E-08 0.640400052 -1.04096198
v -4.87652692E-08 0.663019001 -1.77863801
v -7.40569348E-08 -0.0074439263 -1.68678093
v 0.122845955 0.663066089 -1.57045376
v -4.87652692E-08 0.663019001 -1.77863801
v 0.0402799249 -0.00519693224 -1.57282317
v 0.0335949324 -0.00842493679 -1.47407389
v 0.0957269743 0.657408953 -1.12827384
v -6.25619805E-08 -0.00490593724 -1.42634499
v -1.75091284E-08 0.640400052 -1.04096198
v 1.30407786 0.825805902 -0.329149008
v 1.37766099 0.868289948 -0.117256016
v 1.24769294 0.793251932 0.0633329824
v 1.22556496 0.780475974 -0.272415042
v 1.33153999 0.778238893 -0.329149991
v 1.25302696 0.732909918 -0.272415042
v 1.27515602 0.745684803 0.0633329749
v 1.40512478 0.820722938 -0.117256016
v 1.40512478 0.820722938 -0.117256016
v 1.37766099 0.868289948 -0.117256016
v 1.30407786 0.825805902 -0.329149008
v 1.33153999 0.778238893 -0.329149991
v 1.27515602 0.745684803 0.0633329749
v 1.24769294 0.793251932 0.0633329824
v 1.37766099 0.868289948 -0.117256016
v 1.40512478 0.820722938 -0.117256016
v 1.25302696 0.732909918 -0.272415042
v 1.22556496 0.780475974 -0.272415042
v 1.24769294 0.793251932 0.0633329824
v 1.27515602 0.745684803 0.0633329749
v 1.33153999 0.778238893 -0.329149991
v 1.30407786 0.825805902 -0.329149008
v 1.22556496 0.780475974 -0.272415042
v 1.25302696 0.732909918 -0.272415042
v 1.21210992 0.567166924 -0.329150051
v 1.21210992 0.632273972 0.0633329675
v 1.21210992 0.657826006 -0.272415042
v 1.21210992 0.482197911 -0.11725603
v 1.15718496 0.567166924 -0.329150051
v 1.15718496 0.657826006 -0.272415042
v 1.15718496 0.632273972 0.0633329675
v 1.15718496 0.482197911 -0.11725603
v 1.15718496 0.482197911 -0.11725603
v 1.21210992 0.482197911 -0.11725603
v 1.21210992 0.567166924 -0.329150051
v 1.15718496 0.567166924 -0.329150051
v 1.15718496 0.632273972 0.0633329675
v 1.21210992 0.632273972 0.0633329675
v 1.21210992 0.482197911 -0.11725603
v 1.15718496 0.482197911 -0.11725603
v 1.15718496 0.657826006 -0.272415042
v 1.21210992 0.657826006 -0.272415042
v 1.21210992 0.632273972 0.0633329675
v 1.15718496 0.632273972 0.0633329675
v 1.15718496 0.567166924 -0.329150051
v 1.21210992 0.567166924 -0.329150051
v 1.21210992 0.657826006 -0.272415042
v 1.15718496 0.657826006 -0.272415042
v 1.03410602 0.776131868 -0.329149991
v 0.960522056 0.818616033 -0.117256008
v 1.09049106 0.743577957 0.0633329824
v 1.11261904 0.730802894 -0.272415042
v 1.06156898 0.823698938 -0.329149008
v 1.140082 0.77836889 -0.272415042
v 1.11795306 0.791144907 0.0633329824
v 0.987984061 0.866182923 -0.117256008
v 0.987984061 0.866182923 -0.117256008
v 0.960522056 0.818616033 -0.117256008
v 1.03410602 0.776131868 -0.329149991
v 1.06156898 0.823698938 -0.329149008
v 1.11795306 0.791144907 0.0633329824
v 1.09049106 0.743577957 0.0633329824
v 0.960522056 0.818616033 -0.117256008
v 0.987984061 0.866182923 -0.117256008
v 1.140082 0.77836889 -0.272415042
v 1.11261904 0.730802894 -0.272415042
v 1.09049106 0.743577957 0.0633329824
v 1.11795306 0.791144907 0.0633329824
v 1.06156898 0.823698938 -0.329149008
v 1.03410602 0.776131868 -0.329149991
v 1.11261904 0.730802894 -0.272415042
v 1.140082 0.77836889 -0.272415042
v 0.315070003 1.56660795 -1.05800784
v 0.309051991 1.60470009 -1.52053607
v 0.378695965 1.65392196 -1.5199157
v 0.408661038 1.6411109 -1.01581192
v 0.400548011 1.47614086 -0.94152087
v 0.494156986 1.56817305 -0.937317848
v 1.19752586 2.21159601 -1.29347384
v 1.16013801 2.25607395 -1.33201683
v 1.16736495 2.26207113 -1.56017303
v 1.19762397 2.22555804 -1.67151773
v 0.489589006 1.533849 -1.77457702
v 0.410815001 1.28263307 -0.977194905
v 0.591610909 1.41632915 -1.51198173
v 0.464966953 1.27344894 -1.512079
v 0.583213985 1.48279595 -0.967954934
v 0.400548011 1.47614086 -0.94152087
v 0.494156986 1.56817305 -0.937317848
v 1.19752586 2.21159601 -1.29347384
v 1.23261702 2.18048 -1.32008481
v 1.24079394 2.18569708 -1.55825675
v 0.489589006 1.533849 -1.77457702
v 1.19762397 2.22555804 -1.67151773
v 1.16013801 2.25607395 -1.33201683
v 1.23261702 2.18048 -1.32008481
v 1.19752586 2.21159601 -1.29347384
v 1.24079394 2.18569708 -1.55825675
v 1.16736495 2.26207113 -1.56017303
v 1.19762397 2.22555804 -1.67151773
v 0.591610909 1.41632915 -1.51198173
v 0.489589006 1.533849 -1.77457702
v 0.378695965 1.65392196 -1.5199157
v 0.309051991 1.60470009 -1.52053607
v 0.464966953 1.27344894 -1.512079
v -0.0587908886 1.9573698 0.537486076
v -0.071266897 1.99560499 0.39616707
v -0.0712668896 2.1399138 0.39616707
v -0.100899875 2.05384398 0.64478308
v -0.100899875 2.15031791 0.64478308
v -0.0712668672 2.13991356 0.893399
v -0.0587908737 1.9573698 0.752080083
v -0.0712668672 1.99560499 0.893399
v -0.0479268767 1.85456598 0.756306052
v -0.0479268916 1.85456598 0.533260047
v -0.0686978996 1.73304975 0.494181037
v -0.0686978847 1.76039577 0.811708033
v 0.0712671131 2.1399138 0.39616707
v 0.0712671056 1.99560499 0.39616707
v 0.058791101 1.9573698 0.537486076
v 0.100900114 2.05384398 0.64478308
v 0.100900114 2.15031791 0.64478308
v 0.0712671354 2.13991356 0.893399
v 0.0587911159 1.9573698 0.752080083
v 0.071267128 1.99560499 0.893399
v 0.0479270965 1.85456598 0.533260047
v 0.0479271077 1.85456598 0.756306052
v 0.0686980933 1.73304975 0.494181037
v 0.0686981007 1.76039577 0.811708033
v 0.0712671056 1.99560499 0.39616707
v -0.0587908886 1.9573698 0.537486076
v 0.058791101 1.9573698 0.537486076
v -0.071266897 1.99560499 0.39616707
v 0.0712671131 2.1399138 0.39616707
v -0.0712668896 2.1399138 0.39616707
v 0.071267128 1.99560499 0.893399
v -0.0712668672 2.13991356 0.893399
v 0.0712671354 2.13991356 0.893399
v -0.0712668672 1.99560499 0.893399
v -0.0587908737 1.9573698 0.752080083
v 0.0587911159 1.9573698 0.752080083
v 0.0712671354 2.13991356 0.893399
v -0.0712668672 2.13991356 0.893399
v -0.100899875 2.15031791 0.64478308
v 0.100900114 2.15031791 0.64478308
v 0.0712671131 2.1399138 0.39616707
v -0.0712668896 2.1399138 0.39616707
v 0.058791101 1.9573698 0.537486076
v -0.0587908886 1.9573698 0.537486076
v -0.0479268916 1.85456598 0.533260047
v 0.0479270965 1.85456598 0.533260047
v 0.0686980933 1.73304975 0.494181037
v -0.0686978996 1.73304975 0.494181037
v -0.0587908737 1.9573698 0.752080083
v 0.0587911159 1.9573698 0.752080083
v 0.0479271077 1.85456598 0.756306052
v -0.0479268767 1.85456598 0.756306052
v -0.0686978847 1.76039577 0.811708033
v 0.0686981007 1.76039577 0.811708033
v -1.29016066 0.92108196 0.646074057
v -1.28857982 0.921082973 0.073461093
v -1.28933489 1.25110185 0.5011971
v -1.28858793 1.25110185 0.0734611079
v -1.29016066 0.92108196 0.646074057
v -1.28933489 1.25110185 0.5011971
v -1.18343091 1.27283287 0.555492103
v -1.18343091 0.939553976 0.736482084
v -1.07670069 0.92108196 0.646074057
v -1.07752788 1.25110185 0.5011971
v -1.07828295 0.921082973 0.0734610781
v -1.07827497 1.25110185 0.073461093
v -1.28858793 1.25110185 0.0734611079
v -1.28857982 0.921082973 0.073461093
v -1.07828295 0.921082973 0.0734610781
v -1.07752788 1.25110185 0.5011971
v -1.07827497 1.25110185 0.073461093
v -1.07670069 0.92108196 0.646074057
v 1.29016089 0.921081841 0.646073997
v 1.28933513 1.25110185 0.50119698
v 1.28857982 0.921082914 0.0734609812
v 1.28858793 1.25110185 0.0734609887
v 1.29016089 0.921081841 0.646073997
v 1.18343115 1.27283287 0.555491984
v 1.28933513 1.25110185 0.50119698
v 1.18343115 0.939553797 0.736481905
v 1.07670105 0.921081841 0.646073997
v 1.07752812 1.25110185 0.50119698
v 1.07828295 0.921082914 0.0734609887
v 1.28857982 0.921082914 0.0734609812
v 1.28858793 1.25110185 0.0734609887
v 1.07827497 1.25110185 0.0734610036
v 1.07828295 0.921082914 0.0734609887
v 1.07827497 1.25110185 0.0734610036
v 1.07752812 1.25110185 0.50119698
v 1.07670105 0.921081841 0.646073997
v -0.0697447956 1.75666153 -2.09777665
v -0.0368885808 1.47733819 -2.10675573
v 0.0380836464 1.47600198 -2.11302161
v 0.0957662165 1.748981 -2.13679004
v -0.0255524442 2.02933669 -2.0944829
v 0.0832268521 2.02066422 -2.1398468
v 0.047452163 2.09406447 -2.12780809
v 0.0184970088 2.09707069 -2.11635303
v -0.0368885808 1.47733819 -2.10675573
v -0.0596001409 1.75080442 -2.06434608
v -0.0267440025 1.47148108 -2.07332468
v -0.0697447956 1.75666153 -2.09777665
v -0.0154068749 2.02347922 -2.06105185
v -0.0255524442 2.02933669 -2.0944829
v 0.0286425017 2.09121323 -2.08292174
v 0.0184970088 2.09707069 -2.11635303
v 0.0575967394 2.08820748 -2.09437704
v 0.047452163 2.09406447 -2.12780809
v 0.0832268521 2.02066422 -2.1398468
v 0.0933724195 2.01480675 -2.10641575
v 0.0957662165 1.748981 -2.13679004
v 0.105910793 1.74312401 -2.10335898
v 0.0380836464 1.47600198 -2.11302161
v 0.0482283011 1.47014487 -2.0795908
v -0.0596001409 1.75080442 -2.06434608
v 0.0482283011 1.47014487 -2.0795908
v -0.0267440025 1.47148108 -2.07332468
v 0.105910793 1.74312401 -2.10335898
v 0.0933724195 2.01480675 -2.10641575
v -0.0154068749 2.02347922 -2.06105185
v 0.0286425017 2.09121323 -2.08292174
v 0.0575967394 2.08820748 -2.09437704
v -0.323249996 1.07600212 -2.09777665
v -0.0977770314 1.24411809 -2.10675573
v -0.13410601 1.3097142 -2.11302161
v -0.399354011 1.2231791 -2.1367898
v -0.58148998 0.977936149 -2.09448266
v -0.628369033 1.076478 -2.13984656
v -0.674048066 1.0087961 -2.12780786
v -0.662173986 0.982217133 -2.1163528
v -0.0977770314 1.24411809 -2.10675573
v -0.323249996 1.0877161 -2.06434584
v -0.0977770314 1.25583208 -2.07332444
v -0.323249996 1.07600212 -2.09777665
v -0.58148998 0.989651263 -2.06105161
v -0.58148998 0.977936149 -2.09448266
v -0.662173986 0.993932188 -2.08292174
v -0.662173986 0.982217133 -2.1163528
v -0.674048066 1.02051008 -2.0943768
v -0.674048066 1.0087961 -2.12780786
v -0.628369033 1.076478 -2.13984656
v -0.628369033 1.08819306 -2.10641575
v -0.399354011 1.2231791 -2.1367898
v -0.399354011 1.23489308 -2.10335875
v -0.13410601 1.3097142 -2.11302161
v -0.13410601 1.32142818 -2.0795908
v -0.323249996 1.0877161 -2.06434584
v -0.13410601 1.32142818 -2.0795908
v -0.0977770314 1.25583208 -2.07332444
v -0.399354011 1.23489308 -2.10335875
v -0.628369033 1.08819306 -2.10641575
v -0.58148998 0.989651263 -2.06105161
v -0.662173986 0.993932188 -2.08292174
v -0.674048066 1.02051008 -2.0943768
v 0.392970711 1.19678986 -2.09777665
v 0.134641573 1.30799711 -2.10675573
v 0.0959983021 1.24373734 -2.11302161
v 0.303563774 1.0572933 -2.1367898
v 0.607018352 1.02218044 -2.0944829
v 0.545118093 0.932310998 -2.1398468
v 0.626571834 0.926592767 -2.12780809
v 0.643652916 0.95016551 -2.11635303
v 0.134641573 1.30799711 -2.10675573
v 0.382826149 1.19093287 -2.06434608
v 0.124497071 1.30214012 -2.07332444
v 0.392970711 1.19678986 -2.09777665
v 0.596872747 1.01632285 -2.06105185
v 0.607018352 1.02218044 -2.0944829
v 0.633507431 0.944308043 -2.08292174
v 0.643652916 0.95016551 -2.11635303
v 0.616427243 0.920735836 -2.09437704
v 0.626571834 0.926592767 -2.12780809
v 0.545118093 0.932310998 -2.1398468
v 0.534972548 0.926453531 -2.10641575
v 0.303563774 1.0572933 -2.1367898
v 0.293419182 1.05143631 -2.10335875
v 0.0959983021 1.24373734 -2.11302161
v 0.0858536512 1.23788035 -2.0795908
v 0.382826149 1.19093287 -2.06434608
v 0.0858536512 1.23788035 -2.0795908
v 0.124497071 1.30214012 -2.07332444
v 0.293419182 1.05143631 -2.10335875
v 0.534972548 0.926453531 -2.10641575
v 0.596872747 1.01632285 -2.06105185
v 0.633507431 0.944308043 -2.08292174
v 0.616427243 0.920735836 -2.09437704
v -0.162123904 0.584008157 1.92616391
v -0.132901877 0.750551105 1.91552794
v 1.16723463E-07 0.708748162 1.961573
v -0.27460584 0.780689299 1.73169494
v 1.07528912E-07 0.509825051 1.9501493
v -0.335345864 0.585887134 1.67818892
v -0.241568908 0.734295249 1.408674
v -0.114532895 0.419920295 1.86767697
v 9.75672947E-08 0.380762279 1.85131693
v 8.20088459E-08 0.323340267 1.55280304
v -0.232363909 0.399649292 1.58666003
v -0.163228884 0.571141243 1.33977401
v 8.7107729E-08 0.705865204 1.28692698
v 7.97485598E-08 0.510144234 1.31428981
v 0.274606138 0.780689299 1.73169494
v 0.162124112 0.584008157 1.92616391
v 0.132902116 0.750551105 1.91552794
v 1.16723463E-07 0.708748162 1.961573
v 1.07528912E-07 0.509825051 1.9501493
v 0.335346073 0.585887134 1.67818892
v 0.241569087 0.734295249 1.408674
v 0.114533097 0.419920295 1.86767697
v 9.75672947E-08 0.380762279 1.85131693
v 8.20088459E-08 0.323340267 1.55280304
v 0.232364103 0.399649292 1.58666003
v 0.163229093 0.571141243 1.33977401
v 8.7107729E-08 0.705865204 1.28692698
v 7.97485598E-08 0.510144234 1.31428981
v -1.18245888 0.546237946 0.944027066
v -1.32860684 0.692359984 0.9468171
v -1.18245888 0.689273953 1.00285399
v -1.03631091 0.692359984 0.9468171
v -1.18245888 0.83848089 0.949606061
v 1.18245912 0.546237826 0.944026947
v 1.18245912 0.689273894 1.00285399
v 1.3286072 0.692359805 0.946816921
v 1.03631103 0.692359805 0.946816921
v 1.18245912 0.83848083 0.949606001
v -2.60177088 1.26695108 0.13191618
v -2.56557894 1.4136399 0.132527173
v -2.5519948 1.39358389 0.410814166
v -2.54586387 1.28086317 0.478800178
v -2.55413604 1.26316309 -0.265741825
v -2.54650402 1.15466499 0.418161154
v -2.55555606 1.18765414 -0.291633815
v -2.56210995 1.11672902 0.135576159
v -2.558676 1.12260306 -0.256259799
v 2.60177088 1.26695085 0.131915942
v 2.54586387 1.28086281 0.478799969
v 2.5519948 1.39358377 0.410813928
v 2.56557894 1.41363966 0.132526934
v 2.54650402 1.15466487 0.418160915
v 2.55413604 1.26316285 -0.265742034
v 2.56210995 1.11672878 0.13557592
v 2.55555606 1.1876539 -0.291634053
v 2.558676 1.12260282 -0.256260037
vt 0.9921875 0.842285156
vt 0.946289062 0.840332031
vt 0.968261719 0.864746094
vt 0.995117188 0.850585938
vt 0.0101318359 0.297851562
vt 0.0400695801 0.346679688
vt 0.0400695801 0.292236328
vt 0.010635376 0.335693359
vt 0.045135498 0.283447266
vt 0.0400085449 0.219726562
vt 0.0143890381 0.251464844
vt 0.0816040039 0.246582031
vt 0.0997924805 0.21472168
vt 0.0529785156 0.17980957
vt 0.10559082 0.151489258
vt 0.0542907715 0.142089844
vt 0.162841797 0.214355469
vt 0.15625 0.252685547
vt 0.301757812 0.260253906
vt 0.643066406 0.219604492
vt 0.105895996 0.0943603516
vt 0.0336914062 0.0950927734
vt 0.0864257812 0.0464477539
vt 0.162841797 0.00916290283
vt 0.171386719 0.158691406
vt 0.784667969 0.158691406
vt 0.169067383 0.0810546875
vt 0.7890625 0.0810546875
vt 0.793457031 0.00916290283
vt 0.892089844 0.0956420898
vt 0.928222656 0.0588989258
vt 0.984375 0.147094727
vt 0.898925781 0.15612793
vt 0.963867188 0.244628906
vt 0.892578125 0.236328125
vt 0.897460938 0.352539062
vt 0.758789062 0.24206543
vt 0.862792969 0.322509766
vt 0.813476562 0.395996094
vt 0.803222656 0.340087891
vt 0.708984375 0.389404297
vt 0.708984375 0.334228516
vt 0.623046875 0.365234375
vt 0.631835938 0.306152344
vt 0.557617188 0.353027344
vt 0.560058594 0.29296875
vt 0.351318359 0.348388672
vt 0.335449219 0.307617188
vt 0.314697266 0.297363281
vt 0.287597656 0.297363281
vt 0.0197601318 0.822753906
vt 0.0230865479 0.868164062
vt 0.0350952148 0.847167969
vt 0.0820922852 0.880371094
vt 0.0770874023 0.901367188
vt 0.200927734 0.901367188
vt 0.194335938 0.880371094
vt 0.234008789 0.869140625
vt 0.235351562 0.822753906
vt 0.0350952148 0.828613281
vt 0.0868530273 0.8046875
vt 0.0197601318 0.8046875
vt 0.0820922852 0.861816406
vt 0.194335938 0.861816406
vt 0.235351562 0.8046875
vt 0.943847656 0.854003906
vt 0.95703125 0.91796875
vt 0.965332031 0.87890625
vt 0.912597656 0.91796875
vt 0.963378906 0.950195312
vt 0.914550781 0.970214844
vt 0.920410156 0.845703125
vt 0.785644531 0.967285156
vt 0.858886719 0.870117188
vt 0.891601562 0.842285156
vt 0.772949219 0.91796875
vt 0.738769531 0.877441406
vt 0.742675781 0.958496094
vt 0.712890625 0.891601562
vt 0.681640625 0.850097656
vt 0.659667969 0.897949219
vt 0.685546875 0.917480469
vt 0.741699219 0.91796875
vt 0.986816406 0.334228516
vt 0.934082031 0.425048828
vt 0.986816406 0.458740234
vt 0.934082031 0.367675781
vt 0.813964844 0.748046875
vt 0.847167969 0.818847656
vt 0.897460938 0.78125
vt 0.839355469 0.731445312
vt 0.819335938 0.706054688
vt 0.92578125 0.729980469
vt 0.852050781 0.708007812
vt 0.8515625 0.678222656
vt 0.9296875 0.666503906
vt 0.9921875 0.842285156
vt 0.995117188 0.850585938
vt 0.968261719 0.864746094
vt 0.946289062 0.840332031
vt 0.0101318359 0.297851562
vt 0.0400695801 0.292236328
vt 0.0400695801 0.346679688
vt 0.010635376 0.335693359
vt 0.045135498 0.283447266
vt 0.0143890381 0.251464844
vt 0.0400085449 0.219726562
vt 0.0816040039 0.246582031
vt 0.0997924805 0.21472168
vt 0.0529785156 0.17980957
vt 0.10559082 0.151489258
vt 0.0542907715 0.142089844
vt 0.162841797 0.214355469
vt 0.15625 0.252685547
vt 0.301757812 0.260253906
vt 0.643066406 0.219604492
vt 0.105895996 0.0943603516
vt 0.0336914062 0.0950927734
vt 0.0864257812 0.0464477539
vt 0.162841797 0.00916290283
vt 0.171386719 0.158691406
vt 0.784667969 0.158691406
vt 0.169067383 0.0810546875
vt 0.7890625 0.0810546875
vt 0.793457031 0.00916290283
vt 0.892089844 0.0956420898
vt 0.928222656 0.0588989258
vt 0.984375 0.147094727
vt 0.898925781 0.15612793
vt 0.963867188 0.244628906
vt 0.892578125 0.236328125
vt 0.897460938 0.352539062
vt 0.758789062 0.24206543
vt 0.862792969 0.322509766
vt 0.813476562 0.395996094
vt 0.803222656 0.340087891
vt 0.708984375 0.389404297
vt 0.708984375 0.334228516
vt 0.623046875 0.365234375
vt 0.631835938 0.306152344
vt 0.557617188 0.353027344
vt 0.560058594 0.29296875
vt 0.351318359 0.348388672
vt 0.335449219 0.307617188
vt 0.314697266 0.297363281
vt 0.287597656 0.297363281
vt 0.0197601318 0.822753906
vt 0.0350952148 0.847167969
vt 0.0230865479 0.868164062
vt 0.0820922852 0.880371094
vt 0.0770874023 0.901367188
vt 0.200927734 0.901367188
vt 0.194335938 0.880371094
vt 0.234008789 0.869140625
vt 0.235351562 0.822753906
vt 0.0350952148 0.828613281
vt 0.0197601318 0.8046875
vt 0.0868530273 0.8046875
vt 0.0820922852 0.861816406
vt 0.194335938 0.861816406
vt 0.235351562 0.8046875
vt 0.943847656 0.854003906
vt 0.965332031 0.87890625
vt 0.95703125 0.91796875
vt 0.912597656 0.91796875
vt 0.963378906 0.950195312
vt 0.914550781 0.970214844
vt 0.920410156 0.845703125
vt 0.785644531 0.967285156
vt 0.858886719 0.870117188
vt 0.891601562 0.842285156
vt 0.772949219 0.91796875
vt 0.738769531 0.877441406
vt 0.742675781 0.958496094
vt 0.712890625 0.891601562
vt 0.681640625 0.850097656
vt 0.659667969 0.897949219
vt 0.685546875 0.917480469
vt 0.741699219 0.91796875
vt 0.986816406 0.334228516
vt 0.986816406 0.458740234
vt 0.934082031 0.425048828
vt 0.934082031 0.367675781
vt 0.813964844 0.748046875
vt 0.897460938 0.78125
vt 0.847167969 0.818847656
vt 0.839355469 0.731445312
vt 0.819335938 0.706054688
vt 0.92578125 0.729980469
vt 0.852050781 0.708007812
vt 0.8515625 0.678222656
vt 0.9296875 0.666503906
vt 0.482177734 0.440429688
vt 0.533203125 0.401855469
vt 0.482177734 0.401855469
vt 0.533203125 0.440429688
vt 0.586914062 0.401855469
vt 0.533203125 0.561523438
vt 0.482177734 0.561523438
vt 0.533203125 0.630371094
vt 0.482177734 0.630371094
vt 0.586914062 0.630371094
vt 0.586914062 0.561523438
vt 0.640625 0.630371094
vt 0.586914062 0.440429688
vt 0.640625 0.561523438
vt 0.691894531 0.630371094
vt 0.691894531 0.561523438
vt 0.640625 0.440429688
vt 0.640625 0.401855469
vt 0.691894531 0.440429688
vt 0.691894531 0.401855469
vt 0.512207031 0.939941406
vt 0.533691406 0.91796875
vt 0.512207031 0.895996094
vt 0.490478516 0.91796875
vt 0.482177734 0.440429688
vt 0.482177734 0.401855469
vt 0.533203125 0.401855469
vt 0.533203125 0.440429688
vt 0.586914062 0.401855469
vt 0.533203125 0.561523438
vt 0.482177734 0.561523438
vt 0.533203125 0.630371094
vt 0.482177734 0.630371094
vt 0.586914062 0.630371094
vt 0.586914062 0.561523438
vt 0.640625 0.630371094
vt 0.586914062 0.440429688
vt 0.640625 0.561523438
vt 0.691894531 0.630371094
vt 0.691894531 0.561523438
vt 0.640625 0.440429688
vt 0.640625 0.401855469
vt 0.691894531 0.440429688
vt 0.691894531 0.401855469
vt 0.512207031 0.939941406
vt 0.490478516 0.91796875
vt 0.512207031 0.895996094
vt 0.533691406 0.91796875
vt 0.465820312 0.794433594
vt 0.0183105469 0.777832031
vt 0.0183105469 0.794433594
vt 0.465820312 0.777832031
vt 0.465820312 0.759277344
vt 0.0183105469 0.759277344
vt 0.465820312 0.649414062
vt 0.0183105469 0.649414062
vt 0.0183105469 0.585449219
vt 0.465820312 0.585449219
vt 0.0183105469 0.556152344
vt 0.465820312 0.554199219
vt 0.465820312 0.524902344
vt 0.0183105469 0.524902344
vt 0.465820312 0.471923828
vt 0.0183105469 0.471923828
vt 0.465820312 0.364013672
vt 0.0183105469 0.364013672
vt 0.583984375 0.364990234
vt 0.624511719 0.392089844
vt 0.476318359 0.383544922
vt 0.495117188 0.364990234
vt 0.683105469 0.670410156
vt 0.659667969 0.8046875
vt 0.708007812 0.807128906
vt 0.70703125 0.671875
vt 0.727050781 0.670898438
vt 0.796875 0.805175781
vt 0.738769531 0.669921875
vt 0.821777344 0.796386719
vt 0.862792969 0.845703125
vt 0.78515625 0.826660156
vt 0.818847656 0.859863281
vt 0.853027344 0.826660156
vt 0.256835938 0.339599609
vt 0.334472656 0.320800781
vt 0.266845703 0.320800781
vt 0.300537109 0.353515625
vt 0.449951172 0.817382812
vt 0.486328125 0.817382812
vt 0.486328125 0.806152344
vt 0.449951172 0.806152344
vt 0.404785156 0.817382812
vt 0.442382812 0.817382812
vt 0.442382812 0.806152344
vt 0.404785156 0.806152344
vt 0.341308594 0.817382812
vt 0.395019531 0.817382812
vt 0.395019531 0.806152344
vt 0.341308594 0.806152344
vt 0.494628906 0.817382812
vt 0.51171875 0.817382812
vt 0.51171875 0.806152344
vt 0.494628906 0.806152344
vt 0.704589844 0.830566406
vt 0.714355469 0.849609375
vt 0.782226562 0.849609375
vt 0.748046875 0.816894531
vt 0.675292969 0.92578125
vt 0.59765625 0.944824219
vt 0.665527344 0.944824219
vt 0.631835938 0.912109375
vt 0.404296875 0.842773438
vt 0.367919922 0.842773438
vt 0.367919922 0.854003906
vt 0.404296875 0.854003906
vt 0.449462891 0.842773438
vt 0.411865234 0.842773438
vt 0.411865234 0.854003906
vt 0.449462891 0.854003906
vt 0.511230469 0.842773438
vt 0.457519531 0.842773438
vt 0.457519531 0.854003906
vt 0.511230469 0.854003906
vt 0.358154297 0.842773438
vt 0.341064453 0.842773438
vt 0.341064453 0.854003906
vt 0.358154297 0.854003906
vt 0.990722656 0.0306549072
vt 0.913085938 0.0116348267
vt 0.947265625 0.0444641113
vt 0.980957031 0.0116348267
vt 0.212890625 0.283935547
vt 0.290527344 0.264892578
vt 0.222900391 0.264892578
vt 0.256591797 0.297607422
vt 0.404541016 0.82421875
vt 0.368164062 0.82421875
vt 0.368164062 0.834960938
vt 0.404541016 0.834960938
vt 0.449707031 0.82421875
vt 0.412109375 0.82421875
vt 0.412109375 0.834960938
vt 0.449707031 0.834960938
vt 0.51171875 0.82421875
vt 0.457763672 0.82421875
vt 0.457763672 0.834960938
vt 0.51171875 0.834960938
vt 0.358154297 0.82421875
vt 0.341064453 0.82421875
vt 0.341064453 0.834960938
vt 0.358154297 0.834960938
vt 0.512695312 0.645996094
vt 0.605957031 0.669921875
vt 0.605957031 0.652832031
vt 0.504394531 0.669921875
vt 0.476318359 0.647949219
vt 0.477539062 0.67578125
vt 0.546386719 0.868164062
vt 0.560058594 0.866699219
vt 0.605957031 0.870605469
vt 0.629882812 0.871582031
vt 0.666503906 0.674804688
vt 0.872070312 0.407714844
vt 0.763671875 0.416015625
vt 0.763671875 0.454833984
vt 0.873535156 0.460205078
vt 0.900390625 0.437744141
vt 0.8984375 0.465087891
vt 0.822265625 0.655273438
vt 0.811035156 0.653808594
vt 0.763671875 0.657714844
vt 0.702636719 0.462158203
vt 0.737792969 0.659179688
vt 0.609375 0.900390625
vt 0.616699219 0.888671875
vt 0.610839844 0.879394531
vt 0.562988281 0.880859375
vt 0.563476562 0.90234375
vt 0.541015625 0.893554688
vt 0.206420898 0.286621094
vt 0.188842773 0.348388672
vt 0.247436523 0.332275391
vt 0.17199707 0.345458984
vt 0.171020508 0.271972656
vt 0.465820312 0.794433594
vt 0.0183105469 0.794433594
vt 0.0183105469 0.777832031
vt 0.465820312 0.777832031
vt 0.465820312 0.759277344
vt 0.0183105469 0.759277344
vt 0.465820312 0.649414062
vt 0.0183105469 0.649414062
vt 0.0183105469 0.585449219
vt 0.465820312 0.585449219
vt 0.0183105469 0.556152344
vt 0.465820312 0.554199219
vt 0.465820312 0.524902344
vt 0.0183105469 0.524902344
vt 0.465820312 0.471923828
vt 0.0183105469 0.471923828
vt 0.465820312 0.364013672
vt 0.0183105469 0.364013672
vt 0.583984375 0.364990234
vt 0.495117188 0.364990234
vt 0.476318359 0.383544922
vt 0.624511719 0.392089844
vt 0.683105469 0.670410156
vt 0.708007812 0.807128906
vt 0.659667969 0.8046875
vt 0.70703125 0.671875
vt 0.727050781 0.670898438
vt 0.796875 0.805175781
vt 0.738769531 0.669921875
vt 0.821777344 0.796386719
vt 0.862792969 0.845703125
vt 0.818847656 0.859863281
vt 0.78515625 0.826660156
vt 0.853027344 0.826660156
vt 0.256835938 0.339599609
vt 0.266845703 0.320800781
vt 0.334472656 0.320800781
vt 0.300537109 0.353515625
vt 0.449951172 0.817382812
vt 0.449951172 0.806152344
vt 0.486328125 0.806152344
vt 0.486328125 0.817382812
vt 0.404785156 0.817382812
vt 0.404785156 0.806152344
vt 0.442382812 0.806152344
vt 0.442382812 0.817382812
vt 0.341308594 0.817382812
vt 0.341308594 0.806152344
vt 0.395019531 0.806152344
vt 0.395019531 0.817382812
vt 0.494628906 0.817382812
vt 0.494628906 0.806152344
vt 0.51171875 0.806152344
vt 0.51171875 0.817382812
vt 0.704589844 0.830566406
vt 0.782226562 0.849609375
vt 0.714355469 0.849609375
vt 0.748046875 0.816894531
vt 0.675292969 0.92578125
vt 0.665527344 0.944824219
vt 0.59765625 0.944824219
vt 0.631835938 0.912109375
vt 0.404296875 0.842773438
vt 0.404296875 0.854003906
vt 0.367919922 0.854003906
vt 0.367919922 0.842773438
vt 0.449462891 0.842773438
vt 0.449462891 0.854003906
vt 0.411865234 0.854003906
vt 0.411865234 0.842773438
vt 0.511230469 0.842773438
vt 0.511230469 0.854003906
vt 0.457519531 0.854003906
vt 0.457519531 0.842773438
vt 0.358154297 0.842773438
vt 0.358154297 0.854003906
vt 0.341064453 0.854003906
vt 0.341064453 0.842773438
vt 0.990722656 0.0306549072
vt 0.947265625 0.0444641113
vt 0.913085938 0.0116348267
vt 0.980957031 0.0116348267
vt 0.212890625 0.283935547
vt 0.222900391 0.264892578
vt 0.290527344 0.264892578
vt 0.256591797 0.297607422
vt 0.404541016 0.82421875
vt 0.404541016 0.834960938
vt 0.368164062 0.834960938
vt 0.368164062 0.82421875
vt 0.449707031 0.82421875
vt 0.449707031 0.834960938
vt 0.412109375 0.834960938
vt 0.412109375 0.82421875
vt 0.51171875 0.82421875
vt 0.51171875 0.834960938
vt 0.457763672 0.834960938
vt 0.457763672 0.82421875
vt 0.358154297 0.82421875
vt 0.358154297 0.834960938
vt 0.341064453 0.834960938
vt 0.341064453 0.82421875
vt 0.512695312 0.645996094
vt 0.605957031 0.652832031
vt 0.605957031 0.669921875
vt 0.504394531 0.669921875
vt 0.476318359 0.647949219
vt 0.477539062 0.67578125
vt 0.546386719 0.868164062
vt 0.560058594 0.866699219
vt 0.605957031 0.870605469
vt 0.629882812 0.871582031
vt 0.666503906 0.674804688
vt 0.872070312 0.407714844
vt 0.763671875 0.454833984
vt 0.763671875 0.416015625
vt 0.873535156 0.460205078
vt 0.900390625 0.437744141
vt 0.8984375 0.465087891
vt 0.822265625 0.655273438
vt 0.811035156 0.653808594
vt 0.763671875 0.657714844
vt 0.702636719 0.462158203
vt 0.737792969 0.659179688
vt 0.609375 0.900390625
vt 0.610839844 0.879394531
vt 0.616699219 0.888671875
vt 0.562988281 0.880859375
vt 0.563476562 0.90234375
vt 0.541015625 0.893554688
vt 0.206420898 0.286621094
vt 0.247436523 0.332275391
vt 0.188842773 0.348388672
vt 0.17199707 0.345458984
vt 0.171020508 0.271972656
vt 0.273925781 0.854003906
vt 0.245361328 0.861816406
vt 0.245117188 0.890625
vt 0.295654297 0.874511719
vt 0.295654297 0.894042969
vt 0.345947266 0.891113281
vt 0.317138672 0.853515625
vt 0.345458984 0.862304688
vt 0.317871094 0.833007812
vt 0.272949219 0.833007812
vt 0.265136719 0.80859375
vt 0.328857422 0.813476562
vt 0.161132812 0.347412109
vt 0.161010742 0.318359375
vt 0.132446289 0.310791016
vt 0.110595703 0.331542969
vt 0.110717773 0.350830078
vt 0.0602722168 0.348144531
vt 0.0891113281 0.310546875
vt 0.060760498 0.319091797
vt 0.133300781 0.290039062
vt 0.0884399414 0.289794922
vt 0.141235352 0.265380859
vt 0.0773925781 0.270263672
vt 0.621582031 0.955566406
vt 0.650878906 0.981933594
vt 0.650878906 0.958496094
vt 0.621582031 0.984375
vt 0.592773438 0.955566406
vt 0.592773438 0.984375
vt 0.433105469 0.955566406
vt 0.462158203 0.984375
vt 0.462158203 0.955566406
vt 0.433105469 0.984375
vt 0.403564453 0.981933594
vt 0.403564453 0.958496094
vt 0.477539062 0.955566406
vt 0.477539062 0.984375
vt 0.527832031 0.990234375
vt 0.527832031 0.949707031
vt 0.577636719 0.955566406
vt 0.577636719 0.984375
vt 0.666503906 0.958496094
vt 0.666503906 0.981933594
vt 0.6875 0.979492188
vt 0.6875 0.960449219
vt 0.712890625 0.956542969
vt 0.712890625 0.983886719
vt 0.388427734 0.981933594
vt 0.388427734 0.958496094
vt 0.367919922 0.960449219
vt 0.367919922 0.979492188
vt 0.345947266 0.983886719
vt 0.345947266 0.956542969
vt 0.10559082 0.913574219
vt 0.00785064697 0.922851562
vt 0.100585938 0.983886719
vt 0.0132598877 0.983886719
vt 0.118713379 0.913574219
vt 0.113769531 0.983886719
vt 0.142089844 0.983886719
vt 0.140136719 0.913574219
vt 0.161376953 0.913574219
vt 0.170532227 0.983886719
vt 0.2890625 0.913574219
vt 0.286376953 0.983886719
vt 0.327636719 0.983886719
vt 0.329345703 0.913574219
vt 0.2734375 0.913574219
vt 0.18371582 0.983886719
vt 0.270751953 0.983886719
vt 0.174560547 0.913574219
vt 0.10559082 0.913574219
vt 0.100585938 0.983886719
vt 0.00785064697 0.922851562
vt 0.0132598877 0.983886719
vt 0.118713379 0.913574219
vt 0.142089844 0.983886719
vt 0.113769531 0.983886719
vt 0.140136719 0.913574219
vt 0.161376953 0.913574219
vt 0.170532227 0.983886719
vt 0.2890625 0.913574219
vt 0.329345703 0.913574219
vt 0.327636719 0.983886719
vt 0.286376953 0.983886719
vt 0.2734375 0.913574219
vt 0.270751953 0.983886719
vt 0.18371582 0.983886719
vt 0.174560547 0.913574219
vt 0.409423828 0.864257812
vt 0.354248047 0.877441406
vt 0.355957031 0.892578125
vt 0.413330078 0.893554688
vt 0.467529297 0.864257812
vt 0.466064453 0.893554688
vt 0.480712891 0.883300781
vt 0.481689453 0.876464844
vt 0.98828125 0.979492188
vt 0.935058594 0.9921875
vt 0.989746094 0.9921875
vt 0.934082031 0.979492188
vt 0.881835938 0.9921875
vt 0.880859375 0.979492188
vt 0.865722656 0.9921875
vt 0.864746094 0.979492188
vt 0.858886719 0.9921875
vt 0.859375 0.979492188
vt 0.84375 0.979492188
vt 0.842773438 0.9921875
vt 0.791015625 0.979492188
vt 0.790039062 0.9921875
vt 0.736816406 0.979492188
vt 0.735839844 0.9921875
vt 0.402099609 0.940429688
vt 0.344238281 0.921875
vt 0.344482422 0.9375
vt 0.399414062 0.910644531
vt 0.456542969 0.910644531
vt 0.455810547 0.940429688
vt 0.470458984 0.929199219
vt 0.470947266 0.922363281
vt 0.409423828 0.864257812
vt 0.354248047 0.877441406
vt 0.355957031 0.892578125
vt 0.413330078 0.893554688
vt 0.467529297 0.864257812
vt 0.466064453 0.893554688
vt 0.480712891 0.883300781
vt 0.481689453 0.876464844
vt 0.98828125 0.979492188
vt 0.935058594 0.9921875
vt 0.989746094 0.9921875
vt 0.934082031 0.979492188
vt 0.881835938 0.9921875
vt 0.880859375 0.979492188
vt 0.865722656 0.9921875
vt 0.864746094 0.979492188
vt 0.858886719 0.9921875
vt 0.859375 0.979492188
vt 0.84375 0.979492188
vt 0.842773438 0.9921875
vt 0.791015625 0.979492188
vt 0.790039062 0.9921875
vt 0.736816406 0.979492188
vt 0.735839844 0.9921875
vt 0.402099609 0.940429688
vt 0.344238281 0.921875
vt 0.344482422 0.9375
vt 0.399414062 0.910644531
vt 0.456542969 0.910644531
vt 0.455810547 0.940429688
vt 0.470458984 0.929199219
vt 0.470947266 0.922363281
vt 0.409423828 0.864257812
vt 0.354248047 0.877441406
vt 0.355957031 0.892578125
vt 0.413330078 0.893554688
vt 0.467529297 0.864257812
vt 0.466064453 0.893554688
vt 0.480712891 0.883300781
vt 0.481689453 0.876464844
vt 0.98828125 0.979492188
vt 0.935058594 0.9921875
vt 0.989746094 0.9921875
vt 0.934082031 0.979492188
vt 0.881835938 0.9921875
vt 0.880859375 0.979492188
vt 0.865722656 0.9921875
vt 0.864746094 0.979492188
vt 0.858886719 0.9921875
vt 0.859375 0.979492188
vt 0.84375 0.979492188
vt 0.842773438 0.9921875
vt 0.791015625 0.979492188
vt 0.790039062 0.9921875
vt 0.736816406 0.979492188
vt 0.735839844 0.9921875
vt 0.402099609 0.940429688
vt 0.344238281 0.921875
vt 0.344482422 0.9375
vt 0.399414062 0.910644531
vt 0.456542969 0.910644531
vt 0.455810547 0.940429688
vt 0.470458984 0.929199219
vt 0.470947266 0.922363281
vt 0.9140625 0.619140625
vt 0.881835938 0.625976562
vt 0.897949219 0.655761719
vt 0.867675781 0.573242188
vt 0.942382812 0.644042969
vt 0.906738281 0.563476562
vt 0.89453125 0.499267578
vt 0.950195312 0.611328125
vt 0.974609375 0.616699219
vt 0.995117188 0.548339844
vt 0.948242188 0.553222656
vt 0.936035156 0.496337891
vt 0.936523438 0.453369141
vt 0.969238281 0.485107422
vt 0.867675781 0.573242188
vt 0.9140625 0.619140625
vt 0.881835938 0.625976562
vt 0.897949219 0.655761719
vt 0.942382812 0.644042969
vt 0.906738281 0.563476562
vt 0.89453125 0.499267578
vt 0.950195312 0.611328125
vt 0.974609375 0.616699219
vt 0.995117188 0.548339844
vt 0.948242188 0.553222656
vt 0.936035156 0.496337891
vt 0.936523438 0.453369141
vt 0.969238281 0.485107422
vt 0.0369873047 0.00695037842
vt 0.00565338135 0.0382995605
vt 0.0369873047 0.037902832
vt 0.0682983398 0.0382995605
vt 0.0369873047 0.0695800781
vt 0.0369873047 0.00695037842
vt 0.0369873047 0.037902832
vt 0.00565338135 0.0382995605
vt 0.0682983398 0.0382995605
vt 0.0369873047 0.0695800781
vt 0.962890625 0.758789062
vt 0.932617188 0.762695312
vt 0.939941406 0.817382812
vt 0.962890625 0.829101562
vt 0.948730469 0.6796875
vt 0.98828125 0.815429688
vt 0.962890625 0.672363281
vt 0.993652344 0.755859375
vt 0.977050781 0.677246094
vt 0.962890625 0.758789062
vt 0.962890625 0.829101562
vt 0.939941406 0.817382812
vt 0.932617188 0.762695312
vt 0.98828125 0.815429688
vt 0.948730469 0.6796875
vt 0.993652344 0.755859375
vt 0.962890625 0.672363281
vt 0.977050781 0.677246094
vn -0 -0.73828125 0.674316406
vn -0.146118164 -0.73046875 0.666992188
vn -0.146118164 -0.73046875 0.666992188
vn -0 -0.73828125 0.674316406
vn -0.00798797607 -0.00775909424 1
vn -0 -0.00500106812 1
vn -0 -0.0113449097 1
vn -0.0210418701 0.000284910202 1
vn -0 0.922363281 -0.385986328
vn -0.596191406 0.661132812 -0.455322266
vn -0 0.922363281 -0.385986328
vn -0.549804688 0.739257812 -0.388183594
vn -0.848632812 0.321289062 -0.420654297
vn -0.780761719 0.129638672 -0.610839844
vn -0.812011719 -0.182373047 -0.554199219
vn -0.484375 -0.364990234 -0.794921875
vn -0.928222656 0.328857422 -0.173583984
vn -0.879394531 0.458007812 -0.131103516
vn -0.801757812 0.59765625 -0.0135574341
vn -0.928710938 0.368896484 -0.0354614258
vn -0.472412109 -0.650878906 -0.594238281
vn -0 -0.564453125 -0.825195312
vn -0 -0.758789062 -0.651367188
vn -0 -0.971191406 -0.237670898
vn -0.960449219 -0.204101562 -0.190307617
vn -0.974121094 -0.186889648 0.12890625
vn -0.604980469 -0.767089844 -0.213012695
vn -0.624023438 -0.775878906 0.0960693359
vn -0 -0.995605469 0.0955200195
vn -0.555664062 -0.710449219 0.431884766
vn -0 -0.829101562 0.559082031
vn -0 -0.127075195 0.991699219
vn -0.783691406 -0.146606445 0.603515625
vn -0 0.424560547 0.905273438
vn -0.729003906 0.371826172 0.574707031
vn -0 0.751464844 0.659667969
vn -0.944335938 0.3203125 0.0724487305
vn -0.581054688 0.633789062 0.510742188
vn -0 0.995605469 0.0947875977
vn -0.689941406 0.716796875 0.0983886719
vn -0 0.950195312 -0.311767578
vn -0.649902344 0.725585938 -0.2265625
vn -0 0.946289062 -0.323486328
vn -0.623046875 0.747070312 -0.231079102
vn -0 0.993652344 -0.112121582
vn -0.5625 0.82421875 -0.0613708496
vn -0 1 -0.000528812408
vn -0.29296875 0.956054688 0.00424194336
vn -0.619628906 0.78515625 -0.00605010986
vn -0.658691406 0.752441406 -0.009765625
vn 0.0125961304 0.0279998779 -0.999511719
vn -0.0315551758 0.458007812 -0.888183594
vn -0.0154418945 0.304931641 -0.952148438
vn -0.0328674316 0.898925781 -0.437255859
vn -0.0330505371 0.896972656 -0.440429688
vn -0.0642700195 0.900878906 0.429199219
vn -0.0659790039 0.894042969 0.443115234
vn -0.10534668 0.621582031 0.776367188
vn -0.10534668 0.621582031 0.776367188
vn -0.995605469 0.0287322998 -0.088684082
vn -0.996582031 0.0687866211 -0.0432739258
vn -0.995605469 -0.00110340118 -0.0922851562
vn -0.99609375 0.0816650391 -0.0322265625
vn -0.99609375 0.0883178711 0.00023162365
vn -0.99609375 0.0883178711 0.00023162365
vn -0.911621094 0.012008667 0.410400391
vn -0.729003906 0.437744141 0.526367188
vn -0.913085938 0.0115814209 0.408203125
vn -0.797851562 0.545410156 0.256103516
vn -0 0.833007812 0.553710938
vn -0 0.966308594 0.257568359
vn -0.977050781 0.0121917725 0.213623047
vn -0 0.984863281 -0.172485352
vn -0.997558594 0.0727539062 0.00423812866
vn -0.999511719 0.0116271973 0.0350646973
vn -0.751464844 0.626953125 -0.206665039
vn -0.899902344 0.292236328 -0.323242188
vn -0 0.81640625 -0.577148438
vn -0.468505859 0.453857422 -0.7578125
vn -0.373046875 0.384521484 -0.844238281
vn -0 0.357666016 -0.934082031
vn -0 0.441162109 -0.897460938
vn -0.466796875 0.615722656 -0.634765625
vn -0 -3.4570694E-06 1
vn 2.98023224E-07 -2.86102295E-06 1
vn -0 -2.20537186E-06 1
vn -3.09944153E-06 -4.82797623E-06 1
vn -0 0.774902344 -0.632324219
vn -0 0.915039062 -0.403808594
vn -0.8125 0.429443359 -0.394287109
vn -0.689453125 0.361328125 -0.627929688
vn -0 3.85046005E-05 -1
vn -0.812011719 -0.430419922 -0.394042969
vn -0.688964844 -0.362060547 -0.627929688
vn -0 -0.774902344 -0.631835938
vn -0 -0.915039062 -0.403076172
vn -0 -0.73828125 0.674316406
vn -0 -0.73828125 0.674316406
vn 0.146118164 -0.73046875 0.666992188
vn 0.146118164 -0.73046875 0.666992188
vn 0.00798797607 -0.00775909424 1
vn -0 -0.0113449097 1
vn -0 -0.00500106812 1
vn 0.0210418701 0.000284910202 1
vn -0 0.922363281 -0.385986328
vn -0 0.922363281 -0.385986328
vn 0.596191406 0.661132812 -0.455322266
vn 0.549804688 0.739257812 -0.388183594
vn 0.848632812 0.321289062 -0.420654297
vn 0.780761719 0.129638672 -0.610839844
vn 0.812011719 -0.182373047 -0.554199219
vn 0.484375 -0.364990234 -0.794921875
vn 0.928222656 0.328857422 -0.173583984
vn 0.879394531 0.458007812 -0.131103516
vn 0.801757812 0.59765625 -0.0135574341
vn 0.928710938 0.368896484 -0.0354614258
vn 0.472412109 -0.650878906 -0.594238281
vn -0 -0.564453125 -0.825195312
vn -0 -0.758789062 -0.651367188
vn -0 -0.971191406 -0.237670898
vn 0.960449219 -0.204101562 -0.190307617
vn 0.974121094 -0.186889648 0.12890625
vn 0.604980469 -0.767089844 -0.213012695
vn 0.624023438 -0.775878906 0.0960693359
vn -0 -0.995605469 0.0955200195
vn 0.555664062 -0.710449219 0.431884766
vn -0 -0.829101562 0.559082031
vn -0 -0.127075195 0.991699219
vn 0.783691406 -0.146606445 0.603515625
vn -0 0.424560547 0.905273438
vn 0.729003906 0.371826172 0.574707031
vn -0 0.751464844 0.659667969
vn 0.944335938 0.3203125 0.0724487305
vn 0.581054688 0.633789062 0.510742188
vn -0 0.995605469 0.0947875977
vn 0.689941406 0.716796875 0.0983886719
vn -0 0.950195312 -0.311767578
vn 0.649902344 0.725585938 -0.2265625
vn -0 0.946289062 -0.323486328
vn 0.623046875 0.747070312 -0.231079102
vn -0 0.993652344 -0.112121582
vn 0.5625 0.82421875 -0.0613708496
vn -0 1 -0.000528812408
vn 0.29296875 0.956054688 0.00424194336
vn 0.619628906 0.78515625 -0.00605010986
vn 0.658691406 0.752441406 -0.009765625
vn -0.0125961304 0.0279998779 -0.999511719
vn 0.0154418945 0.304931641 -0.952148438
vn 0.0315551758 0.458007812 -0.888183594
vn 0.0328674316 0.898925781 -0.437255859
vn 0.0330505371 0.896972656 -0.440429688
vn 0.0642700195 0.900878906 0.429199219
vn 0.0659790039 0.894042969 0.443115234
vn 0.10534668 0.621582031 0.776367188
vn 0.10534668 0.621582031 0.776367188
vn 0.995605469 0.0287322998 -0.088684082
vn 0.995605469 -0.00110435486 -0.0922851562
vn 0.996582031 0.0687866211 -0.0432739258
vn 0.99609375 0.0816650391 -0.0322265625
vn 0.99609375 0.0883178711 0.00023150444
vn 0.99609375 0.0883178711 0.00023150444
vn 0.911621094 0.012008667 0.410400391
vn 0.913085938 0.0115814209 0.408203125
vn 0.729003906 0.437744141 0.526367188
vn 0.797851562 0.545410156 0.256103516
vn -0 0.833007812 0.553710938
vn -0 0.966308594 0.257568359
vn 0.977050781 0.0121917725 0.213623047
vn -0 0.984863281 -0.172485352
vn 0.997558594 0.0727539062 0.00423812866
vn 0.999511719 0.0116271973 0.0350646973
vn 0.751464844 0.626953125 -0.206665039
vn 0.899902344 0.292236328 -0.323242188
vn -0 0.81640625 -0.577148438
vn 0.468505859 0.453857422 -0.7578125
vn 0.373046875 0.384521484 -0.844238281
vn -0 0.357666016 -0.934082031
vn -0 0.441162109 -0.897460938
vn 0.466796875 0.615722656 -0.634765625
vn -0 -3.4570694E-06 1
vn -0 -2.20537186E-06 1
vn -2.98023224E-07 -2.86102295E-06 1
vn 3.09944153E-06 -4.82797623E-06 1
vn -0 0.774902344 -0.632324219
vn 0.8125 0.429443359 -0.394287109
vn -0 0.915039062 -0.403808594
vn 0.689453125 0.361328125 -0.627929688
vn -0 3.85046005E-05 -1
vn 0.812011719 -0.430419922 -0.394042969
vn 0.688964844 -0.362060547 -0.627929688
vn -0 -0.774902344 -0.631835938
vn -0 -0.915039062 -0.403076172
vn -1.1920929E-07 -0.984863281 0.173095703
vn -0.893554688 -0.02293396 0.447998047
vn -0 -0.911621094 0.410888672
vn -0.979003906 -0.00197219849 0.204589844
vn -0 0.874511719 0.485107422
vn -0.986328125 0.0029335022 -0.164672852
vn -0 -0.979980469 -0.198120117
vn -0.941894531 0.0142288208 -0.3359375
vn -0 -0.926757812 -0.375488281
vn -0 0.955078125 -0.296630859
vn -0 0.991210938 -0.131103516
vn 0.941894531 0.0142288208 -0.3359375
vn -0 0.971679688 0.235473633
vn 0.986328125 0.0029335022 -0.164672852
vn -0 -0.926757812 -0.375488281
vn -0 -0.979980469 -0.198120117
vn 0.979003906 -0.00197219849 0.204589844
vn 0.893554688 -0.02293396 0.447998047
vn -1.1920929E-07 -0.984863281 0.173095703
vn -0 -0.911621094 0.410888672
vn -0 0.0412902832 -0.999023438
vn -0 0.0412902832 -0.999023438
vn -0 0.0412902832 -0.999023438
vn -0 0.0412902832 -0.999023438
vn -1.78813934E-07 -0.984863281 0.173095703
vn 3.57627869E-07 -0.911621094 0.410888672
vn 0.893554688 -0.02293396 0.447998047
vn 0.979003906 -0.00197219849 0.204589844
vn 1.78813934E-07 0.874511719 0.485107422
vn 0.986328125 0.0029335022 -0.164672852
vn -1.1920929E-07 -0.979980469 -0.198120117
vn 0.941894531 0.0142288208 -0.3359375
vn -0 -0.926757812 -0.375488281
vn -0 0.955078125 -0.296630859
vn -1.78813934E-07 0.991210938 -0.131103516
vn -0.941894531 0.0142288208 -0.3359375
vn 1.1920929E-07 0.971679688 0.235473633
vn -0.986328125 0.0029335022 -0.164672852
vn -0 -0.926757812 -0.375488281
vn -1.1920929E-07 -0.979980469 -0.198120117
vn -0.979003906 -0.00197219849 0.204589844
vn -0.893554688 -0.02293396 0.447998047
vn -1.78813934E-07 -0.984863281 0.173095703
vn 3.57627869E-07 -0.911621094 0.410888672
vn -0 0.0412902832 -0.999023438
vn -0 0.0412902832 -0.999023438
vn -0 0.0412902832 -0.999023438
vn -0 0.0412902832 -0.999023438
vn -0.0354614258 -0.890625 -0.453125
vn -0.0817871094 -0.104064941 -0.991210938
vn -0.0318908691 -0.910644531 -0.412353516
vn -0.0819091797 -0.0870361328 -0.992675781
vn -0.056060791 0.73828125 -0.672363281
vn -0.0545959473 0.754394531 -0.653808594
vn -0.0431518555 0.9921875 -0.117736816
vn -0.0423278809 0.989746094 -0.135986328
vn -0.0776367188 0.854003906 0.514160156
vn -0.0793457031 0.83203125 0.548828125
vn -0.0891113281 0.0431518555 0.995117188
vn -0.0892944336 0.0500183105 0.994628906
vn -0.042175293 -0.775878906 0.629394531
vn -0.0384521484 -0.808105469 0.587402344
vn -0.00139808655 -0.993652344 0.111816406
vn -0.000635147095 -0.995605469 0.0958862305
vn -0.0354614258 -0.890625 -0.453125
vn -0.0318908691 -0.910644531 -0.412353516
vn 0.0897827148 0.995605469 0.0218048096
vn -0 1 0.0218811035
vn -0 1 0.0218811035
vn 0.0897827148 0.995605469 0.0218048096
vn -0 -0.185546875 -0.982421875
vn -0 -0.185546875 -0.982421875
vn -0.974121094 -0.108032227 -0.197631836
vn -0.973144531 -0.107543945 -0.203979492
vn -0.930664062 -0.23059082 0.283203125
vn -0.856933594 -0.294677734 0.423339844
vn -0 -0.520996094 0.853515625
vn -0 -0.520996094 0.853515625
vn 0.5 0.866210938 -6.55651093E-07
vn 0.5 0.866210938 -7.15255737E-07
vn 0.5 0.866210938 -7.74860382E-07
vn 0.5 0.866210938 -5.36441803E-07
vn -0.5 -0.866210938 -2.14576721E-06
vn -0.5 -0.866210938 -1.60932541E-06
vn -0.5 -0.866210938 -2.8014183E-06
vn -0.5 -0.866210938 -1.07288361E-06
vn -0.803710938 0.464111328 -0.372070312
vn -0.803710938 0.464111328 -0.372070312
vn -0.803710938 0.464111328 -0.372070312
vn -0.803710938 0.464111328 -0.372070312
vn -0.666015625 0.384521484 0.639160156
vn -0.666015625 0.384521484 0.639160156
vn -0.666015625 0.384521484 0.639160156
vn -0.666015625 0.384521484 0.639160156
vn 0.863769531 -0.498535156 0.0758666992
vn 0.863769531 -0.498535156 0.0758666992
vn 0.863769531 -0.498535156 0.0758666992
vn 0.863769531 -0.498535156 0.0758666992
vn 0.459472656 -0.265136719 -0.84765625
vn 0.459472656 -0.265136719 -0.84765625
vn 0.459472656 -0.265136719 -0.84765625
vn 0.459472656 -0.265136719 -0.84765625
vn -1 0 0
vn -1 0 0
vn -1 0 0
vn -1 0 0
vn 1 0 0
vn 1 0 0
vn 1 0 0
vn 1 0 0
vn -0 -0.928222656 -0.372070312
vn -0 -0.928222656 -0.372070312
vn -0 -0.928222656 -0.372070312
vn -0 -0.928222656 -0.372070312
vn -0 -0.769042969 0.639160156
vn -0 -0.769042969 0.639160156
vn -0 -0.769042969 0.639160156
vn -0 -0.769042969 0.639160156
vn -0 0.997070312 0.0758666992
vn -0 0.997070312 0.0758666992
vn -0 0.997070312 0.0758666992
vn -0 0.997070312 0.0758666992
vn -0 0.530273438 -0.84765625
vn -0 0.530273438 -0.84765625
vn -0 0.530273438 -0.84765625
vn -0 0.530273438 -0.84765625
vn 0.5 -0.866210938 -4.17232513E-07
vn 0.5 -0.866210938 0
vn 0.5 -0.866210938 5.36441803E-07
vn 0.5 -0.866210938 -1.01327896E-06
vn -0.5 0.866210938 9.53674316E-07
vn -0.5 0.866210938 1.25169754E-06
vn -0.5 0.866210938 5.96046448E-07
vn -0.5 0.866210938 1.60932541E-06
vn 0.803710938 0.464111328 -0.372070312
vn 0.803710938 0.464111328 -0.372070312
vn 0.803710938 0.464111328 -0.372070312
vn 0.803710938 0.464111328 -0.372070312
vn 0.666015625 0.384521484 0.639160156
vn 0.666015625 0.384521484 0.639160156
vn 0.666015625 0.384521484 0.639160156
vn 0.666015625 0.384521484 0.639160156
vn -0.863769531 -0.498535156 0.0758666992
vn -0.863769531 -0.498535156 0.0758666992
vn -0.863769531 -0.498535156 0.0758666992
vn -0.863769531 -0.498535156 0.0758666992
vn -0.459472656 -0.265136719 -0.84765625
vn -0.459472656 -0.265136719 -0.84765625
vn -0.459472656 -0.265136719 -0.84765625
vn -0.459472656 -0.265136719 -0.84765625
vn 0.629394531 0.67578125 0.383544922
vn 0.618164062 0.775878906 -0.127807617
vn 0.61328125 0.787109375 0.0642700195
vn 0.516113281 0.674316406 0.527832031
vn 0.520996094 0.371582031 0.768554688
vn 0.351318359 0.499267578 0.791992188
vn 0.163574219 0.60546875 0.778808594
vn 0.472412109 0.790039062 0.391357422
vn 0.608886719 0.752441406 -0.250976562
vn 0.556152344 0.664550781 -0.498779297
vn 0.556152344 0.664550781 -0.498779297
vn -0.658691406 -0.596191406 0.458984375
vn -0.749511719 -0.655761719 0.0894165039
vn -0.747558594 -0.655761719 -0.104431152
vn -0.618164062 -0.416015625 0.666992188
vn -0.147338867 -0.178833008 0.97265625
vn -0.291015625 -0.0819702148 0.953125
vn -0.440917969 0.0290374756 0.896972656
vn -0.75 -0.443847656 0.490478516
vn -0.729492188 -0.641601562 -0.236328125
vn -0.646972656 -0.581542969 -0.493408203
vn -0.646972656 -0.581542969 -0.493408203
vn -0.716796875 0.694824219 0.0575866699
vn -0.707519531 0.696777344 0.117980957
vn -0.715820312 0.6953125 0.0639038086
vn -0.720214844 0.693847656 0.0114746094
vn -0.720214844 0.693847656 0.00946807861
vn -0.720703125 0.692382812 -0.0311279297
vn 0.365234375 -0.356201172 -0.859863281
vn 0.369140625 -0.359619141 -0.856933594
vn 0.744628906 -0.667480469 -0.00947570801
vn -0.0194854736 -0.0161743164 -0.999511719
vn -0.0194854736 -0.0161743164 -0.999511719
vn 0.0354614258 -0.890625 -0.453125
vn 0.0318908691 -0.910644531 -0.412353516
vn 0.0817871094 -0.104064941 -0.991210938
vn 0.0819091797 -0.0870361328 -0.992675781
vn 0.056060791 0.73828125 -0.672363281
vn 0.0545959473 0.754394531 -0.653808594
vn 0.0431518555 0.9921875 -0.117736816
vn 0.0423278809 0.989746094 -0.135986328
vn 0.0776367188 0.854003906 0.514160156
vn 0.0793457031 0.83203125 0.548828125
vn 0.0891113281 0.0431518555 0.995117188
vn 0.0892944336 0.0500183105 0.994628906
vn 0.042175293 -0.775878906 0.629394531
vn 0.0384521484 -0.808105469 0.587402344
vn 0.00139808655 -0.993652344 0.111816406
vn 0.000635147095 -0.995605469 0.0958862305
vn 0.0354614258 -0.890625 -0.453125
vn 0.0318908691 -0.910644531 -0.412353516
vn -0.0897827148 0.995605469 0.0218048096
vn -0.0897827148 0.995605469 0.0218048096
vn -0 1 0.0218811035
vn -0 1 0.0218811035
vn -0 -0.185546875 -0.982421875
vn 0.974121094 -0.108032227 -0.197631836
vn -0 -0.185546875 -0.982421875
vn 0.973144531 -0.107543945 -0.203979492
vn 0.930664062 -0.23059082 0.283203125
vn 0.856933594 -0.294677734 0.423339844
vn -0 -0.520996094 0.853515625
vn -0 -0.520996094 0.853515625
vn -0.5 0.866210938 -7.15255737E-07
vn -0.5 0.866210938 -8.94069672E-07
vn -0.5 0.866210938 -8.34465027E-07
vn -0.5 0.866210938 -5.96046448E-07
vn 0.5 -0.866210938 -2.2649765E-06
vn 0.5 -0.866210938 -2.86102295E-06
vn 0.5 -0.866210938 -1.78813934E-06
vn 0.5 -0.866210938 -1.31130219E-06
vn 0.803710938 0.464111328 -0.372070312
vn 0.803710938 0.464111328 -0.372070312
vn 0.803710938 0.464111328 -0.372070312
vn 0.803710938 0.464111328 -0.372070312
vn 0.666015625 0.384521484 0.639160156
vn 0.666015625 0.384521484 0.639160156
vn 0.666015625 0.384521484 0.639160156
vn 0.666015625 0.384521484 0.639160156
vn -0.863769531 -0.498535156 0.0758666992
vn -0.863769531 -0.498535156 0.0758666992
vn -0.863769531 -0.498535156 0.0758666992
vn -0.863769531 -0.498535156 0.0758666992
vn -0.459472656 -0.265136719 -0.84765625
vn -0.459472656 -0.265136719 -0.84765625
vn -0.459472656 -0.265136719 -0.84765625
vn -0.459472656 -0.265136719 -0.84765625
vn 1 0 0
vn 1 0 0
vn 1 0 0
vn 1 0 0
vn -1 0 0
vn -1 0 0
vn -1 0 0
vn -1 0 0
vn -0 -0.928222656 -0.372070312
vn -0 -0.928222656 -0.372070312
vn -0 -0.928222656 -0.372070312
vn -0 -0.928222656 -0.372070312
vn -0 -0.769042969 0.639160156
vn -0 -0.769042969 0.639160156
vn -0 -0.769042969 0.639160156
vn -0 -0.769042969 0.639160156
vn -0 0.997070312 0.0758666992
vn -0 0.997070312 0.0758666992
vn -0 0.997070312 0.0758666992
vn -0 0.997070312 0.0758666992
vn -0 0.530273438 -0.84765625
vn -0 0.530273438 -0.84765625
vn -0 0.530273438 -0.84765625
vn -0 0.530273438 -0.84765625
vn -0.5 -0.866210938 -2.98023224E-07
vn -0.5 -0.866210938 5.36441803E-07
vn -0.5 -0.866210938 1.1920929E-07
vn -0.5 -0.866210938 -8.94069672E-07
vn 0.5 0.866210938 9.53674316E-07
vn 0.5 0.866210938 7.15255737E-07
vn 0.5 0.866210938 1.1920929E-06
vn 0.5 0.866210938 1.37090683E-06
vn -0.803710938 0.464111328 -0.372070312
vn -0.803710938 0.464111328 -0.372070312
vn -0.803710938 0.464111328 -0.372070312
vn -0.803710938 0.464111328 -0.372070312
vn -0.666015625 0.384521484 0.639160156
vn -0.666015625 0.384521484 0.639160156
vn -0.666015625 0.384521484 0.639160156
vn -0.666015625 0.384521484 0.639160156
vn 0.863769531 -0.498535156 0.0758666992
vn 0.863769531 -0.498535156 0.0758666992
vn 0.863769531 -0.498535156 0.0758666992
vn 0.863769531 -0.498535156 0.0758666992
vn 0.459472656 -0.265136719 -0.84765625
vn 0.459472656 -0.265136719 -0.84765625
vn 0.459472656 -0.265136719 -0.84765625
vn 0.459472656 -0.265136719 -0.84765625
vn -0.629394531 0.67578125 0.383544922
vn -0.61328125 0.787109375 0.0642700195
vn -0.618164062 0.775878906 -0.127807617
vn -0.516113281 0.674316406 0.527832031
vn -0.520996094 0.371582031 0.768554688
vn -0.351318359 0.499267578 0.791992188
vn -0.163574219 0.60546875 0.778808594
vn -0.472412109 0.790039062 0.391357422
vn -0.608886719 0.752441406 -0.250976562
vn -0.556152344 0.664550781 -0.498779297
vn -0.556152344 0.664550781 -0.498779297
vn 0.658691406 -0.596191406 0.458984375
vn 0.747558594 -0.655761719 -0.104431152
vn 0.749511719 -0.655761719 0.0894165039
vn 0.618164062 -0.416015625 0.666992188
vn 0.147338867 -0.178833008 0.97265625
vn 0.291015625 -0.0819702148 0.953125
vn 0.440917969 0.0290374756 0.896972656
vn 0.75 -0.443847656 0.490478516
vn 0.729492188 -0.641601562 -0.236328125
vn 0.646972656 -0.581542969 -0.493408203
vn 0.646972656 -0.581542969 -0.493408203
vn 0.716796875 0.694824219 0.0575866699
vn 0.715820312 0.6953125 0.0639038086
vn 0.707519531 0.696777344 0.117980957
vn 0.720214844 0.693847656 0.0114746094
vn 0.720214844 0.693847656 0.00946807861
vn 0.720703125 0.692382812 -0.0311279297
vn -0.365234375 -0.356201172 -0.859863281
vn -0.744628906 -0.667480469 -0.00947570801
vn -0.369140625 -0.359619141 -0.856933594
vn 0.0194854736 -0.0161743164 -0.999511719
vn 0.0194854736 -0.0161743164 -0.999511719
vn -0.984375 -0.171020508 -0.0405273438
vn -0.987304688 -0.134277344 -0.0862426758
vn -0.990234375 -0.103393555 -0.0938110352
vn -0.98828125 -0.151367188 0
vn -1 0 0
vn -0.990234375 -0.103393555 0.0938110352
vn -0.984375 -0.171020508 0.0405273438
vn -0.987304688 -0.134277344 0.0862426758
vn -0.998046875 0.0651245117 -0.00556564331
vn -0.998535156 0.0572509766 -0.00531005859
vn -0.981933594 0.188476562 -0.00952911377
vn -0.981933594 0.188476562 -0.00952911377
vn 0.990234375 -0.103393555 -0.0938110352
vn 0.987304688 -0.134277344 -0.0862426758
vn 0.984375 -0.171020508 -0.0405273438
vn 0.98828125 -0.151367188 0
vn 1 0 0
vn 0.990234375 -0.103393555 0.0938110352
vn 0.984375 -0.171020508 0.0405273438
vn 0.987304688 -0.134277344 0.0862426758
vn 0.998535156 0.0572509766 -0.00531005859
vn 0.998046875 0.0651245117 -0.00556564331
vn 0.981933594 0.188476562 -0.00952911377
vn 0.981933594 0.188476562 -0.00952911377
vn -0 -0.590820312 -0.806640625
vn -0 -0.965332031 -0.261230469
vn -0 -0.965332031 -0.261230469
vn -0 -0.590820312 -0.806640625
vn -0 0 -1
vn -0 0 -1
vn -0 -0.590820312 0.806640625
vn -0 0 1
vn -0 0 1
vn -0 -0.590820312 0.806640625
vn -0 -0.965332031 0.261230469
vn -0 -0.965332031 0.261230469
vn -0 0.999023438 0.041809082
vn -0 0.999023438 0.041809082
vn -0 1 2.98023224E-07
vn -0 1 2.98023224E-07
vn -0 0.999023438 -0.041809082
vn -0 0.999023438 -0.041809082
vn -0 0.0410766602 -0.999023438
vn -0 0.0410766602 -0.999023438
vn -0 0.177368164 -0.984375
vn -0 0.177368164 -0.984375
vn -0 0.306152344 -0.952148438
vn -0 0.306152344 -0.952148438
vn -0 0.0410766602 0.999023438
vn -0 0.0410766602 0.999023438
vn -0 0.288330078 0.957519531
vn -0 0.288330078 0.957519531
vn -0 0.506835938 0.861816406
vn -0 0.506835938 0.861816406
vn -1 0.00129032135 -0.00275993347
vn -1 0.000525474548 -0.00217056274
vn -1 0.000854969025 -0.00242424011
vn -1 -2.4497509E-05 -0.00174617767
vn -0.5703125 0.362792969 0.736816406
vn -0.5703125 0.362792969 0.736816406
vn 5.36441803E-07 0.441650391 0.896972656
vn 5.96046448E-07 0.441650391 0.896972656
vn 0.5703125 0.362792969 0.736816406
vn 0.5703125 0.362792969 0.736816406
vn -0 0 -1
vn -0 0 -1
vn -0 0 -1
vn -0 0 -1
vn 1 0.00052690506 -0.00217247009
vn 1 0.000856876373 -0.00242614746
vn 1 -2.42590904E-05 -0.00174617767
vn 1 0.00129318237 -0.00276374817
vn 1 0.00129032135 -0.00276184082
vn 1 0.000854969025 -0.00242614746
vn 1 0.000525474548 -0.00217056274
vn 1 -2.4497509E-05 -0.00174713135
vn 0.5703125 0.362792969 0.736816406
vn -8.34465027E-07 0.441650391 0.896972656
vn 0.5703125 0.362792969 0.736816406
vn -8.34465027E-07 0.441650391 0.896972656
vn -0.5703125 0.362792969 0.736816406
vn -0.5703125 0.362792969 0.736816406
vn -0 0 -1
vn -0 0 -1
vn -0 0 -1
vn -0 0 -1
vn -1 0.00052690506 -0.00217056274
vn -1 -2.42590904E-05 -0.00174617767
vn -1 0.000856876373 -0.00242614746
vn -1 0.00129318237 -0.00276184082
vn -0.240844727 0.000104308128 -0.970703125
vn -0.185668945 -0.0179595947 -0.982421875
vn -0.185668945 -0.0179595947 -0.982421875
vn -0.241455078 0.000296115875 -0.970214844
vn -0.328369141 -0.00521087646 -0.944335938
vn -0.327880859 -0.00494384766 -0.944824219
vn -0.384033203 -0.0417480469 -0.922363281
vn -0.384033203 -0.0417480469 -0.922363281
vn -0.955566406 -0.121032715 0.268798828
vn -0.95703125 0.00214958191 0.290771484
vn -0.955566406 -0.121032715 0.268798828
vn -0.955078125 0.0259246826 0.294433594
vn -0.875976562 0.353515625 0.327880859
vn -0.854003906 0.402099609 0.329589844
vn -0.385009766 0.882324219 0.271484375
vn -0.287597656 0.924804688 0.249267578
vn 0.588378906 0.807617188 -0.0370483398
vn 0.5703125 0.820800781 -0.0292510986
vn 0.932128906 0.276123047 -0.23449707
vn 0.94140625 0.232543945 -0.244873047
vn 0.950195312 -0.0757446289 -0.301757812
vn 0.945800781 -0.10736084 -0.305908203
vn 0.921386719 -0.222412109 -0.318603516
vn 0.921386719 -0.222412109 -0.318603516
vn 0.240844727 -0.000104784966 0.970703125
vn 0.185668945 0.0179595947 0.982421875
vn 0.185668945 0.0179595947 0.982421875
vn 0.241455078 -0.000296592712 0.970214844
vn 0.327880859 0.00494384766 0.944824219
vn 0.328369141 0.00521087646 0.944335938
vn 0.384033203 0.0417480469 0.922363281
vn 0.384033203 0.0417480469 0.922363281
vn 0.120300293 -0.208618164 -0.970703125
vn 0.108398438 -0.151855469 -0.982421875
vn 0.108398438 -0.151855469 -0.982421875
vn 0.120422363 -0.209228516 -0.970214844
vn 0.168701172 -0.281738281 -0.944335938
vn 0.168212891 -0.281494141 -0.944824219
vn 0.228149414 -0.311767578 -0.922363281
vn 0.228149414 -0.311767578 -0.922363281
vn 0.582519531 -0.767089844 0.268798828
vn 0.4765625 -0.829589844 0.290771484
vn 0.582519531 -0.767089844 0.268798828
vn 0.455322266 -0.840332031 0.294433594
vn 0.131958008 -0.935546875 0.327880859
vn 0.0787353516 -0.940917969 0.329589844
vn -0.571289062 -0.774414062 0.271484375
vn -0.657226562 -0.711425781 0.249267578
vn -0.993652344 0.105712891 -0.0370483398
vn -0.99609375 0.0834960938 -0.0292510986
vn -0.705078125 0.668945312 -0.23449707
vn -0.671875 0.698730469 -0.244873047
vn -0.409667969 0.860839844 -0.301757812
vn -0.380126953 0.873046875 -0.305908203
vn -0.268066406 0.909179688 -0.318603516
vn -0.268066406 0.909179688 -0.318603516
vn -0.120300293 0.208618164 0.970703125
vn -0.108398438 0.151855469 0.982421875
vn -0.108398438 0.151855469 0.982421875
vn -0.120422363 0.209228516 0.970214844
vn -0.168212891 0.281494141 0.944824219
vn -0.168701172 0.281738281 0.944335938
vn -0.228149414 0.311767578 0.922363281
vn -0.228149414 0.311767578 0.922363281
vn 0.120483398 0.208496094 -0.970703125
vn 0.0772705078 0.169799805 -0.982421875
vn 0.0772705078 0.169799805 -0.982421875
vn 0.12097168 0.208862305 -0.970214844
vn 0.159667969 0.286865234 -0.944335938
vn 0.159667969 0.286376953 -0.944824219
vn 0.155883789 0.353515625 -0.922363281
vn 0.155883789 0.353515625 -0.922363281
vn 0.373046875 0.888183594 0.268798828
vn 0.480224609 0.827636719 0.290771484
vn 0.373046875 0.888183594 0.268798828
vn 0.5 0.814453125 0.294433594
vn 0.744140625 0.58203125 0.327880859
vn 0.775390625 0.538574219 0.329589844
vn 0.956542969 -0.107727051 0.271484375
vn 0.944824219 -0.213256836 0.249267578
vn 0.405273438 -0.913574219 -0.0370483398
vn 0.42578125 -0.904296875 -0.0292510986
vn -0.226806641 -0.9453125 -0.23449707
vn -0.269287109 -0.931640625 -0.244873047
vn -0.541015625 -0.78515625 -0.301757812
vn -0.565917969 -0.765625 -0.305908203
vn -0.653320312 -0.686523438 -0.318603516
vn -0.653320312 -0.686523438 -0.318603516
vn -0.120483398 -0.208496094 0.970703125
vn -0.0772705078 -0.169799805 0.982421875
vn -0.0772705078 -0.169799805 0.982421875
vn -0.12097168 -0.208862305 0.970214844
vn -0.159667969 -0.286376953 0.944824219
vn -0.159667969 -0.286865234 0.944335938
vn -0.155883789 -0.353515625 0.922363281
vn -0.155883789 -0.353515625 0.922363281
vn -0.581542969 -0.164550781 0.796875
vn -0.570800781 0.151733398 0.807128906
vn -0 0.0299682617 0.999511719
vn -0.921386719 0.221801758 0.319824219
vn -0 -0.336914062 0.94140625
vn -0.982910156 -0.140136719 0.11920166
vn -0.83203125 -0.0101623535 -0.5546875
vn -0.438232422 -0.704101562 0.55859375
vn -0 -0.879882812 0.474853516
vn -0 -0.967285156 -0.252929688
vn -0.681152344 -0.717773438 -0.145263672
vn -0.553222656 -0.303222656 -0.775878906
vn -0 0.00978088379 -1
vn -0 -0.536621094 -0.84375
vn 0.921386719 0.221801758 0.319824219
vn 0.581542969 -0.164550781 0.796875
vn 0.570800781 0.151733398 0.807128906
vn -0 0.0299682617 0.999511719
vn -0 -0.336914062 0.94140625
vn 0.982910156 -0.140136719 0.11920166
vn 0.83203125 -0.0101623535 -0.5546875
vn 0.438232422 -0.704101562 0.55859375
vn -0 -0.879882812 0.474853516
vn -0 -0.967285156 -0.252929688
vn 0.681152344 -0.717773438 -0.145263672
vn 0.553222656 -0.303222656 -0.775878906
vn -0 0.00978088379 -1
vn -0 -0.536621094 -0.84375
vn -0 -0.380371094 0.924804688
vn -0.358154297 -0.0165252686 0.93359375
vn -0 -0.0259857178 0.999511719
vn 0.358154297 -0.0165252686 0.93359375
vn -0 0.336181641 0.941894531
vn -0 -0.380371094 0.924804688
vn -0 -0.0259857178 0.999511719
vn 0.358154297 -0.0165252686 0.93359375
vn -0.358154297 -0.0165252686 0.93359375
vn -0 0.336181641 0.941894531
vn -1 0.00440979004 0.0151443481
vn -0.986816406 0.16015625 0.00835418701
vn -0.983398438 0.142700195 0.110717773
vn -0.992675781 -0.01222229 0.11920166
vn -0.9765625 0.179443359 -0.118713379
vn -0.978515625 -0.163818359 0.124694824
vn -0.996582031 -0.0128250122 -0.0795898438
vn -0.984863281 -0.170166016 0.038848877
vn -0.983398438 -0.174926758 -0.044128418
vn 1 0.00440979004 0.0151443481
vn 0.992675781 -0.01222229 0.11920166
vn 0.983398438 0.142700195 0.110717773
vn 0.986816406 0.16015625 0.00835418701
vn 0.978515625 -0.163818359 0.124694824
vn 0.9765625 0.179443359 -0.118713379
vn 0.984863281 -0.170166016 0.038848877
vn 0.996582031 -0.0128250122 -0.0795898438
vn 0.983398438 -0.174926758 -0.044128418
g jianglidaoju_wurenji_0
f 3/3/3 2/2/2 1/1/1
f 4/4/4 3/3/3 1/1/1
f 7/7/7 6/6/6 5/5/5
f 5/5/5 6/6/6 8/8/8
f 11/11/11 10/10/10 9/9/9
f 10/10/10 12/12/12 9/9/9
f 13/13/13 12/12/12 10/10/10
f 14/14/14 13/13/13 10/10/10
f 14/14/14 15/15/15 13/13/13
f 16/16/16 15/15/15 14/14/14
f 17/17/17 13/13/13 15/15/15
f 17/17/17 18/18/18 13/13/13
f 17/17/17 19/19/19 18/18/18
f 20/20/20 19/19/19 17/17/17
f 21/21/21 15/15/15 16/16/16
f 16/16/16 22/22/22 21/21/21
f 22/22/22 23/23/23 21/21/21
f 23/23/23 24/24/24 21/21/21
f 25/25/25 17/17/17 15/15/15
f 20/20/20 17/17/17 25/25/25
f 26/26/26 20/20/20 25/25/25
f 15/15/15 21/21/21 27/27/27
f 25/25/25 15/15/15 27/27/27
f 24/24/24 27/27/27 21/21/21
f 26/26/26 25/25/25 27/27/27
f 27/27/27 24/24/24 28/28/28
f 28/28/28 26/26/26 27/27/27
f 24/24/24 29/29/29 28/28/28
f 28/28/28 29/29/29 30/30/30
f 28/28/28 30/30/30 26/26/26
f 29/29/29 31/31/31 30/30/30
f 30/30/30 31/31/31 32/32/32
f 33/33/33 30/30/30 32/32/32
f 30/30/30 33/33/33 26/26/26
f 32/32/32 34/34/34 33/33/33
f 34/34/34 35/35/35 33/33/33
f 26/26/26 33/33/33 35/35/35
f 35/35/35 34/34/34 36/36/36
f 37/37/37 20/20/20 26/26/26
f 37/37/37 26/26/26 35/35/35
f 38/38/38 35/35/35 36/36/36
f 36/36/36 39/39/39 38/38/38
f 38/38/38 40/40/40 35/35/35
f 39/39/39 40/40/40 38/38/38
f 35/35/35 40/40/40 37/37/37
f 39/39/39 41/41/41 40/40/40
f 40/40/40 42/42/42 37/37/37
f 41/41/41 42/42/42 40/40/40
f 37/37/37 42/42/42 20/20/20
f 41/41/41 43/43/43 42/42/42
f 43/43/43 44/44/44 42/42/42
f 20/20/20 42/42/42 44/44/44
f 44/44/44 43/43/43 45/45/45
f 46/46/46 20/20/20 44/44/44
f 46/46/46 44/44/44 45/45/45
f 46/46/46 45/45/45 47/47/47
f 48/48/48 46/46/46 47/47/47
f 19/19/19 20/20/20 46/46/46
f 49/49/49 46/46/46 48/48/48
f 46/46/46 49/49/49 19/19/19
f 49/49/49 50/50/50 19/19/19
f 53/53/53 52/52/52 51/51/51
f 52/52/52 53/53/53 54/54/54
f 55/55/55 52/52/52 54/54/54
f 55/55/55 54/54/54 56/56/56
f 54/54/54 57/57/57 56/56/56
f 56/56/56 57/57/57 58/58/58
f 57/57/57 59/59/59 58/58/58
f 62/62/62 61/61/61 60/60/60
f 61/61/61 63/63/63 60/60/60
f 64/64/64 63/63/63 61/61/61
f 65/65/65 64/64/64 61/61/61
f 68/68/68 67/67/67 66/66/66
f 67/67/67 69/69/69 66/66/66
f 67/67/67 70/70/70 69/69/69
f 70/70/70 71/71/71 69/69/69
f 69/69/69 72/72/72 66/66/66
f 69/69/69 71/71/71 73/73/73
f 72/72/72 69/69/69 74/74/74
f 75/75/75 72/72/72 74/74/74
f 76/76/76 69/69/69 73/73/73
f 74/74/74 69/69/69 76/76/76
f 77/77/77 74/74/74 76/76/76
f 73/73/73 78/78/78 76/76/76
f 79/79/79 77/77/77 76/76/76
f 80/80/80 77/77/77 79/79/79
f 81/81/81 80/80/80 79/79/79
f 82/82/82 81/81/81 79/79/79
f 79/79/79 78/78/78 82/82/82
f 79/79/79 76/76/76 83/83/83
f 78/78/78 83/83/83 76/76/76
f 83/83/83 78/78/78 79/79/79
f 86/86/86 85/85/85 84/84/84
f 85/85/85 87/87/87 84/84/84
f 90/90/90 89/89/89 88/88/88
f 91/91/91 90/90/90 88/88/88
f 92/92/92 91/91/91 88/88/88
f 93/93/93 90/90/90 91/91/91
f 92/92/92 94/94/94 91/91/91
f 94/94/94 93/93/93 91/91/91
f 92/92/92 95/95/95 94/94/94
f 94/94/94 95/95/95 93/93/93
f 95/95/95 96/96/96 93/93/93
f 99/99/99 98/98/98 97/97/97
f 100/100/100 99/99/99 97/97/97
f 103/103/103 102/102/102 101/101/101
f 103/103/103 101/101/101 104/104/104
f 107/107/107 106/106/106 105/105/105
f 108/108/108 107/107/107 105/105/105
f 108/108/108 109/109/109 107/107/107
f 109/109/109 110/110/110 107/107/107
f 111/111/111 110/110/110 109/109/109
f 111/111/111 112/112/112 110/110/110
f 109/109/109 113/113/113 111/111/111
f 114/114/114 113/113/113 109/109/109
f 115/115/115 113/113/113 114/114/114
f 115/115/115 116/116/116 113/113/113
f 111/111/111 117/117/117 112/112/112
f 118/118/118 112/112/112 117/117/117
f 119/119/119 118/118/118 117/117/117
f 120/120/120 119/119/119 117/117/117
f 113/113/113 121/121/121 111/111/111
f 113/113/113 116/116/116 121/121/121
f 116/116/116 122/122/122 121/121/121
f 117/117/117 111/111/111 123/123/123
f 111/111/111 121/121/121 123/123/123
f 123/123/123 120/120/120 117/117/117
f 121/121/121 122/122/122 123/123/123
f 120/120/120 123/123/123 124/124/124
f 122/122/122 124/124/124 123/123/123
f 125/125/125 120/120/120 124/124/124
f 125/125/125 124/124/124 126/126/126
f 126/126/126 124/124/124 122/122/122
f 127/127/127 125/125/125 126/126/126
f 127/127/127 126/126/126 128/128/128
f 126/126/126 129/129/129 128/128/128
f 129/129/129 126/126/126 122/122/122
f 130/130/130 128/128/128 129/129/129
f 131/131/131 130/130/130 129/129/129
f 129/129/129 122/122/122 131/131/131
f 130/130/130 131/131/131 132/132/132
f 116/116/116 133/133/133 122/122/122
f 122/122/122 133/133/133 131/131/131
f 131/131/131 134/134/134 132/132/132
f 135/135/135 132/132/132 134/134/134
f 136/136/136 134/134/134 131/131/131
f 136/136/136 135/135/135 134/134/134
f 136/136/136 131/131/131 133/133/133
f 137/137/137 135/135/135 136/136/136
f 138/138/138 136/136/136 133/133/133
f 138/138/138 137/137/137 136/136/136
f 138/138/138 133/133/133 116/116/116
f 139/139/139 137/137/137 138/138/138
f 140/140/140 139/139/139 138/138/138
f 138/138/138 116/116/116 140/140/140
f 139/139/139 140/140/140 141/141/141
f 116/116/116 142/142/142 140/140/140
f 140/140/140 142/142/142 141/141/141
f 141/141/141 142/142/142 143/143/143
f 142/142/142 144/144/144 143/143/143
f 116/116/116 115/115/115 142/142/142
f 142/142/142 145/145/145 144/144/144
f 145/145/145 142/142/142 115/115/115
f 146/146/146 145/145/145 115/115/115
f 149/149/149 148/148/148 147/147/147
f 148/148/148 149/149/149 150/150/150
f 149/149/149 151/151/151 150/150/150
f 150/150/150 151/151/151 152/152/152
f 153/153/153 150/150/150 152/152/152
f 153/153/153 152/152/152 154/154/154
f 155/155/155 153/153/153 154/154/154
f 158/158/158 157/157/157 156/156/156
f 159/159/159 158/158/158 156/156/156
f 159/159/159 160/160/160 158/158/158
f 160/160/160 161/161/161 158/158/158
f 164/164/164 163/163/163 162/162/162
f 165/165/165 164/164/164 162/162/162
f 166/166/166 164/164/164 165/165/165
f 167/167/167 166/166/166 165/165/165
f 168/168/168 165/165/165 162/162/162
f 167/167/167 165/165/165 169/169/169
f 165/165/165 168/168/168 170/170/170
f 168/168/168 171/171/171 170/170/170
f 165/165/165 172/172/172 169/169/169
f 165/165/165 170/170/170 172/172/172
f 170/170/170 173/173/173 172/172/172
f 174/174/174 169/169/169 172/172/172
f 173/173/173 175/175/175 172/172/172
f 173/173/173 176/176/176 175/175/175
f 176/176/176 177/177/177 175/175/175
f 177/177/177 178/178/178 175/175/175
f 174/174/174 175/175/175 178/178/178
f 172/172/172 175/175/175 179/179/179
f 179/179/179 174/174/174 172/172/172
f 174/174/174 179/179/179 175/175/175
f 182/182/182 181/181/181 180/180/180
f 183/183/183 182/182/182 180/180/180
f 186/186/186 185/185/185 184/184/184
f 185/185/185 187/187/187 184/184/184
f 187/187/187 188/188/188 184/184/184
f 185/185/185 189/189/189 187/187/187
f 190/190/190 188/188/188 187/187/187
f 189/189/189 190/190/190 187/187/187
f 191/191/191 188/188/188 190/190/190
f 191/191/191 190/190/190 189/189/189
f 192/192/192 191/191/191 189/189/189
f 195/195/195 194/194/194 193/193/193
f 194/194/194 196/196/196 193/193/193
f 194/194/194 197/197/197 196/196/196
f 193/193/193 196/196/196 198/198/198
f 199/199/199 193/193/193 198/198/198
f 199/199/199 198/198/198 200/200/200
f 201/201/201 199/199/199 200/200/200
f 200/200/200 198/198/198 202/202/202
f 198/198/198 203/203/203 202/202/202
f 198/198/198 196/196/196 203/203/203
f 202/202/202 203/203/203 204/204/204
f 197/197/197 205/205/205 196/196/196
f 196/196/196 205/205/205 203/203/203
f 203/203/203 206/206/206 204/204/204
f 203/203/203 205/205/205 206/206/206
f 204/204/204 206/206/206 207/207/207
f 206/206/206 208/208/208 207/207/207
f 209/209/209 205/205/205 197/197/197
f 205/205/205 209/209/209 206/206/206
f 206/206/206 209/209/209 208/208/208
f 210/210/210 209/209/209 197/197/197
f 209/209/209 211/211/211 208/208/208
f 211/211/211 209/209/209 210/210/210
f 212/212/212 211/211/211 210/210/210
f 215/215/215 214/214/214 213/213/213
f 216/216/216 215/215/215 213/213/213
f 219/219/219 218/218/218 217/217/217
f 220/220/220 219/219/219 217/217/217
f 221/221/221 219/219/219 220/220/220
f 220/220/220 217/217/217 222/222/222
f 217/217/217 223/223/223 222/222/222
f 222/222/222 223/223/223 224/224/224
f 223/223/223 225/225/225 224/224/224
f 222/222/222 224/224/224 226/226/226
f 227/227/227 222/222/222 226/226/226
f 220/220/220 222/222/222 227/227/227
f 227/227/227 226/226/226 228/228/228
f 229/229/229 221/221/221 220/220/220
f 229/229/229 220/220/220 227/227/227
f 230/230/230 227/227/227 228/228/228
f 229/229/229 227/227/227 230/230/230
f 230/230/230 228/228/228 231/231/231
f 232/232/232 230/230/230 231/231/231
f 229/229/229 233/233/233 221/221/221
f 233/233/233 229/229/229 230/230/230
f 233/233/233 230/230/230 232/232/232
f 233/233/233 234/234/234 221/221/221
f 235/235/235 233/233/233 232/232/232
f 233/233/233 235/235/235 234/234/234
f 235/235/235 236/236/236 234/234/234
f 239/239/239 238/238/238 237/237/237
f 240/240/240 239/239/239 237/237/237
f 243/243/243 242/242/242 241/241/241
f 242/242/242 244/244/244 241/241/241
f 245/245/245 244/244/244 242/242/242
f 246/246/246 245/245/245 242/242/242
f 247/247/247 245/245/245 246/246/246
f 248/248/248 247/247/247 246/246/246
f 248/248/248 249/249/249 247/247/247
f 249/249/249 250/250/250 247/247/247
f 249/249/249 251/251/251 250/250/250
f 251/251/251 252/252/252 250/250/250
f 253/253/253 252/252/252 251/251/251
f 254/254/254 253/253/253 251/251/251
f 255/255/255 253/253/253 254/254/254
f 256/256/256 255/255/255 254/254/254
f 257/257/257 255/255/255 256/256/256
f 258/258/258 257/257/257 256/256/256
f 261/261/261 260/260/260 259/259/259
f 262/262/262 261/261/261 259/259/259
f 265/265/265 264/264/264 263/263/263
f 266/266/266 265/265/265 263/263/263
f 265/265/265 266/266/266 267/267/267
f 268/268/268 265/265/265 267/267/267
f 268/268/268 267/267/267 269/269/269
f 270/270/270 268/268/268 269/269/269
f 273/273/273 272/272/272 271/271/271
f 272/272/272 274/274/274 271/271/271
f 277/277/277 276/276/276 275/275/275
f 276/276/276 278/278/278 275/275/275
f 281/281/281 280/280/280 279/279/279
f 282/282/282 281/281/281 279/279/279
f 285/285/285 284/284/284 283/283/283
f 286/286/286 285/285/285 283/283/283
f 289/289/289 288/288/288 287/287/287
f 290/290/290 289/289/289 287/287/287
f 293/293/293 292/292/292 291/291/291
f 294/294/294 293/293/293 291/291/291
f 297/297/297 296/296/296 295/295/295
f 298/298/298 297/297/297 295/295/295
f 301/301/301 300/300/300 299/299/299
f 300/300/300 302/302/302 299/299/299
f 305/305/305 304/304/304 303/303/303
f 306/306/306 305/305/305 303/303/303
f 309/309/309 308/308/308 307/307/307
f 310/310/310 309/309/309 307/307/307
f 313/313/313 312/312/312 311/311/311
f 314/314/314 313/313/313 311/311/311
f 317/317/317 316/316/316 315/315/315
f 318/318/318 317/317/317 315/315/315
f 321/321/321 320/320/320 319/319/319
f 320/320/320 322/322/322 319/319/319
f 325/325/325 324/324/324 323/323/323
f 324/324/324 326/326/326 323/323/323
f 329/329/329 328/328/328 327/327/327
f 330/330/330 329/329/329 327/327/327
f 333/333/333 332/332/332 331/331/331
f 334/334/334 333/333/333 331/331/331
f 337/337/337 336/336/336 335/335/335
f 338/338/338 337/337/337 335/335/335
f 341/341/341 340/340/340 339/339/339
f 342/342/342 341/341/341 339/339/339
f 345/345/345 344/344/344 343/343/343
f 344/344/344 346/346/346 343/343/343
f 343/343/343 346/346/346 347/347/347
f 346/346/346 348/348/348 347/347/347
f 349/349/349 348/348/348 346/346/346
f 350/350/350 349/349/349 346/346/346
f 350/350/350 346/346/346 344/344/344
f 351/351/351 350/350/350 344/344/344
f 352/352/352 351/351/351 344/344/344
f 353/353/353 352/352/352 344/344/344
f 356/356/356 355/355/355 354/354/354
f 357/357/357 356/356/356 354/354/354
f 354/354/354 358/358/358 357/357/357
f 358/358/358 359/359/359 357/357/357
f 357/357/357 359/359/359 360/360/360
f 361/361/361 357/357/357 360/360/360
f 356/356/356 357/357/357 361/361/361
f 362/362/362 356/356/356 361/361/361
f 356/356/356 362/362/362 363/363/363
f 362/362/362 364/364/364 363/363/363
f 367/367/367 366/366/366 365/365/365
f 368/368/368 367/367/367 365/365/365
f 369/369/369 368/368/368 365/365/365
f 369/369/369 370/370/370 368/368/368
f 373/373/373 372/372/372 371/371/371
f 371/371/371 372/372/372 374/374/374
f 375/375/375 371/371/371 374/374/374
f 378/378/378 377/377/377 376/376/376
f 379/379/379 378/378/378 376/376/376
f 379/379/379 380/380/380 378/378/378
f 380/380/380 381/381/381 378/378/378
f 380/380/380 382/382/382 381/381/381
f 382/382/382 383/383/383 381/381/381
f 384/384/384 383/383/383 382/382/382
f 385/385/385 384/384/384 382/382/382
f 386/386/386 384/384/384 385/385/385
f 387/387/387 386/386/386 385/385/385
f 387/387/387 388/388/388 386/386/386
f 388/388/388 389/389/389 386/386/386
f 388/388/388 390/390/390 389/389/389
f 390/390/390 391/391/391 389/389/389
f 390/390/390 392/392/392 391/391/391
f 392/392/392 393/393/393 391/391/391
f 396/396/396 395/395/395 394/394/394
f 397/397/397 396/396/396 394/394/394
f 400/400/400 399/399/399 398/398/398
f 399/399/399 401/401/401 398/398/398
f 401/401/401 399/399/399 402/402/402
f 399/399/399 403/403/403 402/402/402
f 402/402/402 403/403/403 404/404/404
f 403/403/403 405/405/405 404/404/404
f 408/408/408 407/407/407 406/406/406
f 409/409/409 408/408/408 406/406/406
f 412/412/412 411/411/411 410/410/410
f 413/413/413 412/412/412 410/410/410
f 416/416/416 415/415/415 414/414/414
f 417/417/417 416/416/416 414/414/414
f 420/420/420 419/419/419 418/418/418
f 421/421/421 420/420/420 418/418/418
f 424/424/424 423/423/423 422/422/422
f 425/425/425 424/424/424 422/422/422
f 428/428/428 427/427/427 426/426/426
f 429/429/429 428/428/428 426/426/426
f 432/432/432 431/431/431 430/430/430
f 431/431/431 433/433/433 430/430/430
f 436/436/436 435/435/435 434/434/434
f 437/437/437 436/436/436 434/434/434
f 440/440/440 439/439/439 438/438/438
f 441/441/441 440/440/440 438/438/438
f 444/444/444 443/443/443 442/442/442
f 445/445/445 444/444/444 442/442/442
f 448/448/448 447/447/447 446/446/446
f 449/449/449 448/448/448 446/446/446
f 452/452/452 451/451/451 450/450/450
f 453/453/453 452/452/452 450/450/450
f 456/456/456 455/455/455 454/454/454
f 457/457/457 456/456/456 454/454/454
f 460/460/460 459/459/459 458/458/458
f 461/461/461 460/460/460 458/458/458
f 464/464/464 463/463/463 462/462/462
f 465/465/465 464/464/464 462/462/462
f 468/468/468 467/467/467 466/466/466
f 469/469/469 468/468/468 466/466/466
f 472/472/472 471/471/471 470/470/470
f 473/473/473 472/472/472 470/470/470
f 476/476/476 475/475/475 474/474/474
f 477/477/477 476/476/476 474/474/474
f 480/480/480 479/479/479 478/478/478
f 481/481/481 480/480/480 478/478/478
f 481/481/481 478/478/478 482/482/482
f 483/483/483 481/481/481 482/482/482
f 483/483/483 484/484/484 481/481/481
f 484/484/484 485/485/485 481/481/481
f 481/481/481 485/485/485 480/480/480
f 485/485/485 486/486/486 480/480/480
f 486/486/486 487/487/487 480/480/480
f 487/487/487 488/488/488 480/480/480
f 491/491/491 490/490/490 489/489/489
f 490/490/490 492/492/492 489/489/489
f 493/493/493 489/489/489 492/492/492
f 494/494/494 493/493/493 492/492/492
f 494/494/494 492/492/492 495/495/495
f 492/492/492 496/496/496 495/495/495
f 492/492/492 490/490/490 496/496/496
f 490/490/490 497/497/497 496/496/496
f 497/497/497 490/490/490 498/498/498
f 499/499/499 497/497/497 498/498/498
f 502/502/502 501/501/501 500/500/500
f 501/501/501 503/503/503 500/500/500
f 503/503/503 504/504/504 500/500/500
f 505/505/505 504/504/504 503/503/503
f 508/508/508 507/507/507 506/506/506
f 508/508/508 506/506/506 509/509/509
f 506/506/506 510/510/510 509/509/509
f 513/513/513 512/512/512 511/511/511
f 514/514/514 513/513/513 511/511/511
f 515/515/515 513/513/513 514/514/514
f 515/515/515 514/514/514 516/516/516
f 516/516/516 514/514/514 517/517/517
f 517/517/517 514/514/514 511/511/511
f 518/518/518 516/516/516 517/517/517
f 519/519/519 517/517/517 511/511/511
f 520/520/520 519/519/519 511/511/511
f 519/519/519 520/520/520 521/521/521
f 522/522/522 519/519/519 521/521/521
f 525/525/525 524/524/524 523/523/523
f 526/526/526 525/525/525 523/523/523
f 527/527/527 526/526/526 523/523/523
f 528/528/528 526/526/526 527/527/527
f 529/529/529 525/525/525 526/526/526
f 529/529/529 526/526/526 528/528/528
f 530/530/530 529/529/529 528/528/528
f 531/531/531 525/525/525 529/529/529
f 532/532/532 531/531/531 529/529/529
f 533/533/533 531/531/531 532/532/532
f 534/534/534 533/533/533 532/532/532
f 537/537/537 536/536/536 535/535/535
f 536/536/536 538/538/538 535/535/535
f 535/535/535 538/538/538 539/539/539
f 538/538/538 540/540/540 539/539/539
f 543/543/543 542/542/542 541/541/541
f 542/542/542 544/544/544 541/541/541
f 544/544/544 545/545/545 541/541/541
f 545/545/545 546/546/546 541/541/541
f 549/549/549 548/548/548 547/547/547
f 550/550/550 549/549/549 547/547/547
f 549/549/549 550/550/550 551/551/551
f 552/552/552 549/549/549 551/551/551
f 555/555/555 554/554/554 553/553/553
f 556/556/556 555/555/555 553/553/553
f 555/555/555 556/556/556 557/557/557
f 558/558/558 555/555/555 557/557/557
f 561/561/561 560/560/560 559/559/559
f 562/562/562 561/561/561 559/559/559
f 561/561/561 562/562/562 563/563/563
f 564/564/564 561/561/561 563/563/563
f 567/567/567 566/566/566 565/565/565
f 568/568/568 566/566/566 567/567/567
f 571/571/571 570/570/570 569/569/569
f 572/572/572 571/571/571 569/569/569
f 572/572/572 573/573/573 571/571/571
f 573/573/573 574/574/574 571/571/571
f 577/577/577 576/576/576 575/575/575
f 578/578/578 577/577/577 575/575/575
f 581/581/581 580/580/580 579/579/579
f 579/579/579 580/580/580 582/582/582
f 585/585/585 584/584/584 583/583/583
f 585/585/585 586/586/586 584/584/584
f 589/589/589 588/588/588 587/587/587
f 588/588/588 590/590/590 587/587/587
f 591/591/591 590/590/590 588/588/588
f 592/592/592 591/591/591 588/588/588
f 595/595/595 594/594/594 593/593/593
f 596/596/596 595/595/595 593/593/593
f 599/599/599 598/598/598 597/597/597
f 599/599/599 597/597/597 600/600/600
f 603/603/603 602/602/602 601/601/601
f 604/604/604 603/603/603 601/601/601
f 604/604/604 601/601/601 605/605/605
f 606/606/606 604/604/604 605/605/605
f 607/607/607 606/606/606 605/605/605
f 608/608/608 607/607/607 605/605/605
f 611/611/611 610/610/610 609/609/609
f 610/610/610 612/612/612 609/609/609
f 612/612/612 610/610/610 613/613/613
f 614/614/614 612/612/612 613/613/613
f 613/613/613 615/615/615 614/614/614
f 615/615/615 616/616/616 614/614/614
f 616/616/616 615/615/615 617/617/617
f 618/618/618 616/616/616 617/617/617
f 618/618/618 617/617/617 619/619/619
f 617/617/617 620/620/620 619/619/619
f 621/621/621 619/619/619 620/620/620
f 622/622/622 621/621/621 620/620/620
f 623/623/623 621/621/621 622/622/622
f 624/624/624 623/623/623 622/622/622
f 627/627/627 626/626/626 625/625/625
f 626/626/626 628/628/628 625/625/625
f 628/628/628 629/629/629 625/625/625
f 629/629/629 630/630/630 625/625/625
f 631/631/631 630/630/630 629/629/629
f 632/632/632 631/631/631 629/629/629
f 635/635/635 634/634/634 633/633/633
f 636/636/636 635/635/635 633/633/633
f 636/636/636 633/633/633 637/637/637
f 638/638/638 636/636/636 637/637/637
f 639/639/639 638/638/638 637/637/637
f 640/640/640 639/639/639 637/637/637
f 643/643/643 642/642/642 641/641/641
f 642/642/642 644/644/644 641/641/641
f 644/644/644 642/642/642 645/645/645
f 646/646/646 644/644/644 645/645/645
f 645/645/645 647/647/647 646/646/646
f 647/647/647 648/648/648 646/646/646
f 648/648/648 647/647/647 649/649/649
f 650/650/650 648/648/648 649/649/649
f 650/650/650 649/649/649 651/651/651
f 649/649/649 652/652/652 651/651/651
f 653/653/653 651/651/651 652/652/652
f 654/654/654 653/653/653 652/652/652
f 655/655/655 653/653/653 654/654/654
f 656/656/656 655/655/655 654/654/654
f 659/659/659 658/658/658 657/657/657
f 658/658/658 660/660/660 657/657/657
f 660/660/660 661/661/661 657/657/657
f 661/661/661 662/662/662 657/657/657
f 663/663/663 662/662/662 661/661/661
f 664/664/664 663/663/663 661/661/661
f 667/667/667 666/666/666 665/665/665
f 668/668/668 667/667/667 665/665/665
f 668/668/668 665/665/665 669/669/669
f 670/670/670 668/668/668 669/669/669
f 671/671/671 670/670/670 669/669/669
f 672/672/672 671/671/671 669/669/669
f 675/675/675 674/674/674 673/673/673
f 674/674/674 676/676/676 673/673/673
f 676/676/676 674/674/674 677/677/677
f 678/678/678 676/676/676 677/677/677
f 677/677/677 679/679/679 678/678/678
f 679/679/679 680/680/680 678/678/678
f 680/680/680 679/679/679 681/681/681
f 682/682/682 680/680/680 681/681/681
f 682/682/682 681/681/681 683/683/683
f 681/681/681 684/684/684 683/683/683
f 685/685/685 683/683/683 684/684/684
f 686/686/686 685/685/685 684/684/684
f 687/687/687 685/685/685 686/686/686
f 688/688/688 687/687/687 686/686/686
f 691/691/691 690/690/690 689/689/689
f 690/690/690 692/692/692 689/689/689
f 692/692/692 693/693/693 689/689/689
f 693/693/693 694/694/694 689/689/689
f 695/695/695 694/694/694 693/693/693
f 696/696/696 695/695/695 693/693/693
f 699/699/699 698/698/698 697/697/697
f 697/697/697 698/698/698 700/700/700
f 699/699/699 697/697/697 701/701/701
f 697/697/697 700/700/700 702/702/702
f 702/702/702 700/700/700 703/703/703
f 701/701/701 697/697/697 704/704/704
f 697/697/697 702/702/702 704/704/704
f 705/705/705 701/701/701 704/704/704
f 706/706/706 705/705/705 704/704/704
f 702/702/702 707/707/707 704/704/704
f 702/702/702 703/703/703 707/707/707
f 707/707/707 706/706/706 704/704/704
f 703/703/703 708/708/708 707/707/707
f 706/706/706 707/707/707 708/708/708
f 708/708/708 703/703/703 709/709/709
f 710/710/710 706/706/706 708/708/708
f 709/709/709 710/710/710 708/708/708
f 713/713/713 712/712/712 711/711/711
f 713/713/713 714/714/714 712/712/712
f 712/712/712 714/714/714 715/715/715
f 711/711/711 712/712/712 716/716/716
f 711/711/711 716/716/716 717/717/717
f 712/712/712 715/715/715 718/718/718
f 716/716/716 712/712/712 718/718/718
f 715/715/715 719/719/719 718/718/718
f 719/719/719 720/720/720 718/718/718
f 721/721/721 716/716/716 718/718/718
f 717/717/717 716/716/716 721/721/721
f 720/720/720 721/721/721 718/718/718
f 722/722/722 717/717/717 721/721/721
f 721/721/721 720/720/720 722/722/722
f 717/717/717 722/722/722 723/723/723
f 720/720/720 724/724/724 722/722/722
f 724/724/724 723/723/723 722/722/722
f 727/727/727 726/726/726 725/725/725
f 727/727/727 725/725/725 728/728/728
f 727/727/727 729/729/729 726/726/726
f 727/727/727 728/728/728 729/729/729
f 732/732/732 731/731/731 730/730/730
f 730/730/730 731/731/731 733/733/733
f 734/734/734 731/731/731 732/732/732
f 733/733/733 731/731/731 734/734/734
f 737/737/737 736/736/736 735/735/735
f 738/738/738 737/737/737 735/735/735
f 735/735/735 736/736/736 739/739/739
f 740/740/740 738/738/738 735/735/735
f 741/741/741 735/735/735 739/739/739
f 742/742/742 740/740/740 735/735/735
f 735/735/735 741/741/741 743/743/743
f 742/742/742 735/735/735 743/743/743
f 746/746/746 745/745/745 744/744/744
f 747/747/747 746/746/746 744/744/744
f 745/745/745 748/748/748 744/744/744
f 747/747/747 744/744/744 749/749/749
f 748/748/748 750/750/750 744/744/744
f 744/744/744 751/751/751 749/749/749
f 744/744/744 750/750/750 752/752/752
f 751/751/751 744/744/744 752/752/752
