g pPlane1
v -0.0926903114 -1.68816485E-16 0.164391309
v -0.123804882 -1.19165465E-16 -0.0880186185
v 0.0864405632 -1.68816485E-16 0.164391309
v 0.348028451 0 -0.242060006
v 0.0184521526 0 -0.361300677
v -0.0832004398 6.29717116E-17 -0.631329656
v 0.561219156 -2.95434345E-16 -0.28747797
v 0.763865888 -2.29973383E-17 -0.556449354
v 0.767826676 6.60675045E-17 -0.885332227
v 0.54357338 1.68816485E-16 -1.11441588
v 0.158867061 1.68816485E-16 -1.07497239
vt 0.249533772 0.0578231215
vt 0.210893005 0.187872797
vt 0.353775501 0.0578231215
vt 0.520957649 0.310712039
vt 0.289435655 0.404384881
vt 0.245872021 0.664940238
vt 0.666368127 0.373658776
vt 0.841978252 0.439763635
vt 0.923753262 0.673048973
vt 0.79861033 0.942176878
vt 0.497617096 0.942176878
vn -0 1 0
vn -0 1 0
vn -0 1 0
vn -0 1 0
vn -0 1 0
vn -0 1 0
vn -0 1 0
vn -0 1 0
vn -0 1 0
vn -0 1 0
vn -0 1 0
g pPlane1_0
f 3/3/3 2/2/2 1/1/1
f 4/4/4 2/2/2 3/3/3
f 4/4/4 5/5/5 2/2/2
f 5/5/5 4/4/4 6/6/6
f 6/6/6 4/4/4 7/7/7
f 6/6/6 7/7/7 8/8/8
f 6/6/6 8/8/8 9/9/9
f 6/6/6 9/9/9 10/10/10
f 6/6/6 10/10/10 11/11/11
