g mesh_xin01
v 0.280410707 -0.444158971 -0.734252214
v 0.187745154 -0.558532 -0.732174218
v 0.367231041 -0.528961122 -0.756489038
v 0.00747924298 -0.642086267 0.73567462
v -0.0155382473 -0.645565331 0.730399668
v -0.0510704033 -0.615903556 0.719889879
v 0.407066047 0.447836995 0.353626311
v 0.365340561 0.183500811 0.596843719
v 0.203922853 0.562052488 0.346063912
v 0.364801049 -0.42810002 0.767894566
v 0.367567897 -0.52929008 0.784541965
v 0.280410707 -0.444158822 0.762218893
v 0.14036496 0.764856815 0.0139834108
v -0.594247043 0.410167396 0.345232368
v -0.755949974 0.594225764 0.0139834154
v 0.203922853 0.562052488 0.346063912
v -0.755949974 0.594225764 0.0139834154
v -0.930882335 0.157603651 0.204552755
v -1.02545989 0.261446059 0.0139834248
v -0.861015081 0.080907464 0.345232397
v -0.594247043 0.410167396 0.345232368
v 0.203922853 0.562052488 0.346063912
v -0.228183821 0.0526132621 0.581400633
v -0.594247043 0.410167396 0.345232368
v 0.365340561 0.183500811 0.596843719
v 0.363968641 0.165294945 0.607467592
v 0.135969684 -0.622436106 0.758979976
v 0.367567897 -0.52929008 0.784541965
v 0.369861692 -0.586275339 0.790915966
v 0.280410707 -0.444158822 0.762218893
v 0.532142341 0.45252353 -0.157978654
v 0.203922853 0.562052488 -0.318097204
v 0.581799746 0.349594444 -0.332164258
v 0.482223868 0.56736654 0.0139834182
v 0.14036496 0.764856815 0.0139834108
v 0.14036496 0.764856815 0.0139834108
v -0.594247043 0.410167396 -0.3172656
v 0.203922853 0.562052488 -0.318097204
v -0.755949974 0.594225764 0.0139834154
v -0.913981497 0.199787214 -0.158174351
v -0.755949974 0.594225764 0.0139834154
v -1.02545989 0.261446059 0.0139834248
v -0.594247043 0.410167396 -0.3172656
v -0.810902357 0.142759502 -0.3172656
v 0.625793397 0.173047766 -0.462917805
v 0.372418135 0.166902795 -0.579872608
v 0.674255908 -0.00280312356 -0.612096608
v 0.581799746 0.349594444 -0.332164258
v 0.203922853 0.562052488 -0.318097204
v -0.228183821 0.0526132621 -0.553433776
v 0.203922853 0.562052488 -0.318097204
v -0.594247043 0.410167396 -0.3172656
v 0.372418135 0.166902795 -0.579872608
v -0.594247043 0.410167396 -0.3172656
v -0.393238634 -0.151106477 -0.551668644
v -0.228183821 0.0526132621 -0.553433776
v -0.585847557 -0.0157445818 -0.442548364
v -0.810902357 0.142759502 -0.3172656
v 0.716469824 -0.278915226 -0.708100796
v 0.606519163 -0.382103086 -0.756184518
v 0.744217753 -0.459522963 -0.771449924
v 0.674255908 -0.00280312356 -0.612096608
v 0.372418135 0.166902795 -0.579872608
v 0.280410707 -0.444158971 -0.734252214
v 0.372418135 0.166902795 -0.579872608
v -0.228183821 0.0526132621 -0.553433776
v 0.606519163 -0.382103086 -0.756184518
v 0.187745154 -0.558532 -0.732174218
v -0.0188062396 -0.428675085 -0.669570982
v 0.162277475 -0.562773287 -0.727506459
v -0.228183821 0.0526132621 -0.553433776
v 0.280410707 -0.444158971 -0.734252214
v -0.393238634 -0.151106477 -0.551668644
v 0.280410707 -0.444158971 -0.734252214
v 0.649590492 -0.483112574 -0.776754558
v 0.606519163 -0.382103086 -0.756184518
v 0.367231041 -0.528961122 -0.756489038
v 0.0698794276 -0.63253355 0.74672991
v 0.280410707 -0.444158822 0.762218893
v 0.135969684 -0.622436106 0.758979976
v -0.228183821 0.0526132621 0.581400633
v 0.00747924298 -0.642086267 0.73567462
v -0.478743732 -0.256641686 0.578721166
v -0.0510704033 -0.615903556 0.719889879
v 0.649590492 -0.483112574 -0.776754558
v 0.744217753 -0.459522963 -0.771449924
v 0.606519163 -0.382103086 -0.756184518
v 0.745214462 -0.467974722 -0.773183584
v 0.433879137 0.485314757 0.233882129
v 0.14036496 0.764856815 0.0139834108
v 0.482223868 0.56736654 0.0139834182
v 0.203922853 0.562052488 0.346063912
v 0.407066047 0.447836995 0.353626311
v 0.363968641 0.165294945 0.607467592
v 0.280410707 -0.444158822 0.762218893
v -0.228183821 0.0526132621 0.581400633
v 0.364086509 0.111568868 0.621819139
v 0.364801049 -0.42810002 0.767894566
v 0.532142341 0.45252353 -0.157978654
v 0.433879137 0.485314757 0.233882129
v 0.482223868 0.56736654 0.0139834182
v 0.625793397 0.173047766 -0.462917805
v 0.581799746 0.349594444 -0.332164258
v 0.745214462 -0.467974722 -0.773183584
v 0.716469824 -0.278915226 -0.708100796
v 0.674255908 -0.00280312356 -0.612096608
v 0.744217753 -0.459522963 -0.771449924
v 0.364086509 0.111568868 0.621819139
v 0.365340561 0.183500811 0.596843719
v 0.407066047 0.447836995 0.353626311
v 0.363968641 0.165294945 0.607467592
v 0.367567897 -0.52929008 0.784541965
v 0.364801049 -0.42810002 0.767894566
v 0.369861692 -0.586275339 0.790915966
v -0.58291328 -0.164534524 0.514282048
v -0.228183821 0.0526132621 0.581400633
v -0.478743732 -0.256641686 0.578721166
v -0.594247043 0.410167396 0.345232368
v -0.861015081 0.080907464 0.345232397
v 0.745214462 -0.467974722 -0.773183584
v 0.135969684 -0.622436106 0.758979976
v 0.369861692 -0.586275339 0.790915966
v 0.0698794276 -0.63253355 0.74672991
v 0.162277475 -0.562773287 -0.727506459
v 0.00747924298 -0.642086267 0.73567462
v -0.0155382473 -0.645565331 0.730399668
v 0.367231041 -0.528961122 -0.756489038
v 0.649590492 -0.483112574 -0.776754558
v 0.187745154 -0.558532 -0.732174218
v -0.0155382473 -0.645565331 0.730399668
v -0.478743732 -0.256641686 0.578721166
v -0.0510704033 -0.615903556 0.719889879
v -0.930882335 0.157603651 0.204552755
v -0.58291328 -0.164534524 0.514282048
v -0.861015081 0.080907464 0.345232397
v -0.585847557 -0.0157445818 -0.442548364
v -0.0188062396 -0.428675085 -0.669570982
v 0.162277475 -0.562773287 -0.727506459
v -0.393238634 -0.151106477 -0.551668644
v -0.913981497 0.199787214 -0.158174351
v -1.02545989 0.261446059 0.0139834248
v -0.810902357 0.142759502 -0.3172656
vt 0.381879449 0.67635119
vt 0.365368187 0.653258085
vt 0.39849329 0.659378648
vt 0.332509696 0.636527479
vt 0.328242362 0.635863304
vt 0.321553946 0.641913116
vt 0.391994774 0.882298231
vt 0.389869869 0.805809975
vt 0.347944945 0.891839862
vt 0.397723436 0.680531919
vt 0.398557782 0.659312785
vt 0.381879449 0.67635119
vt 0.324525893 0.978105903
vt 0.20466359 0.853958488
vt 0.156826764 0.940696239
vt 0.347944945 0.891839862
vt 0.156826764 0.940696239
vt 0.137929678 0.82977885
vt 0.101705104 0.876102507
vt 0.158452377 0.793213427
vt 0.20466359 0.853958488
vt 0.347944945 0.891839862
vt 0.282722324 0.772941053
vt 0.20466359 0.853958488
vt 0.389869869 0.805809975
vt 0.390174896 0.80162859
vt 0.356142789 0.640355229
vt 0.398557782 0.659312785
vt 0.399322987 0.647853613
vt 0.381879449 0.67635119
vt 0.419803679 0.926161408
vt 0.347944945 0.891839862
vt 0.429884255 0.874091029
vt 0.403736115 0.971177399
vt 0.324525893 0.978105903
vt 0.324525893 0.978105903
vt 0.20466359 0.853958488
vt 0.347944945 0.891839862
vt 0.156826764 0.940696239
vt 0.139755398 0.840494931
vt 0.156826764 0.940696239
vt 0.101705104 0.876102507
vt 0.20466359 0.853958488
vt 0.167133227 0.804624498
vt 0.443075716 0.830643415
vt 0.391708136 0.802037895
vt 0.452904105 0.777854204
vt 0.429884255 0.874091029
vt 0.347944945 0.891839862
vt 0.282722324 0.772941053
vt 0.347944945 0.891839862
vt 0.20466359 0.853958488
vt 0.391708136 0.802037895
vt 0.20466359 0.853958488
vt 0.254517198 0.734089851
vt 0.282722324 0.772941053
vt 0.214456499 0.765818238
vt 0.167133227 0.804624498
vt 0.463841677 0.719583631
vt 0.443105161 0.692506611
vt 0.46963203 0.678819001
vt 0.452904105 0.777854204
vt 0.391708136 0.802037895
vt 0.381879449 0.67635119
vt 0.391708136 0.802037895
vt 0.282722324 0.772941053
vt 0.443105161 0.692506611
vt 0.365368187 0.653258085
vt 0.325644016 0.678206801
vt 0.360623926 0.652311921
vt 0.282722324 0.772941053
vt 0.381879449 0.67635119
vt 0.254517198 0.734089851
vt 0.381879449 0.67635119
vt 0.451529682 0.671711802
vt 0.443105161 0.692506611
vt 0.39849329 0.659378648
vt 0.343824297 0.638080418
vt 0.381879449 0.67635119
vt 0.356142789 0.640355229
vt 0.282722324 0.772941053
vt 0.332509696 0.636527479
vt 0.239905819 0.713963449
vt 0.321553946 0.641913116
vt 0.451529682 0.671711802
vt 0.46963203 0.678819001
vt 0.443105161 0.692506611
vt 0.469837159 0.677022934
vt 0.398290426 0.915886104
vt 0.324525893 0.978105903
vt 0.403736115 0.971177399
vt 0.347944945 0.891839862
vt 0.391994774 0.882298231
vt 0.390174896 0.80162859
vt 0.381879449 0.67635119
vt 0.282722324 0.772941053
vt 0.390818119 0.790656507
vt 0.397723436 0.680531919
vt 0.367853165 0.695992351
vt 0.377330065 0.756240666
vt 0.396259904 0.722431421
vt 0.299176455 0.649108171
vt 0.342313409 0.669211447
vt 0.143206224 0.601405025
vt 0.189101875 0.611411452
vt 0.256134033 0.626172066
vt 0.145253271 0.601671576
vt 0.288659096 0.815885663
vt 0.305922925 0.812045753
vt 0.368760705 0.774651229
vt 0.301570594 0.813679159
vt 0.134613261 0.840904236
vt 0.15897277 0.838344693
vt 0.120883226 0.841884196
vt 0.217877582 0.735026896
vt 0.282722324 0.772941053
vt 0.239905819 0.713963449
vt 0.20466359 0.853958488
vt 0.158452377 0.793213427
vt 0.503996372 0.951339006
vt 0.133867204 0.859197736
vt 0.126505941 0.894571185
vt 0.136724725 0.849202335
vt 0.492152095 0.863176465
vt 0.139299586 0.839765012
vt 0.140537843 0.836283863
vt 0.499430895 0.894173324
vt 0.504719794 0.936876953
vt 0.493313611 0.867028117
vt 0.120883226 0.792730868
vt 0.171165615 0.704978347
vt 0.124466181 0.785999477
vt 0.27533716 0.61932236
vt 0.189862773 0.685243845
vt 0.239051685 0.632558465
vt 0.423070014 0.684687912
vt 0.462067008 0.792111754
vt 0.4709723 0.826417446
vt 0.444114387 0.721176982
vt 0.363225996 0.622524202
vt 0.324488819 0.601405025
vt 0.399021268 0.642052114
vn -0.150309071 0.103918649 -0.983162284
vn -0.150309071 0.103918649 -0.983162284
vn -0.150309056 0.103918649 -0.983162284
vn -0.232303903 0.0655658767 0.970430851
vn -0.232303903 0.0655658692 0.970430851
vn -0.232303858 0.0655658692 0.970430851
vn 0.318418056 0.614148438 0.722102225
vn 0.318418086 0.614148498 0.722102225
vn 0.318418115 0.614148498 0.722102225
vn -0.09634085 0.159013838 0.982564509
vn -0.0963408425 0.159013838 0.982564509
vn -0.0963408574 0.159013823 0.982564509
vn -0.158293605 0.828909755 0.536518216
vn -0.15829362 0.828909755 0.536518216
vn -0.157718658 0.828486681 0.537340522
vn -0.158293605 0.828909755 0.536518216
vn -0.628076494 0.508663356 0.588881552
vn -0.628076494 0.508663356 0.588881552
vn -0.628076434 0.508663356 0.588881552
vn -0.627835035 0.5086748 0.589129269
vn -0.627834678 0.5086748 0.589129448
vn -0.0924647897 0.481137961 0.871754885
vn -0.0924647897 0.481137961 0.871754885
vn -0.0924648046 0.481137991 0.871754825
vn -0.133955181 0.506969452 0.85149157
vn -0.133955583 0.506971478 0.851490378
vn -0.150308594 0.103918567 0.983162403
vn -0.150308609 0.103918575 0.983162403
vn -0.150308937 0.103919439 0.983162284
vn -0.150308609 0.10391856 0.983162403
vn 0.459027469 0.794584036 -0.397404164
vn 0.45902741 0.794584036 -0.397404224
vn 0.447692782 0.819892406 -0.356857806
vn 0.45902741 0.794584036 -0.397404224
vn 0.45902741 0.794584036 -0.397404224
vn -0.157718629 0.828486681 -0.537340403
vn -0.157718629 0.828486681 -0.537340403
vn -0.15829365 0.828909755 -0.536518157
vn -0.157718629 0.828486681 -0.537340403
vn -0.627834737 0.508674741 -0.589129448
vn -0.627834797 0.508674741 -0.589129388
vn -0.628076494 0.508663356 -0.588881493
vn -0.627834857 0.508674741 -0.589129388
vn -0.627834857 0.508675039 -0.58912909
vn 0.318418562 0.614148259 -0.722102225
vn 0.318418562 0.614148259 -0.722102225
vn 0.30010128 0.663832486 -0.685029566
vn 0.318418533 0.614148259 -0.722102284
vn 0.318418294 0.614148378 -0.722102225
vn -0.133955166 0.506969273 -0.85149163
vn -0.133955166 0.506969273 -0.85149163
vn -0.0924648345 0.481137812 -0.871754885
vn -0.133955166 0.506969273 -0.85149163
vn -0.330953032 0.260280967 -0.907041252
vn -0.330953032 0.260280967 -0.907041252
vn -0.330953062 0.260281026 -0.907041252
vn -0.330952764 0.260281175 -0.907041371
vn -0.322465688 0.2612634 -0.909811616
vn 0.0908873603 0.339423567 -0.936232448
vn 0.0908873603 0.339423567 -0.936232448
vn 0.0884274319 0.341758639 -0.935618341
vn 0.0908873603 0.339423597 -0.936232448
vn 0.0908867344 0.339423656 -0.936232448
vn -0.113867112 0.259434372 -0.959024549
vn -0.113867112 0.259434402 -0.959024549
vn -0.0912237167 0.256813705 -0.962146044
vn -0.113867112 0.259434402 -0.959024549
vn -0.201807842 0.145909056 -0.968495786
vn -0.201807827 0.145909056 -0.968495786
vn -0.201807842 0.145909056 -0.968495786
vn -0.201807484 0.145909414 -0.968495786
vn -0.201807499 0.145909399 -0.968495786
vn -0.194608331 0.149272963 -0.969456136
vn -0.0963409096 0.159014374 -0.982564509
vn -0.0963409171 0.159014374 -0.982564509
vn -0.0963410065 0.159013614 -0.982564628
vn -0.0963409096 0.159014374 -0.982564509
vn -0.201806754 0.145909056 0.968496025
vn -0.201806754 0.145909056 0.968496025
vn -0.201806739 0.145909056 0.968496025
vn -0.194608331 0.149272963 0.969456136
vn -0.194608226 0.149273083 0.969456136
vn -0.194608241 0.149273083 0.969456136
vn -0.194608256 0.149273098 0.969456136
vn 0.00468439842 0.201468617 -0.979483843
vn 0.00468439842 0.201468617 -0.979483843
vn 0.00468537025 0.201464877 -0.979484499
vn 0.00468439888 0.201468617 -0.979483843
vn 0.459027588 0.794584215 0.397403777
vn 0.459027588 0.794584215 0.397403777
vn 0.459027588 0.794584215 0.397403747
vn 0.447692573 0.819892287 0.356858611
vn 0.447692543 0.819892168 0.356858641
vn -0.0912237167 0.256813377 0.962146044
vn -0.0912237167 0.256813407 0.962146044
vn -0.0912237167 0.256813407 0.962146044
vn -0.113866895 0.259434193 0.959024549
vn -0.113866881 0.259434223 0.959024549
vn 0.969161689 0.0655789971 0.237539709
vn 0.969161689 0.0655789971 0.237539709
vn 0.969161689 0.0655790046 0.237539724
vn 0.969161451 0.0655784458 0.237540513
vn 0.969161451 0.0655784458 0.237540513
vn 0.969148219 0.0655568987 0.237600327
vn 0.969161689 0.0655796304 0.237539217
vn 0.969161689 0.0655796304 0.237539247
vn 0.969148219 0.0655568987 0.237600341
vn 0.969162941 0.0655782223 0.237534925
vn 0.969163895 0.0655766055 0.237531021
vn 0.96916157 0.0655794814 0.237539694
vn 0.969163895 0.0655766129 0.237531036
vn 0.96916157 0.0655808002 0.237539694
vn 0.969162941 0.0655782223 0.237534925
vn 0.96916157 0.0655808002 0.237539694
vn -0.330952793 0.260280728 0.907041371
vn -0.330952883 0.260280758 0.907041371
vn -0.330952883 0.260280758 0.907041371
vn -0.322465748 0.26126343 0.909811616
vn -0.322465748 0.2612634 0.909811616
vn 0.157593548 -0.98681742 -0.0368185863
vn 0.157593533 -0.98681742 -0.0368185826
vn 0.157593548 -0.98681742 -0.0368185863
vn 0.157593116 -0.986817479 -0.0368187651
vn 0.157593846 -0.986817479 -0.0368161835
vn 0.157593608 -0.98681742 -0.0368185677
vn 0.157593355 -0.98681742 -0.0368185975
vn 0.157593742 -0.986817479 -0.0368147381
vn 0.157593757 -0.986817479 -0.0368147381
vn 0.157593846 -0.986817479 -0.0368161798
vn -0.615229964 -0.779266715 -0.119313002
vn -0.615229964 -0.779266715 -0.119313017
vn -0.615229905 -0.779266715 -0.119313017
vn -0.615235984 -0.779265225 -0.119291246
vn -0.615237415 -0.77926445 -0.119288921
vn -0.615235865 -0.779265344 -0.119291358
vn -0.615236104 -0.779264927 -0.119291909
vn -0.615236044 -0.779265165 -0.119291365
vn -0.615236044 -0.779265165 -0.119291365
vn -0.615236104 -0.779265046 -0.119291916
vn -0.615236461 -0.779264569 -0.119292483
vn -0.615235984 -0.779265225 -0.119291261
vn -0.61523658 -0.77926451 -0.119292498
g mesh_xin01_0
f 3/3/3 2/2/2 1/1/1
f 6/6/6 5/5/5 4/4/4
f 9/9/9 8/8/8 7/7/7
f 12/12/12 11/11/11 10/10/10
f 15/15/15 14/14/14 13/13/13
f 16/16/16 13/13/13 14/14/14
f 19/19/19 18/18/18 17/17/17
f 18/18/18 20/20/20 17/17/17
f 20/20/20 21/21/21 17/17/17
f 24/24/24 23/23/23 22/22/22
f 23/23/23 25/25/25 22/22/22
f 26/26/26 25/25/25 23/23/23
f 29/29/29 28/28/28 27/27/27
f 30/30/30 27/27/27 28/28/28
f 33/33/33 32/32/32 31/31/31
f 31/31/31 32/32/32 34/34/34
f 32/32/32 35/35/35 34/34/34
f 38/38/38 37/37/37 36/36/36
f 39/39/39 36/36/36 37/37/37
f 42/42/42 41/41/41 40/40/40
f 41/41/41 43/43/43 40/40/40
f 43/43/43 44/44/44 40/40/40
f 47/47/47 46/46/46 45/45/45
f 45/45/45 46/46/46 48/48/48
f 46/46/46 49/49/49 48/48/48
f 52/52/52 51/51/51 50/50/50
f 53/53/53 50/50/50 51/51/51
f 56/56/56 55/55/55 54/54/54
f 55/55/55 57/57/57 54/54/54
f 57/57/57 58/58/58 54/54/54
f 61/61/61 60/60/60 59/59/59
f 59/59/59 60/60/60 62/62/62
f 60/60/60 63/63/63 62/62/62
f 66/66/66 65/65/65 64/64/64
f 67/67/67 64/64/64 65/65/65
f 70/70/70 69/69/69 68/68/68
f 69/69/69 71/71/71 68/68/68
f 71/71/71 72/72/72 68/68/68
f 73/73/73 71/71/71 69/69/69
f 76/76/76 75/75/75 74/74/74
f 77/77/77 74/74/74 75/75/75
f 80/80/80 79/79/79 78/78/78
f 79/79/79 81/81/81 78/78/78
f 81/81/81 82/82/82 78/78/78
f 83/83/83 82/82/82 81/81/81
f 84/84/84 82/82/82 83/83/83
f 87/87/87 86/86/86 85/85/85
f 88/88/88 85/85/85 86/86/86
f 91/91/91 90/90/90 89/89/89
f 90/90/90 92/92/92 89/89/89
f 92/92/92 93/93/93 89/89/89
f 96/96/96 95/95/95 94/94/94
f 95/95/95 97/97/97 94/94/94
f 98/98/98 97/97/97 95/95/95
f 101/101/101 100/100/100 99/99/99
f 100/100/100 102/102/102 99/99/99
f 102/102/102 103/103/103 99/99/99
f 104/104/104 102/102/102 100/100/100
f 105/105/105 102/102/102 104/104/104
f 106/106/106 102/102/102 105/105/105
f 107/107/107 105/105/105 104/104/104
f 108/108/108 104/104/104 100/100/100
f 109/109/109 108/108/108 100/100/100
f 110/110/110 109/109/109 100/100/100
f 111/111/111 108/108/108 109/109/109
f 112/112/112 104/104/104 108/108/108
f 113/113/113 112/112/112 108/108/108
f 114/114/114 104/104/104 112/112/112
f 117/117/117 116/116/116 115/115/115
f 116/116/116 118/118/118 115/115/115
f 118/118/118 119/119/119 115/115/115
f 122/122/122 121/121/121 120/120/120
f 121/121/121 123/123/123 120/120/120
f 123/123/123 124/124/124 120/120/120
f 125/125/125 124/124/124 123/123/123
f 126/126/126 124/124/124 125/125/125
f 124/124/124 127/127/127 120/120/120
f 127/127/127 128/128/128 120/120/120
f 129/129/129 127/127/127 124/124/124
f 132/132/132 131/131/131 130/130/130
f 131/131/131 133/133/133 130/130/130
f 134/134/134 133/133/133 131/131/131
f 135/135/135 133/133/133 134/134/134
f 133/133/133 136/136/136 130/130/130
f 136/136/136 137/137/137 130/130/130
f 137/137/137 138/138/138 130/130/130
f 139/139/139 137/137/137 136/136/136
f 140/140/140 136/136/136 133/133/133
f 141/141/141 140/140/140 133/133/133
f 142/142/142 136/136/136 140/140/140
