g tiehe
v 4.88070202 0.248091519 0.738020003
v 4.71186924 0.485363483 0.565815091
v 4.71186876 0.485363483 -0.565815389
v 4.88070202 0.248091519 -0.738020003
v 4.88070202 -7.15255721E-09 0.738020003
v 4.88070202 -7.15255721E-09 -0.738020003
v -4.71186876 0.485363483 0.565815389
v -4.88070202 0.248091519 -0.738020003
v -4.71186924 0.485363483 -0.565815091
v -4.88070202 0.248091519 0.738020003
v -4.88070202 -7.15255721E-09 -0.738020003
v -4.88070202 -7.15255721E-09 0.738020003
v 4.88070202 0.248091519 -0.738020003
v 4.71186876 0.485363483 -0.565815389
v -4.71186924 0.485363483 -0.565815091
v -4.88070202 0.248091519 -0.738020003
v 4.88070202 -7.15255721E-09 -0.738020003
v -4.88070202 -7.15255721E-09 -0.738020003
v -4.88070202 0.248091519 0.738020003
v -4.71186876 0.485363483 0.565815389
v 4.71186924 0.485363483 0.565815091
v 4.88070202 0.248091519 0.738020003
v -4.88070202 -7.15255721E-09 0.738020003
v 4.88070202 -7.15255721E-09 0.738020003
v 4.71186924 0.485363483 0.565815091
v 4.43151474 0.485363483 -0.27845946
v 4.71186876 0.485363483 -0.565815389
v 4.43151474 0.485363483 0.27845946
v 4.366117 0.308476627 -0.212451473
v 4.366117 0.308476627 0.212451473
v -4.366117 0.308476627 -0.212451473
v 4.43151474 0.485363483 -0.27845946
v -4.43151474 0.485363483 -0.27845946
v 4.71186876 0.485363483 -0.565815389
v -4.71186924 0.485363483 -0.565815091
v -4.366117 0.308476627 0.212451473
v -4.43151474 0.485363483 -0.27845946
v -4.43151474 0.485363483 0.27845946
v -4.43151474 0.485363483 0.27845946
v -4.71186924 0.485363483 -0.565815091
v -4.71186876 0.485363483 0.565815389
v 4.43151474 0.485363483 0.27845946
v -4.71186876 0.485363483 0.565815389
v 4.71186924 0.485363483 0.565815091
vt 0.392043114 0.837281644
vt 0.36250177 0.854750752
vt 0.36250177 0.969547689
vt 0.392043084 0.987016797
vt 0.41721043 0.837281644
vt 0.41721046 0.987016737
vt 0.350680172 0.854750693
vt 0.321138799 0.987016737
vt 0.350680172 0.969547689
vt 0.321138859 0.837281644
vt 0.295971453 0.987016797
vt 0.295971453 0.837281644
vt 0.254916579 0.00488282368
vt 0.225175619 0.0220098794
vt 0.225175649 0.97799015
vt 0.254916579 0.995117188
vt 0.280083925 0.0048828125
vt 0.280083925 0.995117188
vt 0.193292052 0.0048828125
vt 0.163551122 0.0220098794
vt 0.163551092 0.97799015
vt 0.193292022 0.995117188
vt 0.218459398 0.0048827827
vt 0.218459398 0.995117188
vt 0.151157349 0.995437324
vt 0.0414300561 0.964284599
vt 0.0108212233 0.995437324
vt 0.120547429 0.964284599
vt 0.0591213554 0.949756265
vt 0.102854222 0.949756265
vt 0.0591213554 0.0509123914
vt 0.0414300561 0.964284599
vt 0.0414300561 0.0363868885
vt 0.0108212233 0.995437324
vt 0.0108212233 0.00523818983
vt 0.102854222 0.0509123914
vt 0.0414300561 0.0363868885
vt 0.120547429 0.0363868885
vt 0.120547429 0.0363868885
vt 0.0108212233 0.00523818983
vt 0.151157349 0.00523818983
vt 0.120547429 0.964284599
vt 0.151157349 0.00523818983
vt 0.151157349 0.995437324
vn 0.969054997 0.246844992 0
vn 0.814782977 0.579766035 0
vn 0.814782977 0.579766035 0
vn 0.969054997 0.246844992 0
vn 1 0 0
vn 1 0 0
vn -0.814782977 0.579766035 0
vn -0.969054997 0.246844992 0
vn -0.814782977 0.579766035 0
vn -0.969054997 0.246844992 0
vn -1 0 0
vn -1 0 0
vn -0 0.269409627 -0.963025749
vn -0 0.587375402 -0.809314489
vn -0 0.587375402 -0.809314489
vn -0 0.269409627 -0.963025749
vn -0 0 -1
vn -0 0 -1
vn -0 0.269409627 0.963025749
vn -0 0.587375402 0.809314489
vn -0 0.587375402 0.809314489
vn -0 0.269409627 0.963025749
vn -0 0 1
vn -0 0 1
vn -0 1 0
vn -0.175757617 0.984433532 0
vn -0 1 0
vn -0.175757617 0.984433532 0
vn -0.0217976496 0.920567751 0.389974177
vn -0.0217976496 0.920567751 -0.389974177
vn 0.0217976496 0.920567751 0.389974177
vn -0 0.962962806 0.269634247
vn -0 0.962962806 0.269634247
vn -0 1 0
vn -0 1 0
vn 0.0217976496 0.920567751 -0.389974177
vn 0.175757617 0.984433532 0
vn -0 0.962962806 -0.269634247
vn 0.175757617 0.984433532 0
vn -0 1 0
vn -0 1 0
vn -0 0.962962806 -0.269634247
vn -0 1 0
vn -0 1 0
g tiehe_0
f 3/3/3 2/2/2 1/1/1
f 4/4/4 3/3/3 1/1/1
f 4/4/4 1/1/1 5/5/5
f 6/6/6 4/4/4 5/5/5
f 9/9/9 8/8/8 7/7/7
f 8/8/8 10/10/10 7/7/7
f 8/8/8 11/11/11 10/10/10
f 11/11/11 12/12/12 10/10/10
f 15/15/15 14/14/14 13/13/13
f 16/16/16 15/15/15 13/13/13
f 16/16/16 13/13/13 17/17/17
f 18/18/18 16/16/16 17/17/17
f 21/21/21 20/20/20 19/19/19
f 22/22/22 21/21/21 19/19/19
f 22/22/22 19/19/19 23/23/23
f 24/24/24 22/22/22 23/23/23
f 27/27/27 26/26/26 25/25/25
f 26/26/26 28/28/28 25/25/25
f 26/26/26 29/29/29 28/28/28
f 29/29/29 30/30/30 28/28/28
f 29/29/29 31/31/31 30/30/30
f 31/31/31 29/29/29 32/32/32
f 33/33/33 31/31/31 32/32/32
f 33/33/33 32/32/32 34/34/34
f 35/35/35 33/33/33 34/34/34
f 31/31/31 36/36/36 30/30/30
f 36/36/36 31/31/31 37/37/37
f 30/30/30 36/36/36 38/38/38
f 39/39/39 36/36/36 37/37/37
f 39/39/39 37/37/37 40/40/40
f 41/41/41 39/39/39 40/40/40
f 42/42/42 30/30/30 38/38/38
f 42/42/42 38/38/38 43/43/43
f 44/44/44 42/42/42 43/43/43
