g tornado
v 3.09252429 0.377659917 0.0405029953
v 3.41334367 0.00466070883 -0.773990095
v 3.47221494 0.00365168857 0.44012022
v 2.91585326 0.391190469 -1.02939188
v 2.51547742 0.75296104 -0.760434449
v 2.94277287 0.00510757789 -1.89474511
v 2.06204772 0.800700605 -1.62040675
v 1.49765193 1.07540011 -1.41618049
v 2.38322735 0.399303019 -1.96978891
v 2.11725974 0.00493839849 -2.78696585
v 0.815393448 1.16027021 -1.8744396
v 0.837332606 1.21765673 -1.48075342
v 1.56375504 0.401018739 -2.66729355
v 1.03637505 0.00417357637 -3.3430388
v 1.33866632 0.835394025 -2.2504015
v 0.171326861 1.3108964 -1.66730249
v 0.44301638 1.35549569 -1.40181255
v 0.559872389 0.396130741 -3.0410955
v -0.169512838 0.00290535856 -3.49589038
v 0.45839262 0.852856874 -2.57622671
v 0.0200691223 1.23048973 -2.028409
v -0.163427576 1.45635629 -1.42654598
v 0.0706529021 1.62017548 -1.21082354
v -0.506901205 0.385228723 -3.05095172
v -1.35495484 0.00128671178 -3.22708726
v -0.506101251 1.39219999 -1.57245755
v -0.455125451 0.850982785 -2.57790971
v -0.748314023 1.27758932 -1.8743366
v -0.417459905 1.7315048 -1.07980704
v -0.0833722949 1.88249862 -1.08266258
v -1.51079094 0.369627416 -2.69948363
v -2.37696981 -0.000487131358 -2.5690496
v -0.721447229 1.54861891 -1.20100808
v -1.07453811 1.45176208 -1.23095071
v -1.37686396 1.29588819 -1.47286522
v -1.29226959 0.829997897 -2.28089356
v -0.476385027 1.99238646 -0.889213443
v -0.154607326 2.16009021 -1.02975869
v -2.33525944 0.351208866 -2.02997732
v -3.11228609 -0.0022022198 -1.60114586
v -0.797293484 1.84281456 -0.753270268
v -1.12877941 1.62115586 -0.78114301
v -1.45545816 1.48239803 -0.727945566
v -1.96937966 0.792433143 -1.7387234
v -1.80442822 1.28317916 -0.915832222
v -2.88473225 0.332194269 -1.12094617
v -3.47221637 -0.00365168741 -0.440120697
v -2.42847013 0.742819428 -1.01801109
v -2.01774311 1.24099505 -0.291224331
v -1.62655091 1.48041272 -0.161703944
v -1.33296096 1.665218 -0.262136936
v -3.09436274 0.314877391 -0.0780040249
v -3.41334462 -0.00466070836 0.77398932
v -2.63173723 0.68714112 -0.191519544
v -2.03047228 1.17442405 0.335428834
v -1.60823572 1.44604564 0.388286114
v -2.93746877 0.30134663 0.976875663
v -2.94277287 -0.00510757789 1.89474559
v -2.55849767 0.632113516 0.661967993
v -1.86232054 1.09149551 0.920293152
v -2.42964578 0.293234229 1.91849482
v -2.11726069 -0.00493839849 2.78696704
v -2.20787454 0.584373891 1.45669854
v -1.62838984 0.291518509 2.63286734
v -1.03637457 -0.0041735759 3.3430388
v -1.33828151 1.67549038 0.260559678
v -1.43804717 1.38344169 0.873197556
v -1.52926981 1.00221157 1.42902374
v -1.60516787 0.549680412 2.10357952
v -0.627635479 0.296406448 3.03128362
v 0.169513315 -0.0029053574 3.49589229
v -1.18619883 1.65073454 0.71952194
v -1.14992571 1.30015254 1.26857412
v -1.04702711 0.91734159 1.82416928
v -0.806550741 0.532217562 2.5200491
v 0.452569604 0.307308525 3.06199884
v 1.35495496 -0.00128671073 3.22708726
v -0.927523196 1.59393609 1.08169067
v -0.766803503 1.20622385 1.55983853
v -0.442540646 0.847122014 2.06108952
v 0.102139354 0.534091592 2.64323044
v 1.48015821 0.322909743 2.71788025
v 2.37696934 0.00048713162 2.5690496
v -0.602412879 1.51194572 1.33814037
v -0.306145668 1.11298418 1.72968817
v 0.23554492 0.800022423 2.09538507
v 1.01299727 0.55507654 2.44201779
v 2.32752705 0.341328412 2.03876948
v 3.11228633 0.00220221933 1.60114694
v -0.234328032 1.41465294 1.48830211
v 0.207656741 1.03168035 1.75430322
v 0.915183842 0.78172344 1.89722514
v 1.80806732 0.592641294 1.92571664
v 2.88837671 0.36034289 1.10766292
v 3.47221494 0.00365168857 0.44012022
v 3.09252429 0.377659917 0.0405029953
v 2.37478733 0.64225477 1.14874732
v 2.62501574 0.697933316 0.209569871
v 2.51547742 0.75296104 -0.760434449
v 1.50879478 0.79443258 1.46432853
v 0.732915163 0.972118378 1.61028457
v 1.92592585 0.836616635 0.82925719
v 2.08756113 0.903187692 0.062382631
v 1.94419217 0.98611629 -0.729536116
v 1.49765193 1.07540011 -1.41618049
v 1.20951486 0.941482425 1.28782666
v 1.56763315 0.943467855 0.80204916
v 1.74099302 0.977834821 0.197776243
v 1.68044603 1.04043853 -0.451019228
v 1.36890924 1.1237278 -1.04627776
v 0.837332606 1.21765673 -1.48075342
v 0.980861783 1.25820291 -1.1340301
v 0.44301638 1.35549569 -1.40181255
v 1.35877299 1.17621291 -0.68591398
v 1.53195369 1.11941457 -0.146754235
v 1.50004387 1.09465861 0.395146966
v 1.29491329 1.10493135 0.86821866
v 0.563587546 1.52225459 -1.12532306
v 0.0706529021 1.62017548 -1.21082354
v 0.969829679 1.44955301 -0.857665598
v 1.23419428 1.41083968 -0.475052923
v 1.34122765 1.41078353 -0.0524754412
v 0.353674233 1.79614425 -1.09376955
v -0.0833722949 1.88249862 -1.08266258
v 0.747942328 1.74373901 -0.93931371
v 1.04104686 1.73160398 -0.673080802
v 0.215638116 2.09667063 -1.10146177
v -0.154607326 2.16009021 -1.02975869
v 0.581296206 2.07271743 -1.03469813
v 0.0686100423 2.43684268 -1.14686155
v -0.227980375 2.4696846 -1.03094625
v 1.30734932 1.4493916 0.344920039
v 1.21125114 1.76120234 -0.362010121
v 0.870239794 2.09111953 -0.872432709
v 0.382330537 2.44420195 -1.15753591
v -0.415072054 3.21614218 -1.24253166
v -0.572281837 3.18662071 -1.07899344
v 1.26788437 1.82896447 -0.0644084439
v 1.05748785 2.14965749 -0.673576176
v 0.6309793 2.49087572 -1.09234083
v -0.254460901 3.27540159 -1.33802593
v -0.955859721 4.01789856 -1.07608211
v -1.02874744 3.95421982 -0.925724924
v 1.15824115 2.24127126 -0.456903517
v 0.810789764 2.57123375 -0.977709413
v -0.0877781361 3.35724902 -1.36928356
v -0.837818205 4.09814024 -1.18606961
v -1.31166804 4.80229044 -0.809482098
v -1.36625695 4.72196102 -0.673401535
v 0.915662587 2.67558408 -0.835115552
v 0.047196731 3.45181489 -1.33602059
v -0.687958002 4.18526745 -1.24230623
v -1.21054506 4.88810444 -0.911242485
v -1.56609201 5.58820963 -0.382363588
v -1.61262369 5.50005913 -0.252551675
v 0.166737244 3.54769135 -1.24440157
v -0.526004195 4.26877022 -1.23650622
v -1.07508469 4.96905231 -0.966409504
v -1.46955121 5.67058277 -0.485723287
v -1.63210154 6.37419128 0.130741492
v -1.67617655 6.28724432 0.268453181
v -0.371557027 4.33857822 -1.16932201
v -0.921625495 5.03537035 -0.968328893
v -1.33464491 5.73724127 -0.550164282
v -1.53512311 6.44408751 0.0116419559
v -1.47928095 7.15341043 0.616239727
v -1.51719236 7.07881165 0.774596989
v -0.768676579 5.07906055 -0.916769147
v -1.17764544 5.78014469 -0.567914009
v -1.39693856 6.48850393 -0.0744804144
v -1.38694227 7.20050573 0.470137089
v -1.142923 7.90761089 0.964084804
v -1.16311455 7.85861444 1.14574993
v -1.01748872 5.79411983 -0.536831558
v -1.23421502 6.50208378 -0.11723806
v -1.25131357 7.2144165 0.353911042
v -1.06775844 7.92166662 0.790966809
v -0.752953112 8.64026546 1.10489917
v -0.744078815 8.62606812 1.3143481
v -1.06657898 6.4831872 -0.111473694
v -1.08875358 7.19346285 0.28158018
v -0.946686983 7.89908361 0.647276282
v -0.701148689 8.61468506 0.902891457
v -0.430298388 9.33804226 1.04487109
v -0.384015262 9.36876106 1.28122556
v -0.918869555 7.14017391 0.261868745
v -0.794311821 7.8425889 0.550344467
v -0.59491384 8.55240726 0.732690036
v -0.4028368 9.26691055 0.814397335
v -0.258575529 9.97676945 0.854174316
v -0.175062343 10.0589657 1.11302602
v -0.629011214 7.75899267 0.511862755
v -0.447061986 8.46094418 0.61482352
v -0.304942995 9.16394424 0.617602587
v -0.249413446 9.86065102 0.5950526
v -0.262266099 10.544034 0.62888217
v -0.148855373 10.6730137 0.912930906
v -0.275426298 8.35133076 0.563508332
v -0.148424417 9.04156494 0.478223175
v -0.148681611 9.72461605 0.366913944
v -0.262663215 10.3962412 0.331679136
v -0.413149297 11.0540371 0.443264276
v -0.273272485 11.2088413 0.766403198
v 0.0478407294 8.91453171 0.413070291
v 0.0314705074 9.58507156 0.197275534
v -0.149999112 10.2474623 0.0571688749
v -0.422911495 10.9024353 0.0898631066
v -0.668389499 11.5543356 0.333356231
v -0.492306083 11.6996469 0.710890234
v 0.269313991 9.45884895 0.106598049
v 0.0621371679 10.1156397 -0.161538899
v -0.301382273 10.7723236 -0.251175255
v -0.700760484 11.4354162 -0.0903195143
v -0.991404176 12.1151962 0.319473416
v -0.762344182 12.2128687 0.754075468
v 0.348159164 10.0166759 -0.298064828
v -0.0632196665 10.6793947 -0.538716733
v -0.585515082 11.3572273 -0.509035885
v -1.06210625 12.0597963 -0.173306271
v -1.33285213 12.7976723 0.418257087
v -1.04339731 12.8258152 0.900703728
v 0.262850732 10.6348543 -0.738079369
v -0.336553723 11.3292074 -0.872289777
v -0.965923131 12.0533495 -0.664827645
v -1.4446702 12.813015 -0.133615479
v -1.62308061 13.6099195 0.608718574
v -1.27922213 13.5809584 1.13397789
v 0.0160956383 11.3547287 -1.13626719
v -0.71445626 12.0966368 -1.095806
v -1.36536562 12.8699923 -0.688350499
v -1.76742172 13.6679268 -0.000179210678
v -1.82753396 14.4742317 0.810003579
v -1.4340831 14.4394884 1.3839618
v -1.92404497 14.9973555 0.902440548
v -1.49924493 14.9936104 1.50602305
v -2.11678457 15.0014181 0.189970046
v -2.00060034 14.5173054 0.136464134
v -2.05421734 15.005312 -0.545454681
v -1.93240952 14.5635118 -0.555418193
v -1.74389052 15.008564 -1.21513057
v -1.69483638 13.7479868 -0.619273305
v -1.63118553 14.6072779 -1.18219256
v -1.22323275 15.0107832 -1.73828483
v -1.41408002 13.8404388 -1.17389238
v -1.13326037 14.6433249 -1.66826081
v -0.555044293 15.0117025 -2.05181766
v -1.10450292 12.9617348 -1.17903924
v -0.498691827 14.6673059 -1.95499539
v 0.180081904 15.0112104 -2.11791205
v -0.959015012 13.9341354 -1.59714091
v -0.693546116 13.0771723 -1.54649699
v 0.195982069 14.6763277 -2.00781274
v 0.893479288 15.009366 -1.92859519
v -0.384529918 14.0177717 -1.83796918
v -0.338035494 12.1844349 -1.4142592
v 0.866974115 14.6693029 -1.82034051
v 1.4991008 15.0063915 -1.50670314
v -0.182063237 13.2023859 -1.74640286
v 0.24008444 14.0812654 -1.867329
v 0.117936417 12.3061543 -1.58177626
v 1.4333514 14.6470776 -1.41519284
v 1.92390013 15.0026464 -0.903120995
v 0.368253738 13.3222704 -1.75464547
v 0.839490712 14.1169538 -1.68167984
v 0.429897755 11.4307175 -1.26912844
v 1.82680154 14.6123323 -0.841235161
v 2.11663961 14.9985828 -0.190650493
v 1.34139061 14.120533 -1.30341339
v 0.598462939 12.447114 -1.57815325
v 0.891028941 13.4223671 -1.57023036
v 0.637499511 10.6440783 -0.825217128
v 1.99986827 14.5692596 -0.167695761
v 2.05407286 14.9946871 0.544774473
v 1.68524873 14.0915718 -0.778154254
v 1.3232069 13.4906006 -1.21540129
v 0.854942322 11.5480051 -1.25484872
v 1.04558587 12.5903111 -1.40382624
v 0.67356813 9.96250725 -0.335941643
v 1.9316771 14.5230513 0.524187028
v 1.74374521 14.9914351 1.21445048
v 1.82958984 14.0335646 -0.169256374
v 1.61266124 13.5187435 -0.732954979
v 1.40537488 12.7184772 -1.07982218
v 1.01553869 10.7059536 -0.789620101
v 1.2399627 11.6924486 -1.09514999
v 0.536161065 9.36117268 0.105818726
v 0.999114811 9.95966625 -0.270601034
v 1.35137141 10.813015 -0.635581493
v 1.53851938 11.8466225 -0.809294701
v 1.63443434 12.8161488 -0.645220578
v 0.260179639 8.79816723 0.430002391
v 0.799826205 9.30382347 0.19503139
v 1.28553402 10.0084944 -0.109923817
v 1.60449076 10.9523525 -0.381680816
v -0.100708701 8.23678589 0.584933996
v 0.462981224 8.70650673 0.526977241
v 1.02850759 9.29371929 0.363475949
v -0.470723212 7.65838051 0.536472619
v 0.0560174137 8.13112545 0.676515937
v -0.762151957 7.06097698 0.297154188
v 1.71460259 11.9919319 -0.431761086
v 1.49827874 10.1031055 0.126709685
v 0.631784797 8.65060616 0.692298174
v -0.338539541 7.55288792 0.621205688
v -0.914250314 6.43409538 -0.0578826256
v 1.74436748 11.1071558 -0.0585422739
v 1.19462276 9.33207893 0.590835214
v 0.175848618 8.04709339 0.8272084
v -0.637503266 6.96542406 0.38318041
v -0.873492181 5.77747965 -0.460666031
v 1.61168909 10.2320843 0.410758138
v 0.746229947 8.63720703 0.906025171
v -0.248403475 7.45523739 0.755842209
v -0.795601785 6.36072874 0.037071228
v -0.63468647 5.09485197 -0.817949176
v 1.27813578 9.41427422 0.849686384
v 0.2443313 7.99482584 1.01883554
v -0.559957922 6.86504078 0.509571791
v -0.763024032 5.73223257 -0.348603994
v -0.243245155 4.386271 -1.04885721
v 0.792512894 8.66792679 1.14237964
v -0.211186886 7.3772068 0.924142599
v -0.724944293 6.27193594 0.16193521
v -0.535815954 5.08084106 -0.68378818
v 0.257112265 3.63331509 -1.10088027
v 0.253205657 7.98062801 1.228284
v -0.538869143 6.77193403 0.661083221
v -0.699408352 5.66383553 -0.214161709
v -0.156544968 4.40609598 -0.889641702
v 0.941239774 2.79133964 -0.686813593
v -0.231378511 7.32821035 1.10580742
v -0.710800231 6.17842722 0.301648647
v -0.483990312 5.03871727 -0.530467927
v 0.310575217 3.69835806 -0.916245997
v 1.1732676 2.35490966 -0.254572213
v -0.576780379 6.69733381 0.819440424
v -0.690318108 5.58053684 -0.0735551566
v -0.121913582 4.39566135 -0.710878968
v 0.913185179 2.9045403 -0.513073504
v 1.23354733 1.92671716 0.201868072
v -0.754875422 6.09148121 0.439360231
v -0.485460579 4.97356081 -0.376481116
v 0.31746313 3.73497653 -0.706993759
v 1.11399317 2.4768672 -0.0857935622
v 1.16803205 1.52200723 0.672971427
v -0.736849666 5.49238634 0.0562566407
v -0.143528238 4.35622692 -0.534130812
v 0.824226975 3.00153065 -0.335497767
v 1.12415802 2.04266977 0.422963977
v 0.967555583 1.14899337 1.22491372
v 0.961544394 1.61987162 0.912798882
v 0.574397564 1.22153008 1.44421721
v 0.99420464 2.59243441 0.0728294104
v 0.261368662 3.73875237 -0.500675499
v 0.95973134 2.16283703 0.581527591
v 0.16341579 1.31379282 1.52766216
v 0.706014454 1.73118174 1.07127273
v 0.68482703 3.07061338 -0.148730174
v 0.416914523 1.84251046 1.14776111
v 0.747513175 2.27272463 0.691105247
v 0.81716001 2.68767095 0.222287387
v 0.110370874 1.94043148 1.14180923
v 0.487778842 2.35907912 0.757412076
v 0.587691307 2.75109029 0.347719997
v 0.493425012 3.10345554 0.0201808494
v 0.145638302 3.70922995 -0.323327869
v -0.208406344 2.01313329 1.05300832
v 0.185635656 2.41148424 0.769306958
v 0.313615352 2.77504396 0.431439042
v 0.257858157 3.09609604 0.144367903
v -0.526781917 2.0518465 0.86883527
v -0.139472455 2.42361975 0.703324437
v 0.00871234387 2.75664115 0.446494222
v -0.810035944 2.05190277 0.568100214
v -0.458161652 2.39402103 0.530714691
v -0.986090899 2.0132947 0.161341086
v -0.015769247 3.64997149 -0.196341872
v -0.00363060529 3.0494225 0.19671075
v -0.294281572 2.69810367 0.361168295
v -0.705162048 2.3262589 0.239534557
v -0.993245065 1.94067931 -0.306640089
v -0.813731134 2.22850633 -0.142265096
v -0.736657679 2.11255383 -0.550608635
v -0.545847058 2.6064899 0.157801792
v -0.262908787 2.96906424 0.157822073
v -0.683569491 2.49285126 -0.14905569
v -0.468102485 2.25532699 -0.819271088
v -0.227980375 2.4696846 -1.03094625
v -0.659461796 2.37089372 -0.501933753
v -0.477113187 2.5387671 -0.812620699
v -0.572281837 3.18662071 -1.07899344
v -0.482714832 2.86471438 0.0137926405
v -0.617424428 2.63575792 -0.522297263
v -0.683878601 3.19039631 -0.864032626
v -1.02874744 3.95421982 -0.925724924
v -0.61424166 2.74895811 -0.226789504
v -1.05183494 3.91478562 -0.748138428
v -1.36625695 4.72196102 -0.673401535
v -0.724875093 3.22701406 -0.625302672
v -0.683225453 3.29205775 -0.401184499
v -0.564331651 3.37768149 -0.234992579
v -1.36772716 4.65680456 -0.519414723
v -1.61262369 5.50005913 -0.252551675
v -1.01965249 3.90435147 -0.566031158
v -1.60353327 5.41676092 -0.111945093
v -1.67617655 6.28724432 0.268453181
v -0.933236778 3.92417622 -0.406302631
v -1.31590164 4.61468077 -0.3660945
v -0.394581974 3.47355795 -0.146798372
v -1.6620326 6.19373512 0.408166558
v -1.51719236 7.07881165 0.774596989
v -1.53991759 5.3483634 0.0224970356
v -0.804924905 3.97186923 -0.285837889
v -1.217031 4.60066986 -0.231933534
v -0.203385785 3.56812334 -0.135033816
v -1.49610353 6.9857049 0.926108539
v -1.16311455 7.85861444 1.14574993
v -1.59137499 6.10494375 0.53303045
v -1.42944956 5.30311632 0.13455908
v -0.650477827 4.041677 -0.218653649
v -1.08304083 4.61646175 -0.133113652
v -0.48852405 4.12517977 -0.212853521
v -1.12589788 7.78058386 1.31405032
v -0.744078815 8.62606812 1.3143481
v -1.418558 6.88532162 1.05249977
v -1.47272658 6.03157711 0.627984345
v -0.930092156 4.66015148 -0.0815539211
v -1.2854532 5.28647566 0.210724637
v -0.338597596 4.2123065 -0.269136935
v -0.675595999 8.57380009 1.50597501
v -0.384015262 9.36876106 1.28122556
v -1.03576183 7.68293381 1.44868648
v -1.29390955 6.7897687 1.13852608
v -1.32039797 5.98248529 0.681575358
v -0.776632845 4.72646952 -0.0834732503
v -1.12529647 5.30045176 0.241807073
v -0.269570142 9.35536289 1.49495232
v -0.175062343 10.0589657 1.11302602
v -0.555764854 8.48976898 1.65666747
v -0.903578162 7.57744074 1.53341961
v -1.13719201 6.71057224 1.17381155
v -1.15276206 5.96358919 0.687339604
v -0.968296707 5.34335566 0.224057421
v -0.00894721597 10.0973244 1.34038508
v -0.148855373 10.6730137 0.912930906
v -0.100766659 9.29946232 1.66027319
v -0.399038762 8.38410854 1.74824917
v -0.745290279 7.47682858 1.55802941
v -0.967307866 6.65728331 1.15410006
v 0.0638893992 10.7676239 1.14956439
v -0.273272485 11.2088413 0.766403198
v 0.219734088 10.0872202 1.50882947
v 0.102034956 9.20780087 1.75724804
v -0.224321231 8.26956367 1.7696749
v -0.0201529264 11.348177 1.02030373
v -0.492306083 11.6996469 0.710890234
v 0.350308418 10.816452 1.31024134
v 0.483399242 10.029871 1.59804213
v -0.1937491 11.8538208 0.996745348
v -0.762344182 12.2128687 0.754075468
v 0.315679491 11.4552393 1.17434204
v -0.402555257 12.3410311 1.07807934
v -1.04339731 12.8258152 0.900703728
v -0.579989791 7.39323282 1.5195477
v 0.314373761 9.09143734 1.77418005
v 0.675855219 10.813612 1.37558198
v 0.191271037 11.9982643 1.15644383
v -0.611219108 12.8940487 1.25553298
v -1.27922213 13.5809584 1.13397789
v -0.0526855886 8.1599493 1.71835983
v 0.750246167 9.93219471 1.59726286
v 0.693718791 11.5171137 1.20993912
v 0.0445673205 12.484231 1.25240588
v -0.777321756 13.5845375 1.51224411
v -1.4340831 14.4394884 1.3839618
v 0.510638773 8.96440411 1.70902741
v 1.00126398 10.7594423 1.33770525
v 0.616315544 12.1155519 1.17072356
v -0.0884444341 12.9941454 1.43994761
v -0.867705584 14.417263 1.78910947
v -1.49924493 14.9936104 1.50602305
v -0.893623352 14.9906359 1.92791533
v -0.177916005 13.620224 1.69789302
v -0.196714222 14.4102364 1.97658074
v -0.180226609 14.9887915 2.11723065
v 0.525093853 12.6251888 1.25602937
v 1.06836736 11.5263376 1.12280154
v 0.461872548 13.1140308 1.43170512
v 0.497959733 14.41926 1.92376387
v 0.554899633 14.9882994 2.05113673
v 0.446698368 13.6837177 1.66853297
v 1.03011751 12.1915407 1.03786242
v 1.13252795 14.4432392 1.63702941
v 1.22308779 14.9892159 1.73760462
v 0.981065571 12.7469101 1.08851206
v 0.973355234 13.2392426 1.23179948
v 1.02118325 13.7673569 1.42770517
v 1.63045299 14.4792881 1.1509614
v 1.47624803 13.8610535 1.00445688
v 1.75700486 13.9535055 0.449837953
v 1.38431191 13.354681 0.864341557
v 1.35748625 12.8347054 0.770059049
v 1.72447968 13.5034008 -0.181082249
v 1.6451745 13.4464216 0.373653054
v 1.70513642 12.8715487 -0.152440742
v 1.60895336 12.8779945 0.339080751
v 1.74697351 12.1108532 -0.00808519218
v 1.38276684 12.2170601 0.77388519
v 1.63172829 12.1890402 0.410631359
v 1.75412977 11.2587557 0.294858873
v 1.39443755 11.4817991 0.923438728
v 1.63260019 11.3888693 0.635897398
v 1.61208642 10.379878 0.707961261
v 1.28728592 10.6604786 1.20117927
v 1.49942231 10.528657 0.982471585
v 1.26897359 9.53039265 1.1088084
v 0.988089561 9.8059721 1.50658536
v 1.16824174 9.66642761 1.33694696
v 0.765051425 8.73905849 1.37285316
v 0.667157531 8.8420248 1.56964779
v 0.201401174 8.00620937 1.43029177
v 0.0951662436 8.06848717 1.60049307
v -0.306543052 7.3141551 1.27892542
v -0.427614391 7.33673763 1.42261589
v -0.669119179 6.65023994 0.965543091
v -0.80474782 6.63632917 1.08176923
v -0.851853788 6.02158499 0.558459699
v -0.990038276 5.97716856 0.644582033
v -0.833390653 5.41001415 0.159616411
v -0.540049314 4.89323187 -0.240400717
v -0.641172409 4.80741739 -0.13864015
v -0.218781769 4.29254866 -0.380715311
vt -0.838362336 0.0296022594
vt -0.897397757 0
vt -0.841896057 0
vt -0.893864036 0.0296022594
vt -0.826841474 0.0616565049
vt -0.952899694 0
vt -0.882343173 0.0616565049
vt -0.804305911 0.0984671712
vt -0.949366093 0.0296022594
vt -1.00840235 0
vt -0.859807611 0.0984671712
vt -0.786147594 0.120698214
vt -1.00486863 0.0296022594
vt -1.06390333 0
vt -0.93784523 0.0616565049
vt -0.841649294 0.120698214
vt -0.770770073 0.136992544
vt -1.06036961 0.0296022594
vt -1.11940503 0
vt -0.993347764 0.0616565049
vt -0.915309668 0.0984671712
vt -0.826271772 0.136992544
vt -0.743685246 0.162199736
vt -1.11587143 0.0296022594
vt -1.17490625 0
vt -0.897151232 0.120698214
vt -1.04884875 0.0616565049
vt -0.970812201 0.0984671712
vt -0.799186945 0.162199736
vt -0.716331124 0.184661627
vt -1.17137241 0.0296022594
vt -1.23040795 0
vt -0.88177371 0.136992544
vt -0.952653885 0.120698214
vt -1.02631319 0.0984671712
vt -1.10435057 0.0616565049
vt -0.771832824 0.184661627
vt -0.68686378 0.206582099
vt -1.22687423 0.0296022594
vt -1.28590977 0
vt -0.854688883 0.162199736
vt -0.937276363 0.136992544
vt -1.00815487 0.120698214
vt -1.15985155 0.0616565049
vt -1.081815 0.0984671712
vt -1.28237605 0.0296022594
vt -1.34141159 0
vt -1.21535337 0.0616565049
vt -1.13731599 0.0984671712
vt -1.06365657 0.120698214
vt -0.992777348 0.136992544
vt -1.33787799 0.0296022594
vt -1.39691353 0
vt -1.27085519 0.0616565049
vt -1.19281781 0.0984671712
vt -1.11915779 0.120698214
vt -1.39337969 0.0296022594
vt -1.45241606 0
vt -1.32635713 0.0616565049
vt -1.24831963 0.0984671712
vt -1.44888234 0.0296022594
vt -1.50791788 0
vt -1.38185883 0.0616565049
vt -1.50438416 0.0296022594
vt -1.56341887 0
vt -1.04827905 0.136992544
vt -1.17465949 0.120698214
vt -1.30382156 0.0984671712
vt -1.43736148 0.0616565049
vt -1.55988503 0.0296022594
vt -1.61892068 0
vt -1.10378027 0.136992544
vt -1.23016131 0.120698214
vt -1.35932326 0.0984671712
vt -1.4928633 0.0616565049
vt -1.61538696 0.0296022594
vt -1.67442155 0
vt -1.15928197 0.136992544
vt -1.28566313 0.120698214
vt -1.41482592 0.0984671712
vt -1.54836416 0.0616565049
vt -1.67088795 0.0296022594
vt -1.72992337 0
vt -1.21478379 0.136992544
vt -1.34116507 0.120698214
vt -1.47032773 0.0984671712
vt -1.6038661 0.0616565049
vt -1.72638965 0.0296022594
vt -1.78542519 0
vt -1.27028561 0.136992544
vt -1.3966676 0.120698214
vt -1.5258286 0.0984671712
vt -1.65936708 0.0616565049
vt -1.78189158 0.0296022594
vt -1.840927 0
vt -1.83739328 0.0296022594
vt -1.71486878 0.0616565049
vt -1.77037072 0.0616565049
vt -1.82587242 0.0616565049
vt -1.58133054 0.0984671712
vt -1.45216942 0.120698214
vt -1.63683152 0.0984671712
vt -1.69233322 0.0984671712
vt -1.74783516 0.0984671712
vt -1.80333686 0.0984671712
vt -1.5076704 0.120698214
vt -1.56317222 0.120698214
vt -1.61867309 0.120698214
vt -1.6741749 0.120698214
vt -1.72967672 0.120698214
vt -1.78517854 0.120698214
vt -1.7142992 0.136992544
vt -1.76980102 0.136992544
vt -1.65879738 0.136992544
vt -1.60329556 0.136992544
vt -1.5477947 0.136992544
vt -1.49229288 0.136992544
vt -1.68721437 0.162199736
vt -1.74271619 0.162199736
vt -1.63171256 0.162199736
vt -1.57621074 0.162199736
vt -1.52070987 0.162199736
vt -1.65986037 0.184661627
vt -1.71536207 0.184661627
vt -1.60435843 0.184661627
vt -1.54885674 0.184661627
vt -1.63039303 0.206582099
vt -1.68589473 0.206582099
vt -1.57489109 0.206582099
vt -1.59811401 0.228645474
vt -1.65361583 0.228645474
vt -1.46520805 0.162199736
vt -1.49335575 0.184661627
vt -1.51938939 0.206582099
vt -1.5426122 0.228645474
vt -1.52664089 0.272548705
vt -1.58214271 0.272548705
vt -1.43785381 0.184661627
vt -1.46388841 0.206582099
vt -1.48711038 0.228645474
vt -1.47113907 0.272548705
vt -1.44732332 0.316013843
vt -1.50282502 0.316013843
vt -1.40838647 0.206582099
vt -1.43160951 0.228645474
vt -1.41563725 0.272548705
vt -1.39182138 0.316013843
vt -1.35904431 0.3602328
vt -1.41454601 0.3602328
vt -1.37610769 0.228645474
vt -1.36013639 0.272548705
vt -1.33631968 0.316013843
vt -1.30354238 0.3602328
vt -1.26237082 0.405315846
vt -1.31787264 0.405315846
vt -1.30463457 0.272548705
vt -1.2808187 0.316013843
vt -1.24804068 0.3602328
vt -1.20686901 0.405315846
vt -1.15855885 0.451105624
vt -1.21406054 0.451105624
vt -1.22531676 0.316013843
vt -1.19253969 0.3602328
vt -1.15136719 0.405315846
vt -1.10305691 0.451105624
vt -1.04934335 0.497324616
vt -1.10484517 0.497324616
vt -1.13703775 0.3602328
vt -1.09586632 0.405315846
vt -1.04755521 0.451105624
vt -0.993841529 0.497324616
vt -0.936842442 0.543612123
vt -0.99234426 0.543612123
vt -1.0403645 0.405315846
vt -0.992054224 0.451105624
vt -0.93833971 0.497324616
vt -0.881340623 0.543612123
vt -0.822998822 0.589722276
vt -0.878500581 0.589722276
vt -0.936552286 0.451105624
vt -0.882838845 0.497324616
vt -0.825838864 0.543612123
vt -0.767496943 0.589722276
vt -0.709729075 0.635422587
vt -0.765230775 0.635422587
vt -0.827336967 0.497324616
vt -0.770337939 0.543612123
vt -0.711995184 0.589722276
vt -0.654227257 0.635422587
vt -0.598909736 0.680471778
vt -0.654411435 0.680471778
vt -0.714836061 0.543612123
vt -0.65649426 0.589722276
vt -0.598725438 0.635422587
vt -0.543407321 0.680472016
vt -0.492134273 0.724694848
vt -0.547636032 0.724694848
vt -0.600992382 0.589722276
vt -0.543224514 0.635422587
vt -0.487905502 0.680472016
vt -0.436632395 0.724694848
vt -0.39062196 0.768008351
vt -0.446123719 0.768008351
vt -0.487722635 0.635422587
vt -0.432405174 0.680471778
vt -0.381130636 0.724694848
vt -0.335120112 0.768008351
vt -0.295217574 0.810426474
vt -0.350719333 0.810426474
vt -0.376903296 0.680471778
vt -0.325629711 0.724694848
vt -0.279618323 0.768008351
vt -0.239714652 0.81042695
vt -0.206476003 0.852043748
vt -0.261977732 0.852043748
vt -0.270127833 0.724694848
vt -0.224117398 0.768008351
vt -0.184213936 0.810426474
vt -0.150974154 0.852043748
vt -0.124795824 0.893002152
vt -0.180297554 0.893002152
vt -0.16861552 0.768008351
vt -0.128713012 0.810426474
vt -0.0954723656 0.852043748
vt -0.0692939758 0.893002152
vt -0.0505307019 0.93346417
vt -0.106032431 0.93346417
vt -0.0732111335 0.810426474
vt -0.039971441 0.852043748
vt -0.013792187 0.893002152
vt 0.00497114658 0.93346417
vt 0.0159678161 0.973618746
vt -0.0395339131 0.973618746
vt 0.0551236868 0.999856949
vt -0.000378042459 0.999856949
vt 0.110625535 0.999856949
vt 0.0714696646 0.973618746
vt 0.166127324 0.999856949
vt 0.126971453 0.973618746
vt 0.221628249 0.999856949
vt 0.0604729354 0.93346417
vt 0.182472378 0.973618746
vt 0.277130127 0.999856949
vt 0.11597386 0.93346417
vt 0.237974256 0.973618746
vt 0.332631052 0.999856949
vt 0.0417087376 0.893002152
vt 0.293475181 0.973618746
vt 0.388133734 0.999856949
vt 0.171475738 0.93346417
vt 0.0972106159 0.893002152
vt 0.348977864 0.973618746
vt 0.443635464 0.999856949
vt 0.226976663 0.93346417
vt 0.0155304372 0.852043748
vt 0.404479593 0.973618746
vt 0.499137282 0.999856949
vt 0.15271154 0.893002152
vt 0.282478482 0.93346417
vt 0.0710313618 0.852043748
vt 0.459981412 0.973618746
vt 0.554639339 0.999857068
vt 0.208213359 0.893002152
vt 0.337981075 0.93346417
vt -0.0177102089 0.810426474
vt 0.51548326 0.973618746
vt 0.610140681 0.99985671
vt 0.393482894 0.93346417
vt 0.12653318 0.852043748
vt 0.263715953 0.893002152
vt -0.113114595 0.768008351
vt 0.570984364 0.973618269
vt 0.665642738 0.999856949
vt 0.448985189 0.933464408
vt 0.319217771 0.893002152
vt 0.0377916098 0.810426474
vt 0.182035774 0.852043748
vt -0.214626908 0.724694848
vt 0.626486897 0.973618746
vt 0.721143842 0.999856949
vt 0.504486322 0.93346405
vt 0.374719441 0.893002033
vt 0.237537593 0.852043748
vt -0.0576127768 0.768008351
vt 0.0932942033 0.810426474
vt -0.321402371 0.680471778
vt -0.15912509 0.724694848
vt -0.00211018324 0.768008351
vt 0.148796022 0.810426474
vt 0.293038994 0.852043509
vt -0.432221711 0.635422587
vt -0.265900552 0.680471778
vt -0.103622496 0.724694848
vt 0.0533916354 0.768008351
vt -0.545491457 0.589722276
vt -0.376719892 0.635422587
vt -0.210397959 0.680471778
vt -0.659335136 0.543612123
vt -0.489989638 0.589722276
vt -0.771836042 0.497324616
vt 0.204298437 0.810426712
vt -0.0481206775 0.724694848
vt -0.321217299 0.635422587
vt -0.603833318 0.543612123
vt -0.881051421 0.451105624
vt 0.108893514 0.768008351
vt -0.15489614 0.680471778
vt -0.434487045 0.589722276
vt -0.716334224 0.497324616
vt -0.98486352 0.405315846
vt 0.00738120079 0.724694848
vt -0.26571548 0.635422587
vt -0.548330724 0.543612123
vt -0.825549603 0.451105624
vt -1.08153689 0.3602328
vt -0.0993942618 0.680471778
vt -0.378985226 0.589722276
vt -0.66083163 0.497324616
vt -0.929361701 0.405315846
vt -1.1698159 0.316013843
vt -0.210213602 0.635422587
vt -0.492828906 0.543612123
vt -0.770047009 0.451105624
vt -1.02603507 0.3602328
vt -1.24913359 0.272548705
vt -0.323483348 0.589722276
vt -0.605329812 0.497324616
vt -0.873859167 0.405315846
vt -1.11431408 0.316013843
vt -1.32060671 0.228645474
vt -0.437327027 0.543612123
vt -0.71454519 0.451105624
vt -0.970532417 0.3602328
vt -1.19363177 0.272548705
vt -1.3528856 0.206582099
vt -0.549827933 0.497324616
vt -0.818357289 0.405315846
vt -1.05881143 0.316013843
vt -1.26510489 0.228645474
vt -1.38235295 0.184661627
vt -0.659043312 0.451105624
vt -0.915030718 0.3602328
vt -1.13812923 0.272548705
vt -1.29738379 0.206582099
vt -1.40970707 0.162199736
vt -0.762855411 0.405315846
vt -1.00330973 0.316013843
vt -1.20960236 0.228645474
vt -1.32685113 0.184661627
vt -1.4367919 0.136992544
vt -1.35420525 0.162199736
vt -1.38129008 0.136992544
vt -1.24188113 0.206582099
vt -1.0826273 0.272548705
vt -1.27134848 0.184661627
vt -1.32578754 0.136992544
vt -1.29870272 0.162199736
vt -1.15410042 0.228645474
vt -1.24320078 0.162199736
vt -1.21584678 0.184661627
vt -1.18637943 0.206582099
vt -1.18769896 0.162199736
vt -1.16034484 0.184661627
vt -1.13087749 0.206582099
vt -1.0985986 0.228645474
vt -1.02712548 0.272548705
vt -1.13219714 0.162199736
vt -1.10484302 0.184661627
vt -1.07537568 0.206582099
vt -1.04309678 0.228645474
vt -1.07669544 0.162199736
vt -1.0493412 0.184661627
vt -1.01987386 0.206582099
vt -1.02119422 0.162199736
vt -0.993840218 0.184661627
vt -0.96569252 0.162199736
vt -0.971623659 0.272548705
vt -0.987595081 0.228645474
vt -0.964372873 0.206582099
vt -0.938338399 0.184661627
vt -0.910191536 0.162199736
vt -0.882837415 0.184661627
vt -0.827334821 0.184661627
vt -0.908871055 0.206582099
vt -0.932093859 0.228645474
vt -0.85337007 0.206582099
vt -0.742365479 0.206582099
vt -0.654584885 0.228645474
vt -0.797867477 0.206582099
vt -0.710086584 0.228645474
vt -0.583111763 0.272548705
vt -0.876592159 0.228645474
vt -0.765588582 0.228645474
vt -0.638613462 0.272548705
vt -0.503794074 0.316013843
vt -0.821091175 0.228645474
vt -0.559295774 0.316013843
vt -0.415515065 0.3602328
vt -0.69411546 0.272548705
vt -0.749618053 0.272548705
vt -0.805119038 0.272548705
vt -0.471016765 0.3602328
vt -0.318841696 0.405315846
vt -0.614797771 0.316013843
vt -0.374343395 0.405315846
vt -0.215029597 0.451105624
vt -0.670300364 0.316013843
vt -0.526518762 0.3602328
vt -0.860620737 0.272548705
vt -0.270531297 0.451105624
vt -0.105814695 0.497324377
vt -0.429845393 0.405315846
vt -0.725801349 0.316013843
vt -0.582020402 0.3602328
vt -0.91612196 0.272548705
vt -0.161315918 0.497324616
vt 0.00668668747 0.543612123
vt -0.326033294 0.451105624
vt -0.485347033 0.405315846
vt -0.781303108 0.316013843
vt -0.63752234 0.3602328
vt -0.836804211 0.316013843
vt -0.048815012 0.543612123
vt 0.120530367 0.589722276
vt -0.216817915 0.497324616
vt -0.381534934 0.451105624
vt -0.693024099 0.3602328
vt -0.54084897 0.405315846
vt -0.89230597 0.316013843
vt 0.0650286674 0.589722276
vt 0.233800113 0.635422587
vt -0.104317009 0.543612123
vt -0.272319555 0.497324616
vt -0.437036872 0.451105624
vt -0.748525202 0.3602328
vt -0.596350729 0.405315846
vt 0.178298414 0.635422587
vt 0.344619453 0.680471778
vt 0.00952666998 0.589722276
vt -0.159818649 0.543612123
vt -0.327821493 0.497324616
vt -0.492538631 0.451105624
vt -0.651851833 0.405315846
vt 0.289117754 0.680471778
vt 0.451394916 0.724694848
vt 0.122796416 0.635422587
vt -0.0459749699 0.589722276
vt -0.215320587 0.543612123
vt -0.383323252 0.497324616
vt 0.395893216 0.724694848
vt 0.552907228 0.768008351
vt 0.233615756 0.680471778
vt 0.0672947764 0.635422587
vt -0.101476908 0.589722276
vt 0.497405529 0.768008351
vt 0.648311615 0.810426474
vt 0.340391219 0.724694848
vt 0.178114116 0.680471778
vt 0.592809916 0.810426474
vt 0.737053156 0.852043748
vt 0.441903532 0.768008351
vt 0.681551456 0.852043748
vt 0.818733335 0.893002152
vt -0.270822346 0.543612123
vt 0.0117928386 0.635422587
vt 0.284889579 0.724694848
vt 0.537307918 0.810426474
vt 0.763231635 0.893002152
vt 0.892998457 0.93346417
vt -0.156978667 0.589722276
vt 0.122612178 0.680471778
vt 0.386401892 0.768008351
vt 0.626049519 0.852043748
vt 0.837496758 0.93346417
vt 0.959496975 0.973618746
vt -0.0437089205 0.635422587
vt 0.229387641 0.724694848
vt 0.481806278 0.810426474
vt 0.707729697 0.893002152
vt 0.903995275 0.973618746
vt 0.998652875 0.999856949
vt 0.943151176 0.999856949
vt 0.78199482 0.93346417
vt 0.848493338 0.973618746
vt 0.887649179 0.999856949
vt 0.570547819 0.852043748
vt 0.330899954 0.768008351
vt 0.652227998 0.893002152
vt 0.792991638 0.973618746
vt 0.832147717 0.999857068
vt 0.72649312 0.93346417
vt 0.426305413 0.81042695
vt 0.7374897 0.973618746
vt 0.776645601 0.999856949
vt 0.515045881 0.852043748
vt 0.59672606 0.893002152
vt 0.670991182 0.93346417
vt 0.681988001 0.973618746
vt 0.615489483 0.93346417
vt 0.559988379 0.93346417
vt 0.54122436 0.893002152
vt 0.459544152 0.852043748
vt 0.430221945 0.893002391
vt 0.485723227 0.893002152
vt 0.348541558 0.852043867
vt 0.404043049 0.852043748
vt 0.259799719 0.810426474
vt 0.370802581 0.810426474
vt 0.315301478 0.810426474
vt 0.164395332 0.768008351
vt 0.275398195 0.768008351
vt 0.219897091 0.768008351
vt 0.0628830194 0.724694848
vt 0.173885882 0.724694848
vt 0.118384778 0.724694848
vt -0.0438924432 0.680471778
vt 0.0671104193 0.680471778
vt 0.0116093159 0.680471778
vt -0.154711783 0.635422587
vt -0.0992100239 0.635422587
vt -0.267981529 0.589722276
vt -0.21247977 0.589722276
vt -0.381825209 0.543612123
vt -0.32632345 0.543612123
vt -0.494326115 0.497324616
vt -0.438824356 0.497324616
vt -0.603541493 0.451105624
vt -0.548039734 0.451105624
vt -0.707353592 0.405315846
vt -0.85952878 0.3602328
vt -0.804026961 0.3602328
vt -0.947807789 0.316013843
vn 0.649496377 0.76017195 0.0171178449
vn 0.669395387 0.73127681 -0.130935252
vn 0.667230189 0.737359703 0.105378054
vn 0.636827946 0.739279091 -0.218898609
vn 0.503846526 0.856214881 -0.114170037
vn 0.587338448 0.727559984 -0.354527712
vn 0.458655834 0.827273428 -0.324427873
vn 0.27007398 0.953859091 -0.131197616
vn 0.533606291 0.723120689 -0.438589573
vn 0.430805564 0.726599395 -0.535219491
vn 0.202033356 0.942410827 -0.26654157
vn 0.248218566 0.949682772 -0.191023886
vn 0.352744818 0.713267028 -0.605657697
vn 0.220587254 0.728559911 -0.648491859
vn 0.323019892 0.797443509 -0.5096488
vn 0.142383218 0.943320632 -0.299788564
vn 0.260863721 0.870922029 -0.41646716
vn 0.121800624 0.710685253 -0.692886114
vn -0.0148905534 0.73316586 -0.679886818
vn 0.115817495 0.769540131 -0.628008187
vn 0.0639646947 0.924886405 -0.374824733
vn 0.0585211292 0.867168128 -0.494565159
vn 0.0902068913 0.588145733 -0.803708434
vn -0.122956365 0.715834558 -0.687359214
vn -0.244105294 0.739965439 -0.626788437
vn -0.0237521045 0.930298328 -0.366033971
vn -0.12528348 0.746122658 -0.653915167
vn -0.126460373 0.901293755 -0.414339572
vn -0.234967187 0.62613833 -0.743465602
vn -0.17606464 0.250929952 -0.951858938
vn -0.343831956 0.728585303 -0.592404425
vn -0.437836826 0.748137474 -0.498587221
vn -0.181413904 0.854950428 -0.485951304
vn -0.223858207 0.909957886 -0.349090338
vn -0.327444255 0.87231946 -0.363096297
vn -0.356698155 0.729815543 -0.583211482
vn -0.524879098 0.345029682 -0.778110802
vn -0.383738339 -0.0203793608 -0.923216999
vn -0.508489013 0.747911036 -0.426694453
vn -0.573312163 0.756714225 -0.314160347
vn -0.516620338 0.653854787 -0.552790463
vn -0.408385485 0.836037934 -0.366417825
vn -0.408042371 0.881853342 -0.236296698
vn -0.539832711 0.723107159 -0.43092525
vn -0.492864609 0.839765489 -0.227768302
vn -0.596718848 0.771761835 -0.219796136
vn -0.636949241 0.764649034 -0.0980185196
vn -0.647285104 0.728243709 -0.225129217
vn -0.589274228 0.807080328 -0.0371117704
vn -0.53010422 0.846496463 -0.0493279658
vn -0.565397501 0.81044668 -0.15330267
vn -0.603842437 0.79708463 -0.00552192563
vn -0.624767542 0.770932555 0.123808272
vn -0.665604889 0.746302366 -0.00169458403
vn -0.602402329 0.779564977 0.171434686
vn -0.566399336 0.806302845 0.170491859
vn -0.540473819 0.820281029 0.187155277
vn -0.541064978 0.774755061 0.32711336
vn -0.597786427 0.77596724 0.201311439
vn -0.534690142 0.763636231 0.361892462
vn -0.425866902 0.838081777 0.340963811
vn -0.396306276 0.775694788 0.49116078
vn -0.464419007 0.812807262 0.351652503
vn -0.278725803 0.848220408 0.450371176
vn -0.205797285 0.773587406 0.599341333
vn -0.620491743 0.777057052 0.105700038
vn -0.517200291 0.766261518 0.381244272
vn -0.401084065 0.764781237 0.504223287
vn -0.299188524 0.850090086 0.433397233
vn -0.110819258 0.849655271 0.515562832
vn 0.0112627354 0.768769026 0.639427304
vn -0.574434102 0.735543132 0.359168351
vn -0.397652 0.733589292 0.551107645
vn -0.227308184 0.78490448 0.576416373
vn -0.135447323 0.881283224 0.452762514
vn 0.0715088174 0.842457056 0.53399688
vn 0.232002571 0.761783421 0.604864299
vn -0.448778659 0.688073039 0.57022208
vn -0.229180053 0.71609211 0.659309268
vn -0.0483949408 0.820535302 0.569543421
vn 0.00880611688 0.902301073 0.431016505
vn 0.259817332 0.827660501 0.497466683
vn 0.431115657 0.75354296 0.496298611
vn -0.270160824 0.640202761 0.719133914
vn -0.0370136462 0.719643295 0.693356693
vn 0.0992448851 0.863301992 0.49483332
vn 0.135793984 0.91204524 0.38695401
vn 0.436801136 0.807190657 0.39704904
vn 0.583337069 0.745051801 0.323443651
vn -0.0614656284 0.600436509 0.797306716
vn 0.148474708 0.745630383 0.649607956
vn 0.192973331 0.903275549 0.383216232
vn 0.256552517 0.911012232 0.322858334
vn 0.576104164 0.783726811 0.232112929
vn 0.667230189 0.737359703 0.105378054
vn 0.649496377 0.76017195 0.0171178449
vn 0.372670233 0.900340259 0.224731594
vn 0.465811282 0.881438434 0.078013964
vn 0.503846526 0.856214881 -0.114170037
vn 0.236206308 0.933308244 0.270448506
vn 0.29425326 0.789336264 0.538853645
vn 0.253358215 0.951325238 0.175470516
vn 0.268028766 0.959158242 0.090421021
vn 0.281629741 0.959494412 -0.0074272682
vn 0.27007398 0.953859091 -0.131197616
vn 0.376152903 0.840529263 0.38989678
vn 0.393492728 0.887273729 0.240642309
vn 0.370686054 0.921363771 0.116964243
vn 0.337595582 0.941135943 0.0171010774
vn 0.303346753 0.949463844 -0.0806175694
vn 0.248218566 0.949682772 -0.191023886
vn 0.410202116 0.86285305 -0.295328408
vn 0.260863721 0.870922029 -0.41646716
vn 0.521173596 0.838790357 -0.157508373
vn 0.605704844 0.795689344 -0.00045258645
vn 0.651113331 0.735952079 0.185542062
vn 0.630944848 0.670309365 0.390632838
vn 0.401454568 0.53470695 -0.743587732
vn 0.0902068913 0.588145733 -0.803708434
vn 0.66241926 0.466024607 -0.586533725
vn 0.84804678 0.392534971 -0.355995625
vn 0.939535379 0.332481951 -0.0820295364
vn 0.199327096 0.165119395 -0.965921521
vn -0.17606464 0.250929952 -0.951858938
vn 0.534354448 0.0957652628 -0.83981812
vn 0.786720037 0.0576746725 -0.614609718
vn -0.0143729243 -0.0985957086 -0.995023727
vn -0.383738339 -0.0203793608 -0.923216999
vn 0.339141876 -0.128543049 -0.931911707
vn -0.200823739 -0.254252791 -0.946057737
vn -0.532576442 -0.217330843 -0.818003356
vn 0.932343721 0.303606838 0.196362004
vn 0.938379943 0.0650825649 -0.339422017
vn 0.627978504 -0.106285907 -0.770938635
vn 0.137302637 -0.23256737 -0.962839782
vn -0.512223482 -0.352048188 -0.78338325
vn -0.719073772 -0.42008391 -0.553590596
vn 0.990870655 0.121467635 -0.0584898964
vn 0.83401233 -0.0240300782 -0.551222324
vn 0.437260598 -0.145139113 -0.887546003
vn -0.258798659 -0.216299504 -0.941401958
vn -0.731058598 -0.20648852 -0.650319755
vn -0.86819315 -0.335758328 -0.365386099
vn 0.948590934 0.109790407 -0.296852261
vn 0.682113528 0.00813160092 -0.731201112
vn 0.0316587389 -0.0200422443 -0.999297738
vn -0.506168664 -0.0454056077 -0.86123842
vn -0.810546756 -0.0703040138 -0.581438839
vn -0.924320638 -0.236235619 -0.299706817
vn 0.835851073 0.197816685 -0.512075722
vn 0.304704309 0.188414887 -0.933624744
vn -0.220668137 0.12226478 -0.967655361
vn -0.600964546 0.107200906 -0.792054057
vn -0.87895447 0.0983682573 -0.466650605
vn -0.977377117 -0.0881035551 -0.192280188
vn 0.530107915 0.361370385 -0.767070472
vn 0.0858603418 0.278550714 -0.956575871
vn -0.32073167 0.27495718 -0.906382799
vn -0.674882293 0.272619933 -0.685720205
vn -0.904759705 0.268908679 -0.330300003
vn -0.994734645 0.0908095837 -0.0475047044
vn 0.377439648 0.41110155 -0.829779923
vn -0.00327798142 0.413070083 -0.910693407
vn -0.389821589 0.413821965 -0.822672725
vn -0.706421435 0.412068456 -0.575472295
vn -0.886353791 0.412018359 -0.211229563
vn -0.958561897 0.268411577 0.0954690948
vn 0.313302636 0.504869163 -0.804331183
vn -0.0577252731 0.504982114 -0.861197352
vn -0.423457354 0.502833605 -0.753553092
vn -0.709135234 0.502258003 -0.494837582
vn -0.858437181 0.49368903 -0.139128089
vn -0.893413067 0.405250311 0.193869114
vn 0.281719327 0.535077035 -0.796446264
vn -0.0895275921 0.530269206 -0.843089223
vn -0.447907805 0.528178513 -0.721391678
vn -0.722937107 0.517933726 -0.457281798
vn -0.881355226 0.461538464 -0.100970872
vn -0.862922788 0.442734808 0.243618995
vn 0.255246937 0.49076438 -0.833066225
vn -0.13393493 0.486366481 -0.863428652
vn -0.502884269 0.474817753 -0.722257257
vn -0.800028682 0.414418161 -0.433833748
vn -0.936203718 0.349680185 -0.03530249
vn -0.865906417 0.402037382 0.297610372
vn 0.195055529 0.381672204 -0.90348196
vn -0.22471863 0.369239271 -0.901756048
vn -0.628489256 0.30703482 -0.714654386
vn -0.901341319 0.2407289 -0.360046238
vn -0.983074248 0.164773434 0.0800918639
vn -0.880014956 0.275506854 0.386871547
vn 0.0782345384 0.214024946 -0.973690212
vn -0.387232244 0.152604252 -0.90926522
vn -0.765283644 0.0890628546 -0.637501836
vn -0.973506808 0.0175692309 -0.227981985
vn -0.973282814 -0.0632946491 0.220713079
vn -0.858611465 0.0765312016 0.506882012
vn -0.10501121 -0.0297117624 -0.994027019
vn -0.544150233 -0.0863109455 -0.834536314
vn -0.852668643 -0.147050723 -0.501330435
vn -0.973617315 -0.212844133 -0.0822599009
vn -0.903538823 -0.279777586 0.324564457
vn -0.779912531 -0.15088518 0.607429147
vn -0.264772981 -0.263968498 -0.927478313
vn -0.63499862 -0.309634328 -0.707745194
vn -0.859681487 -0.355098367 -0.367223114
vn -0.917971194 -0.396517038 0.0101635745
vn -0.832248092 -0.426613301 0.35406819
vn -0.68755728 -0.339148611 0.642061532
vn -0.34618181 -0.451708794 -0.822263479
vn -0.643783212 -0.475151747 -0.599811614
vn -0.818855286 -0.490300387 -0.298465252
vn -0.870196879 -0.492003977 0.0262612998
vn -0.812477767 -0.475011289 0.338000059
vn -0.645023286 -0.436852813 0.626980543
vn -0.350639671 -0.560268044 -0.75043422
vn -0.615581989 -0.551638246 -0.56280911
vn -0.793615282 -0.528613687 -0.301234663
vn -0.872282088 -0.488971323 0.00555960461
vn -0.839414954 -0.43257913 0.329025477
vn -0.65791285 -0.435789317 0.614197314
vn -0.33184433 -0.573042691 -0.749333978
vn -0.610723555 -0.530992866 -0.587420881
vn -0.816138446 -0.475190878 -0.32880345
vn -0.912597775 -0.40885672 -0.00122025248
vn -0.873540699 -0.338334262 0.349937826
vn -0.686281502 -0.361768812 0.630984187
vn -0.344235063 -0.496986538 -0.796559215
vn -0.651161969 -0.433152318 -0.623190999
vn -0.868253529 -0.365669101 -0.335293859
vn -0.952299356 -0.304389566 0.0217473712
vn -0.883514345 -0.26512295 0.38615042
vn -0.69412744 -0.273947716 0.665687382
vn -0.89505589 -0.139673978 0.423516393
vn -0.69690299 -0.133367851 0.704655349
vn -0.984651923 -0.148267671 0.0920722261
vn -0.964313686 -0.258115709 0.0589522906
vn -0.955344617 -0.158708617 -0.24925521
vn -0.926770747 -0.255798429 -0.275069118
vn -0.811439574 -0.169766709 -0.559236228
vn -0.91249603 -0.26391542 -0.312569499
vn -0.77659297 -0.259873241 -0.573907018
vn -0.571023107 -0.179444388 -0.801081955
vn -0.759112656 -0.222478911 -0.611760676
vn -0.534175038 -0.270856202 -0.800808311
vn -0.263160914 -0.185446501 -0.946760774
vn -0.712211192 -0.306580693 -0.631477118
vn -0.231522396 -0.28686294 -0.929573596
vn 0.0758674964 -0.186065063 -0.979603946
vn -0.511273146 -0.186261863 -0.838991284
vn -0.46359849 -0.238629475 -0.85330677
vn 0.0936337337 -0.303153515 -0.948330462
vn 0.406452388 -0.181152597 -0.895533442
vn -0.200051248 -0.161560208 -0.966373503
vn -0.398201585 -0.36605081 -0.841095924
vn 0.404496133 -0.314864665 -0.85862869
vn 0.689432204 -0.172126338 -0.703602016
vn -0.153101325 -0.170388728 -0.973410368
vn 0.135320336 -0.153105244 -0.978901029
vn -0.0887759179 -0.280805856 -0.955649912
vn 0.668462336 -0.319076627 -0.671824515
vn 0.890317202 -0.161355585 -0.425792873
vn 0.181105927 -0.111331075 -0.977141798
vn 0.452671677 -0.162894249 -0.876672029
vn -0.027539745 -0.428701192 -0.903026521
vn 0.856935382 -0.316542625 -0.406770825
vn 0.983962595 -0.150865853 -0.0951680839
vn 0.713505387 -0.188578948 -0.674794853
vn 0.238990501 -0.187570408 -0.952733397
vn 0.497783691 -0.0707786903 -0.864408314
vn -0.00247393362 -0.550649583 -0.834732771
vn 0.946196258 -0.310568243 -0.0908842832
vn 0.958279788 -0.141908854 0.248116553
vn 0.888721168 -0.223806217 -0.400106728
vn 0.757820129 -0.0557921976 -0.650073826
vn 0.299637616 -0.333055943 -0.894030809
vn 0.544938743 -0.0982267484 -0.832702398
vn -0.0154288411 -0.600700617 -0.799325228
vn 0.921868801 -0.304615736 0.239514053
vn 0.816007197 -0.135084018 0.562035978
vn 0.961545348 -0.261174053 -0.0849629939
vn 0.929477632 -0.0695941895 -0.362254024
vn 0.791728437 -0.02509683 -0.610357583
vn 0.331756651 -0.485553831 -0.80881083
vn 0.597901523 -0.220951691 -0.770515382
vn -0.0209513158 -0.557450056 -0.829946101
vn 0.321019948 -0.590889812 -0.740131974
vn 0.629603088 -0.384317607 -0.675203621
vn 0.829750717 -0.106100254 -0.547956586
vn 0.949405909 0.020758355 -0.313364923
vn 0.039532356 -0.422970295 -0.905280828
vn 0.301340163 -0.614668369 -0.728956044
vn 0.617559075 -0.530916095 -0.580300748
vn 0.854460061 -0.258461863 -0.450661004
vn 0.183802798 -0.217701316 -0.958552361
vn 0.331567049 -0.544894457 -0.77016449
vn 0.581305504 -0.616416097 -0.531145036
vn 0.369323969 0.0281632151 -0.928873897
vn 0.444236994 -0.388620317 -0.807234645
vn 0.499230057 0.226670966 -0.836295128
vn 0.967385292 -0.00309150107 -0.253290713
vn 0.837967873 -0.427033603 -0.339782655
vn 0.575717926 -0.615570843 -0.538164794
vn 0.61261934 -0.165891051 -0.772772789
vn 0.569329441 0.38888368 -0.724315882
vn 0.979067683 -0.122593693 -0.162472084
vn 0.785159349 -0.561758459 -0.260676324
vn 0.644486487 -0.522175252 -0.558542907
vn 0.741611302 0.0402744338 -0.669619799
vn 0.587668121 0.500264406 -0.635910153
vn 0.955525041 -0.290922165 -0.0483350344
vn 0.742357671 -0.62659657 -0.237238139
vn 0.77890265 -0.3441405 -0.524288058
vn 0.814523399 0.23680456 -0.52959913
vn 0.591055155 0.539360583 -0.599786699
vn 0.888261199 -0.456686229 0.0492928736
vn 0.760210097 -0.602629662 -0.242730707
vn 0.892445147 -0.155033112 -0.423681885
vn 0.823087215 0.404492974 -0.398638725
vn 0.619678497 0.503919721 -0.601717174
vn 0.811437011 -0.576479316 0.0961339399
vn 0.847781897 -0.485248357 -0.214008838
vn 0.960725904 0.0529475622 -0.272400796
vn 0.796419322 0.512224674 -0.321468741
vn 0.695654094 0.477067649 -0.537095726
vn 0.777511537 -0.620553434 0.101927489
vn 0.933362424 -0.335134834 -0.128526703
vn 0.9591977 0.259166032 -0.113015726
vn 0.783007443 0.544975102 -0.299835622
vn 0.883951724 0.3795349 -0.273098111
vn 0.811162293 -0.572349727 0.120131105
vn 0.989983439 -0.140235737 0.0163266752
vn 0.904432833 0.426608324 -0.0025802264
vn 0.795830309 0.543274343 -0.267408013
vn 0.962010801 0.269553214 -0.0433157794
vn 0.859584332 -0.478330255 0.17976369
vn 0.979064047 0.0817951337 0.18639484
vn 0.847458065 0.529375553 0.0397043154
vn 0.854180336 0.518865764 -0.0339723825
vn 0.955199301 0.21671851 0.201562524
vn 0.898641586 -0.319198847 0.300924063
vn 0.901661694 0.29259941 0.318420589
vn 0.812915802 0.580925465 0.0411532559
vn 0.889792323 0.422024578 0.173680454
vn 0.840104997 0.314354211 0.442046434
vn 0.880017161 -0.105983369 0.462965727
vn 0.805048347 0.458866119 0.375950694
vn 0.769622386 0.610314965 0.18760854
vn 0.84418124 0.333955169 0.419323057
vn 0.531572223 0.614646018 0.582787573
vn 0.686182737 0.359008163 0.632666111
vn 0.364623457 0.582258999 0.726652682
vn 0.76329267 0.538686752 0.35665229
vn 0.724476516 0.588012159 0.359688103
vn 0.681428254 0.45086205 0.576523185
vn 0.157566801 0.578455508 0.800351083
vn 0.489332497 0.427343756 0.760217726
vn 0.638525605 0.659734905 0.396276295
vn 0.267000943 0.504198074 0.821276367
vn 0.486454546 0.547578275 0.680822909
vn 0.595906138 0.617639482 0.513242006
vn 0.0329382941 0.575436592 0.817182839
vn 0.263510883 0.615399718 0.74286288
vn 0.389548779 0.661818504 0.640506029
vn 0.447774827 0.676619768 0.58453685
vn 0.533518076 0.553134918 0.639844
vn -0.204414055 0.631783128 0.747706413
vn 0.0103749475 0.653663814 0.756713986
vn 0.137810916 0.673712075 0.72603035
vn 0.188652694 0.662960172 0.72449559
vn -0.432261884 0.66947794 0.604110062
vn -0.266651571 0.661969185 0.700495362
vn -0.16168274 0.651953816 0.740820467
vn -0.621026039 0.688069999 0.375348479
vn -0.542259037 0.64063406 0.543638706
vn -0.721944511 0.68810457 0.0728585273
vn 0.267689615 0.471882075 0.840041399
vn -0.12564379 0.61393708 0.779291332
vn -0.484371662 0.592176318 0.643980861
vn -0.759621203 0.5926314 0.267887145
vn -0.690736949 0.674994767 -0.259353966
vn -0.847144425 0.523036778 -0.0936949253
vn -0.764498413 0.439082474 -0.471962631
vn -0.770359457 0.492635399 0.404792219
vn -0.465210617 0.519219279 0.716931224
vn -0.931013107 0.36243096 0.0431073084
vn -0.702492714 0.0926152393 -0.705639005
vn -0.532576442 -0.217330843 -0.818003356
vn -0.905402958 0.222952947 -0.361299753
vn -0.807053685 -0.126143008 -0.576846838
vn -0.719073772 -0.42008391 -0.553590596
vn -0.775631666 0.373266637 0.508986592
vn -0.974452794 0.0154634416 -0.224059254
vn -0.868495226 -0.421372533 -0.261077046
vn -0.86819315 -0.335758328 -0.365386099
vn -0.966262519 0.193386346 0.170113102
vn -0.910620034 -0.41127485 -0.0403000042
vn -0.924320638 -0.236235619 -0.299706817
vn -0.932482481 -0.352796912 0.0775287449
vn -0.87105298 -0.210075274 0.443998963
vn -0.657988727 -0.00595617481 0.753004253
vn -0.928592682 -0.370590925 0.0194463301
vn -0.977377117 -0.0881035551 -0.192280188
vn -0.855708838 -0.421500474 0.300166041
vn -0.958631456 -0.264522731 0.105135597
vn -0.994734645 0.0908095837 -0.0475047044
vn -0.698074162 -0.368625134 0.613846779
vn -0.822623312 -0.457289159 0.337901562
vn -0.355120182 0.193986893 0.914471924
vn -0.965729117 -0.101026587 0.239083678
vn -0.958561897 0.268411577 0.0954690948
vn -0.824788332 -0.409631193 0.389777422
vn -0.455577254 -0.26783064 0.848949969
vn -0.618948102 -0.485577583 0.6173473
vn -0.0381712466 0.351415157 0.935441256
vn -0.917212188 0.0888545588 0.388364136
vn -0.893413067 0.405250311 0.193869114
vn -0.82118547 -0.283617139 0.495192647
vn -0.591637731 -0.506135523 0.62752831
vn -0.162605599 -0.131899297 0.977835357
vn -0.341728419 -0.451926261 0.824005067
vn 0.145505726 0.0276600327 0.988970757
vn -0.823866129 0.263467729 0.501826108
vn -0.862922788 0.442734808 0.243618995
vn -0.767273426 -0.105082244 0.632652581
vn -0.578321338 -0.435143352 0.690068543
vn -0.0242732894 -0.360156417 0.932576001
vn -0.287023395 -0.542180896 0.789719939
vn 0.431417108 0.192100376 0.881462872
vn -0.747110367 0.360491663 0.558454931
vn -0.865906417 0.402037382 0.297610372
vn -0.658241332 0.0854791701 0.747938275
vn -0.526764691 -0.290240735 0.79892379
vn -0.266138196 -0.53734237 0.800270915
vn 0.295022935 -0.221317276 0.929505348
vn 0.0527523346 -0.513355911 0.856552899
vn -0.699085712 0.391111821 0.598590493
vn -0.880014956 0.275506854 0.386871547
vn -0.547860086 0.225123778 0.805709958
vn -0.416356534 -0.107014716 0.902881503
vn -0.224451736 -0.444423765 0.867242157
vn 0.0780461952 -0.577943027 0.812336564
vn 0.386647224 -0.422820449 0.819589436
vn -0.676494837 0.335016161 0.655834556
vn -0.858611465 0.0765312016 0.506882012
vn -0.45588851 0.318487227 0.83110261
vn -0.289019912 0.0531155951 0.955848455
vn -0.127254963 -0.291838169 0.947964489
vn 0.103497922 -0.549224257 0.829241216
vn -0.642171443 0.188622668 0.742992163
vn -0.779912531 -0.15088518 0.607429147
vn -0.397011369 0.335253239 0.854392886
vn -0.165486425 0.193321556 0.967078567
vn -0.00162475347 -0.134591758 0.990899801
vn -0.561908662 -0.0230500009 0.826878011
vn -0.68755728 -0.339148611 0.642061532
vn -0.348645568 0.257007241 0.901328862
vn -0.0753992498 0.276258796 0.958121121
vn -0.457026631 -0.23656109 0.857417881
vn -0.645023286 -0.436852813 0.626980543
vn -0.273005247 0.0880937502 0.957970679
vn -0.392911822 -0.379319161 0.837697685
vn -0.65791285 -0.435789317 0.614197314
vn 0.174491793 -0.445909828 0.877904892
vn 0.137260109 0.0313524082 0.990038753
vn -0.0132147642 0.271757066 0.962275207
vn -0.168562308 -0.127152815 0.977455378
vn -0.391128093 -0.42036739 0.818724692
vn -0.686281502 -0.361768812 0.630984187
vn 0.279906034 -0.315497398 0.906705022
vn 0.249479502 0.165877968 0.95406729
vn 0.0548660345 0.165540174 0.984675586
vn -0.0897001326 -0.306742102 0.947556436
vn -0.413515061 -0.373273879 0.8304649
vn -0.69412744 -0.273947716 0.665687382
vn 0.416213244 -0.147719815 0.897187471
vn 0.323213398 0.23074159 0.917764425
vn 0.14670442 -0.022964403 0.988913834
vn -0.0733935162 -0.389681935 0.918020308
vn -0.419510752 -0.282345504 0.86272347
vn -0.69690299 -0.133367851 0.704655349
vn -0.413965821 -0.129369691 0.901052594
vn -0.0894876644 -0.373183012 0.923431814
vn -0.0937420577 -0.28907308 0.952706218
vn -0.0805238113 -0.127605081 0.988550961
vn 0.227802113 -0.223105684 0.947802782
vn 0.382704824 0.197100401 0.902600944
vn 0.254749089 -0.34674713 0.90270108
vn 0.242662579 -0.293662906 0.924595594
vn 0.262866884 -0.127980039 0.956306517
vn 0.245018631 -0.363298148 0.898877203
vn 0.454941928 0.0604018979 0.888470292
vn 0.547947109 -0.296896785 0.782052517
vn 0.574382007 -0.130446449 0.808126867
vn 0.525354922 -0.135150492 0.840081215
vn 0.553998172 -0.293516129 0.779059827
vn 0.548187673 -0.346103549 0.761382043
vn 0.783824384 -0.300176084 0.543611526
vn 0.783598065 -0.323160499 0.530604661
vn 0.925693214 -0.294976473 0.236814126
vn 0.792111635 -0.232148215 0.564505339
vn 0.771272063 -0.0543758944 0.634178638
vn 0.993240476 -0.109629512 -0.0381411165
vn 0.944484353 -0.167611226 0.282587469
vn 0.999279082 0.0316510275 0.0209680591
vn 0.936590135 0.00506450143 0.350390196
vn 0.994265735 0.0737113133 0.0774751678
vn 0.719780743 0.108567856 0.68565917
vn 0.907792211 0.113145232 0.403870493
vn 0.988039553 0.00599799724 0.154084027
vn 0.669888794 0.177948415 0.720821261
vn 0.880486965 0.111000232 0.46089232
vn 0.955957234 -0.138711482 0.25865975
vn 0.619410336 0.139759094 0.772527218
vn 0.839206278 0.011099563 0.543699861
vn 0.878396153 -0.313255161 0.360958844
vn 0.538527369 0.0181403104 0.842412651
vn 0.756934822 -0.148391157 0.636419535
vn 0.774938524 -0.47089234 0.42158103
vn 0.637639463 -0.321947724 0.699832499
vn 0.694579482 -0.573844492 0.433891445
vn 0.521704972 -0.467954248 0.713332117
vn 0.673842072 -0.595165789 0.437852263
vn 0.452686638 -0.551258028 0.700849116
vn 0.680378318 -0.567404985 0.463828504
vn 0.417718083 -0.59193778 0.689290345
vn 0.698090494 -0.462152928 0.546885967
vn 0.41295433 -0.551922798 0.724465251
vn 0.674144268 -0.281354547 0.682912171
vn 0.78808558 0.12625064 0.602479875
vn 0.577227592 -0.0516001619 0.81495136
vn 0.66057831 0.341835529 0.66841954
g tornado_0
f 3/3/3 2/2/2 1/1/1
f 2/2/2 4/4/4 1/1/1
f 1/1/1 4/4/4 5/5/5
f 2/2/2 6/6/6 4/4/4
f 4/4/4 7/7/7 5/5/5
f 5/5/5 7/7/7 8/8/8
f 6/6/6 9/9/9 4/4/4
f 4/4/4 9/9/9 7/7/7
f 6/6/6 10/10/10 9/9/9
f 7/7/7 11/11/11 8/8/8
f 8/8/8 11/11/11 12/12/12
f 10/10/10 13/13/13 9/9/9
f 10/10/10 14/14/14 13/13/13
f 9/9/9 15/15/15 7/7/7
f 7/7/7 15/15/15 11/11/11
f 9/9/9 13/13/13 15/15/15
f 11/11/11 16/16/16 12/12/12
f 12/12/12 16/16/16 17/17/17
f 14/14/14 18/18/18 13/13/13
f 14/14/14 19/19/19 18/18/18
f 13/13/13 20/20/20 15/15/15
f 13/13/13 18/18/18 20/20/20
f 15/15/15 21/21/21 11/11/11
f 11/11/11 21/21/21 16/16/16
f 15/15/15 20/20/20 21/21/21
f 16/16/16 22/22/22 17/17/17
f 17/17/17 22/22/22 23/23/23
f 19/19/19 24/24/24 18/18/18
f 19/19/19 25/25/25 24/24/24
f 21/21/21 26/26/26 16/16/16
f 16/16/16 26/26/26 22/22/22
f 18/18/18 27/27/27 20/20/20
f 18/18/18 24/24/24 27/27/27
f 20/20/20 28/28/28 21/21/21
f 21/21/21 28/28/28 26/26/26
f 20/20/20 27/27/27 28/28/28
f 22/22/22 29/29/29 23/23/23
f 23/23/23 29/29/29 30/30/30
f 25/25/25 31/31/31 24/24/24
f 25/25/25 32/32/32 31/31/31
f 26/26/26 33/33/33 22/22/22
f 22/22/22 33/33/33 29/29/29
f 28/28/28 34/34/34 26/26/26
f 26/26/26 34/34/34 33/33/33
f 27/27/27 35/35/35 28/28/28
f 28/28/28 35/35/35 34/34/34
f 24/24/24 36/36/36 27/27/27
f 24/24/24 31/31/31 36/36/36
f 27/27/27 36/36/36 35/35/35
f 29/29/29 37/37/37 30/30/30
f 30/30/30 37/37/37 38/38/38
f 32/32/32 39/39/39 31/31/31
f 32/32/32 40/40/40 39/39/39
f 33/33/33 41/41/41 29/29/29
f 29/29/29 41/41/41 37/37/37
f 34/34/34 42/42/42 33/33/33
f 33/33/33 42/42/42 41/41/41
f 35/35/35 43/43/43 34/34/34
f 34/34/34 43/43/43 42/42/42
f 31/31/31 44/44/44 36/36/36
f 31/31/31 39/39/39 44/44/44
f 36/36/36 45/45/45 35/35/35
f 35/35/35 45/45/45 43/43/43
f 36/36/36 44/44/44 45/45/45
f 40/40/40 46/46/46 39/39/39
f 40/40/40 47/47/47 46/46/46
f 39/39/39 48/48/48 44/44/44
f 39/39/39 46/46/46 48/48/48
f 44/44/44 49/49/49 45/45/45
f 44/44/44 48/48/48 49/49/49
f 45/45/45 50/50/50 43/43/43
f 45/45/45 49/49/49 50/50/50
f 43/43/43 51/51/51 42/42/42
f 43/43/43 50/50/50 51/51/51
f 47/47/47 52/52/52 46/46/46
f 47/47/47 53/53/53 52/52/52
f 46/46/46 54/54/54 48/48/48
f 46/46/46 52/52/52 54/54/54
f 48/48/48 55/55/55 49/49/49
f 48/48/48 54/54/54 55/55/55
f 49/49/49 56/56/56 50/50/50
f 49/49/49 55/55/55 56/56/56
f 53/53/53 57/57/57 52/52/52
f 53/53/53 58/58/58 57/57/57
f 52/52/52 59/59/59 54/54/54
f 52/52/52 57/57/57 59/59/59
f 54/54/54 60/60/60 55/55/55
f 54/54/54 59/59/59 60/60/60
f 58/58/58 61/61/61 57/57/57
f 58/58/58 62/62/62 61/61/61
f 57/57/57 63/63/63 59/59/59
f 57/57/57 61/61/61 63/63/63
f 62/62/62 64/64/64 61/61/61
f 62/62/62 65/65/65 64/64/64
f 50/50/50 56/56/56 66/66/66
f 50/50/50 66/66/66 51/51/51
f 55/55/55 67/67/67 56/56/56
f 55/55/55 60/60/60 67/67/67
f 59/59/59 68/68/68 60/60/60
f 59/59/59 63/63/63 68/68/68
f 61/61/61 69/69/69 63/63/63
f 61/61/61 64/64/64 69/69/69
f 65/65/65 70/70/70 64/64/64
f 65/65/65 71/71/71 70/70/70
f 56/56/56 72/72/72 66/66/66
f 56/56/56 67/67/67 72/72/72
f 60/60/60 73/73/73 67/67/67
f 60/60/60 68/68/68 73/73/73
f 63/63/63 74/74/74 68/68/68
f 63/63/63 69/69/69 74/74/74
f 64/64/64 75/75/75 69/69/69
f 64/64/64 70/70/70 75/75/75
f 71/71/71 76/76/76 70/70/70
f 71/71/71 77/77/77 76/76/76
f 67/67/67 78/78/78 72/72/72
f 67/67/67 73/73/73 78/78/78
f 68/68/68 79/79/79 73/73/73
f 68/68/68 74/74/74 79/79/79
f 69/69/69 80/80/80 74/74/74
f 69/69/69 75/75/75 80/80/80
f 70/70/70 81/81/81 75/75/75
f 70/70/70 76/76/76 81/81/81
f 77/77/77 82/82/82 76/76/76
f 77/77/77 83/83/83 82/82/82
f 73/73/73 84/84/84 78/78/78
f 73/73/73 79/79/79 84/84/84
f 74/74/74 85/85/85 79/79/79
f 74/74/74 80/80/80 85/85/85
f 75/75/75 86/86/86 80/80/80
f 75/75/75 81/81/81 86/86/86
f 76/76/76 87/87/87 81/81/81
f 76/76/76 82/82/82 87/87/87
f 83/83/83 88/88/88 82/82/82
f 83/83/83 89/89/89 88/88/88
f 79/79/79 90/90/90 84/84/84
f 79/79/79 85/85/85 90/90/90
f 80/80/80 91/91/91 85/85/85
f 80/80/80 86/86/86 91/91/91
f 81/81/81 92/92/92 86/86/86
f 81/81/81 87/87/87 92/92/92
f 82/82/82 93/93/93 87/87/87
f 82/82/82 88/88/88 93/93/93
f 89/89/89 94/94/94 88/88/88
f 89/89/89 95/95/95 94/94/94
f 95/95/95 96/96/96 94/94/94
f 88/88/88 94/94/94 97/97/97
f 88/88/88 97/97/97 93/93/93
f 94/94/94 96/96/96 98/98/98
f 94/94/94 98/98/98 97/97/97
f 96/96/96 99/99/99 98/98/98
f 87/87/87 93/93/93 100/100/100
f 87/87/87 100/100/100 92/92/92
f 86/86/86 92/92/92 101/101/101
f 86/86/86 101/101/101 91/91/91
f 93/93/93 97/97/97 102/102/102
f 93/93/93 102/102/102 100/100/100
f 97/97/97 98/98/98 103/103/103
f 97/97/97 103/103/103 102/102/102
f 98/98/98 99/99/99 104/104/104
f 98/98/98 104/104/104 103/103/103
f 99/99/99 105/105/105 104/104/104
f 92/92/92 100/100/100 106/106/106
f 92/92/92 106/106/106 101/101/101
f 100/100/100 102/102/102 107/107/107
f 100/100/100 107/107/107 106/106/106
f 102/102/102 103/103/103 108/108/108
f 102/102/102 108/108/108 107/107/107
f 103/103/103 104/104/104 109/109/109
f 103/103/103 109/109/109 108/108/108
f 104/104/104 105/105/105 110/110/110
f 104/104/104 110/110/110 109/109/109
f 105/105/105 111/111/111 110/110/110
f 110/110/110 111/111/111 112/112/112
f 111/111/111 113/113/113 112/112/112
f 109/109/109 110/110/110 114/114/114
f 110/110/110 112/112/112 114/114/114
f 108/108/108 109/109/109 115/115/115
f 109/109/109 114/114/114 115/115/115
f 107/107/107 108/108/108 116/116/116
f 108/108/108 115/115/115 116/116/116
f 106/106/106 107/107/107 117/117/117
f 107/107/107 116/116/116 117/117/117
f 112/112/112 113/113/113 118/118/118
f 113/113/113 119/119/119 118/118/118
f 114/114/114 112/112/112 120/120/120
f 112/112/112 118/118/118 120/120/120
f 115/115/115 114/114/114 121/121/121
f 114/114/114 120/120/120 121/121/121
f 116/116/116 115/115/115 122/122/122
f 115/115/115 121/121/121 122/122/122
f 118/118/118 119/119/119 123/123/123
f 119/119/119 124/124/124 123/123/123
f 120/120/120 118/118/118 125/125/125
f 118/118/118 123/123/123 125/125/125
f 121/121/121 120/120/120 126/126/126
f 120/120/120 125/125/125 126/126/126
f 123/123/123 124/124/124 127/127/127
f 124/124/124 128/128/128 127/127/127
f 125/125/125 123/123/123 129/129/129
f 123/123/123 127/127/127 129/129/129
f 127/127/127 128/128/128 130/130/130
f 128/128/128 131/131/131 130/130/130
f 116/116/116 122/122/122 132/132/132
f 117/117/117 116/116/116 132/132/132
f 122/122/122 121/121/121 133/133/133
f 121/121/121 126/126/126 133/133/133
f 126/126/126 125/125/125 134/134/134
f 125/125/125 129/129/129 134/134/134
f 129/129/129 127/127/127 135/135/135
f 127/127/127 130/130/130 135/135/135
f 130/130/130 131/131/131 136/136/136
f 131/131/131 137/137/137 136/136/136
f 132/132/132 122/122/122 138/138/138
f 122/122/122 133/133/133 138/138/138
f 133/133/133 126/126/126 139/139/139
f 126/126/126 134/134/134 139/139/139
f 134/134/134 129/129/129 140/140/140
f 129/129/129 135/135/135 140/140/140
f 135/135/135 130/130/130 141/141/141
f 130/130/130 136/136/136 141/141/141
f 136/136/136 137/137/137 142/142/142
f 137/137/137 143/143/143 142/142/142
f 138/138/138 133/133/133 144/144/144
f 133/133/133 139/139/139 144/144/144
f 139/139/139 134/134/134 145/145/145
f 134/134/134 140/140/140 145/145/145
f 140/140/140 135/135/135 146/146/146
f 135/135/135 141/141/141 146/146/146
f 141/141/141 136/136/136 147/147/147
f 136/136/136 142/142/142 147/147/147
f 142/142/142 143/143/143 148/148/148
f 143/143/143 149/149/149 148/148/148
f 144/144/144 139/139/139 150/150/150
f 139/139/139 145/145/145 150/150/150
f 145/145/145 140/140/140 151/151/151
f 140/140/140 146/146/146 151/151/151
f 146/146/146 141/141/141 152/152/152
f 141/141/141 147/147/147 152/152/152
f 147/147/147 142/142/142 153/153/153
f 142/142/142 148/148/148 153/153/153
f 148/148/148 149/149/149 154/154/154
f 149/149/149 155/155/155 154/154/154
f 150/150/150 145/145/145 156/156/156
f 145/145/145 151/151/151 156/156/156
f 151/151/151 146/146/146 157/157/157
f 146/146/146 152/152/152 157/157/157
f 152/152/152 147/147/147 158/158/158
f 147/147/147 153/153/153 158/158/158
f 153/153/153 148/148/148 159/159/159
f 148/148/148 154/154/154 159/159/159
f 154/154/154 155/155/155 160/160/160
f 155/155/155 161/161/161 160/160/160
f 156/156/156 151/151/151 162/162/162
f 151/151/151 157/157/157 162/162/162
f 157/157/157 152/152/152 163/163/163
f 152/152/152 158/158/158 163/163/163
f 158/158/158 153/153/153 164/164/164
f 153/153/153 159/159/159 164/164/164
f 159/159/159 154/154/154 165/165/165
f 154/154/154 160/160/160 165/165/165
f 160/160/160 161/161/161 166/166/166
f 161/161/161 167/167/167 166/166/166
f 162/162/162 157/157/157 168/168/168
f 157/157/157 163/163/163 168/168/168
f 163/163/163 158/158/158 169/169/169
f 158/158/158 164/164/164 169/169/169
f 164/164/164 159/159/159 170/170/170
f 159/159/159 165/165/165 170/170/170
f 165/165/165 160/160/160 171/171/171
f 160/160/160 166/166/166 171/171/171
f 166/166/166 167/167/167 172/172/172
f 167/167/167 173/173/173 172/172/172
f 168/168/168 163/163/163 174/174/174
f 163/163/163 169/169/169 174/174/174
f 169/169/169 164/164/164 175/175/175
f 164/164/164 170/170/170 175/175/175
f 170/170/170 165/165/165 176/176/176
f 165/165/165 171/171/171 176/176/176
f 171/171/171 166/166/166 177/177/177
f 166/166/166 172/172/172 177/177/177
f 172/172/172 173/173/173 178/178/178
f 173/173/173 179/179/179 178/178/178
f 174/174/174 169/169/169 180/180/180
f 169/169/169 175/175/175 180/180/180
f 175/175/175 170/170/170 181/181/181
f 170/170/170 176/176/176 181/181/181
f 176/176/176 171/171/171 182/182/182
f 171/171/171 177/177/177 182/182/182
f 177/177/177 172/172/172 183/183/183
f 172/172/172 178/178/178 183/183/183
f 178/178/178 179/179/179 184/184/184
f 179/179/179 185/185/185 184/184/184
f 180/180/180 175/175/175 186/186/186
f 175/175/175 181/181/181 186/186/186
f 181/181/181 176/176/176 187/187/187
f 176/176/176 182/182/182 187/187/187
f 182/182/182 177/177/177 188/188/188
f 177/177/177 183/183/183 188/188/188
f 183/183/183 178/178/178 189/189/189
f 178/178/178 184/184/184 189/189/189
f 184/184/184 185/185/185 190/190/190
f 185/185/185 191/191/191 190/190/190
f 186/186/186 181/181/181 192/192/192
f 181/181/181 187/187/187 192/192/192
f 187/187/187 182/182/182 193/193/193
f 182/182/182 188/188/188 193/193/193
f 188/188/188 183/183/183 194/194/194
f 183/183/183 189/189/189 194/194/194
f 189/189/189 184/184/184 195/195/195
f 184/184/184 190/190/190 195/195/195
f 190/190/190 191/191/191 196/196/196
f 191/191/191 197/197/197 196/196/196
f 192/192/192 187/187/187 198/198/198
f 187/187/187 193/193/193 198/198/198
f 193/193/193 188/188/188 199/199/199
f 188/188/188 194/194/194 199/199/199
f 194/194/194 189/189/189 200/200/200
f 189/189/189 195/195/195 200/200/200
f 195/195/195 190/190/190 201/201/201
f 190/190/190 196/196/196 201/201/201
f 196/196/196 197/197/197 202/202/202
f 197/197/197 203/203/203 202/202/202
f 198/198/198 193/193/193 204/204/204
f 193/193/193 199/199/199 204/204/204
f 199/199/199 194/194/194 205/205/205
f 194/194/194 200/200/200 205/205/205
f 200/200/200 195/195/195 206/206/206
f 195/195/195 201/201/201 206/206/206
f 201/201/201 196/196/196 207/207/207
f 196/196/196 202/202/202 207/207/207
f 202/202/202 203/203/203 208/208/208
f 203/203/203 209/209/209 208/208/208
f 204/204/204 199/199/199 210/210/210
f 199/199/199 205/205/205 210/210/210
f 205/205/205 200/200/200 211/211/211
f 200/200/200 206/206/206 211/211/211
f 206/206/206 201/201/201 212/212/212
f 201/201/201 207/207/207 212/212/212
f 207/207/207 202/202/202 213/213/213
f 202/202/202 208/208/208 213/213/213
f 208/208/208 209/209/209 214/214/214
f 209/209/209 215/215/215 214/214/214
f 210/210/210 205/205/205 216/216/216
f 205/205/205 211/211/211 216/216/216
f 211/211/211 206/206/206 217/217/217
f 206/206/206 212/212/212 217/217/217
f 212/212/212 207/207/207 218/218/218
f 207/207/207 213/213/213 218/218/218
f 213/213/213 208/208/208 219/219/219
f 208/208/208 214/214/214 219/219/219
f 214/214/214 215/215/215 220/220/220
f 215/215/215 221/221/221 220/220/220
f 216/216/216 211/211/211 222/222/222
f 211/211/211 217/217/217 222/222/222
f 217/217/217 212/212/212 223/223/223
f 212/212/212 218/218/218 223/223/223
f 218/218/218 213/213/213 224/224/224
f 213/213/213 219/219/219 224/224/224
f 219/219/219 214/214/214 225/225/225
f 214/214/214 220/220/220 225/225/225
f 220/220/220 221/221/221 226/226/226
f 221/221/221 227/227/227 226/226/226
f 222/222/222 217/217/217 228/228/228
f 217/217/217 223/223/223 228/228/228
f 223/223/223 218/218/218 229/229/229
f 218/218/218 224/224/224 229/229/229
f 224/224/224 219/219/219 230/230/230
f 219/219/219 225/225/225 230/230/230
f 225/225/225 220/220/220 231/231/231
f 220/220/220 226/226/226 231/231/231
f 226/226/226 227/227/227 232/232/232
f 227/227/227 233/233/233 232/232/232
f 232/232/232 233/233/233 234/234/234
f 233/233/233 235/235/235 234/234/234
f 232/232/232 234/234/234 236/236/236
f 226/226/226 232/232/232 237/237/237
f 237/237/237 232/232/232 236/236/236
f 231/231/231 226/226/226 237/237/237
f 237/237/237 236/236/236 238/238/238
f 239/239/239 237/237/237 238/238/238
f 231/231/231 237/237/237 239/239/239
f 239/239/239 238/238/238 240/240/240
f 225/225/225 231/231/231 241/241/241
f 241/241/241 231/231/231 239/239/239
f 230/230/230 225/225/225 241/241/241
f 242/242/242 239/239/239 240/240/240
f 241/241/241 239/239/239 242/242/242
f 242/242/242 240/240/240 243/243/243
f 230/230/230 241/241/241 244/244/244
f 244/244/244 241/241/241 242/242/242
f 245/245/245 242/242/242 243/243/243
f 244/244/244 242/242/242 245/245/245
f 245/245/245 243/243/243 246/246/246
f 247/247/247 230/230/230 244/244/244
f 224/224/224 230/230/230 247/247/247
f 229/229/229 224/224/224 247/247/247
f 248/248/248 245/245/245 246/246/246
f 248/248/248 246/246/246 249/249/249
f 250/250/250 244/244/244 245/245/245
f 247/247/247 244/244/244 250/250/250
f 250/250/250 245/245/245 248/248/248
f 229/229/229 247/247/247 251/251/251
f 251/251/251 247/247/247 250/250/250
f 252/252/252 248/248/248 249/249/249
f 252/252/252 249/249/249 253/253/253
f 254/254/254 250/250/250 248/248/248
f 251/251/251 250/250/250 254/254/254
f 254/254/254 248/248/248 252/252/252
f 255/255/255 229/229/229 251/251/251
f 223/223/223 229/229/229 255/255/255
f 228/228/228 223/223/223 255/255/255
f 256/256/256 252/252/252 253/253/253
f 256/256/256 253/253/253 257/257/257
f 258/258/258 251/251/251 254/254/254
f 255/255/255 251/251/251 258/258/258
f 259/259/259 254/254/254 252/252/252
f 259/259/259 252/252/252 256/256/256
f 258/258/258 254/254/254 259/259/259
f 228/228/228 255/255/255 260/260/260
f 260/260/260 255/255/255 258/258/258
f 261/261/261 256/256/256 257/257/257
f 261/261/261 257/257/257 262/262/262
f 263/263/263 258/258/258 259/259/259
f 260/260/260 258/258/258 263/263/263
f 264/264/264 259/259/259 256/256/256
f 264/264/264 256/256/256 261/261/261
f 263/263/263 259/259/259 264/264/264
f 265/265/265 228/228/228 260/260/260
f 222/222/222 228/228/228 265/265/265
f 266/266/266 261/261/261 262/262/262
f 266/266/266 262/262/262 267/267/267
f 268/268/268 264/264/264 261/261/261
f 268/268/268 261/261/261 266/266/266
f 269/269/269 260/260/260 263/263/263
f 265/265/265 260/260/260 269/269/269
f 270/270/270 263/263/263 264/264/264
f 270/270/270 264/264/264 268/268/268
f 269/269/269 263/263/263 270/270/270
f 271/271/271 222/222/222 265/265/265
f 216/216/216 222/222/222 271/271/271
f 272/272/272 266/266/266 267/267/267
f 272/272/272 267/267/267 273/273/273
f 274/274/274 268/268/268 266/266/266
f 274/274/274 266/266/266 272/272/272
f 275/275/275 270/270/270 268/268/268
f 275/275/275 268/268/268 274/274/274
f 276/276/276 265/265/265 269/269/269
f 271/271/271 265/265/265 276/276/276
f 277/277/277 269/269/269 270/270/270
f 277/277/277 270/270/270 275/275/275
f 276/276/276 269/269/269 277/277/277
f 278/278/278 216/216/216 271/271/271
f 210/210/210 216/216/216 278/278/278
f 279/279/279 272/272/272 273/273/273
f 279/279/279 273/273/273 280/280/280
f 281/281/281 274/274/274 272/272/272
f 281/281/281 272/272/272 279/279/279
f 282/282/282 275/275/275 274/274/274
f 282/282/282 274/274/274 281/281/281
f 283/283/283 277/277/277 275/275/275
f 283/283/283 275/275/275 282/282/282
f 284/284/284 271/271/271 276/276/276
f 278/278/278 271/271/271 284/284/284
f 285/285/285 276/276/276 277/277/277
f 285/285/285 277/277/277 283/283/283
f 284/284/284 276/276/276 285/285/285
f 286/286/286 210/210/210 278/278/278
f 204/204/204 210/210/210 286/286/286
f 287/287/287 278/278/278 284/284/284
f 286/286/286 278/278/278 287/287/287
f 288/288/288 284/284/284 285/285/285
f 287/287/287 284/284/284 288/288/288
f 289/289/289 285/285/285 283/283/283
f 288/288/288 285/285/285 289/289/289
f 290/290/290 283/283/283 282/282/282
f 289/289/289 283/283/283 290/290/290
f 291/291/291 204/204/204 286/286/286
f 198/198/198 204/204/204 291/291/291
f 292/292/292 286/286/286 287/287/287
f 291/291/291 286/286/286 292/292/292
f 293/293/293 287/287/287 288/288/288
f 292/292/292 287/287/287 293/293/293
f 294/294/294 288/288/288 289/289/289
f 293/293/293 288/288/288 294/294/294
f 295/295/295 198/198/198 291/291/291
f 192/192/192 198/198/198 295/295/295
f 296/296/296 291/291/291 292/292/292
f 295/295/295 291/291/291 296/296/296
f 297/297/297 292/292/292 293/293/293
f 296/296/296 292/292/292 297/297/297
f 298/298/298 192/192/192 295/295/295
f 186/186/186 192/192/192 298/298/298
f 299/299/299 295/295/295 296/296/296
f 298/298/298 295/295/295 299/299/299
f 300/300/300 186/186/186 298/298/298
f 180/180/180 186/186/186 300/300/300
f 294/294/294 289/289/289 301/301/301
f 301/301/301 289/289/289 290/290/290
f 302/302/302 293/293/293 294/294/294
f 297/297/297 293/293/293 302/302/302
f 303/303/303 296/296/296 297/297/297
f 299/299/299 296/296/296 303/303/303
f 304/304/304 298/298/298 299/299/299
f 300/300/300 298/298/298 304/304/304
f 305/305/305 180/180/180 300/300/300
f 174/174/174 180/180/180 305/305/305
f 306/306/306 294/294/294 301/301/301
f 302/302/302 294/294/294 306/306/306
f 307/307/307 297/297/297 302/302/302
f 303/303/303 297/297/297 307/307/307
f 308/308/308 299/299/299 303/303/303
f 304/304/304 299/299/299 308/308/308
f 309/309/309 300/300/300 304/304/304
f 305/305/305 300/300/300 309/309/309
f 310/310/310 174/174/174 305/305/305
f 168/168/168 174/174/174 310/310/310
f 311/311/311 302/302/302 306/306/306
f 307/307/307 302/302/302 311/311/311
f 312/312/312 303/303/303 307/307/307
f 308/308/308 303/303/303 312/312/312
f 313/313/313 304/304/304 308/308/308
f 309/309/309 304/304/304 313/313/313
f 314/314/314 305/305/305 309/309/309
f 310/310/310 305/305/305 314/314/314
f 315/315/315 168/168/168 310/310/310
f 162/162/162 168/168/168 315/315/315
f 316/316/316 307/307/307 311/311/311
f 312/312/312 307/307/307 316/316/316
f 317/317/317 308/308/308 312/312/312
f 313/313/313 308/308/308 317/317/317
f 318/318/318 309/309/309 313/313/313
f 314/314/314 309/309/309 318/318/318
f 319/319/319 310/310/310 314/314/314
f 315/315/315 310/310/310 319/319/319
f 320/320/320 162/162/162 315/315/315
f 156/156/156 162/162/162 320/320/320
f 321/321/321 312/312/312 316/316/316
f 317/317/317 312/312/312 321/321/321
f 322/322/322 313/313/313 317/317/317
f 318/318/318 313/313/313 322/322/322
f 323/323/323 314/314/314 318/318/318
f 319/319/319 314/314/314 323/323/323
f 324/324/324 315/315/315 319/319/319
f 320/320/320 315/315/315 324/324/324
f 325/325/325 156/156/156 320/320/320
f 150/150/150 156/156/156 325/325/325
f 326/326/326 317/317/317 321/321/321
f 322/322/322 317/317/317 326/326/326
f 327/327/327 318/318/318 322/322/322
f 323/323/323 318/318/318 327/327/327
f 328/328/328 319/319/319 323/323/323
f 324/324/324 319/319/319 328/328/328
f 329/329/329 320/320/320 324/324/324
f 325/325/325 320/320/320 329/329/329
f 330/330/330 150/150/150 325/325/325
f 144/144/144 150/150/150 330/330/330
f 331/331/331 322/322/322 326/326/326
f 327/327/327 322/322/322 331/331/331
f 332/332/332 323/323/323 327/327/327
f 328/328/328 323/323/323 332/332/332
f 333/333/333 324/324/324 328/328/328
f 329/329/329 324/324/324 333/333/333
f 334/334/334 325/325/325 329/329/329
f 330/330/330 325/325/325 334/334/334
f 335/335/335 144/144/144 330/330/330
f 138/138/138 144/144/144 335/335/335
f 336/336/336 327/327/327 331/331/331
f 332/332/332 327/327/327 336/336/336
f 337/337/337 328/328/328 332/332/332
f 333/333/333 328/328/328 337/337/337
f 338/338/338 329/329/329 333/333/333
f 334/334/334 329/329/329 338/338/338
f 339/339/339 330/330/330 334/334/334
f 335/335/335 330/330/330 339/339/339
f 340/340/340 138/138/138 335/335/335
f 132/132/132 138/138/138 340/340/340
f 341/341/341 332/332/332 336/336/336
f 337/337/337 332/332/332 341/341/341
f 342/342/342 333/333/333 337/337/337
f 338/338/338 333/333/333 342/342/342
f 343/343/343 334/334/334 338/338/338
f 339/339/339 334/334/334 343/343/343
f 344/344/344 335/335/335 339/339/339
f 340/340/340 335/335/335 344/344/344
f 345/345/345 132/132/132 340/340/340
f 117/117/117 132/132/132 345/345/345
f 346/346/346 337/337/337 341/341/341
f 342/342/342 337/337/337 346/346/346
f 347/347/347 338/338/338 342/342/342
f 343/343/343 338/338/338 347/347/347
f 348/348/348 339/339/339 343/343/343
f 344/344/344 339/339/339 348/348/348
f 349/349/349 340/340/340 344/344/344
f 345/345/345 340/340/340 349/349/349
f 350/350/350 117/117/117 345/345/345
f 106/106/106 117/117/117 350/350/350
f 101/101/101 106/106/106 350/350/350
f 350/350/350 345/345/345 351/351/351
f 351/351/351 345/345/345 349/349/349
f 101/101/101 350/350/350 352/352/352
f 352/352/352 350/350/350 351/351/351
f 91/91/91 101/101/101 352/352/352
f 349/349/349 344/344/344 353/353/353
f 353/353/353 344/344/344 348/348/348
f 348/348/348 343/343/343 354/354/354
f 354/354/354 343/343/343 347/347/347
f 351/351/351 349/349/349 355/355/355
f 355/355/355 349/349/349 353/353/353
f 91/91/91 352/352/352 356/356/356
f 85/85/85 91/91/91 356/356/356
f 85/85/85 356/356/356 90/90/90
f 352/352/352 351/351/351 357/357/357
f 356/356/356 352/352/352 357/357/357
f 357/357/357 351/351/351 355/355/355
f 353/353/353 348/348/348 358/358/358
f 358/358/358 348/348/348 354/354/354
f 90/90/90 356/356/356 359/359/359
f 356/356/356 357/357/357 359/359/359
f 357/357/357 355/355/355 360/360/360
f 359/359/359 357/357/357 360/360/360
f 355/355/355 353/353/353 361/361/361
f 361/361/361 353/353/353 358/358/358
f 360/360/360 355/355/355 361/361/361
f 90/90/90 359/359/359 362/362/362
f 84/84/84 90/90/90 362/362/362
f 359/359/359 360/360/360 363/363/363
f 362/362/362 359/359/359 363/363/363
f 360/360/360 361/361/361 364/364/364
f 363/363/363 360/360/360 364/364/364
f 361/361/361 358/358/358 365/365/365
f 364/364/364 361/361/361 365/365/365
f 358/358/358 354/354/354 366/366/366
f 365/365/365 358/358/358 366/366/366
f 84/84/84 362/362/362 367/367/367
f 78/78/78 84/84/84 367/367/367
f 362/362/362 363/363/363 368/368/368
f 367/367/367 362/362/362 368/368/368
f 363/363/363 364/364/364 369/369/369
f 368/368/368 363/363/363 369/369/369
f 364/364/364 365/365/365 370/370/370
f 369/369/369 364/364/364 370/370/370
f 78/78/78 367/367/367 371/371/371
f 72/72/72 78/78/78 371/371/371
f 367/367/367 368/368/368 372/372/372
f 371/371/371 367/367/367 372/372/372
f 368/368/368 369/369/369 373/373/373
f 372/372/372 368/368/368 373/373/373
f 72/72/72 371/371/371 374/374/374
f 66/66/66 72/72/72 374/374/374
f 371/371/371 372/372/372 375/375/375
f 374/374/374 371/371/371 375/375/375
f 66/66/66 374/374/374 376/376/376
f 51/51/51 66/66/66 376/376/376
f 370/370/370 365/365/365 377/377/377
f 365/365/365 366/366/366 377/377/377
f 369/369/369 370/370/370 378/378/378
f 373/373/373 369/369/369 378/378/378
f 372/372/372 373/373/373 379/379/379
f 375/375/375 372/372/372 379/379/379
f 374/374/374 375/375/375 380/380/380
f 376/376/376 374/374/374 380/380/380
f 51/51/51 376/376/376 381/381/381
f 42/42/42 51/51/51 381/381/381
f 42/42/42 381/381/381 41/41/41
f 381/381/381 376/376/376 382/382/382
f 376/376/376 380/380/380 382/382/382
f 41/41/41 381/381/381 383/383/383
f 381/381/381 382/382/382 383/383/383
f 41/41/41 383/383/383 37/37/37
f 380/380/380 375/375/375 384/384/384
f 375/375/375 379/379/379 384/384/384
f 379/379/379 373/373/373 385/385/385
f 373/373/373 378/378/378 385/385/385
f 382/382/382 380/380/380 386/386/386
f 380/380/380 384/384/384 386/386/386
f 37/37/37 383/383/383 387/387/387
f 37/37/37 387/387/387 38/38/38
f 38/38/38 387/387/387 388/388/388
f 383/383/383 382/382/382 389/389/389
f 383/383/383 389/389/389 387/387/387
f 382/382/382 386/386/386 389/389/389
f 387/387/387 390/390/390 388/388/388
f 387/387/387 389/389/389 390/390/390
f 388/388/388 390/390/390 391/391/391
f 384/384/384 379/379/379 392/392/392
f 379/379/379 385/385/385 392/392/392
f 389/389/389 386/386/386 393/393/393
f 389/389/389 393/393/393 390/390/390
f 390/390/390 394/394/394 391/391/391
f 390/390/390 393/393/393 394/394/394
f 391/391/391 394/394/394 395/395/395
f 386/386/386 384/384/384 396/396/396
f 386/386/386 396/396/396 393/393/393
f 384/384/384 392/392/392 396/396/396
f 394/394/394 397/397/397 395/395/395
f 395/395/395 397/397/397 398/398/398
f 393/393/393 399/399/399 394/394/394
f 393/393/393 396/396/396 399/399/399
f 394/394/394 399/399/399 397/397/397
f 396/396/396 392/392/392 400/400/400
f 396/396/396 400/400/400 399/399/399
f 392/392/392 385/385/385 401/401/401
f 392/392/392 401/401/401 400/400/400
f 397/397/397 402/402/402 398/398/398
f 398/398/398 402/402/402 403/403/403
f 399/399/399 404/404/404 397/397/397
f 399/399/399 400/400/400 404/404/404
f 397/397/397 404/404/404 402/402/402
f 402/402/402 405/405/405 403/403/403
f 403/403/403 405/405/405 406/406/406
f 400/400/400 407/407/407 404/404/404
f 400/400/400 401/401/401 407/407/407
f 404/404/404 408/408/408 402/402/402
f 402/402/402 408/408/408 405/405/405
f 404/404/404 407/407/407 408/408/408
f 385/385/385 409/409/409 401/401/401
f 385/385/385 378/378/378 409/409/409
f 405/405/405 410/410/410 406/406/406
f 406/406/406 410/410/410 411/411/411
f 408/408/408 412/412/412 405/405/405
f 405/405/405 412/412/412 410/410/410
f 401/401/401 413/413/413 407/407/407
f 401/401/401 409/409/409 413/413/413
f 407/407/407 414/414/414 408/408/408
f 408/408/408 414/414/414 412/412/412
f 407/407/407 413/413/413 414/414/414
f 378/378/378 415/415/415 409/409/409
f 378/378/378 370/370/370 415/415/415
f 370/370/370 377/377/377 415/415/415
f 410/410/410 416/416/416 411/411/411
f 411/411/411 416/416/416 417/417/417
f 412/412/412 418/418/418 410/410/410
f 410/410/410 418/418/418 416/416/416
f 414/414/414 419/419/419 412/412/412
f 412/412/412 419/419/419 418/418/418
f 409/409/409 420/420/420 413/413/413
f 409/409/409 415/415/415 420/420/420
f 413/413/413 421/421/421 414/414/414
f 414/414/414 421/421/421 419/419/419
f 413/413/413 420/420/420 421/421/421
f 415/415/415 377/377/377 422/422/422
f 415/415/415 422/422/422 420/420/420
f 416/416/416 423/423/423 417/417/417
f 417/417/417 423/423/423 424/424/424
f 418/418/418 425/425/425 416/416/416
f 416/416/416 425/425/425 423/423/423
f 419/419/419 426/426/426 418/418/418
f 418/418/418 426/426/426 425/425/425
f 420/420/420 427/427/427 421/421/421
f 420/420/420 422/422/422 427/427/427
f 421/421/421 428/428/428 419/419/419
f 419/419/419 428/428/428 426/426/426
f 421/421/421 427/427/427 428/428/428
f 377/377/377 429/429/429 422/422/422
f 377/377/377 366/366/366 429/429/429
f 423/423/423 430/430/430 424/424/424
f 424/424/424 430/430/430 431/431/431
f 425/425/425 432/432/432 423/423/423
f 423/423/423 432/432/432 430/430/430
f 426/426/426 433/433/433 425/425/425
f 425/425/425 433/433/433 432/432/432
f 428/428/428 434/434/434 426/426/426
f 426/426/426 434/434/434 433/433/433
f 422/422/422 435/435/435 427/427/427
f 422/422/422 429/429/429 435/435/435
f 427/427/427 436/436/436 428/428/428
f 428/428/428 436/436/436 434/434/434
f 427/427/427 435/435/435 436/436/436
f 430/430/430 437/437/437 431/431/431
f 431/431/431 437/437/437 438/438/438
f 432/432/432 439/439/439 430/430/430
f 430/430/430 439/439/439 437/437/437
f 433/433/433 440/440/440 432/432/432
f 432/432/432 440/440/440 439/439/439
f 434/434/434 441/441/441 433/433/433
f 433/433/433 441/441/441 440/440/440
f 436/436/436 442/442/442 434/434/434
f 434/434/434 442/442/442 441/441/441
f 435/435/435 443/443/443 436/436/436
f 436/436/436 443/443/443 442/442/442
f 437/437/437 444/444/444 438/438/438
f 438/438/438 444/444/444 445/445/445
f 439/439/439 446/446/446 437/437/437
f 437/437/437 446/446/446 444/444/444
f 440/440/440 447/447/447 439/439/439
f 439/439/439 447/447/447 446/446/446
f 441/441/441 448/448/448 440/440/440
f 440/440/440 448/448/448 447/447/447
f 442/442/442 449/449/449 441/441/441
f 441/441/441 449/449/449 448/448/448
f 444/444/444 450/450/450 445/445/445
f 445/445/445 450/450/450 451/451/451
f 446/446/446 452/452/452 444/444/444
f 444/444/444 452/452/452 450/450/450
f 447/447/447 453/453/453 446/446/446
f 446/446/446 453/453/453 452/452/452
f 448/448/448 454/454/454 447/447/447
f 447/447/447 454/454/454 453/453/453
f 450/450/450 455/455/455 451/451/451
f 451/451/451 455/455/455 456/456/456
f 452/452/452 457/457/457 450/450/450
f 450/450/450 457/457/457 455/455/455
f 453/453/453 458/458/458 452/452/452
f 452/452/452 458/458/458 457/457/457
f 455/455/455 459/459/459 456/456/456
f 456/456/456 459/459/459 460/460/460
f 457/457/457 461/461/461 455/455/455
f 455/455/455 461/461/461 459/459/459
f 459/459/459 462/462/462 460/460/460
f 460/460/460 462/462/462 463/463/463
f 448/448/448 464/464/464 454/454/454
f 449/449/449 464/464/464 448/448/448
f 454/454/454 465/465/465 453/453/453
f 453/453/453 465/465/465 458/458/458
f 458/458/458 466/466/466 457/457/457
f 457/457/457 466/466/466 461/461/461
f 461/461/461 467/467/467 459/459/459
f 459/459/459 467/467/467 462/462/462
f 462/462/462 468/468/468 463/463/463
f 463/463/463 468/468/468 469/469/469
f 464/464/464 470/470/470 454/454/454
f 454/454/454 470/470/470 465/465/465
f 465/465/465 471/471/471 458/458/458
f 458/458/458 471/471/471 466/466/466
f 466/466/466 472/472/472 461/461/461
f 461/461/461 472/472/472 467/467/467
f 467/467/467 473/473/473 462/462/462
f 462/462/462 473/473/473 468/468/468
f 468/468/468 474/474/474 469/469/469
f 469/469/469 474/474/474 475/475/475
f 470/470/470 476/476/476 465/465/465
f 465/465/465 476/476/476 471/471/471
f 471/471/471 477/477/477 466/466/466
f 466/466/466 477/477/477 472/472/472
f 472/472/472 478/478/478 467/467/467
f 467/467/467 478/478/478 473/473/473
f 473/473/473 479/479/479 468/468/468
f 468/468/468 479/479/479 474/474/474
f 474/474/474 480/480/480 475/475/475
f 475/475/475 480/480/480 481/481/481
f 480/480/480 482/482/482 481/481/481
f 474/474/474 483/483/483 480/480/480
f 479/479/479 483/483/483 474/474/474
f 480/480/480 484/484/484 482/482/482
f 483/483/483 484/484/484 480/480/480
f 484/484/484 485/485/485 482/482/482
f 473/473/473 486/486/486 479/479/479
f 478/478/478 486/486/486 473/473/473
f 472/472/472 487/487/487 478/478/478
f 477/477/477 487/487/487 472/472/472
f 479/479/479 488/488/488 483/483/483
f 486/486/486 488/488/488 479/479/479
f 484/484/484 489/489/489 485/485/485
f 489/489/489 490/490/490 485/485/485
f 483/483/483 491/491/491 484/484/484
f 488/488/488 491/491/491 483/483/483
f 491/491/491 489/489/489 484/484/484
f 478/478/478 492/492/492 486/486/486
f 487/487/487 492/492/492 478/478/478
f 489/489/489 493/493/493 490/490/490
f 493/493/493 494/494/494 490/490/490
f 486/486/486 495/495/495 488/488/488
f 492/492/492 495/495/495 486/486/486
f 488/488/488 496/496/496 491/491/491
f 495/495/495 496/496/496 488/488/488
f 491/491/491 497/497/497 489/489/489
f 497/497/497 493/493/493 489/489/489
f 496/496/496 497/497/497 491/491/491
f 493/493/493 498/498/498 494/494/494
f 498/498/498 280/280/280 494/494/494
f 498/498/498 279/279/279 280/280/280
f 497/497/497 499/499/499 493/493/493
f 499/499/499 498/498/498 493/493/493
f 500/500/500 279/279/279 498/498/498
f 499/499/499 500/500/500 498/498/498
f 500/500/500 281/281/281 279/279/279
f 496/496/496 501/501/501 497/497/497
f 501/501/501 499/499/499 497/497/497
f 495/495/495 502/502/502 496/496/496
f 502/502/502 501/501/501 496/496/496
f 503/503/503 281/281/281 500/500/500
f 503/503/503 282/282/282 281/281/281
f 290/290/290 282/282/282 503/503/503
f 504/504/504 500/500/500 499/499/499
f 501/501/501 504/504/504 499/499/499
f 504/504/504 503/503/503 500/500/500
f 505/505/505 290/290/290 503/503/503
f 505/505/505 503/503/503 504/504/504
f 301/301/301 290/290/290 505/505/505
f 506/506/506 504/504/504 501/501/501
f 506/506/506 505/505/505 504/504/504
f 502/502/502 506/506/506 501/501/501
f 507/507/507 301/301/301 505/505/505
f 507/507/507 505/505/505 506/506/506
f 306/306/306 301/301/301 507/507/507
f 508/508/508 502/502/502 495/495/495
f 492/492/492 508/508/508 495/495/495
f 509/509/509 506/506/506 502/502/502
f 509/509/509 507/507/507 506/506/506
f 508/508/508 509/509/509 502/502/502
f 510/510/510 306/306/306 507/507/507
f 510/510/510 507/507/507 509/509/509
f 311/311/311 306/306/306 510/510/510
f 511/511/511 508/508/508 492/492/492
f 487/487/487 511/511/511 492/492/492
f 512/512/512 509/509/509 508/508/508
f 512/512/512 510/510/510 509/509/509
f 511/511/511 512/512/512 508/508/508
f 513/513/513 311/311/311 510/510/510
f 513/513/513 510/510/510 512/512/512
f 316/316/316 311/311/311 513/513/513
f 514/514/514 511/511/511 487/487/487
f 477/477/477 514/514/514 487/487/487
f 515/515/515 512/512/512 511/511/511
f 515/515/515 513/513/513 512/512/512
f 514/514/514 515/515/515 511/511/511
f 516/516/516 316/316/316 513/513/513
f 516/516/516 513/513/513 515/515/515
f 321/321/321 316/316/316 516/516/516
f 517/517/517 514/514/514 477/477/477
f 471/471/471 517/517/517 477/477/477
f 476/476/476 517/517/517 471/471/471
f 518/518/518 515/515/515 514/514/514
f 518/518/518 516/516/516 515/515/515
f 517/517/517 518/518/518 514/514/514
f 519/519/519 321/321/321 516/516/516
f 519/519/519 516/516/516 518/518/518
f 326/326/326 321/321/321 519/519/519
f 520/520/520 518/518/518 517/517/517
f 476/476/476 520/520/520 517/517/517
f 520/520/520 519/519/519 518/518/518
f 521/521/521 326/326/326 519/519/519
f 521/521/521 519/519/519 520/520/520
f 331/331/331 326/326/326 521/521/521
f 522/522/522 520/520/520 476/476/476
f 522/522/522 521/521/521 520/520/520
f 470/470/470 522/522/522 476/476/476
f 523/523/523 331/331/331 521/521/521
f 523/523/523 521/521/521 522/522/522
f 336/336/336 331/331/331 523/523/523
f 524/524/524 522/522/522 470/470/470
f 524/524/524 523/523/523 522/522/522
f 464/464/464 524/524/524 470/470/470
f 525/525/525 336/336/336 523/523/523
f 525/525/525 523/523/523 524/524/524
f 341/341/341 336/336/336 525/525/525
f 526/526/526 524/524/524 464/464/464
f 526/526/526 525/525/525 524/524/524
f 449/449/449 526/526/526 464/464/464
f 527/527/527 341/341/341 525/525/525
f 527/527/527 525/525/525 526/526/526
f 346/346/346 341/341/341 527/527/527
f 528/528/528 526/526/526 449/449/449
f 528/528/528 527/527/527 526/526/526
f 442/442/442 528/528/528 449/449/449
f 443/443/443 528/528/528 442/442/442
f 529/529/529 527/527/527 528/528/528
f 529/529/529 346/346/346 527/527/527
f 443/443/443 529/529/529 528/528/528
f 530/530/530 346/346/346 529/529/529
f 530/530/530 342/342/342 346/346/346
f 347/347/347 342/342/342 530/530/530
f 531/531/531 529/529/529 443/443/443
f 531/531/531 530/530/530 529/529/529
f 435/435/435 531/531/531 443/443/443
f 429/429/429 531/531/531 435/435/435
f 532/532/532 347/347/347 530/530/530
f 532/532/532 530/530/530 531/531/531
f 429/429/429 532/532/532 531/531/531
f 354/354/354 347/347/347 532/532/532
f 366/366/366 532/532/532 429/429/429
f 366/366/366 354/354/354 532/532/532
