g A_build_jiaoshoujia_02_1
v 3.0484314 0.217388049 3.39312339
v 2.93033433 0.217388049 3.18801761
v 2.93046522 3.82327914 3.1880188
v 3.04897523 3.82327914 3.3933959
v 3.28482103 0.217388049 3.39312243
v 3.28520656 3.82327867 3.39284968
v 3.40291643 0.217388049 3.18801498
v 3.40275073 3.82327914 3.18801665
v 3.28481936 0.217388049 2.98290896
v 3.28520417 3.82327867 2.98318481
v 3.04842949 0.217388049 2.98291039
v 3.04897332 3.82327914 2.98264027
v 2.93033433 0.217388049 3.18801761
v 2.93046522 3.82327914 3.1880188
v 2.83685875 3.81821275 3.18801832
v 2.83685899 4.43163013 3.1880188
v 3.00228214 4.43163061 3.47469592
v 3.00228167 3.81821322 3.47469592
v 3.33202744 4.43163061 3.47393322
v 3.33202744 3.81821322 3.47393322
v 3.49610281 4.43163013 3.18801498
v 3.49610257 3.81821275 3.18801498
v 3.33202457 4.43163061 2.90209866
v 3.33202386 3.81821322 2.90209866
v 3.00227952 4.43163061 2.90133905
v 3.00227928 3.81821322 2.90133905
v 2.83685899 4.43163013 3.1880188
v 2.83685875 3.81821275 3.18801832
v 2.83366537 0.570041239 3.18801832
v 2.83366537 1.19412911 3.18801808
v 3.00068903 1.19412911 3.47746968
v 3.00068879 0.570041239 3.47746992
v 3.33362508 1.19412875 3.47669935
v 3.33362484 0.570041239 3.47669935
v 3.49928761 1.19412911 3.18801498
v 3.49928713 0.570041239 3.18801475
v 3.33362174 1.19412911 2.89933228
v 3.33362103 0.570041239 2.89933228
v 3.00068665 1.19412911 2.89856553
v 3.00068617 0.570041239 2.89856553
v 2.83366537 1.19412911 3.18801808
v 2.83366537 0.570041239 3.18801832
v 2.86975145 -0.0210497491 2.88957429
v 2.75355625 0.134874627 3.1880188
v 2.75355554 -0.0210497491 3.1880188
v 2.86975217 0.134874627 2.88957453
v 2.90096951 0.241633043 3.18801785
v 3.16750288 -0.0210497491 2.77394199
v 2.9854784 0.241633043 3.00579405
v 3.16750336 0.134874627 2.77394199
v 3.4640944 -0.0210497491 2.89056182
v 3.16729832 0.241633043 2.92160487
v 3.46409512 0.134874627 2.89056182
v 3.57917809 -0.0210497491 3.18801451
v 3.34837174 0.241633043 3.00639701
v 3.57917833 0.134874627 3.18801451
v 3.46409822 -0.0210497491 3.48546839
v 3.43216586 0.241633043 3.18801546
v 3.46409845 0.134874329 3.48546839
v 3.16750717 -0.0210497491 3.60209155
v 3.34837389 0.241633043 3.36963463
v 3.16750765 0.134874329 3.60209131
v 2.86975431 -0.0210497491 3.48646164
v 3.1673007 0.241633043 3.45442772
v 2.86975527 0.134874329 3.48646164
v 2.75355554 -0.0210497491 3.1880188
v 2.98548055 0.241633043 3.37024093
v 2.75355625 0.134874627 3.1880188
v 2.90096951 0.241633043 3.18801785
v 3.34837389 0.241633043 3.36963463
v 3.1673007 0.241633043 3.45442772
v 3.43216586 0.241633043 3.18801546
v 3.34837174 0.241633043 3.00639701
v 3.16729832 0.241633043 2.92160487
v 2.9854784 0.241633043 3.00579405
v 2.90096951 0.241633043 3.18801785
v 2.98548055 0.241633043 3.37024093
v 2.60799217 0.767709434 2.9853332
v 2.60797691 0.650312543 3.18802381
v 3.03623009 0.650312841 3.18802428
v 3.03624558 0.767710328 2.9853332
v 2.6079855 1.00444984 2.98555779
v 3.03623891 1.00444984 2.98555851
v 2.60796714 1.12142217 3.18802214
v 3.03622007 1.12142253 3.1880219
v 2.60798478 1.00445223 3.39048648
v 3.03623891 1.00445259 3.39048672
v 2.6079917 0.76771152 3.39071345
v 3.03624439 0.767711878 3.39071369
v 2.60797691 0.650312543 3.18802381
v 3.03623009 0.650312841 3.18802428
v 1.58547711 4.92716312 3.18802357
v 1.58547711 5.19561386 3.18802357
v 1.66426027 5.19562483 3.32404351
v 1.66426027 4.92717314 3.32404375
v 1.82313168 5.19562006 3.32389164
v 1.63333273 4.88841105 3.18802333
v 1.82313168 4.92716932 3.32389164
v 1.90162694 5.19560862 3.18802214
v 1.68827951 4.88841772 3.2828896
v 1.90162694 4.9271574 3.18802214
v 1.82313001 5.19562006 3.05215359
v 1.68827951 4.45027018 3.2828896
v 1.63333273 4.45027781 3.18802333
v 1.79908323 4.88841534 3.28278351
v 1.82313001 4.92716885 3.05215359
v 1.6642592 5.19562483 3.05200243
v 1.85382903 4.88840675 3.18802238
v 1.6642592 4.92717314 3.05200243
v 1.58547711 5.19561386 3.18802357
v 1.58547711 4.92716312 3.18802357
v 1.79908216 4.88841534 3.09326196
v 1.68827844 4.8884182 3.09315658
v 1.63333273 4.88841105 3.18802333
v 1.68827844 4.45027018 3.09315658
v 1.63333273 4.45027781 3.18802333
v 1.58547711 4.41152477 3.18802357
v 1.79908216 4.45027351 3.09326196
v 1.6642592 4.41151428 3.05200291
v 1.58547711 4.14307404 3.18802357
v 1.6642592 4.14306402 3.05200291
v 1.82313001 4.41151857 3.05215359
v 1.82313001 4.14306879 3.05215359
v 1.85382903 4.4502821 3.18802238
v 1.90162694 4.41153049 3.18802214
v 1.90162694 4.14308023 3.18802214
v 1.79908323 4.45027351 3.28278351
v 1.82313168 4.41151857 3.32389164
v 1.82313168 4.14306831 3.32389164
v 1.66426027 4.41151428 3.32404375
v 1.66426027 4.14306402 3.32404375
v 1.58547711 4.41152477 3.18802357
v 1.58547711 4.14307404 3.18802357
v 2.96559358 4.73135376 3.1879406
v 3.06271029 4.4070096 3.35608196
v 2.96575332 4.40700531 3.18793988
v 3.06207824 4.74738693 3.35576034
v 3.25582266 4.40701103 3.35567737
v 2.91838241 5.01401186 3.35563588
v 2.84626389 4.94269848 3.18794131
v 3.25532627 4.77984333 3.35603356
v 3.35205674 4.40700912 3.18793821
v 3.06319904 5.15752792 3.35611558
v 2.63821793 5.16525936 3.35576105
v 2.61605954 5.06881475 3.18793631
v 3.35223532 4.7963047 3.18793845
v 3.25582123 4.40701056 3.02020049
v 3.13588119 5.22959423 3.18793988
v 2.68237329 5.3585434 3.35601425
v -1.81416023 5.16525936 3.35575986
v -1.79200172 5.06881475 3.18793511
v -2.02220607 4.94269848 3.18793988
v 3.2553246 4.77984333 3.01984453
v 3.06270742 4.4070096 3.01979661
v -1.85831535 5.3585434 3.35601377
v -2.09432459 5.01401186 3.35563469
v -2.14153576 4.73135376 3.18793941
v 2.70444703 5.45543861 3.18793583
v 3.06319737 5.15752792 3.01976442
v 3.06207609 4.74738693 3.02011967
v 2.96575332 4.40700531 3.18793988
v 2.96559358 4.73135376 3.1879406
v 2.84626389 4.94269848 3.18794131
v 2.91838074 5.01401186 3.02024579
v 2.61605954 5.06881475 3.18793631
v 2.63821769 5.16526127 3.02012253
v -1.79200172 5.06881475 3.18793511
v 2.68237209 5.35854197 3.01986861
v -1.88038909 5.45543861 3.1879344
v -1.85831428 5.35854197 3.01986742
v -1.81415975 5.16526127 3.02012205
v -2.23914123 5.15752792 3.3561151
v -2.09432268 5.01401186 3.0202446
v -2.02220607 4.94269848 3.18793988
v -2.23913956 5.15752792 3.01976371
v -2.31182361 5.22959423 3.18793869
v -2.23802042 4.74738693 3.35575914
v -2.23801827 4.74738693 3.02011824
v -2.14153576 4.73135376 3.18793941
v -2.1416955 4.40700531 3.18793941
v -2.23864961 4.4070096 3.01979613
v -2.43126678 4.77984333 3.01984334
v -2.43176341 4.40701056 3.0201993
v -2.5281775 4.7963047 3.18793726
v -2.52799916 4.40700912 3.18793702
v -2.43126845 4.77984333 3.35603237
v -2.43176484 4.40701103 3.35567617
v -2.23865247 4.4070096 3.35608149
v -2.1416955 4.40700531 3.18793941
v 2.83783007 0.820106864 3.16835928
v 2.83783007 0.820106864 3.18986249
v 2.83783102 4.17672682 3.18986249
v 2.83783078 4.17672729 3.16835928
v 2.83783007 0.820106864 3.18986249
v -2.01377249 0.820106864 3.18986201
v -2.0137732 4.17672682 3.18986201
v 2.83783102 4.17672682 3.18986249
v 1.90162694 5.19560862 3.18802214
v 1.6642592 5.19562483 3.05200243
v 1.82313001 5.19562006 3.05215359
v 1.58547711 5.19561386 3.18802357
v 1.66426027 5.19562483 3.32404351
v 1.82313168 5.19562006 3.32389164
v 2.60799217 4.00343084 2.9853332
v 2.60797691 3.88603377 3.18802381
v 3.03622985 3.88603449 3.18802428
v 3.03624558 4.00343132 2.98533368
v 2.6079855 4.24017096 2.98555803
v 3.03623891 4.24017191 2.98555851
v 2.60796714 4.35714293 3.1880219
v 3.03622007 4.35714436 3.1880219
v 2.60798478 4.24017429 3.39048648
v 3.03623891 4.24017382 3.39048696
v 2.6079917 4.00343323 3.39071369
v 3.03624439 4.00343323 3.39071393
v 2.60797691 3.88603377 3.18802381
v 3.03622985 3.88603449 3.18802428
v 3.03623891 4.24017191 2.98555851
v 3.03624558 4.00343132 2.98533368
v 3.03622985 3.88603449 3.18802428
v 3.03622007 4.35714436 3.1880219
v 3.03623891 4.24017382 3.39048696
v 3.03624439 4.00343323 3.39071393
v 2.74285698 3.93497276 3.18802357
v -1.91881132 4.02799416 3.02741694
v -1.91879904 3.93497276 3.18802309
v 2.74286914 4.02799416 3.02741742
v -1.91880643 4.21558046 3.0275948
v 2.74286437 4.21558046 3.02759552
v 2.74284935 4.30826569 3.18802214
v -1.91879141 4.30826569 3.18802142
v 2.74286366 4.21558189 3.34844899
v -1.91880596 4.21558189 3.34844851
v 2.74286914 4.02799559 3.348629
v -1.91881132 4.02799559 3.34862852
v -1.91879904 3.93497276 3.18802309
v 2.74285698 3.93497276 3.18802357
v -2.01377249 0.820106864 3.1683588
v -2.01377273 4.17672729 3.1683588
v -2.0137732 4.17672682 3.18986201
v -2.01377249 0.820106864 3.18986201
v -2.21218109 4.24017143 2.98555708
v -2.21217227 3.88603449 3.18802309
v -2.21218801 4.00343132 2.98533249
v -2.21216226 4.35714388 3.18802118
v -2.21218109 4.24017382 3.39048576
v -2.21218657 4.00343323 3.39071274
v 2.74286413 0.979858756 3.02759576
v 2.7428689 0.792272389 3.02741814
v 2.74285674 0.699251175 3.18802428
v 2.74284911 1.07254398 3.18802238
v 2.74286342 0.979860306 3.34844971
v 2.7428689 0.792273939 3.34862947
v 2.74285674 0.699251175 3.18802428
v -1.91881156 0.792272389 3.02741694
v -1.91879928 0.699251175 3.18802309
v 2.7428689 0.792272389 3.02741814
v -1.91880655 0.979858756 3.02759504
v 2.74286413 0.979858756 3.02759576
v 2.74284911 1.07254398 3.18802238
v -1.91879165 1.07254398 3.18802118
v 2.74286342 0.979860306 3.34844971
v -1.91880608 0.979860306 3.34844875
v 2.7428689 0.792273939 3.34862947
v -1.91881156 0.792273939 3.34862852
v -1.91879928 0.699251175 3.18802309
v 2.74285674 0.699251175 3.18802428
v -1.91880655 0.979858756 3.02759504
v -1.91879928 0.699251175 3.18802309
v -1.91881156 0.792272389 3.02741694
v -1.91879165 1.07254398 3.18802118
v -1.91880608 0.979860306 3.34844875
v -1.91881156 0.792273939 3.34862852
v -2.22437358 0.217388049 3.39312315
v -2.10640764 3.82327914 3.18801808
v -2.10627675 0.217388049 3.18801689
v -2.22491741 3.82327867 3.39339542
v -2.46076345 0.217388049 3.39312196
v -2.46114874 3.82327843 3.39284873
v -2.57885885 0.217388049 3.18801475
v -2.57869315 3.82327914 3.18801546
v -2.46076155 0.217388049 2.98290849
v -2.46114635 3.82327867 2.98318362
v -2.22437167 0.217388049 2.98290968
v -2.2249155 3.82327914 2.98263979
v -2.10627675 0.217388049 3.18801689
v -2.10640764 3.82327914 3.18801808
v -2.01280093 3.81821275 3.18801785
v -2.17822433 4.43163061 3.47469544
v -2.01280117 4.43163013 3.18801761
v -2.17822409 3.81821275 3.47469544
v -2.50796986 4.43163061 3.47393203
v -2.50796986 3.81821275 3.4739325
v -2.67204523 4.43163061 3.18801427
v -2.67204499 3.81821322 3.18801427
v -2.50796676 4.43163061 2.9020977
v -2.50796604 3.81821275 2.9020977
v -2.17822194 4.43163061 2.90133834
v -2.17822146 3.81821322 2.90133834
v -2.01280117 4.43163013 3.18801761
v -2.01280093 3.81821275 3.18801785
v -2.00960755 0.570041239 3.18801808
v -2.17663121 1.19412935 3.47746944
v -2.00960755 1.19412911 3.18801808
v -2.17663097 0.570041239 3.47746944
v -2.50956726 1.19412911 3.47669864
v -2.50956702 0.570041239 3.47669888
v -2.67523003 1.19412911 3.18801427
v -2.67522955 0.570041239 3.18801427
v -2.50956392 1.19412911 2.89933157
v -2.50956345 0.570041239 2.89933181
v -2.17662883 1.19412911 2.89856505
v -2.17662859 0.570041239 2.89856505
v -2.00960755 1.19412911 3.18801808
v -2.00960755 0.570041239 3.18801808
v -2.04569387 -0.0210497491 2.88957429
v -1.92949784 -0.0210497491 3.18801832
v -1.9294982 0.134874627 3.18801832
v -2.04569411 0.134874627 2.88957429
v -2.07691169 0.241633043 3.18801761
v -2.3434453 -0.0210497491 2.77394128
v -2.16142058 0.241633043 3.00579333
v -2.34344554 0.134874627 2.77394128
v -2.64003682 -0.0210497491 2.8905611
v -2.3432405 0.241633043 2.92160463
v -2.64003754 0.134874627 2.8905611
v -2.75512052 -0.0210497491 3.18801379
v -2.52431417 0.241633043 3.00639653
v -2.75512075 0.134874627 3.18801379
v -2.64004064 -0.0210497491 3.48546767
v -2.60810804 0.241633043 3.18801451
v -2.64004087 0.134874329 3.48546767
v -2.34344959 -0.0210497491 3.60209107
v -2.52431631 0.241633043 3.36963367
v -2.34344983 0.134874329 3.60209107
v -2.04569674 -0.0210497491 3.48646164
v -2.34324288 0.241633043 3.45442748
v -2.04569769 0.134874329 3.48646116
v -1.92949784 -0.0210497491 3.18801832
v -2.16142273 0.241633043 3.37024045
v -1.9294982 0.134874627 3.18801832
v -2.07691169 0.241633043 3.18801761
v -2.52431631 0.241633043 3.36963367
v -2.60810804 0.241633043 3.18801451
v -2.34324288 0.241633043 3.45442748
v -2.52431417 0.241633043 3.00639653
v -2.3432405 0.241633043 2.92160463
v -2.16142058 0.241633043 3.00579333
v -2.07691169 0.241633043 3.18801761
v -2.16142273 0.241633043 3.37024045
v -1.78393447 0.767709434 2.98533297
v -2.21217227 0.650312841 3.18802357
v -1.78391898 0.650312543 3.18802333
v -2.21218801 0.76771003 2.98533249
v -1.78392768 1.00444949 2.98555708
v -2.21218109 1.00444984 2.98555756
v -1.78390932 1.12142217 3.18802118
v -2.21216226 1.12142217 3.18802118
v -1.78392732 1.00445223 3.390486
v -2.21218109 1.00445259 3.39048648
v -1.78393412 0.76771152 3.39071321
v -2.21218657 0.767711878 3.39071345
v -1.78391898 0.650312543 3.18802333
v -2.21217227 0.650312841 3.18802357
v -0.761419535 4.9271636 3.18802261
v -0.84020257 5.19562483 3.3240428
v -0.761419535 5.19561434 3.18802309
v -0.84020257 4.92717361 3.3240428
v -0.999073863 5.19562006 3.32389069
v -0.80927521 4.88841105 3.18802238
v -0.999073863 4.9271698 3.32389069
v -1.07756913 5.19560862 3.18802142
v -0.864221871 4.8884182 3.28288865
v -1.07756913 4.9271574 3.18802142
v -0.999072194 5.19562006 3.05215263
v -0.864221871 4.45027018 3.28288913
v -0.80927521 4.45027781 3.18802261
v -0.975025356 4.88841534 3.28278255
v -0.999072194 4.92716885 3.05215287
v -0.840201378 5.19562483 3.05200195
v -1.02977121 4.88840675 3.1880219
v -0.840201378 4.92717361 3.05200195
v -0.761419535 5.19561434 3.18802309
v -0.761419535 4.9271636 3.18802261
v -0.975024343 4.88841534 3.093261
v -0.864220738 4.88841772 3.09315586
v -0.80927521 4.88841105 3.18802238
v -0.864220738 4.45027018 3.0931561
v -0.80927521 4.45027781 3.18802261
v -0.761419535 4.41152525 3.18802261
v -0.975024343 4.45027351 3.093261
v -0.840201378 4.41151428 3.05200195
v -0.761419535 4.14307404 3.18802261
v -0.840201378 4.14306355 3.05200195
v -0.999072194 4.41151857 3.05215287
v -0.999072194 4.14306879 3.05215287
v -1.02977121 4.4502821 3.1880219
v -1.07756913 4.41153049 3.18802142
v -1.07756913 4.14308023 3.18802142
v -0.975025356 4.45027351 3.28278255
v -0.999073863 4.41151905 3.32389069
v -0.999073863 4.14306831 3.32389069
v -0.84020257 4.41151428 3.3240428
v -0.84020257 4.14306355 3.3240428
v -0.761419535 4.41152525 3.18802261
v -0.761419535 4.14307404 3.18802261
v -1.07756913 5.19560862 3.18802142
v -0.999072194 5.19562006 3.05215263
v -0.840201378 5.19562483 3.05200195
v -0.761419535 5.19561434 3.18802309
v -0.84020257 5.19562483 3.3240428
v -0.999073863 5.19562006 3.32389069
v -1.78393447 4.00343084 2.98533249
v -2.21217227 3.88603449 3.18802309
v -1.78391898 3.88603377 3.18802333
v -2.21218801 4.00343132 2.98533249
v -1.78392768 4.24017096 2.98555756
v -2.21218109 4.24017143 2.98555708
v -1.78390932 4.35714293 3.18802118
v -2.21216226 4.35714388 3.18802118
v -1.78392732 4.24017429 3.39048576
v -2.21218109 4.24017382 3.39048576
v -1.78393412 4.00343323 3.39071321
v -2.21218657 4.00343323 3.39071274
v -1.78391898 3.88603377 3.18802333
v -2.21217227 3.88603449 3.18802309
v 2.60799217 0.767709434 2.9853332
v 2.57171845 0.886009872 3.18802261
v 2.60797691 0.650312543 3.18802381
v 2.6079855 1.00444984 2.98555779
v 2.6079917 0.76771152 3.39071345
v 2.60796714 1.12142217 3.18802214
v 2.60798478 1.00445223 3.39048648
v 2.60799217 4.00343084 2.9853332
v 2.57171845 4.12173176 3.18802309
v 2.60797691 3.88603377 3.18802381
v 2.6079855 4.24017096 2.98555803
v 2.6079917 4.00343323 3.39071369
v 2.60796714 4.35714293 3.1880219
v 2.60798478 4.24017429 3.39048648
v -1.78393447 0.767709434 2.98533297
v -1.78391898 0.650312543 3.18802333
v -1.74766052 0.886009872 3.18802238
v -1.78392768 1.00444949 2.98555708
v -1.78393412 0.76771152 3.39071321
v -1.78390932 1.12142217 3.18802118
v -1.78392732 1.00445223 3.390486
v -1.78393447 4.00343084 2.98533249
v -1.78391898 3.88603377 3.18802333
v -1.74766052 4.12173176 3.18802238
v -1.78392768 4.24017096 2.98555756
v -1.78393412 4.00343323 3.39071321
v -1.78390932 4.35714293 3.18802118
v -1.78392732 4.24017429 3.39048576
v 3.33202744 4.43163061 3.47393322
v 3.16692853 4.48846769 3.18801689
v 3.49610281 4.43163013 3.18801498
v 3.00228214 4.43163061 3.47469592
v 3.33202457 4.43163061 2.90209866
v 2.83685899 4.43163013 3.1880188
v 3.00227952 4.43163061 2.90133905
v 3.49610257 3.81821275 3.18801498
v 3.16692853 3.77035403 3.18801689
v 3.33202744 3.81821322 3.47393322
v 3.33202386 3.81821322 2.90209866
v 3.00228167 3.81821322 3.47469592
v 3.00227928 3.81821322 2.90133905
v 2.83685875 3.81821275 3.18801832
v 3.33362508 1.19412875 3.47669935
v 3.16692853 1.25647497 3.18801665
v 3.49928761 1.19412911 3.18801498
v 3.00068903 1.19412911 3.47746968
v 3.33362174 1.19412911 2.89933228
v 2.83366537 1.19412911 3.18801808
v 3.00068665 1.19412911 2.89856553
v 3.49928713 0.570041239 3.18801475
v 3.16692853 0.533104599 3.18801618
v 3.33362484 0.570041239 3.47669935
v 3.33362103 0.570041239 2.89933228
v 3.00068879 0.570041239 3.47746992
v 3.00068617 0.570041239 2.89856553
v 2.83366537 0.570041239 3.18801832
v -2.50796986 4.43163061 3.47393203
v -2.67204523 4.43163061 3.18801427
v -2.34287095 4.48846769 3.1880157
v -2.17822433 4.43163061 3.47469544
v -2.50796676 4.43163061 2.9020977
v -2.01280117 4.43163013 3.18801761
v -2.17822194 4.43163061 2.90133834
v -2.67204499 3.81821322 3.18801427
v -2.50796986 3.81821275 3.4739325
v -2.34287095 3.77035403 3.1880157
v -2.50796604 3.81821275 2.9020977
v -2.17822409 3.81821275 3.47469544
v -2.17822146 3.81821322 2.90133834
v -2.01280093 3.81821275 3.18801785
v -2.50956726 1.19412911 3.47669864
v -2.67523003 1.19412911 3.18801427
v -2.34287095 1.25647497 3.1880157
v -2.17663121 1.19412935 3.47746944
v -2.50956392 1.19412911 2.89933157
v -2.00960755 1.19412911 3.18801808
v -2.17662883 1.19412911 2.89856505
v -2.67522955 0.570041239 3.18801427
v -2.50956702 0.570041239 3.47669888
v -2.34287095 0.533104599 3.18801594
v -2.50956345 0.570041239 2.89933181
v -2.17663097 0.570041239 3.47746944
v -2.17662859 0.570041239 2.89856505
v -2.00960755 0.570041239 3.18801808
vt 0.00621414185 0.503417969
vt 0.00621414185 0.470947266
vt 0.525390625 0.470947266
vt 0.525390625 0.503417969
vt 0.00621414185 0.535644531
vt 0.525390625 0.535644531
vt 0.00621414185 0.567871094
vt 0.525390625 0.567871094
vt 0.00621414185 0.600097656
vt 0.525390625 0.600097656
vt 0.00621414185 0.632324219
vt 0.525390625 0.632324219
vt 0.00621414185 0.664550781
vt 0.525390625 0.664550781
vt 0.732421875 0.439453125
vt 0.815917969 0.439453125
vt 0.815917969 0.382080078
vt 0.732421875 0.382080078
vt 0.815917969 0.324951172
vt 0.732421875 0.324951172
vt 0.815917969 0.267822266
vt 0.732421875 0.267822266
vt 0.815917969 0.21081543
vt 0.732421875 0.21081543
vt 0.815917969 0.153686523
vt 0.732421875 0.153686523
vt 0.815917969 0.0962524414
vt 0.732421875 0.0962524414
vt 0.673339844 0.00619125366
vt 0.673339844 0.0913085938
vt 0.725097656 0.0913085938
vt 0.725097656 0.00618743896
vt 0.776855469 0.0913085938
vt 0.776855469 0.00618362427
vt 0.828613281 0.0913085938
vt 0.828613281 0.00617599487
vt 0.880371094 0.0913085938
vt 0.880371094 0.00617218018
vt 0.932128906 0.0912475586
vt 0.932128906 0.00616836548
vt 0.983886719 0.0912475586
vt 0.983886719 0.00616455078
vt 0.72265625 0.397216797
vt 0.700683594 0.440185547
vt 0.72265625 0.440185547
vt 0.700683594 0.397216797
vt 0.676757812 0.440185547
vt 0.72265625 0.354003906
vt 0.676757812 0.397216797
vt 0.700683594 0.354003906
vt 0.72265625 0.311035156
vt 0.676757812 0.354003906
vt 0.700683594 0.311035156
vt 0.72265625 0.268310547
vt 0.676757812 0.311035156
vt 0.700683594 0.268310547
vt 0.72265625 0.225341797
vt 0.676757812 0.268310547
vt 0.700683594 0.225341797
vt 0.72265625 0.182373047
vt 0.676757812 0.225341797
vt 0.700683594 0.182373047
vt 0.72265625 0.139282227
vt 0.676757812 0.182373047
vt 0.700683594 0.139282227
vt 0.72265625 0.0963134766
vt 0.676757812 0.139282227
vt 0.700683594 0.0963134766
vt 0.676757812 0.0963134766
vt 0.979492188 0.982910156
vt 0.954589844 0.994628906
vt 0.990722656 0.958007812
vt 0.979492188 0.933105469
vt 0.954589844 0.921875
vt 0.930175781 0.933105469
vt 0.918457031 0.958007812
vt 0.930175781 0.982910156
vt 0.603027344 0.503417969
vt 0.603027344 0.471679688
vt 0.665039062 0.471679688
vt 0.665039062 0.503417969
vt 0.603027344 0.535644531
vt 0.665039062 0.535644531
vt 0.603027344 0.567871094
vt 0.665039062 0.567871094
vt 0.603027344 0.599609375
vt 0.665039062 0.599609375
vt 0.603027344 0.631835938
vt 0.665039062 0.631835938
vt 0.603027344 0.6640625
vt 0.665039062 0.6640625
vt 0.759765625 0.824707031
vt 0.795898438 0.824707031
vt 0.795898438 0.806152344
vt 0.759765625 0.806152344
vt 0.795898438 0.787109375
vt 0.751953125 0.824707031
vt 0.759765625 0.787109375
vt 0.795898438 0.768554688
vt 0.751953125 0.806152344
vt 0.759765625 0.768554688
vt 0.795898438 0.75
vt 0.692871094 0.806152344
vt 0.692871094 0.824707031
vt 0.751953125 0.787109375
vt 0.759765625 0.75
vt 0.795898438 0.730957031
vt 0.751953125 0.768554688
vt 0.759765625 0.730957031
vt 0.795898438 0.711914062
vt 0.759765625 0.711914062
vt 0.751953125 0.75
vt 0.751953125 0.730957031
vt 0.751953125 0.711914062
vt 0.692871094 0.730957031
vt 0.692871094 0.711914062
vt 0.685546875 0.711914062
vt 0.692871094 0.75
vt 0.685546875 0.730957031
vt 0.649414062 0.711914062
vt 0.649414062 0.730957031
vt 0.685546875 0.75
vt 0.649414062 0.75
vt 0.692871094 0.768554688
vt 0.685546875 0.768554688
vt 0.649414062 0.768554688
vt 0.692871094 0.787109375
vt 0.685546875 0.787109375
vt 0.649414062 0.787109375
vt 0.685546875 0.806152344
vt 0.649414062 0.806152344
vt 0.685546875 0.824707031
vt 0.649414062 0.824707031
vt 0.0534667969 0.83203125
vt 0.00621414185 0.858398438
vt 0.00621414185 0.83203125
vt 0.0534667969 0.858398438
vt 0.00621414185 0.885253906
vt 0.101379395 0.858398438
vt 0.101379395 0.83203125
vt 0.0534667969 0.885253906
vt 0.00621414185 0.913085938
vt 0.101379395 0.885253906
vt 0.152832031 0.858398438
vt 0.152832031 0.83203125
vt 0.0534667969 0.913085938
vt 0.00621414185 0.940429688
vt 0.101379395 0.913085938
vt 0.152832031 0.885253906
vt 0.757324219 0.858398438
vt 0.757324219 0.83203125
vt 0.809082031 0.83203125
vt 0.0534667969 0.940429688
vt 0.00621414185 0.966796875
vt 0.757324219 0.885253906
vt 0.809082031 0.858398438
vt 0.856933594 0.83203125
vt 0.152832031 0.913085938
vt 0.101379395 0.940429688
vt 0.0534667969 0.966796875
vt 0.00621414185 0.992675781
vt 0.0534667969 0.992675781
vt 0.101379395 0.992675781
vt 0.101379395 0.966796875
vt 0.152832031 0.992675781
vt 0.152832031 0.966796875
vt 0.757324219 0.992675781
vt 0.152832031 0.940429688
vt 0.757324219 0.913085938
vt 0.757324219 0.940429688
vt 0.757324219 0.966796875
vt 0.809082031 0.885253906
vt 0.809082031 0.966796875
vt 0.809082031 0.992675781
vt 0.809082031 0.940429688
vt 0.809082031 0.913085938
vt 0.856933594 0.858398438
vt 0.856933594 0.966796875
vt 0.856933594 0.992675781
vt 0.904296875 0.992675781
vt 0.904296875 0.966796875
vt 0.856933594 0.940429688
vt 0.904296875 0.940429688
vt 0.856933594 0.913085938
vt 0.904296875 0.913085938
vt 0.856933594 0.885253906
vt 0.904296875 0.885253906
vt 0.904296875 0.858398438
vt 0.904296875 0.83203125
vt 0.993652344 0.468994141
vt 0.990722656 0.468994141
vt 0.990722656 0.926757812
vt 0.993652344 0.926757812
vt 0.66796875 0.00616455078
vt 0.00621414185 0.00616455078
vt 0.00621414185 0.463867188
vt 0.66796875 0.463867188
vt 0.809570312 0.679199219
vt 0.77734375 0.697753906
vt 0.799316406 0.697753906
vt 0.766601562 0.679199219
vt 0.77734375 0.660644531
vt 0.798828125 0.660644531
vt 0.53515625 0.503417969
vt 0.53515625 0.471435547
vt 0.596679688 0.471435547
vt 0.596679688 0.503417969
vt 0.53515625 0.535644531
vt 0.596679688 0.535644531
vt 0.53515625 0.567382812
vt 0.596679688 0.567382812
vt 0.53515625 0.599609375
vt 0.596679688 0.599609375
vt 0.53515625 0.631835938
vt 0.596679688 0.631835938
vt 0.53515625 0.663574219
vt 0.596679688 0.663574219
vt 0.810546875 0.568847656
vt 0.810546875 0.543457031
vt 0.788574219 0.530761719
vt 0.788574219 0.581542969
vt 0.766601562 0.568847656
vt 0.766601562 0.543457031
vt 0.00621414185 0.825195312
vt 0.642089844 0.799804688
vt 0.642089844 0.825195312
vt 0.00621414185 0.799804688
vt 0.642089844 0.773925781
vt 0.00621414185 0.773925781
vt 0.00621414185 0.749023438
vt 0.642089844 0.749023438
vt 0.00621414185 0.723632812
vt 0.642089844 0.723632812
vt 0.00621414185 0.697753906
vt 0.642089844 0.697753906
vt 0.642089844 0.672851562
vt 0.00621414185 0.672851562
vt 0.990722656 0.00616455078
vt 0.990722656 0.463867188
vt 0.993652344 0.463867188
vt 0.993652344 0.00616455078
vt 0.765136719 0.632324219
vt 0.787109375 0.594238281
vt 0.765136719 0.606933594
vt 0.787109375 0.645507812
vt 0.809082031 0.6328125
vt 0.809082031 0.606933594
vt 0.968261719 0.8984375
vt 0.968261719 0.873046875
vt 0.946289062 0.860351562
vt 0.946289062 0.911132812
vt 0.924316406 0.8984375
vt 0.924316406 0.873046875
vt 0.82421875 0.0963134766
vt 0.850585938 0.731933594
vt 0.82421875 0.731933594
vt 0.850585938 0.0963134766
vt 0.876953125 0.731933594
vt 0.876953125 0.0963134766
vt 0.903320312 0.0963134766
vt 0.903320312 0.731933594
vt 0.9296875 0.0963134766
vt 0.9296875 0.731933594
vt 0.956542969 0.0963134766
vt 0.956542969 0.731933594
vt 0.982910156 0.731933594
vt 0.982910156 0.0963134766
vt 0.924316406 0.8984375
vt 0.946289062 0.860351562
vt 0.924316406 0.873046875
vt 0.946289062 0.911132812
vt 0.968261719 0.8984375
vt 0.968261719 0.873046875
vt 0.00621414185 0.503417969
vt 0.525390625 0.470947266
vt 0.00621414185 0.470947266
vt 0.525390625 0.503417969
vt 0.00621414185 0.535644531
vt 0.525390625 0.535644531
vt 0.00621414185 0.567871094
vt 0.525390625 0.567871094
vt 0.00621414185 0.600097656
vt 0.525390625 0.600097656
vt 0.00621414185 0.632324219
vt 0.525390625 0.632324219
vt 0.00621414185 0.664550781
vt 0.525390625 0.664550781
vt 0.732421875 0.439453125
vt 0.815917969 0.382080078
vt 0.815917969 0.439453125
vt 0.732421875 0.382080078
vt 0.815917969 0.324951172
vt 0.732421875 0.324951172
vt 0.815917969 0.267822266
vt 0.732421875 0.267822266
vt 0.815917969 0.21081543
vt 0.732421875 0.21081543
vt 0.815917969 0.153686523
vt 0.732421875 0.153686523
vt 0.815917969 0.0962524414
vt 0.732421875 0.0962524414
vt 0.673339844 0.00619125366
vt 0.725097656 0.0913085938
vt 0.673339844 0.0913085938
vt 0.725097656 0.00618743896
vt 0.776855469 0.0913085938
vt 0.776855469 0.00618362427
vt 0.828613281 0.0913085938
vt 0.828613281 0.00617599487
vt 0.880371094 0.0913085938
vt 0.880371094 0.00617218018
vt 0.932128906 0.0912475586
vt 0.932128906 0.00616836548
vt 0.983886719 0.0912475586
vt 0.983886719 0.00616455078
vt 0.72265625 0.397216797
vt 0.72265625 0.440185547
vt 0.700683594 0.440185547
vt 0.700683594 0.397216797
vt 0.676757812 0.440185547
vt 0.72265625 0.354003906
vt 0.676757812 0.397216797
vt 0.700683594 0.354003906
vt 0.72265625 0.311035156
vt 0.676757812 0.354003906
vt 0.700683594 0.311035156
vt 0.72265625 0.268310547
vt 0.676757812 0.311035156
vt 0.700683594 0.268310547
vt 0.72265625 0.225341797
vt 0.676757812 0.268310547
vt 0.700683594 0.225341797
vt 0.72265625 0.182373047
vt 0.676757812 0.225341797
vt 0.700683594 0.182373047
vt 0.72265625 0.139282227
vt 0.676757812 0.182373047
vt 0.700683594 0.139282227
vt 0.72265625 0.0963134766
vt 0.676757812 0.139282227
vt 0.700683594 0.0963134766
vt 0.676757812 0.0963134766
vt 0.979492188 0.982910156
vt 0.990722656 0.958007812
vt 0.954589844 0.994628906
vt 0.979492188 0.933105469
vt 0.954589844 0.921875
vt 0.930175781 0.933105469
vt 0.918457031 0.958007812
vt 0.930175781 0.982910156
vt 0.603027344 0.503417969
vt 0.665039062 0.471679688
vt 0.603027344 0.471679688
vt 0.665039062 0.503417969
vt 0.603027344 0.535644531
vt 0.665039062 0.535644531
vt 0.603027344 0.567871094
vt 0.665039062 0.567871094
vt 0.603027344 0.599609375
vt 0.665039062 0.599609375
vt 0.603027344 0.631835938
vt 0.665039062 0.631835938
vt 0.603027344 0.6640625
vt 0.665039062 0.6640625
vt 0.759765625 0.824707031
vt 0.795898438 0.806152344
vt 0.795898438 0.824707031
vt 0.759765625 0.806152344
vt 0.795898438 0.787109375
vt 0.751953125 0.824707031
vt 0.759765625 0.787109375
vt 0.795898438 0.768554688
vt 0.751953125 0.806152344
vt 0.759765625 0.768554688
vt 0.795898438 0.75
vt 0.692871094 0.806152344
vt 0.692871094 0.824707031
vt 0.751953125 0.787109375
vt 0.759765625 0.75
vt 0.795898438 0.730957031
vt 0.751953125 0.768554688
vt 0.759765625 0.730957031
vt 0.795898438 0.711914062
vt 0.759765625 0.711914062
vt 0.751953125 0.75
vt 0.751953125 0.730957031
vt 0.751953125 0.711914062
vt 0.692871094 0.730957031
vt 0.692871094 0.711914062
vt 0.685546875 0.711914062
vt 0.692871094 0.75
vt 0.685546875 0.730957031
vt 0.649414062 0.711914062
vt 0.649414062 0.730957031
vt 0.685546875 0.75
vt 0.649414062 0.75
vt 0.692871094 0.768554688
vt 0.685546875 0.768554688
vt 0.649414062 0.768554688
vt 0.692871094 0.787109375
vt 0.685546875 0.787109375
vt 0.649414062 0.787109375
vt 0.685546875 0.806152344
vt 0.649414062 0.806152344
vt 0.685546875 0.824707031
vt 0.649414062 0.824707031
vt 0.809570312 0.679199219
vt 0.799316406 0.697753906
vt 0.77734375 0.697753906
vt 0.766601562 0.679199219
vt 0.77734375 0.660644531
vt 0.798828125 0.660644531
vt 0.53515625 0.503417969
vt 0.596679688 0.471435547
vt 0.53515625 0.471435547
vt 0.596679688 0.503417969
vt 0.53515625 0.535644531
vt 0.596679688 0.535644531
vt 0.53515625 0.567382812
vt 0.596679688 0.567382812
vt 0.53515625 0.599609375
vt 0.596679688 0.599609375
vt 0.53515625 0.631835938
vt 0.596679688 0.631835938
vt 0.53515625 0.663574219
vt 0.596679688 0.663574219
vt 0.752929688 0.468017578
vt 0.780761719 0.484375
vt 0.780761719 0.451904297
vt 0.753417969 0.500488281
vt 0.809082031 0.468017578
vt 0.780761719 0.516601562
vt 0.80859375 0.500488281
vt 0.690429688 0.506347656
vt 0.706542969 0.478271484
vt 0.673828125 0.478515625
vt 0.72265625 0.505859375
vt 0.689941406 0.450683594
vt 0.738769531 0.478271484
vt 0.72265625 0.450439453
vt 0.752929688 0.468017578
vt 0.780761719 0.451904297
vt 0.780761719 0.484375
vt 0.753417969 0.500488281
vt 0.809082031 0.468017578
vt 0.780761719 0.516601562
vt 0.80859375 0.500488281
vt 0.690429688 0.506347656
vt 0.673828125 0.478515625
vt 0.706542969 0.478271484
vt 0.72265625 0.505859375
vt 0.689941406 0.450683594
vt 0.738769531 0.478271484
vt 0.72265625 0.450439453
vt 0.963378906 0.834960938
vt 0.940917969 0.795410156
vt 0.985839844 0.795410156
vt 0.91796875 0.834960938
vt 0.963378906 0.756347656
vt 0.895019531 0.795410156
vt 0.91796875 0.756347656
vt 0.713867188 0.702148438
vt 0.713867188 0.656738281
vt 0.753417969 0.6796875
vt 0.674804688 0.6796875
vt 0.753417969 0.634277344
vt 0.674316406 0.634277344
vt 0.713867188 0.611328125
vt 0.755371094 0.537109375
vt 0.715332031 0.560058594
vt 0.715332031 0.514160156
vt 0.755371094 0.583007812
vt 0.675292969 0.537109375
vt 0.715332031 0.605957031
vt 0.675292969 0.583007812
vt 0.893554688 0.780273438
vt 0.84765625 0.780273438
vt 0.870605469 0.740722656
vt 0.870605469 0.819824219
vt 0.825195312 0.740722656
vt 0.825195312 0.819824219
vt 0.802246094 0.780273438
vt 0.963378906 0.834960938
vt 0.985839844 0.795410156
vt 0.940917969 0.795410156
vt 0.91796875 0.834960938
vt 0.963378906 0.756347656
vt 0.895019531 0.795410156
vt 0.91796875 0.756347656
vt 0.713867188 0.702148438
vt 0.753417969 0.6796875
vt 0.713867188 0.656738281
vt 0.674804688 0.6796875
vt 0.753417969 0.634277344
vt 0.674316406 0.634277344
vt 0.713867188 0.611328125
vt 0.755371094 0.537109375
vt 0.715332031 0.514160156
vt 0.715332031 0.560058594
vt 0.755371094 0.583007812
vt 0.675292969 0.537109375
vt 0.715332031 0.605957031
vt 0.675292969 0.583007812
vt 0.893554688 0.780273438
vt 0.870605469 0.740722656
vt 0.84765625 0.780273438
vt 0.870605469 0.819824219
vt 0.825195312 0.740722656
vt 0.825195312 0.819824219
vt 0.802246094 0.780273438
vn -0.499850392 3.576784E-05 0.866111815
vn -1 7.18775482E-05 4.33637433E-06
vn -1 7.18775555E-05 4.59905414E-06
vn -0.499757409 3.57611643E-05 0.866165459
vn 0.501289427 -4.51348023E-06 0.865279675
vn 0.50136131 -4.51410506E-06 0.865238011
vn 1 -8.55805865E-06 -5.09924939E-06
vn 1 -8.55805865E-06 -4.83649228E-06
vn 0.501280725 -3.73798684E-06 -0.865284681
vn 0.501352787 -3.73864168E-06 -0.865243018
vn -0.499858499 3.65017731E-05 -0.866107047
vn -0.499765724 3.64951666E-05 -0.866160631
vn -1 7.18775482E-05 4.33637433E-06
vn -1 7.18775555E-05 4.59905414E-06
vn -1 3.72025653E-07 4.40325721E-06
vn -1 3.72025653E-07 4.40325675E-06
vn -0.499100208 1.85309645E-07 0.866544306
vn -0.499100477 1.85309773E-07 0.866544127
vn 0.502137542 -1.24497845E-07 0.864787757
vn 0.502137542 -1.24497845E-07 0.864787757
vn 1 -4.98079544E-07 -5.62198147E-06
vn 1 -4.98079601E-07 -5.62198011E-06
vn 0.502128303 -3.75689069E-07 -0.864793181
vn 0.502127826 -3.75688671E-07 -0.86479336
vn -0.499108672 1.85730926E-07 -0.866539359
vn -0.499109 1.85731039E-07 -0.866539299
vn -1 3.72025653E-07 4.40325675E-06
vn -1 3.72025653E-07 4.40325721E-06
vn -1 3.66384342E-07 3.89944671E-06
vn -1 3.66384398E-07 3.89944626E-06
vn -0.499100149 1.83218205E-07 0.866544306
vn -0.499100298 1.83218262E-07 0.866544187
vn 0.502138197 -4.36474068E-07 0.8647874
vn 0.502137959 -4.36473897E-07 0.864787579
vn 1 -8.52232461E-07 -5.66573135E-06
vn 1 -8.52232461E-07 -5.9719755E-06
vn 0.502128422 -4.18762426E-07 -0.864793062
vn 0.502127945 -4.18762085E-07 -0.86479336
vn -0.499108642 1.81846403E-07 -0.866539478
vn -0.499108911 1.81846474E-07 -0.866539299
vn -1 3.66384398E-07 3.89944626E-06
vn -1 3.66384342E-07 3.89944671E-06
vn -0.706804276 1.97090185E-06 -0.707409203
vn -0.904250681 0.427001953 4.83000349E-06
vn -1 3.41427858E-06 5.11877397E-06
vn -0.640600622 0.422421396 -0.641241729
vn -0.565171182 0.824973583 3.18112006E-06
vn 0.00210218783 -1.04092607E-07 -0.999997854
vn -0.400099099 0.824580848 -0.399983764
vn 0.00187728775 0.427185804 -0.90416193
vn 0.709038138 -2.07788298E-06 -0.705170214
vn 0.00131875381 0.825420797 -0.564516306
vn 0.642640948 0.422219396 -0.639330387
vn 1 -2.44277726E-06 -5.64330912E-06
vn 0.401991069 0.824136257 -0.399002016
vn 0.904390216 0.426706374 -4.99623184E-06
vn 0.709045947 -1.39084386E-06 0.705162287
vn 0.566216826 0.824256301 -2.76817468E-06
vn 0.642647505 0.422219306 0.639323771
vn 0.00211243052 2.78721501E-07 0.999997854
vn 0.401995271 0.82413578 0.398998648
vn 0.00188652659 0.427185506 0.904162109
vn -0.706797361 2.66413622E-06 0.707416117
vn 0.00132400508 0.825420141 0.564517319
vn -0.640594006 0.422421366 0.641248405
vn -1 3.41427858E-06 5.11877397E-06
vn -0.400094926 0.824580491 0.399988919
vn -0.904250681 0.427001953 4.83000349E-06
vn -0.565171182 0.824973583 3.18112006E-06
vn -0 1 0
vn -0 1 0
vn -0 1 0
vn -0 1 0
vn -0 1 0
vn -0 1 0
vn -0 1 0
vn -0 1 0
vn 1.08322592E-06 -0.498996675 -0.866603792
vn 9.36065021E-07 -1 4.53874736E-06
vn 9.36065931E-07 -1 3.66139352E-06
vn 1.08321399E-06 -0.49898386 -0.866611362
vn 1.91484943E-07 0.500299871 -0.865852296
vn 1.91513564E-07 0.500265837 -0.865871906
vn -4.311579E-07 1 -5.1056345E-06
vn -4.31157702E-07 1 -5.56523901E-06
vn -4.17738335E-07 0.500308633 0.86584717
vn -4.17724181E-07 0.500275612 0.865866244
vn -0 -0.498988003 0.866608918
vn -0 -0.498976052 0.866615713
vn 9.36065021E-07 -1 4.53874736E-06
vn 9.36065931E-07 -1 3.66139352E-06
vn -0.923068047 -0.384636521 3.5934188E-06
vn -1 0 3.74963133E-06
vn -0.498978466 0 0.866614282
vn -0.461027741 -0.38392967 0.800032139
vn 0.500276208 0 0.865865886
vn -0.868780315 -0.495197773 3.38634572E-06
vn 0.462215811 -0.383872628 0.799373746
vn 1 0 -5.91626122E-06
vn -0.433106452 -0.493759394 0.754069328
vn 0.923123538 -0.384503484 -5.46545834E-06
vn 0.500267088 0 -0.865871131
vn -0.433106601 0.493758768 0.754069567
vn -0.868781209 0.495196223 3.39660232E-06
vn 0.43435356 -0.493561178 0.753481507
vn 0.462207228 -0.38387239 -0.799378753
vn -0.498985767 0 -0.866610169
vn 0.869054973 -0.494715482 -4.82103815E-06
vn -0.461034238 -0.383929223 -0.800028622
vn -1 0 3.74963133E-06
vn -0.923068047 -0.384636521 3.5934188E-06
vn 0.434346735 -0.493560582 -0.753485799
vn -0.433113933 -0.493758649 -0.754065454
vn -0.868780315 -0.495197773 3.38634572E-06
vn -0.433114111 0.493758112 -0.754065752
vn -0.868781209 0.495196223 3.39660232E-06
vn -0.923068285 0.384636074 3.56659621E-06
vn 0.434347183 0.493558735 -0.753486812
vn -0.461034358 0.383928359 -0.80002892
vn -1 0 3.7277066E-06
vn -0.498985469 0 -0.866610348
vn 0.462207496 0.383871436 -0.79937917
vn 0.500267088 0 -0.865871131
vn 0.869056225 0.494713247 -4.84154407E-06
vn 0.923124135 0.384502083 -5.46545243E-06
vn 1 0 -5.8943433E-06
vn 0.434353977 0.493559241 0.753482521
vn 0.462216049 0.383871675 0.799374104
vn 0.500276208 0 0.865865886
vn -0.461027861 0.383928716 0.800032496
vn -0.498978227 0 0.86661458
vn -0.923068285 0.384636074 3.56659621E-06
vn -1 0 3.7277066E-06
vn -0.966560662 -0.256438196 6.49390222E-06
vn -0.499776036 -0.000483621494 0.866154552
vn -0.999999642 -0.000911511423 6.56734346E-06
vn -0.420609146 -0.105396293 0.901099086
vn 0.50132364 4.69575098E-05 0.865259886
vn -0.296951294 -0.297869891 0.90724504
vn -0.704858601 -0.709347785 2.62014669E-06
vn 0.532582998 0.129314095 0.836440802
vn 1 0.000148603503 -5.23044127E-06
vn 0.398115724 0.390695393 0.829976499
vn -0.105821691 -0.419547468 0.901544094
vn -0.248128682 -0.968727112 -1.65278034E-05
vn 0.973989725 0.226592198 -4.83893382E-06
vn 0.501315475 4.80337112E-05 -0.865264535
vn 0.713095069 0.701067328 -5.62897458E-06
vn 0.131912246 0.53153342 0.836702585
vn 0.105821379 -0.419547468 0.901544094
vn 0.248128682 -0.968727112 -1.64514822E-05
vn 0.704858541 -0.709347844 2.84576709E-06
vn 0.532574952 0.129315242 -0.836445749
vn -0.499785841 -0.00048190885 -0.866148889
vn -0.131912559 0.53153348 0.836702585
vn 0.296950966 -0.297869831 0.9072451
vn 0.966560662 -0.256438196 6.83189955E-06
vn 0.238163978 0.971224964 -1.5740774E-05
vn 0.398107409 0.39069128 -0.82998246
vn -0.420619071 -0.105394743 -0.901094615
vn -0.999999642 -0.000911511423 6.56734346E-06
vn -0.966560662 -0.256438196 6.49390222E-06
vn -0.704858601 -0.709347785 2.62014669E-06
vn -0.29695648 -0.29786858 -0.907243729
vn -0.248128682 -0.968727112 -1.65278034E-05
vn -0.105820864 -0.419538617 -0.901548266
vn 0.248128682 -0.968727112 -1.64514822E-05
vn 0.131908491 0.531519294 -0.836712301
vn -0.238163978 0.971224964 -1.58362818E-05
vn -0.131908223 0.531519294 -0.836712301
vn 0.105821177 -0.419538617 -0.901548266
vn -0.398115993 0.390695393 0.82997632
vn 0.296956807 -0.297868609 -0.90724355
vn 0.704858541 -0.709347844 2.84576709E-06
vn -0.398107052 0.39069131 -0.829982579
vn -0.713095009 0.701067328 -5.87833711E-06
vn 0.420608878 -0.105396293 0.901099205
vn 0.420619339 -0.105394751 -0.901094556
vn 0.966560662 -0.256438196 6.83189955E-06
vn 0.999999642 -0.000911513169 6.91703463E-06
vn 0.499786139 -0.000481908792 -0.86614871
vn -0.532574654 0.129315183 -0.836445868
vn -0.501315176 4.80337148E-05 -0.865264714
vn -0.973989725 0.226592198 -5.16740056E-06
vn -1 0.000148605002 -5.58013289E-06
vn -0.532583177 0.12931411 0.836440623
vn -0.501323938 4.69589868E-05 0.865259707
vn 0.499775827 -0.000483623298 0.86615473
vn 0.999999642 -0.000911513169 6.91703463E-06
vn 1 -2.04564529E-07 -1.04691881E-05
vn 1 -2.04564529E-07 -1.04691881E-05
vn 1 -2.04564529E-07 -1.04691881E-05
vn 1 -2.04564529E-07 -1.04691881E-05
vn -1.74845553E-07 0 1
vn -1.74845553E-07 0 1
vn -1.74845553E-07 0 1
vn -1.74845553E-07 0 1
vn 2.31023132E-05 1 0
vn 2.31027025E-05 1 8.08389232E-05
vn 2.31027025E-05 1 8.08389232E-05
vn 2.31023114E-05 1 0
vn 2.31019221E-05 1 -8.08390541E-05
vn 2.31019221E-05 1 -8.08390541E-05
vn 1.17069544E-06 -0.498996556 -0.86660403
vn 1.17337743E-06 -1 4.60452748E-06
vn 1.17337868E-06 -1 3.26674876E-06
vn 1.17068123E-06 -0.498983771 -0.866611362
vn -5.3443091E-07 0.500299752 -0.865852296
vn -5.34354172E-07 0.500266314 -0.865871549
vn -1.35066887E-06 1 -4.88650676E-06
vn -1.35066921E-06 1 -5.36804691E-06
vn -8.16547526E-07 0.50030911 0.865846813
vn -8.16533827E-07 0.500275671 0.865866244
vn -0 -0.498987645 0.866609097
vn -0 -0.498975843 0.866615891
vn 1.17337743E-06 -1 4.60452748E-06
vn 1.17337868E-06 -1 3.26674876E-06
vn 1 2.32540551E-05 8.60679138E-05
vn 1 2.32540551E-05 8.60679138E-05
vn 1 2.23918687E-05 1.68210579E-06
vn 1 2.23918705E-05 1.68217923E-06
vn 1 2.15296841E-05 -8.2703511E-05
vn 1 2.15296841E-05 -8.2703511E-05
vn -0 -1 3.6833078E-06
vn 1.51522968E-07 -0.49898535 -0.866610348
vn -0 -1 3.6833078E-06
vn 1.51522968E-07 -0.49898535 -0.866610348
vn 1.51393763E-07 0.500266492 -0.865871489
vn 1.51393763E-07 0.500266492 -0.865871489
vn -0 1 -4.4259009E-06
vn -0 1 -4.4259009E-06
vn -1.51392939E-07 0.500274777 0.865866661
vn -1.51392939E-07 0.500274777 0.865866661
vn -1.5152375E-07 -0.498977691 0.866614819
vn -1.5152375E-07 -0.498977691 0.866614819
vn -0 -1 3.6833078E-06
vn -0 -1 3.6833078E-06
vn -1 -2.04564529E-07 -1.08188806E-05
vn -1 -2.04564529E-07 -1.08188806E-05
vn -1 -2.04564529E-07 -1.08188806E-05
vn -1 -2.04564529E-07 -1.08188806E-05
vn -1 2.36854066E-05 8.49653297E-05
vn -1 2.28232566E-05 1.33241895E-06
vn -1 2.36854066E-05 8.49653297E-05
vn -1 2.28232548E-05 1.3323056E-06
vn -1 2.19611047E-05 -8.23005103E-05
vn -1 2.19611047E-05 -8.23005103E-05
vn 1 2.25535423E-05 8.52778467E-05
vn 1 2.25535423E-05 8.52778467E-05
vn 1 2.29614088E-05 8.87250849E-07
vn 1 2.29614107E-05 8.8733691E-07
vn 1 2.33692772E-05 -8.35032188E-05
vn 1 2.3369279E-05 -8.35032188E-05
vn -0 -1 4.23141819E-06
vn 1.51522968E-07 -0.49898535 -0.866610348
vn -0 -1 4.23141819E-06
vn 1.51522968E-07 -0.49898535 -0.866610348
vn 1.51393792E-07 0.500266194 -0.865871549
vn 1.51393792E-07 0.500266194 -0.865871549
vn -0 1 -5.10512155E-06
vn -0 1 -5.10512155E-06
vn -1.51392911E-07 0.500275195 0.865866482
vn -1.51392911E-07 0.500275195 0.865866482
vn -1.51523793E-07 -0.498977304 0.866615117
vn -1.51523793E-07 -0.498977304 0.866615117
vn -0 -1 4.23141819E-06
vn -0 -1 4.23141819E-06
vn -1 2.25535423E-05 8.49281496E-05
vn -1 2.29614143E-05 5.37559686E-07
vn -1 2.25535423E-05 8.49281496E-05
vn -1 2.29614143E-05 5.37645747E-07
vn -1 2.33692808E-05 -8.38529159E-05
vn -1 2.33692808E-05 -8.38529159E-05
vn 0.499850154 3.5816327E-05 0.866111994
vn 1 7.18772353E-05 4.5983661E-06
vn 1 7.1877228E-05 4.35757738E-06
vn 0.499757141 3.58096549E-05 0.866165638
vn -0.501289964 -4.46480044E-06 0.865279317
vn -0.501361847 -4.46542481E-06 0.865237772
vn -1 -8.58231761E-06 -5.47082436E-06
vn -1 -8.58231761E-06 -5.29560066E-06
vn -0.501280665 -3.85992462E-06 -0.865284801
vn -0.501352668 -3.86057582E-06 -0.865243018
vn 0.499858469 3.64040279E-05 -0.866107166
vn 0.499765664 3.63974104E-05 -0.866160631
vn 1 7.1877228E-05 4.35757738E-06
vn 1 7.18772353E-05 4.5983661E-06
vn 1 3.73110055E-07 4.51199503E-06
vn 0.49909994 3.3010852E-07 0.866544485
vn 1 3.73110055E-07 4.51199458E-06
vn 0.499100268 3.30108577E-07 0.866544306
vn -0.502138019 0 0.864787459
vn -0.502137899 0 0.864787579
vn -1 -4.27391541E-07 -5.88417424E-06
vn -1 -4.27391484E-07 -5.88417151E-06
vn -0.502128363 -3.75697425E-07 -0.864793062
vn -0.502127886 -3.75697084E-07 -0.86479336
vn 0.499108583 1.85722442E-07 -0.866539478
vn 0.499108851 1.85722527E-07 -0.866539299
vn 1 3.73110055E-07 4.51199458E-06
vn 1 3.73110055E-07 4.51199503E-06
vn 1 3.67440236E-07 4.68723329E-06
vn 0.499099672 1.83218319E-07 0.866544545
vn 1 3.67440265E-07 4.68723283E-06
vn 0.49909991 1.8321839E-07 0.866544485
vn -0.502138495 -3.66489786E-07 0.864787221
vn -0.502138197 -3.66489672E-07 0.8647874
vn -1 -9.22105073E-07 -6.03729677E-06
vn -1 -9.22105073E-07 -6.0591683E-06
vn -0.502128184 -6.99901591E-07 -0.864793181
vn -0.502127886 -6.9990125E-07 -0.86479336
vn 0.499108911 0 -0.866539299
vn 0.499109149 0 -0.86653918
vn 1 3.67440265E-07 4.68723283E-06
vn 1 3.67440236E-07 4.68723329E-06
vn 0.706804693 1.97925988E-06 -0.707408786
vn 1 3.61511843E-06 5.18342404E-06
vn 0.904250681 0.427001983 4.86598174E-06
vn 0.640601039 0.422421426 -0.641241193
vn 0.565171301 0.824973583 3.67403027E-06
vn -0.00210187957 0 -0.999997854
vn 0.400099069 0.824580848 -0.399983823
vn -0.00187701639 0.427185863 -0.90416193
vn -0.709038198 -2.07369044E-06 -0.705170155
vn -0.00131868431 0.825420976 -0.564516187
vn -0.642640889 0.422219425 -0.639330506
vn -1 -2.44277726E-06 -5.99299983E-06
vn -0.40199101 0.824136257 -0.399002105
vn -0.904390216 0.426706374 -5.2627488E-06
vn -0.709046185 -1.39084386E-06 0.705161989
vn -0.566216767 0.824256361 -3.42140925E-06
vn -0.642647743 0.422219485 0.639323473
vn -0.00211247499 7.7212303E-07 0.999997854
vn -0.40199545 0.824136019 0.398998052
vn -0.00188658771 0.427185893 0.90416193
vn 0.706797063 3.36651919E-06 0.707416356
vn -0.00132397038 0.82542038 0.564516902
vn 0.640594006 0.422421604 0.641248107
vn 1 3.61511843E-06 5.18342404E-06
vn 0.400095075 0.824580371 0.39998889
vn 0.904250681 0.427001983 4.86598174E-06
vn 0.565171301 0.824973583 3.67403027E-06
vn 1.25463572E-07 1 -2.67921934E-07
vn -0 1 -1.4031238E-07
vn -0 1 -1.60227501E-07
vn -0 1 -1.10644223E-07
vn -0 1 -1.07391152E-07
vn -0 1 -1.10577759E-07
vn -0 1 -1.3999454E-07
vn -1.23437559E-07 1 -2.66590234E-07
vn -7.80182347E-07 -0.498996675 -0.866603911
vn -8.32792296E-07 -1 3.46407228E-06
vn -8.32791613E-07 -1 4.31948456E-06
vn -7.80167852E-07 -0.49898386 -0.866611362
vn -0 0.500299692 -0.865852296
vn -0 0.500265658 -0.865871906
vn 5.3454977E-07 1 -5.91639946E-06
vn 5.3454977E-07 1 -5.93771529E-06
vn 7.32894932E-07 0.50030899 0.865846932
vn 7.32887372E-07 0.500275791 0.865866125
vn 1.5476968E-07 -0.498988152 0.866608739
vn 1.54780906E-07 -0.498976141 0.866615713
vn -8.32791613E-07 -1 4.31948456E-06
vn -8.32792296E-07 -1 3.46407228E-06
vn 0.923068047 -0.384636521 3.91620779E-06
vn 0.498978257 0 0.866614461
vn 1 0 4.09932181E-06
vn 0.461027503 -0.38392967 0.800032377
vn -0.500276208 0 0.865865886
vn 0.868780315 -0.495197773 3.59784826E-06
vn -0.462215781 -0.383872539 0.799373806
vn -1 -1.64723374E-07 -5.52099664E-06
vn 0.433106065 -0.493759274 0.754069567
vn -0.923123538 -0.384503394 -5.18538855E-06
vn -0.500267267 -4.92691413E-07 -0.865871012
vn 0.433105707 0.493757993 0.75407052
vn 0.868781209 0.495196164 4.82854421E-06
vn -0.43435362 -0.493560851 0.753481686
vn -0.462207854 -0.383872271 -0.799378455
vn 0.498985678 -3.28129715E-07 -0.866610169
vn -0.869055152 -0.494715273 -4.10983466E-06
vn 0.461034119 -0.383928984 -0.800028741
vn 1 0 4.09932181E-06
vn 0.923068047 -0.384636521 3.91620779E-06
vn -0.434346676 -0.493559986 -0.753486216
vn 0.433114111 -0.493758291 -0.754065692
vn 0.868780315 -0.495197773 3.59784826E-06
vn 0.433114797 0.493758291 -0.754065275
vn 0.868781209 0.495196164 4.82854421E-06
vn 0.923068345 0.384636074 3.52731422E-06
vn -0.434346944 0.493558615 -0.753487051
vn 0.461033791 0.383928567 -0.800029218
vn 1 0 4.03354898E-06
vn 0.498984933 0 -0.866610706
vn -0.462208122 0.383871496 -0.799378693
vn -0.500267565 0 -0.865870833
vn -0.869056404 0.494712979 -4.13034059E-06
vn -0.923124254 0.384501874 -5.35954905E-06
vn -1 0 -5.76200546E-06
vn -0.434354365 0.493558377 0.753482878
vn -0.462216049 0.383871108 0.799374282
vn -0.500276089 0 0.865865946
vn 0.46102792 0.38392818 0.800032794
vn 0.498978019 0 0.86661464
vn 0.923068345 0.384636074 3.52731422E-06
vn 1 0 4.03354898E-06
vn -2.31023132E-05 1 0
vn -2.31026788E-05 1 8.08388213E-05
vn -2.31026788E-05 1 8.08388068E-05
vn -2.31023078E-05 1 0
vn -2.3101944E-05 1 -8.0839156E-05
vn -2.3101944E-05 1 -8.0839156E-05
vn -8.68042036E-07 -0.498996556 -0.86660403
vn -1.35136349E-06 -1 3.46407205E-06
vn -1.35136304E-06 -1 4.77993808E-06
vn -8.68025552E-07 -0.498983949 -0.866611242
vn 3.77292139E-07 0.500299692 -0.865852296
vn 3.7725215E-07 0.500265598 -0.865872025
vn 9.92105811E-07 1 -5.28093506E-06
vn 9.92105697E-07 1 -5.30231637E-06
vn 6.15108718E-07 0.50030905 0.865846932
vn 6.15081603E-07 0.500275552 0.865866244
vn -4.81301925E-07 -0.498987645 0.866609097
vn -4.8128544E-07 -0.498975754 0.866616011
vn -1.35136304E-06 -1 4.77993808E-06
vn -1.35136349E-06 -1 3.46407205E-06
vn -0.98826468 -0.0763707981 -0.132289067
vn -1 4.53038156E-05 -1.48534684E-06
vn -0.988373339 -0.152046546 -6.13389602E-07
vn -0.988256872 0.076544717 -0.132247388
vn -0.988265038 -0.0763698369 0.1322871
vn -0.988351762 0.152186438 -2.45146839E-06
vn -0.988257349 0.0765457973 0.132243291
vn -0.98826468 -0.0763706118 -0.132288948
vn -1 4.5452678E-05 -1.38040912E-06
vn -0.988373339 -0.152046397 -5.81412451E-07
vn -0.988256752 0.0765447617 -0.132247388
vn -0.988265038 -0.0763697326 0.132287145
vn -0.988351762 0.152186602 -2.55794725E-06
vn -0.988257229 0.076545991 0.13224332
vn 0.98826468 -0.0763707981 -0.132288709
vn 0.988373339 -0.152046546 -2.67764278E-07
vn 1 4.53062494E-05 -1.11613247E-06
vn 0.988256872 0.0765446797 -0.132247031
vn 0.988264918 -0.0763698295 0.132287443
vn 0.988351762 0.152186453 -2.21942855E-06
vn 0.988257229 0.0765458196 0.132243633
vn 0.988264799 -0.0763706192 -0.13228862
vn 0.988373339 -0.152046397 -2.35787113E-07
vn 1 4.5452678E-05 -1.03071795E-06
vn 0.988256872 0.0765447691 -0.132247031
vn 0.988264918 -0.0763697252 0.132287502
vn 0.988351762 0.152186602 -2.21232949E-06
vn 0.988257229 0.0765459985 0.132243693
vn 0.0851143673 0.985503435 0.146760464
vn 0.000174738685 1 0
vn 0.170149058 0.98541832 -8.97011319E-07
vn -0.0845276192 0.985540688 0.146848544
vn 0.0851127952 0.985503435 -0.146761328
vn -0.169700727 0.985495627 7.78662184E-07
vn -0.0845291242 0.985540688 -0.146847889
vn 0.143879071 -0.989595234 -8.42261556E-07
vn 0.000148754189 -1 0
vn 0.0719712228 -0.989656329 0.124098442
vn 0.0719698519 -0.989656329 -0.124099359
vn -0.0714743733 -0.989683151 0.124171443
vn -0.0714756548 -0.989683151 -0.124170914
vn -0.143496543 -0.989650846 6.59779744E-07
vn 0.0922298953 0.982956409 0.159029081
vn 0.000188683625 1 -1.9654081E-07
vn 0.184370428 0.982856929 -9.39965219E-07
vn -0.0915944949 0.983000159 0.159125611
vn 0.0922282487 0.982956409 -0.159030244
vn -0.18388705 0.98294729 7.75730655E-07
vn -0.0915962905 0.983000159 -0.159125134
vn 0.110454515 -0.993881106 -6.57550913E-07
vn 0.00011492514 -1 -1.25147096E-07
vn 0.0552500263 -0.993917406 0.09526667
vn 0.0552489795 -0.993917406 -0.0952674672
vn -0.0548679754 -0.99393326 0.0953215957
vn -0.0548690297 -0.993933141 -0.0953212902
vn -0.110158205 -0.993914068 4.67343114E-07
vn -0.0851144344 0.985503435 0.146760419
vn -0.170149043 0.98541832 -8.85766099E-07
vn -0.000174778004 1 -1.21661841E-07
vn 0.0845274702 0.985540807 0.146848485
vn -0.0851128921 0.985503435 -0.146761447
vn 0.169700727 0.985495627 8.09642245E-07
vn 0.0845291093 0.985540688 -0.146847874
vn -0.143879071 -0.989595234 -8.64250865E-07
vn -0.0719712004 -0.989656448 0.124098353
vn -0.000148756619 -1 -1.77583431E-07
vn -0.0719699115 -0.989656329 -0.124099448
vn 0.0714742988 -0.989683151 0.124171384
vn 0.0714756474 -0.989683151 -0.124170899
vn 0.143496558 -0.989650846 6.88667683E-07
vn -0.0922299549 0.982956409 0.159029067
vn -0.184370428 0.982856929 -1.00443799E-06
vn -0.000188678678 1 -2.11442497E-07
vn 0.0915944278 0.983000159 0.159125671
vn -0.0922281891 0.982956409 -0.159030274
vn 0.18388705 0.98294729 9.53421193E-07
vn 0.0915963873 0.983000159 -0.159125105
vn -0.110454515 -0.993881106 -6.78457127E-07
vn -0.0552500896 -0.993917406 0.0952667445
vn -0.000114937175 -1 0
vn -0.0552489907 -0.993917406 -0.0952674672
vn 0.0548679754 -0.99393326 0.0953216702
vn 0.054869011 -0.99393326 -0.095321238
vn 0.110158205 -0.993914068 5.41382974E-07
g A_build_jiaoshoujia_02_1_0
f 3/3/3 2/2/2 1/1/1
f 4/4/4 3/3/3 1/1/1
f 4/4/4 1/1/1 5/5/5
f 6/6/6 4/4/4 5/5/5
f 6/6/6 5/5/5 7/7/7
f 8/8/8 6/6/6 7/7/7
f 8/8/8 7/7/7 9/9/9
f 10/10/10 8/8/8 9/9/9
f 10/10/10 9/9/9 11/11/11
f 12/12/12 10/10/10 11/11/11
f 12/12/12 11/11/11 13/13/13
f 14/14/14 12/12/12 13/13/13
f 17/17/17 16/16/16 15/15/15
f 18/18/18 17/17/17 15/15/15
f 19/19/19 17/17/17 18/18/18
f 20/20/20 19/19/19 18/18/18
f 21/21/21 19/19/19 20/20/20
f 22/22/22 21/21/21 20/20/20
f 23/23/23 21/21/21 22/22/22
f 24/24/24 23/23/23 22/22/22
f 25/25/25 23/23/23 24/24/24
f 26/26/26 25/25/25 24/24/24
f 27/27/27 25/25/25 26/26/26
f 28/28/28 27/27/27 26/26/26
f 31/31/31 30/30/30 29/29/29
f 32/32/32 31/31/31 29/29/29
f 33/33/33 31/31/31 32/32/32
f 34/34/34 33/33/33 32/32/32
f 35/35/35 33/33/33 34/34/34
f 36/36/36 35/35/35 34/34/34
f 37/37/37 35/35/35 36/36/36
f 38/38/38 37/37/37 36/36/36
f 39/39/39 37/37/37 38/38/38
f 40/40/40 39/39/39 38/38/38
f 41/41/41 39/39/39 40/40/40
f 42/42/42 41/41/41 40/40/40
f 45/45/45 44/44/44 43/43/43
f 44/44/44 46/46/46 43/43/43
f 44/44/44 47/47/47 46/46/46
f 43/43/43 46/46/46 48/48/48
f 47/47/47 49/49/49 46/46/46
f 46/46/46 50/50/50 48/48/48
f 46/46/46 49/49/49 50/50/50
f 48/48/48 50/50/50 51/51/51
f 49/49/49 52/52/52 50/50/50
f 50/50/50 53/53/53 51/51/51
f 50/50/50 52/52/52 53/53/53
f 51/51/51 53/53/53 54/54/54
f 52/52/52 55/55/55 53/53/53
f 53/53/53 56/56/56 54/54/54
f 53/53/53 55/55/55 56/56/56
f 54/54/54 56/56/56 57/57/57
f 55/55/55 58/58/58 56/56/56
f 56/56/56 59/59/59 57/57/57
f 56/56/56 58/58/58 59/59/59
f 57/57/57 59/59/59 60/60/60
f 58/58/58 61/61/61 59/59/59
f 59/59/59 62/62/62 60/60/60
f 59/59/59 61/61/61 62/62/62
f 60/60/60 62/62/62 63/63/63
f 61/61/61 64/64/64 62/62/62
f 62/62/62 65/65/65 63/63/63
f 62/62/62 64/64/64 65/65/65
f 63/63/63 65/65/65 66/66/66
f 64/64/64 67/67/67 65/65/65
f 65/65/65 68/68/68 66/66/66
f 65/65/65 67/67/67 68/68/68
f 67/67/67 69/69/69 68/68/68
f 72/72/72 71/71/71 70/70/70
f 73/73/73 71/71/71 72/72/72
f 74/74/74 71/71/71 73/73/73
f 75/75/75 71/71/71 74/74/74
f 76/76/76 71/71/71 75/75/75
f 77/77/77 71/71/71 76/76/76
f 80/80/80 79/79/79 78/78/78
f 81/81/81 80/80/80 78/78/78
f 81/81/81 78/78/78 82/82/82
f 83/83/83 81/81/81 82/82/82
f 83/83/83 82/82/82 84/84/84
f 85/85/85 83/83/83 84/84/84
f 85/85/85 84/84/84 86/86/86
f 87/87/87 85/85/85 86/86/86
f 87/87/87 86/86/86 88/88/88
f 89/89/89 87/87/87 88/88/88
f 89/89/89 88/88/88 90/90/90
f 91/91/91 89/89/89 90/90/90
f 94/94/94 93/93/93 92/92/92
f 95/95/95 94/94/94 92/92/92
f 96/96/96 94/94/94 95/95/95
f 95/95/95 92/92/92 97/97/97
f 98/98/98 96/96/96 95/95/95
f 99/99/99 96/96/96 98/98/98
f 100/100/100 95/95/95 97/97/97
f 98/98/98 95/95/95 100/100/100
f 101/101/101 99/99/99 98/98/98
f 102/102/102 99/99/99 101/101/101
f 103/103/103 100/100/100 97/97/97
f 104/104/104 103/103/103 97/97/97
f 105/105/105 98/98/98 100/100/100
f 101/101/101 98/98/98 105/105/105
f 100/100/100 103/103/103 105/105/105
f 106/106/106 102/102/102 101/101/101
f 107/107/107 102/102/102 106/106/106
f 108/108/108 101/101/101 105/105/105
f 106/106/106 101/101/101 108/108/108
f 109/109/109 107/107/107 106/106/106
f 110/110/110 107/107/107 109/109/109
f 111/111/111 110/110/110 109/109/109
f 109/109/109 106/106/106 112/112/112
f 112/112/112 106/106/106 108/108/108
f 111/111/111 109/109/109 113/113/113
f 113/113/113 109/109/109 112/112/112
f 114/114/114 111/111/111 113/113/113
f 113/113/113 115/115/115 114/114/114
f 115/115/115 113/113/113 112/112/112
f 115/115/115 116/116/116 114/114/114
f 117/117/117 116/116/116 115/115/115
f 118/118/118 115/115/115 112/112/112
f 118/118/118 112/112/112 108/108/108
f 119/119/119 117/117/117 115/115/115
f 119/119/119 115/115/115 118/118/118
f 120/120/120 117/117/117 119/119/119
f 121/121/121 120/120/120 119/119/119
f 121/121/121 119/119/119 122/122/122
f 122/122/122 119/119/119 118/118/118
f 123/123/123 121/121/121 122/122/122
f 124/124/124 118/118/118 108/108/108
f 122/122/122 118/118/118 124/124/124
f 123/123/123 122/122/122 125/125/125
f 125/125/125 122/122/122 124/124/124
f 126/126/126 123/123/123 125/125/125
f 127/127/127 124/124/124 108/108/108
f 125/125/125 124/124/124 127/127/127
f 105/105/105 127/127/127 108/108/108
f 103/103/103 127/127/127 105/105/105
f 126/126/126 125/125/125 128/128/128
f 128/128/128 125/125/125 127/127/127
f 128/128/128 127/127/127 103/103/103
f 129/129/129 126/126/126 128/128/128
f 130/130/130 128/128/128 103/103/103
f 129/129/129 128/128/128 130/130/130
f 130/130/130 103/103/103 104/104/104
f 131/131/131 129/129/129 130/130/130
f 132/132/132 130/130/130 104/104/104
f 131/131/131 130/130/130 132/132/132
f 133/133/133 131/131/131 132/132/132
f 136/136/136 135/135/135 134/134/134
f 135/135/135 137/137/137 134/134/134
f 135/135/135 138/138/138 137/137/137
f 134/134/134 137/137/137 139/139/139
f 140/140/140 134/134/134 139/139/139
f 138/138/138 141/141/141 137/137/137
f 138/138/138 142/142/142 141/141/141
f 139/139/139 137/137/137 143/143/143
f 137/137/137 141/141/141 143/143/143
f 140/140/140 139/139/139 144/144/144
f 145/145/145 140/140/140 144/144/144
f 142/142/142 146/146/146 141/141/141
f 142/142/142 147/147/147 146/146/146
f 143/143/143 141/141/141 148/148/148
f 141/141/141 146/146/146 148/148/148
f 139/139/139 143/143/143 149/149/149
f 144/144/144 139/139/139 149/149/149
f 144/144/144 150/150/150 145/145/145
f 150/150/150 151/151/151 145/145/145
f 152/152/152 151/151/151 150/150/150
f 147/147/147 153/153/153 146/146/146
f 147/147/147 154/154/154 153/153/153
f 155/155/155 150/150/150 144/144/144
f 149/149/149 155/155/155 144/144/144
f 156/156/156 152/152/152 150/150/150
f 156/156/156 150/150/150 155/155/155
f 157/157/157 152/152/152 156/156/156
f 149/149/149 143/143/143 158/158/158
f 143/143/143 148/148/148 158/158/158
f 148/148/148 146/146/146 159/159/159
f 146/146/146 153/153/153 159/159/159
f 154/154/154 160/160/160 153/153/153
f 154/154/154 161/161/161 160/160/160
f 161/161/161 162/162/162 160/160/160
f 160/160/160 162/162/162 163/163/163
f 153/153/153 160/160/160 164/164/164
f 164/164/164 160/160/160 163/163/163
f 159/159/159 153/153/153 164/164/164
f 164/164/164 163/163/163 165/165/165
f 166/166/166 164/164/164 165/165/165
f 159/159/159 164/164/164 166/166/166
f 165/165/165 167/167/167 166/166/166
f 148/148/148 159/159/159 168/168/168
f 158/158/158 148/148/148 168/168/168
f 168/168/168 159/159/159 166/166/166
f 169/169/169 158/158/158 168/168/168
f 158/158/158 169/169/169 149/149/149
f 169/169/169 155/155/155 149/149/149
f 170/170/170 168/168/168 166/166/166
f 170/170/170 169/169/169 168/168/168
f 167/167/167 171/171/171 166/166/166
f 171/171/171 170/170/170 166/166/166
f 172/172/172 155/155/155 169/169/169
f 172/172/172 156/156/156 155/155/155
f 173/173/173 171/171/171 167/167/167
f 174/174/174 173/173/173 167/167/167
f 175/175/175 170/170/170 171/171/171
f 173/173/173 175/175/175 171/171/171
f 176/176/176 169/169/169 170/170/170
f 176/176/176 172/172/172 169/169/169
f 175/175/175 176/176/176 170/170/170
f 177/177/177 156/156/156 172/172/172
f 177/177/177 157/157/157 156/156/156
f 178/178/178 173/173/173 174/174/174
f 179/179/179 178/178/178 174/174/174
f 179/179/179 180/180/180 178/178/178
f 180/180/180 181/181/181 178/178/178
f 178/178/178 182/182/182 173/173/173
f 178/178/178 181/181/181 182/182/182
f 182/182/182 175/175/175 173/173/173
f 181/181/181 183/183/183 182/182/182
f 182/182/182 184/184/184 175/175/175
f 182/182/182 183/183/183 184/184/184
f 184/184/184 176/176/176 175/175/175
f 183/183/183 185/185/185 184/184/184
f 186/186/186 172/172/172 176/176/176
f 184/184/184 186/186/186 176/176/176
f 184/184/184 185/185/185 186/186/186
f 186/186/186 177/177/177 172/172/172
f 185/185/185 187/187/187 186/186/186
f 186/186/186 187/187/187 177/177/177
f 187/187/187 188/188/188 177/177/177
f 177/177/177 188/188/188 157/157/157
f 188/188/188 189/189/189 157/157/157
f 192/192/192 191/191/191 190/190/190
f 193/193/193 192/192/192 190/190/190
f 196/196/196 195/195/195 194/194/194
f 197/197/197 196/196/196 194/194/194
f 200/200/200 199/199/199 198/198/198
f 199/199/199 201/201/201 198/198/198
f 198/198/198 201/201/201 202/202/202
f 203/203/203 198/198/198 202/202/202
f 206/206/206 205/205/205 204/204/204
f 207/207/207 206/206/206 204/204/204
f 207/207/207 204/204/204 208/208/208
f 209/209/209 207/207/207 208/208/208
f 209/209/209 208/208/208 210/210/210
f 211/211/211 209/209/209 210/210/210
f 211/211/211 210/210/210 212/212/212
f 213/213/213 211/211/211 212/212/212
f 213/213/213 212/212/212 214/214/214
f 215/215/215 213/213/213 214/214/214
f 215/215/215 214/214/214 216/216/216
f 217/217/217 215/215/215 216/216/216
f 220/220/220 219/219/219 218/218/218
f 221/221/221 220/220/220 218/218/218
f 220/220/220 221/221/221 222/222/222
f 223/223/223 220/220/220 222/222/222
f 226/226/226 225/225/225 224/224/224
f 225/225/225 227/227/227 224/224/224
f 225/225/225 228/228/228 227/227/227
f 228/228/228 229/229/229 227/227/227
f 229/229/229 228/228/228 230/230/230
f 228/228/228 231/231/231 230/230/230
f 230/230/230 231/231/231 232/232/232
f 231/231/231 233/233/233 232/232/232
f 232/232/232 233/233/233 234/234/234
f 233/233/233 235/235/235 234/234/234
f 235/235/235 236/236/236 234/234/234
f 236/236/236 237/237/237 234/234/234
f 240/240/240 239/239/239 238/238/238
f 241/241/241 240/240/240 238/238/238
f 244/244/244 243/243/243 242/242/242
f 243/243/243 245/245/245 242/242/242
f 245/245/245 243/243/243 246/246/246
f 243/243/243 247/247/247 246/246/246
f 250/250/250 249/249/249 248/248/248
f 251/251/251 250/250/250 248/248/248
f 250/250/250 251/251/251 252/252/252
f 253/253/253 250/250/250 252/252/252
f 256/256/256 255/255/255 254/254/254
f 255/255/255 257/257/257 254/254/254
f 255/255/255 258/258/258 257/257/257
f 258/258/258 259/259/259 257/257/257
f 259/259/259 258/258/258 260/260/260
f 258/258/258 261/261/261 260/260/260
f 260/260/260 261/261/261 262/262/262
f 261/261/261 263/263/263 262/262/262
f 262/262/262 263/263/263 264/264/264
f 263/263/263 265/265/265 264/264/264
f 265/265/265 266/266/266 264/264/264
f 266/266/266 267/267/267 264/264/264
f 270/270/270 269/269/269 268/268/268
f 269/269/269 271/271/271 268/268/268
f 271/271/271 269/269/269 272/272/272
f 269/269/269 273/273/273 272/272/272
f 276/276/276 275/275/275 274/274/274
f 275/275/275 277/277/277 274/274/274
f 274/274/274 277/277/277 278/278/278
f 277/277/277 279/279/279 278/278/278
f 278/278/278 279/279/279 280/280/280
f 279/279/279 281/281/281 280/280/280
f 280/280/280 281/281/281 282/282/282
f 281/281/281 283/283/283 282/282/282
f 282/282/282 283/283/283 284/284/284
f 283/283/283 285/285/285 284/284/284
f 284/284/284 285/285/285 286/286/286
f 285/285/285 287/287/287 286/286/286
f 290/290/290 289/289/289 288/288/288
f 289/289/289 291/291/291 288/288/288
f 289/289/289 292/292/292 291/291/291
f 292/292/292 293/293/293 291/291/291
f 292/292/292 294/294/294 293/293/293
f 294/294/294 295/295/295 293/293/293
f 294/294/294 296/296/296 295/295/295
f 296/296/296 297/297/297 295/295/295
f 296/296/296 298/298/298 297/297/297
f 298/298/298 299/299/299 297/297/297
f 298/298/298 300/300/300 299/299/299
f 300/300/300 301/301/301 299/299/299
f 304/304/304 303/303/303 302/302/302
f 303/303/303 305/305/305 302/302/302
f 303/303/303 306/306/306 305/305/305
f 306/306/306 307/307/307 305/305/305
f 306/306/306 308/308/308 307/307/307
f 308/308/308 309/309/309 307/307/307
f 308/308/308 310/310/310 309/309/309
f 310/310/310 311/311/311 309/309/309
f 310/310/310 312/312/312 311/311/311
f 312/312/312 313/313/313 311/311/311
f 312/312/312 314/314/314 313/313/313
f 314/314/314 315/315/315 313/313/313
f 318/318/318 317/317/317 316/316/316
f 319/319/319 318/318/318 316/316/316
f 320/320/320 318/318/318 319/319/319
f 319/319/319 316/316/316 321/321/321
f 322/322/322 320/320/320 319/319/319
f 323/323/323 319/319/319 321/321/321
f 322/322/322 319/319/319 323/323/323
f 323/323/323 321/321/321 324/324/324
f 325/325/325 322/322/322 323/323/323
f 326/326/326 323/323/323 324/324/324
f 325/325/325 323/323/323 326/326/326
f 326/326/326 324/324/324 327/327/327
f 328/328/328 325/325/325 326/326/326
f 329/329/329 326/326/326 327/327/327
f 328/328/328 326/326/326 329/329/329
f 329/329/329 327/327/327 330/330/330
f 331/331/331 328/328/328 329/329/329
f 332/332/332 329/329/329 330/330/330
f 331/331/331 329/329/329 332/332/332
f 332/332/332 330/330/330 333/333/333
f 334/334/334 331/331/331 332/332/332
f 335/335/335 332/332/332 333/333/333
f 334/334/334 332/332/332 335/335/335
f 335/335/335 333/333/333 336/336/336
f 337/337/337 334/334/334 335/335/335
f 338/338/338 335/335/335 336/336/336
f 337/337/337 335/335/335 338/338/338
f 338/338/338 336/336/336 339/339/339
f 340/340/340 337/337/337 338/338/338
f 341/341/341 338/338/338 339/339/339
f 340/340/340 338/338/338 341/341/341
f 342/342/342 340/340/340 341/341/341
f 345/345/345 344/344/344 343/343/343
f 345/345/345 346/346/346 344/344/344
f 345/345/345 347/347/347 346/346/346
f 345/345/345 348/348/348 347/347/347
f 345/345/345 349/349/349 348/348/348
f 345/345/345 350/350/350 349/349/349
f 353/353/353 352/352/352 351/351/351
f 352/352/352 354/354/354 351/351/351
f 351/351/351 354/354/354 355/355/355
f 354/354/354 356/356/356 355/355/355
f 355/355/355 356/356/356 357/357/357
f 356/356/356 358/358/358 357/357/357
f 357/357/357 358/358/358 359/359/359
f 358/358/358 360/360/360 359/359/359
f 359/359/359 360/360/360 361/361/361
f 360/360/360 362/362/362 361/361/361
f 361/361/361 362/362/362 363/363/363
f 362/362/362 364/364/364 363/363/363
f 367/367/367 366/366/366 365/365/365
f 366/366/366 368/368/368 365/365/365
f 366/366/366 369/369/369 368/368/368
f 365/365/365 368/368/368 370/370/370
f 369/369/369 371/371/371 368/368/368
f 369/369/369 372/372/372 371/371/371
f 368/368/368 373/373/373 370/370/370
f 368/368/368 371/371/371 373/373/373
f 372/372/372 374/374/374 371/371/371
f 372/372/372 375/375/375 374/374/374
f 373/373/373 376/376/376 370/370/370
f 376/376/376 377/377/377 370/370/370
f 371/371/371 378/378/378 373/373/373
f 371/371/371 374/374/374 378/378/378
f 376/376/376 373/373/373 378/378/378
f 375/375/375 379/379/379 374/374/374
f 375/375/375 380/380/380 379/379/379
f 374/374/374 381/381/381 378/378/378
f 374/374/374 379/379/379 381/381/381
f 380/380/380 382/382/382 379/379/379
f 380/380/380 383/383/383 382/382/382
f 383/383/383 384/384/384 382/382/382
f 379/379/379 382/382/382 385/385/385
f 379/379/379 385/385/385 381/381/381
f 382/382/382 384/384/384 386/386/386
f 382/382/382 386/386/386 385/385/385
f 384/384/384 387/387/387 386/386/386
f 388/388/388 386/386/386 387/387/387
f 386/386/386 388/388/388 385/385/385
f 389/389/389 388/388/388 387/387/387
f 389/389/389 390/390/390 388/388/388
f 388/388/388 391/391/391 385/385/385
f 385/385/385 391/391/391 381/381/381
f 390/390/390 392/392/392 388/388/388
f 388/388/388 392/392/392 391/391/391
f 390/390/390 393/393/393 392/392/392
f 393/393/393 394/394/394 392/392/392
f 392/392/392 394/394/394 395/395/395
f 392/392/392 395/395/395 391/391/391
f 394/394/394 396/396/396 395/395/395
f 391/391/391 397/397/397 381/381/381
f 391/391/391 395/395/395 397/397/397
f 395/395/395 396/396/396 398/398/398
f 395/395/395 398/398/398 397/397/397
f 396/396/396 399/399/399 398/398/398
f 397/397/397 400/400/400 381/381/381
f 397/397/397 398/398/398 400/400/400
f 400/400/400 378/378/378 381/381/381
f 400/400/400 376/376/376 378/378/378
f 398/398/398 399/399/399 401/401/401
f 398/398/398 401/401/401 400/400/400
f 400/400/400 401/401/401 376/376/376
f 399/399/399 402/402/402 401/401/401
f 401/401/401 403/403/403 376/376/376
f 401/401/401 402/402/402 403/403/403
f 376/376/376 403/403/403 377/377/377
f 402/402/402 404/404/404 403/403/403
f 403/403/403 405/405/405 377/377/377
f 403/403/403 404/404/404 405/405/405
f 404/404/404 406/406/406 405/405/405
f 409/409/409 408/408/408 407/407/407
f 410/410/410 409/409/409 407/407/407
f 410/410/410 407/407/407 411/411/411
f 407/407/407 412/412/412 411/411/411
f 415/415/415 414/414/414 413/413/413
f 414/414/414 416/416/416 413/413/413
f 413/413/413 416/416/416 417/417/417
f 416/416/416 418/418/418 417/417/417
f 417/417/417 418/418/418 419/419/419
f 418/418/418 420/420/420 419/419/419
f 419/419/419 420/420/420 421/421/421
f 420/420/420 422/422/422 421/421/421
f 421/421/421 422/422/422 423/423/423
f 422/422/422 424/424/424 423/423/423
f 423/423/423 424/424/424 425/425/425
f 424/424/424 426/426/426 425/425/425
f 429/429/429 428/428/428 427/427/427
f 427/427/427 428/428/428 430/430/430
f 429/429/429 431/431/431 428/428/428
f 430/430/430 428/428/428 432/432/432
f 433/433/433 428/428/428 431/431/431
f 432/432/432 428/428/428 433/433/433
f 436/436/436 435/435/435 434/434/434
f 434/434/434 435/435/435 437/437/437
f 436/436/436 438/438/438 435/435/435
f 437/437/437 435/435/435 439/439/439
f 440/440/440 435/435/435 438/438/438
f 439/439/439 435/435/435 440/440/440
f 443/443/443 442/442/442 441/441/441
f 443/443/443 441/441/441 444/444/444
f 445/445/445 442/442/442 443/443/443
f 443/443/443 444/444/444 446/446/446
f 443/443/443 447/447/447 445/445/445
f 443/443/443 446/446/446 447/447/447
f 450/450/450 449/449/449 448/448/448
f 450/450/450 448/448/448 451/451/451
f 452/452/452 449/449/449 450/450/450
f 450/450/450 451/451/451 453/453/453
f 450/450/450 454/454/454 452/452/452
f 450/450/450 453/453/453 454/454/454
f 457/457/457 456/456/456 455/455/455
f 455/455/455 456/456/456 458/458/458
f 459/459/459 456/456/456 457/457/457
f 458/458/458 456/456/456 460/460/460
f 461/461/461 456/456/456 459/459/459
f 460/460/460 456/456/456 461/461/461
f 464/464/464 463/463/463 462/462/462
f 462/462/462 463/463/463 465/465/465
f 466/466/466 463/463/463 464/464/464
f 465/465/465 463/463/463 467/467/467
f 468/468/468 463/463/463 466/466/466
f 467/467/467 463/463/463 468/468/468
f 471/471/471 470/470/470 469/469/469
f 469/469/469 470/470/470 472/472/472
f 473/473/473 470/470/470 471/471/471
f 472/472/472 470/470/470 474/474/474
f 475/475/475 470/470/470 473/473/473
f 474/474/474 470/470/470 475/475/475
f 478/478/478 477/477/477 476/476/476
f 476/476/476 477/477/477 479/479/479
f 480/480/480 477/477/477 478/478/478
f 479/479/479 477/477/477 481/481/481
f 482/482/482 477/477/477 480/480/480
f 481/481/481 477/477/477 482/482/482
f 485/485/485 484/484/484 483/483/483
f 485/485/485 483/483/483 486/486/486
f 485/485/485 487/487/487 484/484/484
f 485/485/485 486/486/486 488/488/488
f 485/485/485 489/489/489 487/487/487
f 485/485/485 488/488/488 489/489/489
f 492/492/492 491/491/491 490/490/490
f 492/492/492 490/490/490 493/493/493
f 492/492/492 494/494/494 491/491/491
f 492/492/492 493/493/493 495/495/495
f 492/492/492 496/496/496 494/494/494
f 492/492/492 495/495/495 496/496/496
f 499/499/499 498/498/498 497/497/497
f 499/499/499 497/497/497 500/500/500
f 499/499/499 501/501/501 498/498/498
f 499/499/499 500/500/500 502/502/502
f 499/499/499 503/503/503 501/501/501
f 499/499/499 502/502/502 503/503/503
f 506/506/506 505/505/505 504/504/504
f 506/506/506 504/504/504 507/507/507
f 506/506/506 508/508/508 505/505/505
f 506/506/506 507/507/507 509/509/509
f 506/506/506 510/510/510 508/508/508
f 506/506/506 509/509/509 510/510/510
