g A_build_jiaoshoujia_04
v 4.39349556 0.377951562 0.484273374
v 4.39349556 0.377951384 -2.2042079
v 4.23889589 0.467209846 -2.20420766
v 4.23889589 0.467209846 0.484273374
v 4.23889589 0.645726025 -2.20420766
v 4.23889589 0.645726323 0.484273374
v 4.39349556 0.734984517 -2.2042079
v 4.39349556 0.734984875 0.484273374
v 4.5480957 0.645726323 -2.2042079
v 4.5480957 0.645726323 0.484273374
v 4.5480957 0.467209846 -2.2042079
v 4.5480957 0.467209846 0.484273374
v 4.39349556 0.377951384 -2.2042079
v 4.39349556 0.377951562 0.484273374
v 4.39349556 3.47422695 0.484273374
v 4.39349556 3.47422695 -2.2042079
v 4.23889589 3.56348538 -2.20420766
v 4.23889542 3.56348538 0.484273374
v 4.23889589 3.7420001 -2.20420766
v 4.23889542 3.7420001 0.484273374
v 4.39349556 3.83125854 -2.2042079
v 4.39349556 3.83125901 0.484273374
v 4.5480957 3.7420001 -2.2042079
v 4.5480957 3.7420001 0.484273374
v 4.5480957 3.56348538 -2.2042079
v 4.5480957 3.56348538 0.484273374
v 4.39349556 3.47422695 -2.2042079
v 4.39349556 3.47422695 0.484273374
v 4.40775347 3.49109554 0.484273374
v 4.40775347 0.719385743 0.484273374
v 4.40775347 0.719385743 -1.8725282
v 4.40775347 3.49109554 -1.8725282
v 4.01800632 3.89944506 2.59863806
v 4.01800632 3.1798315 2.59863806
v 4.27112341 3.1798315 2.74477506
v 4.27112341 3.89944506 2.74477506
v 4.27112293 3.1798315 3.03704882
v 4.27112293 3.89944506 3.03704882
v 4.01800632 3.1798315 3.18318605
v 4.01800632 3.89944506 3.18318605
v 3.76488924 3.1798315 3.03704882
v 3.76488924 3.89944506 3.03704882
v 3.76488924 3.1798315 2.74477506
v 3.76488924 3.89944506 2.74477506
v 4.01800632 3.1798315 2.59863806
v 4.01800632 3.89944506 2.59863806
v 4.39349556 0.377951562 0.484273374
v 4.23889494 0.467209846 3.17275453
v 4.39349556 0.377951384 3.17275453
v 4.23889589 0.467209846 0.484273374
v 4.23889494 0.645726025 3.17275453
v 4.23889589 0.645726323 0.484273374
v 4.39349556 0.734984517 3.17275453
v 4.39349556 0.734984875 0.484273374
v 4.5480957 0.645726323 3.17275453
v 4.5480957 0.645726323 0.484273374
v 4.5480957 0.467209846 3.17275453
v 4.5480957 0.467209846 0.484273374
v 4.39349556 0.377951384 3.17275453
v 4.39349556 0.377951562 0.484273374
v 4.39349556 3.47422695 0.484273374
v 4.23889494 3.56348538 3.17275453
v 4.39349556 3.47422695 3.17275453
v 4.23889542 3.56348538 0.484273374
v 4.23889494 3.7420001 3.17275453
v 4.23889542 3.7420001 0.484273374
v 4.39349556 3.83125854 3.17275453
v 4.39349556 3.83125901 0.484273374
v 4.5480957 3.7420001 3.17275453
v 4.5480957 3.7420001 0.484273374
v 4.5480957 3.56348538 3.17275453
v 4.5480957 3.56348538 0.484273374
v 4.39349556 3.47422695 3.17275453
v 4.39349556 3.47422695 0.484273374
v 4.01800632 0.255408823 2.66433835
v 4.01800632 4.37851477 2.66433835
v 3.8217876 4.37851477 2.77762508
v 3.8217876 0.255408823 2.77762508
v 3.8217876 0.255408823 3.00419879
v 3.8217876 4.37851477 3.00419855
v 4.01800585 4.37851477 3.11748528
v 4.01800585 0.255408823 3.11748528
v 4.21422434 4.37851477 3.00419879
v 4.21422434 0.255408823 3.00419879
v 4.21422482 4.37851477 2.77762532
v 4.21422482 0.255408823 2.77762532
v 4.01800632 4.37851477 2.66433835
v 4.01800632 0.255408823 2.66433835
v 4.42689228 0.719385743 2.84107471
v 4.42689228 3.49109554 2.84107471
v 4.42689228 3.49109554 -1.87252831
v 4.42689228 0.719385743 -1.87252831
v 4.40775347 3.49109554 0.484273374
v 4.40775347 3.49109554 2.84107471
v 4.40775347 0.719385743 2.84107471
v 4.40775347 0.719385743 0.484273374
v 4.42063236 3.41692829 2.70484948
v 4.0805335 3.41692829 2.70484948
v 4.0805335 3.41692829 3.07697439
v 4.42063236 3.41692829 3.07697439
v 4.55751753 3.48716664 2.70484948
v 4.55751753 3.48716664 3.07697415
v 4.62608528 3.65274215 3.07697392
v 4.62608528 3.65274215 2.70484948
v 4.55751705 3.81831789 3.07697439
v 4.55751753 3.81831789 2.70484948
v 4.42063236 3.88855672 2.70484948
v 4.42063236 3.88855672 3.07697439
v 4.0805335 3.88855672 3.07697439
v 4.0805335 3.88855672 2.70484948
v 4.42063236 3.88855672 3.07697439
v 4.08053398 3.86555696 3.09353137
v 4.0805335 3.88855672 3.07697439
v 4.41606331 3.86555696 3.09353137
v 4.55751705 3.81831789 3.07697439
v 4.41606331 3.65274215 3.09353113
v 4.08053398 3.65274215 3.09353113
v 4.08053398 3.43992853 3.09353137
v 4.53905201 3.80201292 3.09353113
v 4.62608528 3.65274215 3.07697392
v 4.60182047 3.65274215 3.09353089
v 4.55751753 3.48716664 3.07697415
v 4.53905153 3.50347233 3.09353089
v 4.42063236 3.41692829 3.07697439
v 4.41606331 3.43992853 3.09353137
v 4.0805335 3.41692829 3.07697439
v 4.42063236 3.41692829 2.70484948
v 4.0805335 3.43992853 2.68829274
v 4.0805335 3.41692829 2.70484948
v 4.41606283 3.43992853 2.68829274
v 4.55751753 3.48716664 2.70484948
v 4.0805335 3.65274215 2.6882925
v 4.53905153 3.50347233 2.68829274
v 4.62608528 3.65274215 2.70484948
v 4.41606331 3.65274215 2.68829226
v 4.60182095 3.65274215 2.68829274
v 4.55751753 3.81831789 2.70484948
v 4.41606283 3.86555696 2.68829274
v 4.0805335 3.86555696 2.68829274
v 4.0805335 3.88855672 2.70484948
v 4.42063236 3.88855672 2.70484948
v 4.53905153 3.80201292 2.68829274
v 4.42063236 0.320653439 2.70484948
v 4.0805335 0.320653439 2.70484948
v 4.0805335 0.320653439 3.07697439
v 4.42063236 0.320653439 3.07697439
v 4.55751753 0.390891939 2.70484948
v 4.55751753 0.390891939 3.07697415
v 4.62608528 0.556467295 3.07697392
v 4.62608528 0.556467295 2.70484948
v 4.55751705 0.722042978 3.07697439
v 4.55751753 0.722042978 2.70484948
v 4.42063236 0.792281866 2.70484948
v 4.42063236 0.792281866 3.07697439
v 4.0805335 0.792281866 3.07697439
v 4.0805335 0.792281866 2.70484948
v 4.42063236 0.792281866 3.07697439
v 4.08053398 0.769281924 3.09353137
v 4.0805335 0.792281866 3.07697439
v 4.41606331 0.769281924 3.09353137
v 4.55751705 0.722042978 3.07697439
v 4.41606331 0.556467295 3.09353113
v 4.08053398 0.556467295 3.09353113
v 4.08053398 0.34365344 3.09353137
v 4.53905201 0.70573777 3.09353113
v 4.62608528 0.556467295 3.07697392
v 4.60182047 0.556467295 3.09353089
v 4.55751753 0.390891939 3.07697415
v 4.53905153 0.407197177 3.09353089
v 4.42063236 0.320653439 3.07697439
v 4.41606331 0.34365344 3.09353137
v 4.0805335 0.320653439 3.07697439
v 4.42063236 0.320653439 2.70484948
v 4.0805335 0.34365344 2.68829274
v 4.0805335 0.320653439 2.70484948
v 4.41606283 0.34365344 2.68829274
v 4.55751753 0.390891939 2.70484948
v 4.0805335 0.556467295 2.6882925
v 4.53905153 0.407197177 2.68829274
v 4.62608528 0.556467295 2.70484948
v 4.41606331 0.556467295 2.68829226
v 4.60182095 0.556467295 2.68829274
v 4.55751753 0.722042978 2.70484948
v 4.41606283 0.769281924 2.68829274
v 4.0805335 0.769281924 2.68829274
v 4.0805335 0.792281866 2.70484948
v 4.42063236 0.792281866 2.70484948
v 4.53905153 0.70573777 2.68829274
v 4.01800632 0.255408823 -1.69579148
v 3.8217876 4.37851477 -1.80907845
v 4.01800632 4.37851477 -1.69579148
v 3.8217876 0.255408823 -1.80907845
v 3.82178783 0.255408823 -2.03565192
v 3.8217876 4.37851477 -2.03565192
v 4.01800585 4.37851477 -2.14893842
v 4.01800585 0.255408823 -2.14893842
v 4.21422482 4.37851477 -2.03565192
v 4.21422482 0.255408823 -2.03565192
v 4.21422482 4.37851477 -1.80907845
v 4.21422482 0.255408823 -1.80907845
v 4.01800632 4.37851477 -1.69579148
v 4.01800632 0.255408823 -1.69579148
v 4.42063236 3.41692829 -1.73630273
v 4.0805335 3.41692829 -2.10842776
v 4.0805335 3.41692829 -1.73630273
v 4.42063236 3.41692829 -2.10842776
v 4.55751705 3.48716664 -1.73630273
v 4.55751705 3.48716664 -2.10842705
v 4.62608528 3.65274215 -2.10842729
v 4.62608528 3.65274215 -1.73630273
v 4.55751705 3.81831789 -2.10842776
v 4.55751705 3.81831789 -1.73630273
v 4.42063236 3.88855672 -1.73630273
v 4.42063236 3.88855672 -2.10842776
v 4.0805335 3.88855672 -2.10842776
v 4.0805335 3.88855672 -1.73630273
v 4.42063236 3.88855672 -2.10842776
v 4.0805335 3.88855672 -2.10842776
v 4.0805335 3.86555696 -2.1249845
v 4.41606331 3.86555696 -2.1249845
v 4.55751705 3.81831789 -2.10842776
v 4.41606331 3.65274215 -2.1249845
v 4.0805335 3.65274215 -2.1249845
v 4.0805335 3.43992853 -2.1249845
v 4.53905153 3.80201292 -2.1249845
v 4.62608528 3.65274215 -2.10842729
v 4.60182095 3.65274215 -2.12498403
v 4.55751705 3.48716664 -2.10842705
v 4.53905153 3.50347233 -2.12498403
v 4.42063236 3.41692829 -2.10842776
v 4.41606331 3.43992853 -2.1249845
v 4.0805335 3.41692829 -2.10842776
v 4.42063236 3.41692829 -1.73630273
v 4.0805335 3.41692829 -1.73630273
v 4.0805335 3.43992853 -1.71974587
v 4.41606331 3.43992853 -1.71974587
v 4.55751705 3.48716664 -1.73630273
v 4.0805335 3.65274215 -1.71974564
v 4.53905153 3.50347233 -1.71974587
v 4.62608528 3.65274215 -1.73630273
v 4.41606331 3.65274215 -1.71974564
v 4.60182095 3.65274215 -1.71974576
v 4.55751705 3.81831789 -1.73630273
v 4.41606331 3.86555696 -1.71974587
v 4.0805335 3.86555696 -1.71974587
v 4.0805335 3.88855672 -1.73630273
v 4.42063236 3.88855672 -1.73630273
v 4.53905153 3.80201292 -1.71974587
v 4.42063236 0.320653439 -1.73630273
v 4.0805335 0.320653439 -2.10842776
v 4.0805335 0.320653439 -1.73630273
v 4.42063236 0.320653439 -2.10842776
v 4.55751705 0.390891939 -1.73630273
v 4.55751705 0.390891939 -2.10842705
v 4.62608528 0.556467295 -2.10842729
v 4.62608528 0.556467295 -1.73630273
v 4.55751705 0.722042978 -2.10842776
v 4.55751705 0.722042978 -1.73630273
v 4.42063236 0.792281866 -1.73630273
v 4.42063236 0.792281866 -2.10842776
v 4.0805335 0.792281866 -2.10842776
v 4.0805335 0.792281866 -1.73630273
v 4.42063236 0.792281866 -2.10842776
v 4.0805335 0.792281866 -2.10842776
v 4.0805335 0.769281924 -2.1249845
v 4.41606331 0.769281924 -2.1249845
v 4.55751705 0.722042978 -2.10842776
v 4.41606331 0.556467295 -2.1249845
v 4.0805335 0.556467295 -2.1249845
v 4.0805335 0.34365344 -2.1249845
v 4.53905153 0.70573777 -2.1249845
v 4.62608528 0.556467295 -2.10842729
v 4.60182095 0.556467295 -2.12498403
v 4.55751705 0.390891939 -2.10842705
v 4.53905153 0.407197177 -2.12498403
v 4.42063236 0.320653439 -2.10842776
v 4.41606331 0.34365344 -2.1249845
v 4.0805335 0.320653439 -2.10842776
v 4.42063236 0.320653439 -1.73630273
v 4.0805335 0.320653439 -1.73630273
v 4.0805335 0.34365344 -1.71974587
v 4.41606331 0.34365344 -1.71974587
v 4.55751705 0.390891939 -1.73630273
v 4.0805335 0.556467295 -1.71974564
v 4.53905153 0.407197177 -1.71974587
v 4.62608528 0.556467295 -1.73630273
v 4.41606331 0.556467295 -1.71974564
v 4.60182095 0.556467295 -1.71974576
v 4.55751705 0.722042978 -1.73630273
v 4.41606331 0.769281924 -1.71974587
v 4.0805335 0.769281924 -1.71974587
v 4.0805335 0.792281866 -1.73630273
v 4.42063236 0.792281866 -1.73630273
v 4.53905153 0.70573777 -1.71974587
v 4.01800632 3.89944506 3.18318605
v 4.23143339 3.99033618 3.01413393
v 4.27112293 3.89944506 3.03704882
v 4.27112341 3.89944506 2.74477506
v 4.01800632 3.99033618 3.137357
v 3.76488924 3.89944506 3.03704882
v 3.80457878 3.99033618 3.01413417
v 3.76488924 3.89944506 2.74477506
v 4.01800585 3.99033618 2.64446783
v 3.80457878 3.99033618 2.76769066
v 4.01800632 3.89944506 2.59863806
v 4.23143339 3.99033618 2.76769066
v 4.01800632 0.255408823 3.17779207
v 4.01800585 0.255408823 3.11748528
v 4.21422434 0.255408823 3.00419879
v 3.8217876 0.255408823 3.00419879
v 4.26645136 0.255408823 3.03435135
v 4.21422482 0.255408823 2.77762532
v 4.26645184 0.255408823 2.74747181
v 4.01800632 0.255408823 2.66433835
v 4.01800632 0.255408823 2.60403204
v 3.8217876 0.255408823 2.77762508
v 3.76956081 0.255408823 2.74747181
v 3.76956081 0.255408823 3.0343523
v 4.30947876 0.209456056 3.05919337
v 4.30947876 0.209456056 2.72263002
v 4.01800585 0.209456056 3.22747517
v 4.01800585 0.209456056 2.55434799
v 3.72653341 0.209456056 2.72263002
v 3.72653365 0.209456056 3.05919337
v 4.30947876 0.122824878 3.05919337
v 4.30947876 0.122824878 2.72263002
v 4.01800585 0.122824878 3.22747517
v 4.01800585 0.122824878 2.55434799
v 3.72653365 0.122824878 3.05919337
v 3.72653341 0.122824878 2.72263002
v 4.17137957 4.42170286 2.97946215
v 4.21422434 4.37851477 3.00419879
v 4.01800585 4.37851477 3.11748528
v 4.21422482 4.37851477 2.77762532
v 4.01800585 4.42170286 3.068012
v 3.8217876 4.37851477 3.00419855
v 4.17138004 4.42170286 2.80236173
v 4.01800632 4.42170286 2.7138114
v 4.01800632 4.37851477 2.66433835
v 3.86463237 4.42170286 2.97946215
v 3.86463237 4.42170286 2.80236173
v 3.8217876 4.37851477 2.77762508
v 4.01800585 0.255408823 -2.20924544
v 4.21422482 0.255408823 -2.03565192
v 4.01800585 0.255408823 -2.14893842
v 3.82178783 0.255408823 -2.03565192
v 4.26645184 0.255408823 -2.06580496
v 4.21422482 0.255408823 -1.80907845
v 4.26645184 0.255408823 -1.77892518
v 4.01800632 0.255408823 -1.69579148
v 4.01800632 0.255408823 -1.63548505
v 3.8217876 0.255408823 -1.80907845
v 3.76956081 0.255408823 -1.77892494
v 3.76956081 0.255408823 -2.0658052
v 4.30947876 0.209456056 -2.09064674
v 4.30947876 0.209456056 -1.75408304
v 4.01800632 0.209456056 -2.25892854
v 4.01800585 0.209456056 -1.58580136
v 3.72653341 0.209456056 -1.75408304
v 3.72653365 0.209456056 -2.09064674
v 4.30947876 0.122824878 -2.09064674
v 4.30947876 0.122824878 -1.75408304
v 4.01800632 0.122824878 -2.25892854
v 4.01800585 0.122824878 -1.58580136
v 3.72653365 0.122824878 -2.09064674
v 3.72653341 0.122824878 -1.75408304
v 4.17138004 4.42170286 -2.01091552
v 4.01800585 4.37851477 -2.14893842
v 4.21422482 4.37851477 -2.03565192
v 4.21422482 4.37851477 -1.80907845
v 4.01800585 4.42170286 -2.09946537
v 3.8217876 4.37851477 -2.03565192
v 4.17138004 4.42170286 -1.8338151
v 4.01800632 4.42170286 -1.74526453
v 4.01800632 4.37851477 -1.69579148
v 3.86463237 4.42170286 -2.01091528
v 3.86463237 4.42170286 -1.83381498
v 3.8217876 4.37851477 -1.80907845
v 4.39349556 0.439093739 -2.25982809
v 4.29184628 0.497780681 -2.25982785
v 4.23889589 0.467209846 -2.20420766
v 4.39349556 0.377951384 -2.2042079
v 4.23889589 0.645726025 -2.20420766
v 4.49514437 0.497780681 -2.25982809
v 4.5480957 0.467209846 -2.2042079
v 4.29184628 0.61515522 -2.25982785
v 4.39349556 0.734984517 -2.2042079
v 4.39349556 0.67384243 -2.25982809
v 4.5480957 0.645726323 -2.2042079
v 4.49514437 0.61515522 -2.25982809
v 4.39349556 0.439093739 3.22837448
v 4.39349556 0.377951384 3.17275453
v 4.23889494 0.467209846 3.17275453
v 4.29184675 0.497780681 3.22837496
v 4.23889494 0.645726025 3.17275453
v 4.49514484 0.497780681 3.22837448
v 4.5480957 0.467209846 3.17275453
v 4.29184675 0.61515522 3.22837496
v 4.39349556 0.734984517 3.17275453
v 4.39349556 0.67384243 3.22837448
v 4.5480957 0.645726323 3.17275453
v 4.49514484 0.61515522 3.22837448
v 4.29184628 3.71143007 -2.25982785
v 4.23889589 3.7420001 -2.20420766
v 4.23889589 3.56348538 -2.20420766
v 4.29184628 3.59405565 -2.25982785
v 4.39349556 3.47422695 -2.2042079
v 4.39349556 3.77011752 -2.25982809
v 4.39349556 3.83125854 -2.2042079
v 4.39349556 3.53536868 -2.25982809
v 4.5480957 3.56348538 -2.2042079
v 4.49514437 3.59405565 -2.25982809
v 4.5480957 3.7420001 -2.2042079
v 4.49514437 3.71143007 -2.25982809
v 3.80457878 3.08894038 3.01413417
v 3.76488924 3.1798315 3.03704882
v 4.01800632 3.1798315 3.18318605
v 4.01800632 3.08894038 3.137357
v 4.27112293 3.1798315 3.03704882
v 3.80457878 3.08894038 2.76769066
v 3.76488924 3.1798315 2.74477506
v 4.01800585 3.08894038 2.64446783
v 4.01800632 3.1798315 2.59863806
v 4.23143339 3.08894038 3.01413393
v 4.27112341 3.1798315 2.74477506
v 4.23143339 3.08894038 2.76769066
v 4.29184675 3.71143007 3.22837448
v 4.29184675 3.59405565 3.22837448
v 4.23889494 3.56348538 3.17275453
v 4.23889494 3.7420001 3.17275453
v 4.39349556 3.47422695 3.17275453
v 4.39349556 3.77011752 3.22837448
v 4.39349556 3.83125854 3.17275453
v 4.39349556 3.53536868 3.22837448
v 4.5480957 3.56348538 3.17275453
v 4.49514484 3.59405565 3.22837448
v 4.5480957 3.7420001 3.17275453
v 4.49514484 3.71143007 3.22837448
vt 1.64746094 0.735839844
vt 1.33007812 0.735839844
vt 1.33007812 0.711914062
vt 1.64746094 0.711914062
vt 1.33007812 0.687988281
vt 1.64746094 0.687988281
vt 1.33007812 0.6640625
vt 1.64746094 0.6640625
vt 1.33007812 0.640136719
vt 1.64746094 0.640136719
vt 1.33007812 0.616210938
vt 1.64746094 0.616210938
vt 1.33007812 0.592773438
vt 1.64746094 0.592773438
vt 1.32128906 0.735839844
vt 1.00390625 0.735839844
vt 1.00390625 0.711914062
vt 1.32128906 0.711914062
vt 1.00390625 0.687988281
vt 1.32128906 0.687988281
vt 1.00390625 0.6640625
vt 1.32128906 0.6640625
vt 1.00390625 0.640136719
vt 1.32128906 0.640136719
vt 1.00390625 0.616210938
vt 1.32128906 0.616210938
vt 1.00390625 0.592773438
vt 1.32128906 0.592773438
vt 1.73730469 0.99609375
vt 1.73730469 0.691894531
vt 1.99609375 0.691894531
vt 1.99609375 0.99609375
vt 0.754394531 0.594238281
vt 0.754394531 0.679199219
vt 0.794433594 0.679199219
vt 0.794433594 0.594238281
vt 0.834472656 0.679199219
vt 0.834472656 0.594238281
vt 0.874511719 0.679199219
vt 0.874511719 0.594238281
vt 0.914550781 0.679199219
vt 0.914550781 0.594238281
vt 0.954589844 0.679199219
vt 0.954589844 0.594238281
vt 0.994628906 0.679199219
vt 0.994628906 0.594238281
vt 0.647460938 0.735839844
vt 0.330322266 0.711914062
vt 0.330322266 0.735839844
vt 0.647460938 0.711914062
vt 0.330322266 0.687988281
vt 0.647460938 0.687988281
vt 0.330322266 0.6640625
vt 0.647460938 0.6640625
vt 0.330322266 0.640136719
vt 0.647460938 0.640136719
vt 0.330322266 0.616210938
vt 0.647460938 0.616210938
vt 0.330322266 0.592773438
vt 0.647460938 0.592773438
vt 0.321044922 0.735839844
vt 0.00375747681 0.711914062
vt 0.00375747681 0.735839844
vt 0.321044922 0.711914062
vt 0.00375747681 0.687988281
vt 0.321044922 0.687988281
vt 0.00375747681 0.6640625
vt 0.321044922 0.6640625
vt 0.00375747681 0.640136719
vt 0.321044922 0.640136719
vt 0.00375747681 0.616210938
vt 0.321044922 0.616210938
vt 0.00375747681 0.592773438
vt 0.321044922 0.592773438
vt 0.489257812 0.811523438
vt 0.00261497498 0.811523438
vt 0.00261497498 0.842773438
vt 0.489257812 0.842773438
vt 0.489257812 0.873535156
vt 0.00261497498 0.873535156
vt 0.00261497498 0.904785156
vt 0.489257812 0.904785156
vt 0.00261497498 0.936035156
vt 0.489257812 0.936035156
vt 0.00261497498 0.966796875
vt 0.489257812 0.966796875
vt 0.00261497498 0.998046875
vt 0.489257812 0.998046875
vt 0.00363922119 0.00468063354
vt 0.00363922119 0.586914062
vt 0.993164062 0.586914062
vt 0.993164062 0.00468063354
vt 0.737304688 0.99609375
vt 0.99609375 0.99609375
vt 0.99609375 0.691894531
vt 0.737304688 0.691894531
vt 0.148681641 0.794921875
vt 0.197631836 0.794921875
vt 0.197631836 0.741699219
vt 0.148681641 0.741699219
vt 0.126586914 0.794921875
vt 0.126586914 0.741699219
vt 0.100769043 0.741699219
vt 0.100769043 0.794921875
vt 0.0749511719 0.741699219
vt 0.0749511719 0.794921875
vt 0.0527954102 0.794921875
vt 0.0527954102 0.741699219
vt 0.00384712219 0.741699219
vt 0.00384712219 0.794921875
vt 0.23059082 0.738769531
vt 0.279296875 0.742675781
vt 0.279296875 0.738769531
vt 0.231201172 0.742675781
vt 0.210571289 0.749023438
vt 0.231201172 0.7734375
vt 0.279296875 0.7734375
vt 0.279296875 0.804199219
vt 0.213867188 0.751464844
vt 0.200439453 0.7734375
vt 0.204711914 0.7734375
vt 0.210083008 0.796875
vt 0.213378906 0.794433594
vt 0.229858398 0.808105469
vt 0.231201172 0.804199219
vt 0.279296875 0.808105469
vt 0.332763672 0.808105469
vt 0.283203125 0.804199219
vt 0.283203125 0.808105469
vt 0.331298828 0.804199219
vt 0.352539062 0.796875
vt 0.283203125 0.7734375
vt 0.349121094 0.794433594
vt 0.362060547 0.7734375
vt 0.331298828 0.7734375
vt 0.357910156 0.7734375
vt 0.352050781 0.749023438
vt 0.331298828 0.742675781
vt 0.283203125 0.742675781
vt 0.283203125 0.73828125
vt 0.33203125 0.73828125
vt 0.348876953 0.751464844
vt 0.510742188 0.794921875
vt 0.559570312 0.794921875
vt 0.559570312 0.741699219
vt 0.510742188 0.741699219
vt 0.488525391 0.794921875
vt 0.488525391 0.741699219
vt 0.462646484 0.741699219
vt 0.462646484 0.794921875
vt 0.437011719 0.741699219
vt 0.437011719 0.794921875
vt 0.414794922 0.794921875
vt 0.414794922 0.741699219
vt 0.365722656 0.741699219
vt 0.365722656 0.794921875
vt 0.592773438 0.738769531
vt 0.641113281 0.742675781
vt 0.641113281 0.738769531
vt 0.593261719 0.742675781
vt 0.572753906 0.749023438
vt 0.593261719 0.7734375
vt 0.641113281 0.7734375
vt 0.641113281 0.804199219
vt 0.575683594 0.751464844
vt 0.5625 0.7734375
vt 0.566894531 0.7734375
vt 0.572265625 0.796875
vt 0.575195312 0.794433594
vt 0.591796875 0.808105469
vt 0.593261719 0.804199219
vt 0.641113281 0.808105469
vt 0.694824219 0.808105469
vt 0.645019531 0.804199219
vt 0.645019531 0.808105469
vt 0.693359375 0.804199219
vt 0.714355469 0.796875
vt 0.645019531 0.7734375
vt 0.7109375 0.794433594
vt 0.724121094 0.7734375
vt 0.693359375 0.7734375
vt 0.719726562 0.7734375
vt 0.713867188 0.749023438
vt 0.693359375 0.742675781
vt 0.645019531 0.742675781
vt 0.645019531 0.73828125
vt 0.693847656 0.73828125
vt 0.7109375 0.751464844
vt 1.48925781 0.811523438
vt 1.00292969 0.842773438
vt 1.00292969 0.811523438
vt 1.48925781 0.842773438
vt 1.48925781 0.873535156
vt 1.00292969 0.873535156
vt 1.00292969 0.904785156
vt 1.48925781 0.904785156
vt 1.00292969 0.936035156
vt 1.48925781 0.936035156
vt 1.00292969 0.966796875
vt 1.48925781 0.966796875
vt 1.00292969 0.998046875
vt 1.48925781 0.998046875
vt 1.1484375 0.794921875
vt 1.19726562 0.741699219
vt 1.19726562 0.794921875
vt 1.1484375 0.741699219
vt 1.12695312 0.794921875
vt 1.12695312 0.741699219
vt 1.10058594 0.741699219
vt 1.10058594 0.794921875
vt 1.07519531 0.741699219
vt 1.07519531 0.794921875
vt 1.05273438 0.794921875
vt 1.05273438 0.741699219
vt 1.00390625 0.741699219
vt 1.00390625 0.794921875
vt 1.23046875 0.738769531
vt 1.27929688 0.738769531
vt 1.27929688 0.742675781
vt 1.23144531 0.742675781
vt 1.2109375 0.749023438
vt 1.23144531 0.7734375
vt 1.27929688 0.7734375
vt 1.27929688 0.804199219
vt 1.21386719 0.751464844
vt 1.20019531 0.7734375
vt 1.20507812 0.7734375
vt 1.20996094 0.796875
vt 1.21289062 0.794433594
vt 1.22949219 0.808105469
vt 1.23144531 0.804199219
vt 1.27929688 0.808105469
vt 1.33300781 0.808105469
vt 1.28320312 0.808105469
vt 1.28320312 0.804199219
vt 1.33105469 0.804199219
vt 1.35253906 0.796875
vt 1.28320312 0.7734375
vt 1.34960938 0.794433594
vt 1.36230469 0.7734375
vt 1.33105469 0.7734375
vt 1.35742188 0.7734375
vt 1.3515625 0.749023438
vt 1.33105469 0.742675781
vt 1.28320312 0.742675781
vt 1.28320312 0.73828125
vt 1.33203125 0.73828125
vt 1.34863281 0.751464844
vt 1.51074219 0.794921875
vt 1.55957031 0.741699219
vt 1.55957031 0.794921875
vt 1.51074219 0.741699219
vt 1.48828125 0.794921875
vt 1.48828125 0.741699219
vt 1.46289062 0.741699219
vt 1.46289062 0.794921875
vt 1.43652344 0.741699219
vt 1.43652344 0.794921875
vt 1.41503906 0.794921875
vt 1.41503906 0.741699219
vt 1.36621094 0.741699219
vt 1.36621094 0.794921875
vt 1.59277344 0.738769531
vt 1.64160156 0.738769531
vt 1.64160156 0.742675781
vt 1.59277344 0.742675781
vt 1.57226562 0.749023438
vt 1.59277344 0.7734375
vt 1.64160156 0.7734375
vt 1.64160156 0.804199219
vt 1.57617188 0.751464844
vt 1.5625 0.7734375
vt 1.56640625 0.7734375
vt 1.57226562 0.796875
vt 1.57519531 0.794433594
vt 1.59179688 0.808105469
vt 1.59277344 0.804199219
vt 1.64160156 0.808105469
vt 1.69433594 0.808105469
vt 1.64550781 0.808105469
vt 1.64550781 0.804199219
vt 1.69335938 0.804199219
vt 1.71484375 0.796875
vt 1.64550781 0.7734375
vt 1.7109375 0.794433594
vt 1.72363281 0.7734375
vt 1.69335938 0.7734375
vt 1.71972656 0.7734375
vt 1.71386719 0.749023438
vt 1.69335938 0.742675781
vt 1.64550781 0.742675781
vt 1.64550781 0.73828125
vt 1.69433594 0.73828125
vt 1.7109375 0.751464844
vt 0.643554688 0.987792969
vt 0.6328125 0.947753906
vt 0.619628906 0.947753906
vt 0.643554688 0.907226562
vt 0.649414062 0.977050781
vt 0.689941406 0.987792969
vt 0.683105469 0.977050781
vt 0.712890625 0.947753906
vt 0.683105469 0.918457031
vt 0.700195312 0.947753906
vt 0.689453125 0.907226562
vt 0.649414062 0.918457031
vt 0.580566406 0.833984375
vt 0.576171875 0.841308594
vt 0.591796875 0.868652344
vt 0.545410156 0.841308594
vt 0.600097656 0.868652344
vt 0.576171875 0.895019531
vt 0.580078125 0.90234375
vt 0.544921875 0.895019531
vt 0.540527344 0.90234375
vt 0.529296875 0.868164062
vt 0.520996094 0.868164062
vt 0.541015625 0.833984375
vt 0.608886719 0.868652344
vt 0.584472656 0.91015625
vt 0.584960938 0.826171875
vt 0.536132812 0.91015625
vt 0.512207031 0.868164062
vt 0.536621094 0.826171875
vt 0.619140625 0.868652344
vt 0.58984375 0.918945312
vt 0.58984375 0.817871094
vt 0.53125 0.918945312
vt 0.53125 0.817871094
vt 0.501953125 0.868164062
vt 0.551757812 0.957519531
vt 0.54296875 0.957519531
vt 0.559570312 0.986328125
vt 0.559082031 0.929199219
vt 0.563476562 0.978515625
vt 0.592285156 0.986328125
vt 0.563964844 0.936523438
vt 0.587890625 0.936523438
vt 0.592285156 0.929199219
vt 0.587890625 0.978515625
vt 0.600097656 0.958007812
vt 0.608886719 0.958007812
vt 1.58105469 0.833984375
vt 1.59179688 0.868652344
vt 1.57617188 0.841308594
vt 1.54492188 0.841308594
vt 1.59960938 0.868652344
vt 1.57617188 0.895019531
vt 1.58007812 0.90234375
vt 1.54492188 0.895019531
vt 1.54101562 0.90234375
vt 1.52929688 0.868164062
vt 1.52148438 0.868164062
vt 1.54101562 0.833984375
vt 1.609375 0.868652344
vt 1.58496094 0.91015625
vt 1.58496094 0.826171875
vt 1.53613281 0.91015625
vt 1.51269531 0.868164062
vt 1.53613281 0.826171875
vt 1.61914062 0.868652344
vt 1.58984375 0.918945312
vt 1.58984375 0.817871094
vt 1.53125 0.918945312
vt 1.53125 0.817871094
vt 1.50195312 0.868164062
vt 1.55175781 0.957519531
vt 1.55957031 0.986328125
vt 1.54296875 0.957519531
vt 1.55957031 0.929199219
vt 1.56347656 0.978515625
vt 1.59179688 0.986328125
vt 1.56347656 0.936523438
vt 1.58789062 0.936523438
vt 1.59277344 0.929199219
vt 1.58789062 0.978515625
vt 1.59960938 0.958007812
vt 1.60839844 0.958007812
vt 1.68457031 0.649414062
vt 1.70019531 0.649414062
vt 1.70605469 0.658691406
vt 1.6796875 0.658691406
vt 1.71875 0.636230469
vt 1.67773438 0.635742188
vt 1.66699219 0.635742188
vt 1.70800781 0.636230469
vt 1.70605469 0.61328125
vt 1.70117188 0.622558594
vt 1.6796875 0.61328125
vt 1.68554688 0.622558594
vt 0.685058594 0.649414062
vt 0.6796875 0.658691406
vt 0.706054688 0.658691406
vt 0.700195312 0.649414062
vt 0.719238281 0.636230469
vt 0.677246094 0.635742188
vt 0.666503906 0.635742188
vt 0.708496094 0.636230469
vt 0.706054688 0.61328125
vt 0.700683594 0.622558594
vt 0.6796875 0.61328125
vt 0.685546875 0.622558594
vt 1.68359375 0.715332031
vt 1.67773438 0.724609375
vt 1.66503906 0.702148438
vt 1.67578125 0.702148438
vt 1.67773438 0.679199219
vt 1.69921875 0.715332031
vt 1.70410156 0.724609375
vt 1.68261719 0.688476562
vt 1.70410156 0.679199219
vt 1.69824219 0.688476562
vt 1.71679688 0.701660156
vt 1.70605469 0.701660156
vt 0.684570312 0.886230469
vt 0.69140625 0.897460938
vt 0.71484375 0.857421875
vt 0.701660156 0.857421875
vt 0.69140625 0.816894531
vt 0.650878906 0.886230469
vt 0.645019531 0.897460938
vt 0.634765625 0.857421875
vt 0.621582031 0.857421875
vt 0.685546875 0.828125
vt 0.645019531 0.816894531
vt 0.651855469 0.828125
vt 0.68359375 0.715332031
vt 0.675292969 0.702148438
vt 0.664550781 0.702148438
vt 0.677734375 0.724609375
vt 0.677734375 0.679199219
vt 0.698730469 0.715332031
vt 0.704101562 0.724609375
vt 0.683105469 0.688476562
vt 0.704101562 0.679199219
vt 0.698730469 0.688476562
vt 0.717285156 0.701660156
vt 0.706542969 0.701660156
vn -0 -1 0
vn -0 -0.999900341 -0.0141166411
vn -0.865938783 -0.499950767 -0.014116643
vn -0.86602515 -0.500000477 0
vn -0.865938962 0.499950498 -0.0141167184
vn -0.866025269 0.500000238 0
vn -4.24467316E-07 0.999900341 -0.014116792
vn -5.32866409E-07 1 0
vn 0.865938604 0.499951005 -0.0141167734
vn 0.866024911 0.500000834 0
vn 0.865938544 -0.499951124 -0.0141167277
vn 0.866024911 -0.500000954 0
vn -0 -0.999900341 -0.0141166411
vn -0 -1 0
vn -0 -1 0
vn 1.14767651E-07 -0.999900341 -0.0141166672
vn -0.865937531 -0.499952912 -0.0141167501
vn -0.866023719 -0.500002921 0
vn -0.865937829 0.499952465 -0.0141166914
vn -0.866024017 0.500002503 0
vn 1.06116815E-07 0.999900341 -0.0141166076
vn -0 1 0
vn 0.865937531 0.499952912 -0.0141166979
vn 0.866023719 0.500002861 0
vn 0.865937293 -0.499953449 -0.0141167361
vn 0.86602354 -0.500003278 0
vn 1.14767651E-07 -0.999900341 -0.0141166672
vn -0 -1 0
vn -1 0 0
vn -1 0 0
vn -1 0 0
vn -1 0 0
vn 1.09014451E-07 0.0456151441 -0.998959064
vn 1.13859535E-07 -0.0456151664 -0.998959064
vn 0.865123808 -0.0456145257 -0.49947986
vn 0.865123689 0.0456144214 -0.499479949
vn 0.86512363 -0.0456142053 0.499480188
vn 0.86512351 0.045614101 0.499480247
vn -0 -0.0456145406 0.998959184
vn -0 0.0456145406 0.998959184
vn -0.86512363 -0.0456145704 0.499480128
vn -0.86512363 0.0456145741 0.499480218
vn -0.86512351 -0.0456148349 -0.499480218
vn -0.86512351 0.0456148237 -0.499480247
vn 1.13859535E-07 -0.0456151664 -0.998959064
vn 1.09014451E-07 0.0456151441 -0.998959064
vn -0 -1 0
vn -0.865938902 -0.499950528 0.0141166495
vn -0 -0.999900341 0.0141166346
vn -0.86602515 -0.500000477 0
vn -0.865939081 0.4999502 0.0141167268
vn -0.866025269 0.500000238 0
vn -5.16742773E-07 0.999900341 0.0141167901
vn -5.32866409E-07 1 0
vn 0.865938604 0.499951065 0.0141167371
vn 0.866024911 0.500000834 0
vn 0.865938544 -0.499951124 0.0141166886
vn 0.866024911 -0.500000954 0
vn -0 -0.999900341 0.0141166346
vn -0 -1 0
vn -0 -1 0
vn -0.865937293 -0.4999533 0.0141167445
vn -0 -0.999900341 0.0141166635
vn -0.866023719 -0.500002921 0
vn -0.865937531 0.499952912 0.0141166579
vn -0.866024017 0.500002503 0
vn -0 0.999900341 0.0141165517
vn -0 1 0
vn 0.865937471 0.499953002 0.0141166598
vn 0.866023719 0.500002861 0
vn 0.865937293 -0.499953449 0.0141167231
vn 0.86602354 -0.500003278 0
vn -0 -0.999900341 0.0141166635
vn -0 -1 0
vn 9.79534434E-07 0.0220919438 -0.999755919
vn 9.79304673E-07 0.00800440274 -0.999968052
vn -0.865997434 0.00800442044 -0.499984354
vn -0.865813851 0.0220920071 -0.499878317
vn -0.86581409 0.0220920462 0.499877781
vn -0.865997791 0.00800442696 0.499983847
vn -4.70650747E-07 0.00800438132 0.999968052
vn -4.8016426E-07 0.0220920201 0.999755919
vn 0.865564167 0.00625821529 0.500758946
vn 0.865813315 0.0220919717 0.49987936
vn 0.865473568 0.00589026418 -0.500919878
vn 0.865814269 0.0220919177 -0.499877483
vn 9.79304673E-07 0.00800440274 -0.999968052
vn 9.79534434E-07 0.0220919438 -0.999755919
vn 1 0 0
vn 1 0 0
vn 1 0 0
vn 1 0 0
vn -1 0 0
vn -1 0 0
vn -1 0 0
vn -1 0 0
vn 0.145684257 -0.989331126 0
vn -0 -1 0
vn -0 -1 0
vn 0.1456839 -0.989331126 0
vn 0.753975987 -0.656902015 0
vn 0.753975749 -0.656902254 0
vn 1 2.52252136E-07 1.98118869E-07
vn 1 0 1.98118784E-07
vn 0.753976703 0.656901181 2.09767705E-07
vn 0.75397706 0.656900764 2.09768046E-07
vn 0.145685449 0.989330888 0
vn 0.14568527 0.989331007 0
vn -0 1 1.17086387E-07
vn -0 1 1.17086387E-07
vn 0.078857258 0.571030438 0.817132592
vn -0 0.0704670325 0.997514129
vn -0 0.58423394 0.811585367
vn 0.0123271681 0.0838223398 0.996404529
vn 0.426607907 0.368342429 0.82603246
vn 9.30827639E-07 -1.44091061E-07 1
vn -0 0 1
vn -0 -0.0704670772 0.997514129
vn 0.0860627145 0.075590536 0.993417978
vn 0.555775166 -1.39992653E-06 0.831332684
vn 0.125754163 -7.30175032E-07 0.992061496
vn 0.426610529 -0.368338764 0.826032698
vn 0.0860638395 -0.0755920112 0.99341774
vn 0.0788555443 -0.571030378 0.817132831
vn 0.0123268552 -0.0838226974 0.996404529
vn -0 -0.584232807 0.811586142
vn 0.0788565725 -0.571026325 -0.817135513
vn -1.23035659E-06 -0.0704683587 -0.997514009
vn -0 -0.584227681 -0.811589837
vn 0.0123255029 -0.0838248208 -0.99640429
vn 0.426607311 -0.36834085 -0.826033413
vn -1.02572324E-06 0 -1
vn 0.0860617682 -0.0755929947 -0.993417859
vn 0.555772185 3.74400855E-07 -0.831334591
vn -0 0 -1
vn 0.125752434 0 -0.992061734
vn 0.426603973 0.368336618 -0.82603699
vn 0.0123260645 0.0838246122 -0.99640429
vn -6.15175964E-07 0.0704681352 -0.997514009
vn -0 0.58422786 -0.811589777
vn 0.0788571388 0.571023762 -0.817137361
vn 0.0860609263 0.0755929649 -0.993417978
vn 0.145684525 -0.989331126 0
vn -0 -1 0
vn -0 -1 0
vn 0.145684183 -0.989331126 0
vn 0.753975987 -0.656902015 1.04884151E-07
vn 0.753975749 -0.656902254 1.04884258E-07
vn 1 2.52252136E-07 1.98118883E-07
vn 1 0 1.98118755E-07
vn 0.753976882 0.656901002 4.19535837E-07
vn 0.753977239 0.656900585 4.19535723E-07
vn 0.145685405 0.989330888 1.22950141E-07
vn 0.145685196 0.989331007 1.22949956E-07
vn -0 1 0
vn -0 1 0
vn 0.0788548961 0.571034014 0.817130387
vn -0 0.0704671964 0.997514129
vn -0 0.584236503 0.811583459
vn 0.0123271039 0.0838226005 0.996404529
vn 0.426604718 0.36834535 0.826032758
vn 1.36521396E-06 -1.44091061E-07 1
vn -0 0 1
vn -0 -0.0704673901 0.997514129
vn 0.0860635489 0.0755906105 0.993417978
vn 0.555773854 -5.77878495E-07 0.831333578
vn 0.125754848 -5.40960571E-07 0.992061377
vn 0.426608741 -0.368338794 0.826033592
vn 0.0860639066 -0.0755919665 0.99341774
vn 0.0788547173 -0.571032047 0.817131698
vn 0.0123269493 -0.0838229507 0.996404409
vn -0 -0.584235132 0.811584413
vn 0.0788563266 -0.571025431 -0.817136168
vn -6.15178124E-07 -0.070468381 -0.997514009
vn -0 -0.584227979 -0.811589599
vn 0.0123257749 -0.0838249028 -0.99640429
vn 0.426601231 -0.368339956 -0.82603699
vn -6.83815472E-07 0 -1
vn 0.0860596225 -0.0755932033 -0.993418097
vn 0.555768907 0 -0.831336796
vn -1.24109476E-07 0 -1
vn 0.125750259 0 -0.992061973
vn 0.42660594 0.368339032 -0.826034963
vn 0.0123258447 0.0838247538 -0.99640429
vn -6.15176361E-07 0.0704681575 -0.997514009
vn -0 0.584228992 -0.811588824
vn 0.0788579434 0.571025968 -0.817135692
vn 0.0860598311 0.0755928978 -0.993418097
vn -0 0.0220919512 0.999755919
vn -0.86599791 0.00800442975 0.499983609
vn -0 0.00800443906 0.999967933
vn -0.865814269 0.0220919587 0.499877572
vn -0.865813911 0.0220920295 -0.499878138
vn -0.865997553 0.0080044074 -0.499984175
vn -0 0.00800439715 -0.999968052
vn -0 0.0220920462 -0.999755919
vn 0.865564167 0.00625822321 -0.500758946
vn 0.865813315 0.02209213 -0.49987936
vn 0.86547339 0.00589030236 0.500920296
vn 0.86581409 0.0220920146 0.4998779
vn -0 0.00800443906 0.999967933
vn -0 0.0220919512 0.999755919
vn 0.145684272 -0.989331126 0
vn -0 -1 0
vn -0 -1 0
vn 0.145683989 -0.989331126 0
vn 0.753976703 -0.656901181 0
vn 0.753976405 -0.656901538 0
vn 1 4.72973454E-07 0
vn 1 0 0
vn 0.753976762 0.656901121 0
vn 0.753977001 0.656900823 0
vn 0.145685434 0.989330888 0
vn 0.145685434 0.989330888 0
vn -0 1 0
vn -0 1 0
vn 0.0788564458 0.571027637 -0.817134678
vn -0 0.584232032 -0.811586678
vn -0 0.0704660043 -0.997514248
vn 0.0123262051 0.08382269 -0.996404529
vn 0.426608264 0.368337691 -0.826034307
vn 2.48220772E-07 -2.16135177E-07 -1
vn -0 0 -1
vn -0 -0.0704663545 -0.997514129
vn 0.0860596746 0.0755903274 -0.993418336
vn 0.555777252 -1.8719976E-06 -0.831331253
vn 0.125752851 -9.84889652E-07 -0.992061615
vn 0.426610112 -0.368343979 -0.826030552
vn 0.0860623568 -0.0755921304 -0.993417978
vn 0.0788573101 -0.571029603 -0.817133248
vn 0.012326668 -0.083823286 -0.996404409
vn -0 -0.584232032 -0.811586678
vn 0.07885582 -0.571029007 0.817133784
vn -0 -0.584231615 0.811587036
vn -0 -0.0704684258 0.997514009
vn 0.0123261986 -0.0838248357 0.99640429
vn 0.42660749 -0.368344396 0.826031685
vn -0 0 1
vn 0.0860605985 -0.0755932257 0.993417978
vn 0.555778503 0 0.831330419
vn -0 0 1
vn 0.125752017 0 0.992061734
vn 0.426608443 0.368340611 0.826032937
vn 0.0123261567 0.0838245153 0.99640429
vn -0 0.0704682097 0.997514009
vn -0 0.584231555 0.811587036
vn 0.0788562968 0.571027398 0.817134917
vn 0.0860599354 0.0755929947 0.993418097
vn 0.145684585 -0.989331126 0
vn -0 -1 0
vn -0 -1 0
vn 0.145684332 -0.989331126 0
vn 0.753976583 -0.65690124 0
vn 0.753976405 -0.656901538 0
vn 1 4.72973511E-07 0
vn 1 0 0
vn 0.753976822 0.656901062 0
vn 0.75397706 0.656900764 0
vn 0.145685315 0.989331007 0
vn 0.145685315 0.989331007 0
vn -0 1 0
vn -0 1 0
vn 0.0788568705 0.571029663 -0.817133248
vn -0 0.584231973 -0.811586678
vn -0 0.0704658777 -0.997514248
vn 0.0123259192 0.0838227123 -0.996404529
vn 0.426612288 0.368340492 -0.82603097
vn 1.24110272E-07 -2.16135192E-07 -1
vn -0 0 -1
vn -0 -0.0704661533 -0.997514248
vn 0.0860590711 0.0755904242 -0.993418336
vn 0.555778027 -1.59527008E-06 -0.831330717
vn 0.125752553 -9.31522095E-07 -0.992061734
vn 0.426608354 -0.368345439 -0.826030791
vn 0.0860622078 -0.0755924881 -0.993417859
vn 0.0788570419 -0.571030438 -0.817132771
vn 0.0123267444 -0.0838232413 -0.996404409
vn -0 -0.584232092 -0.811586678
vn 0.0788561627 -0.571030259 0.81713289
vn -0 -0.584232211 0.811586559
vn -0 -0.070468381 0.997514009
vn 0.0123262024 -0.0838248581 0.99640429
vn 0.426609874 -0.368344724 0.826030374
vn -0 0 1
vn 0.0860607177 -0.0755935013 0.993417978
vn 0.555779457 -1.13947891E-07 0.831329763
vn -0 0 1
vn 0.12575224 0 0.992061734
vn 0.426609218 0.368344516 0.826030791
vn 0.0123260971 0.0838246793 0.99640429
vn -0 0.0704681724 0.997514009
vn -0 0.584232748 0.811586142
vn 0.078856118 0.571030438 0.817132771
vn 0.0860599652 0.0755931586 0.993418097
vn -0 0.0456145406 0.998959184
vn 0.303581744 0.936545491 0.175273299
vn 0.86512351 0.045614101 0.499480247
vn 0.865123689 0.0456144214 -0.499479949
vn -0 0.936544955 0.350547403
vn -0.86512363 0.0456145741 0.499480218
vn -0.303581357 0.93654561 0.17527324
vn -0.86512351 0.0456148237 -0.499480247
vn -3.01691927E-07 0.936545193 -0.350546777
vn -0.303581417 0.93654573 -0.175272793
vn 1.09014451E-07 0.0456151441 -0.998959064
vn 0.303581446 0.93654561 -0.175273031
vn 1.95404277E-06 0.856939137 0.515417695
vn -4.8016426E-07 0.0220920201 0.999755919
vn 0.865813315 0.0220919717 0.49987936
vn -0.86581409 0.0220920462 0.499877781
vn 0.446363658 0.856939912 0.257708132
vn 0.865814269 0.0220919177 -0.499877483
vn 0.446362913 0.856940448 -0.257707715
vn 9.79534434E-07 0.0220919438 -0.999755919
vn 7.81611334E-07 0.856940866 -0.515414774
vn -0.865813851 0.0220920071 -0.499878317
vn -0.446363628 0.85694021 -0.257707447
vn -0.446364015 0.856939137 0.257710069
vn 0.830828428 0.282190323 0.479679763
vn 0.83082819 0.282192022 -0.479679316
vn -7.85836221E-07 0.28218931 0.959358752
vn -3.96275766E-07 0.282192379 -0.959357858
vn -0.830828846 0.282191157 -0.47967869
vn -0.830829501 0.282189757 0.479678333
vn 0.86602509 0 0.500000596
vn 0.866025269 0 -0.500000238
vn -0 0 1
vn -0 0 -1
vn -0.866025507 0 0.499999851
vn -0.866025686 0 -0.499999493
vn 0.156312943 0.979141891 0.12979798
vn 0.865564167 0.00625821529 0.500758946
vn -4.70650747E-07 0.00800438132 0.999968052
vn 0.865473568 0.00589026418 -0.500919878
vn 1.1805534E-07 0.970616221 0.240632474
vn -0.865997791 0.00800442696 0.499983847
vn 0.143202707 0.980835915 -0.132113516
vn 2.67177711E-07 0.970615864 -0.240634114
vn 9.79304673E-07 0.00800440274 -0.999968052
vn -0.20839414 0.970616341 0.120315678
vn -0.208394155 0.970616102 -0.120317265
vn -0.865997434 0.00800442044 -0.499984354
vn -8.30465467E-07 0.856939912 -0.515416265
vn 0.865813315 0.02209213 -0.49987936
vn -0 0.0220920462 -0.999755919
vn -0.865813911 0.0220920295 -0.499878138
vn 0.446364671 0.856939375 -0.257707894
vn 0.86581409 0.0220920146 0.4998779
vn 0.446364105 0.856939673 0.257708102
vn -0 0.0220919512 0.999755919
vn 8.79312779E-07 0.856940687 0.515414894
vn -0.865814269 0.0220919587 0.499877572
vn -0.446364611 0.856939375 0.257708043
vn -0.446365386 0.85693872 -0.257709146
vn 0.830828786 0.282189578 -0.479679704
vn 0.830828607 0.282189965 0.479679704
vn 4.63441637E-07 0.282190442 -0.959358454
vn -3.49259864E-07 0.282192379 0.959357858
vn -0.830829084 0.282190233 0.47967869
vn -0.830829322 0.282189161 -0.479679018
vn 0.866025329 0 -0.500000179
vn 0.866025329 0 0.500000179
vn -0 0 -1
vn -0 0 1
vn -0.866025329 0 -0.500000179
vn -0.866025805 0 0.499999344
vn 0.156313255 0.979141891 -0.12979719
vn -0 0.00800439715 -0.999968052
vn 0.865564167 0.00625822321 -0.500758946
vn 0.86547339 0.00589030236 0.500920296
vn -0 0.970616579 -0.240631461
vn -0.865997553 0.0080044074 -0.499984175
vn 0.143202394 0.980836034 0.132112935
vn 1.73975877E-07 0.970616102 0.240633443
vn -0 0.00800443906 0.999967933
vn -0.208393991 0.97061646 -0.120314918
vn -0.208393902 0.970616102 0.120317236
vn -0.86599791 0.00800442975 0.499983609
vn -9.96907943E-07 -0.378139406 -0.925748706
vn -0.327480048 -0.189070061 -0.925747991
vn -0.865938783 -0.499950767 -0.014116643
vn -0 -0.999900341 -0.0141166411
vn -0.865938962 0.499950498 -0.0141167184
vn 0.327477187 -0.189070612 -0.925748885
vn 0.865938544 -0.499951124 -0.0141167277
vn -0.327480167 0.189069912 -0.925747991
vn -4.24467316E-07 0.999900341 -0.014116792
vn -1.37066786E-06 0.378139824 -0.925748527
vn 0.865938604 0.499951005 -0.0141167734
vn 0.327477157 0.189070046 -0.925749004
vn 2.15484505E-07 -0.378139883 0.925748527
vn -0 -0.999900341 0.0141166346
vn -0.865938902 -0.499950528 0.0141166495
vn -0.327477604 -0.18906948 0.925748885
vn -0.865939081 0.4999502 0.0141167268
vn 0.327478021 -0.189071342 0.925748408
vn 0.865938544 -0.499951124 0.0141166886
vn -0.327477783 0.18906942 0.925748885
vn -5.16742773E-07 0.999900341 0.0141167901
vn 4.54275209E-07 0.37814042 0.925748169
vn 0.865938604 0.499951065 0.0141167371
vn 0.327478528 0.189070746 0.925748408
vn -0.327478856 0.189071298 -0.925748169
vn -0.865937829 0.499952465 -0.0141166914
vn -0.865937531 -0.499952912 -0.0141167501
vn -0.327478766 -0.189071327 -0.925748169
vn 1.14767651E-07 -0.999900341 -0.0141166672
vn -1.34969795E-07 0.378142118 -0.925747454
vn 1.06116815E-07 0.999900341 -0.0141166076
vn -4.15289946E-07 -0.378140777 -0.92574811
vn 0.865937293 -0.499953449 -0.0141167361
vn 0.327476531 -0.189071402 -0.925748885
vn 0.865937531 0.499952912 -0.0141166979
vn 0.327477396 0.189071923 -0.925748587
vn -0.303581178 -0.93654573 0.175273314
vn -0.86512363 -0.0456145704 0.499480128
vn -0 -0.0456145406 0.998959184
vn -0 -0.936545193 0.350546718
vn 0.86512363 -0.0456142053 0.499480188
vn -0.303581297 -0.936545789 -0.175272122
vn -0.86512351 -0.0456148349 -0.499480218
vn -2.8064369E-07 -0.936545491 -0.350546092
vn 1.13859535E-07 -0.0456151664 -0.998959064
vn 0.303581715 -0.93654561 0.175272569
vn 0.865123808 -0.0456145257 -0.49947986
vn 0.303581506 -0.93654573 -0.175272644
vn -0.327475756 0.189071089 0.925749302
vn -0.327475041 -0.189070418 0.925749719
vn -0.865937293 -0.4999533 0.0141167445
vn -0.865937531 0.499952912 0.0141166579
vn -0 -0.999900341 0.0141166635
vn 1.14205221E-07 0.378142685 0.925747395
vn -0 0.999900341 0.0141165517
vn 3.0108464E-07 -0.378140152 0.925748408
vn 0.865937293 -0.499953449 0.0141167231
vn 0.327475756 -0.189071923 0.925749123
vn 0.865937471 0.499953002 0.0141166598
vn 0.327476591 0.18907252 0.925748706
g A_build_jiaoshoujia_04_0
f 3/3/3 2/2/2 1/1/1
f 4/4/4 3/3/3 1/1/1
f 5/5/5 3/3/3 4/4/4
f 6/6/6 5/5/5 4/4/4
f 7/7/7 5/5/5 6/6/6
f 8/8/8 7/7/7 6/6/6
f 9/9/9 7/7/7 8/8/8
f 10/10/10 9/9/9 8/8/8
f 11/11/11 9/9/9 10/10/10
f 12/12/12 11/11/11 10/10/10
f 13/13/13 11/11/11 12/12/12
f 14/14/14 13/13/13 12/12/12
f 17/17/17 16/16/16 15/15/15
f 18/18/18 17/17/17 15/15/15
f 19/19/19 17/17/17 18/18/18
f 20/20/20 19/19/19 18/18/18
f 21/21/21 19/19/19 20/20/20
f 22/22/22 21/21/21 20/20/20
f 23/23/23 21/21/21 22/22/22
f 24/24/24 23/23/23 22/22/22
f 25/25/25 23/23/23 24/24/24
f 26/26/26 25/25/25 24/24/24
f 27/27/27 25/25/25 26/26/26
f 28/28/28 27/27/27 26/26/26
f 31/31/31 30/30/30 29/29/29
f 32/32/32 31/31/31 29/29/29
f 35/35/35 34/34/34 33/33/33
f 36/36/36 35/35/35 33/33/33
f 37/37/37 35/35/35 36/36/36
f 38/38/38 37/37/37 36/36/36
f 39/39/39 37/37/37 38/38/38
f 40/40/40 39/39/39 38/38/38
f 41/41/41 39/39/39 40/40/40
f 42/42/42 41/41/41 40/40/40
f 43/43/43 41/41/41 42/42/42
f 44/44/44 43/43/43 42/42/42
f 45/45/45 43/43/43 44/44/44
f 46/46/46 45/45/45 44/44/44
f 49/49/49 48/48/48 47/47/47
f 48/48/48 50/50/50 47/47/47
f 48/48/48 51/51/51 50/50/50
f 51/51/51 52/52/52 50/50/50
f 51/51/51 53/53/53 52/52/52
f 53/53/53 54/54/54 52/52/52
f 53/53/53 55/55/55 54/54/54
f 55/55/55 56/56/56 54/54/54
f 55/55/55 57/57/57 56/56/56
f 57/57/57 58/58/58 56/56/56
f 57/57/57 59/59/59 58/58/58
f 59/59/59 60/60/60 58/58/58
f 63/63/63 62/62/62 61/61/61
f 62/62/62 64/64/64 61/61/61
f 62/62/62 65/65/65 64/64/64
f 65/65/65 66/66/66 64/64/64
f 65/65/65 67/67/67 66/66/66
f 67/67/67 68/68/68 66/66/66
f 67/67/67 69/69/69 68/68/68
f 69/69/69 70/70/70 68/68/68
f 69/69/69 71/71/71 70/70/70
f 71/71/71 72/72/72 70/70/70
f 71/71/71 73/73/73 72/72/72
f 73/73/73 74/74/74 72/72/72
f 77/77/77 76/76/76 75/75/75
f 78/78/78 77/77/77 75/75/75
f 78/78/78 79/79/79 77/77/77
f 79/79/79 80/80/80 77/77/77
f 81/81/81 80/80/80 79/79/79
f 82/82/82 81/81/81 79/79/79
f 83/83/83 81/81/81 82/82/82
f 84/84/84 83/83/83 82/82/82
f 85/85/85 83/83/83 84/84/84
f 86/86/86 85/85/85 84/84/84
f 87/87/87 85/85/85 86/86/86
f 88/88/88 87/87/87 86/86/86
f 91/91/91 90/90/90 89/89/89
f 92/92/92 91/91/91 89/89/89
f 95/95/95 94/94/94 93/93/93
f 96/96/96 95/95/95 93/93/93
f 99/99/99 98/98/98 97/97/97
f 100/100/100 99/99/99 97/97/97
f 97/97/97 101/101/101 100/100/100
f 101/101/101 102/102/102 100/100/100
f 103/103/103 102/102/102 101/101/101
f 104/104/104 103/103/103 101/101/101
f 105/105/105 103/103/103 104/104/104
f 106/106/106 105/105/105 104/104/104
f 105/105/105 106/106/106 107/107/107
f 108/108/108 105/105/105 107/107/107
f 108/108/108 107/107/107 109/109/109
f 107/107/107 110/110/110 109/109/109
f 113/113/113 112/112/112 111/111/111
f 112/112/112 114/114/114 111/111/111
f 111/111/111 114/114/114 115/115/115
f 116/116/116 114/114/114 112/112/112
f 117/117/117 116/116/116 112/112/112
f 117/117/117 118/118/118 116/116/116
f 114/114/114 119/119/119 115/115/115
f 115/115/115 119/119/119 120/120/120
f 119/119/119 114/114/114 121/121/121
f 119/119/119 121/121/121 120/120/120
f 114/114/114 116/116/116 121/121/121
f 120/120/120 121/121/121 122/122/122
f 121/121/121 123/123/123 122/122/122
f 121/121/121 116/116/116 123/123/123
f 122/122/122 123/123/123 124/124/124
f 118/118/118 125/125/125 116/116/116
f 116/116/116 125/125/125 123/123/123
f 123/123/123 125/125/125 124/124/124
f 125/125/125 118/118/118 126/126/126
f 124/124/124 125/125/125 126/126/126
f 129/129/129 128/128/128 127/127/127
f 128/128/128 130/130/130 127/127/127
f 127/127/127 130/130/130 131/131/131
f 128/128/128 132/132/132 130/130/130
f 130/130/130 133/133/133 131/131/131
f 131/131/131 133/133/133 134/134/134
f 132/132/132 135/135/135 130/130/130
f 130/130/130 135/135/135 133/133/133
f 133/133/133 136/136/136 134/134/134
f 135/135/135 136/136/136 133/133/133
f 134/134/134 136/136/136 137/137/137
f 138/138/138 135/135/135 132/132/132
f 135/135/135 138/138/138 136/136/136
f 139/139/139 138/138/138 132/132/132
f 138/138/138 139/139/139 140/140/140
f 141/141/141 138/138/138 140/140/140
f 137/137/137 142/142/142 141/141/141
f 136/136/136 142/142/142 137/137/137
f 138/138/138 142/142/142 136/136/136
f 142/142/142 138/138/138 141/141/141
f 145/145/145 144/144/144 143/143/143
f 146/146/146 145/145/145 143/143/143
f 143/143/143 147/147/147 146/146/146
f 147/147/147 148/148/148 146/146/146
f 149/149/149 148/148/148 147/147/147
f 150/150/150 149/149/149 147/147/147
f 151/151/151 149/149/149 150/150/150
f 152/152/152 151/151/151 150/150/150
f 151/151/151 152/152/152 153/153/153
f 154/154/154 151/151/151 153/153/153
f 154/154/154 153/153/153 155/155/155
f 153/153/153 156/156/156 155/155/155
f 159/159/159 158/158/158 157/157/157
f 158/158/158 160/160/160 157/157/157
f 157/157/157 160/160/160 161/161/161
f 162/162/162 160/160/160 158/158/158
f 163/163/163 162/162/162 158/158/158
f 163/163/163 164/164/164 162/162/162
f 160/160/160 165/165/165 161/161/161
f 161/161/161 165/165/165 166/166/166
f 165/165/165 160/160/160 167/167/167
f 165/165/165 167/167/167 166/166/166
f 160/160/160 162/162/162 167/167/167
f 166/166/166 167/167/167 168/168/168
f 167/167/167 169/169/169 168/168/168
f 167/167/167 162/162/162 169/169/169
f 168/168/168 169/169/169 170/170/170
f 164/164/164 171/171/171 162/162/162
f 162/162/162 171/171/171 169/169/169
f 169/169/169 171/171/171 170/170/170
f 171/171/171 164/164/164 172/172/172
f 170/170/170 171/171/171 172/172/172
f 175/175/175 174/174/174 173/173/173
f 174/174/174 176/176/176 173/173/173
f 173/173/173 176/176/176 177/177/177
f 174/174/174 178/178/178 176/176/176
f 176/176/176 179/179/179 177/177/177
f 177/177/177 179/179/179 180/180/180
f 178/178/178 181/181/181 176/176/176
f 176/176/176 181/181/181 179/179/179
f 179/179/179 182/182/182 180/180/180
f 181/181/181 182/182/182 179/179/179
f 180/180/180 182/182/182 183/183/183
f 184/184/184 181/181/181 178/178/178
f 181/181/181 184/184/184 182/182/182
f 185/185/185 184/184/184 178/178/178
f 184/184/184 185/185/185 186/186/186
f 187/187/187 184/184/184 186/186/186
f 183/183/183 188/188/188 187/187/187
f 182/182/182 188/188/188 183/183/183
f 184/184/184 188/188/188 182/182/182
f 188/188/188 184/184/184 187/187/187
f 191/191/191 190/190/190 189/189/189
f 190/190/190 192/192/192 189/189/189
f 193/193/193 192/192/192 190/190/190
f 194/194/194 193/193/193 190/190/190
f 194/194/194 195/195/195 193/193/193
f 195/195/195 196/196/196 193/193/193
f 195/195/195 197/197/197 196/196/196
f 197/197/197 198/198/198 196/196/196
f 197/197/197 199/199/199 198/198/198
f 199/199/199 200/200/200 198/198/198
f 199/199/199 201/201/201 200/200/200
f 201/201/201 202/202/202 200/200/200
f 205/205/205 204/204/204 203/203/203
f 204/204/204 206/206/206 203/203/203
f 207/207/207 203/203/203 206/206/206
f 208/208/208 207/207/207 206/206/206
f 208/208/208 209/209/209 207/207/207
f 209/209/209 210/210/210 207/207/207
f 209/209/209 211/211/211 210/210/210
f 211/211/211 212/212/212 210/210/210
f 212/212/212 211/211/211 213/213/213
f 211/211/211 214/214/214 213/213/213
f 213/213/213 214/214/214 215/215/215
f 216/216/216 213/213/213 215/215/215
f 219/219/219 218/218/218 217/217/217
f 220/220/220 219/219/219 217/217/217
f 220/220/220 217/217/217 221/221/221
f 220/220/220 222/222/222 219/219/219
f 222/222/222 223/223/223 219/219/219
f 224/224/224 223/223/223 222/222/222
f 225/225/225 220/220/220 221/221/221
f 225/225/225 221/221/221 226/226/226
f 220/220/220 225/225/225 227/227/227
f 227/227/227 225/225/225 226/226/226
f 222/222/222 220/220/220 227/227/227
f 227/227/227 226/226/226 228/228/228
f 229/229/229 227/227/227 228/228/228
f 222/222/222 227/227/227 229/229/229
f 229/229/229 228/228/228 230/230/230
f 231/231/231 224/224/224 222/222/222
f 231/231/231 222/222/222 229/229/229
f 231/231/231 229/229/229 230/230/230
f 224/224/224 231/231/231 232/232/232
f 231/231/231 230/230/230 232/232/232
f 235/235/235 234/234/234 233/233/233
f 236/236/236 235/235/235 233/233/233
f 236/236/236 233/233/233 237/237/237
f 238/238/238 235/235/235 236/236/236
f 239/239/239 236/236/236 237/237/237
f 239/239/239 237/237/237 240/240/240
f 241/241/241 238/238/238 236/236/236
f 241/241/241 236/236/236 239/239/239
f 242/242/242 239/239/239 240/240/240
f 242/242/242 241/241/241 239/239/239
f 242/242/242 240/240/240 243/243/243
f 241/241/241 244/244/244 238/238/238
f 244/244/244 241/241/241 242/242/242
f 244/244/244 245/245/245 238/238/238
f 245/245/245 244/244/244 246/246/246
f 244/244/244 247/247/247 246/246/246
f 248/248/248 243/243/243 247/247/247
f 248/248/248 242/242/242 243/243/243
f 248/248/248 244/244/244 242/242/242
f 244/244/244 248/248/248 247/247/247
f 251/251/251 250/250/250 249/249/249
f 250/250/250 252/252/252 249/249/249
f 253/253/253 249/249/249 252/252/252
f 254/254/254 253/253/253 252/252/252
f 254/254/254 255/255/255 253/253/253
f 255/255/255 256/256/256 253/253/253
f 255/255/255 257/257/257 256/256/256
f 257/257/257 258/258/258 256/256/256
f 258/258/258 257/257/257 259/259/259
f 257/257/257 260/260/260 259/259/259
f 259/259/259 260/260/260 261/261/261
f 262/262/262 259/259/259 261/261/261
f 265/265/265 264/264/264 263/263/263
f 266/266/266 265/265/265 263/263/263
f 266/266/266 263/263/263 267/267/267
f 266/266/266 268/268/268 265/265/265
f 268/268/268 269/269/269 265/265/265
f 270/270/270 269/269/269 268/268/268
f 271/271/271 266/266/266 267/267/267
f 271/271/271 267/267/267 272/272/272
f 266/266/266 271/271/271 273/273/273
f 273/273/273 271/271/271 272/272/272
f 268/268/268 266/266/266 273/273/273
f 273/273/273 272/272/272 274/274/274
f 275/275/275 273/273/273 274/274/274
f 268/268/268 273/273/273 275/275/275
f 275/275/275 274/274/274 276/276/276
f 277/277/277 270/270/270 268/268/268
f 277/277/277 268/268/268 275/275/275
f 277/277/277 275/275/275 276/276/276
f 270/270/270 277/277/277 278/278/278
f 277/277/277 276/276/276 278/278/278
f 281/281/281 280/280/280 279/279/279
f 282/282/282 281/281/281 279/279/279
f 282/282/282 279/279/279 283/283/283
f 284/284/284 281/281/281 282/282/282
f 285/285/285 282/282/282 283/283/283
f 285/285/285 283/283/283 286/286/286
f 287/287/287 284/284/284 282/282/282
f 287/287/287 282/282/282 285/285/285
f 288/288/288 285/285/285 286/286/286
f 288/288/288 287/287/287 285/285/285
f 288/288/288 286/286/286 289/289/289
f 287/287/287 290/290/290 284/284/284
f 290/290/290 287/287/287 288/288/288
f 290/290/290 291/291/291 284/284/284
f 291/291/291 290/290/290 292/292/292
f 290/290/290 293/293/293 292/292/292
f 294/294/294 289/289/289 293/293/293
f 294/294/294 288/288/288 289/289/289
f 294/294/294 290/290/290 288/288/288
f 290/290/290 294/294/294 293/293/293
f 297/297/297 296/296/296 295/295/295
f 297/297/297 298/298/298 296/296/296
f 296/296/296 299/299/299 295/295/295
f 295/295/295 299/299/299 300/300/300
f 299/299/299 301/301/301 300/300/300
f 300/300/300 301/301/301 302/302/302
f 299/299/299 296/296/296 303/303/303
f 301/301/301 299/299/299 303/303/303
f 301/301/301 304/304/304 302/302/302
f 304/304/304 301/301/301 303/303/303
f 302/302/302 304/304/304 305/305/305
f 304/304/304 303/303/303 305/305/305
f 305/305/305 303/303/303 298/298/298
f 296/296/296 306/306/306 303/303/303
f 303/303/303 306/306/306 298/298/298
f 298/298/298 306/306/306 296/296/296
f 309/309/309 308/308/308 307/307/307
f 307/307/307 308/308/308 310/310/310
f 311/311/311 309/309/309 307/307/307
f 312/312/312 309/309/309 311/311/311
f 313/313/313 312/312/312 311/311/311
f 314/314/314 312/312/312 313/313/313
f 315/315/315 314/314/314 313/313/313
f 316/316/316 314/314/314 315/315/315
f 310/310/310 316/316/316 317/317/317
f 317/317/317 316/316/316 315/315/315
f 318/318/318 307/307/307 310/310/310
f 318/318/318 310/310/310 317/317/317
f 313/313/313 311/311/311 319/319/319
f 315/315/315 313/313/313 320/320/320
f 320/320/320 313/313/313 319/319/319
f 311/311/311 307/307/307 321/321/321
f 319/319/319 311/311/311 321/321/321
f 317/317/317 315/315/315 322/322/322
f 322/322/322 315/315/315 320/320/320
f 318/318/318 317/317/317 323/323/323
f 323/323/323 317/317/317 322/322/322
f 307/307/307 318/318/318 324/324/324
f 321/321/321 307/307/307 324/324/324
f 324/324/324 318/318/318 323/323/323
f 320/320/320 319/319/319 325/325/325
f 326/326/326 320/320/320 325/325/325
f 322/322/322 320/320/320 326/326/326
f 325/325/325 319/319/319 327/327/327
f 319/319/319 321/321/321 327/327/327
f 328/328/328 322/322/322 326/326/326
f 323/323/323 322/322/322 328/328/328
f 327/327/327 321/321/321 329/329/329
f 321/321/321 324/324/324 329/329/329
f 330/330/330 323/323/323 328/328/328
f 329/329/329 324/324/324 330/330/330
f 324/324/324 323/323/323 330/330/330
f 333/333/333 332/332/332 331/331/331
f 334/334/334 331/331/331 332/332/332
f 335/335/335 333/333/333 331/331/331
f 336/336/336 333/333/333 335/335/335
f 334/334/334 337/337/337 331/331/331
f 331/331/331 337/337/337 338/338/338
f 337/337/337 334/334/334 338/338/338
f 335/335/335 331/331/331 338/338/338
f 334/334/334 339/339/339 338/338/338
f 340/340/340 336/336/336 335/335/335
f 340/340/340 335/335/335 338/338/338
f 338/338/338 339/339/339 341/341/341
f 341/341/341 340/340/340 338/338/338
f 340/340/340 341/341/341 336/336/336
f 339/339/339 342/342/342 341/341/341
f 341/341/341 342/342/342 336/336/336
f 345/345/345 344/344/344 343/343/343
f 345/345/345 343/343/343 346/346/346
f 344/344/344 347/347/347 343/343/343
f 344/344/344 348/348/348 347/347/347
f 348/348/348 349/349/349 347/347/347
f 348/348/348 350/350/350 349/349/349
f 350/350/350 351/351/351 349/349/349
f 350/350/350 352/352/352 351/351/351
f 352/352/352 346/346/346 353/353/353
f 352/352/352 353/353/353 351/351/351
f 343/343/343 354/354/354 346/346/346
f 346/346/346 354/354/354 353/353/353
f 347/347/347 349/349/349 355/355/355
f 349/349/349 351/351/351 356/356/356
f 349/349/349 356/356/356 355/355/355
f 343/343/343 347/347/347 357/357/357
f 347/347/347 355/355/355 357/357/357
f 351/351/351 353/353/353 358/358/358
f 351/351/351 358/358/358 356/356/356
f 353/353/353 354/354/354 359/359/359
f 353/353/353 359/359/359 358/358/358
f 354/354/354 343/343/343 360/360/360
f 343/343/343 357/357/357 360/360/360
f 354/354/354 360/360/360 359/359/359
f 355/355/355 356/356/356 361/361/361
f 356/356/356 362/362/362 361/361/361
f 356/356/356 358/358/358 362/362/362
f 355/355/355 361/361/361 363/363/363
f 357/357/357 355/355/355 363/363/363
f 358/358/358 364/364/364 362/362/362
f 358/358/358 359/359/359 364/364/364
f 357/357/357 363/363/363 365/365/365
f 360/360/360 357/357/357 365/365/365
f 359/359/359 366/366/366 364/364/364
f 360/360/360 365/365/365 366/366/366
f 359/359/359 360/360/360 366/366/366
f 369/369/369 368/368/368 367/367/367
f 367/367/367 370/370/370 369/369/369
f 368/368/368 371/371/371 367/367/367
f 368/368/368 372/372/372 371/371/371
f 367/367/367 373/373/373 370/370/370
f 370/370/370 373/373/373 374/374/374
f 373/373/373 367/367/367 374/374/374
f 367/367/367 371/371/371 374/374/374
f 375/375/375 370/370/370 374/374/374
f 372/372/372 376/376/376 371/371/371
f 371/371/371 376/376/376 374/374/374
f 375/375/375 374/374/374 377/377/377
f 376/376/376 377/377/377 374/374/374
f 377/377/377 376/376/376 372/372/372
f 378/378/378 375/375/375 377/377/377
f 378/378/378 377/377/377 372/372/372
f 381/381/381 380/380/380 379/379/379
f 382/382/382 381/381/381 379/379/379
f 381/381/381 383/383/383 380/380/380
f 382/382/382 379/379/379 384/384/384
f 385/385/385 382/382/382 384/384/384
f 383/383/383 386/386/386 380/380/380
f 383/383/383 387/387/387 386/386/386
f 388/388/388 379/379/379 380/380/380
f 386/386/386 388/388/388 380/380/380
f 387/387/387 388/388/388 386/386/386
f 379/379/379 388/388/388 384/384/384
f 387/387/387 389/389/389 388/388/388
f 385/385/385 384/384/384 390/390/390
f 388/388/388 390/390/390 384/384/384
f 389/389/389 385/385/385 390/390/390
f 389/389/389 390/390/390 388/388/388
f 393/393/393 392/392/392 391/391/391
f 394/394/394 393/393/393 391/391/391
f 395/395/395 393/393/393 394/394/394
f 391/391/391 392/392/392 396/396/396
f 392/392/392 397/397/397 396/396/396
f 398/398/398 395/395/395 394/394/394
f 399/399/399 395/395/395 398/398/398
f 391/391/391 400/400/400 394/394/394
f 400/400/400 398/398/398 394/394/394
f 400/400/400 399/399/399 398/398/398
f 400/400/400 391/391/391 396/396/396
f 401/401/401 399/399/399 400/400/400
f 397/397/397 401/401/401 402/402/402
f 396/396/396 397/397/397 402/402/402
f 402/402/402 401/401/401 400/400/400
f 402/402/402 400/400/400 396/396/396
f 405/405/405 404/404/404 403/403/403
f 406/406/406 405/405/405 403/403/403
f 407/407/407 405/405/405 406/406/406
f 403/403/403 404/404/404 408/408/408
f 403/403/403 408/408/408 406/406/406
f 404/404/404 409/409/409 408/408/408
f 410/410/410 407/407/407 406/406/406
f 408/408/408 410/410/410 406/406/406
f 411/411/411 407/407/407 410/410/410
f 412/412/412 411/411/411 410/410/410
f 410/410/410 408/408/408 412/412/412
f 413/413/413 411/411/411 412/412/412
f 409/409/409 413/413/413 414/414/414
f 408/408/408 409/409/409 414/414/414
f 408/408/408 414/414/414 412/412/412
f 414/414/414 413/413/413 412/412/412
f 417/417/417 416/416/416 415/415/415
f 418/418/418 417/417/417 415/415/415
f 419/419/419 417/417/417 418/418/418
f 415/415/415 416/416/416 420/420/420
f 416/416/416 421/421/421 420/420/420
f 415/415/415 420/420/420 422/422/422
f 420/420/420 421/421/421 422/422/422
f 418/418/418 415/415/415 422/422/422
f 421/421/421 423/423/423 422/422/422
f 424/424/424 419/419/419 418/418/418
f 424/424/424 418/418/418 422/422/422
f 425/425/425 419/419/419 424/424/424
f 423/423/423 425/425/425 426/426/426
f 422/422/422 423/423/423 426/426/426
f 426/426/426 425/425/425 424/424/424
f 426/426/426 424/424/424 422/422/422
f 429/429/429 428/428/428 427/427/427
f 430/430/430 429/429/429 427/427/427
f 429/429/429 431/431/431 428/428/428
f 430/430/430 427/427/427 432/432/432
f 432/432/432 427/427/427 428/428/428
f 433/433/433 430/430/430 432/432/432
f 431/431/431 434/434/434 428/428/428
f 434/434/434 432/432/432 428/428/428
f 431/431/431 435/435/435 434/434/434
f 435/435/435 436/436/436 434/434/434
f 432/432/432 434/434/434 436/436/436
f 435/435/435 437/437/437 436/436/436
f 433/433/433 432/432/432 438/438/438
f 438/438/438 432/432/432 436/436/436
f 437/437/437 433/433/433 438/438/438
f 437/437/437 438/438/438 436/436/436
