g A_build_fenglifadianzhan_002_v_004
v 0.133923039 0.578181386 0.158235833
v 0.0793268457 0.553799152 0.178992882
v 0.168994889 0.606821477 0.0803495795
v -0.0315514542 -0.173514605 -0.233865693
v -0.0294745509 -0.176681459 -0.234449252
v -0.0294745546 -0.173514605 -0.234667391
v -0.186008409 -0.173514605 0.151103646
v -0.217217848 -0.258784592 0.0674966797
v -0.237234592 -0.173514605 0.0360876285
v -0.183332175 -0.317341477 0.134284869
v -0.178668797 -0.325400293 0.143476069
v -0.178668797 -0.325400293 0.143476069
v -0.0570542254 -0.603114724 0.171292797
v -0.090064235 -0.583694994 0.159888327
v -0.186008409 -0.173514605 0.151103646
v -0.0294737797 -0.173514605 0.211526304
v -0.0294737797 -0.60654515 0.181702644
v -0.0478366651 -0.608536899 0.174477339
v -0.186008409 -0.173514605 0.151103646
v -0.216564804 0.245075732 0.0950486213
v -0.190123633 0.277252853 0.155380577
v -0.263291597 0.188211381 -0.0115702068
v -0.237234592 -0.173514605 0.0360876285
v -0.259991199 -0.058907643 -0.0115701696
v -0.0294737797 -0.173514605 0.211526304
v -0.105009384 0.373887628 0.189492255
v -0.0294733755 0.459647506 0.219765246
v -0.190123633 0.277252853 0.155380577
v -0.186008409 -0.173514605 0.151103646
v 0.127060071 -0.173514605 -0.174245879
v 0.0854159817 -0.497856051 -0.167983055
v 0.109388016 -0.539219379 -0.155881301
v -0.0292267613 -0.177374437 -0.234305918
v -0.0294745546 -0.173514605 -0.234667391
v -0.0294745509 -0.176681459 -0.234449252
v 0.127060071 -0.173514605 -0.174245879
v 0.168245256 -0.615846515 -0.0115702664
v 0.199513018 -0.173514605 -0.0115697635
v 0.119130649 -0.59968394 -0.12441089
v 0.109388016 -0.539219379 -0.155881301
v 0.130251393 -0.66870296 -0.0884876251
v 0.127060071 -0.173514605 0.151103646
v 0.155000955 -0.616837561 0.0180075224
v 0.10545817 -0.62054354 0.128654197
v 0.199513018 -0.173514605 -0.0115697635
v 0.168245256 -0.615846515 -0.0115702664
v -0.0294737797 -0.173514605 0.211526304
v -0.00132794701 -0.611924648 0.170467675
v -0.0294737797 -0.60654515 0.181702644
v 0.127060071 -0.173514605 0.151103646
v 0.0916045085 -0.629686773 0.133372039
v 0.10545817 -0.62054354 0.128654197
v 0.127060071 -0.173514605 -0.174245879
v -0.0294737797 0.433416575 -0.242564604
v -0.0294745546 -0.173514605 -0.234667391
v 0.041997917 0.486605555 -0.215669051
v 0.133710086 0.554858387 -0.181156754
v 0.199513018 -0.173514605 -0.0115697635
v 0.133710086 0.554858387 -0.181156754
v 0.127060071 -0.173514605 -0.174245879
v 0.161412194 0.580754876 -0.119734779
v 0.21019575 0.62635982 -0.0115701435
v 0.199513018 -0.173514605 -0.0115697635
v 0.184562758 0.61420399 0.0456172414
v 0.21019575 0.62635982 -0.0115701435
v 0.127060071 -0.173514605 0.151103646
v 0.133923039 0.578181386 0.158235833
v 0.168994889 0.606821477 0.0803495795
v 0.133923039 0.578181386 0.158235833
v 0.0700333789 0.547608018 0.182499632
v 0.0793268457 0.553799152 0.178992882
v 0.127060071 -0.173514605 0.151103646
v -0.0294737797 -0.173514605 0.211526304
v -0.0294733755 0.459647506 0.219765246
v 0.0202724058 0.51445967 0.201276332
v -0.238934442 0.213037774 -0.0670030341
v -0.188002363 0.0449666344 -0.176318526
v -0.189992294 0.262921542 -0.178386584
v -0.252095908 -0.0475153178 -0.0296388678
v -0.263291597 0.188211381 -0.0115702068
v -0.259991199 -0.058907643 -0.0115701696
v -0.119815938 0.340157151 -0.206479043
v -0.238934442 0.213037774 -0.0670030341
v -0.189992294 0.262921542 -0.178386584
v 0.0202724058 0.51445967 0.201276332
v -0.043622084 0.424016744 -0.236981049
v -0.105009384 0.373887628 0.189492255
v -0.0294733755 0.459647506 0.219765246
v -0.216564804 0.245075732 0.0950486213
v -0.263291597 0.188211381 -0.0115702068
v -0.190123633 0.277252853 0.155380577
v -0.0294737797 0.433416575 -0.242564604
v -0.043622084 0.424016744 -0.236981049
v -0.0294745546 -0.173514605 -0.234667391
v -0.119815938 0.340157151 -0.206479043
v -0.0315514542 -0.173514605 -0.233865693
v -0.162452042 0.00928547978 -0.18571642
v -0.189992294 0.262921542 -0.178386584
v -0.188002363 0.0449666344 -0.176318526
v -0.043622084 0.424016744 -0.236981049
v 0.0700333789 0.547608018 0.182499632
v 0.0202724058 0.51445967 0.201276332
v 0.041997917 0.486605555 -0.215669051
v -0.0294737797 0.433416575 -0.242564604
v 0.161412194 0.580754876 -0.119734779
v 0.133710086 0.554858387 -0.181156754
v 0.184562758 0.61420399 0.0456172414
v 0.21019575 0.62635982 -0.0115701435
v 0.0793268457 0.553799152 0.178992882
v 0.168994889 0.606821477 0.0803495795
v -0.0858878791 -0.613071084 0.134784922
v -0.0478366651 -0.608536899 0.174477339
v -0.0781432539 -0.623496413 0.131672546
v -0.0570542254 -0.603114724 0.171292797
v -0.090064235 -0.583694994 0.159888327
v 0.130251393 -0.66870296 -0.0884876251
v 0.155000955 -0.616837561 0.0180075224
v 0.168245256 -0.615846515 -0.0115702664
v 0.0916045085 -0.629686773 0.133372039
v 0.10545817 -0.62054354 0.128654197
v 0.0778216794 -0.690114081 -0.0279636811
v 0.101858631 -0.682967603 -0.0643459111
v 0.0778216794 -0.690114081 -0.0279636811
v -0.00132794701 -0.611924648 0.170467675
v 0.0916045085 -0.629686773 0.133372039
v -0.0478366651 -0.608536899 0.174477339
v -0.0781432539 -0.623496413 0.131672546
v -0.0294737797 -0.60654515 0.181702644
v -0.0858878791 -0.613071084 0.134784922
v -0.178668797 -0.325400293 0.143476069
v -0.090064235 -0.583694994 0.159888327
v -0.183332175 -0.317341477 0.134284869
v -0.217217848 -0.258784592 0.0674966797
v 0.0854159817 -0.497856051 -0.167983055
v 0.119130649 -0.59968394 -0.12441089
v 0.109388016 -0.539219379 -0.155881301
v 0.130251393 -0.66870296 -0.0884876251
v 0.101858631 -0.682967603 -0.0643459111
v -0.0292267613 -0.177374437 -0.234305918
v 0.101858631 -0.682967603 -0.0643459111
v 0.0854159817 -0.497856051 -0.167983055
v -0.0781432539 -0.623496413 0.131672546
v 0.0778216794 -0.690114081 -0.0279636811
v -0.162452042 0.00928547978 -0.18571642
v -0.0294745509 -0.176681459 -0.234449252
v -0.0315514542 -0.173514605 -0.233865693
v -0.259991199 -0.058907643 -0.0115701696
v -0.252095908 -0.0475153178 -0.0296388678
v -0.188002363 0.0449666344 -0.176318526
v -0.217217848 -0.258784592 0.0674966797
v -0.0858878791 -0.613071084 0.134784922
v -0.237234592 -0.173514605 0.0360876285
vt 0.0645695478 0.0457322709
vt 0.0843771771 0
vt 0 0.0751098618
vt 0.377352923 0.586330175
vt 0.376998544 0.58574152
vt 0.376998544 0.586330175
vt 0.458590746 0.586330175
vt 0.445463747 0.570480227
vt 0.440532237 0.586330175
vt 0.455950081 0.559595764
vt 0.458590746 0.55809778
vt 0.458590746 0.55809778
vt 0.476590902 0.506476581
vt 0.471255213 0.510086179
vt 0.458590746 0.586330175
vt 0.484633207 0.586330175
vt 0.484633207 0.505838811
vt 0.479278713 0.505468607
vt 0.458590746 0.586330175
vt 0.449789613 0.629152834
vt 0.458590746 0.63244462
vt 0.43304956 0.623335481
vt 0.440532237 0.586330175
vt 0.43304956 0.598054707
vt 0.484633207 0.586330175
vt 0.472897857 0.642330527
vt 0.484633207 0.651103914
vt 0.458590746 0.63244462
vt 0.458590746 0.586330175
vt 0.403707802 0.586330175
vt 0.399276435 0.526041925
vt 0.403707802 0.518353283
vt 0.377072662 0.585612714
vt 0.376998574 0.586330175
vt 0.376998574 0.58574152
vt 0.403707802 0.586330175
vt 0.433049619 0.504109979
vt 0.433049589 0.586330175
vt 0.41269657 0.507114291
vt 0.403707802 0.518353283
vt 0.419176072 0.494285107
vt 0.458590746 0.586330175
vt 0.441189051 0.503925681
vt 0.458590746 0.50323683
vt 0.433049589 0.586330175
vt 0.433049619 0.504109979
vt 0.484633178 0.586330175
vt 0.476425976 0.504838943
vt 0.484633178 0.505838811
vt 0.458590746 0.586330175
vt 0.460822046 0.501537263
vt 0.458590746 0.50323683
vt 0.403707802 0.586330175
vt 0.376998574 0.648420393
vt 0.376998574 0.586330175
vt 0.389193654 0.653861821
vt 0.403707802 0.660844207
vt 0.433049589 0.586330175
vt 0.403707802 0.660844207
vt 0.403707802 0.586330175
vt 0.414830774 0.663493514
vt 0.433049589 0.668158948
vt 0.433049589 0.586330175
vt 0.442028522 0.666915417
vt 0.433049589 0.668158948
vt 0.458590746 0.586330175
vt 0.458590776 0.663230121
vt 0.447131217 0.666160166
vt 0.458590776 0.663230121
vt 0.46917361 0.660102487
vt 0.467636883 0.660735846
vt 0.458590746 0.586330175
vt 0.484633178 0.586330175
vt 0.484633148 0.651103914
vt 0.476904541 0.65671128
vt 0.423712671 0.625875235
vt 0.403707802 0.608681202
vt 0.403707802 0.630978465
vt 0.430006146 0.599220157
vt 0.43304956 0.623335481
vt 0.43304956 0.598054707
vt 0.396187127 0.0284889601
vt 0.533322275 0.138358504
vt 0.478354186 0.0506182685
vt 0.220353186 0.349690408
vt 0.306973636 0.00446160045
vt 0.368618608 0.340407729
vt 0.278635263 0.364254683
vt 0.502776802 0.266011596
vt 0.56067872 0.182024658
vt 0.470012516 0.313536942
vt 0.376998544 0.648420393
vt 0.379412681 0.647458792
vt 0.376998544 0.586330175
vt 0.392413616 0.638879895
vt 0.377352923 0.586330175
vt 0.399688542 0.605031013
vt 0.403707802 0.630978465
vt 0.403707802 0.608681202
vt 0.00361078256 0
vt 0.342177421 0.109315641
vt 0.354195178 0.0614550784
vt 0.0253787413 0.0823506191
vt 0 0.0136082461
vt 0.108151548 0.19720535
vt 0.057944756 0.170561224
vt 0.240370348 0.2194722
vt 0.196566254 0.244126588
vt 0.339932978 0.118254282
vt 0.266974449 0.204498753
vt 0.00499171903 0.0129407682
vt 0.0482100695 0.0173478704
vt 0.00780222658 0.00280754664
vt 0.0411803722 0.0226182565
vt 0.016005544 0.0414935313
vt 0.175972462 0.0620275885
vt 0.0837967694 0.0861688256
vt 0.105816729 0.099087216
vt 0 0.0243310556
vt 0.00142257696 0.0378439315
vt 0.135421991 0.0108869281
vt 0.161129013 0.0343329012
vt 0.177693799 0.237222269
vt 0.00977264438 0.17485553
vt 0.0420401916 0.248082563
vt 0.00587630551 0.138208568
vt 0.0415685847 0.114328191
vt 0 0.15267776
vt 0.359034657 0.240604863
vt 0.121036679 0.247594491
vt 0.336035132 0.260793656
vt 0.113861084 0.24020271
vt 0.0617231801 0.18648991
vt 0.0120180836 0.176597178
vt 0.00511630997 0.0856962577
vt 0 0.139672399
vt 0.010956821 0.0240835566
vt 0.0396825895 0.0113497796
vt 0.212894291 0.000136337287
vt 0.614050448 0.161766887
vt 0.478557736 0.0632088482
vt 0.507493615 0.348178685
vt 0.610381484 0.196365967
vt 0.0341906734 0.0463445298
vt 0.212319642 0
vt 0.209353939 0.000555038452
vt 0.0467340089 0.211956173
vt 0.0416082777 0.194773018
vt 0 0.0552818291
vt 0.202059627 0.287148088
vt 0.497403115 0.351138562
vt 0.135157466 0.257278293
vn -0.341130912 0.921577215 0.185269937
vn -0.341130912 0.921577215 0.185269922
vn -0.341130912 0.921577215 0.185269922
vn -0.359367758 -0.064126119 -0.930990219
vn -0.359367758 -0.064126119 -0.930990219
vn -0.359367758 -0.0641261265 -0.930990219
vn -0.91159445 -0.064440161 0.40600875
vn -0.911594391 -0.064440161 0.40600878
vn -0.91159445 -0.064440161 0.40600875
vn -0.91159445 -0.0644400418 0.406008661
vn -0.911591291 -0.0644408166 0.406015724
vn -0.359365404 -0.0641195551 0.93099153
vn -0.359365344 -0.0641195476 0.93099153
vn -0.359365404 -0.0641195551 0.93099153
vn -0.359364927 -0.0641193166 0.930991769
vn -0.359364629 -0.0641192272 0.930991828
vn -0.35936445 -0.0641192347 0.930991948
vn -0.359364986 -0.0641254112 0.930991232
vn -0.913424551 -0.0121989911 0.406825066
vn -0.913424551 -0.0121989911 0.406825125
vn -0.913424551 -0.0121989911 0.406825066
vn -0.913425028 -0.0121992072 0.406824112
vn -0.913425028 -0.01219921 0.406824112
vn -0.913425028 -0.0121992081 0.406824112
vn -0.360079288 -0.0121382577 0.932842731
vn -0.360079288 -0.0121382577 0.932842731
vn -0.360079288 -0.0121382577 0.932842731
vn -0.36007908 -0.0121382317 0.932842731
vn -0.36007908 -0.0121382298 0.932842731
vn 0.359358996 -0.0641170815 -0.930994093
vn 0.359358966 -0.0641170815 -0.930994093
vn 0.359358966 -0.064117074 -0.930994093
vn 0.359358698 -0.0641170517 -0.930994213
vn 0.359358728 -0.06411428 -0.930994451
vn 0.359199345 -0.0641301796 -0.93105489
vn 0.911595047 -0.0644387901 -0.406007618
vn 0.911595047 -0.0644387901 -0.406007618
vn 0.911595047 -0.0644387901 -0.406007618
vn 0.911595166 -0.0644387901 -0.406007379
vn 0.911589384 -0.064440079 -0.406020045
vn 0.911595166 -0.0644387826 -0.406007409
vn 0.911592364 -0.0644407943 0.406013191
vn 0.911592364 -0.0644407868 0.406013161
vn 0.911592364 -0.0644407943 0.406013161
vn 0.911592364 -0.0644408017 0.406013221
vn 0.911585331 -0.0644390211 0.406029224
vn 0.359368354 -0.0641191453 0.930990398
vn 0.359368384 -0.0641191378 0.930990398
vn 0.359368384 -0.0641191378 0.930990398
vn 0.359366179 -0.0641193539 0.930991232
vn 0.359366417 -0.0641194284 0.930991113
vn 0.359365702 -0.0641193837 0.930991411
vn 0.36007309 -0.012138376 -0.932845116
vn 0.36007306 -0.012138376 -0.932845116
vn 0.36007306 -0.012138376 -0.932845116
vn 0.360072911 -0.0121384189 -0.932845116
vn 0.360073149 -0.0121383872 -0.932845116
vn 0.913425565 -0.0121995201 -0.40682289
vn 0.913425565 -0.0121995201 -0.40682295
vn 0.913425565 -0.0121995201 -0.40682295
vn 0.913425446 -0.0121995639 -0.406823039
vn 0.913425744 -0.0121994577 -0.406822413
vn 0.913423061 -0.0121990358 0.406828582
vn 0.913423061 -0.0121990368 0.406828612
vn 0.913423061 -0.0121990349 0.406828582
vn 0.913423061 -0.0121990358 0.406828612
vn 0.913424075 -0.0121959336 0.406826437
vn 0.913424075 -0.0121959336 0.406826437
vn 0.360080391 -0.0121385287 0.932842314
vn 0.360080421 -0.0121385287 0.932842314
vn 0.360080421 -0.0121385287 0.932842314
vn 0.360080391 -0.0121384608 0.932842314
vn 0.36008063 -0.0121384393 0.932842255
vn 0.360082388 -0.012138702 0.93284148
vn 0.360082537 -0.012139027 0.93284148
vn -0.91342485 -0.0121995956 -0.40682447
vn -0.91342485 -0.0121995946 -0.40682447
vn -0.913424969 -0.0121996785 -0.40682444
vn -0.91342485 -0.0121995946 -0.40682447
vn -0.91342628 -0.0121993478 -0.40682143
vn -0.91342628 -0.0121993497 -0.40682146
vn -0.74502182 0.666413486 -0.0289068781
vn -0.74502182 0.666413486 -0.0289068781
vn -0.74502182 0.666413486 -0.0289068781
vn -0.745024621 0.666410327 -0.0289063323
vn -0.745026588 0.666408062 -0.0289072357
vn -0.74502635 0.666408479 -0.0289021358
vn -0.745024562 0.666410327 -0.0289063286
vn -0.745028794 0.666405678 -0.0289059635
vn -0.745028794 0.666405678 -0.0289059635
vn -0.74502635 0.666408539 -0.0289021377
vn -0.360077679 -0.0121374344 -0.932843387
vn -0.360078245 -0.0121374475 -0.932843149
vn -0.360082388 -0.0121382615 -0.93284148
vn -0.360078067 -0.0121374438 -0.932843149
vn -0.360078067 -0.0121374438 -0.932843149
vn -0.360078067 -0.0121374438 -0.932843149
vn -0.360070378 -0.0121386964 -0.932846189
vn -0.360070407 -0.0121386983 -0.932846189
vn -0.574272633 0.814309776 -0.084324196
vn -0.574272633 0.814309776 -0.0843241885
vn -0.574272573 0.814309776 -0.0843241811
vn -0.574281931 0.814304054 -0.0843150616
vn -0.574278712 0.814307153 -0.0843076482
vn -0.574284554 0.81430161 -0.0843210444
vn -0.574281871 0.814304173 -0.0843150616
vn -0.5742746 0.814308822 -0.0843192041
vn -0.574284554 0.81430161 -0.0843210444
vn -0.5742746 0.814308822 -0.0843192041
vn -0.5742746 0.814308822 -0.0843191966
vn -0.550295234 -0.586282372 0.594515145
vn -0.550295174 -0.586282372 0.594515026
vn -0.550295174 -0.586282372 0.594515026
vn -0.550281763 -0.586305499 0.594504833
vn -0.550302029 -0.586277723 0.594513297
vn 0.590208292 -0.771232486 0.238441929
vn 0.590208292 -0.771232486 0.238441885
vn 0.590208292 -0.771232486 0.238441885
vn 0.590205491 -0.771236241 0.238436818
vn 0.590205491 -0.771236241 0.238436818
vn 0.590205967 -0.771234751 0.238440335
vn 0.59021765 -0.77122122 0.238455176
vn -0.0376241691 -0.934746444 0.353317857
vn -0.0376241691 -0.934746444 0.353317857
vn -0.0376241691 -0.934746444 0.353317857
vn -0.0376291052 -0.934750199 0.353307605
vn -0.0376256593 -0.934746444 0.353317797
vn -0.0376291014 -0.934750199 0.353307605
vn -0.930001915 -0.306095928 0.20347403
vn -0.930001915 -0.306095928 0.20347403
vn -0.930001915 -0.306095898 0.20347403
vn -0.930001915 -0.306095868 0.203474268
vn -0.930001795 -0.306095898 0.203474864
vn -0.421913892 -0.471146196 -0.774603069
vn -0.421913832 -0.471146196 -0.774603069
vn -0.421913892 -0.471146196 -0.774603128
vn -0.421927184 -0.471147269 -0.774595201
vn -0.421918601 -0.47114718 -0.77459991
vn -0.735978425 -0.379321992 -0.560758948
vn -0.735978365 -0.379321963 -0.560758948
vn -0.735978365 -0.379322022 -0.560758889
vn -0.735978127 -0.379327893 -0.560755253
vn -0.735978127 -0.379327893 -0.560755253
vn -0.735979915 -0.379320145 -0.560758293
vn -0.735853434 -0.379160136 -0.561032236
vn -0.736061096 -0.379425079 -0.560580552
vn -0.735972404 -0.379323363 -0.560765982
vn -0.735979915 -0.379320085 -0.560758293
vn -0.735979915 -0.379320085 -0.560758293
vn -0.73597604 -0.379321307 -0.560762465
vn -0.73597604 -0.379321337 -0.560762525
vn -0.735972404 -0.379323363 -0.560765982
g A_build_fenglifadianzhan_002_v_004_0
f 3/3/3 2/2/2 1/1/1
f 6/6/6 5/5/5 4/4/4
f 9/9/9 8/8/8 7/7/7
f 10/10/10 7/7/7 8/8/8
f 7/7/7 10/10/10 11/11/11
f 14/14/14 13/13/13 12/12/12
f 12/12/12 13/13/13 15/15/15
f 15/15/15 13/13/13 16/16/16
f 16/16/16 13/13/13 17/17/17
f 18/18/18 17/17/17 13/13/13
f 21/21/21 20/20/20 19/19/19
f 19/19/19 20/20/20 22/22/22
f 23/23/23 19/19/19 22/22/22
f 24/24/24 23/23/23 22/22/22
f 27/27/27 26/26/26 25/25/25
f 26/26/26 28/28/28 25/25/25
f 29/29/29 25/25/25 28/28/28
f 32/32/32 31/31/31 30/30/30
f 31/31/31 33/33/33 30/30/30
f 30/30/30 33/33/33 34/34/34
f 34/34/34 33/33/33 35/35/35
f 38/38/38 37/37/37 36/36/36
f 37/37/37 39/39/39 36/36/36
f 36/36/36 39/39/39 40/40/40
f 41/41/41 39/39/39 37/37/37
f 44/44/44 43/43/43 42/42/42
f 45/45/45 42/42/42 43/43/43
f 45/45/45 43/43/43 46/46/46
f 49/49/49 48/48/48 47/47/47
f 47/47/47 48/48/48 50/50/50
f 48/48/48 51/51/51 50/50/50
f 50/50/50 51/51/51 52/52/52
f 55/55/55 54/54/54 53/53/53
f 56/56/56 53/53/53 54/54/54
f 53/53/53 56/56/56 57/57/57
f 60/60/60 59/59/59 58/58/58
f 61/61/61 58/58/58 59/59/59
f 58/58/58 61/61/61 62/62/62
f 65/65/65 64/64/64 63/63/63
f 66/66/66 63/63/63 64/64/64
f 66/66/66 64/64/64 67/67/67
f 68/68/68 67/67/67 64/64/64
f 71/71/71 70/70/70 69/69/69
f 69/69/69 70/70/70 72/72/72
f 72/72/72 70/70/70 73/73/73
f 73/73/73 70/70/70 74/74/74
f 75/75/75 74/74/74 70/70/70
f 78/78/78 77/77/77 76/76/76
f 79/79/79 76/76/76 77/77/77
f 76/76/76 79/79/79 80/80/80
f 81/81/81 80/80/80 79/79/79
f 84/84/84 83/83/83 82/82/82
f 83/83/83 85/85/85 82/82/82
f 85/85/85 86/86/86 82/82/82
f 87/87/87 85/85/85 83/83/83
f 88/88/88 85/85/85 87/87/87
f 89/89/89 87/87/87 83/83/83
f 90/90/90 89/89/89 83/83/83
f 91/91/91 87/87/87 89/89/89
f 94/94/94 93/93/93 92/92/92
f 95/95/95 93/93/93 94/94/94
f 96/96/96 95/95/95 94/94/94
f 97/97/97 95/95/95 96/96/96
f 95/95/95 97/97/97 98/98/98
f 99/99/99 98/98/98 97/97/97
f 102/102/102 101/101/101 100/100/100
f 101/101/101 103/103/103 100/100/100
f 100/100/100 103/103/103 104/104/104
f 105/105/105 103/103/103 101/101/101
f 106/106/106 103/103/103 105/105/105
f 107/107/107 105/105/105 101/101/101
f 108/108/108 105/105/105 107/107/107
f 109/109/109 107/107/107 101/101/101
f 110/110/110 107/107/107 109/109/109
f 113/113/113 112/112/112 111/111/111
f 112/112/112 114/114/114 111/111/111
f 111/111/111 114/114/114 115/115/115
f 118/118/118 117/117/117 116/116/116
f 117/117/117 119/119/119 116/116/116
f 120/120/120 119/119/119 117/117/117
f 119/119/119 121/121/121 116/116/116
f 121/121/121 122/122/122 116/116/116
f 125/125/125 124/124/124 123/123/123
f 124/124/124 126/126/126 123/123/123
f 126/126/126 127/127/127 123/123/123
f 128/128/128 126/126/126 124/124/124
f 131/131/131 130/130/130 129/129/129
f 130/130/130 132/132/132 129/129/129
f 132/132/132 133/133/133 129/129/129
f 136/136/136 135/135/135 134/134/134
f 135/135/135 137/137/137 134/134/134
f 137/137/137 138/138/138 134/134/134
f 141/141/141 140/140/140 139/139/139
f 140/140/140 142/142/142 139/139/139
f 143/143/143 142/142/142 140/140/140
f 142/142/142 144/144/144 139/139/139
f 139/139/139 144/144/144 145/145/145
f 144/144/144 146/146/146 145/145/145
f 147/147/147 144/144/144 142/142/142
f 148/148/148 144/144/144 147/147/147
f 149/149/149 144/144/144 148/148/148
f 150/150/150 147/147/147 142/142/142
f 151/151/151 150/150/150 142/142/142
f 152/152/152 147/147/147 150/150/150
