g A_build_fenglifadianzhan_002_v_023
v -0.00233125524 0.733647287 -0.0470314249
v -0.00964205526 0.712270498 -0.042831365
v -0.00233141077 0.71227026 -0.0456532091
v 0.00397317065 0.71227026 -0.0432196707
v -0.00233125524 0.733647287 -0.0470314249
v -0.00233141077 0.71227026 -0.0456532091
v -0.00233141077 -0.629710197 -0.0552470274
v -0.13037321 0.610971391 -0.091039598
v -0.0705799535 -0.629710197 -0.0289026089
v -0.00233218586 0.610971391 -0.140461385
v -0.149156898 0.0367321558 0.0420239195
v -0.13037321 0.610971391 -0.091039598
v -0.159113958 0.61097163 -0.0265084896
v -0.102171049 -0.629795849 0.0420233943
v -0.0705799535 -0.629710197 -0.0289026089
v -0.102171049 -0.629795849 0.0420233943
v -0.0787254572 -0.460769147 0.121412389
v -0.0705799535 -0.629796267 0.112947449
v -0.111231752 -0.231166124 0.0847731903
v -0.149156898 0.0367321558 0.0420239195
v -0.0705799535 -0.629796267 0.112947449
v -0.00233141077 -0.486818641 0.149113655
v -0.00233141077 -0.629795849 0.139294103
v -0.0616035685 -0.466604263 0.127620578
v -0.0787254572 -0.460769147 0.121412389
v -0.00233218586 0.610971391 -0.140461385
v -0.100272715 0.71227026 -0.0597573854
v -0.13037321 0.610971391 -0.091039598
v -0.00233063544 0.71227026 -0.0975605026
v -0.159113958 0.61097163 -0.0265084896
v -0.137465477 0.658141792 -0.0290787965
v -0.146043226 0.641787589 -0.0257804748
v -0.13037321 0.610971391 -0.091039598
v -0.109074347 0.71227026 -0.0399955288
v -0.100272715 0.71227026 -0.0597573854
v -0.00233063544 0.71227026 -0.0975605026
v -0.0819981024 0.712270498 -0.0407677703
v -0.100272715 0.71227026 -0.0597573854
v -0.0477175377 0.712270677 -0.0417454764
v -0.00233141077 0.71227026 -0.0456532091
v -0.00964205526 0.712270498 -0.042831365
v -0.100272715 0.71227026 -0.0597573854
v -0.0987521708 0.71227026 -0.0402899161
v -0.109074347 0.71227026 -0.0399955288
v -0.0819981024 0.712270498 -0.0407677703
v -0.00233141077 -0.629710197 -0.0552470274
v 0.125708058 0.610971391 -0.091039598
v -0.00233218586 0.610971391 -0.140461385
v 0.0659163594 -0.629710197 -0.0289026089
v 0.125708058 0.610971391 -0.091039598
v 0.157151163 0.321093976 0.0254530311
v 0.15352793 0.610971391 -0.0285702515
v 0.0659163594 -0.629710197 -0.0289026089
v 0.15826571 0.232175559 0.0420243405
v 0.0975066796 -0.629795849 0.0420233943
v 0.0659163594 -0.629796267 0.112947449
v 0.15826571 0.232175559 0.0420243405
v 0.0975066796 -0.629795849 0.0420233943
v 0.133117601 0.0705906525 0.0729131028
v 0.084663868 -0.240757197 0.132430688
v -0.00233141077 -0.629795849 0.139294103
v 0.084663868 -0.240757197 0.132430688
v 0.0659163594 -0.629796267 0.112947449
v 0.02232375 -0.390874773 0.146186084
v -0.00233141077 -0.486818641 0.149113655
v 0.0475479886 -0.292712957 0.143190533
v -0.00233218586 0.610971391 -0.140461385
v 0.0956013724 0.712269902 -0.0597573854
v -0.00233063544 0.71227026 -0.0975605026
v 0.125708058 0.610971391 -0.091039598
v 0.0956013724 0.712269902 -0.0597573854
v 0.132028461 0.653018475 -0.0358081944
v 0.101725645 0.712270081 -0.0460075699
v 0.125708058 0.610971391 -0.091039598
v 0.15352793 0.610971391 -0.0285702515
v -0.00233063544 0.71227026 -0.0975605026
v 0.00397317065 0.71227026 -0.0432196707
v -0.00233141077 0.71227026 -0.0456532091
v 0.0409972295 0.71227026 -0.0442755781
v 0.0956013724 0.712269902 -0.0597573854
v 0.0818260163 0.712270081 -0.0454400182
v 0.0956013724 0.712269902 -0.0597573854
v 0.0945126191 0.712269902 -0.0458018556
v 0.0818260163 0.712270081 -0.0454400182
v 0.101725645 0.712270081 -0.0460075699
v 0.0659163594 -0.629710197 -0.0289026089
v 0.0659163594 -0.629796267 0.112947449
v 0.0975066796 -0.629795849 0.0420233943
v -0.0705799535 -0.629710197 -0.0289026089
v -0.00233141077 -0.629710197 -0.0552470274
v -0.0705799535 -0.629796267 0.112947449
v -0.00233141077 -0.629795849 0.139294103
v -0.102171049 -0.629795849 0.0420233943
v 0.0475479886 -0.292712957 0.143190533
v 0.133117601 0.0705906525 0.0729131028
v 0.084663868 -0.240757197 0.132430688
v -0.137465477 0.658141792 -0.0290787965
v -0.146043226 0.641787589 -0.0257804748
v 0.132028461 0.653018475 -0.0358081944
v 0.157151163 0.321093976 0.0254530311
v 0.15826571 0.232175559 0.0420243405
v 0.15352793 0.610971391 -0.0285702515
v 0.0409972295 0.71227026 -0.0442755781
v 0.0818260163 0.712270081 -0.0454400182
v 0.0945126191 0.712269902 -0.0458018556
v 0.101725645 0.712270081 -0.0460075699
v 0.00397317065 0.71227026 -0.0432196707
v -0.00964205526 0.712270498 -0.042831365
v -0.00233125524 0.733647287 -0.0470314249
v -0.0477175377 0.712270677 -0.0417454764
v -0.0819981024 0.712270498 -0.0407677703
v -0.0987521708 0.71227026 -0.0402899161
v -0.109074347 0.71227026 -0.0399955288
v -0.149156898 0.0367321558 0.0420239195
v -0.0787254572 -0.460769147 0.121412389
v -0.111231752 -0.231166124 0.0847731903
v -0.146043226 0.641787589 -0.0257804748
v -0.159113958 0.61097163 -0.0265084896
v 0.02232375 -0.390874773 0.146186084
v 0.0475479886 -0.292712957 0.143190533
v -0.0616035685 -0.466604263 0.127620578
v -0.00233141077 -0.486818641 0.149113655
vt 0.419082999 0.0945673808
vt 0.42078948 0.0911471844
vt 0.419082999 0.0911471844
vt 0.420554668 0.0911471844
vt 0.419082999 0.0945673808
vt 0.419082999 0.0911471844
vt 0.417631388 0.118891723
vt 0.433851123 0.305933714
vt 0.433851123 0.118891723
vt 0.417631388 0.305933714
vt 0.450332999 0.219368801
vt 0.433851123 0.305933714
vt 0.441844195 0.305933714
vt 0.450332999 0.118891723
vt 0.433851123 0.118891723
vt 0.450332999 0.118891723
vt 0.46579361 0.144372016
vt 0.46579361 0.118891723
vt 0.455300152 0.178983957
vt 0.450332999 0.219368801
vt 0.46579361 0.118891723
vt 0.479319334 0.140445113
vt 0.479319334 0.118891723
vt 0.46757257 0.14349243
vt 0.46579361 0.144372016
vt 0.417631388 0.305933714
vt 0.433851123 0.320530415
vt 0.433851123 0.305933714
vt 0.417631388 0.320530415
vt 0.441844195 0.305933714
vt 0.441525966 0.31273073
vt 0.441934466 0.310374171
vt 0.433851123 0.305933714
vt 0.437051296 0.320530415
vt 0.433851123 0.320530415
vt 0.415008903 0.0731332302
vt 0.429412186 0.0778520107
vt 0.429412186 0.0731332302
vt 0.425635397 0.0800722688
vt 0.415008903 0.0825384855
vt 0.416720599 0.0825384855
vt 0.429412186 0.0731332302
vt 0.432526171 0.0749321356
vt 0.432573318 0.0731332302
vt 0.429412186 0.0778520107
vt 0.417631358 0.118891723
vt 0.433851093 0.305933714
vt 0.417631358 0.305933714
vt 0.433851093 0.118891723
vt 0.433851093 0.305933714
vt 0.446482122 0.262232542
vt 0.441588819 0.305933714
vt 0.433851093 0.118891723
vt 0.450333029 0.248831362
vt 0.450333029 0.118891723
vt 0.465793639 0.118891723
vt 0.450333029 0.248831362
vt 0.450333029 0.118891723
vt 0.457066476 0.22447294
vt 0.46579361 0.177538171
vt 0.479319334 0.118891723
vt 0.46579361 0.177538171
vt 0.465793639 0.118891723
vt 0.476714849 0.154908359
vt 0.479319334 0.140445113
vt 0.47265324 0.169705987
vt 0.417631358 0.305933714
vt 0.433851093 0.320530415
vt 0.417631358 0.320530415
vt 0.433851093 0.305933714
vt 0.433851093 0.320530415
vt 0.440692365 0.311992496
vt 0.436077684 0.320530415
vt 0.433851093 0.305933714
vt 0.441588819 0.305933714
vt 0.415008873 0.0731332302
vt 0.416485012 0.0825386047
vt 0.415008873 0.0825386047
vt 0.425153702 0.0797578022
vt 0.429412186 0.0731332302
vt 0.429412186 0.0766910315
vt 0.429412186 0.0731332302
vt 0.431644499 0.074422814
vt 0.429412186 0.0766910315
vt 0.431611657 0.0731332302
vt 0.433851093 0.118891723
vt 0.465793639 0.118891723
vt 0.450333029 0.118891723
vt 0.433851123 0.118891723
vt 0.417631388 0.118891723
vt 0.46579361 0.118891723
vt 0.479319334 0.118891723
vt 0.450332999 0.118891723
vt 0.166147575 0.0559239574
vt 0.235075414 0.346929848
vt 0.195602342 0.0975404382
vt 0.0243939776 0.81755805
vt 0.017568551 0.80445838
vt 0.236658707 0.813454211
vt 0.255057156 0.547582805
vt 0.255562395 0.476359338
vt 0.253418088 0.779774547
vt 0.165199801 0.860914826
vt 0.197361529 0.860914707
vt 0.207355037 0.860914528
vt 0.213036895 0.860914707
vt 0.136035144 0.860914826
vt 0.125310138 0.860915005
vt 0.131158605 0.87803793
vt 0.095317252 0.860915124
vt 0.0683137104 0.860915005
vt 0.055116158 0.860915005
vt 0.0469851494 0.860914826
vt 0.0240836143 0.414650738
vt 0.0961022153 0.0206311028
vt 0.0628636554 0.20247604
vt 0.00996791851 0.893852949
vt 0 0.869446814
vt 0.177808151 0.0759872422
vt 0.195977017 0.153731152
vt 0.110434286 0.0160096735
vt 0.160049051 0
vn -0.359448552 -0.0600357354 -0.931231737
vn -0.359448552 -0.0600357205 -0.931231737
vn -0.359448552 -0.0600357205 -0.931231737
vn 0.359450251 -0.0600408837 -0.931230664
vn 0.35945031 -0.0600408837 -0.931230664
vn 0.359450251 -0.0600408837 -0.931230664
vn -0.359372735 -0.0639468133 -0.931000531
vn -0.359372735 -0.0639468208 -0.931000531
vn -0.359372705 -0.0639468133 -0.931000531
vn -0.359354198 -0.0639451072 -0.931007862
vn -0.91160655 -0.0642619431 -0.406009614
vn -0.91160655 -0.0642619431 -0.406009674
vn -0.91160655 -0.0642619431 -0.406009614
vn -0.91160655 -0.0642619431 -0.406009674
vn -0.911566734 -0.0642705187 -0.406097889
vn -0.911591887 -0.0642648041 0.406042218
vn -0.911591887 -0.0642648041 0.406042218
vn -0.911591887 -0.0642648041 0.406042188
vn -0.911591887 -0.0642648637 0.406042278
vn -0.911603451 -0.0642623678 0.406016529
vn -0.35939911 -0.0639396831 0.930990934
vn -0.35939911 -0.0639396831 0.930990815
vn -0.35939908 -0.0639396831 0.930990815
vn -0.35939908 -0.0639396831 0.930990815
vn -0.359362692 -0.0639429241 0.931004643
vn -0.334899694 0.36745441 -0.867651641
vn -0.334899694 0.36745438 -0.867651641
vn -0.334899694 0.36745438 -0.867651641
vn -0.334891111 0.367462546 -0.867651463
vn -0.849016726 0.369047582 -0.378119528
vn -0.849016726 0.369047582 -0.378119498
vn -0.849016726 0.369047612 -0.378119498
vn -0.849012196 0.369044751 -0.378132761
vn -0.849006712 0.369052202 -0.378137767
vn -0.849008143 0.369051248 -0.378135294
vn -2.87202761E-06 1 -7.4409827E-06
vn -2.87202784E-06 1 -7.4409827E-06
vn -2.87202761E-06 1 -7.4409827E-06
vn -5.98992301E-06 1 -1.18146909E-05
vn 3.38079758E-06 1 -5.99150517E-05
vn 3.38079758E-06 1 -5.99150444E-05
vn -0 1 0
vn -0 1 0
vn -0 1 0
vn -1.15408293E-05 1 9.01420151E-07
vn 0.359356046 -0.063944608 -0.931007147
vn 0.359356076 -0.0639446154 -0.931007147
vn 0.359356076 -0.0639446154 -0.931007147
vn 0.359376341 -0.0639464706 -0.93099916
vn 0.911620498 -0.0642659515 -0.405977875
vn 0.911620498 -0.0642659366 -0.405977845
vn 0.911620498 -0.0642659217 -0.405977756
vn 0.911620498 -0.0642659366 -0.405977786
vn 0.911571562 -0.0642548651 -0.406089455
vn 0.911571264 -0.064254798 -0.406089962
vn 0.91159606 -0.0642574504 0.406033993
vn 0.911596119 -0.0642574653 0.406033993
vn 0.91159606 -0.0642574281 0.406034082
vn 0.911596119 -0.0642574504 0.406033963
vn 0.911616743 -0.0642621294 0.405986875
vn 0.359402567 -0.0639436692 0.930989265
vn 0.359402567 -0.0639436692 0.930989265
vn 0.359402597 -0.0639436692 0.930989265
vn 0.359402508 -0.0639436543 0.930989265
vn 0.359367937 -0.0639405027 0.931002915
vn 0.359402508 -0.0639436468 0.930989265
vn 0.33492431 0.367449224 -0.86764437
vn 0.334924251 0.367449194 -0.86764437
vn 0.334924251 0.367449254 -0.86764437
vn 0.33489877 0.367473632 -0.867643952
vn 0.848982632 0.369100064 -0.37814495
vn 0.848982632 0.369100064 -0.378144979
vn 0.848981917 0.369098186 -0.378148407
vn 0.848982692 0.369100064 -0.37814495
vn 0.849028111 0.369038343 -0.378103137
vn -0 1 0
vn -0 1 0
vn -0 1 0
vn -0 1 0
vn 4.48332639E-06 1 -9.2214741E-06
vn 4.48332639E-06 1 -9.2214741E-06
vn 1.53089659E-05 1 1.19433651E-06
vn 1.53089677E-05 1 1.19433662E-06
vn 1.53089659E-05 1 1.19433651E-06
vn -2.69261236E-05 1 -2.10065514E-06
vn -0.00134954066 -0.999998927 -0.000606564165
vn -0.00134954066 -0.999998927 -0.000606564106
vn -0.00134954078 -0.999998927 -0.000606564223
vn 0.00134950783 -0.999998927 -0.000606564165
vn -0 -1 0
vn -0 -1 1.4710532E-05
vn -0 -1 1.47105357E-05
vn 0.00134950771 -0.999998927 -0.000606564165
vn 0.0280240048 0.183478251 0.982624233
vn 0.0280240048 0.183478251 0.982624233
vn 0.0280240066 0.183478236 0.982624233
vn 0.0280242153 0.183478415 0.982624233
vn 0.0280228704 0.183477715 0.982624352
vn 0.0280252863 0.183477968 0.982624233
vn 0.0280223619 0.1834784 0.982624352
vn 0.0280223582 0.183478385 0.982624352
vn 0.0280252863 0.183477968 0.982624233
vn 0.0280253664 0.183478609 0.982624114
vn 0.0280283187 0.183481067 0.982623637
vn 0.0280196927 0.183475763 0.982624829
vn 0.0280196927 0.183475778 0.982624829
vn 0.0280270111 0.183478326 0.982624114
vn 0.0280270074 0.183478296 0.982624114
vn 0.0280270074 0.183478296 0.982624114
vn 0.0280241631 0.18347837 0.982624233
vn 0.0280239321 0.183478579 0.982624233
vn 0.0280242134 0.183478415 0.982624233
vn 0.0280242134 0.1834784 0.982624233
vn -0.311757743 0.106443003 0.944180667
vn -0.311757743 0.106443003 0.944180667
vn -0.311757743 0.106443003 0.944180667
vn -0.306291282 0.107570119 0.945840597
vn -0.30629164 0.107570045 0.945840478
vn -0.306291491 0.10757003 0.945840478
vn -0.306291282 0.107570112 0.945840597
vn -0.306291491 0.10757003 0.945840478
vn -0.306291491 0.10757003 0.945840478
g A_build_fenglifadianzhan_002_v_023_0
f 3/3/3 2/2/2 1/1/1
f 6/6/6 5/5/5 4/4/4
f 9/9/9 8/8/8 7/7/7
f 10/10/10 7/7/7 8/8/8
f 13/13/13 12/12/12 11/11/11
f 14/14/14 11/11/11 12/12/12
f 15/15/15 14/14/14 12/12/12
f 18/18/18 17/17/17 16/16/16
f 19/19/19 16/16/16 17/17/17
f 16/16/16 19/19/19 20/20/20
f 23/23/23 22/22/22 21/21/21
f 24/24/24 21/21/21 22/22/22
f 21/21/21 24/24/24 25/25/25
f 28/28/28 27/27/27 26/26/26
f 29/29/29 26/26/26 27/27/27
f 32/32/32 31/31/31 30/30/30
f 33/33/33 30/30/30 31/31/31
f 31/31/31 34/34/34 33/33/33
f 35/35/35 33/33/33 34/34/34
f 38/38/38 37/37/37 36/36/36
f 39/39/39 36/36/36 37/37/37
f 36/36/36 39/39/39 40/40/40
f 41/41/41 40/40/40 39/39/39
f 44/44/44 43/43/43 42/42/42
f 42/42/42 43/43/43 45/45/45
f 48/48/48 47/47/47 46/46/46
f 49/49/49 46/46/46 47/47/47
f 52/52/52 51/51/51 50/50/50
f 53/53/53 50/50/50 51/51/51
f 51/51/51 54/54/54 53/53/53
f 55/55/55 53/53/53 54/54/54
f 58/58/58 57/57/57 56/56/56
f 59/59/59 56/56/56 57/57/57
f 56/56/56 59/59/59 60/60/60
f 63/63/63 62/62/62 61/61/61
f 62/62/62 64/64/64 61/61/61
f 61/61/61 64/64/64 65/65/65
f 66/66/66 64/64/64 62/62/62
f 69/69/69 68/68/68 67/67/67
f 70/70/70 67/67/67 68/68/68
f 73/73/73 72/72/72 71/71/71
f 74/74/74 71/71/71 72/72/72
f 74/74/74 72/72/72 75/75/75
f 78/78/78 77/77/77 76/76/76
f 79/79/79 76/76/76 77/77/77
f 76/76/76 79/79/79 80/80/80
f 81/81/81 80/80/80 79/79/79
f 84/84/84 83/83/83 82/82/82
f 82/82/82 83/83/83 85/85/85
f 88/88/88 87/87/87 86/86/86
f 87/87/87 89/89/89 86/86/86
f 86/86/86 89/89/89 90/90/90
f 91/91/91 89/89/89 87/87/87
f 92/92/92 91/91/91 87/87/87
f 93/93/93 89/89/89 91/91/91
f 96/96/96 95/95/95 94/94/94
f 95/95/95 97/97/97 94/94/94
f 97/97/97 98/98/98 94/94/94
f 99/99/99 97/97/97 95/95/95
f 100/100/100 99/99/99 95/95/95
f 101/101/101 100/100/100 95/95/95
f 102/102/102 99/99/99 100/100/100
f 103/103/103 97/97/97 99/99/99
f 104/104/104 103/103/103 99/99/99
f 105/105/105 104/104/104 99/99/99
f 106/106/106 105/105/105 99/99/99
f 107/107/107 97/97/97 103/103/103
f 108/108/108 97/97/97 107/107/107
f 109/109/109 108/108/108 107/107/107
f 110/110/110 97/97/97 108/108/108
f 111/111/111 97/97/97 110/110/110
f 112/112/112 97/97/97 111/111/111
f 113/113/113 97/97/97 112/112/112
f 116/116/116 115/115/115 114/114/114
f 115/115/115 117/117/117 114/114/114
f 117/117/117 118/118/118 114/114/114
f 119/119/119 117/117/117 115/115/115
f 120/120/120 117/117/117 119/119/119
f 121/121/121 119/119/119 115/115/115
f 122/122/122 119/119/119 121/121/121
