g A_build_fenglifadianzhan_002_v_036
v 0.0030882319 -0.0433101468 -0.139837921
v 0.148727983 -0.0433109216 -0.16119805
v 0.317277819 -0.0433109216 -0.185918301
v -0.322274715 -0.0433101468 -0.076621145
v -0.0473581068 -0.0433101468 -0.132439256
v -0.22885327 -0.0433101468 -0.105820335
v 0.060189493 -0.0433113091 0.29303652
v 0.164438605 -0.0433105342 0.00801884197
v 0.0030882319 -0.0433101468 -0.139837921
v 0.148727983 -0.0433109216 -0.16119805
v 0.319123566 -0.0433109216 -0.184137553
v 0.317277819 -0.0433109216 -0.185918301
v 0.31889838 -0.0433105342 -0.186155975
v 0.322199106 -0.0433109216 -0.186640114
v -0.00391381141 0.0427059196 -0.146254346
v -0.33903414 0.0427059196 -0.0928194821
v -0.322072208 0.042706307 -0.0995917916
v 0.164438605 0.0427059196 0.00801884197
v 0.060189493 0.0427059196 0.29303652
v 0.270122796 0.0427047573 -0.186445743
v 0.319123566 0.0427043699 -0.184137553
v 0.310580879 0.0427043699 -0.19237949
v 0.333358139 0.0427043699 -0.195720077
v -0.33903414 0.0427059196 -0.0928194821
v -0.322274715 -0.0433101468 -0.076621145
v -0.33903414 0.00572174368 -0.0928194821
v 0.060189493 -0.0433113091 0.29303652
v 0.060189493 0.0427059196 0.29303652
v 0.164438605 -0.0433105342 0.00801884197
v 0.319123566 0.0427043699 -0.184137553
v 0.319123566 -0.0433109216 -0.184137553
v 0.164438605 0.0427059196 0.00801884197
v 0.164438605 0.0427059196 0.00801884197
v 0.060189493 -0.0433113091 0.29303652
v 0.060189493 0.0427059196 0.29303652
v 0.164438605 -0.0433105342 0.00801884197
v 0.319123566 -0.0433109216 -0.184137553
v 0.322394013 -0.0418086872 -0.186798677
v 0.322199106 -0.0433109216 -0.186640114
v 0.319123566 0.0427043699 -0.184137553
v 0.333358139 0.0427043699 -0.195720077
v -0.322072208 0.042706307 -0.0995917916
v -0.33903414 0.00572174368 -0.0928194821
v -0.334429383 0.00663486635 -0.0946579799
v -0.33903414 0.0427059196 -0.0928194821
v -0.322274715 -0.0433101468 -0.076621145
v -0.334429383 0.00663486635 -0.0946579799
v -0.33903414 0.00572174368 -0.0928194821
v -0.22885327 -0.0433101468 -0.105820335
v -0.0473581068 -0.0433101468 -0.132439256
v -0.334429383 0.00663486635 -0.0946579799
v -0.22885327 -0.0433101468 -0.105820335
v 0.0030882319 -0.0433101468 -0.139837921
v 0.270122796 0.0427047573 -0.186445743
v 0.317277819 -0.0433109216 -0.185918301
v -0.00391381141 0.0427059196 -0.146254346
v -0.322072208 0.042706307 -0.0995917916
v 0.322394013 -0.0418086872 -0.186798677
v 0.310580879 0.0427043699 -0.19237949
v 0.333358139 0.0427043699 -0.195720077
v 0.31889838 -0.0433105342 -0.186155975
v 0.322199106 -0.0433109216 -0.186640114
vt 0.263687581 9.15527323E-07
vt 0.147783801 3.05175774E-07
vt 0.0136476327 0
vt 0.275817543 0.25427255
vt 0.289841384 0.269384533
vt 0.279582173 0.259888738
vt 0.339087725 0.25427255
vt 0.330523849 0.271631926
vt 0.296233445 0.271794736
vt 0.311966896 0.287786633
vt 0.323194504 0.307353646
vt 0.322865367 0.30735442
vt 0.322995156 0.307556331
vt 0.323242664 0.307966918
vt 0.294745564 0.271801829
vt 0.273045063 0.25427255
vt 0.273584723 0.255361378
vt 0.330523968 0.271631986
vt 0.339087725 0.25427255
vt 0.31790936 0.302826345
vt 0.323194504 0.307353646
vt 0.321671098 0.307357132
vt 0.323417366 0.310192138
vt 0.199389935 0.0652079284
vt 0.201992929 0.0569276214
vt 0.199389935 0.061647661
vt 0.261395335 0.0569276214
vt 0.261395335 0.0652079284
vt 0.582683206 0.994975686
vt 0.547973752 0.984143496
vt 0.547973752 0.994975686
vt 0.582683206 0.984143496
vt 0.582683206 0.984143496
vt 0.601309717 0.994975686
vt 0.601309717 0.984143496
vt 0.582683206 0.994975686
vt 0.547973752 0.994975686
vt 0.547350347 0.994786501
vt 0.54738754 0.994975686
vt 0.547973752 0.984143496
vt 0.545260549 0.984143496
vt 0.493156582 0.966475964
vt 0.491984844 0.971539319
vt 0.492302924 0.971414268
vt 0.491984844 0.966475964
vt 1.45016515 9.15527323E-07
vt 1.45506322 0.0426145419
vt 1.45895565 0.0418353267
vt 1.37309551 9.15527323E-07
vt 0.303834081 9.15527323E-07
vt 0.53179878 0.0394717418
vt 0.448272467 9.15527323E-07
vt 0.263687581 9.15527323E-07
vt 0.0503242686 0.0679769889
vt 0.0136476327 0
vt 0.26840952 0.0679775998
vt 0.521607995 0.0679779053
vt 0.00956117641 0.00118743896
vt 0.0181266982 0.0679763779
vt 0 0.0679766834
vt 0.0123579409 6.10351549E-07
vt 0.00973113999 0
vn -0.14505522 -0.0279457401 -0.989028811
vn -0.145055205 -0.0279457383 -0.989028811
vn -0.14505522 -0.0279457401 -0.989028811
vn -5.27762836E-07 -1 -2.59934905E-06
vn -5.27762779E-07 -1 -2.59934905E-06
vn -0 -1 0
vn -5.27762836E-07 -1 -2.59934927E-06
vn -4.91944911E-06 -1 2.74712988E-06
vn -4.91944911E-06 -1 2.74712988E-06
vn -4.91944911E-06 -1 2.74712988E-06
vn 0.000207600518 -1 -0.000215177221
vn 0.000207600518 -1 -0.000215177206
vn 0.000207600518 -1 -0.000215177221
vn -0.000143240744 -1 -0.00017603673
vn 1.51923732E-05 1 9.52799746E-05
vn 1.51923732E-05 1 9.52799746E-05
vn 1.51923732E-05 1 9.52799746E-05
vn -0 1 0
vn -0 1 0
vn 8.3155328E-06 1 -8.61895023E-06
vn 8.31553371E-06 1 -8.61895114E-06
vn 8.3155328E-06 1 -8.61894932E-06
vn -0 1 0
vn -0.694965959 6.45495561E-07 0.71904254
vn -0.694965959 6.45495561E-07 0.71904254
vn -0.694967568 0 0.719041169
vn -0.694965959 6.45495561E-07 0.71904254
vn -0.694966018 0 0.71904254
vn 0.778967202 0 0.627064764
vn 0.778967083 0 0.627064764
vn 0.778967083 0 0.627064764
vn 0.778967083 0 0.627064764
vn 0.939150095 0 0.343506962
vn 0.939150095 0 0.343507022
vn 0.939150095 0 0.343506992
vn 0.939150095 0 0.343507022
vn 0.631152213 -1.27038293E-05 0.775658965
vn 0.631152272 -1.27038302E-05 0.775658965
vn 0.631152213 -1.27038293E-05 0.775658965
vn 0.631148756 0 0.775661826
vn 0.631148517 0 0.775662005
vn -0.370799035 -1.60034836E-06 -0.928713024
vn -0.370799035 -1.6003487E-06 -0.928713143
vn -0.370799035 -1.6003487E-06 -0.928713143
vn -0.370802015 0 -0.928711891
vn -0.275321662 -0.385106295 -0.880846918
vn -0.275321662 -0.385106295 -0.880846918
vn -0.275321662 -0.385106266 -0.880846918
vn -0.275312692 -0.385105193 -0.880850017
vn -0.144583225 -0.0853056684 -0.985808611
vn -0.14458324 -0.0853056759 -0.985808611
vn -0.144583225 -0.0853056684 -0.985808611
vn -0.144582927 -0.0853038654 -0.98580879
vn -0.144583315 -0.0853068084 -0.985808492
vn -0.144562095 -0.0853855237 -0.985804737
vn -0.144583255 -0.0853069946 -0.985808492
vn -0.14458324 -0.0853069723 -0.985808492
vn -0.144582152 -0.0853072852 -0.985808671
vn -0.144582152 -0.0853072777 -0.985808671
vn -0.144582152 -0.0853072777 -0.985808671
vn -0.144601583 -0.085294567 -0.985806823
vn -0.144601583 -0.085294567 -0.985806823
g A_build_fenglifadianzhan_002_v_036_0
f 3/3/3 2/2/2 1/1/1
f 6/6/6 5/5/5 4/4/4
f 7/7/7 4/4/4 5/5/5
f 7/7/7 5/5/5 8/8/8
f 9/9/9 8/8/8 5/5/5
f 9/9/9 10/10/10 8/8/8
f 8/8/8 10/10/10 11/11/11
f 12/12/12 11/11/11 10/10/10
f 12/12/12 13/13/13 11/11/11
f 11/11/11 13/13/13 14/14/14
f 17/17/17 16/16/16 15/15/15
f 18/18/18 15/15/15 16/16/16
f 19/19/19 18/18/18 16/16/16
f 15/15/15 18/18/18 20/20/20
f 21/21/21 20/20/20 18/18/18
f 22/22/22 20/20/20 21/21/21
f 21/21/21 23/23/23 22/22/22
f 26/26/26 25/25/25 24/24/24
f 27/27/27 24/24/24 25/25/25
f 28/28/28 24/24/24 27/27/27
f 31/31/31 30/30/30 29/29/29
f 32/32/32 29/29/29 30/30/30
f 35/35/35 34/34/34 33/33/33
f 36/36/36 33/33/33 34/34/34
f 39/39/39 38/38/38 37/37/37
f 37/37/37 38/38/38 40/40/40
f 41/41/41 40/40/40 38/38/38
f 44/44/44 43/43/43 42/42/42
f 45/45/45 42/42/42 43/43/43
f 48/48/48 47/47/47 46/46/46
f 49/49/49 46/46/46 47/47/47
f 52/52/52 51/51/51 50/50/50
f 50/50/50 51/51/51 53/53/53
f 51/51/51 54/54/54 53/53/53
f 54/54/54 55/55/55 53/53/53
f 56/56/56 54/54/54 51/51/51
f 57/57/57 56/56/56 51/51/51
f 58/58/58 55/55/55 54/54/54
f 59/59/59 58/58/58 54/54/54
f 60/60/60 58/58/58 59/59/59
f 61/61/61 55/55/55 58/58/58
f 62/62/62 61/61/61 58/58/58
