g A_build_fenglifadianzhan_002_v_052
v -0.029796727 0.179813445 -0.0944079384
v -0.398393542 0.999135494 -0.126782805
v -0.457746416 1.04578388 0.120457813
v -0.166904256 0.223125532 0.244120494
v 0.234525889 -0.703794658 -0.215390995
v -0.029796727 0.179813445 -0.0944079384
v 0.234525889 -0.703794658 -0.215390995
v -0.166904256 0.223125532 0.244120494
v 0.144567922 -0.680485189 0.119042441
v 0.135904014 0.188675687 -0.116237693
v 0.300641328 -0.669352531 0.177299321
v -0.0695311204 0.243474677 0.327498883
v -0.0605866127 0.140263915 -0.469295293
v -0.398393542 0.999135494 -0.126782805
v -0.029796727 0.179813445 -0.0944079384
v -0.166904256 0.223125532 0.244120494
v -0.38777715 0.502665043 0.32322219
v -0.337704092 0.248701096 0.410299271
v 0.234525889 -0.703794658 -0.215390995
v 0.235091075 -0.738576233 -0.234005943
v 0.224896535 -0.707268059 -0.278486878
v 0.300641328 -0.669352531 0.177299321
v 0.301847458 -0.80517447 0.179398134
v 0.114267148 -0.659475625 0.350362211
v -0.0360692143 -0.658769846 0.40261358
v -0.0319553167 -0.669726968 0.400092423
v -0.0325468518 -0.670567572 0.399754494
v 0.053711351 0.142210305 -0.47713685
v 0.108305015 -0.227474093 -0.51383692
v 0.130277902 -0.154860705 -0.515539765
v 0.135904014 0.188675687 -0.116237693
v -0.38307333 1.05347323 0.162147194
v -0.311614394 1.0016439 -0.115279756
v -0.0695311204 0.243474677 0.327498883
v -0.38307333 1.05347323 0.162147194
v 0.135904014 0.188675687 -0.116237693
v -0.029796727 0.179813445 -0.0944079384
v -0.457746416 1.04578388 0.120457813
v -0.166904256 0.223125532 0.244120494
v -0.29828316 0.829457521 -0.421814322
v -0.315052956 0.704767466 -0.44133237
v 0.053711351 0.142210305 -0.47713685
v -0.424755305 0.972989023 -0.245834559
v -0.370350659 0.96059525 -0.306821823
v -0.398393542 0.999135494 -0.126782805
v 0.240571752 -0.742742658 -0.223671779
v 0.235091075 -0.738576233 -0.234005943
v 0.234525889 -0.703794658 -0.215390995
v -0.0278290175 -0.658270299 0.406223238
v -0.0319553167 -0.669726968 0.400092423
v -0.0360692143 -0.658769846 0.40261358
v -0.0325468518 -0.670567572 0.399754494
v -0.0271496028 -0.679988325 0.39130798
v -0.0360692143 -0.658769846 0.40261358
v 0.130277902 -0.154860705 -0.515539765
v 0.306133628 -0.47427687 -0.327721357
v 0.053711351 0.142210305 -0.47713685
v -0.381317616 0.638955176 0.286900014
v -0.38777715 0.502665043 0.32322219
v -0.166904256 0.223125532 0.244120494
v -0.228247881 0.257131577 0.442105383
v -0.24666217 0.558125257 0.351684332
v -0.0695311204 0.243474677 0.327498883
v -0.387432873 1.05482054 0.168005317
v -0.389996678 1.05481124 0.167207301
v -0.38307333 1.05347323 0.162147194
v 0.234525889 -0.703794658 -0.215390995
v 0.211399302 -0.948608339 -0.0341718011
v 0.240571752 -0.742742658 -0.223671779
v 0.144567922 -0.680485189 0.119042441
v -0.0695311204 0.243474677 0.327498883
v -0.387432873 1.05482054 0.168005317
v -0.38307333 1.05347323 0.162147194
v -0.24666217 0.558125257 0.351684332
v 0.300641328 -0.669352531 0.177299321
v 0.365745515 -0.589459002 -0.254027784
v 0.369611919 -0.690073788 -0.142009467
v 0.135904014 0.188675687 -0.116237693
v -0.0605866127 0.140263915 -0.469295293
v -0.424755305 0.972989023 -0.245834559
v -0.398393542 0.999135494 -0.126782805
v -0.326972514 0.662825823 -0.441285372
v -0.0605866127 0.140263915 -0.469295293
v 0.127131671 -0.490735531 -0.442489803
v 0.0686008483 -0.320425004 -0.519317925
v -0.029796727 0.179813445 -0.0944079384
v -0.345015407 0.118007138 0.444781363
v -0.0360692143 -0.658769846 0.40261358
v 0.144567922 -0.680485189 0.119042441
v -0.329123616 0.0201712493 0.477265537
v 0.144567922 -0.680485189 0.119042441
v 0.168221518 -0.969604373 0.120232366
v 0.212111473 -0.972218573 0.0509759337
v -0.0271496028 -0.679988325 0.39130798
v -0.0360692143 -0.658769846 0.40261358
v 0.135904014 0.188675687 -0.116237693
v -0.29828316 0.829457521 -0.421814322
v 0.053711351 0.142210305 -0.47713685
v -0.315009654 0.878506422 -0.38957572
v -0.228247881 0.257131577 0.442105383
v 0.00103908381 -0.593826175 0.438517123
v -0.251007646 -0.0196139179 0.512849033
v -0.0695311204 0.243474677 0.327498883
v 0.0221507791 -0.602358937 0.424581647
v 0.365745515 -0.589459002 -0.254027784
v 0.306133628 -0.47427687 -0.327721357
v 0.359489113 -0.582476437 -0.268211544
v 0.135904014 0.188675687 -0.116237693
v 0.053711351 0.142210305 -0.47713685
v -0.326972514 0.662825823 -0.441285372
v 0.053711351 0.142210305 -0.47713685
v -0.315052956 0.704767466 -0.44133237
v -0.0605866127 0.140263915 -0.469295293
v -0.398393542 0.999135494 -0.126782805
v -0.38307333 1.05347323 0.162147194
v -0.457746416 1.04578388 0.120457813
v -0.311614394 1.0016439 -0.115279756
v -0.389996678 1.05481124 0.167207301
v -0.457746416 1.04578388 0.120457813
v -0.38307333 1.05347323 0.162147194
v -0.473962396 1.05114865 0.14201951
v -0.343089134 0.954043686 -0.337483793
v -0.398393542 0.999135494 -0.126782805
v -0.370350659 0.96059525 -0.306821823
v -0.311614394 1.0016439 -0.115279756
v -0.381317616 0.638955176 0.286900014
v -0.457746416 1.04578388 0.120457813
v -0.473962396 1.05114865 0.14201951
v -0.166904256 0.223125532 0.244120494
v -0.315009654 0.878506422 -0.38957572
v -0.311614394 1.0016439 -0.115279756
v -0.343089134 0.954043686 -0.337483793
v 0.135904014 0.188675687 -0.116237693
v -0.370350659 0.96059525 -0.306821823
v -0.315009654 0.878506422 -0.38957572
v -0.343089134 0.954043686 -0.337483793
v -0.326972514 0.662825823 -0.441285372
v -0.424755305 0.972989023 -0.245834559
v -0.315052956 0.704767466 -0.44133237
v -0.29828316 0.829457521 -0.421814322
v 0.211399302 -0.948608339 -0.0341718011
v 0.212111473 -0.972218573 0.0509759337
v 0.216715932 -0.983043075 0.00844001304
v 0.144567922 -0.680485189 0.119042441
v 0.300641328 -0.669352531 0.177299321
v 0.357813925 -0.864291787 0.0321566612
v 0.334258765 -0.838046134 0.128317147
v 0.369611919 -0.690073788 -0.142009467
v 0.234525889 -0.703794658 -0.215390995
v 0.127131671 -0.490735531 -0.442489803
v -0.029796727 0.179813445 -0.0944079384
v 0.196350902 -0.661063135 -0.358585119
v 0.224896535 -0.707268059 -0.278486878
v 0.240571752 -0.742742658 -0.223671779
v 0.224896535 -0.707268059 -0.278486878
v 0.235091075 -0.738576233 -0.234005943
v 0.359489113 -0.582476437 -0.268211544
v 0.196350902 -0.661063135 -0.358585119
v 0.291113824 -0.941773117 0.0438308753
v 0.216715932 -0.983043075 0.00844001304
v 0.211399302 -0.948608339 -0.0341718011
v 0.369611919 -0.690073788 -0.142009467
v 0.365745515 -0.589459002 -0.254027784
v 0.357813925 -0.864291787 0.0321566612
v 0.0221507791 -0.602358937 0.424581647
v 0.300641328 -0.669352531 0.177299321
v 0.114267148 -0.659475625 0.350362211
v -0.0695311204 0.243474677 0.327498883
v -0.251007646 -0.0196139179 0.512849033
v 1.63749701E-05 -0.599578142 0.435032636
v -0.309944451 0.0165493768 0.484272957
v 0.00103908381 -0.593826175 0.438517123
v 0.168221518 -0.969604373 0.120232366
v 0.32295239 -0.841692388 0.146585286
v 0.270328641 -0.931668341 0.106269315
v 0.114267148 -0.659475625 0.350362211
v 0.301847458 -0.80517447 0.179398134
v 1.63749701E-05 -0.599578142 0.435032636
v 0.00103908381 -0.593826175 0.438517123
v 0.0221507791 -0.602358937 0.424581647
v -0.0319553167 -0.669726968 0.400092423
v -0.0278290175 -0.658270299 0.406223238
v -0.0325468518 -0.670567572 0.399754494
v -0.0271496028 -0.679988325 0.39130798
v 0.270328641 -0.931668341 0.106269315
v 0.212111473 -0.972218573 0.0509759337
v 0.168221518 -0.969604373 0.120232366
v 0.216715932 -0.983043075 0.00844001304
v 0.291113824 -0.941773117 0.0438308753
v 0.334258765 -0.838046134 0.128317147
v 0.301847458 -0.80517447 0.179398134
v 0.300641328 -0.669352531 0.177299321
v 0.32295239 -0.841692388 0.146585286
v 0.334258765 -0.838046134 0.128317147
v 0.270328641 -0.931668341 0.106269315
v 0.32295239 -0.841692388 0.146585286
v 0.357813925 -0.864291787 0.0321566612
v 0.291113824 -0.941773117 0.0438308753
v -0.0605866127 0.140263915 -0.469295293
v 0.108305015 -0.227474093 -0.51383692
v 0.053711351 0.142210305 -0.47713685
v 0.0686008483 -0.320425004 -0.519317925
v 0.108305015 -0.227474093 -0.51383692
v 0.306133628 -0.47427687 -0.327721357
v 0.130277902 -0.154860705 -0.515539765
v 0.196350902 -0.661063135 -0.358585119
v 0.359489113 -0.582476437 -0.268211544
v 0.0686008483 -0.320425004 -0.519317925
v 0.127131671 -0.490735531 -0.442489803
v -0.337704092 0.248701096 0.410299271
v 0.144567922 -0.680485189 0.119042441
v -0.166904256 0.223125532 0.244120494
v -0.345015407 0.118007138 0.444781363
v -0.0360692143 -0.658769846 0.40261358
v 1.63749701E-05 -0.599578142 0.435032636
v -0.0278290175 -0.658270299 0.406223238
v -0.309944451 0.0165493768 0.484272957
v -0.329123616 0.0201712493 0.477265537
v -0.387432873 1.05482054 0.168005317
v -0.473962396 1.05114865 0.14201951
v -0.389996678 1.05481124 0.167207301
v -0.228247881 0.257131577 0.442105383
v -0.24666217 0.558125257 0.351684332
v -0.381317616 0.638955176 0.286900014
v -0.309944451 0.0165493768 0.484272957
v -0.251007646 -0.0196139179 0.512849033
v -0.337704092 0.248701096 0.410299271
v -0.38777715 0.502665043 0.32322219
v -0.329123616 0.0201712493 0.477265537
v -0.345015407 0.118007138 0.444781363
vt 0.823142469 0.761434495
vt 0.828072906 0.881573677
vt 0.797542334 0.881573677
vt 0.771942198 0.761434495
vt 0.823142469 0.634687901
vt 0.823142469 0.761434495
vt 0.823142469 0.634687901
vt 0.771942198 0.761434495
vt 0.771942198 0.634687901
vt 0.82314235 0.761434495
vt 0.77194196 0.634687901
vt 0.77194196 0.761434495
vt 0.86181277 0.761434495
vt 0.828072906 0.881573677
vt 0.823142469 0.761434495
vt 0.771942198 0.761434495
vt 0.760350168 0.79848361
vt 0.747903764 0.761434495
vt 0.823142469 0.634687901
vt 0.824633002 0.629733682
vt 0.830161214 0.634687901
vt 0.77194196 0.634687901
vt 0.766317368 0.615454733
vt 0.746260941 0.634687901
vt 0.494534165 0.650925994
vt 0.49471581 0.649356127
vt 0.494534165 0.649239182
vt 0.549133301 0.780657053
vt 0.555016756 0.725221634
vt 0.549133301 0.736015439
vt 0.82314235 0.761434495
vt 0.797542155 0.881573677
vt 0.828072786 0.881573677
vt 0.77194196 0.761434495
vt 0.797542155 0.881573677
vt 0.82314235 0.761434495
vt 0.823142469 0.761434495
vt 0.797542334 0.881573677
vt 0.771942198 0.761434495
vt 0.549133301 0.886873126
vt 0.558925033 0.868107557
vt 0.549133301 0.780657053
vt 0.753708482 0.890000463
vt 0.746099472 0.899294674
vt 0.766723156 0.890000463
vt 0.823142529 0.629093826
vt 0.824633002 0.629733682
vt 0.823142469 0.634687901
vt 0.496496916 0.650925994
vt 0.49471581 0.649356127
vt 0.494534165 0.650925994
vt 0.734352648 0.633039832
vt 0.735210359 0.631754935
vt 0.734352648 0.634687901
vt 0.861812651 0.71781981
vt 0.833459258 0.668502867
vt 0.861812651 0.761434495
vt 0.771942198 0.818473458
vt 0.760350168 0.79848361
vt 0.771942198 0.761434495
vt 0.752610207 0.761434436
vt 0.77194196 0.805223346
vt 0.77194196 0.761434495
vt 0.797763288 0.904780567
vt 0.797868788 0.90434593
vt 0.797116041 0.904780567
vt 0.823142469 0.634687901
vt 0.786892772 0.597155094
vt 0.823142529 0.629093826
vt 0.771942198 0.634687901
vt 0.77194196 0.761434495
vt 0.796894908 0.881573737
vt 0.797542155 0.881573677
vt 0.77194196 0.805223346
vt 0.77194196 0.634687901
vt 0.823142409 0.65027827
vt 0.80821979 0.634687901
vt 0.82314235 0.761434495
vt 0.86181277 0.761434495
vt 0.841461897 0.881573677
vt 0.828072906 0.881573677
vt 0.861812711 0.840604126
vt 0.86181277 0.761434495
vt 0.851866305 0.667288601
vt 0.86181283 0.693789661
vt 0.823142469 0.761434495
vt 0.740133345 0.741942883
vt 0.734352648 0.634687901
vt 0.771942198 0.634687901
vt 0.734352648 0.728032589
vt 0.771942198 0.634687901
vt 0.762677073 0.593010664
vt 0.771942258 0.593398213
vt 0.735210359 0.631754935
vt 0.734352648 0.634687901
vt 0.82314235 0.761434495
vt 0.861812651 0.865207076
vt 0.861812651 0.761434495
vt 0.858749628 0.872057617
vt 0.752610207 0.761434436
vt 0.734352648 0.643056571
vt 0.734352648 0.721743286
vt 0.77194196 0.761434495
vt 0.736550868 0.642100036
vt 0.823142409 0.65027827
vt 0.833459258 0.668502867
vt 0.824833155 0.651565969
vt 0.82314235 0.761434495
vt 0.861812651 0.761434495
vt 0.562901855 0.861690879
vt 0.549133301 0.780657053
vt 0.558925033 0.868107557
vt 0.562901855 0.780657053
vt 0.766723156 0.890000463
vt 0.797116041 0.904780567
vt 0.797116041 0.890000463
vt 0.766723156 0.904780567
vt 0.797868788 0.90434593
vt 0.797116041 0.890000463
vt 0.797116041 0.904780567
vt 0.799698174 0.890000463
vt 0.742252529 0.904780507
vt 0.766723156 0.890000463
vt 0.746099472 0.899294674
vt 0.766723156 0.904780567
vt 0.771942198 0.818473458
vt 0.797542334 0.881573677
vt 0.794960201 0.881573677
vt 0.771942198 0.761434495
vt 0.858749628 0.872057617
vt 0.828072786 0.881573677
vt 0.853247046 0.881573677
vt 0.82314235 0.761434495
vt 0.0008843994 0.143465951
vt 0.051206056 0.0552024841
vt 0 0.110762671
vt 0.217175901 5.00869755E-05
vt 0.00316528324 0.208513796
vt 0.182843015 0
vt 0.084777832 0.0208174512
vt 0.786892772 0.597155094
vt 0.771942258 0.593398213
vt 0.778540492 0.592049479
vt 0.771942198 0.634687901
vt 0.77194196 0.634687901
vt 0.782194495 0.608107746
vt 0.771942019 0.610974014
vt 0.80821979 0.634687901
vt 0.823142469 0.634687901
vt 0.851866305 0.667288601
vt 0.823142469 0.761434495
vt 0.839847982 0.642003357
vt 0.830161214 0.634687901
vt 0.262709975 0.0525390618
vt 0.313325793 0.037257079
vt 0.270898134 0.0471960455
vt 0.374428749 0.168476373
vt 0.384263068 0.00942671578
vt 0.00178532233 0.101814888
vt 0 0.0292813107
vt 0.0430300906 0.0240979008
vt 0.243972778 0.178345948
vt 0.362511277 0.174575806
vt 0.0501189716 0.166843474
vt 0.736550868 0.642100036
vt 0.77194196 0.634687901
vt 0.746260941 0.634687901
vt 0.77194196 0.761434495
vt 0.509758174 0.740031242
vt 0.508840799 0.658743322
vt 0.498623192 0.745812654
vt 0.509758174 0.659491718
vt 0.226917684 0
vt 0.333030105 0.118990481
vt 0.305859566 0.0352898091
vt 0.121844523 0.288498223
vt 0.308200866 0.152961433
vt 0.0138743976 0.344218135
vt 0.0136341481 0.349569082
vt 0.033098869 0.341631174
vt 0.0003382492 0.278961778
vt 0.00162403111 0.289619744
vt 0 0.278179944
vt 0.00636531832 0.269416213
vt 0.19463712 0.184675291
vt 0.245499268 0.135386199
vt 0.192663893 0.0982272029
vt 0.280029893 0.139284432
vt 0.24401921 0.202272877
vt 0.771942019 0.610974014
vt 0.766317368 0.615454733
vt 0.77194196 0.634687901
vt 0.769324899 0.610396206
vt 0.0890451074 0.0805114731
vt 0 0.0620517731
vt 0.0812689215 0.0958066583
vt 0.0843496695 0
vt 0.00391754135 0.00977424625
vt 0.562901855 0.780657053
vt 0.555016756 0.725221634
vt 0.549133301 0.780657053
vt 0.562901855 0.711419344
vt 0.271670222 0.347297966
vt 0.0608943179 0.149613038
vt 0.257981569 0.405460209
vt 0.146394342 0
vt 0 0.0629467741
vt 0.300123602 0.272846073
vt 0.228305742 0.136429742
vt 0.747903764 0.761434495
vt 0.771942198 0.634687901
vt 0.771942198 0.761434495
vt 0.740133345 0.741942883
vt 0.494534165 0.650925994
vt 0.508840799 0.658743322
vt 0.496496916 0.650925994
vt 0.498623192 0.745812654
vt 0.494534194 0.746468663
vt 0.0711353272 0.875980854
vt 0 0.872986436
vt 0.069020994 0.875972927
vt 0.255109549 0.225628972
vt 0.220048144 0.471027523
vt 0.103635103 0.536927462
vt 0.203601763 0.0294836424
vt 0.254605949 0
vt 0.165376276 0.218755797
vt 0.107304536 0.425811172
vt 0.187541887 0.0324365236
vt 0.167973638 0.11220184
vn -0.901072264 -0.410858959 -0.138793319
vn -0.901072264 -0.410858959 -0.138793319
vn -0.901072264 -0.410858959 -0.138793319
vn -0.91254586 -0.226339936 -0.340632111
vn -0.91254586 -0.226339936 -0.340632111
vn -0.91254586 -0.226339936 -0.340632111
vn -0.92945236 -0.288557202 -0.229897931
vn -0.92945236 -0.288557172 -0.229897931
vn -0.92945236 -0.288557172 -0.229897931
vn 0.880234361 0.295913786 0.370975167
vn 0.880234361 0.295913815 0.370975196
vn 0.880234361 0.295913845 0.370975196
vn -0.9074108 -0.403598845 0.117105082
vn -0.9074108 -0.403598845 0.117105082
vn -0.9074108 -0.403598875 0.117105097
vn -0.678812623 -0.354357362 -0.643151879
vn -0.678812623 -0.354357362 -0.643151879
vn -0.678812623 -0.354357362 -0.643151939
vn -0.982852161 -0.0991705731 0.15545699
vn -0.982852161 -0.0991705656 0.155457005
vn -0.982852161 -0.0991705656 0.155457005
vn 0.680844843 0.0173608381 0.732221901
vn 0.680844843 0.0173608381 0.732221901
vn 0.680844843 0.0173608381 0.732221901
vn -0.151217133 -0.275229543 0.949411392
vn -0.151217133 -0.275229573 0.949411392
vn -0.151217133 -0.275229543 0.949411392
vn -0.262536436 0.0568547808 -0.96324569
vn -0.262536466 0.0568547808 -0.96324569
vn -0.262536466 0.0568547808 -0.96324569
vn 0.86816293 0.477743447 0.134366289
vn 0.86816293 0.477743387 0.134366274
vn 0.86816293 0.477743387 0.134366289
vn 0.849823177 0.399209857 0.344139397
vn 0.849823177 0.399209857 0.344139397
vn 0.849823236 0.399209887 0.344139397
vn -0.880476356 -0.358002603 -0.310798436
vn -0.880476356 -0.358002603 -0.310798436
vn -0.880476356 -0.358002543 -0.310798377
vn 0.115648292 0.138411373 -0.983599424
vn 0.115648277 0.138411373 -0.983599424
vn 0.115648292 0.138411373 -0.983599424
vn -0.0143963341 0.977283657 -0.211445838
vn -0.0143963341 0.977283657 -0.211445823
vn -0.0143963359 0.977283657 -0.211445838
vn -0.895667434 -0.221076339 0.385882169
vn -0.895667434 -0.22107631 0.385882109
vn -0.895667553 -0.221076339 0.385882139
vn -0.360814691 -0.335682392 0.870132208
vn -0.36081472 -0.335682392 0.870132208
vn -0.360814691 -0.335682392 0.870132208
vn -0.907357693 -0.178695545 -0.380486429
vn -0.907357693 -0.17869553 -0.380486399
vn -0.907357693 -0.178695545 -0.380486459
vn 0.889787316 0.276288837 -0.363239646
vn 0.889787316 0.276288807 -0.363239616
vn 0.889787316 0.276288778 -0.363239616
vn -0.538225532 -0.193125919 -0.820375383
vn -0.538225472 -0.193125904 -0.820375383
vn -0.538225472 -0.193125904 -0.820375383
vn 0.579176009 0.266836107 0.770294487
vn 0.579176009 0.266836107 0.770294487
vn 0.579176009 0.266836107 0.770294487
vn 0.054134842 0.981178939 -0.185357049
vn 0.0541348346 0.981178939 -0.185357034
vn 0.0541348346 0.981178939 -0.185357019
vn -0.962886214 -0.0958201885 -0.25232628
vn -0.962886214 -0.0958201885 -0.25232628
vn -0.962886214 -0.0958201736 -0.25232628
vn -0.962886751 -0.0958190262 -0.25232482
vn 0.776928604 0.399992585 0.486197203
vn 0.776928604 0.399992585 0.486197263
vn 0.776928723 0.399992585 0.486197293
vn 0.77692157 0.399992108 0.486209005
vn 0.950310647 0.247190759 0.189225584
vn 0.950310647 0.247190788 0.189225599
vn 0.950310647 0.247190788 0.189225599
vn 0.950310767 0.247190416 0.189225569
vn -0.847445965 -0.447325647 0.285893708
vn -0.847445965 -0.447325647 0.285893738
vn -0.847445965 -0.447325647 0.285893738
vn -0.847445309 -0.447325706 0.285895139
vn -0.954139471 -0.279269874 0.107824758
vn -0.954139471 -0.279269844 0.107824758
vn -0.954139471 -0.279269904 0.107824758
vn -0.954139352 -0.279269785 0.107826598
vn -0.815420449 -0.297354341 -0.496658623
vn -0.815420449 -0.2973544 -0.496658742
vn -0.815420449 -0.29735437 -0.496658623
vn -0.81542176 -0.297354996 -0.496656269
vn -0.843735635 -0.07121782 -0.532013357
vn -0.843735635 -0.0712178051 -0.532013297
vn -0.843735635 -0.0712178051 -0.532013297
vn -0.843735814 -0.07121782 -0.532013118
vn -0.843735993 -0.0712140724 -0.532013237
vn 0.852667034 0.45708859 -0.253039539
vn 0.852667034 0.457088649 -0.253039569
vn 0.852667034 0.457088649 -0.253039539
vn 0.852667034 0.457089096 -0.253038675
vn 0.587079108 0.154835448 0.794584274
vn 0.587079108 0.154835433 0.794584274
vn 0.587079108 0.154835448 0.794584274
vn 0.587078393 0.154835239 0.794584811
vn 0.587074757 0.154835269 0.794587493
vn 0.915934205 0.314653099 -0.249114379
vn 0.915934205 0.314653128 -0.249114409
vn 0.915934205 0.314653069 -0.249114379
vn 0.915934384 0.31465587 -0.249110222
vn 0.915934384 0.31465587 -0.249110281
vn -0.0687471181 0.01841994 -0.997464061
vn -0.068747133 0.0184199419 -0.997464061
vn -0.0687471181 0.01841994 -0.997464061
vn -0.0687465519 0.0184203498 -0.997464061
vn 0.00204629544 0.982749581 -0.184929788
vn 0.00204629544 0.982749581 -0.184929788
vn 0.00204629544 0.982749581 -0.184929773
vn -0.00393545115 0.982801616 -0.184622437
vn 0.0246570092 0.974306583 -0.223872304
vn 0.0246570092 0.974306583 -0.223872274
vn 0.0246570129 0.974306583 -0.223872319
vn 0.0246579628 0.974306226 -0.223873615
vn -0.000528396631 0.977829456 -0.209402561
vn -0.000528396631 0.977829337 -0.209402606
vn -0.000528396689 0.977829456 -0.209402591
vn -0.000507701945 0.97783047 -0.209397405
vn -0.787595809 -0.35423696 -0.504191458
vn -0.787595809 -0.354236931 -0.504191458
vn -0.787595809 -0.35423696 -0.504191458
vn -0.787596285 -0.354236752 -0.504190743
vn 0.854118109 0.47043097 -0.221758977
vn 0.854118109 0.470430911 -0.221758977
vn 0.854118109 0.470430911 -0.221758977
vn 0.854117751 0.470431536 -0.2217592
vn -0.710329533 0.201114938 -0.674525619
vn -0.710329533 0.201114938 -0.674525619
vn -0.710329533 0.201114938 -0.674525619
vn -0.710331678 0.201116472 -0.674522817
vn -0.710325599 0.201118395 -0.674528658
vn -0.710323989 0.201118723 -0.674530327
vn -0.710323989 0.201118708 -0.674530268
vn -0.975509822 -0.21392338 -0.051158689
vn -0.975509822 -0.21392338 -0.0511586927
vn -0.975509822 -0.21392338 -0.0511586927
vn -0.975510836 -0.213919178 -0.0511574671
vn 0.9702757 0.135048226 0.200815961
vn 0.9702757 0.135048226 0.200815961
vn 0.9702757 0.135048211 0.200815931
vn 0.9702757 0.135048598 0.20081538
vn -0.939470887 -0.302947819 0.160053447
vn -0.939470887 -0.302947819 0.160053447
vn -0.939470887 -0.302947819 0.160053447
vn -0.939471126 -0.302946121 0.160055235
vn -0.93947047 -0.302948594 0.160054296
vn 0.589690447 -0.590611994 -0.550856352
vn 0.589690447 -0.590611994 -0.550856352
vn 0.589690387 -0.590611994 -0.550856352
vn 0.589673996 -0.590628862 -0.550855815
vn 0.589674115 -0.590628862 -0.550855815
vn 0.58967793 -0.59062475 -0.550855994
vn 0.589673877 -0.590626657 -0.550858259
vn 0.589668572 -0.590629101 -0.550861239
vn 0.589662135 -0.590635657 -0.550861299
vn 0.589662135 -0.590635657 -0.550861299
vn 0.58967793 -0.59062475 -0.550855994
vn 0.676554561 0.155935794 0.719692886
vn 0.676554561 0.155935794 0.719692945
vn 0.676554561 0.155935794 0.719692886
vn 0.676554561 0.155937925 0.719692469
vn -0.573111773 -0.347627729 0.742090166
vn -0.573111713 -0.347627729 0.742090166
vn -0.573111773 -0.347627729 0.742090166
vn -0.573138475 -0.347635955 0.742065728
vn 0.305769861 -0.532489836 0.789277732
vn 0.305769831 -0.532489777 0.789277732
vn 0.305769891 -0.532489836 0.789277732
vn 0.305765539 -0.532488525 0.789280295
vn 0.305765569 -0.532488525 0.789280355
vn 0.305753797 -0.532503366 0.789274871
vn 0.305790514 -0.532460153 0.789289773
vn 0.305790514 -0.532460093 0.789289832
vn 0.305822104 -0.532499969 0.789250612
vn 0.305822045 -0.532499969 0.789250612
vn 0.30581224 -0.532458246 0.789282739
vn 0.305807829 -0.532460868 0.78928256
vn 0.367489159 -0.891020536 0.266522169
vn 0.367489159 -0.891020536 0.266522139
vn 0.3674891 -0.891020596 0.266522169
vn 0.367485166 -0.891020894 0.266526699
vn 0.367479652 -0.891022027 0.266530275
vn 0.848807216 0.0157038271 0.528469205
vn 0.848807216 0.0157038271 0.528469265
vn 0.848807216 0.0157038253 0.528469145
vn 0.848806322 0.0157006588 0.528470695
vn 0.737451077 -0.583622277 0.339927763
vn 0.737451136 -0.583622277 0.339927763
vn 0.737451077 -0.583622277 0.339927733
vn 0.737448215 -0.583621979 0.339934468
vn 0.737449408 -0.583616972 0.339940429
vn -0.0696757436 0.0883540511 -0.993649304
vn -0.0696757436 0.0883540362 -0.993649304
vn -0.069675751 0.0883540437 -0.993649304
vn -0.0696753561 0.0883542299 -0.993649304
vn 0.542486012 -0.18338196 -0.819804847
vn 0.542485952 -0.183381945 -0.819804847
vn 0.542485952 -0.18338196 -0.819804847
vn 0.542485476 -0.183382258 -0.819805086
vn 0.542485476 -0.183382258 -0.819805086
vn 0.542485356 -0.183382452 -0.819805145
vn 0.542483926 -0.183383256 -0.819805861
vn -0.701043129 -0.144999668 -0.698221684
vn -0.701043129 -0.144999653 -0.698221684
vn -0.701043069 -0.144999653 -0.698221684
vn -0.701043427 -0.144999906 -0.698221326
vn -0.374267071 -0.259439677 0.890289366
vn -0.374267071 -0.259439707 0.890289366
vn -0.374267071 -0.259439707 0.890289366
vn -0.374269336 -0.259438157 0.890288949
vn -0.374274552 -0.259439975 0.890286207
vn -0.287830323 0.260086149 0.92168802
vn -0.287830323 0.260086089 0.92168802
vn -0.287830323 0.260086149 0.92168802
vn -0.287861258 0.259334058 0.921890318
vn -0.287861496 0.259332955 0.921890497
vn -0.287863404 0.259333044 0.921889901
vn -0.287854522 0.259334922 0.921892107
vn -0.287861258 0.259334058 0.921890318
vn -0.287863433 0.259333074 0.921889901
vn -0.287863404 0.259333044 0.921889901
vn -0.287861526 0.259334117 0.921890199
vn -0.287861526 0.259334117 0.921890199
g A_build_fenglifadianzhan_002_v_052_0
f 3/3/3 2/2/2 1/1/1
f 6/6/6 5/5/5 4/4/4
f 9/9/9 8/8/8 7/7/7
f 12/12/12 11/11/11 10/10/10
f 15/15/15 14/14/14 13/13/13
f 18/18/18 17/17/17 16/16/16
f 21/21/21 20/20/20 19/19/19
f 24/24/24 23/23/23 22/22/22
f 27/27/27 26/26/26 25/25/25
f 30/30/30 29/29/29 28/28/28
f 33/33/33 32/32/32 31/31/31
f 36/36/36 35/35/35 34/34/34
f 39/39/39 38/38/38 37/37/37
f 42/42/42 41/41/41 40/40/40
f 45/45/45 44/44/44 43/43/43
f 48/48/48 47/47/47 46/46/46
f 51/51/51 50/50/50 49/49/49
f 54/54/54 53/53/53 52/52/52
f 57/57/57 56/56/56 55/55/55
f 60/60/60 59/59/59 58/58/58
f 63/63/63 62/62/62 61/61/61
f 66/66/66 65/65/65 64/64/64
f 69/69/69 68/68/68 67/67/67
f 70/70/70 67/67/67 68/68/68
f 73/73/73 72/72/72 71/71/71
f 74/74/74 71/71/71 72/72/72
f 77/77/77 76/76/76 75/75/75
f 78/78/78 75/75/75 76/76/76
f 81/81/81 80/80/80 79/79/79
f 82/82/82 79/79/79 80/80/80
f 85/85/85 84/84/84 83/83/83
f 86/86/86 83/83/83 84/84/84
f 89/89/89 88/88/88 87/87/87
f 90/90/90 87/87/87 88/88/88
f 93/93/93 92/92/92 91/91/91
f 92/92/92 94/94/94 91/91/91
f 91/91/91 94/94/94 95/95/95
f 98/98/98 97/97/97 96/96/96
f 99/99/99 96/96/96 97/97/97
f 102/102/102 101/101/101 100/100/100
f 100/100/100 101/101/101 103/103/103
f 101/101/101 104/104/104 103/103/103
f 107/107/107 106/106/106 105/105/105
f 105/105/105 106/106/106 108/108/108
f 108/108/108 106/106/106 109/109/109
f 112/112/112 111/111/111 110/110/110
f 113/113/113 110/110/110 111/111/111
f 116/116/116 115/115/115 114/114/114
f 117/117/117 114/114/114 115/115/115
f 120/120/120 119/119/119 118/118/118
f 121/121/121 118/118/118 119/119/119
f 124/124/124 123/123/123 122/122/122
f 125/125/125 122/122/122 123/123/123
f 128/128/128 127/127/127 126/126/126
f 129/129/129 126/126/126 127/127/127
f 132/132/132 131/131/131 130/130/130
f 133/133/133 130/130/130 131/131/131
f 136/136/136 135/135/135 134/134/134
f 135/135/135 137/137/137 134/134/134
f 134/134/134 137/137/137 138/138/138
f 139/139/139 137/137/137 135/135/135
f 140/140/140 139/139/139 135/135/135
f 143/143/143 142/142/142 141/141/141
f 144/144/144 141/141/141 142/142/142
f 147/147/147 146/146/146 145/145/145
f 148/148/148 145/145/145 146/146/146
f 151/151/151 150/150/150 149/149/149
f 150/150/150 152/152/152 149/149/149
f 149/149/149 152/152/152 153/153/153
f 156/156/156 155/155/155 154/154/154
f 155/155/155 157/157/157 154/154/154
f 158/158/158 157/157/157 155/155/155
f 157/157/157 159/159/159 154/154/154
f 159/159/159 160/160/160 154/154/154
f 160/160/160 161/161/161 154/154/154
f 162/162/162 159/159/159 157/157/157
f 163/163/163 162/162/162 157/157/157
f 164/164/164 159/159/159 162/162/162
f 167/167/167 166/166/166 165/165/165
f 168/168/168 165/165/165 166/166/166
f 171/171/171 170/170/170 169/169/169
f 172/172/172 169/169/169 170/170/170
f 175/175/175 174/174/174 173/173/173
f 174/174/174 176/176/176 173/173/173
f 177/177/177 176/176/176 174/174/174
f 176/176/176 178/178/178 173/173/173
f 179/179/179 178/178/178 176/176/176
f 180/180/180 179/179/179 176/176/176
f 178/178/178 181/181/181 173/173/173
f 182/182/182 181/181/181 178/178/178
f 181/181/181 183/183/183 173/173/173
f 183/183/183 184/184/184 173/173/173
f 187/187/187 186/186/186 185/185/185
f 186/186/186 188/188/188 185/185/185
f 188/188/188 189/189/189 185/185/185
f 192/192/192 191/191/191 190/190/190
f 193/193/193 190/190/190 191/191/191
f 196/196/196 195/195/195 194/194/194
f 194/194/194 195/195/195 197/197/197
f 197/197/197 195/195/195 198/198/198
f 201/201/201 200/200/200 199/199/199
f 202/202/202 199/199/199 200/200/200
f 205/205/205 204/204/204 203/203/203
f 204/204/204 206/206/206 203/203/203
f 207/207/207 206/206/206 204/204/204
f 203/203/203 206/206/206 208/208/208
f 206/206/206 209/209/209 208/208/208
f 212/212/212 211/211/211 210/210/210
f 213/213/213 210/210/210 211/211/211
f 216/216/216 215/215/215 214/214/214
f 215/215/215 217/217/217 214/214/214
f 214/214/214 217/217/217 218/218/218
f 221/221/221 220/220/220 219/219/219
f 220/220/220 222/222/222 219/219/219
f 222/222/222 223/223/223 219/219/219
f 224/224/224 222/222/222 220/220/220
f 225/225/225 222/222/222 224/224/224
f 226/226/226 222/222/222 225/225/225
f 227/227/227 225/225/225 224/224/224
f 228/228/228 227/227/227 224/224/224
f 229/229/229 225/225/225 227/227/227
f 230/230/230 229/229/229 227/227/227
