g Plane004
v 52.6627655 379.916077 -4.98159789E-05
v 67.383522 397.616394 -4.8372287E-05
v 67.3946381 385.09967 -5.08912926E-05
v 52.7509575 392.507324 -4.6623587E-05
v 52.8504829 398.629608 -4.7001351E-05
v 66.904274 408.179749 -4.8372287E-05
v 52.1057091 403.783875 -4.77953763E-05
v 62.7897873 416.257141 -4.87911057E-05
v 49.0963249 407.183807 -4.82684118E-05
v 53.9917488 421.885101 -4.87340512E-05
v 41.3147774 408.180817 -4.84039629E-05
v 43.0822182 423.397888 -4.86735225E-05
v 32.9205589 408.534729 -4.84198026E-05
v 32.9169807 423.43045 -4.83700933E-05
v -34.7083435 423.414215 -4.83674521E-05
v -28.5625477 408.586548 -4.84282464E-05
v -32.0026855 406.782837 -4.83555705E-05
v -43.9876175 422.240387 -4.85810233E-05
v -35.2597694 405.02478 -4.83555705E-05
v -49.7567596 417.516571 -4.86589488E-05
v -38.9780121 401.988251 -4.83555668E-05
v -55.1747971 411.02417 -4.87040452E-05
v -43.6162949 395.404877 -4.83555705E-05
v -58.0789261 403.265106 -4.8372287E-05
v -44.8027077 390.98999 -4.83555705E-05
v -58.7522011 394.826599 -4.85058736E-05
v -62.1926956 -78.0721359 5.21163429E-06
v -46.9942245 -81.2986832 4.9240557E-06
v -47.0226669 -92.6975021 6.80680841E-06
v -62.3245354 -93.1463318 7.13668578E-06
v -62.4591446 -105.590218 8.67607741E-06
v -47.0745468 -99.174675 8.01159331E-06
v -58.4901276 -115.8442 9.41386043E-06
v -45.1142654 -104.585381 8.92233311E-06
v -50.9620743 -122.33049 9.63733692E-06
v -41.7770996 -106.867844 9.32784951E-06
v -35.846981 -122.335251 9.3323788E-06
v 37.4726219 -122.208023 9.58476085E-06
v 38.9163437 -106.902077 9.85316365E-06
v 38.9163437 -106.902077 9.85316365E-06
v 47.8807678 -122.174591 9.95637038E-06
v 44.2704849 -104.932465 9.98999258E-06
v 60.0431252 -118.190109 1.03803341E-05
v 47.9248886 -101.769264 9.82106303E-06
v 64.963089 -110.416977 1.04248884E-05
v 50.8104706 -95.1278992 9.90130047E-06
v 67.4801712 -97.3796387 9.31113209E-06
v 51.6505661 -89.7081604 9.3278486E-06
v 68.206398 -85.7615814 9.31113118E-06
v 67.3946381 385.09967 -5.08912926E-05
v 52.6627655 379.916077 -4.98159789E-05
vt 0 1
vt 0.0727272704 0
vt 0 0
vt 0.0727272704 1
vt 0.0909090862 1
vt 0.0909090862 0
vt 0.0974743366 1
vt 0.0996268317 0
vt 0.109090902 1
vt 0.109090902 0
vt 0.116205215 1
vt 0.11815612 0
vt 0.127272725 1
vt 0.127272725 0
vt 0.309090942 0
vt 0.309090942 1
vt 0.327272773 1
vt 0.327272773 0
vt 0.345454603 1
vt 0.345454603 0
vt 0.363636434 1
vt 0.363636434 0
vt 0.381818265 1
vt 0.381818265 0
vt 0.400000095 1
vt 0.400000095 0
vt 0.581818283 0
vt 0.581818283 1
vt 0.593085527 1
vt 0.591291726 0
vt 0.600000083 0
vt 0.618181884 1
vt 0.609603286 0
vt 0.626632333 1
vt 0.618181884 0
vt 0.636363685 1
vt 0.636363685 0
vt 0.818181694 0
vt 0.836363494 1
vt 0.836363494 1
vt 0.836363494 0
vt 0.854545295 1
vt 0.854545295 0
vt 0.872727096 1
vt 0.872727096 0
vt 0.890908897 1
vt 0.890908897 0
vt 0.909090698 1
vt 0.909090698 0
vt 0.999999702 0
vt 0.999999702 1
vn -0 0 1
vn -0 0 1
vn -0 0 1
vn -0 0 1
vn -0 0 1
vn -0 0 1
vn -0 0 1
vn -0 0 1
vn -0 0 1
vn -0 0 1
vn -0 0 1
vn -0 0 1
vn -0 0 1
vn -0 0 1
vn -0 0 1
vn -0 0 1
vn -0 0 1
vn -0 0 1
vn -0 0 1
vn -0 0 1
vn -0 0 1
vn -0 0 1
vn -0 0 1
vn -0 0 1
vn -0 0 1
vn -0 0 1
vn -0 0 1
vn -0 0 1
vn -0 0 1
vn -0 0 1
vn -0 0 1
vn -0 0 1
vn -0 0 1
vn -0 0 1
vn -0 0 1
vn -0 0 1
vn -0 0 1
vn -0 0 1
vn -0 0 1
vn -0 0 1
vn -0 0 1
vn -0 0 1
vn -0 0 1
vn -0 0 1
vn -0 0 1
vn -0 0 1
vn -0 0 1
vn -0 0 1
vn -0 0 1
vn -0 0 1
vn -0 0 1
g Plane004_0
f 3/3/3 2/2/2 1/1/1
f 4/4/4 1/1/1 2/2/2
f 4/4/4 2/2/2 5/5/5
f 6/6/6 5/5/5 2/2/2
f 7/7/7 5/5/5 6/6/6
f 8/8/8 7/7/7 6/6/6
f 9/9/9 7/7/7 8/8/8
f 10/10/10 9/9/9 8/8/8
f 11/11/11 9/9/9 10/10/10
f 12/12/12 11/11/11 10/10/10
f 13/13/13 11/11/11 12/12/12
f 14/14/14 13/13/13 12/12/12
f 14/14/14 15/15/15 13/13/13
f 15/15/15 16/16/16 13/13/13
f 17/17/17 16/16/16 15/15/15
f 18/18/18 17/17/17 15/15/15
f 19/19/19 17/17/17 18/18/18
f 20/20/20 19/19/19 18/18/18
f 21/21/21 19/19/19 20/20/20
f 22/22/22 21/21/21 20/20/20
f 23/23/23 21/21/21 22/22/22
f 24/24/24 23/23/23 22/22/22
f 25/25/25 23/23/23 24/24/24
f 26/26/26 25/25/25 24/24/24
f 26/26/26 27/27/27 25/25/25
f 28/28/28 25/25/25 27/27/27
f 29/29/29 28/28/28 27/27/27
f 30/30/30 29/29/29 27/27/27
f 30/30/30 31/31/31 29/29/29
f 31/31/31 32/32/32 29/29/29
f 31/31/31 33/33/33 32/32/32
f 33/33/33 34/34/34 32/32/32
f 33/33/33 35/35/35 34/34/34
f 35/35/35 36/36/36 34/34/34
f 37/37/37 36/36/36 35/35/35
f 37/37/37 38/38/38 36/36/36
f 38/38/38 39/39/39 36/36/36
f 41/41/41 40/40/40 38/38/38
f 40/40/40 41/41/41 42/42/42
f 43/43/43 42/42/42 41/41/41
f 42/42/42 43/43/43 44/44/44
f 45/45/45 44/44/44 43/43/43
f 44/44/44 45/45/45 46/46/46
f 47/47/47 46/46/46 45/45/45
f 46/46/46 47/47/47 48/48/48
f 49/49/49 48/48/48 47/47/47
f 49/49/49 50/50/50 48/48/48
f 51/51/51 48/48/48 50/50/50
