g O_env_yundonghui_07
v 0.897880852 0.168616252 -0.64912926
v 0.897880852 0.168616252 0.649130452
v -0.897882044 0.168616252 0.649130452
v -0.897882044 0.168616252 -0.64912926
v 0.897880852 -1.31047462E-05 -0.64912926
v 0.897880852 1.42968391E-05 0.649130452
v 0.897880852 0.168616252 0.649130452
v 0.897880852 0.168616252 -0.64912926
v -0.897882044 1.42968391E-05 0.649130452
v -0.897882044 -1.31047462E-05 -0.64912926
v -0.897882044 0.168616252 -0.64912926
v -0.897882044 0.168616252 0.649130452
v -0.897882044 -1.31047462E-05 -0.64912926
v 0.897880852 -1.31047462E-05 -0.64912926
v 0.897880852 0.168616252 -0.64912926
v -0.897882044 0.168616252 -0.64912926
v 0.897880852 1.42968391E-05 0.649130452
v -0.897882044 1.42968391E-05 0.649130452
v -0.897882044 0.168616252 0.649130452
v 0.897880852 0.168616252 0.649130452
vt 0.435287744 0.991928607
vt 0.563151707 0.991928607
vt 0.563151707 0.815034101
vt 0.435287744 0.815034101
vt 0.541039894 0.316076229
vt 0.541039894 0.463167856
vt 0.557383408 0.463167856
vt 0.557383408 0.316076229
vt 0.530464679 0.250702173
vt 0.530464679 0.111301611
vt 0.514121165 0.111301611
vt 0.514121165 0.250702173
vt 0.553537875 0.65159896
vt 0.553537875 0.473743071
vt 0.537194361 0.473743071
vt 0.537194361 0.65159896
vt 0.514121165 0.269929836
vt 0.514121165 0.463167856
vt 0.531426062 0.463167856
vt 0.531426062 0.269929836
vn -0.00392153847 0.999992311 -0
vn -0.00392153847 0.999992311 -0
vn -0.00392153847 0.999992311 -0
vn -0.00392153847 0.999992311 -0
vn 0.999992311 -0.00392153847 -0
vn 0.999992311 -0.00392153847 -0
vn 0.999992311 -0.00392153847 -0
vn 0.999992311 -0.00392153847 -0
vn -0.999992311 0.00392153847 -0
vn -0.999992311 0.00392153847 -0
vn -0.999992311 0.00392153847 -0
vn -0.999992311 0.00392153847 -0
vn -0.00392153871 0.00392153871 -0.999984621
vn -0.00392153871 0.00392153871 -0.999984621
vn -0.00392153871 0.00392153871 -0.999984621
vn -0.00392153871 0.00392153871 -0.999984621
vn -0.00392153871 0.00392153871 0.999984621
vn -0.00392153871 0.00392153871 0.999984621
vn -0.00392153871 0.00392153871 0.999984621
vn -0.00392153871 0.00392153871 0.999984621
g O_env_yundonghui_07_0
f 3/3/3 2/2/2 1/1/1
f 4/4/4 3/3/3 1/1/1
f 7/7/7 6/6/6 5/5/5
f 8/8/8 7/7/7 5/5/5
f 11/11/11 10/10/10 9/9/9
f 12/12/12 11/11/11 9/9/9
f 15/15/15 14/14/14 13/13/13
f 16/16/16 15/15/15 13/13/13
f 19/19/19 18/18/18 17/17/17
f 20/20/20 19/19/19 17/17/17
