g ChamferCyl001
v 0.382729799 0 0
v 0.191364869 0.331453741 0
v 0.258117855 0.447073281 -0.133505955
v 0.516235709 0 -0.133505955
v 0.191364855 -0.331453741 0
v 0.258117825 -0.447073281 -0.133505955
v -0.191364855 -0.331453741 0
v -0.258117825 -0.447073281 -0.133505955
v -0.382729799 -3.34593011E-08 0
v -0.516235709 -4.51307578E-08 -0.133505955
v -0.191364914 0.331453711 0
v -0.258117884 0.447073251 -0.133505955
v 0.191364869 0.331453741 0
v 0.258117855 0.447073281 -0.133505955
vt 0.839485943 0.996825397
vt 0.994247258 0.996825397
vt 0.994247258 0.00793657452
vt 0.839485943 0.00793657452
vt 0.684724629 0.996825397
vt 0.684724629 0.00793657452
vt 0.499538213 0.996825397
vt 0.499538213 0.00793657452
vt 0.344776869 0.996825397
vt 0.344776869 0.00793657452
vt 0.190015599 0.996825397
vt 0.190015599 0.00793657452
vt 0.00482917577 0.996825397
vt 0.00482917577 0.00793657452
vn 0.707106829 0 0.70710665
vn 0.353553414 0.612372458 0.70710665
vn 0.353553414 0.612372458 0.70710665
vn 0.707106888 0 0.70710665
vn 0.353553414 -0.612372458 0.707106769
vn 0.353553385 -0.612372458 0.707106769
vn -0.353553385 -0.612372458 0.707106769
vn -0.353553385 -0.612372458 0.707106769
vn -0.707106769 0 0.707106769
vn -0.707106769 0 0.707106769
vn -0.353553414 0.612372398 0.707106769
vn -0.353553414 0.612372458 0.707106769
vn 0.353553414 0.612372458 0.70710665
vn 0.353553414 0.612372458 0.70710665
g ChamferCyl001_0
f 3/3/3 2/2/2 1/1/1
f 4/4/4 3/3/3 1/1/1
f 4/4/4 1/1/1 5/5/5
f 6/6/6 4/4/4 5/5/5
f 6/6/6 5/5/5 7/7/7
f 8/8/8 6/6/6 7/7/7
f 8/8/8 7/7/7 9/9/9
f 10/10/10 8/8/8 9/9/9
f 10/10/10 9/9/9 11/11/11
f 12/12/12 10/10/10 11/11/11
f 12/12/12 11/11/11 13/13/13
f 14/14/14 12/12/12 13/13/13
