g A_Bullet_02
v -0.0712874234 -0.0231626797 0.0122565245
v -0.0566338189 -0.0184014384 0.0122565245
v -0.0350016356 -0.0481755771 0.0122565199
v -0.0440580547 -0.0606406853 0.0122565245
v -0.0747799128 -0.0242974591 0.00876403879
v -1.91919494E-08 -0.0595482998 0.0122565245
v -0.0462165289 -0.063611567 0.00876403693
v -0.0747799128 -0.0242974497 -1.06170772E-09
v -0.0462165289 -0.0636115745 -2.75671486E-09
v -1.90962872E-08 -0.0749560073 0.0122565171
v 0.0350015983 -0.0481755771 0.0122565199
v -1.90734841E-08 -0.0786282197 0.00876403227
v -1.90734841E-08 -0.0786282271 -3.42726691E-09
v 0.0440580174 -0.0606406853 0.0122565245
v 0.0566337816 -0.0184014384 0.0122565245
v 0.0462164916 -0.063611567 0.00876403693
v 0.0462164916 -0.0636115745 -2.75671486E-09
v 0.0712873861 -0.0231626797 0.0122565245
v 0.0566337816 0.0184014365 0.0122565255
v 0.0747798681 -0.0242974591 0.00876403879
v 0.0747798681 -0.0242974497 -1.06170772E-09
v 0.0712873861 0.0231626797 0.0122565255
v 0.0350015983 0.0481755957 0.0122565292
v 0.0747798681 0.0242974497 0.00876404159
v 0.0747798681 0.0242974497 1.06170772E-09
v 0.0440580174 0.0606406927 0.0122565292
v -1.91919494E-08 0.0595483035 0.0122565292
v 0.0462164916 0.0636115745 0.00876404345
v 0.0462164916 0.0636115745 2.75671486E-09
v -1.90962872E-08 0.0749560073 0.0122565301
v -0.0350016356 0.0481755957 0.0122565292
v -1.90734841E-08 0.0786282271 0.00876404345
v -1.90734841E-08 0.0786282271 3.42726691E-09
v -0.0440580547 0.0606406927 0.0122565292
v -0.0566338189 0.0184014365 0.0122565255
v -0.0462165289 0.0636115745 0.00876404345
v -0.0462165289 0.0636115745 2.75671486E-09
v -0.0712874234 0.0231626797 0.0122565255
v -0.0566338189 -0.0184014384 0.0122565245
v -0.0712874234 -0.0231626797 0.0122565245
v -0.0747799128 0.0242974497 0.00876404159
v -0.0747799128 0.0242974497 1.06170772E-09
v -0.0747799128 -0.0242974591 0.00876403879
v -0.0747799128 -0.0242974497 -1.06170772E-09
v -0.0566338189 -0.0184014384 0.0122565245
v -0.0566338189 -0.0184014346 0.030329369
v -0.0350016356 -0.0481755883 0.0303293653
v -0.0350016356 -0.0481755771 0.0122565199
v -1.91919494E-08 -0.059548296 0.0303293671
v -1.91919494E-08 -0.0595482998 0.0122565245
v 0.0350015983 -0.0481755883 0.0303293653
v 0.0350015983 -0.0481755771 0.0122565199
v 0.0566337816 -0.0184014346 0.030329369
v 0.0566337816 -0.0184014384 0.0122565245
v 0.0566337816 0.0184014309 0.030329369
v 0.0566337816 0.0184014365 0.0122565255
v 0.0350015983 0.0481755771 0.0303293671
v 0.0350015983 0.0481755957 0.0122565292
v -1.91919494E-08 0.0595482998 0.030329369
v -1.91919494E-08 0.0595483035 0.0122565292
v -0.0350016356 0.0481755771 0.0303293671
v -0.0350016356 0.0481755957 0.0122565292
v -0.0566338189 0.0184014309 0.030329369
v -0.0566338189 0.0184014365 0.0122565255
v -0.0566338189 -0.0184014346 0.030329369
v -0.0566338189 -0.0184014384 0.0122565245
v 0.063482143 0.0206265785 0.298056722
v 0.0602306016 0.0195701029 0.300315559
v 0.0372245573 0.0512352325 0.300315499
v 0.0392341129 0.0540011264 0.298056751
v -1.83605415E-08 0.0633301884 0.300315589
v -1.90079312E-08 0.0667490587 0.298056781
v -0.0372245982 0.0512352325 0.300315499
v -0.0392341502 0.0540011264 0.298056751
v -0.0602306388 0.0195701029 0.300315559
v -0.0634821802 0.0206265785 0.298056722
v -0.0602306388 -0.0195701309 0.300315589
v -0.0634821802 -0.0206266288 0.298056722
v -0.0643182993 0.0208982732 0.297054201
v -0.0643182918 -0.0208982844 0.297054201
v -0.0397509001 0.0547123961 0.297054201
v -1.91736031E-08 0.0676282123 0.297054231
v 0.0397508666 0.0547123961 0.297054201
v -0.0646646321 0.0210108068 0.2957955
v -0.0646646321 -0.0210108198 0.2957955
v -0.0399649478 0.0550069697 0.2957955
v -1.92433607E-08 0.0679923594 0.29579556
v -0.0646646321 0.0210108068 0.258784026
v -0.0646646321 -0.0210108198 0.258784026
v -0.0399649478 0.0550069995 0.258784026
v -0.0642613173 0.0208797418 0.257642746
v -0.0642613173 -0.0208797567 0.257642746
v 0.0643182471 0.0208982732 0.297054201
v 0.0399649069 0.0550069697 0.2957955
v -1.92433607E-08 0.0679923594 0.258784056
v -0.0397156887 0.0546639301 0.257642746
v -0.0632876381 0.0205633827 0.256923676
v -0.0632876381 -0.0205634162 0.256923676
v -0.0617340021 0.0200585742 0.256449193
v -0.0617340021 -0.0200585853 0.256449193
v -0.0381537229 0.0525140576 0.256449193
v -0.0391139202 0.0538356639 0.256923676
v -1.9235662E-08 0.0649109483 0.256449193
v -1.9239744E-08 0.0665445328 0.256923676
v 0.0381536819 0.0525140576 0.256449193
v -1.92411242E-08 0.0675683245 0.257642746
v 0.0391138829 0.0538356639 0.256923676
v 0.0617339648 0.0200585742 0.256449193
v 0.0397156514 0.0546639301 0.257642746
v 0.0632876009 0.0205633827 0.256923676
v 0.0617339648 -0.0200585853 0.256449193
v 0.0399649069 0.0550069995 0.258784026
v 0.0632876009 -0.0205634162 0.256923676
v 0.0381536819 -0.0525140762 0.256449193
v 0.06426128 0.0208797418 0.257642746
v 0.0646645948 0.0210108068 0.258784026
v 0.0391138829 -0.0538356826 0.256923676
v -1.9235662E-08 -0.0649109632 0.256449193
v 0.06426128 -0.0208797567 0.257642746
v 0.0646645948 0.0210108068 0.2957955
v -1.9239744E-08 -0.0665445551 0.256923646
v -0.0381537229 -0.0525140762 0.256449193
v 0.0646645948 -0.0210108198 0.258784026
v 0.0397156514 -0.0546639487 0.257642746
v 0.0646645948 -0.0210108198 0.2957955
v -0.0391139202 -0.0538356826 0.256923676
v -0.0617340021 -0.0200585853 0.256449193
v -0.0632876381 -0.0205634162 0.256923676
v 0.0399649069 -0.0550070219 0.258783996
v -1.92411242E-08 -0.0675683469 0.257642746
v -0.0397156887 -0.0546639487 0.257642746
v -0.0642613173 -0.0208797567 0.257642746
v 0.064318262 -0.0208982844 0.297054201
v 0.0399649069 -0.0550070181 0.2957955
v -1.92433607E-08 -0.0679923967 0.258784026
v -0.0399649478 -0.0550070219 0.258783996
v -0.0646646321 -0.0210108198 0.258784026
v 0.063482143 -0.0206266288 0.298056722
v 0.0602306016 0.0195701029 0.300315559
v 0.0602306016 -0.0195701309 0.300315589
v 0.0397508666 -0.0547123663 0.297054201
v -1.92433607E-08 -0.0679923892 0.2957955
v -0.0399649478 -0.0550070181 0.2957955
v -0.0646646321 -0.0210108198 0.2957955
v 0.0392341129 -0.0540011525 0.298056722
v 0.0372245573 -0.0512352586 0.300315529
v -1.91736031E-08 -0.0676282421 0.297054201
v -0.0397509001 -0.0547123663 0.297054201
v -0.0643182918 -0.0208982844 0.297054201
v -1.90079312E-08 -0.0667490885 0.298056722
v -1.83605415E-08 -0.0633302182 0.300315589
v -0.0392341502 -0.0540011525 0.298056722
v -0.0634821802 -0.0206266288 0.298056722
v -0.0372245982 -0.0512352586 0.300315529
v -0.0602306388 -0.0195701309 0.300315589
v -0.0602306388 -0.0195701309 0.300315589
v -0.0374883227 -0.0515982509 0.331839085
v -0.0372245982 -0.0512352586 0.300315529
v -0.0606573634 -0.0197087917 0.331839055
v -0.0602306388 0.0195701029 0.300315559
v -0.0312817171 -0.0430555716 0.359837532
v -0.0606573634 0.0197087452 0.331839085
v -0.0372245982 0.0512352325 0.300315499
v -0.0506148674 -0.0164457615 0.359837532
v -0.0197718143 -0.0272135437 0.372546762
v -0.0374883227 0.0515982062 0.331839055
v -1.83605415E-08 0.0633301884 0.300315589
v -0.0506148674 0.0164457168 0.359837532
v -0.0319914557 -0.0103946691 0.372546792
v -1.85576745E-08 1.69873235E-08 0.380045921
v -0.0319914557 0.0103946282 0.372546792
v -0.0197718143 0.0272135008 0.372546792
v -0.0312817171 0.0430555232 0.359837532
v -1.96454906E-08 0.0637789294 0.331839055
v 0.0372245573 0.0512352325 0.300315499
v -1.84286932E-08 0.0532196164 0.359837472
v 0.0374882817 0.0515982062 0.331839055
v 0.0602306016 0.0195701029 0.300315559
v -1.3865832E-08 0.0336377583 0.372546792
v 0.0606573187 0.0197087452 0.331839085
v 0.0602306016 -0.0195701309 0.300315589
v 0.0312816836 0.0430555232 0.359837532
v 0.0606573187 -0.0197087917 0.331839055
v 0.0372245573 -0.0512352586 0.300315529
v 0.0197717883 0.0272135008 0.372546792
v 0.0506148227 0.0164457168 0.359837532
v 0.0374882817 -0.0515982509 0.331839085
v -1.83605415E-08 -0.0633302182 0.300315589
v 0.0319914334 0.0103946282 0.372546792
v 0.0506148227 -0.0164457615 0.359837532
v -1.96454906E-08 -0.0637789369 0.331839085
v -0.0372245982 -0.0512352586 0.300315529
v -0.0374883227 -0.0515982509 0.331839085
v 0.0319914334 -0.0103946691 0.372546792
v 0.0312816836 -0.0430555716 0.359837532
v -1.84286932E-08 -0.0532196276 0.359837532
v -0.0312817171 -0.0430555716 0.359837532
v 0.0197717883 -0.0272135437 0.372546762
v -1.3865832E-08 -0.0336377993 0.372546792
v -0.0197718143 -0.0272135437 0.372546762
v 0.0640628263 -0.0208152737 0.0445228182
v 0.0566337816 -0.0184014346 0.030329369
v 0.0350015983 -0.0481755883 0.0303293653
v 0.0395929962 -0.0544951111 0.0445228145
v 0.0644883364 -0.0209535379 0.0457158573
v 0.0644883364 0.0209535286 0.0457158647
v 0.0640628263 0.0208152737 0.0445228182
v 0.0566337816 -0.0184014346 0.030329369
v 0.0566337816 0.0184014309 0.030329369
v 0.0395929962 0.0544951111 0.0445228219
v 0.0350015983 0.0481755771 0.0303293671
v 0.0398559794 0.0548570715 0.0457158647
v -1.92395078E-08 0.0673596561 0.0445228294
v -1.91919494E-08 0.0595482998 0.030329369
v -1.92411242E-08 0.0678070709 0.0457158647
v -0.0395930335 0.0544951111 0.0445228219
v -0.0350016356 0.0481755771 0.0303293671
v -0.0398560166 0.0548570715 0.0457158647
v 0.0399649069 0.0550069995 0.0469701998
v -1.92433607E-08 0.0679924041 0.0469701961
v -0.0399649478 0.0550069995 0.0469701998
v 0.0646645948 0.0210107975 0.0469701961
v -0.0644883737 0.0209535286 0.0457158647
v -0.0646646321 0.0210107975 0.0469701961
v -0.0640628636 0.0208152737 0.0445228182
v -0.0350016356 0.0481755771 0.0303293671
v -0.0566338189 0.0184014309 0.030329369
v -0.0644883737 -0.0209535379 0.0457158573
v -0.0646646321 -0.0210108068 0.0469701961
v -0.0640628636 -0.0208152737 0.0445228182
v -0.0566338189 0.0184014309 0.030329369
v -0.0566338189 -0.0184014346 0.030329369
v -0.0646646321 -0.0210108273 0.187603563
v -0.0646646321 0.0210107993 0.187603578
v -0.0643084496 -0.0208950769 0.188611463
v -0.0399649478 0.0550070032 0.187603578
v -0.0643084496 0.0208950564 0.188611463
v -0.0634485409 -0.0206156652 0.189246535
v -1.92433607E-08 0.0679923818 0.187603578
v -0.039744813 0.0547040068 0.188611448
v -0.0634485409 0.0206156448 0.18924655
v -0.0617340021 -0.0200585909 0.189770192
v -0.0617340021 0.0200585667 0.189770177
v -0.0392133594 0.0539725013 0.18924655
v -0.0381537229 0.0525140576 0.189770177
v 0.0399649069 0.0550070032 0.187603578
v -1.92457801E-08 0.0676178783 0.188611448
v -1.92401668E-08 0.0667137057 0.18924652
v -1.9235662E-08 0.0649109483 0.189770177
v 0.0397447757 0.0547040068 0.188611448
v 0.0392133221 0.0539725013 0.18924655
v 0.0381536819 0.0525140576 0.189770177
v 0.0646645948 0.0210107993 0.187603578
v 0.0634484962 0.0206156448 0.18924655
v 0.0617339648 0.0200585667 0.189770177
v 0.0643084124 0.0208950564 0.188611463
v 0.0646645948 -0.0210108068 0.0469701961
v 0.0634484962 -0.0206156652 0.189246535
v 0.0617339648 -0.0200585909 0.189770192
v 0.0646645948 -0.0210108273 0.187603563
v 0.0643084124 -0.0208950769 0.188611463
v 0.0398559794 -0.0548570715 0.0457158573
v 0.0392133221 -0.0539725535 0.18924655
v 0.0381536819 -0.0525140762 0.189770192
v 0.0399649069 -0.0550070032 0.0469701886
v 0.0399649069 -0.0550070219 0.187603563
v 0.0397447757 -0.0547040068 0.188611448
v -1.92401668E-08 -0.0667137355 0.18924655
v -1.9235662E-08 -0.0649109632 0.189770177
v -1.92457801E-08 -0.0676178932 0.188611463
v -1.92433607E-08 -0.0679923967 0.187603563
v -1.92433607E-08 -0.0679923967 0.0469701886
v -1.92399572E-08 -0.0678070784 0.0457158498
v -0.0392133594 -0.0539725535 0.18924655
v -0.0381537229 -0.0525140762 0.189770192
v -0.0399649478 -0.0550070219 0.187603563
v -0.039744813 -0.0547040068 0.188611448
v -0.0634485409 -0.0206156652 0.189246535
v -0.0617340021 -0.0200585909 0.189770192
v -0.0643084496 -0.0208950769 0.188611463
v -0.0646646321 -0.0210108273 0.187603563
v -0.0399649478 -0.0550070032 0.0469701886
v -0.0646646321 -0.0210108068 0.0469701961
v -0.0644883737 -0.0209535379 0.0457158573
v -0.0398560166 -0.0548570715 0.0457158573
v -0.0640628636 -0.0208152737 0.0445228182
v -0.0395930335 -0.0544951111 0.0445228145
v -0.0566338189 -0.0184014346 0.030329369
v -0.0350016356 -0.0481755883 0.0303293653
v -1.92395078E-08 -0.0673596561 0.0445228182
v -0.0350016356 -0.0481755883 0.0303293653
v -1.91919494E-08 -0.059548296 0.0303293671
v -1.91919494E-08 -0.059548296 0.0303293671
v 0.0350015983 -0.0481755883 0.0303293653
v -0.0617340021 -0.0200585909 0.189770192
v -0.0617340021 -0.0200585853 0.256449193
v -0.0381537229 -0.0525140762 0.256449193
v -0.0381537229 -0.0525140762 0.189770192
v -1.9235662E-08 -0.0649109632 0.256449193
v -1.9235662E-08 -0.0649109632 0.189770177
v 0.0381536819 -0.0525140762 0.256449193
v 0.0381536819 -0.0525140762 0.189770192
v 0.0617339648 -0.0200585853 0.256449193
v 0.0617339648 -0.0200585909 0.189770192
v 0.0617339648 0.0200585742 0.256449193
v 0.0617339648 0.0200585667 0.189770177
v 0.0381536819 0.0525140576 0.256449193
v 0.0381536819 0.0525140576 0.189770177
v -1.9235662E-08 0.0649109483 0.256449193
v -1.9235662E-08 0.0649109483 0.189770177
v -0.0381537229 0.0525140576 0.256449193
v -0.0381537229 0.0525140576 0.189770177
v -0.0617340021 0.0200585742 0.256449193
v -0.0617340021 0.0200585667 0.189770177
v -0.0617340021 -0.0200585853 0.256449193
v -0.0617340021 -0.0200585909 0.189770192
v -0.0747799128 -0.0242974497 -1.06170772E-09
v -0.0462165289 0.0636115745 2.75671486E-09
v -0.0747799128 0.0242974497 1.06170772E-09
v -1.90734841E-08 0.0786282271 3.42726691E-09
v -0.0462165289 -0.0636115745 -2.75671486E-09
v 0.0462164916 0.0636115745 2.75671486E-09
v -1.90734841E-08 -0.0786282271 -3.42726691E-09
v 0.0747798681 0.0242974497 1.06170772E-09
v 0.0462164916 -0.0636115745 -2.75671486E-09
v 0.0747798681 -0.0242974497 -1.06170772E-09
vt 0.946993172 0.954217494
vt 0.934810758 0.932088137
vt 0.874383509 0.939189911
vt 0.877200663 0.961775482
vt 0.952413857 0.963037789
vt 0.807325363 0.938480437
vt 0.879657626 0.968912125
vt 0.954317987 0.977060974
vt 0.880865932 0.982091963
vt 0.807771623 0.960849404
vt 0.738277793 0.937817752
vt 0.808727622 0.968263805
vt 0.809104085 0.981642962
vt 0.738351166 0.960220754
vt 0.668820858 0.937635005
vt 0.73865056 0.967719674
vt 0.738768697 0.981122792
vt 0.668839574 0.960083783
vt 0.599318922 0.937598526
vt 0.668918729 0.967648208
vt 0.66896075 0.981080651
vt 0.599318147 0.960052788
vt 0.529856086 0.937629223
vt 0.599318326 0.967621744
vt 0.599318922 0.981055796
vt 0.529837251 0.960073411
vt 0.46050477 0.937820494
vt 0.529756665 0.967627406
vt 0.529722273 0.98105371
vt 0.46042946 0.960233569
vt 0.391577929 0.938458264
vt 0.460128963 0.967754483
vt 0.4600178 0.981170833
vt 0.391135544 0.960834861
vt 0.324610651 0.939201832
vt 0.390186399 0.968310893
vt 0.389786512 0.981740773
vt 0.321804434 0.961775005
vt 0.264216959 0.932124555
vt 0.252042174 0.954257727
vt 0.319354326 0.96884644
vt 0.318128645 0.981975794
vt 0.246620968 0.963077664
vt 0.244728476 0.977099895
vt 0.537523329 0.0280815698
vt 0.506782293 0.024350876
vt 0.500744343 0.0866699517
vt 0.531658232 0.0890180767
vt 0.500580728 0.152492747
vt 0.53163594 0.153153777
vt 0.500632882 0.219947368
vt 0.531646132 0.220236465
vt 0.500627279 0.2885032
vt 0.531615138 0.288626552
vt 0.500604868 0.357552558
vt 0.531588554 0.357567012
vt 0.500480711 0.42656979
vt 0.531446338 0.426463574
vt 0.500332654 0.495029181
vt 0.531308889 0.494717658
vt 0.500148416 0.562416077
vt 0.531080186 0.561428785
vt 0.501447618 0.628117502
vt 0.532515287 0.625461996
vt 0.507408857 0.690341532
vt 0.538207889 0.686602533
vt 0.0153958425 0.35762912
vt 0.00830326229 0.35762912
vt 0.00833067577 0.428327739
vt 0.0154312458 0.428316355
vt 0.00836373772 0.498752296
vt 0.0154640749 0.498728275
vt 0.00843256712 0.568609059
vt 0.0155279385 0.568603218
vt 0.00861481857 0.637484491
vt 0.0157326013 0.637625694
vt 0.00862734858 0.703699648
vt 0.0157601442 0.705697715
vt 0.0183207691 0.637676656
vt 0.0183539242 0.706240177
vt 0.0181084871 0.568600059
vt 0.0180462599 0.498718798
vt 0.0180134457 0.428311855
vt 0.0208044313 0.637673676
vt 0.020837592 0.706423998
vt 0.0205878112 0.568596065
vt 0.0205255728 0.498716414
vt 0.0846440569 0.637586653
vt 0.0846811906 0.706416607
vt 0.0843272209 0.568466485
vt 0.0871270373 0.637582779
vt 0.0871646553 0.706201673
vt 0.0179751702 0.35762912
vt 0.0204927251 0.428310096
vt 0.0842606202 0.498636156
vt 0.0868071392 0.568460405
vt 0.0909329653 0.63739574
vt 0.0910305381 0.705363154
vt 0.0952266455 0.637184203
vt 0.0953921974 0.704174876
vt 0.0947926715 0.568295121
vt 0.0905590206 0.568383336
vt 0.0946978405 0.49845019
vt 0.0904790834 0.498547137
vt 0.094659254 0.428164333
vt 0.0867400318 0.498632193
vt 0.0904423445 0.428211778
vt 0.0946045369 0.357618302
vt 0.0867048949 0.428253472
vt 0.0903930366 0.357622147
vt 0.0946346 0.287057221
vt 0.0842256397 0.428255916
vt 0.0904174 0.287040442
vt 0.0948161483 0.216839537
vt 0.0866604745 0.357625604
vt 0.0841813385 0.357625693
vt 0.0905858427 0.216762424
vt 0.0948919132 0.147195145
vt 0.0866798908 0.287025988
vt 0.020454146 0.357628971
vt 0.0906525701 0.147034168
vt 0.0949656293 0.0783379972
vt 0.0842005387 0.287022591
vt 0.0868363529 0.216694891
vt 0.0204711184 0.286946446
vt 0.0907062888 0.078045398
vt 0.0954272002 0.0112639908
vt 0.0910481811 0.0100447498
vt 0.0843567029 0.216689616
vt 0.0868951827 0.146892592
vt 0.0869315416 0.0777865201
vt 0.0871663317 0.00917874835
vt 0.0179921463 0.286943913
vt 0.0206100345 0.216575295
vt 0.0844155774 0.146887124
vt 0.0844546258 0.0777836889
vt 0.0846714675 0.00896383636
vt 0.0154104754 0.286941171
vt 0.00830326229 0.35762912
vt 0.00831167493 0.286934942
vt 0.0181301273 0.216571629
vt 0.0206730552 0.146774903
vt 0.0207903162 0.0777224004
vt 0.0205187593 0.00895604119
vt 0.0155457864 0.216563344
vt 0.00843915623 0.216542706
vt 0.0181934871 0.146771535
vt 0.0183131658 0.0777204037
vt 0.0180239379 0.00913989171
vt 0.0156120611 0.146763057
vt 0.00851392746 0.146742508
vt 0.0157487653 0.0777753145
vt 0.0153875528 0.00969993416
vt 0.00869564898 0.0779273659
vt 0.00814001262 0.0117463656
vt 0.499603391 0.891533494
vt 0.459157765 0.817083597
vt 0.440200984 0.865985811
vt 0.51276046 0.844724596
vt 0.569691896 0.907206893
vt 0.490337849 0.770636916
vt 0.570595562 0.860049844
vt 0.645857155 0.897879958
vt 0.52890563 0.800014973
vt 0.529483795 0.742864609
vt 0.630572617 0.854074121
vt 0.714766681 0.858309388
vt 0.572016001 0.81474793
vt 0.549905241 0.765894055
vt 0.593518555 0.719880462
vt 0.57701838 0.777448416
vt 0.605418086 0.776913404
vt 0.615909398 0.812199354
vt 0.683788478 0.824320793
vt 0.762027562 0.792874694
vt 0.654099286 0.791948557
vt 0.719997466 0.774697244
vt 0.777439117 0.713607132
vt 0.630143523 0.764428377
vt 0.731494904 0.714316249
vt 0.759067357 0.636231661
vt 0.680014789 0.757486463
vt 0.716699541 0.65510273
vt 0.713653147 0.574316978
vt 0.646653235 0.742777944
vt 0.687725306 0.714938641
vt 0.679933727 0.607280493
vt 0.654185534 0.533987403
vt 0.651245773 0.716011584
vt 0.676203668 0.673100829
vt 0.629119158 0.575639904
vt 0.59485811 0.508234322
vt 0.572244585 0.555546105
vt 0.643301129 0.689542413
vt 0.647933543 0.639335871
vt 0.607634723 0.618013382
vt 0.559798539 0.610056996
vt 0.624195158 0.668492734
vt 0.597177088 0.656650364
vt 0.566399992 0.657556415
vt 0.465111732 0.288053989
vt 0.496551692 0.2885032
vt 0.496557295 0.219947368
vt 0.46523571 0.218608007
vt 0.462565064 0.28801766
vt 0.462517023 0.357617021
vt 0.465065598 0.357612133
vt 0.496551692 0.2885032
vt 0.496529281 0.357552558
vt 0.465052962 0.427225262
vt 0.496405125 0.42656979
vt 0.462513357 0.427278221
vt 0.464993656 0.496580064
vt 0.496257067 0.495029181
vt 0.462461263 0.496705085
vt 0.464973539 0.565022707
vt 0.496072829 0.562416077
vt 0.462455213 0.565233529
vt 0.460305452 0.427282214
vt 0.460253835 0.496713489
vt 0.460247904 0.565253854
vt 0.460308701 0.357616484
vt 0.463537574 0.633222818
vt 0.461329669 0.633255959
vt 0.466071695 0.632839918
vt 0.496072829 0.562416077
vt 0.497372031 0.628117502
vt 0.466450423 0.701558709
vt 0.464228243 0.701690018
vt 0.469217807 0.700804472
vt 0.497372031 0.628117502
vt 0.503333271 0.690341532
vt 0.22297354 0.705810785
vt 0.222184032 0.636887848
vt 0.220790088 0.705658197
vt 0.221117631 0.567419529
vt 0.220021367 0.636919975
vt 0.21674341 0.704940319
vt 0.221026972 0.49755916
vt 0.218956858 0.567438602
vt 0.216200262 0.636795104
vt 0.211035132 0.703660607
vt 0.210812435 0.636618018
vt 0.215278059 0.567593455
vt 0.210093334 0.567811072
vt 0.221021712 0.427697152
vt 0.218864098 0.497566819
vt 0.21517536 0.497805983
vt 0.209974945 0.498143196
vt 0.218858182 0.427700579
vt 0.215158537 0.427807093
vt 0.209942475 0.42795679
vt 0.220990226 0.357565761
vt 0.215120524 0.357577175
vt 0.2098957 0.357593894
vt 0.218826517 0.357565224
vt 0.460356683 0.28801173
vt 0.215157747 0.287336677
vt 0.20992811 0.287292004
vt 0.221030921 0.287374139
vt 0.218867242 0.287368953
vt 0.462698519 0.218499795
vt 0.215357691 0.217428401
vt 0.210125595 0.217209771
vt 0.460490853 0.218491212
vt 0.221232042 0.217591614
vt 0.219068646 0.217584118
vt 0.215482146 0.148000881
vt 0.210237846 0.147606283
vt 0.21920225 0.148280859
vt 0.221364558 0.148290604
vt 0.460559189 0.149378747
vt 0.462766528 0.149389386
vt 0.215829164 0.0790060461
vt 0.210480481 0.0789496005
vt 0.221785188 0.0790647641
vt 0.219623536 0.0790462643
vt 0.216550469 0.0108120246
vt 0.210994273 0.0120398523
vt 0.220489025 0.0101314578
vt 0.222670481 0.00996743422
vt 0.460933924 0.0811307952
vt 0.463674784 0.0128752999
vt 0.465894818 0.0129951425
vt 0.463142276 0.0811498538
vt 0.468656719 0.0137600154
vt 0.465652943 0.0815634951
vt 0.502706707 0.024350876
vt 0.496668756 0.0866699517
vt 0.465294451 0.149621382
vt 0.496668756 0.0866699517
vt 0.496505141 0.152492747
vt 0.496505141 0.152492747
vt 0.496557295 0.219947368
vt 0.210994273 0.0120398523
vt 0.0954272002 0.0112639908
vt 0.0949656293 0.0783379972
vt 0.210480481 0.0789496005
vt 0.0948919132 0.147195145
vt 0.210237846 0.147606283
vt 0.0948161483 0.216839537
vt 0.210125595 0.217209771
vt 0.0946346 0.287057221
vt 0.20992811 0.287292004
vt 0.0946045369 0.357618302
vt 0.2098957 0.357593894
vt 0.094659254 0.428164333
vt 0.209942475 0.42795679
vt 0.0946978405 0.49845019
vt 0.209974945 0.498143196
vt 0.0947926715 0.568295121
vt 0.210093334 0.567811072
vt 0.0952266455 0.637184203
vt 0.210812435 0.636618018
vt 0.0953921974 0.704174876
vt 0.211035132 0.703660607
vt 0.238838777 0.906691074
vt 0.105122484 0.954741716
vt 0.17970787 0.952670634
vt 0.0435763374 0.912276804
vt 0.26060468 0.834751964
vt 0.0192614384 0.842137456
vt 0.235266417 0.763415277
vt 0.0400281139 0.769779801
vt 0.172630176 0.720323086
vt 0.0980576649 0.722816706
vn -0.410239965 -0.133295164 0.902183831
vn -0 0 1
vn -0 0 1
vn -0.253542274 -0.348970979 0.902183831
vn -0.884088397 -0.28725782 0.368606389
vn -0 0 1
vn -0.546396554 -0.752050698 0.368606389
vn -0.95105654 -0.309017062 0
vn -0.587785244 -0.809017003 0
vn -0 -0.43135193 0.902183712
vn -0 0 1
vn -0 -0.929585576 0.368606329
vn -0 -1 0
vn 0.253542453 -0.348971128 0.902183712
vn -0 0 1
vn 0.546396673 -0.752050638 0.36860624
vn 0.587785244 -0.809017003 0
vn 0.410240233 -0.133295208 0.902183652
vn -0 0 1
vn 0.884088457 -0.28725782 0.36860612
vn 0.95105654 -0.309017032 0
vn 0.410240233 0.133295104 0.902183652
vn -0 0 1
vn 0.884088457 0.287257761 0.36860615
vn 0.95105654 0.309017032 0
vn 0.253542513 0.348971009 0.902183712
vn -0 0 1
vn 0.546396673 0.752050579 0.36860624
vn 0.587785244 0.809017003 0
vn -0 0.431351781 0.902183831
vn -0 0 1
vn -0 0.929585576 0.368606389
vn -0 1 0
vn -0.253542364 0.34897086 0.902183831
vn -0 0 1
vn -0.546396494 0.752050638 0.368606418
vn -0.587785184 0.809017062 0
vn -0.410239935 0.133295029 0.902183831
vn -0 0 1
vn -0.410239965 -0.133295164 0.902183831
vn -0.884088397 0.287257701 0.368606478
vn -0.95105654 0.309017062 0
vn -0.884088397 -0.28725782 0.368606389
vn -0.95105654 -0.309017062 0
vn -0.95105654 -0.309017003 0
vn -0.95105654 -0.309017003 0
vn -0.587785244 -0.809017003 0
vn -0.587785244 -0.809017003 0
vn -0 -1 0
vn -0 -1 0
vn 0.587785244 -0.809017003 0
vn 0.587785244 -0.809017003 0
vn 0.95105654 -0.309017003 0
vn 0.95105654 -0.309017003 0
vn 0.95105654 0.309016973 0
vn 0.95105654 0.309016973 0
vn 0.587785363 0.809017003 0
vn 0.587785363 0.809017003 0
vn -0 1 0
vn -0 1 0
vn -0.587785363 0.809017003 0
vn -0.587785363 0.809017003 0
vn -0.95105654 0.309016973 0
vn -0.95105654 0.309016973 0
vn -0.95105654 -0.309017003 0
vn -0.95105654 -0.309017003 0
vn 0.639016986 0.207627937 0.740640223
vn 0.524267256 0.170344427 0.834342003
vn 0.324015468 0.445969164 0.834341347
vn 0.394933492 0.543579698 0.7406407
vn -0 0.551249325 0.834340572
vn -0 0.671902895 0.74063921
vn -0.324015558 0.445969075 0.834341347
vn -0.394932657 0.543581605 0.740639746
vn -0.524267256 0.170344427 0.834342003
vn -0.639015913 0.207630187 0.740640461
vn -0.524267554 -0.170344725 0.834341764
vn -0.639016509 -0.207627878 0.740640581
vn -0.843031764 0.273917824 0.462889075
vn -0.843031287 -0.273918211 0.462890029
vn -0.521021724 0.717127144 0.462887615
vn -0 0.886417329 0.46288681
vn 0.521021307 0.717127025 0.462888241
vn -0.9421345 0.306117475 0.136655271
vn -0.942134023 -0.306118876 0.13665536
vn -0.582271636 0.801427186 0.136653855
vn -0 0.990618944 0.136653304
vn -0.937021077 0.304456502 -0.171165586
vn -0.937020957 -0.304456294 -0.171166703
vn -0.579111159 0.797077835 -0.171164602
vn -0.772066176 0.250859171 -0.583937883
vn -0.772065699 -0.250858992 -0.583938658
vn 0.843031049 0.273918152 0.462890357
vn 0.582270086 0.801428318 0.136653706
vn -0 0.985242426 -0.171165258
vn -0.477163881 0.656759322 -0.583936572
vn -0.436098695 0.141695276 -0.888673365
vn -0.436098903 -0.14169696 -0.888673067
vn -0.265274823 0.0861886293 -0.960312903
vn -0.265274733 -0.0861921161 -0.960312605
vn -0.163949549 0.225646526 -0.960314572
vn -0.269524485 0.370964646 -0.88867408
vn -0 0.278915793 -0.960315585
vn -0 0.4585388 -0.888674378
vn 0.163949311 0.225649968 -0.960313916
vn -0 0.811799288 -0.583936572
vn 0.269524425 0.370965868 -0.888673604
vn 0.26527524 0.0861921087 -0.960312366
vn 0.477164119 0.656759322 -0.583936334
vn 0.436098129 0.141696706 -0.888673425
vn 0.265275061 -0.0861919671 -0.960312486
vn 0.57911092 0.797077954 -0.171164319
vn 0.43609798 -0.141696662 -0.888673544
vn 0.163949132 -0.225650102 -0.960313797
vn 0.772066534 0.25085935 -0.583937407
vn 0.937021255 0.304456472 -0.171164513
vn 0.269524336 -0.370966017 -0.888673604
vn -0 -0.278916299 -0.960315466
vn 0.772066236 -0.250859171 -0.583937824
vn 0.942133844 0.306119025 0.136656478
vn -0 -0.458539009 -0.888674259
vn -0.163949415 -0.225650206 -0.960313797
vn 0.937021255 -0.304456264 -0.171165049
vn 0.477163702 -0.656758606 -0.583937526
vn 0.94213438 -0.306117445 0.13665624
vn -0.269524664 -0.370966256 -0.888673425
vn -0.265274733 -0.0861921161 -0.960312605
vn -0.436098903 -0.14169696 -0.888673067
vn 0.579110742 -0.797077835 -0.17116572
vn -0 -0.811798573 -0.583937585
vn -0.477163404 -0.656758606 -0.583937764
vn -0.772065699 -0.250858992 -0.583938658
vn 0.843031466 -0.273917466 0.462890118
vn 0.582271397 -0.801427424 0.136653513
vn -0 -0.985242188 -0.17116648
vn -0.57911092 -0.797077596 -0.171166226
vn -0.937020957 -0.304456294 -0.171166703
vn 0.639016211 -0.2076298 0.740640342
vn 0.524267256 0.170344427 0.834342003
vn 0.524267554 -0.170344725 0.834341764
vn 0.521021664 -0.717126906 0.462888032
vn -0 -0.990618944 0.1366532
vn -0.582270265 -0.801428199 0.136653841
vn -0.942134023 -0.306118876 0.13665536
vn 0.39493224 -0.543581188 0.740640223
vn 0.324015677 -0.445969373 0.834341168
vn -0 -0.886417449 0.462886691
vn -0.521021128 -0.717127085 0.46288836
vn -0.843031287 -0.273918211 0.462890029
vn -0 -0.671902955 0.74063921
vn -0 -0.551249325 0.834340572
vn -0.394933552 -0.543579817 0.740640581
vn -0.639016509 -0.207627878 0.740640581
vn -0.324015766 -0.445969343 0.834341109
vn -0.524267554 -0.170344725 0.834341764
vn -0.950960159 -0.30898574 -0.014231774
vn -0.579588115 -0.797734499 0.166425481
vn -0.587725639 -0.808935046 -0.0142316939
vn -0.937793195 -0.304707408 0.166425318
vn -0.950960159 0.30898574 -0.014231774
vn -0.470847517 -0.648065746 0.598592818
vn -0.937793195 0.304707408 0.166425288
vn -0.587725639 0.808935046 -0.0142317256
vn -0.76184696 -0.247539058 0.598592937
vn -0.244733974 -0.336847216 0.909197032
vn -0.579588175 0.79773432 0.166425452
vn -0 0.999898791 -0.0142317824
vn -0.761847138 0.247538865 0.598592877
vn -0.39598763 -0.128664166 0.909197032
vn -0 0 1
vn -0.395987719 0.128663927 0.909197092
vn -0.24473393 0.336846918 0.909197092
vn -0.470847666 0.648065686 0.598592818
vn -0 0.986054003 0.166425452
vn 0.587725818 0.808935046 -0.01423168
vn -0 0.801053405 0.598592877
vn 0.579588115 0.797734499 0.166425347
vn 0.950960279 0.308985621 -0.0142317265
vn -0 0.416366071 0.909197032
vn 0.937793076 0.304707408 0.166425258
vn 0.950960159 -0.30898577 -0.0142317256
vn 0.470847636 0.648065627 0.598592937
vn 0.937793076 -0.304707438 0.166425303
vn 0.587725639 -0.808935046 -0.014231652
vn 0.244734019 0.336846977 0.909197092
vn 0.761847258 0.247538984 0.598592699
vn 0.579587936 -0.797734499 0.166425407
vn -0 -0.999898791 -0.0142317247
vn 0.395987898 0.128663972 0.909197032
vn 0.761847198 -0.247538999 0.598592818
vn -0 -0.986054003 0.166425481
vn -0.587725639 -0.808935046 -0.0142316939
vn -0.579588115 -0.797734499 0.166425481
vn 0.395987898 -0.128663987 0.909197032
vn 0.470847577 -0.648065627 0.598592937
vn -0 -0.801053405 0.598592818
vn -0.470847517 -0.648065746 0.598592818
vn 0.244734019 -0.336846918 0.909197092
vn -0 -0.416366011 0.909197092
vn -0.244733974 -0.336847216 0.909197032
vn 0.866402805 -0.281511039 -0.412429065
vn 0.833207965 -0.270725638 -0.482153505
vn 0.514950812 -0.708768964 -0.482153714
vn 0.535466492 -0.737006247 -0.412428707
vn 0.922035277 -0.299587309 -0.245149747
vn 0.922035217 0.29958716 -0.24514994
vn 0.866402805 0.281510562 -0.412429392
vn 0.833207965 -0.270725638 -0.482153505
vn 0.833208084 0.270725638 -0.482153445
vn 0.535466731 0.73700577 -0.412429094
vn 0.514950991 0.708769023 -0.482153565
vn 0.569849908 0.784329355 -0.245149836
vn -0 0.910989702 -0.412429154
vn -0 0.876086771 -0.482153594
vn -0 0.969485044 -0.245150298
vn -0.535466611 0.73700583 -0.412429214
vn -0.514950812 0.708768964 -0.482153654
vn -0.56984961 0.784329355 -0.245150685
vn 0.586249053 0.806903183 -0.0722450837
vn -0 0.997386873 -0.0722454339
vn -0.586249053 0.806903064 -0.0722457618
vn 0.948571324 0.308209479 -0.0722448304
vn -0.922035098 0.299587041 -0.24515073
vn -0.948571205 0.308209538 -0.0722465217
vn -0.866403222 0.281510621 -0.412428498
vn -0.514950812 0.708768964 -0.482153654
vn -0.833207905 0.270725638 -0.482153624
vn -0.922035098 -0.29958725 -0.245150626
vn -0.948571205 -0.308209181 -0.0722471625
vn -0.866403401 -0.281511247 -0.412427664
vn -0.833207905 0.270725638 -0.482153624
vn -0.833207905 -0.270725667 -0.482153624
vn -0.937020242 -0.304455876 0.171171293
vn -0.937020242 0.304456115 0.171171337
vn -0.772069871 -0.250863284 0.583931267
vn -0.579110265 0.797077119 0.171170145
vn -0.77207011 0.250863284 0.583931029
vn -0.436117768 -0.141705751 0.888662338
vn -0 0.985241473 0.171169981
vn -0.477165043 0.65676409 0.583930194
vn -0.436117887 0.141705856 0.888662338
vn -0.265283942 -0.0861948356 0.960309744
vn -0.265283376 0.0861944258 0.960309923
vn -0.269535124 0.370984554 0.888662636
vn -0.163954899 0.225659803 0.960310638
vn 0.579109967 0.797077298 0.171170652
vn -0 0.811802506 0.583932102
vn -0 0.45855847 0.888664186
vn -1.03899659E-07 0.278933853 0.9603104
vn 0.477164626 0.656763434 0.583931267
vn 0.269534498 0.370985121 0.888662636
vn 0.16395472 0.225662753 0.960309923
vn 0.937020123 0.304455966 0.171171919
vn 0.436116636 0.141705528 0.888662994
vn 0.2652843 0.0861943811 0.960309744
vn 0.772069037 0.250862658 0.583932698
vn 0.948571444 -0.30820927 -0.0722449124
vn 0.436116546 -0.141705468 0.888662994
vn 0.265285015 -0.0861949101 0.960309505
vn 0.937020242 -0.304455817 0.171171919
vn 0.772068799 -0.250862658 0.583932877
vn 0.569849968 -0.784329355 -0.245149717
vn 0.269534677 -0.370985627 0.888662338
vn 0.163955495 -0.225663275 0.960309625
vn 0.586249352 -0.806903005 -0.0722453892
vn 0.579110026 -0.797077119 0.171171516
vn 0.477164209 -0.656763077 0.583932042
vn -0 -0.458559632 0.88866365
vn -1.03899659E-07 -0.278933764 0.9603104
vn -0 -0.81180203 0.583932817
vn -0 -0.985241234 0.171171516
vn -0 -0.997386873 -0.0722458288
vn -0 -0.969484925 -0.24515067
vn -0.269535303 -0.370984942 0.888662398
vn -0.163955465 -0.22566016 0.9603104
vn -0.579110444 -0.797077 0.171170875
vn -0.477164686 -0.656763732 0.58393085
vn -0.436117768 -0.141705751 0.888662338
vn -0.265283942 -0.0861948356 0.960309744
vn -0.772069871 -0.250863284 0.583931267
vn -0.937020242 -0.304455876 0.171171293
vn -0.586249471 -0.806902587 -0.072246626
vn -0.948571205 -0.308209181 -0.0722471625
vn -0.922035098 -0.29958725 -0.245150626
vn -0.56984961 -0.784329355 -0.245150685
vn -0.866403401 -0.281511247 -0.412427664
vn -0.535466492 -0.737006426 -0.412428349
vn -0.833207905 -0.270725667 -0.482153624
vn -0.514950812 -0.708768964 -0.482153714
vn -0 -0.910989702 -0.412429154
vn -0.514950812 -0.708768964 -0.482153714
vn -0 -0.876086712 -0.482153654
vn -0 -0.876086712 -0.482153654
vn 0.514950812 -0.708768964 -0.482153714
vn -0.95105654 -0.309016943 0
vn -0.95105654 -0.309016973 0
vn -0.587785244 -0.809017003 0
vn -0.587785244 -0.809017003 0
vn -0 -1 0
vn -0 -1 0
vn 0.587785244 -0.809017003 0
vn 0.587785244 -0.809017003 0
vn 0.95105654 -0.309016973 0
vn 0.95105654 -0.309016943 0
vn 0.95105654 0.309016943 0
vn 0.95105654 0.309016973 0
vn 0.587785244 0.809017003 0
vn 0.587785244 0.809017003 0
vn -0 1 0
vn -0 1 0
vn -0.587785184 0.809017062 0
vn -0.587785184 0.809017062 0
vn -0.95105654 0.309016943 0
vn -0.95105654 0.309016973 0
vn -0.95105654 -0.309016973 0
vn -0.95105654 -0.309016943 0
vn -0 0 -1
vn -0 0 -1
vn -0 0 -1
vn -0 0 -1
vn -0 0 -1
vn -0 0 -1
vn -0 0 -1
vn -0 0 -1
vn -0 0 -1
vn -0 0 -1
g A_Bullet_02_0
f 3/3/3 2/2/2 1/1/1
f 4/4/4 3/3/3 1/1/1
f 1/1/1 5/5/5 4/4/4
f 6/6/6 3/3/3 4/4/4
f 5/5/5 7/7/7 4/4/4
f 7/7/7 5/5/5 8/8/8
f 9/9/9 7/7/7 8/8/8
f 10/10/10 6/6/6 4/4/4
f 4/4/4 7/7/7 10/10/10
f 11/11/11 6/6/6 10/10/10
f 12/12/12 7/7/7 9/9/9
f 7/7/7 12/12/12 10/10/10
f 13/13/13 12/12/12 9/9/9
f 14/14/14 11/11/11 10/10/10
f 10/10/10 12/12/12 14/14/14
f 15/15/15 11/11/11 14/14/14
f 16/16/16 12/12/12 13/13/13
f 12/12/12 16/16/16 14/14/14
f 17/17/17 16/16/16 13/13/13
f 18/18/18 15/15/15 14/14/14
f 14/14/14 16/16/16 18/18/18
f 19/19/19 15/15/15 18/18/18
f 20/20/20 16/16/16 17/17/17
f 16/16/16 20/20/20 18/18/18
f 21/21/21 20/20/20 17/17/17
f 22/22/22 19/19/19 18/18/18
f 18/18/18 20/20/20 22/22/22
f 23/23/23 19/19/19 22/22/22
f 24/24/24 20/20/20 21/21/21
f 20/20/20 24/24/24 22/22/22
f 25/25/25 24/24/24 21/21/21
f 26/26/26 23/23/23 22/22/22
f 22/22/22 24/24/24 26/26/26
f 27/27/27 23/23/23 26/26/26
f 28/28/28 24/24/24 25/25/25
f 24/24/24 28/28/28 26/26/26
f 29/29/29 28/28/28 25/25/25
f 30/30/30 27/27/27 26/26/26
f 26/26/26 28/28/28 30/30/30
f 31/31/31 27/27/27 30/30/30
f 32/32/32 28/28/28 29/29/29
f 28/28/28 32/32/32 30/30/30
f 33/33/33 32/32/32 29/29/29
f 34/34/34 31/31/31 30/30/30
f 30/30/30 32/32/32 34/34/34
f 35/35/35 31/31/31 34/34/34
f 36/36/36 32/32/32 33/33/33
f 32/32/32 36/36/36 34/34/34
f 37/37/37 36/36/36 33/33/33
f 38/38/38 35/35/35 34/34/34
f 34/34/34 36/36/36 38/38/38
f 39/39/39 35/35/35 38/38/38
f 40/40/40 39/39/39 38/38/38
f 41/41/41 36/36/36 37/37/37
f 36/36/36 41/41/41 38/38/38
f 38/38/38 41/41/41 40/40/40
f 42/42/42 41/41/41 37/37/37
f 41/41/41 43/43/43 40/40/40
f 43/43/43 41/41/41 42/42/42
f 44/44/44 43/43/43 42/42/42
f 47/47/47 46/46/46 45/45/45
f 48/48/48 47/47/47 45/45/45
f 49/49/49 47/47/47 48/48/48
f 50/50/50 49/49/49 48/48/48
f 51/51/51 49/49/49 50/50/50
f 52/52/52 51/51/51 50/50/50
f 53/53/53 51/51/51 52/52/52
f 54/54/54 53/53/53 52/52/52
f 55/55/55 53/53/53 54/54/54
f 56/56/56 55/55/55 54/54/54
f 57/57/57 55/55/55 56/56/56
f 58/58/58 57/57/57 56/56/56
f 59/59/59 57/57/57 58/58/58
f 60/60/60 59/59/59 58/58/58
f 61/61/61 59/59/59 60/60/60
f 62/62/62 61/61/61 60/60/60
f 63/63/63 61/61/61 62/62/62
f 64/64/64 63/63/63 62/62/62
f 65/65/65 63/63/63 64/64/64
f 66/66/66 65/65/65 64/64/64
f 69/69/69 68/68/68 67/67/67
f 70/70/70 69/69/69 67/67/67
f 71/71/71 69/69/69 70/70/70
f 72/72/72 71/71/71 70/70/70
f 73/73/73 71/71/71 72/72/72
f 74/74/74 73/73/73 72/72/72
f 75/75/75 73/73/73 74/74/74
f 76/76/76 75/75/75 74/74/74
f 77/77/77 75/75/75 76/76/76
f 78/78/78 77/77/77 76/76/76
f 76/76/76 79/79/79 78/78/78
f 79/79/79 80/80/80 78/78/78
f 74/74/74 81/81/81 76/76/76
f 81/81/81 79/79/79 76/76/76
f 72/72/72 82/82/82 74/74/74
f 82/82/82 81/81/81 74/74/74
f 70/70/70 83/83/83 72/72/72
f 83/83/83 82/82/82 72/72/72
f 79/79/79 84/84/84 80/80/80
f 84/84/84 85/85/85 80/80/80
f 81/81/81 86/86/86 79/79/79
f 86/86/86 84/84/84 79/79/79
f 82/82/82 87/87/87 81/81/81
f 87/87/87 86/86/86 81/81/81
f 85/85/85 84/84/84 88/88/88
f 89/89/89 85/85/85 88/88/88
f 84/84/84 86/86/86 90/90/90
f 88/88/88 84/84/84 90/90/90
f 89/89/89 88/88/88 91/91/91
f 92/92/92 89/89/89 91/91/91
f 93/93/93 83/83/83 70/70/70
f 67/67/67 93/93/93 70/70/70
f 83/83/83 94/94/94 82/82/82
f 94/94/94 87/87/87 82/82/82
f 86/86/86 87/87/87 95/95/95
f 90/90/90 86/86/86 95/95/95
f 88/88/88 90/90/90 96/96/96
f 91/91/91 88/88/88 96/96/96
f 92/92/92 91/91/91 97/97/97
f 98/98/98 92/92/92 97/97/97
f 97/97/97 99/99/99 98/98/98
f 99/99/99 100/100/100 98/98/98
f 101/101/101 99/99/99 97/97/97
f 97/97/97 91/91/91 102/102/102
f 102/102/102 101/101/101 97/97/97
f 91/91/91 96/96/96 102/102/102
f 103/103/103 101/101/101 102/102/102
f 104/104/104 103/103/103 102/102/102
f 102/102/102 96/96/96 104/104/104
f 105/105/105 103/103/103 104/104/104
f 96/96/96 90/90/90 106/106/106
f 96/96/96 106/106/106 104/104/104
f 90/90/90 95/95/95 106/106/106
f 107/107/107 105/105/105 104/104/104
f 104/104/104 106/106/106 107/107/107
f 108/108/108 105/105/105 107/107/107
f 106/106/106 95/95/95 109/109/109
f 106/106/106 109/109/109 107/107/107
f 110/110/110 108/108/108 107/107/107
f 107/107/107 109/109/109 110/110/110
f 111/111/111 108/108/108 110/110/110
f 95/95/95 112/112/112 109/109/109
f 95/95/95 87/87/87 112/112/112
f 87/87/87 94/94/94 112/112/112
f 113/113/113 111/111/111 110/110/110
f 114/114/114 111/111/111 113/113/113
f 109/109/109 115/115/115 110/110/110
f 109/109/109 112/112/112 115/115/115
f 110/110/110 115/115/115 113/113/113
f 112/112/112 94/94/94 116/116/116
f 112/112/112 116/116/116 115/115/115
f 117/117/117 114/114/114 113/113/113
f 118/118/118 114/114/114 117/117/117
f 115/115/115 119/119/119 113/113/113
f 115/115/115 116/116/116 119/119/119
f 113/113/113 119/119/119 117/117/117
f 94/94/94 120/120/120 116/116/116
f 120/120/120 94/94/94 83/83/83
f 93/93/93 120/120/120 83/83/83
f 121/121/121 118/118/118 117/117/117
f 122/122/122 118/118/118 121/121/121
f 116/116/116 123/123/123 119/119/119
f 116/116/116 120/120/120 123/123/123
f 119/119/119 124/124/124 117/117/117
f 117/117/117 124/124/124 121/121/121
f 119/119/119 123/123/123 124/124/124
f 125/125/125 120/120/120 93/93/93
f 120/120/120 125/125/125 123/123/123
f 126/126/126 122/122/122 121/121/121
f 127/127/127 122/122/122 126/126/126
f 128/128/128 127/127/127 126/126/126
f 123/123/123 129/129/129 124/124/124
f 123/123/123 125/125/125 129/129/129
f 124/124/124 130/130/130 121/121/121
f 121/121/121 130/130/130 126/126/126
f 124/124/124 129/129/129 130/130/130
f 126/126/126 131/131/131 128/128/128
f 130/130/130 131/131/131 126/126/126
f 131/131/131 132/132/132 128/128/128
f 133/133/133 125/125/125 93/93/93
f 133/133/133 93/93/93 67/67/67
f 125/125/125 134/134/134 129/129/129
f 134/134/134 125/125/125 133/133/133
f 129/129/129 135/135/135 130/130/130
f 130/130/130 135/135/135 131/131/131
f 129/129/129 134/134/134 135/135/135
f 131/131/131 136/136/136 132/132/132
f 135/135/135 136/136/136 131/131/131
f 136/136/136 137/137/137 132/132/132
f 138/138/138 133/133/133 67/67/67
f 67/67/67 139/139/139 138/138/138
f 139/139/139 140/140/140 138/138/138
f 141/141/141 134/134/134 133/133/133
f 141/141/141 133/133/133 138/138/138
f 134/134/134 142/142/142 135/135/135
f 135/135/135 142/142/142 136/136/136
f 142/142/142 134/134/134 141/141/141
f 136/136/136 143/143/143 137/137/137
f 142/142/142 143/143/143 136/136/136
f 143/143/143 144/144/144 137/137/137
f 138/138/138 140/140/140 145/145/145
f 145/145/145 141/141/141 138/138/138
f 140/140/140 146/146/146 145/145/145
f 147/147/147 142/142/142 141/141/141
f 143/143/143 142/142/142 147/147/147
f 147/147/147 141/141/141 145/145/145
f 144/144/144 143/143/143 148/148/148
f 148/148/148 143/143/143 147/147/147
f 149/149/149 144/144/144 148/148/148
f 145/145/145 146/146/146 150/150/150
f 150/150/150 147/147/147 145/145/145
f 148/148/148 147/147/147 150/150/150
f 146/146/146 151/151/151 150/150/150
f 149/149/149 148/148/148 152/152/152
f 152/152/152 148/148/148 150/150/150
f 150/150/150 151/151/151 152/152/152
f 153/153/153 149/149/149 152/152/152
f 151/151/151 154/154/154 152/152/152
f 152/152/152 154/154/154 153/153/153
f 154/154/154 155/155/155 153/153/153
f 158/158/158 157/157/157 156/156/156
f 157/157/157 159/159/159 156/156/156
f 156/156/156 159/159/159 160/160/160
f 157/157/157 161/161/161 159/159/159
f 159/159/159 162/162/162 160/160/160
f 160/160/160 162/162/162 163/163/163
f 161/161/161 164/164/164 159/159/159
f 159/159/159 164/164/164 162/162/162
f 161/161/161 165/165/165 164/164/164
f 162/162/162 166/166/166 163/163/163
f 163/163/163 166/166/166 167/167/167
f 164/164/164 168/168/168 162/162/162
f 162/162/162 168/168/168 166/166/166
f 165/165/165 169/169/169 164/164/164
f 164/164/164 169/169/169 168/168/168
f 165/165/165 170/170/170 169/169/169
f 169/169/169 170/170/170 171/171/171
f 169/169/169 171/171/171 168/168/168
f 171/171/171 170/170/170 172/172/172
f 168/168/168 171/171/171 173/173/173
f 168/168/168 173/173/173 166/166/166
f 171/171/171 172/172/172 173/173/173
f 166/166/166 174/174/174 167/167/167
f 166/166/166 173/173/173 174/174/174
f 167/167/167 174/174/174 175/175/175
f 173/173/173 172/172/172 176/176/176
f 173/173/173 176/176/176 174/174/174
f 174/174/174 177/177/177 175/175/175
f 174/174/174 176/176/176 177/177/177
f 175/175/175 177/177/177 178/178/178
f 172/172/172 179/179/179 176/176/176
f 172/172/172 170/170/170 179/179/179
f 177/177/177 180/180/180 178/178/178
f 178/178/178 180/180/180 181/181/181
f 176/176/176 182/182/182 177/177/177
f 176/176/176 179/179/179 182/182/182
f 177/177/177 182/182/182 180/180/180
f 180/180/180 183/183/183 181/181/181
f 181/181/181 183/183/183 184/184/184
f 179/179/179 185/185/185 182/182/182
f 179/179/179 170/170/170 185/185/185
f 182/182/182 186/186/186 180/180/180
f 182/182/182 185/185/185 186/186/186
f 180/180/180 186/186/186 183/183/183
f 183/183/183 187/187/187 184/184/184
f 184/184/184 187/187/187 188/188/188
f 185/185/185 189/189/189 186/186/186
f 185/185/185 170/170/170 189/189/189
f 186/186/186 190/190/190 183/183/183
f 186/186/186 189/189/189 190/190/190
f 183/183/183 190/190/190 187/187/187
f 187/187/187 191/191/191 188/188/188
f 188/188/188 191/191/191 192/192/192
f 191/191/191 193/193/193 192/192/192
f 189/189/189 194/194/194 190/190/190
f 189/189/189 170/170/170 194/194/194
f 190/190/190 195/195/195 187/187/187
f 187/187/187 195/195/195 191/191/191
f 190/190/190 194/194/194 195/195/195
f 191/191/191 196/196/196 193/193/193
f 195/195/195 196/196/196 191/191/191
f 196/196/196 197/197/197 193/193/193
f 194/194/194 198/198/198 195/195/195
f 194/194/194 170/170/170 198/198/198
f 195/195/195 198/198/198 196/196/196
f 196/196/196 199/199/199 197/197/197
f 198/198/198 199/199/199 196/196/196
f 199/199/199 198/198/198 170/170/170
f 199/199/199 200/200/200 197/197/197
f 199/199/199 170/170/170 200/200/200
f 203/203/203 202/202/202 201/201/201
f 204/204/204 203/203/203 201/201/201
f 204/204/204 201/201/201 205/205/205
f 205/205/205 201/201/201 206/206/206
f 201/201/201 207/207/207 206/206/206
f 201/201/201 208/208/208 207/207/207
f 208/208/208 209/209/209 207/207/207
f 207/207/207 209/209/209 210/210/210
f 209/209/209 211/211/211 210/210/210
f 206/206/206 207/207/207 212/212/212
f 207/207/207 210/210/210 212/212/212
f 210/210/210 211/211/211 213/213/213
f 211/211/211 214/214/214 213/213/213
f 212/212/212 210/210/210 215/215/215
f 210/210/210 213/213/213 215/215/215
f 213/213/213 214/214/214 216/216/216
f 214/214/214 217/217/217 216/216/216
f 215/215/215 213/213/213 218/218/218
f 213/213/213 216/216/216 218/218/218
f 206/206/206 212/212/212 219/219/219
f 212/212/212 215/215/215 220/220/220
f 219/219/219 212/212/212 220/220/220
f 215/215/215 218/218/218 221/221/221
f 220/220/220 215/215/215 221/221/221
f 222/222/222 206/206/206 219/219/219
f 205/205/205 206/206/206 222/222/222
f 218/218/218 216/216/216 223/223/223
f 221/221/221 218/218/218 224/224/224
f 218/218/218 223/223/223 224/224/224
f 216/216/216 225/225/225 223/223/223
f 216/216/216 226/226/226 225/225/225
f 226/226/226 227/227/227 225/225/225
f 223/223/223 225/225/225 228/228/228
f 223/223/223 228/228/228 229/229/229
f 224/224/224 223/223/223 229/229/229
f 225/225/225 230/230/230 228/228/228
f 225/225/225 231/231/231 230/230/230
f 231/231/231 232/232/232 230/230/230
f 224/224/224 229/229/229 233/233/233
f 234/234/234 224/224/224 233/233/233
f 221/221/221 224/224/224 234/234/234
f 233/233/233 235/235/235 234/234/234
f 236/236/236 221/221/221 234/234/234
f 220/220/220 221/221/221 236/236/236
f 235/235/235 237/237/237 234/234/234
f 234/234/234 237/237/237 236/236/236
f 235/235/235 238/238/238 237/237/237
f 239/239/239 220/220/220 236/236/236
f 219/219/219 220/220/220 239/239/239
f 237/237/237 240/240/240 236/236/236
f 236/236/236 240/240/240 239/239/239
f 238/238/238 241/241/241 237/237/237
f 237/237/237 241/241/241 240/240/240
f 238/238/238 242/242/242 241/241/241
f 242/242/242 243/243/243 241/241/241
f 241/241/241 243/243/243 244/244/244
f 241/241/241 244/244/244 240/240/240
f 243/243/243 245/245/245 244/244/244
f 246/246/246 219/219/219 239/239/239
f 222/222/222 219/219/219 246/246/246
f 240/240/240 247/247/247 239/239/239
f 240/240/240 244/244/244 247/247/247
f 239/239/239 247/247/247 246/246/246
f 244/244/244 245/245/245 248/248/248
f 244/244/244 248/248/248 247/247/247
f 245/245/245 249/249/249 248/248/248
f 247/247/247 250/250/250 246/246/246
f 247/247/247 248/248/248 250/250/250
f 248/248/248 249/249/249 251/251/251
f 248/248/248 251/251/251 250/250/250
f 249/249/249 252/252/252 251/251/251
f 253/253/253 222/222/222 246/246/246
f 246/246/246 250/250/250 253/253/253
f 251/251/251 252/252/252 254/254/254
f 252/252/252 255/255/255 254/254/254
f 250/250/250 251/251/251 256/256/256
f 250/250/250 256/256/256 253/253/253
f 251/251/251 254/254/254 256/256/256
f 257/257/257 222/222/222 253/253/253
f 257/257/257 205/205/205 222/222/222
f 254/254/254 255/255/255 258/258/258
f 255/255/255 259/259/259 258/258/258
f 253/253/253 256/256/256 260/260/260
f 260/260/260 257/257/257 253/253/253
f 256/256/256 254/254/254 261/261/261
f 254/254/254 258/258/258 261/261/261
f 256/256/256 261/261/261 260/260/260
f 262/262/262 205/205/205 257/257/257
f 262/262/262 204/204/204 205/205/205
f 258/258/258 259/259/259 263/263/263
f 259/259/259 264/264/264 263/263/263
f 265/265/265 257/257/257 260/260/260
f 265/265/265 262/262/262 257/257/257
f 260/260/260 261/261/261 266/266/266
f 266/266/266 265/265/265 260/260/260
f 261/261/261 258/258/258 267/267/267
f 258/258/258 263/263/263 267/267/267
f 261/261/261 267/267/267 266/266/266
f 263/263/263 264/264/264 268/268/268
f 264/264/264 269/269/269 268/268/268
f 270/270/270 267/267/267 263/263/263
f 268/268/268 270/270/270 263/263/263
f 271/271/271 266/266/266 267/267/267
f 270/270/270 271/271/271 267/267/267
f 272/272/272 265/265/265 266/266/266
f 271/271/271 272/272/272 266/266/266
f 273/273/273 262/262/262 265/265/265
f 272/272/272 273/273/273 265/265/265
f 268/268/268 269/269/269 274/274/274
f 269/269/269 275/275/275 274/274/274
f 271/271/271 270/270/270 276/276/276
f 271/271/271 276/276/276 272/272/272
f 270/270/270 268/268/268 277/277/277
f 268/268/268 274/274/274 277/277/277
f 270/270/270 277/277/277 276/276/276
f 274/274/274 275/275/275 278/278/278
f 275/275/275 279/279/279 278/278/278
f 274/274/274 278/278/278 280/280/280
f 277/277/277 274/274/274 280/280/280
f 277/277/277 280/280/280 281/281/281
f 276/276/276 277/277/277 281/281/281
f 276/276/276 281/281/281 282/282/282
f 276/276/276 282/282/282 272/272/272
f 281/281/281 283/283/283 282/282/282
f 283/283/283 284/284/284 282/282/282
f 282/282/282 285/285/285 272/272/272
f 284/284/284 285/285/285 282/282/282
f 284/284/284 286/286/286 285/285/285
f 285/285/285 273/273/273 272/272/272
f 286/286/286 287/287/287 285/285/285
f 285/285/285 287/287/287 273/273/273
f 286/286/286 288/288/288 287/287/287
f 288/288/288 289/289/289 287/287/287
f 287/287/287 290/290/290 273/273/273
f 273/273/273 290/290/290 262/262/262
f 287/287/287 291/291/291 290/290/290
f 291/291/291 292/292/292 290/290/290
f 290/290/290 204/204/204 262/262/262
f 290/290/290 293/293/293 204/204/204
f 293/293/293 294/294/294 204/204/204
f 297/297/297 296/296/296 295/295/295
f 298/298/298 297/297/297 295/295/295
f 299/299/299 297/297/297 298/298/298
f 300/300/300 299/299/299 298/298/298
f 301/301/301 299/299/299 300/300/300
f 302/302/302 301/301/301 300/300/300
f 303/303/303 301/301/301 302/302/302
f 304/304/304 303/303/303 302/302/302
f 305/305/305 303/303/303 304/304/304
f 306/306/306 305/305/305 304/304/304
f 307/307/307 305/305/305 306/306/306
f 308/308/308 307/307/307 306/306/306
f 309/309/309 307/307/307 308/308/308
f 310/310/310 309/309/309 308/308/308
f 311/311/311 309/309/309 310/310/310
f 312/312/312 311/311/311 310/310/310
f 313/313/313 311/311/311 312/312/312
f 314/314/314 313/313/313 312/312/312
f 315/315/315 313/313/313 314/314/314
f 316/316/316 315/315/315 314/314/314
f 319/319/319 318/318/318 317/317/317
f 318/318/318 320/320/320 317/317/317
f 317/317/317 320/320/320 321/321/321
f 320/320/320 322/322/322 321/321/321
f 321/321/321 322/322/322 323/323/323
f 322/322/322 324/324/324 323/323/323
f 323/323/323 324/324/324 325/325/325
f 324/324/324 326/326/326 325/325/325
