g liudanpao
v 3.73840317E-06 0.0627856404 -0.11570406
v -0.00306999194 0.0587963872 -0.0949966982
v 0.00307014468 0.0587963872 -0.0949966982
v -0.00306999194 0.0587963872 -0.0949966982
v 3.73840317E-06 0.0628833026 -0.0143836038
v 0.00307014468 0.0587963872 -0.0949966982
v 3.73840317E-06 0.0453833006 -0.11570406
v 0.00307014468 0.0493725576 -0.0949966982
v -0.00306999194 0.0493725576 -0.0949966982
v -0.00306999194 0.0493725576 -0.0949966982
v 0.00307014468 0.0493725576 -0.0949966982
v 3.73840317E-06 0.0452856421 -0.0143836038
v 0.00870174356 0.0540795885 -0.11570406
v 0.00471107475 0.0571533181 -0.0949966982
v 0.00471107475 0.0510131828 -0.0949966982
v 0.00471107475 0.0571533181 -0.0949966982
v 0.00879951473 0.0540795885 -0.0143836038
v 0.00471107475 0.0510131828 -0.0949966982
v -0.00870170537 0.0540795885 -0.11570406
v -0.00471103657 0.0510131828 -0.0949966982
v -0.00471103657 0.0571533181 -0.0949966982
v -0.00471103657 0.0571533181 -0.0949966982
v -0.00471103657 0.0510131828 -0.0949966982
v -0.00879947655 0.0540795885 -0.0143836038
v 0.00307014468 0.0587963872 -0.0949966982
v 3.73840317E-06 0.0628833026 -0.0143836038
v 3.73840317E-06 0.0864111334 -0.044246655
v 3.73840317E-06 0.100131832 -0.0654041469
v 3.73840317E-06 0.111433104 -0.0883500054
v 3.73840317E-06 0.113037109 -0.116577469
v 3.73840317E-06 0.102241211 -0.12882936
v 3.73840317E-06 0.0862475559 -0.129775628
v 3.73840317E-06 0.0627856404 -0.11570406
v 3.73840317E-06 0.0864111334 -0.044246655
v 3.73840317E-06 0.0628833026 -0.0143836038
v -0.00306999194 0.0587963872 -0.0949966982
v 3.73840317E-06 0.100131832 -0.0654041469
v 3.73840317E-06 0.111433104 -0.0883500054
v 3.73840317E-06 0.113037109 -0.116577469
v 3.73840317E-06 0.102241211 -0.12882936
v 3.73840317E-06 0.0862475559 -0.129775628
v 3.73840317E-06 0.0627856404 -0.11570406
v 0.00307014468 0.0493725576 -0.0949966982
v 3.73840317E-06 0.0217578113 -0.044246655
v 3.73840317E-06 0.0452856421 -0.0143836038
v 3.73840317E-06 0.00803710893 -0.0654041469
v 3.73840317E-06 -0.00326416013 -0.0883500054
v 3.73840317E-06 -0.00486816373 -0.116577469
v 3.73840317E-06 0.00592773408 -0.12882936
v 3.73840317E-06 0.0219213869 -0.129775628
v 3.73840317E-06 0.0453833006 -0.11570406
v 3.73840317E-06 0.0217578113 -0.044246655
v -0.00306999194 0.0493725576 -0.0949966982
v 3.73840317E-06 0.0452856421 -0.0143836038
v 3.73840317E-06 0.00803710893 -0.0654041469
v 3.73840317E-06 -0.00326416013 -0.0883500054
v 3.73840317E-06 -0.00486816373 -0.116577469
v 3.73840317E-06 0.00592773408 -0.12882936
v 3.73840317E-06 0.0219213869 -0.129775628
v 3.73840317E-06 0.0453833006 -0.11570406
v 0.00471107475 0.0510131828 -0.0949966982
v 0.00879951473 0.0540795885 -0.0143836038
v 0.0323258191 0.0540795885 -0.044246655
v 0.0460475534 0.0540795885 -0.0654041469
v 0.0573491268 0.0540795885 -0.0883500054
v 0.0589528643 0.0540795885 -0.116577469
v 0.0481562428 0.0540795885 -0.12882936
v 0.0321632363 0.0540795885 -0.129775628
v 0.00870174356 0.0540795885 -0.11570406
v 0.0323258191 0.0540795885 -0.044246655
v 0.00879951473 0.0540795885 -0.0143836038
v 0.00471107475 0.0571533181 -0.0949966982
v 0.0460475534 0.0540795885 -0.0654041469
v 0.0573491268 0.0540795885 -0.0883500054
v 0.0589528643 0.0540795885 -0.116577469
v 0.0481562428 0.0540795885 -0.12882936
v 0.0321632363 0.0540795885 -0.129775628
v 0.00870174356 0.0540795885 -0.11570406
v -0.00471103657 0.0510131828 -0.0949966982
v -0.0323258191 0.0540795885 -0.044246655
v -0.00879947655 0.0540795885 -0.0143836038
v -0.0460475907 0.0540795885 -0.0654041469
v -0.057349164 0.0540795885 -0.0883500054
v -0.0589528643 0.0540795885 -0.116577469
v -0.0481562018 0.0540795885 -0.12882936
v -0.0321632363 0.0540795885 -0.129775628
v -0.00870170537 0.0540795885 -0.11570406
v -0.0323258191 0.0540795885 -0.044246655
v -0.00471103657 0.0571533181 -0.0949966982
v -0.00879947655 0.0540795885 -0.0143836038
v -0.0460475907 0.0540795885 -0.0654041469
v -0.057349164 0.0540795885 -0.0883500054
v -0.0589528643 0.0540795885 -0.116577469
v -0.0481562018 0.0540795885 -0.12882936
v -0.0321632363 0.0540795885 -0.129775628
v -0.00870170537 0.0540795885 -0.11570406
v 0.0220153034 0.00450195326 0.0927053988
v 0.00438804599 0.0184716787 0.118708588
v 0.0453661345 0.0247363281 0.0927053988
v 0.0313404836 0.0447216779 0.119486406
v -0.00167232507 0.0554199219 0.129775628
v 0.0540708899 0.0543823242 0.0927053988
v 0.0447728708 0.0251586903 0.0612179749
v 0.0533538051 0.0543823242 0.0612179749
v 0.0447728708 0.0836059526 0.0612179749
v 0.0229840465 0.0818017572 0.118708588
v 0.0453661345 0.0840283185 0.0927053988
v 0.0217543785 0.103552245 0.0612179749
v 0.0220153034 0.104262695 0.0927053988
v -0.00839347858 0.107888184 0.0612179749
v -0.00615680683 0.0918115228 0.118708588
v -0.0312975682 0.0739990249 0.118708588
v -0.0366732031 0.0958227515 0.0927053988
v -0.00856777187 0.108659662 0.0927053988
v -0.0360989757 0.0952368155 0.0612179749
v -0.0525656864 0.0696118176 0.0612179749
v -0.0360989757 0.0952368155 0.0612179749
v -0.0366732031 0.0958227515 0.0927053988
v -0.0533776097 0.0698315427 0.0927053988
v -0.0312975682 0.0739990249 0.118708588
v -0.0525656864 0.0391528308 0.0612179749
v -0.0533776097 0.0389355458 0.0927053988
v -0.0312975682 0.0347680673 0.118708588
v -0.00167232507 0.0554199219 0.129775628
v 0.00438804599 0.0184716787 0.118708588
v -0.0366732031 0.0129418941 0.0927053988
v -0.0360989757 0.0135327149 0.0612179749
v -0.00856777187 0.000104980463 0.0927053988
v -0.00839347858 0.000878906227 0.0612179749
v 0.0220153034 0.00450195326 0.0927053988
v 0.0217543785 0.00521484343 0.0612179749
v 0.0453661345 0.0247363281 0.0927053988
v 0.0447728708 0.0251586903 0.0612179749
v -0.00293132779 0.0746313483 -0.068086639
v -0.00163467403 0.0667333975 -0.0721681416
v 0.008477211 0.0729882792 -0.068086639
v 0.00798217766 0.0634301752 -0.0721681416
v 0.0171877667 0.0654394552 -0.068086639
v 0.0126202004 0.0543823242 -0.0721681416
v 0.0204349514 0.0543823242 -0.068086639
v -0.00293132779 0.0746313483 -0.068086639
v -0.0134155266 0.0698437467 -0.068086639
v -0.00163467403 0.0667333975 -0.0721681416
v -0.00993125886 0.0608544908 -0.0721681416
v -0.019646911 0.0601440407 -0.068086639
v -0.00993125886 0.0479101539 -0.0721681416
v -0.019646911 0.048620604 -0.068086639
v -0.0134155266 0.0389233381 -0.068086639
v -0.00163467403 0.0420312509 -0.0721681416
v -0.00293132779 0.0341357403 -0.068086639
v 0.00847705826 0.0357788093 -0.068086639
v 0.00798217766 0.0453369133 -0.0721681416
v 0.0171877667 0.0433251932 -0.068086639
v 0.0126202004 0.0543823242 -0.0721681416
v 0.0204349514 0.0543823242 -0.068086639
v -0.00993125886 0.0608544908 -0.0721681416
v -0.00309303286 0.061274413 -0.108297862
v -0.00163467403 0.0667333975 -0.0721681416
v 0.0035147476 0.061567381 -0.108297862
v 0.00798217766 0.0634301752 -0.0721681416
v 0.0075044632 0.0565161109 -0.108297862
v 0.0126202004 0.0543823242 -0.0721681416
v 0.00687763188 0.0501123033 -0.108297862
v 0.00798217766 0.0453369133 -0.0721681416
v -0.00993125886 0.0608544908 -0.0721681416
v -0.0073431395 0.0557128899 -0.108297862
v -0.00309303286 0.061274413 -0.108297862
v -0.00993125886 0.0479101539 -0.0721681416
v -0.00521049509 0.0487792976 -0.108297862
v -0.00163467403 0.0420312509 -0.0721681416
v 0.00131248473 0.0468823239 -0.108297862
v 0.00798217766 0.0453369133 -0.0721681416
v 0.00687763188 0.0501123033 -0.108297862
v -0.0326813497 0.0914086923 0.0334608629
v -0.0134155266 0.0698437467 -0.068086639
v -0.00757057173 0.102875978 0.0334608629
v -0.00293132779 0.0746313483 -0.068086639
v 0.0197539143 0.0989477485 0.0334608629
v 0.008477211 0.0729882792 -0.068086639
v 0.0406167582 0.080871582 0.0334608629
v 0.0171877667 0.0654394552 -0.068086639
v 0.048394125 0.0543823242 0.0334608629
v 0.0204349514 0.0543823242 -0.068086639
v 0.0171877667 0.0433251932 -0.068086639
v 0.0406167582 0.0278979484 0.0334608629
v -0.019646911 0.0601440407 -0.068086639
v -0.0134155266 0.0698437467 -0.068086639
v -0.0326813497 0.0914086923 0.0334608629
v -0.0476059727 0.0681860372 0.0334608629
v -0.019646911 0.048620604 -0.068086639
v -0.0476059727 0.0405786112 0.0334608629
v -0.0326813497 0.0173583981 0.0334608629
v -0.0134155266 0.0389233381 -0.068086639
v -0.00757057173 0.00588867161 0.0334608629
v -0.00293132779 0.0341357403 -0.068086639
v 0.0197539143 0.0098193353 0.0334608629
v 0.00847705826 0.0357788093 -0.068086639
v 0.0406167582 0.0278979484 0.0334608629
v 0.0171877667 0.0433251932 -0.068086639
v -0.00839347858 0.107888184 0.0612179749
v -0.00757057173 0.102875978 0.0334608629
v 0.0217543785 0.103552245 0.0612179749
v 0.0197539143 0.0989477485 0.0334608629
v 0.0447728708 0.0836059526 0.0612179749
v 0.0406167582 0.080871582 0.0334608629
v 0.0533538051 0.0543823242 0.0612179749
v 0.048394125 0.0543823242 0.0334608629
v 0.0406167582 0.0278979484 0.0334608629
v 0.0447728708 0.0251586903 0.0612179749
v 0.0197539143 0.0098193353 0.0334608629
v 0.0217543785 0.00521484343 0.0612179749
v -0.0326813497 0.0914086923 0.0334608629
v -0.00757057173 0.102875978 0.0334608629
v -0.00839347858 0.107888184 0.0612179749
v -0.0360989757 0.0952368155 0.0612179749
v -0.0476059727 0.0681860372 0.0334608629
v -0.0525656864 0.0696118176 0.0612179749
v -0.0476059727 0.0405786112 0.0334608629
v -0.0525656864 0.0391528308 0.0612179749
v -0.0360989757 0.0135327149 0.0612179749
v -0.0326813497 0.0173583981 0.0334608629
v -0.00839347858 0.000878906227 0.0612179749
v -0.00757057173 0.00588867161 0.0334608629
v 0.0217543785 0.00521484343 0.0612179749
v 0.0197539143 0.0098193353 0.0334608629
v 0.0035147476 0.061567381 -0.108297862
v 0.000298500061 0.0543823242 -0.108307324
v 0.0075044632 0.0565161109 -0.108297862
v -0.00309303286 0.061274413 -0.108297862
v 0.00687763188 0.0501123033 -0.108297862
v -0.0073431395 0.0557128899 -0.108297862
v 0.00131248473 0.0468823239 -0.108297862
v -0.00521049509 0.0487792976 -0.108297862
vt 0.80819416 0.443237752
vt 0.801422238 0.440471113
vt 0.801422238 0.440471113
vt 0.801422238 0.440471113
vt 0.786571264 0.440471113
vt 0.801422238 0.440471113
vt 0.80819416 0.443237752
vt 0.801422238 0.440471113
vt 0.801422238 0.440471113
vt 0.801422238 0.440471113
vt 0.801422238 0.440471113
vt 0.786571264 0.440471113
vt 0.80819416 0.443237752
vt 0.801422238 0.440471113
vt 0.801422238 0.440471113
vt 0.801422238 0.440471113
vt 0.786571264 0.440471113
vt 0.801422238 0.440471113
vt 0.80819416 0.443237752
vt 0.801422238 0.440471113
vt 0.801422238 0.440471113
vt 0.801422238 0.440471113
vt 0.801422238 0.440471113
vt 0.786571264 0.440471113
vt 0.801422238 0.440471113
vt 0.786571264 0.440471113
vt 0.793343186 0.443237752
vt 0.795193434 0.443237752
vt 0.797357142 0.443237752
vt 0.802630007 0.443237752
vt 0.804306388 0.443237722
vt 0.805714667 0.443237752
vt 0.80819416 0.443237752
vt 0.793343186 0.443237752
vt 0.786571264 0.440471113
vt 0.801422238 0.440471113
vt 0.795193434 0.443237752
vt 0.797357142 0.443237752
vt 0.802630007 0.443237752
vt 0.804306388 0.443237722
vt 0.805714667 0.443237752
vt 0.80819416 0.443237752
vt 0.801422238 0.440471113
vt 0.793343186 0.443237752
vt 0.786571264 0.440471113
vt 0.795193434 0.443237752
vt 0.797357142 0.443237752
vt 0.802630007 0.443237752
vt 0.804306388 0.443237722
vt 0.805714667 0.443237752
vt 0.80819416 0.443237752
vt 0.793343186 0.443237752
vt 0.801422238 0.440471113
vt 0.786571264 0.440471113
vt 0.795193434 0.443237752
vt 0.797357142 0.443237752
vt 0.802630007 0.443237752
vt 0.804306388 0.443237722
vt 0.805714667 0.443237752
vt 0.80819416 0.443237752
vt 0.801422238 0.440471113
vt 0.786571264 0.440471113
vt 0.793343186 0.443237752
vt 0.795193434 0.443237752
vt 0.797357142 0.443237752
vt 0.802630007 0.443237752
vt 0.804306388 0.443237722
vt 0.805714667 0.443237752
vt 0.80819416 0.443237752
vt 0.793343186 0.443237752
vt 0.786571264 0.440471113
vt 0.801422238 0.440471113
vt 0.795193434 0.443237752
vt 0.797357142 0.443237752
vt 0.802630007 0.443237752
vt 0.804306388 0.443237722
vt 0.805714667 0.443237752
vt 0.80819416 0.443237752
vt 0.801422238 0.440471113
vt 0.793343186 0.443237752
vt 0.786571264 0.440471113
vt 0.795193434 0.443237752
vt 0.797357142 0.443237752
vt 0.802630007 0.443237752
vt 0.804306388 0.443237722
vt 0.805714667 0.443237752
vt 0.80819416 0.443237752
vt 0.793343186 0.443237752
vt 0.801422238 0.440471113
vt 0.786571264 0.440471113
vt 0.795193434 0.443237752
vt 0.797357142 0.443237752
vt 0.802630007 0.443237752
vt 0.804306388 0.443237722
vt 0.805714667 0.443237752
vt 0.80819416 0.443237752
vt 0.791280389 0.582947969
vt 0.793896556 0.606816113
vt 0.790582538 0.576491356
vt 0.793087959 0.59928149
vt 0.797319174 0.611824691
vt 0.79202801 0.570372343
vt 0.791010141 0.545627594
vt 0.792379737 0.53926897
vt 0.795412064 0.535524428
vt 0.797157466 0.595130801
vt 0.79524523 0.566730022
vt 0.799082577 0.535795927
vt 0.799143672 0.566938818
vt 0.802097201 0.53996104
vt 0.800706625 0.597590566
vt 0.801519156 0.603494167
vt 0.803784668 0.577104986
vt 0.8023417 0.570896864
vt 0.803463519 0.546458304
vt 0.802843094 0.553079963
vt 0.803463519 0.546458304
vt 0.803784668 0.577104986
vt 0.803121328 0.583444118
vt 0.801519156 0.603494167
vt 0.800539434 0.557832837
vt 0.800680697 0.588011324
vt 0.798397064 0.608972192
vt 0.797319174 0.611824691
vt 0.793896556 0.606816113
vt 0.797236919 0.589580238
vt 0.79728353 0.559428573
vt 0.793770075 0.587744474
vt 0.794007301 0.557450414
vt 0.791280389 0.582947969
vt 0.791660488 0.552387118
vt 0.790582538 0.576491356
vt 0.791010141 0.545627594
vt 0.798635602 0.447378039
vt 0.798140287 0.446197778
vt 0.797851443 0.445943594
vt 0.79737848 0.445284188
vt 0.79691422 0.445813388
vt 0.79661715 0.445986122
vt 0.796130061 0.447032154
vt 0.798635602 0.447378039
vt 0.799015403 0.449639887
vt 0.798140287 0.446197778
vt 0.798332214 0.448304474
vt 0.798876047 0.451997876
vt 0.797651887 0.450254023
vt 0.798269868 0.453712225
vt 0.797389269 0.45426017
vt 0.796842575 0.449938267
vt 0.796506643 0.45347631
vt 0.795895576 0.451595604
vt 0.796428144 0.448042393
vt 0.795752168 0.44919467
vt 0.79661715 0.445986122
vt 0.796130061 0.447032154
vt 0.798332214 0.448304474
vt 0.798630595 0.384213388
vt 0.798140287 0.446197778
vt 0.797869623 0.381868124
vt 0.79737848 0.445284188
vt 0.7968328 0.382277936
vt 0.79661715 0.445986122
vt 0.79622978 0.384779572
vt 0.796428144 0.448042393
vt 0.798332214 0.448304474
vt 0.798434615 0.388165742
vt 0.798630595 0.384213388
vt 0.797651887 0.450254023
vt 0.797507226 0.389428198
vt 0.796842575 0.449938267
vt 0.79657805 0.387831032
vt 0.796428144 0.448042393
vt 0.79622978 0.384779572
vt 0.802933812 0.524961054
vt 0.799015403 0.449639887
vt 0.801682293 0.518581927
vt 0.798635602 0.447378039
vt 0.798945904 0.514485657
vt 0.797851443 0.445943594
vt 0.79562211 0.514184952
vt 0.79691422 0.445813388
vt 0.792871356 0.517808199
vt 0.796130061 0.447032154
vt 0.795752168 0.44919467
vt 0.791617215 0.524017632
vt 0.798876047 0.451997876
vt 0.799015403 0.449639887
vt 0.802933812 0.524961054
vt 0.802380145 0.531469047
vt 0.798269868 0.453712225
vt 0.800285041 0.536136448
vt 0.797313988 0.537679195
vt 0.797389269 0.45426017
vt 0.794326127 0.535687566
vt 0.796506643 0.45347631
vt 0.792195559 0.530667365
vt 0.795895576 0.451595604
vt 0.791617215 0.524017632
vt 0.795752168 0.44919467
vt 0.801841021 0.289111376
vt 0.791861713 0.289961159
vt 0.802426219 0.291543543
vt 0.791891277 0.292133391
vt 0.802704334 0.295875341
vt 0.791896701 0.295930624
vt 0.802537262 0.300413013
vt 0.79187429 0.299900353
vt 0.791833758 0.302469194
vt 0.802007735 0.303309351
vt 0.791791439 0.302858144
vt 0.801349878 0.303697497
vt 0.791821122 0.289970458
vt 0.791861713 0.289961159
vt 0.801841021 0.289111376
vt 0.801192522 0.289173365
vt 0.791782856 0.291858733
vt 0.80068326 0.29132694
vt 0.791756988 0.294911414
vt 0.800425589 0.294748247
vt 0.800462425 0.298548132
vt 0.791748881 0.298314035
vt 0.800789297 0.301837564
vt 0.791760862 0.301240385
vt 0.801349878 0.303697497
vt 0.791791439 0.302858144
vt 0.797869623 0.381868124
vt 0.797502577 0.383018136
vt 0.7968328 0.382277936
vt 0.798630595 0.384213388
vt 0.79622978 0.384779572
vt 0.798434615 0.388165742
vt 0.79657805 0.387831032
vt 0.797507226 0.389428198
vn -0 -0.981931686 -0.189235568
vn -0 -0.981931686 -0.189235568
vn -0 -0.981931686 -0.189235568
vn -0 -0.998716474 0.0506501012
vn -0 -0.998716474 0.0506501012
vn -0 -0.998716474 0.0506501012
vn -0 0.981931686 -0.189235613
vn -0 0.981931686 -0.189235613
vn -0 0.981931686 -0.189235613
vn -0 0.998716474 0.0506501012
vn -0 0.998716474 0.0506501012
vn -0 0.998716474 0.0506501012
vn -0.981931686 0 -0.189235568
vn -0.981931686 0 -0.189235568
vn -0.981931686 0 -0.189235568
vn -0.998716474 0 0.0506501012
vn -0.998716474 0 0.0506501012
vn -0.998716474 0 0.0506501012
vn 0.981931686 0 -0.189235613
vn 0.981931686 0 -0.189235613
vn 0.981931686 0 -0.189235613
vn 0.998716474 0 0.0506501012
vn 0.998716474 0 0.0506501012
vn 0.998716474 0 0.0506501012
vn 0.999194443 0.0399518088 0.00378918438
vn 0.998611212 0.0383873731 0.0360836536
vn 0.99849236 0.0438208431 0.033056356
vn 0.998167038 0.0525144301 0.0300777797
vn 0.998352647 0.0548907556 0.0167028494
vn 0.998613477 0.0501365177 -0.0160468593
vn 0.99831295 0.0335720628 -0.0473714285
vn 0.997310638 0.0236422401 -0.0693729073
vn 0.981425285 -0.098675482 -0.164521977
vn -0.99849236 0.0438207276 0.0330560468
vn -0.998611212 0.0383872651 0.036083933
vn -0.999194443 0.0399517082 0.00378851034
vn -0.998158395 0.0526394136 0.0301493518
vn -0.998352528 0.0548802689 0.0167418607
vn -0.998613596 0.050121069 -0.0160856266
vn -0.998304963 0.0336518809 -0.0474843048
vn -0.997310638 0.0236421358 -0.0693739951
vn -0.981425047 -0.0986755565 -0.164523542
vn 0.999194443 -0.0399518088 0.00378918462
vn 0.99849236 -0.0438208431 0.0330563523
vn 0.998611212 -0.0383873694 0.0360836498
vn 0.998167038 -0.052514419 0.0300777704
vn 0.998352647 -0.054890763 0.0167028494
vn 0.998613477 -0.0501365177 -0.0160468612
vn 0.99831295 -0.0335720479 -0.0473714136
vn 0.997310638 -0.0236422457 -0.0693729073
vn 0.981425285 0.0986754671 -0.164521992
vn -0.99849236 -0.0438207276 0.0330560468
vn -0.999194443 -0.0399517119 0.00378851034
vn -0.998611212 -0.0383872651 0.0360839292
vn -0.998158395 -0.052639395 0.0301493499
vn -0.998352528 -0.0548802689 0.0167418588
vn -0.998613596 -0.050121069 -0.0160856247
vn -0.998304963 -0.0336518735 -0.047484275
vn -0.997310638 -0.0236421358 -0.06937401
vn -0.981425047 0.0986755714 -0.164523542
vn 0.0399518088 -0.999194443 0.00378918438
vn 0.0383873731 -0.998611212 0.0360836536
vn 0.0438208431 -0.99849236 0.033056356
vn 0.0525127202 -0.998167157 0.0300783776
vn 0.0548907556 -0.998352647 0.0167028494
vn 0.0501365177 -0.998613477 -0.0160468593
vn 0.0335716456 -0.99831295 -0.0473713651
vn 0.0236422401 -0.997310638 -0.0693729073
vn -0.098675482 -0.981425285 -0.164521977
vn 0.0438207276 0.99849236 0.0330560468
vn 0.0383872651 0.998611212 0.036083933
vn 0.0399517082 0.999194443 0.00378851034
vn 0.0526376702 0.998158395 0.0301498976
vn 0.0548802689 0.998352528 0.0167418607
vn 0.050121069 0.998613596 -0.0160856266
vn 0.0336514823 0.998304963 -0.0474842116
vn 0.0236421358 0.997310638 -0.0693739951
vn -0.0986755565 0.981425047 -0.164523542
vn -0.0399518088 -0.999194443 0.00378918462
vn -0.0438208431 -0.99849236 0.0330563523
vn -0.0383873694 -0.998611212 0.0360836498
vn -0.0525126196 -0.998167157 0.0300783962
vn -0.054890763 -0.998352647 0.0167028494
vn -0.0501365177 -0.998613477 -0.0160468612
vn -0.033571627 -0.99831295 -0.0473716706
vn -0.0236422457 -0.997310638 -0.0693729073
vn 0.0986754671 -0.981425285 -0.164521992
vn -0.0438207276 0.99849236 0.0330560468
vn -0.0399517119 0.999194443 0.00378851034
vn -0.0383872651 0.998611212 0.0360839292
vn -0.0526375771 0.998158395 0.0301499255
vn -0.0548802689 0.998352528 0.0167418588
vn -0.050121069 0.998613596 -0.0160856247
vn -0.0336514711 0.998304963 -0.0474844426
vn -0.0236421358 0.997310638 -0.06937401
vn 0.0986755714 0.981425047 -0.164523542
vn 0.41810286 -0.854426384 0.308456719
vn 0.075212881 -0.580764592 0.810589612
vn 0.778514206 -0.525742769 0.342797637
vn 0.551642716 -0.164587349 0.817680418
vn -0.00822124165 -0.0171281267 0.999819577
vn 0.93809253 0.0221872553 0.345673621
vn 0.839528084 -0.535226405 -0.0934091806
vn 0.995740891 -3.59050659E-07 -0.0921958759
vn 0.839543164 0.53520757 -0.0933819711
vn 0.443768382 0.397897542 0.802961409
vn 0.813569844 0.492621273 0.308914781
vn 0.416848004 0.904045641 -0.0945478082
vn 0.397694051 0.874957263 0.276205033
vn -0.138070181 0.985753536 -0.0960553139
vn -0.0862222537 0.607030153 0.789987445
vn -0.538045466 0.264794141 0.800244451
vn -0.627679646 0.72827208 0.275023609
vn -0.137142345 0.956543028 0.257327437
vn -0.64901489 0.754514337 -0.0974050984
vn -0.953817904 0.283867508 -0.0982373357
vn -0.64901489 0.754514337 -0.0974050984
vn -0.627679646 0.72827208 0.275023609
vn -0.919767797 0.244560733 0.306948274
vn -0.538045466 0.264794141 0.800244451
vn -0.954783559 -0.280328155 -0.0990171582
vn -0.916815042 -0.233731166 0.323759019
vn -0.500335395 -0.310147077 0.808376908
vn -0.00822124165 -0.0171281267 0.999819577
vn 0.075212881 -0.580764592 0.810589612
vn -0.60375613 -0.735558987 0.30729726
vn -0.648999214 -0.754524112 -0.0974342674
vn -0.167808011 -0.930642307 0.32518515
vn -0.138112813 -0.985747159 -0.096058704
vn 0.41810286 -0.854426384 0.308456719
vn 0.416832894 -0.904050529 -0.0945666656
vn 0.778514206 -0.525742769 0.342797637
vn 0.839528084 -0.535226405 -0.0934091806
vn -0.0663712472 0.449465424 -0.890828609
vn -0.0574332699 0.408918023 -0.910762012
vn 0.179763362 0.401305735 -0.898130774
vn 0.26982069 0.310202897 -0.911576152
vn 0.373207957 0.238281161 -0.896625817
vn 0.420670003 -4.80994959E-06 -0.907213748
vn 0.462944031 0 -0.886387587
vn -0.0663712472 0.449465424 -0.890828609
vn -0.282756776 0.327673882 -0.901486814
vn -0.0574332699 0.408918023 -0.910762012
vn -0.34579891 0.164590463 -0.923760295
vn -0.391051888 0.0806242079 -0.91683042
vn -0.344565928 -0.16894494 -0.923434854
vn -0.391163945 -0.0843866244 -0.916444004
vn -0.282792896 -0.327732503 -0.901454151
vn -0.0574079119 -0.408994675 -0.910729289
vn -0.0663919076 -0.449572116 -0.890773296
vn 0.179783985 -0.401330292 -0.898115575
vn 0.269810289 -0.31020689 -0.911577821
vn 0.373158813 -0.238306537 -0.896639645
vn 0.420670003 -4.80994959E-06 -0.907213748
vn 0.462944031 0 -0.886387587
vn -0.907894731 0.408017516 -0.0961711332
vn -0.474289179 0.867223442 -0.151569754
vn -0.147293314 0.983228862 -0.107543834
vn 0.406785935 0.901921988 -0.145127326
vn 0.650736511 0.752438366 -0.101874605
vn 0.945743084 0.29275772 -0.140935972
vn 0.994333506 0.00607280154 -0.106132425
vn 0.832649052 -0.534768224 -0.143938988
vn 0.651425064 -0.751843214 -0.101868704
vn -0.907894731 0.408017516 -0.0961711332
vn -0.979317546 0.148546681 -0.137371644
vn -0.474289179 0.867223442 -0.151569754
vn -0.904798627 -0.415281385 -0.0942381322
vn -0.703688025 -0.694456041 -0.150180236
vn -0.136512071 -0.984366953 -0.111292891
vn 0.125980541 -0.981320441 -0.14539285
vn 0.651425064 -0.751843214 -0.101868704
vn 0.832649052 -0.534768224 -0.143938988
vn -0.629125834 0.735137403 -0.252534539
vn -0.608035088 0.745266378 -0.273626447
vn -0.132045224 0.959173143 -0.250101596
vn -0.108247064 0.956471622 -0.271006554
vn 0.407790065 0.878899753 -0.247471839
vn 0.426373303 0.86387217 -0.268199265
vn 0.81878978 0.518963993 -0.245478287
vn 0.826025784 0.496871471 -0.266083091
vn 0.969565749 7.81083259E-07 -0.244831383
vn 0.964123845 0 -0.26545307
vn 0.825986564 -0.49694556 -0.266066432
vn 0.818782389 -0.51897192 -0.245486438
vn -0.914095938 0.297775716 -0.27524212
vn -0.608035088 0.745266378 -0.273626447
vn -0.629125834 0.735137403 -0.252534539
vn -0.926256955 0.278468579 -0.253974944
vn -0.922325015 -0.271056414 -0.275399685
vn -0.928096056 -0.272340119 -0.253906697
vn -0.629127204 -0.735142112 -0.25251767
vn -0.607983112 -0.745306194 -0.27363342
vn -0.132047415 -0.959173143 -0.25010094
vn -0.108232595 -0.956469655 -0.271019459
vn 0.407850087 -0.878868818 -0.247482941
vn 0.426321864 -0.863904059 -0.268177778
vn 0.818782389 -0.51897192 -0.245486438
vn 0.825986564 -0.49694556 -0.266066432
vn -0.138070181 0.985753536 -0.0960553139
vn -0.132045224 0.959173143 -0.250101596
vn 0.416848004 0.904045641 -0.0945478082
vn 0.407790065 0.878899753 -0.247471839
vn 0.839543164 0.53520757 -0.0933819711
vn 0.81878978 0.518963993 -0.245478287
vn 0.995740891 -3.59050659E-07 -0.0921958759
vn 0.969565749 7.81083259E-07 -0.244831383
vn 0.818782389 -0.51897192 -0.245486438
vn 0.839528084 -0.535226405 -0.0934091806
vn 0.407850087 -0.878868818 -0.247482941
vn 0.416832894 -0.904050529 -0.0945666656
vn -0.629125834 0.735137403 -0.252534539
vn -0.132045224 0.959173143 -0.250101596
vn -0.138070181 0.985753536 -0.0960553139
vn -0.64901489 0.754514337 -0.0974050984
vn -0.926256955 0.278468579 -0.253974944
vn -0.953817904 0.283867508 -0.0982373357
vn -0.928096056 -0.272340119 -0.253906697
vn -0.954783559 -0.280328155 -0.0990171582
vn -0.648999214 -0.754524112 -0.0974342674
vn -0.629127204 -0.735142112 -0.25251767
vn -0.138112813 -0.985747159 -0.096058704
vn -0.132047415 -0.959173143 -0.25010094
vn 0.416832894 -0.904050529 -0.0945666656
vn 0.407850087 -0.878868818 -0.247482941
vn 0.000488086924 0.00109819113 -0.999999285
vn -4.04455786E-05 -3.05088315E-06 -1
vn 0.00120720465 0.000355583208 -0.999999285
vn -0.00057422393 0.00109019468 -0.999999285
vn 0.00101366208 -0.000654267264 -0.999999285
vn -0.00120345736 0.000201146817 -0.999999285
vn 0.000143739991 -0.00124206662 -0.999999285
vn -0.00085963856 -0.000843248388 -0.999999285
g liudanpao_0
f 3/3/3 2/2/2 1/1/1
f 6/6/6 5/5/5 4/4/4
f 9/9/9 8/8/8 7/7/7
f 12/12/12 11/11/11 10/10/10
f 15/15/15 14/14/14 13/13/13
f 18/18/18 17/17/17 16/16/16
f 21/21/21 20/20/20 19/19/19
f 24/24/24 23/23/23 22/22/22
f 27/27/27 26/26/26 25/25/25
f 28/28/28 27/27/27 25/25/25
f 28/28/28 25/25/25 29/29/29
f 25/25/25 30/30/30 29/29/29
f 25/25/25 31/31/31 30/30/30
f 25/25/25 32/32/32 31/31/31
f 25/25/25 33/33/33 32/32/32
f 36/36/36 35/35/35 34/34/34
f 36/36/36 34/34/34 37/37/37
f 36/36/36 37/37/37 38/38/38
f 39/39/39 36/36/36 38/38/38
f 39/39/39 40/40/40 36/36/36
f 40/40/40 41/41/41 36/36/36
f 41/41/41 42/42/42 36/36/36
f 45/45/45 44/44/44 43/43/43
f 44/44/44 46/46/46 43/43/43
f 43/43/43 46/46/46 47/47/47
f 48/48/48 43/43/43 47/47/47
f 49/49/49 43/43/43 48/48/48
f 50/50/50 43/43/43 49/49/49
f 51/51/51 43/43/43 50/50/50
f 54/54/54 53/53/53 52/52/52
f 52/52/52 53/53/53 55/55/55
f 55/55/55 53/53/53 56/56/56
f 53/53/53 57/57/57 56/56/56
f 58/58/58 57/57/57 53/53/53
f 59/59/59 58/58/58 53/53/53
f 60/60/60 59/59/59 53/53/53
f 63/63/63 62/62/62 61/61/61
f 64/64/64 63/63/63 61/61/61
f 64/64/64 61/61/61 65/65/65
f 61/61/61 66/66/66 65/65/65
f 61/61/61 67/67/67 66/66/66
f 61/61/61 68/68/68 67/67/67
f 61/61/61 69/69/69 68/68/68
f 72/72/72 71/71/71 70/70/70
f 72/72/72 70/70/70 73/73/73
f 72/72/72 73/73/73 74/74/74
f 75/75/75 72/72/72 74/74/74
f 75/75/75 76/76/76 72/72/72
f 76/76/76 77/77/77 72/72/72
f 77/77/77 78/78/78 72/72/72
f 81/81/81 80/80/80 79/79/79
f 80/80/80 82/82/82 79/79/79
f 79/79/79 82/82/82 83/83/83
f 84/84/84 79/79/79 83/83/83
f 85/85/85 79/79/79 84/84/84
f 86/86/86 79/79/79 85/85/85
f 87/87/87 79/79/79 86/86/86
f 90/90/90 89/89/89 88/88/88
f 88/88/88 89/89/89 91/91/91
f 91/91/91 89/89/89 92/92/92
f 89/89/89 93/93/93 92/92/92
f 94/94/94 93/93/93 89/89/89
f 95/95/95 94/94/94 89/89/89
f 96/96/96 95/95/95 89/89/89
f 99/99/99 98/98/98 97/97/97
f 99/99/99 100/100/100 98/98/98
f 100/100/100 101/101/101 98/98/98
f 102/102/102 100/100/100 99/99/99
f 103/103/103 102/102/102 99/99/99
f 103/103/103 104/104/104 102/102/102
f 105/105/105 102/102/102 104/104/104
f 106/106/106 101/101/101 100/100/100
f 106/106/106 100/100/100 102/102/102
f 105/105/105 107/107/107 102/102/102
f 106/106/106 102/102/102 107/107/107
f 107/107/107 105/105/105 108/108/108
f 107/107/107 108/108/108 109/109/109
f 109/109/109 106/106/106 107/107/107
f 109/109/109 108/108/108 110/110/110
f 111/111/111 101/101/101 106/106/106
f 111/111/111 106/106/106 109/109/109
f 112/112/112 101/101/101 111/111/111
f 113/113/113 112/112/112 111/111/111
f 109/109/109 110/110/110 114/114/114
f 111/111/111 109/109/109 114/114/114
f 113/113/113 111/111/111 114/114/114
f 114/114/114 110/110/110 115/115/115
f 114/114/114 115/115/115 113/113/113
f 118/118/118 117/117/117 116/116/116
f 118/118/118 116/116/116 119/119/119
f 119/119/119 120/120/120 118/118/118
f 119/119/119 116/116/116 121/121/121
f 122/122/122 120/120/120 119/119/119
f 119/119/119 121/121/121 122/122/122
f 122/122/122 123/123/123 120/120/120
f 123/123/123 124/124/124 120/120/120
f 125/125/125 124/124/124 123/123/123
f 121/121/121 126/126/126 122/122/122
f 126/126/126 123/123/123 122/122/122
f 121/121/121 127/127/127 126/126/126
f 128/128/128 125/125/125 123/123/123
f 128/128/128 123/123/123 126/126/126
f 127/127/127 128/128/128 126/126/126
f 127/127/127 129/129/129 128/128/128
f 130/130/130 125/125/125 128/128/128
f 129/129/129 130/130/130 128/128/128
f 129/129/129 131/131/131 130/130/130
f 131/131/131 132/132/132 130/130/130
f 131/131/131 133/133/133 132/132/132
f 136/136/136 135/135/135 134/134/134
f 136/136/136 137/137/137 135/135/135
f 138/138/138 137/137/137 136/136/136
f 139/139/139 137/137/137 138/138/138
f 139/139/139 138/138/138 140/140/140
f 143/143/143 142/142/142 141/141/141
f 143/143/143 144/144/144 142/142/142
f 142/142/142 144/144/144 145/145/145
f 145/145/145 144/144/144 146/146/146
f 145/145/145 146/146/146 147/147/147
f 147/147/147 146/146/146 148/148/148
f 148/148/148 146/146/146 149/149/149
f 148/148/148 149/149/149 150/150/150
f 149/149/149 151/151/151 150/150/150
f 149/149/149 152/152/152 151/151/151
f 151/151/151 152/152/152 153/153/153
f 153/153/153 152/152/152 154/154/154
f 153/153/153 154/154/154 155/155/155
f 158/158/158 157/157/157 156/156/156
f 159/159/159 157/157/157 158/158/158
f 159/159/159 158/158/158 160/160/160
f 161/161/161 159/159/159 160/160/160
f 162/162/162 161/161/161 160/160/160
f 163/163/163 161/161/161 162/162/162
f 163/163/163 162/162/162 164/164/164
f 167/167/167 166/166/166 165/165/165
f 165/165/165 166/166/166 168/168/168
f 166/166/166 169/169/169 168/168/168
f 169/169/169 170/170/170 168/168/168
f 169/169/169 171/171/171 170/170/170
f 170/170/170 171/171/171 172/172/172
f 171/171/171 173/173/173 172/172/172
f 176/176/176 175/175/175 174/174/174
f 176/176/176 177/177/177 175/175/175
f 178/178/178 177/177/177 176/176/176
f 178/178/178 179/179/179 177/177/177
f 180/180/180 179/179/179 178/178/178
f 180/180/180 181/181/181 179/179/179
f 182/182/182 181/181/181 180/180/180
f 182/182/182 183/183/183 181/181/181
f 184/184/184 183/183/183 182/182/182
f 184/184/184 182/182/182 185/185/185
f 188/188/188 187/187/187 186/186/186
f 188/188/188 186/186/186 189/189/189
f 189/189/189 186/186/186 190/190/190
f 189/189/189 190/190/190 191/191/191
f 190/190/190 192/192/192 191/191/191
f 190/190/190 193/193/193 192/192/192
f 193/193/193 194/194/194 192/192/192
f 193/193/193 195/195/195 194/194/194
f 195/195/195 196/196/196 194/194/194
f 195/195/195 197/197/197 196/196/196
f 197/197/197 198/198/198 196/196/196
f 197/197/197 199/199/199 198/198/198
f 202/202/202 201/201/201 200/200/200
f 202/202/202 203/203/203 201/201/201
f 204/204/204 203/203/203 202/202/202
f 204/204/204 205/205/205 203/203/203
f 206/206/206 205/205/205 204/204/204
f 206/206/206 207/207/207 205/205/205
f 208/208/208 207/207/207 206/206/206
f 208/208/208 206/206/206 209/209/209
f 210/210/210 208/208/208 209/209/209
f 210/210/210 209/209/209 211/211/211
f 214/214/214 213/213/213 212/212/212
f 214/214/214 212/212/212 215/215/215
f 215/215/215 212/212/212 216/216/216
f 215/215/215 216/216/216 217/217/217
f 217/217/217 216/216/216 218/218/218
f 217/217/217 218/218/218 219/219/219
f 218/218/218 220/220/220 219/219/219
f 218/218/218 221/221/221 220/220/220
f 221/221/221 222/222/222 220/220/220
f 221/221/221 223/223/223 222/222/222
f 223/223/223 224/224/224 222/222/222
f 223/223/223 225/225/225 224/224/224
f 228/228/228 227/227/227 226/226/226
f 226/226/226 227/227/227 229/229/229
f 230/230/230 227/227/227 228/228/228
f 229/229/229 227/227/227 231/231/231
f 232/232/232 227/227/227 230/230/230
f 231/231/231 227/227/227 233/233/233
f 233/233/233 227/227/227 232/232/232
