g A_Monster_Zombie_10_lod_gpuskinmesh
v -1.8026824 4.09010124 0.64994657
v -1.65784919 4.14898968 0.491762429
v -1.81864488 4.03743315 0.680151284
v -1.7826817 3.51284838 0.210377023
v -1.70458066 3.43970227 0.161347106
v -1.67746818 3.53774643 0.103387527
v -1.71032739 3.36395431 0.228419721
v -1.70458066 3.43970227 0.161347106
v -1.7826817 3.51284838 0.210377023
v -1.61268532 3.38211608 0.125671744
v -1.70458066 3.43970227 0.161347106
v -1.71032739 3.36395431 0.228419721
v -1.70458066 3.43970227 0.161347106
v -1.61268532 3.38211608 0.125671744
v -1.67746818 3.53774643 0.103387527
v -1.80043042 3.68604112 0.178999573
v -1.91367137 3.76593232 0.197360888
v -1.86341691 3.77777886 0.214332029
v -1.80043042 3.68604112 0.178999573
v -1.77306366 3.80265808 0.104449697
v -1.78514385 3.80560899 0.0519969054
v -2.07385111 4.64676762 0.52141279
v -2.22338748 4.63026524 0.355520815
v -1.92233884 4.68190002 0.430621743
v -1.91706979 4.59849501 0.399572551
v -1.96683633 4.58343363 0.458041668
v -1.96656811 4.50482512 0.594189644
v -1.63810921 2.99513459 0.259167165
v -1.63516414 2.86773729 0.251973808
v -1.52601457 3.00746274 0.140462965
v -1.53658855 2.88041568 0.12446259
v -1.3870883 2.93396235 0.183802709
v -1.42462182 3.03573298 0.208183989
v -1.47051728 2.94155717 0.340295941
v -1.49364328 3.03762364 0.332719922
v -1.63810921 2.99513459 0.259167165
v -1.63516414 2.86773729 0.251973808
v -1.51705444 2.7225616 0.126264334
v -1.6101644 2.71046805 0.255237192
v -1.3617878 2.76600003 0.179436639
v -1.20888877 2.80829859 0.226295158
v -1.24240005 2.91815686 0.225246087
v -1.18523228 2.82627034 0.365270823
v -1.28805697 2.99863601 0.327011019
v -1.21296012 2.93706179 0.358302802
v -1.33120155 2.79577208 0.434452891
v -1.36392152 2.90577078 0.427466005
v -1.47589159 2.87274885 0.343732566
v -1.45601106 2.75679278 0.344891936
v -1.6101644 2.71046805 0.255237192
v -1.63810921 2.99513459 0.259167165
v -1.42462182 3.03573298 0.208183989
v -1.49364328 3.03762364 0.332719922
v -1.52601457 3.00746274 0.140462965
v -2.03709197 3.02002525 0.321770936
v -2.08090758 2.89577031 0.290005594
v -2.04861379 3.04273725 0.420865536
v -2.15145612 2.91143584 0.384527624
v -2.10414505 3.06265187 0.402706027
v -2.19387698 2.94670248 0.310028344
v -2.13709044 3.07858658 0.328489721
v -2.03709197 3.02002525 0.321770936
v -2.08090758 2.89577031 0.290005594
v -1.8026824 4.09010124 0.64994657
v -1.81864488 4.03743315 0.680151284
v -1.85945833 4.27269077 0.696868896
v -1.89532042 4.30523968 0.745965958
v -1.72838533 4.39599323 0.549878716
v -1.74683106 4.34288836 0.563757181
v -1.69588411 4.29118204 0.522698522
v -1.69027078 4.17123508 0.51356101
v -1.68513131 4.23654938 0.50294733
v -1.65784919 4.14898968 0.491762429
v -1.8026824 4.09010124 0.64994657
v -1.68513131 4.23654938 0.50294733
v -1.62091339 4.30921602 0.482284904
v -1.61857986 4.25529099 0.469834626
v -1.69588411 4.29118204 0.522698522
v -1.67746818 3.53774643 0.103387527
v -1.71032739 3.36395431 0.228419721
v -1.7826817 3.51284838 0.210377023
v -1.61268532 3.38211608 0.125671744
v -1.43971467 3.9612267 0.580146492
v -1.5197612 3.95493269 0.659261286
v -1.43433607 3.97831321 0.615002096
v -1.55544829 3.90958214 0.619384944
v -1.58645105 3.941535 0.798519671
v -1.63659358 3.81217241 0.664666951
v -1.43926096 3.98058605 0.671293497
v -1.47470069 3.96717095 0.811526477
v -1.50580275 3.84681535 0.547686577
v -1.49424362 3.88739228 0.562131882
v -1.6646142 3.85219383 0.613774478
v -1.75586081 3.83089161 0.659416735
v -1.88116801 3.74813652 0.698319137
v -1.86975586 3.74222922 0.754333794
v -1.69541466 3.86654282 0.77371037
v -1.97222865 3.75246167 0.803741813
v -1.96907771 3.85262012 0.808162153
v -1.72078395 3.9238534 0.785433948
v -1.97040892 3.91279817 0.691057265
v -1.6230948 3.99623013 0.799743533
v -1.74256563 3.94686127 0.699628949
v -1.75586081 3.83089161 0.659416735
v -1.6646142 3.85219383 0.613774478
v -1.57610619 3.94031906 0.584803641
v -1.50580275 3.84681535 0.547686577
v -1.49424362 3.88739228 0.562131882
v -1.55544829 3.90958214 0.619384944
v -1.43971467 3.9612267 0.580146492
v -1.43433607 3.97831321 0.615002096
v -1.59940577 3.99900126 0.649735034
v -1.43926096 3.98058605 0.671293497
v -1.5197612 3.95493269 0.659261286
v -1.66076624 2.99361372 -0.393800199
v -1.69138443 2.97666168 -0.419558585
v -1.75466013 3.06501889 -0.43513155
v -1.73115206 3.12268615 -0.388529539
v -1.91289318 3.11282086 -0.48215431
v -1.90650642 2.98513722 -0.476955742
v -1.75052285 2.97057939 -0.439507276
v -1.83381975 3.23980856 -0.334583133
v -1.67080271 3.10084224 -0.288150281
v -1.67158449 3.07482576 -0.330195606
v -1.76213074 3.2656765 -0.352826446
v -1.84696484 3.4318831 -0.309270322
v -1.81045592 3.46489429 -0.346332729
v -1.92083991 3.26217246 -0.421238959
v -2.03716683 3.46329737 -0.354008675
v -1.92048931 3.27887344 -0.489524722
v -2.00616693 3.50547481 -0.449255615
v -1.9163667 3.49318075 -0.482133627
v -1.81862593 3.32608891 -0.489642084
v -1.90019023 3.13646936 -0.550055206
v -1.73860466 3.13909578 -0.502612352
v -1.68682671 3.14273238 -0.416639537
v -1.75052285 2.97057939 -0.439507276
v -1.75466013 3.06501889 -0.43513155
v -1.69138443 2.97666168 -0.419558585
v -1.66076624 2.99361372 -0.393800199
v -1.73115206 3.12268615 -0.388529539
v -1.67158449 3.07482576 -0.330195606
v -1.67080271 3.10084224 -0.288150281
v -1.76213074 3.2656765 -0.352826446
v -1.81045592 3.46489429 -0.346332729
v -1.86745775 3.77483702 0.124128431
v -1.80043042 3.68604112 0.178999573
v -1.91450191 3.76625061 0.150987357
v -1.8055625 3.98680258 0.21007736
v -1.91299224 3.96335769 0.208518475
v -2.05077028 3.8337431 0.102730647
v -1.94965279 3.98873925 0.109229751
v -2.02087235 3.81787992 0.0184551384
v -1.98623502 3.63132501 0.390528113
v -2.06080675 3.49716353 0.225425944
v -2.14007044 3.62480283 0.349596202
v -2.10140538 3.47727442 0.0686771944
v -2.04844809 3.35639477 0.210874259
v -2.08376217 3.3199954 0.0968436524
v -2.15710855 3.76165295 0.370280474
v -1.9825331 3.30547595 -0.02550341
v -2.15943027 3.79389954 0.0680105537
v -2.04325032 3.83997464 0.360754281
v -2.05099487 3.82508731 0.212314025
v -1.99647033 3.47477245 -0.0498023368
v -1.87041438 3.50753736 -0.13709265
v -2.11149573 3.81417751 -0.0547045842
v -1.88680923 3.26797318 -0.122460879
v -2.01782203 3.84097886 -0.122746669
v -1.69514513 3.27972436 -0.0542388968
v -1.92640483 3.80694413 -0.225175932
v -1.79778576 3.84047174 -0.199340001
v -1.85393667 3.88206553 -0.0853625983
v -1.9262619 3.69023919 -0.200246826
v -1.78494775 3.53085494 -0.136129484
v -1.84165061 3.65298295 -0.11633037
v -1.72376549 3.69593549 -0.106394939
v -1.69845116 3.53528857 0.0712731704
v -1.6713624 3.3775053 0.0998537391
v -1.78775048 3.5376327 0.189315856
v -1.62776756 3.25808334 0.130499765
v -1.76559937 3.40280151 0.210016564
v -1.88567638 3.39910364 0.260953635
v -1.70463312 3.73450708 0.0256052576
v -1.77011871 3.82157564 -0.0380382948
v -1.79778576 3.84047174 -0.199340001
v -1.85393667 3.88206553 -0.0853625983
v -1.88494432 3.52799988 0.248813376
v -2.06080675 3.49716353 0.225425944
v -2.04844809 3.35639477 0.210874259
v -1.90208375 3.73535967 0.394162744
v -1.98623502 3.63132501 0.390528113
v -1.90069532 3.68955612 0.262726933
v -1.80043042 3.68604112 0.178999573
v -1.78514385 3.80560899 0.0519969054
v -1.77306366 3.80265808 0.104449697
v -1.91367137 3.76593232 0.197360888
v -1.86341691 3.77777886 0.214332029
v -1.96436155 3.76891661 0.248341605
v -2.04325032 3.83997464 0.360754281
v -2.05099487 3.82508731 0.212314025
v -2.02087235 3.81787992 0.0184551384
v -2.05289197 3.88799763 0.143246278
v -2.07420444 3.92601681 0.00366131891
v -2.05077028 3.8337431 0.102730647
v -1.91450191 3.76625061 0.150987357
v -1.86341691 3.77777886 0.214332029
v -1.80043042 3.68604112 0.178999573
v -2.07420444 3.92601681 0.00366131891
v -2.15943027 3.79389954 0.0680105537
v -2.11149573 3.81417751 -0.0547045842
v -2.05289197 3.88799763 0.143246278
v -2.05099487 3.82508731 0.212314025
v -1.96436155 3.76891661 0.248341605
v -1.86341691 3.77777886 0.214332029
v -1.90069532 3.68955612 0.262726933
v -1.90208375 3.73535967 0.394162744
v -1.98623502 3.63132501 0.390528113
v -1.92524457 3.69463515 0.664805949
v -1.8782804 3.80376267 0.609336734
v -1.88116801 3.74813652 0.698319137
v -1.75586081 3.83089161 0.659416735
v -2.04325032 3.83997464 0.360754281
v -2.00300527 3.89757562 0.63793385
v -2.06108856 3.81937313 0.720773697
v -1.97040892 3.91279817 0.691057265
v -2.15710855 3.76165295 0.370280474
v -1.96907771 3.85262012 0.808162153
v -1.97222865 3.75246167 0.803741813
v -2.14007044 3.62480283 0.349596202
v -1.99883616 3.7041986 0.739983022
v -1.86975586 3.74222922 0.754333794
v -1.92524457 3.69463515 0.664805949
v -1.98623502 3.63132501 0.390528113
v -1.88116801 3.74813652 0.698319137
v -1.86745775 3.77483702 0.124128431
v -1.8494122 3.78272319 0.0756894797
v -1.80043042 3.68604112 0.178999573
v -1.8055625 3.98680258 0.21007736
v -1.84528053 4.01216602 0.10783793
v -1.95414209 3.83378649 -0.0321539044
v -1.94965279 3.98873925 0.109229751
v -2.02087235 3.81787992 0.0184551384
v -1.92684174 3.92710948 -0.0317047983
v -2.02087235 3.81787992 0.0184551384
v -2.07420444 3.92601681 0.00366131891
v -1.95414209 3.83378649 -0.0321539044
v -1.8494122 3.78272319 0.0756894797
v -1.77306366 3.80265808 0.104449697
v -1.80043042 3.68604112 0.178999573
v -2.01782203 3.84097886 -0.122746669
v -2.07420444 3.92601681 0.00366131891
v -2.11149573 3.81417751 -0.0547045842
v -1.92684174 3.92710948 -0.0317047983
v -1.85393667 3.88206553 -0.0853625983
v -1.77011871 3.82157564 -0.0380382948
v -1.77306366 3.80265808 0.104449697
v -1.70463312 3.73450708 0.0256052576
v -1.95206213 3.50874472 -0.216387779
v -1.84696484 3.4318831 -0.309270322
v -1.83381975 3.23980856 -0.334583133
v -2.04149437 3.54069257 -0.28739661
v -1.84165061 3.65298295 -0.11633037
v -2.03716683 3.46329737 -0.354008675
v -2.00809622 3.61770868 -0.371701658
v -1.9262619 3.69023919 -0.200246826
v -2.00616693 3.50547481 -0.449255615
v -1.92640483 3.80694413 -0.225175932
v -1.9163667 3.49318075 -0.482133627
v -1.79778576 3.84047174 -0.199340001
v -1.86338985 3.63333273 -0.364120245
v -1.81862593 3.32608891 -0.489642084
v -1.81045592 3.46489429 -0.346332729
v -1.82653022 3.53434086 -0.240283668
v -1.84696484 3.4318831 -0.309270322
v -1.72376549 3.69593549 -0.106394939
v -1.95206213 3.50874472 -0.216387779
v -1.84165061 3.65298295 -0.11633037
v -2.30733681 4.17664528 0.416253895
v -2.37766647 4.21684885 0.30839622
v -2.39967299 4.38945293 0.40829891
v -2.23343396 4.06198072 0.362900048
v -2.24079514 4.23085308 0.522832811
v -2.32874346 4.09338951 0.212745562
v -2.12350535 4.20352364 0.594691098
v -1.96961594 4.03174496 0.489621311
v -2.14076257 3.93784404 0.220225468
v -2.26017427 4.18463373 0.0384757444
v -2.33944821 4.31288576 0.104121059
v -2.04258633 4.0022397 0.0640689135
v -1.88728344 3.89371872 0.346647054
v -1.82741272 3.91973925 0.166269809
v -1.62513089 3.94341636 0.324111789
v -1.97268319 4.22250605 0.631971478
v -2.11087751 4.36024475 0.63769567
v -1.75937223 3.96914577 0.415645778
v -1.88216627 4.12454987 0.619894445
v -1.78975916 4.04612112 0.532270193
v -1.8581239 4.26275921 0.640660465
v -1.95145643 4.35699654 0.661755979
v -1.8776269 4.16970778 0.490692973
v -1.7720778 4.35361814 0.562614918
v -1.81010079 4.4722991 0.532619476
v -1.96081126 4.46891403 0.64209497
v -1.84470725 4.50249815 0.550090075
v -1.91706979 4.59849501 0.399572551
v -1.75277245 4.54071999 0.399344891
v -1.78255022 4.55034399 0.21281451
v -1.72357988 4.37475872 0.497731119
v -1.74662423 4.29589081 0.509662509
v -1.69258881 4.21651411 0.451250196
v -1.69462323 4.24601078 0.354522973
v -1.67113352 4.4550128 0.340140134
v -1.66337872 4.38854694 0.18656379
v -1.74471664 4.3197422 0.0821719617
v -1.67597914 4.11701155 0.462012708
v -1.73877382 4.03981876 0.461254865
v -1.63854539 4.12642002 0.405371279
v -1.62740505 4.29093266 0.210055962
v -1.67154455 4.06874132 0.354788125
v -1.61602306 4.19647169 0.300710142
v -1.62911093 4.14117527 0.219531432
v -1.63462186 4.10560179 0.139442027
v -1.60209119 4.09981489 0.2415905
v -1.67154455 4.06874132 0.354788125
v -1.62032652 4.0351615 0.360693008
v -1.59028041 3.99504423 0.213362768
v -1.82741272 3.91973925 0.166269809
v -1.71892667 4.06122684 0.0624759421
v -2.04258633 4.0022397 0.0640689135
v -1.86986017 4.17489195 -0.0351739898
v -2.26017427 4.18463373 0.0384757444
v -1.94218743 4.36039305 -0.036005009
v -1.91228426 4.52681303 0.0370693319
v -2.15631843 4.27352142 -0.0722295195
v -2.25347066 4.38395977 -0.00717348512
v -2.13345885 4.38862371 -0.0596058033
v -1.79247522 3.28901196 0.228258431
v -1.83365119 3.26596069 0.158600181
v -1.92165339 3.1293273 0.337218165
v -2.02462435 3.20577526 0.432348371
v -1.89072871 3.35455656 0.291241288
v -1.96914625 3.01028442 0.375700623
v -1.76975191 3.33572078 0.217712
v -2.04648042 3.04050469 0.483980656
v -1.76559937 3.40280151 0.210016564
v -1.88567638 3.39910364 0.260953635
v -2.08024931 3.08620143 0.455684304
v -2.04844809 3.35639477 0.210874259
v -2.11782908 3.20876098 0.320780337
v -2.19929266 3.04998779 0.321112782
v -2.04100919 3.31837559 0.226395682
v -2.08376217 3.3199954 0.0968436524
v -2.01442385 3.25398517 0.0944340527
v -1.9825331 3.30547595 -0.02550341
v -1.94172847 3.23872542 0.0352464914
v -1.83365119 3.26596069 0.158600181
v -2.03140688 3.14149928 0.234264597
v -2.08438182 3.03160858 0.24683246
v -1.92165339 3.1293273 0.337218165
v -1.96914625 3.01028442 0.375700623
v -1.48299026 3.15445828 0.21323745
v -1.45889723 3.16693068 0.260352612
v -1.48681641 3.08291173 0.133065909
v -1.52226233 3.11923218 0.166832507
v -1.60764182 3.07739639 0.195375949
v -1.59146941 3.10495305 0.259086609
v -1.58801007 3.16372037 0.343500823
v -1.45889723 3.16693068 0.260352612
v -1.59146941 3.10495305 0.259086609
v -1.45889723 3.16693068 0.260352612
v -1.58718896 2.93579793 0.257903725
v -1.4724704 2.97787642 0.25347057
v -1.48340678 3.15454578 0.212936401
v -1.50203979 2.95386434 0.16737242
v -1.52226233 3.11923218 0.166832507
v -1.59146941 3.10495305 0.259086609
v -1.58718896 2.93579793 0.257903725
v -2.03192616 2.94354272 0.267670482
v -2.18229008 3.00876546 0.293779224
v -2.06546497 2.85511374 0.230026871
v -2.21390581 2.91927242 0.238796502
v -2.26699948 2.90045714 0.394322604
v -2.1956706 2.97298884 0.419088006
v -2.10397124 2.8316257 0.417917818
v -2.06536269 2.91440845 0.429231554
v -2.03192616 2.94354272 0.267670482
v -2.06546497 2.85511374 0.230026871
v -2.27107191 2.78780174 0.172017738
v -2.1251297 2.72287679 0.168678179
v -2.33428121 2.76320457 0.327925801
v -2.40022254 2.74170852 0.478372335
v -2.34563708 2.83707023 0.512414992
v -2.32195449 2.67313766 0.575476289
v -2.22437549 2.85299611 0.575785577
v -2.27502918 2.77149582 0.610899031
v -2.18249249 2.6372354 0.49569416
v -2.13218713 2.73586726 0.52701962
v -2.11682105 2.7775054 0.38919428
v -2.16312718 2.68019748 0.344128996
v -2.1251297 2.72287679 0.168678179
v -2.03192616 2.94354272 0.267670482
v -2.06536269 2.91440845 0.429231554
v -2.1956706 2.97298884 0.419088006
v -2.18229008 3.00876546 0.293779224
v -2.24079514 4.23085308 0.522832811
v -2.30733681 4.17664528 0.416253895
v -2.27791834 4.36904526 0.565533996
v -2.39967299 4.38945293 0.40829891
v -2.22338748 4.63026524 0.355520815
v -2.36553717 4.50181198 0.223058566
v -2.37766647 4.21684885 0.30839622
v -2.388695 4.26108408 0.226439014
v -2.32874346 4.09338951 0.212745562
v -2.20213294 4.58204317 0.0566098765
v -2.33944821 4.31288576 0.104121059
v -2.388695 4.26108408 0.226439014
v -2.32874346 4.09338951 0.212745562
v -2.18349075 4.55102921 0.558481991
v -2.07385111 4.64676762 0.52141279
v -2.06659579 4.4479723 0.690564513
v -1.96081126 4.46891403 0.64209497
v -1.95145643 4.35699654 0.661755979
v -1.97268319 4.22250605 0.631971478
v -2.11087751 4.36024475 0.63769567
v -1.97268319 4.22250605 0.631971478
v -2.12350535 4.20352364 0.594691098
v -2.24079514 4.23085308 0.522832811
v -1.92039359 4.51110029 0.679480255
v -1.83629441 4.3497982 0.639537215
v -1.96081126 4.46891403 0.64209497
v -2.07385111 4.64676762 0.52141279
v -1.92233884 4.68190002 0.430621743
v -1.84470725 4.50249815 0.550090075
v -1.83629441 4.3497982 0.639537215
v -1.92039359 4.51110029 0.679480255
v -1.92233884 4.68190002 0.430621743
v -1.91706979 4.59849501 0.399572551
v -2.33944821 4.31288576 0.104121059
v -2.26017427 4.18463373 0.0384757444
v -2.25347066 4.38395977 -0.00717348512
v -2.20213294 4.58204317 0.0566098765
v -1.92233884 4.68190002 0.430621743
v -1.78255022 4.55034399 0.21281451
v -1.91706979 4.59849501 0.399572551
v -1.99623144 4.67290354 0.181220397
v -2.22338748 4.63026524 0.355520815
v -2.20213294 4.58204317 0.0566098765
v -1.91228426 4.52681303 0.0370693319
v -1.81846941 4.5564909 0.112149492
v -1.74471664 4.3197422 0.0821719617
v -2.25347066 4.38395977 -0.00717348512
v -2.13345885 4.38862371 -0.0596058033
v -2.20213294 4.58204317 0.0566098765
v -2.15631843 4.27352142 -0.0722295195
v -1.65011263 3.25888848 0.274007946
v -1.83365119 3.26596069 0.158600181
v -1.79247522 3.28901196 0.228258431
v -1.65576386 3.18053126 0.161890835
v -1.58801007 3.16372037 0.343500823
v -1.60764182 3.07739639 0.195375949
v -1.48681641 3.08291173 0.133065909
v -1.8556546 3.23129368 -0.0171125699
v -1.94172847 3.23872542 0.0352464914
v -1.9825331 3.30547595 -0.02550341
v -1.85596633 3.2961359 -0.0991144553
v -1.52911484 3.23658323 0.107874595
v -1.45889723 3.16693068 0.260352612
v -1.70196605 3.28187776 -0.041085232
v -1.659554 3.36518431 0.0864082202
v -1.74407756 3.32996106 -0.0655099526
v -1.6713624 3.3775053 0.0998537391
v -1.76559937 3.40280151 0.210016564
v -1.76975191 3.33572078 0.217712
v -1.79247522 3.28901196 0.228258431
v -1.51091635 3.31693721 0.221030995
v -1.58801007 3.16372037 0.343500823
v -1.65011263 3.25888848 0.274007946
v -1.6101644 2.71046805 0.255237192
v -1.45601106 2.75679278 0.344891936
v -1.38895309 2.76752639 0.275331914
v -1.51705444 2.7225616 0.126264334
v -1.33120155 2.79577208 0.434452891
v -1.3617878 2.76600003 0.179436639
v -1.18523228 2.82627034 0.365270823
v -1.20888877 2.80829859 0.226295158
v -1.61771834 4.13292551 0.334346712
v -1.65791869 4.1725173 0.366016686
v -1.6349386 4.12778902 0.326036632
v -1.64746225 4.08954096 0.373475701
v -1.62962413 4.09435368 0.382863522
v -1.66634393 4.1428256 0.40699482
v -1.60120344 4.17961884 0.466534227
v -1.50920844 4.25477076 0.303333908
v -1.47563243 4.22671509 0.278261185
v -1.5142473 4.45797062 0.309026986
v -1.53849483 4.41173029 0.335269153
v -1.63098443 4.4091444 0.476014227
v -1.61044323 4.38140869 0.436828554
v -1.62091339 4.30921602 0.482284904
v -1.59774458 4.24269962 0.432644159
v -1.61857986 4.25529099 0.469834626
v -1.68458521 4.06124735 0.434614599
v -1.69743407 4.06071091 0.419561386
v -1.70264781 4.12544584 0.435014457
v -1.65381646 4.08154392 0.380398601
v -1.639732 4.08240652 0.395577013
v -1.66664422 4.14250994 0.407458067
v -1.77167797 4.27307987 0.490619034
v -1.74971688 4.18573141 0.453113198
v -1.74658716 4.22441435 0.551777959
v -1.82005155 4.29174376 0.542677701
v -1.79892957 4.08215189 0.523452461
v -1.89328909 4.21931314 0.573551953
v -1.88549459 4.10910082 0.558434725
v -1.60422754 4.31197596 0.330662608
v -1.69313872 4.22208738 0.353801101
v -1.71423137 4.27104473 0.410585076
v -1.65724075 4.23192167 0.27888003
v -1.72726226 4.3959713 0.405545384
v -1.63898849 4.28825903 0.212467566
v -1.6895349 4.41047049 0.236816421
v -1.96914625 3.01028442 0.375700623
v -2.10414505 3.06265187 0.402706027
v -2.04648042 3.04050469 0.483980656
v -2.08024931 3.08620143 0.455684304
v -2.19929266 3.04998779 0.321112782
v -2.03709197 3.02002525 0.321770936
v -2.13709044 3.07858658 0.328489721
v -2.08438182 3.03160858 0.24683246
v -2.1251297 2.72287679 0.168678179
v -2.25256824 2.71540236 0.359607726
v -2.16312718 2.68019748 0.344128996
v -2.27107191 2.78780174 0.172017738
v -2.18249249 2.6372354 0.49569416
v -2.33428121 2.76320457 0.327925801
v -2.32195449 2.67313766 0.575476289
v -2.40022254 2.74170852 0.478372335
v -2.20213294 4.58204317 0.0566098765
v -2.13345885 4.38862371 -0.0596058033
v -2.05449986 4.45331717 -0.039576713
v -1.91228426 4.52681303 0.0370693319
v -1.94218743 4.36039305 -0.036005009
vt 0.630371094 0.018371582
vt 0.661621094 0.0396728516
vt 0.615722656 0.0133743286
vt 0.674804688 0.413330078
vt 0.694335938 0.356201172
vt 0.674804688 0.298828125
vt 0.51953125 0.399902344
vt 0.579589844 0.416992188
vt 0.639160156 0.399902344
vt 0.822265625 0.288085938
vt 0.762695312 0.271728516
vt 0.703125 0.288085938
vt 0.771972656 0.417724609
vt 0.712890625 0.437255859
vt 0.831054688 0.437255859
vt 0.934570312 0.617675781
vt 0.964355469 0.650878906
vt 0.97265625 0.666503906
vt 0.934570312 0.617675781
vt 0.97265625 0.666503906
vt 0.964355469 0.650878906
vt 0.974609375 0.837402344
vt 0.994628906 0.8203125
vt 0.967773438 0.814941406
vt 0.637207031 0.84375
vt 0.643066406 0.854003906
vt 0.675292969 0.849609375
vt 0.698242188 0.937988281
vt 0.699707031 0.916015625
vt 0.675292969 0.936523438
vt 0.676757812 0.913574219
vt 0.642578125 0.911132812
vt 0.640625 0.934570312
vt 0.610351562 0.947265625
vt 0.621582031 0.954101562
vt 0.617675781 0.981933594
vt 0.595214844 0.981933594
vt 0.680664062 0.8828125
vt 0.702148438 0.88671875
vt 0.650390625 0.876464844
vt 0.624511719 0.871582031
vt 0.625976562 0.895019531
vt 0.5859375 0.8828125
vt 0.609375 0.9140625
vt 0.599121094 0.899414062
vt 0.565917969 0.913085938
vt 0.589355469 0.923339844
vt 0.589355469 0.941894531
vt 0.567871094 0.94140625
vt 0.564453125 0.981933594
vt 0.517578125 0.942382812
vt 0.55859375 0.991699219
vt 0.514160156 0.997558594
vt 0.55859375 0.927734375
vt 0.071105957 0.990722656
vt 0.071105957 0.962402344
vt 0.0494995117 0.990722656
vt 0.0455932617 0.962402344
vt 0.0380554199 0.990722656
vt 0.0283966064 0.962402344
vt 0.0283966064 0.990722656
vt 0.00860595703 0.990722656
vt 0.00860595703 0.962402344
vt 0.630371094 0.018371582
vt 0.615722656 0.0133743286
vt 0.598632812 0.0307769775
vt 0.578613281 0.0424194336
vt 0.62109375 0.080078125
vt 0.622558594 0.0686035156
vt 0.64453125 0.0667724609
vt 0.645507812 0.0462341309
vt 0.651855469 0.0556030273
vt 0.661621094 0.0396728516
vt 0.630371094 0.018371582
vt 0.0277099609 0.370117188
vt 0.0472717285 0.330322266
vt 0.0262145996 0.315917969
vt 0.0473632812 0.384277344
vt 0.811035156 0.302978516
vt 0.727539062 0.405273438
vt 0.727539062 0.302978516
vt 0.811035156 0.405273438
vt 0.823242188 0.238037109
vt 0.859863281 0.257324219
vt 0.824707031 0.252197266
vt 0.874023438 0.236694336
vt 0.890136719 0.298339844
vt 0.914550781 0.235229492
vt 0.829589844 0.267578125
vt 0.853515625 0.302490234
vt 0.868652344 0.197998047
vt 0.854003906 0.21862793
vt 0.920410156 0.210327148
vt 0.991210938 0.229003906
vt 0.991210938 0.241821289
vt 0.991210938 0.251708984
vt 0.930664062 0.292236328
vt 0.991210938 0.281005859
vt 0.991210938 0.304443359
vt 0.930664062 0.322509766
vt 0.991210938 0.355712891
vt 0.894042969 0.319824219
vt 0.930664062 0.356933594
vt 0.991210938 0.3984375
vt 0.919433594 0.405761719
vt 0.881835938 0.402832031
vt 0.889648438 0.448730469
vt 0.87890625 0.44140625
vt 0.8671875 0.411865234
vt 0.835449219 0.402099609
vt 0.831542969 0.388916016
vt 0.881347656 0.369140625
vt 0.830566406 0.344238281
vt 0.848144531 0.366455078
vt 0.823242188 0.238037109
vt 0.824707031 0.252197266
vt 0.859863281 0.257324219
vt 0.874023438 0.236694336
vt 0.890136719 0.298339844
vt 0.853515625 0.302490234
vt 0.829589844 0.267578125
vt 0.914550781 0.235229492
vt 0.868652344 0.197998047
vt 0.854003906 0.21862793
vt 0.920410156 0.210327148
vt 0.977539062 0.240234375
vt 0.991210938 0.220947266
vt 0.930664062 0.292236328
vt 0.991210938 0.292236328
vt 0.930664062 0.322509766
vt 0.991210938 0.316894531
vt 0.991210938 0.356933594
vt 0.930664062 0.356933594
vt 0.894042969 0.319824219
vt 0.881347656 0.369140625
vt 0.881835938 0.402832031
vt 0.830566406 0.344238281
vt 0.848144531 0.366455078
vt 0.831542969 0.388916016
vt 0.835449219 0.402099609
vt 0.8671875 0.411865234
vt 0.87890625 0.44140625
vt 0.889648438 0.448730469
vt 0.919433594 0.405761719
vt 0.991210938 0.3984375
vt 0.0768432617 0.407958984
vt 0.0768432617 0.368408203
vt 0.0953369141 0.407958984
vt 0.0768432617 0.476318359
vt 0.112670898 0.476318359
vt 0.138671875 0.442138672
vt 0.148925781 0.476318359
vt 0.163330078 0.441650391
vt 0.98828125 0.59375
vt 0.98828125 0.55078125
vt 0.919433594 0.610839844
vt 0.873046875 0.583984375
vt 0.98828125 0.451416016
vt 0.889160156 0.463867188
vt 0.929199219 0.697265625
vt 0.774902344 0.463867188
vt 0.842773438 0.705078125
vt 0.941894531 0.728515625
vt 0.875976562 0.729980469
vt 0.774902344 0.583984375
vt 0.658691406 0.583984375
vt 0.774902344 0.697265625
vt 0.624511719 0.427734375
vt 0.706542969 0.705078125
vt 0.506835938 0.432617188
vt 0.620117188 0.697265625
vt 0.607421875 0.728515625
vt 0.673339844 0.729980469
vt 0.629882812 0.610839844
vt 0.486083984 0.55078125
vt 0.486083984 0.598632812
vt 0.455810547 0.645996094
vt 0.404052734 0.55078125
vt 0.406494141 0.477539062
vt 0.329589844 0.537597656
vt 0.419921875 0.440917969
vt 0.316162109 0.484130859
vt 0.219604492 0.483642578
vt 0.403076172 0.645019531
vt 0.402099609 0.684082031
vt 0.455810547 0.733398438
vt 0.402099609 0.733398438
vt 0.238891602 0.55078125
vt 0.095703125 0.55078125
vt 0.095703125 0.487548828
vt 0.176147461 0.645996094
vt 0.095703125 0.603515625
vt 0.233764648 0.645019531
vt 0.315917969 0.633300781
vt 0.370849609 0.677734375
vt 0.379394531 0.697753906
vt 0.260986328 0.677734375
vt 0.252441406 0.697753906
vt 0.228637695 0.684082031
vt 0.176147461 0.733398438
vt 0.228637695 0.733398438
vt 0.959960938 0.708984375
vt 0.935058594 0.782226562
vt 0.995117188 0.722167969
vt 0.942871094 0.755859375
vt 0.860351562 0.750488281
vt 0.825195312 0.770507812
vt 0.791992188 0.7265625
vt 0.791992188 0.744140625
vt 0.765136719 0.774414062
vt 0.798828125 0.76171875
vt 0.735839844 0.755371094
vt 0.729003906 0.77734375
vt 0.681640625 0.77734375
vt 0.669433594 0.738769531
vt 0.643066406 0.77734375
vt 0.702636719 0.00992584229
vt 0.667480469 0.00992584229
vt 0.667480469 0.101623535
vt 0.702636719 0.101623535
vt 0.667480469 0.135986328
vt 0.718261719 0.173461914
vt 0.7890625 0.0225219727
vt 0.788085938 0.101623535
vt 0.854492188 0.101623535
vt 0.77734375 0.206542969
vt 0.854492188 0.00992584229
vt 0.857910156 0.15625
vt 0.915527344 0.14050293
vt 0.926757812 0.00992584229
vt 0.926757812 0.101623535
vt 0.95703125 0.188476562
vt 0.993164062 0.101623535
vt 0.993164062 0.00992584229
vt 0.993164062 0.14465332
vt 0.0768432617 0.407958984
vt 0.0953369141 0.407958984
vt 0.0768432617 0.368408203
vt 0.0768432617 0.476318359
vt 0.112670898 0.476318359
vt 0.138671875 0.442138672
vt 0.148925781 0.476318359
vt 0.163330078 0.441650391
vt 0.935058594 0.782226562
vt 0.959960938 0.708984375
vt 0.995117188 0.722167969
vt 0.942871094 0.755859375
vt 0.860351562 0.750488281
vt 0.825195312 0.770507812
vt 0.791992188 0.7265625
vt 0.765136719 0.774414062
vt 0.791992188 0.744140625
vt 0.798828125 0.76171875
vt 0.735839844 0.755371094
vt 0.729003906 0.77734375
vt 0.681640625 0.77734375
vt 0.669433594 0.738769531
vt 0.643066406 0.77734375
vt 0.993164062 0.101623535
vt 0.993164062 0.14465332
vt 0.95703125 0.188476562
vt 0.926757812 0.101623535
vt 0.993164062 0.00992584229
vt 0.915527344 0.14050293
vt 0.854492188 0.101623535
vt 0.926757812 0.00992584229
vt 0.857910156 0.15625
vt 0.854492188 0.00992584229
vt 0.803222656 0.208007812
vt 0.7890625 0.0225219727
vt 0.788085938 0.101623535
vt 0.751464844 0.204956055
vt 0.733886719 0.169555664
vt 0.702636719 0.101623535
vt 0.685058594 0.156738281
vt 0.702636719 0.00992584229
vt 0.667480469 0.101623535
vt 0.667480469 0.00992584229
vt 0.147338867 0.243652344
vt 0.113891602 0.262451172
vt 0.141601562 0.280761719
vt 0.144775391 0.186645508
vt 0.194458008 0.258789062
vt 0.0692749023 0.205810547
vt 0.223388672 0.246826172
vt 0.231689453 0.162719727
vt 0.122009277 0.119567871
vt 0.0171051025 0.189331055
vt 0.0543212891 0.278808594
vt 0.0934448242 0.0712280273
vt 0.227172852 0.0856933594
vt 0.249023438 0.0107269287
vt 0.329345703 0.0510559082
vt 0.264648438 0.246337891
vt 0.241088867 0.269287109
vt 0.292236328 0.102783203
vt 0.274169922 0.200439453
vt 0.288818359 0.151611328
vt 0.294189453 0.239379883
vt 0.295654297 0.263671875
vt 0.304443359 0.194335938
vt 0.327392578 0.248413086
vt 0.338867188 0.288330078
vt 0.302246094 0.295410156
vt 0.329589844 0.333007812
vt 0.412109375 0.296630859
vt 0.392822266 0.273193359
vt 0.444824219 0.241943359
vt 0.352539062 0.241699219
vt 0.338134766 0.220825195
vt 0.343261719 0.180053711
vt 0.370849609 0.172729492
vt 0.401123047 0.236328125
vt 0.436279297 0.193725586
vt 0.458496094 0.169921875
vt 0.329589844 0.148925781
vt 0.303466797 0.130126953
vt 0.345703125 0.14074707
vt 0.423828125 0.155273438
vt 0.340820312 0.129638672
vt 0.381347656 0.136962891
vt 0.390869141 0.104980469
vt 0.423828125 0.0905151367
vt 0.385498047 0.0880737305
vt 0.337646484 0.088684082
vt 0.336914062 0.0798339844
vt 0.390869141 0.0608215332
vt 0.445556641 0.0133132935
vt 0.466064453 0.0777587891
vt 0.595703125 0.0661621094
vt 0.533203125 0.130004883
vt 0.66796875 0.179443359
vt 0.538085938 0.188842773
vt 0.494140625 0.246337891
vt 0.624023438 0.198120117
vt 0.618652344 0.264648438
vt 0.5859375 0.220092773
vt 0.429199219 0.928710938
vt 0.477050781 0.904785156
vt 0.476806641 0.846679688
vt 0.360351562 0.846679688
vt 0.346191406 0.955078125
vt 0.476806641 0.770507812
vt 0.435058594 0.955078125
vt 0.395019531 0.770507812
vt 0.435058594 0.995605469
vt 0.346191406 0.995605469
vt 0.354003906 0.794921875
vt 0.242919922 0.995605469
vt 0.243774414 0.834960938
vt 0.243774414 0.770507812
vt 0.243774414 0.955078125
vt 0.185058594 0.995605469
vt 0.151489258 0.956054688
vt 0.0885620117 0.995605469
vt 0.0848999023 0.958496094
vt 0.0166473389 0.901367188
vt 0.148071289 0.846191406
vt 0.150390625 0.772460938
vt 0.0166473389 0.846679688
vt 0.0166473389 0.770507812
vt 0.547851562 0.881835938
vt 0.55078125 0.863769531
vt 0.551269531 0.904296875
vt 0.537597656 0.894042969
vt 0.515625 0.899414062
vt 0.517089844 0.876464844
vt 0.518066406 0.856933594
vt 0.55078125 0.863769531
vt 0.071105957 0.990722656
vt 0.0494995117 0.990722656
vt 0.071105957 0.962402344
vt 0.0455932617 0.962402344
vt 0.0380554199 0.990722656
vt 0.0283966064 0.962402344
vt 0.0283966064 0.990722656
vt 0.00860595703 0.990722656
vt 0.00860595703 0.962402344
vt 0.698242188 0.937988281
vt 0.675292969 0.936523438
vt 0.699707031 0.916015625
vt 0.676757812 0.913574219
vt 0.642578125 0.911132812
vt 0.640625 0.934570312
vt 0.610351562 0.947265625
vt 0.621582031 0.954101562
vt 0.617675781 0.981933594
vt 0.595214844 0.981933594
vt 0.680664062 0.8828125
vt 0.702148438 0.88671875
vt 0.650390625 0.876464844
vt 0.624511719 0.871582031
vt 0.625976562 0.895019531
vt 0.5859375 0.8828125
vt 0.609375 0.9140625
vt 0.599121094 0.899414062
vt 0.565917969 0.913085938
vt 0.589355469 0.923339844
vt 0.589355469 0.941894531
vt 0.567871094 0.94140625
vt 0.564453125 0.981933594
vt 0.517578125 0.942382812
vt 0.514160156 0.997558594
vt 0.55859375 0.991699219
vt 0.55859375 0.927734375
vt 0.86328125 0.869140625
vt 0.849609375 0.834472656
vt 0.855957031 0.892089844
vt 0.81640625 0.893554688
vt 0.780761719 0.954589844
vt 0.784179688 0.889160156
vt 0.792480469 0.8359375
vt 0.775878906 0.839355469
vt 0.791015625 0.791992188
vt 0.749023438 0.947265625
vt 0.743164062 0.872558594
vt 0.759277344 0.858886719
vt 0.73046875 0.835449219
vt 0.837402344 0.94140625
vt 0.828125 0.978027344
vt 0.875976562 0.957519531
vt 0.853515625 0.980957031
vt 0.879882812 0.984375
vt 0.920410156 0.995117188
vt 0.875488281 0.930175781
vt 0.902832031 0.90625
vt 0.909179688 0.880859375
vt 0.884765625 0.875976562
vt 0.9375 0.862304688
vt 0.938964844 0.895996094
vt 0.958496094 0.862792969
vt 0.974609375 0.837402344
vt 0.96484375 0.827636719
vt 0.890625 0.794921875
vt 0.830566406 0.791992188
vt 0.873535156 0.826660156
vt 0.967773438 0.814941406
vt 0.96484375 0.801269531
vt 0.747070312 0.884765625
vt 0.717773438 0.868164062
vt 0.721679688 0.891113281
vt 0.749023438 0.947265625
vt 0.9375 0.983886719
vt 0.961425781 0.958496094
vt 0.939941406 0.977539062
vt 0.955566406 0.986816406
vt 0.944824219 0.995117188
vt 0.966796875 0.983398438
vt 0.987792969 0.972167969
vt 0.979492188 0.964355469
vt 0.9921875 0.935058594
vt 0.913085938 0.956054688
vt 0.926269531 0.950195312
vt 0.901367188 0.928710938
vt 0.9375 0.968261719
vt 0.0166473389 0.846679688
vt 0.0556030273 0.917480469
vt 0.0166473389 0.8984375
vt 0.147094727 0.846191406
vt 0.0166473389 0.770507812
vt 0.15222168 0.768554688
vt 0.243774414 0.770507812
vt 0.148925781 0.954101562
vt 0.0848999023 0.958496094
vt 0.0885620117 0.995605469
vt 0.185058594 0.995605469
vt 0.243774414 0.834960938
vt 0.362304688 0.785644531
vt 0.243774414 0.955078125
vt 0.346191406 0.955078125
vt 0.242919922 0.995605469
vt 0.346191406 0.995605469
vt 0.435058594 0.995605469
vt 0.435058594 0.955078125
vt 0.438720703 0.927734375
vt 0.360351562 0.846679688
vt 0.476806641 0.770507812
vt 0.476806641 0.846679688
vt 0.386962891 0.732421875
vt 0.352783203 0.724121094
vt 0.355712891 0.739746094
vt 0.384277344 0.75
vt 0.331054688 0.720703125
vt 0.358642578 0.755371094
vt 0.319335938 0.741699219
vt 0.337402344 0.760253906
vt 0.51953125 0.813476562
vt 0.520019531 0.841796875
vt 0.526855469 0.807617188
vt 0.482177734 0.805664062
vt 0.489013672 0.813964844
vt 0.49609375 0.848144531
vt 0.0172119141 0.00770187378
vt 0.0746459961 0.0185699463
vt 0.0855102539 0.00574493408
vt 0.0614318848 0.0874023438
vt 0.058380127 0.0742797852
vt 0.0113372803 0.0866088867
vt 0.0217590332 0.0744628906
vt 0.00658798218 0.0510253906
vt 0.0229492188 0.0256500244
vt 0.00872802734 0.0317993164
vt 0.272949219 0.7265625
vt 0.259521484 0.719726562
vt 0.267822266 0.751953125
vt 0.298583984 0.716796875
vt 0.293457031 0.724121094
vt 0.288330078 0.7578125
vt 0.591308594 0.705078125
vt 0.598144531 0.657714844
vt 0.564453125 0.686035156
vt 0.561035156 0.728027344
vt 0.540527344 0.631347656
vt 0.520507812 0.705566406
vt 0.511230469 0.658691406
vt 0.100463867 0.697265625
vt 0.124328613 0.645996094
vt 0.0853881836 0.645019531
vt 0.146240234 0.688964844
vt 0.0447387695 0.688476562
vt 0.134155273 0.737304688
vt 0.0791625977 0.74609375
vt 0.518066406 0.856933594
vt 0.544433594 0.873046875
vt 0.552246094 0.850585938
vt 0.555664062 0.865234375
vt 0.551269531 0.904296875
vt 0.517089844 0.875976562
vt 0.537597656 0.894042969
vt 0.514648438 0.898925781
vt 0.386962891 0.732421875
vt 0.355712891 0.739746094
vt 0.352783203 0.724121094
vt 0.384277344 0.75
vt 0.331054688 0.720703125
vt 0.358642578 0.755371094
vt 0.319335938 0.741699219
vt 0.337402344 0.760253906
vt 0.749023438 0.947265625
vt 0.708984375 0.946289062
vt 0.701660156 0.971191406
vt 0.730957031 0.983398438
vt 0.669921875 0.979492188
vn 0.743652344 0.150146484 0.651855469
vn 0.651367188 0.21862793 0.7265625
vn 0.768066406 0.134643555 0.625976562
vn 0.518554688 0.448974609 0.727539062
vn -0.628417969 -0.374755859 -0.681640625
vn 0.645996094 0.479248047 0.594238281
vn 0.600097656 0.275878906 0.750488281
vn -0.628417969 -0.374755859 -0.681640625
vn 0.518554688 0.448974609 0.727539062
vn 0.731933594 0.299316406 0.612304688
vn -0.628417969 -0.374755859 -0.681640625
vn 0.600097656 0.275878906 0.750488281
vn -0.628417969 -0.374755859 -0.681640625
vn 0.731933594 0.299316406 0.612304688
vn 0.645996094 0.479248047 0.594238281
vn 0.715820312 0.272216797 0.643066406
vn 0.754882812 0.115844727 0.645507812
vn 0.640136719 0.705078125 0.305419922
vn 0.715820312 0.272216797 0.643066406
vn 0.448974609 0.724609375 0.522949219
vn 0.704589844 0.204223633 0.6796875
vn -0.153076172 0.879394531 0.450439453
vn -0.503417969 0.857910156 0.102050781
vn 0.266113281 0.953613281 0.140869141
vn -0.308837891 -0.823730469 -0.475097656
vn -0.308837891 -0.823730469 -0.475097656
vn -0.308837891 -0.823730469 -0.475097656
vn -0.95703125 -0.0334777832 0.288574219
vn -0.979980469 -0.0692138672 0.186523438
vn -0.217651367 0.164672852 -0.961914062
vn -0.291259766 0.0437316895 -0.955566406
vn 0.368896484 0.485351562 -0.79296875
vn 0.929199219 0.364990234 -0.0570983887
vn -0.239868164 0.579589844 0.778808594
vn 0.193359375 0.123291016 0.973144531
vn -0.95703125 -0.0334777832 0.288574219
vn -0.979980469 -0.0692138672 0.186523438
vn -0.310058594 -0.0596313477 -0.948730469
vn -0.957519531 -0.146972656 0.249023438
vn 0.305664062 0.0596923828 -0.950195312
vn 0.638183594 0.18359375 -0.747558594
vn 0.579101562 0.482177734 -0.657226562
vn 0.833496094 0.256103516 0.489501953
vn 0.0863647461 0.993164062 0.0768432617
vn 0.738769531 0.487792969 0.465087891
vn -0.0649414062 0.046295166 0.996582031
vn -0.130615234 0.387695312 0.912597656
vn -0.534667969 -0.0294799805 0.844726562
vn -0.520019531 -0.0757446289 0.850585938
vn -0.957519531 -0.146972656 0.249023438
vn -0.212646484 0.969726562 -0.118103027
vn -0.212402344 0.970214844 -0.116943359
vn -0.216064453 0.967285156 -0.134399414
vn -0.207885742 0.973632812 -0.0951538086
vn 0.673339844 -0.106750488 -0.731933594
vn 0.761230469 -0.385742188 -0.521484375
vn 0.454345703 -0.4375 0.775878906
vn -0.0200653076 -0.417236328 0.908691406
vn -0.653808594 0.147827148 0.7421875
vn -0.731445312 0.399414062 -0.552734375
vn -0.683105469 0.381347656 -0.622558594
vn 0.673339844 -0.106750488 -0.731933594
vn 0.761230469 -0.385742188 -0.521484375
vn 0.743652344 0.150146484 0.651855469
vn 0.768066406 0.134643555 0.625976562
vn 0.810546875 0.0119094849 0.585449219
vn 0.80859375 0.00266647339 0.588867188
vn 0.736328125 -0.0737304688 0.672363281
vn 0.725585938 -0.0766601562 0.684082031
vn 0.590820312 -0.0763549805 0.803222656
vn 0.649902344 0.193481445 0.734863281
vn 0.67578125 -0.100158691 0.73046875
vn 0.651367188 0.21862793 0.7265625
vn 0.743652344 0.150146484 0.651855469
vn 0.67578125 -0.100158691 0.73046875
vn 0.848144531 -0.00491714478 0.530273438
vn 0.722167969 -0.0665893555 0.688964844
vn 0.590820312 -0.0763549805 0.803222656
vn 0.645996094 0.479248047 0.594238281
vn 0.600097656 0.275878906 0.750488281
vn 0.518554688 0.448974609 0.727539062
vn 0.731933594 0.299316406 0.612304688
vn 0.745117188 -0.051940918 -0.664550781
vn 0.494384766 -0.859863281 0.125732422
vn 0.271484375 0.897949219 -0.346191406
vn 0.69140625 -0.590820312 0.415283203
vn 0.445800781 -0.752929688 0.483886719
vn 0.522460938 -0.803710938 0.284912109
vn 0.616210938 0.78125 0.101501465
vn 0.605957031 0.756347656 0.245605469
vn 0.373291016 -0.600097656 -0.707519531
vn 0.888671875 0.316894531 -0.331787109
vn -0.486572266 0.0410461426 -0.872558594
vn -0.0373535156 0.0213317871 -0.999023438
vn 0.485107422 -0.801269531 -0.350585938
vn 0.342285156 -0.7890625 0.510253906
vn 0.459228516 -0.583007812 0.670410156
vn -0.133544922 -0.336425781 0.932128906
vn -0.22668457 0.604003906 0.764160156
vn -0.205566406 0.688476562 0.695800781
vn -0.199462891 0.971191406 0.12878418
vn -0.0380859375 0.965332031 0.2578125
vn -0.349609375 0.91796875 -0.186645508
vn -0.0373535156 0.0213317871 -0.999023438
vn -0.486572266 0.0410461426 -0.872558594
vn -0.353515625 0.390136719 -0.850097656
vn 0.373291016 -0.600097656 -0.707519531
vn 0.888671875 0.316894531 -0.331787109
vn 0.69140625 -0.590820312 0.415283203
vn 0.745117188 -0.051940918 -0.664550781
vn 0.271484375 0.897949219 -0.346191406
vn -0.192382812 0.919921875 -0.341552734
vn 0.616210938 0.78125 0.101501465
vn 0.494384766 -0.859863281 0.125732422
vn 0.6875 -0.584960938 0.430664062
vn 0.619140625 -0.420410156 -0.663085938
vn -0.347167969 -0.424804688 0.8359375
vn -0.505371094 -0.588867188 0.630859375
vn -0.693847656 -0.347167969 0.630859375
vn -0.0582275391 -0.821777344 -0.566894531
vn 0.229248047 -0.67578125 -0.700683594
vn -0.404052734 -0.441894531 0.80078125
vn 0.565429688 -0.0725097656 0.821777344
vn 0.492919922 -0.869140625 0.0448608398
vn 0.881347656 0.456054688 0.122009277
vn 0.611816406 -0.141113281 0.778320312
vn 0.971679688 0.213500977 -0.101013184
vn -0.702148438 -0.513671875 0.493164062
vn -0.907714844 -0.387207031 0.161254883
vn -0.6328125 -0.0124435425 -0.773925781
vn -0.73828125 0.077331543 -0.669921875
vn 0.196899414 0.359130859 -0.912109375
vn 0.640136719 0.3359375 -0.690917969
vn -0.0480041504 -0.116455078 -0.9921875
vn 0.659179688 0.154296875 -0.736328125
vn 0.900878906 0.37890625 -0.212402344
vn 0.229248047 -0.67578125 -0.700683594
vn -0.347167969 -0.424804688 0.8359375
vn 0.619140625 -0.420410156 -0.663085938
vn 0.6875 -0.584960938 0.430664062
vn -0.505371094 -0.588867188 0.630859375
vn 0.492919922 -0.869140625 0.0448608398
vn 0.565429688 -0.0725097656 0.821777344
vn 0.881347656 0.456054688 0.122009277
vn 0.971679688 0.213500977 -0.101013184
vn 0.760742188 -0.0400085449 0.647949219
vn 0.715820312 0.272216797 0.643066406
vn 0.396484375 0.243896484 0.885253906
vn 0.932617188 -0.189208984 0.307373047
vn -0.340332031 -0.0978393555 0.935058594
vn -0.725585938 0.513671875 0.458007812
vn -0.604492188 0.727539062 -0.324462891
vn -0.0978393555 0.995117188 0.0244598389
vn 0.369873047 -0.894042969 0.253417969
vn -0.4765625 -0.544433594 0.690429688
vn -0.803222656 -0.525390625 0.281005859
vn -0.932617188 -0.193603516 -0.303955078
vn -0.735839844 -0.0503234863 0.675292969
vn -0.91796875 -0.34375 -0.197631836
vn -0.959472656 0.260742188 0.109008789
vn -0.677246094 -0.270751953 -0.684082031
vn -0.991699219 -0.0190734863 -0.127685547
vn -0.12487793 0.989257812 -0.0734863281
vn -0.0485839844 0.982910156 0.178466797
vn -0.644042969 -0.180541992 -0.743652344
vn -0.295410156 -0.209594727 -0.932128906
vn -0.790527344 -0.0784301758 -0.607421875
vn -0.0881347656 -0.0547180176 -0.994628906
vn -0.577148438 0.141967773 -0.804199219
vn 0.826660156 0.112854004 -0.551269531
vn -0.613769531 0.344238281 -0.710449219
vn 0.617675781 0.524902344 -0.585449219
vn 0.208496094 0.934082031 -0.289550781
vn -0.791503906 0.201904297 0.577148438
vn 0.760253906 -0.0345458984 -0.6484375
vn 0.816894531 -0.447265625 0.364257812
vn 0.911132812 -0.021987915 -0.411376953
vn 0.989257812 0.139404297 -0.046661377
vn 0.969238281 0.211547852 -0.124023438
vn 0.692871094 0.143310547 0.70703125
vn 0.917480469 0.256835938 -0.304443359
vn 0.612792969 0.19140625 0.766601562
vn 0.108032227 0.185791016 0.9765625
vn 0.939453125 0.288330078 0.184448242
vn 0.740722656 0.671875 -0.00675582886
vn 0.617675781 0.524902344 -0.585449219
vn 0.208496094 0.934082031 -0.289550781
vn 0.224853516 -0.259521484 0.939453125
vn -0.4765625 -0.544433594 0.690429688
vn -0.735839844 -0.0503234863 0.675292969
vn 0.995117188 0.0964355469 -0.0173797607
vn 0.369873047 -0.894042969 0.253417969
vn 0.886230469 0.307617188 0.346923828
vn 0.715820312 0.272216797 0.643066406
vn 0.704589844 0.204223633 0.6796875
vn 0.448974609 0.724609375 0.522949219
vn 0.754882812 0.115844727 0.645507812
vn 0.640136719 0.705078125 0.305419922
vn 0.506835938 0.811035156 0.292480469
vn -0.12487793 0.989257812 -0.0734863281
vn -0.0485839844 0.982910156 0.178466797
vn -0.0978393555 0.995117188 0.0244598389
vn -0.211669922 0.926269531 0.311767578
vn -0.324951172 0.945800781 0.00161075592
vn -0.725585938 0.513671875 0.458007812
vn 0.396484375 0.243896484 0.885253906
vn 0.640136719 0.705078125 0.305419922
vn 0.715820312 0.272216797 0.643066406
vn -0.324951172 0.945800781 0.00161075592
vn -0.991699219 -0.0190734863 -0.127685547
vn -0.790527344 -0.0784301758 -0.607421875
vn -0.211669922 0.926269531 0.311767578
vn -0.0485839844 0.982910156 0.178466797
vn 0.506835938 0.811035156 0.292480469
vn 0.640136719 0.705078125 0.305419922
vn 0.886230469 0.307617188 0.346923828
vn 0.995117188 0.0964355469 -0.0173797607
vn 0.369873047 -0.894042969 0.253417969
vn 0.395019531 -0.908203125 0.138549805
vn 0.8203125 0.337890625 -0.461425781
vn 0.485107422 -0.801269531 -0.350585938
vn -0.0373535156 0.0213317871 -0.999023438
vn -0.12487793 0.989257812 -0.0734863281
vn -0.180541992 0.958496094 -0.220458984
vn -0.932128906 0.0700683594 0.355712891
vn -0.199462891 0.971191406 0.12878418
vn -0.959472656 0.260742188 0.109008789
vn -0.22668457 0.604003906 0.764160156
vn -0.133544922 -0.336425781 0.932128906
vn -0.803222656 -0.525390625 0.281005859
vn -0.534179688 -0.734375 0.418701172
vn 0.342285156 -0.7890625 0.510253906
vn 0.395019531 -0.908203125 0.138549805
vn 0.369873047 -0.894042969 0.253417969
vn 0.485107422 -0.801269531 -0.350585938
vn 0.760742188 -0.0400085449 0.647949219
vn 0.854492188 0.484130859 0.18762207
vn 0.715820312 0.272216797 0.643066406
vn 0.932617188 -0.189208984 0.307373047
vn 0.718261719 0.250244141 -0.649414062
vn 0.226318359 0.795410156 -0.562011719
vn -0.604492188 0.727539062 -0.324462891
vn -0.0978393555 0.995117188 0.0244598389
vn 0.0403442383 0.996582031 0.0710449219
vn -0.0978393555 0.995117188 0.0244598389
vn -0.324951172 0.945800781 0.00161075592
vn 0.226318359 0.795410156 -0.562011719
vn 0.854492188 0.484130859 0.18762207
vn 0.448974609 0.724609375 0.522949219
vn 0.715820312 0.272216797 0.643066406
vn -0.577148438 0.141967773 -0.804199219
vn -0.324951172 0.945800781 0.00161075592
vn -0.790527344 -0.0784301758 -0.607421875
vn 0.0403442383 0.996582031 0.0710449219
vn 0.208496094 0.934082031 -0.289550781
vn 0.740722656 0.671875 -0.00675582886
vn 0.448974609 0.724609375 0.522949219
vn 0.939453125 0.288330078 0.184448242
vn -0.388427734 -0.461914062 0.797363281
vn 0.611816406 -0.141113281 0.778320312
vn -0.404052734 -0.441894531 0.80078125
vn -0.879882812 -0.0941162109 0.465576172
vn 0.816894531 -0.447265625 0.364257812
vn -0.907714844 -0.387207031 0.161254883
vn -0.555175781 0.654296875 -0.513671875
vn -0.791503906 0.201904297 0.577148438
vn -0.73828125 0.077331543 -0.669921875
vn -0.613769531 0.344238281 -0.710449219
vn 0.196899414 0.359130859 -0.912109375
vn 0.617675781 0.524902344 -0.585449219
vn 0.577636719 0.444580078 -0.684570312
vn 0.640136719 0.3359375 -0.690917969
vn 0.971679688 0.213500977 -0.101013184
vn 0.912109375 -0.376464844 0.162353516
vn 0.611816406 -0.141113281 0.778320312
vn 0.911132812 -0.021987915 -0.411376953
vn -0.388427734 -0.461914062 0.797363281
vn 0.816894531 -0.447265625 0.364257812
vn -0.703125 -0.549804688 0.450927734
vn -0.799316406 -0.470947266 0.373046875
vn -0.839355469 -0.348632812 0.417236328
vn -0.484863281 -0.737304688 0.470458984
vn -0.511230469 -0.602539062 0.612792969
vn -0.708007812 -0.67578125 -0.206176758
vn -0.315917969 -0.59765625 0.736816406
vn -0.28125 -0.744140625 0.605957031
vn -0.375 -0.922851562 -0.0863647461
vn -0.485839844 -0.505859375 -0.712890625
vn -0.836914062 -0.275146484 -0.473388672
vn -0.178710938 -0.657226562 -0.732421875
vn -0.11932373 -0.962890625 0.241455078
vn 0.0679321289 -0.893554688 -0.443603516
vn 0.477050781 -0.870117188 0.122802734
vn -0.173095703 -0.424316406 0.888671875
vn -0.203735352 -0.243774414 0.948242188
vn 0.208618164 -0.744140625 0.634277344
vn 0.256591797 -0.486083984 0.835449219
vn 0.219726562 -0.406738281 0.88671875
vn 0.65625 -0.227539062 0.719238281
vn 0.422119141 0.172119141 0.890136719
vn 0.696777344 0.0670776367 0.714355469
vn 0.666992188 0.0141525269 0.745117188
vn 0.564941406 0.51171875 0.646972656
vn 0.57421875 0.188232422 0.796386719
vn 0.704101562 0.539550781 0.461914062
vn 0.337646484 0.911621094 0.234008789
vn 0.551757812 0.788574219 0.271728516
vn 0.608886719 0.755859375 -0.241943359
vn 0.884277344 0.169311523 0.435546875
vn 0.467773438 -0.377685547 0.798828125
vn 0.738769531 0.0977783203 0.666992188
vn 0.946777344 0.16394043 0.27734375
vn 0.944824219 0.306884766 0.11505127
vn 0.857421875 0.362548828 -0.365722656
vn 0.607910156 0.210449219 -0.765625
vn 0.697753906 0.011932373 0.715820312
vn 0.715332031 -0.538085938 0.445556641
vn 0.929199219 -0.0480041504 0.365966797
vn 0.926269531 0.297851562 -0.230834961
vn 0.849121094 -0.104553223 0.517578125
vn 0.956054688 0.151855469 0.25
vn 1 0.0195617676 -0.00255012512
vn 0.747070312 0.076965332 -0.66015625
vn 0.932128906 0.340576172 0.12487793
vn 0.849121094 -0.104553223 0.517578125
vn 0.736816406 0.0854492188 0.670410156
vn 0.658691406 -0.63671875 -0.401123047
vn 0.0679321289 -0.893554688 -0.443603516
vn 0.346923828 -0.482666016 -0.804199219
vn -0.178710938 -0.657226562 -0.732421875
vn 0.219482422 -0.235839844 -0.946777344
vn -0.485839844 -0.505859375 -0.712890625
vn 0.368408203 0.158691406 -0.916015625
vn 0.534667969 0.257324219 -0.8046875
vn -0.180419922 -0.413574219 -0.892578125
vn -0.66015625 -0.146606445 -0.736816406
vn 0.133911133 0.0817260742 -0.987792969
vn 0.556152344 0.0144958496 0.831054688
vn -0.00201416016 -1 -0.0160369873
vn 0.845703125 -0.470214844 0.251953125
vn 0.0470275879 0.532714844 0.844726562
vn 0.239746094 0.463867188 0.853027344
vn 0.965820312 -0.230102539 0.12121582
vn 0.641113281 0.0346679688 0.766601562
vn 0.734375 0.111938477 0.669433594
vn 0.612792969 0.19140625 0.766601562
vn 0.108032227 0.185791016 0.9765625
vn -0.636230469 0.391357422 0.665039062
vn -0.735839844 -0.0503234863 0.675292969
vn -0.835449219 0.544433594 0.0786132812
vn -0.89453125 0.433837891 -0.108337402
vn -0.8125 0.515136719 0.272216797
vn -0.91796875 -0.34375 -0.197631836
vn -0.368408203 -0.814941406 -0.447509766
vn -0.677246094 -0.270751953 -0.684082031
vn -0.191772461 -0.978515625 -0.0740356445
vn -0.00201416016 -1 -0.0160369873
vn -0.0637817383 -0.607910156 -0.791503906
vn 0.101501465 -0.161254883 -0.981933594
vn 0.845703125 -0.470214844 0.251953125
vn 0.965820312 -0.230102539 0.12121582
vn -0.599121094 -0.583007812 0.548828125
vn -0.69921875 -0.516601562 0.494384766
vn 0.145874023 -0.554199219 0.819335938
vn 0.291503906 -0.625976562 0.723144531
vn 0.482421875 -0.79296875 0.372558594
vn -0.399169922 -0.524902344 0.751464844
vn 0.344970703 -0.776855469 0.526855469
vn 0.528320312 -0.306152344 0.791992188
vn -0.399169922 -0.524902344 0.751464844
vn 0.528320312 -0.306152344 0.791992188
vn -0.959960938 -0.0495300293 0.275390625
vn 0.690917969 -0.0505065918 0.721191406
vn 0.874511719 -0.00394439697 -0.484863281
vn -0.174316406 -0.0481872559 -0.983398438
vn -0.233276367 -0.0317077637 -0.971679688
vn -0.399169922 -0.524902344 0.751464844
vn -0.959960938 -0.0495300293 0.275390625
vn 0.791503906 -0.0501708984 -0.609375
vn -0.506347656 0.616699219 -0.602539062
vn 0.791992188 -0.0271148682 -0.609863281
vn -0.4375 0.5703125 -0.6953125
vn -0.600097656 0.793945312 0.0999145508
vn -0.527832031 0.270996094 0.805175781
vn 0.828613281 0.204833984 0.520996094
vn 0.62109375 -0.383056641 0.684082031
vn 0.791503906 -0.0501708984 -0.609375
vn 0.791992188 -0.0271148682 -0.609863281
vn -0.415771484 0.539550781 -0.731933594
vn 0.797363281 -0.0823364258 -0.598144531
vn -0.817382812 0.515136719 -0.257080078
vn -0.885742188 0.439697266 0.149658203
vn -0.69140625 0.653808594 0.307128906
vn -0.200439453 -0.228759766 0.952636719
vn 0.288085938 0.746582031 0.599609375
vn -0.0819702148 -0.0105819702 0.996582031
vn 0.702636719 -0.512695312 0.493164062
vn 0.803222656 -0.154174805 0.575683594
vn 0.916992188 -0.395263672 0.0530700684
vn 0.896972656 -0.440185547 0.0436401367
vn 0.797363281 -0.0823364258 -0.598144531
vn 0.400634766 0.877929688 0.262451172
vn 0.382324219 0.892089844 0.239990234
vn 0.401611328 0.876953125 0.263671875
vn 0.422851562 0.858398438 0.290283203
vn -0.620117188 -0.37890625 0.687011719
vn -0.753417969 -0.327392578 0.5703125
vn -0.682617188 0.156494141 0.713867188
vn -0.900878906 0.271240234 0.338134766
vn -0.503417969 0.857910156 0.102050781
vn -0.834472656 0.508789062 -0.211791992
vn -0.993652344 -0.0873413086 -0.0708618164
vn -0.977539062 -0.0789794922 -0.194335938
vn -0.900390625 -0.295898438 -0.318359375
vn -0.402832031 0.755371094 -0.516601562
vn -0.846679688 0.0960083008 -0.5234375
vn -0.977539062 -0.0789794922 -0.194335938
vn -0.900390625 -0.295898438 -0.318359375
vn -0.621582031 0.522460938 0.583496094
vn -0.153076172 0.879394531 0.450439453
vn -0.232788086 0.262695312 0.936523438
vn -0.11706543 0.275146484 0.954101562
vn 0.143310547 -0.129272461 0.980957031
vn -0.128173828 -0.299072266 0.945800781
vn -0.457275391 -0.108520508 0.8828125
vn -0.128173828 -0.299072266 0.945800781
vn -0.451416016 -0.271484375 0.850097656
vn -0.620117188 -0.37890625 0.687011719
vn 0.328125 0.520996094 0.788085938
vn 0.737792969 0.227294922 0.635742188
vn -0.11706543 0.275146484 0.954101562
vn -0.153076172 0.879394531 0.450439453
vn 0.266113281 0.953613281 0.140869141
vn 0.793945312 0.480712891 0.372558594
vn 0.737792969 0.227294922 0.635742188
vn 0.328125 0.520996094 0.788085938
vn 0.266113281 0.953613281 0.140869141
vn 0.974609375 -0.0213623047 0.22277832
vn -0.846679688 0.0960083008 -0.5234375
vn -0.745117188 -0.125 -0.655273438
vn -0.689941406 0.278076172 -0.668457031
vn -0.402832031 0.755371094 -0.516601562
vn 0.266113281 0.953613281 0.140869141
vn 0.668457031 0.720703125 -0.18347168
vn 0.974609375 -0.0213623047 0.22277832
vn 0.0448608398 0.958984375 -0.280517578
vn -0.503417969 0.857910156 0.102050781
vn -0.402832031 0.755371094 -0.516601562
vn 0.246337891 0.604492188 -0.7578125
vn 0.627441406 0.580078125 -0.520019531
vn 0.731933594 0.305175781 -0.609375
vn -0.689941406 0.278076172 -0.668457031
vn -0.259033203 0.330566406 -0.907714844
vn -0.402832031 0.755371094 -0.516601562
vn -0.399658203 0.177978516 -0.898925781
vn -0.421142578 0.189453125 0.887207031
vn -0.00201416016 -1 -0.0160369873
vn 0.556152344 0.0144958496 0.831054688
vn -0.360107422 -0.915039062 -0.181762695
vn -0.292724609 0.234985352 0.926757812
vn -0.821289062 -0.482177734 -0.304931641
vn 0.424316406 -0.0825195312 -0.901855469
vn -0.0979003906 -0.951171875 -0.291992188
vn -0.191772461 -0.978515625 -0.0740356445
vn -0.677246094 -0.270751953 -0.684082031
vn -0.0684814453 -0.754394531 -0.652832031
vn 0.623046875 -0.045135498 -0.78125
vn 0.900390625 0.362792969 0.239501953
vn 0.516601562 -0.424560547 -0.743652344
vn 0.504394531 0.854492188 -0.123352051
vn 0.578125 0.208251953 -0.788574219
vn 0.969238281 0.211547852 -0.124023438
vn 0.612792969 0.19140625 0.766601562
vn 0.641113281 0.0346679688 0.766601562
vn 0.556152344 0.0144958496 0.831054688
vn 0.530761719 0.806152344 0.261962891
vn -0.292724609 0.234985352 0.926757812
vn -0.421142578 0.189453125 0.887207031
vn 0.241699219 -0.966796875 0.0838623047
vn 0.241699219 -0.966796875 0.0838623047
vn 0.241699219 -0.966796875 0.0838623047
vn 0.241699219 -0.966796875 0.0838623047
vn 0.241699219 -0.966796875 0.0838623047
vn 0.241699219 -0.966796875 0.0838623047
vn 0.241699219 -0.966796875 0.0838623047
vn 0.241699219 -0.966796875 0.0838623047
vn 0.934082031 0.335693359 0.123291016
vn 0.794433594 0.429199219 0.429443359
vn 0.451904297 -0.0776367188 -0.888671875
vn 0.172973633 -0.970214844 0.168823242
vn 0.831542969 -0.0684204102 0.55078125
vn 0.788574219 0.34375 0.509765625
vn 0.796875 0.262451172 0.543945312
vn 0.704589844 0.123535156 0.698730469
vn 0.704589844 0.137695312 0.696289062
vn 0.716796875 -0.0390625 0.696289062
vn 0.728515625 -0.0476074219 0.68359375
vn 0.880371094 -0.0121688843 0.473632812
vn 0.88671875 -0.0245666504 0.462158203
vn 0.848144531 -0.00491714478 0.530273438
vn 0.832519531 0.209350586 0.513183594
vn 0.722167969 -0.0665893555 0.688964844
vn 0.442382812 -0.197998047 0.875
vn -0.334228516 -0.887695312 0.316894531
vn 0.541992188 0.120178223 0.831542969
vn 0.672363281 -0.434082031 -0.599609375
vn 0.881347656 -0.0413513184 0.470458984
vn 0.630371094 0.130981445 0.765136719
vn 0.845703125 0.528320312 0.0733642578
vn 0.9765625 -0.209594727 0.0512084961
vn 0.709960938 -0.0183868408 0.704101562
vn 0.273925781 0.416015625 0.8671875
vn 0.545410156 -0.352050781 0.760253906
vn 0.147705078 -0.0286865234 0.988769531
vn 0.215698242 -0.204589844 0.954589844
vn 0.91015625 0.305175781 0.279541016
vn 0.677246094 -0.541992188 0.497070312
vn 0.606933594 -0.0892944336 0.789550781
vn 0.816894531 -0.574707031 0.0522155762
vn 0.674316406 0.526855469 0.517089844
vn 0.937988281 0.158691406 -0.307861328
vn 0.75 0.661621094 0.0126724243
vn -0.334228516 -0.937011719 0.102905273
vn -0.339599609 -0.918945312 0.200683594
vn -0.435302734 -0.897949219 0.0641479492
vn -0.764160156 -0.385986328 0.516601562
vn 0.326416016 -0.889160156 0.320556641
vn -0.313476562 -0.939453125 0.138427734
vn 0.165649414 -0.963867188 0.208129883
vn -0.317382812 -0.901367188 0.293945312
vn -0.393798828 -0.870117188 -0.296875
vn -0.393798828 -0.870117188 -0.296875
vn -0.393798828 -0.870117188 -0.296875
vn -0.393798828 -0.870117188 -0.296875
vn -0.393798828 -0.870117188 -0.296875
vn -0.393798828 -0.870117188 -0.296875
vn -0.393798828 -0.870117188 -0.296875
vn -0.393798828 -0.870117188 -0.296875
vn -0.402832031 0.755371094 -0.516601562
vn -0.259033203 0.330566406 -0.907714844
vn 0.078918457 0.477539062 -0.875
vn 0.246337891 0.604492188 -0.7578125
vn 0.26953125 0.290283203 -0.918457031
g A_Monster_Zombie_10_lod_gpuskinmesh_0
f 3/3/3 2/2/2 1/1/1
f 6/6/6 5/5/5 4/4/4
f 9/9/9 8/8/8 7/7/7
f 12/12/12 11/11/11 10/10/10
f 15/15/15 14/14/14 13/13/13
f 18/18/18 17/17/17 16/16/16
f 21/21/21 20/20/20 19/19/19
f 24/24/24 23/23/23 22/22/22
f 27/27/27 26/26/26 25/25/25
f 30/30/30 29/29/29 28/28/28
f 31/31/31 29/29/29 30/30/30
f 31/31/31 30/30/30 32/32/32
f 32/32/32 30/30/30 33/33/33
f 34/34/34 32/32/32 33/33/33
f 33/33/33 35/35/35 34/34/34
f 34/34/34 35/35/35 36/36/36
f 36/36/36 37/37/37 34/34/34
f 29/29/29 31/31/31 38/38/38
f 39/39/39 29/29/29 38/38/38
f 40/40/40 38/38/38 31/31/31
f 31/31/31 32/32/32 40/40/40
f 41/41/41 40/40/40 32/32/32
f 32/32/32 42/42/42 41/41/41
f 43/43/43 41/41/41 42/42/42
f 44/44/44 42/42/42 32/32/32
f 32/32/32 34/34/34 44/44/44
f 42/42/42 45/45/45 43/43/43
f 45/45/45 42/42/42 44/44/44
f 46/46/46 43/43/43 45/45/45
f 45/45/45 44/44/44 47/47/47
f 44/44/44 34/34/34 47/47/47
f 45/45/45 47/47/47 46/46/46
f 47/47/47 34/34/34 48/48/48
f 46/46/46 47/47/47 48/48/48
f 34/34/34 37/37/37 48/48/48
f 48/48/48 49/49/49 46/46/46
f 37/37/37 49/49/49 48/48/48
f 50/50/50 49/49/49 37/37/37
f 53/53/53 52/52/52 51/51/51
f 52/52/52 54/54/54 51/51/51
f 57/57/57 56/56/56 55/55/55
f 58/58/58 56/56/56 57/57/57
f 59/59/59 58/58/58 57/57/57
f 58/58/58 59/59/59 60/60/60
f 61/61/61 60/60/60 59/59/59
f 61/61/61 62/62/62 60/60/60
f 63/63/63 60/60/60 62/62/62
f 66/66/66 65/65/65 64/64/64
f 67/67/67 65/65/65 66/66/66
f 67/67/67 66/66/66 68/68/68
f 69/69/69 68/68/68 66/66/66
f 68/68/68 69/69/69 70/70/70
f 71/71/71 70/70/70 69/69/69
f 70/70/70 71/71/71 72/72/72
f 73/73/73 72/72/72 71/71/71
f 71/71/71 74/74/74 73/73/73
f 77/77/77 76/76/76 75/75/75
f 78/78/78 75/75/75 76/76/76
f 81/81/81 80/80/80 79/79/79
f 82/82/82 79/79/79 80/80/80
f 85/85/85 84/84/84 83/83/83
f 86/86/86 83/83/83 84/84/84
f 87/87/87 86/86/86 84/84/84
f 88/88/88 86/86/86 87/87/87
f 87/87/87 84/84/84 89/89/89
f 90/90/90 87/87/87 89/89/89
f 88/88/88 91/91/91 86/86/86
f 92/92/92 86/86/86 91/91/91
f 93/93/93 91/91/91 88/88/88
f 88/88/88 94/94/94 93/93/93
f 95/95/95 94/94/94 88/88/88
f 96/96/96 95/95/95 88/88/88
f 97/97/97 96/96/96 88/88/88
f 97/97/97 88/88/88 87/87/87
f 98/98/98 96/96/96 97/97/97
f 99/99/99 98/98/98 97/97/97
f 100/100/100 99/99/99 97/97/97
f 97/97/97 87/87/87 100/100/100
f 99/99/99 100/100/100 101/101/101
f 102/102/102 87/87/87 90/90/90
f 102/102/102 100/100/100 87/87/87
f 100/100/100 103/103/103 101/101/101
f 103/103/103 100/100/100 102/102/102
f 104/104/104 101/101/101 103/103/103
f 104/104/104 103/103/103 105/105/105
f 106/106/106 105/105/105 103/103/103
f 105/105/105 106/106/106 107/107/107
f 108/108/108 107/107/107 106/106/106
f 109/109/109 108/108/108 106/106/106
f 106/106/106 110/110/110 109/109/109
f 110/110/110 106/106/106 111/111/111
f 112/112/112 102/102/102 90/90/90
f 103/103/103 102/102/102 112/112/112
f 112/112/112 106/106/106 103/103/103
f 112/112/112 111/111/111 106/106/106
f 113/113/113 112/112/112 90/90/90
f 112/112/112 114/114/114 111/111/111
f 112/112/112 113/113/113 114/114/114
f 117/117/117 116/116/116 115/115/115
f 115/115/115 118/118/118 117/117/117
f 118/118/118 119/119/119 117/117/117
f 119/119/119 120/120/120 117/117/117
f 120/120/120 121/121/121 117/117/117
f 119/119/119 118/118/118 122/122/122
f 123/123/123 122/122/122 118/118/118
f 118/118/118 124/124/124 123/123/123
f 123/123/123 125/125/125 122/122/122
f 126/126/126 122/122/122 125/125/125
f 127/127/127 126/126/126 125/125/125
f 128/128/128 119/119/119 122/122/122
f 122/122/122 129/129/129 128/128/128
f 129/129/129 130/130/130 128/128/128
f 119/119/119 128/128/128 130/130/130
f 131/131/131 130/130/130 129/129/129
f 130/130/130 131/131/131 132/132/132
f 133/133/133 130/130/130 132/132/132
f 130/130/130 134/134/134 119/119/119
f 119/119/119 134/134/134 120/120/120
f 130/130/130 133/133/133 134/134/134
f 120/120/120 134/134/134 135/135/135
f 133/133/133 135/135/135 134/134/134
f 136/136/136 135/135/135 133/133/133
f 137/137/137 120/120/120 135/135/135
f 137/137/137 135/135/135 138/138/138
f 138/138/138 135/135/135 139/139/139
f 139/139/139 135/135/135 136/136/136
f 136/136/136 140/140/140 139/139/139
f 140/140/140 136/136/136 141/141/141
f 142/142/142 141/141/141 136/136/136
f 143/143/143 142/142/142 136/136/136
f 136/136/136 144/144/144 143/143/143
f 144/144/144 136/136/136 133/133/133
f 133/133/133 145/145/145 144/144/144
f 148/148/148 147/147/147 146/146/146
f 146/146/146 149/149/149 148/148/148
f 150/150/150 148/148/148 149/149/149
f 148/148/148 150/150/150 151/151/151
f 150/150/150 152/152/152 151/151/151
f 153/153/153 151/151/151 152/152/152
f 156/156/156 155/155/155 154/154/154
f 156/156/156 157/157/157 155/155/155
f 158/158/158 155/155/155 157/157/157
f 159/159/159 158/158/158 157/157/157
f 156/156/156 160/160/160 157/157/157
f 159/159/159 157/157/157 161/161/161
f 160/160/160 162/162/162 157/157/157
f 163/163/163 162/162/162 160/160/160
f 163/163/163 164/164/164 162/162/162
f 157/157/157 162/162/162 165/165/165
f 157/157/157 165/165/165 161/161/161
f 165/165/165 166/166/166 161/161/161
f 167/167/167 165/165/165 162/162/162
f 166/166/166 168/168/168 161/161/161
f 167/167/167 169/169/169 165/165/165
f 166/166/166 165/165/165 169/169/169
f 170/170/170 168/168/168 166/166/166
f 169/169/169 171/171/171 166/166/166
f 169/169/169 172/172/172 171/171/171
f 169/169/169 173/173/173 172/172/172
f 171/171/171 174/174/174 166/166/166
f 175/175/175 166/166/166 174/174/174
f 175/175/175 170/170/170 166/166/166
f 175/175/175 174/174/174 176/176/176
f 175/175/175 176/176/176 177/177/177
f 175/175/175 178/178/178 170/170/170
f 175/175/175 177/177/177 178/178/178
f 178/178/178 179/179/179 170/170/170
f 180/180/180 179/179/179 178/178/178
f 179/179/179 181/181/181 170/170/170
f 182/182/182 179/179/179 180/180/180
f 183/183/183 182/182/182 180/180/180
f 177/177/177 184/184/184 178/178/178
f 180/180/180 178/178/178 184/184/184
f 177/177/177 185/185/185 184/184/184
f 185/185/185 177/177/177 186/186/186
f 187/187/187 185/185/185 186/186/186
f 180/180/180 188/188/188 183/183/183
f 188/188/188 189/189/189 183/183/183
f 183/183/183 189/189/189 190/190/190
f 191/191/191 189/189/189 188/188/188
f 191/191/191 192/192/192 189/189/189
f 193/193/193 188/188/188 180/180/180
f 193/193/193 191/191/191 188/188/188
f 194/194/194 180/180/180 184/184/184
f 193/193/193 180/180/180 194/194/194
f 194/194/194 184/184/184 195/195/195
f 195/195/195 184/184/184 196/196/196
f 194/194/194 197/197/197 193/193/193
f 193/193/193 197/197/197 198/198/198
f 199/199/199 191/191/191 193/193/193
f 191/191/191 199/199/199 200/200/200
f 199/199/199 201/201/201 200/200/200
f 204/204/204 203/203/203 202/202/202
f 205/205/205 202/202/202 203/203/203
f 203/203/203 206/206/206 205/205/205
f 206/206/206 203/203/203 207/207/207
f 206/206/206 207/207/207 208/208/208
f 211/211/211 210/210/210 209/209/209
f 212/212/212 209/209/209 210/210/210
f 210/210/210 213/213/213 212/212/212
f 213/213/213 214/214/214 212/212/212
f 212/212/212 214/214/214 215/215/215
f 214/214/214 216/216/216 215/215/215
f 219/219/219 218/218/218 217/217/217
f 220/220/220 219/219/219 217/217/217
f 219/219/219 220/220/220 221/221/221
f 220/220/220 222/222/222 221/221/221
f 217/217/217 223/223/223 220/220/220
f 222/222/222 220/220/220 224/224/224
f 223/223/223 224/224/224 220/220/220
f 224/224/224 223/223/223 225/225/225
f 222/222/222 224/224/224 226/226/226
f 224/224/224 225/225/225 226/226/226
f 227/227/227 225/225/225 223/223/223
f 225/225/225 228/228/228 226/226/226
f 228/228/228 225/225/225 229/229/229
f 225/225/225 227/227/227 230/230/230
f 231/231/231 229/229/229 225/225/225
f 231/231/231 225/225/225 230/230/230
f 232/232/232 229/229/229 231/231/231
f 231/231/231 230/230/230 233/233/233
f 233/233/233 232/232/232 231/231/231
f 230/230/230 234/234/234 233/233/233
f 233/233/233 235/235/235 232/232/232
f 238/238/238 237/237/237 236/236/236
f 236/236/236 237/237/237 239/239/239
f 240/240/240 239/239/239 237/237/237
f 240/240/240 237/237/237 241/241/241
f 240/240/240 241/241/241 242/242/242
f 243/243/243 242/242/242 241/241/241
f 246/246/246 245/245/245 244/244/244
f 247/247/247 244/244/244 245/245/245
f 248/248/248 244/244/244 247/247/247
f 248/248/248 249/249/249 244/244/244
f 250/250/250 249/249/249 248/248/248
f 253/253/253 252/252/252 251/251/251
f 254/254/254 251/251/251 252/252/252
f 251/251/251 254/254/254 255/255/255
f 256/256/256 255/255/255 254/254/254
f 257/257/257 256/256/256 254/254/254
f 258/258/258 256/256/256 257/257/257
f 261/261/261 260/260/260 259/259/259
f 261/261/261 259/259/259 262/262/262
f 263/263/263 262/262/262 259/259/259
f 264/264/264 261/261/261 262/262/262
f 262/262/262 265/265/265 264/264/264
f 263/263/263 266/266/266 262/262/262
f 265/265/265 262/262/262 266/266/266
f 267/267/267 264/264/264 265/265/265
f 268/268/268 265/265/265 266/266/266
f 267/267/267 265/265/265 269/269/269
f 268/268/268 270/270/270 265/265/265
f 265/265/265 271/271/271 269/269/269
f 271/271/271 265/265/265 270/270/270
f 269/269/269 271/271/271 272/272/272
f 271/271/271 273/273/273 272/272/272
f 271/271/271 270/270/270 274/274/274
f 271/271/271 274/274/274 273/273/273
f 274/274/274 275/275/275 273/273/273
f 270/270/270 276/276/276 274/274/274
f 274/274/274 277/277/277 275/275/275
f 277/277/277 274/274/274 276/276/276
f 278/278/278 277/277/277 276/276/276
f 281/281/281 280/280/280 279/279/279
f 280/280/280 282/282/282 279/279/279
f 282/282/282 283/283/283 279/279/279
f 280/280/280 284/284/284 282/282/282
f 282/282/282 285/285/285 283/283/283
f 286/286/286 285/285/285 282/282/282
f 287/287/287 282/282/282 284/284/284
f 282/282/282 287/287/287 286/286/286
f 284/284/284 288/288/288 287/287/287
f 288/288/288 284/284/284 289/289/289
f 290/290/290 287/287/287 288/288/288
f 287/287/287 290/290/290 291/291/291
f 291/291/291 286/286/286 287/287/287
f 292/292/292 291/291/291 290/290/290
f 291/291/291 292/292/292 293/293/293
f 286/286/286 294/294/294 285/285/285
f 285/285/285 294/294/294 295/295/295
f 291/291/291 293/293/293 296/296/296
f 296/296/296 286/286/286 291/291/291
f 294/294/294 286/286/286 297/297/297
f 286/286/286 296/296/296 298/298/298
f 297/297/297 286/286/286 298/298/298
f 299/299/299 294/294/294 297/297/297
f 300/300/300 294/294/294 299/299/299
f 299/299/299 297/297/297 301/301/301
f 297/297/297 298/298/298 301/301/301
f 300/300/300 299/299/299 302/302/302
f 301/301/301 302/302/302 299/299/299
f 303/303/303 300/300/300 302/302/302
f 303/303/303 304/304/304 300/300/300
f 305/305/305 304/304/304 303/303/303
f 305/305/305 303/303/303 306/306/306
f 307/307/307 306/306/306 303/303/303
f 306/306/306 307/307/307 308/308/308
f 309/309/309 303/303/303 302/302/302
f 303/303/303 309/309/309 307/307/307
f 302/302/302 301/301/301 310/310/310
f 302/302/302 310/310/310 309/309/309
f 310/310/310 301/301/301 311/311/311
f 298/298/298 311/311/311 301/301/301
f 309/309/309 310/310/310 311/311/311
f 312/312/312 309/309/309 311/311/311
f 307/307/307 309/309/309 313/313/313
f 313/313/313 308/308/308 307/307/307
f 313/313/313 309/309/309 312/312/312
f 308/308/308 313/313/313 314/314/314
f 314/314/314 313/313/313 312/312/312
f 314/314/314 315/315/315 308/308/308
f 311/311/311 298/298/298 316/316/316
f 316/316/316 312/312/312 311/311/311
f 316/316/316 298/298/298 317/317/317
f 298/298/298 296/296/296 317/317/317
f 316/316/316 317/317/317 318/318/318
f 312/312/312 316/316/316 318/318/318
f 319/319/319 314/314/314 312/312/312
f 315/315/315 314/314/314 319/319/319
f 296/296/296 320/320/320 317/317/317
f 318/318/318 317/317/317 320/320/320
f 318/318/318 321/321/321 312/312/312
f 318/318/318 320/320/320 321/321/321
f 319/319/319 312/312/312 321/321/321
f 322/322/322 321/321/321 320/320/320
f 321/321/321 322/322/322 319/319/319
f 323/323/323 319/319/319 322/322/322
f 315/315/315 319/319/319 323/323/323
f 322/322/322 324/324/324 323/323/323
f 322/322/322 325/325/325 324/324/324
f 325/325/325 296/296/296 326/326/326
f 326/326/326 324/324/324 325/325/325
f 326/326/326 296/296/296 293/293/293
f 324/324/324 326/326/326 327/327/327
f 293/293/293 327/327/327 326/326/326
f 327/327/327 323/323/323 324/324/324
f 293/293/293 328/328/328 327/327/327
f 329/329/329 327/327/327 328/328/328
f 329/329/329 323/323/323 327/327/327
f 328/328/328 330/330/330 329/329/329
f 329/329/329 331/331/331 323/323/323
f 331/331/331 329/329/329 330/330/330
f 323/323/323 331/331/331 315/315/315
f 330/330/330 332/332/332 331/331/331
f 331/331/331 333/333/333 315/315/315
f 333/333/333 334/334/334 315/315/315
f 335/335/335 331/331/331 332/332/332
f 331/331/331 335/335/335 333/333/333
f 335/335/335 332/332/332 336/336/336
f 337/337/337 333/333/333 335/335/335
f 340/340/340 339/339/339 338/338/338
f 340/340/340 338/338/338 341/341/341
f 338/338/338 342/342/342 341/341/341
f 343/343/343 340/340/340 341/341/341
f 342/342/342 338/338/338 344/344/344
f 343/343/343 341/341/341 345/345/345
f 342/342/342 344/344/344 346/346/346
f 347/347/347 342/342/342 346/346/346
f 348/348/348 345/345/345 341/341/341
f 349/349/349 342/342/342 347/347/347
f 341/341/341 350/350/350 348/348/348
f 341/341/341 342/342/342 350/350/350
f 348/348/348 350/350/350 351/351/351
f 349/349/349 352/352/352 342/342/342
f 342/342/342 352/352/352 350/350/350
f 352/352/352 349/349/349 353/353/353
f 352/352/352 353/353/353 354/354/354
f 350/350/350 352/352/352 354/354/354
f 354/354/354 353/353/353 355/355/355
f 354/354/354 355/355/355 356/356/356
f 356/356/356 357/357/357 354/354/354
f 351/351/351 350/350/350 358/358/358
f 350/350/350 354/354/354 358/358/358
f 354/354/354 357/357/357 358/358/358
f 351/351/351 358/358/358 359/359/359
f 360/360/360 358/358/358 357/357/357
f 359/359/359 358/358/358 361/361/361
f 358/358/358 360/360/360 361/361/361
f 364/364/364 363/363/363 362/362/362
f 362/362/362 365/365/365 364/364/364
f 365/365/365 366/366/366 364/364/364
f 367/367/367 366/366/366 365/365/365
f 368/368/368 366/366/366 367/367/367
f 369/369/369 368/368/368 367/367/367
f 372/372/372 371/371/371 370/370/370
f 373/373/373 371/371/371 372/372/372
f 373/373/373 374/374/374 371/371/371
f 374/374/374 373/373/373 375/375/375
f 375/375/375 376/376/376 374/374/374
f 377/377/377 376/376/376 375/375/375
f 375/375/375 378/378/378 377/377/377
f 381/381/381 380/380/380 379/379/379
f 381/381/381 382/382/382 380/380/380
f 380/380/380 382/382/382 383/383/383
f 380/380/380 383/383/383 384/384/384
f 383/383/383 385/385/385 384/384/384
f 386/386/386 384/384/384 385/385/385
f 386/386/386 385/385/385 387/387/387
f 388/388/388 387/387/387 385/385/385
f 382/382/382 381/381/381 389/389/389
f 381/381/381 390/390/390 389/389/389
f 389/389/389 391/391/391 382/382/382
f 383/383/383 382/382/382 391/391/391
f 391/391/391 392/392/392 383/383/383
f 393/393/393 383/383/383 392/392/392
f 392/392/392 394/394/394 393/393/393
f 393/393/393 395/395/395 383/383/383
f 385/385/385 383/383/383 395/395/395
f 396/396/396 393/393/393 394/394/394
f 393/393/393 396/396/396 395/395/395
f 394/394/394 397/397/397 396/396/396
f 395/395/395 396/396/396 398/398/398
f 385/385/385 395/395/395 398/398/398
f 398/398/398 396/396/396 397/397/397
f 385/385/385 398/398/398 399/399/399
f 398/398/398 397/397/397 399/399/399
f 388/388/388 385/385/385 399/399/399
f 400/400/400 399/399/399 397/397/397
f 400/400/400 388/388/388 399/399/399
f 400/400/400 401/401/401 388/388/388
f 404/404/404 403/403/403 402/402/402
f 405/405/405 404/404/404 402/402/402
f 408/408/408 407/407/407 406/406/406
f 407/407/407 408/408/408 409/409/409
f 409/409/409 408/408/408 410/410/410
f 410/410/410 411/411/411 409/409/409
f 409/409/409 411/411/411 412/412/412
f 411/411/411 413/413/413 412/412/412
f 413/413/413 414/414/414 412/412/412
f 411/411/411 410/410/410 415/415/415
f 416/416/416 411/411/411 415/415/415
f 416/416/416 417/417/417 411/411/411
f 416/416/416 418/418/418 417/417/417
f 408/408/408 419/419/419 410/410/410
f 410/410/410 419/419/419 420/420/420
f 419/419/419 421/421/421 420/420/420
f 421/421/421 422/422/422 420/420/420
f 421/421/421 423/423/423 422/422/422
f 421/421/421 424/424/424 423/423/423
f 425/425/425 421/421/421 419/419/419
f 408/408/408 425/425/425 419/419/419
f 425/425/425 426/426/426 421/421/421
f 408/408/408 427/427/427 425/425/425
f 408/408/408 428/428/428 427/427/427
f 431/431/431 430/430/430 429/429/429
f 431/431/431 429/429/429 432/432/432
f 432/432/432 429/429/429 433/433/433
f 436/436/436 435/435/435 434/434/434
f 434/434/434 437/437/437 436/436/436
f 434/434/434 438/438/438 437/437/437
f 441/441/441 440/440/440 439/439/439
f 441/441/441 439/439/439 442/442/442
f 445/445/445 444/444/444 443/443/443
f 446/446/446 443/443/443 444/444/444
f 446/446/446 447/447/447 443/443/443
f 447/447/447 446/446/446 448/448/448
f 449/449/449 448/448/448 446/446/446
f 450/450/450 446/446/446 444/444/444
f 446/446/446 450/450/450 449/449/449
f 444/444/444 451/451/451 450/450/450
f 450/450/450 451/451/451 449/449/449
f 454/454/454 453/453/453 452/452/452
f 452/452/452 453/453/453 455/455/455
f 458/458/458 457/457/457 456/456/456
f 456/456/456 457/457/457 459/459/459
f 456/456/456 459/459/459 460/460/460
f 459/459/459 461/461/461 460/460/460
f 459/459/459 462/462/462 461/461/461
f 457/457/457 463/463/463 459/459/459
f 457/457/457 464/464/464 463/463/463
f 465/465/465 463/463/463 464/464/464
f 466/466/466 463/463/463 465/465/465
f 467/467/467 462/462/462 459/459/459
f 467/467/467 459/459/459 463/463/463
f 467/467/467 468/468/468 462/462/462
f 466/466/466 469/469/469 463/463/463
f 469/469/469 467/467/467 463/463/463
f 469/469/469 470/470/470 467/467/467
f 471/471/471 469/469/469 466/466/466
f 469/469/469 471/471/471 470/470/470
f 471/471/471 472/472/472 470/470/470
f 470/470/470 472/472/472 473/473/473
f 474/474/474 470/470/470 473/473/473
f 475/475/475 470/470/470 474/474/474
f 467/467/467 476/476/476 468/468/468
f 470/470/470 476/476/476 467/467/467
f 470/470/470 475/475/475 476/476/476
f 476/476/476 477/477/477 468/468/468
f 475/475/475 478/478/478 476/476/476
f 478/478/478 477/477/477 476/476/476
f 481/481/481 480/480/480 479/479/479
f 481/481/481 479/479/479 482/482/482
f 483/483/483 480/480/480 481/481/481
f 482/482/482 484/484/484 481/481/481
f 481/481/481 485/485/485 483/483/483
f 481/481/481 484/484/484 486/486/486
f 486/486/486 485/485/485 481/481/481
f 489/489/489 488/488/488 487/487/487
f 489/489/489 487/487/487 490/490/490
f 487/487/487 488/488/488 491/491/491
f 491/491/491 490/490/490 487/487/487
f 492/492/492 491/491/491 488/488/488
f 491/491/491 492/492/492 490/490/490
f 495/495/495 494/494/494 493/493/493
f 494/494/494 495/495/495 496/496/496
f 497/497/497 494/494/494 496/496/496
f 496/496/496 498/498/498 497/497/497
f 499/499/499 497/497/497 498/498/498
f 498/498/498 500/500/500 499/499/499
f 501/501/501 493/493/493 494/494/494
f 501/501/501 499/499/499 500/500/500
f 493/493/493 501/501/501 502/502/502
f 501/501/501 500/500/500 502/502/502
f 505/505/505 504/504/504 503/503/503
f 504/504/504 506/506/506 503/503/503
f 503/503/503 507/507/507 505/505/505
f 507/507/507 503/503/503 506/506/506
f 508/508/508 505/505/505 507/507/507
f 508/508/508 507/507/507 506/506/506
f 511/511/511 510/510/510 509/509/509
f 512/512/512 511/511/511 509/509/509
f 510/510/510 511/511/511 513/513/513
f 511/511/511 512/512/512 514/514/514
f 513/513/513 511/511/511 515/515/515
f 511/511/511 514/514/514 515/515/515
f 518/518/518 517/517/517 516/516/516
f 519/519/519 516/516/516 517/517/517
f 518/518/518 516/516/516 520/520/520
f 521/521/521 516/516/516 519/519/519
f 516/516/516 522/522/522 520/520/520
f 521/521/521 522/522/522 516/516/516
f 525/525/525 524/524/524 523/523/523
f 526/526/526 524/524/524 525/525/525
f 526/526/526 527/527/527 524/524/524
f 523/523/523 524/524/524 528/528/528
f 529/529/529 524/524/524 527/527/527
f 530/530/530 523/523/523 528/528/528
f 530/530/530 529/529/529 527/527/527
f 530/530/530 528/528/528 529/529/529
f 533/533/533 532/532/532 531/531/531
f 531/531/531 532/532/532 534/534/534
f 533/533/533 535/535/535 532/532/532
f 536/536/536 534/534/534 532/532/532
f 537/537/537 532/532/532 535/535/535
f 536/536/536 532/532/532 538/538/538
f 537/537/537 538/538/538 532/532/532
f 541/541/541 540/540/540 539/539/539
f 542/542/542 541/541/541 539/539/539
f 541/541/541 543/543/543 540/540/540
f 542/542/542 543/543/543 541/541/541
