g O_env_luntai_01_posun
v -1.56258082 0.511582732 -4.37536287
v -1.1813972 0.511791348 -4.21663523
v -1.22010708 0.821711123 -4.12367344
v -1.6012907 0.821502447 -4.28240156
v -1.32145059 1.01325202 -3.88029742
v -1.70286989 0.754748464 -4.22517347
v -1.67249787 0.511582732 -4.29811144
v -1.63876212 0.511582732 -4.17198896
v -1.66153824 0.693934262 -4.1172924
v -1.78238487 0.905033112 -4.03421783
v -1.72116721 0.806633592 -3.97409344
v -1.70263422 1.01304328 -4.03902531
v -1.44671822 1.01325202 -3.57946777
v -1.88067091 0.905033112 -3.79818463
v -1.79487252 0.806633592 -3.79709029
v -1.82790208 1.01304328 -3.73819518
v -1.54806197 0.821711004 -3.33609104
v -1.96018612 0.754748344 -3.60722923
v -1.85450149 0.693934262 -3.65389204
v -1.92924571 0.821502388 -3.49481869
v -1.58677185 0.511791348 -3.24312973
v -1.96795547 0.511582732 -3.40185761
v -1.99055827 0.511582732 -3.53429079
v -1.87727761 0.511582732 -3.59919477
v -1.96795547 0.511582732 -3.40185761
v -1.58677185 0.511791348 -3.24312973
v -1.54806185 0.201871634 -3.33609152
v -1.92924535 0.201662973 -3.49481916
v -1.44671822 0.0103307972 -3.57946777
v -1.82790208 0.0101221502 -3.73819518
v -1.88067091 0.118132405 -3.79818463
v -1.96018612 0.268417001 -3.60722923
v -1.99055827 0.511582732 -3.53429079
v -1.87727761 0.511582732 -3.59919477
v -1.85450149 0.329231203 -3.65389204
v -1.79487252 0.216531828 -3.79709029
v -1.82790208 0.0101221502 -3.73819518
v -1.44671822 0.0103307972 -3.57946777
v -1.32145059 0.0103307916 -3.88029766
v -1.70263422 0.0101221437 -4.03902531
v -1.22010708 0.201871842 -4.12367344
v -1.78238487 0.118132398 -4.03421783
v -1.88067091 0.118132405 -3.79818463
v -1.79487252 0.216531828 -3.79709029
v -1.72116721 0.216531858 -3.97409344
v -1.70286989 0.26841715 -4.22517347
v -1.66153824 0.329231381 -4.1172924
v -1.63876212 0.511582732 -4.17198896
v -1.67249787 0.511582732 -4.29811144
v -1.6012907 0.201663196 -4.28240156
v -1.1813972 0.511791348 -4.21663523
v -1.56258082 0.511582732 -4.37536287
v -1.77022111 0.512000084 -2.79167604
v -1.35731006 0.512000024 -2.79167604
v -1.35731006 0.82191968 -2.69097686
v -1.77022076 0.821919739 -2.69097662
v -1.35730982 1.01346064 -2.42734337
v -1.8419956 0.755165756 -2.59909773
v -1.8419956 0.512000084 -2.67810726
v -1.76236916 0.512000084 -2.57464409
v -1.76236916 0.694351554 -2.51539397
v -1.84199548 0.905450404 -2.39224839
v -1.76236904 0.807050943 -2.36027646
v -1.77022088 1.01346064 -2.42734313
v -1.35730982 1.01346064 -2.10147452
v -1.84199548 0.905450404 -2.13656878
v -1.76236904 0.807050943 -2.16854095
v -1.77022088 1.01346064 -2.10147429
v -1.35730982 0.82191968 -1.83784115
v -1.84199548 0.755165696 -1.92971981
v -1.76236904 0.694351554 -2.01342344
v -1.77022064 0.82191968 -1.8378408
v -1.35730982 0.512000024 -1.73714197
v -1.77022064 0.512000024 -1.73714173
v -1.84199548 0.512000024 -1.85071039
v -1.76236904 0.512000024 -1.9541738
v -1.77022064 0.512000024 -1.73714173
v -1.35730982 0.512000024 -1.73714197
v -1.35730982 0.20208022 -1.83784115
v -1.77022064 0.202080309 -1.8378408
v -1.35731006 0.0105394004 -2.10147452
v -1.77022076 0.0105394758 -2.10147429
v -1.8419956 0.118549727 -2.13656878
v -1.84199548 0.268834323 -1.92971981
v -1.84199548 0.512000024 -1.85071039
v -1.76236904 0.512000024 -1.9541738
v -1.76236904 0.329648554 -2.01342344
v -1.76236916 0.21694915 -2.16854095
v -1.77022076 0.0105394758 -2.10147429
v -1.35731006 0.0105394004 -2.10147452
v -1.35731006 0.0105394004 -2.42734337
v -1.77022111 0.0105394758 -2.42734313
v -1.35731006 0.202080458 -2.6909771
v -1.8419956 0.118549727 -2.39224839
v -1.8419956 0.118549727 -2.13656878
v -1.76236916 0.21694915 -2.16854095
v -1.76236916 0.216949195 -2.3602767
v -1.8419956 0.268834502 -2.59909773
v -1.76236916 0.329648703 -2.51539397
v -1.76236916 0.512000084 -2.57464409
v -1.8419956 0.512000084 -2.67810726
v -1.77022076 0.202080533 -2.6909771
v -1.35731006 0.512000024 -2.79167604
v -1.77022111 0.512000084 -2.79167604
v -1.44671822 0.0103307972 -3.57946777
v -1.54806185 0.201871634 -3.33609152
v -1.32145059 0.0103307916 -3.88029766
v -1.58677185 0.511791348 -3.24312973
v -1.54806197 0.821711004 -3.33609104
v -1.44671822 1.01325202 -3.57946777
v -1.32145059 1.01325202 -3.88029742
v -1.22010708 0.821711123 -4.12367344
v -1.1813972 0.511791348 -4.21663523
v -1.22010708 0.201871842 -4.12367344
v -1.35731006 0.0105394004 -2.10147452
v -1.35730982 0.20208022 -1.83784115
v -1.35731006 0.0105394004 -2.42734337
v -1.35730982 0.512000024 -1.73714197
v -1.35730982 0.82191968 -1.83784115
v -1.35730982 1.01346064 -2.10147452
v -1.35730982 1.01346064 -2.42734337
v -1.35731006 0.82191968 -2.69097686
v -1.35731006 0.512000024 -2.79167604
v -1.35731006 0.202080458 -2.6909771
v -2.33653641 0.502786517 0.722480297
v -2.03184271 0.299034804 0.532368898
v -1.85671461 0.573513687 0.518876195
v -2.16140842 0.777265549 0.708987713
v -1.63683879 0.754030049 0.677806854
v -2.18913865 0.759697199 0.839263618
v -2.32654548 0.544338644 0.849850118
v -2.21043491 0.510635614 0.899119556
v -2.10739255 0.67213428 0.891180634
v -2.01662207 0.901332021 0.963961899
v -1.97802114 0.778347075 0.984692812
v -1.94153237 0.957781911 0.867918313
v -1.45619988 0.77163291 0.948454738
v -1.87489116 0.915143013 1.17631483
v -1.87173653 0.788704276 1.14393723
v -1.7608937 0.975384593 1.13856614
v -1.38379622 0.619598627 1.22744143
v -1.81808233 0.795855641 1.39521039
v -1.8291353 0.699249804 1.30808854
v -1.68849015 0.823349833 1.41755211
v -1.44728267 0.355998307 1.40820372
v -1.75197685 0.559749961 1.59831488
v -1.86789465 0.58903265 1.53703809
v -1.86648977 0.544151962 1.41444588
v -1.75197685 0.559749961 1.59831488
v -1.44728267 0.355998307 1.40820372
v -1.62241089 0.0815193057 1.42169642
v -1.92710471 0.28527084 1.61180735
v -1.84228647 -0.0989971161 1.26276612
v -2.14698029 0.1047545 1.45287728
v -2.1778183 0.232039273 1.42292619
v -2.00530148 0.373674065 1.54762459
v -1.86789465 0.58903265 1.53703809
v -1.86648977 0.544151962 1.41444588
v -1.96953201 0.382653117 1.4223851
v -2.09890342 0.276440352 1.3288728
v -2.14698029 0.1047545 1.45287728
v -1.84228647 -0.0989971161 1.26276612
v -2.02292538 -0.116599873 0.99211818
v -2.32761908 0.0871518999 1.18222976
v -2.09532905 0.0354348905 0.713131249
v -2.31954908 0.218228012 1.2105732
v -2.1778183 0.232039273 1.42292619
v -2.09890342 0.276440352 1.3288728
v -2.20518804 0.266083241 1.16962826
v -2.37635803 0.337515831 0.991677523
v -2.24778962 0.355537891 1.00547683
v -2.21043491 0.510635614 0.899119556
v -2.32654548 0.544338644 0.849850118
v -2.40002275 0.23918651 0.903242648
v -2.03184271 0.299034804 0.532368898
v -2.33653641 0.502786517 0.722480297
v -1.84228647 -0.0989971161 1.26276612
v -1.62241089 0.0815193057 1.42169642
v -2.02292538 -0.116599873 0.99211818
v -1.44728267 0.355998307 1.40820372
v -1.38379622 0.619598627 1.22744143
v -1.45619988 0.77163291 0.948454738
v -1.63683879 0.754030049 0.677806854
v -1.85671461 0.573513687 0.518876195
v -2.03184271 0.299034804 0.532368898
v -2.09532905 0.0354348905 0.713131249
v 3.28184938 0.0083546536 1.28899789
v 3.58768487 0.00724319043 1.40148723
v 3.5892067 0.420151055 1.4014293
v 3.28337097 0.421262503 1.28894019
v 2.96830416 0.00952272769 1.37775934
v 3.27928829 0.493068695 1.40241563
v 3.51924944 0.492196649 1.49067545
v 3.45498252 0.412818134 1.57200098
v 3.27503419 0.413471967 1.50581431
v 3.03327775 0.493985325 1.47205818
v 3.09054923 0.414159387 1.55804002
v 2.96982598 0.422430605 1.3777014
v 2.76681304 0.0103015453 1.63386714
v 2.8751862 0.494596273 1.67300272
v 2.97199559 0.414617479 1.70872939
v 2.76833487 0.423209399 1.63380933
v 2.75433898 0.0103932507 1.95949697
v 2.86539888 0.494668305 1.92849493
v 2.96465564 0.414671659 1.90032446
v 2.75586057 0.423301101 1.95943904
v 2.93564606 0.00976320822 2.23026967
v 2.93716788 0.42267108 2.23021197
v 3.00765395 0.494173914 2.14094543
v 3.07133412 0.414300829 2.05964255
v 3.24148178 0.0086514391 2.34275866
v 2.93564606 0.00976320822 2.23026967
v 2.93716788 0.42267108 2.23021197
v 3.24300337 0.421559274 2.34270072
v 3.55502677 0.00748336455 2.25399756
v 3.5565486 0.420391232 2.25393987
v 3.49362564 0.492385089 2.15956259
v 3.24761534 0.493301839 2.22920537
v 3.00765395 0.494173914 2.14094543
v 3.07133412 0.414300829 2.05964255
v 3.25128269 0.413646698 2.12582922
v 3.43576717 0.412959278 2.07360339
v 3.75651789 0.00670454791 1.99788964
v 3.55502677 0.00748336455 2.25399756
v 3.5565486 0.420391232 2.25393987
v 3.75803971 0.419612408 1.99783194
v 3.76899219 0.00661268923 1.67225969
v 3.65171742 0.491774142 1.95861816
v 3.49362564 0.492385089 2.15956259
v 3.43576717 0.412959278 2.07360339
v 3.55432129 0.412501216 1.92291403
v 3.66150475 0.491702259 1.70312572
v 3.56166077 0.412447184 1.73131859
v 3.45498252 0.412818134 1.57200098
v 3.51924944 0.492196649 1.49067545
v 3.77051377 0.419520706 1.67220199
v 3.58768487 0.00724319043 1.40148723
v 3.5892067 0.420151055 1.4014293
v 3.55502677 0.00748336455 2.25399756
v 3.75651789 0.00670454791 1.99788964
v 3.24148178 0.0086514391 2.34275866
v 2.93564606 0.00976320822 2.23026967
v 2.75433898 0.0103932507 1.95949697
v 2.76681304 0.0103015453 1.63386714
v 2.96830416 0.00952272769 1.37775934
v 3.28184938 0.0083546536 1.28899789
v 3.58768487 0.00724319043 1.40148723
v 3.76899219 0.00661268923 1.67225969
v 1.59570086 0.465754777 -2.55277038
v 1.71478951 0.202198401 -2.70292473
v 2.04499626 0.419444501 -2.82235289
v 1.92590714 0.683001161 -2.67219853
v 1.5905987 0.628641427 -2.27057767
v 2.0475831 0.663996518 -2.6185019
v 2.14102101 0.45720771 -2.73631454
v 2.11253309 0.415313631 -2.61598921
v 2.04246306 0.570385516 -2.52764058
v 2.04358029 0.791798592 -2.39709187
v 2.03946161 0.666225195 -2.36160326
v 1.92080557 0.84588784 -2.39000678
v 1.70143187 0.628641427 -1.96413636
v 2.13054109 0.79179889 -2.15665483
v 2.10467434 0.666225314 -2.18129826
v 2.03163886 0.84588784 -2.08356476
v 1.8858664 0.465754598 -1.75049543
v 2.27524924 0.663996339 -1.98903024
v 2.21319151 0.570385635 -2.05559587
v 2.21607256 0.683000982 -1.86992383
v 2.07345366 0.202198237 -1.71125865
v 2.4036603 0.419444442 -1.83068681
v 2.42243195 0.45720768 -1.95824504
v 2.32356501 0.415313601 -2.03250957
v 2.19254208 -0.0613581277 -1.86141312
v 2.07345366 0.202198237 -1.71125865
v 2.4036603 0.419444442 -1.83068681
v 2.52274847 0.155888245 -1.98084176
v 2.19764447 -0.224244773 -2.14360547
v 2.52785134 -0.00699870614 -2.26303411
v 2.51987314 0.122616768 -2.29746771
v 2.51587009 0.25041905 -2.07605743
v 2.42243195 0.45720768 -1.95824504
v 2.32356501 0.415313601 -2.03250957
v 2.39363456 0.260241449 -2.12085795
v 2.39663649 0.164401755 -2.28689504
v 2.08681107 -0.224244863 -2.45004702
v 2.19764447 -0.224244773 -2.14360547
v 2.52785134 -0.00699870614 -2.26303411
v 2.41701794 -0.00699854875 -2.56947494
v 1.90237677 -0.0613578074 -2.66368794
v 2.43291235 0.122616775 -2.53790474
v 2.51987314 0.122616768 -2.29746771
v 2.39663649 0.164401755 -2.28689504
v 2.33142424 0.164401755 -2.46720004
v 2.28820395 0.250419199 -2.70552921
v 2.22290635 0.260241598 -2.59290266
v 2.11253309 0.415313631 -2.61598921
v 2.14102101 0.45720771 -2.73631454
v 2.23258352 0.155888274 -2.78311658
v 1.71478951 0.202198401 -2.70292473
v 2.04499626 0.419444501 -2.82235289
v 2.19764447 -0.224244773 -2.14360547
v 2.08681107 -0.224244863 -2.45004702
v 2.19254208 -0.0613581277 -1.86141312
v 2.07345366 0.202198237 -1.71125865
v 1.8858664 0.465754598 -1.75049543
v 1.70143187 0.628641427 -1.96413636
v 1.5905987 0.628641427 -2.27057767
v 1.59570086 0.465754777 -2.55277038
v 1.71478951 0.202198401 -2.70292473
v 1.90237677 -0.0613578074 -2.66368794
v 1.51153815 0.961288333 -4.11984301
v 1.38262713 0.687132657 -4.23988867
v 1.75830758 0.516303599 -4.25318098
v 1.88721871 0.790459335 -4.13313532
v 1.59182441 1.11644661 -3.84475994
v 1.92510247 0.693661869 -4.04802036
v 1.8239578 0.478556901 -4.14220953
v 1.75182664 0.504164338 -4.03644419
v 1.82767594 0.665472925 -3.96581101
v 1.98809612 0.815400422 -3.83218813
v 1.87491477 0.756764889 -3.80395675
v 1.96750557 0.945617557 -3.85805225
v 1.59281969 1.09334207 -3.51971245
v 1.9888767 0.797272384 -3.57715344
v 1.87550032 0.743170857 -3.61270475
v 1.96850049 0.922512889 -3.53300524
v 1.51414287 0.900799632 -3.26885796
v 1.92714643 0.646201968 -3.38033009
v 1.82920873 0.629882276 -3.46510601
v 1.88982415 0.729970932 -3.28215027
v 1.38584673 0.612364709 -3.18801379
v 1.76152778 0.441535562 -3.20130658
v 1.82648408 0.419893265 -3.31689954
v 1.75372171 0.460171878 -3.4175384
v 1.26913226 0.367571354 -3.34070683
v 1.38584673 0.612364709 -3.18801379
v 1.76152778 0.441535562 -3.20130658
v 1.6448133 0.196742162 -3.3539989
v 1.22243178 0.283191323 -3.5761652
v 1.59811258 0.112362295 -3.58945727
v 1.68225539 0.12659812 -3.62388659
v 1.72533929 0.204788283 -3.41108823
v 1.82648408 0.419893265 -3.31689954
v 1.75372171 0.460171878 -3.4175384
v 1.67787242 0.298863441 -3.48817182
v 1.630633 0.20757103 -3.65002608
v 1.22143686 0.306295872 -3.90121269
v 1.22243178 0.283191323 -3.5761652
v 1.59811258 0.112362295 -3.58945727
v 1.59711742 0.135467008 -3.914505
v 1.25433123 0.398697764 -4.15904474
v 1.68147469 0.144726023 -3.87892151
v 1.68225539 0.12659812 -3.62388659
v 1.630633 0.20757103 -3.65002608
v 1.63004768 0.22116524 -3.84127855
v 1.72329581 0.252248287 -4.07877874
v 1.67633951 0.33445397 -3.98887682
v 1.75182664 0.504164338 -4.03644419
v 1.8239578 0.478556901 -4.14220953
v 1.63001204 0.227868721 -4.17233706
v 1.38262713 0.687132657 -4.23988867
v 1.75830758 0.516303599 -4.25318098
v 1.22243178 0.283191323 -3.5761652
v 1.22143686 0.306295872 -3.90121269
v 1.26913226 0.367571354 -3.34070683
v 1.38584673 0.612364709 -3.18801379
v 1.51414287 0.900799632 -3.26885796
v 1.59281969 1.09334207 -3.51971245
v 1.59182441 1.11644661 -3.84475994
v 1.51153815 0.961288333 -4.11984301
v 1.38262713 0.687132657 -4.23988867
v 1.25433123 0.398697764 -4.15904474
v -1.66153824 0.693934262 -4.1172924
v -1.84859276 0.511582732 -3.92330718
v -1.63876212 0.511582732 -4.17198896
v -1.72116721 0.806633592 -3.97409344
v -1.66153824 0.329231381 -4.1172924
v -1.79487252 0.806633592 -3.79709029
v -1.72116721 0.216531858 -3.97409344
v -1.85450149 0.693934262 -3.65389204
v -1.79487252 0.216531828 -3.79709029
v -1.87727761 0.511582732 -3.59919477
v -1.85450149 0.329231203 -3.65389204
v -1.76236916 0.694351554 -2.51539397
v -1.86048079 0.512000084 -2.26440859
v -1.76236916 0.512000084 -2.57464409
v -1.76236904 0.807050943 -2.36027646
v -1.76236916 0.329648703 -2.51539397
v -1.76236904 0.807050943 -2.16854095
v -1.76236916 0.216949195 -2.3602767
v -1.76236904 0.694351554 -2.01342344
v -1.76236916 0.21694915 -2.16854095
v -1.76236904 0.512000024 -1.9541738
v -1.76236904 0.329648554 -2.01342344
v -2.10739255 0.67213428 0.891180634
v -2.11086059 0.575807095 1.20195496
v -2.21043491 0.510635614 0.899119556
v -1.97802114 0.778347075 0.984692812
v -2.24778962 0.355537891 1.00547683
v -1.87173653 0.788704276 1.14393723
v -2.20518804 0.266083241 1.16962826
v -1.8291353 0.699249804 1.30808854
v -2.09890342 0.276440352 1.3288728
v -1.86648977 0.544151962 1.41444588
v -1.96953201 0.382653117 1.4223851
v 3.27503419 0.413471967 1.50581431
v 3.45498252 0.412818134 1.57200098
v 3.26351976 0.511670351 1.81580806
v 3.09054923 0.414159387 1.55804002
v 3.56166077 0.412447184 1.73131859
v 2.97199559 0.414617479 1.70872939
v 3.55432129 0.412501216 1.92291403
v 2.96465564 0.414671659 1.90032446
v 3.43576717 0.412959278 2.07360339
v 3.07133412 0.414300829 2.05964255
v 3.25128269 0.413646698 2.12582922
v 2.04246306 0.570385516 -2.52764058
v 2.11253309 0.415313631 -2.61598921
v 2.29650927 0.46693331 -2.35262632
v 2.03946161 0.666225195 -2.36160326
v 2.22290635 0.260241598 -2.59290266
v 2.10467434 0.666225314 -2.18129826
v 2.33142424 0.164401755 -2.46720004
v 2.21319151 0.570385635 -2.05559587
v 2.39663649 0.164401755 -2.28689504
v 2.32356501 0.415313601 -2.03250957
v 2.39363456 0.260241449 -2.12085795
v 1.82767594 0.665472925 -3.96581101
v 1.75182664 0.504164338 -4.03644419
v 1.84203947 0.441577375 -3.73014951
v 1.87491477 0.756764889 -3.80395675
v 1.67633951 0.33445397 -3.98887682
v 1.87550032 0.743170857 -3.61270475
v 1.63004768 0.22116524 -3.84127855
v 1.82920873 0.629882276 -3.46510601
v 1.630633 0.20757103 -3.65002608
v 1.75372171 0.460171878 -3.4175384
v 1.67787242 0.298863441 -3.48817182
vt 0.683105469 0.471923828
vt 0.847167969 0.471923828
vt 0.847167969 0.572753906
vt 0.683105469 0.572753906
vt 0.847167969 0.680175781
vt 0.633789062 0.572753906
vt 0.633789062 0.471923828
vt 0.5859375 0.471923828
vt 0.5859375 0.572753906
vt 0.633789062 0.680175781
vt 0.5859375 0.680175781
vt 0.683105469 0.680175781
vt 0.847167969 0.790039062
vt 0.633789062 0.790039062
vt 0.5859375 0.790039062
vt 0.683105469 0.790039062
vt 0.847167969 0.897460938
vt 0.633789062 0.897460938
vt 0.5859375 0.897460938
vt 0.683105469 0.897460938
vt 0.847167969 0.997558594
vt 0.683105469 0.997558594
vt 0.633789062 0.997558594
vt 0.5859375 0.997558594
vt 0.52734375 0.297851562
vt 0.52734375 0.461425781
vt 0.427001953 0.461425781
vt 0.427001953 0.297851562
vt 0.319335938 0.461425781
vt 0.319335938 0.297851562
vt 0.319335938 0.248168945
vt 0.427001953 0.248168945
vt 0.52734375 0.248168945
vt 0.52734375 0.200439453
vt 0.427001953 0.200439453
vt 0.319335938 0.200439453
vt 0.319335938 0.297851562
vt 0.319335938 0.461425781
vt 0.209716797 0.461425781
vt 0.209716797 0.297851562
vt 0.102294922 0.461425781
vt 0.209716797 0.248168945
vt 0.319335938 0.248168945
vt 0.319335938 0.200439453
vt 0.209716797 0.200439453
vt 0.102294922 0.248168945
vt 0.102294922 0.200439453
vt 0.00190830231 0.200439453
vt 0.00190830231 0.248168945
vt 0.102294922 0.297851562
vt 0.00190830231 0.461425781
vt 0.00190830231 0.297851562
vt 0.683105469 0.471923828
vt 0.847167969 0.471923828
vt 0.847167969 0.572753906
vt 0.683105469 0.572753906
vt 0.847167969 0.680175781
vt 0.633789062 0.572753906
vt 0.633789062 0.471923828
vt 0.5859375 0.471923828
vt 0.5859375 0.572753906
vt 0.633789062 0.680175781
vt 0.5859375 0.680175781
vt 0.683105469 0.680175781
vt 0.847167969 0.790039062
vt 0.633789062 0.790039062
vt 0.5859375 0.790039062
vt 0.683105469 0.790039062
vt 0.847167969 0.897460938
vt 0.633789062 0.897460938
vt 0.5859375 0.897460938
vt 0.683105469 0.897460938
vt 0.847167969 0.997558594
vt 0.683105469 0.997558594
vt 0.633789062 0.997558594
vt 0.5859375 0.997558594
vt 0.52734375 0.297851562
vt 0.52734375 0.461425781
vt 0.427001953 0.461425781
vt 0.427001953 0.297851562
vt 0.319335938 0.461425781
vt 0.319335938 0.297851562
vt 0.319335938 0.248168945
vt 0.427001953 0.248168945
vt 0.52734375 0.248168945
vt 0.52734375 0.200439453
vt 0.427001953 0.200439453
vt 0.319335938 0.200439453
vt 0.319335938 0.297851562
vt 0.319335938 0.461425781
vt 0.209716797 0.461425781
vt 0.209716797 0.297851562
vt 0.102294922 0.461425781
vt 0.209716797 0.248168945
vt 0.319335938 0.248168945
vt 0.319335938 0.200439453
vt 0.209716797 0.200439453
vt 0.102294922 0.248168945
vt 0.102294922 0.200439453
vt 0.00190830231 0.200439453
vt 0.00190830231 0.248168945
vt 0.102294922 0.297851562
vt 0.00190830231 0.461425781
vt 0.00190830231 0.297851562
vt 0.204711914 0.514160156
vt 0.351318359 0.514160156
vt 0.0862426758 0.600585938
vt 0.469726562 0.600585938
vt 0.515136719 0.739746094
vt 0.469726562 0.87890625
vt 0.351318359 0.96484375
vt 0.204711914 0.96484375
vt 0.0862426758 0.87890625
vt 0.041015625 0.739746094
vt 0.204711914 0.514160156
vt 0.351318359 0.514160156
vt 0.0862426758 0.600585938
vt 0.469726562 0.600585938
vt 0.515136719 0.739746094
vt 0.469726562 0.87890625
vt 0.351318359 0.96484375
vt 0.204711914 0.96484375
vt 0.0862426758 0.87890625
vt 0.041015625 0.739746094
vt 0.683105469 0.471923828
vt 0.847167969 0.471923828
vt 0.847167969 0.572753906
vt 0.683105469 0.572753906
vt 0.847167969 0.680175781
vt 0.633789062 0.572753906
vt 0.633789062 0.471923828
vt 0.5859375 0.471923828
vt 0.5859375 0.572753906
vt 0.633789062 0.680175781
vt 0.5859375 0.680175781
vt 0.683105469 0.680175781
vt 0.847167969 0.790039062
vt 0.633789062 0.790039062
vt 0.5859375 0.790039062
vt 0.683105469 0.790039062
vt 0.847167969 0.897460938
vt 0.633789062 0.897460938
vt 0.5859375 0.897460938
vt 0.683105469 0.897460938
vt 0.847167969 0.997558594
vt 0.683105469 0.997558594
vt 0.633789062 0.997558594
vt 0.5859375 0.997558594
vt 0.52734375 0.297851562
vt 0.52734375 0.461425781
vt 0.427001953 0.461425781
vt 0.427001953 0.297851562
vt 0.319335938 0.461425781
vt 0.319335938 0.297851562
vt 0.319335938 0.248168945
vt 0.427001953 0.248168945
vt 0.52734375 0.248168945
vt 0.52734375 0.200439453
vt 0.427001953 0.200439453
vt 0.319335938 0.200439453
vt 0.319335938 0.297851562
vt 0.319335938 0.461425781
vt 0.209716797 0.461425781
vt 0.209716797 0.297851562
vt 0.102294922 0.461425781
vt 0.209716797 0.248168945
vt 0.319335938 0.248168945
vt 0.319335938 0.200439453
vt 0.209716797 0.200439453
vt 0.102294922 0.248168945
vt 0.102294922 0.200439453
vt 0.00190830231 0.200439453
vt 0.00190830231 0.248168945
vt 0.102294922 0.297851562
vt 0.00190830231 0.461425781
vt 0.00190830231 0.297851562
vt 0.204711914 0.514160156
vt 0.351318359 0.514160156
vt 0.0862426758 0.600585938
vt 0.469726562 0.600585938
vt 0.515136719 0.739746094
vt 0.469726562 0.87890625
vt 0.351318359 0.96484375
vt 0.204711914 0.96484375
vt 0.0862426758 0.87890625
vt 0.041015625 0.739746094
vt 0.847167969 0.572753906
vt 0.847167969 0.471923828
vt 0.683105469 0.471923828
vt 0.683105469 0.572753906
vt 0.847167969 0.680175781
vt 0.633789062 0.572753906
vt 0.633789062 0.471923828
vt 0.5859375 0.471923828
vt 0.5859375 0.572753906
vt 0.633789062 0.680175781
vt 0.5859375 0.680175781
vt 0.683105469 0.680175781
vt 0.847167969 0.790039062
vt 0.633789062 0.790039062
vt 0.5859375 0.790039062
vt 0.683105469 0.790039062
vt 0.847167969 0.897460938
vt 0.633789062 0.897460938
vt 0.5859375 0.897460938
vt 0.683105469 0.897460938
vt 0.847167969 0.997558594
vt 0.683105469 0.997558594
vt 0.633789062 0.997558594
vt 0.5859375 0.997558594
vt 0.427001953 0.461425781
vt 0.52734375 0.461425781
vt 0.52734375 0.297851562
vt 0.427001953 0.297851562
vt 0.319335938 0.461425781
vt 0.319335938 0.297851562
vt 0.319335938 0.248168945
vt 0.427001953 0.248168945
vt 0.52734375 0.248168945
vt 0.52734375 0.200439453
vt 0.427001953 0.200439453
vt 0.319335938 0.200439453
vt 0.209716797 0.461425781
vt 0.319335938 0.461425781
vt 0.319335938 0.297851562
vt 0.209716797 0.297851562
vt 0.102294922 0.461425781
vt 0.209716797 0.248168945
vt 0.319335938 0.248168945
vt 0.319335938 0.200439453
vt 0.209716797 0.200439453
vt 0.102294922 0.248168945
vt 0.102294922 0.200439453
vt 0.00190830231 0.200439453
vt 0.00190830231 0.248168945
vt 0.102294922 0.297851562
vt 0.00190830231 0.461425781
vt 0.00190830231 0.297851562
vt 0.204711914 0.514160156
vt 0.0862426758 0.600585938
vt 0.351318359 0.514160156
vt 0.469726562 0.600585938
vt 0.515136719 0.739746094
vt 0.469726562 0.87890625
vt 0.351318359 0.96484375
vt 0.204711914 0.96484375
vt 0.0862426758 0.87890625
vt 0.041015625 0.739746094
vt 0.847167969 0.572753906
vt 0.847167969 0.471923828
vt 0.683105469 0.471923828
vt 0.683105469 0.572753906
vt 0.847167969 0.680175781
vt 0.633789062 0.572753906
vt 0.633789062 0.471923828
vt 0.5859375 0.471923828
vt 0.5859375 0.572753906
vt 0.633789062 0.680175781
vt 0.5859375 0.680175781
vt 0.683105469 0.680175781
vt 0.847167969 0.790039062
vt 0.633789062 0.790039062
vt 0.5859375 0.790039062
vt 0.683105469 0.790039062
vt 0.847167969 0.897460938
vt 0.633789062 0.897460938
vt 0.5859375 0.897460938
vt 0.683105469 0.897460938
vt 0.847167969 0.997558594
vt 0.683105469 0.997558594
vt 0.633789062 0.997558594
vt 0.5859375 0.997558594
vt 0.427001953 0.461425781
vt 0.52734375 0.461425781
vt 0.52734375 0.297851562
vt 0.427001953 0.297851562
vt 0.319335938 0.461425781
vt 0.319335938 0.297851562
vt 0.319335938 0.248168945
vt 0.427001953 0.248168945
vt 0.52734375 0.248168945
vt 0.52734375 0.200439453
vt 0.427001953 0.200439453
vt 0.319335938 0.200439453
vt 0.209716797 0.461425781
vt 0.319335938 0.461425781
vt 0.319335938 0.297851562
vt 0.209716797 0.297851562
vt 0.102294922 0.461425781
vt 0.209716797 0.248168945
vt 0.319335938 0.248168945
vt 0.319335938 0.200439453
vt 0.209716797 0.200439453
vt 0.102294922 0.248168945
vt 0.102294922 0.200439453
vt 0.00190830231 0.200439453
vt 0.00190830231 0.248168945
vt 0.102294922 0.297851562
vt 0.00190830231 0.461425781
vt 0.00190830231 0.297851562
vt 0.204711914 0.514160156
vt 0.0862426758 0.600585938
vt 0.351318359 0.514160156
vt 0.469726562 0.600585938
vt 0.515136719 0.739746094
vt 0.469726562 0.87890625
vt 0.351318359 0.96484375
vt 0.204711914 0.96484375
vt 0.0862426758 0.87890625
vt 0.041015625 0.739746094
vt 0.847167969 0.572753906
vt 0.847167969 0.471923828
vt 0.683105469 0.471923828
vt 0.683105469 0.572753906
vt 0.847167969 0.680175781
vt 0.633789062 0.572753906
vt 0.633789062 0.471923828
vt 0.5859375 0.471923828
vt 0.5859375 0.572753906
vt 0.633789062 0.680175781
vt 0.5859375 0.680175781
vt 0.683105469 0.680175781
vt 0.847167969 0.790039062
vt 0.633789062 0.790039062
vt 0.5859375 0.790039062
vt 0.683105469 0.790039062
vt 0.847167969 0.897460938
vt 0.633789062 0.897460938
vt 0.5859375 0.897460938
vt 0.683105469 0.897460938
vt 0.847167969 0.997558594
vt 0.683105469 0.997558594
vt 0.633789062 0.997558594
vt 0.5859375 0.997558594
vt 0.427001953 0.461425781
vt 0.52734375 0.461425781
vt 0.52734375 0.297851562
vt 0.427001953 0.297851562
vt 0.319335938 0.461425781
vt 0.319335938 0.297851562
vt 0.319335938 0.248168945
vt 0.427001953 0.248168945
vt 0.52734375 0.248168945
vt 0.52734375 0.200439453
vt 0.427001953 0.200439453
vt 0.319335938 0.200439453
vt 0.209716797 0.461425781
vt 0.319335938 0.461425781
vt 0.319335938 0.297851562
vt 0.209716797 0.297851562
vt 0.102294922 0.461425781
vt 0.209716797 0.248168945
vt 0.319335938 0.248168945
vt 0.319335938 0.200439453
vt 0.209716797 0.200439453
vt 0.102294922 0.248168945
vt 0.102294922 0.200439453
vt 0.00190830231 0.200439453
vt 0.00190830231 0.248168945
vt 0.102294922 0.297851562
vt 0.00190830231 0.461425781
vt 0.00190830231 0.297851562
vt 0.204711914 0.514160156
vt 0.0862426758 0.600585938
vt 0.351318359 0.514160156
vt 0.469726562 0.600585938
vt 0.515136719 0.739746094
vt 0.469726562 0.87890625
vt 0.351318359 0.96484375
vt 0.204711914 0.96484375
vt 0.0862426758 0.87890625
vt 0.041015625 0.739746094
vt 0.780273438 0.411132812
vt 0.673828125 0.333740234
vt 0.805175781 0.333740234
vt 0.714355469 0.458740234
vt 0.780273438 0.256347656
vt 0.633300781 0.458740234
vt 0.714355469 0.208740234
vt 0.567382812 0.411132812
vt 0.633300781 0.208740234
vt 0.542480469 0.333740234
vt 0.567382812 0.256347656
vt 0.780273438 0.411132812
vt 0.673828125 0.333740234
vt 0.805175781 0.333740234
vt 0.714355469 0.458740234
vt 0.780273438 0.256347656
vt 0.633300781 0.458740234
vt 0.714355469 0.208740234
vt 0.567382812 0.411132812
vt 0.633300781 0.208740234
vt 0.542480469 0.333740234
vt 0.567382812 0.256347656
vt 0.780273438 0.411132812
vt 0.673828125 0.333740234
vt 0.805175781 0.333740234
vt 0.714355469 0.458740234
vt 0.780273438 0.256347656
vt 0.633300781 0.458740234
vt 0.714355469 0.208740234
vt 0.567382812 0.411132812
vt 0.633300781 0.208740234
vt 0.542480469 0.333740234
vt 0.567382812 0.256347656
vt 0.780273438 0.411132812
vt 0.805175781 0.333740234
vt 0.673828125 0.333740234
vt 0.714355469 0.458740234
vt 0.780273438 0.256347656
vt 0.633300781 0.458740234
vt 0.714355469 0.208740234
vt 0.567382812 0.411132812
vt 0.633300781 0.208740234
vt 0.542480469 0.333740234
vt 0.567382812 0.256347656
vt 0.780273438 0.411132812
vt 0.805175781 0.333740234
vt 0.673828125 0.333740234
vt 0.714355469 0.458740234
vt 0.780273438 0.256347656
vt 0.633300781 0.458740234
vt 0.714355469 0.208740234
vt 0.567382812 0.411132812
vt 0.633300781 0.208740234
vt 0.542480469 0.333740234
vt 0.567382812 0.256347656
vt 0.780273438 0.411132812
vt 0.805175781 0.333740234
vt 0.673828125 0.333740234
vt 0.714355469 0.458740234
vt 0.780273438 0.256347656
vt 0.633300781 0.458740234
vt 0.714355469 0.208740234
vt 0.567382812 0.411132812
vt 0.633300781 0.208740234
vt 0.542480469 0.333740234
vt 0.567382812 0.256347656
vn -0.068050243 -6.09842973E-05 -0.997681856
vn 0.384411454 9.93298527E-05 -0.923161805
vn 0.310703099 0.587850094 -0.746924281
vn -0.133878425 0.525908351 -0.8399387
vn 0.11833483 0.951065838 -0.285430521
vn -0.899890304 0.0399489887 -0.43428278
vn -0.894901037 0 -0.446264684
vn -0.966038048 1.00711354E-07 0.258399665
vn -0.921261966 -0.358489841 0.150868773
vn -0.912953854 0.0646386147 -0.402910829
vn -0.804035902 -0.580049038 -0.130650029
vn -0.305947512 0.85095799 -0.426926941
vn -0.119221874 0.951065958 0.285060853
vn -0.929100811 0.064638339 -0.364134133
vn -0.659136415 -0.58004874 -0.478625655
vn -0.518537223 0.85095787 0.0836054385
vn -0.311251342 0.587850094 0.746696055
vn -0.942164123 0.0399487056 -0.332762659
vn -0.541910708 -0.358490318 -0.760143042
vn -0.690456212 0.525908232 0.496679664
vn -0.384411484 9.85554943E-05 0.923161805
vn -0.756041169 -6.16357211E-05 0.654523969
vn -0.947154164 -3.13239326E-07 -0.320778847
vn -0.497134805 0 -0.867673278
vn -0.756041169 -6.16357211E-05 0.654523969
vn -0.384411484 9.85554943E-05 0.923161805
vn -0.310739279 -0.587720275 0.747011423
vn -0.69023174 -0.526065528 0.496825218
vn -0.118357234 -0.951046884 0.285484701
vn -0.518156052 -0.851171196 0.0837968439
vn -0.929100811 -0.0646383539 -0.364133865
vn -0.942164302 -0.039948985 -0.332761884
vn -0.947154164 -3.13239326E-07 -0.320778847
vn -0.497134805 0 -0.867673278
vn -0.541910648 0.358490318 -0.760143101
vn -0.659136355 0.5800488 -0.478625685
vn -0.518156052 -0.851171196 0.0837968439
vn -0.118357234 -0.951046884 0.285484701
vn 0.119244665 -0.951046765 -0.285115451
vn -0.305543453 -0.851171315 -0.426791042
vn 0.311287761 -0.587719738 -0.746783435
vn -0.912953854 -0.0646386221 -0.402910829
vn -0.929100811 -0.0646383539 -0.364133865
vn -0.659136355 0.5800488 -0.478625685
vn -0.804035842 0.580049157 -0.130649805
vn -0.899890363 -0.0399489328 -0.43428269
vn -0.921261966 0.358489752 0.150868893
vn -0.966038048 1.00711354E-07 0.258399665
vn -0.894901037 0 -0.446264684
vn -0.133617282 -0.526065052 -0.839882076
vn 0.384411454 9.93298527E-05 -0.923161805
vn -0.068050243 -6.09842973E-05 -0.997681856
vn -0.446342707 5.75718559E-07 -0.894862056
vn -2.25549229E-07 6.08448431E-07 -1
vn -3.03293774E-07 0.587785363 -0.809017003
vn -0.44634226 0.525987327 -0.723958611
vn -0 0.95105648 -0.309017152
vn -0.997687697 0.0399487391 -0.054984726
vn -0.997687817 3.05230486E-07 -0.0679643527
vn -0.792478561 0 0.609899879
vn -0.792478621 -0.358490467 0.493418872
vn -0.997687817 0.06463781 -0.0210023746
vn -0.79247874 -0.580048919 0.188469142
vn -0.446342707 0.851064384 -0.276527703
vn 2.57168324E-07 0.95105654 0.309017062
vn -0.997687817 0.0646377653 0.0210024044
vn -0.792478621 -0.580049098 -0.188469246
vn -0.446342587 0.851064384 0.276527852
vn 4.05355763E-07 0.587785423 0.809016883
vn -0.997687697 0.0399485305 0.054984767
vn -0.792478681 -0.358490109 -0.493419111
vn -0.446341962 0.52598691 0.723958969
vn 4.01425382E-07 0 1
vn -0.446341902 0 0.894862533
vn -0.997687697 0 0.0679652095
vn -0.79247874 0 -0.60989958
vn -0.446341902 0 0.894862533
vn 4.01425382E-07 0 1
vn 2.36222462E-07 -0.587785542 0.809016824
vn -0.446342051 -0.525987208 0.72395885
vn -0 -0.95105654 0.309016794
vn -0.44634217 -0.851064622 0.276527822
vn -0.997687817 -0.0646381453 0.0210024994
vn -0.997687697 -0.0399488322 0.054984916
vn -0.997687697 0 0.0679652095
vn -0.79247874 0 -0.60989958
vn -0.792478681 0.358490199 -0.493419051
vn -0.792478442 0.580049396 -0.188469142
vn -0.44634217 -0.851064622 0.276527822
vn -0 -0.95105654 0.309016794
vn -2.44191313E-07 -0.95105654 -0.309016913
vn -0.446342915 -0.851064384 -0.276527345
vn -1.98179706E-07 -0.587785244 -0.809017003
vn -0.997687817 -0.0646377951 -0.0210020207
vn -0.997687817 -0.0646381453 0.0210024994
vn -0.792478442 0.580049396 -0.188469142
vn -0.792478383 0.580049276 0.188469574
vn -0.997687817 -0.0399482585 -0.0549839139
vn -0.792478323 0.358490527 0.493419349
vn -0.792478561 0 0.609899879
vn -0.997687817 3.05230486E-07 -0.0679643527
vn -0.446342498 -0.525986791 -0.72395879
vn -2.25549229E-07 6.08448431E-07 -1
vn -0.446342707 5.75718559E-07 -0.894862056
vn 0.923162103 3.50790117E-07 0.384410799
vn 0.923162103 3.76212483E-07 0.384410799
vn 0.923162043 0 0.384411156
vn 0.923161924 -3.11863005E-07 0.384411246
vn 0.923162043 -2.16960274E-07 0.384410977
vn 0.923162103 0 0.384410948
vn 0.923162043 -1.6008579E-07 0.384411156
vn 0.923161924 -1.16409041E-07 0.384411246
vn 0.923161805 0 0.384411633
vn 0.923161805 -1.62585266E-07 0.384411395
vn 1 0 0
vn 1 0 0
vn 1 0 0
vn 1 0 0
vn 1 0 0
vn 1 0 0
vn 1 0 0
vn 1 0 0
vn 1 0 0
vn 1 0 0
vn -0.825413585 0.171910435 -0.537716687
vn -0.554331541 -0.0540167838 -0.830541193
vn -0.222188592 0.466552526 -0.856131375
vn -0.528191447 0.637748599 -0.560616255
vn 0.19482255 0.808914304 -0.554708779
vn -0.751312137 0.524019718 0.401164979
vn -0.773886085 0.488639355 0.402904361
vn -0.246698245 0.423995018 0.871417284
vn -0.449271888 0.106500037 0.887024522
vn -0.722970426 0.54728812 0.421650857
vn -0.703606784 -0.102307022 0.703186214
vn -0.155024141 0.9441154 -0.290884316
vn 0.537418127 0.842298925 -0.041405756
vn -0.69968605 0.54955709 0.456537455
vn -0.91255492 -0.122668125 0.390123159
vn 0.151551619 0.973989904 0.168451265
vn 0.674737751 0.553953946 0.487713009
vn -0.690352023 0.529960811 0.492499471
vn -0.996306062 0.0531937219 0.0674138963
vn 0.274434149 0.71596086 0.641939104
vn 0.554330528 0.0540173836 0.830541849
vn 0.166686445 0.268586218 0.948723972
vn -0.698535562 0.49598217 0.515800118
vn -0.922869742 0.358104616 -0.141677424
vn 0.166686445 0.268586218 0.948723972
vn 0.554330528 0.0540173836 0.830541849
vn 0.222187936 -0.46655196 0.856131911
vn -0.130536228 -0.197251901 0.971623421
vn -0.194822952 -0.808914244 0.554708779
vn -0.503703356 -0.503618419 0.701891303
vn -0.749452353 0.437333554 0.497051865
vn -0.721110046 0.460601568 0.517538965
vn -0.698535562 0.49598217 0.515800118
vn -0.922869742 0.358104616 -0.141677424
vn -0.720295906 0.675599873 -0.157285124
vn -0.465961099 0.884406686 0.0265527591
vn -0.503703356 -0.503618419 0.701891303
vn -0.194822952 -0.808914244 0.554708779
vn -0.537418783 -0.842298388 0.0414052159
vn -0.81027925 -0.533492386 0.242555782
vn -0.674738586 -0.55395323 -0.487712562
vn -0.772736788 0.435064733 0.462165028
vn -0.749452353 0.437333554 0.497051865
vn -0.465961099 0.884406686 0.0265527591
vn -0.257013202 0.90476799 0.339616001
vn -0.7820701 0.45466131 0.426203698
vn -0.173262224 0.728906333 0.662326097
vn -0.246698245 0.423995018 0.871417284
vn -0.773886085 0.488639355 0.402904361
vn -0.933161139 -0.275464028 -0.230932519
vn -0.554331541 -0.0540167838 -0.830541193
vn -0.825413585 0.171910435 -0.537716687
vn 0.7379179 -0.493451566 -0.46041587
vn 0.737917721 -0.49345234 -0.460415334
vn 0.7379179 -0.493451804 -0.460415602
vn 0.737917602 -0.493451416 -0.460416436
vn 0.73791796 -0.493451715 -0.460415512
vn 0.73791796 -0.493452072 -0.460415155
vn 0.737917721 -0.493451953 -0.460415632
vn 0.737917662 -0.493452042 -0.460415781
vn 0.737917304 -0.493452162 -0.460416108
vn 0.737919033 -0.493450761 -0.460414916
vn 0.0382798947 -0.000281035347 -0.999267042
vn 0.618319631 -0.00238889665 -0.785923064
vn 0.554956079 0.444201231 -0.703355491
vn 0.0359000899 0.446087688 -0.89426887
vn -0.556381464 0.00193426339 -0.830924809
vn 0.00627897959 0.997661829 -0.0680552348
vn 0.0457014851 0.997518539 -0.0535554104
vn -0.374191403 0.793931127 0.479222387
vn -0.0204259735 0.792645693 0.60934031
vn -0.0341375023 0.997812271 -0.0566143803
vn 0.3422575 0.791294277 0.506668627
vn -0.496239513 0.448069781 -0.743626118
vn -0.938523769 0.00341068045 -0.345197648
vn -0.0601096936 0.997912705 -0.0236018728
vn 0.575326085 0.790393412 0.210424125
vn -0.838204563 0.449391276 -0.308967054
vn -0.962182164 0.00358427898 0.272383064
vn -0.0617174022 0.997924566 0.0183720347
vn 0.589755118 0.790287197 -0.16623807
vn -0.859375656 0.449546784 0.243682563
vn -0.618319571 0.00238880445 0.785923123
vn -0.551665664 0.448477209 0.70323056
vn -0.0383468904 0.997843266 0.0532752238
vn 0.380033314 0.791016102 -0.479445577
vn -0.0382797234 0.000280943379 0.999267042
vn -0.618319571 0.00238880445 0.785923123
vn -0.551665664 0.448477209 0.70323056
vn -0.0326100215 0.446590632 0.894143939
vn 0.556381106 -0.00193438015 0.830925047
vn 0.4995296 0.444608599 0.74350071
vn 0.0414915644 0.997549474 0.0563330129
vn 0.00107596314 0.997700036 0.0677750185
vn -0.0383468904 0.997843266 0.0532752238
vn 0.380033314 0.791016102 -0.479445577
vn 0.0262678061 0.792301536 -0.609564066
vn -0.336415589 0.793652594 -0.506892681
vn 0.938523948 -0.00341081084 0.34519729
vn 0.556381106 -0.00193438015 0.830925047
vn 0.4995296 0.444608599 0.74350071
vn 0.841494858 0.443286926 0.308841676
vn 0.962182164 -0.00358428899 -0.272383332
vn 0.0674641803 0.9974491 0.0233209636
vn 0.0414915644 0.997549474 0.0563330129
vn -0.336415589 0.793652594 -0.506892681
vn -0.569484353 0.794553578 -0.210647196
vn 0.0690722391 0.997437239 -0.0186526831
vn -0.583913147 0.794659734 0.166015491
vn -0.374191403 0.793931127 0.479222387
vn 0.0457014851 0.997518539 -0.0535554104
vn 0.862665713 0.443131447 -0.243808016
vn 0.618319631 -0.00238889665 -0.785923064
vn 0.554956079 0.444201231 -0.703355491
vn -0.0036852716 -0.999993205 0.000141591649
vn -0.0036861666 -0.999993205 0.000140644377
vn -0.00368638057 -0.999993205 0.000139935932
vn -0.00368618965 -0.999993205 0.000140933014
vn -0.00368605065 -0.999993205 0.00014076753
vn -0.00368611864 -0.999993205 0.000140641554
vn -0.00368599943 -0.999993205 0.000140607503
vn -0.00368568464 -0.999993205 0.000140196484
vn -0.00368599989 -0.999993205 0.000140307078
vn -0.00368780759 -0.999993205 0.000140818738
vn -0.565976262 0.49985379 -0.655604422
vn -0.340115607 0 -0.940383673
vn 0.0525856949 0.234835833 -0.970611632
vn -0.149528891 0.68213582 -0.715773582
vn -0.575653076 0.808780551 -0.120405659
vn 0.7593894 0.558888078 -0.333124399
vn 0.774739325 0.524917006 -0.352478415
vn 0.841184735 0.416948974 0.344328076
vn 0.978937328 0.112087466 0.17064026
vn 0.758731544 0.579884291 -0.296750069
vn 0.984838963 -0.0763257295 -0.155777872
vn -0.158187672 0.958582819 -0.236845419
vn -0.365450025 0.808780491 0.460782498
vn 0.773017406 0.579885483 -0.257248789
vn 0.856636524 -0.0763245523 -0.510243356
vn 0.0299146771 0.958582699 0.283238977
vn -0.0156576298 0.49985373 0.865968287
vn 0.796790898 0.558889329 -0.229710549
vn 0.643298984 0.112089798 -0.757365406
vn 0.342930377 0.682136118 0.645824313
vn 0.340115905 -2.04383667E-07 0.940383554
vn 0.66129905 0.234835669 0.712415457
vn 0.820970535 0.524916947 -0.224654317
vn 0.426312625 0.416949987 -0.80275166
vn 0.565976501 -0.499853849 0.655604124
vn 0.340115905 -2.04383667E-07 0.940383554
vn 0.66129905 0.234835669 0.712415457
vn 0.863412976 -0.212464362 0.457577199
vn 0.575653017 -0.808780551 0.120406441
vn 0.872072637 -0.488910466 -0.0213515479
vn 0.836978197 0.469949812 -0.28038308
vn 0.836321294 0.490944475 -0.244008616
vn 0.820970535 0.524916947 -0.224654317
vn 0.426312625 0.416949987 -0.80275166
vn 0.288560331 0.721810043 -0.629065275
vn 0.28265816 0.910224319 -0.302648306
vn 0.365449429 -0.808780491 -0.460782886
vn 0.575653017 -0.808780551 0.120406441
vn 0.872072637 -0.488910466 -0.0213515479
vn 0.683969676 -0.488910407 -0.541435063
vn 0.0156570617 -0.499853671 -0.865968287
vn 0.822691679 0.469949931 -0.319883227
vn 0.836978197 0.469949812 -0.28038308
vn 0.28265816 0.910224319 -0.302648306
vn 0.410860568 0.910224378 0.0518186875
vn 0.798919022 0.490945488 -0.347420484
vn 0.624198437 0.721810222 0.298941761
vn 0.841184735 0.416948974 0.344328076
vn 0.774739325 0.524917006 -0.352478415
vn 0.370953023 -0.212464154 -0.904020309
vn -0.340115607 0 -0.940383673
vn 0.0525856949 0.234835833 -0.970611632
vn -0.799702585 -0.526135504 0.289235562
vn -0.799703956 -0.526133478 0.289235383
vn -0.799704373 -0.526133001 0.289235234
vn -0.799704492 -0.526132882 0.289235294
vn -0.799703956 -0.526133418 0.28923589
vn -0.799703777 -0.526133478 0.289235801
vn -0.799704075 -0.526133418 0.289235115
vn -0.799704373 -0.526133299 0.289234698
vn -0.799704254 -0.52613306 0.289235443
vn -0.799704254 -0.526133299 0.289235234
vn 0.241436645 0.590856969 -0.769802809
vn -0.00305271614 0.0709005818 -0.997478664
vn 0.403365314 -0.121213384 -0.906974971
vn 0.622149885 0.34407562 -0.70323652
vn 0.393705487 0.885126173 -0.248088032
vn 0.924140573 -0.372605026 -0.084437795
vn 0.907524347 -0.407942802 -0.0999104753
vn 0.722886026 -0.371104836 0.582852483
vn 0.57377249 -0.688227296 0.443991214
vn 0.934489548 -0.352605104 -0.0489797629
vn 0.480904609 -0.867701471 0.125797033
vn 0.758410215 0.607405603 -0.236373305
vn 0.395592093 0.841306925 0.368387848
vn 0.934617698 -0.35558337 -0.00708121993
vn 0.479754388 -0.840975702 -0.250191033
vn 0.760099053 0.568193138 0.315287292
vn 0.246376067 0.476136416 0.844152212
vn 0.924476445 -0.380401611 0.0252543706
vn 0.570761442 -0.618259072 -0.540358305
vn 0.626571536 0.241416007 0.741030693
vn -0.0250688996 -0.13223438 0.99090147
vn 0.363424718 -0.289004862 0.885662854
vn 0.894942939 -0.442166805 0.0597134158
vn 0.719164312 -0.284621775 -0.633871496
vn -0.291109085 -0.691628635 0.660988152
vn -0.0250688996 -0.13223438 0.99090147
vn 0.363424718 -0.289004862 0.885662854
vn 0.0711831078 -0.788664818 0.610688746
vn -0.403779626 -0.900527 0.161286101
vn -0.107411206 -0.981600404 0.157871574
vn 0.830923975 -0.552146375 -0.0685546324
vn 0.818874359 -0.570667446 0.0615094341
vn 0.894942939 -0.442166805 0.0597134158
vn 0.719164312 -0.284621775 -0.633871496
vn 0.863586485 0.10036546 -0.494110435
vn 0.884563625 0.443543553 -0.144278347
vn -0.410789549 -0.886973619 -0.211020544
vn -0.403779626 -0.900527 0.161286101
vn -0.107411206 -0.981600404 0.157871574
vn -0.0729518607 -0.970270097 -0.230768085
vn -0.297803342 -0.596952736 -0.744956791
vn 0.844839752 -0.534672976 0.019254636
vn 0.830923975 -0.552146375 -0.0685546324
vn 0.884563625 0.443543553 -0.144278347
vn 0.885617018 0.419060677 0.200176701
vn 0.851729214 -0.51669544 -0.0870807692
vn 0.86662066 0.029844027 0.498074174
vn 0.722886026 -0.371104836 0.582852483
vn 0.907524347 -0.407942802 -0.0999104753
vn 0.105273224 -0.706386447 -0.699954212
vn -0.00305271614 0.0709005818 -0.997478664
vn 0.403365314 -0.121213384 -0.906974971
vn -0.909834623 0.413720548 0.0321922414
vn -0.909835398 0.413718641 0.0321921222
vn -0.909835637 0.413718343 0.0321925841
vn -0.909835398 0.413718671 0.03219226
vn -0.909835339 0.413718909 0.0321921445
vn -0.909835398 0.41371873 0.0321925357
vn -0.909835517 0.413718522 0.0321925581
vn -0.909835398 0.413718641 0.0321920216
vn -0.909835398 0.413718641 0.032192152
vn -0.909835815 0.413717926 0.0321911834
vn -0.786420763 0.177234694 -0.591718078
vn -0.923162043 0 -0.384410977
vn -0.764283597 0 -0.644880295
vn -0.844376504 0.286772162 -0.452537388
vn -0.786420763 -0.17723459 -0.591718078
vn -0.916013479 0.286772341 -0.280501038
vn -0.844376504 -0.286772013 -0.452537507
vn -0.97396934 0.177235022 -0.141320661
vn -0.916013479 -0.286772162 -0.280501097
vn -0.996106446 0 -0.0881581753
vn -0.97396934 -0.177234888 -0.141320676
vn -0.95345664 0.177235231 -0.243942693
vn -1 0 1.38223868E-07
vn -0.953456759 1.15260754E-07 -0.301529646
vn -0.95345664 0.286772221 -0.0931778252
vn -0.95345664 -0.177234963 -0.243942752
vn -0.95345664 0.286772221 0.0931779072
vn -0.95345664 -0.286772043 -0.0931779146
vn -0.95345664 0.177234977 0.243942976
vn -0.95345664 -0.286772043 0.0931778774
vn -0.95345664 0 0.301530063
vn -0.95345664 -0.177234858 0.243942916
vn -0.770568609 0.611164629 0.180836454
vn -0.737917721 0.493451953 0.460415632
vn -0.870719552 0.454197437 0.188552678
vn -0.644827604 0.714397073 0.271724641
vn -0.907026172 0.30345118 0.291926205
vn -0.541525066 0.724463582 0.426501036
vn -0.865620434 0.216506258 0.451471448
vn -0.50011903 0.637518823 0.586046696
vn -0.762317896 0.226572916 0.606247544
vn -0.536425233 0.486773014 0.689420044
vn -0.636576414 0.329805791 0.697136045
vn 0.0150568141 0.953365207 -0.301443398
vn 0.189956158 0.952729702 -0.237113506
vn 0.00368593587 0.999993205 -0.000140452263
vn -0.164251477 0.954033315 -0.25068289
vn 0.293641359 0.952369213 -0.0822658911
vn -0.279479116 0.954478502 -0.10422194
vn 0.286507636 0.952421665 0.103953607
vn -0.286612451 0.954531193 0.081997253
vn 0.171280339 0.952866733 0.250415444
vn -0.182927161 0.954170585 0.236845866
vn -0.00802746881 0.953534901 0.301175594
vn 0.591823459 0.652367294 -0.473457366
vn 0.659927964 0.501646042 -0.55932653
vn 0.799704194 0.526133358 -0.289235175
vn 0.588905692 0.745517194 -0.312080592
vn 0.767204583 0.350924045 -0.536888719
vn 0.652289391 0.745516598 -0.136833668
vn 0.872677565 0.25777334 -0.414712906
vn 0.757762134 0.652366161 -0.0146569656
vn 0.93606019 0.257772952 -0.239467114
vn 0.865038216 0.501645625 0.00778075494
vn 0.933142424 0.350923657 -0.0780891478
vn 0.940288842 -0.216301635 -0.262812704
vn 0.86656791 -0.373083591 -0.331464469
vn 0.909835517 -0.413718402 -0.0321926922
vn 0.986202657 -0.127569944 -0.105499901
vn 0.793199301 -0.538031161 -0.285231978
vn 0.986771762 -0.140782401 0.0803851187
vn 0.748206139 -0.648141682 -0.141774252
vn 0.941779196 -0.250891745 0.223841831
vn 0.748774529 -0.661355317 0.0441117436
vn 0.868409634 -0.415841669 0.270074606
vn 0.794687986 -0.57262516 0.201423526
g O_env_luntai_01_posun_0
f 3/3/3 2/2/2 1/1/1
f 4/4/4 3/3/3 1/1/1
f 5/5/5 3/3/3 4/4/4
f 6/6/6 4/4/4 1/1/1
f 7/7/7 6/6/6 1/1/1
f 6/6/6 7/7/7 8/8/8
f 9/9/9 6/6/6 8/8/8
f 10/10/10 6/6/6 9/9/9
f 6/6/6 10/10/10 4/4/4
f 11/11/11 10/10/10 9/9/9
f 12/12/12 5/5/5 4/4/4
f 10/10/10 12/12/12 4/4/4
f 13/13/13 5/5/5 12/12/12
f 14/14/14 10/10/10 11/11/11
f 10/10/10 14/14/14 12/12/12
f 15/15/15 14/14/14 11/11/11
f 16/16/16 13/13/13 12/12/12
f 14/14/14 16/16/16 12/12/12
f 17/17/17 13/13/13 16/16/16
f 18/18/18 14/14/14 15/15/15
f 14/14/14 18/18/18 16/16/16
f 19/19/19 18/18/18 15/15/15
f 20/20/20 17/17/17 16/16/16
f 18/18/18 20/20/20 16/16/16
f 21/21/21 17/17/17 20/20/20
f 22/22/22 21/21/21 20/20/20
f 23/23/23 22/22/22 20/20/20
f 18/18/18 23/23/23 20/20/20
f 23/23/23 18/18/18 19/19/19
f 24/24/24 23/23/23 19/19/19
f 27/27/27 26/26/26 25/25/25
f 28/28/28 27/27/27 25/25/25
f 29/29/29 27/27/27 28/28/28
f 30/30/30 29/29/29 28/28/28
f 31/31/31 30/30/30 28/28/28
f 32/32/32 28/28/28 25/25/25
f 32/32/32 31/31/31 28/28/28
f 33/33/33 32/32/32 25/25/25
f 32/32/32 33/33/33 34/34/34
f 35/35/35 32/32/32 34/34/34
f 31/31/31 32/32/32 35/35/35
f 36/36/36 31/31/31 35/35/35
f 39/39/39 38/38/38 37/37/37
f 40/40/40 39/39/39 37/37/37
f 41/41/41 39/39/39 40/40/40
f 42/42/42 40/40/40 37/37/37
f 43/43/43 42/42/42 37/37/37
f 42/42/42 43/43/43 44/44/44
f 45/45/45 42/42/42 44/44/44
f 46/46/46 42/42/42 45/45/45
f 42/42/42 46/46/46 40/40/40
f 47/47/47 46/46/46 45/45/45
f 47/47/47 48/48/48 46/46/46
f 48/48/48 49/49/49 46/46/46
f 50/50/50 41/41/41 40/40/40
f 46/46/46 50/50/50 40/40/40
f 46/46/46 49/49/49 50/50/50
f 51/51/51 41/41/41 50/50/50
f 49/49/49 52/52/52 50/50/50
f 52/52/52 51/51/51 50/50/50
f 55/55/55 54/54/54 53/53/53
f 56/56/56 55/55/55 53/53/53
f 57/57/57 55/55/55 56/56/56
f 58/58/58 56/56/56 53/53/53
f 59/59/59 58/58/58 53/53/53
f 58/58/58 59/59/59 60/60/60
f 61/61/61 58/58/58 60/60/60
f 62/62/62 58/58/58 61/61/61
f 58/58/58 62/62/62 56/56/56
f 63/63/63 62/62/62 61/61/61
f 64/64/64 57/57/57 56/56/56
f 62/62/62 64/64/64 56/56/56
f 65/65/65 57/57/57 64/64/64
f 66/66/66 62/62/62 63/63/63
f 62/62/62 66/66/66 64/64/64
f 67/67/67 66/66/66 63/63/63
f 68/68/68 65/65/65 64/64/64
f 66/66/66 68/68/68 64/64/64
f 69/69/69 65/65/65 68/68/68
f 70/70/70 66/66/66 67/67/67
f 66/66/66 70/70/70 68/68/68
f 71/71/71 70/70/70 67/67/67
f 72/72/72 69/69/69 68/68/68
f 70/70/70 72/72/72 68/68/68
f 73/73/73 69/69/69 72/72/72
f 74/74/74 73/73/73 72/72/72
f 75/75/75 74/74/74 72/72/72
f 70/70/70 75/75/75 72/72/72
f 75/75/75 70/70/70 71/71/71
f 76/76/76 75/75/75 71/71/71
f 79/79/79 78/78/78 77/77/77
f 80/80/80 79/79/79 77/77/77
f 81/81/81 79/79/79 80/80/80
f 82/82/82 81/81/81 80/80/80
f 83/83/83 82/82/82 80/80/80
f 84/84/84 80/80/80 77/77/77
f 84/84/84 83/83/83 80/80/80
f 85/85/85 84/84/84 77/77/77
f 84/84/84 85/85/85 86/86/86
f 87/87/87 84/84/84 86/86/86
f 83/83/83 84/84/84 87/87/87
f 88/88/88 83/83/83 87/87/87
f 91/91/91 90/90/90 89/89/89
f 92/92/92 91/91/91 89/89/89
f 93/93/93 91/91/91 92/92/92
f 94/94/94 92/92/92 89/89/89
f 95/95/95 94/94/94 89/89/89
f 94/94/94 95/95/95 96/96/96
f 97/97/97 94/94/94 96/96/96
f 98/98/98 94/94/94 97/97/97
f 94/94/94 98/98/98 92/92/92
f 99/99/99 98/98/98 97/97/97
f 99/99/99 100/100/100 98/98/98
f 100/100/100 101/101/101 98/98/98
f 102/102/102 93/93/93 92/92/92
f 98/98/98 102/102/102 92/92/92
f 98/98/98 101/101/101 102/102/102
f 103/103/103 93/93/93 102/102/102
f 101/101/101 104/104/104 102/102/102
f 104/104/104 103/103/103 102/102/102
f 107/107/107 106/106/106 105/105/105
f 107/107/107 108/108/108 106/106/106
f 107/107/107 109/109/109 108/108/108
f 107/107/107 110/110/110 109/109/109
f 107/107/107 111/111/111 110/110/110
f 107/107/107 112/112/112 111/111/111
f 107/107/107 113/113/113 112/112/112
f 107/107/107 114/114/114 113/113/113
f 117/117/117 116/116/116 115/115/115
f 117/117/117 118/118/118 116/116/116
f 117/117/117 119/119/119 118/118/118
f 117/117/117 120/120/120 119/119/119
f 117/117/117 121/121/121 120/120/120
f 117/117/117 122/122/122 121/121/121
f 117/117/117 123/123/123 122/122/122
f 117/117/117 124/124/124 123/123/123
f 127/127/127 126/126/126 125/125/125
f 128/128/128 127/127/127 125/125/125
f 129/129/129 127/127/127 128/128/128
f 130/130/130 128/128/128 125/125/125
f 131/131/131 130/130/130 125/125/125
f 130/130/130 131/131/131 132/132/132
f 133/133/133 130/130/130 132/132/132
f 134/134/134 130/130/130 133/133/133
f 130/130/130 134/134/134 128/128/128
f 135/135/135 134/134/134 133/133/133
f 136/136/136 129/129/129 128/128/128
f 134/134/134 136/136/136 128/128/128
f 137/137/137 129/129/129 136/136/136
f 138/138/138 134/134/134 135/135/135
f 134/134/134 138/138/138 136/136/136
f 139/139/139 138/138/138 135/135/135
f 140/140/140 137/137/137 136/136/136
f 138/138/138 140/140/140 136/136/136
f 141/141/141 137/137/137 140/140/140
f 142/142/142 138/138/138 139/139/139
f 138/138/138 142/142/142 140/140/140
f 143/143/143 142/142/142 139/139/139
f 144/144/144 141/141/141 140/140/140
f 142/142/142 144/144/144 140/140/140
f 145/145/145 141/141/141 144/144/144
f 146/146/146 145/145/145 144/144/144
f 147/147/147 146/146/146 144/144/144
f 142/142/142 147/147/147 144/144/144
f 147/147/147 142/142/142 143/143/143
f 148/148/148 147/147/147 143/143/143
f 151/151/151 150/150/150 149/149/149
f 152/152/152 151/151/151 149/149/149
f 153/153/153 151/151/151 152/152/152
f 154/154/154 153/153/153 152/152/152
f 155/155/155 154/154/154 152/152/152
f 156/156/156 152/152/152 149/149/149
f 156/156/156 155/155/155 152/152/152
f 157/157/157 156/156/156 149/149/149
f 156/156/156 157/157/157 158/158/158
f 159/159/159 156/156/156 158/158/158
f 155/155/155 156/156/156 159/159/159
f 160/160/160 155/155/155 159/159/159
f 163/163/163 162/162/162 161/161/161
f 164/164/164 163/163/163 161/161/161
f 165/165/165 163/163/163 164/164/164
f 166/166/166 164/164/164 161/161/161
f 167/167/167 166/166/166 161/161/161
f 166/166/166 167/167/167 168/168/168
f 169/169/169 166/166/166 168/168/168
f 170/170/170 166/166/166 169/169/169
f 166/166/166 170/170/170 164/164/164
f 171/171/171 170/170/170 169/169/169
f 171/171/171 172/172/172 170/170/170
f 172/172/172 173/173/173 170/170/170
f 174/174/174 165/165/165 164/164/164
f 170/170/170 174/174/174 164/164/164
f 170/170/170 173/173/173 174/174/174
f 175/175/175 165/165/165 174/174/174
f 173/173/173 176/176/176 174/174/174
f 176/176/176 175/175/175 174/174/174
f 179/179/179 178/178/178 177/177/177
f 179/179/179 180/180/180 178/178/178
f 179/179/179 181/181/181 180/180/180
f 179/179/179 182/182/182 181/181/181
f 179/179/179 183/183/183 182/182/182
f 179/179/179 184/184/184 183/183/183
f 179/179/179 185/185/185 184/184/184
f 179/179/179 186/186/186 185/185/185
f 189/189/189 188/188/188 187/187/187
f 190/190/190 189/189/189 187/187/187
f 190/190/190 187/187/187 191/191/191
f 189/189/189 190/190/190 192/192/192
f 193/193/193 189/189/189 192/192/192
f 194/194/194 193/193/193 192/192/192
f 195/195/195 194/194/194 192/192/192
f 195/195/195 192/192/192 196/196/196
f 192/192/192 190/190/190 196/196/196
f 197/197/197 195/195/195 196/196/196
f 198/198/198 190/190/190 191/191/191
f 190/190/190 198/198/198 196/196/196
f 198/198/198 191/191/191 199/199/199
f 197/197/197 196/196/196 200/200/200
f 196/196/196 198/198/198 200/200/200
f 201/201/201 197/197/197 200/200/200
f 202/202/202 198/198/198 199/199/199
f 198/198/198 202/202/202 200/200/200
f 202/202/202 199/199/199 203/203/203
f 201/201/201 200/200/200 204/204/204
f 200/200/200 202/202/202 204/204/204
f 205/205/205 201/201/201 204/204/204
f 206/206/206 202/202/202 203/203/203
f 202/202/202 206/206/206 204/204/204
f 206/206/206 203/203/203 207/207/207
f 208/208/208 206/206/206 207/207/207
f 206/206/206 208/208/208 209/209/209
f 204/204/204 206/206/206 209/209/209
f 205/205/205 204/204/204 209/209/209
f 210/210/210 205/205/205 209/209/209
f 213/213/213 212/212/212 211/211/211
f 214/214/214 213/213/213 211/211/211
f 214/214/214 211/211/211 215/215/215
f 216/216/216 214/214/214 215/215/215
f 214/214/214 216/216/216 217/217/217
f 213/213/213 214/214/214 218/218/218
f 218/218/218 214/214/214 217/217/217
f 219/219/219 213/213/213 218/218/218
f 220/220/220 219/219/219 218/218/218
f 221/221/221 220/220/220 218/218/218
f 221/221/221 218/218/218 217/217/217
f 222/222/222 221/221/221 217/217/217
f 225/225/225 224/224/224 223/223/223
f 226/226/226 225/225/225 223/223/223
f 226/226/226 223/223/223 227/227/227
f 225/225/225 226/226/226 228/228/228
f 229/229/229 225/225/225 228/228/228
f 230/230/230 229/229/229 228/228/228
f 231/231/231 230/230/230 228/228/228
f 231/231/231 228/228/228 232/232/232
f 228/228/228 226/226/226 232/232/232
f 233/233/233 231/231/231 232/232/232
f 234/234/234 233/233/233 232/232/232
f 235/235/235 234/234/234 232/232/232
f 236/236/236 226/226/226 227/227/227
f 226/226/226 236/236/236 232/232/232
f 232/232/232 236/236/236 235/235/235
f 236/236/236 227/227/227 237/237/237
f 236/236/236 238/238/238 235/235/235
f 238/238/238 236/236/236 237/237/237
f 241/241/241 240/240/240 239/239/239
f 242/242/242 240/240/240 241/241/241
f 243/243/243 240/240/240 242/242/242
f 244/244/244 240/240/240 243/243/243
f 245/245/245 240/240/240 244/244/244
f 246/246/246 240/240/240 245/245/245
f 247/247/247 240/240/240 246/246/246
f 248/248/248 240/240/240 247/247/247
f 251/251/251 250/250/250 249/249/249
f 252/252/252 251/251/251 249/249/249
f 252/252/252 249/249/249 253/253/253
f 251/251/251 252/252/252 254/254/254
f 255/255/255 251/251/251 254/254/254
f 256/256/256 255/255/255 254/254/254
f 257/257/257 256/256/256 254/254/254
f 257/257/257 254/254/254 258/258/258
f 254/254/254 252/252/252 258/258/258
f 259/259/259 257/257/257 258/258/258
f 260/260/260 252/252/252 253/253/253
f 252/252/252 260/260/260 258/258/258
f 260/260/260 253/253/253 261/261/261
f 259/259/259 258/258/258 262/262/262
f 258/258/258 260/260/260 262/262/262
f 263/263/263 259/259/259 262/262/262
f 264/264/264 260/260/260 261/261/261
f 260/260/260 264/264/264 262/262/262
f 264/264/264 261/261/261 265/265/265
f 263/263/263 262/262/262 266/266/266
f 262/262/262 264/264/264 266/266/266
f 267/267/267 263/263/263 266/266/266
f 268/268/268 264/264/264 265/265/265
f 264/264/264 268/268/268 266/266/266
f 268/268/268 265/265/265 269/269/269
f 270/270/270 268/268/268 269/269/269
f 268/268/268 270/270/270 271/271/271
f 266/266/266 268/268/268 271/271/271
f 267/267/267 266/266/266 271/271/271
f 272/272/272 267/267/267 271/271/271
f 275/275/275 274/274/274 273/273/273
f 276/276/276 275/275/275 273/273/273
f 276/276/276 273/273/273 277/277/277
f 278/278/278 276/276/276 277/277/277
f 276/276/276 278/278/278 279/279/279
f 275/275/275 276/276/276 280/280/280
f 280/280/280 276/276/276 279/279/279
f 281/281/281 275/275/275 280/280/280
f 282/282/282 281/281/281 280/280/280
f 283/283/283 282/282/282 280/280/280
f 283/283/283 280/280/280 279/279/279
f 284/284/284 283/283/283 279/279/279
f 287/287/287 286/286/286 285/285/285
f 288/288/288 287/287/287 285/285/285
f 288/288/288 285/285/285 289/289/289
f 287/287/287 288/288/288 290/290/290
f 291/291/291 287/287/287 290/290/290
f 292/292/292 291/291/291 290/290/290
f 293/293/293 292/292/292 290/290/290
f 293/293/293 290/290/290 294/294/294
f 290/290/290 288/288/288 294/294/294
f 295/295/295 293/293/293 294/294/294
f 296/296/296 295/295/295 294/294/294
f 297/297/297 296/296/296 294/294/294
f 298/298/298 288/288/288 289/289/289
f 288/288/288 298/298/298 294/294/294
f 294/294/294 298/298/298 297/297/297
f 298/298/298 289/289/289 299/299/299
f 298/298/298 300/300/300 297/297/297
f 300/300/300 298/298/298 299/299/299
f 303/303/303 302/302/302 301/301/301
f 304/304/304 302/302/302 303/303/303
f 305/305/305 302/302/302 304/304/304
f 306/306/306 302/302/302 305/305/305
f 307/307/307 302/302/302 306/306/306
f 308/308/308 302/302/302 307/307/307
f 309/309/309 302/302/302 308/308/308
f 310/310/310 302/302/302 309/309/309
f 313/313/313 312/312/312 311/311/311
f 314/314/314 313/313/313 311/311/311
f 314/314/314 311/311/311 315/315/315
f 313/313/313 314/314/314 316/316/316
f 317/317/317 313/313/313 316/316/316
f 318/318/318 317/317/317 316/316/316
f 319/319/319 318/318/318 316/316/316
f 319/319/319 316/316/316 320/320/320
f 316/316/316 314/314/314 320/320/320
f 321/321/321 319/319/319 320/320/320
f 322/322/322 314/314/314 315/315/315
f 314/314/314 322/322/322 320/320/320
f 322/322/322 315/315/315 323/323/323
f 321/321/321 320/320/320 324/324/324
f 320/320/320 322/322/322 324/324/324
f 325/325/325 321/321/321 324/324/324
f 326/326/326 322/322/322 323/323/323
f 322/322/322 326/326/326 324/324/324
f 326/326/326 323/323/323 327/327/327
f 325/325/325 324/324/324 328/328/328
f 324/324/324 326/326/326 328/328/328
f 329/329/329 325/325/325 328/328/328
f 330/330/330 326/326/326 327/327/327
f 326/326/326 330/330/330 328/328/328
f 330/330/330 327/327/327 331/331/331
f 332/332/332 330/330/330 331/331/331
f 330/330/330 332/332/332 333/333/333
f 328/328/328 330/330/330 333/333/333
f 329/329/329 328/328/328 333/333/333
f 334/334/334 329/329/329 333/333/333
f 337/337/337 336/336/336 335/335/335
f 338/338/338 337/337/337 335/335/335
f 338/338/338 335/335/335 339/339/339
f 340/340/340 338/338/338 339/339/339
f 338/338/338 340/340/340 341/341/341
f 337/337/337 338/338/338 342/342/342
f 342/342/342 338/338/338 341/341/341
f 343/343/343 337/337/337 342/342/342
f 344/344/344 343/343/343 342/342/342
f 345/345/345 344/344/344 342/342/342
f 345/345/345 342/342/342 341/341/341
f 346/346/346 345/345/345 341/341/341
f 349/349/349 348/348/348 347/347/347
f 350/350/350 349/349/349 347/347/347
f 350/350/350 347/347/347 351/351/351
f 349/349/349 350/350/350 352/352/352
f 353/353/353 349/349/349 352/352/352
f 354/354/354 353/353/353 352/352/352
f 355/355/355 354/354/354 352/352/352
f 355/355/355 352/352/352 356/356/356
f 352/352/352 350/350/350 356/356/356
f 357/357/357 355/355/355 356/356/356
f 358/358/358 357/357/357 356/356/356
f 359/359/359 358/358/358 356/356/356
f 360/360/360 350/350/350 351/351/351
f 350/350/350 360/360/360 356/356/356
f 356/356/356 360/360/360 359/359/359
f 360/360/360 351/351/351 361/361/361
f 360/360/360 362/362/362 359/359/359
f 362/362/362 360/360/360 361/361/361
f 365/365/365 364/364/364 363/363/363
f 366/366/366 364/364/364 365/365/365
f 367/367/367 364/364/364 366/366/366
f 368/368/368 364/364/364 367/367/367
f 369/369/369 364/364/364 368/368/368
f 370/370/370 364/364/364 369/369/369
f 371/371/371 364/364/364 370/370/370
f 372/372/372 364/364/364 371/371/371
f 375/375/375 374/374/374 373/373/373
f 373/373/373 374/374/374 376/376/376
f 377/377/377 374/374/374 375/375/375
f 376/376/376 374/374/374 378/378/378
f 379/379/379 374/374/374 377/377/377
f 378/378/378 374/374/374 380/380/380
f 381/381/381 374/374/374 379/379/379
f 380/380/380 374/374/374 382/382/382
f 383/383/383 374/374/374 381/381/381
f 382/382/382 374/374/374 383/383/383
f 386/386/386 385/385/385 384/384/384
f 384/384/384 385/385/385 387/387/387
f 388/388/388 385/385/385 386/386/386
f 387/387/387 385/385/385 389/389/389
f 390/390/390 385/385/385 388/388/388
f 389/389/389 385/385/385 391/391/391
f 392/392/392 385/385/385 390/390/390
f 391/391/391 385/385/385 393/393/393
f 394/394/394 385/385/385 392/392/392
f 393/393/393 385/385/385 394/394/394
f 397/397/397 396/396/396 395/395/395
f 395/395/395 396/396/396 398/398/398
f 399/399/399 396/396/396 397/397/397
f 398/398/398 396/396/396 400/400/400
f 401/401/401 396/396/396 399/399/399
f 400/400/400 396/396/396 402/402/402
f 403/403/403 396/396/396 401/401/401
f 402/402/402 396/396/396 404/404/404
f 405/405/405 396/396/396 403/403/403
f 404/404/404 396/396/396 405/405/405
f 408/408/408 407/407/407 406/406/406
f 408/408/408 406/406/406 409/409/409
f 408/408/408 410/410/410 407/407/407
f 408/408/408 409/409/409 411/411/411
f 408/408/408 412/412/412 410/410/410
f 408/408/408 411/411/411 413/413/413
f 408/408/408 414/414/414 412/412/412
f 408/408/408 413/413/413 415/415/415
f 408/408/408 416/416/416 414/414/414
f 408/408/408 415/415/415 416/416/416
f 419/419/419 418/418/418 417/417/417
f 419/419/419 417/417/417 420/420/420
f 419/419/419 421/421/421 418/418/418
f 419/419/419 420/420/420 422/422/422
f 419/419/419 423/423/423 421/421/421
f 419/419/419 422/422/422 424/424/424
f 419/419/419 425/425/425 423/423/423
f 419/419/419 424/424/424 426/426/426
f 419/419/419 427/427/427 425/425/425
f 419/419/419 426/426/426 427/427/427
f 430/430/430 429/429/429 428/428/428
f 430/430/430 428/428/428 431/431/431
f 430/430/430 432/432/432 429/429/429
f 430/430/430 431/431/431 433/433/433
f 430/430/430 434/434/434 432/432/432
f 430/430/430 433/433/433 435/435/435
f 430/430/430 436/436/436 434/434/434
f 430/430/430 435/435/435 437/437/437
f 430/430/430 438/438/438 436/436/436
f 430/430/430 437/437/437 438/438/438
