g jianglidaoju_pao_lod1
v -0.394916147 0.833475411 1.61074317
v -0.336063236 0.266631901 1.93976927
v -0.375297695 0.644527555 1.93976939
v -0.336060852 0.266632348 1.2817167
v -0.375297695 0.644527733 1.28171694
v -0.3164424 0.0776845217 1.61074293
v -0.336060852 0.266632348 1.2817167
v -0.486958712 -0.00654076692 1.61074293
v -0.3164424 0.0776845217 1.61074293
v -0.509993792 0.21531266 1.22441757
v -0.375297695 0.644527733 1.28171694
v -0.690757453 0.229804203 1.2817167
v -0.671139002 0.0408563763 1.61074293
v -0.729994357 0.607699633 1.28171694
v -0.556063831 0.659019172 1.22441781
v -0.394916147 0.833475411 1.61074317
v -0.749612689 0.796647251 1.61074317
v -0.579098582 0.880869865 1.61074317
v -0.375297695 0.644527555 1.93976939
v -0.729994237 0.607699394 1.93976939
v -0.556063771 0.659018934 1.99706864
v -0.336063236 0.266631901 1.93976927
v -0.690757334 0.229803994 1.93976927
v -0.509993672 0.215312362 1.99706829
v -0.3164424 0.0776845217 1.61074293
v -0.671139002 0.0408563763 1.61074293
v -0.486958712 -0.00654076692 1.61074293
v -0.690757334 0.229803994 1.93976927
v -0.749612689 0.796647251 1.61074317
v -0.729994237 0.607699394 1.93976939
v -0.690757453 0.229804203 1.2817167
v -0.671139002 0.0408563763 1.61074293
v -0.729994357 0.607699633 1.28171694
v 3.57127057E-08 1.15451562 1.28100467
v -0.158019647 0.871120751 1.03805554
v 1.37783376E-08 0.946726799 0.986993551
v -0.164639473 1.07574904 1.33421373
v -0.158019647 0.719911039 1.14017701
v -0.164639473 0.918203354 1.4406153
v 9.48691703E-09 0.64430511 1.191239
v 3.12414521E-08 0.839422107 1.49380767
v 1.23227395E-07 1.94967103 2.48795176
v -0.208472475 1.84331262 2.42551565
v 1.17264634E-07 1.94305837 2.35815215
v -0.150304377 1.87775505 2.53652
v -0.208472475 1.64382625 2.56024313
v -0.150304392 1.73392832 2.63365626
v 1.11603107E-07 1.5440805 2.62760925
v 1.19145483E-07 1.66201508 2.68222404
v -0.150304377 1.87775505 2.53652
v 1.23227395E-07 1.94967103 2.48795176
v 1.21186389E-07 1.8058418 2.58508825
v -0.150304392 1.73392832 2.63365626
v 1.19145483E-07 1.66201508 2.68222404
v 1.17264634E-07 1.94305837 2.35815215
v -0.182551548 1.60934532 2.10582471
v 9.28874115E-08 1.69668913 2.04683566
v -0.208472475 1.84331262 2.42551565
v -0.182551548 1.43466043 2.22380018
v -0.208472475 1.64382625 2.56024313
v 8.79298199E-08 1.34731913 2.28278899
v 1.11603107E-07 1.5440805 2.62760925
v 9.28874115E-08 1.69668913 2.04683566
v -0.139491171 1.57919979 2.10560799
v 9.12678217E-08 1.64594007 2.06053305
v -0.182551548 1.60934532 2.10582471
v -0.139491171 1.44571924 2.19575596
v -0.182551548 1.43466043 2.22380018
v 8.74795703E-08 1.37897897 2.24082875
v 8.79298199E-08 1.34731913 2.28278899
v -6.71005917E-09 0.629125237 0.835875273
v -0.171834692 0.684585094 0.919338584
v -6.37535358E-10 0.684585094 0.919338584
v -0.171834692 0.629125237 0.835875273
v -0.220087469 0.683593452 0.801312447
v -0.220186159 0.73935914 0.884498894
v -0.220087469 0.764858842 0.749745011
v -0.220186159 0.820694268 0.832765162
v -0.171834692 0.819327235 0.715182006
v -0.171834692 0.875468194 0.797925651
v 2.3991007E-09 0.875468194 0.797925651
v -3.67173736E-09 0.819327235 0.715182006
v -0.220186159 0.73935914 0.884498894
v -6.37535358E-10 0.684585094 0.919338584
v -0.171834692 0.684585094 0.919338584
v -0.171834692 0.875468194 0.797925651
v -0.220186159 0.820694268 0.832765162
v 2.3991007E-09 0.875468194 0.797925651
v -0.220087469 0.764858842 0.749745011
v -3.67173736E-09 0.819327235 0.715182006
v -0.171834692 0.819327235 0.715182006
v -0.171834692 0.629125237 0.835875273
v -0.220087469 0.683593452 0.801312447
v -6.71005917E-09 0.629125237 0.835875273
v 1.18567547E-08 0.796378911 1.09338081
v -0.171834677 0.851838827 1.17684639
v 1.79293806E-08 0.851838827 1.17684639
v -0.171834677 0.796378911 1.09338081
v -0.220087424 0.850847125 1.05882025
v -0.220186114 0.906612813 1.14200652
v -0.220087424 0.932112455 1.00725281
v -0.220186114 0.987948 1.09027314
v -0.171834677 0.98658061 0.972689927
v -0.171834677 1.04272187 1.05543351
v 2.09660147E-08 1.04272187 1.05543351
v 1.48951749E-08 0.98658061 0.972689927
v -0.220186114 0.906612813 1.14200652
v 1.79293806E-08 0.851838827 1.17684639
v -0.171834677 0.851838827 1.17684639
v -0.171834677 1.04272187 1.05543351
v -0.220186114 0.987948 1.09027314
v 2.09660147E-08 1.04272187 1.05543351
v -0.220087424 0.932112455 1.00725281
v 1.48951749E-08 0.98658061 0.972689927
v -0.171834677 0.98658061 0.972689927
v -0.171834677 0.796378911 1.09338081
v -0.220087424 0.850847125 1.05882025
v 1.18567547E-08 0.796378911 1.09338081
v -0.213053539 0.702778995 0.69559449
v -0.140836865 1.01028705 1.29514921
v -0.140836909 0.642425239 0.735248625
v -0.213053524 1.0706408 1.25549507
v -0.140836909 0.763135254 0.655940413
v -0.140836865 1.13099718 1.21584094
v -0.068620272 0.702778995 0.69559449
v -0.0686202273 1.0706408 1.25549507
v -0.140836909 0.642425239 0.735248625
v -0.140836865 1.01028705 1.29514921
v -0.140836909 0.763135254 0.655940413
v -0.140836909 0.642425239 0.735248625
v -0.068620272 0.702778995 0.69559449
v -0.213053539 0.702778995 0.69559449
v -0.213053524 1.0706408 1.25549507
v -0.0686202273 1.0706408 1.25549507
v -0.140836865 1.01028705 1.29514921
v -0.140836865 1.13099718 1.21584094
v -0.205728367 0.547125638 0.911462009
v -0.166461796 0.532923162 0.547146022
v -0.205728367 0.711895108 0.804774046
v -0.166461796 0.382666737 0.642004848
v -6.9903705E-09 0.547125638 0.911462009
v -0.205728367 0.711895108 0.804774046
v -4.45155246E-09 0.711895108 0.804774046
v -0.205728367 0.547125638 0.911462009
v -4.45155246E-09 0.711895108 0.804774046
v -0.166461796 0.532923162 0.547146022
v -2.35359465E-08 0.532923162 0.547146022
v -0.205728367 0.711895108 0.804774046
v -2.35359465E-08 0.532923162 0.547146022
v -0.166461796 0.382666737 0.642004848
v -2.5957446E-08 0.382666737 0.642004848
v -0.166461796 0.532923162 0.547146022
v -0.114251554 0.716081321 0.781180859
v -0.114251532 0.713998914 1.17091966
v -0.114251554 0.541006505 0.894823372
v -0.114251532 0.89589107 1.05894303
v -5.29985877E-09 0.716081321 0.781180859
v 1.47012473E-08 0.89589107 1.05894303
v -0.334139198 0.600852251 1.20090401
v -0.668052137 0.244814709 0.876152933
v -0.232614622 0.600852311 1.11584008
v -0.737526894 0.244814709 0.919986069
v -0.737526894 0.244814709 0.919986069
v -0.334139198 0.397381812 1.20090389
v -0.737527013 0.148658246 0.919986069
v -0.334139198 0.600852251 1.20090401
v -0.232614622 0.397381932 1.11583984
v -0.668052137 0.244814709 0.876152933
v -0.668052197 0.148658276 0.876152933
v -0.232614622 0.600852311 1.11584008
v -0.867911637 0.266125888 0.805936575
v -0.597537398 0.266125828 0.877739251
v -0.785522163 0.266125828 0.976449788
v -0.61662662 0.266125947 0.675260425
v -0.854431212 0.266125888 0.721813798
v -0.671703935 0.266125947 0.624273181
v -0.785522163 0.140033171 0.976449728
v -0.597537398 0.266125828 0.877739251
v -0.597537458 0.1400332 0.877739072
v -0.785522163 0.266125828 0.976449788
v -0.597537458 0.1400332 0.877739072
v -0.61662662 0.266125947 0.675260425
v -0.61662662 0.14003326 0.675260425
v -0.597537398 0.266125828 0.877739251
v -0.671703935 0.14003329 0.624273181
v -0.854431212 0.266125888 0.721813798
v -0.854431212 0.14003326 0.721813798
v -0.671703935 0.266125947 0.624273181
v -0.854431212 0.14003326 0.721813798
v -0.867911637 0.266125888 0.805936575
v -0.867911637 0.140033245 0.805936515
v -0.854431212 0.266125888 0.721813798
v -0.671703935 0.14003329 0.624273181
v -0.61662662 0.266125947 0.675260425
v -0.671703935 0.266125947 0.624273181
v -0.61662662 0.14003326 0.675260425
v -0.785522163 0.140033171 0.976449728
v -0.867911637 0.266125888 0.805936575
v -0.785522163 0.266125828 0.976449788
v -0.867911637 0.140033245 0.805936515
v -0.816086531 0.405015409 0.775263906
v -0.640636265 0.405015409 0.755081773
v -0.809892774 0.405015409 0.842090726
v -0.670731366 0.405015409 0.701013148
v -0.809892774 0.405015409 0.842090726
v -0.640636265 0.263911247 0.755081594
v -0.809892774 0.263911247 0.842090607
v -0.640636265 0.405015409 0.755081773
v -0.640636265 0.405015409 0.755081773
v -0.670731425 0.263911277 0.701013029
v -0.640636265 0.263911247 0.755081594
v -0.670731366 0.405015409 0.701013148
v -0.670731366 0.405015409 0.701013148
v -0.816086531 0.263911247 0.775263786
v -0.670731425 0.263911277 0.701013029
v -0.816086531 0.405015409 0.775263906
v -0.816086531 0.405015409 0.775263906
v -0.809892774 0.263911247 0.842090607
v -0.816086531 0.263911247 0.775263786
v -0.809892774 0.405015409 0.842090726
v -0.221100897 0.581267059 1.25755322
v -0.221100837 0.643779993 1.82697904
v -0.221100837 0.58167851 1.8263073
v -0.221100882 0.644401133 1.72532678
v -0.221100882 0.744040906 1.62753356
v -0.221100882 0.75402379 1.18794358
v -0.221100882 0.855704725 1.44425738
v -0.221100882 0.967387974 1.22053742
v -0.221100882 0.849128306 1.16282678
v -0.221100882 0.985497415 1.32585824
v -0.221100882 0.744040906 1.62753356
v -0.146404773 0.855704725 1.44425738
v -0.146407187 0.744040906 1.62753356
v -0.221100882 0.855704725 1.44425738
v -0.146404773 0.985497415 1.32585824
v -0.221100882 0.985497415 1.32585824
v -0.146404773 0.967387974 1.22053504
v -0.221100882 0.967387974 1.22053742
v -0.221100882 0.849128306 1.16282678
v -0.146404803 0.849128306 1.16282678
v -0.221100882 0.75402379 1.18794358
v -0.146404803 0.75402379 1.18794358
v -0.221100837 0.643779993 1.82697904
v -0.110029235 0.581680894 1.91034591
v -0.221100837 0.58167851 1.8263073
v -0.110029235 0.643779993 1.91101754
v 3.87638401E-08 0.581680894 1.92364097
v 4.15076364E-08 0.643779993 1.92431271
v -0.221100837 0.643779993 1.82697904
v -0.221100882 0.644401133 1.72532678
v -0.110029235 0.643779993 1.91101754
v 3.28368479E-08 0.644401133 1.72532678
v 4.15076364E-08 0.643779993 1.92431271
v -0.221100897 0.581267059 1.25755322
v -0.146404803 0.75402379 1.18794358
v -0.221100882 0.75402379 1.18794358
v -0.146404803 0.581267059 1.25755322
v 1.41388314E-08 0.75402379 1.18794358
v 9.6301207E-09 0.581267059 1.25755322
v -0.146404773 0.855704725 1.44425738
v -0.146404803 0.75402379 1.18794358
v -0.146407187 0.744040906 1.62753356
v -0.146404773 0.967387974 1.22053504
v -0.146404773 0.985497415 1.32585824
v -0.146404803 0.849128306 1.16282678
v 3.28368479E-08 0.644401133 1.72532678
v -0.146407187 0.744040906 1.62753356
v 3.29175514E-08 0.744040906 1.62753356
v -0.221100882 0.644401133 1.72532678
v -0.221100882 0.744040906 1.62753356
v 3.29175514E-08 0.744040906 1.62753356
v -0.146404803 0.75402379 1.18794358
v 1.41388314E-08 0.75402379 1.18794358
v -0.146407187 0.744040906 1.62753356
v -0.165852711 0.584458828 1.94143748
v 7.28217442E-09 0.584461451 1.20064402
v 4.17950012E-08 0.584458828 1.99020791
v -0.308523923 0.584459066 1.20064402
v -0.308523923 0.584458828 1.80265391
v -0.165852711 0.584458828 1.94143748
v -0.308523923 0.447617948 1.80265391
v -0.308523923 0.584458828 1.80265391
v -0.165852711 0.447617948 1.94143748
v 3.58134962E-08 0.447617948 1.99020779
v 4.17950012E-08 0.584458828 1.99020791
v -0.308523923 0.447618157 1.20064402
v -0.308523923 0.584458828 1.80265391
v -0.308523923 0.447617948 1.80265391
v -0.308523923 0.584459066 1.20064402
v -0.308523923 0.447618157 1.20064402
v 7.28217442E-09 0.584461451 1.20064402
v -0.308523923 0.584459066 1.20064402
v 1.30056499E-09 0.447618157 1.20064402
v -0.341457129 0.629820824 1.19144845
v -0.174954444 0.629820824 1.19144845
v -0.258205801 0.629820704 1.27469981
v -0.258205801 0.629820824 1.10819948
v -0.341457129 0.629820824 1.19144845
v -0.258205801 0.376475096 1.27469969
v -0.341457129 0.376475185 1.19144833
v -0.258205801 0.629820704 1.27469981
v -0.174954444 0.376475126 1.19144833
v -0.174954444 0.629820824 1.19144845
v -0.258205801 0.376475215 1.10819948
v -0.258205801 0.629820824 1.10819948
v -0.341457129 0.376475185 1.19144833
v -0.341457129 0.629820824 1.19144845
v 5.85677711E-08 1.33778441 1.62059855
v -0.139086828 1.07395542 1.35791779
v 3.64971413E-08 1.14049852 1.31296754
v -0.131566629 1.2748307 1.66310775
v -0.139086828 0.940860093 1.44780564
v -0.131566629 1.14893305 1.74813545
v 3.27198393E-08 0.874310136 1.49274123
v 5.49947075E-08 1.08598673 1.7906543
v 3.64971413E-08 1.14049852 1.31296754
v -0.164639473 1.07574904 1.33421373
v 3.57127057E-08 1.15451562 1.28100467
v -0.139086828 1.07395542 1.35791779
v -0.164639473 0.918203354 1.4406153
v -0.139086828 0.940860093 1.44780564
v 3.12414521E-08 0.839422107 1.49380767
v 3.27198393E-08 0.874310136 1.49274123
v 9.12678217E-08 1.64594007 2.06053305
v -0.114311673 1.27179289 1.67641008
v 5.88991149E-08 1.32648742 1.63947594
v -0.139491171 1.57919979 2.10560799
v -0.114311673 1.16240633 1.75028515
v -0.139491171 1.44571924 2.19575596
v 5.57947217E-08 1.10771668 1.78722632
v 8.74795703E-08 1.37897897 2.24082875
v 5.88991149E-08 1.32648742 1.63947594
v -0.131566629 1.2748307 1.66310775
v 5.85677711E-08 1.33778441 1.62059855
v -0.114311673 1.27179289 1.67641008
v -0.131566629 1.14893305 1.74813545
v -0.114311673 1.16240633 1.75028515
v 5.49947075E-08 1.08598673 1.7906543
v 5.57947217E-08 1.10771668 1.78722632
v 9.48691703E-09 0.64430511 1.191239
v -0.158019647 0.871120751 1.03805554
v -0.158019647 0.719911039 1.14017701
v 1.37783376E-08 0.946726799 0.986993551
v 0.335299373 0.256385982 1.92796743
v 0.394098997 0.828942716 1.59820962
v 0.373893231 0.636603236 1.92923427
v 0.337112218 0.260848016 1.26465046
v 0.316906452 0.068508558 1.59567535
v 0.37570852 0.641065061 1.26591766
v 0.487710834 -0.00926667638 1.60925531
v 0.337112218 0.260848016 1.26465046
v 0.316906452 0.068508558 1.59567535
v 0.511435449 0.216569021 1.2205832
v 0.37570852 0.641065061 1.26591766
v 0.692161798 0.237728521 1.29225171
v 0.671956003 0.045389045 1.62327647
v 0.730757952 0.617945552 1.29351878
v 0.556753278 0.663001418 1.22207117
v 0.394098997 0.828942716 1.59820962
v 0.749148488 0.805823207 1.62581086
v 0.578346312 0.883595765 1.6122309
v 0.373893231 0.636603236 1.92923427
v 0.728942692 0.613483667 1.95683563
v 0.554621935 0.657762527 2.00090289
v 0.335299373 0.256385982 1.92796743
v 0.69034642 0.233266652 1.95556855
v 0.509304047 0.211330086 1.99941504
v 0.316906452 0.068508558 1.59567535
v 0.671956003 0.045389045 1.62327647
v 0.487710834 -0.00926667638 1.60925531
v 0.749148488 0.805823207 1.62581086
v 0.69034642 0.233266652 1.95556855
v 0.728942692 0.613483667 1.95683563
v 0.692161798 0.237728521 1.29225171
v 0.730757952 0.617945552 1.29351878
v 0.671956003 0.045389045 1.62327647
v 0.158019662 0.871120751 1.03805554
v 3.57127057E-08 1.15451562 1.28100467
v 1.37783376E-08 0.946726799 0.986993551
v 0.164639547 1.07574904 1.33421373
v 0.158019662 0.719911039 1.14017701
v 0.164639547 0.918203354 1.44061518
v 9.48691703E-09 0.64430511 1.191239
v 3.12414521E-08 0.839422107 1.49380767
v 0.208472729 1.84331262 2.42551565
v 1.23227395E-07 1.94967103 2.48795176
v 1.17264634E-07 1.94305837 2.35815215
v 0.15030463 1.87775505 2.53652
v 0.208472729 1.64382625 2.56024313
v 0.150304615 1.73392832 2.63365626
v 1.11603107E-07 1.5440805 2.62760925
v 1.19145483E-07 1.66201508 2.68222404
v 0.15030463 1.87775505 2.53652
v 1.21186389E-07 1.8058418 2.58508825
v 1.23227395E-07 1.94967103 2.48795176
v 0.150304615 1.73392832 2.63365626
v 1.19145483E-07 1.66201508 2.68222404
v 0.182551727 1.60934532 2.10582471
v 1.17264634E-07 1.94305837 2.35815215
v 9.28874115E-08 1.69668913 2.04683566
v 0.208472729 1.84331262 2.42551565
v 0.182551727 1.43466043 2.22380018
v 0.208472729 1.64382625 2.56024313
v 8.79298199E-08 1.34731913 2.28278899
v 1.11603107E-07 1.5440805 2.62760925
v 0.139491364 1.57919979 2.10560799
v 9.28874115E-08 1.69668913 2.04683566
v 9.12678217E-08 1.64594007 2.06053305
v 0.182551727 1.60934532 2.10582471
v 0.139491364 1.44571924 2.19575596
v 0.182551727 1.43466043 2.22380018
v 8.74795703E-08 1.37897897 2.24082875
v 8.79298199E-08 1.34731913 2.28278899
v 0.171834692 0.684585094 0.919338584
v -6.71005917E-09 0.629125237 0.835875273
v -6.37535358E-10 0.684585094 0.919338584
v 0.171834677 0.629125237 0.835875273
v 0.220087469 0.683593452 0.801312447
v 0.220186159 0.73935914 0.884498894
v 0.220087469 0.764858842 0.749745011
v 0.220186159 0.820694268 0.832765162
v 0.171834692 0.819327235 0.715182006
v 0.171834692 0.875468194 0.797925651
v 2.3991007E-09 0.875468194 0.797925651
v -3.67173736E-09 0.819327235 0.715182006
v -6.37535358E-10 0.684585094 0.919338584
v 0.220186159 0.73935914 0.884498894
v 0.171834692 0.684585094 0.919338584
v 0.171834692 0.875468194 0.797925651
v 2.3991007E-09 0.875468194 0.797925651
v 0.220186159 0.820694268 0.832765162
v -3.67173736E-09 0.819327235 0.715182006
v 0.220087469 0.764858842 0.749745011
v 0.171834692 0.819327235 0.715182006
v 0.171834677 0.629125237 0.835875273
v -6.71005917E-09 0.629125237 0.835875273
v 0.220087469 0.683593452 0.801312447
v 0.171834707 0.851838827 1.17684639
v 1.18567547E-08 0.796378911 1.09338081
v 1.79293806E-08 0.851838827 1.17684639
v 0.171834692 0.796378911 1.09338081
v 0.220087469 0.850847125 1.05882025
v 0.220186159 0.906612813 1.14200652
v 0.220087469 0.932112455 1.00725281
v 0.220186159 0.987948 1.09027314
v 0.171834692 0.98658061 0.972689927
v 0.171834707 1.04272187 1.05543351
v 2.09660147E-08 1.04272187 1.05543351
v 1.48951749E-08 0.98658061 0.972689927
v 1.79293806E-08 0.851838827 1.17684639
v 0.220186159 0.906612813 1.14200652
v 0.171834707 0.851838827 1.17684639
v 0.171834707 1.04272187 1.05543351
v 2.09660147E-08 1.04272187 1.05543351
v 0.220186159 0.987948 1.09027314
v 1.48951749E-08 0.98658061 0.972689927
v 0.220087469 0.932112455 1.00725281
v 0.171834692 0.98658061 0.972689927
v 0.171834692 0.796378911 1.09338081
v 1.18567547E-08 0.796378911 1.09338081
v 0.220087469 0.850847125 1.05882025
v 0.140836939 1.01028705 1.29514921
v 0.213053539 0.702778995 0.69559449
v 0.14083688 0.642425239 0.735248625
v 0.213053584 1.0706408 1.25549507
v 0.14083688 0.763135254 0.655940413
v 0.140836939 1.13099718 1.21584094
v 0.0686202422 0.702778995 0.69559449
v 0.0686202869 1.0706408 1.25549507
v 0.14083688 0.642425239 0.735248625
v 0.140836939 1.01028705 1.29514921
v 0.14083688 0.763135254 0.655940413
v 0.14083688 0.642425239 0.735248625
v 0.213053539 0.702778995 0.69559449
v 0.0686202422 0.702778995 0.69559449
v 0.213053584 1.0706408 1.25549507
v 0.0686202869 1.0706408 1.25549507
v 0.140836939 1.13099718 1.21584094
v 0.140836939 1.01028705 1.29514921
v 0.205728367 0.547125638 0.911462009
v 0.166461751 0.532923162 0.547146022
v 0.166461751 0.382666737 0.642004848
v 0.205728367 0.711895108 0.804774046
v -6.9903705E-09 0.547125638 0.911462009
v 0.205728367 0.711895108 0.804774046
v 0.205728367 0.547125638 0.911462009
v -4.45155246E-09 0.711895108 0.804774046
v -4.45155246E-09 0.711895108 0.804774046
v 0.166461751 0.532923162 0.547146022
v 0.205728367 0.711895108 0.804774046
v -2.35359465E-08 0.532923162 0.547146022
v -2.35359465E-08 0.532923162 0.547146022
v 0.166461751 0.382666737 0.642004848
v 0.166461751 0.532923162 0.547146022
v -2.5957446E-08 0.382666737 0.642004848
v 0.114251554 0.713998914 1.17091966
v 0.114251554 0.716081321 0.781180859
v 0.114251532 0.541006505 0.894823372
v 0.114251554 0.89589107 1.05894303
v -5.29985877E-09 0.716081321 0.781180859
v 1.47012473E-08 0.89589107 1.05894303
v 0.334139198 0.600852251 1.20090401
v 0.668052137 0.244814679 0.876152754
v 0.737526894 0.244814679 0.91998601
v 0.232614622 0.600852311 1.11584008
v 0.737526894 0.244814679 0.91998601
v 0.334139198 0.397381812 1.20090389
v 0.334139198 0.600852251 1.20090401
v 0.737526894 0.148658201 0.91998601
v 0.232614622 0.397381932 1.11583984
v 0.668052137 0.244814679 0.876152754
v 0.232614622 0.600852311 1.11584008
v 0.668052077 0.148658216 0.876152754
v 0.597537398 0.266125798 0.877739072
v 0.867911637 0.266125828 0.805936575
v 0.785522163 0.266125798 0.976449728
v 0.616626561 0.266125888 0.675260425
v 0.854431212 0.266125828 0.721813798
v 0.671703756 0.266125888 0.624273181
v 0.785522163 0.140033096 0.976449668
v 0.597537398 0.266125798 0.877739072
v 0.785522163 0.266125798 0.976449728
v 0.597537398 0.140033141 0.877739012
v 0.597537398 0.140033141 0.877739012
v 0.616626561 0.266125888 0.675260425
v 0.597537398 0.266125798 0.877739072
v 0.616626561 0.1400332 0.675260425
v 0.671703756 0.14003323 0.624273181
v 0.854431212 0.266125828 0.721813798
v 0.671703756 0.266125888 0.624273181
v 0.854431212 0.1400332 0.721813798
v 0.854431212 0.1400332 0.721813798
v 0.867911637 0.266125828 0.805936575
v 0.854431212 0.266125828 0.721813798
v 0.867911637 0.140033171 0.805936515
v 0.671703756 0.14003323 0.624273181
v 0.616626561 0.266125888 0.675260425
v 0.616626561 0.1400332 0.675260425
v 0.671703756 0.266125888 0.624273181
v 0.785522163 0.140033096 0.976449668
v 0.867911637 0.266125828 0.805936575
v 0.867911637 0.140033171 0.805936515
v 0.785522163 0.266125798 0.976449728
v 0.816086531 0.40501532 0.775263906
v 0.640636265 0.40501532 0.755081773
v 0.670731366 0.40501532 0.701013148
v 0.809892774 0.40501532 0.842090726
v 0.809892774 0.40501532 0.842090726
v 0.640636265 0.263911217 0.755081594
v 0.640636265 0.40501532 0.755081773
v 0.809892774 0.263911158 0.842090607
v 0.640636265 0.40501532 0.755081773
v 0.670731366 0.263911247 0.701013029
v 0.670731366 0.40501532 0.701013148
v 0.640636265 0.263911217 0.755081594
v 0.670731366 0.40501532 0.701013148
v 0.816086531 0.263911158 0.775263786
v 0.816086531 0.40501532 0.775263906
v 0.670731366 0.263911247 0.701013029
v 0.816086531 0.40501532 0.775263906
v 0.809892774 0.263911158 0.842090607
v 0.809892774 0.40501532 0.842090726
v 0.816086531 0.263911158 0.775263786
v 0.221100897 0.581267059 1.25755322
v 0.221100956 0.58167851 1.8263073
v 0.221100956 0.643779993 1.82697904
v 0.221100911 0.644401133 1.72532678
v 0.221100911 0.744040906 1.62753356
v 0.221100911 0.75402379 1.18794358
v 0.221100911 0.855704725 1.44425738
v 0.221100911 0.967387974 1.22053742
v 0.221100911 0.849128306 1.16282678
v 0.221100911 0.985497415 1.32585824
v 0.146404848 0.855704725 1.44425738
v 0.221100911 0.744040906 1.62753356
v 0.146407232 0.744040906 1.62753356
v 0.221100911 0.855704725 1.44425738
v 0.146404848 0.985497415 1.32585824
v 0.221100911 0.985497415 1.32585824
v 0.146404833 0.967387974 1.22053504
v 0.221100911 0.967387974 1.22053742
v 0.221100911 0.849128306 1.16282678
v 0.146404818 0.849128306 1.16282678
v 0.221100911 0.75402379 1.18794358
v 0.146404818 0.75402379 1.18794358
v 0.11002931 0.581680894 1.91034591
v 0.221100956 0.643779993 1.82697904
v 0.221100956 0.58167851 1.8263073
v 0.110029325 0.643779993 1.91101754
v 3.87638401E-08 0.581680894 1.92364097
v 4.15076364E-08 0.643779993 1.92431271
v 0.221100956 0.643779993 1.82697904
v 0.110029325 0.643779993 1.91101754
v 0.221100911 0.644401133 1.72532678
v 3.28368479E-08 0.644401133 1.72532678
v 4.15076364E-08 0.643779993 1.92431271
v 0.146404818 0.75402379 1.18794358
v 0.221100897 0.581267059 1.25755322
v 0.221100911 0.75402379 1.18794358
v 0.146404818 0.581267059 1.25755322
v 1.41388314E-08 0.75402379 1.18794358
v 9.6301207E-09 0.581267059 1.25755322
v 0.146404818 0.75402379 1.18794358
v 0.146404848 0.855704725 1.44425738
v 0.146407232 0.744040906 1.62753356
v 0.146404833 0.967387974 1.22053504
v 0.146404818 0.849128306 1.16282678
v 0.146404848 0.985497415 1.32585824
v 0.146407232 0.744040906 1.62753356
v 3.28368479E-08 0.644401133 1.72532678
v 3.29175514E-08 0.744040906 1.62753356
v 0.221100911 0.644401133 1.72532678
v 0.221100911 0.744040906 1.62753356
v 3.29175514E-08 0.744040906 1.62753356
v 0.146404818 0.75402379 1.18794358
v 0.146407232 0.744040906 1.62753356
v 1.41388314E-08 0.75402379 1.18794358
v 0.165852785 0.584458828 1.94143748
v 0.308523923 0.584459066 1.20064402
v 0.308523983 0.584458828 1.80265391
v 7.28217442E-09 0.584461451 1.20064402
v 4.17950012E-08 0.584458828 1.99020791
v 0.308523983 0.447617948 1.80265391
v 0.165852785 0.584458828 1.94143748
v 0.308523983 0.584458828 1.80265391
v 0.165852785 0.447617948 1.94143748
v 3.58134962E-08 0.447617948 1.99020779
v 4.17950012E-08 0.584458828 1.99020791
v 0.308523923 0.447618157 1.20064402
v 0.308523983 0.584458828 1.80265391
v 0.308523923 0.584459066 1.20064402
v 0.308523983 0.447617948 1.80265391
v 0.308523923 0.447618157 1.20064402
v 7.28217442E-09 0.584461451 1.20064402
v 1.30056499E-09 0.447618157 1.20064402
v 0.308523923 0.584459066 1.20064402
v 0.341457129 0.629820824 1.19144845
v 0.174954444 0.629820824 1.19144845
v 0.258205801 0.629820824 1.10819948
v 0.258205831 0.629820704 1.27469981
v 0.258205801 0.376475096 1.27469969
v 0.341457129 0.629820824 1.19144845
v 0.341457129 0.376475126 1.19144833
v 0.258205831 0.629820704 1.27469981
v 0.174954444 0.376475126 1.19144833
v 0.174954444 0.629820824 1.19144845
v 0.258205801 0.376475215 1.10819948
v 0.258205801 0.629820824 1.10819948
v 0.341457129 0.376475126 1.19144833
v 0.341457129 0.629820824 1.19144845
v 0.139086887 1.07395542 1.35791779
v 5.85677711E-08 1.33778441 1.62059855
v 3.64971413E-08 1.14049852 1.31296754
v 0.131566748 1.2748307 1.66310775
v 0.139086887 0.940860093 1.44780564
v 0.131566748 1.14893305 1.74813545
v 3.27198393E-08 0.874310136 1.49274123
v 5.49947075E-08 1.08598673 1.7906543
v 0.164639547 1.07574904 1.33421373
v 3.64971413E-08 1.14049852 1.31296754
v 3.57127057E-08 1.15451562 1.28100467
v 0.139086887 1.07395542 1.35791779
v 0.164639547 0.918203354 1.44061518
v 0.139086887 0.940860093 1.44780564
v 3.12414521E-08 0.839422107 1.49380767
v 3.27198393E-08 0.874310136 1.49274123
v 0.114311785 1.27179289 1.67641008
v 9.12678217E-08 1.64594007 2.06053305
v 5.88991149E-08 1.32648742 1.63947594
v 0.139491364 1.57919979 2.10560799
v 0.114311785 1.16240633 1.75028515
v 0.139491364 1.44571924 2.19575596
v 5.57947217E-08 1.10771668 1.78722632
v 8.74795703E-08 1.37897897 2.24082875
v 0.131566748 1.2748307 1.66310775
v 5.88991149E-08 1.32648742 1.63947594
v 5.85677711E-08 1.33778441 1.62059855
v 0.114311785 1.27179289 1.67641008
v 0.131566748 1.14893305 1.74813545
v 0.114311785 1.16240633 1.75028515
v 5.49947075E-08 1.08598673 1.7906543
v 5.57947217E-08 1.10771668 1.78722632
v 9.48691703E-09 0.64430511 1.191239
v 0.158019662 0.871120751 1.03805554
v 1.37783376E-08 0.946726799 0.986993551
v 0.158019662 0.719911039 1.14017701
v 5.140389E-09 0.446973115 1.70831811
v 0.360730797 0.351066589 1.61241162
v 2.06248298E-08 0.351066589 1.61241162
v 0.360730797 0.446973115 1.70831811
v 1.84508124E-08 0.542879581 1.61241162
v 0.360730797 0.542879581 1.61241162
v 3.39352511E-08 0.446973115 1.51650512
v 0.360730886 0.446973115 1.51650512
v 2.06248298E-08 0.351066589 1.61241162
v 0.360730797 0.351066589 1.61241162
v -0.360730797 0.351066589 1.6124115
v 5.140389E-09 0.446973115 1.70831811
v 2.06248298E-08 0.351066589 1.61241162
v -0.360730797 0.446973115 1.708318
v 1.84508124E-08 0.542879581 1.61241162
v -0.360730797 0.542879581 1.61241162
v 3.39352511E-08 0.446973115 1.51650512
v -0.360730737 0.446973115 1.51650512
v 2.06248298E-08 0.351066589 1.61241162
v -0.360730797 0.351066589 1.6124115
vt 0.142944336 0.68359375
vt 0.00779342651 0.461914062
vt 0.00779342651 0.609863281
vt 0.278076172 0.461914062
vt 0.278076172 0.609863281
vt 0.142944336 0.387939453
vt 0.13671875 0.379394531
vt 0.00480651855 0.305664062
vt 0.00480651855 0.379394531
vt 0.13671875 0.305664062
vt 0.268554688 0.379394531
vt 0.13671875 0.232055664
vt 0.00480651855 0.232055664
vt 0.268554688 0.232055664
vt 0.268554688 0.305664062
vt 0.400634766 0.379394531
vt 0.400634766 0.232055664
vt 0.400634766 0.305664062
vt 0.532714844 0.379394531
vt 0.532714844 0.232055664
vt 0.532714844 0.305664062
vt 0.664550781 0.379394531
vt 0.664550781 0.232055664
vt 0.664550781 0.305664062
vt 0.796386719 0.379394531
vt 0.796386719 0.232055664
vt 0.796386719 0.305664062
vt 0.568359375 0.461914062
vt 0.433105469 0.68359375
vt 0.568359375 0.609863281
vt 0.298095703 0.461914062
vt 0.433105469 0.387939453
vt 0.298095703 0.609863281
vt 0.161621094 0.216674805
vt 0.0107498169 0.148681641
vt 0.0107498169 0.216674805
vt 0.162231445 0.148681641
vt 0.0107498169 0.080871582
vt 0.162231445 0.080871582
vt 0.0107498169 0.0129928589
vt 0.162231445 0.0129928589
vt 0.796875 0.216674805
vt 0.744628906 0.148681641
vt 0.744628906 0.216674805
vt 0.796875 0.148681641
vt 0.744628906 0.080871582
vt 0.796875 0.080871582
vt 0.744628906 0.0129928589
vt 0.796875 0.0129928589
vt 0.25390625 0.632324219
vt 0.221923828 0.684570312
vt 0.285888672 0.684570312
vt 0.317871094 0.632324219
vt 0.349853516 0.684570312
vt 0.744628906 0.216674805
vt 0.577636719 0.148681641
vt 0.577636719 0.216674805
vt 0.744628906 0.148681641
vt 0.577636719 0.080871582
vt 0.744628906 0.080871582
vt 0.577636719 0.0129928589
vt 0.744628906 0.0129928589
vt 0.577636719 0.216674805
vt 0.559082031 0.148681641
vt 0.559082031 0.216674805
vt 0.577636719 0.148681641
vt 0.559082031 0.080871582
vt 0.577636719 0.080871582
vt 0.559082031 0.0129928589
vt 0.577636719 0.0129928589
vt 0.563476562 0.94921875
vt 0.492919922 0.98828125
vt 0.563476562 0.98828125
vt 0.493164062 0.94921875
vt 0.460205078 0.949707031
vt 0.459472656 0.98828125
vt 0.420654297 0.949707031
vt 0.419921875 0.98828125
vt 0.387451172 0.949707031
vt 0.386962891 0.98828125
vt 0.316650391 0.98828125
vt 0.316650391 0.949707031
vt 0.877441406 0.201782227
vt 0.904296875 0.287353516
vt 0.904296875 0.220581055
vt 0.811523438 0.220581055
vt 0.837890625 0.201782227
vt 0.811523438 0.287353516
vt 0.947753906 0.454101562
vt 0.857421875 0.479003906
vt 0.927734375 0.479003906
vt 0.927734375 0.391357422
vt 0.947753906 0.416503906
vt 0.857421875 0.391357422
vt 0.895507812 0.903320312
vt 0.818359375 0.942382812
vt 0.895507812 0.942382812
vt 0.818359375 0.903320312
vt 0.781738281 0.903320312
vt 0.781738281 0.942382812
vt 0.73828125 0.903320312
vt 0.73828125 0.942382812
vt 0.701660156 0.903320312
vt 0.701660156 0.942382812
vt 0.624023438 0.942382812
vt 0.624023438 0.903320312
vt 0.756347656 0.415283203
vt 0.846679688 0.390136719
vt 0.776367188 0.390136719
vt 0.776367188 0.478027344
vt 0.756347656 0.452880859
vt 0.846679688 0.478027344
vt 0.838378906 0.380615234
vt 0.812011719 0.295166016
vt 0.812011719 0.361816406
vt 0.904296875 0.361816406
vt 0.877929688 0.380615234
vt 0.904296875 0.295166016
vt 0.62109375 0.649902344
vt 0.579101562 0.389160156
vt 0.579101562 0.649902344
vt 0.62109375 0.389160156
vt 0.663085938 0.649902344
vt 0.663085938 0.389160156
vt 0.705078125 0.649902344
vt 0.705078125 0.389160156
vt 0.747070312 0.649902344
vt 0.747070312 0.389160156
vt 0.966796875 0.722167969
vt 0.996582031 0.694335938
vt 0.966796875 0.694335938
vt 0.996582031 0.722167969
vt 0.8046875 0.15612793
vt 0.864257812 0.15612793
vt 0.834472656 0.128051758
vt 0.834472656 0.184204102
vt 0.888183594 0.488525391
vt 0.758300781 0.561523438
vt 0.888183594 0.561523438
vt 0.758300781 0.488525391
vt 0.993652344 0.872070312
vt 0.909179688 0.948730469
vt 0.993652344 0.948730469
vt 0.909179688 0.872070312
vt 0.888183594 0.633300781
vt 0.758300781 0.561523438
vt 0.758300781 0.633300781
vt 0.888183594 0.561523438
vt 0.549804688 0.827636719
vt 0.623046875 0.880859375
vt 0.623046875 0.827636719
vt 0.549804688 0.880859375
vt 0.62109375 0.740234375
vt 0.732910156 0.658203125
vt 0.62109375 0.658203125
vt 0.732910156 0.740234375
vt 0.62109375 0.784667969
vt 0.732910156 0.784667969
vt 0.345214844 0.775390625
vt 0.595214844 0.73828125
vt 0.327636719 0.73828125
vt 0.606445312 0.775390625
vt 0.606445312 0.775390625
vt 0.38671875 0.816894531
vt 0.630371094 0.816894531
vt 0.345214844 0.775390625
vt 0.378173828 0.693359375
vt 0.595214844 0.73828125
vt 0.613769531 0.693359375
vt 0.327636719 0.73828125
vt 0.751464844 0.818847656
vt 0.666992188 0.892578125
vt 0.75390625 0.892578125
vt 0.634765625 0.819824219
vt 0.729980469 0.792480469
vt 0.645019531 0.792480469
vt 0.207641602 0.887207031
vt 0.294677734 0.942382812
vt 0.294677734 0.887207031
vt 0.207641602 0.942382812
vt 0.294677734 0.887207031
vt 0.378173828 0.942382812
vt 0.378173828 0.887207031
vt 0.294677734 0.942382812
vt 0.00981140137 0.887207031
vt 0.0948486328 0.942382812
vt 0.0948486328 0.887207031
vt 0.00981140137 0.942382812
vt 0.0948486328 0.887207031
vt 0.129882812 0.942382812
vt 0.129882812 0.887207031
vt 0.0948486328 0.942382812
vt 0.409179688 0.887207031
vt 0.378173828 0.942382812
vt 0.409179688 0.942382812
vt 0.378173828 0.887207031
vt 0.207641602 0.887207031
vt 0.129882812 0.942382812
vt 0.207641602 0.942382812
vt 0.129882812 0.887207031
vt 0.969726562 0.614746094
vt 0.995605469 0.678710938
vt 0.995605469 0.604980469
vt 0.969726562 0.678710938
vt 0.587890625 0.887695312
vt 0.509765625 0.942382812
vt 0.587890625 0.942382812
vt 0.509765625 0.887695312
vt 0.509765625 0.887695312
vt 0.484375 0.942382812
vt 0.509765625 0.942382812
vt 0.484375 0.887695312
vt 0.484375 0.887695312
vt 0.417480469 0.942382812
vt 0.484375 0.942382812
vt 0.417480469 0.887695312
vt 0.615722656 0.887695312
vt 0.587890625 0.942382812
vt 0.615722656 0.942382812
vt 0.587890625 0.887695312
vt 0.974121094 0.0487365723
vt 0.948730469 0.270263672
vt 0.974121094 0.270019531
vt 0.948730469 0.230712891
vt 0.907714844 0.192749023
vt 0.903320312 0.0217132568
vt 0.861816406 0.121459961
vt 0.815917969 0.0344543457
vt 0.864257812 0.0119781494
vt 0.80859375 0.0754394531
vt 0.00922393799 0.989257812
vt 0.0973510742 0.950683594
vt 0.00922393799 0.951171875
vt 0.0973510742 0.989257812
vt 0.169433594 0.950683594
vt 0.169433594 0.989257812
vt 0.213378906 0.950683594
vt 0.213378906 0.989257812
vt 0.267333984 0.989257812
vt 0.267333984 0.950683594
vt 0.307861328 0.989257812
vt 0.307861328 0.950683594
vt 0.948730469 0.270263672
vt 0.974121094 0.32421875
vt 0.974121094 0.270019531
vt 0.948730469 0.32421875
vt 0.974121094 0.367431641
vt 0.948730469 0.367431641
vt 0.993652344 0.825195312
vt 0.993652344 0.785644531
vt 0.947753906 0.857910156
vt 0.902832031 0.785644531
vt 0.902832031 0.862792969
vt 0.993652344 0.487792969
vt 0.962890625 0.560058594
vt 0.993652344 0.560058594
vt 0.962890625 0.487792969
vt 0.902832031 0.560058594
vt 0.902832031 0.487792969
vt 0.814941406 0.861816406
vt 0.887207031 0.833007812
vt 0.762695312 0.833007812
vt 0.879394531 0.890625
vt 0.849609375 0.895996094
vt 0.89453125 0.858398438
vt 0.902832031 0.785644531
vt 0.962890625 0.731445312
vt 0.902832031 0.731445312
vt 0.993652344 0.785644531
vt 0.993652344 0.731445312
vt 0.902832031 0.731445312
vt 0.962890625 0.560058594
vt 0.902832031 0.560058594
vt 0.962890625 0.731445312
vt 0.314941406 0.747558594
vt 0.0108947754 0.8125
vt 0.335205078 0.8125
vt 0.0108947754 0.692382812
vt 0.258056641 0.692382812
vt 0.466552734 0.881347656
vt 0.384765625 0.828125
vt 0.384765625 0.881347656
vt 0.466552734 0.828125
vt 0.537597656 0.828125
vt 0.537597656 0.881347656
vt 0.137573242 0.828125
vt 0.384765625 0.881347656
vt 0.384765625 0.828125
vt 0.137573242 0.881347656
vt 0.137573242 0.828125
vt 0.0108947754 0.881347656
vt 0.137573242 0.881347656
vt 0.0108947754 0.828125
vt 0.742675781 0.66796875
vt 0.791015625 0.713867188
vt 0.791015625 0.66796875
vt 0.742675781 0.713867188
vt 0.801269531 0.644042969
vt 0.892578125 0.689941406
vt 0.892578125 0.644042969
vt 0.801269531 0.689941406
vt 0.892578125 0.735351562
vt 0.801269531 0.735351562
vt 0.892578125 0.78125
vt 0.801269531 0.78125
vt 0.892578125 0.827148438
vt 0.801269531 0.827148438
vt 0.328857422 0.216674805
vt 0.175048828 0.148681641
vt 0.175048828 0.216674805
vt 0.328857422 0.148681641
vt 0.175048828 0.080871582
vt 0.328857422 0.080871582
vt 0.175048828 0.0129928589
vt 0.328857422 0.0129928589
vt 0.175048828 0.216674805
vt 0.162231445 0.148681641
vt 0.161621094 0.216674805
vt 0.175048828 0.148681641
vt 0.162231445 0.080871582
vt 0.175048828 0.080871582
vt 0.162231445 0.0129928589
vt 0.175048828 0.0129928589
vt 0.559082031 0.216674805
vt 0.336669922 0.148681641
vt 0.336669922 0.216674805
vt 0.559082031 0.148681641
vt 0.336669922 0.080871582
vt 0.559082031 0.080871582
vt 0.336669922 0.0129928589
vt 0.559082031 0.0129928589
vt 0.336669922 0.216674805
vt 0.328857422 0.148681641
vt 0.328857422 0.216674805
vt 0.336669922 0.148681641
vt 0.328857422 0.080871582
vt 0.336669922 0.080871582
vt 0.328857422 0.0129928589
vt 0.336669922 0.0129928589
vt 0.353027344 0.386474609
vt 0.252685547 0.44140625
vt 0.319580078 0.44140625
vt 0.219116211 0.386474609
vt 0.00779342651 0.461914062
vt 0.142944336 0.68359375
vt 0.00779342651 0.609863281
vt 0.278076172 0.461914062
vt 0.142944336 0.387939453
vt 0.278076172 0.609863281
vt 0.00480651855 0.305664062
vt 0.13671875 0.379394531
vt 0.00480651855 0.379394531
vt 0.13671875 0.305664062
vt 0.268554688 0.379394531
vt 0.13671875 0.232055664
vt 0.00480651855 0.232055664
vt 0.268554688 0.232055664
vt 0.268554688 0.305664062
vt 0.400634766 0.379394531
vt 0.400634766 0.232055664
vt 0.400634766 0.305664062
vt 0.532714844 0.379394531
vt 0.532714844 0.232055664
vt 0.532714844 0.305664062
vt 0.664550781 0.379394531
vt 0.664550781 0.232055664
vt 0.664550781 0.305664062
vt 0.796386719 0.379394531
vt 0.796386719 0.232055664
vt 0.796386719 0.305664062
vt 0.433105469 0.68359375
vt 0.568359375 0.461914062
vt 0.568359375 0.609863281
vt 0.298095703 0.461914062
vt 0.298095703 0.609863281
vt 0.433105469 0.387939453
vt 0.0107498169 0.148681641
vt 0.161621094 0.216674805
vt 0.0107498169 0.216674805
vt 0.162231445 0.148681641
vt 0.0107498169 0.080871582
vt 0.162231445 0.080871582
vt 0.0107498169 0.0129928589
vt 0.162231445 0.0129928589
vt 0.744628906 0.148681641
vt 0.796875 0.216674805
vt 0.744628906 0.216674805
vt 0.796875 0.148681641
vt 0.744628906 0.080871582
vt 0.796875 0.080871582
vt 0.744628906 0.0129928589
vt 0.796875 0.0129928589
vt 0.25390625 0.632324219
vt 0.285888672 0.684570312
vt 0.221923828 0.684570312
vt 0.317871094 0.632324219
vt 0.349853516 0.684570312
vt 0.577636719 0.148681641
vt 0.744628906 0.216674805
vt 0.577636719 0.216674805
vt 0.744628906 0.148681641
vt 0.577636719 0.080871582
vt 0.744628906 0.080871582
vt 0.577636719 0.0129928589
vt 0.744628906 0.0129928589
vt 0.559082031 0.148681641
vt 0.577636719 0.216674805
vt 0.559082031 0.216674805
vt 0.577636719 0.148681641
vt 0.559082031 0.080871582
vt 0.577636719 0.080871582
vt 0.559082031 0.0129928589
vt 0.577636719 0.0129928589
vt 0.492919922 0.98828125
vt 0.563476562 0.94921875
vt 0.563476562 0.98828125
vt 0.493164062 0.94921875
vt 0.460205078 0.949707031
vt 0.459472656 0.98828125
vt 0.420654297 0.949707031
vt 0.419921875 0.98828125
vt 0.387451172 0.949707031
vt 0.386962891 0.98828125
vt 0.316650391 0.98828125
vt 0.316650391 0.949707031
vt 0.904296875 0.287353516
vt 0.877441406 0.201782227
vt 0.904296875 0.220581055
vt 0.811523438 0.220581055
vt 0.811523438 0.287353516
vt 0.837890625 0.201782227
vt 0.857421875 0.479003906
vt 0.947753906 0.454101562
vt 0.927734375 0.479003906
vt 0.927734375 0.391357422
vt 0.857421875 0.391357422
vt 0.947753906 0.416503906
vt 0.818359375 0.942382812
vt 0.895507812 0.903320312
vt 0.895507812 0.942382812
vt 0.818359375 0.903320312
vt 0.781738281 0.903320312
vt 0.781738281 0.942382812
vt 0.73828125 0.903320312
vt 0.73828125 0.942382812
vt 0.701660156 0.903320312
vt 0.701660156 0.942382812
vt 0.624023438 0.942382812
vt 0.624023438 0.903320312
vt 0.846679688 0.390136719
vt 0.756347656 0.415283203
vt 0.776367188 0.390136719
vt 0.776367188 0.478027344
vt 0.846679688 0.478027344
vt 0.756347656 0.452880859
vt 0.812011719 0.295166016
vt 0.838378906 0.380615234
vt 0.812011719 0.361816406
vt 0.904296875 0.361816406
vt 0.904296875 0.295166016
vt 0.877929688 0.380615234
vt 0.579101562 0.389160156
vt 0.62109375 0.649902344
vt 0.579101562 0.649902344
vt 0.62109375 0.389160156
vt 0.663085938 0.649902344
vt 0.663085938 0.389160156
vt 0.705078125 0.649902344
vt 0.705078125 0.389160156
vt 0.747070312 0.649902344
vt 0.747070312 0.389160156
vt 0.966796875 0.722167969
vt 0.996582031 0.694335938
vt 0.996582031 0.722167969
vt 0.966796875 0.694335938
vt 0.8046875 0.15612793
vt 0.864257812 0.15612793
vt 0.834472656 0.184204102
vt 0.834472656 0.128051758
vt 0.888183594 0.488525391
vt 0.758300781 0.561523438
vt 0.758300781 0.488525391
vt 0.888183594 0.561523438
vt 0.993652344 0.872070312
vt 0.909179688 0.948730469
vt 0.909179688 0.872070312
vt 0.993652344 0.948730469
vt 0.888183594 0.633300781
vt 0.758300781 0.561523438
vt 0.888183594 0.561523438
vt 0.758300781 0.633300781
vt 0.549804688 0.827636719
vt 0.623046875 0.880859375
vt 0.549804688 0.880859375
vt 0.623046875 0.827636719
vt 0.732910156 0.658203125
vt 0.62109375 0.740234375
vt 0.62109375 0.658203125
vt 0.732910156 0.740234375
vt 0.62109375 0.784667969
vt 0.732910156 0.784667969
vt 0.345214844 0.775390625
vt 0.595214844 0.73828125
vt 0.606445312 0.775390625
vt 0.327636719 0.73828125
vt 0.606445312 0.775390625
vt 0.38671875 0.816894531
vt 0.345214844 0.775390625
vt 0.630371094 0.816894531
vt 0.378173828 0.693359375
vt 0.595214844 0.73828125
vt 0.327636719 0.73828125
vt 0.613769531 0.693359375
vt 0.666992188 0.892578125
vt 0.751464844 0.818847656
vt 0.75390625 0.892578125
vt 0.634765625 0.819824219
vt 0.729980469 0.792480469
vt 0.645019531 0.792480469
vt 0.207641602 0.887207031
vt 0.294677734 0.942382812
vt 0.207641602 0.942382812
vt 0.294677734 0.887207031
vt 0.294677734 0.887207031
vt 0.378173828 0.942382812
vt 0.294677734 0.942382812
vt 0.378173828 0.887207031
vt 0.00981140137 0.887207031
vt 0.0948486328 0.942382812
vt 0.00981140137 0.942382812
vt 0.0948486328 0.887207031
vt 0.0948486328 0.887207031
vt 0.129882812 0.942382812
vt 0.0948486328 0.942382812
vt 0.129882812 0.887207031
vt 0.409179688 0.887207031
vt 0.378173828 0.942382812
vt 0.378173828 0.887207031
vt 0.409179688 0.942382812
vt 0.207641602 0.887207031
vt 0.129882812 0.942382812
vt 0.129882812 0.887207031
vt 0.207641602 0.942382812
vt 0.969726562 0.614746094
vt 0.995605469 0.678710938
vt 0.969726562 0.678710938
vt 0.995605469 0.604980469
vt 0.587890625 0.887695312
vt 0.509765625 0.942382812
vt 0.509765625 0.887695312
vt 0.587890625 0.942382812
vt 0.509765625 0.887695312
vt 0.484375 0.942382812
vt 0.484375 0.887695312
vt 0.509765625 0.942382812
vt 0.484375 0.887695312
vt 0.417480469 0.942382812
vt 0.417480469 0.887695312
vt 0.484375 0.942382812
vt 0.615722656 0.887695312
vt 0.587890625 0.942382812
vt 0.587890625 0.887695312
vt 0.615722656 0.942382812
vt 0.974121094 0.0487365723
vt 0.974121094 0.270019531
vt 0.948730469 0.270263672
vt 0.948730469 0.230712891
vt 0.907714844 0.192749023
vt 0.903320312 0.0217132568
vt 0.861816406 0.121459961
vt 0.815917969 0.0344543457
vt 0.864257812 0.0119781494
vt 0.80859375 0.0754394531
vt 0.0973510742 0.950683594
vt 0.00922393799 0.989257812
vt 0.00922393799 0.951171875
vt 0.0973510742 0.989257812
vt 0.169433594 0.950683594
vt 0.169433594 0.989257812
vt 0.213378906 0.950683594
vt 0.213378906 0.989257812
vt 0.267333984 0.989257812
vt 0.267333984 0.950683594
vt 0.307861328 0.989257812
vt 0.307861328 0.950683594
vt 0.974121094 0.32421875
vt 0.948730469 0.270263672
vt 0.974121094 0.270019531
vt 0.948730469 0.32421875
vt 0.974121094 0.367431641
vt 0.948730469 0.367431641
vt 0.993652344 0.825195312
vt 0.947753906 0.857910156
vt 0.993652344 0.785644531
vt 0.902832031 0.785644531
vt 0.902832031 0.862792969
vt 0.962890625 0.560058594
vt 0.993652344 0.487792969
vt 0.993652344 0.560058594
vt 0.962890625 0.487792969
vt 0.902832031 0.560058594
vt 0.902832031 0.487792969
vt 0.887207031 0.833007812
vt 0.814941406 0.861816406
vt 0.762695312 0.833007812
vt 0.879394531 0.890625
vt 0.89453125 0.858398438
vt 0.849609375 0.895996094
vt 0.962890625 0.731445312
vt 0.902832031 0.785644531
vt 0.902832031 0.731445312
vt 0.993652344 0.785644531
vt 0.993652344 0.731445312
vt 0.902832031 0.731445312
vt 0.962890625 0.560058594
vt 0.962890625 0.731445312
vt 0.902832031 0.560058594
vt 0.314941406 0.747558594
vt 0.0108947754 0.692382812
vt 0.258056641 0.692382812
vt 0.0108947754 0.8125
vt 0.335205078 0.8125
vt 0.384765625 0.828125
vt 0.466552734 0.881347656
vt 0.384765625 0.881347656
vt 0.466552734 0.828125
vt 0.537597656 0.828125
vt 0.537597656 0.881347656
vt 0.137573242 0.828125
vt 0.384765625 0.881347656
vt 0.137573242 0.881347656
vt 0.384765625 0.828125
vt 0.137573242 0.828125
vt 0.0108947754 0.881347656
vt 0.0108947754 0.828125
vt 0.137573242 0.881347656
vt 0.742675781 0.66796875
vt 0.791015625 0.713867188
vt 0.742675781 0.713867188
vt 0.791015625 0.66796875
vt 0.892578125 0.689941406
vt 0.801269531 0.644042969
vt 0.892578125 0.644042969
vt 0.801269531 0.689941406
vt 0.892578125 0.735351562
vt 0.801269531 0.735351562
vt 0.892578125 0.78125
vt 0.801269531 0.78125
vt 0.892578125 0.827148438
vt 0.801269531 0.827148438
vt 0.175048828 0.148681641
vt 0.328857422 0.216674805
vt 0.175048828 0.216674805
vt 0.328857422 0.148681641
vt 0.175048828 0.080871582
vt 0.328857422 0.080871582
vt 0.175048828 0.0129928589
vt 0.328857422 0.0129928589
vt 0.162231445 0.148681641
vt 0.175048828 0.216674805
vt 0.161621094 0.216674805
vt 0.175048828 0.148681641
vt 0.162231445 0.080871582
vt 0.175048828 0.080871582
vt 0.162231445 0.0129928589
vt 0.175048828 0.0129928589
vt 0.336669922 0.148681641
vt 0.559082031 0.216674805
vt 0.336669922 0.216674805
vt 0.559082031 0.148681641
vt 0.336669922 0.080871582
vt 0.559082031 0.080871582
vt 0.336669922 0.0129928589
vt 0.559082031 0.0129928589
vt 0.328857422 0.148681641
vt 0.336669922 0.216674805
vt 0.328857422 0.216674805
vt 0.336669922 0.148681641
vt 0.328857422 0.080871582
vt 0.336669922 0.080871582
vt 0.328857422 0.0129928589
vt 0.336669922 0.0129928589
vt 0.353027344 0.386474609
vt 0.252685547 0.44140625
vt 0.219116211 0.386474609
vt 0.319580078 0.44140625
vt 0.555664062 0.0639648438
vt 0.342529297 0.0131454468
vt 0.555664062 0.0131454468
vt 0.342529297 0.0639648438
vt 0.555664062 0.114807129
vt 0.342529297 0.114807129
vt 0.555664062 0.165649414
vt 0.342529297 0.165649414
vt 0.555664062 0.216552734
vt 0.342529297 0.216552734
vt 0.342529297 0.0131454468
vt 0.555664062 0.0639648438
vt 0.555664062 0.0131454468
vt 0.342529297 0.0639648438
vt 0.555664062 0.114807129
vt 0.342529297 0.114807129
vt 0.555664062 0.165649414
vt 0.342529297 0.165649414
vt 0.555664062 0.216552734
vt 0.342529297 0.216552734
vn 1 0 0
vn 1 0 0
vn 1 0 0
vn 1 0 0
vn 1 0 0
vn 1 0 2.93645257E-06
vn 0.347896904 -0.468726307 -0.811950326
vn -0 -1 0
vn 0.347899795 -0.93753171 0
vn -0 -0.500047147 -0.865998149
vn 0.347881377 0.468800724 -0.811914027
vn -0.347897053 -0.468726248 -0.811950326
vn -0.347899795 -0.93753171 0
vn -0.347881407 0.468800724 -0.811914027
vn -0 0.499975681 -0.866039455
vn 0.347860903 0.937546134 3.00567012E-06
vn -0.347860873 0.937546134 3.03608067E-06
vn -0 1 0
vn 0.347881496 0.468800694 0.811914027
vn -0.347881377 0.468800724 0.811914027
vn -0 0.499934345 0.866063356
vn 0.347896993 -0.468726337 0.811950326
vn -0.347896934 -0.468726337 0.811950326
vn -0 -0.50000596 0.866021931
vn 0.347899795 -0.93753171 0
vn -0.347899795 -0.93753171 0
vn -0 -1 0
vn -1 0 0
vn -1 0 0
vn -1 0 0
vn -1 0 0
vn -1 0 0
vn -1 0 0
vn -0 0.816661179 -0.577117383
vn -0.865811706 0.402437061 -0.297345579
vn -0 0.816661179 -0.577117383
vn -0.865811706 0.402437061 -0.297345579
vn -0.86583066 -0.426096618 0.262257338
vn -0.865852356 -0.426107287 0.262168497
vn -0 -0.840434015 0.541913927
vn -0 -0.840390563 0.54198122
vn -0 0.998712063 -0.0507366583
vn -0.741407216 0.643939137 0.188832879
vn -0 0.998702407 -0.0509269126
vn -0.741428673 0.643916309 0.188826218
vn -0.741341591 -0.0656088293 0.667913258
vn -0.741363168 -0.0656065121 0.667889595
vn -0 -0.420315504 0.907378018
vn -0 -0.420315504 0.907378018
vn -0 0.559970617 0.82851249
vn -0 0.559970617 0.82851249
vn -0 0.559970617 0.82851249
vn -0 0.559970617 0.82851249
vn -0 0.559970617 0.82851249
vn -0 0.784169495 -0.620546579
vn -0.86359477 0.370806932 -0.341623008
vn -0 0.784169495 -0.620546579
vn -0.863651037 0.370831102 -0.341454506
vn -0.863532722 -0.455464602 0.216479242
vn -0.863497078 -0.455445856 0.216661036
vn -0 -0.868595064 0.495522588
vn -0 -0.868501246 0.495686829
vn -0 -0.260889798 -0.965368569
vn -0.280919254 -0.395155817 -0.874606431
vn -0 -0.260889798 -0.965368569
vn -0.280919254 -0.395155817 -0.874606431
vn -0.280961245 -0.663777947 -0.69315201
vn -0.280961245 -0.663777947 -0.69315201
vn -0 -0.798303306 -0.602255583
vn -0 -0.798303306 -0.602255583
vn -0 -0.83287096 0.553467214
vn -0.450503349 -0.743273318 0.494561851
vn -0 -0.83287096 0.553467214
vn -0.445310354 -0.745760202 0.495520413
vn -0.947457194 -0.266451448 0.176998571
vn -0.950633228 -0.258257866 0.172044784
vn -0.950425029 0.257490247 -0.174330339
vn -0.947533607 0.264374793 -0.179683223
vn -0.451605648 0.738592267 -0.500533581
vn -0.445226103 0.740898907 -0.502834558
vn -0 0.827444196 -0.561547995
vn -0 0.827444196 -0.561547995
vn -0 0.536702693 0.843771458
vn -0 0.536702693 0.843771458
vn -0 0.536702693 0.843771458
vn -0 0.536702693 0.843771458
vn -0 0.536702693 0.843771458
vn -0 0.536702693 0.843771458
vn -0 -0.535850585 -0.844312847
vn -0 -0.535986483 -0.844226539
vn -0 -0.535986483 -0.844226539
vn -0 -0.535850585 -0.844312847
vn -0 -0.535850585 -0.844312847
vn -0 -0.535850585 -0.844312847
vn -0 -0.832812607 0.553555191
vn -0.450567275 -0.743187904 0.494632035
vn -0 -0.832812607 0.553555191
vn -0.445310354 -0.745760202 0.495520413
vn -0.947409034 -0.266628653 0.176989585
vn -0.950633228 -0.258257866 0.172044784
vn -0.950425029 0.257490247 -0.174330339
vn -0.947533607 0.264374793 -0.179683223
vn -0.451605648 0.738592267 -0.500533581
vn -0.445226103 0.740898907 -0.502834558
vn -0 0.827444196 -0.561547995
vn -0 0.827444196 -0.561547995
vn -0 0.536702693 0.843771458
vn -0 0.536702693 0.843771458
vn -0 0.536702693 0.843771458
vn -0 0.536702693 0.843771458
vn -0 0.536702693 0.843771458
vn -0 0.536702693 0.843771458
vn -0 -0.535900235 -0.844281316
vn -0 -0.535900235 -0.844281316
vn -0 -0.535900235 -0.844281316
vn -0 -0.535900235 -0.844281316
vn -0 -0.535900235 -0.844281316
vn -0 -0.535900235 -0.844281316
vn -1 0 0
vn -0 -0.83575803 0.549097896
vn -0 -0.83584559 0.548964739
vn -1 0 0
vn -0 0.83584559 -0.548964739
vn -0 0.83575803 -0.549097896
vn 1 0 0
vn 1 0 0
vn -0 -0.83584559 0.548964739
vn -0 -0.83575803 0.549097896
vn -0 -0.549097896 -0.83575803
vn -0 -0.549097896 -0.83575803
vn -0 -0.549097896 -0.83575803
vn -0 -0.549097896 -0.83575803
vn -0 0.548964739 0.83584559
vn -0 0.548964739 0.83584559
vn -0 0.549008489 0.835816741
vn -0 0.548964739 0.83584559
vn -0.992351234 -0.0659914017 -0.104327492
vn -0.99233067 -0.0659931973 -0.104521066
vn -0.992266953 -0.0675244555 -0.104147926
vn -0.992336929 -0.065898262 -0.104521729
vn -0 0.54355967 0.839370549
vn -0 0.543646574 0.839314222
vn -0 0.543646574 0.839314222
vn -0 0.54355967 0.839370549
vn -0 0.821216047 -0.570617378
vn -0 0.821216047 -0.570617378
vn -0 0.821216047 -0.570617378
vn -0 0.821216047 -0.570617378
vn -0 -0.533799231 -0.845611215
vn -0 -0.533799231 -0.845611215
vn -0 -0.533799231 -0.845611215
vn -0 -0.533799231 -0.845611215
vn -0.706818044 0.593759656 -0.384522676
vn -1 0 0
vn -1 0 0
vn -0.702012718 0.597814858 -0.387034446
vn -0 0.839370549 -0.54355967
vn -0 0.839513838 -0.543338239
vn -0.329796314 0.786055982 -0.522829235
vn -0.329771608 0.786092401 -0.522790015
vn -0.39129895 0.792897642 -0.46711722
vn -0.329771608 0.786092401 -0.522790015
vn -0.571489096 0 0.820609689
vn -0.571489096 0 0.820609689
vn -0.571489096 0 0.820609689
vn -0.571489096 0 0.820609689
vn 0.482189596 0 -0.876066804
vn 0.482189596 0 -0.876066804
vn 0.482189596 0 -0.876066804
vn 0.482189596 0 -0.876066804
vn -0 1 0
vn -0 1 0
vn -0 1 0
vn -0 1 0
vn -0 1 0
vn -0 1 0
vn 0.464975953 0 0.885323286
vn 0.464826435 0 0.885401845
vn 0.464826435 0 0.885401845
vn 0.464975953 0 0.885323286
vn 0.995587587 0 -0.0938370377
vn 0.995587587 0 -0.0938370377
vn 0.995587587 0 -0.0938370377
vn 0.995587587 0 -0.0938370377
vn -0.470855445 0 -0.882210314
vn -0.470707089 0 -0.882289588
vn -0.470707089 0 -0.882289588
vn -0.470855445 0 -0.882210314
vn -0.987385869 0 -0.158332676
vn -0.987385869 0 -0.158332676
vn -0.987385869 0 -0.158332676
vn -0.987385869 0 -0.158332676
vn 0.67930913 0 -0.733852208
vn 0.67930913 0 -0.733852208
vn 0.67930913 0 -0.733852208
vn 0.67930913 0 -0.733852208
vn -0.900373816 0 0.435117155
vn -0.90044862 0 0.434962511
vn -0.900373816 0 0.435117155
vn -0.90044862 0 0.434962511
vn -0 1 0
vn -0 1 0
vn -0 1 0
vn -0 1 0
vn 0.457408398 0 0.889256775
vn 0.457257509 0 0.889334321
vn 0.457408398 0 0.889256775
vn 0.457257509 0 0.889334321
vn 0.873752058 0 -0.486371517
vn 0.873752058 0 -0.486371517
vn 0.873752058 0 -0.486371517
vn 0.873752058 0 -0.486371517
vn -0.454979926 0 -0.890501678
vn -0.455131233 0 -0.890424371
vn -0.454979926 0 -0.890501678
vn -0.455131233 0 -0.890424371
vn -0.995729029 0 0.0923243463
vn -0.995729029 0 0.0923243463
vn -0.995729029 0 0.0923243463
vn -0.995729029 0 0.0923243463
vn -1 0 0
vn -1 0 0
vn -1 0 0
vn -1 0 0
vn -1 0 0
vn -1 0 0
vn -1 0 0
vn -1 0 0
vn -1 0 0
vn -1 0 0
vn -0 0.783192694 0.621778965
vn -0 0.771719635 0.635962963
vn -0 0.756804168 0.65364176
vn -0 0.771719635 0.635962963
vn -0 0.945891559 0.324482799
vn -0 0.945891559 0.324482799
vn -0 0.799954236 -0.600060999
vn -0 0.799954236 -0.600060999
vn -0 0.0976529494 -0.995220482
vn -0 0.0976529494 -0.995220482
vn -0 -0.315083116 -0.949064016
vn -0 -0.334934413 -0.94224143
vn -0.603359759 -0.00858265162 0.797422886
vn -0.375224292 -0.0101090018 0.926878989
vn -0.603359759 -0.00858265162 0.797422886
vn -0.37399286 -0.010109229 0.927376449
vn -0 -0.0108720772 0.999940872
vn -0 -0.0108720772 0.999940872
vn -0.00457735453 0.999970913 0.00610324135
vn -0.00162114843 0.99998951 0.00429143477
vn -0.000858237327 0.999993086 0.00362389814
vn -0 0.999994636 0.00329012703
vn -0 0.999995112 0.0031470817
vn -0 -0.373658657 -0.92756629
vn -0 -0.334934413 -0.94224143
vn -0 -0.315083116 -0.949064016
vn -0 -0.373658657 -0.92756629
vn -0 -0.373658657 -0.92756629
vn -0 -0.373658657 -0.92756629
vn 1 0 0
vn 1 0 0
vn 1 0 5.91661728E-06
vn 1 0 0
vn 1 0 0
vn 1 0 0
vn -0 0.700423181 0.713727772
vn -0 0.756804168 0.65364176
vn -0 0.70042026 0.713730752
vn -0 0.700423181 0.713727772
vn -0 0.783192694 0.621778965
vn -0 0.999742329 0.0227014143
vn -0 0.999742448 0.0226954557
vn -0 0.999742448 0.0226954557
vn -0 0.999742329 0.0227014143
vn -0 1 0
vn -0 1 0
vn -0 1 0
vn -0 1 0
vn -0 1 0
vn -0.504475653 0 0.86342597
vn -0.697263479 0 0.716814816
vn -0.697239757 0 0.716838121
vn -0.504475653 0 0.86342597
vn -0 0 1
vn -0 0 1
vn -1 0 0
vn -1 0 0
vn -1 0 0
vn -1 0 0
vn -0 0 -1
vn -0 0 -1
vn -0 0 -1
vn -0 0 -1
vn -0 1 0
vn -0 1 0
vn -0 1 0
vn -0 1 0
vn -1 0 0
vn -0 0 1
vn -1 0 0
vn -0 0 1
vn 1 0 0
vn 1 0 0
vn -0 0 -1
vn -0 0 -1
vn -1 0 0
vn -1 0 0
vn -0 0.841811001 -0.539772332
vn -0.86575073 0.427606583 -0.260054171
vn -0 0.841791391 -0.539802969
vn -0.86575073 0.427606583 -0.260054171
vn -0.86578846 -0.400922447 0.299452096
vn -0.86578846 -0.400922447 0.299452096
vn -0 -0.815183938 0.579202116
vn -0 -0.815183938 0.579202116
vn -0 0.915833116 0.401559085
vn -0.46247977 0.694577932 0.55106622
vn -0 0.915833116 0.401559085
vn -0.46247977 0.694577932 0.55106622
vn -0.462531358 0.251769662 0.850104034
vn -0.462531358 0.251769662 0.850104034
vn -0 0.0305171739 0.999534249
vn -0 0.0305171739 0.999534249
vn -0 0.796599388 -0.604507565
vn -0.864688456 0.382992029 -0.325009167
vn -0 0.79660809 -0.604496181
vn -0.864688456 0.382992029 -0.325009167
vn -0.864746749 -0.44443804 0.233854517
vn -0.864746749 -0.44443804 0.233854517
vn -0 -0.858249247 0.513233066
vn -0 -0.858249247 0.513233066
vn -0 0.858043671 0.513576686
vn -0.367087364 0.682483196 0.632031202
vn -0 0.858040392 0.51358223
vn -0.367087364 0.682483196 0.632031202
vn -0.367009193 0.331486076 0.869149685
vn -0.367009193 0.331486076 0.869149685
vn -0 0.155646652 0.987812817
vn -0 0.155646652 0.987812817
vn -0 -0.559620202 -0.82874912
vn -0 -0.559620202 -0.82874912
vn -0 -0.559620202 -0.82874912
vn -0 -0.559620202 -0.82874912
vn -1 0 0
vn -1 0 0
vn -1 0 0
vn -1 0 0
vn -1 0 3.02387571E-06
vn -1 0 0
vn -0 -1 0
vn -0.347897053 -0.468726248 -0.811950326
vn -0.347899795 -0.93753171 0
vn -0 -0.500047147 -0.865998149
vn -0.347881407 0.468800724 -0.811914027
vn 0.347896904 -0.468726307 -0.811950326
vn 0.347899795 -0.93753171 0
vn 0.347881377 0.468800724 -0.811914027
vn -0 0.499975681 -0.866039455
vn -0.347860873 0.937546134 3.03608067E-06
vn 0.347860903 0.937546134 3.00567012E-06
vn -0 1 0
vn -0.347881377 0.468800724 0.811914027
vn 0.347881496 0.468800694 0.811914027
vn -0 0.499934345 0.866063356
vn -0.347896934 -0.468726337 0.811950326
vn 0.347896993 -0.468726337 0.811950326
vn -0 -0.50000596 0.866021931
vn -0.347899795 -0.93753171 0
vn 0.347899795 -0.93753171 0
vn -0 -1 0
vn 1 0 0
vn 1 0 0
vn 1 0 0
vn 1 0 0
vn 1 0 0
vn 1 0 0
vn 0.865811706 0.402437031 -0.297345668
vn -0 0.816661179 -0.577117383
vn -0 0.816661179 -0.577117383
vn 0.865811706 0.402437031 -0.297345668
vn 0.86583066 -0.426096678 0.262257308
vn 0.865852356 -0.426107347 0.262168467
vn -0 -0.840434015 0.541913927
vn -0 -0.840390563 0.54198122
vn 0.741407275 0.643939018 0.188832834
vn -0 0.998712063 -0.0507366583
vn -0 0.998702407 -0.0509269126
vn 0.741428852 0.64391619 0.188826159
vn 0.74134165 -0.0656088963 0.667913139
vn 0.741363168 -0.0656065717 0.667889595
vn -0 -0.420315504 0.907378018
vn -0 -0.420315504 0.907378018
vn -0 0.559970617 0.82851249
vn -0 0.559970617 0.82851249
vn -0 0.559970617 0.82851249
vn -0 0.559970617 0.82851249
vn -0 0.559970617 0.82851249
vn 0.86359477 0.370806843 -0.341623068
vn -0 0.784169495 -0.620546579
vn -0 0.784169495 -0.620546579
vn 0.863651037 0.370831043 -0.341454595
vn 0.863532722 -0.455464631 0.216479152
vn 0.863497078 -0.455445856 0.216660962
vn -0 -0.868595064 0.495522588
vn -0 -0.868501246 0.495686829
vn 0.280919105 -0.395155817 -0.874606431
vn -0 -0.260889798 -0.965368569
vn -0 -0.260889798 -0.965368569
vn 0.280919105 -0.395155817 -0.874606431
vn 0.280961156 -0.663778007 -0.69315207
vn 0.280961156 -0.663778007 -0.69315207
vn -0 -0.798303306 -0.602255583
vn -0 -0.798303306 -0.602255583
vn 0.450503379 -0.743273377 0.494561821
vn -0 -0.83287096 0.553467214
vn -0 -0.83287096 0.553467214
vn 0.445310354 -0.745760202 0.495520353
vn 0.947457194 -0.266451508 0.176998511
vn 0.950633228 -0.258257955 0.172044724
vn 0.950425029 0.257490218 -0.174330443
vn 0.947533607 0.264374733 -0.179683313
vn 0.451605648 0.738592267 -0.500533581
vn 0.445226103 0.740898907 -0.502834558
vn -0 0.827444196 -0.561547995
vn -0 0.827444196 -0.561547995
vn -0 0.536702693 0.843771458
vn -0 0.536702693 0.843771458
vn -0 0.536702693 0.843771458
vn -0 0.536702693 0.843771458
vn -0 0.536702693 0.843771458
vn -0 0.536702693 0.843771458
vn -0 -0.535986483 -0.844226539
vn -0 -0.535850585 -0.844312847
vn -0 -0.535986483 -0.844226539
vn -0 -0.535850585 -0.844312847
vn -0 -0.535850585 -0.844312847
vn -0 -0.535850585 -0.844312847
vn 0.450567305 -0.743187964 0.494631976
vn -0 -0.832812607 0.553555191
vn -0 -0.832812607 0.553555191
vn 0.445310354 -0.745760202 0.495520353
vn 0.947409034 -0.266628712 0.176989511
vn 0.950633228 -0.258257955 0.172044724
vn 0.950425029 0.257490218 -0.174330443
vn 0.947533607 0.264374733 -0.179683313
vn 0.451605648 0.738592267 -0.500533581
vn 0.445226103 0.740898907 -0.502834558
vn -0 0.827444196 -0.561547995
vn -0 0.827444196 -0.561547995
vn -0 0.536702693 0.843771458
vn -0 0.536702693 0.843771458
vn -0 0.536702693 0.843771458
vn -0 0.536702693 0.843771458
vn -0 0.536702693 0.843771458
vn -0 0.536702693 0.843771458
vn -0 -0.535900235 -0.844281316
vn -0 -0.535900235 -0.844281316
vn -0 -0.535900235 -0.844281316
vn -0 -0.535900235 -0.844281316
vn -0 -0.535900235 -0.844281316
vn -0 -0.535900235 -0.844281316
vn -0 -0.83575803 0.549097896
vn 1 0 0
vn -0 -0.83584559 0.548964739
vn 1 0 0
vn -0 0.83584559 -0.548964739
vn -0 0.83575803 -0.549097896
vn -1 0 0
vn -1 0 0
vn -0 -0.83584559 0.548964739
vn -0 -0.83575803 0.549097896
vn -0 -0.549097896 -0.83575803
vn -0 -0.549097896 -0.83575803
vn -0 -0.549097896 -0.83575803
vn -0 -0.549097896 -0.83575803
vn -0 0.548964739 0.83584559
vn -0 0.548964739 0.83584559
vn -0 0.548964739 0.83584559
vn -0 0.549008489 0.835816741
vn 0.992247224 -0.0675232038 -0.104336686
vn 0.992267668 -0.067521356 -0.104143091
vn 0.992336929 -0.0658983514 -0.104521811
vn 0.992266953 -0.0675245374 -0.104148008
vn -0 0.54355967 0.839370549
vn -0 0.543646574 0.839314222
vn -0 0.54355967 0.839370549
vn -0 0.543646574 0.839314222
vn -0 0.821216047 -0.570617378
vn -0 0.821216047 -0.570617378
vn -0 0.821216047 -0.570617378
vn -0 0.821216047 -0.570617378
vn -0 -0.533799231 -0.845611215
vn -0 -0.533799231 -0.845611215
vn -0 -0.533799231 -0.845611215
vn -0 -0.533799231 -0.845611215
vn 1 0 0
vn 0.706818044 0.593759596 -0.384522766
vn 1 0 0
vn 0.702012718 0.597814798 -0.387034506
vn -0 0.839370549 -0.54355967
vn -0 0.839513838 -0.543338239
vn 0.39129892 0.792897582 -0.46711725
vn 0.39135012 0.792903483 -0.46706447
vn 0.329771608 0.786092401 -0.522790015
vn 0.39129892 0.792897582 -0.46711725
vn 0.571489215 0 0.820609629
vn 0.571489215 0 0.820609629
vn 0.571489215 0 0.820609629
vn 0.571489215 0 0.820609629
vn -0.482189626 0 -0.876066804
vn -0.482189626 0 -0.876066804
vn -0.482189626 0 -0.876066804
vn -0.482189626 0 -0.876066804
vn -0 1 0
vn -0 1 0
vn -0 1 0
vn -0 1 0
vn -0 1 0
vn -0 1 0
vn -0.464975953 0 0.885323346
vn -0.464826435 0 0.885401845
vn -0.464975953 0 0.885323346
vn -0.464826435 0 0.885401845
vn -0.995587587 0 -0.0938369408
vn -0.995587587 0 -0.0938369408
vn -0.995587587 0 -0.0938369408
vn -0.995587587 0 -0.0938369408
vn 0.470855415 0 -0.882210314
vn 0.470707029 0 -0.882289588
vn 0.470855415 0 -0.882210314
vn 0.470707029 0 -0.882289588
vn 0.987385869 0 -0.158332765
vn 0.987385869 0 -0.158332765
vn 0.987385869 0 -0.158332765
vn 0.987385869 0 -0.158332765
vn -0.67930913 0 -0.733852208
vn -0.67930913 0 -0.733852208
vn -0.67930913 0 -0.733852208
vn -0.67930913 0 -0.733852208
vn 0.900373876 0 0.435117096
vn 0.90044862 0 0.434962481
vn 0.90044862 0 0.434962481
vn 0.900373876 0 0.435117096
vn -0 1 0
vn -0 1 0
vn -0 1 0
vn -0 1 0
vn -0.457408369 0 0.889256775
vn -0.45725742 0 0.889334321
vn -0.45725742 0 0.889334321
vn -0.457408369 0 0.889256775
vn -0.873752058 0 -0.486371458
vn -0.873752058 0 -0.486371458
vn -0.873752058 0 -0.486371458
vn -0.873752058 0 -0.486371458
vn 0.454979926 0 -0.890501678
vn 0.455131173 0 -0.890424371
vn 0.455131173 0 -0.890424371
vn 0.454979926 0 -0.890501678
vn 0.995729029 0 0.0923242494
vn 0.995729029 0 0.0923242494
vn 0.995729029 0 0.0923242494
vn 0.995729029 0 0.0923242494
vn 1 0 0
vn 1 0 0
vn 1 0 0
vn 1 0 0
vn 1 0 0
vn 1 0 0
vn 1 0 0
vn 1 0 0
vn 1 0 0
vn 1 0 0
vn -0 0.771719635 0.635962963
vn -0 0.783192694 0.621778965
vn -0 0.756804168 0.65364176
vn -0 0.771719635 0.635962963
vn -0 0.945891559 0.324482799
vn -0 0.945891559 0.324482799
vn -0 0.799954236 -0.600060999
vn -0 0.799954236 -0.600060999
vn -0 0.0976529494 -0.995220482
vn -0 0.0976529494 -0.995220482
vn -0 -0.315083116 -0.949064016
vn -0 -0.334934413 -0.94224143
vn 0.375224322 -0.0101090353 0.926878989
vn 0.603359818 -0.00858270284 0.797422886
vn 0.603359818 -0.00858270284 0.797422886
vn 0.37399292 -0.0101092607 0.927376449
vn -0 -0.0108720772 0.999940872
vn -0 -0.0108720772 0.999940872
vn 0.00457744207 0.999970913 0.00610324135
vn 0.000858325162 0.999993086 0.00362389814
vn 0.00162123633 0.99998951 0.00429143477
vn -0 0.999994636 0.00329012703
vn -0 0.999995112 0.0031470817
vn -0 -0.334934413 -0.94224143
vn -0 -0.373658657 -0.92756629
vn -0 -0.315083116 -0.949064016
vn -0 -0.373658657 -0.92756629
vn -0 -0.373658657 -0.92756629
vn -0 -0.373658657 -0.92756629
vn -1 0 0
vn -1 0 0
vn -1 0 6.00403928E-06
vn -1 0 0
vn -1 0 0
vn -1 0 0
vn -0 0.756804168 0.65364176
vn -0 0.700423181 0.713727772
vn -0 0.70042026 0.713730752
vn -0 0.700423181 0.713727772
vn -0 0.783192694 0.621778965
vn -0 0.999742329 0.0227014143
vn -0 0.999742448 0.0226954557
vn -0 0.999742329 0.0227014143
vn -0 0.999742448 0.0226954557
vn -0 1 0
vn -0 1 0
vn -0 1 0
vn -0 1 0
vn -0 1 0
vn 0.697263658 0 0.716814697
vn 0.504475653 0 0.863425851
vn 0.697239876 0 0.716837943
vn 0.504475653 0 0.863425851
vn -0 0 1
vn -0 0 1
vn 1 0 0
vn 1 0 0
vn 1 0 0
vn 1 0 0
vn -0 0 -1
vn -0 0 -1
vn -0 0 -1
vn -0 0 -1
vn -0 1 0
vn -0 1 0
vn -0 1 0
vn -0 1 0
vn -0 0 1
vn 1 0 0
vn 1 0 0
vn -0 0 1
vn -1 0 0
vn -1 0 0
vn -0 0 -1
vn -0 0 -1
vn 1 0 0
vn 1 0 0
vn 0.86575073 0.427606523 -0.260054231
vn -0 0.841811001 -0.539772332
vn -0 0.841791391 -0.539802969
vn 0.86575073 0.427606523 -0.260054231
vn 0.86578846 -0.400922567 0.299452037
vn 0.86578846 -0.400922567 0.299452037
vn -0 -0.815183938 0.579202116
vn -0 -0.815183938 0.579202116
vn 0.46247986 0.694577873 0.55106616
vn -0 0.915833116 0.401559085
vn -0 0.915833116 0.401559085
vn 0.46247986 0.694577873 0.55106616
vn 0.462531447 0.251769602 0.850104034
vn 0.462531447 0.251769602 0.850104034
vn -0 0.0305171739 0.999534249
vn -0 0.0305171739 0.999534249
vn 0.864688456 0.38299197 -0.325009227
vn -0 0.796599388 -0.604507565
vn -0 0.79660809 -0.604496181
vn 0.864688456 0.38299197 -0.325009227
vn 0.864746749 -0.44443807 0.233854443
vn 0.864746749 -0.44443807 0.233854443
vn -0 -0.858249247 0.513233066
vn -0 -0.858249247 0.513233066
vn 0.367087483 0.682483137 0.632031202
vn -0 0.858043671 0.513576686
vn -0 0.858040392 0.51358223
vn 0.367087483 0.682483137 0.632031202
vn 0.367009312 0.331486017 0.869149685
vn 0.367009312 0.331486017 0.869149685
vn -0 0.155646652 0.987812817
vn -0 0.155646652 0.987812817
vn -0 -0.559620202 -0.82874912
vn -0 -0.559620202 -0.82874912
vn -0 -0.559620202 -0.82874912
vn -0 -0.559620202 -0.82874912
vn -0 0 1
vn -0 -1 0
vn -0 -1 0
vn -0 0 1
vn -0 1 0
vn -0 1 0
vn -0 0 -1
vn -0 0 -1
vn -0 -1 0
vn -0 -1 0
vn -0 -1 0
vn -0 0 1
vn -0 -1 0
vn -0 0 1
vn -0 1 0
vn -0 1 0
vn -0 0 -1
vn -0 0 -1
vn -0 -1 0
vn -0 -1 0
g jianglidaoju_pao_lod1_0
f 3/3/3 2/2/2 1/1/1
f 2/2/2 4/4/4 1/1/1
f 4/4/4 5/5/5 1/1/1
f 6/6/6 4/4/4 2/2/2
f 9/9/9 8/8/8 7/7/7
f 10/10/10 7/7/7 8/8/8
f 7/7/7 10/10/10 11/11/11
f 10/10/10 8/8/8 12/12/12
f 13/13/13 12/12/12 8/8/8
f 12/12/12 14/14/14 10/10/10
f 15/15/15 11/11/11 10/10/10
f 15/15/15 10/10/10 14/14/14
f 11/11/11 15/15/15 16/16/16
f 14/14/14 17/17/17 15/15/15
f 18/18/18 16/16/16 15/15/15
f 18/18/18 15/15/15 17/17/17
f 16/16/16 18/18/18 19/19/19
f 17/17/17 20/20/20 18/18/18
f 21/21/21 19/19/19 18/18/18
f 21/21/21 18/18/18 20/20/20
f 19/19/19 21/21/21 22/22/22
f 20/20/20 23/23/23 21/21/21
f 24/24/24 22/22/22 21/21/21
f 24/24/24 21/21/21 23/23/23
f 22/22/22 24/24/24 25/25/25
f 23/23/23 26/26/26 24/24/24
f 27/27/27 25/25/25 24/24/24
f 27/27/27 24/24/24 26/26/26
f 30/30/30 29/29/29 28/28/28
f 29/29/29 31/31/31 28/28/28
f 31/31/31 32/32/32 28/28/28
f 33/33/33 31/31/31 29/29/29
f 36/36/36 35/35/35 34/34/34
f 37/37/37 34/34/34 35/35/35
f 35/35/35 38/38/38 37/37/37
f 39/39/39 37/37/37 38/38/38
f 38/38/38 40/40/40 39/39/39
f 41/41/41 39/39/39 40/40/40
f 44/44/44 43/43/43 42/42/42
f 45/45/45 42/42/42 43/43/43
f 43/43/43 46/46/46 45/45/45
f 47/47/47 45/45/45 46/46/46
f 46/46/46 48/48/48 47/47/47
f 49/49/49 47/47/47 48/48/48
f 52/52/52 51/51/51 50/50/50
f 52/52/52 50/50/50 53/53/53
f 52/52/52 53/53/53 54/54/54
f 57/57/57 56/56/56 55/55/55
f 58/58/58 55/55/55 56/56/56
f 56/56/56 59/59/59 58/58/58
f 60/60/60 58/58/58 59/59/59
f 59/59/59 61/61/61 60/60/60
f 62/62/62 60/60/60 61/61/61
f 65/65/65 64/64/64 63/63/63
f 66/66/66 63/63/63 64/64/64
f 64/64/64 67/67/67 66/66/66
f 68/68/68 66/66/66 67/67/67
f 67/67/67 69/69/69 68/68/68
f 70/70/70 68/68/68 69/69/69
f 73/73/73 72/72/72 71/71/71
f 74/74/74 71/71/71 72/72/72
f 74/74/74 72/72/72 75/75/75
f 76/76/76 75/75/75 72/72/72
f 75/75/75 76/76/76 77/77/77
f 78/78/78 77/77/77 76/76/76
f 77/77/77 78/78/78 79/79/79
f 80/80/80 79/79/79 78/78/78
f 80/80/80 81/81/81 79/79/79
f 82/82/82 79/79/79 81/81/81
f 85/85/85 84/84/84 83/83/83
f 84/84/84 86/86/86 83/83/83
f 86/86/86 87/87/87 83/83/83
f 88/88/88 86/86/86 84/84/84
f 91/91/91 90/90/90 89/89/89
f 90/90/90 92/92/92 89/89/89
f 92/92/92 93/93/93 89/89/89
f 94/94/94 92/92/92 90/90/90
f 97/97/97 96/96/96 95/95/95
f 98/98/98 95/95/95 96/96/96
f 98/98/98 96/96/96 99/99/99
f 100/100/100 99/99/99 96/96/96
f 99/99/99 100/100/100 101/101/101
f 102/102/102 101/101/101 100/100/100
f 101/101/101 102/102/102 103/103/103
f 104/104/104 103/103/103 102/102/102
f 104/104/104 105/105/105 103/103/103
f 106/106/106 103/103/103 105/105/105
f 109/109/109 108/108/108 107/107/107
f 108/108/108 110/110/110 107/107/107
f 110/110/110 111/111/111 107/107/107
f 112/112/112 110/110/110 108/108/108
f 115/115/115 114/114/114 113/113/113
f 114/114/114 116/116/116 113/113/113
f 116/116/116 117/117/117 113/113/113
f 118/118/118 116/116/116 114/114/114
f 121/121/121 120/120/120 119/119/119
f 122/122/122 119/119/119 120/120/120
f 119/119/119 122/122/122 123/123/123
f 124/124/124 123/123/123 122/122/122
f 123/123/123 124/124/124 125/125/125
f 126/126/126 125/125/125 124/124/124
f 125/125/125 126/126/126 127/127/127
f 128/128/128 127/127/127 126/126/126
f 131/131/131 130/130/130 129/129/129
f 132/132/132 129/129/129 130/130/130
f 135/135/135 134/134/134 133/133/133
f 136/136/136 133/133/133 134/134/134
f 139/139/139 138/138/138 137/137/137
f 140/140/140 137/137/137 138/138/138
f 143/143/143 142/142/142 141/141/141
f 144/144/144 141/141/141 142/142/142
f 147/147/147 146/146/146 145/145/145
f 148/148/148 145/145/145 146/146/146
f 151/151/151 150/150/150 149/149/149
f 152/152/152 149/149/149 150/150/150
f 155/155/155 154/154/154 153/153/153
f 156/156/156 153/153/153 154/154/154
f 153/153/153 156/156/156 157/157/157
f 158/158/158 157/157/157 156/156/156
f 161/161/161 160/160/160 159/159/159
f 162/162/162 159/159/159 160/160/160
f 165/165/165 164/164/164 163/163/163
f 166/166/166 163/163/163 164/164/164
f 169/169/169 168/168/168 167/167/167
f 170/170/170 167/167/167 168/168/168
f 173/173/173 172/172/172 171/171/171
f 174/174/174 171/171/171 172/172/172
f 171/171/171 174/174/174 175/175/175
f 176/176/176 175/175/175 174/174/174
f 179/179/179 178/178/178 177/177/177
f 180/180/180 177/177/177 178/178/178
f 183/183/183 182/182/182 181/181/181
f 184/184/184 181/181/181 182/182/182
f 187/187/187 186/186/186 185/185/185
f 188/188/188 185/185/185 186/186/186
f 191/191/191 190/190/190 189/189/189
f 192/192/192 189/189/189 190/190/190
f 195/195/195 194/194/194 193/193/193
f 196/196/196 193/193/193 194/194/194
f 199/199/199 198/198/198 197/197/197
f 200/200/200 197/197/197 198/198/198
f 203/203/203 202/202/202 201/201/201
f 204/204/204 201/201/201 202/202/202
f 207/207/207 206/206/206 205/205/205
f 208/208/208 205/205/205 206/206/206
f 211/211/211 210/210/210 209/209/209
f 212/212/212 209/209/209 210/210/210
f 215/215/215 214/214/214 213/213/213
f 216/216/216 213/213/213 214/214/214
f 219/219/219 218/218/218 217/217/217
f 220/220/220 217/217/217 218/218/218
f 223/223/223 222/222/222 221/221/221
f 222/222/222 224/224/224 221/221/221
f 224/224/224 225/225/225 221/221/221
f 225/225/225 226/226/226 221/221/221
f 225/225/225 227/227/227 226/226/226
f 226/226/226 227/227/227 228/228/228
f 229/229/229 226/226/226 228/228/228
f 227/227/227 230/230/230 228/228/228
f 233/233/233 232/232/232 231/231/231
f 234/234/234 231/231/231 232/232/232
f 232/232/232 235/235/235 234/234/234
f 236/236/236 234/234/234 235/235/235
f 235/235/235 237/237/237 236/236/236
f 238/238/238 236/236/236 237/237/237
f 238/238/238 237/237/237 239/239/239
f 240/240/240 239/239/239 237/237/237
f 239/239/239 240/240/240 241/241/241
f 242/242/242 241/241/241 240/240/240
f 245/245/245 244/244/244 243/243/243
f 246/246/246 243/243/243 244/244/244
f 244/244/244 247/247/247 246/246/246
f 248/248/248 246/246/246 247/247/247
f 251/251/251 250/250/250 249/249/249
f 250/250/250 251/251/251 252/252/252
f 253/253/253 252/252/252 251/251/251
f 256/256/256 255/255/255 254/254/254
f 257/257/257 254/254/254 255/255/255
f 255/255/255 258/258/258 257/257/257
f 259/259/259 257/257/257 258/258/258
f 262/262/262 261/261/261 260/260/260
f 261/261/261 263/263/263 260/260/260
f 263/263/263 264/264/264 260/260/260
f 265/265/265 263/263/263 261/261/261
f 268/268/268 267/267/267 266/266/266
f 269/269/269 266/266/266 267/267/267
f 267/267/267 270/270/270 269/269/269
f 273/273/273 272/272/272 271/271/271
f 274/274/274 271/271/271 272/272/272
f 277/277/277 276/276/276 275/275/275
f 276/276/276 278/278/278 275/275/275
f 278/278/278 279/279/279 275/275/275
f 282/282/282 281/281/281 280/280/280
f 283/283/283 280/280/280 281/281/281
f 283/283/283 284/284/284 280/280/280
f 285/285/285 280/280/280 284/284/284
f 288/288/288 287/287/287 286/286/286
f 289/289/289 286/286/286 287/287/287
f 292/292/292 291/291/291 290/290/290
f 293/293/293 290/290/290 291/291/291
f 296/296/296 295/295/295 294/294/294
f 297/297/297 294/294/294 295/295/295
f 300/300/300 299/299/299 298/298/298
f 301/301/301 298/298/298 299/299/299
f 299/299/299 302/302/302 301/301/301
f 303/303/303 301/301/301 302/302/302
f 302/302/302 304/304/304 303/303/303
f 305/305/305 303/303/303 304/304/304
f 304/304/304 306/306/306 305/305/305
f 307/307/307 305/305/305 306/306/306
f 310/310/310 309/309/309 308/308/308
f 311/311/311 308/308/308 309/309/309
f 309/309/309 312/312/312 311/311/311
f 313/313/313 311/311/311 312/312/312
f 312/312/312 314/314/314 313/313/313
f 315/315/315 313/313/313 314/314/314
f 318/318/318 317/317/317 316/316/316
f 319/319/319 316/316/316 317/317/317
f 317/317/317 320/320/320 319/319/319
f 321/321/321 319/319/319 320/320/320
f 320/320/320 322/322/322 321/321/321
f 323/323/323 321/321/321 322/322/322
f 326/326/326 325/325/325 324/324/324
f 327/327/327 324/324/324 325/325/325
f 325/325/325 328/328/328 327/327/327
f 329/329/329 327/327/327 328/328/328
f 328/328/328 330/330/330 329/329/329
f 331/331/331 329/329/329 330/330/330
f 334/334/334 333/333/333 332/332/332
f 335/335/335 332/332/332 333/333/333
f 333/333/333 336/336/336 335/335/335
f 337/337/337 335/335/335 336/336/336
f 336/336/336 338/338/338 337/337/337
f 339/339/339 337/337/337 338/338/338
f 342/342/342 341/341/341 340/340/340
f 343/343/343 340/340/340 341/341/341
f 346/346/346 345/345/345 344/344/344
f 345/345/345 347/347/347 344/344/344
f 347/347/347 348/348/348 344/344/344
f 349/349/349 347/347/347 345/345/345
f 352/352/352 351/351/351 350/350/350
f 353/353/353 350/350/350 351/351/351
f 351/351/351 354/354/354 353/353/353
f 353/353/353 355/355/355 350/350/350
f 356/356/356 350/350/350 355/355/355
f 355/355/355 353/353/353 357/357/357
f 358/358/358 353/353/353 354/354/354
f 358/358/358 357/357/357 353/353/353
f 354/354/354 359/359/359 358/358/358
f 357/357/357 358/358/358 360/360/360
f 361/361/361 358/358/358 359/359/359
f 361/361/361 360/360/360 358/358/358
f 359/359/359 362/362/362 361/361/361
f 360/360/360 361/361/361 363/363/363
f 364/364/364 361/361/361 362/362/362
f 364/364/364 363/363/363 361/361/361
f 362/362/362 365/365/365 364/364/364
f 363/363/363 364/364/364 366/366/366
f 367/367/367 364/364/364 365/365/365
f 367/367/367 366/366/366 364/364/364
f 365/365/365 368/368/368 367/367/367
f 366/366/366 367/367/367 369/369/369
f 370/370/370 367/367/367 368/368/368
f 370/370/370 369/369/369 367/367/367
f 373/373/373 372/372/372 371/371/371
f 372/372/372 374/374/374 371/371/371
f 374/374/374 375/375/375 371/371/371
f 376/376/376 374/374/374 372/372/372
f 379/379/379 378/378/378 377/377/377
f 380/380/380 377/377/377 378/378/378
f 377/377/377 380/380/380 381/381/381
f 382/382/382 381/381/381 380/380/380
f 381/381/381 382/382/382 383/383/383
f 384/384/384 383/383/383 382/382/382
f 387/387/387 386/386/386 385/385/385
f 388/388/388 385/385/385 386/386/386
f 385/385/385 388/388/388 389/389/389
f 390/390/390 389/389/389 388/388/388
f 389/389/389 390/390/390 391/391/391
f 392/392/392 391/391/391 390/390/390
f 395/395/395 394/394/394 393/393/393
f 393/393/393 394/394/394 396/396/396
f 396/396/396 394/394/394 397/397/397
f 400/400/400 399/399/399 398/398/398
f 401/401/401 398/398/398 399/399/399
f 398/398/398 401/401/401 402/402/402
f 403/403/403 402/402/402 401/401/401
f 402/402/402 403/403/403 404/404/404
f 405/405/405 404/404/404 403/403/403
f 408/408/408 407/407/407 406/406/406
f 409/409/409 406/406/406 407/407/407
f 406/406/406 409/409/409 410/410/410
f 411/411/411 410/410/410 409/409/409
f 410/410/410 411/411/411 412/412/412
f 413/413/413 412/412/412 411/411/411
f 416/416/416 415/415/415 414/414/414
f 417/417/417 414/414/414 415/415/415
f 417/417/417 418/418/418 414/414/414
f 419/419/419 414/414/414 418/418/418
f 418/418/418 420/420/420 419/419/419
f 421/421/421 419/419/419 420/420/420
f 420/420/420 422/422/422 421/421/421
f 423/423/423 421/421/421 422/422/422
f 423/423/423 422/422/422 424/424/424
f 425/425/425 424/424/424 422/422/422
f 428/428/428 427/427/427 426/426/426
f 427/427/427 429/429/429 426/426/426
f 429/429/429 430/430/430 426/426/426
f 431/431/431 429/429/429 427/427/427
f 434/434/434 433/433/433 432/432/432
f 433/433/433 435/435/435 432/432/432
f 435/435/435 436/436/436 432/432/432
f 437/437/437 435/435/435 433/433/433
f 440/440/440 439/439/439 438/438/438
f 441/441/441 438/438/438 439/439/439
f 441/441/441 442/442/442 438/438/438
f 443/443/443 438/438/438 442/442/442
f 442/442/442 444/444/444 443/443/443
f 445/445/445 443/443/443 444/444/444
f 444/444/444 446/446/446 445/445/445
f 447/447/447 445/445/445 446/446/446
f 447/447/447 446/446/446 448/448/448
f 449/449/449 448/448/448 446/446/446
f 452/452/452 451/451/451 450/450/450
f 451/451/451 453/453/453 450/450/450
f 453/453/453 454/454/454 450/450/450
f 455/455/455 453/453/453 451/451/451
f 458/458/458 457/457/457 456/456/456
f 457/457/457 459/459/459 456/456/456
f 459/459/459 460/460/460 456/456/456
f 461/461/461 459/459/459 457/457/457
f 464/464/464 463/463/463 462/462/462
f 465/465/465 462/462/462 463/463/463
f 463/463/463 466/466/466 465/465/465
f 467/467/467 465/465/465 466/466/466
f 466/466/466 468/468/468 467/467/467
f 469/469/469 467/467/467 468/468/468
f 468/468/468 470/470/470 469/469/469
f 471/471/471 469/469/469 470/470/470
f 474/474/474 473/473/473 472/472/472
f 475/475/475 472/472/472 473/473/473
f 478/478/478 477/477/477 476/476/476
f 479/479/479 476/476/476 477/477/477
f 482/482/482 481/481/481 480/480/480
f 483/483/483 480/480/480 481/481/481
f 486/486/486 485/485/485 484/484/484
f 487/487/487 484/484/484 485/485/485
f 490/490/490 489/489/489 488/488/488
f 491/491/491 488/488/488 489/489/489
f 494/494/494 493/493/493 492/492/492
f 495/495/495 492/492/492 493/493/493
f 498/498/498 497/497/497 496/496/496
f 499/499/499 496/496/496 497/497/497
f 497/497/497 500/500/500 499/499/499
f 501/501/501 499/499/499 500/500/500
f 504/504/504 503/503/503 502/502/502
f 505/505/505 502/502/502 503/503/503
f 508/508/508 507/507/507 506/506/506
f 509/509/509 506/506/506 507/507/507
f 512/512/512 511/511/511 510/510/510
f 513/513/513 510/510/510 511/511/511
f 516/516/516 515/515/515 514/514/514
f 517/517/517 514/514/514 515/515/515
f 515/515/515 518/518/518 517/517/517
f 519/519/519 517/517/517 518/518/518
f 522/522/522 521/521/521 520/520/520
f 523/523/523 520/520/520 521/521/521
f 526/526/526 525/525/525 524/524/524
f 527/527/527 524/524/524 525/525/525
f 530/530/530 529/529/529 528/528/528
f 531/531/531 528/528/528 529/529/529
f 534/534/534 533/533/533 532/532/532
f 535/535/535 532/532/532 533/533/533
f 538/538/538 537/537/537 536/536/536
f 539/539/539 536/536/536 537/537/537
f 542/542/542 541/541/541 540/540/540
f 543/543/543 540/540/540 541/541/541
f 546/546/546 545/545/545 544/544/544
f 547/547/547 544/544/544 545/545/545
f 550/550/550 549/549/549 548/548/548
f 551/551/551 548/548/548 549/549/549
f 554/554/554 553/553/553 552/552/552
f 555/555/555 552/552/552 553/553/553
f 558/558/558 557/557/557 556/556/556
f 559/559/559 556/556/556 557/557/557
f 562/562/562 561/561/561 560/560/560
f 563/563/563 560/560/560 561/561/561
f 566/566/566 565/565/565 564/564/564
f 567/567/567 566/566/566 564/564/564
f 568/568/568 567/567/567 564/564/564
f 569/569/569 568/568/568 564/564/564
f 570/570/570 568/568/568 569/569/569
f 571/571/571 570/570/570 569/569/569
f 572/572/572 571/571/571 569/569/569
f 573/573/573 570/570/570 571/571/571
f 576/576/576 575/575/575 574/574/574
f 577/577/577 574/574/574 575/575/575
f 574/574/574 577/577/577 578/578/578
f 579/579/579 578/578/578 577/577/577
f 578/578/578 579/579/579 580/580/580
f 581/581/581 580/580/580 579/579/579
f 581/581/581 582/582/582 580/580/580
f 583/583/583 580/580/580 582/582/582
f 582/582/582 584/584/584 583/583/583
f 585/585/585 583/583/583 584/584/584
f 588/588/588 587/587/587 586/586/586
f 589/589/589 586/586/586 587/587/587
f 586/586/586 589/589/589 590/590/590
f 591/591/591 590/590/590 589/589/589
f 594/594/594 593/593/593 592/592/592
f 594/594/594 595/595/595 593/593/593
f 596/596/596 593/593/593 595/595/595
f 599/599/599 598/598/598 597/597/597
f 600/600/600 597/597/597 598/598/598
f 597/597/597 600/600/600 601/601/601
f 602/602/602 601/601/601 600/600/600
f 605/605/605 604/604/604 603/603/603
f 604/604/604 606/606/606 603/603/603
f 606/606/606 607/607/607 603/603/603
f 608/608/608 606/606/606 604/604/604
f 611/611/611 610/610/610 609/609/609
f 612/612/612 609/609/609 610/610/610
f 613/613/613 609/609/609 612/612/612
f 616/616/616 615/615/615 614/614/614
f 617/617/617 614/614/614 615/615/615
f 620/620/620 619/619/619 618/618/618
f 619/619/619 621/621/621 618/618/618
f 621/621/621 622/622/622 618/618/618
f 625/625/625 624/624/624 623/623/623
f 626/626/626 623/623/623 624/624/624
f 626/626/626 624/624/624 627/627/627
f 628/628/628 627/627/627 624/624/624
f 631/631/631 630/630/630 629/629/629
f 632/632/632 629/629/629 630/630/630
f 635/635/635 634/634/634 633/633/633
f 636/636/636 633/633/633 634/634/634
f 639/639/639 638/638/638 637/637/637
f 640/640/640 637/637/637 638/638/638
f 643/643/643 642/642/642 641/641/641
f 644/644/644 641/641/641 642/642/642
f 641/641/641 644/644/644 645/645/645
f 646/646/646 645/645/645 644/644/644
f 645/645/645 646/646/646 647/647/647
f 648/648/648 647/647/647 646/646/646
f 647/647/647 648/648/648 649/649/649
f 650/650/650 649/649/649 648/648/648
f 653/653/653 652/652/652 651/651/651
f 654/654/654 651/651/651 652/652/652
f 651/651/651 654/654/654 655/655/655
f 656/656/656 655/655/655 654/654/654
f 655/655/655 656/656/656 657/657/657
f 658/658/658 657/657/657 656/656/656
f 661/661/661 660/660/660 659/659/659
f 662/662/662 659/659/659 660/660/660
f 659/659/659 662/662/662 663/663/663
f 664/664/664 663/663/663 662/662/662
f 663/663/663 664/664/664 665/665/665
f 666/666/666 665/665/665 664/664/664
f 669/669/669 668/668/668 667/667/667
f 670/670/670 667/667/667 668/668/668
f 667/667/667 670/670/670 671/671/671
f 672/672/672 671/671/671 670/670/670
f 671/671/671 672/672/672 673/673/673
f 674/674/674 673/673/673 672/672/672
f 677/677/677 676/676/676 675/675/675
f 678/678/678 675/675/675 676/676/676
f 675/675/675 678/678/678 679/679/679
f 680/680/680 679/679/679 678/678/678
f 679/679/679 680/680/680 681/681/681
f 682/682/682 681/681/681 680/680/680
f 685/685/685 684/684/684 683/683/683
f 686/686/686 683/683/683 684/684/684
f 689/689/689 688/688/688 687/687/687
f 690/690/690 687/687/687 688/688/688
f 687/687/687 690/690/690 691/691/691
f 692/692/692 691/691/691 690/690/690
f 691/691/691 692/692/692 693/693/693
f 694/694/694 693/693/693 692/692/692
f 693/693/693 694/694/694 695/695/695
f 696/696/696 695/695/695 694/694/694
f 699/699/699 698/698/698 697/697/697
f 700/700/700 697/697/697 698/698/698
f 698/698/698 701/701/701 700/700/700
f 702/702/702 700/700/700 701/701/701
f 701/701/701 703/703/703 702/702/702
f 704/704/704 702/702/702 703/703/703
f 703/703/703 705/705/705 704/704/704
f 706/706/706 704/704/704 705/705/705
