g jianglidaoju_jiatelin_lod1
v 0.00291007059 0.0990744606 0.0715029165
v 0.0491788127 0.0857160166 0.0711072609
v 0.0838457942 0.0561835244 0.0711072683
v 0.0838457942 0.0561835244 0.0711072683
v 0.104512319 0.0883681849 0.0504781529
v 0.0838423148 0.0561491586 0.0438704006
v 0.0491788127 0.0857160166 0.0711072609
v 0.0491562076 0.085927926 0.0438692048
v 0.0827369317 0.108272932 0.0504770316
v -0.0458762124 0.0693479776 0.0197534952
v -0.0522943437 0.0632378161 0.0296350848
v -0.080799073 0.0915447623 0.0194459688
v -0.202734679 0.0383967906 -0.0434859805
v -0.190590307 0.0282485113 -0.043485973
v -0.159333959 0.084796153 -0.0426402949
v -0.158162117 0.0765940771 0.0280974619
v -0.162628278 0.0866055936 0.0182158686
v -0.0839249045 0.0816995725 0.0293275621
v -0.158162117 0.0765940771 0.0280974619
v -0.198395491 0.0333807617 0.02725178
v -0.162628278 0.0866055936 0.0182158686
v 0.119685993 0.198380202 -0.0363500006
v 0.13391766 0.209412709 0.000281869055
v 0.00581951486 0.113318481 -0.0363499969
v 3.65476858E-08 0.286980271 -0.269023836
v 0.0185790807 0.271395355 -0.235877946
v -0.0185790062 0.271395326 -0.235877946
v -0.0118395472 0.0588161424 -0.333231807
v 4.46446755E-08 0.269477069 -0.284458339
v -0.023149563 0.251041323 -0.245037213
v 4.46446755E-08 0.269477069 -0.284458339
v 0.0118395807 0.0588161424 -0.333231777
v 0.0231496394 0.251041323 -0.245037183
v 0.0473670512 0.0860462338 -0.0651784316
v 0.064479731 0.094818987 -0.0726045445
v 0.115655534 0.0704415664 -0.0727685988
v 0.0644573793 0.0947998613 -0.146464229
v 0.0473897867 0.086077176 -0.153150722
v 0.115673564 0.0703090802 -0.146458372
v 0.115673564 0.0703090802 -0.146458372
v 0.0998986214 0.00253520277 -0.153189108
v 0.117788501 0.012446058 -0.146550372
v 0.115673564 0.0703090802 -0.146458372
v 0.0473897867 0.086077176 -0.153150722
v 0.0998986214 0.00253520277 -0.153189108
v 0.0473670512 0.0860462338 -0.0651784316
v 0.115655534 0.0704415664 -0.0727685988
v 0.0998825505 0.00250890758 -0.0652410313
v 0.0998825505 0.00250890758 -0.0652410313
v 0.115655534 0.0704415664 -0.0727685988
v 0.117822245 0.0124465013 -0.0727685913
v 0.203353375 0.0595925264 0.0303675923
v 0.232167736 0.0824909657 0.0011704159
v 0.20335336 0.0595925227 -0.028026199
v 0.13391766 0.209412709 0.000281869055
v 0.119685993 0.198380217 0.0369137377
v 0.00581950834 0.113318495 0.0369137451
v 0.13391766 0.209412709 0.000281869055
v 0.00581950834 0.113318495 0.0369137451
v 0.00581951486 0.113318481 -0.0363499969
v -0.0118395472 0.0588161424 -0.333231807
v 1.55504782E-08 0.0596267916 -0.358399004
v 4.46446755E-08 0.269477069 -0.284458339
v 4.46446755E-08 0.269477069 -0.284458339
v 1.55504782E-08 0.0596267916 -0.358399004
v 0.0118395807 0.0588161424 -0.333231777
v -0.0839249045 0.0816995725 0.0293275621
v -0.162628278 0.0866055936 0.0182158686
v -0.080799073 0.0915447623 0.0194459688
v -0.080799073 0.0915447623 0.0194459688
v -0.0522943437 0.0632378161 0.0296350848
v -0.0839249045 0.0816995725 0.0293275621
v -0.162628278 0.0866055936 0.0182158686
v -0.198395491 0.0333807617 0.02725178
v -0.206028998 0.0402062647 0.0173701886
v -0.0474431105 0.0700126067 -0.0411026813
v -0.0858693644 0.0729388744 -0.0414101891
v -0.0587125085 0.0608866327 -0.0411026664
v -0.00122159871 -0.106780715 0.0730239078
v -0.0794107541 -0.0706227943 0.0730239302
v -0.0794398561 -0.0706149638 0.195956469
v -0.00115121691 -0.106807977 0.195956513
v -0.106452189 -0.000871806289 0.0730238408
v -0.079179585 0.0701875687 0.0730238557
v -0.0791632533 0.0702722594 0.195956454
v -0.106745288 -0.000845918723 0.195956439
v 0.10491021 -0.000871815486 0.0730238706
v 0.0742838457 -0.0706228018 0.0730239078
v 0.0742909089 -0.0706265196 0.195956528
v 0.105019845 -0.000845935196 0.195956469
v -0.00122157752 0.105003431 0.0730238408
v 0.0745582208 0.0701875612 0.0730238482
v 0.0745681971 0.0701479912 0.195956513
v -0.00115120271 0.105416656 0.195956469
v -0.0794398561 -0.0706149638 0.195956469
v -0.0794107541 -0.0706227943 0.0730239302
v -0.106452189 -0.000871806289 0.0730238408
v -0.106745288 -0.000845918723 0.195956439
v -0.0791632533 0.0702722594 0.195956454
v -0.079179585 0.0701875687 0.0730238557
v -0.00122157752 0.105003431 0.0730238408
v -0.00115120271 0.105416656 0.195956469
v 0.0742909089 -0.0706265196 0.195956528
v 0.0742838457 -0.0706228018 0.0730239078
v -0.00122159871 -0.106780715 0.0730239078
v -0.00115121691 -0.106807977 0.195956513
v 0.0745681971 0.0701479912 0.195956513
v 0.0745582208 0.0701875612 0.0730238482
v 0.10491021 -0.000871815486 0.0730238706
v 0.105019845 -0.000845935196 0.195956469
v -0.0794398561 -0.0706149638 0.195956469
v 0.0742909089 -0.0706265196 0.195956528
v -0.00115121691 -0.106807977 0.195956513
v -0.0791632533 0.0702722594 0.195956454
v -0.106745288 -0.000845918723 0.195956439
v 0.0745681971 0.0701479912 0.195956513
v 0.105019845 -0.000845935196 0.195956469
v -0.00115120271 0.105416656 0.195956469
v 0.0745582208 0.0701875612 0.0730238482
v -0.00122157752 0.105003431 0.0730238408
v -0.079179585 0.0701875687 0.0730238557
v -0.0794107541 -0.0706227943 0.0730239302
v -0.106452189 -0.000871806289 0.0730238408
v 0.0742838457 -0.0706228018 0.0730239078
v 0.10491021 -0.000871815486 0.0730238706
v -0.00122159871 -0.106780715 0.0730239078
v 0.120207623 -0.000747094688 0.278733462
v 0.0832660571 -0.0812821761 0.278733462
v 0.0833385512 -0.0815638527 0.342725009
v 0.122116372 -0.000786691264 0.342724979
v -0.000826058676 -0.121312007 0.278733462
v -0.0870753303 -0.081778273 0.278733402
v -0.0872160867 -0.0820599571 0.342724949
v -0.000988852931 -0.12397825 0.342724949
v -0.122789972 -0.000747074489 0.278733432
v -0.0871110037 0.0821727365 0.278733462
v -0.0872517452 0.0823491663 0.34272486
v -0.125024334 -0.000786661403 0.342724919
v -0.000826028991 0.119817637 0.278733462
v 0.082742162 0.0829730779 0.278733522
v 0.0828146562 0.0831495076 0.342724949
v -0.000988815911 0.12240465 0.342724949
v -0.0872160867 -0.0820599571 0.342724949
v 0.0833385512 -0.0815638527 0.342725009
v -0.000988852931 -0.12397825 0.342724949
v -0.0872517452 0.0823491663 0.34272486
v -0.125024334 -0.000786661403 0.342724919
v 0.0828146562 0.0831495076 0.342724949
v 0.122116372 -0.000786691264 0.342724979
v -0.000988815911 0.12240465 0.342724949
v 0.0833385512 -0.0815638527 0.342725009
v 0.0832660571 -0.0812821761 0.278733462
v -0.000826058676 -0.121312007 0.278733462
v -0.000988852931 -0.12397825 0.342724949
v -0.0872160867 -0.0820599571 0.342724949
v -0.0870753303 -0.081778273 0.278733402
v -0.122789972 -0.000747074489 0.278733432
v -0.125024334 -0.000786661403 0.342724919
v -0.0872517452 0.0823491663 0.34272486
v -0.0871110037 0.0821727365 0.278733462
v -0.000826028991 0.119817637 0.278733462
v -0.000988815911 0.12240465 0.342724949
v 0.0828146562 0.0831495076 0.342724949
v 0.082742162 0.0829730779 0.278733522
v 0.120207623 -0.000747094688 0.278733462
v 0.122116372 -0.000786691264 0.342724979
v 0.0832660571 -0.0812821761 0.278733462
v -0.0870753303 -0.081778273 0.278733402
v -0.000826058676 -0.121312007 0.278733462
v 0.082742162 0.0829730779 0.278733522
v 0.120207623 -0.000747094688 0.278733462
v -0.0871110037 0.0821727365 0.278733462
v -0.122789972 -0.000747074489 0.278733432
v -0.000826028991 0.119817637 0.278733462
v -0.0646737367 0.0614565276 -0.23978889
v 0.0754543692 0.0625213683 -0.23978889
v 0.00519368472 0.0950324982 -0.23978889
v 0.00519367401 -0.0963446796 -0.239788815
v -0.0607477129 -0.065879494 -0.23978883
v -0.0911610425 0.000454968627 -0.239788875
v 0.0746127889 -0.062914595 -0.23978883
v 0.100442968 0.00154612109 -0.239788875
v 0.00519367401 -0.0963446796 -0.239788815
v 0.0046134186 -0.0817498937 -0.189739451
v 0.0559893884 -0.0604453683 -0.189738959
v 0.0746127889 -0.062914595 -0.23978883
v 0.100442968 0.00154612109 -0.239788875
v 0.081953384 0.000760658935 -0.189738482
v 0.0676008388 0.0481739976 -0.189687192
v 0.0754543692 0.0625213683 -0.23978889
v 0.00519368472 0.0950324982 -0.23978889
v 0.00461309403 0.080835849 -0.189739466
v -0.0489698462 0.0556290075 -0.189740047
v -0.0646737367 0.0614565276 -0.23978889
v -0.0911610425 0.000454968627 -0.239788875
v -0.0715548918 -0.000330406881 -0.189740464
v -0.0485820659 -0.057478819 -0.189739987
v -0.0607477129 -0.065879494 -0.23978883
v 0.00519367401 -0.0963446796 -0.239788815
v 0.0046134186 -0.0817498937 -0.189739451
v 0.0032520825 -0.0998145267 -0.157593504
v 0.00291018118 -0.100186691 0.0715029761
v 0.0736169666 -0.0688614175 0.0715029761
v 0.0735761896 -0.0689793825 -0.157589942
v 0.101088725 -0.0019089242 0.0715029389
v 0.101184897 -0.00194601028 -0.157586366
v 0.081953384 0.000760658935 -0.189738482
v 0.0559893884 -0.0604453683 -0.189738959
v 0.0838423148 0.0561491586 0.0438704006
v 0.0838457942 0.0561835244 0.0711072683
v 0.0811355487 0.0563533492 -0.157589272
v 0.0676008388 0.0481739976 -0.189687192
v 0.0485324524 0.0860112011 -0.157591194
v 0.0491562076 0.085927926 0.0438692048
v 0.00461309403 0.080835849 -0.189739466
v 0.00325193838 0.0987351388 -0.157593533
v 0.00291007059 0.0990744606 0.0715029165
v 0.0491788127 0.0857160166 0.0711072609
v -0.0669442043 0.0659846887 0.0715029389
v -0.0660514012 0.0646609291 -0.15759775
v -0.0489698462 0.0556290075 -0.189740047
v -0.0942035168 -0.00245945994 0.0715029687
v -0.0715548918 -0.000330406881 -0.189740464
v -0.093599163 -0.00310411258 -0.157600984
v -0.0723232329 -0.0608428456 0.0715029538
v -0.0717335865 -0.0598543435 -0.157598048
v -0.0485820659 -0.057478819 -0.189739987
v 0.00291018118 -0.100186691 0.0715029761
v 0.0046134186 -0.0817498937 -0.189739451
v 0.0032520825 -0.0998145267 -0.157593504
v 0.101088725 -0.0019089242 0.0715029389
v 0.00291007059 0.0990744606 0.0715029165
v 0.0838457942 0.0561835244 0.0711072683
v 0.0736169666 -0.0688614175 0.0715029761
v 0.00291018118 -0.100186691 0.0715029761
v -0.0723232329 -0.0608428456 0.0715029538
v -0.0942035168 -0.00245945994 0.0715029687
v -0.0669442043 0.0659846887 0.0715029389
v 0.104512319 0.0883681849 0.0504781529
v 0.0827369317 0.108272932 0.0504770316
v 0.0491562076 0.085927926 0.0438692048
v 0.0838423148 0.0561491586 0.0438704006
v 0.0576393008 0.10803812 0.341734678
v 0.10348992 0.0637838766 0.341734767
v 0.0838457942 0.0561835244 0.0711072683
v 0.0491788127 0.0857160166 0.0711072609
v 0.120079912 0.0975541919 0.332624227
v 0.104512319 0.0883681849 0.0504781529
v 0.0838457942 0.0561835244 0.0711072683
v 0.10348992 0.0637838766 0.341734767
v 0.120079912 0.0975541919 0.332624227
v 0.0889670178 0.125848651 0.332624197
v 0.0827369317 0.108272932 0.0504770316
v 0.104512319 0.0883681849 0.0504781529
v 0.0889670178 0.125848651 0.332624197
v 0.0576393008 0.10803812 0.341734678
v 0.0491788127 0.0857160166 0.0711072609
v 0.0827369317 0.108272932 0.0504770316
v 0.0576393008 0.10803812 0.341734678
v 0.0889670178 0.125848651 0.332624197
v 0.120079912 0.0975541919 0.332624227
v 0.10348992 0.0637838766 0.341734767
v 0.0735761896 -0.0689793825 -0.157589942
v 0.0559893884 -0.0604453683 -0.189738959
v 0.0046134186 -0.0817498937 -0.189739451
v 0.0032520825 -0.0998145267 -0.157593504
v -0.0555397794 0.0559180714 0.43427372
v -0.0387911424 0.0584086291 0.192252293
v -0.00177382806 0.0830265582 0.192252353
v -0.000961635145 0.109726749 0.434273571
v -0.00098147511 0.000211973223 0.43427375
v -0.0017856498 0.00980643742 0.192252383
v -0.0387911424 0.0584086291 0.192252293
v -0.0555397794 0.0559180714 0.43427372
v 0.0533769578 0.0555899478 0.43427375
v -0.000961635145 0.109726749 0.434273571
v -0.00177382806 0.0830265582 0.192252353
v 0.0322667323 0.0581237674 0.192252442
v -0.00098147511 0.000211973223 0.43427375
v 0.0533769578 0.0555899478 0.43427375
v 0.0322667323 0.0581237674 0.192252442
v -0.0017856498 0.00980643742 0.192252383
v -0.0555397794 0.0559180714 0.43427372
v 0.0533769578 0.0555899478 0.43427375
v -0.00098147511 0.000211973223 0.43427375
v -0.000961635145 0.109726749 0.434273571
v 0.0538242236 0.0281041954 0.434273481
v 0.0499397554 0.0137948608 0.192252398
v 0.0771289989 -0.0258372296 0.192252502
v 0.108484142 -0.0260477234 0.43427375
v 0.108484142 -0.0260477234 0.43427375
v 0.0771289989 -0.0258372296 0.192252502
v 0.0498176329 -0.0574410185 0.192252561
v 0.0538025238 -0.0814256445 0.43427375
v -0.000354269781 -0.0257535167 0.43427372
v 0.0538025238 -0.0814256445 0.43427375
v 0.0498176329 -0.0574410185 0.192252561
v 0.00579835661 -0.0256825965 0.192252323
v -0.000354269781 -0.0257535167 0.43427372
v 0.00579835661 -0.0256825965 0.192252323
v 0.0499397554 0.0137948608 0.192252398
v 0.0538242236 0.0281041954 0.434273481
v 0.0538242236 0.0281041954 0.434273481
v 0.108484142 -0.0260477234 0.43427375
v -0.000354269781 -0.0257535167 0.43427372
v 0.0538025238 -0.0814256445 0.43427375
v -0.00103139516 -0.0259064697 0.43427375
v -0.00250858325 -0.0329027362 0.192252442
v -0.0415527672 -0.0629322678 0.192252398
v -0.0557357334 -0.0811817944 0.43427375
v -0.0557357334 -0.0811817944 0.43427375
v -0.0415527672 -0.0629322678 0.192252398
v -0.0773822591 -0.0329246148 0.192252457
v -0.109816536 -0.0259360243 0.43427375
v -0.0559308231 0.0280311611 0.43427372
v -0.109816536 -0.0259360243 0.43427375
v -0.0773822591 -0.0329246148 0.192252457
v -0.041676119 0.0102639841 0.192252398
v -0.00103139516 -0.0259064697 0.43427375
v -0.0559308231 0.0280311611 0.43427372
v -0.041676119 0.0102639841 0.192252398
v -0.00250858325 -0.0329027362 0.192252442
v -0.00103139516 -0.0259064697 0.43427375
v -0.109816536 -0.0259360243 0.43427375
v -0.0559308231 0.0280311611 0.43427372
v -0.0557357334 -0.0811817944 0.43427375
v -0.0796131045 0.088207759 -0.0414101928
v -0.0474431105 0.0700126067 -0.0411026813
v -0.0458762124 0.0693479776 0.0197534952
v -0.080799073 0.0915447623 0.0194459688
v -0.0474431105 0.0700126067 -0.0411026813
v -0.0796131045 0.088207759 -0.0414101928
v -0.0858693644 0.0729388744 -0.0414101891
v -0.153524235 0.0682757944 -0.0426402949
v -0.153695926 0.0665825456 0.0182158742
v -0.158162117 0.0765940771 0.0280974619
v -0.0839249045 0.0816995725 0.0293275621
v -0.087050721 0.0718543604 0.0194459725
v -0.080799073 0.0915447623 0.0194459688
v -0.162628278 0.0866055936 0.0182158686
v -0.159333959 0.084796153 -0.0426402949
v -0.0796131045 0.088207759 -0.0414101928
v -0.159333959 0.084796153 -0.0426402949
v -0.153524235 0.0682757944 -0.0426402949
v -0.0796131045 0.088207759 -0.0414101928
v -0.190590307 0.0282485113 -0.043485973
v -0.153695926 0.0665825456 0.0182158742
v -0.190762013 0.026555283 0.0173701923
v -0.198395491 0.0333807617 0.02725178
v -0.158162117 0.0765940771 0.0280974619
v -0.162628278 0.0866055936 0.0182158686
v -0.206028998 0.0402062647 0.0173701886
v -0.202734679 0.0383967906 -0.0434859805
v -0.159333959 0.084796153 -0.0426402949
v -0.0522943437 0.0632378161 0.0296350848
v -0.0587124564 0.0571276471 0.0197534971
v -0.087050721 0.0718543604 0.0194459725
v -0.0839249045 0.0816995725 0.0293275621
v 0.119685993 0.198380217 0.0369137377
v 0.137099355 0.174581483 0.0369137414
v 0.0361805595 0.0946307555 0.0369137451
v 0.00581950834 0.113318495 0.0369137451
v 0.0084889885 0.0761783421 0.0369137451
v 0.0371460244 0.0770865157 0.0369137451
v 0.119685993 0.198380202 -0.0363500006
v 0.0361805707 0.0946307182 -0.0363499932
v 0.137099355 0.174581468 -0.0363500006
v 0.00581951486 0.113318481 -0.0363499969
v 0.00848899968 0.0761783198 -0.0363499932
v 0.0371460319 0.0770865083 -0.0363499932
v 0.150948495 0.186108753 0.000281871675
v 0.137099355 0.174581468 -0.0363500006
v 0.0361805707 0.0946307182 -0.0363499932
v 0.0361805595 0.0946307555 0.0369137451
v 0.137099355 0.174581483 0.0369137414
v 0.0084889885 0.0761783421 0.0369137451
v 0.00848899968 0.0761783198 -0.0363499932
v 0.00581951486 0.113318481 -0.0363499969
v 0.00581950834 0.113318495 0.0369137451
v 0.0371460319 0.0770865083 -0.0363499932
v 0.0371460244 0.0770865157 0.0369137451
v 0.0361805595 0.0946307555 0.0369137451
v 0.0361805707 0.0946307182 -0.0363499932
v 0.119685993 0.198380217 0.0369137377
v 0.13391766 0.209412709 0.000281869055
v 0.150948495 0.186108753 0.000281871675
v 0.137099355 0.174581483 0.0369137414
v 0.150948495 0.186108753 0.000281871675
v 0.13391766 0.209412709 0.000281869055
v 0.119685993 0.198380202 -0.0363500006
v 0.137099355 0.174581468 -0.0363500006
v -0.0239898507 0.00631114095 -0.236491606
v -0.0127468975 0.0059515005 -0.304690808
v 0.0127469134 0.0059514991 -0.304690808
v 0.0239898637 0.00631113769 -0.236491606
v 2.73520073E-09 -0.0281971358 -0.236491606
v 4.75196638E-09 -0.0137891574 -0.313848972
v -0.0127468975 0.0059515005 -0.304690808
v -0.0239898507 0.00631114095 -0.236491606
v 0.0239898637 0.00631113769 -0.236491606
v 0.0127469134 0.0059514991 -0.304690808
v 4.75196638E-09 -0.0137891574 -0.313848972
v 2.73520073E-09 -0.0281971358 -0.236491606
v -0.0118395472 0.0588161424 -0.333231807
v 0.0118395807 0.0588161424 -0.333231777
v 0.0127469134 0.0059514991 -0.304690808
v -0.0127468975 0.0059515005 -0.304690808
v 1.55504782E-08 0.0596267916 -0.358399004
v -0.0118395472 0.0588161424 -0.333231807
v -0.0127468975 0.0059515005 -0.304690808
v 4.75196638E-09 -0.0137891574 -0.313848972
v 0.0127469134 0.0059514991 -0.304690808
v 0.0118395807 0.0588161424 -0.333231777
v 1.55504782E-08 0.0596267916 -0.358399004
v 4.75196638E-09 -0.0137891574 -0.313848972
v -0.023149563 0.251041323 -0.245037213
v 4.46446755E-08 0.269477069 -0.284458339
v 3.65476858E-08 0.286980271 -0.269023836
v -0.0185790062 0.271395326 -0.235877946
v -0.0185790062 0.271395326 -0.235877946
v 0.0185790807 0.271395355 -0.235877946
v 0.0231496394 0.251041323 -0.245037183
v -0.023149563 0.251041323 -0.245037213
v 0.0118395807 0.0588161424 -0.333231777
v -0.0118395472 0.0588161424 -0.333231807
v 3.65476858E-08 0.286980271 -0.269023836
v 4.46446755E-08 0.269477069 -0.284458339
v 0.0231496394 0.251041323 -0.245037183
v 0.0185790807 0.271395355 -0.235877946
v 0.064479731 0.094818987 -0.0726045445
v 0.0644573793 0.0947998613 -0.146464229
v 0.115673564 0.0703090802 -0.146458372
v 0.115655534 0.0704415664 -0.0727685988
v 0.0473897867 0.086077176 -0.153150722
v 0.0644573793 0.0947998613 -0.146464229
v 0.064479731 0.094818987 -0.0726045445
v 0.0473670512 0.0860462338 -0.0651784316
v 0.115673564 0.0703090802 -0.146458372
v 0.117788501 0.012446058 -0.146550372
v 0.117822245 0.0124465013 -0.0727685913
v 0.115655534 0.0704415664 -0.0727685988
v 0.0998825505 0.00250890758 -0.0652410313
v 0.117822245 0.0124465013 -0.0727685913
v 0.117788501 0.012446058 -0.146550372
v 0.0998986214 0.00253520277 -0.153189108
v 0.121559292 0.164291322 0.0151183102
v 0.203353375 0.0595925264 0.0303675923
v 0.20335336 0.0595925227 -0.028026199
v 0.121559292 0.164291307 -0.0127773518
v 0.141169742 0.178511173 0.00117042742
v 0.232167736 0.0824909657 0.0011704159
v 0.203353375 0.0595925264 0.0303675923
v 0.121559292 0.164291322 0.0151183102
v 0.121559292 0.164291307 -0.0127773518
v 0.20335336 0.0595925227 -0.028026199
v 0.232167736 0.0824909657 0.0011704159
v 0.141169742 0.178511173 0.00117042742
v -0.252242208 -0.0400439501 0.0726250857
v -0.252242208 -0.040043965 -0.0764438733
v -0.213822022 0.0404504538 -0.0764438584
v -0.213822052 0.0404504724 0.0726250857
v -0.0965671316 0.0596776456 0.0726250857
v -0.0872735605 -0.124666803 0.0726250932
v -0.205343962 -0.117081419 0.0726250857
v -0.252242208 -0.0400439501 0.0726250857
v -0.213822052 0.0404504724 0.0726250857
v -0.0872735456 -0.124666803 -0.0764444247
v -0.205343932 -0.117081419 -0.0764444247
v -0.205343962 -0.117081419 0.0726250857
v -0.0872735605 -0.124666803 0.0726250932
v -0.0965671241 0.0596776418 -0.0764438808
v -0.0872735456 -0.124666803 -0.0764444247
v -0.0872735605 -0.124666803 0.0726250932
v -0.0965671316 0.0596776456 0.0726250857
v -0.252242208 -0.0400439501 0.0726250857
v -0.205343962 -0.117081419 0.0726250857
v -0.205343932 -0.117081419 -0.0764444247
v -0.252242208 -0.040043965 -0.0764438733
v -0.0965671316 0.0596776456 0.0726250857
v -0.213822052 0.0404504724 0.0726250857
v -0.213822022 0.0404504538 -0.0764438584
v -0.0965671241 0.0596776418 -0.0764438808
v -0.0872735456 -0.124666803 -0.0764444247
v -0.0965671241 0.0596776418 -0.0764438808
v -0.205343932 -0.117081419 -0.0764444247
v -0.252242208 -0.040043965 -0.0764438733
v -0.213822022 0.0404504538 -0.0764438584
v -0.135843784 0.0265327729 0.11223314
v -0.146414608 0.00505237281 0.122649632
v -0.170580104 0.00227390067 0.0580978915
v -0.148344427 0.0358078592 0.0579256006
v -0.12527357 0.00505237607 0.101816654
v -0.135843784 0.0265327729 0.11223314
v -0.148344427 0.0358078592 0.0579256006
v -0.12610817 0.0022738988 0.0577531755
v -0.148344427 -0.0211849175 0.057925608
v -0.135843799 -0.00997439213 0.112233147
v -0.12527357 0.00505237607 0.101816654
v -0.12610817 0.0022738988 0.0577531755
v -0.170580104 0.00227390067 0.0580978915
v -0.146414608 0.00505237281 0.122649632
v -0.135843799 -0.00997439213 0.112233147
v -0.148344427 -0.0211849175 0.057925608
v -0.0792593434 -0.0213107318 0.127998054
v -0.0733910948 0.00226672972 0.10509035
v -0.12527357 0.00505237607 0.101816654
v -0.135843799 -0.00997439213 0.112233147
v -0.0767865628 0.00285997475 0.150906175
v -0.0792593434 -0.0213107318 0.127998054
v -0.135843799 -0.00997439213 0.112233147
v -0.146414608 0.00505237281 0.122649632
v -0.0767865628 0.00285997475 0.150906175
v -0.146414608 0.00505237281 0.122649632
v -0.135843784 0.0265327729 0.11223314
v -0.0691271946 0.0366907604 0.127998054
v -0.12527357 0.00505237607 0.101816654
v -0.0733910948 0.00226672972 0.10509035
v -0.0691271946 0.0366907604 0.127998054
v -0.135843784 0.0265327729 0.11223314
vt 0.0467834473 0.0817260742
vt 0.0610961914 0.0790405273
vt 0.0715332031 0.0697631836
vt 0.756347656 0.231445312
vt 0.776367188 0.188354492
vt 0.788085938 0.231445312
vt 0.755371094 0.106445312
vt 0.785644531 0.106445312
vt 0.775390625 0.148681641
vt 0.0529785156 0.420166016
vt 0.0387268066 0.420166016
vt 0.0529785156 0.369384766
vt 0.11315918 0.210449219
vt 0.12878418 0.210449219
vt 0.11315918 0.285644531
vt 0.0387268066 0.285644531
vt 0.0529785156 0.285644531
vt 0.0387268066 0.369384766
vt 0.0387268066 0.285644531
vt 0.0387268066 0.210449219
vt 0.0529785156 0.285644531
vt 0.790039062 0.389404297
vt 0.756347656 0.404785156
vt 0.790039062 0.284667969
vt 0.165405273 0.141601562
vt 0.143432617 0.108459473
vt 0.18737793 0.108459473
vt 0.214111328 0.176879883
vt 0.186767578 0.430175781
vt 0.214111328 0.430175781
vt 0.186889648 0.430175781
vt 0.214111328 0.176879883
vt 0.214233398 0.430175781
vt 0.390869141 0.241210938
vt 0.36328125 0.241210938
vt 0.36328125 0.187133789
vt 0.283935547 0.241210938
vt 0.261474609 0.241210938
vt 0.283935547 0.187133789
vt 0.283935547 0.187133789
vt 0.260742188 0.132324219
vt 0.283935547 0.133056641
vt 0.283935547 0.187133789
vt 0.261474609 0.241210938
vt 0.260742188 0.132324219
vt 0.390869141 0.241210938
vt 0.36328125 0.187133789
vt 0.391113281 0.132324219
vt 0.391113281 0.132324219
vt 0.36328125 0.187133789
vt 0.36328125 0.133056641
vt 0.278564453 0.740234375
vt 0.217773438 0.740234375
vt 0.217773438 0.6796875
vt 0.756347656 0.404785156
vt 0.72265625 0.389404297
vt 0.72265625 0.284667969
vt 0.756347656 0.404785156
vt 0.72265625 0.284667969
vt 0.790039062 0.284667969
vt 0.214111328 0.176879883
vt 0.198608398 0.176879883
vt 0.186767578 0.430175781
vt 0.186889648 0.430175781
vt 0.198730469 0.176879883
vt 0.214111328 0.176879883
vt 0.0387268066 0.369384766
vt 0.0529785156 0.285644531
vt 0.0529785156 0.369384766
vt 0.0529785156 0.369384766
vt 0.0387268066 0.420166016
vt 0.0387268066 0.369384766
vt 0.0529785156 0.285644531
vt 0.0387268066 0.210449219
vt 0.0529785156 0.210449219
vt 0.11315918 0.420166016
vt 0.12878418 0.369384766
vt 0.12878418 0.420166016
vt 0.292724609 0.397216797
vt 0.292724609 0.472167969
vt 0.407714844 0.472167969
vt 0.407714844 0.397216797
vt 0.292724609 0.542480469
vt 0.292724609 0.614746094
vt 0.407714844 0.614746094
vt 0.407714844 0.542480469
vt 0.292724609 0.84375
vt 0.292724609 0.9140625
vt 0.407714844 0.9140625
vt 0.407714844 0.84375
vt 0.292724609 0.692871094
vt 0.292724609 0.770996094
vt 0.407714844 0.770996094
vt 0.407714844 0.692871094
vt 0.407714844 0.472167969
vt 0.292724609 0.472167969
vt 0.292724609 0.542480469
vt 0.407714844 0.542480469
vt 0.407714844 0.614746094
vt 0.292724609 0.614746094
vt 0.292724609 0.692871094
vt 0.407714844 0.692871094
vt 0.407714844 0.9140625
vt 0.292724609 0.9140625
vt 0.292724609 0.988769531
vt 0.407714844 0.988769531
vt 0.407714844 0.770996094
vt 0.292724609 0.770996094
vt 0.292724609 0.84375
vt 0.407714844 0.84375
vt 0.860839844 0.363769531
vt 0.962402344 0.363769531
vt 0.918945312 0.33984375
vt 0.860839844 0.456787109
vt 0.843261719 0.403564453
vt 0.962402344 0.456787109
vt 0.982421875 0.415771484
vt 0.906738281 0.479248047
vt 0.581054688 0.346923828
vt 0.55078125 0.33203125
vt 0.519042969 0.345458984
vt 0.517578125 0.40234375
vt 0.507324219 0.373779297
vt 0.579589844 0.403808594
vt 0.592773438 0.375976562
vt 0.548828125 0.417724609
vt 0.420166016 0.844238281
vt 0.420166016 0.914550781
vt 0.471191406 0.914550781
vt 0.471191406 0.844238281
vt 0.420166016 0.404785156
vt 0.420166016 0.480957031
vt 0.471191406 0.480957031
vt 0.471191406 0.404785156
vt 0.420166016 0.551269531
vt 0.420166016 0.624511719
vt 0.471191406 0.624511719
vt 0.471191406 0.551269531
vt 0.420166016 0.697753906
vt 0.420166016 0.770996094
vt 0.471191406 0.770996094
vt 0.471191406 0.697753906
vt 0.961425781 0.0482788086
vt 0.864257812 0.048248291
vt 0.915039062 0.0246582031
vt 0.961425781 0.142333984
vt 0.982910156 0.0972900391
vt 0.864257812 0.142333984
vt 0.842285156 0.0918579102
vt 0.909667969 0.164428711
vt 0.471191406 0.914550781
vt 0.420166016 0.914550781
vt 0.420166016 0.990722656
vt 0.471191406 0.990722656
vt 0.471191406 0.480957031
vt 0.420166016 0.480957031
vt 0.420166016 0.551269531
vt 0.471191406 0.551269531
vt 0.471191406 0.624511719
vt 0.420166016 0.624511719
vt 0.420166016 0.697753906
vt 0.471191406 0.697753906
vt 0.471191406 0.770996094
vt 0.420166016 0.770996094
vt 0.420166016 0.844238281
vt 0.471191406 0.844238281
vt 0.960449219 0.206420898
vt 0.869140625 0.206420898
vt 0.913574219 0.184692383
vt 0.960449219 0.294433594
vt 0.98046875 0.247924805
vt 0.869140625 0.294433594
vt 0.849609375 0.251464844
vt 0.916992188 0.314697266
vt 0.0425720215 0.596679688
vt 0.184326172 0.596191406
vt 0.112609863 0.629882812
vt 0.112609863 0.436279297
vt 0.045135498 0.467773438
vt 0.0150985718 0.53515625
vt 0.182128906 0.469238281
vt 0.208984375 0.53515625
vt 0.484130859 0.419189453
vt 0.545898438 0.429199219
vt 0.545898438 0.489257812
vt 0.484130859 0.489257812
vt 0.484130859 0.547363281
vt 0.545898438 0.547363281
vt 0.545898438 0.603515625
vt 0.484130859 0.603515625
vt 0.484130859 0.697753906
vt 0.545898438 0.697753906
vt 0.545898438 0.774414062
vt 0.484130859 0.774414062
vt 0.484130859 0.841796875
vt 0.545898438 0.841796875
vt 0.545898438 0.902832031
vt 0.484130859 0.902832031
vt 0.484130859 0.973144531
vt 0.545898438 0.964355469
vt 0.581542969 0.4140625
vt 0.801269531 0.4140625
vt 0.801269531 0.489257812
vt 0.581542969 0.489257812
vt 0.801269531 0.547363281
vt 0.581542969 0.547363281
vt 0.545898438 0.547363281
vt 0.545898438 0.489257812
vt 0.780761719 0.603515625
vt 0.801269531 0.610351562
vt 0.581542969 0.603515625
vt 0.545898438 0.603515625
vt 0.581542969 0.655273438
vt 0.779785156 0.655761719
vt 0.545898438 0.697753906
vt 0.581542969 0.697753906
vt 0.801269531 0.697753906
vt 0.801269531 0.652832031
vt 0.801269531 0.774414062
vt 0.581542969 0.774414062
vt 0.545898438 0.774414062
vt 0.801269531 0.841796875
vt 0.545898438 0.841796875
vt 0.581542969 0.841796875
vt 0.801269531 0.902832031
vt 0.581542969 0.902832031
vt 0.545898438 0.902832031
vt 0.801269531 0.983886719
vt 0.545898438 0.964355469
vt 0.581542969 0.983886719
vt 0.0741577148 0.054107666
vt 0.0467834473 0.0817260742
vt 0.0715332031 0.0697631836
vt 0.0673828125 0.0361938477
vt 0.0467834473 0.0271453857
vt 0.0256195068 0.0382385254
vt 0.0195770264 0.0539550781
vt 0.0266723633 0.0723266602
vt 0.776367188 0.188354492
vt 0.775390625 0.148681641
vt 0.815429688 0.138793945
vt 0.815429688 0.20703125
vt 0.805175781 0.0237884521
vt 0.805175781 0.0933837891
vt 0.481445312 0.0933837891
vt 0.481445312 0.0237884521
vt 0.462890625 0.188354492
vt 0.776367188 0.188354492
vt 0.756347656 0.231445312
vt 0.456542969 0.231445312
vt 0.462890625 0.188354492
vt 0.462890625 0.148681641
vt 0.775390625 0.148681641
vt 0.776367188 0.188354492
vt 0.462890625 0.148681641
vt 0.455566406 0.106445312
vt 0.755371094 0.106445312
vt 0.775390625 0.148681641
vt 0.418457031 0.133544922
vt 0.462890625 0.148681641
vt 0.462890625 0.188354492
vt 0.418212891 0.205688477
vt 0.581542969 0.489257812
vt 0.545898438 0.489257812
vt 0.545898438 0.429199219
vt 0.581542969 0.4140625
vt 0.203735352 0.932128906
vt 0.0293731689 0.932128906
vt 0.0293731689 0.895507812
vt 0.203735352 0.875488281
vt 0.203735352 0.979492188
vt 0.0293731689 0.970703125
vt 0.0293731689 0.932128906
vt 0.203735352 0.932128906
vt 0.203735352 0.932128906
vt 0.203735352 0.875488281
vt 0.0293731689 0.895507812
vt 0.0293731689 0.932128906
vt 0.203735352 0.979492188
vt 0.203735352 0.932128906
vt 0.0293731689 0.932128906
vt 0.0293731689 0.970703125
vt 0.217041016 0.908691406
vt 0.281005859 0.975097656
vt 0.217041016 0.975097656
vt 0.281005859 0.908691406
vt 0.203735352 0.745117188
vt 0.0213928223 0.729003906
vt 0.0214080811 0.692871094
vt 0.203735352 0.692382812
vt 0.203735352 0.692382812
vt 0.0214080811 0.692871094
vt 0.0214080811 0.65625
vt 0.203735352 0.639160156
vt 0.203735352 0.692382812
vt 0.203735352 0.639160156
vt 0.0214080811 0.65625
vt 0.0214080811 0.692871094
vt 0.203735352 0.692382812
vt 0.0214080811 0.692871094
vt 0.0213928223 0.729003906
vt 0.203735352 0.745117188
vt 0.284179688 0.752929688
vt 0.284179688 0.821289062
vt 0.215576172 0.752929688
vt 0.215576172 0.821289062
vt 0.203735352 0.809570312
vt 0.0250091553 0.809570312
vt 0.0250091553 0.771484375
vt 0.203735352 0.75390625
vt 0.203735352 0.75390625
vt 0.0250091553 0.771484375
vt 0.0250091553 0.809570312
vt 0.203735352 0.809570312
vt 0.203735352 0.863769531
vt 0.203735352 0.809570312
vt 0.0250091553 0.809570312
vt 0.0250091553 0.850585938
vt 0.203735352 0.809570312
vt 0.203735352 0.863769531
vt 0.0250091553 0.850585938
vt 0.0250091553 0.809570312
vt 0.283935547 0.897949219
vt 0.217163086 0.831054688
vt 0.283935547 0.831054688
vt 0.217163086 0.897949219
vt 0.11315918 0.369384766
vt 0.11315918 0.420166016
vt 0.0529785156 0.420166016
vt 0.0529785156 0.369384766
vt 0.11315918 0.420166016
vt 0.11315918 0.369384766
vt 0.12878418 0.369384766
vt 0.12878418 0.285644531
vt 0.0253448486 0.285644531
vt 0.0387268066 0.285644531
vt 0.0387268066 0.369384766
vt 0.0253448486 0.369384766
vt 0.0529785156 0.369384766
vt 0.0529785156 0.285644531
vt 0.11315918 0.285644531
vt 0.11315918 0.369384766
vt 0.11315918 0.285644531
vt 0.12878418 0.285644531
vt 0.11315918 0.369384766
vt 0.12878418 0.210449219
vt 0.0253448486 0.285644531
vt 0.0253448486 0.210449219
vt 0.0387268066 0.210449219
vt 0.0387268066 0.285644531
vt 0.0529785156 0.285644531
vt 0.0529785156 0.210449219
vt 0.11315918 0.210449219
vt 0.11315918 0.285644531
vt 0.0387268066 0.420166016
vt 0.0253448486 0.420166016
vt 0.0253448486 0.369384766
vt 0.0387268066 0.369384766
vt 0.709960938 0.390869141
vt 0.682128906 0.390869141
vt 0.682128906 0.276367188
vt 0.709960938 0.265136719
vt 0.684082031 0.246826172
vt 0.668945312 0.267333984
vt 0.800292969 0.391845703
vt 0.828125 0.277099609
vt 0.828125 0.391845703
vt 0.800292969 0.265380859
vt 0.828125 0.247436523
vt 0.842773438 0.268554688
vt 0.462158203 0.0622558594
vt 0.439941406 0.107421875
vt 0.28125 0.107421875
vt 0.28125 0.0171051025
vt 0.439941406 0.0170898438
vt 0.72265625 0.245849609
vt 0.790039062 0.245849609
vt 0.790039062 0.284667969
vt 0.72265625 0.284667969
vt 0.259521484 0.107421875
vt 0.259521484 0.0171051025
vt 0.28125 0.0171051025
vt 0.28125 0.107421875
vt 0.028793335 0.179443359
vt 0.028793335 0.145874023
vt 0.0542602539 0.145874023
vt 0.0542602539 0.179443359
vt 0.0542602539 0.145874023
vt 0.028793335 0.145874023
vt 0.028793335 0.111999512
vt 0.0542602539 0.111999512
vt 0.214233398 0.0178222656
vt 0.214111328 0.0875854492
vt 0.234619141 0.0880126953
vt 0.243896484 0.0176696777
vt 0.179321289 0.0178222656
vt 0.197143555 0.0875854492
vt 0.214111328 0.0875854492
vt 0.214233398 0.0178222656
vt 0.214233398 0.0178222656
vt 0.214111328 0.0875854492
vt 0.197143555 0.0875854492
vt 0.179443359 0.0178222656
vt 0.214111328 0.176879883
vt 0.232788086 0.176513672
vt 0.234619141 0.0880126953
vt 0.214111328 0.0875854492
vt 0.198608398 0.176879883
vt 0.214111328 0.176879883
vt 0.214111328 0.0875854492
vt 0.197143555 0.0875854492
vt 0.214111328 0.0875854492
vt 0.214111328 0.176879883
vt 0.198730469 0.176879883
vt 0.197143555 0.0875854492
vt 0.214111328 0.430175781
vt 0.186767578 0.430175781
vt 0.194335938 0.458984375
vt 0.214111328 0.458984375
vt 0.214111328 0.458984375
vt 0.239013672 0.458984375
vt 0.243164062 0.429931641
vt 0.214111328 0.430175781
vt 0.232788086 0.176513672
vt 0.214111328 0.176879883
vt 0.194335938 0.458984375
vt 0.186889648 0.430175781
vt 0.214233398 0.430175781
vt 0.214233398 0.458984375
vt 0.36328125 0.241210938
vt 0.283935547 0.241210938
vt 0.283935547 0.187133789
vt 0.36328125 0.187133789
vt 0.283935547 0.257080078
vt 0.283935547 0.241210938
vt 0.36328125 0.241210938
vt 0.36328125 0.257080078
vt 0.283935547 0.187133789
vt 0.283935547 0.133056641
vt 0.36328125 0.133056641
vt 0.36328125 0.187133789
vt 0.36328125 0.115783691
vt 0.36328125 0.133056641
vt 0.283935547 0.133056641
vt 0.283935547 0.115783691
vt 0.512695312 0.327880859
vt 0.673828125 0.327880859
vt 0.673828125 0.327880859
vt 0.512695312 0.327880859
vt 0.512695312 0.299560547
vt 0.673828125 0.277587891
vt 0.673828125 0.327880859
vt 0.512695312 0.327880859
vt 0.512695312 0.327880859
vt 0.673828125 0.327880859
vt 0.673828125 0.277587891
vt 0.512695312 0.299560547
vt 0.814941406 0.745117188
vt 0.98046875 0.745605469
vt 0.98046875 0.844726562
vt 0.814941406 0.844238281
vt 0.252197266 0.392822266
vt 0.252197266 0.260742188
vt 0.335693359 0.269287109
vt 0.366943359 0.325683594
vt 0.337158203 0.382324219
vt 0.98046875 0.513671875
vt 0.98046875 0.645507812
vt 0.814941406 0.645507812
vt 0.814941406 0.513671875
vt 0.221923828 0.667480469
vt 0.221923828 0.600585938
vt 0.276123047 0.600585938
vt 0.276123047 0.667480469
vt 0.814941406 0.745117188
vt 0.814941406 0.645507812
vt 0.98046875 0.645507812
vt 0.98046875 0.745605469
vt 0.814941406 0.9765625
vt 0.814941406 0.844238281
vt 0.98046875 0.844726562
vt 0.98046875 0.9765625
vt 0.502929688 0.248168945
vt 0.502929688 0.387939453
vt 0.415039062 0.256591797
vt 0.381347656 0.315917969
vt 0.412109375 0.375976562
vt 0.125244141 0.0912475586
vt 0.104980469 0.0912475586
vt 0.104980469 0.0170898438
vt 0.13659668 0.0170898438
vt 0.104980469 0.0912475586
vt 0.125244141 0.0912475586
vt 0.13659668 0.0170898438
vt 0.104980469 0.0170898438
vt 0.0766601562 0.0170898438
vt 0.087890625 0.0912475586
vt 0.104980469 0.0912475586
vt 0.104980469 0.0170898438
vt 0.104980469 0.0170898438
vt 0.104980469 0.0912475586
vt 0.087890625 0.0912475586
vt 0.0766601562 0.0170898438
vt 0.0793457031 0.175048828
vt 0.104980469 0.175048828
vt 0.104980469 0.0912475586
vt 0.087890625 0.0912475586
vt 0.104980469 0.175048828
vt 0.0793457031 0.175048828
vt 0.087890625 0.0912475586
vt 0.104980469 0.0912475586
vt 0.104980469 0.175048828
vt 0.104980469 0.0912475586
vt 0.125244141 0.0912475586
vt 0.137573242 0.175048828
vt 0.104980469 0.0912475586
vt 0.104980469 0.175048828
vt 0.137817383 0.175048828
vt 0.125244141 0.0912475586
vn 0.0129314922 0.0151636787 0.999801457
vn 0.0129225524 0.0151636796 0.999801576
vn 0.0129702296 0.0151636712 0.99980098
vn 0.841621041 -0.54006803 0.000572170131
vn 0.841621041 -0.54006803 0.000572170131
vn 0.841621041 -0.54006803 0.000572170131
vn -0.554895997 0.83189106 0.00691417092
vn -0.554895997 0.83189106 0.00691417092
vn -0.554928958 0.831869006 0.00691398839
vn 0.375078142 0.624367237 0.685187459
vn 0.375078142 0.624367237 0.685187459
vn 0.375078142 0.624367237 0.685187459
vn 0.0122071356 0.00820169598 -0.999891877
vn 0.0122071356 0.00820169598 -0.999891877
vn 0.0122071356 0.00820169598 -0.999891877
vn -0.0563624278 0.702385366 0.709561884
vn -0.0563629121 0.702391386 0.709555924
vn -0.0563624278 0.702385366 0.709561884
vn -0.516997516 0.468979061 0.716081142
vn -0.517062902 0.46895197 0.716051638
vn -0.517051399 0.468989164 0.716035664
vn -0.598449826 0.801112294 -0.00877406076
vn -0.598449886 0.801112235 -0.0087701492
vn -0.598465085 0.801100731 -0.00877393503
vn -8.52694939E-07 0.904961228 0.425493896
vn -0 0.904961228 0.425493896
vn -0 0.904961228 0.425493896
vn -0.881721854 0.152872369 -0.446314633
vn -0.881709158 0.152965382 -0.446307778
vn -0.881711543 0.152963892 -0.446303427
vn 0.881709158 0.152965248 -0.446307778
vn 0.881721854 0.152872264 -0.446314752
vn 0.881711543 0.152963787 -0.446303487
vn 0.189639926 0.392059058 0.900181353
vn 0.189639926 0.392059058 0.900181353
vn 0.189685866 0.392055482 0.900173128
vn 0.173470482 0.362485677 -0.915703118
vn 0.173470482 0.362485677 -0.915703118
vn 0.173467487 0.362527102 -0.915687263
vn 0.341035783 0.0139713902 -0.939946473
vn 0.341035783 0.0139594702 -0.939946592
vn 0.341035783 0.0139594702 -0.939946592
vn 0.113776691 0.071956858 -0.990897119
vn 0.113730006 0.0719098151 -0.990905881
vn 0.11377684 0.071939081 -0.99089843
vn 0.128127351 0.079823263 0.988540113
vn 0.128080949 0.0797763616 0.988550007
vn 0.128080726 0.0797970966 0.988548279
vn 0.38021493 0.0142032066 0.924789071
vn 0.38021487 0.0142091671 0.924789071
vn 0.38021487 0.0142091671 0.924789071
vn 0.622179627 -0.782874525 0
vn 0.622179627 -0.782874525 0
vn 0.622179627 -0.782874525 0
vn -0.598449886 0.801112235 0.00876982789
vn -0.598449767 0.801112235 0.00877411198
vn -0.598465085 0.801100731 0.00877398718
vn -0.600060999 0.799954236 -3.46305228E-07
vn -0.600080132 0.79993999 0
vn -0.600080132 0.79993999 0
vn -0.896800697 0.146999344 -0.417300671
vn -0.896800399 0.146999508 -0.417301118
vn -0.896865487 0.147057876 -0.417140663
vn 0.896865487 0.147057712 -0.417140543
vn 0.896800458 0.146999389 -0.417301029
vn 0.896800578 0.146999255 -0.417300701
vn -0.0536728017 0.715827048 0.696211874
vn -0.0536728017 0.715827048 0.696211874
vn -0.0536728017 0.715827048 0.696211874
vn 0.347373515 0.607060909 0.714708805
vn 0.347373515 0.607060909 0.714708805
vn 0.347373515 0.60706085 0.714708805
vn -0.513633788 0.467324466 0.719575047
vn -0.513633788 0.467324466 0.719575047
vn -0.513633788 0.467324466 0.719575047
vn 0.00731417676 -0.00903315935 -0.999932528
vn 0.00731417676 -0.00903316028 -0.999932528
vn 0.0073141763 -0.00903315935 -0.999932528
vn -0.419668525 -0.907677472 0
vn -0.419671953 -0.907675803 0
vn -0.419671953 -0.907675803 0
vn -0.419667929 -0.90767777 0
vn -0.932969868 0.35995245 -0.00119203981
vn -0.932967126 0.359959602 -0.0011920362
vn -0.932967126 0.359959602 -0.00114435318
vn -0.932969928 0.35995248 -0.00114435656
vn 0.915412068 -0.402517825 -0.000381501479
vn 0.915404975 -0.402534068 -0.000381498481
vn 0.915404975 -0.402534068 -0.000381498481
vn 0.915412068 -0.402517825 -0.000381501479
vn 0.419848025 0.907593191 -0.00152586598
vn 0.419846773 0.907593787 -0.0015258668
vn 0.419846773 0.907593787 -0.0015258668
vn 0.419848025 0.907593191 -0.00152586598
vn -0.931798995 -0.362972885 -0.00114438252
vn -0.931798995 -0.362972885 -0.00119206693
vn -0.93180728 -0.362951577 -0.00119201641
vn -0.93180728 -0.362951577 -0.00114433409
vn -0.409263372 0.91241467 -0.00171657093
vn -0.409263372 0.91241467 -0.00171657093
vn -0.409276217 0.912408888 -0.00171664997
vn -0.409276217 0.912408888 -0.00171664997
vn 0.432158917 -0.901797414 -0.000190754377
vn 0.432158917 -0.901797414 -0.000238438253
vn 0.432169199 -0.901792467 -0.000238436958
vn 0.432169199 -0.901792467 -0.00019075333
vn 0.919332266 0.393481821 -0.000381505903
vn 0.919332266 0.393481821 -0.000429189036
vn 0.919326603 0.393495053 -0.000429186417
vn 0.919326603 0.393495053 -0.000381503545
vn -0 0 1
vn -0 0 1
vn -0 0 1
vn -0 0 1
vn -0 0 1
vn -0 0 1
vn -0 0 1
vn -0 0 1
vn -0 0 -1
vn -0 0 -1
vn -0 0 -1
vn -0 0 -1
vn -0 -7.45041007E-07 -1
vn -0 0 -1
vn -0 -7.45041007E-07 -1
vn -0 0 -1
vn 0.905131519 -0.42486456 -0.0150680803
vn 0.905132592 -0.424862057 -0.015068098
vn 0.905130088 -0.424860865 -0.0152587891
vn 0.905128896 -0.424863368 -0.0152587714
vn -0.426939547 -0.904018641 -0.0217444953
vn -0.426968157 -0.90400511 -0.0217441712
vn -0.426968157 -0.90400511 -0.0217441712
vn -0.426939547 -0.904018641 -0.0217444953
vn -0.914388835 0.4044649 -0.0173569471
vn -0.914392173 0.40445739 -0.0173570104
vn -0.914389074 0.40445599 -0.0175476857
vn -0.914385796 0.4044635 -0.0175476205
vn 0.413809031 0.910155773 -0.0194543097
vn 0.413789302 0.910164773 -0.0194545053
vn 0.413789302 0.910164773 -0.0194545053
vn 0.413809031 0.910155773 -0.0194543097
vn -0 0 1
vn -0 0 1
vn -7.0147172E-07 0 1
vn -0 0 1
vn -0 7.45183115E-07 1
vn -0 0 1
vn -0 7.45183115E-07 1
vn -7.0147172E-07 0 1
vn 0.439553052 -0.897989094 -0.0202181265
vn 0.439551383 -0.897985637 -0.0204087831
vn 0.439571768 -0.897975624 -0.020408554
vn 0.439573467 -0.897979081 -0.0202178992
vn -0.910754979 -0.412557662 -0.0179289598
vn -0.910754979 -0.412557662 -0.0179289598
vn -0.910753071 -0.412562013 -0.0179289225
vn -0.910753071 -0.412562013 -0.0179289225
vn -0.41055122 0.911604881 -0.0205990672
vn -0.41055122 0.911604881 -0.0205990672
vn -0.410515279 0.911621034 -0.0205994323
vn -0.410515279 0.911621034 -0.0205994323
vn 0.909124315 0.41627267 -0.0144956764
vn 0.909124315 0.41627267 -0.0144956764
vn 0.909126282 0.416268349 -0.0144957062
vn 0.90912658 0.416267723 -0.0144957127
vn -0 0 -1
vn -0 0 -1
vn -0 0 -1
vn -0 0 -1
vn -0 7.45041007E-07 -1
vn -0 0 -1
vn -0 7.45041007E-07 -1
vn -0 0 -1
vn -0 0 -1
vn -0 0 -1
vn -0 0 -1
vn -0 0 -1
vn -0 0 -1
vn -0 -3.72520503E-07 -1
vn -0 0 -1
vn -0 0 -1
vn 0.00108477939 -0.965409577 0.260735959
vn -0.0052389768 -0.96534884 0.260910273
vn 0.651399791 -0.700370371 0.291820973
vn 0.714564502 -0.629398584 0.305376738
vn 0.944612443 -0.0143870814 0.327872485
vn 0.94421339 -0.0242712982 0.32843861
vn 0.724370122 0.618749619 0.304034173
vn 0.692782402 0.654016256 0.303834319
vn 0.00603207247 0.958065748 0.286485106
vn 0.000873250014 0.958142996 0.286288977
vn -0.668900073 0.680201054 0.299832076
vn -0.705198467 0.638965547 0.307275623
vn -0.939210892 -0.00209252676 0.343334645
vn -0.939238667 -0.00999826379 0.343119234
vn -0.674638748 -0.676689148 0.294880301
vn -0.68895185 -0.661342204 0.296600312
vn 0.00108477939 -0.965409577 0.260735959
vn -0.0052389768 -0.96534884 0.260910273
vn -0.162908733 -0.976355374 -0.142095074
vn -0.0356885158 -0.999360621 -0.00214577699
vn 0.716014445 -0.698085487 0
vn 0.778701127 -0.599320054 -0.185579926
vn 0.998683631 -0.0512926094 0.000190690422
vn 0.966890454 -0.0385634787 -0.25226137
vn 0.861598849 -0.0214342158 -0.50713706
vn 0.792746425 -0.331165344 -0.511744678
vn 0.889585793 0.45676145 -0.00247958745
vn 0.958664656 0.284538001 -0.000476894609
vn 0.789186716 0.55333668 -0.266463786
vn 0.673442066 0.51684761 -0.52853018
vn 0.460420817 0.846075654 -0.268642366
vn 0.412358224 0.911021709 -0.000381477934
vn -0.0162308272 0.856807232 -0.515381396
vn -0.0845877826 0.967848599 -0.236884028
vn -0.0874335766 0.996169388 -0.00138277002
vn 0.277420908 0.960721195 0.00724783493
vn -0.7301929 0.683223724 -0.00486378837
vn -0.714190304 0.652441442 -0.253480792
vn -0.607440293 0.612971604 -0.505254567
vn -0.999938488 0.0103668943 -0.00395774795
vn -0.823242068 0.022770023 -0.567233562
vn -0.959470689 0.00149906601 -0.281804562
vn -0.748871326 -0.662707031 -0.00333782122
vn -0.737814605 -0.620797873 -0.265027612
vn -0.582077801 -0.641301155 -0.499918371
vn -0.0356885158 -0.999360621 -0.00214577699
vn -0.407727748 -0.813726962 -0.414254069
vn -0.162908733 -0.976355374 -0.142095074
vn 0.0101092039 0.00980367977 0.999900818
vn -0 0 1
vn 0.010109202 0.00982305128 0.999900699
vn -0 0 1
vn -0 0 1
vn -0 0 1
vn -0 0 1
vn -0 0 1
vn 0.112055033 0.127313629 -0.985512435
vn 0.112055033 0.127313629 -0.985512435
vn 0.112055033 0.127313629 -0.985512435
vn 0.112055726 0.127266735 -0.985518456
vn -0.673707783 -0.735127389 0.0755346566
vn -0.673684239 -0.735149324 0.0755320117
vn -0.673679352 -0.735144019 0.0756268278
vn -0.673702955 -0.735122085 0.0756294876
vn 0.862263918 -0.50490272 -0.0396750495
vn 0.862267196 -0.504904687 -0.0395798273
vn 0.862246394 -0.504940212 -0.0395788699
vn 0.862243176 -0.504938304 -0.0396740958
vn 0.672320068 0.737740219 -0.061033342
vn 0.672320068 0.737740219 -0.061033342
vn 0.672324002 0.73774451 -0.0609383322
vn 0.672324002 0.73774451 -0.0609383322
vn -0.542834342 0.838570416 -0.0461580642
vn -0.542834342 0.838570416 -0.0461580642
vn -0.542835534 0.838572264 -0.0461104847
vn -0.542835534 0.838572264 -0.0461104847
vn 0.171840519 0.182330161 0.968104601
vn 0.171840519 0.182330161 0.968104601
vn 0.171840519 0.182330161 0.968104601
vn 0.171840519 0.182330161 0.968104601
vn 0.355093598 -0.828774452 -0.432482898
vn 0.355108261 -0.828808606 -0.432405323
vn 0.355111897 -0.828797221 -0.432424277
vn 0.355097264 -0.828763008 -0.432501823
vn -0.649259925 0.75826484 -0.0591276474
vn -0.649238825 0.758267939 -0.0593186282
vn -0.649243951 0.758263528 -0.059318278
vn -0.649251342 0.758272052 -0.0591282174
vn -0.750887871 -0.659143388 -0.041198682
vn -0.750887513 -0.659143806 -0.0411986969
vn -0.7508986 -0.659131289 -0.0411986485
vn -0.750888228 -0.659143031 -0.0411993898
vn 0.665099323 0.743730605 -0.0671393946
vn 0.665135384 0.743698239 -0.0671407729
vn 0.66512686 0.743688703 -0.067330651
vn 0.665104032 0.743709266 -0.0673281997
vn 0.759981573 -0.647961438 -0.0507352613
vn 0.75997591 -0.647968054 -0.0507350378
vn 0.75997591 -0.647968054 -0.0507350378
vn 0.759982407 -0.647960424 -0.0507353693
vn -0 0 1
vn -0 0 1
vn -0 3.72591558E-07 1
vn -0 0 1
vn 0.751369536 0.65576148 -0.0736253783
vn 0.751359046 0.655752242 -0.0738150775
vn 0.751359046 0.655752242 -0.0738150775
vn 0.751390338 0.655737996 -0.0736227408
vn 0.724899054 -0.683342159 -0.086976476
vn 0.724886954 -0.683330774 -0.0871657655
vn 0.724898815 -0.683318079 -0.0871671811
vn 0.724910855 -0.683329463 -0.0869778916
vn -0.664517999 -0.746198058 -0.0400540605
vn -0.664540768 -0.746177673 -0.0400555208
vn -0.664517045 -0.746198773 -0.040054094
vn -0.664517045 -0.746198773 -0.040054094
vn -0.688279092 0.725035071 -0.0244141687
vn -0.688274503 0.725032926 -0.0246048346
vn -0.688271403 0.725035906 -0.0246049389
vn -0.688274622 0.725039303 -0.0244143158
vn -0 0 1
vn -0 0 1
vn -3.28880162E-07 0 1
vn -0 0 1
vn 0.673017681 -0.739626229 0.000381442485
vn 0.673017681 -0.739626229 0.000381442485
vn 0.673014402 -0.739629269 0.000381443999
vn 0.67299068 -0.739650905 0.000381430553
vn -0.685691178 -0.72317034 -0.082778804
vn -0.685691178 -0.72317034 -0.082778804
vn -0.68570292 -0.723158956 -0.082780242
vn -0.68570292 -0.723158956 -0.082780242
vn -0.731096148 0.674161196 -0.104905501
vn -0.731096148 0.674161196 -0.104905501
vn -0.731096148 0.674161196 -0.104905501
vn -0.731090307 0.674167633 -0.104904652
vn 0.718153059 0.695682764 -0.0167847294
vn 0.718159199 0.695676446 -0.0167845767
vn 0.718155503 0.695684791 -0.016593758
vn 0.718154967 0.695685327 -0.016594056
vn -0 0 1
vn -0 0 1
vn -0 0 1
vn -0 0 1
vn 0.515783429 0.856475949 -0.0204082001
vn 0.51580441 0.856463194 -0.0204090346
vn 0.51580435 0.856463015 -0.020420948
vn 0.515818238 0.856454611 -0.0204196144
vn 0.00758152548 -0.00543584209 -0.999956489
vn 0.00762920547 -0.00543584069 -0.999956131
vn 0.00758152548 -0.00543584209 -0.999956489
vn 0.0187066421 -0.00766518014 -0.999795616
vn 0.0393873155 -0.703535616 0.709567726
vn 0.0393873155 -0.703535616 0.709567726
vn 0.0393873155 -0.703535616 0.709567726
vn 0.0393873155 -0.703535616 0.709567726
vn -0.0509259664 0.997730076 -0.0440595709
vn -0.0509259664 0.997730076 -0.0440595709
vn -0.0509259664 0.997730076 -0.0440595709
vn -0.0509259664 0.997730076 -0.0440595709
vn 0.0166889373 -0.000190731967 -0.999860764
vn 0.0166889355 -0.000238414737 -0.999860644
vn 0.0166889373 -0.000190731967 -0.999860764
vn 0.0165332761 0.00581428548 -0.999846458
vn 0.50276196 -0.481448054 0.717940211
vn 0.502767742 -0.481429726 0.717948496
vn 0.502772033 -0.481433809 0.717942655
vn 0.502766311 -0.481452137 0.71793443
vn -0.728454828 0.682485461 -0.0597269684
vn -0.728431165 0.682510912 -0.0597250275
vn -0.728441894 0.682497144 -0.0597497523
vn -0.728498578 0.682436943 -0.0597465783
vn -0.358103663 -0.634382308 0.685069919
vn -0.358100742 -0.634377122 0.685076296
vn -0.358100742 -0.634377122 0.685076296
vn -0.358103663 -0.634382308 0.685069919
vn -0 0 1
vn -0 0 1
vn -0 0 1
vn -0 0 1
vn -0 0 1
vn -0 0 1
vn -0 0 -1
vn -0 0 -1
vn -0 0 -1
vn -0 0 -1
vn -0 0 -1
vn -0 0 -1
vn 0.622226059 -0.78283757 3.45360007E-07
vn 0.622226059 -0.78283757 0
vn 0.62219429 -0.782862902 0
vn 0.62219429 -0.782862902 0
vn 0.622226059 -0.78283757 0
vn -0.997428477 -0.0716689005 0
vn -0.997428477 -0.0716689005 0
vn -0.997425079 -0.0717163309 0
vn -0.997425079 -0.0717163309 0
vn 0.998490095 0.0549312197 0
vn 0.998490095 0.0549312197 0
vn 0.998490095 0.0549312197 0
vn 0.998490095 0.0549312197 0
vn 0.724506795 0.529861629 0.440836161
vn 0.724503636 0.529859304 0.440844268
vn 0.724503517 0.529859304 0.440844417
vn 0.724506795 0.529861629 0.440836161
vn 0.724503517 0.529859364 -0.440844506
vn 0.724503458 0.529859245 -0.440844595
vn 0.724506736 0.529861629 -0.440836221
vn 0.724506736 0.529861629 -0.440836221
vn -0 0.999985814 -0.00534056919
vn -0 0.999985814 -0.00534056919
vn -0 0.999985814 -0.00534056919
vn -0 0.999985814 -0.00534056919
vn -0.831381142 -0.543304622 -0.116728932
vn -0.831381023 -0.543304563 -0.116728924
vn -0.831379294 -0.543307543 -0.116728276
vn -0.831379294 -0.543307543 -0.116728276
vn 0.831379235 -0.543307602 -0.116728336
vn 0.831379235 -0.543307602 -0.116728336
vn 0.831380963 -0.543304682 -0.116728991
vn 0.831380963 -0.543304741 -0.116729006
vn -0 0.47502932 0.879970014
vn -0 0.47502932 0.879970014
vn -0 0.475109041 0.87992692
vn -0 0.475109041 0.87992692
vn -0.847208858 -0.261614591 -0.462379694
vn -0.84720844 -0.261614859 -0.46238029
vn -0.847129703 -0.261608452 -0.462527961
vn -0.847128868 -0.261613697 -0.462526798
vn 0.847129703 -0.261608571 -0.462528139
vn 0.847208321 -0.261614949 -0.46238032
vn 0.847208858 -0.261614591 -0.462379694
vn 0.847128749 -0.261613727 -0.462526739
vn -0.876588404 0.33208552 -0.348298699
vn -0.87659049 0.332082957 -0.348295987
vn -0.87659049 0.332082957 -0.348295987
vn -0.876591146 0.332082033 -0.348295093
vn -0 -0.410293281 0.911953628
vn -0 -0.410293281 0.911953628
vn -0 -0.410293281 0.911953628
vn -0 -0.410293281 0.911953628
vn -0 -0.41694361 0.908932388
vn -0 -0.41694361 0.908932388
vn 0.87659049 0.332082868 -0.348296046
vn 0.87659049 0.332082868 -0.348296046
vn 0.876588404 0.33208546 -0.348298788
vn 0.876591146 0.332082003 -0.348295152
vn 0.430734724 0.902478099 -0.000953710056
vn 0.430734724 0.902478099 -0.000953710056
vn 0.430695862 0.902496636 -0.000953729788
vn 0.430695862 0.902496636 -0.000953729788
vn -0.455624282 0.890172184 9.5388692E-05
vn -0.455624282 0.890172184 9.5388692E-05
vn -0.455624282 0.890172184 4.77042995E-05
vn -0.455624282 0.890172184 4.77042995E-05
vn 0.999318719 0.0369058028 -9.54076168E-05
vn 0.999317884 0.0369296074 -9.54075513E-05
vn 0.999317884 0.0369296074 -0.000143089477
vn 0.999318719 0.0369058028 -0.000143089594
vn 0.484565914 -0.874754667 -0.000190757652
vn 0.484566629 -0.87475431 -0.000190757899
vn 0.484566629 -0.87475431 -0.000190757899
vn 0.484565377 -0.874755085 -0.000190757419
vn -0.787999809 -0.615675449 0
vn -0.788059115 -0.615599573 0
vn -0.788059115 -0.615599573 0
vn -0.787999809 -0.615675449 0
vn 0.408359677 0.413318664 0.813885808
vn 0.408359945 0.413318872 0.81388557
vn 0.408360898 0.413319856 0.813884556
vn 0.408360898 0.413319856 0.813884556
vn 0.408356875 0.413315922 -0.813888609
vn 0.408360809 0.413319916 -0.813884556
vn 0.408358365 0.413317442 -0.81388706
vn 0.408358365 0.413317442 -0.81388706
vn -0.902477622 0.430736691 0
vn -0.902477622 0.430736691 0
vn -0.902477622 0.430736691 0
vn -0.902477622 0.430736691 0
vn -0 0 1
vn -0 0 1
vn -0 0 1
vn -0 0 1
vn -0 0 1
vn -0.0640881956 -0.997944176 0
vn -0.0640881956 -0.997944176 0
vn -0.0640881956 -0.997944176 0
vn -0.0640881956 -0.997944176 0
vn 0.998731315 0.0503561608 0
vn 0.998731315 0.0503561608 0
vn 0.998731315 0.0503561608 0
vn 0.998731315 0.0503561608 0
vn -0.854155302 -0.520017982 0
vn -0.854134083 -0.52005285 0
vn -0.854134083 -0.52005285 0
vn -0.854155302 -0.520017982 0
vn -0.161838934 0.986817181 0
vn -0.161746055 0.98683238 0
vn -0.161746055 0.98683238 0
vn -0.161838934 0.986817181 0
vn -0 0 -1
vn -0 0 -1
vn -0 0 -1
vn -0 0 -1
vn -0 0 -1
vn -0.801167369 0.530901015 0.276179165
vn -0.801167369 0.530901015 0.276179165
vn -0.801133215 0.530941665 0.276200265
vn -0.801167369 0.530901015 0.276179165
vn 0.849169374 0.521921039 -0.0806825683
vn 0.849174678 0.521912396 -0.0806830749
vn 0.849177957 0.521914363 -0.0806356966
vn 0.849172711 0.521923125 -0.0806351975
vn 0.759574831 -0.650335312 -0.0104900813
vn 0.759574831 -0.650335312 -0.0104900813
vn 0.759576321 -0.650333583 -0.0104900999
vn 0.759575546 -0.650334418 -0.0104900915
vn -0.687362731 -0.665744007 0.290374547
vn -0.687313139 -0.665786862 0.290393889
vn -0.68731451 -0.665785193 0.290394455
vn -0.68731451 -0.665785193 0.290394455
vn 0.0446799919 -0.663620412 -0.746733904
vn 0.0446797758 -0.663624644 -0.746730268
vn 0.04463223 -0.66362524 -0.746732593
vn 0.0446320549 -0.663628519 -0.746729672
vn -0.311040103 -0.652076066 0.691412091
vn -0.311040699 -0.652074397 0.691413462
vn -0.311083764 -0.652064741 0.69140321
vn -0.311083138 -0.652066469 0.691401839
vn -0.283717126 0.561736226 0.777146697
vn -0.283717126 0.561736226 0.777146697
vn -0.283717126 0.561736226 0.777146697
vn -0.283717126 0.561736226 0.777146697
vn 0.104144216 0.517895818 -0.849080682
vn 0.104096964 0.517899454 -0.849084198
vn 0.104096413 0.517907143 -0.849079669
vn 0.104143567 0.51790452 -0.849075437
g jianglidaoju_jiatelin_lod1_0
f 3/3/3 2/2/2 1/1/1
f 6/6/6 5/5/5 4/4/4
f 9/9/9 8/8/8 7/7/7
f 12/12/12 11/11/11 10/10/10
f 15/15/15 14/14/14 13/13/13
f 18/18/18 17/17/17 16/16/16
f 21/21/21 20/20/20 19/19/19
f 24/24/24 23/23/23 22/22/22
f 27/27/27 26/26/26 25/25/25
f 30/30/30 29/29/29 28/28/28
f 33/33/33 32/32/32 31/31/31
f 36/36/36 35/35/35 34/34/34
f 39/39/39 38/38/38 37/37/37
f 42/42/42 41/41/41 40/40/40
f 45/45/45 44/44/44 43/43/43
f 48/48/48 47/47/47 46/46/46
f 51/51/51 50/50/50 49/49/49
f 54/54/54 53/53/53 52/52/52
f 57/57/57 56/56/56 55/55/55
f 60/60/60 59/59/59 58/58/58
f 63/63/63 62/62/62 61/61/61
f 66/66/66 65/65/65 64/64/64
f 69/69/69 68/68/68 67/67/67
f 72/72/72 71/71/71 70/70/70
f 75/75/75 74/74/74 73/73/73
f 78/78/78 77/77/77 76/76/76
f 81/81/81 80/80/80 79/79/79
f 82/82/82 81/81/81 79/79/79
f 85/85/85 84/84/84 83/83/83
f 86/86/86 85/85/85 83/83/83
f 89/89/89 88/88/88 87/87/87
f 90/90/90 89/89/89 87/87/87
f 93/93/93 92/92/92 91/91/91
f 94/94/94 93/93/93 91/91/91
f 97/97/97 96/96/96 95/95/95
f 98/98/98 97/97/97 95/95/95
f 101/101/101 100/100/100 99/99/99
f 102/102/102 101/101/101 99/99/99
f 105/105/105 104/104/104 103/103/103
f 106/106/106 105/105/105 103/103/103
f 109/109/109 108/108/108 107/107/107
f 110/110/110 109/109/109 107/107/107
f 113/113/113 112/112/112 111/111/111
f 114/114/114 111/111/111 112/112/112
f 115/115/115 111/111/111 114/114/114
f 116/116/116 114/114/114 112/112/112
f 117/117/117 116/116/116 112/112/112
f 118/118/118 114/114/114 116/116/116
f 121/121/121 120/120/120 119/119/119
f 122/122/122 121/121/121 119/119/119
f 122/122/122 123/123/123 121/121/121
f 124/124/124 122/122/122 119/119/119
f 119/119/119 125/125/125 124/124/124
f 124/124/124 126/126/126 122/122/122
f 129/129/129 128/128/128 127/127/127
f 130/130/130 129/129/129 127/127/127
f 133/133/133 132/132/132 131/131/131
f 134/134/134 133/133/133 131/131/131
f 137/137/137 136/136/136 135/135/135
f 138/138/138 137/137/137 135/135/135
f 141/141/141 140/140/140 139/139/139
f 142/142/142 141/141/141 139/139/139
f 145/145/145 144/144/144 143/143/143
f 146/146/146 143/143/143 144/144/144
f 147/147/147 143/143/143 146/146/146
f 148/148/148 146/146/146 144/144/144
f 149/149/149 148/148/148 144/144/144
f 150/150/150 146/146/146 148/148/148
f 153/153/153 152/152/152 151/151/151
f 154/154/154 153/153/153 151/151/151
f 157/157/157 156/156/156 155/155/155
f 158/158/158 157/157/157 155/155/155
f 161/161/161 160/160/160 159/159/159
f 162/162/162 161/161/161 159/159/159
f 165/165/165 164/164/164 163/163/163
f 166/166/166 165/165/165 163/163/163
f 169/169/169 168/168/168 167/167/167
f 170/170/170 167/167/167 168/168/168
f 171/171/171 167/167/167 170/170/170
f 172/172/172 170/170/170 168/168/168
f 173/173/173 172/172/172 168/168/168
f 174/174/174 170/170/170 172/172/172
f 177/177/177 176/176/176 175/175/175
f 176/176/176 178/178/178 175/175/175
f 178/178/178 179/179/179 175/175/175
f 179/179/179 180/180/180 175/175/175
f 178/178/178 176/176/176 181/181/181
f 176/176/176 182/182/182 181/181/181
f 185/185/185 184/184/184 183/183/183
f 186/186/186 185/185/185 183/183/183
f 186/186/186 187/187/187 185/185/185
f 187/187/187 188/188/188 185/185/185
f 189/189/189 188/188/188 187/187/187
f 190/190/190 189/189/189 187/187/187
f 189/189/189 190/190/190 191/191/191
f 192/192/192 189/189/189 191/191/191
f 193/193/193 192/192/192 191/191/191
f 194/194/194 193/193/193 191/191/191
f 194/194/194 195/195/195 193/193/193
f 195/195/195 196/196/196 193/193/193
f 197/197/197 196/196/196 195/195/195
f 198/198/198 197/197/197 195/195/195
f 197/197/197 198/198/198 199/199/199
f 200/200/200 197/197/197 199/199/199
f 203/203/203 202/202/202 201/201/201
f 204/204/204 203/203/203 201/201/201
f 205/205/205 203/203/203 204/204/204
f 206/206/206 205/205/205 204/204/204
f 207/207/207 206/206/206 204/204/204
f 208/208/208 207/207/207 204/204/204
f 209/209/209 205/205/205 206/206/206
f 210/210/210 205/205/205 209/209/209
f 206/206/206 207/207/207 211/211/211
f 206/206/206 211/211/211 209/209/209
f 207/207/207 212/212/212 211/211/211
f 209/209/209 211/211/211 213/213/213
f 211/211/211 212/212/212 213/213/213
f 214/214/214 209/209/209 213/213/213
f 212/212/212 215/215/215 213/213/213
f 213/213/213 216/216/216 214/214/214
f 213/213/213 215/215/215 216/216/216
f 216/216/216 217/217/217 214/214/214
f 218/218/218 214/214/214 217/217/217
f 217/217/217 216/216/216 219/219/219
f 216/216/216 215/215/215 220/220/220
f 216/216/216 220/220/220 219/219/219
f 215/215/215 221/221/221 220/220/220
f 222/222/222 219/219/219 220/220/220
f 221/221/221 223/223/223 220/220/220
f 224/224/224 222/222/222 220/220/220
f 223/223/223 224/224/224 220/220/220
f 222/222/222 224/224/224 225/225/225
f 224/224/224 223/223/223 226/226/226
f 224/224/224 226/226/226 225/225/225
f 223/223/223 227/227/227 226/226/226
f 228/228/228 225/225/225 226/226/226
f 226/226/226 227/227/227 229/229/229
f 230/230/230 228/228/228 226/226/226
f 230/230/230 226/226/226 229/229/229
f 233/233/233 232/232/232 231/231/231
f 231/231/231 232/232/232 234/234/234
f 234/234/234 232/232/232 235/235/235
f 235/235/235 232/232/232 236/236/236
f 237/237/237 236/236/236 232/232/232
f 237/237/237 232/232/232 238/238/238
f 241/241/241 240/240/240 239/239/239
f 242/242/242 241/241/241 239/239/239
f 245/245/245 244/244/244 243/243/243
f 246/246/246 245/245/245 243/243/243
f 249/249/249 248/248/248 247/247/247
f 250/250/250 249/249/249 247/247/247
f 253/253/253 252/252/252 251/251/251
f 254/254/254 253/253/253 251/251/251
f 257/257/257 256/256/256 255/255/255
f 258/258/258 257/257/257 255/255/255
f 261/261/261 260/260/260 259/259/259
f 262/262/262 261/261/261 259/259/259
f 265/265/265 264/264/264 263/263/263
f 266/266/266 265/265/265 263/263/263
f 269/269/269 268/268/268 267/267/267
f 270/270/270 269/269/269 267/267/267
f 273/273/273 272/272/272 271/271/271
f 274/274/274 273/273/273 271/271/271
f 277/277/277 276/276/276 275/275/275
f 278/278/278 277/277/277 275/275/275
f 281/281/281 280/280/280 279/279/279
f 282/282/282 281/281/281 279/279/279
f 285/285/285 284/284/284 283/283/283
f 286/286/286 283/283/283 284/284/284
f 289/289/289 288/288/288 287/287/287
f 290/290/290 289/289/289 287/287/287
f 293/293/293 292/292/292 291/291/291
f 294/294/294 293/293/293 291/291/291
f 297/297/297 296/296/296 295/295/295
f 298/298/298 297/297/297 295/295/295
f 301/301/301 300/300/300 299/299/299
f 302/302/302 301/301/301 299/299/299
f 305/305/305 304/304/304 303/303/303
f 306/306/306 304/304/304 305/305/305
f 309/309/309 308/308/308 307/307/307
f 310/310/310 309/309/309 307/307/307
f 313/313/313 312/312/312 311/311/311
f 314/314/314 313/313/313 311/311/311
f 317/317/317 316/316/316 315/315/315
f 318/318/318 317/317/317 315/315/315
f 321/321/321 320/320/320 319/319/319
f 322/322/322 321/321/321 319/319/319
f 325/325/325 324/324/324 323/323/323
f 326/326/326 323/323/323 324/324/324
f 329/329/329 328/328/328 327/327/327
f 330/330/330 329/329/329 327/327/327
f 333/333/333 332/332/332 331/331/331
f 333/333/333 334/334/334 332/332/332
f 337/337/337 336/336/336 335/335/335
f 338/338/338 337/337/337 335/335/335
f 341/341/341 340/340/340 339/339/339
f 342/342/342 341/341/341 339/339/339
f 345/345/345 344/344/344 343/343/343
f 344/344/344 346/346/346 343/343/343
f 349/349/349 348/348/348 347/347/347
f 350/350/350 349/349/349 347/347/347
f 353/353/353 352/352/352 351/351/351
f 354/354/354 353/353/353 351/351/351
f 357/357/357 356/356/356 355/355/355
f 358/358/358 357/357/357 355/355/355
f 361/361/361 360/360/360 359/359/359
f 362/362/362 361/361/361 359/359/359
f 361/361/361 362/362/362 363/363/363
f 364/364/364 361/361/361 363/363/363
f 367/367/367 366/366/366 365/365/365
f 366/366/366 368/368/368 365/365/365
f 368/368/368 366/366/366 369/369/369
f 366/366/366 370/370/370 369/369/369
f 373/373/373 372/372/372 371/371/371
f 371/371/371 374/374/374 373/373/373
f 371/371/371 375/375/375 374/374/374
f 378/378/378 377/377/377 376/376/376
f 379/379/379 378/378/378 376/376/376
f 382/382/382 381/381/381 380/380/380
f 383/383/383 382/382/382 380/380/380
f 386/386/386 385/385/385 384/384/384
f 387/387/387 386/386/386 384/384/384
f 390/390/390 389/389/389 388/388/388
f 391/391/391 390/390/390 388/388/388
f 394/394/394 393/393/393 392/392/392
f 395/395/395 394/394/394 392/392/392
f 398/398/398 397/397/397 396/396/396
f 399/399/399 398/398/398 396/396/396
f 402/402/402 401/401/401 400/400/400
f 403/403/403 402/402/402 400/400/400
f 406/406/406 405/405/405 404/404/404
f 407/407/407 406/406/406 404/404/404
f 410/410/410 409/409/409 408/408/408
f 411/411/411 410/410/410 408/408/408
f 414/414/414 413/413/413 412/412/412
f 415/415/415 414/414/414 412/412/412
f 418/418/418 417/417/417 416/416/416
f 419/419/419 418/418/418 416/416/416
f 422/422/422 421/421/421 420/420/420
f 423/423/423 422/422/422 420/420/420
f 424/424/424 422/422/422 423/423/423
f 425/425/425 424/424/424 423/423/423
f 428/428/428 427/427/427 426/426/426
f 429/429/429 428/428/428 426/426/426
f 432/432/432 431/431/431 430/430/430
f 433/433/433 432/432/432 430/430/430
f 436/436/436 435/435/435 434/434/434
f 437/437/437 436/436/436 434/434/434
f 440/440/440 439/439/439 438/438/438
f 441/441/441 440/440/440 438/438/438
f 444/444/444 443/443/443 442/442/442
f 445/445/445 444/444/444 442/442/442
f 448/448/448 447/447/447 446/446/446
f 449/449/449 448/448/448 446/446/446
f 452/452/452 451/451/451 450/450/450
f 453/453/453 452/452/452 450/450/450
f 456/456/456 455/455/455 454/454/454
f 457/457/457 456/456/456 454/454/454
f 460/460/460 459/459/459 458/458/458
f 461/461/461 460/460/460 458/458/458
f 464/464/464 463/463/463 462/462/462
f 465/465/465 464/464/464 462/462/462
f 466/466/466 465/465/465 462/462/462
f 469/469/469 468/468/468 467/467/467
f 470/470/470 469/469/469 467/467/467
f 473/473/473 472/472/472 471/471/471
f 474/474/474 473/473/473 471/471/471
f 477/477/477 476/476/476 475/475/475
f 478/478/478 477/477/477 475/475/475
f 481/481/481 480/480/480 479/479/479
f 482/482/482 481/481/481 479/479/479
f 485/485/485 484/484/484 483/483/483
f 486/486/486 484/484/484 485/485/485
f 487/487/487 484/484/484 486/486/486
f 490/490/490 489/489/489 488/488/488
f 491/491/491 490/490/490 488/488/488
f 494/494/494 493/493/493 492/492/492
f 495/495/495 494/494/494 492/492/492
f 498/498/498 497/497/497 496/496/496
f 499/499/499 498/498/498 496/496/496
f 502/502/502 501/501/501 500/500/500
f 503/503/503 502/502/502 500/500/500
f 506/506/506 505/505/505 504/504/504
f 507/507/507 506/506/506 504/504/504
f 510/510/510 509/509/509 508/508/508
f 511/511/511 510/510/510 508/508/508
f 514/514/514 513/513/513 512/512/512
f 515/515/515 514/514/514 512/512/512
f 518/518/518 517/517/517 516/516/516
f 519/519/519 518/518/518 516/516/516
