g shadow
v -1.83898187 -7.69369132E-16 0.725717008
v -1.83898187 7.69369132E-16 -4.09771252
v -1.10338914 7.69369132E-16 -4.09771252
v -0.367796361 7.69369132E-16 -4.09771252
v 0.367796481 7.69369132E-16 -4.09771252
v 1.10338914 7.69369132E-16 -4.09771252
v 1.83898187 7.69369132E-16 -4.09771252
v 1.83898187 -7.69369132E-16 0.725717008
vt 0.123098552 0.00571632385
vt 0.123098552 0.994283676
vt 0.273859084 0.994283676
vt 0.424619675 0.994283676
vt 0.575380206 0.994283676
vt 0.726140797 0.994283676
vt 0.876901329 0.994283676
vt 0.876901329 0.00571632385
vn -0 1 0
vn -0 1 0
vn -0 1 0
vn -0 1 0
vn -0 1 0
vn -0 1 0
vn -0 1 0
vn -0 1 0
g shadow_0
f 3/3/3 2/2/2 1/1/1
f 1/1/1 4/4/4 3/3/3
f 1/1/1 5/5/5 4/4/4
f 1/1/1 6/6/6 5/5/5
f 1/1/1 7/7/7 6/6/6
f 1/1/1 8/8/8 7/7/7
