g Sphere002
v 1.45339968E-07 0 0.493971527
v -0.037387494 0.145614952 0.485728234
v 1.45339968E-07 0.150338247 0.485728353
v -0.072425954 0.282080442 0.457444459
v 4.84466547E-08 0.291229993 0.457444549
v -0.102913484 0.400821835 0.400974125
v -9.68933094E-08 0.4138228 0.400974154
v -0.126934692 0.49437806 0.309703946
v 4.84466547E-08 0.510413706 0.309703857
v -0.142980024 0.556870818 0.184802398
v 4.84466547E-08 0.57493329 0.184802398
v -0.150041416 0.584372878 0.0379581451
v -0 0.603327513 0.0379581451
v -0.290655375 0.528699815 0.0379581451
v -0.276976138 0.503817677 0.184802428
v -0.413006216 0.439806879 0.0379581451
v -0.245893613 0.447278798 0.309703916
v -0.393568933 0.419108123 0.184802428
v -0.509406388 0.323278993 0.0379581451
v -0.199360624 0.362635702 0.400974125
v -0.34940213 0.372075349 0.309703887
v -0.485432178 0.308064729 0.184802443
v -0.573798716 0.186438188 0.0379581451
v -0.140301034 0.255206794 0.457444519
v -0.283281267 0.301663756 0.400974154
v -0.430956542 0.273492992 0.309703946
v -0.546794057 0.177664101 0.184802473
v -0.602137148 0.0378829092 0.0379581451
v -0.0724260062 0.131742388 0.485728234
v 1.45339968E-07 0 0.493971527
v -0.199360728 0.212297305 0.457444519
v -0.349402219 0.221736953 0.400974095
v -0.485432178 0.157726422 0.309703946
v -0.573798656 0.0361003168 0.184802517
v -0.592640877 -0.113052785 0.0379581451
v -0.102913342 0.109591663 0.485728353
v 1.45339968E-07 0 0.493971527
v -0.245893538 0.156048998 0.457444608
v -0.393568963 0.127877951 0.400974065
v -0.509406388 0.0320491083 0.309704006
v -0.56474936 -0.107732087 0.184802338
v -0.545906961 -0.256884754 0.0379581451
v -0.126934648 0.0805551559 0.485728234
v 1.45339968E-07 0 0.493971527
v -0.276976198 0.0899948478 0.4574444
v -0.413006186 0.0259841699 0.400974154
v -0.501372576 -0.0956421271 0.309703916
v -0.520214856 -0.244795039 0.184802443
v -0.464871526 -0.384575814 0.0379581451
v -0.142980024 0.0464568548 0.485728145
v 1.45339968E-07 0 0.493971527
v -0.290655255 0.0182862375 0.457444519
v -0.40649277 -0.0775429383 0.400974095
v -0.461835802 -0.217323795 0.309703916
v -0.442993313 -0.366476476 0.184802398
v -0.354626745 -0.488102525 0.0379581451
v -0.150041416 0.00943968538 0.485728204
v 1.45339968E-07 0 0.493971527
v -0.28607136 -0.0545712337 0.457444608
v -0.374437988 -0.176197574 0.400974095
v -0.393280059 -0.325350046 0.309703916
v -0.337936938 -0.465130895 0.184802398
v -0.222099185 -0.560959935 0.0379581451
v -0.147675186 -0.0281706154 0.485728353
v 1.45339968E-07 0 0.493971527
v -0.263512582 -0.123999842 0.457444549
v -0.318855643 -0.263780832 0.400974125
v -0.300013244 -0.412933379 0.309703887
v -0.211646482 -0.534559429 0.184802473
v -0.0756164566 -0.598570228 0.0379581451
v -0.136030018 -0.064011015 0.485728234
v 1.45339968E-07 0 0.493971527
v -0.224396452 -0.185637161 0.457444549
v -0.243238688 -0.334789872 0.400974184
v -0.187895268 -0.474570632 0.309703887
v -0.0720576644 -0.570399702 0.184802398
v 0.0756177157 -0.598570108 0.0379581451
v -0.115837261 -0.0958291814 0.485728294
v 1.45339968E-07 0 0.493971527
v -0.171180487 -0.235610053 0.457444549
v -0.152337939 -0.384762764 0.400974244
v -0.0639712885 -0.506388783 0.309703946
v 0.0720588788 -0.570399523 0.184802398
v 0.222100347 -0.560959518 0.0379581451
v -0.0883663073 -0.121626101 0.485728234
v 1.45339968E-07 0 0.493971527
v -0.107208669 -0.270778924 0.4574444
v -0.0518654883 -0.410559714 0.400974065
v 0.0639725477 -0.506388724 0.309703916
v 0.211647689 -0.534559011 0.184802428
v 0.354627609 -0.48810184 0.0379581451
v -0.0553428903 -0.139780909 0.485728353
v 1.45339968E-07 0 0.493971527
v -0.0365005322 -0.288933486 0.457444608
v 0.0518661663 -0.410559565 0.400974125
v 0.187896281 -0.474570245 0.309703857
v 0.337937862 -0.46513027 0.184802398
v 0.464872539 -0.384574831 0.0379581451
v -0.0188422613 -0.149152666 0.485728234
v 1.45339968E-07 0 0.493971527
v 0.0365010165 -0.288933426 0.457444608
v 0.152338997 -0.384762526 0.400974184
v 0.300014108 -0.412932843 0.309703887
v 0.442994237 -0.366475552 0.184802398
v 0.545907497 -0.256883621 0.0379581451
v 0.0188427456 -0.149152577 0.485728234
v 1.45339968E-07 0 0.493971527
v 0.107209295 -0.270778596 0.457444549
v 0.243239358 -0.334789306 0.400974125
v 0.393280983 -0.325349301 0.309703916
v 0.520215571 -0.244793817 0.184802398
v 0.592641115 -0.113051333 0.0379581451
v 0.0553434715 -0.139780805 0.485728204
v 1.45339968E-07 0 0.493971527
v 0.171181068 -0.235609815 0.457444638
v 0.318856448 -0.263780177 0.400974125
v 0.461836487 -0.217322782 0.309703887
v 0.564749897 -0.107730776 0.184802428
v 0.602137148 0.037884362 0.0379581451
v 0.0883665979 -0.121626101 0.485728353
v 1.45339968E-07 0 0.493971527
v 0.224397004 -0.185636684 0.457444549
v 0.374438345 -0.176196605 0.400974154
v 0.501372755 -0.0956411064 0.309703887
v 0.573798656 0.0361013822 0.184802428
v 0.573798358 0.186439544 0.0379581451
v 0.11583779 -0.0958288908 0.485728353
v 1.45339968E-07 0 0.493971527
v 0.263513118 -0.12399926 0.457444549
v 0.406493157 -0.0775419697 0.400974154
v 0.509406447 0.0320500284 0.309703946
v 0.546793878 0.177665174 0.184802398
v 0.509405673 0.323280066 0.0379581451
v 0.136030123 -0.0640106276 0.485728204
v 1.45339968E-07 0 0.493971527
v 0.286071837 -0.0545705557 0.457444549
v 0.413006335 0.0259849448 0.400974154
v 0.485432029 0.157727331 0.309703887
v 0.485431463 0.308065504 0.184802428
v 0.413005263 0.439807653 0.0379581451
v 0.14767538 -0.0281702764 0.485728294
v 1.45339968E-07 0 0.493971527
v 0.290655375 0.0182868689 0.457444459
v 0.393568754 0.127879068 0.400974125
v 0.430955917 0.273494154 0.309703887
v 0.393568158 0.419109195 0.184802428
v 0.290654302 0.528700769 0.0379581451
v 0.150041565 0.00944012124 0.485728353
v 1.45339968E-07 0 0.493971527
v 0.276976079 0.0899954736 0.457444549
v 0.349401861 0.221738011 0.400974154
v 0.349401385 0.372076213 0.309703946
v 0.276975185 0.503818572 0.184802398
v 0.150040314 0.584373236 0.0379581451
v 0.142980084 0.0464571938 0.485728204
v 1.45339968E-07 0 0.493971527
v 0.24589327 0.156049043 0.457444459
v 0.28328073 0.301664442 0.400974125
v 0.245892793 0.447279274 0.309703887
v 0.142979011 0.556871057 0.184802428
v -0 0.603327513 0.0379581451
v 4.84466547E-08 0.57493329 0.184802398
v 0.126933679 0.494378239 0.309703887
v 4.84466547E-08 0.510413706 0.309703857
v 0.126934603 0.0805554539 0.485728353
v 1.45339968E-07 0 0.493971527
v 0.199360356 0.212297991 0.457444459
v 0.199359924 0.362636209 0.400974095
v 0.102912761 0.400822133 0.400974125
v -9.68933094E-08 0.4138228 0.400974154
v 0.102913536 0.109592095 0.485728353
v 1.45339968E-07 0 0.493971527
v 0.140300691 0.255207002 0.457444549
v 0.0724253282 0.282080561 0.457444459
v 4.84466547E-08 0.291229993 0.457444549
v 0.0724257156 0.131742388 0.485728234
v 1.45339968E-07 0 0.493971527
v 0.0373873487 0.145614952 0.485728294
v 1.45339968E-07 0 0.493971527
v 1.45339968E-07 0.150338247 0.485728353
v 1.45339968E-07 0 0.493971527
vt 0 1
vt 0.0399999991 0.833411217
vt 0 0.833411217
vt 0.0399999991 0.666822493
vt 0 0.666822493
vt 0.0399999991 0.500233591
vt 0 0.500233591
vt 0.0399999991 0.333644867
vt 0 0.333644867
vt 0.0399999991 0.167056099
vt 0 0.167056099
vt 0.0399999991 0.000467231264
vt 0 0.000467231264
vt 0.0799999982 0.000467231264
vt 0.0799999982 0.167056099
vt 0.120000005 0.000467231264
vt 0.0799999982 0.333644867
vt 0.120000005 0.167056099
vt 0.159999996 0.000467231264
vt 0.0799999982 0.500233591
vt 0.120000005 0.333644867
vt 0.159999996 0.167056099
vt 0.200000003 0.000467231264
vt 0.0799999982 0.666822493
vt 0.120000005 0.500233591
vt 0.159999996 0.333644867
vt 0.200000003 0.167056099
vt 0.239999995 0.000467231264
vt 0.0799999982 0.833411217
vt 0.0399999991 1
vt 0.120000005 0.666822493
vt 0.159999996 0.500233591
vt 0.200000003 0.333644867
vt 0.239999995 0.167056099
vt 0.280000001 0.000467231264
vt 0.120000005 0.833411217
vt 0.0799999982 1
vt 0.159999996 0.666822493
vt 0.200000003 0.500233591
vt 0.239999995 0.333644867
vt 0.280000001 0.167056099
vt 0.319999993 0.000467231264
vt 0.159999996 0.833411217
vt 0.120000005 1
vt 0.200000003 0.666822493
vt 0.239999995 0.500233591
vt 0.280000001 0.333644867
vt 0.319999993 0.167056099
vt 0.360000014 0.000467231264
vt 0.200000003 0.833411217
vt 0.159999996 1
vt 0.239999995 0.666822493
vt 0.280000001 0.500233591
vt 0.319999993 0.333644867
vt 0.360000014 0.167056099
vt 0.400000036 0.000467231264
vt 0.239999995 0.833411217
vt 0.200000003 1
vt 0.280000001 0.666822493
vt 0.319999993 0.500233591
vt 0.360000014 0.333644867
vt 0.400000036 0.167056099
vt 0.440000057 0.000467231264
vt 0.280000001 0.833411217
vt 0.239999995 1
vt 0.319999993 0.666822493
vt 0.360000014 0.500233591
vt 0.400000036 0.333644867
vt 0.440000057 0.167056099
vt 0.480000049 0.000467231264
vt 0.319999993 0.833411217
vt 0.280000001 1
vt 0.360000014 0.666822493
vt 0.400000036 0.500233591
vt 0.440000057 0.333644867
vt 0.480000049 0.167056099
vt 0.5200001 0.000467231264
vt 0.360000014 0.833411217
vt 0.319999993 1
vt 0.400000036 0.666822493
vt 0.440000057 0.500233591
vt 0.480000049 0.333644867
vt 0.5200001 0.167056099
vt 0.560000062 0.000467231264
vt 0.400000036 0.833411217
vt 0.360000014 1
vt 0.440000057 0.666822493
vt 0.480000049 0.500233591
vt 0.5200001 0.333644867
vt 0.560000062 0.167056099
vt 0.600000083 0.000467231264
vt 0.440000057 0.833411217
vt 0.400000036 1
vt 0.480000049 0.666822493
vt 0.5200001 0.500233591
vt 0.560000062 0.333644867
vt 0.600000083 0.167056099
vt 0.640000105 0.000467231264
vt 0.480000049 0.833411217
vt 0.440000057 1
vt 0.5200001 0.666822493
vt 0.560000062 0.500233591
vt 0.600000083 0.333644867
vt 0.640000105 0.167056099
vt 0.680000126 0.000467231264
vt 0.5200001 0.833411217
vt 0.480000049 1
vt 0.560000062 0.666822493
vt 0.600000083 0.500233591
vt 0.640000105 0.333644867
vt 0.680000126 0.167056099
vt 0.720000088 0.000467231264
vt 0.560000062 0.833411217
vt 0.5200001 1
vt 0.600000083 0.666822493
vt 0.640000105 0.500233591
vt 0.680000126 0.333644867
vt 0.720000088 0.167056099
vt 0.76000011 0.000467231264
vt 0.600000083 0.833411217
vt 0.560000062 1
vt 0.640000105 0.666822493
vt 0.680000126 0.500233591
vt 0.720000088 0.333644867
vt 0.76000011 0.167056099
vt 0.800000131 0.000467231264
vt 0.640000105 0.833411217
vt 0.600000083 1
vt 0.680000126 0.666822493
vt 0.720000088 0.500233591
vt 0.76000011 0.333644867
vt 0.800000131 0.167056099
vt 0.840000153 0.000467231264
vt 0.680000126 0.833411217
vt 0.640000105 1
vt 0.720000088 0.666822493
vt 0.76000011 0.500233591
vt 0.800000131 0.333644867
vt 0.840000153 0.167056099
vt 0.880000174 0.000467231264
vt 0.720000088 0.833411217
vt 0.680000126 1
vt 0.76000011 0.666822493
vt 0.800000131 0.500233591
vt 0.840000153 0.333644867
vt 0.880000174 0.167056099
vt 0.920000196 0.000467231264
vt 0.76000011 0.833411217
vt 0.720000088 1
vt 0.800000131 0.666822493
vt 0.840000153 0.500233591
vt 0.880000174 0.333644867
vt 0.920000196 0.167056099
vt 0.960000217 0.000467231264
vt 0.800000131 0.833411217
vt 0.76000011 1
vt 0.840000153 0.666822493
vt 0.880000174 0.500233591
vt 0.920000196 0.333644867
vt 0.960000217 0.167056099
vt 1.00000024 0.000467231264
vt 1.00000024 0.167056099
vt 0.960000217 0.333644867
vt 1.00000024 0.333644867
vt 0.840000153 0.833411217
vt 0.800000131 1
vt 0.880000174 0.666822493
vt 0.920000196 0.500233591
vt 0.960000217 0.500233591
vt 1.00000024 0.500233591
vt 0.880000174 0.833411217
vt 0.840000153 1
vt 0.920000196 0.666822493
vt 0.960000217 0.666822493
vt 1.00000024 0.666822493
vt 0.920000196 0.833411217
vt 0.880000174 1
vt 0.960000217 0.833411217
vt 0.920000196 1
vt 1.00000024 0.833411217
vt 0.960000217 1
vn -0.000920386112 0.000460193056 0.999999523
vn -0.126198024 0.491646469 0.861601949
vn -0.00112744048 0.507348239 0.86174041
vn -0.175532237 0.686121285 0.705992877
vn -0 0.708485901 0.705724895
vn -0.200166821 0.778871357 0.594384313
vn 0.000666765496 0.804563761 0.593865871
vn -0.219724149 0.854239821 0.471164137
vn -0.000198821042 0.881970167 0.471305281
vn -0.237851173 0.925338924 0.295253605
vn -0.000575082027 0.95540297 0.295304596
vn -0.243893594 0.951566219 0.187183574
vn -0 0.98230207 0.187303767
vn -0.472989261 0.860916615 0.187359989
vn -0.460551888 0.837227762 0.294858515
vn -0.672659516 0.715798318 0.187515303
vn -0.424770921 0.773285627 0.47074306
vn -0.654033005 0.696639478 0.294846237
vn -0.829482079 0.526152611 0.187410891
vn -0.388299108 0.704299629 0.594294429
vn -0.604248285 0.642969429 0.470610708
vn -0.807155967 0.511415839 0.294878155
vn -0.934050441 0.304038465 0.187377542
vn -0.342045367 0.620544314 0.70564121
vn -0.55031538 0.587003171 0.59378475
vn -0.744806468 0.473227203 0.470445871
vn -0.9088732 0.295297593 0.294531584
vn -0.980367303 0.0614160039 0.187371269
vn -0.244407773 0.444446117 0.861819327
vn -0.000920386112 0.000460193056 0.999999523
vn -0.484730899 0.517303944 0.705289006
vn -0.678240061 0.43268767 0.59394598
vn -0.839536309 0.270901471 0.470947236
vn -0.953821898 0.0597455166 0.294371158
vn -0.964960694 -0.183683947 0.187379569
vn -0.349638224 0.369917989 0.860763431
vn -0.000920386112 0.000460193056 0.999999523
vn -0.599085569 0.378384382 0.705635726
vn -0.764366329 0.249933884 0.594371319
vn -0.880815327 0.0536476709 0.470410645
vn -0.938512921 -0.179165408 0.29511568
vn -0.888648391 -0.418580085 0.187336057
vn -0.429921329 0.2718454 0.860969007
vn -0.000920386112 0.000460193056 0.999999523
vn -0.673780382 0.219209835 0.705667913
vn -0.802736402 0.048933778 0.594322979
vn -0.866837442 -0.165660486 0.470265269
vn -0.864860237 -0.406384706 0.29473424
vn -0.756830633 -0.626178145 0.187371865
vn -0.483670205 0.156470492 0.861150503
vn -0.000920386112 0.000460193056 0.999999523
vn -0.706821442 0.0444698147 0.705992818
vn -0.789872229 -0.150727093 0.594460487
vn -0.798049867 -0.376084477 0.470825613
vn -0.736079574 -0.609380484 0.294690192
vn -0.577250063 -0.794779718 0.187370226
vn -0.50733161 0.0311453566 0.861187875
vn -0.000920386112 0.000460193056 0.999999523
vn -0.696752191 -0.132859379 0.704900503
vn -0.727717698 -0.341774791 0.594656944
vn -0.679742754 -0.562597096 0.47056821
vn -0.561556697 -0.773121655 0.294850767
vn -0.361901492 -0.913193345 0.187363878
vn -0.49942416 -0.0949318707 0.861140847
vn -0.000920386112 0.000460193056 0.999999523
vn -0.641623139 -0.302443981 0.704873979
vn -0.61961925 -0.51260823 0.594394505
vn -0.518570781 -0.713866353 0.470615655
vn -0.352058619 -0.888424039 0.294546455
vn -0.122471139 -0.974618435 0.187402785
vn -0.458271116 -0.214861557 0.862451196
vn -0.000920386112 0.000460193056 0.999999523
vn -0.545991719 -0.451378882 0.705797493
vn -0.472808868 -0.651071966 0.59376514
vn -0.325256288 -0.820090652 0.470807493
vn -0.120191649 -0.947944701 0.294881046
vn 0.12228322 -0.974641204 0.187407136
vn -0.393440127 -0.324738264 0.860087156
vn -0.000920386112 0.000460193056 0.999999523
vn -0.415656835 -0.573495984 0.70592618
vn -0.2959463 -0.747870207 0.594227254
vn -0.110023156 -0.875418901 0.47067675
vn 0.120026506 -0.947960436 0.294897646
vn 0.361984402 -0.913161874 0.187357441
vn -0.299428195 -0.411619991 0.860762298
vn -0.000920386112 0.000460193056 0.999999523
vn -0.260662377 -0.658144951 0.706328809
vn -0.100484952 -0.797654986 0.594684243
vn 0.109448418 -0.875388861 0.470866621
vn 0.351175845 -0.888662517 0.29488048
vn 0.577782393 -0.794403076 0.187326401
vn -0.187136501 -0.473102212 0.860903084
vn -0.000920386112 0.000460193056 0.999999523
vn -0.0892444625 -0.704008937 0.704561532
vn 0.101160578 -0.797945738 0.594179392
vn 0.325093895 -0.820181906 0.470760614
vn 0.561425567 -0.773204803 0.294882476
vn 0.756993532 -0.625997424 0.187317759
vn -0.0638017803 -0.504034042 0.861324072
vn -0.000920386112 0.000460193056 0.999999523
vn 0.0894923434 -0.703371286 0.705166578
vn 0.294787407 -0.747870088 0.594803035
vn 0.51850003 -0.713781834 0.470821857
vn 0.735867739 -0.609552085 0.294864237
vn 0.888896525 -0.418029308 0.187388361
vn 0.0622578226 -0.503313303 0.861858308
vn -0.000920386112 0.000460193056 0.999999523
vn 0.260354012 -0.659038365 0.705609143
vn 0.472401232 -0.6509974 0.594171286
vn 0.679048181 -0.563057363 0.471020103
vn 0.864339173 -0.407362014 0.29491359
vn 0.964845955 -0.184270695 0.187394336
vn 0.185445279 -0.472622693 0.861532271
vn -0.000920386112 0.000460193056 0.999999523
vn 0.416603237 -0.573347747 0.705488622
vn 0.618950188 -0.513082981 0.594681978
vn 0.798032403 -0.375965446 0.470950365
vn 0.938472748 -0.179650515 0.294948548
vn 0.980386794 0.0608686991 0.18744792
vn 0.299215108 -0.410105139 0.861559093
vn -0.000920386112 0.000460193056 0.999999523
vn 0.545545042 -0.451857179 0.705836892
vn 0.727636218 -0.342678815 0.594236314
vn 0.866721809 -0.165364012 0.470582724
vn 0.95364809 0.0601296164 0.294855326
vn 0.934242666 0.303399891 0.187454373
vn 0.391407132 -0.324920505 0.860945523
vn -0.000920386112 0.000460193056 0.999999523
vn 0.640720248 -0.301840603 0.705953181
vn 0.789609492 -0.151334405 0.594655156
vn 0.880440593 0.055251129 0.470926374
vn 0.908634603 0.29540211 0.295162499
vn 0.829362988 0.526319206 0.187470183
vn 0.458863705 -0.21611242 0.86182332
vn -0.000920386112 0.000460193056 0.999999523
vn 0.695503831 -0.133516833 0.706008255
vn 0.80245465 0.0500699654 0.594608665
vn 0.838899195 0.272542834 0.471135378
vn 0.806852698 0.511849582 0.294955224
vn 0.672317386 0.716172457 0.187313586
vn 0.499165475 -0.0954010785 0.861238897
vn -0.000920386112 0.000460193056 0.999999523
vn 0.706933379 0.0452879183 0.705828726
vn 0.764701664 0.247927159 0.594780266
vn 0.74503541 0.472451806 0.470862389
vn 0.653998375 0.696550488 0.295133054
vn 0.473144591 0.86081785 0.187421516
vn 0.505862772 0.031592913 0.862035215
vn -0.000920386112 0.000460193056 0.999999523
vn 0.674008369 0.219052732 0.705498934
vn 0.678890824 0.431091249 0.594363093
vn 0.603982627 0.642949224 0.470979214
vn 0.460387975 0.837278008 0.294971973
vn 0.244159251 0.951457977 0.187387422
vn 0.482462227 0.157316476 0.861673772
vn -0.000920386112 0.000460193056 0.999999523
vn 0.598017752 0.380657077 0.705318928
vn 0.550302088 0.586336434 0.594455302
vn 0.424738586 0.773191035 0.470927387
vn 0.237060353 0.925627768 0.294983953
vn -0 0.98230207 0.187303767
vn -0.000575082027 0.95540297 0.295304596
vn 0.219375536 0.854451835 0.47094205
vn -0.000198821042 0.881970167 0.471305281
vn 0.429024488 0.272981405 0.861057043
vn -0.000920386112 0.000460193056 0.999999523
vn 0.484253794 0.516297996 0.706353068
vn 0.387672752 0.704172134 0.594854236
vn 0.199940085 0.778854489 0.594482601
vn 0.000666765496 0.804563761 0.593865871
vn 0.346431762 0.369752914 0.862129867
vn -0.000920386112 0.000460193056 0.999999523
vn 0.340702087 0.621215403 0.705700696
vn 0.176470101 0.685996473 0.705880404
vn -0 0.708485901 0.705724895
vn 0.245530605 0.445328832 0.861044049
vn -0.000920386112 0.000460193056 0.999999523
vn 0.126128092 0.492500186 0.861124456
vn -0.000920386112 0.000460193056 0.999999523
vn -0.00112744048 0.507348239 0.86174041
vn -0.000920386112 0.000460193056 0.999999523
g Sphere002_0
f 3/3/3 2/2/2 1/1/1
f 2/2/2 3/3/3 4/4/4
f 5/5/5 4/4/4 3/3/3
f 4/4/4 5/5/5 6/6/6
f 7/7/7 6/6/6 5/5/5
f 6/6/6 7/7/7 8/8/8
f 9/9/9 8/8/8 7/7/7
f 8/8/8 9/9/9 10/10/10
f 11/11/11 10/10/10 9/9/9
f 10/10/10 11/11/11 12/12/12
f 13/13/13 12/12/12 11/11/11
f 12/12/12 14/14/14 10/10/10
f 15/15/15 10/10/10 14/14/14
f 10/10/10 15/15/15 8/8/8
f 14/14/14 16/16/16 15/15/15
f 8/8/8 17/17/17 6/6/6
f 17/17/17 8/8/8 15/15/15
f 18/18/18 15/15/15 16/16/16
f 15/15/15 18/18/18 17/17/17
f 16/16/16 19/19/19 18/18/18
f 6/6/6 20/20/20 4/4/4
f 20/20/20 6/6/6 17/17/17
f 21/21/21 17/17/17 18/18/18
f 17/17/17 21/21/21 20/20/20
f 22/22/22 18/18/18 19/19/19
f 18/18/18 22/22/22 21/21/21
f 19/19/19 23/23/23 22/22/22
f 24/24/24 4/4/4 20/20/20
f 4/4/4 24/24/24 2/2/2
f 25/25/25 20/20/20 21/21/21
f 20/20/20 25/25/25 24/24/24
f 26/26/26 21/21/21 22/22/22
f 21/21/21 26/26/26 25/25/25
f 27/27/27 22/22/22 23/23/23
f 22/22/22 27/27/27 26/26/26
f 23/23/23 28/28/28 27/27/27
f 29/29/29 2/2/2 24/24/24
f 2/2/2 29/29/29 30/30/30
f 31/31/31 24/24/24 25/25/25
f 24/24/24 31/31/31 29/29/29
f 32/32/32 25/25/25 26/26/26
f 25/25/25 32/32/32 31/31/31
f 33/33/33 26/26/26 27/27/27
f 26/26/26 33/33/33 32/32/32
f 34/34/34 27/27/27 28/28/28
f 27/27/27 34/34/34 33/33/33
f 28/28/28 35/35/35 34/34/34
f 36/36/36 29/29/29 31/31/31
f 29/29/29 36/36/36 37/37/37
f 38/38/38 31/31/31 32/32/32
f 31/31/31 38/38/38 36/36/36
f 39/39/39 32/32/32 33/33/33
f 32/32/32 39/39/39 38/38/38
f 40/40/40 33/33/33 34/34/34
f 33/33/33 40/40/40 39/39/39
f 41/41/41 34/34/34 35/35/35
f 34/34/34 41/41/41 40/40/40
f 35/35/35 42/42/42 41/41/41
f 43/43/43 36/36/36 38/38/38
f 36/36/36 43/43/43 44/44/44
f 45/45/45 38/38/38 39/39/39
f 38/38/38 45/45/45 43/43/43
f 46/46/46 39/39/39 40/40/40
f 39/39/39 46/46/46 45/45/45
f 47/47/47 40/40/40 41/41/41
f 40/40/40 47/47/47 46/46/46
f 48/48/48 41/41/41 42/42/42
f 41/41/41 48/48/48 47/47/47
f 42/42/42 49/49/49 48/48/48
f 50/50/50 43/43/43 45/45/45
f 43/43/43 50/50/50 51/51/51
f 52/52/52 45/45/45 46/46/46
f 45/45/45 52/52/52 50/50/50
f 53/53/53 46/46/46 47/47/47
f 46/46/46 53/53/53 52/52/52
f 54/54/54 47/47/47 48/48/48
f 47/47/47 54/54/54 53/53/53
f 55/55/55 48/48/48 49/49/49
f 48/48/48 55/55/55 54/54/54
f 49/49/49 56/56/56 55/55/55
f 57/57/57 50/50/50 52/52/52
f 50/50/50 57/57/57 58/58/58
f 59/59/59 52/52/52 53/53/53
f 52/52/52 59/59/59 57/57/57
f 60/60/60 53/53/53 54/54/54
f 53/53/53 60/60/60 59/59/59
f 61/61/61 54/54/54 55/55/55
f 54/54/54 61/61/61 60/60/60
f 62/62/62 55/55/55 56/56/56
f 55/55/55 62/62/62 61/61/61
f 56/56/56 63/63/63 62/62/62
f 64/64/64 57/57/57 59/59/59
f 57/57/57 64/64/64 65/65/65
f 66/66/66 59/59/59 60/60/60
f 59/59/59 66/66/66 64/64/64
f 67/67/67 60/60/60 61/61/61
f 60/60/60 67/67/67 66/66/66
f 68/68/68 61/61/61 62/62/62
f 61/61/61 68/68/68 67/67/67
f 69/69/69 62/62/62 63/63/63
f 62/62/62 69/69/69 68/68/68
f 63/63/63 70/70/70 69/69/69
f 71/71/71 64/64/64 66/66/66
f 64/64/64 71/71/71 72/72/72
f 73/73/73 66/66/66 67/67/67
f 66/66/66 73/73/73 71/71/71
f 74/74/74 67/67/67 68/68/68
f 67/67/67 74/74/74 73/73/73
f 75/75/75 68/68/68 69/69/69
f 68/68/68 75/75/75 74/74/74
f 76/76/76 69/69/69 70/70/70
f 69/69/69 76/76/76 75/75/75
f 70/70/70 77/77/77 76/76/76
f 78/78/78 71/71/71 73/73/73
f 71/71/71 78/78/78 79/79/79
f 80/80/80 73/73/73 74/74/74
f 73/73/73 80/80/80 78/78/78
f 81/81/81 74/74/74 75/75/75
f 74/74/74 81/81/81 80/80/80
f 82/82/82 75/75/75 76/76/76
f 75/75/75 82/82/82 81/81/81
f 83/83/83 76/76/76 77/77/77
f 76/76/76 83/83/83 82/82/82
f 77/77/77 84/84/84 83/83/83
f 85/85/85 78/78/78 80/80/80
f 78/78/78 85/85/85 86/86/86
f 87/87/87 80/80/80 81/81/81
f 80/80/80 87/87/87 85/85/85
f 88/88/88 81/81/81 82/82/82
f 81/81/81 88/88/88 87/87/87
f 89/89/89 82/82/82 83/83/83
f 82/82/82 89/89/89 88/88/88
f 90/90/90 83/83/83 84/84/84
f 83/83/83 90/90/90 89/89/89
f 84/84/84 91/91/91 90/90/90
f 92/92/92 85/85/85 87/87/87
f 85/85/85 92/92/92 93/93/93
f 94/94/94 87/87/87 88/88/88
f 87/87/87 94/94/94 92/92/92
f 95/95/95 88/88/88 89/89/89
f 88/88/88 95/95/95 94/94/94
f 96/96/96 89/89/89 90/90/90
f 89/89/89 96/96/96 95/95/95
f 97/97/97 90/90/90 91/91/91
f 90/90/90 97/97/97 96/96/96
f 91/91/91 98/98/98 97/97/97
f 99/99/99 92/92/92 94/94/94
f 92/92/92 99/99/99 100/100/100
f 101/101/101 94/94/94 95/95/95
f 94/94/94 101/101/101 99/99/99
f 102/102/102 95/95/95 96/96/96
f 95/95/95 102/102/102 101/101/101
f 103/103/103 96/96/96 97/97/97
f 96/96/96 103/103/103 102/102/102
f 104/104/104 97/97/97 98/98/98
f 97/97/97 104/104/104 103/103/103
f 98/98/98 105/105/105 104/104/104
f 106/106/106 99/99/99 101/101/101
f 99/99/99 106/106/106 107/107/107
f 108/108/108 101/101/101 102/102/102
f 101/101/101 108/108/108 106/106/106
f 109/109/109 102/102/102 103/103/103
f 102/102/102 109/109/109 108/108/108
f 110/110/110 103/103/103 104/104/104
f 103/103/103 110/110/110 109/109/109
f 111/111/111 104/104/104 105/105/105
f 104/104/104 111/111/111 110/110/110
f 105/105/105 112/112/112 111/111/111
f 113/113/113 106/106/106 108/108/108
f 106/106/106 113/113/113 114/114/114
f 115/115/115 108/108/108 109/109/109
f 108/108/108 115/115/115 113/113/113
f 116/116/116 109/109/109 110/110/110
f 109/109/109 116/116/116 115/115/115
f 117/117/117 110/110/110 111/111/111
f 110/110/110 117/117/117 116/116/116
f 118/118/118 111/111/111 112/112/112
f 111/111/111 118/118/118 117/117/117
f 112/112/112 119/119/119 118/118/118
f 120/120/120 113/113/113 115/115/115
f 113/113/113 120/120/120 121/121/121
f 122/122/122 115/115/115 116/116/116
f 115/115/115 122/122/122 120/120/120
f 123/123/123 116/116/116 117/117/117
f 116/116/116 123/123/123 122/122/122
f 124/124/124 117/117/117 118/118/118
f 117/117/117 124/124/124 123/123/123
f 125/125/125 118/118/118 119/119/119
f 118/118/118 125/125/125 124/124/124
f 119/119/119 126/126/126 125/125/125
f 127/127/127 120/120/120 122/122/122
f 120/120/120 127/127/127 128/128/128
f 129/129/129 122/122/122 123/123/123
f 122/122/122 129/129/129 127/127/127
f 130/130/130 123/123/123 124/124/124
f 123/123/123 130/130/130 129/129/129
f 131/131/131 124/124/124 125/125/125
f 124/124/124 131/131/131 130/130/130
f 132/132/132 125/125/125 126/126/126
f 125/125/125 132/132/132 131/131/131
f 126/126/126 133/133/133 132/132/132
f 134/134/134 127/127/127 129/129/129
f 127/127/127 134/134/134 135/135/135
f 136/136/136 129/129/129 130/130/130
f 129/129/129 136/136/136 134/134/134
f 137/137/137 130/130/130 131/131/131
f 130/130/130 137/137/137 136/136/136
f 138/138/138 131/131/131 132/132/132
f 131/131/131 138/138/138 137/137/137
f 139/139/139 132/132/132 133/133/133
f 132/132/132 139/139/139 138/138/138
f 133/133/133 140/140/140 139/139/139
f 141/141/141 134/134/134 136/136/136
f 134/134/134 141/141/141 142/142/142
f 143/143/143 136/136/136 137/137/137
f 136/136/136 143/143/143 141/141/141
f 144/144/144 137/137/137 138/138/138
f 137/137/137 144/144/144 143/143/143
f 145/145/145 138/138/138 139/139/139
f 138/138/138 145/145/145 144/144/144
f 146/146/146 139/139/139 140/140/140
f 139/139/139 146/146/146 145/145/145
f 140/140/140 147/147/147 146/146/146
f 148/148/148 141/141/141 143/143/143
f 141/141/141 148/148/148 149/149/149
f 150/150/150 143/143/143 144/144/144
f 143/143/143 150/150/150 148/148/148
f 151/151/151 144/144/144 145/145/145
f 144/144/144 151/151/151 150/150/150
f 152/152/152 145/145/145 146/146/146
f 145/145/145 152/152/152 151/151/151
f 153/153/153 146/146/146 147/147/147
f 146/146/146 153/153/153 152/152/152
f 147/147/147 154/154/154 153/153/153
f 155/155/155 148/148/148 150/150/150
f 148/148/148 155/155/155 156/156/156
f 157/157/157 150/150/150 151/151/151
f 150/150/150 157/157/157 155/155/155
f 158/158/158 151/151/151 152/152/152
f 151/151/151 158/158/158 157/157/157
f 159/159/159 152/152/152 153/153/153
f 152/152/152 159/159/159 158/158/158
f 160/160/160 153/153/153 154/154/154
f 153/153/153 160/160/160 159/159/159
f 154/154/154 161/161/161 160/160/160
f 162/162/162 160/160/160 161/161/161
f 160/160/160 162/162/162 163/163/163
f 163/163/163 159/159/159 160/160/160
f 164/164/164 163/163/163 162/162/162
f 165/165/165 155/155/155 157/157/157
f 155/155/155 165/165/165 166/166/166
f 167/167/167 157/157/157 158/158/158
f 157/157/157 167/167/167 165/165/165
f 168/168/168 158/158/158 159/159/159
f 159/159/159 163/163/163 168/168/168
f 158/158/158 168/168/168 167/167/167
f 163/163/163 164/164/164 169/169/169
f 169/169/169 168/168/168 163/163/163
f 170/170/170 169/169/169 164/164/164
f 171/171/171 165/165/165 167/167/167
f 165/165/165 171/171/171 172/172/172
f 173/173/173 167/167/167 168/168/168
f 168/168/168 169/169/169 173/173/173
f 167/167/167 173/173/173 171/171/171
f 169/169/169 170/170/170 174/174/174
f 174/174/174 173/173/173 169/169/169
f 175/175/175 174/174/174 170/170/170
f 176/176/176 171/171/171 173/173/173
f 173/173/173 174/174/174 176/176/176
f 171/171/171 176/176/176 177/177/177
f 174/174/174 175/175/175 178/178/178
f 178/178/178 176/176/176 174/174/174
f 176/176/176 178/178/178 179/179/179
f 180/180/180 178/178/178 175/175/175
f 178/178/178 180/180/180 181/181/181
