g Eff_Hole
v 2.85234785 0.00201003603 6.46629195E-09
v 3.71539569 0.00357551873 1.44458836E-08
v 3.6440053 0.00357551873 0.72483778
v 2.79754019 0.00201003626 0.556465447
v 3.43257785 0.00357551873 1.42182016
v 2.2293973 -0.0424691327 0.443454683
v 2.27307343 -0.0424691327 4.14337453E-09
v 2.63522577 0.00201003603 1.0915463
v 3.08923841 0.00357551873 2.06416345
v 2.10004592 -0.0424691327 0.869867682
v 1.75180554 -0.155890301 0.348455757
v 1.78612542 -0.155890301 2.18196838E-09
v 2.37164068 0.00201003649 1.58467972
v 2.62718153 0.00357551873 2.62718153
v 1.88999152 -0.0424691327 1.26285195
v 1.6501646 -0.155890301 0.683520675
v 1.40235198 -0.317026675 0.278945178
v 1.4298259 -0.317026675 2.7618674E-10
v 2.01691484 0.00201003719 2.01691484
v 2.06416345 0.00357551873 3.08923841
v 1.60730588 -0.0424691327 1.60730588
v 1.48510897 -0.155890301 0.992317915
v 1.32098663 -0.317026675 0.547170639
v 1.17165732 -0.514955699 0.233057112
v 1.19461143 -0.514955699 -4.68915601E-11
v 1.58467972 0.00201003649 2.37164068
v 1.42182028 0.00357551873 3.43257785
v 1.26285195 -0.0424691327 1.88999152
v 1.26298118 -0.155890301 1.26298118
v 1.1888566 -0.317026675 0.794368565
v 1.10367692 -0.51495564 0.45715794
v 1.03983486 -0.748321652 0.206836045
v 1.06020653 -0.748321652 -9.71124136E-12
v 0.992318094 -0.155890301 1.48510897
v 1.0110395 -0.317026675 1.0110395
v 0.993282855 -0.51495564 0.663690388
v 0.979502916 -0.748321652 0.405723453
v 0.972154438 -1.07058835 0.193373561
v 0.991200149 -1.07058835 -1.8088657E-10
v 0.869449437 -1.43353617 8.49451787E-10
v 0.91574949 -1.07058835 0.379315913
v 0.852743268 -1.43353617 0.169621184
v 0.747698784 -1.79648399 1.8797901E-09
v 0.881529391 -0.748321652 0.58901912
v 0.844717681 -0.514955699 0.844717681
v 0.824152827 -1.07058835 0.550681353
v 0.733332038 -1.79648399 0.145868808
v 0.584190369 -2.07603383 3.09802317E-09
v 0.803266525 -1.43353617 0.332723945
v 0.749679148 -0.748321652 0.749679089
v 0.572965384 -2.07603383 0.113969885
v 0.420681864 -2.35558367 4.31625624E-09
v 0.700884283 -1.07058835 0.700884283
v 0.722920835 -1.43353617 0.483040303
v 0.69078362 -1.79648399 0.286131978
v 0.41259867 -2.35558367 0.0820709765
v 0.151642427 -2.61873674 6.32075592E-09
v 0.539721489 -2.07603383 0.223560005
v 0.621688843 -1.79648399 0.415399224
v 0.614793658 -1.43353617 0.614793658
v 0.550681353 -1.07058835 0.824152827
v 0.148728728 -2.61873674 0.0295839906
v 0.0148249827 -2.67344904 7.01416303E-09
v 0.0145401321 -2.67344904 0.0028922176
v 0.388659388 -2.35558367 0.160988018
v 0.140099406 -2.61873674 0.0580310822
v 0.0136965057 -2.67344904 0.0056732879
v 0.485736519 -2.07603383 0.324558824
v 0.528702915 -1.79648399 0.528702915
v 0.126086116 -2.61873674 0.0842480659
v 0.0123265218 -2.67344904 0.00823633559
v 0.349784225 -2.35558367 0.233718395
v 0.107227378 -2.61873674 0.107227378
v 0.010482844 -2.67344904 0.0104828477
v 0.413084984 -2.07603383 0.413084984
v 0.297467023 -2.35558367 0.297467023
v 0.483040303 -1.43353617 0.722920835
v 0.0842480361 -2.61873674 0.126086116
v 0.00823631324 -2.67344904 0.0123265255
v 0.415399224 -1.79648399 0.621688843
v 0.233718336 -2.35558367 0.349784225
v 0.324558794 -2.07603383 0.485736519
v 0.0580310524 -2.61873674 0.140099406
v 0.00567327533 -2.67344904 0.0136965057
v 0.160988018 -2.35558367 0.388659388
v 0.223560005 -2.07603383 0.539721489
v 0.286131978 -1.79648399 0.69078362
v 0.332723945 -1.43353617 0.803266525
v 0.0295839906 -2.61873674 0.148728728
v 0.00289221341 -2.67344904 0.0145401359
v 0.0820709765 -2.35558367 0.41259867
v 0.113969885 -2.07603383 0.572965384
v 0.145868808 -1.79648399 0.733332038
v -0 -2.61873674 0.151642427
v 9.77888659E-10 -2.67344904 0.0148249865
v -0 -2.35558367 0.420681864
v -0 -2.07603383 0.584190369
v -0.0295839906 -2.61873674 0.148728728
v -0.00289221201 -2.67344904 0.0145401359
v -0.0820709765 -2.35558367 0.41259867
v -0.0580310524 -2.61873674 0.140099406
v -0.0056732744 -2.67344904 0.0136965057
v 0.169621184 -1.43353617 0.852743268
v -0 -1.79648399 0.747698784
v -0.113969885 -2.07603383 0.572965384
v -0.160988018 -2.35558367 0.388659388
v -0.0842480361 -2.61873674 0.126086116
v -0.00823631324 -2.67344904 0.0123265255
v 1.07822015E-10 -1.43353617 0.869449437
v -0.145868808 -1.79648399 0.733332038
v -0.223560005 -2.07603383 0.539721489
v -0.233718336 -2.35558367 0.349784225
v -0.107227378 -2.61873674 0.107227378
v -0.0104828402 -2.67344904 0.0104828477
v -0.169621184 -1.43353617 0.852743268
v -0.286131978 -1.79648399 0.69078362
v -0.324558794 -2.07603383 0.485736519
v -0.297467023 -2.35558367 0.297467023
v -0.126086116 -2.61873674 0.0842480659
v -0.012326519 -2.67344904 0.00823633559
v -0.332723945 -1.43353617 0.803266525
v -0.415399224 -1.79648399 0.621688843
v -0.413084984 -2.07603383 0.413084984
v -0.349784225 -2.35558367 0.233718395
v -0.140099406 -2.61873674 0.0580310822
v -0.013696502 -2.67344904 0.0056732879
v -0.483040303 -1.43353617 0.722920835
v -0.528702915 -1.79648399 0.528702915
v -0.485736519 -2.07603383 0.324558824
v -0.388659388 -2.35558367 0.160988018
v -0.148728728 -2.61873674 0.0295839906
v -0.0145401284 -2.67344904 0.0028922176
v -0.614793658 -1.43353617 0.614793658
v -0.621688843 -1.79648399 0.415399224
v -0.539721489 -2.07603383 0.223560005
v -0.41259867 -2.35558367 0.0820709765
v -0.151642427 -2.61873674 6.32075592E-09
v -0.014824979 -2.67344904 7.01416303E-09
v -0.722920835 -1.43353617 0.483040303
v -0.69078362 -1.79648399 0.286131978
v -0.572965384 -2.07603383 0.113969885
v -0.420681864 -2.35558367 4.31625624E-09
v -0.148728728 -2.61873674 -0.0295839757
v -0.0145401284 -2.67344904 -0.00289220363
v -0.803266525 -1.43353617 0.332723945
v -0.733332038 -1.79648399 0.145868808
v -0.584190369 -2.07603383 3.09802317E-09
v -0.41259867 -2.35558367 -0.082070969
v -0.140099406 -2.61873674 -0.0580310524
v -0.013696502 -2.67344904 -0.00567326928
v -0.852743268 -1.43353617 0.169621184
v -0.747698784 -1.79648399 1.8797901E-09
v -0.572965384 -2.07603383 -0.113969885
v -0.388659388 -2.35558367 -0.160988018
v -0.126086116 -2.61873674 -0.0842480361
v -0.012326519 -2.67344904 -0.00823630765
v -0.869449437 -1.43353617 8.49451787E-10
v -0.733332038 -1.79648399 -0.145868808
v -0.539721489 -2.07603383 -0.223560005
v -0.349784225 -2.35558367 -0.233718336
v -0.107227378 -2.61873674 -0.107227378
v -0.0104828402 -2.67344904 -0.0104828365
v -0.852743268 -1.43353617 -0.169621184
v -0.69078362 -1.79648399 -0.286131978
v -0.485736519 -2.07603383 -0.324558794
v -0.297467023 -2.35558367 -0.297467023
v -0.0842480361 -2.61873674 -0.126086116
v -0.00823631324 -2.67344904 -0.0123265153
v -0.803266525 -1.43353617 -0.332723945
v -0.621688843 -1.79648399 -0.415399224
v -0.413084984 -2.07603383 -0.413084984
v -0.233718336 -2.35558367 -0.349784225
v -0.0580310524 -2.61873674 -0.140099406
v -0.0056732744 -2.67344904 -0.0136964982
v -0.722920835 -1.43353617 -0.483040303
v -0.528702915 -1.79648399 -0.528702915
v -0.324558794 -2.07603383 -0.485736519
v -0.160988018 -2.35558367 -0.388659388
v -0.0295839906 -2.61873674 -0.148728728
v -0.00289221201 -2.67344904 -0.0145401284
v -0.614793658 -1.43353617 -0.614793658
v -0.415399224 -1.79648399 -0.621688843
v -0.223560005 -2.07603383 -0.539721489
v -0.0820709765 -2.35558367 -0.41259867
v -0 -2.61873674 -0.151642427
v 9.77888659E-10 -2.67344904 -0.014824979
v -0.483040303 -1.43353617 -0.722920835
v -0.286131978 -1.79648399 -0.69078362
v -0.113969885 -2.07603383 -0.572965264
v -0 -2.35558367 -0.420681864
v 0.0295839906 -2.61873674 -0.148728728
v 0.00289221341 -2.67344904 -0.0145401284
v -0.332723945 -1.43353617 -0.803266525
v -0.145868793 -1.79648399 -0.733331919
v -0 -2.07603383 -0.584190369
v 0.0820709765 -2.35558367 -0.41259867
v 0.0580310524 -2.61873674 -0.140099406
v 0.00567327533 -2.67344904 -0.0136964982
v -0.169621155 -1.43353617 -0.852743208
v -0 -1.79648399 -0.747698784
v 0.113969885 -2.07603383 -0.572965384
v 0.160988018 -2.35558367 -0.388659388
v 0.0842480361 -2.61873674 -0.126086116
v 0.00823631324 -2.67344904 -0.0123265153
v 1.07822015E-10 -1.43353617 -0.869449437
v 0.145868808 -1.79648399 -0.733332038
v 0.223560005 -2.07603383 -0.539721489
v 0.233718336 -2.35558367 -0.349784225
v 0.107227378 -2.61873674 -0.107227378
v 0.010482844 -2.67344904 -0.0104828365
v 0.169621184 -1.43353617 -0.852743268
v 0.286131978 -1.79648399 -0.69078362
v 0.324558794 -2.07603383 -0.485736519
v 0.297467023 -2.35558367 -0.297467023
v 0.126086116 -2.61873674 -0.0842480361
v 0.0123265218 -2.67344904 -0.00823630765
v 0.332723945 -1.43353617 -0.803266525
v 0.415399224 -1.79648399 -0.621688843
v 0.413084984 -2.07603383 -0.413084984
v 0.349784225 -2.35558367 -0.233718336
v 0.140099406 -2.61873674 -0.0580310524
v 0.0136965057 -2.67344904 -0.00567326928
v 0.483040303 -1.43353617 -0.722920835
v 0.528702915 -1.79648399 -0.528702915
v 0.485736519 -2.07603383 -0.324558794
v 0.388659388 -2.35558367 -0.160988018
v 0.148728728 -2.61873674 -0.0295839757
v 0.0145401321 -2.67344904 -0.00289220363
v 0.151642427 -2.61873674 6.32075592E-09
v 0.0148249827 -2.67344904 7.01416303E-09
v 0.420681864 -2.35558367 4.31625624E-09
v 0.41259867 -2.35558367 -0.082070969
v 0.584190369 -2.07603383 3.09802317E-09
v 0.572965384 -2.07603383 -0.113969885
v 0.747698784 -1.79648399 1.8797901E-09
v 0.539721489 -2.07603383 -0.223560005
v 0.733332038 -1.79648399 -0.145868808
v 0.869449437 -1.43353617 8.49451787E-10
v 0.69078362 -1.79648399 -0.286131978
v 0.852743268 -1.43353617 -0.169621184
v 0.991200149 -1.07058835 -1.8088657E-10
v 0.621688843 -1.79648399 -0.415399224
v 0.803266525 -1.43353617 -0.332723945
v 0.972154438 -1.07058835 -0.193373561
v 0.722920835 -1.43353617 -0.483040303
v 1.03983486 -0.748321652 -0.20683603
v 1.06020653 -0.748321652 -9.71124136E-12
v 0.91574949 -1.07058835 -0.379315913
v 0.614793658 -1.43353617 -0.614793658
v 0.824152827 -1.07058835 -0.550681353
v 0.979502857 -0.748321652 -0.405723423
v 1.17165732 -0.514955699 -0.233057112
v 1.19461143 -0.514955699 -4.68915601E-11
v 0.700884283 -1.07058835 -0.700884283
v 0.881529391 -0.748321652 -0.589019179
v 1.10367692 -0.51495564 -0.45715794
v 1.40235198 -0.317026675 -0.278945178
v 1.4298259 -0.317026675 2.7618674E-10
v 0.550681353 -1.07058835 -0.824152827
v 0.749679089 -0.748321652 -0.749679148
v 0.993282855 -0.51495564 -0.663690388
v 1.32098663 -0.317026675 -0.547170579
v 1.75180554 -0.155890301 -0.348455817
v 1.78612542 -0.155890301 2.18196838E-09
v 0.379315913 -1.07058835 -0.91574949
v 0.844717681 -0.514955699 -0.844717681
v 1.1888566 -0.317026675 -0.794368565
v 1.6501646 -0.155890301 -0.683520675
v 2.2293973 -0.0424691327 -0.443454742
v 2.27307343 -0.0424691327 4.14337453E-09
v 0.193373561 -1.07058835 -0.972154438
v 1.0110395 -0.317026675 -1.0110395
v 1.48510897 -0.155890301 -0.992318094
v 2.10004592 -0.0424691327 -0.869867682
v 2.79754019 0.00201003626 -0.556465447
v 2.85234785 0.00201003603 6.46629195E-09
v 3.71539569 0.00357551873 1.44458836E-08
v 3.6440053 0.00357551873 -0.72483778
v 2.63522577 0.00201003603 -1.09154642
v 3.43257785 0.00357551873 -1.42182052
v 2.37164068 0.00201003649 -1.58467972
v 3.08923841 0.00357551873 -2.06416345
v 1.88999152 -0.0424691327 -1.26285207
v 2.01691484 0.00201003719 -2.01691484
v 2.62718153 0.00357551873 -2.62718153
v 1.60730588 -0.0424691327 -1.60730588
v 1.58467972 0.00201003649 -2.37164068
v 2.06416345 0.00357551873 -3.08923841
v 1.26298118 -0.155890301 -1.26298118
v 1.09154642 0.00201003603 -2.63522577
v 1.42182028 0.00357551873 -3.43257785
v 1.26285195 -0.0424691327 -1.88999152
v 0.992318094 -0.155890301 -1.48510897
v 0.556465447 0.00201003626 -2.79754019
v 0.72483778 0.00357551873 -3.6440053
v 0.869867682 -0.0424691327 -2.10004592
v 0.794368565 -0.317026675 -1.1888566
v -9.93666216E-09 0.00201003603 -2.85234785
v -1.76937398E-08 0.00357551873 -3.71539569
v 0.683520675 -0.155890301 -1.6501646
v 0.443454683 -0.0424691327 -2.2293973
v 0.663690388 -0.51495564 -0.993282855
v -0.556465387 0.00201003626 -2.79754019
v -0.72483778 0.00357551873 -3.6440053
v -6.19565332E-09 -0.0424691327 -2.27307343
v 0.547170639 -0.317026675 -1.32098663
v 0.348455817 -0.155890301 -1.75180554
v 0.58901912 -0.748321652 -0.881529391
v -1.09154642 0.00201003603 -2.63522577
v -1.42182028 0.00357551873 -3.43257785
v -0.443454683 -0.0424691327 -2.2293973
v -2.92995495E-09 -0.155890301 -1.78612542
v 0.45715794 -0.51495564 -1.10367692
v 0.405723453 -0.748321652 -0.979502916
v 0.278945178 -0.317026675 -1.40235198
v -1.58467972 0.00201003649 -2.37164068
v -2.06416345 0.00357551873 -3.08923841
v -0.869867682 -0.0424691327 -2.10004592
v 0.233057112 -0.514955699 -1.17165732
v 0.206836045 -0.748321652 -1.03983486
v -0.348455757 -0.155890301 -1.75180554
v -1.7553603E-09 -0.317026675 -1.4298259
v -2.01691484 0.00201003719 -2.01691484
v -2.62718153 0.00357551873 -2.62718153
v 3.79298287E-10 -0.514955699 -1.19461143
v 1.97368372E-10 -0.748321652 -1.06020653
v -1.26285195 -0.0424691327 -1.88999152
v -0.278945178 -0.317026675 -1.40235198
v -0.683520675 -0.155890301 -1.6501646
v -2.37164068 0.00201003649 -1.58467972
v -3.08923841 0.00357551873 -2.06416345
v -0.233057112 -0.514955699 -1.17165732
v 2.1564403E-10 -1.07058835 -0.991200149
v -1.60730588 -0.0424691327 -1.60730588
v -0.547170579 -0.317026675 -1.32098663
v -0.992318094 -0.155890301 -1.48510897
v -0.20683603 -0.748321652 -1.03983486
v -0.193373561 -1.07058835 -0.972154438
v -0.45715794 -0.51495564 -1.10367692
v -0.794368565 -0.317026675 -1.1888566
v -1.26298118 -0.155890301 -1.26298118
v -0.379315913 -1.07058835 -0.91574949
v -0.405723423 -0.748321652 -0.979502916
v -0.663690388 -0.51495564 -0.993282855
v -0.550681353 -1.07058835 -0.824152827
v -0.589019179 -0.748321652 -0.881529391
v -1.0110395 -0.317026675 -1.0110395
v -1.88999152 -0.0424691327 -1.26285207
v -0.700884283 -1.07058835 -0.700884283
v -0.844717681 -0.514955699 -0.844717681
v -0.749679148 -0.748321652 -0.749679089
v -1.48510897 -0.155890301 -0.992318094
v -2.63522577 0.00201003603 -1.09154642
v -3.43257785 0.00357551873 -1.42182052
v -0.824152827 -1.07058835 -0.550681353
v -1.1888566 -0.317026675 -0.794368565
v -0.993282855 -0.51495564 -0.663690388
v -0.881529391 -0.748321652 -0.58901912
v -2.10004592 -0.0424691327 -0.869867682
v -2.79754019 0.00201003626 -0.556465447
v -3.6440053 0.00357551873 -0.72483778
v -1.6501646 -0.155890301 -0.683520675
v -1.32098663 -0.317026675 -0.547170579
v -1.10367692 -0.51495564 -0.45715794
v -0.979502857 -0.748321652 -0.405723453
v -2.85234785 0.00201003603 6.46629195E-09
v -3.71539569 0.00357551873 1.44458836E-08
v -2.2293973 -0.0424691327 -0.443454742
v -1.75180554 -0.155890301 -0.348455817
v -1.40235198 -0.317026675 -0.278945178
v -2.79754019 0.00201003626 0.556465447
v -3.6440053 0.00357551873 0.72483778
v -2.27307343 -0.0424691327 4.14337453E-09
v -2.63522577 0.00201003603 1.0915463
v -3.43257785 0.00357551873 1.42182016
v -1.78612542 -0.155890301 2.18196838E-09
v -2.2293973 -0.0424691327 0.443454683
v -1.17165732 -0.514955699 -0.233057112
v -2.37164068 0.00201003649 1.58467972
v -3.08923841 0.00357551873 2.06416345
v -2.10004592 -0.0424691327 0.869867682
v -1.4298259 -0.317026675 2.7618674E-10
v -1.75180554 -0.155890301 0.348455757
v -2.01691484 0.00201003719 2.01691484
v -2.62718153 0.00357551873 2.62718153
v -1.88999152 -0.0424691327 1.26285195
v -1.6501646 -0.155890301 0.683520675
v -1.40235198 -0.317026675 0.278945178
v -1.19461143 -0.514955699 -4.68915601E-11
v -1.58467972 0.00201003649 2.37164068
v -2.06416345 0.00357551873 3.08923841
v -1.60730588 -0.0424691327 1.60730588
v -1.48510897 -0.155890301 0.992317915
v -1.32098663 -0.317026675 0.547170639
v -1.09154642 0.00201003603 2.63522577
v -1.42182028 0.00357551873 3.43257785
v -1.26285195 -0.0424691327 1.88999152
v -1.26298118 -0.155890301 1.26298118
v -0.556465387 0.00201003626 2.79754019
v -0.72483778 0.00357551873 3.6440053
v -0.869867682 -0.0424691327 2.10004592
v -9.93666216E-09 0.00201003603 2.85234785
v -1.76937398E-08 0.00357551873 3.71539569
v -1.17165732 -0.514955699 0.233057112
v -1.1888566 -0.317026675 0.794368565
v -0.992318094 -0.155890301 1.48510897
v -0.443454683 -0.0424691327 2.2293973
v 0.556465447 0.00201003626 2.79754019
v 0.72483778 0.00357551873 3.6440053
v -1.10367692 -0.51495564 0.45715794
v -1.0110395 -0.317026675 1.0110395
v -0.683520675 -0.155890301 1.6501646
v -6.19565332E-09 -0.0424691327 2.27307343
v 1.09154642 0.00201003603 2.63522577
v 0.443454683 -0.0424691327 2.2293973
v 0.869867682 -0.0424691327 2.10004592
v -0.348455757 -0.155890301 1.75180554
v -0.794368565 -0.317026675 1.1888566
v -2.92995495E-09 -0.155890301 1.78612542
v 0.348455817 -0.155890301 1.75180554
v 0.683520675 -0.155890301 1.6501646
v -0.547170579 -0.317026675 1.32098663
v -0.278945178 -0.317026675 1.40235198
v -1.7553603E-09 -0.317026675 1.4298259
v 0.278945178 -0.317026675 1.40235198
v 0.547170639 -0.317026675 1.32098663
v 0.794368565 -0.317026675 1.1888566
v 0.663690388 -0.51495564 0.993282855
v 0.45715794 -0.51495564 1.10367692
v 0.233057112 -0.514955699 1.17165732
v 3.79298287E-10 -0.514955699 1.19461143
v -0.233057112 -0.514955699 1.17165732
v 0.589019179 -0.748321652 0.881529391
v 0.405723423 -0.748321652 0.979502857
v 0.379315913 -1.07058835 0.91574949
v 0.193373561 -1.07058835 0.972154438
v 0.20683603 -0.748321652 1.03983486
v 2.1564403E-10 -1.07058835 0.991200149
v 1.97368372E-10 -0.748321652 1.06020653
v -0.193373561 -1.07058835 0.972154438
v -0.206836045 -0.748321652 1.03983486
v -0.379315913 -1.07058835 0.91574949
v -0.405723453 -0.748321652 0.979502857
v -0.550681353 -1.07058835 0.824152827
v -0.45715794 -0.51495564 1.10367692
v -0.700884283 -1.07058835 0.700884283
v -0.58901912 -0.748321652 0.881529391
v -0.663690388 -0.51495564 0.993282855
v -0.824152827 -1.07058835 0.550681353
v -0.749679089 -0.748321652 0.749679148
v -0.844717681 -0.514955699 0.844717681
v -0.91574949 -1.07058835 0.379315913
v -0.881529391 -0.748321652 0.589019179
v -0.993282855 -0.51495564 0.663690388
v -0.979502916 -0.748321652 0.405723423
v -0.972154438 -1.07058835 0.193373561
v -1.03983486 -0.748321652 0.20683603
v -0.991200149 -1.07058835 -1.8088657E-10
v -1.06020653 -0.748321652 -9.71124136E-12
v -0.972154438 -1.07058835 -0.193373561
v -1.03983486 -0.748321652 -0.206836045
v -0.91574949 -1.07058835 -0.379315913
vt 0.00429549813 0.964451373
vt 0.00429549813 1
vt 0.0354112685 1
vt 0.0354112685 0.964451373
vt 0.0665270388 1
vt 0.0354112685 0.903171241
vt 0.00429549813 0.903171241
vt 0.0665270388 0.964451373
vt 0.097642839 1
vt 0.0665270388 0.903171241
vt 0.0354112685 0.826707602
vt 0.00429549813 0.826707602
vt 0.097642839 0.964451373
vt 0.128758609 1
vt 0.097642839 0.903171241
vt 0.0665270388 0.826707602
vt 0.0354112685 0.740433991
vt 0.00429549813 0.740433991
vt 0.128758609 0.964451373
vt 0.159874141 1
vt 0.128758609 0.903171241
vt 0.097642839 0.826707602
vt 0.0665270388 0.740433991
vt 0.0354112685 0.641944289
vt 0.00429549813 0.641944289
vt 0.159874141 0.964451373
vt 0.19099018 1
vt 0.159874141 0.903171241
vt 0.128758609 0.826707602
vt 0.097642839 0.740433991
vt 0.0665270388 0.641944289
vt 0.0354112685 0.570469201
vt 0.00429549813 0.570469201
vt 0.159874141 0.826707602
vt 0.128758609 0.740433991
vt 0.097642839 0.641944289
vt 0.0665270388 0.570469201
vt 0.0354112685 0.491095364
vt 0.00429549813 0.491095364
vt 0.00429549813 0.419936448
vt 0.0665270388 0.491095364
vt 0.0354112685 0.419936448
vt 0.00429549813 0.3401649
vt 0.097642839 0.570469201
vt 0.128758609 0.641944289
vt 0.097642839 0.491095364
vt 0.0354112685 0.3401649
vt 0.00429549813 0.26558122
vt 0.0665270388 0.419936448
vt 0.128758609 0.570469201
vt 0.0354112685 0.26558122
vt 0.00429549813 0.19222796
vt 0.128758609 0.491095364
vt 0.097642839 0.419936448
vt 0.0665270388 0.3401649
vt 0.0354112685 0.19222796
vt 0.00429549813 0.114933982
vt 0.0665270388 0.26558122
vt 0.097642839 0.3401649
vt 0.128758609 0.419936448
vt 0.159874141 0.491095364
vt 0.0354112685 0.114933982
vt 0.00429549813 0.00416088104
vt 0.0354112685 0.00416088104
vt 0.0665270388 0.19222796
vt 0.0665270388 0.114933982
vt 0.0665270388 0.00416088104
vt 0.097642839 0.26558122
vt 0.128758609 0.3401649
vt 0.097642839 0.114933982
vt 0.097642839 0.00416088104
vt 0.097642839 0.19222796
vt 0.128758609 0.114933982
vt 0.128758609 0.00416088104
vt 0.128758609 0.26558122
vt 0.128758609 0.19222796
vt 0.159874141 0.419936448
vt 0.159874141 0.114933982
vt 0.159874141 0.00416088104
vt 0.159874141 0.3401649
vt 0.159874141 0.19222796
vt 0.159874141 0.26558122
vt 0.19099018 0.114933982
vt 0.19099018 0.00416088104
vt 0.19099018 0.19222796
vt 0.19099018 0.26558122
vt 0.19099018 0.3401649
vt 0.19099018 0.419936448
vt 0.22210595 0.114933982
vt 0.22210595 0.00416088104
vt 0.22210595 0.19222796
vt 0.22210595 0.26558122
vt 0.22210595 0.3401649
vt 0.253221601 0.114933982
vt 0.253221601 0.00416088104
vt 0.253221601 0.19222796
vt 0.253221601 0.26558122
vt 0.284337521 0.114933982
vt 0.284337521 0.00416088104
vt 0.284337521 0.19222796
vt 0.315453291 0.114933982
vt 0.315453291 0.00416088104
vt 0.22210595 0.419936448
vt 0.253221601 0.3401649
vt 0.284337521 0.26558122
vt 0.315453291 0.19222796
vt 0.346569002 0.114933982
vt 0.346569002 0.00416088104
vt 0.253221601 0.419936448
vt 0.284337521 0.3401649
vt 0.315453291 0.26558122
vt 0.346569002 0.19222796
vt 0.377684742 0.114933982
vt 0.377684742 0.00416088104
vt 0.284337521 0.419936448
vt 0.315453291 0.3401649
vt 0.346569002 0.26558122
vt 0.377684742 0.19222796
vt 0.408800513 0.114933982
vt 0.408800513 0.00416088104
vt 0.315453291 0.419936448
vt 0.346569002 0.3401649
vt 0.377684742 0.26558122
vt 0.408800513 0.19222796
vt 0.439916372 0.114933982
vt 0.439916372 0.00416088104
vt 0.346569002 0.419936448
vt 0.377684742 0.3401649
vt 0.408800513 0.26558122
vt 0.439916372 0.19222796
vt 0.471032143 0.114933982
vt 0.471032143 0.00416088104
vt 0.377684742 0.419936448
vt 0.408800513 0.3401649
vt 0.439916372 0.26558122
vt 0.471032143 0.19222796
vt 0.502147853 0.114933982
vt 0.502147853 0.00416088104
vt 0.408800513 0.419936448
vt 0.439916372 0.3401649
vt 0.471032143 0.26558122
vt 0.502147853 0.19222796
vt 0.533263564 0.114933982
vt 0.533263564 0.00416088104
vt 0.439916372 0.419936448
vt 0.471032143 0.3401649
vt 0.502147853 0.26558122
vt 0.533263564 0.19222796
vt 0.564379454 0.114933982
vt 0.564379454 0.00416088104
vt 0.471032143 0.419936448
vt 0.502147853 0.3401649
vt 0.533263564 0.26558122
vt 0.564379454 0.19222796
vt 0.595495224 0.114933982
vt 0.595495224 0.00416088104
vt 0.502147853 0.419936448
vt 0.533263564 0.3401649
vt 0.564379454 0.26558122
vt 0.595495224 0.19222796
vt 0.626610994 0.114933982
vt 0.626610994 0.00416088104
vt 0.533263564 0.419936448
vt 0.564379454 0.3401649
vt 0.595495224 0.26558122
vt 0.626610994 0.19222796
vt 0.657726705 0.114933982
vt 0.657726705 0.00416088104
vt 0.564379454 0.419936448
vt 0.595495224 0.3401649
vt 0.626610994 0.26558122
vt 0.657726705 0.19222796
vt 0.688842416 0.114933982
vt 0.688842416 0.00416088104
vt 0.595495224 0.419936448
vt 0.626610994 0.3401649
vt 0.657726705 0.26558122
vt 0.688842416 0.19222796
vt 0.719958186 0.114933982
vt 0.719958186 0.00416088104
vt 0.626610994 0.419936448
vt 0.657726705 0.3401649
vt 0.688842416 0.26558122
vt 0.719958186 0.19222796
vt 0.751073956 0.114933982
vt 0.751073956 0.00416088104
vt 0.657726705 0.419936448
vt 0.688842416 0.3401649
vt 0.719958186 0.26558122
vt 0.751073956 0.19222796
vt 0.782189727 0.114933982
vt 0.782189727 0.00416088104
vt 0.688842416 0.419936448
vt 0.719958186 0.3401649
vt 0.751073956 0.26558122
vt 0.782189727 0.19222796
vt 0.813305497 0.114933982
vt 0.813305497 0.00416088104
vt 0.719958186 0.419936448
vt 0.751073956 0.3401649
vt 0.782189727 0.26558122
vt 0.813305497 0.19222796
vt 0.844421327 0.114933982
vt 0.844421327 0.00416088104
vt 0.751073956 0.419936448
vt 0.782189727 0.3401649
vt 0.813305497 0.26558122
vt 0.844421327 0.19222796
vt 0.875537097 0.114933982
vt 0.875537097 0.00416088104
vt 0.782189727 0.419936448
vt 0.813305497 0.3401649
vt 0.844421327 0.26558122
vt 0.875537097 0.19222796
vt 0.906652629 0.114933982
vt 0.906652629 0.00416088104
vt 0.813305497 0.419936448
vt 0.844421327 0.3401649
vt 0.875537097 0.26558122
vt 0.906652629 0.19222796
vt 0.937768459 0.114933982
vt 0.937768459 0.00416088104
vt 0.844421327 0.419936448
vt 0.875537097 0.3401649
vt 0.906652629 0.26558122
vt 0.937768459 0.19222796
vt 0.96888423 0.114933982
vt 0.96888423 0.00416088104
vt 1 0.114933982
vt 1 0.00416088104
vt 1 0.19222796
vt 0.96888423 0.19222796
vt 1 0.26558122
vt 0.96888423 0.26558122
vt 1 0.3401649
vt 0.937768459 0.26558122
vt 0.96888423 0.3401649
vt 1 0.419936448
vt 0.937768459 0.3401649
vt 0.96888423 0.419936448
vt 1 0.491095364
vt 0.906652629 0.3401649
vt 0.937768459 0.419936448
vt 0.96888423 0.491095364
vt 0.906652629 0.419936448
vt 0.96888423 0.570469201
vt 1 0.570469201
vt 0.937768459 0.491095364
vt 0.875537097 0.419936448
vt 0.906652629 0.491095364
vt 0.937768459 0.570469201
vt 0.96888423 0.641944289
vt 1 0.641944289
vt 0.875537097 0.491095364
vt 0.906652629 0.570469201
vt 0.937768459 0.641944289
vt 0.96888423 0.740433991
vt 1 0.740433991
vt 0.844421327 0.491095364
vt 0.875537097 0.570469201
vt 0.906652629 0.641944289
vt 0.937768459 0.740433991
vt 0.96888423 0.826707602
vt 1 0.826707602
vt 0.813305497 0.491095364
vt 0.875537097 0.641944289
vt 0.906652629 0.740433991
vt 0.937768459 0.826707602
vt 0.96888423 0.903171241
vt 1 0.903171241
vt 0.782189727 0.491095364
vt 0.875537097 0.740433991
vt 0.906652629 0.826707602
vt 0.937768459 0.903171241
vt 0.96888423 0.964451373
vt 1 0.964451373
vt 1 1
vt 0.96888423 1
vt 0.937768459 0.964451373
vt 0.937768459 1
vt 0.906652629 0.964451373
vt 0.906652629 1
vt 0.906652629 0.903171241
vt 0.875537097 0.964451373
vt 0.875537097 1
vt 0.875537097 0.903171241
vt 0.844421327 0.964451373
vt 0.844421327 1
vt 0.875537097 0.826707602
vt 0.813305497 0.964451373
vt 0.813305497 1
vt 0.844421327 0.903171241
vt 0.844421327 0.826707602
vt 0.782189727 0.964451373
vt 0.782189727 1
vt 0.813305497 0.903171241
vt 0.844421327 0.740433991
vt 0.751073956 0.964451373
vt 0.751073956 1
vt 0.813305497 0.826707602
vt 0.782189727 0.903171241
vt 0.844421327 0.641944289
vt 0.719958186 0.964451373
vt 0.719958186 1
vt 0.751073956 0.903171241
vt 0.813305497 0.740433991
vt 0.782189727 0.826707602
vt 0.844421327 0.570469201
vt 0.688842416 0.964451373
vt 0.688842416 1
vt 0.719958186 0.903171241
vt 0.751073956 0.826707602
vt 0.813305497 0.641944289
vt 0.813305497 0.570469201
vt 0.782189727 0.740433991
vt 0.657726705 0.964451373
vt 0.657726705 1
vt 0.688842416 0.903171241
vt 0.782189727 0.641944289
vt 0.782189727 0.570469201
vt 0.719958186 0.826707602
vt 0.751073956 0.740433991
vt 0.626610994 0.964451373
vt 0.626610994 1
vt 0.751073956 0.641944289
vt 0.751073956 0.570469201
vt 0.657726705 0.903171241
vt 0.719958186 0.740433991
vt 0.688842416 0.826707602
vt 0.595495224 0.964451373
vt 0.595495224 1
vt 0.719958186 0.641944289
vt 0.751073956 0.491095364
vt 0.626610994 0.903171241
vt 0.688842416 0.740433991
vt 0.657726705 0.826707602
vt 0.719958186 0.570469201
vt 0.719958186 0.491095364
vt 0.688842416 0.641944289
vt 0.657726705 0.740433991
vt 0.626610994 0.826707602
vt 0.688842416 0.491095364
vt 0.688842416 0.570469201
vt 0.657726705 0.641944289
vt 0.657726705 0.491095364
vt 0.657726705 0.570469201
vt 0.626610994 0.740433991
vt 0.595495224 0.903171241
vt 0.626610994 0.491095364
vt 0.626610994 0.641944289
vt 0.626610994 0.570469201
vt 0.595495224 0.826707602
vt 0.564379454 0.964451373
vt 0.564379454 1
vt 0.595495224 0.491095364
vt 0.595495224 0.740433991
vt 0.595495224 0.641944289
vt 0.595495224 0.570469201
vt 0.564379454 0.903171241
vt 0.533263564 0.964451373
vt 0.533263564 1
vt 0.564379454 0.826707602
vt 0.564379454 0.740433991
vt 0.564379454 0.641944289
vt 0.564379454 0.570469201
vt 0.502147853 0.964451373
vt 0.502147853 1
vt 0.533263564 0.903171241
vt 0.533263564 0.826707602
vt 0.533263564 0.740433991
vt 0.471032143 0.964451373
vt 0.471032143 1
vt 0.502147853 0.903171241
vt 0.439916372 0.964451373
vt 0.439916372 1
vt 0.502147853 0.826707602
vt 0.471032143 0.903171241
vt 0.533263564 0.641944289
vt 0.408800513 0.964451373
vt 0.408800513 1
vt 0.439916372 0.903171241
vt 0.502147853 0.740433991
vt 0.471032143 0.826707602
vt 0.377684742 0.964451373
vt 0.377684742 1
vt 0.408800513 0.903171241
vt 0.439916372 0.826707602
vt 0.471032143 0.740433991
vt 0.502147853 0.641944289
vt 0.346569002 0.964451373
vt 0.346569002 1
vt 0.377684742 0.903171241
vt 0.408800513 0.826707602
vt 0.439916372 0.740433991
vt 0.315453291 0.964451373
vt 0.315453291 1
vt 0.346569002 0.903171241
vt 0.377684742 0.826707602
vt 0.284337521 0.964451373
vt 0.284337521 1
vt 0.315453291 0.903171241
vt 0.253221601 0.964451373
vt 0.253221601 1
vt 0.471032143 0.641944289
vt 0.408800513 0.740433991
vt 0.346569002 0.826707602
vt 0.284337521 0.903171241
vt 0.22210595 0.964451373
vt 0.22210595 1
vt 0.439916372 0.641944289
vt 0.377684742 0.740433991
vt 0.315453291 0.826707602
vt 0.253221601 0.903171241
vt 0.19099018 0.964451373
vt 0.22210595 0.903171241
vt 0.19099018 0.903171241
vt 0.284337521 0.826707602
vt 0.346569002 0.740433991
vt 0.253221601 0.826707602
vt 0.22210595 0.826707602
vt 0.19099018 0.826707602
vt 0.315453291 0.740433991
vt 0.284337521 0.740433991
vt 0.253221601 0.740433991
vt 0.22210595 0.740433991
vt 0.19099018 0.740433991
vt 0.159874141 0.740433991
vt 0.159874141 0.641944289
vt 0.19099018 0.641944289
vt 0.22210595 0.641944289
vt 0.253221601 0.641944289
vt 0.284337521 0.641944289
vt 0.159874141 0.570469201
vt 0.19099018 0.570469201
vt 0.19099018 0.491095364
vt 0.22210595 0.491095364
vt 0.22210595 0.570469201
vt 0.253221601 0.491095364
vt 0.253221601 0.570469201
vt 0.284337521 0.491095364
vt 0.284337521 0.570469201
vt 0.315453291 0.491095364
vt 0.315453291 0.570469201
vt 0.346569002 0.491095364
vt 0.315453291 0.641944289
vt 0.377684742 0.491095364
vt 0.346569002 0.570469201
vt 0.346569002 0.641944289
vt 0.408800513 0.491095364
vt 0.377684742 0.570469201
vt 0.377684742 0.641944289
vt 0.439916372 0.491095364
vt 0.408800513 0.570469201
vt 0.408800513 0.641944289
vt 0.439916372 0.570469201
vt 0.471032143 0.491095364
vt 0.471032143 0.570469201
vt 0.502147853 0.491095364
vt 0.502147853 0.570469201
vt 0.533263564 0.491095364
vt 0.533263564 0.570469201
vt 0.564379454 0.491095364
vn -0.036880482 0.999319673 0
vn -0.00181389623 0.999998331 0
vn -0.00177904277 0.999998331 -0.000353874668
vn -0.0361718871 0.999319673 -0.00719503313
vn -0.00167582207 0.999998331 -0.000694147544
vn -0.144664571 0.98906225 -0.0287755653
vn -0.147498772 0.98906225 0
vn -0.0340731479 0.999319673 -0.0141135463
vn -0.00150820031 0.999998331 -0.00100774691
vn -0.136271045 0.98906225 -0.0564453155
vn -0.309436023 0.948926151 -0.0615507439
vn -0.315498292 0.948926091 0
vn -0.0306650177 0.999319673 -0.0204897001
vn -0.00128261885 0.999998331 -0.0012826185
vn -0.122640684 0.98906225 -0.0819458663
vn -0.291482359 0.948926151 -0.120736048
vn -0.516685903 0.84998405 -0.102775514
vn -0.526808321 0.849984109 0
vn -0.0260784384 0.999319673 -0.0260784384
vn -0.00100774691 0.999998331 -0.00150820008
vn -0.10429728 0.98906225 -0.104297288
vn -0.262327194 0.948926151 -0.175281435
vn -0.486707419 0.84998405 -0.201601118
vn -0.747652054 0.647224545 -0.148717463
vn -0.762299478 0.647224426 0
vn -0.0204897001 0.999319673 -0.030665027
vn -0.000694147951 0.999998331 -0.00167582242
vn -0.0819458738 0.98906225 -0.122640684
vn -0.223091051 0.948926091 -0.223091006
vn -0.438025117 0.849984109 -0.292679042
vn -0.704272926 0.647224367 -0.291719615
vn -0.914321363 0.361855954 -0.181869894
vn -0.932233989 0.361856014 0
vn -0.17528145 0.948926151 -0.262327164
vn -0.372509748 0.849984109 -0.372509658
vn -0.633828938 0.647224367 -0.423510939
vn -0.861272037 0.361855716 -0.356750578
vn -0.946194351 0.263236254 -0.188209727
vn -0.964731455 0.263236374 0
vn -0.948079646 0.318032712 0
vn -0.891295552 0.263236225 -0.369186699
vn -0.929862618 0.318032801 -0.18496117
vn -0.911523223 0.411248565 0
vn -0.775124252 0.361855537 -0.517921627
vn -0.539027154 0.647224486 -0.539027035
vn -0.802144766 0.263236165 -0.535976112
vn -0.894008636 0.411248624 -0.177829459
vn -0.863190055 0.504879177 0
vn -0.875911415 0.318032831 -0.362814307
vn -0.659189165 0.361855567 -0.659189105
vn -0.84660399 0.504879236 -0.168400094
vn -0.791348696 0.61136508 0
vn -0.682168245 0.263236195 -0.682167947
vn -0.788299441 0.318032831 -0.526724935
vn -0.842137635 0.411248624 -0.348824859
vn -0.776143312 0.611364901 -0.15438436
vn -0.554293096 0.832321525 0
vn -0.797483623 0.504879117 -0.330328673
vn -0.757903934 0.411248595 -0.506415069
vn -0.670393586 0.31803292 -0.670393586
vn -0.535975993 0.263236165 -0.802144885
vn -0.543643177 0.832321107 -0.108136773
vn -0.371305615 0.928510725 0
vn -0.364171505 0.928510547 -0.0724374428
vn -0.731110871 0.61136502 -0.30283621
vn -0.512100458 0.832321346 -0.21211873
vn -0.343042225 0.928510547 -0.142092183
vn -0.717716336 0.504879177 -0.47956267
vn -0.644544244 0.411248624 -0.644544244
vn -0.460878074 0.832321346 -0.307948947
vn -0.308729947 0.928510547 -0.206286222
vn -0.657982171 0.61136508 -0.439650089
vn -0.391945213 0.832321346 -0.39194417
vn -0.262553692 0.928510547 -0.262552142
vn -0.610367656 0.504879057 -0.610367417
vn -0.559568346 0.611364841 -0.559567988
vn -0.526724875 0.31803298 -0.788299382
vn -0.30794993 0.832321346 -0.460877448
vn -0.206288353 0.928510666 -0.308728188
vn -0.506415069 0.411248684 -0.757903934
vn -0.43964985 0.611365199 -0.65798229
vn -0.47956267 0.504879177 -0.717716277
vn -0.212119892 0.832321405 -0.512099802
vn -0.142095581 0.928510666 -0.343040496
vn -0.302835792 0.611365259 -0.731110871
vn -0.330328554 0.504879236 -0.797483623
vn -0.348824799 0.411248565 -0.842137635
vn -0.362814367 0.318032801 -0.875911415
vn -0.108137555 0.832321584 -0.543642402
vn -0.0724404976 0.928510964 -0.364170164
vn -0.154383719 0.611365199 -0.776143253
vn -0.168400064 0.504879177 -0.846604109
vn -0.177829459 0.411248624 -0.894008636
vn -0 0.832321763 -0.554292738
vn -0 0.928511024 -0.37130475
vn -0 0.61136508 -0.791348755
vn -0 0.504879117 -0.863190055
vn 0.108137555 0.832321584 -0.543642402
vn 0.0724404976 0.928510964 -0.364170164
vn 0.154383704 0.611365139 -0.776143253
vn 0.212119892 0.832321405 -0.512099802
vn 0.142095596 0.928510666 -0.343040496
vn -0.18496123 0.318032771 -0.929862618
vn -0 0.411248595 -0.911523223
vn 0.168400064 0.504879177 -0.846604109
vn 0.302835852 0.611365259 -0.731110871
vn 0.307949632 0.832321405 -0.460877508
vn 0.206288368 0.928510666 -0.308728129
vn -0 0.318032831 -0.948079646
vn 0.177829415 0.411248624 -0.894008636
vn 0.330328554 0.504879117 -0.797483623
vn 0.439649612 0.611365199 -0.65798229
vn 0.391944855 0.832321405 -0.39194423
vn 0.262553692 0.928510547 -0.262552172
vn 0.184961244 0.318032801 -0.929862618
vn 0.348824799 0.411248565 -0.842137635
vn 0.47956267 0.504879117 -0.717716396
vn 0.559568048 0.611364961 -0.559568048
vn 0.460878193 0.832321346 -0.307948977
vn 0.308729947 0.928510547 -0.206286222
vn 0.362814367 0.318032771 -0.875911415
vn 0.506415009 0.411248595 -0.757903934
vn 0.610367656 0.504879057 -0.610367417
vn 0.657982111 0.611365199 -0.439650089
vn 0.512100339 0.832321346 -0.21211876
vn 0.343042314 0.928510547 -0.142092168
vn 0.526724756 0.318032891 -0.788299501
vn 0.644544244 0.411248595 -0.644544244
vn 0.717716336 0.504879177 -0.47956267
vn 0.731110632 0.611365199 -0.302836329
vn 0.543642461 0.832321584 -0.108136825
vn 0.364170194 0.928511143 -0.0724374726
vn 0.670393646 0.318032891 -0.670393586
vn 0.757903993 0.411248595 -0.506415069
vn 0.797483444 0.504879236 -0.330328763
vn 0.776143134 0.611365139 -0.154384464
vn 0.554292619 0.832321942 0
vn 0.371304274 0.928511262 0
vn 0.788299441 0.318032831 -0.526724935
vn 0.842137635 0.411248684 -0.348824859
vn 0.84660393 0.504879415 -0.168400154
vn 0.791348696 0.61136508 0
vn 0.543642938 0.832321346 0.10813687
vn 0.364171654 0.928510547 0.0724375322
vn 0.875911415 0.318032831 -0.362814307
vn 0.894008517 0.411248714 -0.177829444
vn 0.863190055 0.504879177 0
vn 0.776143253 0.61136502 0.154384404
vn 0.512099922 0.832321584 0.212118819
vn 0.343040943 0.928511024 0.142092273
vn 0.929862618 0.318032801 -0.184961185
vn 0.911523223 0.411248565 0
vn 0.846604168 0.504879057 0.168400064
vn 0.731110871 0.61136502 0.302836329
vn 0.460878044 0.832321525 0.307948858
vn 0.308729142 0.928510845 0.206286177
vn 0.948079646 0.318032712 0
vn 0.894008636 0.411248624 0.177829459
vn 0.797483504 0.504879057 0.330328763
vn 0.65798229 0.611365139 0.439649969
vn 0.391944855 0.832321525 0.39194411
vn 0.262552828 0.928510845 0.262552023
vn 0.929862618 0.318032801 0.18496117
vn 0.842137635 0.411248624 0.348824859
vn 0.717716277 0.504879177 0.479562759
vn 0.559568465 0.611364841 0.559567809
vn 0.30794993 0.832321346 0.460877448
vn 0.206288338 0.928510666 0.308728099
vn 0.875911415 0.318032831 0.362814307
vn 0.757903934 0.411248595 0.506415069
vn 0.610367715 0.504879117 0.610367477
vn 0.43964985 0.611365199 0.65798229
vn 0.212116972 0.832322001 0.512099981
vn 0.142089441 0.928511441 0.343040735
vn 0.788299441 0.318032831 0.526724935
vn 0.644544244 0.411248624 0.644544244
vn 0.47956267 0.504879177 0.717716277
vn 0.302835673 0.611365139 0.73111099
vn 0.108134568 0.832321942 0.543642521
vn 0.0724343136 0.928511381 0.364170253
vn 0.670393586 0.31803292 0.670393586
vn 0.506415069 0.411248684 0.757903934
vn 0.330328494 0.504879177 0.797483683
vn 0.154383719 0.61136502 0.776143372
vn -0 0.832321763 0.554292738
vn -0 0.928511024 0.37130475
vn 0.526724875 0.31803298 0.788299382
vn 0.348824799 0.411248565 0.842137635
vn 0.168400198 0.504879057 0.846604109
vn 1.66700488E-07 0.61136508 0.791348755
vn -0.10813459 0.832321942 0.543642521
vn -0.0724343061 0.928511381 0.364170223
vn 0.362814307 0.318032861 0.875911534
vn 0.177829564 0.411248714 0.894008517
vn 1.16627277E-07 0.504879057 0.863190055
vn -0.154383704 0.611365139 0.776143253
vn -0.212116942 0.832322001 0.512099981
vn -0.142089456 0.92851156 0.343040764
vn 0.18496123 0.318032831 0.929862559
vn -0 0.411248684 0.911523163
vn -0.168400198 0.504879117 0.846604109
vn -0.302835852 0.611365259 0.731110871
vn -0.307949632 0.832321405 0.460877508
vn -0.206288338 0.928510666 0.308728188
vn -0 0.318032891 0.948079646
vn -0.177829564 0.411248565 0.894008517
vn -0.330328524 0.504879117 0.797483623
vn -0.439649612 0.611365199 0.65798229
vn -0.391943008 0.83232218 0.391944438
vn -0.262549967 0.928511679 0.262552232
vn -0.184961289 0.318032801 0.929862618
vn -0.348824769 0.411248624 0.842137754
vn -0.47956267 0.504879117 0.717716396
vn -0.559567869 0.611365139 0.559568107
vn -0.460876465 0.83232218 0.307949126
vn -0.308726311 0.928511739 0.206286356
vn -0.362814367 0.318032801 0.875911415
vn -0.506415009 0.411248595 0.757903934
vn -0.610367656 0.504879117 0.610367417
vn -0.657981992 0.611365318 0.439650089
vn -0.512099862 0.832321584 0.212118819
vn -0.343041003 0.928511024 0.142092273
vn -0.526724756 0.318032891 0.788299501
vn -0.644544244 0.411248595 0.644544244
vn -0.717716336 0.504879177 0.47956267
vn -0.731110871 0.61136502 0.302836269
vn -0.543642938 0.832321346 0.108136855
vn -0.364171654 0.928510547 0.0724375322
vn -0.554293096 0.832321525 0
vn -0.371305615 0.928510725 0
vn -0.791348696 0.61136508 0
vn -0.776143253 0.61136508 0.154384404
vn -0.863190055 0.504879177 0
vn -0.846604109 0.504879057 0.168400064
vn -0.911523223 0.411248565 0
vn -0.797483444 0.504879117 0.330328733
vn -0.894008517 0.411248714 0.177829444
vn -0.948079646 0.318032712 0
vn -0.842137635 0.411248684 0.348824859
vn -0.929862618 0.318032801 0.184961185
vn -0.964731455 0.263236374 0
vn -0.757903934 0.411248595 0.506415069
vn -0.875911415 0.318032831 0.362814307
vn -0.946194351 0.263236254 0.188209847
vn -0.788299441 0.318032831 0.526724935
vn -0.914321303 0.361855865 0.181870192
vn -0.932233989 0.361856014 0
vn -0.891295612 0.263236195 0.369186729
vn -0.670393646 0.318032891 0.670393586
vn -0.802144885 0.263236195 0.535975993
vn -0.861272037 0.361855716 0.356750578
vn -0.747652113 0.647224367 0.148717582
vn -0.762299478 0.647224426 0
vn -0.682168245 0.263236165 0.682168007
vn -0.775124431 0.361855626 0.517921448
vn -0.704272866 0.647224426 0.291719645
vn -0.516685903 0.84998405 0.102775477
vn -0.526808321 0.849984109 0
vn -0.535976112 0.263236165 0.802144885
vn -0.659189105 0.361855537 0.659189105
vn -0.633828938 0.647224426 0.42351082
vn -0.486707389 0.849984109 0.201601058
vn -0.309436023 0.948926151 0.0615507439
vn -0.315498292 0.948926091 0
vn -0.369186699 0.263236165 0.891295612
vn -0.539027154 0.647224426 0.539027154
vn -0.438025057 0.849984109 0.292678952
vn -0.291482359 0.948926151 0.120736018
vn -0.144664541 0.98906225 0.0287755672
vn -0.147498772 0.98906225 0
vn -0.188209966 0.263236344 0.946194351
vn -0.372509688 0.849984109 0.372509629
vn -0.262327164 0.948926151 0.175281435
vn -0.136271045 0.98906225 0.0564453043
vn -0.0361718908 0.999319673 0.00719503313
vn -0.036880482 0.999319673 0
vn -0.00181389623 0.999998331 0
vn -0.001779043 0.999998331 0.00035387461
vn -0.0340731405 0.999319673 0.0141135463
vn -0.00167582231 0.999998331 0.000694147544
vn -0.0306650177 0.999319673 0.020489702
vn -0.00150820054 0.999998331 0.00100774679
vn -0.122640669 0.98906225 0.0819458738
vn -0.0260784328 0.999319673 0.0260784328
vn -0.00128261896 0.999998331 0.00128261838
vn -0.104297251 0.98906225 0.104297273
vn -0.0204896964 0.999319673 0.0306650233
vn -0.00100774691 0.999998331 0.00150820008
vn -0.223090962 0.948926091 0.223090976
vn -0.0141135547 0.999319673 0.0340731554
vn -0.000694147951 0.999998331 0.00167582242
vn -0.0819458589 0.98906225 0.122640684
vn -0.175281435 0.948926151 0.262327164
vn -0.00719504012 0.999319673 0.0361718945
vn -0.000353874027 0.999998331 0.00177904242
vn -0.0564453304 0.98906225 0.136271045
vn -0.292678982 0.849984109 0.438025057
vn -0 0.999319673 0.0368804857
vn -0 0.999998331 0.001813896
vn -0.120735988 0.948926091 0.291482389
vn -0.0287755709 0.98906225 0.144664541
vn -0.423510909 0.647224426 0.633828878
vn 0.00719503919 0.999319673 0.0361718945
vn 0.000353874086 0.999998331 0.00177904277
vn -0 0.98906225 0.147498742
vn -0.201600969 0.849984109 0.486707389
vn -0.0615507215 0.948926091 0.309436053
vn -0.517921507 0.361855626 0.775124431
vn 0.0141135547 0.999319673 0.0340731554
vn 0.000694147951 0.999998331 0.00167582242
vn 0.0287755672 0.98906225 0.144664541
vn -0 0.948926151 0.315498233
vn -0.291719675 0.647224545 0.704272687
vn -0.356750786 0.361855865 0.861271858
vn -0.10277544 0.84998405 0.516685903
vn 0.0204897001 0.999319673 0.030665027
vn 0.00100774691 0.999998331 0.00150820008
vn 0.0564453192 0.98906225 0.136271045
vn -0.148717597 0.647224545 0.747652054
vn -0.181870207 0.361855954 0.914321303
vn 0.0615507104 0.948926151 0.309436053
vn -0 0.849984109 0.526808202
vn 0.0260784384 0.999319673 0.0260784384
vn 0.00128261885 0.999998331 0.0012826185
vn -0 0.647224426 0.762299478
vn -0 0.361855894 0.932233989
vn 0.0819458738 0.98906225 0.122640684
vn 0.10277544 0.84998405 0.516685903
vn 0.120735981 0.948926151 0.291482329
vn 0.0306650177 0.999319673 0.0204897039
vn 0.00150820054 0.999998331 0.00100774691
vn 0.148717597 0.647224545 0.747652054
vn -0 0.263236374 0.964731455
vn 0.10429728 0.98906225 0.104297303
vn 0.201600924 0.849984109 0.486707389
vn 0.17528145 0.948926151 0.262327164
vn 0.181870192 0.361855984 0.914321303
vn 0.188209921 0.263236254 0.946194351
vn 0.291719705 0.647224486 0.704272747
vn 0.292678952 0.849984109 0.438025177
vn 0.223091021 0.948926091 0.223091006
vn 0.36918658 0.263236165 0.891295612
vn 0.356750697 0.361855865 0.861271977
vn 0.423510909 0.647224367 0.633829057
vn 0.535975993 0.263236165 0.802144885
vn 0.517921627 0.361855567 0.775124431
vn 0.372509718 0.849984109 0.372509658
vn 0.122640684 0.98906225 0.0819458738
vn 0.682168245 0.263236195 0.682167947
vn 0.539027154 0.647224486 0.539027035
vn 0.659189165 0.361855567 0.659189105
vn 0.262327194 0.948926151 0.175281435
vn 0.0340731405 0.999319673 0.0141135463
vn 0.00167582231 0.999998331 0.000694147544
vn 0.802144766 0.263236135 0.535976052
vn 0.438025057 0.849984109 0.292678952
vn 0.633828938 0.647224426 0.42351082
vn 0.77512449 0.361855596 0.517921448
vn 0.13627103 0.98906225 0.0564453043
vn 0.0361718871 0.999319673 0.00719503267
vn 0.00177904277 0.999998331 0.000353874551
vn 0.291482389 0.948926151 0.120736018
vn 0.486707419 0.84998405 0.201601088
vn 0.704272866 0.647224426 0.291719645
vn 0.861272037 0.361855686 0.356750578
vn 0.036880482 0.999319673 0
vn 0.00181389612 0.999998331 0
vn 0.144664541 0.98906225 0.0287755653
vn 0.309435993 0.948926151 0.0615507439
vn 0.516685903 0.84998405 0.102775529
vn 0.0361718908 0.999319673 -0.00719503406
vn 0.00177904277 0.999998331 -0.000353874668
vn 0.147498772 0.98906225 0
vn 0.0340731479 0.999319673 -0.0141135463
vn 0.00167582207 0.999998331 -0.000694147544
vn 0.315498233 0.948926151 0
vn 0.144664541 0.98906225 -0.0287755672
vn 0.747652054 0.647224545 0.148717597
vn 0.0306650177 0.999319673 -0.0204897001
vn 0.00150820054 0.999998331 -0.00100774667
vn 0.136271045 0.98906225 -0.0564453155
vn 0.526808321 0.849984109 0
vn 0.309436023 0.948926151 -0.0615507439
vn 0.0260784384 0.999319673 -0.0260784328
vn 0.00128261896 0.999998331 -0.00128261838
vn 0.122640699 0.98906225 -0.0819458738
vn 0.291482359 0.948926151 -0.120736048
vn 0.516685903 0.84998405 -0.102775477
vn 0.762299478 0.647224426 0
vn 0.0204896964 0.999319673 -0.0306650233
vn 0.00100774691 0.999998331 -0.00150820008
vn 0.104297251 0.98906225 -0.104297273
vn 0.262327194 0.948926151 -0.175281435
vn 0.486707419 0.84998405 -0.201601088
vn 0.0141135547 0.999319673 -0.0340731554
vn 0.000694147951 0.999998331 -0.00167582242
vn 0.0819458589 0.98906225 -0.122640684
vn 0.223090976 0.948926091 -0.223090962
vn 0.00719504012 0.999319673 -0.0361718945
vn 0.000353874057 0.999998331 -0.00177904253
vn 0.0564453229 0.98906225 -0.136271045
vn -0 0.999319673 -0.0368804857
vn -0 0.999998331 -0.001813896
vn 0.747652113 0.647224486 -0.148717493
vn 0.438025057 0.849984109 -0.292678952
vn 0.175281405 0.948926151 -0.262327135
vn 0.0287755672 0.98906225 -0.144664526
vn -0.00719503919 0.999319673 -0.0361718908
vn -0.000353874027 0.999998331 -0.00177904242
vn 0.704272866 0.647224426 -0.291719645
vn 0.372509718 0.849984229 -0.372509658
vn 0.120735966 0.948926151 -0.2914823
vn -0 0.98906225 -0.147498757
vn -0.0141135547 0.999319673 -0.0340731516
vn -0.0287755709 0.98906225 -0.144664541
vn -0.0564453192 0.98906225 -0.136271045
vn 0.0615507029 0.948926151 -0.309436023
vn 0.292678952 0.849984109 -0.438025057
vn -0 0.948926151 -0.315498233
vn -0.0615506954 0.948926151 -0.309435993
vn -0.120735981 0.948926151 -0.291482359
vn 0.201600924 0.849984109 -0.486707389
vn 0.10277544 0.84998405 -0.516685903
vn -0 0.849984109 -0.526808202
vn -0.102775432 0.84998405 -0.516685903
vn -0.201600909 0.849984109 -0.48670733
vn -0.292678952 0.849984109 -0.438025117
vn -0.423510879 0.647224426 -0.633828938
vn -0.291719675 0.647224486 -0.704272747
vn -0.148717627 0.647224486 -0.747652113
vn -0 0.647224426 -0.762299478
vn 0.148717642 0.647224605 -0.747651994
vn -0.517921567 0.361855567 -0.775124431
vn -0.356750727 0.361855805 -0.861271977
vn -0.36918667 0.263236165 -0.891295612
vn -0.188209981 0.263236344 -0.946194351
vn -0.181870252 0.361855984 -0.914321303
vn -0 0.263236403 -0.964731336
vn -0 0.361855835 -0.932233989
vn 0.188210025 0.263236314 -0.946194351
vn 0.181870282 0.361855984 -0.914321303
vn 0.369186729 0.263236165 -0.891295612
vn 0.356750786 0.361855924 -0.861271858
vn 0.535975993 0.263236165 -0.802144885
vn 0.291719675 0.647224545 -0.704272687
vn 0.682168245 0.263236165 -0.682168007
vn 0.517921448 0.361855656 -0.775124431
vn 0.42351082 0.647224426 -0.633828938
vn 0.802144766 0.263236165 -0.535976052
vn 0.659189105 0.361855537 -0.659189105
vn 0.539027154 0.647224426 -0.539027154
vn 0.891295552 0.263236225 -0.369186699
vn 0.775124311 0.361855507 -0.517921567
vn 0.633828938 0.647224367 -0.423510969
vn 0.861271977 0.361855716 -0.356750607
vn 0.946194351 0.263236254 -0.188209727
vn 0.914321363 0.361855924 -0.181869969
vn 0.964731455 0.263236374 0
vn 0.932233989 0.361856014 0
vn 0.946194351 0.263236254 0.188209847
vn 0.914321303 0.361855954 0.181870118
vn 0.891295612 0.263236195 0.369186729
g Eff_Hole_0
f 3/3/3 2/2/2 1/1/1
f 4/4/4 3/3/3 1/1/1
f 5/5/5 3/3/3 4/4/4
f 6/6/6 4/4/4 1/1/1
f 7/7/7 6/6/6 1/1/1
f 8/8/8 5/5/5 4/4/4
f 9/9/9 5/5/5 8/8/8
f 6/6/6 10/10/10 4/4/4
f 10/10/10 8/8/8 4/4/4
f 11/11/11 6/6/6 7/7/7
f 12/12/12 11/11/11 7/7/7
f 13/13/13 9/9/9 8/8/8
f 14/14/14 9/9/9 13/13/13
f 10/10/10 15/15/15 8/8/8
f 15/15/15 13/13/13 8/8/8
f 16/16/16 10/10/10 6/6/6
f 11/11/11 16/16/16 6/6/6
f 17/17/17 11/11/11 12/12/12
f 18/18/18 17/17/17 12/12/12
f 19/19/19 14/14/14 13/13/13
f 20/20/20 14/14/14 19/19/19
f 15/15/15 21/21/21 13/13/13
f 21/21/21 19/19/19 13/13/13
f 22/22/22 15/15/15 10/10/10
f 16/16/16 22/22/22 10/10/10
f 23/23/23 16/16/16 11/11/11
f 17/17/17 23/23/23 11/11/11
f 24/24/24 17/17/17 18/18/18
f 25/25/25 24/24/24 18/18/18
f 26/26/26 20/20/20 19/19/19
f 27/27/27 20/20/20 26/26/26
f 21/21/21 28/28/28 19/19/19
f 28/28/28 26/26/26 19/19/19
f 29/29/29 21/21/21 15/15/15
f 22/22/22 29/29/29 15/15/15
f 30/30/30 22/22/22 16/16/16
f 23/23/23 30/30/30 16/16/16
f 31/31/31 23/23/23 17/17/17
f 24/24/24 31/31/31 17/17/17
f 32/32/32 24/24/24 25/25/25
f 33/33/33 32/32/32 25/25/25
f 34/34/34 28/28/28 21/21/21
f 29/29/29 34/34/34 21/21/21
f 35/35/35 29/29/29 22/22/22
f 30/30/30 35/35/35 22/22/22
f 36/36/36 30/30/30 23/23/23
f 31/31/31 36/36/36 23/23/23
f 37/37/37 31/31/31 24/24/24
f 32/32/32 37/37/37 24/24/24
f 38/38/38 32/32/32 33/33/33
f 39/39/39 38/38/38 33/33/33
f 38/38/38 39/39/39 40/40/40
f 38/38/38 41/41/41 32/32/32
f 41/41/41 37/37/37 32/32/32
f 42/42/42 38/38/38 40/40/40
f 41/41/41 38/38/38 42/42/42
f 42/42/42 40/40/40 43/43/43
f 37/37/37 44/44/44 31/31/31
f 44/44/44 36/36/36 31/31/31
f 36/36/36 45/45/45 30/30/30
f 45/45/45 35/35/35 30/30/30
f 41/41/41 46/46/46 37/37/37
f 46/46/46 44/44/44 37/37/37
f 47/47/47 42/42/42 43/43/43
f 47/47/47 43/43/43 48/48/48
f 49/49/49 41/41/41 42/42/42
f 46/46/46 41/41/41 49/49/49
f 49/49/49 42/42/42 47/47/47
f 44/44/44 50/50/50 36/36/36
f 50/50/50 45/45/45 36/36/36
f 51/51/51 47/47/47 48/48/48
f 51/51/51 48/48/48 52/52/52
f 46/46/46 53/53/53 44/44/44
f 53/53/53 50/50/50 44/44/44
f 54/54/54 46/46/46 49/49/49
f 53/53/53 46/46/46 54/54/54
f 55/55/55 49/49/49 47/47/47
f 55/55/55 47/47/47 51/51/51
f 54/54/54 49/49/49 55/55/55
f 56/56/56 51/51/51 52/52/52
f 56/56/56 52/52/52 57/57/57
f 58/58/58 55/55/55 51/51/51
f 58/58/58 51/51/51 56/56/56
f 59/59/59 54/54/54 55/55/55
f 59/59/59 55/55/55 58/58/58
f 60/60/60 53/53/53 54/54/54
f 60/60/60 54/54/54 59/59/59
f 53/53/53 61/61/61 50/50/50
f 61/61/61 53/53/53 60/60/60
f 62/62/62 56/56/56 57/57/57
f 62/62/62 57/57/57 63/63/63
f 64/64/64 62/62/62 63/63/63
f 65/65/65 58/58/58 56/56/56
f 65/65/65 56/56/56 62/62/62
f 66/66/66 62/62/62 64/64/64
f 66/66/66 65/65/65 62/62/62
f 67/67/67 66/66/66 64/64/64
f 68/68/68 59/59/59 58/58/58
f 68/68/68 58/58/58 65/65/65
f 69/69/69 60/60/60 59/59/59
f 69/69/69 59/59/59 68/68/68
f 70/70/70 66/66/66 67/67/67
f 71/71/71 70/70/70 67/67/67
f 72/72/72 65/65/65 66/66/66
f 72/72/72 68/68/68 65/65/65
f 70/70/70 72/72/72 66/66/66
f 73/73/73 70/70/70 71/71/71
f 74/74/74 73/73/73 71/71/71
f 75/75/75 68/68/68 72/72/72
f 75/75/75 69/69/69 68/68/68
f 76/76/76 72/72/72 70/70/70
f 73/73/73 76/76/76 70/70/70
f 76/76/76 75/75/75 72/72/72
f 77/77/77 60/60/60 69/69/69
f 77/77/77 61/61/61 60/60/60
f 78/78/78 73/73/73 74/74/74
f 79/79/79 78/78/78 74/74/74
f 80/80/80 69/69/69 75/75/75
f 80/80/80 77/77/77 69/69/69
f 81/81/81 76/76/76 73/73/73
f 78/78/78 81/81/81 73/73/73
f 82/82/82 75/75/75 76/76/76
f 82/82/82 80/80/80 75/75/75
f 81/81/81 82/82/82 76/76/76
f 83/83/83 78/78/78 79/79/79
f 84/84/84 83/83/83 79/79/79
f 85/85/85 81/81/81 78/78/78
f 83/83/83 85/85/85 78/78/78
f 86/86/86 82/82/82 81/81/81
f 85/85/85 86/86/86 81/81/81
f 87/87/87 80/80/80 82/82/82
f 86/86/86 87/87/87 82/82/82
f 88/88/88 77/77/77 80/80/80
f 87/87/87 88/88/88 80/80/80
f 89/89/89 83/83/83 84/84/84
f 90/90/90 89/89/89 84/84/84
f 91/91/91 85/85/85 83/83/83
f 89/89/89 91/91/91 83/83/83
f 92/92/92 86/86/86 85/85/85
f 91/91/91 92/92/92 85/85/85
f 93/93/93 87/87/87 86/86/86
f 92/92/92 93/93/93 86/86/86
f 94/94/94 89/89/89 90/90/90
f 95/95/95 94/94/94 90/90/90
f 96/96/96 91/91/91 89/89/89
f 94/94/94 96/96/96 89/89/89
f 97/97/97 92/92/92 91/91/91
f 96/96/96 97/97/97 91/91/91
f 98/98/98 94/94/94 95/95/95
f 99/99/99 98/98/98 95/95/95
f 100/100/100 96/96/96 94/94/94
f 98/98/98 100/100/100 94/94/94
f 101/101/101 98/98/98 99/99/99
f 102/102/102 101/101/101 99/99/99
f 93/93/93 103/103/103 87/87/87
f 103/103/103 88/88/88 87/87/87
f 104/104/104 93/93/93 92/92/92
f 97/97/97 104/104/104 92/92/92
f 105/105/105 97/97/97 96/96/96
f 100/100/100 105/105/105 96/96/96
f 106/106/106 100/100/100 98/98/98
f 101/101/101 106/106/106 98/98/98
f 107/107/107 101/101/101 102/102/102
f 108/108/108 107/107/107 102/102/102
f 109/109/109 103/103/103 93/93/93
f 104/104/104 109/109/109 93/93/93
f 110/110/110 104/104/104 97/97/97
f 105/105/105 110/110/110 97/97/97
f 111/111/111 105/105/105 100/100/100
f 106/106/106 111/111/111 100/100/100
f 112/112/112 106/106/106 101/101/101
f 107/107/107 112/112/112 101/101/101
f 113/113/113 107/107/107 108/108/108
f 114/114/114 113/113/113 108/108/108
f 115/115/115 109/109/109 104/104/104
f 110/110/110 115/115/115 104/104/104
f 116/116/116 110/110/110 105/105/105
f 111/111/111 116/116/116 105/105/105
f 117/117/117 111/111/111 106/106/106
f 112/112/112 117/117/117 106/106/106
f 118/118/118 112/112/112 107/107/107
f 113/113/113 118/118/118 107/107/107
f 119/119/119 113/113/113 114/114/114
f 120/120/120 119/119/119 114/114/114
f 121/121/121 115/115/115 110/110/110
f 116/116/116 121/121/121 110/110/110
f 122/122/122 116/116/116 111/111/111
f 117/117/117 122/122/122 111/111/111
f 123/123/123 117/117/117 112/112/112
f 118/118/118 123/123/123 112/112/112
f 124/124/124 118/118/118 113/113/113
f 119/119/119 124/124/124 113/113/113
f 125/125/125 119/119/119 120/120/120
f 126/126/126 125/125/125 120/120/120
f 127/127/127 121/121/121 116/116/116
f 122/122/122 127/127/127 116/116/116
f 128/128/128 122/122/122 117/117/117
f 123/123/123 128/128/128 117/117/117
f 129/129/129 123/123/123 118/118/118
f 124/124/124 129/129/129 118/118/118
f 130/130/130 124/124/124 119/119/119
f 125/125/125 130/130/130 119/119/119
f 131/131/131 125/125/125 126/126/126
f 132/132/132 131/131/131 126/126/126
f 133/133/133 127/127/127 122/122/122
f 128/128/128 133/133/133 122/122/122
f 134/134/134 128/128/128 123/123/123
f 129/129/129 134/134/134 123/123/123
f 135/135/135 129/129/129 124/124/124
f 130/130/130 135/135/135 124/124/124
f 136/136/136 130/130/130 125/125/125
f 131/131/131 136/136/136 125/125/125
f 137/137/137 131/131/131 132/132/132
f 138/138/138 137/137/137 132/132/132
f 139/139/139 133/133/133 128/128/128
f 134/134/134 139/139/139 128/128/128
f 140/140/140 134/134/134 129/129/129
f 135/135/135 140/140/140 129/129/129
f 141/141/141 135/135/135 130/130/130
f 136/136/136 141/141/141 130/130/130
f 142/142/142 136/136/136 131/131/131
f 137/137/137 142/142/142 131/131/131
f 143/143/143 137/137/137 138/138/138
f 144/144/144 143/143/143 138/138/138
f 145/145/145 139/139/139 134/134/134
f 140/140/140 145/145/145 134/134/134
f 146/146/146 140/140/140 135/135/135
f 141/141/141 146/146/146 135/135/135
f 147/147/147 141/141/141 136/136/136
f 142/142/142 147/147/147 136/136/136
f 148/148/148 142/142/142 137/137/137
f 143/143/143 148/148/148 137/137/137
f 149/149/149 143/143/143 144/144/144
f 150/150/150 149/149/149 144/144/144
f 151/151/151 145/145/145 140/140/140
f 146/146/146 151/151/151 140/140/140
f 152/152/152 146/146/146 141/141/141
f 147/147/147 152/152/152 141/141/141
f 153/153/153 147/147/147 142/142/142
f 148/148/148 153/153/153 142/142/142
f 154/154/154 148/148/148 143/143/143
f 149/149/149 154/154/154 143/143/143
f 155/155/155 149/149/149 150/150/150
f 156/156/156 155/155/155 150/150/150
f 157/157/157 151/151/151 146/146/146
f 152/152/152 157/157/157 146/146/146
f 158/158/158 152/152/152 147/147/147
f 153/153/153 158/158/158 147/147/147
f 159/159/159 153/153/153 148/148/148
f 154/154/154 159/159/159 148/148/148
f 160/160/160 154/154/154 149/149/149
f 155/155/155 160/160/160 149/149/149
f 161/161/161 155/155/155 156/156/156
f 162/162/162 161/161/161 156/156/156
f 163/163/163 157/157/157 152/152/152
f 158/158/158 163/163/163 152/152/152
f 164/164/164 158/158/158 153/153/153
f 159/159/159 164/164/164 153/153/153
f 165/165/165 159/159/159 154/154/154
f 160/160/160 165/165/165 154/154/154
f 166/166/166 160/160/160 155/155/155
f 161/161/161 166/166/166 155/155/155
f 167/167/167 161/161/161 162/162/162
f 168/168/168 167/167/167 162/162/162
f 169/169/169 163/163/163 158/158/158
f 164/164/164 169/169/169 158/158/158
f 170/170/170 164/164/164 159/159/159
f 165/165/165 170/170/170 159/159/159
f 171/171/171 165/165/165 160/160/160
f 166/166/166 171/171/171 160/160/160
f 172/172/172 166/166/166 161/161/161
f 167/167/167 172/172/172 161/161/161
f 173/173/173 167/167/167 168/168/168
f 174/174/174 173/173/173 168/168/168
f 175/175/175 169/169/169 164/164/164
f 170/170/170 175/175/175 164/164/164
f 176/176/176 170/170/170 165/165/165
f 171/171/171 176/176/176 165/165/165
f 177/177/177 171/171/171 166/166/166
f 172/172/172 177/177/177 166/166/166
f 178/178/178 172/172/172 167/167/167
f 173/173/173 178/178/178 167/167/167
f 179/179/179 173/173/173 174/174/174
f 180/180/180 179/179/179 174/174/174
f 181/181/181 175/175/175 170/170/170
f 176/176/176 181/181/181 170/170/170
f 182/182/182 176/176/176 171/171/171
f 177/177/177 182/182/182 171/171/171
f 183/183/183 177/177/177 172/172/172
f 178/178/178 183/183/183 172/172/172
f 184/184/184 178/178/178 173/173/173
f 179/179/179 184/184/184 173/173/173
f 185/185/185 179/179/179 180/180/180
f 186/186/186 185/185/185 180/180/180
f 187/187/187 181/181/181 176/176/176
f 182/182/182 187/187/187 176/176/176
f 188/188/188 182/182/182 177/177/177
f 183/183/183 188/188/188 177/177/177
f 189/189/189 183/183/183 178/178/178
f 184/184/184 189/189/189 178/178/178
f 190/190/190 184/184/184 179/179/179
f 185/185/185 190/190/190 179/179/179
f 191/191/191 185/185/185 186/186/186
f 192/192/192 191/191/191 186/186/186
f 193/193/193 187/187/187 182/182/182
f 188/188/188 193/193/193 182/182/182
f 194/194/194 188/188/188 183/183/183
f 189/189/189 194/194/194 183/183/183
f 195/195/195 189/189/189 184/184/184
f 190/190/190 195/195/195 184/184/184
f 196/196/196 190/190/190 185/185/185
f 191/191/191 196/196/196 185/185/185
f 197/197/197 191/191/191 192/192/192
f 198/198/198 197/197/197 192/192/192
f 199/199/199 193/193/193 188/188/188
f 194/194/194 199/199/199 188/188/188
f 200/200/200 194/194/194 189/189/189
f 195/195/195 200/200/200 189/189/189
f 201/201/201 195/195/195 190/190/190
f 196/196/196 201/201/201 190/190/190
f 202/202/202 196/196/196 191/191/191
f 197/197/197 202/202/202 191/191/191
f 203/203/203 197/197/197 198/198/198
f 204/204/204 203/203/203 198/198/198
f 205/205/205 199/199/199 194/194/194
f 200/200/200 205/205/205 194/194/194
f 206/206/206 200/200/200 195/195/195
f 201/201/201 206/206/206 195/195/195
f 207/207/207 201/201/201 196/196/196
f 202/202/202 207/207/207 196/196/196
f 208/208/208 202/202/202 197/197/197
f 203/203/203 208/208/208 197/197/197
f 209/209/209 203/203/203 204/204/204
f 210/210/210 209/209/209 204/204/204
f 211/211/211 205/205/205 200/200/200
f 206/206/206 211/211/211 200/200/200
f 212/212/212 206/206/206 201/201/201
f 207/207/207 212/212/212 201/201/201
f 213/213/213 207/207/207 202/202/202
f 208/208/208 213/213/213 202/202/202
f 214/214/214 208/208/208 203/203/203
f 209/209/209 214/214/214 203/203/203
f 215/215/215 209/209/209 210/210/210
f 216/216/216 215/215/215 210/210/210
f 217/217/217 211/211/211 206/206/206
f 212/212/212 217/217/217 206/206/206
f 218/218/218 212/212/212 207/207/207
f 213/213/213 218/218/218 207/207/207
f 219/219/219 213/213/213 208/208/208
f 214/214/214 219/219/219 208/208/208
f 220/220/220 214/214/214 209/209/209
f 215/215/215 220/220/220 209/209/209
f 221/221/221 215/215/215 216/216/216
f 222/222/222 221/221/221 216/216/216
f 223/223/223 217/217/217 212/212/212
f 218/218/218 223/223/223 212/212/212
f 224/224/224 218/218/218 213/213/213
f 219/219/219 224/224/224 213/213/213
f 225/225/225 219/219/219 214/214/214
f 220/220/220 225/225/225 214/214/214
f 226/226/226 220/220/220 215/215/215
f 221/221/221 226/226/226 215/215/215
f 227/227/227 221/221/221 222/222/222
f 228/228/228 227/227/227 222/222/222
f 229/229/229 227/227/227 228/228/228
f 230/230/230 229/229/229 228/228/228
f 229/229/229 231/231/231 227/227/227
f 227/227/227 232/232/232 221/221/221
f 231/231/231 232/232/232 227/227/227
f 232/232/232 226/226/226 221/221/221
f 231/231/231 233/233/233 232/232/232
f 233/233/233 234/234/234 232/232/232
f 232/232/232 234/234/234 226/226/226
f 233/233/233 235/235/235 234/234/234
f 226/226/226 236/236/236 220/220/220
f 234/234/234 236/236/236 226/226/226
f 236/236/236 225/225/225 220/220/220
f 235/235/235 237/237/237 234/234/234
f 234/234/234 237/237/237 236/236/236
f 235/235/235 238/238/238 237/237/237
f 236/236/236 239/239/239 225/225/225
f 237/237/237 239/239/239 236/236/236
f 238/238/238 240/240/240 237/237/237
f 237/237/237 240/240/240 239/239/239
f 238/238/238 241/241/241 240/240/240
f 239/239/239 242/242/242 225/225/225
f 225/225/225 242/242/242 219/219/219
f 242/242/242 224/224/224 219/219/219
f 240/240/240 243/243/243 239/239/239
f 239/239/239 243/243/243 242/242/242
f 241/241/241 244/244/244 240/240/240
f 240/240/240 244/244/244 243/243/243
f 242/242/242 245/245/245 224/224/224
f 243/243/243 245/245/245 242/242/242
f 244/244/244 241/241/241 246/246/246
f 241/241/241 247/247/247 246/246/246
f 244/244/244 248/248/248 243/243/243
f 243/243/243 248/248/248 245/245/245
f 245/245/245 249/249/249 224/224/224
f 224/224/224 249/249/249 218/218/218
f 249/249/249 223/223/223 218/218/218
f 245/245/245 250/250/250 249/249/249
f 248/248/248 250/250/250 245/245/245
f 248/248/248 244/244/244 251/251/251
f 244/244/244 246/246/246 251/251/251
f 246/246/246 247/247/247 252/252/252
f 247/247/247 253/253/253 252/252/252
f 249/249/249 254/254/254 223/223/223
f 250/250/250 254/254/254 249/249/249
f 250/250/250 248/248/248 255/255/255
f 248/248/248 251/251/251 255/255/255
f 251/251/251 246/246/246 256/256/256
f 246/246/246 252/252/252 256/256/256
f 252/252/252 253/253/253 257/257/257
f 253/253/253 258/258/258 257/257/257
f 254/254/254 259/259/259 223/223/223
f 223/223/223 259/259/259 217/217/217
f 254/254/254 250/250/250 260/260/260
f 250/250/250 255/255/255 260/260/260
f 255/255/255 251/251/251 261/261/261
f 251/251/251 256/256/256 261/261/261
f 256/256/256 252/252/252 262/262/262
f 252/252/252 257/257/257 262/262/262
f 257/257/257 258/258/258 263/263/263
f 258/258/258 264/264/264 263/263/263
f 259/259/259 265/265/265 217/217/217
f 217/217/217 265/265/265 211/211/211
f 260/260/260 255/255/255 266/266/266
f 255/255/255 261/261/261 266/266/266
f 261/261/261 256/256/256 267/267/267
f 256/256/256 262/262/262 267/267/267
f 262/262/262 257/257/257 268/268/268
f 257/257/257 263/263/263 268/268/268
f 263/263/263 264/264/264 269/269/269
f 264/264/264 270/270/270 269/269/269
f 265/265/265 271/271/271 211/211/211
f 211/211/211 271/271/271 205/205/205
f 266/266/266 261/261/261 272/272/272
f 261/261/261 267/267/267 272/272/272
f 267/267/267 262/262/262 273/273/273
f 262/262/262 268/268/268 273/273/273
f 268/268/268 263/263/263 274/274/274
f 263/263/263 269/269/269 274/274/274
f 269/269/269 270/270/270 275/275/275
f 270/270/270 276/276/276 275/275/275
f 276/276/276 277/277/277 275/275/275
f 277/277/277 278/278/278 275/275/275
f 269/269/269 275/275/275 279/279/279
f 275/275/275 278/278/278 279/279/279
f 274/274/274 269/269/269 279/279/279
f 278/278/278 280/280/280 279/279/279
f 279/279/279 280/280/280 281/281/281
f 274/274/274 279/279/279 281/281/281
f 280/280/280 282/282/282 281/281/281
f 268/268/268 274/274/274 283/283/283
f 283/283/283 274/274/274 281/281/281
f 273/273/273 268/268/268 283/283/283
f 281/281/281 282/282/282 284/284/284
f 283/283/283 281/281/281 284/284/284
f 282/282/282 285/285/285 284/284/284
f 273/273/273 283/283/283 286/286/286
f 286/286/286 283/283/283 284/284/284
f 284/284/284 285/285/285 287/287/287
f 286/286/286 284/284/284 287/287/287
f 285/285/285 288/288/288 287/287/287
f 289/289/289 273/273/273 286/286/286
f 267/267/267 273/273/273 289/289/289
f 272/272/272 267/267/267 289/289/289
f 287/287/287 288/288/288 290/290/290
f 288/288/288 291/291/291 290/290/290
f 292/292/292 286/286/286 287/287/287
f 289/289/289 286/286/286 292/292/292
f 292/292/292 287/287/287 290/290/290
f 272/272/272 289/289/289 293/293/293
f 293/293/293 289/289/289 292/292/292
f 290/290/290 291/291/291 294/294/294
f 291/291/291 295/295/295 294/294/294
f 296/296/296 292/292/292 290/290/290
f 293/293/293 292/292/292 296/296/296
f 296/296/296 290/290/290 294/294/294
f 297/297/297 272/272/272 293/293/293
f 266/266/266 272/272/272 297/297/297
f 294/294/294 295/295/295 298/298/298
f 295/295/295 299/299/299 298/298/298
f 300/300/300 293/293/293 296/296/296
f 297/297/297 293/293/293 300/300/300
f 301/301/301 296/296/296 294/294/294
f 301/301/301 294/294/294 298/298/298
f 300/300/300 296/296/296 301/301/301
f 302/302/302 266/266/266 297/297/297
f 260/260/260 266/266/266 302/302/302
f 298/298/298 299/299/299 303/303/303
f 299/299/299 304/304/304 303/303/303
f 305/305/305 301/301/301 298/298/298
f 305/305/305 298/298/298 303/303/303
f 306/306/306 297/297/297 300/300/300
f 302/302/302 297/297/297 306/306/306
f 307/307/307 300/300/300 301/301/301
f 307/307/307 301/301/301 305/305/305
f 306/306/306 300/300/300 307/307/307
f 308/308/308 260/260/260 302/302/302
f 254/254/254 260/260/260 308/308/308
f 259/259/259 254/254/254 308/308/308
f 303/303/303 304/304/304 309/309/309
f 304/304/304 310/310/310 309/309/309
f 311/311/311 305/305/305 303/303/303
f 311/311/311 303/303/303 309/309/309
f 312/312/312 307/307/307 305/305/305
f 312/312/312 305/305/305 311/311/311
f 313/313/313 302/302/302 306/306/306
f 308/308/308 302/302/302 313/313/313
f 259/259/259 308/308/308 314/314/314
f 314/314/314 308/308/308 313/313/313
f 265/265/265 259/259/259 314/314/314
f 315/315/315 306/306/306 307/307/307
f 313/313/313 306/306/306 315/315/315
f 315/315/315 307/307/307 312/312/312
f 309/309/309 310/310/310 316/316/316
f 310/310/310 317/317/317 316/316/316
f 318/318/318 311/311/311 309/309/309
f 318/318/318 309/309/309 316/316/316
f 314/314/314 313/313/313 319/319/319
f 319/319/319 313/313/313 315/315/315
f 265/265/265 314/314/314 320/320/320
f 320/320/320 314/314/314 319/319/319
f 271/271/271 265/265/265 320/320/320
f 321/321/321 312/312/312 311/311/311
f 321/321/321 311/311/311 318/318/318
f 322/322/322 315/315/315 312/312/312
f 319/319/319 315/315/315 322/322/322
f 322/322/322 312/312/312 321/321/321
f 316/316/316 317/317/317 323/323/323
f 317/317/317 324/324/324 323/323/323
f 320/320/320 319/319/319 325/325/325
f 325/325/325 319/319/319 322/322/322
f 271/271/271 320/320/320 326/326/326
f 326/326/326 320/320/320 325/325/325
f 327/327/327 318/318/318 316/316/316
f 327/327/327 316/316/316 323/323/323
f 328/328/328 322/322/322 321/321/321
f 325/325/325 322/322/322 328/328/328
f 329/329/329 321/321/321 318/318/318
f 329/329/329 318/318/318 327/327/327
f 328/328/328 321/321/321 329/329/329
f 323/323/323 324/324/324 330/330/330
f 324/324/324 331/331/331 330/330/330
f 332/332/332 325/325/325 328/328/328
f 326/326/326 325/325/325 332/332/332
f 333/333/333 271/271/271 326/326/326
f 271/271/271 333/333/333 205/205/205
f 205/205/205 333/333/333 199/199/199
f 334/334/334 327/327/327 323/323/323
f 334/334/334 323/323/323 330/330/330
f 335/335/335 328/328/328 329/329/329
f 332/332/332 328/328/328 335/335/335
f 336/336/336 329/329/329 327/327/327
f 336/336/336 327/327/327 334/334/334
f 335/335/335 329/329/329 336/336/336
f 337/337/337 326/326/326 332/332/332
f 333/333/333 326/326/326 337/337/337
f 333/333/333 338/338/338 199/199/199
f 338/338/338 333/333/333 337/337/337
f 199/199/199 338/338/338 193/193/193
f 339/339/339 332/332/332 335/335/335
f 337/337/337 332/332/332 339/339/339
f 340/340/340 335/335/335 336/336/336
f 339/339/339 335/335/335 340/340/340
f 341/341/341 336/336/336 334/334/334
f 340/340/340 336/336/336 341/341/341
f 338/338/338 342/342/342 193/193/193
f 193/193/193 342/342/342 187/187/187
f 338/338/338 337/337/337 343/343/343
f 343/343/343 337/337/337 339/339/339
f 342/342/342 338/338/338 343/343/343
f 344/344/344 339/339/339 340/340/340
f 343/343/343 339/339/339 344/344/344
f 342/342/342 345/345/345 187/187/187
f 187/187/187 345/345/345 181/181/181
f 342/342/342 343/343/343 346/346/346
f 346/346/346 343/343/343 344/344/344
f 345/345/345 342/342/342 346/346/346
f 344/344/344 340/340/340 347/347/347
f 347/347/347 340/340/340 341/341/341
f 341/341/341 334/334/334 348/348/348
f 348/348/348 334/334/334 330/330/330
f 345/345/345 349/349/349 181/181/181
f 181/181/181 349/349/349 175/175/175
f 346/346/346 344/344/344 350/350/350
f 350/350/350 344/344/344 347/347/347
f 345/345/345 346/346/346 351/351/351
f 349/349/349 345/345/345 351/351/351
f 351/351/351 346/346/346 350/350/350
f 347/347/347 341/341/341 352/352/352
f 352/352/352 341/341/341 348/348/348
f 348/348/348 330/330/330 353/353/353
f 330/330/330 331/331/331 353/353/353
f 331/331/331 354/354/354 353/353/353
f 349/349/349 355/355/355 175/175/175
f 175/175/175 355/355/355 169/169/169
f 350/350/350 347/347/347 356/356/356
f 356/356/356 347/347/347 352/352/352
f 351/351/351 350/350/350 357/357/357
f 357/357/357 350/350/350 356/356/356
f 349/349/349 351/351/351 358/358/358
f 355/355/355 349/349/349 358/358/358
f 358/358/358 351/351/351 357/357/357
f 359/359/359 348/348/348 353/353/353
f 352/352/352 348/348/348 359/359/359
f 353/353/353 354/354/354 360/360/360
f 359/359/359 353/353/353 360/360/360
f 354/354/354 361/361/361 360/360/360
f 356/356/356 352/352/352 362/362/362
f 362/362/362 352/352/352 359/359/359
f 357/357/357 356/356/356 363/363/363
f 363/363/363 356/356/356 362/362/362
f 358/358/358 357/357/357 364/364/364
f 364/364/364 357/357/357 363/363/363
f 355/355/355 358/358/358 365/365/365
f 365/365/365 358/358/358 364/364/364
f 360/360/360 361/361/361 366/366/366
f 361/361/361 367/367/367 366/366/366
f 368/368/368 359/359/359 360/360/360
f 362/362/362 359/359/359 368/368/368
f 368/368/368 360/360/360 366/366/366
f 363/363/363 362/362/362 369/369/369
f 369/369/369 362/362/362 368/368/368
f 364/364/364 363/363/363 370/370/370
f 370/370/370 363/363/363 369/369/369
f 366/366/366 367/367/367 371/371/371
f 367/367/367 372/372/372 371/371/371
f 373/373/373 368/368/368 366/366/366
f 369/369/369 368/368/368 373/373/373
f 373/373/373 366/366/366 371/371/371
f 371/371/371 372/372/372 374/374/374
f 372/372/372 375/375/375 374/374/374
f 376/376/376 369/369/369 373/373/373
f 370/370/370 369/369/369 376/376/376
f 377/377/377 373/373/373 371/371/371
f 377/377/377 371/371/371 374/374/374
f 376/376/376 373/373/373 377/377/377
f 378/378/378 364/364/364 370/370/370
f 365/365/365 364/364/364 378/378/378
f 374/374/374 375/375/375 379/379/379
f 375/375/375 380/380/380 379/379/379
f 381/381/381 377/377/377 374/374/374
f 381/381/381 374/374/374 379/379/379
f 382/382/382 370/370/370 376/376/376
f 378/378/378 370/370/370 382/382/382
f 383/383/383 376/376/376 377/377/377
f 383/383/383 377/377/377 381/381/381
f 382/382/382 376/376/376 383/383/383
f 379/379/379 380/380/380 384/384/384
f 380/380/380 385/385/385 384/384/384
f 386/386/386 381/381/381 379/379/379
f 386/386/386 379/379/379 384/384/384
f 387/387/387 383/383/383 381/381/381
f 387/387/387 381/381/381 386/386/386
f 388/388/388 382/382/382 383/383/383
f 388/388/388 383/383/383 387/387/387
f 389/389/389 378/378/378 382/382/382
f 389/389/389 382/382/382 388/388/388
f 384/384/384 385/385/385 390/390/390
f 385/385/385 391/391/391 390/390/390
f 392/392/392 386/386/386 384/384/384
f 392/392/392 384/384/384 390/390/390
f 393/393/393 387/387/387 386/386/386
f 393/393/393 386/386/386 392/392/392
f 394/394/394 388/388/388 387/387/387
f 394/394/394 387/387/387 393/393/393
f 390/390/390 391/391/391 395/395/395
f 391/391/391 396/396/396 395/395/395
f 397/397/397 392/392/392 390/390/390
f 397/397/397 390/390/390 395/395/395
f 398/398/398 393/393/393 392/392/392
f 398/398/398 392/392/392 397/397/397
f 395/395/395 396/396/396 399/399/399
f 396/396/396 400/400/400 399/399/399
f 401/401/401 397/397/397 395/395/395
f 401/401/401 395/395/395 399/399/399
f 399/399/399 400/400/400 402/402/402
f 400/400/400 403/403/403 402/402/402
f 404/404/404 388/388/388 394/394/394
f 404/404/404 389/389/389 388/388/388
f 405/405/405 394/394/394 393/393/393
f 405/405/405 393/393/393 398/398/398
f 406/406/406 398/398/398 397/397/397
f 406/406/406 397/397/397 401/401/401
f 407/407/407 401/401/401 399/399/399
f 407/407/407 399/399/399 402/402/402
f 402/402/402 403/403/403 408/408/408
f 403/403/403 409/409/409 408/408/408
f 410/410/410 404/404/404 394/394/394
f 410/410/410 394/394/394 405/405/405
f 411/411/411 405/405/405 398/398/398
f 411/411/411 398/398/398 406/406/406
f 412/412/412 406/406/406 401/401/401
f 412/412/412 401/401/401 407/407/407
f 413/413/413 407/407/407 402/402/402
f 413/413/413 402/402/402 408/408/408
f 408/408/408 409/409/409 414/414/414
f 409/409/409 27/27/27 414/414/414
f 414/414/414 27/27/27 26/26/26
f 415/415/415 408/408/408 414/414/414
f 415/415/415 413/413/413 408/408/408
f 416/416/416 414/414/414 26/26/26
f 416/416/416 415/415/415 414/414/414
f 28/28/28 416/416/416 26/26/26
f 417/417/417 407/407/407 413/413/413
f 417/417/417 412/412/412 407/407/407
f 418/418/418 406/406/406 412/412/412
f 418/418/418 411/411/411 406/406/406
f 419/419/419 413/413/413 415/415/415
f 419/419/419 417/417/417 413/413/413
f 420/420/420 415/415/415 416/416/416
f 420/420/420 419/419/419 415/415/415
f 421/421/421 416/416/416 28/28/28
f 421/421/421 420/420/420 416/416/416
f 34/34/34 421/421/421 28/28/28
f 422/422/422 412/412/412 417/417/417
f 422/422/422 418/418/418 412/412/412
f 423/423/423 417/417/417 419/419/419
f 423/423/423 422/422/422 417/417/417
f 424/424/424 419/419/419 420/420/420
f 424/424/424 423/423/423 419/419/419
f 425/425/425 420/420/420 421/421/421
f 425/425/425 424/424/424 420/420/420
f 426/426/426 421/421/421 34/34/34
f 426/426/426 425/425/425 421/421/421
f 427/427/427 426/426/426 34/34/34
f 427/427/427 34/34/34 29/29/29
f 35/35/35 427/427/427 29/29/29
f 428/428/428 427/427/427 35/35/35
f 45/45/45 428/428/428 35/35/35
f 429/429/429 426/426/426 427/427/427
f 428/428/428 429/429/429 427/427/427
f 430/430/430 425/425/425 426/426/426
f 429/429/429 430/430/430 426/426/426
f 431/431/431 424/424/424 425/425/425
f 430/430/430 431/431/431 425/425/425
f 432/432/432 423/423/423 424/424/424
f 431/431/431 432/432/432 424/424/424
f 433/433/433 428/428/428 45/45/45
f 50/50/50 433/433/433 45/45/45
f 61/61/61 433/433/433 50/50/50
f 434/434/434 429/429/429 428/428/428
f 433/433/433 434/434/434 428/428/428
f 61/61/61 435/435/435 433/433/433
f 435/435/435 434/434/434 433/433/433
f 435/435/435 61/61/61 77/77/77
f 88/88/88 435/435/435 77/77/77
f 436/436/436 435/435/435 88/88/88
f 435/435/435 436/436/436 434/434/434
f 103/103/103 436/436/436 88/88/88
f 434/434/434 437/437/437 429/429/429
f 436/436/436 437/437/437 434/434/434
f 437/437/437 430/430/430 429/429/429
f 438/438/438 436/436/436 103/103/103
f 436/436/436 438/438/438 437/437/437
f 109/109/109 438/438/438 103/103/103
f 437/437/437 439/439/439 430/430/430
f 438/438/438 439/439/439 437/437/437
f 439/439/439 431/431/431 430/430/430
f 440/440/440 438/438/438 109/109/109
f 438/438/438 440/440/440 439/439/439
f 115/115/115 440/440/440 109/109/109
f 439/439/439 441/441/441 431/431/431
f 440/440/440 441/441/441 439/439/439
f 441/441/441 432/432/432 431/431/431
f 442/442/442 440/440/440 115/115/115
f 440/440/440 442/442/442 441/441/441
f 121/121/121 442/442/442 115/115/115
f 441/441/441 443/443/443 432/432/432
f 442/442/442 443/443/443 441/441/441
f 444/444/444 442/442/442 121/121/121
f 442/442/442 444/444/444 443/443/443
f 127/127/127 444/444/444 121/121/121
f 443/443/443 445/445/445 432/432/432
f 432/432/432 445/445/445 423/423/423
f 445/445/445 422/422/422 423/423/423
f 446/446/446 444/444/444 127/127/127
f 133/133/133 446/446/446 127/127/127
f 444/444/444 447/447/447 443/443/443
f 443/443/443 447/447/447 445/445/445
f 444/444/444 446/446/446 447/447/447
f 445/445/445 448/448/448 422/422/422
f 447/447/447 448/448/448 445/445/445
f 448/448/448 418/418/418 422/422/422
f 449/449/449 446/446/446 133/133/133
f 139/139/139 449/449/449 133/133/133
f 446/446/446 450/450/450 447/447/447
f 447/447/447 450/450/450 448/448/448
f 446/446/446 449/449/449 450/450/450
f 448/448/448 451/451/451 418/418/418
f 450/450/450 451/451/451 448/448/448
f 451/451/451 411/411/411 418/418/418
f 452/452/452 449/449/449 139/139/139
f 145/145/145 452/452/452 139/139/139
f 449/449/449 453/453/453 450/450/450
f 450/450/450 453/453/453 451/451/451
f 449/449/449 452/452/452 453/453/453
f 451/451/451 454/454/454 411/411/411
f 453/453/453 454/454/454 451/451/451
f 454/454/454 405/405/405 411/411/411
f 454/454/454 410/410/410 405/405/405
f 453/453/453 455/455/455 454/454/454
f 452/452/452 455/455/455 453/453/453
f 455/455/455 410/410/410 454/454/454
f 456/456/456 452/452/452 145/145/145
f 452/452/452 456/456/456 455/455/455
f 151/151/151 456/456/456 145/145/145
f 455/455/455 457/457/457 410/410/410
f 456/456/456 457/457/457 455/455/455
f 457/457/457 404/404/404 410/410/410
f 458/458/458 456/456/456 151/151/151
f 456/456/456 458/458/458 457/457/457
f 157/157/157 458/458/458 151/151/151
f 457/457/457 459/459/459 404/404/404
f 458/458/458 459/459/459 457/457/457
f 459/459/459 389/389/389 404/404/404
f 460/460/460 458/458/458 157/157/157
f 458/458/458 460/460/460 459/459/459
f 163/163/163 460/460/460 157/157/157
f 459/459/459 461/461/461 389/389/389
f 460/460/460 461/461/461 459/459/459
f 461/461/461 378/378/378 389/389/389
f 461/461/461 365/365/365 378/378/378
f 462/462/462 460/460/460 163/163/163
f 460/460/460 462/462/462 461/461/461
f 462/462/462 365/365/365 461/461/461
f 169/169/169 462/462/462 163/163/163
f 462/462/462 355/355/355 365/365/365
f 355/355/355 462/462/462 169/169/169
