g Plane002
v 18.5473881 -5.58848572 -4.6381526
v 20.7718868 -3.72565699 -3.80114007
v 19.5805588 -5.58848572 -5.23252487
v 19.6966724 -3.72565675 -3.11058211
v 17.514904 -5.58848572 -4.09619951
v 21.4866791 -1.86282802 -2.94230986
v 18.6228676 -3.72565675 -2.47746491
v 16.4840546 -5.58848572 -3.60599422
v 20.3862419 -1.86282766 -2.1940403
v 21.7249451 0 -2.65603352
v 17.5511742 -3.72565675 -1.90134275
v 15.4557858 -5.58848572 -3.16686463
v 19.2876492 -1.86282837 -1.50622475
v 20.6160984 6.10351549E-07 -1.88852656
v 21.4866791 1.86282957 -2.94231009
v 16.4822636 -3.72565675 -1.38176882
v 14.4310446 -5.58848572 -2.77813768
v 18.1914406 -1.86282802 -0.878552377
v 19.509243 0 -1.18247819
v 20.38624 1.86282897 -2.19404054
v 20.7718868 3.72565842 -3.8011415
v 15.4168358 -3.72565675 -0.918295979
v 13.4107714 -5.58848572 -2.43914199
v 17.0981464 -1.86282802 -0.310711592
v 18.4048634 0 -0.537622452
v 19.2876492 1.86282897 -1.50622535
v 19.6966724 3.72565842 -3.11058307
v 19.5805588 5.58848619 -5.23252535
v 18.5473881 5.58848619 -4.63815308
v 18.6228714 3.72565794 -2.47746658
v 17.514904 5.58848476 -4.09620047
v 14.3555708 -3.72565675 -0.51047802
v 12.3959179 -5.58848572 -2.14920473
v 16.0083084 -1.86282837 0.197608948
v 17.3034439 0 0.0463071093
v 18.1914406 1.86282897 -0.878552854
v 17.5511742 3.72565794 -1.90134442
v 16.4840546 5.58848476 -3.60599542
v 13.2991648 -3.72565675 -0.157868043
v 11.3874264 -5.58848572 -1.90765381
v 14.9224482 -1.86282837 0.646720111
v 16.2054653 0 0.569577038
v 17.0981483 1.86282897 -0.310712188
v 16.4822636 3.72565794 -1.38177013
v 15.4557858 5.58848476 -3.16686583
v 12.2482958 -3.72565675 0.139980987
v 10.3862429 -5.58848572 -1.71381652
v 13.8411102 -1.86282802 1.03693402
v 15.111413 0 1.03245282
v 16.0083103 1.86282897 0.197608203
v 15.4168358 3.72565794 -0.918297529
v 14.4310417 5.58848476 -2.77813959
v 11.2036667 -3.72565675 0.383514732
v 9.39331532 -5.58848572 -1.56702089
v 12.7648239 -1.86282837 1.36856091
v 14.0217628 0 1.43520093
v 14.9224482 1.86282837 0.646719754
v 14.3555689 3.72565794 -0.51047945
v 13.4107685 5.58848476 -2.43914342
v 10.1659498 -3.72565675 0.573180854
v 8.40959454 -5.58848572 -1.46659493
v 11.6941185 -1.86282766 1.64191329
v 12.9369965 0 1.77808738
v 13.8411102 1.86282897 1.03693306
v 13.2991676 3.72565794 -0.157869607
v 12.395915 5.58848476 -2.1492064
v 9.13584423 -3.72565675 0.70942533
v 7.43601322 -5.58848572 -1.41186595
v 10.629529 -1.86282802 1.85730124
v 11.8576002 6.10351549E-07 2.06137896
v 12.7648211 1.86282837 1.36856055
v 12.2483006 3.72565842 0.139979139
v 11.3874264 5.58848476 -1.90765524
v 8.11403561 -3.72565675 0.792694688
v 6.47352791 -5.58848572 -1.40216148
v 9.57159615 -1.86282802 2.01503682
v 10.7840576 6.10351549E-07 2.2853415
v 11.6941137 1.86282897 1.64191234
v 11.2036638 3.72565794 0.383513123
v 10.3862429 5.58848476 -1.71381807
v 7.10120821 -3.72565675 0.823436797
v 5.52307844 -5.58848572 -1.43681002
v 8.52084446 -1.86282766 2.11543107
v 9.71684837 0 2.45024037
v 10.6295261 1.86282897 1.85730088
v 10.1659498 3.72565794 0.573179245
v 9.39331532 5.58848476 -1.56702256
v 6.09805155 -3.72565699 0.802097082
v 4.58561516 -5.58848572 -1.51513851
v 7.47781467 -1.86282802 2.15879536
v 8.65645027 0 2.55634284
v 9.57159615 1.86282897 2.01503587
v 9.13584232 3.72565794 0.709423363
v 8.40959167 5.58848476 -1.46659684
v 5.1052537 -3.72565675 0.729122996
v 3.66208005 -5.58848572 -1.63647473
v 6.44303465 -1.86282802 2.14544106
v 7.60334921 0 2.6039145
v 8.52084255 1.86282897 2.11543012
v 8.11403561 3.72565794 0.792693138
v 7.43601322 5.58848476 -1.4118675
v 4.12351084 -3.72565699 0.604960918
v 2.75342035 -5.58848572 -1.8001467
v 5.41704082 -1.86282802 2.07567954
v 6.55802727 0 2.59322262
v 7.47781467 1.86282957 2.15879488
v 7.10120821 3.72565842 0.823435187
v 6.47352791 5.58848476 -1.40216339
v 3.15349603 -3.72565675 0.430057287
v 1.86058104 -5.58848572 -2.0054822
v 4.40036345 -1.86282802 1.94982171
v 5.52096891 0 2.52453136
v 6.44303465 1.86282957 2.14544034
v 6.09805155 3.72565794 0.802095652
v 5.52307606 5.58848476 -1.43681145
v 2.19591308 -3.72565675 0.204858944
v 0.984511673 -5.58848619 -2.25180888
v 3.39354229 -1.86282802 1.76817954
v 4.49265385 6.10351549E-07 2.39810896
v 5.41704082 1.86282837 2.07567859
v 5.10525846 3.72565722 0.729121447
v 4.58561516 5.58848476 -1.5151397
v 1.2514379 -3.72565675 -0.070187211
v 0.12615478 -5.58848619 -2.53845382
v 2.39710927 -1.86282802 1.53106332
v 3.47355938 6.10351549E-07 2.21421957
v 4.40036631 1.86282897 1.94982123
v 4.12350798 3.72565842 0.604959369
v 3.66207767 5.58848476 -1.63647592
v 0.320764154 -3.72565699 -0.394634664
v -0.713541269 -5.58848619 -2.86474538
v 1.41159177 -1.86282802 1.23878551
v 2.46417236 6.10351549E-07 1.97313142
v 3.39354491 1.86282897 1.76817882
v 3.15349603 3.72565794 0.430055737
v 2.75341797 5.58848476 -1.80014777
v -0.59541744 -3.72565675 -0.768036723
v -1.53363764 -5.58848619 -3.23001146
v 0.437530518 -1.86282802 0.891656458
v 1.46497798 6.10351549E-07 1.67510951
v 2.39710927 1.86282957 1.53106272
v 2.19591308 3.72565722 0.204857513
v 1.86058104 5.58848476 -2.00548291
v -1.49642813 -3.72565722 -1.18994689
v -2.33318114 -5.58848619 -3.63357902
v -0.524545908 -1.86282766 0.489988357
v 0.476451397 0 1.32042038
v 1.41159177 1.86282897 1.23878443
v 1.25143552 3.72565842 -0.0701882541
v 0.984511673 5.58848476 -2.25180936
v -2.38156986 -3.72565699 -1.65991831
v -3.11122918 -5.58848619 -4.07477617
v -1.47410393 -1.86282802 0.0340911895
v -0.500916719 1.2207031E-06 0.909329951
v 0.437528074 1.86282957 0.891656101
v 0.320764154 3.72565842 -0.394635737
v 0.126152337 5.58848619 -2.53845429
v -3.25015736 -3.72565675 -2.17750478
v -3.86683583 -5.58848619 -4.55293131
v -2.41060305 -1.86282837 -0.475722849
v -1.46665895 0 0.442103595
v -0.524544656 1.86282957 0.48998785
v -0.595419884 3.72565961 -0.768037558
v -0.713542461 5.58848763 -2.86474538
v -4.10150623 -3.72565699 -2.74225879
v -4.59905005 -5.58848619 -5.06737089
v -3.33351684 -1.86282837 -1.03914142
v -2.42028069 0 -0.0809903219
v -1.47410393 1.86282957 0.0340911373
v -1.49642694 3.72565794 -1.18994796
v -1.53363883 5.58848619 -3.23001122
v -4.93492413 -3.72565699 -3.35373378
v -5.30693483 -5.58848619 -5.61742401
v -4.24231195 -1.86282837 -1.65585518
v -3.36129999 0 -0.65968734
v -2.41060305 1.86282837 -0.475722849
v -2.38156986 3.72565913 -1.65991914
v -2.33318233 5.58848619 -3.63357878
v -5.74972391 -3.72565722 -4.0114851
v -5.98953867 -5.58848619 -6.2024169
v -5.13645124 -1.86282837 -2.3255527
v -4.28924179 0 -1.29372108
v -3.33351684 1.86282837 -1.03914165
v -3.25015855 3.72565794 -2.17750478
v -3.11122918 5.58848619 -4.0747757
v -6.54521942 -3.72565722 -4.7150631
v -6.64591885 -5.58848619 -6.82167721
v -6.01540041 -1.86282802 -3.04792047
v -5.20362425 0 -1.98282468
v -4.24231052 1.86282897 -1.65585554
v -4.10150623 3.72565913 -2.74225879
v -3.86683583 5.58848619 -4.55293036
v -7.32072258 -3.72565722 -5.46402168
v -7.2751255 -5.58848619 -7.47453451
v -6.87862921 -1.86282837 -3.82264924
v -6.10395241 0 -2.72673297
v -5.13644886 1.86282957 -2.3255527
v -4.93492556 3.72565842 -3.35373402
v -4.59905243 5.58848619 -5.06736994
v -8.07554054 -3.72565722 -6.2579155
v -7.87621689 -5.58848619 -8.16031551
v -7.72560024 -1.86282861 -4.64942741
v -6.98976183 0 -3.52517915
v -6.01540041 1.86282897 -3.04792047
v -5.74972534 3.72565842 -4.0114851
v -5.30693722 5.58848619 -5.61742163
v -8.80898762 -3.72565722 -7.09629679
v -8.448246 -5.58848619 -8.8783474
v -9.52037907 -3.72565722 -7.97872066
v -8.55578995 -1.86282861 -5.52794313
v -9.36864948 -1.86282802 -6.45788622
v -10.1636591 -1.86282802 -7.43894339
v -7.8605628 0 -4.37789726
v -6.87862778 1.86282897 -3.82264924
v -6.54521942 3.72565842 -4.71506262
v -5.98953962 5.58848619 -6.20241499
v -9.55520439 0 -6.24508238
v -10.3780861 0 -7.25901842
v -8.7158699 0 -5.28461885
v -7.72560167 1.86282897 -4.64942789
v -7.32072115 3.72565913 -5.46402168
v -6.64592028 5.58848619 -6.8216753
v -8.55578804 1.86282837 -5.52794313
v -9.36864948 1.86282897 -6.45788574
v -10.1636591 1.86282957 -7.43894291
v -8.07553959 3.72565913 -6.25791502
v -7.27512693 5.58848619 -7.47453308
v -8.80898762 3.72565842 -7.09629488
v -9.52037907 3.72565842 -7.97871876
v -7.87621927 5.58848619 -8.16031265
v -8.44824696 5.58848619 -8.87834358
vt 0.96874994 0.999999881
vt 0.999999881 0.833333135
vt 0.99999994 0.999999881
vt 0.968749881 0.833333135
vt 0.93749994 0.999999881
vt 0.999999881 0.666666508
vt 0.937499881 0.833333135
vt 0.90624994 0.999999881
vt 0.968749881 0.666666508
vt 0.999999881 0.499999821
vt 0.906249881 0.833333135
vt 0.87499994 0.999999881
vt 0.937499881 0.666666508
vt 0.968749881 0.499999821
vt 0.999999821 0.333333135
vt 0.874999881 0.833333135
vt 0.84374994 0.999999881
vt 0.906249881 0.666666508
vt 0.937499881 0.499999821
vt 0.968749821 0.333333135
vt 0.999999762 0.166666448
vt 0.843749881 0.833333194
vt 0.81249994 0.999999881
vt 0.874999881 0.666666508
vt 0.906249881 0.499999821
vt 0.937499821 0.333333135
vt 0.968749762 0.166666448
vt 0.999999762 -1.1920929E-07
vt 0.968749762 -1.1920929E-07
vt 0.937499762 0.166666448
vt 0.937499762 -1.1920929E-07
vt 0.812499881 0.833333194
vt 0.78124994 0.999999881
vt 0.843749881 0.666666508
vt 0.874999881 0.499999821
vt 0.906249821 0.333333135
vt 0.906249762 0.166666448
vt 0.906249762 -1.1920929E-07
vt 0.781249881 0.833333194
vt 0.74999994 0.999999881
vt 0.812499881 0.666666508
vt 0.843749881 0.499999821
vt 0.874999821 0.333333135
vt 0.874999762 0.166666448
vt 0.874999762 -1.1920929E-07
vt 0.749999881 0.833333194
vt 0.718749881 0.999999881
vt 0.781249881 0.666666508
vt 0.812499881 0.499999821
vt 0.843749821 0.333333135
vt 0.843749762 0.166666448
vt 0.843749762 -1.1920929E-07
vt 0.718749881 0.833333254
vt 0.687499881 0.999999881
vt 0.749999881 0.666666508
vt 0.781249881 0.499999821
vt 0.812499821 0.333333135
vt 0.812499762 0.166666448
vt 0.812499762 -1.1920929E-07
vt 0.687499881 0.833333254
vt 0.656249881 0.99999994
vt 0.718749881 0.666666508
vt 0.749999881 0.499999821
vt 0.781249821 0.333333135
vt 0.781249762 0.166666448
vt 0.781249762 -1.1920929E-07
vt 0.656249881 0.833333254
vt 0.624999881 0.99999994
vt 0.687499881 0.666666508
vt 0.718749881 0.499999821
vt 0.749999881 0.333333135
vt 0.749999762 0.166666448
vt 0.749999762 -1.1920929E-07
vt 0.624999881 0.833333254
vt 0.593749881 0.99999994
vt 0.656249881 0.666666508
vt 0.687499881 0.499999821
vt 0.718749821 0.333333135
vt 0.718749762 0.166666448
vt 0.718749762 -1.1920929E-07
vt 0.593749881 0.833333254
vt 0.562499881 0.99999994
vt 0.624999881 0.666666508
vt 0.656249881 0.49999994
vt 0.687499821 0.333333135
vt 0.687499762 0.166666448
vt 0.687499762 -1.1920929E-07
vt 0.562499881 0.833333254
vt 0.531249881 0.99999994
vt 0.593749881 0.666666508
vt 0.624999881 0.49999994
vt 0.656249821 0.333333313
vt 0.656249762 0.166666567
vt 0.656249762 -1.1920929E-07
vt 0.531249881 0.833333254
vt 0.499999911 0.99999994
vt 0.562499881 0.666666508
vt 0.593749881 0.49999994
vt 0.624999821 0.333333313
vt 0.624999762 0.166666567
vt 0.624999762 -1.1920929E-07
vt 0.499999911 0.833333254
vt 0.46874994 0.99999994
vt 0.531249881 0.666666508
vt 0.562499881 0.49999994
vt 0.593749821 0.333333313
vt 0.593749762 0.166666567
vt 0.593749762 -1.1920929E-07
vt 0.46874994 0.833333254
vt 0.43749994 0.99999994
vt 0.499999881 0.666666508
vt 0.531249881 0.49999994
vt 0.562499821 0.333333313
vt 0.562499762 0.166666567
vt 0.562499762 -1.1920929E-07
vt 0.43749994 0.833333254
vt 0.40624994 0.99999994
vt 0.468749881 0.666666567
vt 0.499999821 0.49999994
vt 0.531249821 0.333333313
vt 0.531249762 0.166666567
vt 0.531249762 -1.1920929E-07
vt 0.40624994 0.833333254
vt 0.37499994 0.99999994
vt 0.437499881 0.666666567
vt 0.468749762 0.49999994
vt 0.499999821 0.333333313
vt 0.499999821 0.166666567
vt 0.499999821 -1.1920929E-07
vt 0.37499994 0.833333254
vt 0.34374994 0.99999994
vt 0.406249881 0.666666567
vt 0.437499762 0.49999994
vt 0.468749762 0.333333313
vt 0.468749762 0.166666567
vt 0.468749762 -1.1920929E-07
vt 0.34374994 0.833333254
vt 0.31249994 0.99999994
vt 0.374999881 0.666666567
vt 0.406249762 0.49999994
vt 0.437499762 0.333333313
vt 0.437499762 0.166666567
vt 0.437499762 -1.1920929E-07
vt 0.31249994 0.833333313
vt 0.28124994 0.99999994
vt 0.343749881 0.666666567
vt 0.374999762 0.49999994
vt 0.406249762 0.333333313
vt 0.406249762 0.166666567
vt 0.406249762 -1.1920929E-07
vt 0.28124994 0.833333313
vt 0.24999994 0.99999994
vt 0.312499881 0.666666627
vt 0.343749762 0.49999994
vt 0.374999762 0.333333313
vt 0.374999762 0.166666567
vt 0.374999762 -1.1920929E-07
vt 0.24999994 0.833333313
vt 0.21874994 0.99999994
vt 0.281249881 0.666666627
vt 0.312499762 0.5
vt 0.343749762 0.333333313
vt 0.343749762 0.166666567
vt 0.343749762 -1.1920929E-07
vt 0.21874994 0.833333313
vt 0.18749994 0.99999994
vt 0.249999881 0.666666627
vt 0.281249762 0.5
vt 0.312499762 0.333333313
vt 0.312499762 0.166666567
vt 0.312499762 0
vt 0.18749994 0.833333313
vt 0.15624994 0.99999994
vt 0.218749881 0.666666627
vt 0.249999821 0.5
vt 0.281249762 0.333333313
vt 0.281249762 0.166666567
vt 0.281249762 0
vt 0.15624994 0.833333313
vt 0.12499994 0.99999994
vt 0.187499881 0.666666627
vt 0.218749821 0.5
vt 0.249999762 0.333333313
vt 0.249999762 0.166666567
vt 0.249999762 0
vt 0.12499994 0.833333313
vt 0.0937499404 0.99999994
vt 0.156249881 0.666666627
vt 0.187499821 0.5
vt 0.218749762 0.333333313
vt 0.218749762 0.166666567
vt 0.218749762 0
vt 0.0937499404 0.833333313
vt 0.0624999404 0.99999994
vt 0.124999881 0.666666627
vt 0.156249821 0.5
vt 0.187499762 0.333333313
vt 0.187499762 0.166666567
vt 0.187499762 0
vt 0.0624999404 0.833333373
vt 0.0312499404 0.99999994
vt 0.0937498808 0.666666627
vt 0.124999821 0.5
vt 0.156249762 0.333333313
vt 0.156249762 0.166666567
vt 0.156249762 0
vt 0.0312499404 0.833333373
vt -5.96046448E-08 0.99999994
vt -5.96046448E-08 0.833333373
vt 0.0624998808 0.666666627
vt 0.0312498808 0.666666627
vt -1.1920929E-07 0.666666627
vt 0.0937498212 0.5
vt 0.124999762 0.333333313
vt 0.124999762 0.166666627
vt 0.124999762 0
vt 0.0312498212 0.5
vt -1.1920929E-07 0.5
vt 0.0624998212 0.5
vt 0.0937497616 0.333333313
vt 0.0937497616 0.166666627
vt 0.0937497616 0
vt 0.0624997616 0.333333313
vt 0.0312497616 0.333333313
vt -1.1920929E-07 0.333333313
vt 0.0624997616 0.166666627
vt 0.0624997616 0
vt 0.0312497616 0.166666627
vt -2.38418579E-07 0.166666627
vt 0.0312497616 0
vt -2.38418579E-07 0
vn 0.352118313 -0.714030862 0.605122089
vn 0.425172716 -0.613393724 0.665564537
vn 0.367041796 -0.70891434 0.602263033
vn 0.408336848 -0.622330904 0.667806327
vn 0.323831528 -0.72318548 0.610029399
vn 0.521878123 -0.359784663 0.773432791
vn 0.37833783 -0.632013321 0.676328003
vn 0.295202315 -0.731718838 0.614364028
vn 0.505706608 -0.366658777 0.780911207
vn 0.565741003 1.37007916E-07 0.824583054
vn 0.34753567 -0.641138434 0.684222519
vn 0.266299397 -0.73952347 0.618214786
vn 0.473614484 -0.374476254 0.797155559
vn 0.550221026 2.71832533E-07 0.835019052
vn 0.521877766 0.359784842 0.77343291
vn 0.315986097 -0.649574816 0.691524088
vn 0.23716943 -0.746510625 0.621669114
vn 0.439783961 -0.381994247 0.812816381
vn 0.517648637 1.36088218E-07 0.855593324
vn 0.505706429 0.366658896 0.780911088
vn 0.425172687 0.613393843 0.665564537
vn 0.283733487 -0.657205462 0.698266625
vn 0.207838058 -0.752606571 0.624809325
vn 0.404206604 -0.389082074 0.827787578
vn 0.482878149 0 0.875687599
vn 0.473614514 0.374476224 0.79715544
vn 0.408336848 0.622330904 0.667806327
vn 0.367041945 0.708914518 0.602262795
vn 0.352118015 0.7140311 0.605121911
vn 0.378337651 0.63201344 0.676328123
vn 0.323830992 0.723185778 0.61002934
vn 0.250811279 -0.663927913 0.704481065
vn 0.178310335 -0.75775063 0.627709627
vn 0.366886139 -0.39561218 0.841953456
vn 0.445845306 -1.12069706E-07 0.895110071
vn 0.43978402 0.381994426 0.812816203
vn 0.347535521 0.641138732 0.684222341
vn 0.295202017 0.731719196 0.61436373
vn 0.217242882 -0.669651151 0.710192084
vn 0.148571551 -0.761891663 0.630434394
vn 0.32784161 -0.401462585 0.855188668
vn 0.406509519 0 0.913646519
vn 0.404206604 0.389082223 0.827787399
vn 0.315985829 0.649575174 0.691523731
vn 0.266299039 0.739523888 0.618214548
vn 0.183040738 -0.674295902 0.715416789
vn 0.11858961 -0.764985859 0.633034885
vn 0.287110567 -0.406517386 0.867358625
vn 0.364861935 0 0.931061685
vn 0.3668859 0.395612389 0.841953456
vn 0.28373301 0.65720582 0.698266447
vn 0.237169042 0.746511102 0.621668696
vn 0.148210198 -0.677791357 0.720161557
vn 0.088317439 -0.766993701 0.635547578
vn 0.244750559 -0.410669476 0.878320932
vn 0.320930392 1.95561284E-07 0.947102785
vn 0.327841401 0.401462704 0.855188668
vn 0.250811189 0.663928151 0.704480767
vn 0.207838073 0.752607048 0.624808729
vn 0.112749845 -0.680075705 0.72442019
vn 0.0576956831 -0.767878771 0.637991786
vn 0.200843945 -0.413820863 0.887926757
vn 0.274786055 2.44667206E-07 0.961505413
vn 0.287110627 0.406517625 0.867358565
vn 0.21724318 0.669651389 0.710191846
vn 0.178310603 0.757751107 0.627708912
vn 0.0766553581 -0.68109417 0.728172123
vn 0.0266564395 -0.76760608 0.640367389
vn 0.155499443 -0.415885746 0.896023989
vn 0.226550192 4.0153833E-07 0.97399956
vn 0.244750276 0.410669506 0.878321052
vn 0.183040544 0.674296081 0.71541667
vn 0.148571283 0.76189208 0.630433917
vn 0.0399223641 -0.680799782 0.73138088
vn -0.00487302663 -0.766141713 0.642653286
vn 0.108854622 -0.416790694 0.902461231
vn 0.176395908 3.38050171E-07 0.98431927
vn 0.200843811 0.41382131 0.887926638
vn 0.148209944 0.677791476 0.720161498
vn 0.118589304 0.764986098 0.633034587
vn 0.00255063316 -0.679153025 0.733992338
vn -0.0369658023 -0.763452947 0.644804776
vn 0.061077144 -0.4164792 0.90709132
vn 0.124551155 1.71521961E-07 0.99221319
vn 0.155499488 0.415886104 0.89602381
vn 0.112749785 0.680075884 0.724419892
vn 0.0883172378 0.766993999 0.63554728
vn -0.0354522951 -0.676123917 0.735934556
vn -0.0696892142 -0.759509861 0.646752059
vn 0.0123655684 -0.414913386 0.909776926
vn 0.0712984204 1.76427704E-07 0.99745506
vn 0.108854502 0.416790992 0.902460992
vn 0.0766552761 0.681094468 0.728171885
vn 0.0576956682 0.767879069 0.637991369
vn -0.0740654692 -0.671693444 0.73711741
vn -0.103099585 -0.754288256 0.648397863
vn -0.0370537341 -0.412076205 0.910395682
vn 0.0169691592 0 0.999855995
vn 0.0610773526 0.416479498 0.907091081
vn 0.0399226882 0.680800021 0.731380463
vn 0.026656663 0.767606437 0.640366912
vn -0.113250442 -0.665857911 0.737433136
vn -0.137235016 -0.747773409 0.64961648
vn -0.086927563 -0.407974571 0.908845544
vn -0.0380644053 1.02842861E-07 0.999275267
vn 0.0123656876 0.414913654 0.909776807
vn 0.0025506611 0.679153442 0.733991921
vn -0.00487307366 0.76614207 0.642652869
vn -0.152947113 -0.658631504 0.736757636
vn -0.172106639 -0.739966154 0.650253296
vn -0.136981294 -0.402642041 0.90504998
vn -0.0933987275 1.46810748E-07 0.995628834
vn -0.0370540395 0.412076443 0.910395503
vn -0.0354526415 0.676124156 0.735934377
vn -0.036966037 0.763453186 0.644804537
vn -0.193067089 -0.650052905 0.734953344
vn -0.207691699 -0.73089087 0.650125027
vn -0.186925128 -0.396140844 0.898961306
vn -0.148613811 3.03117389E-07 0.988895297
vn -0.0869275331 0.40797472 0.908845544
vn -0.0740652382 0.671693623 0.73711729
vn -0.0696888492 0.759510159 0.646751821
vn -0.233492896 -0.640190065 0.731872797
vn -0.243925735 -0.720603347 0.649023175
vn -0.236459896 -0.388563126 0.89056468
vn -0.203288868 2.83232453E-07 0.979118764
vn -0.136981085 0.402642429 0.90504992
vn -0.113250181 0.66585815 0.737432957
vn -0.103099369 0.754288495 0.648397565
vn -0.274074405 -0.629147291 0.72736299
vn -0.280690402 -0.709202647 0.646718204
vn -0.28528592 -0.380031824 0.879879475
vn -0.257016331 2.38965981E-07 0.966407001
vn -0.186925083 0.396141201 0.898961186
vn -0.152947158 0.658631563 0.736757457
vn -0.137235254 0.747773468 0.649616301
vn -0.314625084 -0.61707145 0.721272409
vn -0.317815006 -0.696840525 0.642967224
vn -0.333111316 -0.370701045 0.866958857
vn -0.309417665 1.89922659E-07 0.950926244
vn -0.236459687 0.388563484 0.890564561
vn -0.193066806 0.650053024 0.734953284
vn -0.172106281 0.739966452 0.650253057
vn -0.354927272 -0.604157865 0.713456213
vn -0.35506627 -0.683732867 0.637524247
vn -0.379656643 -0.360754967 0.851890028
vn -0.360156029 0 0.932892144
vn -0.285285652 0.380031943 0.879879475
vn -0.233492449 0.640190303 0.731872678
vn -0.207691178 0.730891287 0.650124848
vn -0.394731164 -0.590655625 0.703784883
vn -0.392148852 -0.670168817 0.63015312
vn -0.424666792 -0.350405902 0.834789634
vn -0.408943206 1.99048557E-07 0.912559867
vn -0.333111137 0.370701045 0.866958857
vn -0.274073869 0.62914747 0.72736311
vn -0.243924662 0.720603824 0.649023116
vn -0.433757871 -0.576871455 0.692151368
vn -0.428714544 -0.656513333 0.62063998
vn -0.46791333 -0.339890242 0.815801382
vn -0.455548823 0 0.890210807
vn -0.379656821 0.360755026 0.851889968
vn -0.314625263 0.617071509 0.72127229
vn -0.280691028 0.709202588 0.646718085
vn -0.471711069 -0.563168228 0.678476453
vn -0.464365184 -0.643206537 0.608810604
vn -0.509197235 -0.329464227 0.795092165
vn -0.499801189 0 0.866140127
vn -0.424667001 0.350406021 0.834789515
vn -0.354927748 0.604157746 0.713456094
vn -0.317815244 0.696840405 0.642967284
vn -0.508279562 -0.549962878 0.662716031
vn -0.498667836 -0.63075453 0.594541192
vn -0.548357844 -0.319399565 0.772843838
vn -0.541582823 0 0.84064734
vn -0.467913151 0.339890212 0.815801442
vn -0.394730747 0.590655804 0.703785002
vn -0.355065882 0.683733106 0.637524247
vn -0.543144584 -0.537720084 0.644865155
vn -0.531170487 -0.619712353 0.577766836
vn -0.585270166 -0.30997619 0.749248624
vn -0.580832243 2.12388798E-07 0.814023316
vn -0.509197354 0.329464078 0.795092165
vn -0.433757961 0.576871276 0.692151368
vn -0.392148703 0.670169175 0.630152941
vn -0.575990856 -0.526936829 0.62495774
vn -0.561418593 -0.61065805 0.558485568
vn -0.619841158 -0.301476955 0.724505782
vn -0.617536306 2.55534758E-07 0.786542356
vn -0.548358142 0.319399446 0.772843719
vn -0.471711069 0.563168108 0.678476572
vn -0.428714037 0.656513631 0.620640099
vn -0.606509924 -0.518128872 0.60306561
vn -0.588963211 -0.604161799 0.536759734
vn -0.652011931 -0.294180989 0.698811769
vn -0.651719511 1.39679699E-07 0.758460104
vn -0.585270047 0.30997619 0.749248803
vn -0.508279383 0.549962819 0.662716389
vn -0.464364797 0.643206537 0.608810961
vn -0.634404063 -0.511807621 0.57929647
vn -0.613375664 -0.600749731 0.512708545
vn -0.681753099 -0.28835699 0.672356188
vn -0.683440804 0 0.73000598
vn -0.619841099 0.301476717 0.724505961
vn -0.543144763 0.537719607 0.644865394
vn -0.498668134 0.630754173 0.594541311
vn -0.659385383 -0.508453906 0.55379194
vn -0.624247849 -0.59977001 0.500590026
vn -0.670529604 -0.508716345 0.539997816
vn -0.709057748 -0.284257621 0.645317435
vn -0.733933926 -0.282114685 0.617861092
vn -0.745545685 -0.282352984 0.603687406
vn -0.712786674 0 0.701380968
vn -0.65201205 0.29418084 0.698811829
vn -0.575991154 0.526936412 0.62495774
vn -0.531171024 0.619711876 0.577766836
vn -0.764782667 0 0.644288301
vn -0.776693106 -1.48453623E-07 0.629879117
vn -0.739861727 0 0.672758996
vn -0.681753218 0.28835693 0.672356248
vn -0.606510222 0.518128693 0.60306561
vn -0.561418772 0.610657692 0.558485687
vn -0.709057748 0.284257412 0.645317614
vn -0.733933628 0.282114446 0.617861509
vn -0.745545685 0.282352686 0.603687525
vn -0.634403884 0.511807263 0.579297006
vn -0.588962913 0.604161441 0.53676039
vn -0.659385204 0.508453548 0.553792596
vn -0.670529902 0.508716047 0.539997935
vn -0.613375664 0.600749373 0.512709081
vn -0.624248266 0.599769711 0.500590026
g Plane002_0
f 3/3/3 2/2/2 1/1/1
f 2/2/2 4/4/4 1/1/1
f 1/1/1 4/4/4 5/5/5
f 2/2/2 6/6/6 4/4/4
f 4/4/4 7/7/7 5/5/5
f 5/5/5 7/7/7 8/8/8
f 6/6/6 9/9/9 4/4/4
f 4/4/4 9/9/9 7/7/7
f 6/6/6 10/10/10 9/9/9
f 7/7/7 11/11/11 8/8/8
f 8/8/8 11/11/11 12/12/12
f 9/9/9 13/13/13 7/7/7
f 7/7/7 13/13/13 11/11/11
f 10/10/10 14/14/14 9/9/9
f 9/9/9 14/14/14 13/13/13
f 10/10/10 15/15/15 14/14/14
f 11/11/11 16/16/16 12/12/12
f 12/12/12 16/16/16 17/17/17
f 13/13/13 18/18/18 11/11/11
f 11/11/11 18/18/18 16/16/16
f 14/14/14 19/19/19 13/13/13
f 13/13/13 19/19/19 18/18/18
f 15/15/15 20/20/20 14/14/14
f 14/14/14 20/20/20 19/19/19
f 15/15/15 21/21/21 20/20/20
f 16/16/16 22/22/22 17/17/17
f 17/17/17 22/22/22 23/23/23
f 18/18/18 24/24/24 16/16/16
f 16/16/16 24/24/24 22/22/22
f 19/19/19 25/25/25 18/18/18
f 18/18/18 25/25/25 24/24/24
f 20/20/20 26/26/26 19/19/19
f 19/19/19 26/26/26 25/25/25
f 21/21/21 27/27/27 20/20/20
f 20/20/20 27/27/27 26/26/26
f 21/21/21 28/28/28 27/27/27
f 28/28/28 29/29/29 27/27/27
f 27/27/27 29/29/29 30/30/30
f 27/27/27 30/30/30 26/26/26
f 29/29/29 31/31/31 30/30/30
f 22/22/22 32/32/32 23/23/23
f 23/23/23 32/32/32 33/33/33
f 24/24/24 34/34/34 22/22/22
f 22/22/22 34/34/34 32/32/32
f 25/25/25 35/35/35 24/24/24
f 24/24/24 35/35/35 34/34/34
f 26/26/26 36/36/36 25/25/25
f 26/26/26 30/30/30 36/36/36
f 25/25/25 36/36/36 35/35/35
f 30/30/30 31/31/31 37/37/37
f 30/30/30 37/37/37 36/36/36
f 31/31/31 38/38/38 37/37/37
f 32/32/32 39/39/39 33/33/33
f 33/33/33 39/39/39 40/40/40
f 34/34/34 41/41/41 32/32/32
f 32/32/32 41/41/41 39/39/39
f 35/35/35 42/42/42 34/34/34
f 34/34/34 42/42/42 41/41/41
f 36/36/36 43/43/43 35/35/35
f 36/36/36 37/37/37 43/43/43
f 35/35/35 43/43/43 42/42/42
f 37/37/37 38/38/38 44/44/44
f 37/37/37 44/44/44 43/43/43
f 38/38/38 45/45/45 44/44/44
f 39/39/39 46/46/46 40/40/40
f 40/40/40 46/46/46 47/47/47
f 41/41/41 48/48/48 39/39/39
f 39/39/39 48/48/48 46/46/46
f 42/42/42 49/49/49 41/41/41
f 41/41/41 49/49/49 48/48/48
f 43/43/43 50/50/50 42/42/42
f 43/43/43 44/44/44 50/50/50
f 42/42/42 50/50/50 49/49/49
f 44/44/44 45/45/45 51/51/51
f 44/44/44 51/51/51 50/50/50
f 45/45/45 52/52/52 51/51/51
f 46/46/46 53/53/53 47/47/47
f 47/47/47 53/53/53 54/54/54
f 48/48/48 55/55/55 46/46/46
f 46/46/46 55/55/55 53/53/53
f 49/49/49 56/56/56 48/48/48
f 48/48/48 56/56/56 55/55/55
f 50/50/50 57/57/57 49/49/49
f 50/50/50 51/51/51 57/57/57
f 49/49/49 57/57/57 56/56/56
f 51/51/51 52/52/52 58/58/58
f 51/51/51 58/58/58 57/57/57
f 52/52/52 59/59/59 58/58/58
f 53/53/53 60/60/60 54/54/54
f 54/54/54 60/60/60 61/61/61
f 55/55/55 62/62/62 53/53/53
f 53/53/53 62/62/62 60/60/60
f 56/56/56 63/63/63 55/55/55
f 55/55/55 63/63/63 62/62/62
f 57/57/57 64/64/64 56/56/56
f 57/57/57 58/58/58 64/64/64
f 56/56/56 64/64/64 63/63/63
f 58/58/58 59/59/59 65/65/65
f 58/58/58 65/65/65 64/64/64
f 59/59/59 66/66/66 65/65/65
f 60/60/60 67/67/67 61/61/61
f 61/61/61 67/67/67 68/68/68
f 62/62/62 69/69/69 60/60/60
f 60/60/60 69/69/69 67/67/67
f 63/63/63 70/70/70 62/62/62
f 62/62/62 70/70/70 69/69/69
f 64/64/64 71/71/71 63/63/63
f 64/64/64 65/65/65 71/71/71
f 63/63/63 71/71/71 70/70/70
f 65/65/65 66/66/66 72/72/72
f 65/65/65 72/72/72 71/71/71
f 66/66/66 73/73/73 72/72/72
f 67/67/67 74/74/74 68/68/68
f 68/68/68 74/74/74 75/75/75
f 69/69/69 76/76/76 67/67/67
f 67/67/67 76/76/76 74/74/74
f 70/70/70 77/77/77 69/69/69
f 69/69/69 77/77/77 76/76/76
f 71/71/71 78/78/78 70/70/70
f 71/71/71 72/72/72 78/78/78
f 70/70/70 78/78/78 77/77/77
f 72/72/72 73/73/73 79/79/79
f 72/72/72 79/79/79 78/78/78
f 73/73/73 80/80/80 79/79/79
f 74/74/74 81/81/81 75/75/75
f 75/75/75 81/81/81 82/82/82
f 76/76/76 83/83/83 74/74/74
f 74/74/74 83/83/83 81/81/81
f 77/77/77 84/84/84 76/76/76
f 76/76/76 84/84/84 83/83/83
f 78/78/78 85/85/85 77/77/77
f 78/78/78 79/79/79 85/85/85
f 77/77/77 85/85/85 84/84/84
f 79/79/79 80/80/80 86/86/86
f 79/79/79 86/86/86 85/85/85
f 80/80/80 87/87/87 86/86/86
f 81/81/81 88/88/88 82/82/82
f 82/82/82 88/88/88 89/89/89
f 83/83/83 90/90/90 81/81/81
f 81/81/81 90/90/90 88/88/88
f 84/84/84 91/91/91 83/83/83
f 83/83/83 91/91/91 90/90/90
f 85/85/85 92/92/92 84/84/84
f 85/85/85 86/86/86 92/92/92
f 84/84/84 92/92/92 91/91/91
f 86/86/86 87/87/87 93/93/93
f 86/86/86 93/93/93 92/92/92
f 87/87/87 94/94/94 93/93/93
f 88/88/88 95/95/95 89/89/89
f 89/89/89 95/95/95 96/96/96
f 90/90/90 97/97/97 88/88/88
f 88/88/88 97/97/97 95/95/95
f 91/91/91 98/98/98 90/90/90
f 90/90/90 98/98/98 97/97/97
f 92/92/92 99/99/99 91/91/91
f 92/92/92 93/93/93 99/99/99
f 91/91/91 99/99/99 98/98/98
f 93/93/93 94/94/94 100/100/100
f 93/93/93 100/100/100 99/99/99
f 94/94/94 101/101/101 100/100/100
f 95/95/95 102/102/102 96/96/96
f 96/96/96 102/102/102 103/103/103
f 97/97/97 104/104/104 95/95/95
f 95/95/95 104/104/104 102/102/102
f 98/98/98 105/105/105 97/97/97
f 97/97/97 105/105/105 104/104/104
f 99/99/99 106/106/106 98/98/98
f 99/99/99 100/100/100 106/106/106
f 98/98/98 106/106/106 105/105/105
f 100/100/100 101/101/101 107/107/107
f 100/100/100 107/107/107 106/106/106
f 101/101/101 108/108/108 107/107/107
f 102/102/102 109/109/109 103/103/103
f 103/103/103 109/109/109 110/110/110
f 104/104/104 111/111/111 102/102/102
f 102/102/102 111/111/111 109/109/109
f 105/105/105 112/112/112 104/104/104
f 104/104/104 112/112/112 111/111/111
f 106/106/106 113/113/113 105/105/105
f 106/106/106 107/107/107 113/113/113
f 105/105/105 113/113/113 112/112/112
f 107/107/107 108/108/108 114/114/114
f 107/107/107 114/114/114 113/113/113
f 108/108/108 115/115/115 114/114/114
f 109/109/109 116/116/116 110/110/110
f 110/110/110 116/116/116 117/117/117
f 111/111/111 118/118/118 109/109/109
f 109/109/109 118/118/118 116/116/116
f 112/112/112 119/119/119 111/111/111
f 111/111/111 119/119/119 118/118/118
f 113/113/113 120/120/120 112/112/112
f 113/113/113 114/114/114 120/120/120
f 112/112/112 120/120/120 119/119/119
f 114/114/114 115/115/115 121/121/121
f 114/114/114 121/121/121 120/120/120
f 115/115/115 122/122/122 121/121/121
f 116/116/116 123/123/123 117/117/117
f 117/117/117 123/123/123 124/124/124
f 118/118/118 125/125/125 116/116/116
f 116/116/116 125/125/125 123/123/123
f 119/119/119 126/126/126 118/118/118
f 118/118/118 126/126/126 125/125/125
f 120/120/120 127/127/127 119/119/119
f 120/120/120 121/121/121 127/127/127
f 119/119/119 127/127/127 126/126/126
f 121/121/121 122/122/122 128/128/128
f 121/121/121 128/128/128 127/127/127
f 122/122/122 129/129/129 128/128/128
f 123/123/123 130/130/130 124/124/124
f 124/124/124 130/130/130 131/131/131
f 125/125/125 132/132/132 123/123/123
f 123/123/123 132/132/132 130/130/130
f 126/126/126 133/133/133 125/125/125
f 125/125/125 133/133/133 132/132/132
f 127/127/127 134/134/134 126/126/126
f 127/127/127 128/128/128 134/134/134
f 126/126/126 134/134/134 133/133/133
f 128/128/128 129/129/129 135/135/135
f 128/128/128 135/135/135 134/134/134
f 129/129/129 136/136/136 135/135/135
f 130/130/130 137/137/137 131/131/131
f 131/131/131 137/137/137 138/138/138
f 132/132/132 139/139/139 130/130/130
f 130/130/130 139/139/139 137/137/137
f 133/133/133 140/140/140 132/132/132
f 132/132/132 140/140/140 139/139/139
f 134/134/134 141/141/141 133/133/133
f 134/134/134 135/135/135 141/141/141
f 133/133/133 141/141/141 140/140/140
f 135/135/135 136/136/136 142/142/142
f 135/135/135 142/142/142 141/141/141
f 136/136/136 143/143/143 142/142/142
f 137/137/137 144/144/144 138/138/138
f 138/138/138 144/144/144 145/145/145
f 139/139/139 146/146/146 137/137/137
f 137/137/137 146/146/146 144/144/144
f 140/140/140 147/147/147 139/139/139
f 139/139/139 147/147/147 146/146/146
f 141/141/141 148/148/148 140/140/140
f 141/141/141 142/142/142 148/148/148
f 140/140/140 148/148/148 147/147/147
f 142/142/142 143/143/143 149/149/149
f 142/142/142 149/149/149 148/148/148
f 143/143/143 150/150/150 149/149/149
f 144/144/144 151/151/151 145/145/145
f 145/145/145 151/151/151 152/152/152
f 146/146/146 153/153/153 144/144/144
f 144/144/144 153/153/153 151/151/151
f 147/147/147 154/154/154 146/146/146
f 146/146/146 154/154/154 153/153/153
f 148/148/148 155/155/155 147/147/147
f 148/148/148 149/149/149 155/155/155
f 147/147/147 155/155/155 154/154/154
f 149/149/149 150/150/150 156/156/156
f 149/149/149 156/156/156 155/155/155
f 150/150/150 157/157/157 156/156/156
f 151/151/151 158/158/158 152/152/152
f 152/152/152 158/158/158 159/159/159
f 153/153/153 160/160/160 151/151/151
f 151/151/151 160/160/160 158/158/158
f 154/154/154 161/161/161 153/153/153
f 153/153/153 161/161/161 160/160/160
f 155/155/155 162/162/162 154/154/154
f 155/155/155 156/156/156 162/162/162
f 154/154/154 162/162/162 161/161/161
f 156/156/156 157/157/157 163/163/163
f 156/156/156 163/163/163 162/162/162
f 157/157/157 164/164/164 163/163/163
f 158/158/158 165/165/165 159/159/159
f 159/159/159 165/165/165 166/166/166
f 160/160/160 167/167/167 158/158/158
f 158/158/158 167/167/167 165/165/165
f 161/161/161 168/168/168 160/160/160
f 160/160/160 168/168/168 167/167/167
f 162/162/162 169/169/169 161/161/161
f 162/162/162 163/163/163 169/169/169
f 161/161/161 169/169/169 168/168/168
f 163/163/163 164/164/164 170/170/170
f 163/163/163 170/170/170 169/169/169
f 164/164/164 171/171/171 170/170/170
f 165/165/165 172/172/172 166/166/166
f 166/166/166 172/172/172 173/173/173
f 167/167/167 174/174/174 165/165/165
f 165/165/165 174/174/174 172/172/172
f 168/168/168 175/175/175 167/167/167
f 167/167/167 175/175/175 174/174/174
f 169/169/169 176/176/176 168/168/168
f 169/169/169 170/170/170 176/176/176
f 168/168/168 176/176/176 175/175/175
f 170/170/170 171/171/171 177/177/177
f 170/170/170 177/177/177 176/176/176
f 171/171/171 178/178/178 177/177/177
f 172/172/172 179/179/179 173/173/173
f 173/173/173 179/179/179 180/180/180
f 174/174/174 181/181/181 172/172/172
f 172/172/172 181/181/181 179/179/179
f 175/175/175 182/182/182 174/174/174
f 174/174/174 182/182/182 181/181/181
f 176/176/176 183/183/183 175/175/175
f 176/176/176 177/177/177 183/183/183
f 175/175/175 183/183/183 182/182/182
f 177/177/177 178/178/178 184/184/184
f 177/177/177 184/184/184 183/183/183
f 178/178/178 185/185/185 184/184/184
f 179/179/179 186/186/186 180/180/180
f 180/180/180 186/186/186 187/187/187
f 181/181/181 188/188/188 179/179/179
f 179/179/179 188/188/188 186/186/186
f 182/182/182 189/189/189 181/181/181
f 181/181/181 189/189/189 188/188/188
f 183/183/183 190/190/190 182/182/182
f 183/183/183 184/184/184 190/190/190
f 182/182/182 190/190/190 189/189/189
f 184/184/184 185/185/185 191/191/191
f 184/184/184 191/191/191 190/190/190
f 185/185/185 192/192/192 191/191/191
f 186/186/186 193/193/193 187/187/187
f 187/187/187 193/193/193 194/194/194
f 188/188/188 195/195/195 186/186/186
f 186/186/186 195/195/195 193/193/193
f 189/189/189 196/196/196 188/188/188
f 188/188/188 196/196/196 195/195/195
f 190/190/190 197/197/197 189/189/189
f 190/190/190 191/191/191 197/197/197
f 189/189/189 197/197/197 196/196/196
f 191/191/191 192/192/192 198/198/198
f 191/191/191 198/198/198 197/197/197
f 192/192/192 199/199/199 198/198/198
f 193/193/193 200/200/200 194/194/194
f 194/194/194 200/200/200 201/201/201
f 195/195/195 202/202/202 193/193/193
f 193/193/193 202/202/202 200/200/200
f 196/196/196 203/203/203 195/195/195
f 195/195/195 203/203/203 202/202/202
f 197/197/197 204/204/204 196/196/196
f 197/197/197 198/198/198 204/204/204
f 196/196/196 204/204/204 203/203/203
f 198/198/198 199/199/199 205/205/205
f 198/198/198 205/205/205 204/204/204
f 199/199/199 206/206/206 205/205/205
f 200/200/200 207/207/207 201/201/201
f 201/201/201 207/207/207 208/208/208
f 207/207/207 209/209/209 208/208/208
f 202/202/202 210/210/210 200/200/200
f 200/200/200 210/210/210 207/207/207
f 207/207/207 211/211/211 209/209/209
f 210/210/210 211/211/211 207/207/207
f 211/211/211 212/212/212 209/209/209
f 203/203/203 213/213/213 202/202/202
f 202/202/202 213/213/213 210/210/210
f 204/204/204 214/214/214 203/203/203
f 204/204/204 205/205/205 214/214/214
f 203/203/203 214/214/214 213/213/213
f 205/205/205 206/206/206 215/215/215
f 205/205/205 215/215/215 214/214/214
f 206/206/206 216/216/216 215/215/215
f 211/211/211 217/217/217 212/212/212
f 217/217/217 218/218/218 212/212/212
f 210/210/210 219/219/219 211/211/211
f 213/213/213 219/219/219 210/210/210
f 219/219/219 217/217/217 211/211/211
f 214/214/214 220/220/220 213/213/213
f 214/214/214 215/215/215 220/220/220
f 213/213/213 220/220/220 219/219/219
f 215/215/215 216/216/216 221/221/221
f 215/215/215 221/221/221 220/220/220
f 216/216/216 222/222/222 221/221/221
f 220/220/220 223/223/223 219/219/219
f 219/219/219 223/223/223 217/217/217
f 220/220/220 221/221/221 223/223/223
f 217/217/217 224/224/224 218/218/218
f 223/223/223 224/224/224 217/217/217
f 224/224/224 225/225/225 218/218/218
f 221/221/221 222/222/222 226/226/226
f 221/221/221 226/226/226 223/223/223
f 223/223/223 226/226/226 224/224/224
f 222/222/222 227/227/227 226/226/226
f 224/224/224 228/228/228 225/225/225
f 226/226/226 228/228/228 224/224/224
f 226/226/226 227/227/227 228/228/228
f 228/228/228 229/229/229 225/225/225
f 227/227/227 230/230/230 228/228/228
f 228/228/228 230/230/230 229/229/229
f 230/230/230 231/231/231 229/229/229
