g O_env_xiaoche_01_1
v -1.31014687 0.190992729 -3.74630507
v -1.77832595 0.325145177 -3.71980436
v -1.68033224 0.188637111 -3.86090589
v -2.02507695 0.186634835 -3.71591759
v -2.68500334 0.181099133 -3.06741594
v -1.37351299 0.327736357 -3.59672332
v -0.854216992 0.19381947 -3.02972606
v -2.65143579 0.319609474 -3.03349504
v -3.48991803 0.176741239 -2.66319189
v -0.783312888 0.331858688 -2.57709405
v -0.643035833 0.195468403 -2.17440114
v -2.08420296 0.351174756 -1.36277294
v -0.731489291 0.332447593 -1.9236456
v -0.589327741 0.19381947 -1.41282982
v -3.3600057 0.314544896 -2.64116686
v -0.694741649 0.332918716 -0.77693073
v -3.59639197 0.313249306 -2.34235671
v -0.640562434 0.192406099 -0.49378544
v -3.74196916 0.175210088 -2.38840904
v -1.09672787 0.331387565 -0.119242169
v -1.15656057 0.192995004 0.202299695
v -1.61437494 0.18981492 0.545395465
v -3.67648298 0.312895963 -2.02317046
v -3.83760726 0.174621183 -2.0932501
v -2.3589858 0.323731806 0.540448667
v -3.54892626 0.315251581 -0.070951999
v -2.36593488 0.184985903 0.699217324
v -3.21171954 0.180039105 0.516892486
v -3.66446933 0.17556343 0.0880522196
v -3.82582917 0.176387897 -0.297680237
v -3.85786557 0.175681211 -0.616630921
v -3.6523379 0.313131525 -1.40058061
v -3.77082548 0.175681211 -1.3889203
v -3.6634093 0.31383821 -0.570578588
vt 0.657550509 0.611569399
vt 0.644942785 0.596736782
vt 0.642717893 0.604894721
vt 0.635301585 0.591545366
vt 0.630110169 0.555205456
vt 0.659775402 0.603411459
vt 0.690182266 0.601928198
vt 0.636043216 0.553722194
vt 0.619727338 0.520348807
vt 0.702048359 0.588578843
vt 0.718364237 0.583387427
vt 0.696115312 0.519607177
vt 0.720589129 0.572262965
vt 0.739871531 0.563363395
vt 0.627143646 0.523315331
vt 0.750995993 0.54037284
vt 0.627885277 0.508482714
vt 0.762120455 0.535923055
vt 0.620468968 0.505516191
vt 0.75767067 0.512190868
vt 0.76657024 0.501808037
vt 0.762862086 0.479559112
vt 0.633818323 0.496616621
vt 0.625660384 0.493650098
vt 0.740613161 0.45953508
vt 0.690923896 0.443960833
vt 0.746546208 0.453602033
vt 0.716880975 0.435802894
vt 0.691665527 0.435061263
vt 0.67609128 0.44173594
vt 0.665708449 0.449893879
vt 0.650875832 0.478817481
vt 0.645684416 0.473626066
vt 0.673866388 0.455085295
vn 0.374130142 0.75914431 -0.532659885
vn -0.135843361 0.86538879 -0.482336836
vn 0.0199818758 0.723729484 -0.689794433
vn -0.489991628 0.596236108 -0.635932944
vn -0.482908662 0.511240524 -0.710937656
vn 0.267885662 0.907886582 -0.3224581
vn 0.607867998 0.730812449 -0.310499053
vn -0.277502668 0.879554721 -0.386491607
vn -0.525406454 0.603319073 -0.599961794
vn 0.586619102 0.794559137 -0.156696545
vn 0.806191027 0.589153142 -0.0543562566
vn -0.00834998547 0.999965131 -0.000118157664
vn 0.444959795 0.893720651 -0.057220431
vn 0.763576119 0.645717826 -0
vn -0.312917495 0.844139894 -0.435328015
vn 0.529955379 0.844139894 0.0810872065
vn -0.362498252 0.907886582 -0.210563462
vn 0.593702067 0.752061345 0.286219477
vn -0.603319073 0.737895414 -0.302516866
vn 0.282051593 0.929135478 0.239069367
vn 0.274968628 0.886637686 0.371841186
vn 0.189973044 0.900803617 0.390465218
vn -0.397913078 0.914969547 -0.0670515428
vn -0.659982796 0.74497838 -0.0971077938
vn -0.00834998547 0.943301409 0.331832383
vn -0.312917495 0.929135478 0.19695153
vn -0.0225159161 0.844139894 0.535649954
vn -0.199590049 0.893720651 0.401780051
vn -0.482908662 0.801642102 0.352376452
vn -0.553738316 0.822890998 0.127374578
vn -0.609210713 0.793008391 -0
vn -0.375694518 0.926743562 -0
vn -0.681231692 0.730812449 0.0428549534
vn -0.341249356 0.936218443 0.0839279661
g O_env_xiaoche_01_1_0
f 3/3/3 2/2/2 1/1/1
f 4/4/4 2/2/2 3/3/3
f 4/4/4 5/5/5 2/2/2
f 2/2/2 6/6/6 1/1/1
f 1/1/1 6/6/6 7/7/7
f 5/5/5 8/8/8 2/2/2
f 5/5/5 9/9/9 8/8/8
f 7/7/7 6/6/6 10/10/10
f 11/11/11 7/7/7 10/10/10
f 6/6/6 2/2/2 12/12/12
f 2/2/2 8/8/8 12/12/12
f 10/10/10 6/6/6 12/12/12
f 11/11/11 10/10/10 13/13/13
f 13/13/13 10/10/10 12/12/12
f 14/14/14 11/11/11 13/13/13
f 8/8/8 15/15/15 12/12/12
f 9/9/9 15/15/15 8/8/8
f 16/16/16 13/13/13 12/12/12
f 13/13/13 16/16/16 14/14/14
f 15/15/15 17/17/17 12/12/12
f 17/17/17 15/15/15 9/9/9
f 14/14/14 16/16/16 18/18/18
f 19/19/19 17/17/17 9/9/9
f 16/16/16 20/20/20 18/18/18
f 16/16/16 12/12/12 20/20/20
f 21/21/21 18/18/18 20/20/20
f 21/21/21 20/20/20 22/22/22
f 23/23/23 17/17/17 19/19/19
f 17/17/17 23/23/23 12/12/12
f 24/24/24 23/23/23 19/19/19
f 20/20/20 25/25/25 22/22/22
f 20/20/20 12/12/12 25/25/25
f 25/25/25 12/12/12 26/26/26
f 22/22/22 25/25/25 27/27/27
f 27/27/27 25/25/25 26/26/26
f 28/28/28 27/27/27 26/26/26
f 29/29/29 28/28/28 26/26/26
f 29/29/29 26/26/26 30/30/30
f 30/30/30 26/26/26 31/31/31
f 32/32/32 23/23/23 24/24/24
f 23/23/23 32/32/32 12/12/12
f 33/33/33 32/32/32 24/24/24
f 31/31/31 34/34/34 33/33/33
f 26/26/26 34/34/34 31/31/31
f 12/12/12 34/34/34 26/26/26
f 34/34/34 32/32/32 33/33/33
f 32/32/32 34/34/34 12/12/12
