g A_build_Coupon
v 0.319236705 3.82772546 0.0795254611
v 0.323071834 3.8279994 0.0335039059
v 0.441412976 3.79996642 0.0178894497
v 0.228289346 3.7881871 0.0448266695
v 0.449174548 3.80444074 0.0679287597
v 0.327363527 3.60674894 0.159789245
v 2.08631832 3.06709142 -0.14656456
v 0.239886047 3.79193092 0.0894785355
v 0.176789034 3.73120803 0.0507619891
v 2.0977324 3.05932985 -0.105839136
v 2.14028408 2.98271857 -0.148847375
v 0.184550606 3.73431266 0.0964182939
v 2.14631071 2.97650931 -0.10492601
v 2.15388966 2.89350615 -0.150125752
v -0.964801211 1.12149365 0.274112632
v -0.970645218 1.1247809 0.230191267
v -1.00388301 0.984068171 0.235396086
v 1.96459862 2.86866912 -0.00283851271
v 0.849489029 0.330178574 0.172390385
v 2.15306784 2.88583589 -0.102186632
v 2.11499048 2.78338314 -0.145377496
v -0.791398565 1.07145434 0.33739227
v -0.998130313 0.986259674 0.279226138
v -0.970097342 0.882711175 0.233661146
v 2.11782118 2.77845226 -0.0969818132
v 1.00125059 0.236491837 0.0282077745
v -0.962701021 0.88535924 0.278039074
v -0.813313592 0.776058047 0.22014688
v 0.998876458 0.227360576 0.0754163937
v 0.926465558 0.127555894 0.0380695364
v -0.812400465 0.786102434 0.265072684
v 0.925735058 0.123720764 0.0837258411
v 0.834605073 0.0827214024 0.0488444243
v 0.753062913 0.0897524734 0.104179866
v 0.73160445 0.0912134751 0.0602585005
v 0.850767405 0.0878349086 0.0933136652
v -1.08149873 3.71458913 0.0892045977
v -1.09026474 3.71148451 0.047748673
v -1.00863126 3.71623276 0.0358780337
v -1.17965978 3.6470178 0.0582496231
v -1.00306119 3.72381171 0.0840910916
v -0.97457166 3.41362277 0.184078399
v 0.79004452 3.71294551 -0.149943127
v -1.17454627 3.64729174 0.102992802
v -1.23782591 3.54036468 0.0607150635
v 0.82328231 3.69879205 -0.113692021
v 0.867660238 3.66318014 -0.156974198
v -1.21664139 3.55050038 0.109384684
v 0.884096508 3.65176606 -0.116522712
v 0.913133917 3.59223024 -0.162270329
v -1.20668831 0.683375748 0.170290195
v -1.21947208 0.691411258 0.116872318
v -1.20148349 0.558551411 0.118789883
v 0.714802929 3.43672486 0.00620143563
v 0.742561963 0.745194385 0.055236307
v 0.925278494 3.58364685 -0.120449154
v 0.923543555 3.47964179 -0.163457393
v -0.984159484 0.754964834 0.236400524
v -1.19664393 0.557546972 0.164537501
v -1.08889505 0.450893844 0.109110747
v 0.936509945 3.47452828 -0.127936788
v 0.937240446 0.691046007 -0.101547444
v -1.08186398 0.453815848 0.155680177
v -0.919144906 0.435918576 0.0954138552
v 0.941166889 0.673970549 -0.0636527107
v 0.928109185 0.587954071 -0.103191071
v -0.922158222 0.439388455 0.139243908
v 0.928474436 0.574165867 -0.0589957676
v 0.868664677 0.492075831 -0.0971644384
v 0.780000133 0.443497523 -0.0404593079
v 0.773882188 0.443954086 -0.0867548009
v 0.870582241 0.490340892 -0.0546127623
v -2.42425065 2.9843622 0.0755077063
v -2.4318296 2.97934 0.041904666
v -2.32682009 3.0459069 0.0303992772
v -2.48077315 2.89067546 0.0487531117
v -2.34563049 3.03522332 0.067380884
v -2.20473514 2.77498238 0.16627244
v -0.763182969 3.8294604 -0.149486564
v -2.47657277 2.89295827 0.0882914716
v -2.4839691 2.78794877 0.0578843726
v -0.755786647 3.83028221 -0.103830259
v -0.688397942 3.8279994 -0.157339448
v -2.4796774 2.79224047 0.0975140452
v -0.667213416 3.82334245 -0.115335648
v -0.610690911 3.7933006 -0.164005269
v -1.17965978 0.238318089 0.021541954
v -1.20623175 0.235304773 -0.0338848
v -1.12012396 0.110389123 -0.0405506205
v -0.69113732 3.54337799 -0.00758676841
v 0.528433893 1.1812121 -0.0900420548
v -0.600463899 3.78992204 -0.12172753
v -0.546680772 3.71011482 -0.172040778
v -1.0110967 0.402315536 0.0792515233
v -1.1146452 0.12883427 0.0109496913
v -0.975667411 0.0640936301 -0.0547040749
v -0.533440443 3.70874513 -0.133141607
v 0.714255054 1.22559002 -0.253765564
v -0.963066271 0.0871044077 -0.00219932445
v -0.802903954 0.136047966 -0.0749754743
v 0.722016626 1.22020258 -0.209478948
v 0.761189735 1.11930215 -0.257326756
v -0.812674403 0.147644668 -0.0187269068
v 0.765481428 1.11784114 -0.21093995
v 0.76137236 1.00844864 -0.255683129
v 0.701653914 0.929645856 -0.193499241
v 0.704575917 0.910744146 -0.247921557
v 0.761554986 1.0153884 -0.206100382
v 1.86205456 2.83406164 -0.173410467
v 2.08631832 3.06709142 -0.14656456
v 0.441412976 3.79996642 0.0178894497
v 2.14028408 2.98271857 -0.148847375
v 2.15388966 2.89350615 -0.150125752
v 2.11499048 2.78338314 -0.145377496
v 0.31978458 3.48018967 -0.0160788411
v -0.730949618 1.07757228 0.145727103
v 0.323071834 3.8279994 0.0335039059
v 0.228289346 3.7881871 0.0448266695
v 0.176789034 3.73120803 0.0507619891
v -0.970645218 1.1247809 0.230191267
v -1.00388301 0.984068171 0.235396086
v -0.970097342 0.882711175 0.233661146
v -0.813313592 0.776058047 0.22014688
v 0.73160445 0.0912134751 0.0602585005
v 0.815064175 0.396197591 -0.0101435215
v 1.00125059 0.236491837 0.0282077745
v 0.834605073 0.0827214024 0.0488444243
v 0.926465558 0.127555894 0.0380695364
v 0.696175157 3.42485422 -0.187563922
v 0.79004452 3.71294551 -0.149943127
v -1.00863126 3.71623276 0.0358780337
v 0.867660238 3.66318014 -0.156974198
v 0.913133917 3.59223024 -0.162270329
v 0.923543555 3.47964179 -0.163457393
v -0.983702921 3.43197661 -0.0127915872
v -0.968088465 0.745285697 0.0351475329
v -1.09026474 3.71148451 0.047748673
v -1.17965978 3.6470178 0.0582496231
v -1.23782591 3.54036468 0.0607150635
v -1.21947208 0.691411258 0.116872318
v -1.20148349 0.558551411 0.118789883
v -1.08889505 0.450893844 0.109110747
v -0.919144906 0.435918576 0.0954138552
v 0.773882188 0.443954086 -0.0867548009
v 0.722107938 0.761630655 -0.139807427
v 0.937240446 0.691046007 -0.101547444
v 0.868664677 0.492075831 -0.0971644384
v 0.928109185 0.587954071 -0.103191071
v -0.733506371 3.51370139 -0.202265252
v -0.763182969 3.8294604 -0.149486564
v -2.32682009 3.0459069 0.0303992772
v -0.688397942 3.8279994 -0.157339448
v -0.610690911 3.7933006 -0.164005269
v -0.546680772 3.71011482 -0.172040778
v -2.21194883 2.73517008 -0.0319672352
v -0.996943249 0.407885605 -0.114696459
v -2.4318296 2.97934 0.041904666
v -2.48077315 2.89067546 0.0487531117
v -2.4839691 2.78794877 0.0578843726
v -1.20623175 0.235304773 -0.0338848
v -1.12012396 0.110389123 -0.0405506205
v -0.975667411 0.0640936301 -0.0547040749
v -0.802903954 0.136047966 -0.0749754743
v 0.704575917 0.910744146 -0.247921557
v 0.463328003 1.15774475 -0.282529036
v 0.714255054 1.22559002 -0.253765564
v 0.76137236 1.00844864 -0.255683129
v 0.761189735 1.11930215 -0.257326756
vt 0.03923034 0.716767654
vt 0.0363307509 0.726432951
vt 0.0653266416 0.735131718
vt 0.0179666867 0.707102357
vt 0.0662931713 0.725466422
vt 0.0720923495 0.659742402
vt 0.451938519 0.735131718
vt 0.0266654539 0.703236239
vt 0.00926791949 0.688738293
vt 0.453871578 0.725466422
vt 0.474168702 0.720633773
vt 0.0189332164 0.688738293
vt 0.469336053 0.713868065
vt 0.487700117 0.702269709
vt 0.0189332164 0.0788580573
vt 0.00926791949 0.0788580573
vt 0.0179666867 0.0450295181
vt 0.430674865 0.659742402
vt 0.436474044 0.0788580573
vt 0.47900135 0.696470531
vt 0.495432355 0.674240348
vt 0.0720923495 0.0788580573
vt 0.0256989243 0.0498621666
vt 0.0372972806 0.0256989243
vt 0.485767058 0.672307288
vt 0.495432355 0.0788580573
vt 0.0411633993 0.0343976915
vt 0.079824587 0.0160336273
vt 0.485767058 0.0788580573
vt 0.487700117 0.0459960478
vt 0.0788580573 0.0256989243
vt 0.47803482 0.0488956369
vt 0.470302583 0.0266654539
vt 0.44903893 0.0256989243
vt 0.44613934 0.0160336273
vt 0.466436464 0.0353642212
vt 0.03923034 0.716767654
vt 0.0363307509 0.726432951
vt 0.0653266416 0.735131718
vt 0.0179666867 0.707102357
vt 0.0662931713 0.725466422
vt 0.0720923495 0.659742402
vt 0.451938519 0.735131718
vt 0.0266654539 0.703236239
vt 0.00926791949 0.688738293
vt 0.453871578 0.725466422
vt 0.474168702 0.720633773
vt 0.0189332164 0.688738293
vt 0.469336053 0.713868065
vt 0.487700117 0.702269709
vt 0.0189332164 0.0788580573
vt 0.00926791949 0.0788580573
vt 0.0179666867 0.0450295181
vt 0.430674865 0.659742402
vt 0.436474044 0.0788580573
vt 0.47900135 0.696470531
vt 0.495432355 0.674240348
vt 0.0720923495 0.0788580573
vt 0.0256989243 0.0498621666
vt 0.0372972806 0.0256989243
vt 0.485767058 0.672307288
vt 0.495432355 0.0788580573
vt 0.0411633993 0.0343976915
vt 0.079824587 0.0160336273
vt 0.485767058 0.0788580573
vt 0.487700117 0.0459960478
vt 0.0788580573 0.0256989243
vt 0.47803482 0.0488956369
vt 0.470302583 0.0266654539
vt 0.44903893 0.0256989243
vt 0.44613934 0.0160336273
vt 0.466436464 0.0353642212
vt 0.03923034 0.716767654
vt 0.0363307509 0.726432951
vt 0.0653266416 0.735131718
vt 0.0179666867 0.707102357
vt 0.0662931713 0.725466422
vt 0.0720923495 0.659742402
vt 0.451938519 0.735131718
vt 0.0266654539 0.703236239
vt 0.00926791949 0.688738293
vt 0.453871578 0.725466422
vt 0.474168702 0.720633773
vt 0.0189332164 0.688738293
vt 0.469336053 0.713868065
vt 0.487700117 0.702269709
vt 0.0189332164 0.0788580573
vt 0.00926791949 0.0788580573
vt 0.0179666867 0.0450295181
vt 0.430674865 0.659742402
vt 0.436474044 0.0788580573
vt 0.47900135 0.696470531
vt 0.495432355 0.674240348
vt 0.0720923495 0.0788580573
vt 0.0256989243 0.0498621666
vt 0.0372972806 0.0256989243
vt 0.485767058 0.672307288
vt 0.495432355 0.0788580573
vt 0.0411633993 0.0343976915
vt 0.079824587 0.0160336273
vt 0.485767058 0.0788580573
vt 0.487700117 0.0459960478
vt 0.0788580573 0.0256989243
vt 0.47803482 0.0488956369
vt 0.470302583 0.0266654539
vt 0.44903893 0.0256989243
vt 0.44613934 0.0160336273
vt 0.466436464 0.0353642212
vt 0.560189844 0.661675462
vt 0.537959661 0.732232129
vt 0.934236835 0.732232129
vt 0.519595597 0.719667243
vt 0.507997241 0.703236239
vt 0.507030711 0.677139937
vt 0.929404187 0.661675462
vt 0.929404187 0.0827241761
vt 0.961299666 0.728366011
vt 0.976764142 0.710968476
vt 0.983529849 0.695504001
vt 0.983529849 0.0701592901
vt 0.978697201 0.03923034
vt 0.963232726 0.0218328055
vt 0.921671949 0.0131340383
vt 0.549558018 0.0131340383
vt 0.560189844 0.0836907058
vt 0.507030711 0.067259701
vt 0.527327835 0.0208662758
vt 0.512829889 0.0382638103
vt 0.560189844 0.661675462
vt 0.537959661 0.732232129
vt 0.934236835 0.732232129
vt 0.519595597 0.719667243
vt 0.507997241 0.703236239
vt 0.507030711 0.677139937
vt 0.929404187 0.661675462
vt 0.929404187 0.0827241761
vt 0.961299666 0.728366011
vt 0.976764142 0.710968476
vt 0.983529849 0.695504001
vt 0.983529849 0.0701592901
vt 0.978697201 0.03923034
vt 0.963232726 0.0218328055
vt 0.921671949 0.0131340383
vt 0.549558018 0.0131340383
vt 0.560189844 0.0836907058
vt 0.507030711 0.067259701
vt 0.527327835 0.0208662758
vt 0.512829889 0.0382638103
vt 0.560189844 0.661675462
vt 0.537959661 0.732232129
vt 0.934236835 0.732232129
vt 0.519595597 0.719667243
vt 0.507997241 0.703236239
vt 0.507030711 0.677139937
vt 0.929404187 0.661675462
vt 0.929404187 0.0827241761
vt 0.961299666 0.728366011
vt 0.976764142 0.710968476
vt 0.983529849 0.695504001
vt 0.983529849 0.0701592901
vt 0.978697201 0.03923034
vt 0.963232726 0.0218328055
vt 0.921671949 0.0131340383
vt 0.549558018 0.0131340383
vt 0.560189844 0.0836907058
vt 0.507030711 0.067259701
vt 0.527327835 0.0208662758
vt 0.512829889 0.0382638103
vn 0.0352884622 0.66227228 0.748431795
vn -0.0195758658 0.99929601 -0.0320042309
vn 0.387987714 0.920918398 -0.0370788075
vn -0.575295831 0.817945418 -0
vn 0.278259058 0.442814968 0.852341951
vn 0.074477268 0.0587646716 0.995489754
vn 0.419338759 0.905242876 -0.0684860679
vn -0.286059745 0.583894669 0.75976104
vn -0.897405115 0.411463923 0.159252944
vn 0.29393458 0.442814968 0.847063969
vn 0.936630994 0.348761834 -0.0329782251
vn -0.45849049 0.262546461 0.849032288
vn 0.670147115 0.239033178 0.702684839
vn 0.991495322 -0.113666074 -0.0633801955
vn -0.442814968 0.246870939 0.861956869
vn -0.905242876 0.403626162 0.132745083
vn -0.991458248 -0.0117751788 0.129891828
vn 0.152854879 0.027413627 0.987868351
vn 0.137179357 -0.0196129399 0.990352037
vn 0.756362488 -0.0823150291 0.64895302
vn 0.913117711 -0.403663236 -0.0572017271
vn 0.0666395068 0.0195758658 0.997585065
vn -0.599570191 -0.0117751788 0.800235547
vn -0.717136608 -0.677984876 0.161405057
vn 0.607445026 -0.215556969 0.764555906
vn 0.911697924 -0.410861163 -0
vn -0.348761834 -0.395825475 0.849521852
vn -0.395788401 -0.897442189 0.194805184
vn 0.599607265 -0.215556969 0.770718055
vn 0.693660399 -0.717173682 -0.0670608727
vn -0.0666024327 -0.348798908 0.934828026
vn 0.529067415 -0.513391892 0.67566
vn 0.152365991 -0.98832414 -0
vn -0.0587646716 -0.364474431 0.92935736
vn -0.372275118 -0.913117711 0.166214568
vn 0.215556969 -0.599607265 0.770718055
vn -0.129304522 0.521192579 0.843586768
vn -0.403626162 0.913080637 -0.0580488738
vn 0.0117751788 0.99929601 0.0356206468
vn -0.756325414 0.638758997 0.141275661
vn 0.0901527903 0.466328251 0.88000593
vn 0.0509639845 0.0509269104 0.997401184
vn 0.0274507011 0.99929601 0.0255723352
vn -0.325248551 0.38795064 0.86238488
vn -0.952269443 0.0117381047 0.305032991
vn 0.105828313 0.442814968 0.890345592
vn 0.685822638 0.717136608 -0.123945129
vn -0.482003774 0.027413627 0.875740176
vn 0.505554131 0.411463923 0.758361695
vn 0.913117711 0.333086312 -0.235094778
vn -0.45849049 0.0117381047 0.888621791
vn -0.952269443 -0.00393741762 0.305233362
vn -0.881729592 -0.458527564 0.110929702
vn 0.160692641 0.0587646716 0.985253566
vn 0.160692641 -0.0117751788 0.986934253
vn 0.693660399 0.168493328 0.700317963
vn 0.9758198 0.00390034353 -0.218541769
vn 0.0509639845 -0.00393741762 0.99869273
vn -0.442814968 -0.309610102 0.841460925
vn -0.403626162 -0.913117711 0.0574627454
vn 0.654471593 0.0195758658 0.755833129
vn 0.9758198 -0.00393741762 -0.218541104
vn -0.129304522 -0.49771637 0.857647221
vn 0.00393741762 -0.999333084 0.0363026818
vn 0.623120548 0.0195758658 0.781880789
vn 0.944468756 -0.309610102 -0.11009248
vn 0.0979905514 -0.380149953 0.919719449
vn 0.646633832 -0.246908013 0.721734799
vn 0.670147115 -0.740686966 -0.0478086044
vn 0.105828313 -0.411500997 0.90524433
vn 0.0352884622 -0.999333084 0.00938682042
vn 0.474203087 -0.442852042 0.760929367
vn -0.301735267 0.419301684 0.856237073
vn -0.740649892 0.670110041 0.0488903946
vn -0.442500675 0.896768171 -0
vn -0.960107204 0.270384223 0.0713199088
vn -0.0901157162 0.380112879 0.92053971
vn 0.0431262234 0.0195758658 0.998877828
vn -0.419301684 0.905242876 0.0687126867
vn -0.427139446 0.223357656 0.876163941
vn -0.850378548 -0.42717652 0.30720766
vn -0.105791238 0.434977207 0.894205258
vn 0.191623528 0.981468504 -0
vn -0.403626162 -0.22339473 0.887232053
vn 0.239070252 0.568219146 0.787383272
vn 0.607445026 0.779838697 -0.151202336
vn -0.380112879 -0.22339473 0.897557237
vn -0.842540787 -0.442852042 0.30660576
vn -0.482003774 -0.779875771 0.399332122
vn 0.137179357 0.0744401939 0.98774515
vn 0.168530402 0.0195758658 0.985502049
vn 0.489878609 0.482003774 0.726423644
vn 0.873928905 0.45849049 -0.16135284
vn 0.0666395068 -0.0274507011 0.997399436
vn -0.239033178 -0.458527564 0.855929677
vn 0.074477268 -0.928793233 0.363037555
vn 0.615282787 0.293897506 0.731472042
vn 0.873928905 0.442814968 -0.200407517
vn 0.137179357 -0.513391892 0.847118993
vn 0.458527564 -0.842577861 0.282515524
vn 0.599607265 0.278221984 0.750375676
vn 0.9758198 0.199844372 -0.0885321662
vn 0.262583536 -0.317447864 0.911195226
vn 0.725011443 0.129304522 0.67649002
vn 0.944468756 -0.309610102 0.11009248
vn 0.286096819 -0.340961147 0.895485403
vn 0.489878609 -0.826902338 0.27613669
vn 0.646633832 -0.152854879 0.747328625
vn -0.0744401939 -0.0117751788 -0.997155957
vn -0.0352513881 0.129304522 -0.990978143
vn -0.0430891493 0.137142283 -0.989613722
vn 0.0588017457 0.0509269104 -0.996969811
vn 0.0823150291 -0.0196129399 -0.996413352
vn 0.0979905514 -0.105828313 -0.989544451
vn -0.137142283 0.0117381047 -0.990481808
vn -0.144980044 -0.0196129399 -0.989240173
vn -0.129304522 0.144980044 -0.980949095
vn -0.192006611 0.137142283 -0.971764095
vn -0.31741079 0.0744401939 -0.945361861
vn -0.31741079 0.0744401939 -0.945361861
vn -0.301735267 -0.0274507011 -0.952996478
vn -0.231195417 -0.145017118 -0.962038832
vn -0.176331089 -0.184205924 -0.966941324
vn -0.176331089 -0.184205924 -0.966941324
vn -0.0901157162 -0.0509639845 -0.994626478
vn 0.0979905514 -0.113666074 -0.988674808
vn -0.082277955 -0.192043685 -0.977931266
vn 0.0196129399 -0.168530402 -0.985501312
vn -0.0744401939 -0.00393741762 -0.997217707
vn -0.0979534773 0.160655567 -0.982137926
vn -0.105791238 0.160655567 -0.981324616
vn 0.0117751788 0.121466761 -0.992525653
vn 0.0666395068 0.0666024327 -0.995551753
vn 0.137179357 -0.0196129399 -0.990352037
vn -0.129304522 -0.00393741762 -0.991597114
vn -0.129304522 -0.0352884622 -0.990976824
vn -0.18416885 0.137142283 -0.973279933
vn -0.223357656 0.121466761 -0.967138658
vn -0.293897506 -0.0196129399 -0.955635699
vn -0.293897506 -0.0196129399 -0.955635699
vn -0.2547087 -0.113666074 -0.960314272
vn -0.160655567 -0.176368163 -0.971125152
vn -0.0979534773 -0.192043685 -0.976485709
vn -0.0979534773 -0.192043685 -0.976485709
vn -0.0744401939 -0.0352884622 -0.996600914
vn 0.137179357 -0.0196129399 -0.990352037
vn 0.0196129399 -0.145017118 -0.989234739
vn 0.105828313 -0.0823150291 -0.990971546
vn -0.082277955 0.0117381047 -0.996540293
vn -0.18416885 0.137142283 -0.973279933
vn -0.18416885 0.137142283 -0.973279933
vn -0.0587646716 0.152817805 -0.986505667
vn 0.00393741762 0.137142283 -0.990543533
vn 0.0823150291 0.082277955 -0.993204196
vn -0.144980044 -0.0196129399 -0.989240173
vn -0.129304522 -0.0509639845 -0.990294407
vn -0.215519895 0.0979534773 -0.971574131
vn -0.286059745 0.0117381047 -0.958139885
vn -0.301735267 -0.121503835 -0.945617601
vn -0.301735267 -0.121503835 -0.945617601
vn -0.192006611 -0.160692641 -0.968148406
vn -0.0901157162 -0.176368163 -0.980190506
vn -0.027413627 -0.168530402 -0.985315176
vn -0.027413627 -0.160692641 -0.986623722
vn -0.0666024327 -0.0196129399 -0.997586813
vn 0.0901527903 0.0744401939 -0.99314205
vn 0.0588017457 -0.0666395068 -0.996042936
vn 0.0901527903 0.0195758658 -0.995735537
g A_build_Coupon_0
f 3/3/3 2/2/2 1/1/1
f 1/1/1 2/2/2 4/4/4
f 5/5/5 3/3/3 1/1/1
f 5/5/5 1/1/1 6/6/6
f 7/7/7 3/3/3 5/5/5
f 8/8/8 1/1/1 4/4/4
f 8/8/8 6/6/6 1/1/1
f 8/8/8 4/4/4 9/9/9
f 10/10/10 7/7/7 5/5/5
f 10/10/10 5/5/5 6/6/6
f 11/11/11 7/7/7 10/10/10
f 12/12/12 8/8/8 9/9/9
f 12/12/12 6/6/6 8/8/8
f 13/13/13 11/11/11 10/10/10
f 14/14/14 11/11/11 13/13/13
f 15/15/15 12/12/12 9/9/9
f 16/16/16 15/15/15 9/9/9
f 15/15/15 16/16/16 17/17/17
f 13/13/13 10/10/10 18/18/18
f 18/18/18 10/10/10 6/6/6
f 19/19/19 18/18/18 6/6/6
f 20/20/20 14/14/14 13/13/13
f 20/20/20 13/13/13 18/18/18
f 21/21/21 14/14/14 20/20/20
f 22/22/22 6/6/6 12/12/12
f 15/15/15 22/22/22 12/12/12
f 22/22/22 19/19/19 6/6/6
f 23/23/23 15/15/15 17/17/17
f 23/23/23 22/22/22 15/15/15
f 23/23/23 17/17/17 24/24/24
f 25/25/25 21/21/21 20/20/20
f 25/25/25 20/20/20 18/18/18
f 21/21/21 25/25/25 26/26/26
f 27/27/27 23/23/23 24/24/24
f 27/27/27 22/22/22 23/23/23
f 27/27/27 24/24/24 28/28/28
f 25/25/25 18/18/18 29/29/29
f 25/25/25 29/29/29 26/26/26
f 18/18/18 19/19/19 29/29/29
f 30/30/30 26/26/26 29/29/29
f 31/31/31 22/22/22 27/27/27
f 31/31/31 27/27/27 28/28/28
f 22/22/22 31/31/31 19/19/19
f 32/32/32 30/30/30 29/29/29
f 32/32/32 29/29/29 19/19/19
f 33/33/33 30/30/30 32/32/32
f 31/31/31 28/28/28 34/34/34
f 31/31/31 34/34/34 19/19/19
f 28/28/28 35/35/35 34/34/34
f 36/36/36 32/32/32 19/19/19
f 36/36/36 33/33/33 32/32/32
f 34/34/34 36/36/36 19/19/19
f 35/35/35 33/33/33 36/36/36
f 34/34/34 35/35/35 36/36/36
f 39/39/39 38/38/38 37/37/37
f 37/37/37 38/38/38 40/40/40
f 41/41/41 39/39/39 37/37/37
f 41/41/41 37/37/37 42/42/42
f 43/43/43 39/39/39 41/41/41
f 44/44/44 37/37/37 40/40/40
f 44/44/44 42/42/42 37/37/37
f 44/44/44 40/40/40 45/45/45
f 46/46/46 43/43/43 41/41/41
f 46/46/46 41/41/41 42/42/42
f 47/47/47 43/43/43 46/46/46
f 48/48/48 44/44/44 45/45/45
f 48/48/48 42/42/42 44/44/44
f 49/49/49 47/47/47 46/46/46
f 50/50/50 47/47/47 49/49/49
f 51/51/51 48/48/48 45/45/45
f 52/52/52 51/51/51 45/45/45
f 51/51/51 52/52/52 53/53/53
f 49/49/49 46/46/46 54/54/54
f 54/54/54 46/46/46 42/42/42
f 55/55/55 54/54/54 42/42/42
f 56/56/56 50/50/50 49/49/49
f 56/56/56 49/49/49 54/54/54
f 57/57/57 50/50/50 56/56/56
f 58/58/58 42/42/42 48/48/48
f 51/51/51 58/58/58 48/48/48
f 58/58/58 55/55/55 42/42/42
f 59/59/59 51/51/51 53/53/53
f 59/59/59 58/58/58 51/51/51
f 59/59/59 53/53/53 60/60/60
f 61/61/61 57/57/57 56/56/56
f 61/61/61 56/56/56 54/54/54
f 57/57/57 61/61/61 62/62/62
f 63/63/63 59/59/59 60/60/60
f 63/63/63 58/58/58 59/59/59
f 63/63/63 60/60/60 64/64/64
f 61/61/61 54/54/54 65/65/65
f 61/61/61 65/65/65 62/62/62
f 54/54/54 55/55/55 65/65/65
f 66/66/66 62/62/62 65/65/65
f 67/67/67 58/58/58 63/63/63
f 67/67/67 63/63/63 64/64/64
f 58/58/58 67/67/67 55/55/55
f 68/68/68 66/66/66 65/65/65
f 68/68/68 65/65/65 55/55/55
f 69/69/69 66/66/66 68/68/68
f 67/67/67 64/64/64 70/70/70
f 67/67/67 70/70/70 55/55/55
f 64/64/64 71/71/71 70/70/70
f 72/72/72 68/68/68 55/55/55
f 72/72/72 69/69/69 68/68/68
f 70/70/70 72/72/72 55/55/55
f 71/71/71 69/69/69 72/72/72
f 70/70/70 71/71/71 72/72/72
f 75/75/75 74/74/74 73/73/73
f 73/73/73 74/74/74 76/76/76
f 77/77/77 75/75/75 73/73/73
f 77/77/77 73/73/73 78/78/78
f 79/79/79 75/75/75 77/77/77
f 80/80/80 73/73/73 76/76/76
f 80/80/80 78/78/78 73/73/73
f 80/80/80 76/76/76 81/81/81
f 82/82/82 79/79/79 77/77/77
f 82/82/82 77/77/77 78/78/78
f 83/83/83 79/79/79 82/82/82
f 84/84/84 80/80/80 81/81/81
f 84/84/84 78/78/78 80/80/80
f 85/85/85 83/83/83 82/82/82
f 86/86/86 83/83/83 85/85/85
f 87/87/87 84/84/84 81/81/81
f 88/88/88 87/87/87 81/81/81
f 87/87/87 88/88/88 89/89/89
f 85/85/85 82/82/82 90/90/90
f 90/90/90 82/82/82 78/78/78
f 91/91/91 90/90/90 78/78/78
f 92/92/92 86/86/86 85/85/85
f 92/92/92 85/85/85 90/90/90
f 93/93/93 86/86/86 92/92/92
f 94/94/94 78/78/78 84/84/84
f 87/87/87 94/94/94 84/84/84
f 94/94/94 91/91/91 78/78/78
f 95/95/95 87/87/87 89/89/89
f 95/95/95 94/94/94 87/87/87
f 95/95/95 89/89/89 96/96/96
f 97/97/97 93/93/93 92/92/92
f 97/97/97 92/92/92 90/90/90
f 93/93/93 97/97/97 98/98/98
f 99/99/99 95/95/95 96/96/96
f 99/99/99 94/94/94 95/95/95
f 99/99/99 96/96/96 100/100/100
f 97/97/97 90/90/90 101/101/101
f 97/97/97 101/101/101 98/98/98
f 90/90/90 91/91/91 101/101/101
f 102/102/102 98/98/98 101/101/101
f 103/103/103 94/94/94 99/99/99
f 103/103/103 99/99/99 100/100/100
f 94/94/94 103/103/103 91/91/91
f 104/104/104 102/102/102 101/101/101
f 104/104/104 101/101/101 91/91/91
f 105/105/105 102/102/102 104/104/104
f 103/103/103 100/100/100 106/106/106
f 103/103/103 106/106/106 91/91/91
f 100/100/100 107/107/107 106/106/106
f 108/108/108 104/104/104 91/91/91
f 108/108/108 105/105/105 104/104/104
f 106/106/106 108/108/108 91/91/91
f 107/107/107 105/105/105 108/108/108
f 106/106/106 107/107/107 108/108/108
f 111/111/111 110/110/110 109/109/109
f 109/109/109 110/110/110 112/112/112
f 113/113/113 109/109/109 112/112/112
f 114/114/114 109/109/109 113/113/113
f 115/115/115 111/111/111 109/109/109
f 115/115/115 109/109/109 116/116/116
f 115/115/115 117/117/117 111/111/111
f 117/117/117 115/115/115 118/118/118
f 119/119/119 118/118/118 115/115/115
f 120/120/120 119/119/119 115/115/115
f 116/116/116 120/120/120 115/115/115
f 120/120/120 116/116/116 121/121/121
f 121/121/121 116/116/116 122/122/122
f 116/116/116 123/123/123 122/122/122
f 123/123/123 116/116/116 124/124/124
f 109/109/109 114/114/114 125/125/125
f 109/109/109 125/125/125 116/116/116
f 116/116/116 125/125/125 124/124/124
f 114/114/114 126/126/126 125/125/125
f 125/125/125 127/127/127 124/124/124
f 126/126/126 128/128/128 125/125/125
f 127/127/127 125/125/125 128/128/128
f 131/131/131 130/130/130 129/129/129
f 129/129/129 130/130/130 132/132/132
f 133/133/133 129/129/129 132/132/132
f 134/134/134 129/129/129 133/133/133
f 135/135/135 131/131/131 129/129/129
f 135/135/135 129/129/129 136/136/136
f 135/135/135 137/137/137 131/131/131
f 137/137/137 135/135/135 138/138/138
f 139/139/139 138/138/138 135/135/135
f 140/140/140 139/139/139 135/135/135
f 136/136/136 140/140/140 135/135/135
f 140/140/140 136/136/136 141/141/141
f 141/141/141 136/136/136 142/142/142
f 136/136/136 143/143/143 142/142/142
f 143/143/143 136/136/136 144/144/144
f 129/129/129 134/134/134 145/145/145
f 129/129/129 145/145/145 136/136/136
f 136/136/136 145/145/145 144/144/144
f 134/134/134 146/146/146 145/145/145
f 145/145/145 147/147/147 144/144/144
f 146/146/146 148/148/148 145/145/145
f 147/147/147 145/145/145 148/148/148
f 151/151/151 150/150/150 149/149/149
f 149/149/149 150/150/150 152/152/152
f 153/153/153 149/149/149 152/152/152
f 154/154/154 149/149/149 153/153/153
f 155/155/155 151/151/151 149/149/149
f 155/155/155 149/149/149 156/156/156
f 155/155/155 157/157/157 151/151/151
f 157/157/157 155/155/155 158/158/158
f 159/159/159 158/158/158 155/155/155
f 160/160/160 159/159/159 155/155/155
f 156/156/156 160/160/160 155/155/155
f 160/160/160 156/156/156 161/161/161
f 161/161/161 156/156/156 162/162/162
f 156/156/156 163/163/163 162/162/162
f 163/163/163 156/156/156 164/164/164
f 149/149/149 154/154/154 165/165/165
f 149/149/149 165/165/165 156/156/156
f 156/156/156 165/165/165 164/164/164
f 154/154/154 166/166/166 165/165/165
f 165/165/165 167/167/167 164/164/164
f 166/166/166 168/168/168 165/165/165
f 167/167/167 165/165/165 168/168/168
